<?xml version="1.0" encoding="UTF-8" standalone="no"?>
<!DOCTYPE svg PUBLIC "-//W3C//DTD SVG 1.1//EN"
 "http://www.w3.org/Graphics/SVG/1.1/DTD/svg11.dtd">
<!-- Generated by graphviz version 11.0.0 (20240428.1522)
 -->
<!-- Title: imdf_net_1754051107.7039027 Pages: 1 -->
<svg width="2905pt" height="278pt"
 viewBox="0.00 0.00 2904.75 278.00" xmlns="http://www.w3.org/2000/svg" xmlns:xlink="http://www.w3.org/1999/xlink">
<g id="graph0" class="graph" transform="scale(1 1) rotate(0) translate(4 274)">
<title>imdf_net_1754051107.7039027</title>
<polygon fill="white" stroke="none" points="-4,4 -4,-274 2900.75,-274 2900.75,4 -4,4"/>
<!-- 1987206043488 -->
<g id="node1" class="node">
<title>1987206043488</title>
<polygon fill="white" stroke="black" points="160.75,-153 90,-153 90,-117 160.75,-117 160.75,-153"/>
<text text-anchor="middle" x="125.38" y="-129.97" font-family="Times New Roman,serif" font-size="12.00">Site Survey</text>
</g>
<!-- 1987206041088 -->
<g id="node19" class="node">
<title>1987206041088</title>
<ellipse fill="white" stroke="black" cx="223.75" cy="-135" rx="27" ry="27"/>
</g>
<!-- 1987206043488&#45;&gt;1987206041088 -->
<g id="edge2" class="edge">
<title>1987206043488&#45;&gt;1987206041088</title>
<path fill="none" stroke="black" d="M161.17,-135C168.9,-135 177.14,-135 184.98,-135"/>
<polygon fill="black" stroke="black" points="184.97,-138.5 194.97,-135 184.97,-131.5 184.97,-138.5"/>
</g>
<!-- 1987206042144 -->
<g id="node2" class="node">
<title>1987206042144</title>
<polygon fill="white" stroke="black" points="361.25,-153 286.75,-153 286.75,-117 361.25,-117 361.25,-153"/>
<text text-anchor="middle" x="324" y="-129.97" font-family="Times New Roman,serif" font-size="12.00">Load Check</text>
</g>
<!-- 1987206042240 -->
<g id="node20" class="node">
<title>1987206042240</title>
<ellipse fill="white" stroke="black" cx="424.25" cy="-171" rx="27" ry="27"/>
</g>
<!-- 1987206042144&#45;&gt;1987206042240 -->
<g id="edge4" class="edge">
<title>1987206042144&#45;&gt;1987206042240</title>
<path fill="none" stroke="black" d="M361.58,-148.41C370.16,-151.55 379.28,-154.89 387.8,-158.01"/>
<polygon fill="black" stroke="black" points="386.55,-161.28 397.14,-161.43 388.96,-154.71 386.55,-161.28"/>
</g>
<!-- 1987206053568 -->
<g id="node21" class="node">
<title>1987206053568</title>
<ellipse fill="white" stroke="black" cx="424.25" cy="-99" rx="27" ry="27"/>
</g>
<!-- 1987206042144&#45;&gt;1987206053568 -->
<g id="edge5" class="edge">
<title>1987206042144&#45;&gt;1987206053568</title>
<path fill="none" stroke="black" d="M361.58,-121.59C370.16,-118.45 379.28,-115.11 387.8,-111.99"/>
<polygon fill="black" stroke="black" points="388.96,-115.29 397.14,-108.57 386.55,-108.72 388.96,-115.29"/>
</g>
<!-- 1987206050016 -->
<g id="node3" class="node">
<title>1987206050016</title>
<polygon fill="white" stroke="black" points="567.75,-189 487.25,-189 487.25,-153 567.75,-153 567.75,-189"/>
<text text-anchor="middle" x="527.5" y="-165.97" font-family="Times New Roman,serif" font-size="12.00">Sun Mapping</text>
</g>
<!-- 1987207540912 -->
<g id="node23" class="node">
<title>1987207540912</title>
<ellipse fill="white" stroke="black" cx="630.75" cy="-243" rx="27" ry="27"/>
</g>
<!-- 1987206050016&#45;&gt;1987207540912 -->
<g id="edge10" class="edge">
<title>1987206050016&#45;&gt;1987207540912</title>
<path fill="none" stroke="black" d="M554.31,-189.35C567.96,-199.06 584.81,-211.04 599.12,-221.22"/>
<polygon fill="black" stroke="black" points="596.68,-223.78 606.86,-226.72 600.74,-218.07 596.68,-223.78"/>
</g>
<!-- 1987207535440 -->
<g id="node24" class="node">
<title>1987207535440</title>
<ellipse fill="white" stroke="black" cx="630.75" cy="-171" rx="27" ry="27"/>
</g>
<!-- 1987206050016&#45;&gt;1987207535440 -->
<g id="edge8" class="edge">
<title>1987206050016&#45;&gt;1987207535440</title>
<path fill="none" stroke="black" d="M568.23,-171C576.1,-171 584.34,-171 592.14,-171"/>
<polygon fill="black" stroke="black" points="592.02,-174.5 602.02,-171 592.02,-167.5 592.02,-174.5"/>
</g>
<!-- 1987207596896 -->
<g id="node4" class="node">
<title>1987207596896</title>
<polygon fill="white" stroke="black" points="564,-117 491,-117 491,-81 564,-81 564,-117"/>
<text text-anchor="middle" x="527.5" y="-93.97" font-family="Times New Roman,serif" font-size="12.00">Wind Study</text>
</g>
<!-- 1987207539904 -->
<g id="node22" class="node">
<title>1987207539904</title>
<ellipse fill="white" stroke="black" cx="630.75" cy="-27" rx="27" ry="27"/>
</g>
<!-- 1987207596896&#45;&gt;1987207539904 -->
<g id="edge9" class="edge">
<title>1987207596896&#45;&gt;1987207539904</title>
<path fill="none" stroke="black" d="M554.31,-80.65C567.96,-70.94 584.81,-58.96 599.12,-48.78"/>
<polygon fill="black" stroke="black" points="600.74,-51.93 606.86,-43.28 596.68,-46.22 600.74,-51.93"/>
</g>
<!-- 1987207534672 -->
<g id="node25" class="node">
<title>1987207534672</title>
<ellipse fill="white" stroke="black" cx="630.75" cy="-99" rx="27" ry="27"/>
</g>
<!-- 1987207596896&#45;&gt;1987207534672 -->
<g id="edge11" class="edge">
<title>1987207596896&#45;&gt;1987207534672</title>
<path fill="none" stroke="black" d="M564.48,-99C573.41,-99 583.01,-99 592.02,-99"/>
<polygon fill="black" stroke="black" points="591.92,-102.5 601.92,-99 591.92,-95.5 591.92,-102.5"/>
</g>
<!-- 1987207598240 -->
<g id="node5" class="node">
<title>1987207598240</title>
<polygon fill="white" stroke="black" points="770.5,-119 693.75,-119 693.75,-83 770.5,-83 770.5,-119"/>
<text text-anchor="middle" x="732.12" y="-95.97" font-family="Times New Roman,serif" font-size="12.00">Hydro Setup</text>
</g>
<!-- 1987207598480 -->
<g id="node27" class="node">
<title>1987207598480</title>
<ellipse fill="white" stroke="black" cx="833.5" cy="-101" rx="27" ry="27"/>
</g>
<!-- 1987207598240&#45;&gt;1987207598480 -->
<g id="edge17" class="edge">
<title>1987207598240&#45;&gt;1987207598480</title>
<path fill="none" stroke="black" d="M770.98,-101C778.77,-101 786.98,-101 794.77,-101"/>
<polygon fill="black" stroke="black" points="794.65,-104.5 804.65,-101 794.65,-97.5 794.65,-104.5"/>
</g>
<!-- 1987207597424 -->
<g id="node6" class="node">
<title>1987207597424</title>
<polygon fill="white" stroke="black" points="765.25,-186 699,-186 699,-150 765.25,-150 765.25,-186"/>
<text text-anchor="middle" x="732.12" y="-162.97" font-family="Times New Roman,serif" font-size="12.00">Soil Select</text>
</g>
<!-- 1987207596560 -->
<g id="node26" class="node">
<title>1987207596560</title>
<ellipse fill="white" stroke="black" cx="942" cy="-168" rx="27" ry="27"/>
</g>
<!-- 1987207597424&#45;&gt;1987207596560 -->
<g id="edge16" class="edge">
<title>1987207597424&#45;&gt;1987207596560</title>
<path fill="none" stroke="black" d="M765.61,-168C802.86,-168 863.85,-168 903.2,-168"/>
<polygon fill="black" stroke="black" points="903.16,-171.5 913.16,-168 903.16,-164.5 903.16,-171.5"/>
</g>
<!-- 1987200809104 -->
<g id="node7" class="node">
<title>1987200809104</title>
<polygon fill="black" stroke="black" points="2251.5,-186 2197.5,-186 2197.5,-150 2251.5,-150 2251.5,-186"/>
</g>
<!-- 1987205692736 -->
<g id="node29" class="node">
<title>1987205692736</title>
<ellipse fill="white" stroke="black" cx="2328.75" cy="-185" rx="27" ry="27"/>
<ellipse fill="none" stroke="black" cx="2328.75" cy="-185" rx="31" ry="31"/>
<text text-anchor="start" x="2312.25" y="-169.6" font-family="Times New Roman,serif" font-size="32.00">■</text>
</g>
<!-- 1987200809104&#45;&gt;1987205692736 -->
<g id="edge21" class="edge">
<title>1987200809104&#45;&gt;1987205692736</title>
<path fill="none" stroke="black" d="M2251.83,-172.38C2262.5,-174.15 2275.08,-176.24 2286.89,-178.21"/>
<polygon fill="black" stroke="black" points="2285.96,-181.6 2296.4,-179.79 2287.11,-174.7 2285.96,-181.6"/>
</g>
<!-- 1987207599056 -->
<g id="node8" class="node">
<title>1987207599056</title>
<polygon fill="white" stroke="black" points="987.5,-119 896.5,-119 896.5,-83 987.5,-83 987.5,-119"/>
<text text-anchor="middle" x="942" y="-95.97" font-family="Times New Roman,serif" font-size="12.00">Irrigation Install</text>
</g>
<!-- 1987207599296 -->
<g id="node28" class="node">
<title>1987207599296</title>
<ellipse fill="white" stroke="black" cx="1050.5" cy="-101" rx="27" ry="27"/>
</g>
<!-- 1987207599056&#45;&gt;1987207599296 -->
<g id="edge20" class="edge">
<title>1987207599056&#45;&gt;1987207599296</title>
<path fill="none" stroke="black" d="M987.86,-101C995.86,-101 1004.12,-101 1011.9,-101"/>
<polygon fill="black" stroke="black" points="1011.71,-104.5 1021.71,-101 1011.71,-97.5 1011.71,-104.5"/>
</g>
<!-- 1987207599872 -->
<g id="node9" class="node">
<title>1987207599872</title>
<polygon fill="white" stroke="black" points="1206.75,-119 1113.5,-119 1113.5,-83 1206.75,-83 1206.75,-119"/>
<text text-anchor="middle" x="1160.12" y="-95.97" font-family="Times New Roman,serif" font-size="12.00">Sensor Network</text>
</g>
<!-- 1987207600112 -->
<g id="node30" class="node">
<title>1987207600112</title>
<ellipse fill="white" stroke="black" cx="1269.75" cy="-101" rx="27" ry="27"/>
</g>
<!-- 1987207599872&#45;&gt;1987207600112 -->
<g id="edge23" class="edge">
<title>1987207599872&#45;&gt;1987207600112</title>
<path fill="none" stroke="black" d="M1207.08,-101C1215.12,-101 1223.41,-101 1231.19,-101"/>
<polygon fill="black" stroke="black" points="1231.01,-104.5 1241.01,-101 1231.01,-97.5 1231.01,-104.5"/>
</g>
<!-- 1987207600688 -->
<g id="node10" class="node">
<title>1987207600688</title>
<polygon fill="white" stroke="black" points="1411.75,-119 1332.75,-119 1332.75,-83 1411.75,-83 1411.75,-119"/>
<text text-anchor="middle" x="1372.25" y="-95.97" font-family="Times New Roman,serif" font-size="12.00">Nutrient Plan</text>
</g>
<!-- 1987207601936 -->
<g id="node31" class="node">
<title>1987207601936</title>
<ellipse fill="white" stroke="black" cx="1474.75" cy="-101" rx="27" ry="27"/>
</g>
<!-- 1987207600688&#45;&gt;1987207601936 -->
<g id="edge25" class="edge">
<title>1987207600688&#45;&gt;1987207601936</title>
<path fill="none" stroke="black" d="M1412.11,-101C1419.96,-101 1428.2,-101 1436.01,-101"/>
<polygon fill="black" stroke="black" points="1435.91,-104.5 1445.91,-101 1435.91,-97.5 1435.91,-104.5"/>
</g>
<!-- 1987207602512 -->
<g id="node11" class="node">
<title>1987207602512</title>
<polygon fill="white" stroke="black" points="1637,-119 1537.75,-119 1537.75,-83 1637,-83 1637,-119"/>
<text text-anchor="middle" x="1587.38" y="-95.97" font-family="Times New Roman,serif" font-size="12.00">Community Meet</text>
</g>
<!-- 1987207602752 -->
<g id="node32" class="node">
<title>1987207602752</title>
<ellipse fill="white" stroke="black" cx="1700" cy="-101" rx="27" ry="27"/>
</g>
<!-- 1987207602512&#45;&gt;1987207602752 -->
<g id="edge27" class="edge">
<title>1987207602512&#45;&gt;1987207602752</title>
<path fill="none" stroke="black" d="M1637.22,-101C1645.29,-101 1653.55,-101 1661.29,-101"/>
<polygon fill="black" stroke="black" points="1661.05,-104.5 1671.05,-101 1661.05,-97.5 1661.05,-104.5"/>
</g>
<!-- 1987207603328 -->
<g id="node12" class="node">
<title>1987207603328</title>
<polygon fill="white" stroke="black" points="1858.5,-119 1763,-119 1763,-83 1858.5,-83 1858.5,-119"/>
<text text-anchor="middle" x="1810.75" y="-95.97" font-family="Times New Roman,serif" font-size="12.00">Training Session</text>
</g>
<!-- 1987207604384 -->
<g id="node33" class="node">
<title>1987207604384</title>
<ellipse fill="white" stroke="black" cx="1921.5" cy="-101" rx="27" ry="27"/>
</g>
<!-- 1987207603328&#45;&gt;1987207604384 -->
<g id="edge29" class="edge">
<title>1987207603328&#45;&gt;1987207604384</title>
<path fill="none" stroke="black" d="M1858.82,-101C1866.82,-101 1875.04,-101 1882.77,-101"/>
<polygon fill="black" stroke="black" points="1882.5,-104.5 1892.5,-101 1882.5,-97.5 1882.5,-104.5"/>
</g>
<!-- 1987207605152 -->
<g id="node13" class="node">
<title>1987207605152</title>
<polygon fill="white" stroke="black" points="2061.25,-125 1984.5,-125 1984.5,-89 2061.25,-89 2061.25,-125"/>
<text text-anchor="middle" x="2022.88" y="-101.97" font-family="Times New Roman,serif" font-size="12.00">Crop Choice</text>
</g>
<!-- 1987207604912 -->
<g id="node34" class="node">
<title>1987207604912</title>
<ellipse fill="white" stroke="black" cx="2124.25" cy="-109" rx="27" ry="27"/>
</g>
<!-- 1987207605152&#45;&gt;1987207604912 -->
<g id="edge31" class="edge">
<title>1987207605152&#45;&gt;1987207604912</title>
<path fill="none" stroke="black" d="M2061.73,-107.76C2069.52,-107.92 2077.73,-108.08 2085.52,-108.24"/>
<polygon fill="black" stroke="black" points="2085.33,-111.74 2095.4,-108.44 2085.48,-104.74 2085.33,-111.74"/>
</g>
<!-- 1987207606832 -->
<g id="node14" class="node">
<title>1987207606832</title>
<polygon fill="white" stroke="black" points="2261.75,-127 2187.25,-127 2187.25,-91 2261.75,-91 2261.75,-127"/>
<text text-anchor="middle" x="2224.5" y="-103.97" font-family="Times New Roman,serif" font-size="12.00">Pest Control</text>
</g>
<!-- 1987207607072 -->
<g id="node35" class="node">
<title>1987207607072</title>
<ellipse fill="white" stroke="black" cx="2328.75" cy="-109" rx="27" ry="27"/>
</g>
<!-- 1987207606832&#45;&gt;1987207607072 -->
<g id="edge34" class="edge">
<title>1987207606832&#45;&gt;1987207607072</title>
<path fill="none" stroke="black" d="M2262.13,-109C2271.13,-109 2280.79,-109 2289.85,-109"/>
<polygon fill="black" stroke="black" points="2289.81,-112.5 2299.81,-109 2289.81,-105.5 2289.81,-112.5"/>
</g>
<!-- 1987207607648 -->
<g id="node15" class="node">
<title>1987207607648</title>
<polygon fill="white" stroke="black" points="2472.5,-127 2395.75,-127 2395.75,-91 2472.5,-91 2472.5,-127"/>
<text text-anchor="middle" x="2434.12" y="-103.97" font-family="Times New Roman,serif" font-size="12.00">Harvest Plan</text>
</g>
<!-- 1987207607888 -->
<g id="node36" class="node">
<title>1987207607888</title>
<ellipse fill="white" stroke="black" cx="2535.5" cy="-109" rx="27" ry="27"/>
</g>
<!-- 1987207607648&#45;&gt;1987207607888 -->
<g id="edge36" class="edge">
<title>1987207607648&#45;&gt;1987207607888</title>
<path fill="none" stroke="black" d="M2472.98,-109C2480.77,-109 2488.98,-109 2496.77,-109"/>
<polygon fill="black" stroke="black" points="2496.65,-112.5 2506.65,-109 2496.65,-105.5 2496.65,-112.5"/>
</g>
<!-- 1987207608464 -->
<g id="node16" class="node">
<title>1987207608464</title>
<polygon fill="white" stroke="black" points="2685,-127 2598.5,-127 2598.5,-91 2685,-91 2685,-127"/>
<text text-anchor="middle" x="2641.75" y="-103.97" font-family="Times New Roman,serif" font-size="12.00">Waste Recycle</text>
</g>
<!-- 1987207609040 -->
<g id="node37" class="node">
<title>1987207609040</title>
<ellipse fill="white" stroke="black" cx="2748" cy="-109" rx="27" ry="27"/>
</g>
<!-- 1987207608464&#45;&gt;1987207609040 -->
<g id="edge38" class="edge">
<title>1987207608464&#45;&gt;1987207609040</title>
<path fill="none" stroke="black" d="M2685.45,-109C2693.37,-109 2701.59,-109 2709.34,-109"/>
<polygon fill="black" stroke="black" points="2709.14,-112.5 2719.14,-109 2709.14,-105.5 2709.14,-112.5"/>
</g>
<!-- 1987205693072 -->
<g id="node17" class="node">
<title>1987205693072</title>
<polygon fill="white" stroke="black" points="2896.75,-99 2811,-99 2811,-63 2896.75,-63 2896.75,-99"/>
<text text-anchor="middle" x="2853.88" y="-75.97" font-family="Times New Roman,serif" font-size="12.00">Season Switch</text>
</g>
<!-- 1987205693072&#45;&gt;1987207604384 -->
<g id="edge40" class="edge">
<title>1987205693072&#45;&gt;1987207604384</title>
<path fill="none" stroke="black" d="M2810.82,-72.38C2768.55,-64.48 2701.41,-54 2642.75,-54 2123.25,-54 2123.25,-54 2123.25,-54 2063.99,-54 1997.42,-73.65 1957.78,-87.54"/>
<polygon fill="black" stroke="black" points="1956.76,-84.19 1948.53,-90.86 1959.12,-90.78 1956.76,-84.19"/>
</g>
<!-- 1987205692640 -->
<g id="node18" class="node">
<title>1987205692640</title>
<ellipse fill="white" stroke="black" cx="27" cy="-135" rx="27" ry="27"/>
<text text-anchor="start" x="9.75" y="-117.7" font-family="Times New Roman,serif" font-size="34.00">●</text>
</g>
<!-- 1987205692640&#45;&gt;1987206043488 -->
<g id="edge1" class="edge">
<title>1987205692640&#45;&gt;1987206043488</title>
<path fill="none" stroke="black" d="M54.33,-135C61.76,-135 70.06,-135 78.28,-135"/>
<polygon fill="black" stroke="black" points="78.24,-138.5 88.24,-135 78.24,-131.5 78.24,-138.5"/>
</g>
<!-- 1987206041088&#45;&gt;1987206042144 -->
<g id="edge3" class="edge">
<title>1987206041088&#45;&gt;1987206042144</title>
<path fill="none" stroke="black" d="M251.08,-135C258.42,-135 266.63,-135 274.81,-135"/>
<polygon fill="black" stroke="black" points="274.74,-138.5 284.74,-135 274.74,-131.5 274.74,-138.5"/>
</g>
<!-- 1987206042240&#45;&gt;1987206050016 -->
<g id="edge7" class="edge">
<title>1987206042240&#45;&gt;1987206050016</title>
<path fill="none" stroke="black" d="M451.59,-171C459,-171 467.32,-171 475.65,-171"/>
<polygon fill="black" stroke="black" points="475.42,-174.5 485.42,-171 475.42,-167.5 475.42,-174.5"/>
</g>
<!-- 1987206053568&#45;&gt;1987207596896 -->
<g id="edge6" class="edge">
<title>1987206053568&#45;&gt;1987207596896</title>
<path fill="none" stroke="black" d="M451.59,-99C460.09,-99 469.78,-99 479.31,-99"/>
<polygon fill="black" stroke="black" points="479.25,-102.5 489.25,-99 479.25,-95.5 479.25,-102.5"/>
</g>
<!-- 1987207539904&#45;&gt;1987207598240 -->
<g id="edge15" class="edge">
<title>1987207539904&#45;&gt;1987207598240</title>
<path fill="none" stroke="black" d="M652.82,-42.69C665.85,-52.39 682.85,-65.05 697.68,-76.09"/>
<polygon fill="black" stroke="black" points="695.25,-78.65 705.36,-81.82 699.43,-73.04 695.25,-78.65"/>
</g>
<!-- 1987207540912&#45;&gt;1987207597424 -->
<g id="edge12" class="edge">
<title>1987207540912&#45;&gt;1987207597424</title>
<path fill="none" stroke="black" d="M652.82,-227.09C665.94,-217.2 683.09,-204.25 698,-193"/>
<polygon fill="black" stroke="black" points="699.85,-195.99 705.73,-187.17 695.64,-190.4 699.85,-195.99"/>
</g>
<!-- 1987207535440&#45;&gt;1987207598240 -->
<g id="edge14" class="edge">
<title>1987207535440&#45;&gt;1987207598240</title>
<path fill="none" stroke="black" d="M653.31,-155.81C665.77,-147.04 681.74,-135.79 695.97,-125.76"/>
<polygon fill="black" stroke="black" points="697.62,-128.88 703.78,-120.26 693.59,-123.16 697.62,-128.88"/>
</g>
<!-- 1987207534672&#45;&gt;1987207597424 -->
<g id="edge13" class="edge">
<title>1987207534672&#45;&gt;1987207597424</title>
<path fill="none" stroke="black" d="M653.31,-113.97C665.56,-122.47 681.2,-133.33 695.24,-143.09"/>
<polygon fill="black" stroke="black" points="693.2,-145.93 703.41,-148.75 697.19,-140.18 693.2,-145.93"/>
</g>
<!-- 1987207596560&#45;&gt;1987200809104 -->
<g id="edge18" class="edge">
<title>1987207596560&#45;&gt;1987200809104</title>
<path fill="none" stroke="black" d="M969.28,-168C1009.97,-168 1090.65,-168 1159.12,-168 1159.12,-168 1159.12,-168 2023.88,-168 2080.22,-168 2145.5,-168 2185.65,-168"/>
<polygon fill="black" stroke="black" points="2185.51,-171.5 2195.51,-168 2185.51,-164.5 2185.51,-171.5"/>
</g>
<!-- 1987207598480&#45;&gt;1987207599056 -->
<g id="edge19" class="edge">
<title>1987207598480&#45;&gt;1987207599056</title>
<path fill="none" stroke="black" d="M860.83,-101C868.19,-101 876.5,-101 884.89,-101"/>
<polygon fill="black" stroke="black" points="884.81,-104.5 894.81,-101 884.81,-97.5 884.81,-104.5"/>
</g>
<!-- 1987207599296&#45;&gt;1987207599872 -->
<g id="edge22" class="edge">
<title>1987207599296&#45;&gt;1987207599872</title>
<path fill="none" stroke="black" d="M1077.83,-101C1085.19,-101 1093.48,-101 1101.89,-101"/>
<polygon fill="black" stroke="black" points="1101.83,-104.5 1111.83,-101 1101.83,-97.5 1101.83,-104.5"/>
</g>
<!-- 1987207600112&#45;&gt;1987207600688 -->
<g id="edge24" class="edge">
<title>1987207600112&#45;&gt;1987207600688</title>
<path fill="none" stroke="black" d="M1297.16,-101C1304.59,-101 1312.94,-101 1321.27,-101"/>
<polygon fill="black" stroke="black" points="1321.03,-104.5 1331.03,-101 1321.03,-97.5 1321.03,-104.5"/>
</g>
<!-- 1987207601936&#45;&gt;1987207602512 -->
<g id="edge26" class="edge">
<title>1987207601936&#45;&gt;1987207602512</title>
<path fill="none" stroke="black" d="M1502.25,-101C1509.54,-101 1517.77,-101 1526.14,-101"/>
<polygon fill="black" stroke="black" points="1526.07,-104.5 1536.07,-101 1526.07,-97.5 1526.07,-104.5"/>
</g>
<!-- 1987207602752&#45;&gt;1987207603328 -->
<g id="edge28" class="edge">
<title>1987207602752&#45;&gt;1987207603328</title>
<path fill="none" stroke="black" d="M1727.33,-101C1734.67,-101 1742.96,-101 1751.38,-101"/>
<polygon fill="black" stroke="black" points="1751.34,-104.5 1761.34,-101 1751.34,-97.5 1751.34,-104.5"/>
</g>
<!-- 1987207604384&#45;&gt;1987207605152 -->
<g id="edge30" class="edge">
<title>1987207604384&#45;&gt;1987207605152</title>
<path fill="none" stroke="black" d="M1948.87,-102.59C1956.3,-103.04 1964.63,-103.54 1972.94,-104.05"/>
<polygon fill="black" stroke="black" points="1972.45,-107.52 1982.65,-104.63 1972.88,-100.54 1972.45,-107.52"/>
</g>
<!-- 1987207604912&#45;&gt;1987200809104 -->
<g id="edge32" class="edge">
<title>1987207604912&#45;&gt;1987200809104</title>
<path fill="none" stroke="black" d="M2148.04,-122.68C2159.69,-129.68 2174.15,-138.37 2187.29,-146.26"/>
<polygon fill="black" stroke="black" points="2185.34,-149.17 2195.71,-151.31 2188.94,-143.16 2185.34,-149.17"/>
</g>
<!-- 1987207604912&#45;&gt;1987207606832 -->
<g id="edge33" class="edge">
<title>1987207604912&#45;&gt;1987207606832</title>
<path fill="none" stroke="black" d="M2151.58,-109C2158.92,-109 2167.13,-109 2175.31,-109"/>
<polygon fill="black" stroke="black" points="2175.24,-112.5 2185.24,-109 2175.24,-105.5 2175.24,-112.5"/>
</g>
<!-- 1987207607072&#45;&gt;1987207607648 -->
<g id="edge35" class="edge">
<title>1987207607072&#45;&gt;1987207607648</title>
<path fill="none" stroke="black" d="M2356.1,-109C2364.7,-109 2374.54,-109 2384.25,-109"/>
<polygon fill="black" stroke="black" points="2383.99,-112.5 2393.99,-109 2383.99,-105.5 2383.99,-112.5"/>
</g>
<!-- 1987207607888&#45;&gt;1987207608464 -->
<g id="edge37" class="edge">
<title>1987207607888&#45;&gt;1987207608464</title>
<path fill="none" stroke="black" d="M2562.81,-109C2570.19,-109 2578.49,-109 2586.86,-109"/>
<polygon fill="black" stroke="black" points="2586.71,-112.5 2596.71,-109 2586.71,-105.5 2586.71,-112.5"/>
</g>
<!-- 1987207609040&#45;&gt;1987205693072 -->
<g id="edge39" class="edge">
<title>1987207609040&#45;&gt;1987205693072</title>
<path fill="none" stroke="black" d="M2774.41,-102.15C2782.1,-100.08 2790.84,-97.72 2799.64,-95.35"/>
<polygon fill="black" stroke="black" points="2800.52,-98.74 2809.27,-92.75 2798.7,-91.98 2800.52,-98.74"/>
</g>
</g>
</svg>
