<?xml version="1.0" encoding="UTF-8" standalone="no"?>
<!DOCTYPE svg PUBLIC "-//W3C//DTD SVG 1.1//EN"
 "http://www.w3.org/Graphics/SVG/1.1/DTD/svg11.dtd">
<!-- Generated by graphviz version 11.0.0 (20240428.1522)
 -->
<!-- Title: imdf_net_1754051121.688596 Pages: 1 -->
<svg width="2809pt" height="278pt"
 viewBox="0.00 0.00 2808.50 278.00" xmlns="http://www.w3.org/2000/svg" xmlns:xlink="http://www.w3.org/1999/xlink">
<g id="graph0" class="graph" transform="scale(1 1) rotate(0) translate(4 274)">
<title>imdf_net_1754051121.688596</title>
<polygon fill="white" stroke="none" points="-4,4 -4,-274 2804.5,-274 2804.5,4 -4,4"/>
<!-- 1987207436128 -->
<g id="node1" class="node">
<title>1987207436128</title>
<polygon fill="white" stroke="black" points="175,-153 90,-153 90,-117 175,-117 175,-153"/>
<text text-anchor="middle" x="132.5" y="-129.97" font-family="Times New Roman,serif" font-size="12.00">Data Ingestion</text>
</g>
<!-- 1987207435696 -->
<g id="node19" class="node">
<title>1987207435696</title>
<ellipse fill="white" stroke="black" cx="238" cy="-135" rx="27" ry="27"/>
</g>
<!-- 1987207436128&#45;&gt;1987207435696 -->
<g id="edge2" class="edge">
<title>1987207436128&#45;&gt;1987207435696</title>
<path fill="none" stroke="black" d="M175.3,-135C183.2,-135 191.42,-135 199.18,-135"/>
<polygon fill="black" stroke="black" points="199.01,-138.5 209.01,-135 199.01,-131.5 199.01,-138.5"/>
</g>
<!-- 1987207435072 -->
<g id="node2" class="node">
<title>1987207435072</title>
<polygon fill="white" stroke="black" points="401.75,-153 301,-153 301,-117 401.75,-117 401.75,-153"/>
<text text-anchor="middle" x="351.38" y="-129.97" font-family="Times New Roman,serif" font-size="12.00">Quantum Encrypt</text>
</g>
<!-- 1987207434736 -->
<g id="node20" class="node">
<title>1987207434736</title>
<ellipse fill="white" stroke="black" cx="464.75" cy="-135" rx="27" ry="27"/>
</g>
<!-- 1987207435072&#45;&gt;1987207434736 -->
<g id="edge4" class="edge">
<title>1987207435072&#45;&gt;1987207434736</title>
<path fill="none" stroke="black" d="M402.2,-135C410.18,-135 418.33,-135 425.97,-135"/>
<polygon fill="black" stroke="black" points="425.95,-138.5 435.95,-135 425.95,-131.5 425.95,-138.5"/>
</g>
<!-- 1987207434064 -->
<g id="node3" class="node">
<title>1987207434064</title>
<polygon fill="white" stroke="black" points="618,-153 527.75,-153 527.75,-117 618,-117 618,-153"/>
<text text-anchor="middle" x="572.88" y="-129.97" font-family="Times New Roman,serif" font-size="12.00">Demand Model</text>
</g>
<!-- 1987207433728 -->
<g id="node21" class="node">
<title>1987207433728</title>
<ellipse fill="white" stroke="black" cx="681" cy="-99" rx="27" ry="27"/>
</g>
<!-- 1987207434064&#45;&gt;1987207433728 -->
<g id="edge6" class="edge">
<title>1987207434064&#45;&gt;1987207433728</title>
<path fill="none" stroke="black" d="M618.27,-119.94C626.86,-117.03 635.76,-114.01 644.04,-111.2"/>
<polygon fill="black" stroke="black" points="645.08,-114.54 653.42,-108.01 642.83,-107.91 645.08,-114.54"/>
</g>
<!-- 1987207432432 -->
<g id="node22" class="node">
<title>1987207432432</title>
<ellipse fill="white" stroke="black" cx="681" cy="-171" rx="27" ry="27"/>
</g>
<!-- 1987207434064&#45;&gt;1987207432432 -->
<g id="edge7" class="edge">
<title>1987207434064&#45;&gt;1987207432432</title>
<path fill="none" stroke="black" d="M618.27,-150.06C626.86,-152.97 635.76,-155.99 644.04,-158.8"/>
<polygon fill="black" stroke="black" points="642.83,-162.09 653.42,-161.99 645.08,-155.46 642.83,-162.09"/>
</g>
<!-- 1987207432768 -->
<g id="node4" class="node">
<title>1987207432768</title>
<polygon fill="white" stroke="black" points="835.75,-117 744,-117 744,-81 835.75,-81 835.75,-117"/>
<text text-anchor="middle" x="789.88" y="-93.97" font-family="Times New Roman,serif" font-size="12.00">Inventory Audit</text>
</g>
<!-- 1987207326432 -->
<g id="node25" class="node">
<title>1987207326432</title>
<ellipse fill="white" stroke="black" cx="898.75" cy="-27" rx="27" ry="27"/>
</g>
<!-- 1987207432768&#45;&gt;1987207326432 -->
<g id="edge13" class="edge">
<title>1987207432768&#45;&gt;1987207326432</title>
<path fill="none" stroke="black" d="M818.12,-80.65C832.97,-70.64 851.41,-58.22 866.8,-47.85"/>
<polygon fill="black" stroke="black" points="868.34,-51.03 874.68,-42.54 864.43,-45.23 868.34,-51.03"/>
</g>
<!-- 1987207329504 -->
<g id="node26" class="node">
<title>1987207329504</title>
<ellipse fill="white" stroke="black" cx="898.75" cy="-99" rx="27" ry="27"/>
</g>
<!-- 1987207432768&#45;&gt;1987207329504 -->
<g id="edge12" class="edge">
<title>1987207432768&#45;&gt;1987207329504</title>
<path fill="none" stroke="black" d="M836.2,-99C844.21,-99 852.47,-99 860.23,-99"/>
<polygon fill="black" stroke="black" points="860.03,-102.5 870.03,-99 860.03,-95.5 860.03,-102.5"/>
</g>
<!-- 1987207432048 -->
<g id="node5" class="node">
<title>1987207432048</title>
<polygon fill="white" stroke="black" points="835.38,-189 744.38,-189 744.38,-153 835.38,-153 835.38,-189"/>
<text text-anchor="middle" x="789.88" y="-165.97" font-family="Times New Roman,serif" font-size="12.00">Route Optimize</text>
</g>
<!-- 1987207325088 -->
<g id="node23" class="node">
<title>1987207325088</title>
<ellipse fill="white" stroke="black" cx="898.75" cy="-171" rx="27" ry="27"/>
</g>
<!-- 1987207432048&#45;&gt;1987207325088 -->
<g id="edge10" class="edge">
<title>1987207432048&#45;&gt;1987207325088</title>
<path fill="none" stroke="black" d="M835.58,-171C843.71,-171 852.11,-171 860.02,-171"/>
<polygon fill="black" stroke="black" points="860.01,-174.5 870.01,-171 860.01,-167.5 860.01,-174.5"/>
</g>
<!-- 1987207322832 -->
<g id="node24" class="node">
<title>1987207322832</title>
<ellipse fill="white" stroke="black" cx="898.75" cy="-243" rx="27" ry="27"/>
</g>
<!-- 1987207432048&#45;&gt;1987207322832 -->
<g id="edge11" class="edge">
<title>1987207432048&#45;&gt;1987207322832</title>
<path fill="none" stroke="black" d="M818.12,-189.35C832.97,-199.36 851.41,-211.78 866.8,-222.15"/>
<polygon fill="black" stroke="black" points="864.43,-224.77 874.68,-227.46 868.34,-218.97 864.43,-224.77"/>
</g>
<!-- 1987207430416 -->
<g id="node6" class="node">
<title>1987207430416</title>
<polygon fill="white" stroke="black" points="1065.5,-189 961.75,-189 961.75,-153 1065.5,-153 1065.5,-189"/>
<text text-anchor="middle" x="1013.62" y="-165.97" font-family="Times New Roman,serif" font-size="12.00">Blockchain Verify</text>
</g>
<!-- 1987207321008 -->
<g id="node27" class="node">
<title>1987207321008</title>
<ellipse fill="white" stroke="black" cx="1128.5" cy="-171" rx="27" ry="27"/>
</g>
<!-- 1987207430416&#45;&gt;1987207321008 -->
<g id="edge18" class="edge">
<title>1987207430416&#45;&gt;1987207321008</title>
<path fill="none" stroke="black" d="M1065.78,-171C1073.91,-171 1082.19,-171 1089.94,-171"/>
<polygon fill="black" stroke="black" points="1089.68,-174.5 1099.68,-171 1089.68,-167.5 1089.68,-174.5"/>
</g>
<!-- 1987207431520 -->
<g id="node7" class="node">
<title>1987207431520</title>
<polygon fill="white" stroke="black" points="1063.25,-117 964,-117 964,-81 1063.25,-81 1063.25,-117"/>
<text text-anchor="middle" x="1013.62" y="-93.97" font-family="Times New Roman,serif" font-size="12.00">Compliance Scan</text>
</g>
<!-- 1987207322592 -->
<g id="node28" class="node">
<title>1987207322592</title>
<ellipse fill="white" stroke="black" cx="1128.5" cy="-99" rx="27" ry="27"/>
</g>
<!-- 1987207431520&#45;&gt;1987207322592 -->
<g id="edge19" class="edge">
<title>1987207431520&#45;&gt;1987207322592</title>
<path fill="none" stroke="black" d="M1063.48,-99C1072.31,-99 1081.39,-99 1089.83,-99"/>
<polygon fill="black" stroke="black" points="1089.75,-102.5 1099.75,-99 1089.75,-95.5 1089.75,-102.5"/>
</g>
<!-- 1987207437760 -->
<g id="node8" class="node">
<title>1987207437760</title>
<polygon fill="white" stroke="black" points="1264.5,-153 1191.5,-153 1191.5,-117 1264.5,-117 1264.5,-153"/>
<text text-anchor="middle" x="1228" y="-129.97" font-family="Times New Roman,serif" font-size="12.00">Risk Assess</text>
</g>
<!-- 1987207435312 -->
<g id="node29" class="node">
<title>1987207435312</title>
<ellipse fill="white" stroke="black" cx="1327.5" cy="-99" rx="27" ry="27"/>
</g>
<!-- 1987207437760&#45;&gt;1987207435312 -->
<g id="edge22" class="edge">
<title>1987207437760&#45;&gt;1987207435312</title>
<path fill="none" stroke="black" d="M1264.75,-121.8C1273.29,-118.65 1282.41,-115.28 1290.94,-112.13"/>
<polygon fill="black" stroke="black" points="1292.13,-115.42 1300.3,-108.67 1289.71,-108.85 1292.13,-115.42"/>
</g>
<!-- 1987207438576 -->
<g id="node30" class="node">
<title>1987207438576</title>
<ellipse fill="white" stroke="black" cx="1327.5" cy="-171" rx="27" ry="27"/>
</g>
<!-- 1987207437760&#45;&gt;1987207438576 -->
<g id="edge23" class="edge">
<title>1987207437760&#45;&gt;1987207438576</title>
<path fill="none" stroke="black" d="M1264.75,-148.2C1273.29,-151.35 1282.41,-154.72 1290.94,-157.87"/>
<polygon fill="black" stroke="black" points="1289.71,-161.15 1300.3,-161.33 1292.13,-154.58 1289.71,-161.15"/>
</g>
<!-- 1987207316016 -->
<g id="node9" class="node">
<title>1987207316016</title>
<polygon fill="white" stroke="black" points="1485.25,-189 1395,-189 1395,-153 1485.25,-153 1485.25,-189"/>
<text text-anchor="middle" x="1440.12" y="-165.97" font-family="Times New Roman,serif" font-size="12.00">Forecast Adjust</text>
</g>
<!-- 1987206050592 -->
<g id="node31" class="node">
<title>1987206050592</title>
<ellipse fill="white" stroke="black" cx="1552.75" cy="-171" rx="27" ry="27"/>
</g>
<!-- 1987207316016&#45;&gt;1987206050592 -->
<g id="edge26" class="edge">
<title>1987207316016&#45;&gt;1987206050592</title>
<path fill="none" stroke="black" d="M1485.48,-171C1495.03,-171 1505.04,-171 1514.3,-171"/>
<polygon fill="black" stroke="black" points="1514.02,-174.5 1524.02,-171 1514.02,-167.5 1514.02,-174.5"/>
</g>
<!-- 1987207435504 -->
<g id="node10" class="node">
<title>1987207435504</title>
<polygon fill="white" stroke="black" points="1489.75,-117 1390.5,-117 1390.5,-81 1489.75,-81 1489.75,-117"/>
<text text-anchor="middle" x="1440.12" y="-93.97" font-family="Times New Roman,serif" font-size="12.00">Stakeholder Sync</text>
</g>
<!-- 1987207326144 -->
<g id="node32" class="node">
<title>1987207326144</title>
<ellipse fill="white" stroke="black" cx="1552.75" cy="-99" rx="27" ry="27"/>
</g>
<!-- 1987207435504&#45;&gt;1987207326144 -->
<g id="edge27" class="edge">
<title>1987207435504&#45;&gt;1987207326144</title>
<path fill="none" stroke="black" d="M1489.97,-99C1498.04,-99 1506.3,-99 1514.04,-99"/>
<polygon fill="black" stroke="black" points="1513.8,-102.5 1523.8,-99 1513.8,-95.5 1513.8,-102.5"/>
</g>
<!-- 1987207317840 -->
<g id="node11" class="node">
<title>1987207317840</title>
<polygon fill="white" stroke="black" points="1702.25,-153 1615.75,-153 1615.75,-117 1702.25,-117 1702.25,-153"/>
<text text-anchor="middle" x="1659" y="-129.97" font-family="Times New Roman,serif" font-size="12.00">Order Confirm</text>
</g>
<!-- 1987207321968 -->
<g id="node33" class="node">
<title>1987207321968</title>
<ellipse fill="white" stroke="black" cx="1765.25" cy="-135" rx="27" ry="27"/>
</g>
<!-- 1987207317840&#45;&gt;1987207321968 -->
<g id="edge30" class="edge">
<title>1987207317840&#45;&gt;1987207321968</title>
<path fill="none" stroke="black" d="M1702.7,-135C1710.62,-135 1718.84,-135 1726.59,-135"/>
<polygon fill="black" stroke="black" points="1726.39,-138.5 1736.39,-135 1726.39,-131.5 1726.39,-138.5"/>
</g>
<!-- 1987207331664 -->
<g id="node12" class="node">
<title>1987207331664</title>
<polygon fill="white" stroke="black" points="1920,-153 1828.25,-153 1828.25,-117 1920,-117 1920,-153"/>
<text text-anchor="middle" x="1874.12" y="-129.97" font-family="Times New Roman,serif" font-size="12.00">Shipment Track</text>
</g>
<!-- 1987207324032 -->
<g id="node34" class="node">
<title>1987207324032</title>
<ellipse fill="white" stroke="black" cx="1983" cy="-135" rx="27" ry="27"/>
</g>
<!-- 1987207331664&#45;&gt;1987207324032 -->
<g id="edge32" class="edge">
<title>1987207331664&#45;&gt;1987207324032</title>
<path fill="none" stroke="black" d="M1920.45,-135C1928.46,-135 1936.72,-135 1944.48,-135"/>
<polygon fill="black" stroke="black" points="1944.28,-138.5 1954.28,-135 1944.28,-131.5 1944.28,-138.5"/>
</g>
<!-- 1987207324368 -->
<g id="node13" class="node">
<title>1987207324368</title>
<polygon fill="white" stroke="black" points="2120.5,-130 2046,-130 2046,-94 2120.5,-94 2120.5,-130"/>
<text text-anchor="middle" x="2083.25" y="-106.97" font-family="Times New Roman,serif" font-size="12.00">IoT Monitor</text>
</g>
<!-- 1987207327920 -->
<g id="node35" class="node">
<title>1987207327920</title>
<ellipse fill="white" stroke="black" cx="2183.5" cy="-105" rx="27" ry="27"/>
</g>
<!-- 1987207324368&#45;&gt;1987207327920 -->
<g id="edge34" class="edge">
<title>1987207324368&#45;&gt;1987207327920</title>
<path fill="none" stroke="black" d="M2120.83,-109.39C2128.75,-108.83 2137.14,-108.23 2145.09,-107.67"/>
<polygon fill="black" stroke="black" points="2145.08,-111.18 2154.81,-106.97 2144.58,-104.19 2145.08,-111.18"/>
</g>
<!-- 1987207318224 -->
<g id="node14" class="node">
<title>1987207318224</title>
<polygon fill="white" stroke="black" points="2347.25,-58 2246.5,-58 2246.5,-22 2347.25,-22 2347.25,-58"/>
<text text-anchor="middle" x="2296.88" y="-34.98" font-family="Times New Roman,serif" font-size="12.00">Maintenance Plan</text>
</g>
<!-- 1987207317216 -->
<g id="node36" class="node">
<title>1987207317216</title>
<ellipse fill="white" stroke="black" cx="2414.25" cy="-29" rx="27" ry="27"/>
</g>
<!-- 1987207318224&#45;&gt;1987207317216 -->
<g id="edge37" class="edge">
<title>1987207318224&#45;&gt;1987207317216</title>
<path fill="none" stroke="black" d="M2347.47,-35.27C2356.9,-34.37 2366.62,-33.45 2375.6,-32.59"/>
<polygon fill="black" stroke="black" points="2375.77,-36.09 2385.39,-31.66 2375.1,-29.12 2375.77,-36.09"/>
</g>
<!-- 1987207324656 -->
<g id="node15" class="node">
<title>1987207324656</title>
<polygon fill="black" stroke="black" points="2323.88,-123 2269.88,-123 2269.88,-87 2323.88,-87 2323.88,-123"/>
</g>
<!-- 1987207439056 -->
<g id="node37" class="node">
<title>1987207439056</title>
<ellipse fill="white" stroke="black" cx="2414.25" cy="-105" rx="27" ry="27"/>
<ellipse fill="none" stroke="black" cx="2414.25" cy="-105" rx="31" ry="31"/>
<text text-anchor="start" x="2397.75" y="-89.6" font-family="Times New Roman,serif" font-size="32.00">■</text>
</g>
<!-- 1987207324656&#45;&gt;1987207439056 -->
<g id="edge38" class="edge">
<title>1987207324656&#45;&gt;1987207439056</title>
<path fill="none" stroke="black" d="M2324.34,-105C2338.37,-105 2355.92,-105 2371.71,-105"/>
<polygon fill="black" stroke="black" points="2371.31,-108.5 2381.31,-105 2371.31,-101.5 2371.31,-108.5"/>
</g>
<!-- 1987207329120 -->
<g id="node16" class="node">
<title>1987207329120</title>
<polygon fill="white" stroke="black" points="2584.25,-67 2481.25,-67 2481.25,-31 2584.25,-31 2584.25,-67"/>
<text text-anchor="middle" x="2532.75" y="-43.98" font-family="Times New Roman,serif" font-size="12.00">Resource Allocate</text>
</g>
<!-- 1987207324992 -->
<g id="node38" class="node">
<title>1987207324992</title>
<ellipse fill="white" stroke="black" cx="2647.25" cy="-89" rx="27" ry="27"/>
</g>
<!-- 1987207329120&#45;&gt;1987207324992 -->
<g id="edge40" class="edge">
<title>1987207329120&#45;&gt;1987207324992</title>
<path fill="none" stroke="black" d="M2584.73,-67.13C2593.45,-70.23 2602.33,-73.38 2610.54,-76.3"/>
<polygon fill="black" stroke="black" points="2609.21,-79.54 2619.8,-79.6 2611.55,-72.95 2609.21,-79.54"/>
</g>
<!-- 1987207320576 -->
<g id="node17" class="node">
<title>1987207320576</title>
<polygon fill="white" stroke="black" points="2800.5,-134 2710.25,-134 2710.25,-98 2800.5,-98 2800.5,-134"/>
<text text-anchor="middle" x="2755.38" y="-110.97" font-family="Times New Roman,serif" font-size="12.00">Feedback Loop</text>
</g>
<!-- 1987207320576&#45;&gt;1987207324032 -->
<g id="edge42" class="edge">
<title>1987207320576&#45;&gt;1987207324032</title>
<path fill="none" stroke="black" d="M2709.78,-131.58C2665.65,-145.6 2595.88,-164 2533.75,-164 2182.5,-164 2182.5,-164 2182.5,-164 2125.56,-164 2060.4,-152.17 2020.73,-143.63"/>
<polygon fill="black" stroke="black" points="2021.52,-140.22 2011,-141.48 2020.01,-147.05 2021.52,-140.22"/>
</g>
<!-- 1987207438912 -->
<g id="node18" class="node">
<title>1987207438912</title>
<ellipse fill="white" stroke="black" cx="27" cy="-135" rx="27" ry="27"/>
<text text-anchor="start" x="9.75" y="-117.7" font-family="Times New Roman,serif" font-size="34.00">●</text>
</g>
<!-- 1987207438912&#45;&gt;1987207436128 -->
<g id="edge1" class="edge">
<title>1987207438912&#45;&gt;1987207436128</title>
<path fill="none" stroke="black" d="M54.39,-135C61.8,-135 70.13,-135 78.51,-135"/>
<polygon fill="black" stroke="black" points="78.36,-138.5 88.36,-135 78.36,-131.5 78.36,-138.5"/>
</g>
<!-- 1987207435696&#45;&gt;1987207435072 -->
<g id="edge3" class="edge">
<title>1987207435696&#45;&gt;1987207435072</title>
<path fill="none" stroke="black" d="M265.39,-135C272.65,-135 280.83,-135 289.17,-135"/>
<polygon fill="black" stroke="black" points="289.07,-138.5 299.07,-135 289.07,-131.5 289.07,-138.5"/>
</g>
<!-- 1987207434736&#45;&gt;1987207434064 -->
<g id="edge5" class="edge">
<title>1987207434736&#45;&gt;1987207434064</title>
<path fill="none" stroke="black" d="M491.98,-135C499.33,-135 507.6,-135 515.97,-135"/>
<polygon fill="black" stroke="black" points="515.84,-138.5 525.84,-135 515.84,-131.5 515.84,-138.5"/>
</g>
<!-- 1987207433728&#45;&gt;1987207432768 -->
<g id="edge9" class="edge">
<title>1987207433728&#45;&gt;1987207432768</title>
<path fill="none" stroke="black" d="M708.42,-99C715.73,-99 723.95,-99 732.28,-99"/>
<polygon fill="black" stroke="black" points="732.11,-102.5 742.11,-99 732.11,-95.5 732.11,-102.5"/>
</g>
<!-- 1987207432432&#45;&gt;1987207432048 -->
<g id="edge8" class="edge">
<title>1987207432432&#45;&gt;1987207432048</title>
<path fill="none" stroke="black" d="M708.42,-171C715.81,-171 724.14,-171 732.57,-171"/>
<polygon fill="black" stroke="black" points="732.53,-174.5 742.53,-171 732.53,-167.5 732.53,-174.5"/>
</g>
<!-- 1987207325088&#45;&gt;1987207431520 -->
<g id="edge14" class="edge">
<title>1987207325088&#45;&gt;1987207431520</title>
<path fill="none" stroke="black" d="M922.05,-156.78C937.01,-147.23 957.1,-134.42 974.56,-123.28"/>
<polygon fill="black" stroke="black" points="976.11,-126.44 982.66,-118.11 972.35,-120.54 976.11,-126.44"/>
</g>
<!-- 1987207322832&#45;&gt;1987207430416 -->
<g id="edge16" class="edge">
<title>1987207322832&#45;&gt;1987207430416</title>
<path fill="none" stroke="black" d="M922.05,-228.78C937.01,-219.23 957.1,-206.42 974.56,-195.28"/>
<polygon fill="black" stroke="black" points="976.11,-198.44 982.66,-190.11 972.35,-192.54 976.11,-198.44"/>
</g>
<!-- 1987207326432&#45;&gt;1987207431520 -->
<g id="edge17" class="edge">
<title>1987207326432&#45;&gt;1987207431520</title>
<path fill="none" stroke="black" d="M922.05,-41.22C937.01,-50.77 957.1,-63.58 974.56,-74.72"/>
<polygon fill="black" stroke="black" points="972.35,-77.46 982.66,-79.89 976.11,-71.56 972.35,-77.46"/>
</g>
<!-- 1987207329504&#45;&gt;1987207430416 -->
<g id="edge15" class="edge">
<title>1987207329504&#45;&gt;1987207430416</title>
<path fill="none" stroke="black" d="M922.05,-113.22C937.01,-122.77 957.1,-135.58 974.56,-146.72"/>
<polygon fill="black" stroke="black" points="972.35,-149.46 982.66,-151.89 976.11,-143.56 972.35,-149.46"/>
</g>
<!-- 1987207321008&#45;&gt;1987207437760 -->
<g id="edge20" class="edge">
<title>1987207321008&#45;&gt;1987207437760</title>
<path fill="none" stroke="black" d="M1154.36,-161.82C1162.38,-158.86 1171.56,-155.47 1180.63,-152.12"/>
<polygon fill="black" stroke="black" points="1181.56,-155.51 1189.73,-148.76 1179.14,-148.94 1181.56,-155.51"/>
</g>
<!-- 1987207322592&#45;&gt;1987207437760 -->
<g id="edge21" class="edge">
<title>1987207322592&#45;&gt;1987207437760</title>
<path fill="none" stroke="black" d="M1154.36,-108.18C1162.38,-111.14 1171.56,-114.53 1180.63,-117.88"/>
<polygon fill="black" stroke="black" points="1179.14,-121.06 1189.73,-121.24 1181.56,-114.49 1179.14,-121.06"/>
</g>
<!-- 1987207435312&#45;&gt;1987207435504 -->
<g id="edge25" class="edge">
<title>1987207435312&#45;&gt;1987207435504</title>
<path fill="none" stroke="black" d="M1355,-99C1362.29,-99 1370.52,-99 1378.89,-99"/>
<polygon fill="black" stroke="black" points="1378.82,-102.5 1388.82,-99 1378.82,-95.5 1378.82,-102.5"/>
</g>
<!-- 1987207438576&#45;&gt;1987207316016 -->
<g id="edge24" class="edge">
<title>1987207438576&#45;&gt;1987207316016</title>
<path fill="none" stroke="black" d="M1355,-171C1363.54,-171 1373.36,-171 1383.21,-171"/>
<polygon fill="black" stroke="black" points="1383.19,-174.5 1393.19,-171 1383.19,-167.5 1383.19,-174.5"/>
</g>
<!-- 1987206050592&#45;&gt;1987207317840 -->
<g id="edge29" class="edge">
<title>1987206050592&#45;&gt;1987207317840</title>
<path fill="none" stroke="black" d="M1578.72,-162.38C1586.6,-159.66 1595.63,-156.54 1604.7,-153.4"/>
<polygon fill="black" stroke="black" points="1605.57,-156.81 1613.88,-150.23 1603.29,-150.19 1605.57,-156.81"/>
</g>
<!-- 1987207326144&#45;&gt;1987207317840 -->
<g id="edge28" class="edge">
<title>1987207326144&#45;&gt;1987207317840</title>
<path fill="none" stroke="black" d="M1578.72,-107.62C1586.6,-110.34 1595.63,-113.46 1604.7,-116.6"/>
<polygon fill="black" stroke="black" points="1603.29,-119.81 1613.88,-119.77 1605.57,-113.19 1603.29,-119.81"/>
</g>
<!-- 1987207321968&#45;&gt;1987207331664 -->
<g id="edge31" class="edge">
<title>1987207321968&#45;&gt;1987207331664</title>
<path fill="none" stroke="black" d="M1792.67,-135C1799.98,-135 1808.2,-135 1816.53,-135"/>
<polygon fill="black" stroke="black" points="1816.36,-138.5 1826.36,-135 1816.36,-131.5 1816.36,-138.5"/>
</g>
<!-- 1987207324032&#45;&gt;1987207324368 -->
<g id="edge33" class="edge">
<title>1987207324032&#45;&gt;1987207324368</title>
<path fill="none" stroke="black" d="M2009.81,-128.96C2017.4,-127.18 2025.96,-125.18 2034.46,-123.19"/>
<polygon fill="black" stroke="black" points="2035.11,-126.63 2044.05,-120.94 2033.52,-119.81 2035.11,-126.63"/>
</g>
<!-- 1987207327920&#45;&gt;1987207318224 -->
<g id="edge36" class="edge">
<title>1987207327920&#45;&gt;1987207318224</title>
<path fill="none" stroke="black" d="M2207.31,-91.69C2220.9,-83.75 2238.58,-73.44 2254.55,-64.12"/>
<polygon fill="black" stroke="black" points="2256.05,-67.29 2262.93,-59.23 2252.52,-61.25 2256.05,-67.29"/>
</g>
<!-- 1987207327920&#45;&gt;1987207324656 -->
<g id="edge35" class="edge">
<title>1987207327920&#45;&gt;1987207324656</title>
<path fill="none" stroke="black" d="M2210.89,-105C2225.04,-105 2242.72,-105 2258.28,-105"/>
<polygon fill="black" stroke="black" points="2258.16,-108.5 2268.16,-105 2258.16,-101.5 2258.16,-108.5"/>
</g>
<!-- 1987207317216&#45;&gt;1987207329120 -->
<g id="edge39" class="edge">
<title>1987207317216&#45;&gt;1987207329120</title>
<path fill="none" stroke="black" d="M2441.11,-33.44C2449.77,-34.93 2459.84,-36.65 2470.04,-38.41"/>
<polygon fill="black" stroke="black" points="2469.18,-41.81 2479.63,-40.05 2470.36,-34.91 2469.18,-41.81"/>
</g>
<!-- 1987207324992&#45;&gt;1987207320576 -->
<g id="edge41" class="edge">
<title>1987207324992&#45;&gt;1987207320576</title>
<path fill="none" stroke="black" d="M2673.94,-95.54C2681.53,-97.47 2690.15,-99.66 2698.86,-101.88"/>
<polygon fill="black" stroke="black" points="2697.85,-105.23 2708.4,-104.3 2699.57,-98.45 2697.85,-105.23"/>
</g>
</g>
</svg>
