<?xml version="1.0" encoding="UTF-8" standalone="no"?>
<!DOCTYPE svg PUBLIC "-//W3C//DTD SVG 1.1//EN"
 "http://www.w3.org/Graphics/SVG/1.1/DTD/svg11.dtd">
<!-- Generated by graphviz version 11.0.0 (20240428.1522)
 -->
<!-- Title: imdf_net_1754051176.025344 Pages: 1 -->
<svg width="3610pt" height="111pt"
 viewBox="0.00 0.00 3609.50 111.00" xmlns="http://www.w3.org/2000/svg" xmlns:xlink="http://www.w3.org/1999/xlink">
<g id="graph0" class="graph" transform="scale(1 1) rotate(0) translate(4 107)">
<title>imdf_net_1754051176.025344</title>
<polygon fill="white" stroke="none" points="-4,4 -4,-107 3605.5,-107 3605.5,4 -4,4"/>
<!-- 1990975908960 -->
<g id="node1" class="node">
<title>1990975908960</title>
<polygon fill="white" stroke="black" points="160.75,-77 90,-77 90,-41 160.75,-41 160.75,-77"/>
<text text-anchor="middle" x="125.38" y="-53.98" font-family="Times New Roman,serif" font-size="12.00">Site Survey</text>
</g>
<!-- 1990975909200 -->
<g id="node20" class="node">
<title>1990975909200</title>
<ellipse fill="white" stroke="black" cx="223.75" cy="-59" rx="27" ry="27"/>
</g>
<!-- 1990975908960&#45;&gt;1990975909200 -->
<g id="edge2" class="edge">
<title>1990975908960&#45;&gt;1990975909200</title>
<path fill="none" stroke="black" d="M161.17,-59C168.9,-59 177.14,-59 184.98,-59"/>
<polygon fill="black" stroke="black" points="184.97,-62.5 194.97,-59 184.97,-55.5 184.97,-62.5"/>
</g>
<!-- 1990975909776 -->
<g id="node2" class="node">
<title>1990975909776</title>
<polygon fill="white" stroke="black" points="374,-77 286.75,-77 286.75,-41 374,-41 374,-77"/>
<text text-anchor="middle" x="330.38" y="-53.98" font-family="Times New Roman,serif" font-size="12.00">System Design</text>
</g>
<!-- 1990975910016 -->
<g id="node21" class="node">
<title>1990975910016</title>
<ellipse fill="white" stroke="black" cx="437" cy="-59" rx="27" ry="27"/>
</g>
<!-- 1990975909776&#45;&gt;1990975910016 -->
<g id="edge4" class="edge">
<title>1990975909776&#45;&gt;1990975910016</title>
<path fill="none" stroke="black" d="M374.23,-59C382.18,-59 390.42,-59 398.2,-59"/>
<polygon fill="black" stroke="black" points="398.04,-62.5 408.04,-59 398.04,-55.5 398.04,-62.5"/>
</g>
<!-- 1990975911408 -->
<g id="node3" class="node">
<title>1990975911408</title>
<polygon fill="white" stroke="black" points="574.5,-77 500,-77 500,-41 574.5,-41 574.5,-77"/>
<text text-anchor="middle" x="537.25" y="-53.98" font-family="Times New Roman,serif" font-size="12.00">Env Control</text>
</g>
<!-- 1990975911648 -->
<g id="node22" class="node">
<title>1990975911648</title>
<ellipse fill="white" stroke="black" cx="637.5" cy="-59" rx="27" ry="27"/>
</g>
<!-- 1990975911408&#45;&gt;1990975911648 -->
<g id="edge6" class="edge">
<title>1990975911408&#45;&gt;1990975911648</title>
<path fill="none" stroke="black" d="M574.83,-59C582.59,-59 590.79,-59 598.59,-59"/>
<polygon fill="black" stroke="black" points="598.5,-62.5 608.5,-59 598.5,-55.5 598.5,-62.5"/>
</g>
<!-- 1990975912224 -->
<g id="node4" class="node">
<title>1990975912224</title>
<polygon fill="white" stroke="black" points="778,-77 700.5,-77 700.5,-41 778,-41 778,-77"/>
<text text-anchor="middle" x="739.25" y="-53.98" font-family="Times New Roman,serif" font-size="12.00">Nutrient Mix</text>
</g>
<!-- 1990975912464 -->
<g id="node23" class="node">
<title>1990975912464</title>
<ellipse fill="white" stroke="black" cx="841" cy="-59" rx="27" ry="27"/>
</g>
<!-- 1990975912224&#45;&gt;1990975912464 -->
<g id="edge8" class="edge">
<title>1990975912224&#45;&gt;1990975912464</title>
<path fill="none" stroke="black" d="M778.25,-59C786.07,-59 794.31,-59 802.13,-59"/>
<polygon fill="black" stroke="black" points="802.05,-62.5 812.05,-59 802.05,-55.5 802.05,-62.5"/>
</g>
<!-- 1990975913040 -->
<g id="node5" class="node">
<title>1990975913040</title>
<polygon fill="white" stroke="black" points="975.5,-77 904,-77 904,-41 975.5,-41 975.5,-77"/>
<text text-anchor="middle" x="939.75" y="-53.98" font-family="Times New Roman,serif" font-size="12.00">Crop Select</text>
</g>
<!-- 1990975913280 -->
<g id="node24" class="node">
<title>1990975913280</title>
<ellipse fill="white" stroke="black" cx="1038.5" cy="-59" rx="27" ry="27"/>
</g>
<!-- 1990975913040&#45;&gt;1990975913280 -->
<g id="edge10" class="edge">
<title>1990975913040&#45;&gt;1990975913280</title>
<path fill="none" stroke="black" d="M975.95,-59C983.7,-59 991.94,-59 999.79,-59"/>
<polygon fill="black" stroke="black" points="999.76,-62.5 1009.76,-59 999.76,-55.5 999.76,-62.5"/>
</g>
<!-- 1990975913616 -->
<g id="node6" class="node">
<title>1990975913616</title>
<polygon fill="white" stroke="black" points="1179.75,-77 1101.5,-77 1101.5,-41 1179.75,-41 1179.75,-77"/>
<text text-anchor="middle" x="1140.62" y="-53.98" font-family="Times New Roman,serif" font-size="12.00">Sensor Setup</text>
</g>
<!-- 1990975913856 -->
<g id="node25" class="node">
<title>1990975913856</title>
<ellipse fill="white" stroke="black" cx="1242.75" cy="-59" rx="27" ry="27"/>
</g>
<!-- 1990975913616&#45;&gt;1990975913856 -->
<g id="edge12" class="edge">
<title>1990975913616&#45;&gt;1990975913856</title>
<path fill="none" stroke="black" d="M1180.05,-59C1187.89,-59 1196.13,-59 1203.94,-59"/>
<polygon fill="black" stroke="black" points="1203.86,-62.5 1213.86,-59 1203.86,-55.5 1203.86,-62.5"/>
</g>
<!-- 1990975980032 -->
<g id="node7" class="node">
<title>1990975980032</title>
<polygon fill="white" stroke="black" points="1392.25,-77 1305.75,-77 1305.75,-41 1392.25,-41 1392.25,-77"/>
<text text-anchor="middle" x="1349" y="-53.98" font-family="Times New Roman,serif" font-size="12.00">Irrigation Auto</text>
</g>
<!-- 1990975980272 -->
<g id="node26" class="node">
<title>1990975980272</title>
<ellipse fill="white" stroke="black" cx="1455.25" cy="-59" rx="27" ry="27"/>
</g>
<!-- 1990975980032&#45;&gt;1990975980272 -->
<g id="edge14" class="edge">
<title>1990975980032&#45;&gt;1990975980272</title>
<path fill="none" stroke="black" d="M1392.7,-59C1400.62,-59 1408.84,-59 1416.59,-59"/>
<polygon fill="black" stroke="black" points="1416.39,-62.5 1426.39,-59 1416.39,-55.5 1416.39,-62.5"/>
</g>
<!-- 1990975980848 -->
<g id="node8" class="node">
<title>1990975980848</title>
<polygon fill="white" stroke="black" points="1609.25,-77 1518.25,-77 1518.25,-41 1609.25,-41 1609.25,-77"/>
<text text-anchor="middle" x="1563.75" y="-53.98" font-family="Times New Roman,serif" font-size="12.00">Lighting Adjust</text>
</g>
<!-- 1990975981088 -->
<g id="node27" class="node">
<title>1990975981088</title>
<ellipse fill="white" stroke="black" cx="1672.25" cy="-59" rx="27" ry="27"/>
</g>
<!-- 1990975980848&#45;&gt;1990975981088 -->
<g id="edge16" class="edge">
<title>1990975980848&#45;&gt;1990975981088</title>
<path fill="none" stroke="black" d="M1609.61,-59C1617.61,-59 1625.87,-59 1633.65,-59"/>
<polygon fill="black" stroke="black" points="1633.46,-62.5 1643.46,-59 1633.46,-55.5 1633.46,-62.5"/>
</g>
<!-- 1990975981664 -->
<g id="node9" class="node">
<title>1990975981664</title>
<polygon fill="white" stroke="black" points="1809.75,-77 1735.25,-77 1735.25,-41 1809.75,-41 1809.75,-77"/>
<text text-anchor="middle" x="1772.5" y="-53.98" font-family="Times New Roman,serif" font-size="12.00">Pest Control</text>
</g>
<!-- 1990975981904 -->
<g id="node28" class="node">
<title>1990975981904</title>
<ellipse fill="white" stroke="black" cx="1872.75" cy="-59" rx="27" ry="27"/>
</g>
<!-- 1990975981664&#45;&gt;1990975981904 -->
<g id="edge18" class="edge">
<title>1990975981664&#45;&gt;1990975981904</title>
<path fill="none" stroke="black" d="M1810.08,-59C1817.84,-59 1826.04,-59 1833.84,-59"/>
<polygon fill="black" stroke="black" points="1833.75,-62.5 1843.75,-59 1833.75,-55.5 1833.75,-62.5"/>
</g>
<!-- 1990975982480 -->
<g id="node10" class="node">
<title>1990975982480</title>
<polygon fill="white" stroke="black" points="2020.75,-77 1935.75,-77 1935.75,-41 2020.75,-41 2020.75,-77"/>
<text text-anchor="middle" x="1978.25" y="-53.98" font-family="Times New Roman,serif" font-size="12.00">Yield Forecast</text>
</g>
<!-- 1990975982720 -->
<g id="node29" class="node">
<title>1990975982720</title>
<ellipse fill="white" stroke="black" cx="2083.75" cy="-59" rx="27" ry="27"/>
</g>
<!-- 1990975982480&#45;&gt;1990975982720 -->
<g id="edge20" class="edge">
<title>1990975982480&#45;&gt;1990975982720</title>
<path fill="none" stroke="black" d="M2021.05,-59C2028.95,-59 2037.17,-59 2044.93,-59"/>
<polygon fill="black" stroke="black" points="2044.76,-62.5 2054.76,-59 2044.76,-55.5 2044.76,-62.5"/>
</g>
<!-- 1990975983296 -->
<g id="node11" class="node">
<title>1990975983296</title>
<polygon fill="white" stroke="black" points="2228.75,-77 2146.75,-77 2146.75,-41 2228.75,-41 2228.75,-77"/>
<text text-anchor="middle" x="2187.75" y="-53.98" font-family="Times New Roman,serif" font-size="12.00">Staff Training</text>
</g>
<!-- 1990975983536 -->
<g id="node30" class="node">
<title>1990975983536</title>
<ellipse fill="white" stroke="black" cx="2291.75" cy="-59" rx="27" ry="27"/>
</g>
<!-- 1990975983296&#45;&gt;1990975983536 -->
<g id="edge22" class="edge">
<title>1990975983296&#45;&gt;1990975983536</title>
<path fill="none" stroke="black" d="M2229.06,-59C2236.98,-59 2245.25,-59 2253.07,-59"/>
<polygon fill="black" stroke="black" points="2252.98,-62.5 2262.98,-59 2252.98,-55.5 2252.98,-62.5"/>
</g>
<!-- 1990975984112 -->
<g id="node12" class="node">
<title>1990975984112</title>
<polygon fill="white" stroke="black" points="2454,-77 2354.75,-77 2354.75,-41 2454,-41 2454,-77"/>
<text text-anchor="middle" x="2404.38" y="-53.98" font-family="Times New Roman,serif" font-size="12.00">Community Meet</text>
</g>
<!-- 1990975984352 -->
<g id="node31" class="node">
<title>1990975984352</title>
<ellipse fill="white" stroke="black" cx="2517" cy="-59" rx="27" ry="27"/>
</g>
<!-- 1990975984112&#45;&gt;1990975984352 -->
<g id="edge24" class="edge">
<title>1990975984112&#45;&gt;1990975984352</title>
<path fill="none" stroke="black" d="M2454.22,-59C2462.29,-59 2470.55,-59 2478.29,-59"/>
<polygon fill="black" stroke="black" points="2478.05,-62.5 2488.05,-59 2478.05,-55.5 2478.05,-62.5"/>
</g>
<!-- 1990975984928 -->
<g id="node13" class="node">
<title>1990975984928</title>
<polygon fill="white" stroke="black" points="2686.75,-77 2580,-77 2580,-41 2686.75,-41 2686.75,-77"/>
<text text-anchor="middle" x="2633.38" y="-53.98" font-family="Times New Roman,serif" font-size="12.00">Compliance Check</text>
</g>
<!-- 1990975985168 -->
<g id="node32" class="node">
<title>1990975985168</title>
<ellipse fill="white" stroke="black" cx="2749.75" cy="-59" rx="27" ry="27"/>
</g>
<!-- 1990975984928&#45;&gt;1990975985168 -->
<g id="edge26" class="edge">
<title>1990975984928&#45;&gt;1990975985168</title>
<path fill="none" stroke="black" d="M2687.21,-59C2695.2,-59 2703.3,-59 2710.89,-59"/>
<polygon fill="black" stroke="black" points="2710.79,-62.5 2720.79,-59 2710.79,-55.5 2710.79,-62.5"/>
</g>
<!-- 1990975985744 -->
<g id="node14" class="node">
<title>1990975985744</title>
<polygon fill="white" stroke="black" points="2893.25,-77 2812.75,-77 2812.75,-41 2893.25,-41 2893.25,-77"/>
<text text-anchor="middle" x="2853" y="-53.98" font-family="Times New Roman,serif" font-size="12.00">Energy Audit</text>
</g>
<!-- 1990975985984 -->
<g id="node33" class="node">
<title>1990975985984</title>
<ellipse fill="white" stroke="black" cx="2956.25" cy="-59" rx="27" ry="27"/>
</g>
<!-- 1990975985744&#45;&gt;1990975985984 -->
<g id="edge28" class="edge">
<title>1990975985744&#45;&gt;1990975985984</title>
<path fill="none" stroke="black" d="M2893.73,-59C2901.6,-59 2909.84,-59 2917.64,-59"/>
<polygon fill="black" stroke="black" points="2917.52,-62.5 2927.52,-59 2917.52,-55.5 2917.52,-62.5"/>
</g>
<!-- 1990975986560 -->
<g id="node15" class="node">
<title>1990975986560</title>
<polygon fill="white" stroke="black" points="3105.75,-77 3019.25,-77 3019.25,-41 3105.75,-41 3105.75,-77"/>
<text text-anchor="middle" x="3062.5" y="-53.98" font-family="Times New Roman,serif" font-size="12.00">Waste Recycle</text>
</g>
<!-- 1990975987616 -->
<g id="node34" class="node">
<title>1990975987616</title>
<ellipse fill="white" stroke="black" cx="3168.75" cy="-59" rx="27" ry="27"/>
</g>
<!-- 1990975986560&#45;&gt;1990975987616 -->
<g id="edge30" class="edge">
<title>1990975986560&#45;&gt;1990975987616</title>
<path fill="none" stroke="black" d="M3106.2,-59C3114.12,-59 3122.34,-59 3130.09,-59"/>
<polygon fill="black" stroke="black" points="3129.89,-62.5 3139.89,-59 3129.89,-55.5 3129.89,-62.5"/>
</g>
<!-- 1990975988384 -->
<g id="node16" class="node">
<title>1990975988384</title>
<polygon fill="white" stroke="black" points="3323.5,-50 3231.75,-50 3231.75,-14 3323.5,-14 3323.5,-50"/>
<text text-anchor="middle" x="3277.62" y="-26.98" font-family="Times New Roman,serif" font-size="12.00">Process Review</text>
</g>
<!-- 1990975988144 -->
<g id="node35" class="node">
<title>1990975988144</title>
<ellipse fill="white" stroke="black" cx="3386.5" cy="-31" rx="27" ry="27"/>
</g>
<!-- 1990975988384&#45;&gt;1990975988144 -->
<g id="edge32" class="edge">
<title>1990975988384&#45;&gt;1990975988144</title>
<path fill="none" stroke="black" d="M3323.95,-31.58C3331.96,-31.5 3340.22,-31.42 3347.98,-31.35"/>
<polygon fill="black" stroke="black" points="3347.81,-34.85 3357.78,-31.26 3347.75,-27.85 3347.81,-34.85"/>
</g>
<!-- 1990975989008 -->
<g id="node17" class="node">
<title>1990975989008</title>
<polygon fill="black" stroke="black" points="3503.5,-49 3449.5,-49 3449.5,-13 3503.5,-13 3503.5,-49"/>
</g>
<!-- 1990975907376 -->
<g id="node36" class="node">
<title>1990975907376</title>
<ellipse fill="white" stroke="black" cx="3570.5" cy="-31" rx="27" ry="27"/>
<ellipse fill="none" stroke="black" cx="3570.5" cy="-31" rx="31" ry="31"/>
<text text-anchor="start" x="3554" y="-15.6" font-family="Times New Roman,serif" font-size="32.00">■</text>
</g>
<!-- 1990975989008&#45;&gt;1990975907376 -->
<g id="edge36" class="edge">
<title>1990975989008&#45;&gt;1990975907376</title>
<path fill="none" stroke="black" d="M3503.62,-31C3511.13,-31 3519.51,-31 3527.72,-31"/>
<polygon fill="black" stroke="black" points="3527.58,-34.5 3537.58,-31 3527.58,-27.5 3527.58,-34.5"/>
</g>
<!-- 1990975988720 -->
<g id="node18" class="node">
<title>1990975988720</title>
<polygon fill="black" stroke="black" points="3503.5,-103 3449.5,-103 3449.5,-67 3503.5,-67 3503.5,-103"/>
</g>
<!-- 1990975988720&#45;&gt;1990975987616 -->
<g id="edge35" class="edge">
<title>1990975988720&#45;&gt;1990975987616</title>
<path fill="none" stroke="black" d="M3449.12,-82.76C3394.79,-78.14 3270.23,-67.54 3207.42,-62.2"/>
<polygon fill="black" stroke="black" points="3207.85,-58.73 3197.59,-61.37 3207.26,-65.7 3207.85,-58.73"/>
</g>
<!-- 1990971352384 -->
<g id="node19" class="node">
<title>1990971352384</title>
<ellipse fill="white" stroke="black" cx="27" cy="-59" rx="27" ry="27"/>
<text text-anchor="start" x="9.75" y="-41.7" font-family="Times New Roman,serif" font-size="34.00">●</text>
</g>
<!-- 1990971352384&#45;&gt;1990975908960 -->
<g id="edge1" class="edge">
<title>1990971352384&#45;&gt;1990975908960</title>
<path fill="none" stroke="black" d="M54.33,-59C61.76,-59 70.06,-59 78.28,-59"/>
<polygon fill="black" stroke="black" points="78.24,-62.5 88.24,-59 78.24,-55.5 78.24,-62.5"/>
</g>
<!-- 1990975909200&#45;&gt;1990975909776 -->
<g id="edge3" class="edge">
<title>1990975909200&#45;&gt;1990975909776</title>
<path fill="none" stroke="black" d="M251.15,-59C258.48,-59 266.71,-59 275.01,-59"/>
<polygon fill="black" stroke="black" points="274.78,-62.5 284.78,-59 274.78,-55.5 274.78,-62.5"/>
</g>
<!-- 1990975910016&#45;&gt;1990975911408 -->
<g id="edge5" class="edge">
<title>1990975910016&#45;&gt;1990975911408</title>
<path fill="none" stroke="black" d="M464.33,-59C471.67,-59 479.88,-59 488.06,-59"/>
<polygon fill="black" stroke="black" points="487.99,-62.5 497.99,-59 487.99,-55.5 487.99,-62.5"/>
</g>
<!-- 1990975911648&#45;&gt;1990975912224 -->
<g id="edge7" class="edge">
<title>1990975911648&#45;&gt;1990975912224</title>
<path fill="none" stroke="black" d="M664.97,-59C672.27,-59 680.43,-59 688.58,-59"/>
<polygon fill="black" stroke="black" points="688.5,-62.5 698.5,-59 688.5,-55.5 688.5,-62.5"/>
</g>
<!-- 1990975912464&#45;&gt;1990975913040 -->
<g id="edge9" class="edge">
<title>1990975912464&#45;&gt;1990975913040</title>
<path fill="none" stroke="black" d="M868.44,-59C875.81,-59 884.06,-59 892.23,-59"/>
<polygon fill="black" stroke="black" points="892.12,-62.5 902.12,-59 892.12,-55.5 892.12,-62.5"/>
</g>
<!-- 1990975913280&#45;&gt;1990975913616 -->
<g id="edge11" class="edge">
<title>1990975913280&#45;&gt;1990975913616</title>
<path fill="none" stroke="black" d="M1065.81,-59C1073.13,-59 1081.34,-59 1089.55,-59"/>
<polygon fill="black" stroke="black" points="1089.55,-62.5 1099.55,-59 1089.55,-55.5 1089.55,-62.5"/>
</g>
<!-- 1990975913856&#45;&gt;1990975980032 -->
<g id="edge13" class="edge">
<title>1990975913856&#45;&gt;1990975980032</title>
<path fill="none" stroke="black" d="M1270.06,-59C1277.44,-59 1285.74,-59 1294.11,-59"/>
<polygon fill="black" stroke="black" points="1293.96,-62.5 1303.96,-59 1293.96,-55.5 1293.96,-62.5"/>
</g>
<!-- 1990975980272&#45;&gt;1990975980848 -->
<g id="edge15" class="edge">
<title>1990975980272&#45;&gt;1990975980848</title>
<path fill="none" stroke="black" d="M1482.58,-59C1489.94,-59 1498.25,-59 1506.64,-59"/>
<polygon fill="black" stroke="black" points="1506.56,-62.5 1516.56,-59 1506.56,-55.5 1506.56,-62.5"/>
</g>
<!-- 1990975981088&#45;&gt;1990975981664 -->
<g id="edge17" class="edge">
<title>1990975981088&#45;&gt;1990975981664</title>
<path fill="none" stroke="black" d="M1699.58,-59C1706.92,-59 1715.13,-59 1723.31,-59"/>
<polygon fill="black" stroke="black" points="1723.24,-62.5 1733.24,-59 1723.24,-55.5 1723.24,-62.5"/>
</g>
<!-- 1990975981904&#45;&gt;1990975982480 -->
<g id="edge19" class="edge">
<title>1990975981904&#45;&gt;1990975982480</title>
<path fill="none" stroke="black" d="M1900.14,-59C1907.55,-59 1915.88,-59 1924.26,-59"/>
<polygon fill="black" stroke="black" points="1924.11,-62.5 1934.11,-59 1924.11,-55.5 1924.11,-62.5"/>
</g>
<!-- 1990975982720&#45;&gt;1990975983296 -->
<g id="edge21" class="edge">
<title>1990975982720&#45;&gt;1990975983296</title>
<path fill="none" stroke="black" d="M2111.02,-59C2118.4,-59 2126.7,-59 2135.03,-59"/>
<polygon fill="black" stroke="black" points="2134.8,-62.5 2144.8,-59 2134.8,-55.5 2134.8,-62.5"/>
</g>
<!-- 1990975983536&#45;&gt;1990975984112 -->
<g id="edge23" class="edge">
<title>1990975983536&#45;&gt;1990975984112</title>
<path fill="none" stroke="black" d="M2319.25,-59C2326.54,-59 2334.77,-59 2343.14,-59"/>
<polygon fill="black" stroke="black" points="2343.07,-62.5 2353.07,-59 2343.07,-55.5 2343.07,-62.5"/>
</g>
<!-- 1990975984352&#45;&gt;1990975984928 -->
<g id="edge25" class="edge">
<title>1990975984352&#45;&gt;1990975984928</title>
<path fill="none" stroke="black" d="M2544.24,-59C2551.58,-59 2559.89,-59 2568.4,-59"/>
<polygon fill="black" stroke="black" points="2568.13,-62.5 2578.13,-59 2568.13,-55.5 2568.13,-62.5"/>
</g>
<!-- 1990975985168&#45;&gt;1990975985744 -->
<g id="edge27" class="edge">
<title>1990975985168&#45;&gt;1990975985744</title>
<path fill="none" stroke="black" d="M2777.09,-59C2784.5,-59 2792.82,-59 2801.15,-59"/>
<polygon fill="black" stroke="black" points="2800.92,-62.5 2810.92,-59 2800.92,-55.5 2800.92,-62.5"/>
</g>
<!-- 1990975985984&#45;&gt;1990975986560 -->
<g id="edge29" class="edge">
<title>1990975985984&#45;&gt;1990975986560</title>
<path fill="none" stroke="black" d="M2983.56,-59C2990.94,-59 2999.24,-59 3007.61,-59"/>
<polygon fill="black" stroke="black" points="3007.46,-62.5 3017.46,-59 3007.46,-55.5 3007.46,-62.5"/>
</g>
<!-- 1990975987616&#45;&gt;1990975988384 -->
<g id="edge31" class="edge">
<title>1990975987616&#45;&gt;1990975988384</title>
<path fill="none" stroke="black" d="M3195.35,-52.53C3202.99,-50.6 3211.69,-48.41 3220.48,-46.18"/>
<polygon fill="black" stroke="black" points="3221.29,-49.59 3230.13,-43.75 3219.58,-42.8 3221.29,-49.59"/>
</g>
<!-- 1990975988144&#45;&gt;1990975989008 -->
<g id="edge33" class="edge">
<title>1990975988144&#45;&gt;1990975989008</title>
<path fill="none" stroke="black" d="M3413.9,-31C3421.39,-31 3429.68,-31 3437.7,-31"/>
<polygon fill="black" stroke="black" points="3437.6,-34.5 3447.6,-31 3437.6,-27.5 3437.6,-34.5"/>
</g>
<!-- 1990975988144&#45;&gt;1990975988720 -->
<g id="edge34" class="edge">
<title>1990975988144&#45;&gt;1990975988720</title>
<path fill="none" stroke="black" d="M3410.16,-44.91C3419.1,-50.39 3429.59,-56.83 3439.51,-62.92"/>
<polygon fill="black" stroke="black" points="3437.53,-65.8 3447.88,-68.05 3441.19,-59.84 3437.53,-65.8"/>
</g>
</g>
</svg>
