<?xml version="1.0" encoding="UTF-8" standalone="no"?>
<!DOCTYPE svg PUBLIC "-//W3C//DTD SVG 1.1//EN"
 "http://www.w3.org/Graphics/SVG/1.1/DTD/svg11.dtd">
<!-- Generated by graphviz version 11.0.0 (20240428.1522)
 -->
<!-- Title: imdf_net_1754051181.8379402 Pages: 1 -->
<svg width="2588pt" height="314pt"
 viewBox="0.00 0.00 2587.75 314.00" xmlns="http://www.w3.org/2000/svg" xmlns:xlink="http://www.w3.org/1999/xlink">
<g id="graph0" class="graph" transform="scale(1 1) rotate(0) translate(4 310)">
<title>imdf_net_1754051181.8379402</title>
<polygon fill="white" stroke="none" points="-4,4 -4,-310 2583.75,-310 2583.75,4 -4,4"/>
<!-- 1990971856496 -->
<g id="node1" class="node">
<title>1990971856496</title>
<polygon fill="white" stroke="black" points="169,-256 90,-256 90,-220 169,-220 169,-256"/>
<text text-anchor="middle" x="129.5" y="-232.97" font-family="Times New Roman,serif" font-size="12.00">Intake Check</text>
</g>
<!-- 1990971860000 -->
<g id="node22" class="node">
<title>1990971860000</title>
<ellipse fill="white" stroke="black" cx="232" cy="-238" rx="27" ry="27"/>
</g>
<!-- 1990971856496&#45;&gt;1990971860000 -->
<g id="edge2" class="edge">
<title>1990971856496&#45;&gt;1990971860000</title>
<path fill="none" stroke="black" d="M169.36,-238C177.21,-238 185.45,-238 193.26,-238"/>
<polygon fill="black" stroke="black" points="193.16,-241.5 203.16,-238 193.16,-234.5 193.16,-241.5"/>
</g>
<!-- 1990971768272 -->
<g id="node2" class="node">
<title>1990971768272</title>
<polygon fill="black" stroke="black" points="349,-229 295,-229 295,-193 349,-193 349,-229"/>
</g>
<!-- 1990971754784 -->
<g id="node23" class="node">
<title>1990971754784</title>
<ellipse fill="white" stroke="black" cx="412" cy="-247" rx="27" ry="27"/>
</g>
<!-- 1990971768272&#45;&gt;1990971754784 -->
<g id="edge4" class="edge">
<title>1990971768272&#45;&gt;1990971754784</title>
<path fill="none" stroke="black" d="M349.4,-221.8C357.75,-225.22 367.12,-229.05 375.97,-232.67"/>
<polygon fill="black" stroke="black" points="374.44,-235.83 385.02,-236.37 377.09,-229.35 374.44,-235.83"/>
</g>
<!-- 1990971752768 -->
<g id="node24" class="node">
<title>1990971752768</title>
<ellipse fill="white" stroke="black" cx="412" cy="-175" rx="27" ry="27"/>
</g>
<!-- 1990971768272&#45;&gt;1990971752768 -->
<g id="edge5" class="edge">
<title>1990971768272&#45;&gt;1990971752768</title>
<path fill="none" stroke="black" d="M349.4,-200.2C357.75,-196.78 367.12,-192.95 375.97,-189.33"/>
<polygon fill="black" stroke="black" points="377.09,-192.65 385.02,-185.63 374.44,-186.17 377.09,-192.65"/>
</g>
<!-- 1990971759824 -->
<g id="node25" class="node">
<title>1990971759824</title>
<ellipse fill="white" stroke="black" cx="412" cy="-103" rx="27" ry="27"/>
</g>
<!-- 1990971768272&#45;&gt;1990971759824 -->
<g id="edge6" class="edge">
<title>1990971768272&#45;&gt;1990971759824</title>
<path fill="none" stroke="black" d="M337.93,-192.68C351.39,-176.16 371.42,-151.57 387.11,-132.32"/>
<polygon fill="black" stroke="black" points="389.63,-134.76 393.24,-124.8 384.21,-130.34 389.63,-134.76"/>
</g>
<!-- 1990971763088 -->
<g id="node3" class="node">
<title>1990971763088</title>
<polygon fill="white" stroke="black" points="570.5,-193 477.25,-193 477.25,-157 570.5,-157 570.5,-193"/>
<text text-anchor="middle" x="523.88" y="-169.97" font-family="Times New Roman,serif" font-size="12.00">Stylistic Review</text>
</g>
<!-- 1990971754304 -->
<g id="node26" class="node">
<title>1990971754304</title>
<ellipse fill="white" stroke="black" cx="635.75" cy="-175" rx="27" ry="27"/>
</g>
<!-- 1990971763088&#45;&gt;1990971754304 -->
<g id="edge10" class="edge">
<title>1990971763088&#45;&gt;1990971754304</title>
<path fill="none" stroke="black" d="M570.84,-175C579.55,-175 588.57,-175 597,-175"/>
<polygon fill="black" stroke="black" points="596.9,-178.5 606.9,-175 596.9,-171.5 596.9,-178.5"/>
</g>
<!-- 1990971754688 -->
<g id="node4" class="node">
<title>1990971754688</title>
<polygon fill="white" stroke="black" points="563,-265 484.75,-265 484.75,-229 563,-229 563,-265"/>
<text text-anchor="middle" x="523.88" y="-241.97" font-family="Times New Roman,serif" font-size="12.00">Material Test</text>
</g>
<!-- 1990971765872 -->
<g id="node27" class="node">
<title>1990971765872</title>
<ellipse fill="white" stroke="black" cx="635.75" cy="-247" rx="27" ry="27"/>
</g>
<!-- 1990971754688&#45;&gt;1990971765872 -->
<g id="edge12" class="edge">
<title>1990971754688&#45;&gt;1990971765872</title>
<path fill="none" stroke="black" d="M563.3,-247C574.21,-247 586.08,-247 596.95,-247"/>
<polygon fill="black" stroke="black" points="596.74,-250.5 606.74,-247 596.74,-243.5 596.74,-250.5"/>
</g>
<!-- 1990971758960 -->
<g id="node5" class="node">
<title>1990971758960</title>
<polygon fill="white" stroke="black" points="572.75,-121 475,-121 475,-85 572.75,-85 572.75,-121"/>
<text text-anchor="middle" x="523.88" y="-97.97" font-family="Times New Roman,serif" font-size="12.00">Provenance Scan</text>
</g>
<!-- 1990971756272 -->
<g id="node28" class="node">
<title>1990971756272</title>
<ellipse fill="white" stroke="black" cx="635.75" cy="-103" rx="27" ry="27"/>
</g>
<!-- 1990971758960&#45;&gt;1990971756272 -->
<g id="edge11" class="edge">
<title>1990971758960&#45;&gt;1990971756272</title>
<path fill="none" stroke="black" d="M573.07,-103C581.11,-103 589.35,-103 597.07,-103"/>
<polygon fill="black" stroke="black" points="596.81,-106.5 606.81,-103 596.81,-99.5 596.81,-106.5"/>
</g>
<!-- 1990971766256 -->
<g id="node6" class="node">
<title>1990971766256</title>
<polygon fill="black" stroke="black" points="752.75,-189 698.75,-189 698.75,-153 752.75,-153 752.75,-189"/>
</g>
<!-- 1990971630336 -->
<g id="node29" class="node">
<title>1990971630336</title>
<ellipse fill="white" stroke="black" cx="815.75" cy="-243" rx="27" ry="27"/>
</g>
<!-- 1990971766256&#45;&gt;1990971630336 -->
<g id="edge16" class="edge">
<title>1990971766256&#45;&gt;1990971630336</title>
<path fill="none" stroke="black" d="M748.96,-189.17C760.07,-198.26 773.67,-209.39 785.62,-219.16"/>
<polygon fill="black" stroke="black" points="783.23,-221.74 793.19,-225.36 787.67,-216.32 783.23,-221.74"/>
</g>
<!-- 1990971627168 -->
<g id="node30" class="node">
<title>1990971627168</title>
<ellipse fill="white" stroke="black" cx="815.75" cy="-171" rx="27" ry="27"/>
</g>
<!-- 1990971766256&#45;&gt;1990971627168 -->
<g id="edge17" class="edge">
<title>1990971766256&#45;&gt;1990971627168</title>
<path fill="none" stroke="black" d="M753.15,-171C760.64,-171 768.93,-171 776.95,-171"/>
<polygon fill="black" stroke="black" points="776.85,-174.5 786.85,-171 776.85,-167.5 776.85,-174.5"/>
</g>
<!-- 1990971515360 -->
<g id="node31" class="node">
<title>1990971515360</title>
<ellipse fill="white" stroke="black" cx="815.75" cy="-99" rx="27" ry="27"/>
</g>
<!-- 1990971766256&#45;&gt;1990971515360 -->
<g id="edge19" class="edge">
<title>1990971766256&#45;&gt;1990971515360</title>
<path fill="none" stroke="black" d="M748.96,-152.83C760.07,-143.74 773.67,-132.61 785.62,-122.84"/>
<polygon fill="black" stroke="black" points="787.67,-125.68 793.19,-116.64 783.23,-120.26 787.67,-125.68"/>
</g>
<!-- 1990971519968 -->
<g id="node32" class="node">
<title>1990971519968</title>
<ellipse fill="white" stroke="black" cx="815.75" cy="-27" rx="27" ry="27"/>
</g>
<!-- 1990971766256&#45;&gt;1990971519968 -->
<g id="edge18" class="edge">
<title>1990971766256&#45;&gt;1990971519968</title>
<path fill="none" stroke="black" d="M736.5,-152.69C748.26,-130.93 768.93,-93.7 788.75,-63 789.91,-61.2 791.12,-59.37 792.37,-57.54"/>
<polygon fill="black" stroke="black" points="794.99,-59.89 797.84,-49.69 789.25,-55.89 794.99,-59.89"/>
</g>
<!-- 1990971519104 -->
<g id="node7" class="node">
<title>1990971519104</title>
<polygon fill="white" stroke="black" points="977.62,-45 882.12,-45 882.12,-9 977.62,-9 977.62,-45"/>
<text text-anchor="middle" x="929.88" y="-21.98" font-family="Times New Roman,serif" font-size="12.00">Expert Interview</text>
</g>
<!-- 1990971520352 -->
<g id="node36" class="node">
<title>1990971520352</title>
<ellipse fill="white" stroke="black" cx="1044" cy="-27" rx="27" ry="27"/>
</g>
<!-- 1990971519104&#45;&gt;1990971520352 -->
<g id="edge25" class="edge">
<title>1990971519104&#45;&gt;1990971520352</title>
<path fill="none" stroke="black" d="M978.1,-27C987.15,-27 996.52,-27 1005.23,-27"/>
<polygon fill="black" stroke="black" points="1005.09,-30.5 1015.09,-27 1005.09,-23.5 1005.09,-30.5"/>
</g>
<!-- 1990971627456 -->
<g id="node8" class="node">
<title>1990971627456</title>
<polygon fill="white" stroke="black" points="978,-189 881.75,-189 881.75,-153 978,-153 978,-189"/>
<text text-anchor="middle" x="929.88" y="-165.97" font-family="Times New Roman,serif" font-size="12.00">Spectro Analysis</text>
</g>
<!-- 1990971628944 -->
<g id="node34" class="node">
<title>1990971628944</title>
<ellipse fill="white" stroke="black" cx="1044" cy="-171" rx="27" ry="27"/>
</g>
<!-- 1990971627456&#45;&gt;1990971628944 -->
<g id="edge27" class="edge">
<title>1990971627456&#45;&gt;1990971628944</title>
<path fill="none" stroke="black" d="M978.43,-171C987.45,-171 996.78,-171 1005.45,-171"/>
<polygon fill="black" stroke="black" points="1005.25,-174.5 1015.25,-171 1005.25,-167.5 1005.25,-174.5"/>
</g>
<!-- 1990971514832 -->
<g id="node9" class="node">
<title>1990971514832</title>
<polygon fill="white" stroke="black" points="980.25,-117 879.5,-117 879.5,-81 980.25,-81 980.25,-117"/>
<text text-anchor="middle" x="929.88" y="-93.97" font-family="Times New Roman,serif" font-size="12.00">Archive Research</text>
</g>
<!-- 1990971514592 -->
<g id="node35" class="node">
<title>1990971514592</title>
<ellipse fill="white" stroke="black" cx="1044" cy="-99" rx="27" ry="27"/>
</g>
<!-- 1990971514832&#45;&gt;1990971514592 -->
<g id="edge24" class="edge">
<title>1990971514832&#45;&gt;1990971514592</title>
<path fill="none" stroke="black" d="M980.71,-99C988.94,-99 997.36,-99 1005.23,-99"/>
<polygon fill="black" stroke="black" points="1005.16,-102.5 1015.16,-99 1005.16,-95.5 1005.16,-102.5"/>
</g>
<!-- 1990971629664 -->
<g id="node10" class="node">
<title>1990971629664</title>
<polygon fill="white" stroke="black" points="981,-261 878.75,-261 878.75,-225 981,-225 981,-261"/>
<text text-anchor="middle" x="929.88" y="-237.97" font-family="Times New Roman,serif" font-size="12.00">Radiocarbon Date</text>
</g>
<!-- 1990971622416 -->
<g id="node33" class="node">
<title>1990971622416</title>
<ellipse fill="white" stroke="black" cx="1044" cy="-243" rx="27" ry="27"/>
</g>
<!-- 1990971629664&#45;&gt;1990971622416 -->
<g id="edge26" class="edge">
<title>1990971629664&#45;&gt;1990971622416</title>
<path fill="none" stroke="black" d="M981.36,-243C989.47,-243 997.73,-243 1005.46,-243"/>
<polygon fill="black" stroke="black" points="1005.19,-246.5 1015.19,-243 1005.19,-239.5 1005.19,-246.5"/>
</g>
<!-- 1990971522992 -->
<g id="node11" class="node">
<title>1990971522992</title>
<polygon fill="white" stroke="black" points="1206.25,-189 1107,-189 1107,-153 1206.25,-153 1206.25,-189"/>
<text text-anchor="middle" x="1156.62" y="-165.97" font-family="Times New Roman,serif" font-size="12.00">Discrepancy Flag</text>
</g>
<!-- 1990971768320 -->
<g id="node37" class="node">
<title>1990971768320</title>
<ellipse fill="white" stroke="black" cx="1269.25" cy="-173" rx="27" ry="27"/>
</g>
<!-- 1990971522992&#45;&gt;1990971768320 -->
<g id="edge32" class="edge">
<title>1990971522992&#45;&gt;1990971768320</title>
<path fill="none" stroke="black" d="M1206.47,-171.88C1214.54,-172.03 1222.8,-172.18 1230.54,-172.32"/>
<polygon fill="black" stroke="black" points="1230.23,-175.81 1240.3,-172.49 1230.36,-168.81 1230.23,-175.81"/>
</g>
<!-- 1990971512192 -->
<g id="node12" class="node">
<title>1990971512192</title>
<polygon fill="white" stroke="black" points="1438.25,-256 1332.25,-256 1332.25,-220 1438.25,-220 1438.25,-256"/>
<text text-anchor="middle" x="1385.25" y="-232.97" font-family="Times New Roman,serif" font-size="12.00">Secondary Review</text>
</g>
<!-- 1990971519776 -->
<g id="node38" class="node">
<title>1990971519776</title>
<ellipse fill="white" stroke="black" cx="1501.25" cy="-249" rx="27" ry="27"/>
</g>
<!-- 1990971512192&#45;&gt;1990971519776 -->
<g id="edge35" class="edge">
<title>1990971512192&#45;&gt;1990971519776</title>
<path fill="none" stroke="black" d="M1438.58,-243.05C1446.74,-243.84 1455.03,-244.64 1462.78,-245.38"/>
<polygon fill="black" stroke="black" points="1462.23,-248.85 1472.52,-246.32 1462.9,-241.88 1462.23,-248.85"/>
</g>
<!-- 1990971509072 -->
<g id="node13" class="node">
<title>1990971509072</title>
<polygon fill="white" stroke="black" points="1429.62,-191 1340.88,-191 1340.88,-155 1429.62,-155 1429.62,-191"/>
<text text-anchor="middle" x="1385.25" y="-167.97" font-family="Times New Roman,serif" font-size="12.00">Documentation</text>
</g>
<!-- 1990971507968 -->
<g id="node39" class="node">
<title>1990971507968</title>
<ellipse fill="white" stroke="black" cx="1501.25" cy="-173" rx="27" ry="27"/>
</g>
<!-- 1990971509072&#45;&gt;1990971507968 -->
<g id="edge36" class="edge">
<title>1990971509072&#45;&gt;1990971507968</title>
<path fill="none" stroke="black" d="M1430,-173C1440.77,-173 1452.2,-173 1462.65,-173"/>
<polygon fill="black" stroke="black" points="1462.42,-176.5 1472.42,-173 1462.42,-169.5 1462.42,-176.5"/>
</g>
<!-- 1990971510320 -->
<g id="node14" class="node">
<title>1990971510320</title>
<polygon fill="white" stroke="black" points="1645.88,-294 1572.88,-294 1572.88,-258 1645.88,-258 1645.88,-294"/>
<text text-anchor="middle" x="1609.38" y="-270.98" font-family="Times New Roman,serif" font-size="12.00">Risk Assess</text>
</g>
<!-- 1990971510320&#45;&gt;1990971860000 -->
<g id="edge39" class="edge">
<title>1990971510320&#45;&gt;1990971860000</title>
<path fill="none" stroke="black" d="M1572.41,-283.88C1528.65,-292.77 1452.4,-306 1386.25,-306 411,-306 411,-306 411,-306 356.95,-306 299.4,-278.31 264.82,-258.26"/>
<polygon fill="black" stroke="black" points="266.96,-255.47 256.58,-253.36 263.38,-261.48 266.96,-255.47"/>
</g>
<!-- 1990971507008 -->
<g id="node15" class="node">
<title>1990971507008</title>
<polygon fill="white" stroke="black" points="1654.5,-191 1564.25,-191 1564.25,-155 1654.5,-155 1654.5,-191"/>
<text text-anchor="middle" x="1609.38" y="-167.97" font-family="Times New Roman,serif" font-size="12.00">Catalog Update</text>
</g>
<!-- 1990971518096 -->
<g id="node40" class="node">
<title>1990971518096</title>
<ellipse fill="white" stroke="black" cx="1717.5" cy="-173" rx="27" ry="27"/>
</g>
<!-- 1990971507008&#45;&gt;1990971518096 -->
<g id="edge40" class="edge">
<title>1990971507008&#45;&gt;1990971518096</title>
<path fill="none" stroke="black" d="M1654.77,-173C1662.76,-173 1671.03,-173 1678.81,-173"/>
<polygon fill="black" stroke="black" points="1678.64,-176.5 1688.64,-173 1678.64,-169.5 1678.64,-176.5"/>
</g>
<!-- 1990971517136 -->
<g id="node16" class="node">
<title>1990971517136</title>
<polygon fill="white" stroke="black" points="1857.25,-191 1780.5,-191 1780.5,-155 1857.25,-155 1857.25,-191"/>
<text text-anchor="middle" x="1818.88" y="-167.97" font-family="Times New Roman,serif" font-size="12.00">Storage Prep</text>
</g>
<!-- 1990971522224 -->
<g id="node41" class="node">
<title>1990971522224</title>
<ellipse fill="white" stroke="black" cx="1920.25" cy="-173" rx="27" ry="27"/>
</g>
<!-- 1990971517136&#45;&gt;1990971522224 -->
<g id="edge42" class="edge">
<title>1990971517136&#45;&gt;1990971522224</title>
<path fill="none" stroke="black" d="M1857.73,-173C1865.52,-173 1873.73,-173 1881.52,-173"/>
<polygon fill="black" stroke="black" points="1881.4,-176.5 1891.4,-173 1881.4,-169.5 1881.4,-176.5"/>
</g>
<!-- 1990971351760 -->
<g id="node17" class="node">
<title>1990971351760</title>
<polygon fill="white" stroke="black" points="2091.5,-191 1983.25,-191 1983.25,-155 2091.5,-155 2091.5,-191"/>
<text text-anchor="middle" x="2037.38" y="-167.97" font-family="Times New Roman,serif" font-size="12.00">Compliance Report</text>
</g>
<!-- 1990971359056 -->
<g id="node42" class="node">
<title>1990971359056</title>
<ellipse fill="white" stroke="black" cx="2154.5" cy="-173" rx="27" ry="27"/>
</g>
<!-- 1990971351760&#45;&gt;1990971359056 -->
<g id="edge44" class="edge">
<title>1990971351760&#45;&gt;1990971359056</title>
<path fill="none" stroke="black" d="M2091.89,-173C2099.91,-173 2108.03,-173 2115.63,-173"/>
<polygon fill="black" stroke="black" points="2115.54,-176.5 2125.54,-173 2115.54,-169.5 2115.54,-176.5"/>
</g>
<!-- 1990971358096 -->
<g id="node18" class="node">
<title>1990971358096</title>
<polygon fill="white" stroke="black" points="2297.25,-218 2222,-218 2222,-182 2297.25,-182 2297.25,-218"/>
<text text-anchor="middle" x="2259.62" y="-194.97" font-family="Times New Roman,serif" font-size="12.00">Exhibit Prep</text>
</g>
<!-- 1990971358480 -->
<g id="node43" class="node">
<title>1990971358480</title>
<ellipse fill="white" stroke="black" cx="2364.75" cy="-173" rx="27" ry="27"/>
</g>
<!-- 1990971358096&#45;&gt;1990971358480 -->
<g id="edge47" class="edge">
<title>1990971358096&#45;&gt;1990971358480</title>
<path fill="none" stroke="black" d="M2297.56,-190.33C2307.28,-187.78 2317.76,-185.04 2327.45,-182.5"/>
<polygon fill="black" stroke="black" points="2328.11,-185.95 2336.9,-180.03 2326.34,-179.18 2328.11,-185.95"/>
</g>
<!-- 1990971356896 -->
<g id="node19" class="node">
<title>1990971356896</title>
<polygon fill="white" stroke="black" points="2301.75,-164 2217.5,-164 2217.5,-128 2301.75,-128 2301.75,-164"/>
<text text-anchor="middle" x="2259.62" y="-140.97" font-family="Times New Roman,serif" font-size="12.00">Sale Approval</text>
</g>
<!-- 1990971356896&#45;&gt;1990971358480 -->
<g id="edge48" class="edge">
<title>1990971356896&#45;&gt;1990971358480</title>
<path fill="none" stroke="black" d="M2301.98,-156.83C2310.28,-159 2318.95,-161.27 2327.08,-163.4"/>
<polygon fill="black" stroke="black" points="2326.1,-166.76 2336.66,-165.91 2327.87,-159.99 2326.1,-166.76"/>
</g>
<!-- 1990971351616 -->
<g id="node20" class="node">
<title>1990971351616</title>
<polygon fill="black" stroke="black" points="2481.75,-191 2427.75,-191 2427.75,-155 2481.75,-155 2481.75,-191"/>
</g>
<!-- 1990971219296 -->
<g id="node44" class="node">
<title>1990971219296</title>
<ellipse fill="white" stroke="black" cx="2548.75" cy="-173" rx="27" ry="27"/>
<ellipse fill="none" stroke="black" cx="2548.75" cy="-173" rx="31" ry="31"/>
<text text-anchor="start" x="2532.25" y="-157.6" font-family="Times New Roman,serif" font-size="32.00">■</text>
</g>
<!-- 1990971351616&#45;&gt;1990971219296 -->
<g id="edge50" class="edge">
<title>1990971351616&#45;&gt;1990971219296</title>
<path fill="none" stroke="black" d="M2481.87,-173C2489.38,-173 2497.76,-173 2505.97,-173"/>
<polygon fill="black" stroke="black" points="2505.83,-176.5 2515.83,-173 2505.83,-169.5 2505.83,-176.5"/>
</g>
<!-- 1990971220544 -->
<g id="node21" class="node">
<title>1990971220544</title>
<ellipse fill="white" stroke="black" cx="27" cy="-238" rx="27" ry="27"/>
<text text-anchor="start" x="9.75" y="-220.7" font-family="Times New Roman,serif" font-size="34.00">●</text>
</g>
<!-- 1990971220544&#45;&gt;1990971856496 -->
<g id="edge1" class="edge">
<title>1990971220544&#45;&gt;1990971856496</title>
<path fill="none" stroke="black" d="M54.41,-238C61.84,-238 70.19,-238 78.52,-238"/>
<polygon fill="black" stroke="black" points="78.28,-241.5 88.28,-238 78.28,-234.5 78.28,-241.5"/>
</g>
<!-- 1990971860000&#45;&gt;1990971768272 -->
<g id="edge3" class="edge">
<title>1990971860000&#45;&gt;1990971768272</title>
<path fill="none" stroke="black" d="M257.98,-230.34C266.06,-227.86 275.19,-225.06 283.95,-222.37"/>
<polygon fill="black" stroke="black" points="284.75,-225.78 293.28,-219.5 282.69,-219.09 284.75,-225.78"/>
</g>
<!-- 1990971754784&#45;&gt;1990971754688 -->
<g id="edge8" class="edge">
<title>1990971754784&#45;&gt;1990971754688</title>
<path fill="none" stroke="black" d="M439.32,-247C449.41,-247 461.3,-247 472.88,-247"/>
<polygon fill="black" stroke="black" points="472.78,-250.5 482.78,-247 472.78,-243.5 472.78,-250.5"/>
</g>
<!-- 1990971752768&#45;&gt;1990971763088 -->
<g id="edge9" class="edge">
<title>1990971752768&#45;&gt;1990971763088</title>
<path fill="none" stroke="black" d="M439.32,-175C447.35,-175 456.52,-175 465.77,-175"/>
<polygon fill="black" stroke="black" points="465.51,-178.5 475.51,-175 465.51,-171.5 465.51,-178.5"/>
</g>
<!-- 1990971759824&#45;&gt;1990971758960 -->
<g id="edge7" class="edge">
<title>1990971759824&#45;&gt;1990971758960</title>
<path fill="none" stroke="black" d="M439.32,-103C446.65,-103 454.93,-103 463.35,-103"/>
<polygon fill="black" stroke="black" points="463.33,-106.5 473.33,-103 463.33,-99.5 463.33,-106.5"/>
</g>
<!-- 1990971754304&#45;&gt;1990971766256 -->
<g id="edge14" class="edge">
<title>1990971754304&#45;&gt;1990971766256</title>
<path fill="none" stroke="black" d="M663.15,-173.8C670.64,-173.46 678.93,-173.08 686.95,-172.72"/>
<polygon fill="black" stroke="black" points="687.02,-176.22 696.85,-172.27 686.71,-169.23 687.02,-176.22"/>
</g>
<!-- 1990971765872&#45;&gt;1990971766256 -->
<g id="edge15" class="edge">
<title>1990971765872&#45;&gt;1990971766256</title>
<path fill="none" stroke="black" d="M656.72,-229.75C668.09,-219.93 682.55,-207.44 695.21,-196.51"/>
<polygon fill="black" stroke="black" points="697.21,-199.41 702.49,-190.23 692.63,-194.11 697.21,-199.41"/>
</g>
<!-- 1990971756272&#45;&gt;1990971766256 -->
<g id="edge13" class="edge">
<title>1990971756272&#45;&gt;1990971766256</title>
<path fill="none" stroke="black" d="M657.6,-119.12C667.87,-127.05 680.49,-136.8 692,-145.7"/>
<polygon fill="black" stroke="black" points="689.69,-148.33 699.74,-151.67 693.97,-142.79 689.69,-148.33"/>
</g>
<!-- 1990971630336&#45;&gt;1990971629664 -->
<g id="edge22" class="edge">
<title>1990971630336&#45;&gt;1990971629664</title>
<path fill="none" stroke="black" d="M843.04,-243C850.42,-243 858.77,-243 867.29,-243"/>
<polygon fill="black" stroke="black" points="867.02,-246.5 877.02,-243 867.02,-239.5 867.02,-246.5"/>
</g>
<!-- 1990971627168&#45;&gt;1990971627456 -->
<g id="edge21" class="edge">
<title>1990971627168&#45;&gt;1990971627456</title>
<path fill="none" stroke="black" d="M843.04,-171C851.32,-171 860.82,-171 870.42,-171"/>
<polygon fill="black" stroke="black" points="870.14,-174.5 880.14,-171 870.14,-167.5 870.14,-174.5"/>
</g>
<!-- 1990971515360&#45;&gt;1990971514832 -->
<g id="edge23" class="edge">
<title>1990971515360&#45;&gt;1990971514832</title>
<path fill="none" stroke="black" d="M843.04,-99C850.6,-99 859.18,-99 867.92,-99"/>
<polygon fill="black" stroke="black" points="867.91,-102.5 877.91,-99 867.91,-95.5 867.91,-102.5"/>
</g>
<!-- 1990971519968&#45;&gt;1990971519104 -->
<g id="edge20" class="edge">
<title>1990971519968&#45;&gt;1990971519104</title>
<path fill="none" stroke="black" d="M843.04,-27C851.32,-27 860.82,-27 870.42,-27"/>
<polygon fill="black" stroke="black" points="870.14,-30.5 880.14,-27 870.14,-23.5 870.14,-30.5"/>
</g>
<!-- 1990971622416&#45;&gt;1990971522992 -->
<g id="edge31" class="edge">
<title>1990971622416&#45;&gt;1990971522992</title>
<path fill="none" stroke="black" d="M1067.12,-228.6C1081.56,-219.2 1100.8,-206.69 1117.64,-195.72"/>
<polygon fill="black" stroke="black" points="1119.49,-198.69 1125.96,-190.31 1115.67,-192.83 1119.49,-198.69"/>
</g>
<!-- 1990971628944&#45;&gt;1990971522992 -->
<g id="edge28" class="edge">
<title>1990971628944&#45;&gt;1990971522992</title>
<path fill="none" stroke="black" d="M1071.5,-171C1078.79,-171 1087.02,-171 1095.39,-171"/>
<polygon fill="black" stroke="black" points="1095.32,-174.5 1105.32,-171 1095.32,-167.5 1095.32,-174.5"/>
</g>
<!-- 1990971514592&#45;&gt;1990971522992 -->
<g id="edge30" class="edge">
<title>1990971514592&#45;&gt;1990971522992</title>
<path fill="none" stroke="black" d="M1067.12,-113.4C1081.56,-122.8 1100.8,-135.31 1117.64,-146.28"/>
<polygon fill="black" stroke="black" points="1115.67,-149.17 1125.96,-151.69 1119.49,-143.31 1115.67,-149.17"/>
</g>
<!-- 1990971520352&#45;&gt;1990971522992 -->
<g id="edge29" class="edge">
<title>1990971520352&#45;&gt;1990971522992</title>
<path fill="none" stroke="black" d="M1061.32,-48.25C1080.87,-73.69 1113.64,-116.34 1134.94,-144.07"/>
<polygon fill="black" stroke="black" points="1131.9,-145.86 1140.77,-151.66 1137.45,-141.6 1131.9,-145.86"/>
</g>
<!-- 1990971768320&#45;&gt;1990971512192 -->
<g id="edge34" class="edge">
<title>1990971768320&#45;&gt;1990971512192</title>
<path fill="none" stroke="black" d="M1293.32,-186.15C1307.33,-194.14 1325.64,-204.58 1342.15,-213.99"/>
<polygon fill="black" stroke="black" points="1340.41,-217.03 1350.83,-218.94 1343.88,-210.95 1340.41,-217.03"/>
</g>
<!-- 1990971768320&#45;&gt;1990971509072 -->
<g id="edge33" class="edge">
<title>1990971768320&#45;&gt;1990971509072</title>
<path fill="none" stroke="black" d="M1296.69,-173C1306.46,-173 1317.93,-173 1329.28,-173"/>
<polygon fill="black" stroke="black" points="1329.03,-176.5 1339.03,-173 1329.03,-169.5 1329.03,-176.5"/>
</g>
<!-- 1990971519776&#45;&gt;1990971510320 -->
<g id="edge38" class="edge">
<title>1990971519776&#45;&gt;1990971510320</title>
<path fill="none" stroke="black" d="M1527.94,-255.54C1538.07,-258.11 1550.04,-261.16 1561.61,-264.1"/>
<polygon fill="black" stroke="black" points="1560.48,-267.43 1571.03,-266.5 1562.2,-260.64 1560.48,-267.43"/>
</g>
<!-- 1990971507968&#45;&gt;1990971507008 -->
<g id="edge37" class="edge">
<title>1990971507968&#45;&gt;1990971507008</title>
<path fill="none" stroke="black" d="M1528.48,-173C1535.83,-173 1544.1,-173 1552.47,-173"/>
<polygon fill="black" stroke="black" points="1552.34,-176.5 1562.34,-173 1552.34,-169.5 1552.34,-176.5"/>
</g>
<!-- 1990971518096&#45;&gt;1990971517136 -->
<g id="edge41" class="edge">
<title>1990971518096&#45;&gt;1990971517136</title>
<path fill="none" stroke="black" d="M1744.87,-173C1752.22,-173 1760.44,-173 1768.65,-173"/>
<polygon fill="black" stroke="black" points="1768.64,-176.5 1778.64,-173 1768.64,-169.5 1768.64,-176.5"/>
</g>
<!-- 1990971522224&#45;&gt;1990971351760 -->
<g id="edge43" class="edge">
<title>1990971522224&#45;&gt;1990971351760</title>
<path fill="none" stroke="black" d="M1947.66,-173C1954.87,-173 1963.02,-173 1971.37,-173"/>
<polygon fill="black" stroke="black" points="1971.32,-176.5 1981.32,-173 1971.32,-169.5 1971.32,-176.5"/>
</g>
<!-- 1990971359056&#45;&gt;1990971358096 -->
<g id="edge45" class="edge">
<title>1990971359056&#45;&gt;1990971358096</title>
<path fill="none" stroke="black" d="M2180.99,-179.67C2190.01,-182.04 2200.48,-184.78 2210.76,-187.47"/>
<polygon fill="black" stroke="black" points="2209.72,-190.81 2220.28,-189.96 2211.5,-184.04 2209.72,-190.81"/>
</g>
<!-- 1990971359056&#45;&gt;1990971356896 -->
<g id="edge46" class="edge">
<title>1990971359056&#45;&gt;1990971356896</title>
<path fill="none" stroke="black" d="M2180.99,-166.33C2188.71,-164.31 2197.48,-162.01 2206.29,-159.7"/>
<polygon fill="black" stroke="black" points="2207.12,-163.1 2215.91,-157.18 2205.35,-156.33 2207.12,-163.1"/>
</g>
<!-- 1990971358480&#45;&gt;1990971351616 -->
<g id="edge49" class="edge">
<title>1990971358480&#45;&gt;1990971351616</title>
<path fill="none" stroke="black" d="M2392.15,-173C2399.64,-173 2407.93,-173 2415.95,-173"/>
<polygon fill="black" stroke="black" points="2415.85,-176.5 2425.85,-173 2415.85,-169.5 2415.85,-176.5"/>
</g>
</g>
</svg>
