<?xml version="1.0" encoding="UTF-8" standalone="no"?>
<!DOCTYPE svg PUBLIC "-//W3C//DTD SVG 1.1//EN"
 "http://www.w3.org/Graphics/SVG/1.1/DTD/svg11.dtd">
<!-- Generated by graphviz version 11.0.0 (20240428.1522)
 -->
<!-- Title: imdf_net_1754051181.6806858 Pages: 1 -->
<svg width="2566pt" height="386pt"
 viewBox="0.00 0.00 2565.50 386.00" xmlns="http://www.w3.org/2000/svg" xmlns:xlink="http://www.w3.org/1999/xlink">
<g id="graph0" class="graph" transform="scale(1 1) rotate(0) translate(4 382)">
<title>imdf_net_1754051181.6806858</title>
<polygon fill="white" stroke="none" points="-4,4 -4,-382 2561.5,-382 2561.5,4 -4,4"/>
<!-- 1990975873408 -->
<g id="node1" class="node">
<title>1990975873408</title>
<polygon fill="white" stroke="black" points="172.75,-292 90,-292 90,-256 172.75,-256 172.75,-292"/>
<text text-anchor="middle" x="131.38" y="-268.98" font-family="Times New Roman,serif" font-size="12.00">Initial Review</text>
</g>
<!-- 1990975875568 -->
<g id="node20" class="node">
<title>1990975875568</title>
<ellipse fill="white" stroke="black" cx="235.75" cy="-274" rx="27" ry="27"/>
</g>
<!-- 1990975873408&#45;&gt;1990975875568 -->
<g id="edge2" class="edge">
<title>1990975873408&#45;&gt;1990975875568</title>
<path fill="none" stroke="black" d="M173.13,-274C180.98,-274 189.17,-274 196.92,-274"/>
<polygon fill="black" stroke="black" points="196.74,-277.5 206.74,-274 196.74,-270.5 196.74,-277.5"/>
</g>
<!-- 1990975875856 -->
<g id="node2" class="node">
<title>1990975875856</title>
<polygon fill="black" stroke="black" points="352.75,-225 298.75,-225 298.75,-189 352.75,-189 352.75,-225"/>
</g>
<!-- 1990975907856 -->
<g id="node21" class="node">
<title>1990975907856</title>
<ellipse fill="white" stroke="black" cx="415.75" cy="-315" rx="27" ry="27"/>
</g>
<!-- 1990975875856&#45;&gt;1990975907856 -->
<g id="edge7" class="edge">
<title>1990975875856&#45;&gt;1990975907856</title>
<path fill="none" stroke="black" d="M341.68,-225.32C355.14,-241.84 375.17,-266.43 390.86,-285.68"/>
<polygon fill="black" stroke="black" points="387.96,-287.66 396.99,-293.2 393.38,-283.24 387.96,-287.66"/>
</g>
<!-- 1990975880464 -->
<g id="node22" class="node">
<title>1990975880464</title>
<ellipse fill="white" stroke="black" cx="415.75" cy="-243" rx="27" ry="27"/>
</g>
<!-- 1990975875856&#45;&gt;1990975880464 -->
<g id="edge8" class="edge">
<title>1990975875856&#45;&gt;1990975880464</title>
<path fill="none" stroke="black" d="M353.15,-217.8C361.5,-221.22 370.87,-225.05 379.72,-228.67"/>
<polygon fill="black" stroke="black" points="378.19,-231.83 388.77,-232.37 380.84,-225.35 378.19,-231.83"/>
</g>
<!-- 1990975751568 -->
<g id="node23" class="node">
<title>1990975751568</title>
<ellipse fill="white" stroke="black" cx="415.75" cy="-171" rx="27" ry="27"/>
</g>
<!-- 1990975875856&#45;&gt;1990975751568 -->
<g id="edge6" class="edge">
<title>1990975875856&#45;&gt;1990975751568</title>
<path fill="none" stroke="black" d="M353.15,-196.2C361.5,-192.78 370.87,-188.95 379.72,-185.33"/>
<polygon fill="black" stroke="black" points="380.84,-188.65 388.77,-181.63 378.19,-182.17 380.84,-188.65"/>
</g>
<!-- 1990975755984 -->
<g id="node24" class="node">
<title>1990975755984</title>
<ellipse fill="white" stroke="black" cx="415.75" cy="-99" rx="27" ry="27"/>
</g>
<!-- 1990975875856&#45;&gt;1990975755984 -->
<g id="edge4" class="edge">
<title>1990975875856&#45;&gt;1990975755984</title>
<path fill="none" stroke="black" d="M341.68,-188.68C355.14,-172.16 375.17,-147.57 390.86,-128.32"/>
<polygon fill="black" stroke="black" points="393.38,-130.76 396.99,-120.8 387.96,-126.34 393.38,-130.76"/>
</g>
<!-- 1990975899504 -->
<g id="node25" class="node">
<title>1990975899504</title>
<ellipse fill="white" stroke="black" cx="415.75" cy="-27" rx="27" ry="27"/>
</g>
<!-- 1990975875856&#45;&gt;1990975899504 -->
<g id="edge5" class="edge">
<title>1990975875856&#45;&gt;1990975899504</title>
<path fill="none" stroke="black" d="M333.17,-188.66C343.28,-160.69 364.31,-106.09 388.75,-63 389.81,-61.14 390.94,-59.26 392.12,-57.38"/>
<polygon fill="black" stroke="black" points="394.78,-59.7 397.44,-49.45 388.96,-55.81 394.78,-59.7"/>
</g>
<!-- 1990975756944 -->
<g id="node3" class="node">
<title>1990975756944</title>
<polygon fill="white" stroke="black" points="574.62,-189 488.12,-189 488.12,-153 574.62,-153 574.62,-189"/>
<text text-anchor="middle" x="531.38" y="-165.97" font-family="Times New Roman,serif" font-size="12.00">Forensic Audit</text>
</g>
<!-- 1990975750752 -->
<g id="node29" class="node">
<title>1990975750752</title>
<ellipse fill="white" stroke="black" cx="647" cy="-171" rx="27" ry="27"/>
</g>
<!-- 1990975756944&#45;&gt;1990975750752 -->
<g id="edge15" class="edge">
<title>1990975756944&#45;&gt;1990975750752</title>
<path fill="none" stroke="black" d="M575.01,-171C585.9,-171 597.53,-171 608.16,-171"/>
<polygon fill="black" stroke="black" points="608.13,-174.5 618.13,-171 608.13,-167.5 608.13,-174.5"/>
</g>
<!-- 1990975877536 -->
<g id="node4" class="node">
<title>1990975877536</title>
<polygon fill="white" stroke="black" points="584,-261 478.75,-261 478.75,-225 584,-225 584,-261"/>
<text text-anchor="middle" x="531.38" y="-237.97" font-family="Times New Roman,serif" font-size="12.00">Provenance Check</text>
</g>
<!-- 1990975878256 -->
<g id="node30" class="node">
<title>1990975878256</title>
<ellipse fill="white" stroke="black" cx="647" cy="-243" rx="27" ry="27"/>
</g>
<!-- 1990975877536&#45;&gt;1990975878256 -->
<g id="edge18" class="edge">
<title>1990975877536&#45;&gt;1990975878256</title>
<path fill="none" stroke="black" d="M584.2,-243C592.36,-243 600.66,-243 608.42,-243"/>
<polygon fill="black" stroke="black" points="608.18,-246.5 618.18,-243 608.18,-239.5 608.18,-246.5"/>
</g>
<!-- 1990975759392 -->
<g id="node5" class="node">
<title>1990975759392</title>
<polygon fill="white" stroke="black" points="568.62,-117 494.12,-117 494.12,-81 568.62,-81 568.62,-117"/>
<text text-anchor="middle" x="531.38" y="-93.97" font-family="Times New Roman,serif" font-size="12.00">Digital Scan</text>
</g>
<!-- 1990975764096 -->
<g id="node26" class="node">
<title>1990975764096</title>
<ellipse fill="white" stroke="black" cx="647" cy="-99" rx="27" ry="27"/>
</g>
<!-- 1990975759392&#45;&gt;1990975764096 -->
<g id="edge16" class="edge">
<title>1990975759392&#45;&gt;1990975764096</title>
<path fill="none" stroke="black" d="M568.95,-99C581.57,-99 595.72,-99 608.41,-99"/>
<polygon fill="black" stroke="black" points="608.06,-102.5 618.06,-99 608.06,-95.5 608.06,-102.5"/>
</g>
<!-- 1990975899072 -->
<g id="node6" class="node">
<title>1990975899072</title>
<polygon fill="white" stroke="black" points="578,-333 484.75,-333 484.75,-297 578,-297 578,-333"/>
<text text-anchor="middle" x="531.38" y="-309.98" font-family="Times New Roman,serif" font-size="12.00">Material Testing</text>
</g>
<!-- 1990975867600 -->
<g id="node28" class="node">
<title>1990975867600</title>
<ellipse fill="white" stroke="black" cx="647" cy="-315" rx="27" ry="27"/>
</g>
<!-- 1990975899072&#45;&gt;1990975867600 -->
<g id="edge14" class="edge">
<title>1990975899072&#45;&gt;1990975867600</title>
<path fill="none" stroke="black" d="M578.26,-315C588.25,-315 598.7,-315 608.32,-315"/>
<polygon fill="black" stroke="black" points="608.05,-318.5 618.05,-315 608.05,-311.5 608.05,-318.5"/>
</g>
<!-- 1990975765104 -->
<g id="node7" class="node">
<title>1990975765104</title>
<polygon fill="white" stroke="black" points="573.5,-45 489.25,-45 489.25,-9 573.5,-9 573.5,-45"/>
<text text-anchor="middle" x="531.38" y="-21.98" font-family="Times New Roman,serif" font-size="12.00">Style Analysis</text>
</g>
<!-- 1990975899936 -->
<g id="node27" class="node">
<title>1990975899936</title>
<ellipse fill="white" stroke="black" cx="647" cy="-27" rx="27" ry="27"/>
</g>
<!-- 1990975765104&#45;&gt;1990975899936 -->
<g id="edge17" class="edge">
<title>1990975765104&#45;&gt;1990975899936</title>
<path fill="none" stroke="black" d="M573.72,-27C584.99,-27 597.15,-27 608.22,-27"/>
<polygon fill="black" stroke="black" points="608.19,-30.5 618.19,-27 608.19,-23.5 608.19,-30.5"/>
</g>
<!-- 1990975876624 -->
<g id="node8" class="node">
<title>1990975876624</title>
<polygon fill="black" stroke="black" points="764,-199 710,-199 710,-163 764,-163 764,-199"/>
</g>
<!-- 1990975875232 -->
<g id="node31" class="node">
<title>1990975875232</title>
<ellipse fill="white" stroke="black" cx="827" cy="-191" rx="27" ry="27"/>
</g>
<!-- 1990975876624&#45;&gt;1990975875232 -->
<g id="edge24" class="edge">
<title>1990975876624&#45;&gt;1990975875232</title>
<path fill="none" stroke="black" d="M764.4,-184C772.04,-184.87 780.53,-185.83 788.7,-186.76"/>
<polygon fill="black" stroke="black" points="788.08,-190.21 798.42,-187.87 788.87,-183.26 788.08,-190.21"/>
</g>
<!-- 1990975760208 -->
<g id="node9" class="node">
<title>1990975760208</title>
<polygon fill="white" stroke="black" points="966.75,-292 890,-292 890,-256 966.75,-256 966.75,-292"/>
<text text-anchor="middle" x="928.38" y="-268.98" font-family="Times New Roman,serif" font-size="12.00">Expert Panel</text>
</g>
<!-- 1990975755072 -->
<g id="node33" class="node">
<title>1990975755072</title>
<ellipse fill="white" stroke="black" cx="1029.75" cy="-303" rx="27" ry="27"/>
</g>
<!-- 1990975760208&#45;&gt;1990975755072 -->
<g id="edge27" class="edge">
<title>1990975760208&#45;&gt;1990975755072</title>
<path fill="none" stroke="black" d="M967.23,-285.05C975.52,-287.47 984.29,-290.02 992.52,-292.43"/>
<polygon fill="black" stroke="black" points="991.28,-295.71 1001.86,-295.15 993.25,-288.99 991.28,-295.71"/>
</g>
<!-- 1990975754976 -->
<g id="node10" class="node">
<title>1990975754976</title>
<polygon fill="white" stroke="black" points="964.88,-209 891.88,-209 891.88,-173 964.88,-173 964.88,-209"/>
<text text-anchor="middle" x="928.38" y="-185.97" font-family="Times New Roman,serif" font-size="12.00">Risk Assess</text>
</g>
<!-- 1990975754496 -->
<g id="node32" class="node">
<title>1990975754496</title>
<ellipse fill="white" stroke="black" cx="1029.75" cy="-191" rx="27" ry="27"/>
</g>
<!-- 1990975754976&#45;&gt;1990975754496 -->
<g id="edge28" class="edge">
<title>1990975754976&#45;&gt;1990975754496</title>
<path fill="none" stroke="black" d="M965.25,-191C973.56,-191 982.44,-191 990.84,-191"/>
<polygon fill="black" stroke="black" points="990.77,-194.5 1000.77,-191 990.77,-187.5 990.77,-194.5"/>
</g>
<!-- 1990975754112 -->
<g id="node11" class="node">
<title>1990975754112</title>
<polygon fill="white" stroke="black" points="1174,-348 1092.75,-348 1092.75,-312 1174,-312 1174,-348"/>
<text text-anchor="middle" x="1133.38" y="-324.98" font-family="Times New Roman,serif" font-size="12.00">Data Crossref</text>
</g>
<!-- 1990975754112&#45;&gt;1990975875568 -->
<g id="edge31" class="edge">
<title>1990975754112&#45;&gt;1990975875568</title>
<path fill="none" stroke="black" d="M1092.59,-345.19C1052.13,-359.25 987.32,-378 929.38,-378 414.75,-378 414.75,-378 414.75,-378 353.97,-378 295.5,-332.23 263.02,-301.42"/>
<polygon fill="black" stroke="black" points="265.64,-299.09 256.04,-294.62 260.76,-304.1 265.64,-299.09"/>
</g>
<!-- 1990975753488 -->
<g id="node12" class="node">
<title>1990975753488</title>
<polygon fill="white" stroke="black" points="1171.75,-209 1095,-209 1095,-173 1171.75,-173 1171.75,-209"/>
<text text-anchor="middle" x="1133.38" y="-185.97" font-family="Times New Roman,serif" font-size="12.00">Legal Verify</text>
</g>
<!-- 1990975753200 -->
<g id="node34" class="node">
<title>1990975753200</title>
<ellipse fill="white" stroke="black" cx="1237" cy="-191" rx="27" ry="27"/>
</g>
<!-- 1990975753488&#45;&gt;1990975753200 -->
<g id="edge32" class="edge">
<title>1990975753488&#45;&gt;1990975753200</title>
<path fill="none" stroke="black" d="M1172.22,-191C1180.65,-191 1189.6,-191 1198.05,-191"/>
<polygon fill="black" stroke="black" points="1198.03,-194.5 1208.03,-191 1198.03,-187.5 1198.03,-194.5"/>
</g>
<!-- 1990971926784 -->
<g id="node13" class="node">
<title>1990971926784</title>
<polygon fill="white" stroke="black" points="1385,-209 1300,-209 1300,-173 1385,-173 1385,-209"/>
<text text-anchor="middle" x="1342.5" y="-185.97" font-family="Times New Roman,serif" font-size="12.00">Ethics Review</text>
</g>
<!-- 1990971926832 -->
<g id="node35" class="node">
<title>1990971926832</title>
<ellipse fill="white" stroke="black" cx="1448" cy="-191" rx="27" ry="27"/>
</g>
<!-- 1990971926784&#45;&gt;1990971926832 -->
<g id="edge34" class="edge">
<title>1990971926784&#45;&gt;1990971926832</title>
<path fill="none" stroke="black" d="M1385.3,-191C1393.2,-191 1401.42,-191 1409.18,-191"/>
<polygon fill="black" stroke="black" points="1409.01,-194.5 1419.01,-191 1409.01,-187.5 1409.01,-194.5"/>
</g>
<!-- 1990971931632 -->
<g id="node14" class="node">
<title>1990971931632</title>
<polygon fill="white" stroke="black" points="1609.5,-209 1511,-209 1511,-173 1609.5,-173 1609.5,-209"/>
<text text-anchor="middle" x="1560.25" y="-185.97" font-family="Times New Roman,serif" font-size="12.00">Ownership Trace</text>
</g>
<!-- 1990971928800 -->
<g id="node36" class="node">
<title>1990971928800</title>
<ellipse fill="white" stroke="black" cx="1672.5" cy="-191" rx="27" ry="27"/>
</g>
<!-- 1990971931632&#45;&gt;1990971928800 -->
<g id="edge36" class="edge">
<title>1990971931632&#45;&gt;1990971928800</title>
<path fill="none" stroke="black" d="M1609.93,-191C1617.88,-191 1626.01,-191 1633.65,-191"/>
<polygon fill="black" stroke="black" points="1633.64,-194.5 1643.64,-191 1633.64,-187.5 1633.64,-194.5"/>
</g>
<!-- 1990971928416 -->
<g id="node15" class="node">
<title>1990971928416</title>
<polygon fill="white" stroke="black" points="1834,-209 1735.5,-209 1735.5,-173 1834,-173 1834,-209"/>
<text text-anchor="middle" x="1784.75" y="-185.97" font-family="Times New Roman,serif" font-size="12.00">Condition Report</text>
</g>
<!-- 1990971929904 -->
<g id="node37" class="node">
<title>1990971929904</title>
<ellipse fill="white" stroke="black" cx="1897" cy="-191" rx="27" ry="27"/>
</g>
<!-- 1990971928416&#45;&gt;1990971929904 -->
<g id="edge38" class="edge">
<title>1990971928416&#45;&gt;1990971929904</title>
<path fill="none" stroke="black" d="M1834.43,-191C1842.38,-191 1850.51,-191 1858.15,-191"/>
<polygon fill="black" stroke="black" points="1858.14,-194.5 1868.14,-191 1858.14,-187.5 1858.14,-194.5"/>
</g>
<!-- 1990971930912 -->
<g id="node16" class="node">
<title>1990971930912</title>
<polygon fill="white" stroke="black" points="2036,-209 1960,-209 1960,-173 2036,-173 2036,-209"/>
<text text-anchor="middle" x="1998" y="-185.97" font-family="Times New Roman,serif" font-size="12.00">Auth Certify</text>
</g>
<!-- 1990971924672 -->
<g id="node38" class="node">
<title>1990971924672</title>
<ellipse fill="white" stroke="black" cx="2099" cy="-191" rx="27" ry="27"/>
</g>
<!-- 1990971930912&#45;&gt;1990971924672 -->
<g id="edge40" class="edge">
<title>1990971930912&#45;&gt;1990971924672</title>
<path fill="none" stroke="black" d="M2036.43,-191C2044.21,-191 2052.41,-191 2060.21,-191"/>
<polygon fill="black" stroke="black" points="2060.1,-194.5 2070.1,-191 2060.1,-187.5 2060.1,-194.5"/>
</g>
<!-- 1990971923952 -->
<g id="node17" class="node">
<title>1990971923952</title>
<polygon fill="white" stroke="black" points="2250,-209 2162,-209 2162,-173 2250,-173 2250,-209"/>
<text text-anchor="middle" x="2206" y="-185.97" font-family="Times New Roman,serif" font-size="12.00">Final Approval</text>
</g>
<!-- 1990971923424 -->
<g id="node39" class="node">
<title>1990971923424</title>
<ellipse fill="white" stroke="black" cx="2313" cy="-191" rx="27" ry="27"/>
</g>
<!-- 1990971923952&#45;&gt;1990971923424 -->
<g id="edge42" class="edge">
<title>1990971923952&#45;&gt;1990971923424</title>
<path fill="none" stroke="black" d="M2250.31,-191C2258.27,-191 2266.51,-191 2274.28,-191"/>
<polygon fill="black" stroke="black" points="2274.1,-194.5 2284.1,-191 2274.1,-187.5 2274.1,-194.5"/>
</g>
<!-- 1990971922656 -->
<g id="node18" class="node">
<title>1990971922656</title>
<polygon fill="white" stroke="black" points="2459.5,-209 2376,-209 2376,-173 2459.5,-173 2459.5,-209"/>
<text text-anchor="middle" x="2417.75" y="-185.97" font-family="Times New Roman,serif" font-size="12.00">Archive Entry</text>
</g>
<!-- 1990976050944 -->
<g id="node40" class="node">
<title>1990976050944</title>
<ellipse fill="white" stroke="black" cx="2526.5" cy="-191" rx="27" ry="27"/>
<ellipse fill="none" stroke="black" cx="2526.5" cy="-191" rx="31" ry="31"/>
<text text-anchor="start" x="2510" y="-175.6" font-family="Times New Roman,serif" font-size="32.00">■</text>
</g>
<!-- 1990971922656&#45;&gt;1990976050944 -->
<g id="edge44" class="edge">
<title>1990971922656&#45;&gt;1990976050944</title>
<path fill="none" stroke="black" d="M2459.72,-191C2467.62,-191 2475.9,-191 2483.83,-191"/>
<polygon fill="black" stroke="black" points="2483.57,-194.5 2493.57,-191 2483.57,-187.5 2483.57,-194.5"/>
</g>
<!-- 1990976051856 -->
<g id="node19" class="node">
<title>1990976051856</title>
<ellipse fill="white" stroke="black" cx="27" cy="-274" rx="27" ry="27"/>
<text text-anchor="start" x="9.75" y="-256.7" font-family="Times New Roman,serif" font-size="34.00">●</text>
</g>
<!-- 1990976051856&#45;&gt;1990975873408 -->
<g id="edge1" class="edge">
<title>1990976051856&#45;&gt;1990975873408</title>
<path fill="none" stroke="black" d="M54.36,-274C61.78,-274 70.11,-274 78.46,-274"/>
<polygon fill="black" stroke="black" points="78.27,-277.5 88.27,-274 78.27,-270.5 78.27,-277.5"/>
</g>
<!-- 1990975875568&#45;&gt;1990975875856 -->
<g id="edge3" class="edge">
<title>1990975875568&#45;&gt;1990975875856</title>
<path fill="none" stroke="black" d="M257.6,-258.12C267.79,-250.37 280.29,-240.85 291.73,-232.14"/>
<polygon fill="black" stroke="black" points="293.58,-235.13 299.41,-226.29 289.34,-229.56 293.58,-235.13"/>
</g>
<!-- 1990975907856&#45;&gt;1990975899072 -->
<g id="edge11" class="edge">
<title>1990975907856&#45;&gt;1990975899072</title>
<path fill="none" stroke="black" d="M443.1,-315C452.15,-315 462.67,-315 473.2,-315"/>
<polygon fill="black" stroke="black" points="473.06,-318.5 483.06,-315 473.06,-311.5 473.06,-318.5"/>
</g>
<!-- 1990975880464&#45;&gt;1990975877536 -->
<g id="edge13" class="edge">
<title>1990975880464&#45;&gt;1990975877536</title>
<path fill="none" stroke="black" d="M443.1,-243C450.49,-243 458.85,-243 467.4,-243"/>
<polygon fill="black" stroke="black" points="467.16,-246.5 477.16,-243 467.16,-239.5 467.16,-246.5"/>
</g>
<!-- 1990975751568&#45;&gt;1990975756944 -->
<g id="edge10" class="edge">
<title>1990975751568&#45;&gt;1990975756944</title>
<path fill="none" stroke="black" d="M443.1,-171C453.04,-171 464.73,-171 476.28,-171"/>
<polygon fill="black" stroke="black" points="476.19,-174.5 486.19,-171 476.19,-167.5 476.19,-174.5"/>
</g>
<!-- 1990975755984&#45;&gt;1990975759392 -->
<g id="edge9" class="edge">
<title>1990975755984&#45;&gt;1990975759392</title>
<path fill="none" stroke="black" d="M443.1,-99C454.88,-99 469.14,-99 482.69,-99"/>
<polygon fill="black" stroke="black" points="482.32,-102.5 492.32,-99 482.32,-95.5 482.32,-102.5"/>
</g>
<!-- 1990975899504&#45;&gt;1990975765104 -->
<g id="edge12" class="edge">
<title>1990975899504&#45;&gt;1990975765104</title>
<path fill="none" stroke="black" d="M443.1,-27C453.44,-27 465.68,-27 477.68,-27"/>
<polygon fill="black" stroke="black" points="477.52,-30.5 487.52,-27 477.52,-23.5 477.52,-30.5"/>
</g>
<!-- 1990975764096&#45;&gt;1990975876624 -->
<g id="edge22" class="edge">
<title>1990975764096&#45;&gt;1990975876624</title>
<path fill="none" stroke="black" d="M667.53,-117.2C679.41,-128.27 694.78,-142.59 707.95,-154.86"/>
<polygon fill="black" stroke="black" points="705.41,-157.28 715.11,-161.54 710.18,-152.16 705.41,-157.28"/>
</g>
<!-- 1990975899936&#45;&gt;1990975876624 -->
<g id="edge19" class="edge">
<title>1990975899936&#45;&gt;1990975876624</title>
<path fill="none" stroke="black" d="M664.18,-48.36C667.56,-53.1 671,-58.15 674,-63 692.28,-92.51 710.43,-127.96 722.32,-152.25"/>
<polygon fill="black" stroke="black" points="719.15,-153.73 726.66,-161.2 725.45,-150.68 719.15,-153.73"/>
</g>
<!-- 1990975867600&#45;&gt;1990975876624 -->
<g id="edge21" class="edge">
<title>1990975867600&#45;&gt;1990975876624</title>
<path fill="none" stroke="black" d="M663.89,-293.45C667.28,-288.73 670.8,-283.73 674,-279 689.75,-255.71 706.77,-228.67 718.98,-208.9"/>
<polygon fill="black" stroke="black" points="721.85,-210.92 724.11,-200.57 715.89,-207.25 721.85,-210.92"/>
</g>
<!-- 1990975750752&#45;&gt;1990975876624 -->
<g id="edge20" class="edge">
<title>1990975750752&#45;&gt;1990975876624</title>
<path fill="none" stroke="black" d="M673.93,-173.95C681.58,-174.82 690.11,-175.79 698.34,-176.72"/>
<polygon fill="black" stroke="black" points="697.81,-180.18 708.15,-177.83 698.6,-173.23 697.81,-180.18"/>
</g>
<!-- 1990975878256&#45;&gt;1990975876624 -->
<g id="edge23" class="edge">
<title>1990975878256&#45;&gt;1990975876624</title>
<path fill="none" stroke="black" d="M669.75,-227.67C679.03,-221.14 690.09,-213.34 700.5,-206.01"/>
<polygon fill="black" stroke="black" points="702.4,-208.95 708.56,-200.33 698.37,-203.23 702.4,-208.95"/>
</g>
<!-- 1990975875232&#45;&gt;1990975760208 -->
<g id="edge26" class="edge">
<title>1990975875232&#45;&gt;1990975760208</title>
<path fill="none" stroke="black" d="M848.11,-207.8C862.18,-219.55 881.22,-235.45 897.12,-248.73"/>
<polygon fill="black" stroke="black" points="894.49,-251.09 904.41,-254.82 898.98,-245.72 894.49,-251.09"/>
</g>
<!-- 1990975875232&#45;&gt;1990975754976 -->
<g id="edge25" class="edge">
<title>1990975875232&#45;&gt;1990975754976</title>
<path fill="none" stroke="black" d="M854.37,-191C862.29,-191 871.22,-191 880.06,-191"/>
<polygon fill="black" stroke="black" points="880.01,-194.5 890.01,-191 880.01,-187.5 880.01,-194.5"/>
</g>
<!-- 1990975754496&#45;&gt;1990975753488 -->
<g id="edge30" class="edge">
<title>1990975754496&#45;&gt;1990975753488</title>
<path fill="none" stroke="black" d="M1057.19,-191C1065.21,-191 1074.29,-191 1083.3,-191"/>
<polygon fill="black" stroke="black" points="1083.08,-194.5 1093.08,-191 1083.08,-187.5 1083.08,-194.5"/>
</g>
<!-- 1990975755072&#45;&gt;1990975754112 -->
<g id="edge29" class="edge">
<title>1990975755072&#45;&gt;1990975754112</title>
<path fill="none" stroke="black" d="M1056.13,-309.74C1063.82,-311.79 1072.56,-314.11 1081.3,-316.43"/>
<polygon fill="black" stroke="black" points="1080.28,-319.78 1090.84,-318.97 1082.08,-313.02 1080.28,-319.78"/>
</g>
<!-- 1990975753200&#45;&gt;1990971926784 -->
<g id="edge33" class="edge">
<title>1990975753200&#45;&gt;1990971926784</title>
<path fill="none" stroke="black" d="M1264.39,-191C1271.8,-191 1280.13,-191 1288.51,-191"/>
<polygon fill="black" stroke="black" points="1288.36,-194.5 1298.36,-191 1288.36,-187.5 1288.36,-194.5"/>
</g>
<!-- 1990971926832&#45;&gt;1990971931632 -->
<g id="edge35" class="edge">
<title>1990971926832&#45;&gt;1990971931632</title>
<path fill="none" stroke="black" d="M1475.41,-191C1482.68,-191 1490.87,-191 1499.22,-191"/>
<polygon fill="black" stroke="black" points="1499.11,-194.5 1509.11,-191 1499.11,-187.5 1499.11,-194.5"/>
</g>
<!-- 1990971928800&#45;&gt;1990971928416 -->
<g id="edge37" class="edge">
<title>1990971928800&#45;&gt;1990971928416</title>
<path fill="none" stroke="black" d="M1699.91,-191C1707.18,-191 1715.37,-191 1723.72,-191"/>
<polygon fill="black" stroke="black" points="1723.61,-194.5 1733.61,-191 1723.61,-187.5 1723.61,-194.5"/>
</g>
<!-- 1990971929904&#45;&gt;1990971930912 -->
<g id="edge39" class="edge">
<title>1990971929904&#45;&gt;1990971930912</title>
<path fill="none" stroke="black" d="M1924.27,-191C1931.75,-191 1940.15,-191 1948.51,-191"/>
<polygon fill="black" stroke="black" points="1948.28,-194.5 1958.28,-191 1948.28,-187.5 1948.28,-194.5"/>
</g>
<!-- 1990971924672&#45;&gt;1990971923952 -->
<g id="edge41" class="edge">
<title>1990971924672&#45;&gt;1990971923952</title>
<path fill="none" stroke="black" d="M2126.5,-191C2133.85,-191 2142.11,-191 2150.44,-191"/>
<polygon fill="black" stroke="black" points="2150.25,-194.5 2160.25,-191 2150.25,-187.5 2150.25,-194.5"/>
</g>
<!-- 1990971923424&#45;&gt;1990971922656 -->
<g id="edge43" class="edge">
<title>1990971923424&#45;&gt;1990971922656</title>
<path fill="none" stroke="black" d="M2340.46,-191C2347.82,-191 2356.08,-191 2364.37,-191"/>
<polygon fill="black" stroke="black" points="2364.11,-194.5 2374.11,-191 2364.11,-187.5 2364.11,-194.5"/>
</g>
</g>
</svg>
