<?xml version="1.0" encoding="UTF-8" standalone="no"?>
<!DOCTYPE svg PUBLIC "-//W3C//DTD SVG 1.1//EN"
 "http://www.w3.org/Graphics/SVG/1.1/DTD/svg11.dtd">
<!-- Generated by graphviz version 11.0.0 (20240428.1522)
 -->
<!-- Title: imdf_net_1754051186.7048655 Pages: 1 -->
<svg width="2073pt" height="377pt"
 viewBox="0.00 0.00 2073.00 377.00" xmlns="http://www.w3.org/2000/svg" xmlns:xlink="http://www.w3.org/1999/xlink">
<g id="graph0" class="graph" transform="scale(1 1) rotate(0) translate(4 373)">
<title>imdf_net_1754051186.7048655</title>
<polygon fill="white" stroke="none" points="-4,4 -4,-373 2069,-373 2069,4 -4,4"/>
<!-- 1990976966768 -->
<g id="node1" class="node">
<title>1990976966768</title>
<polygon fill="white" stroke="black" points="200.5,-189 90,-189 90,-153 200.5,-153 200.5,-189"/>
<text text-anchor="middle" x="145.25" y="-165.97" font-family="Times New Roman,serif" font-size="12.00">Preliminary Review</text>
</g>
<!-- 1990977077904 -->
<g id="node19" class="node">
<title>1990977077904</title>
<ellipse fill="white" stroke="black" cx="263.5" cy="-315" rx="27" ry="27"/>
</g>
<!-- 1990976966768&#45;&gt;1990977077904 -->
<g id="edge6" class="edge">
<title>1990976966768&#45;&gt;1990977077904</title>
<path fill="none" stroke="black" d="M160.97,-189.24C180.49,-213.41 215.17,-256.37 238.5,-285.27"/>
<polygon fill="black" stroke="black" points="235.69,-287.36 244.69,-292.94 241.13,-282.96 235.69,-287.36"/>
</g>
<!-- 1990977086352 -->
<g id="node20" class="node">
<title>1990977086352</title>
<ellipse fill="white" stroke="black" cx="263.5" cy="-243" rx="27" ry="27"/>
</g>
<!-- 1990976966768&#45;&gt;1990977086352 -->
<g id="edge2" class="edge">
<title>1990976966768&#45;&gt;1990977086352</title>
<path fill="none" stroke="black" d="M175.89,-189.35C192.53,-199.66 213.32,-212.54 230.35,-223.09"/>
<polygon fill="black" stroke="black" points="228.26,-225.91 238.61,-228.2 231.95,-219.96 228.26,-225.91"/>
</g>
<!-- 1990977089856 -->
<g id="node21" class="node">
<title>1990977089856</title>
<ellipse fill="white" stroke="black" cx="263.5" cy="-171" rx="27" ry="27"/>
</g>
<!-- 1990976966768&#45;&gt;1990977089856 -->
<g id="edge4" class="edge">
<title>1990976966768&#45;&gt;1990977089856</title>
<path fill="none" stroke="black" d="M200.97,-171C209.01,-171 217.14,-171 224.73,-171"/>
<polygon fill="black" stroke="black" points="224.63,-174.5 234.63,-171 224.63,-167.5 224.63,-174.5"/>
</g>
<!-- 1990976971232 -->
<g id="node22" class="node">
<title>1990976971232</title>
<ellipse fill="white" stroke="black" cx="263.5" cy="-99" rx="27" ry="27"/>
</g>
<!-- 1990976966768&#45;&gt;1990976971232 -->
<g id="edge3" class="edge">
<title>1990976966768&#45;&gt;1990976971232</title>
<path fill="none" stroke="black" d="M175.89,-152.65C192.53,-142.34 213.32,-129.46 230.35,-118.91"/>
<polygon fill="black" stroke="black" points="231.95,-122.04 238.61,-113.8 228.26,-116.09 231.95,-122.04"/>
</g>
<!-- 1990977087840 -->
<g id="node23" class="node">
<title>1990977087840</title>
<ellipse fill="white" stroke="black" cx="263.5" cy="-27" rx="27" ry="27"/>
</g>
<!-- 1990976966768&#45;&gt;1990977087840 -->
<g id="edge5" class="edge">
<title>1990976966768&#45;&gt;1990977087840</title>
<path fill="none" stroke="black" d="M160.97,-152.76C180.49,-128.59 215.17,-85.63 238.5,-56.73"/>
<polygon fill="black" stroke="black" points="241.13,-59.04 244.69,-49.06 235.69,-54.64 241.13,-59.04"/>
</g>
<!-- 1990976963840 -->
<g id="node2" class="node">
<title>1990976963840</title>
<polygon fill="white" stroke="black" points="431.75,-117 326.5,-117 326.5,-81 431.75,-81 431.75,-117"/>
<text text-anchor="middle" x="379.12" y="-93.97" font-family="Times New Roman,serif" font-size="12.00">Provenance Check</text>
</g>
<!-- 1990976962976 -->
<g id="node25" class="node">
<title>1990976962976</title>
<ellipse fill="white" stroke="black" cx="494.75" cy="-99" rx="27" ry="27"/>
</g>
<!-- 1990976963840&#45;&gt;1990976962976 -->
<g id="edge14" class="edge">
<title>1990976963840&#45;&gt;1990976962976</title>
<path fill="none" stroke="black" d="M431.95,-99C440.11,-99 448.41,-99 456.17,-99"/>
<polygon fill="black" stroke="black" points="455.93,-102.5 465.93,-99 455.93,-95.5 455.93,-102.5"/>
</g>
<!-- 1990977090432 -->
<g id="node3" class="node">
<title>1990977090432</title>
<polygon fill="white" stroke="black" points="425.75,-189 332.5,-189 332.5,-153 425.75,-153 425.75,-189"/>
<text text-anchor="middle" x="379.12" y="-165.97" font-family="Times New Roman,serif" font-size="12.00">Legal Clearance</text>
</g>
<!-- 1990977091008 -->
<g id="node28" class="node">
<title>1990977091008</title>
<ellipse fill="white" stroke="black" cx="494.75" cy="-171" rx="27" ry="27"/>
</g>
<!-- 1990977090432&#45;&gt;1990977091008 -->
<g id="edge13" class="edge">
<title>1990977090432&#45;&gt;1990977091008</title>
<path fill="none" stroke="black" d="M426.01,-171C436,-171 446.45,-171 456.07,-171"/>
<polygon fill="black" stroke="black" points="455.8,-174.5 465.8,-171 455.8,-167.5 455.8,-174.5"/>
</g>
<!-- 1990977078672 -->
<g id="node4" class="node">
<title>1990977078672</title>
<polygon fill="white" stroke="black" points="425.75,-316 332.5,-316 332.5,-280 425.75,-280 425.75,-316"/>
<text text-anchor="middle" x="379.12" y="-292.98" font-family="Times New Roman,serif" font-size="12.00">Material Testing</text>
</g>
<!-- 1990977078432 -->
<g id="node26" class="node">
<title>1990977078432</title>
<ellipse fill="white" stroke="black" cx="494.75" cy="-297" rx="27" ry="27"/>
</g>
<!-- 1990977078672&#45;&gt;1990977078432 -->
<g id="edge15" class="edge">
<title>1990977078672&#45;&gt;1990977078432</title>
<path fill="none" stroke="black" d="M426.01,-297.6C436,-297.51 446.45,-297.42 456.07,-297.33"/>
<polygon fill="black" stroke="black" points="455.83,-300.83 465.8,-297.25 455.77,-293.83 455.83,-300.83"/>
</g>
<!-- 1990977088416 -->
<g id="node5" class="node">
<title>1990977088416</title>
<polygon fill="white" stroke="black" points="416.38,-47 341.88,-47 341.88,-11 416.38,-11 416.38,-47"/>
<text text-anchor="middle" x="379.12" y="-23.98" font-family="Times New Roman,serif" font-size="12.00">Digital Scan</text>
</g>
<!-- 1990977087504 -->
<g id="node24" class="node">
<title>1990977087504</title>
<ellipse fill="white" stroke="black" cx="839" cy="-35" rx="27" ry="27"/>
</g>
<!-- 1990977088416&#45;&gt;1990977087504 -->
<g id="edge12" class="edge">
<title>1990977088416&#45;&gt;1990977087504</title>
<path fill="none" stroke="black" d="M416.82,-29.48C502.25,-30.6 713.72,-33.37 800.21,-34.5"/>
<polygon fill="black" stroke="black" points="800,-38 810.05,-34.63 800.09,-31 800,-38"/>
</g>
<!-- 1990977086928 -->
<g id="node6" class="node">
<title>1990977086928</title>
<polygon fill="white" stroke="black" points="422.38,-253 335.88,-253 335.88,-217 422.38,-217 422.38,-253"/>
<text text-anchor="middle" x="379.12" y="-229.97" font-family="Times New Roman,serif" font-size="12.00">XRay Imaging</text>
</g>
<!-- 1990977086016 -->
<g id="node27" class="node">
<title>1990977086016</title>
<ellipse fill="white" stroke="black" cx="951.25" cy="-225" rx="27" ry="27"/>
</g>
<!-- 1990977086928&#45;&gt;1990977086016 -->
<g id="edge16" class="edge">
<title>1990977086928&#45;&gt;1990977086016</title>
<path fill="none" stroke="black" d="M422.86,-233.51C468.97,-232.04 544.55,-230 609.75,-230 609.75,-230 609.75,-230 727.75,-230 792.7,-230 868.28,-227.84 912.53,-226.36"/>
<polygon fill="black" stroke="black" points="912.49,-229.87 922.37,-226.03 912.25,-222.87 912.49,-229.87"/>
</g>
<!-- 1990977081600 -->
<g id="node7" class="node">
<title>1990977081600</title>
<polygon fill="white" stroke="black" points="654,-315 567.5,-315 567.5,-279 654,-279 654,-315"/>
<text text-anchor="middle" x="610.75" y="-291.98" font-family="Times New Roman,serif" font-size="12.00">Carbon Dating</text>
</g>
<!-- 1990977081840 -->
<g id="node32" class="node">
<title>1990977081840</title>
<ellipse fill="white" stroke="black" cx="726.75" cy="-297" rx="27" ry="27"/>
</g>
<!-- 1990977081600&#45;&gt;1990977081840 -->
<g id="edge25" class="edge">
<title>1990977081600&#45;&gt;1990977081840</title>
<path fill="none" stroke="black" d="M654.2,-297C665.36,-297 677.31,-297 688.19,-297"/>
<polygon fill="black" stroke="black" points="687.98,-300.5 697.98,-297 687.98,-293.5 687.98,-300.5"/>
</g>
<!-- 1990976963216 -->
<g id="node8" class="node">
<title>1990976963216</title>
<polygon fill="white" stroke="black" points="663.75,-117 557.75,-117 557.75,-81 663.75,-81 663.75,-117"/>
<text text-anchor="middle" x="610.75" y="-93.97" font-family="Times New Roman,serif" font-size="12.00">Historical Analysis</text>
</g>
<!-- 1990976892288 -->
<g id="node29" class="node">
<title>1990976892288</title>
<ellipse fill="white" stroke="black" cx="1173.5" cy="-99" rx="27" ry="27"/>
</g>
<!-- 1990976963216&#45;&gt;1990976892288 -->
<g id="edge26" class="edge">
<title>1990976963216&#45;&gt;1990976892288</title>
<path fill="none" stroke="black" d="M663.87,-99C709.73,-99 778.3,-99 838,-99 838,-99 838,-99 952.25,-99 1016.35,-99 1090.94,-99 1134.8,-99"/>
<polygon fill="black" stroke="black" points="1134.54,-102.5 1144.54,-99 1134.54,-95.5 1134.54,-102.5"/>
</g>
<!-- 1990977080352 -->
<g id="node9" class="node">
<title>1990977080352</title>
<polygon fill="white" stroke="black" points="649.12,-369 572.38,-369 572.38,-333 649.12,-333 649.12,-369"/>
<text text-anchor="middle" x="610.75" y="-345.98" font-family="Times New Roman,serif" font-size="12.00">Expert Panel</text>
</g>
<!-- 1990977080352&#45;&gt;1990977077904 -->
<g id="edge23" class="edge">
<title>1990977080352&#45;&gt;1990977077904</title>
<path fill="none" stroke="black" d="M572.09,-348.37C517.74,-344.38 414.2,-336.08 326.5,-325 318.41,-323.98 309.76,-322.7 301.56,-321.4"/>
<polygon fill="black" stroke="black" points="302.31,-317.98 291.88,-319.82 301.19,-324.89 302.31,-317.98"/>
</g>
<!-- 1990976968160 -->
<g id="node10" class="node">
<title>1990976968160</title>
<polygon fill="white" stroke="black" points="1345.5,-180 1236.5,-180 1236.5,-144 1345.5,-144 1345.5,-180"/>
<text text-anchor="middle" x="1291" y="-156.97" font-family="Times New Roman,serif" font-size="12.00">Authentication Cert</text>
</g>
<!-- 1990976967824 -->
<g id="node30" class="node">
<title>1990976967824</title>
<ellipse fill="white" stroke="black" cx="1408.5" cy="-162" rx="27" ry="27"/>
</g>
<!-- 1990976968160&#45;&gt;1990976967824 -->
<g id="edge24" class="edge">
<title>1990976968160&#45;&gt;1990976967824</title>
<path fill="none" stroke="black" d="M1345.69,-162C1353.91,-162 1362.23,-162 1370,-162"/>
<polygon fill="black" stroke="black" points="1369.76,-165.5 1379.76,-162 1369.76,-158.5 1369.76,-165.5"/>
</g>
<!-- 1990976969840 -->
<g id="node11" class="node">
<title>1990976969840</title>
<polygon fill="white" stroke="black" points="657.38,-187 564.12,-187 564.12,-151 657.38,-151 657.38,-187"/>
<text text-anchor="middle" x="610.75" y="-163.97" font-family="Times New Roman,serif" font-size="12.00">Ethics Approval</text>
</g>
<!-- 1990976889648 -->
<g id="node31" class="node">
<title>1990976889648</title>
<ellipse fill="white" stroke="black" cx="1062.38" cy="-162" rx="27" ry="27"/>
</g>
<!-- 1990976969840&#45;&gt;1990976889648 -->
<g id="edge27" class="edge">
<title>1990976969840&#45;&gt;1990976889648</title>
<path fill="none" stroke="black" d="M657.75,-168.28C746.92,-166.9 941.71,-163.86 1023.76,-162.59"/>
<polygon fill="black" stroke="black" points="1023.56,-166.09 1033.5,-162.43 1023.45,-159.09 1023.56,-166.09"/>
</g>
<!-- 1990976972864 -->
<g id="node12" class="node">
<title>1990976972864</title>
<polygon fill="white" stroke="black" points="1574.5,-180 1471.5,-180 1471.5,-144 1574.5,-144 1574.5,-180"/>
<text text-anchor="middle" x="1523" y="-156.97" font-family="Times New Roman,serif" font-size="12.00">Secure Cataloging</text>
</g>
<!-- 1990976969600 -->
<g id="node33" class="node">
<title>1990976969600</title>
<ellipse fill="white" stroke="black" cx="1637.5" cy="-162" rx="27" ry="27"/>
</g>
<!-- 1990976972864&#45;&gt;1990976969600 -->
<g id="edge33" class="edge">
<title>1990976972864&#45;&gt;1990976969600</title>
<path fill="none" stroke="black" d="M1574.98,-162C1583,-162 1591.15,-162 1598.79,-162"/>
<polygon fill="black" stroke="black" points="1598.77,-165.5 1608.77,-162 1598.77,-158.5 1598.77,-165.5"/>
</g>
<!-- 1990977082416 -->
<g id="node13" class="node">
<title>1990977082416</title>
<polygon fill="white" stroke="black" points="888.25,-315 789.75,-315 789.75,-279 888.25,-279 888.25,-315"/>
<text text-anchor="middle" x="839" y="-291.98" font-family="Times New Roman,serif" font-size="12.00">Condition Report</text>
</g>
<!-- 1990977082992 -->
<g id="node34" class="node">
<title>1990977082992</title>
<ellipse fill="white" stroke="black" cx="951.25" cy="-297" rx="27" ry="27"/>
</g>
<!-- 1990977082416&#45;&gt;1990977082992 -->
<g id="edge32" class="edge">
<title>1990977082416&#45;&gt;1990977082992</title>
<path fill="none" stroke="black" d="M888.68,-297C896.63,-297 904.76,-297 912.4,-297"/>
<polygon fill="black" stroke="black" points="912.39,-300.5 922.39,-297 912.39,-293.5 912.39,-300.5"/>
</g>
<!-- 1990977083568 -->
<g id="node14" class="node">
<title>1990977083568</title>
<polygon fill="white" stroke="black" points="1110.5,-310 1014.25,-310 1014.25,-274 1110.5,-274 1110.5,-310"/>
<text text-anchor="middle" x="1062.38" y="-286.98" font-family="Times New Roman,serif" font-size="12.00">Risk Assessment</text>
</g>
<!-- 1990976891664 -->
<g id="node36" class="node">
<title>1990976891664</title>
<ellipse fill="white" stroke="black" cx="1173.5" cy="-284" rx="27" ry="27"/>
</g>
<!-- 1990977083568&#45;&gt;1990976891664 -->
<g id="edge39" class="edge">
<title>1990977083568&#45;&gt;1990976891664</title>
<path fill="none" stroke="black" d="M1110.92,-288.51C1118.93,-287.93 1127.15,-287.32 1134.86,-286.76"/>
<polygon fill="black" stroke="black" points="1134.86,-290.27 1144.58,-286.05 1134.35,-283.29 1134.86,-290.27"/>
</g>
<!-- 1990976968016 -->
<g id="node15" class="node">
<title>1990976968016</title>
<polygon fill="white" stroke="black" points="1784,-207 1703.5,-207 1703.5,-171 1784,-171 1784,-207"/>
<text text-anchor="middle" x="1743.75" y="-183.97" font-family="Times New Roman,serif" font-size="12.00">Exhibit Setup</text>
</g>
<!-- 1990976968976 -->
<g id="node35" class="node">
<title>1990976968976</title>
<ellipse fill="white" stroke="black" cx="1850" cy="-162" rx="27" ry="27"/>
</g>
<!-- 1990976968016&#45;&gt;1990976968976 -->
<g id="edge38" class="edge">
<title>1990976968016&#45;&gt;1990976968976</title>
<path fill="none" stroke="black" d="M1784.46,-178.72C1793.68,-176.33 1803.46,-173.79 1812.54,-171.44"/>
<polygon fill="black" stroke="black" points="1813.3,-174.86 1822.1,-168.97 1811.54,-168.09 1813.3,-174.86"/>
</g>
<!-- 1990976968304 -->
<g id="node16" class="node">
<title>1990976968304</title>
<polygon fill="white" stroke="black" points="1787,-153 1700.5,-153 1700.5,-117 1787,-117 1787,-153"/>
<text text-anchor="middle" x="1743.75" y="-129.97" font-family="Times New Roman,serif" font-size="12.00">Transport Prep</text>
</g>
<!-- 1990976968304&#45;&gt;1990976968976 -->
<g id="edge37" class="edge">
<title>1990976968304&#45;&gt;1990976968976</title>
<path fill="none" stroke="black" d="M1787.45,-146.06C1795.79,-148.22 1804.45,-150.46 1812.56,-152.56"/>
<polygon fill="black" stroke="black" points="1811.53,-155.91 1822.09,-155.03 1813.28,-149.13 1811.53,-155.91"/>
</g>
<!-- 1990976974064 -->
<g id="node17" class="node">
<title>1990976974064</title>
<polygon fill="black" stroke="black" points="1967,-180 1913,-180 1913,-144 1967,-144 1967,-180"/>
</g>
<!-- 1990971227552 -->
<g id="node37" class="node">
<title>1990971227552</title>
<ellipse fill="white" stroke="black" cx="2034" cy="-162" rx="27" ry="27"/>
<ellipse fill="none" stroke="black" cx="2034" cy="-162" rx="31" ry="31"/>
<text text-anchor="start" x="2017.5" y="-146.6" font-family="Times New Roman,serif" font-size="32.00">■</text>
</g>
<!-- 1990976974064&#45;&gt;1990971227552 -->
<g id="edge42" class="edge">
<title>1990976974064&#45;&gt;1990971227552</title>
<path fill="none" stroke="black" d="M1967.12,-162C1974.63,-162 1983.01,-162 1991.22,-162"/>
<polygon fill="black" stroke="black" points="1991.08,-165.5 2001.08,-162 1991.08,-158.5 1991.08,-165.5"/>
</g>
<!-- 1990971227696 -->
<g id="node18" class="node">
<title>1990971227696</title>
<ellipse fill="white" stroke="black" cx="27" cy="-171" rx="27" ry="27"/>
<text text-anchor="start" x="9.75" y="-153.7" font-family="Times New Roman,serif" font-size="34.00">●</text>
</g>
<!-- 1990971227696&#45;&gt;1990976966768 -->
<g id="edge1" class="edge">
<title>1990971227696&#45;&gt;1990976966768</title>
<path fill="none" stroke="black" d="M54.38,-171C61.74,-171 70.08,-171 78.64,-171"/>
<polygon fill="black" stroke="black" points="78.44,-174.5 88.44,-171 78.44,-167.5 78.44,-174.5"/>
</g>
<!-- 1990977077904&#45;&gt;1990977078672 -->
<g id="edge9" class="edge">
<title>1990977077904&#45;&gt;1990977078672</title>
<path fill="none" stroke="black" d="M290.57,-311.1C299.71,-309.73 310.37,-308.14 321.05,-306.54"/>
<polygon fill="black" stroke="black" points="321.24,-310.05 330.61,-305.11 320.21,-303.13 321.24,-310.05"/>
</g>
<!-- 1990977086352&#45;&gt;1990977086928 -->
<g id="edge11" class="edge">
<title>1990977086352&#45;&gt;1990977086928</title>
<path fill="none" stroke="black" d="M290.85,-241.14C300.79,-240.45 312.48,-239.62 324.03,-238.81"/>
<polygon fill="black" stroke="black" points="324.21,-242.3 333.94,-238.11 323.72,-235.32 324.21,-242.3"/>
</g>
<!-- 1990977089856&#45;&gt;1990977090432 -->
<g id="edge8" class="edge">
<title>1990977089856&#45;&gt;1990977090432</title>
<path fill="none" stroke="black" d="M290.85,-171C299.9,-171 310.42,-171 320.95,-171"/>
<polygon fill="black" stroke="black" points="320.81,-174.5 330.81,-171 320.81,-167.5 320.81,-174.5"/>
</g>
<!-- 1990976971232&#45;&gt;1990976963840 -->
<g id="edge7" class="edge">
<title>1990976971232&#45;&gt;1990976963840</title>
<path fill="none" stroke="black" d="M290.85,-99C298.24,-99 306.6,-99 315.15,-99"/>
<polygon fill="black" stroke="black" points="314.91,-102.5 324.91,-99 314.91,-95.5 314.91,-102.5"/>
</g>
<!-- 1990977087840&#45;&gt;1990977088416 -->
<g id="edge10" class="edge">
<title>1990977087840&#45;&gt;1990977088416</title>
<path fill="none" stroke="black" d="M290.85,-27.46C302.63,-27.67 316.89,-27.92 330.44,-28.16"/>
<polygon fill="black" stroke="black" points="330.01,-31.65 340.07,-28.33 330.14,-24.65 330.01,-31.65"/>
</g>
<!-- 1990977087504&#45;&gt;1990976968160 -->
<g id="edge19" class="edge">
<title>1990977087504&#45;&gt;1990976968160</title>
<path fill="none" stroke="black" d="M866.16,-30.75C928.03,-21.98 1086.69,-7.09 1200.5,-63 1232.16,-78.55 1257.82,-110.62 1273.42,-134.06"/>
<polygon fill="black" stroke="black" points="1270.31,-135.7 1278.66,-142.23 1276.2,-131.93 1270.31,-135.7"/>
</g>
<!-- 1990976962976&#45;&gt;1990976963216 -->
<g id="edge17" class="edge">
<title>1990976962976&#45;&gt;1990976963216</title>
<path fill="none" stroke="black" d="M522.19,-99C529.43,-99 537.59,-99 545.96,-99"/>
<polygon fill="black" stroke="black" points="545.91,-102.5 555.91,-99 545.91,-95.5 545.91,-102.5"/>
</g>
<!-- 1990977078432&#45;&gt;1990977081600 -->
<g id="edge18" class="edge">
<title>1990977078432&#45;&gt;1990977081600</title>
<path fill="none" stroke="black" d="M522.19,-297C532.36,-297 544.37,-297 556.18,-297"/>
<polygon fill="black" stroke="black" points="555.87,-300.5 565.87,-297 555.87,-293.5 555.87,-300.5"/>
</g>
<!-- 1990977078432&#45;&gt;1990977080352 -->
<g id="edge22" class="edge">
<title>1990977078432&#45;&gt;1990977080352</title>
<path fill="none" stroke="black" d="M519.65,-308.32C531.84,-314.09 547.12,-321.33 561.61,-328.2"/>
<polygon fill="black" stroke="black" points="560.07,-331.34 570.6,-332.46 563.07,-325.01 560.07,-331.34"/>
</g>
<!-- 1990977086016&#45;&gt;1990976968160 -->
<g id="edge21" class="edge">
<title>1990977086016&#45;&gt;1990976968160</title>
<path fill="none" stroke="black" d="M978.33,-220.79C1009.74,-215.66 1064.05,-206.62 1110.5,-198 1148.54,-190.94 1191,-182.45 1225.06,-175.49"/>
<polygon fill="black" stroke="black" points="1225.7,-178.94 1234.79,-173.5 1224.29,-172.08 1225.7,-178.94"/>
</g>
<!-- 1990977091008&#45;&gt;1990976969840 -->
<g id="edge20" class="edge">
<title>1990977091008&#45;&gt;1990976969840</title>
<path fill="none" stroke="black" d="M522.19,-170.54C531.27,-170.38 541.82,-170.19 552.39,-170.01"/>
<polygon fill="black" stroke="black" points="552.34,-173.51 562.28,-169.83 552.22,-166.51 552.34,-173.51"/>
</g>
<!-- 1990976892288&#45;&gt;1990976968160 -->
<g id="edge29" class="edge">
<title>1990976892288&#45;&gt;1990976968160</title>
<path fill="none" stroke="black" d="M1197.6,-111.6C1211.55,-119.21 1229.79,-129.16 1246.38,-138.21"/>
<polygon fill="black" stroke="black" points="1244.65,-141.25 1255.11,-142.97 1248.01,-135.11 1244.65,-141.25"/>
</g>
<!-- 1990976967824&#45;&gt;1990976972864 -->
<g id="edge31" class="edge">
<title>1990976967824&#45;&gt;1990976972864</title>
<path fill="none" stroke="black" d="M1435.88,-162C1443.11,-162 1451.27,-162 1459.61,-162"/>
<polygon fill="black" stroke="black" points="1459.52,-165.5 1469.52,-162 1459.52,-158.5 1459.52,-165.5"/>
</g>
<!-- 1990976889648&#45;&gt;1990976968160 -->
<g id="edge28" class="edge">
<title>1990976889648&#45;&gt;1990976968160</title>
<path fill="none" stroke="black" d="M1089.82,-162C1122.68,-162 1179.92,-162 1224.8,-162"/>
<polygon fill="black" stroke="black" points="1224.7,-165.5 1234.7,-162 1224.7,-158.5 1224.7,-165.5"/>
</g>
<!-- 1990977081840&#45;&gt;1990977082416 -->
<g id="edge30" class="edge">
<title>1990977081840&#45;&gt;1990977082416</title>
<path fill="none" stroke="black" d="M754.16,-297C761.43,-297 769.62,-297 777.97,-297"/>
<polygon fill="black" stroke="black" points="777.86,-300.5 787.86,-297 777.86,-293.5 777.86,-300.5"/>
</g>
<!-- 1990976969600&#45;&gt;1990976968016 -->
<g id="edge35" class="edge">
<title>1990976969600&#45;&gt;1990976968016</title>
<path fill="none" stroke="black" d="M1664,-168.6C1672.59,-170.83 1682.49,-173.39 1692.31,-175.94"/>
<polygon fill="black" stroke="black" points="1691.27,-179.28 1701.82,-178.4 1693.02,-172.5 1691.27,-179.28"/>
</g>
<!-- 1990976969600&#45;&gt;1990976968304 -->
<g id="edge36" class="edge">
<title>1990976969600&#45;&gt;1990976968304</title>
<path fill="none" stroke="black" d="M1664,-155.4C1671.63,-153.42 1680.3,-151.17 1689.03,-148.91"/>
<polygon fill="black" stroke="black" points="1689.78,-152.34 1698.58,-146.44 1688.02,-145.56 1689.78,-152.34"/>
</g>
<!-- 1990977082992&#45;&gt;1990977083568 -->
<g id="edge34" class="edge">
<title>1990977082992&#45;&gt;1990977083568</title>
<path fill="none" stroke="black" d="M978.67,-295.79C985.95,-295.46 994.16,-295.08 1002.5,-294.7"/>
<polygon fill="black" stroke="black" points="1002.55,-298.2 1012.38,-294.25 1002.23,-291.21 1002.55,-298.2"/>
</g>
<!-- 1990976968976&#45;&gt;1990976974064 -->
<g id="edge41" class="edge">
<title>1990976968976&#45;&gt;1990976974064</title>
<path fill="none" stroke="black" d="M1877.4,-162C1884.89,-162 1893.18,-162 1901.2,-162"/>
<polygon fill="black" stroke="black" points="1901.1,-165.5 1911.1,-162 1901.1,-158.5 1901.1,-165.5"/>
</g>
<!-- 1990976891664&#45;&gt;1990976968160 -->
<g id="edge40" class="edge">
<title>1990976891664&#45;&gt;1990976968160</title>
<path fill="none" stroke="black" d="M1192.8,-264.67C1212.2,-244.17 1242.99,-211.66 1264.7,-188.72"/>
<polygon fill="black" stroke="black" points="1267.17,-191.21 1271.5,-181.54 1262.08,-186.4 1267.17,-191.21"/>
</g>
</g>
</svg>
