<?xml version="1.0" encoding="UTF-8" standalone="no"?>
<!DOCTYPE svg PUBLIC "-//W3C//DTD SVG 1.1//EN"
 "http://www.w3.org/Graphics/SVG/1.1/DTD/svg11.dtd">
<!-- Generated by graphviz version 11.0.0 (20240428.1522)
 -->
<!-- Title: imdf_net_1754051209.2418716 Pages: 1 -->
<svg width="3672pt" height="278pt"
 viewBox="0.00 0.00 3671.75 278.00" xmlns="http://www.w3.org/2000/svg" xmlns:xlink="http://www.w3.org/1999/xlink">
<g id="graph0" class="graph" transform="scale(1 1) rotate(0) translate(4 274)">
<title>imdf_net_1754051209.2418716</title>
<polygon fill="white" stroke="none" points="-4,4 -4,-274 3667.75,-274 3667.75,4 -4,4"/>
<!-- 1990971047712 -->
<g id="node1" class="node">
<title>1990971047712</title>
<polygon fill="black" stroke="black" points="144,-153 90,-153 90,-117 144,-117 144,-153"/>
</g>
<!-- 1990976660512 -->
<g id="node29" class="node">
<title>1990976660512</title>
<ellipse fill="white" stroke="black" cx="207" cy="-171" rx="27" ry="27"/>
</g>
<!-- 1990971047712&#45;&gt;1990976660512 -->
<g id="edge3" class="edge">
<title>1990971047712&#45;&gt;1990976660512</title>
<path fill="none" stroke="black" d="M144.4,-145.8C152.75,-149.22 162.12,-153.05 170.97,-156.67"/>
<polygon fill="black" stroke="black" points="169.44,-159.83 180.02,-160.37 172.09,-153.35 169.44,-159.83"/>
</g>
<!-- 1990971343120 -->
<g id="node30" class="node">
<title>1990971343120</title>
<ellipse fill="white" stroke="black" cx="207" cy="-243" rx="27" ry="27"/>
</g>
<!-- 1990971047712&#45;&gt;1990971343120 -->
<g id="edge2" class="edge">
<title>1990971047712&#45;&gt;1990971343120</title>
<path fill="none" stroke="black" d="M132.93,-153.32C146.39,-169.84 166.42,-194.43 182.11,-213.68"/>
<polygon fill="black" stroke="black" points="179.21,-215.66 188.24,-221.2 184.63,-211.24 179.21,-215.66"/>
</g>
<!-- 1990971866960 -->
<g id="node31" class="node">
<title>1990971866960</title>
<ellipse fill="white" stroke="black" cx="207" cy="-99" rx="27" ry="27"/>
</g>
<!-- 1990971047712&#45;&gt;1990971866960 -->
<g id="edge5" class="edge">
<title>1990971047712&#45;&gt;1990971866960</title>
<path fill="none" stroke="black" d="M144.4,-124.2C152.75,-120.78 162.12,-116.95 170.97,-113.33"/>
<polygon fill="black" stroke="black" points="172.09,-116.65 180.02,-109.63 169.44,-110.17 172.09,-116.65"/>
</g>
<!-- 1990971866000 -->
<g id="node32" class="node">
<title>1990971866000</title>
<ellipse fill="white" stroke="black" cx="207" cy="-27" rx="27" ry="27"/>
</g>
<!-- 1990971047712&#45;&gt;1990971866000 -->
<g id="edge4" class="edge">
<title>1990971047712&#45;&gt;1990971866000</title>
<path fill="none" stroke="black" d="M132.93,-116.68C146.39,-100.16 166.42,-75.57 182.11,-56.32"/>
<polygon fill="black" stroke="black" points="184.63,-58.76 188.24,-48.8 179.21,-54.34 184.63,-58.76"/>
</g>
<!-- 1990976653312 -->
<g id="node2" class="node">
<title>1990976653312</title>
<polygon fill="white" stroke="black" points="359.12,-191 273.38,-191 273.38,-155 359.12,-155 359.12,-191"/>
<text text-anchor="middle" x="316.25" y="-167.97" font-family="Times New Roman,serif" font-size="12.00">Planting Cycle</text>
</g>
<!-- 1990976652784 -->
<g id="node36" class="node">
<title>1990976652784</title>
<ellipse fill="white" stroke="black" cx="1186.12" cy="-177" rx="27" ry="27"/>
</g>
<!-- 1990976653312&#45;&gt;1990976652784 -->
<g id="edge10" class="edge">
<title>1990976653312&#45;&gt;1990976652784</title>
<path fill="none" stroke="black" d="M359.38,-174.25C402.44,-175.43 471.25,-177 530.75,-177 530.75,-177 530.75,-177 964.5,-177 1028.71,-177 1103.43,-177 1147.36,-177"/>
<polygon fill="black" stroke="black" points="1147.12,-180.5 1157.12,-177 1147.12,-173.5 1147.12,-180.5"/>
</g>
<!-- 1990971861008 -->
<g id="node3" class="node">
<title>1990971861008</title>
<polygon fill="white" stroke="black" points="351.62,-45 280.88,-45 280.88,-9 351.62,-9 351.62,-45"/>
<text text-anchor="middle" x="316.25" y="-21.98" font-family="Times New Roman,serif" font-size="12.00">Site Survey</text>
</g>
<!-- 1990971630624 -->
<g id="node33" class="node">
<title>1990971630624</title>
<ellipse fill="white" stroke="black" cx="425.5" cy="-27" rx="27" ry="27"/>
</g>
<!-- 1990971861008&#45;&gt;1990971630624 -->
<g id="edge11" class="edge">
<title>1990971861008&#45;&gt;1990971630624</title>
<path fill="none" stroke="black" d="M352.07,-27C363.15,-27 375.45,-27 386.72,-27"/>
<polygon fill="black" stroke="black" points="386.49,-30.5 396.49,-27 386.49,-23.5 386.49,-30.5"/>
</g>
<!-- 1990971344992 -->
<g id="node4" class="node">
<title>1990971344992</title>
<polygon fill="white" stroke="black" points="362.5,-259 270,-259 270,-223 362.5,-223 362.5,-259"/>
<text text-anchor="middle" x="316.25" y="-235.97" font-family="Times New Roman,serif" font-size="12.00">Data Integration</text>
</g>
<!-- 1990971344848 -->
<g id="node35" class="node">
<title>1990971344848</title>
<ellipse fill="white" stroke="black" cx="425.5" cy="-240" rx="27" ry="27"/>
</g>
<!-- 1990971344992&#45;&gt;1990971344848 -->
<g id="edge12" class="edge">
<title>1990971344992&#45;&gt;1990971344848</title>
<path fill="none" stroke="black" d="M362.73,-240.58C370.77,-240.5 379.06,-240.42 386.85,-240.35"/>
<polygon fill="black" stroke="black" points="386.72,-243.85 396.69,-240.26 386.65,-236.85 386.72,-243.85"/>
</g>
<!-- 1990971852656 -->
<g id="node5" class="node">
<title>1990971852656</title>
<polygon fill="white" stroke="black" points="362.12,-117 270.38,-117 270.38,-81 362.12,-81 362.12,-117"/>
<text text-anchor="middle" x="316.25" y="-93.97" font-family="Times New Roman,serif" font-size="12.00">Structural Audit</text>
</g>
<!-- 1990971633072 -->
<g id="node34" class="node">
<title>1990971633072</title>
<ellipse fill="white" stroke="black" cx="425.5" cy="-99" rx="27" ry="27"/>
</g>
<!-- 1990971852656&#45;&gt;1990971633072 -->
<g id="edge13" class="edge">
<title>1990971852656&#45;&gt;1990971633072</title>
<path fill="none" stroke="black" d="M362.42,-99C370.48,-99 378.8,-99 386.63,-99"/>
<polygon fill="black" stroke="black" points="386.52,-102.5 396.52,-99 386.52,-95.5 386.52,-102.5"/>
</g>
<!-- 1990971854912 -->
<g id="node6" class="node">
<title>1990971854912</title>
<polygon fill="white" stroke="black" points="575,-66 488.5,-66 488.5,-30 575,-30 575,-66"/>
<text text-anchor="middle" x="531.75" y="-42.98" font-family="Times New Roman,serif" font-size="12.00">Design Layout</text>
</g>
<!-- 1990971860576 -->
<g id="node37" class="node">
<title>1990971860576</title>
<ellipse fill="white" stroke="black" cx="638" cy="-48" rx="27" ry="27"/>
</g>
<!-- 1990971854912&#45;&gt;1990971860576 -->
<g id="edge18" class="edge">
<title>1990971854912&#45;&gt;1990971860576</title>
<path fill="none" stroke="black" d="M575.45,-48C583.37,-48 591.59,-48 599.34,-48"/>
<polygon fill="black" stroke="black" points="599.14,-51.5 609.14,-48 599.14,-44.5 599.14,-51.5"/>
</g>
<!-- 1990971864944 -->
<g id="node7" class="node">
<title>1990971864944</title>
<polygon fill="black" stroke="black" points="3552.5,-203 3498.5,-203 3498.5,-167 3552.5,-167 3552.5,-203"/>
</g>
<!-- 1990971035136 -->
<g id="node39" class="node">
<title>1990971035136</title>
<ellipse fill="white" stroke="black" cx="3632.75" cy="-185" rx="27" ry="27"/>
<ellipse fill="none" stroke="black" cx="3632.75" cy="-185" rx="31" ry="31"/>
<text text-anchor="start" x="3616.25" y="-169.6" font-family="Times New Roman,serif" font-size="32.00">■</text>
</g>
<!-- 1990971864944&#45;&gt;1990971035136 -->
<g id="edge20" class="edge">
<title>1990971864944&#45;&gt;1990971035136</title>
<path fill="none" stroke="black" d="M3552.79,-185C3564.07,-185 3577.53,-185 3590.11,-185"/>
<polygon fill="black" stroke="black" points="3589.81,-188.5 3599.81,-185 3589.81,-181.5 3589.81,-188.5"/>
</g>
<!-- 1990971345328 -->
<g id="node8" class="node">
<title>1990971345328</title>
<polygon fill="white" stroke="black" points="570.5,-258 493,-258 493,-222 570.5,-222 570.5,-258"/>
<text text-anchor="middle" x="531.75" y="-234.97" font-family="Times New Roman,serif" font-size="12.00">Nutrient Mix</text>
</g>
<!-- 1990971348928 -->
<g id="node38" class="node">
<title>1990971348928</title>
<ellipse fill="white" stroke="black" cx="638" cy="-240" rx="27" ry="27"/>
</g>
<!-- 1990971345328&#45;&gt;1990971348928 -->
<g id="edge19" class="edge">
<title>1990971345328&#45;&gt;1990971348928</title>
<path fill="none" stroke="black" d="M570.98,-240C580.21,-240 590.07,-240 599.28,-240"/>
<polygon fill="black" stroke="black" points="598.99,-243.5 608.99,-240 598.99,-236.5 598.99,-243.5"/>
</g>
<!-- 1990971916368 -->
<g id="node9" class="node">
<title>1990971916368</title>
<polygon fill="white" stroke="black" points="783.75,-66 701,-66 701,-30 783.75,-30 783.75,-66"/>
<text text-anchor="middle" x="742.38" y="-42.98" font-family="Times New Roman,serif" font-size="12.00">Install HVAC</text>
</g>
<!-- 1990971925296 -->
<g id="node41" class="node">
<title>1990971925296</title>
<ellipse fill="white" stroke="black" cx="846.75" cy="-48" rx="27" ry="27"/>
</g>
<!-- 1990971916368&#45;&gt;1990971925296 -->
<g id="edge23" class="edge">
<title>1990971916368&#45;&gt;1990971925296</title>
<path fill="none" stroke="black" d="M784.13,-48C791.98,-48 800.17,-48 807.92,-48"/>
<polygon fill="black" stroke="black" points="807.74,-51.5 817.74,-48 807.74,-44.5 807.74,-51.5"/>
</g>
<!-- 1990971353056 -->
<g id="node10" class="node">
<title>1990971353056</title>
<polygon fill="white" stroke="black" points="779.62,-258 705.12,-258 705.12,-222 779.62,-222 779.62,-258"/>
<text text-anchor="middle" x="742.38" y="-234.97" font-family="Times New Roman,serif" font-size="12.00">Pest Control</text>
</g>
<!-- 1990971352240 -->
<g id="node40" class="node">
<title>1990971352240</title>
<ellipse fill="white" stroke="black" cx="846.75" cy="-240" rx="27" ry="27"/>
</g>
<!-- 1990971353056&#45;&gt;1990971352240 -->
<g id="edge24" class="edge">
<title>1990971353056&#45;&gt;1990971352240</title>
<path fill="none" stroke="black" d="M780.05,-240C789.06,-240 798.73,-240 807.81,-240"/>
<polygon fill="black" stroke="black" points="807.77,-243.5 817.77,-240 807.77,-236.5 807.77,-243.5"/>
</g>
<!-- 1990971929232 -->
<g id="node11" class="node">
<title>1990971929232</title>
<polygon fill="white" stroke="black" points="1017.25,-66 909.75,-66 909.75,-30 1017.25,-30 1017.25,-66"/>
<text text-anchor="middle" x="963.5" y="-42.98" font-family="Times New Roman,serif" font-size="12.00">Setup Hydroponics</text>
</g>
<!-- 1990971517616 -->
<g id="node42" class="node">
<title>1990971517616</title>
<ellipse fill="white" stroke="black" cx="1080.25" cy="-48" rx="27" ry="27"/>
</g>
<!-- 1990971929232&#45;&gt;1990971517616 -->
<g id="edge27" class="edge">
<title>1990971929232&#45;&gt;1990971517616</title>
<path fill="none" stroke="black" d="M1017.51,-48C1025.7,-48 1034.01,-48 1041.76,-48"/>
<polygon fill="black" stroke="black" points="1041.51,-51.5 1051.51,-48 1041.51,-44.5 1041.51,-51.5"/>
</g>
<!-- 1990971347680 -->
<g id="node12" class="node">
<title>1990971347680</title>
<polygon fill="white" stroke="black" points="1003.75,-258 923.25,-258 923.25,-222 1003.75,-222 1003.75,-258"/>
<text text-anchor="middle" x="963.5" y="-234.97" font-family="Times New Roman,serif" font-size="12.00">Energy Audit</text>
</g>
<!-- 1990976663488 -->
<g id="node43" class="node">
<title>1990976663488</title>
<ellipse fill="white" stroke="black" cx="1292" cy="-240" rx="27" ry="27"/>
</g>
<!-- 1990971347680&#45;&gt;1990976663488 -->
<g id="edge28" class="edge">
<title>1990971347680&#45;&gt;1990976663488</title>
<path fill="none" stroke="black" d="M1004.21,-240C1067.75,-240 1191.43,-240 1253.53,-240"/>
<polygon fill="black" stroke="black" points="1253.22,-243.5 1263.22,-240 1253.22,-236.5 1253.22,-243.5"/>
</g>
<!-- 1990971509216 -->
<g id="node13" class="node">
<title>1990971509216</title>
<polygon fill="white" stroke="black" points="1229,-66 1143.25,-66 1143.25,-30 1229,-30 1229,-66"/>
<text text-anchor="middle" x="1186.12" y="-42.98" font-family="Times New Roman,serif" font-size="12.00">Seed Selection</text>
</g>
<!-- 1990971519344 -->
<g id="node44" class="node">
<title>1990971519344</title>
<ellipse fill="white" stroke="black" cx="1292" cy="-48" rx="27" ry="27"/>
</g>
<!-- 1990971509216&#45;&gt;1990971519344 -->
<g id="edge31" class="edge">
<title>1990971509216&#45;&gt;1990971519344</title>
<path fill="none" stroke="black" d="M1229.37,-48C1237.28,-48 1245.5,-48 1253.26,-48"/>
<polygon fill="black" stroke="black" points="1253.07,-51.5 1263.07,-48 1253.07,-44.5 1253.07,-51.5"/>
</g>
<!-- 1990971508112 -->
<g id="node14" class="node">
<title>1990971508112</title>
<polygon fill="white" stroke="black" points="1434.75,-66 1355,-66 1355,-30 1434.75,-30 1434.75,-66"/>
<text text-anchor="middle" x="1394.88" y="-42.98" font-family="Times New Roman,serif" font-size="12.00">Sensor Install</text>
</g>
<!-- 1990977211472 -->
<g id="node45" class="node">
<title>1990977211472</title>
<ellipse fill="white" stroke="black" cx="1497.75" cy="-48" rx="27" ry="27"/>
</g>
<!-- 1990971508112&#45;&gt;1990977211472 -->
<g id="edge33" class="edge">
<title>1990971508112&#45;&gt;1990977211472</title>
<path fill="none" stroke="black" d="M1435.16,-48C1443.03,-48 1451.27,-48 1459.07,-48"/>
<polygon fill="black" stroke="black" points="1458.97,-51.5 1468.97,-48 1458.97,-44.5 1458.97,-51.5"/>
</g>
<!-- 1990977211808 -->
<g id="node15" class="node">
<title>1990977211808</title>
<polygon fill="white" stroke="black" points="1653.25,-66 1560.75,-66 1560.75,-30 1653.25,-30 1653.25,-66"/>
<text text-anchor="middle" x="1607" y="-42.98" font-family="Times New Roman,serif" font-size="12.00">Data Integration</text>
</g>
<!-- 1990977214544 -->
<g id="node46" class="node">
<title>1990977214544</title>
<ellipse fill="white" stroke="black" cx="1716.25" cy="-48" rx="27" ry="27"/>
</g>
<!-- 1990977211808&#45;&gt;1990977214544 -->
<g id="edge35" class="edge">
<title>1990977211808&#45;&gt;1990977214544</title>
<path fill="none" stroke="black" d="M1653.48,-48C1661.52,-48 1669.81,-48 1677.6,-48"/>
<polygon fill="black" stroke="black" points="1677.44,-51.5 1687.44,-48 1677.44,-44.5 1677.44,-51.5"/>
</g>
<!-- 1990977211232 -->
<g id="node16" class="node">
<title>1990977211232</title>
<polygon fill="white" stroke="black" points="1881.5,-66 1779.25,-66 1779.25,-30 1881.5,-30 1881.5,-66"/>
<text text-anchor="middle" x="1830.38" y="-42.98" font-family="Times New Roman,serif" font-size="12.00">Automation Setup</text>
</g>
<!-- 1990975763424 -->
<g id="node47" class="node">
<title>1990975763424</title>
<ellipse fill="white" stroke="black" cx="1944.5" cy="-48" rx="27" ry="27"/>
</g>
<!-- 1990977211232&#45;&gt;1990975763424 -->
<g id="edge37" class="edge">
<title>1990977211232&#45;&gt;1990975763424</title>
<path fill="none" stroke="black" d="M1881.86,-48C1889.97,-48 1898.23,-48 1905.96,-48"/>
<polygon fill="black" stroke="black" points="1905.69,-51.5 1915.69,-48 1905.69,-44.5 1905.69,-51.5"/>
</g>
<!-- 1990975753728 -->
<g id="node17" class="node">
<title>1990975753728</title>
<polygon fill="white" stroke="black" points="2085,-66 2007.5,-66 2007.5,-30 2085,-30 2085,-66"/>
<text text-anchor="middle" x="2046.25" y="-42.98" font-family="Times New Roman,serif" font-size="12.00">Nutrient Mix</text>
</g>
<!-- 1990975760304 -->
<g id="node48" class="node">
<title>1990975760304</title>
<ellipse fill="white" stroke="black" cx="2148" cy="-48" rx="27" ry="27"/>
</g>
<!-- 1990975753728&#45;&gt;1990975760304 -->
<g id="edge39" class="edge">
<title>1990975753728&#45;&gt;1990975760304</title>
<path fill="none" stroke="black" d="M2085.25,-48C2093.07,-48 2101.31,-48 2109.13,-48"/>
<polygon fill="black" stroke="black" points="2109.05,-51.5 2119.05,-48 2109.05,-44.5 2109.05,-51.5"/>
</g>
<!-- 1990975753536 -->
<g id="node18" class="node">
<title>1990975753536</title>
<polygon fill="white" stroke="black" points="2285.5,-66 2211,-66 2211,-30 2285.5,-30 2285.5,-66"/>
<text text-anchor="middle" x="2248.25" y="-42.98" font-family="Times New Roman,serif" font-size="12.00">Pest Control</text>
</g>
<!-- 1990975752240 -->
<g id="node49" class="node">
<title>1990975752240</title>
<ellipse fill="white" stroke="black" cx="2348.5" cy="-48" rx="27" ry="27"/>
</g>
<!-- 1990975753536&#45;&gt;1990975752240 -->
<g id="edge41" class="edge">
<title>1990975753536&#45;&gt;1990975752240</title>
<path fill="none" stroke="black" d="M2285.83,-48C2293.59,-48 2301.79,-48 2309.59,-48"/>
<polygon fill="black" stroke="black" points="2309.5,-51.5 2319.5,-48 2309.5,-44.5 2309.5,-51.5"/>
</g>
<!-- 1990975752720 -->
<g id="node19" class="node">
<title>1990975752720</title>
<polygon fill="white" stroke="black" points="2492,-66 2411.5,-66 2411.5,-30 2492,-30 2492,-66"/>
<text text-anchor="middle" x="2451.75" y="-42.98" font-family="Times New Roman,serif" font-size="12.00">Energy Audit</text>
</g>
<!-- 1990971359008 -->
<g id="node50" class="node">
<title>1990971359008</title>
<ellipse fill="white" stroke="black" cx="2555" cy="-48" rx="27" ry="27"/>
</g>
<!-- 1990975752720&#45;&gt;1990971359008 -->
<g id="edge43" class="edge">
<title>1990975752720&#45;&gt;1990971359008</title>
<path fill="none" stroke="black" d="M2492.48,-48C2500.35,-48 2508.59,-48 2516.39,-48"/>
<polygon fill="black" stroke="black" points="2516.27,-51.5 2526.27,-48 2516.27,-44.5 2516.27,-51.5"/>
</g>
<!-- 1990971358240 -->
<g id="node20" class="node">
<title>1990971358240</title>
<polygon fill="white" stroke="black" points="2703.75,-72 2618,-72 2618,-36 2703.75,-36 2703.75,-72"/>
<text text-anchor="middle" x="2660.88" y="-48.98" font-family="Times New Roman,serif" font-size="12.00">Planting Cycle</text>
</g>
<!-- 1990975902720 -->
<g id="node51" class="node">
<title>1990975902720</title>
<ellipse fill="white" stroke="black" cx="2766.75" cy="-58" rx="27" ry="27"/>
</g>
<!-- 1990971358240&#45;&gt;1990975902720 -->
<g id="edge45" class="edge">
<title>1990971358240&#45;&gt;1990975902720</title>
<path fill="none" stroke="black" d="M2704.12,-55.63C2712.03,-55.93 2720.25,-56.25 2728.01,-56.55"/>
<polygon fill="black" stroke="black" points="2727.7,-60.04 2737.82,-56.92 2727.97,-53.04 2727.7,-60.04"/>
</g>
<!-- 1990971766784 -->
<g id="node21" class="node">
<title>1990971766784</title>
<polygon fill="white" stroke="black" points="2936.5,-139 2829.75,-139 2829.75,-103 2936.5,-103 2936.5,-139"/>
<text text-anchor="middle" x="2883.12" y="-115.97" font-family="Times New Roman,serif" font-size="12.00">Compliance Check</text>
</g>
<!-- 1990971761072 -->
<g id="node53" class="node">
<title>1990971761072</title>
<ellipse fill="white" stroke="black" cx="2999.5" cy="-130" rx="27" ry="27"/>
</g>
<!-- 1990971766784&#45;&gt;1990971761072 -->
<g id="edge48" class="edge">
<title>1990971766784&#45;&gt;1990971761072</title>
<path fill="none" stroke="black" d="M2936.96,-125.16C2945.12,-125.8 2953.4,-126.45 2961.13,-127.06"/>
<polygon fill="black" stroke="black" points="2960.6,-130.53 2970.85,-127.82 2961.15,-123.55 2960.6,-130.53"/>
</g>
<!-- 1990976303520 -->
<g id="node22" class="node">
<title>1990976303520</title>
<polygon fill="white" stroke="black" points="2929.38,-76 2836.88,-76 2836.88,-40 2929.38,-40 2929.38,-76"/>
<text text-anchor="middle" x="2883.12" y="-52.98" font-family="Times New Roman,serif" font-size="12.00">Data Integration</text>
</g>
<!-- 1990976306592 -->
<g id="node52" class="node">
<title>1990976306592</title>
<ellipse fill="white" stroke="black" cx="2999.5" cy="-58" rx="27" ry="27"/>
</g>
<!-- 1990976303520&#45;&gt;1990976306592 -->
<g id="edge49" class="edge">
<title>1990976303520&#45;&gt;1990976306592</title>
<path fill="none" stroke="black" d="M2929.66,-58C2940.05,-58 2950.97,-58 2960.98,-58"/>
<polygon fill="black" stroke="black" points="2960.71,-61.5 2970.71,-58 2960.71,-54.5 2960.71,-61.5"/>
</g>
<!-- 1990971765152 -->
<g id="node23" class="node">
<title>1990971765152</title>
<polygon fill="white" stroke="black" points="3144.5,-148 3062.5,-148 3062.5,-112 3144.5,-112 3144.5,-148"/>
<text text-anchor="middle" x="3103.5" y="-124.97" font-family="Times New Roman,serif" font-size="12.00">Staff Training</text>
</g>
<!-- 1990971753008 -->
<g id="node54" class="node">
<title>1990971753008</title>
<ellipse fill="white" stroke="black" cx="3207.5" cy="-130" rx="27" ry="27"/>
</g>
<!-- 1990971765152&#45;&gt;1990971753008 -->
<g id="edge52" class="edge">
<title>1990971765152&#45;&gt;1990971753008</title>
<path fill="none" stroke="black" d="M3144.81,-130C3152.73,-130 3161,-130 3168.82,-130"/>
<polygon fill="black" stroke="black" points="3168.73,-133.5 3178.73,-130 3168.73,-126.5 3168.73,-133.5"/>
</g>
<!-- 1990976304624 -->
<g id="node24" class="node">
<title>1990976304624</title>
<polygon fill="white" stroke="black" points="3142.25,-76 3064.75,-76 3064.75,-40 3142.25,-40 3142.25,-76"/>
<text text-anchor="middle" x="3103.5" y="-52.98" font-family="Times New Roman,serif" font-size="12.00">Nutrient Mix</text>
</g>
<!-- 1990976304960 -->
<g id="node55" class="node">
<title>1990976304960</title>
<ellipse fill="white" stroke="black" cx="3207.5" cy="-58" rx="27" ry="27"/>
</g>
<!-- 1990976304624&#45;&gt;1990976304960 -->
<g id="edge53" class="edge">
<title>1990976304624&#45;&gt;1990976304960</title>
<path fill="none" stroke="black" d="M3142.48,-58C3151.13,-58 3160.31,-58 3168.93,-58"/>
<polygon fill="black" stroke="black" points="3168.74,-61.5 3178.74,-58 3168.74,-54.5 3168.74,-61.5"/>
</g>
<!-- 1990976301120 -->
<g id="node25" class="node">
<title>1990976301120</title>
<polygon fill="white" stroke="black" points="3352.12,-76 3277.62,-76 3277.62,-40 3352.12,-40 3352.12,-76"/>
<text text-anchor="middle" x="3314.88" y="-52.98" font-family="Times New Roman,serif" font-size="12.00">Pest Control</text>
</g>
<!-- 1990971757136 -->
<g id="node56" class="node">
<title>1990971757136</title>
<ellipse fill="white" stroke="black" cx="3422.25" cy="-58" rx="27" ry="27"/>
</g>
<!-- 1990976301120&#45;&gt;1990971757136 -->
<g id="edge57" class="edge">
<title>1990976301120&#45;&gt;1990971757136</title>
<path fill="none" stroke="black" d="M3352.43,-58C3362.52,-58 3373.47,-58 3383.62,-58"/>
<polygon fill="black" stroke="black" points="3383.53,-61.5 3393.53,-58 3383.53,-54.5 3383.53,-61.5"/>
</g>
<!-- 1990971766688 -->
<g id="node26" class="node">
<title>1990971766688</title>
<polygon fill="white" stroke="black" points="3359.25,-148 3270.5,-148 3270.5,-112 3359.25,-112 3359.25,-148"/>
<text text-anchor="middle" x="3314.88" y="-124.97" font-family="Times New Roman,serif" font-size="12.00">Market Launch</text>
</g>
<!-- 1990971754112 -->
<g id="node57" class="node">
<title>1990971754112</title>
<ellipse fill="white" stroke="black" cx="3422.25" cy="-130" rx="27" ry="27"/>
</g>
<!-- 1990971766688&#45;&gt;1990971754112 -->
<g id="edge56" class="edge">
<title>1990971766688&#45;&gt;1990971754112</title>
<path fill="none" stroke="black" d="M3359.65,-130C3367.61,-130 3375.85,-130 3383.61,-130"/>
<polygon fill="black" stroke="black" points="3383.42,-133.5 3393.42,-130 3383.42,-126.5 3383.42,-133.5"/>
</g>
<!-- 1990971757424 -->
<g id="node27" class="node">
<title>1990971757424</title>
<polygon fill="white" stroke="black" points="3565.75,-49 3485.25,-49 3485.25,-13 3565.75,-13 3565.75,-49"/>
<text text-anchor="middle" x="3525.5" y="-25.98" font-family="Times New Roman,serif" font-size="12.00">Energy Audit</text>
</g>
<!-- 1990971757424&#45;&gt;1990971359008 -->
<g id="edge60" class="edge">
<title>1990971757424&#45;&gt;1990971359008</title>
<path fill="none" stroke="black" d="M3485.1,-22.52C3443.31,-14.28 3375.26,-3 3315.88,-3 2765.75,-3 2765.75,-3 2765.75,-3 2699.22,-3 2682.56,-10.94 2618,-27 2609.33,-29.16 2600.15,-31.97 2591.58,-34.83"/>
<polygon fill="black" stroke="black" points="2590.5,-31.5 2582.19,-38.07 2592.78,-38.11 2590.5,-31.5"/>
</g>
<!-- 1990971047136 -->
<g id="node28" class="node">
<title>1990971047136</title>
<ellipse fill="white" stroke="black" cx="27" cy="-135" rx="27" ry="27"/>
<text text-anchor="start" x="9.75" y="-117.7" font-family="Times New Roman,serif" font-size="34.00">●</text>
</g>
<!-- 1990971047136&#45;&gt;1990971047712 -->
<g id="edge1" class="edge">
<title>1990971047136&#45;&gt;1990971047712</title>
<path fill="none" stroke="black" d="M54.4,-135C61.89,-135 70.18,-135 78.2,-135"/>
<polygon fill="black" stroke="black" points="78.1,-138.5 88.1,-135 78.1,-131.5 78.1,-138.5"/>
</g>
<!-- 1990976660512&#45;&gt;1990976653312 -->
<g id="edge7" class="edge">
<title>1990976660512&#45;&gt;1990976653312</title>
<path fill="none" stroke="black" d="M234.24,-171.49C242.52,-171.64 252.01,-171.82 261.49,-172"/>
<polygon fill="black" stroke="black" points="261.41,-175.5 271.48,-172.18 261.54,-168.5 261.41,-175.5"/>
</g>
<!-- 1990971343120&#45;&gt;1990971344992 -->
<g id="edge6" class="edge">
<title>1990971343120&#45;&gt;1990971344992</title>
<path fill="none" stroke="black" d="M234.24,-242.51C241.57,-242.37 249.84,-242.22 258.22,-242.06"/>
<polygon fill="black" stroke="black" points="258.19,-245.56 268.12,-241.88 258.06,-238.57 258.19,-245.56"/>
</g>
<!-- 1990971866960&#45;&gt;1990971852656 -->
<g id="edge9" class="edge">
<title>1990971866960&#45;&gt;1990971852656</title>
<path fill="none" stroke="black" d="M234.24,-99C241.74,-99 250.22,-99 258.8,-99"/>
<polygon fill="black" stroke="black" points="258.54,-102.5 268.54,-99 258.54,-95.5 258.54,-102.5"/>
</g>
<!-- 1990971866000&#45;&gt;1990971861008 -->
<g id="edge8" class="edge">
<title>1990971866000&#45;&gt;1990971861008</title>
<path fill="none" stroke="black" d="M234.24,-27C244.86,-27 257.44,-27 269.48,-27"/>
<polygon fill="black" stroke="black" points="269.26,-30.5 279.26,-27 269.26,-23.5 269.26,-30.5"/>
</g>
<!-- 1990971630624&#45;&gt;1990971854912 -->
<g id="edge14" class="edge">
<title>1990971630624&#45;&gt;1990971854912</title>
<path fill="none" stroke="black" d="M452.27,-32.19C459.82,-33.71 468.36,-35.43 476.97,-37.17"/>
<polygon fill="black" stroke="black" points="476.26,-40.59 486.76,-39.14 477.64,-33.73 476.26,-40.59"/>
</g>
<!-- 1990971633072&#45;&gt;1990971854912 -->
<g id="edge17" class="edge">
<title>1990971633072&#45;&gt;1990971854912</title>
<path fill="none" stroke="black" d="M450.16,-87.43C459.91,-82.66 471.57,-76.95 482.96,-71.38"/>
<polygon fill="black" stroke="black" points="484.48,-74.53 491.92,-66.99 481.4,-68.24 484.48,-74.53"/>
</g>
<!-- 1990971344848&#45;&gt;1990971345328 -->
<g id="edge15" class="edge">
<title>1990971344848&#45;&gt;1990971345328</title>
<path fill="none" stroke="black" d="M452.81,-240C461.48,-240 471.42,-240 481.25,-240"/>
<polygon fill="black" stroke="black" points="481.12,-243.5 491.12,-240 481.12,-236.5 481.12,-243.5"/>
</g>
<!-- 1990976652784&#45;&gt;1990971864944 -->
<g id="edge16" class="edge">
<title>1990976652784&#45;&gt;1990971864944</title>
<path fill="none" stroke="black" d="M1213.55,-178.68C1252.85,-181.02 1329.04,-185 1393.88,-185 1393.88,-185 1393.88,-185 3315.88,-185 3375.67,-185 3445.11,-185 3486.88,-185"/>
<polygon fill="black" stroke="black" points="3486.64,-188.5 3496.64,-185 3486.64,-181.5 3486.64,-188.5"/>
</g>
<!-- 1990971860576&#45;&gt;1990971916368 -->
<g id="edge21" class="edge">
<title>1990971860576&#45;&gt;1990971916368</title>
<path fill="none" stroke="black" d="M665.36,-48C672.78,-48 681.11,-48 689.46,-48"/>
<polygon fill="black" stroke="black" points="689.27,-51.5 699.27,-48 689.27,-44.5 689.27,-51.5"/>
</g>
<!-- 1990971348928&#45;&gt;1990971353056 -->
<g id="edge22" class="edge">
<title>1990971348928&#45;&gt;1990971353056</title>
<path fill="none" stroke="black" d="M665.36,-240C673.97,-240 683.8,-240 693.48,-240"/>
<polygon fill="black" stroke="black" points="693.17,-243.5 703.17,-240 693.17,-236.5 693.17,-243.5"/>
</g>
<!-- 1990971352240&#45;&gt;1990971347680 -->
<g id="edge26" class="edge">
<title>1990971352240&#45;&gt;1990971347680</title>
<path fill="none" stroke="black" d="M874.08,-240C885.23,-240 898.63,-240 911.58,-240"/>
<polygon fill="black" stroke="black" points="911.27,-243.5 921.27,-240 911.27,-236.5 911.27,-243.5"/>
</g>
<!-- 1990971925296&#45;&gt;1990971929232 -->
<g id="edge25" class="edge">
<title>1990971925296&#45;&gt;1990971929232</title>
<path fill="none" stroke="black" d="M874.08,-48C881.44,-48 889.77,-48 898.32,-48"/>
<polygon fill="black" stroke="black" points="898.08,-51.5 908.08,-48 898.08,-44.5 898.08,-51.5"/>
</g>
<!-- 1990971517616&#45;&gt;1990971509216 -->
<g id="edge30" class="edge">
<title>1990971517616&#45;&gt;1990971509216</title>
<path fill="none" stroke="black" d="M1107.73,-48C1115.09,-48 1123.35,-48 1131.66,-48"/>
<polygon fill="black" stroke="black" points="1131.44,-51.5 1141.44,-48 1131.44,-44.5 1131.44,-51.5"/>
</g>
<!-- 1990976663488&#45;&gt;1990971864944 -->
<g id="edge29" class="edge">
<title>1990976663488&#45;&gt;1990971864944</title>
<path fill="none" stroke="black" d="M1319.36,-238.09C1358.18,-235.45 1433.02,-231 1496.75,-231 1496.75,-231 1496.75,-231 3315.88,-231 3377.07,-231 3446.04,-211.89 3487.35,-198.31"/>
<polygon fill="black" stroke="black" points="3488.44,-201.63 3496.8,-195.13 3486.21,-195 3488.44,-201.63"/>
</g>
<!-- 1990971519344&#45;&gt;1990971508112 -->
<g id="edge32" class="edge">
<title>1990971519344&#45;&gt;1990971508112</title>
<path fill="none" stroke="black" d="M1319.24,-48C1326.71,-48 1335.1,-48 1343.49,-48"/>
<polygon fill="black" stroke="black" points="1343.33,-51.5 1353.33,-48 1343.33,-44.5 1343.33,-51.5"/>
</g>
<!-- 1990977211472&#45;&gt;1990977211808 -->
<g id="edge34" class="edge">
<title>1990977211472&#45;&gt;1990977211808</title>
<path fill="none" stroke="black" d="M1524.99,-48C1532.32,-48 1540.59,-48 1548.97,-48"/>
<polygon fill="black" stroke="black" points="1548.87,-51.5 1558.87,-48 1548.87,-44.5 1548.87,-51.5"/>
</g>
<!-- 1990977214544&#45;&gt;1990977211232 -->
<g id="edge36" class="edge">
<title>1990977214544&#45;&gt;1990977211232</title>
<path fill="none" stroke="black" d="M1743.54,-48C1750.92,-48 1759.27,-48 1767.79,-48"/>
<polygon fill="black" stroke="black" points="1767.52,-51.5 1777.52,-48 1767.52,-44.5 1767.52,-51.5"/>
</g>
<!-- 1990975763424&#45;&gt;1990975753728 -->
<g id="edge38" class="edge">
<title>1990975763424&#45;&gt;1990975753728</title>
<path fill="none" stroke="black" d="M1971.97,-48C1979.27,-48 1987.43,-48 1995.58,-48"/>
<polygon fill="black" stroke="black" points="1995.5,-51.5 2005.5,-48 1995.5,-44.5 1995.5,-51.5"/>
</g>
<!-- 1990975760304&#45;&gt;1990975753536 -->
<g id="edge40" class="edge">
<title>1990975760304&#45;&gt;1990975753536</title>
<path fill="none" stroke="black" d="M2175.33,-48C2182.67,-48 2190.88,-48 2199.06,-48"/>
<polygon fill="black" stroke="black" points="2198.99,-51.5 2208.99,-48 2198.99,-44.5 2198.99,-51.5"/>
</g>
<!-- 1990975752240&#45;&gt;1990975752720 -->
<g id="edge42" class="edge">
<title>1990975752240&#45;&gt;1990975752720</title>
<path fill="none" stroke="black" d="M2375.84,-48C2383.25,-48 2391.57,-48 2399.9,-48"/>
<polygon fill="black" stroke="black" points="2399.67,-51.5 2409.67,-48 2399.67,-44.5 2399.67,-51.5"/>
</g>
<!-- 1990971359008&#45;&gt;1990971358240 -->
<g id="edge44" class="edge">
<title>1990971359008&#45;&gt;1990971358240</title>
<path fill="none" stroke="black" d="M2582.21,-49.51C2589.57,-49.94 2597.84,-50.42 2606.18,-50.9"/>
<polygon fill="black" stroke="black" points="2605.81,-54.38 2615.99,-51.47 2606.21,-47.39 2605.81,-54.38"/>
</g>
<!-- 1990975902720&#45;&gt;1990971766784 -->
<g id="edge47" class="edge">
<title>1990975902720&#45;&gt;1990971766784</title>
<path fill="none" stroke="black" d="M2790.9,-70.75C2804.63,-78.31 2822.47,-88.14 2838.74,-97.1"/>
<polygon fill="black" stroke="black" points="2836.83,-100.05 2847.28,-101.81 2840.21,-93.92 2836.83,-100.05"/>
</g>
<!-- 1990975902720&#45;&gt;1990976303520 -->
<g id="edge46" class="edge">
<title>1990975902720&#45;&gt;1990976303520</title>
<path fill="none" stroke="black" d="M2793.99,-58C2803.39,-58 2814.38,-58 2825.36,-58"/>
<polygon fill="black" stroke="black" points="2825.2,-61.5 2835.2,-58 2825.2,-54.5 2825.2,-61.5"/>
</g>
<!-- 1990976306592&#45;&gt;1990976304624 -->
<g id="edge50" class="edge">
<title>1990976306592&#45;&gt;1990976304624</title>
<path fill="none" stroke="black" d="M3026.77,-58C3034.82,-58 3043.96,-58 3053.03,-58"/>
<polygon fill="black" stroke="black" points="3052.89,-61.5 3062.89,-58 3052.89,-54.5 3052.89,-61.5"/>
</g>
<!-- 1990971761072&#45;&gt;1990971765152 -->
<g id="edge51" class="edge">
<title>1990971761072&#45;&gt;1990971765152</title>
<path fill="none" stroke="black" d="M3026.77,-130C3034.15,-130 3042.45,-130 3050.78,-130"/>
<polygon fill="black" stroke="black" points="3050.55,-133.5 3060.55,-130 3050.55,-126.5 3050.55,-133.5"/>
</g>
<!-- 1990971753008&#45;&gt;1990971766688 -->
<g id="edge55" class="edge">
<title>1990971753008&#45;&gt;1990971766688</title>
<path fill="none" stroke="black" d="M3234.82,-130C3242.19,-130 3250.5,-130 3258.88,-130"/>
<polygon fill="black" stroke="black" points="3258.77,-133.5 3268.77,-130 3258.77,-126.5 3258.77,-133.5"/>
</g>
<!-- 1990976304960&#45;&gt;1990976301120 -->
<g id="edge54" class="edge">
<title>1990976304960&#45;&gt;1990976301120</title>
<path fill="none" stroke="black" d="M3234.82,-58C3244.22,-58 3255.13,-58 3265.79,-58"/>
<polygon fill="black" stroke="black" points="3265.66,-61.5 3275.66,-58 3265.66,-54.5 3265.66,-61.5"/>
</g>
<!-- 1990971757136&#45;&gt;1990971757424 -->
<g id="edge59" class="edge">
<title>1990971757136&#45;&gt;1990971757424</title>
<path fill="none" stroke="black" d="M3448.8,-51.19C3456.46,-49.14 3465.15,-46.83 3473.84,-44.51"/>
<polygon fill="black" stroke="black" points="3474.54,-47.94 3483.3,-41.99 3472.74,-41.18 3474.54,-47.94"/>
</g>
<!-- 1990971754112&#45;&gt;1990971864944 -->
<g id="edge58" class="edge">
<title>1990971754112&#45;&gt;1990971864944</title>
<path fill="none" stroke="black" d="M3446.48,-142.62C3458.88,-149.36 3474.42,-157.8 3488.37,-165.37"/>
<polygon fill="black" stroke="black" points="3486.38,-168.27 3496.84,-169.97 3489.72,-162.12 3486.38,-168.27"/>
</g>
</g>
</svg>
