<?xml version="1.0" encoding="UTF-8" standalone="no"?>
<!DOCTYPE svg PUBLIC "-//W3C//DTD SVG 1.1//EN"
 "http://www.w3.org/Graphics/SVG/1.1/DTD/svg11.dtd">
<!-- Generated by graphviz version 11.0.0 (20240428.1522)
 -->
<!-- Title: imdf_net_1754051216.8714802 Pages: 1 -->
<svg width="2903pt" height="206pt"
 viewBox="0.00 0.00 2902.50 206.00" xmlns="http://www.w3.org/2000/svg" xmlns:xlink="http://www.w3.org/1999/xlink">
<g id="graph0" class="graph" transform="scale(1 1) rotate(0) translate(4 202)">
<title>imdf_net_1754051216.8714802</title>
<polygon fill="white" stroke="none" points="-4,4 -4,-202 2898.5,-202 2898.5,4 -4,4"/>
<!-- 1990971929088 -->
<g id="node1" class="node">
<title>1990971929088</title>
<polygon fill="white" stroke="black" points="187,-144 90,-144 90,-108 187,-108 187,-144"/>
<text text-anchor="middle" x="138.5" y="-120.97" font-family="Times New Roman,serif" font-size="12.00">Portfolio Review</text>
</g>
<!-- 1990969787456 -->
<g id="node21" class="node">
<title>1990969787456</title>
<ellipse fill="white" stroke="black" cx="250" cy="-126" rx="27" ry="27"/>
</g>
<!-- 1990971929088&#45;&gt;1990969787456 -->
<g id="edge2" class="edge">
<title>1990971929088&#45;&gt;1990969787456</title>
<path fill="none" stroke="black" d="M187.21,-126C195.32,-126 203.65,-126 211.45,-126"/>
<polygon fill="black" stroke="black" points="211.29,-129.5 221.29,-126 211.29,-122.5 211.29,-129.5"/>
</g>
<!-- 1990969787648 -->
<g id="node2" class="node">
<title>1990969787648</title>
<polygon fill="white" stroke="black" points="389,-144 313,-144 313,-108 389,-108 389,-144"/>
<text text-anchor="middle" x="351" y="-120.97" font-family="Times New Roman,serif" font-size="12.00">Market Scan</text>
</g>
<!-- 1990969786688 -->
<g id="node22" class="node">
<title>1990969786688</title>
<ellipse fill="white" stroke="black" cx="452" cy="-126" rx="27" ry="27"/>
</g>
<!-- 1990969787648&#45;&gt;1990969786688 -->
<g id="edge4" class="edge">
<title>1990969787648&#45;&gt;1990969786688</title>
<path fill="none" stroke="black" d="M389.43,-126C397.21,-126 405.41,-126 413.21,-126"/>
<polygon fill="black" stroke="black" points="413.1,-129.5 423.1,-126 413.1,-122.5 413.1,-129.5"/>
</g>
<!-- 1990975904688 -->
<g id="node3" class="node">
<title>1990975904688</title>
<polygon fill="black" stroke="black" points="569,-117 515,-117 515,-81 569,-81 569,-117"/>
</g>
<!-- 1990977971376 -->
<g id="node23" class="node">
<title>1990977971376</title>
<ellipse fill="white" stroke="black" cx="632" cy="-99" rx="27" ry="27"/>
</g>
<!-- 1990975904688&#45;&gt;1990977971376 -->
<g id="edge6" class="edge">
<title>1990975904688&#45;&gt;1990977971376</title>
<path fill="none" stroke="black" d="M569.4,-99C576.89,-99 585.18,-99 593.2,-99"/>
<polygon fill="black" stroke="black" points="593.1,-102.5 603.1,-99 593.1,-95.5 593.1,-102.5"/>
</g>
<!-- 1990977968592 -->
<g id="node24" class="node">
<title>1990977968592</title>
<ellipse fill="white" stroke="black" cx="632" cy="-27" rx="27" ry="27"/>
</g>
<!-- 1990975904688&#45;&gt;1990977968592 -->
<g id="edge7" class="edge">
<title>1990975904688&#45;&gt;1990977968592</title>
<path fill="none" stroke="black" d="M565.21,-80.83C576.32,-71.74 589.92,-60.61 601.87,-50.84"/>
<polygon fill="black" stroke="black" points="603.92,-53.68 609.44,-44.64 599.48,-48.26 603.92,-53.68"/>
</g>
<!-- 1990977970464 -->
<g id="node4" class="node">
<title>1990977970464</title>
<polygon fill="white" stroke="black" points="801.75,-45 695,-45 695,-9 801.75,-9 801.75,-45"/>
<text text-anchor="middle" x="748.38" y="-21.98" font-family="Times New Roman,serif" font-size="12.00">Compliance Check</text>
</g>
<!-- 1990977969648 -->
<g id="node26" class="node">
<title>1990977969648</title>
<ellipse fill="white" stroke="black" cx="864.75" cy="-27" rx="27" ry="27"/>
</g>
<!-- 1990977970464&#45;&gt;1990977969648 -->
<g id="edge10" class="edge">
<title>1990977970464&#45;&gt;1990977969648</title>
<path fill="none" stroke="black" d="M802.21,-27C810.2,-27 818.3,-27 825.89,-27"/>
<polygon fill="black" stroke="black" points="825.79,-30.5 835.79,-27 825.79,-23.5 825.79,-30.5"/>
</g>
<!-- 1990977971952 -->
<g id="node5" class="node">
<title>1990977971952</title>
<polygon fill="white" stroke="black" points="784.88,-117 711.88,-117 711.88,-81 784.88,-81 784.88,-117"/>
<text text-anchor="middle" x="748.38" y="-93.97" font-family="Times New Roman,serif" font-size="12.00">Risk Assess</text>
</g>
<!-- 1990977971040 -->
<g id="node25" class="node">
<title>1990977971040</title>
<ellipse fill="white" stroke="black" cx="864.75" cy="-99" rx="27" ry="27"/>
</g>
<!-- 1990977971952&#45;&gt;1990977971040 -->
<g id="edge11" class="edge">
<title>1990977971952&#45;&gt;1990977971040</title>
<path fill="none" stroke="black" d="M785.25,-99C798.19,-99 812.83,-99 825.93,-99"/>
<polygon fill="black" stroke="black" points="825.93,-102.5 835.93,-99 825.93,-95.5 825.93,-102.5"/>
</g>
<!-- 1990977969696 -->
<g id="node6" class="node">
<title>1990977969696</title>
<polygon fill="black" stroke="black" points="981.75,-117 927.75,-117 927.75,-81 981.75,-81 981.75,-117"/>
</g>
<!-- 1990975903824 -->
<g id="node27" class="node">
<title>1990975903824</title>
<ellipse fill="white" stroke="black" cx="1044.75" cy="-99" rx="27" ry="27"/>
</g>
<!-- 1990977969696&#45;&gt;1990975903824 -->
<g id="edge14" class="edge">
<title>1990977969696&#45;&gt;1990975903824</title>
<path fill="none" stroke="black" d="M982.15,-99C989.64,-99 997.93,-99 1005.95,-99"/>
<polygon fill="black" stroke="black" points="1005.85,-102.5 1015.85,-99 1005.85,-95.5 1005.85,-102.5"/>
</g>
<!-- 1990977972240 -->
<g id="node7" class="node">
<title>1990977972240</title>
<polygon fill="white" stroke="black" points="1213,-171 1107.75,-171 1107.75,-135 1213,-135 1213,-171"/>
<text text-anchor="middle" x="1160.38" y="-147.97" font-family="Times New Roman,serif" font-size="12.00">Regulation Update</text>
</g>
<!-- 1990977972240&#45;&gt;1990969786688 -->
<g id="edge17" class="edge">
<title>1990977972240&#45;&gt;1990969786688</title>
<path fill="none" stroke="black" d="M1107.49,-153.4C1066.34,-153.67 1007.36,-154 955.75,-154 631,-154 631,-154 631,-154 581.46,-154 525.1,-143.29 489.31,-135.11"/>
<polygon fill="black" stroke="black" points="490.46,-131.79 479.92,-132.91 488.86,-138.6 490.46,-131.79"/>
</g>
<!-- 1990977972432 -->
<g id="node8" class="node">
<title>1990977972432</title>
<polygon fill="black" stroke="black" points="1187.38,-117 1133.38,-117 1133.38,-81 1187.38,-81 1187.38,-117"/>
</g>
<!-- 1990977975696 -->
<g id="node28" class="node">
<title>1990977975696</title>
<ellipse fill="white" stroke="black" cx="1276" cy="-171" rx="27" ry="27"/>
</g>
<!-- 1990977972432&#45;&gt;1990977975696 -->
<g id="edge19" class="edge">
<title>1990977972432&#45;&gt;1990977975696</title>
<path fill="none" stroke="black" d="M1187.79,-111.87C1196.01,-116.13 1205,-121.04 1213,-126 1223.71,-132.64 1234.98,-140.52 1244.93,-147.83"/>
<polygon fill="black" stroke="black" points="1242.69,-150.52 1252.8,-153.69 1246.87,-144.9 1242.69,-150.52"/>
</g>
<!-- 1990977977184 -->
<g id="node29" class="node">
<title>1990977977184</title>
<ellipse fill="white" stroke="black" cx="1276" cy="-99" rx="27" ry="27"/>
</g>
<!-- 1990977972432&#45;&gt;1990977977184 -->
<g id="edge20" class="edge">
<title>1990977972432&#45;&gt;1990977977184</title>
<path fill="none" stroke="black" d="M1187.73,-99C1202.5,-99 1221.17,-99 1237.45,-99"/>
<polygon fill="black" stroke="black" points="1237.28,-102.5 1247.28,-99 1237.28,-95.5 1237.28,-102.5"/>
</g>
<!-- 1990978044272 -->
<g id="node30" class="node">
<title>1990978044272</title>
<ellipse fill="white" stroke="black" cx="1276" cy="-27" rx="27" ry="27"/>
</g>
<!-- 1990977972432&#45;&gt;1990978044272 -->
<g id="edge18" class="edge">
<title>1990977972432&#45;&gt;1990978044272</title>
<path fill="none" stroke="black" d="M1187.73,-82.3C1204.32,-71.79 1225.84,-58.15 1243.36,-47.05"/>
<polygon fill="black" stroke="black" points="1244.77,-50.3 1251.34,-41.99 1241.02,-44.39 1244.77,-50.3"/>
</g>
<!-- 1990977977760 -->
<g id="node9" class="node">
<title>1990977977760</title>
<polygon fill="white" stroke="black" points="1437.5,-117 1352.5,-117 1352.5,-81 1437.5,-81 1437.5,-117"/>
<text text-anchor="middle" x="1395" y="-93.97" font-family="Times New Roman,serif" font-size="12.00">Local Counsel</text>
</g>
<!-- 1990977976848 -->
<g id="node31" class="node">
<title>1990977976848</title>
<ellipse fill="white" stroke="black" cx="1514" cy="-99" rx="27" ry="27"/>
</g>
<!-- 1990977977760&#45;&gt;1990977976848 -->
<g id="edge25" class="edge">
<title>1990977977760&#45;&gt;1990977976848</title>
<path fill="none" stroke="black" d="M1437.91,-99C1450.11,-99 1463.35,-99 1475.27,-99"/>
<polygon fill="black" stroke="black" points="1475.15,-102.5 1485.15,-99 1475.15,-95.5 1475.15,-102.5"/>
</g>
<!-- 1990978044848 -->
<g id="node10" class="node">
<title>1990978044848</title>
<polygon fill="white" stroke="black" points="1451,-45 1339,-45 1339,-9 1451,-9 1451,-45"/>
<text text-anchor="middle" x="1395" y="-21.98" font-family="Times New Roman,serif" font-size="12.00">Document Translate</text>
</g>
<!-- 1990977978336 -->
<g id="node33" class="node">
<title>1990977978336</title>
<ellipse fill="white" stroke="black" cx="1514" cy="-27" rx="27" ry="27"/>
</g>
<!-- 1990978044848&#45;&gt;1990977978336 -->
<g id="edge26" class="edge">
<title>1990978044848&#45;&gt;1990977978336</title>
<path fill="none" stroke="black" d="M1451.42,-27C1459.48,-27 1467.62,-27 1475.22,-27"/>
<polygon fill="black" stroke="black" points="1475.13,-30.5 1485.13,-27 1475.13,-23.5 1475.13,-30.5"/>
</g>
<!-- 1990977976272 -->
<g id="node11" class="node">
<title>1990977976272</title>
<polygon fill="white" stroke="black" points="1431.88,-189 1358.12,-189 1358.12,-153 1431.88,-153 1431.88,-189"/>
<text text-anchor="middle" x="1395" y="-165.97" font-family="Times New Roman,serif" font-size="12.00">Draft Terms</text>
</g>
<!-- 1990977975360 -->
<g id="node32" class="node">
<title>1990977975360</title>
<ellipse fill="white" stroke="black" cx="1514" cy="-171" rx="27" ry="27"/>
</g>
<!-- 1990977976272&#45;&gt;1990977975360 -->
<g id="edge24" class="edge">
<title>1990977976272&#45;&gt;1990977975360</title>
<path fill="none" stroke="black" d="M1432.06,-171C1445.8,-171 1461.49,-171 1475.38,-171"/>
<polygon fill="black" stroke="black" points="1475.02,-174.5 1485.02,-171 1475.02,-167.5 1475.02,-174.5"/>
</g>
<!-- 1990978045568 -->
<g id="node12" class="node">
<title>1990978045568</title>
<polygon fill="white" stroke="black" points="1685.25,-117 1577,-117 1577,-81 1685.25,-81 1685.25,-117"/>
<text text-anchor="middle" x="1631.12" y="-93.97" font-family="Times New Roman,serif" font-size="12.00">Agreement Review</text>
</g>
<!-- 1990978045808 -->
<g id="node34" class="node">
<title>1990978045808</title>
<ellipse fill="white" stroke="black" cx="1748.25" cy="-99" rx="27" ry="27"/>
</g>
<!-- 1990978045568&#45;&gt;1990978045808 -->
<g id="edge30" class="edge">
<title>1990978045568&#45;&gt;1990978045808</title>
<path fill="none" stroke="black" d="M1685.64,-99C1693.66,-99 1701.78,-99 1709.38,-99"/>
<polygon fill="black" stroke="black" points="1709.29,-102.5 1719.29,-99 1709.29,-95.5 1709.29,-102.5"/>
</g>
<!-- 1990978046384 -->
<g id="node13" class="node">
<title>1990978046384</title>
<polygon fill="white" stroke="black" points="1909.75,-117 1811.25,-117 1811.25,-81 1909.75,-81 1909.75,-117"/>
<text text-anchor="middle" x="1860.5" y="-93.97" font-family="Times New Roman,serif" font-size="12.00">Negotiation Meet</text>
</g>
<!-- 1990977925776 -->
<g id="node35" class="node">
<title>1990977925776</title>
<ellipse fill="white" stroke="black" cx="1972.75" cy="-171" rx="27" ry="27"/>
</g>
<!-- 1990978046384&#45;&gt;1990977925776 -->
<g id="edge32" class="edge">
<title>1990978046384&#45;&gt;1990977925776</title>
<path fill="none" stroke="black" d="M1889.61,-117.35C1905.03,-127.43 1924.21,-139.95 1940.16,-150.37"/>
<polygon fill="black" stroke="black" points="1938.05,-153.17 1948.34,-155.71 1941.88,-147.31 1938.05,-153.17"/>
</g>
<!-- 1990978046864 -->
<g id="node36" class="node">
<title>1990978046864</title>
<ellipse fill="white" stroke="black" cx="1972.75" cy="-99" rx="27" ry="27"/>
</g>
<!-- 1990978046384&#45;&gt;1990978046864 -->
<g id="edge33" class="edge">
<title>1990978046384&#45;&gt;1990978046864</title>
<path fill="none" stroke="black" d="M1910.18,-99C1918.13,-99 1926.26,-99 1933.9,-99"/>
<polygon fill="black" stroke="black" points="1933.89,-102.5 1943.89,-99 1933.89,-95.5 1933.89,-102.5"/>
</g>
<!-- 1990978048352 -->
<g id="node37" class="node">
<title>1990978048352</title>
<ellipse fill="white" stroke="black" cx="1972.75" cy="-27" rx="27" ry="27"/>
</g>
<!-- 1990978046384&#45;&gt;1990978048352 -->
<g id="edge34" class="edge">
<title>1990978046384&#45;&gt;1990978048352</title>
<path fill="none" stroke="black" d="M1889.61,-80.65C1905.03,-70.57 1924.21,-58.05 1940.16,-47.63"/>
<polygon fill="black" stroke="black" points="1941.88,-50.69 1948.34,-42.29 1938.05,-44.83 1941.88,-50.69"/>
</g>
<!-- 1990978048928 -->
<g id="node14" class="node">
<title>1990978048928</title>
<polygon fill="white" stroke="black" points="2123.75,-45 2035.75,-45 2035.75,-9 2123.75,-9 2123.75,-45"/>
<text text-anchor="middle" x="2079.75" y="-21.98" font-family="Times New Roman,serif" font-size="12.00">Payment Track</text>
</g>
<!-- 1990978048016 -->
<g id="node39" class="node">
<title>1990978048016</title>
<ellipse fill="white" stroke="black" cx="2186.75" cy="-27" rx="27" ry="27"/>
</g>
<!-- 1990978048928&#45;&gt;1990978048016 -->
<g id="edge40" class="edge">
<title>1990978048928&#45;&gt;1990978048016</title>
<path fill="none" stroke="black" d="M2124.06,-27C2132.02,-27 2140.26,-27 2148.03,-27"/>
<polygon fill="black" stroke="black" points="2147.85,-30.5 2157.85,-27 2147.85,-23.5 2147.85,-30.5"/>
</g>
<!-- 1990978047440 -->
<g id="node15" class="node">
<title>1990978047440</title>
<polygon fill="white" stroke="black" points="2113.25,-117 2046.25,-117 2046.25,-81 2113.25,-81 2113.25,-117"/>
<text text-anchor="middle" x="2079.75" y="-93.97" font-family="Times New Roman,serif" font-size="12.00">Audit Plan</text>
</g>
<!-- 1990977926784 -->
<g id="node38" class="node">
<title>1990977926784</title>
<ellipse fill="white" stroke="black" cx="2186.75" cy="-99" rx="27" ry="27"/>
</g>
<!-- 1990978047440&#45;&gt;1990977926784 -->
<g id="edge39" class="edge">
<title>1990978047440&#45;&gt;1990977926784</title>
<path fill="none" stroke="black" d="M2113.68,-99C2124.67,-99 2136.98,-99 2148.28,-99"/>
<polygon fill="black" stroke="black" points="2148.07,-102.5 2158.07,-99 2148.07,-95.5 2148.07,-102.5"/>
</g>
<!-- 1990977925488 -->
<g id="node16" class="node">
<title>1990977925488</title>
<polygon fill="white" stroke="black" points="2121.5,-189 2038,-189 2038,-153 2121.5,-153 2121.5,-189"/>
<text text-anchor="middle" x="2079.75" y="-165.97" font-family="Times New Roman,serif" font-size="12.00">Royalty Setup</text>
</g>
<!-- 1990977927840 -->
<g id="node40" class="node">
<title>1990977927840</title>
<ellipse fill="white" stroke="black" cx="2186.75" cy="-171" rx="27" ry="27"/>
</g>
<!-- 1990977925488&#45;&gt;1990977927840 -->
<g id="edge38" class="edge">
<title>1990977925488&#45;&gt;1990977927840</title>
<path fill="none" stroke="black" d="M2121.95,-171C2130.54,-171 2139.55,-171 2148.01,-171"/>
<polygon fill="black" stroke="black" points="2147.98,-174.5 2157.98,-171 2147.98,-167.5 2147.98,-174.5"/>
</g>
<!-- 1990978049648 -->
<g id="node17" class="node">
<title>1990978049648</title>
<polygon fill="white" stroke="black" points="2334.75,-117 2249.75,-117 2249.75,-81 2334.75,-81 2334.75,-117"/>
<text text-anchor="middle" x="2292.25" y="-93.97" font-family="Times New Roman,serif" font-size="12.00">Renewal Alert</text>
</g>
<!-- 1990978049888 -->
<g id="node41" class="node">
<title>1990978049888</title>
<ellipse fill="white" stroke="black" cx="2397.75" cy="-99" rx="27" ry="27"/>
</g>
<!-- 1990978049648&#45;&gt;1990978049888 -->
<g id="edge44" class="edge">
<title>1990978049648&#45;&gt;1990978049888</title>
<path fill="none" stroke="black" d="M2335.05,-99C2342.95,-99 2351.17,-99 2358.93,-99"/>
<polygon fill="black" stroke="black" points="2358.76,-102.5 2368.76,-99 2358.76,-95.5 2358.76,-102.5"/>
</g>
<!-- 1990978050464 -->
<g id="node18" class="node">
<title>1990978050464</title>
<polygon fill="white" stroke="black" points="2554.75,-117 2460.75,-117 2460.75,-81 2554.75,-81 2554.75,-117"/>
<text text-anchor="middle" x="2507.75" y="-93.97" font-family="Times New Roman,serif" font-size="12.00">Dispute Manage</text>
</g>
<!-- 1990978051040 -->
<g id="node42" class="node">
<title>1990978051040</title>
<ellipse fill="white" stroke="black" cx="2617.75" cy="-99" rx="27" ry="27"/>
</g>
<!-- 1990978050464&#45;&gt;1990978051040 -->
<g id="edge46" class="edge">
<title>1990978050464&#45;&gt;1990978051040</title>
<path fill="none" stroke="black" d="M2555.18,-99C2563.06,-99 2571.16,-99 2578.78,-99"/>
<polygon fill="black" stroke="black" points="2578.77,-102.5 2588.77,-99 2578.77,-95.5 2578.77,-102.5"/>
</g>
<!-- 1990978051616 -->
<g id="node19" class="node">
<title>1990978051616</title>
<polygon fill="white" stroke="black" points="2796.5,-117 2680.75,-117 2680.75,-81 2796.5,-81 2796.5,-117"/>
<text text-anchor="middle" x="2738.62" y="-93.97" font-family="Times New Roman,serif" font-size="12.00">Performance Review</text>
</g>
<!-- 1992859305600 -->
<g id="node43" class="node">
<title>1992859305600</title>
<ellipse fill="white" stroke="black" cx="2863.5" cy="-99" rx="27" ry="27"/>
<ellipse fill="none" stroke="black" cx="2863.5" cy="-99" rx="31" ry="31"/>
<text text-anchor="start" x="2847" y="-83.6" font-family="Times New Roman,serif" font-size="32.00">■</text>
</g>
<!-- 1990978051616&#45;&gt;1992859305600 -->
<g id="edge48" class="edge">
<title>1990978051616&#45;&gt;1992859305600</title>
<path fill="none" stroke="black" d="M2796.75,-99C2804.9,-99 2813.16,-99 2820.94,-99"/>
<polygon fill="black" stroke="black" points="2820.8,-102.5 2830.8,-99 2820.8,-95.5 2820.8,-102.5"/>
</g>
<!-- 1990975864912 -->
<g id="node20" class="node">
<title>1990975864912</title>
<ellipse fill="white" stroke="black" cx="27" cy="-126" rx="27" ry="27"/>
<text text-anchor="start" x="9.75" y="-108.7" font-family="Times New Roman,serif" font-size="34.00">●</text>
</g>
<!-- 1990975864912&#45;&gt;1990971929088 -->
<g id="edge1" class="edge">
<title>1990975864912&#45;&gt;1990971929088</title>
<path fill="none" stroke="black" d="M54.23,-126C61.54,-126 69.78,-126 78.18,-126"/>
<polygon fill="black" stroke="black" points="78.12,-129.5 88.12,-126 78.12,-122.5 78.12,-129.5"/>
</g>
<!-- 1990969787456&#45;&gt;1990969787648 -->
<g id="edge3" class="edge">
<title>1990969787456&#45;&gt;1990969787648</title>
<path fill="none" stroke="black" d="M277.27,-126C284.75,-126 293.15,-126 301.51,-126"/>
<polygon fill="black" stroke="black" points="301.28,-129.5 311.28,-126 301.28,-122.5 301.28,-129.5"/>
</g>
<!-- 1990969786688&#45;&gt;1990975904688 -->
<g id="edge5" class="edge">
<title>1990969786688&#45;&gt;1990975904688</title>
<path fill="none" stroke="black" d="M477.98,-118.34C486.06,-115.86 495.19,-113.06 503.95,-110.37"/>
<polygon fill="black" stroke="black" points="504.75,-113.78 513.28,-107.5 502.69,-107.09 504.75,-113.78"/>
</g>
<!-- 1990977971376&#45;&gt;1990977971952 -->
<g id="edge8" class="edge">
<title>1990977971376&#45;&gt;1990977971952</title>
<path fill="none" stroke="black" d="M659.24,-99C671.4,-99 686.23,-99 700.23,-99"/>
<polygon fill="black" stroke="black" points="700.21,-102.5 710.21,-99 700.21,-95.5 700.21,-102.5"/>
</g>
<!-- 1990977968592&#45;&gt;1990977970464 -->
<g id="edge9" class="edge">
<title>1990977968592&#45;&gt;1990977970464</title>
<path fill="none" stroke="black" d="M659.24,-27C666.58,-27 674.89,-27 683.4,-27"/>
<polygon fill="black" stroke="black" points="683.13,-30.5 693.13,-27 683.13,-23.5 683.13,-30.5"/>
</g>
<!-- 1990977971040&#45;&gt;1990977969696 -->
<g id="edge12" class="edge">
<title>1990977971040&#45;&gt;1990977969696</title>
<path fill="none" stroke="black" d="M892.15,-99C899.64,-99 907.93,-99 915.95,-99"/>
<polygon fill="black" stroke="black" points="915.85,-102.5 925.85,-99 915.85,-95.5 915.85,-102.5"/>
</g>
<!-- 1990977969648&#45;&gt;1990977969696 -->
<g id="edge13" class="edge">
<title>1990977969648&#45;&gt;1990977969696</title>
<path fill="none" stroke="black" d="M886.16,-43.7C896.92,-52.5 910.36,-63.5 922.41,-73.36"/>
<polygon fill="black" stroke="black" points="920.16,-76.04 930.12,-79.66 924.59,-70.62 920.16,-76.04"/>
</g>
<!-- 1990975903824&#45;&gt;1990977972240 -->
<g id="edge16" class="edge">
<title>1990975903824&#45;&gt;1990977972240</title>
<path fill="none" stroke="black" d="M1069.57,-110.32C1081.51,-115.99 1096.42,-123.08 1110.65,-129.84"/>
<polygon fill="black" stroke="black" points="1108.93,-132.9 1119.46,-134.03 1111.93,-126.58 1108.93,-132.9"/>
</g>
<!-- 1990975903824&#45;&gt;1990977972432 -->
<g id="edge15" class="edge">
<title>1990975903824&#45;&gt;1990977972432</title>
<path fill="none" stroke="black" d="M1072.1,-99C1086.87,-99 1105.55,-99 1121.82,-99"/>
<polygon fill="black" stroke="black" points="1121.65,-102.5 1131.65,-99 1121.65,-95.5 1121.65,-102.5"/>
</g>
<!-- 1990977975696&#45;&gt;1990977976272 -->
<g id="edge23" class="edge">
<title>1990977975696&#45;&gt;1990977976272</title>
<path fill="none" stroke="black" d="M1303.26,-171C1315.91,-171 1331.49,-171 1346.15,-171"/>
<polygon fill="black" stroke="black" points="1346.11,-174.5 1356.11,-171 1346.11,-167.5 1346.11,-174.5"/>
</g>
<!-- 1990977977184&#45;&gt;1990977977760 -->
<g id="edge21" class="edge">
<title>1990977977184&#45;&gt;1990977977760</title>
<path fill="none" stroke="black" d="M1303.26,-99C1314.41,-99 1327.83,-99 1340.9,-99"/>
<polygon fill="black" stroke="black" points="1340.7,-102.5 1350.7,-99 1340.7,-95.5 1340.7,-102.5"/>
</g>
<!-- 1990978044272&#45;&gt;1990978044848 -->
<g id="edge22" class="edge">
<title>1990978044272&#45;&gt;1990978044848</title>
<path fill="none" stroke="black" d="M1303.26,-27C1310.57,-27 1318.85,-27 1327.37,-27"/>
<polygon fill="black" stroke="black" points="1327.13,-30.5 1337.13,-27 1327.13,-23.5 1327.13,-30.5"/>
</g>
<!-- 1990977976848&#45;&gt;1990978045568 -->
<g id="edge28" class="edge">
<title>1990977976848&#45;&gt;1990978045568</title>
<path fill="none" stroke="black" d="M1541.41,-99C1548.62,-99 1556.77,-99 1565.12,-99"/>
<polygon fill="black" stroke="black" points="1565.07,-102.5 1575.07,-99 1565.07,-95.5 1565.07,-102.5"/>
</g>
<!-- 1990977975360&#45;&gt;1990978045568 -->
<g id="edge27" class="edge">
<title>1990977975360&#45;&gt;1990978045568</title>
<path fill="none" stroke="black" d="M1537.47,-156.95C1552.71,-147.42 1573.25,-134.57 1591.12,-123.39"/>
<polygon fill="black" stroke="black" points="1592.82,-126.46 1599.44,-118.19 1589.11,-120.52 1592.82,-126.46"/>
</g>
<!-- 1990977978336&#45;&gt;1990978045568 -->
<g id="edge29" class="edge">
<title>1990977978336&#45;&gt;1990978045568</title>
<path fill="none" stroke="black" d="M1537.47,-41.05C1552.71,-50.58 1573.25,-63.43 1591.12,-74.61"/>
<polygon fill="black" stroke="black" points="1589.11,-77.48 1599.44,-79.81 1592.82,-71.54 1589.11,-77.48"/>
</g>
<!-- 1990978045808&#45;&gt;1990978046384 -->
<g id="edge31" class="edge">
<title>1990978045808&#45;&gt;1990978046384</title>
<path fill="none" stroke="black" d="M1775.66,-99C1782.93,-99 1791.12,-99 1799.47,-99"/>
<polygon fill="black" stroke="black" points="1799.36,-102.5 1809.36,-99 1799.36,-95.5 1799.36,-102.5"/>
</g>
<!-- 1990977925776&#45;&gt;1990977925488 -->
<g id="edge35" class="edge">
<title>1990977925776&#45;&gt;1990977925488</title>
<path fill="none" stroke="black" d="M2000.25,-171C2008.19,-171 2017.2,-171 2026.21,-171"/>
<polygon fill="black" stroke="black" points="2026.03,-174.5 2036.03,-171 2026.03,-167.5 2026.03,-174.5"/>
</g>
<!-- 1990978046864&#45;&gt;1990978047440 -->
<g id="edge37" class="edge">
<title>1990978046864&#45;&gt;1990978047440</title>
<path fill="none" stroke="black" d="M2000.25,-99C2010.63,-99 2022.84,-99 2034.49,-99"/>
<polygon fill="black" stroke="black" points="2034.36,-102.5 2044.36,-99 2034.36,-95.5 2034.36,-102.5"/>
</g>
<!-- 1990978048352&#45;&gt;1990978048928 -->
<g id="edge36" class="edge">
<title>1990978048352&#45;&gt;1990978048928</title>
<path fill="none" stroke="black" d="M2000.25,-27C2007.6,-27 2015.86,-27 2024.19,-27"/>
<polygon fill="black" stroke="black" points="2024,-30.5 2034,-27 2024,-23.5 2024,-30.5"/>
</g>
<!-- 1990977926784&#45;&gt;1990978049648 -->
<g id="edge43" class="edge">
<title>1990977926784&#45;&gt;1990978049648</title>
<path fill="none" stroke="black" d="M2214.14,-99C2221.55,-99 2229.88,-99 2238.26,-99"/>
<polygon fill="black" stroke="black" points="2238.11,-102.5 2248.11,-99 2238.11,-95.5 2238.11,-102.5"/>
</g>
<!-- 1990978048016&#45;&gt;1990978049648 -->
<g id="edge42" class="edge">
<title>1990978048016&#45;&gt;1990978049648</title>
<path fill="none" stroke="black" d="M2209.45,-42.09C2222.8,-51.38 2240.24,-63.51 2255.58,-74.19"/>
<polygon fill="black" stroke="black" points="2253.36,-76.9 2263.56,-79.74 2257.35,-71.16 2253.36,-76.9"/>
</g>
<!-- 1990977927840&#45;&gt;1990978049648 -->
<g id="edge41" class="edge">
<title>1990977927840&#45;&gt;1990978049648</title>
<path fill="none" stroke="black" d="M2209.45,-155.91C2222.8,-146.62 2240.24,-134.49 2255.58,-123.81"/>
<polygon fill="black" stroke="black" points="2257.35,-126.84 2263.56,-118.26 2253.36,-121.1 2257.35,-126.84"/>
</g>
<!-- 1990978049888&#45;&gt;1990978050464 -->
<g id="edge45" class="edge">
<title>1990978049888&#45;&gt;1990978050464</title>
<path fill="none" stroke="black" d="M2425.17,-99C2432.47,-99 2440.69,-99 2449.02,-99"/>
<polygon fill="black" stroke="black" points="2448.88,-102.5 2458.88,-99 2448.88,-95.5 2448.88,-102.5"/>
</g>
<!-- 1990978051040&#45;&gt;1990978051616 -->
<g id="edge47" class="edge">
<title>1990978051040&#45;&gt;1990978051616</title>
<path fill="none" stroke="black" d="M2645.13,-99C2652.46,-99 2660.76,-99 2669.32,-99"/>
<polygon fill="black" stroke="black" points="2669.14,-102.5 2679.14,-99 2669.14,-95.5 2669.14,-102.5"/>
</g>
</g>
</svg>
