<?xml version="1.0" encoding="UTF-8" standalone="no"?>
<!DOCTYPE svg PUBLIC "-//W3C//DTD SVG 1.1//EN"
 "http://www.w3.org/Graphics/SVG/1.1/DTD/svg11.dtd">
<!-- Generated by graphviz version 11.0.0 (20240428.1522)
 -->
<!-- Title: imdf_net_1754051244.034021 Pages: 1 -->
<svg width="1876pt" height="375pt"
 viewBox="0.00 0.00 1876.00 375.00" xmlns="http://www.w3.org/2000/svg" xmlns:xlink="http://www.w3.org/1999/xlink">
<g id="graph0" class="graph" transform="scale(1 1) rotate(0) translate(4 371)">
<title>imdf_net_1754051244.034021</title>
<polygon fill="white" stroke="none" points="-4,4 -4,-371 1872,-371 1872,4 -4,4"/>
<!-- 1990976662720 -->
<g id="node1" class="node">
<title>1990976662720</title>
<polygon fill="white" stroke="black" points="159.25,-250 90,-250 90,-214 159.25,-214 159.25,-250"/>
<text text-anchor="middle" x="124.62" y="-226.97" font-family="Times New Roman,serif" font-size="12.00">Site Assess</text>
</g>
<!-- 1990977597472 -->
<g id="node19" class="node">
<title>1990977597472</title>
<ellipse fill="white" stroke="black" cx="222.25" cy="-232" rx="27" ry="27"/>
</g>
<!-- 1990976662720&#45;&gt;1990977597472 -->
<g id="edge2" class="edge">
<title>1990976662720&#45;&gt;1990977597472</title>
<path fill="none" stroke="black" d="M159.61,-232C167.31,-232 175.53,-232 183.38,-232"/>
<polygon fill="black" stroke="black" points="183.38,-235.5 193.38,-232 183.38,-228.5 183.38,-235.5"/>
</g>
<!-- 1990971217472 -->
<g id="node2" class="node">
<title>1990971217472</title>
<polygon fill="white" stroke="black" points="357.5,-250 285.25,-250 285.25,-214 357.5,-214 357.5,-250"/>
<text text-anchor="middle" x="321.38" y="-226.97" font-family="Times New Roman,serif" font-size="12.00">Rack Install</text>
</g>
<!-- 1990971222656 -->
<g id="node20" class="node">
<title>1990971222656</title>
<ellipse fill="white" stroke="black" cx="420.5" cy="-340" rx="27" ry="27"/>
</g>
<!-- 1990971217472&#45;&gt;1990971222656 -->
<g id="edge6" class="edge">
<title>1990971217472&#45;&gt;1990971222656</title>
<path fill="none" stroke="black" d="M338.85,-250.32C353.96,-267.13 376.58,-292.27 394.02,-311.67"/>
<polygon fill="black" stroke="black" points="391.32,-313.9 400.61,-319 396.53,-309.22 391.32,-313.9"/>
</g>
<!-- 1990971219872 -->
<g id="node21" class="node">
<title>1990971219872</title>
<ellipse fill="white" stroke="black" cx="420.5" cy="-268" rx="27" ry="27"/>
</g>
<!-- 1990971217472&#45;&gt;1990971219872 -->
<g id="edge5" class="edge">
<title>1990971217472&#45;&gt;1990971219872</title>
<path fill="none" stroke="black" d="M357.99,-245.2C366.5,-248.35 375.58,-251.72 384.08,-254.87"/>
<polygon fill="black" stroke="black" points="382.8,-258.13 393.4,-258.32 385.24,-251.57 382.8,-258.13"/>
</g>
<!-- 1990971226976 -->
<g id="node22" class="node">
<title>1990971226976</title>
<ellipse fill="white" stroke="black" cx="420.5" cy="-196" rx="27" ry="27"/>
</g>
<!-- 1990971217472&#45;&gt;1990971226976 -->
<g id="edge7" class="edge">
<title>1990971217472&#45;&gt;1990971226976</title>
<path fill="none" stroke="black" d="M357.99,-218.8C366.5,-215.65 375.58,-212.28 384.08,-209.13"/>
<polygon fill="black" stroke="black" points="385.24,-212.43 393.4,-205.68 382.8,-205.87 385.24,-212.43"/>
</g>
<!-- 1990971219680 -->
<g id="node23" class="node">
<title>1990971219680</title>
<ellipse fill="white" stroke="black" cx="420.5" cy="-124" rx="27" ry="27"/>
</g>
<!-- 1990971217472&#45;&gt;1990971219680 -->
<g id="edge4" class="edge">
<title>1990971217472&#45;&gt;1990971219680</title>
<path fill="none" stroke="black" d="M338.85,-213.68C353.96,-196.87 376.58,-171.73 394.02,-152.33"/>
<polygon fill="black" stroke="black" points="396.53,-154.78 400.61,-145 391.32,-150.1 396.53,-154.78"/>
</g>
<!-- 1990971223424 -->
<g id="node3" class="node">
<title>1990971223424</title>
<polygon fill="white" stroke="black" points="564,-355 485.75,-355 485.75,-319 564,-319 564,-355"/>
<text text-anchor="middle" x="524.88" y="-331.98" font-family="Times New Roman,serif" font-size="12.00">Sensor Setup</text>
</g>
<!-- 1990976608000 -->
<g id="node24" class="node">
<title>1990976608000</title>
<ellipse fill="white" stroke="black" cx="826" cy="-329" rx="27" ry="27"/>
</g>
<!-- 1990971223424&#45;&gt;1990976608000 -->
<g id="edge12" class="edge">
<title>1990971223424&#45;&gt;1990976608000</title>
<path fill="none" stroke="black" d="M564.37,-335.97C621.97,-334.43 729.92,-331.54 787.14,-330.01"/>
<polygon fill="black" stroke="black" points="787.13,-333.51 797.03,-329.75 786.94,-326.52 787.13,-333.51"/>
</g>
<!-- 1990971227936 -->
<g id="node4" class="node">
<title>1990971227936</title>
<polygon fill="white" stroke="black" points="566.25,-286 483.5,-286 483.5,-250 566.25,-250 566.25,-286"/>
<text text-anchor="middle" x="524.88" y="-262.98" font-family="Times New Roman,serif" font-size="12.00">Climate Setup</text>
</g>
<!-- 1990976831664 -->
<g id="node26" class="node">
<title>1990976831664</title>
<ellipse fill="white" stroke="black" cx="629.25" cy="-268" rx="27" ry="27"/>
</g>
<!-- 1990971227936&#45;&gt;1990976831664 -->
<g id="edge15" class="edge">
<title>1990971227936&#45;&gt;1990976831664</title>
<path fill="none" stroke="black" d="M566.63,-268C574.48,-268 582.67,-268 590.42,-268"/>
<polygon fill="black" stroke="black" points="590.24,-271.5 600.24,-268 590.24,-264.5 590.24,-271.5"/>
</g>
<!-- 1990971225152 -->
<g id="node5" class="node">
<title>1990971225152</title>
<polygon fill="white" stroke="black" points="564.75,-214 485,-214 485,-178 564.75,-178 564.75,-214"/>
<text text-anchor="middle" x="524.88" y="-190.97" font-family="Times New Roman,serif" font-size="12.00">Nutrient Prep</text>
</g>
<!-- 1990971226256 -->
<g id="node25" class="node">
<title>1990971226256</title>
<ellipse fill="white" stroke="black" cx="629.25" cy="-196" rx="27" ry="27"/>
</g>
<!-- 1990971225152&#45;&gt;1990971226256 -->
<g id="edge13" class="edge">
<title>1990971225152&#45;&gt;1990971226256</title>
<path fill="none" stroke="black" d="M565.16,-196C573.52,-196 582.32,-196 590.61,-196"/>
<polygon fill="black" stroke="black" points="590.38,-199.5 600.38,-196 590.38,-192.5 590.38,-199.5"/>
</g>
<!-- 1990971225440 -->
<g id="node6" class="node">
<title>1990971225440</title>
<polygon fill="white" stroke="black" points="562.88,-151 486.88,-151 486.88,-115 562.88,-115 562.88,-151"/>
<text text-anchor="middle" x="524.88" y="-127.97" font-family="Times New Roman,serif" font-size="12.00">Light Adjust</text>
</g>
<!-- 1990976613856 -->
<g id="node27" class="node">
<title>1990976613856</title>
<ellipse fill="white" stroke="black" cx="727.62" cy="-147" rx="27" ry="27"/>
</g>
<!-- 1990971225440&#45;&gt;1990976613856 -->
<g id="edge14" class="edge">
<title>1990971225440&#45;&gt;1990976613856</title>
<path fill="none" stroke="black" d="M563.16,-135.6C599.02,-138.1 652.95,-141.86 688.94,-144.37"/>
<polygon fill="black" stroke="black" points="688.68,-147.86 698.9,-145.07 689.16,-140.88 688.68,-147.86"/>
</g>
<!-- 1990971224384 -->
<g id="node7" class="node">
<title>1990971224384</title>
<polygon fill="white" stroke="black" points="763,-228 692.25,-228 692.25,-192 763,-192 763,-228"/>
<text text-anchor="middle" x="727.62" y="-204.97" font-family="Times New Roman,serif" font-size="12.00">Seed Select</text>
</g>
<!-- 1990976611360 -->
<g id="node29" class="node">
<title>1990976611360</title>
<ellipse fill="white" stroke="black" cx="826" cy="-212" rx="27" ry="27"/>
</g>
<!-- 1990971224384&#45;&gt;1990976611360 -->
<g id="edge20" class="edge">
<title>1990971224384&#45;&gt;1990976611360</title>
<path fill="none" stroke="black" d="M763.42,-210.72C771.15,-210.88 779.39,-211.05 787.23,-211.22"/>
<polygon fill="black" stroke="black" points="787.15,-214.72 797.22,-211.42 787.29,-207.72 787.15,-214.72"/>
</g>
<!-- 1990969801712 -->
<g id="node8" class="node">
<title>1990969801712</title>
<polygon fill="white" stroke="black" points="956,-257 889,-257 889,-221 956,-221 956,-257"/>
<text text-anchor="middle" x="922.5" y="-233.97" font-family="Times New Roman,serif" font-size="12.00">Auto Plant</text>
</g>
<!-- 1990969789472 -->
<g id="node28" class="node">
<title>1990969789472</title>
<ellipse fill="white" stroke="black" cx="1019" cy="-239" rx="27" ry="27"/>
</g>
<!-- 1990969801712&#45;&gt;1990969789472 -->
<g id="edge21" class="edge">
<title>1990969801712&#45;&gt;1990969789472</title>
<path fill="none" stroke="black" d="M956.29,-239C964.02,-239 972.33,-239 980.27,-239"/>
<polygon fill="black" stroke="black" points="980,-242.5 990,-239 980,-235.5 980,-242.5"/>
</g>
<!-- 1990969801232 -->
<g id="node9" class="node">
<title>1990969801232</title>
<polygon fill="white" stroke="black" points="1165.5,-234 1082,-234 1082,-198 1165.5,-198 1165.5,-234"/>
<text text-anchor="middle" x="1123.75" y="-210.97" font-family="Times New Roman,serif" font-size="12.00">Growth Track</text>
</g>
<!-- 1990969800848 -->
<g id="node30" class="node">
<title>1990969800848</title>
<ellipse fill="white" stroke="black" cx="1228.5" cy="-175" rx="27" ry="27"/>
</g>
<!-- 1990969801232&#45;&gt;1990969800848 -->
<g id="edge24" class="edge">
<title>1990969801232&#45;&gt;1990969800848</title>
<path fill="none" stroke="black" d="M1165.95,-199.56C1174.65,-196.09 1183.75,-192.46 1192.2,-189.08"/>
<polygon fill="black" stroke="black" points="1193.46,-192.35 1201.45,-185.39 1190.87,-185.85 1193.46,-192.35"/>
</g>
<!-- 1990977729312 -->
<g id="node10" class="node">
<title>1990977729312</title>
<polygon fill="white" stroke="black" points="1368.25,-94 1291.5,-94 1291.5,-58 1368.25,-58 1368.25,-94"/>
<text text-anchor="middle" x="1329.88" y="-70.97" font-family="Times New Roman,serif" font-size="12.00">Harvest Plan</text>
</g>
<!-- 1990977731136 -->
<g id="node33" class="node">
<title>1990977731136</title>
<ellipse fill="white" stroke="black" cx="1431.25" cy="-31" rx="27" ry="27"/>
</g>
<!-- 1990977729312&#45;&gt;1990977731136 -->
<g id="edge28" class="edge">
<title>1990977729312&#45;&gt;1990977731136</title>
<path fill="none" stroke="black" d="M1368.73,-58.86C1377.7,-54.8 1387.21,-50.49 1396.01,-46.51"/>
<polygon fill="black" stroke="black" points="1397.26,-49.78 1404.92,-42.47 1394.37,-43.41 1397.26,-49.78"/>
</g>
<!-- 1990969788224 -->
<g id="node11" class="node">
<title>1990969788224</title>
<polygon fill="black" stroke="black" points="1356.88,-193 1302.88,-193 1302.88,-157 1356.88,-157 1356.88,-193"/>
</g>
<!-- 1990977722928 -->
<g id="node31" class="node">
<title>1990977722928</title>
<ellipse fill="white" stroke="black" cx="1431.25" cy="-103" rx="27" ry="27"/>
</g>
<!-- 1990969788224&#45;&gt;1990977722928 -->
<g id="edge29" class="edge">
<title>1990969788224&#45;&gt;1990977722928</title>
<path fill="none" stroke="black" d="M1356.21,-156.65C1369.38,-147.1 1385.6,-135.35 1399.49,-125.29"/>
<polygon fill="black" stroke="black" points="1401.4,-128.23 1407.44,-119.53 1397.29,-122.56 1401.4,-128.23"/>
</g>
<!-- 1990977728832 -->
<g id="node32" class="node">
<title>1990977728832</title>
<ellipse fill="white" stroke="black" cx="1431.25" cy="-247" rx="27" ry="27"/>
</g>
<!-- 1990969788224&#45;&gt;1990977728832 -->
<g id="edge27" class="edge">
<title>1990969788224&#45;&gt;1990977728832</title>
<path fill="none" stroke="black" d="M1356.21,-193.35C1369.38,-202.9 1385.6,-214.65 1399.49,-224.71"/>
<polygon fill="black" stroke="black" points="1397.29,-227.44 1407.44,-230.47 1401.4,-221.77 1397.29,-227.44"/>
</g>
<!-- 1990969795040 -->
<g id="node34" class="node">
<title>1990969795040</title>
<ellipse fill="white" stroke="black" cx="1431.25" cy="-175" rx="27" ry="27"/>
</g>
<!-- 1990969788224&#45;&gt;1990969795040 -->
<g id="edge30" class="edge">
<title>1990969788224&#45;&gt;1990969795040</title>
<path fill="none" stroke="black" d="M1357.24,-175C1368.03,-175 1380.7,-175 1392.44,-175"/>
<polygon fill="black" stroke="black" points="1392.24,-178.5 1402.24,-175 1392.24,-171.5 1392.24,-178.5"/>
</g>
<!-- 1990969799936 -->
<g id="node12" class="node">
<title>1990969799936</title>
<polygon fill="white" stroke="black" points="1572.5,-193 1498,-193 1498,-157 1572.5,-157 1572.5,-193"/>
<text text-anchor="middle" x="1535.25" y="-169.97" font-family="Times New Roman,serif" font-size="12.00">Pest Control</text>
</g>
<!-- 1990969788176 -->
<g id="node36" class="node">
<title>1990969788176</title>
<ellipse fill="white" stroke="black" cx="1639.25" cy="-175" rx="27" ry="27"/>
</g>
<!-- 1990969799936&#45;&gt;1990969788176 -->
<g id="edge36" class="edge">
<title>1990969799936&#45;&gt;1990969788176</title>
<path fill="none" stroke="black" d="M1572.79,-175C1581.77,-175 1591.4,-175 1600.45,-175"/>
<polygon fill="black" stroke="black" points="1600.37,-178.5 1610.37,-175 1600.37,-171.5 1600.37,-178.5"/>
</g>
<!-- 1990977719808 -->
<g id="node13" class="node">
<title>1990977719808</title>
<polygon fill="white" stroke="black" points="1568,-265 1502.5,-265 1502.5,-229 1568,-229 1568,-265"/>
<text text-anchor="middle" x="1535.25" y="-241.97" font-family="Times New Roman,serif" font-size="12.00">Data Sync</text>
</g>
<!-- 1990977728640 -->
<g id="node35" class="node">
<title>1990977728640</title>
<ellipse fill="white" stroke="black" cx="1639.25" cy="-247" rx="27" ry="27"/>
</g>
<!-- 1990977719808&#45;&gt;1990977728640 -->
<g id="edge38" class="edge">
<title>1990977719808&#45;&gt;1990977728640</title>
<path fill="none" stroke="black" d="M1568.24,-247C1578.43,-247 1589.8,-247 1600.36,-247"/>
<polygon fill="black" stroke="black" points="1600.33,-250.5 1610.33,-247 1600.33,-243.5 1600.33,-250.5"/>
</g>
<!-- 1990977718848 -->
<g id="node14" class="node">
<title>1990977718848</title>
<polygon fill="white" stroke="black" points="1575.88,-49 1494.62,-49 1494.62,-13 1575.88,-13 1575.88,-49"/>
<text text-anchor="middle" x="1535.25" y="-25.98" font-family="Times New Roman,serif" font-size="12.00">Produce Pack</text>
</g>
<!-- 1990976847504 -->
<g id="node37" class="node">
<title>1990976847504</title>
<ellipse fill="white" stroke="black" cx="1639.25" cy="-31" rx="27" ry="27"/>
</g>
<!-- 1990977718848&#45;&gt;1990976847504 -->
<g id="edge35" class="edge">
<title>1990977718848&#45;&gt;1990976847504</title>
<path fill="none" stroke="black" d="M1576.27,-31C1584.2,-31 1592.51,-31 1600.36,-31"/>
<polygon fill="black" stroke="black" points="1600.33,-34.5 1610.33,-31 1600.33,-27.5 1600.33,-34.5"/>
</g>
<!-- 1990977724224 -->
<g id="node15" class="node">
<title>1990977724224</title>
<polygon fill="white" stroke="black" points="1576.25,-121 1494.25,-121 1494.25,-85 1576.25,-85 1576.25,-121"/>
<text text-anchor="middle" x="1535.25" y="-97.97" font-family="Times New Roman,serif" font-size="12.00">Yield Review</text>
</g>
<!-- 1990969799744 -->
<g id="node38" class="node">
<title>1990969799744</title>
<ellipse fill="white" stroke="black" cx="1639.25" cy="-103" rx="27" ry="27"/>
</g>
<!-- 1990977724224&#45;&gt;1990969799744 -->
<g id="edge37" class="edge">
<title>1990977724224&#45;&gt;1990969799744</title>
<path fill="none" stroke="black" d="M1576.56,-103C1584.48,-103 1592.75,-103 1600.57,-103"/>
<polygon fill="black" stroke="black" points="1600.48,-106.5 1610.48,-103 1600.48,-99.5 1600.48,-106.5"/>
</g>
<!-- 1990969786640 -->
<g id="node16" class="node">
<title>1990969786640</title>
<polygon fill="black" stroke="black" points="1763.12,-229 1709.12,-229 1709.12,-193 1763.12,-193 1763.12,-229"/>
</g>
<!-- 1990969786640&#45;&gt;1990969789472 -->
<g id="edge43" class="edge">
<title>1990969786640&#45;&gt;1990969789472</title>
<path fill="none" stroke="black" d="M1723.02,-229.39C1710.82,-246.29 1690.38,-270.55 1666.25,-283 1614.36,-309.77 1594.64,-302 1536.25,-302 1227.5,-302 1227.5,-302 1227.5,-302 1164.05,-302 1094.2,-274.69 1053.89,-256.03"/>
<polygon fill="black" stroke="black" points="1055.47,-252.91 1044.94,-251.79 1052.48,-259.24 1055.47,-252.91"/>
</g>
<!-- 1990976847792 -->
<g id="node17" class="node">
<title>1990976847792</title>
<polygon fill="white" stroke="black" points="1770,-49 1702.25,-49 1702.25,-13 1770,-13 1770,-49"/>
<text text-anchor="middle" x="1736.12" y="-25.98" font-family="Times New Roman,serif" font-size="12.00">Waste Sort</text>
</g>
<!-- 1990977564512 -->
<g id="node39" class="node">
<title>1990977564512</title>
<ellipse fill="white" stroke="black" cx="1837" cy="-31" rx="27" ry="27"/>
<ellipse fill="none" stroke="black" cx="1837" cy="-31" rx="31" ry="31"/>
<text text-anchor="start" x="1820.5" y="-15.6" font-family="Times New Roman,serif" font-size="32.00">■</text>
</g>
<!-- 1990976847792&#45;&gt;1990977564512 -->
<g id="edge44" class="edge">
<title>1990976847792&#45;&gt;1990977564512</title>
<path fill="none" stroke="black" d="M1770.32,-31C1778.01,-31 1786.29,-31 1794.29,-31"/>
<polygon fill="black" stroke="black" points="1794.21,-34.5 1804.21,-31 1794.21,-27.5 1794.21,-34.5"/>
</g>
<!-- 1990977553952 -->
<g id="node18" class="node">
<title>1990977553952</title>
<ellipse fill="white" stroke="black" cx="27" cy="-232" rx="27" ry="27"/>
<text text-anchor="start" x="9.75" y="-214.7" font-family="Times New Roman,serif" font-size="34.00">●</text>
</g>
<!-- 1990977553952&#45;&gt;1990976662720 -->
<g id="edge1" class="edge">
<title>1990977553952&#45;&gt;1990976662720</title>
<path fill="none" stroke="black" d="M54.38,-232C61.82,-232 70.14,-232 78.35,-232"/>
<polygon fill="black" stroke="black" points="78.28,-235.5 88.28,-232 78.28,-228.5 78.28,-235.5"/>
</g>
<!-- 1990977597472&#45;&gt;1990971217472 -->
<g id="edge3" class="edge">
<title>1990977597472&#45;&gt;1990971217472</title>
<path fill="none" stroke="black" d="M249.53,-232C256.94,-232 265.23,-232 273.46,-232"/>
<polygon fill="black" stroke="black" points="273.44,-235.5 283.44,-232 273.44,-228.5 273.44,-235.5"/>
</g>
<!-- 1990971222656&#45;&gt;1990971223424 -->
<g id="edge9" class="edge">
<title>1990971222656&#45;&gt;1990971223424</title>
<path fill="none" stroke="black" d="M447.86,-339.23C455.95,-338.99 465.12,-338.72 474.22,-338.46"/>
<polygon fill="black" stroke="black" points="474.23,-341.96 484.12,-338.16 474.02,-334.96 474.23,-341.96"/>
</g>
<!-- 1990971219872&#45;&gt;1990971227936 -->
<g id="edge11" class="edge">
<title>1990971219872&#45;&gt;1990971227936</title>
<path fill="none" stroke="black" d="M447.86,-268C455.28,-268 463.61,-268 471.96,-268"/>
<polygon fill="black" stroke="black" points="471.77,-271.5 481.77,-268 471.77,-264.5 471.77,-271.5"/>
</g>
<!-- 1990971226976&#45;&gt;1990971225152 -->
<g id="edge8" class="edge">
<title>1990971226976&#45;&gt;1990971225152</title>
<path fill="none" stroke="black" d="M447.86,-196C455.69,-196 464.54,-196 473.36,-196"/>
<polygon fill="black" stroke="black" points="473.34,-199.5 483.34,-196 473.34,-192.5 473.34,-199.5"/>
</g>
<!-- 1990971219680&#45;&gt;1990971225440 -->
<g id="edge10" class="edge">
<title>1990971219680&#45;&gt;1990971225440</title>
<path fill="none" stroke="black" d="M447.86,-126.32C456.2,-127.05 465.7,-127.89 475.09,-128.71"/>
<polygon fill="black" stroke="black" points="474.63,-132.18 484.9,-129.57 475.25,-125.21 474.63,-132.18"/>
</g>
<!-- 1990976608000&#45;&gt;1990969801712 -->
<g id="edge19" class="edge">
<title>1990976608000&#45;&gt;1990969801712</title>
<path fill="none" stroke="black" d="M846.12,-310.79C859.87,-297.7 878.6,-279.86 893.95,-265.24"/>
<polygon fill="black" stroke="black" points="896.16,-267.97 900.98,-258.54 891.33,-262.9 896.16,-267.97"/>
</g>
<!-- 1990971226256&#45;&gt;1990971224384 -->
<g id="edge16" class="edge">
<title>1990971226256&#45;&gt;1990971224384</title>
<path fill="none" stroke="black" d="M656.33,-199.79C663.84,-200.88 672.27,-202.1 680.61,-203.32"/>
<polygon fill="black" stroke="black" points="679.94,-206.75 690.34,-204.73 680.94,-199.83 679.94,-206.75"/>
</g>
<!-- 1990976831664&#45;&gt;1990969801712 -->
<g id="edge18" class="edge">
<title>1990976831664&#45;&gt;1990969801712</title>
<path fill="none" stroke="black" d="M656.35,-266.01C697.98,-262.75 781.99,-255.85 853,-248 860.94,-247.12 869.39,-246.09 877.54,-245.05"/>
<polygon fill="black" stroke="black" points="877.82,-248.54 887.28,-243.77 876.91,-241.6 877.82,-248.54"/>
</g>
<!-- 1990976613856&#45;&gt;1990969801712 -->
<g id="edge17" class="edge">
<title>1990976613856&#45;&gt;1990969801712</title>
<path fill="none" stroke="black" d="M754.75,-149.18C780.89,-152.24 821.64,-159.42 853,-176 870.34,-185.17 886.64,-199.81 898.99,-212.67"/>
<polygon fill="black" stroke="black" points="896.11,-214.72 905.47,-219.68 901.25,-209.96 896.11,-214.72"/>
</g>
<!-- 1990969789472&#45;&gt;1990969801232 -->
<g id="edge23" class="edge">
<title>1990969789472&#45;&gt;1990969801232</title>
<path fill="none" stroke="black" d="M1045.66,-233.26C1053.35,-231.53 1062.08,-229.58 1070.83,-227.62"/>
<polygon fill="black" stroke="black" points="1071.37,-231.09 1080.36,-225.49 1069.84,-224.26 1071.37,-231.09"/>
</g>
<!-- 1990976611360&#45;&gt;1990969801712 -->
<g id="edge22" class="edge">
<title>1990976611360&#45;&gt;1990969801712</title>
<path fill="none" stroke="black" d="M852.32,-219.24C860.17,-221.48 869.04,-224.01 877.76,-226.5"/>
<polygon fill="black" stroke="black" points="876.59,-229.81 887.17,-229.19 878.52,-223.08 876.59,-229.81"/>
</g>
<!-- 1990969800848&#45;&gt;1990977729312 -->
<g id="edge25" class="edge">
<title>1990969800848&#45;&gt;1990977729312</title>
<path fill="none" stroke="black" d="M1248.19,-156.38C1263.56,-141.07 1285.51,-119.21 1302.63,-102.14"/>
<polygon fill="black" stroke="black" points="1304.92,-104.81 1309.53,-95.27 1299.98,-99.85 1304.92,-104.81"/>
</g>
<!-- 1990969800848&#45;&gt;1990969788224 -->
<g id="edge26" class="edge">
<title>1990969800848&#45;&gt;1990969788224</title>
<path fill="none" stroke="black" d="M1255.87,-175C1266.65,-175 1279.33,-175 1291.06,-175"/>
<polygon fill="black" stroke="black" points="1290.87,-178.5 1300.87,-175 1290.87,-171.5 1290.87,-178.5"/>
</g>
<!-- 1990977722928&#45;&gt;1990977724224 -->
<g id="edge32" class="edge">
<title>1990977722928&#45;&gt;1990977724224</title>
<path fill="none" stroke="black" d="M1458.52,-103C1465.9,-103 1474.2,-103 1482.53,-103"/>
<polygon fill="black" stroke="black" points="1482.3,-106.5 1492.3,-103 1482.3,-99.5 1482.3,-106.5"/>
</g>
<!-- 1990977728832&#45;&gt;1990977719808 -->
<g id="edge31" class="edge">
<title>1990977728832&#45;&gt;1990977719808</title>
<path fill="none" stroke="black" d="M1458.52,-247C1468.42,-247 1479.96,-247 1491.01,-247"/>
<polygon fill="black" stroke="black" points="1490.73,-250.5 1500.73,-247 1490.73,-243.5 1490.73,-250.5"/>
</g>
<!-- 1990977731136&#45;&gt;1990977718848 -->
<g id="edge34" class="edge">
<title>1990977731136&#45;&gt;1990977718848</title>
<path fill="none" stroke="black" d="M1458.52,-31C1465.98,-31 1474.38,-31 1482.8,-31"/>
<polygon fill="black" stroke="black" points="1482.69,-34.5 1492.69,-31 1482.69,-27.5 1482.69,-34.5"/>
</g>
<!-- 1990969795040&#45;&gt;1990969799936 -->
<g id="edge33" class="edge">
<title>1990969795040&#45;&gt;1990969799936</title>
<path fill="none" stroke="black" d="M1458.52,-175C1466.99,-175 1476.67,-175 1486.21,-175"/>
<polygon fill="black" stroke="black" points="1486.18,-178.5 1496.18,-175 1486.18,-171.5 1486.18,-178.5"/>
</g>
<!-- 1990977728640&#45;&gt;1990969786640 -->
<g id="edge40" class="edge">
<title>1990977728640&#45;&gt;1990969786640</title>
<path fill="none" stroke="black" d="M1664.68,-237.73C1674.92,-233.85 1687.04,-229.25 1698.31,-224.97"/>
<polygon fill="black" stroke="black" points="1699.25,-228.35 1707.36,-221.53 1696.77,-221.81 1699.25,-228.35"/>
</g>
<!-- 1990969788176&#45;&gt;1990969786640 -->
<g id="edge41" class="edge">
<title>1990969788176&#45;&gt;1990969786640</title>
<path fill="none" stroke="black" d="M1664.68,-184.27C1674.92,-188.15 1687.04,-192.75 1698.31,-197.03"/>
<polygon fill="black" stroke="black" points="1696.77,-200.19 1707.36,-200.47 1699.25,-193.65 1696.77,-200.19"/>
</g>
<!-- 1990976847504&#45;&gt;1990976847792 -->
<g id="edge39" class="edge">
<title>1990976847504&#45;&gt;1990976847792</title>
<path fill="none" stroke="black" d="M1666.68,-31C1674.13,-31 1682.45,-31 1690.65,-31"/>
<polygon fill="black" stroke="black" points="1690.55,-34.5 1700.55,-31 1690.55,-27.5 1690.55,-34.5"/>
</g>
<!-- 1990969799744&#45;&gt;1990969786640 -->
<g id="edge42" class="edge">
<title>1990969799744&#45;&gt;1990969786640</title>
<path fill="none" stroke="black" d="M1657.87,-123.06C1673.05,-140.33 1695.06,-165.4 1711.72,-184.35"/>
<polygon fill="black" stroke="black" points="1708.95,-186.5 1718.18,-191.71 1714.21,-181.88 1708.95,-186.5"/>
</g>
</g>
</svg>
