<?xml version="1.0" encoding="UTF-8" standalone="no"?>
<!DOCTYPE svg PUBLIC "-//W3C//DTD SVG 1.1//EN"
 "http://www.w3.org/Graphics/SVG/1.1/DTD/svg11.dtd">
<!-- Generated by graphviz version 11.0.0 (20240428.1522)
 -->
<!-- Title: imdf_net_1754051228.1205664 Pages: 1 -->
<svg width="3003pt" height="170pt"
 viewBox="0.00 0.00 3003.00 170.00" xmlns="http://www.w3.org/2000/svg" xmlns:xlink="http://www.w3.org/1999/xlink">
<g id="graph0" class="graph" transform="scale(1 1) rotate(0) translate(4 166)">
<title>imdf_net_1754051228.1205664</title>
<polygon fill="white" stroke="none" points="-4,4 -4,-166 2999,-166 2999,4 -4,4"/>
<!-- 1990971864320 -->
<g id="node1" class="node">
<title>1990971864320</title>
<polygon fill="white" stroke="black" points="160.75,-117 90,-117 90,-81 160.75,-81 160.75,-117"/>
<text text-anchor="middle" x="125.38" y="-93.97" font-family="Times New Roman,serif" font-size="12.00">Site Survey</text>
</g>
<!-- 1990971865328 -->
<g id="node19" class="node">
<title>1990971865328</title>
<ellipse fill="white" stroke="black" cx="223.75" cy="-99" rx="27" ry="27"/>
</g>
<!-- 1990971864320&#45;&gt;1990971865328 -->
<g id="edge2" class="edge">
<title>1990971864320&#45;&gt;1990971865328</title>
<path fill="none" stroke="black" d="M161.17,-99C168.9,-99 177.14,-99 184.98,-99"/>
<polygon fill="black" stroke="black" points="184.97,-102.5 194.97,-99 184.97,-95.5 184.97,-102.5"/>
</g>
<!-- 1990976836176 -->
<g id="node2" class="node">
<title>1990976836176</title>
<polygon fill="white" stroke="black" points="365.75,-117 286.75,-117 286.75,-81 365.75,-81 365.75,-117"/>
<text text-anchor="middle" x="326.25" y="-93.97" font-family="Times New Roman,serif" font-size="12.00">Load Testing</text>
</g>
<!-- 1990976615584 -->
<g id="node20" class="node">
<title>1990976615584</title>
<ellipse fill="white" stroke="black" cx="428.75" cy="-99" rx="27" ry="27"/>
</g>
<!-- 1990976836176&#45;&gt;1990976615584 -->
<g id="edge4" class="edge">
<title>1990976836176&#45;&gt;1990976615584</title>
<path fill="none" stroke="black" d="M366.11,-99C373.96,-99 382.2,-99 390.01,-99"/>
<polygon fill="black" stroke="black" points="389.91,-102.5 399.91,-99 389.91,-95.5 389.91,-102.5"/>
</g>
<!-- 1990976616832 -->
<g id="node3" class="node">
<title>1990976616832</title>
<polygon fill="white" stroke="black" points="579.75,-117 491.75,-117 491.75,-81 579.75,-81 579.75,-117"/>
<text text-anchor="middle" x="535.75" y="-93.97" font-family="Times New Roman,serif" font-size="12.00">Permit Request</text>
</g>
<!-- 1990975905840 -->
<g id="node21" class="node">
<title>1990975905840</title>
<ellipse fill="white" stroke="black" cx="642.75" cy="-99" rx="27" ry="27"/>
</g>
<!-- 1990976616832&#45;&gt;1990975905840 -->
<g id="edge6" class="edge">
<title>1990976616832&#45;&gt;1990975905840</title>
<path fill="none" stroke="black" d="M580.06,-99C588.02,-99 596.26,-99 604.03,-99"/>
<polygon fill="black" stroke="black" points="603.85,-102.5 613.85,-99 603.85,-95.5 603.85,-102.5"/>
</g>
<!-- 1990977392416 -->
<g id="node4" class="node">
<title>1990977392416</title>
<polygon fill="white" stroke="black" points="792.25,-117 705.75,-117 705.75,-81 792.25,-81 792.25,-117"/>
<text text-anchor="middle" x="749" y="-93.97" font-family="Times New Roman,serif" font-size="12.00">Design Layout</text>
</g>
<!-- 1990977395392 -->
<g id="node22" class="node">
<title>1990977395392</title>
<ellipse fill="white" stroke="black" cx="855.25" cy="-99" rx="27" ry="27"/>
</g>
<!-- 1990977392416&#45;&gt;1990977395392 -->
<g id="edge8" class="edge">
<title>1990977392416&#45;&gt;1990977395392</title>
<path fill="none" stroke="black" d="M792.7,-99C800.62,-99 808.84,-99 816.59,-99"/>
<polygon fill="black" stroke="black" points="816.39,-102.5 826.39,-99 816.39,-95.5 816.39,-102.5"/>
</g>
<!-- 1990977403600 -->
<g id="node5" class="node">
<title>1990977403600</title>
<polygon fill="white" stroke="black" points="1019,-117 918.25,-117 918.25,-81 1019,-81 1019,-117"/>
<text text-anchor="middle" x="968.62" y="-93.97" font-family="Times New Roman,serif" font-size="12.00">Material Sourcing</text>
</g>
<!-- 1990977403840 -->
<g id="node23" class="node">
<title>1990977403840</title>
<ellipse fill="white" stroke="black" cx="1082" cy="-135" rx="27" ry="27"/>
</g>
<!-- 1990977403600&#45;&gt;1990977403840 -->
<g id="edge11" class="edge">
<title>1990977403600&#45;&gt;1990977403840</title>
<path fill="none" stroke="black" d="M1019.45,-115.1C1028.13,-117.91 1037,-120.78 1045.21,-123.43"/>
<polygon fill="black" stroke="black" points="1043.88,-126.68 1054.47,-126.43 1046.03,-120.02 1043.88,-126.68"/>
</g>
<!-- 1990977399904 -->
<g id="node24" class="node">
<title>1990977399904</title>
<ellipse fill="white" stroke="black" cx="1082" cy="-63" rx="27" ry="27"/>
</g>
<!-- 1990977403600&#45;&gt;1990977399904 -->
<g id="edge10" class="edge">
<title>1990977403600&#45;&gt;1990977399904</title>
<path fill="none" stroke="black" d="M1019.45,-82.9C1028.13,-80.09 1037,-77.22 1045.21,-74.57"/>
<polygon fill="black" stroke="black" points="1046.03,-77.98 1054.47,-71.57 1043.88,-71.32 1046.03,-77.98"/>
</g>
<!-- 1990977399616 -->
<g id="node6" class="node">
<title>1990977399616</title>
<polygon fill="white" stroke="black" points="1234.5,-153 1145,-153 1145,-117 1234.5,-117 1234.5,-153"/>
<text text-anchor="middle" x="1189.75" y="-129.97" font-family="Times New Roman,serif" font-size="12.00">Irrigation Setup</text>
</g>
<!-- 1990978228768 -->
<g id="node25" class="node">
<title>1990978228768</title>
<ellipse fill="white" stroke="black" cx="1297.5" cy="-135" rx="27" ry="27"/>
</g>
<!-- 1990977399616&#45;&gt;1990978228768 -->
<g id="edge15" class="edge">
<title>1990977399616&#45;&gt;1990978228768</title>
<path fill="none" stroke="black" d="M1234.98,-135C1242.95,-135 1251.19,-135 1258.95,-135"/>
<polygon fill="black" stroke="black" points="1258.74,-138.5 1268.74,-135 1258.74,-131.5 1258.74,-138.5"/>
</g>
<!-- 1990977400672 -->
<g id="node7" class="node">
<title>1990977400672</title>
<polygon fill="white" stroke="black" points="1229.62,-81 1149.88,-81 1149.88,-45 1229.62,-45 1229.62,-81"/>
<text text-anchor="middle" x="1189.75" y="-57.98" font-family="Times New Roman,serif" font-size="12.00">Sensor Install</text>
</g>
<!-- 1990978229104 -->
<g id="node26" class="node">
<title>1990978229104</title>
<ellipse fill="white" stroke="black" cx="1297.5" cy="-63" rx="27" ry="27"/>
</g>
<!-- 1990977400672&#45;&gt;1990978229104 -->
<g id="edge14" class="edge">
<title>1990977400672&#45;&gt;1990978229104</title>
<path fill="none" stroke="black" d="M1229.83,-63C1239.26,-63 1249.32,-63 1258.69,-63"/>
<polygon fill="black" stroke="black" points="1258.58,-66.5 1268.58,-63 1258.58,-59.5 1258.58,-66.5"/>
</g>
<!-- 1990977403456 -->
<g id="node8" class="node">
<title>1990977403456</title>
<polygon fill="white" stroke="black" points="1442.5,-117 1360.5,-117 1360.5,-81 1442.5,-81 1442.5,-117"/>
<text text-anchor="middle" x="1401.5" y="-93.97" font-family="Times New Roman,serif" font-size="12.00">Staff Training</text>
</g>
<!-- 1990971036144 -->
<g id="node27" class="node">
<title>1990971036144</title>
<ellipse fill="white" stroke="black" cx="1505.5" cy="-99" rx="27" ry="27"/>
</g>
<!-- 1990977403456&#45;&gt;1990971036144 -->
<g id="edge18" class="edge">
<title>1990977403456&#45;&gt;1990971036144</title>
<path fill="none" stroke="black" d="M1442.81,-99C1450.73,-99 1459,-99 1466.82,-99"/>
<polygon fill="black" stroke="black" points="1466.73,-102.5 1476.73,-99 1466.73,-95.5 1466.73,-102.5"/>
</g>
<!-- 1990977393232 -->
<g id="node9" class="node">
<title>1990977393232</title>
<polygon fill="white" stroke="black" points="1655,-94 1568.5,-94 1568.5,-58 1655,-58 1655,-94"/>
<text text-anchor="middle" x="1611.75" y="-70.97" font-family="Times New Roman,serif" font-size="12.00">Crop Selection</text>
</g>
<!-- 1990977092352 -->
<g id="node28" class="node">
<title>1990977092352</title>
<ellipse fill="white" stroke="black" cx="1718" cy="-71" rx="27" ry="27"/>
</g>
<!-- 1990977393232&#45;&gt;1990977092352 -->
<g id="edge20" class="edge">
<title>1990977393232&#45;&gt;1990977092352</title>
<path fill="none" stroke="black" d="M1655.45,-73.95C1663.37,-73.57 1671.59,-73.18 1679.34,-72.81"/>
<polygon fill="black" stroke="black" points="1679.32,-76.31 1689.14,-72.34 1678.98,-69.32 1679.32,-76.31"/>
</g>
<!-- 1990977079296 -->
<g id="node10" class="node">
<title>1990977079296</title>
<polygon fill="white" stroke="black" points="1840.5,-88 1781,-88 1781,-52 1840.5,-52 1840.5,-88"/>
<text text-anchor="middle" x="1810.75" y="-64.97" font-family="Times New Roman,serif" font-size="12.00">Soil Prep</text>
</g>
<!-- 1990977079344 -->
<g id="node29" class="node">
<title>1990977079344</title>
<ellipse fill="white" stroke="black" cx="1903.5" cy="-70" rx="27" ry="27"/>
</g>
<!-- 1990977079296&#45;&gt;1990977079344 -->
<g id="edge22" class="edge">
<title>1990977079296&#45;&gt;1990977079344</title>
<path fill="none" stroke="black" d="M1840.96,-70C1848.55,-70 1856.84,-70 1864.79,-70"/>
<polygon fill="black" stroke="black" points="1864.59,-73.5 1874.59,-70 1864.59,-66.5 1864.59,-73.5"/>
</g>
<!-- 1990971625488 -->
<g id="node11" class="node">
<title>1990971625488</title>
<polygon fill="white" stroke="black" points="2052.25,-86 1966.5,-86 1966.5,-50 2052.25,-50 2052.25,-86"/>
<text text-anchor="middle" x="2009.38" y="-62.98" font-family="Times New Roman,serif" font-size="12.00">Planting Phase</text>
</g>
<!-- 1990977216992 -->
<g id="node30" class="node">
<title>1990977216992</title>
<ellipse fill="white" stroke="black" cx="2115.25" cy="-64" rx="27" ry="27"/>
</g>
<!-- 1990971625488&#45;&gt;1990977216992 -->
<g id="edge24" class="edge">
<title>1990971625488&#45;&gt;1990977216992</title>
<path fill="none" stroke="black" d="M2052.62,-66.37C2060.53,-66.07 2068.75,-65.75 2076.51,-65.45"/>
<polygon fill="black" stroke="black" points="2076.47,-68.96 2086.32,-65.08 2076.2,-61.96 2076.47,-68.96"/>
</g>
<!-- 1990977216704 -->
<g id="node12" class="node">
<title>1990977216704</title>
<polygon fill="white" stroke="black" points="2272.25,-46 2178.25,-46 2178.25,-10 2272.25,-10 2272.25,-46"/>
<text text-anchor="middle" x="2225.25" y="-22.98" font-family="Times New Roman,serif" font-size="12.00">Growth Monitor</text>
</g>
<!-- 1990977222704 -->
<g id="node31" class="node">
<title>1990977222704</title>
<ellipse fill="white" stroke="black" cx="2335.25" cy="-27" rx="27" ry="27"/>
</g>
<!-- 1990977216704&#45;&gt;1990977222704 -->
<g id="edge26" class="edge">
<title>1990977216704&#45;&gt;1990977222704</title>
<path fill="none" stroke="black" d="M2272.68,-27.57C2280.56,-27.5 2288.66,-27.42 2296.28,-27.35"/>
<polygon fill="black" stroke="black" points="2296.31,-30.85 2306.27,-27.26 2296.24,-23.85 2296.31,-30.85"/>
</g>
<!-- 1990971044400 -->
<g id="node13" class="node">
<title>1990971044400</title>
<polygon fill="white" stroke="black" points="2473.88,-99 2399.38,-99 2399.38,-63 2473.88,-63 2473.88,-99"/>
<text text-anchor="middle" x="2436.62" y="-75.97" font-family="Times New Roman,serif" font-size="12.00">Pest Control</text>
</g>
<!-- 1990971044400&#45;&gt;1990977216992 -->
<g id="edge29" class="edge">
<title>1990971044400&#45;&gt;1990977216992</title>
<path fill="none" stroke="black" d="M2399.09,-79.06C2337.96,-75.8 2215.62,-69.29 2153.82,-66"/>
<polygon fill="black" stroke="black" points="2154.34,-62.52 2144.17,-65.49 2153.97,-69.51 2154.34,-62.52"/>
</g>
<!-- 1990971041472 -->
<g id="node14" class="node">
<title>1990971041472</title>
<polygon fill="white" stroke="black" points="2475,-45 2398.25,-45 2398.25,-9 2475,-9 2475,-45"/>
<text text-anchor="middle" x="2436.62" y="-21.98" font-family="Times New Roman,serif" font-size="12.00">Harvest Plan</text>
</g>
<!-- 1990971040944 -->
<g id="node32" class="node">
<title>1990971040944</title>
<ellipse fill="white" stroke="black" cx="2538" cy="-33" rx="27" ry="27"/>
</g>
<!-- 1990971041472&#45;&gt;1990971040944 -->
<g id="edge30" class="edge">
<title>1990971041472&#45;&gt;1990971040944</title>
<path fill="none" stroke="black" d="M2475.48,-29.29C2483.27,-29.76 2491.48,-30.25 2499.27,-30.72"/>
<polygon fill="black" stroke="black" points="2498.96,-34.21 2509.16,-31.32 2499.38,-27.22 2498.96,-34.21"/>
</g>
<!-- 1990971039600 -->
<g id="node15" class="node">
<title>1990971039600</title>
<polygon fill="white" stroke="black" points="2687.5,-73 2601,-73 2601,-37 2687.5,-37 2687.5,-73"/>
<text text-anchor="middle" x="2644.25" y="-49.98" font-family="Times New Roman,serif" font-size="12.00">Waste Manage</text>
</g>
<!-- 1990971038400 -->
<g id="node33" class="node">
<title>1990971038400</title>
<ellipse fill="white" stroke="black" cx="2750.5" cy="-66" rx="27" ry="27"/>
</g>
<!-- 1990971039600&#45;&gt;1990971038400 -->
<g id="edge32" class="edge">
<title>1990971039600&#45;&gt;1990971038400</title>
<path fill="none" stroke="black" d="M2687.95,-59.51C2695.87,-60.34 2704.09,-61.21 2711.84,-62.03"/>
<polygon fill="black" stroke="black" points="2711.33,-65.49 2721.64,-63.06 2712.07,-58.53 2711.33,-65.49"/>
</g>
<!-- 1990978224784 -->
<g id="node16" class="node">
<title>1990978224784</title>
<polygon fill="black" stroke="black" points="2882.25,-84 2828.25,-84 2828.25,-48 2882.25,-48 2882.25,-84"/>
</g>
<!-- 1990975754160 -->
<g id="node34" class="node">
<title>1990975754160</title>
<ellipse fill="white" stroke="black" cx="2964" cy="-66" rx="27" ry="27"/>
<ellipse fill="none" stroke="black" cx="2964" cy="-66" rx="31" ry="31"/>
<text text-anchor="start" x="2947.5" y="-50.6" font-family="Times New Roman,serif" font-size="32.00">■</text>
</g>
<!-- 1990978224784&#45;&gt;1990975754160 -->
<g id="edge36" class="edge">
<title>1990978224784&#45;&gt;1990975754160</title>
<path fill="none" stroke="black" d="M2882.64,-66C2894.38,-66 2908.5,-66 2921.6,-66"/>
<polygon fill="black" stroke="black" points="2921.25,-69.5 2931.25,-66 2921.25,-62.5 2921.25,-69.5"/>
</g>
<!-- 1990978224304 -->
<g id="node17" class="node">
<title>1990978224304</title>
<polygon fill="white" stroke="black" points="2897,-138 2813.5,-138 2813.5,-102 2897,-102 2897,-138"/>
<text text-anchor="middle" x="2855.25" y="-114.97" font-family="Times New Roman,serif" font-size="12.00">Season Rotate</text>
</g>
<!-- 1990978224304&#45;&gt;1990971036144 -->
<g id="edge35" class="edge">
<title>1990978224304&#45;&gt;1990971036144</title>
<path fill="none" stroke="black" d="M2813.02,-122.2C2770.88,-124.25 2703.52,-127 2645.25,-127 1717,-127 1717,-127 1717,-127 1655.8,-127 1585.46,-115.23 1543.56,-106.95"/>
<polygon fill="black" stroke="black" points="1544.26,-103.52 1533.76,-104.97 1542.87,-110.38 1544.26,-103.52"/>
</g>
<!-- 1990975759680 -->
<g id="node18" class="node">
<title>1990975759680</title>
<ellipse fill="white" stroke="black" cx="27" cy="-99" rx="27" ry="27"/>
<text text-anchor="start" x="9.75" y="-81.7" font-family="Times New Roman,serif" font-size="34.00">●</text>
</g>
<!-- 1990975759680&#45;&gt;1990971864320 -->
<g id="edge1" class="edge">
<title>1990975759680&#45;&gt;1990971864320</title>
<path fill="none" stroke="black" d="M54.33,-99C61.76,-99 70.06,-99 78.28,-99"/>
<polygon fill="black" stroke="black" points="78.24,-102.5 88.24,-99 78.24,-95.5 78.24,-102.5"/>
</g>
<!-- 1990971865328&#45;&gt;1990976836176 -->
<g id="edge3" class="edge">
<title>1990971865328&#45;&gt;1990976836176</title>
<path fill="none" stroke="black" d="M251.16,-99C258.59,-99 266.94,-99 275.27,-99"/>
<polygon fill="black" stroke="black" points="275.03,-102.5 285.03,-99 275.03,-95.5 275.03,-102.5"/>
</g>
<!-- 1990976615584&#45;&gt;1990976616832 -->
<g id="edge5" class="edge">
<title>1990976615584&#45;&gt;1990976616832</title>
<path fill="none" stroke="black" d="M456.25,-99C463.6,-99 471.86,-99 480.19,-99"/>
<polygon fill="black" stroke="black" points="480,-102.5 490,-99 480,-95.5 480,-102.5"/>
</g>
<!-- 1990975905840&#45;&gt;1990977392416 -->
<g id="edge7" class="edge">
<title>1990975905840&#45;&gt;1990977392416</title>
<path fill="none" stroke="black" d="M670.06,-99C677.44,-99 685.74,-99 694.11,-99"/>
<polygon fill="black" stroke="black" points="693.96,-102.5 703.96,-99 693.96,-95.5 693.96,-102.5"/>
</g>
<!-- 1990977395392&#45;&gt;1990977403600 -->
<g id="edge9" class="edge">
<title>1990977395392&#45;&gt;1990977403600</title>
<path fill="none" stroke="black" d="M882.64,-99C889.9,-99 898.08,-99 906.42,-99"/>
<polygon fill="black" stroke="black" points="906.32,-102.5 916.32,-99 906.32,-95.5 906.32,-102.5"/>
</g>
<!-- 1990977403840&#45;&gt;1990977399616 -->
<g id="edge13" class="edge">
<title>1990977403840&#45;&gt;1990977399616</title>
<path fill="none" stroke="black" d="M1109.41,-135C1116.73,-135 1124.96,-135 1133.28,-135"/>
<polygon fill="black" stroke="black" points="1133.08,-138.5 1143.08,-135 1133.08,-131.5 1133.08,-138.5"/>
</g>
<!-- 1990977399904&#45;&gt;1990977400672 -->
<g id="edge12" class="edge">
<title>1990977399904&#45;&gt;1990977400672</title>
<path fill="none" stroke="black" d="M1109.41,-63C1118.12,-63 1128.11,-63 1138.01,-63"/>
<polygon fill="black" stroke="black" points="1137.98,-66.5 1147.98,-63 1137.98,-59.5 1137.98,-66.5"/>
</g>
<!-- 1990978228768&#45;&gt;1990977403456 -->
<g id="edge16" class="edge">
<title>1990978228768&#45;&gt;1990977403456</title>
<path fill="none" stroke="black" d="M1323.45,-126.19C1331.42,-123.38 1340.55,-120.16 1349.67,-116.94"/>
<polygon fill="black" stroke="black" points="1350.62,-120.32 1358.88,-113.69 1348.29,-113.72 1350.62,-120.32"/>
</g>
<!-- 1990978229104&#45;&gt;1990977403456 -->
<g id="edge17" class="edge">
<title>1990978229104&#45;&gt;1990977403456</title>
<path fill="none" stroke="black" d="M1323.45,-71.81C1331.42,-74.62 1340.55,-77.84 1349.67,-81.06"/>
<polygon fill="black" stroke="black" points="1348.29,-84.28 1358.88,-84.31 1350.62,-77.68 1348.29,-84.28"/>
</g>
<!-- 1990971036144&#45;&gt;1990977393232 -->
<g id="edge19" class="edge">
<title>1990971036144&#45;&gt;1990977393232</title>
<path fill="none" stroke="black" d="M1532.27,-93.31C1539.9,-91.63 1548.55,-89.72 1557.26,-87.8"/>
<polygon fill="black" stroke="black" points="1557.75,-91.28 1566.76,-85.7 1556.24,-84.44 1557.75,-91.28"/>
</g>
<!-- 1990977092352&#45;&gt;1990977079296 -->
<g id="edge21" class="edge">
<title>1990977092352&#45;&gt;1990977079296</title>
<path fill="none" stroke="black" d="M1745.25,-70.71C1752.79,-70.63 1761.2,-70.54 1769.38,-70.44"/>
<polygon fill="black" stroke="black" points="1769.22,-73.95 1779.18,-70.34 1769.15,-66.95 1769.22,-73.95"/>
</g>
<!-- 1990977079344&#45;&gt;1990971625488 -->
<g id="edge23" class="edge">
<title>1990977079344&#45;&gt;1990971625488</title>
<path fill="none" stroke="black" d="M1930.98,-69.49C1938.34,-69.35 1946.6,-69.19 1954.91,-69.03"/>
<polygon fill="black" stroke="black" points="1954.75,-72.53 1964.69,-68.84 1954.62,-65.53 1954.75,-72.53"/>
</g>
<!-- 1990977216992&#45;&gt;1990977216704 -->
<g id="edge25" class="edge">
<title>1990977216992&#45;&gt;1990977216704</title>
<path fill="none" stroke="black" d="M2141.3,-55.65C2149.18,-53.02 2158.23,-50.01 2167.39,-46.95"/>
<polygon fill="black" stroke="black" points="2168.32,-50.33 2176.7,-43.85 2166.11,-43.69 2168.32,-50.33"/>
</g>
<!-- 1990977222704&#45;&gt;1990971044400 -->
<g id="edge27" class="edge">
<title>1990977222704&#45;&gt;1990971044400</title>
<path fill="none" stroke="black" d="M2359.55,-39.66C2369.21,-44.91 2380.75,-51.18 2391.88,-57.23"/>
<polygon fill="black" stroke="black" points="2390.14,-60.27 2400.6,-61.97 2393.49,-54.12 2390.14,-60.27"/>
</g>
<!-- 1990977222704&#45;&gt;1990971041472 -->
<g id="edge28" class="edge">
<title>1990977222704&#45;&gt;1990971041472</title>
<path fill="none" stroke="black" d="M2362.62,-27C2369.97,-27 2378.19,-27 2386.4,-27"/>
<polygon fill="black" stroke="black" points="2386.39,-30.5 2396.39,-27 2386.39,-23.5 2386.39,-30.5"/>
</g>
<!-- 1990971040944&#45;&gt;1990971039600 -->
<g id="edge31" class="edge">
<title>1990971040944&#45;&gt;1990971039600</title>
<path fill="none" stroke="black" d="M2564.77,-38.44C2572.4,-40.05 2581.05,-41.87 2589.76,-43.71"/>
<polygon fill="black" stroke="black" points="2588.75,-47.08 2599.26,-45.72 2590.2,-40.23 2588.75,-47.08"/>
</g>
<!-- 1990971038400&#45;&gt;1990978224784 -->
<g id="edge33" class="edge">
<title>1990971038400&#45;&gt;1990978224784</title>
<path fill="none" stroke="black" d="M2777.96,-66C2789.71,-66 2803.74,-66 2816.56,-66"/>
<polygon fill="black" stroke="black" points="2816.37,-69.5 2826.37,-66 2816.37,-62.5 2816.37,-69.5"/>
</g>
<!-- 1990971038400&#45;&gt;1990978224304 -->
<g id="edge34" class="edge">
<title>1990971038400&#45;&gt;1990978224304</title>
<path fill="none" stroke="black" d="M2774.82,-78.25C2785.08,-83.65 2797.51,-90.18 2809.46,-96.46"/>
<polygon fill="black" stroke="black" points="2807.5,-99.38 2817.98,-100.94 2810.75,-93.19 2807.5,-99.38"/>
</g>
</g>
</svg>
