<?xml version="1.0" encoding="UTF-8" standalone="no"?>
<!DOCTYPE svg PUBLIC "-//W3C//DTD SVG 1.1//EN"
 "http://www.w3.org/Graphics/SVG/1.1/DTD/svg11.dtd">
<!-- Generated by graphviz version 11.0.0 (20240428.1522)
 -->
<!-- Title: imdf_net_1754051259.9837956 Pages: 1 -->
<svg width="2632pt" height="242pt"
 viewBox="0.00 0.00 2631.75 242.00" xmlns="http://www.w3.org/2000/svg" xmlns:xlink="http://www.w3.org/1999/xlink">
<g id="graph0" class="graph" transform="scale(1 1) rotate(0) translate(4 238)">
<title>imdf_net_1754051259.9837956</title>
<polygon fill="white" stroke="none" points="-4,4 -4,-238 2627.75,-238 2627.75,4 -4,4"/>
<!-- 1990977914976 -->
<g id="node1" class="node">
<title>1990977914976</title>
<polygon fill="black" stroke="black" points="144,-153 90,-153 90,-117 144,-117 144,-153"/>
</g>
<!-- 1990976602384 -->
<g id="node19" class="node">
<title>1990976602384</title>
<ellipse fill="white" stroke="black" cx="207" cy="-171" rx="27" ry="27"/>
</g>
<!-- 1990977914976&#45;&gt;1990976602384 -->
<g id="edge3" class="edge">
<title>1990977914976&#45;&gt;1990976602384</title>
<path fill="none" stroke="black" d="M144.4,-145.8C152.75,-149.22 162.12,-153.05 170.97,-156.67"/>
<polygon fill="black" stroke="black" points="169.44,-159.83 180.02,-160.37 172.09,-153.35 169.44,-159.83"/>
</g>
<!-- 1990977863600 -->
<g id="node20" class="node">
<title>1990977863600</title>
<ellipse fill="white" stroke="black" cx="207" cy="-99" rx="27" ry="27"/>
</g>
<!-- 1990977914976&#45;&gt;1990977863600 -->
<g id="edge2" class="edge">
<title>1990977914976&#45;&gt;1990977863600</title>
<path fill="none" stroke="black" d="M144.4,-124.2C152.75,-120.78 162.12,-116.95 170.97,-113.33"/>
<polygon fill="black" stroke="black" points="172.09,-116.65 180.02,-109.63 169.44,-110.17 172.09,-116.65"/>
</g>
<!-- 1990976835168 -->
<g id="node2" class="node">
<title>1990976835168</title>
<polygon fill="white" stroke="black" points="371.5,-117 270,-117 270,-81 371.5,-81 371.5,-117"/>
<text text-anchor="middle" x="320.75" y="-93.97" font-family="Times New Roman,serif" font-size="12.00">Requirement Map</text>
</g>
<!-- 1990978338944 -->
<g id="node22" class="node">
<title>1990978338944</title>
<ellipse fill="white" stroke="black" cx="434.5" cy="-99" rx="27" ry="27"/>
</g>
<!-- 1990976835168&#45;&gt;1990978338944 -->
<g id="edge6" class="edge">
<title>1990976835168&#45;&gt;1990978338944</title>
<path fill="none" stroke="black" d="M371.74,-99C379.85,-99 388.12,-99 395.86,-99"/>
<polygon fill="black" stroke="black" points="395.61,-102.5 405.61,-99 395.61,-95.5 395.61,-102.5"/>
</g>
<!-- 1990977861488 -->
<g id="node3" class="node">
<title>1990977861488</title>
<polygon fill="white" stroke="black" points="361.75,-189 279.75,-189 279.75,-153 361.75,-153 361.75,-189"/>
<text text-anchor="middle" x="320.75" y="-165.97" font-family="Times New Roman,serif" font-size="12.00">Skill Profiling</text>
</g>
<!-- 1990978345856 -->
<g id="node21" class="node">
<title>1990978345856</title>
<ellipse fill="white" stroke="black" cx="434.5" cy="-171" rx="27" ry="27"/>
</g>
<!-- 1990977861488&#45;&gt;1990978345856 -->
<g id="edge7" class="edge">
<title>1990977861488&#45;&gt;1990978345856</title>
<path fill="none" stroke="black" d="M362.09,-171C373.11,-171 385.01,-171 395.87,-171"/>
<polygon fill="black" stroke="black" points="395.64,-174.5 405.64,-171 395.64,-167.5 395.64,-174.5"/>
</g>
<!-- 1990977967056 -->
<g id="node4" class="node">
<title>1990977967056</title>
<polygon fill="white" stroke="black" points="602.75,-153 497.5,-153 497.5,-117 602.75,-117 602.75,-153"/>
<text text-anchor="middle" x="550.12" y="-129.97" font-family="Times New Roman,serif" font-size="12.00">Availability Check</text>
</g>
<!-- 1990978349696 -->
<g id="node23" class="node">
<title>1990978349696</title>
<ellipse fill="white" stroke="black" cx="665.75" cy="-207" rx="27" ry="27"/>
</g>
<!-- 1990977967056&#45;&gt;1990978349696 -->
<g id="edge10" class="edge">
<title>1990977967056&#45;&gt;1990978349696</title>
<path fill="none" stroke="black" d="M580.09,-153.35C596.25,-163.59 616.4,-176.36 632.99,-186.88"/>
<polygon fill="black" stroke="black" points="630.69,-189.56 641.01,-191.96 634.44,-183.65 630.69,-189.56"/>
</g>
<!-- 1990978342640 -->
<g id="node24" class="node">
<title>1990978342640</title>
<ellipse fill="white" stroke="black" cx="665.75" cy="-135" rx="27" ry="27"/>
</g>
<!-- 1990977967056&#45;&gt;1990978342640 -->
<g id="edge11" class="edge">
<title>1990977967056&#45;&gt;1990978342640</title>
<path fill="none" stroke="black" d="M602.95,-135C611.11,-135 619.41,-135 627.17,-135"/>
<polygon fill="black" stroke="black" points="626.93,-138.5 636.93,-135 626.93,-131.5 626.93,-138.5"/>
</g>
<!-- 1990978482544 -->
<g id="node25" class="node">
<title>1990978482544</title>
<ellipse fill="white" stroke="black" cx="665.75" cy="-63" rx="27" ry="27"/>
</g>
<!-- 1990977967056&#45;&gt;1990978482544 -->
<g id="edge12" class="edge">
<title>1990977967056&#45;&gt;1990978482544</title>
<path fill="none" stroke="black" d="M580.09,-116.65C596.25,-106.41 616.4,-93.64 632.99,-83.12"/>
<polygon fill="black" stroke="black" points="634.44,-86.35 641.01,-78.04 630.69,-80.44 634.44,-86.35"/>
</g>
<!-- 1990978483216 -->
<g id="node5" class="node">
<title>1990978483216</title>
<polygon fill="white" stroke="black" points="838.12,-225 735.12,-225 735.12,-189 838.12,-189 838.12,-225"/>
<text text-anchor="middle" x="786.62" y="-201.97" font-family="Times New Roman,serif" font-size="12.00">Preference Survey</text>
</g>
<!-- 1990977394288 -->
<g id="node28" class="node">
<title>1990977394288</title>
<ellipse fill="white" stroke="black" cx="907.5" cy="-207" rx="27" ry="27"/>
</g>
<!-- 1990978483216&#45;&gt;1990977394288 -->
<g id="edge16" class="edge">
<title>1990978483216&#45;&gt;1990977394288</title>
<path fill="none" stroke="black" d="M838.38,-207C848.61,-207 859.19,-207 868.87,-207"/>
<polygon fill="black" stroke="black" points="868.64,-210.5 878.64,-207 868.64,-203.5 868.64,-210.5"/>
</g>
<!-- 1990978344368 -->
<g id="node6" class="node">
<title>1990978344368</title>
<polygon fill="white" stroke="black" points="836.25,-153 737,-153 737,-117 836.25,-117 836.25,-153"/>
<text text-anchor="middle" x="786.62" y="-129.97" font-family="Times New Roman,serif" font-size="12.00">Demand Forecast</text>
</g>
<!-- 1990977395824 -->
<g id="node27" class="node">
<title>1990977395824</title>
<ellipse fill="white" stroke="black" cx="907.5" cy="-135" rx="27" ry="27"/>
</g>
<!-- 1990978344368&#45;&gt;1990977395824 -->
<g id="edge18" class="edge">
<title>1990978344368&#45;&gt;1990977395824</title>
<path fill="none" stroke="black" d="M836.66,-135C847.42,-135 858.64,-135 868.87,-135"/>
<polygon fill="black" stroke="black" points="868.81,-138.5 878.81,-135 868.81,-131.5 868.81,-138.5"/>
</g>
<!-- 1990978471504 -->
<g id="node7" class="node">
<title>1990978471504</title>
<polygon fill="white" stroke="black" points="844.5,-81 728.75,-81 728.75,-45 844.5,-45 844.5,-81"/>
<text text-anchor="middle" x="786.62" y="-57.98" font-family="Times New Roman,serif" font-size="12.00">Performance Review</text>
</g>
<!-- 1990977397840 -->
<g id="node26" class="node">
<title>1990977397840</title>
<ellipse fill="white" stroke="black" cx="907.5" cy="-63" rx="27" ry="27"/>
</g>
<!-- 1990978471504&#45;&gt;1990977397840 -->
<g id="edge17" class="edge">
<title>1990978471504&#45;&gt;1990977397840</title>
<path fill="none" stroke="black" d="M844.97,-63C853.08,-63 861.23,-63 868.84,-63"/>
<polygon fill="black" stroke="black" points="868.73,-66.5 878.73,-63 868.73,-59.5 868.73,-66.5"/>
</g>
<!-- 1990978485184 -->
<g id="node8" class="node">
<title>1990978485184</title>
<polygon fill="white" stroke="black" points="1049.5,-153 970.5,-153 970.5,-117 1049.5,-117 1049.5,-153"/>
<text text-anchor="middle" x="1010" y="-129.97" font-family="Times New Roman,serif" font-size="12.00">Talent Match</text>
</g>
<!-- 1990978469968 -->
<g id="node29" class="node">
<title>1990978469968</title>
<ellipse fill="white" stroke="black" cx="1112.5" cy="-135" rx="27" ry="27"/>
</g>
<!-- 1990978485184&#45;&gt;1990978469968 -->
<g id="edge22" class="edge">
<title>1990978485184&#45;&gt;1990978469968</title>
<path fill="none" stroke="black" d="M1049.86,-135C1057.71,-135 1065.95,-135 1073.76,-135"/>
<polygon fill="black" stroke="black" points="1073.66,-138.5 1083.66,-135 1073.66,-131.5 1073.66,-138.5"/>
</g>
<!-- 1990978472416 -->
<g id="node9" class="node">
<title>1990978472416</title>
<polygon fill="white" stroke="black" points="1281.5,-153 1175.5,-153 1175.5,-117 1281.5,-117 1281.5,-153"/>
<text text-anchor="middle" x="1228.5" y="-129.97" font-family="Times New Roman,serif" font-size="12.00">Assignment Notify</text>
</g>
<!-- 1990978472656 -->
<g id="node30" class="node">
<title>1990978472656</title>
<ellipse fill="white" stroke="black" cx="1344.5" cy="-135" rx="27" ry="27"/>
</g>
<!-- 1990978472416&#45;&gt;1990978472656 -->
<g id="edge24" class="edge">
<title>1990978472416&#45;&gt;1990978472656</title>
<path fill="none" stroke="black" d="M1281.83,-135C1289.99,-135 1298.28,-135 1306.03,-135"/>
<polygon fill="black" stroke="black" points="1305.76,-138.5 1315.76,-135 1305.76,-131.5 1305.76,-138.5"/>
</g>
<!-- 1990978481008 -->
<g id="node10" class="node">
<title>1990978481008</title>
<polygon fill="white" stroke="black" points="1492.5,-153 1407.5,-153 1407.5,-117 1492.5,-117 1492.5,-153"/>
<text text-anchor="middle" x="1450" y="-129.97" font-family="Times New Roman,serif" font-size="12.00">Onboard Brief</text>
</g>
<!-- 1990978485472 -->
<g id="node31" class="node">
<title>1990978485472</title>
<ellipse fill="white" stroke="black" cx="1555.5" cy="-135" rx="27" ry="27"/>
</g>
<!-- 1990978481008&#45;&gt;1990978485472 -->
<g id="edge26" class="edge">
<title>1990978481008&#45;&gt;1990978485472</title>
<path fill="none" stroke="black" d="M1492.8,-135C1500.7,-135 1508.92,-135 1516.68,-135"/>
<polygon fill="black" stroke="black" points="1516.51,-138.5 1526.51,-135 1516.51,-131.5 1516.51,-138.5"/>
</g>
<!-- 1990978485568 -->
<g id="node11" class="node">
<title>1990978485568</title>
<polygon fill="white" stroke="black" points="1716.25,-130 1618.5,-130 1618.5,-94 1716.25,-94 1716.25,-130"/>
<text text-anchor="middle" x="1667.38" y="-106.97" font-family="Times New Roman,serif" font-size="12.00">Progress Monitor</text>
</g>
<!-- 1990978485808 -->
<g id="node32" class="node">
<title>1990978485808</title>
<ellipse fill="white" stroke="black" cx="1779.25" cy="-103" rx="27" ry="27"/>
</g>
<!-- 1990978485568&#45;&gt;1990978485808 -->
<g id="edge28" class="edge">
<title>1990978485568&#45;&gt;1990978485808</title>
<path fill="none" stroke="black" d="M1716.57,-108.05C1724.69,-107.39 1733,-106.71 1740.8,-106.07"/>
<polygon fill="black" stroke="black" points="1740.94,-109.57 1750.62,-105.26 1740.37,-102.59 1740.94,-109.57"/>
</g>
<!-- 1990975905408 -->
<g id="node12" class="node">
<title>1990975905408</title>
<polygon fill="white" stroke="black" points="1927.25,-121 1851.25,-121 1851.25,-85 1927.25,-85 1927.25,-121"/>
<text text-anchor="middle" x="1889.25" y="-97.97" font-family="Times New Roman,serif" font-size="12.00">Gap Identify</text>
</g>
<!-- 1990975902864 -->
<g id="node33" class="node">
<title>1990975902864</title>
<ellipse fill="white" stroke="black" cx="1999.25" cy="-103" rx="27" ry="27"/>
</g>
<!-- 1990975905408&#45;&gt;1990975902864 -->
<g id="edge32" class="edge">
<title>1990975905408&#45;&gt;1990975902864</title>
<path fill="none" stroke="black" d="M1927.72,-103C1938.46,-103 1950.16,-103 1960.89,-103"/>
<polygon fill="black" stroke="black" points="1960.55,-106.5 1970.55,-103 1960.55,-99.5 1960.55,-106.5"/>
</g>
<!-- 1990971035952 -->
<g id="node13" class="node">
<title>1990971035952</title>
<polygon fill="white" stroke="black" points="1936.25,-58 1842.25,-58 1842.25,-22 1936.25,-22 1936.25,-58"/>
<text text-anchor="middle" x="1889.25" y="-34.98" font-family="Times New Roman,serif" font-size="12.00">Project Closeout</text>
</g>
<!-- 1990971031632 -->
<g id="node34" class="node">
<title>1990971031632</title>
<ellipse fill="white" stroke="black" cx="1999.25" cy="-31" rx="27" ry="27"/>
</g>
<!-- 1990971035952&#45;&gt;1990971031632 -->
<g id="edge31" class="edge">
<title>1990971035952&#45;&gt;1990971031632</title>
<path fill="none" stroke="black" d="M1936.68,-36.13C1944.73,-35.46 1953,-34.77 1960.78,-34.12"/>
<polygon fill="black" stroke="black" points="1960.91,-37.62 1970.58,-33.31 1960.32,-30.65 1960.91,-37.62"/>
</g>
<!-- 1990978345904 -->
<g id="node14" class="node">
<title>1990978345904</title>
<polygon fill="white" stroke="black" points="2175,-49 2062.25,-49 2062.25,-13 2175,-13 2175,-49"/>
<text text-anchor="middle" x="2118.62" y="-25.98" font-family="Times New Roman,serif" font-size="12.00">Knowledge Archive</text>
</g>
<!-- 1990977915312 -->
<g id="node36" class="node">
<title>1990977915312</title>
<ellipse fill="white" stroke="black" cx="2242" cy="-31" rx="27" ry="27"/>
<ellipse fill="none" stroke="black" cx="2242" cy="-31" rx="31" ry="31"/>
<text text-anchor="start" x="2225.5" y="-15.6" font-family="Times New Roman,serif" font-size="32.00">■</text>
</g>
<!-- 1990978345904&#45;&gt;1990977915312 -->
<g id="edge36" class="edge">
<title>1990978345904&#45;&gt;1990977915312</title>
<path fill="none" stroke="black" d="M2175.34,-31C2183.45,-31 2191.68,-31 2199.45,-31"/>
<polygon fill="black" stroke="black" points="2199.28,-34.5 2209.28,-31 2199.28,-27.5 2199.28,-34.5"/>
</g>
<!-- 1990975910208 -->
<g id="node15" class="node">
<title>1990975910208</title>
<polygon fill="white" stroke="black" points="2155.88,-122 2081.38,-122 2081.38,-86 2155.88,-86 2155.88,-122"/>
<text text-anchor="middle" x="2118.62" y="-98.97" font-family="Times New Roman,serif" font-size="12.00">Upskill Plan</text>
</g>
<!-- 1990975909152 -->
<g id="node35" class="node">
<title>1990975909152</title>
<ellipse fill="white" stroke="black" cx="2242" cy="-108" rx="27" ry="27"/>
</g>
<!-- 1990975910208&#45;&gt;1990975909152 -->
<g id="edge35" class="edge">
<title>1990975910208&#45;&gt;1990975909152</title>
<path fill="none" stroke="black" d="M2156.37,-105.21C2171.24,-105.7 2188.38,-106.27 2203.34,-106.76"/>
<polygon fill="black" stroke="black" points="2203.16,-110.25 2213.27,-107.09 2203.39,-103.26 2203.16,-110.25"/>
</g>
<!-- 1990977552512 -->
<g id="node16" class="node">
<title>1990977552512</title>
<polygon fill="white" stroke="black" points="2400.75,-128 2309,-128 2309,-92 2400.75,-92 2400.75,-128"/>
<text text-anchor="middle" x="2354.88" y="-104.97" font-family="Times New Roman,serif" font-size="12.00">Reassign Talent</text>
</g>
<!-- 1990977555728 -->
<g id="node37" class="node">
<title>1990977555728</title>
<ellipse fill="white" stroke="black" cx="2463.75" cy="-111" rx="27" ry="27"/>
</g>
<!-- 1990977552512&#45;&gt;1990977555728 -->
<g id="edge38" class="edge">
<title>1990977552512&#45;&gt;1990977555728</title>
<path fill="none" stroke="black" d="M2401.2,-110.42C2409.21,-110.5 2417.47,-110.58 2425.23,-110.65"/>
<polygon fill="black" stroke="black" points="2425,-114.15 2435.03,-110.74 2425.06,-107.15 2425,-114.15"/>
</g>
<!-- 1990975990592 -->
<g id="node17" class="node">
<title>1990975990592</title>
<polygon fill="white" stroke="black" points="2623.75,-156 2526.75,-156 2526.75,-120 2623.75,-120 2623.75,-156"/>
<text text-anchor="middle" x="2575.25" y="-132.97" font-family="Times New Roman,serif" font-size="12.00">Feedback Gather</text>
</g>
<!-- 1990975990592&#45;&gt;1990978485472 -->
<g id="edge40" class="edge">
<title>1990975990592&#45;&gt;1990978485472</title>
<path fill="none" stroke="black" d="M2526.34,-147.71C2482.24,-155.8 2414.93,-166 2355.88,-166 1778.25,-166 1778.25,-166 1778.25,-166 1712.73,-166 1637.36,-152.56 1593.52,-143.38"/>
<polygon fill="black" stroke="black" points="1594.27,-139.96 1583.76,-141.29 1592.81,-146.81 1594.27,-139.96"/>
</g>
<!-- 1990977915504 -->
<g id="node18" class="node">
<title>1990977915504</title>
<ellipse fill="white" stroke="black" cx="27" cy="-135" rx="27" ry="27"/>
<text text-anchor="start" x="9.75" y="-117.7" font-family="Times New Roman,serif" font-size="34.00">●</text>
</g>
<!-- 1990977915504&#45;&gt;1990977914976 -->
<g id="edge1" class="edge">
<title>1990977915504&#45;&gt;1990977914976</title>
<path fill="none" stroke="black" d="M54.4,-135C61.89,-135 70.18,-135 78.2,-135"/>
<polygon fill="black" stroke="black" points="78.1,-138.5 88.1,-135 78.1,-131.5 78.1,-138.5"/>
</g>
<!-- 1990976602384&#45;&gt;1990977861488 -->
<g id="edge5" class="edge">
<title>1990976602384&#45;&gt;1990977861488</title>
<path fill="none" stroke="black" d="M234.48,-171C244.55,-171 256.4,-171 268.01,-171"/>
<polygon fill="black" stroke="black" points="267.95,-174.5 277.95,-171 267.95,-167.5 267.95,-174.5"/>
</g>
<!-- 1990977863600&#45;&gt;1990976835168 -->
<g id="edge4" class="edge">
<title>1990977863600&#45;&gt;1990976835168</title>
<path fill="none" stroke="black" d="M234.48,-99C241.76,-99 249.97,-99 258.34,-99"/>
<polygon fill="black" stroke="black" points="258.28,-102.5 268.28,-99 258.28,-95.5 258.28,-102.5"/>
</g>
<!-- 1990978345856&#45;&gt;1990977967056 -->
<g id="edge8" class="edge">
<title>1990978345856&#45;&gt;1990977967056</title>
<path fill="none" stroke="black" d="M460.72,-163.01C468.52,-160.54 477.48,-157.7 486.65,-154.79"/>
<polygon fill="black" stroke="black" points="487.52,-158.19 496,-151.83 485.41,-151.52 487.52,-158.19"/>
</g>
<!-- 1990978338944&#45;&gt;1990977967056 -->
<g id="edge9" class="edge">
<title>1990978338944&#45;&gt;1990977967056</title>
<path fill="none" stroke="black" d="M460.72,-106.99C468.52,-109.46 477.48,-112.3 486.65,-115.21"/>
<polygon fill="black" stroke="black" points="485.41,-118.48 496,-118.17 487.52,-111.81 485.41,-118.48"/>
</g>
<!-- 1990978349696&#45;&gt;1990978483216 -->
<g id="edge14" class="edge">
<title>1990978349696&#45;&gt;1990978483216</title>
<path fill="none" stroke="black" d="M693.13,-207C702.27,-207 712.94,-207 723.71,-207"/>
<polygon fill="black" stroke="black" points="723.41,-210.5 733.41,-207 723.41,-203.5 723.41,-210.5"/>
</g>
<!-- 1990978342640&#45;&gt;1990978344368 -->
<g id="edge13" class="edge">
<title>1990978342640&#45;&gt;1990978344368</title>
<path fill="none" stroke="black" d="M693.13,-135C702.78,-135 714.12,-135 725.5,-135"/>
<polygon fill="black" stroke="black" points="725.32,-138.5 735.32,-135 725.32,-131.5 725.32,-138.5"/>
</g>
<!-- 1990978482544&#45;&gt;1990978471504 -->
<g id="edge15" class="edge">
<title>1990978482544&#45;&gt;1990978471504</title>
<path fill="none" stroke="black" d="M693.13,-63C700.46,-63 708.76,-63 717.32,-63"/>
<polygon fill="black" stroke="black" points="717.14,-66.5 727.14,-63 717.14,-59.5 717.14,-66.5"/>
</g>
<!-- 1990977397840&#45;&gt;1990978485184 -->
<g id="edge19" class="edge">
<title>1990977397840&#45;&gt;1990978485184</title>
<path fill="none" stroke="black" d="M929.81,-78.27C942.67,-87.48 959.36,-99.44 974.1,-110"/>
<polygon fill="black" stroke="black" points="972.05,-112.83 982.21,-115.81 976.12,-107.14 972.05,-112.83"/>
</g>
<!-- 1990977395824&#45;&gt;1990978485184 -->
<g id="edge20" class="edge">
<title>1990977395824&#45;&gt;1990978485184</title>
<path fill="none" stroke="black" d="M934.91,-135C942.34,-135 950.69,-135 959.02,-135"/>
<polygon fill="black" stroke="black" points="958.78,-138.5 968.78,-135 958.78,-131.5 958.78,-138.5"/>
</g>
<!-- 1990977394288&#45;&gt;1990978485184 -->
<g id="edge21" class="edge">
<title>1990977394288&#45;&gt;1990978485184</title>
<path fill="none" stroke="black" d="M929.81,-191.73C942.67,-182.52 959.36,-170.56 974.1,-160"/>
<polygon fill="black" stroke="black" points="976.12,-162.86 982.21,-154.19 972.05,-157.17 976.12,-162.86"/>
</g>
<!-- 1990978469968&#45;&gt;1990978472416 -->
<g id="edge23" class="edge">
<title>1990978469968&#45;&gt;1990978472416</title>
<path fill="none" stroke="black" d="M1139.94,-135C1147.18,-135 1155.34,-135 1163.71,-135"/>
<polygon fill="black" stroke="black" points="1163.66,-138.5 1173.66,-135 1163.66,-131.5 1163.66,-138.5"/>
</g>
<!-- 1990978472656&#45;&gt;1990978481008 -->
<g id="edge25" class="edge">
<title>1990978472656&#45;&gt;1990978481008</title>
<path fill="none" stroke="black" d="M1371.89,-135C1379.3,-135 1387.63,-135 1396.01,-135"/>
<polygon fill="black" stroke="black" points="1395.86,-138.5 1405.86,-135 1395.86,-131.5 1395.86,-138.5"/>
</g>
<!-- 1990978485472&#45;&gt;1990978485568 -->
<g id="edge27" class="edge">
<title>1990978485472&#45;&gt;1990978485568</title>
<path fill="none" stroke="black" d="M1582.26,-129.61C1589.84,-128.02 1598.47,-126.21 1607.24,-124.38"/>
<polygon fill="black" stroke="black" points="1607.8,-127.84 1616.87,-122.36 1606.37,-120.99 1607.8,-127.84"/>
</g>
<!-- 1990978485808&#45;&gt;1990975905408 -->
<g id="edge29" class="edge">
<title>1990978485808&#45;&gt;1990975905408</title>
<path fill="none" stroke="black" d="M1806.67,-103C1816.69,-103 1828.45,-103 1839.87,-103"/>
<polygon fill="black" stroke="black" points="1839.58,-106.5 1849.58,-103 1839.58,-99.5 1839.58,-106.5"/>
</g>
<!-- 1990978485808&#45;&gt;1990971035952 -->
<g id="edge30" class="edge">
<title>1990978485808&#45;&gt;1990971035952</title>
<path fill="none" stroke="black" d="M1803.15,-89.64C1815.95,-82.17 1832.29,-72.64 1847.22,-63.93"/>
<polygon fill="black" stroke="black" points="1848.59,-67.18 1855.47,-59.12 1845.07,-61.14 1848.59,-67.18"/>
</g>
<!-- 1990975902864&#45;&gt;1990975910208 -->
<g id="edge33" class="edge">
<title>1990975902864&#45;&gt;1990975910208</title>
<path fill="none" stroke="black" d="M2026.59,-103.22C2039.41,-103.33 2055.22,-103.47 2070.05,-103.59"/>
<polygon fill="black" stroke="black" points="2069.59,-107.09 2079.62,-103.68 2069.65,-100.09 2069.59,-107.09"/>
</g>
<!-- 1990971031632&#45;&gt;1990978345904 -->
<g id="edge34" class="edge">
<title>1990971031632&#45;&gt;1990978345904</title>
<path fill="none" stroke="black" d="M2026.59,-31C2033.92,-31 2042.23,-31 2050.78,-31"/>
<polygon fill="black" stroke="black" points="2050.57,-34.5 2060.57,-31 2050.57,-27.5 2050.57,-34.5"/>
</g>
<!-- 1990975909152&#45;&gt;1990977552512 -->
<g id="edge37" class="edge">
<title>1990975909152&#45;&gt;1990977552512</title>
<path fill="none" stroke="black" d="M2269.28,-108.47C2277.74,-108.63 2287.48,-108.8 2297.27,-108.98"/>
<polygon fill="black" stroke="black" points="2297.13,-112.48 2307.19,-109.16 2297.26,-105.48 2297.13,-112.48"/>
</g>
<!-- 1990977555728&#45;&gt;1990975990592 -->
<g id="edge39" class="edge">
<title>1990977555728&#45;&gt;1990975990592</title>
<path fill="none" stroke="black" d="M2490.42,-117.33C2497.98,-119.19 2506.58,-121.31 2515.32,-123.47"/>
<polygon fill="black" stroke="black" points="2514.38,-126.84 2524.93,-125.84 2516.05,-120.05 2514.38,-126.84"/>
</g>
</g>
</svg>
