<?xml version="1.0" encoding="UTF-8" standalone="no"?>
<!DOCTYPE svg PUBLIC "-//W3C//DTD SVG 1.1//EN"
 "http://www.w3.org/Graphics/SVG/1.1/DTD/svg11.dtd">
<!-- Generated by graphviz version 11.0.0 (20240428.1522)
 -->
<!-- Title: imdf_net_1754051235.0253348 Pages: 1 -->
<svg width="3834pt" height="70pt"
 viewBox="0.00 0.00 3834.00 70.00" xmlns="http://www.w3.org/2000/svg" xmlns:xlink="http://www.w3.org/1999/xlink">
<g id="graph0" class="graph" transform="scale(1 1) rotate(0) translate(4 66)">
<title>imdf_net_1754051235.0253348</title>
<polygon fill="white" stroke="none" points="-4,4 -4,-66 3830,-66 3830,4 -4,4"/>
<!-- 1990977927744 -->
<g id="node1" class="node">
<title>1990977927744</title>
<polygon fill="white" stroke="black" points="167.5,-49 90,-49 90,-13 167.5,-13 167.5,-49"/>
<text text-anchor="middle" x="128.75" y="-25.98" font-family="Times New Roman,serif" font-size="12.00">Asset Locate</text>
</g>
<!-- 1990978088848 -->
<g id="node19" class="node">
<title>1990978088848</title>
<ellipse fill="white" stroke="black" cx="230.5" cy="-31" rx="27" ry="27"/>
</g>
<!-- 1990977927744&#45;&gt;1990978088848 -->
<g id="edge2" class="edge">
<title>1990977927744&#45;&gt;1990978088848</title>
<path fill="none" stroke="black" d="M167.75,-31C175.57,-31 183.81,-31 191.63,-31"/>
<polygon fill="black" stroke="black" points="191.55,-34.5 201.55,-31 191.55,-27.5 191.55,-34.5"/>
</g>
<!-- 1990978091824 -->
<g id="node2" class="node">
<title>1990978091824</title>
<polygon fill="white" stroke="black" points="398.75,-49 293.5,-49 293.5,-13 398.75,-13 398.75,-49"/>
<text text-anchor="middle" x="346.12" y="-25.98" font-family="Times New Roman,serif" font-size="12.00">Provenance Check</text>
</g>
<!-- 1990978550192 -->
<g id="node20" class="node">
<title>1990978550192</title>
<ellipse fill="white" stroke="black" cx="461.75" cy="-31" rx="27" ry="27"/>
</g>
<!-- 1990978091824&#45;&gt;1990978550192 -->
<g id="edge4" class="edge">
<title>1990978091824&#45;&gt;1990978550192</title>
<path fill="none" stroke="black" d="M398.95,-31C407.11,-31 415.41,-31 423.17,-31"/>
<polygon fill="black" stroke="black" points="422.93,-34.5 432.93,-31 422.93,-27.5 422.93,-34.5"/>
</g>
<!-- 1990978548272 -->
<g id="node3" class="node">
<title>1990978548272</title>
<polygon fill="white" stroke="black" points="607.5,-49 524.75,-49 524.75,-13 607.5,-13 607.5,-49"/>
<text text-anchor="middle" x="566.12" y="-25.98" font-family="Times New Roman,serif" font-size="12.00">Legal Review</text>
</g>
<!-- 1990978548320 -->
<g id="node21" class="node">
<title>1990978548320</title>
<ellipse fill="white" stroke="black" cx="670.5" cy="-31" rx="27" ry="27"/>
</g>
<!-- 1990978548272&#45;&gt;1990978548320 -->
<g id="edge6" class="edge">
<title>1990978548272&#45;&gt;1990978548320</title>
<path fill="none" stroke="black" d="M607.88,-31C615.73,-31 623.92,-31 631.67,-31"/>
<polygon fill="black" stroke="black" points="631.49,-34.5 641.49,-31 631.49,-27.5 631.49,-34.5"/>
</g>
<!-- 1990978547936 -->
<g id="node4" class="node">
<title>1990978547936</title>
<polygon fill="white" stroke="black" points="822.25,-49 733.5,-49 733.5,-13 822.25,-13 822.25,-49"/>
<text text-anchor="middle" x="777.88" y="-25.98" font-family="Times New Roman,serif" font-size="12.00">Owner Contact</text>
</g>
<!-- 1990978549712 -->
<g id="node22" class="node">
<title>1990978549712</title>
<ellipse fill="white" stroke="black" cx="885.25" cy="-31" rx="27" ry="27"/>
</g>
<!-- 1990978547936&#45;&gt;1990978549712 -->
<g id="edge8" class="edge">
<title>1990978547936&#45;&gt;1990978549712</title>
<path fill="none" stroke="black" d="M822.65,-31C830.61,-31 838.85,-31 846.61,-31"/>
<polygon fill="black" stroke="black" points="846.42,-34.5 856.42,-31 846.42,-27.5 846.42,-34.5"/>
</g>
<!-- 1990978535696 -->
<g id="node5" class="node">
<title>1990978535696</title>
<polygon fill="white" stroke="black" points="1046.75,-49 948.25,-49 948.25,-13 1046.75,-13 1046.75,-49"/>
<text text-anchor="middle" x="997.5" y="-25.98" font-family="Times New Roman,serif" font-size="12.00">Condition Assess</text>
</g>
<!-- 1990978536368 -->
<g id="node23" class="node">
<title>1990978536368</title>
<ellipse fill="white" stroke="black" cx="1109.75" cy="-31" rx="27" ry="27"/>
</g>
<!-- 1990978535696&#45;&gt;1990978536368 -->
<g id="edge10" class="edge">
<title>1990978535696&#45;&gt;1990978536368</title>
<path fill="none" stroke="black" d="M1047.18,-31C1055.13,-31 1063.26,-31 1070.9,-31"/>
<polygon fill="black" stroke="black" points="1070.89,-34.5 1080.89,-31 1070.89,-27.5 1070.89,-34.5"/>
</g>
<!-- 1990978535792 -->
<g id="node6" class="node">
<title>1990978535792</title>
<polygon fill="white" stroke="black" points="1266.75,-49 1172.75,-49 1172.75,-13 1266.75,-13 1266.75,-49"/>
<text text-anchor="middle" x="1219.75" y="-25.98" font-family="Times New Roman,serif" font-size="12.00">Restoration Plan</text>
</g>
<!-- 1990978535504 -->
<g id="node24" class="node">
<title>1990978535504</title>
<ellipse fill="white" stroke="black" cx="1329.75" cy="-31" rx="27" ry="27"/>
</g>
<!-- 1990978535792&#45;&gt;1990978535504 -->
<g id="edge12" class="edge">
<title>1990978535792&#45;&gt;1990978535504</title>
<path fill="none" stroke="black" d="M1267.18,-31C1275.06,-31 1283.16,-31 1290.78,-31"/>
<polygon fill="black" stroke="black" points="1290.77,-34.5 1300.77,-31 1290.77,-27.5 1290.77,-34.5"/>
</g>
<!-- 1990978536176 -->
<g id="node7" class="node">
<title>1990978536176</title>
<polygon fill="white" stroke="black" points="1477.75,-49 1392.75,-49 1392.75,-13 1477.75,-13 1477.75,-49"/>
<text text-anchor="middle" x="1435.25" y="-25.98" font-family="Times New Roman,serif" font-size="12.00">Specialist Hire</text>
</g>
<!-- 1990978536512 -->
<g id="node25" class="node">
<title>1990978536512</title>
<ellipse fill="white" stroke="black" cx="1540.75" cy="-31" rx="27" ry="27"/>
</g>
<!-- 1990978536176&#45;&gt;1990978536512 -->
<g id="edge14" class="edge">
<title>1990978536176&#45;&gt;1990978536512</title>
<path fill="none" stroke="black" d="M1478.05,-31C1485.95,-31 1494.17,-31 1501.93,-31"/>
<polygon fill="black" stroke="black" points="1501.76,-34.5 1511.76,-31 1501.76,-27.5 1501.76,-34.5"/>
</g>
<!-- 1990978484656 -->
<g id="node8" class="node">
<title>1990978484656</title>
<polygon fill="white" stroke="black" points="1703.75,-49 1603.75,-49 1603.75,-13 1703.75,-13 1703.75,-49"/>
<text text-anchor="middle" x="1653.75" y="-25.98" font-family="Times New Roman,serif" font-size="12.00">Restoration Work</text>
</g>
<!-- 1990978474240 -->
<g id="node26" class="node">
<title>1990978474240</title>
<ellipse fill="white" stroke="black" cx="1766.75" cy="-31" rx="27" ry="27"/>
</g>
<!-- 1990978484656&#45;&gt;1990978474240 -->
<g id="edge16" class="edge">
<title>1990978484656&#45;&gt;1990978474240</title>
<path fill="none" stroke="black" d="M1704.08,-31C1712.16,-31 1720.41,-31 1728.14,-31"/>
<polygon fill="black" stroke="black" points="1727.87,-34.5 1737.87,-31 1727.87,-27.5 1727.87,-34.5"/>
</g>
<!-- 1990978470832 -->
<g id="node9" class="node">
<title>1990978470832</title>
<polygon fill="white" stroke="black" points="1938.75,-49 1829.75,-49 1829.75,-13 1938.75,-13 1938.75,-49"/>
<text text-anchor="middle" x="1884.25" y="-25.98" font-family="Times New Roman,serif" font-size="12.00">Authentication Test</text>
</g>
<!-- 1990978474432 -->
<g id="node27" class="node">
<title>1990978474432</title>
<ellipse fill="white" stroke="black" cx="2001.75" cy="-31" rx="27" ry="27"/>
</g>
<!-- 1990978470832&#45;&gt;1990978474432 -->
<g id="edge18" class="edge">
<title>1990978470832&#45;&gt;1990978474432</title>
<path fill="none" stroke="black" d="M1938.94,-31C1947.16,-31 1955.48,-31 1963.25,-31"/>
<polygon fill="black" stroke="black" points="1963.01,-34.5 1973.01,-31 1963.01,-27.5 1963.01,-34.5"/>
</g>
<!-- 1990978486240 -->
<g id="node10" class="node">
<title>1990978486240</title>
<polygon fill="white" stroke="black" points="2163.25,-49 2064.75,-49 2064.75,-13 2163.25,-13 2163.25,-49"/>
<text text-anchor="middle" x="2114" y="-25.98" font-family="Times New Roman,serif" font-size="12.00">Negotiation Meet</text>
</g>
<!-- 1990978390880 -->
<g id="node28" class="node">
<title>1990978390880</title>
<ellipse fill="white" stroke="black" cx="2226.25" cy="-31" rx="27" ry="27"/>
</g>
<!-- 1990978486240&#45;&gt;1990978390880 -->
<g id="edge20" class="edge">
<title>1990978486240&#45;&gt;1990978390880</title>
<path fill="none" stroke="black" d="M2163.68,-31C2171.63,-31 2179.76,-31 2187.4,-31"/>
<polygon fill="black" stroke="black" points="2187.39,-34.5 2197.39,-31 2187.39,-27.5 2187.39,-34.5"/>
</g>
<!-- 1990978391984 -->
<g id="node11" class="node">
<title>1990978391984</title>
<polygon fill="white" stroke="black" points="2373.5,-49 2289.25,-49 2289.25,-13 2373.5,-13 2373.5,-49"/>
<text text-anchor="middle" x="2331.38" y="-25.98" font-family="Times New Roman,serif" font-size="12.00">Contract Draft</text>
</g>
<!-- 1990978395008 -->
<g id="node29" class="node">
<title>1990978395008</title>
<ellipse fill="white" stroke="black" cx="2436.5" cy="-31" rx="27" ry="27"/>
</g>
<!-- 1990978391984&#45;&gt;1990978395008 -->
<g id="edge22" class="edge">
<title>1990978391984&#45;&gt;1990978395008</title>
<path fill="none" stroke="black" d="M2373.73,-31C2381.69,-31 2389.99,-31 2397.83,-31"/>
<polygon fill="black" stroke="black" points="2397.75,-34.5 2407.75,-31 2397.75,-27.5 2397.75,-34.5"/>
</g>
<!-- 1990971042624 -->
<g id="node12" class="node">
<title>1990971042624</title>
<polygon fill="white" stroke="black" points="2585.25,-49 2499.5,-49 2499.5,-13 2585.25,-13 2585.25,-49"/>
<text text-anchor="middle" x="2542.38" y="-25.98" font-family="Times New Roman,serif" font-size="12.00">Customs Clear</text>
</g>
<!-- 1990978346384 -->
<g id="node30" class="node">
<title>1990978346384</title>
<ellipse fill="white" stroke="black" cx="2648.25" cy="-31" rx="27" ry="27"/>
</g>
<!-- 1990971042624&#45;&gt;1990978346384 -->
<g id="edge24" class="edge">
<title>1990971042624&#45;&gt;1990978346384</title>
<path fill="none" stroke="black" d="M2585.62,-31C2593.53,-31 2601.75,-31 2609.51,-31"/>
<polygon fill="black" stroke="black" points="2609.32,-34.5 2619.32,-31 2609.32,-27.5 2609.32,-34.5"/>
</g>
<!-- 1990978088752 -->
<g id="node13" class="node">
<title>1990978088752</title>
<polygon fill="white" stroke="black" points="2815,-49 2711.25,-49 2711.25,-13 2815,-13 2815,-49"/>
<text text-anchor="middle" x="2763.12" y="-25.98" font-family="Times New Roman,serif" font-size="12.00">Transport Arrange</text>
</g>
<!-- 1990978087360 -->
<g id="node31" class="node">
<title>1990978087360</title>
<ellipse fill="white" stroke="black" cx="2878" cy="-31" rx="27" ry="27"/>
</g>
<!-- 1990978088752&#45;&gt;1990978087360 -->
<g id="edge26" class="edge">
<title>1990978088752&#45;&gt;1990978087360</title>
<path fill="none" stroke="black" d="M2815.28,-31C2823.41,-31 2831.69,-31 2839.44,-31"/>
<polygon fill="black" stroke="black" points="2839.18,-34.5 2849.18,-31 2839.18,-27.5 2839.18,-34.5"/>
</g>
<!-- 1990978084096 -->
<g id="node14" class="node">
<title>1990978084096</title>
<polygon fill="white" stroke="black" points="3032.75,-49 2941,-49 2941,-13 3032.75,-13 3032.75,-49"/>
<text text-anchor="middle" x="2986.88" y="-25.98" font-family="Times New Roman,serif" font-size="12.00">Final Inspection</text>
</g>
<!-- 1990978083520 -->
<g id="node32" class="node">
<title>1990978083520</title>
<ellipse fill="white" stroke="black" cx="3095.75" cy="-31" rx="27" ry="27"/>
</g>
<!-- 1990978084096&#45;&gt;1990978083520 -->
<g id="edge28" class="edge">
<title>1990978084096&#45;&gt;1990978083520</title>
<path fill="none" stroke="black" d="M3033.2,-31C3041.21,-31 3049.47,-31 3057.23,-31"/>
<polygon fill="black" stroke="black" points="3057.03,-34.5 3067.03,-31 3057.03,-27.5 3057.03,-34.5"/>
</g>
<!-- 1990978619920 -->
<g id="node15" class="node">
<title>1990978619920</title>
<polygon fill="white" stroke="black" points="3268.5,-49 3158.75,-49 3158.75,-13 3268.5,-13 3268.5,-49"/>
<text text-anchor="middle" x="3213.62" y="-25.98" font-family="Times New Roman,serif" font-size="12.00">Documentation File</text>
</g>
<!-- 1990978619248 -->
<g id="node33" class="node">
<title>1990978619248</title>
<ellipse fill="white" stroke="black" cx="3331.5" cy="-31" rx="27" ry="27"/>
</g>
<!-- 1990978619920&#45;&gt;1990978619248 -->
<g id="edge30" class="edge">
<title>1990978619920&#45;&gt;1990978619248</title>
<path fill="none" stroke="black" d="M3268.83,-31C3276.87,-31 3285.01,-31 3292.62,-31"/>
<polygon fill="black" stroke="black" points="3292.54,-34.5 3302.54,-31 3292.54,-27.5 3292.54,-34.5"/>
</g>
<!-- 1990978624000 -->
<g id="node16" class="node">
<title>1990978624000</title>
<polygon fill="white" stroke="black" points="3490.75,-49 3394.5,-49 3394.5,-13 3490.75,-13 3490.75,-49"/>
<text text-anchor="middle" x="3442.62" y="-25.98" font-family="Times New Roman,serif" font-size="12.00">Payment Process</text>
</g>
<!-- 1990978620784 -->
<g id="node34" class="node">
<title>1990978620784</title>
<ellipse fill="white" stroke="black" cx="3553.75" cy="-31" rx="27" ry="27"/>
</g>
<!-- 1990978624000&#45;&gt;1990978620784 -->
<g id="edge32" class="edge">
<title>1990978624000&#45;&gt;1990978620784</title>
<path fill="none" stroke="black" d="M3491.17,-31C3499.09,-31 3507.2,-31 3514.84,-31"/>
<polygon fill="black" stroke="black" points="3514.83,-34.5 3524.83,-31 3514.83,-27.5 3514.83,-34.5"/>
</g>
<!-- 1990978620352 -->
<g id="node17" class="node">
<title>1990978620352</title>
<polygon fill="white" stroke="black" points="3728,-49 3616.75,-49 3616.75,-13 3728,-13 3728,-49"/>
<text text-anchor="middle" x="3672.38" y="-25.98" font-family="Times New Roman,serif" font-size="12.00">Ownership Transfer</text>
</g>
<!-- 1990978053776 -->
<g id="node35" class="node">
<title>1990978053776</title>
<ellipse fill="white" stroke="black" cx="3795" cy="-31" rx="27" ry="27"/>
<ellipse fill="none" stroke="black" cx="3795" cy="-31" rx="31" ry="31"/>
<text text-anchor="start" x="3778.5" y="-15.6" font-family="Times New Roman,serif" font-size="32.00">■</text>
</g>
<!-- 1990978620352&#45;&gt;1990978053776 -->
<g id="edge34" class="edge">
<title>1990978620352&#45;&gt;1990978053776</title>
<path fill="none" stroke="black" d="M3728.39,-31C3736.48,-31 3744.7,-31 3752.45,-31"/>
<polygon fill="black" stroke="black" points="3752.28,-34.5 3762.28,-31 3752.28,-27.5 3752.28,-34.5"/>
</g>
<!-- 1990978057952 -->
<g id="node18" class="node">
<title>1990978057952</title>
<ellipse fill="white" stroke="black" cx="27" cy="-31" rx="27" ry="27"/>
<text text-anchor="start" x="9.75" y="-13.7" font-family="Times New Roman,serif" font-size="34.00">●</text>
</g>
<!-- 1990978057952&#45;&gt;1990977927744 -->
<g id="edge1" class="edge">
<title>1990978057952&#45;&gt;1990977927744</title>
<path fill="none" stroke="black" d="M54.47,-31C61.77,-31 69.93,-31 78.08,-31"/>
<polygon fill="black" stroke="black" points="78,-34.5 88,-31 78,-27.5 78,-34.5"/>
</g>
<!-- 1990978088848&#45;&gt;1990978091824 -->
<g id="edge3" class="edge">
<title>1990978088848&#45;&gt;1990978091824</title>
<path fill="none" stroke="black" d="M257.85,-31C265.24,-31 273.6,-31 282.15,-31"/>
<polygon fill="black" stroke="black" points="281.91,-34.5 291.91,-31 281.91,-27.5 281.91,-34.5"/>
</g>
<!-- 1990978550192&#45;&gt;1990978548272 -->
<g id="edge5" class="edge">
<title>1990978550192&#45;&gt;1990978548272</title>
<path fill="none" stroke="black" d="M489.11,-31C496.53,-31 504.86,-31 513.21,-31"/>
<polygon fill="black" stroke="black" points="513.02,-34.5 523.02,-31 513.02,-27.5 513.02,-34.5"/>
</g>
<!-- 1990978548320&#45;&gt;1990978547936 -->
<g id="edge7" class="edge">
<title>1990978548320&#45;&gt;1990978547936</title>
<path fill="none" stroke="black" d="M697.82,-31C705.19,-31 713.5,-31 721.88,-31"/>
<polygon fill="black" stroke="black" points="721.77,-34.5 731.77,-31 721.77,-27.5 721.77,-34.5"/>
</g>
<!-- 1990978549712&#45;&gt;1990978535696 -->
<g id="edge9" class="edge">
<title>1990978549712&#45;&gt;1990978535696</title>
<path fill="none" stroke="black" d="M912.66,-31C919.93,-31 928.12,-31 936.47,-31"/>
<polygon fill="black" stroke="black" points="936.36,-34.5 946.36,-31 936.36,-27.5 936.36,-34.5"/>
</g>
<!-- 1990978536368&#45;&gt;1990978535792 -->
<g id="edge11" class="edge">
<title>1990978536368&#45;&gt;1990978535792</title>
<path fill="none" stroke="black" d="M1137.17,-31C1144.47,-31 1152.69,-31 1161.02,-31"/>
<polygon fill="black" stroke="black" points="1160.88,-34.5 1170.88,-31 1160.88,-27.5 1160.88,-34.5"/>
</g>
<!-- 1990978535504&#45;&gt;1990978536176 -->
<g id="edge13" class="edge">
<title>1990978535504&#45;&gt;1990978536176</title>
<path fill="none" stroke="black" d="M1357.14,-31C1364.55,-31 1372.88,-31 1381.26,-31"/>
<polygon fill="black" stroke="black" points="1381.11,-34.5 1391.11,-31 1381.11,-27.5 1381.11,-34.5"/>
</g>
<!-- 1990978536512&#45;&gt;1990978484656 -->
<g id="edge15" class="edge">
<title>1990978536512&#45;&gt;1990978484656</title>
<path fill="none" stroke="black" d="M1568.06,-31C1575.37,-31 1583.63,-31 1592.06,-31"/>
<polygon fill="black" stroke="black" points="1592.06,-34.5 1602.06,-31 1592.06,-27.5 1592.06,-34.5"/>
</g>
<!-- 1990978474240&#45;&gt;1990978470832 -->
<g id="edge17" class="edge">
<title>1990978474240&#45;&gt;1990978470832</title>
<path fill="none" stroke="black" d="M1794.25,-31C1801.48,-31 1809.65,-31 1818.04,-31"/>
<polygon fill="black" stroke="black" points="1818.02,-34.5 1828.02,-31 1818.02,-27.5 1818.02,-34.5"/>
</g>
<!-- 1990978474432&#45;&gt;1990978486240 -->
<g id="edge19" class="edge">
<title>1990978474432&#45;&gt;1990978486240</title>
<path fill="none" stroke="black" d="M2029.16,-31C2036.43,-31 2044.62,-31 2052.97,-31"/>
<polygon fill="black" stroke="black" points="2052.86,-34.5 2062.86,-31 2052.86,-27.5 2052.86,-34.5"/>
</g>
<!-- 1990978390880&#45;&gt;1990978391984 -->
<g id="edge21" class="edge">
<title>1990978390880&#45;&gt;1990978391984</title>
<path fill="none" stroke="black" d="M2253.54,-31C2260.92,-31 2269.23,-31 2277.57,-31"/>
<polygon fill="black" stroke="black" points="2277.39,-34.5 2287.39,-31 2277.39,-27.5 2277.39,-34.5"/>
</g>
<!-- 1990978395008&#45;&gt;1990971042624 -->
<g id="edge23" class="edge">
<title>1990978395008&#45;&gt;1990971042624</title>
<path fill="none" stroke="black" d="M2463.98,-31C2471.34,-31 2479.6,-31 2487.91,-31"/>
<polygon fill="black" stroke="black" points="2487.69,-34.5 2497.69,-31 2487.69,-27.5 2487.69,-34.5"/>
</g>
<!-- 1990978346384&#45;&gt;1990978088752 -->
<g id="edge25" class="edge">
<title>1990978346384&#45;&gt;1990978088752</title>
<path fill="none" stroke="black" d="M2675.71,-31C2682.97,-31 2691.16,-31 2699.53,-31"/>
<polygon fill="black" stroke="black" points="2699.48,-34.5 2709.48,-31 2699.48,-27.5 2699.48,-34.5"/>
</g>
<!-- 1990978087360&#45;&gt;1990978084096 -->
<g id="edge27" class="edge">
<title>1990978087360&#45;&gt;1990978084096</title>
<path fill="none" stroke="black" d="M2905.42,-31C2912.73,-31 2920.95,-31 2929.28,-31"/>
<polygon fill="black" stroke="black" points="2929.11,-34.5 2939.11,-31 2929.11,-27.5 2929.11,-34.5"/>
</g>
<!-- 1990978083520&#45;&gt;1990978619920 -->
<g id="edge29" class="edge">
<title>1990978083520&#45;&gt;1990978619920</title>
<path fill="none" stroke="black" d="M3123.04,-31C3130.38,-31 3138.69,-31 3147.22,-31"/>
<polygon fill="black" stroke="black" points="3146.99,-34.5 3156.99,-31 3146.99,-27.5 3146.99,-34.5"/>
</g>
<!-- 1990978619248&#45;&gt;1990978624000 -->
<g id="edge31" class="edge">
<title>1990978619248&#45;&gt;1990978624000</title>
<path fill="none" stroke="black" d="M3358.92,-31C3366.2,-31 3374.41,-31 3382.75,-31"/>
<polygon fill="black" stroke="black" points="3382.62,-34.5 3392.62,-31 3382.62,-27.5 3382.62,-34.5"/>
</g>
<!-- 1990978620784&#45;&gt;1990978620352 -->
<g id="edge33" class="edge">
<title>1990978620784&#45;&gt;1990978620352</title>
<path fill="none" stroke="black" d="M3581.21,-31C3588.42,-31 3596.57,-31 3604.94,-31"/>
<polygon fill="black" stroke="black" points="3604.92,-34.5 3614.92,-31 3604.92,-27.5 3604.92,-34.5"/>
</g>
</g>
</svg>
