<?xml version="1.0" encoding="UTF-8" standalone="no"?>
<!DOCTYPE svg PUBLIC "-//W3C//DTD SVG 1.1//EN"
 "http://www.w3.org/Graphics/SVG/1.1/DTD/svg11.dtd">
<!-- Generated by graphviz version 11.0.0 (20240428.1522)
 -->
<!-- Title: imdf_net_1754051239.0336208 Pages: 1 -->
<svg width="2870pt" height="134pt"
 viewBox="0.00 0.00 2870.00 134.00" xmlns="http://www.w3.org/2000/svg" xmlns:xlink="http://www.w3.org/1999/xlink">
<g id="graph0" class="graph" transform="scale(1 1) rotate(0) translate(4 130)">
<title>imdf_net_1754051239.0336208</title>
<polygon fill="white" stroke="none" points="-4,4 -4,-130 2866,-130 2866,4 -4,4"/>
<!-- 1990976651872 -->
<g id="node1" class="node">
<title>1990976651872</title>
<polygon fill="white" stroke="black" points="159.25,-81 90,-81 90,-45 159.25,-45 159.25,-81"/>
<text text-anchor="middle" x="124.62" y="-57.98" font-family="Times New Roman,serif" font-size="12.00">Item Intake</text>
</g>
<!-- 1990976658688 -->
<g id="node17" class="node">
<title>1990976658688</title>
<ellipse fill="white" stroke="black" cx="222.25" cy="-63" rx="27" ry="27"/>
</g>
<!-- 1990976651872&#45;&gt;1990976658688 -->
<g id="edge2" class="edge">
<title>1990976651872&#45;&gt;1990976658688</title>
<path fill="none" stroke="black" d="M159.61,-63C167.31,-63 175.53,-63 183.38,-63"/>
<polygon fill="black" stroke="black" points="183.38,-66.5 193.38,-63 183.38,-59.5 183.38,-66.5"/>
</g>
<!-- 1990976656432 -->
<g id="node2" class="node">
<title>1990976656432</title>
<polygon fill="white" stroke="black" points="368.75,-81 285.25,-81 285.25,-45 368.75,-45 368.75,-81"/>
<text text-anchor="middle" x="327" y="-57.98" font-family="Times New Roman,serif" font-size="12.00">Visual Inspect</text>
</g>
<!-- 1990976659264 -->
<g id="node18" class="node">
<title>1990976659264</title>
<ellipse fill="white" stroke="black" cx="431.75" cy="-99" rx="27" ry="27"/>
</g>
<!-- 1990976656432&#45;&gt;1990976659264 -->
<g id="edge4" class="edge">
<title>1990976656432&#45;&gt;1990976659264</title>
<path fill="none" stroke="black" d="M369.2,-77.44C377.82,-80.45 386.83,-83.61 395.23,-86.55"/>
<polygon fill="black" stroke="black" points="393.79,-89.76 404.38,-89.76 396.1,-83.15 393.79,-89.76"/>
</g>
<!-- 1990976652352 -->
<g id="node19" class="node">
<title>1990976652352</title>
<ellipse fill="white" stroke="black" cx="431.75" cy="-27" rx="27" ry="27"/>
</g>
<!-- 1990976656432&#45;&gt;1990976652352 -->
<g id="edge5" class="edge">
<title>1990976656432&#45;&gt;1990976652352</title>
<path fill="none" stroke="black" d="M369.2,-48.56C377.82,-45.55 386.83,-42.39 395.23,-39.45"/>
<polygon fill="black" stroke="black" points="396.1,-42.85 404.38,-36.24 393.79,-36.24 396.1,-42.85"/>
</g>
<!-- 1990976667424 -->
<g id="node3" class="node">
<title>1990976667424</title>
<polygon fill="white" stroke="black" points="590.25,-45 504.5,-45 504.5,-9 590.25,-9 590.25,-45"/>
<text text-anchor="middle" x="547.38" y="-21.98" font-family="Times New Roman,serif" font-size="12.00">Materials Scan</text>
</g>
<!-- 1990976667472 -->
<g id="node21" class="node">
<title>1990976667472</title>
<ellipse fill="white" stroke="black" cx="663" cy="-27" rx="27" ry="27"/>
</g>
<!-- 1990976667424&#45;&gt;1990976667472 -->
<g id="edge8" class="edge">
<title>1990976667424&#45;&gt;1990976667472</title>
<path fill="none" stroke="black" d="M590.68,-27C601.81,-27 613.72,-27 624.57,-27"/>
<polygon fill="black" stroke="black" points="624.31,-30.5 634.31,-27 624.31,-23.5 624.31,-30.5"/>
</g>
<!-- 1990976661568 -->
<g id="node4" class="node">
<title>1990976661568</title>
<polygon fill="white" stroke="black" points="600,-117 494.75,-117 494.75,-81 600,-81 600,-117"/>
<text text-anchor="middle" x="547.38" y="-93.97" font-family="Times New Roman,serif" font-size="12.00">Provenance Check</text>
</g>
<!-- 1990976659504 -->
<g id="node20" class="node">
<title>1990976659504</title>
<ellipse fill="white" stroke="black" cx="663" cy="-99" rx="27" ry="27"/>
</g>
<!-- 1990976661568&#45;&gt;1990976659504 -->
<g id="edge9" class="edge">
<title>1990976661568&#45;&gt;1990976659504</title>
<path fill="none" stroke="black" d="M600.2,-99C608.36,-99 616.66,-99 624.42,-99"/>
<polygon fill="black" stroke="black" points="624.18,-102.5 634.18,-99 624.18,-95.5 624.18,-102.5"/>
</g>
<!-- 1990976664064 -->
<g id="node5" class="node">
<title>1990976664064</title>
<polygon fill="white" stroke="black" points="821.12,-116 733.88,-116 733.88,-80 821.12,-80 821.12,-116"/>
<text text-anchor="middle" x="777.5" y="-92.97" font-family="Times New Roman,serif" font-size="12.00">Expert Consult</text>
</g>
<!-- 1990976664400 -->
<g id="node23" class="node">
<title>1990976664400</title>
<ellipse fill="white" stroke="black" cx="892" cy="-98" rx="27" ry="27"/>
</g>
<!-- 1990976664064&#45;&gt;1990976664400 -->
<g id="edge13" class="edge">
<title>1990976664064&#45;&gt;1990976664400</title>
<path fill="none" stroke="black" d="M821.35,-98C831.8,-98 842.89,-98 853.09,-98"/>
<polygon fill="black" stroke="black" points="853.04,-101.5 863.04,-98 853.04,-94.5 853.04,-101.5"/>
</g>
<!-- 1990976658544 -->
<g id="node6" class="node">
<title>1990976658544</title>
<polygon fill="white" stroke="black" points="829,-49 726,-49 726,-13 829,-13 829,-49"/>
<text text-anchor="middle" x="777.5" y="-25.98" font-family="Times New Roman,serif" font-size="12.00">Spectroscopy Test</text>
</g>
<!-- 1990976297136 -->
<g id="node22" class="node">
<title>1990976297136</title>
<ellipse fill="white" stroke="black" cx="998.62" cy="-34" rx="27" ry="27"/>
</g>
<!-- 1990976658544&#45;&gt;1990976297136 -->
<g id="edge12" class="edge">
<title>1990976658544&#45;&gt;1990976297136</title>
<path fill="none" stroke="black" d="M829.32,-31.7C869.19,-32.24 923.8,-32.99 959.86,-33.48"/>
<polygon fill="black" stroke="black" points="959.77,-36.98 969.82,-33.62 959.86,-29.98 959.77,-36.98"/>
</g>
<!-- 1990975756416 -->
<g id="node7" class="node">
<title>1990975756416</title>
<polygon fill="white" stroke="black" points="1686.5,-83 1588,-83 1588,-47 1686.5,-47 1686.5,-83"/>
<text text-anchor="middle" x="1637.25" y="-59.98" font-family="Times New Roman,serif" font-size="12.00">Condition Report</text>
</g>
<!-- 1990975761984 -->
<g id="node25" class="node">
<title>1990975761984</title>
<ellipse fill="white" stroke="black" cx="1749.5" cy="-65" rx="27" ry="27"/>
</g>
<!-- 1990975756416&#45;&gt;1990975761984 -->
<g id="edge17" class="edge">
<title>1990975756416&#45;&gt;1990975761984</title>
<path fill="none" stroke="black" d="M1686.93,-65C1694.88,-65 1703.01,-65 1710.65,-65"/>
<polygon fill="black" stroke="black" points="1710.64,-68.5 1720.64,-65 1710.64,-61.5 1710.64,-68.5"/>
</g>
<!-- 1990975755744 -->
<g id="node8" class="node">
<title>1990975755744</title>
<polygon fill="white" stroke="black" points="1042.25,-116 955,-116 955,-80 1042.25,-80 1042.25,-116"/>
<text text-anchor="middle" x="998.62" y="-92.97" font-family="Times New Roman,serif" font-size="12.00">Context Verify</text>
</g>
<!-- 1990975763088 -->
<g id="node24" class="node">
<title>1990975763088</title>
<ellipse fill="white" stroke="black" cx="1105.25" cy="-95" rx="27" ry="27"/>
</g>
<!-- 1990975755744&#45;&gt;1990975763088 -->
<g id="edge16" class="edge">
<title>1990975755744&#45;&gt;1990975763088</title>
<path fill="none" stroke="black" d="M1042.48,-96.77C1050.43,-96.54 1058.67,-96.31 1066.45,-96.08"/>
<polygon fill="black" stroke="black" points="1066.4,-99.59 1076.29,-95.8 1066.2,-92.59 1066.4,-99.59"/>
</g>
<!-- 1990975765776 -->
<g id="node9" class="node">
<title>1990975765776</title>
<polygon fill="white" stroke="black" points="1249.5,-111 1168.25,-111 1168.25,-75 1249.5,-75 1249.5,-111"/>
<text text-anchor="middle" x="1208.88" y="-87.97" font-family="Times New Roman,serif" font-size="12.00">Date Confirm</text>
</g>
<!-- 1990975758144 -->
<g id="node26" class="node">
<title>1990975758144</title>
<ellipse fill="white" stroke="black" cx="1312.5" cy="-93" rx="27" ry="27"/>
</g>
<!-- 1990975765776&#45;&gt;1990975758144 -->
<g id="edge20" class="edge">
<title>1990975765776&#45;&gt;1990975758144</title>
<path fill="none" stroke="black" d="M1249.75,-93C1257.65,-93 1265.92,-93 1273.75,-93"/>
<polygon fill="black" stroke="black" points="1273.67,-96.5 1283.67,-93 1273.67,-89.5 1273.67,-96.5"/>
</g>
<!-- 1990971760928 -->
<g id="node10" class="node">
<title>1990971760928</title>
<polygon fill="white" stroke="black" points="1906.5,-83 1812.5,-83 1812.5,-47 1906.5,-47 1906.5,-83"/>
<text text-anchor="middle" x="1859.5" y="-59.98" font-family="Times New Roman,serif" font-size="12.00">Restoration Plan</text>
</g>
<!-- 1990971756992 -->
<g id="node27" class="node">
<title>1990971756992</title>
<ellipse fill="white" stroke="black" cx="1969.5" cy="-65" rx="27" ry="27"/>
</g>
<!-- 1990971760928&#45;&gt;1990971756992 -->
<g id="edge21" class="edge">
<title>1990971760928&#45;&gt;1990971756992</title>
<path fill="none" stroke="black" d="M1906.93,-65C1914.81,-65 1922.91,-65 1930.53,-65"/>
<polygon fill="black" stroke="black" points="1930.52,-68.5 1940.52,-65 1930.52,-61.5 1930.52,-68.5"/>
</g>
<!-- 1990975759440 -->
<g id="node11" class="node">
<title>1990975759440</title>
<polygon fill="white" stroke="black" points="1462,-111 1375.5,-111 1375.5,-75 1462,-75 1462,-111"/>
<text text-anchor="middle" x="1418.75" y="-87.97" font-family="Times New Roman,serif" font-size="12.00">Origin Identify</text>
</g>
<!-- 1990976291664 -->
<g id="node29" class="node">
<title>1990976291664</title>
<ellipse fill="white" stroke="black" cx="1525" cy="-93" rx="27" ry="27"/>
</g>
<!-- 1990975759440&#45;&gt;1990976291664 -->
<g id="edge24" class="edge">
<title>1990975759440&#45;&gt;1990976291664</title>
<path fill="none" stroke="black" d="M1462.45,-93C1470.37,-93 1478.59,-93 1486.34,-93"/>
<polygon fill="black" stroke="black" points="1486.14,-96.5 1496.14,-93 1486.14,-89.5 1486.14,-96.5"/>
</g>
<!-- 1990971765584 -->
<g id="node12" class="node">
<title>1990971765584</title>
<polygon fill="white" stroke="black" points="2130.25,-83 2032.5,-83 2032.5,-47 2130.25,-47 2130.25,-83"/>
<text text-anchor="middle" x="2081.38" y="-59.98" font-family="Times New Roman,serif" font-size="12.00">Certification Gen</text>
</g>
<!-- 1990971767552 -->
<g id="node28" class="node">
<title>1990971767552</title>
<ellipse fill="white" stroke="black" cx="2193.25" cy="-65" rx="27" ry="27"/>
</g>
<!-- 1990971765584&#45;&gt;1990971767552 -->
<g id="edge25" class="edge">
<title>1990971765584&#45;&gt;1990971767552</title>
<path fill="none" stroke="black" d="M2130.57,-65C2138.61,-65 2146.85,-65 2154.57,-65"/>
<polygon fill="black" stroke="black" points="2154.31,-68.5 2164.31,-65 2154.31,-61.5 2154.31,-68.5"/>
</g>
<!-- 1990971756080 -->
<g id="node13" class="node">
<title>1990971756080</title>
<polygon fill="white" stroke="black" points="2345.75,-83 2256.25,-83 2256.25,-47 2345.75,-47 2345.75,-83"/>
<text text-anchor="middle" x="2301" y="-59.98" font-family="Times New Roman,serif" font-size="12.00">Digital Archive</text>
</g>
<!-- 1990971767408 -->
<g id="node30" class="node">
<title>1990971767408</title>
<ellipse fill="white" stroke="black" cx="2408.75" cy="-65" rx="27" ry="27"/>
</g>
<!-- 1990971756080&#45;&gt;1990971767408 -->
<g id="edge28" class="edge">
<title>1990971756080&#45;&gt;1990971767408</title>
<path fill="none" stroke="black" d="M2346.23,-65C2354.2,-65 2362.44,-65 2370.2,-65"/>
<polygon fill="black" stroke="black" points="2369.99,-68.5 2379.99,-65 2369.99,-61.5 2369.99,-68.5"/>
</g>
<!-- 1990971755888 -->
<g id="node14" class="node">
<title>1990971755888</title>
<polygon fill="white" stroke="black" points="2563.5,-83 2471.75,-83 2471.75,-47 2563.5,-47 2563.5,-83"/>
<text text-anchor="middle" x="2517.62" y="-59.98" font-family="Times New Roman,serif" font-size="12.00">Insurance Setup</text>
</g>
<!-- 1990971765728 -->
<g id="node31" class="node">
<title>1990971765728</title>
<ellipse fill="white" stroke="black" cx="2626.5" cy="-65" rx="27" ry="27"/>
</g>
<!-- 1990971755888&#45;&gt;1990971765728 -->
<g id="edge30" class="edge">
<title>1990971755888&#45;&gt;1990971765728</title>
<path fill="none" stroke="black" d="M2563.95,-65C2571.96,-65 2580.22,-65 2587.98,-65"/>
<polygon fill="black" stroke="black" points="2587.78,-68.5 2597.78,-65 2587.78,-61.5 2587.78,-68.5"/>
</g>
<!-- 1990969425264 -->
<g id="node15" class="node">
<title>1990969425264</title>
<polygon fill="white" stroke="black" points="2764,-83 2689.5,-83 2689.5,-47 2764,-47 2764,-83"/>
<text text-anchor="middle" x="2726.75" y="-59.98" font-family="Times New Roman,serif" font-size="12.00">Market Prep</text>
</g>
<!-- 1992857420768 -->
<g id="node32" class="node">
<title>1992857420768</title>
<ellipse fill="white" stroke="black" cx="2831" cy="-65" rx="27" ry="27"/>
<ellipse fill="none" stroke="black" cx="2831" cy="-65" rx="31" ry="31"/>
<text text-anchor="start" x="2814.5" y="-49.6" font-family="Times New Roman,serif" font-size="32.00">■</text>
</g>
<!-- 1990969425264&#45;&gt;1992857420768 -->
<g id="edge32" class="edge">
<title>1990969425264&#45;&gt;1992857420768</title>
<path fill="none" stroke="black" d="M2764.38,-65C2772.15,-65 2780.42,-65 2788.37,-65"/>
<polygon fill="black" stroke="black" points="2788.18,-68.5 2798.18,-65 2788.18,-61.5 2788.18,-68.5"/>
</g>
<!-- 1990975878352 -->
<g id="node16" class="node">
<title>1990975878352</title>
<ellipse fill="white" stroke="black" cx="27" cy="-63" rx="27" ry="27"/>
<text text-anchor="start" x="9.75" y="-45.7" font-family="Times New Roman,serif" font-size="34.00">●</text>
</g>
<!-- 1990975878352&#45;&gt;1990976651872 -->
<g id="edge1" class="edge">
<title>1990975878352&#45;&gt;1990976651872</title>
<path fill="none" stroke="black" d="M54.38,-63C61.82,-63 70.14,-63 78.35,-63"/>
<polygon fill="black" stroke="black" points="78.28,-66.5 88.28,-63 78.28,-59.5 78.28,-66.5"/>
</g>
<!-- 1990976658688&#45;&gt;1990976656432 -->
<g id="edge3" class="edge">
<title>1990976658688&#45;&gt;1990976656432</title>
<path fill="none" stroke="black" d="M249.71,-63C257.07,-63 265.33,-63 273.62,-63"/>
<polygon fill="black" stroke="black" points="273.36,-66.5 283.36,-63 273.36,-59.5 273.36,-66.5"/>
</g>
<!-- 1990976659264&#45;&gt;1990976661568 -->
<g id="edge6" class="edge">
<title>1990976659264&#45;&gt;1990976661568</title>
<path fill="none" stroke="black" d="M459.1,-99C466.49,-99 474.85,-99 483.4,-99"/>
<polygon fill="black" stroke="black" points="483.16,-102.5 493.16,-99 483.16,-95.5 483.16,-102.5"/>
</g>
<!-- 1990976652352&#45;&gt;1990976667424 -->
<g id="edge7" class="edge">
<title>1990976652352&#45;&gt;1990976667424</title>
<path fill="none" stroke="black" d="M459.1,-27C469.24,-27 481.21,-27 492.98,-27"/>
<polygon fill="black" stroke="black" points="492.63,-30.5 502.63,-27 492.63,-23.5 492.63,-30.5"/>
</g>
<!-- 1990976659504&#45;&gt;1990976664064 -->
<g id="edge10" class="edge">
<title>1990976659504&#45;&gt;1990976664064</title>
<path fill="none" stroke="black" d="M690.38,-98.77C699.92,-98.68 711.08,-98.58 722.14,-98.48"/>
<polygon fill="black" stroke="black" points="722.08,-101.98 732.05,-98.4 722.02,-94.98 722.08,-101.98"/>
</g>
<!-- 1990976667472&#45;&gt;1990976658544 -->
<g id="edge11" class="edge">
<title>1990976667472&#45;&gt;1990976658544</title>
<path fill="none" stroke="black" d="M690.38,-27.94C697.61,-28.2 705.77,-28.49 714.11,-28.78"/>
<polygon fill="black" stroke="black" points="713.91,-32.28 724.02,-29.13 714.15,-25.28 713.91,-32.28"/>
</g>
<!-- 1990976297136&#45;&gt;1990975756416 -->
<g id="edge15" class="edge">
<title>1990976297136&#45;&gt;1990975756416</title>
<path fill="none" stroke="black" d="M1025.92,-34.83C1065.42,-36 1142.42,-38 1207.88,-38 1207.88,-38 1207.88,-38 1419.75,-38 1473.12,-38 1533.33,-46.18 1576.68,-53.54"/>
<polygon fill="black" stroke="black" points="1575.94,-56.96 1586.39,-55.22 1577.14,-50.06 1575.94,-56.96"/>
</g>
<!-- 1990976664400&#45;&gt;1990975755744 -->
<g id="edge14" class="edge">
<title>1990976664400&#45;&gt;1990975755744</title>
<path fill="none" stroke="black" d="M919.4,-98C926.73,-98 934.96,-98 943.26,-98"/>
<polygon fill="black" stroke="black" points="943.03,-101.5 953.03,-98 943.03,-94.5 943.03,-101.5"/>
</g>
<!-- 1990975763088&#45;&gt;1990975765776 -->
<g id="edge18" class="edge">
<title>1990975763088&#45;&gt;1990975765776</title>
<path fill="none" stroke="black" d="M1132.69,-94.48C1139.96,-94.34 1148.11,-94.18 1156.28,-94.02"/>
<polygon fill="black" stroke="black" points="1156.33,-97.52 1166.26,-93.82 1156.19,-90.52 1156.33,-97.52"/>
</g>
<!-- 1990975761984&#45;&gt;1990971760928 -->
<g id="edge19" class="edge">
<title>1990975761984&#45;&gt;1990971760928</title>
<path fill="none" stroke="black" d="M1776.92,-65C1784.22,-65 1792.44,-65 1800.77,-65"/>
<polygon fill="black" stroke="black" points="1800.63,-68.5 1810.63,-65 1800.63,-61.5 1800.63,-68.5"/>
</g>
<!-- 1990975758144&#45;&gt;1990975759440 -->
<g id="edge23" class="edge">
<title>1990975758144&#45;&gt;1990975759440</title>
<path fill="none" stroke="black" d="M1339.81,-93C1347.19,-93 1355.49,-93 1363.86,-93"/>
<polygon fill="black" stroke="black" points="1363.71,-96.5 1373.71,-93 1363.71,-89.5 1363.71,-96.5"/>
</g>
<!-- 1990971756992&#45;&gt;1990971765584 -->
<g id="edge22" class="edge">
<title>1990971756992&#45;&gt;1990971765584</title>
<path fill="none" stroke="black" d="M1996.82,-65C2004.15,-65 2012.43,-65 2020.85,-65"/>
<polygon fill="black" stroke="black" points="2020.83,-68.5 2030.83,-65 2020.83,-61.5 2020.83,-68.5"/>
</g>
<!-- 1990971767552&#45;&gt;1990971756080 -->
<g id="edge27" class="edge">
<title>1990971767552&#45;&gt;1990971756080</title>
<path fill="none" stroke="black" d="M2220.66,-65C2227.98,-65 2236.21,-65 2244.53,-65"/>
<polygon fill="black" stroke="black" points="2244.33,-68.5 2254.33,-65 2244.33,-61.5 2244.33,-68.5"/>
</g>
<!-- 1990976291664&#45;&gt;1990975756416 -->
<g id="edge26" class="edge">
<title>1990976291664&#45;&gt;1990975756416</title>
<path fill="none" stroke="black" d="M1551.57,-86.51C1559.26,-84.55 1568.04,-82.32 1576.96,-80.06"/>
<polygon fill="black" stroke="black" points="1577.55,-83.52 1586.39,-77.66 1575.83,-76.73 1577.55,-83.52"/>
</g>
<!-- 1990971767408&#45;&gt;1990971755888 -->
<g id="edge29" class="edge">
<title>1990971767408&#45;&gt;1990971755888</title>
<path fill="none" stroke="black" d="M2436.17,-65C2443.48,-65 2451.7,-65 2460.03,-65"/>
<polygon fill="black" stroke="black" points="2459.86,-68.5 2469.86,-65 2459.86,-61.5 2459.86,-68.5"/>
</g>
<!-- 1990971765728&#45;&gt;1990969425264 -->
<g id="edge31" class="edge">
<title>1990971765728&#45;&gt;1990969425264</title>
<path fill="none" stroke="black" d="M2653.83,-65C2661.17,-65 2669.38,-65 2677.56,-65"/>
<polygon fill="black" stroke="black" points="2677.49,-68.5 2687.49,-65 2677.49,-61.5 2677.49,-68.5"/>
</g>
</g>
</svg>
