<?xml version="1.0" encoding="UTF-8" standalone="no"?>
<!DOCTYPE svg PUBLIC "-//W3C//DTD SVG 1.1//EN"
 "http://www.w3.org/Graphics/SVG/1.1/DTD/svg11.dtd">
<!-- Generated by graphviz version 11.0.0 (20240428.1522)
 -->
<!-- Title: imdf_net_1754051250.2773066 Pages: 1 -->
<svg width="2580pt" height="134pt"
 viewBox="0.00 0.00 2580.25 134.00" xmlns="http://www.w3.org/2000/svg" xmlns:xlink="http://www.w3.org/1999/xlink">
<g id="graph0" class="graph" transform="scale(1 1) rotate(0) translate(4 130)">
<title>imdf_net_1754051250.2773066</title>
<polygon fill="white" stroke="none" points="-4,4 -4,-130 2576.25,-130 2576.25,4 -4,4"/>
<!-- 1990976057520 -->
<g id="node1" class="node">
<title>1990976057520</title>
<polygon fill="white" stroke="black" points="193.75,-81 90,-81 90,-45 193.75,-45 193.75,-81"/>
<text text-anchor="middle" x="141.88" y="-57.98" font-family="Times New Roman,serif" font-size="12.00">Requirement Sync</text>
</g>
<!-- 1990975880992 -->
<g id="node17" class="node">
<title>1990975880992</title>
<ellipse fill="white" stroke="black" cx="256.75" cy="-99" rx="27" ry="27"/>
</g>
<!-- 1990976057520&#45;&gt;1990975880992 -->
<g id="edge2" class="edge">
<title>1990976057520&#45;&gt;1990975880992</title>
<path fill="none" stroke="black" d="M194.03,-79.31C202.77,-82.1 211.68,-84.95 219.92,-87.57"/>
<polygon fill="black" stroke="black" points="218.61,-90.83 229.2,-90.53 220.74,-84.16 218.61,-90.83"/>
</g>
<!-- 1990977255760 -->
<g id="node18" class="node">
<title>1990977255760</title>
<ellipse fill="white" stroke="black" cx="256.75" cy="-27" rx="27" ry="27"/>
</g>
<!-- 1990976057520&#45;&gt;1990977255760 -->
<g id="edge3" class="edge">
<title>1990976057520&#45;&gt;1990977255760</title>
<path fill="none" stroke="black" d="M194.03,-46.69C202.77,-43.9 211.68,-41.05 219.92,-38.43"/>
<polygon fill="black" stroke="black" points="220.74,-41.84 229.2,-35.47 218.61,-35.17 220.74,-41.84"/>
</g>
<!-- 1990975910640 -->
<g id="node2" class="node">
<title>1990975910640</title>
<polygon fill="white" stroke="black" points="402.5,-45 319.75,-45 319.75,-9 402.5,-9 402.5,-45"/>
<text text-anchor="middle" x="361.12" y="-21.98" font-family="Times New Roman,serif" font-size="12.00">Frame Design</text>
</g>
<!-- 1990978752048 -->
<g id="node20" class="node">
<title>1990978752048</title>
<ellipse fill="white" stroke="black" cx="465.5" cy="-27" rx="27" ry="27"/>
</g>
<!-- 1990975910640&#45;&gt;1990978752048 -->
<g id="edge7" class="edge">
<title>1990975910640&#45;&gt;1990978752048</title>
<path fill="none" stroke="black" d="M402.88,-27C410.73,-27 418.92,-27 426.67,-27"/>
<polygon fill="black" stroke="black" points="426.49,-30.5 436.49,-27 426.49,-23.5 426.49,-30.5"/>
</g>
<!-- 1990977247984 -->
<g id="node3" class="node">
<title>1990977247984</title>
<polygon fill="white" stroke="black" points="402.12,-117 320.12,-117 320.12,-81 402.12,-81 402.12,-117"/>
<text text-anchor="middle" x="361.12" y="-93.97" font-family="Times New Roman,serif" font-size="12.00">Vendor Audit</text>
</g>
<!-- 1990977249040 -->
<g id="node19" class="node">
<title>1990977249040</title>
<ellipse fill="white" stroke="black" cx="465.5" cy="-99" rx="27" ry="27"/>
</g>
<!-- 1990977247984&#45;&gt;1990977249040 -->
<g id="edge6" class="edge">
<title>1990977247984&#45;&gt;1990977249040</title>
<path fill="none" stroke="black" d="M402.59,-99C410.53,-99 418.83,-99 426.68,-99"/>
<polygon fill="black" stroke="black" points="426.63,-102.5 436.63,-99 426.63,-95.5 426.63,-102.5"/>
</g>
<!-- 1990978752672 -->
<g id="node4" class="node">
<title>1990978752672</title>
<polygon fill="white" stroke="black" points="606.38,-45 531.12,-45 531.12,-9 606.38,-9 606.38,-45"/>
<text text-anchor="middle" x="568.75" y="-21.98" font-family="Times New Roman,serif" font-size="12.00">Material Cut</text>
</g>
<!-- 1990978763664 -->
<g id="node21" class="node">
<title>1990978763664</title>
<ellipse fill="white" stroke="black" cx="672" cy="-27" rx="27" ry="27"/>
</g>
<!-- 1990978752672&#45;&gt;1990978763664 -->
<g id="edge11" class="edge">
<title>1990978752672&#45;&gt;1990978763664</title>
<path fill="none" stroke="black" d="M606.59,-27C615.3,-27 624.59,-27 633.34,-27"/>
<polygon fill="black" stroke="black" points="633.3,-30.5 643.3,-27 633.3,-23.5 633.3,-30.5"/>
</g>
<!-- 1990977249136 -->
<g id="node5" class="node">
<title>1990977249136</title>
<polygon fill="white" stroke="black" points="609,-117 528.5,-117 528.5,-81 609,-81 609,-117"/>
<text text-anchor="middle" x="568.75" y="-93.97" font-family="Times New Roman,serif" font-size="12.00">Part Sourcing</text>
</g>
<!-- 1990978762992 -->
<g id="node22" class="node">
<title>1990978762992</title>
<ellipse fill="white" stroke="black" cx="672" cy="-99" rx="27" ry="27"/>
</g>
<!-- 1990977249136&#45;&gt;1990978762992 -->
<g id="edge10" class="edge">
<title>1990977249136&#45;&gt;1990978762992</title>
<path fill="none" stroke="black" d="M609.48,-99C617.35,-99 625.59,-99 633.39,-99"/>
<polygon fill="black" stroke="black" points="633.27,-102.5 643.27,-99 633.27,-95.5 633.27,-102.5"/>
</g>
<!-- 1990978753632 -->
<g id="node6" class="node">
<title>1990978753632</title>
<polygon fill="white" stroke="black" points="822.25,-81 735,-81 735,-45 822.25,-45 822.25,-81"/>
<text text-anchor="middle" x="778.62" y="-57.98" font-family="Times New Roman,serif" font-size="12.00">Component Fit</text>
</g>
<!-- 1990978753872 -->
<g id="node23" class="node">
<title>1990978753872</title>
<ellipse fill="white" stroke="black" cx="885.25" cy="-63" rx="27" ry="27"/>
</g>
<!-- 1990978753632&#45;&gt;1990978753872 -->
<g id="edge14" class="edge">
<title>1990978753632&#45;&gt;1990978753872</title>
<path fill="none" stroke="black" d="M822.48,-63C830.43,-63 838.67,-63 846.45,-63"/>
<polygon fill="black" stroke="black" points="846.29,-66.5 856.29,-63 846.29,-59.5 846.29,-66.5"/>
</g>
<!-- 1990978754448 -->
<g id="node7" class="node">
<title>1990978754448</title>
<polygon fill="white" stroke="black" points="1027.25,-81 948.25,-81 948.25,-45 1027.25,-45 1027.25,-81"/>
<text text-anchor="middle" x="987.75" y="-57.98" font-family="Times New Roman,serif" font-size="12.00">Wiring Setup</text>
</g>
<!-- 1990978754688 -->
<g id="node24" class="node">
<title>1990978754688</title>
<ellipse fill="white" stroke="black" cx="1090.25" cy="-63" rx="27" ry="27"/>
</g>
<!-- 1990978754448&#45;&gt;1990978754688 -->
<g id="edge16" class="edge">
<title>1990978754448&#45;&gt;1990978754688</title>
<path fill="none" stroke="black" d="M1027.61,-63C1035.46,-63 1043.7,-63 1051.51,-63"/>
<polygon fill="black" stroke="black" points="1051.41,-66.5 1061.41,-63 1051.41,-59.5 1051.41,-66.5"/>
</g>
<!-- 1990978755264 -->
<g id="node8" class="node">
<title>1990978755264</title>
<polygon fill="white" stroke="black" points="1235.25,-81 1153.25,-81 1153.25,-45 1235.25,-45 1235.25,-81"/>
<text text-anchor="middle" x="1194.25" y="-57.98" font-family="Times New Roman,serif" font-size="12.00">Battery Install</text>
</g>
<!-- 1990978755504 -->
<g id="node25" class="node">
<title>1990978755504</title>
<ellipse fill="white" stroke="black" cx="1298.25" cy="-63" rx="27" ry="27"/>
</g>
<!-- 1990978755264&#45;&gt;1990978755504 -->
<g id="edge18" class="edge">
<title>1990978755264&#45;&gt;1990978755504</title>
<path fill="none" stroke="black" d="M1235.56,-63C1243.48,-63 1251.75,-63 1259.57,-63"/>
<polygon fill="black" stroke="black" points="1259.48,-66.5 1269.48,-63 1259.48,-59.5 1259.48,-66.5"/>
</g>
<!-- 1990978756848 -->
<g id="node9" class="node">
<title>1990978756848</title>
<polygon fill="white" stroke="black" points="1450.75,-81 1361.25,-81 1361.25,-45 1450.75,-45 1450.75,-81"/>
<text text-anchor="middle" x="1406" y="-57.98" font-family="Times New Roman,serif" font-size="12.00">Firmware Load</text>
</g>
<!-- 1990978757088 -->
<g id="node26" class="node">
<title>1990978757088</title>
<ellipse fill="white" stroke="black" cx="1513.75" cy="-63" rx="27" ry="27"/>
</g>
<!-- 1990978756848&#45;&gt;1990978757088 -->
<g id="edge20" class="edge">
<title>1990978756848&#45;&gt;1990978757088</title>
<path fill="none" stroke="black" d="M1451.23,-63C1459.2,-63 1467.44,-63 1475.2,-63"/>
<polygon fill="black" stroke="black" points="1474.99,-66.5 1484.99,-63 1474.99,-59.5 1474.99,-66.5"/>
</g>
<!-- 1990978757664 -->
<g id="node10" class="node">
<title>1990978757664</title>
<polygon fill="white" stroke="black" points="1658,-81 1576.75,-81 1576.75,-45 1658,-45 1658,-81"/>
<text text-anchor="middle" x="1617.38" y="-57.98" font-family="Times New Roman,serif" font-size="12.00">Initial Testing</text>
</g>
<!-- 1990978757904 -->
<g id="node27" class="node">
<title>1990978757904</title>
<ellipse fill="white" stroke="black" cx="1721" cy="-99" rx="27" ry="27"/>
</g>
<!-- 1990978757664&#45;&gt;1990978757904 -->
<g id="edge23" class="edge">
<title>1990978757664&#45;&gt;1990978757904</title>
<path fill="none" stroke="black" d="M1658.25,-77.12C1666.91,-80.19 1676.01,-83.42 1684.49,-86.42"/>
<polygon fill="black" stroke="black" points="1683.17,-89.67 1693.76,-89.71 1685.5,-83.07 1683.17,-89.67"/>
</g>
<!-- 1990978758720 -->
<g id="node28" class="node">
<title>1990978758720</title>
<ellipse fill="white" stroke="black" cx="1721" cy="-27" rx="27" ry="27"/>
</g>
<!-- 1990978757664&#45;&gt;1990978758720 -->
<g id="edge22" class="edge">
<title>1990978757664&#45;&gt;1990978758720</title>
<path fill="none" stroke="black" d="M1658.25,-48.88C1666.91,-45.81 1676.01,-42.58 1684.49,-39.58"/>
<polygon fill="black" stroke="black" points="1685.5,-42.93 1693.76,-36.29 1683.17,-36.33 1685.5,-42.93"/>
</g>
<!-- 1990978759296 -->
<g id="node11" class="node">
<title>1990978759296</title>
<polygon fill="white" stroke="black" points="1874.25,-45 1784,-45 1784,-9 1874.25,-9 1874.25,-45"/>
<text text-anchor="middle" x="1829.12" y="-21.98" font-family="Times New Roman,serif" font-size="12.00">Endurance Test</text>
</g>
<!-- 1990978831952 -->
<g id="node30" class="node">
<title>1990978831952</title>
<ellipse fill="white" stroke="black" cx="1937.25" cy="-27" rx="27" ry="27"/>
</g>
<!-- 1990978759296&#45;&gt;1990978831952 -->
<g id="edge27" class="edge">
<title>1990978759296&#45;&gt;1990978831952</title>
<path fill="none" stroke="black" d="M1874.52,-27C1882.51,-27 1890.78,-27 1898.56,-27"/>
<polygon fill="black" stroke="black" points="1898.39,-30.5 1908.39,-27 1898.39,-23.5 1898.39,-30.5"/>
</g>
<!-- 1990978758480 -->
<g id="node12" class="node">
<title>1990978758480</title>
<polygon fill="white" stroke="black" points="1861.88,-117 1796.38,-117 1796.38,-81 1861.88,-81 1861.88,-117"/>
<text text-anchor="middle" x="1829.12" y="-93.97" font-family="Times New Roman,serif" font-size="12.00">Flight Sim</text>
</g>
<!-- 1990978831616 -->
<g id="node29" class="node">
<title>1990978831616</title>
<ellipse fill="white" stroke="black" cx="1937.25" cy="-99" rx="27" ry="27"/>
</g>
<!-- 1990978758480&#45;&gt;1990978831616 -->
<g id="edge26" class="edge">
<title>1990978758480&#45;&gt;1990978831616</title>
<path fill="none" stroke="black" d="M1862.25,-99C1873.69,-99 1886.68,-99 1898.54,-99"/>
<polygon fill="black" stroke="black" points="1898.42,-102.5 1908.42,-99 1898.42,-95.5 1898.42,-102.5"/>
</g>
<!-- 1990978760112 -->
<g id="node13" class="node">
<title>1990978760112</title>
<polygon fill="white" stroke="black" points="2086.75,-81 2000.25,-81 2000.25,-45 2086.75,-45 2086.75,-81"/>
<text text-anchor="middle" x="2043.5" y="-57.98" font-family="Times New Roman,serif" font-size="12.00">Software Tune</text>
</g>
<!-- 1990978760352 -->
<g id="node31" class="node">
<title>1990978760352</title>
<ellipse fill="white" stroke="black" cx="2149.75" cy="-63" rx="27" ry="27"/>
</g>
<!-- 1990978760112&#45;&gt;1990978760352 -->
<g id="edge30" class="edge">
<title>1990978760112&#45;&gt;1990978760352</title>
<path fill="none" stroke="black" d="M2087.2,-63C2095.12,-63 2103.34,-63 2111.09,-63"/>
<polygon fill="black" stroke="black" points="2110.89,-66.5 2120.89,-63 2110.89,-59.5 2110.89,-66.5"/>
</g>
<!-- 1990978760928 -->
<g id="node14" class="node">
<title>1990978760928</title>
<polygon fill="white" stroke="black" points="2282,-81 2212.75,-81 2212.75,-45 2282,-45 2282,-81"/>
<text text-anchor="middle" x="2247.38" y="-57.98" font-family="Times New Roman,serif" font-size="12.00">Safety Cert</text>
</g>
<!-- 1990978761504 -->
<g id="node32" class="node">
<title>1990978761504</title>
<ellipse fill="white" stroke="black" cx="2345" cy="-63" rx="27" ry="27"/>
</g>
<!-- 1990978760928&#45;&gt;1990978761504 -->
<g id="edge32" class="edge">
<title>1990978760928&#45;&gt;1990978761504</title>
<path fill="none" stroke="black" d="M2282.36,-63C2290.06,-63 2298.28,-63 2306.13,-63"/>
<polygon fill="black" stroke="black" points="2306.13,-66.5 2316.13,-63 2306.13,-59.5 2306.13,-66.5"/>
</g>
<!-- 1990978762080 -->
<g id="node15" class="node">
<title>1990978762080</title>
<polygon fill="white" stroke="black" points="2474.25,-81 2408,-81 2408,-45 2474.25,-45 2474.25,-81"/>
<text text-anchor="middle" x="2441.12" y="-57.98" font-family="Times New Roman,serif" font-size="12.00">Final Pack</text>
</g>
<!-- 1990969796576 -->
<g id="node33" class="node">
<title>1990969796576</title>
<ellipse fill="white" stroke="black" cx="2541.25" cy="-63" rx="27" ry="27"/>
<ellipse fill="none" stroke="black" cx="2541.25" cy="-63" rx="31" ry="31"/>
<text text-anchor="start" x="2524.75" y="-47.6" font-family="Times New Roman,serif" font-size="32.00">■</text>
</g>
<!-- 1990978762080&#45;&gt;1990969796576 -->
<g id="edge34" class="edge">
<title>1990978762080&#45;&gt;1990969796576</title>
<path fill="none" stroke="black" d="M2474.53,-63C2482.18,-63 2490.44,-63 2498.44,-63"/>
<polygon fill="black" stroke="black" points="2498.36,-66.5 2508.36,-63 2498.36,-59.5 2498.36,-66.5"/>
</g>
<!-- 1990969794560 -->
<g id="node16" class="node">
<title>1990969794560</title>
<ellipse fill="white" stroke="black" cx="27" cy="-63" rx="27" ry="27"/>
<text text-anchor="start" x="9.75" y="-45.7" font-family="Times New Roman,serif" font-size="34.00">●</text>
</g>
<!-- 1990969794560&#45;&gt;1990976057520 -->
<g id="edge1" class="edge">
<title>1990969794560&#45;&gt;1990976057520</title>
<path fill="none" stroke="black" d="M54.46,-63C61.72,-63 69.91,-63 78.28,-63"/>
<polygon fill="black" stroke="black" points="78.23,-66.5 88.23,-63 78.23,-59.5 78.23,-66.5"/>
</g>
<!-- 1990975880992&#45;&gt;1990977247984 -->
<g id="edge4" class="edge">
<title>1990975880992&#45;&gt;1990977247984</title>
<path fill="none" stroke="black" d="M284.11,-99C291.61,-99 300.04,-99 308.49,-99"/>
<polygon fill="black" stroke="black" points="308.42,-102.5 318.42,-99 308.42,-95.5 308.42,-102.5"/>
</g>
<!-- 1990977255760&#45;&gt;1990975910640 -->
<g id="edge5" class="edge">
<title>1990977255760&#45;&gt;1990975910640</title>
<path fill="none" stroke="black" d="M284.11,-27C291.53,-27 299.86,-27 308.21,-27"/>
<polygon fill="black" stroke="black" points="308.02,-30.5 318.02,-27 308.02,-23.5 308.02,-30.5"/>
</g>
<!-- 1990977249040&#45;&gt;1990977249136 -->
<g id="edge8" class="edge">
<title>1990977249040&#45;&gt;1990977249136</title>
<path fill="none" stroke="black" d="M492.84,-99C500.25,-99 508.57,-99 516.9,-99"/>
<polygon fill="black" stroke="black" points="516.67,-102.5 526.67,-99 516.67,-95.5 516.67,-102.5"/>
</g>
<!-- 1990978752048&#45;&gt;1990978752672 -->
<g id="edge9" class="edge">
<title>1990978752048&#45;&gt;1990978752672</title>
<path fill="none" stroke="black" d="M492.84,-27C501,-27 510.26,-27 519.41,-27"/>
<polygon fill="black" stroke="black" points="519.36,-30.5 529.36,-27 519.36,-23.5 519.36,-30.5"/>
</g>
<!-- 1990978763664&#45;&gt;1990978753632 -->
<g id="edge12" class="edge">
<title>1990978763664&#45;&gt;1990978753632</title>
<path fill="none" stroke="black" d="M698.06,-35.62C705.97,-38.34 715.03,-41.46 724.14,-44.6"/>
<polygon fill="black" stroke="black" points="722.76,-47.82 733.35,-47.77 725.04,-41.2 722.76,-47.82"/>
</g>
<!-- 1990978762992&#45;&gt;1990978753632 -->
<g id="edge13" class="edge">
<title>1990978762992&#45;&gt;1990978753632</title>
<path fill="none" stroke="black" d="M698.06,-90.38C705.97,-87.66 715.03,-84.54 724.14,-81.4"/>
<polygon fill="black" stroke="black" points="725.04,-84.8 733.35,-78.23 722.76,-78.18 725.04,-84.8"/>
</g>
<!-- 1990978753872&#45;&gt;1990978754448 -->
<g id="edge15" class="edge">
<title>1990978753872&#45;&gt;1990978754448</title>
<path fill="none" stroke="black" d="M912.66,-63C920.09,-63 928.44,-63 936.77,-63"/>
<polygon fill="black" stroke="black" points="936.53,-66.5 946.53,-63 936.53,-59.5 936.53,-66.5"/>
</g>
<!-- 1990978754688&#45;&gt;1990978755264 -->
<g id="edge17" class="edge">
<title>1990978754688&#45;&gt;1990978755264</title>
<path fill="none" stroke="black" d="M1117.52,-63C1124.9,-63 1133.2,-63 1141.53,-63"/>
<polygon fill="black" stroke="black" points="1141.3,-66.5 1151.3,-63 1141.3,-59.5 1141.3,-66.5"/>
</g>
<!-- 1990978755504&#45;&gt;1990978756848 -->
<g id="edge19" class="edge">
<title>1990978755504&#45;&gt;1990978756848</title>
<path fill="none" stroke="black" d="M1325.66,-63C1332.98,-63 1341.21,-63 1349.53,-63"/>
<polygon fill="black" stroke="black" points="1349.33,-66.5 1359.33,-63 1349.33,-59.5 1349.33,-66.5"/>
</g>
<!-- 1990978757088&#45;&gt;1990978757664 -->
<g id="edge21" class="edge">
<title>1990978757088&#45;&gt;1990978757664</title>
<path fill="none" stroke="black" d="M1541.19,-63C1548.46,-63 1556.61,-63 1564.78,-63"/>
<polygon fill="black" stroke="black" points="1564.76,-66.5 1574.76,-63 1564.76,-59.5 1564.76,-66.5"/>
</g>
<!-- 1990978757904&#45;&gt;1990978758480 -->
<g id="edge25" class="edge">
<title>1990978757904&#45;&gt;1990978758480</title>
<path fill="none" stroke="black" d="M1748.23,-99C1759.32,-99 1772.54,-99 1784.99,-99"/>
<polygon fill="black" stroke="black" points="1784.62,-102.5 1794.62,-99 1784.62,-95.5 1784.62,-102.5"/>
</g>
<!-- 1990978758720&#45;&gt;1990978759296 -->
<g id="edge24" class="edge">
<title>1990978758720&#45;&gt;1990978759296</title>
<path fill="none" stroke="black" d="M1748.23,-27C1755.58,-27 1763.85,-27 1772.22,-27"/>
<polygon fill="black" stroke="black" points="1772.09,-30.5 1782.09,-27 1772.09,-23.5 1772.09,-30.5"/>
</g>
<!-- 1990978831616&#45;&gt;1990978760112 -->
<g id="edge28" class="edge">
<title>1990978831616&#45;&gt;1990978760112</title>
<path fill="none" stroke="black" d="M1963.22,-90.38C1971.1,-87.66 1980.13,-84.54 1989.2,-81.4"/>
<polygon fill="black" stroke="black" points="1990.07,-84.81 1998.38,-78.23 1987.79,-78.19 1990.07,-84.81"/>
</g>
<!-- 1990978831952&#45;&gt;1990978760112 -->
<g id="edge29" class="edge">
<title>1990978831952&#45;&gt;1990978760112</title>
<path fill="none" stroke="black" d="M1963.22,-35.62C1971.1,-38.34 1980.13,-41.46 1989.2,-44.6"/>
<polygon fill="black" stroke="black" points="1987.79,-47.81 1998.38,-47.77 1990.07,-41.19 1987.79,-47.81"/>
</g>
<!-- 1990978760352&#45;&gt;1990978760928 -->
<g id="edge31" class="edge">
<title>1990978760352&#45;&gt;1990978760928</title>
<path fill="none" stroke="black" d="M2177.13,-63C2184.57,-63 2192.89,-63 2201.1,-63"/>
<polygon fill="black" stroke="black" points="2201.03,-66.5 2211.03,-63 2201.03,-59.5 2201.03,-66.5"/>
</g>
<!-- 1990978761504&#45;&gt;1990978762080 -->
<g id="edge33" class="edge">
<title>1990978761504&#45;&gt;1990978762080</title>
<path fill="none" stroke="black" d="M2372.47,-63C2379.94,-63 2388.26,-63 2396.45,-63"/>
<polygon fill="black" stroke="black" points="2396.32,-66.5 2406.32,-63 2396.32,-59.5 2396.32,-66.5"/>
</g>
</g>
</svg>
