<?xml version="1.0" encoding="UTF-8" standalone="no"?>
<!DOCTYPE svg PUBLIC "-//W3C//DTD SVG 1.1//EN"
 "http://www.w3.org/Graphics/SVG/1.1/DTD/svg11.dtd">
<!-- Generated by graphviz version 11.0.0 (20240428.1522)
 -->
<!-- Title: imdf_net_1754051257.1928763 Pages: 1 -->
<svg width="2861pt" height="226pt"
 viewBox="0.00 0.00 2860.75 226.00" xmlns="http://www.w3.org/2000/svg" xmlns:xlink="http://www.w3.org/1999/xlink">
<g id="graph0" class="graph" transform="scale(1 1) rotate(0) translate(4 222)">
<title>imdf_net_1754051257.1928763</title>
<polygon fill="white" stroke="none" points="-4,4 -4,-222 2856.75,-222 2856.75,4 -4,4"/>
<!-- 1990977514064 -->
<g id="node1" class="node">
<title>1990977514064</title>
<polygon fill="white" stroke="black" points="180.25,-137 90,-137 90,-101 180.25,-101 180.25,-137"/>
<text text-anchor="middle" x="135.12" y="-113.97" font-family="Times New Roman,serif" font-size="12.00">Record Review</text>
</g>
<!-- 1990977519536 -->
<g id="node21" class="node">
<title>1990977519536</title>
<ellipse fill="white" stroke="black" cx="243.25" cy="-191" rx="27" ry="27"/>
</g>
<!-- 1990977514064&#45;&gt;1990977519536 -->
<g id="edge2" class="edge">
<title>1990977514064&#45;&gt;1990977519536</title>
<path fill="none" stroke="black" d="M163.18,-137.35C177.69,-147.2 195.64,-159.38 210.77,-169.64"/>
<polygon fill="black" stroke="black" points="208.75,-172.5 218.99,-175.22 212.68,-166.71 208.75,-172.5"/>
</g>
<!-- 1990977512240 -->
<g id="node22" class="node">
<title>1990977512240</title>
<ellipse fill="white" stroke="black" cx="243.25" cy="-119" rx="27" ry="27"/>
</g>
<!-- 1990977514064&#45;&gt;1990977512240 -->
<g id="edge4" class="edge">
<title>1990977514064&#45;&gt;1990977512240</title>
<path fill="none" stroke="black" d="M180.52,-119C188.51,-119 196.78,-119 204.56,-119"/>
<polygon fill="black" stroke="black" points="204.39,-122.5 214.39,-119 204.39,-115.5 204.39,-122.5"/>
</g>
<!-- 1990976890704 -->
<g id="node23" class="node">
<title>1990976890704</title>
<ellipse fill="white" stroke="black" cx="243.25" cy="-47" rx="27" ry="27"/>
</g>
<!-- 1990977514064&#45;&gt;1990976890704 -->
<g id="edge3" class="edge">
<title>1990977514064&#45;&gt;1990976890704</title>
<path fill="none" stroke="black" d="M163.18,-100.65C177.69,-90.8 195.64,-78.62 210.77,-68.36"/>
<polygon fill="black" stroke="black" points="212.68,-71.29 218.99,-62.78 208.75,-65.5 212.68,-71.29"/>
</g>
<!-- 1990977511184 -->
<g id="node2" class="node">
<title>1990977511184</title>
<polygon fill="white" stroke="black" points="401,-137 322.75,-137 322.75,-101 401,-101 401,-137"/>
<text text-anchor="middle" x="361.88" y="-113.97" font-family="Times New Roman,serif" font-size="12.00">Material Test</text>
</g>
<!-- 1990977969600 -->
<g id="node25" class="node">
<title>1990977969600</title>
<ellipse fill="white" stroke="black" cx="480.5" cy="-119" rx="27" ry="27"/>
</g>
<!-- 1990977511184&#45;&gt;1990977969600 -->
<g id="edge10" class="edge">
<title>1990977511184&#45;&gt;1990977969600</title>
<path fill="none" stroke="black" d="M401.39,-119C414.39,-119 428.89,-119 441.82,-119"/>
<polygon fill="black" stroke="black" points="441.67,-122.5 451.67,-119 441.67,-115.5 441.67,-122.5"/>
</g>
<!-- 1990977516224 -->
<g id="node3" class="node">
<title>1990977516224</title>
<polygon fill="white" stroke="black" points="414.5,-209 309.25,-209 309.25,-173 414.5,-173 414.5,-209"/>
<text text-anchor="middle" x="361.88" y="-185.97" font-family="Times New Roman,serif" font-size="12.00">Provenance Check</text>
</g>
<!-- 1990977972096 -->
<g id="node24" class="node">
<title>1990977972096</title>
<ellipse fill="white" stroke="black" cx="480.5" cy="-191" rx="27" ry="27"/>
</g>
<!-- 1990977516224&#45;&gt;1990977972096 -->
<g id="edge9" class="edge">
<title>1990977516224&#45;&gt;1990977972096</title>
<path fill="none" stroke="black" d="M414.71,-191C423.83,-191 433.16,-191 441.8,-191"/>
<polygon fill="black" stroke="black" points="441.55,-194.5 451.55,-191 441.55,-187.5 441.55,-194.5"/>
</g>
<!-- 1990976889936 -->
<g id="node4" class="node">
<title>1990976889936</title>
<polygon fill="white" stroke="black" points="417.5,-65 306.25,-65 306.25,-29 417.5,-29 417.5,-65"/>
<text text-anchor="middle" x="361.88" y="-41.98" font-family="Times New Roman,serif" font-size="12.00">Ownership Confirm</text>
</g>
<!-- 1990977970896 -->
<g id="node26" class="node">
<title>1990977970896</title>
<ellipse fill="white" stroke="black" cx="480.5" cy="-47" rx="27" ry="27"/>
</g>
<!-- 1990976889936&#45;&gt;1990977970896 -->
<g id="edge8" class="edge">
<title>1990976889936&#45;&gt;1990977970896</title>
<path fill="none" stroke="black" d="M417.77,-47C425.84,-47 433.99,-47 441.61,-47"/>
<polygon fill="black" stroke="black" points="441.54,-50.5 451.54,-47 441.54,-43.5 441.54,-50.5"/>
</g>
<!-- 1990976894064 -->
<g id="node5" class="node">
<title>1990976894064</title>
<polygon fill="black" stroke="black" points="597.5,-137 543.5,-137 543.5,-101 597.5,-101 597.5,-137"/>
</g>
<!-- 1990976894880 -->
<g id="node27" class="node">
<title>1990976894880</title>
<ellipse fill="white" stroke="black" cx="660.5" cy="-119" rx="27" ry="27"/>
</g>
<!-- 1990976894064&#45;&gt;1990976894880 -->
<g id="edge14" class="edge">
<title>1990976894064&#45;&gt;1990976894880</title>
<path fill="none" stroke="black" d="M597.9,-119C605.39,-119 613.68,-119 621.7,-119"/>
<polygon fill="black" stroke="black" points="621.6,-122.5 631.6,-119 621.6,-115.5 621.6,-122.5"/>
</g>
<!-- 1990976881776 -->
<g id="node6" class="node">
<title>1990976881776</title>
<polygon fill="white" stroke="black" points="810.75,-110 723.5,-110 723.5,-74 810.75,-74 810.75,-110"/>
<text text-anchor="middle" x="767.12" y="-86.97" font-family="Times New Roman,serif" font-size="12.00">Expert Consult</text>
</g>
<!-- 1990976881008 -->
<g id="node28" class="node">
<title>1990976881008</title>
<ellipse fill="white" stroke="black" cx="873.75" cy="-91" rx="27" ry="27"/>
</g>
<!-- 1990976881776&#45;&gt;1990976881008 -->
<g id="edge16" class="edge">
<title>1990976881776&#45;&gt;1990976881008</title>
<path fill="none" stroke="black" d="M810.98,-91.59C818.93,-91.51 827.17,-91.44 834.95,-91.36"/>
<polygon fill="black" stroke="black" points="834.82,-94.86 844.79,-91.27 834.76,-87.86 834.82,-94.86"/>
</g>
<!-- 1990976881152 -->
<g id="node7" class="node">
<title>1990976881152</title>
<polygon fill="white" stroke="black" points="1027,-163 945,-163 945,-127 1027,-127 1027,-163"/>
<text text-anchor="middle" x="986" y="-139.97" font-family="Times New Roman,serif" font-size="12.00">Risk Evaluate</text>
</g>
<!-- 1990976881152&#45;&gt;1990976894880 -->
<g id="edge19" class="edge">
<title>1990976881152&#45;&gt;1990976894880</title>
<path fill="none" stroke="black" d="M944.65,-141.76C881.58,-136.69 760.51,-126.96 699.14,-122.03"/>
<polygon fill="black" stroke="black" points="699.46,-118.54 689.21,-121.23 698.9,-125.52 699.46,-118.54"/>
</g>
<!-- 1990977244288 -->
<g id="node8" class="node">
<title>1990977244288</title>
<polygon fill="white" stroke="black" points="1035.25,-109 936.75,-109 936.75,-73 1035.25,-73 1035.25,-109"/>
<text text-anchor="middle" x="986" y="-85.97" font-family="Times New Roman,serif" font-size="12.00">Condition Assess</text>
</g>
<!-- 1990977248512 -->
<g id="node29" class="node">
<title>1990977248512</title>
<ellipse fill="white" stroke="black" cx="1098.25" cy="-91" rx="27" ry="27"/>
</g>
<!-- 1990977244288&#45;&gt;1990977248512 -->
<g id="edge20" class="edge">
<title>1990977244288&#45;&gt;1990977248512</title>
<path fill="none" stroke="black" d="M1035.68,-91C1043.63,-91 1051.76,-91 1059.4,-91"/>
<polygon fill="black" stroke="black" points="1059.39,-94.5 1069.39,-91 1059.39,-87.5 1059.39,-94.5"/>
</g>
<!-- 1990977247888 -->
<g id="node9" class="node">
<title>1990977247888</title>
<polygon fill="white" stroke="black" points="1255.25,-82 1161.25,-82 1161.25,-46 1255.25,-46 1255.25,-82"/>
<text text-anchor="middle" x="1208.25" y="-58.98" font-family="Times New Roman,serif" font-size="12.00">Restoration Plan</text>
</g>
<!-- 1990977248752 -->
<g id="node30" class="node">
<title>1990977248752</title>
<ellipse fill="white" stroke="black" cx="1318.25" cy="-63" rx="27" ry="27"/>
</g>
<!-- 1990977247888&#45;&gt;1990977248752 -->
<g id="edge22" class="edge">
<title>1990977247888&#45;&gt;1990977248752</title>
<path fill="none" stroke="black" d="M1255.68,-63.57C1263.56,-63.5 1271.66,-63.42 1279.28,-63.35"/>
<polygon fill="black" stroke="black" points="1279.31,-66.85 1289.27,-63.26 1279.24,-59.85 1279.31,-66.85"/>
</g>
<!-- 1990977255184 -->
<g id="node10" class="node">
<title>1990977255184</title>
<polygon fill="white" stroke="black" points="1479.75,-135 1381.25,-135 1381.25,-99 1479.75,-99 1479.75,-135"/>
<text text-anchor="middle" x="1430.5" y="-111.97" font-family="Times New Roman,serif" font-size="12.00">Condition Assess</text>
</g>
<!-- 1990977255184&#45;&gt;1990977248512 -->
<g id="edge25" class="edge">
<title>1990977255184&#45;&gt;1990977248512</title>
<path fill="none" stroke="black" d="M1381.01,-113.18C1314.58,-107.95 1196.69,-98.67 1136.65,-93.94"/>
<polygon fill="black" stroke="black" points="1137.19,-90.48 1126.95,-93.18 1136.64,-97.45 1137.19,-90.48"/>
</g>
<!-- 1990978189552 -->
<g id="node11" class="node">
<title>1990978189552</title>
<polygon fill="black" stroke="black" points="1457.5,-81 1403.5,-81 1403.5,-45 1457.5,-45 1457.5,-81"/>
</g>
<!-- 1990978191136 -->
<g id="node31" class="node">
<title>1990978191136</title>
<ellipse fill="white" stroke="black" cx="1542.75" cy="-99" rx="27" ry="27"/>
</g>
<!-- 1990978189552&#45;&gt;1990978191136 -->
<g id="edge26" class="edge">
<title>1990978189552&#45;&gt;1990978191136</title>
<path fill="none" stroke="black" d="M1457.91,-71.62C1472.26,-76.31 1490.22,-82.17 1505.83,-87.27"/>
<polygon fill="black" stroke="black" points="1504.66,-90.57 1515.26,-90.35 1506.84,-83.92 1504.66,-90.57"/>
</g>
<!-- 1990978178608 -->
<g id="node32" class="node">
<title>1990978178608</title>
<ellipse fill="white" stroke="black" cx="1542.75" cy="-27" rx="27" ry="27"/>
</g>
<!-- 1990978189552&#45;&gt;1990978178608 -->
<g id="edge27" class="edge">
<title>1990978189552&#45;&gt;1990978178608</title>
<path fill="none" stroke="black" d="M1457.91,-54.38C1472.26,-49.69 1490.22,-43.83 1505.83,-38.73"/>
<polygon fill="black" stroke="black" points="1506.84,-42.08 1515.26,-35.65 1504.66,-35.43 1506.84,-42.08"/>
</g>
<!-- 1990978187536 -->
<g id="node12" class="node">
<title>1990978187536</title>
<polygon fill="white" stroke="black" points="1691.12,-45 1614.38,-45 1614.38,-9 1691.12,-9 1691.12,-45"/>
<text text-anchor="middle" x="1652.75" y="-21.98" font-family="Times New Roman,serif" font-size="12.00">Legal Verify</text>
</g>
<!-- 1990977976752 -->
<g id="node34" class="node">
<title>1990977976752</title>
<ellipse fill="white" stroke="black" cx="1762.75" cy="-27" rx="27" ry="27"/>
</g>
<!-- 1990978187536&#45;&gt;1990977976752 -->
<g id="edge30" class="edge">
<title>1990978187536&#45;&gt;1990977976752</title>
<path fill="none" stroke="black" d="M1691.52,-27C1702.04,-27 1713.47,-27 1723.98,-27"/>
<polygon fill="black" stroke="black" points="1723.86,-30.5 1733.86,-27 1723.86,-23.5 1723.86,-30.5"/>
</g>
<!-- 1990978699968 -->
<g id="node13" class="node">
<title>1990978699968</title>
<polygon fill="white" stroke="black" points="1699.75,-117 1605.75,-117 1605.75,-81 1699.75,-81 1699.75,-117"/>
<text text-anchor="middle" x="1652.75" y="-93.97" font-family="Times New Roman,serif" font-size="12.00">Insurance Quote</text>
</g>
<!-- 1990977975072 -->
<g id="node33" class="node">
<title>1990977975072</title>
<ellipse fill="white" stroke="black" cx="1762.75" cy="-99" rx="27" ry="27"/>
</g>
<!-- 1990978699968&#45;&gt;1990977975072 -->
<g id="edge31" class="edge">
<title>1990978699968&#45;&gt;1990977975072</title>
<path fill="none" stroke="black" d="M1700.18,-99C1708.06,-99 1716.16,-99 1723.78,-99"/>
<polygon fill="black" stroke="black" points="1723.77,-102.5 1733.77,-99 1723.77,-95.5 1723.77,-102.5"/>
</g>
<!-- 1990978702992 -->
<g id="node14" class="node">
<title>1990978702992</title>
<polygon fill="white" stroke="black" points="1916,-81 1825.75,-81 1825.75,-45 1916,-45 1916,-81"/>
<text text-anchor="middle" x="1870.88" y="-57.98" font-family="Times New Roman,serif" font-size="12.00">Value Appraise</text>
</g>
<!-- 1990978703136 -->
<g id="node35" class="node">
<title>1990978703136</title>
<ellipse fill="white" stroke="black" cx="1979" cy="-63" rx="27" ry="27"/>
</g>
<!-- 1990978702992&#45;&gt;1990978703136 -->
<g id="edge34" class="edge">
<title>1990978702992&#45;&gt;1990978703136</title>
<path fill="none" stroke="black" d="M1916.27,-63C1924.26,-63 1932.53,-63 1940.31,-63"/>
<polygon fill="black" stroke="black" points="1940.14,-66.5 1950.14,-63 1940.14,-59.5 1940.14,-66.5"/>
</g>
<!-- 1990978701168 -->
<g id="node15" class="node">
<title>1990978701168</title>
<polygon fill="white" stroke="black" points="2118,-81 2042,-81 2042,-45 2118,-45 2118,-81"/>
<text text-anchor="middle" x="2080" y="-57.98" font-family="Times New Roman,serif" font-size="12.00">Report Draft</text>
</g>
<!-- 1990978701696 -->
<g id="node36" class="node">
<title>1990978701696</title>
<ellipse fill="white" stroke="black" cx="2181" cy="-63" rx="27" ry="27"/>
</g>
<!-- 1990978701168&#45;&gt;1990978701696 -->
<g id="edge36" class="edge">
<title>1990978701168&#45;&gt;1990978701696</title>
<path fill="none" stroke="black" d="M2118.43,-63C2126.21,-63 2134.41,-63 2142.21,-63"/>
<polygon fill="black" stroke="black" points="2142.1,-66.5 2152.1,-63 2142.1,-59.5 2142.1,-66.5"/>
</g>
<!-- 1990978699344 -->
<g id="node16" class="node">
<title>1990978699344</title>
<polygon fill="white" stroke="black" points="2332,-81 2244,-81 2244,-45 2332,-45 2332,-81"/>
<text text-anchor="middle" x="2288" y="-57.98" font-family="Times New Roman,serif" font-size="12.00">Final Approval</text>
</g>
<!-- 1990978703280 -->
<g id="node37" class="node">
<title>1990978703280</title>
<ellipse fill="white" stroke="black" cx="2395" cy="-99" rx="27" ry="27"/>
</g>
<!-- 1990978699344&#45;&gt;1990978703280 -->
<g id="edge38" class="edge">
<title>1990978699344&#45;&gt;1990978703280</title>
<path fill="none" stroke="black" d="M2332.31,-77.85C2340.94,-80.81 2349.9,-83.88 2358.23,-86.74"/>
<polygon fill="black" stroke="black" points="2357.09,-90.05 2367.69,-89.98 2359.36,-83.42 2357.09,-90.05"/>
</g>
<!-- 1990978709328 -->
<g id="node38" class="node">
<title>1990978709328</title>
<ellipse fill="white" stroke="black" cx="2395" cy="-27" rx="27" ry="27"/>
</g>
<!-- 1990978699344&#45;&gt;1990978709328 -->
<g id="edge39" class="edge">
<title>1990978699344&#45;&gt;1990978709328</title>
<path fill="none" stroke="black" d="M2332.31,-48.15C2340.94,-45.19 2349.9,-42.12 2358.23,-39.26"/>
<polygon fill="black" stroke="black" points="2359.36,-42.58 2367.69,-36.02 2357.09,-35.95 2359.36,-42.58"/>
</g>
<!-- 1990978710048 -->
<g id="node17" class="node">
<title>1990978710048</title>
<polygon fill="white" stroke="black" points="2543.75,-117 2464.75,-117 2464.75,-81 2543.75,-81 2543.75,-117"/>
<text text-anchor="middle" x="2504.25" y="-93.97" font-family="Times New Roman,serif" font-size="12.00">Ledger Entry</text>
</g>
<!-- 1990977973632 -->
<g id="node39" class="node">
<title>1990977973632</title>
<ellipse fill="white" stroke="black" cx="2613.5" cy="-99" rx="27" ry="27"/>
</g>
<!-- 1990978710048&#45;&gt;1990977973632 -->
<g id="edge43" class="edge">
<title>1990978710048&#45;&gt;1990977973632</title>
<path fill="none" stroke="black" d="M2543.97,-99C2554.06,-99 2564.92,-99 2574.95,-99"/>
<polygon fill="black" stroke="black" points="2574.73,-102.5 2584.73,-99 2574.73,-95.5 2574.73,-102.5"/>
</g>
<!-- 1990978710864 -->
<g id="node18" class="node">
<title>1990978710864</title>
<polygon fill="white" stroke="black" points="2550.5,-45 2458,-45 2458,-9 2550.5,-9 2550.5,-45"/>
<text text-anchor="middle" x="2504.25" y="-21.98" font-family="Times New Roman,serif" font-size="12.00">Blockchain Log</text>
</g>
<!-- 1990977972720 -->
<g id="node40" class="node">
<title>1990977972720</title>
<ellipse fill="white" stroke="black" cx="2613.5" cy="-27" rx="27" ry="27"/>
</g>
<!-- 1990978710864&#45;&gt;1990977972720 -->
<g id="edge42" class="edge">
<title>1990978710864&#45;&gt;1990977972720</title>
<path fill="none" stroke="black" d="M2550.73,-27C2558.77,-27 2567.06,-27 2574.85,-27"/>
<polygon fill="black" stroke="black" points="2574.69,-30.5 2584.69,-27 2574.69,-23.5 2574.69,-30.5"/>
</g>
<!-- 1990978704144 -->
<g id="node19" class="node">
<title>1990978704144</title>
<polygon fill="white" stroke="black" points="2754.75,-81 2676.5,-81 2676.5,-45 2754.75,-45 2754.75,-81"/>
<text text-anchor="middle" x="2715.62" y="-57.98" font-family="Times New Roman,serif" font-size="12.00">Client Notify</text>
</g>
<!-- 1990978834544 -->
<g id="node41" class="node">
<title>1990978834544</title>
<ellipse fill="white" stroke="black" cx="2821.75" cy="-63" rx="27" ry="27"/>
<ellipse fill="none" stroke="black" cx="2821.75" cy="-63" rx="31" ry="31"/>
<text text-anchor="start" x="2805.25" y="-47.6" font-family="Times New Roman,serif" font-size="32.00">■</text>
</g>
<!-- 1990978704144&#45;&gt;1990978834544 -->
<g id="edge46" class="edge">
<title>1990978704144&#45;&gt;1990978834544</title>
<path fill="none" stroke="black" d="M2755.1,-63C2762.96,-63 2771.27,-63 2779.23,-63"/>
<polygon fill="black" stroke="black" points="2779.05,-66.5 2789.05,-63 2779.05,-59.5 2779.05,-66.5"/>
</g>
<!-- 1990978835936 -->
<g id="node20" class="node">
<title>1990978835936</title>
<ellipse fill="white" stroke="black" cx="27" cy="-119" rx="27" ry="27"/>
<text text-anchor="start" x="9.75" y="-101.7" font-family="Times New Roman,serif" font-size="34.00">●</text>
</g>
<!-- 1990978835936&#45;&gt;1990977514064 -->
<g id="edge1" class="edge">
<title>1990978835936&#45;&gt;1990977514064</title>
<path fill="none" stroke="black" d="M54.23,-119C61.58,-119 69.85,-119 78.22,-119"/>
<polygon fill="black" stroke="black" points="78.09,-122.5 88.09,-119 78.09,-115.5 78.09,-122.5"/>
</g>
<!-- 1990977519536&#45;&gt;1990977516224 -->
<g id="edge6" class="edge">
<title>1990977519536&#45;&gt;1990977516224</title>
<path fill="none" stroke="black" d="M270.71,-191C278.74,-191 287.93,-191 297.3,-191"/>
<polygon fill="black" stroke="black" points="297.24,-194.5 307.24,-191 297.24,-187.5 297.24,-194.5"/>
</g>
<!-- 1990977512240&#45;&gt;1990977511184 -->
<g id="edge5" class="edge">
<title>1990977512240&#45;&gt;1990977511184</title>
<path fill="none" stroke="black" d="M270.71,-119C282.69,-119 297.24,-119 311.13,-119"/>
<polygon fill="black" stroke="black" points="311.06,-122.5 321.06,-119 311.06,-115.5 311.06,-122.5"/>
</g>
<!-- 1990976890704&#45;&gt;1990976889936 -->
<g id="edge7" class="edge">
<title>1990976890704&#45;&gt;1990976889936</title>
<path fill="none" stroke="black" d="M270.71,-47C277.92,-47 286.07,-47 294.44,-47"/>
<polygon fill="black" stroke="black" points="294.42,-50.5 304.42,-47 294.42,-43.5 294.42,-50.5"/>
</g>
<!-- 1990977972096&#45;&gt;1990976894064 -->
<g id="edge12" class="edge">
<title>1990977972096&#45;&gt;1990976894064</title>
<path fill="none" stroke="black" d="M501.91,-174.3C512.67,-165.5 526.11,-154.5 538.16,-144.64"/>
<polygon fill="black" stroke="black" points="540.34,-147.38 545.87,-138.34 535.91,-141.96 540.34,-147.38"/>
</g>
<!-- 1990977969600&#45;&gt;1990976894064 -->
<g id="edge13" class="edge">
<title>1990977969600&#45;&gt;1990976894064</title>
<path fill="none" stroke="black" d="M507.9,-119C515.39,-119 523.68,-119 531.7,-119"/>
<polygon fill="black" stroke="black" points="531.6,-122.5 541.6,-119 531.6,-115.5 531.6,-122.5"/>
</g>
<!-- 1990977970896&#45;&gt;1990976894064 -->
<g id="edge11" class="edge">
<title>1990977970896&#45;&gt;1990976894064</title>
<path fill="none" stroke="black" d="M501.91,-63.7C512.67,-72.5 526.11,-83.5 538.16,-93.36"/>
<polygon fill="black" stroke="black" points="535.91,-96.04 545.87,-99.66 540.34,-90.62 535.91,-96.04"/>
</g>
<!-- 1990976894880&#45;&gt;1990976881776 -->
<g id="edge15" class="edge">
<title>1990976894880&#45;&gt;1990976881776</title>
<path fill="none" stroke="black" d="M687.09,-112.4C694.75,-110.42 703.45,-108.17 712.21,-105.91"/>
<polygon fill="black" stroke="black" points="712.99,-109.33 721.8,-103.44 711.24,-102.55 712.99,-109.33"/>
</g>
<!-- 1990976881008&#45;&gt;1990976881152 -->
<g id="edge17" class="edge">
<title>1990976881008&#45;&gt;1990976881152</title>
<path fill="none" stroke="black" d="M898.4,-102.58C909.8,-108.17 923.89,-115.07 937.37,-121.67"/>
<polygon fill="black" stroke="black" points="935.63,-124.72 946.15,-125.97 938.71,-118.43 935.63,-124.72"/>
</g>
<!-- 1990976881008&#45;&gt;1990977244288 -->
<g id="edge18" class="edge">
<title>1990976881008&#45;&gt;1990977244288</title>
<path fill="none" stroke="black" d="M901.16,-91C908.43,-91 916.62,-91 924.97,-91"/>
<polygon fill="black" stroke="black" points="924.86,-94.5 934.86,-91 924.86,-87.5 924.86,-94.5"/>
</g>
<!-- 1990977248512&#45;&gt;1990977247888 -->
<g id="edge21" class="edge">
<title>1990977248512&#45;&gt;1990977247888</title>
<path fill="none" stroke="black" d="M1124.84,-84.6C1132.48,-82.69 1141.17,-80.52 1149.97,-78.32"/>
<polygon fill="black" stroke="black" points="1150.8,-81.72 1159.65,-75.9 1149.1,-74.93 1150.8,-81.72"/>
</g>
<!-- 1990977248752&#45;&gt;1990977255184 -->
<g id="edge23" class="edge">
<title>1990977248752&#45;&gt;1990977255184</title>
<path fill="none" stroke="black" d="M1342.9,-74.58C1354.3,-80.17 1368.39,-87.07 1381.87,-93.67"/>
<polygon fill="black" stroke="black" points="1380.13,-96.72 1390.65,-97.97 1383.21,-90.43 1380.13,-96.72"/>
</g>
<!-- 1990977248752&#45;&gt;1990978189552 -->
<g id="edge24" class="edge">
<title>1990977248752&#45;&gt;1990978189552</title>
<path fill="none" stroke="black" d="M1345.66,-63C1359.57,-63 1376.86,-63 1392.12,-63"/>
<polygon fill="black" stroke="black" points="1391.79,-66.5 1401.79,-63 1391.79,-59.5 1391.79,-66.5"/>
</g>
<!-- 1990978191136&#45;&gt;1990978699968 -->
<g id="edge28" class="edge">
<title>1990978191136&#45;&gt;1990978699968</title>
<path fill="none" stroke="black" d="M1570.17,-99C1577.47,-99 1585.69,-99 1594.02,-99"/>
<polygon fill="black" stroke="black" points="1593.88,-102.5 1603.88,-99 1593.88,-95.5 1593.88,-102.5"/>
</g>
<!-- 1990978178608&#45;&gt;1990978187536 -->
<g id="edge29" class="edge">
<title>1990978178608&#45;&gt;1990978187536</title>
<path fill="none" stroke="black" d="M1570.17,-27C1580,-27 1591.49,-27 1602.69,-27"/>
<polygon fill="black" stroke="black" points="1602.67,-30.5 1612.67,-27 1602.67,-23.5 1602.67,-30.5"/>
</g>
<!-- 1990977975072&#45;&gt;1990978702992 -->
<g id="edge32" class="edge">
<title>1990977975072&#45;&gt;1990978702992</title>
<path fill="none" stroke="black" d="M1788.63,-90.56C1796.56,-87.87 1805.67,-84.78 1814.85,-81.67"/>
<polygon fill="black" stroke="black" points="1815.83,-85.03 1824.17,-78.5 1813.58,-78.4 1815.83,-85.03"/>
</g>
<!-- 1990977976752&#45;&gt;1990978702992 -->
<g id="edge33" class="edge">
<title>1990977976752&#45;&gt;1990978702992</title>
<path fill="none" stroke="black" d="M1788.63,-35.44C1796.56,-38.13 1805.67,-41.22 1814.85,-44.33"/>
<polygon fill="black" stroke="black" points="1813.58,-47.6 1824.17,-47.5 1815.83,-40.97 1813.58,-47.6"/>
</g>
<!-- 1990978703136&#45;&gt;1990978701168 -->
<g id="edge35" class="edge">
<title>1990978703136&#45;&gt;1990978701168</title>
<path fill="none" stroke="black" d="M2006.27,-63C2013.75,-63 2022.15,-63 2030.51,-63"/>
<polygon fill="black" stroke="black" points="2030.28,-66.5 2040.28,-63 2030.28,-59.5 2030.28,-66.5"/>
</g>
<!-- 1990978701696&#45;&gt;1990978699344 -->
<g id="edge37" class="edge">
<title>1990978701696&#45;&gt;1990978699344</title>
<path fill="none" stroke="black" d="M2208.5,-63C2215.85,-63 2224.11,-63 2232.44,-63"/>
<polygon fill="black" stroke="black" points="2232.25,-66.5 2242.25,-63 2232.25,-59.5 2232.25,-66.5"/>
</g>
<!-- 1990978703280&#45;&gt;1990978710048 -->
<g id="edge40" class="edge">
<title>1990978703280&#45;&gt;1990978710048</title>
<path fill="none" stroke="black" d="M2422.24,-99C2431.53,-99 2442.32,-99 2452.93,-99"/>
<polygon fill="black" stroke="black" points="2452.79,-102.5 2462.79,-99 2452.79,-95.5 2452.79,-102.5"/>
</g>
<!-- 1990978709328&#45;&gt;1990978710864 -->
<g id="edge41" class="edge">
<title>1990978709328&#45;&gt;1990978710864</title>
<path fill="none" stroke="black" d="M2422.24,-27C2429.57,-27 2437.84,-27 2446.22,-27"/>
<polygon fill="black" stroke="black" points="2446.12,-30.5 2456.12,-27 2446.12,-23.5 2446.12,-30.5"/>
</g>
<!-- 1990977973632&#45;&gt;1990978704144 -->
<g id="edge44" class="edge">
<title>1990977973632&#45;&gt;1990978704144</title>
<path fill="none" stroke="black" d="M2639.25,-90.1C2647.24,-87.23 2656.4,-83.93 2665.52,-80.66"/>
<polygon fill="black" stroke="black" points="2666.48,-84.03 2674.7,-77.35 2664.11,-77.44 2666.48,-84.03"/>
</g>
<!-- 1990977972720&#45;&gt;1990978704144 -->
<g id="edge45" class="edge">
<title>1990977972720&#45;&gt;1990978704144</title>
<path fill="none" stroke="black" d="M2639.25,-35.9C2647.24,-38.77 2656.4,-42.07 2665.52,-45.34"/>
<polygon fill="black" stroke="black" points="2664.11,-48.56 2674.7,-48.65 2666.48,-41.97 2664.11,-48.56"/>
</g>
</g>
</svg>
