<?xml version="1.0" encoding="UTF-8" standalone="no"?>
<!DOCTYPE svg PUBLIC "-//W3C//DTD SVG 1.1//EN"
 "http://www.w3.org/Graphics/SVG/1.1/DTD/svg11.dtd">
<!-- Generated by graphviz version 11.0.0 (20240428.1522)
 -->
<!-- Title: imdf_net_1754051258.2393517 Pages: 1 -->
<svg width="2444pt" height="289pt"
 viewBox="0.00 0.00 2444.00 289.00" xmlns="http://www.w3.org/2000/svg" xmlns:xlink="http://www.w3.org/1999/xlink">
<g id="graph0" class="graph" transform="scale(1 1) rotate(0) translate(4 285)">
<title>imdf_net_1754051258.2393517</title>
<polygon fill="white" stroke="none" points="-4,4 -4,-285 2440,-285 2440,4 -4,4"/>
<!-- 1990969425024 -->
<g id="node1" class="node">
<title>1990969425024</title>
<polygon fill="black" stroke="black" points="144,-81 90,-81 90,-45 144,-45 144,-81"/>
</g>
<!-- 1990976658112 -->
<g id="node21" class="node">
<title>1990976658112</title>
<ellipse fill="white" stroke="black" cx="207" cy="-99" rx="27" ry="27"/>
</g>
<!-- 1990969425024&#45;&gt;1990976658112 -->
<g id="edge3" class="edge">
<title>1990969425024&#45;&gt;1990976658112</title>
<path fill="none" stroke="black" d="M144.4,-73.8C152.75,-77.22 162.12,-81.05 170.97,-84.67"/>
<polygon fill="black" stroke="black" points="169.44,-87.83 180.02,-88.37 172.09,-81.35 169.44,-87.83"/>
</g>
<!-- 1990977371216 -->
<g id="node22" class="node">
<title>1990977371216</title>
<ellipse fill="white" stroke="black" cx="207" cy="-27" rx="27" ry="27"/>
</g>
<!-- 1990969425024&#45;&gt;1990977371216 -->
<g id="edge2" class="edge">
<title>1990969425024&#45;&gt;1990977371216</title>
<path fill="none" stroke="black" d="M144.4,-52.2C152.75,-48.78 162.12,-44.95 170.97,-41.33"/>
<polygon fill="black" stroke="black" points="172.09,-44.65 180.02,-37.63 169.44,-38.17 172.09,-44.65"/>
</g>
<!-- 1990976667280 -->
<g id="node2" class="node">
<title>1990976667280</title>
<polygon fill="white" stroke="black" points="361,-117 270,-117 270,-81 361,-81 361,-117"/>
<text text-anchor="middle" x="315.5" y="-93.97" font-family="Times New Roman,serif" font-size="12.00">Breed Selection</text>
</g>
<!-- 1990976653216 -->
<g id="node23" class="node">
<title>1990976653216</title>
<ellipse fill="white" stroke="black" cx="424" cy="-99" rx="27" ry="27"/>
</g>
<!-- 1990976667280&#45;&gt;1990976653216 -->
<g id="edge6" class="edge">
<title>1990976667280&#45;&gt;1990976653216</title>
<path fill="none" stroke="black" d="M361.36,-99C369.36,-99 377.62,-99 385.4,-99"/>
<polygon fill="black" stroke="black" points="385.21,-102.5 395.21,-99 385.21,-95.5 385.21,-102.5"/>
</g>
<!-- 1990977367376 -->
<g id="node3" class="node">
<title>1990977367376</title>
<polygon fill="white" stroke="black" points="358.75,-45 272.25,-45 272.25,-9 358.75,-9 358.75,-45"/>
<text text-anchor="middle" x="315.5" y="-21.98" font-family="Times New Roman,serif" font-size="12.00">Trace Logging</text>
</g>
<!-- 1990977371360 -->
<g id="node24" class="node">
<title>1990977371360</title>
<ellipse fill="white" stroke="black" cx="526.12" cy="-27" rx="27" ry="27"/>
</g>
<!-- 1990977367376&#45;&gt;1990977371360 -->
<g id="edge7" class="edge">
<title>1990977367376&#45;&gt;1990977371360</title>
<path fill="none" stroke="black" d="M359.22,-27C396.82,-27 451.04,-27 487.14,-27"/>
<polygon fill="black" stroke="black" points="487.13,-30.5 497.13,-27 487.13,-23.5 487.13,-30.5"/>
</g>
<!-- 1990976660752 -->
<g id="node4" class="node">
<title>1990976660752</title>
<polygon fill="white" stroke="black" points="565.25,-117 487,-117 487,-81 565.25,-81 565.25,-117"/>
<text text-anchor="middle" x="526.12" y="-93.97" font-family="Times New Roman,serif" font-size="12.00">Milk Harvest</text>
</g>
<!-- 1990976660656 -->
<g id="node25" class="node">
<title>1990976660656</title>
<ellipse fill="white" stroke="black" cx="628.25" cy="-99" rx="27" ry="27"/>
</g>
<!-- 1990976660752&#45;&gt;1990976660656 -->
<g id="edge10" class="edge">
<title>1990976660752&#45;&gt;1990976660656</title>
<path fill="none" stroke="black" d="M565.55,-99C573.39,-99 581.63,-99 589.44,-99"/>
<polygon fill="black" stroke="black" points="589.36,-102.5 599.36,-99 589.36,-95.5 589.36,-102.5"/>
</g>
<!-- 1990976662240 -->
<g id="node5" class="node">
<title>1990976662240</title>
<polygon fill="black" stroke="black" points="2324.38,-73 2270.38,-73 2270.38,-37 2324.38,-37 2324.38,-73"/>
</g>
<!-- 1990969425696 -->
<g id="node26" class="node">
<title>1990969425696</title>
<ellipse fill="white" stroke="black" cx="2405" cy="-55" rx="27" ry="27"/>
<ellipse fill="none" stroke="black" cx="2405" cy="-55" rx="31" ry="31"/>
<text text-anchor="start" x="2388.5" y="-39.6" font-family="Times New Roman,serif" font-size="32.00">■</text>
</g>
<!-- 1990976662240&#45;&gt;1990969425696 -->
<g id="edge11" class="edge">
<title>1990976662240&#45;&gt;1990969425696</title>
<path fill="none" stroke="black" d="M2324.76,-55C2336.17,-55 2349.81,-55 2362.52,-55"/>
<polygon fill="black" stroke="black" points="2362.34,-58.5 2372.34,-55 2362.34,-51.5 2362.34,-58.5"/>
</g>
<!-- 1990976658448 -->
<g id="node6" class="node">
<title>1990976658448</title>
<polygon fill="white" stroke="black" points="772.5,-117 691.25,-117 691.25,-81 772.5,-81 772.5,-117"/>
<text text-anchor="middle" x="731.88" y="-93.97" font-family="Times New Roman,serif" font-size="12.00">Initial Testing</text>
</g>
<!-- 1990976658064 -->
<g id="node27" class="node">
<title>1990976658064</title>
<ellipse fill="white" stroke="black" cx="835.5" cy="-168" rx="27" ry="27"/>
</g>
<!-- 1990976658448&#45;&gt;1990976658064 -->
<g id="edge14" class="edge">
<title>1990976658448&#45;&gt;1990976658064</title>
<path fill="none" stroke="black" d="M760.11,-117.49C773.48,-126.57 789.66,-137.56 803.51,-146.96"/>
<polygon fill="black" stroke="black" points="801.17,-149.6 811.41,-152.32 805.1,-143.81 801.17,-149.6"/>
</g>
<!-- 1990976729888 -->
<g id="node28" class="node">
<title>1990976729888</title>
<ellipse fill="white" stroke="black" cx="835.5" cy="-96" rx="27" ry="27"/>
</g>
<!-- 1990976658448&#45;&gt;1990976729888 -->
<g id="edge13" class="edge">
<title>1990976658448&#45;&gt;1990976729888</title>
<path fill="none" stroke="black" d="M772.75,-97.82C780.65,-97.59 788.92,-97.35 796.75,-97.11"/>
<polygon fill="black" stroke="black" points="796.78,-100.62 806.67,-96.82 796.58,-93.62 796.78,-100.62"/>
</g>
<!-- 1990976716976 -->
<g id="node7" class="node">
<title>1990976716976</title>
<polygon fill="white" stroke="black" points="992.88,-114 900.38,-114 900.38,-78 992.88,-78 992.88,-114"/>
<text text-anchor="middle" x="946.62" y="-90.97" font-family="Times New Roman,serif" font-size="12.00">Market Forecast</text>
</g>
<!-- 1990971920640 -->
<g id="node29" class="node">
<title>1990971920640</title>
<ellipse fill="white" stroke="black" cx="1172.25" cy="-96" rx="27" ry="27"/>
</g>
<!-- 1990976716976&#45;&gt;1990971920640 -->
<g id="edge17" class="edge">
<title>1990976716976&#45;&gt;1990971920640</title>
<path fill="none" stroke="black" d="M993.15,-96C1034.58,-96 1095.02,-96 1133.74,-96"/>
<polygon fill="black" stroke="black" points="1133.5,-99.5 1143.5,-96 1133.5,-92.5 1133.5,-99.5"/>
</g>
<!-- 1990976977376 -->
<g id="node8" class="node">
<title>1990976977376</title>
<polygon fill="white" stroke="black" points="994.75,-186 898.5,-186 898.5,-150 994.75,-150 994.75,-186"/>
<text text-anchor="middle" x="946.62" y="-162.97" font-family="Times New Roman,serif" font-size="12.00">Batch Allocation</text>
</g>
<!-- 1990976976992 -->
<g id="node30" class="node">
<title>1990976976992</title>
<ellipse fill="white" stroke="black" cx="1057.75" cy="-168" rx="27" ry="27"/>
</g>
<!-- 1990976977376&#45;&gt;1990976976992 -->
<g id="edge18" class="edge">
<title>1990976977376&#45;&gt;1990976976992</title>
<path fill="none" stroke="black" d="M995.17,-168C1003.09,-168 1011.2,-168 1018.84,-168"/>
<polygon fill="black" stroke="black" points="1018.83,-171.5 1028.83,-168 1018.83,-164.5 1018.83,-171.5"/>
</g>
<!-- 1990976226320 -->
<g id="node9" class="node">
<title>1990976226320</title>
<polygon fill="white" stroke="black" points="1223.75,-181 1120.75,-181 1120.75,-145 1223.75,-145 1223.75,-181"/>
<text text-anchor="middle" x="1172.25" y="-157.97" font-family="Times New Roman,serif" font-size="12.00">Fermentation Start</text>
</g>
<!-- 1990978919872 -->
<g id="node31" class="node">
<title>1990978919872</title>
<ellipse fill="white" stroke="black" cx="1286.75" cy="-160" rx="27" ry="27"/>
</g>
<!-- 1990976226320&#45;&gt;1990978919872 -->
<g id="edge21" class="edge">
<title>1990976226320&#45;&gt;1990978919872</title>
<path fill="none" stroke="black" d="M1224.23,-161.64C1232.25,-161.43 1240.4,-161.21 1248.04,-161.01"/>
<polygon fill="black" stroke="black" points="1248.12,-164.5 1258.02,-160.74 1247.93,-157.51 1248.12,-164.5"/>
</g>
<!-- 1990976728016 -->
<g id="node10" class="node">
<title>1990976728016</title>
<polygon fill="white" stroke="black" points="1452,-114 1349.75,-114 1349.75,-78 1452,-78 1452,-114"/>
<text text-anchor="middle" x="1400.88" y="-90.97" font-family="Times New Roman,serif" font-size="12.00">Packaging Design</text>
</g>
<!-- 1990976717264 -->
<g id="node32" class="node">
<title>1990976717264</title>
<ellipse fill="white" stroke="black" cx="1515" cy="-82" rx="27" ry="27"/>
</g>
<!-- 1990976728016&#45;&gt;1990976717264 -->
<g id="edge22" class="edge">
<title>1990976728016&#45;&gt;1990976717264</title>
<path fill="none" stroke="black" d="M1452.36,-89.7C1460.47,-88.68 1468.73,-87.65 1476.46,-86.69"/>
<polygon fill="black" stroke="black" points="1476.71,-90.18 1486.2,-85.47 1475.85,-83.24 1476.71,-90.18"/>
</g>
<!-- 1990971753920 -->
<g id="node11" class="node">
<title>1990971753920</title>
<polygon fill="black" stroke="black" points="1427.88,-178 1373.88,-178 1373.88,-142 1427.88,-142 1427.88,-178"/>
</g>
<!-- 1990971763376 -->
<g id="node33" class="node">
<title>1990971763376</title>
<ellipse fill="white" stroke="black" cx="1515" cy="-226" rx="27" ry="27"/>
</g>
<!-- 1990971753920&#45;&gt;1990971763376 -->
<g id="edge26" class="edge">
<title>1990971753920&#45;&gt;1990971763376</title>
<path fill="none" stroke="black" d="M1428.16,-175.47C1444.18,-184.9 1464.76,-197.02 1481.76,-207.02"/>
<polygon fill="black" stroke="black" points="1479.59,-209.81 1489.98,-211.86 1483.14,-203.77 1479.59,-209.81"/>
</g>
<!-- 1990971354160 -->
<g id="node34" class="node">
<title>1990971354160</title>
<ellipse fill="white" stroke="black" cx="1515" cy="-154" rx="27" ry="27"/>
</g>
<!-- 1990971753920&#45;&gt;1990971354160 -->
<g id="edge27" class="edge">
<title>1990971753920&#45;&gt;1990971354160</title>
<path fill="none" stroke="black" d="M1428.16,-158.59C1442.64,-157.82 1460.86,-156.84 1476.78,-155.99"/>
<polygon fill="black" stroke="black" points="1476.57,-159.51 1486.36,-155.48 1476.19,-152.52 1476.57,-159.51"/>
</g>
<!-- 1990977365456 -->
<g id="node12" class="node">
<title>1990977365456</title>
<polygon fill="white" stroke="black" points="1669.38,-100 1586.62,-100 1586.62,-64 1669.38,-64 1669.38,-100"/>
<text text-anchor="middle" x="1628" y="-76.97" font-family="Times New Roman,serif" font-size="12.00">Logistics Plan</text>
</g>
<!-- 1990977359984 -->
<g id="node35" class="node">
<title>1990977359984</title>
<ellipse fill="white" stroke="black" cx="1741" cy="-82" rx="27" ry="27"/>
</g>
<!-- 1990977365456&#45;&gt;1990977359984 -->
<g id="edge28" class="edge">
<title>1990977365456&#45;&gt;1990977359984</title>
<path fill="none" stroke="black" d="M1669.7,-82C1680.4,-82 1691.89,-82 1702.42,-82"/>
<polygon fill="black" stroke="black" points="1702.29,-85.5 1712.29,-82 1702.29,-78.5 1702.29,-85.5"/>
</g>
<!-- 1990971346960 -->
<g id="node13" class="node">
<title>1990971346960</title>
<polygon fill="white" stroke="black" points="1675.38,-172 1580.62,-172 1580.62,-136 1675.38,-136 1675.38,-172"/>
<text text-anchor="middle" x="1628" y="-148.97" font-family="Times New Roman,serif" font-size="12.00">Flavor Sampling</text>
</g>
<!-- 1990975873696 -->
<g id="node36" class="node">
<title>1990975873696</title>
<ellipse fill="white" stroke="black" cx="1741" cy="-154" rx="27" ry="27"/>
</g>
<!-- 1990971346960&#45;&gt;1990975873696 -->
<g id="edge34" class="edge">
<title>1990971346960&#45;&gt;1990975873696</title>
<path fill="none" stroke="black" d="M1675.75,-154C1684.53,-154 1693.61,-154 1702.08,-154"/>
<polygon fill="black" stroke="black" points="1702.04,-157.5 1712.04,-154 1702.04,-150.5 1702.04,-157.5"/>
</g>
<!-- 1990977357584 -->
<g id="node14" class="node">
<title>1990977357584</title>
<polygon fill="white" stroke="black" points="1886,-100 1812.25,-100 1812.25,-64 1886,-64 1886,-100"/>
<text text-anchor="middle" x="1849.12" y="-76.97" font-family="Times New Roman,serif" font-size="12.00">Event Setup</text>
</g>
<!-- 1990977362000 -->
<g id="node38" class="node">
<title>1990977362000</title>
<ellipse fill="white" stroke="black" cx="1957.25" cy="-82" rx="27" ry="27"/>
</g>
<!-- 1990977357584&#45;&gt;1990977362000 -->
<g id="edge32" class="edge">
<title>1990977357584&#45;&gt;1990977362000</title>
<path fill="none" stroke="black" d="M1886.35,-82C1896.73,-82 1908.08,-82 1918.55,-82"/>
<polygon fill="black" stroke="black" points="1918.39,-85.5 1928.39,-82 1918.39,-78.5 1918.39,-85.5"/>
</g>
<!-- 1990971765104 -->
<g id="node15" class="node">
<title>1990971765104</title>
<polygon fill="white" stroke="black" points="1678,-244 1578,-244 1578,-208 1678,-208 1678,-244"/>
<text text-anchor="middle" x="1628" y="-220.97" font-family="Times New Roman,serif" font-size="12.00">Humidity Control</text>
</g>
<!-- 1990975880368 -->
<g id="node37" class="node">
<title>1990975880368</title>
<ellipse fill="white" stroke="black" cx="1741" cy="-226" rx="27" ry="27"/>
</g>
<!-- 1990971765104&#45;&gt;1990975880368 -->
<g id="edge33" class="edge">
<title>1990971765104&#45;&gt;1990975880368</title>
<path fill="none" stroke="black" d="M1678.33,-226C1686.41,-226 1694.66,-226 1702.39,-226"/>
<polygon fill="black" stroke="black" points="1702.12,-229.5 1712.12,-226 1702.12,-222.5 1702.12,-229.5"/>
</g>
<!-- 1990977853952 -->
<g id="node16" class="node">
<title>1990977853952</title>
<polygon fill="white" stroke="black" points="1894.25,-244 1804,-244 1804,-208 1894.25,-208 1894.25,-244"/>
<text text-anchor="middle" x="1849.12" y="-220.97" font-family="Times New Roman,serif" font-size="12.00">Rind Treatment</text>
</g>
<!-- 1990977847616 -->
<g id="node40" class="node">
<title>1990977847616</title>
<ellipse fill="white" stroke="black" cx="1957.25" cy="-226" rx="27" ry="27"/>
</g>
<!-- 1990977853952&#45;&gt;1990977847616 -->
<g id="edge38" class="edge">
<title>1990977853952&#45;&gt;1990977847616</title>
<path fill="none" stroke="black" d="M1894.52,-226C1902.51,-226 1910.78,-226 1918.56,-226"/>
<polygon fill="black" stroke="black" points="1918.39,-229.5 1928.39,-226 1918.39,-222.5 1918.39,-229.5"/>
</g>
<!-- 1990977368624 -->
<g id="node17" class="node">
<title>1990977368624</title>
<polygon fill="white" stroke="black" points="2130.75,-100 2020.25,-100 2020.25,-64 2130.75,-64 2130.75,-100"/>
<text text-anchor="middle" x="2075.5" y="-76.97" font-family="Times New Roman,serif" font-size="12.00">Customer Feedback</text>
</g>
<!-- 1990977361808 -->
<g id="node39" class="node">
<title>1990977361808</title>
<ellipse fill="white" stroke="black" cx="2193.75" cy="-82" rx="27" ry="27"/>
</g>
<!-- 1990977368624&#45;&gt;1990977361808 -->
<g id="edge39" class="edge">
<title>1990977368624&#45;&gt;1990977361808</title>
<path fill="none" stroke="black" d="M2131.22,-82C2139.26,-82 2147.39,-82 2154.98,-82"/>
<polygon fill="black" stroke="black" points="2154.88,-85.5 2164.88,-82 2154.88,-78.5 2154.88,-85.5"/>
</g>
<!-- 1990977861008 -->
<g id="node18" class="node">
<title>1990977861008</title>
<polygon fill="white" stroke="black" points="2119.12,-244 2031.88,-244 2031.88,-208 2119.12,-208 2119.12,-244"/>
<text text-anchor="middle" x="2075.5" y="-220.97" font-family="Times New Roman,serif" font-size="12.00">Aging Monitor</text>
</g>
<!-- 1990975874176 -->
<g id="node41" class="node">
<title>1990975874176</title>
<ellipse fill="white" stroke="black" cx="2193.75" cy="-226" rx="27" ry="27"/>
</g>
<!-- 1990977861008&#45;&gt;1990975874176 -->
<g id="edge42" class="edge">
<title>1990977861008&#45;&gt;1990975874176</title>
<path fill="none" stroke="black" d="M2119.46,-226C2131.17,-226 2143.77,-226 2155.16,-226"/>
<polygon fill="black" stroke="black" points="2154.99,-229.5 2164.99,-226 2154.99,-222.5 2154.99,-229.5"/>
</g>
<!-- 1990975872736 -->
<g id="node19" class="node">
<title>1990975872736</title>
<polygon fill="white" stroke="black" points="2338,-271 2256.75,-271 2256.75,-235 2338,-235 2338,-271"/>
<text text-anchor="middle" x="2297.38" y="-247.97" font-family="Times New Roman,serif" font-size="12.00">Quality Audit</text>
</g>
<!-- 1990975872736&#45;&gt;1990976976992 -->
<g id="edge44" class="edge">
<title>1990975872736&#45;&gt;1990976976992</title>
<path fill="none" stroke="black" d="M2256.45,-261.17C2212.54,-269.44 2139.8,-281 2076.5,-281 1285.75,-281 1285.75,-281 1285.75,-281 1207.33,-281 1128.14,-226.29 1087.22,-193.01"/>
<polygon fill="black" stroke="black" points="1089.46,-190.32 1079.53,-186.62 1084.99,-195.71 1089.46,-190.32"/>
</g>
<!-- 1990969425072 -->
<g id="node20" class="node">
<title>1990969425072</title>
<ellipse fill="white" stroke="black" cx="27" cy="-63" rx="27" ry="27"/>
<text text-anchor="start" x="9.75" y="-45.7" font-family="Times New Roman,serif" font-size="34.00">●</text>
</g>
<!-- 1990969425072&#45;&gt;1990969425024 -->
<g id="edge1" class="edge">
<title>1990969425072&#45;&gt;1990969425024</title>
<path fill="none" stroke="black" d="M54.4,-63C61.89,-63 70.18,-63 78.2,-63"/>
<polygon fill="black" stroke="black" points="78.1,-66.5 88.1,-63 78.1,-59.5 78.1,-66.5"/>
</g>
<!-- 1990976658112&#45;&gt;1990976667280 -->
<g id="edge4" class="edge">
<title>1990976658112&#45;&gt;1990976667280</title>
<path fill="none" stroke="black" d="M234.33,-99C241.69,-99 250,-99 258.39,-99"/>
<polygon fill="black" stroke="black" points="258.31,-102.5 268.31,-99 258.31,-95.5 258.31,-102.5"/>
</g>
<!-- 1990977371216&#45;&gt;1990977367376 -->
<g id="edge5" class="edge">
<title>1990977371216&#45;&gt;1990977367376</title>
<path fill="none" stroke="black" d="M234.33,-27C242.29,-27 251.36,-27 260.45,-27"/>
<polygon fill="black" stroke="black" points="260.39,-30.5 270.39,-27 260.39,-23.5 260.39,-30.5"/>
</g>
<!-- 1990976653216&#45;&gt;1990976660752 -->
<g id="edge9" class="edge">
<title>1990976653216&#45;&gt;1990976660752</title>
<path fill="none" stroke="black" d="M451.31,-99C458.63,-99 466.84,-99 475.05,-99"/>
<polygon fill="black" stroke="black" points="475.05,-102.5 485.05,-99 475.05,-95.5 475.05,-102.5"/>
</g>
<!-- 1990977371360&#45;&gt;1990976662240 -->
<g id="edge8" class="edge">
<title>1990977371360&#45;&gt;1990976662240</title>
<path fill="none" stroke="black" d="M553.5,-27C592.34,-27 667.2,-27 730.88,-27 730.88,-27 730.88,-27 2076.5,-27 2141.01,-27 2215.31,-39.01 2258.92,-47.29"/>
<polygon fill="black" stroke="black" points="2258.14,-50.71 2268.63,-49.18 2259.48,-43.84 2258.14,-50.71"/>
</g>
<!-- 1990976660656&#45;&gt;1990976658448 -->
<g id="edge12" class="edge">
<title>1990976660656&#45;&gt;1990976658448</title>
<path fill="none" stroke="black" d="M655.69,-99C662.96,-99 671.11,-99 679.28,-99"/>
<polygon fill="black" stroke="black" points="679.26,-102.5 689.26,-99 679.26,-95.5 679.26,-102.5"/>
</g>
<!-- 1990976658064&#45;&gt;1990976977376 -->
<g id="edge15" class="edge">
<title>1990976658064&#45;&gt;1990976977376</title>
<path fill="none" stroke="black" d="M862.92,-168C870.2,-168 878.41,-168 886.75,-168"/>
<polygon fill="black" stroke="black" points="886.62,-171.5 896.62,-168 886.62,-164.5 886.62,-171.5"/>
</g>
<!-- 1990976729888&#45;&gt;1990976716976 -->
<g id="edge16" class="edge">
<title>1990976729888&#45;&gt;1990976716976</title>
<path fill="none" stroke="black" d="M862.92,-96C870.81,-96 879.79,-96 888.85,-96"/>
<polygon fill="black" stroke="black" points="888.78,-99.5 898.78,-96 888.78,-92.5 888.78,-99.5"/>
</g>
<!-- 1990971920640&#45;&gt;1990976728016 -->
<g id="edge19" class="edge">
<title>1990971920640&#45;&gt;1990976728016</title>
<path fill="none" stroke="black" d="M1199.69,-96C1233.42,-96 1292.81,-96 1338.16,-96"/>
<polygon fill="black" stroke="black" points="1338.15,-99.5 1348.15,-96 1338.15,-92.5 1338.15,-99.5"/>
</g>
<!-- 1990976976992&#45;&gt;1990976226320 -->
<g id="edge20" class="edge">
<title>1990976976992&#45;&gt;1990976226320</title>
<path fill="none" stroke="black" d="M1085.13,-166.83C1092.36,-166.51 1100.52,-166.14 1108.86,-165.77"/>
<polygon fill="black" stroke="black" points="1108.94,-169.27 1118.77,-165.33 1108.63,-162.28 1108.94,-169.27"/>
</g>
<!-- 1990978919872&#45;&gt;1990976728016 -->
<g id="edge23" class="edge">
<title>1990978919872&#45;&gt;1990976728016</title>
<path fill="none" stroke="black" d="M1310.71,-146.89C1324.29,-139.14 1341.92,-129.08 1357.9,-119.96"/>
<polygon fill="black" stroke="black" points="1359.33,-123.17 1366.28,-115.18 1355.86,-117.09 1359.33,-123.17"/>
</g>
<!-- 1990978919872&#45;&gt;1990971753920 -->
<g id="edge24" class="edge">
<title>1990978919872&#45;&gt;1990971753920</title>
<path fill="none" stroke="black" d="M1314.04,-160C1328.52,-160 1346.73,-160 1362.65,-160"/>
<polygon fill="black" stroke="black" points="1362.24,-163.5 1372.24,-160 1362.24,-156.5 1362.24,-163.5"/>
</g>
<!-- 1990976717264&#45;&gt;1990977365456 -->
<g id="edge25" class="edge">
<title>1990976717264&#45;&gt;1990977365456</title>
<path fill="none" stroke="black" d="M1542.31,-82C1552.11,-82 1563.62,-82 1574.94,-82"/>
<polygon fill="black" stroke="black" points="1574.61,-85.5 1584.61,-82 1574.61,-78.5 1574.61,-85.5"/>
</g>
<!-- 1990971763376&#45;&gt;1990971765104 -->
<g id="edge29" class="edge">
<title>1990971763376&#45;&gt;1990971765104</title>
<path fill="none" stroke="black" d="M1542.31,-226C1549.62,-226 1557.88,-226 1566.31,-226"/>
<polygon fill="black" stroke="black" points="1566.31,-229.5 1576.31,-226 1566.31,-222.5 1566.31,-229.5"/>
</g>
<!-- 1990971354160&#45;&gt;1990971346960 -->
<g id="edge31" class="edge">
<title>1990971354160&#45;&gt;1990971346960</title>
<path fill="none" stroke="black" d="M1542.31,-154C1550.42,-154 1559.69,-154 1569.06,-154"/>
<polygon fill="black" stroke="black" points="1568.95,-157.5 1578.95,-154 1568.95,-150.5 1568.95,-157.5"/>
</g>
<!-- 1990977359984&#45;&gt;1990977357584 -->
<g id="edge30" class="edge">
<title>1990977359984&#45;&gt;1990977357584</title>
<path fill="none" stroke="black" d="M1768.23,-82C1777.98,-82 1789.37,-82 1800.44,-82"/>
<polygon fill="black" stroke="black" points="1800.27,-85.5 1810.27,-82 1800.27,-78.5 1800.27,-85.5"/>
</g>
<!-- 1990975873696&#45;&gt;1990977853952 -->
<g id="edge37" class="edge">
<title>1990975873696&#45;&gt;1990977853952</title>
<path fill="none" stroke="black" d="M1763.99,-168.92C1777.66,-178.2 1795.59,-190.36 1811.38,-201.07"/>
<polygon fill="black" stroke="black" points="1809.39,-203.95 1819.63,-206.67 1813.32,-198.16 1809.39,-203.95"/>
</g>
<!-- 1990975880368&#45;&gt;1990977853952 -->
<g id="edge35" class="edge">
<title>1990975880368&#45;&gt;1990977853952</title>
<path fill="none" stroke="black" d="M1768.23,-226C1775.58,-226 1783.85,-226 1792.22,-226"/>
<polygon fill="black" stroke="black" points="1792.09,-229.5 1802.09,-226 1792.09,-222.5 1792.09,-229.5"/>
</g>
<!-- 1990977362000&#45;&gt;1990977368624 -->
<g id="edge36" class="edge">
<title>1990977362000&#45;&gt;1990977368624</title>
<path fill="none" stroke="black" d="M1984.63,-82C1991.99,-82 2000.33,-82 2008.89,-82"/>
<polygon fill="black" stroke="black" points="2008.69,-85.5 2018.69,-82 2008.69,-78.5 2008.69,-85.5"/>
</g>
<!-- 1990977361808&#45;&gt;1990976662240 -->
<g id="edge40" class="edge">
<title>1990977361808&#45;&gt;1990976662240</title>
<path fill="none" stroke="black" d="M2220.13,-75.26C2231.86,-72.14 2246.03,-68.38 2258.96,-64.94"/>
<polygon fill="black" stroke="black" points="2259.67,-68.37 2268.44,-62.42 2257.87,-61.61 2259.67,-68.37"/>
</g>
<!-- 1990977847616&#45;&gt;1990977861008 -->
<g id="edge41" class="edge">
<title>1990977847616&#45;&gt;1990977861008</title>
<path fill="none" stroke="black" d="M1984.63,-226C1995.3,-226 2008.02,-226 2020.5,-226"/>
<polygon fill="black" stroke="black" points="2020.3,-229.5 2030.3,-226 2020.3,-222.5 2020.3,-229.5"/>
</g>
<!-- 1990975874176&#45;&gt;1990975872736 -->
<g id="edge43" class="edge">
<title>1990975874176&#45;&gt;1990975872736</title>
<path fill="none" stroke="black" d="M2220.13,-232.74C2227.82,-234.79 2236.56,-237.11 2245.3,-239.43"/>
<polygon fill="black" stroke="black" points="2244.28,-242.78 2254.84,-241.97 2246.08,-236.02 2244.28,-242.78"/>
</g>
</g>
</svg>
