<?xml version="1.0" encoding="UTF-8" standalone="no"?>
<!DOCTYPE svg PUBLIC "-//W3C//DTD SVG 1.1//EN"
 "http://www.w3.org/Graphics/SVG/1.1/DTD/svg11.dtd">
<!-- Generated by graphviz version 11.0.0 (20240428.1522)
 -->
<!-- Title: imdf_net_1754051293.6262736 Pages: 1 -->
<svg width="3124pt" height="392pt"
 viewBox="0.00 0.00 3123.75 391.88" xmlns="http://www.w3.org/2000/svg" xmlns:xlink="http://www.w3.org/1999/xlink">
<g id="graph0" class="graph" transform="scale(1 1) rotate(0) translate(4 387.88)">
<title>imdf_net_1754051293.6262736</title>
<polygon fill="white" stroke="none" points="-4,4 -4,-387.88 3119.75,-387.88 3119.75,4 -4,4"/>
<!-- 1990980173904 -->
<g id="node1" class="node">
<title>1990980173904</title>
<polygon fill="white" stroke="black" points="160.75,-367 90,-367 90,-331 160.75,-331 160.75,-367"/>
<text text-anchor="middle" x="125.38" y="-343.98" font-family="Times New Roman,serif" font-size="12.00">Site Survey</text>
</g>
<!-- 1990980175296 -->
<g id="node22" class="node">
<title>1990980175296</title>
<ellipse fill="white" stroke="black" cx="223.75" cy="-349" rx="27" ry="27"/>
</g>
<!-- 1990980173904&#45;&gt;1990980175296 -->
<g id="edge2" class="edge">
<title>1990980173904&#45;&gt;1990980175296</title>
<path fill="none" stroke="black" d="M161.17,-349C168.9,-349 177.14,-349 184.98,-349"/>
<polygon fill="black" stroke="black" points="184.97,-352.5 194.97,-349 184.97,-345.5 184.97,-352.5"/>
</g>
<!-- 1990980174288 -->
<g id="node2" class="node">
<title>1990980174288</title>
<polygon fill="white" stroke="black" points="373.25,-367 286.75,-367 286.75,-331 373.25,-331 373.25,-367"/>
<text text-anchor="middle" x="330" y="-343.98" font-family="Times New Roman,serif" font-size="12.00">Design Layout</text>
</g>
<!-- 1990980174000 -->
<g id="node23" class="node">
<title>1990980174000</title>
<ellipse fill="white" stroke="black" cx="436.25" cy="-349" rx="27" ry="27"/>
</g>
<!-- 1990980174288&#45;&gt;1990980174000 -->
<g id="edge4" class="edge">
<title>1990980174288&#45;&gt;1990980174000</title>
<path fill="none" stroke="black" d="M373.7,-349C381.62,-349 389.84,-349 397.59,-349"/>
<polygon fill="black" stroke="black" points="397.39,-352.5 407.39,-349 397.39,-345.5 397.39,-352.5"/>
</g>
<!-- 1990980109232 -->
<g id="node3" class="node">
<title>1990980109232</title>
<polygon fill="white" stroke="black" points="597,-367 499.25,-367 499.25,-331 597,-331 597,-367"/>
<text text-anchor="middle" x="548.12" y="-343.98" font-family="Times New Roman,serif" font-size="12.00">Structure Retrofit</text>
</g>
<!-- 1990980119168 -->
<g id="node24" class="node">
<title>1990980119168</title>
<ellipse fill="white" stroke="black" cx="660" cy="-349" rx="27" ry="27"/>
</g>
<!-- 1990980109232&#45;&gt;1990980119168 -->
<g id="edge6" class="edge">
<title>1990980109232&#45;&gt;1990980119168</title>
<path fill="none" stroke="black" d="M597.32,-349C605.36,-349 613.6,-349 621.32,-349"/>
<polygon fill="black" stroke="black" points="621.06,-352.5 631.06,-349 621.06,-345.5 621.06,-352.5"/>
</g>
<!-- 1990980122576 -->
<g id="node4" class="node">
<title>1990980122576</title>
<polygon fill="white" stroke="black" points="805,-367 723,-367 723,-331 805,-331 805,-367"/>
<text text-anchor="middle" x="764" y="-343.98" font-family="Times New Roman,serif" font-size="12.00">System Install</text>
</g>
<!-- 1990980121520 -->
<g id="node25" class="node">
<title>1990980121520</title>
<ellipse fill="white" stroke="black" cx="868" cy="-349" rx="27" ry="27"/>
</g>
<!-- 1990980122576&#45;&gt;1990980121520 -->
<g id="edge8" class="edge">
<title>1990980122576&#45;&gt;1990980121520</title>
<path fill="none" stroke="black" d="M805.31,-349C813.23,-349 821.5,-349 829.32,-349"/>
<polygon fill="black" stroke="black" points="829.23,-352.5 839.23,-349 829.23,-345.5 829.23,-352.5"/>
</g>
<!-- 1990980110768 -->
<g id="node5" class="node">
<title>1990980110768</title>
<polygon fill="white" stroke="black" points="1009.25,-367 931,-367 931,-331 1009.25,-331 1009.25,-367"/>
<text text-anchor="middle" x="970.12" y="-343.98" font-family="Times New Roman,serif" font-size="12.00">Sensor Setup</text>
</g>
<!-- 1990980109664 -->
<g id="node26" class="node">
<title>1990980109664</title>
<ellipse fill="white" stroke="black" cx="1072.25" cy="-349" rx="27" ry="27"/>
</g>
<!-- 1990980110768&#45;&gt;1990980109664 -->
<g id="edge10" class="edge">
<title>1990980110768&#45;&gt;1990980109664</title>
<path fill="none" stroke="black" d="M1009.55,-349C1017.39,-349 1025.63,-349 1033.44,-349"/>
<polygon fill="black" stroke="black" points="1033.36,-352.5 1043.36,-349 1033.36,-345.5 1033.36,-352.5"/>
</g>
<!-- 1990980108896 -->
<g id="node6" class="node">
<title>1990980108896</title>
<polygon fill="white" stroke="black" points="1229.25,-367 1135.25,-367 1135.25,-331 1229.25,-331 1229.25,-367"/>
<text text-anchor="middle" x="1182.25" y="-343.98" font-family="Times New Roman,serif" font-size="12.00">Enviro Calibrate</text>
</g>
<!-- 1990980109328 -->
<g id="node27" class="node">
<title>1990980109328</title>
<ellipse fill="white" stroke="black" cx="1292.25" cy="-349" rx="27" ry="27"/>
</g>
<!-- 1990980108896&#45;&gt;1990980109328 -->
<g id="edge12" class="edge">
<title>1990980108896&#45;&gt;1990980109328</title>
<path fill="none" stroke="black" d="M1229.68,-349C1237.56,-349 1245.66,-349 1253.28,-349"/>
<polygon fill="black" stroke="black" points="1253.27,-352.5 1263.27,-349 1253.27,-345.5 1253.27,-352.5"/>
</g>
<!-- 1990980028992 -->
<g id="node7" class="node">
<title>1990980028992</title>
<polygon fill="white" stroke="black" points="1438.75,-367 1355.25,-367 1355.25,-331 1438.75,-331 1438.75,-367"/>
<text text-anchor="middle" x="1397" y="-343.98" font-family="Times New Roman,serif" font-size="12.00">Irrigation Plan</text>
</g>
<!-- 1990980042288 -->
<g id="node28" class="node">
<title>1990980042288</title>
<ellipse fill="white" stroke="black" cx="1501.75" cy="-349" rx="27" ry="27"/>
</g>
<!-- 1990980028992&#45;&gt;1990980042288 -->
<g id="edge14" class="edge">
<title>1990980028992&#45;&gt;1990980042288</title>
<path fill="none" stroke="black" d="M1439.2,-349C1447.06,-349 1455.25,-349 1463,-349"/>
<polygon fill="black" stroke="black" points="1462.8,-352.5 1472.8,-349 1462.8,-345.5 1462.8,-352.5"/>
</g>
<!-- 1990980041328 -->
<g id="node8" class="node">
<title>1990980041328</title>
<polygon fill="white" stroke="black" points="1642.25,-367 1564.75,-367 1564.75,-331 1642.25,-331 1642.25,-367"/>
<text text-anchor="middle" x="1603.5" y="-343.98" font-family="Times New Roman,serif" font-size="12.00">Nutrient Mix</text>
</g>
<!-- 1990980029328 -->
<g id="node29" class="node">
<title>1990980029328</title>
<ellipse fill="white" stroke="black" cx="1705.25" cy="-349" rx="27" ry="27"/>
</g>
<!-- 1990980041328&#45;&gt;1990980029328 -->
<g id="edge16" class="edge">
<title>1990980041328&#45;&gt;1990980029328</title>
<path fill="none" stroke="black" d="M1642.5,-349C1650.32,-349 1658.56,-349 1666.38,-349"/>
<polygon fill="black" stroke="black" points="1666.3,-352.5 1676.3,-349 1666.3,-345.5 1666.3,-352.5"/>
</g>
<!-- 1990980032544 -->
<g id="node9" class="node">
<title>1990980032544</title>
<polygon fill="white" stroke="black" points="1859.25,-367 1768.25,-367 1768.25,-331 1859.25,-331 1859.25,-367"/>
<text text-anchor="middle" x="1813.75" y="-343.98" font-family="Times New Roman,serif" font-size="12.00">Lighting Adjust</text>
</g>
<!-- 1990980041184 -->
<g id="node30" class="node">
<title>1990980041184</title>
<ellipse fill="white" stroke="black" cx="1922.25" cy="-349" rx="27" ry="27"/>
</g>
<!-- 1990980032544&#45;&gt;1990980041184 -->
<g id="edge18" class="edge">
<title>1990980032544&#45;&gt;1990980041184</title>
<path fill="none" stroke="black" d="M1859.61,-349C1867.61,-349 1875.87,-349 1883.65,-349"/>
<polygon fill="black" stroke="black" points="1883.46,-352.5 1893.46,-349 1883.46,-345.5 1883.46,-352.5"/>
</g>
<!-- 1990980039072 -->
<g id="node10" class="node">
<title>1990980039072</title>
<polygon fill="white" stroke="black" points="2067.25,-367 1985.25,-367 1985.25,-331 2067.25,-331 2067.25,-367"/>
<text text-anchor="middle" x="2026.25" y="-343.98" font-family="Times New Roman,serif" font-size="12.00">Staff Training</text>
</g>
<!-- 1990980038784 -->
<g id="node31" class="node">
<title>1990980038784</title>
<ellipse fill="white" stroke="black" cx="2130.25" cy="-349" rx="27" ry="27"/>
</g>
<!-- 1990980039072&#45;&gt;1990980038784 -->
<g id="edge20" class="edge">
<title>1990980039072&#45;&gt;1990980038784</title>
<path fill="none" stroke="black" d="M2067.56,-349C2075.48,-349 2083.75,-349 2091.57,-349"/>
<polygon fill="black" stroke="black" points="2091.48,-352.5 2101.48,-349 2091.48,-345.5 2091.48,-352.5"/>
</g>
<!-- 1990980037344 -->
<g id="node11" class="node">
<title>1990980037344</title>
<polygon fill="white" stroke="black" points="2275.25,-367 2193.25,-367 2193.25,-331 2275.25,-331 2275.25,-367"/>
<text text-anchor="middle" x="2234.25" y="-343.98" font-family="Times New Roman,serif" font-size="12.00">Crop Planting</text>
</g>
<!-- 1990980027408 -->
<g id="node32" class="node">
<title>1990980027408</title>
<ellipse fill="white" stroke="black" cx="2338.25" cy="-349" rx="27" ry="27"/>
</g>
<!-- 1990980037344&#45;&gt;1990980027408 -->
<g id="edge22" class="edge">
<title>1990980037344&#45;&gt;1990980027408</title>
<path fill="none" stroke="black" d="M2275.56,-349C2283.48,-349 2291.75,-349 2299.57,-349"/>
<polygon fill="black" stroke="black" points="2299.48,-352.5 2309.48,-349 2299.48,-345.5 2299.48,-352.5"/>
</g>
<!-- 1990980030864 -->
<g id="node12" class="node">
<title>1990980030864</title>
<polygon fill="white" stroke="black" points="2495.25,-344 2401.25,-344 2401.25,-308 2495.25,-308 2495.25,-344"/>
<text text-anchor="middle" x="2448.25" y="-320.98" font-family="Times New Roman,serif" font-size="12.00">Growth Monitor</text>
</g>
<!-- 1990980032352 -->
<g id="node33" class="node">
<title>1990980032352</title>
<ellipse fill="white" stroke="black" cx="2558.25" cy="-319" rx="27" ry="27"/>
</g>
<!-- 1990980030864&#45;&gt;1990980032352 -->
<g id="edge24" class="edge">
<title>1990980030864&#45;&gt;1990980032352</title>
<path fill="none" stroke="black" d="M2495.68,-322.99C2503.73,-322.47 2512,-321.93 2519.78,-321.43"/>
<polygon fill="black" stroke="black" points="2519.83,-324.93 2529.58,-320.79 2519.37,-317.95 2519.83,-324.93"/>
</g>
<!-- 1990979924960 -->
<g id="node13" class="node">
<title>1990979924960</title>
<polygon fill="white" stroke="black" points="2710.75,-337 2621.25,-337 2621.25,-301 2710.75,-301 2710.75,-337"/>
<text text-anchor="middle" x="2666" y="-313.98" font-family="Times New Roman,serif" font-size="12.00">Market Review</text>
</g>
<!-- 1990979914400 -->
<g id="node37" class="node">
<title>1990979914400</title>
<ellipse fill="white" stroke="black" cx="2773.75" cy="-319" rx="27" ry="27"/>
</g>
<!-- 1990979924960&#45;&gt;1990979914400 -->
<g id="edge28" class="edge">
<title>1990979924960&#45;&gt;1990979914400</title>
<path fill="none" stroke="black" d="M2711.23,-319C2719.2,-319 2727.44,-319 2735.2,-319"/>
<polygon fill="black" stroke="black" points="2734.99,-322.5 2744.99,-319 2734.99,-315.5 2734.99,-322.5"/>
</g>
<!-- 1990978091056 -->
<g id="node14" class="node">
<title>1990978091056</title>
<polygon fill="white" stroke="black" points="2707.38,-189 2624.62,-189 2624.62,-153 2707.38,-153 2707.38,-189"/>
<text text-anchor="middle" x="2666" y="-165.97" font-family="Times New Roman,serif" font-size="12.00">Data Analysis</text>
</g>
<!-- 1990979285120 -->
<g id="node34" class="node">
<title>1990979285120</title>
<ellipse fill="white" stroke="black" cx="2773.75" cy="-243" rx="27" ry="27"/>
</g>
<!-- 1990978091056&#45;&gt;1990979285120 -->
<g id="edge30" class="edge">
<title>1990978091056&#45;&gt;1990979285120</title>
<path fill="none" stroke="black" d="M2693.96,-189.35C2708.42,-199.2 2726.31,-211.38 2741.38,-221.64"/>
<polygon fill="black" stroke="black" points="2739.34,-224.48 2749.57,-227.22 2743.28,-218.7 2739.34,-224.48"/>
</g>
<!-- 1990978541312 -->
<g id="node35" class="node">
<title>1990978541312</title>
<ellipse fill="white" stroke="black" cx="2773.75" cy="-171" rx="27" ry="27"/>
</g>
<!-- 1990978091056&#45;&gt;1990978541312 -->
<g id="edge27" class="edge">
<title>1990978091056&#45;&gt;1990978541312</title>
<path fill="none" stroke="black" d="M2707.58,-171C2716.66,-171 2726.24,-171 2735.18,-171"/>
<polygon fill="black" stroke="black" points="2734.96,-174.5 2744.96,-171 2734.96,-167.5 2734.96,-174.5"/>
</g>
<!-- 1990971043104 -->
<g id="node36" class="node">
<title>1990971043104</title>
<ellipse fill="white" stroke="black" cx="2773.75" cy="-99" rx="27" ry="27"/>
</g>
<!-- 1990978091056&#45;&gt;1990971043104 -->
<g id="edge29" class="edge">
<title>1990978091056&#45;&gt;1990971043104</title>
<path fill="none" stroke="black" d="M2693.96,-152.65C2708.42,-142.8 2726.31,-130.62 2741.38,-120.36"/>
<polygon fill="black" stroke="black" points="2743.28,-123.3 2749.57,-114.78 2739.34,-117.52 2743.28,-123.3"/>
</g>
<!-- 1990978550624 -->
<g id="node38" class="node">
<title>1990978550624</title>
<ellipse fill="white" stroke="black" cx="2773.75" cy="-27" rx="27" ry="27"/>
</g>
<!-- 1990978091056&#45;&gt;1990978550624 -->
<g id="edge31" class="edge">
<title>1990978091056&#45;&gt;1990978550624</title>
<path fill="none" stroke="black" d="M2680.39,-152.76C2697.97,-128.83 2729.07,-86.48 2750.28,-57.6"/>
<polygon fill="black" stroke="black" points="2753.07,-59.72 2756.16,-49.58 2747.42,-55.57 2753.07,-59.72"/>
</g>
<!-- 1990978535552 -->
<g id="node15" class="node">
<title>1990978535552</title>
<polygon fill="white" stroke="black" points="2927.75,-189 2836.75,-189 2836.75,-153 2927.75,-153 2927.75,-189"/>
<text text-anchor="middle" x="2882.25" y="-165.97" font-family="Times New Roman,serif" font-size="12.00">Lighting Adjust</text>
</g>
<!-- 1990978541984 -->
<g id="node40" class="node">
<title>1990978541984</title>
<ellipse fill="white" stroke="black" cx="2994.75" cy="-171" rx="27" ry="27"/>
</g>
<!-- 1990978535552&#45;&gt;1990978541984 -->
<g id="edge39" class="edge">
<title>1990978535552&#45;&gt;1990978541984</title>
<path fill="none" stroke="black" d="M2928.19,-171C2937.5,-171 2947.21,-171 2956.22,-171"/>
<polygon fill="black" stroke="black" points="2956.05,-174.5 2966.05,-171 2956.05,-167.5 2956.05,-174.5"/>
</g>
<!-- 1990971037728 -->
<g id="node16" class="node">
<title>1990971037728</title>
<polygon fill="white" stroke="black" points="2925.5,-117 2839,-117 2839,-81 2925.5,-81 2925.5,-117"/>
<text text-anchor="middle" x="2882.25" y="-93.97" font-family="Times New Roman,serif" font-size="12.00">Waste Recycle</text>
</g>
<!-- 1990971033264 -->
<g id="node41" class="node">
<title>1990971033264</title>
<ellipse fill="white" stroke="black" cx="2994.75" cy="-99" rx="27" ry="27"/>
</g>
<!-- 1990971037728&#45;&gt;1990971033264 -->
<g id="edge38" class="edge">
<title>1990971037728&#45;&gt;1990971033264</title>
<path fill="none" stroke="black" d="M2925.97,-99C2935.9,-99 2946.4,-99 2956.1,-99"/>
<polygon fill="black" stroke="black" points="2955.91,-102.5 2965.91,-99 2955.91,-95.5 2955.91,-102.5"/>
</g>
<!-- 1990979923616 -->
<g id="node17" class="node">
<title>1990979923616</title>
<polygon fill="white" stroke="black" points="2924.75,-337 2839.75,-337 2839.75,-301 2924.75,-301 2924.75,-337"/>
<text text-anchor="middle" x="2882.25" y="-313.98" font-family="Times New Roman,serif" font-size="12.00">Yield Forecast</text>
</g>
<!-- 1990980176832 -->
<g id="node43" class="node">
<title>1990980176832</title>
<ellipse fill="white" stroke="black" cx="2994.75" cy="-319" rx="27" ry="27"/>
<ellipse fill="none" stroke="black" cx="2994.75" cy="-319" rx="31" ry="31"/>
<text text-anchor="start" x="2978.25" y="-303.6" font-family="Times New Roman,serif" font-size="32.00">■</text>
</g>
<!-- 1990979923616&#45;&gt;1990980176832 -->
<g id="edge41" class="edge">
<title>1990979923616&#45;&gt;1990980176832</title>
<path fill="none" stroke="black" d="M2925.03,-319C2933.86,-319 2943.19,-319 2952.03,-319"/>
<polygon fill="black" stroke="black" points="2951.77,-322.5 2961.77,-319 2951.77,-315.5 2951.77,-322.5"/>
</g>
<!-- 1990971032256 -->
<g id="node18" class="node">
<title>1990971032256</title>
<polygon fill="white" stroke="black" points="2921,-45 2843.5,-45 2843.5,-9 2921,-9 2921,-45"/>
<text text-anchor="middle" x="2882.25" y="-21.98" font-family="Times New Roman,serif" font-size="12.00">Nutrient Mix</text>
</g>
<!-- 1990978549616 -->
<g id="node42" class="node">
<title>1990978549616</title>
<ellipse fill="white" stroke="black" cx="2994.75" cy="-27" rx="27" ry="27"/>
</g>
<!-- 1990971032256&#45;&gt;1990978549616 -->
<g id="edge37" class="edge">
<title>1990971032256&#45;&gt;1990978549616</title>
<path fill="none" stroke="black" d="M2921.28,-27C2932.58,-27 2944.96,-27 2956.23,-27"/>
<polygon fill="black" stroke="black" points="2955.98,-30.5 2965.98,-27 2955.98,-23.5 2955.98,-30.5"/>
</g>
<!-- 1990978541024 -->
<g id="node19" class="node">
<title>1990978541024</title>
<polygon fill="white" stroke="black" points="2924,-261 2840.5,-261 2840.5,-225 2924,-225 2924,-261"/>
<text text-anchor="middle" x="2882.25" y="-237.97" font-family="Times New Roman,serif" font-size="12.00">Irrigation Plan</text>
</g>
<!-- 1990979276576 -->
<g id="node39" class="node">
<title>1990979276576</title>
<ellipse fill="white" stroke="black" cx="2994.75" cy="-243" rx="27" ry="27"/>
</g>
<!-- 1990978541024&#45;&gt;1990979276576 -->
<g id="edge40" class="edge">
<title>1990978541024&#45;&gt;1990979276576</title>
<path fill="none" stroke="black" d="M2924.4,-243C2934.72,-243 2945.74,-243 2955.89,-243"/>
<polygon fill="black" stroke="black" points="2955.8,-246.5 2965.8,-243 2955.8,-239.5 2955.8,-246.5"/>
</g>
<!-- 1990978080592 -->
<g id="node20" class="node">
<title>1990978080592</title>
<polygon fill="black" stroke="black" points="3115.75,-189 3061.75,-189 3061.75,-153 3115.75,-153 3115.75,-189"/>
</g>
<!-- 1990978080592&#45;&gt;1990980027408 -->
<g id="edge46" class="edge">
<title>1990978080592&#45;&gt;1990980027408</title>
<path fill="none" stroke="black" d="M3087.69,-189.47C3086.49,-227.75 3077.86,-315.78 3025.75,-359 2976.57,-399.79 2947.14,-378 2883.25,-378 2557.25,-378 2557.25,-378 2557.25,-378 2493.07,-378 2419.19,-365.5 2376.01,-356.91"/>
<polygon fill="black" stroke="black" points="2376.92,-353.52 2366.43,-354.96 2375.53,-360.38 2376.92,-353.52"/>
</g>
<!-- 1990980179424 -->
<g id="node21" class="node">
<title>1990980179424</title>
<ellipse fill="white" stroke="black" cx="27" cy="-349" rx="27" ry="27"/>
<text text-anchor="start" x="9.75" y="-331.7" font-family="Times New Roman,serif" font-size="34.00">●</text>
</g>
<!-- 1990980179424&#45;&gt;1990980173904 -->
<g id="edge1" class="edge">
<title>1990980179424&#45;&gt;1990980173904</title>
<path fill="none" stroke="black" d="M54.33,-349C61.76,-349 70.06,-349 78.28,-349"/>
<polygon fill="black" stroke="black" points="78.24,-352.5 88.24,-349 78.24,-345.5 78.24,-352.5"/>
</g>
<!-- 1990980175296&#45;&gt;1990980174288 -->
<g id="edge3" class="edge">
<title>1990980175296&#45;&gt;1990980174288</title>
<path fill="none" stroke="black" d="M251.06,-349C258.44,-349 266.74,-349 275.11,-349"/>
<polygon fill="black" stroke="black" points="274.96,-352.5 284.96,-349 274.96,-345.5 274.96,-352.5"/>
</g>
<!-- 1990980174000&#45;&gt;1990980109232 -->
<g id="edge5" class="edge">
<title>1990980174000&#45;&gt;1990980109232</title>
<path fill="none" stroke="black" d="M463.57,-349C470.9,-349 479.18,-349 487.6,-349"/>
<polygon fill="black" stroke="black" points="487.58,-352.5 497.58,-349 487.58,-345.5 487.58,-352.5"/>
</g>
<!-- 1990980119168&#45;&gt;1990980122576 -->
<g id="edge7" class="edge">
<title>1990980119168&#45;&gt;1990980122576</title>
<path fill="none" stroke="black" d="M687.27,-349C694.65,-349 702.95,-349 711.28,-349"/>
<polygon fill="black" stroke="black" points="711.05,-352.5 721.05,-349 711.05,-345.5 711.05,-352.5"/>
</g>
<!-- 1990980121520&#45;&gt;1990980110768 -->
<g id="edge9" class="edge">
<title>1990980121520&#45;&gt;1990980110768</title>
<path fill="none" stroke="black" d="M895.31,-349C902.63,-349 910.84,-349 919.05,-349"/>
<polygon fill="black" stroke="black" points="919.05,-352.5 929.05,-349 919.05,-345.5 919.05,-352.5"/>
</g>
<!-- 1990980109664&#45;&gt;1990980108896 -->
<g id="edge11" class="edge">
<title>1990980109664&#45;&gt;1990980108896</title>
<path fill="none" stroke="black" d="M1099.67,-349C1106.97,-349 1115.19,-349 1123.52,-349"/>
<polygon fill="black" stroke="black" points="1123.38,-352.5 1133.38,-349 1123.38,-345.5 1123.38,-352.5"/>
</g>
<!-- 1990980109328&#45;&gt;1990980028992 -->
<g id="edge13" class="edge">
<title>1990980109328&#45;&gt;1990980028992</title>
<path fill="none" stroke="black" d="M1319.71,-349C1327.07,-349 1335.33,-349 1343.62,-349"/>
<polygon fill="black" stroke="black" points="1343.36,-352.5 1353.36,-349 1343.36,-345.5 1343.36,-352.5"/>
</g>
<!-- 1990980042288&#45;&gt;1990980041328 -->
<g id="edge15" class="edge">
<title>1990980042288&#45;&gt;1990980041328</title>
<path fill="none" stroke="black" d="M1529.22,-349C1536.52,-349 1544.68,-349 1552.83,-349"/>
<polygon fill="black" stroke="black" points="1552.75,-352.5 1562.75,-349 1552.75,-345.5 1552.75,-352.5"/>
</g>
<!-- 1990980029328&#45;&gt;1990980032544 -->
<g id="edge17" class="edge">
<title>1990980029328&#45;&gt;1990980032544</title>
<path fill="none" stroke="black" d="M1732.58,-349C1739.94,-349 1748.25,-349 1756.64,-349"/>
<polygon fill="black" stroke="black" points="1756.56,-352.5 1766.56,-349 1756.56,-345.5 1756.56,-352.5"/>
</g>
<!-- 1990980041184&#45;&gt;1990980039072 -->
<g id="edge19" class="edge">
<title>1990980041184&#45;&gt;1990980039072</title>
<path fill="none" stroke="black" d="M1949.52,-349C1956.9,-349 1965.2,-349 1973.53,-349"/>
<polygon fill="black" stroke="black" points="1973.3,-352.5 1983.3,-349 1973.3,-345.5 1973.3,-352.5"/>
</g>
<!-- 1990980038784&#45;&gt;1990980037344 -->
<g id="edge21" class="edge">
<title>1990980038784&#45;&gt;1990980037344</title>
<path fill="none" stroke="black" d="M2157.52,-349C2164.9,-349 2173.2,-349 2181.53,-349"/>
<polygon fill="black" stroke="black" points="2181.3,-352.5 2191.3,-349 2181.3,-345.5 2181.3,-352.5"/>
</g>
<!-- 1990980027408&#45;&gt;1990980030864 -->
<g id="edge23" class="edge">
<title>1990980027408&#45;&gt;1990980030864</title>
<path fill="none" stroke="black" d="M2365.12,-343.49C2372.67,-341.88 2381.23,-340.06 2389.91,-338.21"/>
<polygon fill="black" stroke="black" points="2390.37,-341.69 2399.42,-336.19 2388.91,-334.85 2390.37,-341.69"/>
</g>
<!-- 1990980032352&#45;&gt;1990979924960 -->
<g id="edge25" class="edge">
<title>1990980032352&#45;&gt;1990979924960</title>
<path fill="none" stroke="black" d="M2585.66,-319C2592.98,-319 2601.21,-319 2609.53,-319"/>
<polygon fill="black" stroke="black" points="2609.33,-322.5 2619.33,-319 2609.33,-315.5 2609.33,-322.5"/>
</g>
<!-- 1990980032352&#45;&gt;1990978091056 -->
<g id="edge26" class="edge">
<title>1990980032352&#45;&gt;1990978091056</title>
<path fill="none" stroke="black" d="M2574.85,-297.16C2593.64,-270.87 2625.21,-226.69 2645.56,-198.2"/>
<polygon fill="black" stroke="black" points="2648.15,-200.6 2651.12,-190.43 2642.46,-196.53 2648.15,-200.6"/>
</g>
<!-- 1990979285120&#45;&gt;1990978541024 -->
<g id="edge32" class="edge">
<title>1990979285120&#45;&gt;1990978541024</title>
<path fill="none" stroke="black" d="M2801.08,-243C2809.58,-243 2819.32,-243 2829.02,-243"/>
<polygon fill="black" stroke="black" points="2828.79,-246.5 2838.79,-243 2828.79,-239.5 2828.79,-246.5"/>
</g>
<!-- 1990978541312&#45;&gt;1990978535552 -->
<g id="edge33" class="edge">
<title>1990978541312&#45;&gt;1990978535552</title>
<path fill="none" stroke="black" d="M2801.08,-171C2808.44,-171 2816.75,-171 2825.14,-171"/>
<polygon fill="black" stroke="black" points="2825.06,-174.5 2835.06,-171 2825.06,-167.5 2825.06,-174.5"/>
</g>
<!-- 1990971043104&#45;&gt;1990971037728 -->
<g id="edge36" class="edge">
<title>1990971043104&#45;&gt;1990971037728</title>
<path fill="none" stroke="black" d="M2801.08,-99C2809.04,-99 2818.11,-99 2827.2,-99"/>
<polygon fill="black" stroke="black" points="2827.14,-102.5 2837.14,-99 2827.14,-95.5 2827.14,-102.5"/>
</g>
<!-- 1990979914400&#45;&gt;1990979923616 -->
<g id="edge35" class="edge">
<title>1990979914400&#45;&gt;1990979923616</title>
<path fill="none" stroke="black" d="M2801.08,-319C2809.31,-319 2818.71,-319 2828.1,-319"/>
<polygon fill="black" stroke="black" points="2827.96,-322.5 2837.96,-319 2827.96,-315.5 2827.96,-322.5"/>
</g>
<!-- 1990978550624&#45;&gt;1990971032256 -->
<g id="edge34" class="edge">
<title>1990978550624&#45;&gt;1990971032256</title>
<path fill="none" stroke="black" d="M2801.08,-27C2810.39,-27 2821.21,-27 2831.81,-27"/>
<polygon fill="black" stroke="black" points="2831.65,-30.5 2841.65,-27 2831.65,-23.5 2831.65,-30.5"/>
</g>
<!-- 1990979276576&#45;&gt;1990978080592 -->
<g id="edge44" class="edge">
<title>1990979276576&#45;&gt;1990978080592</title>
<path fill="none" stroke="black" d="M3016.63,-226.66C3028.06,-217.71 3042.48,-206.43 3055.34,-196.36"/>
<polygon fill="black" stroke="black" points="3057.46,-199.15 3063.18,-190.23 3053.14,-193.64 3057.46,-199.15"/>
</g>
<!-- 1990978541984&#45;&gt;1990978080592 -->
<g id="edge42" class="edge">
<title>1990978541984&#45;&gt;1990978080592</title>
<path fill="none" stroke="black" d="M3021.87,-171C3030.71,-171 3040.76,-171 3050.3,-171"/>
<polygon fill="black" stroke="black" points="3050.05,-174.5 3060.05,-171 3050.05,-167.5 3050.05,-174.5"/>
</g>
<!-- 1990971033264&#45;&gt;1990978080592 -->
<g id="edge45" class="edge">
<title>1990971033264&#45;&gt;1990978080592</title>
<path fill="none" stroke="black" d="M3016.63,-115.34C3028.06,-124.29 3042.48,-135.57 3055.34,-145.64"/>
<polygon fill="black" stroke="black" points="3053.14,-148.36 3063.18,-151.77 3057.46,-142.85 3053.14,-148.36"/>
</g>
<!-- 1990978549616&#45;&gt;1990978080592 -->
<g id="edge43" class="edge">
<title>1990978549616&#45;&gt;1990978080592</title>
<path fill="none" stroke="black" d="M3013.52,-47.08C3017.71,-52.14 3022.03,-57.66 3025.75,-63 3043.79,-88.93 3061.43,-120.43 3073.26,-142.71"/>
<polygon fill="black" stroke="black" points="3070.12,-144.27 3077.86,-151.5 3076.32,-141.02 3070.12,-144.27"/>
</g>
</g>
</svg>
