<?xml version="1.0" encoding="UTF-8" standalone="no"?>
<!DOCTYPE svg PUBLIC "-//W3C//DTD SVG 1.1//EN"
 "http://www.w3.org/Graphics/SVG/1.1/DTD/svg11.dtd">
<!-- Generated by graphviz version 11.0.0 (20240428.1522)
 -->
<!-- Title: imdf_net_1754051286.2407563 Pages: 1 -->
<svg width="2651pt" height="388pt"
 viewBox="0.00 0.00 2651.00 388.00" xmlns="http://www.w3.org/2000/svg" xmlns:xlink="http://www.w3.org/1999/xlink">
<g id="graph0" class="graph" transform="scale(1 1) rotate(0) translate(4 384)">
<title>imdf_net_1754051286.2407563</title>
<polygon fill="white" stroke="none" points="-4,4 -4,-384 2647,-384 2647,4 -4,4"/>
<!-- 1990979048736 -->
<g id="node1" class="node">
<title>1990979048736</title>
<polygon fill="black" stroke="black" points="144,-117 90,-117 90,-81 144,-81 144,-117"/>
</g>
<!-- 1990979054112 -->
<g id="node23" class="node">
<title>1990979054112</title>
<ellipse fill="white" stroke="black" cx="207" cy="-176" rx="27" ry="27"/>
</g>
<!-- 1990979048736&#45;&gt;1990979054112 -->
<g id="edge3" class="edge">
<title>1990979048736&#45;&gt;1990979054112</title>
<path fill="none" stroke="black" d="M138.85,-117.25C150.42,-127.37 164.96,-140.09 177.55,-151.11"/>
<polygon fill="black" stroke="black" points="174.93,-153.47 184.76,-157.42 179.54,-148.2 174.93,-153.47"/>
</g>
<!-- 1990976610976 -->
<g id="node24" class="node">
<title>1990976610976</title>
<ellipse fill="white" stroke="black" cx="207" cy="-99" rx="27" ry="27"/>
</g>
<!-- 1990979048736&#45;&gt;1990976610976 -->
<g id="edge2" class="edge">
<title>1990979048736&#45;&gt;1990976610976</title>
<path fill="none" stroke="black" d="M144.4,-99C151.89,-99 160.18,-99 168.2,-99"/>
<polygon fill="black" stroke="black" points="168.1,-102.5 178.1,-99 168.1,-95.5 168.1,-102.5"/>
</g>
<!-- 1990976615776 -->
<g id="node25" class="node">
<title>1990976615776</title>
<ellipse fill="white" stroke="black" cx="207" cy="-27" rx="27" ry="27"/>
</g>
<!-- 1990979048736&#45;&gt;1990976615776 -->
<g id="edge4" class="edge">
<title>1990979048736&#45;&gt;1990976615776</title>
<path fill="none" stroke="black" d="M140.21,-80.83C151.32,-71.74 164.92,-60.61 176.87,-50.84"/>
<polygon fill="black" stroke="black" points="178.92,-53.68 184.44,-44.64 174.48,-48.26 178.92,-53.68"/>
</g>
<!-- 1990978921600 -->
<g id="node2" class="node">
<title>1990978921600</title>
<polygon fill="white" stroke="black" points="346,-203 275.25,-203 275.25,-167 346,-167 346,-203"/>
<text text-anchor="middle" x="310.62" y="-179.97" font-family="Times New Roman,serif" font-size="12.00">Site Survey</text>
</g>
<!-- 1990978922656 -->
<g id="node26" class="node">
<title>1990978922656</title>
<ellipse fill="white" stroke="black" cx="414.25" cy="-190" rx="27" ry="27"/>
</g>
<!-- 1990978921600&#45;&gt;1990978922656 -->
<g id="edge10" class="edge">
<title>1990978921600&#45;&gt;1990978922656</title>
<path fill="none" stroke="black" d="M346.31,-186.71C355.8,-187.17 366.12,-187.68 375.75,-188.16"/>
<polygon fill="black" stroke="black" points="375.39,-191.64 385.55,-188.64 375.73,-184.65 375.39,-191.64"/>
</g>
<!-- 1990976602672 -->
<g id="node3" class="node">
<title>1990976602672</title>
<polygon fill="white" stroke="black" points="348.25,-109 273,-109 273,-73 348.25,-73 348.25,-109"/>
<text text-anchor="middle" x="310.62" y="-85.97" font-family="Times New Roman,serif" font-size="12.00">Water Cycle</text>
</g>
<!-- 1990976608960 -->
<g id="node28" class="node">
<title>1990976608960</title>
<ellipse fill="white" stroke="black" cx="513.38" cy="-85" rx="27" ry="27"/>
</g>
<!-- 1990976602672&#45;&gt;1990976608960 -->
<g id="edge8" class="edge">
<title>1990976602672&#45;&gt;1990976608960</title>
<path fill="none" stroke="black" d="M348.45,-89.9C384.4,-88.82 438.83,-87.2 474.98,-86.12"/>
<polygon fill="black" stroke="black" points="474.62,-89.63 484.51,-85.83 474.41,-82.63 474.62,-89.63"/>
</g>
<!-- 1990971213248 -->
<g id="node4" class="node">
<title>1990971213248</title>
<polygon fill="white" stroke="black" points="351.25,-45 270,-45 270,-9 351.25,-9 351.25,-45"/>
<text text-anchor="middle" x="310.62" y="-21.98" font-family="Times New Roman,serif" font-size="12.00">Data Analyze</text>
</g>
<!-- 1990976602912 -->
<g id="node27" class="node">
<title>1990976602912</title>
<ellipse fill="white" stroke="black" cx="917.75" cy="-27" rx="27" ry="27"/>
</g>
<!-- 1990971213248&#45;&gt;1990976602912 -->
<g id="edge9" class="edge">
<title>1990971213248&#45;&gt;1990976602912</title>
<path fill="none" stroke="black" d="M351.62,-27C392.13,-27 456.61,-27 512.38,-27 512.38,-27 512.38,-27 716.75,-27 773.36,-27 838.97,-27 879.17,-27"/>
<polygon fill="black" stroke="black" points="879.03,-30.5 889.03,-27 879.03,-23.5 879.03,-30.5"/>
</g>
<!-- 1990978913104 -->
<g id="node5" class="node">
<title>1990978913104</title>
<polygon fill="white" stroke="black" points="549.5,-227 477.25,-227 477.25,-191 549.5,-191 549.5,-227"/>
<text text-anchor="middle" x="513.38" y="-203.97" font-family="Times New Roman,serif" font-size="12.00">Rack Install</text>
</g>
<!-- 1990978712880 -->
<g id="node29" class="node">
<title>1990978712880</title>
<ellipse fill="white" stroke="black" cx="612.5" cy="-209" rx="27" ry="27"/>
</g>
<!-- 1990978913104&#45;&gt;1990978712880 -->
<g id="edge17" class="edge">
<title>1990978913104&#45;&gt;1990978712880</title>
<path fill="none" stroke="black" d="M549.99,-209C557.68,-209 565.84,-209 573.62,-209"/>
<polygon fill="black" stroke="black" points="573.5,-212.5 583.5,-209 573.5,-205.5 573.5,-212.5"/>
</g>
<!-- 1990978920256 -->
<g id="node30" class="node">
<title>1990978920256</title>
<ellipse fill="white" stroke="black" cx="612.5" cy="-137" rx="27" ry="27"/>
</g>
<!-- 1990978913104&#45;&gt;1990978920256 -->
<g id="edge15" class="edge">
<title>1990978913104&#45;&gt;1990978920256</title>
<path fill="none" stroke="black" d="M539.14,-190.65C551.92,-181.17 567.63,-169.52 581.14,-159.5"/>
<polygon fill="black" stroke="black" points="582.92,-162.54 588.87,-153.78 578.75,-156.92 582.92,-162.54"/>
</g>
<!-- 1990978712784 -->
<g id="node31" class="node">
<title>1990978712784</title>
<ellipse fill="white" stroke="black" cx="612.5" cy="-353" rx="27" ry="27"/>
</g>
<!-- 1990978913104&#45;&gt;1990978712784 -->
<g id="edge16" class="edge">
<title>1990978913104&#45;&gt;1990978712784</title>
<path fill="none" stroke="black" d="M525.97,-227.12C539.86,-248.71 563.95,-285.77 585.5,-317 586.71,-318.76 587.97,-320.56 589.25,-322.38"/>
<polygon fill="black" stroke="black" points="586.15,-324.06 594.8,-330.17 591.85,-320 586.15,-324.06"/>
</g>
<!-- 1990978713072 -->
<g id="node32" class="node">
<title>1990978713072</title>
<ellipse fill="white" stroke="black" cx="612.5" cy="-281" rx="27" ry="27"/>
</g>
<!-- 1990978913104&#45;&gt;1990978713072 -->
<g id="edge14" class="edge">
<title>1990978913104&#45;&gt;1990978713072</title>
<path fill="none" stroke="black" d="M539.14,-227.35C551.92,-236.83 567.63,-248.48 581.14,-258.5"/>
<polygon fill="black" stroke="black" points="578.75,-261.08 588.87,-264.22 582.92,-255.46 578.75,-261.08"/>
</g>
<!-- 1990979050608 -->
<g id="node6" class="node">
<title>1990979050608</title>
<polygon fill="black" stroke="black" points="2545,-127 2491,-127 2491,-91 2545,-91 2545,-127"/>
</g>
<!-- 1990979048016 -->
<g id="node33" class="node">
<title>1990979048016</title>
<ellipse fill="white" stroke="black" cx="2612" cy="-109" rx="27" ry="27"/>
<ellipse fill="none" stroke="black" cx="2612" cy="-109" rx="31" ry="31"/>
<text text-anchor="start" x="2595.5" y="-93.6" font-family="Times New Roman,serif" font-size="32.00">■</text>
</g>
<!-- 1990979050608&#45;&gt;1990979048016 -->
<g id="edge18" class="edge">
<title>1990979050608&#45;&gt;1990979048016</title>
<path fill="none" stroke="black" d="M2545.12,-109C2552.63,-109 2561.01,-109 2569.22,-109"/>
<polygon fill="black" stroke="black" points="2569.08,-112.5 2579.08,-109 2569.08,-105.5 2569.08,-112.5"/>
</g>
<!-- 1990978762800 -->
<g id="node7" class="node">
<title>1990978762800</title>
<polygon fill="white" stroke="black" points="754.88,-155 676.62,-155 676.62,-119 754.88,-119 754.88,-155"/>
<text text-anchor="middle" x="715.75" y="-131.97" font-family="Times New Roman,serif" font-size="12.00">Solution Mix</text>
</g>
<!-- 1990976846640 -->
<g id="node35" class="node">
<title>1990976846640</title>
<ellipse fill="white" stroke="black" cx="819" cy="-137" rx="27" ry="27"/>
</g>
<!-- 1990978762800&#45;&gt;1990976846640 -->
<g id="edge23" class="edge">
<title>1990978762800&#45;&gt;1990976846640</title>
<path fill="none" stroke="black" d="M755.32,-137C763.5,-137 772.13,-137 780.29,-137"/>
<polygon fill="black" stroke="black" points="780.27,-140.5 790.27,-137 780.27,-133.5 780.27,-140.5"/>
</g>
<!-- 1990978708656 -->
<g id="node8" class="node">
<title>1990978708656</title>
<polygon fill="white" stroke="black" points="756,-299 675.5,-299 675.5,-263 756,-263 756,-299"/>
<text text-anchor="middle" x="715.75" y="-275.98" font-family="Times New Roman,serif" font-size="12.00">Climate Tune</text>
</g>
<!-- 1990976832816 -->
<g id="node36" class="node">
<title>1990976832816</title>
<ellipse fill="white" stroke="black" cx="819" cy="-281" rx="27" ry="27"/>
</g>
<!-- 1990978708656&#45;&gt;1990976832816 -->
<g id="edge24" class="edge">
<title>1990978708656&#45;&gt;1990976832816</title>
<path fill="none" stroke="black" d="M756.48,-281C764.35,-281 772.59,-281 780.39,-281"/>
<polygon fill="black" stroke="black" points="780.27,-284.5 790.27,-281 780.27,-277.5 780.27,-284.5"/>
</g>
<!-- 1990978708176 -->
<g id="node9" class="node">
<title>1990978708176</title>
<polygon fill="white" stroke="black" points="751.5,-227 680,-227 680,-191 751.5,-191 751.5,-227"/>
<text text-anchor="middle" x="715.75" y="-203.97" font-family="Times New Roman,serif" font-size="12.00">Light Setup</text>
</g>
<!-- 1990976844816 -->
<g id="node34" class="node">
<title>1990976844816</title>
<ellipse fill="white" stroke="black" cx="819" cy="-209" rx="27" ry="27"/>
</g>
<!-- 1990978708176&#45;&gt;1990976844816 -->
<g id="edge25" class="edge">
<title>1990978708176&#45;&gt;1990976844816</title>
<path fill="none" stroke="black" d="M751.88,-209C761.03,-209 770.94,-209 780.23,-209"/>
<polygon fill="black" stroke="black" points="780.04,-212.5 790.04,-209 780.04,-205.5 780.04,-212.5"/>
</g>
<!-- 1990978701024 -->
<g id="node10" class="node">
<title>1990978701024</title>
<polygon fill="white" stroke="black" points="751.12,-370 680.38,-370 680.38,-334 751.12,-334 751.12,-370"/>
<text text-anchor="middle" x="715.75" y="-346.98" font-family="Times New Roman,serif" font-size="12.00">Seed Select</text>
</g>
<!-- 1990976846928 -->
<g id="node37" class="node">
<title>1990976846928</title>
<ellipse fill="white" stroke="black" cx="1016.5" cy="-350" rx="27" ry="27"/>
</g>
<!-- 1990978701024&#45;&gt;1990976846928 -->
<g id="edge26" class="edge">
<title>1990978701024&#45;&gt;1990976846928</title>
<path fill="none" stroke="black" d="M751.61,-351.77C808.2,-351.39 919.59,-350.64 977.9,-350.25"/>
<polygon fill="black" stroke="black" points="977.67,-353.75 987.65,-350.19 977.63,-346.75 977.67,-353.75"/>
</g>
<!-- 1990971214640 -->
<g id="node11" class="node">
<title>1990971214640</title>
<polygon fill="black" stroke="black" points="1533.75,-297 1479.75,-297 1479.75,-261 1533.75,-261 1533.75,-297"/>
</g>
<!-- 1990971212528 -->
<g id="node39" class="node">
<title>1990971212528</title>
<ellipse fill="white" stroke="black" cx="1596.75" cy="-278" rx="27" ry="27"/>
</g>
<!-- 1990971214640&#45;&gt;1990971212528 -->
<g id="edge31" class="edge">
<title>1990971214640&#45;&gt;1990971212528</title>
<path fill="none" stroke="black" d="M1534.15,-278.7C1541.64,-278.61 1549.93,-278.52 1557.95,-278.43"/>
<polygon fill="black" stroke="black" points="1557.89,-281.93 1567.85,-278.32 1557.81,-274.93 1557.89,-281.93"/>
</g>
<!-- 1990977927264 -->
<g id="node12" class="node">
<title>1990977927264</title>
<polygon fill="white" stroke="black" points="953.5,-227 882,-227 882,-191 953.5,-191 953.5,-227"/>
<text text-anchor="middle" x="917.75" y="-203.97" font-family="Times New Roman,serif" font-size="12.00">IoT Deploy</text>
</g>
<!-- 1990977927216 -->
<g id="node38" class="node">
<title>1990977927216</title>
<ellipse fill="white" stroke="black" cx="1016.5" cy="-209" rx="27" ry="27"/>
</g>
<!-- 1990977927264&#45;&gt;1990977927216 -->
<g id="edge32" class="edge">
<title>1990977927264&#45;&gt;1990977927216</title>
<path fill="none" stroke="black" d="M953.95,-209C961.7,-209 969.94,-209 977.79,-209"/>
<polygon fill="black" stroke="black" points="977.76,-212.5 987.76,-209 977.76,-205.5 977.76,-212.5"/>
</g>
<!-- 1990971225632 -->
<g id="node13" class="node">
<title>1990971225632</title>
<polygon fill="white" stroke="black" points="1735,-242 1659.75,-242 1659.75,-206 1735,-206 1735,-242"/>
<text text-anchor="middle" x="1697.38" y="-218.97" font-family="Times New Roman,serif" font-size="12.00">Water Cycle</text>
</g>
<!-- 1990971212480 -->
<g id="node42" class="node">
<title>1990971212480</title>
<ellipse fill="white" stroke="black" cx="1798" cy="-223" rx="27" ry="27"/>
</g>
<!-- 1990971225632&#45;&gt;1990971212480 -->
<g id="edge36" class="edge">
<title>1990971225632&#45;&gt;1990971212480</title>
<path fill="none" stroke="black" d="M1735.38,-223.62C1743.15,-223.55 1751.35,-223.46 1759.15,-223.38"/>
<polygon fill="black" stroke="black" points="1759.09,-226.88 1769.05,-223.28 1759.01,-219.89 1759.09,-226.88"/>
</g>
<!-- 1990977927792 -->
<g id="node14" class="node">
<title>1990977927792</title>
<polygon fill="white" stroke="black" points="1153.25,-227 1079.5,-227 1079.5,-191 1153.25,-191 1153.25,-227"/>
<text text-anchor="middle" x="1116.38" y="-203.97" font-family="Times New Roman,serif" font-size="12.00">System Test</text>
</g>
<!-- 1990977928080 -->
<g id="node40" class="node">
<title>1990977928080</title>
<ellipse fill="white" stroke="black" cx="1216.25" cy="-281" rx="27" ry="27"/>
</g>
<!-- 1990977927792&#45;&gt;1990977928080 -->
<g id="edge37" class="edge">
<title>1990977927792&#45;&gt;1990977928080</title>
<path fill="none" stroke="black" d="M1142.33,-227.35C1155.3,-236.9 1171.27,-248.65 1184.95,-258.71"/>
<polygon fill="black" stroke="black" points="1182.64,-261.36 1192.77,-264.47 1186.79,-255.72 1182.64,-261.36"/>
</g>
<!-- 1990977918528 -->
<g id="node41" class="node">
<title>1990977918528</title>
<ellipse fill="white" stroke="black" cx="1216.25" cy="-209" rx="27" ry="27"/>
</g>
<!-- 1990977927792&#45;&gt;1990977918528 -->
<g id="edge35" class="edge">
<title>1990977927792&#45;&gt;1990977918528</title>
<path fill="none" stroke="black" d="M1153.54,-209C1161.44,-209 1169.83,-209 1177.78,-209"/>
<polygon fill="black" stroke="black" points="1177.5,-212.5 1187.5,-209 1177.5,-205.5 1177.5,-212.5"/>
</g>
<!-- 1990977922320 -->
<g id="node15" class="node">
<title>1990977922320</title>
<polygon fill="white" stroke="black" points="1353.75,-227 1279.25,-227 1279.25,-191 1353.75,-191 1353.75,-227"/>
<text text-anchor="middle" x="1316.5" y="-203.97" font-family="Times New Roman,serif" font-size="12.00">Pest Control</text>
</g>
<!-- 1990976845728 -->
<g id="node45" class="node">
<title>1990976845728</title>
<ellipse fill="white" stroke="black" cx="1416.75" cy="-209" rx="27" ry="27"/>
</g>
<!-- 1990977922320&#45;&gt;1990976845728 -->
<g id="edge43" class="edge">
<title>1990977922320&#45;&gt;1990976845728</title>
<path fill="none" stroke="black" d="M1354.08,-209C1361.84,-209 1370.04,-209 1377.84,-209"/>
<polygon fill="black" stroke="black" points="1377.75,-212.5 1387.75,-209 1377.75,-205.5 1377.75,-212.5"/>
</g>
<!-- 1990971227072 -->
<g id="node16" class="node">
<title>1990971227072</title>
<polygon fill="white" stroke="black" points="1943.38,-293 1862.12,-293 1862.12,-257 1943.38,-257 1943.38,-293"/>
<text text-anchor="middle" x="1902.75" y="-269.98" font-family="Times New Roman,serif" font-size="12.00">Data Analyze</text>
</g>
<!-- 1990971227072&#45;&gt;1990971212528 -->
<g id="edge42" class="edge">
<title>1990971227072&#45;&gt;1990971212528</title>
<path fill="none" stroke="black" d="M1861.88,-275.39C1802.98,-275.97 1693.48,-277.06 1635.7,-277.63"/>
<polygon fill="black" stroke="black" points="1635.67,-274.13 1625.71,-277.72 1635.74,-281.13 1635.67,-274.13"/>
</g>
<!-- 1990978480096 -->
<g id="node17" class="node">
<title>1990978480096</title>
<polygon fill="white" stroke="black" points="1350,-299 1283,-299 1283,-263 1350,-263 1350,-299"/>
<text text-anchor="middle" x="1316.5" y="-275.98" font-family="Times New Roman,serif" font-size="12.00">Staff Train</text>
</g>
<!-- 1990976843856 -->
<g id="node44" class="node">
<title>1990976843856</title>
<ellipse fill="white" stroke="black" cx="1416.75" cy="-281" rx="27" ry="27"/>
</g>
<!-- 1990978480096&#45;&gt;1990976843856 -->
<g id="edge45" class="edge">
<title>1990978480096&#45;&gt;1990976843856</title>
<path fill="none" stroke="black" d="M1350.49,-281C1359.33,-281 1368.95,-281 1378.02,-281"/>
<polygon fill="black" stroke="black" points="1378.01,-284.5 1388.01,-281 1378.01,-277.5 1378.01,-284.5"/>
</g>
<!-- 1990971219056 -->
<g id="node18" class="node">
<title>1990971219056</title>
<polygon fill="white" stroke="black" points="1944.5,-239 1861,-239 1861,-203 1944.5,-203 1944.5,-239"/>
<text text-anchor="middle" x="1902.75" y="-215.97" font-family="Times New Roman,serif" font-size="12.00">Yield Monitor</text>
</g>
<!-- 1990969788320 -->
<g id="node43" class="node">
<title>1990969788320</title>
<ellipse fill="white" stroke="black" cx="2007.5" cy="-217" rx="27" ry="27"/>
</g>
<!-- 1990971219056&#45;&gt;1990969788320 -->
<g id="edge44" class="edge">
<title>1990971219056&#45;&gt;1990969788320</title>
<path fill="none" stroke="black" d="M1944.95,-219.4C1952.81,-219.09 1961,-218.77 1968.75,-218.47"/>
<polygon fill="black" stroke="black" points="1968.69,-221.97 1978.55,-218.09 1968.42,-214.98 1968.69,-221.97"/>
</g>
<!-- 1990969801760 -->
<g id="node19" class="node">
<title>1990969801760</title>
<polygon fill="white" stroke="black" points="2147.25,-227 2070.5,-227 2070.5,-191 2147.25,-191 2147.25,-227"/>
<text text-anchor="middle" x="2108.88" y="-203.97" font-family="Times New Roman,serif" font-size="12.00">Harvest Plan</text>
</g>
<!-- 1990969797776 -->
<g id="node46" class="node">
<title>1990969797776</title>
<ellipse fill="white" stroke="black" cx="2210.25" cy="-209" rx="27" ry="27"/>
</g>
<!-- 1990969801760&#45;&gt;1990969797776 -->
<g id="edge49" class="edge">
<title>1990969801760&#45;&gt;1990969797776</title>
<path fill="none" stroke="black" d="M2147.73,-209C2155.52,-209 2163.73,-209 2171.52,-209"/>
<polygon fill="black" stroke="black" points="2171.4,-212.5 2181.4,-209 2171.4,-205.5 2171.4,-212.5"/>
</g>
<!-- 1990969794128 -->
<g id="node47" class="node">
<title>1990969794128</title>
<ellipse fill="white" stroke="black" cx="2210.25" cy="-137" rx="27" ry="27"/>
</g>
<!-- 1990969801760&#45;&gt;1990969794128 -->
<g id="edge50" class="edge">
<title>1990969801760&#45;&gt;1990969794128</title>
<path fill="none" stroke="black" d="M2135.21,-190.65C2148.38,-181.1 2164.6,-169.35 2178.49,-159.29"/>
<polygon fill="black" stroke="black" points="2180.4,-162.23 2186.44,-153.53 2176.29,-156.56 2180.4,-162.23"/>
</g>
<!-- 1990969800320 -->
<g id="node20" class="node">
<title>1990969800320</title>
<polygon fill="white" stroke="black" points="2357.5,-155 2280.75,-155 2280.75,-119 2357.5,-119 2357.5,-155"/>
<text text-anchor="middle" x="2319.12" y="-131.97" font-family="Times New Roman,serif" font-size="12.00">Market Sync</text>
</g>
<!-- 1990969801088 -->
<g id="node48" class="node">
<title>1990969801088</title>
<ellipse fill="white" stroke="black" cx="2428" cy="-137" rx="27" ry="27"/>
</g>
<!-- 1990969800320&#45;&gt;1990969801088 -->
<g id="edge54" class="edge">
<title>1990969800320&#45;&gt;1990969801088</title>
<path fill="none" stroke="black" d="M2357.81,-137C2368,-137 2379.03,-137 2389.23,-137"/>
<polygon fill="black" stroke="black" points="2389.21,-140.5 2399.21,-137 2389.21,-133.5 2389.21,-140.5"/>
</g>
<!-- 1990969798592 -->
<g id="node21" class="node">
<title>1990969798592</title>
<polygon fill="white" stroke="black" points="2365,-227 2273.25,-227 2273.25,-191 2365,-191 2365,-227"/>
<text text-anchor="middle" x="2319.12" y="-203.97" font-family="Times New Roman,serif" font-size="12.00">Regulate Check</text>
</g>
<!-- 1990969795232 -->
<g id="node49" class="node">
<title>1990969795232</title>
<ellipse fill="white" stroke="black" cx="2428" cy="-209" rx="27" ry="27"/>
</g>
<!-- 1990969798592&#45;&gt;1990969795232 -->
<g id="edge53" class="edge">
<title>1990969798592&#45;&gt;1990969795232</title>
<path fill="none" stroke="black" d="M2365.45,-209C2373.46,-209 2381.72,-209 2389.48,-209"/>
<polygon fill="black" stroke="black" points="2389.28,-212.5 2399.28,-209 2389.28,-205.5 2389.28,-212.5"/>
</g>
<!-- 1990979049648 -->
<g id="node22" class="node">
<title>1990979049648</title>
<ellipse fill="white" stroke="black" cx="27" cy="-99" rx="27" ry="27"/>
<text text-anchor="start" x="9.75" y="-81.7" font-family="Times New Roman,serif" font-size="34.00">●</text>
</g>
<!-- 1990979049648&#45;&gt;1990979048736 -->
<g id="edge1" class="edge">
<title>1990979049648&#45;&gt;1990979048736</title>
<path fill="none" stroke="black" d="M54.4,-99C61.89,-99 70.18,-99 78.2,-99"/>
<polygon fill="black" stroke="black" points="78.1,-102.5 88.1,-99 78.1,-95.5 78.1,-102.5"/>
</g>
<!-- 1990979054112&#45;&gt;1990978921600 -->
<g id="edge5" class="edge">
<title>1990979054112&#45;&gt;1990978921600</title>
<path fill="none" stroke="black" d="M234.17,-178.32C243.23,-179.12 253.67,-180.04 263.83,-180.94"/>
<polygon fill="black" stroke="black" points="263.33,-184.41 273.6,-181.81 263.95,-177.44 263.33,-184.41"/>
</g>
<!-- 1990976610976&#45;&gt;1990976602672 -->
<g id="edge6" class="edge">
<title>1990976610976&#45;&gt;1990976602672</title>
<path fill="none" stroke="black" d="M234.17,-96.94C242.53,-96.28 252.07,-95.53 261.48,-94.79"/>
<polygon fill="black" stroke="black" points="261.62,-98.29 271.31,-94.02 261.07,-91.31 261.62,-98.29"/>
</g>
<!-- 1990976615776&#45;&gt;1990971213248 -->
<g id="edge7" class="edge">
<title>1990976615776&#45;&gt;1990971213248</title>
<path fill="none" stroke="black" d="M234.44,-27C241.71,-27 249.86,-27 258.03,-27"/>
<polygon fill="black" stroke="black" points="258.01,-30.5 268.01,-27 258.01,-23.5 258.01,-30.5"/>
</g>
<!-- 1990978922656&#45;&gt;1990978913104 -->
<g id="edge12" class="edge">
<title>1990978922656&#45;&gt;1990978913104</title>
<path fill="none" stroke="black" d="M441.02,-195.04C448.68,-196.54 457.32,-198.23 465.87,-199.9"/>
<polygon fill="black" stroke="black" points="465,-203.3 475.49,-201.78 466.35,-196.43 465,-203.3"/>
</g>
<!-- 1990976602912&#45;&gt;1990979050608 -->
<g id="edge13" class="edge">
<title>1990976602912&#45;&gt;1990979050608</title>
<path fill="none" stroke="black" d="M945.14,-28.1C982.87,-29.57 1054.42,-32 1115.38,-32 1115.38,-32 1115.38,-32 2320.12,-32 2382.17,-32 2398.41,-42.56 2455,-68 2464.77,-72.39 2474.72,-78.24 2483.7,-84.15"/>
<polygon fill="black" stroke="black" points="2481.54,-86.91 2491.78,-89.66 2485.49,-81.13 2481.54,-86.91"/>
</g>
<!-- 1990976608960&#45;&gt;1990979050608 -->
<g id="edge11" class="edge">
<title>1990976608960&#45;&gt;1990979050608</title>
<path fill="none" stroke="black" d="M540.63,-84.36C578.91,-83.47 652.3,-82 714.75,-82 714.75,-82 714.75,-82 2320.12,-82 2376.05,-82 2440.1,-92.83 2479.55,-100.77"/>
<polygon fill="black" stroke="black" points="2478.74,-104.18 2489.24,-102.77 2480.16,-97.32 2478.74,-104.18"/>
</g>
<!-- 1990978712880&#45;&gt;1990978708176 -->
<g id="edge22" class="edge">
<title>1990978712880&#45;&gt;1990978708176</title>
<path fill="none" stroke="black" d="M639.84,-209C648.6,-209 658.63,-209 668.44,-209"/>
<polygon fill="black" stroke="black" points="668.26,-212.5 678.26,-209 668.26,-205.5 668.26,-212.5"/>
</g>
<!-- 1990978920256&#45;&gt;1990978762800 -->
<g id="edge20" class="edge">
<title>1990978920256&#45;&gt;1990978762800</title>
<path fill="none" stroke="black" d="M639.84,-137C647.58,-137 656.31,-137 665.01,-137"/>
<polygon fill="black" stroke="black" points="664.83,-140.5 674.83,-137 664.83,-133.5 664.83,-140.5"/>
</g>
<!-- 1990978712784&#45;&gt;1990978701024 -->
<g id="edge19" class="edge">
<title>1990978712784&#45;&gt;1990978701024</title>
<path fill="none" stroke="black" d="M639.84,-352.74C648.68,-352.65 658.82,-352.55 668.73,-352.45"/>
<polygon fill="black" stroke="black" points="668.67,-355.96 678.64,-352.36 668.6,-348.96 668.67,-355.96"/>
</g>
<!-- 1990978713072&#45;&gt;1990978708656 -->
<g id="edge21" class="edge">
<title>1990978713072&#45;&gt;1990978708656</title>
<path fill="none" stroke="black" d="M639.84,-281C647.25,-281 655.57,-281 663.9,-281"/>
<polygon fill="black" stroke="black" points="663.67,-284.5 673.67,-281 663.67,-277.5 663.67,-284.5"/>
</g>
<!-- 1990976844816&#45;&gt;1990977927264 -->
<g id="edge30" class="edge">
<title>1990976844816&#45;&gt;1990977927264</title>
<path fill="none" stroke="black" d="M846.44,-209C853.81,-209 862.06,-209 870.23,-209"/>
<polygon fill="black" stroke="black" points="870.12,-212.5 880.12,-209 870.12,-205.5 870.12,-212.5"/>
</g>
<!-- 1990976846640&#45;&gt;1990977927264 -->
<g id="edge29" class="edge">
<title>1990976846640&#45;&gt;1990977927264</title>
<path fill="none" stroke="black" d="M840.99,-152.62C853.3,-161.78 869.14,-173.57 883.15,-183.99"/>
<polygon fill="black" stroke="black" points="880.71,-186.54 890.82,-189.7 884.89,-180.92 880.71,-186.54"/>
</g>
<!-- 1990976832816&#45;&gt;1990977927264 -->
<g id="edge28" class="edge">
<title>1990976832816&#45;&gt;1990977927264</title>
<path fill="none" stroke="black" d="M840.99,-265.38C853.3,-256.22 869.14,-244.43 883.15,-234.01"/>
<polygon fill="black" stroke="black" points="884.89,-237.08 890.82,-228.3 880.71,-231.46 884.89,-237.08"/>
</g>
<!-- 1990976846928&#45;&gt;1990971214640 -->
<g id="edge27" class="edge">
<title>1990976846928&#45;&gt;1990971214640</title>
<path fill="none" stroke="black" d="M1043.73,-349.13C1081.59,-347.96 1153.78,-346 1215.25,-346 1215.25,-346 1215.25,-346 1317.5,-346 1375.07,-346 1390.45,-338.77 1443.75,-317 1452.74,-313.33 1461.92,-308.43 1470.37,-303.38"/>
<polygon fill="black" stroke="black" points="1471.98,-306.5 1478.61,-298.24 1468.28,-300.56 1471.98,-306.5"/>
</g>
<!-- 1990977927216&#45;&gt;1990977927792 -->
<g id="edge33" class="edge">
<title>1990977927216&#45;&gt;1990977927792</title>
<path fill="none" stroke="black" d="M1043.99,-209C1051.37,-209 1059.63,-209 1067.84,-209"/>
<polygon fill="black" stroke="black" points="1067.8,-212.5 1077.8,-209 1067.8,-205.5 1067.8,-212.5"/>
</g>
<!-- 1990971212528&#45;&gt;1990971225632 -->
<g id="edge34" class="edge">
<title>1990971212528&#45;&gt;1990971225632</title>
<path fill="none" stroke="black" d="M1620.87,-265.34C1630.46,-260.09 1641.91,-253.82 1652.97,-247.77"/>
<polygon fill="black" stroke="black" points="1654.52,-250.91 1661.61,-243.04 1651.16,-244.77 1654.52,-250.91"/>
</g>
<!-- 1990977928080&#45;&gt;1990978480096 -->
<g id="edge41" class="edge">
<title>1990977928080&#45;&gt;1990978480096</title>
<path fill="none" stroke="black" d="M1243.58,-281C1252.15,-281 1261.9,-281 1271.4,-281"/>
<polygon fill="black" stroke="black" points="1271.26,-284.5 1281.26,-281 1271.26,-277.5 1271.26,-284.5"/>
</g>
<!-- 1990977918528&#45;&gt;1990977922320 -->
<g id="edge40" class="edge">
<title>1990977918528&#45;&gt;1990977922320</title>
<path fill="none" stroke="black" d="M1243.58,-209C1250.92,-209 1259.13,-209 1267.31,-209"/>
<polygon fill="black" stroke="black" points="1267.24,-212.5 1277.24,-209 1267.24,-205.5 1267.24,-212.5"/>
</g>
<!-- 1990971212480&#45;&gt;1990971227072 -->
<g id="edge38" class="edge">
<title>1990971212480&#45;&gt;1990971227072</title>
<path fill="none" stroke="black" d="M1822.57,-234.93C1832.28,-239.84 1843.88,-245.71 1855.17,-251.43"/>
<polygon fill="black" stroke="black" points="1853.54,-254.52 1864.04,-255.92 1856.7,-248.28 1853.54,-254.52"/>
</g>
<!-- 1990971212480&#45;&gt;1990971219056 -->
<g id="edge39" class="edge">
<title>1990971212480&#45;&gt;1990971219056</title>
<path fill="none" stroke="black" d="M1825.46,-222.48C1832.82,-222.34 1841.08,-222.18 1849.37,-222.02"/>
<polygon fill="black" stroke="black" points="1849.18,-225.52 1859.11,-221.83 1849.04,-218.53 1849.18,-225.52"/>
</g>
<!-- 1990969788320&#45;&gt;1990969801760 -->
<g id="edge48" class="edge">
<title>1990969788320&#45;&gt;1990969801760</title>
<path fill="none" stroke="black" d="M2034.87,-214.88C2042.3,-214.28 2050.63,-213.61 2058.94,-212.94"/>
<polygon fill="black" stroke="black" points="2058.96,-216.45 2068.65,-212.16 2058.4,-209.47 2058.96,-216.45"/>
</g>
<!-- 1990976843856&#45;&gt;1990971214640 -->
<g id="edge46" class="edge">
<title>1990976843856&#45;&gt;1990971214640</title>
<path fill="none" stroke="black" d="M1444.15,-280.4C1451.64,-280.23 1459.93,-280.04 1467.95,-279.86"/>
<polygon fill="black" stroke="black" points="1467.93,-283.36 1477.85,-279.63 1467.78,-276.36 1467.93,-283.36"/>
</g>
<!-- 1990976845728&#45;&gt;1990971214640 -->
<g id="edge47" class="edge">
<title>1990976845728&#45;&gt;1990971214640</title>
<path fill="none" stroke="black" d="M1438.6,-225.59C1449.14,-233.97 1462.14,-244.31 1473.89,-253.66"/>
<polygon fill="black" stroke="black" points="1471.38,-256.13 1481.38,-259.62 1475.74,-250.65 1471.38,-256.13"/>
</g>
<!-- 1990969797776&#45;&gt;1990969798592 -->
<g id="edge51" class="edge">
<title>1990969797776&#45;&gt;1990969798592</title>
<path fill="none" stroke="black" d="M2237.67,-209C2244.98,-209 2253.2,-209 2261.53,-209"/>
<polygon fill="black" stroke="black" points="2261.36,-212.5 2271.36,-209 2261.36,-205.5 2261.36,-212.5"/>
</g>
<!-- 1990969794128&#45;&gt;1990969800320 -->
<g id="edge52" class="edge">
<title>1990969794128&#45;&gt;1990969800320</title>
<path fill="none" stroke="black" d="M2237.67,-137C2247.11,-137 2258.08,-137 2268.82,-137"/>
<polygon fill="black" stroke="black" points="2268.8,-140.5 2278.8,-137 2268.8,-133.5 2268.8,-140.5"/>
</g>
<!-- 1990969801088&#45;&gt;1990979050608 -->
<g id="edge56" class="edge">
<title>1990969801088&#45;&gt;1990979050608</title>
<path fill="none" stroke="black" d="M2453.98,-129.05C2462.06,-126.48 2471.19,-123.58 2479.95,-120.79"/>
<polygon fill="black" stroke="black" points="2480.82,-124.19 2489.29,-117.82 2478.69,-117.52 2480.82,-124.19"/>
</g>
<!-- 1990969795232&#45;&gt;1990979050608 -->
<g id="edge55" class="edge">
<title>1990969795232&#45;&gt;1990979050608</title>
<path fill="none" stroke="black" d="M2446.39,-189.24C2459.86,-173.93 2478.68,-152.54 2493.5,-135.7"/>
<polygon fill="black" stroke="black" points="2495.86,-138.32 2499.84,-128.5 2490.6,-133.7 2495.86,-138.32"/>
</g>
</g>
</svg>
