<?xml version="1.0" encoding="UTF-8" standalone="no"?>
<!DOCTYPE svg PUBLIC "-//W3C//DTD SVG 1.1//EN"
 "http://www.w3.org/Graphics/SVG/1.1/DTD/svg11.dtd">
<!-- Generated by graphviz version 11.0.0 (20240428.1522)
 -->
<!-- Title: imdf_net_1754051321.6699853 Pages: 1 -->
<svg width="2177pt" height="314pt"
 viewBox="0.00 0.00 2176.75 314.00" xmlns="http://www.w3.org/2000/svg" xmlns:xlink="http://www.w3.org/1999/xlink">
<g id="graph0" class="graph" transform="scale(1 1) rotate(0) translate(4 310)">
<title>imdf_net_1754051321.6699853</title>
<polygon fill="white" stroke="none" points="-4,4 -4,-310 2172.75,-310 2172.75,4 -4,4"/>
<!-- 1990979923232 -->
<g id="node1" class="node">
<title>1990979923232</title>
<polygon fill="white" stroke="black" points="175,-153 90,-153 90,-117 175,-117 175,-153"/>
<text text-anchor="middle" x="132.5" y="-129.97" font-family="Times New Roman,serif" font-size="12.00">Intake Review</text>
</g>
<!-- 1990979166592 -->
<g id="node18" class="node">
<title>1990979166592</title>
<ellipse fill="white" stroke="black" cx="238" cy="-171" rx="27" ry="27"/>
</g>
<!-- 1990979923232&#45;&gt;1990979166592 -->
<g id="edge3" class="edge">
<title>1990979923232&#45;&gt;1990979166592</title>
<path fill="none" stroke="black" d="M175.3,-149.54C183.96,-152.55 193.01,-155.7 201.42,-158.62"/>
<polygon fill="black" stroke="black" points="200,-161.84 210.6,-161.82 202.3,-155.23 200,-161.84"/>
</g>
<!-- 1990980027024 -->
<g id="node19" class="node">
<title>1990980027024</title>
<ellipse fill="white" stroke="black" cx="238" cy="-99" rx="27" ry="27"/>
</g>
<!-- 1990979923232&#45;&gt;1990980027024 -->
<g id="edge2" class="edge">
<title>1990979923232&#45;&gt;1990980027024</title>
<path fill="none" stroke="black" d="M175.3,-120.46C183.96,-117.45 193.01,-114.3 201.42,-111.38"/>
<polygon fill="black" stroke="black" points="202.3,-114.77 210.6,-108.18 200,-108.16 202.3,-114.77"/>
</g>
<!-- 1990980026496 -->
<g id="node2" class="node">
<title>1990980026496</title>
<polygon fill="white" stroke="black" points="386.75,-117 301,-117 301,-81 386.75,-81 386.75,-117"/>
<text text-anchor="middle" x="343.88" y="-93.97" font-family="Times New Roman,serif" font-size="12.00">Image Capture</text>
</g>
<!-- 1990981008944 -->
<g id="node22" class="node">
<title>1990981008944</title>
<ellipse fill="white" stroke="black" cx="449.75" cy="-99" rx="27" ry="27"/>
</g>
<!-- 1990980026496&#45;&gt;1990981008944 -->
<g id="edge6" class="edge">
<title>1990980026496&#45;&gt;1990981008944</title>
<path fill="none" stroke="black" d="M387.12,-99C395.03,-99 403.25,-99 411.01,-99"/>
<polygon fill="black" stroke="black" points="410.82,-102.5 420.82,-99 410.82,-95.5 410.82,-102.5"/>
</g>
<!-- 1990981008608 -->
<g id="node23" class="node">
<title>1990981008608</title>
<ellipse fill="white" stroke="black" cx="449.75" cy="-27" rx="27" ry="27"/>
</g>
<!-- 1990980026496&#45;&gt;1990981008608 -->
<g id="edge9" class="edge">
<title>1990980026496&#45;&gt;1990981008608</title>
<path fill="none" stroke="black" d="M371.36,-80.65C385.46,-70.87 402.89,-58.79 417.63,-48.57"/>
<polygon fill="black" stroke="black" points="419.4,-51.6 425.63,-43.03 415.42,-45.85 419.4,-51.6"/>
</g>
<!-- 1990979167456 -->
<g id="node3" class="node">
<title>1990979167456</title>
<polygon fill="white" stroke="black" points="383,-189 304.75,-189 304.75,-153 383,-153 383,-189"/>
<text text-anchor="middle" x="343.88" y="-165.97" font-family="Times New Roman,serif" font-size="12.00">Material Test</text>
</g>
<!-- 1990981009280 -->
<g id="node20" class="node">
<title>1990981009280</title>
<ellipse fill="white" stroke="black" cx="449.75" cy="-171" rx="27" ry="27"/>
</g>
<!-- 1990979167456&#45;&gt;1990981009280 -->
<g id="edge7" class="edge">
<title>1990979167456&#45;&gt;1990981009280</title>
<path fill="none" stroke="black" d="M383.26,-171C392.34,-171 402.02,-171 411.07,-171"/>
<polygon fill="black" stroke="black" points="410.99,-174.5 420.99,-171 410.99,-167.5 410.99,-174.5"/>
</g>
<!-- 1990981075216 -->
<g id="node21" class="node">
<title>1990981075216</title>
<ellipse fill="white" stroke="black" cx="449.75" cy="-243" rx="27" ry="27"/>
</g>
<!-- 1990979167456&#45;&gt;1990981075216 -->
<g id="edge8" class="edge">
<title>1990979167456&#45;&gt;1990981075216</title>
<path fill="none" stroke="black" d="M371.36,-189.35C385.46,-199.13 402.89,-211.21 417.63,-221.43"/>
<polygon fill="black" stroke="black" points="415.42,-224.15 425.63,-226.97 419.4,-218.4 415.42,-224.15"/>
</g>
<!-- 1990980999728 -->
<g id="node4" class="node">
<title>1990980999728</title>
<polygon fill="white" stroke="black" points="612.75,-243 518,-243 518,-207 612.75,-207 612.75,-243"/>
<text text-anchor="middle" x="565.38" y="-219.97" font-family="Times New Roman,serif" font-size="12.00">Database Search</text>
</g>
<!-- 1990981076224 -->
<g id="node24" class="node">
<title>1990981076224</title>
<ellipse fill="white" stroke="black" cx="681" cy="-279" rx="27" ry="27"/>
</g>
<!-- 1990980999728&#45;&gt;1990981076224 -->
<g id="edge16" class="edge">
<title>1990980999728&#45;&gt;1990981076224</title>
<path fill="none" stroke="black" d="M605.16,-243.43C618.42,-249.73 633.14,-256.73 646,-262.84"/>
<polygon fill="black" stroke="black" points="644.38,-265.95 654.91,-267.08 647.38,-259.62 644.38,-265.95"/>
</g>
<!-- 1990981076560 -->
<g id="node26" class="node">
<title>1990981076560</title>
<ellipse fill="white" stroke="black" cx="681" cy="-207" rx="27" ry="27"/>
</g>
<!-- 1990980999728&#45;&gt;1990981076560 -->
<g id="edge17" class="edge">
<title>1990980999728&#45;&gt;1990981076560</title>
<path fill="none" stroke="black" d="M613.25,-217.57C623.16,-216.01 633.48,-214.37 642.97,-212.87"/>
<polygon fill="black" stroke="black" points="643.21,-216.37 652.54,-211.35 642.12,-209.46 643.21,-216.37"/>
</g>
<!-- 1990980117200 -->
<g id="node5" class="node">
<title>1990980117200</title>
<polygon fill="white" stroke="black" points="618,-117 512.75,-117 512.75,-81 618,-81 618,-117"/>
<text text-anchor="middle" x="565.38" y="-93.97" font-family="Times New Roman,serif" font-size="12.00">Provenance Check</text>
</g>
<!-- 1990981075888 -->
<g id="node25" class="node">
<title>1990981075888</title>
<ellipse fill="white" stroke="black" cx="681" cy="-63" rx="27" ry="27"/>
</g>
<!-- 1990980117200&#45;&gt;1990981075888 -->
<g id="edge15" class="edge">
<title>1990980117200&#45;&gt;1990981075888</title>
<path fill="none" stroke="black" d="M618.2,-82.58C626.97,-79.8 635.9,-76.97 644.15,-74.36"/>
<polygon fill="black" stroke="black" points="644.97,-77.77 653.45,-71.41 642.86,-71.1 644.97,-77.77"/>
</g>
<!-- 1990981075552 -->
<g id="node27" class="node">
<title>1990981075552</title>
<ellipse fill="white" stroke="black" cx="681" cy="-135" rx="27" ry="27"/>
</g>
<!-- 1990980117200&#45;&gt;1990981075552 -->
<g id="edge14" class="edge">
<title>1990980117200&#45;&gt;1990981075552</title>
<path fill="none" stroke="black" d="M618.2,-115.42C626.97,-118.2 635.9,-121.03 644.15,-123.64"/>
<polygon fill="black" stroke="black" points="642.86,-126.9 653.45,-126.59 644.97,-120.23 642.86,-126.9"/>
</g>
<!-- 1990981001264 -->
<g id="node6" class="node">
<title>1990981001264</title>
<polygon fill="white" stroke="black" points="834.25,-225 756,-225 756,-189 834.25,-189 834.25,-225"/>
<text text-anchor="middle" x="795.12" y="-201.97" font-family="Times New Roman,serif" font-size="12.00">Surface Scan</text>
</g>
<!-- 1990981076896 -->
<g id="node28" class="node">
<title>1990981076896</title>
<ellipse fill="white" stroke="black" cx="909.25" cy="-207" rx="27" ry="27"/>
</g>
<!-- 1990981001264&#45;&gt;1990981076896 -->
<g id="edge22" class="edge">
<title>1990981001264&#45;&gt;1990981076896</title>
<path fill="none" stroke="black" d="M834.71,-207C846.28,-207 858.95,-207 870.46,-207"/>
<polygon fill="black" stroke="black" points="870.43,-210.5 880.43,-207 870.43,-203.5 870.43,-210.5"/>
</g>
<!-- 1990981002080 -->
<g id="node7" class="node">
<title>1990981002080</title>
<polygon fill="white" stroke="black" points="846.25,-153 744,-153 744,-117 846.25,-117 846.25,-153"/>
<text text-anchor="middle" x="795.12" y="-129.97" font-family="Times New Roman,serif" font-size="12.00">Radiocarbon Date</text>
</g>
<!-- 1990981077232 -->
<g id="node29" class="node">
<title>1990981077232</title>
<ellipse fill="white" stroke="black" cx="909.25" cy="-135" rx="27" ry="27"/>
</g>
<!-- 1990981002080&#45;&gt;1990981077232 -->
<g id="edge23" class="edge">
<title>1990981002080&#45;&gt;1990981077232</title>
<path fill="none" stroke="black" d="M846.61,-135C854.72,-135 862.98,-135 870.71,-135"/>
<polygon fill="black" stroke="black" points="870.44,-138.5 880.44,-135 870.44,-131.5 870.44,-138.5"/>
</g>
<!-- 1990981002896 -->
<g id="node8" class="node">
<title>1990981002896</title>
<polygon fill="white" stroke="black" points="1048.25,-189 972.25,-189 972.25,-153 1048.25,-153 1048.25,-189"/>
<text text-anchor="middle" x="1010.25" y="-165.97" font-family="Times New Roman,serif" font-size="12.00">Report Draft</text>
</g>
<!-- 1990981003856 -->
<g id="node30" class="node">
<title>1990981003856</title>
<ellipse fill="white" stroke="black" cx="1111.25" cy="-171" rx="27" ry="27"/>
</g>
<!-- 1990981002896&#45;&gt;1990981003856 -->
<g id="edge26" class="edge">
<title>1990981002896&#45;&gt;1990981003856</title>
<path fill="none" stroke="black" d="M1048.68,-171C1056.46,-171 1064.66,-171 1072.46,-171"/>
<polygon fill="black" stroke="black" points="1072.35,-174.5 1082.35,-171 1072.35,-167.5 1072.35,-174.5"/>
</g>
<!-- 1990981004432 -->
<g id="node9" class="node">
<title>1990981004432</title>
<polygon fill="white" stroke="black" points="1251,-189 1174.25,-189 1174.25,-153 1251,-153 1251,-189"/>
<text text-anchor="middle" x="1212.62" y="-165.97" font-family="Times New Roman,serif" font-size="12.00">Peer Review</text>
</g>
<!-- 1990981004672 -->
<g id="node31" class="node">
<title>1990981004672</title>
<ellipse fill="white" stroke="black" cx="1314" cy="-135" rx="27" ry="27"/>
</g>
<!-- 1990981004432&#45;&gt;1990981004672 -->
<g id="edge29" class="edge">
<title>1990981004432&#45;&gt;1990981004672</title>
<path fill="none" stroke="black" d="M1251.48,-157.29C1260.02,-154.19 1269.06,-150.92 1277.5,-147.86"/>
<polygon fill="black" stroke="black" points="1278.53,-151.21 1286.74,-144.51 1276.15,-144.63 1278.53,-151.21"/>
</g>
<!-- 1990981005488 -->
<g id="node32" class="node">
<title>1990981005488</title>
<ellipse fill="white" stroke="black" cx="1314" cy="-207" rx="27" ry="27"/>
</g>
<!-- 1990981004432&#45;&gt;1990981005488 -->
<g id="edge28" class="edge">
<title>1990981004432&#45;&gt;1990981005488</title>
<path fill="none" stroke="black" d="M1251.48,-184.71C1260.02,-187.81 1269.06,-191.08 1277.5,-194.14"/>
<polygon fill="black" stroke="black" points="1276.15,-197.37 1286.74,-197.49 1278.53,-190.79 1276.15,-197.37"/>
</g>
<!-- 1990981005248 -->
<g id="node10" class="node">
<title>1990981005248</title>
<polygon fill="white" stroke="black" points="1452.25,-153 1380.75,-153 1380.75,-117 1452.25,-117 1452.25,-153"/>
<text text-anchor="middle" x="1416.5" y="-129.97" font-family="Times New Roman,serif" font-size="12.00">Legal Clear</text>
</g>
<!-- 1990981078576 -->
<g id="node34" class="node">
<title>1990981078576</title>
<ellipse fill="white" stroke="black" cx="1519" cy="-135" rx="27" ry="27"/>
</g>
<!-- 1990981005248&#45;&gt;1990981078576 -->
<g id="edge33" class="edge">
<title>1990981005248&#45;&gt;1990981078576</title>
<path fill="none" stroke="black" d="M1452.65,-135C1461.54,-135 1471.14,-135 1480.16,-135"/>
<polygon fill="black" stroke="black" points="1480.07,-138.5 1490.07,-135 1480.07,-131.5 1480.07,-138.5"/>
</g>
<!-- 1990981006064 -->
<g id="node11" class="node">
<title>1990981006064</title>
<polygon fill="white" stroke="black" points="1456,-225 1377,-225 1377,-189 1456,-189 1456,-225"/>
<text text-anchor="middle" x="1416.5" y="-201.97" font-family="Times New Roman,serif" font-size="12.00">Ethical Audit</text>
</g>
<!-- 1990981078912 -->
<g id="node33" class="node">
<title>1990981078912</title>
<ellipse fill="white" stroke="black" cx="1519" cy="-207" rx="27" ry="27"/>
</g>
<!-- 1990981006064&#45;&gt;1990981078912 -->
<g id="edge32" class="edge">
<title>1990981006064&#45;&gt;1990981078912</title>
<path fill="none" stroke="black" d="M1456.36,-207C1464.21,-207 1472.45,-207 1480.26,-207"/>
<polygon fill="black" stroke="black" points="1480.16,-210.5 1490.16,-207 1480.16,-203.5 1480.16,-210.5"/>
</g>
<!-- 1990980953552 -->
<g id="node12" class="node">
<title>1990980953552</title>
<polygon fill="white" stroke="black" points="1670,-189 1582,-189 1582,-153 1670,-153 1670,-189"/>
<text text-anchor="middle" x="1626" y="-165.97" font-family="Times New Roman,serif" font-size="12.00">Certify Artifact</text>
</g>
<!-- 1990980957968 -->
<g id="node35" class="node">
<title>1990980957968</title>
<ellipse fill="white" stroke="black" cx="1733" cy="-243" rx="27" ry="27"/>
</g>
<!-- 1990980953552&#45;&gt;1990980957968 -->
<g id="edge37" class="edge">
<title>1990980953552&#45;&gt;1990980957968</title>
<path fill="none" stroke="black" d="M1653.77,-189.35C1668.12,-199.2 1685.89,-211.38 1700.86,-221.64"/>
<polygon fill="black" stroke="black" points="1698.75,-224.45 1708.98,-227.21 1702.71,-218.67 1698.75,-224.45"/>
</g>
<!-- 1990980951536 -->
<g id="node36" class="node">
<title>1990980951536</title>
<ellipse fill="white" stroke="black" cx="1733" cy="-99" rx="27" ry="27"/>
</g>
<!-- 1990980953552&#45;&gt;1990980951536 -->
<g id="edge38" class="edge">
<title>1990980953552&#45;&gt;1990980951536</title>
<path fill="none" stroke="black" d="M1653.77,-152.65C1668.12,-142.8 1685.89,-130.62 1700.86,-120.36"/>
<polygon fill="black" stroke="black" points="1702.71,-123.33 1708.98,-114.79 1698.75,-117.55 1702.71,-123.33"/>
</g>
<!-- 1990981007216 -->
<g id="node37" class="node">
<title>1990981007216</title>
<ellipse fill="white" stroke="black" cx="1733" cy="-171" rx="27" ry="27"/>
</g>
<!-- 1990980953552&#45;&gt;1990981007216 -->
<g id="edge36" class="edge">
<title>1990980953552&#45;&gt;1990981007216</title>
<path fill="none" stroke="black" d="M1670.31,-171C1678.27,-171 1686.51,-171 1694.28,-171"/>
<polygon fill="black" stroke="black" points="1694.1,-174.5 1704.1,-171 1694.1,-167.5 1694.1,-174.5"/>
</g>
<!-- 1990980950432 -->
<g id="node13" class="node">
<title>1990980950432</title>
<polygon fill="white" stroke="black" points="1883.25,-117 1803.5,-117 1803.5,-81 1883.25,-81 1883.25,-117"/>
<text text-anchor="middle" x="1843.38" y="-93.97" font-family="Times New Roman,serif" font-size="12.00">Archive Data</text>
</g>
<!-- 1990980952304 -->
<g id="node40" class="node">
<title>1990980952304</title>
<ellipse fill="white" stroke="black" cx="1953.75" cy="-99" rx="27" ry="27"/>
</g>
<!-- 1990980950432&#45;&gt;1990980952304 -->
<g id="edge44" class="edge">
<title>1990980950432&#45;&gt;1990980952304</title>
<path fill="none" stroke="black" d="M1883.5,-99C1893.79,-99 1904.86,-99 1915.06,-99"/>
<polygon fill="black" stroke="black" points="1915.04,-102.5 1925.04,-99 1915.04,-95.5 1915.04,-102.5"/>
</g>
<!-- 1990981006640 -->
<g id="node14" class="node">
<title>1990981006640</title>
<polygon fill="white" stroke="black" points="1887,-261 1799.75,-261 1799.75,-225 1887,-225 1887,-261"/>
<text text-anchor="middle" x="1843.38" y="-237.97" font-family="Times New Roman,serif" font-size="12.00">Return Artifact</text>
</g>
<!-- 1990980958208 -->
<g id="node38" class="node">
<title>1990980958208</title>
<ellipse fill="white" stroke="black" cx="1953.75" cy="-243" rx="27" ry="27"/>
</g>
<!-- 1990981006640&#45;&gt;1990980958208 -->
<g id="edge42" class="edge">
<title>1990981006640&#45;&gt;1990980958208</title>
<path fill="none" stroke="black" d="M1887.21,-243C1896.42,-243 1906.1,-243 1915.1,-243"/>
<polygon fill="black" stroke="black" points="1914.93,-246.5 1924.93,-243 1914.93,-239.5 1914.93,-246.5"/>
</g>
<!-- 1990981007792 -->
<g id="node15" class="node">
<title>1990981007792</title>
<polygon fill="white" stroke="black" points="1890.75,-189 1796,-189 1796,-153 1890.75,-153 1890.75,-189"/>
<text text-anchor="middle" x="1843.38" y="-165.97" font-family="Times New Roman,serif" font-size="12.00">Traceability Log</text>
</g>
<!-- 1990981006880 -->
<g id="node39" class="node">
<title>1990981006880</title>
<ellipse fill="white" stroke="black" cx="1953.75" cy="-171" rx="27" ry="27"/>
</g>
<!-- 1990981007792&#45;&gt;1990981006880 -->
<g id="edge43" class="edge">
<title>1990981007792&#45;&gt;1990981006880</title>
<path fill="none" stroke="black" d="M1890.96,-171C1899.04,-171 1907.35,-171 1915.15,-171"/>
<polygon fill="black" stroke="black" points="1914.98,-174.5 1924.98,-171 1914.98,-167.5 1914.98,-174.5"/>
</g>
<!-- 1990979922032 -->
<g id="node16" class="node">
<title>1990979922032</title>
<polygon fill="black" stroke="black" points="2070.75,-189 2016.75,-189 2016.75,-153 2070.75,-153 2070.75,-189"/>
</g>
<!-- 1990979323616 -->
<g id="node41" class="node">
<title>1990979323616</title>
<ellipse fill="white" stroke="black" cx="2137.75" cy="-171" rx="27" ry="27"/>
<ellipse fill="none" stroke="black" cx="2137.75" cy="-171" rx="31" ry="31"/>
<text text-anchor="start" x="2121.25" y="-155.6" font-family="Times New Roman,serif" font-size="32.00">■</text>
</g>
<!-- 1990979922032&#45;&gt;1990979323616 -->
<g id="edge48" class="edge">
<title>1990979922032&#45;&gt;1990979323616</title>
<path fill="none" stroke="black" d="M2070.87,-171C2078.38,-171 2086.76,-171 2094.97,-171"/>
<polygon fill="black" stroke="black" points="2094.83,-174.5 2104.83,-171 2094.83,-167.5 2094.83,-174.5"/>
</g>
<!-- 1990979323040 -->
<g id="node17" class="node">
<title>1990979323040</title>
<ellipse fill="white" stroke="black" cx="27" cy="-135" rx="27" ry="27"/>
<text text-anchor="start" x="9.75" y="-117.7" font-family="Times New Roman,serif" font-size="34.00">●</text>
</g>
<!-- 1990979323040&#45;&gt;1990979923232 -->
<g id="edge1" class="edge">
<title>1990979323040&#45;&gt;1990979923232</title>
<path fill="none" stroke="black" d="M54.39,-135C61.8,-135 70.13,-135 78.51,-135"/>
<polygon fill="black" stroke="black" points="78.36,-138.5 88.36,-135 78.36,-131.5 78.36,-138.5"/>
</g>
<!-- 1990979166592&#45;&gt;1990979167456 -->
<g id="edge4" class="edge">
<title>1990979166592&#45;&gt;1990979167456</title>
<path fill="none" stroke="black" d="M265.48,-171C273.86,-171 283.41,-171 292.87,-171"/>
<polygon fill="black" stroke="black" points="292.77,-174.5 302.77,-171 292.77,-167.5 292.77,-174.5"/>
</g>
<!-- 1990980027024&#45;&gt;1990980026496 -->
<g id="edge5" class="edge">
<title>1990980027024&#45;&gt;1990980026496</title>
<path fill="none" stroke="black" d="M265.48,-99C272.84,-99 281.1,-99 289.41,-99"/>
<polygon fill="black" stroke="black" points="289.19,-102.5 299.19,-99 289.19,-95.5 289.19,-102.5"/>
</g>
<!-- 1990981009280&#45;&gt;1990980117200 -->
<g id="edge13" class="edge">
<title>1990981009280&#45;&gt;1990980117200</title>
<path fill="none" stroke="black" d="M473.2,-156.78C488.26,-147.23 508.48,-134.42 526.06,-123.28"/>
<polygon fill="black" stroke="black" points="527.64,-126.42 534.22,-118.11 523.9,-120.51 527.64,-126.42"/>
</g>
<!-- 1990981075216&#45;&gt;1990980999728 -->
<g id="edge12" class="edge">
<title>1990981075216&#45;&gt;1990980999728</title>
<path fill="none" stroke="black" d="M476.82,-238.87C485.77,-237.45 496.17,-235.8 506.62,-234.15"/>
<polygon fill="black" stroke="black" points="507.09,-237.62 516.41,-232.6 505.99,-230.71 507.09,-237.62"/>
</g>
<!-- 1990981008944&#45;&gt;1990980999728 -->
<g id="edge10" class="edge">
<title>1990981008944&#45;&gt;1990980999728</title>
<path fill="none" stroke="black" d="M468.5,-118.69C487.85,-140.14 518.9,-174.58 540.4,-198.42"/>
<polygon fill="black" stroke="black" points="537.54,-200.47 546.84,-205.55 542.74,-195.78 537.54,-200.47"/>
</g>
<!-- 1990981008608&#45;&gt;1990980117200 -->
<g id="edge11" class="edge">
<title>1990981008608&#45;&gt;1990980117200</title>
<path fill="none" stroke="black" d="M473.2,-41.22C488.26,-50.77 508.48,-63.58 526.06,-74.72"/>
<polygon fill="black" stroke="black" points="523.9,-77.49 534.22,-79.89 527.64,-71.58 523.9,-77.49"/>
</g>
<!-- 1990981076224&#45;&gt;1990981001264 -->
<g id="edge21" class="edge">
<title>1990981076224&#45;&gt;1990981001264</title>
<path fill="none" stroke="black" d="M704.42,-264.6C719.2,-255.12 738.92,-242.45 756.11,-231.41"/>
<polygon fill="black" stroke="black" points="757.55,-234.65 764.07,-226.3 753.77,-228.76 757.55,-234.65"/>
</g>
<!-- 1990981075888&#45;&gt;1990981002080 -->
<g id="edge18" class="edge">
<title>1990981075888&#45;&gt;1990981002080</title>
<path fill="none" stroke="black" d="M704.42,-77.4C719.2,-86.88 738.92,-99.55 756.11,-110.59"/>
<polygon fill="black" stroke="black" points="753.77,-113.24 764.07,-115.7 757.55,-107.35 753.77,-113.24"/>
</g>
<!-- 1990981076560&#45;&gt;1990981002080 -->
<g id="edge19" class="edge">
<title>1990981076560&#45;&gt;1990981002080</title>
<path fill="none" stroke="black" d="M704.42,-192.6C719.2,-183.12 738.92,-170.45 756.11,-159.41"/>
<polygon fill="black" stroke="black" points="757.55,-162.65 764.07,-154.3 753.77,-156.76 757.55,-162.65"/>
</g>
<!-- 1990981075552&#45;&gt;1990981001264 -->
<g id="edge20" class="edge">
<title>1990981075552&#45;&gt;1990981001264</title>
<path fill="none" stroke="black" d="M704.42,-149.4C719.2,-158.88 738.92,-171.55 756.11,-182.59"/>
<polygon fill="black" stroke="black" points="753.77,-185.24 764.07,-187.7 757.55,-179.35 753.77,-185.24"/>
</g>
<!-- 1990981076896&#45;&gt;1990981002896 -->
<g id="edge25" class="edge">
<title>1990981076896&#45;&gt;1990981002896</title>
<path fill="none" stroke="black" d="M934.98,-198.01C943.04,-195.07 952.3,-191.71 961.47,-188.38"/>
<polygon fill="black" stroke="black" points="962.5,-191.72 970.7,-185.02 960.11,-185.15 962.5,-191.72"/>
</g>
<!-- 1990981077232&#45;&gt;1990981002896 -->
<g id="edge24" class="edge">
<title>1990981077232&#45;&gt;1990981002896</title>
<path fill="none" stroke="black" d="M934.98,-143.99C943.04,-146.93 952.3,-150.29 961.47,-153.62"/>
<polygon fill="black" stroke="black" points="960.11,-156.85 970.7,-156.98 962.5,-150.28 960.11,-156.85"/>
</g>
<!-- 1990981003856&#45;&gt;1990981004432 -->
<g id="edge27" class="edge">
<title>1990981003856&#45;&gt;1990981004432</title>
<path fill="none" stroke="black" d="M1138.62,-171C1145.97,-171 1154.19,-171 1162.4,-171"/>
<polygon fill="black" stroke="black" points="1162.39,-174.5 1172.39,-171 1162.39,-167.5 1162.39,-174.5"/>
</g>
<!-- 1990981004672&#45;&gt;1990981005248 -->
<g id="edge31" class="edge">
<title>1990981004672&#45;&gt;1990981005248</title>
<path fill="none" stroke="black" d="M1341.41,-135C1349.92,-135 1359.63,-135 1369.15,-135"/>
<polygon fill="black" stroke="black" points="1369.06,-138.5 1379.06,-135 1369.06,-131.5 1369.06,-138.5"/>
</g>
<!-- 1990981005488&#45;&gt;1990981006064 -->
<g id="edge30" class="edge">
<title>1990981005488&#45;&gt;1990981006064</title>
<path fill="none" stroke="black" d="M1341.41,-207C1348.84,-207 1357.19,-207 1365.52,-207"/>
<polygon fill="black" stroke="black" points="1365.28,-210.5 1375.28,-207 1365.28,-203.5 1365.28,-210.5"/>
</g>
<!-- 1990981078912&#45;&gt;1990980953552 -->
<g id="edge35" class="edge">
<title>1990981078912&#45;&gt;1990980953552</title>
<path fill="none" stroke="black" d="M1544.88,-198.47C1552.82,-195.75 1561.93,-192.63 1571.09,-189.48"/>
<polygon fill="black" stroke="black" points="1572.06,-192.85 1580.38,-186.3 1569.79,-186.23 1572.06,-192.85"/>
</g>
<!-- 1990981078576&#45;&gt;1990980953552 -->
<g id="edge34" class="edge">
<title>1990981078576&#45;&gt;1990980953552</title>
<path fill="none" stroke="black" d="M1544.88,-143.53C1552.82,-146.25 1561.93,-149.37 1571.09,-152.52"/>
<polygon fill="black" stroke="black" points="1569.79,-155.77 1580.38,-155.7 1572.06,-149.15 1569.79,-155.77"/>
</g>
<!-- 1990980957968&#45;&gt;1990981006640 -->
<g id="edge39" class="edge">
<title>1990980957968&#45;&gt;1990981006640</title>
<path fill="none" stroke="black" d="M1760.23,-243C1768.7,-243 1778.42,-243 1788.14,-243"/>
<polygon fill="black" stroke="black" points="1787.96,-246.5 1797.96,-243 1787.96,-239.5 1787.96,-246.5"/>
</g>
<!-- 1990980951536&#45;&gt;1990980950432 -->
<g id="edge40" class="edge">
<title>1990980951536&#45;&gt;1990980950432</title>
<path fill="none" stroke="black" d="M1760.23,-99C1769.81,-99 1780.99,-99 1791.97,-99"/>
<polygon fill="black" stroke="black" points="1791.74,-102.5 1801.74,-99 1791.74,-95.5 1791.74,-102.5"/>
</g>
<!-- 1990981007216&#45;&gt;1990981007792 -->
<g id="edge41" class="edge">
<title>1990981007216&#45;&gt;1990981007792</title>
<path fill="none" stroke="black" d="M1760.23,-171C1767.56,-171 1775.82,-171 1784.2,-171"/>
<polygon fill="black" stroke="black" points="1784.13,-174.5 1794.13,-171 1784.13,-167.5 1784.13,-174.5"/>
</g>
<!-- 1990980958208&#45;&gt;1990979922032 -->
<g id="edge47" class="edge">
<title>1990980958208&#45;&gt;1990979922032</title>
<path fill="none" stroke="black" d="M1975.16,-226.3C1985.92,-217.5 1999.36,-206.5 2011.41,-196.64"/>
<polygon fill="black" stroke="black" points="2013.59,-199.38 2019.12,-190.34 2009.16,-193.96 2013.59,-199.38"/>
</g>
<!-- 1990981006880&#45;&gt;1990979922032 -->
<g id="edge46" class="edge">
<title>1990981006880&#45;&gt;1990979922032</title>
<path fill="none" stroke="black" d="M1981.15,-171C1988.64,-171 1996.93,-171 2004.95,-171"/>
<polygon fill="black" stroke="black" points="2004.85,-174.5 2014.85,-171 2004.85,-167.5 2004.85,-174.5"/>
</g>
<!-- 1990980952304&#45;&gt;1990979922032 -->
<g id="edge45" class="edge">
<title>1990980952304&#45;&gt;1990979922032</title>
<path fill="none" stroke="black" d="M1975.16,-115.7C1985.92,-124.5 1999.36,-135.5 2011.41,-145.36"/>
<polygon fill="black" stroke="black" points="2009.16,-148.04 2019.12,-151.66 2013.59,-142.62 2009.16,-148.04"/>
</g>
</g>
</svg>
