<?xml version="1.0" encoding="UTF-8" standalone="no"?>
<!DOCTYPE svg PUBLIC "-//W3C//DTD SVG 1.1//EN"
 "http://www.w3.org/Graphics/SVG/1.1/DTD/svg11.dtd">
<!-- Generated by graphviz version 11.0.0 (20240428.1522)
 -->
<!-- Title: imdf_net_1754051333.155669 Pages: 1 -->
<svg width="3056pt" height="172pt"
 viewBox="0.00 0.00 3055.50 172.00" xmlns="http://www.w3.org/2000/svg" xmlns:xlink="http://www.w3.org/1999/xlink">
<g id="graph0" class="graph" transform="scale(1 1) rotate(0) translate(4 168)">
<title>imdf_net_1754051333.155669</title>
<polygon fill="white" stroke="none" points="-4,4 -4,-168 3051.5,-168 3051.5,4 -4,4"/>
<!-- 1990977921072 -->
<g id="node1" class="node">
<title>1990977921072</title>
<polygon fill="white" stroke="black" points="168.25,-119 90,-119 90,-83 168.25,-83 168.25,-119"/>
<text text-anchor="middle" x="129.12" y="-95.97" font-family="Times New Roman,serif" font-size="12.00">Site Analysis</text>
</g>
<!-- 1990977914400 -->
<g id="node19" class="node">
<title>1990977914400</title>
<ellipse fill="white" stroke="black" cx="231.25" cy="-101" rx="27" ry="27"/>
</g>
<!-- 1990977921072&#45;&gt;1990977914400 -->
<g id="edge2" class="edge">
<title>1990977921072&#45;&gt;1990977914400</title>
<path fill="none" stroke="black" d="M168.55,-101C176.39,-101 184.63,-101 192.44,-101"/>
<polygon fill="black" stroke="black" points="192.36,-104.5 202.36,-101 192.36,-97.5 192.36,-104.5"/>
</g>
<!-- 1990979847088 -->
<g id="node2" class="node">
<title>1990979847088</title>
<polygon fill="white" stroke="black" points="378.5,-119 294.25,-119 294.25,-83 378.5,-83 378.5,-119"/>
<text text-anchor="middle" x="336.38" y="-95.97" font-family="Times New Roman,serif" font-size="12.00">Zoning Check</text>
</g>
<!-- 1990979858224 -->
<g id="node20" class="node">
<title>1990979858224</title>
<ellipse fill="white" stroke="black" cx="441.5" cy="-101" rx="27" ry="27"/>
</g>
<!-- 1990979847088&#45;&gt;1990979858224 -->
<g id="edge4" class="edge">
<title>1990979847088&#45;&gt;1990979858224</title>
<path fill="none" stroke="black" d="M378.73,-101C386.69,-101 394.99,-101 402.83,-101"/>
<polygon fill="black" stroke="black" points="402.75,-104.5 412.75,-101 402.75,-97.5 402.75,-104.5"/>
</g>
<!-- 1990979846992 -->
<g id="node3" class="node">
<title>1990979846992</title>
<polygon fill="white" stroke="black" points="578.25,-119 504.5,-119 504.5,-83 578.25,-83 578.25,-119"/>
<text text-anchor="middle" x="541.38" y="-95.97" font-family="Times New Roman,serif" font-size="12.00">Unit Design</text>
</g>
<!-- 1990979847952 -->
<g id="node21" class="node">
<title>1990979847952</title>
<ellipse fill="white" stroke="black" cx="641.25" cy="-101" rx="27" ry="27"/>
</g>
<!-- 1990979846992&#45;&gt;1990979847952 -->
<g id="edge6" class="edge">
<title>1990979846992&#45;&gt;1990979847952</title>
<path fill="none" stroke="black" d="M578.54,-101C586.44,-101 594.83,-101 602.78,-101"/>
<polygon fill="black" stroke="black" points="602.5,-104.5 612.5,-101 602.5,-97.5 602.5,-104.5"/>
</g>
<!-- 1990979847424 -->
<g id="node4" class="node">
<title>1990979847424</title>
<polygon fill="white" stroke="black" points="784,-119 704.25,-119 704.25,-83 784,-83 784,-119"/>
<text text-anchor="middle" x="744.12" y="-95.97" font-family="Times New Roman,serif" font-size="12.00">Nutrient Prep</text>
</g>
<!-- 1990979848672 -->
<g id="node22" class="node">
<title>1990979848672</title>
<ellipse fill="white" stroke="black" cx="847" cy="-101" rx="27" ry="27"/>
</g>
<!-- 1990979847424&#45;&gt;1990979848672 -->
<g id="edge8" class="edge">
<title>1990979847424&#45;&gt;1990979848672</title>
<path fill="none" stroke="black" d="M784.41,-101C792.28,-101 800.52,-101 808.32,-101"/>
<polygon fill="black" stroke="black" points="808.22,-104.5 818.22,-101 808.22,-97.5 808.22,-104.5"/>
</g>
<!-- 1990979851984 -->
<g id="node5" class="node">
<title>1990979851984</title>
<polygon fill="white" stroke="black" points="992.75,-119 910,-119 910,-83 992.75,-83 992.75,-119"/>
<text text-anchor="middle" x="951.38" y="-95.97" font-family="Times New Roman,serif" font-size="12.00">Climate Setup</text>
</g>
<!-- 1990979856304 -->
<g id="node23" class="node">
<title>1990979856304</title>
<ellipse fill="white" stroke="black" cx="1055.75" cy="-101" rx="27" ry="27"/>
</g>
<!-- 1990979851984&#45;&gt;1990979856304 -->
<g id="edge10" class="edge">
<title>1990979851984&#45;&gt;1990979856304</title>
<path fill="none" stroke="black" d="M993.13,-101C1000.98,-101 1009.17,-101 1016.92,-101"/>
<polygon fill="black" stroke="black" points="1016.74,-104.5 1026.74,-101 1016.74,-97.5 1016.74,-104.5"/>
</g>
<!-- 1990979850208 -->
<g id="node6" class="node">
<title>1990979850208</title>
<polygon fill="white" stroke="black" points="1204.5,-119 1118.75,-119 1118.75,-83 1204.5,-83 1204.5,-119"/>
<text text-anchor="middle" x="1161.62" y="-95.97" font-family="Times New Roman,serif" font-size="12.00">Seed Selection</text>
</g>
<!-- 1990979851840 -->
<g id="node24" class="node">
<title>1990979851840</title>
<ellipse fill="white" stroke="black" cx="1267.5" cy="-101" rx="27" ry="27"/>
</g>
<!-- 1990979850208&#45;&gt;1990979851840 -->
<g id="edge12" class="edge">
<title>1990979850208&#45;&gt;1990979851840</title>
<path fill="none" stroke="black" d="M1204.87,-101C1212.78,-101 1221,-101 1228.76,-101"/>
<polygon fill="black" stroke="black" points="1228.57,-104.5 1238.57,-101 1228.57,-97.5 1228.57,-104.5"/>
</g>
<!-- 1990979850544 -->
<g id="node7" class="node">
<title>1990979850544</title>
<polygon fill="white" stroke="black" points="1409.5,-119 1330.5,-119 1330.5,-83 1409.5,-83 1409.5,-119"/>
<text text-anchor="middle" x="1370" y="-95.97" font-family="Times New Roman,serif" font-size="12.00">Planting Plan</text>
</g>
<!-- 1990979855920 -->
<g id="node25" class="node">
<title>1990979855920</title>
<ellipse fill="white" stroke="black" cx="1472.5" cy="-137" rx="27" ry="27"/>
</g>
<!-- 1990979850544&#45;&gt;1990979855920 -->
<g id="edge14" class="edge">
<title>1990979850544&#45;&gt;1990979855920</title>
<path fill="none" stroke="black" d="M1409.86,-114.92C1418.46,-118 1427.53,-121.25 1435.99,-124.28"/>
<polygon fill="black" stroke="black" points="1434.65,-127.52 1445.25,-127.6 1437.01,-120.93 1434.65,-127.52"/>
</g>
<!-- 1990978753344 -->
<g id="node26" class="node">
<title>1990978753344</title>
<ellipse fill="white" stroke="black" cx="1472.5" cy="-65" rx="27" ry="27"/>
</g>
<!-- 1990979850544&#45;&gt;1990978753344 -->
<g id="edge15" class="edge">
<title>1990979850544&#45;&gt;1990978753344</title>
<path fill="none" stroke="black" d="M1409.86,-87.08C1418.46,-84 1427.53,-80.75 1435.99,-77.72"/>
<polygon fill="black" stroke="black" points="1437.01,-81.07 1445.25,-74.4 1434.65,-74.48 1437.01,-81.07"/>
</g>
<!-- 1990978844048 -->
<g id="node8" class="node">
<title>1990978844048</title>
<polygon fill="white" stroke="black" points="1622,-46 1535.5,-46 1535.5,-10 1622,-10 1622,-46"/>
<text text-anchor="middle" x="1578.75" y="-22.98" font-family="Times New Roman,serif" font-size="12.00">Waste Recycle</text>
</g>
<!-- 1990978749552 -->
<g id="node28" class="node">
<title>1990978749552</title>
<ellipse fill="white" stroke="black" cx="1685" cy="-27" rx="27" ry="27"/>
</g>
<!-- 1990978844048&#45;&gt;1990978749552 -->
<g id="edge18" class="edge">
<title>1990978844048&#45;&gt;1990978749552</title>
<path fill="none" stroke="black" d="M1622.45,-27.59C1630.37,-27.51 1638.59,-27.44 1646.34,-27.36"/>
<polygon fill="black" stroke="black" points="1646.17,-30.86 1656.14,-27.27 1646.1,-23.86 1646.17,-30.86"/>
</g>
<!-- 1990977506912 -->
<g id="node9" class="node">
<title>1990977506912</title>
<polygon fill="white" stroke="black" points="1618.62,-155 1538.88,-155 1538.88,-119 1618.62,-119 1618.62,-155"/>
<text text-anchor="middle" x="1578.75" y="-131.97" font-family="Times New Roman,serif" font-size="12.00">Sensor Install</text>
</g>
<!-- 1990977510896 -->
<g id="node27" class="node">
<title>1990977510896</title>
<ellipse fill="white" stroke="black" cx="1685" cy="-137" rx="27" ry="27"/>
</g>
<!-- 1990977506912&#45;&gt;1990977510896 -->
<g id="edge19" class="edge">
<title>1990977506912&#45;&gt;1990977510896</title>
<path fill="none" stroke="black" d="M1618.87,-137C1627.86,-137 1637.42,-137 1646.35,-137"/>
<polygon fill="black" stroke="black" points="1646.13,-140.5 1656.13,-137 1646.13,-133.5 1646.13,-140.5"/>
</g>
<!-- 1990978832576 -->
<g id="node10" class="node">
<title>1990978832576</title>
<polygon fill="white" stroke="black" points="1850.25,-95 1748,-95 1748,-59 1850.25,-59 1850.25,-95"/>
<text text-anchor="middle" x="1799.12" y="-71.97" font-family="Times New Roman,serif" font-size="12.00">Biofertilizer Make</text>
</g>
<!-- 1990978832576&#45;&gt;1990978753344 -->
<g id="edge23" class="edge">
<title>1990978832576&#45;&gt;1990978753344</title>
<path fill="none" stroke="black" d="M1747.76,-75.14C1682.32,-72.72 1569.52,-68.55 1511.06,-66.39"/>
<polygon fill="black" stroke="black" points="1511.43,-62.9 1501.3,-66.03 1511.17,-69.89 1511.43,-62.9"/>
</g>
<!-- 1990979542368 -->
<g id="node11" class="node">
<title>1990979542368</title>
<polygon fill="white" stroke="black" points="2084.5,-81 1976.25,-81 1976.25,-45 2084.5,-45 2084.5,-81"/>
<text text-anchor="middle" x="2030.38" y="-57.98" font-family="Times New Roman,serif" font-size="12.00">Automated Harvest</text>
</g>
<!-- 1990979536176 -->
<g id="node30" class="node">
<title>1990979536176</title>
<ellipse fill="white" stroke="black" cx="2147.5" cy="-63" rx="27" ry="27"/>
</g>
<!-- 1990979542368&#45;&gt;1990979536176 -->
<g id="edge25" class="edge">
<title>1990979542368&#45;&gt;1990979536176</title>
<path fill="none" stroke="black" d="M2084.89,-63C2092.91,-63 2101.03,-63 2108.63,-63"/>
<polygon fill="black" stroke="black" points="2108.54,-66.5 2118.54,-63 2108.54,-59.5 2108.54,-66.5"/>
</g>
<!-- 1990978754928 -->
<g id="node12" class="node">
<title>1990978754928</title>
<polygon fill="white" stroke="black" points="1846.12,-152 1752.12,-152 1752.12,-116 1846.12,-116 1846.12,-152"/>
<text text-anchor="middle" x="1799.12" y="-128.97" font-family="Times New Roman,serif" font-size="12.00">Growth Monitor</text>
</g>
<!-- 1990980436096 -->
<g id="node29" class="node">
<title>1990980436096</title>
<ellipse fill="white" stroke="black" cx="1913.25" cy="-108" rx="27" ry="27"/>
</g>
<!-- 1990978754928&#45;&gt;1990980436096 -->
<g id="edge24" class="edge">
<title>1990978754928&#45;&gt;1990980436096</title>
<path fill="none" stroke="black" d="M1846.38,-123.27C1856.16,-121.01 1866.35,-118.64 1875.71,-116.47"/>
<polygon fill="black" stroke="black" points="1876.2,-119.95 1885.15,-114.28 1874.62,-113.13 1876.2,-119.95"/>
</g>
<!-- 1990979542272 -->
<g id="node13" class="node">
<title>1990979542272</title>
<polygon fill="white" stroke="black" points="2294,-81 2210.5,-81 2210.5,-45 2294,-45 2294,-81"/>
<text text-anchor="middle" x="2252.25" y="-57.98" font-family="Times New Roman,serif" font-size="12.00">Quality Grade</text>
</g>
<!-- 1990980365072 -->
<g id="node31" class="node">
<title>1990980365072</title>
<ellipse fill="white" stroke="black" cx="2357" cy="-63" rx="27" ry="27"/>
</g>
<!-- 1990979542272&#45;&gt;1990980365072 -->
<g id="edge28" class="edge">
<title>1990979542272&#45;&gt;1990980365072</title>
<path fill="none" stroke="black" d="M2294.45,-63C2302.31,-63 2310.5,-63 2318.25,-63"/>
<polygon fill="black" stroke="black" points="2318.05,-66.5 2328.05,-63 2318.05,-59.5 2318.05,-66.5"/>
</g>
<!-- 1990979049600 -->
<g id="node14" class="node">
<title>1990979049600</title>
<polygon fill="white" stroke="black" points="2510.25,-81 2420,-81 2420,-45 2510.25,-45 2510.25,-81"/>
<text text-anchor="middle" x="2465.12" y="-57.98" font-family="Times New Roman,serif" font-size="12.00">Packaging Prep</text>
</g>
<!-- 1990979049216 -->
<g id="node32" class="node">
<title>1990979049216</title>
<ellipse fill="white" stroke="black" cx="2573.25" cy="-63" rx="27" ry="27"/>
</g>
<!-- 1990979049600&#45;&gt;1990979049216 -->
<g id="edge30" class="edge">
<title>1990979049600&#45;&gt;1990979049216</title>
<path fill="none" stroke="black" d="M2510.52,-63C2518.51,-63 2526.78,-63 2534.56,-63"/>
<polygon fill="black" stroke="black" points="2534.39,-66.5 2544.39,-63 2534.39,-59.5 2534.39,-66.5"/>
</g>
<!-- 1990980252928 -->
<g id="node15" class="node">
<title>1990980252928</title>
<polygon fill="white" stroke="black" points="2735.5,-54 2636.25,-54 2636.25,-18 2735.5,-18 2735.5,-54"/>
<text text-anchor="middle" x="2685.88" y="-30.98" font-family="Times New Roman,serif" font-size="12.00">Stakeholder Meet</text>
</g>
<!-- 1990977510368 -->
<g id="node33" class="node">
<title>1990977510368</title>
<ellipse fill="white" stroke="black" cx="2798.5" cy="-35" rx="27" ry="27"/>
</g>
<!-- 1990980252928&#45;&gt;1990977510368 -->
<g id="edge32" class="edge">
<title>1990980252928&#45;&gt;1990977510368</title>
<path fill="none" stroke="black" d="M2735.72,-35.56C2743.79,-35.49 2752.05,-35.41 2759.79,-35.34"/>
<polygon fill="black" stroke="black" points="2759.58,-38.84 2769.55,-35.25 2759.51,-31.84 2759.58,-38.84"/>
</g>
<!-- 1990980240208 -->
<g id="node16" class="node">
<title>1990980240208</title>
<polygon fill="white" stroke="black" points="2949.5,-53 2861.5,-53 2861.5,-17 2949.5,-17 2949.5,-53"/>
<text text-anchor="middle" x="2905.5" y="-29.98" font-family="Times New Roman,serif" font-size="12.00">Local Dispatch</text>
</g>
<!-- 1990979579072 -->
<g id="node34" class="node">
<title>1990979579072</title>
<ellipse fill="white" stroke="black" cx="3016.5" cy="-35" rx="27" ry="27"/>
<ellipse fill="none" stroke="black" cx="3016.5" cy="-35" rx="31" ry="31"/>
<text text-anchor="start" x="3000" y="-19.6" font-family="Times New Roman,serif" font-size="32.00">■</text>
</g>
<!-- 1990980240208&#45;&gt;1990979579072 -->
<g id="edge36" class="edge">
<title>1990980240208&#45;&gt;1990979579072</title>
<path fill="none" stroke="black" d="M2949.89,-35C2957.7,-35 2965.82,-35 2973.59,-35"/>
<polygon fill="black" stroke="black" points="2973.49,-38.5 2983.49,-35 2973.49,-31.5 2973.49,-38.5"/>
</g>
<!-- 1990980253168 -->
<g id="node17" class="node">
<title>1990980253168</title>
<polygon fill="white" stroke="black" points="2945.75,-107 2865.25,-107 2865.25,-71 2945.75,-71 2945.75,-107"/>
<text text-anchor="middle" x="2905.5" y="-83.97" font-family="Times New Roman,serif" font-size="12.00">System Audit</text>
</g>
<!-- 1990980253168&#45;&gt;1990979049216 -->
<g id="edge35" class="edge">
<title>1990980253168&#45;&gt;1990979049216</title>
<path fill="none" stroke="black" d="M2864.77,-85.87C2800.5,-80.81 2674.59,-70.9 2611.77,-65.95"/>
<polygon fill="black" stroke="black" points="2612.19,-62.48 2601.95,-65.18 2611.64,-69.45 2612.19,-62.48"/>
</g>
<!-- 1990979579120 -->
<g id="node18" class="node">
<title>1990979579120</title>
<ellipse fill="white" stroke="black" cx="27" cy="-101" rx="27" ry="27"/>
<text text-anchor="start" x="9.75" y="-83.7" font-family="Times New Roman,serif" font-size="34.00">●</text>
</g>
<!-- 1990979579120&#45;&gt;1990977921072 -->
<g id="edge1" class="edge">
<title>1990979579120&#45;&gt;1990977921072</title>
<path fill="none" stroke="black" d="M54.31,-101C61.63,-101 69.84,-101 78.05,-101"/>
<polygon fill="black" stroke="black" points="78.05,-104.5 88.05,-101 78.05,-97.5 78.05,-104.5"/>
</g>
<!-- 1990977914400&#45;&gt;1990979847088 -->
<g id="edge3" class="edge">
<title>1990977914400&#45;&gt;1990979847088</title>
<path fill="none" stroke="black" d="M258.54,-101C265.92,-101 274.23,-101 282.57,-101"/>
<polygon fill="black" stroke="black" points="282.39,-104.5 292.39,-101 282.39,-97.5 282.39,-104.5"/>
</g>
<!-- 1990979858224&#45;&gt;1990979846992 -->
<g id="edge5" class="edge">
<title>1990979858224&#45;&gt;1990979846992</title>
<path fill="none" stroke="black" d="M468.99,-101C476.37,-101 484.63,-101 492.84,-101"/>
<polygon fill="black" stroke="black" points="492.8,-104.5 502.8,-101 492.8,-97.5 492.8,-104.5"/>
</g>
<!-- 1990979847952&#45;&gt;1990979847424 -->
<g id="edge7" class="edge">
<title>1990979847952&#45;&gt;1990979847424</title>
<path fill="none" stroke="black" d="M668.49,-101C675.96,-101 684.35,-101 692.74,-101"/>
<polygon fill="black" stroke="black" points="692.58,-104.5 702.58,-101 692.58,-97.5 692.58,-104.5"/>
</g>
<!-- 1990979848672&#45;&gt;1990979851984 -->
<g id="edge9" class="edge">
<title>1990979848672&#45;&gt;1990979851984</title>
<path fill="none" stroke="black" d="M874.36,-101C881.78,-101 890.11,-101 898.46,-101"/>
<polygon fill="black" stroke="black" points="898.27,-104.5 908.27,-101 898.27,-97.5 898.27,-104.5"/>
</g>
<!-- 1990979856304&#45;&gt;1990979850208 -->
<g id="edge11" class="edge">
<title>1990979856304&#45;&gt;1990979850208</title>
<path fill="none" stroke="black" d="M1083.23,-101C1090.59,-101 1098.85,-101 1107.16,-101"/>
<polygon fill="black" stroke="black" points="1106.94,-104.5 1116.94,-101 1106.94,-97.5 1106.94,-104.5"/>
</g>
<!-- 1990979851840&#45;&gt;1990979850544 -->
<g id="edge13" class="edge">
<title>1990979851840&#45;&gt;1990979850544</title>
<path fill="none" stroke="black" d="M1294.91,-101C1302.34,-101 1310.69,-101 1319.02,-101"/>
<polygon fill="black" stroke="black" points="1318.78,-104.5 1328.78,-101 1318.78,-97.5 1318.78,-104.5"/>
</g>
<!-- 1990979855920&#45;&gt;1990977506912 -->
<g id="edge17" class="edge">
<title>1990979855920&#45;&gt;1990977506912</title>
<path fill="none" stroke="black" d="M1499.81,-137C1508.13,-137 1517.62,-137 1527.05,-137"/>
<polygon fill="black" stroke="black" points="1526.93,-140.5 1536.93,-137 1526.93,-133.5 1526.93,-140.5"/>
</g>
<!-- 1990978753344&#45;&gt;1990978844048 -->
<g id="edge16" class="edge">
<title>1990978753344&#45;&gt;1990978844048</title>
<path fill="none" stroke="black" d="M1498.47,-56.14C1506.35,-53.34 1515.38,-50.14 1524.45,-46.92"/>
<polygon fill="black" stroke="black" points="1525.38,-50.3 1533.64,-43.66 1523.04,-43.7 1525.38,-50.3"/>
</g>
<!-- 1990977510896&#45;&gt;1990978754928 -->
<g id="edge22" class="edge">
<title>1990977510896&#45;&gt;1990978754928</title>
<path fill="none" stroke="black" d="M1712.29,-136.3C1720.76,-136.07 1730.5,-135.81 1740.31,-135.55"/>
<polygon fill="black" stroke="black" points="1740.38,-139.05 1750.28,-135.28 1740.19,-132.05 1740.38,-139.05"/>
</g>
<!-- 1990978749552&#45;&gt;1990978832576 -->
<g id="edge20" class="edge">
<title>1990978749552&#45;&gt;1990978832576</title>
<path fill="none" stroke="black" d="M1710.05,-37.73C1720.82,-42.53 1733.95,-48.38 1746.75,-54.09"/>
<polygon fill="black" stroke="black" points="1744.96,-57.12 1755.52,-58 1747.81,-50.73 1744.96,-57.12"/>
</g>
<!-- 1990978749552&#45;&gt;1990979542368 -->
<g id="edge21" class="edge">
<title>1990978749552&#45;&gt;1990979542368</title>
<path fill="none" stroke="black" d="M1712.09,-29.74C1765.46,-35.33 1888.48,-48.23 1964.7,-56.22"/>
<polygon fill="black" stroke="black" points="1964.23,-59.69 1974.54,-57.25 1964.96,-52.73 1964.23,-59.69"/>
</g>
<!-- 1990980436096&#45;&gt;1990979542368 -->
<g id="edge26" class="edge">
<title>1990980436096&#45;&gt;1990979542368</title>
<path fill="none" stroke="black" d="M1938.95,-98.35C1948.66,-94.55 1960.25,-90.02 1971.84,-85.49"/>
<polygon fill="black" stroke="black" points="1972.98,-88.8 1981.02,-81.9 1970.43,-82.28 1972.98,-88.8"/>
</g>
<!-- 1990979536176&#45;&gt;1990979542272 -->
<g id="edge27" class="edge">
<title>1990979536176&#45;&gt;1990979542272</title>
<path fill="none" stroke="black" d="M2174.96,-63C2182.32,-63 2190.58,-63 2198.87,-63"/>
<polygon fill="black" stroke="black" points="2198.61,-66.5 2208.61,-63 2198.61,-59.5 2198.61,-66.5"/>
</g>
<!-- 1990980365072&#45;&gt;1990979049600 -->
<g id="edge29" class="edge">
<title>1990980365072&#45;&gt;1990979049600</title>
<path fill="none" stroke="black" d="M2384.23,-63C2391.58,-63 2399.85,-63 2408.22,-63"/>
<polygon fill="black" stroke="black" points="2408.09,-66.5 2418.09,-63 2408.09,-59.5 2408.09,-66.5"/>
</g>
<!-- 1990979049216&#45;&gt;1990980252928 -->
<g id="edge31" class="edge">
<title>1990979049216&#45;&gt;1990980252928</title>
<path fill="none" stroke="black" d="M2599.91,-56.74C2607.45,-54.9 2616.03,-52.8 2624.77,-50.67"/>
<polygon fill="black" stroke="black" points="2625.51,-54.09 2634.4,-48.32 2623.86,-47.29 2625.51,-54.09"/>
</g>
<!-- 1990977510368&#45;&gt;1990980240208 -->
<g id="edge33" class="edge">
<title>1990977510368&#45;&gt;1990980240208</title>
<path fill="none" stroke="black" d="M2826,-35C2833.35,-35 2841.61,-35 2849.94,-35"/>
<polygon fill="black" stroke="black" points="2849.75,-38.5 2859.75,-35 2849.75,-31.5 2849.75,-38.5"/>
</g>
<!-- 1990977510368&#45;&gt;1990980253168 -->
<g id="edge34" class="edge">
<title>1990977510368&#45;&gt;1990980253168</title>
<path fill="none" stroke="black" d="M2823.06,-47.12C2833.55,-52.51 2846.28,-59.06 2858.52,-65.35"/>
<polygon fill="black" stroke="black" points="2856.8,-68.4 2867.29,-69.86 2860,-62.18 2856.8,-68.4"/>
</g>
</g>
</svg>
