<?xml version="1.0" encoding="UTF-8" standalone="no"?>
<!DOCTYPE svg PUBLIC "-//W3C//DTD SVG 1.1//EN"
 "http://www.w3.org/Graphics/SVG/1.1/DTD/svg11.dtd">
<!-- Generated by graphviz version 11.0.0 (20240428.1522)
 -->
<!-- Title: imdf_net_1754051340.3490653 Pages: 1 -->
<svg width="2772pt" height="134pt"
 viewBox="0.00 0.00 2771.75 134.00" xmlns="http://www.w3.org/2000/svg" xmlns:xlink="http://www.w3.org/1999/xlink">
<g id="graph0" class="graph" transform="scale(1 1) rotate(0) translate(4 130)">
<title>imdf_net_1754051340.3490653</title>
<polygon fill="white" stroke="none" points="-4,4 -4,-130 2767.75,-130 2767.75,4 -4,4"/>
<!-- 1990979848432 -->
<g id="node1" class="node">
<title>1990979848432</title>
<polygon fill="white" stroke="black" points="160.75,-81 90,-81 90,-45 160.75,-45 160.75,-81"/>
<text text-anchor="middle" x="125.38" y="-57.98" font-family="Times New Roman,serif" font-size="12.00">Site Survey</text>
</g>
<!-- 1990979856112 -->
<g id="node17" class="node">
<title>1990979856112</title>
<ellipse fill="white" stroke="black" cx="223.75" cy="-63" rx="27" ry="27"/>
</g>
<!-- 1990979848432&#45;&gt;1990979856112 -->
<g id="edge2" class="edge">
<title>1990979848432&#45;&gt;1990979856112</title>
<path fill="none" stroke="black" d="M161.17,-63C168.9,-63 177.14,-63 184.98,-63"/>
<polygon fill="black" stroke="black" points="184.97,-66.5 194.97,-63 184.97,-59.5 184.97,-66.5"/>
</g>
<!-- 1990979856640 -->
<g id="node2" class="node">
<title>1990979856640</title>
<polygon fill="white" stroke="black" points="350.75,-81 286.75,-81 286.75,-45 350.75,-45 350.75,-81"/>
<text text-anchor="middle" x="318.75" y="-57.98" font-family="Times New Roman,serif" font-size="12.00">Load Test</text>
</g>
<!-- 1990979858416 -->
<g id="node18" class="node">
<title>1990979858416</title>
<ellipse fill="white" stroke="black" cx="413.75" cy="-63" rx="27" ry="27"/>
</g>
<!-- 1990979856640&#45;&gt;1990979858416 -->
<g id="edge4" class="edge">
<title>1990979856640&#45;&gt;1990979858416</title>
<path fill="none" stroke="black" d="M351.24,-63C358.79,-63 366.95,-63 374.76,-63"/>
<polygon fill="black" stroke="black" points="374.74,-66.5 384.74,-63 374.74,-59.5 374.74,-66.5"/>
</g>
<!-- 1990979852896 -->
<g id="node3" class="node">
<title>1990979852896</title>
<polygon fill="white" stroke="black" points="556.5,-81 476.75,-81 476.75,-45 556.5,-45 556.5,-81"/>
<text text-anchor="middle" x="516.62" y="-57.98" font-family="Times New Roman,serif" font-size="12.00">Permit Apply</text>
</g>
<!-- 1990979856208 -->
<g id="node19" class="node">
<title>1990979856208</title>
<ellipse fill="white" stroke="black" cx="619.5" cy="-63" rx="27" ry="27"/>
</g>
<!-- 1990979852896&#45;&gt;1990979856208 -->
<g id="edge6" class="edge">
<title>1990979852896&#45;&gt;1990979856208</title>
<path fill="none" stroke="black" d="M556.91,-63C564.78,-63 573.02,-63 580.82,-63"/>
<polygon fill="black" stroke="black" points="580.72,-66.5 590.72,-63 580.72,-59.5 580.72,-66.5"/>
</g>
<!-- 1990979852272 -->
<g id="node4" class="node">
<title>1990979852272</title>
<polygon fill="white" stroke="black" points="754,-81 682.5,-81 682.5,-45 754,-45 754,-81"/>
<text text-anchor="middle" x="718.25" y="-57.98" font-family="Times New Roman,serif" font-size="12.00">Crop Select</text>
</g>
<!-- 1990979847472 -->
<g id="node20" class="node">
<title>1990979847472</title>
<ellipse fill="white" stroke="black" cx="817" cy="-63" rx="27" ry="27"/>
</g>
<!-- 1990979852272&#45;&gt;1990979847472 -->
<g id="edge8" class="edge">
<title>1990979852272&#45;&gt;1990979847472</title>
<path fill="none" stroke="black" d="M754.45,-63C762.2,-63 770.44,-63 778.29,-63"/>
<polygon fill="black" stroke="black" points="778.26,-66.5 788.26,-63 778.26,-59.5 778.26,-66.5"/>
</g>
<!-- 1990979847856 -->
<g id="node5" class="node">
<title>1990979847856</title>
<polygon fill="white" stroke="black" points="967.25,-81 880,-81 880,-45 967.25,-45 967.25,-81"/>
<text text-anchor="middle" x="923.62" y="-57.98" font-family="Times New Roman,serif" font-size="12.00">System Design</text>
</g>
<!-- 1990979847280 -->
<g id="node21" class="node">
<title>1990979847280</title>
<ellipse fill="white" stroke="black" cx="1030.25" cy="-63" rx="27" ry="27"/>
</g>
<!-- 1990979847856&#45;&gt;1990979847280 -->
<g id="edge10" class="edge">
<title>1990979847856&#45;&gt;1990979847280</title>
<path fill="none" stroke="black" d="M967.48,-63C975.43,-63 983.67,-63 991.45,-63"/>
<polygon fill="black" stroke="black" points="991.29,-66.5 1001.29,-63 991.29,-59.5 991.29,-66.5"/>
</g>
<!-- 1990979781840 -->
<g id="node6" class="node">
<title>1990979781840</title>
<polygon fill="white" stroke="black" points="1171.5,-81 1093.25,-81 1093.25,-45 1171.5,-45 1171.5,-81"/>
<text text-anchor="middle" x="1132.38" y="-57.98" font-family="Times New Roman,serif" font-size="12.00">Sensor Setup</text>
</g>
<!-- 1990976297904 -->
<g id="node22" class="node">
<title>1990976297904</title>
<ellipse fill="white" stroke="black" cx="1234.5" cy="-63" rx="27" ry="27"/>
</g>
<!-- 1990979781840&#45;&gt;1990976297904 -->
<g id="edge12" class="edge">
<title>1990979781840&#45;&gt;1990976297904</title>
<path fill="none" stroke="black" d="M1171.8,-63C1179.64,-63 1187.88,-63 1195.69,-63"/>
<polygon fill="black" stroke="black" points="1195.61,-66.5 1205.61,-63 1195.61,-59.5 1195.61,-66.5"/>
</g>
<!-- 1990976296176 -->
<g id="node7" class="node">
<title>1990976296176</title>
<polygon fill="white" stroke="black" points="1383.25,-81 1297.5,-81 1297.5,-45 1383.25,-45 1383.25,-81"/>
<text text-anchor="middle" x="1340.38" y="-57.98" font-family="Times New Roman,serif" font-size="12.00">Water Recycle</text>
</g>
<!-- 1990976295456 -->
<g id="node23" class="node">
<title>1990976295456</title>
<ellipse fill="white" stroke="black" cx="1446.25" cy="-63" rx="27" ry="27"/>
</g>
<!-- 1990976296176&#45;&gt;1990976295456 -->
<g id="edge14" class="edge">
<title>1990976296176&#45;&gt;1990976295456</title>
<path fill="none" stroke="black" d="M1383.62,-63C1391.53,-63 1399.75,-63 1407.51,-63"/>
<polygon fill="black" stroke="black" points="1407.32,-66.5 1417.32,-63 1407.32,-59.5 1407.32,-66.5"/>
</g>
<!-- 1990980239536 -->
<g id="node8" class="node">
<title>1990980239536</title>
<polygon fill="white" stroke="black" points="1576.25,-81 1509.25,-81 1509.25,-45 1576.25,-45 1576.25,-81"/>
<text text-anchor="middle" x="1542.75" y="-57.98" font-family="Times New Roman,serif" font-size="12.00">Staff Train</text>
</g>
<!-- 1990980438736 -->
<g id="node24" class="node">
<title>1990980438736</title>
<ellipse fill="white" stroke="black" cx="1639.25" cy="-99" rx="27" ry="27"/>
</g>
<!-- 1990980239536&#45;&gt;1990980438736 -->
<g id="edge16" class="edge">
<title>1990980239536&#45;&gt;1990980438736</title>
<path fill="none" stroke="black" d="M1576.54,-75.49C1585.08,-78.75 1594.33,-82.27 1602.99,-85.57"/>
<polygon fill="black" stroke="black" points="1601.56,-88.77 1612.16,-89.06 1604.06,-82.23 1601.56,-88.77"/>
</g>
<!-- 1990980441952 -->
<g id="node25" class="node">
<title>1990980441952</title>
<ellipse fill="white" stroke="black" cx="1639.25" cy="-27" rx="27" ry="27"/>
</g>
<!-- 1990980239536&#45;&gt;1990980441952 -->
<g id="edge17" class="edge">
<title>1990980239536&#45;&gt;1990980441952</title>
<path fill="none" stroke="black" d="M1576.54,-50.51C1585.08,-47.25 1594.33,-43.73 1602.99,-40.43"/>
<polygon fill="black" stroke="black" points="1604.06,-43.77 1612.16,-36.94 1601.56,-37.23 1604.06,-43.77"/>
</g>
<!-- 1990980452224 -->
<g id="node9" class="node">
<title>1990980452224</title>
<polygon fill="white" stroke="black" points="1783.5,-45 1702.25,-45 1702.25,-9 1783.5,-9 1783.5,-45"/>
<text text-anchor="middle" x="1742.88" y="-21.98" font-family="Times New Roman,serif" font-size="12.00">Supplier Link</text>
</g>
<!-- 1990981413936 -->
<g id="node27" class="node">
<title>1990981413936</title>
<ellipse fill="white" stroke="black" cx="1846.5" cy="-27" rx="27" ry="27"/>
</g>
<!-- 1990980452224&#45;&gt;1990981413936 -->
<g id="edge20" class="edge">
<title>1990980452224&#45;&gt;1990981413936</title>
<path fill="none" stroke="black" d="M1783.75,-27C1791.65,-27 1799.92,-27 1807.75,-27"/>
<polygon fill="black" stroke="black" points="1807.67,-30.5 1817.67,-27 1807.67,-23.5 1807.67,-30.5"/>
</g>
<!-- 1990980442960 -->
<g id="node10" class="node">
<title>1990980442960</title>
<polygon fill="white" stroke="black" points="1780.12,-117 1705.62,-117 1705.62,-81 1780.12,-81 1780.12,-117"/>
<text text-anchor="middle" x="1742.88" y="-93.97" font-family="Times New Roman,serif" font-size="12.00">Pest Control</text>
</g>
<!-- 1990981414416 -->
<g id="node26" class="node">
<title>1990981414416</title>
<ellipse fill="white" stroke="black" cx="1846.5" cy="-99" rx="27" ry="27"/>
</g>
<!-- 1990980442960&#45;&gt;1990981414416 -->
<g id="edge21" class="edge">
<title>1990980442960&#45;&gt;1990981414416</title>
<path fill="none" stroke="black" d="M1780.56,-99C1789.42,-99 1798.9,-99 1807.8,-99"/>
<polygon fill="black" stroke="black" points="1807.55,-102.5 1817.55,-99 1807.55,-95.5 1807.55,-102.5"/>
</g>
<!-- 1990980449728 -->
<g id="node11" class="node">
<title>1990980449728</title>
<polygon fill="white" stroke="black" points="2020.75,-81 1909.5,-81 1909.5,-45 2020.75,-45 2020.75,-81"/>
<text text-anchor="middle" x="1965.12" y="-57.98" font-family="Times New Roman,serif" font-size="12.00">Community Engage</text>
</g>
<!-- 1990980442288 -->
<g id="node28" class="node">
<title>1990980442288</title>
<ellipse fill="white" stroke="black" cx="2083.75" cy="-63" rx="27" ry="27"/>
</g>
<!-- 1990980449728&#45;&gt;1990980442288 -->
<g id="edge24" class="edge">
<title>1990980449728&#45;&gt;1990980442288</title>
<path fill="none" stroke="black" d="M2021.02,-63C2029.09,-63 2037.24,-63 2044.86,-63"/>
<polygon fill="black" stroke="black" points="2044.79,-66.5 2054.79,-63 2044.79,-59.5 2044.79,-66.5"/>
</g>
<!-- 1990980436048 -->
<g id="node12" class="node">
<title>1990980436048</title>
<polygon fill="white" stroke="black" points="2247.5,-54 2146.75,-54 2146.75,-18 2247.5,-18 2247.5,-54"/>
<text text-anchor="middle" x="2197.12" y="-30.98" font-family="Times New Roman,serif" font-size="12.00">Maintenance Plan</text>
</g>
<!-- 1990980444688 -->
<g id="node29" class="node">
<title>1990980444688</title>
<ellipse fill="white" stroke="black" cx="2310.5" cy="-35" rx="27" ry="27"/>
</g>
<!-- 1990980436048&#45;&gt;1990980444688 -->
<g id="edge26" class="edge">
<title>1990980436048&#45;&gt;1990980444688</title>
<path fill="none" stroke="black" d="M2247.95,-35.55C2255.93,-35.48 2264.08,-35.41 2271.72,-35.34"/>
<polygon fill="black" stroke="black" points="2271.73,-38.84 2281.7,-35.25 2271.67,-31.84 2271.73,-38.84"/>
</g>
<!-- 1990980443680 -->
<g id="node13" class="node">
<title>1990980443680</title>
<polygon fill="white" stroke="black" points="2457,-107 2373.5,-107 2373.5,-71 2457,-71 2457,-107"/>
<text text-anchor="middle" x="2415.25" y="-83.97" font-family="Times New Roman,serif" font-size="12.00">Yield Monitor</text>
</g>
<!-- 1990980443680&#45;&gt;1990980442288 -->
<g id="edge29" class="edge">
<title>1990980443680&#45;&gt;1990980442288</title>
<path fill="none" stroke="black" d="M2373.06,-85.75C2308.55,-80.66 2184.64,-70.88 2122.39,-65.97"/>
<polygon fill="black" stroke="black" points="2122.91,-62.5 2112.67,-65.2 2122.36,-69.48 2122.91,-62.5"/>
</g>
<!-- 1990981171680 -->
<g id="node14" class="node">
<title>1990981171680</title>
<polygon fill="white" stroke="black" points="2455.12,-53 2375.38,-53 2375.38,-17 2455.12,-17 2455.12,-53"/>
<text text-anchor="middle" x="2415.25" y="-29.98" font-family="Times New Roman,serif" font-size="12.00">Market Setup</text>
</g>
<!-- 1990981172832 -->
<g id="node30" class="node">
<title>1990981172832</title>
<ellipse fill="white" stroke="black" cx="2520" cy="-35" rx="27" ry="27"/>
</g>
<!-- 1990981171680&#45;&gt;1990981172832 -->
<g id="edge30" class="edge">
<title>1990981171680&#45;&gt;1990981172832</title>
<path fill="none" stroke="black" d="M2455.39,-35C2463.87,-35 2472.82,-35 2481.25,-35"/>
<polygon fill="black" stroke="black" points="2481.19,-38.5 2491.19,-35 2481.19,-31.5 2481.19,-38.5"/>
</g>
<!-- 1990981170240 -->
<g id="node15" class="node">
<title>1990981170240</title>
<polygon fill="white" stroke="black" points="2665.75,-53 2583,-53 2583,-17 2665.75,-17 2665.75,-53"/>
<text text-anchor="middle" x="2624.38" y="-29.98" font-family="Times New Roman,serif" font-size="12.00">Logistics Plan</text>
</g>
<!-- 1990977250720 -->
<g id="node31" class="node">
<title>1990977250720</title>
<ellipse fill="white" stroke="black" cx="2732.75" cy="-35" rx="27" ry="27"/>
<ellipse fill="none" stroke="black" cx="2732.75" cy="-35" rx="31" ry="31"/>
<text text-anchor="start" x="2716.25" y="-19.6" font-family="Times New Roman,serif" font-size="32.00">■</text>
</g>
<!-- 1990981170240&#45;&gt;1990977250720 -->
<g id="edge32" class="edge">
<title>1990981170240&#45;&gt;1990977250720</title>
<path fill="none" stroke="black" d="M2666.2,-35C2673.98,-35 2682.14,-35 2689.95,-35"/>
<polygon fill="black" stroke="black" points="2689.93,-38.5 2699.93,-35 2689.93,-31.5 2689.93,-38.5"/>
</g>
<!-- 1990977248992 -->
<g id="node16" class="node">
<title>1990977248992</title>
<ellipse fill="white" stroke="black" cx="27" cy="-63" rx="27" ry="27"/>
<text text-anchor="start" x="9.75" y="-45.7" font-family="Times New Roman,serif" font-size="34.00">●</text>
</g>
<!-- 1990977248992&#45;&gt;1990979848432 -->
<g id="edge1" class="edge">
<title>1990977248992&#45;&gt;1990979848432</title>
<path fill="none" stroke="black" d="M54.33,-63C61.76,-63 70.06,-63 78.28,-63"/>
<polygon fill="black" stroke="black" points="78.24,-66.5 88.24,-63 78.24,-59.5 78.24,-66.5"/>
</g>
<!-- 1990979856112&#45;&gt;1990979856640 -->
<g id="edge3" class="edge">
<title>1990979856112&#45;&gt;1990979856640</title>
<path fill="none" stroke="black" d="M251.15,-63C258.6,-63 266.89,-63 275.04,-63"/>
<polygon fill="black" stroke="black" points="274.82,-66.5 284.82,-63 274.82,-59.5 274.82,-66.5"/>
</g>
<!-- 1990979858416&#45;&gt;1990979852896 -->
<g id="edge5" class="edge">
<title>1990979858416&#45;&gt;1990979852896</title>
<path fill="none" stroke="black" d="M440.99,-63C448.46,-63 456.85,-63 465.24,-63"/>
<polygon fill="black" stroke="black" points="465.08,-66.5 475.08,-63 465.08,-59.5 465.08,-66.5"/>
</g>
<!-- 1990979856208&#45;&gt;1990979852272 -->
<g id="edge7" class="edge">
<title>1990979856208&#45;&gt;1990979852272</title>
<path fill="none" stroke="black" d="M646.94,-63C654.31,-63 662.56,-63 670.73,-63"/>
<polygon fill="black" stroke="black" points="670.62,-66.5 680.62,-63 670.62,-59.5 670.62,-66.5"/>
</g>
<!-- 1990979847472&#45;&gt;1990979847856 -->
<g id="edge9" class="edge">
<title>1990979847472&#45;&gt;1990979847856</title>
<path fill="none" stroke="black" d="M844.4,-63C851.73,-63 859.96,-63 868.26,-63"/>
<polygon fill="black" stroke="black" points="868.03,-66.5 878.03,-63 868.03,-59.5 868.03,-66.5"/>
</g>
<!-- 1990979847280&#45;&gt;1990979781840 -->
<g id="edge11" class="edge">
<title>1990979847280&#45;&gt;1990979781840</title>
<path fill="none" stroke="black" d="M1057.56,-63C1064.88,-63 1073.09,-63 1081.3,-63"/>
<polygon fill="black" stroke="black" points="1081.3,-66.5 1091.3,-63 1081.3,-59.5 1081.3,-66.5"/>
</g>
<!-- 1990976297904&#45;&gt;1990976296176 -->
<g id="edge13" class="edge">
<title>1990976297904&#45;&gt;1990976296176</title>
<path fill="none" stroke="black" d="M1261.98,-63C1269.34,-63 1277.6,-63 1285.91,-63"/>
<polygon fill="black" stroke="black" points="1285.69,-66.5 1295.69,-63 1285.69,-59.5 1285.69,-66.5"/>
</g>
<!-- 1990976295456&#45;&gt;1990980239536 -->
<g id="edge15" class="edge">
<title>1990976295456&#45;&gt;1990980239536</title>
<path fill="none" stroke="black" d="M1473.57,-63C1481,-63 1489.29,-63 1497.45,-63"/>
<polygon fill="black" stroke="black" points="1497.31,-66.5 1507.31,-63 1497.31,-59.5 1497.31,-66.5"/>
</g>
<!-- 1990980438736&#45;&gt;1990980442960 -->
<g id="edge19" class="edge">
<title>1990980438736&#45;&gt;1990980442960</title>
<path fill="none" stroke="black" d="M1666.69,-99C1675.05,-99 1684.56,-99 1693.95,-99"/>
<polygon fill="black" stroke="black" points="1693.73,-102.5 1703.73,-99 1693.73,-95.5 1693.73,-102.5"/>
</g>
<!-- 1990980441952&#45;&gt;1990980452224 -->
<g id="edge18" class="edge">
<title>1990980441952&#45;&gt;1990980452224</title>
<path fill="none" stroke="black" d="M1666.69,-27C1673.96,-27 1682.11,-27 1690.28,-27"/>
<polygon fill="black" stroke="black" points="1690.26,-30.5 1700.26,-27 1690.26,-23.5 1690.26,-30.5"/>
</g>
<!-- 1990981414416&#45;&gt;1990980449728 -->
<g id="edge22" class="edge">
<title>1990981414416&#45;&gt;1990980449728</title>
<path fill="none" stroke="black" d="M1872.81,-91.19C1880.51,-88.81 1889.36,-86.08 1898.45,-83.27"/>
<polygon fill="black" stroke="black" points="1899.22,-86.7 1907.74,-80.41 1897.15,-80.01 1899.22,-86.7"/>
</g>
<!-- 1990981413936&#45;&gt;1990980449728 -->
<g id="edge23" class="edge">
<title>1990981413936&#45;&gt;1990980449728</title>
<path fill="none" stroke="black" d="M1872.81,-34.81C1880.51,-37.19 1889.36,-39.92 1898.45,-42.73"/>
<polygon fill="black" stroke="black" points="1897.15,-45.99 1907.74,-45.59 1899.22,-39.3 1897.15,-45.99"/>
</g>
<!-- 1990980442288&#45;&gt;1990980436048 -->
<g id="edge25" class="edge">
<title>1990980442288&#45;&gt;1990980436048</title>
<path fill="none" stroke="black" d="M2110.3,-56.81C2117.97,-54.95 2126.73,-52.82 2135.66,-50.66"/>
<polygon fill="black" stroke="black" points="2136.21,-54.13 2145.1,-48.37 2134.56,-47.32 2136.21,-54.13"/>
</g>
<!-- 1990980444688&#45;&gt;1990980443680 -->
<g id="edge28" class="edge">
<title>1990980444688&#45;&gt;1990980443680</title>
<path fill="none" stroke="black" d="M2334.82,-47.25C2345.08,-52.65 2357.51,-59.18 2369.46,-65.46"/>
<polygon fill="black" stroke="black" points="2367.5,-68.38 2377.98,-69.94 2370.75,-62.19 2367.5,-68.38"/>
</g>
<!-- 1990980444688&#45;&gt;1990981171680 -->
<g id="edge27" class="edge">
<title>1990980444688&#45;&gt;1990981171680</title>
<path fill="none" stroke="black" d="M2337.96,-35C2345.9,-35 2354.9,-35 2363.85,-35"/>
<polygon fill="black" stroke="black" points="2363.57,-38.5 2373.57,-35 2363.57,-31.5 2363.57,-38.5"/>
</g>
<!-- 1990981172832&#45;&gt;1990981170240 -->
<g id="edge31" class="edge">
<title>1990981172832&#45;&gt;1990981170240</title>
<path fill="none" stroke="black" d="M2547.36,-35C2554.78,-35 2563.11,-35 2571.46,-35"/>
<polygon fill="black" stroke="black" points="2571.27,-38.5 2581.27,-35 2571.27,-31.5 2571.27,-38.5"/>
</g>
</g>
</svg>
