<?xml version="1.0" encoding="UTF-8" standalone="no"?>
<!DOCTYPE svg PUBLIC "-//W3C//DTD SVG 1.1//EN"
 "http://www.w3.org/Graphics/SVG/1.1/DTD/svg11.dtd">
<!-- Generated by graphviz version 11.0.0 (20240428.1522)
 -->
<!-- Title: imdf_net_1754051339.9397776 Pages: 1 -->
<svg width="2988pt" height="452pt"
 viewBox="0.00 0.00 2987.50 451.88" xmlns="http://www.w3.org/2000/svg" xmlns:xlink="http://www.w3.org/1999/xlink">
<g id="graph0" class="graph" transform="scale(1 1) rotate(0) translate(4 447.88)">
<title>imdf_net_1754051339.9397776</title>
<polygon fill="white" stroke="none" points="-4,4 -4,-447.88 2983.5,-447.88 2983.5,4 -4,4"/>
<!-- 1990975902624 -->
<g id="node1" class="node">
<title>1990975902624</title>
<polygon fill="white" stroke="black" points="170.5,-397 90,-397 90,-361 170.5,-361 170.5,-397"/>
<text text-anchor="middle" x="130.25" y="-373.98" font-family="Times New Roman,serif" font-size="12.00">Site Selection</text>
</g>
<!-- 1990975904352 -->
<g id="node23" class="node">
<title>1990975904352</title>
<ellipse fill="white" stroke="black" cx="233.5" cy="-379" rx="27" ry="27"/>
</g>
<!-- 1990975902624&#45;&gt;1990975904352 -->
<g id="edge2" class="edge">
<title>1990975902624&#45;&gt;1990975904352</title>
<path fill="none" stroke="black" d="M170.98,-379C178.85,-379 187.09,-379 194.89,-379"/>
<polygon fill="black" stroke="black" points="194.77,-382.5 204.77,-379 194.77,-375.5 194.77,-382.5"/>
</g>
<!-- 1990975904016 -->
<g id="node2" class="node">
<title>1990975904016</title>
<polygon fill="white" stroke="black" points="383,-397 296.5,-397 296.5,-361 383,-361 383,-397"/>
<text text-anchor="middle" x="339.75" y="-373.98" font-family="Times New Roman,serif" font-size="12.00">Design Layout</text>
</g>
<!-- 1990977401536 -->
<g id="node24" class="node">
<title>1990977401536</title>
<ellipse fill="white" stroke="black" cx="446" cy="-379" rx="27" ry="27"/>
</g>
<!-- 1990975904016&#45;&gt;1990977401536 -->
<g id="edge4" class="edge">
<title>1990975904016&#45;&gt;1990977401536</title>
<path fill="none" stroke="black" d="M383.45,-379C391.37,-379 399.59,-379 407.34,-379"/>
<polygon fill="black" stroke="black" points="407.14,-382.5 417.14,-379 407.14,-375.5 407.14,-382.5"/>
</g>
<!-- 1990979722496 -->
<g id="node3" class="node">
<title>1990979722496</title>
<polygon fill="white" stroke="black" points="603.75,-397 509,-397 509,-361 603.75,-361 603.75,-397"/>
<text text-anchor="middle" x="556.38" y="-373.98" font-family="Times New Roman,serif" font-size="12.00">Permit Approval</text>
</g>
<!-- 1990980643408 -->
<g id="node25" class="node">
<title>1990980643408</title>
<ellipse fill="white" stroke="black" cx="666.75" cy="-379" rx="27" ry="27"/>
</g>
<!-- 1990979722496&#45;&gt;1990980643408 -->
<g id="edge6" class="edge">
<title>1990979722496&#45;&gt;1990980643408</title>
<path fill="none" stroke="black" d="M603.96,-379C612.04,-379 620.35,-379 628.15,-379"/>
<polygon fill="black" stroke="black" points="627.98,-382.5 637.98,-379 627.98,-375.5 627.98,-382.5"/>
</g>
<!-- 1990980643312 -->
<g id="node4" class="node">
<title>1990980643312</title>
<polygon fill="white" stroke="black" points="838,-397 729.75,-397 729.75,-361 838,-361 838,-397"/>
<text text-anchor="middle" x="783.88" y="-373.98" font-family="Times New Roman,serif" font-size="12.00">Infrastructure Build</text>
</g>
<!-- 1990981404096 -->
<g id="node26" class="node">
<title>1990981404096</title>
<ellipse fill="white" stroke="black" cx="901" cy="-379" rx="27" ry="27"/>
</g>
<!-- 1990980643312&#45;&gt;1990981404096 -->
<g id="edge8" class="edge">
<title>1990980643312&#45;&gt;1990981404096</title>
<path fill="none" stroke="black" d="M838.39,-379C846.41,-379 854.53,-379 862.13,-379"/>
<polygon fill="black" stroke="black" points="862.04,-382.5 872.04,-379 862.04,-375.5 862.04,-382.5"/>
</g>
<!-- 1990981404720 -->
<g id="node5" class="node">
<title>1990981404720</title>
<polygon fill="white" stroke="black" points="1046,-397 964,-397 964,-361 1046,-361 1046,-397"/>
<text text-anchor="middle" x="1005" y="-373.98" font-family="Times New Roman,serif" font-size="12.00">System Install</text>
</g>
<!-- 1990981404864 -->
<g id="node27" class="node">
<title>1990981404864</title>
<ellipse fill="white" stroke="black" cx="1109" cy="-379" rx="27" ry="27"/>
</g>
<!-- 1990981404720&#45;&gt;1990981404864 -->
<g id="edge10" class="edge">
<title>1990981404720&#45;&gt;1990981404864</title>
<path fill="none" stroke="black" d="M1046.31,-379C1054.23,-379 1062.5,-379 1070.32,-379"/>
<polygon fill="black" stroke="black" points="1070.23,-382.5 1080.23,-379 1070.23,-375.5 1070.23,-382.5"/>
</g>
<!-- 1990981405680 -->
<g id="node6" class="node">
<title>1990981405680</title>
<polygon fill="white" stroke="black" points="1249.5,-397 1172,-397 1172,-361 1249.5,-361 1249.5,-397"/>
<text text-anchor="middle" x="1210.75" y="-373.98" font-family="Times New Roman,serif" font-size="12.00">Nutrient Mix</text>
</g>
<!-- 1990981405920 -->
<g id="node28" class="node">
<title>1990981405920</title>
<ellipse fill="white" stroke="black" cx="1312.5" cy="-379" rx="27" ry="27"/>
</g>
<!-- 1990981405680&#45;&gt;1990981405920 -->
<g id="edge12" class="edge">
<title>1990981405680&#45;&gt;1990981405920</title>
<path fill="none" stroke="black" d="M1249.75,-379C1257.57,-379 1265.81,-379 1273.63,-379"/>
<polygon fill="black" stroke="black" points="1273.55,-382.5 1283.55,-379 1273.55,-375.5 1273.55,-382.5"/>
</g>
<!-- 1990981406496 -->
<g id="node7" class="node">
<title>1990981406496</title>
<polygon fill="white" stroke="black" points="1459.75,-397 1375.5,-397 1375.5,-361 1459.75,-361 1459.75,-397"/>
<text text-anchor="middle" x="1417.62" y="-373.98" font-family="Times New Roman,serif" font-size="12.00">Seedling Plant</text>
</g>
<!-- 1990981406736 -->
<g id="node29" class="node">
<title>1990981406736</title>
<ellipse fill="white" stroke="black" cx="1522.75" cy="-379" rx="27" ry="27"/>
</g>
<!-- 1990981406496&#45;&gt;1990981406736 -->
<g id="edge14" class="edge">
<title>1990981406496&#45;&gt;1990981406736</title>
<path fill="none" stroke="black" d="M1459.98,-379C1467.94,-379 1476.24,-379 1484.08,-379"/>
<polygon fill="black" stroke="black" points="1484,-382.5 1494,-379 1484,-375.5 1484,-382.5"/>
</g>
<!-- 1990981407312 -->
<g id="node8" class="node">
<title>1990981407312</title>
<polygon fill="white" stroke="black" points="1668.5,-397 1585.75,-397 1585.75,-361 1668.5,-361 1668.5,-397"/>
<text text-anchor="middle" x="1627.12" y="-373.98" font-family="Times New Roman,serif" font-size="12.00">Climate Setup</text>
</g>
<!-- 1990981407552 -->
<g id="node30" class="node">
<title>1990981407552</title>
<ellipse fill="white" stroke="black" cx="1731.5" cy="-379" rx="27" ry="27"/>
</g>
<!-- 1990981407312&#45;&gt;1990981407552 -->
<g id="edge16" class="edge">
<title>1990981407312&#45;&gt;1990981407552</title>
<path fill="none" stroke="black" d="M1668.88,-379C1676.73,-379 1684.92,-379 1692.67,-379"/>
<polygon fill="black" stroke="black" points="1692.49,-382.5 1702.49,-379 1692.49,-375.5 1692.49,-382.5"/>
</g>
<!-- 1990981408128 -->
<g id="node9" class="node">
<title>1990981408128</title>
<polygon fill="white" stroke="black" points="1888.5,-397 1794.5,-397 1794.5,-361 1888.5,-361 1888.5,-397"/>
<text text-anchor="middle" x="1841.5" y="-373.98" font-family="Times New Roman,serif" font-size="12.00">Sensor Calibrate</text>
</g>
<!-- 1990981409856 -->
<g id="node31" class="node">
<title>1990981409856</title>
<ellipse fill="white" stroke="black" cx="1951.5" cy="-379" rx="27" ry="27"/>
</g>
<!-- 1990981408128&#45;&gt;1990981409856 -->
<g id="edge18" class="edge">
<title>1990981408128&#45;&gt;1990981409856</title>
<path fill="none" stroke="black" d="M1888.93,-379C1896.81,-379 1904.91,-379 1912.53,-379"/>
<polygon fill="black" stroke="black" points="1912.52,-382.5 1922.52,-379 1912.52,-375.5 1912.52,-382.5"/>
</g>
<!-- 1990981410576 -->
<g id="node10" class="node">
<title>1990981410576</title>
<polygon fill="black" stroke="black" points="2068.5,-374 2014.5,-374 2014.5,-338 2068.5,-338 2068.5,-374"/>
</g>
<!-- 1990981410384 -->
<g id="node32" class="node">
<title>1990981410384</title>
<ellipse fill="white" stroke="black" cx="2131.5" cy="-315" rx="27" ry="27"/>
</g>
<!-- 1990981410576&#45;&gt;1990981410384 -->
<g id="edge20" class="edge">
<title>1990981410576&#45;&gt;1990981410384</title>
<path fill="none" stroke="black" d="M2068.9,-343.7C2077.49,-339.7 2087.15,-335.2 2096.23,-330.97"/>
<polygon fill="black" stroke="black" points="2097.56,-334.21 2105.14,-326.81 2094.6,-327.86 2097.56,-334.21"/>
</g>
<!-- 1990981411104 -->
<g id="node11" class="node">
<title>1990981411104</title>
<polygon fill="black" stroke="black" points="2261.38,-333 2207.38,-333 2207.38,-297 2261.38,-297 2261.38,-333"/>
</g>
<!-- 1990981412112 -->
<g id="node33" class="node">
<title>1990981412112</title>
<ellipse fill="white" stroke="black" cx="2337.25" cy="-387" rx="27" ry="27"/>
</g>
<!-- 1990981411104&#45;&gt;1990981412112 -->
<g id="edge28" class="edge">
<title>1990981411104&#45;&gt;1990981412112</title>
<path fill="none" stroke="black" d="M2261.09,-333.35C2274.56,-342.97 2291.15,-354.81 2305.32,-364.92"/>
<polygon fill="black" stroke="black" points="2303.27,-367.76 2313.44,-370.72 2307.34,-362.06 2303.27,-367.76"/>
</g>
<!-- 1990981415088 -->
<g id="node35" class="node">
<title>1990981415088</title>
<ellipse fill="white" stroke="black" cx="2337.25" cy="-315" rx="27" ry="27"/>
</g>
<!-- 1990981411104&#45;&gt;1990981415088 -->
<g id="edge24" class="edge">
<title>1990981411104&#45;&gt;1990981415088</title>
<path fill="none" stroke="black" d="M2261.62,-315C2272.85,-315 2286.19,-315 2298.46,-315"/>
<polygon fill="black" stroke="black" points="2298.28,-318.5 2308.28,-315 2298.28,-311.5 2298.28,-318.5"/>
</g>
<!-- 1990981413600 -->
<g id="node38" class="node">
<title>1990981413600</title>
<ellipse fill="white" stroke="black" cx="2337.25" cy="-243" rx="27" ry="27"/>
</g>
<!-- 1990981411104&#45;&gt;1990981413600 -->
<g id="edge26" class="edge">
<title>1990981411104&#45;&gt;1990981413600</title>
<path fill="none" stroke="black" d="M2261.09,-296.65C2274.56,-287.03 2291.15,-275.19 2305.32,-265.08"/>
<polygon fill="black" stroke="black" points="2307.34,-267.94 2313.44,-259.28 2303.27,-262.24 2307.34,-267.94"/>
</g>
<!-- 1990981416816 -->
<g id="node12" class="node">
<title>1990981416816</title>
<polygon fill="white" stroke="black" points="2274.25,-153 2194.5,-153 2194.5,-117 2274.25,-117 2274.25,-153"/>
<text text-anchor="middle" x="2234.38" y="-129.97" font-family="Times New Roman,serif" font-size="12.00">Harvest Crop</text>
</g>
<!-- 1990981468576 -->
<g id="node34" class="node">
<title>1990981468576</title>
<ellipse fill="white" stroke="black" cx="2337.25" cy="-171" rx="27" ry="27"/>
</g>
<!-- 1990981416816&#45;&gt;1990981468576 -->
<g id="edge25" class="edge">
<title>1990981416816&#45;&gt;1990981468576</title>
<path fill="none" stroke="black" d="M2274.66,-149.02C2283.28,-152.1 2292.35,-155.33 2300.81,-158.35"/>
<polygon fill="black" stroke="black" points="2299.46,-161.59 2310.05,-161.65 2301.81,-154.99 2299.46,-161.59"/>
</g>
<!-- 1990981417392 -->
<g id="node36" class="node">
<title>1990981417392</title>
<ellipse fill="white" stroke="black" cx="2337.25" cy="-99" rx="27" ry="27"/>
</g>
<!-- 1990981416816&#45;&gt;1990981417392 -->
<g id="edge27" class="edge">
<title>1990981416816&#45;&gt;1990981417392</title>
<path fill="none" stroke="black" d="M2274.66,-120.98C2283.28,-117.9 2292.35,-114.67 2300.81,-111.65"/>
<polygon fill="black" stroke="black" points="2301.81,-115.01 2310.05,-108.35 2299.46,-108.41 2301.81,-115.01"/>
</g>
<!-- 1990981418544 -->
<g id="node37" class="node">
<title>1990981418544</title>
<ellipse fill="white" stroke="black" cx="2337.25" cy="-27" rx="27" ry="27"/>
</g>
<!-- 1990981416816&#45;&gt;1990981418544 -->
<g id="edge23" class="edge">
<title>1990981416816&#45;&gt;1990981418544</title>
<path fill="none" stroke="black" d="M2252.49,-116.68C2268.35,-99.69 2292.18,-74.18 2310.37,-54.71"/>
<polygon fill="black" stroke="black" points="2312.73,-57.31 2317,-47.61 2307.61,-52.53 2312.73,-57.31"/>
</g>
<!-- 1990981414176 -->
<g id="node13" class="node">
<title>1990981414176</title>
<polygon fill="white" stroke="black" points="2494.25,-261 2400.25,-261 2400.25,-225 2494.25,-225 2494.25,-261"/>
<text text-anchor="middle" x="2447.25" y="-237.97" font-family="Times New Roman,serif" font-size="12.00">Growth Monitor</text>
</g>
<!-- 1990981413264 -->
<g id="node40" class="node">
<title>1990981413264</title>
<ellipse fill="white" stroke="black" cx="2557.25" cy="-243" rx="27" ry="27"/>
</g>
<!-- 1990981414176&#45;&gt;1990981413264 -->
<g id="edge37" class="edge">
<title>1990981414176&#45;&gt;1990981413264</title>
<path fill="none" stroke="black" d="M2494.68,-243C2502.56,-243 2510.66,-243 2518.28,-243"/>
<polygon fill="black" stroke="black" points="2518.27,-246.5 2528.27,-243 2518.27,-239.5 2518.27,-246.5"/>
</g>
<!-- 1990981412688 -->
<g id="node14" class="node">
<title>1990981412688</title>
<polygon fill="white" stroke="black" points="2484.88,-405 2409.62,-405 2409.62,-369 2484.88,-369 2484.88,-405"/>
<text text-anchor="middle" x="2447.25" y="-381.98" font-family="Times New Roman,serif" font-size="12.00">Water Cycle</text>
</g>
<!-- 1990981411776 -->
<g id="node41" class="node">
<title>1990981411776</title>
<ellipse fill="white" stroke="black" cx="2557.25" cy="-387" rx="27" ry="27"/>
</g>
<!-- 1990981412688&#45;&gt;1990981411776 -->
<g id="edge39" class="edge">
<title>1990981412688&#45;&gt;1990981411776</title>
<path fill="none" stroke="black" d="M2485.12,-387C2495.89,-387 2507.67,-387 2518.49,-387"/>
<polygon fill="black" stroke="black" points="2518.26,-390.5 2528.26,-387 2518.26,-383.5 2518.26,-390.5"/>
</g>
<!-- 1990981469152 -->
<g id="node15" class="node">
<title>1990981469152</title>
<polygon fill="white" stroke="black" points="2492.38,-185 2402.12,-185 2402.12,-149 2492.38,-149 2492.38,-185"/>
<text text-anchor="middle" x="2447.25" y="-161.97" font-family="Times New Roman,serif" font-size="12.00">Package Goods</text>
</g>
<!-- 1990981402752 -->
<g id="node39" class="node">
<title>1990981402752</title>
<ellipse fill="white" stroke="black" cx="2557.25" cy="-166" rx="27" ry="27"/>
</g>
<!-- 1990981469152&#45;&gt;1990981402752 -->
<g id="edge36" class="edge">
<title>1990981469152&#45;&gt;1990981402752</title>
<path fill="none" stroke="black" d="M2492.8,-166.59C2501.41,-166.51 2510.35,-166.42 2518.71,-166.35"/>
<polygon fill="black" stroke="black" points="2518.56,-169.85 2528.53,-166.26 2518.5,-162.85 2518.56,-169.85"/>
</g>
<!-- 1990981415664 -->
<g id="node16" class="node">
<title>1990981415664</title>
<polygon fill="white" stroke="black" points="2484.5,-333 2410,-333 2410,-297 2484.5,-297 2484.5,-333"/>
<text text-anchor="middle" x="2447.25" y="-309.98" font-family="Times New Roman,serif" font-size="12.00">Pest Control</text>
</g>
<!-- 1990981414752 -->
<g id="node42" class="node">
<title>1990981414752</title>
<ellipse fill="white" stroke="black" cx="2557.25" cy="-315" rx="27" ry="27"/>
</g>
<!-- 1990981415664&#45;&gt;1990981414752 -->
<g id="edge35" class="edge">
<title>1990981415664&#45;&gt;1990981414752</title>
<path fill="none" stroke="black" d="M2484.81,-315C2495.69,-315 2507.62,-315 2518.57,-315"/>
<polygon fill="black" stroke="black" points="2518.45,-318.5 2528.45,-315 2518.45,-311.5 2518.45,-318.5"/>
</g>
<!-- 1990981417968 -->
<g id="node17" class="node">
<title>1990981417968</title>
<polygon fill="white" stroke="black" points="2489.38,-117 2405.12,-117 2405.12,-81 2489.38,-81 2489.38,-117"/>
<text text-anchor="middle" x="2447.25" y="-93.97" font-family="Times New Roman,serif" font-size="12.00">Waste Process</text>
</g>
<!-- 1990981417056 -->
<g id="node43" class="node">
<title>1990981417056</title>
<ellipse fill="white" stroke="black" cx="2660.88" cy="-99" rx="27" ry="27"/>
</g>
<!-- 1990981417968&#45;&gt;1990981417056 -->
<g id="edge38" class="edge">
<title>1990981417968&#45;&gt;1990981417056</title>
<path fill="none" stroke="black" d="M2489.81,-99C2528.26,-99 2584.93,-99 2622.12,-99"/>
<polygon fill="black" stroke="black" points="2621.94,-102.5 2631.94,-99 2621.94,-95.5 2621.94,-102.5"/>
</g>
<!-- 1990981468336 -->
<g id="node18" class="node">
<title>1990981468336</title>
<polygon fill="white" stroke="black" points="2487.88,-47 2406.62,-47 2406.62,-11 2487.88,-11 2487.88,-47"/>
<text text-anchor="middle" x="2447.25" y="-23.98" font-family="Times New Roman,serif" font-size="12.00">Data Analyze</text>
</g>
<!-- 1990981418208 -->
<g id="node44" class="node">
<title>1990981418208</title>
<ellipse fill="white" stroke="black" cx="2764.5" cy="-35" rx="27" ry="27"/>
</g>
<!-- 1990981468336&#45;&gt;1990981418208 -->
<g id="edge40" class="edge">
<title>1990981468336&#45;&gt;1990981418208</title>
<path fill="none" stroke="black" d="M2488.18,-29.76C2549.53,-30.93 2666.16,-33.15 2726.01,-34.29"/>
<polygon fill="black" stroke="black" points="2725.61,-37.78 2735.68,-34.47 2725.75,-30.78 2725.61,-37.78"/>
</g>
<!-- 1990978079632 -->
<g id="node19" class="node">
<title>1990978079632</title>
<polygon fill="black" stroke="black" points="2881.5,-117 2827.5,-117 2827.5,-81 2881.5,-81 2881.5,-117"/>
</g>
<!-- 1990979912816 -->
<g id="node46" class="node">
<title>1990979912816</title>
<ellipse fill="white" stroke="black" cx="2948.5" cy="-99" rx="27" ry="27"/>
<ellipse fill="none" stroke="black" cx="2948.5" cy="-99" rx="31" ry="31"/>
<text text-anchor="start" x="2932" y="-83.6" font-family="Times New Roman,serif" font-size="32.00">■</text>
</g>
<!-- 1990978079632&#45;&gt;1990979912816 -->
<g id="edge49" class="edge">
<title>1990978079632&#45;&gt;1990979912816</title>
<path fill="none" stroke="black" d="M2881.62,-99C2889.13,-99 2897.51,-99 2905.72,-99"/>
<polygon fill="black" stroke="black" points="2905.58,-102.5 2915.58,-99 2905.58,-95.5 2905.58,-102.5"/>
</g>
<!-- 1990981411152 -->
<g id="node20" class="node">
<title>1990981411152</title>
<polygon fill="black" stroke="black" points="2687.88,-369 2633.88,-369 2633.88,-333 2687.88,-333 2687.88,-369"/>
</g>
<!-- 1990981411152&#45;&gt;1990981409856 -->
<g id="edge47" class="edge">
<title>1990981411152&#45;&gt;1990981409856</title>
<path fill="none" stroke="black" d="M2646.19,-369.42C2632.52,-386.35 2609.88,-410.62 2584.25,-423 2529.29,-449.54 2509.28,-442 2448.25,-442 2130.5,-442 2130.5,-442 2130.5,-442 2077.32,-442 2020.07,-416.7 1985.25,-398.17"/>
<polygon fill="black" stroke="black" points="1986.98,-395.12 1976.53,-393.4 1983.62,-401.27 1986.98,-395.12"/>
</g>
<!-- 1990979730992 -->
<g id="node21" class="node">
<title>1990979730992</title>
<polygon fill="white" stroke="black" points="2701.5,-182 2620.25,-182 2620.25,-146 2701.5,-146 2701.5,-182"/>
<text text-anchor="middle" x="2660.88" y="-158.97" font-family="Times New Roman,serif" font-size="12.00">Local Deliver</text>
</g>
<!-- 1990981403040 -->
<g id="node45" class="node">
<title>1990981403040</title>
<ellipse fill="white" stroke="black" cx="2764.5" cy="-157" rx="27" ry="27"/>
</g>
<!-- 1990979730992&#45;&gt;1990981403040 -->
<g id="edge48" class="edge">
<title>1990979730992&#45;&gt;1990981403040</title>
<path fill="none" stroke="black" d="M2701.75,-161.25C2709.65,-160.71 2717.92,-160.14 2725.75,-159.6"/>
<polygon fill="black" stroke="black" points="2725.94,-163.1 2735.68,-158.92 2725.46,-156.11 2725.94,-163.1"/>
</g>
<!-- 1990980437872 -->
<g id="node22" class="node">
<title>1990980437872</title>
<ellipse fill="white" stroke="black" cx="27" cy="-379" rx="27" ry="27"/>
<text text-anchor="start" x="9.75" y="-361.7" font-family="Times New Roman,serif" font-size="34.00">●</text>
</g>
<!-- 1990980437872&#45;&gt;1990975902624 -->
<g id="edge1" class="edge">
<title>1990980437872&#45;&gt;1990975902624</title>
<path fill="none" stroke="black" d="M54.34,-379C61.75,-379 70.07,-379 78.4,-379"/>
<polygon fill="black" stroke="black" points="78.17,-382.5 88.17,-379 78.17,-375.5 78.17,-382.5"/>
</g>
<!-- 1990975904352&#45;&gt;1990975904016 -->
<g id="edge3" class="edge">
<title>1990975904352&#45;&gt;1990975904016</title>
<path fill="none" stroke="black" d="M260.81,-379C268.19,-379 276.49,-379 284.86,-379"/>
<polygon fill="black" stroke="black" points="284.71,-382.5 294.71,-379 284.71,-375.5 284.71,-382.5"/>
</g>
<!-- 1990977401536&#45;&gt;1990979722496 -->
<g id="edge5" class="edge">
<title>1990977401536&#45;&gt;1990979722496</title>
<path fill="none" stroke="black" d="M473.23,-379C480.56,-379 488.82,-379 497.2,-379"/>
<polygon fill="black" stroke="black" points="497.13,-382.5 507.13,-379 497.13,-375.5 497.13,-382.5"/>
</g>
<!-- 1990980643408&#45;&gt;1990980643312 -->
<g id="edge7" class="edge">
<title>1990980643408&#45;&gt;1990980643312</title>
<path fill="none" stroke="black" d="M694.16,-379C701.37,-379 709.52,-379 717.87,-379"/>
<polygon fill="black" stroke="black" points="717.82,-382.5 727.82,-379 717.82,-375.5 717.82,-382.5"/>
</g>
<!-- 1990981404096&#45;&gt;1990981404720 -->
<g id="edge9" class="edge">
<title>1990981404096&#45;&gt;1990981404720</title>
<path fill="none" stroke="black" d="M928.27,-379C935.65,-379 943.95,-379 952.28,-379"/>
<polygon fill="black" stroke="black" points="952.05,-382.5 962.05,-379 952.05,-375.5 952.05,-382.5"/>
</g>
<!-- 1990981404864&#45;&gt;1990981405680 -->
<g id="edge11" class="edge">
<title>1990981404864&#45;&gt;1990981405680</title>
<path fill="none" stroke="black" d="M1136.47,-379C1143.77,-379 1151.93,-379 1160.08,-379"/>
<polygon fill="black" stroke="black" points="1160,-382.5 1170,-379 1160,-375.5 1160,-382.5"/>
</g>
<!-- 1990981405920&#45;&gt;1990981406496 -->
<g id="edge13" class="edge">
<title>1990981405920&#45;&gt;1990981406496</title>
<path fill="none" stroke="black" d="M1339.79,-379C1347.17,-379 1355.48,-379 1363.82,-379"/>
<polygon fill="black" stroke="black" points="1363.64,-382.5 1373.64,-379 1363.64,-375.5 1363.64,-382.5"/>
</g>
<!-- 1990981406736&#45;&gt;1990981407312 -->
<g id="edge15" class="edge">
<title>1990981406736&#45;&gt;1990981407312</title>
<path fill="none" stroke="black" d="M1550.11,-379C1557.53,-379 1565.86,-379 1574.21,-379"/>
<polygon fill="black" stroke="black" points="1574.02,-382.5 1584.02,-379 1574.02,-375.5 1574.02,-382.5"/>
</g>
<!-- 1990981407552&#45;&gt;1990981408128 -->
<g id="edge17" class="edge">
<title>1990981407552&#45;&gt;1990981408128</title>
<path fill="none" stroke="black" d="M1758.92,-379C1766.22,-379 1774.44,-379 1782.77,-379"/>
<polygon fill="black" stroke="black" points="1782.63,-382.5 1792.63,-379 1782.63,-375.5 1782.63,-382.5"/>
</g>
<!-- 1990981409856&#45;&gt;1990981410576 -->
<g id="edge19" class="edge">
<title>1990981409856&#45;&gt;1990981410576</title>
<path fill="none" stroke="black" d="M1977.95,-372.35C1985.86,-370.28 1994.74,-367.96 2003.28,-365.73"/>
<polygon fill="black" stroke="black" points="2003.93,-369.18 2012.72,-363.26 2002.16,-362.4 2003.93,-369.18"/>
</g>
<!-- 1990981410384&#45;&gt;1990981411104 -->
<g id="edge21" class="edge">
<title>1990981410384&#45;&gt;1990981411104</title>
<path fill="none" stroke="black" d="M2158.74,-315C2169.98,-315 2183.31,-315 2195.58,-315"/>
<polygon fill="black" stroke="black" points="2195.4,-318.5 2205.4,-315 2195.4,-311.5 2195.4,-318.5"/>
</g>
<!-- 1990981410384&#45;&gt;1990981416816 -->
<g id="edge22" class="edge">
<title>1990981410384&#45;&gt;1990981416816</title>
<path fill="none" stroke="black" d="M2145.69,-291.47C2164.21,-258.42 2197.86,-198.37 2217.66,-163.04"/>
<polygon fill="black" stroke="black" points="2220.51,-165.11 2222.35,-154.68 2214.41,-161.69 2220.51,-165.11"/>
</g>
<!-- 1990981412112&#45;&gt;1990981412688 -->
<g id="edge32" class="edge">
<title>1990981412112&#45;&gt;1990981412688</title>
<path fill="none" stroke="black" d="M2364.67,-387C2374.79,-387 2386.67,-387 2398.19,-387"/>
<polygon fill="black" stroke="black" points="2397.99,-390.5 2407.99,-387 2397.99,-383.5 2397.99,-390.5"/>
</g>
<!-- 1990981468576&#45;&gt;1990981469152 -->
<g id="edge33" class="edge">
<title>1990981468576&#45;&gt;1990981469152</title>
<path fill="none" stroke="black" d="M2364.67,-170.02C2372.57,-169.73 2381.55,-169.4 2390.6,-169.06"/>
<polygon fill="black" stroke="black" points="2390.63,-172.56 2400.5,-168.69 2390.37,-165.57 2390.63,-172.56"/>
</g>
<!-- 1990981415088&#45;&gt;1990981415664 -->
<g id="edge30" class="edge">
<title>1990981415088&#45;&gt;1990981415664</title>
<path fill="none" stroke="black" d="M2364.67,-315C2374.79,-315 2386.67,-315 2398.19,-315"/>
<polygon fill="black" stroke="black" points="2397.99,-318.5 2407.99,-315 2397.99,-311.5 2397.99,-318.5"/>
</g>
<!-- 1990981417392&#45;&gt;1990981417968 -->
<g id="edge34" class="edge">
<title>1990981417392&#45;&gt;1990981417968</title>
<path fill="none" stroke="black" d="M2364.67,-99C2373.47,-99 2383.61,-99 2393.68,-99"/>
<polygon fill="black" stroke="black" points="2393.44,-102.5 2403.44,-99 2393.44,-95.5 2393.44,-102.5"/>
</g>
<!-- 1990981418544&#45;&gt;1990981468336 -->
<g id="edge29" class="edge">
<title>1990981418544&#45;&gt;1990981468336</title>
<path fill="none" stroke="black" d="M2364.67,-27.49C2373.84,-27.66 2384.46,-27.86 2394.95,-28.05"/>
<polygon fill="black" stroke="black" points="2394.63,-31.54 2404.69,-28.23 2394.76,-24.55 2394.63,-31.54"/>
</g>
<!-- 1990981413600&#45;&gt;1990981414176 -->
<g id="edge31" class="edge">
<title>1990981413600&#45;&gt;1990981414176</title>
<path fill="none" stroke="black" d="M2364.67,-243C2371.97,-243 2380.19,-243 2388.52,-243"/>
<polygon fill="black" stroke="black" points="2388.38,-246.5 2398.38,-243 2388.38,-239.5 2388.38,-246.5"/>
</g>
<!-- 1990981402752&#45;&gt;1990979730992 -->
<g id="edge44" class="edge">
<title>1990981402752&#45;&gt;1990979730992</title>
<path fill="none" stroke="black" d="M2584.69,-165.48C2591.96,-165.34 2600.11,-165.18 2608.28,-165.02"/>
<polygon fill="black" stroke="black" points="2608.33,-168.52 2618.26,-164.82 2608.19,-161.52 2608.33,-168.52"/>
</g>
<!-- 1990981413264&#45;&gt;1990981411152 -->
<g id="edge42" class="edge">
<title>1990981413264&#45;&gt;1990981411152</title>
<path fill="none" stroke="black" d="M2576.42,-262.31C2592.66,-279.57 2616.61,-305.02 2634.69,-324.24"/>
<polygon fill="black" stroke="black" points="2632.1,-326.59 2641.5,-331.48 2637.2,-321.8 2632.1,-326.59"/>
</g>
<!-- 1990981411776&#45;&gt;1990981411152 -->
<g id="edge43" class="edge">
<title>1990981411776&#45;&gt;1990981411152</title>
<path fill="none" stroke="black" d="M2583.11,-378.19C2595.05,-373.97 2609.59,-368.81 2622.8,-364.13"/>
<polygon fill="black" stroke="black" points="2623.81,-367.49 2632.07,-360.85 2621.47,-360.89 2623.81,-367.49"/>
</g>
<!-- 1990981414752&#45;&gt;1990981411152 -->
<g id="edge41" class="edge">
<title>1990981414752&#45;&gt;1990981411152</title>
<path fill="none" stroke="black" d="M2583.11,-323.81C2595.05,-328.03 2609.59,-333.19 2622.8,-337.87"/>
<polygon fill="black" stroke="black" points="2621.47,-341.11 2632.07,-341.15 2623.81,-334.51 2621.47,-341.11"/>
</g>
<!-- 1990981417056&#45;&gt;1990978079632 -->
<g id="edge45" class="edge">
<title>1990981417056&#45;&gt;1990978079632</title>
<path fill="none" stroke="black" d="M2688.12,-99C2721.14,-99 2778.08,-99 2815.76,-99"/>
<polygon fill="black" stroke="black" points="2815.75,-102.5 2825.75,-99 2815.75,-95.5 2815.75,-102.5"/>
</g>
<!-- 1990981418208&#45;&gt;1990978079632 -->
<g id="edge46" class="edge">
<title>1990981418208&#45;&gt;1990978079632</title>
<path fill="none" stroke="black" d="M2786.8,-50.49C2796.48,-57.53 2808.18,-66.04 2819.05,-73.95"/>
<polygon fill="black" stroke="black" points="2816.96,-76.75 2827.11,-79.8 2821.08,-71.09 2816.96,-76.75"/>
</g>
<!-- 1990981403040&#45;&gt;1990978079632 -->
<g id="edge50" class="edge">
<title>1990981403040&#45;&gt;1990978079632</title>
<path fill="none" stroke="black" d="M2787.71,-142.36C2796.81,-136.36 2807.58,-129.26 2817.75,-122.56"/>
<polygon fill="black" stroke="black" points="2819.54,-125.57 2825.97,-117.15 2815.69,-119.73 2819.54,-125.57"/>
</g>
</g>
</svg>
