<?xml version="1.0" encoding="UTF-8" standalone="no"?>
<!DOCTYPE svg PUBLIC "-//W3C//DTD SVG 1.1//EN"
 "http://www.w3.org/Graphics/SVG/1.1/DTD/svg11.dtd">
<!-- Generated by graphviz version 11.0.0 (20240428.1522)
 -->
<!-- Title: imdf_net_1754051370.794475 Pages: 1 -->
<svg width="2538pt" height="160pt"
 viewBox="0.00 0.00 2537.50 160.00" xmlns="http://www.w3.org/2000/svg" xmlns:xlink="http://www.w3.org/1999/xlink">
<g id="graph0" class="graph" transform="scale(1 1) rotate(0) translate(4 156)">
<title>imdf_net_1754051370.794475</title>
<polygon fill="white" stroke="none" points="-4,4 -4,-156 2533.5,-156 2533.5,4 -4,4"/>
<!-- 1990980517280 -->
<g id="node1" class="node">
<title>1990980517280</title>
<polygon fill="white" stroke="black" points="160.75,-107 90,-107 90,-71 160.75,-71 160.75,-107"/>
<text text-anchor="middle" x="125.38" y="-83.97" font-family="Times New Roman,serif" font-size="12.00">Trend Scan</text>
</g>
<!-- 1990980517472 -->
<g id="node17" class="node">
<title>1990980517472</title>
<ellipse fill="white" stroke="black" cx="223.75" cy="-125" rx="27" ry="27"/>
</g>
<!-- 1990980517280&#45;&gt;1990980517472 -->
<g id="edge3" class="edge">
<title>1990980517280&#45;&gt;1990980517472</title>
<path fill="none" stroke="black" d="M161.17,-102C169.64,-105.16 178.71,-108.55 187.22,-111.73"/>
<polygon fill="black" stroke="black" points="185.97,-115 196.56,-115.22 188.42,-108.44 185.97,-115"/>
</g>
<!-- 1990980517616 -->
<g id="node18" class="node">
<title>1990980517616</title>
<ellipse fill="white" stroke="black" cx="223.75" cy="-53" rx="27" ry="27"/>
</g>
<!-- 1990980517280&#45;&gt;1990980517616 -->
<g id="edge2" class="edge">
<title>1990980517280&#45;&gt;1990980517616</title>
<path fill="none" stroke="black" d="M161.17,-76C169.64,-72.84 178.71,-69.45 187.22,-66.27"/>
<polygon fill="black" stroke="black" points="188.42,-69.56 196.56,-62.78 185.97,-63 188.42,-69.56"/>
</g>
<!-- 1990980512000 -->
<g id="node2" class="node">
<title>1990980512000</title>
<polygon fill="white" stroke="black" points="375.5,-143 297.25,-143 297.25,-107 375.5,-107 375.5,-143"/>
<text text-anchor="middle" x="336.38" y="-119.97" font-family="Times New Roman,serif" font-size="12.00">Data Harvest</text>
</g>
<!-- 1990978753728 -->
<g id="node19" class="node">
<title>1990978753728</title>
<ellipse fill="white" stroke="black" cx="449" cy="-125" rx="27" ry="27"/>
</g>
<!-- 1990980512000&#45;&gt;1990978753728 -->
<g id="edge6" class="edge">
<title>1990980512000&#45;&gt;1990978753728</title>
<path fill="none" stroke="black" d="M375.76,-125C386.85,-125 398.94,-125 410.01,-125"/>
<polygon fill="black" stroke="black" points="410,-128.5 420,-125 410,-121.5 410,-128.5"/>
</g>
<!-- 1990980504656 -->
<g id="node3" class="node">
<title>1990980504656</title>
<polygon fill="white" stroke="black" points="386,-71 286.75,-71 286.75,-35 386,-35 386,-71"/>
<text text-anchor="middle" x="336.38" y="-47.98" font-family="Times New Roman,serif" font-size="12.00">Stakeholder Sync</text>
</g>
<!-- 1990978760304 -->
<g id="node20" class="node">
<title>1990978760304</title>
<ellipse fill="white" stroke="black" cx="449" cy="-53" rx="27" ry="27"/>
</g>
<!-- 1990980504656&#45;&gt;1990978760304 -->
<g id="edge7" class="edge">
<title>1990980504656&#45;&gt;1990978760304</title>
<path fill="none" stroke="black" d="M386.22,-53C394.29,-53 402.55,-53 410.29,-53"/>
<polygon fill="black" stroke="black" points="410.05,-56.5 420.05,-53 410.05,-49.5 410.05,-56.5"/>
</g>
<!-- 1990979654704 -->
<g id="node4" class="node">
<title>1990979654704</title>
<polygon fill="white" stroke="black" points="579,-107 512,-107 512,-71 579,-71 579,-107"/>
<text text-anchor="middle" x="545.5" y="-83.97" font-family="Times New Roman,serif" font-size="12.00">Idea Forge</text>
</g>
<!-- 1990979650624 -->
<g id="node21" class="node">
<title>1990979650624</title>
<ellipse fill="white" stroke="black" cx="642" cy="-89" rx="27" ry="27"/>
</g>
<!-- 1990979654704&#45;&gt;1990979650624 -->
<g id="edge10" class="edge">
<title>1990979654704&#45;&gt;1990979650624</title>
<path fill="none" stroke="black" d="M579.29,-89C587.02,-89 595.33,-89 603.27,-89"/>
<polygon fill="black" stroke="black" points="603,-92.5 613,-89 603,-85.5 603,-92.5"/>
</g>
<!-- 1990979654080 -->
<g id="node5" class="node">
<title>1990979654080</title>
<polygon fill="white" stroke="black" points="781,-107 705,-107 705,-71 781,-71 781,-107"/>
<text text-anchor="middle" x="743" y="-83.97" font-family="Times New Roman,serif" font-size="12.00">Concept Vet</text>
</g>
<!-- 1990979663920 -->
<g id="node22" class="node">
<title>1990979663920</title>
<ellipse fill="white" stroke="black" cx="844" cy="-89" rx="27" ry="27"/>
</g>
<!-- 1990979654080&#45;&gt;1990979663920 -->
<g id="edge12" class="edge">
<title>1990979654080&#45;&gt;1990979663920</title>
<path fill="none" stroke="black" d="M781.43,-89C789.21,-89 797.41,-89 805.21,-89"/>
<polygon fill="black" stroke="black" points="805.1,-92.5 815.1,-89 805.1,-85.5 805.1,-92.5"/>
</g>
<!-- 1990979159728 -->
<g id="node6" class="node">
<title>1990979159728</title>
<polygon fill="white" stroke="black" points="985.25,-84 907,-84 907,-48 985.25,-48 985.25,-84"/>
<text text-anchor="middle" x="946.12" y="-60.98" font-family="Times New Roman,serif" font-size="12.00">Virtual Build</text>
</g>
<!-- 1990979161648 -->
<g id="node23" class="node">
<title>1990979161648</title>
<ellipse fill="white" stroke="black" cx="1048.25" cy="-57" rx="27" ry="27"/>
</g>
<!-- 1990979159728&#45;&gt;1990979161648 -->
<g id="edge14" class="edge">
<title>1990979159728&#45;&gt;1990979161648</title>
<path fill="none" stroke="black" d="M985.55,-62.55C993.39,-61.84 1001.63,-61.1 1009.44,-60.4"/>
<polygon fill="black" stroke="black" points="1009.72,-63.89 1019.36,-59.51 1009.09,-56.92 1009.72,-63.89"/>
</g>
<!-- 1990979161552 -->
<g id="node7" class="node">
<title>1990979161552</title>
<polygon fill="white" stroke="black" points="1191.75,-77 1111.25,-77 1111.25,-41 1191.75,-41 1191.75,-77"/>
<text text-anchor="middle" x="1151.5" y="-53.98" font-family="Times New Roman,serif" font-size="12.00">Simulate Test</text>
</g>
<!-- 1990979656048 -->
<g id="node24" class="node">
<title>1990979656048</title>
<ellipse fill="white" stroke="black" cx="1254.75" cy="-63" rx="27" ry="27"/>
</g>
<!-- 1990979161552&#45;&gt;1990979656048 -->
<g id="edge16" class="edge">
<title>1990979161552&#45;&gt;1990979656048</title>
<path fill="none" stroke="black" d="M1192.23,-60.57C1200.1,-60.88 1208.34,-61.21 1216.14,-61.51"/>
<polygon fill="black" stroke="black" points="1215.89,-65.01 1226.02,-61.9 1216.17,-58.01 1215.89,-65.01"/>
</g>
<!-- 1990979163616 -->
<g id="node8" class="node">
<title>1990979163616</title>
<polygon fill="white" stroke="black" points="1394.5,-135 1317.75,-135 1317.75,-99 1394.5,-99 1394.5,-135"/>
<text text-anchor="middle" x="1356.12" y="-111.97" font-family="Times New Roman,serif" font-size="12.00">Insight Loop</text>
</g>
<!-- 1990979163616&#45;&gt;1990979663920 -->
<g id="edge19" class="edge">
<title>1990979163616&#45;&gt;1990979663920</title>
<path fill="none" stroke="black" d="M1317.41,-117.89C1276.72,-118.78 1210.02,-120 1152.5,-120 1047.25,-120 1047.25,-120 1047.25,-120 988.89,-120 922.14,-107.23 881.81,-98.09"/>
<polygon fill="black" stroke="black" points="882.67,-94.69 872.14,-95.84 881.09,-101.51 882.67,-94.69"/>
</g>
<!-- 1990979158768 -->
<g id="node9" class="node">
<title>1990979158768</title>
<polygon fill="white" stroke="black" points="1387.38,-81 1324.88,-81 1324.88,-45 1387.38,-45 1387.38,-81"/>
<text text-anchor="middle" x="1356.12" y="-57.98" font-family="Times New Roman,serif" font-size="12.00">Risk Map</text>
</g>
<!-- 1990979164816 -->
<g id="node25" class="node">
<title>1990979164816</title>
<ellipse fill="white" stroke="black" cx="1457.5" cy="-99" rx="27" ry="27"/>
</g>
<!-- 1990979158768&#45;&gt;1990979164816 -->
<g id="edge21" class="edge">
<title>1990979158768&#45;&gt;1990979164816</title>
<path fill="none" stroke="black" d="M1387.75,-74.09C1398.36,-77.94 1410.33,-82.28 1421.28,-86.24"/>
<polygon fill="black" stroke="black" points="1419.78,-89.42 1430.37,-89.54 1422.16,-82.84 1419.78,-89.42"/>
</g>
<!-- 1990979172496 -->
<g id="node26" class="node">
<title>1990979172496</title>
<ellipse fill="white" stroke="black" cx="1457.5" cy="-27" rx="27" ry="27"/>
</g>
<!-- 1990979158768&#45;&gt;1990979172496 -->
<g id="edge20" class="edge">
<title>1990979158768&#45;&gt;1990979172496</title>
<path fill="none" stroke="black" d="M1387.75,-51.91C1398.36,-48.06 1410.33,-43.72 1421.28,-39.76"/>
<polygon fill="black" stroke="black" points="1422.16,-43.16 1430.37,-36.46 1419.78,-36.58 1422.16,-43.16"/>
</g>
<!-- 1990979158144 -->
<g id="node10" class="node">
<title>1990979158144</title>
<polygon fill="white" stroke="black" points="1610.75,-117 1525.75,-117 1525.75,-81 1610.75,-81 1610.75,-117"/>
<text text-anchor="middle" x="1568.25" y="-93.97" font-family="Times New Roman,serif" font-size="12.00">Ethics Review</text>
</g>
<!-- 1990978754640 -->
<g id="node28" class="node">
<title>1990978754640</title>
<ellipse fill="white" stroke="black" cx="1679" cy="-99" rx="27" ry="27"/>
</g>
<!-- 1990979158144&#45;&gt;1990978754640 -->
<g id="edge24" class="edge">
<title>1990979158144&#45;&gt;1990978754640</title>
<path fill="none" stroke="black" d="M1610.98,-99C1620.59,-99 1630.75,-99 1640.17,-99"/>
<polygon fill="black" stroke="black" points="1640.11,-102.5 1650.11,-99 1640.11,-95.5 1640.11,-102.5"/>
</g>
<!-- 1990981163664 -->
<g id="node11" class="node">
<title>1990981163664</title>
<polygon fill="white" stroke="black" points="1616,-45 1520.5,-45 1520.5,-9 1616,-9 1616,-45"/>
<text text-anchor="middle" x="1568.25" y="-21.98" font-family="Times New Roman,serif" font-size="12.00">Reg Compliance</text>
</g>
<!-- 1990978756032 -->
<g id="node27" class="node">
<title>1990978756032</title>
<ellipse fill="white" stroke="black" cx="1679" cy="-27" rx="27" ry="27"/>
</g>
<!-- 1990981163664&#45;&gt;1990978756032 -->
<g id="edge25" class="edge">
<title>1990981163664&#45;&gt;1990978756032</title>
<path fill="none" stroke="black" d="M1616.32,-27C1624.32,-27 1632.54,-27 1640.27,-27"/>
<polygon fill="black" stroke="black" points="1640,-30.5 1650,-27 1640,-23.5 1640,-30.5"/>
</g>
<!-- 1990981167312 -->
<g id="node12" class="node">
<title>1990981167312</title>
<polygon fill="white" stroke="black" points="1818.75,-81 1742,-81 1742,-45 1818.75,-45 1818.75,-81"/>
<text text-anchor="middle" x="1780.38" y="-57.98" font-family="Times New Roman,serif" font-size="12.00">Pilot Launch</text>
</g>
<!-- 1990981164576 -->
<g id="node29" class="node">
<title>1990981164576</title>
<ellipse fill="white" stroke="black" cx="1881.75" cy="-63" rx="27" ry="27"/>
</g>
<!-- 1990981167312&#45;&gt;1990981164576 -->
<g id="edge28" class="edge">
<title>1990981167312&#45;&gt;1990981164576</title>
<path fill="none" stroke="black" d="M1819.23,-63C1827.02,-63 1835.23,-63 1843.02,-63"/>
<polygon fill="black" stroke="black" points="1842.9,-66.5 1852.9,-63 1842.9,-59.5 1842.9,-66.5"/>
</g>
<!-- 1990981157184 -->
<g id="node13" class="node">
<title>1990981157184</title>
<polygon fill="white" stroke="black" points="2022.25,-81 1944.75,-81 1944.75,-45 2022.25,-45 2022.25,-81"/>
<text text-anchor="middle" x="1983.5" y="-57.98" font-family="Times New Roman,serif" font-size="12.00">Metric Track</text>
</g>
<!-- 1990981168032 -->
<g id="node30" class="node">
<title>1990981168032</title>
<ellipse fill="white" stroke="black" cx="2085.25" cy="-63" rx="27" ry="27"/>
</g>
<!-- 1990981157184&#45;&gt;1990981168032 -->
<g id="edge30" class="edge">
<title>1990981157184&#45;&gt;1990981168032</title>
<path fill="none" stroke="black" d="M2022.5,-63C2030.32,-63 2038.56,-63 2046.38,-63"/>
<polygon fill="black" stroke="black" points="2046.3,-66.5 2056.3,-63 2046.3,-59.5 2046.3,-66.5"/>
</g>
<!-- 1990981158960 -->
<g id="node14" class="node">
<title>1990981158960</title>
<polygon fill="white" stroke="black" points="2207.75,-81 2148.25,-81 2148.25,-45 2207.75,-45 2207.75,-81"/>
<text text-anchor="middle" x="2178" y="-57.98" font-family="Times New Roman,serif" font-size="12.00">Scale Up</text>
</g>
<!-- 1990981157904 -->
<g id="node31" class="node">
<title>1990981157904</title>
<ellipse fill="white" stroke="black" cx="2270.75" cy="-63" rx="27" ry="27"/>
</g>
<!-- 1990981158960&#45;&gt;1990981157904 -->
<g id="edge32" class="edge">
<title>1990981158960&#45;&gt;1990981157904</title>
<path fill="none" stroke="black" d="M2208.21,-63C2215.8,-63 2224.09,-63 2232.04,-63"/>
<polygon fill="black" stroke="black" points="2231.84,-66.5 2241.84,-63 2231.84,-59.5 2231.84,-66.5"/>
</g>
<!-- 1990981158528 -->
<g id="node15" class="node">
<title>1990981158528</title>
<polygon fill="white" stroke="black" points="2431.5,-81 2333.75,-81 2333.75,-45 2431.5,-45 2431.5,-81"/>
<text text-anchor="middle" x="2382.62" y="-57.98" font-family="Times New Roman,serif" font-size="12.00">Knowledge Feed</text>
</g>
<!-- 1990979535552 -->
<g id="node32" class="node">
<title>1990979535552</title>
<ellipse fill="white" stroke="black" cx="2498.5" cy="-63" rx="27" ry="27"/>
<ellipse fill="none" stroke="black" cx="2498.5" cy="-63" rx="31" ry="31"/>
<text text-anchor="start" x="2482" y="-47.6" font-family="Times New Roman,serif" font-size="32.00">■</text>
</g>
<!-- 1990981158528&#45;&gt;1990979535552 -->
<g id="edge34" class="edge">
<title>1990981158528&#45;&gt;1990979535552</title>
<path fill="none" stroke="black" d="M2431.92,-63C2439.89,-63 2448.09,-63 2455.88,-63"/>
<polygon fill="black" stroke="black" points="2455.79,-66.5 2465.79,-63 2455.79,-59.5 2455.79,-66.5"/>
</g>
<!-- 1990979539200 -->
<g id="node16" class="node">
<title>1990979539200</title>
<ellipse fill="white" stroke="black" cx="27" cy="-89" rx="27" ry="27"/>
<text text-anchor="start" x="9.75" y="-71.7" font-family="Times New Roman,serif" font-size="34.00">●</text>
</g>
<!-- 1990979539200&#45;&gt;1990980517280 -->
<g id="edge1" class="edge">
<title>1990979539200&#45;&gt;1990980517280</title>
<path fill="none" stroke="black" d="M54.33,-89C61.76,-89 70.06,-89 78.28,-89"/>
<polygon fill="black" stroke="black" points="78.24,-92.5 88.24,-89 78.24,-85.5 78.24,-92.5"/>
</g>
<!-- 1990980517472&#45;&gt;1990980512000 -->
<g id="edge5" class="edge">
<title>1990980517472&#45;&gt;1990980512000</title>
<path fill="none" stroke="black" d="M251.25,-125C261.61,-125 273.85,-125 285.74,-125"/>
<polygon fill="black" stroke="black" points="285.44,-128.5 295.44,-125 285.44,-121.5 285.44,-128.5"/>
</g>
<!-- 1990980517616&#45;&gt;1990980504656 -->
<g id="edge4" class="edge">
<title>1990980517616&#45;&gt;1990980504656</title>
<path fill="none" stroke="black" d="M251.25,-53C258.54,-53 266.77,-53 275.14,-53"/>
<polygon fill="black" stroke="black" points="275.07,-56.5 285.07,-53 275.07,-49.5 275.07,-56.5"/>
</g>
<!-- 1990978753728&#45;&gt;1990979654704 -->
<g id="edge9" class="edge">
<title>1990978753728&#45;&gt;1990979654704</title>
<path fill="none" stroke="black" d="M474.34,-115.73C482.51,-112.61 491.9,-109.04 501.08,-105.54"/>
<polygon fill="black" stroke="black" points="502.18,-108.87 510.28,-102.04 499.69,-102.32 502.18,-108.87"/>
</g>
<!-- 1990978760304&#45;&gt;1990979654704 -->
<g id="edge8" class="edge">
<title>1990978760304&#45;&gt;1990979654704</title>
<path fill="none" stroke="black" d="M474.34,-62.27C482.51,-65.39 491.9,-68.96 501.08,-72.46"/>
<polygon fill="black" stroke="black" points="499.69,-75.68 510.28,-75.96 502.18,-69.13 499.69,-75.68"/>
</g>
<!-- 1990979650624&#45;&gt;1990979654080 -->
<g id="edge11" class="edge">
<title>1990979650624&#45;&gt;1990979654080</title>
<path fill="none" stroke="black" d="M669.27,-89C676.75,-89 685.15,-89 693.51,-89"/>
<polygon fill="black" stroke="black" points="693.28,-92.5 703.28,-89 693.28,-85.5 693.28,-92.5"/>
</g>
<!-- 1990979663920&#45;&gt;1990979159728 -->
<g id="edge13" class="edge">
<title>1990979663920&#45;&gt;1990979159728</title>
<path fill="none" stroke="black" d="M870.78,-83.08C878.36,-81.34 886.91,-79.37 895.45,-77.41"/>
<polygon fill="black" stroke="black" points="896.14,-80.84 905.1,-75.19 894.57,-74.02 896.14,-80.84"/>
</g>
<!-- 1990979161648&#45;&gt;1990979161552 -->
<g id="edge15" class="edge">
<title>1990979161648&#45;&gt;1990979161552</title>
<path fill="none" stroke="black" d="M1075.59,-57.52C1083,-57.67 1091.32,-57.83 1099.65,-58"/>
<polygon fill="black" stroke="black" points="1099.35,-61.49 1109.42,-58.19 1099.49,-54.49 1099.35,-61.49"/>
</g>
<!-- 1990979656048&#45;&gt;1990979163616 -->
<g id="edge18" class="edge">
<title>1990979656048&#45;&gt;1990979163616</title>
<path fill="none" stroke="black" d="M1279.05,-75.66C1288.71,-80.91 1300.25,-87.18 1311.38,-93.23"/>
<polygon fill="black" stroke="black" points="1309.64,-96.27 1320.1,-97.97 1312.99,-90.12 1309.64,-96.27"/>
</g>
<!-- 1990979656048&#45;&gt;1990979158768 -->
<g id="edge17" class="edge">
<title>1990979656048&#45;&gt;1990979158768</title>
<path fill="none" stroke="black" d="M1282.12,-63C1291.56,-63 1302.46,-63 1312.9,-63"/>
<polygon fill="black" stroke="black" points="1312.89,-66.5 1322.89,-63 1312.89,-59.5 1312.89,-66.5"/>
</g>
<!-- 1990979164816&#45;&gt;1990979158144 -->
<g id="edge23" class="edge">
<title>1990979164816&#45;&gt;1990979158144</title>
<path fill="none" stroke="black" d="M1484.83,-99C1493.69,-99 1503.91,-99 1514.09,-99"/>
<polygon fill="black" stroke="black" points="1513.96,-102.5 1523.96,-99 1513.96,-95.5 1513.96,-102.5"/>
</g>
<!-- 1990979172496&#45;&gt;1990981163664 -->
<g id="edge22" class="edge">
<title>1990979172496&#45;&gt;1990981163664</title>
<path fill="none" stroke="black" d="M1484.83,-27C1492.17,-27 1500.46,-27 1508.88,-27"/>
<polygon fill="black" stroke="black" points="1508.84,-30.5 1518.84,-27 1508.84,-23.5 1508.84,-30.5"/>
</g>
<!-- 1990978756032&#45;&gt;1990981167312 -->
<g id="edge26" class="edge">
<title>1990978756032&#45;&gt;1990981167312</title>
<path fill="none" stroke="black" d="M1704.82,-35.99C1712.84,-38.9 1722.02,-42.22 1731.13,-45.52"/>
<polygon fill="black" stroke="black" points="1729.71,-48.73 1740.3,-48.85 1732.09,-42.15 1729.71,-48.73"/>
</g>
<!-- 1990978754640&#45;&gt;1990981167312 -->
<g id="edge27" class="edge">
<title>1990978754640&#45;&gt;1990981167312</title>
<path fill="none" stroke="black" d="M1704.82,-90.01C1712.84,-87.1 1722.02,-83.78 1731.13,-80.48"/>
<polygon fill="black" stroke="black" points="1732.09,-83.85 1740.3,-77.15 1729.71,-77.27 1732.09,-83.85"/>
</g>
<!-- 1990981164576&#45;&gt;1990981157184 -->
<g id="edge29" class="edge">
<title>1990981164576&#45;&gt;1990981157184</title>
<path fill="none" stroke="black" d="M1909.22,-63C1916.52,-63 1924.68,-63 1932.83,-63"/>
<polygon fill="black" stroke="black" points="1932.75,-66.5 1942.75,-63 1932.75,-59.5 1932.75,-66.5"/>
</g>
<!-- 1990981168032&#45;&gt;1990981158960 -->
<g id="edge31" class="edge">
<title>1990981168032&#45;&gt;1990981158960</title>
<path fill="none" stroke="black" d="M2112.5,-63C2120.04,-63 2128.45,-63 2136.63,-63"/>
<polygon fill="black" stroke="black" points="2136.43,-66.5 2146.43,-63 2136.43,-59.5 2136.43,-66.5"/>
</g>
<!-- 1990981157904&#45;&gt;1990981158528 -->
<g id="edge33" class="edge">
<title>1990981157904&#45;&gt;1990981158528</title>
<path fill="none" stroke="black" d="M2298.07,-63C2305.4,-63 2313.68,-63 2322.1,-63"/>
<polygon fill="black" stroke="black" points="2322.08,-66.5 2332.08,-63 2322.08,-59.5 2322.08,-66.5"/>
</g>
</g>
</svg>
