<?xml version="1.0" encoding="UTF-8" standalone="no"?>
<!DOCTYPE svg PUBLIC "-//W3C//DTD SVG 1.1//EN"
 "http://www.w3.org/Graphics/SVG/1.1/DTD/svg11.dtd">
<!-- Generated by graphviz version 11.0.0 (20240428.1522)
 -->
<!-- Title: imdf_net_1754051374.1577923 Pages: 1 -->
<svg width="3144pt" height="70pt"
 viewBox="0.00 0.00 3144.25 70.00" xmlns="http://www.w3.org/2000/svg" xmlns:xlink="http://www.w3.org/1999/xlink">
<g id="graph0" class="graph" transform="scale(1 1) rotate(0) translate(4 66)">
<title>imdf_net_1754051374.1577923</title>
<polygon fill="white" stroke="none" points="-4,4 -4,-66 3140.25,-66 3140.25,4 -4,4"/>
<!-- 1990971760640 -->
<g id="node1" class="node">
<title>1990971760640</title>
<polygon fill="white" stroke="black" points="160.75,-49 90,-49 90,-13 160.75,-13 160.75,-49"/>
<text text-anchor="middle" x="125.38" y="-25.98" font-family="Times New Roman,serif" font-size="12.00">Site Survey</text>
</g>
<!-- 1990971757856 -->
<g id="node17" class="node">
<title>1990971757856</title>
<ellipse fill="white" stroke="black" cx="223.75" cy="-31" rx="27" ry="27"/>
</g>
<!-- 1990971760640&#45;&gt;1990971757856 -->
<g id="edge2" class="edge">
<title>1990971760640&#45;&gt;1990971757856</title>
<path fill="none" stroke="black" d="M161.17,-31C168.9,-31 177.14,-31 184.98,-31"/>
<polygon fill="black" stroke="black" points="184.97,-34.5 194.97,-31 184.97,-27.5 184.97,-34.5"/>
</g>
<!-- 1990971764480 -->
<g id="node2" class="node">
<title>1990971764480</title>
<polygon fill="white" stroke="black" points="373.25,-49 286.75,-49 286.75,-13 373.25,-13 373.25,-49"/>
<text text-anchor="middle" x="330" y="-25.98" font-family="Times New Roman,serif" font-size="12.00">Design Layout</text>
</g>
<!-- 1990980574272 -->
<g id="node18" class="node">
<title>1990980574272</title>
<ellipse fill="white" stroke="black" cx="436.25" cy="-31" rx="27" ry="27"/>
</g>
<!-- 1990971764480&#45;&gt;1990980574272 -->
<g id="edge4" class="edge">
<title>1990971764480&#45;&gt;1990980574272</title>
<path fill="none" stroke="black" d="M373.7,-31C381.62,-31 389.84,-31 397.59,-31"/>
<polygon fill="black" stroke="black" points="397.39,-34.5 407.39,-31 397.39,-27.5 397.39,-34.5"/>
</g>
<!-- 1990980573600 -->
<g id="node3" class="node">
<title>1990980573600</title>
<polygon fill="white" stroke="black" points="579,-49 499.25,-49 499.25,-13 579,-13 579,-49"/>
<text text-anchor="middle" x="539.12" y="-25.98" font-family="Times New Roman,serif" font-size="12.00">System Build</text>
</g>
<!-- 1990978760688 -->
<g id="node19" class="node">
<title>1990978760688</title>
<ellipse fill="white" stroke="black" cx="642" cy="-31" rx="27" ry="27"/>
</g>
<!-- 1990980573600&#45;&gt;1990978760688 -->
<g id="edge6" class="edge">
<title>1990980573600&#45;&gt;1990978760688</title>
<path fill="none" stroke="black" d="M579.41,-31C587.28,-31 595.52,-31 603.32,-31"/>
<polygon fill="black" stroke="black" points="603.22,-34.5 613.22,-31 603.22,-27.5 603.22,-34.5"/>
</g>
<!-- 1990979542320 -->
<g id="node4" class="node">
<title>1990979542320</title>
<polygon fill="white" stroke="black" points="768.25,-49 705,-49 705,-13 768.25,-13 768.25,-49"/>
<text text-anchor="middle" x="736.62" y="-25.98" font-family="Times New Roman,serif" font-size="12.00">IoT Setup</text>
</g>
<!-- 1990976300832 -->
<g id="node20" class="node">
<title>1990976300832</title>
<ellipse fill="white" stroke="black" cx="831.25" cy="-31" rx="27" ry="27"/>
</g>
<!-- 1990979542320&#45;&gt;1990976300832 -->
<g id="edge8" class="edge">
<title>1990979542320&#45;&gt;1990976300832</title>
<path fill="none" stroke="black" d="M768.73,-31C776.42,-31 784.75,-31 792.72,-31"/>
<polygon fill="black" stroke="black" points="792.51,-34.5 802.51,-31 792.51,-27.5 792.51,-34.5"/>
</g>
<!-- 1990976293776 -->
<g id="node5" class="node">
<title>1990976293776</title>
<polygon fill="white" stroke="black" points="980.75,-49 894.25,-49 894.25,-13 980.75,-13 980.75,-49"/>
<text text-anchor="middle" x="937.5" y="-25.98" font-family="Times New Roman,serif" font-size="12.00">Crop Selection</text>
</g>
<!-- 1990976296080 -->
<g id="node21" class="node">
<title>1990976296080</title>
<ellipse fill="white" stroke="black" cx="1043.75" cy="-31" rx="27" ry="27"/>
</g>
<!-- 1990976293776&#45;&gt;1990976296080 -->
<g id="edge10" class="edge">
<title>1990976293776&#45;&gt;1990976296080</title>
<path fill="none" stroke="black" d="M981.2,-31C989.12,-31 997.34,-31 1005.09,-31"/>
<polygon fill="black" stroke="black" points="1004.89,-34.5 1014.89,-31 1004.89,-27.5 1004.89,-34.5"/>
</g>
<!-- 1990976296416 -->
<g id="node6" class="node">
<title>1990976296416</title>
<polygon fill="white" stroke="black" points="1188.75,-49 1106.75,-49 1106.75,-13 1188.75,-13 1188.75,-49"/>
<text text-anchor="middle" x="1147.75" y="-25.98" font-family="Times New Roman,serif" font-size="12.00">Energy Install</text>
</g>
<!-- 1990976296128 -->
<g id="node22" class="node">
<title>1990976296128</title>
<ellipse fill="white" stroke="black" cx="1251.75" cy="-31" rx="27" ry="27"/>
</g>
<!-- 1990976296416&#45;&gt;1990976296128 -->
<g id="edge12" class="edge">
<title>1990976296416&#45;&gt;1990976296128</title>
<path fill="none" stroke="black" d="M1189.06,-31C1196.98,-31 1205.25,-31 1213.07,-31"/>
<polygon fill="black" stroke="black" points="1212.98,-34.5 1222.98,-31 1212.98,-27.5 1212.98,-34.5"/>
</g>
<!-- 1990977088704 -->
<g id="node7" class="node">
<title>1990977088704</title>
<polygon fill="white" stroke="black" points="1392.25,-49 1314.75,-49 1314.75,-13 1392.25,-13 1392.25,-49"/>
<text text-anchor="middle" x="1353.5" y="-25.98" font-family="Times New Roman,serif" font-size="12.00">Nutrient Mix</text>
</g>
<!-- 1990977087600 -->
<g id="node23" class="node">
<title>1990977087600</title>
<ellipse fill="white" stroke="black" cx="1455.25" cy="-31" rx="27" ry="27"/>
</g>
<!-- 1990977088704&#45;&gt;1990977087600 -->
<g id="edge14" class="edge">
<title>1990977088704&#45;&gt;1990977087600</title>
<path fill="none" stroke="black" d="M1392.5,-31C1400.32,-31 1408.56,-31 1416.38,-31"/>
<polygon fill="black" stroke="black" points="1416.3,-34.5 1426.3,-31 1416.3,-27.5 1416.3,-34.5"/>
</g>
<!-- 1990977086352 -->
<g id="node8" class="node">
<title>1990977086352</title>
<polygon fill="white" stroke="black" points="1592.75,-49 1518.25,-49 1518.25,-13 1592.75,-13 1592.75,-49"/>
<text text-anchor="middle" x="1555.5" y="-25.98" font-family="Times New Roman,serif" font-size="12.00">Pest Control</text>
</g>
<!-- 1990977083328 -->
<g id="node24" class="node">
<title>1990977083328</title>
<ellipse fill="white" stroke="black" cx="1655.75" cy="-31" rx="27" ry="27"/>
</g>
<!-- 1990977086352&#45;&gt;1990977083328 -->
<g id="edge16" class="edge">
<title>1990977086352&#45;&gt;1990977083328</title>
<path fill="none" stroke="black" d="M1593.08,-31C1600.84,-31 1609.04,-31 1616.84,-31"/>
<polygon fill="black" stroke="black" points="1616.75,-34.5 1626.75,-31 1616.75,-27.5 1616.75,-34.5"/>
</g>
<!-- 1990977085488 -->
<g id="node9" class="node">
<title>1990977085488</title>
<polygon fill="white" stroke="black" points="1800.75,-49 1718.75,-49 1718.75,-13 1800.75,-13 1800.75,-49"/>
<text text-anchor="middle" x="1759.75" y="-25.98" font-family="Times New Roman,serif" font-size="12.00">Staff Training</text>
</g>
<!-- 1990977082704 -->
<g id="node25" class="node">
<title>1990977082704</title>
<ellipse fill="white" stroke="black" cx="1863.75" cy="-31" rx="27" ry="27"/>
</g>
<!-- 1990977085488&#45;&gt;1990977082704 -->
<g id="edge18" class="edge">
<title>1990977085488&#45;&gt;1990977082704</title>
<path fill="none" stroke="black" d="M1801.06,-31C1808.98,-31 1817.25,-31 1825.07,-31"/>
<polygon fill="black" stroke="black" points="1824.98,-34.5 1834.98,-31 1824.98,-27.5 1824.98,-34.5"/>
</g>
<!-- 1990977088800 -->
<g id="node10" class="node">
<title>1990977088800</title>
<polygon fill="white" stroke="black" points="1995.25,-49 1926.75,-49 1926.75,-13 1995.25,-13 1995.25,-49"/>
<text text-anchor="middle" x="1961" y="-25.98" font-family="Times New Roman,serif" font-size="12.00">Pilot Cycle</text>
</g>
<!-- 1990977082128 -->
<g id="node26" class="node">
<title>1990977082128</title>
<ellipse fill="white" stroke="black" cx="2058.25" cy="-31" rx="27" ry="27"/>
</g>
<!-- 1990977088800&#45;&gt;1990977082128 -->
<g id="edge20" class="edge">
<title>1990977088800&#45;&gt;1990977082128</title>
<path fill="none" stroke="black" d="M1995.58,-31C2003.35,-31 2011.68,-31 2019.61,-31"/>
<polygon fill="black" stroke="black" points="2019.33,-34.5 2029.33,-31 2019.33,-27.5 2019.33,-34.5"/>
</g>
<!-- 1990977091104 -->
<g id="node11" class="node">
<title>1990977091104</title>
<polygon fill="white" stroke="black" points="2201,-49 2121.25,-49 2121.25,-13 2201,-13 2201,-49"/>
<text text-anchor="middle" x="2161.12" y="-25.98" font-family="Times New Roman,serif" font-size="12.00">Data Monitor</text>
</g>
<!-- 1990977080544 -->
<g id="node27" class="node">
<title>1990977080544</title>
<ellipse fill="white" stroke="black" cx="2264" cy="-31" rx="27" ry="27"/>
</g>
<!-- 1990977091104&#45;&gt;1990977080544 -->
<g id="edge22" class="edge">
<title>1990977091104&#45;&gt;1990977080544</title>
<path fill="none" stroke="black" d="M2201.41,-31C2209.28,-31 2217.52,-31 2225.32,-31"/>
<polygon fill="black" stroke="black" points="2225.22,-34.5 2235.22,-31 2225.22,-27.5 2225.22,-34.5"/>
</g>
<!-- 1990977086544 -->
<g id="node12" class="node">
<title>1990977086544</title>
<polygon fill="white" stroke="black" points="2428.5,-49 2327,-49 2327,-13 2428.5,-13 2428.5,-49"/>
<text text-anchor="middle" x="2377.75" y="-25.98" font-family="Times New Roman,serif" font-size="12.00">Regulation Check</text>
</g>
<!-- 1990977081408 -->
<g id="node28" class="node">
<title>1990977081408</title>
<ellipse fill="white" stroke="black" cx="2491.5" cy="-31" rx="27" ry="27"/>
</g>
<!-- 1990977086544&#45;&gt;1990977081408 -->
<g id="edge24" class="edge">
<title>1990977086544&#45;&gt;1990977081408</title>
<path fill="none" stroke="black" d="M2428.74,-31C2436.85,-31 2445.12,-31 2452.86,-31"/>
<polygon fill="black" stroke="black" points="2452.61,-34.5 2462.61,-31 2452.61,-27.5 2452.61,-34.5"/>
</g>
<!-- 1990975905120 -->
<g id="node13" class="node">
<title>1990975905120</title>
<polygon fill="white" stroke="black" points="2628.25,-49 2554.5,-49 2554.5,-13 2628.25,-13 2628.25,-49"/>
<text text-anchor="middle" x="2591.38" y="-25.98" font-family="Times New Roman,serif" font-size="12.00">Market Plan</text>
</g>
<!-- 1990975902864 -->
<g id="node29" class="node">
<title>1990975902864</title>
<ellipse fill="white" stroke="black" cx="2691.25" cy="-31" rx="27" ry="27"/>
</g>
<!-- 1990975905120&#45;&gt;1990975902864 -->
<g id="edge26" class="edge">
<title>1990975905120&#45;&gt;1990975902864</title>
<path fill="none" stroke="black" d="M2628.54,-31C2636.44,-31 2644.83,-31 2652.78,-31"/>
<polygon fill="black" stroke="black" points="2652.5,-34.5 2662.5,-31 2652.5,-27.5 2652.5,-34.5"/>
</g>
<!-- 1990975906464 -->
<g id="node14" class="node">
<title>1990975906464</title>
<polygon fill="white" stroke="black" points="2831,-49 2754.25,-49 2754.25,-13 2831,-13 2831,-49"/>
<text text-anchor="middle" x="2792.62" y="-25.98" font-family="Times New Roman,serif" font-size="12.00">Launch Prep</text>
</g>
<!-- 1990975899600 -->
<g id="node30" class="node">
<title>1990975899600</title>
<ellipse fill="white" stroke="black" cx="2894" cy="-31" rx="27" ry="27"/>
</g>
<!-- 1990975906464&#45;&gt;1990975899600 -->
<g id="edge28" class="edge">
<title>1990975906464&#45;&gt;1990975899600</title>
<path fill="none" stroke="black" d="M2831.48,-31C2839.27,-31 2847.48,-31 2855.27,-31"/>
<polygon fill="black" stroke="black" points="2855.15,-34.5 2865.15,-31 2855.15,-27.5 2855.15,-34.5"/>
</g>
<!-- 1990975913376 -->
<g id="node15" class="node">
<title>1990975913376</title>
<polygon fill="white" stroke="black" points="3038.25,-49 2957,-49 2957,-13 3038.25,-13 3038.25,-49"/>
<text text-anchor="middle" x="2997.62" y="-25.98" font-family="Times New Roman,serif" font-size="12.00">Supply Chain</text>
</g>
<!-- 1990981159920 -->
<g id="node31" class="node">
<title>1990981159920</title>
<ellipse fill="white" stroke="black" cx="3105.25" cy="-31" rx="27" ry="27"/>
<ellipse fill="none" stroke="black" cx="3105.25" cy="-31" rx="31" ry="31"/>
<text text-anchor="start" x="3088.75" y="-15.6" font-family="Times New Roman,serif" font-size="32.00">■</text>
</g>
<!-- 1990975913376&#45;&gt;1990981159920 -->
<g id="edge30" class="edge">
<title>1990975913376&#45;&gt;1990981159920</title>
<path fill="none" stroke="black" d="M3038.56,-31C3046.41,-31 3054.66,-31 3062.57,-31"/>
<polygon fill="black" stroke="black" points="3062.3,-34.5 3072.3,-31 3062.3,-27.5 3062.3,-34.5"/>
</g>
<!-- 1990981159008 -->
<g id="node16" class="node">
<title>1990981159008</title>
<ellipse fill="white" stroke="black" cx="27" cy="-31" rx="27" ry="27"/>
<text text-anchor="start" x="9.75" y="-13.7" font-family="Times New Roman,serif" font-size="34.00">●</text>
</g>
<!-- 1990981159008&#45;&gt;1990971760640 -->
<g id="edge1" class="edge">
<title>1990981159008&#45;&gt;1990971760640</title>
<path fill="none" stroke="black" d="M54.33,-31C61.76,-31 70.06,-31 78.28,-31"/>
<polygon fill="black" stroke="black" points="78.24,-34.5 88.24,-31 78.24,-27.5 78.24,-34.5"/>
</g>
<!-- 1990971757856&#45;&gt;1990971764480 -->
<g id="edge3" class="edge">
<title>1990971757856&#45;&gt;1990971764480</title>
<path fill="none" stroke="black" d="M251.06,-31C258.44,-31 266.74,-31 275.11,-31"/>
<polygon fill="black" stroke="black" points="274.96,-34.5 284.96,-31 274.96,-27.5 274.96,-34.5"/>
</g>
<!-- 1990980574272&#45;&gt;1990980573600 -->
<g id="edge5" class="edge">
<title>1990980574272&#45;&gt;1990980573600</title>
<path fill="none" stroke="black" d="M463.49,-31C470.96,-31 479.35,-31 487.74,-31"/>
<polygon fill="black" stroke="black" points="487.58,-34.5 497.58,-31 487.58,-27.5 487.58,-34.5"/>
</g>
<!-- 1990978760688&#45;&gt;1990979542320 -->
<g id="edge7" class="edge">
<title>1990978760688&#45;&gt;1990979542320</title>
<path fill="none" stroke="black" d="M669.29,-31C676.78,-31 685.14,-31 693.32,-31"/>
<polygon fill="black" stroke="black" points="693.16,-34.5 703.16,-31 693.16,-27.5 693.16,-34.5"/>
</g>
<!-- 1990976300832&#45;&gt;1990976293776 -->
<g id="edge9" class="edge">
<title>1990976300832&#45;&gt;1990976293776</title>
<path fill="none" stroke="black" d="M858.56,-31C865.94,-31 874.24,-31 882.61,-31"/>
<polygon fill="black" stroke="black" points="882.46,-34.5 892.46,-31 882.46,-27.5 882.46,-34.5"/>
</g>
<!-- 1990976296080&#45;&gt;1990976296416 -->
<g id="edge11" class="edge">
<title>1990976296080&#45;&gt;1990976296416</title>
<path fill="none" stroke="black" d="M1071.02,-31C1078.4,-31 1086.7,-31 1095.03,-31"/>
<polygon fill="black" stroke="black" points="1094.8,-34.5 1104.8,-31 1094.8,-27.5 1094.8,-34.5"/>
</g>
<!-- 1990976296128&#45;&gt;1990977088704 -->
<g id="edge13" class="edge">
<title>1990976296128&#45;&gt;1990977088704</title>
<path fill="none" stroke="black" d="M1279.22,-31C1286.52,-31 1294.68,-31 1302.83,-31"/>
<polygon fill="black" stroke="black" points="1302.75,-34.5 1312.75,-31 1302.75,-27.5 1302.75,-34.5"/>
</g>
<!-- 1990977087600&#45;&gt;1990977086352 -->
<g id="edge15" class="edge">
<title>1990977087600&#45;&gt;1990977086352</title>
<path fill="none" stroke="black" d="M1482.58,-31C1489.92,-31 1498.13,-31 1506.31,-31"/>
<polygon fill="black" stroke="black" points="1506.24,-34.5 1516.24,-31 1506.24,-27.5 1506.24,-34.5"/>
</g>
<!-- 1990977083328&#45;&gt;1990977085488 -->
<g id="edge17" class="edge">
<title>1990977083328&#45;&gt;1990977085488</title>
<path fill="none" stroke="black" d="M1683.02,-31C1690.4,-31 1698.7,-31 1707.03,-31"/>
<polygon fill="black" stroke="black" points="1706.8,-34.5 1716.8,-31 1706.8,-27.5 1706.8,-34.5"/>
</g>
<!-- 1990977082704&#45;&gt;1990977088800 -->
<g id="edge19" class="edge">
<title>1990977082704&#45;&gt;1990977088800</title>
<path fill="none" stroke="black" d="M1891.03,-31C1898.44,-31 1906.72,-31 1914.9,-31"/>
<polygon fill="black" stroke="black" points="1914.78,-34.5 1924.78,-31 1914.78,-27.5 1914.78,-34.5"/>
</g>
<!-- 1990977082128&#45;&gt;1990977091104 -->
<g id="edge21" class="edge">
<title>1990977082128&#45;&gt;1990977091104</title>
<path fill="none" stroke="black" d="M2085.49,-31C2092.96,-31 2101.35,-31 2109.74,-31"/>
<polygon fill="black" stroke="black" points="2109.58,-34.5 2119.58,-31 2109.58,-27.5 2109.58,-34.5"/>
</g>
<!-- 1990977080544&#45;&gt;1990977086544 -->
<g id="edge23" class="edge">
<title>1990977080544&#45;&gt;1990977086544</title>
<path fill="none" stroke="black" d="M2291.48,-31C2298.76,-31 2306.97,-31 2315.34,-31"/>
<polygon fill="black" stroke="black" points="2315.28,-34.5 2325.28,-31 2315.28,-27.5 2315.28,-34.5"/>
</g>
<!-- 1990977081408&#45;&gt;1990975905120 -->
<g id="edge25" class="edge">
<title>1990977081408&#45;&gt;1990975905120</title>
<path fill="none" stroke="black" d="M2518.99,-31C2526.37,-31 2534.63,-31 2542.84,-31"/>
<polygon fill="black" stroke="black" points="2542.8,-34.5 2552.8,-31 2542.8,-27.5 2542.8,-34.5"/>
</g>
<!-- 1990975902864&#45;&gt;1990975906464 -->
<g id="edge27" class="edge">
<title>1990975902864&#45;&gt;1990975906464</title>
<path fill="none" stroke="black" d="M2718.62,-31C2725.97,-31 2734.19,-31 2742.4,-31"/>
<polygon fill="black" stroke="black" points="2742.39,-34.5 2752.39,-31 2742.39,-27.5 2742.39,-34.5"/>
</g>
<!-- 1990975899600&#45;&gt;1990975913376 -->
<g id="edge29" class="edge">
<title>1990975899600&#45;&gt;1990975913376</title>
<path fill="none" stroke="black" d="M2921.44,-31C2928.71,-31 2936.86,-31 2945.03,-31"/>
<polygon fill="black" stroke="black" points="2945.01,-34.5 2955.01,-31 2945.01,-27.5 2945.01,-34.5"/>
</g>
</g>
</svg>
