<?xml version="1.0" encoding="UTF-8" standalone="no"?>
<!DOCTYPE svg PUBLIC "-//W3C//DTD SVG 1.1//EN"
 "http://www.w3.org/Graphics/SVG/1.1/DTD/svg11.dtd">
<!-- Generated by graphviz version 11.0.0 (20240428.1522)
 -->
<!-- Title: imdf_net_1754051418.41617 Pages: 1 -->
<svg width="3323pt" height="381pt"
 viewBox="0.00 0.00 3323.25 381.00" xmlns="http://www.w3.org/2000/svg" xmlns:xlink="http://www.w3.org/1999/xlink">
<g id="graph0" class="graph" transform="scale(1 1) rotate(0) translate(4 377)">
<title>imdf_net_1754051418.41617</title>
<polygon fill="white" stroke="none" points="-4,4 -4,-377 3319.25,-377 3319.25,4 -4,4"/>
<!-- 1990978186816 -->
<g id="node1" class="node">
<title>1990978186816</title>
<polygon fill="white" stroke="black" points="174.25,-328 90,-328 90,-292 174.25,-292 174.25,-328"/>
<text text-anchor="middle" x="132.12" y="-304.98" font-family="Times New Roman,serif" font-size="12.00">Artifact Intake</text>
</g>
<!-- 1990980439696 -->
<g id="node28" class="node">
<title>1990980439696</title>
<ellipse fill="white" stroke="black" cx="237.25" cy="-346" rx="27" ry="27"/>
</g>
<!-- 1990978186816&#45;&gt;1990980439696 -->
<g id="edge3" class="edge">
<title>1990978186816&#45;&gt;1990980439696</title>
<path fill="none" stroke="black" d="M174.48,-324.44C183.13,-327.45 192.17,-330.61 200.6,-333.55"/>
<polygon fill="black" stroke="black" points="199.19,-336.77 209.79,-336.76 201.5,-330.16 199.19,-336.77"/>
</g>
<!-- 1990978832864 -->
<g id="node29" class="node">
<title>1990978832864</title>
<ellipse fill="white" stroke="black" cx="237.25" cy="-274" rx="27" ry="27"/>
</g>
<!-- 1990978186816&#45;&gt;1990978832864 -->
<g id="edge2" class="edge">
<title>1990978186816&#45;&gt;1990978832864</title>
<path fill="none" stroke="black" d="M174.48,-295.56C183.13,-292.55 192.17,-289.39 200.6,-286.45"/>
<polygon fill="black" stroke="black" points="201.5,-289.84 209.79,-283.24 199.19,-283.23 201.5,-289.84"/>
</g>
<!-- 1990980038976 -->
<g id="node2" class="node">
<title>1990980038976</title>
<polygon fill="white" stroke="black" points="374,-292 304.75,-292 304.75,-256 374,-256 374,-292"/>
<text text-anchor="middle" x="339.38" y="-268.98" font-family="Times New Roman,serif" font-size="12.00">Initial Scan</text>
</g>
<!-- 1990978837904 -->
<g id="node31" class="node">
<title>1990978837904</title>
<ellipse fill="white" stroke="black" cx="441.5" cy="-274" rx="27" ry="27"/>
</g>
<!-- 1990980038976&#45;&gt;1990978837904 -->
<g id="edge7" class="edge">
<title>1990980038976&#45;&gt;1990978837904</title>
<path fill="none" stroke="black" d="M374.27,-274C383.45,-274 393.43,-274 402.8,-274"/>
<polygon fill="black" stroke="black" points="402.72,-277.5 412.72,-274 402.72,-270.5 402.72,-277.5"/>
</g>
<!-- 1990980439888 -->
<g id="node3" class="node">
<title>1990980439888</title>
<polygon fill="white" stroke="black" points="378.5,-364 300.25,-364 300.25,-328 378.5,-328 378.5,-364"/>
<text text-anchor="middle" x="339.38" y="-340.98" font-family="Times New Roman,serif" font-size="12.00">Material Test</text>
</g>
<!-- 1990980033216 -->
<g id="node30" class="node">
<title>1990980033216</title>
<ellipse fill="white" stroke="black" cx="441.5" cy="-346" rx="27" ry="27"/>
</g>
<!-- 1990980439888&#45;&gt;1990980033216 -->
<g id="edge6" class="edge">
<title>1990980439888&#45;&gt;1990980033216</title>
<path fill="none" stroke="black" d="M378.8,-346C386.64,-346 394.88,-346 402.69,-346"/>
<polygon fill="black" stroke="black" points="402.61,-349.5 412.61,-346 402.61,-342.5 402.61,-349.5"/>
</g>
<!-- 1990981403232 -->
<g id="node4" class="node">
<title>1990981403232</title>
<polygon fill="black" stroke="black" points="558.5,-328 504.5,-328 504.5,-292 558.5,-292 558.5,-328"/>
</g>
<!-- 1990978750752 -->
<g id="node32" class="node">
<title>1990978750752</title>
<ellipse fill="white" stroke="black" cx="621.5" cy="-346" rx="27" ry="27"/>
</g>
<!-- 1990981403232&#45;&gt;1990978750752 -->
<g id="edge11" class="edge">
<title>1990981403232&#45;&gt;1990978750752</title>
<path fill="none" stroke="black" d="M558.9,-320.8C567.25,-324.22 576.62,-328.05 585.47,-331.67"/>
<polygon fill="black" stroke="black" points="583.94,-334.83 594.52,-335.37 586.59,-328.35 583.94,-334.83"/>
</g>
<!-- 1990978475344 -->
<g id="node33" class="node">
<title>1990978475344</title>
<ellipse fill="white" stroke="black" cx="621.5" cy="-274" rx="27" ry="27"/>
</g>
<!-- 1990981403232&#45;&gt;1990978475344 -->
<g id="edge10" class="edge">
<title>1990981403232&#45;&gt;1990978475344</title>
<path fill="none" stroke="black" d="M558.9,-299.2C567.25,-295.78 576.62,-291.95 585.47,-288.33"/>
<polygon fill="black" stroke="black" points="586.59,-291.65 594.52,-284.63 583.94,-285.17 586.59,-291.65"/>
</g>
<!-- 1990978760784 -->
<g id="node5" class="node">
<title>1990978760784</title>
<polygon fill="white" stroke="black" points="789.75,-364 684.5,-364 684.5,-328 789.75,-328 789.75,-364"/>
<text text-anchor="middle" x="737.12" y="-340.98" font-family="Times New Roman,serif" font-size="12.00">Provenance Check</text>
</g>
<!-- 1990979169472 -->
<g id="node35" class="node">
<title>1990979169472</title>
<ellipse fill="white" stroke="black" cx="852.75" cy="-346" rx="27" ry="27"/>
</g>
<!-- 1990978760784&#45;&gt;1990979169472 -->
<g id="edge14" class="edge">
<title>1990978760784&#45;&gt;1990979169472</title>
<path fill="none" stroke="black" d="M789.95,-346C798.11,-346 806.41,-346 814.17,-346"/>
<polygon fill="black" stroke="black" points="813.93,-349.5 823.93,-346 813.93,-342.5 813.93,-349.5"/>
</g>
<!-- 1990978471024 -->
<g id="node6" class="node">
<title>1990978471024</title>
<polygon fill="white" stroke="black" points="780.38,-292 693.88,-292 693.88,-256 780.38,-256 780.38,-292"/>
<text text-anchor="middle" x="737.12" y="-268.98" font-family="Times New Roman,serif" font-size="12.00">Style Compare</text>
</g>
<!-- 1990978755696 -->
<g id="node34" class="node">
<title>1990978755696</title>
<ellipse fill="white" stroke="black" cx="852.75" cy="-274" rx="27" ry="27"/>
</g>
<!-- 1990978471024&#45;&gt;1990978755696 -->
<g id="edge15" class="edge">
<title>1990978471024&#45;&gt;1990978755696</title>
<path fill="none" stroke="black" d="M780.76,-274C791.65,-274 803.28,-274 813.91,-274"/>
<polygon fill="black" stroke="black" points="813.88,-277.5 823.88,-274 813.88,-270.5 813.88,-277.5"/>
</g>
<!-- 1990979174224 -->
<g id="node7" class="node">
<title>1990979174224</title>
<polygon fill="black" stroke="black" points="969.75,-328 915.75,-328 915.75,-292 969.75,-292 969.75,-328"/>
</g>
<!-- 1990978480336 -->
<g id="node36" class="node">
<title>1990978480336</title>
<ellipse fill="white" stroke="black" cx="1032.75" cy="-310" rx="27" ry="27"/>
</g>
<!-- 1990979174224&#45;&gt;1990978480336 -->
<g id="edge18" class="edge">
<title>1990979174224&#45;&gt;1990978480336</title>
<path fill="none" stroke="black" d="M970.15,-310C977.64,-310 985.93,-310 993.95,-310"/>
<polygon fill="black" stroke="black" points="993.85,-313.5 1003.85,-310 993.85,-306.5 993.85,-313.5"/>
</g>
<!-- 1990978175680 -->
<g id="node8" class="node">
<title>1990978175680</title>
<polygon fill="white" stroke="black" points="1172.5,-305 1095.75,-305 1095.75,-269 1172.5,-269 1172.5,-305"/>
<text text-anchor="middle" x="1134.12" y="-281.98" font-family="Times New Roman,serif" font-size="12.00">Expert Panel</text>
</g>
<!-- 1990978339568 -->
<g id="node37" class="node">
<title>1990978339568</title>
<ellipse fill="white" stroke="black" cx="1235.5" cy="-271" rx="27" ry="27"/>
</g>
<!-- 1990978175680&#45;&gt;1990978339568 -->
<g id="edge20" class="edge">
<title>1990978175680&#45;&gt;1990978339568</title>
<path fill="none" stroke="black" d="M1172.98,-280.91C1180.94,-279.62 1189.33,-278.27 1197.27,-276.99"/>
<polygon fill="black" stroke="black" points="1197.66,-280.48 1206.97,-275.43 1196.54,-273.57 1197.66,-280.48"/>
</g>
<!-- 1990971920592 -->
<g id="node9" class="node">
<title>1990971920592</title>
<polygon fill="black" stroke="black" points="1352.5,-190 1298.5,-190 1298.5,-154 1352.5,-154 1352.5,-190"/>
</g>
<!-- 1990977861248 -->
<g id="node39" class="node">
<title>1990977861248</title>
<ellipse fill="white" stroke="black" cx="1415.5" cy="-149" rx="27" ry="27"/>
</g>
<!-- 1990971920592&#45;&gt;1990977861248 -->
<g id="edge25" class="edge">
<title>1990971920592&#45;&gt;1990977861248</title>
<path fill="none" stroke="black" d="M1352.9,-165.1C1360.77,-163.04 1369.53,-160.75 1377.93,-158.56"/>
<polygon fill="black" stroke="black" points="1378.77,-161.96 1387.56,-156.04 1377,-155.18 1378.77,-161.96"/>
</g>
<!-- 1990971930048 -->
<g id="node10" class="node">
<title>1990971930048</title>
<polygon fill="black" stroke="black" points="1352.5,-289 1298.5,-289 1298.5,-253 1352.5,-253 1352.5,-289"/>
</g>
<!-- 1990979544096 -->
<g id="node38" class="node">
<title>1990979544096</title>
<ellipse fill="white" stroke="black" cx="1415.5" cy="-293" rx="27" ry="27"/>
</g>
<!-- 1990971930048&#45;&gt;1990979544096 -->
<g id="edge24" class="edge">
<title>1990971930048&#45;&gt;1990979544096</title>
<path fill="none" stroke="black" d="M1352.9,-277.6C1360.77,-279.57 1369.53,-281.76 1377.93,-283.86"/>
<polygon fill="black" stroke="black" points="1377,-287.23 1387.55,-286.26 1378.7,-280.44 1377,-287.23"/>
</g>
<!-- 1990978912432 -->
<g id="node40" class="node">
<title>1990978912432</title>
<ellipse fill="white" stroke="black" cx="1415.5" cy="-221" rx="27" ry="27"/>
</g>
<!-- 1990971930048&#45;&gt;1990978912432 -->
<g id="edge23" class="edge">
<title>1990971930048&#45;&gt;1990978912432</title>
<path fill="none" stroke="black" d="M1352.9,-256C1361.9,-250.89 1372.07,-245.11 1381.52,-239.74"/>
<polygon fill="black" stroke="black" points="1383.12,-242.86 1390.08,-234.87 1379.66,-236.77 1383.12,-242.86"/>
</g>
<!-- 1990978056704 -->
<g id="node11" class="node">
<title>1990978056704</title>
<polygon fill="black" stroke="black" points="1558.12,-117 1504.12,-117 1504.12,-81 1558.12,-81 1558.12,-117"/>
</g>
<!-- 1990977218720 -->
<g id="node41" class="node">
<title>1990977218720</title>
<ellipse fill="white" stroke="black" cx="1646.75" cy="-27" rx="27" ry="27"/>
</g>
<!-- 1990978056704&#45;&gt;1990977218720 -->
<g id="edge32" class="edge">
<title>1990978056704&#45;&gt;1990977218720</title>
<path fill="none" stroke="black" d="M1558.48,-82.3C1575.07,-71.79 1596.59,-58.15 1614.11,-47.05"/>
<polygon fill="black" stroke="black" points="1615.52,-50.3 1622.09,-41.99 1611.77,-44.39 1615.52,-50.3"/>
</g>
<!-- 1990978051424 -->
<g id="node43" class="node">
<title>1990978051424</title>
<ellipse fill="white" stroke="black" cx="1646.75" cy="-99" rx="27" ry="27"/>
</g>
<!-- 1990978056704&#45;&gt;1990978051424 -->
<g id="edge30" class="edge">
<title>1990978056704&#45;&gt;1990978051424</title>
<path fill="none" stroke="black" d="M1558.48,-99C1573.25,-99 1591.92,-99 1608.2,-99"/>
<polygon fill="black" stroke="black" points="1608.03,-102.5 1618.03,-99 1608.03,-95.5 1608.03,-102.5"/>
</g>
<!-- 1990978912384 -->
<g id="node12" class="node">
<title>1990978912384</title>
<polygon fill="white" stroke="black" points="1583.75,-239 1478.5,-239 1478.5,-203 1583.75,-203 1583.75,-239"/>
<text text-anchor="middle" x="1531.12" y="-215.97" font-family="Times New Roman,serif" font-size="12.00">Provenance Check</text>
</g>
<!-- 1990971932544 -->
<g id="node44" class="node">
<title>1990971932544</title>
<ellipse fill="white" stroke="black" cx="1646.75" cy="-221" rx="27" ry="27"/>
</g>
<!-- 1990978912384&#45;&gt;1990971932544 -->
<g id="edge31" class="edge">
<title>1990978912384&#45;&gt;1990971932544</title>
<path fill="none" stroke="black" d="M1583.95,-221C1592.11,-221 1600.41,-221 1608.17,-221"/>
<polygon fill="black" stroke="black" points="1607.93,-224.5 1617.93,-221 1607.93,-217.5 1607.93,-224.5"/>
</g>
<!-- 1990977853088 -->
<g id="node13" class="node">
<title>1990977853088</title>
<polygon fill="white" stroke="black" points="1574.38,-311 1487.88,-311 1487.88,-275 1574.38,-275 1574.38,-311"/>
<text text-anchor="middle" x="1531.12" y="-287.98" font-family="Times New Roman,serif" font-size="12.00">Style Compare</text>
</g>
<!-- 1990979545008 -->
<g id="node45" class="node">
<title>1990979545008</title>
<ellipse fill="white" stroke="black" cx="1646.75" cy="-293" rx="27" ry="27"/>
</g>
<!-- 1990977853088&#45;&gt;1990979545008 -->
<g id="edge34" class="edge">
<title>1990977853088&#45;&gt;1990979545008</title>
<path fill="none" stroke="black" d="M1574.76,-293C1585.65,-293 1597.28,-293 1607.91,-293"/>
<polygon fill="black" stroke="black" points="1607.88,-296.5 1617.88,-293 1607.88,-289.5 1607.88,-296.5"/>
</g>
<!-- 1990978060016 -->
<g id="node14" class="node">
<title>1990978060016</title>
<polygon fill="black" stroke="black" points="1976.25,-175 1922.25,-175 1922.25,-139 1976.25,-139 1976.25,-175"/>
</g>
<!-- 1990977863504 -->
<g id="node42" class="node">
<title>1990977863504</title>
<ellipse fill="white" stroke="black" cx="2039.25" cy="-126" rx="27" ry="27"/>
</g>
<!-- 1990978060016&#45;&gt;1990977863504 -->
<g id="edge33" class="edge">
<title>1990978060016&#45;&gt;1990977863504</title>
<path fill="none" stroke="black" d="M1976.65,-147.7C1984.84,-144.81 1994,-141.59 2002.7,-138.52"/>
<polygon fill="black" stroke="black" points="2003.68,-141.89 2011.95,-135.27 2001.35,-135.29 2003.68,-141.89"/>
</g>
<!-- 1990971925584 -->
<g id="node15" class="node">
<title>1990971925584</title>
<polygon fill="black" stroke="black" points="1780,-311 1726,-311 1726,-275 1780,-275 1780,-311"/>
</g>
<!-- 1990971925584&#45;&gt;1990978480336 -->
<g id="edge40" class="edge">
<title>1990971925584&#45;&gt;1990978480336</title>
<path fill="none" stroke="black" d="M1725.6,-307.54C1710.78,-315.09 1691.7,-323.79 1673.75,-329 1612.76,-346.69 1595.63,-348 1532.12,-348 1234.5,-348 1234.5,-348 1234.5,-348 1176.07,-348 1109.71,-332.26 1069.82,-321.04"/>
<polygon fill="black" stroke="black" points="1070.85,-317.7 1060.27,-318.29 1068.91,-324.42 1070.85,-317.7"/>
</g>
<!-- 1990977211088 -->
<g id="node16" class="node">
<title>1990977211088</title>
<polygon fill="white" stroke="black" points="2185,-144 2102.25,-144 2102.25,-108 2185,-108 2185,-144"/>
<text text-anchor="middle" x="2143.62" y="-120.97" font-family="Times New Roman,serif" font-size="12.00">Legal Review</text>
</g>
<!-- 1990977213104 -->
<g id="node46" class="node">
<title>1990977213104</title>
<ellipse fill="white" stroke="black" cx="2248" cy="-126" rx="27" ry="27"/>
</g>
<!-- 1990977211088&#45;&gt;1990977213104 -->
<g id="edge43" class="edge">
<title>1990977211088&#45;&gt;1990977213104</title>
<path fill="none" stroke="black" d="M2185.38,-126C2193.23,-126 2201.42,-126 2209.17,-126"/>
<polygon fill="black" stroke="black" points="2208.99,-129.5 2218.99,-126 2208.99,-122.5 2208.99,-129.5"/>
</g>
<!-- 1990978050320 -->
<g id="node17" class="node">
<title>1990978050320</title>
<polygon fill="white" stroke="black" points="1796.25,-117 1709.75,-117 1709.75,-81 1796.25,-81 1796.25,-117"/>
<text text-anchor="middle" x="1753" y="-93.97" font-family="Times New Roman,serif" font-size="12.00">Carbon Dating</text>
</g>
<!-- 1990978056992 -->
<g id="node47" class="node">
<title>1990978056992</title>
<ellipse fill="white" stroke="black" cx="1859.25" cy="-99" rx="27" ry="27"/>
</g>
<!-- 1990978050320&#45;&gt;1990978056992 -->
<g id="edge42" class="edge">
<title>1990978050320&#45;&gt;1990978056992</title>
<path fill="none" stroke="black" d="M1796.7,-99C1804.62,-99 1812.84,-99 1820.59,-99"/>
<polygon fill="black" stroke="black" points="1820.39,-102.5 1830.39,-99 1820.39,-95.5 1820.39,-102.5"/>
</g>
<!-- 1990977222080 -->
<g id="node18" class="node">
<title>1990977222080</title>
<polygon fill="white" stroke="black" points="1795.5,-45 1710.5,-45 1710.5,-9 1795.5,-9 1795.5,-45"/>
<text text-anchor="middle" x="1753" y="-21.98" font-family="Times New Roman,serif" font-size="12.00">Fiber Analysis</text>
</g>
<!-- 1990977212864 -->
<g id="node48" class="node">
<title>1990977212864</title>
<ellipse fill="white" stroke="black" cx="1859.25" cy="-27" rx="27" ry="27"/>
</g>
<!-- 1990977222080&#45;&gt;1990977212864 -->
<g id="edge41" class="edge">
<title>1990977222080&#45;&gt;1990977212864</title>
<path fill="none" stroke="black" d="M1795.8,-27C1804.02,-27 1812.6,-27 1820.67,-27"/>
<polygon fill="black" stroke="black" points="1820.52,-30.5 1830.52,-27 1820.52,-23.5 1820.52,-30.5"/>
</g>
<!-- 1990977212672 -->
<g id="node19" class="node">
<title>1990977212672</title>
<polygon fill="white" stroke="black" points="2409.5,-144 2311,-144 2311,-108 2409.5,-108 2409.5,-144"/>
<text text-anchor="middle" x="2360.25" y="-120.97" font-family="Times New Roman,serif" font-size="12.00">Condition Report</text>
</g>
<!-- 1990977212624 -->
<g id="node49" class="node">
<title>1990977212624</title>
<ellipse fill="white" stroke="black" cx="2472.5" cy="-126" rx="27" ry="27"/>
</g>
<!-- 1990977212672&#45;&gt;1990977212624 -->
<g id="edge48" class="edge">
<title>1990977212672&#45;&gt;1990977212624</title>
<path fill="none" stroke="black" d="M2409.93,-126C2417.88,-126 2426.01,-126 2433.65,-126"/>
<polygon fill="black" stroke="black" points="2433.64,-129.5 2443.64,-126 2433.64,-122.5 2433.64,-129.5"/>
</g>
<!-- 1990978044800 -->
<g id="node20" class="node">
<title>1990978044800</title>
<polygon fill="black" stroke="black" points="1976.25,-117 1922.25,-117 1922.25,-81 1976.25,-81 1976.25,-117"/>
</g>
<!-- 1990978044800&#45;&gt;1990977863504 -->
<g id="edge47" class="edge">
<title>1990978044800&#45;&gt;1990977863504</title>
<path fill="none" stroke="black" d="M1976.65,-107.1C1984.68,-109.56 1993.64,-112.31 2002.19,-114.94"/>
<polygon fill="black" stroke="black" points="2001.04,-118.24 2011.63,-117.83 2003.09,-111.55 2001.04,-118.24"/>
</g>
<!-- 1990977215744 -->
<g id="node21" class="node">
<title>1990977215744</title>
<polygon fill="white" stroke="black" points="2610,-144 2535.5,-144 2535.5,-108 2610,-108 2610,-144"/>
<text text-anchor="middle" x="2572.75" y="-120.97" font-family="Times New Roman,serif" font-size="12.00">Certification</text>
</g>
<!-- 1990977219344 -->
<g id="node50" class="node">
<title>1990977219344</title>
<ellipse fill="white" stroke="black" cx="2673" cy="-126" rx="27" ry="27"/>
</g>
<!-- 1990977215744&#45;&gt;1990977219344 -->
<g id="edge50" class="edge">
<title>1990977215744&#45;&gt;1990977219344</title>
<path fill="none" stroke="black" d="M2610.33,-126C2618.09,-126 2626.29,-126 2634.09,-126"/>
<polygon fill="black" stroke="black" points="2634,-129.5 2644,-126 2634,-122.5 2634,-129.5"/>
</g>
<!-- 1990977219056 -->
<g id="node22" class="node">
<title>1990977219056</title>
<polygon fill="white" stroke="black" points="2824,-144 2736,-144 2736,-108 2824,-108 2824,-144"/>
<text text-anchor="middle" x="2780" y="-120.97" font-family="Times New Roman,serif" font-size="12.00">Final Approval</text>
</g>
<!-- 1990971035808 -->
<g id="node51" class="node">
<title>1990971035808</title>
<ellipse fill="white" stroke="black" cx="2887" cy="-198" rx="27" ry="27"/>
</g>
<!-- 1990977219056&#45;&gt;1990971035808 -->
<g id="edge54" class="edge">
<title>1990977219056&#45;&gt;1990971035808</title>
<path fill="none" stroke="black" d="M2807.77,-144.35C2822.12,-154.2 2839.89,-166.38 2854.86,-176.64"/>
<polygon fill="black" stroke="black" points="2852.75,-179.45 2862.98,-182.21 2856.71,-173.67 2852.75,-179.45"/>
</g>
<!-- 1990971034800 -->
<g id="node52" class="node">
<title>1990971034800</title>
<ellipse fill="white" stroke="black" cx="2887" cy="-126" rx="27" ry="27"/>
</g>
<!-- 1990977219056&#45;&gt;1990971034800 -->
<g id="edge53" class="edge">
<title>1990977219056&#45;&gt;1990971034800</title>
<path fill="none" stroke="black" d="M2824.31,-126C2832.27,-126 2840.51,-126 2848.28,-126"/>
<polygon fill="black" stroke="black" points="2848.1,-129.5 2858.1,-126 2848.1,-122.5 2848.1,-129.5"/>
</g>
<!-- 1990971045840 -->
<g id="node53" class="node">
<title>1990971045840</title>
<ellipse fill="white" stroke="black" cx="2887" cy="-54" rx="27" ry="27"/>
</g>
<!-- 1990977219056&#45;&gt;1990971045840 -->
<g id="edge52" class="edge">
<title>1990977219056&#45;&gt;1990971045840</title>
<path fill="none" stroke="black" d="M2807.77,-107.65C2822.12,-97.8 2839.89,-85.62 2854.86,-75.36"/>
<polygon fill="black" stroke="black" points="2856.71,-78.33 2862.98,-69.79 2852.75,-72.55 2856.71,-78.33"/>
</g>
<!-- 1990978628848 -->
<g id="node23" class="node">
<title>1990978628848</title>
<polygon fill="white" stroke="black" points="3037.25,-72 2950,-72 2950,-36 3037.25,-36 3037.25,-72"/>
<text text-anchor="middle" x="2993.62" y="-48.98" font-family="Times New Roman,serif" font-size="12.00">Secure Storage</text>
</g>
<!-- 1990971037344 -->
<g id="node54" class="node">
<title>1990971037344</title>
<ellipse fill="white" stroke="black" cx="3100.25" cy="-54" rx="27" ry="27"/>
</g>
<!-- 1990978628848&#45;&gt;1990971037344 -->
<g id="edge59" class="edge">
<title>1990978628848&#45;&gt;1990971037344</title>
<path fill="none" stroke="black" d="M3037.48,-54C3045.43,-54 3053.67,-54 3061.45,-54"/>
<polygon fill="black" stroke="black" points="3061.29,-57.5 3071.29,-54 3061.29,-50.5 3061.29,-57.5"/>
</g>
<!-- 1990971034992 -->
<g id="node24" class="node">
<title>1990971034992</title>
<polygon fill="white" stroke="black" points="3029.38,-216 2957.88,-216 2957.88,-180 3029.38,-180 3029.38,-216"/>
<text text-anchor="middle" x="2993.62" y="-192.97" font-family="Times New Roman,serif" font-size="12.00">Client Brief</text>
</g>
<!-- 1990971044304 -->
<g id="node55" class="node">
<title>1990971044304</title>
<ellipse fill="white" stroke="black" cx="3100.25" cy="-198" rx="27" ry="27"/>
</g>
<!-- 1990971034992&#45;&gt;1990971044304 -->
<g id="edge60" class="edge">
<title>1990971034992&#45;&gt;1990971044304</title>
<path fill="none" stroke="black" d="M3029.75,-198C3040.02,-198 3051.28,-198 3061.69,-198"/>
<polygon fill="black" stroke="black" points="3061.47,-201.5 3071.47,-198 3061.47,-194.5 3061.47,-201.5"/>
</g>
<!-- 1990971038688 -->
<g id="node25" class="node">
<title>1990971038688</title>
<polygon fill="white" stroke="black" points="3033.5,-144 2953.75,-144 2953.75,-108 3033.5,-108 3033.5,-144"/>
<text text-anchor="middle" x="2993.62" y="-120.97" font-family="Times New Roman,serif" font-size="12.00">Data Archive</text>
</g>
<!-- 1990971037680 -->
<g id="node56" class="node">
<title>1990971037680</title>
<ellipse fill="white" stroke="black" cx="3100.25" cy="-126" rx="27" ry="27"/>
</g>
<!-- 1990971038688&#45;&gt;1990971037680 -->
<g id="edge58" class="edge">
<title>1990971038688&#45;&gt;1990971037680</title>
<path fill="none" stroke="black" d="M3033.88,-126C3042.91,-126 3052.5,-126 3061.46,-126"/>
<polygon fill="black" stroke="black" points="3061.28,-129.5 3071.28,-126 3061.28,-122.5 3061.28,-129.5"/>
</g>
<!-- 1990977208592 -->
<g id="node26" class="node">
<title>1990977208592</title>
<polygon fill="black" stroke="black" points="3217.25,-144 3163.25,-144 3163.25,-108 3217.25,-108 3217.25,-144"/>
</g>
<!-- 1990980575184 -->
<g id="node57" class="node">
<title>1990980575184</title>
<ellipse fill="white" stroke="black" cx="3284.25" cy="-126" rx="27" ry="27"/>
<ellipse fill="none" stroke="black" cx="3284.25" cy="-126" rx="31" ry="31"/>
<text text-anchor="start" x="3267.75" y="-110.6" font-family="Times New Roman,serif" font-size="32.00">■</text>
</g>
<!-- 1990977208592&#45;&gt;1990980575184 -->
<g id="edge64" class="edge">
<title>1990977208592&#45;&gt;1990980575184</title>
<path fill="none" stroke="black" d="M3217.37,-126C3224.88,-126 3233.26,-126 3241.47,-126"/>
<polygon fill="black" stroke="black" points="3241.33,-129.5 3251.33,-126 3241.33,-122.5 3241.33,-129.5"/>
</g>
<!-- 1990980582096 -->
<g id="node27" class="node">
<title>1990980582096</title>
<ellipse fill="white" stroke="black" cx="27" cy="-310" rx="27" ry="27"/>
<text text-anchor="start" x="9.75" y="-292.7" font-family="Times New Roman,serif" font-size="34.00">●</text>
</g>
<!-- 1990980582096&#45;&gt;1990978186816 -->
<g id="edge1" class="edge">
<title>1990980582096&#45;&gt;1990978186816</title>
<path fill="none" stroke="black" d="M54.29,-310C61.67,-310 69.98,-310 78.32,-310"/>
<polygon fill="black" stroke="black" points="78.14,-313.5 88.14,-310 78.14,-306.5 78.14,-313.5"/>
</g>
<!-- 1990980439696&#45;&gt;1990980439888 -->
<g id="edge5" class="edge">
<title>1990980439696&#45;&gt;1990980439888</title>
<path fill="none" stroke="black" d="M264.56,-346C271.88,-346 280.09,-346 288.3,-346"/>
<polygon fill="black" stroke="black" points="288.3,-349.5 298.3,-346 288.3,-342.5 288.3,-349.5"/>
</g>
<!-- 1990978832864&#45;&gt;1990980038976 -->
<g id="edge4" class="edge">
<title>1990978832864&#45;&gt;1990980038976</title>
<path fill="none" stroke="black" d="M264.56,-274C273.3,-274 283.31,-274 293.07,-274"/>
<polygon fill="black" stroke="black" points="292.81,-277.5 302.81,-274 292.81,-270.5 292.81,-277.5"/>
</g>
<!-- 1990980033216&#45;&gt;1990981403232 -->
<g id="edge9" class="edge">
<title>1990980033216&#45;&gt;1990981403232</title>
<path fill="none" stroke="black" d="M467.01,-335.97C475.26,-332.6 484.64,-328.76 493.62,-325.09"/>
<polygon fill="black" stroke="black" points="494.94,-328.33 502.87,-321.3 492.29,-321.85 494.94,-328.33"/>
</g>
<!-- 1990978837904&#45;&gt;1990981403232 -->
<g id="edge8" class="edge">
<title>1990978837904&#45;&gt;1990981403232</title>
<path fill="none" stroke="black" d="M467.01,-284.03C475.26,-287.4 484.64,-291.24 493.62,-294.91"/>
<polygon fill="black" stroke="black" points="492.29,-298.15 502.87,-298.7 494.94,-291.67 492.29,-298.15"/>
</g>
<!-- 1990978750752&#45;&gt;1990978760784 -->
<g id="edge12" class="edge">
<title>1990978750752&#45;&gt;1990978760784</title>
<path fill="none" stroke="black" d="M648.85,-346C656.24,-346 664.6,-346 673.15,-346"/>
<polygon fill="black" stroke="black" points="672.91,-349.5 682.91,-346 672.91,-342.5 672.91,-349.5"/>
</g>
<!-- 1990978475344&#45;&gt;1990978471024 -->
<g id="edge13" class="edge">
<title>1990978475344&#45;&gt;1990978471024</title>
<path fill="none" stroke="black" d="M648.85,-274C658.79,-274 670.48,-274 682.03,-274"/>
<polygon fill="black" stroke="black" points="681.94,-277.5 691.94,-274 681.94,-270.5 681.94,-277.5"/>
</g>
<!-- 1990978755696&#45;&gt;1990979174224 -->
<g id="edge17" class="edge">
<title>1990978755696&#45;&gt;1990979174224</title>
<path fill="none" stroke="black" d="M878.26,-284.03C886.51,-287.4 895.89,-291.24 904.87,-294.91"/>
<polygon fill="black" stroke="black" points="903.54,-298.15 914.12,-298.7 906.19,-291.67 903.54,-298.15"/>
</g>
<!-- 1990979169472&#45;&gt;1990979174224 -->
<g id="edge16" class="edge">
<title>1990979169472&#45;&gt;1990979174224</title>
<path fill="none" stroke="black" d="M878.26,-335.97C886.51,-332.6 895.89,-328.76 904.87,-325.09"/>
<polygon fill="black" stroke="black" points="906.19,-328.33 914.12,-321.3 903.54,-321.85 906.19,-328.33"/>
</g>
<!-- 1990978480336&#45;&gt;1990978175680 -->
<g id="edge19" class="edge">
<title>1990978480336&#45;&gt;1990978175680</title>
<path fill="none" stroke="black" d="M1059.34,-304.08C1067.11,-302.28 1075.9,-300.24 1084.65,-298.22"/>
<polygon fill="black" stroke="black" points="1085.2,-301.69 1094.15,-296.02 1083.62,-294.87 1085.2,-301.69"/>
</g>
<!-- 1990978339568&#45;&gt;1990971920592 -->
<g id="edge21" class="edge">
<title>1990978339568&#45;&gt;1990971920592</title>
<path fill="none" stroke="black" d="M1254.31,-250.97C1267.74,-235.86 1286.28,-214.99 1300.94,-198.5"/>
<polygon fill="black" stroke="black" points="1303.17,-201.27 1307.2,-191.47 1297.94,-196.61 1303.17,-201.27"/>
</g>
<!-- 1990978339568&#45;&gt;1990971930048 -->
<g id="edge22" class="edge">
<title>1990978339568&#45;&gt;1990971930048</title>
<path fill="none" stroke="black" d="M1262.9,-271C1270.39,-271 1278.68,-271 1286.7,-271"/>
<polygon fill="black" stroke="black" points="1286.6,-274.5 1296.6,-271 1286.6,-267.5 1286.6,-274.5"/>
</g>
<!-- 1990979544096&#45;&gt;1990977853088 -->
<g id="edge28" class="edge">
<title>1990979544096&#45;&gt;1990977853088</title>
<path fill="none" stroke="black" d="M1442.85,-293C1452.79,-293 1464.48,-293 1476.03,-293"/>
<polygon fill="black" stroke="black" points="1475.94,-296.5 1485.94,-293 1475.94,-289.5 1475.94,-296.5"/>
</g>
<!-- 1990977861248&#45;&gt;1990978056704 -->
<g id="edge27" class="edge">
<title>1990977861248&#45;&gt;1990978056704</title>
<path fill="none" stroke="black" d="M1440.6,-138.4C1455.92,-131.65 1476.05,-122.79 1493.35,-115.18"/>
<polygon fill="black" stroke="black" points="1494.55,-118.48 1502.3,-111.25 1491.73,-112.07 1494.55,-118.48"/>
</g>
<!-- 1990977861248&#45;&gt;1990978060016 -->
<g id="edge29" class="edge">
<title>1990977861248&#45;&gt;1990978060016</title>
<path fill="none" stroke="black" d="M1442.6,-151.45C1485.12,-155.21 1572,-162 1645.75,-162 1645.75,-162 1645.75,-162 1754,-162 1808.42,-162 1871.39,-160.01 1910.52,-158.55"/>
<polygon fill="black" stroke="black" points="1910.49,-162.05 1920.35,-158.17 1910.22,-155.05 1910.49,-162.05"/>
</g>
<!-- 1990978912432&#45;&gt;1990978912384 -->
<g id="edge26" class="edge">
<title>1990978912432&#45;&gt;1990978912384</title>
<path fill="none" stroke="black" d="M1442.85,-221C1450.24,-221 1458.6,-221 1467.15,-221"/>
<polygon fill="black" stroke="black" points="1466.91,-224.5 1476.91,-221 1466.91,-217.5 1466.91,-224.5"/>
</g>
<!-- 1990977218720&#45;&gt;1990977222080 -->
<g id="edge36" class="edge">
<title>1990977218720&#45;&gt;1990977222080</title>
<path fill="none" stroke="black" d="M1674.06,-27C1681.69,-27 1690.31,-27 1698.97,-27"/>
<polygon fill="black" stroke="black" points="1698.77,-30.5 1708.77,-27 1698.77,-23.5 1698.77,-30.5"/>
</g>
<!-- 1990977863504&#45;&gt;1990977211088 -->
<g id="edge38" class="edge">
<title>1990977863504&#45;&gt;1990977211088</title>
<path fill="none" stroke="black" d="M2066.61,-126C2074.03,-126 2082.36,-126 2090.71,-126"/>
<polygon fill="black" stroke="black" points="2090.52,-129.5 2100.52,-126 2090.52,-122.5 2090.52,-129.5"/>
</g>
<!-- 1990978051424&#45;&gt;1990978050320 -->
<g id="edge37" class="edge">
<title>1990978051424&#45;&gt;1990978050320</title>
<path fill="none" stroke="black" d="M1674.06,-99C1681.44,-99 1689.74,-99 1698.11,-99"/>
<polygon fill="black" stroke="black" points="1697.96,-102.5 1707.96,-99 1697.96,-95.5 1697.96,-102.5"/>
</g>
<!-- 1990971932544&#45;&gt;1990971925584 -->
<g id="edge35" class="edge">
<title>1990971932544&#45;&gt;1990971925584</title>
<path fill="none" stroke="black" d="M1669.6,-236.09C1683.15,-245.45 1700.87,-257.69 1716.41,-268.42"/>
<polygon fill="black" stroke="black" points="1714.28,-271.2 1724.5,-274.01 1718.26,-265.44 1714.28,-271.2"/>
</g>
<!-- 1990979545008&#45;&gt;1990971925584 -->
<g id="edge39" class="edge">
<title>1990979545008&#45;&gt;1990971925584</title>
<path fill="none" stroke="black" d="M1674.06,-293C1686.28,-293 1701.04,-293 1714.41,-293"/>
<polygon fill="black" stroke="black" points="1714.19,-296.5 1724.19,-293 1714.19,-289.5 1714.19,-296.5"/>
</g>
<!-- 1990977213104&#45;&gt;1990977212672 -->
<g id="edge44" class="edge">
<title>1990977213104&#45;&gt;1990977212672</title>
<path fill="none" stroke="black" d="M2275.41,-126C2282.68,-126 2290.87,-126 2299.22,-126"/>
<polygon fill="black" stroke="black" points="2299.11,-129.5 2309.11,-126 2299.11,-122.5 2299.11,-129.5"/>
</g>
<!-- 1990978056992&#45;&gt;1990978044800 -->
<g id="edge45" class="edge">
<title>1990978056992&#45;&gt;1990978044800</title>
<path fill="none" stroke="black" d="M1886.65,-99C1894.14,-99 1902.43,-99 1910.45,-99"/>
<polygon fill="black" stroke="black" points="1910.35,-102.5 1920.35,-99 1910.35,-95.5 1910.35,-102.5"/>
</g>
<!-- 1990977212864&#45;&gt;1990978044800 -->
<g id="edge46" class="edge">
<title>1990977212864&#45;&gt;1990978044800</title>
<path fill="none" stroke="black" d="M1880.66,-43.7C1891.42,-52.5 1904.86,-63.5 1916.91,-73.36"/>
<polygon fill="black" stroke="black" points="1914.66,-76.04 1924.62,-79.66 1919.09,-70.62 1914.66,-76.04"/>
</g>
<!-- 1990977212624&#45;&gt;1990977215744 -->
<g id="edge49" class="edge">
<title>1990977212624&#45;&gt;1990977215744</title>
<path fill="none" stroke="black" d="M2499.83,-126C2507.17,-126 2515.38,-126 2523.56,-126"/>
<polygon fill="black" stroke="black" points="2523.49,-129.5 2533.49,-126 2523.49,-122.5 2523.49,-129.5"/>
</g>
<!-- 1990977219344&#45;&gt;1990977219056 -->
<g id="edge51" class="edge">
<title>1990977219344&#45;&gt;1990977219056</title>
<path fill="none" stroke="black" d="M2700.5,-126C2707.85,-126 2716.11,-126 2724.44,-126"/>
<polygon fill="black" stroke="black" points="2724.25,-129.5 2734.25,-126 2724.25,-122.5 2724.25,-129.5"/>
</g>
<!-- 1990971035808&#45;&gt;1990971034992 -->
<g id="edge56" class="edge">
<title>1990971035808&#45;&gt;1990971034992</title>
<path fill="none" stroke="black" d="M2914.4,-198C2924.11,-198 2935.4,-198 2946.34,-198"/>
<polygon fill="black" stroke="black" points="2946.02,-201.5 2956.02,-198 2946.02,-194.5 2946.02,-201.5"/>
</g>
<!-- 1990971034800&#45;&gt;1990971038688 -->
<g id="edge55" class="edge">
<title>1990971034800&#45;&gt;1990971038688</title>
<path fill="none" stroke="black" d="M2914.4,-126C2922.93,-126 2932.69,-126 2942.35,-126"/>
<polygon fill="black" stroke="black" points="2942.06,-129.5 2952.06,-126 2942.06,-122.5 2942.06,-129.5"/>
</g>
<!-- 1990971045840&#45;&gt;1990978628848 -->
<g id="edge57" class="edge">
<title>1990971045840&#45;&gt;1990978628848</title>
<path fill="none" stroke="black" d="M2914.4,-54C2921.73,-54 2929.96,-54 2938.26,-54"/>
<polygon fill="black" stroke="black" points="2938.03,-57.5 2948.03,-54 2938.03,-50.5 2938.03,-57.5"/>
</g>
<!-- 1990971037344&#45;&gt;1990977208592 -->
<g id="edge63" class="edge">
<title>1990971037344&#45;&gt;1990977208592</title>
<path fill="none" stroke="black" d="M3121.66,-70.7C3132.42,-79.5 3145.86,-90.5 3157.91,-100.36"/>
<polygon fill="black" stroke="black" points="3155.66,-103.04 3165.62,-106.66 3160.09,-97.62 3155.66,-103.04"/>
</g>
<!-- 1990971044304&#45;&gt;1990977208592 -->
<g id="edge62" class="edge">
<title>1990971044304&#45;&gt;1990977208592</title>
<path fill="none" stroke="black" d="M3121.66,-181.3C3132.42,-172.5 3145.86,-161.5 3157.91,-151.64"/>
<polygon fill="black" stroke="black" points="3160.09,-154.38 3165.62,-145.34 3155.66,-148.96 3160.09,-154.38"/>
</g>
<!-- 1990971037680&#45;&gt;1990977208592 -->
<g id="edge61" class="edge">
<title>1990971037680&#45;&gt;1990977208592</title>
<path fill="none" stroke="black" d="M3127.65,-126C3135.14,-126 3143.43,-126 3151.45,-126"/>
<polygon fill="black" stroke="black" points="3151.35,-129.5 3161.35,-126 3151.35,-122.5 3151.35,-129.5"/>
</g>
</g>
</svg>
