<?xml version="1.0" encoding="UTF-8" standalone="no"?>
<!DOCTYPE svg PUBLIC "-//W3C//DTD SVG 1.1//EN"
 "http://www.w3.org/Graphics/SVG/1.1/DTD/svg11.dtd">
<!-- Generated by graphviz version 11.0.0 (20240428.1522)
 -->
<!-- Title: imdf_net_1754051414.3770518 Pages: 1 -->
<svg width="2001pt" height="341pt"
 viewBox="0.00 0.00 2000.50 341.00" xmlns="http://www.w3.org/2000/svg" xmlns:xlink="http://www.w3.org/1999/xlink">
<g id="graph0" class="graph" transform="scale(1 1) rotate(0) translate(4 337)">
<title>imdf_net_1754051414.3770518</title>
<polygon fill="white" stroke="none" points="-4,4 -4,-337 1996.5,-337 1996.5,4 -4,4"/>
<!-- 1990979473280 -->
<g id="node1" class="node">
<title>1990979473280</title>
<polygon fill="white" stroke="black" points="160.75,-225 90,-225 90,-189 160.75,-189 160.75,-225"/>
<text text-anchor="middle" x="125.38" y="-201.97" font-family="Times New Roman,serif" font-size="12.00">Site Survey</text>
</g>
<!-- 1990979483696 -->
<g id="node19" class="node">
<title>1990979483696</title>
<ellipse fill="white" stroke="black" cx="223.75" cy="-207" rx="27" ry="27"/>
</g>
<!-- 1990979473280&#45;&gt;1990979483696 -->
<g id="edge2" class="edge">
<title>1990979473280&#45;&gt;1990979483696</title>
<path fill="none" stroke="black" d="M161.17,-207C168.9,-207 177.14,-207 184.98,-207"/>
<polygon fill="black" stroke="black" points="184.97,-210.5 194.97,-207 184.97,-203.5 184.97,-210.5"/>
</g>
<!-- 1990979049264 -->
<g id="node2" class="node">
<title>1990979049264</title>
<polygon fill="white" stroke="black" points="394.25,-225 286.75,-225 286.75,-189 394.25,-189 394.25,-225"/>
<text text-anchor="middle" x="340.5" y="-201.97" font-family="Times New Roman,serif" font-size="12.00">Regulation Review</text>
</g>
<!-- 1990979044752 -->
<g id="node20" class="node">
<title>1990979044752</title>
<ellipse fill="white" stroke="black" cx="457.25" cy="-247" rx="27" ry="27"/>
</g>
<!-- 1990979049264&#45;&gt;1990979044752 -->
<g id="edge5" class="edge">
<title>1990979049264&#45;&gt;1990979044752</title>
<path fill="none" stroke="black" d="M394.51,-225.48C403.31,-228.55 412.25,-231.66 420.49,-234.53"/>
<polygon fill="black" stroke="black" points="419.2,-237.79 429.79,-237.78 421.5,-231.18 419.2,-237.79"/>
</g>
<!-- 1990979051088 -->
<g id="node21" class="node">
<title>1990979051088</title>
<ellipse fill="white" stroke="black" cx="457.25" cy="-171" rx="27" ry="27"/>
</g>
<!-- 1990979049264&#45;&gt;1990979051088 -->
<g id="edge4" class="edge">
<title>1990979049264&#45;&gt;1990979051088</title>
<path fill="none" stroke="black" d="M394.51,-190.37C403.31,-187.61 412.25,-184.8 420.49,-182.22"/>
<polygon fill="black" stroke="black" points="421.28,-185.64 429.78,-179.31 419.19,-178.96 421.28,-185.64"/>
</g>
<!-- 1990979055792 -->
<g id="node3" class="node">
<title>1990979055792</title>
<polygon fill="white" stroke="black" points="614.25,-273 520.25,-273 520.25,-237 614.25,-237 614.25,-273"/>
<text text-anchor="middle" x="567.25" y="-249.97" font-family="Times New Roman,serif" font-size="12.00">Supplier Vetting</text>
</g>
<!-- 1990977248944 -->
<g id="node22" class="node">
<title>1990977248944</title>
<ellipse fill="white" stroke="black" cx="677.25" cy="-259" rx="27" ry="27"/>
</g>
<!-- 1990979055792&#45;&gt;1990977248944 -->
<g id="edge9" class="edge">
<title>1990979055792&#45;&gt;1990977248944</title>
<path fill="none" stroke="black" d="M614.68,-256.72C622.56,-257.01 630.66,-257.31 638.28,-257.59"/>
<polygon fill="black" stroke="black" points="638.15,-261.09 648.27,-257.96 638.41,-254.1 638.15,-261.09"/>
</g>
<!-- 1990979050464 -->
<g id="node4" class="node">
<title>1990979050464</title>
<polygon fill="white" stroke="black" points="610.5,-189 524,-189 524,-153 610.5,-153 610.5,-189"/>
<text text-anchor="middle" x="567.25" y="-165.97" font-family="Times New Roman,serif" font-size="12.00">Tech Selection</text>
</g>
<!-- 1990979050176 -->
<g id="node23" class="node">
<title>1990979050176</title>
<ellipse fill="white" stroke="black" cx="677.25" cy="-81" rx="27" ry="27"/>
</g>
<!-- 1990979050464&#45;&gt;1990979050176 -->
<g id="edge8" class="edge">
<title>1990979050464&#45;&gt;1990979050176</title>
<path fill="none" stroke="black" d="M590.37,-152.57C606.91,-138.78 629.68,-119.81 647.62,-104.86"/>
<polygon fill="black" stroke="black" points="649.38,-107.95 654.82,-98.85 644.9,-102.57 649.38,-107.95"/>
</g>
<!-- 1990979056704 -->
<g id="node24" class="node">
<title>1990979056704</title>
<ellipse fill="white" stroke="black" cx="677.25" cy="-171" rx="27" ry="27"/>
</g>
<!-- 1990979050464&#45;&gt;1990979056704 -->
<g id="edge10" class="edge">
<title>1990979050464&#45;&gt;1990979056704</title>
<path fill="none" stroke="black" d="M610.93,-171C620.12,-171 629.76,-171 638.73,-171"/>
<polygon fill="black" stroke="black" points="638.52,-174.5 648.52,-171 638.52,-167.5 638.52,-174.5"/>
</g>
<!-- 1990979047440 -->
<g id="node5" class="node">
<title>1990979047440</title>
<polygon fill="white" stroke="black" points="831.25,-81 745.5,-81 745.5,-45 831.25,-45 831.25,-81"/>
<text text-anchor="middle" x="788.38" y="-57.98" font-family="Times New Roman,serif" font-size="12.00">Modular Build</text>
</g>
<!-- 1990980240736 -->
<g id="node27" class="node">
<title>1990980240736</title>
<ellipse fill="white" stroke="black" cx="899.5" cy="-27" rx="27" ry="27"/>
</g>
<!-- 1990979047440&#45;&gt;1990980240736 -->
<g id="edge18" class="edge">
<title>1990979047440&#45;&gt;1990980240736</title>
<path fill="none" stroke="black" d="M831.57,-49.08C841.85,-45.69 852.75,-42.09 862.71,-38.81"/>
<polygon fill="black" stroke="black" points="863.62,-42.19 872.02,-35.74 861.43,-35.54 863.62,-42.19"/>
</g>
<!-- 1990979049840 -->
<g id="node6" class="node">
<title>1990979049840</title>
<polygon fill="white" stroke="black" points="828.62,-189 748.12,-189 748.12,-153 828.62,-153 828.62,-189"/>
<text text-anchor="middle" x="788.38" y="-165.97" font-family="Times New Roman,serif" font-size="12.00">System Setup</text>
</g>
<!-- 1990976302368 -->
<g id="node25" class="node">
<title>1990976302368</title>
<ellipse fill="white" stroke="black" cx="899.5" cy="-171" rx="27" ry="27"/>
</g>
<!-- 1990979049840&#45;&gt;1990976302368 -->
<g id="edge16" class="edge">
<title>1990979049840&#45;&gt;1990976302368</title>
<path fill="none" stroke="black" d="M829.08,-171C839.42,-171 850.52,-171 860.76,-171"/>
<polygon fill="black" stroke="black" points="860.76,-174.5 870.76,-171 860.75,-167.5 860.76,-174.5"/>
</g>
<!-- 1990980253744 -->
<g id="node26" class="node">
<title>1990980253744</title>
<ellipse fill="white" stroke="black" cx="899.5" cy="-99" rx="27" ry="27"/>
</g>
<!-- 1990979049840&#45;&gt;1990980253744 -->
<g id="edge17" class="edge">
<title>1990979049840&#45;&gt;1990980253744</title>
<path fill="none" stroke="black" d="M817.19,-152.65C832.46,-142.57 851.45,-130.05 867.23,-119.63"/>
<polygon fill="black" stroke="black" points="868.9,-122.73 875.32,-114.3 865.04,-116.88 868.9,-122.73"/>
</g>
<!-- 1990977254896 -->
<g id="node28" class="node">
<title>1990977254896</title>
<ellipse fill="white" stroke="black" cx="899.5" cy="-243" rx="27" ry="27"/>
</g>
<!-- 1990979049840&#45;&gt;1990977254896 -->
<g id="edge14" class="edge">
<title>1990979049840&#45;&gt;1990977254896</title>
<path fill="none" stroke="black" d="M817.19,-189.35C832.46,-199.43 851.45,-211.95 867.23,-222.37"/>
<polygon fill="black" stroke="black" points="865.04,-225.12 875.32,-227.7 868.9,-219.27 865.04,-225.12"/>
</g>
<!-- 1990977250288 -->
<g id="node7" class="node">
<title>1990977250288</title>
<polygon fill="white" stroke="black" points="836.5,-308 740.25,-308 740.25,-272 836.5,-272 836.5,-308"/>
<text text-anchor="middle" x="788.38" y="-284.98" font-family="Times New Roman,serif" font-size="12.00">Distribution Plan</text>
</g>
<!-- 1990980578160 -->
<g id="node29" class="node">
<title>1990980578160</title>
<ellipse fill="white" stroke="black" cx="1021.88" cy="-306" rx="27" ry="27"/>
</g>
<!-- 1990977250288&#45;&gt;1990980578160 -->
<g id="edge15" class="edge">
<title>1990977250288&#45;&gt;1990980578160</title>
<path fill="none" stroke="black" d="M836.78,-293.28C880.15,-296.27 943.47,-300.65 983.4,-303.41"/>
<polygon fill="black" stroke="black" points="983.02,-306.89 993.23,-304.09 983.5,-299.91 983.02,-306.89"/>
</g>
<!-- 1990977243904 -->
<g id="node8" class="node">
<title>1990977243904</title>
<polygon fill="white" stroke="black" points="1054.25,-117 989.5,-117 989.5,-81 1054.25,-81 1054.25,-117"/>
<text text-anchor="middle" x="1021.88" y="-93.97" font-family="Times New Roman,serif" font-size="12.00">IoT Install</text>
</g>
<!-- 1990977252928 -->
<g id="node30" class="node">
<title>1990977252928</title>
<ellipse fill="white" stroke="black" cx="1144.25" cy="-99" rx="27" ry="27"/>
</g>
<!-- 1990977243904&#45;&gt;1990977252928 -->
<g id="edge26" class="edge">
<title>1990977243904&#45;&gt;1990977252928</title>
<path fill="none" stroke="black" d="M1054.5,-99C1070.2,-99 1089.26,-99 1105.7,-99"/>
<polygon fill="black" stroke="black" points="1105.6,-102.5 1115.6,-99 1105.6,-95.5 1105.6,-102.5"/>
</g>
<!-- 1990976304192 -->
<g id="node9" class="node">
<title>1990976304192</title>
<polygon fill="white" stroke="black" points="1062.88,-261 980.88,-261 980.88,-225 1062.88,-225 1062.88,-261"/>
<text text-anchor="middle" x="1021.88" y="-237.97" font-family="Times New Roman,serif" font-size="12.00">Staff Training</text>
</g>
<!-- 1990980568416 -->
<g id="node33" class="node">
<title>1990980568416</title>
<ellipse fill="white" stroke="black" cx="1144.25" cy="-243" rx="27" ry="27"/>
</g>
<!-- 1990976304192&#45;&gt;1990980568416 -->
<g id="edge24" class="edge">
<title>1990976304192&#45;&gt;1990980568416</title>
<path fill="none" stroke="black" d="M1063.29,-243C1076.92,-243 1092.07,-243 1105.49,-243"/>
<polygon fill="black" stroke="black" points="1105.24,-246.5 1115.24,-243 1105.24,-239.5 1105.24,-246.5"/>
</g>
<!-- 1990975903296 -->
<g id="node10" class="node">
<title>1990975903296</title>
<polygon fill="white" stroke="black" points="1299.75,-260 1211,-260 1211,-224 1299.75,-224 1299.75,-260"/>
<text text-anchor="middle" x="1255.38" y="-236.97" font-family="Times New Roman,serif" font-size="12.00">Market Launch</text>
</g>
<!-- 1990975899840 -->
<g id="node31" class="node">
<title>1990975899840</title>
<ellipse fill="white" stroke="black" cx="1366.5" cy="-242" rx="27" ry="27"/>
</g>
<!-- 1990975903296&#45;&gt;1990975899840 -->
<g id="edge25" class="edge">
<title>1990975903296&#45;&gt;1990975899840</title>
<path fill="none" stroke="black" d="M1300.13,-242C1309.28,-242 1318.86,-242 1327.77,-242"/>
<polygon fill="black" stroke="black" points="1327.5,-245.5 1337.5,-242 1327.5,-238.5 1327.5,-245.5"/>
</g>
<!-- 1990976301936 -->
<g id="node11" class="node">
<title>1990976301936</title>
<polygon fill="white" stroke="black" points="1081.25,-189 962.5,-189 962.5,-153 1081.25,-153 1081.25,-189"/>
<text text-anchor="middle" x="1021.88" y="-165.97" font-family="Times New Roman,serif" font-size="12.00">Community Outreach</text>
</g>
<!-- 1990980567888 -->
<g id="node32" class="node">
<title>1990980567888</title>
<ellipse fill="white" stroke="black" cx="1144.25" cy="-171" rx="27" ry="27"/>
</g>
<!-- 1990976301936&#45;&gt;1990980567888 -->
<g id="edge27" class="edge">
<title>1990976301936&#45;&gt;1990980567888</title>
<path fill="none" stroke="black" d="M1081.65,-171C1089.8,-171 1097.98,-171 1105.6,-171"/>
<polygon fill="black" stroke="black" points="1105.51,-174.5 1115.51,-171 1105.51,-167.5 1105.51,-174.5"/>
</g>
<!-- 1990976604736 -->
<g id="node12" class="node">
<title>1990976604736</title>
<polygon fill="white" stroke="black" points="1534,-206 1429.5,-206 1429.5,-170 1534,-170 1534,-206"/>
<text text-anchor="middle" x="1481.75" y="-182.97" font-family="Times New Roman,serif" font-size="12.00">Feedback Analyze</text>
</g>
<!-- 1990976616880 -->
<g id="node34" class="node">
<title>1990976616880</title>
<ellipse fill="white" stroke="black" cx="1597" cy="-179" rx="27" ry="27"/>
</g>
<!-- 1990976604736&#45;&gt;1990976616880 -->
<g id="edge32" class="edge">
<title>1990976604736&#45;&gt;1990976616880</title>
<path fill="none" stroke="black" d="M1534.4,-183.9C1542.54,-183.25 1550.81,-182.59 1558.54,-181.98"/>
<polygon fill="black" stroke="black" points="1558.58,-185.49 1568.27,-181.2 1558.02,-178.51 1558.58,-185.49"/>
</g>
<!-- 1990977252064 -->
<g id="node13" class="node">
<title>1990977252064</title>
<polygon fill="white" stroke="black" points="1303.5,-121 1207.25,-121 1207.25,-85 1303.5,-85 1303.5,-121"/>
<text text-anchor="middle" x="1255.38" y="-97.97" font-family="Times New Roman,serif" font-size="12.00">Crop Monitoring</text>
</g>
<!-- 1990977253456 -->
<g id="node35" class="node">
<title>1990977253456</title>
<ellipse fill="white" stroke="black" cx="1366.5" cy="-105" rx="27" ry="27"/>
</g>
<!-- 1990977252064&#45;&gt;1990977253456 -->
<g id="edge33" class="edge">
<title>1990977252064&#45;&gt;1990977253456</title>
<path fill="none" stroke="black" d="M1303.92,-103.87C1311.84,-104.02 1319.95,-104.17 1327.59,-104.31"/>
<polygon fill="black" stroke="black" points="1327.51,-107.8 1337.58,-104.49 1327.64,-100.81 1327.51,-107.8"/>
</g>
<!-- 1990977254272 -->
<g id="node14" class="node">
<title>1990977254272</title>
<polygon fill="white" stroke="black" points="1526.5,-124 1437,-124 1437,-88 1526.5,-88 1526.5,-124"/>
<text text-anchor="middle" x="1481.75" y="-100.97" font-family="Times New Roman,serif" font-size="12.00">Nutrient Adjust</text>
</g>
<!-- 1990977247552 -->
<g id="node36" class="node">
<title>1990977247552</title>
<ellipse fill="white" stroke="black" cx="1597" cy="-107" rx="27" ry="27"/>
</g>
<!-- 1990977254272&#45;&gt;1990977247552 -->
<g id="edge38" class="edge">
<title>1990977254272&#45;&gt;1990977247552</title>
<path fill="none" stroke="black" d="M1526.86,-106.39C1537.22,-106.48 1548.16,-106.58 1558.21,-106.67"/>
<polygon fill="black" stroke="black" points="1557.97,-110.16 1568,-106.75 1558.03,-103.16 1557.97,-110.16"/>
</g>
<!-- 1990980367088 -->
<g id="node15" class="node">
<title>1990980367088</title>
<polygon fill="black" stroke="black" points="1731.38,-126 1677.38,-126 1677.38,-90 1731.38,-90 1731.38,-126"/>
</g>
<!-- 1990980366896 -->
<g id="node38" class="node">
<title>1990980366896</title>
<ellipse fill="white" stroke="black" cx="1815.75" cy="-108" rx="27" ry="27"/>
<ellipse fill="none" stroke="black" cx="1815.75" cy="-108" rx="31" ry="31"/>
<text text-anchor="start" x="1799.25" y="-92.6" font-family="Times New Roman,serif" font-size="32.00">■</text>
</g>
<!-- 1990980367088&#45;&gt;1990980366896 -->
<g id="edge39" class="edge">
<title>1990980367088&#45;&gt;1990980366896</title>
<path fill="none" stroke="black" d="M1731.85,-108C1744.2,-108 1759.19,-108 1773.01,-108"/>
<polygon fill="black" stroke="black" points="1772.75,-111.5 1782.75,-108 1772.75,-104.5 1772.75,-111.5"/>
</g>
<!-- 1990976972528 -->
<g id="node16" class="node">
<title>1990976972528</title>
<polygon fill="white" stroke="black" points="1748.75,-201 1660,-201 1660,-165 1748.75,-165 1748.75,-201"/>
<text text-anchor="middle" x="1704.38" y="-177.97" font-family="Times New Roman,serif" font-size="12.00">Yield Optimize</text>
</g>
<!-- 1990980249664 -->
<g id="node37" class="node">
<title>1990980249664</title>
<ellipse fill="white" stroke="black" cx="1815.75" cy="-186" rx="27" ry="27"/>
</g>
<!-- 1990976972528&#45;&gt;1990980249664 -->
<g id="edge37" class="edge">
<title>1990976972528&#45;&gt;1990980249664</title>
<path fill="none" stroke="black" d="M1749.23,-184.2C1758.49,-184.46 1768.18,-184.72 1777.18,-184.97"/>
<polygon fill="black" stroke="black" points="1776.91,-188.46 1787,-185.24 1777.1,-181.47 1776.91,-188.46"/>
</g>
<!-- 1990980249712 -->
<g id="node17" class="node">
<title>1990980249712</title>
<polygon fill="white" stroke="black" points="1992.5,-232 1882.75,-232 1882.75,-196 1992.5,-196 1992.5,-232"/>
<text text-anchor="middle" x="1937.62" y="-208.97" font-family="Times New Roman,serif" font-size="12.00">Sustainability Audit</text>
</g>
<!-- 1990980249712&#45;&gt;1990975899840 -->
<g id="edge42" class="edge">
<title>1990980249712&#45;&gt;1990975899840</title>
<path fill="none" stroke="black" d="M1882.65,-224.27C1835.92,-232.26 1766.44,-242 1705.38,-242 1596,-242 1596,-242 1596,-242 1528.81,-242 1450.51,-242 1405.21,-242"/>
<polygon fill="black" stroke="black" points="1405.4,-238.5 1395.4,-242 1405.4,-245.5 1405.4,-238.5"/>
</g>
<!-- 1990980367760 -->
<g id="node18" class="node">
<title>1990980367760</title>
<ellipse fill="white" stroke="black" cx="27" cy="-207" rx="27" ry="27"/>
<text text-anchor="start" x="9.75" y="-189.7" font-family="Times New Roman,serif" font-size="34.00">●</text>
</g>
<!-- 1990980367760&#45;&gt;1990979473280 -->
<g id="edge1" class="edge">
<title>1990980367760&#45;&gt;1990979473280</title>
<path fill="none" stroke="black" d="M54.33,-207C61.76,-207 70.06,-207 78.28,-207"/>
<polygon fill="black" stroke="black" points="78.24,-210.5 88.24,-207 78.24,-203.5 78.24,-210.5"/>
</g>
<!-- 1990979483696&#45;&gt;1990979049264 -->
<g id="edge3" class="edge">
<title>1990979483696&#45;&gt;1990979049264</title>
<path fill="none" stroke="black" d="M251.08,-207C258.44,-207 266.77,-207 275.32,-207"/>
<polygon fill="black" stroke="black" points="275.08,-210.5 285.08,-207 275.08,-203.5 275.08,-210.5"/>
</g>
<!-- 1990979044752&#45;&gt;1990979055792 -->
<g id="edge7" class="edge">
<title>1990979044752&#45;&gt;1990979055792</title>
<path fill="none" stroke="black" d="M484.67,-248.96C491.97,-249.5 500.19,-250.11 508.52,-250.72"/>
<polygon fill="black" stroke="black" points="508.15,-254.21 518.38,-251.45 508.67,-247.22 508.15,-254.21"/>
</g>
<!-- 1990979051088&#45;&gt;1990979050464 -->
<g id="edge6" class="edge">
<title>1990979051088&#45;&gt;1990979050464</title>
<path fill="none" stroke="black" d="M484.67,-171C493.11,-171 502.77,-171 512.43,-171"/>
<polygon fill="black" stroke="black" points="512.18,-174.5 522.18,-171 512.18,-167.5 512.18,-174.5"/>
</g>
<!-- 1990977248944&#45;&gt;1990977250288 -->
<g id="edge13" class="edge">
<title>1990977248944&#45;&gt;1990977250288</title>
<path fill="none" stroke="black" d="M703.56,-266.19C711.26,-268.38 720.06,-270.88 729,-273.42"/>
<polygon fill="black" stroke="black" points="727.88,-276.74 738.45,-276.1 729.79,-270 727.88,-276.74"/>
</g>
<!-- 1990979050176&#45;&gt;1990979047440 -->
<g id="edge12" class="edge">
<title>1990979050176&#45;&gt;1990979047440</title>
<path fill="none" stroke="black" d="M704.39,-76.69C713.37,-75.21 723.78,-73.49 734.13,-71.78"/>
<polygon fill="black" stroke="black" points="734.47,-75.27 743.77,-70.19 733.33,-68.37 734.47,-75.27"/>
</g>
<!-- 1990979056704&#45;&gt;1990979049840 -->
<g id="edge11" class="edge">
<title>1990979056704&#45;&gt;1990979049840</title>
<path fill="none" stroke="black" d="M704.67,-171C714.31,-171 725.57,-171 736.62,-171"/>
<polygon fill="black" stroke="black" points="736.47,-174.5 746.47,-171 736.47,-167.5 736.47,-174.5"/>
</g>
<!-- 1990976302368&#45;&gt;1990976301936 -->
<g id="edge23" class="edge">
<title>1990976302368&#45;&gt;1990976301936</title>
<path fill="none" stroke="black" d="M926.92,-171C934.23,-171 942.53,-171 951.09,-171"/>
<polygon fill="black" stroke="black" points="950.93,-174.5 960.93,-171 950.93,-167.5 950.93,-174.5"/>
</g>
<!-- 1990980253744&#45;&gt;1990977243904 -->
<g id="edge20" class="edge">
<title>1990980253744&#45;&gt;1990977243904</title>
<path fill="none" stroke="black" d="M926.92,-99C941.87,-99 960.95,-99 977.99,-99"/>
<polygon fill="black" stroke="black" points="977.88,-102.5 987.88,-99 977.88,-95.5 977.88,-102.5"/>
</g>
<!-- 1990980240736&#45;&gt;1990977243904 -->
<g id="edge21" class="edge">
<title>1990980240736&#45;&gt;1990977243904</title>
<path fill="none" stroke="black" d="M923.14,-40.54C939.26,-50.19 961.37,-63.41 980.48,-74.84"/>
<polygon fill="black" stroke="black" points="978.48,-77.72 988.86,-79.85 982.07,-71.71 978.48,-77.72"/>
</g>
<!-- 1990977254896&#45;&gt;1990976304192 -->
<g id="edge19" class="edge">
<title>1990977254896&#45;&gt;1990976304192</title>
<path fill="none" stroke="black" d="M926.92,-243C939.37,-243 954.67,-243 969.28,-243"/>
<polygon fill="black" stroke="black" points="969.27,-246.5 979.27,-243 969.27,-239.5 969.27,-246.5"/>
</g>
<!-- 1990980578160&#45;&gt;1990975903296 -->
<g id="edge22" class="edge">
<title>1990980578160&#45;&gt;1990975903296</title>
<path fill="none" stroke="black" d="M1049.06,-303.16C1079.06,-299.46 1129.47,-291.9 1171.25,-279 1183.38,-275.25 1196.09,-270.21 1207.82,-265.06"/>
<polygon fill="black" stroke="black" points="1209.23,-268.26 1216.89,-260.95 1206.34,-261.89 1209.23,-268.26"/>
</g>
<!-- 1990977252928&#45;&gt;1990977252064 -->
<g id="edge31" class="edge">
<title>1990977252928&#45;&gt;1990977252064</title>
<path fill="none" stroke="black" d="M1171.67,-99.97C1178.95,-100.24 1187.16,-100.54 1195.5,-100.84"/>
<polygon fill="black" stroke="black" points="1195.25,-104.34 1205.38,-101.2 1195.51,-97.34 1195.25,-104.34"/>
</g>
<!-- 1990975899840&#45;&gt;1990976604736 -->
<g id="edge30" class="edge">
<title>1990975899840&#45;&gt;1990976604736</title>
<path fill="none" stroke="black" d="M1391.24,-230.68C1403.14,-225.01 1418.01,-217.92 1432.18,-211.16"/>
<polygon fill="black" stroke="black" points="1433.45,-214.43 1440.97,-206.97 1430.43,-208.11 1433.45,-214.43"/>
</g>
<!-- 1990980567888&#45;&gt;1990975903296 -->
<g id="edge29" class="edge">
<title>1990980567888&#45;&gt;1990975903296</title>
<path fill="none" stroke="black" d="M1167.33,-185.37C1181.49,-194.58 1200.24,-206.78 1216.71,-217.5"/>
<polygon fill="black" stroke="black" points="1214.54,-220.25 1224.83,-222.77 1218.35,-214.39 1214.54,-220.25"/>
</g>
<!-- 1990980568416&#45;&gt;1990975903296 -->
<g id="edge28" class="edge">
<title>1990980568416&#45;&gt;1990975903296</title>
<path fill="none" stroke="black" d="M1171.67,-242.76C1180.1,-242.68 1189.77,-242.59 1199.45,-242.5"/>
<polygon fill="black" stroke="black" points="1199.27,-246.01 1209.24,-242.41 1199.21,-239.01 1199.27,-246.01"/>
</g>
<!-- 1990976616880&#45;&gt;1990980367088 -->
<g id="edge35" class="edge">
<title>1990976616880&#45;&gt;1990980367088</title>
<path fill="none" stroke="black" d="M1620.09,-164.12C1633.88,-154.82 1651.96,-142.64 1667.75,-132.01"/>
<polygon fill="black" stroke="black" points="1669.63,-134.96 1675.96,-126.47 1665.72,-129.15 1669.63,-134.96"/>
</g>
<!-- 1990976616880&#45;&gt;1990976972528 -->
<g id="edge34" class="edge">
<title>1990976616880&#45;&gt;1990976972528</title>
<path fill="none" stroke="black" d="M1624.32,-180C1631.69,-180.28 1640,-180.59 1648.38,-180.91"/>
<polygon fill="black" stroke="black" points="1648.14,-184.41 1658.27,-181.29 1648.41,-177.41 1648.14,-184.41"/>
</g>
<!-- 1990977253456&#45;&gt;1990977254272 -->
<g id="edge36" class="edge">
<title>1990977253456&#45;&gt;1990977254272</title>
<path fill="none" stroke="black" d="M1393.77,-105.23C1403.27,-105.32 1414.4,-105.41 1425.46,-105.51"/>
<polygon fill="black" stroke="black" points="1425.34,-109.01 1435.37,-105.6 1425.4,-102.01 1425.34,-109.01"/>
</g>
<!-- 1990977247552&#45;&gt;1990980367088 -->
<g id="edge40" class="edge">
<title>1990977247552&#45;&gt;1990980367088</title>
<path fill="none" stroke="black" d="M1624.32,-107.25C1636.89,-107.37 1652.16,-107.51 1665.92,-107.64"/>
<polygon fill="black" stroke="black" points="1665.48,-111.14 1675.51,-107.74 1665.55,-104.14 1665.48,-111.14"/>
</g>
<!-- 1990980249664&#45;&gt;1990980249712 -->
<g id="edge41" class="edge">
<title>1990980249664&#45;&gt;1990980249712</title>
<path fill="none" stroke="black" d="M1842.47,-192.01C1851.05,-194.01 1861.05,-196.35 1871.26,-198.73"/>
<polygon fill="black" stroke="black" points="1870.36,-202.12 1880.9,-200.98 1871.95,-195.3 1870.36,-202.12"/>
</g>
</g>
</svg>
