<?xml version="1.0" encoding="UTF-8" standalone="no"?>
<!DOCTYPE svg PUBLIC "-//W3C//DTD SVG 1.1//EN"
 "http://www.w3.org/Graphics/SVG/1.1/DTD/svg11.dtd">
<!-- Generated by graphviz version 11.0.0 (20240428.1522)
 -->
<!-- Title: imdf_net_1754051436.9687815 Pages: 1 -->
<svg width="3102pt" height="201pt"
 viewBox="0.00 0.00 3102.00 201.00" xmlns="http://www.w3.org/2000/svg" xmlns:xlink="http://www.w3.org/1999/xlink">
<g id="graph0" class="graph" transform="scale(1 1) rotate(0) translate(4 197)">
<title>imdf_net_1754051436.9687815</title>
<polygon fill="white" stroke="none" points="-4,4 -4,-197 3098,-197 3098,4 -4,4"/>
<!-- 1990978233232 -->
<g id="node1" class="node">
<title>1990978233232</title>
<polygon fill="white" stroke="black" points="160.75,-109 90,-109 90,-73 160.75,-73 160.75,-109"/>
<text text-anchor="middle" x="125.38" y="-85.97" font-family="Times New Roman,serif" font-size="12.00">Site Survey</text>
</g>
<!-- 1990978238992 -->
<g id="node21" class="node">
<title>1990978238992</title>
<ellipse fill="white" stroke="black" cx="223.75" cy="-91" rx="27" ry="27"/>
</g>
<!-- 1990978233232&#45;&gt;1990978238992 -->
<g id="edge2" class="edge">
<title>1990978233232&#45;&gt;1990978238992</title>
<path fill="none" stroke="black" d="M161.17,-91C168.9,-91 177.14,-91 184.98,-91"/>
<polygon fill="black" stroke="black" points="184.97,-94.5 194.97,-91 184.97,-87.5 184.97,-94.5"/>
</g>
<!-- 1990978235392 -->
<g id="node2" class="node">
<title>1990978235392</title>
<polygon fill="white" stroke="black" points="373.25,-109 286.75,-109 286.75,-73 373.25,-73 373.25,-109"/>
<text text-anchor="middle" x="330" y="-85.97" font-family="Times New Roman,serif" font-size="12.00">Design Layout</text>
</g>
<!-- 1990978230640 -->
<g id="node22" class="node">
<title>1990978230640</title>
<ellipse fill="white" stroke="black" cx="436.25" cy="-91" rx="27" ry="27"/>
</g>
<!-- 1990978235392&#45;&gt;1990978230640 -->
<g id="edge4" class="edge">
<title>1990978235392&#45;&gt;1990978230640</title>
<path fill="none" stroke="black" d="M373.7,-91C381.62,-91 389.84,-91 397.59,-91"/>
<polygon fill="black" stroke="black" points="397.39,-94.5 407.39,-91 397.39,-87.5 397.39,-94.5"/>
</g>
<!-- 1990980637456 -->
<g id="node3" class="node">
<title>1990980637456</title>
<polygon fill="white" stroke="black" points="600,-109 499.25,-109 499.25,-73 600,-73 600,-109"/>
<text text-anchor="middle" x="549.62" y="-85.97" font-family="Times New Roman,serif" font-size="12.00">Material Sourcing</text>
</g>
<!-- 1990980639232 -->
<g id="node23" class="node">
<title>1990980639232</title>
<ellipse fill="white" stroke="black" cx="663" cy="-91" rx="27" ry="27"/>
</g>
<!-- 1990980637456&#45;&gt;1990980639232 -->
<g id="edge6" class="edge">
<title>1990980637456&#45;&gt;1990980639232</title>
<path fill="none" stroke="black" d="M600.45,-91C608.43,-91 616.58,-91 624.22,-91"/>
<polygon fill="black" stroke="black" points="624.2,-94.5 634.2,-91 624.2,-87.5 624.2,-94.5"/>
</g>
<!-- 1990980637840 -->
<g id="node4" class="node">
<title>1990980637840</title>
<polygon fill="white" stroke="black" points="829,-109 726,-109 726,-73 829,-73 829,-109"/>
<text text-anchor="middle" x="777.5" y="-85.97" font-family="Times New Roman,serif" font-size="12.00">Module Assembly</text>
</g>
<!-- 1990980648784 -->
<g id="node24" class="node">
<title>1990980648784</title>
<ellipse fill="white" stroke="black" cx="892" cy="-91" rx="27" ry="27"/>
</g>
<!-- 1990980637840&#45;&gt;1990980648784 -->
<g id="edge8" class="edge">
<title>1990980637840&#45;&gt;1990980648784</title>
<path fill="none" stroke="black" d="M829.48,-91C837.5,-91 845.65,-91 853.29,-91"/>
<polygon fill="black" stroke="black" points="853.27,-94.5 863.27,-91 853.27,-87.5 853.27,-94.5"/>
</g>
<!-- 1990980646672 -->
<g id="node5" class="node">
<title>1990980646672</title>
<polygon fill="white" stroke="black" points="1041.5,-109 955,-109 955,-73 1041.5,-73 1041.5,-109"/>
<text text-anchor="middle" x="998.25" y="-85.97" font-family="Times New Roman,serif" font-size="12.00">System Wiring</text>
</g>
<!-- 1990971861536 -->
<g id="node25" class="node">
<title>1990971861536</title>
<ellipse fill="white" stroke="black" cx="1104.5" cy="-127" rx="27" ry="27"/>
</g>
<!-- 1990980646672&#45;&gt;1990971861536 -->
<g id="edge10" class="edge">
<title>1990980646672&#45;&gt;1990971861536</title>
<path fill="none" stroke="black" d="M1041.95,-105.75C1050.54,-108.71 1059.47,-111.8 1067.78,-114.67"/>
<polygon fill="black" stroke="black" points="1066.62,-117.97 1077.22,-117.92 1068.91,-111.35 1066.62,-117.97"/>
</g>
<!-- 1990975751376 -->
<g id="node26" class="node">
<title>1990975751376</title>
<ellipse fill="white" stroke="black" cx="1104.5" cy="-55" rx="27" ry="27"/>
</g>
<!-- 1990980646672&#45;&gt;1990975751376 -->
<g id="edge11" class="edge">
<title>1990980646672&#45;&gt;1990975751376</title>
<path fill="none" stroke="black" d="M1041.95,-76.25C1050.54,-73.29 1059.47,-70.2 1067.78,-67.33"/>
<polygon fill="black" stroke="black" points="1068.91,-70.65 1077.22,-64.08 1066.62,-64.03 1068.91,-70.65"/>
</g>
<!-- 1990971860480 -->
<g id="node6" class="node">
<title>1990971860480</title>
<polygon fill="white" stroke="black" points="1250.25,-73 1167.5,-73 1167.5,-37 1250.25,-37 1250.25,-73"/>
<text text-anchor="middle" x="1208.88" y="-49.98" font-family="Times New Roman,serif" font-size="12.00">Climate Setup</text>
</g>
<!-- 1990971864752 -->
<g id="node27" class="node">
<title>1990971864752</title>
<ellipse fill="white" stroke="black" cx="1313.25" cy="-55" rx="27" ry="27"/>
</g>
<!-- 1990971860480&#45;&gt;1990971864752 -->
<g id="edge14" class="edge">
<title>1990971860480&#45;&gt;1990971864752</title>
<path fill="none" stroke="black" d="M1250.63,-55C1258.48,-55 1266.67,-55 1274.42,-55"/>
<polygon fill="black" stroke="black" points="1274.24,-58.5 1284.24,-55 1274.24,-51.5 1274.24,-58.5"/>
</g>
<!-- 1990971863696 -->
<g id="node7" class="node">
<title>1990971863696</title>
<polygon fill="white" stroke="black" points="1248.75,-145 1169,-145 1169,-109 1248.75,-109 1248.75,-145"/>
<text text-anchor="middle" x="1208.88" y="-121.97" font-family="Times New Roman,serif" font-size="12.00">Sensor Install</text>
</g>
<!-- 1990971860672 -->
<g id="node28" class="node">
<title>1990971860672</title>
<ellipse fill="white" stroke="black" cx="1313.25" cy="-127" rx="27" ry="27"/>
</g>
<!-- 1990971863696&#45;&gt;1990971860672 -->
<g id="edge15" class="edge">
<title>1990971863696&#45;&gt;1990971860672</title>
<path fill="none" stroke="black" d="M1249.16,-127C1257.52,-127 1266.32,-127 1274.61,-127"/>
<polygon fill="black" stroke="black" points="1274.38,-130.5 1284.38,-127 1274.38,-123.5 1274.38,-130.5"/>
</g>
<!-- 1990971862448 -->
<g id="node8" class="node">
<title>1990971862448</title>
<polygon fill="white" stroke="black" points="1479.25,-73 1376.25,-73 1376.25,-37 1479.25,-37 1479.25,-73"/>
<text text-anchor="middle" x="1427.75" y="-49.98" font-family="Times New Roman,serif" font-size="12.00">Lighting Schedule</text>
</g>
<!-- 1990980635152 -->
<g id="node30" class="node">
<title>1990980635152</title>
<ellipse fill="white" stroke="black" cx="1542.25" cy="-55" rx="27" ry="27"/>
</g>
<!-- 1990971862448&#45;&gt;1990980635152 -->
<g id="edge19" class="edge">
<title>1990971862448&#45;&gt;1990980635152</title>
<path fill="none" stroke="black" d="M1479.73,-55C1487.75,-55 1495.9,-55 1503.54,-55"/>
<polygon fill="black" stroke="black" points="1503.52,-58.5 1513.52,-55 1503.52,-51.5 1503.52,-58.5"/>
</g>
<!-- 1990971852656 -->
<g id="node9" class="node">
<title>1990971852656</title>
<polygon fill="white" stroke="black" points="1469.12,-145 1386.38,-145 1386.38,-109 1469.12,-109 1469.12,-145"/>
<text text-anchor="middle" x="1427.75" y="-121.97" font-family="Times New Roman,serif" font-size="12.00">AI Integration</text>
</g>
<!-- 1990980633088 -->
<g id="node29" class="node">
<title>1990980633088</title>
<ellipse fill="white" stroke="black" cx="1542.25" cy="-127" rx="27" ry="27"/>
</g>
<!-- 1990971852656&#45;&gt;1990980633088 -->
<g id="edge18" class="edge">
<title>1990971852656&#45;&gt;1990980633088</title>
<path fill="none" stroke="black" d="M1469.37,-127C1480.55,-127 1492.63,-127 1503.64,-127"/>
<polygon fill="black" stroke="black" points="1503.56,-130.5 1513.56,-127 1503.56,-123.5 1503.56,-130.5"/>
</g>
<!-- 1990971858704 -->
<g id="node10" class="node">
<title>1990971858704</title>
<polygon fill="white" stroke="black" points="1686.5,-109 1605.25,-109 1605.25,-73 1686.5,-73 1686.5,-109"/>
<text text-anchor="middle" x="1645.88" y="-85.97" font-family="Times New Roman,serif" font-size="12.00">Crop Seeding</text>
</g>
<!-- 1990978403984 -->
<g id="node31" class="node">
<title>1990978403984</title>
<ellipse fill="white" stroke="black" cx="1749.5" cy="-127" rx="27" ry="27"/>
</g>
<!-- 1990971858704&#45;&gt;1990978403984 -->
<g id="edge23" class="edge">
<title>1990971858704&#45;&gt;1990978403984</title>
<path fill="none" stroke="black" d="M1686.75,-105.12C1695.41,-108.19 1704.51,-111.42 1712.99,-114.42"/>
<polygon fill="black" stroke="black" points="1711.67,-117.67 1722.26,-117.71 1714,-111.07 1711.67,-117.67"/>
</g>
<!-- 1990980638176 -->
<g id="node32" class="node">
<title>1990980638176</title>
<ellipse fill="white" stroke="black" cx="1749.5" cy="-55" rx="27" ry="27"/>
</g>
<!-- 1990971858704&#45;&gt;1990980638176 -->
<g id="edge22" class="edge">
<title>1990971858704&#45;&gt;1990980638176</title>
<path fill="none" stroke="black" d="M1686.75,-76.88C1695.41,-73.81 1704.51,-70.58 1712.99,-67.58"/>
<polygon fill="black" stroke="black" points="1714,-70.93 1722.26,-64.29 1711.67,-64.33 1714,-70.93"/>
</g>
<!-- 1990978404224 -->
<g id="node11" class="node">
<title>1990978404224</title>
<polygon fill="white" stroke="black" points="1914.75,-73 1819.25,-73 1819.25,-37 1914.75,-37 1914.75,-73"/>
<text text-anchor="middle" x="1867" y="-49.98" font-family="Times New Roman,serif" font-size="12.00">Water Recycling</text>
</g>
<!-- 1990978398944 -->
<g id="node34" class="node">
<title>1990978398944</title>
<ellipse fill="white" stroke="black" cx="1984.5" cy="-55" rx="27" ry="27"/>
</g>
<!-- 1990978404224&#45;&gt;1990978398944 -->
<g id="edge26" class="edge">
<title>1990978404224&#45;&gt;1990978398944</title>
<path fill="none" stroke="black" d="M1914.98,-55C1925.19,-55 1935.87,-55 1945.67,-55"/>
<polygon fill="black" stroke="black" points="1945.6,-58.5 1955.6,-55 1945.6,-51.5 1945.6,-58.5"/>
</g>
<!-- 1990978391792 -->
<g id="node12" class="node">
<title>1990978391792</title>
<polygon fill="white" stroke="black" points="1921.5,-145 1812.5,-145 1812.5,-109 1921.5,-109 1921.5,-145"/>
<text text-anchor="middle" x="1867" y="-121.97" font-family="Times New Roman,serif" font-size="12.00">Growth Monitoring</text>
</g>
<!-- 1990978392320 -->
<g id="node33" class="node">
<title>1990978392320</title>
<ellipse fill="white" stroke="black" cx="1984.5" cy="-127" rx="27" ry="27"/>
</g>
<!-- 1990978391792&#45;&gt;1990978392320 -->
<g id="edge27" class="edge">
<title>1990978391792&#45;&gt;1990978392320</title>
<path fill="none" stroke="black" d="M1921.69,-127C1929.91,-127 1938.23,-127 1946,-127"/>
<polygon fill="black" stroke="black" points="1945.76,-130.5 1955.76,-127 1945.76,-123.5 1945.76,-130.5"/>
</g>
<!-- 1990978397360 -->
<g id="node13" class="node">
<title>1990978397360</title>
<polygon fill="black" stroke="black" points="2113.25,-193 2059.25,-193 2059.25,-157 2113.25,-157 2113.25,-193"/>
</g>
<!-- 1990978397360&#45;&gt;1990978403984 -->
<g id="edge31" class="edge">
<title>1990978397360&#45;&gt;1990978403984</title>
<path fill="none" stroke="black" d="M2058.84,-175.85C2009.6,-176.81 1900.76,-175.95 1812.5,-154 1803.1,-151.66 1793.33,-148.03 1784.39,-144.18"/>
<polygon fill="black" stroke="black" points="1785.92,-141.03 1775.37,-140.07 1783.02,-147.4 1785.92,-141.03"/>
</g>
<!-- 1990978400720 -->
<g id="node14" class="node">
<title>1990978400720</title>
<polygon fill="white" stroke="black" points="2125,-73 2047.5,-73 2047.5,-37 2125,-37 2125,-73"/>
<text text-anchor="middle" x="2086.25" y="-49.98" font-family="Times New Roman,serif" font-size="12.00">Nutrient Mix</text>
</g>
<!-- 1990978392464 -->
<g id="node35" class="node">
<title>1990978392464</title>
<ellipse fill="white" stroke="black" cx="2188" cy="-55" rx="27" ry="27"/>
</g>
<!-- 1990978400720&#45;&gt;1990978392464 -->
<g id="edge32" class="edge">
<title>1990978400720&#45;&gt;1990978392464</title>
<path fill="none" stroke="black" d="M2125.25,-55C2133.07,-55 2141.31,-55 2149.13,-55"/>
<polygon fill="black" stroke="black" points="2149.05,-58.5 2159.05,-55 2149.05,-51.5 2149.05,-58.5"/>
</g>
<!-- 1990978388432 -->
<g id="node15" class="node">
<title>1990978388432</title>
<polygon fill="white" stroke="black" points="2562.75,-100 2476.25,-100 2476.25,-64 2562.75,-64 2562.75,-100"/>
<text text-anchor="middle" x="2519.5" y="-76.97" font-family="Times New Roman,serif" font-size="12.00">Yield Analysis</text>
</g>
<!-- 1990978392848 -->
<g id="node36" class="node">
<title>1990978392848</title>
<ellipse fill="white" stroke="black" cx="2625.75" cy="-82" rx="27" ry="27"/>
</g>
<!-- 1990978388432&#45;&gt;1990978392848 -->
<g id="edge33" class="edge">
<title>1990978388432&#45;&gt;1990978392848</title>
<path fill="none" stroke="black" d="M2563.2,-82C2571.12,-82 2579.34,-82 2587.09,-82"/>
<polygon fill="black" stroke="black" points="2586.89,-85.5 2596.89,-82 2586.89,-78.5 2586.89,-85.5"/>
</g>
<!-- 1990968835200 -->
<g id="node16" class="node">
<title>1990968835200</title>
<polygon fill="white" stroke="black" points="2790.25,-100 2688.75,-100 2688.75,-64 2790.25,-64 2790.25,-100"/>
<text text-anchor="middle" x="2739.5" y="-76.97" font-family="Times New Roman,serif" font-size="12.00">Regulation Check</text>
</g>
<!-- 1990976164240 -->
<g id="node37" class="node">
<title>1990976164240</title>
<ellipse fill="white" stroke="black" cx="2853.25" cy="-82" rx="27" ry="27"/>
</g>
<!-- 1990968835200&#45;&gt;1990976164240 -->
<g id="edge36" class="edge">
<title>1990968835200&#45;&gt;1990976164240</title>
<path fill="none" stroke="black" d="M2790.49,-82C2798.6,-82 2806.87,-82 2814.61,-82"/>
<polygon fill="black" stroke="black" points="2814.36,-85.5 2824.36,-82 2814.36,-78.5 2814.36,-85.5"/>
</g>
<!-- 1990978403696 -->
<g id="node17" class="node">
<title>1990978403696</title>
<polygon fill="white" stroke="black" points="2350.25,-73 2251,-73 2251,-37 2350.25,-37 2350.25,-73"/>
<text text-anchor="middle" x="2300.62" y="-49.98" font-family="Times New Roman,serif" font-size="12.00">Waste Processing</text>
</g>
<!-- 1990980637024 -->
<g id="node38" class="node">
<title>1990980637024</title>
<ellipse fill="white" stroke="black" cx="2413.25" cy="-55" rx="27" ry="27"/>
</g>
<!-- 1990978403696&#45;&gt;1990980637024 -->
<g id="edge37" class="edge">
<title>1990978403696&#45;&gt;1990980637024</title>
<path fill="none" stroke="black" d="M2350.47,-55C2358.54,-55 2366.8,-55 2374.54,-55"/>
<polygon fill="black" stroke="black" points="2374.3,-58.5 2384.3,-55 2374.3,-51.5 2374.3,-58.5"/>
</g>
<!-- 1990976166736 -->
<g id="node18" class="node">
<title>1990976166736</title>
<polygon fill="white" stroke="black" points="2996,-100 2916.25,-100 2916.25,-64 2996,-64 2996,-100"/>
<text text-anchor="middle" x="2956.12" y="-76.97" font-family="Times New Roman,serif" font-size="12.00">Market Setup</text>
</g>
<!-- 1990978237744 -->
<g id="node39" class="node">
<title>1990978237744</title>
<ellipse fill="white" stroke="black" cx="3063" cy="-82" rx="27" ry="27"/>
<ellipse fill="none" stroke="black" cx="3063" cy="-82" rx="31" ry="31"/>
<text text-anchor="start" x="3046.5" y="-66.6" font-family="Times New Roman,serif" font-size="32.00">■</text>
</g>
<!-- 1990976166736&#45;&gt;1990978237744 -->
<g id="edge42" class="edge">
<title>1990976166736&#45;&gt;1990978237744</title>
<path fill="none" stroke="black" d="M2996.47,-82C3004.19,-82 3012.32,-82 3020.12,-82"/>
<polygon fill="black" stroke="black" points="3020.1,-85.5 3030.1,-82 3020.1,-78.5 3020.1,-85.5"/>
</g>
<!-- 1990978393232 -->
<g id="node19" class="node">
<title>1990978393232</title>
<polygon fill="black" stroke="black" points="2546.5,-46 2492.5,-46 2492.5,-10 2546.5,-10 2546.5,-46"/>
</g>
<!-- 1990978393232&#45;&gt;1990980638176 -->
<g id="edge41" class="edge">
<title>1990978393232&#45;&gt;1990980638176</title>
<path fill="none" stroke="black" d="M2492.27,-22.4C2451.63,-14.23 2370.91,0 2301.62,0 1983.5,0 1983.5,0 1983.5,0 1906.49,0 1886.37,-6.24 1812.5,-28 1803.21,-30.74 1793.47,-34.51 1784.54,-38.37"/>
<polygon fill="black" stroke="black" points="1783.19,-35.14 1775.51,-42.44 1786.06,-41.53 1783.19,-35.14"/>
</g>
<!-- 1990978239136 -->
<g id="node20" class="node">
<title>1990978239136</title>
<ellipse fill="white" stroke="black" cx="27" cy="-91" rx="27" ry="27"/>
<text text-anchor="start" x="9.75" y="-73.7" font-family="Times New Roman,serif" font-size="34.00">●</text>
</g>
<!-- 1990978239136&#45;&gt;1990978233232 -->
<g id="edge1" class="edge">
<title>1990978239136&#45;&gt;1990978233232</title>
<path fill="none" stroke="black" d="M54.33,-91C61.76,-91 70.06,-91 78.28,-91"/>
<polygon fill="black" stroke="black" points="78.24,-94.5 88.24,-91 78.24,-87.5 78.24,-94.5"/>
</g>
<!-- 1990978238992&#45;&gt;1990978235392 -->
<g id="edge3" class="edge">
<title>1990978238992&#45;&gt;1990978235392</title>
<path fill="none" stroke="black" d="M251.06,-91C258.44,-91 266.74,-91 275.11,-91"/>
<polygon fill="black" stroke="black" points="274.96,-94.5 284.96,-91 274.96,-87.5 274.96,-94.5"/>
</g>
<!-- 1990978230640&#45;&gt;1990980637456 -->
<g id="edge5" class="edge">
<title>1990978230640&#45;&gt;1990980637456</title>
<path fill="none" stroke="black" d="M463.64,-91C470.9,-91 479.08,-91 487.42,-91"/>
<polygon fill="black" stroke="black" points="487.32,-94.5 497.32,-91 487.32,-87.5 487.32,-94.5"/>
</g>
<!-- 1990980639232&#45;&gt;1990980637840 -->
<g id="edge7" class="edge">
<title>1990980639232&#45;&gt;1990980637840</title>
<path fill="none" stroke="black" d="M690.38,-91C697.61,-91 705.77,-91 714.11,-91"/>
<polygon fill="black" stroke="black" points="714.02,-94.5 724.02,-91 714.02,-87.5 714.02,-94.5"/>
</g>
<!-- 1990980648784&#45;&gt;1990980646672 -->
<g id="edge9" class="edge">
<title>1990980648784&#45;&gt;1990980646672</title>
<path fill="none" stroke="black" d="M919.31,-91C926.69,-91 934.99,-91 943.36,-91"/>
<polygon fill="black" stroke="black" points="943.21,-94.5 953.21,-91 943.21,-87.5 943.21,-94.5"/>
</g>
<!-- 1990971861536&#45;&gt;1990971863696 -->
<g id="edge12" class="edge">
<title>1990971861536&#45;&gt;1990971863696</title>
<path fill="none" stroke="black" d="M1131.86,-127C1139.69,-127 1148.54,-127 1157.36,-127"/>
<polygon fill="black" stroke="black" points="1157.34,-130.5 1167.34,-127 1157.34,-123.5 1157.34,-130.5"/>
</g>
<!-- 1990975751376&#45;&gt;1990971860480 -->
<g id="edge13" class="edge">
<title>1990975751376&#45;&gt;1990971860480</title>
<path fill="none" stroke="black" d="M1131.86,-55C1139.28,-55 1147.61,-55 1155.96,-55"/>
<polygon fill="black" stroke="black" points="1155.77,-58.5 1165.77,-55 1155.77,-51.5 1155.77,-58.5"/>
</g>
<!-- 1990971864752&#45;&gt;1990971862448 -->
<g id="edge16" class="edge">
<title>1990971864752&#45;&gt;1990971862448</title>
<path fill="none" stroke="black" d="M1340.63,-55C1347.86,-55 1356.02,-55 1364.36,-55"/>
<polygon fill="black" stroke="black" points="1364.27,-58.5 1374.27,-55 1364.27,-51.5 1364.27,-58.5"/>
</g>
<!-- 1990971860672&#45;&gt;1990971852656 -->
<g id="edge17" class="edge">
<title>1990971860672&#45;&gt;1990971852656</title>
<path fill="none" stroke="black" d="M1340.63,-127C1350.86,-127 1362.96,-127 1374.8,-127"/>
<polygon fill="black" stroke="black" points="1374.49,-130.5 1384.49,-127 1374.49,-123.5 1374.49,-130.5"/>
</g>
<!-- 1990980633088&#45;&gt;1990971858704 -->
<g id="edge20" class="edge">
<title>1990980633088&#45;&gt;1990971858704</title>
<path fill="none" stroke="black" d="M1568.11,-118.19C1576.05,-115.38 1585.15,-112.16 1594.23,-108.94"/>
<polygon fill="black" stroke="black" points="1595.15,-112.33 1603.4,-105.69 1592.81,-105.73 1595.15,-112.33"/>
</g>
<!-- 1990980635152&#45;&gt;1990971858704 -->
<g id="edge21" class="edge">
<title>1990980635152&#45;&gt;1990971858704</title>
<path fill="none" stroke="black" d="M1568.11,-63.81C1576.05,-66.62 1585.15,-69.84 1594.23,-73.06"/>
<polygon fill="black" stroke="black" points="1592.81,-76.27 1603.4,-76.31 1595.15,-69.67 1592.81,-76.27"/>
</g>
<!-- 1990978403984&#45;&gt;1990978391792 -->
<g id="edge25" class="edge">
<title>1990978403984&#45;&gt;1990978391792</title>
<path fill="none" stroke="black" d="M1777,-127C1784.23,-127 1792.4,-127 1800.79,-127"/>
<polygon fill="black" stroke="black" points="1800.77,-130.5 1810.77,-127 1800.77,-123.5 1800.77,-130.5"/>
</g>
<!-- 1990980638176&#45;&gt;1990978404224 -->
<g id="edge24" class="edge">
<title>1990980638176&#45;&gt;1990978404224</title>
<path fill="none" stroke="black" d="M1777,-55C1786.1,-55 1796.67,-55 1807.29,-55"/>
<polygon fill="black" stroke="black" points="1807.25,-58.5 1817.25,-55 1807.25,-51.5 1807.25,-58.5"/>
</g>
<!-- 1990978392320&#45;&gt;1990978397360 -->
<g id="edge28" class="edge">
<title>1990978392320&#45;&gt;1990978397360</title>
<path fill="none" stroke="black" d="M2009.39,-138.5C2021.22,-144.19 2035.75,-151.18 2048.91,-157.51"/>
<polygon fill="black" stroke="black" points="2047.21,-160.58 2057.74,-161.76 2050.24,-154.27 2047.21,-160.58"/>
</g>
<!-- 1990978392320&#45;&gt;1990978388432 -->
<g id="edge29" class="edge">
<title>1990978392320&#45;&gt;1990978388432</title>
<path fill="none" stroke="black" d="M2011.9,-125.93C2050.39,-124.46 2124.19,-122 2187,-122 2187,-122 2187,-122 2301.62,-122 2358.15,-122 2421.62,-108.69 2465.21,-97.43"/>
<polygon fill="black" stroke="black" points="2465.89,-100.87 2474.67,-94.93 2464.1,-94.1 2465.89,-100.87"/>
</g>
<!-- 1990978398944&#45;&gt;1990978400720 -->
<g id="edge30" class="edge">
<title>1990978398944&#45;&gt;1990978400720</title>
<path fill="none" stroke="black" d="M2011.97,-55C2019.27,-55 2027.43,-55 2035.58,-55"/>
<polygon fill="black" stroke="black" points="2035.5,-58.5 2045.5,-55 2035.5,-51.5 2035.5,-58.5"/>
</g>
<!-- 1990978392464&#45;&gt;1990978403696 -->
<g id="edge35" class="edge">
<title>1990978392464&#45;&gt;1990978403696</title>
<path fill="none" stroke="black" d="M2215.5,-55C2222.79,-55 2231.02,-55 2239.39,-55"/>
<polygon fill="black" stroke="black" points="2239.32,-58.5 2249.32,-55 2239.32,-51.5 2239.32,-58.5"/>
</g>
<!-- 1990978392848&#45;&gt;1990968835200 -->
<g id="edge34" class="edge">
<title>1990978392848&#45;&gt;1990968835200</title>
<path fill="none" stroke="black" d="M2653.23,-82C2660.51,-82 2668.72,-82 2677.09,-82"/>
<polygon fill="black" stroke="black" points="2677.03,-85.5 2687.03,-82 2677.03,-78.5 2677.03,-85.5"/>
</g>
<!-- 1990976164240&#45;&gt;1990976166736 -->
<g id="edge40" class="edge">
<title>1990976164240&#45;&gt;1990976166736</title>
<path fill="none" stroke="black" d="M2880.49,-82C2887.96,-82 2896.35,-82 2904.74,-82"/>
<polygon fill="black" stroke="black" points="2904.58,-85.5 2914.58,-82 2904.58,-78.5 2904.58,-85.5"/>
</g>
<!-- 1990980637024&#45;&gt;1990978388432 -->
<g id="edge38" class="edge">
<title>1990980637024&#45;&gt;1990978388432</title>
<path fill="none" stroke="black" d="M2439.75,-61.6C2447.38,-63.58 2456.05,-65.83 2464.78,-68.09"/>
<polygon fill="black" stroke="black" points="2463.77,-71.44 2474.33,-70.56 2465.53,-64.66 2463.77,-71.44"/>
</g>
<!-- 1990980637024&#45;&gt;1990978393232 -->
<g id="edge39" class="edge">
<title>1990980637024&#45;&gt;1990978393232</title>
<path fill="none" stroke="black" d="M2439.75,-48.4C2452.19,-45.18 2467.38,-41.24 2481.09,-37.69"/>
<polygon fill="black" stroke="black" points="2481.9,-41.09 2490.71,-35.2 2480.15,-34.32 2481.9,-41.09"/>
</g>
</g>
</svg>
