<?xml version="1.0" encoding="UTF-8" standalone="no"?>
<!DOCTYPE svg PUBLIC "-//W3C//DTD SVG 1.1//EN"
 "http://www.w3.org/Graphics/SVG/1.1/DTD/svg11.dtd">
<!-- Generated by graphviz version 11.0.0 (20240428.1522)
 -->
<!-- Title: imdf_net_1754051416.4706068 Pages: 1 -->
<svg width="2953pt" height="134pt"
 viewBox="0.00 0.00 2953.25 134.00" xmlns="http://www.w3.org/2000/svg" xmlns:xlink="http://www.w3.org/1999/xlink">
<g id="graph0" class="graph" transform="scale(1 1) rotate(0) translate(4 130)">
<title>imdf_net_1754051416.4706068</title>
<polygon fill="white" stroke="none" points="-4,4 -4,-130 2949.25,-130 2949.25,4 -4,4"/>
<!-- 1990978470208 -->
<g id="node1" class="node">
<title>1990978470208</title>
<polygon fill="white" stroke="black" points="207.25,-81 90,-81 90,-45 207.25,-45 207.25,-81"/>
<text text-anchor="middle" x="148.62" y="-57.98" font-family="Times New Roman,serif" font-size="12.00">Component Sourcing</text>
</g>
<!-- 1990978485088 -->
<g id="node17" class="node">
<title>1990978485088</title>
<ellipse fill="white" stroke="black" cx="270.25" cy="-63" rx="27" ry="27"/>
</g>
<!-- 1990978470208&#45;&gt;1990978485088 -->
<g id="edge2" class="edge">
<title>1990978470208&#45;&gt;1990978485088</title>
<path fill="none" stroke="black" d="M207.69,-63C215.81,-63 223.98,-63 231.59,-63"/>
<polygon fill="black" stroke="black" points="231.49,-66.5 241.49,-63 231.49,-59.5 231.49,-66.5"/>
</g>
<!-- 1990978483312 -->
<g id="node2" class="node">
<title>1990978483312</title>
<polygon fill="white" stroke="black" points="425,-81 333.25,-81 333.25,-45 425,-45 425,-81"/>
<text text-anchor="middle" x="379.12" y="-57.98" font-family="Times New Roman,serif" font-size="12.00">Firmware Setup</text>
</g>
<!-- 1990978485136 -->
<g id="node18" class="node">
<title>1990978485136</title>
<ellipse fill="white" stroke="black" cx="488" cy="-99" rx="27" ry="27"/>
</g>
<!-- 1990978483312&#45;&gt;1990978485136 -->
<g id="edge5" class="edge">
<title>1990978483312&#45;&gt;1990978485136</title>
<path fill="none" stroke="black" d="M425.45,-78.27C434.05,-81.17 442.95,-84.16 451.21,-86.94"/>
<polygon fill="black" stroke="black" points="449.96,-90.22 460.55,-90.09 452.2,-83.58 449.96,-90.22"/>
</g>
<!-- 1990978470256 -->
<g id="node19" class="node">
<title>1990978470256</title>
<ellipse fill="white" stroke="black" cx="488" cy="-27" rx="27" ry="27"/>
</g>
<!-- 1990978483312&#45;&gt;1990978470256 -->
<g id="edge4" class="edge">
<title>1990978483312&#45;&gt;1990978470256</title>
<path fill="none" stroke="black" d="M425.45,-47.73C434.05,-44.83 442.95,-41.84 451.21,-39.06"/>
<polygon fill="black" stroke="black" points="452.2,-42.42 460.55,-35.91 449.96,-35.78 452.2,-42.42"/>
</g>
<!-- 1990978483888 -->
<g id="node3" class="node">
<title>1990978483888</title>
<polygon fill="white" stroke="black" points="646.12,-117 564.88,-117 564.88,-81 646.12,-81 646.12,-117"/>
<text text-anchor="middle" x="605.5" y="-93.97" font-family="Times New Roman,serif" font-size="12.00">Quality Audit</text>
</g>
<!-- 1990978763232 -->
<g id="node21" class="node">
<title>1990978763232</title>
<ellipse fill="white" stroke="black" cx="723" cy="-99" rx="27" ry="27"/>
</g>
<!-- 1990978483888&#45;&gt;1990978763232 -->
<g id="edge8" class="edge">
<title>1990978483888&#45;&gt;1990978763232</title>
<path fill="none" stroke="black" d="M646.57,-99C658.92,-99 672.45,-99 684.61,-99"/>
<polygon fill="black" stroke="black" points="684.24,-102.5 694.24,-99 684.24,-95.5 684.24,-102.5"/>
</g>
<!-- 1990978471504 -->
<g id="node4" class="node">
<title>1990978471504</title>
<polygon fill="white" stroke="black" points="660,-45 551,-45 551,-9 660,-9 660,-45"/>
<text text-anchor="middle" x="605.5" y="-21.98" font-family="Times New Roman,serif" font-size="12.00">Preliminary Testing</text>
</g>
<!-- 1990978763088 -->
<g id="node20" class="node">
<title>1990978763088</title>
<ellipse fill="white" stroke="black" cx="723" cy="-27" rx="27" ry="27"/>
</g>
<!-- 1990978471504&#45;&gt;1990978763088 -->
<g id="edge9" class="edge">
<title>1990978471504&#45;&gt;1990978763088</title>
<path fill="none" stroke="black" d="M660.19,-27C668.41,-27 676.73,-27 684.5,-27"/>
<polygon fill="black" stroke="black" points="684.26,-30.5 694.26,-27 684.26,-23.5 684.26,-30.5"/>
</g>
<!-- 1990979174128 -->
<g id="node5" class="node">
<title>1990979174128</title>
<polygon fill="white" stroke="black" points="889,-81 786,-81 786,-45 889,-45 889,-81"/>
<text text-anchor="middle" x="837.5" y="-57.98" font-family="Times New Roman,serif" font-size="12.00">Module Assembly</text>
</g>
<!-- 1990979164240 -->
<g id="node22" class="node">
<title>1990979164240</title>
<ellipse fill="white" stroke="black" cx="952" cy="-63" rx="27" ry="27"/>
</g>
<!-- 1990979174128&#45;&gt;1990979164240 -->
<g id="edge12" class="edge">
<title>1990979174128&#45;&gt;1990979164240</title>
<path fill="none" stroke="black" d="M889.48,-63C897.5,-63 905.65,-63 913.29,-63"/>
<polygon fill="black" stroke="black" points="913.27,-66.5 923.27,-63 913.27,-59.5 913.27,-66.5"/>
</g>
<!-- 1990979168656 -->
<g id="node6" class="node">
<title>1990979168656</title>
<polygon fill="white" stroke="black" points="1097,-81 1015,-81 1015,-45 1097,-45 1097,-81"/>
<text text-anchor="middle" x="1056" y="-57.98" font-family="Times New Roman,serif" font-size="12.00">Stress Testing</text>
</g>
<!-- 1990979169712 -->
<g id="node23" class="node">
<title>1990979169712</title>
<ellipse fill="white" stroke="black" cx="1160" cy="-63" rx="27" ry="27"/>
</g>
<!-- 1990979168656&#45;&gt;1990979169712 -->
<g id="edge14" class="edge">
<title>1990979168656&#45;&gt;1990979169712</title>
<path fill="none" stroke="black" d="M1097.31,-63C1105.23,-63 1113.5,-63 1121.32,-63"/>
<polygon fill="black" stroke="black" points="1121.23,-66.5 1131.23,-63 1121.23,-59.5 1121.23,-66.5"/>
</g>
<!-- 1990980444736 -->
<g id="node7" class="node">
<title>1990980444736</title>
<polygon fill="white" stroke="black" points="1326,-81 1223,-81 1223,-45 1326,-45 1326,-81"/>
<text text-anchor="middle" x="1274.5" y="-57.98" font-family="Times New Roman,serif" font-size="12.00">Calibration Adjust</text>
</g>
<!-- 1990971767696 -->
<g id="node24" class="node">
<title>1990971767696</title>
<ellipse fill="white" stroke="black" cx="1389" cy="-99" rx="27" ry="27"/>
</g>
<!-- 1990980444736&#45;&gt;1990971767696 -->
<g id="edge17" class="edge">
<title>1990980444736&#45;&gt;1990971767696</title>
<path fill="none" stroke="black" d="M1326.48,-79.31C1335.2,-82.1 1344.08,-84.95 1352.29,-87.57"/>
<polygon fill="black" stroke="black" points="1350.95,-90.82 1361.54,-90.53 1353.08,-84.15 1350.95,-90.82"/>
</g>
<!-- 1990980441184 -->
<g id="node25" class="node">
<title>1990980441184</title>
<ellipse fill="white" stroke="black" cx="1389" cy="-27" rx="27" ry="27"/>
</g>
<!-- 1990980444736&#45;&gt;1990980441184 -->
<g id="edge16" class="edge">
<title>1990980444736&#45;&gt;1990980441184</title>
<path fill="none" stroke="black" d="M1326.48,-46.69C1335.2,-43.9 1344.08,-41.05 1352.29,-38.43"/>
<polygon fill="black" stroke="black" points="1353.08,-41.85 1361.54,-35.47 1350.95,-35.18 1353.08,-41.85"/>
</g>
<!-- 1990971762512 -->
<g id="node8" class="node">
<title>1990971762512</title>
<polygon fill="white" stroke="black" points="1534.75,-117 1452,-117 1452,-81 1534.75,-81 1534.75,-117"/>
<text text-anchor="middle" x="1493.38" y="-93.97" font-family="Times New Roman,serif" font-size="12.00">Flight Control</text>
</g>
<!-- 1990980027408 -->
<g id="node27" class="node">
<title>1990980027408</title>
<ellipse fill="white" stroke="black" cx="1597.75" cy="-99" rx="27" ry="27"/>
</g>
<!-- 1990971762512&#45;&gt;1990980027408 -->
<g id="edge21" class="edge">
<title>1990971762512&#45;&gt;1990980027408</title>
<path fill="none" stroke="black" d="M1535.13,-99C1542.98,-99 1551.17,-99 1558.92,-99"/>
<polygon fill="black" stroke="black" points="1558.74,-102.5 1568.74,-99 1558.74,-95.5 1558.74,-102.5"/>
</g>
<!-- 1990980442480 -->
<g id="node9" class="node">
<title>1990980442480</title>
<polygon fill="white" stroke="black" points="1534.38,-45 1452.38,-45 1452.38,-9 1534.38,-9 1534.38,-45"/>
<text text-anchor="middle" x="1493.38" y="-21.98" font-family="Times New Roman,serif" font-size="12.00">Sensor Check</text>
</g>
<!-- 1990978759296 -->
<g id="node26" class="node">
<title>1990978759296</title>
<ellipse fill="white" stroke="black" cx="1597.75" cy="-27" rx="27" ry="27"/>
</g>
<!-- 1990980442480&#45;&gt;1990978759296 -->
<g id="edge20" class="edge">
<title>1990980442480&#45;&gt;1990978759296</title>
<path fill="none" stroke="black" d="M1534.84,-27C1542.78,-27 1551.08,-27 1558.93,-27"/>
<polygon fill="black" stroke="black" points="1558.88,-30.5 1568.88,-27 1558.88,-23.5 1558.88,-30.5"/>
</g>
<!-- 1990971753104 -->
<g id="node10" class="node">
<title>1990971753104</title>
<polygon fill="white" stroke="black" points="1749.5,-81 1660.75,-81 1660.75,-45 1749.5,-45 1749.5,-81"/>
<text text-anchor="middle" x="1705.12" y="-57.98" font-family="Times New Roman,serif" font-size="12.00">Documentation</text>
</g>
<!-- 1990979664208 -->
<g id="node28" class="node">
<title>1990979664208</title>
<ellipse fill="white" stroke="black" cx="1812.5" cy="-63" rx="27" ry="27"/>
</g>
<!-- 1990971753104&#45;&gt;1990979664208 -->
<g id="edge24" class="edge">
<title>1990971753104&#45;&gt;1990979664208</title>
<path fill="none" stroke="black" d="M1749.9,-63C1757.86,-63 1766.1,-63 1773.86,-63"/>
<polygon fill="black" stroke="black" points="1773.67,-66.5 1783.67,-63 1773.67,-59.5 1773.67,-66.5"/>
</g>
<!-- 1990979659456 -->
<g id="node11" class="node">
<title>1990979659456</title>
<polygon fill="white" stroke="black" points="1959.75,-81 1875.5,-81 1875.5,-45 1959.75,-45 1959.75,-81"/>
<text text-anchor="middle" x="1917.62" y="-57.98" font-family="Times New Roman,serif" font-size="12.00">Client Review</text>
</g>
<!-- 1990976615152 -->
<g id="node29" class="node">
<title>1990976615152</title>
<ellipse fill="white" stroke="black" cx="2022.75" cy="-63" rx="27" ry="27"/>
</g>
<!-- 1990979659456&#45;&gt;1990976615152 -->
<g id="edge26" class="edge">
<title>1990979659456&#45;&gt;1990976615152</title>
<path fill="none" stroke="black" d="M1959.98,-63C1967.94,-63 1976.24,-63 1984.08,-63"/>
<polygon fill="black" stroke="black" points="1984,-66.5 1994,-63 1984,-59.5 1984,-66.5"/>
</g>
<!-- 1990976608528 -->
<g id="node12" class="node">
<title>1990976608528</title>
<polygon fill="white" stroke="black" points="2176,-81 2085.75,-81 2085.75,-45 2176,-45 2176,-81"/>
<text text-anchor="middle" x="2130.88" y="-57.98" font-family="Times New Roman,serif" font-size="12.00">Packaging Prep</text>
</g>
<!-- 1990980250864 -->
<g id="node30" class="node">
<title>1990980250864</title>
<ellipse fill="white" stroke="black" cx="2239" cy="-63" rx="27" ry="27"/>
</g>
<!-- 1990976608528&#45;&gt;1990980250864 -->
<g id="edge28" class="edge">
<title>1990976608528&#45;&gt;1990980250864</title>
<path fill="none" stroke="black" d="M2176.27,-63C2184.26,-63 2192.53,-63 2200.31,-63"/>
<polygon fill="black" stroke="black" points="2200.14,-66.5 2210.14,-63 2200.14,-59.5 2200.14,-66.5"/>
</g>
<!-- 1990980576000 -->
<g id="node13" class="node">
<title>1990980576000</title>
<polygon fill="white" stroke="black" points="2384.75,-81 2302,-81 2302,-45 2384.75,-45 2384.75,-81"/>
<text text-anchor="middle" x="2343.38" y="-57.98" font-family="Times New Roman,serif" font-size="12.00">Logistics Plan</text>
</g>
<!-- 1990976968352 -->
<g id="node31" class="node">
<title>1990976968352</title>
<ellipse fill="white" stroke="black" cx="2447.75" cy="-63" rx="27" ry="27"/>
</g>
<!-- 1990980576000&#45;&gt;1990976968352 -->
<g id="edge30" class="edge">
<title>1990980576000&#45;&gt;1990976968352</title>
<path fill="none" stroke="black" d="M2385.13,-63C2392.98,-63 2401.17,-63 2408.92,-63"/>
<polygon fill="black" stroke="black" points="2408.74,-66.5 2418.74,-63 2408.74,-59.5 2408.74,-66.5"/>
</g>
<!-- 1990971921264 -->
<g id="node14" class="node">
<title>1990971921264</title>
<polygon fill="white" stroke="black" points="2611.5,-81 2510.75,-81 2510.75,-45 2611.5,-45 2611.5,-81"/>
<text text-anchor="middle" x="2561.12" y="-57.98" font-family="Times New Roman,serif" font-size="12.00">Shipping Arrange</text>
</g>
<!-- 1990971931008 -->
<g id="node32" class="node">
<title>1990971931008</title>
<ellipse fill="white" stroke="black" cx="2674.5" cy="-63" rx="27" ry="27"/>
</g>
<!-- 1990971921264&#45;&gt;1990971931008 -->
<g id="edge32" class="edge">
<title>1990971921264&#45;&gt;1990971931008</title>
<path fill="none" stroke="black" d="M2611.95,-63C2619.93,-63 2628.08,-63 2635.72,-63"/>
<polygon fill="black" stroke="black" points="2635.7,-66.5 2645.7,-63 2635.7,-59.5 2635.7,-66.5"/>
</g>
<!-- 1990971926016 -->
<g id="node15" class="node">
<title>1990971926016</title>
<polygon fill="white" stroke="black" points="2847.25,-81 2737.5,-81 2737.5,-45 2847.25,-45 2847.25,-81"/>
<text text-anchor="middle" x="2792.38" y="-57.98" font-family="Times New Roman,serif" font-size="12.00">After&#45;Sales Support</text>
</g>
<!-- 1990977863552 -->
<g id="node33" class="node">
<title>1990977863552</title>
<ellipse fill="white" stroke="black" cx="2914.25" cy="-63" rx="27" ry="27"/>
<ellipse fill="none" stroke="black" cx="2914.25" cy="-63" rx="31" ry="31"/>
<text text-anchor="start" x="2897.75" y="-47.6" font-family="Times New Roman,serif" font-size="32.00">■</text>
</g>
<!-- 1990971926016&#45;&gt;1990977863552 -->
<g id="edge34" class="edge">
<title>1990971926016&#45;&gt;1990977863552</title>
<path fill="none" stroke="black" d="M2847.7,-63C2855.76,-63 2863.96,-63 2871.71,-63"/>
<polygon fill="black" stroke="black" points="2871.53,-66.5 2881.53,-63 2871.53,-59.5 2871.53,-66.5"/>
</g>
<!-- 1990977861488 -->
<g id="node16" class="node">
<title>1990977861488</title>
<ellipse fill="white" stroke="black" cx="27" cy="-63" rx="27" ry="27"/>
<text text-anchor="start" x="9.75" y="-45.7" font-family="Times New Roman,serif" font-size="34.00">●</text>
</g>
<!-- 1990977861488&#45;&gt;1990978470208 -->
<g id="edge1" class="edge">
<title>1990977861488&#45;&gt;1990978470208</title>
<path fill="none" stroke="black" d="M54.25,-63C61.52,-63 69.77,-63 78.28,-63"/>
<polygon fill="black" stroke="black" points="78.05,-66.5 88.05,-63 78.05,-59.5 78.05,-66.5"/>
</g>
<!-- 1990978485088&#45;&gt;1990978483312 -->
<g id="edge3" class="edge">
<title>1990978485088&#45;&gt;1990978483312</title>
<path fill="none" stroke="black" d="M297.67,-63C304.98,-63 313.2,-63 321.53,-63"/>
<polygon fill="black" stroke="black" points="321.36,-66.5 331.36,-63 321.36,-59.5 321.36,-66.5"/>
</g>
<!-- 1990978485136&#45;&gt;1990978483888 -->
<g id="edge6" class="edge">
<title>1990978485136&#45;&gt;1990978483888</title>
<path fill="none" stroke="black" d="M515.5,-99C526.73,-99 540.21,-99 553.25,-99"/>
<polygon fill="black" stroke="black" points="553.01,-102.5 563.01,-99 553.01,-95.5 553.01,-102.5"/>
</g>
<!-- 1990978470256&#45;&gt;1990978471504 -->
<g id="edge7" class="edge">
<title>1990978470256&#45;&gt;1990978471504</title>
<path fill="none" stroke="black" d="M515.5,-27C522.73,-27 530.9,-27 539.29,-27"/>
<polygon fill="black" stroke="black" points="539.27,-30.5 549.27,-27 539.27,-23.5 539.27,-30.5"/>
</g>
<!-- 1990978763088&#45;&gt;1990979174128 -->
<g id="edge10" class="edge">
<title>1990978763088&#45;&gt;1990979174128</title>
<path fill="none" stroke="black" d="M749.25,-35.08C756.89,-37.53 765.65,-40.33 774.6,-43.19"/>
<polygon fill="black" stroke="black" points="773.52,-46.52 784.11,-46.23 775.65,-39.85 773.52,-46.52"/>
</g>
<!-- 1990978763232&#45;&gt;1990979174128 -->
<g id="edge11" class="edge">
<title>1990978763232&#45;&gt;1990979174128</title>
<path fill="none" stroke="black" d="M749.25,-90.92C756.89,-88.47 765.65,-85.67 774.6,-82.81"/>
<polygon fill="black" stroke="black" points="775.65,-86.15 784.11,-79.77 773.52,-79.48 775.65,-86.15"/>
</g>
<!-- 1990979164240&#45;&gt;1990979168656 -->
<g id="edge13" class="edge">
<title>1990979164240&#45;&gt;1990979168656</title>
<path fill="none" stroke="black" d="M979.27,-63C986.65,-63 994.95,-63 1003.28,-63"/>
<polygon fill="black" stroke="black" points="1003.05,-66.5 1013.05,-63 1003.05,-59.5 1003.05,-66.5"/>
</g>
<!-- 1990979169712&#45;&gt;1990980444736 -->
<g id="edge15" class="edge">
<title>1990979169712&#45;&gt;1990980444736</title>
<path fill="none" stroke="black" d="M1187.38,-63C1194.61,-63 1202.77,-63 1211.11,-63"/>
<polygon fill="black" stroke="black" points="1211.02,-66.5 1221.02,-63 1211.02,-59.5 1211.02,-66.5"/>
</g>
<!-- 1990971767696&#45;&gt;1990971762512 -->
<g id="edge18" class="edge">
<title>1990971767696&#45;&gt;1990971762512</title>
<path fill="none" stroke="black" d="M1416.36,-99C1423.78,-99 1432.11,-99 1440.46,-99"/>
<polygon fill="black" stroke="black" points="1440.27,-102.5 1450.27,-99 1440.27,-95.5 1440.27,-102.5"/>
</g>
<!-- 1990980441184&#45;&gt;1990980442480 -->
<g id="edge19" class="edge">
<title>1990980441184&#45;&gt;1990980442480</title>
<path fill="none" stroke="black" d="M1416.36,-27C1423.86,-27 1432.29,-27 1440.74,-27"/>
<polygon fill="black" stroke="black" points="1440.67,-30.5 1450.67,-27 1440.67,-23.5 1440.67,-30.5"/>
</g>
<!-- 1990978759296&#45;&gt;1990971753104 -->
<g id="edge23" class="edge">
<title>1990978759296&#45;&gt;1990971753104</title>
<path fill="none" stroke="black" d="M1623.72,-35.53C1631.6,-38.22 1640.62,-41.31 1649.72,-44.41"/>
<polygon fill="black" stroke="black" points="1648.34,-47.64 1658.93,-47.56 1650.6,-41.02 1648.34,-47.64"/>
</g>
<!-- 1990980027408&#45;&gt;1990971753104 -->
<g id="edge22" class="edge">
<title>1990980027408&#45;&gt;1990971753104</title>
<path fill="none" stroke="black" d="M1623.72,-90.47C1631.6,-87.78 1640.62,-84.69 1649.72,-81.59"/>
<polygon fill="black" stroke="black" points="1650.6,-84.98 1658.93,-78.44 1648.34,-78.36 1650.6,-84.98"/>
</g>
<!-- 1990979664208&#45;&gt;1990979659456 -->
<g id="edge25" class="edge">
<title>1990979664208&#45;&gt;1990979659456</title>
<path fill="none" stroke="black" d="M1839.79,-63C1847.17,-63 1855.48,-63 1863.82,-63"/>
<polygon fill="black" stroke="black" points="1863.64,-66.5 1873.64,-63 1863.64,-59.5 1863.64,-66.5"/>
</g>
<!-- 1990976615152&#45;&gt;1990976608528 -->
<g id="edge27" class="edge">
<title>1990976615152&#45;&gt;1990976608528</title>
<path fill="none" stroke="black" d="M2049.98,-63C2057.33,-63 2065.6,-63 2073.97,-63"/>
<polygon fill="black" stroke="black" points="2073.84,-66.5 2083.84,-63 2073.84,-59.5 2073.84,-66.5"/>
</g>
<!-- 1990980250864&#45;&gt;1990980576000 -->
<g id="edge29" class="edge">
<title>1990980250864&#45;&gt;1990980576000</title>
<path fill="none" stroke="black" d="M2266.36,-63C2273.78,-63 2282.11,-63 2290.46,-63"/>
<polygon fill="black" stroke="black" points="2290.27,-66.5 2300.27,-63 2290.27,-59.5 2290.27,-66.5"/>
</g>
<!-- 1990976968352&#45;&gt;1990971921264 -->
<g id="edge31" class="edge">
<title>1990976968352&#45;&gt;1990971921264</title>
<path fill="none" stroke="black" d="M2475.14,-63C2482.4,-63 2490.58,-63 2498.92,-63"/>
<polygon fill="black" stroke="black" points="2498.82,-66.5 2508.82,-63 2498.82,-59.5 2498.82,-66.5"/>
</g>
<!-- 1990971931008&#45;&gt;1990971926016 -->
<g id="edge33" class="edge">
<title>1990971931008&#45;&gt;1990971926016</title>
<path fill="none" stroke="black" d="M2701.79,-63C2709.13,-63 2717.44,-63 2725.97,-63"/>
<polygon fill="black" stroke="black" points="2725.74,-66.5 2735.74,-63 2725.74,-59.5 2725.74,-66.5"/>
</g>
</g>
</svg>
