<?xml version="1.0" encoding="UTF-8" standalone="no"?>
<!DOCTYPE svg PUBLIC "-//W3C//DTD SVG 1.1//EN"
 "http://www.w3.org/Graphics/SVG/1.1/DTD/svg11.dtd">
<!-- Generated by graphviz version 11.0.0 (20240428.1522)
 -->
<!-- Title: imdf_net_1754051427.882646 Pages: 1 -->
<svg width="3288pt" height="166pt"
 viewBox="0.00 0.00 3288.25 166.00" xmlns="http://www.w3.org/2000/svg" xmlns:xlink="http://www.w3.org/1999/xlink">
<g id="graph0" class="graph" transform="scale(1 1) rotate(0) translate(4 162)">
<title>imdf_net_1754051427.882646</title>
<polygon fill="white" stroke="none" points="-4,4 -4,-162 3284.25,-162 3284.25,4 -4,4"/>
<!-- 1990971343456 -->
<g id="node1" class="node">
<title>1990971343456</title>
<polygon fill="white" stroke="black" points="184,-148 90,-148 90,-112 184,-112 184,-148"/>
<text text-anchor="middle" x="137" y="-124.97" font-family="Times New Roman,serif" font-size="12.00">Ingredient Scout</text>
</g>
<!-- 1990971346624 -->
<g id="node19" class="node">
<title>1990971346624</title>
<ellipse fill="white" stroke="black" cx="247" cy="-130" rx="27" ry="27"/>
</g>
<!-- 1990971343456&#45;&gt;1990971346624 -->
<g id="edge2" class="edge">
<title>1990971343456&#45;&gt;1990971346624</title>
<path fill="none" stroke="black" d="M184.43,-130C192.31,-130 200.41,-130 208.03,-130"/>
<polygon fill="black" stroke="black" points="208.02,-133.5 218.02,-130 208.02,-126.5 208.02,-133.5"/>
</g>
<!-- 1990978183456 -->
<g id="node2" class="node">
<title>1990978183456</title>
<polygon fill="white" stroke="black" points="389.75,-148 310,-148 310,-112 389.75,-112 389.75,-148"/>
<text text-anchor="middle" x="349.88" y="-124.97" font-family="Times New Roman,serif" font-size="12.00">Forager Meet</text>
</g>
<!-- 1990978183072 -->
<g id="node20" class="node">
<title>1990978183072</title>
<ellipse fill="white" stroke="black" cx="452.75" cy="-130" rx="27" ry="27"/>
</g>
<!-- 1990978183456&#45;&gt;1990978183072 -->
<g id="edge4" class="edge">
<title>1990978183456&#45;&gt;1990978183072</title>
<path fill="none" stroke="black" d="M390.16,-130C398.03,-130 406.27,-130 414.07,-130"/>
<polygon fill="black" stroke="black" points="413.97,-133.5 423.97,-130 413.97,-126.5 413.97,-133.5"/>
</g>
<!-- 1990977088368 -->
<g id="node3" class="node">
<title>1990977088368</title>
<polygon fill="white" stroke="black" points="592.5,-148 515.75,-148 515.75,-112 592.5,-112 592.5,-148"/>
<text text-anchor="middle" x="554.12" y="-124.97" font-family="Times New Roman,serif" font-size="12.00">Recipe Draft</text>
</g>
<!-- 1990977082320 -->
<g id="node21" class="node">
<title>1990977082320</title>
<ellipse fill="white" stroke="black" cx="655.5" cy="-130" rx="27" ry="27"/>
</g>
<!-- 1990977088368&#45;&gt;1990977082320 -->
<g id="edge6" class="edge">
<title>1990977088368&#45;&gt;1990977082320</title>
<path fill="none" stroke="black" d="M592.98,-130C600.77,-130 608.98,-130 616.77,-130"/>
<polygon fill="black" stroke="black" points="616.65,-133.5 626.65,-130 616.65,-126.5 616.65,-133.5"/>
</g>
<!-- 1990975869808 -->
<g id="node4" class="node">
<title>1990975869808</title>
<polygon fill="white" stroke="black" points="791.5,-125 718.5,-125 718.5,-89 791.5,-89 791.5,-125"/>
<text text-anchor="middle" x="755" y="-101.97" font-family="Times New Roman,serif" font-size="12.00">Lab Testing</text>
</g>
<!-- 1990969797488 -->
<g id="node22" class="node">
<title>1990969797488</title>
<ellipse fill="white" stroke="black" cx="854.5" cy="-101" rx="27" ry="27"/>
</g>
<!-- 1990975869808&#45;&gt;1990969797488 -->
<g id="edge8" class="edge">
<title>1990975869808&#45;&gt;1990969797488</title>
<path fill="none" stroke="black" d="M791.75,-104.8C799.64,-104.31 808.02,-103.8 815.97,-103.31"/>
<polygon fill="black" stroke="black" points="815.94,-106.82 825.71,-102.71 815.51,-99.83 815.94,-106.82"/>
</g>
<!-- 1990969794080 -->
<g id="node5" class="node">
<title>1990969794080</title>
<polygon fill="white" stroke="black" points="1005.5,-117 917.5,-117 917.5,-81 1005.5,-81 1005.5,-117"/>
<text text-anchor="middle" x="961.5" y="-93.97" font-family="Times New Roman,serif" font-size="12.00">Batch Brewing</text>
</g>
<!-- 1990969796816 -->
<g id="node23" class="node">
<title>1990969796816</title>
<ellipse fill="white" stroke="black" cx="1068.5" cy="-95" rx="27" ry="27"/>
</g>
<!-- 1990969794080&#45;&gt;1990969796816 -->
<g id="edge10" class="edge">
<title>1990969794080&#45;&gt;1990969796816</title>
<path fill="none" stroke="black" d="M1005.81,-97.35C1013.77,-97.05 1022.01,-96.73 1029.78,-96.44"/>
<polygon fill="black" stroke="black" points="1029.75,-99.94 1039.61,-96.06 1029.48,-92.95 1029.75,-99.94"/>
</g>
<!-- 1990980368144 -->
<g id="node6" class="node">
<title>1990980368144</title>
<polygon fill="white" stroke="black" points="1212.75,-113 1131.5,-113 1131.5,-77 1212.75,-77 1212.75,-113"/>
<text text-anchor="middle" x="1172.12" y="-89.97" font-family="Times New Roman,serif" font-size="12.00">Quality Audit</text>
</g>
<!-- 1990975865728 -->
<g id="node24" class="node">
<title>1990975865728</title>
<ellipse fill="white" stroke="black" cx="1275.75" cy="-95" rx="27" ry="27"/>
</g>
<!-- 1990980368144&#45;&gt;1990975865728 -->
<g id="edge12" class="edge">
<title>1990980368144&#45;&gt;1990975865728</title>
<path fill="none" stroke="black" d="M1213,-95C1220.9,-95 1229.17,-95 1237,-95"/>
<polygon fill="black" stroke="black" points="1236.92,-98.5 1246.92,-95 1236.92,-91.5 1236.92,-98.5"/>
</g>
<!-- 1990977923040 -->
<g id="node7" class="node">
<title>1990977923040</title>
<polygon fill="white" stroke="black" points="1419.25,-117 1338.75,-117 1338.75,-81 1419.25,-81 1419.25,-117"/>
<text text-anchor="middle" x="1379" y="-93.97" font-family="Times New Roman,serif" font-size="12.00">Tasting Panel</text>
</g>
<!-- 1990980575136 -->
<g id="node26" class="node">
<title>1990980575136</title>
<ellipse fill="white" stroke="black" cx="1482.25" cy="-103" rx="27" ry="27"/>
</g>
<!-- 1990977923040&#45;&gt;1990980575136 -->
<g id="edge15" class="edge">
<title>1990977923040&#45;&gt;1990980575136</title>
<path fill="none" stroke="black" d="M1419.73,-100.57C1427.6,-100.88 1435.84,-101.21 1443.64,-101.51"/>
<polygon fill="black" stroke="black" points="1443.39,-105.01 1453.52,-101.9 1443.67,-98.01 1443.39,-105.01"/>
</g>
<!-- 1990980368624 -->
<g id="node8" class="node">
<title>1990980368624</title>
<polygon fill="white" stroke="black" points="1418.88,-56 1339.12,-56 1339.12,-20 1418.88,-20 1418.88,-56"/>
<text text-anchor="middle" x="1379" y="-32.98" font-family="Times New Roman,serif" font-size="12.00">Label Design</text>
</g>
<!-- 1990976171920 -->
<g id="node25" class="node">
<title>1990976171920</title>
<ellipse fill="white" stroke="black" cx="1482.25" cy="-31" rx="27" ry="27"/>
</g>
<!-- 1990980368624&#45;&gt;1990976171920 -->
<g id="edge16" class="edge">
<title>1990980368624&#45;&gt;1990976171920</title>
<path fill="none" stroke="black" d="M1419.15,-35.29C1427.22,-34.74 1435.71,-34.15 1443.73,-33.59"/>
<polygon fill="black" stroke="black" points="1443.79,-37.1 1453.52,-32.92 1443.3,-30.12 1443.79,-37.1"/>
</g>
<!-- 1990976165344 -->
<g id="node9" class="node">
<title>1990976165344</title>
<polygon fill="white" stroke="black" points="1658.75,-49 1545.25,-49 1545.25,-13 1658.75,-13 1658.75,-49"/>
<text text-anchor="middle" x="1602" y="-25.98" font-family="Times New Roman,serif" font-size="12.00">Sustainability Check</text>
</g>
<!-- 1990976174416 -->
<g id="node27" class="node">
<title>1990976174416</title>
<ellipse fill="white" stroke="black" cx="1721.75" cy="-31" rx="27" ry="27"/>
</g>
<!-- 1990976165344&#45;&gt;1990976174416 -->
<g id="edge20" class="edge">
<title>1990976165344&#45;&gt;1990976174416</title>
<path fill="none" stroke="black" d="M1659.12,-31C1667.2,-31 1675.36,-31 1682.97,-31"/>
<polygon fill="black" stroke="black" points="1682.88,-34.5 1692.88,-31 1682.88,-27.5 1682.88,-34.5"/>
</g>
<!-- 1990976304240 -->
<g id="node10" class="node">
<title>1990976304240</title>
<polygon fill="white" stroke="black" points="1652.75,-148 1551.25,-148 1551.25,-112 1652.75,-112 1652.75,-148"/>
<text text-anchor="middle" x="1602" y="-124.97" font-family="Times New Roman,serif" font-size="12.00">Feedback Review</text>
</g>
<!-- 1990976304240&#45;&gt;1990977082320 -->
<g id="edge19" class="edge">
<title>1990976304240&#45;&gt;1990977082320</title>
<path fill="none" stroke="black" d="M1550.76,-140.03C1506.11,-148.06 1438.98,-158 1380,-158 853.5,-158 853.5,-158 853.5,-158 797.18,-158 732.7,-146.65 693.3,-138.4"/>
<polygon fill="black" stroke="black" points="694.14,-135 683.63,-136.32 692.67,-141.84 694.14,-135"/>
</g>
<!-- 1990976163568 -->
<g id="node11" class="node">
<title>1990976163568</title>
<polygon fill="white" stroke="black" points="1880.25,-49 1784.75,-49 1784.75,-13 1880.25,-13 1880.25,-49"/>
<text text-anchor="middle" x="1832.5" y="-25.98" font-family="Times New Roman,serif" font-size="12.00">Reg Compliance</text>
</g>
<!-- 1990976175376 -->
<g id="node28" class="node">
<title>1990976175376</title>
<ellipse fill="white" stroke="black" cx="1943.25" cy="-31" rx="27" ry="27"/>
</g>
<!-- 1990976163568&#45;&gt;1990976175376 -->
<g id="edge22" class="edge">
<title>1990976163568&#45;&gt;1990976175376</title>
<path fill="none" stroke="black" d="M1880.57,-31C1888.57,-31 1896.79,-31 1904.52,-31"/>
<polygon fill="black" stroke="black" points="1904.25,-34.5 1914.25,-31 1904.25,-27.5 1904.25,-34.5"/>
</g>
<!-- 1990976169088 -->
<g id="node12" class="node">
<title>1990976169088</title>
<polygon fill="white" stroke="black" points="2089.75,-49 2006.25,-49 2006.25,-13 2089.75,-13 2089.75,-49"/>
<text text-anchor="middle" x="2048" y="-25.98" font-family="Times New Roman,serif" font-size="12.00">Packaging Set</text>
</g>
<!-- 1990976167888 -->
<g id="node29" class="node">
<title>1990976167888</title>
<ellipse fill="white" stroke="black" cx="2152.75" cy="-31" rx="27" ry="27"/>
</g>
<!-- 1990976169088&#45;&gt;1990976167888 -->
<g id="edge24" class="edge">
<title>1990976169088&#45;&gt;1990976167888</title>
<path fill="none" stroke="black" d="M2090.2,-31C2098.06,-31 2106.25,-31 2114,-31"/>
<polygon fill="black" stroke="black" points="2113.8,-34.5 2123.8,-31 2113.8,-27.5 2113.8,-34.5"/>
</g>
<!-- 1990976165872 -->
<g id="node13" class="node">
<title>1990976165872</title>
<polygon fill="white" stroke="black" points="2304.5,-49 2215.75,-49 2215.75,-13 2304.5,-13 2304.5,-49"/>
<text text-anchor="middle" x="2260.12" y="-25.98" font-family="Times New Roman,serif" font-size="12.00">Event Planning</text>
</g>
<!-- 1990976170624 -->
<g id="node30" class="node">
<title>1990976170624</title>
<ellipse fill="white" stroke="black" cx="2367.5" cy="-31" rx="27" ry="27"/>
</g>
<!-- 1990976165872&#45;&gt;1990976170624 -->
<g id="edge26" class="edge">
<title>1990976165872&#45;&gt;1990976170624</title>
<path fill="none" stroke="black" d="M2304.9,-31C2312.86,-31 2321.1,-31 2328.86,-31"/>
<polygon fill="black" stroke="black" points="2328.67,-34.5 2338.67,-31 2328.67,-27.5 2328.67,-34.5"/>
</g>
<!-- 1990978846160 -->
<g id="node14" class="node">
<title>1990978846160</title>
<polygon fill="white" stroke="black" points="2514.75,-49 2430.5,-49 2430.5,-13 2514.75,-13 2514.75,-49"/>
<text text-anchor="middle" x="2472.62" y="-25.98" font-family="Times New Roman,serif" font-size="12.00">Sales Training</text>
</g>
<!-- 1990978837712 -->
<g id="node31" class="node">
<title>1990978837712</title>
<ellipse fill="white" stroke="black" cx="2577.75" cy="-31" rx="27" ry="27"/>
</g>
<!-- 1990978846160&#45;&gt;1990978837712 -->
<g id="edge28" class="edge">
<title>1990978846160&#45;&gt;1990978837712</title>
<path fill="none" stroke="black" d="M2514.98,-31C2522.94,-31 2531.24,-31 2539.08,-31"/>
<polygon fill="black" stroke="black" points="2539,-34.5 2549,-31 2539,-27.5 2539,-34.5"/>
</g>
<!-- 1990978836656 -->
<g id="node15" class="node">
<title>1990978836656</title>
<polygon fill="white" stroke="black" points="2743,-49 2640.75,-49 2640.75,-13 2743,-13 2743,-49"/>
<text text-anchor="middle" x="2691.88" y="-25.98" font-family="Times New Roman,serif" font-size="12.00">Distribution Setup</text>
</g>
<!-- 1990978831232 -->
<g id="node32" class="node">
<title>1990978831232</title>
<ellipse fill="white" stroke="black" cx="2806" cy="-31" rx="27" ry="27"/>
</g>
<!-- 1990978836656&#45;&gt;1990978831232 -->
<g id="edge30" class="edge">
<title>1990978836656&#45;&gt;1990978831232</title>
<path fill="none" stroke="black" d="M2743.36,-31C2751.47,-31 2759.73,-31 2767.46,-31"/>
<polygon fill="black" stroke="black" points="2767.19,-34.5 2777.19,-31 2767.19,-27.5 2767.19,-34.5"/>
</g>
<!-- 1990978846448 -->
<g id="node16" class="node">
<title>1990978846448</title>
<polygon fill="white" stroke="black" points="2957.75,-49 2869,-49 2869,-13 2957.75,-13 2957.75,-49"/>
<text text-anchor="middle" x="2913.38" y="-25.98" font-family="Times New Roman,serif" font-size="12.00">Market Launch</text>
</g>
<!-- 1990978842704 -->
<g id="node33" class="node">
<title>1990978842704</title>
<ellipse fill="white" stroke="black" cx="3020.75" cy="-31" rx="27" ry="27"/>
</g>
<!-- 1990978846448&#45;&gt;1990978842704 -->
<g id="edge32" class="edge">
<title>1990978846448&#45;&gt;1990978842704</title>
<path fill="none" stroke="black" d="M2958.15,-31C2966.11,-31 2974.35,-31 2982.11,-31"/>
<polygon fill="black" stroke="black" points="2981.92,-34.5 2991.92,-31 2981.92,-27.5 2981.92,-34.5"/>
</g>
<!-- 1990979099712 -->
<g id="node17" class="node">
<title>1990979099712</title>
<polygon fill="white" stroke="black" points="3182.25,-49 3083.75,-49 3083.75,-13 3182.25,-13 3182.25,-49"/>
<text text-anchor="middle" x="3133" y="-25.98" font-family="Times New Roman,serif" font-size="12.00">Customer Survey</text>
</g>
<!-- 1990979852512 -->
<g id="node34" class="node">
<title>1990979852512</title>
<ellipse fill="white" stroke="black" cx="3249.25" cy="-31" rx="27" ry="27"/>
<ellipse fill="none" stroke="black" cx="3249.25" cy="-31" rx="31" ry="31"/>
<text text-anchor="start" x="3232.75" y="-15.6" font-family="Times New Roman,serif" font-size="32.00">■</text>
</g>
<!-- 1990979099712&#45;&gt;1990979852512 -->
<g id="edge34" class="edge">
<title>1990979099712&#45;&gt;1990979852512</title>
<path fill="none" stroke="black" d="M3182.45,-31C3190.45,-31 3198.68,-31 3206.49,-31"/>
<polygon fill="black" stroke="black" points="3206.44,-34.5 3216.44,-31 3206.44,-27.5 3206.44,-34.5"/>
</g>
<!-- 1990979854768 -->
<g id="node18" class="node">
<title>1990979854768</title>
<ellipse fill="white" stroke="black" cx="27" cy="-130" rx="27" ry="27"/>
<text text-anchor="start" x="9.75" y="-112.7" font-family="Times New Roman,serif" font-size="34.00">●</text>
</g>
<!-- 1990979854768&#45;&gt;1990971343456 -->
<g id="edge1" class="edge">
<title>1990979854768&#45;&gt;1990971343456</title>
<path fill="none" stroke="black" d="M54.42,-130C61.72,-130 69.94,-130 78.27,-130"/>
<polygon fill="black" stroke="black" points="78.13,-133.5 88.13,-130 78.13,-126.5 78.13,-133.5"/>
</g>
<!-- 1990971346624&#45;&gt;1990978183456 -->
<g id="edge3" class="edge">
<title>1990971346624&#45;&gt;1990978183456</title>
<path fill="none" stroke="black" d="M274.24,-130C281.71,-130 290.1,-130 298.49,-130"/>
<polygon fill="black" stroke="black" points="298.33,-133.5 308.33,-130 298.33,-126.5 298.33,-133.5"/>
</g>
<!-- 1990978183072&#45;&gt;1990977088368 -->
<g id="edge5" class="edge">
<title>1990978183072&#45;&gt;1990977088368</title>
<path fill="none" stroke="black" d="M480.12,-130C487.47,-130 495.69,-130 503.9,-130"/>
<polygon fill="black" stroke="black" points="503.89,-133.5 513.89,-130 503.89,-126.5 503.89,-133.5"/>
</g>
<!-- 1990977082320&#45;&gt;1990975869808 -->
<g id="edge7" class="edge">
<title>1990977082320&#45;&gt;1990975869808</title>
<path fill="none" stroke="black" d="M682.12,-123.96C689.81,-122.14 698.49,-120.09 707.11,-118.06"/>
<polygon fill="black" stroke="black" points="707.89,-121.47 716.82,-115.77 706.28,-114.66 707.89,-121.47"/>
</g>
<!-- 1990969797488&#45;&gt;1990969794080 -->
<g id="edge9" class="edge">
<title>1990969797488&#45;&gt;1990969794080</title>
<path fill="none" stroke="black" d="M881.73,-100.5C889.07,-100.36 897.35,-100.2 905.7,-100.04"/>
<polygon fill="black" stroke="black" points="905.62,-103.55 915.55,-99.86 905.48,-96.55 905.62,-103.55"/>
</g>
<!-- 1990969796816&#45;&gt;1990980368144 -->
<g id="edge11" class="edge">
<title>1990969796816&#45;&gt;1990980368144</title>
<path fill="none" stroke="black" d="M1095.94,-95C1103.21,-95 1111.36,-95 1119.53,-95"/>
<polygon fill="black" stroke="black" points="1119.51,-98.5 1129.51,-95 1119.51,-91.5 1119.51,-98.5"/>
</g>
<!-- 1990975865728&#45;&gt;1990977923040 -->
<g id="edge14" class="edge">
<title>1990975865728&#45;&gt;1990977923040</title>
<path fill="none" stroke="black" d="M1303.09,-96.04C1310.5,-96.33 1318.82,-96.66 1327.15,-96.99"/>
<polygon fill="black" stroke="black" points="1326.79,-100.48 1336.92,-97.38 1327.07,-93.48 1326.79,-100.48"/>
</g>
<!-- 1990975865728&#45;&gt;1990980368624 -->
<g id="edge13" class="edge">
<title>1990975865728&#45;&gt;1990980368624</title>
<path fill="none" stroke="black" d="M1299.73,-82.07C1310.41,-76.05 1323.46,-68.71 1335.81,-61.75"/>
<polygon fill="black" stroke="black" points="1337.2,-64.98 1344.2,-57.03 1333.77,-58.88 1337.2,-64.98"/>
</g>
<!-- 1990976171920&#45;&gt;1990976165344 -->
<g id="edge17" class="edge">
<title>1990976171920&#45;&gt;1990976165344</title>
<path fill="none" stroke="black" d="M1509.68,-31C1516.85,-31 1524.97,-31 1533.33,-31"/>
<polygon fill="black" stroke="black" points="1533.29,-34.5 1543.29,-31 1533.29,-27.5 1533.29,-34.5"/>
</g>
<!-- 1990980575136&#45;&gt;1990976304240 -->
<g id="edge18" class="edge">
<title>1990980575136&#45;&gt;1990976304240</title>
<path fill="none" stroke="black" d="M1509.09,-108.93C1518.33,-111.04 1529.18,-113.53 1540.12,-116.04"/>
<polygon fill="black" stroke="black" points="1539.03,-119.38 1549.55,-118.2 1540.59,-112.56 1539.03,-119.38"/>
</g>
<!-- 1990976174416&#45;&gt;1990976163568 -->
<g id="edge21" class="edge">
<title>1990976174416&#45;&gt;1990976163568</title>
<path fill="none" stroke="black" d="M1749.08,-31C1756.42,-31 1764.71,-31 1773.13,-31"/>
<polygon fill="black" stroke="black" points="1773.09,-34.5 1783.09,-31 1773.09,-27.5 1773.09,-34.5"/>
</g>
<!-- 1990976175376&#45;&gt;1990976169088 -->
<g id="edge23" class="edge">
<title>1990976175376&#45;&gt;1990976169088</title>
<path fill="none" stroke="black" d="M1970.71,-31C1978.07,-31 1986.33,-31 1994.62,-31"/>
<polygon fill="black" stroke="black" points="1994.36,-34.5 2004.36,-31 1994.36,-27.5 1994.36,-34.5"/>
</g>
<!-- 1990976167888&#45;&gt;1990976165872 -->
<g id="edge25" class="edge">
<title>1990976167888&#45;&gt;1990976165872</title>
<path fill="none" stroke="black" d="M2180.07,-31C2187.44,-31 2195.75,-31 2204.13,-31"/>
<polygon fill="black" stroke="black" points="2204.02,-34.5 2214.02,-31 2204.02,-27.5 2204.02,-34.5"/>
</g>
<!-- 1990976170624&#45;&gt;1990978846160 -->
<g id="edge27" class="edge">
<title>1990976170624&#45;&gt;1990978846160</title>
<path fill="none" stroke="black" d="M2394.79,-31C2402.17,-31 2410.48,-31 2418.82,-31"/>
<polygon fill="black" stroke="black" points="2418.64,-34.5 2428.64,-31 2418.64,-27.5 2418.64,-34.5"/>
</g>
<!-- 1990978837712&#45;&gt;1990978836656 -->
<g id="edge29" class="edge">
<title>1990978837712&#45;&gt;1990978836656</title>
<path fill="none" stroke="black" d="M2605.04,-31C2612.42,-31 2620.77,-31 2629.29,-31"/>
<polygon fill="black" stroke="black" points="2629.02,-34.5 2639.02,-31 2629.02,-27.5 2629.02,-34.5"/>
</g>
<!-- 1990978831232&#45;&gt;1990978846448 -->
<g id="edge31" class="edge">
<title>1990978831232&#45;&gt;1990978846448</title>
<path fill="none" stroke="black" d="M2833.32,-31C2840.69,-31 2849,-31 2857.38,-31"/>
<polygon fill="black" stroke="black" points="2857.27,-34.5 2867.27,-31 2857.27,-27.5 2857.27,-34.5"/>
</g>
<!-- 1990978842704&#45;&gt;1990979099712 -->
<g id="edge33" class="edge">
<title>1990978842704&#45;&gt;1990979099712</title>
<path fill="none" stroke="black" d="M3048.16,-31C3055.43,-31 3063.62,-31 3071.97,-31"/>
<polygon fill="black" stroke="black" points="3071.86,-34.5 3081.86,-31 3071.86,-27.5 3071.86,-34.5"/>
</g>
</g>
</svg>
