<?xml version="1.0" encoding="UTF-8" standalone="no"?>
<!DOCTYPE svg PUBLIC "-//W3C//DTD SVG 1.1//EN"
 "http://www.w3.org/Graphics/SVG/1.1/DTD/svg11.dtd">
<!-- Generated by graphviz version 11.0.0 (20240428.1522)
 -->
<!-- Title: imdf_net_1754051450.2723663 Pages: 1 -->
<svg width="2269pt" height="422pt"
 viewBox="0.00 0.00 2268.50 422.00" xmlns="http://www.w3.org/2000/svg" xmlns:xlink="http://www.w3.org/1999/xlink">
<g id="graph0" class="graph" transform="scale(1 1) rotate(0) translate(4 418)">
<title>imdf_net_1754051450.2723663</title>
<polygon fill="white" stroke="none" points="-4,4 -4,-418 2264.5,-418 2264.5,4 -4,4"/>
<!-- 1990980180480 -->
<g id="node1" class="node">
<title>1990980180480</title>
<polygon fill="white" stroke="black" points="175.75,-225 90,-225 90,-189 175.75,-189 175.75,-225"/>
<text text-anchor="middle" x="132.88" y="-201.97" font-family="Times New Roman,serif" font-size="12.00">Seed Selection</text>
</g>
<!-- 1990980187584 -->
<g id="node19" class="node">
<title>1990980187584</title>
<ellipse fill="white" stroke="black" cx="238.75" cy="-207" rx="27" ry="27"/>
</g>
<!-- 1990980180480&#45;&gt;1990980187584 -->
<g id="edge2" class="edge">
<title>1990980180480&#45;&gt;1990980187584</title>
<path fill="none" stroke="black" d="M176.12,-207C184.03,-207 192.25,-207 200.01,-207"/>
<polygon fill="black" stroke="black" points="199.82,-210.5 209.82,-207 199.82,-203.5 199.82,-210.5"/>
</g>
<!-- 1990980179856 -->
<g id="node2" class="node">
<title>1990980179856</title>
<polygon fill="white" stroke="black" points="401.75,-225 301.75,-225 301.75,-189 401.75,-189 401.75,-225"/>
<text text-anchor="middle" x="351.75" y="-201.97" font-family="Times New Roman,serif" font-size="12.00">Germination Start</text>
</g>
<!-- 1990980186048 -->
<g id="node20" class="node">
<title>1990980186048</title>
<ellipse fill="white" stroke="black" cx="464.75" cy="-207" rx="27" ry="27"/>
</g>
<!-- 1990980179856&#45;&gt;1990980186048 -->
<g id="edge4" class="edge">
<title>1990980179856&#45;&gt;1990980186048</title>
<path fill="none" stroke="black" d="M402.08,-207C410.16,-207 418.41,-207 426.14,-207"/>
<polygon fill="black" stroke="black" points="425.87,-210.5 435.87,-207 425.87,-203.5 425.87,-210.5"/>
</g>
<!-- 1990980181056 -->
<g id="node3" class="node">
<title>1990980181056</title>
<polygon fill="white" stroke="black" points="605.25,-225 527.75,-225 527.75,-189 605.25,-189 605.25,-225"/>
<text text-anchor="middle" x="566.5" y="-201.97" font-family="Times New Roman,serif" font-size="12.00">Nutrient Mix</text>
</g>
<!-- 1990980174960 -->
<g id="node21" class="node">
<title>1990980174960</title>
<ellipse fill="white" stroke="black" cx="668.25" cy="-207" rx="27" ry="27"/>
</g>
<!-- 1990980181056&#45;&gt;1990980174960 -->
<g id="edge6" class="edge">
<title>1990980181056&#45;&gt;1990980174960</title>
<path fill="none" stroke="black" d="M605.5,-207C613.32,-207 621.56,-207 629.38,-207"/>
<polygon fill="black" stroke="black" points="629.3,-210.5 639.3,-207 629.3,-203.5 629.3,-210.5"/>
</g>
<!-- 1990980176832 -->
<g id="node4" class="node">
<title>1990980176832</title>
<polygon fill="white" stroke="black" points="816.25,-225 731.25,-225 731.25,-189 816.25,-189 816.25,-225"/>
<text text-anchor="middle" x="773.75" y="-201.97" font-family="Times New Roman,serif" font-size="12.00">Planting Setup</text>
</g>
<!-- 1990976052480 -->
<g id="node22" class="node">
<title>1990976052480</title>
<ellipse fill="white" stroke="black" cx="879.25" cy="-279" rx="27" ry="27"/>
</g>
<!-- 1990980176832&#45;&gt;1990976052480 -->
<g id="edge10" class="edge">
<title>1990980176832&#45;&gt;1990976052480</title>
<path fill="none" stroke="black" d="M801.14,-225.35C815.19,-235.13 832.55,-247.21 847.24,-257.43"/>
<polygon fill="black" stroke="black" points="845,-260.13 855.21,-262.97 849,-254.39 845,-260.13"/>
</g>
<!-- 1990979330720 -->
<g id="node23" class="node">
<title>1990979330720</title>
<ellipse fill="white" stroke="black" cx="879.25" cy="-207" rx="27" ry="27"/>
</g>
<!-- 1990980176832&#45;&gt;1990979330720 -->
<g id="edge8" class="edge">
<title>1990980176832&#45;&gt;1990979330720</title>
<path fill="none" stroke="black" d="M816.55,-207C824.45,-207 832.67,-207 840.43,-207"/>
<polygon fill="black" stroke="black" points="840.26,-210.5 850.26,-207 840.26,-203.5 840.26,-210.5"/>
</g>
<!-- 1990979325152 -->
<g id="node24" class="node">
<title>1990979325152</title>
<ellipse fill="white" stroke="black" cx="879.25" cy="-135" rx="27" ry="27"/>
</g>
<!-- 1990980176832&#45;&gt;1990979325152 -->
<g id="edge9" class="edge">
<title>1990980176832&#45;&gt;1990979325152</title>
<path fill="none" stroke="black" d="M801.14,-188.65C815.19,-178.87 832.55,-166.79 847.24,-156.57"/>
<polygon fill="black" stroke="black" points="849,-159.61 855.21,-151.03 845,-153.87 849,-159.61"/>
</g>
<!-- 1990979324816 -->
<g id="node5" class="node">
<title>1990979324816</title>
<polygon fill="white" stroke="black" points="1035.88,-153 948.62,-153 948.62,-117 1035.88,-117 1035.88,-153"/>
<text text-anchor="middle" x="992.25" y="-129.97" font-family="Times New Roman,serif" font-size="12.00">Air Circulation</text>
</g>
<!-- 1990979327552 -->
<g id="node26" class="node">
<title>1990979327552</title>
<ellipse fill="white" stroke="black" cx="1105.25" cy="-135" rx="27" ry="27"/>
</g>
<!-- 1990979324816&#45;&gt;1990979327552 -->
<g id="edge15" class="edge">
<title>1990979324816&#45;&gt;1990979327552</title>
<path fill="none" stroke="black" d="M1036.17,-135C1046.14,-135 1056.69,-135 1066.43,-135"/>
<polygon fill="black" stroke="black" points="1066.3,-138.5 1076.3,-135 1066.3,-131.5 1066.3,-138.5"/>
</g>
<!-- 1990979321936 -->
<g id="node6" class="node">
<title>1990979321936</title>
<polygon fill="white" stroke="black" points="1042.25,-225 942.25,-225 942.25,-189 1042.25,-189 1042.25,-225"/>
<text text-anchor="middle" x="992.25" y="-201.97" font-family="Times New Roman,serif" font-size="12.00">Humidity Control</text>
</g>
<!-- 1990979325872 -->
<g id="node25" class="node">
<title>1990979325872</title>
<ellipse fill="white" stroke="black" cx="1105.25" cy="-207" rx="27" ry="27"/>
</g>
<!-- 1990979321936&#45;&gt;1990979325872 -->
<g id="edge16" class="edge">
<title>1990979321936&#45;&gt;1990979325872</title>
<path fill="none" stroke="black" d="M1042.58,-207C1050.66,-207 1058.91,-207 1066.64,-207"/>
<polygon fill="black" stroke="black" points="1066.37,-210.5 1076.37,-207 1066.37,-203.5 1066.37,-210.5"/>
</g>
<!-- 1990976059488 -->
<g id="node7" class="node">
<title>1990976059488</title>
<polygon fill="white" stroke="black" points="1041.88,-297 942.62,-297 942.62,-261 1041.88,-261 1041.88,-297"/>
<text text-anchor="middle" x="992.25" y="-273.98" font-family="Times New Roman,serif" font-size="12.00">Light Adjustment</text>
</g>
<!-- 1990979326928 -->
<g id="node27" class="node">
<title>1990979326928</title>
<ellipse fill="white" stroke="black" cx="1105.25" cy="-279" rx="27" ry="27"/>
</g>
<!-- 1990976059488&#45;&gt;1990979326928 -->
<g id="edge14" class="edge">
<title>1990976059488&#45;&gt;1990979326928</title>
<path fill="none" stroke="black" d="M1042.26,-279C1050.44,-279 1058.8,-279 1066.64,-279"/>
<polygon fill="black" stroke="black" points="1066.51,-282.5 1076.51,-279 1066.51,-275.5 1066.51,-282.5"/>
</g>
<!-- 1990979325056 -->
<g id="node8" class="node">
<title>1990979325056</title>
<polygon fill="white" stroke="black" points="1277.25,-225 1168.25,-225 1168.25,-189 1277.25,-189 1277.25,-225"/>
<text text-anchor="middle" x="1222.75" y="-201.97" font-family="Times New Roman,serif" font-size="12.00">Growth Monitoring</text>
</g>
<!-- 1990979335424 -->
<g id="node28" class="node">
<title>1990979335424</title>
<ellipse fill="white" stroke="black" cx="1340.25" cy="-387" rx="27" ry="27"/>
</g>
<!-- 1990979325056&#45;&gt;1990979335424 -->
<g id="edge24" class="edge">
<title>1990979325056&#45;&gt;1990979335424</title>
<path fill="none" stroke="black" d="M1234.65,-225.44C1251.12,-253.09 1283.57,-306.75 1313.25,-351 1314.44,-352.78 1315.68,-354.59 1316.94,-356.41"/>
<polygon fill="black" stroke="black" points="1313.83,-358.08 1322.46,-364.23 1319.55,-354.04 1313.83,-358.08"/>
</g>
<!-- 1990979334416 -->
<g id="node29" class="node">
<title>1990979334416</title>
<ellipse fill="white" stroke="black" cx="1340.25" cy="-315" rx="27" ry="27"/>
</g>
<!-- 1990979325056&#45;&gt;1990979334416 -->
<g id="edge23" class="edge">
<title>1990979325056&#45;&gt;1990979334416</title>
<path fill="none" stroke="black" d="M1243.34,-225.32C1262.12,-242.88 1290.65,-269.55 1311.71,-289.25"/>
<polygon fill="black" stroke="black" points="1309.15,-291.64 1318.84,-295.92 1313.93,-286.53 1309.15,-291.64"/>
</g>
<!-- 1990979331632 -->
<g id="node30" class="node">
<title>1990979331632</title>
<ellipse fill="white" stroke="black" cx="1340.25" cy="-243" rx="27" ry="27"/>
</g>
<!-- 1990979325056&#45;&gt;1990979331632 -->
<g id="edge25" class="edge">
<title>1990979325056&#45;&gt;1990979331632</title>
<path fill="none" stroke="black" d="M1277.44,-223.74C1286.09,-226.43 1294.86,-229.16 1302.97,-231.69"/>
<polygon fill="black" stroke="black" points="1301.89,-235.02 1312.48,-234.65 1303.97,-228.34 1301.89,-235.02"/>
</g>
<!-- 1990979337008 -->
<g id="node31" class="node">
<title>1990979337008</title>
<ellipse fill="white" stroke="black" cx="1340.25" cy="-171" rx="27" ry="27"/>
</g>
<!-- 1990979325056&#45;&gt;1990979337008 -->
<g id="edge22" class="edge">
<title>1990979325056&#45;&gt;1990979337008</title>
<path fill="none" stroke="black" d="M1277.44,-190.26C1286.09,-187.57 1294.86,-184.84 1302.97,-182.31"/>
<polygon fill="black" stroke="black" points="1303.97,-185.66 1312.48,-179.35 1301.89,-178.98 1303.97,-185.66"/>
</g>
<!-- 1990979336240 -->
<g id="node32" class="node">
<title>1990979336240</title>
<ellipse fill="white" stroke="black" cx="1340.25" cy="-99" rx="27" ry="27"/>
</g>
<!-- 1990979325056&#45;&gt;1990979336240 -->
<g id="edge21" class="edge">
<title>1990979325056&#45;&gt;1990979336240</title>
<path fill="none" stroke="black" d="M1243.34,-188.68C1262.12,-171.12 1290.65,-144.45 1311.71,-124.75"/>
<polygon fill="black" stroke="black" points="1313.93,-127.47 1318.84,-118.08 1309.15,-122.36 1313.93,-127.47"/>
</g>
<!-- 1990979333552 -->
<g id="node33" class="node">
<title>1990979333552</title>
<ellipse fill="white" stroke="black" cx="1340.25" cy="-27" rx="27" ry="27"/>
</g>
<!-- 1990979325056&#45;&gt;1990979333552 -->
<g id="edge20" class="edge">
<title>1990979325056&#45;&gt;1990979333552</title>
<path fill="none" stroke="black" d="M1234.65,-188.56C1251.12,-160.91 1283.57,-107.25 1313.25,-63 1314.44,-61.22 1315.68,-59.41 1316.94,-57.59"/>
<polygon fill="black" stroke="black" points="1319.55,-59.96 1322.46,-49.77 1313.83,-55.92 1319.55,-59.96"/>
</g>
<!-- 1990979336576 -->
<g id="node9" class="node">
<title>1990979336576</title>
<polygon fill="white" stroke="black" points="1495.38,-189 1412.62,-189 1412.62,-153 1495.38,-153 1495.38,-189"/>
<text text-anchor="middle" x="1454" y="-165.97" font-family="Times New Roman,serif" font-size="12.00">Data Analysis</text>
</g>
<!-- 1990977557984 -->
<g id="node37" class="node">
<title>1990977557984</title>
<ellipse fill="white" stroke="black" cx="1567.75" cy="-171" rx="27" ry="27"/>
</g>
<!-- 1990979336576&#45;&gt;1990977557984 -->
<g id="edge36" class="edge">
<title>1990979336576&#45;&gt;1990977557984</title>
<path fill="none" stroke="black" d="M1495.66,-171C1506.66,-171 1518.51,-171 1529.32,-171"/>
<polygon fill="black" stroke="black" points="1529.04,-174.5 1539.04,-171 1529.04,-167.5 1529.04,-174.5"/>
</g>
<!-- 1990979334560 -->
<g id="node10" class="node">
<title>1990979334560</title>
<polygon fill="white" stroke="black" points="1494.25,-405 1413.75,-405 1413.75,-369 1494.25,-369 1494.25,-405"/>
<text text-anchor="middle" x="1454" y="-381.98" font-family="Times New Roman,serif" font-size="12.00">Energy Audit</text>
</g>
<!-- 1990977564704 -->
<g id="node34" class="node">
<title>1990977564704</title>
<ellipse fill="white" stroke="black" cx="1567.75" cy="-387" rx="27" ry="27"/>
</g>
<!-- 1990979334560&#45;&gt;1990977564704 -->
<g id="edge32" class="edge">
<title>1990979334560&#45;&gt;1990977564704</title>
<path fill="none" stroke="black" d="M1494.71,-387C1505.86,-387 1517.95,-387 1528.98,-387"/>
<polygon fill="black" stroke="black" points="1528.93,-390.5 1538.93,-387 1528.93,-383.5 1528.93,-390.5"/>
</g>
<!-- 1990979333840 -->
<g id="node11" class="node">
<title>1990979333840</title>
<polygon fill="white" stroke="black" points="1501.75,-333 1406.25,-333 1406.25,-297 1501.75,-297 1501.75,-333"/>
<text text-anchor="middle" x="1454" y="-309.98" font-family="Times New Roman,serif" font-size="12.00">Water Recycling</text>
</g>
<!-- 1990977554864 -->
<g id="node35" class="node">
<title>1990977554864</title>
<ellipse fill="white" stroke="black" cx="1567.75" cy="-315" rx="27" ry="27"/>
</g>
<!-- 1990979333840&#45;&gt;1990977554864 -->
<g id="edge34" class="edge">
<title>1990979333840&#45;&gt;1990977554864</title>
<path fill="none" stroke="black" d="M1502.07,-315C1511.09,-315 1520.43,-315 1529.1,-315"/>
<polygon fill="black" stroke="black" points="1528.92,-318.5 1538.92,-315 1528.92,-311.5 1528.92,-318.5"/>
</g>
<!-- 1990979332688 -->
<g id="node12" class="node">
<title>1990979332688</title>
<polygon fill="white" stroke="black" points="1503.62,-45 1404.38,-45 1404.38,-9 1503.62,-9 1503.62,-45"/>
<text text-anchor="middle" x="1454" y="-21.98" font-family="Times New Roman,serif" font-size="12.00">Waste Processing</text>
</g>
<!-- 1990977568496 -->
<g id="node39" class="node">
<title>1990977568496</title>
<ellipse fill="white" stroke="black" cx="1567.75" cy="-27" rx="27" ry="27"/>
</g>
<!-- 1990979332688&#45;&gt;1990977568496 -->
<g id="edge33" class="edge">
<title>1990979332688&#45;&gt;1990977568496</title>
<path fill="none" stroke="black" d="M1504.02,-27C1512.45,-27 1521.09,-27 1529.16,-27"/>
<polygon fill="black" stroke="black" points="1528.97,-30.5 1538.97,-27 1528.97,-23.5 1528.97,-30.5"/>
</g>
<!-- 1990979337056 -->
<g id="node13" class="node">
<title>1990979337056</title>
<polygon fill="white" stroke="black" points="1496.12,-261 1411.88,-261 1411.88,-225 1496.12,-225 1496.12,-261"/>
<text text-anchor="middle" x="1454" y="-237.97" font-family="Times New Roman,serif" font-size="12.00">Pest Detection</text>
</g>
<!-- 1990977558608 -->
<g id="node36" class="node">
<title>1990977558608</title>
<ellipse fill="white" stroke="black" cx="1567.75" cy="-243" rx="27" ry="27"/>
</g>
<!-- 1990979337056&#45;&gt;1990977558608 -->
<g id="edge35" class="edge">
<title>1990979337056&#45;&gt;1990977558608</title>
<path fill="none" stroke="black" d="M1496.61,-243C1507.25,-243 1518.63,-243 1529.06,-243"/>
<polygon fill="black" stroke="black" points="1528.83,-246.5 1538.83,-243 1528.83,-239.5 1528.83,-246.5"/>
</g>
<!-- 1990979335136 -->
<g id="node14" class="node">
<title>1990979335136</title>
<polygon fill="white" stroke="black" points="1504.75,-117 1403.25,-117 1403.25,-81 1504.75,-81 1504.75,-117"/>
<text text-anchor="middle" x="1454" y="-93.97" font-family="Times New Roman,serif" font-size="12.00">Equipment Check</text>
</g>
<!-- 1990977559664 -->
<g id="node38" class="node">
<title>1990977559664</title>
<ellipse fill="white" stroke="black" cx="1567.75" cy="-99" rx="27" ry="27"/>
</g>
<!-- 1990979335136&#45;&gt;1990977559664 -->
<g id="edge37" class="edge">
<title>1990979335136&#45;&gt;1990977559664</title>
<path fill="none" stroke="black" d="M1504.99,-99C1513.1,-99 1521.37,-99 1529.11,-99"/>
<polygon fill="black" stroke="black" points="1528.86,-102.5 1538.86,-99 1528.86,-95.5 1528.86,-102.5"/>
</g>
<!-- 1990976057568 -->
<g id="node15" class="node">
<title>1990976057568</title>
<polygon fill="white" stroke="black" points="1721,-225 1630.75,-225 1630.75,-189 1721,-189 1721,-225"/>
<text text-anchor="middle" x="1675.88" y="-201.97" font-family="Times New Roman,serif" font-size="12.00">Harvest Timing</text>
</g>
<!-- 1990979332544 -->
<g id="node40" class="node">
<title>1990979332544</title>
<ellipse fill="white" stroke="black" cx="1784" cy="-207" rx="27" ry="27"/>
</g>
<!-- 1990976057568&#45;&gt;1990979332544 -->
<g id="edge44" class="edge">
<title>1990976057568&#45;&gt;1990979332544</title>
<path fill="none" stroke="black" d="M1721.27,-207C1729.26,-207 1737.53,-207 1745.31,-207"/>
<polygon fill="black" stroke="black" points="1745.14,-210.5 1755.14,-207 1745.14,-203.5 1745.14,-210.5"/>
</g>
<!-- 1990979331056 -->
<g id="node16" class="node">
<title>1990979331056</title>
<polygon fill="white" stroke="black" points="1939.5,-225 1847,-225 1847,-189 1939.5,-189 1939.5,-225"/>
<text text-anchor="middle" x="1893.25" y="-201.97" font-family="Times New Roman,serif" font-size="12.00">Crop Packaging</text>
</g>
<!-- 1990979331200 -->
<g id="node41" class="node">
<title>1990979331200</title>
<ellipse fill="white" stroke="black" cx="2002.5" cy="-207" rx="27" ry="27"/>
</g>
<!-- 1990979331056&#45;&gt;1990979331200 -->
<g id="edge46" class="edge">
<title>1990979331056&#45;&gt;1990979331200</title>
<path fill="none" stroke="black" d="M1939.73,-207C1947.77,-207 1956.06,-207 1963.85,-207"/>
<polygon fill="black" stroke="black" points="1963.69,-210.5 1973.69,-207 1963.69,-203.5 1963.69,-210.5"/>
</g>
<!-- 1990979329280 -->
<g id="node17" class="node">
<title>1990979329280</title>
<polygon fill="white" stroke="black" points="2162.5,-225 2065.5,-225 2065.5,-189 2162.5,-189 2162.5,-225"/>
<text text-anchor="middle" x="2114" y="-201.97" font-family="Times New Roman,serif" font-size="12.00">Distribution Prep</text>
</g>
<!-- 1990979045424 -->
<g id="node42" class="node">
<title>1990979045424</title>
<ellipse fill="white" stroke="black" cx="2229.5" cy="-207" rx="27" ry="27"/>
<ellipse fill="none" stroke="black" cx="2229.5" cy="-207" rx="31" ry="31"/>
<text text-anchor="start" x="2213" y="-191.6" font-family="Times New Roman,serif" font-size="32.00">■</text>
</g>
<!-- 1990979329280&#45;&gt;1990979045424 -->
<g id="edge48" class="edge">
<title>1990979329280&#45;&gt;1990979045424</title>
<path fill="none" stroke="black" d="M2162.81,-207C2170.77,-207 2178.98,-207 2186.78,-207"/>
<polygon fill="black" stroke="black" points="2186.7,-210.5 2196.7,-207 2186.7,-203.5 2186.7,-210.5"/>
</g>
<!-- 1990979046624 -->
<g id="node18" class="node">
<title>1990979046624</title>
<ellipse fill="white" stroke="black" cx="27" cy="-207" rx="27" ry="27"/>
<text text-anchor="start" x="9.75" y="-189.7" font-family="Times New Roman,serif" font-size="34.00">●</text>
</g>
<!-- 1990979046624&#45;&gt;1990980180480 -->
<g id="edge1" class="edge">
<title>1990979046624&#45;&gt;1990980180480</title>
<path fill="none" stroke="black" d="M54.48,-207C61.84,-207 70.1,-207 78.41,-207"/>
<polygon fill="black" stroke="black" points="78.19,-210.5 88.19,-207 78.19,-203.5 78.19,-210.5"/>
</g>
<!-- 1990980187584&#45;&gt;1990980179856 -->
<g id="edge3" class="edge">
<title>1990980187584&#45;&gt;1990980179856</title>
<path fill="none" stroke="black" d="M266.06,-207C273.37,-207 281.63,-207 290.06,-207"/>
<polygon fill="black" stroke="black" points="290.06,-210.5 300.06,-207 290.06,-203.5 290.06,-210.5"/>
</g>
<!-- 1990980186048&#45;&gt;1990980181056 -->
<g id="edge5" class="edge">
<title>1990980186048&#45;&gt;1990980181056</title>
<path fill="none" stroke="black" d="M492.22,-207C499.52,-207 507.68,-207 515.83,-207"/>
<polygon fill="black" stroke="black" points="515.75,-210.5 525.75,-207 515.75,-203.5 515.75,-210.5"/>
</g>
<!-- 1990980174960&#45;&gt;1990980176832 -->
<g id="edge7" class="edge">
<title>1990980174960&#45;&gt;1990980176832</title>
<path fill="none" stroke="black" d="M695.64,-207C703.05,-207 711.38,-207 719.76,-207"/>
<polygon fill="black" stroke="black" points="719.61,-210.5 729.61,-207 719.61,-203.5 719.61,-210.5"/>
</g>
<!-- 1990976052480&#45;&gt;1990976059488 -->
<g id="edge11" class="edge">
<title>1990976052480&#45;&gt;1990976059488</title>
<path fill="none" stroke="black" d="M906.56,-279C914.04,-279 922.52,-279 931.15,-279"/>
<polygon fill="black" stroke="black" points="931,-282.5 941,-279 931,-275.5 931,-282.5"/>
</g>
<!-- 1990979330720&#45;&gt;1990979321936 -->
<g id="edge12" class="edge">
<title>1990979330720&#45;&gt;1990979321936</title>
<path fill="none" stroke="black" d="M906.56,-207C913.87,-207 922.13,-207 930.56,-207"/>
<polygon fill="black" stroke="black" points="930.56,-210.5 940.56,-207 930.56,-203.5 930.56,-210.5"/>
</g>
<!-- 1990979325152&#45;&gt;1990979324816 -->
<g id="edge13" class="edge">
<title>1990979325152&#45;&gt;1990979324816</title>
<path fill="none" stroke="black" d="M906.56,-135C915.69,-135 926.3,-135 936.85,-135"/>
<polygon fill="black" stroke="black" points="936.7,-138.5 946.7,-135 936.7,-131.5 936.7,-138.5"/>
</g>
<!-- 1990979325872&#45;&gt;1990979325056 -->
<g id="edge17" class="edge">
<title>1990979325872&#45;&gt;1990979325056</title>
<path fill="none" stroke="black" d="M1132.75,-207C1139.98,-207 1148.15,-207 1156.54,-207"/>
<polygon fill="black" stroke="black" points="1156.52,-210.5 1166.52,-207 1156.52,-203.5 1156.52,-210.5"/>
</g>
<!-- 1990979327552&#45;&gt;1990979325056 -->
<g id="edge18" class="edge">
<title>1990979327552&#45;&gt;1990979325056</title>
<path fill="none" stroke="black" d="M1128.79,-149.05C1144.08,-158.58 1164.69,-171.43 1182.62,-182.61"/>
<polygon fill="black" stroke="black" points="1180.63,-185.49 1190.97,-187.81 1184.34,-179.55 1180.63,-185.49"/>
</g>
<!-- 1990979326928&#45;&gt;1990979325056 -->
<g id="edge19" class="edge">
<title>1990979326928&#45;&gt;1990979325056</title>
<path fill="none" stroke="black" d="M1128.79,-264.95C1144.08,-255.42 1164.69,-242.57 1182.62,-231.39"/>
<polygon fill="black" stroke="black" points="1184.34,-234.45 1190.97,-226.19 1180.63,-228.51 1184.34,-234.45"/>
</g>
<!-- 1990979335424&#45;&gt;1990979334560 -->
<g id="edge27" class="edge">
<title>1990979335424&#45;&gt;1990979334560</title>
<path fill="none" stroke="black" d="M1367.73,-387C1378.1,-387 1390.36,-387 1402.3,-387"/>
<polygon fill="black" stroke="black" points="1402.06,-390.5 1412.06,-387 1402.06,-383.5 1402.06,-390.5"/>
</g>
<!-- 1990979334416&#45;&gt;1990979333840 -->
<g id="edge26" class="edge">
<title>1990979334416&#45;&gt;1990979333840</title>
<path fill="none" stroke="black" d="M1367.73,-315C1375.9,-315 1385.24,-315 1394.67,-315"/>
<polygon fill="black" stroke="black" points="1394.64,-318.5 1404.64,-315 1394.64,-311.5 1394.64,-318.5"/>
</g>
<!-- 1990979331632&#45;&gt;1990979337056 -->
<g id="edge30" class="edge">
<title>1990979331632&#45;&gt;1990979337056</title>
<path fill="none" stroke="black" d="M1367.73,-243C1377.51,-243 1388.97,-243 1400.25,-243"/>
<polygon fill="black" stroke="black" points="1399.9,-246.5 1409.9,-243 1399.9,-239.5 1399.9,-246.5"/>
</g>
<!-- 1990979337008&#45;&gt;1990979336576 -->
<g id="edge28" class="edge">
<title>1990979337008&#45;&gt;1990979336576</title>
<path fill="none" stroke="black" d="M1367.73,-171C1377.71,-171 1389.42,-171 1400.93,-171"/>
<polygon fill="black" stroke="black" points="1400.77,-174.5 1410.77,-171 1400.77,-167.5 1400.77,-174.5"/>
</g>
<!-- 1990979336240&#45;&gt;1990979335136 -->
<g id="edge31" class="edge">
<title>1990979336240&#45;&gt;1990979335136</title>
<path fill="none" stroke="black" d="M1367.73,-99C1375.01,-99 1383.22,-99 1391.59,-99"/>
<polygon fill="black" stroke="black" points="1391.53,-102.5 1401.53,-99 1391.53,-95.5 1391.53,-102.5"/>
</g>
<!-- 1990979333552&#45;&gt;1990979332688 -->
<g id="edge29" class="edge">
<title>1990979333552&#45;&gt;1990979332688</title>
<path fill="none" stroke="black" d="M1367.73,-27C1375.27,-27 1383.81,-27 1392.5,-27"/>
<polygon fill="black" stroke="black" points="1392.42,-30.5 1402.42,-27 1392.42,-23.5 1392.42,-30.5"/>
</g>
<!-- 1990977564704&#45;&gt;1990976057568 -->
<g id="edge43" class="edge">
<title>1990977564704&#45;&gt;1990976057568</title>
<path fill="none" stroke="black" d="M1584.84,-365.58C1588.22,-360.85 1591.69,-355.81 1594.75,-351 1619.64,-311.87 1645.14,-264.56 1660.49,-235.12"/>
<polygon fill="black" stroke="black" points="1663.48,-236.96 1664.97,-226.47 1657.26,-233.74 1663.48,-236.96"/>
</g>
<!-- 1990977554864&#45;&gt;1990976057568 -->
<g id="edge40" class="edge">
<title>1990977554864&#45;&gt;1990976057568</title>
<path fill="none" stroke="black" d="M1587.48,-295.94C1604.58,-278.53 1630.03,-252.64 1649.06,-233.27"/>
<polygon fill="black" stroke="black" points="1651.47,-235.82 1655.98,-226.23 1646.47,-230.91 1651.47,-235.82"/>
</g>
<!-- 1990977558608&#45;&gt;1990976057568 -->
<g id="edge41" class="edge">
<title>1990977558608&#45;&gt;1990976057568</title>
<path fill="none" stroke="black" d="M1593.63,-234.56C1601.56,-231.87 1610.67,-228.78 1619.85,-225.67"/>
<polygon fill="black" stroke="black" points="1620.83,-229.03 1629.17,-222.5 1618.58,-222.4 1620.83,-229.03"/>
</g>
<!-- 1990977557984&#45;&gt;1990976057568 -->
<g id="edge39" class="edge">
<title>1990977557984&#45;&gt;1990976057568</title>
<path fill="none" stroke="black" d="M1593.63,-179.44C1601.56,-182.13 1610.67,-185.22 1619.85,-188.33"/>
<polygon fill="black" stroke="black" points="1618.58,-191.6 1629.17,-191.5 1620.83,-184.97 1618.58,-191.6"/>
</g>
<!-- 1990977559664&#45;&gt;1990976057568 -->
<g id="edge38" class="edge">
<title>1990977559664&#45;&gt;1990976057568</title>
<path fill="none" stroke="black" d="M1587.48,-118.06C1604.58,-135.47 1630.03,-161.36 1649.06,-180.73"/>
<polygon fill="black" stroke="black" points="1646.47,-183.09 1655.98,-187.77 1651.47,-178.18 1646.47,-183.09"/>
</g>
<!-- 1990977568496&#45;&gt;1990976057568 -->
<g id="edge42" class="edge">
<title>1990977568496&#45;&gt;1990976057568</title>
<path fill="none" stroke="black" d="M1584.84,-48.42C1588.22,-53.15 1591.69,-58.19 1594.75,-63 1619.64,-102.13 1645.14,-149.44 1660.49,-178.88"/>
<polygon fill="black" stroke="black" points="1657.26,-180.26 1664.97,-187.53 1663.48,-177.04 1657.26,-180.26"/>
</g>
<!-- 1990979332544&#45;&gt;1990979331056 -->
<g id="edge45" class="edge">
<title>1990979332544&#45;&gt;1990979331056</title>
<path fill="none" stroke="black" d="M1811.24,-207C1818.57,-207 1826.84,-207 1835.22,-207"/>
<polygon fill="black" stroke="black" points="1835.12,-210.5 1845.12,-207 1835.12,-203.5 1835.12,-210.5"/>
</g>
<!-- 1990979331200&#45;&gt;1990979329280 -->
<g id="edge47" class="edge">
<title>1990979331200&#45;&gt;1990979329280</title>
<path fill="none" stroke="black" d="M2029.73,-207C2037.04,-207 2045.28,-207 2053.68,-207"/>
<polygon fill="black" stroke="black" points="2053.62,-210.5 2063.62,-207 2053.62,-203.5 2053.62,-210.5"/>
</g>
</g>
</svg>
