<?xml version="1.0" encoding="UTF-8" standalone="no"?>
<!DOCTYPE svg PUBLIC "-//W3C//DTD SVG 1.1//EN"
 "http://www.w3.org/Graphics/SVG/1.1/DTD/svg11.dtd">
<!-- Generated by graphviz version 11.0.0 (20240428.1522)
 -->
<!-- Title: imdf_net_1754051460.4142475 Pages: 1 -->
<svg width="2603pt" height="242pt"
 viewBox="0.00 0.00 2602.50 242.00" xmlns="http://www.w3.org/2000/svg" xmlns:xlink="http://www.w3.org/1999/xlink">
<g id="graph0" class="graph" transform="scale(1 1) rotate(0) translate(4 238)">
<title>imdf_net_1754051460.4142475</title>
<polygon fill="white" stroke="none" points="-4,4 -4,-238 2598.5,-238 2598.5,4 -4,4"/>
<!-- 1990977404560 -->
<g id="node1" class="node">
<title>1990977404560</title>
<polygon fill="black" stroke="black" points="144,-216 90,-216 90,-180 144,-180 144,-216"/>
</g>
<!-- 1990979728784 -->
<g id="node19" class="node">
<title>1990979728784</title>
<ellipse fill="white" stroke="black" cx="207" cy="-198" rx="27" ry="27"/>
</g>
<!-- 1990977404560&#45;&gt;1990979728784 -->
<g id="edge2" class="edge">
<title>1990977404560&#45;&gt;1990979728784</title>
<path fill="none" stroke="black" d="M144.4,-198C151.89,-198 160.18,-198 168.2,-198"/>
<polygon fill="black" stroke="black" points="168.1,-201.5 178.1,-198 168.1,-194.5 168.1,-201.5"/>
</g>
<!-- 1990980639328 -->
<g id="node2" class="node">
<title>1990980639328</title>
<polygon fill="white" stroke="black" points="340.75,-189 270,-189 270,-153 340.75,-153 340.75,-189"/>
<text text-anchor="middle" x="305.38" y="-165.97" font-family="Times New Roman,serif" font-size="12.00">Site Survey</text>
</g>
<!-- 1990980366848 -->
<g id="node20" class="node">
<title>1990980366848</title>
<ellipse fill="white" stroke="black" cx="403.75" cy="-171" rx="27" ry="27"/>
</g>
<!-- 1990980639328&#45;&gt;1990980366848 -->
<g id="edge5" class="edge">
<title>1990980639328&#45;&gt;1990980366848</title>
<path fill="none" stroke="black" d="M341.17,-171C348.9,-171 357.14,-171 364.98,-171"/>
<polygon fill="black" stroke="black" points="364.97,-174.5 374.97,-171 364.97,-167.5 364.97,-174.5"/>
</g>
<!-- 1990980634000 -->
<g id="node21" class="node">
<title>1990980634000</title>
<ellipse fill="white" stroke="black" cx="403.75" cy="-99" rx="27" ry="27"/>
</g>
<!-- 1990980639328&#45;&gt;1990980634000 -->
<g id="edge4" class="edge">
<title>1990980639328&#45;&gt;1990980634000</title>
<path fill="none" stroke="black" d="M330.94,-152.65C343.63,-143.17 359.22,-131.52 372.63,-121.5"/>
<polygon fill="black" stroke="black" points="374.37,-124.57 380.29,-115.78 370.18,-118.96 374.37,-124.57"/>
</g>
<!-- 1990971225296 -->
<g id="node3" class="node">
<title>1990971225296</title>
<polygon fill="white" stroke="black" points="549.88,-189 470.88,-189 470.88,-153 549.88,-153 549.88,-189"/>
<text text-anchor="middle" x="510.38" y="-165.97" font-family="Times New Roman,serif" font-size="12.00">Impact Study</text>
</g>
<!-- 1990980808928 -->
<g id="node23" class="node">
<title>1990980808928</title>
<ellipse fill="white" stroke="black" cx="617" cy="-171" rx="27" ry="27"/>
</g>
<!-- 1990971225296&#45;&gt;1990980808928 -->
<g id="edge8" class="edge">
<title>1990971225296&#45;&gt;1990980808928</title>
<path fill="none" stroke="black" d="M550.33,-171C559.46,-171 569.17,-171 578.25,-171"/>
<polygon fill="black" stroke="black" points="578.2,-174.5 588.2,-171 578.2,-167.5 578.2,-174.5"/>
</g>
<!-- 1990980638560 -->
<g id="node4" class="node">
<title>1990980638560</title>
<polygon fill="white" stroke="black" points="554,-117 466.75,-117 466.75,-81 554,-81 554,-117"/>
<text text-anchor="middle" x="510.38" y="-93.97" font-family="Times New Roman,serif" font-size="12.00">System Design</text>
</g>
<!-- 1990980805760 -->
<g id="node22" class="node">
<title>1990980805760</title>
<ellipse fill="white" stroke="black" cx="617" cy="-99" rx="27" ry="27"/>
</g>
<!-- 1990980638560&#45;&gt;1990980805760 -->
<g id="edge9" class="edge">
<title>1990980638560&#45;&gt;1990980805760</title>
<path fill="none" stroke="black" d="M554.23,-99C562.18,-99 570.42,-99 578.2,-99"/>
<polygon fill="black" stroke="black" points="578.04,-102.5 588.04,-99 578.04,-95.5 578.04,-102.5"/>
</g>
<!-- 1990980798224 -->
<g id="node5" class="node">
<title>1990980798224</title>
<polygon fill="white" stroke="black" points="775.5,-189 698,-189 698,-153 775.5,-153 775.5,-189"/>
<text text-anchor="middle" x="736.75" y="-165.97" font-family="Times New Roman,serif" font-size="12.00">Permit Filing</text>
</g>
<!-- 1990980801392 -->
<g id="node25" class="node">
<title>1990980801392</title>
<ellipse fill="white" stroke="black" cx="856.5" cy="-171" rx="27" ry="27"/>
</g>
<!-- 1990980798224&#45;&gt;1990980801392 -->
<g id="edge13" class="edge">
<title>1990980798224&#45;&gt;1990980801392</title>
<path fill="none" stroke="black" d="M775.98,-171C789.48,-171 804.65,-171 818.08,-171"/>
<polygon fill="black" stroke="black" points="817.85,-174.5 827.85,-171 817.85,-167.5 817.85,-174.5"/>
</g>
<!-- 1990980810032 -->
<g id="node6" class="node">
<title>1990980810032</title>
<polygon fill="white" stroke="black" points="793.5,-117 680,-117 680,-81 793.5,-81 793.5,-117"/>
<text text-anchor="middle" x="736.75" y="-93.97" font-family="Times New Roman,serif" font-size="12.00">Equipment Sourcing</text>
</g>
<!-- 1990980800528 -->
<g id="node24" class="node">
<title>1990980800528</title>
<ellipse fill="white" stroke="black" cx="856.5" cy="-99" rx="27" ry="27"/>
</g>
<!-- 1990980810032&#45;&gt;1990980800528 -->
<g id="edge12" class="edge">
<title>1990980810032&#45;&gt;1990980800528</title>
<path fill="none" stroke="black" d="M793.87,-99C801.95,-99 810.11,-99 817.72,-99"/>
<polygon fill="black" stroke="black" points="817.63,-102.5 827.63,-99 817.63,-95.5 817.63,-102.5"/>
</g>
<!-- 1990978236832 -->
<g id="node7" class="node">
<title>1990978236832</title>
<polygon fill="white" stroke="black" points="1002.25,-117 919.5,-117 919.5,-81 1002.25,-81 1002.25,-117"/>
<text text-anchor="middle" x="960.88" y="-93.97" font-family="Times New Roman,serif" font-size="12.00">Climate Setup</text>
</g>
<!-- 1990976172016 -->
<g id="node26" class="node">
<title>1990976172016</title>
<ellipse fill="white" stroke="black" cx="1065.25" cy="-99" rx="27" ry="27"/>
</g>
<!-- 1990978236832&#45;&gt;1990976172016 -->
<g id="edge16" class="edge">
<title>1990978236832&#45;&gt;1990976172016</title>
<path fill="none" stroke="black" d="M1002.63,-99C1010.48,-99 1018.67,-99 1026.42,-99"/>
<polygon fill="black" stroke="black" points="1026.24,-102.5 1036.24,-99 1026.24,-95.5 1026.24,-102.5"/>
</g>
<!-- 1990977079104 -->
<g id="node8" class="node">
<title>1990977079104</title>
<polygon fill="white" stroke="black" points="1211,-117 1128.25,-117 1128.25,-81 1211,-81 1211,-117"/>
<text text-anchor="middle" x="1169.62" y="-93.97" font-family="Times New Roman,serif" font-size="12.00">AI Integration</text>
</g>
<!-- 1990976656960 -->
<g id="node27" class="node">
<title>1990976656960</title>
<ellipse fill="white" stroke="black" cx="1274" cy="-99" rx="27" ry="27"/>
</g>
<!-- 1990977079104&#45;&gt;1990976656960 -->
<g id="edge18" class="edge">
<title>1990977079104&#45;&gt;1990976656960</title>
<path fill="none" stroke="black" d="M1211.38,-99C1219.23,-99 1227.42,-99 1235.17,-99"/>
<polygon fill="black" stroke="black" points="1234.99,-102.5 1244.99,-99 1234.99,-95.5 1234.99,-102.5"/>
</g>
<!-- 1990980444880 -->
<g id="node9" class="node">
<title>1990980444880</title>
<polygon fill="white" stroke="black" points="1409.25,-117 1337,-117 1337,-81 1409.25,-81 1409.25,-117"/>
<text text-anchor="middle" x="1373.12" y="-93.97" font-family="Times New Roman,serif" font-size="12.00">Staff Hiring</text>
</g>
<!-- 1990976886336 -->
<g id="node28" class="node">
<title>1990976886336</title>
<ellipse fill="white" stroke="black" cx="1472.25" cy="-99" rx="27" ry="27"/>
</g>
<!-- 1990980444880&#45;&gt;1990976886336 -->
<g id="edge20" class="edge">
<title>1990980444880&#45;&gt;1990976886336</title>
<path fill="none" stroke="black" d="M1409.74,-99C1417.43,-99 1425.59,-99 1433.37,-99"/>
<polygon fill="black" stroke="black" points="1433.25,-102.5 1443.25,-99 1433.25,-95.5 1433.25,-102.5"/>
</g>
<!-- 1990976890848 -->
<g id="node10" class="node">
<title>1990976890848</title>
<polygon fill="white" stroke="black" points="1613.5,-117 1535.25,-117 1535.25,-81 1613.5,-81 1613.5,-117"/>
<text text-anchor="middle" x="1574.38" y="-93.97" font-family="Times New Roman,serif" font-size="12.00">Crop Testing</text>
</g>
<!-- 1990976883840 -->
<g id="node29" class="node">
<title>1990976883840</title>
<ellipse fill="white" stroke="black" cx="1676.5" cy="-171" rx="27" ry="27"/>
</g>
<!-- 1990976890848&#45;&gt;1990976883840 -->
<g id="edge22" class="edge">
<title>1990976890848&#45;&gt;1990976883840</title>
<path fill="none" stroke="black" d="M1600.9,-117.35C1614.27,-126.97 1630.74,-138.81 1644.8,-148.92"/>
<polygon fill="black" stroke="black" points="1642.69,-151.72 1652.86,-154.72 1646.78,-146.04 1642.69,-151.72"/>
</g>
<!-- 1990976882304 -->
<g id="node30" class="node">
<title>1990976882304</title>
<ellipse fill="white" stroke="black" cx="1676.5" cy="-99" rx="27" ry="27"/>
</g>
<!-- 1990976890848&#45;&gt;1990976882304 -->
<g id="edge24" class="edge">
<title>1990976890848&#45;&gt;1990976882304</title>
<path fill="none" stroke="black" d="M1613.8,-99C1621.64,-99 1629.88,-99 1637.69,-99"/>
<polygon fill="black" stroke="black" points="1637.61,-102.5 1647.61,-99 1637.61,-95.5 1637.61,-102.5"/>
</g>
<!-- 1990976896320 -->
<g id="node31" class="node">
<title>1990976896320</title>
<ellipse fill="white" stroke="black" cx="1676.5" cy="-27" rx="27" ry="27"/>
</g>
<!-- 1990976890848&#45;&gt;1990976896320 -->
<g id="edge23" class="edge">
<title>1990976890848&#45;&gt;1990976896320</title>
<path fill="none" stroke="black" d="M1600.9,-80.65C1614.27,-71.03 1630.74,-59.19 1644.8,-49.08"/>
<polygon fill="black" stroke="black" points="1646.78,-51.96 1652.86,-43.28 1642.69,-46.28 1646.78,-51.96"/>
</g>
<!-- 1990976896272 -->
<g id="node11" class="node">
<title>1990976896272</title>
<polygon fill="white" stroke="black" points="1824.12,-117 1741.38,-117 1741.38,-81 1824.12,-81 1824.12,-117"/>
<text text-anchor="middle" x="1782.75" y="-93.97" font-family="Times New Roman,serif" font-size="12.00">Logistics Plan</text>
</g>
<!-- 1990980997328 -->
<g id="node34" class="node">
<title>1990980997328</title>
<ellipse fill="white" stroke="black" cx="1889" cy="-99" rx="27" ry="27"/>
</g>
<!-- 1990976896272&#45;&gt;1990980997328 -->
<g id="edge30" class="edge">
<title>1990976896272&#45;&gt;1990980997328</title>
<path fill="none" stroke="black" d="M1824.35,-99C1832.9,-99 1841.89,-99 1850.32,-99"/>
<polygon fill="black" stroke="black" points="1850.27,-102.5 1860.27,-99 1850.27,-95.5 1850.27,-102.5"/>
</g>
<!-- 1990976890704 -->
<g id="node12" class="node">
<title>1990976890704</title>
<polygon fill="white" stroke="black" points="1823,-189 1742.5,-189 1742.5,-153 1823,-153 1823,-189"/>
<text text-anchor="middle" x="1782.75" y="-165.97" font-family="Times New Roman,serif" font-size="12.00">Energy Audit</text>
</g>
<!-- 1990980995888 -->
<g id="node33" class="node">
<title>1990980995888</title>
<ellipse fill="white" stroke="black" cx="1889" cy="-171" rx="27" ry="27"/>
</g>
<!-- 1990976890704&#45;&gt;1990980995888 -->
<g id="edge29" class="edge">
<title>1990976890704&#45;&gt;1990980995888</title>
<path fill="none" stroke="black" d="M1823.46,-171C1832.24,-171 1841.52,-171 1850.23,-171"/>
<polygon fill="black" stroke="black" points="1850.12,-174.5 1860.12,-171 1850.12,-167.5 1850.12,-174.5"/>
</g>
<!-- 1990976896464 -->
<g id="node13" class="node">
<title>1990976896464</title>
<polygon fill="white" stroke="black" points="1826,-45 1739.5,-45 1739.5,-9 1826,-9 1826,-45"/>
<text text-anchor="middle" x="1782.75" y="-21.98" font-family="Times New Roman,serif" font-size="12.00">Yield Analysis</text>
</g>
<!-- 1990980997136 -->
<g id="node32" class="node">
<title>1990980997136</title>
<ellipse fill="white" stroke="black" cx="1889" cy="-27" rx="27" ry="27"/>
</g>
<!-- 1990976896464&#45;&gt;1990980997136 -->
<g id="edge28" class="edge">
<title>1990976896464&#45;&gt;1990980997136</title>
<path fill="none" stroke="black" d="M1826.45,-27C1834.37,-27 1842.59,-27 1850.34,-27"/>
<polygon fill="black" stroke="black" points="1850.14,-30.5 1860.14,-27 1850.14,-23.5 1850.14,-30.5"/>
</g>
<!-- 1990976886000 -->
<g id="node14" class="node">
<title>1990976886000</title>
<polygon fill="white" stroke="black" points="2065.5,-121 1952,-121 1952,-85 2065.5,-85 2065.5,-121"/>
<text text-anchor="middle" x="2008.75" y="-97.97" font-family="Times New Roman,serif" font-size="12.00">Sustainability Check</text>
</g>
<!-- 1990980810176 -->
<g id="node35" class="node">
<title>1990980810176</title>
<ellipse fill="white" stroke="black" cx="2128.5" cy="-108" rx="27" ry="27"/>
</g>
<!-- 1990976886000&#45;&gt;1990980810176 -->
<g id="edge34" class="edge">
<title>1990976886000&#45;&gt;1990980810176</title>
<path fill="none" stroke="black" d="M2065.87,-105.38C2073.95,-105.73 2082.11,-106.07 2089.72,-106.4"/>
<polygon fill="black" stroke="black" points="2089.5,-109.89 2099.64,-106.82 2089.79,-102.9 2089.5,-109.89"/>
</g>
<!-- 1990980797600 -->
<g id="node15" class="node">
<title>1990980797600</title>
<polygon fill="white" stroke="black" points="2280.25,-162 2191.5,-162 2191.5,-126 2280.25,-126 2280.25,-162"/>
<text text-anchor="middle" x="2235.88" y="-138.97" font-family="Times New Roman,serif" font-size="12.00">Market Launch</text>
</g>
<!-- 1990978400048 -->
<g id="node36" class="node">
<title>1990978400048</title>
<ellipse fill="white" stroke="black" cx="2343.25" cy="-162" rx="27" ry="27"/>
</g>
<!-- 1990980797600&#45;&gt;1990978400048 -->
<g id="edge36" class="edge">
<title>1990980797600&#45;&gt;1990978400048</title>
<path fill="none" stroke="black" d="M2280.65,-151.48C2288.78,-152.87 2297.2,-154.3 2305.11,-155.66"/>
<polygon fill="black" stroke="black" points="2304.3,-159.07 2314.74,-157.3 2305.48,-152.17 2304.3,-159.07"/>
</g>
<!-- 1990980999344 -->
<g id="node16" class="node">
<title>1990980999344</title>
<polygon fill="white" stroke="black" points="2496.5,-234 2406.25,-234 2406.25,-198 2496.5,-198 2496.5,-234"/>
<text text-anchor="middle" x="2451.38" y="-210.97" font-family="Times New Roman,serif" font-size="12.00">Feedback Loop</text>
</g>
<!-- 1990980999344&#45;&gt;1990979728784 -->
<g id="edge39" class="edge">
<title>1990980999344&#45;&gt;1990979728784</title>
<path fill="none" stroke="black" d="M2405.83,-219.3C2362.66,-222.21 2295.32,-226 2236.88,-226 402.75,-226 402.75,-226 402.75,-226 347.22,-226 283.68,-214.71 244.7,-206.47"/>
<polygon fill="black" stroke="black" points="245.66,-203.09 235.14,-204.4 244.17,-209.93 245.66,-203.09"/>
</g>
<!-- 1990981000160 -->
<g id="node17" class="node">
<title>1990981000160</title>
<polygon fill="black" stroke="black" points="2478.38,-180 2424.38,-180 2424.38,-144 2478.38,-144 2478.38,-180"/>
</g>
<!-- 1990977391216 -->
<g id="node37" class="node">
<title>1990977391216</title>
<ellipse fill="white" stroke="black" cx="2563.5" cy="-162" rx="27" ry="27"/>
<ellipse fill="none" stroke="black" cx="2563.5" cy="-162" rx="31" ry="31"/>
<text text-anchor="start" x="2547" y="-146.6" font-family="Times New Roman,serif" font-size="32.00">■</text>
</g>
<!-- 1990981000160&#45;&gt;1990977391216 -->
<g id="edge40" class="edge">
<title>1990981000160&#45;&gt;1990977391216</title>
<path fill="none" stroke="black" d="M2478.75,-162C2491.28,-162 2506.56,-162 2520.61,-162"/>
<polygon fill="black" stroke="black" points="2520.54,-165.5 2530.54,-162 2520.54,-158.5 2520.54,-165.5"/>
</g>
<!-- 1990977391744 -->
<g id="node18" class="node">
<title>1990977391744</title>
<ellipse fill="white" stroke="black" cx="27" cy="-198" rx="27" ry="27"/>
<text text-anchor="start" x="9.75" y="-180.7" font-family="Times New Roman,serif" font-size="34.00">●</text>
</g>
<!-- 1990977391744&#45;&gt;1990977404560 -->
<g id="edge1" class="edge">
<title>1990977391744&#45;&gt;1990977404560</title>
<path fill="none" stroke="black" d="M54.4,-198C61.89,-198 70.18,-198 78.2,-198"/>
<polygon fill="black" stroke="black" points="78.1,-201.5 88.1,-198 78.1,-194.5 78.1,-201.5"/>
</g>
<!-- 1990979728784&#45;&gt;1990980639328 -->
<g id="edge3" class="edge">
<title>1990979728784&#45;&gt;1990980639328</title>
<path fill="none" stroke="black" d="M233.32,-190.91C241.16,-188.71 250.06,-186.22 258.84,-183.76"/>
<polygon fill="black" stroke="black" points="259.66,-187.16 268.35,-181.09 257.77,-180.42 259.66,-187.16"/>
</g>
<!-- 1990980366848&#45;&gt;1990971225296 -->
<g id="edge7" class="edge">
<title>1990980366848&#45;&gt;1990971225296</title>
<path fill="none" stroke="black" d="M431.15,-171C439.77,-171 449.64,-171 459.4,-171"/>
<polygon fill="black" stroke="black" points="459.21,-174.5 469.21,-171 459.21,-167.5 459.21,-174.5"/>
</g>
<!-- 1990980634000&#45;&gt;1990980638560 -->
<g id="edge6" class="edge">
<title>1990980634000&#45;&gt;1990980638560</title>
<path fill="none" stroke="black" d="M431.15,-99C438.48,-99 446.71,-99 455.01,-99"/>
<polygon fill="black" stroke="black" points="454.78,-102.5 464.78,-99 454.78,-95.5 454.78,-102.5"/>
</g>
<!-- 1990980805760&#45;&gt;1990980810032 -->
<g id="edge11" class="edge">
<title>1990980805760&#45;&gt;1990980810032</title>
<path fill="none" stroke="black" d="M644.43,-99C651.6,-99 659.72,-99 668.08,-99"/>
<polygon fill="black" stroke="black" points="668.04,-102.5 678.04,-99 668.04,-95.5 668.04,-102.5"/>
</g>
<!-- 1990980808928&#45;&gt;1990980798224 -->
<g id="edge10" class="edge">
<title>1990980808928&#45;&gt;1990980798224</title>
<path fill="none" stroke="black" d="M644.43,-171C656.84,-171 672.05,-171 686.47,-171"/>
<polygon fill="black" stroke="black" points="686.29,-174.5 696.29,-171 686.29,-167.5 686.29,-174.5"/>
</g>
<!-- 1990980800528&#45;&gt;1990978236832 -->
<g id="edge14" class="edge">
<title>1990980800528&#45;&gt;1990978236832</title>
<path fill="none" stroke="black" d="M883.86,-99C891.28,-99 899.61,-99 907.96,-99"/>
<polygon fill="black" stroke="black" points="907.77,-102.5 917.77,-99 907.77,-95.5 907.77,-102.5"/>
</g>
<!-- 1990980801392&#45;&gt;1990978236832 -->
<g id="edge15" class="edge">
<title>1990980801392&#45;&gt;1990978236832</title>
<path fill="none" stroke="black" d="M879.21,-155.73C892.43,-146.43 909.63,-134.34 924.75,-123.7"/>
<polygon fill="black" stroke="black" points="926.44,-126.79 932.6,-118.18 922.41,-121.07 926.44,-126.79"/>
</g>
<!-- 1990976172016&#45;&gt;1990977079104 -->
<g id="edge17" class="edge">
<title>1990976172016&#45;&gt;1990977079104</title>
<path fill="none" stroke="black" d="M1092.61,-99C1100.03,-99 1108.36,-99 1116.71,-99"/>
<polygon fill="black" stroke="black" points="1116.52,-102.5 1126.52,-99 1116.52,-95.5 1116.52,-102.5"/>
</g>
<!-- 1990976656960&#45;&gt;1990980444880 -->
<g id="edge19" class="edge">
<title>1990976656960&#45;&gt;1990980444880</title>
<path fill="none" stroke="black" d="M1301.28,-99C1308.69,-99 1316.98,-99 1325.21,-99"/>
<polygon fill="black" stroke="black" points="1325.19,-102.5 1335.19,-99 1325.19,-95.5 1325.19,-102.5"/>
</g>
<!-- 1990976886336&#45;&gt;1990976890848 -->
<g id="edge21" class="edge">
<title>1990976886336&#45;&gt;1990976890848</title>
<path fill="none" stroke="black" d="M1499.56,-99C1506.88,-99 1515.09,-99 1523.3,-99"/>
<polygon fill="black" stroke="black" points="1523.3,-102.5 1533.3,-99 1523.3,-95.5 1523.3,-102.5"/>
</g>
<!-- 1990976883840&#45;&gt;1990976890704 -->
<g id="edge25" class="edge">
<title>1990976883840&#45;&gt;1990976890704</title>
<path fill="none" stroke="black" d="M1703.81,-171C1712.04,-171 1721.42,-171 1730.76,-171"/>
<polygon fill="black" stroke="black" points="1730.53,-174.5 1740.53,-171 1730.53,-167.5 1730.53,-174.5"/>
</g>
<!-- 1990976882304&#45;&gt;1990976896272 -->
<g id="edge26" class="edge">
<title>1990976882304&#45;&gt;1990976896272</title>
<path fill="none" stroke="black" d="M1703.81,-99C1711.78,-99 1720.83,-99 1729.87,-99"/>
<polygon fill="black" stroke="black" points="1729.73,-102.5 1739.73,-99 1729.73,-95.5 1729.73,-102.5"/>
</g>
<!-- 1990976896320&#45;&gt;1990976896464 -->
<g id="edge27" class="edge">
<title>1990976896320&#45;&gt;1990976896464</title>
<path fill="none" stroke="black" d="M1703.81,-27C1711.19,-27 1719.49,-27 1727.86,-27"/>
<polygon fill="black" stroke="black" points="1727.71,-30.5 1737.71,-27 1727.71,-23.5 1727.71,-30.5"/>
</g>
<!-- 1990980997136&#45;&gt;1990976886000 -->
<g id="edge31" class="edge">
<title>1990980997136&#45;&gt;1990976886000</title>
<path fill="none" stroke="black" d="M1912.15,-41.3C1928.37,-51.77 1950.79,-66.24 1969.85,-78.53"/>
<polygon fill="black" stroke="black" points="1967.88,-81.43 1978.18,-83.91 1971.67,-75.55 1967.88,-81.43"/>
</g>
<!-- 1990980995888&#45;&gt;1990976886000 -->
<g id="edge33" class="edge">
<title>1990980995888&#45;&gt;1990976886000</title>
<path fill="none" stroke="black" d="M1912.98,-157.73C1928.12,-148.99 1948.37,-137.29 1966.26,-126.96"/>
<polygon fill="black" stroke="black" points="1967.7,-130.17 1974.61,-122.14 1964.2,-124.11 1967.7,-130.17"/>
</g>
<!-- 1990980997328&#45;&gt;1990976886000 -->
<g id="edge32" class="edge">
<title>1990980997328&#45;&gt;1990976886000</title>
<path fill="none" stroke="black" d="M1916.43,-99.9C1923.6,-100.14 1931.72,-100.42 1940.08,-100.7"/>
<polygon fill="black" stroke="black" points="1939.93,-104.2 1950.04,-101.04 1940.17,-97.2 1939.93,-104.2"/>
</g>
<!-- 1990980810176&#45;&gt;1990980797600 -->
<g id="edge35" class="edge">
<title>1990980810176&#45;&gt;1990980797600</title>
<path fill="none" stroke="black" d="M2154.47,-116.53C2162.35,-119.22 2171.37,-122.31 2180.47,-125.41"/>
<polygon fill="black" stroke="black" points="2179.09,-128.64 2189.68,-128.56 2181.35,-122.02 2179.09,-128.64"/>
</g>
<!-- 1990978400048&#45;&gt;1990980999344 -->
<g id="edge38" class="edge">
<title>1990978400048&#45;&gt;1990980999344</title>
<path fill="none" stroke="black" d="M2367.8,-173.98C2378.6,-179.48 2391.78,-186.18 2404.41,-192.61"/>
<polygon fill="black" stroke="black" points="2402.52,-195.58 2413.02,-196.99 2405.7,-189.34 2402.52,-195.58"/>
</g>
<!-- 1990978400048&#45;&gt;1990981000160 -->
<g id="edge37" class="edge">
<title>1990978400048&#45;&gt;1990981000160</title>
<path fill="none" stroke="black" d="M2370.48,-162C2383.24,-162 2398.8,-162 2412.79,-162"/>
<polygon fill="black" stroke="black" points="2412.56,-165.5 2422.56,-162 2412.56,-158.5 2412.56,-165.5"/>
</g>
</g>
</svg>
