<?xml version="1.0" encoding="UTF-8" standalone="no"?>
<!DOCTYPE svg PUBLIC "-//W3C//DTD SVG 1.1//EN"
 "http://www.w3.org/Graphics/SVG/1.1/DTD/svg11.dtd">
<!-- Generated by graphviz version 11.0.0 (20240428.1522)
 -->
<!-- Title: imdf_net_1754051475.256379 Pages: 1 -->
<svg width="2999pt" height="238pt"
 viewBox="0.00 0.00 2998.50 238.00" xmlns="http://www.w3.org/2000/svg" xmlns:xlink="http://www.w3.org/1999/xlink">
<g id="graph0" class="graph" transform="scale(1 1) rotate(0) translate(4 234)">
<title>imdf_net_1754051475.256379</title>
<polygon fill="white" stroke="none" points="-4,4 -4,-234 2994.5,-234 2994.5,4 -4,4"/>
<!-- 1990980644608 -->
<g id="node1" class="node">
<title>1990980644608</title>
<polygon fill="white" stroke="black" points="160.75,-210 90,-210 90,-174 160.75,-174 160.75,-210"/>
<text text-anchor="middle" x="125.38" y="-186.97" font-family="Times New Roman,serif" font-size="12.00">Site Survey</text>
</g>
<!-- 1990978474144 -->
<g id="node20" class="node">
<title>1990978474144</title>
<ellipse fill="white" stroke="black" cx="223.75" cy="-192" rx="27" ry="27"/>
</g>
<!-- 1990980644608&#45;&gt;1990978474144 -->
<g id="edge2" class="edge">
<title>1990980644608&#45;&gt;1990978474144</title>
<path fill="none" stroke="black" d="M161.17,-192C168.9,-192 177.14,-192 184.98,-192"/>
<polygon fill="black" stroke="black" points="184.97,-195.5 194.97,-192 184.97,-188.5 184.97,-195.5"/>
</g>
<!-- 1990978979696 -->
<g id="node2" class="node">
<title>1990978979696</title>
<polygon fill="white" stroke="black" points="373.25,-210 286.75,-210 286.75,-174 373.25,-174 373.25,-210"/>
<text text-anchor="middle" x="330" y="-186.97" font-family="Times New Roman,serif" font-size="12.00">Design Layout</text>
</g>
<!-- 1990977509408 -->
<g id="node21" class="node">
<title>1990977509408</title>
<ellipse fill="white" stroke="black" cx="436.25" cy="-192" rx="27" ry="27"/>
</g>
<!-- 1990978979696&#45;&gt;1990977509408 -->
<g id="edge4" class="edge">
<title>1990978979696&#45;&gt;1990977509408</title>
<path fill="none" stroke="black" d="M373.7,-192C381.62,-192 389.84,-192 397.59,-192"/>
<polygon fill="black" stroke="black" points="397.39,-195.5 407.39,-192 397.39,-188.5 397.39,-195.5"/>
</g>
<!-- 1990977510992 -->
<g id="node3" class="node">
<title>1990977510992</title>
<polygon fill="white" stroke="black" points="585.75,-210 499.25,-210 499.25,-174 585.75,-174 585.75,-210"/>
<text text-anchor="middle" x="542.5" y="-186.97" font-family="Times New Roman,serif" font-size="12.00">Permits Obtain</text>
</g>
<!-- 1990977514736 -->
<g id="node22" class="node">
<title>1990977514736</title>
<ellipse fill="white" stroke="black" cx="648.75" cy="-192" rx="27" ry="27"/>
</g>
<!-- 1990977510992&#45;&gt;1990977514736 -->
<g id="edge6" class="edge">
<title>1990977510992&#45;&gt;1990977514736</title>
<path fill="none" stroke="black" d="M586.2,-192C594.12,-192 602.34,-192 610.09,-192"/>
<polygon fill="black" stroke="black" points="609.89,-195.5 619.89,-192 609.89,-188.5 609.89,-195.5"/>
</g>
<!-- 1990978835168 -->
<g id="node4" class="node">
<title>1990978835168</title>
<polygon fill="white" stroke="black" points="799.75,-210 711.75,-210 711.75,-174 799.75,-174 799.75,-210"/>
<text text-anchor="middle" x="755.75" y="-186.97" font-family="Times New Roman,serif" font-size="12.00">Structure Build</text>
</g>
<!-- 1990977251200 -->
<g id="node23" class="node">
<title>1990977251200</title>
<ellipse fill="white" stroke="black" cx="862.75" cy="-192" rx="27" ry="27"/>
</g>
<!-- 1990978835168&#45;&gt;1990977251200 -->
<g id="edge8" class="edge">
<title>1990978835168&#45;&gt;1990977251200</title>
<path fill="none" stroke="black" d="M800.06,-192C808.02,-192 816.26,-192 824.03,-192"/>
<polygon fill="black" stroke="black" points="823.85,-195.5 833.85,-192 823.85,-188.5 823.85,-195.5"/>
</g>
<!-- 1990976046528 -->
<g id="node5" class="node">
<title>1990976046528</title>
<polygon fill="white" stroke="black" points="1002.5,-210 925.75,-210 925.75,-174 1002.5,-174 1002.5,-210"/>
<text text-anchor="middle" x="964.12" y="-186.97" font-family="Times New Roman,serif" font-size="12.00">Hydro Setup</text>
</g>
<!-- 1990976046240 -->
<g id="node24" class="node">
<title>1990976046240</title>
<ellipse fill="white" stroke="black" cx="1065.5" cy="-192" rx="27" ry="27"/>
</g>
<!-- 1990976046528&#45;&gt;1990976046240 -->
<g id="edge10" class="edge">
<title>1990976046528&#45;&gt;1990976046240</title>
<path fill="none" stroke="black" d="M1002.98,-192C1010.77,-192 1018.98,-192 1026.77,-192"/>
<polygon fill="black" stroke="black" points="1026.65,-195.5 1036.65,-192 1026.65,-188.5 1026.65,-195.5"/>
</g>
<!-- 1990978549232 -->
<g id="node6" class="node">
<title>1990978549232</title>
<polygon fill="white" stroke="black" points="1208.25,-210 1128.5,-210 1128.5,-174 1208.25,-174 1208.25,-210"/>
<text text-anchor="middle" x="1168.38" y="-186.97" font-family="Times New Roman,serif" font-size="12.00">Sensor Install</text>
</g>
<!-- 1990978539680 -->
<g id="node25" class="node">
<title>1990978539680</title>
<ellipse fill="white" stroke="black" cx="1271.25" cy="-192" rx="27" ry="27"/>
</g>
<!-- 1990978549232&#45;&gt;1990978539680 -->
<g id="edge12" class="edge">
<title>1990978549232&#45;&gt;1990978539680</title>
<path fill="none" stroke="black" d="M1208.66,-192C1216.53,-192 1224.77,-192 1232.57,-192"/>
<polygon fill="black" stroke="black" points="1232.47,-195.5 1242.47,-192 1232.47,-188.5 1232.47,-195.5"/>
</g>
<!-- 1990979329904 -->
<g id="node7" class="node">
<title>1990979329904</title>
<polygon fill="white" stroke="black" points="1411.75,-210 1334.25,-210 1334.25,-174 1411.75,-174 1411.75,-210"/>
<text text-anchor="middle" x="1373" y="-186.97" font-family="Times New Roman,serif" font-size="12.00">Nutrient Mix</text>
</g>
<!-- 1990979331824 -->
<g id="node26" class="node">
<title>1990979331824</title>
<ellipse fill="white" stroke="black" cx="1474.75" cy="-192" rx="27" ry="27"/>
</g>
<!-- 1990979329904&#45;&gt;1990979331824 -->
<g id="edge14" class="edge">
<title>1990979329904&#45;&gt;1990979331824</title>
<path fill="none" stroke="black" d="M1412,-192C1419.82,-192 1428.06,-192 1435.88,-192"/>
<polygon fill="black" stroke="black" points="1435.8,-195.5 1445.8,-192 1435.8,-188.5 1435.8,-195.5"/>
</g>
<!-- 1990979325824 -->
<g id="node8" class="node">
<title>1990979325824</title>
<polygon fill="white" stroke="black" points="1602.5,-210 1537.75,-210 1537.75,-174 1602.5,-174 1602.5,-210"/>
<text text-anchor="middle" x="1570.12" y="-186.97" font-family="Times New Roman,serif" font-size="12.00">AI Config</text>
</g>
<!-- 1990979322656 -->
<g id="node27" class="node">
<title>1990979322656</title>
<ellipse fill="white" stroke="black" cx="1665.5" cy="-192" rx="27" ry="27"/>
</g>
<!-- 1990979325824&#45;&gt;1990979322656 -->
<g id="edge16" class="edge">
<title>1990979325824&#45;&gt;1990979322656</title>
<path fill="none" stroke="black" d="M1603,-192C1610.58,-192 1618.74,-192 1626.56,-192"/>
<polygon fill="black" stroke="black" points="1626.53,-195.5 1636.53,-192 1626.53,-188.5 1626.53,-195.5"/>
</g>
<!-- 1990978707120 -->
<g id="node9" class="node">
<title>1990978707120</title>
<polygon fill="white" stroke="black" points="1810.5,-210 1728.5,-210 1728.5,-174 1810.5,-174 1810.5,-210"/>
<text text-anchor="middle" x="1769.5" y="-186.97" font-family="Times New Roman,serif" font-size="12.00">Crop Planting</text>
</g>
<!-- 1990971042624 -->
<g id="node28" class="node">
<title>1990971042624</title>
<ellipse fill="white" stroke="black" cx="1873.5" cy="-192" rx="27" ry="27"/>
</g>
<!-- 1990978707120&#45;&gt;1990971042624 -->
<g id="edge18" class="edge">
<title>1990978707120&#45;&gt;1990971042624</title>
<path fill="none" stroke="black" d="M1810.81,-192C1818.73,-192 1827,-192 1834.82,-192"/>
<polygon fill="black" stroke="black" points="1834.73,-195.5 1844.73,-192 1834.73,-188.5 1834.73,-195.5"/>
</g>
<!-- 1990980878896 -->
<g id="node10" class="node">
<title>1990980878896</title>
<polygon fill="white" stroke="black" points="2017,-210 1936.5,-210 1936.5,-174 2017,-174 2017,-210"/>
<text text-anchor="middle" x="1976.75" y="-186.97" font-family="Times New Roman,serif" font-size="12.00">Labor Assign</text>
</g>
<!-- 1990976839344 -->
<g id="node29" class="node">
<title>1990976839344</title>
<ellipse fill="white" stroke="black" cx="2080" cy="-192" rx="27" ry="27"/>
</g>
<!-- 1990980878896&#45;&gt;1990976839344 -->
<g id="edge20" class="edge">
<title>1990980878896&#45;&gt;1990976839344</title>
<path fill="none" stroke="black" d="M2017.48,-192C2025.35,-192 2033.59,-192 2041.39,-192"/>
<polygon fill="black" stroke="black" points="2041.27,-195.5 2051.27,-192 2041.27,-188.5 2041.27,-195.5"/>
</g>
<!-- 1990980111872 -->
<g id="node11" class="node">
<title>1990980111872</title>
<polygon fill="white" stroke="black" points="2237,-187 2143,-187 2143,-151 2237,-151 2237,-187"/>
<text text-anchor="middle" x="2190" y="-163.97" font-family="Times New Roman,serif" font-size="12.00">Growth Monitor</text>
</g>
<!-- 1990980109808 -->
<g id="node30" class="node">
<title>1990980109808</title>
<ellipse fill="white" stroke="black" cx="2300" cy="-153" rx="27" ry="27"/>
</g>
<!-- 1990980111872&#45;&gt;1990980109808 -->
<g id="edge22" class="edge">
<title>1990980111872&#45;&gt;1990980109808</title>
<path fill="none" stroke="black" d="M2237.43,-162.12C2245.48,-160.93 2253.75,-159.7 2261.53,-158.55"/>
<polygon fill="black" stroke="black" points="2261.96,-162.03 2271.34,-157.1 2260.94,-155.1 2261.96,-162.03"/>
</g>
<!-- 1990981475248 -->
<g id="node12" class="node">
<title>1990981475248</title>
<polygon fill="white" stroke="black" points="2465.25,-72 2363,-72 2363,-36 2465.25,-36 2465.25,-72"/>
<text text-anchor="middle" x="2414.12" y="-48.98" font-family="Times New Roman,serif" font-size="12.00">Harvest Automate</text>
</g>
<!-- 1990981468720 -->
<g id="node32" class="node">
<title>1990981468720</title>
<ellipse fill="white" stroke="black" cx="2528.25" cy="-31" rx="27" ry="27"/>
</g>
<!-- 1990981475248&#45;&gt;1990981468720 -->
<g id="edge27" class="edge">
<title>1990981475248&#45;&gt;1990981468720</title>
<path fill="none" stroke="black" d="M2465.61,-43.64C2473.97,-41.93 2482.49,-40.18 2490.43,-38.55"/>
<polygon fill="black" stroke="black" points="2490.98,-42.01 2500.07,-36.57 2489.57,-35.16 2490.98,-42.01"/>
</g>
<!-- 1990980111968 -->
<g id="node13" class="node">
<title>1990980111968</title>
<polygon fill="black" stroke="black" points="2441.12,-171 2387.12,-171 2387.12,-135 2441.12,-135 2441.12,-171"/>
</g>
<!-- 1990980112016 -->
<g id="node31" class="node">
<title>1990980112016</title>
<ellipse fill="white" stroke="black" cx="2528.25" cy="-175" rx="27" ry="27"/>
</g>
<!-- 1990980111968&#45;&gt;1990980112016 -->
<g id="edge26" class="edge">
<title>1990980111968&#45;&gt;1990980112016</title>
<path fill="none" stroke="black" d="M2441.41,-158.16C2456,-161.02 2474.37,-164.62 2490.37,-167.76"/>
<polygon fill="black" stroke="black" points="2489.54,-171.17 2500.03,-169.66 2490.89,-164.3 2489.54,-171.17"/>
</g>
<!-- 1990980115520 -->
<g id="node33" class="node">
<title>1990980115520</title>
<ellipse fill="white" stroke="black" cx="2528.25" cy="-103" rx="27" ry="27"/>
</g>
<!-- 1990980111968&#45;&gt;1990980115520 -->
<g id="edge25" class="edge">
<title>1990980111968&#45;&gt;1990980115520</title>
<path fill="none" stroke="black" d="M2441.41,-141.28C2456.71,-134.46 2476.16,-125.78 2492.68,-118.42"/>
<polygon fill="black" stroke="black" points="2493.95,-121.68 2501.66,-114.41 2491.1,-115.29 2493.95,-121.68"/>
</g>
<!-- 1990980115184 -->
<g id="node14" class="node">
<title>1990980115184</title>
<polygon fill="white" stroke="black" points="2671.75,-121 2597.25,-121 2597.25,-85 2671.75,-85 2671.75,-121"/>
<text text-anchor="middle" x="2634.5" y="-97.97" font-family="Times New Roman,serif" font-size="12.00">Pest Control</text>
</g>
<!-- 1990980121808 -->
<g id="node35" class="node">
<title>1990980121808</title>
<ellipse fill="white" stroke="black" cx="2740.75" cy="-103" rx="27" ry="27"/>
</g>
<!-- 1990980115184&#45;&gt;1990980121808 -->
<g id="edge32" class="edge">
<title>1990980115184&#45;&gt;1990980121808</title>
<path fill="none" stroke="black" d="M2671.96,-103C2681.65,-103 2692.13,-103 2701.88,-103"/>
<polygon fill="black" stroke="black" points="2701.81,-106.5 2711.81,-103 2701.81,-99.5 2701.81,-106.5"/>
</g>
<!-- 1990980111536 -->
<g id="node15" class="node">
<title>1990980111536</title>
<polygon fill="white" stroke="black" points="2677,-193 2592,-193 2592,-157 2677,-157 2677,-193"/>
<text text-anchor="middle" x="2634.5" y="-169.97" font-family="Times New Roman,serif" font-size="12.00">Yield Forecast</text>
</g>
<!-- 1990980111824 -->
<g id="node36" class="node">
<title>1990980111824</title>
<ellipse fill="white" stroke="black" cx="2740.75" cy="-175" rx="27" ry="27"/>
</g>
<!-- 1990980111536&#45;&gt;1990980111824 -->
<g id="edge31" class="edge">
<title>1990980111536&#45;&gt;1990980111824</title>
<path fill="none" stroke="black" d="M2677.3,-175C2685.52,-175 2694.1,-175 2702.17,-175"/>
<polygon fill="black" stroke="black" points="2702.02,-178.5 2712.02,-175 2702.02,-171.5 2702.02,-178.5"/>
</g>
<!-- 1990981475920 -->
<g id="node16" class="node">
<title>1990981475920</title>
<polygon fill="white" stroke="black" points="2677.75,-49 2591.25,-49 2591.25,-13 2677.75,-13 2677.75,-49"/>
<text text-anchor="middle" x="2634.5" y="-25.98" font-family="Times New Roman,serif" font-size="12.00">Waste Recycle</text>
</g>
<!-- 1990981476640 -->
<g id="node34" class="node">
<title>1990981476640</title>
<ellipse fill="white" stroke="black" cx="2740.75" cy="-31" rx="27" ry="27"/>
</g>
<!-- 1990981475920&#45;&gt;1990981476640 -->
<g id="edge33" class="edge">
<title>1990981475920&#45;&gt;1990981476640</title>
<path fill="none" stroke="black" d="M2678.2,-31C2686.12,-31 2694.34,-31 2702.09,-31"/>
<polygon fill="black" stroke="black" points="2701.89,-34.5 2711.89,-31 2701.89,-27.5 2701.89,-34.5"/>
</g>
<!-- 1990980112448 -->
<g id="node17" class="node">
<title>1990980112448</title>
<polygon fill="black" stroke="black" points="2875.12,-193 2821.12,-193 2821.12,-157 2875.12,-157 2875.12,-193"/>
</g>
<!-- 1990980112448&#45;&gt;1990976839344 -->
<g id="edge37" class="edge">
<title>1990980112448&#45;&gt;1990976839344</title>
<path fill="none" stroke="black" d="M2820.67,-189.29C2805.57,-196.85 2786.05,-205.65 2767.75,-211 2710.75,-227.65 2694.88,-230 2635.5,-230 2299,-230 2299,-230 2299,-230 2234.25,-230 2160.26,-213.53 2117.27,-202.27"/>
<polygon fill="black" stroke="black" points="2118.28,-198.92 2107.72,-199.72 2116.48,-205.68 2118.28,-198.92"/>
</g>
<!-- 1990981477216 -->
<g id="node18" class="node">
<title>1990981477216</title>
<polygon fill="white" stroke="black" points="2892.5,-49 2803.75,-49 2803.75,-13 2892.5,-13 2892.5,-49"/>
<text text-anchor="middle" x="2848.12" y="-25.98" font-family="Times New Roman,serif" font-size="12.00">Market Engage</text>
</g>
<!-- 1990976604112 -->
<g id="node37" class="node">
<title>1990976604112</title>
<ellipse fill="white" stroke="black" cx="2959.5" cy="-31" rx="27" ry="27"/>
<ellipse fill="none" stroke="black" cx="2959.5" cy="-31" rx="31" ry="31"/>
<text text-anchor="start" x="2943" y="-15.6" font-family="Times New Roman,serif" font-size="32.00">■</text>
</g>
<!-- 1990981477216&#45;&gt;1990976604112 -->
<g id="edge38" class="edge">
<title>1990981477216&#45;&gt;1990976604112</title>
<path fill="none" stroke="black" d="M2892.98,-31C2900.8,-31 2908.92,-31 2916.67,-31"/>
<polygon fill="black" stroke="black" points="2916.56,-34.5 2926.56,-31 2916.56,-27.5 2916.56,-34.5"/>
</g>
<!-- 1990976603968 -->
<g id="node19" class="node">
<title>1990976603968</title>
<ellipse fill="white" stroke="black" cx="27" cy="-192" rx="27" ry="27"/>
<text text-anchor="start" x="9.75" y="-174.7" font-family="Times New Roman,serif" font-size="34.00">●</text>
</g>
<!-- 1990976603968&#45;&gt;1990980644608 -->
<g id="edge1" class="edge">
<title>1990976603968&#45;&gt;1990980644608</title>
<path fill="none" stroke="black" d="M54.33,-192C61.76,-192 70.06,-192 78.28,-192"/>
<polygon fill="black" stroke="black" points="78.24,-195.5 88.24,-192 78.24,-188.5 78.24,-195.5"/>
</g>
<!-- 1990978474144&#45;&gt;1990978979696 -->
<g id="edge3" class="edge">
<title>1990978474144&#45;&gt;1990978979696</title>
<path fill="none" stroke="black" d="M251.06,-192C258.44,-192 266.74,-192 275.11,-192"/>
<polygon fill="black" stroke="black" points="274.96,-195.5 284.96,-192 274.96,-188.5 274.96,-195.5"/>
</g>
<!-- 1990977509408&#45;&gt;1990977510992 -->
<g id="edge5" class="edge">
<title>1990977509408&#45;&gt;1990977510992</title>
<path fill="none" stroke="black" d="M463.56,-192C470.94,-192 479.24,-192 487.61,-192"/>
<polygon fill="black" stroke="black" points="487.46,-195.5 497.46,-192 487.46,-188.5 487.46,-195.5"/>
</g>
<!-- 1990977514736&#45;&gt;1990978835168 -->
<g id="edge7" class="edge">
<title>1990977514736&#45;&gt;1990978835168</title>
<path fill="none" stroke="black" d="M676.25,-192C683.6,-192 691.86,-192 700.19,-192"/>
<polygon fill="black" stroke="black" points="700,-195.5 710,-192 700,-188.5 700,-195.5"/>
</g>
<!-- 1990977251200&#45;&gt;1990976046528 -->
<g id="edge9" class="edge">
<title>1990977251200&#45;&gt;1990976046528</title>
<path fill="none" stroke="black" d="M890.12,-192C897.47,-192 905.69,-192 913.9,-192"/>
<polygon fill="black" stroke="black" points="913.89,-195.5 923.89,-192 913.89,-188.5 913.89,-195.5"/>
</g>
<!-- 1990976046240&#45;&gt;1990978549232 -->
<g id="edge11" class="edge">
<title>1990976046240&#45;&gt;1990978549232</title>
<path fill="none" stroke="black" d="M1092.74,-192C1100.21,-192 1108.6,-192 1116.99,-192"/>
<polygon fill="black" stroke="black" points="1116.83,-195.5 1126.83,-192 1116.83,-188.5 1116.83,-195.5"/>
</g>
<!-- 1990978539680&#45;&gt;1990979329904 -->
<g id="edge13" class="edge">
<title>1990978539680&#45;&gt;1990979329904</title>
<path fill="none" stroke="black" d="M1298.72,-192C1306.02,-192 1314.18,-192 1322.33,-192"/>
<polygon fill="black" stroke="black" points="1322.25,-195.5 1332.25,-192 1322.25,-188.5 1322.25,-195.5"/>
</g>
<!-- 1990979331824&#45;&gt;1990979325824 -->
<g id="edge15" class="edge">
<title>1990979331824&#45;&gt;1990979325824</title>
<path fill="none" stroke="black" d="M1501.76,-192C1509.24,-192 1517.61,-192 1525.84,-192"/>
<polygon fill="black" stroke="black" points="1525.76,-195.5 1535.76,-192 1525.76,-188.5 1525.76,-195.5"/>
</g>
<!-- 1990979322656&#45;&gt;1990978707120 -->
<g id="edge17" class="edge">
<title>1990979322656&#45;&gt;1990978707120</title>
<path fill="none" stroke="black" d="M1692.77,-192C1700.15,-192 1708.45,-192 1716.78,-192"/>
<polygon fill="black" stroke="black" points="1716.55,-195.5 1726.55,-192 1716.55,-188.5 1716.55,-195.5"/>
</g>
<!-- 1990971042624&#45;&gt;1990980878896 -->
<g id="edge19" class="edge">
<title>1990971042624&#45;&gt;1990980878896</title>
<path fill="none" stroke="black" d="M1900.84,-192C1908.25,-192 1916.57,-192 1924.9,-192"/>
<polygon fill="black" stroke="black" points="1924.67,-195.5 1934.67,-192 1924.67,-188.5 1924.67,-195.5"/>
</g>
<!-- 1990976839344&#45;&gt;1990980111872 -->
<g id="edge21" class="edge">
<title>1990976839344&#45;&gt;1990980111872</title>
<path fill="none" stroke="black" d="M2106.87,-186.49C2114.42,-184.88 2122.98,-183.06 2131.66,-181.21"/>
<polygon fill="black" stroke="black" points="2132.12,-184.69 2141.17,-179.19 2130.66,-177.85 2132.12,-184.69"/>
</g>
<!-- 1990980109808&#45;&gt;1990981475248 -->
<g id="edge24" class="edge">
<title>1990980109808&#45;&gt;1990981475248</title>
<path fill="none" stroke="black" d="M2321.05,-135.3C2338.53,-119.87 2364.11,-97.28 2383.87,-79.83"/>
<polygon fill="black" stroke="black" points="2386.18,-82.46 2391.36,-73.22 2381.55,-77.21 2386.18,-82.46"/>
</g>
<!-- 1990980109808&#45;&gt;1990980111968 -->
<g id="edge23" class="edge">
<title>1990980109808&#45;&gt;1990980111968</title>
<path fill="none" stroke="black" d="M2327.29,-153C2341.77,-153 2359.98,-153 2375.9,-153"/>
<polygon fill="black" stroke="black" points="2375.49,-156.5 2385.49,-153 2375.49,-149.5 2375.49,-156.5"/>
</g>
<!-- 1990980112016&#45;&gt;1990980111536 -->
<g id="edge30" class="edge">
<title>1990980112016&#45;&gt;1990980111536</title>
<path fill="none" stroke="black" d="M2555.56,-175C2563.19,-175 2571.81,-175 2580.47,-175"/>
<polygon fill="black" stroke="black" points="2580.27,-178.5 2590.27,-175 2580.27,-171.5 2580.27,-178.5"/>
</g>
<!-- 1990981468720&#45;&gt;1990981475920 -->
<g id="edge29" class="edge">
<title>1990981468720&#45;&gt;1990981475920</title>
<path fill="none" stroke="black" d="M2555.56,-31C2562.94,-31 2571.24,-31 2579.61,-31"/>
<polygon fill="black" stroke="black" points="2579.46,-34.5 2589.46,-31 2579.46,-27.5 2579.46,-34.5"/>
</g>
<!-- 1990980115520&#45;&gt;1990980115184 -->
<g id="edge28" class="edge">
<title>1990980115520&#45;&gt;1990980115184</title>
<path fill="none" stroke="black" d="M2555.56,-103C2564.67,-103 2575.2,-103 2585.51,-103"/>
<polygon fill="black" stroke="black" points="2585.45,-106.5 2595.45,-103 2585.45,-99.5 2585.45,-106.5"/>
</g>
<!-- 1990981476640&#45;&gt;1990981477216 -->
<g id="edge34" class="edge">
<title>1990981476640&#45;&gt;1990981477216</title>
<path fill="none" stroke="black" d="M2768.07,-31C2775.44,-31 2783.75,-31 2792.13,-31"/>
<polygon fill="black" stroke="black" points="2792.02,-34.5 2802.02,-31 2792.02,-27.5 2792.02,-34.5"/>
</g>
<!-- 1990980121808&#45;&gt;1990980112448 -->
<g id="edge35" class="edge">
<title>1990980121808&#45;&gt;1990980112448</title>
<path fill="none" stroke="black" d="M2763.58,-117.92C2777.49,-127.42 2795.83,-139.95 2811.78,-150.85"/>
<polygon fill="black" stroke="black" points="2809.36,-153.44 2819.59,-156.19 2813.31,-147.66 2809.36,-153.44"/>
</g>
<!-- 1990980111824&#45;&gt;1990980112448 -->
<g id="edge36" class="edge">
<title>1990980111824&#45;&gt;1990980112448</title>
<path fill="none" stroke="black" d="M2768.07,-175C2780.64,-175 2795.91,-175 2809.67,-175"/>
<polygon fill="black" stroke="black" points="2809.26,-178.5 2819.26,-175 2809.26,-171.5 2809.26,-178.5"/>
</g>
</g>
</svg>
