<?xml version="1.0" encoding="UTF-8" standalone="no"?>
<!DOCTYPE svg PUBLIC "-//W3C//DTD SVG 1.1//EN"
 "http://www.w3.org/Graphics/SVG/1.1/DTD/svg11.dtd">
<!-- Generated by graphviz version 11.0.0 (20240428.1522)
 -->
<!-- Title: imdf_net_1754051481.1084063 Pages: 1 -->
<svg width="3124pt" height="134pt"
 viewBox="0.00 0.00 3123.75 134.00" xmlns="http://www.w3.org/2000/svg" xmlns:xlink="http://www.w3.org/1999/xlink">
<g id="graph0" class="graph" transform="scale(1 1) rotate(0) translate(4 130)">
<title>imdf_net_1754051481.1084063</title>
<polygon fill="white" stroke="none" points="-4,4 -4,-130 3119.75,-130 3119.75,4 -4,4"/>
<!-- 1990981404816 -->
<g id="node1" class="node">
<title>1990981404816</title>
<polygon fill="white" stroke="black" points="168.25,-81 90,-81 90,-45 168.25,-45 168.25,-81"/>
<text text-anchor="middle" x="129.12" y="-57.98" font-family="Times New Roman,serif" font-size="12.00">Site Analysis</text>
</g>
<!-- 1990979548080 -->
<g id="node17" class="node">
<title>1990979548080</title>
<ellipse fill="white" stroke="black" cx="231.25" cy="-63" rx="27" ry="27"/>
</g>
<!-- 1990981404816&#45;&gt;1990979548080 -->
<g id="edge2" class="edge">
<title>1990981404816&#45;&gt;1990979548080</title>
<path fill="none" stroke="black" d="M168.55,-63C176.39,-63 184.63,-63 192.44,-63"/>
<polygon fill="black" stroke="black" points="192.36,-66.5 202.36,-63 192.36,-59.5 192.36,-66.5"/>
</g>
<!-- 1990979796624 -->
<g id="node2" class="node">
<title>1990979796624</title>
<polygon fill="white" stroke="black" points="384.5,-81 294.25,-81 294.25,-45 384.5,-45 384.5,-81"/>
<text text-anchor="middle" x="339.38" y="-57.98" font-family="Times New Roman,serif" font-size="12.00">Zoning Review</text>
</g>
<!-- 1990979860336 -->
<g id="node18" class="node">
<title>1990979860336</title>
<ellipse fill="white" stroke="black" cx="447.5" cy="-63" rx="27" ry="27"/>
</g>
<!-- 1990979796624&#45;&gt;1990979860336 -->
<g id="edge4" class="edge">
<title>1990979796624&#45;&gt;1990979860336</title>
<path fill="none" stroke="black" d="M384.77,-63C392.76,-63 401.03,-63 408.81,-63"/>
<polygon fill="black" stroke="black" points="408.64,-66.5 418.64,-63 408.64,-59.5 408.64,-66.5"/>
</g>
<!-- 1990977361952 -->
<g id="node3" class="node">
<title>1990977361952</title>
<polygon fill="white" stroke="black" points="603.75,-81 510.5,-81 510.5,-45 603.75,-45 603.75,-81"/>
<text text-anchor="middle" x="557.12" y="-57.98" font-family="Times New Roman,serif" font-size="12.00">Modular Design</text>
</g>
<!-- 1990977364976 -->
<g id="node19" class="node">
<title>1990977364976</title>
<ellipse fill="white" stroke="black" cx="666.75" cy="-63" rx="27" ry="27"/>
</g>
<!-- 1990977361952&#45;&gt;1990977364976 -->
<g id="edge6" class="edge">
<title>1990977361952&#45;&gt;1990977364976</title>
<path fill="none" stroke="black" d="M604.08,-63C612.12,-63 620.41,-63 628.19,-63"/>
<polygon fill="black" stroke="black" points="628.01,-66.5 638.01,-63 628.01,-59.5 628.01,-66.5"/>
</g>
<!-- 1990977358640 -->
<g id="node4" class="node">
<title>1990977358640</title>
<polygon fill="white" stroke="black" points="812.5,-81 729.75,-81 729.75,-45 812.5,-45 812.5,-81"/>
<text text-anchor="middle" x="771.12" y="-57.98" font-family="Times New Roman,serif" font-size="12.00">Climate Setup</text>
</g>
<!-- 1990980515264 -->
<g id="node20" class="node">
<title>1990980515264</title>
<ellipse fill="white" stroke="black" cx="875.5" cy="-63" rx="27" ry="27"/>
</g>
<!-- 1990977358640&#45;&gt;1990980515264 -->
<g id="edge8" class="edge">
<title>1990977358640&#45;&gt;1990980515264</title>
<path fill="none" stroke="black" d="M812.88,-63C820.73,-63 828.92,-63 836.67,-63"/>
<polygon fill="black" stroke="black" points="836.49,-66.5 846.49,-63 836.49,-59.5 836.49,-66.5"/>
</g>
<!-- 1990979276624 -->
<g id="node5" class="node">
<title>1990979276624</title>
<polygon fill="white" stroke="black" points="1016,-81 938.5,-81 938.5,-45 1016,-45 1016,-81"/>
<text text-anchor="middle" x="977.25" y="-57.98" font-family="Times New Roman,serif" font-size="12.00">Nutrient Mix</text>
</g>
<!-- 1990979279648 -->
<g id="node21" class="node">
<title>1990979279648</title>
<ellipse fill="white" stroke="black" cx="1079" cy="-63" rx="27" ry="27"/>
</g>
<!-- 1990979276624&#45;&gt;1990979279648 -->
<g id="edge10" class="edge">
<title>1990979276624&#45;&gt;1990979279648</title>
<path fill="none" stroke="black" d="M1016.25,-63C1024.07,-63 1032.31,-63 1040.13,-63"/>
<polygon fill="black" stroke="black" points="1040.05,-66.5 1050.05,-63 1040.05,-59.5 1040.05,-66.5"/>
</g>
<!-- 1990979287760 -->
<g id="node6" class="node">
<title>1990979287760</title>
<polygon fill="white" stroke="black" points="1240.5,-81 1142,-81 1142,-45 1240.5,-45 1240.5,-81"/>
<text text-anchor="middle" x="1191.25" y="-57.98" font-family="Times New Roman,serif" font-size="12.00">Seed Automation</text>
</g>
<!-- 1990977587824 -->
<g id="node22" class="node">
<title>1990977587824</title>
<ellipse fill="white" stroke="black" cx="1303.5" cy="-63" rx="27" ry="27"/>
</g>
<!-- 1990979287760&#45;&gt;1990977587824 -->
<g id="edge12" class="edge">
<title>1990979287760&#45;&gt;1990977587824</title>
<path fill="none" stroke="black" d="M1240.93,-63C1248.88,-63 1257.01,-63 1264.65,-63"/>
<polygon fill="black" stroke="black" points="1264.64,-66.5 1274.64,-63 1264.64,-59.5 1264.64,-66.5"/>
</g>
<!-- 1990978983344 -->
<g id="node7" class="node">
<title>1990978983344</title>
<polygon fill="white" stroke="black" points="1468.75,-81 1366.5,-81 1366.5,-45 1468.75,-45 1468.75,-81"/>
<text text-anchor="middle" x="1417.62" y="-57.98" font-family="Times New Roman,serif" font-size="12.00">Lighting Calibrate</text>
</g>
<!-- 1990980186384 -->
<g id="node23" class="node">
<title>1990980186384</title>
<ellipse fill="white" stroke="black" cx="1531.75" cy="-63" rx="27" ry="27"/>
</g>
<!-- 1990978983344&#45;&gt;1990980186384 -->
<g id="edge14" class="edge">
<title>1990978983344&#45;&gt;1990980186384</title>
<path fill="none" stroke="black" d="M1469.11,-63C1477.22,-63 1485.48,-63 1493.21,-63"/>
<polygon fill="black" stroke="black" points="1492.94,-66.5 1502.94,-63 1492.94,-59.5 1492.94,-66.5"/>
</g>
<!-- 1990980185760 -->
<g id="node8" class="node">
<title>1990980185760</title>
<polygon fill="white" stroke="black" points="1671.5,-81 1594.75,-81 1594.75,-45 1671.5,-45 1671.5,-81"/>
<text text-anchor="middle" x="1633.12" y="-57.98" font-family="Times New Roman,serif" font-size="12.00">Pest Monitor</text>
</g>
<!-- 1990980190080 -->
<g id="node24" class="node">
<title>1990980190080</title>
<ellipse fill="white" stroke="black" cx="1734.5" cy="-63" rx="27" ry="27"/>
</g>
<!-- 1990980185760&#45;&gt;1990980190080 -->
<g id="edge16" class="edge">
<title>1990980185760&#45;&gt;1990980190080</title>
<path fill="none" stroke="black" d="M1671.98,-63C1679.77,-63 1687.98,-63 1695.77,-63"/>
<polygon fill="black" stroke="black" points="1695.65,-66.5 1705.65,-63 1695.65,-59.5 1695.65,-66.5"/>
</g>
<!-- 1990980187728 -->
<g id="node9" class="node">
<title>1990980187728</title>
<polygon fill="white" stroke="black" points="1906.5,-81 1797.5,-81 1797.5,-45 1906.5,-45 1906.5,-81"/>
<text text-anchor="middle" x="1852" y="-57.98" font-family="Times New Roman,serif" font-size="12.00">System Diagnostics</text>
</g>
<!-- 1990980177216 -->
<g id="node25" class="node">
<title>1990980177216</title>
<ellipse fill="white" stroke="black" cx="1969.5" cy="-63" rx="27" ry="27"/>
</g>
<!-- 1990980187728&#45;&gt;1990980177216 -->
<g id="edge18" class="edge">
<title>1990980187728&#45;&gt;1990980177216</title>
<path fill="none" stroke="black" d="M1906.69,-63C1914.91,-63 1923.23,-63 1931,-63"/>
<polygon fill="black" stroke="black" points="1930.76,-66.5 1940.76,-63 1930.76,-59.5 1930.76,-66.5"/>
</g>
<!-- 1990978626928 -->
<g id="node10" class="node">
<title>1990978626928</title>
<polygon fill="white" stroke="black" points="2133.25,-81 2032.5,-81 2032.5,-45 2133.25,-45 2133.25,-81"/>
<text text-anchor="middle" x="2082.88" y="-57.98" font-family="Times New Roman,serif" font-size="12.00">Growth Analytics</text>
</g>
<!-- 1990978621648 -->
<g id="node26" class="node">
<title>1990978621648</title>
<ellipse fill="white" stroke="black" cx="2196.25" cy="-63" rx="27" ry="27"/>
</g>
<!-- 1990978626928&#45;&gt;1990978621648 -->
<g id="edge20" class="edge">
<title>1990978626928&#45;&gt;1990978621648</title>
<path fill="none" stroke="black" d="M2133.7,-63C2141.68,-63 2149.83,-63 2157.47,-63"/>
<polygon fill="black" stroke="black" points="2157.45,-66.5 2167.45,-63 2157.45,-59.5 2157.45,-66.5"/>
</g>
<!-- 1990978621168 -->
<g id="node11" class="node">
<title>1990978621168</title>
<polygon fill="white" stroke="black" points="2358.5,-81 2259.25,-81 2259.25,-45 2358.5,-45 2358.5,-81"/>
<text text-anchor="middle" x="2308.88" y="-57.98" font-family="Times New Roman,serif" font-size="12.00">Harvest Schedule</text>
</g>
<!-- 1990977504752 -->
<g id="node27" class="node">
<title>1990977504752</title>
<ellipse fill="white" stroke="black" cx="2421.5" cy="-63" rx="27" ry="27"/>
</g>
<!-- 1990978621168&#45;&gt;1990977504752 -->
<g id="edge22" class="edge">
<title>1990978621168&#45;&gt;1990977504752</title>
<path fill="none" stroke="black" d="M2358.72,-63C2366.79,-63 2375.05,-63 2382.79,-63"/>
<polygon fill="black" stroke="black" points="2382.55,-66.5 2392.55,-63 2382.55,-59.5 2382.55,-66.5"/>
</g>
<!-- 1990977516320 -->
<g id="node12" class="node">
<title>1990977516320</title>
<polygon fill="white" stroke="black" points="2580,-81 2484.5,-81 2484.5,-45 2580,-45 2580,-81"/>
<text text-anchor="middle" x="2532.25" y="-57.98" font-family="Times New Roman,serif" font-size="12.00">Supply Logistics</text>
</g>
<!-- 1990977506480 -->
<g id="node28" class="node">
<title>1990977506480</title>
<ellipse fill="white" stroke="black" cx="2643" cy="-99" rx="27" ry="27"/>
</g>
<!-- 1990977516320&#45;&gt;1990977506480 -->
<g id="edge25" class="edge">
<title>1990977516320&#45;&gt;1990977506480</title>
<path fill="none" stroke="black" d="M2580.32,-78.58C2589,-81.45 2597.93,-84.41 2606.22,-87.15"/>
<polygon fill="black" stroke="black" points="2604.99,-90.43 2615.58,-90.25 2607.19,-83.79 2604.99,-90.43"/>
</g>
<!-- 1990977506384 -->
<g id="node29" class="node">
<title>1990977506384</title>
<ellipse fill="white" stroke="black" cx="2643" cy="-27" rx="27" ry="27"/>
</g>
<!-- 1990977516320&#45;&gt;1990977506384 -->
<g id="edge24" class="edge">
<title>1990977516320&#45;&gt;1990977506384</title>
<path fill="none" stroke="black" d="M2580.32,-47.42C2589,-44.55 2597.93,-41.59 2606.22,-38.85"/>
<polygon fill="black" stroke="black" points="2607.19,-42.21 2615.58,-35.75 2604.99,-35.57 2607.19,-42.21"/>
</g>
<!-- 1990977512384 -->
<g id="node13" class="node">
<title>1990977512384</title>
<polygon fill="white" stroke="black" points="2802.25,-117 2706,-117 2706,-81 2802.25,-81 2802.25,-117"/>
<text text-anchor="middle" x="2754.12" y="-93.97" font-family="Times New Roman,serif" font-size="12.00">Waste Recycling</text>
</g>
<!-- 1990979473184 -->
<g id="node30" class="node">
<title>1990979473184</title>
<ellipse fill="white" stroke="black" cx="2865.25" cy="-99" rx="27" ry="27"/>
</g>
<!-- 1990977512384&#45;&gt;1990979473184 -->
<g id="edge29" class="edge">
<title>1990977512384&#45;&gt;1990979473184</title>
<path fill="none" stroke="black" d="M2802.67,-99C2810.59,-99 2818.7,-99 2826.34,-99"/>
<polygon fill="black" stroke="black" points="2826.33,-102.5 2836.33,-99 2826.33,-95.5 2826.33,-102.5"/>
</g>
<!-- 1990977509312 -->
<g id="node14" class="node">
<title>1990977509312</title>
<polygon fill="white" stroke="black" points="2794.38,-45 2713.88,-45 2713.88,-9 2794.38,-9 2794.38,-45"/>
<text text-anchor="middle" x="2754.12" y="-21.98" font-family="Times New Roman,serif" font-size="12.00">Energy Audit</text>
</g>
<!-- 1990980358304 -->
<g id="node31" class="node">
<title>1990980358304</title>
<ellipse fill="white" stroke="black" cx="2865.25" cy="-27" rx="27" ry="27"/>
</g>
<!-- 1990977509312&#45;&gt;1990980358304 -->
<g id="edge28" class="edge">
<title>1990977509312&#45;&gt;1990980358304</title>
<path fill="none" stroke="black" d="M2794.83,-27C2805.17,-27 2816.27,-27 2826.51,-27"/>
<polygon fill="black" stroke="black" points="2826.51,-30.5 2836.51,-27 2826.5,-23.5 2826.51,-30.5"/>
</g>
<!-- 1990977211520 -->
<g id="node15" class="node">
<title>1990977211520</title>
<polygon fill="white" stroke="black" points="3017.75,-81 2928.25,-81 2928.25,-45 3017.75,-45 3017.75,-81"/>
<text text-anchor="middle" x="2973" y="-57.98" font-family="Times New Roman,serif" font-size="12.00">Quality Testing</text>
</g>
<!-- 1990978542320 -->
<g id="node32" class="node">
<title>1990978542320</title>
<ellipse fill="white" stroke="black" cx="3084.75" cy="-63" rx="27" ry="27"/>
<ellipse fill="none" stroke="black" cx="3084.75" cy="-63" rx="31" ry="31"/>
<text text-anchor="start" x="3068.25" y="-47.6" font-family="Times New Roman,serif" font-size="32.00">■</text>
</g>
<!-- 1990977211520&#45;&gt;1990978542320 -->
<g id="edge32" class="edge">
<title>1990977211520&#45;&gt;1990978542320</title>
<path fill="none" stroke="black" d="M3018.01,-63C3026.02,-63 3034.36,-63 3042.29,-63"/>
<polygon fill="black" stroke="black" points="3042.04,-66.5 3052.04,-63 3042.04,-59.5 3042.04,-66.5"/>
</g>
<!-- 1990978541840 -->
<g id="node16" class="node">
<title>1990978541840</title>
<ellipse fill="white" stroke="black" cx="27" cy="-63" rx="27" ry="27"/>
<text text-anchor="start" x="9.75" y="-45.7" font-family="Times New Roman,serif" font-size="34.00">●</text>
</g>
<!-- 1990978541840&#45;&gt;1990981404816 -->
<g id="edge1" class="edge">
<title>1990978541840&#45;&gt;1990981404816</title>
<path fill="none" stroke="black" d="M54.31,-63C61.63,-63 69.84,-63 78.05,-63"/>
<polygon fill="black" stroke="black" points="78.05,-66.5 88.05,-63 78.05,-59.5 78.05,-66.5"/>
</g>
<!-- 1990979548080&#45;&gt;1990979796624 -->
<g id="edge3" class="edge">
<title>1990979548080&#45;&gt;1990979796624</title>
<path fill="none" stroke="black" d="M258.48,-63C265.83,-63 274.1,-63 282.47,-63"/>
<polygon fill="black" stroke="black" points="282.34,-66.5 292.34,-63 282.34,-59.5 282.34,-66.5"/>
</g>
<!-- 1990979860336&#45;&gt;1990977361952 -->
<g id="edge5" class="edge">
<title>1990979860336&#45;&gt;1990977361952</title>
<path fill="none" stroke="black" d="M474.83,-63C482.19,-63 490.48,-63 498.89,-63"/>
<polygon fill="black" stroke="black" points="498.83,-66.5 508.83,-63 498.83,-59.5 498.83,-66.5"/>
</g>
<!-- 1990977364976&#45;&gt;1990977358640 -->
<g id="edge7" class="edge">
<title>1990977364976&#45;&gt;1990977358640</title>
<path fill="none" stroke="black" d="M694.11,-63C701.53,-63 709.86,-63 718.21,-63"/>
<polygon fill="black" stroke="black" points="718.02,-66.5 728.02,-63 718.02,-59.5 718.02,-66.5"/>
</g>
<!-- 1990980515264&#45;&gt;1990979276624 -->
<g id="edge9" class="edge">
<title>1990980515264&#45;&gt;1990979276624</title>
<path fill="none" stroke="black" d="M902.97,-63C910.27,-63 918.43,-63 926.58,-63"/>
<polygon fill="black" stroke="black" points="926.5,-66.5 936.5,-63 926.5,-59.5 926.5,-66.5"/>
</g>
<!-- 1990979279648&#45;&gt;1990979287760 -->
<g id="edge11" class="edge">
<title>1990979279648&#45;&gt;1990979287760</title>
<path fill="none" stroke="black" d="M1106.41,-63C1113.68,-63 1121.87,-63 1130.22,-63"/>
<polygon fill="black" stroke="black" points="1130.11,-66.5 1140.11,-63 1130.11,-59.5 1130.11,-66.5"/>
</g>
<!-- 1990977587824&#45;&gt;1990978983344 -->
<g id="edge13" class="edge">
<title>1990977587824&#45;&gt;1990978983344</title>
<path fill="none" stroke="black" d="M1330.79,-63C1338.17,-63 1346.52,-63 1355.04,-63"/>
<polygon fill="black" stroke="black" points="1354.77,-66.5 1364.77,-63 1354.77,-59.5 1354.77,-66.5"/>
</g>
<!-- 1990980186384&#45;&gt;1990980185760 -->
<g id="edge15" class="edge">
<title>1990980186384&#45;&gt;1990980185760</title>
<path fill="none" stroke="black" d="M1559.12,-63C1566.47,-63 1574.69,-63 1582.9,-63"/>
<polygon fill="black" stroke="black" points="1582.89,-66.5 1592.89,-63 1582.89,-59.5 1582.89,-66.5"/>
</g>
<!-- 1990980190080&#45;&gt;1990980187728 -->
<g id="edge17" class="edge">
<title>1990980190080&#45;&gt;1990980187728</title>
<path fill="none" stroke="black" d="M1762,-63C1769.23,-63 1777.4,-63 1785.79,-63"/>
<polygon fill="black" stroke="black" points="1785.77,-66.5 1795.77,-63 1785.77,-59.5 1785.77,-66.5"/>
</g>
<!-- 1990980177216&#45;&gt;1990978626928 -->
<g id="edge19" class="edge">
<title>1990980177216&#45;&gt;1990978626928</title>
<path fill="none" stroke="black" d="M1996.89,-63C2004.15,-63 2012.33,-63 2020.67,-63"/>
<polygon fill="black" stroke="black" points="2020.57,-66.5 2030.57,-63 2020.57,-59.5 2020.57,-66.5"/>
</g>
<!-- 1990978621648&#45;&gt;1990978621168 -->
<g id="edge21" class="edge">
<title>1990978621648&#45;&gt;1990978621168</title>
<path fill="none" stroke="black" d="M2223.75,-63C2231.04,-63 2239.27,-63 2247.64,-63"/>
<polygon fill="black" stroke="black" points="2247.57,-66.5 2257.57,-63 2247.57,-59.5 2247.57,-66.5"/>
</g>
<!-- 1990977504752&#45;&gt;1990977516320 -->
<g id="edge23" class="edge">
<title>1990977504752&#45;&gt;1990977516320</title>
<path fill="none" stroke="black" d="M2448.83,-63C2456.17,-63 2464.46,-63 2472.88,-63"/>
<polygon fill="black" stroke="black" points="2472.84,-66.5 2482.84,-63 2472.84,-59.5 2472.84,-66.5"/>
</g>
<!-- 1990977506480&#45;&gt;1990977512384 -->
<g id="edge26" class="edge">
<title>1990977506480&#45;&gt;1990977512384</title>
<path fill="none" stroke="black" d="M2670.42,-99C2677.7,-99 2685.91,-99 2694.25,-99"/>
<polygon fill="black" stroke="black" points="2694.12,-102.5 2704.12,-99 2694.12,-95.5 2694.12,-102.5"/>
</g>
<!-- 1990977506384&#45;&gt;1990977509312 -->
<g id="edge27" class="edge">
<title>1990977506384&#45;&gt;1990977509312</title>
<path fill="none" stroke="black" d="M2670.42,-27C2680.06,-27 2691.32,-27 2702.37,-27"/>
<polygon fill="black" stroke="black" points="2702.22,-30.5 2712.22,-27 2702.22,-23.5 2702.22,-30.5"/>
</g>
<!-- 1990979473184&#45;&gt;1990977211520 -->
<g id="edge31" class="edge">
<title>1990979473184&#45;&gt;1990977211520</title>
<path fill="none" stroke="black" d="M2891.31,-90.47C2899.21,-87.78 2908.27,-84.69 2917.4,-81.59"/>
<polygon fill="black" stroke="black" points="2918.31,-84.97 2926.65,-78.44 2916.06,-78.35 2918.31,-84.97"/>
</g>
<!-- 1990980358304&#45;&gt;1990977211520 -->
<g id="edge30" class="edge">
<title>1990980358304&#45;&gt;1990977211520</title>
<path fill="none" stroke="black" d="M2891.31,-35.53C2899.21,-38.22 2908.27,-41.31 2917.4,-44.41"/>
<polygon fill="black" stroke="black" points="2916.06,-47.65 2926.65,-47.56 2918.31,-41.03 2916.06,-47.65"/>
</g>
</g>
</svg>
