<?xml version="1.0" encoding="UTF-8" standalone="no"?>
<!DOCTYPE svg PUBLIC "-//W3C//DTD SVG 1.1//EN"
 "http://www.w3.org/Graphics/SVG/1.1/DTD/svg11.dtd">
<!-- Generated by graphviz version 11.0.0 (20240428.1522)
 -->
<!-- Title: imdf_net_1754051496.1663222 Pages: 1 -->
<svg width="3183pt" height="169pt"
 viewBox="0.00 0.00 3183.00 169.00" xmlns="http://www.w3.org/2000/svg" xmlns:xlink="http://www.w3.org/1999/xlink">
<g id="graph0" class="graph" transform="scale(1 1) rotate(0) translate(4 165)">
<title>imdf_net_1754051496.1663222</title>
<polygon fill="white" stroke="none" points="-4,4 -4,-165 3179,-165 3179,4 -4,4"/>
<!-- 1990981834736 -->
<g id="node1" class="node">
<title>1990981834736</title>
<polygon fill="white" stroke="black" points="174.25,-135 90,-135 90,-99 174.25,-99 174.25,-135"/>
<text text-anchor="middle" x="132.12" y="-111.97" font-family="Times New Roman,serif" font-size="12.00">Client Consult</text>
</g>
<!-- 1990981834400 -->
<g id="node19" class="node">
<title>1990981834400</title>
<ellipse fill="white" stroke="black" cx="237.25" cy="-117" rx="27" ry="27"/>
</g>
<!-- 1990981834736&#45;&gt;1990981834400 -->
<g id="edge2" class="edge">
<title>1990981834736&#45;&gt;1990981834400</title>
<path fill="none" stroke="black" d="M174.48,-117C182.44,-117 190.74,-117 198.58,-117"/>
<polygon fill="black" stroke="black" points="198.5,-120.5 208.5,-117 198.5,-113.5 198.5,-120.5"/>
</g>
<!-- 1990981832192 -->
<g id="node2" class="node">
<title>1990981832192</title>
<polygon fill="white" stroke="black" points="412.25,-135 300.25,-135 300.25,-99 412.25,-99 412.25,-135"/>
<text text-anchor="middle" x="356.25" y="-111.97" font-family="Times New Roman,serif" font-size="12.00">Requirement Gather</text>
</g>
<!-- 1990981831904 -->
<g id="node20" class="node">
<title>1990981831904</title>
<ellipse fill="white" stroke="black" cx="475.25" cy="-117" rx="27" ry="27"/>
</g>
<!-- 1990981832192&#45;&gt;1990981831904 -->
<g id="edge4" class="edge">
<title>1990981832192&#45;&gt;1990981831904</title>
<path fill="none" stroke="black" d="M412.67,-117C420.73,-117 428.87,-117 436.47,-117"/>
<polygon fill="black" stroke="black" points="436.38,-120.5 446.38,-117 436.38,-113.5 436.38,-120.5"/>
</g>
<!-- 1990981830800 -->
<g id="node3" class="node">
<title>1990981830800</title>
<polygon fill="white" stroke="black" points="631.5,-135 538.25,-135 538.25,-99 631.5,-99 631.5,-135"/>
<text text-anchor="middle" x="584.88" y="-111.97" font-family="Times New Roman,serif" font-size="12.00">Modular Design</text>
</g>
<!-- 1990981889024 -->
<g id="node21" class="node">
<title>1990981889024</title>
<ellipse fill="white" stroke="black" cx="694.5" cy="-117" rx="27" ry="27"/>
</g>
<!-- 1990981830800&#45;&gt;1990981889024 -->
<g id="edge6" class="edge">
<title>1990981830800&#45;&gt;1990981889024</title>
<path fill="none" stroke="black" d="M631.83,-117C639.87,-117 648.16,-117 655.94,-117"/>
<polygon fill="black" stroke="black" points="655.76,-120.5 665.76,-117 655.76,-113.5 655.76,-120.5"/>
</g>
<!-- 1990981878752 -->
<g id="node4" class="node">
<title>1990981878752</title>
<polygon fill="white" stroke="black" points="848.5,-135 757.5,-135 757.5,-99 848.5,-99 848.5,-135"/>
<text text-anchor="middle" x="803" y="-111.97" font-family="Times New Roman,serif" font-size="12.00">Prototype Build</text>
</g>
<!-- 1990981879616 -->
<g id="node22" class="node">
<title>1990981879616</title>
<ellipse fill="white" stroke="black" cx="911.5" cy="-117" rx="27" ry="27"/>
</g>
<!-- 1990981878752&#45;&gt;1990981879616 -->
<g id="edge8" class="edge">
<title>1990981878752&#45;&gt;1990981879616</title>
<path fill="none" stroke="black" d="M848.86,-117C856.86,-117 865.12,-117 872.9,-117"/>
<polygon fill="black" stroke="black" points="872.71,-120.5 882.71,-117 872.71,-113.5 872.71,-120.5"/>
</g>
<!-- 1990981888784 -->
<g id="node5" class="node">
<title>1990981888784</title>
<polygon fill="white" stroke="black" points="1056.5,-112 974.5,-112 974.5,-76 1056.5,-76 1056.5,-112"/>
<text text-anchor="middle" x="1015.5" y="-88.97" font-family="Times New Roman,serif" font-size="12.00">Flight Testing</text>
</g>
<!-- 1990981890464 -->
<g id="node23" class="node">
<title>1990981890464</title>
<ellipse fill="white" stroke="black" cx="1119.5" cy="-89" rx="27" ry="27"/>
</g>
<!-- 1990981888784&#45;&gt;1990981890464 -->
<g id="edge10" class="edge">
<title>1990981888784&#45;&gt;1990981890464</title>
<path fill="none" stroke="black" d="M1056.81,-92.02C1064.73,-91.64 1073,-91.23 1080.82,-90.85"/>
<polygon fill="black" stroke="black" points="1080.92,-94.35 1090.73,-90.36 1080.57,-87.36 1080.92,-94.35"/>
</g>
<!-- 1990981890992 -->
<g id="node6" class="node">
<title>1990981890992</title>
<polygon fill="white" stroke="black" points="1251,-107 1182.5,-107 1182.5,-71 1251,-71 1251,-107"/>
<text text-anchor="middle" x="1216.75" y="-83.97" font-family="Times New Roman,serif" font-size="12.00">Data Setup</text>
</g>
<!-- 1990981893248 -->
<g id="node24" class="node">
<title>1990981893248</title>
<ellipse fill="white" stroke="black" cx="1314" cy="-89" rx="27" ry="27"/>
</g>
<!-- 1990981890992&#45;&gt;1990981893248 -->
<g id="edge12" class="edge">
<title>1990981890992&#45;&gt;1990981893248</title>
<path fill="none" stroke="black" d="M1251.33,-89C1259.1,-89 1267.43,-89 1275.36,-89"/>
<polygon fill="black" stroke="black" points="1275.08,-92.5 1285.08,-89 1275.08,-85.5 1275.08,-92.5"/>
</g>
<!-- 1990981886192 -->
<g id="node7" class="node">
<title>1990981886192</title>
<polygon fill="white" stroke="black" points="1483.75,-107 1377,-107 1377,-71 1483.75,-71 1483.75,-107"/>
<text text-anchor="middle" x="1430.38" y="-83.97" font-family="Times New Roman,serif" font-size="12.00">Compliance Check</text>
</g>
<!-- 1990981882784 -->
<g id="node25" class="node">
<title>1990981882784</title>
<ellipse fill="white" stroke="black" cx="1546.75" cy="-89" rx="27" ry="27"/>
</g>
<!-- 1990981886192&#45;&gt;1990981882784 -->
<g id="edge14" class="edge">
<title>1990981886192&#45;&gt;1990981882784</title>
<path fill="none" stroke="black" d="M1484.21,-89C1492.2,-89 1500.3,-89 1507.89,-89"/>
<polygon fill="black" stroke="black" points="1507.79,-92.5 1517.79,-89 1507.79,-85.5 1507.79,-92.5"/>
</g>
<!-- 1990981885856 -->
<g id="node8" class="node">
<title>1990981885856</title>
<polygon fill="black" stroke="black" points="1686,-161 1632,-161 1632,-125 1686,-125 1686,-161"/>
</g>
<!-- 1990981885856&#45;&gt;1990981879616 -->
<g id="edge17" class="edge">
<title>1990981885856&#45;&gt;1990981879616</title>
<path fill="none" stroke="black" d="M1631.83,-143.19C1589.64,-143.48 1503.97,-144 1431.38,-144 1118.5,-144 1118.5,-144 1118.5,-144 1058.95,-144 990.54,-132.77 949.45,-124.8"/>
<polygon fill="black" stroke="black" points="950.35,-121.41 939.86,-122.89 948.98,-128.27 950.35,-121.41"/>
</g>
<!-- 1990981969120 -->
<g id="node9" class="node">
<title>1990981969120</title>
<polygon fill="white" stroke="black" points="1708.25,-107 1609.75,-107 1609.75,-71 1708.25,-71 1708.25,-107"/>
<text text-anchor="middle" x="1659" y="-83.97" font-family="Times New Roman,serif" font-size="12.00">Deployment Plan</text>
</g>
<!-- 1990981969312 -->
<g id="node26" class="node">
<title>1990981969312</title>
<ellipse fill="white" stroke="black" cx="1771.25" cy="-89" rx="27" ry="27"/>
</g>
<!-- 1990981969120&#45;&gt;1990981969312 -->
<g id="edge18" class="edge">
<title>1990981969120&#45;&gt;1990981969312</title>
<path fill="none" stroke="black" d="M1708.68,-89C1716.63,-89 1724.76,-89 1732.4,-89"/>
<polygon fill="black" stroke="black" points="1732.39,-92.5 1742.39,-89 1732.39,-85.5 1732.39,-92.5"/>
</g>
<!-- 1990981969840 -->
<g id="node10" class="node">
<title>1990981969840</title>
<polygon fill="white" stroke="black" points="1920.75,-107 1834.25,-107 1834.25,-71 1920.75,-71 1920.75,-107"/>
<text text-anchor="middle" x="1877.5" y="-83.97" font-family="Times New Roman,serif" font-size="12.00">Operator Train</text>
</g>
<!-- 1990981975648 -->
<g id="node27" class="node">
<title>1990981975648</title>
<ellipse fill="white" stroke="black" cx="1983.75" cy="-89" rx="27" ry="27"/>
</g>
<!-- 1990981969840&#45;&gt;1990981975648 -->
<g id="edge20" class="edge">
<title>1990981969840&#45;&gt;1990981975648</title>
<path fill="none" stroke="black" d="M1921.2,-89C1929.12,-89 1937.34,-89 1945.09,-89"/>
<polygon fill="black" stroke="black" points="1944.89,-92.5 1954.89,-89 1944.89,-85.5 1944.89,-92.5"/>
</g>
<!-- 1990981973296 -->
<g id="node11" class="node">
<title>1990981973296</title>
<polygon fill="white" stroke="black" points="2164,-84 2046.75,-84 2046.75,-48 2164,-48 2164,-84"/>
<text text-anchor="middle" x="2105.38" y="-60.98" font-family="Times New Roman,serif" font-size="12.00">Performance Monitor</text>
</g>
<!-- 1990981968304 -->
<g id="node28" class="node">
<title>1990981968304</title>
<ellipse fill="white" stroke="black" cx="2227" cy="-57" rx="27" ry="27"/>
</g>
<!-- 1990981973296&#45;&gt;1990981968304 -->
<g id="edge22" class="edge">
<title>1990981973296&#45;&gt;1990981968304</title>
<path fill="none" stroke="black" d="M2164.44,-61.63C2172.56,-61.02 2180.73,-60.41 2188.34,-59.83"/>
<polygon fill="black" stroke="black" points="2188.54,-63.33 2198.25,-59.09 2188.01,-56.35 2188.54,-63.33"/>
</g>
<!-- 1990981971904 -->
<g id="node12" class="node">
<title>1990981971904</title>
<polygon fill="white" stroke="black" points="2413.25,-77 2290,-77 2290,-41 2413.25,-41 2413.25,-77"/>
<text text-anchor="middle" x="2351.62" y="-53.98" font-family="Times New Roman,serif" font-size="12.00">Maintenance Schedule</text>
</g>
<!-- 1990981972240 -->
<g id="node29" class="node">
<title>1990981972240</title>
<ellipse fill="white" stroke="black" cx="2476.25" cy="-63" rx="27" ry="27"/>
</g>
<!-- 1990981971904&#45;&gt;1990981972240 -->
<g id="edge24" class="edge">
<title>1990981971904&#45;&gt;1990981972240</title>
<path fill="none" stroke="black" d="M2413.58,-60.99C2421.7,-61.25 2429.84,-61.52 2437.41,-61.77"/>
<polygon fill="black" stroke="black" points="2437.14,-65.26 2447.25,-62.09 2437.37,-58.26 2437.14,-65.26"/>
</g>
<!-- 1990981966720 -->
<g id="node13" class="node">
<title>1990981966720</title>
<polygon fill="black" stroke="black" points="2607.62,-135 2553.62,-135 2553.62,-99 2607.62,-99 2607.62,-135"/>
</g>
<!-- 1990981966720&#45;&gt;1990981975648 -->
<g id="edge27" class="edge">
<title>1990981966720&#45;&gt;1990981975648</title>
<path fill="none" stroke="black" d="M2553.41,-117.57C2511.15,-118.44 2425.34,-120 2352.62,-120 2226,-120 2226,-120 2226,-120 2153.2,-120 2069.05,-105.94 2021.85,-96.76"/>
<polygon fill="black" stroke="black" points="2022.65,-93.35 2012.16,-94.84 2021.28,-100.22 2022.65,-93.35"/>
</g>
<!-- 1990981729600 -->
<g id="node14" class="node">
<title>1990981729600</title>
<polygon fill="white" stroke="black" points="2622,-81 2539.25,-81 2539.25,-45 2622,-45 2622,-81"/>
<text text-anchor="middle" x="2580.62" y="-57.98" font-family="Times New Roman,serif" font-size="12.00">Data Analysis</text>
</g>
<!-- 1990981729552 -->
<g id="node30" class="node">
<title>1990981729552</title>
<ellipse fill="white" stroke="black" cx="2685" cy="-99" rx="27" ry="27"/>
</g>
<!-- 1990981729600&#45;&gt;1990981729552 -->
<g id="edge28" class="edge">
<title>1990981729600&#45;&gt;1990981729552</title>
<path fill="none" stroke="black" d="M2622.38,-77.33C2630.99,-80.36 2640.01,-83.53 2648.4,-86.48"/>
<polygon fill="black" stroke="black" points="2646.98,-89.69 2657.57,-89.71 2649.3,-83.09 2646.98,-89.69"/>
</g>
<!-- 1990968835056 -->
<g id="node31" class="node">
<title>1990968835056</title>
<ellipse fill="white" stroke="black" cx="2685" cy="-27" rx="27" ry="27"/>
</g>
<!-- 1990981729600&#45;&gt;1990968835056 -->
<g id="edge29" class="edge">
<title>1990981729600&#45;&gt;1990968835056</title>
<path fill="none" stroke="black" d="M2622.38,-48.67C2630.99,-45.64 2640.01,-42.47 2648.4,-39.52"/>
<polygon fill="black" stroke="black" points="2649.3,-42.91 2657.57,-36.29 2646.98,-36.31 2649.3,-42.91"/>
</g>
<!-- 1992863343168 -->
<g id="node15" class="node">
<title>1992863343168</title>
<polygon fill="white" stroke="black" points="2857,-45 2748,-45 2748,-9 2857,-9 2857,-45"/>
<text text-anchor="middle" x="2802.5" y="-21.98" font-family="Times New Roman,serif" font-size="12.00">Hardware Calibrate</text>
</g>
<!-- 1990971918336 -->
<g id="node33" class="node">
<title>1990971918336</title>
<ellipse fill="white" stroke="black" cx="2920" cy="-27" rx="27" ry="27"/>
</g>
<!-- 1992863343168&#45;&gt;1990971918336 -->
<g id="edge32" class="edge">
<title>1992863343168&#45;&gt;1990971918336</title>
<path fill="none" stroke="black" d="M2857.19,-27C2865.41,-27 2873.73,-27 2881.5,-27"/>
<polygon fill="black" stroke="black" points="2881.26,-30.5 2891.26,-27 2881.26,-23.5 2881.26,-30.5"/>
</g>
<!-- 1990981725280 -->
<g id="node16" class="node">
<title>1990981725280</title>
<polygon fill="white" stroke="black" points="2852.12,-117 2752.88,-117 2752.88,-81 2852.12,-81 2852.12,-117"/>
<text text-anchor="middle" x="2802.5" y="-93.97" font-family="Times New Roman,serif" font-size="12.00">Firmware Update</text>
</g>
<!-- 1990971919152 -->
<g id="node32" class="node">
<title>1990971919152</title>
<ellipse fill="white" stroke="black" cx="2920" cy="-99" rx="27" ry="27"/>
</g>
<!-- 1990981725280&#45;&gt;1990971919152 -->
<g id="edge33" class="edge">
<title>1990981725280&#45;&gt;1990971919152</title>
<path fill="none" stroke="black" d="M2852.48,-99C2862.06,-99 2871.96,-99 2881.11,-99"/>
<polygon fill="black" stroke="black" points="2881.1,-102.5 2891.1,-99 2881.1,-95.5 2881.1,-102.5"/>
</g>
<!-- 1990971930960 -->
<g id="node17" class="node">
<title>1990971930960</title>
<polygon fill="white" stroke="black" points="3077,-81 2983,-81 2983,-45 3077,-45 3077,-81"/>
<text text-anchor="middle" x="3030" y="-57.98" font-family="Times New Roman,serif" font-size="12.00">Report Generate</text>
</g>
<!-- 1990971753488 -->
<g id="node34" class="node">
<title>1990971753488</title>
<ellipse fill="white" stroke="black" cx="3144" cy="-63" rx="27" ry="27"/>
<ellipse fill="none" stroke="black" cx="3144" cy="-63" rx="31" ry="31"/>
<text text-anchor="start" x="3127.5" y="-47.6" font-family="Times New Roman,serif" font-size="32.00">■</text>
</g>
<!-- 1990971930960&#45;&gt;1990971753488 -->
<g id="edge36" class="edge">
<title>1990971930960&#45;&gt;1990971753488</title>
<path fill="none" stroke="black" d="M3077.2,-63C3085.12,-63 3093.32,-63 3101.12,-63"/>
<polygon fill="black" stroke="black" points="3101.06,-66.5 3111.06,-63 3101.06,-59.5 3101.06,-66.5"/>
</g>
<!-- 1990971761600 -->
<g id="node18" class="node">
<title>1990971761600</title>
<ellipse fill="white" stroke="black" cx="27" cy="-117" rx="27" ry="27"/>
<text text-anchor="start" x="9.75" y="-99.7" font-family="Times New Roman,serif" font-size="34.00">●</text>
</g>
<!-- 1990971761600&#45;&gt;1990981834736 -->
<g id="edge1" class="edge">
<title>1990971761600&#45;&gt;1990981834736</title>
<path fill="none" stroke="black" d="M54.29,-117C61.67,-117 69.98,-117 78.32,-117"/>
<polygon fill="black" stroke="black" points="78.14,-120.5 88.14,-117 78.14,-113.5 78.14,-120.5"/>
</g>
<!-- 1990981834400&#45;&gt;1990981832192 -->
<g id="edge3" class="edge">
<title>1990981834400&#45;&gt;1990981832192</title>
<path fill="none" stroke="black" d="M264.51,-117C271.82,-117 280.1,-117 288.62,-117"/>
<polygon fill="black" stroke="black" points="288.38,-120.5 298.38,-117 288.38,-113.5 288.38,-120.5"/>
</g>
<!-- 1990981831904&#45;&gt;1990981830800 -->
<g id="edge5" class="edge">
<title>1990981831904&#45;&gt;1990981830800</title>
<path fill="none" stroke="black" d="M502.58,-117C509.94,-117 518.23,-117 526.64,-117"/>
<polygon fill="black" stroke="black" points="526.58,-120.5 536.58,-117 526.58,-113.5 526.58,-120.5"/>
</g>
<!-- 1990981889024&#45;&gt;1990981878752 -->
<g id="edge7" class="edge">
<title>1990981889024&#45;&gt;1990981878752</title>
<path fill="none" stroke="black" d="M721.83,-117C729.19,-117 737.5,-117 745.89,-117"/>
<polygon fill="black" stroke="black" points="745.81,-120.5 755.81,-117 745.81,-113.5 745.81,-120.5"/>
</g>
<!-- 1990981879616&#45;&gt;1990981888784 -->
<g id="edge9" class="edge">
<title>1990981879616&#45;&gt;1990981888784</title>
<path fill="none" stroke="black" d="M938.24,-111.2C945.79,-109.49 954.33,-107.57 962.89,-105.64"/>
<polygon fill="black" stroke="black" points="963.62,-109.06 972.6,-103.45 962.08,-102.23 963.62,-109.06"/>
</g>
<!-- 1990981890464&#45;&gt;1990981890992 -->
<g id="edge11" class="edge">
<title>1990981890464&#45;&gt;1990981890992</title>
<path fill="none" stroke="black" d="M1146.78,-89C1154.19,-89 1162.47,-89 1170.65,-89"/>
<polygon fill="black" stroke="black" points="1170.53,-92.5 1180.53,-89 1170.53,-85.5 1170.53,-92.5"/>
</g>
<!-- 1990981893248&#45;&gt;1990981886192 -->
<g id="edge13" class="edge">
<title>1990981893248&#45;&gt;1990981886192</title>
<path fill="none" stroke="black" d="M1341.24,-89C1348.58,-89 1356.89,-89 1365.4,-89"/>
<polygon fill="black" stroke="black" points="1365.13,-92.5 1375.13,-89 1365.13,-85.5 1365.13,-92.5"/>
</g>
<!-- 1990981882784&#45;&gt;1990981885856 -->
<g id="edge15" class="edge">
<title>1990981882784&#45;&gt;1990981885856</title>
<path fill="none" stroke="black" d="M1571.4,-100.58C1586.07,-107.77 1605.22,-117.15 1621.77,-125.26"/>
<polygon fill="black" stroke="black" points="1619.8,-128.19 1630.33,-129.44 1622.88,-121.9 1619.8,-128.19"/>
</g>
<!-- 1990981882784&#45;&gt;1990981969120 -->
<g id="edge16" class="edge">
<title>1990981882784&#45;&gt;1990981969120</title>
<path fill="none" stroke="black" d="M1574.16,-89C1581.43,-89 1589.62,-89 1597.97,-89"/>
<polygon fill="black" stroke="black" points="1597.86,-92.5 1607.86,-89 1597.86,-85.5 1597.86,-92.5"/>
</g>
<!-- 1990981969312&#45;&gt;1990981969840 -->
<g id="edge19" class="edge">
<title>1990981969312&#45;&gt;1990981969840</title>
<path fill="none" stroke="black" d="M1798.56,-89C1805.94,-89 1814.24,-89 1822.61,-89"/>
<polygon fill="black" stroke="black" points="1822.46,-92.5 1832.46,-89 1822.46,-85.5 1822.46,-92.5"/>
</g>
<!-- 1990981975648&#45;&gt;1990981973296 -->
<g id="edge21" class="edge">
<title>1990981975648&#45;&gt;1990981973296</title>
<path fill="none" stroke="black" d="M2010.71,-84.01C2018.15,-82.58 2026.63,-80.95 2035.38,-79.27"/>
<polygon fill="black" stroke="black" points="2035.91,-82.73 2045.07,-77.4 2034.59,-75.85 2035.91,-82.73"/>
</g>
<!-- 1990981968304&#45;&gt;1990981971904 -->
<g id="edge23" class="edge">
<title>1990981968304&#45;&gt;1990981971904</title>
<path fill="none" stroke="black" d="M2254.31,-57.43C2261.55,-57.55 2269.77,-57.68 2278.28,-57.82"/>
<polygon fill="black" stroke="black" points="2278.02,-61.32 2288.08,-57.98 2278.14,-54.32 2278.02,-61.32"/>
</g>
<!-- 1990981972240&#45;&gt;1990981966720 -->
<g id="edge26" class="edge">
<title>1990981972240&#45;&gt;1990981966720</title>
<path fill="none" stroke="black" d="M2500.74,-75.39C2513.37,-82.05 2529.23,-90.42 2543.41,-97.9"/>
<polygon fill="black" stroke="black" points="2541.55,-100.87 2552.03,-102.44 2544.82,-94.68 2541.55,-100.87"/>
</g>
<!-- 1990981972240&#45;&gt;1990981729600 -->
<g id="edge25" class="edge">
<title>1990981972240&#45;&gt;1990981729600</title>
<path fill="none" stroke="black" d="M2503.61,-63C2511.03,-63 2519.36,-63 2527.71,-63"/>
<polygon fill="black" stroke="black" points="2527.52,-66.5 2537.52,-63 2527.52,-59.5 2527.52,-66.5"/>
</g>
<!-- 1990981729552&#45;&gt;1990981725280 -->
<g id="edge31" class="edge">
<title>1990981729552&#45;&gt;1990981725280</title>
<path fill="none" stroke="black" d="M2712.5,-99C2721.11,-99 2731.05,-99 2741.1,-99"/>
<polygon fill="black" stroke="black" points="2740.91,-102.5 2750.91,-99 2740.91,-95.5 2740.91,-102.5"/>
</g>
<!-- 1990968835056&#45;&gt;1992863343168 -->
<g id="edge30" class="edge">
<title>1990968835056&#45;&gt;1992863343168</title>
<path fill="none" stroke="black" d="M2712.5,-27C2719.73,-27 2727.9,-27 2736.29,-27"/>
<polygon fill="black" stroke="black" points="2736.27,-30.5 2746.27,-27 2736.27,-23.5 2736.27,-30.5"/>
</g>
<!-- 1990971919152&#45;&gt;1990971930960 -->
<g id="edge34" class="edge">
<title>1990971919152&#45;&gt;1990971930960</title>
<path fill="none" stroke="black" d="M2946.05,-90.65C2953.93,-88.02 2962.98,-85.01 2972.14,-81.95"/>
<polygon fill="black" stroke="black" points="2973.07,-85.33 2981.45,-78.85 2970.86,-78.69 2973.07,-85.33"/>
</g>
<!-- 1990971918336&#45;&gt;1990971930960 -->
<g id="edge35" class="edge">
<title>1990971918336&#45;&gt;1990971930960</title>
<path fill="none" stroke="black" d="M2946.05,-35.35C2953.93,-37.98 2962.98,-40.99 2972.14,-44.05"/>
<polygon fill="black" stroke="black" points="2970.86,-47.31 2981.45,-47.15 2973.07,-40.67 2970.86,-47.31"/>
</g>
</g>
</svg>
