<?xml version="1.0" encoding="UTF-8" standalone="no"?>
<!DOCTYPE svg PUBLIC "-//W3C//DTD SVG 1.1//EN"
 "http://www.w3.org/Graphics/SVG/1.1/DTD/svg11.dtd">
<!-- Generated by graphviz version 11.0.0 (20240428.1522)
 -->
<!-- Title: imdf_net_1754051512.31723 Pages: 1 -->
<svg width="2395pt" height="198pt"
 viewBox="0.00 0.00 2395.25 198.00" xmlns="http://www.w3.org/2000/svg" xmlns:xlink="http://www.w3.org/1999/xlink">
<g id="graph0" class="graph" transform="scale(1 1) rotate(0) translate(4 194)">
<title>imdf_net_1754051512.31723</title>
<polygon fill="white" stroke="none" points="-4,4 -4,-194 2391.25,-194 2391.25,4 -4,4"/>
<!-- 1990978623232 -->
<g id="node1" class="node">
<title>1990978623232</title>
<polygon fill="white" stroke="black" points="160.75,-126 90,-126 90,-90 160.75,-90 160.75,-126"/>
<text text-anchor="middle" x="125.38" y="-102.97" font-family="Times New Roman,serif" font-size="12.00">Trend Scan</text>
</g>
<!-- 1990978630720 -->
<g id="node18" class="node">
<title>1990978630720</title>
<ellipse fill="white" stroke="black" cx="223.75" cy="-108" rx="27" ry="27"/>
</g>
<!-- 1990978623232&#45;&gt;1990978630720 -->
<g id="edge2" class="edge">
<title>1990978623232&#45;&gt;1990978630720</title>
<path fill="none" stroke="black" d="M161.17,-108C168.9,-108 177.14,-108 184.98,-108"/>
<polygon fill="black" stroke="black" points="184.97,-111.5 194.97,-108 184.97,-104.5 184.97,-111.5"/>
</g>
<!-- 1990978618672 -->
<g id="node2" class="node">
<title>1990978618672</title>
<polygon fill="white" stroke="black" points="362.75,-126 286.75,-126 286.75,-90 362.75,-90 362.75,-126"/>
<text text-anchor="middle" x="324.75" y="-102.97" font-family="Times New Roman,serif" font-size="12.00">Idea Harvest</text>
</g>
<!-- 1990978621024 -->
<g id="node19" class="node">
<title>1990978621024</title>
<ellipse fill="white" stroke="black" cx="425.75" cy="-108" rx="27" ry="27"/>
</g>
<!-- 1990978618672&#45;&gt;1990978621024 -->
<g id="edge4" class="edge">
<title>1990978618672&#45;&gt;1990978621024</title>
<path fill="none" stroke="black" d="M363.18,-108C370.96,-108 379.16,-108 386.96,-108"/>
<polygon fill="black" stroke="black" points="386.85,-111.5 396.85,-108 386.85,-104.5 386.85,-111.5"/>
</g>
<!-- 1990978632928 -->
<g id="node3" class="node">
<title>1990978632928</title>
<polygon fill="white" stroke="black" points="587.25,-126 488.75,-126 488.75,-90 587.25,-90 587.25,-126"/>
<text text-anchor="middle" x="538" y="-102.97" font-family="Times New Roman,serif" font-size="12.00">Feasibility Check</text>
</g>
<!-- 1990978629184 -->
<g id="node20" class="node">
<title>1990978629184</title>
<ellipse fill="white" stroke="black" cx="650.25" cy="-108" rx="27" ry="27"/>
</g>
<!-- 1990978632928&#45;&gt;1990978629184 -->
<g id="edge6" class="edge">
<title>1990978632928&#45;&gt;1990978629184</title>
<path fill="none" stroke="black" d="M587.68,-108C595.63,-108 603.76,-108 611.4,-108"/>
<polygon fill="black" stroke="black" points="611.39,-111.5 621.39,-108 611.39,-104.5 611.39,-111.5"/>
</g>
<!-- 1990978629040 -->
<g id="node4" class="node">
<title>1990978629040</title>
<polygon fill="white" stroke="black" points="805.75,-126 713.25,-126 713.25,-90 805.75,-90 805.75,-126"/>
<text text-anchor="middle" x="759.5" y="-102.97" font-family="Times New Roman,serif" font-size="12.00">Concept Design</text>
</g>
<!-- 1990978619104 -->
<g id="node21" class="node">
<title>1990978619104</title>
<ellipse fill="white" stroke="black" cx="868.75" cy="-144" rx="27" ry="27"/>
</g>
<!-- 1990978629040&#45;&gt;1990978619104 -->
<g id="edge9" class="edge">
<title>1990978629040&#45;&gt;1990978619104</title>
<path fill="none" stroke="black" d="M805.98,-123.27C814.62,-126.17 823.54,-129.16 831.83,-131.94"/>
<polygon fill="black" stroke="black" points="830.62,-135.23 841.22,-135.09 832.85,-128.59 830.62,-135.23"/>
</g>
<!-- 1990978631536 -->
<g id="node22" class="node">
<title>1990978631536</title>
<ellipse fill="white" stroke="black" cx="868.75" cy="-72" rx="27" ry="27"/>
</g>
<!-- 1990978629040&#45;&gt;1990978631536 -->
<g id="edge8" class="edge">
<title>1990978629040&#45;&gt;1990978631536</title>
<path fill="none" stroke="black" d="M805.98,-92.73C814.62,-89.83 823.54,-86.84 831.83,-84.06"/>
<polygon fill="black" stroke="black" points="832.85,-87.41 841.22,-80.91 830.62,-80.77 832.85,-87.41"/>
</g>
<!-- 1990978618144 -->
<g id="node5" class="node">
<title>1990978618144</title>
<polygon fill="white" stroke="black" points="1022.75,-158 931.75,-158 931.75,-122 1022.75,-122 1022.75,-158"/>
<text text-anchor="middle" x="977.25" y="-134.97" font-family="Times New Roman,serif" font-size="12.00">Prototype Build</text>
</g>
<!-- 1990978626544 -->
<g id="node24" class="node">
<title>1990978626544</title>
<ellipse fill="white" stroke="black" cx="1085.75" cy="-135" rx="27" ry="27"/>
</g>
<!-- 1990978618144&#45;&gt;1990978626544 -->
<g id="edge12" class="edge">
<title>1990978618144&#45;&gt;1990978626544</title>
<path fill="none" stroke="black" d="M1023.11,-137.89C1031.11,-137.52 1039.37,-137.13 1047.15,-136.77"/>
<polygon fill="black" stroke="black" points="1047.14,-140.27 1056.96,-136.3 1046.81,-133.28 1047.14,-140.27"/>
</g>
<!-- 1990978628032 -->
<g id="node6" class="node">
<title>1990978628032</title>
<polygon fill="white" stroke="black" points="1017.12,-90 937.38,-90 937.38,-54 1017.12,-54 1017.12,-90"/>
<text text-anchor="middle" x="977.25" y="-66.97" font-family="Times New Roman,serif" font-size="12.00">Partner Align</text>
</g>
<!-- 1990979720144 -->
<g id="node23" class="node">
<title>1990979720144</title>
<ellipse fill="white" stroke="black" cx="1187.12" cy="-72" rx="27" ry="27"/>
</g>
<!-- 1990978628032&#45;&gt;1990979720144 -->
<g id="edge13" class="edge">
<title>1990978628032&#45;&gt;1990979720144</title>
<path fill="none" stroke="black" d="M1017.35,-72C1054.92,-72 1111.3,-72 1148.4,-72"/>
<polygon fill="black" stroke="black" points="1148.21,-75.5 1158.21,-72 1148.21,-68.5 1148.21,-75.5"/>
</g>
<!-- 1990978620160 -->
<g id="node7" class="node">
<title>1990978620160</title>
<polygon fill="white" stroke="black" points="1225.5,-153 1148.75,-153 1148.75,-117 1225.5,-117 1225.5,-153"/>
<text text-anchor="middle" x="1187.12" y="-129.97" font-family="Times New Roman,serif" font-size="12.00">Pilot Launch</text>
</g>
<!-- 1990978631728 -->
<g id="node25" class="node">
<title>1990978631728</title>
<ellipse fill="white" stroke="black" cx="1288.5" cy="-127" rx="27" ry="27"/>
</g>
<!-- 1990978620160&#45;&gt;1990978631728 -->
<g id="edge17" class="edge">
<title>1990978620160&#45;&gt;1990978631728</title>
<path fill="none" stroke="black" d="M1225.98,-131.95C1233.77,-131.33 1241.98,-130.66 1249.77,-130.04"/>
<polygon fill="black" stroke="black" points="1249.97,-133.53 1259.66,-129.24 1249.41,-126.56 1249.97,-133.53"/>
</g>
<!-- 1990981832912 -->
<g id="node8" class="node">
<title>1990981832912</title>
<polygon fill="white" stroke="black" points="1448.88,-90 1354.12,-90 1354.12,-54 1448.88,-54 1448.88,-90"/>
<text text-anchor="middle" x="1401.5" y="-66.97" font-family="Times New Roman,serif" font-size="12.00">Training Deploy</text>
</g>
<!-- 1990981836848 -->
<g id="node26" class="node">
<title>1990981836848</title>
<ellipse fill="white" stroke="black" cx="1514.5" cy="-63" rx="27" ry="27"/>
</g>
<!-- 1990981832912&#45;&gt;1990981836848 -->
<g id="edge16" class="edge">
<title>1990981832912&#45;&gt;1990981836848</title>
<path fill="none" stroke="black" d="M1449.25,-68.21C1458.21,-67.48 1467.49,-66.73 1476.11,-66.03"/>
<polygon fill="black" stroke="black" points="1476.17,-69.54 1485.86,-65.24 1475.6,-62.56 1476.17,-69.54"/>
</g>
<!-- 1990981844480 -->
<g id="node9" class="node">
<title>1990981844480</title>
<polygon fill="white" stroke="black" points="1451.5,-149 1351.5,-149 1351.5,-113 1451.5,-113 1451.5,-149"/>
<text text-anchor="middle" x="1401.5" y="-125.97" font-family="Times New Roman,serif" font-size="12.00">Stakeholder Input</text>
</g>
<!-- 1990981843616 -->
<g id="node27" class="node">
<title>1990981843616</title>
<ellipse fill="white" stroke="black" cx="1514.5" cy="-135" rx="27" ry="27"/>
</g>
<!-- 1990981844480&#45;&gt;1990981843616 -->
<g id="edge21" class="edge">
<title>1990981844480&#45;&gt;1990981843616</title>
<path fill="none" stroke="black" d="M1451.83,-132.78C1459.91,-133.07 1468.16,-133.37 1475.89,-133.64"/>
<polygon fill="black" stroke="black" points="1475.5,-137.13 1485.62,-134 1475.76,-130.14 1475.5,-137.13"/>
</g>
<!-- 1990979716640 -->
<g id="node10" class="node">
<title>1990979716640</title>
<polygon fill="white" stroke="black" points="1662.5,-81 1582.75,-81 1582.75,-45 1662.5,-45 1662.5,-81"/>
<text text-anchor="middle" x="1622.62" y="-57.98" font-family="Times New Roman,serif" font-size="12.00">Scale Rollout</text>
</g>
<!-- 1990979720528 -->
<g id="node28" class="node">
<title>1990979720528</title>
<ellipse fill="white" stroke="black" cx="1730.75" cy="-63" rx="27" ry="27"/>
</g>
<!-- 1990979716640&#45;&gt;1990979720528 -->
<g id="edge22" class="edge">
<title>1990979716640&#45;&gt;1990979720528</title>
<path fill="none" stroke="black" d="M1662.84,-63C1672.31,-63 1682.4,-63 1691.81,-63"/>
<polygon fill="black" stroke="black" points="1691.74,-66.5 1701.74,-63 1691.74,-59.5 1691.74,-66.5"/>
</g>
<!-- 1990979728208 -->
<g id="node11" class="node">
<title>1990979728208</title>
<polygon fill="white" stroke="black" points="1881.75,-81 1793.75,-81 1793.75,-45 1881.75,-45 1881.75,-81"/>
<text text-anchor="middle" x="1837.75" y="-57.98" font-family="Times New Roman,serif" font-size="12.00">Impact Review</text>
</g>
<!-- 1990979724464 -->
<g id="node30" class="node">
<title>1990979724464</title>
<ellipse fill="white" stroke="black" cx="1944.75" cy="-99" rx="27" ry="27"/>
</g>
<!-- 1990979728208&#45;&gt;1990979724464 -->
<g id="edge25" class="edge">
<title>1990979728208&#45;&gt;1990979724464</title>
<path fill="none" stroke="black" d="M1882.06,-77.85C1890.69,-80.81 1899.65,-83.88 1907.98,-86.74"/>
<polygon fill="black" stroke="black" points="1906.84,-90.05 1917.44,-89.98 1909.11,-83.42 1906.84,-90.05"/>
</g>
<!-- 1990979727056 -->
<g id="node31" class="node">
<title>1990979727056</title>
<ellipse fill="white" stroke="black" cx="1944.75" cy="-27" rx="27" ry="27"/>
</g>
<!-- 1990979728208&#45;&gt;1990979727056 -->
<g id="edge27" class="edge">
<title>1990979728208&#45;&gt;1990979727056</title>
<path fill="none" stroke="black" d="M1882.06,-48.15C1890.69,-45.19 1899.65,-42.12 1907.98,-39.26"/>
<polygon fill="black" stroke="black" points="1909.11,-42.58 1917.44,-36.02 1906.84,-35.95 1909.11,-42.58"/>
</g>
<!-- 1990981830896 -->
<g id="node12" class="node">
<title>1990981830896</title>
<polygon fill="white" stroke="black" points="1667.75,-153 1577.5,-153 1577.5,-117 1667.75,-117 1667.75,-153"/>
<text text-anchor="middle" x="1622.62" y="-129.97" font-family="Times New Roman,serif" font-size="12.00">Feedback Loop</text>
</g>
<!-- 1990981837616 -->
<g id="node29" class="node">
<title>1990981837616</title>
<ellipse fill="white" stroke="black" cx="1730.75" cy="-135" rx="27" ry="27"/>
</g>
<!-- 1990981830896&#45;&gt;1990981837616 -->
<g id="edge26" class="edge">
<title>1990981830896&#45;&gt;1990981837616</title>
<path fill="none" stroke="black" d="M1668.02,-135C1676.01,-135 1684.28,-135 1692.06,-135"/>
<polygon fill="black" stroke="black" points="1691.89,-138.5 1701.89,-135 1691.89,-131.5 1691.89,-138.5"/>
</g>
<!-- 1990979723408 -->
<g id="node13" class="node">
<title>1990979723408</title>
<polygon fill="white" stroke="black" points="2109.25,-45 2007.75,-45 2007.75,-9 2109.25,-9 2109.25,-45"/>
<text text-anchor="middle" x="2058.5" y="-21.98" font-family="Times New Roman,serif" font-size="12.00">Knowledge Share</text>
</g>
<!-- 1990979718032 -->
<g id="node33" class="node">
<title>1990979718032</title>
<ellipse fill="white" stroke="black" cx="2172.25" cy="-27" rx="27" ry="27"/>
</g>
<!-- 1990979723408&#45;&gt;1990979718032 -->
<g id="edge33" class="edge">
<title>1990979723408&#45;&gt;1990979718032</title>
<path fill="none" stroke="black" d="M2109.49,-27C2117.6,-27 2125.87,-27 2133.61,-27"/>
<polygon fill="black" stroke="black" points="2133.36,-30.5 2143.36,-27 2133.36,-23.5 2133.36,-30.5"/>
</g>
<!-- 1990981834016 -->
<g id="node14" class="node">
<title>1990981834016</title>
<polygon fill="white" stroke="black" points="1877.25,-180 1798.25,-180 1798.25,-144 1877.25,-144 1877.25,-180"/>
<text text-anchor="middle" x="1837.75" y="-156.97" font-family="Times New Roman,serif" font-size="12.00">Iterate Model</text>
</g>
<!-- 1990981834016&#45;&gt;1990978619104 -->
<g id="edge31" class="edge">
<title>1990981834016&#45;&gt;1990978619104</title>
<path fill="none" stroke="black" d="M1798.06,-170.17C1755.51,-178.44 1685.01,-190 1623.62,-190 1084.75,-190 1084.75,-190 1084.75,-190 1015.99,-190 998.34,-184.16 931.75,-167 922.84,-164.7 913.43,-161.59 904.71,-158.4"/>
<polygon fill="black" stroke="black" points="906.12,-155.19 895.53,-154.9 903.63,-161.73 906.12,-155.19"/>
</g>
<!-- 1990979722016 -->
<g id="node15" class="node">
<title>1990979722016</title>
<polygon fill="white" stroke="black" points="2099.5,-117 2017.5,-117 2017.5,-81 2099.5,-81 2099.5,-117"/>
<text text-anchor="middle" x="2058.5" y="-93.97" font-family="Times New Roman,serif" font-size="12.00">Market Adapt</text>
</g>
<!-- 1990979715584 -->
<g id="node32" class="node">
<title>1990979715584</title>
<ellipse fill="white" stroke="black" cx="2172.25" cy="-99" rx="27" ry="27"/>
</g>
<!-- 1990979722016&#45;&gt;1990979715584 -->
<g id="edge32" class="edge">
<title>1990979722016&#45;&gt;1990979715584</title>
<path fill="none" stroke="black" d="M2099.84,-99C2110.86,-99 2122.76,-99 2133.62,-99"/>
<polygon fill="black" stroke="black" points="2133.39,-102.5 2143.39,-99 2133.39,-95.5 2133.39,-102.5"/>
</g>
<!-- 1990978924144 -->
<g id="node16" class="node">
<title>1990978924144</title>
<polygon fill="black" stroke="black" points="2289.25,-81 2235.25,-81 2235.25,-45 2289.25,-45 2289.25,-81"/>
</g>
<!-- 1990979850880 -->
<g id="node34" class="node">
<title>1990979850880</title>
<ellipse fill="white" stroke="black" cx="2356.25" cy="-63" rx="27" ry="27"/>
<ellipse fill="none" stroke="black" cx="2356.25" cy="-63" rx="31" ry="31"/>
<text text-anchor="start" x="2339.75" y="-47.6" font-family="Times New Roman,serif" font-size="32.00">■</text>
</g>
<!-- 1990978924144&#45;&gt;1990979850880 -->
<g id="edge36" class="edge">
<title>1990978924144&#45;&gt;1990979850880</title>
<path fill="none" stroke="black" d="M2289.37,-63C2296.88,-63 2305.26,-63 2313.47,-63"/>
<polygon fill="black" stroke="black" points="2313.33,-66.5 2323.33,-63 2313.33,-59.5 2313.33,-66.5"/>
</g>
<!-- 1990979847328 -->
<g id="node17" class="node">
<title>1990979847328</title>
<ellipse fill="white" stroke="black" cx="27" cy="-108" rx="27" ry="27"/>
<text text-anchor="start" x="9.75" y="-90.7" font-family="Times New Roman,serif" font-size="34.00">●</text>
</g>
<!-- 1990979847328&#45;&gt;1990978623232 -->
<g id="edge1" class="edge">
<title>1990979847328&#45;&gt;1990978623232</title>
<path fill="none" stroke="black" d="M54.33,-108C61.76,-108 70.06,-108 78.28,-108"/>
<polygon fill="black" stroke="black" points="78.24,-111.5 88.24,-108 78.24,-104.5 78.24,-111.5"/>
</g>
<!-- 1990978630720&#45;&gt;1990978618672 -->
<g id="edge3" class="edge">
<title>1990978630720&#45;&gt;1990978618672</title>
<path fill="none" stroke="black" d="M251.02,-108C258.5,-108 266.9,-108 275.26,-108"/>
<polygon fill="black" stroke="black" points="275.03,-111.5 285.03,-108 275.03,-104.5 275.03,-111.5"/>
</g>
<!-- 1990978621024&#45;&gt;1990978632928 -->
<g id="edge5" class="edge">
<title>1990978621024&#45;&gt;1990978632928</title>
<path fill="none" stroke="black" d="M453.16,-108C460.43,-108 468.62,-108 476.97,-108"/>
<polygon fill="black" stroke="black" points="476.86,-111.5 486.86,-108 476.86,-104.5 476.86,-111.5"/>
</g>
<!-- 1990978629184&#45;&gt;1990978629040 -->
<g id="edge7" class="edge">
<title>1990978629184&#45;&gt;1990978629040</title>
<path fill="none" stroke="black" d="M677.49,-108C684.82,-108 693.09,-108 701.47,-108"/>
<polygon fill="black" stroke="black" points="701.37,-111.5 711.37,-108 701.37,-104.5 701.37,-111.5"/>
</g>
<!-- 1990978619104&#45;&gt;1990978618144 -->
<g id="edge11" class="edge">
<title>1990978619104&#45;&gt;1990978618144</title>
<path fill="none" stroke="black" d="M896.08,-143.01C903.44,-142.73 911.75,-142.42 920.14,-142.11"/>
<polygon fill="black" stroke="black" points="920.2,-145.61 930.06,-141.73 919.94,-138.61 920.2,-145.61"/>
</g>
<!-- 1990978631536&#45;&gt;1990978628032 -->
<g id="edge10" class="edge">
<title>1990978631536&#45;&gt;1990978628032</title>
<path fill="none" stroke="black" d="M896.08,-72C905.03,-72 915.35,-72 925.56,-72"/>
<polygon fill="black" stroke="black" points="925.43,-75.5 935.43,-72 925.43,-68.5 925.43,-75.5"/>
</g>
<!-- 1990979720144&#45;&gt;1990981832912 -->
<g id="edge14" class="edge">
<title>1990979720144&#45;&gt;1990981832912</title>
<path fill="none" stroke="black" d="M1214.59,-72C1246.41,-72 1300.71,-72 1342.44,-72"/>
<polygon fill="black" stroke="black" points="1342.34,-75.5 1352.34,-72 1342.34,-68.5 1342.34,-75.5"/>
</g>
<!-- 1990978626544&#45;&gt;1990978620160 -->
<g id="edge15" class="edge">
<title>1990978626544&#45;&gt;1990978620160</title>
<path fill="none" stroke="black" d="M1113.12,-135C1120.47,-135 1128.69,-135 1136.9,-135"/>
<polygon fill="black" stroke="black" points="1136.89,-138.5 1146.89,-135 1136.89,-131.5 1136.89,-138.5"/>
</g>
<!-- 1990978631728&#45;&gt;1990981832912 -->
<g id="edge18" class="edge">
<title>1990978631728&#45;&gt;1990981832912</title>
<path fill="none" stroke="black" d="M1313.31,-115.2C1324.89,-109.47 1339.22,-102.36 1352.91,-95.58"/>
<polygon fill="black" stroke="black" points="1354.43,-98.74 1361.83,-91.16 1351.32,-92.46 1354.43,-98.74"/>
</g>
<!-- 1990978631728&#45;&gt;1990981844480 -->
<g id="edge19" class="edge">
<title>1990978631728&#45;&gt;1990981844480</title>
<path fill="none" stroke="black" d="M1315.81,-127.95C1323.21,-128.21 1331.57,-128.52 1340.1,-128.82"/>
<polygon fill="black" stroke="black" points="1339.69,-132.31 1349.81,-129.17 1339.94,-125.32 1339.69,-132.31"/>
</g>
<!-- 1990981836848&#45;&gt;1990979716640 -->
<g id="edge20" class="edge">
<title>1990981836848&#45;&gt;1990979716640</title>
<path fill="none" stroke="black" d="M1541.73,-63C1550.65,-63 1560.94,-63 1571.11,-63"/>
<polygon fill="black" stroke="black" points="1570.94,-66.5 1580.94,-63 1570.94,-59.5 1570.94,-66.5"/>
</g>
<!-- 1990981843616&#45;&gt;1990981830896 -->
<g id="edge23" class="edge">
<title>1990981843616&#45;&gt;1990981830896</title>
<path fill="none" stroke="black" d="M1541.73,-135C1549.08,-135 1557.35,-135 1565.72,-135"/>
<polygon fill="black" stroke="black" points="1565.59,-138.5 1575.59,-135 1565.59,-131.5 1565.59,-138.5"/>
</g>
<!-- 1990979720528&#45;&gt;1990979728208 -->
<g id="edge24" class="edge">
<title>1990979720528&#45;&gt;1990979728208</title>
<path fill="none" stroke="black" d="M1758.25,-63C1765.6,-63 1773.86,-63 1782.19,-63"/>
<polygon fill="black" stroke="black" points="1782,-66.5 1792,-63 1782,-59.5 1782,-66.5"/>
</g>
<!-- 1990981837616&#45;&gt;1990981834016 -->
<g id="edge29" class="edge">
<title>1990981837616&#45;&gt;1990981834016</title>
<path fill="none" stroke="black" d="M1757.44,-141.6C1766.35,-143.9 1776.68,-146.55 1786.88,-149.18"/>
<polygon fill="black" stroke="black" points="1785.79,-152.51 1796.35,-151.61 1787.54,-145.73 1785.79,-152.51"/>
</g>
<!-- 1990979724464&#45;&gt;1990979722016 -->
<g id="edge30" class="edge">
<title>1990979724464&#45;&gt;1990979722016</title>
<path fill="none" stroke="black" d="M1972.23,-99C1982.3,-99 1994.15,-99 2005.76,-99"/>
<polygon fill="black" stroke="black" points="2005.7,-102.5 2015.7,-99 2005.7,-95.5 2005.7,-102.5"/>
</g>
<!-- 1990979727056&#45;&gt;1990979723408 -->
<g id="edge28" class="edge">
<title>1990979727056&#45;&gt;1990979723408</title>
<path fill="none" stroke="black" d="M1972.23,-27C1979.51,-27 1987.72,-27 1996.09,-27"/>
<polygon fill="black" stroke="black" points="1996.03,-30.5 2006.03,-27 1996.03,-23.5 1996.03,-30.5"/>
</g>
<!-- 1990979715584&#45;&gt;1990978924144 -->
<g id="edge34" class="edge">
<title>1990979715584&#45;&gt;1990978924144</title>
<path fill="none" stroke="black" d="M2197.76,-88.97C2206.01,-85.6 2215.39,-81.76 2224.37,-78.09"/>
<polygon fill="black" stroke="black" points="2225.69,-81.33 2233.62,-74.3 2223.04,-74.85 2225.69,-81.33"/>
</g>
<!-- 1990979718032&#45;&gt;1990978924144 -->
<g id="edge35" class="edge">
<title>1990979718032&#45;&gt;1990978924144</title>
<path fill="none" stroke="black" d="M2197.76,-37.03C2206.01,-40.4 2215.39,-44.24 2224.37,-47.91"/>
<polygon fill="black" stroke="black" points="2223.04,-51.15 2233.62,-51.7 2225.69,-44.67 2223.04,-51.15"/>
</g>
</g>
</svg>
