<?xml version="1.0" encoding="UTF-8" standalone="no"?>
<!DOCTYPE svg PUBLIC "-//W3C//DTD SVG 1.1//EN"
 "http://www.w3.org/Graphics/SVG/1.1/DTD/svg11.dtd">
<!-- Generated by graphviz version 11.0.0 (20240428.1522)
 -->
<!-- Title: imdf_net_1754051504.4306126 Pages: 1 -->
<svg width="2899pt" height="134pt"
 viewBox="0.00 0.00 2899.25 134.00" xmlns="http://www.w3.org/2000/svg" xmlns:xlink="http://www.w3.org/1999/xlink">
<g id="graph0" class="graph" transform="scale(1 1) rotate(0) translate(4 130)">
<title>imdf_net_1754051504.4306126</title>
<polygon fill="white" stroke="none" points="-4,4 -4,-130 2895.25,-130 2895.25,4 -4,4"/>
<!-- 1990977861632 -->
<g id="node1" class="node">
<title>1990977861632</title>
<polygon fill="white" stroke="black" points="159.25,-81 90,-81 90,-45 159.25,-45 159.25,-81"/>
<text text-anchor="middle" x="124.62" y="-57.98" font-family="Times New Roman,serif" font-size="12.00">Site Assess</text>
</g>
<!-- 1990971507872 -->
<g id="node17" class="node">
<title>1990971507872</title>
<ellipse fill="white" stroke="black" cx="222.25" cy="-63" rx="27" ry="27"/>
</g>
<!-- 1990977861632&#45;&gt;1990971507872 -->
<g id="edge2" class="edge">
<title>1990977861632&#45;&gt;1990971507872</title>
<path fill="none" stroke="black" d="M159.61,-63C167.31,-63 175.53,-63 183.38,-63"/>
<polygon fill="black" stroke="black" points="183.38,-66.5 193.38,-63 183.38,-59.5 183.38,-66.5"/>
</g>
<!-- 1990971512000 -->
<g id="node2" class="node">
<title>1990971512000</title>
<polygon fill="white" stroke="black" points="380.75,-81 285.25,-81 285.25,-45 380.75,-45 380.75,-81"/>
<text text-anchor="middle" x="333" y="-57.98" font-family="Times New Roman,serif" font-size="12.00">Zoning Approve</text>
</g>
<!-- 1990971518624 -->
<g id="node18" class="node">
<title>1990971518624</title>
<ellipse fill="white" stroke="black" cx="443.75" cy="-63" rx="27" ry="27"/>
</g>
<!-- 1990971512000&#45;&gt;1990971518624 -->
<g id="edge4" class="edge">
<title>1990971512000&#45;&gt;1990971518624</title>
<path fill="none" stroke="black" d="M381.07,-63C389.07,-63 397.29,-63 405.02,-63"/>
<polygon fill="black" stroke="black" points="404.75,-66.5 414.75,-63 404.75,-59.5 404.75,-66.5"/>
</g>
<!-- 1990971509984 -->
<g id="node3" class="node">
<title>1990971509984</title>
<polygon fill="white" stroke="black" points="600,-81 506.75,-81 506.75,-45 600,-45 600,-81"/>
<text text-anchor="middle" x="553.38" y="-57.98" font-family="Times New Roman,serif" font-size="12.00">Modular Design</text>
</g>
<!-- 1990971512528 -->
<g id="node19" class="node">
<title>1990971512528</title>
<ellipse fill="white" stroke="black" cx="663" cy="-63" rx="27" ry="27"/>
</g>
<!-- 1990971509984&#45;&gt;1990971512528 -->
<g id="edge6" class="edge">
<title>1990971509984&#45;&gt;1990971512528</title>
<path fill="none" stroke="black" d="M600.33,-63C608.37,-63 616.66,-63 624.44,-63"/>
<polygon fill="black" stroke="black" points="624.26,-66.5 634.26,-63 624.26,-59.5 624.26,-66.5"/>
</g>
<!-- 1990971520208 -->
<g id="node4" class="node">
<title>1990971520208</title>
<polygon fill="white" stroke="black" points="789.25,-81 726,-81 726,-45 789.25,-45 789.25,-81"/>
<text text-anchor="middle" x="757.62" y="-57.98" font-family="Times New Roman,serif" font-size="12.00">IoT Setup</text>
</g>
<!-- 1990971514832 -->
<g id="node20" class="node">
<title>1990971514832</title>
<ellipse fill="white" stroke="black" cx="852.25" cy="-63" rx="27" ry="27"/>
</g>
<!-- 1990971520208&#45;&gt;1990971514832 -->
<g id="edge8" class="edge">
<title>1990971520208&#45;&gt;1990971514832</title>
<path fill="none" stroke="black" d="M789.73,-63C797.42,-63 805.75,-63 813.72,-63"/>
<polygon fill="black" stroke="black" points="813.51,-66.5 823.51,-63 813.51,-59.5 813.51,-66.5"/>
</g>
<!-- 1990971519824 -->
<g id="node5" class="node">
<title>1990971519824</title>
<polygon fill="white" stroke="black" points="1004,-81 915.25,-81 915.25,-45 1004,-45 1004,-81"/>
<text text-anchor="middle" x="959.62" y="-57.98" font-family="Times New Roman,serif" font-size="12.00">Climate Config</text>
</g>
<!-- 1990971521456 -->
<g id="node21" class="node">
<title>1990971521456</title>
<ellipse fill="white" stroke="black" cx="1067" cy="-63" rx="27" ry="27"/>
</g>
<!-- 1990971519824&#45;&gt;1990971521456 -->
<g id="edge10" class="edge">
<title>1990971519824&#45;&gt;1990971521456</title>
<path fill="none" stroke="black" d="M1004.4,-63C1012.36,-63 1020.6,-63 1028.36,-63"/>
<polygon fill="black" stroke="black" points="1028.17,-66.5 1038.17,-63 1028.17,-59.5 1028.17,-66.5"/>
</g>
<!-- 1990971514064 -->
<g id="node6" class="node">
<title>1990971514064</title>
<polygon fill="white" stroke="black" points="1234.5,-81 1130,-81 1130,-45 1234.5,-45 1234.5,-81"/>
<text text-anchor="middle" x="1182.25" y="-57.98" font-family="Times New Roman,serif" font-size="12.00">Hydroponic Install</text>
</g>
<!-- 1990971510848 -->
<g id="node22" class="node">
<title>1990971510848</title>
<ellipse fill="white" stroke="black" cx="1297.5" cy="-63" rx="27" ry="27"/>
</g>
<!-- 1990971514064&#45;&gt;1990971510848 -->
<g id="edge12" class="edge">
<title>1990971514064&#45;&gt;1990971510848</title>
<path fill="none" stroke="black" d="M1234.9,-63C1242.94,-63 1251.12,-63 1258.77,-63"/>
<polygon fill="black" stroke="black" points="1258.76,-66.5 1268.76,-63 1258.76,-59.5 1258.76,-66.5"/>
</g>
<!-- 1990971522512 -->
<g id="node7" class="node">
<title>1990971522512</title>
<polygon fill="white" stroke="black" points="1441,-81 1360.5,-81 1360.5,-45 1441,-45 1441,-81"/>
<text text-anchor="middle" x="1400.75" y="-57.98" font-family="Times New Roman,serif" font-size="12.00">Energy Audit</text>
</g>
<!-- 1990971507248 -->
<g id="node23" class="node">
<title>1990971507248</title>
<ellipse fill="white" stroke="black" cx="1504" cy="-63" rx="27" ry="27"/>
</g>
<!-- 1990971522512&#45;&gt;1990971507248 -->
<g id="edge14" class="edge">
<title>1990971522512&#45;&gt;1990971507248</title>
<path fill="none" stroke="black" d="M1441.48,-63C1449.35,-63 1457.59,-63 1465.39,-63"/>
<polygon fill="black" stroke="black" points="1465.27,-66.5 1475.27,-63 1465.27,-59.5 1465.27,-66.5"/>
</g>
<!-- 1990971506768 -->
<g id="node8" class="node">
<title>1990971506768</title>
<polygon fill="white" stroke="black" points="1685,-81 1567,-81 1567,-45 1685,-45 1685,-81"/>
<text text-anchor="middle" x="1626" y="-57.98" font-family="Times New Roman,serif" font-size="12.00">Renewables Integrate</text>
</g>
<!-- 1990971509936 -->
<g id="node24" class="node">
<title>1990971509936</title>
<ellipse fill="white" stroke="black" cx="1748" cy="-99" rx="27" ry="27"/>
</g>
<!-- 1990971506768&#45;&gt;1990971509936 -->
<g id="edge17" class="edge">
<title>1990971506768&#45;&gt;1990971509936</title>
<path fill="none" stroke="black" d="M1685.24,-80.47C1694.01,-83.1 1702.83,-85.75 1710.94,-88.18"/>
<polygon fill="black" stroke="black" points="1709.84,-91.51 1720.43,-91.03 1711.85,-84.8 1709.84,-91.51"/>
</g>
<!-- 1990971508688 -->
<g id="node25" class="node">
<title>1990971508688</title>
<ellipse fill="white" stroke="black" cx="1748" cy="-27" rx="27" ry="27"/>
</g>
<!-- 1990971506768&#45;&gt;1990971508688 -->
<g id="edge16" class="edge">
<title>1990971506768&#45;&gt;1990971508688</title>
<path fill="none" stroke="black" d="M1685.24,-45.53C1694.01,-42.9 1702.83,-40.25 1710.94,-37.82"/>
<polygon fill="black" stroke="black" points="1711.85,-41.2 1720.43,-34.97 1709.84,-34.49 1711.85,-41.2"/>
</g>
<!-- 1990971510608 -->
<g id="node9" class="node">
<title>1990971510608</title>
<polygon fill="white" stroke="black" points="1898.62,-117 1824.12,-117 1824.12,-81 1898.62,-81 1898.62,-117"/>
<text text-anchor="middle" x="1861.38" y="-93.97" font-family="Times New Roman,serif" font-size="12.00">Pest Control</text>
</g>
<!-- 1990977975216 -->
<g id="node26" class="node">
<title>1990977975216</title>
<ellipse fill="white" stroke="black" cx="1974.75" cy="-99" rx="27" ry="27"/>
</g>
<!-- 1990971510608&#45;&gt;1990977975216 -->
<g id="edge21" class="edge">
<title>1990971510608&#45;&gt;1990977975216</title>
<path fill="none" stroke="black" d="M1898.84,-99C1910.74,-99 1923.97,-99 1935.96,-99"/>
<polygon fill="black" stroke="black" points="1935.93,-102.5 1945.93,-99 1935.93,-95.5 1935.93,-102.5"/>
</g>
<!-- 1990971517424 -->
<g id="node10" class="node">
<title>1990971517424</title>
<polygon fill="white" stroke="black" points="1911.75,-45 1811,-45 1811,-9 1911.75,-9 1911.75,-45"/>
<text text-anchor="middle" x="1861.38" y="-21.98" font-family="Times New Roman,serif" font-size="12.00">Nutrient Calibrate</text>
</g>
<!-- 1990979482784 -->
<g id="node27" class="node">
<title>1990979482784</title>
<ellipse fill="white" stroke="black" cx="1974.75" cy="-27" rx="27" ry="27"/>
</g>
<!-- 1990971517424&#45;&gt;1990979482784 -->
<g id="edge20" class="edge">
<title>1990971517424&#45;&gt;1990979482784</title>
<path fill="none" stroke="black" d="M1912.2,-27C1920.18,-27 1928.33,-27 1935.97,-27"/>
<polygon fill="black" stroke="black" points="1935.95,-30.5 1945.95,-27 1935.95,-23.5 1935.95,-30.5"/>
</g>
<!-- 1990971511808 -->
<g id="node11" class="node">
<title>1990971511808</title>
<polygon fill="white" stroke="black" points="2149,-81 2037.75,-81 2037.75,-45 2149,-45 2149,-81"/>
<text text-anchor="middle" x="2093.38" y="-57.98" font-family="Times New Roman,serif" font-size="12.00">Community Engage</text>
</g>
<!-- 1990971516656 -->
<g id="node28" class="node">
<title>1990971516656</title>
<ellipse fill="white" stroke="black" cx="2212" cy="-63" rx="27" ry="27"/>
</g>
<!-- 1990971511808&#45;&gt;1990971516656 -->
<g id="edge24" class="edge">
<title>1990971511808&#45;&gt;1990971516656</title>
<path fill="none" stroke="black" d="M2149.27,-63C2157.34,-63 2165.49,-63 2173.11,-63"/>
<polygon fill="black" stroke="black" points="2173.04,-66.5 2183.04,-63 2173.04,-59.5 2173.04,-66.5"/>
</g>
<!-- 1990969425696 -->
<g id="node12" class="node">
<title>1990969425696</title>
<polygon fill="white" stroke="black" points="2354.75,-54 2275,-54 2275,-18 2354.75,-18 2354.75,-54"/>
<text text-anchor="middle" x="2314.88" y="-30.98" font-family="Times New Roman,serif" font-size="12.00">Data Monitor</text>
</g>
<!-- 1990969424928 -->
<g id="node29" class="node">
<title>1990969424928</title>
<ellipse fill="white" stroke="black" cx="2417.75" cy="-35" rx="27" ry="27"/>
</g>
<!-- 1990969425696&#45;&gt;1990969424928 -->
<g id="edge26" class="edge">
<title>1990969425696&#45;&gt;1990969424928</title>
<path fill="none" stroke="black" d="M2355.16,-35.61C2363.03,-35.53 2371.27,-35.45 2379.07,-35.37"/>
<polygon fill="black" stroke="black" points="2379,-38.87 2388.97,-35.28 2378.93,-31.87 2379,-38.87"/>
</g>
<!-- 1990979474048 -->
<g id="node13" class="node">
<title>1990979474048</title>
<polygon fill="white" stroke="black" points="2571,-53 2480.75,-53 2480.75,-17 2571,-17 2571,-53"/>
<text text-anchor="middle" x="2525.88" y="-29.98" font-family="Times New Roman,serif" font-size="12.00">Organic Certify</text>
</g>
<!-- 1990979471456 -->
<g id="node30" class="node">
<title>1990979471456</title>
<ellipse fill="white" stroke="black" cx="2634" cy="-35" rx="27" ry="27"/>
</g>
<!-- 1990979474048&#45;&gt;1990979471456 -->
<g id="edge30" class="edge">
<title>1990979474048&#45;&gt;1990979471456</title>
<path fill="none" stroke="black" d="M2571.27,-35C2579.26,-35 2587.53,-35 2595.31,-35"/>
<polygon fill="black" stroke="black" points="2595.14,-38.5 2605.14,-35 2595.14,-31.5 2595.14,-38.5"/>
</g>
<!-- 1990969412064 -->
<g id="node14" class="node">
<title>1990969412064</title>
<polygon fill="white" stroke="black" points="2569.12,-107 2482.62,-107 2482.62,-71 2569.12,-71 2569.12,-107"/>
<text text-anchor="middle" x="2525.88" y="-83.97" font-family="Times New Roman,serif" font-size="12.00">Crop Schedule</text>
</g>
<!-- 1990969412064&#45;&gt;1990971516656 -->
<g id="edge29" class="edge">
<title>1990969412064&#45;&gt;1990971516656</title>
<path fill="none" stroke="black" d="M2482.37,-85.46C2421.12,-80.35 2308.98,-71 2250.59,-66.13"/>
<polygon fill="black" stroke="black" points="2251.09,-62.66 2240.83,-65.32 2250.5,-69.64 2251.09,-62.66"/>
</g>
<!-- 1990979469824 -->
<g id="node15" class="node">
<title>1990979469824</title>
<polygon fill="white" stroke="black" points="2793.25,-53 2697,-53 2697,-17 2793.25,-17 2793.25,-53"/>
<text text-anchor="middle" x="2745.12" y="-29.98" font-family="Times New Roman,serif" font-size="12.00">Launch Delivery</text>
</g>
<!-- 1990977857552 -->
<g id="node31" class="node">
<title>1990977857552</title>
<ellipse fill="white" stroke="black" cx="2860.25" cy="-35" rx="27" ry="27"/>
<ellipse fill="none" stroke="black" cx="2860.25" cy="-35" rx="31" ry="31"/>
<text text-anchor="start" x="2843.75" y="-19.6" font-family="Times New Roman,serif" font-size="32.00">■</text>
</g>
<!-- 1990979469824&#45;&gt;1990977857552 -->
<g id="edge32" class="edge">
<title>1990979469824&#45;&gt;1990977857552</title>
<path fill="none" stroke="black" d="M2793.44,-35C2801.41,-35 2809.62,-35 2817.43,-35"/>
<polygon fill="black" stroke="black" points="2817.37,-38.5 2827.37,-35 2817.37,-31.5 2817.37,-38.5"/>
</g>
<!-- 1990977857120 -->
<g id="node16" class="node">
<title>1990977857120</title>
<ellipse fill="white" stroke="black" cx="27" cy="-63" rx="27" ry="27"/>
<text text-anchor="start" x="9.75" y="-45.7" font-family="Times New Roman,serif" font-size="34.00">●</text>
</g>
<!-- 1990977857120&#45;&gt;1990977861632 -->
<g id="edge1" class="edge">
<title>1990977857120&#45;&gt;1990977861632</title>
<path fill="none" stroke="black" d="M54.38,-63C61.82,-63 70.14,-63 78.35,-63"/>
<polygon fill="black" stroke="black" points="78.28,-66.5 88.28,-63 78.28,-59.5 78.28,-66.5"/>
</g>
<!-- 1990971507872&#45;&gt;1990971512000 -->
<g id="edge3" class="edge">
<title>1990971507872&#45;&gt;1990971512000</title>
<path fill="none" stroke="black" d="M249.58,-63C256.92,-63 265.21,-63 273.63,-63"/>
<polygon fill="black" stroke="black" points="273.59,-66.5 283.59,-63 273.59,-59.5 273.59,-66.5"/>
</g>
<!-- 1990971518624&#45;&gt;1990971509984 -->
<g id="edge5" class="edge">
<title>1990971518624&#45;&gt;1990971509984</title>
<path fill="none" stroke="black" d="M471.08,-63C478.44,-63 486.73,-63 495.14,-63"/>
<polygon fill="black" stroke="black" points="495.08,-66.5 505.08,-63 495.08,-59.5 495.08,-66.5"/>
</g>
<!-- 1990971512528&#45;&gt;1990971520208 -->
<g id="edge7" class="edge">
<title>1990971512528&#45;&gt;1990971520208</title>
<path fill="none" stroke="black" d="M690.29,-63C697.78,-63 706.14,-63 714.32,-63"/>
<polygon fill="black" stroke="black" points="714.16,-66.5 724.16,-63 714.16,-59.5 714.16,-66.5"/>
</g>
<!-- 1990971514832&#45;&gt;1990971519824 -->
<g id="edge9" class="edge">
<title>1990971514832&#45;&gt;1990971519824</title>
<path fill="none" stroke="black" d="M879.57,-63C886.94,-63 895.25,-63 903.63,-63"/>
<polygon fill="black" stroke="black" points="903.52,-66.5 913.52,-63 903.52,-59.5 903.52,-66.5"/>
</g>
<!-- 1990971521456&#45;&gt;1990971514064 -->
<g id="edge11" class="edge">
<title>1990971521456&#45;&gt;1990971514064</title>
<path fill="none" stroke="black" d="M1094.27,-63C1101.63,-63 1109.96,-63 1118.48,-63"/>
<polygon fill="black" stroke="black" points="1118.21,-66.5 1128.21,-63 1118.21,-59.5 1118.21,-66.5"/>
</g>
<!-- 1990971510848&#45;&gt;1990971522512 -->
<g id="edge13" class="edge">
<title>1990971510848&#45;&gt;1990971522512</title>
<path fill="none" stroke="black" d="M1324.84,-63C1332.25,-63 1340.57,-63 1348.9,-63"/>
<polygon fill="black" stroke="black" points="1348.67,-66.5 1358.67,-63 1348.67,-59.5 1348.67,-66.5"/>
</g>
<!-- 1990971507248&#45;&gt;1990971506768 -->
<g id="edge15" class="edge">
<title>1990971507248&#45;&gt;1990971506768</title>
<path fill="none" stroke="black" d="M1531.33,-63C1538.63,-63 1546.9,-63 1555.44,-63"/>
<polygon fill="black" stroke="black" points="1555.24,-66.5 1565.24,-63 1555.24,-59.5 1555.24,-66.5"/>
</g>
<!-- 1990971509936&#45;&gt;1990971510608 -->
<g id="edge19" class="edge">
<title>1990971509936&#45;&gt;1990971510608</title>
<path fill="none" stroke="black" d="M1775.39,-99C1786.43,-99 1799.6,-99 1812.25,-99"/>
<polygon fill="black" stroke="black" points="1812.12,-102.5 1822.12,-99 1812.12,-95.5 1812.12,-102.5"/>
</g>
<!-- 1990971508688&#45;&gt;1990971517424 -->
<g id="edge18" class="edge">
<title>1990971508688&#45;&gt;1990971517424</title>
<path fill="none" stroke="black" d="M1775.39,-27C1782.65,-27 1790.83,-27 1799.17,-27"/>
<polygon fill="black" stroke="black" points="1799.07,-30.5 1809.07,-27 1799.07,-23.5 1799.07,-30.5"/>
</g>
<!-- 1990977975216&#45;&gt;1990971511808 -->
<g id="edge22" class="edge">
<title>1990977975216&#45;&gt;1990971511808</title>
<path fill="none" stroke="black" d="M2001.06,-91.19C2008.76,-88.81 2017.61,-86.08 2026.7,-83.27"/>
<polygon fill="black" stroke="black" points="2027.47,-86.7 2035.99,-80.41 2025.4,-80.01 2027.47,-86.7"/>
</g>
<!-- 1990979482784&#45;&gt;1990971511808 -->
<g id="edge23" class="edge">
<title>1990979482784&#45;&gt;1990971511808</title>
<path fill="none" stroke="black" d="M2001.06,-34.81C2008.76,-37.19 2017.61,-39.92 2026.7,-42.73"/>
<polygon fill="black" stroke="black" points="2025.4,-45.99 2035.99,-45.59 2027.47,-39.3 2025.4,-45.99"/>
</g>
<!-- 1990971516656&#45;&gt;1990969425696 -->
<g id="edge25" class="edge">
<title>1990971516656&#45;&gt;1990969425696</title>
<path fill="none" stroke="black" d="M2238.46,-56.19C2246.17,-54.12 2254.93,-51.78 2263.68,-49.44"/>
<polygon fill="black" stroke="black" points="2264.46,-52.85 2273.21,-46.88 2262.65,-46.09 2264.46,-52.85"/>
</g>
<!-- 1990969424928&#45;&gt;1990979474048 -->
<g id="edge28" class="edge">
<title>1990969424928&#45;&gt;1990979474048</title>
<path fill="none" stroke="black" d="M2444.98,-35C2452.33,-35 2460.6,-35 2468.97,-35"/>
<polygon fill="black" stroke="black" points="2468.84,-38.5 2478.84,-35 2468.84,-31.5 2468.84,-38.5"/>
</g>
<!-- 1990969424928&#45;&gt;1990969412064 -->
<g id="edge27" class="edge">
<title>1990969424928&#45;&gt;1990969412064</title>
<path fill="none" stroke="black" d="M2442.3,-46.98C2453.1,-52.48 2466.28,-59.18 2478.91,-65.61"/>
<polygon fill="black" stroke="black" points="2477.02,-68.58 2487.52,-69.99 2480.2,-62.34 2477.02,-68.58"/>
</g>
<!-- 1990979471456&#45;&gt;1990979469824 -->
<g id="edge31" class="edge">
<title>1990979471456&#45;&gt;1990979469824</title>
<path fill="none" stroke="black" d="M2661.42,-35C2668.7,-35 2676.91,-35 2685.25,-35"/>
<polygon fill="black" stroke="black" points="2685.12,-38.5 2695.12,-35 2685.12,-31.5 2685.12,-38.5"/>
</g>
</g>
</svg>
