<?xml version="1.0" encoding="UTF-8" standalone="no"?>
<!DOCTYPE svg PUBLIC "-//W3C//DTD SVG 1.1//EN"
 "http://www.w3.org/Graphics/SVG/1.1/DTD/svg11.dtd">
<!-- Generated by graphviz version 11.0.0 (20240428.1522)
 -->
<!-- Title: imdf_net_1754051510.9465978 Pages: 1 -->
<svg width="2189pt" height="224pt"
 viewBox="0.00 0.00 2189.00 224.00" xmlns="http://www.w3.org/2000/svg" xmlns:xlink="http://www.w3.org/1999/xlink">
<g id="graph0" class="graph" transform="scale(1 1) rotate(0) translate(4 220)">
<title>imdf_net_1754051510.9465978</title>
<polygon fill="white" stroke="none" points="-4,4 -4,-220 2185,-220 2185,4 -4,4"/>
<!-- 1990978921120 -->
<g id="node1" class="node">
<title>1990978921120</title>
<polygon fill="white" stroke="black" points="159.25,-117 90,-117 90,-81 159.25,-81 159.25,-117"/>
<text text-anchor="middle" x="124.62" y="-93.97" font-family="Times New Roman,serif" font-size="12.00">Site Assess</text>
</g>
<!-- 1990978927312 -->
<g id="node18" class="node">
<title>1990978927312</title>
<ellipse fill="white" stroke="black" cx="222.25" cy="-99" rx="27" ry="27"/>
</g>
<!-- 1990978921120&#45;&gt;1990978927312 -->
<g id="edge2" class="edge">
<title>1990978921120&#45;&gt;1990978927312</title>
<path fill="none" stroke="black" d="M159.61,-99C167.31,-99 175.53,-99 183.38,-99"/>
<polygon fill="black" stroke="black" points="183.38,-102.5 193.38,-99 183.38,-95.5 183.38,-102.5"/>
</g>
<!-- 1990978925248 -->
<g id="node2" class="node">
<title>1990978925248</title>
<polygon fill="white" stroke="black" points="371.75,-117 285.25,-117 285.25,-81 371.75,-81 371.75,-117"/>
<text text-anchor="middle" x="328.5" y="-93.97" font-family="Times New Roman,serif" font-size="12.00">Design Layout</text>
</g>
<!-- 1990978919344 -->
<g id="node19" class="node">
<title>1990978919344</title>
<ellipse fill="white" stroke="black" cx="434.75" cy="-135" rx="27" ry="27"/>
</g>
<!-- 1990978925248&#45;&gt;1990978919344 -->
<g id="edge5" class="edge">
<title>1990978925248&#45;&gt;1990978919344</title>
<path fill="none" stroke="black" d="M372.2,-113.75C380.79,-116.71 389.72,-119.8 398.03,-122.67"/>
<polygon fill="black" stroke="black" points="396.87,-125.97 407.47,-125.92 399.16,-119.35 396.87,-125.97"/>
</g>
<!-- 1990978922704 -->
<g id="node20" class="node">
<title>1990978922704</title>
<ellipse fill="white" stroke="black" cx="434.75" cy="-63" rx="27" ry="27"/>
</g>
<!-- 1990978925248&#45;&gt;1990978922704 -->
<g id="edge4" class="edge">
<title>1990978925248&#45;&gt;1990978922704</title>
<path fill="none" stroke="black" d="M372.2,-84.25C380.79,-81.29 389.72,-78.2 398.03,-75.33"/>
<polygon fill="black" stroke="black" points="399.16,-78.65 407.47,-72.08 396.87,-72.03 399.16,-78.65"/>
</g>
<!-- 1990978913584 -->
<g id="node3" class="node">
<title>1990978913584</title>
<polygon fill="white" stroke="black" points="588.75,-81 497.75,-81 497.75,-45 588.75,-45 588.75,-81"/>
<text text-anchor="middle" x="543.25" y="-57.98" font-family="Times New Roman,serif" font-size="12.00">Material Source</text>
</g>
<!-- 1990977084240 -->
<g id="node21" class="node">
<title>1990977084240</title>
<ellipse fill="white" stroke="black" cx="651.75" cy="-63" rx="27" ry="27"/>
</g>
<!-- 1990978913584&#45;&gt;1990977084240 -->
<g id="edge8" class="edge">
<title>1990978913584&#45;&gt;1990977084240</title>
<path fill="none" stroke="black" d="M589.11,-63C597.11,-63 605.37,-63 613.15,-63"/>
<polygon fill="black" stroke="black" points="612.96,-66.5 622.96,-63 612.96,-59.5 612.96,-66.5"/>
</g>
<!-- 1990978914160 -->
<g id="node4" class="node">
<title>1990978914160</title>
<polygon fill="white" stroke="black" points="584.25,-153 502.25,-153 502.25,-117 584.25,-117 584.25,-153"/>
<text text-anchor="middle" x="543.25" y="-129.97" font-family="Times New Roman,serif" font-size="12.00">Permit Obtain</text>
</g>
<!-- 1990977086448 -->
<g id="node22" class="node">
<title>1990977086448</title>
<ellipse fill="white" stroke="black" cx="651.75" cy="-135" rx="27" ry="27"/>
</g>
<!-- 1990978914160&#45;&gt;1990977086448 -->
<g id="edge9" class="edge">
<title>1990978914160&#45;&gt;1990977086448</title>
<path fill="none" stroke="black" d="M584.51,-135C593.87,-135 603.8,-135 613.05,-135"/>
<polygon fill="black" stroke="black" points="612.78,-138.5 622.78,-135 612.78,-131.5 612.78,-138.5"/>
</g>
<!-- 1990978914448 -->
<g id="node5" class="node">
<title>1990978914448</title>
<polygon fill="white" stroke="black" points="796.75,-117 714.75,-117 714.75,-81 796.75,-81 796.75,-117"/>
<text text-anchor="middle" x="755.75" y="-93.97" font-family="Times New Roman,serif" font-size="12.00">System Install</text>
</g>
<!-- 1990980580608 -->
<g id="node23" class="node">
<title>1990980580608</title>
<ellipse fill="white" stroke="black" cx="859.75" cy="-171" rx="27" ry="27"/>
</g>
<!-- 1990978914448&#45;&gt;1990980580608 -->
<g id="edge14" class="edge">
<title>1990978914448&#45;&gt;1990980580608</title>
<path fill="none" stroke="black" d="M782.75,-117.35C796.6,-127.13 813.71,-139.21 828.19,-149.43"/>
<polygon fill="black" stroke="black" points="825.84,-152.06 836.03,-154.96 829.88,-146.34 825.84,-152.06"/>
</g>
<!-- 1990980571584 -->
<g id="node24" class="node">
<title>1990980571584</title>
<ellipse fill="white" stroke="black" cx="859.75" cy="-99" rx="27" ry="27"/>
</g>
<!-- 1990978914448&#45;&gt;1990980571584 -->
<g id="edge13" class="edge">
<title>1990978914448&#45;&gt;1990980571584</title>
<path fill="none" stroke="black" d="M797.06,-99C804.98,-99 813.25,-99 821.07,-99"/>
<polygon fill="black" stroke="black" points="820.98,-102.5 830.98,-99 820.98,-95.5 820.98,-102.5"/>
</g>
<!-- 1990980571632 -->
<g id="node25" class="node">
<title>1990980571632</title>
<ellipse fill="white" stroke="black" cx="859.75" cy="-27" rx="27" ry="27"/>
</g>
<!-- 1990978914448&#45;&gt;1990980571632 -->
<g id="edge12" class="edge">
<title>1990978914448&#45;&gt;1990980571632</title>
<path fill="none" stroke="black" d="M782.75,-80.65C796.6,-70.87 813.71,-58.79 828.19,-48.57"/>
<polygon fill="black" stroke="black" points="829.88,-51.66 836.03,-43.04 825.84,-45.94 829.88,-51.66"/>
</g>
<!-- 1990980574848 -->
<g id="node6" class="node">
<title>1990980574848</title>
<polygon fill="white" stroke="black" points="1015.62,-189 937.38,-189 937.38,-153 1015.62,-153 1015.62,-189"/>
<text text-anchor="middle" x="976.5" y="-165.97" font-family="Times New Roman,serif" font-size="12.00">Sensor Setup</text>
</g>
<!-- 1990977082272 -->
<g id="node26" class="node">
<title>1990977082272</title>
<ellipse fill="white" stroke="black" cx="1093.25" cy="-171" rx="27" ry="27"/>
</g>
<!-- 1990980574848&#45;&gt;1990977082272 -->
<g id="edge19" class="edge">
<title>1990980574848&#45;&gt;1990977082272</title>
<path fill="none" stroke="black" d="M1016.03,-171C1028.46,-171 1042.23,-171 1054.6,-171"/>
<polygon fill="black" stroke="black" points="1054.43,-174.5 1064.43,-171 1054.43,-167.5 1054.43,-174.5"/>
</g>
<!-- 1990980570336 -->
<g id="node7" class="node">
<title>1990980570336</title>
<polygon fill="white" stroke="black" points="1030.25,-45 922.75,-45 922.75,-9 1030.25,-9 1030.25,-45"/>
<text text-anchor="middle" x="976.5" y="-21.98" font-family="Times New Roman,serif" font-size="12.00">Lighting Configure</text>
</g>
<!-- 1990977083088 -->
<g id="node28" class="node">
<title>1990977083088</title>
<ellipse fill="white" stroke="black" cx="1093.25" cy="-27" rx="27" ry="27"/>
</g>
<!-- 1990980570336&#45;&gt;1990977083088 -->
<g id="edge18" class="edge">
<title>1990980570336&#45;&gt;1990977083088</title>
<path fill="none" stroke="black" d="M1030.51,-27C1038.7,-27 1047.01,-27 1054.76,-27"/>
<polygon fill="black" stroke="black" points="1054.51,-30.5 1064.51,-27 1054.51,-23.5 1054.51,-30.5"/>
</g>
<!-- 1990980570096 -->
<g id="node8" class="node">
<title>1990980570096</title>
<polygon fill="white" stroke="black" points="1025.75,-117 927.25,-117 927.25,-81 1025.75,-81 1025.75,-117"/>
<text text-anchor="middle" x="976.5" y="-93.97" font-family="Times New Roman,serif" font-size="12.00">Nutrient Program</text>
</g>
<!-- 1990977085248 -->
<g id="node27" class="node">
<title>1990977085248</title>
<ellipse fill="white" stroke="black" cx="1093.25" cy="-99" rx="27" ry="27"/>
</g>
<!-- 1990980570096&#45;&gt;1990977085248 -->
<g id="edge20" class="edge">
<title>1990980570096&#45;&gt;1990977085248</title>
<path fill="none" stroke="black" d="M1026.16,-99C1035.68,-99 1045.52,-99 1054.61,-99"/>
<polygon fill="black" stroke="black" points="1054.52,-102.5 1064.52,-99 1054.52,-95.5 1054.52,-102.5"/>
</g>
<!-- 1990980572544 -->
<g id="node9" class="node">
<title>1990980572544</title>
<polygon fill="white" stroke="black" points="1223.25,-117 1156.25,-117 1156.25,-81 1223.25,-81 1223.25,-117"/>
<text text-anchor="middle" x="1189.75" y="-93.97" font-family="Times New Roman,serif" font-size="12.00">Staff Train</text>
</g>
<!-- 1990980366320 -->
<g id="node29" class="node">
<title>1990980366320</title>
<ellipse fill="white" stroke="black" cx="1286.25" cy="-99" rx="27" ry="27"/>
</g>
<!-- 1990980572544&#45;&gt;1990980366320 -->
<g id="edge24" class="edge">
<title>1990980572544&#45;&gt;1990980366320</title>
<path fill="none" stroke="black" d="M1223.54,-99C1231.27,-99 1239.58,-99 1247.52,-99"/>
<polygon fill="black" stroke="black" points="1247.25,-102.5 1257.25,-99 1247.25,-95.5 1247.25,-102.5"/>
</g>
<!-- 1990980364400 -->
<g id="node10" class="node">
<title>1990980364400</title>
<polygon fill="white" stroke="black" points="1431.25,-117 1349.25,-117 1349.25,-81 1431.25,-81 1431.25,-117"/>
<text text-anchor="middle" x="1390.25" y="-93.97" font-family="Times New Roman,serif" font-size="12.00">Crop Planting</text>
</g>
<!-- 1990979848192 -->
<g id="node30" class="node">
<title>1990979848192</title>
<ellipse fill="white" stroke="black" cx="1494.25" cy="-171" rx="27" ry="27"/>
</g>
<!-- 1990980364400&#45;&gt;1990979848192 -->
<g id="edge26" class="edge">
<title>1990980364400&#45;&gt;1990979848192</title>
<path fill="none" stroke="black" d="M1417.25,-117.35C1431.1,-127.13 1448.21,-139.21 1462.69,-149.43"/>
<polygon fill="black" stroke="black" points="1460.34,-152.06 1470.53,-154.96 1464.38,-146.34 1460.34,-152.06"/>
</g>
<!-- 1990979847184 -->
<g id="node31" class="node">
<title>1990979847184</title>
<ellipse fill="white" stroke="black" cx="1494.25" cy="-99" rx="27" ry="27"/>
</g>
<!-- 1990980364400&#45;&gt;1990979847184 -->
<g id="edge27" class="edge">
<title>1990980364400&#45;&gt;1990979847184</title>
<path fill="none" stroke="black" d="M1431.56,-99C1439.48,-99 1447.75,-99 1455.57,-99"/>
<polygon fill="black" stroke="black" points="1455.48,-102.5 1465.48,-99 1455.48,-95.5 1455.48,-102.5"/>
</g>
<!-- 1990980357296 -->
<g id="node32" class="node">
<title>1990980357296</title>
<ellipse fill="white" stroke="black" cx="1494.25" cy="-27" rx="27" ry="27"/>
</g>
<!-- 1990980364400&#45;&gt;1990980357296 -->
<g id="edge28" class="edge">
<title>1990980364400&#45;&gt;1990980357296</title>
<path fill="none" stroke="black" d="M1417.25,-80.65C1431.1,-70.87 1448.21,-58.79 1462.69,-48.57"/>
<polygon fill="black" stroke="black" points="1464.38,-51.66 1470.53,-43.04 1460.34,-45.94 1464.38,-51.66"/>
</g>
<!-- 1990978925872 -->
<g id="node11" class="node">
<title>1990978925872</title>
<polygon fill="white" stroke="black" points="1646.38,-180 1566.62,-180 1566.62,-144 1646.38,-144 1646.38,-180"/>
<text text-anchor="middle" x="1606.5" y="-156.97" font-family="Times New Roman,serif" font-size="12.00">Data Monitor</text>
</g>
<!-- 1990978922944 -->
<g id="node34" class="node">
<title>1990978922944</title>
<ellipse fill="white" stroke="black" cx="1718.75" cy="-153" rx="27" ry="27"/>
</g>
<!-- 1990978925872&#45;&gt;1990978922944 -->
<g id="edge32" class="edge">
<title>1990978925872&#45;&gt;1990978922944</title>
<path fill="none" stroke="black" d="M1646.68,-158.8C1657.59,-157.91 1669.41,-156.95 1680.22,-156.06"/>
<polygon fill="black" stroke="black" points="1680.27,-159.57 1689.96,-155.27 1679.7,-152.59 1680.27,-159.57"/>
</g>
<!-- 1990980360416 -->
<g id="node12" class="node">
<title>1990980360416</title>
<polygon fill="white" stroke="black" points="1650.88,-49 1562.12,-49 1562.12,-13 1650.88,-13 1650.88,-49"/>
<text text-anchor="middle" x="1606.5" y="-25.98" font-family="Times New Roman,serif" font-size="12.00">Market Launch</text>
</g>
<!-- 1990980361472 -->
<g id="node33" class="node">
<title>1990980361472</title>
<ellipse fill="white" stroke="black" cx="1943.25" cy="-33" rx="27" ry="27"/>
</g>
<!-- 1990980360416&#45;&gt;1990980361472 -->
<g id="edge34" class="edge">
<title>1990980360416&#45;&gt;1990980361472</title>
<path fill="none" stroke="black" d="M1651.26,-31.26C1717.53,-31.66 1842.19,-32.4 1904.62,-32.78"/>
<polygon fill="black" stroke="black" points="1904.35,-36.27 1914.37,-32.83 1904.39,-29.27 1904.35,-36.27"/>
</g>
<!-- 1990979856112 -->
<g id="node13" class="node">
<title>1990979856112</title>
<polygon fill="white" stroke="black" points="1655.75,-117 1557.25,-117 1557.25,-81 1655.75,-81 1655.75,-117"/>
<text text-anchor="middle" x="1606.5" y="-93.97" font-family="Times New Roman,serif" font-size="12.00">Partnership Build</text>
</g>
<!-- 1990980368240 -->
<g id="node35" class="node">
<title>1990980368240</title>
<ellipse fill="white" stroke="black" cx="1831" cy="-97" rx="27" ry="27"/>
</g>
<!-- 1990979856112&#45;&gt;1990980368240 -->
<g id="edge33" class="edge">
<title>1990979856112&#45;&gt;1990980368240</title>
<path fill="none" stroke="black" d="M1656.05,-98.56C1697.01,-98.2 1754.81,-97.68 1792.34,-97.34"/>
<polygon fill="black" stroke="black" points="1792.29,-100.84 1802.25,-97.25 1792.22,-93.84 1792.29,-100.84"/>
</g>
<!-- 1990978912912 -->
<g id="node14" class="node">
<title>1990978912912</title>
<polygon fill="white" stroke="black" points="1880.25,-178 1781.75,-178 1781.75,-142 1880.25,-142 1880.25,-178"/>
<text text-anchor="middle" x="1831" y="-154.97" font-family="Times New Roman,serif" font-size="12.00">Feedback Collect</text>
</g>
<!-- 1990976166832 -->
<g id="node36" class="node">
<title>1990976166832</title>
<ellipse fill="white" stroke="black" cx="1943.25" cy="-160" rx="27" ry="27"/>
</g>
<!-- 1990978912912&#45;&gt;1990976166832 -->
<g id="edge38" class="edge">
<title>1990978912912&#45;&gt;1990976166832</title>
<path fill="none" stroke="black" d="M1880.68,-160C1888.63,-160 1896.76,-160 1904.4,-160"/>
<polygon fill="black" stroke="black" points="1904.39,-163.5 1914.39,-160 1904.39,-156.5 1904.39,-163.5"/>
</g>
<!-- 1990978915888 -->
<g id="node15" class="node">
<title>1990978915888</title>
<polygon fill="black" stroke="black" points="2071.62,-115 2017.62,-115 2017.62,-79 2071.62,-79 2071.62,-115"/>
</g>
<!-- 1990976890128 -->
<g id="node37" class="node">
<title>1990976890128</title>
<ellipse fill="white" stroke="black" cx="2150" cy="-97" rx="27" ry="27"/>
<ellipse fill="none" stroke="black" cx="2150" cy="-97" rx="31" ry="31"/>
<text text-anchor="start" x="2133.5" y="-81.6" font-family="Times New Roman,serif" font-size="32.00">■</text>
</g>
<!-- 1990978915888&#45;&gt;1990976890128 -->
<g id="edge39" class="edge">
<title>1990978915888&#45;&gt;1990976890128</title>
<path fill="none" stroke="black" d="M2071.98,-97C2082.77,-97 2095.51,-97 2107.5,-97"/>
<polygon fill="black" stroke="black" points="2107.15,-100.5 2117.15,-97 2107.15,-93.5 2107.15,-100.5"/>
</g>
<!-- 1990978915312 -->
<g id="node16" class="node">
<title>1990978915312</title>
<polygon fill="white" stroke="black" points="2083,-205 2006.25,-205 2006.25,-169 2083,-169 2083,-205"/>
<text text-anchor="middle" x="2044.62" y="-181.97" font-family="Times New Roman,serif" font-size="12.00">Yield Adjust</text>
</g>
<!-- 1990978915312&#45;&gt;1990979848192 -->
<g id="edge42" class="edge">
<title>1990978915312&#45;&gt;1990979848192</title>
<path fill="none" stroke="black" d="M2005.99,-195.31C1963.84,-203.88 1893.37,-216 1832,-216 1717.75,-216 1717.75,-216 1717.75,-216 1650.82,-216 1574.78,-196.2 1531.16,-182.86"/>
<polygon fill="black" stroke="black" points="1532.31,-179.56 1521.72,-179.92 1530.22,-186.24 1532.31,-179.56"/>
</g>
<!-- 1990976883696 -->
<g id="node17" class="node">
<title>1990976883696</title>
<ellipse fill="white" stroke="black" cx="27" cy="-99" rx="27" ry="27"/>
<text text-anchor="start" x="9.75" y="-81.7" font-family="Times New Roman,serif" font-size="34.00">●</text>
</g>
<!-- 1990976883696&#45;&gt;1990978921120 -->
<g id="edge1" class="edge">
<title>1990976883696&#45;&gt;1990978921120</title>
<path fill="none" stroke="black" d="M54.38,-99C61.82,-99 70.14,-99 78.35,-99"/>
<polygon fill="black" stroke="black" points="78.28,-102.5 88.28,-99 78.28,-95.5 78.28,-102.5"/>
</g>
<!-- 1990978927312&#45;&gt;1990978925248 -->
<g id="edge3" class="edge">
<title>1990978927312&#45;&gt;1990978925248</title>
<path fill="none" stroke="black" d="M249.56,-99C256.94,-99 265.24,-99 273.61,-99"/>
<polygon fill="black" stroke="black" points="273.46,-102.5 283.46,-99 273.46,-95.5 273.46,-102.5"/>
</g>
<!-- 1990978919344&#45;&gt;1990978914160 -->
<g id="edge7" class="edge">
<title>1990978919344&#45;&gt;1990978914160</title>
<path fill="none" stroke="black" d="M462.08,-135C470.75,-135 480.73,-135 490.62,-135"/>
<polygon fill="black" stroke="black" points="490.61,-138.5 500.61,-135 490.61,-131.5 490.61,-138.5"/>
</g>
<!-- 1990978922704&#45;&gt;1990978913584 -->
<g id="edge6" class="edge">
<title>1990978922704&#45;&gt;1990978913584</title>
<path fill="none" stroke="black" d="M462.08,-63C469.44,-63 477.75,-63 486.14,-63"/>
<polygon fill="black" stroke="black" points="486.06,-66.5 496.06,-63 486.06,-59.5 486.06,-66.5"/>
</g>
<!-- 1990977084240&#45;&gt;1990978914448 -->
<g id="edge11" class="edge">
<title>1990977084240&#45;&gt;1990978914448</title>
<path fill="none" stroke="black" d="M677.7,-71.81C685.67,-74.62 694.8,-77.84 703.92,-81.06"/>
<polygon fill="black" stroke="black" points="702.54,-84.28 713.13,-84.31 704.87,-77.68 702.54,-84.28"/>
</g>
<!-- 1990977086448&#45;&gt;1990978914448 -->
<g id="edge10" class="edge">
<title>1990977086448&#45;&gt;1990978914448</title>
<path fill="none" stroke="black" d="M677.7,-126.19C685.67,-123.38 694.8,-120.16 703.92,-116.94"/>
<polygon fill="black" stroke="black" points="704.87,-120.32 713.13,-113.69 702.54,-113.72 704.87,-120.32"/>
</g>
<!-- 1990980580608&#45;&gt;1990980574848 -->
<g id="edge16" class="edge">
<title>1990980580608&#45;&gt;1990980574848</title>
<path fill="none" stroke="black" d="M887.08,-171C898.54,-171 912.37,-171 925.65,-171"/>
<polygon fill="black" stroke="black" points="925.6,-174.5 935.6,-171 925.6,-167.5 925.6,-174.5"/>
</g>
<!-- 1990980571584&#45;&gt;1990980570096 -->
<g id="edge17" class="edge">
<title>1990980571584&#45;&gt;1990980570096</title>
<path fill="none" stroke="black" d="M887.08,-99C895.73,-99 905.73,-99 915.83,-99"/>
<polygon fill="black" stroke="black" points="915.69,-102.5 925.69,-99 915.69,-95.5 915.69,-102.5"/>
</g>
<!-- 1990980571632&#45;&gt;1990980570336 -->
<g id="edge15" class="edge">
<title>1990980571632&#45;&gt;1990980570336</title>
<path fill="none" stroke="black" d="M887.08,-27C894.44,-27 902.77,-27 911.32,-27"/>
<polygon fill="black" stroke="black" points="911.08,-30.5 921.08,-27 911.08,-23.5 911.08,-30.5"/>
</g>
<!-- 1990977082272&#45;&gt;1990980572544 -->
<g id="edge22" class="edge">
<title>1990977082272&#45;&gt;1990980572544</title>
<path fill="none" stroke="black" d="M1115.22,-155.02C1127.06,-146 1142.13,-134.52 1155.54,-124.3"/>
<polygon fill="black" stroke="black" points="1157.46,-127.24 1163.29,-118.39 1153.22,-121.67 1157.46,-127.24"/>
</g>
<!-- 1990977085248&#45;&gt;1990980572544 -->
<g id="edge23" class="edge">
<title>1990977085248&#45;&gt;1990980572544</title>
<path fill="none" stroke="black" d="M1120.57,-99C1128,-99 1136.29,-99 1144.45,-99"/>
<polygon fill="black" stroke="black" points="1144.31,-102.5 1154.31,-99 1144.31,-95.5 1144.31,-102.5"/>
</g>
<!-- 1990977083088&#45;&gt;1990980572544 -->
<g id="edge21" class="edge">
<title>1990977083088&#45;&gt;1990980572544</title>
<path fill="none" stroke="black" d="M1115.22,-42.98C1127.06,-52 1142.13,-63.48 1155.54,-73.7"/>
<polygon fill="black" stroke="black" points="1153.22,-76.33 1163.29,-79.61 1157.46,-70.76 1153.22,-76.33"/>
</g>
<!-- 1990980366320&#45;&gt;1990980364400 -->
<g id="edge25" class="edge">
<title>1990980366320&#45;&gt;1990980364400</title>
<path fill="none" stroke="black" d="M1313.52,-99C1320.9,-99 1329.2,-99 1337.53,-99"/>
<polygon fill="black" stroke="black" points="1337.3,-102.5 1347.3,-99 1337.3,-95.5 1337.3,-102.5"/>
</g>
<!-- 1990979848192&#45;&gt;1990978925872 -->
<g id="edge30" class="edge">
<title>1990979848192&#45;&gt;1990978925872</title>
<path fill="none" stroke="black" d="M1521.66,-168.84C1531.69,-168.03 1543.49,-167.06 1555.01,-166.12"/>
<polygon fill="black" stroke="black" points="1555.17,-169.62 1564.86,-165.32 1554.6,-162.64 1555.17,-169.62"/>
</g>
<!-- 1990979847184&#45;&gt;1990979856112 -->
<g id="edge29" class="edge">
<title>1990979847184&#45;&gt;1990979856112</title>
<path fill="none" stroke="black" d="M1521.66,-99C1528.93,-99 1537.12,-99 1545.47,-99"/>
<polygon fill="black" stroke="black" points="1545.36,-102.5 1555.36,-99 1545.36,-95.5 1545.36,-102.5"/>
</g>
<!-- 1990980357296&#45;&gt;1990980360416 -->
<g id="edge31" class="edge">
<title>1990980357296&#45;&gt;1990980360416</title>
<path fill="none" stroke="black" d="M1521.66,-27.96C1530.36,-28.27 1540.39,-28.64 1550.41,-29"/>
<polygon fill="black" stroke="black" points="1550.02,-32.49 1560.14,-29.35 1550.28,-25.49 1550.02,-32.49"/>
</g>
<!-- 1990980361472&#45;&gt;1990978915888 -->
<g id="edge36" class="edge">
<title>1990980361472&#45;&gt;1990978915888</title>
<path fill="none" stroke="black" d="M1966.3,-47.2C1978.57,-55.1 1994.13,-65.12 2008.07,-74.1"/>
<polygon fill="black" stroke="black" points="2005.83,-76.82 2016.13,-79.29 2009.62,-70.93 2005.83,-76.82"/>
</g>
<!-- 1990978922944&#45;&gt;1990978912912 -->
<g id="edge37" class="edge">
<title>1990978922944&#45;&gt;1990978912912</title>
<path fill="none" stroke="black" d="M1746.16,-154.68C1753.43,-155.14 1761.62,-155.66 1769.97,-156.19"/>
<polygon fill="black" stroke="black" points="1769.66,-159.68 1779.86,-156.82 1770.1,-152.69 1769.66,-159.68"/>
</g>
<!-- 1990980368240&#45;&gt;1990978915888 -->
<g id="edge35" class="edge">
<title>1990980368240&#45;&gt;1990978915888</title>
<path fill="none" stroke="black" d="M1858.37,-97C1895.54,-97 1963.53,-97 2006,-97"/>
<polygon fill="black" stroke="black" points="2005.74,-100.5 2015.74,-97 2005.74,-93.5 2005.74,-100.5"/>
</g>
<!-- 1990976166832&#45;&gt;1990978915888 -->
<g id="edge40" class="edge">
<title>1990976166832&#45;&gt;1990978915888</title>
<path fill="none" stroke="black" d="M1966.3,-146.02C1978.57,-138.24 1994.13,-128.38 2008.07,-119.54"/>
<polygon fill="black" stroke="black" points="2009.55,-122.75 2016.12,-114.44 2005.8,-116.83 2009.55,-122.75"/>
</g>
<!-- 1990976166832&#45;&gt;1990978915312 -->
<g id="edge41" class="edge">
<title>1990976166832&#45;&gt;1990978915312</title>
<path fill="none" stroke="black" d="M1969.84,-166.95C1977.61,-169.06 1986.4,-171.45 1995.15,-173.83"/>
<polygon fill="black" stroke="black" points="1994.1,-177.17 2004.67,-176.41 1995.93,-170.42 1994.1,-177.17"/>
</g>
</g>
</svg>
