<?xml version="1.0" encoding="UTF-8" standalone="no"?>
<!DOCTYPE svg PUBLIC "-//W3C//DTD SVG 1.1//EN"
 "http://www.w3.org/Graphics/SVG/1.1/DTD/svg11.dtd">
<!-- Generated by graphviz version 11.0.0 (20240428.1522)
 -->
<!-- Title: imdf_net_1754051501.9976678 Pages: 1 -->
<svg width="3295pt" height="206pt"
 viewBox="0.00 0.00 3294.75 206.00" xmlns="http://www.w3.org/2000/svg" xmlns:xlink="http://www.w3.org/1999/xlink">
<g id="graph0" class="graph" transform="scale(1 1) rotate(0) translate(4 202)">
<title>imdf_net_1754051501.9976678</title>
<polygon fill="white" stroke="none" points="-4,4 -4,-202 3290.75,-202 3290.75,4 -4,4"/>
<!-- 1990981881440 -->
<g id="node1" class="node">
<title>1990981881440</title>
<polygon fill="black" stroke="black" points="144,-117 90,-117 90,-81 144,-81 144,-117"/>
</g>
<!-- 1990969799456 -->
<g id="node20" class="node">
<title>1990969799456</title>
<ellipse fill="white" stroke="black" cx="207" cy="-135" rx="27" ry="27"/>
</g>
<!-- 1990981881440&#45;&gt;1990969799456 -->
<g id="edge3" class="edge">
<title>1990981881440&#45;&gt;1990969799456</title>
<path fill="none" stroke="black" d="M144.4,-109.8C152.75,-113.22 162.12,-117.05 170.97,-120.67"/>
<polygon fill="black" stroke="black" points="169.44,-123.83 180.02,-124.37 172.09,-117.35 169.44,-123.83"/>
</g>
<!-- 1990969789664 -->
<g id="node21" class="node">
<title>1990969789664</title>
<ellipse fill="white" stroke="black" cx="207" cy="-63" rx="27" ry="27"/>
</g>
<!-- 1990981881440&#45;&gt;1990969789664 -->
<g id="edge2" class="edge">
<title>1990981881440&#45;&gt;1990969789664</title>
<path fill="none" stroke="black" d="M144.4,-88.2C152.75,-84.78 162.12,-80.95 170.97,-77.33"/>
<polygon fill="black" stroke="black" points="172.09,-80.65 180.02,-73.63 169.44,-74.17 172.09,-80.65"/>
</g>
<!-- 1990975756080 -->
<g id="node2" class="node">
<title>1990975756080</title>
<polygon fill="white" stroke="black" points="361.75,-153 270,-153 270,-117 361.75,-117 361.75,-153"/>
<text text-anchor="middle" x="315.88" y="-129.97" font-family="Times New Roman,serif" font-size="12.00">Structural Audit</text>
</g>
<!-- 1990976168752 -->
<g id="node23" class="node">
<title>1990976168752</title>
<ellipse fill="white" stroke="black" cx="424.75" cy="-135" rx="27" ry="27"/>
</g>
<!-- 1990975756080&#45;&gt;1990976168752 -->
<g id="edge6" class="edge">
<title>1990975756080&#45;&gt;1990976168752</title>
<path fill="none" stroke="black" d="M362.2,-135C370.21,-135 378.47,-135 386.23,-135"/>
<polygon fill="black" stroke="black" points="386.03,-138.5 396.03,-135 386.03,-131.5 386.03,-138.5"/>
</g>
<!-- 1990969789904 -->
<g id="node3" class="node">
<title>1990969789904</title>
<polygon fill="white" stroke="black" points="351.25,-81 280.5,-81 280.5,-45 351.25,-45 351.25,-81"/>
<text text-anchor="middle" x="315.88" y="-57.98" font-family="Times New Roman,serif" font-size="12.00">Site Survey</text>
</g>
<!-- 1990976167456 -->
<g id="node22" class="node">
<title>1990976167456</title>
<ellipse fill="white" stroke="black" cx="424.75" cy="-63" rx="27" ry="27"/>
</g>
<!-- 1990969789904&#45;&gt;1990976167456 -->
<g id="edge7" class="edge">
<title>1990969789904&#45;&gt;1990976167456</title>
<path fill="none" stroke="black" d="M351.57,-63C362.61,-63 374.87,-63 386.11,-63"/>
<polygon fill="black" stroke="black" points="385.84,-66.5 395.84,-63 385.84,-59.5 385.84,-66.5"/>
</g>
<!-- 1990975757424 -->
<g id="node4" class="node">
<title>1990975757424</title>
<polygon fill="white" stroke="black" points="574.25,-117 487.75,-117 487.75,-81 574.25,-81 574.25,-117"/>
<text text-anchor="middle" x="531" y="-93.97" font-family="Times New Roman,serif" font-size="12.00">Layout Design</text>
</g>
<!-- 1990975758336 -->
<g id="node24" class="node">
<title>1990975758336</title>
<ellipse fill="white" stroke="black" cx="637.25" cy="-171" rx="27" ry="27"/>
</g>
<!-- 1990975757424&#45;&gt;1990975758336 -->
<g id="edge11" class="edge">
<title>1990975757424&#45;&gt;1990975758336</title>
<path fill="none" stroke="black" d="M558.58,-117.35C572.83,-127.2 590.47,-139.38 605.33,-149.64"/>
<polygon fill="black" stroke="black" points="603.17,-152.41 613.39,-155.21 607.15,-146.65 603.17,-152.41"/>
</g>
<!-- 1990975751952 -->
<g id="node25" class="node">
<title>1990975751952</title>
<ellipse fill="white" stroke="black" cx="637.25" cy="-99" rx="27" ry="27"/>
</g>
<!-- 1990975757424&#45;&gt;1990975751952 -->
<g id="edge12" class="edge">
<title>1990975757424&#45;&gt;1990975751952</title>
<path fill="none" stroke="black" d="M574.7,-99C582.62,-99 590.84,-99 598.59,-99"/>
<polygon fill="black" stroke="black" points="598.39,-102.5 608.39,-99 598.39,-95.5 598.39,-102.5"/>
</g>
<!-- 1990975760880 -->
<g id="node26" class="node">
<title>1990975760880</title>
<ellipse fill="white" stroke="black" cx="637.25" cy="-27" rx="27" ry="27"/>
</g>
<!-- 1990975757424&#45;&gt;1990975760880 -->
<g id="edge10" class="edge">
<title>1990975757424&#45;&gt;1990975760880</title>
<path fill="none" stroke="black" d="M558.58,-80.65C572.83,-70.8 590.47,-58.62 605.33,-48.36"/>
<polygon fill="black" stroke="black" points="607.15,-51.35 613.39,-42.79 603.17,-45.59 607.15,-51.35"/>
</g>
<!-- 1990975761024 -->
<g id="node5" class="node">
<title>1990975761024</title>
<polygon fill="white" stroke="black" points="788.25,-189 700.25,-189 700.25,-153 788.25,-153 788.25,-189"/>
<text text-anchor="middle" x="744.25" y="-165.97" font-family="Times New Roman,serif" font-size="12.00">Lighting Install</text>
</g>
<!-- 1990976174128 -->
<g id="node28" class="node">
<title>1990976174128</title>
<ellipse fill="white" stroke="black" cx="851.25" cy="-171" rx="27" ry="27"/>
</g>
<!-- 1990975761024&#45;&gt;1990976174128 -->
<g id="edge16" class="edge">
<title>1990975761024&#45;&gt;1990976174128</title>
<path fill="none" stroke="black" d="M788.56,-171C796.52,-171 804.76,-171 812.53,-171"/>
<polygon fill="black" stroke="black" points="812.35,-174.5 822.35,-171 812.35,-167.5 812.35,-174.5"/>
</g>
<!-- 1990975762752 -->
<g id="node6" class="node">
<title>1990975762752</title>
<polygon fill="white" stroke="black" points="785.62,-117 702.88,-117 702.88,-81 785.62,-81 785.62,-117"/>
<text text-anchor="middle" x="744.25" y="-93.97" font-family="Times New Roman,serif" font-size="12.00">Climate Setup</text>
</g>
<!-- 1990976162944 -->
<g id="node27" class="node">
<title>1990976162944</title>
<ellipse fill="white" stroke="black" cx="851.25" cy="-99" rx="27" ry="27"/>
</g>
<!-- 1990975762752&#45;&gt;1990976162944 -->
<g id="edge18" class="edge">
<title>1990975762752&#45;&gt;1990976162944</title>
<path fill="none" stroke="black" d="M785.85,-99C794.65,-99 803.93,-99 812.62,-99"/>
<polygon fill="black" stroke="black" points="812.49,-102.5 822.49,-99 812.49,-95.5 812.49,-102.5"/>
</g>
<!-- 1990975754064 -->
<g id="node7" class="node">
<title>1990975754064</title>
<polygon fill="white" stroke="black" points="786,-45 702.5,-45 702.5,-9 786,-9 786,-45"/>
<text text-anchor="middle" x="744.25" y="-21.98" font-family="Times New Roman,serif" font-size="12.00">Irrigation Plan</text>
</g>
<!-- 1990976163760 -->
<g id="node29" class="node">
<title>1990976163760</title>
<ellipse fill="white" stroke="black" cx="851.25" cy="-27" rx="27" ry="27"/>
</g>
<!-- 1990975754064&#45;&gt;1990976163760 -->
<g id="edge17" class="edge">
<title>1990975754064&#45;&gt;1990976163760</title>
<path fill="none" stroke="black" d="M786.45,-27C795.04,-27 804.05,-27 812.51,-27"/>
<polygon fill="black" stroke="black" points="812.48,-30.5 822.48,-27 812.48,-23.5 812.48,-30.5"/>
</g>
<!-- 1990981403904 -->
<g id="node8" class="node">
<title>1990981403904</title>
<polygon fill="white" stroke="black" points="1000.75,-117 914.25,-117 914.25,-81 1000.75,-81 1000.75,-117"/>
<text text-anchor="middle" x="957.5" y="-93.97" font-family="Times New Roman,serif" font-size="12.00">Crop Selection</text>
</g>
<!-- 1990971347488 -->
<g id="node30" class="node">
<title>1990971347488</title>
<ellipse fill="white" stroke="black" cx="1063.75" cy="-99" rx="27" ry="27"/>
</g>
<!-- 1990981403904&#45;&gt;1990971347488 -->
<g id="edge22" class="edge">
<title>1990981403904&#45;&gt;1990971347488</title>
<path fill="none" stroke="black" d="M1001.2,-99C1009.12,-99 1017.34,-99 1025.09,-99"/>
<polygon fill="black" stroke="black" points="1024.89,-102.5 1034.89,-99 1024.89,-95.5 1024.89,-102.5"/>
</g>
<!-- 1990978400672 -->
<g id="node9" class="node">
<title>1990978400672</title>
<polygon fill="white" stroke="black" points="1228.25,-117 1126.75,-117 1126.75,-81 1228.25,-81 1228.25,-117"/>
<text text-anchor="middle" x="1177.5" y="-93.97" font-family="Times New Roman,serif" font-size="12.00">Regulation Check</text>
</g>
<!-- 1990971755168 -->
<g id="node31" class="node">
<title>1990971755168</title>
<ellipse fill="white" stroke="black" cx="1291.25" cy="-99" rx="27" ry="27"/>
</g>
<!-- 1990978400672&#45;&gt;1990971755168 -->
<g id="edge24" class="edge">
<title>1990978400672&#45;&gt;1990971755168</title>
<path fill="none" stroke="black" d="M1228.49,-99C1236.6,-99 1244.87,-99 1252.61,-99"/>
<polygon fill="black" stroke="black" points="1252.36,-102.5 1262.36,-99 1252.36,-95.5 1252.36,-102.5"/>
</g>
<!-- 1990971756176 -->
<g id="node10" class="node">
<title>1990971756176</title>
<polygon fill="white" stroke="black" points="1433.25,-117 1354.25,-117 1354.25,-81 1433.25,-81 1433.25,-117"/>
<text text-anchor="middle" x="1393.75" y="-93.97" font-family="Times New Roman,serif" font-size="12.00">Seed Sowing</text>
</g>
<!-- 1990971754544 -->
<g id="node32" class="node">
<title>1990971754544</title>
<ellipse fill="white" stroke="black" cx="1496.25" cy="-99" rx="27" ry="27"/>
</g>
<!-- 1990971756176&#45;&gt;1990971754544 -->
<g id="edge26" class="edge">
<title>1990971756176&#45;&gt;1990971754544</title>
<path fill="none" stroke="black" d="M1433.61,-99C1441.46,-99 1449.7,-99 1457.51,-99"/>
<polygon fill="black" stroke="black" points="1457.41,-102.5 1467.41,-99 1457.41,-95.5 1457.41,-102.5"/>
</g>
<!-- 1990971766592 -->
<g id="node11" class="node">
<title>1990971766592</title>
<polygon fill="white" stroke="black" points="1633.75,-117 1559.25,-117 1559.25,-81 1633.75,-81 1633.75,-117"/>
<text text-anchor="middle" x="1596.5" y="-93.97" font-family="Times New Roman,serif" font-size="12.00">Pest Control</text>
</g>
<!-- 1990971764288 -->
<g id="node33" class="node">
<title>1990971764288</title>
<ellipse fill="white" stroke="black" cx="1696.75" cy="-99" rx="27" ry="27"/>
</g>
<!-- 1990971766592&#45;&gt;1990971764288 -->
<g id="edge28" class="edge">
<title>1990971766592&#45;&gt;1990971764288</title>
<path fill="none" stroke="black" d="M1634.08,-99C1641.84,-99 1650.04,-99 1657.84,-99"/>
<polygon fill="black" stroke="black" points="1657.75,-102.5 1667.75,-99 1657.75,-95.5 1657.75,-102.5"/>
</g>
<!-- 1990971760640 -->
<g id="node12" class="node">
<title>1990971760640</title>
<polygon fill="white" stroke="black" points="1837.25,-117 1759.75,-117 1759.75,-81 1837.25,-81 1837.25,-117"/>
<text text-anchor="middle" x="1798.5" y="-93.97" font-family="Times New Roman,serif" font-size="12.00">Nutrient Mix</text>
</g>
<!-- 1990971756800 -->
<g id="node34" class="node">
<title>1990971756800</title>
<ellipse fill="white" stroke="black" cx="1900.25" cy="-99" rx="27" ry="27"/>
</g>
<!-- 1990971760640&#45;&gt;1990971756800 -->
<g id="edge30" class="edge">
<title>1990971760640&#45;&gt;1990971756800</title>
<path fill="none" stroke="black" d="M1837.5,-99C1845.32,-99 1853.56,-99 1861.38,-99"/>
<polygon fill="black" stroke="black" points="1861.3,-102.5 1871.3,-99 1861.3,-95.5 1861.3,-102.5"/>
</g>
<!-- 1990971758480 -->
<g id="node13" class="node">
<title>1990971758480</title>
<polygon fill="white" stroke="black" points="2071.5,-117 1963.25,-117 1963.25,-81 2071.5,-81 2071.5,-117"/>
<text text-anchor="middle" x="2017.38" y="-93.97" font-family="Times New Roman,serif" font-size="12.00">Automation Config</text>
</g>
<!-- 1990971759728 -->
<g id="node35" class="node">
<title>1990971759728</title>
<ellipse fill="white" stroke="black" cx="2134.5" cy="-99" rx="27" ry="27"/>
</g>
<!-- 1990971758480&#45;&gt;1990971759728 -->
<g id="edge32" class="edge">
<title>1990971758480&#45;&gt;1990971759728</title>
<path fill="none" stroke="black" d="M2071.89,-99C2079.91,-99 2088.03,-99 2095.63,-99"/>
<polygon fill="black" stroke="black" points="2095.54,-102.5 2105.54,-99 2095.54,-95.5 2095.54,-102.5"/>
</g>
<!-- 1990971753056 -->
<g id="node14" class="node">
<title>1990971753056</title>
<polygon fill="white" stroke="black" points="2278,-117 2197.5,-117 2197.5,-81 2278,-81 2278,-117"/>
<text text-anchor="middle" x="2237.75" y="-93.97" font-family="Times New Roman,serif" font-size="12.00">Energy Audit</text>
</g>
<!-- 1990971757472 -->
<g id="node36" class="node">
<title>1990971757472</title>
<ellipse fill="white" stroke="black" cx="2341" cy="-99" rx="27" ry="27"/>
</g>
<!-- 1990971753056&#45;&gt;1990971757472 -->
<g id="edge34" class="edge">
<title>1990971753056&#45;&gt;1990971757472</title>
<path fill="none" stroke="black" d="M2278.48,-99C2286.35,-99 2294.59,-99 2302.39,-99"/>
<polygon fill="black" stroke="black" points="2302.27,-102.5 2312.27,-99 2302.27,-95.5 2302.27,-102.5"/>
</g>
<!-- 1990971767024 -->
<g id="node15" class="node">
<title>1990971767024</title>
<polygon fill="white" stroke="black" points="2496.5,-117 2404,-117 2404,-81 2496.5,-81 2496.5,-117"/>
<text text-anchor="middle" x="2450.25" y="-93.97" font-family="Times New Roman,serif" font-size="12.00">Data Integration</text>
</g>
<!-- 1990976164480 -->
<g id="node37" class="node">
<title>1990976164480</title>
<ellipse fill="white" stroke="black" cx="2559.5" cy="-99" rx="27" ry="27"/>
</g>
<!-- 1990971767024&#45;&gt;1990976164480 -->
<g id="edge36" class="edge">
<title>1990971767024&#45;&gt;1990976164480</title>
<path fill="none" stroke="black" d="M2496.73,-99C2504.77,-99 2513.06,-99 2520.85,-99"/>
<polygon fill="black" stroke="black" points="2520.69,-102.5 2530.69,-99 2520.69,-95.5 2520.69,-102.5"/>
</g>
<!-- 1990976170624 -->
<g id="node16" class="node">
<title>1990976170624</title>
<polygon fill="white" stroke="black" points="2721.75,-117 2622.5,-117 2622.5,-81 2721.75,-81 2721.75,-117"/>
<text text-anchor="middle" x="2672.12" y="-93.97" font-family="Times New Roman,serif" font-size="12.00">Harvest Schedule</text>
</g>
<!-- 1990976167888 -->
<g id="node38" class="node">
<title>1990976167888</title>
<ellipse fill="white" stroke="black" cx="2784.75" cy="-99" rx="27" ry="27"/>
</g>
<!-- 1990976170624&#45;&gt;1990976167888 -->
<g id="edge38" class="edge">
<title>1990976170624&#45;&gt;1990976167888</title>
<path fill="none" stroke="black" d="M2721.97,-99C2730.04,-99 2738.3,-99 2746.04,-99"/>
<polygon fill="black" stroke="black" points="2745.8,-102.5 2755.8,-99 2745.8,-95.5 2745.8,-102.5"/>
</g>
<!-- 1990976174416 -->
<g id="node17" class="node">
<title>1990976174416</title>
<polygon fill="white" stroke="black" points="2944,-117 2847.75,-117 2847.75,-81 2944,-81 2944,-117"/>
<text text-anchor="middle" x="2895.88" y="-93.97" font-family="Times New Roman,serif" font-size="12.00">Waste Recycling</text>
</g>
<!-- 1990976167552 -->
<g id="node39" class="node">
<title>1990976167552</title>
<ellipse fill="white" stroke="black" cx="3007" cy="-99" rx="27" ry="27"/>
</g>
<!-- 1990976174416&#45;&gt;1990976167552 -->
<g id="edge40" class="edge">
<title>1990976174416&#45;&gt;1990976167552</title>
<path fill="none" stroke="black" d="M2944.42,-99C2952.34,-99 2960.45,-99 2968.09,-99"/>
<polygon fill="black" stroke="black" points="2968.08,-102.5 2978.08,-99 2968.08,-95.5 2968.08,-102.5"/>
</g>
<!-- 1990976161504 -->
<g id="node18" class="node">
<title>1990976161504</title>
<polygon fill="white" stroke="black" points="3188.75,-117 3070,-117 3070,-81 3188.75,-81 3188.75,-117"/>
<text text-anchor="middle" x="3129.38" y="-93.97" font-family="Times New Roman,serif" font-size="12.00">Community Outreach</text>
</g>
<!-- 1990981881872 -->
<g id="node40" class="node">
<title>1990981881872</title>
<ellipse fill="white" stroke="black" cx="3255.75" cy="-99" rx="27" ry="27"/>
<ellipse fill="none" stroke="black" cx="3255.75" cy="-99" rx="31" ry="31"/>
<text text-anchor="start" x="3239.25" y="-83.6" font-family="Times New Roman,serif" font-size="32.00">■</text>
</g>
<!-- 1990976161504&#45;&gt;1990981881872 -->
<g id="edge42" class="edge">
<title>1990976161504&#45;&gt;1990981881872</title>
<path fill="none" stroke="black" d="M3188.92,-99C3197.04,-99 3205.24,-99 3212.96,-99"/>
<polygon fill="black" stroke="black" points="3212.74,-102.5 3222.74,-99 3212.74,-95.5 3212.74,-102.5"/>
</g>
<!-- 1990981881920 -->
<g id="node19" class="node">
<title>1990981881920</title>
<ellipse fill="white" stroke="black" cx="27" cy="-99" rx="27" ry="27"/>
<text text-anchor="start" x="9.75" y="-81.7" font-family="Times New Roman,serif" font-size="34.00">●</text>
</g>
<!-- 1990981881920&#45;&gt;1990981881440 -->
<g id="edge1" class="edge">
<title>1990981881920&#45;&gt;1990981881440</title>
<path fill="none" stroke="black" d="M54.4,-99C61.89,-99 70.18,-99 78.2,-99"/>
<polygon fill="black" stroke="black" points="78.1,-102.5 88.1,-99 78.1,-95.5 78.1,-102.5"/>
</g>
<!-- 1990969799456&#45;&gt;1990975756080 -->
<g id="edge4" class="edge">
<title>1990969799456&#45;&gt;1990975756080</title>
<path fill="none" stroke="black" d="M234.42,-135C241.73,-135 249.95,-135 258.28,-135"/>
<polygon fill="black" stroke="black" points="258.11,-138.5 268.11,-135 258.11,-131.5 258.11,-138.5"/>
</g>
<!-- 1990969789664&#45;&gt;1990969789904 -->
<g id="edge5" class="edge">
<title>1990969789664&#45;&gt;1990969789904</title>
<path fill="none" stroke="black" d="M234.42,-63C244.8,-63 257.04,-63 268.78,-63"/>
<polygon fill="black" stroke="black" points="268.77,-66.5 278.77,-63 268.77,-59.5 268.77,-66.5"/>
</g>
<!-- 1990976167456&#45;&gt;1990975757424 -->
<g id="edge8" class="edge">
<title>1990976167456&#45;&gt;1990975757424</title>
<path fill="none" stroke="black" d="M450.72,-71.62C458.6,-74.34 467.63,-77.46 476.7,-80.6"/>
<polygon fill="black" stroke="black" points="475.29,-83.81 485.88,-83.77 477.57,-77.19 475.29,-83.81"/>
</g>
<!-- 1990976168752&#45;&gt;1990975757424 -->
<g id="edge9" class="edge">
<title>1990976168752&#45;&gt;1990975757424</title>
<path fill="none" stroke="black" d="M450.72,-126.38C458.6,-123.66 467.63,-120.54 476.7,-117.4"/>
<polygon fill="black" stroke="black" points="477.57,-120.81 485.88,-114.23 475.29,-114.19 477.57,-120.81"/>
</g>
<!-- 1990975758336&#45;&gt;1990975761024 -->
<g id="edge15" class="edge">
<title>1990975758336&#45;&gt;1990975761024</title>
<path fill="none" stroke="black" d="M664.75,-171C672.1,-171 680.36,-171 688.69,-171"/>
<polygon fill="black" stroke="black" points="688.5,-174.5 698.5,-171 688.5,-167.5 688.5,-174.5"/>
</g>
<!-- 1990975751952&#45;&gt;1990975762752 -->
<g id="edge14" class="edge">
<title>1990975751952&#45;&gt;1990975762752</title>
<path fill="none" stroke="black" d="M664.75,-99C672.78,-99 681.89,-99 691,-99"/>
<polygon fill="black" stroke="black" points="690.93,-102.5 700.93,-99 690.93,-95.5 690.93,-102.5"/>
</g>
<!-- 1990975760880&#45;&gt;1990975754064 -->
<g id="edge13" class="edge">
<title>1990975760880&#45;&gt;1990975754064</title>
<path fill="none" stroke="black" d="M664.75,-27C672.69,-27 681.7,-27 690.71,-27"/>
<polygon fill="black" stroke="black" points="690.53,-30.5 700.53,-27 690.53,-23.5 690.53,-30.5"/>
</g>
<!-- 1990976162944&#45;&gt;1990981403904 -->
<g id="edge21" class="edge">
<title>1990976162944&#45;&gt;1990981403904</title>
<path fill="none" stroke="black" d="M878.56,-99C885.94,-99 894.24,-99 902.61,-99"/>
<polygon fill="black" stroke="black" points="902.46,-102.5 912.46,-99 902.46,-95.5 902.46,-102.5"/>
</g>
<!-- 1990976174128&#45;&gt;1990981403904 -->
<g id="edge19" class="edge">
<title>1990976174128&#45;&gt;1990981403904</title>
<path fill="none" stroke="black" d="M874.1,-155.91C887.55,-146.62 905.12,-134.49 920.57,-123.81"/>
<polygon fill="black" stroke="black" points="922.38,-126.82 928.62,-118.26 918.4,-121.06 922.38,-126.82"/>
</g>
<!-- 1990976163760&#45;&gt;1990981403904 -->
<g id="edge20" class="edge">
<title>1990976163760&#45;&gt;1990981403904</title>
<path fill="none" stroke="black" d="M874.1,-42.09C887.55,-51.38 905.12,-63.51 920.57,-74.19"/>
<polygon fill="black" stroke="black" points="918.4,-76.94 928.62,-79.74 922.38,-71.18 918.4,-76.94"/>
</g>
<!-- 1990971347488&#45;&gt;1990978400672 -->
<g id="edge23" class="edge">
<title>1990971347488&#45;&gt;1990978400672</title>
<path fill="none" stroke="black" d="M1091.23,-99C1098.51,-99 1106.72,-99 1115.09,-99"/>
<polygon fill="black" stroke="black" points="1115.03,-102.5 1125.03,-99 1115.03,-95.5 1115.03,-102.5"/>
</g>
<!-- 1990971755168&#45;&gt;1990971756176 -->
<g id="edge25" class="edge">
<title>1990971755168&#45;&gt;1990971756176</title>
<path fill="none" stroke="black" d="M1318.66,-99C1326.09,-99 1334.44,-99 1342.77,-99"/>
<polygon fill="black" stroke="black" points="1342.53,-102.5 1352.53,-99 1342.53,-95.5 1342.53,-102.5"/>
</g>
<!-- 1990971754544&#45;&gt;1990971766592 -->
<g id="edge27" class="edge">
<title>1990971754544&#45;&gt;1990971766592</title>
<path fill="none" stroke="black" d="M1523.58,-99C1530.92,-99 1539.13,-99 1547.31,-99"/>
<polygon fill="black" stroke="black" points="1547.24,-102.5 1557.24,-99 1547.24,-95.5 1547.24,-102.5"/>
</g>
<!-- 1990971764288&#45;&gt;1990971760640 -->
<g id="edge29" class="edge">
<title>1990971764288&#45;&gt;1990971760640</title>
<path fill="none" stroke="black" d="M1724.22,-99C1731.52,-99 1739.68,-99 1747.83,-99"/>
<polygon fill="black" stroke="black" points="1747.75,-102.5 1757.75,-99 1747.75,-95.5 1747.75,-102.5"/>
</g>
<!-- 1990971756800&#45;&gt;1990971758480 -->
<g id="edge31" class="edge">
<title>1990971756800&#45;&gt;1990971758480</title>
<path fill="none" stroke="black" d="M1927.66,-99C1934.87,-99 1943.02,-99 1951.37,-99"/>
<polygon fill="black" stroke="black" points="1951.32,-102.5 1961.32,-99 1951.32,-95.5 1951.32,-102.5"/>
</g>
<!-- 1990971759728&#45;&gt;1990971753056 -->
<g id="edge33" class="edge">
<title>1990971759728&#45;&gt;1990971753056</title>
<path fill="none" stroke="black" d="M2161.84,-99C2169.25,-99 2177.57,-99 2185.9,-99"/>
<polygon fill="black" stroke="black" points="2185.67,-102.5 2195.67,-99 2185.67,-95.5 2185.67,-102.5"/>
</g>
<!-- 1990971757472&#45;&gt;1990971767024 -->
<g id="edge35" class="edge">
<title>1990971757472&#45;&gt;1990971767024</title>
<path fill="none" stroke="black" d="M2368.24,-99C2375.57,-99 2383.84,-99 2392.22,-99"/>
<polygon fill="black" stroke="black" points="2392.12,-102.5 2402.12,-99 2392.12,-95.5 2392.12,-102.5"/>
</g>
<!-- 1990976164480&#45;&gt;1990976170624 -->
<g id="edge37" class="edge">
<title>1990976164480&#45;&gt;1990976170624</title>
<path fill="none" stroke="black" d="M2587,-99C2594.29,-99 2602.52,-99 2610.89,-99"/>
<polygon fill="black" stroke="black" points="2610.82,-102.5 2620.82,-99 2610.82,-95.5 2610.82,-102.5"/>
</g>
<!-- 1990976167888&#45;&gt;1990976174416 -->
<g id="edge39" class="edge">
<title>1990976167888&#45;&gt;1990976174416</title>
<path fill="none" stroke="black" d="M2812.17,-99C2819.45,-99 2827.66,-99 2836,-99"/>
<polygon fill="black" stroke="black" points="2835.87,-102.5 2845.87,-99 2835.87,-95.5 2835.87,-102.5"/>
</g>
<!-- 1990976167552&#45;&gt;1990976161504 -->
<g id="edge41" class="edge">
<title>1990976167552&#45;&gt;1990976161504</title>
<path fill="none" stroke="black" d="M3034.42,-99C3041.73,-99 3050.03,-99 3058.59,-99"/>
<polygon fill="black" stroke="black" points="3058.43,-102.5 3068.43,-99 3058.43,-95.5 3058.43,-102.5"/>
</g>
</g>
</svg>
