<?xml version="1.0" encoding="UTF-8" standalone="no"?>
<!DOCTYPE svg PUBLIC "-//W3C//DTD SVG 1.1//EN"
 "http://www.w3.org/Graphics/SVG/1.1/DTD/svg11.dtd">
<!-- Generated by graphviz version 11.0.0 (20240428.1522)
 -->
<!-- Title: imdf_net_1754051513.558586 Pages: 1 -->
<svg width="2945pt" height="359pt"
 viewBox="0.00 0.00 2945.00 359.00" xmlns="http://www.w3.org/2000/svg" xmlns:xlink="http://www.w3.org/1999/xlink">
<g id="graph0" class="graph" transform="scale(1 1) rotate(0) translate(4 355)">
<title>imdf_net_1754051513.558586</title>
<polygon fill="white" stroke="none" points="-4,4 -4,-355 2941,-355 2941,4 -4,4"/>
<!-- 1990981970464 -->
<g id="node1" class="node">
<title>1990981970464</title>
<polygon fill="black" stroke="black" points="144,-303 90,-303 90,-267 144,-267 144,-303"/>
</g>
<!-- 1990981965088 -->
<g id="node22" class="node">
<title>1990981965088</title>
<ellipse fill="white" stroke="black" cx="207" cy="-285" rx="27" ry="27"/>
</g>
<!-- 1990981970464&#45;&gt;1990981965088 -->
<g id="edge2" class="edge">
<title>1990981970464&#45;&gt;1990981965088</title>
<path fill="none" stroke="black" d="M144.4,-285C151.89,-285 160.18,-285 168.2,-285"/>
<polygon fill="black" stroke="black" points="168.1,-288.5 178.1,-285 168.1,-281.5 168.1,-288.5"/>
</g>
<!-- 1990981078240 -->
<g id="node2" class="node">
<title>1990981078240</title>
<polygon fill="white" stroke="black" points="340.75,-276 270,-276 270,-240 340.75,-240 340.75,-276"/>
<text text-anchor="middle" x="305.38" y="-252.97" font-family="Times New Roman,serif" font-size="12.00">Trend Scan</text>
</g>
<!-- 1990981078912 -->
<g id="node23" class="node">
<title>1990981078912</title>
<ellipse fill="white" stroke="black" cx="403.75" cy="-254" rx="27" ry="27"/>
</g>
<!-- 1990981078240&#45;&gt;1990981078912 -->
<g id="edge4" class="edge">
<title>1990981078240&#45;&gt;1990981078912</title>
<path fill="none" stroke="black" d="M341.17,-256.56C348.9,-256.23 357.14,-255.89 364.98,-255.57"/>
<polygon fill="black" stroke="black" points="365.12,-259.06 374.97,-255.15 364.83,-252.07 365.12,-259.06"/>
</g>
<!-- 1990981082896 -->
<g id="node3" class="node">
<title>1990981082896</title>
<polygon fill="white" stroke="black" points="552.5,-272 466.75,-272 466.75,-236 552.5,-236 552.5,-272"/>
<text text-anchor="middle" x="509.62" y="-248.97" font-family="Times New Roman,serif" font-size="12.00">Tech Mapping</text>
</g>
<!-- 1990981075936 -->
<g id="node24" class="node">
<title>1990981075936</title>
<ellipse fill="white" stroke="black" cx="615.5" cy="-254" rx="27" ry="27"/>
</g>
<!-- 1990981082896&#45;&gt;1990981075936 -->
<g id="edge6" class="edge">
<title>1990981082896&#45;&gt;1990981075936</title>
<path fill="none" stroke="black" d="M552.87,-254C560.78,-254 569,-254 576.76,-254"/>
<polygon fill="black" stroke="black" points="576.57,-257.5 586.57,-254 576.57,-250.5 576.57,-257.5"/>
</g>
<!-- 1990981076560 -->
<g id="node4" class="node">
<title>1990981076560</title>
<polygon fill="white" stroke="black" points="769.5,-247 678.5,-247 678.5,-211 769.5,-211 769.5,-247"/>
<text text-anchor="middle" x="724" y="-223.97" font-family="Times New Roman,serif" font-size="12.00">Workshop Host</text>
</g>
<!-- 1990981078048 -->
<g id="node25" class="node">
<title>1990981078048</title>
<ellipse fill="white" stroke="black" cx="832.5" cy="-229" rx="27" ry="27"/>
</g>
<!-- 1990981076560&#45;&gt;1990981078048 -->
<g id="edge8" class="edge">
<title>1990981076560&#45;&gt;1990981078048</title>
<path fill="none" stroke="black" d="M769.86,-229C777.86,-229 786.12,-229 793.9,-229"/>
<polygon fill="black" stroke="black" points="793.71,-232.5 803.71,-229 793.71,-225.5 793.71,-232.5"/>
</g>
<!-- 1990981076272 -->
<g id="node5" class="node">
<title>1990981076272</title>
<polygon fill="white" stroke="black" points="965.5,-197 895.5,-197 895.5,-161 965.5,-161 965.5,-197"/>
<text text-anchor="middle" x="930.5" y="-173.97" font-family="Times New Roman,serif" font-size="12.00">Idea Merge</text>
</g>
<!-- 1990981084672 -->
<g id="node26" class="node">
<title>1990981084672</title>
<ellipse fill="white" stroke="black" cx="1028.5" cy="-139" rx="27" ry="27"/>
</g>
<!-- 1990981076272&#45;&gt;1990981084672 -->
<g id="edge10" class="edge">
<title>1990981076272&#45;&gt;1990981084672</title>
<path fill="none" stroke="black" d="M965.89,-164.67C974.51,-161.08 983.78,-157.22 992.43,-153.61"/>
<polygon fill="black" stroke="black" points="993.7,-156.87 1001.58,-149.8 991.01,-150.41 993.7,-156.87"/>
</g>
<!-- 1990977969024 -->
<g id="node6" class="node">
<title>1990977969024</title>
<polygon fill="white" stroke="black" points="1182.5,-157 1091.5,-157 1091.5,-121 1182.5,-121 1182.5,-157"/>
<text text-anchor="middle" x="1137" y="-133.97" font-family="Times New Roman,serif" font-size="12.00">Prototype Build</text>
</g>
<!-- 1990981087216 -->
<g id="node27" class="node">
<title>1990981087216</title>
<ellipse fill="white" stroke="black" cx="1245.5" cy="-139" rx="27" ry="27"/>
</g>
<!-- 1990977969024&#45;&gt;1990981087216 -->
<g id="edge12" class="edge">
<title>1990977969024&#45;&gt;1990981087216</title>
<path fill="none" stroke="black" d="M1182.86,-139C1190.86,-139 1199.12,-139 1206.9,-139"/>
<polygon fill="black" stroke="black" points="1206.71,-142.5 1216.71,-139 1206.71,-135.5 1206.71,-142.5"/>
</g>
<!-- 1990981077808 -->
<g id="node7" class="node">
<title>1990981077808</title>
<polygon fill="black" stroke="black" points="1365.25,-195 1311.25,-195 1311.25,-159 1365.25,-159 1365.25,-195"/>
</g>
<!-- 1990981083664 -->
<g id="node28" class="node">
<title>1990981083664</title>
<ellipse fill="white" stroke="black" cx="1431" cy="-271" rx="27" ry="27"/>
</g>
<!-- 1990981077808&#45;&gt;1990981083664 -->
<g id="edge18" class="edge">
<title>1990981077808&#45;&gt;1990981083664</title>
<path fill="none" stroke="black" d="M1356.75,-195.12C1370.05,-208.9 1388.56,-228.08 1403.65,-243.7"/>
<polygon fill="black" stroke="black" points="1401.11,-246.11 1410.57,-250.87 1406.14,-241.25 1401.11,-246.11"/>
</g>
<!-- 1990977925008 -->
<g id="node29" class="node">
<title>1990977925008</title>
<ellipse fill="white" stroke="black" cx="1431" cy="-199" rx="27" ry="27"/>
</g>
<!-- 1990981077808&#45;&gt;1990977925008 -->
<g id="edge17" class="edge">
<title>1990981077808&#45;&gt;1990977925008</title>
<path fill="none" stroke="black" d="M1365.5,-183.36C1374.21,-185.47 1384.07,-187.86 1393.41,-190.13"/>
<polygon fill="black" stroke="black" points="1392.42,-193.49 1402.97,-192.45 1394.07,-186.69 1392.42,-193.49"/>
</g>
<!-- 1990977927024 -->
<g id="node31" class="node">
<title>1990977927024</title>
<ellipse fill="white" stroke="black" cx="1431" cy="-127" rx="27" ry="27"/>
</g>
<!-- 1990981077808&#45;&gt;1990977927024 -->
<g id="edge16" class="edge">
<title>1990981077808&#45;&gt;1990977927024</title>
<path fill="none" stroke="black" d="M1365.5,-162.54C1375.31,-157.13 1386.59,-150.92 1396.94,-145.21"/>
<polygon fill="black" stroke="black" points="1398.5,-148.35 1405.57,-140.46 1395.12,-142.22 1398.5,-148.35"/>
</g>
<!-- 1990981076416 -->
<g id="node8" class="node">
<title>1990981076416</title>
<polygon fill="white" stroke="black" points="1368,-118 1308.5,-118 1308.5,-82 1368,-82 1368,-118"/>
<text text-anchor="middle" x="1338.25" y="-94.97" font-family="Times New Roman,serif" font-size="12.00">Test Run</text>
</g>
<!-- 1990981078432 -->
<g id="node30" class="node">
<title>1990981078432</title>
<ellipse fill="white" stroke="black" cx="1431" cy="-55" rx="27" ry="27"/>
</g>
<!-- 1990981076416&#45;&gt;1990981078432 -->
<g id="edge15" class="edge">
<title>1990981076416&#45;&gt;1990981078432</title>
<path fill="none" stroke="black" d="M1368.46,-85.51C1377.25,-81.16 1386.97,-76.34 1396.04,-71.84"/>
<polygon fill="black" stroke="black" points="1397.53,-75.01 1404.94,-67.43 1394.42,-68.73 1397.53,-75.01"/>
</g>
<!-- 1990981080064 -->
<g id="node9" class="node">
<title>1990981080064</title>
<polygon fill="white" stroke="black" points="1588.75,-73 1501.5,-73 1501.5,-37 1588.75,-37 1588.75,-73"/>
<text text-anchor="middle" x="1545.12" y="-49.98" font-family="Times New Roman,serif" font-size="12.00">Expert Review</text>
</g>
<!-- 1990981090768 -->
<g id="node33" class="node">
<title>1990981090768</title>
<ellipse fill="white" stroke="black" cx="1659.25" cy="-55" rx="27" ry="27"/>
</g>
<!-- 1990981080064&#45;&gt;1990981090768 -->
<g id="edge23" class="edge">
<title>1990981080064&#45;&gt;1990981090768</title>
<path fill="none" stroke="black" d="M1589.15,-55C1599.54,-55 1610.56,-55 1620.67,-55"/>
<polygon fill="black" stroke="black" points="1620.53,-58.5 1630.53,-55 1620.53,-51.5 1620.53,-58.5"/>
</g>
<!-- 1990977924144 -->
<g id="node10" class="node">
<title>1990977924144</title>
<polygon fill="white" stroke="black" points="1596.25,-145 1494,-145 1494,-109 1596.25,-109 1596.25,-145"/>
<text text-anchor="middle" x="1545.12" y="-121.97" font-family="Times New Roman,serif" font-size="12.00">Regulatory Check</text>
</g>
<!-- 1990977915264 -->
<g id="node32" class="node">
<title>1990977915264</title>
<ellipse fill="white" stroke="black" cx="1659.25" cy="-127" rx="27" ry="27"/>
</g>
<!-- 1990977924144&#45;&gt;1990977915264 -->
<g id="edge26" class="edge">
<title>1990977924144&#45;&gt;1990977915264</title>
<path fill="none" stroke="black" d="M1596.61,-127C1604.72,-127 1612.98,-127 1620.71,-127"/>
<polygon fill="black" stroke="black" points="1620.44,-130.5 1630.44,-127 1620.44,-123.5 1620.44,-130.5"/>
</g>
<!-- 1990981075648 -->
<g id="node11" class="node">
<title>1990981075648</title>
<polygon fill="white" stroke="black" points="1581.62,-289 1508.62,-289 1508.62,-253 1581.62,-253 1581.62,-289"/>
<text text-anchor="middle" x="1545.12" y="-265.98" font-family="Times New Roman,serif" font-size="12.00">Risk Assess</text>
</g>
<!-- 1990977921648 -->
<g id="node35" class="node">
<title>1990977921648</title>
<ellipse fill="white" stroke="black" cx="1659.25" cy="-271" rx="27" ry="27"/>
</g>
<!-- 1990981075648&#45;&gt;1990977921648 -->
<g id="edge25" class="edge">
<title>1990981075648&#45;&gt;1990977921648</title>
<path fill="none" stroke="black" d="M1581.91,-271C1594.25,-271 1608.1,-271 1620.58,-271"/>
<polygon fill="black" stroke="black" points="1620.52,-274.5 1630.52,-271 1620.52,-267.5 1620.52,-274.5"/>
</g>
<!-- 1990977921984 -->
<g id="node12" class="node">
<title>1990977921984</title>
<polygon fill="white" stroke="black" points="1585,-217 1505.25,-217 1505.25,-181 1585,-181 1585,-217"/>
<text text-anchor="middle" x="1545.12" y="-193.97" font-family="Times New Roman,serif" font-size="12.00">Partner Align</text>
</g>
<!-- 1990977914976 -->
<g id="node34" class="node">
<title>1990977914976</title>
<ellipse fill="white" stroke="black" cx="1659.25" cy="-199" rx="27" ry="27"/>
</g>
<!-- 1990977921984&#45;&gt;1990977914976 -->
<g id="edge24" class="edge">
<title>1990977921984&#45;&gt;1990977914976</title>
<path fill="none" stroke="black" d="M1585.34,-199C1596.78,-199 1609.24,-199 1620.58,-199"/>
<polygon fill="black" stroke="black" points="1620.39,-202.5 1630.39,-199 1620.39,-195.5 1620.39,-202.5"/>
</g>
<!-- 1990981087264 -->
<g id="node13" class="node">
<title>1990981087264</title>
<polygon fill="white" stroke="black" points="1818.12,-46 1727.88,-46 1727.88,-10 1818.12,-10 1818.12,-46"/>
<text text-anchor="middle" x="1773" y="-22.98" font-family="Times New Roman,serif" font-size="12.00">Feedback Loop</text>
</g>
<!-- 1990981087264&#45;&gt;1990981084672 -->
<g id="edge31" class="edge">
<title>1990981087264&#45;&gt;1990981084672</title>
<path fill="none" stroke="black" d="M1727.63,-19.22C1682.23,-11.01 1609.55,0 1546.12,0 1244.5,0 1244.5,0 1244.5,0 1164.37,0 1090.48,-68.93 1053.78,-109.71"/>
<polygon fill="black" stroke="black" points="1051.29,-107.24 1047.31,-117.05 1056.54,-111.86 1051.29,-107.24"/>
</g>
<!-- 1990977918672 -->
<g id="node14" class="node">
<title>1990977918672</title>
<polygon fill="white" stroke="black" points="1823.75,-253 1722.25,-253 1722.25,-217 1823.75,-217 1823.75,-253"/>
<text text-anchor="middle" x="1773" y="-229.97" font-family="Times New Roman,serif" font-size="12.00">Knowledge Share</text>
</g>
<!-- 1990977918096 -->
<g id="node36" class="node">
<title>1990977918096</title>
<ellipse fill="white" stroke="black" cx="1886.75" cy="-236" rx="27" ry="27"/>
</g>
<!-- 1990977918672&#45;&gt;1990977918096 -->
<g id="edge32" class="edge">
<title>1990977918672&#45;&gt;1990977918096</title>
<path fill="none" stroke="black" d="M1823.99,-235.45C1832.1,-235.52 1840.37,-235.59 1848.11,-235.66"/>
<polygon fill="black" stroke="black" points="1847.83,-239.16 1857.86,-235.75 1847.89,-232.16 1847.83,-239.16"/>
</g>
<!-- 1990977920448 -->
<g id="node15" class="node">
<title>1990977920448</title>
<polygon fill="white" stroke="black" points="2015.25,-276 1949.75,-276 1949.75,-240 2015.25,-240 2015.25,-276"/>
<text text-anchor="middle" x="1982.5" y="-252.97" font-family="Times New Roman,serif" font-size="12.00">Scale Plan</text>
</g>
<!-- 1990977918480 -->
<g id="node37" class="node">
<title>1990977918480</title>
<ellipse fill="white" stroke="black" cx="2078.25" cy="-269" rx="27" ry="27"/>
</g>
<!-- 1990977920448&#45;&gt;1990977918480 -->
<g id="edge34" class="edge">
<title>1990977920448&#45;&gt;1990977918480</title>
<path fill="none" stroke="black" d="M2015.5,-261.75C2023.27,-262.67 2031.65,-263.65 2039.65,-264.59"/>
<polygon fill="black" stroke="black" points="2039.15,-268.05 2049.49,-265.74 2039.96,-261.1 2039.15,-268.05"/>
</g>
<!-- 1990977927312 -->
<g id="node16" class="node">
<title>1990977927312</title>
<polygon fill="white" stroke="black" points="2215.75,-292 2141.25,-292 2141.25,-256 2215.75,-256 2215.75,-292"/>
<text text-anchor="middle" x="2178.5" y="-268.98" font-family="Times New Roman,serif" font-size="12.00">Market Prep</text>
</g>
<!-- 1990977927408 -->
<g id="node38" class="node">
<title>1990977927408</title>
<ellipse fill="white" stroke="black" cx="2278.75" cy="-277" rx="27" ry="27"/>
</g>
<!-- 1990977927312&#45;&gt;1990977927408 -->
<g id="edge36" class="edge">
<title>1990977927312&#45;&gt;1990977927408</title>
<path fill="none" stroke="black" d="M2216.08,-275.12C2223.84,-275.35 2232.04,-275.6 2239.84,-275.84"/>
<polygon fill="black" stroke="black" points="2239.65,-279.34 2249.75,-276.15 2239.86,-272.34 2239.65,-279.34"/>
</g>
<!-- 1990977922176 -->
<g id="node17" class="node">
<title>1990977922176</title>
<polygon fill="white" stroke="black" points="2435,-296 2341.75,-296 2341.75,-260 2435,-260 2435,-296"/>
<text text-anchor="middle" x="2388.38" y="-272.98" font-family="Times New Roman,serif" font-size="12.00">Launch Execute</text>
</g>
<!-- 1990977924816 -->
<g id="node39" class="node">
<title>1990977924816</title>
<ellipse fill="white" stroke="black" cx="2498" cy="-279" rx="27" ry="27"/>
</g>
<!-- 1990977922176&#45;&gt;1990977924816 -->
<g id="edge38" class="edge">
<title>1990977922176&#45;&gt;1990977924816</title>
<path fill="none" stroke="black" d="M2435.33,-278.43C2443.37,-278.5 2451.66,-278.58 2459.44,-278.65"/>
<polygon fill="black" stroke="black" points="2459.22,-282.15 2469.26,-278.74 2459.29,-275.15 2459.22,-282.15"/>
</g>
<!-- 1990977920832 -->
<g id="node18" class="node">
<title>1990977920832</title>
<polygon fill="white" stroke="black" points="2637,-297 2561,-297 2561,-261 2637,-261 2637,-297"/>
<text text-anchor="middle" x="2599" y="-273.98" font-family="Times New Roman,serif" font-size="12.00">Post Review</text>
</g>
<!-- 1990981964800 -->
<g id="node40" class="node">
<title>1990981964800</title>
<ellipse fill="white" stroke="black" cx="2700" cy="-279" rx="27" ry="27"/>
</g>
<!-- 1990977920832&#45;&gt;1990981964800 -->
<g id="edge40" class="edge">
<title>1990977920832&#45;&gt;1990981964800</title>
<path fill="none" stroke="black" d="M2637.43,-279C2645.21,-279 2653.41,-279 2661.21,-279"/>
<polygon fill="black" stroke="black" points="2661.1,-282.5 2671.1,-279 2661.1,-275.5 2661.1,-282.5"/>
</g>
<!-- 1990977922608 -->
<g id="node19" class="node">
<title>1990977922608</title>
<polygon fill="white" stroke="black" points="2839,-351 2763,-351 2763,-315 2839,-315 2839,-351"/>
<text text-anchor="middle" x="2801" y="-327.98" font-family="Times New Roman,serif" font-size="12.00">Iterate Cycle</text>
</g>
<!-- 1990977922608&#45;&gt;1990981965088 -->
<g id="edge43" class="edge">
<title>1990977922608&#45;&gt;1990981965088</title>
<path fill="none" stroke="black" d="M2762.77,-333.3C2722.61,-333.59 2656.77,-334 2600,-334 402.75,-334 402.75,-334 402.75,-334 345.47,-334 281.51,-313.82 243.03,-299.36"/>
<polygon fill="black" stroke="black" points="244.41,-296.14 233.82,-295.82 241.89,-302.68 244.41,-296.14"/>
</g>
<!-- 1990977928128 -->
<g id="node20" class="node">
<title>1990977928128</title>
<polygon fill="black" stroke="black" points="2828,-297 2774,-297 2774,-261 2828,-261 2828,-297"/>
</g>
<!-- 1990981970752 -->
<g id="node41" class="node">
<title>1990981970752</title>
<ellipse fill="white" stroke="black" cx="2906" cy="-279" rx="27" ry="27"/>
<ellipse fill="none" stroke="black" cx="2906" cy="-279" rx="31" ry="31"/>
<text text-anchor="start" x="2889.5" y="-263.6" font-family="Times New Roman,serif" font-size="32.00">■</text>
</g>
<!-- 1990977928128&#45;&gt;1990981970752 -->
<g id="edge44" class="edge">
<title>1990977928128&#45;&gt;1990981970752</title>
<path fill="none" stroke="black" d="M2828.26,-279C2838.9,-279 2851.45,-279 2863.28,-279"/>
<polygon fill="black" stroke="black" points="2863.26,-282.5 2873.26,-279 2863.26,-275.5 2863.26,-282.5"/>
</g>
<!-- 1990975760256 -->
<g id="node21" class="node">
<title>1990975760256</title>
<ellipse fill="white" stroke="black" cx="27" cy="-285" rx="27" ry="27"/>
<text text-anchor="start" x="9.75" y="-267.7" font-family="Times New Roman,serif" font-size="34.00">●</text>
</g>
<!-- 1990975760256&#45;&gt;1990981970464 -->
<g id="edge1" class="edge">
<title>1990975760256&#45;&gt;1990981970464</title>
<path fill="none" stroke="black" d="M54.4,-285C61.89,-285 70.18,-285 78.2,-285"/>
<polygon fill="black" stroke="black" points="78.1,-288.5 88.1,-285 78.1,-281.5 78.1,-288.5"/>
</g>
<!-- 1990981965088&#45;&gt;1990981078240 -->
<g id="edge3" class="edge">
<title>1990981965088&#45;&gt;1990981078240</title>
<path fill="none" stroke="black" d="M233.32,-277.91C241.16,-275.71 250.06,-273.22 258.84,-270.76"/>
<polygon fill="black" stroke="black" points="259.66,-274.16 268.35,-268.09 257.77,-267.42 259.66,-274.16"/>
</g>
<!-- 1990981078912&#45;&gt;1990981082896 -->
<g id="edge5" class="edge">
<title>1990981078912&#45;&gt;1990981082896</title>
<path fill="none" stroke="black" d="M431.23,-254C438.59,-254 446.85,-254 455.16,-254"/>
<polygon fill="black" stroke="black" points="454.94,-257.5 464.94,-254 454.94,-250.5 454.94,-257.5"/>
</g>
<!-- 1990981075936&#45;&gt;1990981076560 -->
<g id="edge7" class="edge">
<title>1990981075936&#45;&gt;1990981076560</title>
<path fill="none" stroke="black" d="M642.28,-247.95C649.9,-246.16 658.55,-244.13 667.29,-242.08"/>
<polygon fill="black" stroke="black" points="667.93,-245.52 676.86,-239.83 666.33,-238.71 667.93,-245.52"/>
</g>
<!-- 1990981078048&#45;&gt;1990981076272 -->
<g id="edge9" class="edge">
<title>1990981078048&#45;&gt;1990981076272</title>
<path fill="none" stroke="black" d="M856.74,-216.9C865.31,-212.43 875.32,-207.22 885.13,-202.11"/>
<polygon fill="black" stroke="black" points="886.62,-205.28 893.87,-197.56 883.39,-199.07 886.62,-205.28"/>
</g>
<!-- 1990981084672&#45;&gt;1990977969024 -->
<g id="edge11" class="edge">
<title>1990981084672&#45;&gt;1990977969024</title>
<path fill="none" stroke="black" d="M1055.83,-139C1063.19,-139 1071.5,-139 1079.89,-139"/>
<polygon fill="black" stroke="black" points="1079.81,-142.5 1089.81,-139 1079.81,-135.5 1079.81,-142.5"/>
</g>
<!-- 1990981087216&#45;&gt;1990981077808 -->
<g id="edge13" class="edge">
<title>1990981087216&#45;&gt;1990981077808</title>
<path fill="none" stroke="black" d="M1270.82,-149.18C1279.92,-152.99 1290.47,-157.41 1300.45,-161.59"/>
<polygon fill="black" stroke="black" points="1298.98,-164.77 1309.56,-165.4 1301.68,-158.31 1298.98,-164.77"/>
</g>
<!-- 1990981087216&#45;&gt;1990981076416 -->
<g id="edge14" class="edge">
<title>1990981087216&#45;&gt;1990981076416</title>
<path fill="none" stroke="black" d="M1270.82,-128.55C1279.05,-125.01 1288.46,-120.97 1297.56,-117.06"/>
<polygon fill="black" stroke="black" points="1298.82,-120.33 1306.62,-113.16 1296.06,-113.89 1298.82,-120.33"/>
</g>
<!-- 1990981083664&#45;&gt;1990981075648 -->
<g id="edge21" class="edge">
<title>1990981083664&#45;&gt;1990981075648</title>
<path fill="none" stroke="black" d="M1458.29,-271C1469.8,-271 1483.68,-271 1496.88,-271"/>
<polygon fill="black" stroke="black" points="1496.73,-274.5 1506.73,-271 1496.73,-267.5 1496.73,-274.5"/>
</g>
<!-- 1990977925008&#45;&gt;1990977921984 -->
<g id="edge20" class="edge">
<title>1990977925008&#45;&gt;1990977921984</title>
<path fill="none" stroke="black" d="M1458.29,-199C1468.79,-199 1481.24,-199 1493.37,-199"/>
<polygon fill="black" stroke="black" points="1493.3,-202.5 1503.3,-199 1493.3,-195.5 1493.3,-202.5"/>
</g>
<!-- 1990981078432&#45;&gt;1990981080064 -->
<g id="edge19" class="edge">
<title>1990981078432&#45;&gt;1990981080064</title>
<path fill="none" stroke="black" d="M1458.29,-55C1467.8,-55 1478.92,-55 1489.95,-55"/>
<polygon fill="black" stroke="black" points="1489.82,-58.5 1499.82,-55 1489.82,-51.5 1489.82,-58.5"/>
</g>
<!-- 1990977927024&#45;&gt;1990977924144 -->
<g id="edge22" class="edge">
<title>1990977927024&#45;&gt;1990977924144</title>
<path fill="none" stroke="black" d="M1458.29,-127C1465.67,-127 1474.02,-127 1482.54,-127"/>
<polygon fill="black" stroke="black" points="1482.27,-130.5 1492.27,-127 1482.27,-123.5 1482.27,-130.5"/>
</g>
<!-- 1990977915264&#45;&gt;1990977918672 -->
<g id="edge27" class="edge">
<title>1990977915264&#45;&gt;1990977918672</title>
<path fill="none" stroke="black" d="M1679.46,-145.57C1697.48,-162.98 1724.61,-189.2 1744.84,-208.75"/>
<polygon fill="black" stroke="black" points="1742.33,-211.19 1751.95,-215.62 1747.19,-206.16 1742.33,-211.19"/>
</g>
<!-- 1990981090768&#45;&gt;1990981087264 -->
<g id="edge29" class="edge">
<title>1990981090768&#45;&gt;1990981087264</title>
<path fill="none" stroke="black" d="M1685.89,-48.81C1695.07,-46.59 1705.81,-43.99 1716.53,-41.4"/>
<polygon fill="black" stroke="black" points="1717.26,-44.83 1726.16,-39.08 1715.62,-38.02 1717.26,-44.83"/>
</g>
<!-- 1990977914976&#45;&gt;1990977918672 -->
<g id="edge30" class="edge">
<title>1990977914976&#45;&gt;1990977918672</title>
<path fill="none" stroke="black" d="M1685.33,-207.08C1693.1,-209.58 1702.03,-212.46 1711.13,-215.39"/>
<polygon fill="black" stroke="black" points="1709.81,-218.64 1720.4,-218.38 1711.95,-211.98 1709.81,-218.64"/>
</g>
<!-- 1990977921648&#45;&gt;1990977918672 -->
<g id="edge28" class="edge">
<title>1990977921648&#45;&gt;1990977918672</title>
<path fill="none" stroke="black" d="M1685.33,-262.92C1693.1,-260.42 1702.03,-257.54 1711.13,-254.61"/>
<polygon fill="black" stroke="black" points="1711.95,-258.02 1720.4,-251.62 1709.81,-251.36 1711.95,-258.02"/>
</g>
<!-- 1990977918096&#45;&gt;1990977920448 -->
<g id="edge33" class="edge">
<title>1990977918096&#45;&gt;1990977920448</title>
<path fill="none" stroke="black" d="M1913.37,-242.01C1921.13,-243.83 1929.89,-245.89 1938.47,-247.9"/>
<polygon fill="black" stroke="black" points="1937.54,-251.28 1948.07,-250.16 1939.14,-244.46 1937.54,-251.28"/>
</g>
<!-- 1990977918480&#45;&gt;1990977927312 -->
<g id="edge35" class="edge">
<title>1990977918480&#45;&gt;1990977927312</title>
<path fill="none" stroke="black" d="M2105.58,-270.34C2112.92,-270.71 2121.13,-271.13 2129.31,-271.55"/>
<polygon fill="black" stroke="black" points="2129.08,-275.04 2139.24,-272.05 2129.44,-268.05 2129.08,-275.04"/>
</g>
<!-- 1990977927408&#45;&gt;1990977922176 -->
<g id="edge37" class="edge">
<title>1990977927408&#45;&gt;1990977922176</title>
<path fill="none" stroke="black" d="M2306.08,-277.24C2313.44,-277.31 2321.73,-277.39 2330.14,-277.47"/>
<polygon fill="black" stroke="black" points="2330.05,-280.97 2340.08,-277.56 2330.12,-273.97 2330.05,-280.97"/>
</g>
<!-- 1990977924816&#45;&gt;1990977920832 -->
<g id="edge39" class="edge">
<title>1990977924816&#45;&gt;1990977920832</title>
<path fill="none" stroke="black" d="M2525.27,-279C2532.75,-279 2541.15,-279 2549.51,-279"/>
<polygon fill="black" stroke="black" points="2549.28,-282.5 2559.28,-279 2549.28,-275.5 2549.28,-282.5"/>
</g>
<!-- 1990981964800&#45;&gt;1990977922608 -->
<g id="edge42" class="edge">
<title>1990981964800&#45;&gt;1990977922608</title>
<path fill="none" stroke="black" d="M2724.21,-291.66C2733.84,-296.91 2745.33,-303.18 2756.42,-309.23"/>
<polygon fill="black" stroke="black" points="2754.65,-312.25 2765.1,-313.97 2758,-306.11 2754.65,-312.25"/>
</g>
<!-- 1990981964800&#45;&gt;1990977928128 -->
<g id="edge41" class="edge">
<title>1990981964800&#45;&gt;1990977928128</title>
<path fill="none" stroke="black" d="M2727.27,-279C2738.01,-279 2750.64,-279 2762.33,-279"/>
<polygon fill="black" stroke="black" points="2762.09,-282.5 2772.09,-279 2762.09,-275.5 2762.09,-282.5"/>
</g>
</g>
</svg>
