<?xml version="1.0" encoding="UTF-8" standalone="no"?>
<!DOCTYPE svg PUBLIC "-//W3C//DTD SVG 1.1//EN"
 "http://www.w3.org/Graphics/SVG/1.1/DTD/svg11.dtd">
<!-- Generated by graphviz version 11.0.0 (20240428.1522)
 -->
<!-- Title: imdf_net_1754051530.7206435 Pages: 1 -->
<svg width="2269pt" height="1321pt"
 viewBox="0.00 0.00 2268.50 1321.00" xmlns="http://www.w3.org/2000/svg" xmlns:xlink="http://www.w3.org/1999/xlink">
<g id="graph0" class="graph" transform="scale(1 1) rotate(0) translate(4 1317)">
<title>imdf_net_1754051530.7206435</title>
<polygon fill="white" stroke="none" points="-4,4 -4,-1317 2264.5,-1317 2264.5,4 -4,4"/>
<!-- 1990977848960 -->
<g id="node1" class="node">
<title>1990977848960</title>
<polygon fill="black" stroke="black" points="144,-1304 90,-1304 90,-1268 144,-1268 144,-1304"/>
</g>
<!-- 1990971924720 -->
<g id="node24" class="node">
<title>1990971924720</title>
<ellipse fill="white" stroke="black" cx="207" cy="-1286" rx="27" ry="27"/>
</g>
<!-- 1990977848960&#45;&gt;1990971924720 -->
<g id="edge2" class="edge">
<title>1990977848960&#45;&gt;1990971924720</title>
<path fill="none" stroke="black" d="M144.4,-1286C151.89,-1286 160.18,-1286 168.2,-1286"/>
<polygon fill="black" stroke="black" points="168.1,-1289.5 178.1,-1286 168.1,-1282.5 168.1,-1289.5"/>
</g>
<!-- 1990979481152 -->
<g id="node2" class="node">
<title>1990979481152</title>
<polygon fill="white" stroke="black" points="355,-1277 270,-1277 270,-1241 355,-1241 355,-1277"/>
<text text-anchor="middle" x="312.5" y="-1253.97" font-family="Times New Roman,serif" font-size="12.00">Data Ingestion</text>
</g>
<!-- 1990979471936 -->
<g id="node25" class="node">
<title>1990979471936</title>
<ellipse fill="white" stroke="black" cx="418" cy="-1255" rx="27" ry="27"/>
</g>
<!-- 1990979481152&#45;&gt;1990979471936 -->
<g id="edge4" class="edge">
<title>1990979481152&#45;&gt;1990979471936</title>
<path fill="none" stroke="black" d="M355.3,-1257.38C363.2,-1257.08 371.42,-1256.76 379.18,-1256.46"/>
<polygon fill="black" stroke="black" points="379.15,-1259.97 389.01,-1256.08 378.88,-1252.97 379.15,-1259.97"/>
</g>
<!-- 1990977730560 -->
<g id="node3" class="node">
<title>1990977730560</title>
<polygon fill="white" stroke="black" points="566,-1273 481,-1273 481,-1237 566,-1237 566,-1273"/>
<text text-anchor="middle" x="523.5" y="-1249.97" font-family="Times New Roman,serif" font-size="12.00">Risk Scanning</text>
</g>
<!-- 1990977732528 -->
<g id="node26" class="node">
<title>1990977732528</title>
<ellipse fill="white" stroke="black" cx="629" cy="-1255" rx="27" ry="27"/>
</g>
<!-- 1990977730560&#45;&gt;1990977732528 -->
<g id="edge6" class="edge">
<title>1990977730560&#45;&gt;1990977732528</title>
<path fill="none" stroke="black" d="M566.3,-1255C574.2,-1255 582.42,-1255 590.18,-1255"/>
<polygon fill="black" stroke="black" points="590.01,-1258.5 600.01,-1255 590.01,-1251.5 590.01,-1258.5"/>
</g>
<!-- 1990977726336 -->
<g id="node4" class="node">
<title>1990977726336</title>
<polygon fill="white" stroke="black" points="791.25,-1273 692,-1273 692,-1237 791.25,-1237 791.25,-1273"/>
<text text-anchor="middle" x="741.62" y="-1249.97" font-family="Times New Roman,serif" font-size="12.00">Demand Forecast</text>
</g>
<!-- 1990977728352 -->
<g id="node27" class="node">
<title>1990977728352</title>
<ellipse fill="white" stroke="black" cx="854.25" cy="-1255" rx="27" ry="27"/>
</g>
<!-- 1990977726336&#45;&gt;1990977728352 -->
<g id="edge8" class="edge">
<title>1990977726336&#45;&gt;1990977728352</title>
<path fill="none" stroke="black" d="M791.47,-1255C799.54,-1255 807.8,-1255 815.54,-1255"/>
<polygon fill="black" stroke="black" points="815.3,-1258.5 825.3,-1255 815.3,-1251.5 815.3,-1258.5"/>
</g>
<!-- 1990977723216 -->
<g id="node5" class="node">
<title>1990977723216</title>
<polygon fill="white" stroke="black" points="1011.25,-1273 917.25,-1273 917.25,-1237 1011.25,-1237 1011.25,-1273"/>
<text text-anchor="middle" x="964.25" y="-1249.97" font-family="Times New Roman,serif" font-size="12.00">Anomaly Detect</text>
</g>
<!-- 1990979107296 -->
<g id="node28" class="node">
<title>1990979107296</title>
<ellipse fill="white" stroke="black" cx="1074.25" cy="-1255" rx="27" ry="27"/>
</g>
<!-- 1990977723216&#45;&gt;1990979107296 -->
<g id="edge10" class="edge">
<title>1990977723216&#45;&gt;1990979107296</title>
<path fill="none" stroke="black" d="M1011.68,-1255C1019.56,-1255 1027.66,-1255 1035.28,-1255"/>
<polygon fill="black" stroke="black" points="1035.27,-1258.5 1045.27,-1255 1035.27,-1251.5 1035.27,-1258.5"/>
</g>
<!-- 1990979104896 -->
<g id="node6" class="node">
<title>1990979104896</title>
<polygon fill="black" stroke="black" points="1214.62,-1273 1160.62,-1273 1160.62,-1237 1214.62,-1237 1214.62,-1273"/>
</g>
<!-- 1990979095056 -->
<g id="node29" class="node">
<title>1990979095056</title>
<ellipse fill="white" stroke="black" cx="1301" cy="-1226" rx="27" ry="27"/>
</g>
<!-- 1990979104896&#45;&gt;1990979095056 -->
<g id="edge13" class="edge">
<title>1990979104896&#45;&gt;1990979095056</title>
<path fill="none" stroke="black" d="M1215.02,-1248.13C1229.51,-1244.35 1247.71,-1239.62 1263.54,-1235.49"/>
<polygon fill="black" stroke="black" points="1264.3,-1238.91 1273.1,-1233.01 1262.54,-1232.14 1264.3,-1238.91"/>
</g>
<!-- 1990979108208 -->
<g id="node7" class="node">
<title>1990979108208</title>
<polygon fill="white" stroke="black" points="1238,-1219 1137.25,-1219 1137.25,-1183 1238,-1183 1238,-1219"/>
<text text-anchor="middle" x="1187.62" y="-1195.97" font-family="Times New Roman,serif" font-size="12.00">Contingency Plan</text>
</g>
<!-- 1990979108208&#45;&gt;1990979095056 -->
<g id="edge14" class="edge">
<title>1990979108208&#45;&gt;1990979095056</title>
<path fill="none" stroke="black" d="M1238.45,-1212.18C1246.78,-1214.05 1255.28,-1215.96 1263.21,-1217.74"/>
<polygon fill="black" stroke="black" points="1262.31,-1221.13 1272.84,-1219.9 1263.85,-1214.3 1262.31,-1221.13"/>
</g>
<!-- 1990977721872 -->
<g id="node8" class="node">
<title>1990977721872</title>
<polygon fill="black" stroke="black" points="1418,-1244 1364,-1244 1364,-1208 1418,-1208 1418,-1244"/>
</g>
<!-- 1990981881632 -->
<g id="node30" class="node">
<title>1990981881632</title>
<ellipse fill="white" stroke="black" cx="1481" cy="-1226" rx="27" ry="27"/>
</g>
<!-- 1990977721872&#45;&gt;1990981881632 -->
<g id="edge16" class="edge">
<title>1990977721872&#45;&gt;1990981881632</title>
<path fill="none" stroke="black" d="M1418.4,-1226C1425.89,-1226 1434.18,-1226 1442.2,-1226"/>
<polygon fill="black" stroke="black" points="1442.1,-1229.5 1452.1,-1226 1442.1,-1222.5 1442.1,-1229.5"/>
</g>
<!-- 1990979470736 -->
<g id="node9" class="node">
<title>1990979470736</title>
<polygon fill="black" stroke="black" points="1598,-1257 1544,-1257 1544,-1221 1598,-1221 1598,-1257"/>
</g>
<!-- 1990977856304 -->
<g id="node40" class="node">
<title>1990977856304</title>
<ellipse fill="white" stroke="black" cx="1665" cy="-1251" rx="27" ry="27"/>
<ellipse fill="none" stroke="black" cx="1665" cy="-1251" rx="31" ry="31"/>
<text text-anchor="start" x="1648.5" y="-1235.6" font-family="Times New Roman,serif" font-size="32.00">■</text>
</g>
<!-- 1990979470736&#45;&gt;1990977856304 -->
<g id="edge28" class="edge">
<title>1990979470736&#45;&gt;1990977856304</title>
<path fill="none" stroke="black" d="M1598.12,-1242.41C1605.79,-1243.41 1614.37,-1244.53 1622.74,-1245.62"/>
<polygon fill="black" stroke="black" points="1622.05,-1249.06 1632.42,-1246.88 1622.96,-1242.12 1622.05,-1249.06"/>
</g>
<!-- 1990979479904 -->
<g id="node10" class="node">
<title>1990979479904</title>
<polygon fill="black" stroke="black" points="1598,-941 1544,-941 1544,-905 1598,-905 1598,-941"/>
</g>
<!-- 1990976167936 -->
<g id="node31" class="node">
<title>1990976167936</title>
<ellipse fill="white" stroke="black" cx="1665" cy="-1103" rx="27" ry="27"/>
</g>
<!-- 1990979479904&#45;&gt;1990976167936 -->
<g id="edge19" class="edge">
<title>1990979479904&#45;&gt;1990976167936</title>
<path fill="none" stroke="black" d="M1577.89,-941.1C1587.45,-969.21 1607.94,-1024.55 1634,-1067 1635.58,-1069.58 1637.34,-1072.16 1639.18,-1074.7"/>
<polygon fill="black" stroke="black" points="1636.27,-1076.66 1645.17,-1082.4 1641.79,-1072.36 1636.27,-1076.66"/>
</g>
<!-- 1990979098128 -->
<g id="node32" class="node">
<title>1990979098128</title>
<ellipse fill="white" stroke="black" cx="1665" cy="-599" rx="27" ry="27"/>
</g>
<!-- 1990979479904&#45;&gt;1990979098128 -->
<g id="edge26" class="edge">
<title>1990979479904&#45;&gt;1990979098128</title>
<path fill="none" stroke="black" d="M1572.91,-904.83C1575.89,-857.86 1587.96,-729.49 1634,-635 1635.32,-632.28 1636.9,-629.6 1638.62,-626.99"/>
<polygon fill="black" stroke="black" points="1641.26,-629.3 1644.41,-619.19 1635.64,-625.13 1641.26,-629.3"/>
</g>
<!-- 1990979475104 -->
<g id="node33" class="node">
<title>1990979475104</title>
<ellipse fill="white" stroke="black" cx="1665" cy="-1175" rx="27" ry="27"/>
</g>
<!-- 1990979479904&#45;&gt;1990979475104 -->
<g id="edge21" class="edge">
<title>1990979479904&#45;&gt;1990979475104</title>
<path fill="none" stroke="black" d="M1574.63,-941.31C1580.7,-979.78 1598.02,-1071.08 1634,-1139 1635.42,-1141.67 1637.05,-1144.33 1638.81,-1146.91"/>
<polygon fill="black" stroke="black" points="1635.86,-1148.81 1644.68,-1154.68 1641.45,-1144.59 1635.86,-1148.81"/>
</g>
<!-- 1990977722928 -->
<g id="node34" class="node">
<title>1990977722928</title>
<ellipse fill="white" stroke="black" cx="1665" cy="-887" rx="27" ry="27"/>
</g>
<!-- 1990979479904&#45;&gt;1990977722928 -->
<g id="edge25" class="edge">
<title>1990979479904&#45;&gt;1990977722928</title>
<path fill="none" stroke="black" d="M1598.12,-912.78C1607.64,-909.06 1618.56,-904.78 1628.74,-900.8"/>
<polygon fill="black" stroke="black" points="1629.95,-904.08 1637.99,-897.18 1627.4,-897.56 1629.95,-904.08"/>
</g>
<!-- 1990979098800 -->
<g id="node35" class="node">
<title>1990979098800</title>
<ellipse fill="white" stroke="black" cx="1665" cy="-671" rx="27" ry="27"/>
</g>
<!-- 1990979479904&#45;&gt;1990979098800 -->
<g id="edge20" class="edge">
<title>1990979479904&#45;&gt;1990979098800</title>
<path fill="none" stroke="black" d="M1574.63,-904.69C1580.7,-866.22 1598.02,-774.92 1634,-707 1635.42,-704.33 1637.05,-701.67 1638.81,-699.09"/>
<polygon fill="black" stroke="black" points="1641.45,-701.41 1644.68,-691.32 1635.86,-697.19 1641.45,-701.41"/>
</g>
<!-- 1990979099952 -->
<g id="node36" class="node">
<title>1990979099952</title>
<ellipse fill="white" stroke="black" cx="1665" cy="-1031" rx="27" ry="27"/>
</g>
<!-- 1990979479904&#45;&gt;1990979099952 -->
<g id="edge27" class="edge">
<title>1990979479904&#45;&gt;1990979099952</title>
<path fill="none" stroke="black" d="M1587.61,-941.32C1601.77,-957.95 1622.89,-982.74 1639.33,-1002.04"/>
<polygon fill="black" stroke="black" points="1636.62,-1004.25 1645.77,-1009.6 1641.95,-999.72 1636.62,-1004.25"/>
</g>
<!-- 1990979104224 -->
<g id="node37" class="node">
<title>1990979104224</title>
<ellipse fill="white" stroke="black" cx="1665" cy="-743" rx="27" ry="27"/>
</g>
<!-- 1990979479904&#45;&gt;1990979104224 -->
<g id="edge23" class="edge">
<title>1990979479904&#45;&gt;1990979104224</title>
<path fill="none" stroke="black" d="M1577.89,-904.9C1587.45,-876.79 1607.94,-821.45 1634,-779 1635.58,-776.42 1637.34,-773.84 1639.18,-771.3"/>
<polygon fill="black" stroke="black" points="1641.79,-773.64 1645.17,-763.6 1636.27,-769.34 1641.79,-773.64"/>
</g>
<!-- 1990980570864 -->
<g id="node38" class="node">
<title>1990980570864</title>
<ellipse fill="white" stroke="black" cx="1665" cy="-959" rx="27" ry="27"/>
</g>
<!-- 1990979479904&#45;&gt;1990980570864 -->
<g id="edge24" class="edge">
<title>1990979479904&#45;&gt;1990980570864</title>
<path fill="none" stroke="black" d="M1598.12,-933.22C1607.64,-936.94 1618.56,-941.22 1628.74,-945.2"/>
<polygon fill="black" stroke="black" points="1627.4,-948.44 1637.99,-948.82 1629.95,-941.92 1627.4,-948.44"/>
</g>
<!-- 1990977730416 -->
<g id="node39" class="node">
<title>1990977730416</title>
<ellipse fill="white" stroke="black" cx="1665" cy="-815" rx="27" ry="27"/>
</g>
<!-- 1990979479904&#45;&gt;1990977730416 -->
<g id="edge22" class="edge">
<title>1990979479904&#45;&gt;1990977730416</title>
<path fill="none" stroke="black" d="M1587.61,-904.68C1601.77,-888.05 1622.89,-863.26 1639.33,-843.96"/>
<polygon fill="black" stroke="black" points="1641.95,-846.28 1645.77,-836.4 1636.62,-841.75 1641.95,-846.28"/>
</g>
<!-- 1990975764864 -->
<g id="node11" class="node">
<title>1990975764864</title>
<polygon fill="white" stroke="black" points="1833.12,-1197 1737.62,-1197 1737.62,-1161 1833.12,-1161 1833.12,-1197"/>
<text text-anchor="middle" x="1785.38" y="-1173.97" font-family="Times New Roman,serif" font-size="12.00">Supplier Scoring</text>
</g>
<!-- 1990979105808 -->
<g id="node44" class="node">
<title>1990979105808</title>
<ellipse fill="white" stroke="black" cx="1901.75" cy="-1179" rx="27" ry="27"/>
</g>
<!-- 1990975764864&#45;&gt;1990979105808 -->
<g id="edge46" class="edge">
<title>1990975764864&#45;&gt;1990979105808</title>
<path fill="none" stroke="black" d="M1833.56,-1179C1843.33,-1179 1853.52,-1179 1862.91,-1179"/>
<polygon fill="black" stroke="black" points="1862.78,-1182.5 1872.78,-1179 1862.78,-1175.5 1862.78,-1182.5"/>
</g>
<!-- 1990979104608 -->
<g id="node55" class="node">
<title>1990979104608</title>
<ellipse fill="white" stroke="black" cx="1901.75" cy="-1251" rx="27" ry="27"/>
</g>
<!-- 1990975764864&#45;&gt;1990979104608 -->
<g id="edge41" class="edge">
<title>1990975764864&#45;&gt;1990979104608</title>
<path fill="none" stroke="black" d="M1815.53,-1197.35C1831.91,-1207.66 1852.36,-1220.54 1869.12,-1231.09"/>
<polygon fill="black" stroke="black" points="1866.9,-1233.83 1877.23,-1236.19 1870.63,-1227.9 1866.9,-1233.83"/>
</g>
<!-- 1990979106576 -->
<g id="node12" class="node">
<title>1990979106576</title>
<polygon fill="white" stroke="black" points="1832.75,-761 1738,-761 1738,-725 1832.75,-725 1832.75,-761"/>
<text text-anchor="middle" x="1785.38" y="-737.98" font-family="Times New Roman,serif" font-size="12.00">Production Sync</text>
</g>
<!-- 1990979102016 -->
<g id="node51" class="node">
<title>1990979102016</title>
<ellipse fill="white" stroke="black" cx="1901.75" cy="-747" rx="27" ry="27"/>
</g>
<!-- 1990979106576&#45;&gt;1990979102016 -->
<g id="edge53" class="edge">
<title>1990979106576&#45;&gt;1990979102016</title>
<path fill="none" stroke="black" d="M1833.23,-744.64C1843.23,-744.99 1853.66,-745.35 1863.26,-745.69"/>
<polygon fill="black" stroke="black" points="1862.83,-749.18 1872.94,-746.03 1863.07,-742.18 1862.83,-749.18"/>
</g>
<!-- 1990979107152 -->
<g id="node53" class="node">
<title>1990979107152</title>
<ellipse fill="white" stroke="black" cx="1901.75" cy="-171" rx="27" ry="27"/>
</g>
<!-- 1990979106576&#45;&gt;1990979107152 -->
<g id="edge55" class="edge">
<title>1990979106576&#45;&gt;1990979107152</title>
<path fill="none" stroke="black" d="M1815.83,-724.5C1824.73,-717.36 1833.51,-708.38 1838.75,-698 1888.01,-600.32 1837.3,-309.8 1874.75,-207 1875.5,-204.94 1876.41,-202.88 1877.43,-200.87"/>
<polygon fill="black" stroke="black" points="1880.31,-202.87 1882.46,-192.5 1874.31,-199.27 1880.31,-202.87"/>
</g>
<!-- 1990979104944 -->
<g id="node13" class="node">
<title>1990979104944</title>
<polygon fill="white" stroke="black" points="1829.75,-689 1741,-689 1741,-653 1829.75,-653 1829.75,-689"/>
<text text-anchor="middle" x="1785.38" y="-665.98" font-family="Times New Roman,serif" font-size="12.00">Logistics Align</text>
</g>
<!-- 1990979093472 -->
<g id="node41" class="node">
<title>1990979093472</title>
<ellipse fill="white" stroke="black" cx="1901.75" cy="-675" rx="27" ry="27"/>
</g>
<!-- 1990979104944&#45;&gt;1990979093472 -->
<g id="edge40" class="edge">
<title>1990979104944&#45;&gt;1990979093472</title>
<path fill="none" stroke="black" d="M1829.94,-672.52C1840.86,-672.91 1852.48,-673.31 1863.08,-673.68"/>
<polygon fill="black" stroke="black" points="1862.9,-677.18 1873.01,-674.03 1863.14,-670.18 1862.9,-677.18"/>
</g>
<!-- 1990979095200 -->
<g id="node49" class="node">
<title>1990979095200</title>
<ellipse fill="white" stroke="black" cx="1901.75" cy="-99" rx="27" ry="27"/>
</g>
<!-- 1990979104944&#45;&gt;1990979095200 -->
<g id="edge51" class="edge">
<title>1990979104944&#45;&gt;1990979095200</title>
<path fill="none" stroke="black" d="M1815.83,-652.5C1824.73,-645.36 1833.51,-636.38 1838.75,-626 1888.01,-528.32 1837.3,-237.8 1874.75,-135 1875.5,-132.94 1876.41,-130.88 1877.43,-128.87"/>
<polygon fill="black" stroke="black" points="1880.31,-130.87 1882.46,-120.5 1874.31,-127.27 1880.31,-130.87"/>
</g>
<!-- 1990977721152 -->
<g id="node14" class="node">
<title>1990977721152</title>
<polygon fill="white" stroke="black" points="1830.88,-905 1739.88,-905 1739.88,-869 1830.88,-869 1830.88,-905"/>
<text text-anchor="middle" x="1785.38" y="-881.98" font-family="Times New Roman,serif" font-size="12.00">Route Optimize</text>
</g>
<!-- 1990979100048 -->
<g id="node46" class="node">
<title>1990979100048</title>
<ellipse fill="white" stroke="black" cx="1901.75" cy="-891" rx="27" ry="27"/>
</g>
<!-- 1990977721152&#45;&gt;1990979100048 -->
<g id="edge45" class="edge">
<title>1990977721152&#45;&gt;1990979100048</title>
<path fill="none" stroke="black" d="M1831.25,-888.57C1841.78,-888.94 1852.89,-889.33 1863.06,-889.68"/>
<polygon fill="black" stroke="black" points="1862.86,-893.18 1872.97,-890.03 1863.1,-886.18 1862.86,-893.18"/>
</g>
<!-- 1990979108832 -->
<g id="node58" class="node">
<title>1990979108832</title>
<ellipse fill="white" stroke="black" cx="1901.75" cy="-315" rx="27" ry="27"/>
</g>
<!-- 1990977721152&#45;&gt;1990979108832 -->
<g id="edge48" class="edge">
<title>1990977721152&#45;&gt;1990979108832</title>
<path fill="none" stroke="black" d="M1815.83,-868.5C1824.73,-861.36 1833.51,-852.38 1838.75,-842 1888.01,-744.32 1837.3,-453.8 1874.75,-351 1875.5,-348.94 1876.41,-346.88 1877.43,-344.87"/>
<polygon fill="black" stroke="black" points="1880.31,-346.87 1882.46,-336.5 1874.31,-343.27 1880.31,-346.87"/>
</g>
<!-- 1990977732048 -->
<g id="node15" class="node">
<title>1990977732048</title>
<polygon fill="white" stroke="black" points="1829.75,-1121 1741,-1121 1741,-1085 1829.75,-1085 1829.75,-1121"/>
<text text-anchor="middle" x="1785.38" y="-1097.97" font-family="Times New Roman,serif" font-size="12.00">Inventory Sync</text>
</g>
<!-- 1990979093568 -->
<g id="node50" class="node">
<title>1990979093568</title>
<ellipse fill="white" stroke="black" cx="1901.75" cy="-1107" rx="27" ry="27"/>
</g>
<!-- 1990977732048&#45;&gt;1990979093568 -->
<g id="edge43" class="edge">
<title>1990977732048&#45;&gt;1990979093568</title>
<path fill="none" stroke="black" d="M1829.94,-1104.52C1840.86,-1104.91 1852.48,-1105.31 1863.08,-1105.68"/>
<polygon fill="black" stroke="black" points="1862.9,-1109.18 1873.01,-1106.03 1863.14,-1102.18 1862.9,-1109.18"/>
</g>
<!-- 1990979103456 -->
<g id="node56" class="node">
<title>1990979103456</title>
<ellipse fill="white" stroke="black" cx="1901.75" cy="-531" rx="27" ry="27"/>
</g>
<!-- 1990977732048&#45;&gt;1990979103456 -->
<g id="edge47" class="edge">
<title>1990977732048&#45;&gt;1990979103456</title>
<path fill="none" stroke="black" d="M1815.83,-1084.5C1824.73,-1077.36 1833.51,-1068.38 1838.75,-1058 1888.01,-960.32 1837.3,-669.8 1874.75,-567 1875.5,-564.94 1876.41,-562.88 1877.43,-560.87"/>
<polygon fill="black" stroke="black" points="1880.31,-562.87 1882.46,-552.5 1874.31,-559.27 1880.31,-562.87"/>
</g>
<!-- 1990979096016 -->
<g id="node16" class="node">
<title>1990979096016</title>
<polygon fill="white" stroke="black" points="1835.38,-617 1735.38,-617 1735.38,-581 1835.38,-581 1835.38,-617"/>
<text text-anchor="middle" x="1785.38" y="-593.98" font-family="Times New Roman,serif" font-size="12.00">Blockchain Audit</text>
</g>
<!-- 1990979103744 -->
<g id="node42" class="node">
<title>1990979103744</title>
<ellipse fill="white" stroke="black" cx="1901.75" cy="-27" rx="27" ry="27"/>
</g>
<!-- 1990979096016&#45;&gt;1990979103744 -->
<g id="edge52" class="edge">
<title>1990979096016&#45;&gt;1990979103744</title>
<path fill="none" stroke="black" d="M1786.41,-580.6C1787.13,-510.38 1795.38,-253.68 1874.75,-63 1875.59,-60.97 1876.57,-58.95 1877.65,-56.95"/>
<polygon fill="black" stroke="black" points="1880.51,-58.97 1882.81,-48.63 1874.56,-55.28 1880.51,-58.97"/>
</g>
<!-- 1990979099904 -->
<g id="node43" class="node">
<title>1990979099904</title>
<ellipse fill="white" stroke="black" cx="1901.75" cy="-603" rx="27" ry="27"/>
</g>
<!-- 1990979096016&#45;&gt;1990979099904 -->
<g id="edge49" class="edge">
<title>1990979096016&#45;&gt;1990979099904</title>
<path fill="none" stroke="black" d="M1835.54,-600.72C1844.7,-601.04 1854.14,-601.37 1862.89,-601.68"/>
<polygon fill="black" stroke="black" points="1862.68,-605.17 1872.8,-602.02 1862.93,-598.18 1862.68,-605.17"/>
</g>
<!-- 1990976166640 -->
<g id="node17" class="node">
<title>1990976166640</title>
<polygon fill="white" stroke="black" points="1833.5,-977 1737.25,-977 1737.25,-941 1833.5,-941 1833.5,-977"/>
<text text-anchor="middle" x="1785.38" y="-953.98" font-family="Times New Roman,serif" font-size="12.00">Contract Review</text>
</g>
<!-- 1990979100432 -->
<g id="node45" class="node">
<title>1990979100432</title>
<ellipse fill="white" stroke="black" cx="1901.75" cy="-387" rx="27" ry="27"/>
</g>
<!-- 1990976166640&#45;&gt;1990979100432 -->
<g id="edge44" class="edge">
<title>1990976166640&#45;&gt;1990979100432</title>
<path fill="none" stroke="black" d="M1815.83,-940.5C1824.73,-933.36 1833.51,-924.38 1838.75,-914 1888.01,-816.32 1837.3,-525.8 1874.75,-423 1875.5,-420.94 1876.41,-418.88 1877.43,-416.87"/>
<polygon fill="black" stroke="black" points="1880.31,-418.87 1882.46,-408.5 1874.31,-415.27 1880.31,-418.87"/>
</g>
<!-- 1990979107824 -->
<g id="node57" class="node">
<title>1990979107824</title>
<ellipse fill="white" stroke="black" cx="1901.75" cy="-963" rx="27" ry="27"/>
</g>
<!-- 1990976166640&#45;&gt;1990979107824 -->
<g id="edge38" class="edge">
<title>1990976166640&#45;&gt;1990979107824</title>
<path fill="none" stroke="black" d="M1833.89,-960.66C1843.64,-961 1853.78,-961.36 1863.13,-961.68"/>
<polygon fill="black" stroke="black" points="1862.82,-965.18 1872.94,-962.03 1863.07,-958.18 1862.82,-965.18"/>
</g>
<!-- 1990977720432 -->
<g id="node18" class="node">
<title>1990977720432</title>
<polygon fill="white" stroke="black" points="1833.5,-833 1737.25,-833 1737.25,-797 1833.5,-797 1833.5,-833"/>
<text text-anchor="middle" x="1785.38" y="-809.98" font-family="Times New Roman,serif" font-size="12.00">Order Validation</text>
</g>
<!-- 1990979095536 -->
<g id="node47" class="node">
<title>1990979095536</title>
<ellipse fill="white" stroke="black" cx="1901.75" cy="-819" rx="27" ry="27"/>
</g>
<!-- 1990977720432&#45;&gt;1990979095536 -->
<g id="edge54" class="edge">
<title>1990977720432&#45;&gt;1990979095536</title>
<path fill="none" stroke="black" d="M1833.89,-816.66C1843.64,-817 1853.78,-817.36 1863.13,-817.68"/>
<polygon fill="black" stroke="black" points="1862.82,-821.18 1872.94,-818.03 1863.07,-814.18 1862.82,-821.18"/>
</g>
<!-- 1990979092944 -->
<g id="node52" class="node">
<title>1990979092944</title>
<ellipse fill="white" stroke="black" cx="1901.75" cy="-243" rx="27" ry="27"/>
</g>
<!-- 1990977720432&#45;&gt;1990979092944 -->
<g id="edge39" class="edge">
<title>1990977720432&#45;&gt;1990979092944</title>
<path fill="none" stroke="black" d="M1815.83,-796.5C1824.73,-789.36 1833.51,-780.38 1838.75,-770 1888.01,-672.32 1837.3,-381.8 1874.75,-279 1875.5,-276.94 1876.41,-274.88 1877.43,-272.87"/>
<polygon fill="black" stroke="black" points="1880.31,-274.87 1882.46,-264.5 1874.31,-271.27 1880.31,-274.87"/>
</g>
<!-- 1990979094384 -->
<g id="node19" class="node">
<title>1990979094384</title>
<polygon fill="white" stroke="black" points="1838.75,-1049 1732,-1049 1732,-1013 1838.75,-1013 1838.75,-1049"/>
<text text-anchor="middle" x="1785.38" y="-1025.97" font-family="Times New Roman,serif" font-size="12.00">Compliance Check</text>
</g>
<!-- 1990979108112 -->
<g id="node48" class="node">
<title>1990979108112</title>
<ellipse fill="white" stroke="black" cx="1901.75" cy="-1035" rx="27" ry="27"/>
</g>
<!-- 1990979094384&#45;&gt;1990979108112 -->
<g id="edge42" class="edge">
<title>1990979094384&#45;&gt;1990979108112</title>
<path fill="none" stroke="black" d="M1839.21,-1032.85C1847.2,-1033.13 1855.3,-1033.41 1862.89,-1033.68"/>
<polygon fill="black" stroke="black" points="1862.67,-1037.17 1872.79,-1034.02 1862.92,-1030.17 1862.67,-1037.17"/>
</g>
<!-- 1990979095632 -->
<g id="node54" class="node">
<title>1990979095632</title>
<ellipse fill="white" stroke="black" cx="1901.75" cy="-459" rx="27" ry="27"/>
</g>
<!-- 1990979094384&#45;&gt;1990979095632 -->
<g id="edge50" class="edge">
<title>1990979094384&#45;&gt;1990979095632</title>
<path fill="none" stroke="black" d="M1815.83,-1012.5C1824.73,-1005.36 1833.51,-996.38 1838.75,-986 1888.01,-888.32 1837.3,-597.8 1874.75,-495 1875.5,-492.94 1876.41,-490.88 1877.43,-488.87"/>
<polygon fill="black" stroke="black" points="1880.31,-490.87 1882.46,-480.5 1874.31,-487.27 1880.31,-490.87"/>
</g>
<!-- 1990979106240 -->
<g id="node20" class="node">
<title>1990979106240</title>
<polygon fill="white" stroke="black" points="2075.62,-369 1969.62,-369 1969.62,-333 2075.62,-333 2075.62,-369"/>
<text text-anchor="middle" x="2022.62" y="-345.98" font-family="Times New Roman,serif" font-size="12.00">Stakeholder Notify</text>
</g>
<!-- 1990979105664 -->
<g id="node59" class="node">
<title>1990979105664</title>
<ellipse fill="white" stroke="black" cx="2143.5" cy="-567" rx="27" ry="27"/>
</g>
<!-- 1990979106240&#45;&gt;1990979105664 -->
<g id="edge74" class="edge">
<title>1990979106240&#45;&gt;1990979105664</title>
<path fill="none" stroke="black" d="M2033.76,-369.42C2053.8,-405.84 2098.76,-487.53 2124.15,-533.65"/>
<polygon fill="black" stroke="black" points="2120.93,-535.07 2128.82,-542.15 2127.07,-531.7 2120.93,-535.07"/>
</g>
<!-- 1990979105856 -->
<g id="node21" class="node">
<title>1990979105856</title>
<polygon fill="white" stroke="black" points="2080.5,-909 1964.75,-909 1964.75,-873 2080.5,-873 2080.5,-909"/>
<text text-anchor="middle" x="2022.62" y="-885.98" font-family="Times New Roman,serif" font-size="12.00">Performance Review</text>
</g>
<!-- 1990979092848 -->
<g id="node60" class="node">
<title>1990979092848</title>
<ellipse fill="white" stroke="black" cx="2143.5" cy="-891" rx="27" ry="27"/>
</g>
<!-- 1990979105856&#45;&gt;1990979092848 -->
<g id="edge75" class="edge">
<title>1990979105856&#45;&gt;1990979092848</title>
<path fill="none" stroke="black" d="M2080.97,-891C2089.08,-891 2097.23,-891 2104.84,-891"/>
<polygon fill="black" stroke="black" points="2104.73,-894.5 2114.73,-891 2104.73,-887.5 2104.73,-894.5"/>
</g>
<!-- 1990979470496 -->
<g id="node22" class="node">
<title>1990979470496</title>
<polygon fill="black" stroke="black" points="2260.5,-909 2206.5,-909 2206.5,-873 2260.5,-873 2260.5,-909"/>
</g>
<!-- 1990979470496&#45;&gt;1990971924720 -->
<g id="edge78" class="edge">
<title>1990979470496&#45;&gt;1990971924720</title>
<path fill="none" stroke="black" d="M2232.05,-909.27C2229.01,-989.92 2205.49,-1310 2023.62,-1310 417,-1310 417,-1310 417,-1310 356.54,-1310 286.87,-1299.96 245.19,-1292.87"/>
<polygon fill="black" stroke="black" points="245.9,-1289.44 235.45,-1291.17 244.7,-1296.34 245.9,-1289.44"/>
</g>
<!-- 1990977856112 -->
<g id="node23" class="node">
<title>1990977856112</title>
<ellipse fill="white" stroke="black" cx="27" cy="-1286" rx="27" ry="27"/>
<text text-anchor="start" x="9.75" y="-1268.7" font-family="Times New Roman,serif" font-size="34.00">●</text>
</g>
<!-- 1990977856112&#45;&gt;1990977848960 -->
<g id="edge1" class="edge">
<title>1990977856112&#45;&gt;1990977848960</title>
<path fill="none" stroke="black" d="M54.4,-1286C61.89,-1286 70.18,-1286 78.2,-1286"/>
<polygon fill="black" stroke="black" points="78.1,-1289.5 88.1,-1286 78.1,-1282.5 78.1,-1289.5"/>
</g>
<!-- 1990971924720&#45;&gt;1990979481152 -->
<g id="edge3" class="edge">
<title>1990971924720&#45;&gt;1990979481152</title>
<path fill="none" stroke="black" d="M233.58,-1279.33C241.24,-1277.33 249.94,-1275.06 258.68,-1272.78"/>
<polygon fill="black" stroke="black" points="259.44,-1276.2 268.23,-1270.29 257.67,-1269.42 259.44,-1276.2"/>
</g>
<!-- 1990979471936&#45;&gt;1990977730560 -->
<g id="edge5" class="edge">
<title>1990979471936&#45;&gt;1990977730560</title>
<path fill="none" stroke="black" d="M445.39,-1255C452.8,-1255 461.13,-1255 469.51,-1255"/>
<polygon fill="black" stroke="black" points="469.36,-1258.5 479.36,-1255 469.36,-1251.5 469.36,-1258.5"/>
</g>
<!-- 1990977732528&#45;&gt;1990977726336 -->
<g id="edge7" class="edge">
<title>1990977732528&#45;&gt;1990977726336</title>
<path fill="none" stroke="black" d="M656.5,-1255C663.79,-1255 672.02,-1255 680.39,-1255"/>
<polygon fill="black" stroke="black" points="680.32,-1258.5 690.32,-1255 680.32,-1251.5 680.32,-1258.5"/>
</g>
<!-- 1990977728352&#45;&gt;1990977723216 -->
<g id="edge9" class="edge">
<title>1990977728352&#45;&gt;1990977723216</title>
<path fill="none" stroke="black" d="M881.67,-1255C888.97,-1255 897.19,-1255 905.52,-1255"/>
<polygon fill="black" stroke="black" points="905.38,-1258.5 915.38,-1255 905.38,-1251.5 905.38,-1258.5"/>
</g>
<!-- 1990979107296&#45;&gt;1990979104896 -->
<g id="edge12" class="edge">
<title>1990979107296&#45;&gt;1990979104896</title>
<path fill="none" stroke="black" d="M1101.64,-1255C1115.79,-1255 1133.47,-1255 1149.03,-1255"/>
<polygon fill="black" stroke="black" points="1148.91,-1258.5 1158.91,-1255 1148.91,-1251.5 1148.91,-1258.5"/>
</g>
<!-- 1990979107296&#45;&gt;1990979108208 -->
<g id="edge11" class="edge">
<title>1990979107296&#45;&gt;1990979108208</title>
<path fill="none" stroke="black" d="M1099.14,-1243.42C1110.65,-1237.83 1124.89,-1230.93 1138.51,-1224.33"/>
<polygon fill="black" stroke="black" points="1139.92,-1227.54 1147.39,-1220.02 1136.87,-1221.24 1139.92,-1227.54"/>
</g>
<!-- 1990979095056&#45;&gt;1990977721872 -->
<g id="edge15" class="edge">
<title>1990979095056&#45;&gt;1990977721872</title>
<path fill="none" stroke="black" d="M1328.4,-1226C1335.89,-1226 1344.18,-1226 1352.2,-1226"/>
<polygon fill="black" stroke="black" points="1352.1,-1229.5 1362.1,-1226 1352.1,-1222.5 1352.1,-1229.5"/>
</g>
<!-- 1990981881632&#45;&gt;1990979470736 -->
<g id="edge18" class="edge">
<title>1990981881632&#45;&gt;1990979470736</title>
<path fill="none" stroke="black" d="M1507.93,-1229.83C1515.58,-1230.96 1524.11,-1232.22 1532.34,-1233.44"/>
<polygon fill="black" stroke="black" points="1531.75,-1236.89 1542.15,-1234.89 1532.77,-1229.96 1531.75,-1236.89"/>
</g>
<!-- 1990981881632&#45;&gt;1990979479904 -->
<g id="edge17" class="edge">
<title>1990981881632&#45;&gt;1990979479904</title>
<path fill="none" stroke="black" d="M1489.58,-1199.9C1505.96,-1143.52 1544.54,-1010.66 1561.62,-951.86"/>
<polygon fill="black" stroke="black" points="1564.88,-953.17 1564.31,-942.59 1558.16,-951.22 1564.88,-953.17"/>
</g>
<!-- 1990976167936&#45;&gt;1990977732048 -->
<g id="edge30" class="edge">
<title>1990976167936&#45;&gt;1990977732048</title>
<path fill="none" stroke="black" d="M1692.27,-1103C1703.23,-1103 1716.39,-1103 1729.3,-1103"/>
<polygon fill="black" stroke="black" points="1728.99,-1106.5 1738.99,-1103 1728.99,-1099.5 1728.99,-1106.5"/>
</g>
<!-- 1990979098128&#45;&gt;1990979096016 -->
<g id="edge36" class="edge">
<title>1990979098128&#45;&gt;1990979096016</title>
<path fill="none" stroke="black" d="M1692.27,-599C1701.77,-599 1712.93,-599 1724.15,-599"/>
<polygon fill="black" stroke="black" points="1723.8,-602.5 1733.8,-599 1723.8,-595.5 1723.8,-602.5"/>
</g>
<!-- 1990979475104&#45;&gt;1990975764864 -->
<g id="edge33" class="edge">
<title>1990979475104&#45;&gt;1990975764864</title>
<path fill="none" stroke="black" d="M1692.27,-1175.89C1702.29,-1176.23 1714.14,-1176.63 1725.96,-1177.03"/>
<polygon fill="black" stroke="black" points="1725.59,-1180.52 1735.7,-1177.36 1725.82,-1173.52 1725.59,-1180.52"/>
</g>
<!-- 1990977722928&#45;&gt;1990977721152 -->
<g id="edge35" class="edge">
<title>1990977722928&#45;&gt;1990977721152</title>
<path fill="none" stroke="black" d="M1692.27,-887C1702.91,-887 1715.63,-887 1728.17,-887"/>
<polygon fill="black" stroke="black" points="1728.06,-890.5 1738.06,-887 1728.06,-883.5 1728.06,-890.5"/>
</g>
<!-- 1990979098800&#45;&gt;1990979104944 -->
<g id="edge32" class="edge">
<title>1990979098800&#45;&gt;1990979104944</title>
<path fill="none" stroke="black" d="M1692.27,-671C1703.23,-671 1716.39,-671 1729.3,-671"/>
<polygon fill="black" stroke="black" points="1728.99,-674.5 1738.99,-671 1728.99,-667.5 1728.99,-674.5"/>
</g>
<!-- 1990979099952&#45;&gt;1990979094384 -->
<g id="edge31" class="edge">
<title>1990979099952&#45;&gt;1990979094384</title>
<path fill="none" stroke="black" d="M1692.27,-1031C1700.78,-1031 1710.63,-1031 1720.65,-1031"/>
<polygon fill="black" stroke="black" points="1720.46,-1034.5 1730.46,-1031 1720.46,-1027.5 1720.46,-1034.5"/>
</g>
<!-- 1990979104224&#45;&gt;1990979106576 -->
<g id="edge34" class="edge">
<title>1990979104224&#45;&gt;1990979106576</title>
<path fill="none" stroke="black" d="M1692.27,-743C1702.39,-743 1714.39,-743 1726.32,-743"/>
<polygon fill="black" stroke="black" points="1726.17,-746.5 1736.17,-743 1726.17,-739.5 1726.17,-746.5"/>
</g>
<!-- 1990980570864&#45;&gt;1990976166640 -->
<g id="edge37" class="edge">
<title>1990980570864&#45;&gt;1990976166640</title>
<path fill="none" stroke="black" d="M1692.27,-959C1702.29,-959 1714.14,-959 1725.96,-959"/>
<polygon fill="black" stroke="black" points="1725.7,-962.5 1735.7,-959 1725.7,-955.5 1725.7,-962.5"/>
</g>
<!-- 1990977730416&#45;&gt;1990977720432 -->
<g id="edge29" class="edge">
<title>1990977730416&#45;&gt;1990977720432</title>
<path fill="none" stroke="black" d="M1692.27,-815C1702.29,-815 1714.14,-815 1725.96,-815"/>
<polygon fill="black" stroke="black" points="1725.7,-818.5 1735.7,-815 1725.7,-811.5 1725.7,-818.5"/>
</g>
<!-- 1990979093472&#45;&gt;1990979105856 -->
<g id="edge63" class="edge">
<title>1990979093472&#45;&gt;1990979105856</title>
<path fill="none" stroke="black" d="M1918.96,-696.34C1922.33,-701.08 1925.76,-706.14 1928.75,-711 1960.45,-762.59 1991.52,-826.21 2008.47,-862.34"/>
<polygon fill="black" stroke="black" points="2005.23,-863.67 2012.62,-871.26 2011.57,-860.71 2005.23,-863.67"/>
</g>
<!-- 1990979103744&#45;&gt;1990979106240 -->
<g id="edge56" class="edge">
<title>1990979103744&#45;&gt;1990979106240</title>
<path fill="none" stroke="black" d="M1919.31,-47.61C1922.74,-52.48 1926.1,-57.77 1928.75,-63 1973.98,-152.33 2003.34,-268.27 2015.39,-321.69"/>
<polygon fill="black" stroke="black" points="2011.92,-322.22 2017.5,-331.23 2018.76,-320.71 2011.92,-322.22"/>
</g>
<!-- 1990979099904&#45;&gt;1990979105856 -->
<g id="edge72" class="edge">
<title>1990979099904&#45;&gt;1990979105856</title>
<path fill="none" stroke="black" d="M1919.15,-623.69C1922.59,-628.55 1926,-633.83 1928.75,-639 1969.44,-715.42 1999.97,-813.56 2013.66,-861.71"/>
<polygon fill="black" stroke="black" points="2010.23,-862.42 2016.3,-871.1 2016.97,-860.53 2010.23,-862.42"/>
</g>
<!-- 1990979105808&#45;&gt;1990979106240 -->
<g id="edge68" class="edge">
<title>1990979105808&#45;&gt;1990979106240</title>
<path fill="none" stroke="black" d="M1920.08,-1158.73C1923.47,-1153.85 1926.63,-1148.46 1928.75,-1143 1935.84,-1124.78 2002.74,-521.93 2018.37,-380.49"/>
<polygon fill="black" stroke="black" points="2021.82,-381.15 2019.44,-370.83 2014.86,-380.38 2021.82,-381.15"/>
</g>
<!-- 1990979100432&#45;&gt;1990979106240 -->
<g id="edge64" class="edge">
<title>1990979100432&#45;&gt;1990979106240</title>
<path fill="none" stroke="black" d="M1927.96,-379.37C1937.06,-376.61 1947.78,-373.36 1958.66,-370.07"/>
<polygon fill="black" stroke="black" points="1959.53,-373.46 1968.09,-367.21 1957.5,-366.76 1959.53,-373.46"/>
</g>
<!-- 1990979100048&#45;&gt;1990979105856 -->
<g id="edge71" class="edge">
<title>1990979100048&#45;&gt;1990979105856</title>
<path fill="none" stroke="black" d="M1929.13,-891C1936.46,-891 1944.76,-891 1953.32,-891"/>
<polygon fill="black" stroke="black" points="1953.14,-894.5 1963.14,-891 1953.14,-887.5 1953.14,-894.5"/>
</g>
<!-- 1990979095536&#45;&gt;1990979105856 -->
<g id="edge59" class="edge">
<title>1990979095536&#45;&gt;1990979105856</title>
<path fill="none" stroke="black" d="M1925.39,-832.71C1941.26,-842.33 1962.91,-855.44 1981.66,-866.79"/>
<polygon fill="black" stroke="black" points="1979.77,-869.74 1990.14,-871.93 1983.39,-863.75 1979.77,-869.74"/>
</g>
<!-- 1990979108112&#45;&gt;1990979105856 -->
<g id="edge73" class="edge">
<title>1990979108112&#45;&gt;1990979105856</title>
<path fill="none" stroke="black" d="M1919.78,-1014.37C1940.66,-989.08 1976.11,-946.14 1999.19,-918.17"/>
<polygon fill="black" stroke="black" points="2001.88,-920.42 2005.54,-910.48 1996.48,-915.96 2001.88,-920.42"/>
</g>
<!-- 1990979095200&#45;&gt;1990979106240 -->
<g id="edge57" class="edge">
<title>1990979095200&#45;&gt;1990979106240</title>
<path fill="none" stroke="black" d="M1919.22,-120.19C1922.58,-124.94 1925.94,-130.04 1928.75,-135 1964.99,-198.92 1996.18,-279.73 2011.51,-322.09"/>
<polygon fill="black" stroke="black" points="2008.14,-323.07 2014.81,-331.3 2014.73,-320.71 2008.14,-323.07"/>
</g>
<!-- 1990979093568&#45;&gt;1990979105856 -->
<g id="edge70" class="edge">
<title>1990979093568&#45;&gt;1990979105856</title>
<path fill="none" stroke="black" d="M1918.96,-1085.66C1922.33,-1080.92 1925.76,-1075.86 1928.75,-1071 1960.45,-1019.41 1991.52,-955.79 2008.47,-919.66"/>
<polygon fill="black" stroke="black" points="2011.57,-921.29 2012.62,-910.74 2005.23,-918.33 2011.57,-921.29"/>
</g>
<!-- 1990979102016&#45;&gt;1990979105856 -->
<g id="edge66" class="edge">
<title>1990979102016&#45;&gt;1990979105856</title>
<path fill="none" stroke="black" d="M1919.78,-767.63C1940.66,-792.92 1976.11,-835.86 1999.19,-863.83"/>
<polygon fill="black" stroke="black" points="1996.48,-866.04 2005.54,-871.52 2001.88,-861.58 1996.48,-866.04"/>
</g>
<!-- 1990979092944&#45;&gt;1990979106240 -->
<g id="edge60" class="edge">
<title>1990979092944&#45;&gt;1990979106240</title>
<path fill="none" stroke="black" d="M1922.38,-260.83C1941.71,-278.39 1971.43,-305.4 1993.31,-325.28"/>
<polygon fill="black" stroke="black" points="1990.69,-327.63 2000.45,-331.76 1995.4,-322.45 1990.69,-327.63"/>
</g>
<!-- 1990979107152&#45;&gt;1990979106240 -->
<g id="edge61" class="edge">
<title>1990979107152&#45;&gt;1990979106240</title>
<path fill="none" stroke="black" d="M1918.61,-192.57C1922,-197.29 1925.53,-202.29 1928.75,-207 1955.91,-246.78 1985.87,-293.84 2004.22,-323.06"/>
<polygon fill="black" stroke="black" points="2001.12,-324.71 2009.4,-331.33 2007.05,-321 2001.12,-324.71"/>
</g>
<!-- 1990979095632&#45;&gt;1990979106240 -->
<g id="edge67" class="edge">
<title>1990979095632&#45;&gt;1990979106240</title>
<path fill="none" stroke="black" d="M1922.38,-441.17C1941.71,-423.61 1971.43,-396.6 1993.31,-376.72"/>
<polygon fill="black" stroke="black" points="1995.4,-379.55 2000.45,-370.24 1990.69,-374.37 1995.4,-379.55"/>
</g>
<!-- 1990979104608&#45;&gt;1990979105856 -->
<g id="edge58" class="edge">
<title>1990979104608&#45;&gt;1990979105856</title>
<path fill="none" stroke="black" d="M1919.44,-1230.45C1922.86,-1225.58 1926.19,-1220.27 1928.75,-1215 1978.41,-1112.8 2006.17,-979.22 2016.68,-920.67"/>
<polygon fill="black" stroke="black" points="2020.13,-921.3 2018.4,-910.85 2013.23,-920.09 2020.13,-921.3"/>
</g>
<!-- 1990979103456&#45;&gt;1990979106240 -->
<g id="edge62" class="edge">
<title>1990979103456&#45;&gt;1990979106240</title>
<path fill="none" stroke="black" d="M1918.61,-509.43C1922,-504.71 1925.53,-499.71 1928.75,-495 1955.91,-455.22 1985.87,-408.16 2004.22,-378.94"/>
<polygon fill="black" stroke="black" points="2007.05,-381 2009.4,-370.67 2001.12,-377.29 2007.05,-381"/>
</g>
<!-- 1990979107824&#45;&gt;1990979105856 -->
<g id="edge65" class="edge">
<title>1990979107824&#45;&gt;1990979105856</title>
<path fill="none" stroke="black" d="M1925.39,-949.29C1941.26,-939.67 1962.91,-926.56 1981.66,-915.21"/>
<polygon fill="black" stroke="black" points="1983.39,-918.25 1990.14,-910.07 1979.77,-912.26 1983.39,-918.25"/>
</g>
<!-- 1990979108832&#45;&gt;1990979106240 -->
<g id="edge69" class="edge">
<title>1990979108832&#45;&gt;1990979106240</title>
<path fill="none" stroke="black" d="M1927.96,-322.63C1937.06,-325.39 1947.78,-328.64 1958.66,-331.93"/>
<polygon fill="black" stroke="black" points="1957.5,-335.24 1968.09,-334.79 1959.53,-328.54 1957.5,-335.24"/>
</g>
<!-- 1990979105664&#45;&gt;1990979470496 -->
<g id="edge76" class="edge">
<title>1990979105664&#45;&gt;1990979470496</title>
<path fill="none" stroke="black" d="M2151.63,-593.24C2167.85,-652.97 2207.44,-798.72 2224.48,-861.47"/>
<polygon fill="black" stroke="black" points="2221.09,-862.33 2227.09,-871.07 2227.84,-860.5 2221.09,-862.33"/>
</g>
<!-- 1990979092848&#45;&gt;1990979470496 -->
<g id="edge77" class="edge">
<title>1990979092848&#45;&gt;1990979470496</title>
<path fill="none" stroke="black" d="M2170.9,-891C2178.39,-891 2186.68,-891 2194.7,-891"/>
<polygon fill="black" stroke="black" points="2194.6,-894.5 2204.6,-891 2194.6,-887.5 2194.6,-894.5"/>
</g>
</g>
</svg>
