<?xml version="1.0" encoding="UTF-8" standalone="no"?>
<!DOCTYPE svg PUBLIC "-//W3C//DTD SVG 1.1//EN"
 "http://www.w3.org/Graphics/SVG/1.1/DTD/svg11.dtd">
<!-- Generated by graphviz version 11.0.0 (20240428.1522)
 -->
<!-- Title: imdf_net_1754053393.7302685 Pages: 1 -->
<svg width="2359pt" height="278pt"
 viewBox="0.00 0.00 2359.25 278.00" xmlns="http://www.w3.org/2000/svg" xmlns:xlink="http://www.w3.org/1999/xlink">
<g id="graph0" class="graph" transform="scale(1 1) rotate(0) translate(4 274)">
<title>imdf_net_1754053393.7302685</title>
<polygon fill="white" stroke="none" points="-4,4 -4,-274 2355.25,-274 2355.25,4 -4,4"/>
<!-- 2892507927696 -->
<g id="node1" class="node">
<title>2892507927696</title>
<polygon fill="white" stroke="black" points="160.75,-153 90,-153 90,-117 160.75,-117 160.75,-153"/>
<text text-anchor="middle" x="125.38" y="-129.97" font-family="Times New Roman,serif" font-size="12.00">Site Survey</text>
</g>
<!-- 2892507926016 -->
<g id="node20" class="node">
<title>2892507926016</title>
<ellipse fill="white" stroke="black" cx="223.75" cy="-171" rx="27" ry="27"/>
</g>
<!-- 2892507927696&#45;&gt;2892507926016 -->
<g id="edge2" class="edge">
<title>2892507927696&#45;&gt;2892507926016</title>
<path fill="none" stroke="black" d="M161.17,-148C169.64,-151.16 178.71,-154.55 187.22,-157.73"/>
<polygon fill="black" stroke="black" points="185.97,-161 196.56,-161.22 188.42,-154.44 185.97,-161"/>
</g>
<!-- 2892507927312 -->
<g id="node21" class="node">
<title>2892507927312</title>
<ellipse fill="white" stroke="black" cx="223.75" cy="-99" rx="27" ry="27"/>
</g>
<!-- 2892507927696&#45;&gt;2892507927312 -->
<g id="edge3" class="edge">
<title>2892507927696&#45;&gt;2892507927312</title>
<path fill="none" stroke="black" d="M161.17,-122C169.64,-118.84 178.71,-115.45 187.22,-112.27"/>
<polygon fill="black" stroke="black" points="188.42,-115.56 196.56,-108.78 185.97,-109 188.42,-115.56"/>
</g>
<!-- 2892507925008 -->
<g id="node2" class="node">
<title>2892507925008</title>
<polygon fill="white" stroke="black" points="373.25,-189 286.75,-189 286.75,-153 373.25,-153 373.25,-189"/>
<text text-anchor="middle" x="330" y="-165.97" font-family="Times New Roman,serif" font-size="12.00">Design Layout</text>
</g>
<!-- 2892507854224 -->
<g id="node22" class="node">
<title>2892507854224</title>
<ellipse fill="white" stroke="black" cx="436.25" cy="-171" rx="27" ry="27"/>
</g>
<!-- 2892507925008&#45;&gt;2892507854224 -->
<g id="edge7" class="edge">
<title>2892507925008&#45;&gt;2892507854224</title>
<path fill="none" stroke="black" d="M373.7,-171C381.62,-171 389.84,-171 397.59,-171"/>
<polygon fill="black" stroke="black" points="397.39,-174.5 407.39,-171 397.39,-167.5 397.39,-174.5"/>
</g>
<!-- 2892507925056 -->
<g id="node3" class="node">
<title>2892507925056</title>
<polygon fill="white" stroke="black" points="370.25,-117 289.75,-117 289.75,-81 370.25,-81 370.25,-117"/>
<text text-anchor="middle" x="330" y="-93.97" font-family="Times New Roman,serif" font-size="12.00">Permit Check</text>
</g>
<!-- 2892507853744 -->
<g id="node23" class="node">
<title>2892507853744</title>
<ellipse fill="white" stroke="black" cx="436.25" cy="-99" rx="27" ry="27"/>
</g>
<!-- 2892507925056&#45;&gt;2892507853744 -->
<g id="edge6" class="edge">
<title>2892507925056&#45;&gt;2892507853744</title>
<path fill="none" stroke="black" d="M370.71,-99C379.49,-99 388.77,-99 397.48,-99"/>
<polygon fill="black" stroke="black" points="397.37,-102.5 407.37,-99 397.37,-95.5 397.37,-102.5"/>
</g>
<!-- 2892507930144 -->
<g id="node4" class="node">
<title>2892507930144</title>
<polygon fill="white" stroke="black" points="600,-153 499.25,-153 499.25,-117 600,-117 600,-153"/>
<text text-anchor="middle" x="549.62" y="-129.97" font-family="Times New Roman,serif" font-size="12.00">Material Sourcing</text>
</g>
<!-- 2892505428864 -->
<g id="node24" class="node">
<title>2892505428864</title>
<ellipse fill="white" stroke="black" cx="663" cy="-243" rx="27" ry="27"/>
</g>
<!-- 2892507930144&#45;&gt;2892505428864 -->
<g id="edge12" class="edge">
<title>2892507930144&#45;&gt;2892505428864</title>
<path fill="none" stroke="black" d="M569.52,-153.32C587.44,-170.7 614.56,-197 634.81,-216.63"/>
<polygon fill="black" stroke="black" points="632.31,-219.09 641.93,-223.54 637.18,-214.06 632.31,-219.09"/>
</g>
<!-- 2892505423632 -->
<g id="node25" class="node">
<title>2892505423632</title>
<ellipse fill="white" stroke="black" cx="663" cy="-171" rx="27" ry="27"/>
</g>
<!-- 2892507930144&#45;&gt;2892505423632 -->
<g id="edge13" class="edge">
<title>2892507930144&#45;&gt;2892505423632</title>
<path fill="none" stroke="black" d="M600.45,-151.1C609.13,-153.91 618,-156.78 626.21,-159.43"/>
<polygon fill="black" stroke="black" points="624.88,-162.68 635.47,-162.43 627.03,-156.02 624.88,-162.68"/>
</g>
<!-- 2892505417392 -->
<g id="node26" class="node">
<title>2892505417392</title>
<ellipse fill="white" stroke="black" cx="663" cy="-99" rx="27" ry="27"/>
</g>
<!-- 2892507930144&#45;&gt;2892505417392 -->
<g id="edge10" class="edge">
<title>2892507930144&#45;&gt;2892505417392</title>
<path fill="none" stroke="black" d="M600.45,-118.9C609.13,-116.09 618,-113.22 626.21,-110.57"/>
<polygon fill="black" stroke="black" points="627.03,-113.98 635.47,-107.57 624.88,-107.32 627.03,-113.98"/>
</g>
<!-- 2892507931728 -->
<g id="node27" class="node">
<title>2892507931728</title>
<ellipse fill="white" stroke="black" cx="663" cy="-27" rx="27" ry="27"/>
</g>
<!-- 2892507930144&#45;&gt;2892507931728 -->
<g id="edge11" class="edge">
<title>2892507930144&#45;&gt;2892507931728</title>
<path fill="none" stroke="black" d="M569.52,-116.68C587.44,-99.3 614.56,-73 634.81,-53.37"/>
<polygon fill="black" stroke="black" points="637.18,-55.94 641.93,-46.46 632.31,-50.91 637.18,-55.94"/>
</g>
<!-- 2892505422336 -->
<g id="node5" class="node">
<title>2892505422336</title>
<polygon fill="white" stroke="black" points="810.25,-261 728.25,-261 728.25,-225 810.25,-225 810.25,-261"/>
<text text-anchor="middle" x="769.25" y="-237.97" font-family="Times New Roman,serif" font-size="12.00">Water System</text>
</g>
<!-- 2892507850048 -->
<g id="node29" class="node">
<title>2892507850048</title>
<ellipse fill="white" stroke="black" cx="875.5" cy="-243" rx="27" ry="27"/>
</g>
<!-- 2892505422336&#45;&gt;2892507850048 -->
<g id="edge18" class="edge">
<title>2892505422336&#45;&gt;2892507850048</title>
<path fill="none" stroke="black" d="M810.56,-243C819.22,-243 828.35,-243 836.91,-243"/>
<polygon fill="black" stroke="black" points="836.61,-246.5 846.61,-243 836.61,-239.5 836.61,-246.5"/>
</g>
<!-- 2892505420608 -->
<g id="node6" class="node">
<title>2892505420608</title>
<polygon fill="white" stroke="black" points="812.5,-117 726,-117 726,-81 812.5,-81 812.5,-117"/>
<text text-anchor="middle" x="769.25" y="-93.97" font-family="Times New Roman,serif" font-size="12.00">Setup Lighting</text>
</g>
<!-- 2892507850528 -->
<g id="node28" class="node">
<title>2892507850528</title>
<ellipse fill="white" stroke="black" cx="875.5" cy="-99" rx="27" ry="27"/>
</g>
<!-- 2892505420608&#45;&gt;2892507850528 -->
<g id="edge19" class="edge">
<title>2892505420608&#45;&gt;2892507850528</title>
<path fill="none" stroke="black" d="M812.95,-99C820.87,-99 829.09,-99 836.84,-99"/>
<polygon fill="black" stroke="black" points="836.64,-102.5 846.64,-99 836.64,-95.5 836.64,-102.5"/>
</g>
<!-- 2892505418208 -->
<g id="node7" class="node">
<title>2892505418208</title>
<polygon fill="white" stroke="black" points="811.38,-45 727.12,-45 727.12,-9 811.38,-9 811.38,-45"/>
<text text-anchor="middle" x="769.25" y="-21.98" font-family="Times New Roman,serif" font-size="12.00">Install Sensors</text>
</g>
<!-- 2892507851104 -->
<g id="node31" class="node">
<title>2892507851104</title>
<ellipse fill="white" stroke="black" cx="875.5" cy="-27" rx="27" ry="27"/>
</g>
<!-- 2892505418208&#45;&gt;2892507851104 -->
<g id="edge20" class="edge">
<title>2892505418208&#45;&gt;2892507851104</title>
<path fill="none" stroke="black" d="M811.75,-27C819.99,-27 828.6,-27 836.71,-27"/>
<polygon fill="black" stroke="black" points="836.62,-30.5 846.62,-27 836.62,-23.5 836.62,-30.5"/>
</g>
<!-- 2892505430256 -->
<g id="node8" class="node">
<title>2892505430256</title>
<polygon fill="white" stroke="black" points="808,-189 730.5,-189 730.5,-153 808,-153 808,-189"/>
<text text-anchor="middle" x="769.25" y="-165.97" font-family="Times New Roman,serif" font-size="12.00">Nutrient Mix</text>
</g>
<!-- 2892507848128 -->
<g id="node30" class="node">
<title>2892507848128</title>
<ellipse fill="white" stroke="black" cx="875.5" cy="-171" rx="27" ry="27"/>
</g>
<!-- 2892505430256&#45;&gt;2892507848128 -->
<g id="edge21" class="edge">
<title>2892505430256&#45;&gt;2892507848128</title>
<path fill="none" stroke="black" d="M808.48,-171C817.71,-171 827.57,-171 836.78,-171"/>
<polygon fill="black" stroke="black" points="836.49,-174.5 846.49,-171 836.49,-167.5 836.49,-174.5"/>
</g>
<!-- 2892505424784 -->
<g id="node9" class="node">
<title>2892505424784</title>
<polygon fill="white" stroke="black" points="1025.75,-153 938.5,-153 938.5,-117 1025.75,-117 1025.75,-153"/>
<text text-anchor="middle" x="982.12" y="-129.97" font-family="Times New Roman,serif" font-size="12.00">IoT Integration</text>
</g>
<!-- 2892505431552 -->
<g id="node32" class="node">
<title>2892505431552</title>
<ellipse fill="white" stroke="black" cx="1088.75" cy="-171" rx="27" ry="27"/>
</g>
<!-- 2892505424784&#45;&gt;2892505431552 -->
<g id="edge26" class="edge">
<title>2892505424784&#45;&gt;2892505431552</title>
<path fill="none" stroke="black" d="M1025.98,-149.75C1034.69,-152.74 1043.77,-155.87 1052.19,-158.76"/>
<polygon fill="black" stroke="black" points="1050.78,-161.98 1061.38,-161.93 1053.06,-155.36 1050.78,-161.98"/>
</g>
<!-- 2892505429728 -->
<g id="node33" class="node">
<title>2892505429728</title>
<ellipse fill="white" stroke="black" cx="1088.75" cy="-99" rx="27" ry="27"/>
</g>
<!-- 2892505424784&#45;&gt;2892505429728 -->
<g id="edge27" class="edge">
<title>2892505424784&#45;&gt;2892505429728</title>
<path fill="none" stroke="black" d="M1025.98,-120.25C1034.69,-117.26 1043.77,-114.13 1052.19,-111.24"/>
<polygon fill="black" stroke="black" points="1053.06,-114.64 1061.38,-108.07 1050.78,-108.02 1053.06,-114.64"/>
</g>
<!-- 2892505430688 -->
<g id="node10" class="node">
<title>2892505430688</title>
<polygon fill="white" stroke="black" points="1233,-189 1152.5,-189 1152.5,-153 1233,-153 1233,-189"/>
<text text-anchor="middle" x="1192.75" y="-165.97" font-family="Times New Roman,serif" font-size="12.00">Energy Audit</text>
</g>
<!-- 2892507847936 -->
<g id="node34" class="node">
<title>2892507847936</title>
<ellipse fill="white" stroke="black" cx="1296.75" cy="-171" rx="27" ry="27"/>
</g>
<!-- 2892505430688&#45;&gt;2892507847936 -->
<g id="edge30" class="edge">
<title>2892505430688&#45;&gt;2892507847936</title>
<path fill="none" stroke="black" d="M1233.48,-171C1241.6,-171 1250.11,-171 1258.16,-171"/>
<polygon fill="black" stroke="black" points="1257.98,-174.5 1267.98,-171 1257.98,-167.5 1257.98,-174.5"/>
</g>
<!-- 2892505426368 -->
<g id="node11" class="node">
<title>2892505426368</title>
<polygon fill="white" stroke="black" points="1233.75,-117 1151.75,-117 1151.75,-81 1233.75,-81 1233.75,-117"/>
<text text-anchor="middle" x="1192.75" y="-93.97" font-family="Times New Roman,serif" font-size="12.00">Staff Training</text>
</g>
<!-- 2892507847312 -->
<g id="node35" class="node">
<title>2892507847312</title>
<ellipse fill="white" stroke="black" cx="1296.75" cy="-99" rx="27" ry="27"/>
</g>
<!-- 2892505426368&#45;&gt;2892507847312 -->
<g id="edge31" class="edge">
<title>2892505426368&#45;&gt;2892507847312</title>
<path fill="none" stroke="black" d="M1234.06,-99C1241.98,-99 1250.25,-99 1258.07,-99"/>
<polygon fill="black" stroke="black" points="1257.98,-102.5 1267.98,-99 1257.98,-95.5 1257.98,-102.5"/>
</g>
<!-- 2892505427088 -->
<g id="node12" class="node">
<title>2892505427088</title>
<polygon fill="white" stroke="black" points="1419.25,-153 1359.75,-153 1359.75,-117 1419.25,-117 1419.25,-153"/>
<text text-anchor="middle" x="1389.5" y="-129.97" font-family="Times New Roman,serif" font-size="12.00">Test Run</text>
</g>
<!-- 2892505418544 -->
<g id="node36" class="node">
<title>2892505418544</title>
<ellipse fill="white" stroke="black" cx="1482.25" cy="-171" rx="27" ry="27"/>
</g>
<!-- 2892505427088&#45;&gt;2892505418544 -->
<g id="edge35" class="edge">
<title>2892505427088&#45;&gt;2892505418544</title>
<path fill="none" stroke="black" d="M1419.71,-146.59C1428.09,-149.91 1437.32,-153.57 1446.02,-157.02"/>
<polygon fill="black" stroke="black" points="1444.66,-160.25 1455.25,-160.69 1447.24,-153.74 1444.66,-160.25"/>
</g>
<!-- 2892505426752 -->
<g id="node37" class="node">
<title>2892505426752</title>
<ellipse fill="white" stroke="black" cx="1482.25" cy="-99" rx="27" ry="27"/>
</g>
<!-- 2892505427088&#45;&gt;2892505426752 -->
<g id="edge34" class="edge">
<title>2892505427088&#45;&gt;2892505426752</title>
<path fill="none" stroke="black" d="M1419.71,-123.41C1428.09,-120.09 1437.32,-116.43 1446.02,-112.98"/>
<polygon fill="black" stroke="black" points="1447.24,-116.26 1455.25,-109.31 1444.66,-109.75 1447.24,-116.26"/>
</g>
<!-- 2892505416768 -->
<g id="node13" class="node">
<title>2892505416768</title>
<polygon fill="white" stroke="black" points="1651.25,-189 1552,-189 1552,-153 1651.25,-153 1651.25,-189"/>
<text text-anchor="middle" x="1601.62" y="-165.97" font-family="Times New Roman,serif" font-size="12.00">Community Meet</text>
</g>
<!-- 2892505314656 -->
<g id="node38" class="node">
<title>2892505314656</title>
<ellipse fill="white" stroke="black" cx="1721" cy="-171" rx="27" ry="27"/>
</g>
<!-- 2892505416768&#45;&gt;2892505314656 -->
<g id="edge38" class="edge">
<title>2892505416768&#45;&gt;2892505314656</title>
<path fill="none" stroke="black" d="M1651.72,-171C1661.91,-171 1672.48,-171 1682.19,-171"/>
<polygon fill="black" stroke="black" points="1681.99,-174.5 1691.99,-171 1681.99,-167.5 1681.99,-174.5"/>
</g>
<!-- 2892505418976 -->
<g id="node14" class="node">
<title>2892505418976</title>
<polygon fill="white" stroke="black" points="1658,-117 1545.25,-117 1545.25,-81 1658,-81 1658,-117"/>
<text text-anchor="middle" x="1601.62" y="-93.97" font-family="Times New Roman,serif" font-size="12.00">Compliance Review</text>
</g>
<!-- 2892507841264 -->
<g id="node39" class="node">
<title>2892507841264</title>
<ellipse fill="white" stroke="black" cx="1721" cy="-99" rx="27" ry="27"/>
</g>
<!-- 2892505418976&#45;&gt;2892507841264 -->
<g id="edge39" class="edge">
<title>2892505418976&#45;&gt;2892507841264</title>
<path fill="none" stroke="black" d="M1658.22,-99C1666.31,-99 1674.47,-99 1682.1,-99"/>
<polygon fill="black" stroke="black" points="1682.04,-102.5 1692.04,-99 1682.04,-95.5 1682.04,-102.5"/>
</g>
<!-- 2892505418688 -->
<g id="node15" class="node">
<title>2892505418688</title>
<polygon fill="white" stroke="black" points="1863.75,-153 1784,-153 1784,-117 1863.75,-117 1863.75,-153"/>
<text text-anchor="middle" x="1823.88" y="-129.97" font-family="Times New Roman,serif" font-size="12.00">Supply Setup</text>
</g>
<!-- 2892505430928 -->
<g id="node40" class="node">
<title>2892505430928</title>
<ellipse fill="white" stroke="black" cx="1926.75" cy="-135" rx="27" ry="27"/>
</g>
<!-- 2892505418688&#45;&gt;2892505430928 -->
<g id="edge42" class="edge">
<title>2892505418688&#45;&gt;2892505430928</title>
<path fill="none" stroke="black" d="M1864.16,-135C1872.03,-135 1880.27,-135 1888.07,-135"/>
<polygon fill="black" stroke="black" points="1887.97,-138.5 1897.97,-135 1887.97,-131.5 1887.97,-138.5"/>
</g>
<!-- 2892507855712 -->
<g id="node16" class="node">
<title>2892507855712</title>
<polygon fill="white" stroke="black" points="2073.25,-126 1989.75,-126 1989.75,-90 2073.25,-90 2073.25,-126"/>
<text text-anchor="middle" x="2031.5" y="-102.97" font-family="Times New Roman,serif" font-size="12.00">Yield Monitor</text>
</g>
<!-- 2892507856624 -->
<g id="node41" class="node">
<title>2892507856624</title>
<ellipse fill="white" stroke="black" cx="2136.25" cy="-107" rx="27" ry="27"/>
</g>
<!-- 2892507855712&#45;&gt;2892507856624 -->
<g id="edge44" class="edge">
<title>2892507855712&#45;&gt;2892507856624</title>
<path fill="none" stroke="black" d="M2073.7,-107.6C2081.56,-107.52 2089.75,-107.44 2097.5,-107.37"/>
<polygon fill="black" stroke="black" points="2097.33,-110.87 2107.3,-107.27 2097.26,-103.87 2097.33,-110.87"/>
</g>
<!-- 2892507856144 -->
<g id="node17" class="node">
<title>2892507856144</title>
<polygon fill="black" stroke="black" points="2253.25,-179 2199.25,-179 2199.25,-143 2253.25,-143 2253.25,-179"/>
</g>
<!-- 2892507856144&#45;&gt;2892505430928 -->
<g id="edge47" class="edge">
<title>2892507856144&#45;&gt;2892505430928</title>
<path fill="none" stroke="black" d="M2198.91,-158.7C2146.03,-154.08 2026.8,-143.66 1965.58,-138.31"/>
<polygon fill="black" stroke="black" points="1965.93,-134.82 1955.66,-137.44 1965.32,-141.8 1965.93,-134.82"/>
</g>
<!-- 2892507855136 -->
<g id="node18" class="node">
<title>2892507855136</title>
<polygon fill="black" stroke="black" points="2253.25,-125 2199.25,-125 2199.25,-89 2253.25,-89 2253.25,-125"/>
</g>
<!-- 2892507930576 -->
<g id="node42" class="node">
<title>2892507930576</title>
<ellipse fill="white" stroke="black" cx="2320.25" cy="-107" rx="27" ry="27"/>
<ellipse fill="none" stroke="black" cx="2320.25" cy="-107" rx="31" ry="31"/>
<text text-anchor="start" x="2303.75" y="-91.6" font-family="Times New Roman,serif" font-size="32.00">■</text>
</g>
<!-- 2892507855136&#45;&gt;2892507930576 -->
<g id="edge48" class="edge">
<title>2892507855136&#45;&gt;2892507930576</title>
<path fill="none" stroke="black" d="M2253.37,-107C2260.88,-107 2269.26,-107 2277.47,-107"/>
<polygon fill="black" stroke="black" points="2277.33,-110.5 2287.33,-107 2277.33,-103.5 2277.33,-110.5"/>
</g>
<!-- 2892504647536 -->
<g id="node19" class="node">
<title>2892504647536</title>
<ellipse fill="white" stroke="black" cx="27" cy="-135" rx="27" ry="27"/>
<text text-anchor="start" x="9.75" y="-117.7" font-family="Times New Roman,serif" font-size="34.00">●</text>
</g>
<!-- 2892504647536&#45;&gt;2892507927696 -->
<g id="edge1" class="edge">
<title>2892504647536&#45;&gt;2892507927696</title>
<path fill="none" stroke="black" d="M54.33,-135C61.76,-135 70.06,-135 78.28,-135"/>
<polygon fill="black" stroke="black" points="78.24,-138.5 88.24,-135 78.24,-131.5 78.24,-138.5"/>
</g>
<!-- 2892507926016&#45;&gt;2892507925008 -->
<g id="edge5" class="edge">
<title>2892507926016&#45;&gt;2892507925008</title>
<path fill="none" stroke="black" d="M251.06,-171C258.44,-171 266.74,-171 275.11,-171"/>
<polygon fill="black" stroke="black" points="274.96,-174.5 284.96,-171 274.96,-167.5 274.96,-174.5"/>
</g>
<!-- 2892507927312&#45;&gt;2892507925056 -->
<g id="edge4" class="edge">
<title>2892507927312&#45;&gt;2892507925056</title>
<path fill="none" stroke="black" d="M251.06,-99C259.29,-99 268.67,-99 278.01,-99"/>
<polygon fill="black" stroke="black" points="277.78,-102.5 287.78,-99 277.78,-95.5 277.78,-102.5"/>
</g>
<!-- 2892507854224&#45;&gt;2892507930144 -->
<g id="edge9" class="edge">
<title>2892507854224&#45;&gt;2892507930144</title>
<path fill="none" stroke="black" d="M462.24,-162.92C470.08,-160.39 479.1,-157.47 488.28,-154.5"/>
<polygon fill="black" stroke="black" points="489.2,-157.88 497.64,-151.48 487.05,-151.22 489.2,-157.88"/>
</g>
<!-- 2892507853744&#45;&gt;2892507930144 -->
<g id="edge8" class="edge">
<title>2892507853744&#45;&gt;2892507930144</title>
<path fill="none" stroke="black" d="M462.24,-107.08C470.08,-109.61 479.1,-112.53 488.28,-115.5"/>
<polygon fill="black" stroke="black" points="487.05,-118.78 497.64,-118.52 489.2,-112.12 487.05,-118.78"/>
</g>
<!-- 2892505428864&#45;&gt;2892505422336 -->
<g id="edge15" class="edge">
<title>2892505428864&#45;&gt;2892505422336</title>
<path fill="none" stroke="black" d="M690.31,-243C698.36,-243 707.52,-243 716.66,-243"/>
<polygon fill="black" stroke="black" points="716.63,-246.5 726.63,-243 716.63,-239.5 716.63,-246.5"/>
</g>
<!-- 2892505423632&#45;&gt;2892505430256 -->
<g id="edge14" class="edge">
<title>2892505423632&#45;&gt;2892505430256</title>
<path fill="none" stroke="black" d="M690.31,-171C698.98,-171 708.92,-171 718.75,-171"/>
<polygon fill="black" stroke="black" points="718.62,-174.5 728.62,-171 718.62,-167.5 718.62,-174.5"/>
</g>
<!-- 2892505417392&#45;&gt;2892505420608 -->
<g id="edge16" class="edge">
<title>2892505417392&#45;&gt;2892505420608</title>
<path fill="none" stroke="black" d="M690.31,-99C697.69,-99 705.99,-99 714.36,-99"/>
<polygon fill="black" stroke="black" points="714.21,-102.5 724.21,-99 714.21,-95.5 714.21,-102.5"/>
</g>
<!-- 2892507931728&#45;&gt;2892505418208 -->
<g id="edge17" class="edge">
<title>2892507931728&#45;&gt;2892505418208</title>
<path fill="none" stroke="black" d="M690.31,-27C698.02,-27 706.75,-27 715.5,-27"/>
<polygon fill="black" stroke="black" points="715.42,-30.5 725.42,-27 715.42,-23.5 715.42,-30.5"/>
</g>
<!-- 2892507850528&#45;&gt;2892505424784 -->
<g id="edge22" class="edge">
<title>2892507850528&#45;&gt;2892505424784</title>
<path fill="none" stroke="black" d="M901.56,-107.62C909.47,-110.34 918.53,-113.46 927.64,-116.6"/>
<polygon fill="black" stroke="black" points="926.26,-119.82 936.85,-119.77 928.54,-113.2 926.26,-119.82"/>
</g>
<!-- 2892507850048&#45;&gt;2892505424784 -->
<g id="edge23" class="edge">
<title>2892507850048&#45;&gt;2892505424784</title>
<path fill="none" stroke="black" d="M894.96,-223.94C911.83,-206.53 936.91,-180.64 955.68,-161.27"/>
<polygon fill="black" stroke="black" points="958.04,-163.85 962.49,-154.24 953.02,-158.98 958.04,-163.85"/>
</g>
<!-- 2892507848128&#45;&gt;2892505424784 -->
<g id="edge24" class="edge">
<title>2892507848128&#45;&gt;2892505424784</title>
<path fill="none" stroke="black" d="M901.56,-162.38C909.47,-159.66 918.53,-156.54 927.64,-153.4"/>
<polygon fill="black" stroke="black" points="928.54,-156.8 936.85,-150.23 926.26,-150.18 928.54,-156.8"/>
</g>
<!-- 2892507851104&#45;&gt;2892505424784 -->
<g id="edge25" class="edge">
<title>2892507851104&#45;&gt;2892505424784</title>
<path fill="none" stroke="black" d="M894.96,-46.06C911.83,-63.47 936.91,-89.36 955.68,-108.73"/>
<polygon fill="black" stroke="black" points="953.02,-111.02 962.49,-115.76 958.04,-106.15 953.02,-111.02"/>
</g>
<!-- 2892505431552&#45;&gt;2892505430688 -->
<g id="edge29" class="edge">
<title>2892505431552&#45;&gt;2892505430688</title>
<path fill="none" stroke="black" d="M1116.02,-171C1123.65,-171 1132.26,-171 1140.87,-171"/>
<polygon fill="black" stroke="black" points="1140.58,-174.5 1150.58,-171 1140.58,-167.5 1140.58,-174.5"/>
</g>
<!-- 2892505429728&#45;&gt;2892505426368 -->
<g id="edge28" class="edge">
<title>2892505429728&#45;&gt;2892505426368</title>
<path fill="none" stroke="black" d="M1116.02,-99C1123.4,-99 1131.7,-99 1140.03,-99"/>
<polygon fill="black" stroke="black" points="1139.8,-102.5 1149.8,-99 1139.8,-95.5 1139.8,-102.5"/>
</g>
<!-- 2892507847936&#45;&gt;2892505427088 -->
<g id="edge33" class="edge">
<title>2892507847936&#45;&gt;2892505427088</title>
<path fill="none" stroke="black" d="M1322.07,-161.35C1330.3,-158.09 1339.71,-154.36 1348.81,-150.74"/>
<polygon fill="black" stroke="black" points="1349.85,-154.1 1357.86,-147.16 1347.27,-147.59 1349.85,-154.1"/>
</g>
<!-- 2892507847312&#45;&gt;2892505427088 -->
<g id="edge32" class="edge">
<title>2892507847312&#45;&gt;2892505427088</title>
<path fill="none" stroke="black" d="M1322.07,-108.65C1330.3,-111.91 1339.71,-115.64 1348.81,-119.26"/>
<polygon fill="black" stroke="black" points="1347.27,-122.41 1357.86,-122.84 1349.85,-115.9 1347.27,-122.41"/>
</g>
<!-- 2892505418544&#45;&gt;2892505416768 -->
<g id="edge36" class="edge">
<title>2892505418544&#45;&gt;2892505416768</title>
<path fill="none" stroke="black" d="M1509.59,-171C1518.82,-171 1529.6,-171 1540.45,-171"/>
<polygon fill="black" stroke="black" points="1540.21,-174.5 1550.21,-171 1540.21,-167.5 1540.21,-174.5"/>
</g>
<!-- 2892505426752&#45;&gt;2892505418976 -->
<g id="edge37" class="edge">
<title>2892505426752&#45;&gt;2892505418976</title>
<path fill="none" stroke="black" d="M1509.59,-99C1516.92,-99 1525.23,-99 1533.78,-99"/>
<polygon fill="black" stroke="black" points="1533.57,-102.5 1543.57,-99 1533.57,-95.5 1533.57,-102.5"/>
</g>
<!-- 2892505314656&#45;&gt;2892505418688 -->
<g id="edge40" class="edge">
<title>2892505314656&#45;&gt;2892505418688</title>
<path fill="none" stroke="black" d="M1746.94,-162.1C1754.9,-159.26 1764.02,-156 1773.11,-152.76"/>
<polygon fill="black" stroke="black" points="1774.03,-156.15 1782.27,-149.49 1771.68,-149.55 1774.03,-156.15"/>
</g>
<!-- 2892507841264&#45;&gt;2892505418688 -->
<g id="edge41" class="edge">
<title>2892507841264&#45;&gt;2892505418688</title>
<path fill="none" stroke="black" d="M1746.94,-107.9C1754.9,-110.74 1764.02,-114 1773.11,-117.24"/>
<polygon fill="black" stroke="black" points="1771.68,-120.45 1782.27,-120.51 1774.03,-113.85 1771.68,-120.45"/>
</g>
<!-- 2892505430928&#45;&gt;2892507855712 -->
<g id="edge43" class="edge">
<title>2892505430928&#45;&gt;2892507855712</title>
<path fill="none" stroke="black" d="M1953.15,-128.33C1960.84,-126.31 1969.58,-124.01 1978.35,-121.7"/>
<polygon fill="black" stroke="black" points="1979.16,-125.11 1987.94,-119.18 1977.38,-118.34 1979.16,-125.11"/>
</g>
<!-- 2892507856624&#45;&gt;2892507856144 -->
<g id="edge46" class="edge">
<title>2892507856624&#45;&gt;2892507856144</title>
<path fill="none" stroke="black" d="M2159.91,-120.91C2168.85,-126.39 2179.34,-132.83 2189.26,-138.92"/>
<polygon fill="black" stroke="black" points="2187.28,-141.8 2197.63,-144.05 2190.94,-135.84 2187.28,-141.8"/>
</g>
<!-- 2892507856624&#45;&gt;2892507855136 -->
<g id="edge45" class="edge">
<title>2892507856624&#45;&gt;2892507855136</title>
<path fill="none" stroke="black" d="M2163.65,-107C2171.14,-107 2179.43,-107 2187.45,-107"/>
<polygon fill="black" stroke="black" points="2187.35,-110.5 2197.35,-107 2187.35,-103.5 2187.35,-110.5"/>
</g>
</g>
</svg>
