<?xml version="1.0" encoding="UTF-8" standalone="no"?>
<!DOCTYPE svg PUBLIC "-//W3C//DTD SVG 1.1//EN"
 "http://www.w3.org/Graphics/SVG/1.1/DTD/svg11.dtd">
<!-- Generated by graphviz version 11.0.0 (20240428.1522)
 -->
<!-- Title: imdf_net_1754051534.0337088 Pages: 1 -->
<svg width="3096pt" height="111pt"
 viewBox="0.00 0.00 3096.00 111.00" xmlns="http://www.w3.org/2000/svg" xmlns:xlink="http://www.w3.org/1999/xlink">
<g id="graph0" class="graph" transform="scale(1 1) rotate(0) translate(4 107)">
<title>imdf_net_1754051534.0337088</title>
<polygon fill="white" stroke="none" points="-4,4 -4,-107 3092,-107 3092,4 -4,4"/>
<!-- 1990971352768 -->
<g id="node1" class="node">
<title>1990971352768</title>
<polygon fill="white" stroke="black" points="160.75,-77 90,-77 90,-41 160.75,-41 160.75,-77"/>
<text text-anchor="middle" x="125.38" y="-53.98" font-family="Times New Roman,serif" font-size="12.00">Site Survey</text>
</g>
<!-- 1990971343696 -->
<g id="node17" class="node">
<title>1990971343696</title>
<ellipse fill="white" stroke="black" cx="223.75" cy="-59" rx="27" ry="27"/>
</g>
<!-- 1990971352768&#45;&gt;1990971343696 -->
<g id="edge2" class="edge">
<title>1990971352768&#45;&gt;1990971343696</title>
<path fill="none" stroke="black" d="M161.17,-59C168.9,-59 177.14,-59 184.98,-59"/>
<polygon fill="black" stroke="black" points="184.97,-62.5 194.97,-59 184.97,-55.5 184.97,-62.5"/>
</g>
<!-- 1990971357136 -->
<g id="node2" class="node">
<title>1990971357136</title>
<polygon fill="white" stroke="black" points="371,-77 286.75,-77 286.75,-41 371,-41 371,-77"/>
<text text-anchor="middle" x="328.88" y="-53.98" font-family="Times New Roman,serif" font-size="12.00">Zoning Check</text>
</g>
<!-- 1990971345136 -->
<g id="node18" class="node">
<title>1990971345136</title>
<ellipse fill="white" stroke="black" cx="434" cy="-59" rx="27" ry="27"/>
</g>
<!-- 1990971357136&#45;&gt;1990971345136 -->
<g id="edge4" class="edge">
<title>1990971357136&#45;&gt;1990971345136</title>
<path fill="none" stroke="black" d="M371.23,-59C379.19,-59 387.49,-59 395.33,-59"/>
<polygon fill="black" stroke="black" points="395.25,-62.5 405.25,-59 395.25,-55.5 395.25,-62.5"/>
</g>
<!-- 1990971347872 -->
<g id="node3" class="node">
<title>1990971347872</title>
<polygon fill="white" stroke="black" points="606,-77 497,-77 497,-41 606,-41 606,-77"/>
<text text-anchor="middle" x="551.5" y="-53.98" font-family="Times New Roman,serif" font-size="12.00">Infrastructure Setup</text>
</g>
<!-- 1990971357616 -->
<g id="node19" class="node">
<title>1990971357616</title>
<ellipse fill="white" stroke="black" cx="669" cy="-59" rx="27" ry="27"/>
</g>
<!-- 1990971347872&#45;&gt;1990971357616 -->
<g id="edge6" class="edge">
<title>1990971347872&#45;&gt;1990971357616</title>
<path fill="none" stroke="black" d="M606.19,-59C614.41,-59 622.73,-59 630.5,-59"/>
<polygon fill="black" stroke="black" points="630.26,-62.5 640.26,-59 630.26,-55.5 630.26,-62.5"/>
</g>
<!-- 1990971356944 -->
<g id="node4" class="node">
<title>1990971356944</title>
<polygon fill="white" stroke="black" points="838,-77 732,-77 732,-41 838,-41 838,-77"/>
<text text-anchor="middle" x="785" y="-53.98" font-family="Times New Roman,serif" font-size="12.00">System Calibration</text>
</g>
<!-- 1990976167360 -->
<g id="node20" class="node">
<title>1990976167360</title>
<ellipse fill="white" stroke="black" cx="901" cy="-59" rx="27" ry="27"/>
</g>
<!-- 1990971356944&#45;&gt;1990976167360 -->
<g id="edge8" class="edge">
<title>1990971356944&#45;&gt;1990976167360</title>
<path fill="none" stroke="black" d="M838.33,-59C846.49,-59 854.78,-59 862.53,-59"/>
<polygon fill="black" stroke="black" points="862.26,-62.5 872.26,-59 862.26,-55.5 862.26,-62.5"/>
</g>
<!-- 1990976171872 -->
<g id="node5" class="node">
<title>1990976171872</title>
<polygon fill="white" stroke="black" points="1041.5,-77 964,-77 964,-41 1041.5,-41 1041.5,-77"/>
<text text-anchor="middle" x="1002.75" y="-53.98" font-family="Times New Roman,serif" font-size="12.00">Nutrient Mix</text>
</g>
<!-- 1990976170240 -->
<g id="node21" class="node">
<title>1990976170240</title>
<ellipse fill="white" stroke="black" cx="1104.5" cy="-59" rx="27" ry="27"/>
</g>
<!-- 1990976171872&#45;&gt;1990976170240 -->
<g id="edge10" class="edge">
<title>1990976171872&#45;&gt;1990976170240</title>
<path fill="none" stroke="black" d="M1041.75,-59C1049.57,-59 1057.81,-59 1065.63,-59"/>
<polygon fill="black" stroke="black" points="1065.55,-62.5 1075.55,-59 1065.55,-55.5 1065.55,-62.5"/>
</g>
<!-- 1990976163088 -->
<g id="node6" class="node">
<title>1990976163088</title>
<polygon fill="white" stroke="black" points="1254,-77 1167.5,-77 1167.5,-41 1254,-41 1254,-77"/>
<text text-anchor="middle" x="1210.75" y="-53.98" font-family="Times New Roman,serif" font-size="12.00">Crop Selection</text>
</g>
<!-- 1990976167984 -->
<g id="node22" class="node">
<title>1990976167984</title>
<ellipse fill="white" stroke="black" cx="1317" cy="-59" rx="27" ry="27"/>
</g>
<!-- 1990976163088&#45;&gt;1990976167984 -->
<g id="edge12" class="edge">
<title>1990976163088&#45;&gt;1990976167984</title>
<path fill="none" stroke="black" d="M1254.45,-59C1262.37,-59 1270.59,-59 1278.34,-59"/>
<polygon fill="black" stroke="black" points="1278.14,-62.5 1288.14,-59 1278.14,-55.5 1278.14,-62.5"/>
</g>
<!-- 1990978393952 -->
<g id="node7" class="node">
<title>1990978393952</title>
<polygon fill="white" stroke="black" points="1484.5,-77 1380,-77 1380,-41 1484.5,-41 1484.5,-77"/>
<text text-anchor="middle" x="1432.25" y="-53.98" font-family="Times New Roman,serif" font-size="12.00">Enviro Monitoring</text>
</g>
<!-- 1990978399856 -->
<g id="node23" class="node">
<title>1990978399856</title>
<ellipse fill="white" stroke="black" cx="1547.5" cy="-59" rx="27" ry="27"/>
</g>
<!-- 1990978393952&#45;&gt;1990978399856 -->
<g id="edge14" class="edge">
<title>1990978393952&#45;&gt;1990978399856</title>
<path fill="none" stroke="black" d="M1484.9,-59C1492.94,-59 1501.12,-59 1508.77,-59"/>
<polygon fill="black" stroke="black" points="1508.76,-62.5 1518.76,-59 1508.76,-55.5 1508.76,-62.5"/>
</g>
<!-- 1990978391792 -->
<g id="node8" class="node">
<title>1990978391792</title>
<polygon fill="white" stroke="black" points="1685,-77 1610.5,-77 1610.5,-41 1685,-41 1685,-77"/>
<text text-anchor="middle" x="1647.75" y="-53.98" font-family="Times New Roman,serif" font-size="12.00">Pest Control</text>
</g>
<!-- 1990978395008 -->
<g id="node24" class="node">
<title>1990978395008</title>
<ellipse fill="white" stroke="black" cx="1748" cy="-59" rx="27" ry="27"/>
</g>
<!-- 1990978391792&#45;&gt;1990978395008 -->
<g id="edge16" class="edge">
<title>1990978391792&#45;&gt;1990978395008</title>
<path fill="none" stroke="black" d="M1685.33,-59C1693.09,-59 1701.29,-59 1709.09,-59"/>
<polygon fill="black" stroke="black" points="1709,-62.5 1719,-59 1709,-55.5 1709,-62.5"/>
</g>
<!-- 1990978395248 -->
<g id="node9" class="node">
<title>1990978395248</title>
<polygon fill="white" stroke="black" points="1893,-77 1811,-77 1811,-41 1893,-41 1893,-77"/>
<text text-anchor="middle" x="1852" y="-53.98" font-family="Times New Roman,serif" font-size="12.00">Staff Training</text>
</g>
<!-- 1990978402352 -->
<g id="node25" class="node">
<title>1990978402352</title>
<ellipse fill="white" stroke="black" cx="1956" cy="-59" rx="27" ry="27"/>
</g>
<!-- 1990978395248&#45;&gt;1990978402352 -->
<g id="edge18" class="edge">
<title>1990978395248&#45;&gt;1990978402352</title>
<path fill="none" stroke="black" d="M1893.31,-59C1901.23,-59 1909.5,-59 1917.32,-59"/>
<polygon fill="black" stroke="black" points="1917.23,-62.5 1927.23,-59 1917.23,-55.5 1917.23,-62.5"/>
</g>
<!-- 1990978398464 -->
<g id="node10" class="node">
<title>1990978398464</title>
<polygon fill="white" stroke="black" points="2107.75,-77 2019,-77 2019,-41 2107.75,-41 2107.75,-77"/>
<text text-anchor="middle" x="2063.38" y="-53.98" font-family="Times New Roman,serif" font-size="12.00">Marketing Plan</text>
</g>
<!-- 1990978392800 -->
<g id="node26" class="node">
<title>1990978392800</title>
<ellipse fill="white" stroke="black" cx="2170.75" cy="-59" rx="27" ry="27"/>
</g>
<!-- 1990978398464&#45;&gt;1990978392800 -->
<g id="edge20" class="edge">
<title>1990978398464&#45;&gt;1990978392800</title>
<path fill="none" stroke="black" d="M2108.15,-59C2116.11,-59 2124.35,-59 2132.11,-59"/>
<polygon fill="black" stroke="black" points="2131.92,-62.5 2141.92,-59 2131.92,-55.5 2131.92,-62.5"/>
</g>
<!-- 1990971766976 -->
<g id="node11" class="node">
<title>1990971766976</title>
<polygon fill="white" stroke="black" points="2326.25,-77 2233.75,-77 2233.75,-41 2326.25,-41 2326.25,-77"/>
<text text-anchor="middle" x="2280" y="-53.98" font-family="Times New Roman,serif" font-size="12.00">Distributor Link</text>
</g>
<!-- 1990971761024 -->
<g id="node27" class="node">
<title>1990971761024</title>
<ellipse fill="white" stroke="black" cx="2389.25" cy="-59" rx="27" ry="27"/>
</g>
<!-- 1990971766976&#45;&gt;1990971761024 -->
<g id="edge22" class="edge">
<title>1990971766976&#45;&gt;1990971761024</title>
<path fill="none" stroke="black" d="M2326.48,-59C2334.52,-59 2342.81,-59 2350.6,-59"/>
<polygon fill="black" stroke="black" points="2350.44,-62.5 2360.44,-59 2350.44,-55.5 2350.44,-62.5"/>
</g>
<!-- 1990971768224 -->
<g id="node12" class="node">
<title>1990971768224</title>
<polygon fill="white" stroke="black" points="2550,-77 2452.25,-77 2452.25,-41 2550,-41 2550,-77"/>
<text text-anchor="middle" x="2501.12" y="-53.98" font-family="Times New Roman,serif" font-size="12.00">Regulation Audit</text>
</g>
<!-- 1990971757904 -->
<g id="node28" class="node">
<title>1990971757904</title>
<ellipse fill="white" stroke="black" cx="2613" cy="-59" rx="27" ry="27"/>
</g>
<!-- 1990971768224&#45;&gt;1990971757904 -->
<g id="edge24" class="edge">
<title>1990971768224&#45;&gt;1990971757904</title>
<path fill="none" stroke="black" d="M2550.32,-59C2558.36,-59 2566.6,-59 2574.32,-59"/>
<polygon fill="black" stroke="black" points="2574.06,-62.5 2584.06,-59 2574.06,-55.5 2574.06,-62.5"/>
</g>
<!-- 1990971764672 -->
<g id="node13" class="node">
<title>1990971764672</title>
<polygon fill="white" stroke="black" points="2762.5,-50 2676,-50 2676,-14 2762.5,-14 2762.5,-50"/>
<text text-anchor="middle" x="2719.25" y="-26.98" font-family="Times New Roman,serif" font-size="12.00">Yield Analysis</text>
</g>
<!-- 1990971768128 -->
<g id="node29" class="node">
<title>1990971768128</title>
<ellipse fill="white" stroke="black" cx="2825.5" cy="-31" rx="27" ry="27"/>
</g>
<!-- 1990971764672&#45;&gt;1990971768128 -->
<g id="edge26" class="edge">
<title>1990971764672&#45;&gt;1990971768128</title>
<path fill="none" stroke="black" d="M2762.95,-31.59C2770.87,-31.51 2779.09,-31.44 2786.84,-31.36"/>
<polygon fill="black" stroke="black" points="2786.67,-34.86 2796.64,-31.27 2786.6,-27.86 2786.67,-34.86"/>
</g>
<!-- 1990981968640 -->
<g id="node14" class="node">
<title>1990981968640</title>
<polygon fill="white" stroke="black" points="2984.38,-49 2894.12,-49 2894.12,-13 2984.38,-13 2984.38,-49"/>
<text text-anchor="middle" x="2939.25" y="-25.98" font-family="Times New Roman,serif" font-size="12.00">Expansion Plan</text>
</g>
<!-- 1990971515504 -->
<g id="node30" class="node">
<title>1990971515504</title>
<ellipse fill="white" stroke="black" cx="3057" cy="-31" rx="27" ry="27"/>
<ellipse fill="none" stroke="black" cx="3057" cy="-31" rx="31" ry="31"/>
<text text-anchor="start" x="3040.5" y="-15.6" font-family="Times New Roman,serif" font-size="32.00">■</text>
</g>
<!-- 1990981968640&#45;&gt;1990971515504 -->
<g id="edge30" class="edge">
<title>1990981968640&#45;&gt;1990971515504</title>
<path fill="none" stroke="black" d="M2984.67,-31C2994.37,-31 3004.6,-31 3014.2,-31"/>
<polygon fill="black" stroke="black" points="3013.99,-34.5 3023.99,-31 3013.99,-27.5 3013.99,-34.5"/>
</g>
<!-- 1990971756320 -->
<g id="node15" class="node">
<title>1990971756320</title>
<polygon fill="white" stroke="black" points="2990,-103 2888.5,-103 2888.5,-67 2990,-67 2990,-103"/>
<text text-anchor="middle" x="2939.25" y="-79.97" font-family="Times New Roman,serif" font-size="12.00">Feedback Review</text>
</g>
<!-- 1990971756320&#45;&gt;1990971757904 -->
<g id="edge29" class="edge">
<title>1990971756320&#45;&gt;1990971757904</title>
<path fill="none" stroke="black" d="M2888.24,-80.99C2822.92,-75.75 2710.02,-66.7 2651.54,-62.01"/>
<polygon fill="black" stroke="black" points="2652.02,-58.54 2641.77,-61.23 2651.46,-65.51 2652.02,-58.54"/>
</g>
<!-- 1990971506864 -->
<g id="node16" class="node">
<title>1990971506864</title>
<ellipse fill="white" stroke="black" cx="27" cy="-59" rx="27" ry="27"/>
<text text-anchor="start" x="9.75" y="-41.7" font-family="Times New Roman,serif" font-size="34.00">●</text>
</g>
<!-- 1990971506864&#45;&gt;1990971352768 -->
<g id="edge1" class="edge">
<title>1990971506864&#45;&gt;1990971352768</title>
<path fill="none" stroke="black" d="M54.33,-59C61.76,-59 70.06,-59 78.28,-59"/>
<polygon fill="black" stroke="black" points="78.24,-62.5 88.24,-59 78.24,-55.5 78.24,-62.5"/>
</g>
<!-- 1990971343696&#45;&gt;1990971357136 -->
<g id="edge3" class="edge">
<title>1990971343696&#45;&gt;1990971357136</title>
<path fill="none" stroke="black" d="M251.04,-59C258.42,-59 266.73,-59 275.07,-59"/>
<polygon fill="black" stroke="black" points="274.89,-62.5 284.89,-59 274.89,-55.5 274.89,-62.5"/>
</g>
<!-- 1990971345136&#45;&gt;1990971347872 -->
<g id="edge5" class="edge">
<title>1990971345136&#45;&gt;1990971347872</title>
<path fill="none" stroke="black" d="M461.5,-59C468.73,-59 476.9,-59 485.29,-59"/>
<polygon fill="black" stroke="black" points="485.27,-62.5 495.27,-59 485.27,-55.5 485.27,-62.5"/>
</g>
<!-- 1990971357616&#45;&gt;1990971356944 -->
<g id="edge7" class="edge">
<title>1990971357616&#45;&gt;1990971356944</title>
<path fill="none" stroke="black" d="M696.44,-59C703.68,-59 711.84,-59 720.21,-59"/>
<polygon fill="black" stroke="black" points="720.16,-62.5 730.16,-59 720.16,-55.5 720.16,-62.5"/>
</g>
<!-- 1990976167360&#45;&gt;1990976171872 -->
<g id="edge9" class="edge">
<title>1990976167360&#45;&gt;1990976171872</title>
<path fill="none" stroke="black" d="M928.47,-59C935.77,-59 943.93,-59 952.08,-59"/>
<polygon fill="black" stroke="black" points="952,-62.5 962,-59 952,-55.5 952,-62.5"/>
</g>
<!-- 1990976170240&#45;&gt;1990976163088 -->
<g id="edge11" class="edge">
<title>1990976170240&#45;&gt;1990976163088</title>
<path fill="none" stroke="black" d="M1131.81,-59C1139.19,-59 1147.49,-59 1155.86,-59"/>
<polygon fill="black" stroke="black" points="1155.71,-62.5 1165.71,-59 1155.71,-55.5 1155.71,-62.5"/>
</g>
<!-- 1990976167984&#45;&gt;1990978393952 -->
<g id="edge13" class="edge">
<title>1990976167984&#45;&gt;1990978393952</title>
<path fill="none" stroke="black" d="M1344.27,-59C1351.63,-59 1359.96,-59 1368.48,-59"/>
<polygon fill="black" stroke="black" points="1368.21,-62.5 1378.21,-59 1368.21,-55.5 1368.21,-62.5"/>
</g>
<!-- 1990978399856&#45;&gt;1990978391792 -->
<g id="edge15" class="edge">
<title>1990978399856&#45;&gt;1990978391792</title>
<path fill="none" stroke="black" d="M1574.83,-59C1582.17,-59 1590.38,-59 1598.56,-59"/>
<polygon fill="black" stroke="black" points="1598.49,-62.5 1608.49,-59 1598.49,-55.5 1598.49,-62.5"/>
</g>
<!-- 1990978395008&#45;&gt;1990978395248 -->
<g id="edge17" class="edge">
<title>1990978395008&#45;&gt;1990978395248</title>
<path fill="none" stroke="black" d="M1775.27,-59C1782.65,-59 1790.95,-59 1799.28,-59"/>
<polygon fill="black" stroke="black" points="1799.05,-62.5 1809.05,-59 1799.05,-55.5 1799.05,-62.5"/>
</g>
<!-- 1990978402352&#45;&gt;1990978398464 -->
<g id="edge19" class="edge">
<title>1990978402352&#45;&gt;1990978398464</title>
<path fill="none" stroke="black" d="M1983.32,-59C1990.69,-59 1999,-59 2007.38,-59"/>
<polygon fill="black" stroke="black" points="2007.27,-62.5 2017.27,-59 2007.27,-55.5 2007.27,-62.5"/>
</g>
<!-- 1990978392800&#45;&gt;1990971766976 -->
<g id="edge21" class="edge">
<title>1990978392800&#45;&gt;1990971766976</title>
<path fill="none" stroke="black" d="M2197.99,-59C2205.32,-59 2213.59,-59 2221.97,-59"/>
<polygon fill="black" stroke="black" points="2221.87,-62.5 2231.87,-59 2221.87,-55.5 2221.87,-62.5"/>
</g>
<!-- 1990971761024&#45;&gt;1990971768224 -->
<g id="edge23" class="edge">
<title>1990971761024&#45;&gt;1990971768224</title>
<path fill="none" stroke="black" d="M2416.57,-59C2423.9,-59 2432.18,-59 2440.6,-59"/>
<polygon fill="black" stroke="black" points="2440.58,-62.5 2450.58,-59 2440.58,-55.5 2440.58,-62.5"/>
</g>
<!-- 1990971757904&#45;&gt;1990971764672 -->
<g id="edge25" class="edge">
<title>1990971757904&#45;&gt;1990971764672</title>
<path fill="none" stroke="black" d="M2639.5,-52.4C2647.13,-50.42 2655.8,-48.17 2664.53,-45.91"/>
<polygon fill="black" stroke="black" points="2665.28,-49.34 2674.08,-43.44 2663.52,-42.56 2665.28,-49.34"/>
</g>
<!-- 1990971768128&#45;&gt;1990981968640 -->
<g id="edge27" class="edge">
<title>1990971768128&#45;&gt;1990981968640</title>
<path fill="none" stroke="black" d="M2852.98,-31C2861.99,-31 2872.42,-31 2882.83,-31"/>
<polygon fill="black" stroke="black" points="2882.53,-34.5 2892.53,-31 2882.53,-27.5 2882.53,-34.5"/>
</g>
<!-- 1990971768128&#45;&gt;1990971756320 -->
<g id="edge28" class="edge">
<title>1990971768128&#45;&gt;1990971756320</title>
<path fill="none" stroke="black" d="M2850.2,-42.45C2861.74,-48.03 2876.05,-54.95 2889.76,-61.57"/>
<polygon fill="black" stroke="black" points="2888.19,-64.7 2898.71,-65.89 2891.23,-58.39 2888.19,-64.7"/>
</g>
</g>
</svg>
