<?xml version="1.0" encoding="UTF-8" standalone="no"?>
<!DOCTYPE svg PUBLIC "-//W3C//DTD SVG 1.1//EN"
 "http://www.w3.org/Graphics/SVG/1.1/DTD/svg11.dtd">
<!-- Generated by graphviz version 11.0.0 (20240428.1522)
 -->
<!-- Title: imdf_net_1754051562.3023577 Pages: 1 -->
<svg width="3313pt" height="70pt"
 viewBox="0.00 0.00 3313.00 70.00" xmlns="http://www.w3.org/2000/svg" xmlns:xlink="http://www.w3.org/1999/xlink">
<g id="graph0" class="graph" transform="scale(1 1) rotate(0) translate(4 66)">
<title>imdf_net_1754051562.3023577</title>
<polygon fill="white" stroke="none" points="-4,4 -4,-66 3309,-66 3309,4 -4,4"/>
<!-- 1990977253264 -->
<g id="node1" class="node">
<title>1990977253264</title>
<polygon fill="white" stroke="black" points="173.5,-49 90,-49 90,-13 173.5,-13 173.5,-49"/>
<text text-anchor="middle" x="131.75" y="-25.98" font-family="Times New Roman,serif" font-size="12.00">Archival Scan</text>
</g>
<!-- 1990977252832 -->
<g id="node17" class="node">
<title>1990977252832</title>
<ellipse fill="white" stroke="black" cx="236.5" cy="-31" rx="27" ry="27"/>
</g>
<!-- 1990977253264&#45;&gt;1990977252832 -->
<g id="edge2" class="edge">
<title>1990977253264&#45;&gt;1990977252832</title>
<path fill="none" stroke="black" d="M173.95,-31C181.81,-31 190,-31 197.75,-31"/>
<polygon fill="black" stroke="black" points="197.55,-34.5 207.55,-31 197.55,-27.5 197.55,-34.5"/>
</g>
<!-- 1990980242320 -->
<g id="node2" class="node">
<title>1990980242320</title>
<polygon fill="white" stroke="black" points="367.25,-49 299.5,-49 299.5,-13 367.25,-13 367.25,-49"/>
<text text-anchor="middle" x="333.38" y="-25.98" font-family="Times New Roman,serif" font-size="12.00">Artifact ID</text>
</g>
<!-- 1990980247600 -->
<g id="node18" class="node">
<title>1990980247600</title>
<ellipse fill="white" stroke="black" cx="430.25" cy="-31" rx="27" ry="27"/>
</g>
<!-- 1990980242320&#45;&gt;1990980247600 -->
<g id="edge4" class="edge">
<title>1990980242320&#45;&gt;1990980247600</title>
<path fill="none" stroke="black" d="M367.56,-31C375.31,-31 383.63,-31 391.56,-31"/>
<polygon fill="black" stroke="black" points="391.29,-34.5 401.29,-31 391.29,-27.5 391.29,-34.5"/>
</g>
<!-- 1990980245728 -->
<g id="node3" class="node">
<title>1990980245728</title>
<polygon fill="white" stroke="black" points="592.5,-49 493.25,-49 493.25,-13 592.5,-13 592.5,-49"/>
<text text-anchor="middle" x="542.88" y="-25.98" font-family="Times New Roman,serif" font-size="12.00">Stakeholder Meet</text>
</g>
<!-- 1990980253264 -->
<g id="node19" class="node">
<title>1990980253264</title>
<ellipse fill="white" stroke="black" cx="655.5" cy="-31" rx="27" ry="27"/>
</g>
<!-- 1990980245728&#45;&gt;1990980253264 -->
<g id="edge6" class="edge">
<title>1990980245728&#45;&gt;1990980253264</title>
<path fill="none" stroke="black" d="M592.72,-31C600.79,-31 609.05,-31 616.79,-31"/>
<polygon fill="black" stroke="black" points="616.55,-34.5 626.55,-31 616.55,-27.5 616.55,-34.5"/>
</g>
<!-- 1990980248224 -->
<g id="node4" class="node">
<title>1990980248224</title>
<polygon fill="white" stroke="black" points="823.75,-49 718.5,-49 718.5,-13 823.75,-13 823.75,-49"/>
<text text-anchor="middle" x="771.12" y="-25.98" font-family="Times New Roman,serif" font-size="12.00">Provenance Check</text>
</g>
<!-- 1990980253024 -->
<g id="node20" class="node">
<title>1990980253024</title>
<ellipse fill="white" stroke="black" cx="886.75" cy="-31" rx="27" ry="27"/>
</g>
<!-- 1990980248224&#45;&gt;1990980253024 -->
<g id="edge8" class="edge">
<title>1990980248224&#45;&gt;1990980253024</title>
<path fill="none" stroke="black" d="M823.95,-31C832.11,-31 840.41,-31 848.17,-31"/>
<polygon fill="black" stroke="black" points="847.93,-34.5 857.93,-31 847.93,-27.5 847.93,-34.5"/>
</g>
<!-- 1990980249280 -->
<g id="node5" class="node">
<title>1990980249280</title>
<polygon fill="white" stroke="black" points="1032.5,-49 949.75,-49 949.75,-13 1032.5,-13 1032.5,-49"/>
<text text-anchor="middle" x="991.12" y="-25.98" font-family="Times New Roman,serif" font-size="12.00">Legal Review</text>
</g>
<!-- 1990980246304 -->
<g id="node21" class="node">
<title>1990980246304</title>
<ellipse fill="white" stroke="black" cx="1095.5" cy="-31" rx="27" ry="27"/>
</g>
<!-- 1990980249280&#45;&gt;1990980246304 -->
<g id="edge10" class="edge">
<title>1990980249280&#45;&gt;1990980246304</title>
<path fill="none" stroke="black" d="M1032.88,-31C1040.73,-31 1048.92,-31 1056.67,-31"/>
<polygon fill="black" stroke="black" points="1056.49,-34.5 1066.49,-31 1056.49,-27.5 1056.49,-34.5"/>
</g>
<!-- 1990980243712 -->
<g id="node6" class="node">
<title>1990980243712</title>
<polygon fill="white" stroke="black" points="1257,-49 1158.5,-49 1158.5,-13 1257,-13 1257,-49"/>
<text text-anchor="middle" x="1207.75" y="-25.98" font-family="Times New Roman,serif" font-size="12.00">Ownership Audit</text>
</g>
<!-- 1990976656816 -->
<g id="node22" class="node">
<title>1990976656816</title>
<ellipse fill="white" stroke="black" cx="1320" cy="-31" rx="27" ry="27"/>
</g>
<!-- 1990980243712&#45;&gt;1990976656816 -->
<g id="edge12" class="edge">
<title>1990980243712&#45;&gt;1990976656816</title>
<path fill="none" stroke="black" d="M1257.43,-31C1265.38,-31 1273.51,-31 1281.15,-31"/>
<polygon fill="black" stroke="black" points="1281.14,-34.5 1291.14,-31 1281.14,-27.5 1281.14,-34.5"/>
</g>
<!-- 1990976667376 -->
<g id="node7" class="node">
<title>1990976667376</title>
<polygon fill="white" stroke="black" points="1479.25,-49 1383,-49 1383,-13 1479.25,-13 1479.25,-49"/>
<text text-anchor="middle" x="1431.12" y="-25.98" font-family="Times New Roman,serif" font-size="12.00">Negotiation Prep</text>
</g>
<!-- 1990976652688 -->
<g id="node23" class="node">
<title>1990976652688</title>
<ellipse fill="white" stroke="black" cx="1542.25" cy="-31" rx="27" ry="27"/>
</g>
<!-- 1990976667376&#45;&gt;1990976652688 -->
<g id="edge14" class="edge">
<title>1990976667376&#45;&gt;1990976652688</title>
<path fill="none" stroke="black" d="M1479.67,-31C1487.59,-31 1495.7,-31 1503.34,-31"/>
<polygon fill="black" stroke="black" points="1503.33,-34.5 1513.33,-31 1503.33,-27.5 1503.33,-34.5"/>
</g>
<!-- 1990976658880 -->
<g id="node8" class="node">
<title>1990976658880</title>
<polygon fill="white" stroke="black" points="1717.25,-49 1605.25,-49 1605.25,-13 1717.25,-13 1717.25,-49"/>
<text text-anchor="middle" x="1661.25" y="-25.98" font-family="Times New Roman,serif" font-size="12.00">Stakeholder Contact</text>
</g>
<!-- 1990976653456 -->
<g id="node24" class="node">
<title>1990976653456</title>
<ellipse fill="white" stroke="black" cx="1780.25" cy="-31" rx="27" ry="27"/>
</g>
<!-- 1990976658880&#45;&gt;1990976653456 -->
<g id="edge16" class="edge">
<title>1990976658880&#45;&gt;1990976653456</title>
<path fill="none" stroke="black" d="M1717.67,-31C1725.73,-31 1733.87,-31 1741.47,-31"/>
<polygon fill="black" stroke="black" points="1741.38,-34.5 1751.38,-31 1741.38,-27.5 1741.38,-34.5"/>
</g>
<!-- 1990976665456 -->
<g id="node9" class="node">
<title>1990976665456</title>
<polygon fill="white" stroke="black" points="1939.5,-49 1843.25,-49 1843.25,-13 1939.5,-13 1939.5,-49"/>
<text text-anchor="middle" x="1891.38" y="-25.98" font-family="Times New Roman,serif" font-size="12.00">Agreement Draft</text>
</g>
<!-- 1990976655040 -->
<g id="node25" class="node">
<title>1990976655040</title>
<ellipse fill="white" stroke="black" cx="2002.5" cy="-31" rx="27" ry="27"/>
</g>
<!-- 1990976665456&#45;&gt;1990976655040 -->
<g id="edge18" class="edge">
<title>1990976665456&#45;&gt;1990976655040</title>
<path fill="none" stroke="black" d="M1939.92,-31C1947.84,-31 1955.95,-31 1963.59,-31"/>
<polygon fill="black" stroke="black" points="1963.58,-34.5 1973.58,-31 1963.58,-27.5 1963.58,-34.5"/>
</g>
<!-- 1990976657488 -->
<g id="node10" class="node">
<title>1990976657488</title>
<polygon fill="white" stroke="black" points="2151.25,-49 2065.5,-49 2065.5,-13 2151.25,-13 2151.25,-49"/>
<text text-anchor="middle" x="2108.38" y="-25.98" font-family="Times New Roman,serif" font-size="12.00">Transport Plan</text>
</g>
<!-- 1990976651584 -->
<g id="node26" class="node">
<title>1990976651584</title>
<ellipse fill="white" stroke="black" cx="2214.25" cy="-31" rx="27" ry="27"/>
</g>
<!-- 1990976657488&#45;&gt;1990976651584 -->
<g id="edge20" class="edge">
<title>1990976657488&#45;&gt;1990976651584</title>
<path fill="none" stroke="black" d="M2151.62,-31C2159.53,-31 2167.75,-31 2175.51,-31"/>
<polygon fill="black" stroke="black" points="2175.32,-34.5 2185.32,-31 2175.32,-27.5 2175.32,-34.5"/>
</g>
<!-- 1990976666992 -->
<g id="node11" class="node">
<title>1990976666992</title>
<polygon fill="white" stroke="black" points="2363,-49 2277.25,-49 2277.25,-13 2363,-13 2363,-49"/>
<text text-anchor="middle" x="2320.12" y="-25.98" font-family="Times New Roman,serif" font-size="12.00">Customs Clear</text>
</g>
<!-- 1990976658496 -->
<g id="node27" class="node">
<title>1990976658496</title>
<ellipse fill="white" stroke="black" cx="2426" cy="-31" rx="27" ry="27"/>
</g>
<!-- 1990976666992&#45;&gt;1990976658496 -->
<g id="edge22" class="edge">
<title>1990976666992&#45;&gt;1990976658496</title>
<path fill="none" stroke="black" d="M2363.37,-31C2371.28,-31 2379.5,-31 2387.26,-31"/>
<polygon fill="black" stroke="black" points="2387.07,-34.5 2397.07,-31 2387.07,-27.5 2387.07,-34.5"/>
</g>
<!-- 1990976660944 -->
<g id="node12" class="node">
<title>1990976660944</title>
<polygon fill="white" stroke="black" points="2580,-49 2489,-49 2489,-13 2580,-13 2580,-49"/>
<text text-anchor="middle" x="2534.5" y="-25.98" font-family="Times New Roman,serif" font-size="12.00">Artifact Restore</text>
</g>
<!-- 1990976661712 -->
<g id="node28" class="node">
<title>1990976661712</title>
<ellipse fill="white" stroke="black" cx="2643" cy="-31" rx="27" ry="27"/>
</g>
<!-- 1990976660944&#45;&gt;1990976661712 -->
<g id="edge24" class="edge">
<title>1990976660944&#45;&gt;1990976661712</title>
<path fill="none" stroke="black" d="M2580.36,-31C2588.36,-31 2596.62,-31 2604.4,-31"/>
<polygon fill="black" stroke="black" points="2604.21,-34.5 2614.21,-31 2604.21,-27.5 2604.21,-34.5"/>
</g>
<!-- 1990976663008 -->
<g id="node13" class="node">
<title>1990976663008</title>
<polygon fill="white" stroke="black" points="2788,-49 2706,-49 2706,-13 2788,-13 2788,-49"/>
<text text-anchor="middle" x="2747" y="-25.98" font-family="Times New Roman,serif" font-size="12.00">Catalog Entry</text>
</g>
<!-- 1990976651632 -->
<g id="node29" class="node">
<title>1990976651632</title>
<ellipse fill="white" stroke="black" cx="2851" cy="-31" rx="27" ry="27"/>
</g>
<!-- 1990976663008&#45;&gt;1990976651632 -->
<g id="edge26" class="edge">
<title>1990976663008&#45;&gt;1990976651632</title>
<path fill="none" stroke="black" d="M2788.31,-31C2796.23,-31 2804.5,-31 2812.32,-31"/>
<polygon fill="black" stroke="black" points="2812.23,-34.5 2822.23,-31 2812.23,-27.5 2812.23,-34.5"/>
</g>
<!-- 1990976656144 -->
<g id="node14" class="node">
<title>1990976656144</title>
<polygon fill="white" stroke="black" points="2994.5,-49 2914,-49 2914,-13 2994.5,-13 2994.5,-49"/>
<text text-anchor="middle" x="2954.25" y="-25.98" font-family="Times New Roman,serif" font-size="12.00">Exhibit Setup</text>
</g>
<!-- 1990980439168 -->
<g id="node30" class="node">
<title>1990980439168</title>
<ellipse fill="white" stroke="black" cx="3057.5" cy="-31" rx="27" ry="27"/>
</g>
<!-- 1990976656144&#45;&gt;1990980439168 -->
<g id="edge28" class="edge">
<title>1990976656144&#45;&gt;1990980439168</title>
<path fill="none" stroke="black" d="M2994.98,-31C3002.85,-31 3011.09,-31 3018.89,-31"/>
<polygon fill="black" stroke="black" points="3018.77,-34.5 3028.77,-31 3018.77,-27.5 3018.77,-34.5"/>
</g>
<!-- 1990979579120 -->
<g id="node15" class="node">
<title>1990979579120</title>
<polygon fill="white" stroke="black" points="3207,-49 3120.5,-49 3120.5,-13 3207,-13 3207,-49"/>
<text text-anchor="middle" x="3163.75" y="-25.98" font-family="Times New Roman,serif" font-size="12.00">Legacy Report</text>
</g>
<!-- 1990976614720 -->
<g id="node31" class="node">
<title>1990976614720</title>
<ellipse fill="white" stroke="black" cx="3274" cy="-31" rx="27" ry="27"/>
<ellipse fill="none" stroke="black" cx="3274" cy="-31" rx="31" ry="31"/>
<text text-anchor="start" x="3257.5" y="-15.6" font-family="Times New Roman,serif" font-size="32.00">■</text>
</g>
<!-- 1990979579120&#45;&gt;1990976614720 -->
<g id="edge30" class="edge">
<title>1990979579120&#45;&gt;1990976614720</title>
<path fill="none" stroke="black" d="M3207.22,-31C3215.18,-31 3223.49,-31 3231.43,-31"/>
<polygon fill="black" stroke="black" points="3231.18,-34.5 3241.18,-31 3231.18,-27.5 3231.18,-34.5"/>
</g>
<!-- 1990976615776 -->
<g id="node16" class="node">
<title>1990976615776</title>
<ellipse fill="white" stroke="black" cx="27" cy="-31" rx="27" ry="27"/>
<text text-anchor="start" x="9.75" y="-13.7" font-family="Times New Roman,serif" font-size="34.00">●</text>
</g>
<!-- 1990976615776&#45;&gt;1990977253264 -->
<g id="edge1" class="edge">
<title>1990976615776&#45;&gt;1990977253264</title>
<path fill="none" stroke="black" d="M54.46,-31C61.82,-31 70.08,-31 78.37,-31"/>
<polygon fill="black" stroke="black" points="78.11,-34.5 88.11,-31 78.11,-27.5 78.11,-34.5"/>
</g>
<!-- 1990977252832&#45;&gt;1990980242320 -->
<g id="edge3" class="edge">
<title>1990977252832&#45;&gt;1990980242320</title>
<path fill="none" stroke="black" d="M263.93,-31C271.38,-31 279.7,-31 287.9,-31"/>
<polygon fill="black" stroke="black" points="287.8,-34.5 297.8,-31 287.8,-27.5 287.8,-34.5"/>
</g>
<!-- 1990980247600&#45;&gt;1990980245728 -->
<g id="edge5" class="edge">
<title>1990980247600&#45;&gt;1990980245728</title>
<path fill="none" stroke="black" d="M457.75,-31C465.04,-31 473.27,-31 481.64,-31"/>
<polygon fill="black" stroke="black" points="481.57,-34.5 491.57,-31 481.57,-27.5 481.57,-34.5"/>
</g>
<!-- 1990980253264&#45;&gt;1990980248224 -->
<g id="edge7" class="edge">
<title>1990980253264&#45;&gt;1990980248224</title>
<path fill="none" stroke="black" d="M682.85,-31C690.24,-31 698.6,-31 707.15,-31"/>
<polygon fill="black" stroke="black" points="706.91,-34.5 716.91,-31 706.91,-27.5 706.91,-34.5"/>
</g>
<!-- 1990980253024&#45;&gt;1990980249280 -->
<g id="edge9" class="edge">
<title>1990980253024&#45;&gt;1990980249280</title>
<path fill="none" stroke="black" d="M914.11,-31C921.53,-31 929.86,-31 938.21,-31"/>
<polygon fill="black" stroke="black" points="938.02,-34.5 948.02,-31 938.02,-27.5 938.02,-34.5"/>
</g>
<!-- 1990980246304&#45;&gt;1990980243712 -->
<g id="edge11" class="edge">
<title>1990980246304&#45;&gt;1990980243712</title>
<path fill="none" stroke="black" d="M1122.91,-31C1130.18,-31 1138.37,-31 1146.72,-31"/>
<polygon fill="black" stroke="black" points="1146.61,-34.5 1156.61,-31 1146.61,-27.5 1146.61,-34.5"/>
</g>
<!-- 1990976656816&#45;&gt;1990976667376 -->
<g id="edge13" class="edge">
<title>1990976656816&#45;&gt;1990976667376</title>
<path fill="none" stroke="black" d="M1347.42,-31C1354.7,-31 1362.91,-31 1371.25,-31"/>
<polygon fill="black" stroke="black" points="1371.12,-34.5 1381.12,-31 1371.12,-27.5 1371.12,-34.5"/>
</g>
<!-- 1990976652688&#45;&gt;1990976658880 -->
<g id="edge15" class="edge">
<title>1990976652688&#45;&gt;1990976658880</title>
<path fill="none" stroke="black" d="M1569.51,-31C1576.82,-31 1585.1,-31 1593.62,-31"/>
<polygon fill="black" stroke="black" points="1593.38,-34.5 1603.38,-31 1593.38,-27.5 1593.38,-34.5"/>
</g>
<!-- 1990976653456&#45;&gt;1990976665456 -->
<g id="edge17" class="edge">
<title>1990976653456&#45;&gt;1990976665456</title>
<path fill="none" stroke="black" d="M1807.67,-31C1814.95,-31 1823.16,-31 1831.5,-31"/>
<polygon fill="black" stroke="black" points="1831.37,-34.5 1841.37,-31 1831.37,-27.5 1831.37,-34.5"/>
</g>
<!-- 1990976655040&#45;&gt;1990976657488 -->
<g id="edge19" class="edge">
<title>1990976655040&#45;&gt;1990976657488</title>
<path fill="none" stroke="black" d="M2029.98,-31C2037.34,-31 2045.6,-31 2053.91,-31"/>
<polygon fill="black" stroke="black" points="2053.69,-34.5 2063.69,-31 2053.69,-27.5 2053.69,-34.5"/>
</g>
<!-- 1990976651584&#45;&gt;1990976666992 -->
<g id="edge21" class="edge">
<title>1990976651584&#45;&gt;1990976666992</title>
<path fill="none" stroke="black" d="M2241.73,-31C2249.09,-31 2257.35,-31 2265.66,-31"/>
<polygon fill="black" stroke="black" points="2265.44,-34.5 2275.44,-31 2265.44,-27.5 2265.44,-34.5"/>
</g>
<!-- 1990976658496&#45;&gt;1990976660944 -->
<g id="edge23" class="edge">
<title>1990976658496&#45;&gt;1990976660944</title>
<path fill="none" stroke="black" d="M2453.33,-31C2460.69,-31 2469,-31 2477.39,-31"/>
<polygon fill="black" stroke="black" points="2477.31,-34.5 2487.31,-31 2477.31,-27.5 2477.31,-34.5"/>
</g>
<!-- 1990976661712&#45;&gt;1990976663008 -->
<g id="edge25" class="edge">
<title>1990976661712&#45;&gt;1990976663008</title>
<path fill="none" stroke="black" d="M2670.27,-31C2677.65,-31 2685.95,-31 2694.28,-31"/>
<polygon fill="black" stroke="black" points="2694.05,-34.5 2704.05,-31 2694.05,-27.5 2694.05,-34.5"/>
</g>
<!-- 1990976651632&#45;&gt;1990976656144 -->
<g id="edge27" class="edge">
<title>1990976651632&#45;&gt;1990976656144</title>
<path fill="none" stroke="black" d="M2878.34,-31C2885.75,-31 2894.07,-31 2902.4,-31"/>
<polygon fill="black" stroke="black" points="2902.17,-34.5 2912.17,-31 2902.17,-27.5 2902.17,-34.5"/>
</g>
<!-- 1990980439168&#45;&gt;1990979579120 -->
<g id="edge29" class="edge">
<title>1990980439168&#45;&gt;1990979579120</title>
<path fill="none" stroke="black" d="M3084.81,-31C3092.19,-31 3100.49,-31 3108.86,-31"/>
<polygon fill="black" stroke="black" points="3108.71,-34.5 3118.71,-31 3108.71,-27.5 3108.71,-34.5"/>
</g>
</g>
</svg>
