<?xml version="1.0" encoding="UTF-8" standalone="no"?>
<!DOCTYPE svg PUBLIC "-//W3C//DTD SVG 1.1//EN"
 "http://www.w3.org/Graphics/SVG/1.1/DTD/svg11.dtd">
<!-- Generated by graphviz version 11.0.0 (20240428.1522)
 -->
<!-- Title: imdf_net_1754051586.0717754 Pages: 1 -->
<svg width="3059pt" height="111pt"
 viewBox="0.00 0.00 3058.75 111.00" xmlns="http://www.w3.org/2000/svg" xmlns:xlink="http://www.w3.org/1999/xlink">
<g id="graph0" class="graph" transform="scale(1 1) rotate(0) translate(4 107)">
<title>imdf_net_1754051586.0717754</title>
<polygon fill="white" stroke="none" points="-4,4 -4,-107 3054.75,-107 3054.75,4 -4,4"/>
<!-- 1990971521264 -->
<g id="node1" class="node">
<title>1990971521264</title>
<polygon fill="white" stroke="black" points="160.75,-77 90,-77 90,-41 160.75,-41 160.75,-77"/>
<text text-anchor="middle" x="125.38" y="-53.98" font-family="Times New Roman,serif" font-size="12.00">Site Survey</text>
</g>
<!-- 1990978345184 -->
<g id="node18" class="node">
<title>1990978345184</title>
<ellipse fill="white" stroke="black" cx="223.75" cy="-59" rx="27" ry="27"/>
</g>
<!-- 1990971521264&#45;&gt;1990978345184 -->
<g id="edge2" class="edge">
<title>1990971521264&#45;&gt;1990978345184</title>
<path fill="none" stroke="black" d="M161.17,-59C168.9,-59 177.14,-59 184.98,-59"/>
<polygon fill="black" stroke="black" points="184.97,-62.5 194.97,-59 184.97,-55.5 184.97,-62.5"/>
</g>
<!-- 1990969792688 -->
<g id="node2" class="node">
<title>1990969792688</title>
<polygon fill="white" stroke="black" points="357.5,-77 286.75,-77 286.75,-41 357.5,-41 357.5,-77"/>
<text text-anchor="middle" x="322.12" y="-53.98" font-family="Times New Roman,serif" font-size="12.00">Rack Setup</text>
</g>
<!-- 1990976890752 -->
<g id="node19" class="node">
<title>1990976890752</title>
<ellipse fill="white" stroke="black" cx="420.5" cy="-59" rx="27" ry="27"/>
</g>
<!-- 1990969792688&#45;&gt;1990976890752 -->
<g id="edge4" class="edge">
<title>1990969792688&#45;&gt;1990976890752</title>
<path fill="none" stroke="black" d="M357.92,-59C365.65,-59 373.89,-59 381.73,-59"/>
<polygon fill="black" stroke="black" points="381.72,-62.5 391.72,-59 381.72,-55.5 381.72,-62.5"/>
</g>
<!-- 1990976892048 -->
<g id="node3" class="node">
<title>1990976892048</title>
<polygon fill="white" stroke="black" points="570.75,-77 483.5,-77 483.5,-41 570.75,-41 570.75,-77"/>
<text text-anchor="middle" x="527.12" y="-53.98" font-family="Times New Roman,serif" font-size="12.00">Climate Adjust</text>
</g>
<!-- 1990976891424 -->
<g id="node20" class="node">
<title>1990976891424</title>
<ellipse fill="white" stroke="black" cx="633.75" cy="-59" rx="27" ry="27"/>
</g>
<!-- 1990976892048&#45;&gt;1990976891424 -->
<g id="edge6" class="edge">
<title>1990976892048&#45;&gt;1990976891424</title>
<path fill="none" stroke="black" d="M570.98,-59C578.93,-59 587.17,-59 594.95,-59"/>
<polygon fill="black" stroke="black" points="594.79,-62.5 604.79,-59 594.79,-55.5 594.79,-62.5"/>
</g>
<!-- 1990976882736 -->
<g id="node4" class="node">
<title>1990976882736</title>
<polygon fill="white" stroke="black" points="774.25,-77 696.75,-77 696.75,-41 774.25,-41 774.25,-77"/>
<text text-anchor="middle" x="735.5" y="-53.98" font-family="Times New Roman,serif" font-size="12.00">Nutrient Mix</text>
</g>
<!-- 1990976887344 -->
<g id="node21" class="node">
<title>1990976887344</title>
<ellipse fill="white" stroke="black" cx="837.25" cy="-59" rx="27" ry="27"/>
</g>
<!-- 1990976882736&#45;&gt;1990976887344 -->
<g id="edge8" class="edge">
<title>1990976882736&#45;&gt;1990976887344</title>
<path fill="none" stroke="black" d="M774.5,-59C782.32,-59 790.56,-59 798.38,-59"/>
<polygon fill="black" stroke="black" points="798.3,-62.5 808.3,-59 798.3,-55.5 798.3,-62.5"/>
</g>
<!-- 1990976893008 -->
<g id="node5" class="node">
<title>1990976893008</title>
<polygon fill="white" stroke="black" points="971,-77 900.25,-77 900.25,-41 971,-41 971,-77"/>
<text text-anchor="middle" x="935.62" y="-53.98" font-family="Times New Roman,serif" font-size="12.00">Seed Select</text>
</g>
<!-- 1990976883072 -->
<g id="node22" class="node">
<title>1990976883072</title>
<ellipse fill="white" stroke="black" cx="1034" cy="-59" rx="27" ry="27"/>
</g>
<!-- 1990976893008&#45;&gt;1990976883072 -->
<g id="edge10" class="edge">
<title>1990976893008&#45;&gt;1990976883072</title>
<path fill="none" stroke="black" d="M971.42,-59C979.15,-59 987.39,-59 995.23,-59"/>
<polygon fill="black" stroke="black" points="995.22,-62.5 1005.22,-59 995.22,-55.5 995.22,-62.5"/>
</g>
<!-- 1990971213200 -->
<g id="node6" class="node">
<title>1990971213200</title>
<polygon fill="white" stroke="black" points="1164,-77 1097,-77 1097,-41 1164,-41 1164,-77"/>
<text text-anchor="middle" x="1130.5" y="-53.98" font-family="Times New Roman,serif" font-size="12.00">Auto Plant</text>
</g>
<!-- 1990971218768 -->
<g id="node23" class="node">
<title>1990971218768</title>
<ellipse fill="white" stroke="black" cx="1227" cy="-59" rx="27" ry="27"/>
</g>
<!-- 1990971213200&#45;&gt;1990971218768 -->
<g id="edge12" class="edge">
<title>1990971213200&#45;&gt;1990971218768</title>
<path fill="none" stroke="black" d="M1164.29,-59C1172.02,-59 1180.33,-59 1188.27,-59"/>
<polygon fill="black" stroke="black" points="1188,-62.5 1198,-59 1188,-55.5 1188,-62.5"/>
</g>
<!-- 1990971222656 -->
<g id="node7" class="node">
<title>1990971222656</title>
<polygon fill="white" stroke="black" points="1359.25,-54 1290,-54 1290,-18 1359.25,-18 1359.25,-54"/>
<text text-anchor="middle" x="1324.62" y="-30.98" font-family="Times New Roman,serif" font-size="12.00">Light Tune</text>
</g>
<!-- 1990979482832 -->
<g id="node24" class="node">
<title>1990979482832</title>
<ellipse fill="white" stroke="black" cx="1422.25" cy="-31" rx="27" ry="27"/>
</g>
<!-- 1990971222656&#45;&gt;1990979482832 -->
<g id="edge14" class="edge">
<title>1990971222656&#45;&gt;1990979482832</title>
<path fill="none" stroke="black" d="M1359.61,-34.22C1367.4,-33.82 1375.73,-33.38 1383.66,-32.97"/>
<polygon fill="black" stroke="black" points="1383.58,-36.47 1393.38,-32.46 1383.21,-29.48 1383.58,-36.47"/>
</g>
<!-- 1990979469584 -->
<g id="node8" class="node">
<title>1990979469584</title>
<polygon fill="white" stroke="black" points="1554.5,-49 1485.25,-49 1485.25,-13 1554.5,-13 1554.5,-49"/>
<text text-anchor="middle" x="1519.88" y="-25.98" font-family="Times New Roman,serif" font-size="12.00">Pest Check</text>
</g>
<!-- 1990979485136 -->
<g id="node25" class="node">
<title>1990979485136</title>
<ellipse fill="white" stroke="black" cx="1617.5" cy="-31" rx="27" ry="27"/>
</g>
<!-- 1990979469584&#45;&gt;1990979485136 -->
<g id="edge16" class="edge">
<title>1990979469584&#45;&gt;1990979485136</title>
<path fill="none" stroke="black" d="M1554.86,-31C1562.56,-31 1570.78,-31 1578.63,-31"/>
<polygon fill="black" stroke="black" points="1578.63,-34.5 1588.63,-31 1578.63,-27.5 1578.63,-34.5"/>
</g>
<!-- 1990979473568 -->
<g id="node9" class="node">
<title>1990979473568</title>
<polygon fill="white" stroke="black" points="1755.75,-49 1680.5,-49 1680.5,-13 1755.75,-13 1755.75,-49"/>
<text text-anchor="middle" x="1718.12" y="-25.98" font-family="Times New Roman,serif" font-size="12.00">Sensor Sync</text>
</g>
<!-- 1990979475248 -->
<g id="node26" class="node">
<title>1990979475248</title>
<ellipse fill="white" stroke="black" cx="1818.75" cy="-31" rx="27" ry="27"/>
</g>
<!-- 1990979473568&#45;&gt;1990979475248 -->
<g id="edge18" class="edge">
<title>1990979473568&#45;&gt;1990979475248</title>
<path fill="none" stroke="black" d="M1756.13,-31C1763.9,-31 1772.1,-31 1779.9,-31"/>
<polygon fill="black" stroke="black" points="1779.8,-34.5 1789.8,-31 1779.8,-27.5 1779.8,-34.5"/>
</g>
<!-- 1990980573408 -->
<g id="node10" class="node">
<title>1990980573408</title>
<polygon fill="white" stroke="black" points="1960,-49 1881.75,-49 1881.75,-13 1960,-13 1960,-49"/>
<text text-anchor="middle" x="1920.88" y="-25.98" font-family="Times New Roman,serif" font-size="12.00">Data Review</text>
</g>
<!-- 1990980576576 -->
<g id="node27" class="node">
<title>1990980576576</title>
<ellipse fill="white" stroke="black" cx="2023" cy="-31" rx="27" ry="27"/>
</g>
<!-- 1990980573408&#45;&gt;1990980576576 -->
<g id="edge20" class="edge">
<title>1990980573408&#45;&gt;1990980576576</title>
<path fill="none" stroke="black" d="M1960.3,-31C1968.14,-31 1976.38,-31 1984.19,-31"/>
<polygon fill="black" stroke="black" points="1984.11,-34.5 1994.11,-31 1984.11,-27.5 1984.11,-34.5"/>
</g>
<!-- 1990981885616 -->
<g id="node11" class="node">
<title>1990981885616</title>
<polygon fill="white" stroke="black" points="2165,-49 2086,-49 2086,-13 2165,-13 2165,-49"/>
<text text-anchor="middle" x="2125.5" y="-25.98" font-family="Times New Roman,serif" font-size="12.00">Growth Scan</text>
</g>
<!-- 1990971224384 -->
<g id="node28" class="node">
<title>1990971224384</title>
<ellipse fill="white" stroke="black" cx="2228" cy="-31" rx="27" ry="27"/>
</g>
<!-- 1990981885616&#45;&gt;1990971224384 -->
<g id="edge22" class="edge">
<title>1990981885616&#45;&gt;1990971224384</title>
<path fill="none" stroke="black" d="M2165.36,-31C2173.21,-31 2181.45,-31 2189.26,-31"/>
<polygon fill="black" stroke="black" points="2189.16,-34.5 2199.16,-31 2189.16,-27.5 2189.16,-34.5"/>
</g>
<!-- 1990980576960 -->
<g id="node12" class="node">
<title>1990980576960</title>
<polygon fill="white" stroke="black" points="2370.75,-49 2291,-49 2291,-13 2370.75,-13 2370.75,-49"/>
<text text-anchor="middle" x="2330.88" y="-25.98" font-family="Times New Roman,serif" font-size="12.00">Harvest Crop</text>
</g>
<!-- 1990980354224 -->
<g id="node29" class="node">
<title>1990980354224</title>
<ellipse fill="white" stroke="black" cx="2433.75" cy="-31" rx="27" ry="27"/>
</g>
<!-- 1990980576960&#45;&gt;1990980354224 -->
<g id="edge26" class="edge">
<title>1990980576960&#45;&gt;1990980354224</title>
<path fill="none" stroke="black" d="M2371.16,-31C2379.03,-31 2387.27,-31 2395.07,-31"/>
<polygon fill="black" stroke="black" points="2394.97,-34.5 2404.97,-31 2394.97,-27.5 2394.97,-34.5"/>
</g>
<!-- 1990979729648 -->
<g id="node13" class="node">
<title>1990979729648</title>
<polygon fill="black" stroke="black" points="2357.88,-103 2303.88,-103 2303.88,-67 2357.88,-67 2357.88,-103"/>
</g>
<!-- 1990979729648&#45;&gt;1990971218768 -->
<g id="edge25" class="edge">
<title>1990979729648&#45;&gt;1990971218768</title>
<path fill="none" stroke="black" d="M2303.55,-85.21C2264.78,-85.51 2190.06,-86 2126.5,-86 1421.25,-86 1421.25,-86 1421.25,-86 1366.45,-86 1303.74,-75.22 1265,-67.28"/>
<polygon fill="black" stroke="black" points="1265.77,-63.87 1255.27,-65.24 1264.33,-70.72 1265.77,-63.87"/>
</g>
<!-- 1990980354848 -->
<g id="node14" class="node">
<title>1990980354848</title>
<polygon fill="white" stroke="black" points="2564.5,-49 2496.75,-49 2496.75,-13 2564.5,-13 2564.5,-49"/>
<text text-anchor="middle" x="2530.62" y="-25.98" font-family="Times New Roman,serif" font-size="12.00">Waste Sort</text>
</g>
<!-- 1990980355184 -->
<g id="node30" class="node">
<title>1990980355184</title>
<ellipse fill="white" stroke="black" cx="2627.5" cy="-31" rx="27" ry="27"/>
</g>
<!-- 1990980354848&#45;&gt;1990980355184 -->
<g id="edge28" class="edge">
<title>1990980354848&#45;&gt;1990980355184</title>
<path fill="none" stroke="black" d="M2564.81,-31C2572.56,-31 2580.88,-31 2588.81,-31"/>
<polygon fill="black" stroke="black" points="2588.54,-34.5 2598.54,-31 2588.54,-27.5 2588.54,-34.5"/>
</g>
<!-- 1990980356000 -->
<g id="node15" class="node">
<title>1990980356000</title>
<polygon fill="white" stroke="black" points="2764.25,-49 2690.5,-49 2690.5,-13 2764.25,-13 2764.25,-49"/>
<text text-anchor="middle" x="2727.38" y="-25.98" font-family="Times New Roman,serif" font-size="12.00">Pack Goods</text>
</g>
<!-- 1990981417824 -->
<g id="node31" class="node">
<title>1990981417824</title>
<ellipse fill="white" stroke="black" cx="2827.25" cy="-31" rx="27" ry="27"/>
</g>
<!-- 1990980356000&#45;&gt;1990981417824 -->
<g id="edge30" class="edge">
<title>1990980356000&#45;&gt;1990981417824</title>
<path fill="none" stroke="black" d="M2764.54,-31C2772.44,-31 2780.83,-31 2788.78,-31"/>
<polygon fill="black" stroke="black" points="2788.5,-34.5 2798.5,-31 2788.5,-27.5 2788.5,-34.5"/>
</g>
<!-- 1990981408800 -->
<g id="node16" class="node">
<title>1990981408800</title>
<polygon fill="white" stroke="black" points="2952.75,-49 2890.25,-49 2890.25,-13 2952.75,-13 2952.75,-49"/>
<text text-anchor="middle" x="2921.5" y="-25.98" font-family="Times New Roman,serif" font-size="12.00">Distribute</text>
</g>
<!-- 1990977927648 -->
<g id="node32" class="node">
<title>1990977927648</title>
<ellipse fill="white" stroke="black" cx="3019.75" cy="-31" rx="27" ry="27"/>
<ellipse fill="none" stroke="black" cx="3019.75" cy="-31" rx="31" ry="31"/>
<text text-anchor="start" x="3003.25" y="-15.6" font-family="Times New Roman,serif" font-size="32.00">■</text>
</g>
<!-- 1990981408800&#45;&gt;1990977927648 -->
<g id="edge32" class="edge">
<title>1990981408800&#45;&gt;1990977927648</title>
<path fill="none" stroke="black" d="M2953.22,-31C2960.76,-31 2968.96,-31 2976.92,-31"/>
<polygon fill="black" stroke="black" points="2976.81,-34.5 2986.81,-31 2976.81,-27.5 2976.81,-34.5"/>
</g>
<!-- 1990980796640 -->
<g id="node17" class="node">
<title>1990980796640</title>
<ellipse fill="white" stroke="black" cx="27" cy="-59" rx="27" ry="27"/>
<text text-anchor="start" x="9.75" y="-41.7" font-family="Times New Roman,serif" font-size="34.00">●</text>
</g>
<!-- 1990980796640&#45;&gt;1990971521264 -->
<g id="edge1" class="edge">
<title>1990980796640&#45;&gt;1990971521264</title>
<path fill="none" stroke="black" d="M54.33,-59C61.76,-59 70.06,-59 78.28,-59"/>
<polygon fill="black" stroke="black" points="78.24,-62.5 88.24,-59 78.24,-55.5 78.24,-62.5"/>
</g>
<!-- 1990978345184&#45;&gt;1990969792688 -->
<g id="edge3" class="edge">
<title>1990978345184&#45;&gt;1990969792688</title>
<path fill="none" stroke="black" d="M251.08,-59C258.51,-59 266.81,-59 275.03,-59"/>
<polygon fill="black" stroke="black" points="274.99,-62.5 284.99,-59 274.99,-55.5 274.99,-62.5"/>
</g>
<!-- 1990976890752&#45;&gt;1990976892048 -->
<g id="edge5" class="edge">
<title>1990976890752&#45;&gt;1990976892048</title>
<path fill="none" stroke="black" d="M447.9,-59C455.23,-59 463.46,-59 471.76,-59"/>
<polygon fill="black" stroke="black" points="471.53,-62.5 481.53,-59 471.53,-55.5 471.53,-62.5"/>
</g>
<!-- 1990976891424&#45;&gt;1990976882736 -->
<g id="edge7" class="edge">
<title>1990976891424&#45;&gt;1990976882736</title>
<path fill="none" stroke="black" d="M661.22,-59C668.52,-59 676.68,-59 684.83,-59"/>
<polygon fill="black" stroke="black" points="684.75,-62.5 694.75,-59 684.75,-55.5 684.75,-62.5"/>
</g>
<!-- 1990976887344&#45;&gt;1990976893008 -->
<g id="edge9" class="edge">
<title>1990976887344&#45;&gt;1990976893008</title>
<path fill="none" stroke="black" d="M864.58,-59C872.01,-59 880.31,-59 888.53,-59"/>
<polygon fill="black" stroke="black" points="888.49,-62.5 898.49,-59 888.49,-55.5 888.49,-62.5"/>
</g>
<!-- 1990976883072&#45;&gt;1990971213200 -->
<g id="edge11" class="edge">
<title>1990976883072&#45;&gt;1990971213200</title>
<path fill="none" stroke="black" d="M1061.32,-59C1068.75,-59 1077.04,-59 1085.2,-59"/>
<polygon fill="black" stroke="black" points="1085.06,-62.5 1095.06,-59 1085.06,-55.5 1085.06,-62.5"/>
</g>
<!-- 1990971218768&#45;&gt;1990971222656 -->
<g id="edge13" class="edge">
<title>1990971218768&#45;&gt;1990971222656</title>
<path fill="none" stroke="black" d="M1253.63,-52.84C1261.32,-50.99 1270,-48.9 1278.56,-46.84"/>
<polygon fill="black" stroke="black" points="1279.27,-50.27 1288.18,-44.53 1277.64,-43.46 1279.27,-50.27"/>
</g>
<!-- 1990979482832&#45;&gt;1990979469584 -->
<g id="edge15" class="edge">
<title>1990979482832&#45;&gt;1990979469584</title>
<path fill="none" stroke="black" d="M1449.63,-31C1457.07,-31 1465.39,-31 1473.6,-31"/>
<polygon fill="black" stroke="black" points="1473.53,-34.5 1483.53,-31 1473.53,-27.5 1473.53,-34.5"/>
</g>
<!-- 1990979485136&#45;&gt;1990979473568 -->
<g id="edge17" class="edge">
<title>1990979485136&#45;&gt;1990979473568</title>
<path fill="none" stroke="black" d="M1644.93,-31C1652.3,-31 1660.54,-31 1668.75,-31"/>
<polygon fill="black" stroke="black" points="1668.73,-34.5 1678.73,-31 1668.73,-27.5 1668.73,-34.5"/>
</g>
<!-- 1990979475248&#45;&gt;1990980573408 -->
<g id="edge19" class="edge">
<title>1990979475248&#45;&gt;1990980573408</title>
<path fill="none" stroke="black" d="M1846.06,-31C1853.38,-31 1861.59,-31 1869.8,-31"/>
<polygon fill="black" stroke="black" points="1869.8,-34.5 1879.8,-31 1869.8,-27.5 1869.8,-34.5"/>
</g>
<!-- 1990980576576&#45;&gt;1990981885616 -->
<g id="edge21" class="edge">
<title>1990980576576&#45;&gt;1990981885616</title>
<path fill="none" stroke="black" d="M2050.41,-31C2057.84,-31 2066.19,-31 2074.52,-31"/>
<polygon fill="black" stroke="black" points="2074.28,-34.5 2084.28,-31 2074.28,-27.5 2074.28,-34.5"/>
</g>
<!-- 1990971224384&#45;&gt;1990980576960 -->
<g id="edge23" class="edge">
<title>1990971224384&#45;&gt;1990980576960</title>
<path fill="none" stroke="black" d="M2255.24,-31C2262.71,-31 2271.1,-31 2279.49,-31"/>
<polygon fill="black" stroke="black" points="2279.33,-34.5 2289.33,-31 2279.33,-27.5 2279.33,-34.5"/>
</g>
<!-- 1990971224384&#45;&gt;1990979729648 -->
<g id="edge24" class="edge">
<title>1990971224384&#45;&gt;1990979729648</title>
<path fill="none" stroke="black" d="M2252.4,-43.52C2264.55,-50.03 2279.67,-58.13 2293.32,-65.43"/>
<polygon fill="black" stroke="black" points="2291.6,-68.48 2302.07,-70.12 2294.91,-62.31 2291.6,-68.48"/>
</g>
<!-- 1990980354224&#45;&gt;1990980354848 -->
<g id="edge27" class="edge">
<title>1990980354224&#45;&gt;1990980354848</title>
<path fill="none" stroke="black" d="M2461.18,-31C2468.63,-31 2476.95,-31 2485.15,-31"/>
<polygon fill="black" stroke="black" points="2485.05,-34.5 2495.05,-31 2485.05,-27.5 2485.05,-34.5"/>
</g>
<!-- 1990980355184&#45;&gt;1990980356000 -->
<g id="edge29" class="edge">
<title>1990980355184&#45;&gt;1990980356000</title>
<path fill="none" stroke="black" d="M2654.99,-31C2662.37,-31 2670.63,-31 2678.84,-31"/>
<polygon fill="black" stroke="black" points="2678.8,-34.5 2688.8,-31 2678.8,-27.5 2678.8,-34.5"/>
</g>
<!-- 1990981417824&#45;&gt;1990981408800 -->
<g id="edge31" class="edge">
<title>1990981417824&#45;&gt;1990981408800</title>
<path fill="none" stroke="black" d="M2854.44,-31C2861.97,-31 2870.38,-31 2878.61,-31"/>
<polygon fill="black" stroke="black" points="2878.49,-34.5 2888.49,-31 2878.49,-27.5 2878.49,-34.5"/>
</g>
</g>
</svg>
