<?xml version="1.0" encoding="UTF-8" standalone="no"?>
<!DOCTYPE svg PUBLIC "-//W3C//DTD SVG 1.1//EN"
 "http://www.w3.org/Graphics/SVG/1.1/DTD/svg11.dtd">
<!-- Generated by graphviz version 11.0.0 (20240428.1522)
 -->
<!-- Title: imdf_net_1754051592.591079 Pages: 1 -->
<svg width="3053pt" height="350pt"
 viewBox="0.00 0.00 3053.25 350.00" xmlns="http://www.w3.org/2000/svg" xmlns:xlink="http://www.w3.org/1999/xlink">
<g id="graph0" class="graph" transform="scale(1 1) rotate(0) translate(4 346)">
<title>imdf_net_1754051592.591079</title>
<polygon fill="white" stroke="none" points="-4,4 -4,-346 3049.25,-346 3049.25,4 -4,4"/>
<!-- 1990980247984 -->
<g id="node1" class="node">
<title>1990980247984</title>
<polygon fill="white" stroke="black" points="174.25,-217 90,-217 90,-181 174.25,-181 174.25,-217"/>
<text text-anchor="middle" x="132.12" y="-193.97" font-family="Times New Roman,serif" font-size="12.00">Milk Sourcing</text>
</g>
<!-- 1990980245056 -->
<g id="node21" class="node">
<title>1990980245056</title>
<ellipse fill="white" stroke="black" cx="237.25" cy="-199" rx="27" ry="27"/>
</g>
<!-- 1990980247984&#45;&gt;1990980245056 -->
<g id="edge2" class="edge">
<title>1990980247984&#45;&gt;1990980245056</title>
<path fill="none" stroke="black" d="M174.48,-199C182.44,-199 190.74,-199 198.58,-199"/>
<polygon fill="black" stroke="black" points="198.5,-202.5 208.5,-199 198.5,-195.5 198.5,-202.5"/>
</g>
<!-- 1990980243184 -->
<g id="node2" class="node">
<title>1990980243184</title>
<polygon fill="white" stroke="black" points="389.75,-217 300.25,-217 300.25,-181 389.75,-181 389.75,-217"/>
<text text-anchor="middle" x="345" y="-193.97" font-family="Times New Roman,serif" font-size="12.00">Quality Testing</text>
</g>
<!-- 1990977211424 -->
<g id="node22" class="node">
<title>1990977211424</title>
<ellipse fill="white" stroke="black" cx="452.75" cy="-199" rx="27" ry="27"/>
</g>
<!-- 1990980243184&#45;&gt;1990977211424 -->
<g id="edge4" class="edge">
<title>1990980243184&#45;&gt;1990977211424</title>
<path fill="none" stroke="black" d="M390.23,-199C398.2,-199 406.44,-199 414.2,-199"/>
<polygon fill="black" stroke="black" points="413.99,-202.5 423.99,-199 413.99,-195.5 413.99,-202.5"/>
</g>
<!-- 1990977213440 -->
<g id="node3" class="node">
<title>1990977213440</title>
<polygon fill="white" stroke="black" points="600.75,-217 515.75,-217 515.75,-181 600.75,-181 600.75,-217"/>
<text text-anchor="middle" x="558.25" y="-193.97" font-family="Times New Roman,serif" font-size="12.00">Starter Culture</text>
</g>
<!-- 1990977217040 -->
<g id="node23" class="node">
<title>1990977217040</title>
<ellipse fill="white" stroke="black" cx="663.75" cy="-199" rx="27" ry="27"/>
</g>
<!-- 1990977213440&#45;&gt;1990977217040 -->
<g id="edge6" class="edge">
<title>1990977213440&#45;&gt;1990977217040</title>
<path fill="none" stroke="black" d="M601.05,-199C608.95,-199 617.17,-199 624.93,-199"/>
<polygon fill="black" stroke="black" points="624.76,-202.5 634.76,-199 624.76,-195.5 624.76,-202.5"/>
</g>
<!-- 1990977397648 -->
<g id="node4" class="node">
<title>1990977397648</title>
<polygon fill="white" stroke="black" points="800.5,-217 726.75,-217 726.75,-181 800.5,-181 800.5,-217"/>
<text text-anchor="middle" x="763.62" y="-193.97" font-family="Times New Roman,serif" font-size="12.00">Coagulation</text>
</g>
<!-- 1990979650048 -->
<g id="node24" class="node">
<title>1990979650048</title>
<ellipse fill="white" stroke="black" cx="863.5" cy="-199" rx="27" ry="27"/>
</g>
<!-- 1990977397648&#45;&gt;1990979650048 -->
<g id="edge8" class="edge">
<title>1990977397648&#45;&gt;1990979650048</title>
<path fill="none" stroke="black" d="M800.79,-199C808.69,-199 817.08,-199 825.03,-199"/>
<polygon fill="black" stroke="black" points="824.75,-202.5 834.75,-199 824.75,-195.5 824.75,-202.5"/>
</g>
<!-- 1990980951824 -->
<g id="node5" class="node">
<title>1990980951824</title>
<polygon fill="white" stroke="black" points="1004.75,-217 926.5,-217 926.5,-181 1004.75,-181 1004.75,-217"/>
<text text-anchor="middle" x="965.62" y="-193.97" font-family="Times New Roman,serif" font-size="12.00">Curd Cutting</text>
</g>
<!-- 1990980944336 -->
<g id="node25" class="node">
<title>1990980944336</title>
<ellipse fill="white" stroke="black" cx="1067.75" cy="-199" rx="27" ry="27"/>
</g>
<!-- 1990980951824&#45;&gt;1990980944336 -->
<g id="edge10" class="edge">
<title>1990980951824&#45;&gt;1990980944336</title>
<path fill="none" stroke="black" d="M1005.05,-199C1012.89,-199 1021.13,-199 1028.94,-199"/>
<polygon fill="black" stroke="black" points="1028.86,-202.5 1038.86,-199 1028.86,-195.5 1028.86,-202.5"/>
</g>
<!-- 1990980944144 -->
<g id="node6" class="node">
<title>1990980944144</title>
<polygon fill="white" stroke="black" points="1220.25,-217 1130.75,-217 1130.75,-181 1220.25,-181 1220.25,-217"/>
<text text-anchor="middle" x="1175.5" y="-193.97" font-family="Times New Roman,serif" font-size="12.00">Whey Draining</text>
</g>
<!-- 1990980944480 -->
<g id="node26" class="node">
<title>1990980944480</title>
<ellipse fill="white" stroke="black" cx="1283.25" cy="-199" rx="27" ry="27"/>
</g>
<!-- 1990980944144&#45;&gt;1990980944480 -->
<g id="edge12" class="edge">
<title>1990980944144&#45;&gt;1990980944480</title>
<path fill="none" stroke="black" d="M1220.73,-199C1228.7,-199 1236.94,-199 1244.7,-199"/>
<polygon fill="black" stroke="black" points="1244.49,-202.5 1254.49,-199 1244.49,-195.5 1244.49,-202.5"/>
</g>
<!-- 1990980956816 -->
<g id="node7" class="node">
<title>1990980956816</title>
<polygon fill="white" stroke="black" points="1430.5,-217 1346.25,-217 1346.25,-181 1430.5,-181 1430.5,-217"/>
<text text-anchor="middle" x="1388.38" y="-193.97" font-family="Times New Roman,serif" font-size="12.00">Molding Press</text>
</g>
<!-- 1990980957104 -->
<g id="node27" class="node">
<title>1990980957104</title>
<ellipse fill="white" stroke="black" cx="1493.5" cy="-199" rx="27" ry="27"/>
</g>
<!-- 1990980956816&#45;&gt;1990980957104 -->
<g id="edge14" class="edge">
<title>1990980956816&#45;&gt;1990980957104</title>
<path fill="none" stroke="black" d="M1430.73,-199C1438.69,-199 1446.99,-199 1454.83,-199"/>
<polygon fill="black" stroke="black" points="1454.75,-202.5 1464.75,-199 1454.75,-195.5 1454.75,-202.5"/>
</g>
<!-- 1990980957632 -->
<g id="node8" class="node">
<title>1990980957632</title>
<polygon fill="white" stroke="black" points="1634.75,-217 1556.5,-217 1556.5,-181 1634.75,-181 1634.75,-217"/>
<text text-anchor="middle" x="1595.62" y="-193.97" font-family="Times New Roman,serif" font-size="12.00">Salting Stage</text>
</g>
<!-- 1990980953552 -->
<g id="node28" class="node">
<title>1990980953552</title>
<ellipse fill="white" stroke="black" cx="1697.75" cy="-199" rx="27" ry="27"/>
</g>
<!-- 1990980957632&#45;&gt;1990980953552 -->
<g id="edge16" class="edge">
<title>1990980957632&#45;&gt;1990980953552</title>
<path fill="none" stroke="black" d="M1635.05,-199C1642.89,-199 1651.13,-199 1658.94,-199"/>
<polygon fill="black" stroke="black" points="1658.86,-202.5 1668.86,-199 1658.86,-195.5 1658.86,-202.5"/>
</g>
<!-- 1990980955760 -->
<g id="node9" class="node">
<title>1990980955760</title>
<polygon fill="white" stroke="black" points="1836.75,-217 1760.75,-217 1760.75,-181 1836.75,-181 1836.75,-217"/>
<text text-anchor="middle" x="1798.75" y="-193.97" font-family="Times New Roman,serif" font-size="12.00">Aging Setup</text>
</g>
<!-- 1990980948848 -->
<g id="node29" class="node">
<title>1990980948848</title>
<ellipse fill="white" stroke="black" cx="1899.75" cy="-199" rx="27" ry="27"/>
</g>
<!-- 1990980955760&#45;&gt;1990980948848 -->
<g id="edge18" class="edge">
<title>1990980955760&#45;&gt;1990980948848</title>
<path fill="none" stroke="black" d="M1837.18,-199C1844.96,-199 1853.16,-199 1860.96,-199"/>
<polygon fill="black" stroke="black" points="1860.85,-202.5 1870.85,-199 1860.85,-195.5 1860.85,-202.5"/>
</g>
<!-- 1990980954128 -->
<g id="node10" class="node">
<title>1990980954128</title>
<polygon fill="white" stroke="black" points="2072.5,-190 1962.75,-190 1962.75,-154 2072.5,-154 2072.5,-190"/>
<text text-anchor="middle" x="2017.62" y="-166.97" font-family="Times New Roman,serif" font-size="12.00">Temperature Check</text>
</g>
<!-- 1990980947024 -->
<g id="node30" class="node">
<title>1990980947024</title>
<ellipse fill="white" stroke="black" cx="2135.5" cy="-171" rx="27" ry="27"/>
</g>
<!-- 1990980954128&#45;&gt;1990980947024 -->
<g id="edge20" class="edge">
<title>1990980954128&#45;&gt;1990980947024</title>
<path fill="none" stroke="black" d="M2072.83,-171.53C2080.87,-171.46 2089.01,-171.39 2096.62,-171.33"/>
<polygon fill="black" stroke="black" points="2096.57,-174.83 2106.54,-171.24 2096.51,-167.83 2096.57,-174.83"/>
</g>
<!-- 1990980951584 -->
<g id="node11" class="node">
<title>1990980951584</title>
<polygon fill="white" stroke="black" points="2283.12,-243 2204.12,-243 2204.12,-207 2283.12,-207 2283.12,-243"/>
<text text-anchor="middle" x="2243.62" y="-219.97" font-family="Times New Roman,serif" font-size="12.00">Sensory Eval</text>
</g>
<!-- 1990980951584&#45;&gt;1990980948848 -->
<g id="edge23" class="edge">
<title>1990980951584&#45;&gt;1990980948848</title>
<path fill="none" stroke="black" d="M2203.74,-222.04C2137.53,-217.01 2003.73,-206.83 1938.38,-201.86"/>
<polygon fill="black" stroke="black" points="1938.75,-198.38 1928.52,-201.11 1938.22,-205.36 1938.75,-198.38"/>
</g>
<!-- 1990980959456 -->
<g id="node12" class="node">
<title>1990980959456</title>
<polygon fill="white" stroke="black" points="2288.75,-189 2198.5,-189 2198.5,-153 2288.75,-153 2288.75,-189"/>
<text text-anchor="middle" x="2243.62" y="-165.97" font-family="Times New Roman,serif" font-size="12.00">Packaging Prep</text>
</g>
<!-- 1990980958160 -->
<g id="node31" class="node">
<title>1990980958160</title>
<ellipse fill="white" stroke="black" cx="2351.75" cy="-171" rx="27" ry="27"/>
</g>
<!-- 1990980959456&#45;&gt;1990980958160 -->
<g id="edge24" class="edge">
<title>1990980959456&#45;&gt;1990980958160</title>
<path fill="none" stroke="black" d="M2289.02,-171C2297.01,-171 2305.28,-171 2313.06,-171"/>
<polygon fill="black" stroke="black" points="2312.89,-174.5 2322.89,-171 2312.89,-167.5 2312.89,-174.5"/>
</g>
<!-- 1990980957392 -->
<g id="node13" class="node">
<title>1990980957392</title>
<polygon fill="white" stroke="black" points="2498.25,-189 2414.75,-189 2414.75,-153 2498.25,-153 2498.25,-189"/>
<text text-anchor="middle" x="2456.5" y="-165.97" font-family="Times New Roman,serif" font-size="12.00">Label Printing</text>
</g>
<!-- 1990980957440 -->
<g id="node32" class="node">
<title>1990980957440</title>
<ellipse fill="white" stroke="black" cx="2561.25" cy="-315" rx="27" ry="27"/>
</g>
<!-- 1990980957392&#45;&gt;1990980957440 -->
<g id="edge30" class="edge">
<title>1990980957392&#45;&gt;1990980957440</title>
<path fill="none" stroke="black" d="M2470.49,-189.38C2485.72,-210.89 2511.74,-247.59 2534.25,-279 2535.5,-280.74 2536.78,-282.52 2538.07,-284.32"/>
<polygon fill="black" stroke="black" points="2534.98,-286.02 2543.66,-292.09 2540.66,-281.93 2534.98,-286.02"/>
</g>
<!-- 1990980952064 -->
<g id="node33" class="node">
<title>1990980952064</title>
<ellipse fill="white" stroke="black" cx="2561.25" cy="-243" rx="27" ry="27"/>
</g>
<!-- 1990980957392&#45;&gt;1990980952064 -->
<g id="edge28" class="edge">
<title>1990980957392&#45;&gt;1990980952064</title>
<path fill="none" stroke="black" d="M2483.69,-189.35C2497.64,-199.13 2514.88,-211.21 2529.47,-221.43"/>
<polygon fill="black" stroke="black" points="2527.17,-224.09 2537.37,-226.97 2531.19,-218.36 2527.17,-224.09"/>
</g>
<!-- 1990980948368 -->
<g id="node34" class="node">
<title>1990980948368</title>
<ellipse fill="white" stroke="black" cx="2561.25" cy="-171" rx="27" ry="27"/>
</g>
<!-- 1990980957392&#45;&gt;1990980948368 -->
<g id="edge26" class="edge">
<title>1990980957392&#45;&gt;1990980948368</title>
<path fill="none" stroke="black" d="M2498.7,-171C2506.56,-171 2514.75,-171 2522.5,-171"/>
<polygon fill="black" stroke="black" points="2522.3,-174.5 2532.3,-171 2522.3,-167.5 2522.3,-174.5"/>
</g>
<!-- 1990980949664 -->
<g id="node35" class="node">
<title>1990980949664</title>
<ellipse fill="white" stroke="black" cx="2561.25" cy="-99" rx="27" ry="27"/>
</g>
<!-- 1990980957392&#45;&gt;1990980949664 -->
<g id="edge29" class="edge">
<title>1990980957392&#45;&gt;1990980949664</title>
<path fill="none" stroke="black" d="M2483.69,-152.65C2497.64,-142.87 2514.88,-130.79 2529.47,-120.57"/>
<polygon fill="black" stroke="black" points="2531.19,-123.64 2537.37,-115.03 2527.17,-117.91 2531.19,-123.64"/>
</g>
<!-- 1990980945104 -->
<g id="node36" class="node">
<title>1990980945104</title>
<ellipse fill="white" stroke="black" cx="2561.25" cy="-27" rx="27" ry="27"/>
</g>
<!-- 1990980957392&#45;&gt;1990980945104 -->
<g id="edge27" class="edge">
<title>1990980957392&#45;&gt;1990980945104</title>
<path fill="none" stroke="black" d="M2470.49,-152.62C2485.72,-131.11 2511.74,-94.41 2534.25,-63 2535.5,-61.26 2536.78,-59.48 2538.07,-57.68"/>
<polygon fill="black" stroke="black" points="2540.66,-60.07 2543.66,-49.91 2534.98,-55.98 2540.66,-60.07"/>
</g>
<!-- 1990980952832 -->
<g id="node14" class="node">
<title>1990980952832</title>
<polygon fill="white" stroke="black" points="2711.12,-333 2632.88,-333 2632.88,-297 2711.12,-297 2711.12,-333"/>
<text text-anchor="middle" x="2672" y="-309.98" font-family="Times New Roman,serif" font-size="12.00">Cold Storage</text>
</g>
<!-- 1990980031680 -->
<g id="node40" class="node">
<title>1990980031680</title>
<ellipse fill="white" stroke="black" cx="2782.75" cy="-315" rx="27" ry="27"/>
</g>
<!-- 1990980952832&#45;&gt;1990980031680 -->
<g id="edge36" class="edge">
<title>1990980952832&#45;&gt;1990980031680</title>
<path fill="none" stroke="black" d="M2711.34,-315C2721.92,-315 2733.38,-315 2743.92,-315"/>
<polygon fill="black" stroke="black" points="2743.83,-318.5 2753.83,-315 2743.83,-311.5 2743.83,-318.5"/>
</g>
<!-- 1990980945680 -->
<g id="node15" class="node">
<title>1990980945680</title>
<polygon fill="white" stroke="black" points="2719.75,-189 2624.25,-189 2624.25,-153 2719.75,-153 2719.75,-189"/>
<text text-anchor="middle" x="2672" y="-165.97" font-family="Times New Roman,serif" font-size="12.00">Reg Compliance</text>
</g>
<!-- 1990980042144 -->
<g id="node38" class="node">
<title>1990980042144</title>
<ellipse fill="white" stroke="black" cx="2782.75" cy="-171" rx="27" ry="27"/>
</g>
<!-- 1990980945680&#45;&gt;1990980042144 -->
<g id="edge37" class="edge">
<title>1990980945680&#45;&gt;1990980042144</title>
<path fill="none" stroke="black" d="M2720.07,-171C2728.07,-171 2736.29,-171 2744.02,-171"/>
<polygon fill="black" stroke="black" points="2743.75,-174.5 2753.75,-171 2743.75,-167.5 2743.75,-174.5"/>
</g>
<!-- 1990980948800 -->
<g id="node16" class="node">
<title>1990980948800</title>
<polygon fill="white" stroke="black" points="2715.25,-261 2628.75,-261 2628.75,-225 2715.25,-225 2715.25,-261"/>
<text text-anchor="middle" x="2672" y="-237.97" font-family="Times New Roman,serif" font-size="12.00">Order Forecast</text>
</g>
<!-- 1990980040080 -->
<g id="node41" class="node">
<title>1990980040080</title>
<ellipse fill="white" stroke="black" cx="2782.75" cy="-243" rx="27" ry="27"/>
</g>
<!-- 1990980948800&#45;&gt;1990980040080 -->
<g id="edge38" class="edge">
<title>1990980948800&#45;&gt;1990980040080</title>
<path fill="none" stroke="black" d="M2715.67,-243C2725.12,-243 2735.08,-243 2744.31,-243"/>
<polygon fill="black" stroke="black" points="2744,-246.5 2754,-243 2744,-239.5 2744,-246.5"/>
</g>
<!-- 1990980943952 -->
<g id="node17" class="node">
<title>1990980943952</title>
<polygon fill="white" stroke="black" points="2713.38,-45 2630.62,-45 2630.62,-9 2713.38,-9 2713.38,-45"/>
<text text-anchor="middle" x="2672" y="-21.98" font-family="Times New Roman,serif" font-size="12.00">Logistics Plan</text>
</g>
<!-- 1990980041376 -->
<g id="node39" class="node">
<title>1990980041376</title>
<ellipse fill="white" stroke="black" cx="2782.75" cy="-27" rx="27" ry="27"/>
</g>
<!-- 1990980943952&#45;&gt;1990980041376 -->
<g id="edge40" class="edge">
<title>1990980943952&#45;&gt;1990980041376</title>
<path fill="none" stroke="black" d="M2713.8,-27C2723.74,-27 2734.33,-27 2744.12,-27"/>
<polygon fill="black" stroke="black" points="2744.05,-30.5 2754.05,-27 2744.05,-23.5 2744.05,-30.5"/>
</g>
<!-- 1990980033312 -->
<g id="node18" class="node">
<title>1990980033312</title>
<polygon fill="white" stroke="black" points="2707.38,-117 2636.62,-117 2636.62,-81 2707.38,-81 2707.38,-117"/>
<text text-anchor="middle" x="2672" y="-93.97" font-family="Times New Roman,serif" font-size="12.00">Retail Sync</text>
</g>
<!-- 1990980026448 -->
<g id="node37" class="node">
<title>1990980026448</title>
<ellipse fill="white" stroke="black" cx="2782.75" cy="-99" rx="27" ry="27"/>
</g>
<!-- 1990980033312&#45;&gt;1990980026448 -->
<g id="edge39" class="edge">
<title>1990980033312&#45;&gt;1990980026448</title>
<path fill="none" stroke="black" d="M2707.71,-99C2719.27,-99 2732.2,-99 2743.99,-99"/>
<polygon fill="black" stroke="black" points="2743.78,-102.5 2753.78,-99 2743.78,-95.5 2743.78,-102.5"/>
</g>
<!-- 1990980041712 -->
<g id="node19" class="node">
<title>1990980041712</title>
<polygon fill="white" stroke="black" points="2947.25,-189 2845.75,-189 2845.75,-153 2947.25,-153 2947.25,-189"/>
<text text-anchor="middle" x="2896.5" y="-165.97" font-family="Times New Roman,serif" font-size="12.00">Feedback Review</text>
</g>
<!-- 1990969425600 -->
<g id="node42" class="node">
<title>1990969425600</title>
<ellipse fill="white" stroke="black" cx="3014.25" cy="-171" rx="27" ry="27"/>
<ellipse fill="none" stroke="black" cx="3014.25" cy="-171" rx="31" ry="31"/>
<text text-anchor="start" x="2997.75" y="-155.6" font-family="Times New Roman,serif" font-size="32.00">■</text>
</g>
<!-- 1990980041712&#45;&gt;1990969425600 -->
<g id="edge46" class="edge">
<title>1990980041712&#45;&gt;1990969425600</title>
<path fill="none" stroke="black" d="M2947.6,-171C2955.55,-171 2963.7,-171 2971.44,-171"/>
<polygon fill="black" stroke="black" points="2971.27,-174.5 2981.27,-171 2971.27,-167.5 2971.27,-174.5"/>
</g>
<!-- 1990979576480 -->
<g id="node20" class="node">
<title>1990979576480</title>
<ellipse fill="white" stroke="black" cx="27" cy="-199" rx="27" ry="27"/>
<text text-anchor="start" x="9.75" y="-181.7" font-family="Times New Roman,serif" font-size="34.00">●</text>
</g>
<!-- 1990979576480&#45;&gt;1990980247984 -->
<g id="edge1" class="edge">
<title>1990979576480&#45;&gt;1990980247984</title>
<path fill="none" stroke="black" d="M54.29,-199C61.67,-199 69.98,-199 78.32,-199"/>
<polygon fill="black" stroke="black" points="78.14,-202.5 88.14,-199 78.14,-195.5 78.14,-202.5"/>
</g>
<!-- 1990980245056&#45;&gt;1990980243184 -->
<g id="edge3" class="edge">
<title>1990980245056&#45;&gt;1990980243184</title>
<path fill="none" stroke="black" d="M264.66,-199C271.98,-199 280.21,-199 288.53,-199"/>
<polygon fill="black" stroke="black" points="288.33,-202.5 298.33,-199 288.33,-195.5 288.33,-202.5"/>
</g>
<!-- 1990977211424&#45;&gt;1990977213440 -->
<g id="edge5" class="edge">
<title>1990977211424&#45;&gt;1990977213440</title>
<path fill="none" stroke="black" d="M480.14,-199C487.55,-199 495.88,-199 504.26,-199"/>
<polygon fill="black" stroke="black" points="504.11,-202.5 514.11,-199 504.11,-195.5 504.11,-202.5"/>
</g>
<!-- 1990977217040&#45;&gt;1990977397648 -->
<g id="edge7" class="edge">
<title>1990977217040&#45;&gt;1990977397648</title>
<path fill="none" stroke="black" d="M691.24,-199C698.62,-199 706.88,-199 715.09,-199"/>
<polygon fill="black" stroke="black" points="715.05,-202.5 725.05,-199 715.05,-195.5 715.05,-202.5"/>
</g>
<!-- 1990979650048&#45;&gt;1990980951824 -->
<g id="edge9" class="edge">
<title>1990979650048&#45;&gt;1990980951824</title>
<path fill="none" stroke="black" d="M890.81,-199C898.13,-199 906.34,-199 914.55,-199"/>
<polygon fill="black" stroke="black" points="914.55,-202.5 924.55,-199 914.55,-195.5 914.55,-202.5"/>
</g>
<!-- 1990980944336&#45;&gt;1990980944144 -->
<g id="edge11" class="edge">
<title>1990980944336&#45;&gt;1990980944144</title>
<path fill="none" stroke="black" d="M1095.16,-199C1102.48,-199 1110.71,-199 1119.03,-199"/>
<polygon fill="black" stroke="black" points="1118.83,-202.5 1128.83,-199 1118.83,-195.5 1118.83,-202.5"/>
</g>
<!-- 1990980944480&#45;&gt;1990980956816 -->
<g id="edge13" class="edge">
<title>1990980944480&#45;&gt;1990980956816</title>
<path fill="none" stroke="black" d="M1310.54,-199C1317.92,-199 1326.23,-199 1334.57,-199"/>
<polygon fill="black" stroke="black" points="1334.39,-202.5 1344.39,-199 1334.39,-195.5 1334.39,-202.5"/>
</g>
<!-- 1990980957104&#45;&gt;1990980957632 -->
<g id="edge15" class="edge">
<title>1990980957104&#45;&gt;1990980957632</title>
<path fill="none" stroke="black" d="M1520.81,-199C1528.13,-199 1536.34,-199 1544.55,-199"/>
<polygon fill="black" stroke="black" points="1544.55,-202.5 1554.55,-199 1544.55,-195.5 1544.55,-202.5"/>
</g>
<!-- 1990980953552&#45;&gt;1990980955760 -->
<g id="edge17" class="edge">
<title>1990980953552&#45;&gt;1990980955760</title>
<path fill="none" stroke="black" d="M1725.02,-199C1732.5,-199 1740.9,-199 1749.26,-199"/>
<polygon fill="black" stroke="black" points="1749.03,-202.5 1759.03,-199 1749.03,-195.5 1749.03,-202.5"/>
</g>
<!-- 1990980948848&#45;&gt;1990980954128 -->
<g id="edge19" class="edge">
<title>1990980948848&#45;&gt;1990980954128</title>
<path fill="none" stroke="black" d="M1926.47,-193.01C1933.97,-191.26 1942.52,-189.27 1951.31,-187.22"/>
<polygon fill="black" stroke="black" points="1952.09,-190.63 1961.03,-184.95 1950.5,-183.81 1952.09,-190.63"/>
</g>
<!-- 1990980947024&#45;&gt;1990980951584 -->
<g id="edge21" class="edge">
<title>1990980947024&#45;&gt;1990980951584</title>
<path fill="none" stroke="black" d="M2160.05,-182.98C2170.85,-188.48 2184.03,-195.18 2196.66,-201.61"/>
<polygon fill="black" stroke="black" points="2194.77,-204.58 2205.27,-205.99 2197.95,-198.34 2194.77,-204.58"/>
</g>
<!-- 1990980947024&#45;&gt;1990980959456 -->
<g id="edge22" class="edge">
<title>1990980947024&#45;&gt;1990980959456</title>
<path fill="none" stroke="black" d="M2162.73,-171C2170.08,-171 2178.35,-171 2186.72,-171"/>
<polygon fill="black" stroke="black" points="2186.59,-174.5 2196.59,-171 2186.59,-167.5 2186.59,-174.5"/>
</g>
<!-- 1990980958160&#45;&gt;1990980957392 -->
<g id="edge25" class="edge">
<title>1990980958160&#45;&gt;1990980957392</title>
<path fill="none" stroke="black" d="M2379.21,-171C2386.57,-171 2394.83,-171 2403.12,-171"/>
<polygon fill="black" stroke="black" points="2402.86,-174.5 2412.86,-171 2402.86,-167.5 2402.86,-174.5"/>
</g>
<!-- 1990980957440&#45;&gt;1990980952832 -->
<g id="edge31" class="edge">
<title>1990980957440&#45;&gt;1990980952832</title>
<path fill="none" stroke="black" d="M2588.58,-315C2598.48,-315 2610.09,-315 2621.41,-315"/>
<polygon fill="black" stroke="black" points="2621.06,-318.5 2631.06,-315 2621.06,-311.5 2621.06,-318.5"/>
</g>
<!-- 1990980952064&#45;&gt;1990980948800 -->
<g id="edge32" class="edge">
<title>1990980952064&#45;&gt;1990980948800</title>
<path fill="none" stroke="black" d="M2588.58,-243C2597.16,-243 2607.03,-243 2616.89,-243"/>
<polygon fill="black" stroke="black" points="2616.86,-246.5 2626.86,-243 2616.86,-239.5 2616.86,-246.5"/>
</g>
<!-- 1990980948368&#45;&gt;1990980945680 -->
<g id="edge33" class="edge">
<title>1990980948368&#45;&gt;1990980945680</title>
<path fill="none" stroke="black" d="M2588.58,-171C2595.92,-171 2604.21,-171 2612.63,-171"/>
<polygon fill="black" stroke="black" points="2612.59,-174.5 2622.59,-171 2612.59,-167.5 2612.59,-174.5"/>
</g>
<!-- 1990980949664&#45;&gt;1990980033312 -->
<g id="edge35" class="edge">
<title>1990980949664&#45;&gt;1990980033312</title>
<path fill="none" stroke="black" d="M2588.58,-99C2599.55,-99 2612.62,-99 2625.08,-99"/>
<polygon fill="black" stroke="black" points="2624.77,-102.5 2634.77,-99 2624.77,-95.5 2624.77,-102.5"/>
</g>
<!-- 1990980945104&#45;&gt;1990980943952 -->
<g id="edge34" class="edge">
<title>1990980945104&#45;&gt;1990980943952</title>
<path fill="none" stroke="black" d="M2588.58,-27C2597.81,-27 2608.53,-27 2619.12,-27"/>
<polygon fill="black" stroke="black" points="2618.97,-30.5 2628.97,-27 2618.97,-23.5 2618.97,-30.5"/>
</g>
<!-- 1990980026448&#45;&gt;1990980041712 -->
<g id="edge43" class="edge">
<title>1990980026448&#45;&gt;1990980041712</title>
<path fill="none" stroke="black" d="M2806.1,-113.4C2820.82,-122.88 2840.48,-135.55 2857.61,-146.59"/>
<polygon fill="black" stroke="black" points="2855.24,-149.23 2865.55,-151.7 2859.04,-143.34 2855.24,-149.23"/>
</g>
<!-- 1990980042144&#45;&gt;1990980041712 -->
<g id="edge42" class="edge">
<title>1990980042144&#45;&gt;1990980041712</title>
<path fill="none" stroke="black" d="M2810.23,-171C2817.51,-171 2825.72,-171 2834.09,-171"/>
<polygon fill="black" stroke="black" points="2834.03,-174.5 2844.03,-171 2834.03,-167.5 2834.03,-174.5"/>
</g>
<!-- 1990980041376&#45;&gt;1990980041712 -->
<g id="edge45" class="edge">
<title>1990980041376&#45;&gt;1990980041712</title>
<path fill="none" stroke="black" d="M2800,-47.94C2819.69,-73.31 2852.9,-116.1 2874.51,-143.95"/>
<polygon fill="black" stroke="black" points="2871.53,-145.82 2880.43,-151.58 2877.06,-141.53 2871.53,-145.82"/>
</g>
<!-- 1990980031680&#45;&gt;1990980041712 -->
<g id="edge44" class="edge">
<title>1990980031680&#45;&gt;1990980041712</title>
<path fill="none" stroke="black" d="M2800,-294.06C2819.69,-268.69 2852.9,-225.9 2874.51,-198.05"/>
<polygon fill="black" stroke="black" points="2877.06,-200.47 2880.43,-190.42 2871.53,-196.18 2877.06,-200.47"/>
</g>
<!-- 1990980040080&#45;&gt;1990980041712 -->
<g id="edge41" class="edge">
<title>1990980040080&#45;&gt;1990980041712</title>
<path fill="none" stroke="black" d="M2806.1,-228.6C2820.82,-219.12 2840.48,-206.45 2857.61,-195.41"/>
<polygon fill="black" stroke="black" points="2859.04,-198.66 2865.55,-190.3 2855.24,-192.77 2859.04,-198.66"/>
</g>
</g>
</svg>
