<?xml version="1.0" encoding="UTF-8" standalone="no"?>
<!DOCTYPE svg PUBLIC "-//W3C//DTD SVG 1.1//EN"
 "http://www.w3.org/Graphics/SVG/1.1/DTD/svg11.dtd">
<!-- Generated by graphviz version 11.0.0 (20240428.1522)
 -->
<!-- Title: imdf_net_1754051589.2135482 Pages: 1 -->
<svg width="3164pt" height="206pt"
 viewBox="0.00 0.00 3163.75 206.00" xmlns="http://www.w3.org/2000/svg" xmlns:xlink="http://www.w3.org/1999/xlink">
<g id="graph0" class="graph" transform="scale(1 1) rotate(0) translate(4 202)">
<title>imdf_net_1754051589.2135482</title>
<polygon fill="white" stroke="none" points="-4,4 -4,-202 3159.75,-202 3159.75,4 -4,4"/>
<!-- 1990980250336 -->
<g id="node1" class="node">
<title>1990980250336</title>
<polygon fill="white" stroke="black" points="195.25,-117 90,-117 90,-81 195.25,-81 195.25,-117"/>
<text text-anchor="middle" x="142.62" y="-93.97" font-family="Times New Roman,serif" font-size="12.00">Verify Provenance</text>
</g>
<!-- 1990980254272 -->
<g id="node20" class="node">
<title>1990980254272</title>
<ellipse fill="white" stroke="black" cx="258.25" cy="-99" rx="27" ry="27"/>
</g>
<!-- 1990980250336&#45;&gt;1990980254272 -->
<g id="edge2" class="edge">
<title>1990980250336&#45;&gt;1990980254272</title>
<path fill="none" stroke="black" d="M195.45,-99C203.61,-99 211.91,-99 219.67,-99"/>
<polygon fill="black" stroke="black" points="219.43,-102.5 229.43,-99 219.43,-95.5 219.43,-102.5"/>
</g>
<!-- 1990980253984 -->
<g id="node2" class="node">
<title>1990980253984</title>
<polygon fill="white" stroke="black" points="413.75,-117 321.25,-117 321.25,-81 413.75,-81 413.75,-117"/>
<text text-anchor="middle" x="367.5" y="-93.97" font-family="Times New Roman,serif" font-size="12.00">Collect Samples</text>
</g>
<!-- 1990979664688 -->
<g id="node21" class="node">
<title>1990979664688</title>
<ellipse fill="white" stroke="black" cx="476.75" cy="-135" rx="27" ry="27"/>
</g>
<!-- 1990980253984&#45;&gt;1990979664688 -->
<g id="edge5" class="edge">
<title>1990980253984&#45;&gt;1990979664688</title>
<path fill="none" stroke="black" d="M413.98,-114.27C422.62,-117.17 431.54,-120.16 439.83,-122.94"/>
<polygon fill="black" stroke="black" points="438.62,-126.23 449.22,-126.09 440.85,-119.59 438.62,-126.23"/>
</g>
<!-- 1990979577296 -->
<g id="node22" class="node">
<title>1990979577296</title>
<ellipse fill="white" stroke="black" cx="476.75" cy="-63" rx="27" ry="27"/>
</g>
<!-- 1990980253984&#45;&gt;1990979577296 -->
<g id="edge4" class="edge">
<title>1990980253984&#45;&gt;1990979577296</title>
<path fill="none" stroke="black" d="M413.98,-83.73C422.62,-80.83 431.54,-77.84 439.83,-75.06"/>
<polygon fill="black" stroke="black" points="440.85,-78.41 449.22,-71.91 438.62,-71.77 440.85,-78.41"/>
</g>
<!-- 1990979573648 -->
<g id="node3" class="node">
<title>1990979573648</title>
<polygon fill="white" stroke="black" points="663,-81 539.75,-81 539.75,-45 663,-45 663,-81"/>
<text text-anchor="middle" x="601.38" y="-57.98" font-family="Times New Roman,serif" font-size="12.00">Conduct Spectroscopy</text>
</g>
<!-- 1990977862352 -->
<g id="node24" class="node">
<title>1990977862352</title>
<ellipse fill="white" stroke="black" cx="726" cy="-63" rx="27" ry="27"/>
</g>
<!-- 1990979573648&#45;&gt;1990977862352 -->
<g id="edge8" class="edge">
<title>1990979573648&#45;&gt;1990977862352</title>
<path fill="none" stroke="black" d="M663.33,-63C671.45,-63 679.59,-63 687.16,-63"/>
<polygon fill="black" stroke="black" points="687,-66.5 697,-63 687,-59.5 687,-66.5"/>
</g>
<!-- 1990979653408 -->
<g id="node4" class="node">
<title>1990979653408</title>
<polygon fill="white" stroke="black" points="651.38,-153 551.38,-153 551.38,-117 651.38,-117 651.38,-153"/>
<text text-anchor="middle" x="601.38" y="-129.97" font-family="Times New Roman,serif" font-size="12.00">Radiocarbon Test</text>
</g>
<!-- 1990979659072 -->
<g id="node23" class="node">
<title>1990979659072</title>
<ellipse fill="white" stroke="black" cx="726" cy="-135" rx="27" ry="27"/>
</g>
<!-- 1990979653408&#45;&gt;1990979659072 -->
<g id="edge9" class="edge">
<title>1990979653408&#45;&gt;1990979659072</title>
<path fill="none" stroke="black" d="M651.54,-135C663.51,-135 676.12,-135 687.45,-135"/>
<polygon fill="black" stroke="black" points="687.2,-138.5 697.2,-135 687.2,-131.5 687.2,-138.5"/>
</g>
<!-- 1990975876912 -->
<g id="node5" class="node">
<title>1990975876912</title>
<polygon fill="black" stroke="black" points="843,-117 789,-117 789,-81 843,-81 843,-117"/>
</g>
<!-- 1990980509840 -->
<g id="node25" class="node">
<title>1990980509840</title>
<ellipse fill="white" stroke="black" cx="906" cy="-171" rx="27" ry="27"/>
</g>
<!-- 1990975876912&#45;&gt;1990980509840 -->
<g id="edge14" class="edge">
<title>1990975876912&#45;&gt;1990980509840</title>
<path fill="none" stroke="black" d="M839.21,-117.17C850.32,-126.26 863.92,-137.39 875.87,-147.16"/>
<polygon fill="black" stroke="black" points="873.48,-149.74 883.44,-153.36 877.92,-144.32 873.48,-149.74"/>
</g>
<!-- 1990979659600 -->
<g id="node26" class="node">
<title>1990979659600</title>
<ellipse fill="white" stroke="black" cx="906" cy="-99" rx="27" ry="27"/>
</g>
<!-- 1990975876912&#45;&gt;1990979659600 -->
<g id="edge12" class="edge">
<title>1990975876912&#45;&gt;1990979659600</title>
<path fill="none" stroke="black" d="M843.4,-99C850.89,-99 859.18,-99 867.2,-99"/>
<polygon fill="black" stroke="black" points="867.1,-102.5 877.1,-99 867.1,-95.5 867.1,-102.5"/>
</g>
<!-- 1990980517616 -->
<g id="node27" class="node">
<title>1990980517616</title>
<ellipse fill="white" stroke="black" cx="906" cy="-27" rx="27" ry="27"/>
</g>
<!-- 1990975876912&#45;&gt;1990980517616 -->
<g id="edge13" class="edge">
<title>1990975876912&#45;&gt;1990980517616</title>
<path fill="none" stroke="black" d="M839.21,-80.83C850.32,-71.74 863.92,-60.61 875.87,-50.84"/>
<polygon fill="black" stroke="black" points="877.92,-53.68 883.44,-44.64 873.48,-48.26 877.92,-53.68"/>
</g>
<!-- 1990980515456 -->
<g id="node6" class="node">
<title>1990980515456</title>
<polygon fill="white" stroke="black" points="1066.75,-189 976.5,-189 976.5,-153 1066.75,-153 1066.75,-189"/>
<text text-anchor="middle" x="1021.62" y="-165.97" font-family="Times New Roman,serif" font-size="12.00">Digital Imaging</text>
</g>
<!-- 1990980506288 -->
<g id="node29" class="node">
<title>1990980506288</title>
<ellipse fill="white" stroke="black" cx="1137.25" cy="-171" rx="27" ry="27"/>
</g>
<!-- 1990980515456&#45;&gt;1990980506288 -->
<g id="edge18" class="edge">
<title>1990980515456&#45;&gt;1990980506288</title>
<path fill="none" stroke="black" d="M1067.21,-171C1077.57,-171 1088.51,-171 1098.55,-171"/>
<polygon fill="black" stroke="black" points="1098.32,-174.5 1108.32,-171 1098.32,-167.5 1098.32,-174.5"/>
</g>
<!-- 1990981417392 -->
<g id="node7" class="node">
<title>1990981417392</title>
<polygon fill="white" stroke="black" points="1074.25,-117 969,-117 969,-81 1074.25,-81 1074.25,-117"/>
<text text-anchor="middle" x="1021.62" y="-93.97" font-family="Times New Roman,serif" font-size="12.00">Microscopic Exam</text>
</g>
<!-- 1990979650768 -->
<g id="node30" class="node">
<title>1990979650768</title>
<ellipse fill="white" stroke="black" cx="1365.5" cy="-99" rx="27" ry="27"/>
</g>
<!-- 1990981417392&#45;&gt;1990979650768 -->
<g id="edge20" class="edge">
<title>1990981417392&#45;&gt;1990979650768</title>
<path fill="none" stroke="black" d="M1074.55,-99C1144.07,-99 1265.74,-99 1327,-99"/>
<polygon fill="black" stroke="black" points="1326.9,-102.5 1336.9,-99 1326.9,-95.5 1326.9,-102.5"/>
</g>
<!-- 1990980516176 -->
<g id="node8" class="node">
<title>1990980516176</title>
<polygon fill="white" stroke="black" points="1065.25,-48 978,-48 978,-12 1065.25,-12 1065.25,-48"/>
<text text-anchor="middle" x="1021.62" y="-24.98" font-family="Times New Roman,serif" font-size="12.00">Stylistic Check</text>
</g>
<!-- 1990980370304 -->
<g id="node28" class="node">
<title>1990980370304</title>
<ellipse fill="white" stroke="black" cx="1251.38" cy="-42" rx="27" ry="27"/>
</g>
<!-- 1990980516176&#45;&gt;1990980370304 -->
<g id="edge19" class="edge">
<title>1990980516176&#45;&gt;1990980370304</title>
<path fill="none" stroke="black" d="M1065.73,-32.27C1108.13,-34.51 1172.21,-37.88 1212.65,-40.01"/>
<polygon fill="black" stroke="black" points="1212.46,-43.51 1222.63,-40.54 1212.82,-36.52 1212.46,-43.51"/>
</g>
<!-- 1990980502304 -->
<g id="node9" class="node">
<title>1990980502304</title>
<polygon fill="white" stroke="black" points="1302.5,-189 1200.25,-189 1200.25,-153 1302.5,-153 1302.5,-189"/>
<text text-anchor="middle" x="1251.38" y="-165.97" font-family="Times New Roman,serif" font-size="12.00">Forgery Detection</text>
</g>
<!-- 1990977371264 -->
<g id="node32" class="node">
<title>1990977371264</title>
<ellipse fill="white" stroke="black" cx="1365.5" cy="-171" rx="27" ry="27"/>
</g>
<!-- 1990980502304&#45;&gt;1990977371264 -->
<g id="edge25" class="edge">
<title>1990980502304&#45;&gt;1990977371264</title>
<path fill="none" stroke="black" d="M1302.86,-171C1310.97,-171 1319.23,-171 1326.96,-171"/>
<polygon fill="black" stroke="black" points="1326.69,-174.5 1336.69,-171 1326.69,-167.5 1326.69,-174.5"/>
</g>
<!-- 1990977365744 -->
<g id="node10" class="node">
<title>1990977365744</title>
<polygon fill="white" stroke="black" points="1522.5,-117 1428.5,-117 1428.5,-81 1522.5,-81 1522.5,-117"/>
<text text-anchor="middle" x="1475.5" y="-93.97" font-family="Times New Roman,serif" font-size="12.00">Compile Results</text>
</g>
<!-- 1990977367328 -->
<g id="node31" class="node">
<title>1990977367328</title>
<ellipse fill="white" stroke="black" cx="1585.5" cy="-99" rx="27" ry="27"/>
</g>
<!-- 1990977365744&#45;&gt;1990977367328 -->
<g id="edge24" class="edge">
<title>1990977365744&#45;&gt;1990977367328</title>
<path fill="none" stroke="black" d="M1522.93,-99C1530.81,-99 1538.91,-99 1546.53,-99"/>
<polygon fill="black" stroke="black" points="1546.52,-102.5 1556.52,-99 1546.52,-95.5 1546.52,-102.5"/>
</g>
<!-- 1990977367280 -->
<g id="node11" class="node">
<title>1990977367280</title>
<polygon fill="white" stroke="black" points="1730.5,-117 1648.5,-117 1648.5,-81 1730.5,-81 1730.5,-117"/>
<text text-anchor="middle" x="1689.5" y="-93.97" font-family="Times New Roman,serif" font-size="12.00">Panel Review</text>
</g>
<!-- 1990977359360 -->
<g id="node33" class="node">
<title>1990977359360</title>
<ellipse fill="white" stroke="black" cx="1793.5" cy="-99" rx="27" ry="27"/>
</g>
<!-- 1990977367280&#45;&gt;1990977359360 -->
<g id="edge28" class="edge">
<title>1990977367280&#45;&gt;1990977359360</title>
<path fill="none" stroke="black" d="M1730.81,-99C1738.73,-99 1747,-99 1754.82,-99"/>
<polygon fill="black" stroke="black" points="1754.73,-102.5 1764.73,-99 1754.73,-95.5 1754.73,-102.5"/>
</g>
<!-- 1990977369056 -->
<g id="node12" class="node">
<title>1990977369056</title>
<polygon fill="white" stroke="black" points="1958.75,-142 1856.5,-142 1856.5,-106 1958.75,-106 1958.75,-142"/>
<text text-anchor="middle" x="1907.62" y="-118.97" font-family="Times New Roman,serif" font-size="12.00">Legal Verification</text>
</g>
<!-- 1990977364112 -->
<g id="node34" class="node">
<title>1990977364112</title>
<ellipse fill="white" stroke="black" cx="2021.75" cy="-131" rx="27" ry="27"/>
</g>
<!-- 1990977369056&#45;&gt;1990977364112 -->
<g id="edge31" class="edge">
<title>1990977369056&#45;&gt;1990977364112</title>
<path fill="none" stroke="black" d="M1959.11,-127.15C1967.22,-127.66 1975.48,-128.17 1983.21,-128.66"/>
<polygon fill="black" stroke="black" points="1982.74,-132.13 1992.94,-129.26 1983.18,-125.15 1982.74,-132.13"/>
</g>
<!-- 1990977368240 -->
<g id="node13" class="node">
<title>1990977368240</title>
<polygon fill="black" stroke="black" points="2048.75,-86 1994.75,-86 1994.75,-50 2048.75,-50 2048.75,-86"/>
</g>
<!-- 1990977361904 -->
<g id="node35" class="node">
<title>1990977361904</title>
<ellipse fill="white" stroke="black" cx="2940.75" cy="-95" rx="27" ry="27"/>
</g>
<!-- 1990977368240&#45;&gt;1990977361904 -->
<g id="edge32" class="edge">
<title>1990977368240&#45;&gt;1990977361904</title>
<path fill="none" stroke="black" d="M2048.98,-68.8C2089.59,-69.97 2170.13,-72 2238.5,-72 2238.5,-72 2238.5,-72 2704.5,-72 2774.72,-72 2856.16,-82.27 2902.46,-89.09"/>
<polygon fill="black" stroke="black" points="2901.82,-92.53 2912.23,-90.56 2902.86,-85.61 2901.82,-92.53"/>
</g>
<!-- 1990977359648 -->
<g id="node14" class="node">
<title>1990977359648</title>
<polygon fill="white" stroke="black" points="2176.5,-148 2084.75,-148 2084.75,-112 2176.5,-112 2176.5,-148"/>
<text text-anchor="middle" x="2130.62" y="-124.97" font-family="Times New Roman,serif" font-size="12.00">Insurance Setup</text>
</g>
<!-- 1990977358880 -->
<g id="node36" class="node">
<title>1990977358880</title>
<ellipse fill="white" stroke="black" cx="2239.5" cy="-129" rx="27" ry="27"/>
</g>
<!-- 1990977359648&#45;&gt;1990977358880 -->
<g id="edge35" class="edge">
<title>1990977359648&#45;&gt;1990977358880</title>
<path fill="none" stroke="black" d="M2176.95,-129.58C2184.96,-129.5 2193.22,-129.42 2200.98,-129.35"/>
<polygon fill="black" stroke="black" points="2200.81,-132.85 2210.78,-129.26 2200.75,-125.85 2200.81,-132.85"/>
</g>
<!-- 1990977368528 -->
<g id="node15" class="node">
<title>1990977368528</title>
<polygon fill="black" stroke="black" points="3057.75,-113 3003.75,-113 3003.75,-77 3057.75,-77 3057.75,-113"/>
</g>
<!-- 1990976652640 -->
<g id="node37" class="node">
<title>1990976652640</title>
<ellipse fill="white" stroke="black" cx="3124.75" cy="-95" rx="27" ry="27"/>
<ellipse fill="none" stroke="black" cx="3124.75" cy="-95" rx="31" ry="31"/>
<text text-anchor="start" x="3108.25" y="-79.6" font-family="Times New Roman,serif" font-size="32.00">■</text>
</g>
<!-- 1990977368528&#45;&gt;1990976652640 -->
<g id="edge36" class="edge">
<title>1990977368528&#45;&gt;1990976652640</title>
<path fill="none" stroke="black" d="M3057.87,-95C3065.38,-95 3073.76,-95 3081.97,-95"/>
<polygon fill="black" stroke="black" points="3081.83,-98.5 3091.83,-95 3081.83,-91.5 3081.83,-98.5"/>
</g>
<!-- 1990977370352 -->
<g id="node16" class="node">
<title>1990977370352</title>
<polygon fill="white" stroke="black" points="2403.25,-145 2302.5,-145 2302.5,-109 2403.25,-109 2403.25,-145"/>
<text text-anchor="middle" x="2352.88" y="-121.97" font-family="Times New Roman,serif" font-size="12.00">Prepare Transport</text>
</g>
<!-- 1990977362912 -->
<g id="node38" class="node">
<title>1990977362912</title>
<ellipse fill="white" stroke="black" cx="2466.25" cy="-127" rx="27" ry="27"/>
</g>
<!-- 1990977370352&#45;&gt;1990977362912 -->
<g id="edge38" class="edge">
<title>1990977370352&#45;&gt;1990977362912</title>
<path fill="none" stroke="black" d="M2403.7,-127C2411.68,-127 2419.83,-127 2427.47,-127"/>
<polygon fill="black" stroke="black" points="2427.45,-130.5 2437.45,-127 2427.45,-123.5 2427.45,-130.5"/>
</g>
<!-- 1990977363872 -->
<g id="node17" class="node">
<title>1990977363872</title>
<polygon fill="white" stroke="black" points="2640.5,-145 2529.25,-145 2529.25,-109 2640.5,-109 2640.5,-145"/>
<text text-anchor="middle" x="2584.88" y="-121.97" font-family="Times New Roman,serif" font-size="12.00">Ownership Transfer</text>
</g>
<!-- 1990977360704 -->
<g id="node39" class="node">
<title>1990977360704</title>
<ellipse fill="white" stroke="black" cx="2703.5" cy="-127" rx="27" ry="27"/>
</g>
<!-- 1990977363872&#45;&gt;1990977360704 -->
<g id="edge40" class="edge">
<title>1990977363872&#45;&gt;1990977360704</title>
<path fill="none" stroke="black" d="M2640.77,-127C2648.84,-127 2656.99,-127 2664.61,-127"/>
<polygon fill="black" stroke="black" points="2664.54,-130.5 2674.54,-127 2664.54,-123.5 2664.54,-130.5"/>
</g>
<!-- 1990977360608 -->
<g id="node18" class="node">
<title>1990977360608</title>
<polygon fill="white" stroke="black" points="2877.75,-140 2766.5,-140 2766.5,-104 2877.75,-104 2877.75,-140"/>
<text text-anchor="middle" x="2822.12" y="-116.97" font-family="Times New Roman,serif" font-size="12.00">Finalize Acquisition</text>
</g>
<!-- 1990977360608&#45;&gt;1990977361904 -->
<g id="edge42" class="edge">
<title>1990977360608&#45;&gt;1990977361904</title>
<path fill="none" stroke="black" d="M2878.02,-109.29C2886.52,-107.32 2895.11,-105.33 2903.07,-103.49"/>
<polygon fill="black" stroke="black" points="2903.78,-106.92 2912.73,-101.25 2902.2,-100.1 2903.78,-106.92"/>
</g>
<!-- 1990976659072 -->
<g id="node19" class="node">
<title>1990976659072</title>
<ellipse fill="white" stroke="black" cx="27" cy="-99" rx="27" ry="27"/>
<text text-anchor="start" x="9.75" y="-81.7" font-family="Times New Roman,serif" font-size="34.00">●</text>
</g>
<!-- 1990976659072&#45;&gt;1990980250336 -->
<g id="edge1" class="edge">
<title>1990976659072&#45;&gt;1990980250336</title>
<path fill="none" stroke="black" d="M54.35,-99C61.74,-99 70.1,-99 78.65,-99"/>
<polygon fill="black" stroke="black" points="78.41,-102.5 88.41,-99 78.41,-95.5 78.41,-102.5"/>
</g>
<!-- 1990980254272&#45;&gt;1990980253984 -->
<g id="edge3" class="edge">
<title>1990980254272&#45;&gt;1990980253984</title>
<path fill="none" stroke="black" d="M285.49,-99C292.82,-99 301.09,-99 309.47,-99"/>
<polygon fill="black" stroke="black" points="309.37,-102.5 319.37,-99 309.37,-95.5 309.37,-102.5"/>
</g>
<!-- 1990979664688&#45;&gt;1990979653408 -->
<g id="edge7" class="edge">
<title>1990979664688&#45;&gt;1990979653408</title>
<path fill="none" stroke="black" d="M504.06,-135C514.62,-135 527.26,-135 539.86,-135"/>
<polygon fill="black" stroke="black" points="539.84,-138.5 549.84,-135 539.84,-131.5 539.84,-138.5"/>
</g>
<!-- 1990979577296&#45;&gt;1990979573648 -->
<g id="edge6" class="edge">
<title>1990979577296&#45;&gt;1990979573648</title>
<path fill="none" stroke="black" d="M504.06,-63C511.3,-63 519.52,-63 528.03,-63"/>
<polygon fill="black" stroke="black" points="527.83,-66.5 537.83,-63 527.83,-59.5 527.83,-66.5"/>
</g>
<!-- 1990979659072&#45;&gt;1990975876912 -->
<g id="edge10" class="edge">
<title>1990979659072&#45;&gt;1990975876912</title>
<path fill="none" stroke="black" d="M751.51,-124.97C759.76,-121.6 769.14,-117.76 778.12,-114.09"/>
<polygon fill="black" stroke="black" points="779.44,-117.33 787.37,-110.3 776.79,-110.85 779.44,-117.33"/>
</g>
<!-- 1990977862352&#45;&gt;1990975876912 -->
<g id="edge11" class="edge">
<title>1990977862352&#45;&gt;1990975876912</title>
<path fill="none" stroke="black" d="M751.51,-73.03C759.76,-76.4 769.14,-80.24 778.12,-83.91"/>
<polygon fill="black" stroke="black" points="776.79,-87.15 787.37,-87.7 779.44,-80.67 776.79,-87.15"/>
</g>
<!-- 1990980509840&#45;&gt;1990980515456 -->
<g id="edge15" class="edge">
<title>1990980509840&#45;&gt;1990980515456</title>
<path fill="none" stroke="black" d="M933.35,-171C942.79,-171 953.82,-171 964.81,-171"/>
<polygon fill="black" stroke="black" points="964.65,-174.5 974.65,-171 964.65,-167.5 964.65,-174.5"/>
</g>
<!-- 1990979659600&#45;&gt;1990981417392 -->
<g id="edge17" class="edge">
<title>1990979659600&#45;&gt;1990981417392</title>
<path fill="none" stroke="black" d="M933.35,-99C940.74,-99 949.1,-99 957.65,-99"/>
<polygon fill="black" stroke="black" points="957.41,-102.5 967.41,-99 957.41,-95.5 957.41,-102.5"/>
</g>
<!-- 1990980517616&#45;&gt;1990980516176 -->
<g id="edge16" class="edge">
<title>1990980517616&#45;&gt;1990980516176</title>
<path fill="none" stroke="black" d="M933.35,-27.7C943.19,-27.96 954.75,-28.26 966.18,-28.56"/>
<polygon fill="black" stroke="black" points="965.9,-32.06 975.99,-28.82 966.09,-25.06 965.9,-32.06"/>
</g>
<!-- 1990980370304&#45;&gt;1990977365744 -->
<g id="edge23" class="edge">
<title>1990980370304&#45;&gt;1990977365744</title>
<path fill="none" stroke="black" d="M1278.64,-43.85C1307.14,-46.33 1353.74,-51.8 1392.5,-63 1404.16,-66.37 1416.33,-71.03 1427.62,-75.88"/>
<polygon fill="black" stroke="black" points="1426.19,-79.07 1436.74,-79.94 1429.03,-72.68 1426.19,-79.07"/>
</g>
<!-- 1990980506288&#45;&gt;1990980502304 -->
<g id="edge21" class="edge">
<title>1990980506288&#45;&gt;1990980502304</title>
<path fill="none" stroke="black" d="M1164.54,-171C1171.92,-171 1180.27,-171 1188.79,-171"/>
<polygon fill="black" stroke="black" points="1188.52,-174.5 1198.52,-171 1188.52,-167.5 1188.52,-174.5"/>
</g>
<!-- 1990979650768&#45;&gt;1990977365744 -->
<g id="edge22" class="edge">
<title>1990979650768&#45;&gt;1990977365744</title>
<path fill="none" stroke="black" d="M1392.92,-99C1400.22,-99 1408.44,-99 1416.77,-99"/>
<polygon fill="black" stroke="black" points="1416.63,-102.5 1426.63,-99 1416.63,-95.5 1416.63,-102.5"/>
</g>
<!-- 1990977367328&#45;&gt;1990977367280 -->
<g id="edge27" class="edge">
<title>1990977367328&#45;&gt;1990977367280</title>
<path fill="none" stroke="black" d="M1612.77,-99C1620.15,-99 1628.45,-99 1636.78,-99"/>
<polygon fill="black" stroke="black" points="1636.55,-102.5 1646.55,-99 1636.55,-95.5 1636.55,-102.5"/>
</g>
<!-- 1990977371264&#45;&gt;1990977365744 -->
<g id="edge26" class="edge">
<title>1990977371264&#45;&gt;1990977365744</title>
<path fill="none" stroke="black" d="M1388.62,-156.26C1402.75,-146.83 1421.43,-134.38 1437.75,-123.5"/>
<polygon fill="black" stroke="black" points="1439.4,-126.6 1445.78,-118.15 1435.52,-120.78 1439.4,-126.6"/>
</g>
<!-- 1990977359360&#45;&gt;1990977369056 -->
<g id="edge30" class="edge">
<title>1990977359360&#45;&gt;1990977369056</title>
<path fill="none" stroke="black" d="M1820.22,-104.74C1827.77,-106.42 1836.37,-108.33 1845.14,-110.29"/>
<polygon fill="black" stroke="black" points="1844.29,-113.69 1854.81,-112.45 1845.81,-106.85 1844.29,-113.69"/>
</g>
<!-- 1990977359360&#45;&gt;1990977368240 -->
<g id="edge29" class="edge">
<title>1990977359360&#45;&gt;1990977368240</title>
<path fill="none" stroke="black" d="M1820.45,-95.44C1860.39,-89.97 1937.1,-79.46 1983.12,-73.16"/>
<polygon fill="black" stroke="black" points="1983.47,-76.64 1992.9,-71.82 1982.52,-69.71 1983.47,-76.64"/>
</g>
<!-- 1990977364112&#45;&gt;1990977359648 -->
<g id="edge34" class="edge">
<title>1990977364112&#45;&gt;1990977359648</title>
<path fill="none" stroke="black" d="M2049.17,-130.75C2056.48,-130.68 2064.7,-130.61 2073.03,-130.53"/>
<polygon fill="black" stroke="black" points="2072.89,-134.03 2082.86,-130.44 2072.83,-127.03 2072.89,-134.03"/>
</g>
<!-- 1990977361904&#45;&gt;1990977368528 -->
<g id="edge33" class="edge">
<title>1990977361904&#45;&gt;1990977368528</title>
<path fill="none" stroke="black" d="M2968.15,-95C2975.64,-95 2983.93,-95 2991.95,-95"/>
<polygon fill="black" stroke="black" points="2991.85,-98.5 3001.85,-95 2991.85,-91.5 2991.85,-98.5"/>
</g>
<!-- 1990977358880&#45;&gt;1990977370352 -->
<g id="edge37" class="edge">
<title>1990977358880&#45;&gt;1990977370352</title>
<path fill="none" stroke="black" d="M2266.89,-128.53C2274.15,-128.4 2282.33,-128.25 2290.67,-128.1"/>
<polygon fill="black" stroke="black" points="2290.64,-131.6 2300.57,-127.92 2290.51,-124.6 2290.64,-131.6"/>
</g>
<!-- 1990977362912&#45;&gt;1990977363872 -->
<g id="edge39" class="edge">
<title>1990977362912&#45;&gt;1990977363872</title>
<path fill="none" stroke="black" d="M2493.71,-127C2500.92,-127 2509.07,-127 2517.44,-127"/>
<polygon fill="black" stroke="black" points="2517.42,-130.5 2527.42,-127 2517.42,-123.5 2517.42,-130.5"/>
</g>
<!-- 1990977360704&#45;&gt;1990977360608 -->
<g id="edge41" class="edge">
<title>1990977360704&#45;&gt;1990977360608</title>
<path fill="none" stroke="black" d="M2730.96,-125.87C2738.17,-125.56 2746.32,-125.21 2754.69,-124.85"/>
<polygon fill="black" stroke="black" points="2754.83,-128.35 2764.67,-124.42 2754.53,-121.35 2754.83,-128.35"/>
</g>
</g>
</svg>
