<?xml version="1.0" encoding="UTF-8" standalone="no"?>
<!DOCTYPE svg PUBLIC "-//W3C//DTD SVG 1.1//EN"
 "http://www.w3.org/Graphics/SVG/1.1/DTD/svg11.dtd">
<!-- Generated by graphviz version 11.0.0 (20240428.1522)
 -->
<!-- Title: imdf_net_1754053391.8621812 Pages: 1 -->
<svg width="3357pt" height="160pt"
 viewBox="0.00 0.00 3357.00 160.00" xmlns="http://www.w3.org/2000/svg" xmlns:xlink="http://www.w3.org/1999/xlink">
<g id="graph0" class="graph" transform="scale(1 1) rotate(0) translate(4 156)">
<title>imdf_net_1754053391.8621812</title>
<polygon fill="white" stroke="none" points="-4,4 -4,-156 3353,-156 3353,4 -4,4"/>
<!-- 2892508385968 -->
<g id="node1" class="node">
<title>2892508385968</title>
<polygon fill="white" stroke="black" points="174.25,-107 90,-107 90,-71 174.25,-71 174.25,-107"/>
<text text-anchor="middle" x="132.12" y="-83.97" font-family="Times New Roman,serif" font-size="12.00">Milk Sourcing</text>
</g>
<!-- 2892508386256 -->
<g id="node21" class="node">
<title>2892508386256</title>
<ellipse fill="white" stroke="black" cx="237.25" cy="-89" rx="27" ry="27"/>
</g>
<!-- 2892508385968&#45;&gt;2892508386256 -->
<g id="edge2" class="edge">
<title>2892508385968&#45;&gt;2892508386256</title>
<path fill="none" stroke="black" d="M174.48,-89C182.44,-89 190.74,-89 198.58,-89"/>
<polygon fill="black" stroke="black" points="198.5,-92.5 208.5,-89 198.5,-85.5 198.5,-92.5"/>
</g>
<!-- 2892508386832 -->
<g id="node2" class="node">
<title>2892508386832</title>
<polygon fill="white" stroke="black" points="389.75,-107 300.25,-107 300.25,-71 389.75,-71 389.75,-107"/>
<text text-anchor="middle" x="345" y="-83.97" font-family="Times New Roman,serif" font-size="12.00">Quality Testing</text>
</g>
<!-- 2892508387072 -->
<g id="node22" class="node">
<title>2892508387072</title>
<ellipse fill="white" stroke="black" cx="452.75" cy="-125" rx="27" ry="27"/>
</g>
<!-- 2892508386832&#45;&gt;2892508387072 -->
<g id="edge5" class="edge">
<title>2892508386832&#45;&gt;2892508387072</title>
<path fill="none" stroke="black" d="M390.23,-104.06C398.8,-106.97 407.67,-109.99 415.92,-112.8"/>
<polygon fill="black" stroke="black" points="414.67,-116.07 425.26,-115.98 416.93,-109.45 414.67,-116.07"/>
</g>
<!-- 2892508387936 -->
<g id="node23" class="node">
<title>2892508387936</title>
<ellipse fill="white" stroke="black" cx="452.75" cy="-53" rx="27" ry="27"/>
</g>
<!-- 2892508386832&#45;&gt;2892508387936 -->
<g id="edge4" class="edge">
<title>2892508386832&#45;&gt;2892508387936</title>
<path fill="none" stroke="black" d="M390.23,-73.94C398.8,-71.03 407.67,-68.01 415.92,-65.2"/>
<polygon fill="black" stroke="black" points="416.93,-68.55 425.26,-62.02 414.67,-61.93 416.93,-68.55"/>
</g>
<!-- 2892508388512 -->
<g id="node3" class="node">
<title>2892508388512</title>
<polygon fill="white" stroke="black" points="605.25,-71 515.75,-71 515.75,-35 605.25,-35 605.25,-71"/>
<text text-anchor="middle" x="560.5" y="-47.98" font-family="Times New Roman,serif" font-size="12.00">Milk Pasteurize</text>
</g>
<!-- 2892508470096 -->
<g id="node25" class="node">
<title>2892508470096</title>
<ellipse fill="white" stroke="black" cx="668.25" cy="-53" rx="27" ry="27"/>
</g>
<!-- 2892508388512&#45;&gt;2892508470096 -->
<g id="edge9" class="edge">
<title>2892508388512&#45;&gt;2892508470096</title>
<path fill="none" stroke="black" d="M605.73,-53C613.7,-53 621.94,-53 629.7,-53"/>
<polygon fill="black" stroke="black" points="629.49,-56.5 639.49,-53 629.49,-49.5 629.49,-56.5"/>
</g>
<!-- 2892508387696 -->
<g id="node4" class="node">
<title>2892508387696</title>
<polygon fill="white" stroke="black" points="598.5,-143 522.5,-143 522.5,-107 598.5,-107 598.5,-143"/>
<text text-anchor="middle" x="560.5" y="-119.97" font-family="Times New Roman,serif" font-size="12.00">Culture Prep</text>
</g>
<!-- 2892508469760 -->
<g id="node24" class="node">
<title>2892508469760</title>
<ellipse fill="white" stroke="black" cx="668.25" cy="-125" rx="27" ry="27"/>
</g>
<!-- 2892508387696&#45;&gt;2892508469760 -->
<g id="edge8" class="edge">
<title>2892508387696&#45;&gt;2892508469760</title>
<path fill="none" stroke="black" d="M598.78,-125C608.78,-125 619.6,-125 629.62,-125"/>
<polygon fill="black" stroke="black" points="629.41,-128.5 639.41,-125 629.41,-121.5 629.41,-128.5"/>
</g>
<!-- 2892508335904 -->
<g id="node5" class="node">
<title>2892508335904</title>
<polygon fill="white" stroke="black" points="805,-107 731.25,-107 731.25,-71 805,-71 805,-107"/>
<text text-anchor="middle" x="768.12" y="-83.97" font-family="Times New Roman,serif" font-size="12.00">Coagulation</text>
</g>
<!-- 2892508344688 -->
<g id="node26" class="node">
<title>2892508344688</title>
<ellipse fill="white" stroke="black" cx="868" cy="-89" rx="27" ry="27"/>
</g>
<!-- 2892508335904&#45;&gt;2892508344688 -->
<g id="edge12" class="edge">
<title>2892508335904&#45;&gt;2892508344688</title>
<path fill="none" stroke="black" d="M805.29,-89C813.19,-89 821.58,-89 829.53,-89"/>
<polygon fill="black" stroke="black" points="829.25,-92.5 839.25,-89 829.25,-85.5 829.25,-92.5"/>
</g>
<!-- 2892508388896 -->
<g id="node6" class="node">
<title>2892508388896</title>
<polygon fill="white" stroke="black" points="1009.25,-107 931,-107 931,-71 1009.25,-71 1009.25,-107"/>
<text text-anchor="middle" x="970.12" y="-83.97" font-family="Times New Roman,serif" font-size="12.00">Curd Cutting</text>
</g>
<!-- 2892508389136 -->
<g id="node27" class="node">
<title>2892508389136</title>
<ellipse fill="white" stroke="black" cx="1072.25" cy="-89" rx="27" ry="27"/>
</g>
<!-- 2892508388896&#45;&gt;2892508389136 -->
<g id="edge14" class="edge">
<title>2892508388896&#45;&gt;2892508389136</title>
<path fill="none" stroke="black" d="M1009.55,-89C1017.39,-89 1025.63,-89 1033.44,-89"/>
<polygon fill="black" stroke="black" points="1033.36,-92.5 1043.36,-89 1033.36,-85.5 1033.36,-92.5"/>
</g>
<!-- 2892508389712 -->
<g id="node7" class="node">
<title>2892508389712</title>
<polygon fill="white" stroke="black" points="1224.75,-107 1135.25,-107 1135.25,-71 1224.75,-71 1224.75,-107"/>
<text text-anchor="middle" x="1180" y="-83.97" font-family="Times New Roman,serif" font-size="12.00">Whey Draining</text>
</g>
<!-- 2892508389952 -->
<g id="node28" class="node">
<title>2892508389952</title>
<ellipse fill="white" stroke="black" cx="1287.75" cy="-89" rx="27" ry="27"/>
</g>
<!-- 2892508389712&#45;&gt;2892508389952 -->
<g id="edge16" class="edge">
<title>2892508389712&#45;&gt;2892508389952</title>
<path fill="none" stroke="black" d="M1225.23,-89C1233.2,-89 1241.44,-89 1249.2,-89"/>
<polygon fill="black" stroke="black" points="1248.99,-92.5 1258.99,-89 1248.99,-85.5 1248.99,-92.5"/>
</g>
<!-- 2892508390528 -->
<g id="node8" class="node">
<title>2892508390528</title>
<polygon fill="white" stroke="black" points="1407.25,-107 1350.75,-107 1350.75,-71 1407.25,-71 1407.25,-107"/>
<text text-anchor="middle" x="1379" y="-83.97" font-family="Times New Roman,serif" font-size="12.00">Molding</text>
</g>
<!-- 2892508390768 -->
<g id="node29" class="node">
<title>2892508390768</title>
<ellipse fill="white" stroke="black" cx="1470.25" cy="-89" rx="27" ry="27"/>
</g>
<!-- 2892508390528&#45;&gt;2892508390768 -->
<g id="edge18" class="edge">
<title>2892508390528&#45;&gt;2892508390768</title>
<path fill="none" stroke="black" d="M1407.26,-89C1414.84,-89 1423.21,-89 1431.28,-89"/>
<polygon fill="black" stroke="black" points="1431.25,-92.5 1441.25,-89 1431.25,-85.5 1431.25,-92.5"/>
</g>
<!-- 2892508391344 -->
<g id="node9" class="node">
<title>2892508391344</title>
<polygon fill="white" stroke="black" points="1589,-107 1533.25,-107 1533.25,-71 1589,-71 1589,-107"/>
<text text-anchor="middle" x="1561.12" y="-83.97" font-family="Times New Roman,serif" font-size="12.00">Pressing</text>
</g>
<!-- 2892508391584 -->
<g id="node30" class="node">
<title>2892508391584</title>
<ellipse fill="white" stroke="black" cx="1652" cy="-89" rx="27" ry="27"/>
</g>
<!-- 2892508391344&#45;&gt;2892508391584 -->
<g id="edge20" class="edge">
<title>2892508391344&#45;&gt;2892508391584</title>
<path fill="none" stroke="black" d="M1589.27,-89C1596.82,-89 1605.15,-89 1613.19,-89"/>
<polygon fill="black" stroke="black" points="1613.11,-92.5 1623.11,-89 1613.11,-85.5 1613.11,-92.5"/>
</g>
<!-- 2892508392160 -->
<g id="node10" class="node">
<title>2892508392160</title>
<polygon fill="white" stroke="black" points="1769,-107 1715,-107 1715,-71 1769,-71 1769,-107"/>
<text text-anchor="middle" x="1742" y="-83.97" font-family="Times New Roman,serif" font-size="12.00">Salting</text>
</g>
<!-- 2892508392400 -->
<g id="node31" class="node">
<title>2892508392400</title>
<ellipse fill="white" stroke="black" cx="1832" cy="-89" rx="27" ry="27"/>
</g>
<!-- 2892508392160&#45;&gt;2892508392400 -->
<g id="edge22" class="edge">
<title>2892508392160&#45;&gt;2892508392400</title>
<path fill="none" stroke="black" d="M1769.4,-89C1776.89,-89 1785.18,-89 1793.2,-89"/>
<polygon fill="black" stroke="black" points="1793.1,-92.5 1803.1,-89 1793.1,-85.5 1793.1,-92.5"/>
</g>
<!-- 2892508394032 -->
<g id="node11" class="node">
<title>2892508394032</title>
<polygon fill="white" stroke="black" points="1971,-107 1895,-107 1895,-71 1971,-71 1971,-107"/>
<text text-anchor="middle" x="1933" y="-83.97" font-family="Times New Roman,serif" font-size="12.00">Aging Setup</text>
</g>
<!-- 2892508394752 -->
<g id="node32" class="node">
<title>2892508394752</title>
<ellipse fill="white" stroke="black" cx="2034" cy="-89" rx="27" ry="27"/>
</g>
<!-- 2892508394032&#45;&gt;2892508394752 -->
<g id="edge24" class="edge">
<title>2892508394032&#45;&gt;2892508394752</title>
<path fill="none" stroke="black" d="M1971.43,-89C1979.21,-89 1987.41,-89 1995.21,-89"/>
<polygon fill="black" stroke="black" points="1995.1,-92.5 2005.1,-89 1995.1,-85.5 1995.1,-92.5"/>
</g>
<!-- 2892508396816 -->
<g id="node12" class="node">
<title>2892508396816</title>
<polygon fill="white" stroke="black" points="2214.25,-84 2097,-84 2097,-48 2214.25,-48 2214.25,-84"/>
<text text-anchor="middle" x="2155.62" y="-60.98" font-family="Times New Roman,serif" font-size="12.00">Temperature Monitor</text>
</g>
<!-- 2892508397392 -->
<g id="node33" class="node">
<title>2892508397392</title>
<ellipse fill="white" stroke="black" cx="2277.25" cy="-57" rx="27" ry="27"/>
</g>
<!-- 2892508396816&#45;&gt;2892508397392 -->
<g id="edge26" class="edge">
<title>2892508396816&#45;&gt;2892508397392</title>
<path fill="none" stroke="black" d="M2214.69,-61.63C2222.81,-61.02 2230.98,-60.41 2238.59,-59.83"/>
<polygon fill="black" stroke="black" points="2238.79,-63.33 2248.5,-59.09 2238.26,-56.35 2238.79,-63.33"/>
</g>
<!-- 2892508463568 -->
<g id="node13" class="node">
<title>2892508463568</title>
<polygon fill="white" stroke="black" points="2420.75,-77 2340.25,-77 2340.25,-41 2420.75,-41 2420.75,-77"/>
<text text-anchor="middle" x="2380.5" y="-53.98" font-family="Times New Roman,serif" font-size="12.00">Flavor Check</text>
</g>
<!-- 2892508395280 -->
<g id="node34" class="node">
<title>2892508395280</title>
<ellipse fill="white" stroke="black" cx="2483.75" cy="-63" rx="27" ry="27"/>
</g>
<!-- 2892508463568&#45;&gt;2892508395280 -->
<g id="edge28" class="edge">
<title>2892508463568&#45;&gt;2892508395280</title>
<path fill="none" stroke="black" d="M2421.23,-60.57C2429.1,-60.88 2437.34,-61.21 2445.14,-61.51"/>
<polygon fill="black" stroke="black" points="2444.89,-65.01 2455.02,-61.9 2445.17,-58.01 2444.89,-65.01"/>
</g>
<!-- 2892508464144 -->
<g id="node14" class="node">
<title>2892508464144</title>
<polygon fill="black" stroke="black" points="2606.5,-135 2552.5,-135 2552.5,-99 2606.5,-99 2606.5,-135"/>
</g>
<!-- 2892508464144&#45;&gt;2892508394752 -->
<g id="edge31" class="edge">
<title>2892508464144&#45;&gt;2892508394752</title>
<path fill="none" stroke="black" d="M2552.05,-117.66C2514.25,-118.54 2442.56,-120 2381.5,-120 2276.25,-120 2276.25,-120 2276.25,-120 2203.45,-120 2119.3,-105.94 2072.1,-96.76"/>
<polygon fill="black" stroke="black" points="2072.9,-93.35 2062.41,-94.84 2071.53,-100.22 2072.9,-93.35"/>
</g>
<!-- 2892508465488 -->
<g id="node15" class="node">
<title>2892508465488</title>
<polygon fill="white" stroke="black" points="2612.25,-81 2546.75,-81 2546.75,-45 2612.25,-45 2612.25,-81"/>
<text text-anchor="middle" x="2579.5" y="-57.98" font-family="Times New Roman,serif" font-size="12.00">Packaging</text>
</g>
<!-- 2892508465728 -->
<g id="node35" class="node">
<title>2892508465728</title>
<ellipse fill="white" stroke="black" cx="2675.25" cy="-63" rx="27" ry="27"/>
</g>
<!-- 2892508465488&#45;&gt;2892508465728 -->
<g id="edge32" class="edge">
<title>2892508465488&#45;&gt;2892508465728</title>
<path fill="none" stroke="black" d="M2612.5,-63C2620.27,-63 2628.65,-63 2636.65,-63"/>
<polygon fill="black" stroke="black" points="2636.48,-66.5 2646.48,-63 2636.48,-59.5 2636.48,-66.5"/>
</g>
<!-- 2892508466304 -->
<g id="node16" class="node">
<title>2892508466304</title>
<polygon fill="white" stroke="black" points="2836,-81 2738.25,-81 2738.25,-45 2836,-45 2836,-81"/>
<text text-anchor="middle" x="2787.12" y="-57.98" font-family="Times New Roman,serif" font-size="12.00">Order Processing</text>
</g>
<!-- 2892508466880 -->
<g id="node36" class="node">
<title>2892508466880</title>
<ellipse fill="white" stroke="black" cx="2899" cy="-99" rx="27" ry="27"/>
</g>
<!-- 2892508466304&#45;&gt;2892508466880 -->
<g id="edge35" class="edge">
<title>2892508466304&#45;&gt;2892508466880</title>
<path fill="none" stroke="black" d="M2836.32,-78.79C2844.96,-81.62 2853.83,-84.53 2862.05,-87.22"/>
<polygon fill="black" stroke="black" points="2860.75,-90.48 2871.34,-90.26 2862.92,-83.82 2860.75,-90.48"/>
</g>
<!-- 2892508468032 -->
<g id="node37" class="node">
<title>2892508468032</title>
<ellipse fill="white" stroke="black" cx="2899" cy="-27" rx="27" ry="27"/>
</g>
<!-- 2892508466304&#45;&gt;2892508468032 -->
<g id="edge34" class="edge">
<title>2892508466304&#45;&gt;2892508468032</title>
<path fill="none" stroke="black" d="M2836.32,-47.21C2844.96,-44.38 2853.83,-41.47 2862.05,-38.78"/>
<polygon fill="black" stroke="black" points="2862.92,-42.18 2871.34,-35.74 2860.75,-35.52 2862.92,-42.18"/>
</g>
<!-- 2892508467456 -->
<g id="node17" class="node">
<title>2892508467456</title>
<polygon fill="white" stroke="black" points="3045.5,-117 2987.5,-117 2987.5,-81 3045.5,-81 3045.5,-117"/>
<text text-anchor="middle" x="3016.5" y="-93.97" font-family="Times New Roman,serif" font-size="12.00">Dispatch</text>
</g>
<!-- 2892508466544 -->
<g id="node38" class="node">
<title>2892508466544</title>
<ellipse fill="white" stroke="black" cx="3134" cy="-99" rx="27" ry="27"/>
</g>
<!-- 2892508467456&#45;&gt;2892508466544 -->
<g id="edge38" class="edge">
<title>2892508467456&#45;&gt;2892508466544</title>
<path fill="none" stroke="black" d="M3045.75,-99C3060.69,-99 3079.23,-99 3095.38,-99"/>
<polygon fill="black" stroke="black" points="3095.11,-102.5 3105.11,-99 3095.11,-95.5 3095.11,-102.5"/>
</g>
<!-- 2892508468608 -->
<g id="node18" class="node">
<title>2892508468608</title>
<polygon fill="white" stroke="black" points="3071,-45 2962,-45 2962,-9 3071,-9 3071,-45"/>
<text text-anchor="middle" x="3016.5" y="-21.98" font-family="Times New Roman,serif" font-size="12.00">Retail Coordination</text>
</g>
<!-- 2892508467696 -->
<g id="node39" class="node">
<title>2892508467696</title>
<ellipse fill="white" stroke="black" cx="3134" cy="-27" rx="27" ry="27"/>
</g>
<!-- 2892508468608&#45;&gt;2892508467696 -->
<g id="edge39" class="edge">
<title>2892508468608&#45;&gt;2892508467696</title>
<path fill="none" stroke="black" d="M3071.19,-27C3079.41,-27 3087.73,-27 3095.5,-27"/>
<polygon fill="black" stroke="black" points="3095.26,-30.5 3105.26,-27 3095.26,-23.5 3095.26,-30.5"/>
</g>
<!-- 2892508384528 -->
<g id="node19" class="node">
<title>2892508384528</title>
<polygon fill="black" stroke="black" points="3251,-81 3197,-81 3197,-45 3251,-45 3251,-81"/>
</g>
<!-- 2892504646720 -->
<g id="node40" class="node">
<title>2892504646720</title>
<ellipse fill="white" stroke="black" cx="3318" cy="-63" rx="27" ry="27"/>
<ellipse fill="none" stroke="black" cx="3318" cy="-63" rx="31" ry="31"/>
<text text-anchor="start" x="3301.5" y="-47.6" font-family="Times New Roman,serif" font-size="32.00">■</text>
</g>
<!-- 2892508384528&#45;&gt;2892504646720 -->
<g id="edge42" class="edge">
<title>2892508384528&#45;&gt;2892504646720</title>
<path fill="none" stroke="black" d="M3251.12,-63C3258.63,-63 3267.01,-63 3275.22,-63"/>
<polygon fill="black" stroke="black" points="3275.08,-66.5 3285.08,-63 3275.08,-59.5 3275.08,-66.5"/>
</g>
<!-- 2892504646576 -->
<g id="node20" class="node">
<title>2892504646576</title>
<ellipse fill="white" stroke="black" cx="27" cy="-89" rx="27" ry="27"/>
<text text-anchor="start" x="9.75" y="-71.7" font-family="Times New Roman,serif" font-size="34.00">●</text>
</g>
<!-- 2892504646576&#45;&gt;2892508385968 -->
<g id="edge1" class="edge">
<title>2892504646576&#45;&gt;2892508385968</title>
<path fill="none" stroke="black" d="M54.29,-89C61.67,-89 69.98,-89 78.32,-89"/>
<polygon fill="black" stroke="black" points="78.14,-92.5 88.14,-89 78.14,-85.5 78.14,-92.5"/>
</g>
<!-- 2892508386256&#45;&gt;2892508386832 -->
<g id="edge3" class="edge">
<title>2892508386256&#45;&gt;2892508386832</title>
<path fill="none" stroke="black" d="M264.66,-89C271.98,-89 280.21,-89 288.53,-89"/>
<polygon fill="black" stroke="black" points="288.33,-92.5 298.33,-89 288.33,-85.5 288.33,-92.5"/>
</g>
<!-- 2892508387072&#45;&gt;2892508387696 -->
<g id="edge7" class="edge">
<title>2892508387072&#45;&gt;2892508387696</title>
<path fill="none" stroke="black" d="M480.16,-125C489.51,-125 500.34,-125 510.94,-125"/>
<polygon fill="black" stroke="black" points="510.75,-128.5 520.75,-125 510.75,-121.5 510.75,-128.5"/>
</g>
<!-- 2892508387936&#45;&gt;2892508388512 -->
<g id="edge6" class="edge">
<title>2892508387936&#45;&gt;2892508388512</title>
<path fill="none" stroke="black" d="M480.16,-53C487.48,-53 495.71,-53 504.03,-53"/>
<polygon fill="black" stroke="black" points="503.83,-56.5 513.83,-53 503.83,-49.5 503.83,-56.5"/>
</g>
<!-- 2892508469760&#45;&gt;2892508335904 -->
<g id="edge11" class="edge">
<title>2892508469760&#45;&gt;2892508335904</title>
<path fill="none" stroke="black" d="M693.95,-115.92C702.01,-112.95 711.24,-109.56 720.37,-106.2"/>
<polygon fill="black" stroke="black" points="721.37,-109.56 729.55,-102.82 718.95,-102.99 721.37,-109.56"/>
</g>
<!-- 2892508470096&#45;&gt;2892508335904 -->
<g id="edge10" class="edge">
<title>2892508470096&#45;&gt;2892508335904</title>
<path fill="none" stroke="black" d="M693.95,-62.08C702.01,-65.05 711.24,-68.44 720.37,-71.8"/>
<polygon fill="black" stroke="black" points="718.95,-75.01 729.55,-75.18 721.37,-68.44 718.95,-75.01"/>
</g>
<!-- 2892508344688&#45;&gt;2892508388896 -->
<g id="edge13" class="edge">
<title>2892508344688&#45;&gt;2892508388896</title>
<path fill="none" stroke="black" d="M895.31,-89C902.63,-89 910.84,-89 919.05,-89"/>
<polygon fill="black" stroke="black" points="919.05,-92.5 929.05,-89 919.05,-85.5 919.05,-92.5"/>
</g>
<!-- 2892508389136&#45;&gt;2892508389712 -->
<g id="edge15" class="edge">
<title>2892508389136&#45;&gt;2892508389712</title>
<path fill="none" stroke="black" d="M1099.66,-89C1106.98,-89 1115.21,-89 1123.53,-89"/>
<polygon fill="black" stroke="black" points="1123.33,-92.5 1133.33,-89 1123.33,-85.5 1123.33,-92.5"/>
</g>
<!-- 2892508389952&#45;&gt;2892508390528 -->
<g id="edge17" class="edge">
<title>2892508389952&#45;&gt;2892508390528</title>
<path fill="none" stroke="black" d="M1315.05,-89C1322.51,-89 1330.8,-89 1338.85,-89"/>
<polygon fill="black" stroke="black" points="1338.83,-92.5 1348.83,-89 1338.83,-85.5 1338.83,-92.5"/>
</g>
<!-- 2892508390768&#45;&gt;2892508391344 -->
<g id="edge19" class="edge">
<title>2892508390768&#45;&gt;2892508391344</title>
<path fill="none" stroke="black" d="M1497.43,-89C1505.02,-89 1513.47,-89 1521.64,-89"/>
<polygon fill="black" stroke="black" points="1521.38,-92.5 1531.38,-89 1521.38,-85.5 1521.38,-92.5"/>
</g>
<!-- 2892508391584&#45;&gt;2892508392160 -->
<g id="edge21" class="edge">
<title>2892508391584&#45;&gt;2892508392160</title>
<path fill="none" stroke="black" d="M1679.4,-89C1686.89,-89 1695.18,-89 1703.2,-89"/>
<polygon fill="black" stroke="black" points="1703.1,-92.5 1713.1,-89 1703.1,-85.5 1703.1,-92.5"/>
</g>
<!-- 2892508392400&#45;&gt;2892508394032 -->
<g id="edge23" class="edge">
<title>2892508392400&#45;&gt;2892508394032</title>
<path fill="none" stroke="black" d="M1859.27,-89C1866.75,-89 1875.15,-89 1883.51,-89"/>
<polygon fill="black" stroke="black" points="1883.28,-92.5 1893.28,-89 1883.28,-85.5 1883.28,-92.5"/>
</g>
<!-- 2892508394752&#45;&gt;2892508396816 -->
<g id="edge25" class="edge">
<title>2892508394752&#45;&gt;2892508396816</title>
<path fill="none" stroke="black" d="M2060.96,-84.01C2068.4,-82.58 2076.88,-80.95 2085.63,-79.27"/>
<polygon fill="black" stroke="black" points="2086.16,-82.73 2095.32,-77.4 2084.84,-75.85 2086.16,-82.73"/>
</g>
<!-- 2892508397392&#45;&gt;2892508463568 -->
<g id="edge27" class="edge">
<title>2892508397392&#45;&gt;2892508463568</title>
<path fill="none" stroke="black" d="M2304.59,-57.52C2312,-57.67 2320.32,-57.83 2328.65,-58"/>
<polygon fill="black" stroke="black" points="2328.35,-61.49 2338.42,-58.19 2328.49,-54.49 2328.35,-61.49"/>
</g>
<!-- 2892508395280&#45;&gt;2892508464144 -->
<g id="edge30" class="edge">
<title>2892508395280&#45;&gt;2892508464144</title>
<path fill="none" stroke="black" d="M2507.44,-76.07C2517.84,-82.06 2530.42,-89.3 2542.09,-96.03"/>
<polygon fill="black" stroke="black" points="2540.3,-99.04 2550.72,-101 2543.8,-92.97 2540.3,-99.04"/>
</g>
<!-- 2892508395280&#45;&gt;2892508465488 -->
<g id="edge29" class="edge">
<title>2892508395280&#45;&gt;2892508465488</title>
<path fill="none" stroke="black" d="M2510.86,-63C2518.38,-63 2526.78,-63 2535.04,-63"/>
<polygon fill="black" stroke="black" points="2535.01,-66.5 2545.01,-63 2535.01,-59.5 2535.01,-66.5"/>
</g>
<!-- 2892508465728&#45;&gt;2892508466304 -->
<g id="edge33" class="edge">
<title>2892508465728&#45;&gt;2892508466304</title>
<path fill="none" stroke="black" d="M2702.57,-63C2709.9,-63 2718.18,-63 2726.6,-63"/>
<polygon fill="black" stroke="black" points="2726.58,-66.5 2736.58,-63 2726.58,-59.5 2726.58,-66.5"/>
</g>
<!-- 2892508466880&#45;&gt;2892508467456 -->
<g id="edge36" class="edge">
<title>2892508466880&#45;&gt;2892508467456</title>
<path fill="none" stroke="black" d="M2926.5,-99C2941.08,-99 2959.45,-99 2975.72,-99"/>
<polygon fill="black" stroke="black" points="2975.59,-102.5 2985.59,-99 2975.59,-95.5 2975.59,-102.5"/>
</g>
<!-- 2892508468032&#45;&gt;2892508468608 -->
<g id="edge37" class="edge">
<title>2892508468032&#45;&gt;2892508468608</title>
<path fill="none" stroke="black" d="M2926.5,-27C2933.73,-27 2941.9,-27 2950.29,-27"/>
<polygon fill="black" stroke="black" points="2950.27,-30.5 2960.27,-27 2950.27,-23.5 2950.27,-30.5"/>
</g>
<!-- 2892508466544&#45;&gt;2892508384528 -->
<g id="edge40" class="edge">
<title>2892508466544&#45;&gt;2892508384528</title>
<path fill="none" stroke="black" d="M3159.51,-88.97C3167.76,-85.6 3177.14,-81.76 3186.12,-78.09"/>
<polygon fill="black" stroke="black" points="3187.44,-81.33 3195.37,-74.3 3184.79,-74.85 3187.44,-81.33"/>
</g>
<!-- 2892508467696&#45;&gt;2892508384528 -->
<g id="edge41" class="edge">
<title>2892508467696&#45;&gt;2892508384528</title>
<path fill="none" stroke="black" d="M3159.51,-37.03C3167.76,-40.4 3177.14,-44.24 3186.12,-47.91"/>
<polygon fill="black" stroke="black" points="3184.79,-51.15 3195.37,-51.7 3187.44,-44.67 3184.79,-51.15"/>
</g>
</g>
</svg>
