<?xml version="1.0" encoding="UTF-8" standalone="no"?>
<!DOCTYPE svg PUBLIC "-//W3C//DTD SVG 1.1//EN"
 "http://www.w3.org/Graphics/SVG/1.1/DTD/svg11.dtd">
<!-- Generated by graphviz version 11.0.0 (20240428.1522)
 -->
<!-- Title: imdf_net_1754051605.8061588 Pages: 1 -->
<svg width="3018pt" height="299pt"
 viewBox="0.00 0.00 3018.00 299.00" xmlns="http://www.w3.org/2000/svg" xmlns:xlink="http://www.w3.org/1999/xlink">
<g id="graph0" class="graph" transform="scale(1 1) rotate(0) translate(4 295)">
<title>imdf_net_1754051605.8061588</title>
<polygon fill="white" stroke="none" points="-4,4 -4,-295 3014,-295 3014,4 -4,4"/>
<!-- 1990979163232 -->
<g id="node1" class="node">
<title>1990979163232</title>
<polygon fill="white" stroke="black" points="160.75,-210 90,-210 90,-174 160.75,-174 160.75,-210"/>
<text text-anchor="middle" x="125.38" y="-186.97" font-family="Times New Roman,serif" font-size="12.00">Site Survey</text>
</g>
<!-- 1990979162128 -->
<g id="node22" class="node">
<title>1990979162128</title>
<ellipse fill="white" stroke="black" cx="223.75" cy="-192" rx="27" ry="27"/>
</g>
<!-- 1990979163232&#45;&gt;1990979162128 -->
<g id="edge2" class="edge">
<title>1990979163232&#45;&gt;1990979162128</title>
<path fill="none" stroke="black" d="M161.17,-192C168.9,-192 177.14,-192 184.98,-192"/>
<polygon fill="black" stroke="black" points="184.97,-195.5 194.97,-192 184.97,-188.5 184.97,-195.5"/>
</g>
<!-- 1990981171824 -->
<g id="node2" class="node">
<title>1990981171824</title>
<polygon fill="white" stroke="black" points="374,-210 286.75,-210 286.75,-174 374,-174 374,-210"/>
<text text-anchor="middle" x="330.38" y="-186.97" font-family="Times New Roman,serif" font-size="12.00">Light Mapping</text>
</g>
<!-- 1990981159344 -->
<g id="node23" class="node">
<title>1990981159344</title>
<ellipse fill="white" stroke="black" cx="437" cy="-192" rx="27" ry="27"/>
</g>
<!-- 1990981171824&#45;&gt;1990981159344 -->
<g id="edge4" class="edge">
<title>1990981171824&#45;&gt;1990981159344</title>
<path fill="none" stroke="black" d="M374.23,-192C382.18,-192 390.42,-192 398.2,-192"/>
<polygon fill="black" stroke="black" points="398.04,-195.5 408.04,-192 398.04,-188.5 398.04,-195.5"/>
</g>
<!-- 1990981162368 -->
<g id="node3" class="node">
<title>1990981162368</title>
<polygon fill="white" stroke="black" points="595.5,-210 500,-210 500,-174 595.5,-174 595.5,-210"/>
<text text-anchor="middle" x="547.75" y="-186.97" font-family="Times New Roman,serif" font-size="12.00">Structure Design</text>
</g>
<!-- 1990981162176 -->
<g id="node24" class="node">
<title>1990981162176</title>
<ellipse fill="white" stroke="black" cx="658.5" cy="-192" rx="27" ry="27"/>
</g>
<!-- 1990981162368&#45;&gt;1990981162176 -->
<g id="edge6" class="edge">
<title>1990981162368&#45;&gt;1990981162176</title>
<path fill="none" stroke="black" d="M595.82,-192C603.82,-192 612.04,-192 619.77,-192"/>
<polygon fill="black" stroke="black" points="619.5,-195.5 629.5,-192 619.5,-188.5 619.5,-195.5"/>
</g>
<!-- 1990981172544 -->
<g id="node4" class="node">
<title>1990981172544</title>
<polygon fill="white" stroke="black" points="814,-210 721.5,-210 721.5,-174 814,-174 814,-210"/>
<text text-anchor="middle" x="767.75" y="-186.97" font-family="Times New Roman,serif" font-size="12.00">Permits Acquire</text>
</g>
<!-- 1990981157280 -->
<g id="node25" class="node">
<title>1990981157280</title>
<ellipse fill="white" stroke="black" cx="877" cy="-192" rx="27" ry="27"/>
</g>
<!-- 1990981172544&#45;&gt;1990981157280 -->
<g id="edge8" class="edge">
<title>1990981172544&#45;&gt;1990981157280</title>
<path fill="none" stroke="black" d="M814.23,-192C822.27,-192 830.56,-192 838.35,-192"/>
<polygon fill="black" stroke="black" points="838.19,-195.5 848.19,-192 838.19,-188.5 838.19,-195.5"/>
</g>
<!-- 1990978715616 -->
<g id="node5" class="node">
<title>1990978715616</title>
<polygon fill="white" stroke="black" points="1022,-210 940,-210 940,-174 1022,-174 1022,-210"/>
<text text-anchor="middle" x="981" y="-186.97" font-family="Times New Roman,serif" font-size="12.00">System Install</text>
</g>
<!-- 1990978711440 -->
<g id="node26" class="node">
<title>1990978711440</title>
<ellipse fill="white" stroke="black" cx="1085" cy="-264" rx="27" ry="27"/>
</g>
<!-- 1990978715616&#45;&gt;1990978711440 -->
<g id="edge10" class="edge">
<title>1990978715616&#45;&gt;1990978711440</title>
<path fill="none" stroke="black" d="M1008,-210.35C1021.85,-220.13 1038.96,-232.21 1053.44,-242.43"/>
<polygon fill="black" stroke="black" points="1051.09,-245.06 1061.28,-247.96 1055.13,-239.34 1051.09,-245.06"/>
</g>
<!-- 1990978703376 -->
<g id="node27" class="node">
<title>1990978703376</title>
<ellipse fill="white" stroke="black" cx="1085" cy="-192" rx="27" ry="27"/>
</g>
<!-- 1990978715616&#45;&gt;1990978703376 -->
<g id="edge12" class="edge">
<title>1990978715616&#45;&gt;1990978703376</title>
<path fill="none" stroke="black" d="M1022.31,-192C1030.23,-192 1038.5,-192 1046.32,-192"/>
<polygon fill="black" stroke="black" points="1046.23,-195.5 1056.23,-192 1046.23,-188.5 1046.23,-195.5"/>
</g>
<!-- 1990978715328 -->
<g id="node28" class="node">
<title>1990978715328</title>
<ellipse fill="white" stroke="black" cx="1085" cy="-120" rx="27" ry="27"/>
</g>
<!-- 1990978715616&#45;&gt;1990978715328 -->
<g id="edge11" class="edge">
<title>1990978715616&#45;&gt;1990978715328</title>
<path fill="none" stroke="black" d="M1008,-173.65C1021.85,-163.87 1038.96,-151.79 1053.44,-141.57"/>
<polygon fill="black" stroke="black" points="1055.13,-144.66 1061.28,-136.04 1051.09,-138.94 1055.13,-144.66"/>
</g>
<!-- 1990978712400 -->
<g id="node6" class="node">
<title>1990978712400</title>
<polygon fill="white" stroke="black" points="1234.12,-138 1149.12,-138 1149.12,-102 1234.12,-102 1234.12,-138"/>
<text text-anchor="middle" x="1191.62" y="-114.97" font-family="Times New Roman,serif" font-size="12.00">Nutrient Setup</text>
</g>
<!-- 1990981338224 -->
<g id="node30" class="node">
<title>1990981338224</title>
<ellipse fill="white" stroke="black" cx="1298.25" cy="-120" rx="27" ry="27"/>
</g>
<!-- 1990978712400&#45;&gt;1990981338224 -->
<g id="edge17" class="edge">
<title>1990978712400&#45;&gt;1990981338224</title>
<path fill="none" stroke="black" d="M1234.58,-120C1242.83,-120 1251.44,-120 1259.54,-120"/>
<polygon fill="black" stroke="black" points="1259.43,-123.5 1269.43,-120 1259.43,-116.5 1259.43,-123.5"/>
</g>
<!-- 1990978711392 -->
<g id="node7" class="node">
<title>1990978711392</title>
<polygon fill="white" stroke="black" points="1235.25,-282 1148,-282 1148,-246 1235.25,-246 1235.25,-282"/>
<text text-anchor="middle" x="1191.62" y="-258.98" font-family="Times New Roman,serif" font-size="12.00">Light Calibrate</text>
</g>
<!-- 1990981340048 -->
<g id="node29" class="node">
<title>1990981340048</title>
<ellipse fill="white" stroke="black" cx="1298.25" cy="-264" rx="27" ry="27"/>
</g>
<!-- 1990978711392&#45;&gt;1990981340048 -->
<g id="edge18" class="edge">
<title>1990978711392&#45;&gt;1990981340048</title>
<path fill="none" stroke="black" d="M1235.48,-264C1243.43,-264 1251.67,-264 1259.45,-264"/>
<polygon fill="black" stroke="black" points="1259.29,-267.5 1269.29,-264 1259.29,-260.5 1259.29,-267.5"/>
</g>
<!-- 1990978713696 -->
<g id="node8" class="node">
<title>1990978713696</title>
<polygon fill="white" stroke="black" points="1234.88,-210 1148.38,-210 1148.38,-174 1234.88,-174 1234.88,-210"/>
<text text-anchor="middle" x="1191.62" y="-186.97" font-family="Times New Roman,serif" font-size="12.00">Sensor Deploy</text>
</g>
<!-- 1990981348592 -->
<g id="node31" class="node">
<title>1990981348592</title>
<ellipse fill="white" stroke="black" cx="1298.25" cy="-192" rx="27" ry="27"/>
</g>
<!-- 1990978713696&#45;&gt;1990981348592 -->
<g id="edge16" class="edge">
<title>1990978713696&#45;&gt;1990981348592</title>
<path fill="none" stroke="black" d="M1235.18,-192C1243.22,-192 1251.58,-192 1259.46,-192"/>
<polygon fill="black" stroke="black" points="1259.44,-195.5 1269.44,-192 1259.44,-188.5 1259.44,-195.5"/>
</g>
<!-- 1990978702080 -->
<g id="node9" class="node">
<title>1990978702080</title>
<polygon fill="white" stroke="black" points="1423.75,-210 1361.25,-210 1361.25,-174 1423.75,-174 1423.75,-210"/>
<text text-anchor="middle" x="1392.5" y="-186.97" font-family="Times New Roman,serif" font-size="12.00">Staff Hire</text>
</g>
<!-- 1990978713984 -->
<g id="node32" class="node">
<title>1990978713984</title>
<ellipse fill="white" stroke="black" cx="1486.75" cy="-192" rx="27" ry="27"/>
</g>
<!-- 1990978702080&#45;&gt;1990978713984 -->
<g id="edge22" class="edge">
<title>1990978702080&#45;&gt;1990978713984</title>
<path fill="none" stroke="black" d="M1424.22,-192C1431.89,-192 1440.22,-192 1448.18,-192"/>
<polygon fill="black" stroke="black" points="1447.97,-195.5 1457.97,-192 1447.97,-188.5 1447.97,-195.5"/>
</g>
<!-- 1990978704048 -->
<g id="node10" class="node">
<title>1990978704048</title>
<polygon fill="white" stroke="black" points="1630.25,-210 1549.75,-210 1549.75,-174 1630.25,-174 1630.25,-210"/>
<text text-anchor="middle" x="1590" y="-186.97" font-family="Times New Roman,serif" font-size="12.00">Training Plan</text>
</g>
<!-- 1990978704288 -->
<g id="node33" class="node">
<title>1990978704288</title>
<ellipse fill="white" stroke="black" cx="1693.25" cy="-192" rx="27" ry="27"/>
</g>
<!-- 1990978704048&#45;&gt;1990978704288 -->
<g id="edge24" class="edge">
<title>1990978704048&#45;&gt;1990978704288</title>
<path fill="none" stroke="black" d="M1630.73,-192C1638.6,-192 1646.84,-192 1654.64,-192"/>
<polygon fill="black" stroke="black" points="1654.52,-195.5 1664.52,-192 1654.52,-188.5 1654.52,-195.5"/>
</g>
<!-- 1990981170336 -->
<g id="node11" class="node">
<title>1990981170336</title>
<polygon fill="white" stroke="black" points="1827.75,-210 1756.25,-210 1756.25,-174 1827.75,-174 1827.75,-210"/>
<text text-anchor="middle" x="1792" y="-186.97" font-family="Times New Roman,serif" font-size="12.00">Crop Select</text>
</g>
<!-- 1990978045712 -->
<g id="node34" class="node">
<title>1990978045712</title>
<ellipse fill="white" stroke="black" cx="1890.75" cy="-192" rx="27" ry="27"/>
</g>
<!-- 1990981170336&#45;&gt;1990978045712 -->
<g id="edge26" class="edge">
<title>1990981170336&#45;&gt;1990978045712</title>
<path fill="none" stroke="black" d="M1828.2,-192C1835.95,-192 1844.19,-192 1852.04,-192"/>
<polygon fill="black" stroke="black" points="1852.01,-195.5 1862.01,-192 1852.01,-188.5 1852.01,-195.5"/>
</g>
<!-- 1990978046432 -->
<g id="node12" class="node">
<title>1990978046432</title>
<polygon fill="white" stroke="black" points="2038,-210 1953.75,-210 1953.75,-174 2038,-174 2038,-210"/>
<text text-anchor="middle" x="1995.88" y="-186.97" font-family="Times New Roman,serif" font-size="12.00">Planting Stage</text>
</g>
<!-- 1990978046816 -->
<g id="node35" class="node">
<title>1990978046816</title>
<ellipse fill="white" stroke="black" cx="2101" cy="-192" rx="27" ry="27"/>
</g>
<!-- 1990978046432&#45;&gt;1990978046816 -->
<g id="edge28" class="edge">
<title>1990978046432&#45;&gt;1990978046816</title>
<path fill="none" stroke="black" d="M2038.23,-192C2046.19,-192 2054.49,-192 2062.33,-192"/>
<polygon fill="black" stroke="black" points="2062.25,-195.5 2072.25,-192 2062.25,-188.5 2062.25,-195.5"/>
</g>
<!-- 1990978057616 -->
<g id="node13" class="node">
<title>1990978057616</title>
<polygon fill="white" stroke="black" points="2258,-187 2164,-187 2164,-151 2258,-151 2258,-187"/>
<text text-anchor="middle" x="2211" y="-163.97" font-family="Times New Roman,serif" font-size="12.00">Growth Monitor</text>
</g>
<!-- 1990978046480 -->
<g id="node36" class="node">
<title>1990978046480</title>
<ellipse fill="white" stroke="black" cx="2321" cy="-153" rx="27" ry="27"/>
</g>
<!-- 1990978057616&#45;&gt;1990978046480 -->
<g id="edge30" class="edge">
<title>1990978057616&#45;&gt;1990978046480</title>
<path fill="none" stroke="black" d="M2258.43,-162.12C2266.48,-160.93 2274.75,-159.7 2282.53,-158.55"/>
<polygon fill="black" stroke="black" points="2282.96,-162.03 2292.34,-157.1 2281.94,-155.1 2282.96,-162.03"/>
</g>
<!-- 1990976050944 -->
<g id="node14" class="node">
<title>1990976050944</title>
<polygon fill="black" stroke="black" points="2462.12,-171 2408.12,-171 2408.12,-135 2462.12,-135 2462.12,-171"/>
</g>
<!-- 1990976059152 -->
<g id="node37" class="node">
<title>1990976059152</title>
<ellipse fill="white" stroke="black" cx="2549.25" cy="-175" rx="27" ry="27"/>
</g>
<!-- 1990976050944&#45;&gt;1990976059152 -->
<g id="edge34" class="edge">
<title>1990976050944&#45;&gt;1990976059152</title>
<path fill="none" stroke="black" d="M2462.41,-158.16C2477,-161.02 2495.37,-164.62 2511.37,-167.76"/>
<polygon fill="black" stroke="black" points="2510.54,-171.17 2521.03,-169.66 2511.89,-164.3 2510.54,-171.17"/>
</g>
<!-- 1990977922032 -->
<g id="node39" class="node">
<title>1990977922032</title>
<ellipse fill="white" stroke="black" cx="2549.25" cy="-103" rx="27" ry="27"/>
</g>
<!-- 1990976050944&#45;&gt;1990977922032 -->
<g id="edge33" class="edge">
<title>1990976050944&#45;&gt;1990977922032</title>
<path fill="none" stroke="black" d="M2462.41,-141.28C2477.71,-134.46 2497.16,-125.78 2513.68,-118.42"/>
<polygon fill="black" stroke="black" points="2514.95,-121.68 2522.66,-114.41 2512.1,-115.29 2514.95,-121.68"/>
</g>
<!-- 1990978702560 -->
<g id="node15" class="node">
<title>1990978702560</title>
<polygon fill="white" stroke="black" points="2486.25,-72 2384,-72 2384,-36 2486.25,-36 2486.25,-72"/>
<text text-anchor="middle" x="2435.12" y="-48.98" font-family="Times New Roman,serif" font-size="12.00">Harvest Automate</text>
</g>
<!-- 1990978705872 -->
<g id="node38" class="node">
<title>1990978705872</title>
<ellipse fill="white" stroke="black" cx="2549.25" cy="-31" rx="27" ry="27"/>
</g>
<!-- 1990978702560&#45;&gt;1990978705872 -->
<g id="edge35" class="edge">
<title>1990978702560&#45;&gt;1990978705872</title>
<path fill="none" stroke="black" d="M2486.61,-43.64C2494.97,-41.93 2503.49,-40.18 2511.43,-38.55"/>
<polygon fill="black" stroke="black" points="2511.98,-42.01 2521.07,-36.57 2510.57,-35.16 2511.98,-42.01"/>
</g>
<!-- 1990978343984 -->
<g id="node16" class="node">
<title>1990978343984</title>
<polygon fill="white" stroke="black" points="2695,-121 2614.5,-121 2614.5,-85 2695,-85 2695,-121"/>
<text text-anchor="middle" x="2654.75" y="-97.97" font-family="Times New Roman,serif" font-size="12.00">Energy Audit</text>
</g>
<!-- 1990969794992 -->
<g id="node41" class="node">
<title>1990969794992</title>
<ellipse fill="white" stroke="black" cx="2760.25" cy="-103" rx="27" ry="27"/>
</g>
<!-- 1990978343984&#45;&gt;1990969794992 -->
<g id="edge39" class="edge">
<title>1990978343984&#45;&gt;1990969794992</title>
<path fill="none" stroke="black" d="M2695.47,-103C2703.99,-103 2712.98,-103 2721.43,-103"/>
<polygon fill="black" stroke="black" points="2721.4,-106.5 2731.4,-103 2721.4,-99.5 2721.4,-106.5"/>
</g>
<!-- 1990976048736 -->
<g id="node17" class="node">
<title>1990976048736</title>
<polygon fill="white" stroke="black" points="2693.88,-193 2615.62,-193 2615.62,-157 2693.88,-157 2693.88,-193"/>
<text text-anchor="middle" x="2654.75" y="-169.97" font-family="Times New Roman,serif" font-size="12.00">Data Review</text>
</g>
<!-- 1990976050080 -->
<g id="node40" class="node">
<title>1990976050080</title>
<ellipse fill="white" stroke="black" cx="2760.25" cy="-175" rx="27" ry="27"/>
</g>
<!-- 1990976048736&#45;&gt;1990976050080 -->
<g id="edge40" class="edge">
<title>1990976048736&#45;&gt;1990976050080</title>
<path fill="none" stroke="black" d="M2694.29,-175C2703.24,-175 2712.76,-175 2721.67,-175"/>
<polygon fill="black" stroke="black" points="2721.42,-178.5 2731.42,-175 2721.42,-171.5 2721.42,-178.5"/>
</g>
<!-- 1990978700304 -->
<g id="node18" class="node">
<title>1990978700304</title>
<polygon fill="white" stroke="black" points="2697.25,-49 2612.25,-49 2612.25,-13 2697.25,-13 2697.25,-49"/>
<text text-anchor="middle" x="2654.75" y="-25.98" font-family="Times New Roman,serif" font-size="12.00">Quality Check</text>
</g>
<!-- 1990978703712 -->
<g id="node42" class="node">
<title>1990978703712</title>
<ellipse fill="white" stroke="black" cx="2760.25" cy="-31" rx="27" ry="27"/>
</g>
<!-- 1990978700304&#45;&gt;1990978703712 -->
<g id="edge41" class="edge">
<title>1990978700304&#45;&gt;1990978703712</title>
<path fill="none" stroke="black" d="M2697.55,-31C2705.45,-31 2713.67,-31 2721.43,-31"/>
<polygon fill="black" stroke="black" points="2721.26,-34.5 2731.26,-31 2721.26,-27.5 2721.26,-34.5"/>
</g>
<!-- 1990976049552 -->
<g id="node19" class="node">
<title>1990976049552</title>
<polygon fill="black" stroke="black" points="2894.62,-193 2840.62,-193 2840.62,-157 2894.62,-157 2894.62,-193"/>
</g>
<!-- 1990976049552&#45;&gt;1990978046816 -->
<g id="edge45" class="edge">
<title>1990976049552&#45;&gt;1990978046816</title>
<path fill="none" stroke="black" d="M2840.16,-189.28C2825.06,-196.84 2805.55,-205.65 2787.25,-211 2730.57,-227.58 2714.8,-230 2655.75,-230 2320,-230 2320,-230 2320,-230 2255.25,-230 2181.26,-213.53 2138.27,-202.27"/>
<polygon fill="black" stroke="black" points="2139.28,-198.92 2128.72,-199.72 2137.48,-205.68 2139.28,-198.92"/>
</g>
<!-- 1990978709328 -->
<g id="node20" class="node">
<title>1990978709328</title>
<polygon fill="white" stroke="black" points="2912,-49 2823.25,-49 2823.25,-13 2912,-13 2912,-49"/>
<text text-anchor="middle" x="2867.62" y="-25.98" font-family="Times New Roman,serif" font-size="12.00">Market Launch</text>
</g>
<!-- 1990978341344 -->
<g id="node43" class="node">
<title>1990978341344</title>
<ellipse fill="white" stroke="black" cx="2979" cy="-31" rx="27" ry="27"/>
<ellipse fill="none" stroke="black" cx="2979" cy="-31" rx="31" ry="31"/>
<text text-anchor="start" x="2962.5" y="-15.6" font-family="Times New Roman,serif" font-size="32.00">■</text>
</g>
<!-- 1990978709328&#45;&gt;1990978341344 -->
<g id="edge46" class="edge">
<title>1990978709328&#45;&gt;1990978341344</title>
<path fill="none" stroke="black" d="M2912.48,-31C2920.3,-31 2928.42,-31 2936.17,-31"/>
<polygon fill="black" stroke="black" points="2936.06,-34.5 2946.06,-31 2936.06,-27.5 2936.06,-34.5"/>
</g>
<!-- 1990978340048 -->
<g id="node21" class="node">
<title>1990978340048</title>
<ellipse fill="white" stroke="black" cx="27" cy="-192" rx="27" ry="27"/>
<text text-anchor="start" x="9.75" y="-174.7" font-family="Times New Roman,serif" font-size="34.00">●</text>
</g>
<!-- 1990978340048&#45;&gt;1990979163232 -->
<g id="edge1" class="edge">
<title>1990978340048&#45;&gt;1990979163232</title>
<path fill="none" stroke="black" d="M54.33,-192C61.76,-192 70.06,-192 78.28,-192"/>
<polygon fill="black" stroke="black" points="78.24,-195.5 88.24,-192 78.24,-188.5 78.24,-195.5"/>
</g>
<!-- 1990979162128&#45;&gt;1990981171824 -->
<g id="edge3" class="edge">
<title>1990979162128&#45;&gt;1990981171824</title>
<path fill="none" stroke="black" d="M251.15,-192C258.48,-192 266.71,-192 275.01,-192"/>
<polygon fill="black" stroke="black" points="274.78,-195.5 284.78,-192 274.78,-188.5 274.78,-195.5"/>
</g>
<!-- 1990981159344&#45;&gt;1990981162368 -->
<g id="edge5" class="edge">
<title>1990981159344&#45;&gt;1990981162368</title>
<path fill="none" stroke="black" d="M464.33,-192C471.67,-192 479.96,-192 488.38,-192"/>
<polygon fill="black" stroke="black" points="488.34,-195.5 498.34,-192 488.34,-188.5 488.34,-195.5"/>
</g>
<!-- 1990981162176&#45;&gt;1990981172544 -->
<g id="edge7" class="edge">
<title>1990981162176&#45;&gt;1990981172544</title>
<path fill="none" stroke="black" d="M685.74,-192C693.07,-192 701.34,-192 709.72,-192"/>
<polygon fill="black" stroke="black" points="709.62,-195.5 719.62,-192 709.62,-188.5 709.62,-195.5"/>
</g>
<!-- 1990981157280&#45;&gt;1990978715616 -->
<g id="edge9" class="edge">
<title>1990981157280&#45;&gt;1990978715616</title>
<path fill="none" stroke="black" d="M904.27,-192C911.65,-192 919.95,-192 928.28,-192"/>
<polygon fill="black" stroke="black" points="928.05,-195.5 938.05,-192 928.05,-188.5 928.05,-195.5"/>
</g>
<!-- 1990978711440&#45;&gt;1990978711392 -->
<g id="edge15" class="edge">
<title>1990978711440&#45;&gt;1990978711392</title>
<path fill="none" stroke="black" d="M1112.4,-264C1119.73,-264 1127.96,-264 1136.26,-264"/>
<polygon fill="black" stroke="black" points="1136.03,-267.5 1146.03,-264 1136.03,-260.5 1136.03,-267.5"/>
</g>
<!-- 1990978703376&#45;&gt;1990978713696 -->
<g id="edge13" class="edge">
<title>1990978703376&#45;&gt;1990978713696</title>
<path fill="none" stroke="black" d="M1112.4,-192C1119.81,-192 1128.14,-192 1136.54,-192"/>
<polygon fill="black" stroke="black" points="1136.43,-195.5 1146.43,-192 1136.43,-188.5 1136.43,-195.5"/>
</g>
<!-- 1990978715328&#45;&gt;1990978712400 -->
<g id="edge14" class="edge">
<title>1990978715328&#45;&gt;1990978712400</title>
<path fill="none" stroke="black" d="M1112.4,-120C1120.06,-120 1128.71,-120 1137.4,-120"/>
<polygon fill="black" stroke="black" points="1137.24,-123.5 1147.24,-120 1137.24,-116.5 1137.24,-123.5"/>
</g>
<!-- 1990981340048&#45;&gt;1990978702080 -->
<g id="edge19" class="edge">
<title>1990981340048&#45;&gt;1990978702080</title>
<path fill="none" stroke="black" d="M1320.18,-247.66C1331.65,-238.71 1346.11,-227.43 1359,-217.36"/>
<polygon fill="black" stroke="black" points="1361.13,-220.14 1366.86,-211.23 1356.82,-214.62 1361.13,-220.14"/>
</g>
<!-- 1990981338224&#45;&gt;1990978702080 -->
<g id="edge20" class="edge">
<title>1990981338224&#45;&gt;1990978702080</title>
<path fill="none" stroke="black" d="M1320.18,-136.34C1331.65,-145.29 1346.11,-156.57 1359,-166.64"/>
<polygon fill="black" stroke="black" points="1356.82,-169.38 1366.86,-172.77 1361.13,-163.86 1356.82,-169.38"/>
</g>
<!-- 1990981348592&#45;&gt;1990978702080 -->
<g id="edge21" class="edge">
<title>1990981348592&#45;&gt;1990978702080</title>
<path fill="none" stroke="black" d="M1325.44,-192C1332.97,-192 1341.38,-192 1349.61,-192"/>
<polygon fill="black" stroke="black" points="1349.49,-195.5 1359.49,-192 1349.49,-188.5 1349.49,-195.5"/>
</g>
<!-- 1990978713984&#45;&gt;1990978704048 -->
<g id="edge23" class="edge">
<title>1990978713984&#45;&gt;1990978704048</title>
<path fill="none" stroke="black" d="M1514.09,-192C1521.5,-192 1529.82,-192 1538.15,-192"/>
<polygon fill="black" stroke="black" points="1537.92,-195.5 1547.92,-192 1537.92,-188.5 1537.92,-195.5"/>
</g>
<!-- 1990978704288&#45;&gt;1990981170336 -->
<g id="edge25" class="edge">
<title>1990978704288&#45;&gt;1990981170336</title>
<path fill="none" stroke="black" d="M1720.69,-192C1728.06,-192 1736.31,-192 1744.48,-192"/>
<polygon fill="black" stroke="black" points="1744.37,-195.5 1754.37,-192 1744.37,-188.5 1744.37,-195.5"/>
</g>
<!-- 1990978045712&#45;&gt;1990978046432 -->
<g id="edge27" class="edge">
<title>1990978045712&#45;&gt;1990978046432</title>
<path fill="none" stroke="black" d="M1918.04,-192C1925.42,-192 1933.73,-192 1942.07,-192"/>
<polygon fill="black" stroke="black" points="1941.89,-195.5 1951.89,-192 1941.89,-188.5 1941.89,-195.5"/>
</g>
<!-- 1990978046816&#45;&gt;1990978057616 -->
<g id="edge29" class="edge">
<title>1990978046816&#45;&gt;1990978057616</title>
<path fill="none" stroke="black" d="M2127.87,-186.49C2135.42,-184.88 2143.98,-183.06 2152.66,-181.21"/>
<polygon fill="black" stroke="black" points="2153.12,-184.69 2162.17,-179.19 2151.66,-177.85 2153.12,-184.69"/>
</g>
<!-- 1990978046480&#45;&gt;1990976050944 -->
<g id="edge32" class="edge">
<title>1990978046480&#45;&gt;1990976050944</title>
<path fill="none" stroke="black" d="M2348.29,-153C2362.77,-153 2380.98,-153 2396.9,-153"/>
<polygon fill="black" stroke="black" points="2396.49,-156.5 2406.49,-153 2396.49,-149.5 2396.49,-156.5"/>
</g>
<!-- 1990978046480&#45;&gt;1990978702560 -->
<g id="edge31" class="edge">
<title>1990978046480&#45;&gt;1990978702560</title>
<path fill="none" stroke="black" d="M2342.05,-135.3C2359.53,-119.87 2385.11,-97.28 2404.87,-79.83"/>
<polygon fill="black" stroke="black" points="2407.18,-82.46 2412.36,-73.22 2402.55,-77.21 2407.18,-82.46"/>
</g>
<!-- 1990976059152&#45;&gt;1990976048736 -->
<g id="edge36" class="edge">
<title>1990976059152&#45;&gt;1990976048736</title>
<path fill="none" stroke="black" d="M2576.64,-175C2584.98,-175 2594.5,-175 2603.92,-175"/>
<polygon fill="black" stroke="black" points="2603.79,-178.5 2613.79,-175 2603.79,-171.5 2603.79,-178.5"/>
</g>
<!-- 1990978705872&#45;&gt;1990978700304 -->
<g id="edge38" class="edge">
<title>1990978705872&#45;&gt;1990978700304</title>
<path fill="none" stroke="black" d="M2576.64,-31C2584.05,-31 2592.38,-31 2600.76,-31"/>
<polygon fill="black" stroke="black" points="2600.61,-34.5 2610.61,-31 2600.61,-27.5 2600.61,-34.5"/>
</g>
<!-- 1990977922032&#45;&gt;1990978343984 -->
<g id="edge37" class="edge">
<title>1990977922032&#45;&gt;1990978343984</title>
<path fill="none" stroke="black" d="M2576.64,-103C2584.64,-103 2593.71,-103 2602.76,-103"/>
<polygon fill="black" stroke="black" points="2602.6,-106.5 2612.6,-103 2602.6,-99.5 2602.6,-106.5"/>
</g>
<!-- 1990976050080&#45;&gt;1990976049552 -->
<g id="edge42" class="edge">
<title>1990976050080&#45;&gt;1990976049552</title>
<path fill="none" stroke="black" d="M2787.57,-175C2800.14,-175 2815.41,-175 2829.17,-175"/>
<polygon fill="black" stroke="black" points="2828.76,-178.5 2838.76,-175 2828.76,-171.5 2828.76,-178.5"/>
</g>
<!-- 1990969794992&#45;&gt;1990976049552 -->
<g id="edge44" class="edge">
<title>1990969794992&#45;&gt;1990976049552</title>
<path fill="none" stroke="black" d="M2783.08,-117.92C2796.99,-127.42 2815.33,-139.95 2831.28,-150.85"/>
<polygon fill="black" stroke="black" points="2828.86,-153.44 2839.09,-156.19 2832.81,-147.66 2828.86,-153.44"/>
</g>
<!-- 1990978703712&#45;&gt;1990978709328 -->
<g id="edge43" class="edge">
<title>1990978703712&#45;&gt;1990978709328</title>
<path fill="none" stroke="black" d="M2787.57,-31C2794.94,-31 2803.25,-31 2811.63,-31"/>
<polygon fill="black" stroke="black" points="2811.52,-34.5 2821.52,-31 2811.52,-27.5 2811.52,-34.5"/>
</g>
</g>
</svg>
