<?xml version="1.0" encoding="UTF-8" standalone="no"?>
<!DOCTYPE svg PUBLIC "-//W3C//DTD SVG 1.1//EN"
 "http://www.w3.org/Graphics/SVG/1.1/DTD/svg11.dtd">
<!-- Generated by graphviz version 11.0.0 (20240428.1522)
 -->
<!-- Title: imdf_net_1754051631.2602713 Pages: 1 -->
<svg width="2445pt" height="341pt"
 viewBox="0.00 0.00 2444.75 341.00" xmlns="http://www.w3.org/2000/svg" xmlns:xlink="http://www.w3.org/1999/xlink">
<g id="graph0" class="graph" transform="scale(1 1) rotate(0) translate(4 337)">
<title>imdf_net_1754051631.2602713</title>
<polygon fill="white" stroke="none" points="-4,4 -4,-337 2440.75,-337 2440.75,4 -4,4"/>
<!-- 1990980804368 -->
<g id="node1" class="node">
<title>1990980804368</title>
<polygon fill="white" stroke="black" points="179.5,-88 90,-88 90,-52 179.5,-52 179.5,-88"/>
<text text-anchor="middle" x="134.75" y="-64.97" font-family="Times New Roman,serif" font-size="12.00">Art Submission</text>
</g>
<!-- 1990980798848 -->
<g id="node22" class="node">
<title>1990980798848</title>
<ellipse fill="white" stroke="black" cx="242.5" cy="-106" rx="27" ry="27"/>
</g>
<!-- 1990980804368&#45;&gt;1990980798848 -->
<g id="edge2" class="edge">
<title>1990980804368&#45;&gt;1990980798848</title>
<path fill="none" stroke="black" d="M179.98,-85.06C188.55,-87.97 197.42,-90.99 205.67,-93.8"/>
<polygon fill="black" stroke="black" points="204.42,-97.07 215.01,-96.98 206.68,-90.45 204.42,-97.07"/>
</g>
<!-- 1990979851072 -->
<g id="node23" class="node">
<title>1990979851072</title>
<ellipse fill="white" stroke="black" cx="242.5" cy="-34" rx="27" ry="27"/>
</g>
<!-- 1990980804368&#45;&gt;1990979851072 -->
<g id="edge3" class="edge">
<title>1990980804368&#45;&gt;1990979851072</title>
<path fill="none" stroke="black" d="M179.98,-54.94C188.55,-52.03 197.42,-49.01 205.67,-46.2"/>
<polygon fill="black" stroke="black" points="206.68,-49.55 215.01,-43.02 204.42,-42.93 206.68,-49.55"/>
</g>
<!-- 1990980809024 -->
<g id="node2" class="node">
<title>1990980809024</title>
<polygon fill="white" stroke="black" points="398,-125 305.5,-125 305.5,-89 398,-89 398,-125"/>
<text text-anchor="middle" x="351.75" y="-101.97" font-family="Times New Roman,serif" font-size="12.00">Version Control</text>
</g>
<!-- 1990979862400 -->
<g id="node25" class="node">
<title>1990979862400</title>
<ellipse fill="white" stroke="black" cx="461" cy="-179" rx="27" ry="27"/>
</g>
<!-- 1990980809024&#45;&gt;1990979862400 -->
<g id="edge8" class="edge">
<title>1990980809024&#45;&gt;1990979862400</title>
<path fill="none" stroke="black" d="M380.09,-125.35C395,-135.36 413.5,-147.78 428.95,-158.15"/>
<polygon fill="black" stroke="black" points="426.6,-160.79 436.85,-163.46 430.5,-154.98 426.6,-160.79"/>
</g>
<!-- 1990976884224 -->
<g id="node26" class="node">
<title>1990976884224</title>
<ellipse fill="white" stroke="black" cx="461" cy="-107" rx="27" ry="27"/>
</g>
<!-- 1990980809024&#45;&gt;1990976884224 -->
<g id="edge6" class="edge">
<title>1990980809024&#45;&gt;1990976884224</title>
<path fill="none" stroke="black" d="M398.23,-107C406.27,-107 414.56,-107 422.35,-107"/>
<polygon fill="black" stroke="black" points="422.19,-110.5 432.19,-107 422.19,-103.5 422.19,-110.5"/>
</g>
<!-- 1990979854528 -->
<g id="node3" class="node">
<title>1990979854528</title>
<polygon fill="white" stroke="black" points="390.88,-47 312.62,-47 312.62,-11 390.88,-11 390.88,-47"/>
<text text-anchor="middle" x="351.75" y="-23.98" font-family="Times New Roman,serif" font-size="12.00">Data Backup</text>
</g>
<!-- 1990979861248 -->
<g id="node24" class="node">
<title>1990979861248</title>
<ellipse fill="white" stroke="black" cx="902.5" cy="-27" rx="27" ry="27"/>
</g>
<!-- 1990979854528&#45;&gt;1990979861248 -->
<g id="edge7" class="edge">
<title>1990979854528&#45;&gt;1990979861248</title>
<path fill="none" stroke="black" d="M391.13,-28.45C435.68,-27.86 511.34,-27 576.38,-27 576.38,-27 576.38,-27 694.75,-27 753.72,-27 822.15,-27 863.61,-27"/>
<polygon fill="black" stroke="black" points="863.55,-30.5 873.55,-27 863.55,-23.5 863.55,-30.5"/>
</g>
<!-- 1990978083856 -->
<g id="node4" class="node">
<title>1990978083856</title>
<polygon fill="black" stroke="black" points="2324.38,-100 2270.38,-100 2270.38,-64 2324.38,-64 2324.38,-100"/>
</g>
<!-- 1990975764576 -->
<g id="node29" class="node">
<title>1990975764576</title>
<ellipse fill="white" stroke="black" cx="2405.75" cy="-82" rx="27" ry="27"/>
<ellipse fill="none" stroke="black" cx="2405.75" cy="-82" rx="31" ry="31"/>
<text text-anchor="start" x="2389.25" y="-66.6" font-family="Times New Roman,serif" font-size="32.00">■</text>
</g>
<!-- 1990978083856&#45;&gt;1990975764576 -->
<g id="edge14" class="edge">
<title>1990978083856&#45;&gt;1990975764576</title>
<path fill="none" stroke="black" d="M2324.67,-82C2336.38,-82 2350.44,-82 2363.49,-82"/>
<polygon fill="black" stroke="black" points="2363.11,-85.5 2373.11,-82 2363.11,-78.5 2363.11,-85.5"/>
</g>
<!-- 1990976881728 -->
<g id="node5" class="node">
<title>1990976881728</title>
<polygon fill="white" stroke="black" points="630.75,-197 524,-197 524,-161 630.75,-161 630.75,-197"/>
<text text-anchor="middle" x="577.38" y="-173.97" font-family="Times New Roman,serif" font-size="12.00">Compliance Check</text>
</g>
<!-- 1990976236928 -->
<g id="node27" class="node">
<title>1990976236928</title>
<ellipse fill="white" stroke="black" cx="693.75" cy="-180" rx="27" ry="27"/>
</g>
<!-- 1990976881728&#45;&gt;1990976236928 -->
<g id="edge12" class="edge">
<title>1990976881728&#45;&gt;1990976236928</title>
<path fill="none" stroke="black" d="M631.21,-179.46C639.2,-179.53 647.3,-179.6 654.89,-179.67"/>
<polygon fill="black" stroke="black" points="654.76,-183.17 664.79,-179.76 654.82,-176.17 654.76,-183.17"/>
</g>
<!-- 1990976892624 -->
<g id="node6" class="node">
<title>1990976892624</title>
<polygon fill="white" stroke="black" points="620.62,-125 534.12,-125 534.12,-89 620.62,-89 620.62,-125"/>
<text text-anchor="middle" x="577.38" y="-101.97" font-family="Times New Roman,serif" font-size="12.00">Rights Review</text>
</g>
<!-- 1990976881104 -->
<g id="node28" class="node">
<title>1990976881104</title>
<ellipse fill="white" stroke="black" cx="693.75" cy="-107" rx="27" ry="27"/>
</g>
<!-- 1990976892624&#45;&gt;1990976881104 -->
<g id="edge13" class="edge">
<title>1990976892624&#45;&gt;1990976881104</title>
<path fill="none" stroke="black" d="M620.96,-107C632.16,-107 644.15,-107 655.07,-107"/>
<polygon fill="black" stroke="black" points="654.89,-110.5 664.89,-107 654.89,-103.5 654.89,-110.5"/>
</g>
<!-- 1990977857024 -->
<g id="node7" class="node">
<title>1990977857024</title>
<polygon fill="black" stroke="black" points="1019.5,-145 965.5,-145 965.5,-109 1019.5,-109 1019.5,-145"/>
</g>
<!-- 1990977849200 -->
<g id="node31" class="node">
<title>1990977849200</title>
<ellipse fill="white" stroke="black" cx="1082.5" cy="-127" rx="27" ry="27"/>
</g>
<!-- 1990977857024&#45;&gt;1990977849200 -->
<g id="edge19" class="edge">
<title>1990977857024&#45;&gt;1990977849200</title>
<path fill="none" stroke="black" d="M1019.9,-127C1027.39,-127 1035.68,-127 1043.7,-127"/>
<polygon fill="black" stroke="black" points="1043.6,-130.5 1053.6,-127 1043.6,-123.5 1043.6,-130.5"/>
</g>
<!-- 1990977857216 -->
<g id="node8" class="node">
<title>1990977857216</title>
<polygon fill="black" stroke="black" points="825.12,-91 771.12,-91 771.12,-55 825.12,-55 825.12,-91"/>
</g>
<!-- 1990977850112 -->
<g id="node30" class="node">
<title>1990977850112</title>
<ellipse fill="white" stroke="black" cx="902.5" cy="-126" rx="27" ry="27"/>
</g>
<!-- 1990977857216&#45;&gt;1990977850112 -->
<g id="edge18" class="edge">
<title>1990977857216&#45;&gt;1990977850112</title>
<path fill="none" stroke="black" d="M825.49,-86.65C838.42,-93.35 854.15,-101.49 867.94,-108.62"/>
<polygon fill="black" stroke="black" points="866.19,-111.66 876.68,-113.15 869.4,-105.44 866.19,-111.66"/>
</g>
<!-- 1990977863120 -->
<g id="node9" class="node">
<title>1990977863120</title>
<polygon fill="white" stroke="black" points="839.5,-145 756.75,-145 756.75,-109 839.5,-109 839.5,-145"/>
<text text-anchor="middle" x="798.12" y="-121.97" font-family="Times New Roman,serif" font-size="12.00">Legal Consult</text>
</g>
<!-- 1990977863120&#45;&gt;1990977850112 -->
<g id="edge20" class="edge">
<title>1990977863120&#45;&gt;1990977850112</title>
<path fill="none" stroke="black" d="M839.88,-126.6C847.8,-126.52 856.08,-126.44 863.89,-126.37"/>
<polygon fill="black" stroke="black" points="863.82,-129.87 873.79,-126.27 863.76,-122.87 863.82,-129.87"/>
</g>
<!-- 1990977862256 -->
<g id="node10" class="node">
<title>1990977862256</title>
<polygon fill="white" stroke="black" points="1245.5,-145 1145.5,-145 1145.5,-109 1245.5,-109 1245.5,-145"/>
<text text-anchor="middle" x="1195.5" y="-121.97" font-family="Times New Roman,serif" font-size="12.00">Term Negotiation</text>
</g>
<!-- 1990971047088 -->
<g id="node32" class="node">
<title>1990971047088</title>
<ellipse fill="white" stroke="black" cx="1308.5" cy="-128" rx="27" ry="27"/>
</g>
<!-- 1990977862256&#45;&gt;1990971047088 -->
<g id="edge23" class="edge">
<title>1990977862256&#45;&gt;1990971047088</title>
<path fill="none" stroke="black" d="M1245.83,-127.44C1253.91,-127.52 1262.16,-127.59 1269.89,-127.66"/>
<polygon fill="black" stroke="black" points="1269.59,-131.16 1279.62,-127.75 1269.65,-124.16 1269.59,-131.16"/>
</g>
<!-- 1990979053584 -->
<g id="node11" class="node">
<title>1990979053584</title>
<polygon fill="white" stroke="black" points="1470.75,-146 1371.5,-146 1371.5,-110 1470.75,-110 1470.75,-146"/>
<text text-anchor="middle" x="1421.12" y="-122.97" font-family="Times New Roman,serif" font-size="12.00">Demand Forecast</text>
</g>
<!-- 1990979045088 -->
<g id="node34" class="node">
<title>1990979045088</title>
<ellipse fill="white" stroke="black" cx="1533.75" cy="-128" rx="27" ry="27"/>
</g>
<!-- 1990979053584&#45;&gt;1990979045088 -->
<g id="edge26" class="edge">
<title>1990979053584&#45;&gt;1990979045088</title>
<path fill="none" stroke="black" d="M1470.97,-128C1479.04,-128 1487.3,-128 1495.04,-128"/>
<polygon fill="black" stroke="black" points="1494.8,-131.5 1504.8,-128 1494.8,-124.5 1494.8,-131.5"/>
</g>
<!-- 1990976659792 -->
<g id="node12" class="node">
<title>1990976659792</title>
<polygon fill="white" stroke="black" points="1463.25,-218 1379,-218 1379,-182 1463.25,-182 1463.25,-218"/>
<text text-anchor="middle" x="1421.12" y="-194.97" font-family="Times New Roman,serif" font-size="12.00">Contract Draft</text>
</g>
<!-- 1990981882400 -->
<g id="node33" class="node">
<title>1990981882400</title>
<ellipse fill="white" stroke="black" cx="1533.75" cy="-200" rx="27" ry="27"/>
</g>
<!-- 1990976659792&#45;&gt;1990981882400 -->
<g id="edge27" class="edge">
<title>1990976659792&#45;&gt;1990981882400</title>
<path fill="none" stroke="black" d="M1463.63,-200C1473.94,-200 1484.94,-200 1495.06,-200"/>
<polygon fill="black" stroke="black" points="1494.92,-203.5 1504.92,-200 1494.92,-196.5 1494.92,-203.5"/>
</g>
<!-- 1990976660704 -->
<g id="node35" class="node">
<title>1990976660704</title>
<ellipse fill="white" stroke="black" cx="1533.75" cy="-272" rx="27" ry="27"/>
</g>
<!-- 1990976659792&#45;&gt;1990976660704 -->
<g id="edge28" class="edge">
<title>1990976659792&#45;&gt;1990976660704</title>
<path fill="none" stroke="black" d="M1450.33,-218.35C1465.81,-228.43 1485.05,-240.95 1501.05,-251.37"/>
<polygon fill="black" stroke="black" points="1498.97,-254.19 1509.26,-256.71 1502.79,-248.32 1498.97,-254.19"/>
</g>
<!-- 1990977592864 -->
<g id="node13" class="node">
<title>1990977592864</title>
<polygon fill="white" stroke="black" points="1685.5,-290 1602,-290 1602,-254 1685.5,-254 1685.5,-290"/>
<text text-anchor="middle" x="1643.75" y="-266.98" font-family="Times New Roman,serif" font-size="12.00">Platform Sync</text>
</g>
<!-- 1990977518816 -->
<g id="node37" class="node">
<title>1990977518816</title>
<ellipse fill="white" stroke="black" cx="1753.75" cy="-288" rx="27" ry="27"/>
</g>
<!-- 1990977592864&#45;&gt;1990977518816 -->
<g id="edge35" class="edge">
<title>1990977592864&#45;&gt;1990977518816</title>
<path fill="none" stroke="black" d="M1685.89,-278.09C1695.64,-279.54 1705.98,-281.07 1715.54,-282.49"/>
<polygon fill="black" stroke="black" points="1714.82,-285.92 1725.22,-283.92 1715.85,-278.99 1714.82,-285.92"/>
</g>
<!-- 1990980635632 -->
<g id="node38" class="node">
<title>1990980635632</title>
<ellipse fill="white" stroke="black" cx="1753.75" cy="-216" rx="27" ry="27"/>
</g>
<!-- 1990977592864&#45;&gt;1990980635632 -->
<g id="edge33" class="edge">
<title>1990977592864&#45;&gt;1990980635632</title>
<path fill="none" stroke="black" d="M1680.41,-253.51C1692.99,-246.99 1707.07,-239.69 1719.44,-233.27"/>
<polygon fill="black" stroke="black" points="1720.76,-236.53 1728.02,-228.82 1717.53,-230.32 1720.76,-236.53"/>
</g>
<!-- 1990981891616 -->
<g id="node14" class="node">
<title>1990981891616</title>
<polygon fill="white" stroke="black" points="1690.75,-196 1596.75,-196 1596.75,-160 1690.75,-160 1690.75,-196"/>
<text text-anchor="middle" x="1643.75" y="-172.97" font-family="Times New Roman,serif" font-size="12.00">Report Generate</text>
</g>
<!-- 1990976166016 -->
<g id="node36" class="node">
<title>1990976166016</title>
<ellipse fill="white" stroke="black" cx="1864.88" cy="-153" rx="27" ry="27"/>
</g>
<!-- 1990981891616&#45;&gt;1990976166016 -->
<g id="edge34" class="edge">
<title>1990981891616&#45;&gt;1990976166016</title>
<path fill="none" stroke="black" d="M1691.22,-172.7C1731.46,-168.11 1788.93,-161.55 1826.32,-157.28"/>
<polygon fill="black" stroke="black" points="1826.67,-160.77 1836.2,-156.16 1825.87,-153.81 1826.67,-160.77"/>
</g>
<!-- 1990977257440 -->
<g id="node15" class="node">
<title>1990977257440</title>
<polygon fill="white" stroke="black" points="1685.5,-119 1602,-119 1602,-83 1685.5,-83 1685.5,-119"/>
<text text-anchor="middle" x="1643.75" y="-95.97" font-family="Times New Roman,serif" font-size="12.00">Royalty Setup</text>
</g>
<!-- 1990977257440&#45;&gt;1990977849200 -->
<g id="edge32" class="edge">
<title>1990977257440&#45;&gt;1990977849200</title>
<path fill="none" stroke="black" d="M1601.88,-92.67C1557.74,-84.42 1485.25,-73 1422.12,-73 1307.5,-73 1307.5,-73 1307.5,-73 1234.51,-73 1215.49,-79.27 1145.5,-100 1136.22,-102.75 1126.48,-106.53 1117.55,-110.39"/>
<polygon fill="black" stroke="black" points="1116.19,-107.16 1108.51,-114.46 1119.07,-113.54 1116.19,-107.16"/>
</g>
<!-- 1990977395200 -->
<g id="node16" class="node">
<title>1990977395200</title>
<polygon fill="white" stroke="black" points="1908.5,-297 1821.25,-297 1821.25,-261 1908.5,-261 1908.5,-297"/>
<text text-anchor="middle" x="1864.88" y="-273.98" font-family="Times New Roman,serif" font-size="12.00">Usage Monitor</text>
</g>
<!-- 1990977511088 -->
<g id="node40" class="node">
<title>1990977511088</title>
<ellipse fill="white" stroke="black" cx="1976" cy="-270" rx="27" ry="27"/>
</g>
<!-- 1990977395200&#45;&gt;1990977511088 -->
<g id="edge41" class="edge">
<title>1990977395200&#45;&gt;1990977511088</title>
<path fill="none" stroke="black" d="M1908.69,-275.47C1918.18,-274.69 1928.17,-273.86 1937.43,-273.1"/>
<polygon fill="black" stroke="black" points="1937.49,-276.61 1947.17,-272.3 1936.91,-269.63 1937.49,-276.61"/>
</g>
<!-- 1990981832864 -->
<g id="node17" class="node">
<title>1990981832864</title>
<polygon fill="white" stroke="black" points="1913,-234 1816.75,-234 1816.75,-198 1913,-198 1913,-234"/>
<text text-anchor="middle" x="1864.88" y="-210.97" font-family="Times New Roman,serif" font-size="12.00">Payment Process</text>
</g>
<!-- 1990979094720 -->
<g id="node41" class="node">
<title>1990979094720</title>
<ellipse fill="white" stroke="black" cx="1976" cy="-198" rx="27" ry="27"/>
</g>
<!-- 1990981832864&#45;&gt;1990979094720 -->
<g id="edge39" class="edge">
<title>1990981832864&#45;&gt;1990979094720</title>
<path fill="none" stroke="black" d="M1913.42,-208.16C1921.51,-206.82 1929.8,-205.46 1937.58,-204.17"/>
<polygon fill="black" stroke="black" points="1938.1,-207.63 1947.4,-202.55 1936.96,-200.73 1938.1,-207.63"/>
</g>
<!-- 1990971219056 -->
<g id="node18" class="node">
<title>1990971219056</title>
<polygon fill="white" stroke="black" points="2127,-193 2042,-193 2042,-157 2127,-157 2127,-193"/>
<text text-anchor="middle" x="2084.5" y="-169.97" font-family="Times New Roman,serif" font-size="12.00">Renewal Alert</text>
</g>
<!-- 1990971919248 -->
<g id="node39" class="node">
<title>1990971919248</title>
<ellipse fill="white" stroke="black" cx="2193" cy="-137" rx="27" ry="27"/>
</g>
<!-- 1990971219056&#45;&gt;1990971919248 -->
<g id="edge40" class="edge">
<title>1990971219056&#45;&gt;1990971919248</title>
<path fill="none" stroke="black" d="M2127.29,-160.09C2137,-156.62 2147.26,-152.97 2156.66,-149.61"/>
<polygon fill="black" stroke="black" points="2157.57,-153 2165.81,-146.34 2155.22,-146.41 2157.57,-153"/>
</g>
<!-- 1990980642112 -->
<g id="node19" class="node">
<title>1990980642112</title>
<polygon fill="white" stroke="black" points="2130,-290 2039,-290 2039,-254 2130,-254 2130,-290"/>
<text text-anchor="middle" x="2084.5" y="-266.98" font-family="Times New Roman,serif" font-size="12.00">Dispute Trigger</text>
</g>
<!-- 1990980636976 -->
<g id="node42" class="node">
<title>1990980636976</title>
<ellipse fill="white" stroke="black" cx="2193" cy="-276" rx="27" ry="27"/>
</g>
<!-- 1990980642112&#45;&gt;1990980636976 -->
<g id="edge46" class="edge">
<title>1990980642112&#45;&gt;1990980636976</title>
<path fill="none" stroke="black" d="M2130.36,-273.68C2138.36,-273.99 2146.62,-274.3 2154.4,-274.59"/>
<polygon fill="black" stroke="black" points="2154.09,-278.08 2164.21,-274.96 2154.35,-271.08 2154.09,-278.08"/>
</g>
<!-- 1990980638176 -->
<g id="node20" class="node">
<title>1990980638176</title>
<polygon fill="white" stroke="black" points="2338.75,-325 2256,-325 2256,-289 2338.75,-289 2338.75,-325"/>
<text text-anchor="middle" x="2297.38" y="-301.98" font-family="Times New Roman,serif" font-size="12.00">Legal Consult</text>
</g>
<!-- 1990980638176&#45;&gt;1990977518816 -->
<g id="edge48" class="edge">
<title>1990980638176&#45;&gt;1990977518816</title>
<path fill="none" stroke="black" d="M2255.74,-315.01C2213.41,-322.65 2145.07,-333 2085.5,-333 1975,-333 1975,-333 1975,-333 1908.9,-333 1833.86,-313.3 1790.64,-299.97"/>
<polygon fill="black" stroke="black" points="1791.88,-296.69 1781.29,-297.03 1789.77,-303.37 1791.88,-296.69"/>
</g>
<!-- 1990975763952 -->
<g id="node21" class="node">
<title>1990975763952</title>
<ellipse fill="white" stroke="black" cx="27" cy="-70" rx="27" ry="27"/>
<text text-anchor="start" x="9.75" y="-52.7" font-family="Times New Roman,serif" font-size="34.00">●</text>
</g>
<!-- 1990975763952&#45;&gt;1990980804368 -->
<g id="edge1" class="edge">
<title>1990975763952&#45;&gt;1990980804368</title>
<path fill="none" stroke="black" d="M54.41,-70C61.73,-70 69.96,-70 78.28,-70"/>
<polygon fill="black" stroke="black" points="78.08,-73.5 88.08,-70 78.08,-66.5 78.08,-73.5"/>
</g>
<!-- 1990980798848&#45;&gt;1990980809024 -->
<g id="edge5" class="edge">
<title>1990980798848&#45;&gt;1990980809024</title>
<path fill="none" stroke="black" d="M269.74,-106.24C277.07,-106.31 285.34,-106.39 293.72,-106.47"/>
<polygon fill="black" stroke="black" points="293.59,-109.97 303.62,-106.56 293.65,-102.97 293.59,-109.97"/>
</g>
<!-- 1990979851072&#45;&gt;1990979854528 -->
<g id="edge4" class="edge">
<title>1990979851072&#45;&gt;1990979854528</title>
<path fill="none" stroke="black" d="M269.74,-32.78C279.12,-32.34 290.03,-31.83 300.74,-31.33"/>
<polygon fill="black" stroke="black" points="300.88,-34.83 310.7,-30.87 300.55,-27.84 300.88,-34.83"/>
</g>
<!-- 1990979861248&#45;&gt;1990978083856 -->
<g id="edge9" class="edge">
<title>1990979861248&#45;&gt;1990978083856</title>
<path fill="none" stroke="black" d="M929.74,-27C964.46,-27 1027.57,-27 1081.5,-27 1081.5,-27 1081.5,-27 2085.5,-27 2148.06,-27 2217.77,-49.94 2259.3,-66.19"/>
<polygon fill="black" stroke="black" points="2258,-69.44 2268.58,-69.91 2260.6,-62.94 2258,-69.44"/>
</g>
<!-- 1990979862400&#45;&gt;1990976881728 -->
<g id="edge11" class="edge">
<title>1990979862400&#45;&gt;1990976881728</title>
<path fill="none" stroke="black" d="M488.24,-179C495.58,-179 503.89,-179 512.4,-179"/>
<polygon fill="black" stroke="black" points="512.13,-182.5 522.13,-179 512.13,-175.5 512.13,-182.5"/>
</g>
<!-- 1990976884224&#45;&gt;1990976892624 -->
<g id="edge10" class="edge">
<title>1990976884224&#45;&gt;1990976892624</title>
<path fill="none" stroke="black" d="M488.24,-107C498.44,-107 510.51,-107 522.4,-107"/>
<polygon fill="black" stroke="black" points="522.16,-110.5 532.16,-107 522.16,-103.5 522.16,-110.5"/>
</g>
<!-- 1990976236928&#45;&gt;1990977857024 -->
<g id="edge15" class="edge">
<title>1990976236928&#45;&gt;1990977857024</title>
<path fill="none" stroke="black" d="M721.14,-181.64C765.31,-183.6 856.57,-184.18 929.5,-162 938.23,-159.34 947.08,-155.31 955.26,-150.91"/>
<polygon fill="black" stroke="black" points="956.94,-153.98 963.88,-145.98 953.46,-147.91 956.94,-153.98"/>
</g>
<!-- 1990976881104&#45;&gt;1990977857216 -->
<g id="edge16" class="edge">
<title>1990976881104&#45;&gt;1990977857216</title>
<path fill="none" stroke="black" d="M719.79,-98.68C731.91,-94.66 746.7,-89.75 760.09,-85.3"/>
<polygon fill="black" stroke="black" points="761.09,-88.66 769.48,-82.18 758.88,-82.01 761.09,-88.66"/>
</g>
<!-- 1990976881104&#45;&gt;1990977863120 -->
<g id="edge17" class="edge">
<title>1990976881104&#45;&gt;1990977863120</title>
<path fill="none" stroke="black" d="M720.58,-112.05C728.16,-113.53 736.73,-115.2 745.33,-116.88"/>
<polygon fill="black" stroke="black" points="744.58,-120.3 755.07,-118.78 745.92,-113.43 744.58,-120.3"/>
</g>
<!-- 1990977850112&#45;&gt;1990977857024 -->
<g id="edge21" class="edge">
<title>1990977850112&#45;&gt;1990977857024</title>
<path fill="none" stroke="black" d="M929.9,-126.3C937.39,-126.39 945.68,-126.48 953.7,-126.57"/>
<polygon fill="black" stroke="black" points="953.56,-130.07 963.6,-126.68 953.64,-123.07 953.56,-130.07"/>
</g>
<!-- 1990977849200&#45;&gt;1990977862256 -->
<g id="edge22" class="edge">
<title>1990977849200&#45;&gt;1990977862256</title>
<path fill="none" stroke="black" d="M1109.81,-127C1117.12,-127 1125.38,-127 1133.81,-127"/>
<polygon fill="black" stroke="black" points="1133.81,-130.5 1143.81,-127 1133.81,-123.5 1133.81,-130.5"/>
</g>
<!-- 1990971047088&#45;&gt;1990979053584 -->
<g id="edge24" class="edge">
<title>1990971047088&#45;&gt;1990979053584</title>
<path fill="none" stroke="black" d="M1336,-128C1343.29,-128 1351.52,-128 1359.89,-128"/>
<polygon fill="black" stroke="black" points="1359.82,-131.5 1369.82,-128 1359.82,-124.5 1359.82,-131.5"/>
</g>
<!-- 1990971047088&#45;&gt;1990976659792 -->
<g id="edge25" class="edge">
<title>1990971047088&#45;&gt;1990976659792</title>
<path fill="none" stroke="black" d="M1331.62,-142.4C1346.06,-151.8 1365.3,-164.31 1382.14,-175.28"/>
<polygon fill="black" stroke="black" points="1380.17,-178.17 1390.46,-180.69 1383.99,-172.31 1380.17,-178.17"/>
</g>
<!-- 1990981882400&#45;&gt;1990981891616 -->
<g id="edge31" class="edge">
<title>1990981882400&#45;&gt;1990981891616</title>
<path fill="none" stroke="black" d="M1560.62,-194.73C1568.08,-193.21 1576.54,-191.49 1585.12,-189.74"/>
<polygon fill="black" stroke="black" points="1585.81,-193.17 1594.91,-187.74 1584.42,-186.31 1585.81,-193.17"/>
</g>
<!-- 1990979045088&#45;&gt;1990977257440 -->
<g id="edge30" class="edge">
<title>1990979045088&#45;&gt;1990977257440</title>
<path fill="none" stroke="black" d="M1560.34,-121.6C1569.51,-119.31 1580.2,-116.64 1590.79,-113.99"/>
<polygon fill="black" stroke="black" points="1591.4,-117.45 1600.25,-111.62 1589.7,-110.65 1591.4,-117.45"/>
</g>
<!-- 1990976660704&#45;&gt;1990977592864 -->
<g id="edge29" class="edge">
<title>1990976660704&#45;&gt;1990977592864</title>
<path fill="none" stroke="black" d="M1561.17,-272C1570.06,-272 1580.32,-272 1590.49,-272"/>
<polygon fill="black" stroke="black" points="1590.36,-275.5 1600.36,-272 1590.36,-268.5 1590.36,-275.5"/>
</g>
<!-- 1990976166016&#45;&gt;1990971219056 -->
<g id="edge36" class="edge">
<title>1990976166016&#45;&gt;1990971219056</title>
<path fill="none" stroke="black" d="M1892.22,-154.33C1919.86,-155.87 1964.57,-158.74 2003,-163 2011.89,-163.99 2021.3,-165.22 2030.43,-166.51"/>
<polygon fill="black" stroke="black" points="2029.9,-169.97 2040.3,-167.95 2030.91,-163.04 2029.9,-169.97"/>
</g>
<!-- 1990977518816&#45;&gt;1990977395200 -->
<g id="edge38" class="edge">
<title>1990977518816&#45;&gt;1990977395200</title>
<path fill="none" stroke="black" d="M1780.89,-285.84C1789.59,-285.13 1799.64,-284.3 1809.66,-283.47"/>
<polygon fill="black" stroke="black" points="1809.72,-286.98 1819.4,-282.67 1809.14,-280 1809.72,-286.98"/>
</g>
<!-- 1990980635632&#45;&gt;1990981832864 -->
<g id="edge37" class="edge">
<title>1990980635632&#45;&gt;1990981832864</title>
<path fill="none" stroke="black" d="M1781.17,-216C1788.45,-216 1796.66,-216 1805,-216"/>
<polygon fill="black" stroke="black" points="1804.87,-219.5 1814.87,-216 1804.87,-212.5 1804.87,-219.5"/>
</g>
<!-- 1990971919248&#45;&gt;1990978083856 -->
<g id="edge42" class="edge">
<title>1990971919248&#45;&gt;1990978083856</title>
<path fill="none" stroke="black" d="M2217.23,-124.52C2229.86,-117.74 2245.76,-109.19 2259.99,-101.55"/>
<polygon fill="black" stroke="black" points="2261.5,-104.71 2268.65,-96.89 2258.19,-98.54 2261.5,-104.71"/>
</g>
<!-- 1990977511088&#45;&gt;1990971219056 -->
<g id="edge43" class="edge">
<title>1990977511088&#45;&gt;1990971219056</title>
<path fill="none" stroke="black" d="M1996.53,-252.58C2012.74,-238.12 2036.02,-217.35 2054.41,-200.94"/>
<polygon fill="black" stroke="black" points="2056.74,-203.56 2061.87,-194.29 2052.08,-198.34 2056.74,-203.56"/>
</g>
<!-- 1990977511088&#45;&gt;1990980642112 -->
<g id="edge45" class="edge">
<title>1990977511088&#45;&gt;1990980642112</title>
<path fill="none" stroke="black" d="M2003.33,-270.49C2010.69,-270.63 2019,-270.79 2027.39,-270.95"/>
<polygon fill="black" stroke="black" points="2027.25,-274.44 2037.31,-271.13 2027.38,-267.45 2027.25,-274.44"/>
</g>
<!-- 1990979094720&#45;&gt;1990971219056 -->
<g id="edge44" class="edge">
<title>1990979094720&#45;&gt;1990971219056</title>
<path fill="none" stroke="black" d="M2002.78,-192.43C2011.19,-190.62 2020.85,-188.53 2030.51,-186.44"/>
<polygon fill="black" stroke="black" points="2031.24,-189.87 2040.28,-184.33 2029.76,-183.02 2031.24,-189.87"/>
</g>
<!-- 1990980636976&#45;&gt;1990980638176 -->
<g id="edge47" class="edge">
<title>1990980636976&#45;&gt;1990980638176</title>
<path fill="none" stroke="black" d="M2219.31,-283.66C2227.14,-286.03 2236.06,-288.74 2245,-291.44"/>
<polygon fill="black" stroke="black" points="2243.79,-294.73 2254.38,-294.28 2245.82,-288.03 2243.79,-294.73"/>
</g>
</g>
</svg>
