<?xml version="1.0" encoding="UTF-8" standalone="no"?>
<!DOCTYPE svg PUBLIC "-//W3C//DTD SVG 1.1//EN"
 "http://www.w3.org/Graphics/SVG/1.1/DTD/svg11.dtd">
<!-- Generated by graphviz version 11.0.0 (20240428.1522)
 -->
<!-- Title: imdf_net_1754051610.26157 Pages: 1 -->
<svg width="3935pt" height="179pt"
 viewBox="0.00 0.00 3935.00 179.00" xmlns="http://www.w3.org/2000/svg" xmlns:xlink="http://www.w3.org/1999/xlink">
<g id="graph0" class="graph" transform="scale(1 1) rotate(0) translate(4 175)">
<title>imdf_net_1754051610.26157</title>
<polygon fill="white" stroke="none" points="-4,4 -4,-175 3931,-175 3931,4 -4,4"/>
<!-- 1990976232416 -->
<g id="node1" class="node">
<title>1990976232416</title>
<polygon fill="white" stroke="black" points="174.25,-144 90,-144 90,-108 174.25,-108 174.25,-144"/>
<text text-anchor="middle" x="132.12" y="-120.97" font-family="Times New Roman,serif" font-size="12.00">Milk Sourcing</text>
</g>
<!-- 1990980633952 -->
<g id="node24" class="node">
<title>1990980633952</title>
<ellipse fill="white" stroke="black" cx="237.25" cy="-126" rx="27" ry="27"/>
</g>
<!-- 1990976232416&#45;&gt;1990980633952 -->
<g id="edge2" class="edge">
<title>1990976232416&#45;&gt;1990980633952</title>
<path fill="none" stroke="black" d="M174.48,-126C182.44,-126 190.74,-126 198.58,-126"/>
<polygon fill="black" stroke="black" points="198.5,-129.5 208.5,-126 198.5,-122.5 198.5,-129.5"/>
</g>
<!-- 1990980638512 -->
<g id="node2" class="node">
<title>1990980638512</title>
<polygon fill="white" stroke="black" points="385.25,-144 300.25,-144 300.25,-108 385.25,-108 385.25,-144"/>
<text text-anchor="middle" x="342.75" y="-120.97" font-family="Times New Roman,serif" font-size="12.00">Quality Check</text>
</g>
<!-- 1990980636928 -->
<g id="node25" class="node">
<title>1990980636928</title>
<ellipse fill="white" stroke="black" cx="448.25" cy="-126" rx="27" ry="27"/>
</g>
<!-- 1990980638512&#45;&gt;1990980636928 -->
<g id="edge4" class="edge">
<title>1990980638512&#45;&gt;1990980636928</title>
<path fill="none" stroke="black" d="M385.55,-126C393.45,-126 401.67,-126 409.43,-126"/>
<polygon fill="black" stroke="black" points="409.26,-129.5 419.26,-126 409.26,-122.5 409.26,-129.5"/>
</g>
<!-- 1990980642928 -->
<g id="node3" class="node">
<title>1990980642928</title>
<polygon fill="white" stroke="black" points="600.75,-144 511.25,-144 511.25,-108 600.75,-108 600.75,-144"/>
<text text-anchor="middle" x="556" y="-120.97" font-family="Times New Roman,serif" font-size="12.00">Milk Pasteurize</text>
</g>
<!-- 1990980641104 -->
<g id="node26" class="node">
<title>1990980641104</title>
<ellipse fill="white" stroke="black" cx="663.75" cy="-126" rx="27" ry="27"/>
</g>
<!-- 1990980642928&#45;&gt;1990980641104 -->
<g id="edge6" class="edge">
<title>1990980642928&#45;&gt;1990980641104</title>
<path fill="none" stroke="black" d="M601.23,-126C609.2,-126 617.44,-126 625.2,-126"/>
<polygon fill="black" stroke="black" points="624.99,-129.5 634.99,-126 624.99,-122.5 624.99,-129.5"/>
</g>
<!-- 1990977851024 -->
<g id="node4" class="node">
<title>1990977851024</title>
<polygon fill="white" stroke="black" points="817,-144 726.75,-144 726.75,-108 817,-108 817,-144"/>
<text text-anchor="middle" x="771.88" y="-120.97" font-family="Times New Roman,serif" font-size="12.00">Culture Prepare</text>
</g>
<!-- 1990977855008 -->
<g id="node27" class="node">
<title>1990977855008</title>
<ellipse fill="white" stroke="black" cx="880" cy="-126" rx="27" ry="27"/>
</g>
<!-- 1990977851024&#45;&gt;1990977855008 -->
<g id="edge8" class="edge">
<title>1990977851024&#45;&gt;1990977855008</title>
<path fill="none" stroke="black" d="M817.27,-126C825.26,-126 833.53,-126 841.31,-126"/>
<polygon fill="black" stroke="black" points="841.14,-129.5 851.14,-126 841.14,-122.5 841.14,-129.5"/>
</g>
<!-- 1990977856352 -->
<g id="node5" class="node">
<title>1990977856352</title>
<polygon fill="white" stroke="black" points="1028,-144 943,-144 943,-108 1028,-108 1028,-144"/>
<text text-anchor="middle" x="985.5" y="-120.97" font-family="Times New Roman,serif" font-size="12.00">Milk Inoculate</text>
</g>
<!-- 1990977856544 -->
<g id="node28" class="node">
<title>1990977856544</title>
<ellipse fill="white" stroke="black" cx="1091" cy="-126" rx="27" ry="27"/>
</g>
<!-- 1990977856352&#45;&gt;1990977856544 -->
<g id="edge10" class="edge">
<title>1990977856352&#45;&gt;1990977856544</title>
<path fill="none" stroke="black" d="M1028.3,-126C1036.2,-126 1044.42,-126 1052.18,-126"/>
<polygon fill="black" stroke="black" points="1052.01,-129.5 1062.01,-126 1052.01,-122.5 1052.01,-129.5"/>
</g>
<!-- 1990977859664 -->
<g id="node6" class="node">
<title>1990977859664</title>
<polygon fill="white" stroke="black" points="1243.5,-144 1154,-144 1154,-108 1243.5,-108 1243.5,-144"/>
<text text-anchor="middle" x="1198.75" y="-120.97" font-family="Times New Roman,serif" font-size="12.00">Coagulate Milk</text>
</g>
<!-- 1990977862160 -->
<g id="node29" class="node">
<title>1990977862160</title>
<ellipse fill="white" stroke="black" cx="1306.5" cy="-126" rx="27" ry="27"/>
</g>
<!-- 1990977859664&#45;&gt;1990977862160 -->
<g id="edge12" class="edge">
<title>1990977859664&#45;&gt;1990977862160</title>
<path fill="none" stroke="black" d="M1243.98,-126C1251.95,-126 1260.19,-126 1267.95,-126"/>
<polygon fill="black" stroke="black" points="1267.74,-129.5 1277.74,-126 1267.74,-122.5 1267.74,-129.5"/>
</g>
<!-- 1990977847424 -->
<g id="node7" class="node">
<title>1990977847424</title>
<polygon fill="white" stroke="black" points="1429.75,-144 1369.5,-144 1369.5,-108 1429.75,-108 1429.75,-144"/>
<text text-anchor="middle" x="1399.62" y="-120.97" font-family="Times New Roman,serif" font-size="12.00">Curd Cut</text>
</g>
<!-- 1990977861488 -->
<g id="node30" class="node">
<title>1990977861488</title>
<ellipse fill="white" stroke="black" cx="1492.75" cy="-126" rx="27" ry="27"/>
</g>
<!-- 1990977847424&#45;&gt;1990977861488 -->
<g id="edge14" class="edge">
<title>1990977847424&#45;&gt;1990977861488</title>
<path fill="none" stroke="black" d="M1430.21,-126C1437.82,-126 1446.12,-126 1454.08,-126"/>
<polygon fill="black" stroke="black" points="1453.87,-129.5 1463.87,-126 1453.87,-122.5 1453.87,-129.5"/>
</g>
<!-- 1990977852368 -->
<g id="node8" class="node">
<title>1990977852368</title>
<polygon fill="white" stroke="black" points="1630.25,-144 1555.75,-144 1555.75,-108 1630.25,-108 1630.25,-144"/>
<text text-anchor="middle" x="1593" y="-120.97" font-family="Times New Roman,serif" font-size="12.00">Whey Drain</text>
</g>
<!-- 1990979858992 -->
<g id="node31" class="node">
<title>1990979858992</title>
<ellipse fill="white" stroke="black" cx="1693.25" cy="-126" rx="27" ry="27"/>
</g>
<!-- 1990977852368&#45;&gt;1990979858992 -->
<g id="edge16" class="edge">
<title>1990977852368&#45;&gt;1990979858992</title>
<path fill="none" stroke="black" d="M1630.58,-126C1638.34,-126 1646.54,-126 1654.34,-126"/>
<polygon fill="black" stroke="black" points="1654.25,-129.5 1664.25,-126 1654.25,-122.5 1654.25,-129.5"/>
</g>
<!-- 1990979853232 -->
<g id="node9" class="node">
<title>1990979853232</title>
<polygon fill="white" stroke="black" points="1816.5,-144 1756.25,-144 1756.25,-108 1816.5,-108 1816.5,-144"/>
<text text-anchor="middle" x="1786.38" y="-120.97" font-family="Times New Roman,serif" font-size="12.00">Mold Fill</text>
</g>
<!-- 1990979846848 -->
<g id="node32" class="node">
<title>1990979846848</title>
<ellipse fill="white" stroke="black" cx="1879.5" cy="-126" rx="27" ry="27"/>
</g>
<!-- 1990979853232&#45;&gt;1990979846848 -->
<g id="edge18" class="edge">
<title>1990979853232&#45;&gt;1990979846848</title>
<path fill="none" stroke="black" d="M1816.96,-126C1824.57,-126 1832.87,-126 1840.83,-126"/>
<polygon fill="black" stroke="black" points="1840.62,-129.5 1850.62,-126 1840.62,-122.5 1840.62,-129.5"/>
</g>
<!-- 1990979852944 -->
<g id="node10" class="node">
<title>1990979852944</title>
<polygon fill="white" stroke="black" points="2020.75,-144 1942.5,-144 1942.5,-108 2020.75,-108 2020.75,-144"/>
<text text-anchor="middle" x="1981.62" y="-120.97" font-family="Times New Roman,serif" font-size="12.00">Press Cheese</text>
</g>
<!-- 1990979857744 -->
<g id="node33" class="node">
<title>1990979857744</title>
<ellipse fill="white" stroke="black" cx="2083.75" cy="-126" rx="27" ry="27"/>
</g>
<!-- 1990979852944&#45;&gt;1990979857744 -->
<g id="edge20" class="edge">
<title>1990979852944&#45;&gt;1990979857744</title>
<path fill="none" stroke="black" d="M2021.05,-126C2028.89,-126 2037.13,-126 2044.94,-126"/>
<polygon fill="black" stroke="black" points="2044.86,-129.5 2054.86,-126 2044.86,-122.5 2044.86,-129.5"/>
</g>
<!-- 1990979850016 -->
<g id="node11" class="node">
<title>1990979850016</title>
<polygon fill="white" stroke="black" points="2204,-144 2146.75,-144 2146.75,-108 2204,-108 2204,-144"/>
<text text-anchor="middle" x="2175.38" y="-120.97" font-family="Times New Roman,serif" font-size="12.00">Salt Rub</text>
</g>
<!-- 1990980799184 -->
<g id="node34" class="node">
<title>1990980799184</title>
<ellipse fill="white" stroke="black" cx="2267" cy="-126" rx="27" ry="27"/>
</g>
<!-- 1990979850016&#45;&gt;1990980799184 -->
<g id="edge22" class="edge">
<title>1990979850016&#45;&gt;1990980799184</title>
<path fill="none" stroke="black" d="M2204.24,-126C2211.84,-126 2220.19,-126 2228.24,-126"/>
<polygon fill="black" stroke="black" points="2228.17,-129.5 2238.17,-126 2228.17,-122.5 2228.17,-129.5"/>
</g>
<!-- 1990980797888 -->
<g id="node12" class="node">
<title>1990980797888</title>
<polygon fill="black" stroke="black" points="2384,-117 2330,-117 2330,-81 2384,-81 2384,-117"/>
</g>
<!-- 1990980796880 -->
<g id="node35" class="node">
<title>1990980796880</title>
<ellipse fill="white" stroke="black" cx="2447" cy="-99" rx="27" ry="27"/>
</g>
<!-- 1990980797888&#45;&gt;1990980796880 -->
<g id="edge24" class="edge">
<title>1990980797888&#45;&gt;1990980796880</title>
<path fill="none" stroke="black" d="M2384.4,-99C2391.89,-99 2400.18,-99 2408.2,-99"/>
<polygon fill="black" stroke="black" points="2408.1,-102.5 2418.1,-99 2408.1,-95.5 2408.1,-102.5"/>
</g>
<!-- 1990971763424 -->
<g id="node36" class="node">
<title>1990971763424</title>
<ellipse fill="white" stroke="black" cx="2447" cy="-27" rx="27" ry="27"/>
</g>
<!-- 1990980797888&#45;&gt;1990971763424 -->
<g id="edge25" class="edge">
<title>1990980797888&#45;&gt;1990971763424</title>
<path fill="none" stroke="black" d="M2380.21,-80.83C2391.32,-71.74 2404.92,-60.61 2416.87,-50.84"/>
<polygon fill="black" stroke="black" points="2418.92,-53.68 2424.44,-44.64 2414.48,-48.26 2418.92,-53.68"/>
</g>
<!-- 1990971755792 -->
<g id="node13" class="node">
<title>1990971755792</title>
<polygon fill="white" stroke="black" points="2603.62,-117 2516.38,-117 2516.38,-81 2603.62,-81 2603.62,-117"/>
<text text-anchor="middle" x="2560" y="-93.97" font-family="Times New Roman,serif" font-size="12.00">Aging Monitor</text>
</g>
<!-- 1990981248944 -->
<g id="node37" class="node">
<title>1990981248944</title>
<ellipse fill="white" stroke="black" cx="2673" cy="-99" rx="27" ry="27"/>
</g>
<!-- 1990971755792&#45;&gt;1990981248944 -->
<g id="edge29" class="edge">
<title>1990971755792&#45;&gt;1990981248944</title>
<path fill="none" stroke="black" d="M2603.92,-99C2613.89,-99 2624.44,-99 2634.18,-99"/>
<polygon fill="black" stroke="black" points="2634.05,-102.5 2644.05,-99 2634.05,-95.5 2634.05,-102.5"/>
</g>
<!-- 1990971754448 -->
<g id="node14" class="node">
<title>1990971754448</title>
<polygon fill="white" stroke="black" points="2610,-45 2510,-45 2510,-9 2610,-9 2610,-45"/>
<text text-anchor="middle" x="2560" y="-21.98" font-family="Times New Roman,serif" font-size="12.00">Humidity Control</text>
</g>
<!-- 1990971757376 -->
<g id="node38" class="node">
<title>1990971757376</title>
<ellipse fill="white" stroke="black" cx="2673" cy="-27" rx="27" ry="27"/>
</g>
<!-- 1990971754448&#45;&gt;1990971757376 -->
<g id="edge28" class="edge">
<title>1990971754448&#45;&gt;1990971757376</title>
<path fill="none" stroke="black" d="M2610.33,-27C2618.41,-27 2626.66,-27 2634.39,-27"/>
<polygon fill="black" stroke="black" points="2634.12,-30.5 2644.12,-27 2634.12,-23.5 2634.12,-30.5"/>
</g>
<!-- 1990980797552 -->
<g id="node15" class="node">
<title>1990980797552</title>
<polygon fill="black" stroke="black" points="2790,-117 2736,-117 2736,-81 2790,-81 2790,-117"/>
</g>
<!-- 1990980796784 -->
<g id="node39" class="node">
<title>1990980796784</title>
<ellipse fill="white" stroke="black" cx="2853" cy="-99" rx="27" ry="27"/>
</g>
<!-- 1990980797552&#45;&gt;1990980796784 -->
<g id="edge32" class="edge">
<title>1990980797552&#45;&gt;1990980796784</title>
<path fill="none" stroke="black" d="M2790.4,-99C2797.89,-99 2806.18,-99 2814.2,-99"/>
<polygon fill="black" stroke="black" points="2814.1,-102.5 2824.1,-99 2814.1,-95.5 2814.1,-102.5"/>
</g>
<!-- 1990971344560 -->
<g id="node16" class="node">
<title>1990971344560</title>
<polygon fill="white" stroke="black" points="2986,-171 2916,-171 2916,-135 2986,-135 2986,-171"/>
<text text-anchor="middle" x="2951" y="-147.97" font-family="Times New Roman,serif" font-size="12.00">Flavor Test</text>
</g>
<!-- 1990971344560&#45;&gt;1990980799184 -->
<g id="edge35" class="edge">
<title>1990971344560&#45;&gt;1990980799184</title>
<path fill="none" stroke="black" d="M2915.72,-153.29C2878.4,-153.59 2816.96,-154 2764,-154 2446,-154 2446,-154 2446,-154 2396.46,-154 2340.1,-143.29 2304.31,-135.11"/>
<polygon fill="black" stroke="black" points="2305.46,-131.79 2294.92,-132.91 2303.86,-138.6 2305.46,-131.79"/>
</g>
<!-- 1990971354208 -->
<g id="node17" class="node">
<title>1990971354208</title>
<polygon fill="white" stroke="black" points="2983.75,-117 2918.25,-117 2918.25,-81 2983.75,-81 2983.75,-117"/>
<text text-anchor="middle" x="2951" y="-93.97" font-family="Times New Roman,serif" font-size="12.00">Packaging</text>
</g>
<!-- 1990971354256 -->
<g id="node40" class="node">
<title>1990971354256</title>
<ellipse fill="white" stroke="black" cx="3049" cy="-99" rx="27" ry="27"/>
</g>
<!-- 1990971354208&#45;&gt;1990971354256 -->
<g id="edge36" class="edge">
<title>1990971354208&#45;&gt;1990971354256</title>
<path fill="none" stroke="black" d="M2984.23,-99C2992.62,-99 3001.73,-99 3010.37,-99"/>
<polygon fill="black" stroke="black" points="3010.24,-102.5 3020.24,-99 3010.24,-95.5 3010.24,-102.5"/>
</g>
<!-- 1990981884704 -->
<g id="node18" class="node">
<title>1990981884704</title>
<polygon fill="white" stroke="black" points="3211.25,-117 3112,-117 3112,-81 3211.25,-81 3211.25,-117"/>
<text text-anchor="middle" x="3161.62" y="-93.97" font-family="Times New Roman,serif" font-size="12.00">Inventory Update</text>
</g>
<!-- 1990981890320 -->
<g id="node41" class="node">
<title>1990981890320</title>
<ellipse fill="white" stroke="black" cx="3274.25" cy="-99" rx="27" ry="27"/>
</g>
<!-- 1990981884704&#45;&gt;1990981890320 -->
<g id="edge38" class="edge">
<title>1990981884704&#45;&gt;1990981890320</title>
<path fill="none" stroke="black" d="M3211.47,-99C3219.54,-99 3227.8,-99 3235.54,-99"/>
<polygon fill="black" stroke="black" points="3235.3,-102.5 3245.3,-99 3235.3,-95.5 3235.3,-102.5"/>
</g>
<!-- 1990981885136 -->
<g id="node19" class="node">
<title>1990981885136</title>
<polygon fill="white" stroke="black" points="3412.5,-117 3337.25,-117 3337.25,-81 3412.5,-81 3412.5,-117"/>
<text text-anchor="middle" x="3374.88" y="-93.97" font-family="Times New Roman,serif" font-size="12.00">Order Fulfill</text>
</g>
<!-- 1990981842992 -->
<g id="node42" class="node">
<title>1990981842992</title>
<ellipse fill="white" stroke="black" cx="3475.5" cy="-99" rx="27" ry="27"/>
</g>
<!-- 1990981885136&#45;&gt;1990981842992 -->
<g id="edge40" class="edge">
<title>1990981885136&#45;&gt;1990981842992</title>
<path fill="none" stroke="black" d="M3412.88,-99C3420.65,-99 3428.85,-99 3436.65,-99"/>
<polygon fill="black" stroke="black" points="3436.55,-102.5 3446.55,-99 3436.55,-95.5 3436.55,-102.5"/>
</g>
<!-- 1990981831952 -->
<g id="node20" class="node">
<title>1990981831952</title>
<polygon fill="black" stroke="black" points="3620.75,-144 3566.75,-144 3566.75,-108 3620.75,-108 3620.75,-144"/>
</g>
<!-- 1990981843136 -->
<g id="node43" class="node">
<title>1990981843136</title>
<ellipse fill="white" stroke="black" cx="3712" cy="-99" rx="27" ry="27"/>
</g>
<!-- 1990981831952&#45;&gt;1990981843136 -->
<g id="edge44" class="edge">
<title>1990981831952&#45;&gt;1990981843136</title>
<path fill="none" stroke="black" d="M3621.13,-119.87C3636.96,-116.2 3657.31,-111.47 3674.65,-107.44"/>
<polygon fill="black" stroke="black" points="3675.1,-110.93 3684.05,-105.26 3673.52,-104.11 3675.1,-110.93"/>
</g>
<!-- 1990981837856 -->
<g id="node21" class="node">
<title>1990981837856</title>
<polygon fill="white" stroke="black" points="3649,-90 3538.5,-90 3538.5,-54 3649,-54 3649,-90"/>
<text text-anchor="middle" x="3593.75" y="-66.97" font-family="Times New Roman,serif" font-size="12.00">Customer Feedback</text>
</g>
<!-- 1990981837856&#45;&gt;1990981843136 -->
<g id="edge43" class="edge">
<title>1990981837856&#45;&gt;1990981843136</title>
<path fill="none" stroke="black" d="M3649.47,-84.71C3657.86,-86.66 3666.34,-88.63 3674.22,-90.46"/>
<polygon fill="black" stroke="black" points="3673.23,-93.82 3683.77,-92.67 3674.82,-87 3673.23,-93.82"/>
</g>
<!-- 1990981886480 -->
<g id="node22" class="node">
<title>1990981886480</title>
<polygon fill="black" stroke="black" points="3829,-117 3775,-117 3775,-81 3829,-81 3829,-117"/>
</g>
<!-- 1990977926880 -->
<g id="node44" class="node">
<title>1990977926880</title>
<ellipse fill="white" stroke="black" cx="3896" cy="-99" rx="27" ry="27"/>
<ellipse fill="none" stroke="black" cx="3896" cy="-99" rx="31" ry="31"/>
<text text-anchor="start" x="3879.5" y="-83.6" font-family="Times New Roman,serif" font-size="32.00">■</text>
</g>
<!-- 1990981886480&#45;&gt;1990977926880 -->
<g id="edge46" class="edge">
<title>1990981886480&#45;&gt;1990977926880</title>
<path fill="none" stroke="black" d="M3829.12,-99C3836.63,-99 3845.01,-99 3853.22,-99"/>
<polygon fill="black" stroke="black" points="3853.08,-102.5 3863.08,-99 3853.08,-95.5 3853.08,-102.5"/>
</g>
<!-- 1990977918768 -->
<g id="node23" class="node">
<title>1990977918768</title>
<ellipse fill="white" stroke="black" cx="27" cy="-126" rx="27" ry="27"/>
<text text-anchor="start" x="9.75" y="-108.7" font-family="Times New Roman,serif" font-size="34.00">●</text>
</g>
<!-- 1990977918768&#45;&gt;1990976232416 -->
<g id="edge1" class="edge">
<title>1990977918768&#45;&gt;1990976232416</title>
<path fill="none" stroke="black" d="M54.29,-126C61.67,-126 69.98,-126 78.32,-126"/>
<polygon fill="black" stroke="black" points="78.14,-129.5 88.14,-126 78.14,-122.5 78.14,-129.5"/>
</g>
<!-- 1990980633952&#45;&gt;1990980638512 -->
<g id="edge3" class="edge">
<title>1990980633952&#45;&gt;1990980638512</title>
<path fill="none" stroke="black" d="M264.64,-126C272.05,-126 280.38,-126 288.76,-126"/>
<polygon fill="black" stroke="black" points="288.61,-129.5 298.61,-126 288.61,-122.5 288.61,-129.5"/>
</g>
<!-- 1990980636928&#45;&gt;1990980642928 -->
<g id="edge5" class="edge">
<title>1990980636928&#45;&gt;1990980642928</title>
<path fill="none" stroke="black" d="M475.66,-126C482.98,-126 491.21,-126 499.53,-126"/>
<polygon fill="black" stroke="black" points="499.33,-129.5 509.33,-126 499.33,-122.5 499.33,-129.5"/>
</g>
<!-- 1990980641104&#45;&gt;1990977851024 -->
<g id="edge7" class="edge">
<title>1990980641104&#45;&gt;1990977851024</title>
<path fill="none" stroke="black" d="M690.98,-126C698.33,-126 706.6,-126 714.97,-126"/>
<polygon fill="black" stroke="black" points="714.84,-129.5 724.84,-126 714.84,-122.5 714.84,-129.5"/>
</g>
<!-- 1990977855008&#45;&gt;1990977856352 -->
<g id="edge9" class="edge">
<title>1990977855008&#45;&gt;1990977856352</title>
<path fill="none" stroke="black" d="M907.39,-126C914.8,-126 923.13,-126 931.51,-126"/>
<polygon fill="black" stroke="black" points="931.36,-129.5 941.36,-126 931.36,-122.5 931.36,-129.5"/>
</g>
<!-- 1990977856544&#45;&gt;1990977859664 -->
<g id="edge11" class="edge">
<title>1990977856544&#45;&gt;1990977859664</title>
<path fill="none" stroke="black" d="M1118.41,-126C1125.73,-126 1133.96,-126 1142.28,-126"/>
<polygon fill="black" stroke="black" points="1142.08,-129.5 1152.08,-126 1142.08,-122.5 1142.08,-129.5"/>
</g>
<!-- 1990977862160&#45;&gt;1990977847424 -->
<g id="edge13" class="edge">
<title>1990977862160&#45;&gt;1990977847424</title>
<path fill="none" stroke="black" d="M1333.86,-126C1341.36,-126 1349.71,-126 1357.86,-126"/>
<polygon fill="black" stroke="black" points="1357.61,-129.5 1367.61,-126 1357.61,-122.5 1357.61,-129.5"/>
</g>
<!-- 1990977861488&#45;&gt;1990977852368 -->
<g id="edge15" class="edge">
<title>1990977861488&#45;&gt;1990977852368</title>
<path fill="none" stroke="black" d="M1520.08,-126C1527.42,-126 1535.63,-126 1543.81,-126"/>
<polygon fill="black" stroke="black" points="1543.74,-129.5 1553.74,-126 1543.74,-122.5 1543.74,-129.5"/>
</g>
<!-- 1990979858992&#45;&gt;1990979853232 -->
<g id="edge17" class="edge">
<title>1990979858992&#45;&gt;1990979853232</title>
<path fill="none" stroke="black" d="M1720.61,-126C1728.11,-126 1736.46,-126 1744.61,-126"/>
<polygon fill="black" stroke="black" points="1744.36,-129.5 1754.36,-126 1744.36,-122.5 1744.36,-129.5"/>
</g>
<!-- 1990979846848&#45;&gt;1990979852944 -->
<g id="edge19" class="edge">
<title>1990979846848&#45;&gt;1990979852944</title>
<path fill="none" stroke="black" d="M1906.81,-126C1914.13,-126 1922.34,-126 1930.55,-126"/>
<polygon fill="black" stroke="black" points="1930.55,-129.5 1940.55,-126 1930.55,-122.5 1930.55,-129.5"/>
</g>
<!-- 1990979857744&#45;&gt;1990979850016 -->
<g id="edge21" class="edge">
<title>1990979857744&#45;&gt;1990979850016</title>
<path fill="none" stroke="black" d="M2111.16,-126C2118.58,-126 2126.82,-126 2134.83,-126"/>
<polygon fill="black" stroke="black" points="2134.77,-129.5 2144.77,-126 2134.77,-122.5 2134.77,-129.5"/>
</g>
<!-- 1990980799184&#45;&gt;1990980797888 -->
<g id="edge23" class="edge">
<title>1990980799184&#45;&gt;1990980797888</title>
<path fill="none" stroke="black" d="M2292.98,-118.34C2301.06,-115.86 2310.19,-113.06 2318.95,-110.37"/>
<polygon fill="black" stroke="black" points="2319.75,-113.78 2328.28,-107.5 2317.69,-107.09 2319.75,-113.78"/>
</g>
<!-- 1990980796880&#45;&gt;1990971755792 -->
<g id="edge27" class="edge">
<title>1990980796880&#45;&gt;1990971755792</title>
<path fill="none" stroke="black" d="M2474.31,-99C2483.44,-99 2494.05,-99 2504.6,-99"/>
<polygon fill="black" stroke="black" points="2504.45,-102.5 2514.45,-99 2504.45,-95.5 2504.45,-102.5"/>
</g>
<!-- 1990971763424&#45;&gt;1990971754448 -->
<g id="edge26" class="edge">
<title>1990971763424&#45;&gt;1990971754448</title>
<path fill="none" stroke="black" d="M2474.31,-27C2481.62,-27 2489.88,-27 2498.31,-27"/>
<polygon fill="black" stroke="black" points="2498.31,-30.5 2508.31,-27 2498.31,-23.5 2498.31,-30.5"/>
</g>
<!-- 1990981248944&#45;&gt;1990980797552 -->
<g id="edge30" class="edge">
<title>1990981248944&#45;&gt;1990980797552</title>
<path fill="none" stroke="black" d="M2700.4,-99C2707.89,-99 2716.18,-99 2724.2,-99"/>
<polygon fill="black" stroke="black" points="2724.1,-102.5 2734.1,-99 2724.1,-95.5 2724.1,-102.5"/>
</g>
<!-- 1990971757376&#45;&gt;1990980797552 -->
<g id="edge31" class="edge">
<title>1990971757376&#45;&gt;1990980797552</title>
<path fill="none" stroke="black" d="M2694.41,-43.7C2705.17,-52.5 2718.61,-63.5 2730.66,-73.36"/>
<polygon fill="black" stroke="black" points="2728.41,-76.04 2738.37,-79.66 2732.84,-70.62 2728.41,-76.04"/>
</g>
<!-- 1990980796784&#45;&gt;1990971344560 -->
<g id="edge34" class="edge">
<title>1990980796784&#45;&gt;1990971344560</title>
<path fill="none" stroke="black" d="M2876.75,-111.8C2885.91,-116.95 2896.79,-123.07 2907.31,-128.99"/>
<polygon fill="black" stroke="black" points="2905.49,-131.98 2915.92,-133.83 2908.92,-125.88 2905.49,-131.98"/>
</g>
<!-- 1990980796784&#45;&gt;1990971354208 -->
<g id="edge33" class="edge">
<title>1990980796784&#45;&gt;1990971354208</title>
<path fill="none" stroke="black" d="M2880.49,-99C2888.51,-99 2897.55,-99 2906.39,-99"/>
<polygon fill="black" stroke="black" points="2906.28,-102.5 2916.28,-99 2906.28,-95.5 2906.28,-102.5"/>
</g>
<!-- 1990971354256&#45;&gt;1990981884704 -->
<g id="edge37" class="edge">
<title>1990971354256&#45;&gt;1990981884704</title>
<path fill="none" stroke="black" d="M3076.5,-99C3083.79,-99 3092.02,-99 3100.39,-99"/>
<polygon fill="black" stroke="black" points="3100.32,-102.5 3110.32,-99 3100.32,-95.5 3100.32,-102.5"/>
</g>
<!-- 1990981890320&#45;&gt;1990981885136 -->
<g id="edge39" class="edge">
<title>1990981890320&#45;&gt;1990981885136</title>
<path fill="none" stroke="black" d="M3301.68,-99C3309.05,-99 3317.29,-99 3325.5,-99"/>
<polygon fill="black" stroke="black" points="3325.48,-102.5 3335.48,-99 3325.48,-95.5 3325.48,-102.5"/>
</g>
<!-- 1990981842992&#45;&gt;1990981831952 -->
<g id="edge41" class="edge">
<title>1990981842992&#45;&gt;1990981831952</title>
<path fill="none" stroke="black" d="M3502.3,-104.99C3517.99,-108.64 3538.3,-113.35 3555.69,-117.39"/>
<polygon fill="black" stroke="black" points="3554.61,-120.74 3565.15,-119.59 3556.2,-113.92 3554.61,-120.74"/>
</g>
<!-- 1990981842992&#45;&gt;1990981837856 -->
<g id="edge42" class="edge">
<title>1990981842992&#45;&gt;1990981837856</title>
<path fill="none" stroke="black" d="M3502.3,-93.01C3509.91,-91.24 3518.6,-89.22 3527.52,-87.15"/>
<polygon fill="black" stroke="black" points="3528.03,-90.62 3536.98,-84.95 3526.45,-83.81 3528.03,-90.62"/>
</g>
<!-- 1990981843136&#45;&gt;1990981886480 -->
<g id="edge45" class="edge">
<title>1990981843136&#45;&gt;1990981886480</title>
<path fill="none" stroke="black" d="M3739.4,-99C3746.89,-99 3755.18,-99 3763.2,-99"/>
<polygon fill="black" stroke="black" points="3763.1,-102.5 3773.1,-99 3763.1,-95.5 3763.1,-102.5"/>
</g>
</g>
</svg>
