<?xml version="1.0" encoding="UTF-8" standalone="no"?>
<!DOCTYPE svg PUBLIC "-//W3C//DTD SVG 1.1//EN"
 "http://www.w3.org/Graphics/SVG/1.1/DTD/svg11.dtd">
<!-- Generated by graphviz version 11.0.0 (20240428.1522)
 -->
<!-- Title: imdf_net_1754051615.6068306 Pages: 1 -->
<svg width="3336pt" height="70pt"
 viewBox="0.00 0.00 3336.25 70.00" xmlns="http://www.w3.org/2000/svg" xmlns:xlink="http://www.w3.org/1999/xlink">
<g id="graph0" class="graph" transform="scale(1 1) rotate(0) translate(4 66)">
<title>imdf_net_1754051615.6068306</title>
<polygon fill="white" stroke="none" points="-4,4 -4,-66 3332.25,-66 3332.25,4 -4,4"/>
<!-- 1990979158144 -->
<g id="node1" class="node">
<title>1990979158144</title>
<polygon fill="white" stroke="black" points="160.75,-49 90,-49 90,-13 160.75,-13 160.75,-49"/>
<text text-anchor="middle" x="125.38" y="-25.98" font-family="Times New Roman,serif" font-size="12.00">Site Survey</text>
</g>
<!-- 1990971855968 -->
<g id="node17" class="node">
<title>1990971855968</title>
<ellipse fill="white" stroke="black" cx="223.75" cy="-31" rx="27" ry="27"/>
</g>
<!-- 1990979158144&#45;&gt;1990971855968 -->
<g id="edge2" class="edge">
<title>1990979158144&#45;&gt;1990971855968</title>
<path fill="none" stroke="black" d="M161.17,-31C168.9,-31 177.14,-31 184.98,-31"/>
<polygon fill="black" stroke="black" points="184.97,-34.5 194.97,-31 184.97,-27.5 184.97,-34.5"/>
</g>
<!-- 1990971853808 -->
<g id="node2" class="node">
<title>1990971853808</title>
<polygon fill="white" stroke="black" points="380.75,-49 286.75,-49 286.75,-13 380.75,-13 380.75,-49"/>
<text text-anchor="middle" x="333.75" y="-25.98" font-family="Times New Roman,serif" font-size="12.00">Design Modules</text>
</g>
<!-- 1990971860816 -->
<g id="node18" class="node">
<title>1990971860816</title>
<ellipse fill="white" stroke="black" cx="443.75" cy="-31" rx="27" ry="27"/>
</g>
<!-- 1990971853808&#45;&gt;1990971860816 -->
<g id="edge4" class="edge">
<title>1990971853808&#45;&gt;1990971860816</title>
<path fill="none" stroke="black" d="M381.18,-31C389.06,-31 397.16,-31 404.78,-31"/>
<polygon fill="black" stroke="black" points="404.77,-34.5 414.77,-31 404.77,-27.5 404.77,-34.5"/>
</g>
<!-- 1990980646672 -->
<g id="node3" class="node">
<title>1990980646672</title>
<polygon fill="white" stroke="black" points="589.5,-49 506.75,-49 506.75,-13 589.5,-13 589.5,-49"/>
<text text-anchor="middle" x="548.12" y="-25.98" font-family="Times New Roman,serif" font-size="12.00">Climate Setup</text>
</g>
<!-- 1990971040560 -->
<g id="node19" class="node">
<title>1990971040560</title>
<ellipse fill="white" stroke="black" cx="652.5" cy="-31" rx="27" ry="27"/>
</g>
<!-- 1990980646672&#45;&gt;1990971040560 -->
<g id="edge6" class="edge">
<title>1990980646672&#45;&gt;1990971040560</title>
<path fill="none" stroke="black" d="M589.88,-31C597.73,-31 605.92,-31 613.67,-31"/>
<polygon fill="black" stroke="black" points="613.49,-34.5 623.49,-31 613.49,-27.5 613.49,-34.5"/>
</g>
<!-- 1990976974304 -->
<g id="node4" class="node">
<title>1990976974304</title>
<polygon fill="white" stroke="black" points="787,-49 715.5,-49 715.5,-13 787,-13 787,-49"/>
<text text-anchor="middle" x="751.25" y="-25.98" font-family="Times New Roman,serif" font-size="12.00">Crop Select</text>
</g>
<!-- 1990980253696 -->
<g id="node20" class="node">
<title>1990980253696</title>
<ellipse fill="white" stroke="black" cx="850" cy="-31" rx="27" ry="27"/>
</g>
<!-- 1990976974304&#45;&gt;1990980253696 -->
<g id="edge8" class="edge">
<title>1990976974304&#45;&gt;1990980253696</title>
<path fill="none" stroke="black" d="M787.45,-31C795.2,-31 803.44,-31 811.29,-31"/>
<polygon fill="black" stroke="black" points="811.26,-34.5 821.26,-31 811.26,-27.5 811.26,-34.5"/>
</g>
<!-- 1990980250192 -->
<g id="node5" class="node">
<title>1990980250192</title>
<polygon fill="white" stroke="black" points="1013.75,-49 913,-49 913,-13 1013.75,-13 1013.75,-49"/>
<text text-anchor="middle" x="963.38" y="-25.98" font-family="Times New Roman,serif" font-size="12.00">Nutrient Calibrate</text>
</g>
<!-- 1990980246736 -->
<g id="node21" class="node">
<title>1990980246736</title>
<ellipse fill="white" stroke="black" cx="1076.75" cy="-31" rx="27" ry="27"/>
</g>
<!-- 1990980250192&#45;&gt;1990980246736 -->
<g id="edge10" class="edge">
<title>1990980250192&#45;&gt;1990980246736</title>
<path fill="none" stroke="black" d="M1014.2,-31C1022.18,-31 1030.33,-31 1037.97,-31"/>
<polygon fill="black" stroke="black" points="1037.95,-34.5 1047.95,-31 1037.95,-27.5 1037.95,-34.5"/>
</g>
<!-- 1990980240880 -->
<g id="node6" class="node">
<title>1990980240880</title>
<polygon fill="white" stroke="black" points="1214.25,-49 1139.75,-49 1139.75,-13 1214.25,-13 1214.25,-49"/>
<text text-anchor="middle" x="1177" y="-25.98" font-family="Times New Roman,serif" font-size="12.00">Pest Control</text>
</g>
<!-- 1990980253936 -->
<g id="node22" class="node">
<title>1990980253936</title>
<ellipse fill="white" stroke="black" cx="1277.25" cy="-31" rx="27" ry="27"/>
</g>
<!-- 1990980240880&#45;&gt;1990980253936 -->
<g id="edge12" class="edge">
<title>1990980240880&#45;&gt;1990980253936</title>
<path fill="none" stroke="black" d="M1214.58,-31C1222.34,-31 1230.54,-31 1238.34,-31"/>
<polygon fill="black" stroke="black" points="1238.25,-34.5 1248.25,-31 1238.25,-27.5 1238.25,-34.5"/>
</g>
<!-- 1990980239824 -->
<g id="node7" class="node">
<title>1990980239824</title>
<polygon fill="white" stroke="black" points="1422.25,-49 1340.25,-49 1340.25,-13 1422.25,-13 1422.25,-49"/>
<text text-anchor="middle" x="1381.25" y="-25.98" font-family="Times New Roman,serif" font-size="12.00">Staff Training</text>
</g>
<!-- 1990980250864 -->
<g id="node23" class="node">
<title>1990980250864</title>
<ellipse fill="white" stroke="black" cx="1485.25" cy="-31" rx="27" ry="27"/>
</g>
<!-- 1990980239824&#45;&gt;1990980250864 -->
<g id="edge14" class="edge">
<title>1990980239824&#45;&gt;1990980250864</title>
<path fill="none" stroke="black" d="M1422.56,-31C1430.48,-31 1438.75,-31 1446.57,-31"/>
<polygon fill="black" stroke="black" points="1446.48,-34.5 1456.48,-31 1446.48,-27.5 1446.48,-34.5"/>
</g>
<!-- 1990979580656 -->
<g id="node8" class="node">
<title>1990979580656</title>
<polygon fill="white" stroke="black" points="1634.75,-49 1548.25,-49 1548.25,-13 1634.75,-13 1634.75,-49"/>
<text text-anchor="middle" x="1591.5" y="-25.98" font-family="Times New Roman,serif" font-size="12.00">Sensor Deploy</text>
</g>
<!-- 1990979574128 -->
<g id="node24" class="node">
<title>1990979574128</title>
<ellipse fill="white" stroke="black" cx="1697.75" cy="-31" rx="27" ry="27"/>
</g>
<!-- 1990979580656&#45;&gt;1990979574128 -->
<g id="edge16" class="edge">
<title>1990979580656&#45;&gt;1990979574128</title>
<path fill="none" stroke="black" d="M1635.2,-31C1643.12,-31 1651.34,-31 1659.09,-31"/>
<polygon fill="black" stroke="black" points="1658.89,-34.5 1668.89,-31 1658.89,-27.5 1658.89,-34.5"/>
</g>
<!-- 1990980510176 -->
<g id="node9" class="node">
<title>1990980510176</title>
<polygon fill="white" stroke="black" points="1854.75,-49 1760.75,-49 1760.75,-13 1854.75,-13 1854.75,-49"/>
<text text-anchor="middle" x="1807.75" y="-25.98" font-family="Times New Roman,serif" font-size="12.00">Growth Monitor</text>
</g>
<!-- 1990980502784 -->
<g id="node25" class="node">
<title>1990980502784</title>
<ellipse fill="white" stroke="black" cx="1917.75" cy="-31" rx="27" ry="27"/>
</g>
<!-- 1990980510176&#45;&gt;1990980502784 -->
<g id="edge18" class="edge">
<title>1990980510176&#45;&gt;1990980502784</title>
<path fill="none" stroke="black" d="M1855.18,-31C1863.06,-31 1871.16,-31 1878.78,-31"/>
<polygon fill="black" stroke="black" points="1878.77,-34.5 1888.77,-31 1878.77,-27.5 1878.77,-34.5"/>
</g>
<!-- 1990981245632 -->
<g id="node10" class="node">
<title>1990981245632</title>
<polygon fill="white" stroke="black" points="2060.5,-49 1980.75,-49 1980.75,-13 2060.5,-13 2060.5,-49"/>
<text text-anchor="middle" x="2020.62" y="-25.98" font-family="Times New Roman,serif" font-size="12.00">Supply Align</text>
</g>
<!-- 1990977729648 -->
<g id="node26" class="node">
<title>1990977729648</title>
<ellipse fill="white" stroke="black" cx="2123.5" cy="-31" rx="27" ry="27"/>
</g>
<!-- 1990981245632&#45;&gt;1990977729648 -->
<g id="edge20" class="edge">
<title>1990981245632&#45;&gt;1990977729648</title>
<path fill="none" stroke="black" d="M2060.91,-31C2068.78,-31 2077.02,-31 2084.82,-31"/>
<polygon fill="black" stroke="black" points="2084.72,-34.5 2094.72,-31 2084.72,-27.5 2084.72,-34.5"/>
</g>
<!-- 1990971757136 -->
<g id="node11" class="node">
<title>1990971757136</title>
<polygon fill="white" stroke="black" points="2300,-49 2186.5,-49 2186.5,-13 2300,-13 2300,-49"/>
<text text-anchor="middle" x="2243.25" y="-25.98" font-family="Times New Roman,serif" font-size="12.00">Sustainability Check</text>
</g>
<!-- 1990971756608 -->
<g id="node27" class="node">
<title>1990971756608</title>
<ellipse fill="white" stroke="black" cx="2363" cy="-31" rx="27" ry="27"/>
</g>
<!-- 1990971757136&#45;&gt;1990971756608 -->
<g id="edge22" class="edge">
<title>1990971757136&#45;&gt;1990971756608</title>
<path fill="none" stroke="black" d="M2300.37,-31C2308.45,-31 2316.61,-31 2324.22,-31"/>
<polygon fill="black" stroke="black" points="2324.13,-34.5 2334.13,-31 2324.13,-27.5 2324.13,-34.5"/>
</g>
<!-- 1990971344512 -->
<g id="node12" class="node">
<title>1990971344512</title>
<polygon fill="white" stroke="black" points="2544.75,-49 2426,-49 2426,-13 2544.75,-13 2544.75,-49"/>
<text text-anchor="middle" x="2485.38" y="-25.98" font-family="Times New Roman,serif" font-size="12.00">Community Outreach</text>
</g>
<!-- 1990976892144 -->
<g id="node28" class="node">
<title>1990976892144</title>
<ellipse fill="white" stroke="black" cx="2607.75" cy="-31" rx="27" ry="27"/>
</g>
<!-- 1990971344512&#45;&gt;1990976892144 -->
<g id="edge24" class="edge">
<title>1990971344512&#45;&gt;1990976892144</title>
<path fill="none" stroke="black" d="M2545.15,-31C2553.3,-31 2561.48,-31 2569.1,-31"/>
<polygon fill="black" stroke="black" points="2569.01,-34.5 2579.01,-31 2569.01,-27.5 2569.01,-34.5"/>
</g>
<!-- 1990979722064 -->
<g id="node13" class="node">
<title>1990979722064</title>
<polygon fill="white" stroke="black" points="2773.75,-49 2670.75,-49 2670.75,-13 2773.75,-13 2773.75,-49"/>
<text text-anchor="middle" x="2722.25" y="-25.98" font-family="Times New Roman,serif" font-size="12.00">Compliance Audit</text>
</g>
<!-- 1990981889168 -->
<g id="node29" class="node">
<title>1990981889168</title>
<ellipse fill="white" stroke="black" cx="2836.75" cy="-31" rx="27" ry="27"/>
</g>
<!-- 1990979722064&#45;&gt;1990981889168 -->
<g id="edge26" class="edge">
<title>1990979722064&#45;&gt;1990981889168</title>
<path fill="none" stroke="black" d="M2774.23,-31C2782.25,-31 2790.4,-31 2798.04,-31"/>
<polygon fill="black" stroke="black" points="2798.02,-34.5 2808.02,-31 2798.02,-27.5 2798.02,-34.5"/>
</g>
<!-- 1990981842272 -->
<g id="node14" class="node">
<title>1990981842272</title>
<polygon fill="white" stroke="black" points="2988.5,-49 2899.75,-49 2899.75,-13 2988.5,-13 2988.5,-49"/>
<text text-anchor="middle" x="2944.12" y="-25.98" font-family="Times New Roman,serif" font-size="12.00">Yield Optimize</text>
</g>
<!-- 1990976651728 -->
<g id="node30" class="node">
<title>1990976651728</title>
<ellipse fill="white" stroke="black" cx="3051.5" cy="-31" rx="27" ry="27"/>
</g>
<!-- 1990981842272&#45;&gt;1990976651728 -->
<g id="edge28" class="edge">
<title>1990981842272&#45;&gt;1990976651728</title>
<path fill="none" stroke="black" d="M2988.9,-31C2996.86,-31 3005.1,-31 3012.86,-31"/>
<polygon fill="black" stroke="black" points="3012.67,-34.5 3022.67,-31 3012.67,-27.5 3012.67,-34.5"/>
</g>
<!-- 1990976658976 -->
<g id="node15" class="node">
<title>1990976658976</title>
<polygon fill="white" stroke="black" points="3230.25,-49 3114.5,-49 3114.5,-13 3230.25,-13 3230.25,-49"/>
<text text-anchor="middle" x="3172.38" y="-25.98" font-family="Times New Roman,serif" font-size="12.00">Performance Review</text>
</g>
<!-- 1990979095968 -->
<g id="node31" class="node">
<title>1990979095968</title>
<ellipse fill="white" stroke="black" cx="3297.25" cy="-31" rx="27" ry="27"/>
<ellipse fill="none" stroke="black" cx="3297.25" cy="-31" rx="31" ry="31"/>
<text text-anchor="start" x="3280.75" y="-15.6" font-family="Times New Roman,serif" font-size="32.00">■</text>
</g>
<!-- 1990976658976&#45;&gt;1990979095968 -->
<g id="edge30" class="edge">
<title>1990976658976&#45;&gt;1990979095968</title>
<path fill="none" stroke="black" d="M3230.5,-31C3238.65,-31 3246.91,-31 3254.69,-31"/>
<polygon fill="black" stroke="black" points="3254.55,-34.5 3264.55,-31 3254.55,-27.5 3254.55,-34.5"/>
</g>
<!-- 1990979104032 -->
<g id="node16" class="node">
<title>1990979104032</title>
<ellipse fill="white" stroke="black" cx="27" cy="-31" rx="27" ry="27"/>
<text text-anchor="start" x="9.75" y="-13.7" font-family="Times New Roman,serif" font-size="34.00">●</text>
</g>
<!-- 1990979104032&#45;&gt;1990979158144 -->
<g id="edge1" class="edge">
<title>1990979104032&#45;&gt;1990979158144</title>
<path fill="none" stroke="black" d="M54.33,-31C61.76,-31 70.06,-31 78.28,-31"/>
<polygon fill="black" stroke="black" points="78.24,-34.5 88.24,-31 78.24,-27.5 78.24,-34.5"/>
</g>
<!-- 1990971855968&#45;&gt;1990971853808 -->
<g id="edge3" class="edge">
<title>1990971855968&#45;&gt;1990971853808</title>
<path fill="none" stroke="black" d="M251.17,-31C258.47,-31 266.69,-31 275.02,-31"/>
<polygon fill="black" stroke="black" points="274.88,-34.5 284.88,-31 274.88,-27.5 274.88,-34.5"/>
</g>
<!-- 1990971860816&#45;&gt;1990980646672 -->
<g id="edge5" class="edge">
<title>1990971860816&#45;&gt;1990980646672</title>
<path fill="none" stroke="black" d="M471.11,-31C478.53,-31 486.86,-31 495.21,-31"/>
<polygon fill="black" stroke="black" points="495.02,-34.5 505.02,-31 495.02,-27.5 495.02,-34.5"/>
</g>
<!-- 1990971040560&#45;&gt;1990976974304 -->
<g id="edge7" class="edge">
<title>1990971040560&#45;&gt;1990976974304</title>
<path fill="none" stroke="black" d="M679.94,-31C687.31,-31 695.56,-31 703.73,-31"/>
<polygon fill="black" stroke="black" points="703.62,-34.5 713.62,-31 703.62,-27.5 703.62,-34.5"/>
</g>
<!-- 1990980253696&#45;&gt;1990980250192 -->
<g id="edge9" class="edge">
<title>1990980253696&#45;&gt;1990980250192</title>
<path fill="none" stroke="black" d="M877.39,-31C884.65,-31 892.83,-31 901.17,-31"/>
<polygon fill="black" stroke="black" points="901.07,-34.5 911.07,-31 901.07,-27.5 901.07,-34.5"/>
</g>
<!-- 1990980246736&#45;&gt;1990980240880 -->
<g id="edge11" class="edge">
<title>1990980246736&#45;&gt;1990980240880</title>
<path fill="none" stroke="black" d="M1104.08,-31C1111.42,-31 1119.63,-31 1127.81,-31"/>
<polygon fill="black" stroke="black" points="1127.74,-34.5 1137.74,-31 1127.74,-27.5 1127.74,-34.5"/>
</g>
<!-- 1990980253936&#45;&gt;1990980239824 -->
<g id="edge13" class="edge">
<title>1990980253936&#45;&gt;1990980239824</title>
<path fill="none" stroke="black" d="M1304.52,-31C1311.9,-31 1320.2,-31 1328.53,-31"/>
<polygon fill="black" stroke="black" points="1328.3,-34.5 1338.3,-31 1328.3,-27.5 1328.3,-34.5"/>
</g>
<!-- 1990980250864&#45;&gt;1990979580656 -->
<g id="edge15" class="edge">
<title>1990980250864&#45;&gt;1990979580656</title>
<path fill="none" stroke="black" d="M1512.56,-31C1519.94,-31 1528.24,-31 1536.61,-31"/>
<polygon fill="black" stroke="black" points="1536.46,-34.5 1546.46,-31 1536.46,-27.5 1536.46,-34.5"/>
</g>
<!-- 1990979574128&#45;&gt;1990980510176 -->
<g id="edge17" class="edge">
<title>1990979574128&#45;&gt;1990980510176</title>
<path fill="none" stroke="black" d="M1725.17,-31C1732.47,-31 1740.69,-31 1749.02,-31"/>
<polygon fill="black" stroke="black" points="1748.88,-34.5 1758.88,-31 1748.88,-27.5 1748.88,-34.5"/>
</g>
<!-- 1990980502784&#45;&gt;1990981245632 -->
<g id="edge19" class="edge">
<title>1990980502784&#45;&gt;1990981245632</title>
<path fill="none" stroke="black" d="M1944.99,-31C1952.46,-31 1960.85,-31 1969.24,-31"/>
<polygon fill="black" stroke="black" points="1969.08,-34.5 1979.08,-31 1969.08,-27.5 1969.08,-34.5"/>
</g>
<!-- 1990977729648&#45;&gt;1990971757136 -->
<g id="edge21" class="edge">
<title>1990977729648&#45;&gt;1990971757136</title>
<path fill="none" stroke="black" d="M2150.93,-31C2158.1,-31 2166.22,-31 2174.58,-31"/>
<polygon fill="black" stroke="black" points="2174.54,-34.5 2184.54,-31 2174.54,-27.5 2174.54,-34.5"/>
</g>
<!-- 1990971756608&#45;&gt;1990971344512 -->
<g id="edge23" class="edge">
<title>1990971756608&#45;&gt;1990971344512</title>
<path fill="none" stroke="black" d="M2390.42,-31C2397.73,-31 2406.03,-31 2414.59,-31"/>
<polygon fill="black" stroke="black" points="2414.43,-34.5 2424.43,-31 2414.43,-27.5 2414.43,-34.5"/>
</g>
<!-- 1990976892144&#45;&gt;1990979722064 -->
<g id="edge25" class="edge">
<title>1990976892144&#45;&gt;1990979722064</title>
<path fill="none" stroke="black" d="M2635.13,-31C2642.36,-31 2650.52,-31 2658.86,-31"/>
<polygon fill="black" stroke="black" points="2658.77,-34.5 2668.77,-31 2658.77,-27.5 2658.77,-34.5"/>
</g>
<!-- 1990981889168&#45;&gt;1990981842272 -->
<g id="edge27" class="edge">
<title>1990981889168&#45;&gt;1990981842272</title>
<path fill="none" stroke="black" d="M2864.07,-31C2871.44,-31 2879.75,-31 2888.13,-31"/>
<polygon fill="black" stroke="black" points="2888.02,-34.5 2898.02,-31 2888.02,-27.5 2888.02,-34.5"/>
</g>
<!-- 1990976651728&#45;&gt;1990976658976 -->
<g id="edge29" class="edge">
<title>1990976651728&#45;&gt;1990976658976</title>
<path fill="none" stroke="black" d="M3078.88,-31C3086.21,-31 3094.51,-31 3103.07,-31"/>
<polygon fill="black" stroke="black" points="3102.89,-34.5 3112.89,-31 3102.89,-27.5 3102.89,-34.5"/>
</g>
</g>
</svg>
