<?xml version="1.0" encoding="UTF-8" standalone="no"?>
<!DOCTYPE svg PUBLIC "-//W3C//DTD SVG 1.1//EN"
 "http://www.w3.org/Graphics/SVG/1.1/DTD/svg11.dtd">
<!-- Generated by graphviz version 11.0.0 (20240428.1522)
 -->
<!-- Title: imdf_net_1754051666.214742 Pages: 1 -->
<svg width="3652pt" height="115pt"
 viewBox="0.00 0.00 3651.75 115.00" xmlns="http://www.w3.org/2000/svg" xmlns:xlink="http://www.w3.org/1999/xlink">
<g id="graph0" class="graph" transform="scale(1 1) rotate(0) translate(4 111)">
<title>imdf_net_1754051666.214742</title>
<polygon fill="white" stroke="none" points="-4,4 -4,-111 3647.75,-111 3647.75,4 -4,4"/>
<!-- 1990976167216 -->
<g id="node1" class="node">
<title>1990976167216</title>
<polygon fill="white" stroke="black" points="175.75,-91 90,-91 90,-55 175.75,-55 175.75,-91"/>
<text text-anchor="middle" x="132.88" y="-67.97" font-family="Times New Roman,serif" font-size="12.00">Req Gathering</text>
</g>
<!-- 1990976167456 -->
<g id="node20" class="node">
<title>1990976167456</title>
<ellipse fill="white" stroke="black" cx="238.75" cy="-73" rx="27" ry="27"/>
</g>
<!-- 1990976167216&#45;&gt;1990976167456 -->
<g id="edge2" class="edge">
<title>1990976167216&#45;&gt;1990976167456</title>
<path fill="none" stroke="black" d="M176.12,-73C184.03,-73 192.25,-73 200.01,-73"/>
<polygon fill="black" stroke="black" points="199.82,-76.5 209.82,-73 199.82,-69.5 199.82,-76.5"/>
</g>
<!-- 1990971226976 -->
<g id="node2" class="node">
<title>1990971226976</title>
<polygon fill="white" stroke="black" points="383.75,-60 301.75,-60 301.75,-24 383.75,-24 383.75,-60"/>
<text text-anchor="middle" x="342.75" y="-36.98" font-family="Times New Roman,serif" font-size="12.00">Design Adapt</text>
</g>
<!-- 1990971213344 -->
<g id="node21" class="node">
<title>1990971213344</title>
<ellipse fill="white" stroke="black" cx="446.75" cy="-34" rx="27" ry="27"/>
</g>
<!-- 1990971226976&#45;&gt;1990971213344 -->
<g id="edge4" class="edge">
<title>1990971226976&#45;&gt;1990971213344</title>
<path fill="none" stroke="black" d="M384.06,-38.84C391.98,-38.22 400.25,-37.57 408.07,-36.96"/>
<polygon fill="black" stroke="black" points="408.29,-40.45 417.99,-36.18 407.74,-33.47 408.29,-40.45"/>
</g>
<!-- 1990971227504 -->
<g id="node3" class="node">
<title>1990971227504</title>
<polygon fill="white" stroke="black" points="603.75,-48 509.75,-48 509.75,-12 603.75,-12 603.75,-48"/>
<text text-anchor="middle" x="556.75" y="-24.98" font-family="Times New Roman,serif" font-size="12.00">Supplier Vetting</text>
</g>
<!-- 1990976049696 -->
<g id="node22" class="node">
<title>1990976049696</title>
<ellipse fill="white" stroke="black" cx="666.75" cy="-28" rx="27" ry="27"/>
</g>
<!-- 1990971227504&#45;&gt;1990976049696 -->
<g id="edge6" class="edge">
<title>1990971227504&#45;&gt;1990976049696</title>
<path fill="none" stroke="black" d="M604.18,-29.14C612.06,-28.99 620.16,-28.84 627.78,-28.7"/>
<polygon fill="black" stroke="black" points="627.84,-32.2 637.77,-28.52 627.71,-25.2 627.84,-32.2"/>
</g>
<!-- 1990976059920 -->
<g id="node4" class="node">
<title>1990976059920</title>
<polygon fill="white" stroke="black" points="832,-45 729.75,-45 729.75,-9 832,-9 832,-45"/>
<text text-anchor="middle" x="780.88" y="-21.98" font-family="Times New Roman,serif" font-size="12.00">Component Order</text>
</g>
<!-- 1990976057280 -->
<g id="node23" class="node">
<title>1990976057280</title>
<ellipse fill="white" stroke="black" cx="895" cy="-27" rx="27" ry="27"/>
</g>
<!-- 1990976059920&#45;&gt;1990976057280 -->
<g id="edge8" class="edge">
<title>1990976059920&#45;&gt;1990976057280</title>
<path fill="none" stroke="black" d="M832.36,-27C840.47,-27 848.73,-27 856.46,-27"/>
<polygon fill="black" stroke="black" points="856.19,-30.5 866.19,-27 856.19,-23.5 856.19,-30.5"/>
</g>
<!-- 1990976057424 -->
<g id="node5" class="node">
<title>1990976057424</title>
<polygon fill="white" stroke="black" points="1043,-45 958,-45 958,-9 1043,-9 1043,-45"/>
<text text-anchor="middle" x="1000.5" y="-21.98" font-family="Times New Roman,serif" font-size="12.00">Quality Check</text>
</g>
<!-- 1990976058432 -->
<g id="node24" class="node">
<title>1990976058432</title>
<ellipse fill="white" stroke="black" cx="1106" cy="-27" rx="27" ry="27"/>
</g>
<!-- 1990976057424&#45;&gt;1990976058432 -->
<g id="edge10" class="edge">
<title>1990976057424&#45;&gt;1990976058432</title>
<path fill="none" stroke="black" d="M1043.3,-27C1051.2,-27 1059.42,-27 1067.18,-27"/>
<polygon fill="black" stroke="black" points="1067.01,-30.5 1077.01,-27 1067.01,-23.5 1067.01,-30.5"/>
</g>
<!-- 1990976055648 -->
<g id="node6" class="node">
<title>1990976055648</title>
<polygon fill="white" stroke="black" points="1258.5,-45 1169,-45 1169,-9 1258.5,-9 1258.5,-45"/>
<text text-anchor="middle" x="1213.75" y="-21.98" font-family="Times New Roman,serif" font-size="12.00">Firmware Load</text>
</g>
<!-- 1990976058000 -->
<g id="node25" class="node">
<title>1990976058000</title>
<ellipse fill="white" stroke="black" cx="1321.5" cy="-27" rx="27" ry="27"/>
</g>
<!-- 1990976055648&#45;&gt;1990976058000 -->
<g id="edge12" class="edge">
<title>1990976055648&#45;&gt;1990976058000</title>
<path fill="none" stroke="black" d="M1258.98,-27C1266.95,-27 1275.19,-27 1282.95,-27"/>
<polygon fill="black" stroke="black" points="1282.74,-30.5 1292.74,-27 1282.74,-23.5 1282.74,-30.5"/>
</g>
<!-- 1990976055312 -->
<g id="node7" class="node">
<title>1990976055312</title>
<polygon fill="white" stroke="black" points="1448.5,-45 1384.5,-45 1384.5,-9 1448.5,-9 1448.5,-45"/>
<text text-anchor="middle" x="1416.5" y="-21.98" font-family="Times New Roman,serif" font-size="12.00">Sensor Fit</text>
</g>
<!-- 1990982055648 -->
<g id="node26" class="node">
<title>1990982055648</title>
<ellipse fill="white" stroke="black" cx="1511.5" cy="-27" rx="27" ry="27"/>
</g>
<!-- 1990976055312&#45;&gt;1990982055648 -->
<g id="edge14" class="edge">
<title>1990976055312&#45;&gt;1990982055648</title>
<path fill="none" stroke="black" d="M1448.99,-27C1456.54,-27 1464.7,-27 1472.51,-27"/>
<polygon fill="black" stroke="black" points="1472.49,-30.5 1482.49,-27 1472.49,-23.5 1472.49,-30.5"/>
</g>
<!-- 1990981662864 -->
<g id="node8" class="node">
<title>1990981662864</title>
<polygon fill="white" stroke="black" points="1651.25,-49 1574.5,-49 1574.5,-13 1651.25,-13 1651.25,-49"/>
<text text-anchor="middle" x="1612.88" y="-25.98" font-family="Times New Roman,serif" font-size="12.00">Motor Install</text>
</g>
<!-- 1990981657824 -->
<g id="node27" class="node">
<title>1990981657824</title>
<ellipse fill="white" stroke="black" cx="1714.25" cy="-33" rx="27" ry="27"/>
</g>
<!-- 1990981662864&#45;&gt;1990981657824 -->
<g id="edge16" class="edge">
<title>1990981662864&#45;&gt;1990981657824</title>
<path fill="none" stroke="black" d="M1651.73,-31.76C1659.52,-31.92 1667.73,-32.08 1675.52,-32.24"/>
<polygon fill="black" stroke="black" points="1675.33,-35.74 1685.4,-32.44 1675.48,-28.74 1675.33,-35.74"/>
</g>
<!-- 1990981080688 -->
<g id="node9" class="node">
<title>1990981080688</title>
<polygon fill="white" stroke="black" points="1862.25,-52 1777.25,-52 1777.25,-16 1862.25,-16 1862.25,-52"/>
<text text-anchor="middle" x="1819.75" y="-28.98" font-family="Times New Roman,serif" font-size="12.00">Battery Mount</text>
</g>
<!-- 1990981076560 -->
<g id="node28" class="node">
<title>1990981076560</title>
<ellipse fill="white" stroke="black" cx="1925.25" cy="-34" rx="27" ry="27"/>
</g>
<!-- 1990981080688&#45;&gt;1990981076560 -->
<g id="edge18" class="edge">
<title>1990981080688&#45;&gt;1990981076560</title>
<path fill="none" stroke="black" d="M1862.55,-34C1870.45,-34 1878.67,-34 1886.43,-34"/>
<polygon fill="black" stroke="black" points="1886.26,-37.5 1896.26,-34 1886.26,-30.5 1886.26,-37.5"/>
</g>
<!-- 1990981080832 -->
<g id="node10" class="node">
<title>1990981080832</title>
<polygon fill="white" stroke="black" points="2074.75,-53 1988.25,-53 1988.25,-17 2074.75,-17 2074.75,-53"/>
<text text-anchor="middle" x="2031.5" y="-29.98" font-family="Times New Roman,serif" font-size="12.00">Assembly Test</text>
</g>
<!-- 1990981088704 -->
<g id="node29" class="node">
<title>1990981088704</title>
<ellipse fill="white" stroke="black" cx="2137.75" cy="-35" rx="27" ry="27"/>
</g>
<!-- 1990981080832&#45;&gt;1990981088704 -->
<g id="edge20" class="edge">
<title>1990981080832&#45;&gt;1990981088704</title>
<path fill="none" stroke="black" d="M2075.2,-35C2083.12,-35 2091.34,-35 2099.09,-35"/>
<polygon fill="black" stroke="black" points="2098.89,-38.5 2108.89,-35 2098.89,-31.5 2098.89,-38.5"/>
</g>
<!-- 1990981084288 -->
<g id="node11" class="node">
<title>1990981084288</title>
<polygon fill="white" stroke="black" points="2270,-53 2200.75,-53 2200.75,-17 2270,-17 2270,-53"/>
<text text-anchor="middle" x="2235.38" y="-29.98" font-family="Times New Roman,serif" font-size="12.00">Flight Trial</text>
</g>
<!-- 1990981087744 -->
<g id="node30" class="node">
<title>1990981087744</title>
<ellipse fill="white" stroke="black" cx="2333" cy="-35" rx="27" ry="27"/>
</g>
<!-- 1990981084288&#45;&gt;1990981087744 -->
<g id="edge22" class="edge">
<title>1990981084288&#45;&gt;1990981087744</title>
<path fill="none" stroke="black" d="M2270.36,-35C2278.06,-35 2286.28,-35 2294.13,-35"/>
<polygon fill="black" stroke="black" points="2294.13,-38.5 2304.13,-35 2294.13,-31.5 2294.13,-38.5"/>
</g>
<!-- 1990981083808 -->
<g id="node12" class="node">
<title>1990981083808</title>
<polygon fill="white" stroke="black" points="2478,-53 2396,-53 2396,-17 2478,-17 2478,-53"/>
<text text-anchor="middle" x="2437" y="-29.98" font-family="Times New Roman,serif" font-size="12.00">Nav Calibrate</text>
</g>
<!-- 1990981080016 -->
<g id="node31" class="node">
<title>1990981080016</title>
<ellipse fill="white" stroke="black" cx="2541" cy="-35" rx="27" ry="27"/>
</g>
<!-- 1990981083808&#45;&gt;1990981080016 -->
<g id="edge24" class="edge">
<title>1990981083808&#45;&gt;1990981080016</title>
<path fill="none" stroke="black" d="M2478.31,-35C2486.23,-35 2494.5,-35 2502.32,-35"/>
<polygon fill="black" stroke="black" points="2502.23,-38.5 2512.23,-35 2502.23,-31.5 2502.23,-38.5"/>
</g>
<!-- 1990981078816 -->
<g id="node13" class="node">
<title>1990981078816</title>
<polygon fill="white" stroke="black" points="2689.75,-53 2604,-53 2604,-17 2689.75,-17 2689.75,-53"/>
<text text-anchor="middle" x="2646.88" y="-29.98" font-family="Times New Roman,serif" font-size="12.00">Software Sync</text>
</g>
<!-- 1990976167168 -->
<g id="node32" class="node">
<title>1990976167168</title>
<ellipse fill="white" stroke="black" cx="2752.75" cy="-35" rx="27" ry="27"/>
</g>
<!-- 1990981078816&#45;&gt;1990976167168 -->
<g id="edge26" class="edge">
<title>1990981078816&#45;&gt;1990976167168</title>
<path fill="none" stroke="black" d="M2690.12,-35C2698.03,-35 2706.25,-35 2714.01,-35"/>
<polygon fill="black" stroke="black" points="2713.82,-38.5 2723.82,-35 2713.82,-31.5 2713.82,-38.5"/>
</g>
<!-- 1990978237264 -->
<g id="node14" class="node">
<title>1990978237264</title>
<polygon fill="white" stroke="black" points="2894.38,-53 2819.12,-53 2819.12,-17 2894.38,-17 2894.38,-53"/>
<text text-anchor="middle" x="2856.75" y="-29.98" font-family="Times New Roman,serif" font-size="12.00">Doc Prepare</text>
</g>
<!-- 1990978231456 -->
<g id="node33" class="node">
<title>1990978231456</title>
<ellipse fill="white" stroke="black" cx="2960.75" cy="-35" rx="27" ry="27"/>
</g>
<!-- 1990978237264&#45;&gt;1990978231456 -->
<g id="edge30" class="edge">
<title>1990978237264&#45;&gt;1990978231456</title>
<path fill="none" stroke="black" d="M2894.86,-35C2903.73,-35 2913.21,-35 2922.11,-35"/>
<polygon fill="black" stroke="black" points="2921.85,-38.5 2931.85,-35 2921.85,-31.5 2921.85,-38.5"/>
</g>
<!-- 1990978237360 -->
<g id="node15" class="node">
<title>1990978237360</title>
<polygon fill="white" stroke="black" points="2897.75,-107 2815.75,-107 2815.75,-71 2897.75,-71 2897.75,-107"/>
<text text-anchor="middle" x="2856.75" y="-83.97" font-family="Times New Roman,serif" font-size="12.00">Design Adapt</text>
</g>
<!-- 1990978237360&#45;&gt;1990976167456 -->
<g id="edge29" class="edge">
<title>1990978237360&#45;&gt;1990976167456</title>
<path fill="none" stroke="black" d="M2815.51,-89.31C2773.64,-89.6 2706.16,-90 2647.88,-90 445.75,-90 445.75,-90 445.75,-90 386.63,-90 318.3,-82.96 277.08,-77.94"/>
<polygon fill="black" stroke="black" points="277.57,-74.47 267.21,-76.71 276.7,-81.42 277.57,-74.47"/>
</g>
<!-- 1990978240144 -->
<g id="node16" class="node">
<title>1990978240144</title>
<polygon fill="white" stroke="black" points="3108,-53 3023.75,-53 3023.75,-17 3108,-17 3108,-53"/>
<text text-anchor="middle" x="3065.88" y="-29.98" font-family="Times New Roman,serif" font-size="12.00">Client Review</text>
</g>
<!-- 1990978232752 -->
<g id="node34" class="node">
<title>1990978232752</title>
<ellipse fill="white" stroke="black" cx="3171" cy="-35" rx="27" ry="27"/>
</g>
<!-- 1990978240144&#45;&gt;1990978232752 -->
<g id="edge32" class="edge">
<title>1990978240144&#45;&gt;1990978232752</title>
<path fill="none" stroke="black" d="M3108.23,-35C3116.19,-35 3124.49,-35 3132.33,-35"/>
<polygon fill="black" stroke="black" points="3132.25,-38.5 3142.25,-35 3132.25,-31.5 3132.25,-38.5"/>
</g>
<!-- 1990978226848 -->
<g id="node17" class="node">
<title>1990978226848</title>
<polygon fill="white" stroke="black" points="3316.75,-53 3234,-53 3234,-17 3316.75,-17 3316.75,-53"/>
<text text-anchor="middle" x="3275.38" y="-29.98" font-family="Times New Roman,serif" font-size="12.00">Final Package</text>
</g>
<!-- 1990978235632 -->
<g id="node35" class="node">
<title>1990978235632</title>
<ellipse fill="white" stroke="black" cx="3379.75" cy="-35" rx="27" ry="27"/>
</g>
<!-- 1990978226848&#45;&gt;1990978235632 -->
<g id="edge34" class="edge">
<title>1990978226848&#45;&gt;1990978235632</title>
<path fill="none" stroke="black" d="M3317.13,-35C3324.98,-35 3333.17,-35 3340.92,-35"/>
<polygon fill="black" stroke="black" points="3340.74,-38.5 3350.74,-35 3340.74,-31.5 3340.74,-38.5"/>
</g>
<!-- 1990978238128 -->
<g id="node18" class="node">
<title>1990978238128</title>
<polygon fill="white" stroke="black" points="3545.75,-53 3442.75,-53 3442.75,-17 3545.75,-17 3545.75,-53"/>
<text text-anchor="middle" x="3494.25" y="-29.98" font-family="Times New Roman,serif" font-size="12.00">Compliance Audit</text>
</g>
<!-- 1990976162320 -->
<g id="node36" class="node">
<title>1990976162320</title>
<ellipse fill="white" stroke="black" cx="3612.75" cy="-35" rx="27" ry="27"/>
<ellipse fill="none" stroke="black" cx="3612.75" cy="-35" rx="31" ry="31"/>
<text text-anchor="start" x="3596.25" y="-19.6" font-family="Times New Roman,serif" font-size="32.00">■</text>
</g>
<!-- 1990978238128&#45;&gt;1990976162320 -->
<g id="edge36" class="edge">
<title>1990978238128&#45;&gt;1990976162320</title>
<path fill="none" stroke="black" d="M3546.01,-35C3553.99,-35 3562.16,-35 3569.91,-35"/>
<polygon fill="black" stroke="black" points="3569.76,-38.5 3579.76,-35 3569.76,-31.5 3569.76,-38.5"/>
</g>
<!-- 1990976164672 -->
<g id="node19" class="node">
<title>1990976164672</title>
<ellipse fill="white" stroke="black" cx="27" cy="-73" rx="27" ry="27"/>
<text text-anchor="start" x="9.75" y="-55.7" font-family="Times New Roman,serif" font-size="34.00">●</text>
</g>
<!-- 1990976164672&#45;&gt;1990976167216 -->
<g id="edge1" class="edge">
<title>1990976164672&#45;&gt;1990976167216</title>
<path fill="none" stroke="black" d="M54.48,-73C61.84,-73 70.1,-73 78.41,-73"/>
<polygon fill="black" stroke="black" points="78.19,-76.5 88.19,-73 78.19,-69.5 78.19,-76.5"/>
</g>
<!-- 1990976167456&#45;&gt;1990971226976 -->
<g id="edge3" class="edge">
<title>1990976167456&#45;&gt;1990971226976</title>
<path fill="none" stroke="black" d="M264.96,-65.34C272.76,-62.97 281.66,-60.26 290.56,-57.56"/>
<polygon fill="black" stroke="black" points="291.35,-60.98 299.9,-54.72 289.31,-54.28 291.35,-60.98"/>
</g>
<!-- 1990971213344&#45;&gt;1990971227504 -->
<g id="edge5" class="edge">
<title>1990971213344&#45;&gt;1990971227504</title>
<path fill="none" stroke="black" d="M474.17,-33.02C481.47,-32.75 489.69,-32.45 498.02,-32.14"/>
<polygon fill="black" stroke="black" points="498.01,-35.64 507.88,-31.77 497.75,-28.65 498.01,-35.64"/>
</g>
<!-- 1990976049696&#45;&gt;1990976059920 -->
<g id="edge7" class="edge">
<title>1990976049696&#45;&gt;1990976059920</title>
<path fill="none" stroke="black" d="M694.04,-27.77C701.42,-27.7 709.77,-27.63 718.29,-27.55"/>
<polygon fill="black" stroke="black" points="718.05,-31.05 728.02,-27.46 717.98,-24.05 718.05,-31.05"/>
</g>
<!-- 1990976057280&#45;&gt;1990976057424 -->
<g id="edge9" class="edge">
<title>1990976057280&#45;&gt;1990976057424</title>
<path fill="none" stroke="black" d="M922.39,-27C929.8,-27 938.13,-27 946.51,-27"/>
<polygon fill="black" stroke="black" points="946.36,-30.5 956.36,-27 946.36,-23.5 946.36,-30.5"/>
</g>
<!-- 1990976058432&#45;&gt;1990976055648 -->
<g id="edge11" class="edge">
<title>1990976058432&#45;&gt;1990976055648</title>
<path fill="none" stroke="black" d="M1133.41,-27C1140.73,-27 1148.96,-27 1157.28,-27"/>
<polygon fill="black" stroke="black" points="1157.08,-30.5 1167.08,-27 1157.08,-23.5 1157.08,-30.5"/>
</g>
<!-- 1990976058000&#45;&gt;1990976055312 -->
<g id="edge13" class="edge">
<title>1990976058000&#45;&gt;1990976055312</title>
<path fill="none" stroke="black" d="M1348.9,-27C1356.35,-27 1364.64,-27 1372.79,-27"/>
<polygon fill="black" stroke="black" points="1372.57,-30.5 1382.57,-27 1372.57,-23.5 1372.57,-30.5"/>
</g>
<!-- 1990982055648&#45;&gt;1990981662864 -->
<g id="edge15" class="edge">
<title>1990982055648&#45;&gt;1990981662864</title>
<path fill="none" stroke="black" d="M1538.87,-28.06C1546.22,-28.36 1554.44,-28.69 1562.65,-29.02"/>
<polygon fill="black" stroke="black" points="1562.51,-32.52 1572.64,-29.42 1562.79,-25.52 1562.51,-32.52"/>
</g>
<!-- 1990981657824&#45;&gt;1990981080688 -->
<g id="edge17" class="edge">
<title>1990981657824&#45;&gt;1990981080688</title>
<path fill="none" stroke="black" d="M1741.64,-33.25C1749.05,-33.33 1757.38,-33.41 1765.76,-33.49"/>
<polygon fill="black" stroke="black" points="1765.58,-36.99 1775.61,-33.58 1765.65,-29.99 1765.58,-36.99"/>
</g>
<!-- 1990981076560&#45;&gt;1990981080832 -->
<g id="edge19" class="edge">
<title>1990981076560&#45;&gt;1990981080832</title>
<path fill="none" stroke="black" d="M1952.56,-34.25C1959.94,-34.32 1968.24,-34.4 1976.61,-34.48"/>
<polygon fill="black" stroke="black" points="1976.43,-37.98 1986.46,-34.58 1976.5,-30.98 1976.43,-37.98"/>
</g>
<!-- 1990981088704&#45;&gt;1990981084288 -->
<g id="edge21" class="edge">
<title>1990981088704&#45;&gt;1990981084288</title>
<path fill="none" stroke="black" d="M2165.13,-35C2172.57,-35 2180.89,-35 2189.1,-35"/>
<polygon fill="black" stroke="black" points="2189.03,-38.5 2199.03,-35 2189.03,-31.5 2189.03,-38.5"/>
</g>
<!-- 1990981087744&#45;&gt;1990981083808 -->
<g id="edge23" class="edge">
<title>1990981087744&#45;&gt;1990981083808</title>
<path fill="none" stroke="black" d="M2360.27,-35C2367.65,-35 2375.95,-35 2384.28,-35"/>
<polygon fill="black" stroke="black" points="2384.05,-38.5 2394.05,-35 2384.05,-31.5 2384.05,-38.5"/>
</g>
<!-- 1990981080016&#45;&gt;1990981078816 -->
<g id="edge25" class="edge">
<title>1990981080016&#45;&gt;1990981078816</title>
<path fill="none" stroke="black" d="M2568.48,-35C2575.84,-35 2584.1,-35 2592.41,-35"/>
<polygon fill="black" stroke="black" points="2592.19,-38.5 2602.19,-35 2592.19,-31.5 2592.19,-38.5"/>
</g>
<!-- 1990976167168&#45;&gt;1990978237264 -->
<g id="edge27" class="edge">
<title>1990976167168&#45;&gt;1990978237264</title>
<path fill="none" stroke="black" d="M2780.02,-35C2788.41,-35 2797.98,-35 2807.43,-35"/>
<polygon fill="black" stroke="black" points="2807.29,-38.5 2817.29,-35 2807.29,-31.5 2807.29,-38.5"/>
</g>
<!-- 1990976167168&#45;&gt;1990978237360 -->
<g id="edge28" class="edge">
<title>1990976167168&#45;&gt;1990978237360</title>
<path fill="none" stroke="black" d="M2777.15,-47.39C2787.16,-52.69 2799.2,-59.06 2810.81,-65.21"/>
<polygon fill="black" stroke="black" points="2809.03,-68.23 2819.5,-69.81 2812.3,-62.04 2809.03,-68.23"/>
</g>
<!-- 1990978231456&#45;&gt;1990978240144 -->
<g id="edge31" class="edge">
<title>1990978231456&#45;&gt;1990978240144</title>
<path fill="none" stroke="black" d="M2988.04,-35C2995.42,-35 3003.73,-35 3012.07,-35"/>
<polygon fill="black" stroke="black" points="3011.89,-38.5 3021.89,-35 3011.89,-31.5 3011.89,-38.5"/>
</g>
<!-- 1990978232752&#45;&gt;1990978226848 -->
<g id="edge33" class="edge">
<title>1990978232752&#45;&gt;1990978226848</title>
<path fill="none" stroke="black" d="M3198.36,-35C3205.78,-35 3214.11,-35 3222.46,-35"/>
<polygon fill="black" stroke="black" points="3222.27,-38.5 3232.27,-35 3222.27,-31.5 3222.27,-38.5"/>
</g>
<!-- 1990978235632&#45;&gt;1990978238128 -->
<g id="edge35" class="edge">
<title>1990978235632&#45;&gt;1990978238128</title>
<path fill="none" stroke="black" d="M3407.13,-35C3414.36,-35 3422.52,-35 3430.86,-35"/>
<polygon fill="black" stroke="black" points="3430.77,-38.5 3440.77,-35 3430.77,-31.5 3430.77,-38.5"/>
</g>
</g>
</svg>
