<?xml version="1.0" encoding="UTF-8" standalone="no"?>
<!DOCTYPE svg PUBLIC "-//W3C//DTD SVG 1.1//EN"
 "http://www.w3.org/Graphics/SVG/1.1/DTD/svg11.dtd">
<!-- Generated by graphviz version 11.0.0 (20240428.1522)
 -->
<!-- Title: imdf_net_1754051663.3916306 Pages: 1 -->
<svg width="3069pt" height="170pt"
 viewBox="0.00 0.00 3068.75 170.00" xmlns="http://www.w3.org/2000/svg" xmlns:xlink="http://www.w3.org/1999/xlink">
<g id="graph0" class="graph" transform="scale(1 1) rotate(0) translate(4 166)">
<title>imdf_net_1754051663.3916306</title>
<polygon fill="white" stroke="none" points="-4,4 -4,-166 3064.75,-166 3064.75,4 -4,4"/>
<!-- 1990975905312 -->
<g id="node1" class="node">
<title>1990975905312</title>
<polygon fill="white" stroke="black" points="160.75,-117 90,-117 90,-81 160.75,-81 160.75,-117"/>
<text text-anchor="middle" x="125.38" y="-93.97" font-family="Times New Roman,serif" font-size="12.00">Site Survey</text>
</g>
<!-- 1990975913424 -->
<g id="node22" class="node">
<title>1990975913424</title>
<ellipse fill="white" stroke="black" cx="223.75" cy="-99" rx="27" ry="27"/>
</g>
<!-- 1990975905312&#45;&gt;1990975913424 -->
<g id="edge2" class="edge">
<title>1990975905312&#45;&gt;1990975913424</title>
<path fill="none" stroke="black" d="M161.17,-99C168.9,-99 177.14,-99 184.98,-99"/>
<polygon fill="black" stroke="black" points="184.97,-102.5 194.97,-99 184.97,-95.5 184.97,-102.5"/>
</g>
<!-- 1990975898304 -->
<g id="node2" class="node">
<title>1990975898304</title>
<polygon fill="white" stroke="black" points="374.75,-117 286.75,-117 286.75,-81 374.75,-81 374.75,-117"/>
<text text-anchor="middle" x="330.75" y="-93.97" font-family="Times New Roman,serif" font-size="12.00">Permit Request</text>
</g>
<!-- 1990975912176 -->
<g id="node23" class="node">
<title>1990975912176</title>
<ellipse fill="white" stroke="black" cx="437.75" cy="-99" rx="27" ry="27"/>
</g>
<!-- 1990975898304&#45;&gt;1990975912176 -->
<g id="edge4" class="edge">
<title>1990975898304&#45;&gt;1990975912176</title>
<path fill="none" stroke="black" d="M375.06,-99C383.02,-99 391.26,-99 399.03,-99"/>
<polygon fill="black" stroke="black" points="398.85,-102.5 408.85,-99 398.85,-95.5 398.85,-102.5"/>
</g>
<!-- 1990975910592 -->
<g id="node3" class="node">
<title>1990975910592</title>
<polygon fill="white" stroke="black" points="595.5,-117 500.75,-117 500.75,-81 595.5,-81 595.5,-117"/>
<text text-anchor="middle" x="548.12" y="-93.97" font-family="Times New Roman,serif" font-size="12.00">Permit Approval</text>
</g>
<!-- 1990975905072 -->
<g id="node24" class="node">
<title>1990975905072</title>
<ellipse fill="white" stroke="black" cx="658.5" cy="-135" rx="27" ry="27"/>
</g>
<!-- 1990975910592&#45;&gt;1990975905072 -->
<g id="edge7" class="edge">
<title>1990975910592&#45;&gt;1990975905072</title>
<path fill="none" stroke="black" d="M595.71,-114.48C604.39,-117.36 613.33,-120.33 621.63,-123.08"/>
<polygon fill="black" stroke="black" points="620.42,-126.37 631.01,-126.2 622.63,-119.73 620.42,-126.37"/>
</g>
<!-- 1990971216176 -->
<g id="node25" class="node">
<title>1990971216176</title>
<ellipse fill="white" stroke="black" cx="658.5" cy="-63" rx="27" ry="27"/>
</g>
<!-- 1990975910592&#45;&gt;1990971216176 -->
<g id="edge6" class="edge">
<title>1990975910592&#45;&gt;1990971216176</title>
<path fill="none" stroke="black" d="M595.71,-83.52C604.39,-80.64 613.33,-77.67 621.63,-74.92"/>
<polygon fill="black" stroke="black" points="622.63,-78.27 631.01,-71.8 620.42,-71.63 622.63,-78.27"/>
</g>
<!-- 1990975902240 -->
<g id="node4" class="node">
<title>1990975902240</title>
<polygon fill="white" stroke="black" points="811,-153 721.5,-153 721.5,-117 811,-117 811,-153"/>
<text text-anchor="middle" x="766.25" y="-129.97" font-family="Times New Roman,serif" font-size="12.00">Hive Assembly</text>
</g>
<!-- 1990975911600 -->
<g id="node27" class="node">
<title>1990975911600</title>
<ellipse fill="white" stroke="black" cx="874" cy="-135" rx="27" ry="27"/>
</g>
<!-- 1990975902240&#45;&gt;1990975911600 -->
<g id="edge11" class="edge">
<title>1990975902240&#45;&gt;1990975911600</title>
<path fill="none" stroke="black" d="M811.48,-135C819.45,-135 827.69,-135 835.45,-135"/>
<polygon fill="black" stroke="black" points="835.24,-138.5 845.24,-135 835.24,-131.5 835.24,-138.5"/>
</g>
<!-- 1990971225584 -->
<g id="node5" class="node">
<title>1990971225584</title>
<polygon fill="white" stroke="black" points="810.62,-81 721.88,-81 721.88,-45 810.62,-45 810.62,-81"/>
<text text-anchor="middle" x="766.25" y="-57.98" font-family="Times New Roman,serif" font-size="12.00">Local Sourcing</text>
</g>
<!-- 1990971225728 -->
<g id="node26" class="node">
<title>1990971225728</title>
<ellipse fill="white" stroke="black" cx="874" cy="-63" rx="27" ry="27"/>
</g>
<!-- 1990971225584&#45;&gt;1990971225728 -->
<g id="edge10" class="edge">
<title>1990971225584&#45;&gt;1990971225728</title>
<path fill="none" stroke="black" d="M810.87,-63C818.96,-63 827.34,-63 835.23,-63"/>
<polygon fill="black" stroke="black" points="835.22,-66.5 845.22,-63 835.22,-59.5 835.22,-66.5"/>
</g>
<!-- 1990975911552 -->
<g id="node6" class="node">
<title>1990975911552</title>
<polygon fill="white" stroke="black" points="1038.5,-153 937,-153 937,-117 1038.5,-117 1038.5,-153"/>
<text text-anchor="middle" x="987.75" y="-129.97" font-family="Times New Roman,serif" font-size="12.00">Equipment Check</text>
</g>
<!-- 1990975913280 -->
<g id="node29" class="node">
<title>1990975913280</title>
<ellipse fill="white" stroke="black" cx="1101.5" cy="-135" rx="27" ry="27"/>
</g>
<!-- 1990975911552&#45;&gt;1990975913280 -->
<g id="edge15" class="edge">
<title>1990975911552&#45;&gt;1990975913280</title>
<path fill="none" stroke="black" d="M1038.74,-135C1046.85,-135 1055.12,-135 1062.86,-135"/>
<polygon fill="black" stroke="black" points="1062.61,-138.5 1072.61,-135 1062.61,-131.5 1062.61,-138.5"/>
</g>
<!-- 1990981088512 -->
<g id="node7" class="node">
<title>1990981088512</title>
<polygon fill="white" stroke="black" points="1031,-81 944.5,-81 944.5,-45 1031,-45 1031,-81"/>
<text text-anchor="middle" x="987.75" y="-57.98" font-family="Times New Roman,serif" font-size="12.00">Plant Selection</text>
</g>
<!-- 1990981087504 -->
<g id="node28" class="node">
<title>1990981087504</title>
<ellipse fill="white" stroke="black" cx="1101.5" cy="-63" rx="27" ry="27"/>
</g>
<!-- 1990981088512&#45;&gt;1990981087504 -->
<g id="edge14" class="edge">
<title>1990981088512&#45;&gt;1990981087504</title>
<path fill="none" stroke="black" d="M1031.32,-63C1041.69,-63 1052.71,-63 1062.84,-63"/>
<polygon fill="black" stroke="black" points="1062.71,-66.5 1072.71,-63 1062.71,-59.5 1062.71,-66.5"/>
</g>
<!-- 1990981089040 -->
<g id="node8" class="node">
<title>1990981089040</title>
<polygon fill="white" stroke="black" points="1263.75,-90 1164.5,-90 1164.5,-54 1263.75,-54 1263.75,-90"/>
<text text-anchor="middle" x="1214.12" y="-66.97" font-family="Times New Roman,serif" font-size="12.00">Community Meet</text>
</g>
<!-- 1990981082128 -->
<g id="node30" class="node">
<title>1990981082128</title>
<ellipse fill="white" stroke="black" cx="1326.75" cy="-63" rx="27" ry="27"/>
</g>
<!-- 1990981089040&#45;&gt;1990981082128 -->
<g id="edge20" class="edge">
<title>1990981089040&#45;&gt;1990981082128</title>
<path fill="none" stroke="black" d="M1263.97,-68.03C1272.12,-67.36 1280.46,-66.68 1288.26,-66.05"/>
<polygon fill="black" stroke="black" points="1288.42,-69.55 1298.1,-65.25 1287.85,-62.57 1288.42,-69.55"/>
</g>
<!-- 1990971220160 -->
<g id="node9" class="node">
<title>1990971220160</title>
<polygon fill="white" stroke="black" points="1245.75,-153 1182.5,-153 1182.5,-117 1245.75,-117 1245.75,-153"/>
<text text-anchor="middle" x="1214.12" y="-129.97" font-family="Times New Roman,serif" font-size="12.00">IoT Setup</text>
</g>
<!-- 1990971225008 -->
<g id="node31" class="node">
<title>1990971225008</title>
<ellipse fill="white" stroke="black" cx="1326.75" cy="-135" rx="27" ry="27"/>
</g>
<!-- 1990971220160&#45;&gt;1990971225008 -->
<g id="edge19" class="edge">
<title>1990971220160&#45;&gt;1990971225008</title>
<path fill="none" stroke="black" d="M1246.23,-135C1259.18,-135 1274.34,-135 1287.93,-135"/>
<polygon fill="black" stroke="black" points="1287.85,-138.5 1297.85,-135 1287.85,-131.5 1287.85,-138.5"/>
</g>
<!-- 1990981081696 -->
<g id="node10" class="node">
<title>1990981081696</title>
<polygon fill="black" stroke="black" points="1241.12,-36 1187.12,-36 1187.12,0 1241.12,0 1241.12,-36"/>
</g>
<!-- 1990981081696&#45;&gt;1990981082128 -->
<g id="edge21" class="edge">
<title>1990981081696&#45;&gt;1990981082128</title>
<path fill="none" stroke="black" d="M1241.62,-28.78C1256.37,-34.78 1274.91,-42.32 1290.84,-48.8"/>
<polygon fill="black" stroke="black" points="1289.38,-51.98 1299.96,-52.51 1292.01,-45.5 1289.38,-51.98"/>
</g>
<!-- 1990971929328 -->
<g id="node11" class="node">
<title>1990971929328</title>
<polygon fill="white" stroke="black" points="1480.75,-117 1389.75,-117 1389.75,-81 1480.75,-81 1480.75,-117"/>
<text text-anchor="middle" x="1435.25" y="-93.97" font-family="Times New Roman,serif" font-size="12.00">Hive Placement</text>
</g>
<!-- 1990977556640 -->
<g id="node32" class="node">
<title>1990977556640</title>
<ellipse fill="white" stroke="black" cx="1543.75" cy="-99" rx="27" ry="27"/>
</g>
<!-- 1990971929328&#45;&gt;1990977556640 -->
<g id="edge24" class="edge">
<title>1990971929328&#45;&gt;1990977556640</title>
<path fill="none" stroke="black" d="M1481.11,-99C1489.11,-99 1497.37,-99 1505.15,-99"/>
<polygon fill="black" stroke="black" points="1504.96,-102.5 1514.96,-99 1504.96,-95.5 1504.96,-102.5"/>
</g>
<!-- 1990978229344 -->
<g id="node12" class="node">
<title>1990978229344</title>
<polygon fill="white" stroke="black" points="1695.5,-90 1606.75,-90 1606.75,-54 1695.5,-54 1695.5,-90"/>
<text text-anchor="middle" x="1651.12" y="-66.97" font-family="Times New Roman,serif" font-size="12.00">Health Monitor</text>
</g>
<!-- 1990978227232 -->
<g id="node33" class="node">
<title>1990978227232</title>
<ellipse fill="white" stroke="black" cx="1758.5" cy="-71" rx="27" ry="27"/>
</g>
<!-- 1990978229344&#45;&gt;1990978227232 -->
<g id="edge26" class="edge">
<title>1990978229344&#45;&gt;1990978227232</title>
<path fill="none" stroke="black" d="M1695.9,-71.58C1703.86,-71.51 1712.1,-71.43 1719.86,-71.36"/>
<polygon fill="black" stroke="black" points="1719.7,-74.86 1729.67,-71.26 1719.64,-67.86 1719.7,-74.86"/>
</g>
<!-- 1990975908528 -->
<g id="node13" class="node">
<title>1990975908528</title>
<polygon fill="white" stroke="black" points="1916.25,-89 1821.5,-89 1821.5,-53 1916.25,-53 1916.25,-89"/>
<text text-anchor="middle" x="1868.88" y="-65.97" font-family="Times New Roman,serif" font-size="12.00">Seasonal Extract</text>
</g>
<!-- 1990975901424 -->
<g id="node34" class="node">
<title>1990975901424</title>
<ellipse fill="white" stroke="black" cx="1979.25" cy="-71" rx="27" ry="27"/>
</g>
<!-- 1990975908528&#45;&gt;1990975901424 -->
<g id="edge30" class="edge">
<title>1990975908528&#45;&gt;1990975901424</title>
<path fill="none" stroke="black" d="M1916.46,-71C1924.54,-71 1932.85,-71 1940.65,-71"/>
<polygon fill="black" stroke="black" points="1940.48,-74.5 1950.48,-71 1940.48,-67.5 1940.48,-74.5"/>
</g>
<!-- 1990977088752 -->
<g id="node14" class="node">
<title>1990977088752</title>
<polygon fill="black" stroke="black" points="1895.88,-143 1841.88,-143 1841.88,-107 1895.88,-107 1895.88,-143"/>
</g>
<!-- 1990977088752&#45;&gt;1990977556640 -->
<g id="edge29" class="edge">
<title>1990977088752&#45;&gt;1990977556640</title>
<path fill="none" stroke="black" d="M1841.46,-122.87C1784.12,-118.26 1648.09,-107.31 1582.03,-102"/>
<polygon fill="black" stroke="black" points="1582.68,-98.54 1572.43,-101.23 1582.11,-105.52 1582.68,-98.54"/>
</g>
<!-- 1990975908480 -->
<g id="node15" class="node">
<title>1990975908480</title>
<polygon fill="white" stroke="black" points="2118.25,-89 2042.25,-89 2042.25,-53 2118.25,-53 2118.25,-89"/>
<text text-anchor="middle" x="2080.25" y="-65.97" font-family="Times New Roman,serif" font-size="12.00">Honey Filter</text>
</g>
<!-- 1990975911408 -->
<g id="node35" class="node">
<title>1990975911408</title>
<ellipse fill="white" stroke="black" cx="2181.25" cy="-71" rx="27" ry="27"/>
</g>
<!-- 1990975908480&#45;&gt;1990975911408 -->
<g id="edge32" class="edge">
<title>1990975908480&#45;&gt;1990975911408</title>
<path fill="none" stroke="black" d="M2118.68,-71C2126.46,-71 2134.66,-71 2142.46,-71"/>
<polygon fill="black" stroke="black" points="2142.35,-74.5 2152.35,-71 2142.35,-67.5 2142.35,-74.5"/>
</g>
<!-- 1990975899600 -->
<g id="node16" class="node">
<title>1990975899600</title>
<polygon fill="white" stroke="black" points="2334.5,-89 2244.25,-89 2244.25,-53 2334.5,-53 2334.5,-89"/>
<text text-anchor="middle" x="2289.38" y="-65.97" font-family="Times New Roman,serif" font-size="12.00">Packaging Prep</text>
</g>
<!-- 1990976292192 -->
<g id="node36" class="node">
<title>1990976292192</title>
<ellipse fill="white" stroke="black" cx="2397.5" cy="-71" rx="27" ry="27"/>
</g>
<!-- 1990975899600&#45;&gt;1990976292192 -->
<g id="edge34" class="edge">
<title>1990975899600&#45;&gt;1990976292192</title>
<path fill="none" stroke="black" d="M2334.77,-71C2342.76,-71 2351.03,-71 2358.81,-71"/>
<polygon fill="black" stroke="black" points="2358.64,-74.5 2368.64,-71 2358.64,-67.5 2358.64,-74.5"/>
</g>
<!-- 1990971222656 -->
<g id="node17" class="node">
<title>1990971222656</title>
<polygon fill="white" stroke="black" points="2555.25,-89 2460.5,-89 2460.5,-53 2555.25,-53 2555.25,-89"/>
<text text-anchor="middle" x="2507.88" y="-65.97" font-family="Times New Roman,serif" font-size="12.00">Market Dispatch</text>
</g>
<!-- 1990971226064 -->
<g id="node37" class="node">
<title>1990971226064</title>
<ellipse fill="white" stroke="black" cx="2618.25" cy="-71" rx="27" ry="27"/>
</g>
<!-- 1990971222656&#45;&gt;1990971226064 -->
<g id="edge36" class="edge">
<title>1990971222656&#45;&gt;1990971226064</title>
<path fill="none" stroke="black" d="M2555.46,-71C2563.54,-71 2571.85,-71 2579.65,-71"/>
<polygon fill="black" stroke="black" points="2579.48,-74.5 2589.48,-71 2579.48,-67.5 2579.48,-74.5"/>
</g>
<!-- 1990971213824 -->
<g id="node18" class="node">
<title>1990971213824</title>
<polygon fill="white" stroke="black" points="2782.75,-116 2681.25,-116 2681.25,-80 2782.75,-80 2782.75,-116"/>
<text text-anchor="middle" x="2732" y="-92.97" font-family="Times New Roman,serif" font-size="12.00">Feedback Review</text>
</g>
<!-- 1990971216704 -->
<g id="node38" class="node">
<title>1990971216704</title>
<ellipse fill="white" stroke="black" cx="2845.75" cy="-71" rx="27" ry="27"/>
</g>
<!-- 1990971213824&#45;&gt;1990971216704 -->
<g id="edge39" class="edge">
<title>1990971213824&#45;&gt;1990971216704</title>
<path fill="none" stroke="black" d="M2782.99,-85.92C2791.35,-83.9 2799.88,-81.84 2807.83,-79.92"/>
<polygon fill="black" stroke="black" points="2808.61,-83.33 2817.51,-77.58 2806.97,-76.53 2808.61,-83.33"/>
</g>
<!-- 1990971226832 -->
<g id="node19" class="node">
<title>1990971226832</title>
<polygon fill="black" stroke="black" points="2759,-62 2705,-62 2705,-26 2759,-26 2759,-62"/>
</g>
<!-- 1990971226832&#45;&gt;1990971216704 -->
<g id="edge40" class="edge">
<title>1990971226832&#45;&gt;1990971216704</title>
<path fill="none" stroke="black" d="M2759.48,-50.4C2774.03,-53.91 2792.28,-58.32 2808.17,-62.16"/>
<polygon fill="black" stroke="black" points="2807.21,-65.53 2817.75,-64.48 2808.86,-58.73 2807.21,-65.53"/>
</g>
<!-- 1990971213200 -->
<g id="node20" class="node">
<title>1990971213200</title>
<polygon fill="black" stroke="black" points="2962.75,-89 2908.75,-89 2908.75,-53 2962.75,-53 2962.75,-89"/>
</g>
<!-- 1990978486144 -->
<g id="node39" class="node">
<title>1990978486144</title>
<ellipse fill="white" stroke="black" cx="3029.75" cy="-71" rx="27" ry="27"/>
<ellipse fill="none" stroke="black" cx="3029.75" cy="-71" rx="31" ry="31"/>
<text text-anchor="start" x="3013.25" y="-55.6" font-family="Times New Roman,serif" font-size="32.00">■</text>
</g>
<!-- 1990971213200&#45;&gt;1990978486144 -->
<g id="edge42" class="edge">
<title>1990971213200&#45;&gt;1990978486144</title>
<path fill="none" stroke="black" d="M2962.87,-71C2970.38,-71 2978.76,-71 2986.97,-71"/>
<polygon fill="black" stroke="black" points="2986.83,-74.5 2996.83,-71 2986.83,-67.5 2986.83,-74.5"/>
</g>
<!-- 1990978836080 -->
<g id="node21" class="node">
<title>1990978836080</title>
<ellipse fill="white" stroke="black" cx="27" cy="-99" rx="27" ry="27"/>
<text text-anchor="start" x="9.75" y="-81.7" font-family="Times New Roman,serif" font-size="34.00">●</text>
</g>
<!-- 1990978836080&#45;&gt;1990975905312 -->
<g id="edge1" class="edge">
<title>1990978836080&#45;&gt;1990975905312</title>
<path fill="none" stroke="black" d="M54.33,-99C61.76,-99 70.06,-99 78.28,-99"/>
<polygon fill="black" stroke="black" points="78.24,-102.5 88.24,-99 78.24,-95.5 78.24,-102.5"/>
</g>
<!-- 1990975913424&#45;&gt;1990975898304 -->
<g id="edge3" class="edge">
<title>1990975913424&#45;&gt;1990975898304</title>
<path fill="none" stroke="black" d="M251.25,-99C258.6,-99 266.86,-99 275.19,-99"/>
<polygon fill="black" stroke="black" points="275,-102.5 285,-99 275,-95.5 275,-102.5"/>
</g>
<!-- 1990975912176&#45;&gt;1990975910592 -->
<g id="edge5" class="edge">
<title>1990975912176&#45;&gt;1990975910592</title>
<path fill="none" stroke="black" d="M464.98,-99C472.31,-99 480.57,-99 488.95,-99"/>
<polygon fill="black" stroke="black" points="488.88,-102.5 498.88,-99 488.88,-95.5 488.88,-102.5"/>
</g>
<!-- 1990975905072&#45;&gt;1990975902240 -->
<g id="edge8" class="edge">
<title>1990975905072&#45;&gt;1990975902240</title>
<path fill="none" stroke="black" d="M685.91,-135C693.23,-135 701.46,-135 709.78,-135"/>
<polygon fill="black" stroke="black" points="709.58,-138.5 719.58,-135 709.58,-131.5 709.58,-138.5"/>
</g>
<!-- 1990971216176&#45;&gt;1990971225584 -->
<g id="edge9" class="edge">
<title>1990971216176&#45;&gt;1990971225584</title>
<path fill="none" stroke="black" d="M685.91,-63C693.31,-63 701.65,-63 710.06,-63"/>
<polygon fill="black" stroke="black" points="709.99,-66.5 719.99,-63 709.99,-59.5 709.99,-66.5"/>
</g>
<!-- 1990971225728&#45;&gt;1990981088512 -->
<g id="edge13" class="edge">
<title>1990971225728&#45;&gt;1990981088512</title>
<path fill="none" stroke="black" d="M901.48,-63C910.97,-63 922.03,-63 932.99,-63"/>
<polygon fill="black" stroke="black" points="932.78,-66.5 942.78,-63 932.78,-59.5 932.78,-66.5"/>
</g>
<!-- 1990975911600&#45;&gt;1990975911552 -->
<g id="edge12" class="edge">
<title>1990975911600&#45;&gt;1990975911552</title>
<path fill="none" stroke="black" d="M901.48,-135C908.76,-135 916.97,-135 925.34,-135"/>
<polygon fill="black" stroke="black" points="925.28,-138.5 935.28,-135 925.28,-131.5 925.28,-138.5"/>
</g>
<!-- 1990981087504&#45;&gt;1990981089040 -->
<g id="edge18" class="edge">
<title>1990981087504&#45;&gt;1990981089040</title>
<path fill="none" stroke="black" d="M1128.72,-65.13C1136.01,-65.73 1144.24,-66.4 1152.64,-67.08"/>
<polygon fill="black" stroke="black" points="1152.35,-70.57 1162.6,-67.89 1152.92,-63.59 1152.35,-70.57"/>
</g>
<!-- 1990981087504&#45;&gt;1990981081696 -->
<g id="edge17" class="edge">
<title>1990981087504&#45;&gt;1990981081696</title>
<path fill="none" stroke="black" d="M1127.05,-53.01C1141.57,-47.11 1160.23,-39.52 1176.46,-32.91"/>
<polygon fill="black" stroke="black" points="1177.36,-36.33 1185.31,-29.31 1174.73,-29.84 1177.36,-36.33"/>
</g>
<!-- 1990975913280&#45;&gt;1990971220160 -->
<g id="edge16" class="edge">
<title>1990975913280&#45;&gt;1990971220160</title>
<path fill="none" stroke="black" d="M1129,-135C1141.48,-135 1156.68,-135 1170.71,-135"/>
<polygon fill="black" stroke="black" points="1170.62,-138.5 1180.62,-135 1170.62,-131.5 1170.62,-138.5"/>
</g>
<!-- 1990981082128&#45;&gt;1990971929328 -->
<g id="edge23" class="edge">
<title>1990981082128&#45;&gt;1990971929328</title>
<path fill="none" stroke="black" d="M1352.72,-71.44C1360.59,-74.1 1369.61,-77.15 1378.73,-80.23"/>
<polygon fill="black" stroke="black" points="1377.37,-83.47 1387.97,-83.36 1379.62,-76.84 1377.37,-83.47"/>
</g>
<!-- 1990971225008&#45;&gt;1990971929328 -->
<g id="edge22" class="edge">
<title>1990971225008&#45;&gt;1990971929328</title>
<path fill="none" stroke="black" d="M1352.72,-126.56C1360.59,-123.9 1369.61,-120.85 1378.73,-117.77"/>
<polygon fill="black" stroke="black" points="1379.62,-121.16 1387.97,-114.64 1377.37,-114.53 1379.62,-121.16"/>
</g>
<!-- 1990977556640&#45;&gt;1990978229344 -->
<g id="edge25" class="edge">
<title>1990977556640&#45;&gt;1990978229344</title>
<path fill="none" stroke="black" d="M1570.26,-92.46C1577.88,-90.51 1586.55,-88.29 1595.3,-86.05"/>
<polygon fill="black" stroke="black" points="1596.06,-89.47 1604.88,-83.59 1594.33,-82.68 1596.06,-89.47"/>
</g>
<!-- 1990978227232&#45;&gt;1990975908528 -->
<g id="edge27" class="edge">
<title>1990978227232&#45;&gt;1990975908528</title>
<path fill="none" stroke="black" d="M1785.73,-71C1793.06,-71 1801.32,-71 1809.7,-71"/>
<polygon fill="black" stroke="black" points="1809.63,-74.5 1819.63,-71 1809.63,-67.5 1809.63,-74.5"/>
</g>
<!-- 1990978227232&#45;&gt;1990977088752 -->
<g id="edge28" class="edge">
<title>1990978227232&#45;&gt;1990977088752</title>
<path fill="none" stroke="black" d="M1783.28,-82.85C1797.39,-89.88 1815.56,-98.93 1831.45,-106.85"/>
<polygon fill="black" stroke="black" points="1829.62,-109.85 1840.13,-111.18 1832.74,-103.58 1829.62,-109.85"/>
</g>
<!-- 1990975901424&#45;&gt;1990975908480 -->
<g id="edge31" class="edge">
<title>1990975901424&#45;&gt;1990975908480</title>
<path fill="none" stroke="black" d="M2006.52,-71C2014,-71 2022.4,-71 2030.76,-71"/>
<polygon fill="black" stroke="black" points="2030.53,-74.5 2040.53,-71 2030.53,-67.5 2030.53,-74.5"/>
</g>
<!-- 1990975911408&#45;&gt;1990975899600 -->
<g id="edge33" class="edge">
<title>1990975911408&#45;&gt;1990975899600</title>
<path fill="none" stroke="black" d="M2208.48,-71C2215.83,-71 2224.1,-71 2232.47,-71"/>
<polygon fill="black" stroke="black" points="2232.34,-74.5 2242.34,-71 2232.34,-67.5 2232.34,-74.5"/>
</g>
<!-- 1990976292192&#45;&gt;1990971222656 -->
<g id="edge35" class="edge">
<title>1990976292192&#45;&gt;1990971222656</title>
<path fill="none" stroke="black" d="M2424.73,-71C2432.06,-71 2440.32,-71 2448.7,-71"/>
<polygon fill="black" stroke="black" points="2448.63,-74.5 2458.63,-71 2448.63,-67.5 2448.63,-74.5"/>
</g>
<!-- 1990971226064&#45;&gt;1990971213824 -->
<g id="edge37" class="edge">
<title>1990971226064&#45;&gt;1990971213824</title>
<path fill="none" stroke="black" d="M2644.89,-77.19C2652.41,-79.01 2660.98,-81.08 2669.72,-83.19"/>
<polygon fill="black" stroke="black" points="2668.82,-86.58 2679.36,-85.52 2670.46,-79.77 2668.82,-86.58"/>
</g>
<!-- 1990971226064&#45;&gt;1990971226832 -->
<g id="edge38" class="edge">
<title>1990971226064&#45;&gt;1990971226832</title>
<path fill="none" stroke="black" d="M2644.89,-64.81C2659.3,-61.32 2677.56,-56.91 2693.55,-53.05"/>
<polygon fill="black" stroke="black" points="2694.34,-56.46 2703.23,-50.71 2692.69,-49.65 2694.34,-56.46"/>
</g>
<!-- 1990971216704&#45;&gt;1990971213200 -->
<g id="edge41" class="edge">
<title>1990971216704&#45;&gt;1990971213200</title>
<path fill="none" stroke="black" d="M2873.15,-71C2880.64,-71 2888.93,-71 2896.95,-71"/>
<polygon fill="black" stroke="black" points="2896.85,-74.5 2906.85,-71 2896.85,-67.5 2896.85,-74.5"/>
</g>
</g>
</svg>
