<?xml version="1.0" encoding="UTF-8" standalone="no"?>
<!DOCTYPE svg PUBLIC "-//W3C//DTD SVG 1.1//EN"
 "http://www.w3.org/Graphics/SVG/1.1/DTD/svg11.dtd">
<!-- Generated by graphviz version 11.0.0 (20240428.1522)
 -->
<!-- Title: imdf_net_1754051661.5548694 Pages: 1 -->
<svg width="2661pt" height="422pt"
 viewBox="0.00 0.00 2660.50 422.00" xmlns="http://www.w3.org/2000/svg" xmlns:xlink="http://www.w3.org/1999/xlink">
<g id="graph0" class="graph" transform="scale(1 1) rotate(0) translate(4 418)">
<title>imdf_net_1754051661.5548694</title>
<polygon fill="white" stroke="none" points="-4,4 -4,-418 2656.5,-418 2656.5,4 -4,4"/>
<!-- 1990976164576 -->
<g id="node1" class="node">
<title>1990976164576</title>
<polygon fill="white" stroke="black" points="168.25,-225 90,-225 90,-189 168.25,-189 168.25,-225"/>
<text text-anchor="middle" x="129.12" y="-201.97" font-family="Times New Roman,serif" font-size="12.00">Site Analysis</text>
</g>
<!-- 1990976174368 -->
<g id="node19" class="node">
<title>1990976174368</title>
<ellipse fill="white" stroke="black" cx="231.25" cy="-207" rx="27" ry="27"/>
</g>
<!-- 1990976164576&#45;&gt;1990976174368 -->
<g id="edge2" class="edge">
<title>1990976164576&#45;&gt;1990976174368</title>
<path fill="none" stroke="black" d="M168.55,-207C176.39,-207 184.63,-207 192.44,-207"/>
<polygon fill="black" stroke="black" points="192.36,-210.5 202.36,-207 192.36,-203.5 192.36,-210.5"/>
</g>
<!-- 1990976164912 -->
<g id="node2" class="node">
<title>1990976164912</title>
<polygon fill="white" stroke="black" points="371.75,-225 294.25,-225 294.25,-189 371.75,-189 371.75,-225"/>
<text text-anchor="middle" x="333" y="-201.97" font-family="Times New Roman,serif" font-size="12.00">Permit Filing</text>
</g>
<!-- 1990976161072 -->
<g id="node20" class="node">
<title>1990976161072</title>
<ellipse fill="white" stroke="black" cx="434.75" cy="-207" rx="27" ry="27"/>
</g>
<!-- 1990976164912&#45;&gt;1990976161072 -->
<g id="edge4" class="edge">
<title>1990976164912&#45;&gt;1990976161072</title>
<path fill="none" stroke="black" d="M372,-207C379.82,-207 388.06,-207 395.88,-207"/>
<polygon fill="black" stroke="black" points="395.8,-210.5 405.8,-207 395.8,-203.5 395.8,-210.5"/>
</g>
<!-- 1990976174800 -->
<g id="node3" class="node">
<title>1990976174800</title>
<polygon fill="white" stroke="black" points="597,-225 497.75,-225 497.75,-189 597,-189 597,-225"/>
<text text-anchor="middle" x="547.38" y="-201.97" font-family="Times New Roman,serif" font-size="12.00">Community Meet</text>
</g>
<!-- 1990976161024 -->
<g id="node21" class="node">
<title>1990976161024</title>
<ellipse fill="white" stroke="black" cx="660" cy="-243" rx="27" ry="27"/>
</g>
<!-- 1990976174800&#45;&gt;1990976161024 -->
<g id="edge6" class="edge">
<title>1990976174800&#45;&gt;1990976161024</title>
<path fill="none" stroke="black" d="M597.22,-222.89C605.89,-225.72 614.78,-228.61 623.02,-231.29"/>
<polygon fill="black" stroke="black" points="621.73,-234.55 632.32,-234.32 623.9,-227.9 621.73,-234.55"/>
</g>
<!-- 1990976172304 -->
<g id="node22" class="node">
<title>1990976172304</title>
<ellipse fill="white" stroke="black" cx="660" cy="-171" rx="27" ry="27"/>
</g>
<!-- 1990976174800&#45;&gt;1990976172304 -->
<g id="edge7" class="edge">
<title>1990976174800&#45;&gt;1990976172304</title>
<path fill="none" stroke="black" d="M597.22,-191.11C605.89,-188.28 614.78,-185.39 623.02,-182.71"/>
<polygon fill="black" stroke="black" points="623.9,-186.1 632.32,-179.68 621.73,-179.45 623.9,-186.1"/>
</g>
<!-- 1990976174464 -->
<g id="node4" class="node">
<title>1990976174464</title>
<polygon fill="white" stroke="black" points="803.12,-261 730.12,-261 730.12,-225 803.12,-225 803.12,-261"/>
<text text-anchor="middle" x="766.62" y="-237.97" font-family="Times New Roman,serif" font-size="12.00">Soil Testing</text>
</g>
<!-- 1990976175232 -->
<g id="node23" class="node">
<title>1990976175232</title>
<ellipse fill="white" stroke="black" cx="873.25" cy="-243" rx="27" ry="27"/>
</g>
<!-- 1990976174464&#45;&gt;1990976175232 -->
<g id="edge11" class="edge">
<title>1990976174464&#45;&gt;1990976175232</title>
<path fill="none" stroke="black" d="M803.34,-243C813.38,-243 824.33,-243 834.49,-243"/>
<polygon fill="black" stroke="black" points="834.43,-246.5 844.43,-243 834.43,-239.5 834.43,-246.5"/>
</g>
<!-- 1990976165008 -->
<g id="node25" class="node">
<title>1990976165008</title>
<ellipse fill="white" stroke="black" cx="873.25" cy="-315" rx="27" ry="27"/>
</g>
<!-- 1990976174464&#45;&gt;1990976165008 -->
<g id="edge13" class="edge">
<title>1990976174464&#45;&gt;1990976165008</title>
<path fill="none" stroke="black" d="M794.3,-261.35C808.6,-271.2 826.3,-283.38 841.22,-293.64"/>
<polygon fill="black" stroke="black" points="839.09,-296.43 849.31,-299.21 843.06,-290.66 839.09,-296.43"/>
</g>
<!-- 1990976167120 -->
<g id="node5" class="node">
<title>1990976167120</title>
<polygon fill="white" stroke="black" points="810.25,-189 723,-189 723,-153 810.25,-153 810.25,-189"/>
<text text-anchor="middle" x="766.62" y="-165.97" font-family="Times New Roman,serif" font-size="12.00">System Design</text>
</g>
<!-- 1990976170624 -->
<g id="node24" class="node">
<title>1990976170624</title>
<ellipse fill="white" stroke="black" cx="873.25" cy="-99" rx="27" ry="27"/>
</g>
<!-- 1990976167120&#45;&gt;1990976170624 -->
<g id="edge12" class="edge">
<title>1990976167120&#45;&gt;1990976170624</title>
<path fill="none" stroke="black" d="M794.3,-152.65C808.6,-142.8 826.3,-130.62 841.22,-120.36"/>
<polygon fill="black" stroke="black" points="843.06,-123.34 849.31,-114.79 839.09,-117.57 843.06,-123.34"/>
</g>
<!-- 1990976170144 -->
<g id="node26" class="node">
<title>1990976170144</title>
<ellipse fill="white" stroke="black" cx="873.25" cy="-171" rx="27" ry="27"/>
</g>
<!-- 1990976167120&#45;&gt;1990976170144 -->
<g id="edge10" class="edge">
<title>1990976167120&#45;&gt;1990976170144</title>
<path fill="none" stroke="black" d="M810.48,-171C818.43,-171 826.67,-171 834.45,-171"/>
<polygon fill="black" stroke="black" points="834.29,-174.5 844.29,-171 834.29,-167.5 834.29,-174.5"/>
</g>
<!-- 1990976160496 -->
<g id="node6" class="node">
<title>1990976160496</title>
<polygon fill="white" stroke="black" points="1037,-117 936.25,-117 936.25,-81 1037,-81 1037,-117"/>
<text text-anchor="middle" x="986.62" y="-93.97" font-family="Times New Roman,serif" font-size="12.00">Material Sourcing</text>
</g>
<!-- 1990976164528 -->
<g id="node28" class="node">
<title>1990976164528</title>
<ellipse fill="white" stroke="black" cx="1100" cy="-27" rx="27" ry="27"/>
</g>
<!-- 1990976160496&#45;&gt;1990976164528 -->
<g id="edge22" class="edge">
<title>1990976160496&#45;&gt;1990976164528</title>
<path fill="none" stroke="black" d="M1016.02,-80.65C1031.6,-70.57 1050.98,-58.05 1067.08,-47.63"/>
<polygon fill="black" stroke="black" points="1068.86,-50.65 1075.36,-42.29 1065.06,-44.77 1068.86,-50.65"/>
</g>
<!-- 1990976167744 -->
<g id="node30" class="node">
<title>1990976167744</title>
<ellipse fill="white" stroke="black" cx="1100" cy="-99" rx="27" ry="27"/>
</g>
<!-- 1990976160496&#45;&gt;1990976167744 -->
<g id="edge18" class="edge">
<title>1990976160496&#45;&gt;1990976167744</title>
<path fill="none" stroke="black" d="M1037.45,-99C1045.43,-99 1053.58,-99 1061.22,-99"/>
<polygon fill="black" stroke="black" points="1061.2,-102.5 1071.2,-99 1061.2,-95.5 1061.2,-102.5"/>
</g>
<!-- 1990976162896 -->
<g id="node32" class="node">
<title>1990976162896</title>
<ellipse fill="white" stroke="black" cx="1100" cy="-243" rx="27" ry="27"/>
</g>
<!-- 1990976160496&#45;&gt;1990976162896 -->
<g id="edge19" class="edge">
<title>1990976160496&#45;&gt;1990976162896</title>
<path fill="none" stroke="black" d="M1001.73,-117.24C1020.43,-141.41 1053.66,-184.37 1076.01,-213.27"/>
<polygon fill="black" stroke="black" points="1073.04,-215.15 1081.92,-220.92 1078.57,-210.87 1073.04,-215.15"/>
</g>
<!-- 1990976166640 -->
<g id="node7" class="node">
<title>1990976166640</title>
<polygon fill="white" stroke="black" points="1029.5,-333 943.75,-333 943.75,-297 1029.5,-297 1029.5,-333"/>
<text text-anchor="middle" x="986.62" y="-309.98" font-family="Times New Roman,serif" font-size="12.00">Seed Selection</text>
</g>
<!-- 1990977079056 -->
<g id="node27" class="node">
<title>1990977079056</title>
<ellipse fill="white" stroke="black" cx="1100" cy="-171" rx="27" ry="27"/>
</g>
<!-- 1990976166640&#45;&gt;1990977079056 -->
<g id="edge20" class="edge">
<title>1990976166640&#45;&gt;1990977079056</title>
<path fill="none" stroke="black" d="M1001.73,-296.76C1020.43,-272.59 1053.66,-229.63 1076.01,-200.73"/>
<polygon fill="black" stroke="black" points="1078.57,-203.13 1081.92,-193.08 1073.04,-198.85 1078.57,-203.13"/>
</g>
<!-- 1990977078192 -->
<g id="node29" class="node">
<title>1990977078192</title>
<ellipse fill="white" stroke="black" cx="1100" cy="-387" rx="27" ry="27"/>
</g>
<!-- 1990976166640&#45;&gt;1990977078192 -->
<g id="edge23" class="edge">
<title>1990976166640&#45;&gt;1990977078192</title>
<path fill="none" stroke="black" d="M1016.02,-333.35C1031.6,-343.43 1050.98,-355.95 1067.08,-366.37"/>
<polygon fill="black" stroke="black" points="1065.06,-369.23 1075.36,-371.71 1068.86,-363.35 1065.06,-369.23"/>
</g>
<!-- 1990977087168 -->
<g id="node31" class="node">
<title>1990977087168</title>
<ellipse fill="white" stroke="black" cx="1100" cy="-315" rx="27" ry="27"/>
</g>
<!-- 1990976166640&#45;&gt;1990977087168 -->
<g id="edge21" class="edge">
<title>1990976166640&#45;&gt;1990977087168</title>
<path fill="none" stroke="black" d="M1029.73,-315C1040.09,-315 1051.12,-315 1061.26,-315"/>
<polygon fill="black" stroke="black" points="1061.15,-318.5 1071.15,-315 1061.15,-311.5 1061.15,-318.5"/>
</g>
<!-- 1990978474384 -->
<g id="node8" class="node">
<title>1990978474384</title>
<polygon fill="white" stroke="black" points="1247.62,-225 1167.88,-225 1167.88,-189 1247.62,-189 1247.62,-225"/>
<text text-anchor="middle" x="1207.75" y="-201.97" font-family="Times New Roman,serif" font-size="12.00">Sensor Install</text>
</g>
<!-- 1990977086976 -->
<g id="node33" class="node">
<title>1990977086976</title>
<ellipse fill="white" stroke="black" cx="1315.5" cy="-207" rx="27" ry="27"/>
</g>
<!-- 1990978474384&#45;&gt;1990977086976 -->
<g id="edge31" class="edge">
<title>1990978474384&#45;&gt;1990977086976</title>
<path fill="none" stroke="black" d="M1247.83,-207C1257.26,-207 1267.32,-207 1276.69,-207"/>
<polygon fill="black" stroke="black" points="1276.58,-210.5 1286.58,-207 1276.58,-203.5 1276.58,-210.5"/>
</g>
<!-- 1990976169520 -->
<g id="node9" class="node">
<title>1990976169520</title>
<polygon fill="white" stroke="black" points="1250.62,-153 1164.88,-153 1164.88,-117 1250.62,-117 1250.62,-153"/>
<text text-anchor="middle" x="1207.75" y="-129.97" font-family="Times New Roman,serif" font-size="12.00">Bed Assembly</text>
</g>
<!-- 1990977085776 -->
<g id="node35" class="node">
<title>1990977085776</title>
<ellipse fill="white" stroke="black" cx="1315.5" cy="-135" rx="27" ry="27"/>
</g>
<!-- 1990976169520&#45;&gt;1990977085776 -->
<g id="edge30" class="edge">
<title>1990976169520&#45;&gt;1990977085776</title>
<path fill="none" stroke="black" d="M1250.85,-135C1259.38,-135 1268.31,-135 1276.68,-135"/>
<polygon fill="black" stroke="black" points="1276.55,-138.5 1286.55,-135 1276.55,-131.5 1276.55,-138.5"/>
</g>
<!-- 1990976163424 -->
<g id="node10" class="node">
<title>1990976163424</title>
<polygon fill="white" stroke="black" points="1252.5,-297 1163,-297 1163,-261 1252.5,-261 1252.5,-297"/>
<text text-anchor="middle" x="1207.75" y="-273.98" font-family="Times New Roman,serif" font-size="12.00">Irrigation Setup</text>
</g>
<!-- 1990977078672 -->
<g id="node34" class="node">
<title>1990977078672</title>
<ellipse fill="white" stroke="black" cx="1315.5" cy="-279" rx="27" ry="27"/>
</g>
<!-- 1990976163424&#45;&gt;1990977078672 -->
<g id="edge32" class="edge">
<title>1990976163424&#45;&gt;1990977078672</title>
<path fill="none" stroke="black" d="M1252.98,-279C1260.95,-279 1269.19,-279 1276.95,-279"/>
<polygon fill="black" stroke="black" points="1276.74,-282.5 1286.74,-279 1276.74,-275.5 1276.74,-282.5"/>
</g>
<!-- 1990978225792 -->
<g id="node11" class="node">
<title>1990978225792</title>
<polygon fill="white" stroke="black" points="1464.25,-225 1378.5,-225 1378.5,-189 1464.25,-189 1464.25,-225"/>
<text text-anchor="middle" x="1421.38" y="-201.97" font-family="Times New Roman,serif" font-size="12.00">Planting Phase</text>
</g>
<!-- 1990978234240 -->
<g id="node36" class="node">
<title>1990978234240</title>
<ellipse fill="white" stroke="black" cx="1527.25" cy="-243" rx="27" ry="27"/>
</g>
<!-- 1990978225792&#45;&gt;1990978234240 -->
<g id="edge37" class="edge">
<title>1990978225792&#45;&gt;1990978234240</title>
<path fill="none" stroke="black" d="M1464.62,-221.64C1473.2,-224.61 1482.14,-227.71 1490.46,-230.6"/>
<polygon fill="black" stroke="black" points="1489.31,-233.9 1499.91,-233.87 1491.6,-227.29 1489.31,-233.9"/>
</g>
<!-- 1990977566384 -->
<g id="node37" class="node">
<title>1990977566384</title>
<ellipse fill="white" stroke="black" cx="1527.25" cy="-171" rx="27" ry="27"/>
</g>
<!-- 1990978225792&#45;&gt;1990977566384 -->
<g id="edge36" class="edge">
<title>1990978225792&#45;&gt;1990977566384</title>
<path fill="none" stroke="black" d="M1464.62,-192.36C1473.2,-189.39 1482.14,-186.29 1490.46,-183.4"/>
<polygon fill="black" stroke="black" points="1491.6,-186.71 1499.91,-180.13 1489.31,-180.1 1491.6,-186.71"/>
</g>
<!-- 1990977553424 -->
<g id="node12" class="node">
<title>1990977553424</title>
<polygon fill="white" stroke="black" points="1684.25,-189 1590.25,-189 1590.25,-153 1684.25,-153 1684.25,-189"/>
<text text-anchor="middle" x="1637.25" y="-165.97" font-family="Times New Roman,serif" font-size="12.00">Climate Monitor</text>
</g>
<!-- 1990977083904 -->
<g id="node39" class="node">
<title>1990977083904</title>
<ellipse fill="white" stroke="black" cx="1747.25" cy="-171" rx="27" ry="27"/>
</g>
<!-- 1990977553424&#45;&gt;1990977083904 -->
<g id="edge40" class="edge">
<title>1990977553424&#45;&gt;1990977083904</title>
<path fill="none" stroke="black" d="M1684.68,-171C1692.56,-171 1700.66,-171 1708.28,-171"/>
<polygon fill="black" stroke="black" points="1708.27,-174.5 1718.27,-171 1708.27,-167.5 1708.27,-174.5"/>
</g>
<!-- 1990977553760 -->
<g id="node13" class="node">
<title>1990977553760</title>
<polygon fill="white" stroke="black" points="1674.5,-261 1600,-261 1600,-225 1674.5,-225 1674.5,-261"/>
<text text-anchor="middle" x="1637.25" y="-237.97" font-family="Times New Roman,serif" font-size="12.00">Pest Control</text>
</g>
<!-- 1990977077904 -->
<g id="node38" class="node">
<title>1990977077904</title>
<ellipse fill="white" stroke="black" cx="1747.25" cy="-243" rx="27" ry="27"/>
</g>
<!-- 1990977553760&#45;&gt;1990977077904 -->
<g id="edge41" class="edge">
<title>1990977553760&#45;&gt;1990977077904</title>
<path fill="none" stroke="black" d="M1674.81,-243C1685.69,-243 1697.62,-243 1708.57,-243"/>
<polygon fill="black" stroke="black" points="1708.45,-246.5 1718.45,-243 1708.45,-239.5 1708.45,-246.5"/>
</g>
<!-- 1990971919680 -->
<g id="node14" class="node">
<title>1990971919680</title>
<polygon fill="white" stroke="black" points="1902,-225 1810.25,-225 1810.25,-189 1902,-189 1902,-225"/>
<text text-anchor="middle" x="1856.12" y="-201.97" font-family="Times New Roman,serif" font-size="12.00">Harvesting Plan</text>
</g>
<!-- 1990971920112 -->
<g id="node40" class="node">
<title>1990971920112</title>
<ellipse fill="white" stroke="black" cx="1965" cy="-207" rx="27" ry="27"/>
</g>
<!-- 1990971919680&#45;&gt;1990971920112 -->
<g id="edge44" class="edge">
<title>1990971919680&#45;&gt;1990971920112</title>
<path fill="none" stroke="black" d="M1902.45,-207C1910.46,-207 1918.72,-207 1926.48,-207"/>
<polygon fill="black" stroke="black" points="1926.28,-210.5 1936.28,-207 1926.28,-203.5 1926.28,-210.5"/>
</g>
<!-- 1990971928752 -->
<g id="node15" class="node">
<title>1990971928752</title>
<polygon fill="white" stroke="black" points="2129.5,-225 2028,-225 2028,-189 2129.5,-189 2129.5,-225"/>
<text text-anchor="middle" x="2078.75" y="-201.97" font-family="Times New Roman,serif" font-size="12.00">Yield Distribution</text>
</g>
<!-- 1990976166112 -->
<g id="node41" class="node">
<title>1990976166112</title>
<ellipse fill="white" stroke="black" cx="2192.5" cy="-207" rx="27" ry="27"/>
</g>
<!-- 1990971928752&#45;&gt;1990976166112 -->
<g id="edge46" class="edge">
<title>1990971928752&#45;&gt;1990976166112</title>
<path fill="none" stroke="black" d="M2129.74,-207C2137.85,-207 2146.12,-207 2153.86,-207"/>
<polygon fill="black" stroke="black" points="2153.61,-210.5 2163.61,-207 2153.61,-203.5 2153.61,-210.5"/>
</g>
<!-- 1990976162032 -->
<g id="node16" class="node">
<title>1990976162032</title>
<polygon fill="white" stroke="black" points="2345,-225 2255.5,-225 2255.5,-189 2345,-189 2345,-225"/>
<text text-anchor="middle" x="2300.25" y="-201.97" font-family="Times New Roman,serif" font-size="12.00">Season Review</text>
</g>
<!-- 1990976175280 -->
<g id="node42" class="node">
<title>1990976175280</title>
<ellipse fill="white" stroke="black" cx="2408" cy="-207" rx="27" ry="27"/>
</g>
<!-- 1990976162032&#45;&gt;1990976175280 -->
<g id="edge48" class="edge">
<title>1990976162032&#45;&gt;1990976175280</title>
<path fill="none" stroke="black" d="M2345.48,-207C2353.45,-207 2361.69,-207 2369.45,-207"/>
<polygon fill="black" stroke="black" points="2369.24,-210.5 2379.24,-207 2369.24,-203.5 2369.24,-210.5"/>
</g>
<!-- 1990976170480 -->
<g id="node17" class="node">
<title>1990976170480</title>
<polygon fill="white" stroke="black" points="2554.5,-225 2471,-225 2471,-189 2554.5,-189 2554.5,-225"/>
<text text-anchor="middle" x="2512.75" y="-201.97" font-family="Times New Roman,serif" font-size="12.00">Crop Rotation</text>
</g>
<!-- 1990980443056 -->
<g id="node43" class="node">
<title>1990980443056</title>
<ellipse fill="white" stroke="black" cx="2621.5" cy="-207" rx="27" ry="27"/>
<ellipse fill="none" stroke="black" cx="2621.5" cy="-207" rx="31" ry="31"/>
<text text-anchor="start" x="2605" y="-191.6" font-family="Times New Roman,serif" font-size="32.00">■</text>
</g>
<!-- 1990976170480&#45;&gt;1990980443056 -->
<g id="edge50" class="edge">
<title>1990976170480&#45;&gt;1990980443056</title>
<path fill="none" stroke="black" d="M2554.72,-207C2562.62,-207 2570.9,-207 2578.83,-207"/>
<polygon fill="black" stroke="black" points="2578.57,-210.5 2588.57,-207 2578.57,-203.5 2578.57,-210.5"/>
</g>
<!-- 1990980437296 -->
<g id="node18" class="node">
<title>1990980437296</title>
<ellipse fill="white" stroke="black" cx="27" cy="-207" rx="27" ry="27"/>
<text text-anchor="start" x="9.75" y="-189.7" font-family="Times New Roman,serif" font-size="34.00">●</text>
</g>
<!-- 1990980437296&#45;&gt;1990976164576 -->
<g id="edge1" class="edge">
<title>1990980437296&#45;&gt;1990976164576</title>
<path fill="none" stroke="black" d="M54.31,-207C61.63,-207 69.84,-207 78.05,-207"/>
<polygon fill="black" stroke="black" points="78.05,-210.5 88.05,-207 78.05,-203.5 78.05,-210.5"/>
</g>
<!-- 1990976174368&#45;&gt;1990976164912 -->
<g id="edge3" class="edge">
<title>1990976174368&#45;&gt;1990976164912</title>
<path fill="none" stroke="black" d="M258.72,-207C266.02,-207 274.18,-207 282.33,-207"/>
<polygon fill="black" stroke="black" points="282.25,-210.5 292.25,-207 282.25,-203.5 282.25,-210.5"/>
</g>
<!-- 1990976161072&#45;&gt;1990976174800 -->
<g id="edge5" class="edge">
<title>1990976161072&#45;&gt;1990976174800</title>
<path fill="none" stroke="black" d="M462.25,-207C469.54,-207 477.77,-207 486.14,-207"/>
<polygon fill="black" stroke="black" points="486.07,-210.5 496.07,-207 486.07,-203.5 486.07,-210.5"/>
</g>
<!-- 1990976161024&#45;&gt;1990976174464 -->
<g id="edge9" class="edge">
<title>1990976161024&#45;&gt;1990976174464</title>
<path fill="none" stroke="black" d="M687.4,-243C696.83,-243 707.75,-243 718.39,-243"/>
<polygon fill="black" stroke="black" points="718.23,-246.5 728.23,-243 718.23,-239.5 718.23,-246.5"/>
</g>
<!-- 1990976172304&#45;&gt;1990976167120 -->
<g id="edge8" class="edge">
<title>1990976172304&#45;&gt;1990976167120</title>
<path fill="none" stroke="black" d="M687.4,-171C694.73,-171 702.96,-171 711.26,-171"/>
<polygon fill="black" stroke="black" points="711.03,-174.5 721.03,-171 711.03,-167.5 711.03,-174.5"/>
</g>
<!-- 1990976175232&#45;&gt;1990976160496 -->
<g id="edge16" class="edge">
<title>1990976175232&#45;&gt;1990976160496</title>
<path fill="none" stroke="black" d="M890.68,-221.75C910.36,-196.31 943.35,-153.66 964.8,-125.93"/>
<polygon fill="black" stroke="black" points="967.32,-128.39 970.67,-118.34 961.78,-124.11 967.32,-128.39"/>
</g>
<!-- 1990976170624&#45;&gt;1990976160496 -->
<g id="edge15" class="edge">
<title>1990976170624&#45;&gt;1990976160496</title>
<path fill="none" stroke="black" d="M900.64,-99C907.9,-99 916.08,-99 924.42,-99"/>
<polygon fill="black" stroke="black" points="924.32,-102.5 934.32,-99 924.32,-95.5 924.32,-102.5"/>
</g>
<!-- 1990976165008&#45;&gt;1990976166640 -->
<g id="edge17" class="edge">
<title>1990976165008&#45;&gt;1990976166640</title>
<path fill="none" stroke="black" d="M900.64,-315C910.1,-315 921.12,-315 932.04,-315"/>
<polygon fill="black" stroke="black" points="931.8,-318.5 941.8,-315 931.8,-311.5 931.8,-318.5"/>
</g>
<!-- 1990976170144&#45;&gt;1990976166640 -->
<g id="edge14" class="edge">
<title>1990976170144&#45;&gt;1990976166640</title>
<path fill="none" stroke="black" d="M890.68,-192.25C910.36,-217.69 943.35,-260.34 964.8,-288.07"/>
<polygon fill="black" stroke="black" points="961.78,-289.89 970.67,-295.66 967.32,-285.61 961.78,-289.89"/>
</g>
<!-- 1990977079056&#45;&gt;1990976169520 -->
<g id="edge29" class="edge">
<title>1990977079056&#45;&gt;1990976169520</title>
<path fill="none" stroke="black" d="M1126.06,-162.47C1134.4,-159.63 1144.04,-156.35 1153.68,-153.07"/>
<polygon fill="black" stroke="black" points="1154.73,-156.41 1163.07,-149.87 1152.48,-149.78 1154.73,-156.41"/>
</g>
<!-- 1990976164528&#45;&gt;1990976169520 -->
<g id="edge26" class="edge">
<title>1990976164528&#45;&gt;1990976169520</title>
<path fill="none" stroke="black" d="M1119.66,-46.06C1136.71,-63.47 1162.06,-89.36 1181.03,-108.73"/>
<polygon fill="black" stroke="black" points="1178.42,-111.07 1187.92,-115.77 1183.42,-106.17 1178.42,-111.07"/>
</g>
<!-- 1990977078192&#45;&gt;1990976163424 -->
<g id="edge27" class="edge">
<title>1990977078192&#45;&gt;1990976163424</title>
<path fill="none" stroke="black" d="M1119.66,-367.94C1136.71,-350.53 1162.06,-324.64 1181.03,-305.27"/>
<polygon fill="black" stroke="black" points="1183.42,-307.83 1187.92,-298.23 1178.42,-302.93 1183.42,-307.83"/>
</g>
<!-- 1990976167744&#45;&gt;1990978474384 -->
<g id="edge28" class="edge">
<title>1990976167744&#45;&gt;1990978474384</title>
<path fill="none" stroke="black" d="M1119.66,-118.06C1136.71,-135.47 1162.06,-161.36 1181.03,-180.73"/>
<polygon fill="black" stroke="black" points="1178.42,-183.07 1187.92,-187.77 1183.42,-178.17 1178.42,-183.07"/>
</g>
<!-- 1990977087168&#45;&gt;1990978474384 -->
<g id="edge25" class="edge">
<title>1990977087168&#45;&gt;1990978474384</title>
<path fill="none" stroke="black" d="M1119.66,-295.94C1136.71,-278.53 1162.06,-252.64 1181.03,-233.27"/>
<polygon fill="black" stroke="black" points="1183.42,-235.83 1187.92,-226.23 1178.42,-230.93 1183.42,-235.83"/>
</g>
<!-- 1990976162896&#45;&gt;1990976163424 -->
<g id="edge24" class="edge">
<title>1990976162896&#45;&gt;1990976163424</title>
<path fill="none" stroke="black" d="M1126.06,-251.53C1133.96,-254.22 1143.02,-257.31 1152.15,-260.41"/>
<polygon fill="black" stroke="black" points="1150.81,-263.65 1161.4,-263.56 1153.06,-257.03 1150.81,-263.65"/>
</g>
<!-- 1990977086976&#45;&gt;1990978225792 -->
<g id="edge35" class="edge">
<title>1990977086976&#45;&gt;1990978225792</title>
<path fill="none" stroke="black" d="M1342.98,-207C1350.34,-207 1358.6,-207 1366.91,-207"/>
<polygon fill="black" stroke="black" points="1366.69,-210.5 1376.69,-207 1366.69,-203.5 1366.69,-210.5"/>
</g>
<!-- 1990977078672&#45;&gt;1990978225792 -->
<g id="edge33" class="edge">
<title>1990977078672&#45;&gt;1990978225792</title>
<path fill="none" stroke="black" d="M1338.28,-263.91C1351.68,-254.62 1369.18,-242.49 1384.57,-231.81"/>
<polygon fill="black" stroke="black" points="1386.37,-234.83 1392.59,-226.26 1382.38,-229.08 1386.37,-234.83"/>
</g>
<!-- 1990977085776&#45;&gt;1990978225792 -->
<g id="edge34" class="edge">
<title>1990977085776&#45;&gt;1990978225792</title>
<path fill="none" stroke="black" d="M1338.28,-150.09C1351.68,-159.38 1369.18,-171.51 1384.57,-182.19"/>
<polygon fill="black" stroke="black" points="1382.38,-184.92 1392.59,-187.74 1386.37,-179.17 1382.38,-184.92"/>
</g>
<!-- 1990978234240&#45;&gt;1990977553760 -->
<g id="edge39" class="edge">
<title>1990978234240&#45;&gt;1990977553760</title>
<path fill="none" stroke="black" d="M1554.67,-243C1564.79,-243 1576.67,-243 1588.19,-243"/>
<polygon fill="black" stroke="black" points="1587.99,-246.5 1597.99,-243 1587.99,-239.5 1587.99,-246.5"/>
</g>
<!-- 1990977566384&#45;&gt;1990977553424 -->
<g id="edge38" class="edge">
<title>1990977566384&#45;&gt;1990977553424</title>
<path fill="none" stroke="black" d="M1554.67,-171C1561.97,-171 1570.19,-171 1578.52,-171"/>
<polygon fill="black" stroke="black" points="1578.38,-174.5 1588.38,-171 1578.38,-167.5 1578.38,-174.5"/>
</g>
<!-- 1990977077904&#45;&gt;1990971919680 -->
<g id="edge43" class="edge">
<title>1990977077904&#45;&gt;1990971919680</title>
<path fill="none" stroke="black" d="M1773.31,-234.56C1781.2,-231.9 1790.26,-228.85 1799.4,-225.77"/>
<polygon fill="black" stroke="black" points="1800.32,-229.15 1808.68,-222.64 1798.09,-222.52 1800.32,-229.15"/>
</g>
<!-- 1990977083904&#45;&gt;1990971919680 -->
<g id="edge42" class="edge">
<title>1990977083904&#45;&gt;1990971919680</title>
<path fill="none" stroke="black" d="M1773.31,-179.44C1781.2,-182.1 1790.26,-185.15 1799.4,-188.23"/>
<polygon fill="black" stroke="black" points="1798.09,-191.48 1808.68,-191.36 1800.32,-184.85 1798.09,-191.48"/>
</g>
<!-- 1990971920112&#45;&gt;1990971928752 -->
<g id="edge45" class="edge">
<title>1990971920112&#45;&gt;1990971928752</title>
<path fill="none" stroke="black" d="M1992.48,-207C1999.76,-207 2007.97,-207 2016.34,-207"/>
<polygon fill="black" stroke="black" points="2016.28,-210.5 2026.28,-207 2016.28,-203.5 2016.28,-210.5"/>
</g>
<!-- 1990976166112&#45;&gt;1990976162032 -->
<g id="edge47" class="edge">
<title>1990976166112&#45;&gt;1990976162032</title>
<path fill="none" stroke="black" d="M2219.91,-207C2227.23,-207 2235.46,-207 2243.78,-207"/>
<polygon fill="black" stroke="black" points="2243.58,-210.5 2253.58,-207 2243.58,-203.5 2243.58,-210.5"/>
</g>
<!-- 1990976175280&#45;&gt;1990976170480 -->
<g id="edge49" class="edge">
<title>1990976175280&#45;&gt;1990976170480</title>
<path fill="none" stroke="black" d="M2435.46,-207C2442.82,-207 2451.08,-207 2459.37,-207"/>
<polygon fill="black" stroke="black" points="2459.11,-210.5 2469.11,-207 2459.11,-203.5 2459.11,-210.5"/>
</g>
</g>
</svg>
