<?xml version="1.0" encoding="UTF-8" standalone="no"?>
<!DOCTYPE svg PUBLIC "-//W3C//DTD SVG 1.1//EN"
 "http://www.w3.org/Graphics/SVG/1.1/DTD/svg11.dtd">
<!-- Generated by graphviz version 11.0.0 (20240428.1522)
 -->
<!-- Title: imdf_net_1754051706.4302735 Pages: 1 -->
<svg width="3495pt" height="111pt"
 viewBox="0.00 0.00 3494.50 111.00" xmlns="http://www.w3.org/2000/svg" xmlns:xlink="http://www.w3.org/1999/xlink">
<g id="graph0" class="graph" transform="scale(1 1) rotate(0) translate(4 107)">
<title>imdf_net_1754051706.4302735</title>
<polygon fill="white" stroke="none" points="-4,4 -4,-107 3490.5,-107 3490.5,4 -4,4"/>
<!-- 1990981246016 -->
<g id="node1" class="node">
<title>1990981246016</title>
<polygon fill="white" stroke="black" points="159.25,-77 90,-77 90,-41 159.25,-41 159.25,-77"/>
<text text-anchor="middle" x="124.62" y="-53.98" font-family="Times New Roman,serif" font-size="12.00">Site Assess</text>
</g>
<!-- 1990981960816 -->
<g id="node19" class="node">
<title>1990981960816</title>
<ellipse fill="white" stroke="black" cx="222.25" cy="-59" rx="27" ry="27"/>
</g>
<!-- 1990981246016&#45;&gt;1990981960816 -->
<g id="edge2" class="edge">
<title>1990981246016&#45;&gt;1990981960816</title>
<path fill="none" stroke="black" d="M159.61,-59C167.31,-59 175.53,-59 183.38,-59"/>
<polygon fill="black" stroke="black" points="183.38,-62.5 193.38,-59 183.38,-55.5 183.38,-62.5"/>
</g>
<!-- 1990978624576 -->
<g id="node2" class="node">
<title>1990978624576</title>
<polygon fill="white" stroke="black" points="362.75,-77 285.25,-77 285.25,-41 362.75,-41 362.75,-77"/>
<text text-anchor="middle" x="324" y="-53.98" font-family="Times New Roman,serif" font-size="12.00">Design Farm</text>
</g>
<!-- 1990979281136 -->
<g id="node20" class="node">
<title>1990979281136</title>
<ellipse fill="white" stroke="black" cx="425.75" cy="-59" rx="27" ry="27"/>
</g>
<!-- 1990978624576&#45;&gt;1990979281136 -->
<g id="edge4" class="edge">
<title>1990978624576&#45;&gt;1990979281136</title>
<path fill="none" stroke="black" d="M363,-59C370.82,-59 379.06,-59 386.88,-59"/>
<polygon fill="black" stroke="black" points="386.8,-62.5 396.8,-59 386.8,-55.5 386.8,-62.5"/>
</g>
<!-- 1990979279936 -->
<g id="node3" class="node">
<title>1990979279936</title>
<polygon fill="white" stroke="black" points="579.75,-77 488.75,-77 488.75,-41 579.75,-41 579.75,-77"/>
<text text-anchor="middle" x="534.25" y="-53.98" font-family="Times New Roman,serif" font-size="12.00">Material Source</text>
</g>
<!-- 1990981966480 -->
<g id="node21" class="node">
<title>1990981966480</title>
<ellipse fill="white" stroke="black" cx="642.75" cy="-59" rx="27" ry="27"/>
</g>
<!-- 1990979279936&#45;&gt;1990981966480 -->
<g id="edge6" class="edge">
<title>1990979279936&#45;&gt;1990981966480</title>
<path fill="none" stroke="black" d="M580.11,-59C588.11,-59 596.37,-59 604.15,-59"/>
<polygon fill="black" stroke="black" points="603.96,-62.5 613.96,-59 603.96,-55.5 603.96,-62.5"/>
</g>
<!-- 1990981967776 -->
<g id="node4" class="node">
<title>1990981967776</title>
<polygon fill="white" stroke="black" points="790,-77 705.75,-77 705.75,-41 790,-41 790,-77"/>
<text text-anchor="middle" x="747.88" y="-53.98" font-family="Times New Roman,serif" font-size="12.00">Install Sensors</text>
</g>
<!-- 1990977092784 -->
<g id="node22" class="node">
<title>1990977092784</title>
<ellipse fill="white" stroke="black" cx="853" cy="-59" rx="27" ry="27"/>
</g>
<!-- 1990981967776&#45;&gt;1990977092784 -->
<g id="edge8" class="edge">
<title>1990981967776&#45;&gt;1990977092784</title>
<path fill="none" stroke="black" d="M790.23,-59C798.19,-59 806.49,-59 814.33,-59"/>
<polygon fill="black" stroke="black" points="814.25,-62.5 824.25,-59 814.25,-55.5 814.25,-62.5"/>
</g>
<!-- 1990981468288 -->
<g id="node5" class="node">
<title>1990981468288</title>
<polygon fill="white" stroke="black" points="1023.5,-77 916,-77 916,-41 1023.5,-41 1023.5,-77"/>
<text text-anchor="middle" x="969.75" y="-53.98" font-family="Times New Roman,serif" font-size="12.00">Setup Hydroponics</text>
</g>
<!-- 1990979794032 -->
<g id="node23" class="node">
<title>1990979794032</title>
<ellipse fill="white" stroke="black" cx="1086.5" cy="-59" rx="27" ry="27"/>
</g>
<!-- 1990981468288&#45;&gt;1990979794032 -->
<g id="edge10" class="edge">
<title>1990981468288&#45;&gt;1990979794032</title>
<path fill="none" stroke="black" d="M1023.76,-59C1031.95,-59 1040.26,-59 1048.01,-59"/>
<polygon fill="black" stroke="black" points="1047.76,-62.5 1057.76,-59 1047.76,-55.5 1047.76,-62.5"/>
</g>
<!-- 1990979784096 -->
<g id="node6" class="node">
<title>1990979784096</title>
<polygon fill="white" stroke="black" points="1254.75,-77 1149.5,-77 1149.5,-41 1254.75,-41 1254.75,-77"/>
<text text-anchor="middle" x="1202.12" y="-53.98" font-family="Times New Roman,serif" font-size="12.00">Calibrate Nutrients</text>
</g>
<!-- 1990979792064 -->
<g id="node24" class="node">
<title>1990979792064</title>
<ellipse fill="white" stroke="black" cx="1317.75" cy="-59" rx="27" ry="27"/>
</g>
<!-- 1990979784096&#45;&gt;1990979792064 -->
<g id="edge12" class="edge">
<title>1990979784096&#45;&gt;1990979792064</title>
<path fill="none" stroke="black" d="M1254.95,-59C1263.11,-59 1271.41,-59 1279.17,-59"/>
<polygon fill="black" stroke="black" points="1278.93,-62.5 1288.93,-59 1278.93,-55.5 1278.93,-62.5"/>
</g>
<!-- 1990979782512 -->
<g id="node7" class="node">
<title>1990979782512</title>
<polygon fill="white" stroke="black" points="1456.75,-77 1380.75,-77 1380.75,-41 1456.75,-41 1456.75,-77"/>
<text text-anchor="middle" x="1418.75" y="-53.98" font-family="Times New Roman,serif" font-size="12.00">Select Crops</text>
</g>
<!-- 1990981238960 -->
<g id="node25" class="node">
<title>1990981238960</title>
<ellipse fill="white" stroke="black" cx="1519.75" cy="-59" rx="27" ry="27"/>
</g>
<!-- 1990979782512&#45;&gt;1990981238960 -->
<g id="edge14" class="edge">
<title>1990979782512&#45;&gt;1990981238960</title>
<path fill="none" stroke="black" d="M1457.18,-59C1464.96,-59 1473.16,-59 1480.96,-59"/>
<polygon fill="black" stroke="black" points="1480.85,-62.5 1490.85,-59 1480.85,-55.5 1480.85,-62.5"/>
</g>
<!-- 1990981240640 -->
<g id="node8" class="node">
<title>1990981240640</title>
<polygon fill="white" stroke="black" points="1690.25,-77 1582.75,-77 1582.75,-41 1690.25,-41 1690.25,-77"/>
<text text-anchor="middle" x="1636.5" y="-53.98" font-family="Times New Roman,serif" font-size="12.00">Configure Lighting</text>
</g>
<!-- 1990979279984 -->
<g id="node26" class="node">
<title>1990979279984</title>
<ellipse fill="white" stroke="black" cx="1753.25" cy="-59" rx="27" ry="27"/>
</g>
<!-- 1990981240640&#45;&gt;1990979279984 -->
<g id="edge16" class="edge">
<title>1990981240640&#45;&gt;1990979279984</title>
<path fill="none" stroke="black" d="M1690.51,-59C1698.7,-59 1707.01,-59 1714.76,-59"/>
<polygon fill="black" stroke="black" points="1714.51,-62.5 1724.51,-59 1714.51,-55.5 1714.51,-62.5"/>
</g>
<!-- 1990971760544 -->
<g id="node9" class="node">
<title>1990971760544</title>
<polygon fill="white" stroke="black" points="1897.5,-54 1816.25,-54 1816.25,-18 1897.5,-18 1897.5,-54"/>
<text text-anchor="middle" x="1856.88" y="-30.98" font-family="Times New Roman,serif" font-size="12.00">Manage Pests</text>
</g>
<!-- 1990971764240 -->
<g id="node27" class="node">
<title>1990971764240</title>
<ellipse fill="white" stroke="black" cx="1960.5" cy="-31" rx="27" ry="27"/>
</g>
<!-- 1990971760544&#45;&gt;1990971764240 -->
<g id="edge18" class="edge">
<title>1990971760544&#45;&gt;1990971764240</title>
<path fill="none" stroke="black" d="M1897.75,-34.04C1905.65,-33.65 1913.92,-33.24 1921.75,-32.86"/>
<polygon fill="black" stroke="black" points="1921.86,-36.36 1931.68,-32.37 1921.52,-29.36 1921.86,-36.36"/>
</g>
<!-- 1990971755264 -->
<g id="node10" class="node">
<title>1990971755264</title>
<polygon fill="white" stroke="black" points="2117.5,-49 2023.5,-49 2023.5,-13 2117.5,-13 2117.5,-49"/>
<text text-anchor="middle" x="2070.5" y="-25.98" font-family="Times New Roman,serif" font-size="12.00">Monitor Growth</text>
</g>
<!-- 1990971765728 -->
<g id="node28" class="node">
<title>1990971765728</title>
<ellipse fill="white" stroke="black" cx="2180.5" cy="-31" rx="27" ry="27"/>
</g>
<!-- 1990971755264&#45;&gt;1990971765728 -->
<g id="edge20" class="edge">
<title>1990971755264&#45;&gt;1990971765728</title>
<path fill="none" stroke="black" d="M2117.93,-31C2125.81,-31 2133.91,-31 2141.53,-31"/>
<polygon fill="black" stroke="black" points="2141.52,-34.5 2151.52,-31 2141.52,-27.5 2141.52,-34.5"/>
</g>
<!-- 1990971768416 -->
<g id="node11" class="node">
<title>1990971768416</title>
<polygon fill="white" stroke="black" points="2327.75,-49 2243.5,-49 2243.5,-13 2327.75,-13 2327.75,-49"/>
<text text-anchor="middle" x="2285.62" y="-25.98" font-family="Times New Roman,serif" font-size="12.00">Harvest Crops</text>
</g>
<!-- 1990977599968 -->
<g id="node29" class="node">
<title>1990977599968</title>
<ellipse fill="white" stroke="black" cx="2390.75" cy="-31" rx="27" ry="27"/>
</g>
<!-- 1990971768416&#45;&gt;1990977599968 -->
<g id="edge22" class="edge">
<title>1990971768416&#45;&gt;1990977599968</title>
<path fill="none" stroke="black" d="M2327.98,-31C2335.94,-31 2344.24,-31 2352.08,-31"/>
<polygon fill="black" stroke="black" points="2352,-34.5 2362,-31 2352,-27.5 2352,-34.5"/>
</g>
<!-- 1990977597040 -->
<g id="node12" class="node">
<title>1990977597040</title>
<polygon fill="white" stroke="black" points="2540.25,-49 2453.75,-49 2453.75,-13 2540.25,-13 2540.25,-49"/>
<text text-anchor="middle" x="2497" y="-25.98" font-family="Times New Roman,serif" font-size="12.00">Recycle Waste</text>
</g>
<!-- 1990977592480 -->
<g id="node30" class="node">
<title>1990977592480</title>
<ellipse fill="white" stroke="black" cx="2603.25" cy="-31" rx="27" ry="27"/>
</g>
<!-- 1990977597040&#45;&gt;1990977592480 -->
<g id="edge24" class="edge">
<title>1990977597040&#45;&gt;1990977592480</title>
<path fill="none" stroke="black" d="M2540.7,-31C2548.62,-31 2556.84,-31 2564.59,-31"/>
<polygon fill="black" stroke="black" points="2564.39,-34.5 2574.39,-31 2564.39,-27.5 2564.39,-34.5"/>
</g>
<!-- 1990977598000 -->
<g id="node13" class="node">
<title>1990977598000</title>
<polygon fill="white" stroke="black" points="2762.5,-49 2666.25,-49 2666.25,-13 2762.5,-13 2762.5,-49"/>
<text text-anchor="middle" x="2714.38" y="-25.98" font-family="Times New Roman,serif" font-size="12.00">Plan Distribution</text>
</g>
<!-- 1990977594208 -->
<g id="node31" class="node">
<title>1990977594208</title>
<ellipse fill="white" stroke="black" cx="2825.5" cy="-31" rx="27" ry="27"/>
</g>
<!-- 1990977598000&#45;&gt;1990977594208 -->
<g id="edge26" class="edge">
<title>1990977598000&#45;&gt;1990977594208</title>
<path fill="none" stroke="black" d="M2762.92,-31C2770.84,-31 2778.95,-31 2786.59,-31"/>
<polygon fill="black" stroke="black" points="2786.58,-34.5 2796.58,-31 2786.58,-27.5 2786.58,-34.5"/>
</g>
<!-- 1990977586144 -->
<g id="node14" class="node">
<title>1990977586144</title>
<polygon fill="white" stroke="black" points="2985.5,-49 2888.5,-49 2888.5,-13 2985.5,-13 2985.5,-49"/>
<text text-anchor="middle" x="2937" y="-25.98" font-family="Times New Roman,serif" font-size="12.00">Gather Feedback</text>
</g>
<!-- 1990975898784 -->
<g id="node32" class="node">
<title>1990975898784</title>
<ellipse fill="white" stroke="black" cx="3048.5" cy="-31" rx="27" ry="27"/>
</g>
<!-- 1990977586144&#45;&gt;1990975898784 -->
<g id="edge28" class="edge">
<title>1990977586144&#45;&gt;1990975898784</title>
<path fill="none" stroke="black" d="M2985.71,-31C2993.82,-31 3002.15,-31 3009.95,-31"/>
<polygon fill="black" stroke="black" points="3009.79,-34.5 3019.79,-31 3009.79,-27.5 3009.79,-34.5"/>
</g>
<!-- 1990975905504 -->
<g id="node15" class="node">
<title>1990975905504</title>
<polygon fill="white" stroke="black" points="3208.5,-49 3111.5,-49 3111.5,-13 3208.5,-13 3208.5,-49"/>
<text text-anchor="middle" x="3160" y="-25.98" font-family="Times New Roman,serif" font-size="12.00">Optimize System</text>
</g>
<!-- 1990979279312 -->
<g id="node33" class="node">
<title>1990979279312</title>
<ellipse fill="white" stroke="black" cx="3271.5" cy="-31" rx="27" ry="27"/>
</g>
<!-- 1990975905504&#45;&gt;1990979279312 -->
<g id="edge30" class="edge">
<title>1990975905504&#45;&gt;1990979279312</title>
<path fill="none" stroke="black" d="M3208.71,-31C3216.82,-31 3225.15,-31 3232.95,-31"/>
<polygon fill="black" stroke="black" points="3232.79,-34.5 3242.79,-31 3232.79,-27.5 3232.79,-34.5"/>
</g>
<!-- 1990975911840 -->
<g id="node16" class="node">
<title>1990975911840</title>
<polygon fill="black" stroke="black" points="3388.5,-49 3334.5,-49 3334.5,-13 3388.5,-13 3388.5,-49"/>
</g>
<!-- 1990971927984 -->
<g id="node34" class="node">
<title>1990971927984</title>
<ellipse fill="white" stroke="black" cx="3455.5" cy="-31" rx="27" ry="27"/>
<ellipse fill="none" stroke="black" cx="3455.5" cy="-31" rx="31" ry="31"/>
<text text-anchor="start" x="3439" y="-15.6" font-family="Times New Roman,serif" font-size="32.00">■</text>
</g>
<!-- 1990975911840&#45;&gt;1990971927984 -->
<g id="edge34" class="edge">
<title>1990975911840&#45;&gt;1990971927984</title>
<path fill="none" stroke="black" d="M3388.62,-31C3396.13,-31 3404.51,-31 3412.72,-31"/>
<polygon fill="black" stroke="black" points="3412.58,-34.5 3422.58,-31 3412.58,-27.5 3412.58,-34.5"/>
</g>
<!-- 1990975912608 -->
<g id="node17" class="node">
<title>1990975912608</title>
<polygon fill="black" stroke="black" points="3388.5,-103 3334.5,-103 3334.5,-67 3388.5,-67 3388.5,-103"/>
</g>
<!-- 1990975912608&#45;&gt;1990979279984 -->
<g id="edge33" class="edge">
<title>1990975912608&#45;&gt;1990979279984</title>
<path fill="none" stroke="black" d="M3334.04,-85.22C3295.83,-85.51 3223,-86 3161,-86 1959.5,-86 1959.5,-86 1959.5,-86 1900.16,-86 1832,-74.77 1791.07,-66.8"/>
<polygon fill="black" stroke="black" points="1792,-63.41 1781.51,-64.89 1790.63,-70.28 1792,-63.41"/>
</g>
<!-- 1990971922896 -->
<g id="node18" class="node">
<title>1990971922896</title>
<ellipse fill="white" stroke="black" cx="27" cy="-59" rx="27" ry="27"/>
<text text-anchor="start" x="9.75" y="-41.7" font-family="Times New Roman,serif" font-size="34.00">●</text>
</g>
<!-- 1990971922896&#45;&gt;1990981246016 -->
<g id="edge1" class="edge">
<title>1990971922896&#45;&gt;1990981246016</title>
<path fill="none" stroke="black" d="M54.38,-59C61.82,-59 70.14,-59 78.35,-59"/>
<polygon fill="black" stroke="black" points="78.28,-62.5 88.28,-59 78.28,-55.5 78.28,-62.5"/>
</g>
<!-- 1990981960816&#45;&gt;1990978624576 -->
<g id="edge3" class="edge">
<title>1990981960816&#45;&gt;1990978624576</title>
<path fill="none" stroke="black" d="M249.72,-59C257.02,-59 265.18,-59 273.33,-59"/>
<polygon fill="black" stroke="black" points="273.25,-62.5 283.25,-59 273.25,-55.5 273.25,-62.5"/>
</g>
<!-- 1990979281136&#45;&gt;1990979279936 -->
<g id="edge5" class="edge">
<title>1990979281136&#45;&gt;1990979279936</title>
<path fill="none" stroke="black" d="M453.08,-59C460.44,-59 468.75,-59 477.14,-59"/>
<polygon fill="black" stroke="black" points="477.06,-62.5 487.06,-59 477.06,-55.5 477.06,-62.5"/>
</g>
<!-- 1990981966480&#45;&gt;1990981967776 -->
<g id="edge7" class="edge">
<title>1990981966480&#45;&gt;1990981967776</title>
<path fill="none" stroke="black" d="M670.04,-59C677.42,-59 685.73,-59 694.07,-59"/>
<polygon fill="black" stroke="black" points="693.89,-62.5 703.89,-59 693.89,-55.5 693.89,-62.5"/>
</g>
<!-- 1990977092784&#45;&gt;1990981468288 -->
<g id="edge9" class="edge">
<title>1990977092784&#45;&gt;1990981468288</title>
<path fill="none" stroke="black" d="M880.33,-59C887.69,-59 896.02,-59 904.57,-59"/>
<polygon fill="black" stroke="black" points="904.33,-62.5 914.33,-59 904.33,-55.5 904.33,-62.5"/>
</g>
<!-- 1990979794032&#45;&gt;1990979784096 -->
<g id="edge11" class="edge">
<title>1990979794032&#45;&gt;1990979784096</title>
<path fill="none" stroke="black" d="M1113.85,-59C1121.24,-59 1129.6,-59 1138.15,-59"/>
<polygon fill="black" stroke="black" points="1137.91,-62.5 1147.91,-59 1137.91,-55.5 1137.91,-62.5"/>
</g>
<!-- 1990979792064&#45;&gt;1990979782512 -->
<g id="edge13" class="edge">
<title>1990979792064&#45;&gt;1990979782512</title>
<path fill="none" stroke="black" d="M1345.02,-59C1352.5,-59 1360.9,-59 1369.26,-59"/>
<polygon fill="black" stroke="black" points="1369.03,-62.5 1379.03,-59 1369.03,-55.5 1369.03,-62.5"/>
</g>
<!-- 1990981238960&#45;&gt;1990981240640 -->
<g id="edge15" class="edge">
<title>1990981238960&#45;&gt;1990981240640</title>
<path fill="none" stroke="black" d="M1547.08,-59C1554.44,-59 1562.77,-59 1571.32,-59"/>
<polygon fill="black" stroke="black" points="1571.08,-62.5 1581.08,-59 1571.08,-55.5 1571.08,-62.5"/>
</g>
<!-- 1990979279984&#45;&gt;1990971760544 -->
<g id="edge17" class="edge">
<title>1990979279984&#45;&gt;1990971760544</title>
<path fill="none" stroke="black" d="M1779.89,-53.2C1787.58,-51.46 1796.3,-49.48 1805.02,-47.51"/>
<polygon fill="black" stroke="black" points="1805.54,-50.98 1814.52,-45.36 1803.99,-44.15 1805.54,-50.98"/>
</g>
<!-- 1990971764240&#45;&gt;1990971755264 -->
<g id="edge19" class="edge">
<title>1990971764240&#45;&gt;1990971755264</title>
<path fill="none" stroke="black" d="M1987.92,-31C1995.22,-31 2003.44,-31 2011.77,-31"/>
<polygon fill="black" stroke="black" points="2011.63,-34.5 2021.63,-31 2011.63,-27.5 2011.63,-34.5"/>
</g>
<!-- 1990971765728&#45;&gt;1990971768416 -->
<g id="edge21" class="edge">
<title>1990971765728&#45;&gt;1990971768416</title>
<path fill="none" stroke="black" d="M2207.79,-31C2215.17,-31 2223.48,-31 2231.82,-31"/>
<polygon fill="black" stroke="black" points="2231.64,-34.5 2241.64,-31 2231.64,-27.5 2231.64,-34.5"/>
</g>
<!-- 1990977599968&#45;&gt;1990977597040 -->
<g id="edge23" class="edge">
<title>1990977599968&#45;&gt;1990977597040</title>
<path fill="none" stroke="black" d="M2418.06,-31C2425.44,-31 2433.74,-31 2442.11,-31"/>
<polygon fill="black" stroke="black" points="2441.96,-34.5 2451.96,-31 2441.96,-27.5 2441.96,-34.5"/>
</g>
<!-- 1990977592480&#45;&gt;1990977598000 -->
<g id="edge25" class="edge">
<title>1990977592480&#45;&gt;1990977598000</title>
<path fill="none" stroke="black" d="M2630.67,-31C2637.95,-31 2646.16,-31 2654.5,-31"/>
<polygon fill="black" stroke="black" points="2654.37,-34.5 2664.37,-31 2654.37,-27.5 2654.37,-34.5"/>
</g>
<!-- 1990977594208&#45;&gt;1990977586144 -->
<g id="edge27" class="edge">
<title>1990977594208&#45;&gt;1990977586144</title>
<path fill="none" stroke="black" d="M2852.73,-31C2860.04,-31 2868.28,-31 2876.68,-31"/>
<polygon fill="black" stroke="black" points="2876.62,-34.5 2886.62,-31 2876.62,-27.5 2876.62,-34.5"/>
</g>
<!-- 1990975898784&#45;&gt;1990975905504 -->
<g id="edge29" class="edge">
<title>1990975898784&#45;&gt;1990975905504</title>
<path fill="none" stroke="black" d="M3075.73,-31C3083.04,-31 3091.28,-31 3099.68,-31"/>
<polygon fill="black" stroke="black" points="3099.62,-34.5 3109.62,-31 3099.62,-27.5 3099.62,-34.5"/>
</g>
<!-- 1990979279312&#45;&gt;1990975911840 -->
<g id="edge32" class="edge">
<title>1990979279312&#45;&gt;1990975911840</title>
<path fill="none" stroke="black" d="M3298.9,-31C3306.39,-31 3314.68,-31 3322.7,-31"/>
<polygon fill="black" stroke="black" points="3322.6,-34.5 3332.6,-31 3322.6,-27.5 3322.6,-34.5"/>
</g>
<!-- 1990979279312&#45;&gt;1990975912608 -->
<g id="edge31" class="edge">
<title>1990979279312&#45;&gt;1990975912608</title>
<path fill="none" stroke="black" d="M3295.16,-44.91C3304.1,-50.39 3314.59,-56.83 3324.51,-62.92"/>
<polygon fill="black" stroke="black" points="3322.53,-65.8 3332.88,-68.05 3326.19,-59.84 3322.53,-65.8"/>
</g>
</g>
</svg>
