<?xml version="1.0" encoding="UTF-8" standalone="no"?>
<!DOCTYPE svg PUBLIC "-//W3C//DTD SVG 1.1//EN"
 "http://www.w3.org/Graphics/SVG/1.1/DTD/svg11.dtd">
<!-- Generated by graphviz version 11.0.0 (20240428.1522)
 -->
<!-- Title: imdf_net_1754051695.330015 Pages: 1 -->
<svg width="3236pt" height="70pt"
 viewBox="0.00 0.00 3235.75 70.00" xmlns="http://www.w3.org/2000/svg" xmlns:xlink="http://www.w3.org/1999/xlink">
<g id="graph0" class="graph" transform="scale(1 1) rotate(0) translate(4 66)">
<title>imdf_net_1754051695.330015</title>
<polygon fill="white" stroke="none" points="-4,4 -4,-66 3231.75,-66 3231.75,4 -4,4"/>
<!-- 1990979725424 -->
<g id="node1" class="node">
<title>1990979725424</title>
<polygon fill="white" stroke="black" points="160.75,-49 90,-49 90,-13 160.75,-13 160.75,-49"/>
<text text-anchor="middle" x="125.38" y="-25.98" font-family="Times New Roman,serif" font-size="12.00">Site Survey</text>
</g>
<!-- 1990979720432 -->
<g id="node17" class="node">
<title>1990979720432</title>
<ellipse fill="white" stroke="black" cx="223.75" cy="-31" rx="27" ry="27"/>
</g>
<!-- 1990979725424&#45;&gt;1990979720432 -->
<g id="edge2" class="edge">
<title>1990979725424&#45;&gt;1990979720432</title>
<path fill="none" stroke="black" d="M161.17,-31C168.9,-31 177.14,-31 184.98,-31"/>
<polygon fill="black" stroke="black" points="184.97,-34.5 194.97,-31 184.97,-27.5 184.97,-34.5"/>
</g>
<!-- 1990979724704 -->
<g id="node2" class="node">
<title>1990979724704</title>
<polygon fill="white" stroke="black" points="374.75,-49 286.75,-49 286.75,-13 374.75,-13 374.75,-49"/>
<text text-anchor="middle" x="330.75" y="-25.98" font-family="Times New Roman,serif" font-size="12.00">Impact Review</text>
</g>
<!-- 1990979727152 -->
<g id="node18" class="node">
<title>1990979727152</title>
<ellipse fill="white" stroke="black" cx="437.75" cy="-31" rx="27" ry="27"/>
</g>
<!-- 1990979724704&#45;&gt;1990979727152 -->
<g id="edge4" class="edge">
<title>1990979724704&#45;&gt;1990979727152</title>
<path fill="none" stroke="black" d="M375.06,-31C383.02,-31 391.26,-31 399.03,-31"/>
<polygon fill="black" stroke="black" points="398.85,-34.5 408.85,-31 398.85,-27.5 398.85,-34.5"/>
</g>
<!-- 1990979716112 -->
<g id="node3" class="node">
<title>1990979716112</title>
<polygon fill="white" stroke="black" points="588,-49 500.75,-49 500.75,-13 588,-13 588,-49"/>
<text text-anchor="middle" x="544.38" y="-25.98" font-family="Times New Roman,serif" font-size="12.00">System Design</text>
</g>
<!-- 1990979717552 -->
<g id="node19" class="node">
<title>1990979717552</title>
<ellipse fill="white" stroke="black" cx="651" cy="-31" rx="27" ry="27"/>
</g>
<!-- 1990979716112&#45;&gt;1990979717552 -->
<g id="edge6" class="edge">
<title>1990979716112&#45;&gt;1990979717552</title>
<path fill="none" stroke="black" d="M588.23,-31C596.18,-31 604.42,-31 612.2,-31"/>
<polygon fill="black" stroke="black" points="612.04,-34.5 622.04,-31 612.04,-27.5 612.04,-34.5"/>
</g>
<!-- 1990979721152 -->
<g id="node4" class="node">
<title>1990979721152</title>
<polygon fill="white" stroke="black" points="796.75,-49 714,-49 714,-13 796.75,-13 796.75,-49"/>
<text text-anchor="middle" x="755.38" y="-25.98" font-family="Times New Roman,serif" font-size="12.00">Climate Setup</text>
</g>
<!-- 1990979722976 -->
<g id="node20" class="node">
<title>1990979722976</title>
<ellipse fill="white" stroke="black" cx="859.75" cy="-31" rx="27" ry="27"/>
</g>
<!-- 1990979721152&#45;&gt;1990979722976 -->
<g id="edge8" class="edge">
<title>1990979721152&#45;&gt;1990979722976</title>
<path fill="none" stroke="black" d="M797.13,-31C804.98,-31 813.17,-31 820.92,-31"/>
<polygon fill="black" stroke="black" points="820.74,-34.5 830.74,-31 820.74,-27.5 820.74,-34.5"/>
</g>
<!-- 1990981089952 -->
<g id="node5" class="node">
<title>1990981089952</title>
<polygon fill="white" stroke="black" points="1002.5,-49 922.75,-49 922.75,-13 1002.5,-13 1002.5,-49"/>
<text text-anchor="middle" x="962.62" y="-25.98" font-family="Times New Roman,serif" font-size="12.00">Sensor Install</text>
</g>
<!-- 1990981088224 -->
<g id="node21" class="node">
<title>1990981088224</title>
<ellipse fill="white" stroke="black" cx="1065.5" cy="-31" rx="27" ry="27"/>
</g>
<!-- 1990981089952&#45;&gt;1990981088224 -->
<g id="edge10" class="edge">
<title>1990981089952&#45;&gt;1990981088224</title>
<path fill="none" stroke="black" d="M1002.91,-31C1010.78,-31 1019.02,-31 1026.82,-31"/>
<polygon fill="black" stroke="black" points="1026.72,-34.5 1036.72,-31 1026.72,-27.5 1026.72,-34.5"/>
</g>
<!-- 1990981077328 -->
<g id="node6" class="node">
<title>1990981077328</title>
<polygon fill="white" stroke="black" points="1213.5,-49 1128.5,-49 1128.5,-13 1213.5,-13 1213.5,-49"/>
<text text-anchor="middle" x="1171" y="-25.98" font-family="Times New Roman,serif" font-size="12.00">Nutrient Setup</text>
</g>
<!-- 1990981082896 -->
<g id="node22" class="node">
<title>1990981082896</title>
<ellipse fill="white" stroke="black" cx="1276.5" cy="-31" rx="27" ry="27"/>
</g>
<!-- 1990981077328&#45;&gt;1990981082896 -->
<g id="edge12" class="edge">
<title>1990981077328&#45;&gt;1990981082896</title>
<path fill="none" stroke="black" d="M1213.8,-31C1221.7,-31 1229.92,-31 1237.68,-31"/>
<polygon fill="black" stroke="black" points="1237.51,-34.5 1247.51,-31 1237.51,-27.5 1237.51,-34.5"/>
</g>
<!-- 1990981086832 -->
<g id="node7" class="node">
<title>1990981086832</title>
<polygon fill="white" stroke="black" points="1421.5,-49 1339.5,-49 1339.5,-13 1421.5,-13 1421.5,-49"/>
<text text-anchor="middle" x="1380.5" y="-25.98" font-family="Times New Roman,serif" font-size="12.00">Staff Training</text>
</g>
<!-- 1990981081744 -->
<g id="node23" class="node">
<title>1990981081744</title>
<ellipse fill="white" stroke="black" cx="1484.5" cy="-31" rx="27" ry="27"/>
</g>
<!-- 1990981086832&#45;&gt;1990981081744 -->
<g id="edge14" class="edge">
<title>1990981086832&#45;&gt;1990981081744</title>
<path fill="none" stroke="black" d="M1421.81,-31C1429.73,-31 1438,-31 1445.82,-31"/>
<polygon fill="black" stroke="black" points="1445.73,-34.5 1455.73,-31 1445.73,-27.5 1445.73,-34.5"/>
</g>
<!-- 1990981081648 -->
<g id="node8" class="node">
<title>1990981081648</title>
<polygon fill="white" stroke="black" points="1654.25,-49 1547.5,-49 1547.5,-13 1654.25,-13 1654.25,-49"/>
<text text-anchor="middle" x="1600.88" y="-25.98" font-family="Times New Roman,serif" font-size="12.00">Compliance Check</text>
</g>
<!-- 1990981076272 -->
<g id="node24" class="node">
<title>1990981076272</title>
<ellipse fill="white" stroke="black" cx="1717.25" cy="-31" rx="27" ry="27"/>
</g>
<!-- 1990981081648&#45;&gt;1990981076272 -->
<g id="edge16" class="edge">
<title>1990981081648&#45;&gt;1990981076272</title>
<path fill="none" stroke="black" d="M1654.71,-31C1662.7,-31 1670.8,-31 1678.39,-31"/>
<polygon fill="black" stroke="black" points="1678.29,-34.5 1688.29,-31 1678.29,-27.5 1678.29,-34.5"/>
</g>
<!-- 1990981081216 -->
<g id="node9" class="node">
<title>1990981081216</title>
<polygon fill="white" stroke="black" points="1848.75,-49 1780.25,-49 1780.25,-13 1848.75,-13 1848.75,-49"/>
<text text-anchor="middle" x="1814.5" y="-25.98" font-family="Times New Roman,serif" font-size="12.00">Pilot Grow</text>
</g>
<!-- 1990981531360 -->
<g id="node25" class="node">
<title>1990981531360</title>
<ellipse fill="white" stroke="black" cx="1911.75" cy="-31" rx="27" ry="27"/>
</g>
<!-- 1990981081216&#45;&gt;1990981531360 -->
<g id="edge18" class="edge">
<title>1990981081216&#45;&gt;1990981531360</title>
<path fill="none" stroke="black" d="M1849.08,-31C1856.85,-31 1865.18,-31 1873.11,-31"/>
<polygon fill="black" stroke="black" points="1872.83,-34.5 1882.83,-31 1872.83,-27.5 1872.83,-34.5"/>
</g>
<!-- 1990981530880 -->
<g id="node10" class="node">
<title>1990981530880</title>
<polygon fill="white" stroke="black" points="2059.75,-49 1974.75,-49 1974.75,-13 2059.75,-13 2059.75,-49"/>
<text text-anchor="middle" x="2017.25" y="-25.98" font-family="Times New Roman,serif" font-size="12.00">Yield Analyze</text>
</g>
<!-- 1990981517536 -->
<g id="node26" class="node">
<title>1990981517536</title>
<ellipse fill="white" stroke="black" cx="2122.75" cy="-31" rx="27" ry="27"/>
</g>
<!-- 1990981530880&#45;&gt;1990981517536 -->
<g id="edge20" class="edge">
<title>1990981530880&#45;&gt;1990981517536</title>
<path fill="none" stroke="black" d="M2060.05,-31C2067.95,-31 2076.17,-31 2083.93,-31"/>
<polygon fill="black" stroke="black" points="2083.76,-34.5 2093.76,-31 2083.76,-27.5 2083.76,-34.5"/>
</g>
<!-- 1990981523920 -->
<g id="node11" class="node">
<title>1990981523920</title>
<polygon fill="white" stroke="black" points="2272.25,-49 2185.75,-49 2185.75,-13 2272.25,-13 2272.25,-49"/>
<text text-anchor="middle" x="2229" y="-25.98" font-family="Times New Roman,serif" font-size="12.00">Waste Manage</text>
</g>
<!-- 1990981526224 -->
<g id="node27" class="node">
<title>1990981526224</title>
<ellipse fill="white" stroke="black" cx="2335.25" cy="-31" rx="27" ry="27"/>
</g>
<!-- 1990981523920&#45;&gt;1990981526224 -->
<g id="edge22" class="edge">
<title>1990981523920&#45;&gt;1990981526224</title>
<path fill="none" stroke="black" d="M2272.7,-31C2280.62,-31 2288.84,-31 2296.59,-31"/>
<polygon fill="black" stroke="black" points="2296.39,-34.5 2306.39,-31 2296.39,-27.5 2296.39,-34.5"/>
</g>
<!-- 1990981531216 -->
<g id="node12" class="node">
<title>1990981531216</title>
<polygon fill="white" stroke="black" points="2478.75,-49 2398.25,-49 2398.25,-13 2478.75,-13 2478.75,-49"/>
<text text-anchor="middle" x="2438.5" y="-25.98" font-family="Times New Roman,serif" font-size="12.00">Energy Audit</text>
</g>
<!-- 1990971621792 -->
<g id="node28" class="node">
<title>1990971621792</title>
<ellipse fill="white" stroke="black" cx="2541.75" cy="-31" rx="27" ry="27"/>
</g>
<!-- 1990981531216&#45;&gt;1990971621792 -->
<g id="edge24" class="edge">
<title>1990981531216&#45;&gt;1990971621792</title>
<path fill="none" stroke="black" d="M2479.23,-31C2487.1,-31 2495.34,-31 2503.14,-31"/>
<polygon fill="black" stroke="black" points="2503.02,-34.5 2513.02,-31 2503.02,-27.5 2503.02,-34.5"/>
</g>
<!-- 1990971625152 -->
<g id="node13" class="node">
<title>1990971625152</title>
<polygon fill="white" stroke="black" points="2693.5,-49 2604.75,-49 2604.75,-13 2693.5,-13 2693.5,-49"/>
<text text-anchor="middle" x="2649.12" y="-25.98" font-family="Times New Roman,serif" font-size="12.00">Marketing Plan</text>
</g>
<!-- 1990971635616 -->
<g id="node29" class="node">
<title>1990971635616</title>
<ellipse fill="white" stroke="black" cx="2756.5" cy="-31" rx="27" ry="27"/>
</g>
<!-- 1990971625152&#45;&gt;1990971635616 -->
<g id="edge26" class="edge">
<title>1990971625152&#45;&gt;1990971635616</title>
<path fill="none" stroke="black" d="M2693.9,-31C2701.86,-31 2710.1,-31 2717.86,-31"/>
<polygon fill="black" stroke="black" points="2717.67,-34.5 2727.67,-31 2717.67,-27.5 2717.67,-34.5"/>
</g>
<!-- 1990971629376 -->
<g id="node14" class="node">
<title>1990971629376</title>
<polygon fill="white" stroke="black" points="2920.25,-49 2819.5,-49 2819.5,-13 2920.25,-13 2920.25,-49"/>
<text text-anchor="middle" x="2869.88" y="-25.98" font-family="Times New Roman,serif" font-size="12.00">Maintenance Plan</text>
</g>
<!-- 1990971623232 -->
<g id="node30" class="node">
<title>1990971623232</title>
<ellipse fill="white" stroke="black" cx="2983.25" cy="-31" rx="27" ry="27"/>
</g>
<!-- 1990971629376&#45;&gt;1990971623232 -->
<g id="edge28" class="edge">
<title>1990971629376&#45;&gt;1990971623232</title>
<path fill="none" stroke="black" d="M2920.7,-31C2928.68,-31 2936.83,-31 2944.47,-31"/>
<polygon fill="black" stroke="black" points="2944.45,-34.5 2954.45,-31 2944.45,-27.5 2944.45,-34.5"/>
</g>
<!-- 1990971634320 -->
<g id="node15" class="node">
<title>1990971634320</title>
<polygon fill="white" stroke="black" points="3129.75,-49 3046.25,-49 3046.25,-13 3129.75,-13 3129.75,-49"/>
<text text-anchor="middle" x="3088" y="-25.98" font-family="Times New Roman,serif" font-size="12.00">Scale Strategy</text>
</g>
<!-- 1990976967008 -->
<g id="node31" class="node">
<title>1990976967008</title>
<ellipse fill="white" stroke="black" cx="3196.75" cy="-31" rx="27" ry="27"/>
<ellipse fill="none" stroke="black" cx="3196.75" cy="-31" rx="31" ry="31"/>
<text text-anchor="start" x="3180.25" y="-15.6" font-family="Times New Roman,serif" font-size="32.00">■</text>
</g>
<!-- 1990971634320&#45;&gt;1990976967008 -->
<g id="edge30" class="edge">
<title>1990971634320&#45;&gt;1990976967008</title>
<path fill="none" stroke="black" d="M3129.97,-31C3137.87,-31 3146.15,-31 3154.08,-31"/>
<polygon fill="black" stroke="black" points="3153.82,-34.5 3163.82,-31 3153.82,-27.5 3153.82,-34.5"/>
</g>
<!-- 1990976974496 -->
<g id="node16" class="node">
<title>1990976974496</title>
<ellipse fill="white" stroke="black" cx="27" cy="-31" rx="27" ry="27"/>
<text text-anchor="start" x="9.75" y="-13.7" font-family="Times New Roman,serif" font-size="34.00">●</text>
</g>
<!-- 1990976974496&#45;&gt;1990979725424 -->
<g id="edge1" class="edge">
<title>1990976974496&#45;&gt;1990979725424</title>
<path fill="none" stroke="black" d="M54.33,-31C61.76,-31 70.06,-31 78.28,-31"/>
<polygon fill="black" stroke="black" points="78.24,-34.5 88.24,-31 78.24,-27.5 78.24,-34.5"/>
</g>
<!-- 1990979720432&#45;&gt;1990979724704 -->
<g id="edge3" class="edge">
<title>1990979720432&#45;&gt;1990979724704</title>
<path fill="none" stroke="black" d="M251.25,-31C258.6,-31 266.86,-31 275.19,-31"/>
<polygon fill="black" stroke="black" points="275,-34.5 285,-31 275,-27.5 275,-34.5"/>
</g>
<!-- 1990979727152&#45;&gt;1990979716112 -->
<g id="edge5" class="edge">
<title>1990979727152&#45;&gt;1990979716112</title>
<path fill="none" stroke="black" d="M465.15,-31C472.48,-31 480.71,-31 489.01,-31"/>
<polygon fill="black" stroke="black" points="488.78,-34.5 498.78,-31 488.78,-27.5 488.78,-34.5"/>
</g>
<!-- 1990979717552&#45;&gt;1990979721152 -->
<g id="edge7" class="edge">
<title>1990979717552&#45;&gt;1990979721152</title>
<path fill="none" stroke="black" d="M678.36,-31C685.78,-31 694.11,-31 702.46,-31"/>
<polygon fill="black" stroke="black" points="702.27,-34.5 712.27,-31 702.27,-27.5 702.27,-34.5"/>
</g>
<!-- 1990979722976&#45;&gt;1990981089952 -->
<g id="edge9" class="edge">
<title>1990979722976&#45;&gt;1990981089952</title>
<path fill="none" stroke="black" d="M886.99,-31C894.46,-31 902.85,-31 911.24,-31"/>
<polygon fill="black" stroke="black" points="911.08,-34.5 921.08,-31 911.08,-27.5 911.08,-34.5"/>
</g>
<!-- 1990981088224&#45;&gt;1990981077328 -->
<g id="edge11" class="edge">
<title>1990981088224&#45;&gt;1990981077328</title>
<path fill="none" stroke="black" d="M1092.89,-31C1100.3,-31 1108.63,-31 1117.01,-31"/>
<polygon fill="black" stroke="black" points="1116.86,-34.5 1126.86,-31 1116.86,-27.5 1116.86,-34.5"/>
</g>
<!-- 1990981082896&#45;&gt;1990981086832 -->
<g id="edge13" class="edge">
<title>1990981082896&#45;&gt;1990981086832</title>
<path fill="none" stroke="black" d="M1303.77,-31C1311.15,-31 1319.45,-31 1327.78,-31"/>
<polygon fill="black" stroke="black" points="1327.55,-34.5 1337.55,-31 1327.55,-27.5 1327.55,-34.5"/>
</g>
<!-- 1990981081744&#45;&gt;1990981081648 -->
<g id="edge15" class="edge">
<title>1990981081744&#45;&gt;1990981081648</title>
<path fill="none" stroke="black" d="M1511.74,-31C1519.08,-31 1527.39,-31 1535.9,-31"/>
<polygon fill="black" stroke="black" points="1535.63,-34.5 1545.63,-31 1535.63,-27.5 1535.63,-34.5"/>
</g>
<!-- 1990981076272&#45;&gt;1990981081216 -->
<g id="edge17" class="edge">
<title>1990981076272&#45;&gt;1990981081216</title>
<path fill="none" stroke="black" d="M1744.53,-31C1751.94,-31 1760.22,-31 1768.4,-31"/>
<polygon fill="black" stroke="black" points="1768.28,-34.5 1778.28,-31 1768.28,-27.5 1768.28,-34.5"/>
</g>
<!-- 1990981531360&#45;&gt;1990981530880 -->
<g id="edge19" class="edge">
<title>1990981531360&#45;&gt;1990981530880</title>
<path fill="none" stroke="black" d="M1939.14,-31C1946.55,-31 1954.88,-31 1963.26,-31"/>
<polygon fill="black" stroke="black" points="1963.11,-34.5 1973.11,-31 1963.11,-27.5 1963.11,-34.5"/>
</g>
<!-- 1990981517536&#45;&gt;1990981523920 -->
<g id="edge21" class="edge">
<title>1990981517536&#45;&gt;1990981523920</title>
<path fill="none" stroke="black" d="M2150.06,-31C2157.44,-31 2165.74,-31 2174.11,-31"/>
<polygon fill="black" stroke="black" points="2173.96,-34.5 2183.96,-31 2173.96,-27.5 2173.96,-34.5"/>
</g>
<!-- 1990981526224&#45;&gt;1990981531216 -->
<g id="edge23" class="edge">
<title>1990981526224&#45;&gt;1990981531216</title>
<path fill="none" stroke="black" d="M2362.59,-31C2370,-31 2378.32,-31 2386.65,-31"/>
<polygon fill="black" stroke="black" points="2386.42,-34.5 2396.42,-31 2386.42,-27.5 2386.42,-34.5"/>
</g>
<!-- 1990971621792&#45;&gt;1990971625152 -->
<g id="edge25" class="edge">
<title>1990971621792&#45;&gt;1990971625152</title>
<path fill="none" stroke="black" d="M2569.07,-31C2576.44,-31 2584.75,-31 2593.13,-31"/>
<polygon fill="black" stroke="black" points="2593.02,-34.5 2603.02,-31 2593.02,-27.5 2593.02,-34.5"/>
</g>
<!-- 1990971635616&#45;&gt;1990971629376 -->
<g id="edge27" class="edge">
<title>1990971635616&#45;&gt;1990971629376</title>
<path fill="none" stroke="black" d="M2783.89,-31C2791.15,-31 2799.33,-31 2807.67,-31"/>
<polygon fill="black" stroke="black" points="2807.57,-34.5 2817.57,-31 2807.57,-27.5 2807.57,-34.5"/>
</g>
<!-- 1990971623232&#45;&gt;1990971634320 -->
<g id="edge29" class="edge">
<title>1990971623232&#45;&gt;1990971634320</title>
<path fill="none" stroke="black" d="M3010.71,-31C3018.07,-31 3026.33,-31 3034.62,-31"/>
<polygon fill="black" stroke="black" points="3034.36,-34.5 3044.36,-31 3034.36,-27.5 3034.36,-34.5"/>
</g>
</g>
</svg>
