<?xml version="1.0" encoding="UTF-8" standalone="no"?>
<!DOCTYPE svg PUBLIC "-//W3C//DTD SVG 1.1//EN"
 "http://www.w3.org/Graphics/SVG/1.1/DTD/svg11.dtd">
<!-- Generated by graphviz version 11.0.0 (20240428.1522)
 -->
<!-- Title: imdf_net_1754051724.2658613 Pages: 1 -->
<svg width="2295pt" height="278pt"
 viewBox="0.00 0.00 2294.75 278.00" xmlns="http://www.w3.org/2000/svg" xmlns:xlink="http://www.w3.org/1999/xlink">
<g id="graph0" class="graph" transform="scale(1 1) rotate(0) translate(4 274)">
<title>imdf_net_1754051724.2658613</title>
<polygon fill="white" stroke="none" points="-4,4 -4,-274 2290.75,-274 2290.75,4 -4,4"/>
<!-- 1990979788896 -->
<g id="node1" class="node">
<title>1990979788896</title>
<polygon fill="white" stroke="black" points="178,-153 90,-153 90,-117 178,-117 178,-153"/>
<text text-anchor="middle" x="134" y="-129.97" font-family="Times New Roman,serif" font-size="12.00">Source Artifact</text>
</g>
<!-- 1990979792688 -->
<g id="node18" class="node">
<title>1990979792688</title>
<ellipse fill="white" stroke="black" cx="241" cy="-135" rx="27" ry="27"/>
</g>
<!-- 1990979788896&#45;&gt;1990979792688 -->
<g id="edge2" class="edge">
<title>1990979788896&#45;&gt;1990979792688</title>
<path fill="none" stroke="black" d="M178.31,-135C186.27,-135 194.51,-135 202.28,-135"/>
<polygon fill="black" stroke="black" points="202.1,-138.5 212.1,-135 202.1,-131.5 202.1,-138.5"/>
</g>
<!-- 1990979784000 -->
<g id="node2" class="node">
<title>1990979784000</title>
<polygon fill="white" stroke="black" points="398.75,-153 304,-153 304,-117 398.75,-117 398.75,-153"/>
<text text-anchor="middle" x="351.38" y="-129.97" font-family="Times New Roman,serif" font-size="12.00">Initial Inspection</text>
</g>
<!-- 1990979788464 -->
<g id="node19" class="node">
<title>1990979788464</title>
<ellipse fill="white" stroke="black" cx="461.75" cy="-243" rx="27" ry="27"/>
</g>
<!-- 1990979784000&#45;&gt;1990979788464 -->
<g id="edge5" class="edge">
<title>1990979784000&#45;&gt;1990979788464</title>
<path fill="none" stroke="black" d="M370.76,-153.32C388.09,-170.59 414.27,-196.68 433.93,-216.27"/>
<polygon fill="black" stroke="black" points="431.29,-218.58 440.84,-223.16 436.23,-213.62 431.29,-218.58"/>
</g>
<!-- 1990979792304 -->
<g id="node20" class="node">
<title>1990979792304</title>
<ellipse fill="white" stroke="black" cx="461.75" cy="-171" rx="27" ry="27"/>
</g>
<!-- 1990979784000&#45;&gt;1990979792304 -->
<g id="edge7" class="edge">
<title>1990979784000&#45;&gt;1990979792304</title>
<path fill="none" stroke="black" d="M398.96,-150.48C407.64,-153.36 416.58,-156.33 424.88,-159.08"/>
<polygon fill="black" stroke="black" points="423.67,-162.37 434.26,-162.2 425.88,-155.73 423.67,-162.37"/>
</g>
<!-- 1990971518816 -->
<g id="node21" class="node">
<title>1990971518816</title>
<ellipse fill="white" stroke="black" cx="461.75" cy="-99" rx="27" ry="27"/>
</g>
<!-- 1990979784000&#45;&gt;1990971518816 -->
<g id="edge6" class="edge">
<title>1990979784000&#45;&gt;1990971518816</title>
<path fill="none" stroke="black" d="M398.96,-119.52C407.64,-116.64 416.58,-113.67 424.88,-110.92"/>
<polygon fill="black" stroke="black" points="425.88,-114.27 434.26,-107.8 423.67,-107.63 425.88,-114.27"/>
</g>
<!-- 1990971508976 -->
<g id="node22" class="node">
<title>1990971508976</title>
<ellipse fill="white" stroke="black" cx="461.75" cy="-27" rx="27" ry="27"/>
</g>
<!-- 1990979784000&#45;&gt;1990971508976 -->
<g id="edge4" class="edge">
<title>1990979784000&#45;&gt;1990971508976</title>
<path fill="none" stroke="black" d="M370.76,-116.68C388.09,-99.41 414.27,-73.32 433.93,-53.73"/>
<polygon fill="black" stroke="black" points="436.23,-56.38 440.84,-46.84 431.29,-51.42 436.23,-56.38"/>
</g>
<!-- 1990971516560 -->
<g id="node3" class="node">
<title>1990971516560</title>
<polygon fill="white" stroke="black" points="626.62,-45 528.12,-45 528.12,-9 626.62,-9 626.62,-45"/>
<text text-anchor="middle" x="577.38" y="-21.98" font-family="Times New Roman,serif" font-size="12.00">Condition Report</text>
</g>
<!-- 1990971511424 -->
<g id="node23" class="node">
<title>1990971511424</title>
<ellipse fill="white" stroke="black" cx="693" cy="-27" rx="27" ry="27"/>
</g>
<!-- 1990971516560&#45;&gt;1990971511424 -->
<g id="edge12" class="edge">
<title>1990971516560&#45;&gt;1990971511424</title>
<path fill="none" stroke="black" d="M626.89,-27C636.01,-27 645.43,-27 654.17,-27"/>
<polygon fill="black" stroke="black" points="654.06,-30.5 664.06,-27 654.06,-23.5 654.06,-30.5"/>
</g>
<!-- 1990979787984 -->
<g id="node4" class="node">
<title>1990979787984</title>
<polygon fill="white" stroke="black" points="630,-261 524.75,-261 524.75,-225 630,-225 630,-261"/>
<text text-anchor="middle" x="577.38" y="-237.97" font-family="Times New Roman,serif" font-size="12.00">Provenance Check</text>
</g>
<!-- 1990971507440 -->
<g id="node26" class="node">
<title>1990971507440</title>
<ellipse fill="white" stroke="black" cx="693" cy="-243" rx="27" ry="27"/>
</g>
<!-- 1990979787984&#45;&gt;1990971507440 -->
<g id="edge13" class="edge">
<title>1990979787984&#45;&gt;1990971507440</title>
<path fill="none" stroke="black" d="M630.2,-243C638.36,-243 646.66,-243 654.42,-243"/>
<polygon fill="black" stroke="black" points="654.18,-246.5 664.18,-243 654.18,-239.5 654.18,-246.5"/>
</g>
<!-- 1990971350128 -->
<g id="node5" class="node">
<title>1990971350128</title>
<polygon fill="white" stroke="black" points="624,-189 530.75,-189 530.75,-153 624,-153 624,-189"/>
<text text-anchor="middle" x="577.38" y="-165.97" font-family="Times New Roman,serif" font-size="12.00">Material Testing</text>
</g>
<!-- 1990971513536 -->
<g id="node24" class="node">
<title>1990971513536</title>
<ellipse fill="white" stroke="black" cx="693" cy="-171" rx="27" ry="27"/>
</g>
<!-- 1990971350128&#45;&gt;1990971513536 -->
<g id="edge15" class="edge">
<title>1990971350128&#45;&gt;1990971513536</title>
<path fill="none" stroke="black" d="M624.26,-171C634.25,-171 644.7,-171 654.32,-171"/>
<polygon fill="black" stroke="black" points="654.05,-174.5 664.05,-171 654.05,-167.5 654.05,-174.5"/>
</g>
<!-- 1990971510896 -->
<g id="node6" class="node">
<title>1990971510896</title>
<polygon fill="white" stroke="black" points="619.5,-117 535.25,-117 535.25,-81 619.5,-81 619.5,-117"/>
<text text-anchor="middle" x="577.38" y="-93.97" font-family="Times New Roman,serif" font-size="12.00">Cultural Audit</text>
</g>
<!-- 1990971521600 -->
<g id="node25" class="node">
<title>1990971521600</title>
<ellipse fill="white" stroke="black" cx="693" cy="-99" rx="27" ry="27"/>
</g>
<!-- 1990971510896&#45;&gt;1990971521600 -->
<g id="edge14" class="edge">
<title>1990971510896&#45;&gt;1990971521600</title>
<path fill="none" stroke="black" d="M619.72,-99C630.99,-99 643.15,-99 654.22,-99"/>
<polygon fill="black" stroke="black" points="654.19,-102.5 664.19,-99 654.19,-95.5 654.19,-102.5"/>
</g>
<!-- 1990971515504 -->
<g id="node7" class="node">
<title>1990971515504</title>
<polygon fill="white" stroke="black" points="843.25,-153 756,-153 756,-117 843.25,-117 843.25,-153"/>
<text text-anchor="middle" x="799.62" y="-129.97" font-family="Times New Roman,serif" font-size="12.00">Expert Review</text>
</g>
<!-- 1990971509792 -->
<g id="node27" class="node">
<title>1990971509792</title>
<ellipse fill="white" stroke="black" cx="906.25" cy="-171" rx="27" ry="27"/>
</g>
<!-- 1990971515504&#45;&gt;1990971509792 -->
<g id="edge21" class="edge">
<title>1990971515504&#45;&gt;1990971509792</title>
<path fill="none" stroke="black" d="M843.48,-149.75C852.19,-152.74 861.27,-155.87 869.69,-158.76"/>
<polygon fill="black" stroke="black" points="868.28,-161.98 878.88,-161.93 870.56,-155.36 868.28,-161.98"/>
</g>
<!-- 1990971513824 -->
<g id="node28" class="node">
<title>1990971513824</title>
<ellipse fill="white" stroke="black" cx="906.25" cy="-99" rx="27" ry="27"/>
</g>
<!-- 1990971515504&#45;&gt;1990971513824 -->
<g id="edge20" class="edge">
<title>1990971515504&#45;&gt;1990971513824</title>
<path fill="none" stroke="black" d="M843.48,-120.25C852.19,-117.26 861.27,-114.13 869.69,-111.24"/>
<polygon fill="black" stroke="black" points="870.56,-114.64 878.88,-108.07 868.28,-108.02 870.56,-114.64"/>
</g>
<!-- 1990971515600 -->
<g id="node8" class="node">
<title>1990971515600</title>
<polygon fill="white" stroke="black" points="1064.75,-117 971.5,-117 971.5,-81 1064.75,-81 1064.75,-117"/>
<text text-anchor="middle" x="1018.12" y="-93.97" font-family="Times New Roman,serif" font-size="12.00">Legal Clearance</text>
</g>
<!-- 1990979570624 -->
<g id="node30" class="node">
<title>1990979570624</title>
<ellipse fill="white" stroke="black" cx="1130" cy="-99" rx="27" ry="27"/>
</g>
<!-- 1990971515600&#45;&gt;1990979570624 -->
<g id="edge24" class="edge">
<title>1990971515600&#45;&gt;1990979570624</title>
<path fill="none" stroke="black" d="M1065.09,-99C1073.8,-99 1082.82,-99 1091.25,-99"/>
<polygon fill="black" stroke="black" points="1091.15,-102.5 1101.15,-99 1091.15,-95.5 1091.15,-102.5"/>
</g>
<!-- 1990971512048 -->
<g id="node9" class="node">
<title>1990971512048</title>
<polygon fill="white" stroke="black" points="1067,-189 969.25,-189 969.25,-153 1067,-153 1067,-189"/>
<text text-anchor="middle" x="1018.12" y="-165.97" font-family="Times New Roman,serif" font-size="12.00">Forgery Analysis</text>
</g>
<!-- 1990979572640 -->
<g id="node29" class="node">
<title>1990979572640</title>
<ellipse fill="white" stroke="black" cx="1130" cy="-171" rx="27" ry="27"/>
</g>
<!-- 1990971512048&#45;&gt;1990979572640 -->
<g id="edge25" class="edge">
<title>1990971512048&#45;&gt;1990979572640</title>
<path fill="none" stroke="black" d="M1067.32,-171C1075.36,-171 1083.6,-171 1091.32,-171"/>
<polygon fill="black" stroke="black" points="1091.06,-174.5 1101.06,-171 1091.06,-167.5 1091.06,-174.5"/>
</g>
<!-- 1990971516752 -->
<g id="node10" class="node">
<title>1990971516752</title>
<polygon fill="white" stroke="black" points="1281.75,-153 1193,-153 1193,-117 1281.75,-117 1281.75,-153"/>
<text text-anchor="middle" x="1237.38" y="-129.97" font-family="Times New Roman,serif" font-size="12.00">Documentation</text>
</g>
<!-- 1990971519824 -->
<g id="node31" class="node">
<title>1990971519824</title>
<ellipse fill="white" stroke="black" cx="1344.75" cy="-207" rx="27" ry="27"/>
</g>
<!-- 1990971516752&#45;&gt;1990971519824 -->
<g id="edge29" class="edge">
<title>1990971516752&#45;&gt;1990971519824</title>
<path fill="none" stroke="black" d="M1265.24,-153.35C1279.64,-163.2 1297.47,-175.38 1312.5,-185.64"/>
<polygon fill="black" stroke="black" points="1310.42,-188.46 1320.65,-191.22 1314.37,-182.69 1310.42,-188.46"/>
</g>
<!-- 1990971507296 -->
<g id="node32" class="node">
<title>1990971507296</title>
<ellipse fill="white" stroke="black" cx="1344.75" cy="-135" rx="27" ry="27"/>
</g>
<!-- 1990971516752&#45;&gt;1990971507296 -->
<g id="edge28" class="edge">
<title>1990971516752&#45;&gt;1990971507296</title>
<path fill="none" stroke="black" d="M1282.15,-135C1290.11,-135 1298.35,-135 1306.11,-135"/>
<polygon fill="black" stroke="black" points="1305.92,-138.5 1315.92,-135 1305.92,-131.5 1305.92,-138.5"/>
</g>
<!-- 1990971516128 -->
<g id="node33" class="node">
<title>1990971516128</title>
<ellipse fill="white" stroke="black" cx="1344.75" cy="-63" rx="27" ry="27"/>
</g>
<!-- 1990971516752&#45;&gt;1990971516128 -->
<g id="edge30" class="edge">
<title>1990971516752&#45;&gt;1990971516128</title>
<path fill="none" stroke="black" d="M1265.24,-116.65C1279.64,-106.8 1297.47,-94.62 1312.5,-84.36"/>
<polygon fill="black" stroke="black" points="1314.37,-87.31 1320.65,-78.78 1310.42,-81.54 1314.37,-87.31"/>
</g>
<!-- 1990971512576 -->
<g id="node11" class="node">
<title>1990971512576</title>
<polygon fill="white" stroke="black" points="1502.12,-81 1414.12,-81 1414.12,-45 1502.12,-45 1502.12,-81"/>
<text text-anchor="middle" x="1458.12" y="-57.98" font-family="Times New Roman,serif" font-size="12.00">Customs Filing</text>
</g>
<!-- 1990979581952 -->
<g id="node34" class="node">
<title>1990979581952</title>
<ellipse fill="white" stroke="black" cx="1571.5" cy="-63" rx="27" ry="27"/>
</g>
<!-- 1990971512576&#45;&gt;1990979581952 -->
<g id="edge34" class="edge">
<title>1990971512576&#45;&gt;1990979581952</title>
<path fill="none" stroke="black" d="M1502.5,-63C1512.49,-63 1523.03,-63 1532.76,-63"/>
<polygon fill="black" stroke="black" points="1532.61,-66.5 1542.61,-63 1532.61,-59.5 1532.61,-66.5"/>
</g>
<!-- 1990971517136 -->
<g id="node12" class="node">
<title>1990971517136</title>
<polygon fill="white" stroke="black" points="1504,-153 1412.25,-153 1412.25,-117 1504,-117 1504,-153"/>
<text text-anchor="middle" x="1458.12" y="-129.97" font-family="Times New Roman,serif" font-size="12.00">Insurance Setup</text>
</g>
<!-- 1990979576336 -->
<g id="node36" class="node">
<title>1990979576336</title>
<ellipse fill="white" stroke="black" cx="1571.5" cy="-135" rx="27" ry="27"/>
</g>
<!-- 1990971517136&#45;&gt;1990979576336 -->
<g id="edge35" class="edge">
<title>1990971517136&#45;&gt;1990979576336</title>
<path fill="none" stroke="black" d="M1504.43,-135C1513.81,-135 1523.59,-135 1532.67,-135"/>
<polygon fill="black" stroke="black" points="1532.59,-138.5 1542.59,-135 1532.59,-131.5 1532.59,-138.5"/>
</g>
<!-- 1990971509984 -->
<g id="node13" class="node">
<title>1990971509984</title>
<polygon fill="white" stroke="black" points="1508.5,-225 1407.75,-225 1407.75,-189 1508.5,-189 1508.5,-225"/>
<text text-anchor="middle" x="1458.12" y="-201.97" font-family="Times New Roman,serif" font-size="12.00">Secure Packaging</text>
</g>
<!-- 1990979572352 -->
<g id="node35" class="node">
<title>1990979572352</title>
<ellipse fill="white" stroke="black" cx="1571.5" cy="-207" rx="27" ry="27"/>
</g>
<!-- 1990971509984&#45;&gt;1990979572352 -->
<g id="edge36" class="edge">
<title>1990971509984&#45;&gt;1990979572352</title>
<path fill="none" stroke="black" d="M1508.95,-207C1516.93,-207 1525.08,-207 1532.72,-207"/>
<polygon fill="black" stroke="black" points="1532.7,-210.5 1542.7,-207 1532.7,-203.5 1532.7,-210.5"/>
</g>
<!-- 1990971508304 -->
<g id="node14" class="node">
<title>1990971508304</title>
<polygon fill="white" stroke="black" points="1741.25,-153 1634.5,-153 1634.5,-117 1741.25,-117 1741.25,-153"/>
<text text-anchor="middle" x="1687.88" y="-129.97" font-family="Times New Roman,serif" font-size="12.00">Transport Planning</text>
</g>
<!-- 1990971518288 -->
<g id="node37" class="node">
<title>1990971518288</title>
<ellipse fill="white" stroke="black" cx="1804.25" cy="-135" rx="27" ry="27"/>
</g>
<!-- 1990971508304&#45;&gt;1990971518288 -->
<g id="edge40" class="edge">
<title>1990971508304&#45;&gt;1990971518288</title>
<path fill="none" stroke="black" d="M1741.71,-135C1749.7,-135 1757.8,-135 1765.39,-135"/>
<polygon fill="black" stroke="black" points="1765.29,-138.5 1775.29,-135 1765.29,-131.5 1765.29,-138.5"/>
</g>
<!-- 1990980241504 -->
<g id="node15" class="node">
<title>1990980241504</title>
<polygon fill="white" stroke="black" points="1955.25,-153 1867.25,-153 1867.25,-117 1955.25,-117 1955.25,-153"/>
<text text-anchor="middle" x="1911.25" y="-129.97" font-family="Times New Roman,serif" font-size="12.00">Final Approval</text>
</g>
<!-- 1990971519968 -->
<g id="node38" class="node">
<title>1990971519968</title>
<ellipse fill="white" stroke="black" cx="2018.25" cy="-135" rx="27" ry="27"/>
</g>
<!-- 1990980241504&#45;&gt;1990971519968 -->
<g id="edge42" class="edge">
<title>1990980241504&#45;&gt;1990971519968</title>
<path fill="none" stroke="black" d="M1955.56,-135C1963.52,-135 1971.76,-135 1979.53,-135"/>
<polygon fill="black" stroke="black" points="1979.35,-138.5 1989.35,-135 1979.35,-131.5 1979.35,-138.5"/>
</g>
<!-- 1990971523040 -->
<g id="node16" class="node">
<title>1990971523040</title>
<polygon fill="white" stroke="black" points="2188.75,-153 2081.25,-153 2081.25,-117 2188.75,-117 2188.75,-153"/>
<text text-anchor="middle" x="2135" y="-129.97" font-family="Times New Roman,serif" font-size="12.00">Exhibit Preparation</text>
</g>
<!-- 1990971625200 -->
<g id="node39" class="node">
<title>1990971625200</title>
<ellipse fill="white" stroke="black" cx="2255.75" cy="-135" rx="27" ry="27"/>
<ellipse fill="none" stroke="black" cx="2255.75" cy="-135" rx="31" ry="31"/>
<text text-anchor="start" x="2239.25" y="-119.6" font-family="Times New Roman,serif" font-size="32.00">■</text>
</g>
<!-- 1990971523040&#45;&gt;1990971625200 -->
<g id="edge44" class="edge">
<title>1990971523040&#45;&gt;1990971625200</title>
<path fill="none" stroke="black" d="M2189.12,-135C2197.16,-135 2205.35,-135 2213.1,-135"/>
<polygon fill="black" stroke="black" points="2212.93,-138.5 2222.93,-135 2212.93,-131.5 2212.93,-138.5"/>
</g>
<!-- 1990971629184 -->
<g id="node17" class="node">
<title>1990971629184</title>
<ellipse fill="white" stroke="black" cx="27" cy="-135" rx="27" ry="27"/>
<text text-anchor="start" x="9.75" y="-117.7" font-family="Times New Roman,serif" font-size="34.00">●</text>
</g>
<!-- 1990971629184&#45;&gt;1990979788896 -->
<g id="edge1" class="edge">
<title>1990971629184&#45;&gt;1990979788896</title>
<path fill="none" stroke="black" d="M54.5,-135C61.85,-135 70.11,-135 78.44,-135"/>
<polygon fill="black" stroke="black" points="78.25,-138.5 88.25,-135 78.25,-131.5 78.25,-138.5"/>
</g>
<!-- 1990979792688&#45;&gt;1990979784000 -->
<g id="edge3" class="edge">
<title>1990979792688&#45;&gt;1990979784000</title>
<path fill="none" stroke="black" d="M268.23,-135C275.56,-135 283.82,-135 292.2,-135"/>
<polygon fill="black" stroke="black" points="292.13,-138.5 302.13,-135 292.13,-131.5 292.13,-138.5"/>
</g>
<!-- 1990979788464&#45;&gt;1990979787984 -->
<g id="edge9" class="edge">
<title>1990979788464&#45;&gt;1990979787984</title>
<path fill="none" stroke="black" d="M489.1,-243C496.49,-243 504.85,-243 513.4,-243"/>
<polygon fill="black" stroke="black" points="513.16,-246.5 523.16,-243 513.16,-239.5 513.16,-246.5"/>
</g>
<!-- 1990979792304&#45;&gt;1990971350128 -->
<g id="edge11" class="edge">
<title>1990979792304&#45;&gt;1990971350128</title>
<path fill="none" stroke="black" d="M489.1,-171C498.15,-171 508.67,-171 519.2,-171"/>
<polygon fill="black" stroke="black" points="519.06,-174.5 529.06,-171 519.06,-167.5 519.06,-174.5"/>
</g>
<!-- 1990971518816&#45;&gt;1990971510896 -->
<g id="edge10" class="edge">
<title>1990971518816&#45;&gt;1990971510896</title>
<path fill="none" stroke="black" d="M489.1,-99C499.44,-99 511.68,-99 523.68,-99"/>
<polygon fill="black" stroke="black" points="523.52,-102.5 533.52,-99 523.52,-95.5 523.52,-102.5"/>
</g>
<!-- 1990971508976&#45;&gt;1990971516560 -->
<g id="edge8" class="edge">
<title>1990971508976&#45;&gt;1990971516560</title>
<path fill="none" stroke="black" d="M489.1,-27C497.4,-27 506.92,-27 516.56,-27"/>
<polygon fill="black" stroke="black" points="516.34,-30.5 526.34,-27 516.34,-23.5 516.34,-30.5"/>
</g>
<!-- 1990971511424&#45;&gt;1990971515504 -->
<g id="edge19" class="edge">
<title>1990971511424&#45;&gt;1990971515504</title>
<path fill="none" stroke="black" d="M712.46,-46.06C729.33,-63.47 754.41,-89.36 773.18,-108.73"/>
<polygon fill="black" stroke="black" points="770.52,-111.02 779.99,-115.76 775.54,-106.15 770.52,-111.02"/>
</g>
<!-- 1990971513536&#45;&gt;1990971515504 -->
<g id="edge16" class="edge">
<title>1990971513536&#45;&gt;1990971515504</title>
<path fill="none" stroke="black" d="M719.06,-162.38C726.97,-159.66 736.03,-156.54 745.14,-153.4"/>
<polygon fill="black" stroke="black" points="746.04,-156.8 754.35,-150.23 743.76,-150.18 746.04,-156.8"/>
</g>
<!-- 1990971521600&#45;&gt;1990971515504 -->
<g id="edge18" class="edge">
<title>1990971521600&#45;&gt;1990971515504</title>
<path fill="none" stroke="black" d="M719.06,-107.62C726.97,-110.34 736.03,-113.46 745.14,-116.6"/>
<polygon fill="black" stroke="black" points="743.76,-119.82 754.35,-119.77 746.04,-113.2 743.76,-119.82"/>
</g>
<!-- 1990971507440&#45;&gt;1990971515504 -->
<g id="edge17" class="edge">
<title>1990971507440&#45;&gt;1990971515504</title>
<path fill="none" stroke="black" d="M712.46,-223.94C729.33,-206.53 754.41,-180.64 773.18,-161.27"/>
<polygon fill="black" stroke="black" points="775.54,-163.85 779.99,-154.24 770.52,-158.98 775.54,-163.85"/>
</g>
<!-- 1990971509792&#45;&gt;1990971512048 -->
<g id="edge23" class="edge">
<title>1990971509792&#45;&gt;1990971512048</title>
<path fill="none" stroke="black" d="M933.57,-171C940.9,-171 949.18,-171 957.6,-171"/>
<polygon fill="black" stroke="black" points="957.58,-174.5 967.58,-171 957.58,-167.5 957.58,-174.5"/>
</g>
<!-- 1990971513824&#45;&gt;1990971515600 -->
<g id="edge22" class="edge">
<title>1990971513824&#45;&gt;1990971515600</title>
<path fill="none" stroke="black" d="M933.57,-99C941.6,-99 950.77,-99 960.02,-99"/>
<polygon fill="black" stroke="black" points="959.76,-102.5 969.76,-99 959.76,-95.5 959.76,-102.5"/>
</g>
<!-- 1990979572640&#45;&gt;1990971516752 -->
<g id="edge26" class="edge">
<title>1990979572640&#45;&gt;1990971516752</title>
<path fill="none" stroke="black" d="M1155.97,-162.47C1163.85,-159.78 1172.87,-156.69 1181.97,-153.59"/>
<polygon fill="black" stroke="black" points="1182.85,-156.98 1191.18,-150.44 1180.59,-150.36 1182.85,-156.98"/>
</g>
<!-- 1990979570624&#45;&gt;1990971516752 -->
<g id="edge27" class="edge">
<title>1990979570624&#45;&gt;1990971516752</title>
<path fill="none" stroke="black" d="M1155.97,-107.53C1163.85,-110.22 1172.87,-113.31 1181.97,-116.41"/>
<polygon fill="black" stroke="black" points="1180.59,-119.64 1191.18,-119.56 1182.85,-113.02 1180.59,-119.64"/>
</g>
<!-- 1990971519824&#45;&gt;1990971509984 -->
<g id="edge31" class="edge">
<title>1990971519824&#45;&gt;1990971509984</title>
<path fill="none" stroke="black" d="M1372.14,-207C1379.4,-207 1387.58,-207 1395.92,-207"/>
<polygon fill="black" stroke="black" points="1395.82,-210.5 1405.82,-207 1395.82,-203.5 1395.82,-210.5"/>
</g>
<!-- 1990971507296&#45;&gt;1990971517136 -->
<g id="edge32" class="edge">
<title>1990971507296&#45;&gt;1990971517136</title>
<path fill="none" stroke="black" d="M1372.14,-135C1380.65,-135 1390.43,-135 1400.26,-135"/>
<polygon fill="black" stroke="black" points="1400.24,-138.5 1410.24,-135 1400.24,-131.5 1400.24,-138.5"/>
</g>
<!-- 1990971516128&#45;&gt;1990971512576 -->
<g id="edge33" class="edge">
<title>1990971516128&#45;&gt;1990971512576</title>
<path fill="none" stroke="black" d="M1372.14,-63C1381.31,-63 1391.95,-63 1402.54,-63"/>
<polygon fill="black" stroke="black" points="1402.43,-66.5 1412.43,-63 1402.43,-59.5 1402.43,-66.5"/>
</g>
<!-- 1990979581952&#45;&gt;1990971508304 -->
<g id="edge37" class="edge">
<title>1990979581952&#45;&gt;1990971508304</title>
<path fill="none" stroke="black" d="M1594.82,-77.05C1609.96,-86.58 1630.37,-99.43 1648.13,-110.61"/>
<polygon fill="black" stroke="black" points="1646.06,-113.44 1656.39,-115.81 1649.79,-107.52 1646.06,-113.44"/>
</g>
<!-- 1990979572352&#45;&gt;1990971508304 -->
<g id="edge38" class="edge">
<title>1990979572352&#45;&gt;1990971508304</title>
<path fill="none" stroke="black" d="M1594.82,-192.95C1609.96,-183.42 1630.37,-170.57 1648.13,-159.39"/>
<polygon fill="black" stroke="black" points="1649.79,-162.48 1656.39,-154.19 1646.06,-156.56 1649.79,-162.48"/>
</g>
<!-- 1990979576336&#45;&gt;1990971508304 -->
<g id="edge39" class="edge">
<title>1990979576336&#45;&gt;1990971508304</title>
<path fill="none" stroke="black" d="M1598.74,-135C1606.08,-135 1614.39,-135 1622.9,-135"/>
<polygon fill="black" stroke="black" points="1622.63,-138.5 1632.63,-135 1622.63,-131.5 1622.63,-138.5"/>
</g>
<!-- 1990971518288&#45;&gt;1990980241504 -->
<g id="edge41" class="edge">
<title>1990971518288&#45;&gt;1990980241504</title>
<path fill="none" stroke="black" d="M1831.75,-135C1839.1,-135 1847.36,-135 1855.69,-135"/>
<polygon fill="black" stroke="black" points="1855.5,-138.5 1865.5,-135 1855.5,-131.5 1855.5,-138.5"/>
</g>
<!-- 1990971519968&#45;&gt;1990971523040 -->
<g id="edge43" class="edge">
<title>1990971519968&#45;&gt;1990971523040</title>
<path fill="none" stroke="black" d="M2045.58,-135C2052.94,-135 2061.27,-135 2069.82,-135"/>
<polygon fill="black" stroke="black" points="2069.58,-138.5 2079.58,-135 2069.58,-131.5 2069.58,-138.5"/>
</g>
</g>
</svg>
