<?xml version="1.0" encoding="UTF-8" standalone="no"?>
<!DOCTYPE svg PUBLIC "-//W3C//DTD SVG 1.1//EN"
 "http://www.w3.org/Graphics/SVG/1.1/DTD/svg11.dtd">
<!-- Generated by graphviz version 11.0.0 (20240428.1522)
 -->
<!-- Title: imdf_net_1754051726.3798995 Pages: 1 -->
<svg width="2441pt" height="247pt"
 viewBox="0.00 0.00 2441.25 247.00" xmlns="http://www.w3.org/2000/svg" xmlns:xlink="http://www.w3.org/1999/xlink">
<g id="graph0" class="graph" transform="scale(1 1) rotate(0) translate(4 243)">
<title>imdf_net_1754051726.3798995</title>
<polygon fill="white" stroke="none" points="-4,4 -4,-243 2437.25,-243 2437.25,4 -4,4"/>
<!-- 1990981589600 -->
<g id="node1" class="node">
<title>1990981589600</title>
<polygon fill="white" stroke="black" points="160.75,-207 90,-207 90,-171 160.75,-171 160.75,-207"/>
<text text-anchor="middle" x="125.38" y="-183.97" font-family="Times New Roman,serif" font-size="12.00">Site Survey</text>
</g>
<!-- 1990981595024 -->
<g id="node19" class="node">
<title>1990981595024</title>
<ellipse fill="white" stroke="black" cx="223.75" cy="-189" rx="27" ry="27"/>
</g>
<!-- 1990981589600&#45;&gt;1990981595024 -->
<g id="edge2" class="edge">
<title>1990981589600&#45;&gt;1990981595024</title>
<path fill="none" stroke="black" d="M161.17,-189C168.9,-189 177.14,-189 184.98,-189"/>
<polygon fill="black" stroke="black" points="184.97,-192.5 194.97,-189 184.97,-185.5 184.97,-192.5"/>
</g>
<!-- 1990981588112 -->
<g id="node2" class="node">
<title>1990981588112</title>
<polygon fill="white" stroke="black" points="374.75,-207 286.75,-207 286.75,-171 374.75,-171 374.75,-207"/>
<text text-anchor="middle" x="330.75" y="-183.97" font-family="Times New Roman,serif" font-size="12.00">Structure Build</text>
</g>
<!-- 1990981975168 -->
<g id="node20" class="node">
<title>1990981975168</title>
<ellipse fill="white" stroke="black" cx="437.75" cy="-189" rx="27" ry="27"/>
</g>
<!-- 1990981588112&#45;&gt;1990981975168 -->
<g id="edge4" class="edge">
<title>1990981588112&#45;&gt;1990981975168</title>
<path fill="none" stroke="black" d="M375.06,-189C383.02,-189 391.26,-189 399.03,-189"/>
<polygon fill="black" stroke="black" points="398.85,-192.5 408.85,-189 398.85,-185.5 398.85,-192.5"/>
</g>
<!-- 1990981972576 -->
<g id="node3" class="node">
<title>1990981972576</title>
<polygon fill="white" stroke="black" points="578.25,-207 500.75,-207 500.75,-171 578.25,-171 578.25,-207"/>
<text text-anchor="middle" x="539.5" y="-183.97" font-family="Times New Roman,serif" font-size="12.00">Nutrient Mix</text>
</g>
<!-- 1990980946928 -->
<g id="node21" class="node">
<title>1990980946928</title>
<ellipse fill="white" stroke="black" cx="641.25" cy="-189" rx="27" ry="27"/>
</g>
<!-- 1990981972576&#45;&gt;1990980946928 -->
<g id="edge6" class="edge">
<title>1990981972576&#45;&gt;1990980946928</title>
<path fill="none" stroke="black" d="M578.5,-189C586.32,-189 594.56,-189 602.38,-189"/>
<polygon fill="black" stroke="black" points="602.3,-192.5 612.3,-189 602.3,-185.5 602.3,-192.5"/>
</g>
<!-- 1990980944816 -->
<g id="node4" class="node">
<title>1990980944816</title>
<polygon fill="white" stroke="black" points="790,-207 704.25,-207 704.25,-171 790,-171 790,-207"/>
<text text-anchor="middle" x="747.12" y="-183.97" font-family="Times New Roman,serif" font-size="12.00">Seed Selection</text>
</g>
<!-- 1990980362000 -->
<g id="node22" class="node">
<title>1990980362000</title>
<ellipse fill="white" stroke="black" cx="853" cy="-189" rx="27" ry="27"/>
</g>
<!-- 1990980944816&#45;&gt;1990980362000 -->
<g id="edge8" class="edge">
<title>1990980944816&#45;&gt;1990980362000</title>
<path fill="none" stroke="black" d="M790.37,-189C798.28,-189 806.5,-189 814.26,-189"/>
<polygon fill="black" stroke="black" points="814.07,-192.5 824.07,-189 814.07,-185.5 814.07,-192.5"/>
</g>
<!-- 1990980367424 -->
<g id="node5" class="node">
<title>1990980367424</title>
<polygon fill="white" stroke="black" points="986.75,-207 916,-207 916,-171 986.75,-171 986.75,-207"/>
<text text-anchor="middle" x="951.38" y="-183.97" font-family="Times New Roman,serif" font-size="12.00">Climate Set</text>
</g>
<!-- 1990980362816 -->
<g id="node23" class="node">
<title>1990980362816</title>
<ellipse fill="white" stroke="black" cx="1049.75" cy="-189" rx="27" ry="27"/>
</g>
<!-- 1990980367424&#45;&gt;1990980362816 -->
<g id="edge10" class="edge">
<title>1990980367424&#45;&gt;1990980362816</title>
<path fill="none" stroke="black" d="M987.17,-189C994.9,-189 1003.14,-189 1010.98,-189"/>
<polygon fill="black" stroke="black" points="1010.97,-192.5 1020.97,-189 1010.97,-185.5 1010.97,-192.5"/>
</g>
<!-- 1990980363920 -->
<g id="node6" class="node">
<title>1990980363920</title>
<polygon fill="white" stroke="black" points="1192.5,-207 1112.75,-207 1112.75,-171 1192.5,-171 1192.5,-207"/>
<text text-anchor="middle" x="1152.62" y="-183.97" font-family="Times New Roman,serif" font-size="12.00">Sensor Install</text>
</g>
<!-- 1990980365888 -->
<g id="node24" class="node">
<title>1990980365888</title>
<ellipse fill="white" stroke="black" cx="1255.5" cy="-189" rx="27" ry="27"/>
</g>
<!-- 1990980363920&#45;&gt;1990980365888 -->
<g id="edge12" class="edge">
<title>1990980363920&#45;&gt;1990980365888</title>
<path fill="none" stroke="black" d="M1192.91,-189C1200.78,-189 1209.02,-189 1216.82,-189"/>
<polygon fill="black" stroke="black" points="1216.72,-192.5 1226.72,-189 1216.72,-185.5 1216.72,-192.5"/>
</g>
<!-- 1990980368672 -->
<g id="node7" class="node">
<title>1990980368672</title>
<polygon fill="white" stroke="black" points="1400.5,-207 1318.5,-207 1318.5,-171 1400.5,-171 1400.5,-207"/>
<text text-anchor="middle" x="1359.5" y="-183.97" font-family="Times New Roman,serif" font-size="12.00">Planting Auto</text>
</g>
<!-- 1990980369872 -->
<g id="node25" class="node">
<title>1990980369872</title>
<ellipse fill="white" stroke="black" cx="1463.5" cy="-189" rx="27" ry="27"/>
</g>
<!-- 1990980368672&#45;&gt;1990980369872 -->
<g id="edge14" class="edge">
<title>1990980368672&#45;&gt;1990980369872</title>
<path fill="none" stroke="black" d="M1400.81,-189C1408.73,-189 1417,-189 1424.82,-189"/>
<polygon fill="black" stroke="black" points="1424.73,-192.5 1434.73,-189 1424.73,-185.5 1424.73,-192.5"/>
</g>
<!-- 1990980369056 -->
<g id="node8" class="node">
<title>1990980369056</title>
<polygon fill="white" stroke="black" points="1620.5,-184 1526.5,-184 1526.5,-148 1620.5,-148 1620.5,-184"/>
<text text-anchor="middle" x="1573.5" y="-160.97" font-family="Times New Roman,serif" font-size="12.00">Growth Monitor</text>
</g>
<!-- 1990980357584 -->
<g id="node26" class="node">
<title>1990980357584</title>
<ellipse fill="white" stroke="black" cx="1683.5" cy="-139" rx="27" ry="27"/>
</g>
<!-- 1990980369056&#45;&gt;1990980357584 -->
<g id="edge16" class="edge">
<title>1990980369056&#45;&gt;1990980357584</title>
<path fill="none" stroke="black" d="M1620.93,-154.39C1629.32,-152.29 1637.96,-150.13 1646.02,-148.12"/>
<polygon fill="black" stroke="black" points="1646.62,-151.58 1655.47,-145.76 1644.92,-144.79 1646.62,-151.58"/>
</g>
<!-- 1990980355088 -->
<g id="node9" class="node">
<title>1990980355088</title>
<polygon fill="white" stroke="black" points="1817.62,-157 1752.12,-157 1752.12,-121 1817.62,-121 1817.62,-157"/>
<text text-anchor="middle" x="1784.88" y="-133.97" font-family="Times New Roman,serif" font-size="12.00">Data Sync</text>
</g>
<!-- 1990980361040 -->
<g id="node28" class="node">
<title>1990980361040</title>
<ellipse fill="white" stroke="black" cx="1886.25" cy="-139" rx="27" ry="27"/>
</g>
<!-- 1990980355088&#45;&gt;1990980361040 -->
<g id="edge20" class="edge">
<title>1990980355088&#45;&gt;1990980361040</title>
<path fill="none" stroke="black" d="M1817.86,-139C1827.3,-139 1837.72,-139 1847.49,-139"/>
<polygon fill="black" stroke="black" points="1847.45,-142.5 1857.45,-139 1847.45,-135.5 1847.45,-142.5"/>
</g>
<!-- 1990978181776 -->
<g id="node10" class="node">
<title>1990978181776</title>
<polygon fill="white" stroke="black" points="1823.25,-92 1746.5,-92 1746.5,-56 1823.25,-56 1823.25,-92"/>
<text text-anchor="middle" x="1784.88" y="-68.97" font-family="Times New Roman,serif" font-size="12.00">Harvest Plan</text>
</g>
<!-- 1990978181824 -->
<g id="node27" class="node">
<title>1990978181824</title>
<ellipse fill="white" stroke="black" cx="1886.25" cy="-63" rx="27" ry="27"/>
</g>
<!-- 1990978181776&#45;&gt;1990978181824 -->
<g id="edge19" class="edge">
<title>1990978181776&#45;&gt;1990978181824</title>
<path fill="none" stroke="black" d="M1823.73,-69.81C1831.52,-68.95 1839.73,-68.04 1847.52,-67.18"/>
<polygon fill="black" stroke="black" points="1847.86,-70.66 1857.41,-66.08 1847.09,-63.7 1847.86,-70.66"/>
</g>
<!-- 1990980366464 -->
<g id="node11" class="node">
<title>1990980366464</title>
<polygon fill="white" stroke="black" points="2035,-157 1950,-157 1950,-121 2035,-121 2035,-157"/>
<text text-anchor="middle" x="1992.5" y="-133.97" font-family="Times New Roman,serif" font-size="12.00">Yield Analyze</text>
</g>
<!-- 1990980364544 -->
<g id="node29" class="node">
<title>1990980364544</title>
<ellipse fill="white" stroke="black" cx="2098.75" cy="-139" rx="27" ry="27"/>
</g>
<!-- 1990980366464&#45;&gt;1990980364544 -->
<g id="edge23" class="edge">
<title>1990980366464&#45;&gt;1990980364544</title>
<path fill="none" stroke="black" d="M2035.3,-139C2043.52,-139 2052.1,-139 2060.17,-139"/>
<polygon fill="black" stroke="black" points="2060.02,-142.5 2070.02,-139 2060.02,-135.5 2060.02,-142.5"/>
</g>
<!-- 1990978176208 -->
<g id="node12" class="node">
<title>1990978176208</title>
<polygon fill="white" stroke="black" points="2035.75,-76 1949.25,-76 1949.25,-40 2035.75,-40 2035.75,-76"/>
<text text-anchor="middle" x="1992.5" y="-52.98" font-family="Times New Roman,serif" font-size="12.00">Waste Recycle</text>
</g>
<!-- 1990978175968 -->
<g id="node30" class="node">
<title>1990978175968</title>
<ellipse fill="white" stroke="black" cx="2098.75" cy="-40" rx="27" ry="27"/>
</g>
<!-- 1990978176208&#45;&gt;1990978175968 -->
<g id="edge24" class="edge">
<title>1990978176208&#45;&gt;1990978175968</title>
<path fill="none" stroke="black" d="M2036.2,-50.63C2044.29,-49.23 2052.69,-47.78 2060.58,-46.42"/>
<polygon fill="black" stroke="black" points="2060.95,-49.91 2070.21,-44.76 2059.76,-43.01 2060.95,-49.91"/>
</g>
<!-- 1990980356240 -->
<g id="node13" class="node">
<title>1990980356240</title>
<polygon fill="white" stroke="black" points="2238.12,-211 2168.88,-211 2168.88,-175 2238.12,-175 2238.12,-211"/>
<text text-anchor="middle" x="2203.5" y="-187.97" font-family="Times New Roman,serif" font-size="12.00">Light Tune</text>
</g>
<!-- 1990980368096 -->
<g id="node31" class="node">
<title>1990980368096</title>
<ellipse fill="white" stroke="black" cx="2312.25" cy="-162" rx="27" ry="27"/>
</g>
<!-- 1990980356240&#45;&gt;1990980368096 -->
<g id="edge30" class="edge">
<title>1990980356240&#45;&gt;1990980368096</title>
<path fill="none" stroke="black" d="M2238.57,-183.11C2250.22,-179.72 2263.29,-175.93 2275.1,-172.5"/>
<polygon fill="black" stroke="black" points="2275.87,-175.92 2284.5,-169.77 2273.92,-169.2 2275.87,-175.92"/>
</g>
<!-- 1990980356000 -->
<g id="node14" class="node">
<title>1990980356000</title>
<polygon fill="white" stroke="black" points="2240.75,-157 2166.25,-157 2166.25,-121 2240.75,-121 2240.75,-157"/>
<text text-anchor="middle" x="2203.5" y="-133.97" font-family="Times New Roman,serif" font-size="12.00">Pest Control</text>
</g>
<!-- 1990980356000&#45;&gt;1990980368096 -->
<g id="edge31" class="edge">
<title>1990980356000&#45;&gt;1990980368096</title>
<path fill="none" stroke="black" d="M2241.24,-146.92C2251.96,-149.22 2263.67,-151.75 2274.39,-154.06"/>
<polygon fill="black" stroke="black" points="2273.56,-157.46 2284.07,-156.14 2275.03,-150.62 2273.56,-157.46"/>
</g>
<!-- 1990980369344 -->
<g id="node15" class="node">
<title>1990980369344</title>
<polygon fill="white" stroke="black" points="2243,-103 2164,-103 2164,-67 2243,-67 2243,-103"/>
<text text-anchor="middle" x="2203.5" y="-79.97" font-family="Times New Roman,serif" font-size="12.00">Water Adjust</text>
</g>
<!-- 1990980369344&#45;&gt;1990980368096 -->
<g id="edge29" class="edge">
<title>1990980369344&#45;&gt;1990980368096</title>
<path fill="none" stroke="black" d="M2232.72,-103.36C2236.95,-106.21 2241.23,-109.15 2245.25,-112 2257.25,-120.51 2270.21,-130.21 2281.43,-138.78"/>
<polygon fill="black" stroke="black" points="2279.14,-141.43 2289.2,-144.75 2283.4,-135.88 2279.14,-141.43"/>
</g>
<!-- 1990978179568 -->
<g id="node16" class="node">
<title>1990978179568</title>
<polygon fill="white" stroke="black" points="2245.25,-49 2161.75,-49 2161.75,-13 2245.25,-13 2245.25,-49"/>
<text text-anchor="middle" x="2203.5" y="-25.98" font-family="Times New Roman,serif" font-size="12.00">Logistics Prep</text>
</g>
<!-- 1990971213632 -->
<g id="node32" class="node">
<title>1990971213632</title>
<ellipse fill="white" stroke="black" cx="2312.25" cy="-31" rx="27" ry="27"/>
<ellipse fill="none" stroke="black" cx="2312.25" cy="-31" rx="31" ry="31"/>
<text text-anchor="start" x="2295.75" y="-15.6" font-family="Times New Roman,serif" font-size="32.00">■</text>
</g>
<!-- 1990978179568&#45;&gt;1990971213632 -->
<g id="edge32" class="edge">
<title>1990978179568&#45;&gt;1990971213632</title>
<path fill="none" stroke="black" d="M2245.47,-31C2253.37,-31 2261.65,-31 2269.58,-31"/>
<polygon fill="black" stroke="black" points="2269.32,-34.5 2279.32,-31 2269.32,-27.5 2269.32,-34.5"/>
</g>
<!-- 1990980365072 -->
<g id="node17" class="node">
<title>1990980365072</title>
<polygon fill="black" stroke="black" points="2433.25,-218 2379.25,-218 2379.25,-182 2433.25,-182 2433.25,-218"/>
</g>
<!-- 1990980365072&#45;&gt;1990980369872 -->
<g id="edge34" class="edge">
<title>1990980365072&#45;&gt;1990980369872</title>
<path fill="none" stroke="black" d="M2378.94,-208.46C2340.88,-219.93 2268.05,-239 2204.5,-239 1682.5,-239 1682.5,-239 1682.5,-239 1616.74,-239 1542.57,-217.12 1499.91,-202.3"/>
<polygon fill="black" stroke="black" points="1501.27,-199.07 1490.68,-199.03 1498.93,-205.67 1501.27,-199.07"/>
</g>
<!-- 1990976165920 -->
<g id="node18" class="node">
<title>1990976165920</title>
<ellipse fill="white" stroke="black" cx="27" cy="-189" rx="27" ry="27"/>
<text text-anchor="start" x="9.75" y="-171.7" font-family="Times New Roman,serif" font-size="34.00">●</text>
</g>
<!-- 1990976165920&#45;&gt;1990981589600 -->
<g id="edge1" class="edge">
<title>1990976165920&#45;&gt;1990981589600</title>
<path fill="none" stroke="black" d="M54.33,-189C61.76,-189 70.06,-189 78.28,-189"/>
<polygon fill="black" stroke="black" points="78.24,-192.5 88.24,-189 78.24,-185.5 78.24,-192.5"/>
</g>
<!-- 1990981595024&#45;&gt;1990981588112 -->
<g id="edge3" class="edge">
<title>1990981595024&#45;&gt;1990981588112</title>
<path fill="none" stroke="black" d="M251.25,-189C258.6,-189 266.86,-189 275.19,-189"/>
<polygon fill="black" stroke="black" points="275,-192.5 285,-189 275,-185.5 275,-192.5"/>
</g>
<!-- 1990981975168&#45;&gt;1990981972576 -->
<g id="edge5" class="edge">
<title>1990981975168&#45;&gt;1990981972576</title>
<path fill="none" stroke="black" d="M465.22,-189C472.52,-189 480.68,-189 488.83,-189"/>
<polygon fill="black" stroke="black" points="488.75,-192.5 498.75,-189 488.75,-185.5 488.75,-192.5"/>
</g>
<!-- 1990980946928&#45;&gt;1990980944816 -->
<g id="edge7" class="edge">
<title>1990980946928&#45;&gt;1990980944816</title>
<path fill="none" stroke="black" d="M668.73,-189C676.09,-189 684.35,-189 692.66,-189"/>
<polygon fill="black" stroke="black" points="692.44,-192.5 702.44,-189 692.44,-185.5 692.44,-192.5"/>
</g>
<!-- 1990980362000&#45;&gt;1990980367424 -->
<g id="edge9" class="edge">
<title>1990980362000&#45;&gt;1990980367424</title>
<path fill="none" stroke="black" d="M880.33,-189C887.76,-189 896.06,-189 904.28,-189"/>
<polygon fill="black" stroke="black" points="904.24,-192.5 914.24,-189 904.24,-185.5 904.24,-192.5"/>
</g>
<!-- 1990980362816&#45;&gt;1990980363920 -->
<g id="edge11" class="edge">
<title>1990980362816&#45;&gt;1990980363920</title>
<path fill="none" stroke="black" d="M1076.99,-189C1084.46,-189 1092.85,-189 1101.24,-189"/>
<polygon fill="black" stroke="black" points="1101.08,-192.5 1111.08,-189 1101.08,-185.5 1101.08,-192.5"/>
</g>
<!-- 1990980365888&#45;&gt;1990980368672 -->
<g id="edge13" class="edge">
<title>1990980365888&#45;&gt;1990980368672</title>
<path fill="none" stroke="black" d="M1282.77,-189C1290.15,-189 1298.45,-189 1306.78,-189"/>
<polygon fill="black" stroke="black" points="1306.55,-192.5 1316.55,-189 1306.55,-185.5 1306.55,-192.5"/>
</g>
<!-- 1990980369872&#45;&gt;1990980369056 -->
<g id="edge15" class="edge">
<title>1990980369872&#45;&gt;1990980369056</title>
<path fill="none" stroke="black" d="M1490.37,-183.49C1497.92,-181.88 1506.48,-180.06 1515.16,-178.21"/>
<polygon fill="black" stroke="black" points="1515.62,-181.69 1524.67,-176.19 1514.16,-174.85 1515.62,-181.69"/>
</g>
<!-- 1990980357584&#45;&gt;1990980355088 -->
<g id="edge18" class="edge">
<title>1990980357584&#45;&gt;1990980355088</title>
<path fill="none" stroke="black" d="M1710.87,-139C1719.88,-139 1730.21,-139 1740.21,-139"/>
<polygon fill="black" stroke="black" points="1740.19,-142.5 1750.19,-139 1740.19,-135.5 1740.19,-142.5"/>
</g>
<!-- 1990980357584&#45;&gt;1990978181776 -->
<g id="edge17" class="edge">
<title>1990980357584&#45;&gt;1990978181776</title>
<path fill="none" stroke="black" d="M1706.55,-124.57C1718.24,-116.93 1732.92,-107.33 1746.34,-98.55"/>
<polygon fill="black" stroke="black" points="1748.11,-101.58 1754.56,-93.18 1744.27,-95.72 1748.11,-101.58"/>
</g>
<!-- 1990978181824&#45;&gt;1990978176208 -->
<g id="edge22" class="edge">
<title>1990978181824&#45;&gt;1990978176208</title>
<path fill="none" stroke="black" d="M1913.56,-61.74C1920.94,-61.38 1929.24,-60.99 1937.61,-60.58"/>
<polygon fill="black" stroke="black" points="1937.64,-64.09 1947.46,-60.11 1937.31,-57.1 1937.64,-64.09"/>
</g>
<!-- 1990980361040&#45;&gt;1990980366464 -->
<g id="edge21" class="edge">
<title>1990980361040&#45;&gt;1990980366464</title>
<path fill="none" stroke="black" d="M1913.56,-139C1921.19,-139 1929.81,-139 1938.47,-139"/>
<polygon fill="black" stroke="black" points="1938.27,-142.5 1948.27,-139 1938.27,-135.5 1938.27,-142.5"/>
</g>
<!-- 1990980364544&#45;&gt;1990980356240 -->
<g id="edge26" class="edge">
<title>1990980364544&#45;&gt;1990980356240</title>
<path fill="none" stroke="black" d="M2123.07,-151.25C2133.61,-156.8 2146.44,-163.54 2158.67,-169.97"/>
<polygon fill="black" stroke="black" points="2156.93,-173.01 2167.41,-174.56 2160.19,-166.81 2156.93,-173.01"/>
</g>
<!-- 1990980364544&#45;&gt;1990980356000 -->
<g id="edge25" class="edge">
<title>1990980364544&#45;&gt;1990980356000</title>
<path fill="none" stroke="black" d="M2126.21,-139C2134.93,-139 2144.91,-139 2154.72,-139"/>
<polygon fill="black" stroke="black" points="2154.55,-142.5 2164.55,-139 2154.55,-135.5 2154.55,-142.5"/>
</g>
<!-- 1990980364544&#45;&gt;1990980369344 -->
<g id="edge28" class="edge">
<title>1990980364544&#45;&gt;1990980369344</title>
<path fill="none" stroke="black" d="M2123.07,-126.75C2133.33,-121.35 2145.76,-114.82 2157.71,-108.54"/>
<polygon fill="black" stroke="black" points="2159,-111.81 2166.23,-104.06 2155.75,-105.62 2159,-111.81"/>
</g>
<!-- 1990978175968&#45;&gt;1990978179568 -->
<g id="edge27" class="edge">
<title>1990978175968&#45;&gt;1990978179568</title>
<path fill="none" stroke="black" d="M2125.94,-37.71C2133.38,-37.05 2141.76,-36.32 2150.17,-35.58"/>
<polygon fill="black" stroke="black" points="2150.41,-39.08 2160.07,-34.72 2149.8,-32.1 2150.41,-39.08"/>
</g>
<!-- 1990980368096&#45;&gt;1990980365072 -->
<g id="edge33" class="edge">
<title>1990980368096&#45;&gt;1990980365072</title>
<path fill="none" stroke="black" d="M2337.42,-171.98C2346.9,-175.9 2358,-180.48 2368.44,-184.79"/>
<polygon fill="black" stroke="black" points="2367,-187.99 2377.58,-188.57 2369.67,-181.52 2367,-187.99"/>
</g>
</g>
</svg>
