<?xml version="1.0" encoding="UTF-8" standalone="no"?>
<!DOCTYPE svg PUBLIC "-//W3C//DTD SVG 1.1//EN"
 "http://www.w3.org/Graphics/SVG/1.1/DTD/svg11.dtd">
<!-- Generated by graphviz version 11.0.0 (20240428.1522)
 -->
<!-- Title: imdf_net_1754051728.1073387 Pages: 1 -->
<svg width="2455pt" height="302pt"
 viewBox="0.00 0.00 2454.50 302.00" xmlns="http://www.w3.org/2000/svg" xmlns:xlink="http://www.w3.org/1999/xlink">
<g id="graph0" class="graph" transform="scale(1 1) rotate(0) translate(4 298)">
<title>imdf_net_1754051728.1073387</title>
<polygon fill="white" stroke="none" points="-4,4 -4,-298 2450.5,-298 2450.5,4 -4,4"/>
<!-- 1990979649712 -->
<g id="node1" class="node">
<title>1990979649712</title>
<polygon fill="white" stroke="black" points="190.75,-249 90,-249 90,-213 190.75,-213 190.75,-249"/>
<text text-anchor="middle" x="140.38" y="-225.97" font-family="Times New Roman,serif" font-size="12.00">Material Sourcing</text>
</g>
<!-- 1990979661088 -->
<g id="node19" class="node">
<title>1990979661088</title>
<ellipse fill="white" stroke="black" cx="253.75" cy="-231" rx="27" ry="27"/>
</g>
<!-- 1990979649712&#45;&gt;1990979661088 -->
<g id="edge2" class="edge">
<title>1990979649712&#45;&gt;1990979661088</title>
<path fill="none" stroke="black" d="M191.2,-231C199.18,-231 207.33,-231 214.97,-231"/>
<polygon fill="black" stroke="black" points="214.95,-234.5 224.95,-231 214.95,-227.5 214.95,-234.5"/>
</g>
<!-- 1990979650288 -->
<g id="node2" class="node">
<title>1990979650288</title>
<polygon fill="white" stroke="black" points="401.75,-249 316.75,-249 316.75,-213 401.75,-213 401.75,-249"/>
<text text-anchor="middle" x="359.25" y="-225.97" font-family="Times New Roman,serif" font-size="12.00">Quality Check</text>
</g>
<!-- 1990979662912 -->
<g id="node20" class="node">
<title>1990979662912</title>
<ellipse fill="white" stroke="black" cx="464.75" cy="-267" rx="27" ry="27"/>
</g>
<!-- 1990979650288&#45;&gt;1990979662912 -->
<g id="edge4" class="edge">
<title>1990979650288&#45;&gt;1990979662912</title>
<path fill="none" stroke="black" d="M402.05,-245.54C410.71,-248.55 419.76,-251.7 428.17,-254.62"/>
<polygon fill="black" stroke="black" points="426.75,-257.84 437.35,-257.82 429.05,-251.23 426.75,-257.84"/>
</g>
<!-- 1990979658064 -->
<g id="node21" class="node">
<title>1990979658064</title>
<ellipse fill="white" stroke="black" cx="464.75" cy="-195" rx="27" ry="27"/>
</g>
<!-- 1990979650288&#45;&gt;1990979658064 -->
<g id="edge5" class="edge">
<title>1990979650288&#45;&gt;1990979658064</title>
<path fill="none" stroke="black" d="M402.05,-216.46C410.71,-213.45 419.76,-210.3 428.17,-207.38"/>
<polygon fill="black" stroke="black" points="429.05,-210.77 437.35,-204.18 426.75,-204.16 429.05,-210.77"/>
</g>
<!-- 1990979656528 -->
<g id="node3" class="node">
<title>1990979656528</title>
<polygon fill="white" stroke="black" points="621.75,-213 533,-213 533,-177 621.75,-177 621.75,-213"/>
<text text-anchor="middle" x="577.38" y="-189.97" font-family="Times New Roman,serif" font-size="12.00">Trend Analysis</text>
</g>
<!-- 1990978240240 -->
<g id="node23" class="node">
<title>1990978240240</title>
<ellipse fill="white" stroke="black" cx="690" cy="-195" rx="27" ry="27"/>
</g>
<!-- 1990979656528&#45;&gt;1990978240240 -->
<g id="edge9" class="edge">
<title>1990979656528&#45;&gt;1990978240240</title>
<path fill="none" stroke="black" d="M622.1,-195C631.78,-195 641.96,-195 651.37,-195"/>
<polygon fill="black" stroke="black" points="651.28,-198.5 661.28,-195 651.28,-191.5 651.28,-198.5"/>
</g>
<!-- 1990979660128 -->
<g id="node4" class="node">
<title>1990979660128</title>
<polygon fill="white" stroke="black" points="627,-285 527.75,-285 527.75,-249 627,-249 627,-285"/>
<text text-anchor="middle" x="577.38" y="-261.98" font-family="Times New Roman,serif" font-size="12.00">Demand Forecast</text>
</g>
<!-- 1990978235536 -->
<g id="node22" class="node">
<title>1990978235536</title>
<ellipse fill="white" stroke="black" cx="690" cy="-267" rx="27" ry="27"/>
</g>
<!-- 1990979660128&#45;&gt;1990978235536 -->
<g id="edge8" class="edge">
<title>1990979660128&#45;&gt;1990978235536</title>
<path fill="none" stroke="black" d="M627.22,-267C635.29,-267 643.55,-267 651.29,-267"/>
<polygon fill="black" stroke="black" points="651.05,-270.5 661.05,-267 651.05,-263.5 651.05,-270.5"/>
</g>
<!-- 1990979658400 -->
<g id="node5" class="node">
<title>1990979658400</title>
<polygon fill="white" stroke="black" points="844.75,-249 753,-249 753,-213 844.75,-213 844.75,-249"/>
<text text-anchor="middle" x="798.88" y="-225.97" font-family="Times New Roman,serif" font-size="12.00">Production Plan</text>
</g>
<!-- 1990979655376 -->
<g id="node24" class="node">
<title>1990979655376</title>
<ellipse fill="white" stroke="black" cx="907.75" cy="-231" rx="27" ry="27"/>
</g>
<!-- 1990979658400&#45;&gt;1990979655376 -->
<g id="edge12" class="edge">
<title>1990979658400&#45;&gt;1990979655376</title>
<path fill="none" stroke="black" d="M845.2,-231C853.21,-231 861.47,-231 869.23,-231"/>
<polygon fill="black" stroke="black" points="869.03,-234.5 879.03,-231 869.03,-227.5 869.03,-234.5"/>
</g>
<!-- 1990979656624 -->
<g id="node6" class="node">
<title>1990979656624</title>
<polygon fill="white" stroke="black" points="1061.75,-226 970.75,-226 970.75,-190 1061.75,-190 1061.75,-226"/>
<text text-anchor="middle" x="1016.25" y="-202.97" font-family="Times New Roman,serif" font-size="12.00">Prototype Build</text>
</g>
<!-- 1990979664640 -->
<g id="node25" class="node">
<title>1990979664640</title>
<ellipse fill="white" stroke="black" cx="1124.75" cy="-199" rx="27" ry="27"/>
</g>
<!-- 1990979656624&#45;&gt;1990979664640 -->
<g id="edge14" class="edge">
<title>1990979656624&#45;&gt;1990979664640</title>
<path fill="none" stroke="black" d="M1062.11,-204.21C1070.11,-203.53 1078.37,-202.83 1086.15,-202.18"/>
<polygon fill="black" stroke="black" points="1086.3,-205.68 1095.97,-201.35 1085.71,-198.7 1086.3,-205.68"/>
</g>
<!-- 1990976618128 -->
<g id="node7" class="node">
<title>1990976618128</title>
<polygon fill="black" stroke="black" points="1259.88,-153 1205.88,-153 1205.88,-117 1259.88,-117 1259.88,-153"/>
</g>
<!-- 1990981079296 -->
<g id="node26" class="node">
<title>1990981079296</title>
<ellipse fill="white" stroke="black" cx="1341" cy="-63" rx="27" ry="27"/>
</g>
<!-- 1990976618128&#45;&gt;1990981079296 -->
<g id="edge19" class="edge">
<title>1990976618128&#45;&gt;1990981079296</title>
<path fill="none" stroke="black" d="M1260.11,-117.2C1274.85,-107.2 1293.34,-94.66 1308.82,-84.16"/>
<polygon fill="black" stroke="black" points="1310.44,-87.28 1316.75,-78.77 1306.51,-81.49 1310.44,-87.28"/>
</g>
<!-- 1990971218720 -->
<g id="node27" class="node">
<title>1990971218720</title>
<ellipse fill="white" stroke="black" cx="1341" cy="-135" rx="27" ry="27"/>
</g>
<!-- 1990976618128&#45;&gt;1990971218720 -->
<g id="edge18" class="edge">
<title>1990976618128&#45;&gt;1990971218720</title>
<path fill="none" stroke="black" d="M1260.11,-135C1272.86,-135 1288.43,-135 1302.42,-135"/>
<polygon fill="black" stroke="black" points="1302.19,-138.5 1312.19,-135 1302.19,-131.5 1302.19,-138.5"/>
</g>
<!-- 1990976606896 -->
<g id="node8" class="node">
<title>1990976606896</title>
<polygon fill="white" stroke="black" points="1278,-221 1187.75,-221 1187.75,-185 1278,-185 1278,-221"/>
<text text-anchor="middle" x="1232.88" y="-197.97" font-family="Times New Roman,serif" font-size="12.00">Artisan Review</text>
</g>
<!-- 1990976611504 -->
<g id="node28" class="node">
<title>1990976611504</title>
<ellipse fill="white" stroke="black" cx="1341" cy="-207" rx="27" ry="27"/>
</g>
<!-- 1990976606896&#45;&gt;1990976611504 -->
<g id="edge17" class="edge">
<title>1990976606896&#45;&gt;1990976611504</title>
<path fill="none" stroke="black" d="M1278.27,-204.67C1286.26,-204.97 1294.53,-205.29 1302.31,-205.58"/>
<polygon fill="black" stroke="black" points="1302.02,-209.07 1312.14,-205.95 1302.28,-202.08 1302.02,-209.07"/>
</g>
<!-- 1990971216272 -->
<g id="node9" class="node">
<title>1990971216272</title>
<polygon fill="white" stroke="black" points="1514.12,-153 1404.38,-153 1404.38,-117 1514.12,-117 1514.12,-153"/>
<text text-anchor="middle" x="1459.25" y="-129.97" font-family="Times New Roman,serif" font-size="12.00">Sustainability Audit</text>
</g>
<!-- 1990976170912 -->
<g id="node30" class="node">
<title>1990976170912</title>
<ellipse fill="white" stroke="black" cx="1577.5" cy="-135" rx="27" ry="27"/>
</g>
<!-- 1990971216272&#45;&gt;1990976170912 -->
<g id="edge25" class="edge">
<title>1990971216272&#45;&gt;1990976170912</title>
<path fill="none" stroke="black" d="M1514.29,-135C1522.56,-135 1530.94,-135 1538.76,-135"/>
<polygon fill="black" stroke="black" points="1538.58,-138.5 1548.58,-135 1538.58,-131.5 1538.58,-138.5"/>
</g>
<!-- 1990971221984 -->
<g id="node10" class="node">
<title>1990971221984</title>
<polygon fill="white" stroke="black" points="1510.38,-81 1408.12,-81 1408.12,-45 1510.38,-45 1510.38,-81"/>
<text text-anchor="middle" x="1459.25" y="-57.98" font-family="Times New Roman,serif" font-size="12.00">Packaging Design</text>
</g>
<!-- 1990976174224 -->
<g id="node29" class="node">
<title>1990976174224</title>
<ellipse fill="white" stroke="black" cx="1577.5" cy="-63" rx="27" ry="27"/>
</g>
<!-- 1990971221984&#45;&gt;1990976174224 -->
<g id="edge24" class="edge">
<title>1990971221984&#45;&gt;1990976174224</title>
<path fill="none" stroke="black" d="M1510.56,-63C1520.03,-63 1529.79,-63 1538.79,-63"/>
<polygon fill="black" stroke="black" points="1538.6,-66.5 1548.6,-63 1538.6,-59.5 1538.6,-66.5"/>
</g>
<!-- 1990976605552 -->
<g id="node11" class="node">
<title>1990976605552</title>
<polygon fill="white" stroke="black" points="1514.5,-252 1404,-252 1404,-216 1514.5,-216 1514.5,-252"/>
<text text-anchor="middle" x="1459.25" y="-228.97" font-family="Times New Roman,serif" font-size="12.00">Customer Feedback</text>
</g>
<!-- 1990976605552&#45;&gt;1990979655376 -->
<g id="edge23" class="edge">
<title>1990976605552&#45;&gt;1990979655376</title>
<path fill="none" stroke="black" d="M1403.62,-244.67C1358.33,-252.58 1292.17,-262 1233.88,-262 1123.75,-262 1123.75,-262 1123.75,-262 1060.67,-262 988.23,-248.76 945.59,-239.59"/>
<polygon fill="black" stroke="black" points="946.39,-236.18 935.87,-237.45 944.88,-243.02 946.39,-236.18"/>
</g>
<!-- 1990971924528 -->
<g id="node12" class="node">
<title>1990971924528</title>
<polygon fill="white" stroke="black" points="1724,-117 1640.5,-117 1640.5,-81 1724,-81 1724,-117"/>
<text text-anchor="middle" x="1682.25" y="-93.97" font-family="Times New Roman,serif" font-size="12.00">Order Custom</text>
</g>
<!-- 1990971918432 -->
<g id="node31" class="node">
<title>1990971918432</title>
<ellipse fill="white" stroke="black" cx="1787" cy="-99" rx="27" ry="27"/>
</g>
<!-- 1990971924528&#45;&gt;1990971918432 -->
<g id="edge28" class="edge">
<title>1990971924528&#45;&gt;1990971918432</title>
<path fill="none" stroke="black" d="M1724.45,-99C1732.31,-99 1740.5,-99 1748.25,-99"/>
<polygon fill="black" stroke="black" points="1748.05,-102.5 1758.05,-99 1748.05,-95.5 1748.05,-102.5"/>
</g>
<!-- 1990971926496 -->
<g id="node13" class="node">
<title>1990971926496</title>
<polygon fill="white" stroke="black" points="1938.75,-117 1850,-117 1850,-81 1938.75,-81 1938.75,-117"/>
<text text-anchor="middle" x="1894.38" y="-93.97" font-family="Times New Roman,serif" font-size="12.00">Inventory Sync</text>
</g>
<!-- 1990971918864 -->
<g id="node32" class="node">
<title>1990971918864</title>
<ellipse fill="white" stroke="black" cx="2001.75" cy="-171" rx="27" ry="27"/>
</g>
<!-- 1990971926496&#45;&gt;1990971918864 -->
<g id="edge30" class="edge">
<title>1990971926496&#45;&gt;1990971918864</title>
<path fill="none" stroke="black" d="M1922.24,-117.35C1936.64,-127.2 1954.47,-139.38 1969.5,-149.64"/>
<polygon fill="black" stroke="black" points="1967.42,-152.46 1977.65,-155.22 1971.37,-146.69 1967.42,-152.46"/>
</g>
<!-- 1990971931200 -->
<g id="node33" class="node">
<title>1990971931200</title>
<ellipse fill="white" stroke="black" cx="2001.75" cy="-99" rx="27" ry="27"/>
</g>
<!-- 1990971926496&#45;&gt;1990971931200 -->
<g id="edge31" class="edge">
<title>1990971926496&#45;&gt;1990971931200</title>
<path fill="none" stroke="black" d="M1939.15,-99C1947.11,-99 1955.35,-99 1963.11,-99"/>
<polygon fill="black" stroke="black" points="1962.92,-102.5 1972.92,-99 1962.92,-95.5 1962.92,-102.5"/>
</g>
<!-- 1990971931104 -->
<g id="node34" class="node">
<title>1990971931104</title>
<ellipse fill="white" stroke="black" cx="2001.75" cy="-27" rx="27" ry="27"/>
</g>
<!-- 1990971926496&#45;&gt;1990971931104 -->
<g id="edge32" class="edge">
<title>1990971926496&#45;&gt;1990971931104</title>
<path fill="none" stroke="black" d="M1922.24,-80.65C1936.64,-70.8 1954.47,-58.62 1969.5,-48.36"/>
<polygon fill="black" stroke="black" points="1971.37,-51.31 1977.65,-42.78 1967.42,-45.54 1971.37,-51.31"/>
</g>
<!-- 1990971928992 -->
<g id="node14" class="node">
<title>1990971928992</title>
<polygon fill="white" stroke="black" points="2168.5,-189 2064.75,-189 2064.75,-153 2168.5,-153 2168.5,-189"/>
<text text-anchor="middle" x="2116.62" y="-165.97" font-family="Times New Roman,serif" font-size="12.00">Delivery Schedule</text>
</g>
<!-- 1990971918144 -->
<g id="node37" class="node">
<title>1990971918144</title>
<ellipse fill="white" stroke="black" cx="2231.5" cy="-171" rx="27" ry="27"/>
</g>
<!-- 1990971928992&#45;&gt;1990971918144 -->
<g id="edge36" class="edge">
<title>1990971928992&#45;&gt;1990971918144</title>
<path fill="none" stroke="black" d="M2168.78,-171C2176.91,-171 2185.19,-171 2192.94,-171"/>
<polygon fill="black" stroke="black" points="2192.68,-174.5 2202.68,-171 2192.68,-167.5 2192.68,-174.5"/>
</g>
<!-- 1990978234672 -->
<g id="node15" class="node">
<title>1990978234672</title>
<polygon fill="white" stroke="black" points="2160.25,-45 2073,-45 2073,-9 2160.25,-9 2160.25,-45"/>
<text text-anchor="middle" x="2116.62" y="-21.98" font-family="Times New Roman,serif" font-size="12.00">Ledger Update</text>
</g>
<!-- 1990971929088 -->
<g id="node35" class="node">
<title>1990971929088</title>
<ellipse fill="white" stroke="black" cx="2231.5" cy="-27" rx="27" ry="27"/>
</g>
<!-- 1990978234672&#45;&gt;1990971929088 -->
<g id="edge37" class="edge">
<title>1990978234672&#45;&gt;1990971929088</title>
<path fill="none" stroke="black" d="M2160.62,-27C2171.3,-27 2182.67,-27 2193.06,-27"/>
<polygon fill="black" stroke="black" points="2192.78,-30.5 2202.78,-27 2192.78,-23.5 2192.78,-30.5"/>
</g>
<!-- 1990971920496 -->
<g id="node16" class="node">
<title>1990971920496</title>
<polygon fill="white" stroke="black" points="2159.5,-117 2073.75,-117 2073.75,-81 2159.5,-81 2159.5,-117"/>
<text text-anchor="middle" x="2116.62" y="-93.97" font-family="Times New Roman,serif" font-size="12.00">Shipment Prep</text>
</g>
<!-- 1990971929904 -->
<g id="node36" class="node">
<title>1990971929904</title>
<ellipse fill="white" stroke="black" cx="2231.5" cy="-99" rx="27" ry="27"/>
</g>
<!-- 1990971920496&#45;&gt;1990971929904 -->
<g id="edge38" class="edge">
<title>1990971920496&#45;&gt;1990971929904</title>
<path fill="none" stroke="black" d="M2159.98,-99C2170.79,-99 2182.35,-99 2192.91,-99"/>
<polygon fill="black" stroke="black" points="2192.8,-102.5 2202.8,-99 2192.8,-95.5 2192.8,-102.5"/>
</g>
<!-- 1990980748160 -->
<g id="node17" class="node">
<title>1990980748160</title>
<polygon fill="black" stroke="black" points="2348.5,-117 2294.5,-117 2294.5,-81 2348.5,-81 2348.5,-117"/>
</g>
<!-- 1990971624336 -->
<g id="node38" class="node">
<title>1990971624336</title>
<ellipse fill="white" stroke="black" cx="2415.5" cy="-99" rx="27" ry="27"/>
<ellipse fill="none" stroke="black" cx="2415.5" cy="-99" rx="31" ry="31"/>
<text text-anchor="start" x="2399" y="-83.6" font-family="Times New Roman,serif" font-size="32.00">■</text>
</g>
<!-- 1990980748160&#45;&gt;1990971624336 -->
<g id="edge42" class="edge">
<title>1990980748160&#45;&gt;1990971624336</title>
<path fill="none" stroke="black" d="M2348.62,-99C2356.13,-99 2364.51,-99 2372.72,-99"/>
<polygon fill="black" stroke="black" points="2372.58,-102.5 2382.58,-99 2372.58,-95.5 2372.58,-102.5"/>
</g>
<!-- 1990971631968 -->
<g id="node18" class="node">
<title>1990971631968</title>
<ellipse fill="white" stroke="black" cx="27" cy="-231" rx="27" ry="27"/>
<text text-anchor="start" x="9.75" y="-213.7" font-family="Times New Roman,serif" font-size="34.00">●</text>
</g>
<!-- 1990971631968&#45;&gt;1990979649712 -->
<g id="edge1" class="edge">
<title>1990971631968&#45;&gt;1990979649712</title>
<path fill="none" stroke="black" d="M54.39,-231C61.65,-231 69.83,-231 78.17,-231"/>
<polygon fill="black" stroke="black" points="78.07,-234.5 88.07,-231 78.07,-227.5 78.07,-234.5"/>
</g>
<!-- 1990979661088&#45;&gt;1990979650288 -->
<g id="edge3" class="edge">
<title>1990979661088&#45;&gt;1990979650288</title>
<path fill="none" stroke="black" d="M281.14,-231C288.55,-231 296.88,-231 305.26,-231"/>
<polygon fill="black" stroke="black" points="305.11,-234.5 315.11,-231 305.11,-227.5 305.11,-234.5"/>
</g>
<!-- 1990979662912&#45;&gt;1990979660128 -->
<g id="edge7" class="edge">
<title>1990979662912&#45;&gt;1990979660128</title>
<path fill="none" stroke="black" d="M492.25,-267C499.54,-267 507.77,-267 516.14,-267"/>
<polygon fill="black" stroke="black" points="516.07,-270.5 526.07,-267 516.07,-263.5 516.07,-270.5"/>
</g>
<!-- 1990979658064&#45;&gt;1990979656528 -->
<g id="edge6" class="edge">
<title>1990979658064&#45;&gt;1990979656528</title>
<path fill="none" stroke="black" d="M492.25,-195C501.07,-195 511.25,-195 521.42,-195"/>
<polygon fill="black" stroke="black" points="521.3,-198.5 531.3,-195 521.3,-191.5 521.3,-198.5"/>
</g>
<!-- 1990978235536&#45;&gt;1990979658400 -->
<g id="edge11" class="edge">
<title>1990978235536&#45;&gt;1990979658400</title>
<path fill="none" stroke="black" d="M716.06,-258.56C723.95,-255.9 733.01,-252.85 742.15,-249.77"/>
<polygon fill="black" stroke="black" points="743.07,-253.15 751.43,-246.64 740.84,-246.52 743.07,-253.15"/>
</g>
<!-- 1990978240240&#45;&gt;1990979658400 -->
<g id="edge10" class="edge">
<title>1990978240240&#45;&gt;1990979658400</title>
<path fill="none" stroke="black" d="M716.06,-203.44C723.95,-206.1 733.01,-209.15 742.15,-212.23"/>
<polygon fill="black" stroke="black" points="740.84,-215.48 751.43,-215.36 743.07,-208.85 740.84,-215.48"/>
</g>
<!-- 1990979655376&#45;&gt;1990979656624 -->
<g id="edge13" class="edge">
<title>1990979655376&#45;&gt;1990979656624</title>
<path fill="none" stroke="black" d="M934.53,-225.43C942.15,-223.79 950.8,-221.92 959.54,-220.03"/>
<polygon fill="black" stroke="black" points="960.07,-223.5 969.11,-217.97 958.59,-216.66 960.07,-223.5"/>
</g>
<!-- 1990979664640&#45;&gt;1990976618128 -->
<g id="edge15" class="edge">
<title>1990979664640&#45;&gt;1990976618128</title>
<path fill="none" stroke="black" d="M1148.52,-185.27C1162.34,-176.94 1180.28,-166.12 1195.98,-156.65"/>
<polygon fill="black" stroke="black" points="1197.35,-159.91 1204.11,-151.75 1193.74,-153.91 1197.35,-159.91"/>
</g>
<!-- 1990979664640&#45;&gt;1990976606896 -->
<g id="edge16" class="edge">
<title>1990979664640&#45;&gt;1990976606896</title>
<path fill="none" stroke="black" d="M1151.98,-199.99C1159.33,-200.27 1167.6,-200.58 1175.97,-200.89"/>
<polygon fill="black" stroke="black" points="1175.72,-204.39 1185.84,-201.27 1175.98,-197.39 1175.72,-204.39"/>
</g>
<!-- 1990981079296&#45;&gt;1990971221984 -->
<g id="edge21" class="edge">
<title>1990981079296&#45;&gt;1990971221984</title>
<path fill="none" stroke="black" d="M1368.38,-63C1376.76,-63 1386.4,-63 1396.2,-63"/>
<polygon fill="black" stroke="black" points="1396.19,-66.5 1406.19,-63 1396.19,-59.5 1396.19,-66.5"/>
</g>
<!-- 1990971218720&#45;&gt;1990971216272 -->
<g id="edge22" class="edge">
<title>1990971218720&#45;&gt;1990971216272</title>
<path fill="none" stroke="black" d="M1368.38,-135C1375.74,-135 1384.08,-135 1392.64,-135"/>
<polygon fill="black" stroke="black" points="1392.44,-138.5 1402.44,-135 1392.44,-131.5 1392.44,-138.5"/>
</g>
<!-- 1990976611504&#45;&gt;1990976605552 -->
<g id="edge20" class="edge">
<title>1990976611504&#45;&gt;1990976605552</title>
<path fill="none" stroke="black" d="M1367.8,-212.99C1375.41,-214.76 1384.1,-216.78 1393.02,-218.85"/>
<polygon fill="black" stroke="black" points="1391.95,-222.19 1402.48,-221.05 1393.53,-215.38 1391.95,-222.19"/>
</g>
<!-- 1990976174224&#45;&gt;1990971924528 -->
<g id="edge26" class="edge">
<title>1990976174224&#45;&gt;1990971924528</title>
<path fill="none" stroke="black" d="M1603.37,-71.71C1611.31,-74.5 1620.42,-77.69 1629.53,-80.88"/>
<polygon fill="black" stroke="black" points="1628.15,-84.1 1638.75,-84.11 1630.47,-77.5 1628.15,-84.1"/>
</g>
<!-- 1990976170912&#45;&gt;1990971924528 -->
<g id="edge27" class="edge">
<title>1990976170912&#45;&gt;1990971924528</title>
<path fill="none" stroke="black" d="M1603.37,-126.29C1611.31,-123.5 1620.42,-120.31 1629.53,-117.12"/>
<polygon fill="black" stroke="black" points="1630.47,-120.5 1638.75,-113.89 1628.15,-113.9 1630.47,-120.5"/>
</g>
<!-- 1990971918432&#45;&gt;1990971926496 -->
<g id="edge29" class="edge">
<title>1990971918432&#45;&gt;1990971926496</title>
<path fill="none" stroke="black" d="M1814.32,-99C1821.69,-99 1830,-99 1838.38,-99"/>
<polygon fill="black" stroke="black" points="1838.27,-102.5 1848.27,-99 1838.27,-95.5 1838.27,-102.5"/>
</g>
<!-- 1990971918864&#45;&gt;1990971928992 -->
<g id="edge34" class="edge">
<title>1990971918864&#45;&gt;1990971928992</title>
<path fill="none" stroke="black" d="M2029.21,-171C2036.47,-171 2044.66,-171 2053.03,-171"/>
<polygon fill="black" stroke="black" points="2052.98,-174.5 2062.98,-171 2052.98,-167.5 2052.98,-174.5"/>
</g>
<!-- 1990971931200&#45;&gt;1990971920496 -->
<g id="edge35" class="edge">
<title>1990971931200&#45;&gt;1990971920496</title>
<path fill="none" stroke="black" d="M2029.21,-99C2039.09,-99 2050.68,-99 2062.12,-99"/>
<polygon fill="black" stroke="black" points="2061.91,-102.5 2071.91,-99 2061.91,-95.5 2061.91,-102.5"/>
</g>
<!-- 1990971931104&#45;&gt;1990978234672 -->
<g id="edge33" class="edge">
<title>1990971931104&#45;&gt;1990978234672</title>
<path fill="none" stroke="black" d="M2029.21,-27C2038.79,-27 2049.99,-27 2061.09,-27"/>
<polygon fill="black" stroke="black" points="2061.03,-30.5 2071.03,-27 2061.03,-23.5 2061.03,-30.5"/>
</g>
<!-- 1990971929088&#45;&gt;1990980748160 -->
<g id="edge41" class="edge">
<title>1990971929088&#45;&gt;1990980748160</title>
<path fill="none" stroke="black" d="M2252.91,-43.7C2263.67,-52.5 2277.11,-63.5 2289.16,-73.36"/>
<polygon fill="black" stroke="black" points="2286.91,-76.04 2296.87,-79.66 2291.34,-70.62 2286.91,-76.04"/>
</g>
<!-- 1990971929904&#45;&gt;1990980748160 -->
<g id="edge40" class="edge">
<title>1990971929904&#45;&gt;1990980748160</title>
<path fill="none" stroke="black" d="M2258.9,-99C2266.39,-99 2274.68,-99 2282.7,-99"/>
<polygon fill="black" stroke="black" points="2282.6,-102.5 2292.6,-99 2282.6,-95.5 2282.6,-102.5"/>
</g>
<!-- 1990971918144&#45;&gt;1990980748160 -->
<g id="edge39" class="edge">
<title>1990971918144&#45;&gt;1990980748160</title>
<path fill="none" stroke="black" d="M2252.91,-154.3C2263.67,-145.5 2277.11,-134.5 2289.16,-124.64"/>
<polygon fill="black" stroke="black" points="2291.34,-127.38 2296.87,-118.34 2286.91,-121.96 2291.34,-127.38"/>
</g>
</g>
</svg>
