<?xml version="1.0" encoding="UTF-8" standalone="no"?>
<!DOCTYPE svg PUBLIC "-//W3C//DTD SVG 1.1//EN"
 "http://www.w3.org/Graphics/SVG/1.1/DTD/svg11.dtd">
<!-- Generated by graphviz version 11.0.0 (20240428.1522)
 -->
<!-- Title: imdf_net_1754051767.4286082 Pages: 1 -->
<svg width="2109pt" height="342pt"
 viewBox="0.00 0.00 2109.25 342.00" xmlns="http://www.w3.org/2000/svg" xmlns:xlink="http://www.w3.org/1999/xlink">
<g id="graph0" class="graph" transform="scale(1 1) rotate(0) translate(4 338)">
<title>imdf_net_1754051767.4286082</title>
<polygon fill="white" stroke="none" points="-4,4 -4,-338 2105.25,-338 2105.25,4 -4,4"/>
<!-- 1990977364976 -->
<g id="node1" class="node">
<title>1990977364976</title>
<polygon fill="white" stroke="black" points="168.25,-289 90,-289 90,-253 168.25,-253 168.25,-289"/>
<text text-anchor="middle" x="129.12" y="-265.98" font-family="Times New Roman,serif" font-size="12.00">Site Analysis</text>
</g>
<!-- 1990977365120 -->
<g id="node18" class="node">
<title>1990977365120</title>
<ellipse fill="white" stroke="black" cx="231.25" cy="-307" rx="27" ry="27"/>
</g>
<!-- 1990977364976&#45;&gt;1990977365120 -->
<g id="edge2" class="edge">
<title>1990977364976&#45;&gt;1990977365120</title>
<path fill="none" stroke="black" d="M168.55,-284.82C177.14,-287.9 186.21,-291.17 194.68,-294.21"/>
<polygon fill="black" stroke="black" points="193.35,-297.45 203.95,-297.54 195.72,-290.87 193.35,-297.45"/>
</g>
<!-- 1990977361952 -->
<g id="node19" class="node">
<title>1990977361952</title>
<ellipse fill="white" stroke="black" cx="231.25" cy="-235" rx="27" ry="27"/>
</g>
<!-- 1990977364976&#45;&gt;1990977361952 -->
<g id="edge3" class="edge">
<title>1990977364976&#45;&gt;1990977361952</title>
<path fill="none" stroke="black" d="M168.55,-257.18C177.14,-254.1 186.21,-250.83 194.68,-247.79"/>
<polygon fill="black" stroke="black" points="195.72,-251.13 203.95,-244.46 193.35,-244.55 195.72,-251.13"/>
</g>
<!-- 1990977358976 -->
<g id="node2" class="node">
<title>1990977358976</title>
<polygon fill="white" stroke="black" points="404,-325 301.75,-325 301.75,-289 404,-289 404,-325"/>
<text text-anchor="middle" x="352.88" y="-301.98" font-family="Times New Roman,serif" font-size="12.00">Regulatory Check</text>
</g>
<!-- 1990977508448 -->
<g id="node21" class="node">
<title>1990977508448</title>
<ellipse fill="white" stroke="black" cx="474.5" cy="-307" rx="27" ry="27"/>
</g>
<!-- 1990977358976&#45;&gt;1990977508448 -->
<g id="edge6" class="edge">
<title>1990977358976&#45;&gt;1990977508448</title>
<path fill="none" stroke="black" d="M404.26,-307C414.91,-307 425.96,-307 436.03,-307"/>
<polygon fill="black" stroke="black" points="435.8,-310.5 445.8,-307 435.8,-303.5 435.8,-310.5"/>
</g>
<!-- 1990977362288 -->
<g id="node3" class="node">
<title>1990977362288</title>
<polygon fill="white" stroke="black" points="411.5,-253 294.25,-253 294.25,-217 411.5,-217 411.5,-253"/>
<text text-anchor="middle" x="352.88" y="-229.97" font-family="Times New Roman,serif" font-size="12.00">Drone Customization</text>
</g>
<!-- 1990977507104 -->
<g id="node20" class="node">
<title>1990977507104</title>
<ellipse fill="white" stroke="black" cx="474.5" cy="-235" rx="27" ry="27"/>
</g>
<!-- 1990977362288&#45;&gt;1990977507104 -->
<g id="edge7" class="edge">
<title>1990977362288&#45;&gt;1990977507104</title>
<path fill="none" stroke="black" d="M411.94,-235C420.06,-235 428.23,-235 435.84,-235"/>
<polygon fill="black" stroke="black" points="435.74,-238.5 445.74,-235 435.74,-231.5 435.74,-238.5"/>
</g>
<!-- 1990971516656 -->
<g id="node4" class="node">
<title>1990971516656</title>
<polygon fill="white" stroke="black" points="618.75,-289 537.5,-289 537.5,-253 618.75,-253 618.75,-289"/>
<text text-anchor="middle" x="578.12" y="-265.98" font-family="Times New Roman,serif" font-size="12.00">Pilot Training</text>
</g>
<!-- 1990977514256 -->
<g id="node22" class="node">
<title>1990977514256</title>
<ellipse fill="white" stroke="black" cx="681.75" cy="-271" rx="27" ry="27"/>
</g>
<!-- 1990971516656&#45;&gt;1990977514256 -->
<g id="edge10" class="edge">
<title>1990971516656&#45;&gt;1990977514256</title>
<path fill="none" stroke="black" d="M619,-271C626.9,-271 635.17,-271 643,-271"/>
<polygon fill="black" stroke="black" points="642.92,-274.5 652.92,-271 642.92,-267.5 642.92,-274.5"/>
</g>
<!-- 1990977509936 -->
<g id="node5" class="node">
<title>1990977509936</title>
<polygon fill="white" stroke="black" points="826.75,-266 744.75,-266 744.75,-230 826.75,-230 826.75,-266"/>
<text text-anchor="middle" x="785.75" y="-242.97" font-family="Times New Roman,serif" font-size="12.00">Flight Testing</text>
</g>
<!-- 1990977512432 -->
<g id="node23" class="node">
<title>1990977512432</title>
<ellipse fill="white" stroke="black" cx="889.75" cy="-243" rx="27" ry="27"/>
</g>
<!-- 1990977509936&#45;&gt;1990977512432 -->
<g id="edge12" class="edge">
<title>1990977509936&#45;&gt;1990977512432</title>
<path fill="none" stroke="black" d="M827.06,-246.02C834.98,-245.64 843.25,-245.23 851.07,-244.85"/>
<polygon fill="black" stroke="black" points="851.17,-248.35 860.98,-244.36 850.82,-241.36 851.17,-248.35"/>
</g>
<!-- 1990977396640 -->
<g id="node6" class="node">
<title>1990977396640</title>
<polygon fill="white" stroke="black" points="1052.38,-153 959.88,-153 959.88,-117 1052.38,-117 1052.38,-153"/>
<text text-anchor="middle" x="1006.12" y="-129.97" font-family="Times New Roman,serif" font-size="12.00">Data Integration</text>
</g>
<!-- 1990981884944 -->
<g id="node24" class="node">
<title>1990981884944</title>
<ellipse fill="white" stroke="black" cx="1122.5" cy="-99" rx="27" ry="27"/>
</g>
<!-- 1990977396640&#45;&gt;1990981884944 -->
<g id="edge17" class="edge">
<title>1990977396640&#45;&gt;1990981884944</title>
<path fill="none" stroke="black" d="M1052.66,-120.67C1063.55,-117.24 1075.02,-113.63 1085.42,-110.36"/>
<polygon fill="black" stroke="black" points="1086.26,-113.76 1094.75,-107.42 1084.16,-107.08 1086.26,-113.76"/>
</g>
<!-- 1990977404704 -->
<g id="node25" class="node">
<title>1990977404704</title>
<ellipse fill="white" stroke="black" cx="1122.5" cy="-27" rx="27" ry="27"/>
</g>
<!-- 1990977396640&#45;&gt;1990977404704 -->
<g id="edge16" class="edge">
<title>1990977396640&#45;&gt;1990977404704</title>
<path fill="none" stroke="black" d="M1026.53,-116.68C1045.12,-99.12 1073.37,-72.45 1094.23,-52.75"/>
<polygon fill="black" stroke="black" points="1096.42,-55.5 1101.28,-46.09 1091.61,-50.41 1096.42,-55.5"/>
</g>
<!-- 1990977403888 -->
<g id="node27" class="node">
<title>1990977403888</title>
<ellipse fill="white" stroke="black" cx="1122.5" cy="-171" rx="27" ry="27"/>
</g>
<!-- 1990977396640&#45;&gt;1990977403888 -->
<g id="edge15" class="edge">
<title>1990977396640&#45;&gt;1990977403888</title>
<path fill="none" stroke="black" d="M1052.66,-149.33C1063.55,-152.76 1075.02,-156.37 1085.42,-159.64"/>
<polygon fill="black" stroke="black" points="1084.16,-162.92 1094.75,-162.58 1086.26,-156.24 1084.16,-162.92"/>
</g>
<!-- 1990981832528 -->
<g id="node7" class="node">
<title>1990981832528</title>
<polygon fill="white" stroke="black" points="1059.5,-261 952.75,-261 952.75,-225 1059.5,-225 1059.5,-261"/>
<text text-anchor="middle" x="1006.12" y="-237.97" font-family="Times New Roman,serif" font-size="12.00">Pattern Adjustment</text>
</g>
<!-- 1990981844528 -->
<g id="node26" class="node">
<title>1990981844528</title>
<ellipse fill="white" stroke="black" cx="1122.5" cy="-243" rx="27" ry="27"/>
</g>
<!-- 1990981832528&#45;&gt;1990981844528 -->
<g id="edge18" class="edge">
<title>1990981832528&#45;&gt;1990981844528</title>
<path fill="none" stroke="black" d="M1059.96,-243C1067.95,-243 1076.05,-243 1083.64,-243"/>
<polygon fill="black" stroke="black" points="1083.54,-246.5 1093.54,-243 1083.54,-239.5 1083.54,-246.5"/>
</g>
<!-- 1990981884416 -->
<g id="node8" class="node">
<title>1990981884416</title>
<polygon fill="white" stroke="black" points="1304.25,-117 1185.5,-117 1185.5,-81 1304.25,-81 1304.25,-117"/>
<text text-anchor="middle" x="1244.88" y="-93.97" font-family="Times New Roman,serif" font-size="12.00">Community Outreach</text>
</g>
<!-- 1990977512000 -->
<g id="node29" class="node">
<title>1990977512000</title>
<ellipse fill="white" stroke="black" cx="1367.25" cy="-99" rx="27" ry="27"/>
</g>
<!-- 1990981884416&#45;&gt;1990977512000 -->
<g id="edge25" class="edge">
<title>1990981884416&#45;&gt;1990977512000</title>
<path fill="none" stroke="black" d="M1304.65,-99C1312.8,-99 1320.98,-99 1328.6,-99"/>
<polygon fill="black" stroke="black" points="1328.51,-102.5 1338.51,-99 1328.51,-95.5 1328.51,-102.5"/>
</g>
<!-- 1990981844624 -->
<g id="node9" class="node">
<title>1990981844624</title>
<polygon fill="white" stroke="black" points="1285.12,-261 1204.62,-261 1204.62,-225 1285.12,-225 1285.12,-261"/>
<text text-anchor="middle" x="1244.88" y="-237.97" font-family="Times New Roman,serif" font-size="12.00">Battery Swap</text>
</g>
<!-- 1990981842656 -->
<g id="node31" class="node">
<title>1990981842656</title>
<ellipse fill="white" stroke="black" cx="1367.25" cy="-243" rx="27" ry="27"/>
</g>
<!-- 1990981844624&#45;&gt;1990981842656 -->
<g id="edge23" class="edge">
<title>1990981844624&#45;&gt;1990981842656</title>
<path fill="none" stroke="black" d="M1285.62,-243C1299.4,-243 1314.79,-243 1328.4,-243"/>
<polygon fill="black" stroke="black" points="1328.31,-246.5 1338.31,-243 1328.31,-239.5 1328.31,-246.5"/>
</g>
<!-- 1990977403984 -->
<g id="node10" class="node">
<title>1990977403984</title>
<polygon fill="white" stroke="black" points="1294.88,-45 1194.88,-45 1194.88,-9 1294.88,-9 1294.88,-45"/>
<text text-anchor="middle" x="1244.88" y="-21.98" font-family="Times New Roman,serif" font-size="12.00">Emergency Setup</text>
</g>
<!-- 1990977517904 -->
<g id="node30" class="node">
<title>1990977517904</title>
<ellipse fill="white" stroke="black" cx="1367.25" cy="-27" rx="27" ry="27"/>
</g>
<!-- 1990977403984&#45;&gt;1990977517904 -->
<g id="edge26" class="edge">
<title>1990977403984&#45;&gt;1990977517904</title>
<path fill="none" stroke="black" d="M1295.18,-27C1306.32,-27 1317.96,-27 1328.53,-27"/>
<polygon fill="black" stroke="black" points="1328.41,-30.5 1338.41,-27 1328.41,-23.5 1328.41,-30.5"/>
</g>
<!-- 1990977394144 -->
<g id="node11" class="node">
<title>1990977394144</title>
<polygon fill="white" stroke="black" points="1295.25,-189 1194.5,-189 1194.5,-153 1295.25,-153 1295.25,-189"/>
<text text-anchor="middle" x="1244.88" y="-165.97" font-family="Times New Roman,serif" font-size="12.00">Maintenance Plan</text>
</g>
<!-- 1990977518480 -->
<g id="node28" class="node">
<title>1990977518480</title>
<ellipse fill="white" stroke="black" cx="1367.25" cy="-171" rx="27" ry="27"/>
</g>
<!-- 1990977394144&#45;&gt;1990977518480 -->
<g id="edge24" class="edge">
<title>1990977394144&#45;&gt;1990977518480</title>
<path fill="none" stroke="black" d="M1295.53,-171C1306.64,-171 1318.23,-171 1328.75,-171"/>
<polygon fill="black" stroke="black" points="1328.57,-174.5 1338.57,-171 1328.57,-167.5 1328.57,-174.5"/>
</g>
<!-- 1990981886528 -->
<g id="node12" class="node">
<title>1990981886528</title>
<polygon fill="black" stroke="black" points="1508,-117 1454,-117 1454,-81 1508,-81 1508,-117"/>
</g>
<!-- 1990977516368 -->
<g id="node32" class="node">
<title>1990977516368</title>
<ellipse fill="white" stroke="black" cx="1594.75" cy="-99" rx="27" ry="27"/>
</g>
<!-- 1990981886528&#45;&gt;1990977516368 -->
<g id="edge32" class="edge">
<title>1990981886528&#45;&gt;1990977516368</title>
<path fill="none" stroke="black" d="M1508.48,-99C1522.68,-99 1540.41,-99 1556.02,-99"/>
<polygon fill="black" stroke="black" points="1555.94,-102.5 1565.94,-99 1555.94,-95.5 1555.94,-102.5"/>
</g>
<!-- 1990981844720 -->
<g id="node13" class="node">
<title>1990981844720</title>
<polygon fill="white" stroke="black" points="1531.75,-288 1430.25,-288 1430.25,-252 1531.75,-252 1531.75,-288"/>
<text text-anchor="middle" x="1481" y="-264.98" font-family="Times New Roman,serif" font-size="12.00">Signal Calibration</text>
</g>
<!-- 1990981844720&#45;&gt;1990977514256 -->
<g id="edge31" class="edge">
<title>1990981844720&#45;&gt;1990977514256</title>
<path fill="none" stroke="black" d="M1429.97,-279.48C1382.71,-287.6 1309.74,-298 1245.88,-298 888.75,-298 888.75,-298 888.75,-298 829.2,-298 760.79,-286.77 719.7,-278.8"/>
<polygon fill="black" stroke="black" points="720.6,-275.41 710.11,-276.89 719.23,-282.27 720.6,-275.41"/>
</g>
<!-- 1990977510272 -->
<g id="node14" class="node">
<title>1990977510272</title>
<polygon fill="white" stroke="black" points="1773.5,-90 1657.75,-90 1657.75,-54 1773.5,-54 1773.5,-90"/>
<text text-anchor="middle" x="1715.62" y="-66.97" font-family="Times New Roman,serif" font-size="12.00">Performance Review</text>
</g>
<!-- 1990977504992 -->
<g id="node33" class="node">
<title>1990977504992</title>
<ellipse fill="white" stroke="black" cx="1836.5" cy="-71" rx="27" ry="27"/>
</g>
<!-- 1990977510272&#45;&gt;1990977504992 -->
<g id="edge34" class="edge">
<title>1990977510272&#45;&gt;1990977504992</title>
<path fill="none" stroke="black" d="M1773.97,-71.52C1782.08,-71.45 1790.23,-71.38 1797.84,-71.32"/>
<polygon fill="black" stroke="black" points="1797.76,-74.82 1807.73,-71.23 1797.7,-67.82 1797.76,-74.82"/>
</g>
<!-- 1990977503552 -->
<g id="node15" class="node">
<title>1990977503552</title>
<polygon fill="white" stroke="black" points="2000.62,-143 1902.12,-143 1902.12,-107 2000.62,-107 2000.62,-143"/>
<text text-anchor="middle" x="1951.38" y="-119.97" font-family="Times New Roman,serif" font-size="12.00">Mission Planning</text>
</g>
<!-- 1990977503552&#45;&gt;1990977516368 -->
<g id="edge37" class="edge">
<title>1990977503552&#45;&gt;1990977516368</title>
<path fill="none" stroke="black" d="M1901.72,-121.43C1830.16,-116.19 1698.03,-106.5 1633.37,-101.76"/>
<polygon fill="black" stroke="black" points="1633.85,-98.28 1623.62,-101.04 1633.34,-105.27 1633.85,-98.28"/>
</g>
<!-- 1990977512288 -->
<g id="node16" class="node">
<title>1990977512288</title>
<polygon fill="white" stroke="black" points="2003.25,-89 1899.5,-89 1899.5,-53 2003.25,-53 2003.25,-89"/>
<text text-anchor="middle" x="1951.38" y="-65.97" font-family="Times New Roman,serif" font-size="12.00">Report Generation</text>
</g>
<!-- 1990975755984 -->
<g id="node34" class="node">
<title>1990975755984</title>
<ellipse fill="white" stroke="black" cx="2070.25" cy="-71" rx="27" ry="27"/>
<ellipse fill="none" stroke="black" cx="2070.25" cy="-71" rx="31" ry="31"/>
<text text-anchor="start" x="2053.75" y="-55.6" font-family="Times New Roman,serif" font-size="32.00">■</text>
</g>
<!-- 1990977512288&#45;&gt;1990975755984 -->
<g id="edge38" class="edge">
<title>1990977512288&#45;&gt;1990975755984</title>
<path fill="none" stroke="black" d="M2003.64,-71C2011.62,-71 2019.79,-71 2027.52,-71"/>
<polygon fill="black" stroke="black" points="2027.35,-74.5 2037.35,-71 2027.35,-67.5 2027.35,-74.5"/>
</g>
<!-- 1990975751568 -->
<g id="node17" class="node">
<title>1990975751568</title>
<ellipse fill="white" stroke="black" cx="27" cy="-271" rx="27" ry="27"/>
<text text-anchor="start" x="9.75" y="-253.7" font-family="Times New Roman,serif" font-size="34.00">●</text>
</g>
<!-- 1990975751568&#45;&gt;1990977364976 -->
<g id="edge1" class="edge">
<title>1990975751568&#45;&gt;1990977364976</title>
<path fill="none" stroke="black" d="M54.31,-271C61.63,-271 69.84,-271 78.05,-271"/>
<polygon fill="black" stroke="black" points="78.05,-274.5 88.05,-271 78.05,-267.5 78.05,-274.5"/>
</g>
<!-- 1990977365120&#45;&gt;1990977358976 -->
<g id="edge5" class="edge">
<title>1990977365120&#45;&gt;1990977358976</title>
<path fill="none" stroke="black" d="M258.5,-307C267.99,-307 279.15,-307 290.39,-307"/>
<polygon fill="black" stroke="black" points="290.08,-310.5 300.08,-307 290.08,-303.5 290.08,-310.5"/>
</g>
<!-- 1990977361952&#45;&gt;1990977362288 -->
<g id="edge4" class="edge">
<title>1990977361952&#45;&gt;1990977362288</title>
<path fill="none" stroke="black" d="M258.5,-235C265.77,-235 274.02,-235 282.53,-235"/>
<polygon fill="black" stroke="black" points="282.3,-238.5 292.3,-235 282.3,-231.5 282.3,-238.5"/>
</g>
<!-- 1990977507104&#45;&gt;1990971516656 -->
<g id="edge9" class="edge">
<title>1990977507104&#45;&gt;1990971516656</title>
<path fill="none" stroke="black" d="M500.36,-243.81C508.3,-246.62 517.4,-249.84 526.48,-253.06"/>
<polygon fill="black" stroke="black" points="525.06,-256.27 535.65,-256.31 527.4,-249.67 525.06,-256.27"/>
</g>
<!-- 1990977508448&#45;&gt;1990971516656 -->
<g id="edge8" class="edge">
<title>1990977508448&#45;&gt;1990971516656</title>
<path fill="none" stroke="black" d="M500.36,-298.19C508.3,-295.38 517.4,-292.16 526.48,-288.94"/>
<polygon fill="black" stroke="black" points="527.4,-292.33 535.65,-285.69 525.06,-285.73 527.4,-292.33"/>
</g>
<!-- 1990977514256&#45;&gt;1990977509936 -->
<g id="edge11" class="edge">
<title>1990977514256&#45;&gt;1990977509936</title>
<path fill="none" stroke="black" d="M708.49,-265.2C716.04,-263.49 724.58,-261.57 733.14,-259.64"/>
<polygon fill="black" stroke="black" points="733.87,-263.06 742.85,-257.45 732.33,-256.23 733.87,-263.06"/>
</g>
<!-- 1990977512432&#45;&gt;1990977396640 -->
<g id="edge14" class="edge">
<title>1990977512432&#45;&gt;1990977396640</title>
<path fill="none" stroke="black" d="M910.15,-224.68C928.64,-207.22 956.66,-180.77 977.48,-161.11"/>
<polygon fill="black" stroke="black" points="979.66,-163.86 984.53,-154.45 974.85,-158.77 979.66,-163.86"/>
</g>
<!-- 1990977512432&#45;&gt;1990981832528 -->
<g id="edge13" class="edge">
<title>1990977512432&#45;&gt;1990981832528</title>
<path fill="none" stroke="black" d="M916.99,-243C924.33,-243 932.64,-243 941.15,-243"/>
<polygon fill="black" stroke="black" points="940.88,-246.5 950.88,-243 940.88,-239.5 940.88,-246.5"/>
</g>
<!-- 1990981884944&#45;&gt;1990981884416 -->
<g id="edge21" class="edge">
<title>1990981884944&#45;&gt;1990981884416</title>
<path fill="none" stroke="black" d="M1149.92,-99C1157.23,-99 1165.53,-99 1174.09,-99"/>
<polygon fill="black" stroke="black" points="1173.93,-102.5 1183.93,-99 1173.93,-95.5 1173.93,-102.5"/>
</g>
<!-- 1990977404704&#45;&gt;1990977403984 -->
<g id="edge19" class="edge">
<title>1990977404704&#45;&gt;1990977403984</title>
<path fill="none" stroke="black" d="M1149.92,-27C1159.88,-27 1171.67,-27 1183.47,-27"/>
<polygon fill="black" stroke="black" points="1183.22,-30.5 1193.22,-27 1183.22,-23.5 1183.22,-30.5"/>
</g>
<!-- 1990981844528&#45;&gt;1990981844624 -->
<g id="edge20" class="edge">
<title>1990981844528&#45;&gt;1990981844624</title>
<path fill="none" stroke="black" d="M1149.92,-243C1162.6,-243 1178.24,-243 1193.1,-243"/>
<polygon fill="black" stroke="black" points="1192.74,-246.5 1202.74,-243 1192.74,-239.5 1192.74,-246.5"/>
</g>
<!-- 1990977403888&#45;&gt;1990977394144 -->
<g id="edge22" class="edge">
<title>1990977403888&#45;&gt;1990977394144</title>
<path fill="none" stroke="black" d="M1149.92,-171C1159.68,-171 1171.18,-171 1182.74,-171"/>
<polygon fill="black" stroke="black" points="1182.74,-174.5 1192.74,-171 1182.74,-167.5 1182.74,-174.5"/>
</g>
<!-- 1990977518480&#45;&gt;1990981886528 -->
<g id="edge30" class="edge">
<title>1990977518480&#45;&gt;1990981886528</title>
<path fill="none" stroke="black" d="M1390.6,-156.6C1405.97,-146.7 1426.71,-133.34 1444.34,-121.97"/>
<polygon fill="black" stroke="black" points="1445.98,-125.08 1452.5,-116.72 1442.19,-119.2 1445.98,-125.08"/>
</g>
<!-- 1990977512000&#45;&gt;1990981886528 -->
<g id="edge29" class="edge">
<title>1990977512000&#45;&gt;1990981886528</title>
<path fill="none" stroke="black" d="M1394.73,-99C1408.93,-99 1426.66,-99 1442.27,-99"/>
<polygon fill="black" stroke="black" points="1442.19,-102.5 1452.19,-99 1442.19,-95.5 1442.19,-102.5"/>
</g>
<!-- 1990977517904&#45;&gt;1990981886528 -->
<g id="edge27" class="edge">
<title>1990977517904&#45;&gt;1990981886528</title>
<path fill="none" stroke="black" d="M1390.6,-41.4C1405.97,-51.3 1426.71,-64.66 1444.34,-76.03"/>
<polygon fill="black" stroke="black" points="1442.19,-78.8 1452.5,-81.28 1445.98,-72.92 1442.19,-78.8"/>
</g>
<!-- 1990981842656&#45;&gt;1990981844720 -->
<g id="edge28" class="edge">
<title>1990981842656&#45;&gt;1990981844720</title>
<path fill="none" stroke="black" d="M1393.89,-249.19C1401.41,-251.01 1409.98,-253.08 1418.72,-255.19"/>
<polygon fill="black" stroke="black" points="1417.82,-258.58 1428.36,-257.52 1419.46,-251.77 1417.82,-258.58"/>
</g>
<!-- 1990977516368&#45;&gt;1990977510272 -->
<g id="edge33" class="edge">
<title>1990977516368&#45;&gt;1990977510272</title>
<path fill="none" stroke="black" d="M1621.54,-93.14C1629.12,-91.42 1637.78,-89.45 1646.7,-87.43"/>
<polygon fill="black" stroke="black" points="1647.2,-90.9 1656.18,-85.28 1645.65,-84.08 1647.2,-90.9"/>
</g>
<!-- 1990977504992&#45;&gt;1990977503552 -->
<g id="edge35" class="edge">
<title>1990977504992&#45;&gt;1990977503552</title>
<path fill="none" stroke="black" d="M1861.44,-82.45C1873.21,-88.08 1887.84,-95.08 1901.81,-101.77"/>
<polygon fill="black" stroke="black" points="1899.92,-104.74 1910.45,-105.9 1902.94,-98.43 1899.92,-104.74"/>
</g>
<!-- 1990977504992&#45;&gt;1990977512288 -->
<g id="edge36" class="edge">
<title>1990977504992&#45;&gt;1990977512288</title>
<path fill="none" stroke="black" d="M1863.96,-71C1871.22,-71 1879.41,-71 1887.78,-71"/>
<polygon fill="black" stroke="black" points="1887.73,-74.5 1897.73,-71 1887.73,-67.5 1887.73,-74.5"/>
</g>
</g>
</svg>
