<?xml version="1.0" encoding="UTF-8" standalone="no"?>
<!DOCTYPE svg PUBLIC "-//W3C//DTD SVG 1.1//EN"
 "http://www.w3.org/Graphics/SVG/1.1/DTD/svg11.dtd">
<!-- Generated by graphviz version 11.0.0 (20240428.1522)
 -->
<!-- Title: imdf_net_1754051751.609514 Pages: 1 -->
<svg width="2530pt" height="278pt"
 viewBox="0.00 0.00 2530.00 278.00" xmlns="http://www.w3.org/2000/svg" xmlns:xlink="http://www.w3.org/1999/xlink">
<g id="graph0" class="graph" transform="scale(1 1) rotate(0) translate(4 274)">
<title>imdf_net_1754051751.609514</title>
<polygon fill="white" stroke="none" points="-4,4 -4,-274 2526,-274 2526,4 -4,4"/>
<!-- 1990980359888 -->
<g id="node1" class="node">
<title>1990980359888</title>
<polygon fill="white" stroke="black" points="160.75,-153 90,-153 90,-117 160.75,-117 160.75,-153"/>
<text text-anchor="middle" x="125.38" y="-129.97" font-family="Times New Roman,serif" font-size="12.00">Site Survey</text>
</g>
<!-- 1990979570288 -->
<g id="node17" class="node">
<title>1990979570288</title>
<ellipse fill="white" stroke="black" cx="223.75" cy="-135" rx="27" ry="27"/>
</g>
<!-- 1990980359888&#45;&gt;1990979570288 -->
<g id="edge2" class="edge">
<title>1990980359888&#45;&gt;1990979570288</title>
<path fill="none" stroke="black" d="M161.17,-135C168.9,-135 177.14,-135 184.98,-135"/>
<polygon fill="black" stroke="black" points="184.97,-138.5 194.97,-135 184.97,-131.5 184.97,-138.5"/>
</g>
<!-- 1990979581328 -->
<g id="node2" class="node">
<title>1990979581328</title>
<polygon fill="white" stroke="black" points="360.5,-153 286.75,-153 286.75,-117 360.5,-117 360.5,-153"/>
<text text-anchor="middle" x="323.62" y="-129.97" font-family="Times New Roman,serif" font-size="12.00">Design Plan</text>
</g>
<!-- 1990979578928 -->
<g id="node18" class="node">
<title>1990979578928</title>
<ellipse fill="white" stroke="black" cx="423.5" cy="-135" rx="27" ry="27"/>
</g>
<!-- 1990979581328&#45;&gt;1990979578928 -->
<g id="edge4" class="edge">
<title>1990979581328&#45;&gt;1990979578928</title>
<path fill="none" stroke="black" d="M360.79,-135C368.69,-135 377.08,-135 385.03,-135"/>
<polygon fill="black" stroke="black" points="384.75,-138.5 394.75,-135 384.75,-131.5 384.75,-138.5"/>
</g>
<!-- 1990979569760 -->
<g id="node3" class="node">
<title>1990979569760</title>
<polygon fill="white" stroke="black" points="569.25,-153 486.5,-153 486.5,-117 569.25,-117 569.25,-153"/>
<text text-anchor="middle" x="527.88" y="-129.97" font-family="Times New Roman,serif" font-size="12.00">Module Setup</text>
</g>
<!-- 1990979573792 -->
<g id="node19" class="node">
<title>1990979573792</title>
<ellipse fill="white" stroke="black" cx="632.25" cy="-135" rx="27" ry="27"/>
</g>
<!-- 1990979569760&#45;&gt;1990979573792 -->
<g id="edge6" class="edge">
<title>1990979569760&#45;&gt;1990979573792</title>
<path fill="none" stroke="black" d="M569.63,-135C577.48,-135 585.67,-135 593.42,-135"/>
<polygon fill="black" stroke="black" points="593.24,-138.5 603.24,-135 593.24,-131.5 593.24,-138.5"/>
</g>
<!-- 1990979580656 -->
<g id="node4" class="node">
<title>1990979580656</title>
<polygon fill="white" stroke="black" points="777.25,-153 695.25,-153 695.25,-117 777.25,-117 777.25,-153"/>
<text text-anchor="middle" x="736.25" y="-129.97" font-family="Times New Roman,serif" font-size="12.00">System Install</text>
</g>
<!-- 1990979583344 -->
<g id="node20" class="node">
<title>1990979583344</title>
<ellipse fill="white" stroke="black" cx="840.25" cy="-135" rx="27" ry="27"/>
</g>
<!-- 1990979580656&#45;&gt;1990979583344 -->
<g id="edge8" class="edge">
<title>1990979580656&#45;&gt;1990979583344</title>
<path fill="none" stroke="black" d="M777.56,-135C785.48,-135 793.75,-135 801.57,-135"/>
<polygon fill="black" stroke="black" points="801.48,-138.5 811.48,-135 801.48,-131.5 801.48,-138.5"/>
</g>
<!-- 1990979573072 -->
<g id="node5" class="node">
<title>1990979573072</title>
<polygon fill="white" stroke="black" points="989.75,-153 903.25,-153 903.25,-117 989.75,-117 989.75,-153"/>
<text text-anchor="middle" x="946.5" y="-129.97" font-family="Times New Roman,serif" font-size="12.00">Sensor Deploy</text>
</g>
<!-- 1990979570096 -->
<g id="node21" class="node">
<title>1990979570096</title>
<ellipse fill="white" stroke="black" cx="1052.75" cy="-135" rx="27" ry="27"/>
</g>
<!-- 1990979573072&#45;&gt;1990979570096 -->
<g id="edge10" class="edge">
<title>1990979573072&#45;&gt;1990979570096</title>
<path fill="none" stroke="black" d="M990.2,-135C998.12,-135 1006.34,-135 1014.09,-135"/>
<polygon fill="black" stroke="black" points="1013.89,-138.5 1023.89,-135 1013.89,-131.5 1013.89,-138.5"/>
</g>
<!-- 1990981594736 -->
<g id="node6" class="node">
<title>1990981594736</title>
<polygon fill="white" stroke="black" points="1186.5,-153 1115.75,-153 1115.75,-117 1186.5,-117 1186.5,-153"/>
<text text-anchor="middle" x="1151.12" y="-129.97" font-family="Times New Roman,serif" font-size="12.00">Seed Select</text>
</g>
<!-- 1990981593920 -->
<g id="node22" class="node">
<title>1990981593920</title>
<ellipse fill="white" stroke="black" cx="1249.5" cy="-135" rx="27" ry="27"/>
</g>
<!-- 1990981594736&#45;&gt;1990981593920 -->
<g id="edge12" class="edge">
<title>1990981594736&#45;&gt;1990981593920</title>
<path fill="none" stroke="black" d="M1186.92,-135C1194.65,-135 1202.89,-135 1210.73,-135"/>
<polygon fill="black" stroke="black" points="1210.72,-138.5 1220.72,-135 1210.72,-131.5 1210.72,-138.5"/>
</g>
<!-- 1990981593584 -->
<g id="node7" class="node">
<title>1990981593584</title>
<polygon fill="white" stroke="black" points="1390,-153 1312.5,-153 1312.5,-117 1390,-117 1390,-153"/>
<text text-anchor="middle" x="1351.25" y="-129.97" font-family="Times New Roman,serif" font-size="12.00">Nutrient Mix</text>
</g>
<!-- 1990981587536 -->
<g id="node23" class="node">
<title>1990981587536</title>
<ellipse fill="white" stroke="black" cx="1453" cy="-135" rx="27" ry="27"/>
</g>
<!-- 1990981593584&#45;&gt;1990981587536 -->
<g id="edge14" class="edge">
<title>1990981593584&#45;&gt;1990981587536</title>
<path fill="none" stroke="black" d="M1390.25,-135C1398.07,-135 1406.31,-135 1414.13,-135"/>
<polygon fill="black" stroke="black" points="1414.05,-138.5 1424.05,-135 1414.05,-131.5 1414.05,-138.5"/>
</g>
<!-- 1990981593392 -->
<g id="node8" class="node">
<title>1990981593392</title>
<polygon fill="white" stroke="black" points="1616.75,-153 1516,-153 1516,-117 1616.75,-117 1616.75,-153"/>
<text text-anchor="middle" x="1566.38" y="-129.97" font-family="Times New Roman,serif" font-size="12.00">Automation Code</text>
</g>
<!-- 1990979721488 -->
<g id="node24" class="node">
<title>1990979721488</title>
<ellipse fill="white" stroke="black" cx="1679.75" cy="-243" rx="27" ry="27"/>
</g>
<!-- 1990981593392&#45;&gt;1990979721488 -->
<g id="edge16" class="edge">
<title>1990981593392&#45;&gt;1990979721488</title>
<path fill="none" stroke="black" d="M1586.27,-153.32C1604.19,-170.7 1631.31,-197 1651.56,-216.63"/>
<polygon fill="black" stroke="black" points="1649.06,-219.09 1658.68,-223.54 1653.93,-214.06 1649.06,-219.09"/>
</g>
<!-- 1990977969984 -->
<g id="node25" class="node">
<title>1990977969984</title>
<ellipse fill="white" stroke="black" cx="1679.75" cy="-171" rx="27" ry="27"/>
</g>
<!-- 1990981593392&#45;&gt;1990977969984 -->
<g id="edge17" class="edge">
<title>1990981593392&#45;&gt;1990977969984</title>
<path fill="none" stroke="black" d="M1617.2,-151.1C1625.88,-153.91 1634.75,-156.78 1642.96,-159.43"/>
<polygon fill="black" stroke="black" points="1641.63,-162.68 1652.22,-162.43 1643.78,-156.02 1641.63,-162.68"/>
</g>
<!-- 1990980954704 -->
<g id="node26" class="node">
<title>1990980954704</title>
<ellipse fill="white" stroke="black" cx="1679.75" cy="-99" rx="27" ry="27"/>
</g>
<!-- 1990981593392&#45;&gt;1990980954704 -->
<g id="edge19" class="edge">
<title>1990981593392&#45;&gt;1990980954704</title>
<path fill="none" stroke="black" d="M1617.2,-118.9C1625.88,-116.09 1634.75,-113.22 1642.96,-110.57"/>
<polygon fill="black" stroke="black" points="1643.78,-113.98 1652.22,-107.57 1641.63,-107.32 1643.78,-113.98"/>
</g>
<!-- 1990979790288 -->
<g id="node27" class="node">
<title>1990979790288</title>
<ellipse fill="white" stroke="black" cx="1679.75" cy="-27" rx="27" ry="27"/>
</g>
<!-- 1990981593392&#45;&gt;1990979790288 -->
<g id="edge18" class="edge">
<title>1990981593392&#45;&gt;1990979790288</title>
<path fill="none" stroke="black" d="M1586.27,-116.68C1604.19,-99.3 1631.31,-73 1651.56,-53.37"/>
<polygon fill="black" stroke="black" points="1653.93,-55.94 1658.68,-46.46 1649.06,-50.91 1653.93,-55.94"/>
</g>
<!-- 1990979785248 -->
<g id="node9" class="node">
<title>1990979785248</title>
<polygon fill="white" stroke="black" points="1823.25,-189 1742.75,-189 1742.75,-153 1823.25,-153 1823.25,-189"/>
<text text-anchor="middle" x="1783" y="-165.97" font-family="Times New Roman,serif" font-size="12.00">Energy Audit</text>
</g>
<!-- 1990980245584 -->
<g id="node29" class="node">
<title>1990980245584</title>
<ellipse fill="white" stroke="black" cx="1886.25" cy="-171" rx="27" ry="27"/>
</g>
<!-- 1990979785248&#45;&gt;1990980245584 -->
<g id="edge24" class="edge">
<title>1990979785248&#45;&gt;1990980245584</title>
<path fill="none" stroke="black" d="M1823.73,-171C1831.6,-171 1839.84,-171 1847.64,-171"/>
<polygon fill="black" stroke="black" points="1847.52,-174.5 1857.52,-171 1847.52,-167.5 1847.52,-174.5"/>
</g>
<!-- 1990981524160 -->
<g id="node10" class="node">
<title>1990981524160</title>
<polygon fill="white" stroke="black" points="1816.88,-45 1749.12,-45 1749.12,-9 1816.88,-9 1816.88,-45"/>
<text text-anchor="middle" x="1783" y="-21.98" font-family="Times New Roman,serif" font-size="12.00">Waste Sort</text>
</g>
<!-- 1990980250432 -->
<g id="node28" class="node">
<title>1990980250432</title>
<ellipse fill="white" stroke="black" cx="1886.25" cy="-27" rx="27" ry="27"/>
</g>
<!-- 1990981524160&#45;&gt;1990980250432 -->
<g id="edge25" class="edge">
<title>1990981524160&#45;&gt;1990980250432</title>
<path fill="none" stroke="black" d="M1817.15,-27C1826.85,-27 1837.53,-27 1847.49,-27"/>
<polygon fill="black" stroke="black" points="1847.25,-30.5 1857.25,-27 1847.25,-23.5 1847.25,-30.5"/>
</g>
<!-- 1990979925200 -->
<g id="node11" class="node">
<title>1990979925200</title>
<polygon fill="white" stroke="black" points="1816.5,-117 1749.5,-117 1749.5,-81 1816.5,-81 1816.5,-117"/>
<text text-anchor="middle" x="1783" y="-93.97" font-family="Times New Roman,serif" font-size="12.00">Staff Train</text>
</g>
<!-- 1990971353200 -->
<g id="node30" class="node">
<title>1990971353200</title>
<ellipse fill="white" stroke="black" cx="1886.25" cy="-99" rx="27" ry="27"/>
</g>
<!-- 1990979925200&#45;&gt;1990971353200 -->
<g id="edge27" class="edge">
<title>1990979925200&#45;&gt;1990971353200</title>
<path fill="none" stroke="black" d="M1816.87,-99C1826.67,-99 1837.48,-99 1847.55,-99"/>
<polygon fill="black" stroke="black" points="1847.43,-102.5 1857.43,-99 1847.43,-95.5 1847.43,-102.5"/>
</g>
<!-- 1990976169952 -->
<g id="node12" class="node">
<title>1990976169952</title>
<polygon fill="white" stroke="black" points="1820.25,-261 1745.75,-261 1745.75,-225 1820.25,-225 1820.25,-261"/>
<text text-anchor="middle" x="1783" y="-237.97" font-family="Times New Roman,serif" font-size="12.00">Pest Control</text>
</g>
<!-- 1990971355504 -->
<g id="node31" class="node">
<title>1990971355504</title>
<ellipse fill="white" stroke="black" cx="1886.25" cy="-243" rx="27" ry="27"/>
</g>
<!-- 1990976169952&#45;&gt;1990971355504 -->
<g id="edge26" class="edge">
<title>1990976169952&#45;&gt;1990971355504</title>
<path fill="none" stroke="black" d="M1820.55,-243C1829.38,-243 1838.82,-243 1847.69,-243"/>
<polygon fill="black" stroke="black" points="1847.4,-246.5 1857.4,-243 1847.4,-239.5 1847.4,-246.5"/>
</g>
<!-- 1990977218768 -->
<g id="node13" class="node">
<title>1990977218768</title>
<polygon fill="white" stroke="black" points="2026,-153 1949.25,-153 1949.25,-117 2026,-117 2026,-153"/>
<text text-anchor="middle" x="1987.62" y="-129.97" font-family="Times New Roman,serif" font-size="12.00">Harvest Plan</text>
</g>
<!-- 1990977220544 -->
<g id="node32" class="node">
<title>1990977220544</title>
<ellipse fill="white" stroke="black" cx="2089" cy="-135" rx="27" ry="27"/>
</g>
<!-- 1990977218768&#45;&gt;1990977220544 -->
<g id="edge32" class="edge">
<title>1990977218768&#45;&gt;1990977220544</title>
<path fill="none" stroke="black" d="M2026.48,-135C2034.27,-135 2042.48,-135 2050.27,-135"/>
<polygon fill="black" stroke="black" points="2050.15,-138.5 2060.15,-135 2050.15,-131.5 2050.15,-138.5"/>
</g>
<!-- 1990977919920 -->
<g id="node14" class="node">
<title>1990977919920</title>
<polygon fill="white" stroke="black" points="2216,-153 2152,-153 2152,-117 2216,-117 2216,-153"/>
<text text-anchor="middle" x="2184" y="-129.97" font-family="Times New Roman,serif" font-size="12.00">Pack Prep</text>
</g>
<!-- 1990977081264 -->
<g id="node33" class="node">
<title>1990977081264</title>
<ellipse fill="white" stroke="black" cx="2279" cy="-135" rx="27" ry="27"/>
</g>
<!-- 1990977919920&#45;&gt;1990977081264 -->
<g id="edge34" class="edge">
<title>1990977919920&#45;&gt;1990977081264</title>
<path fill="none" stroke="black" d="M2216.49,-135C2224.04,-135 2232.2,-135 2240.01,-135"/>
<polygon fill="black" stroke="black" points="2239.99,-138.5 2249.99,-135 2239.99,-131.5 2239.99,-138.5"/>
</g>
<!-- 1990977079104 -->
<g id="node15" class="node">
<title>1990977079104</title>
<polygon fill="white" stroke="black" points="2424,-153 2342,-153 2342,-117 2424,-117 2424,-153"/>
<text text-anchor="middle" x="2383" y="-129.97" font-family="Times New Roman,serif" font-size="12.00">Yield Review</text>
</g>
<!-- 1990981962208 -->
<g id="node34" class="node">
<title>1990981962208</title>
<ellipse fill="white" stroke="black" cx="2491" cy="-135" rx="27" ry="27"/>
<ellipse fill="none" stroke="black" cx="2491" cy="-135" rx="31" ry="31"/>
<text text-anchor="start" x="2474.5" y="-119.6" font-family="Times New Roman,serif" font-size="32.00">■</text>
</g>
<!-- 1990977079104&#45;&gt;1990981962208 -->
<g id="edge36" class="edge">
<title>1990977079104&#45;&gt;1990981962208</title>
<path fill="none" stroke="black" d="M2424.38,-135C2432.15,-135 2440.3,-135 2448.12,-135"/>
<polygon fill="black" stroke="black" points="2448.12,-138.5 2458.12,-135 2448.12,-131.5 2448.12,-138.5"/>
</g>
<!-- 1990978183360 -->
<g id="node16" class="node">
<title>1990978183360</title>
<ellipse fill="white" stroke="black" cx="27" cy="-135" rx="27" ry="27"/>
<text text-anchor="start" x="9.75" y="-117.7" font-family="Times New Roman,serif" font-size="34.00">●</text>
</g>
<!-- 1990978183360&#45;&gt;1990980359888 -->
<g id="edge1" class="edge">
<title>1990978183360&#45;&gt;1990980359888</title>
<path fill="none" stroke="black" d="M54.33,-135C61.76,-135 70.06,-135 78.28,-135"/>
<polygon fill="black" stroke="black" points="78.24,-138.5 88.24,-135 78.24,-131.5 78.24,-138.5"/>
</g>
<!-- 1990979570288&#45;&gt;1990979581328 -->
<g id="edge3" class="edge">
<title>1990979570288&#45;&gt;1990979581328</title>
<path fill="none" stroke="black" d="M251.24,-135C258.62,-135 266.88,-135 275.09,-135"/>
<polygon fill="black" stroke="black" points="275.05,-138.5 285.05,-135 275.05,-131.5 275.05,-138.5"/>
</g>
<!-- 1990979578928&#45;&gt;1990979569760 -->
<g id="edge5" class="edge">
<title>1990979578928&#45;&gt;1990979569760</title>
<path fill="none" stroke="black" d="M450.86,-135C458.28,-135 466.61,-135 474.96,-135"/>
<polygon fill="black" stroke="black" points="474.77,-138.5 484.77,-135 474.77,-131.5 474.77,-138.5"/>
</g>
<!-- 1990979573792&#45;&gt;1990979580656 -->
<g id="edge7" class="edge">
<title>1990979573792&#45;&gt;1990979580656</title>
<path fill="none" stroke="black" d="M659.52,-135C666.9,-135 675.2,-135 683.53,-135"/>
<polygon fill="black" stroke="black" points="683.3,-138.5 693.3,-135 683.3,-131.5 683.3,-138.5"/>
</g>
<!-- 1990979583344&#45;&gt;1990979573072 -->
<g id="edge9" class="edge">
<title>1990979583344&#45;&gt;1990979573072</title>
<path fill="none" stroke="black" d="M867.56,-135C874.94,-135 883.24,-135 891.61,-135"/>
<polygon fill="black" stroke="black" points="891.46,-138.5 901.46,-135 891.46,-131.5 891.46,-138.5"/>
</g>
<!-- 1990979570096&#45;&gt;1990981594736 -->
<g id="edge11" class="edge">
<title>1990979570096&#45;&gt;1990981594736</title>
<path fill="none" stroke="black" d="M1080.08,-135C1087.51,-135 1095.81,-135 1104.03,-135"/>
<polygon fill="black" stroke="black" points="1103.99,-138.5 1113.99,-135 1103.99,-131.5 1103.99,-138.5"/>
</g>
<!-- 1990981593920&#45;&gt;1990981593584 -->
<g id="edge13" class="edge">
<title>1990981593920&#45;&gt;1990981593584</title>
<path fill="none" stroke="black" d="M1276.97,-135C1284.27,-135 1292.43,-135 1300.58,-135"/>
<polygon fill="black" stroke="black" points="1300.5,-138.5 1310.5,-135 1300.5,-131.5 1300.5,-138.5"/>
</g>
<!-- 1990981587536&#45;&gt;1990981593392 -->
<g id="edge15" class="edge">
<title>1990981587536&#45;&gt;1990981593392</title>
<path fill="none" stroke="black" d="M1480.39,-135C1487.65,-135 1495.83,-135 1504.17,-135"/>
<polygon fill="black" stroke="black" points="1504.07,-138.5 1514.07,-135 1504.07,-131.5 1504.07,-138.5"/>
</g>
<!-- 1990979721488&#45;&gt;1990976169952 -->
<g id="edge23" class="edge">
<title>1990979721488&#45;&gt;1990976169952</title>
<path fill="none" stroke="black" d="M1707.09,-243C1715.42,-243 1724.9,-243 1734.25,-243"/>
<polygon fill="black" stroke="black" points="1733.99,-246.5 1743.99,-243 1733.99,-239.5 1733.99,-246.5"/>
</g>
<!-- 1990977969984&#45;&gt;1990979785248 -->
<g id="edge22" class="edge">
<title>1990977969984&#45;&gt;1990979785248</title>
<path fill="none" stroke="black" d="M1707.09,-171C1714.5,-171 1722.82,-171 1731.15,-171"/>
<polygon fill="black" stroke="black" points="1730.92,-174.5 1740.92,-171 1730.92,-167.5 1730.92,-174.5"/>
</g>
<!-- 1990980954704&#45;&gt;1990979925200 -->
<g id="edge20" class="edge">
<title>1990980954704&#45;&gt;1990979925200</title>
<path fill="none" stroke="black" d="M1707.09,-99C1716.55,-99 1727.51,-99 1738.06,-99"/>
<polygon fill="black" stroke="black" points="1737.76,-102.5 1747.76,-99 1737.76,-95.5 1737.76,-102.5"/>
</g>
<!-- 1990979790288&#45;&gt;1990981524160 -->
<g id="edge21" class="edge">
<title>1990979790288&#45;&gt;1990981524160</title>
<path fill="none" stroke="black" d="M1707.09,-27C1716.37,-27 1727.08,-27 1737.44,-27"/>
<polygon fill="black" stroke="black" points="1737.39,-30.5 1747.39,-27 1737.39,-23.5 1737.39,-30.5"/>
</g>
<!-- 1990980250432&#45;&gt;1990977218768 -->
<g id="edge30" class="edge">
<title>1990980250432&#45;&gt;1990977218768</title>
<path fill="none" stroke="black" d="M1905.25,-46.56C1921.16,-63.85 1944.5,-89.22 1962.12,-108.36"/>
<polygon fill="black" stroke="black" points="1959.39,-110.57 1968.73,-115.55 1964.54,-105.83 1959.39,-110.57"/>
</g>
<!-- 1990980245584&#45;&gt;1990977218768 -->
<g id="edge29" class="edge">
<title>1990980245584&#45;&gt;1990977218768</title>
<path fill="none" stroke="black" d="M1912.07,-162.01C1920.09,-159.1 1929.27,-155.78 1938.38,-152.48"/>
<polygon fill="black" stroke="black" points="1939.34,-155.85 1947.55,-149.15 1936.96,-149.27 1939.34,-155.85"/>
</g>
<!-- 1990971353200&#45;&gt;1990977218768 -->
<g id="edge28" class="edge">
<title>1990971353200&#45;&gt;1990977218768</title>
<path fill="none" stroke="black" d="M1912.07,-107.99C1920.09,-110.9 1929.27,-114.22 1938.38,-117.52"/>
<polygon fill="black" stroke="black" points="1936.96,-120.73 1947.55,-120.85 1939.34,-114.15 1936.96,-120.73"/>
</g>
<!-- 1990971355504&#45;&gt;1990977218768 -->
<g id="edge31" class="edge">
<title>1990971355504&#45;&gt;1990977218768</title>
<path fill="none" stroke="black" d="M1905.25,-223.44C1921.16,-206.15 1944.5,-180.78 1962.12,-161.64"/>
<polygon fill="black" stroke="black" points="1964.54,-164.17 1968.73,-154.45 1959.39,-159.43 1964.54,-164.17"/>
</g>
<!-- 1990977220544&#45;&gt;1990977919920 -->
<g id="edge33" class="edge">
<title>1990977220544&#45;&gt;1990977919920</title>
<path fill="none" stroke="black" d="M2116.4,-135C2123.85,-135 2132.14,-135 2140.29,-135"/>
<polygon fill="black" stroke="black" points="2140.07,-138.5 2150.07,-135 2140.07,-131.5 2140.07,-138.5"/>
</g>
<!-- 1990977081264&#45;&gt;1990977079104 -->
<g id="edge35" class="edge">
<title>1990977081264&#45;&gt;1990977079104</title>
<path fill="none" stroke="black" d="M2306.27,-135C2313.65,-135 2321.95,-135 2330.28,-135"/>
<polygon fill="black" stroke="black" points="2330.05,-138.5 2340.05,-135 2330.05,-131.5 2330.05,-138.5"/>
</g>
</g>
</svg>
