<?xml version="1.0" encoding="UTF-8" standalone="no"?>
<!DOCTYPE svg PUBLIC "-//W3C//DTD SVG 1.1//EN"
 "http://www.w3.org/Graphics/SVG/1.1/DTD/svg11.dtd">
<!-- Generated by graphviz version 11.0.0 (20240428.1522)
 -->
<!-- Title: imdf_net_1754051751.4869318 Pages: 1 -->
<svg width="2966pt" height="134pt"
 viewBox="0.00 0.00 2966.25 134.00" xmlns="http://www.w3.org/2000/svg" xmlns:xlink="http://www.w3.org/1999/xlink">
<g id="graph0" class="graph" transform="scale(1 1) rotate(0) translate(4 130)">
<title>imdf_net_1754051751.4869318</title>
<polygon fill="white" stroke="none" points="-4,4 -4,-130 2962.25,-130 2962.25,4 -4,4"/>
<!-- 1990979782656 -->
<g id="node1" class="node">
<title>1990979782656</title>
<polygon fill="white" stroke="black" points="168.25,-81 90,-81 90,-45 168.25,-45 168.25,-81"/>
<text text-anchor="middle" x="129.12" y="-57.98" font-family="Times New Roman,serif" font-size="12.00">Site Analysis</text>
</g>
<!-- 1990976163808 -->
<g id="node17" class="node">
<title>1990976163808</title>
<ellipse fill="white" stroke="black" cx="231.25" cy="-63" rx="27" ry="27"/>
</g>
<!-- 1990979782656&#45;&gt;1990976163808 -->
<g id="edge2" class="edge">
<title>1990979782656&#45;&gt;1990976163808</title>
<path fill="none" stroke="black" d="M168.55,-63C176.39,-63 184.63,-63 192.44,-63"/>
<polygon fill="black" stroke="black" points="192.36,-66.5 202.36,-63 192.36,-59.5 192.36,-66.5"/>
</g>
<!-- 1990976168128 -->
<g id="node2" class="node">
<title>1990976168128</title>
<polygon fill="white" stroke="black" points="384.5,-81 294.25,-81 294.25,-45 384.5,-45 384.5,-81"/>
<text text-anchor="middle" x="339.38" y="-57.98" font-family="Times New Roman,serif" font-size="12.00">Zoning Review</text>
</g>
<!-- 1990979728304 -->
<g id="node18" class="node">
<title>1990979728304</title>
<ellipse fill="white" stroke="black" cx="447.5" cy="-63" rx="27" ry="27"/>
</g>
<!-- 1990976168128&#45;&gt;1990979728304 -->
<g id="edge4" class="edge">
<title>1990976168128&#45;&gt;1990979728304</title>
<path fill="none" stroke="black" d="M384.77,-63C392.76,-63 401.03,-63 408.81,-63"/>
<polygon fill="black" stroke="black" points="408.64,-66.5 418.64,-63 408.64,-59.5 408.64,-66.5"/>
</g>
<!-- 1990979720864 -->
<g id="node3" class="node">
<title>1990979720864</title>
<polygon fill="white" stroke="black" points="597,-81 510.5,-81 510.5,-45 597,-45 597,-81"/>
<text text-anchor="middle" x="553.75" y="-57.98" font-family="Times New Roman,serif" font-size="12.00">Design Layout</text>
</g>
<!-- 1990979718560 -->
<g id="node19" class="node">
<title>1990979718560</title>
<ellipse fill="white" stroke="black" cx="660" cy="-63" rx="27" ry="27"/>
</g>
<!-- 1990979720864&#45;&gt;1990979718560 -->
<g id="edge6" class="edge">
<title>1990979720864&#45;&gt;1990979718560</title>
<path fill="none" stroke="black" d="M597.45,-63C605.37,-63 613.59,-63 621.34,-63"/>
<polygon fill="black" stroke="black" points="621.14,-66.5 631.14,-63 621.14,-59.5 621.14,-66.5"/>
</g>
<!-- 1990979726000 -->
<g id="node4" class="node">
<title>1990979726000</title>
<polygon fill="white" stroke="black" points="815.5,-81 723,-81 723,-45 815.5,-45 815.5,-81"/>
<text text-anchor="middle" x="769.25" y="-57.98" font-family="Times New Roman,serif" font-size="12.00">Stack Assembly</text>
</g>
<!-- 1990980959456 -->
<g id="node20" class="node">
<title>1990980959456</title>
<ellipse fill="white" stroke="black" cx="878.5" cy="-63" rx="27" ry="27"/>
</g>
<!-- 1990979726000&#45;&gt;1990980959456 -->
<g id="edge8" class="edge">
<title>1990979726000&#45;&gt;1990980959456</title>
<path fill="none" stroke="black" d="M815.73,-63C823.77,-63 832.06,-63 839.85,-63"/>
<polygon fill="black" stroke="black" points="839.69,-66.5 849.69,-63 839.69,-59.5 839.69,-66.5"/>
</g>
<!-- 1990981584848 -->
<g id="node5" class="node">
<title>1990981584848</title>
<polygon fill="white" stroke="black" points="1016,-81 941.5,-81 941.5,-45 1016,-45 1016,-81"/>
<text text-anchor="middle" x="978.75" y="-57.98" font-family="Times New Roman,serif" font-size="12.00">Env Control</text>
</g>
<!-- 1990981594688 -->
<g id="node21" class="node">
<title>1990981594688</title>
<ellipse fill="white" stroke="black" cx="1079" cy="-63" rx="27" ry="27"/>
</g>
<!-- 1990981584848&#45;&gt;1990981594688 -->
<g id="edge10" class="edge">
<title>1990981584848&#45;&gt;1990981594688</title>
<path fill="none" stroke="black" d="M1016.33,-63C1024.09,-63 1032.29,-63 1040.09,-63"/>
<polygon fill="black" stroke="black" points="1040,-66.5 1050,-63 1040,-59.5 1040,-66.5"/>
</g>
<!-- 1990981591616 -->
<g id="node6" class="node">
<title>1990981591616</title>
<polygon fill="white" stroke="black" points="1220.25,-81 1142,-81 1142,-45 1220.25,-45 1220.25,-81"/>
<text text-anchor="middle" x="1181.12" y="-57.98" font-family="Times New Roman,serif" font-size="12.00">Hydro Install</text>
</g>
<!-- 1990980355568 -->
<g id="node22" class="node">
<title>1990980355568</title>
<ellipse fill="white" stroke="black" cx="1283.25" cy="-63" rx="27" ry="27"/>
</g>
<!-- 1990981591616&#45;&gt;1990980355568 -->
<g id="edge12" class="edge">
<title>1990981591616&#45;&gt;1990980355568</title>
<path fill="none" stroke="black" d="M1220.55,-63C1228.39,-63 1236.63,-63 1244.44,-63"/>
<polygon fill="black" stroke="black" points="1244.36,-66.5 1254.36,-63 1244.36,-59.5 1244.36,-66.5"/>
</g>
<!-- 1990980362288 -->
<g id="node7" class="node">
<title>1990980362288</title>
<polygon fill="white" stroke="black" points="1445.5,-81 1346.25,-81 1346.25,-45 1445.5,-45 1445.5,-81"/>
<text text-anchor="middle" x="1395.88" y="-57.98" font-family="Times New Roman,serif" font-size="12.00">Seed Propagation</text>
</g>
<!-- 1990980356768 -->
<g id="node23" class="node">
<title>1990980356768</title>
<ellipse fill="white" stroke="black" cx="1508.5" cy="-99" rx="27" ry="27"/>
</g>
<!-- 1990980362288&#45;&gt;1990980356768 -->
<g id="edge14" class="edge">
<title>1990980362288&#45;&gt;1990980356768</title>
<path fill="none" stroke="black" d="M1445.72,-78.89C1454.39,-81.72 1463.28,-84.61 1471.52,-87.29"/>
<polygon fill="black" stroke="black" points="1470.23,-90.55 1480.82,-90.32 1472.4,-83.9 1470.23,-90.55"/>
</g>
<!-- 1990980364208 -->
<g id="node24" class="node">
<title>1990980364208</title>
<ellipse fill="white" stroke="black" cx="1508.5" cy="-27" rx="27" ry="27"/>
</g>
<!-- 1990980362288&#45;&gt;1990980364208 -->
<g id="edge15" class="edge">
<title>1990980362288&#45;&gt;1990980364208</title>
<path fill="none" stroke="black" d="M1445.72,-47.11C1454.39,-44.28 1463.28,-41.39 1471.52,-38.71"/>
<polygon fill="black" stroke="black" points="1472.4,-42.1 1480.82,-35.68 1470.23,-35.45 1472.4,-42.1"/>
</g>
<!-- 1990980362144 -->
<g id="node8" class="node">
<title>1990980362144</title>
<polygon fill="white" stroke="black" points="1649,-117 1571.5,-117 1571.5,-81 1649,-81 1649,-117"/>
<text text-anchor="middle" x="1610.25" y="-93.97" font-family="Times New Roman,serif" font-size="12.00">Nutrient Mix</text>
</g>
<!-- 1990979571296 -->
<g id="node26" class="node">
<title>1990979571296</title>
<ellipse fill="white" stroke="black" cx="1712" cy="-99" rx="27" ry="27"/>
</g>
<!-- 1990980362144&#45;&gt;1990979571296 -->
<g id="edge18" class="edge">
<title>1990980362144&#45;&gt;1990979571296</title>
<path fill="none" stroke="black" d="M1649.25,-99C1657.07,-99 1665.31,-99 1673.13,-99"/>
<polygon fill="black" stroke="black" points="1673.05,-102.5 1683.05,-99 1673.05,-95.5 1673.05,-102.5"/>
</g>
<!-- 1990980365120 -->
<g id="node9" class="node">
<title>1990980365120</title>
<polygon fill="white" stroke="black" points="1648.62,-45 1571.88,-45 1571.88,-9 1648.62,-9 1648.62,-45"/>
<text text-anchor="middle" x="1610.25" y="-21.98" font-family="Times New Roman,serif" font-size="12.00">Pest Monitor</text>
</g>
<!-- 1990979573024 -->
<g id="node25" class="node">
<title>1990979573024</title>
<ellipse fill="white" stroke="black" cx="1712" cy="-27" rx="27" ry="27"/>
</g>
<!-- 1990980365120&#45;&gt;1990979573024 -->
<g id="edge19" class="edge">
<title>1990980365120&#45;&gt;1990979573024</title>
<path fill="none" stroke="black" d="M1648.96,-27C1656.97,-27 1665.42,-27 1673.42,-27"/>
<polygon fill="black" stroke="black" points="1673.2,-30.5 1683.2,-27 1673.2,-23.5 1673.2,-30.5"/>
</g>
<!-- 1990981964176 -->
<g id="node10" class="node">
<title>1990981964176</title>
<polygon fill="white" stroke="black" points="1838.25,-81 1775,-81 1775,-45 1838.25,-45 1838.25,-81"/>
<text text-anchor="middle" x="1806.62" y="-57.98" font-family="Times New Roman,serif" font-size="12.00">IoT Setup</text>
</g>
<!-- 1990981971424 -->
<g id="node27" class="node">
<title>1990981971424</title>
<ellipse fill="white" stroke="black" cx="1901.25" cy="-63" rx="27" ry="27"/>
</g>
<!-- 1990981964176&#45;&gt;1990981971424 -->
<g id="edge22" class="edge">
<title>1990981964176&#45;&gt;1990981971424</title>
<path fill="none" stroke="black" d="M1838.73,-63C1846.42,-63 1854.75,-63 1862.72,-63"/>
<polygon fill="black" stroke="black" points="1862.51,-66.5 1872.51,-63 1862.51,-59.5 1862.51,-66.5"/>
</g>
<!-- 1990978181584 -->
<g id="node11" class="node">
<title>1990978181584</title>
<polygon fill="white" stroke="black" points="2046.25,-81 1964.25,-81 1964.25,-45 2046.25,-45 2046.25,-81"/>
<text text-anchor="middle" x="2005.25" y="-57.98" font-family="Times New Roman,serif" font-size="12.00">Staff Training</text>
</g>
<!-- 1990978190320 -->
<g id="node28" class="node">
<title>1990978190320</title>
<ellipse fill="white" stroke="black" cx="2109.25" cy="-63" rx="27" ry="27"/>
</g>
<!-- 1990978181584&#45;&gt;1990978190320 -->
<g id="edge24" class="edge">
<title>1990978181584&#45;&gt;1990978190320</title>
<path fill="none" stroke="black" d="M2046.56,-63C2054.48,-63 2062.75,-63 2070.57,-63"/>
<polygon fill="black" stroke="black" points="2070.48,-66.5 2080.48,-63 2070.48,-59.5 2070.48,-66.5"/>
</g>
<!-- 1990978186960 -->
<g id="node12" class="node">
<title>1990978186960</title>
<polygon fill="white" stroke="black" points="2244.5,-81 2172.25,-81 2172.25,-45 2244.5,-45 2244.5,-81"/>
<text text-anchor="middle" x="2208.38" y="-57.98" font-family="Times New Roman,serif" font-size="12.00">Yield Audit</text>
</g>
<!-- 1990978186096 -->
<g id="node29" class="node">
<title>1990978186096</title>
<ellipse fill="white" stroke="black" cx="2307.5" cy="-63" rx="27" ry="27"/>
</g>
<!-- 1990978186960&#45;&gt;1990978186096 -->
<g id="edge26" class="edge">
<title>1990978186960&#45;&gt;1990978186096</title>
<path fill="none" stroke="black" d="M2244.99,-63C2252.68,-63 2260.84,-63 2268.62,-63"/>
<polygon fill="black" stroke="black" points="2268.5,-66.5 2278.5,-63 2268.5,-59.5 2268.5,-66.5"/>
</g>
<!-- 1990978180528 -->
<g id="node13" class="node">
<title>1990978180528</title>
<polygon fill="white" stroke="black" points="2447.25,-81 2370.5,-81 2370.5,-45 2447.25,-45 2447.25,-81"/>
<text text-anchor="middle" x="2408.88" y="-57.98" font-family="Times New Roman,serif" font-size="12.00">Harvest Plan</text>
</g>
<!-- 1990978189408 -->
<g id="node30" class="node">
<title>1990978189408</title>
<ellipse fill="white" stroke="black" cx="2510.25" cy="-63" rx="27" ry="27"/>
</g>
<!-- 1990978180528&#45;&gt;1990978189408 -->
<g id="edge28" class="edge">
<title>1990978180528&#45;&gt;1990978189408</title>
<path fill="none" stroke="black" d="M2447.73,-63C2455.52,-63 2463.73,-63 2471.52,-63"/>
<polygon fill="black" stroke="black" points="2471.4,-66.5 2481.4,-63 2471.4,-59.5 2471.4,-66.5"/>
</g>
<!-- 1990977214688 -->
<g id="node14" class="node">
<title>1990977214688</title>
<polygon fill="white" stroke="black" points="2659.75,-81 2573.25,-81 2573.25,-45 2659.75,-45 2659.75,-81"/>
<text text-anchor="middle" x="2616.5" y="-57.98" font-family="Times New Roman,serif" font-size="12.00">Waste Manage</text>
</g>
<!-- 1990977217184 -->
<g id="node31" class="node">
<title>1990977217184</title>
<ellipse fill="white" stroke="black" cx="2722.75" cy="-63" rx="27" ry="27"/>
</g>
<!-- 1990977214688&#45;&gt;1990977217184 -->
<g id="edge30" class="edge">
<title>1990977214688&#45;&gt;1990977217184</title>
<path fill="none" stroke="black" d="M2660.2,-63C2668.12,-63 2676.34,-63 2684.09,-63"/>
<polygon fill="black" stroke="black" points="2683.89,-66.5 2693.89,-63 2683.89,-59.5 2683.89,-66.5"/>
</g>
<!-- 1990977210176 -->
<g id="node15" class="node">
<title>1990977210176</title>
<polygon fill="white" stroke="black" points="2860.25,-81 2785.75,-81 2785.75,-45 2860.25,-45 2860.25,-81"/>
<text text-anchor="middle" x="2823" y="-57.98" font-family="Times New Roman,serif" font-size="12.00">Market Prep</text>
</g>
<!-- 1990978625008 -->
<g id="node32" class="node">
<title>1990978625008</title>
<ellipse fill="white" stroke="black" cx="2927.25" cy="-63" rx="27" ry="27"/>
<ellipse fill="none" stroke="black" cx="2927.25" cy="-63" rx="31" ry="31"/>
<text text-anchor="start" x="2910.75" y="-47.6" font-family="Times New Roman,serif" font-size="32.00">■</text>
</g>
<!-- 1990977210176&#45;&gt;1990978625008 -->
<g id="edge32" class="edge">
<title>1990977210176&#45;&gt;1990978625008</title>
<path fill="none" stroke="black" d="M2860.63,-63C2868.4,-63 2876.67,-63 2884.62,-63"/>
<polygon fill="black" stroke="black" points="2884.43,-66.5 2894.43,-63 2884.43,-59.5 2884.43,-66.5"/>
</g>
<!-- 1990978632592 -->
<g id="node16" class="node">
<title>1990978632592</title>
<ellipse fill="white" stroke="black" cx="27" cy="-63" rx="27" ry="27"/>
<text text-anchor="start" x="9.75" y="-45.7" font-family="Times New Roman,serif" font-size="34.00">●</text>
</g>
<!-- 1990978632592&#45;&gt;1990979782656 -->
<g id="edge1" class="edge">
<title>1990978632592&#45;&gt;1990979782656</title>
<path fill="none" stroke="black" d="M54.31,-63C61.63,-63 69.84,-63 78.05,-63"/>
<polygon fill="black" stroke="black" points="78.05,-66.5 88.05,-63 78.05,-59.5 78.05,-66.5"/>
</g>
<!-- 1990976163808&#45;&gt;1990976168128 -->
<g id="edge3" class="edge">
<title>1990976163808&#45;&gt;1990976168128</title>
<path fill="none" stroke="black" d="M258.48,-63C265.83,-63 274.1,-63 282.47,-63"/>
<polygon fill="black" stroke="black" points="282.34,-66.5 292.34,-63 282.34,-59.5 282.34,-66.5"/>
</g>
<!-- 1990979728304&#45;&gt;1990979720864 -->
<g id="edge5" class="edge">
<title>1990979728304&#45;&gt;1990979720864</title>
<path fill="none" stroke="black" d="M474.81,-63C482.19,-63 490.49,-63 498.86,-63"/>
<polygon fill="black" stroke="black" points="498.71,-66.5 508.71,-63 498.71,-59.5 498.71,-66.5"/>
</g>
<!-- 1990979718560&#45;&gt;1990979726000 -->
<g id="edge7" class="edge">
<title>1990979718560&#45;&gt;1990979726000</title>
<path fill="none" stroke="black" d="M687.24,-63C694.57,-63 702.84,-63 711.22,-63"/>
<polygon fill="black" stroke="black" points="711.12,-66.5 721.12,-63 711.12,-59.5 711.12,-66.5"/>
</g>
<!-- 1990980959456&#45;&gt;1990981584848 -->
<g id="edge9" class="edge">
<title>1990980959456&#45;&gt;1990981584848</title>
<path fill="none" stroke="black" d="M905.83,-63C913.17,-63 921.38,-63 929.56,-63"/>
<polygon fill="black" stroke="black" points="929.49,-66.5 939.49,-63 929.49,-59.5 929.49,-66.5"/>
</g>
<!-- 1990981594688&#45;&gt;1990981591616 -->
<g id="edge11" class="edge">
<title>1990981594688&#45;&gt;1990981591616</title>
<path fill="none" stroke="black" d="M1106.31,-63C1113.63,-63 1121.84,-63 1130.05,-63"/>
<polygon fill="black" stroke="black" points="1130.05,-66.5 1140.05,-63 1130.05,-59.5 1130.05,-66.5"/>
</g>
<!-- 1990980355568&#45;&gt;1990980362288 -->
<g id="edge13" class="edge">
<title>1990980355568&#45;&gt;1990980362288</title>
<path fill="none" stroke="black" d="M1310.75,-63C1318.04,-63 1326.27,-63 1334.64,-63"/>
<polygon fill="black" stroke="black" points="1334.57,-66.5 1344.57,-63 1334.57,-59.5 1334.57,-66.5"/>
</g>
<!-- 1990980356768&#45;&gt;1990980362144 -->
<g id="edge17" class="edge">
<title>1990980356768&#45;&gt;1990980362144</title>
<path fill="none" stroke="black" d="M1535.97,-99C1543.27,-99 1551.43,-99 1559.58,-99"/>
<polygon fill="black" stroke="black" points="1559.5,-102.5 1569.5,-99 1559.5,-95.5 1559.5,-102.5"/>
</g>
<!-- 1990980364208&#45;&gt;1990980365120 -->
<g id="edge16" class="edge">
<title>1990980364208&#45;&gt;1990980365120</title>
<path fill="none" stroke="black" d="M1535.97,-27C1543.43,-27 1551.79,-27 1560.13,-27"/>
<polygon fill="black" stroke="black" points="1559.88,-30.5 1569.88,-27 1559.88,-23.5 1559.88,-30.5"/>
</g>
<!-- 1990979573024&#45;&gt;1990981964176 -->
<g id="edge20" class="edge">
<title>1990979573024&#45;&gt;1990981964176</title>
<path fill="none" stroke="black" d="M1737.34,-36.46C1745.58,-39.66 1755.03,-43.34 1764.23,-46.91"/>
<polygon fill="black" stroke="black" points="1762.81,-50.11 1773.4,-50.48 1765.35,-43.59 1762.81,-50.11"/>
</g>
<!-- 1990979571296&#45;&gt;1990981964176 -->
<g id="edge21" class="edge">
<title>1990979571296&#45;&gt;1990981964176</title>
<path fill="none" stroke="black" d="M1737.34,-89.54C1745.58,-86.34 1755.03,-82.66 1764.23,-79.09"/>
<polygon fill="black" stroke="black" points="1765.35,-82.41 1773.4,-75.52 1762.81,-75.89 1765.35,-82.41"/>
</g>
<!-- 1990981971424&#45;&gt;1990978181584 -->
<g id="edge23" class="edge">
<title>1990981971424&#45;&gt;1990978181584</title>
<path fill="none" stroke="black" d="M1928.52,-63C1935.9,-63 1944.2,-63 1952.53,-63"/>
<polygon fill="black" stroke="black" points="1952.3,-66.5 1962.3,-63 1952.3,-59.5 1952.3,-66.5"/>
</g>
<!-- 1990978190320&#45;&gt;1990978186960 -->
<g id="edge25" class="edge">
<title>1990978190320&#45;&gt;1990978186960</title>
<path fill="none" stroke="black" d="M2136.53,-63C2143.94,-63 2152.23,-63 2160.46,-63"/>
<polygon fill="black" stroke="black" points="2160.44,-66.5 2170.44,-63 2160.44,-59.5 2160.44,-66.5"/>
</g>
<!-- 1990978186096&#45;&gt;1990978180528 -->
<g id="edge27" class="edge">
<title>1990978186096&#45;&gt;1990978180528</title>
<path fill="none" stroke="black" d="M2334.87,-63C2342.22,-63 2350.44,-63 2358.65,-63"/>
<polygon fill="black" stroke="black" points="2358.64,-66.5 2368.64,-63 2358.64,-59.5 2358.64,-66.5"/>
</g>
<!-- 1990978189408&#45;&gt;1990977214688 -->
<g id="edge29" class="edge">
<title>1990978189408&#45;&gt;1990977214688</title>
<path fill="none" stroke="black" d="M2537.56,-63C2544.94,-63 2553.24,-63 2561.61,-63"/>
<polygon fill="black" stroke="black" points="2561.46,-66.5 2571.46,-63 2561.46,-59.5 2561.46,-66.5"/>
</g>
<!-- 1990977217184&#45;&gt;1990977210176 -->
<g id="edge31" class="edge">
<title>1990977217184&#45;&gt;1990977210176</title>
<path fill="none" stroke="black" d="M2750.08,-63C2757.42,-63 2765.63,-63 2773.81,-63"/>
<polygon fill="black" stroke="black" points="2773.74,-66.5 2783.74,-63 2773.74,-59.5 2773.74,-66.5"/>
</g>
</g>
</svg>
