<?xml version="1.0" encoding="UTF-8" standalone="no"?>
<!DOCTYPE svg PUBLIC "-//W3C//DTD SVG 1.1//EN"
 "http://www.w3.org/Graphics/SVG/1.1/DTD/svg11.dtd">
<!-- Generated by graphviz version 11.0.0 (20240428.1522)
 -->
<!-- Title: imdf_net_1754051763.9317942 Pages: 1 -->
<svg width="2150pt" height="278pt"
 viewBox="0.00 0.00 2149.75 278.00" xmlns="http://www.w3.org/2000/svg" xmlns:xlink="http://www.w3.org/1999/xlink">
<g id="graph0" class="graph" transform="scale(1 1) rotate(0) translate(4 274)">
<title>imdf_net_1754051763.9317942</title>
<polygon fill="white" stroke="none" points="-4,4 -4,-274 2145.75,-274 2145.75,4 -4,4"/>
<!-- 1990977920304 -->
<g id="node1" class="node">
<title>1990977920304</title>
<polygon fill="white" stroke="black" points="161.5,-153 90,-153 90,-117 161.5,-117 161.5,-153"/>
<text text-anchor="middle" x="125.75" y="-129.97" font-family="Times New Roman,serif" font-size="12.00">Client Brief</text>
</g>
<!-- 1990977915984 -->
<g id="node18" class="node">
<title>1990977915984</title>
<ellipse fill="white" stroke="black" cx="224.5" cy="-135" rx="27" ry="27"/>
</g>
<!-- 1990977920304&#45;&gt;1990977915984 -->
<g id="edge2" class="edge">
<title>1990977920304&#45;&gt;1990977915984</title>
<path fill="none" stroke="black" d="M161.95,-135C169.7,-135 177.94,-135 185.79,-135"/>
<polygon fill="black" stroke="black" points="185.76,-138.5 195.76,-135 185.76,-131.5 185.76,-138.5"/>
</g>
<!-- 1990977925728 -->
<g id="node2" class="node">
<title>1990977925728</title>
<polygon fill="white" stroke="black" points="368,-153 287.5,-153 287.5,-117 368,-117 368,-153"/>
<text text-anchor="middle" x="327.75" y="-129.97" font-family="Times New Roman,serif" font-size="12.00">Part Sourcing</text>
</g>
<!-- 1990977920352 -->
<g id="node19" class="node">
<title>1990977920352</title>
<ellipse fill="white" stroke="black" cx="431" cy="-135" rx="27" ry="27"/>
</g>
<!-- 1990977925728&#45;&gt;1990977920352 -->
<g id="edge4" class="edge">
<title>1990977925728&#45;&gt;1990977920352</title>
<path fill="none" stroke="black" d="M368.48,-135C376.35,-135 384.59,-135 392.39,-135"/>
<polygon fill="black" stroke="black" points="392.27,-138.5 402.27,-135 392.27,-131.5 392.27,-138.5"/>
</g>
<!-- 1990977928752 -->
<g id="node3" class="node">
<title>1990977928752</title>
<polygon fill="white" stroke="black" points="569.25,-153 494,-153 494,-117 569.25,-117 569.25,-153"/>
<text text-anchor="middle" x="531.62" y="-129.97" font-family="Times New Roman,serif" font-size="12.00">Frame Build</text>
</g>
<!-- 1990977919776 -->
<g id="node20" class="node">
<title>1990977919776</title>
<ellipse fill="white" stroke="black" cx="632.25" cy="-171" rx="27" ry="27"/>
</g>
<!-- 1990977928752&#45;&gt;1990977919776 -->
<g id="edge6" class="edge">
<title>1990977928752&#45;&gt;1990977919776</title>
<path fill="none" stroke="black" d="M569.63,-148.51C578.14,-151.61 587.18,-154.91 595.63,-158"/>
<polygon fill="black" stroke="black" points="594.3,-161.24 604.89,-161.38 596.7,-154.66 594.3,-161.24"/>
</g>
<!-- 1990977922752 -->
<g id="node21" class="node">
<title>1990977922752</title>
<ellipse fill="white" stroke="black" cx="632.25" cy="-99" rx="27" ry="27"/>
</g>
<!-- 1990977928752&#45;&gt;1990977922752 -->
<g id="edge7" class="edge">
<title>1990977928752&#45;&gt;1990977922752</title>
<path fill="none" stroke="black" d="M569.63,-121.49C578.14,-118.39 587.18,-115.09 595.63,-112"/>
<polygon fill="black" stroke="black" points="596.7,-115.34 604.89,-108.62 594.3,-108.76 596.7,-115.34"/>
</g>
<!-- 1990977914928 -->
<g id="node4" class="node">
<title>1990977914928</title>
<polygon fill="white" stroke="black" points="777.62,-189 699.38,-189 699.38,-153 777.62,-153 777.62,-189"/>
<text text-anchor="middle" x="738.5" y="-165.97" font-family="Times New Roman,serif" font-size="12.00">Sensor Setup</text>
</g>
<!-- 1990971851264 -->
<g id="node22" class="node">
<title>1990971851264</title>
<ellipse fill="white" stroke="black" cx="844.75" cy="-171" rx="27" ry="27"/>
</g>
<!-- 1990977914928&#45;&gt;1990971851264 -->
<g id="edge10" class="edge">
<title>1990977914928&#45;&gt;1990971851264</title>
<path fill="none" stroke="black" d="M778.02,-171C787.14,-171 796.85,-171 805.93,-171"/>
<polygon fill="black" stroke="black" points="805.89,-174.5 815.89,-171 805.89,-167.5 805.89,-174.5"/>
</g>
<!-- 1990979540928 -->
<g id="node5" class="node">
<title>1990979540928</title>
<polygon fill="white" stroke="black" points="781.75,-117 695.25,-117 695.25,-81 781.75,-81 781.75,-117"/>
<text text-anchor="middle" x="738.5" y="-93.97" font-family="Times New Roman,serif" font-size="12.00">Software Load</text>
</g>
<!-- 1990971852320 -->
<g id="node23" class="node">
<title>1990971852320</title>
<ellipse fill="white" stroke="black" cx="844.75" cy="-99" rx="27" ry="27"/>
</g>
<!-- 1990979540928&#45;&gt;1990971852320 -->
<g id="edge11" class="edge">
<title>1990979540928&#45;&gt;1990971852320</title>
<path fill="none" stroke="black" d="M782.2,-99C790.12,-99 798.34,-99 806.09,-99"/>
<polygon fill="black" stroke="black" points="805.89,-102.5 815.89,-99 805.89,-95.5 805.89,-102.5"/>
</g>
<!-- 1990977595264 -->
<g id="node6" class="node">
<title>1990977595264</title>
<polygon fill="white" stroke="black" points="999.5,-153 907.75,-153 907.75,-117 999.5,-117 999.5,-153"/>
<text text-anchor="middle" x="953.62" y="-129.97" font-family="Times New Roman,serif" font-size="12.00">Calibration Test</text>
</g>
<!-- 1990977592768 -->
<g id="node24" class="node">
<title>1990977592768</title>
<ellipse fill="white" stroke="black" cx="1062.5" cy="-135" rx="27" ry="27"/>
</g>
<!-- 1990977595264&#45;&gt;1990977592768 -->
<g id="edge14" class="edge">
<title>1990977595264&#45;&gt;1990977592768</title>
<path fill="none" stroke="black" d="M999.95,-135C1007.96,-135 1016.22,-135 1023.98,-135"/>
<polygon fill="black" stroke="black" points="1023.78,-138.5 1033.78,-135 1023.78,-131.5 1023.78,-138.5"/>
</g>
<!-- 1990977596512 -->
<g id="node7" class="node">
<title>1990977596512</title>
<polygon fill="white" stroke="black" points="1206.75,-153 1125.5,-153 1125.5,-117 1206.75,-117 1206.75,-153"/>
<text text-anchor="middle" x="1166.12" y="-129.97" font-family="Times New Roman,serif" font-size="12.00">Quality Audit</text>
</g>
<!-- 1990977593632 -->
<g id="node25" class="node">
<title>1990977593632</title>
<ellipse fill="white" stroke="black" cx="1269.75" cy="-207" rx="27" ry="27"/>
</g>
<!-- 1990977596512&#45;&gt;1990977593632 -->
<g id="edge16" class="edge">
<title>1990977596512&#45;&gt;1990977593632</title>
<path fill="none" stroke="black" d="M1193.03,-153.35C1206.73,-163.06 1223.64,-175.04 1238,-185.22"/>
<polygon fill="black" stroke="black" points="1235.6,-187.8 1245.78,-190.72 1239.64,-182.09 1235.6,-187.8"/>
</g>
<!-- 1990978342064 -->
<g id="node26" class="node">
<title>1990978342064</title>
<ellipse fill="white" stroke="black" cx="1269.75" cy="-135" rx="27" ry="27"/>
</g>
<!-- 1990977596512&#45;&gt;1990978342064 -->
<g id="edge18" class="edge">
<title>1990977596512&#45;&gt;1990978342064</title>
<path fill="none" stroke="black" d="M1207,-135C1214.9,-135 1223.17,-135 1231,-135"/>
<polygon fill="black" stroke="black" points="1230.92,-138.5 1240.92,-135 1230.92,-131.5 1230.92,-138.5"/>
</g>
<!-- 1990978915312 -->
<g id="node27" class="node">
<title>1990978915312</title>
<ellipse fill="white" stroke="black" cx="1269.75" cy="-63" rx="27" ry="27"/>
</g>
<!-- 1990977596512&#45;&gt;1990978915312 -->
<g id="edge17" class="edge">
<title>1990977596512&#45;&gt;1990978915312</title>
<path fill="none" stroke="black" d="M1193.03,-116.65C1206.73,-106.94 1223.64,-94.96 1238,-84.78"/>
<polygon fill="black" stroke="black" points="1239.64,-87.91 1245.78,-79.28 1235.6,-82.2 1239.64,-87.91"/>
</g>
<!-- 1990978912384 -->
<g id="node8" class="node">
<title>1990978912384</title>
<polygon fill="white" stroke="black" points="1429,-153 1344.75,-153 1344.75,-117 1429,-117 1429,-153"/>
<text text-anchor="middle" x="1386.88" y="-129.97" font-family="Times New Roman,serif" font-size="12.00">Battery Check</text>
</g>
<!-- 1990971858032 -->
<g id="node30" class="node">
<title>1990971858032</title>
<ellipse fill="white" stroke="black" cx="1504" cy="-135" rx="27" ry="27"/>
</g>
<!-- 1990978912384&#45;&gt;1990971858032 -->
<g id="edge23" class="edge">
<title>1990978912384&#45;&gt;1990971858032</title>
<path fill="none" stroke="black" d="M1429.44,-135C1441.1,-135 1453.72,-135 1465.15,-135"/>
<polygon fill="black" stroke="black" points="1465.04,-138.5 1475.04,-135 1465.04,-131.5 1465.04,-138.5"/>
</g>
<!-- 1990978924672 -->
<g id="node9" class="node">
<title>1990978924672</title>
<polygon fill="white" stroke="black" points="1426,-81 1347.75,-81 1347.75,-45 1426,-45 1426,-81"/>
<text text-anchor="middle" x="1386.88" y="-57.98" font-family="Times New Roman,serif" font-size="12.00">Comm Setup</text>
</g>
<!-- 1990971856304 -->
<g id="node28" class="node">
<title>1990971856304</title>
<ellipse fill="white" stroke="black" cx="1504" cy="-63" rx="27" ry="27"/>
</g>
<!-- 1990978924672&#45;&gt;1990971856304 -->
<g id="edge24" class="edge">
<title>1990978924672&#45;&gt;1990971856304</title>
<path fill="none" stroke="black" d="M1426.21,-63C1438.8,-63 1452.78,-63 1465.32,-63"/>
<polygon fill="black" stroke="black" points="1465.3,-66.5 1475.3,-63 1465.3,-59.5 1465.3,-66.5"/>
</g>
<!-- 1990978342112 -->
<g id="node10" class="node">
<title>1990978342112</title>
<polygon fill="white" stroke="black" points="1441,-225 1332.75,-225 1332.75,-189 1441,-189 1441,-225"/>
<text text-anchor="middle" x="1386.88" y="-201.97" font-family="Times New Roman,serif" font-size="12.00">Aerodynamic Tune</text>
</g>
<!-- 1990971865280 -->
<g id="node29" class="node">
<title>1990971865280</title>
<ellipse fill="white" stroke="black" cx="1504" cy="-207" rx="27" ry="27"/>
</g>
<!-- 1990978342112&#45;&gt;1990971865280 -->
<g id="edge22" class="edge">
<title>1990978342112&#45;&gt;1990971865280</title>
<path fill="none" stroke="black" d="M1441.39,-207C1449.41,-207 1457.53,-207 1465.13,-207"/>
<polygon fill="black" stroke="black" points="1465.04,-210.5 1475.04,-207 1465.04,-203.5 1465.04,-210.5"/>
</g>
<!-- 1990978925920 -->
<g id="node11" class="node">
<title>1990978925920</title>
<polygon fill="white" stroke="black" points="1636.25,-153 1567,-153 1567,-117 1636.25,-117 1636.25,-153"/>
<text text-anchor="middle" x="1601.62" y="-129.97" font-family="Times New Roman,serif" font-size="12.00">Flight Trial</text>
</g>
<!-- 1990971852416 -->
<g id="node31" class="node">
<title>1990971852416</title>
<ellipse fill="white" stroke="black" cx="1699.25" cy="-243" rx="27" ry="27"/>
</g>
<!-- 1990978925920&#45;&gt;1990971852416 -->
<g id="edge29" class="edge">
<title>1990978925920&#45;&gt;1990971852416</title>
<path fill="none" stroke="black" d="M1618.85,-153.32C1633.73,-170.13 1655.99,-195.27 1673.16,-214.67"/>
<polygon fill="black" stroke="black" points="1670.4,-216.82 1679.65,-221.99 1675.64,-212.18 1670.4,-216.82"/>
</g>
<!-- 1990971857168 -->
<g id="node32" class="node">
<title>1990971857168</title>
<ellipse fill="white" stroke="black" cx="1699.25" cy="-171" rx="27" ry="27"/>
</g>
<!-- 1990978925920&#45;&gt;1990971857168 -->
<g id="edge30" class="edge">
<title>1990978925920&#45;&gt;1990971857168</title>
<path fill="none" stroke="black" d="M1636.61,-147.79C1645.04,-150.97 1654.11,-154.38 1662.62,-157.59"/>
<polygon fill="black" stroke="black" points="1661.38,-160.86 1671.98,-161.11 1663.85,-154.31 1661.38,-160.86"/>
</g>
<!-- 1990978924960 -->
<g id="node33" class="node">
<title>1990978924960</title>
<ellipse fill="white" stroke="black" cx="1699.25" cy="-99" rx="27" ry="27"/>
</g>
<!-- 1990978925920&#45;&gt;1990978924960 -->
<g id="edge31" class="edge">
<title>1990978925920&#45;&gt;1990978924960</title>
<path fill="none" stroke="black" d="M1636.61,-122.21C1645.04,-119.03 1654.11,-115.62 1662.62,-112.41"/>
<polygon fill="black" stroke="black" points="1663.85,-115.69 1671.98,-108.89 1661.38,-109.14 1663.85,-115.69"/>
</g>
<!-- 1990971865184 -->
<g id="node34" class="node">
<title>1990971865184</title>
<ellipse fill="white" stroke="black" cx="1699.25" cy="-27" rx="27" ry="27"/>
</g>
<!-- 1990978925920&#45;&gt;1990971865184 -->
<g id="edge28" class="edge">
<title>1990978925920&#45;&gt;1990971865184</title>
<path fill="none" stroke="black" d="M1618.85,-116.68C1633.73,-99.87 1655.99,-74.73 1673.16,-55.33"/>
<polygon fill="black" stroke="black" points="1675.64,-57.82 1679.65,-48.01 1670.4,-53.18 1675.64,-57.82"/>
</g>
<!-- 1990978912912 -->
<g id="node12" class="node">
<title>1990978912912</title>
<polygon fill="white" stroke="black" points="1846.12,-117 1779.88,-117 1779.88,-81 1846.12,-81 1846.12,-117"/>
<text text-anchor="middle" x="1813" y="-93.97" font-family="Times New Roman,serif" font-size="12.00">Pilot Train</text>
</g>
<!-- 1990978923376 -->
<g id="node38" class="node">
<title>1990978923376</title>
<ellipse fill="white" stroke="black" cx="1926.75" cy="-99" rx="27" ry="27"/>
</g>
<!-- 1990978912912&#45;&gt;1990978923376 -->
<g id="edge38" class="edge">
<title>1990978912912&#45;&gt;1990978923376</title>
<path fill="none" stroke="black" d="M1846.62,-99C1859.58,-99 1874.56,-99 1887.98,-99"/>
<polygon fill="black" stroke="black" points="1887.77,-102.5 1897.77,-99 1887.77,-95.5 1887.77,-102.5"/>
</g>
<!-- 1990971852704 -->
<g id="node13" class="node">
<title>1990971852704</title>
<polygon fill="white" stroke="black" points="1850.62,-189 1775.38,-189 1775.38,-153 1850.62,-153 1850.62,-189"/>
<text text-anchor="middle" x="1813" y="-165.97" font-family="Times New Roman,serif" font-size="12.00">Deploy Plan</text>
</g>
<!-- 1990971853712 -->
<g id="node35" class="node">
<title>1990971853712</title>
<ellipse fill="white" stroke="black" cx="1926.75" cy="-171" rx="27" ry="27"/>
</g>
<!-- 1990971852704&#45;&gt;1990971853712 -->
<g id="edge36" class="edge">
<title>1990971852704&#45;&gt;1990971853712</title>
<path fill="none" stroke="black" d="M1850.9,-171C1862.82,-171 1876.05,-171 1888.03,-171"/>
<polygon fill="black" stroke="black" points="1887.98,-174.5 1897.98,-171 1887.98,-167.5 1887.98,-174.5"/>
</g>
<!-- 1990971854672 -->
<g id="node14" class="node">
<title>1990971854672</title>
<polygon fill="white" stroke="black" points="1862.62,-261 1763.38,-261 1763.38,-225 1862.62,-225 1862.62,-261"/>
<text text-anchor="middle" x="1813" y="-237.97" font-family="Times New Roman,serif" font-size="12.00">Maintenance Log</text>
</g>
<!-- 1990971862352 -->
<g id="node37" class="node">
<title>1990971862352</title>
<ellipse fill="white" stroke="black" cx="1926.75" cy="-243" rx="27" ry="27"/>
</g>
<!-- 1990971854672&#45;&gt;1990971862352 -->
<g id="edge37" class="edge">
<title>1990971854672&#45;&gt;1990971862352</title>
<path fill="none" stroke="black" d="M1863.02,-243C1871.45,-243 1880.09,-243 1888.16,-243"/>
<polygon fill="black" stroke="black" points="1887.97,-246.5 1897.97,-243 1887.97,-239.5 1887.97,-246.5"/>
</g>
<!-- 1990971858512 -->
<g id="node15" class="node">
<title>1990971858512</title>
<polygon fill="white" stroke="black" points="1863.75,-45 1762.25,-45 1762.25,-9 1863.75,-9 1863.75,-45"/>
<text text-anchor="middle" x="1813" y="-21.98" font-family="Times New Roman,serif" font-size="12.00">Feedback Review</text>
</g>
<!-- 1990971862544 -->
<g id="node36" class="node">
<title>1990971862544</title>
<ellipse fill="white" stroke="black" cx="1926.75" cy="-27" rx="27" ry="27"/>
</g>
<!-- 1990971858512&#45;&gt;1990971862544 -->
<g id="edge39" class="edge">
<title>1990971858512&#45;&gt;1990971862544</title>
<path fill="none" stroke="black" d="M1863.99,-27C1872.1,-27 1880.37,-27 1888.11,-27"/>
<polygon fill="black" stroke="black" points="1887.86,-30.5 1897.86,-27 1887.86,-23.5 1887.86,-30.5"/>
</g>
<!-- 1990971754880 -->
<g id="node16" class="node">
<title>1990971754880</title>
<polygon fill="black" stroke="black" points="2043.75,-153 1989.75,-153 1989.75,-117 2043.75,-117 2043.75,-153"/>
</g>
<!-- 1990971633312 -->
<g id="node39" class="node">
<title>1990971633312</title>
<ellipse fill="white" stroke="black" cx="2110.75" cy="-135" rx="27" ry="27"/>
<ellipse fill="none" stroke="black" cx="2110.75" cy="-135" rx="31" ry="31"/>
<text text-anchor="start" x="2094.25" y="-119.6" font-family="Times New Roman,serif" font-size="32.00">■</text>
</g>
<!-- 1990971754880&#45;&gt;1990971633312 -->
<g id="edge44" class="edge">
<title>1990971754880&#45;&gt;1990971633312</title>
<path fill="none" stroke="black" d="M2043.87,-135C2051.38,-135 2059.76,-135 2067.97,-135"/>
<polygon fill="black" stroke="black" points="2067.83,-138.5 2077.83,-135 2067.83,-131.5 2067.83,-138.5"/>
</g>
<!-- 1990971632064 -->
<g id="node17" class="node">
<title>1990971632064</title>
<ellipse fill="white" stroke="black" cx="27" cy="-135" rx="27" ry="27"/>
<text text-anchor="start" x="9.75" y="-117.7" font-family="Times New Roman,serif" font-size="34.00">●</text>
</g>
<!-- 1990971632064&#45;&gt;1990977920304 -->
<g id="edge1" class="edge">
<title>1990971632064&#45;&gt;1990977920304</title>
<path fill="none" stroke="black" d="M54.44,-135C61.81,-135 70.06,-135 78.23,-135"/>
<polygon fill="black" stroke="black" points="78.12,-138.5 88.12,-135 78.12,-131.5 78.12,-138.5"/>
</g>
<!-- 1990977915984&#45;&gt;1990977925728 -->
<g id="edge3" class="edge">
<title>1990977915984&#45;&gt;1990977925728</title>
<path fill="none" stroke="black" d="M251.84,-135C259.25,-135 267.57,-135 275.9,-135"/>
<polygon fill="black" stroke="black" points="275.67,-138.5 285.67,-135 275.67,-131.5 275.67,-138.5"/>
</g>
<!-- 1990977920352&#45;&gt;1990977928752 -->
<g id="edge5" class="edge">
<title>1990977920352&#45;&gt;1990977928752</title>
<path fill="none" stroke="black" d="M458.43,-135C465.8,-135 474.04,-135 482.25,-135"/>
<polygon fill="black" stroke="black" points="482.23,-138.5 492.23,-135 482.23,-131.5 482.23,-138.5"/>
</g>
<!-- 1990977919776&#45;&gt;1990977914928 -->
<g id="edge9" class="edge">
<title>1990977919776&#45;&gt;1990977914928</title>
<path fill="none" stroke="black" d="M659.56,-171C668.14,-171 677.97,-171 687.7,-171"/>
<polygon fill="black" stroke="black" points="687.47,-174.5 697.47,-171 687.47,-167.5 687.47,-174.5"/>
</g>
<!-- 1990977922752&#45;&gt;1990979540928 -->
<g id="edge8" class="edge">
<title>1990977922752&#45;&gt;1990979540928</title>
<path fill="none" stroke="black" d="M659.56,-99C666.94,-99 675.24,-99 683.61,-99"/>
<polygon fill="black" stroke="black" points="683.46,-102.5 693.46,-99 683.46,-95.5 683.46,-102.5"/>
</g>
<!-- 1990971851264&#45;&gt;1990977595264 -->
<g id="edge12" class="edge">
<title>1990971851264&#45;&gt;1990977595264</title>
<path fill="none" stroke="black" d="M870.81,-162.56C878.7,-159.9 887.76,-156.85 896.9,-153.77"/>
<polygon fill="black" stroke="black" points="897.82,-157.15 906.18,-150.64 895.59,-150.52 897.82,-157.15"/>
</g>
<!-- 1990971852320&#45;&gt;1990977595264 -->
<g id="edge13" class="edge">
<title>1990971852320&#45;&gt;1990977595264</title>
<path fill="none" stroke="black" d="M870.81,-107.44C878.7,-110.1 887.76,-113.15 896.9,-116.23"/>
<polygon fill="black" stroke="black" points="895.59,-119.48 906.18,-119.36 897.82,-112.85 895.59,-119.48"/>
</g>
<!-- 1990977592768&#45;&gt;1990977596512 -->
<g id="edge15" class="edge">
<title>1990977592768&#45;&gt;1990977596512</title>
<path fill="none" stroke="black" d="M1089.94,-135C1097.21,-135 1105.36,-135 1113.53,-135"/>
<polygon fill="black" stroke="black" points="1113.51,-138.5 1123.51,-135 1113.51,-131.5 1113.51,-138.5"/>
</g>
<!-- 1990977593632&#45;&gt;1990978342112 -->
<g id="edge21" class="edge">
<title>1990977593632&#45;&gt;1990978342112</title>
<path fill="none" stroke="black" d="M1297.16,-207C1304.37,-207 1312.52,-207 1320.87,-207"/>
<polygon fill="black" stroke="black" points="1320.82,-210.5 1330.82,-207 1320.82,-203.5 1320.82,-210.5"/>
</g>
<!-- 1990978342064&#45;&gt;1990978912384 -->
<g id="edge20" class="edge">
<title>1990978342064&#45;&gt;1990978912384</title>
<path fill="none" stroke="black" d="M1297.16,-135C1307.94,-135 1320.8,-135 1333.33,-135"/>
<polygon fill="black" stroke="black" points="1333.18,-138.5 1343.18,-135 1333.18,-131.5 1333.18,-138.5"/>
</g>
<!-- 1990978915312&#45;&gt;1990978924672 -->
<g id="edge19" class="edge">
<title>1990978915312&#45;&gt;1990978924672</title>
<path fill="none" stroke="black" d="M1297.16,-63C1308.66,-63 1322.54,-63 1335.86,-63"/>
<polygon fill="black" stroke="black" points="1335.85,-66.5 1345.85,-63 1335.85,-59.5 1335.85,-66.5"/>
</g>
<!-- 1990971856304&#45;&gt;1990978925920 -->
<g id="edge26" class="edge">
<title>1990971856304&#45;&gt;1990978925920</title>
<path fill="none" stroke="black" d="M1526.22,-78.98C1538.2,-88 1553.45,-99.48 1567.02,-109.7"/>
<polygon fill="black" stroke="black" points="1564.78,-112.39 1574.88,-115.61 1568.99,-106.8 1564.78,-112.39"/>
</g>
<!-- 1990971865280&#45;&gt;1990978925920 -->
<g id="edge25" class="edge">
<title>1990971865280&#45;&gt;1990978925920</title>
<path fill="none" stroke="black" d="M1526.22,-191.02C1538.2,-182 1553.45,-170.52 1567.02,-160.3"/>
<polygon fill="black" stroke="black" points="1568.99,-163.2 1574.88,-154.39 1564.78,-157.61 1568.99,-163.2"/>
</g>
<!-- 1990971858032&#45;&gt;1990978925920 -->
<g id="edge27" class="edge">
<title>1990971858032&#45;&gt;1990978925920</title>
<path fill="none" stroke="black" d="M1531.38,-135C1538.82,-135 1547.14,-135 1555.35,-135"/>
<polygon fill="black" stroke="black" points="1555.28,-138.5 1565.28,-135 1555.28,-131.5 1555.28,-138.5"/>
</g>
<!-- 1990971852416&#45;&gt;1990971854672 -->
<g id="edge34" class="edge">
<title>1990971852416&#45;&gt;1990971854672</title>
<path fill="none" stroke="black" d="M1726.73,-243C1734.27,-243 1742.81,-243 1751.5,-243"/>
<polygon fill="black" stroke="black" points="1751.42,-246.5 1761.42,-243 1751.42,-239.5 1751.42,-246.5"/>
</g>
<!-- 1990971857168&#45;&gt;1990971852704 -->
<g id="edge32" class="edge">
<title>1990971857168&#45;&gt;1990971852704</title>
<path fill="none" stroke="black" d="M1726.73,-171C1737.8,-171 1751.02,-171 1763.71,-171"/>
<polygon fill="black" stroke="black" points="1763.62,-174.5 1773.62,-171 1763.62,-167.5 1763.62,-174.5"/>
</g>
<!-- 1990978924960&#45;&gt;1990978912912 -->
<g id="edge35" class="edge">
<title>1990978924960&#45;&gt;1990978912912</title>
<path fill="none" stroke="black" d="M1726.73,-99C1739.14,-99 1754.24,-99 1768.28,-99"/>
<polygon fill="black" stroke="black" points="1768.21,-102.5 1778.21,-99 1768.21,-95.5 1768.21,-102.5"/>
</g>
<!-- 1990971865184&#45;&gt;1990971858512 -->
<g id="edge33" class="edge">
<title>1990971865184&#45;&gt;1990971858512</title>
<path fill="none" stroke="black" d="M1726.73,-27C1734.01,-27 1742.22,-27 1750.59,-27"/>
<polygon fill="black" stroke="black" points="1750.53,-30.5 1760.53,-27 1750.53,-23.5 1750.53,-30.5"/>
</g>
<!-- 1990971853712&#45;&gt;1990971754880 -->
<g id="edge42" class="edge">
<title>1990971853712&#45;&gt;1990971754880</title>
<path fill="none" stroke="black" d="M1952.26,-160.97C1960.51,-157.6 1969.89,-153.76 1978.87,-150.09"/>
<polygon fill="black" stroke="black" points="1980.19,-153.33 1988.12,-146.3 1977.54,-146.85 1980.19,-153.33"/>
</g>
<!-- 1990971862544&#45;&gt;1990971754880 -->
<g id="edge41" class="edge">
<title>1990971862544&#45;&gt;1990971754880</title>
<path fill="none" stroke="black" d="M1944.51,-47.57C1958.42,-64.64 1978.31,-89.05 1993.54,-107.74"/>
<polygon fill="black" stroke="black" points="1990.83,-109.95 1999.86,-115.49 1996.25,-105.53 1990.83,-109.95"/>
</g>
<!-- 1990971862352&#45;&gt;1990971754880 -->
<g id="edge40" class="edge">
<title>1990971862352&#45;&gt;1990971754880</title>
<path fill="none" stroke="black" d="M1944.51,-222.43C1958.42,-205.36 1978.31,-180.95 1993.54,-162.26"/>
<polygon fill="black" stroke="black" points="1996.25,-164.47 1999.86,-154.51 1990.83,-160.05 1996.25,-164.47"/>
</g>
<!-- 1990978923376&#45;&gt;1990971754880 -->
<g id="edge43" class="edge">
<title>1990978923376&#45;&gt;1990971754880</title>
<path fill="none" stroke="black" d="M1952.26,-109.03C1960.51,-112.4 1969.89,-116.24 1978.87,-119.91"/>
<polygon fill="black" stroke="black" points="1977.54,-123.15 1988.12,-123.7 1980.19,-116.67 1977.54,-123.15"/>
</g>
</g>
</svg>
