<?xml version="1.0" encoding="UTF-8" standalone="no"?>
<!DOCTYPE svg PUBLIC "-//W3C//DTD SVG 1.1//EN"
 "http://www.w3.org/Graphics/SVG/1.1/DTD/svg11.dtd">
<!-- Generated by graphviz version 11.0.0 (20240428.1522)
 -->
<!-- Title: imdf_net_1754051786.7901578 Pages: 1 -->
<svg width="3585pt" height="111pt"
 viewBox="0.00 0.00 3585.25 111.00" xmlns="http://www.w3.org/2000/svg" xmlns:xlink="http://www.w3.org/1999/xlink">
<g id="graph0" class="graph" transform="scale(1 1) rotate(0) translate(4 107)">
<title>imdf_net_1754051786.7901578</title>
<polygon fill="white" stroke="none" points="-4,4 -4,-107 3581.25,-107 3581.25,4 -4,4"/>
<!-- 1990979573648 -->
<g id="node1" class="node">
<title>1990979573648</title>
<polygon fill="black" stroke="black" points="144,-80 90,-80 90,-44 144,-44 144,-80"/>
</g>
<!-- 1990979922512 -->
<g id="node20" class="node">
<title>1990979922512</title>
<ellipse fill="white" stroke="black" cx="207" cy="-62" rx="27" ry="27"/>
</g>
<!-- 1990979573648&#45;&gt;1990979922512 -->
<g id="edge2" class="edge">
<title>1990979573648&#45;&gt;1990979922512</title>
<path fill="none" stroke="black" d="M144.4,-62C151.89,-62 160.18,-62 168.2,-62"/>
<polygon fill="black" stroke="black" points="168.1,-65.5 178.1,-62 168.1,-58.5 168.1,-65.5"/>
</g>
<!-- 1990971349168 -->
<g id="node2" class="node">
<title>1990971349168</title>
<polygon fill="white" stroke="black" points="340.75,-53 270,-53 270,-17 340.75,-17 340.75,-53"/>
<text text-anchor="middle" x="305.38" y="-29.98" font-family="Times New Roman,serif" font-size="12.00">Seed Select</text>
</g>
<!-- 1990971352528 -->
<g id="node21" class="node">
<title>1990971352528</title>
<ellipse fill="white" stroke="black" cx="403.75" cy="-31" rx="27" ry="27"/>
</g>
<!-- 1990971349168&#45;&gt;1990971352528 -->
<g id="edge4" class="edge">
<title>1990971349168&#45;&gt;1990971352528</title>
<path fill="none" stroke="black" d="M341.17,-33.56C348.9,-33.23 357.14,-32.89 364.98,-32.57"/>
<polygon fill="black" stroke="black" points="365.12,-36.06 374.97,-32.15 364.83,-29.07 365.12,-36.06"/>
</g>
<!-- 1990971346048 -->
<g id="node3" class="node">
<title>1990971346048</title>
<polygon fill="white" stroke="black" points="562.25,-49 466.75,-49 466.75,-13 562.25,-13 562.25,-49"/>
<text text-anchor="middle" x="514.5" y="-25.98" font-family="Times New Roman,serif" font-size="12.00">Climate Analyze</text>
</g>
<!-- 1990980247312 -->
<g id="node22" class="node">
<title>1990980247312</title>
<ellipse fill="white" stroke="black" cx="625.25" cy="-31" rx="27" ry="27"/>
</g>
<!-- 1990971346048&#45;&gt;1990980247312 -->
<g id="edge6" class="edge">
<title>1990971346048&#45;&gt;1990980247312</title>
<path fill="none" stroke="black" d="M562.57,-31C570.57,-31 578.79,-31 586.52,-31"/>
<polygon fill="black" stroke="black" points="586.25,-34.5 596.25,-31 586.25,-27.5 586.25,-34.5"/>
</g>
<!-- 1990971514736 -->
<g id="node4" class="node">
<title>1990971514736</title>
<polygon fill="white" stroke="black" points="765.75,-49 688.25,-49 688.25,-13 765.75,-13 765.75,-49"/>
<text text-anchor="middle" x="727" y="-25.98" font-family="Times New Roman,serif" font-size="12.00">Nutrient Mix</text>
</g>
<!-- 1990971519152 -->
<g id="node23" class="node">
<title>1990971519152</title>
<ellipse fill="white" stroke="black" cx="828.75" cy="-31" rx="27" ry="27"/>
</g>
<!-- 1990971514736&#45;&gt;1990971519152 -->
<g id="edge8" class="edge">
<title>1990971514736&#45;&gt;1990971519152</title>
<path fill="none" stroke="black" d="M766,-31C773.82,-31 782.06,-31 789.88,-31"/>
<polygon fill="black" stroke="black" points="789.8,-34.5 799.8,-31 789.8,-27.5 789.8,-34.5"/>
</g>
<!-- 1990979052528 -->
<g id="node5" class="node">
<title>1990979052528</title>
<polygon fill="white" stroke="black" points="990.25,-49 891.75,-49 891.75,-13 990.25,-13 990.25,-49"/>
<text text-anchor="middle" x="941" y="-25.98" font-family="Times New Roman,serif" font-size="12.00">Irrigation Control</text>
</g>
<!-- 1990979055312 -->
<g id="node24" class="node">
<title>1990979055312</title>
<ellipse fill="white" stroke="black" cx="1053.25" cy="-31" rx="27" ry="27"/>
</g>
<!-- 1990979052528&#45;&gt;1990979055312 -->
<g id="edge10" class="edge">
<title>1990979052528&#45;&gt;1990979055312</title>
<path fill="none" stroke="black" d="M990.68,-31C998.63,-31 1006.76,-31 1014.4,-31"/>
<polygon fill="black" stroke="black" points="1014.39,-34.5 1024.39,-31 1014.39,-27.5 1014.39,-34.5"/>
</g>
<!-- 1990979044560 -->
<g id="node6" class="node">
<title>1990979044560</title>
<polygon fill="white" stroke="black" points="1199,-49 1116.25,-49 1116.25,-13 1199,-13 1199,-49"/>
<text text-anchor="middle" x="1157.62" y="-25.98" font-family="Times New Roman,serif" font-size="12.00">Drone Survey</text>
</g>
<!-- 1990979046432 -->
<g id="node25" class="node">
<title>1990979046432</title>
<ellipse fill="white" stroke="black" cx="1262" cy="-31" rx="27" ry="27"/>
</g>
<!-- 1990979044560&#45;&gt;1990979046432 -->
<g id="edge12" class="edge">
<title>1990979044560&#45;&gt;1990979046432</title>
<path fill="none" stroke="black" d="M1199.38,-31C1207.23,-31 1215.42,-31 1223.17,-31"/>
<polygon fill="black" stroke="black" points="1222.99,-34.5 1232.99,-31 1222.99,-27.5 1222.99,-34.5"/>
</g>
<!-- 1990979050368 -->
<g id="node7" class="node">
<title>1990979050368</title>
<polygon fill="white" stroke="black" points="1394.25,-49 1325,-49 1325,-13 1394.25,-13 1394.25,-49"/>
<text text-anchor="middle" x="1359.62" y="-25.98" font-family="Times New Roman,serif" font-size="12.00">Pest Detect</text>
</g>
<!-- 1990979051904 -->
<g id="node26" class="node">
<title>1990979051904</title>
<ellipse fill="white" stroke="black" cx="1457.25" cy="-31" rx="27" ry="27"/>
</g>
<!-- 1990979050368&#45;&gt;1990979051904 -->
<g id="edge14" class="edge">
<title>1990979050368&#45;&gt;1990979051904</title>
<path fill="none" stroke="black" d="M1394.61,-31C1402.31,-31 1410.53,-31 1418.38,-31"/>
<polygon fill="black" stroke="black" points="1418.38,-34.5 1428.38,-31 1418.38,-27.5 1418.38,-34.5"/>
</g>
<!-- 1990979047200 -->
<g id="node8" class="node">
<title>1990979047200</title>
<polygon fill="white" stroke="black" points="1596.25,-49 1520.25,-49 1520.25,-13 1596.25,-13 1596.25,-49"/>
<text text-anchor="middle" x="1558.25" y="-25.98" font-family="Times New Roman,serif" font-size="12.00">Light Adjust</text>
</g>
<!-- 1990979049216 -->
<g id="node27" class="node">
<title>1990979049216</title>
<ellipse fill="white" stroke="black" cx="1659.25" cy="-31" rx="27" ry="27"/>
</g>
<!-- 1990979047200&#45;&gt;1990979049216 -->
<g id="edge16" class="edge">
<title>1990979047200&#45;&gt;1990979049216</title>
<path fill="none" stroke="black" d="M1596.68,-31C1604.46,-31 1612.66,-31 1620.46,-31"/>
<polygon fill="black" stroke="black" points="1620.35,-34.5 1630.35,-31 1620.35,-27.5 1620.35,-34.5"/>
</g>
<!-- 1990979059536 -->
<g id="node9" class="node">
<title>1990979059536</title>
<polygon fill="white" stroke="black" points="1816.25,-49 1722.25,-49 1722.25,-13 1816.25,-13 1816.25,-49"/>
<text text-anchor="middle" x="1769.25" y="-25.98" font-family="Times New Roman,serif" font-size="12.00">Growth Monitor</text>
</g>
<!-- 1990979043936 -->
<g id="node28" class="node">
<title>1990979043936</title>
<ellipse fill="white" stroke="black" cx="1879.25" cy="-31" rx="27" ry="27"/>
</g>
<!-- 1990979059536&#45;&gt;1990979043936 -->
<g id="edge18" class="edge">
<title>1990979059536&#45;&gt;1990979043936</title>
<path fill="none" stroke="black" d="M1816.68,-31C1824.56,-31 1832.66,-31 1840.28,-31"/>
<polygon fill="black" stroke="black" points="1840.27,-34.5 1850.27,-31 1840.27,-27.5 1840.27,-34.5"/>
</g>
<!-- 1990979057808 -->
<g id="node10" class="node">
<title>1990979057808</title>
<polygon fill="white" stroke="black" points="2027.25,-49 1942.25,-49 1942.25,-13 2027.25,-13 2027.25,-49"/>
<text text-anchor="middle" x="1984.75" y="-25.98" font-family="Times New Roman,serif" font-size="12.00">Yield Forecast</text>
</g>
<!-- 1990979053296 -->
<g id="node29" class="node">
<title>1990979053296</title>
<ellipse fill="white" stroke="black" cx="2090.25" cy="-31" rx="27" ry="27"/>
</g>
<!-- 1990979057808&#45;&gt;1990979053296 -->
<g id="edge20" class="edge">
<title>1990979057808&#45;&gt;1990979053296</title>
<path fill="none" stroke="black" d="M2027.55,-31C2035.45,-31 2043.67,-31 2051.43,-31"/>
<polygon fill="black" stroke="black" points="2051.26,-34.5 2061.26,-31 2051.26,-27.5 2051.26,-34.5"/>
</g>
<!-- 1990979057856 -->
<g id="node11" class="node">
<title>1990979057856</title>
<polygon fill="white" stroke="black" points="2233,-49 2153.25,-49 2153.25,-13 2233,-13 2233,-49"/>
<text text-anchor="middle" x="2193.12" y="-25.98" font-family="Times New Roman,serif" font-size="12.00">Harvest Crop</text>
</g>
<!-- 1990979044848 -->
<g id="node30" class="node">
<title>1990979044848</title>
<ellipse fill="white" stroke="black" cx="2296" cy="-31" rx="27" ry="27"/>
</g>
<!-- 1990979057856&#45;&gt;1990979044848 -->
<g id="edge22" class="edge">
<title>1990979057856&#45;&gt;1990979044848</title>
<path fill="none" stroke="black" d="M2233.41,-31C2241.28,-31 2249.52,-31 2257.32,-31"/>
<polygon fill="black" stroke="black" points="2257.22,-34.5 2267.22,-31 2257.22,-27.5 2257.22,-34.5"/>
</g>
<!-- 1990976884608 -->
<g id="node12" class="node">
<title>1990976884608</title>
<polygon fill="white" stroke="black" points="2432.75,-49 2359,-49 2359,-13 2432.75,-13 2432.75,-49"/>
<text text-anchor="middle" x="2395.88" y="-25.98" font-family="Times New Roman,serif" font-size="12.00">Quality Sort</text>
</g>
<!-- 1990976889120 -->
<g id="node31" class="node">
<title>1990976889120</title>
<ellipse fill="white" stroke="black" cx="2495.75" cy="-31" rx="27" ry="27"/>
</g>
<!-- 1990976884608&#45;&gt;1990976889120 -->
<g id="edge24" class="edge">
<title>1990976884608&#45;&gt;1990976889120</title>
<path fill="none" stroke="black" d="M2433.04,-31C2440.94,-31 2449.33,-31 2457.28,-31"/>
<polygon fill="black" stroke="black" points="2457,-34.5 2467,-31 2457,-27.5 2457,-34.5"/>
</g>
<!-- 1990976891088 -->
<g id="node13" class="node">
<title>1990976891088</title>
<polygon fill="white" stroke="black" points="2649,-49 2558.75,-49 2558.75,-13 2649,-13 2649,-49"/>
<text text-anchor="middle" x="2603.88" y="-25.98" font-family="Times New Roman,serif" font-size="12.00">Package Goods</text>
</g>
<!-- 1990976883072 -->
<g id="node32" class="node">
<title>1990976883072</title>
<ellipse fill="white" stroke="black" cx="2712" cy="-31" rx="27" ry="27"/>
</g>
<!-- 1990976891088&#45;&gt;1990976883072 -->
<g id="edge26" class="edge">
<title>1990976891088&#45;&gt;1990976883072</title>
<path fill="none" stroke="black" d="M2649.27,-31C2657.26,-31 2665.53,-31 2673.31,-31"/>
<polygon fill="black" stroke="black" points="2673.14,-34.5 2683.14,-31 2673.14,-27.5 2673.14,-34.5"/>
</g>
<!-- 1990976891424 -->
<g id="node14" class="node">
<title>1990976891424</title>
<polygon fill="white" stroke="black" points="2857.75,-49 2775,-49 2775,-13 2857.75,-13 2857.75,-49"/>
<text text-anchor="middle" x="2816.38" y="-25.98" font-family="Times New Roman,serif" font-size="12.00">Logistics Plan</text>
</g>
<!-- 1990976886864 -->
<g id="node33" class="node">
<title>1990976886864</title>
<ellipse fill="white" stroke="black" cx="2920.75" cy="-31" rx="27" ry="27"/>
</g>
<!-- 1990976891424&#45;&gt;1990976886864 -->
<g id="edge28" class="edge">
<title>1990976891424&#45;&gt;1990976886864</title>
<path fill="none" stroke="black" d="M2858.13,-31C2865.98,-31 2874.17,-31 2881.92,-31"/>
<polygon fill="black" stroke="black" points="2881.74,-34.5 2891.74,-31 2881.74,-27.5 2881.74,-34.5"/>
</g>
<!-- 1990976890272 -->
<g id="node15" class="node">
<title>1990976890272</title>
<polygon fill="white" stroke="black" points="3076.25,-49 2983.75,-49 2983.75,-13 3076.25,-13 3076.25,-49"/>
<text text-anchor="middle" x="3030" y="-25.98" font-family="Times New Roman,serif" font-size="12.00">Market Analyze</text>
</g>
<!-- 1990976881440 -->
<g id="node34" class="node">
<title>1990976881440</title>
<ellipse fill="white" stroke="black" cx="3139.25" cy="-31" rx="27" ry="27"/>
</g>
<!-- 1990976890272&#45;&gt;1990976881440 -->
<g id="edge30" class="edge">
<title>1990976890272&#45;&gt;1990976881440</title>
<path fill="none" stroke="black" d="M3076.48,-31C3084.52,-31 3092.81,-31 3100.6,-31"/>
<polygon fill="black" stroke="black" points="3100.44,-34.5 3110.44,-31 3100.44,-27.5 3100.44,-34.5"/>
</g>
<!-- 1990976880912 -->
<g id="node16" class="node">
<title>1990976880912</title>
<polygon fill="white" stroke="black" points="3299.25,-49 3202.25,-49 3202.25,-13 3299.25,-13 3299.25,-49"/>
<text text-anchor="middle" x="3250.75" y="-25.98" font-family="Times New Roman,serif" font-size="12.00">Schedule Update</text>
</g>
<!-- 1990978180144 -->
<g id="node35" class="node">
<title>1990978180144</title>
<ellipse fill="white" stroke="black" cx="3362.25" cy="-31" rx="27" ry="27"/>
</g>
<!-- 1990976880912&#45;&gt;1990978180144 -->
<g id="edge32" class="edge">
<title>1990976880912&#45;&gt;1990978180144</title>
<path fill="none" stroke="black" d="M3299.46,-31C3307.57,-31 3315.9,-31 3323.7,-31"/>
<polygon fill="black" stroke="black" points="3323.54,-34.5 3333.54,-31 3323.54,-27.5 3323.54,-34.5"/>
</g>
<!-- 1990977849344 -->
<g id="node17" class="node">
<title>1990977849344</title>
<polygon fill="black" stroke="black" points="3479.25,-103 3425.25,-103 3425.25,-67 3479.25,-67 3479.25,-103"/>
</g>
<!-- 1990977849344&#45;&gt;1990979922512 -->
<g id="edge35" class="edge">
<title>1990977849344&#45;&gt;1990979922512</title>
<path fill="none" stroke="black" d="M3424.79,-85.22C3386.58,-85.51 3313.75,-86 3251.75,-86 402.75,-86 402.75,-86 402.75,-86 347.49,-86 284.06,-76.36 245.01,-69.3"/>
<polygon fill="black" stroke="black" points="245.67,-65.86 235.2,-67.48 244.39,-72.75 245.67,-65.86"/>
</g>
<!-- 1990977849104 -->
<g id="node18" class="node">
<title>1990977849104</title>
<polygon fill="black" stroke="black" points="3479.25,-49 3425.25,-49 3425.25,-13 3479.25,-13 3479.25,-49"/>
</g>
<!-- 1990977083472 -->
<g id="node36" class="node">
<title>1990977083472</title>
<ellipse fill="white" stroke="black" cx="3546.25" cy="-31" rx="27" ry="27"/>
<ellipse fill="none" stroke="black" cx="3546.25" cy="-31" rx="31" ry="31"/>
<text text-anchor="start" x="3529.75" y="-15.6" font-family="Times New Roman,serif" font-size="32.00">■</text>
</g>
<!-- 1990977849104&#45;&gt;1990977083472 -->
<g id="edge36" class="edge">
<title>1990977849104&#45;&gt;1990977083472</title>
<path fill="none" stroke="black" d="M3479.37,-31C3486.88,-31 3495.26,-31 3503.47,-31"/>
<polygon fill="black" stroke="black" points="3503.33,-34.5 3513.33,-31 3503.33,-27.5 3503.33,-34.5"/>
</g>
<!-- 1990977078960 -->
<g id="node19" class="node">
<title>1990977078960</title>
<ellipse fill="white" stroke="black" cx="27" cy="-62" rx="27" ry="27"/>
<text text-anchor="start" x="9.75" y="-44.7" font-family="Times New Roman,serif" font-size="34.00">●</text>
</g>
<!-- 1990977078960&#45;&gt;1990979573648 -->
<g id="edge1" class="edge">
<title>1990977078960&#45;&gt;1990979573648</title>
<path fill="none" stroke="black" d="M54.4,-62C61.89,-62 70.18,-62 78.2,-62"/>
<polygon fill="black" stroke="black" points="78.1,-65.5 88.1,-62 78.1,-58.5 78.1,-65.5"/>
</g>
<!-- 1990979922512&#45;&gt;1990971349168 -->
<g id="edge3" class="edge">
<title>1990979922512&#45;&gt;1990971349168</title>
<path fill="none" stroke="black" d="M233.32,-54.91C241.16,-52.71 250.06,-50.22 258.84,-47.76"/>
<polygon fill="black" stroke="black" points="259.66,-51.16 268.35,-45.09 257.77,-44.42 259.66,-51.16"/>
</g>
<!-- 1990971352528&#45;&gt;1990971346048 -->
<g id="edge5" class="edge">
<title>1990971352528&#45;&gt;1990971346048</title>
<path fill="none" stroke="black" d="M431.08,-31C438.42,-31 446.71,-31 455.13,-31"/>
<polygon fill="black" stroke="black" points="455.09,-34.5 465.09,-31 455.09,-27.5 455.09,-34.5"/>
</g>
<!-- 1990980247312&#45;&gt;1990971514736 -->
<g id="edge7" class="edge">
<title>1990980247312&#45;&gt;1990971514736</title>
<path fill="none" stroke="black" d="M652.72,-31C660.02,-31 668.18,-31 676.33,-31"/>
<polygon fill="black" stroke="black" points="676.25,-34.5 686.25,-31 676.25,-27.5 676.25,-34.5"/>
</g>
<!-- 1990971519152&#45;&gt;1990979052528 -->
<g id="edge9" class="edge">
<title>1990971519152&#45;&gt;1990979052528</title>
<path fill="none" stroke="black" d="M856.16,-31C863.43,-31 871.62,-31 879.97,-31"/>
<polygon fill="black" stroke="black" points="879.86,-34.5 889.86,-31 879.86,-27.5 879.86,-34.5"/>
</g>
<!-- 1990979055312&#45;&gt;1990979044560 -->
<g id="edge11" class="edge">
<title>1990979055312&#45;&gt;1990979044560</title>
<path fill="none" stroke="black" d="M1080.61,-31C1088.03,-31 1096.36,-31 1104.71,-31"/>
<polygon fill="black" stroke="black" points="1104.52,-34.5 1114.52,-31 1104.52,-27.5 1104.52,-34.5"/>
</g>
<!-- 1990979046432&#45;&gt;1990979050368 -->
<g id="edge13" class="edge">
<title>1990979046432&#45;&gt;1990979050368</title>
<path fill="none" stroke="black" d="M1289.38,-31C1296.82,-31 1305.14,-31 1313.35,-31"/>
<polygon fill="black" stroke="black" points="1313.28,-34.5 1323.28,-31 1313.28,-27.5 1313.28,-34.5"/>
</g>
<!-- 1990979051904&#45;&gt;1990979047200 -->
<g id="edge15" class="edge">
<title>1990979051904&#45;&gt;1990979047200</title>
<path fill="none" stroke="black" d="M1484.52,-31C1492,-31 1500.4,-31 1508.76,-31"/>
<polygon fill="black" stroke="black" points="1508.53,-34.5 1518.53,-31 1508.53,-27.5 1508.53,-34.5"/>
</g>
<!-- 1990979049216&#45;&gt;1990979059536 -->
<g id="edge17" class="edge">
<title>1990979049216&#45;&gt;1990979059536</title>
<path fill="none" stroke="black" d="M1686.67,-31C1693.97,-31 1702.19,-31 1710.52,-31"/>
<polygon fill="black" stroke="black" points="1710.38,-34.5 1720.38,-31 1710.38,-27.5 1710.38,-34.5"/>
</g>
<!-- 1990979043936&#45;&gt;1990979057808 -->
<g id="edge19" class="edge">
<title>1990979043936&#45;&gt;1990979057808</title>
<path fill="none" stroke="black" d="M1906.64,-31C1914.05,-31 1922.38,-31 1930.76,-31"/>
<polygon fill="black" stroke="black" points="1930.61,-34.5 1940.61,-31 1930.61,-27.5 1930.61,-34.5"/>
</g>
<!-- 1990979053296&#45;&gt;1990979057856 -->
<g id="edge21" class="edge">
<title>1990979053296&#45;&gt;1990979057856</title>
<path fill="none" stroke="black" d="M2117.49,-31C2124.96,-31 2133.35,-31 2141.74,-31"/>
<polygon fill="black" stroke="black" points="2141.58,-34.5 2151.58,-31 2141.58,-27.5 2141.58,-34.5"/>
</g>
<!-- 1990979044848&#45;&gt;1990976884608 -->
<g id="edge23" class="edge">
<title>1990979044848&#45;&gt;1990976884608</title>
<path fill="none" stroke="black" d="M2323.49,-31C2330.87,-31 2339.13,-31 2347.34,-31"/>
<polygon fill="black" stroke="black" points="2347.3,-34.5 2357.3,-31 2347.3,-27.5 2347.3,-34.5"/>
</g>
<!-- 1990976889120&#45;&gt;1990976891088 -->
<g id="edge25" class="edge">
<title>1990976889120&#45;&gt;1990976891088</title>
<path fill="none" stroke="black" d="M2522.98,-31C2530.33,-31 2538.6,-31 2546.97,-31"/>
<polygon fill="black" stroke="black" points="2546.84,-34.5 2556.84,-31 2546.84,-27.5 2546.84,-34.5"/>
</g>
<!-- 1990976883072&#45;&gt;1990976891424 -->
<g id="edge27" class="edge">
<title>1990976883072&#45;&gt;1990976891424</title>
<path fill="none" stroke="black" d="M2739.36,-31C2746.78,-31 2755.11,-31 2763.46,-31"/>
<polygon fill="black" stroke="black" points="2763.27,-34.5 2773.27,-31 2763.27,-27.5 2763.27,-34.5"/>
</g>
<!-- 1990976886864&#45;&gt;1990976890272 -->
<g id="edge29" class="edge">
<title>1990976886864&#45;&gt;1990976890272</title>
<path fill="none" stroke="black" d="M2947.99,-31C2955.32,-31 2963.59,-31 2971.97,-31"/>
<polygon fill="black" stroke="black" points="2971.87,-34.5 2981.87,-31 2971.87,-27.5 2971.87,-34.5"/>
</g>
<!-- 1990976881440&#45;&gt;1990976880912 -->
<g id="edge31" class="edge">
<title>1990976881440&#45;&gt;1990976880912</title>
<path fill="none" stroke="black" d="M3166.48,-31C3173.79,-31 3182.03,-31 3190.43,-31"/>
<polygon fill="black" stroke="black" points="3190.37,-34.5 3200.37,-31 3190.37,-27.5 3190.37,-34.5"/>
</g>
<!-- 1990978180144&#45;&gt;1990977849344 -->
<g id="edge33" class="edge">
<title>1990978180144&#45;&gt;1990977849344</title>
<path fill="none" stroke="black" d="M3385.91,-44.91C3394.85,-50.39 3405.34,-56.83 3415.26,-62.92"/>
<polygon fill="black" stroke="black" points="3413.28,-65.8 3423.63,-68.05 3416.94,-59.84 3413.28,-65.8"/>
</g>
<!-- 1990978180144&#45;&gt;1990977849104 -->
<g id="edge34" class="edge">
<title>1990978180144&#45;&gt;1990977849104</title>
<path fill="none" stroke="black" d="M3389.65,-31C3397.14,-31 3405.43,-31 3413.45,-31"/>
<polygon fill="black" stroke="black" points="3413.35,-34.5 3423.35,-31 3413.35,-27.5 3413.35,-34.5"/>
</g>
</g>
</svg>
