<?xml version="1.0" encoding="UTF-8" standalone="no"?>
<!DOCTYPE svg PUBLIC "-//W3C//DTD SVG 1.1//EN"
 "http://www.w3.org/Graphics/SVG/1.1/DTD/svg11.dtd">
<!-- Generated by graphviz version 11.0.0 (20240428.1522)
 -->
<!-- Title: imdf_net_1754051776.7597182 Pages: 1 -->
<svg width="3361pt" height="134pt"
 viewBox="0.00 0.00 3360.75 134.00" xmlns="http://www.w3.org/2000/svg" xmlns:xlink="http://www.w3.org/1999/xlink">
<g id="graph0" class="graph" transform="scale(1 1) rotate(0) translate(4 130)">
<title>imdf_net_1754051776.7597182</title>
<polygon fill="white" stroke="none" points="-4,4 -4,-130 3356.75,-130 3356.75,4 -4,4"/>
<!-- 1990976237840 -->
<g id="node1" class="node">
<title>1990976237840</title>
<polygon fill="white" stroke="black" points="179.5,-81 90,-81 90,-45 179.5,-45 179.5,-81"/>
<text text-anchor="middle" x="134.75" y="-57.98" font-family="Times New Roman,serif" font-size="12.00">Initial Research</text>
</g>
<!-- 1990976230976 -->
<g id="node19" class="node">
<title>1990976230976</title>
<ellipse fill="white" stroke="black" cx="242.5" cy="-63" rx="27" ry="27"/>
</g>
<!-- 1990976237840&#45;&gt;1990976230976 -->
<g id="edge2" class="edge">
<title>1990976237840&#45;&gt;1990976230976</title>
<path fill="none" stroke="black" d="M179.98,-63C187.95,-63 196.19,-63 203.95,-63"/>
<polygon fill="black" stroke="black" points="203.74,-66.5 213.74,-63 203.74,-59.5 203.74,-66.5"/>
</g>
<!-- 1990976229392 -->
<g id="node2" class="node">
<title>1990976229392</title>
<polygon fill="white" stroke="black" points="410.75,-81 305.5,-81 305.5,-45 410.75,-45 410.75,-81"/>
<text text-anchor="middle" x="358.12" y="-57.98" font-family="Times New Roman,serif" font-size="12.00">Provenance Check</text>
</g>
<!-- 1990978481968 -->
<g id="node20" class="node">
<title>1990978481968</title>
<ellipse fill="white" stroke="black" cx="473.75" cy="-63" rx="27" ry="27"/>
</g>
<!-- 1990976229392&#45;&gt;1990978481968 -->
<g id="edge4" class="edge">
<title>1990976229392&#45;&gt;1990978481968</title>
<path fill="none" stroke="black" d="M410.95,-63C419.11,-63 427.41,-63 435.17,-63"/>
<polygon fill="black" stroke="black" points="434.93,-66.5 444.93,-63 434.93,-59.5 434.93,-66.5"/>
</g>
<!-- 1990976970368 -->
<g id="node3" class="node">
<title>1990976970368</title>
<polygon fill="white" stroke="black" points="630,-81 536.75,-81 536.75,-45 630,-45 630,-81"/>
<text text-anchor="middle" x="583.38" y="-57.98" font-family="Times New Roman,serif" font-size="12.00">Material Testing</text>
</g>
<!-- 1990976969504 -->
<g id="node21" class="node">
<title>1990976969504</title>
<ellipse fill="white" stroke="black" cx="693" cy="-63" rx="27" ry="27"/>
</g>
<!-- 1990976970368&#45;&gt;1990976969504 -->
<g id="edge6" class="edge">
<title>1990976970368&#45;&gt;1990976969504</title>
<path fill="none" stroke="black" d="M630.33,-63C638.37,-63 646.66,-63 654.44,-63"/>
<polygon fill="black" stroke="black" points="654.26,-66.5 664.26,-63 654.26,-59.5 654.26,-66.5"/>
</g>
<!-- 1990976970416 -->
<g id="node4" class="node">
<title>1990976970416</title>
<polygon fill="white" stroke="black" points="843.25,-81 756,-81 756,-45 843.25,-45 843.25,-81"/>
<text text-anchor="middle" x="799.62" y="-57.98" font-family="Times New Roman,serif" font-size="12.00">Expert Review</text>
</g>
<!-- 1990976971040 -->
<g id="node22" class="node">
<title>1990976971040</title>
<ellipse fill="white" stroke="black" cx="906.25" cy="-63" rx="27" ry="27"/>
</g>
<!-- 1990976970416&#45;&gt;1990976971040 -->
<g id="edge8" class="edge">
<title>1990976970416&#45;&gt;1990976971040</title>
<path fill="none" stroke="black" d="M843.48,-63C851.43,-63 859.67,-63 867.45,-63"/>
<polygon fill="black" stroke="black" points="867.29,-66.5 877.29,-63 867.29,-59.5 867.29,-66.5"/>
</g>
<!-- 1990976965184 -->
<g id="node5" class="node">
<title>1990976965184</title>
<polygon fill="white" stroke="black" points="1057.25,-81 969.25,-81 969.25,-45 1057.25,-45 1057.25,-81"/>
<text text-anchor="middle" x="1013.25" y="-57.98" font-family="Times New Roman,serif" font-size="12.00">Digital Catalog</text>
</g>
<!-- 1990976964032 -->
<g id="node23" class="node">
<title>1990976964032</title>
<ellipse fill="white" stroke="black" cx="1120.25" cy="-63" rx="27" ry="27"/>
</g>
<!-- 1990976965184&#45;&gt;1990976964032 -->
<g id="edge10" class="edge">
<title>1990976965184&#45;&gt;1990976964032</title>
<path fill="none" stroke="black" d="M1057.56,-63C1065.52,-63 1073.76,-63 1081.53,-63"/>
<polygon fill="black" stroke="black" points="1081.35,-66.5 1091.35,-63 1081.35,-59.5 1081.35,-66.5"/>
</g>
<!-- 1990977252544 -->
<g id="node6" class="node">
<title>1990977252544</title>
<polygon fill="white" stroke="black" points="1281.75,-81 1183.25,-81 1183.25,-45 1281.75,-45 1281.75,-81"/>
<text text-anchor="middle" x="1232.5" y="-57.98" font-family="Times New Roman,serif" font-size="12.00">Condition Report</text>
</g>
<!-- 1990977249040 -->
<g id="node24" class="node">
<title>1990977249040</title>
<ellipse fill="white" stroke="black" cx="1344.75" cy="-63" rx="27" ry="27"/>
</g>
<!-- 1990977252544&#45;&gt;1990977249040 -->
<g id="edge12" class="edge">
<title>1990977252544&#45;&gt;1990977249040</title>
<path fill="none" stroke="black" d="M1282.18,-63C1290.13,-63 1298.26,-63 1305.9,-63"/>
<polygon fill="black" stroke="black" points="1305.89,-66.5 1315.89,-63 1305.89,-59.5 1305.89,-66.5"/>
</g>
<!-- 1990977243232 -->
<g id="node7" class="node">
<title>1990977243232</title>
<polygon fill="white" stroke="black" points="1489,-81 1407.75,-81 1407.75,-45 1489,-45 1489,-81"/>
<text text-anchor="middle" x="1448.38" y="-57.98" font-family="Times New Roman,serif" font-size="12.00">Imaging Scan</text>
</g>
<!-- 1990977249616 -->
<g id="node25" class="node">
<title>1990977249616</title>
<ellipse fill="white" stroke="black" cx="1552" cy="-63" rx="27" ry="27"/>
</g>
<!-- 1990977243232&#45;&gt;1990977249616 -->
<g id="edge14" class="edge">
<title>1990977243232&#45;&gt;1990977249616</title>
<path fill="none" stroke="black" d="M1489.25,-63C1497.15,-63 1505.42,-63 1513.25,-63"/>
<polygon fill="black" stroke="black" points="1513.17,-66.5 1523.17,-63 1513.17,-59.5 1513.17,-66.5"/>
</g>
<!-- 1990977241936 -->
<g id="node8" class="node">
<title>1990977241936</title>
<polygon fill="white" stroke="black" points="1703,-81 1615,-81 1615,-45 1703,-45 1703,-81"/>
<text text-anchor="middle" x="1659" y="-57.98" font-family="Times New Roman,serif" font-size="12.00">Fraud Analysis</text>
</g>
<!-- 1990977253792 -->
<g id="node26" class="node">
<title>1990977253792</title>
<ellipse fill="white" stroke="black" cx="1766" cy="-63" rx="27" ry="27"/>
</g>
<!-- 1990977241936&#45;&gt;1990977253792 -->
<g id="edge16" class="edge">
<title>1990977241936&#45;&gt;1990977253792</title>
<path fill="none" stroke="black" d="M1703.31,-63C1711.27,-63 1719.51,-63 1727.28,-63"/>
<polygon fill="black" stroke="black" points="1727.1,-66.5 1737.1,-63 1727.1,-59.5 1727.1,-66.5"/>
</g>
<!-- 1990978622416 -->
<g id="node9" class="node">
<title>1990978622416</title>
<polygon fill="white" stroke="black" points="1911.75,-81 1829,-81 1829,-45 1911.75,-45 1911.75,-81"/>
<text text-anchor="middle" x="1870.38" y="-57.98" font-family="Times New Roman,serif" font-size="12.00">Legal Review</text>
</g>
<!-- 1990978625152 -->
<g id="node27" class="node">
<title>1990978625152</title>
<ellipse fill="white" stroke="black" cx="1974.75" cy="-63" rx="27" ry="27"/>
</g>
<!-- 1990978622416&#45;&gt;1990978625152 -->
<g id="edge18" class="edge">
<title>1990978622416&#45;&gt;1990978625152</title>
<path fill="none" stroke="black" d="M1912.13,-63C1919.98,-63 1928.17,-63 1935.92,-63"/>
<polygon fill="black" stroke="black" points="1935.74,-66.5 1945.74,-63 1935.74,-59.5 1935.74,-66.5"/>
</g>
<!-- 1990978626736 -->
<g id="node10" class="node">
<title>1990978626736</title>
<polygon fill="white" stroke="black" points="2152,-81 2037.75,-81 2037.75,-45 2152,-45 2152,-81"/>
<text text-anchor="middle" x="2094.88" y="-57.98" font-family="Times New Roman,serif" font-size="12.00">Stakeholder Meeting</text>
</g>
<!-- 1990981532176 -->
<g id="node28" class="node">
<title>1990981532176</title>
<ellipse fill="white" stroke="black" cx="2215" cy="-63" rx="27" ry="27"/>
</g>
<!-- 1990978626736&#45;&gt;1990981532176 -->
<g id="edge20" class="edge">
<title>1990978626736&#45;&gt;1990981532176</title>
<path fill="none" stroke="black" d="M2152.17,-63C2160.28,-63 2168.46,-63 2176.1,-63"/>
<polygon fill="black" stroke="black" points="2176.05,-66.5 2186.05,-63 2176.05,-59.5 2176.05,-66.5"/>
</g>
<!-- 1990981653744 -->
<g id="node11" class="node">
<title>1990981653744</title>
<polygon fill="white" stroke="black" points="2396.75,-81 2278,-81 2278,-45 2396.75,-45 2396.75,-81"/>
<text text-anchor="middle" x="2337.38" y="-57.98" font-family="Times New Roman,serif" font-size="12.00">Acquisition Approval</text>
</g>
<!-- 1990981651584 -->
<g id="node29" class="node">
<title>1990981651584</title>
<ellipse fill="white" stroke="black" cx="2459.75" cy="-99" rx="27" ry="27"/>
</g>
<!-- 1990981653744&#45;&gt;1990981651584 -->
<g id="edge23" class="edge">
<title>1990981653744&#45;&gt;1990981651584</title>
<path fill="none" stroke="black" d="M2397.15,-80.58C2405.83,-83.17 2414.55,-85.78 2422.59,-88.19"/>
<polygon fill="black" stroke="black" points="2421.39,-91.48 2431.97,-90.99 2423.39,-84.77 2421.39,-91.48"/>
</g>
<!-- 1990981651248 -->
<g id="node30" class="node">
<title>1990981651248</title>
<ellipse fill="white" stroke="black" cx="2459.75" cy="-27" rx="27" ry="27"/>
</g>
<!-- 1990981653744&#45;&gt;1990981651248 -->
<g id="edge22" class="edge">
<title>1990981653744&#45;&gt;1990981651248</title>
<path fill="none" stroke="black" d="M2397.15,-45.42C2405.83,-42.83 2414.55,-40.22 2422.59,-37.81"/>
<polygon fill="black" stroke="black" points="2423.39,-41.23 2431.97,-35.01 2421.39,-34.52 2423.39,-41.23"/>
</g>
<!-- 1990971346720 -->
<g id="node12" class="node">
<title>1990971346720</title>
<polygon fill="white" stroke="black" points="2618.25,-45 2522.75,-45 2522.75,-9 2618.25,-9 2618.25,-45"/>
<text text-anchor="middle" x="2570.5" y="-21.98" font-family="Times New Roman,serif" font-size="12.00">Exhibit Planning</text>
</g>
<!-- 1990971626640 -->
<g id="node32" class="node">
<title>1990971626640</title>
<ellipse fill="white" stroke="black" cx="2681.25" cy="-27" rx="27" ry="27"/>
</g>
<!-- 1990971346720&#45;&gt;1990971626640 -->
<g id="edge27" class="edge">
<title>1990971346720&#45;&gt;1990971626640</title>
<path fill="none" stroke="black" d="M2618.57,-27C2626.57,-27 2634.79,-27 2642.52,-27"/>
<polygon fill="black" stroke="black" points="2642.25,-30.5 2652.25,-27 2642.25,-23.5 2642.25,-30.5"/>
</g>
<!-- 1990981657392 -->
<g id="node13" class="node">
<title>1990981657392</title>
<polygon fill="white" stroke="black" points="2614.12,-117 2526.88,-117 2526.88,-81 2614.12,-81 2614.12,-117"/>
<text text-anchor="middle" x="2570.5" y="-93.97" font-family="Times New Roman,serif" font-size="12.00">Secure Storage</text>
</g>
<!-- 1990971632160 -->
<g id="node31" class="node">
<title>1990971632160</title>
<ellipse fill="white" stroke="black" cx="2681.25" cy="-99" rx="27" ry="27"/>
</g>
<!-- 1990981657392&#45;&gt;1990971632160 -->
<g id="edge26" class="edge">
<title>1990981657392&#45;&gt;1990971632160</title>
<path fill="none" stroke="black" d="M2614.48,-99C2623.73,-99 2633.43,-99 2642.47,-99"/>
<polygon fill="black" stroke="black" points="2642.34,-102.5 2652.34,-99 2642.34,-95.5 2642.34,-102.5"/>
</g>
<!-- 1990971351952 -->
<g id="node14" class="node">
<title>1990971351952</title>
<polygon fill="black" stroke="black" points="2798.25,-81 2744.25,-81 2744.25,-45 2798.25,-45 2798.25,-81"/>
</g>
<!-- 1990982042880 -->
<g id="node33" class="node">
<title>1990982042880</title>
<ellipse fill="white" stroke="black" cx="2861.25" cy="-63" rx="27" ry="27"/>
</g>
<!-- 1990971351952&#45;&gt;1990982042880 -->
<g id="edge30" class="edge">
<title>1990971351952&#45;&gt;1990982042880</title>
<path fill="none" stroke="black" d="M2798.65,-63C2806.14,-63 2814.43,-63 2822.45,-63"/>
<polygon fill="black" stroke="black" points="2822.35,-66.5 2832.35,-63 2822.35,-59.5 2822.35,-66.5"/>
</g>
<!-- 1990982041728 -->
<g id="node15" class="node">
<title>1990982041728</title>
<polygon fill="white" stroke="black" points="3002.5,-54 2924.25,-54 2924.25,-18 3002.5,-18 3002.5,-54"/>
<text text-anchor="middle" x="2963.38" y="-30.98" font-family="Times New Roman,serif" font-size="12.00">Reevaluation</text>
</g>
<!-- 1990982042208 -->
<g id="node34" class="node">
<title>1990982042208</title>
<ellipse fill="white" stroke="black" cx="3065.5" cy="-35" rx="27" ry="27"/>
</g>
<!-- 1990982041728&#45;&gt;1990982042208 -->
<g id="edge32" class="edge">
<title>1990982041728&#45;&gt;1990982042208</title>
<path fill="none" stroke="black" d="M3002.8,-35.62C3010.64,-35.54 3018.88,-35.46 3026.69,-35.38"/>
<polygon fill="black" stroke="black" points="3026.64,-38.88 3036.61,-35.28 3026.57,-31.88 3026.64,-38.88"/>
</g>
<!-- 1990982043456 -->
<g id="node16" class="node">
<title>1990982043456</title>
<polygon fill="black" stroke="black" points="3218.62,-53 3164.62,-53 3164.62,-17 3218.62,-17 3218.62,-53"/>
</g>
<!-- 1990979576096 -->
<g id="node35" class="node">
<title>1990979576096</title>
<ellipse fill="white" stroke="black" cx="3321.75" cy="-35" rx="27" ry="27"/>
<ellipse fill="none" stroke="black" cx="3321.75" cy="-35" rx="31" ry="31"/>
<text text-anchor="start" x="3305.25" y="-19.6" font-family="Times New Roman,serif" font-size="32.00">■</text>
</g>
<!-- 1990982043456&#45;&gt;1990979576096 -->
<g id="edge36" class="edge">
<title>1990982043456&#45;&gt;1990979576096</title>
<path fill="none" stroke="black" d="M3218.86,-35C3236.24,-35 3259.41,-35 3279.26,-35"/>
<polygon fill="black" stroke="black" points="3278.99,-38.5 3288.99,-35 3278.99,-31.5 3278.99,-38.5"/>
</g>
<!-- 1990982056272 -->
<g id="node17" class="node">
<title>1990982056272</title>
<polygon fill="white" stroke="black" points="3254.75,-107 3128.5,-107 3128.5,-71 3254.75,-71 3254.75,-107"/>
<text text-anchor="middle" x="3191.62" y="-83.97" font-family="Times New Roman,serif" font-size="12.00">Documentation Update</text>
</g>
<!-- 1990982056272&#45;&gt;1990982042880 -->
<g id="edge35" class="edge">
<title>1990982056272&#45;&gt;1990982042880</title>
<path fill="none" stroke="black" d="M3128.14,-84.05C3060.79,-78.72 2955.77,-70.41 2900.01,-65.99"/>
<polygon fill="black" stroke="black" points="2900.32,-62.5 2890.08,-65.2 2899.77,-69.48 2900.32,-62.5"/>
</g>
<!-- 1990981960624 -->
<g id="node18" class="node">
<title>1990981960624</title>
<ellipse fill="white" stroke="black" cx="27" cy="-63" rx="27" ry="27"/>
<text text-anchor="start" x="9.75" y="-45.7" font-family="Times New Roman,serif" font-size="34.00">●</text>
</g>
<!-- 1990981960624&#45;&gt;1990976237840 -->
<g id="edge1" class="edge">
<title>1990981960624&#45;&gt;1990976237840</title>
<path fill="none" stroke="black" d="M54.41,-63C61.73,-63 69.96,-63 78.28,-63"/>
<polygon fill="black" stroke="black" points="78.08,-66.5 88.08,-63 78.08,-59.5 78.08,-66.5"/>
</g>
<!-- 1990976230976&#45;&gt;1990976229392 -->
<g id="edge3" class="edge">
<title>1990976230976&#45;&gt;1990976229392</title>
<path fill="none" stroke="black" d="M269.85,-63C277.24,-63 285.6,-63 294.15,-63"/>
<polygon fill="black" stroke="black" points="293.91,-66.5 303.91,-63 293.91,-59.5 293.91,-66.5"/>
</g>
<!-- 1990978481968&#45;&gt;1990976970368 -->
<g id="edge5" class="edge">
<title>1990978481968&#45;&gt;1990976970368</title>
<path fill="none" stroke="black" d="M501.08,-63C508.44,-63 516.73,-63 525.14,-63"/>
<polygon fill="black" stroke="black" points="525.08,-66.5 535.08,-63 525.08,-59.5 525.08,-66.5"/>
</g>
<!-- 1990976969504&#45;&gt;1990976970416 -->
<g id="edge7" class="edge">
<title>1990976969504&#45;&gt;1990976970416</title>
<path fill="none" stroke="black" d="M720.4,-63C727.73,-63 735.96,-63 744.26,-63"/>
<polygon fill="black" stroke="black" points="744.03,-66.5 754.03,-63 744.03,-59.5 744.03,-66.5"/>
</g>
<!-- 1990976971040&#45;&gt;1990976965184 -->
<g id="edge9" class="edge">
<title>1990976971040&#45;&gt;1990976965184</title>
<path fill="none" stroke="black" d="M933.75,-63C941.1,-63 949.36,-63 957.69,-63"/>
<polygon fill="black" stroke="black" points="957.5,-66.5 967.5,-63 957.5,-59.5 957.5,-66.5"/>
</g>
<!-- 1990976964032&#45;&gt;1990977252544 -->
<g id="edge11" class="edge">
<title>1990976964032&#45;&gt;1990977252544</title>
<path fill="none" stroke="black" d="M1147.66,-63C1154.93,-63 1163.12,-63 1171.47,-63"/>
<polygon fill="black" stroke="black" points="1171.36,-66.5 1181.36,-63 1171.36,-59.5 1171.36,-66.5"/>
</g>
<!-- 1990977249040&#45;&gt;1990977243232 -->
<g id="edge13" class="edge">
<title>1990977249040&#45;&gt;1990977243232</title>
<path fill="none" stroke="black" d="M1372.19,-63C1379.46,-63 1387.61,-63 1395.78,-63"/>
<polygon fill="black" stroke="black" points="1395.76,-66.5 1405.76,-63 1395.76,-59.5 1395.76,-66.5"/>
</g>
<!-- 1990977249616&#45;&gt;1990977241936 -->
<g id="edge15" class="edge">
<title>1990977249616&#45;&gt;1990977241936</title>
<path fill="none" stroke="black" d="M1579.5,-63C1586.85,-63 1595.11,-63 1603.44,-63"/>
<polygon fill="black" stroke="black" points="1603.25,-66.5 1613.25,-63 1603.25,-59.5 1603.25,-66.5"/>
</g>
<!-- 1990977253792&#45;&gt;1990978622416 -->
<g id="edge17" class="edge">
<title>1990977253792&#45;&gt;1990978622416</title>
<path fill="none" stroke="black" d="M1793.36,-63C1800.78,-63 1809.11,-63 1817.46,-63"/>
<polygon fill="black" stroke="black" points="1817.27,-66.5 1827.27,-63 1817.27,-59.5 1817.27,-66.5"/>
</g>
<!-- 1990978625152&#45;&gt;1990978626736 -->
<g id="edge19" class="edge">
<title>1990978625152&#45;&gt;1990978626736</title>
<path fill="none" stroke="black" d="M2001.97,-63C2009.24,-63 2017.5,-63 2026,-63"/>
<polygon fill="black" stroke="black" points="2025.75,-66.5 2035.75,-63 2025.75,-59.5 2025.75,-66.5"/>
</g>
<!-- 1990981532176&#45;&gt;1990981653744 -->
<g id="edge21" class="edge">
<title>1990981532176&#45;&gt;1990981653744</title>
<path fill="none" stroke="black" d="M2242.42,-63C2249.73,-63 2258.03,-63 2266.59,-63"/>
<polygon fill="black" stroke="black" points="2266.43,-66.5 2276.43,-63 2266.43,-59.5 2266.43,-66.5"/>
</g>
<!-- 1990981651584&#45;&gt;1990981657392 -->
<g id="edge25" class="edge">
<title>1990981651584&#45;&gt;1990981657392</title>
<path fill="none" stroke="black" d="M2487.08,-99C2495.57,-99 2505.32,-99 2515.07,-99"/>
<polygon fill="black" stroke="black" points="2514.94,-102.5 2524.94,-99 2514.94,-95.5 2514.94,-102.5"/>
</g>
<!-- 1990981651248&#45;&gt;1990971346720 -->
<g id="edge24" class="edge">
<title>1990981651248&#45;&gt;1990971346720</title>
<path fill="none" stroke="black" d="M2487.08,-27C2494.42,-27 2502.71,-27 2511.13,-27"/>
<polygon fill="black" stroke="black" points="2511.09,-30.5 2521.09,-27 2511.09,-23.5 2511.09,-30.5"/>
</g>
<!-- 1990971632160&#45;&gt;1990971351952 -->
<g id="edge28" class="edge">
<title>1990971632160&#45;&gt;1990971351952</title>
<path fill="none" stroke="black" d="M2706.76,-88.97C2715.01,-85.6 2724.39,-81.76 2733.37,-78.09"/>
<polygon fill="black" stroke="black" points="2734.69,-81.33 2742.62,-74.3 2732.04,-74.85 2734.69,-81.33"/>
</g>
<!-- 1990971626640&#45;&gt;1990971351952 -->
<g id="edge29" class="edge">
<title>1990971626640&#45;&gt;1990971351952</title>
<path fill="none" stroke="black" d="M2706.76,-37.03C2715.01,-40.4 2724.39,-44.24 2733.37,-47.91"/>
<polygon fill="black" stroke="black" points="2732.04,-51.15 2742.62,-51.7 2734.69,-44.67 2732.04,-51.15"/>
</g>
<!-- 1990982042880&#45;&gt;1990982041728 -->
<g id="edge31" class="edge">
<title>1990982042880&#45;&gt;1990982041728</title>
<path fill="none" stroke="black" d="M2887.77,-56.12C2895.52,-54.03 2904.29,-51.66 2913.05,-49.3"/>
<polygon fill="black" stroke="black" points="2913.83,-52.72 2922.57,-46.73 2912,-45.96 2913.83,-52.72"/>
</g>
<!-- 1990982042208&#45;&gt;1990982043456 -->
<g id="edge33" class="edge">
<title>1990982042208&#45;&gt;1990982043456</title>
<path fill="none" stroke="black" d="M3092.82,-35C3110.27,-35 3133.43,-35 3152.83,-35"/>
<polygon fill="black" stroke="black" points="3152.83,-38.5 3162.83,-35 3152.83,-31.5 3152.83,-38.5"/>
</g>
<!-- 1990982042208&#45;&gt;1990982056272 -->
<g id="edge34" class="edge">
<title>1990982042208&#45;&gt;1990982056272</title>
<path fill="none" stroke="black" d="M3090.64,-45.52C3102.11,-50.51 3116.01,-56.57 3128.5,-62 3131.48,-63.3 3134.55,-64.63 3137.64,-65.97"/>
<polygon fill="black" stroke="black" points="3136.23,-69.18 3146.79,-69.96 3139.02,-62.76 3136.23,-69.18"/>
</g>
</g>
</svg>
