<?xml version="1.0" encoding="UTF-8" standalone="no"?>
<!DOCTYPE svg PUBLIC "-//W3C//DTD SVG 1.1//EN"
 "http://www.w3.org/Graphics/SVG/1.1/DTD/svg11.dtd">
<!-- Generated by graphviz version 11.0.0 (20240428.1522)
 -->
<!-- Title: imdf_net_1754051795.061092 Pages: 1 -->
<svg width="3061pt" height="306pt"
 viewBox="0.00 0.00 3060.75 306.00" xmlns="http://www.w3.org/2000/svg" xmlns:xlink="http://www.w3.org/1999/xlink">
<g id="graph0" class="graph" transform="scale(1 1) rotate(0) translate(4 302)">
<title>imdf_net_1754051795.061092</title>
<polygon fill="white" stroke="none" points="-4,4 -4,-302 3056.75,-302 3056.75,4 -4,4"/>
<!-- 1990977732048 -->
<g id="node1" class="node">
<title>1990977732048</title>
<polygon fill="white" stroke="black" points="160.75,-198 90,-198 90,-162 160.75,-162 160.75,-198"/>
<text text-anchor="middle" x="125.38" y="-174.97" font-family="Times New Roman,serif" font-size="12.00">Site Survey</text>
</g>
<!-- 1990977723696 -->
<g id="node22" class="node">
<title>1990977723696</title>
<ellipse fill="white" stroke="black" cx="223.75" cy="-180" rx="27" ry="27"/>
</g>
<!-- 1990977732048&#45;&gt;1990977723696 -->
<g id="edge2" class="edge">
<title>1990977732048&#45;&gt;1990977723696</title>
<path fill="none" stroke="black" d="M161.17,-180C168.9,-180 177.14,-180 184.98,-180"/>
<polygon fill="black" stroke="black" points="184.97,-183.5 194.97,-180 184.97,-176.5 184.97,-183.5"/>
</g>
<!-- 1990978925488 -->
<g id="node2" class="node">
<title>1990978925488</title>
<polygon fill="white" stroke="black" points="359.75,-198 286.75,-198 286.75,-162 359.75,-162 359.75,-198"/>
<text text-anchor="middle" x="323.25" y="-174.97" font-family="Times New Roman,serif" font-size="12.00">Soil Testing</text>
</g>
<!-- 1990978916128 -->
<g id="node23" class="node">
<title>1990978916128</title>
<ellipse fill="white" stroke="black" cx="422.75" cy="-180" rx="27" ry="27"/>
</g>
<!-- 1990978925488&#45;&gt;1990978916128 -->
<g id="edge4" class="edge">
<title>1990978925488&#45;&gt;1990978916128</title>
<path fill="none" stroke="black" d="M360,-180C367.89,-180 376.27,-180 384.22,-180"/>
<polygon fill="black" stroke="black" points="383.96,-183.5 393.96,-180 383.96,-176.5 383.96,-183.5"/>
</g>
<!-- 1990978342448 -->
<g id="node3" class="node">
<title>1990978342448</title>
<polygon fill="white" stroke="black" points="572.25,-198 485.75,-198 485.75,-162 572.25,-162 572.25,-198"/>
<text text-anchor="middle" x="529" y="-174.97" font-family="Times New Roman,serif" font-size="12.00">Design Layout</text>
</g>
<!-- 1990977924672 -->
<g id="node24" class="node">
<title>1990977924672</title>
<ellipse fill="white" stroke="black" cx="635.25" cy="-180" rx="27" ry="27"/>
</g>
<!-- 1990978342448&#45;&gt;1990977924672 -->
<g id="edge6" class="edge">
<title>1990978342448&#45;&gt;1990977924672</title>
<path fill="none" stroke="black" d="M572.7,-180C580.62,-180 588.84,-180 596.59,-180"/>
<polygon fill="black" stroke="black" points="596.39,-183.5 606.39,-180 596.39,-176.5 596.39,-183.5"/>
</g>
<!-- 1990977924720 -->
<g id="node4" class="node">
<title>1990977924720</title>
<polygon fill="white" stroke="black" points="788.5,-198 698.25,-198 698.25,-162 788.5,-162 788.5,-198"/>
<text text-anchor="middle" x="743.38" y="-174.97" font-family="Times New Roman,serif" font-size="12.00">System Procure</text>
</g>
<!-- 1990977913920 -->
<g id="node25" class="node">
<title>1990977913920</title>
<ellipse fill="white" stroke="black" cx="851.5" cy="-216" rx="27" ry="27"/>
</g>
<!-- 1990977924720&#45;&gt;1990977913920 -->
<g id="edge8" class="edge">
<title>1990977924720&#45;&gt;1990977913920</title>
<path fill="none" stroke="black" d="M788.77,-195.06C797.36,-197.97 806.26,-200.99 814.54,-203.8"/>
<polygon fill="black" stroke="black" points="813.33,-207.09 823.92,-206.99 815.58,-200.46 813.33,-207.09"/>
</g>
<!-- 1990977391552 -->
<g id="node26" class="node">
<title>1990977391552</title>
<ellipse fill="white" stroke="black" cx="851.5" cy="-144" rx="27" ry="27"/>
</g>
<!-- 1990977924720&#45;&gt;1990977391552 -->
<g id="edge9" class="edge">
<title>1990977924720&#45;&gt;1990977391552</title>
<path fill="none" stroke="black" d="M788.77,-164.94C797.36,-162.03 806.26,-159.01 814.54,-156.2"/>
<polygon fill="black" stroke="black" points="815.58,-159.54 823.92,-153.01 813.33,-152.91 815.58,-159.54"/>
</g>
<!-- 1990977925824 -->
<g id="node5" class="node">
<title>1990977925824</title>
<polygon fill="white" stroke="black" points="1003.25,-234 914.5,-234 914.5,-198 1003.25,-198 1003.25,-234"/>
<text text-anchor="middle" x="958.88" y="-210.97" font-family="Times New Roman,serif" font-size="12.00">Install Modules</text>
</g>
<!-- 1990977918240 -->
<g id="node28" class="node">
<title>1990977918240</title>
<ellipse fill="white" stroke="black" cx="1066.25" cy="-216" rx="27" ry="27"/>
</g>
<!-- 1990977925824&#45;&gt;1990977918240 -->
<g id="edge13" class="edge">
<title>1990977925824&#45;&gt;1990977918240</title>
<path fill="none" stroke="black" d="M1003.65,-216C1011.61,-216 1019.85,-216 1027.61,-216"/>
<polygon fill="black" stroke="black" points="1027.42,-219.5 1037.42,-216 1027.42,-212.5 1027.42,-219.5"/>
</g>
<!-- 1990977389776 -->
<g id="node6" class="node">
<title>1990977389776</title>
<polygon fill="white" stroke="black" points="999.88,-162 917.88,-162 917.88,-126 999.88,-126 999.88,-162"/>
<text text-anchor="middle" x="958.88" y="-138.97" font-family="Times New Roman,serif" font-size="12.00">Mix Nutrients</text>
</g>
<!-- 1990981838720 -->
<g id="node27" class="node">
<title>1990981838720</title>
<ellipse fill="white" stroke="black" cx="1170.62" cy="-144" rx="27" ry="27"/>
</g>
<!-- 1990977389776&#45;&gt;1990981838720 -->
<g id="edge12" class="edge">
<title>1990977389776&#45;&gt;1990981838720</title>
<path fill="none" stroke="black" d="M1000.32,-144C1038.34,-144 1094.82,-144 1131.93,-144"/>
<polygon fill="black" stroke="black" points="1131.73,-147.5 1141.73,-144 1131.73,-140.5 1131.73,-147.5"/>
</g>
<!-- 1990977390208 -->
<g id="node7" class="node">
<title>1990977390208</title>
<polygon fill="white" stroke="black" points="1633.25,-217 1562.5,-217 1562.5,-181 1633.25,-181 1633.25,-217"/>
<text text-anchor="middle" x="1597.88" y="-193.97" font-family="Times New Roman,serif" font-size="12.00">Plant Seeds</text>
</g>
<!-- 1990977397888 -->
<g id="node29" class="node">
<title>1990977397888</title>
<ellipse fill="white" stroke="black" cx="1696.25" cy="-199" rx="27" ry="27"/>
</g>
<!-- 1990977390208&#45;&gt;1990977397888 -->
<g id="edge17" class="edge">
<title>1990977390208&#45;&gt;1990977397888</title>
<path fill="none" stroke="black" d="M1633.67,-199C1641.4,-199 1649.64,-199 1657.48,-199"/>
<polygon fill="black" stroke="black" points="1657.47,-202.5 1667.47,-199 1657.47,-195.5 1657.47,-202.5"/>
</g>
<!-- 1990977396832 -->
<g id="node8" class="node">
<title>1990977396832</title>
<polygon fill="white" stroke="black" points="1212,-234 1129.25,-234 1129.25,-198 1212,-198 1212,-234"/>
<text text-anchor="middle" x="1170.62" y="-210.97" font-family="Times New Roman,serif" font-size="12.00">Setup Sensors</text>
</g>
<!-- 1990977400672 -->
<g id="node30" class="node">
<title>1990977400672</title>
<ellipse fill="white" stroke="black" cx="1275" cy="-271" rx="27" ry="27"/>
</g>
<!-- 1990977396832&#45;&gt;1990977400672 -->
<g id="edge16" class="edge">
<title>1990977396832&#45;&gt;1990977400672</title>
<path fill="none" stroke="black" d="M1206,-234.47C1217.3,-240.54 1229.82,-247.27 1241.01,-253.28"/>
<polygon fill="black" stroke="black" points="1239.04,-256.19 1249.51,-257.84 1242.35,-250.03 1239.04,-256.19"/>
</g>
<!-- 1990977392368 -->
<g id="node31" class="node">
<title>1990977392368</title>
<ellipse fill="white" stroke="black" cx="1275" cy="-199" rx="27" ry="27"/>
</g>
<!-- 1990977396832&#45;&gt;1990977392368 -->
<g id="edge18" class="edge">
<title>1990977396832&#45;&gt;1990977392368</title>
<path fill="none" stroke="black" d="M1212.38,-209.23C1220.47,-207.89 1228.93,-206.48 1236.89,-205.16"/>
<polygon fill="black" stroke="black" points="1237.32,-208.64 1246.61,-203.55 1236.17,-201.73 1237.32,-208.64"/>
</g>
<!-- 1990977395248 -->
<g id="node9" class="node">
<title>1990977395248</title>
<polygon fill="white" stroke="black" points="1434.25,-217 1340.25,-217 1340.25,-181 1434.25,-181 1434.25,-217"/>
<text text-anchor="middle" x="1387.25" y="-193.97" font-family="Times New Roman,serif" font-size="12.00">Automate Water</text>
</g>
<!-- 1990981834016 -->
<g id="node34" class="node">
<title>1990981834016</title>
<ellipse fill="white" stroke="black" cx="1499.5" cy="-199" rx="27" ry="27"/>
</g>
<!-- 1990977395248&#45;&gt;1990981834016 -->
<g id="edge22" class="edge">
<title>1990977395248&#45;&gt;1990981834016</title>
<path fill="none" stroke="black" d="M1434.69,-199C1443.41,-199 1452.42,-199 1460.84,-199"/>
<polygon fill="black" stroke="black" points="1460.72,-202.5 1470.72,-199 1460.72,-195.5 1460.72,-202.5"/>
</g>
<!-- 1990980994256 -->
<g id="node10" class="node">
<title>1990980994256</title>
<polygon fill="white" stroke="black" points="1853.25,-194 1759.25,-194 1759.25,-158 1853.25,-158 1853.25,-194"/>
<text text-anchor="middle" x="1806.25" y="-170.97" font-family="Times New Roman,serif" font-size="12.00">Monitor Growth</text>
</g>
<!-- 1990981003040 -->
<g id="node32" class="node">
<title>1990981003040</title>
<ellipse fill="white" stroke="black" cx="1916.25" cy="-171" rx="27" ry="27"/>
</g>
<!-- 1990980994256&#45;&gt;1990981003040 -->
<g id="edge23" class="edge">
<title>1990980994256&#45;&gt;1990981003040</title>
<path fill="none" stroke="black" d="M1853.68,-173.85C1861.65,-173.48 1869.85,-173.1 1877.56,-172.75"/>
<polygon fill="black" stroke="black" points="1877.45,-176.25 1887.28,-172.3 1877.12,-169.26 1877.45,-176.25"/>
</g>
<!-- 1990977402208 -->
<g id="node11" class="node">
<title>1990977402208</title>
<polygon fill="white" stroke="black" points="1436.5,-289 1338,-289 1338,-253 1436.5,-253 1436.5,-289"/>
<text text-anchor="middle" x="1387.25" y="-265.98" font-family="Times New Roman,serif" font-size="12.00">Calibrate Climate</text>
</g>
<!-- 1990981841696 -->
<g id="node33" class="node">
<title>1990981841696</title>
<ellipse fill="white" stroke="black" cx="1499.5" cy="-271" rx="27" ry="27"/>
</g>
<!-- 1990977402208&#45;&gt;1990981841696 -->
<g id="edge24" class="edge">
<title>1990977402208&#45;&gt;1990981841696</title>
<path fill="none" stroke="black" d="M1436.93,-271C1444.88,-271 1453.01,-271 1460.65,-271"/>
<polygon fill="black" stroke="black" points="1460.64,-274.5 1470.64,-271 1460.64,-267.5 1460.64,-274.5"/>
</g>
<!-- 1990981000208 -->
<g id="node12" class="node">
<title>1990981000208</title>
<polygon fill="white" stroke="black" points="2060.5,-189 1979.25,-189 1979.25,-153 2060.5,-153 2060.5,-189"/>
<text text-anchor="middle" x="2019.88" y="-165.97" font-family="Times New Roman,serif" font-size="12.00">Analyze Data</text>
</g>
<!-- 1990980996368 -->
<g id="node35" class="node">
<title>1990980996368</title>
<ellipse fill="white" stroke="black" cx="2123.5" cy="-171" rx="27" ry="27"/>
</g>
<!-- 1990981000208&#45;&gt;1990980996368 -->
<g id="edge28" class="edge">
<title>1990981000208&#45;&gt;1990980996368</title>
<path fill="none" stroke="black" d="M2060.75,-171C2068.65,-171 2076.92,-171 2084.75,-171"/>
<polygon fill="black" stroke="black" points="2084.67,-174.5 2094.67,-171 2084.67,-167.5 2084.67,-174.5"/>
</g>
<!-- 1990980996800 -->
<g id="node13" class="node">
<title>1990980996800</title>
<polygon fill="white" stroke="black" points="2288.75,-189 2186.5,-189 2186.5,-153 2288.75,-153 2288.75,-189"/>
<text text-anchor="middle" x="2237.62" y="-165.97" font-family="Times New Roman,serif" font-size="12.00">Adjust Conditions</text>
</g>
<!-- 1990977398176 -->
<g id="node36" class="node">
<title>1990977398176</title>
<ellipse fill="white" stroke="black" cx="2351.75" cy="-171" rx="27" ry="27"/>
</g>
<!-- 1990980996800&#45;&gt;1990977398176 -->
<g id="edge30" class="edge">
<title>1990980996800&#45;&gt;1990977398176</title>
<path fill="none" stroke="black" d="M2289.11,-171C2297.22,-171 2305.48,-171 2313.21,-171"/>
<polygon fill="black" stroke="black" points="2312.94,-174.5 2322.94,-171 2312.94,-167.5 2312.94,-174.5"/>
</g>
<!-- 1990981007744 -->
<g id="node14" class="node">
<title>1990981007744</title>
<polygon fill="white" stroke="black" points="2508.75,-189 2414.75,-189 2414.75,-153 2508.75,-153 2508.75,-189"/>
<text text-anchor="middle" x="2461.75" y="-165.97" font-family="Times New Roman,serif" font-size="12.00">Monitor Growth</text>
</g>
<!-- 1990981007072 -->
<g id="node38" class="node">
<title>1990981007072</title>
<ellipse fill="white" stroke="black" cx="2571.75" cy="-171" rx="27" ry="27"/>
</g>
<!-- 1990981007744&#45;&gt;1990981007072 -->
<g id="edge34" class="edge">
<title>1990981007744&#45;&gt;1990981007072</title>
<path fill="none" stroke="black" d="M2509.18,-171C2517.06,-171 2525.16,-171 2532.78,-171"/>
<polygon fill="black" stroke="black" points="2532.77,-174.5 2542.77,-171 2532.77,-167.5 2532.77,-174.5"/>
</g>
<!-- 1990978707744 -->
<g id="node15" class="node">
<title>1990978707744</title>
<polygon fill="white" stroke="black" points="2503.88,-117 2419.62,-117 2419.62,-81 2503.88,-81 2503.88,-117"/>
<text text-anchor="middle" x="2461.75" y="-93.97" font-family="Times New Roman,serif" font-size="12.00">Harvest Crops</text>
</g>
<!-- 1990981840304 -->
<g id="node37" class="node">
<title>1990981840304</title>
<ellipse fill="white" stroke="black" cx="2571.75" cy="-99" rx="27" ry="27"/>
</g>
<!-- 1990978707744&#45;&gt;1990981840304 -->
<g id="edge33" class="edge">
<title>1990978707744&#45;&gt;1990981840304</title>
<path fill="none" stroke="black" d="M2504.2,-99C2513.73,-99 2523.82,-99 2533.18,-99"/>
<polygon fill="black" stroke="black" points="2533.04,-102.5 2543.04,-99 2533.04,-95.5 2533.04,-102.5"/>
</g>
<!-- 1990981837040 -->
<g id="node39" class="node">
<title>1990981837040</title>
<ellipse fill="white" stroke="black" cx="2571.75" cy="-27" rx="27" ry="27"/>
</g>
<!-- 1990978707744&#45;&gt;1990981837040 -->
<g id="edge35" class="edge">
<title>1990978707744&#45;&gt;1990981837040</title>
<path fill="none" stroke="black" d="M2490.28,-80.65C2505.29,-70.64 2523.92,-58.22 2539.48,-47.85"/>
<polygon fill="black" stroke="black" points="2541.07,-50.99 2547.45,-42.54 2537.19,-45.17 2541.07,-50.99"/>
</g>
<!-- 1990981838336 -->
<g id="node16" class="node">
<title>1990981838336</title>
<polygon fill="white" stroke="black" points="2726.5,-45 2634.75,-45 2634.75,-9 2726.5,-9 2726.5,-45"/>
<text text-anchor="middle" x="2680.62" y="-21.98" font-family="Times New Roman,serif" font-size="12.00">Market Produce</text>
</g>
<!-- 1990981840400 -->
<g id="node40" class="node">
<title>1990981840400</title>
<ellipse fill="white" stroke="black" cx="2789.5" cy="-27" rx="27" ry="27"/>
</g>
<!-- 1990981838336&#45;&gt;1990981840400 -->
<g id="edge39" class="edge">
<title>1990981838336&#45;&gt;1990981840400</title>
<path fill="none" stroke="black" d="M2726.95,-27C2734.96,-27 2743.22,-27 2750.98,-27"/>
<polygon fill="black" stroke="black" points="2750.78,-30.5 2760.78,-27 2750.78,-23.5 2750.78,-30.5"/>
</g>
<!-- 1990981003808 -->
<g id="node17" class="node">
<title>1990981003808</title>
<polygon fill="white" stroke="black" points="2721.25,-189 2640,-189 2640,-153 2721.25,-153 2721.25,-189"/>
<text text-anchor="middle" x="2680.62" y="-165.97" font-family="Times New Roman,serif" font-size="12.00">Analyze Data</text>
</g>
<!-- 1990978712496 -->
<g id="node41" class="node">
<title>1990978712496</title>
<ellipse fill="white" stroke="black" cx="2789.5" cy="-171" rx="27" ry="27"/>
</g>
<!-- 1990981003808&#45;&gt;1990978712496 -->
<g id="edge41" class="edge">
<title>1990981003808&#45;&gt;1990978712496</title>
<path fill="none" stroke="black" d="M2721.73,-171C2731.22,-171 2741.32,-171 2750.71,-171"/>
<polygon fill="black" stroke="black" points="2750.61,-174.5 2760.61,-171 2750.61,-167.5 2750.61,-174.5"/>
</g>
<!-- 1990981839200 -->
<g id="node18" class="node">
<title>1990981839200</title>
<polygon fill="white" stroke="black" points="2725.38,-117 2635.88,-117 2635.88,-81 2725.38,-81 2725.38,-117"/>
<text text-anchor="middle" x="2680.62" y="-93.97" font-family="Times New Roman,serif" font-size="12.00">Waste Disposal</text>
</g>
<!-- 1990981839824 -->
<g id="node42" class="node">
<title>1990981839824</title>
<ellipse fill="white" stroke="black" cx="2789.5" cy="-99" rx="27" ry="27"/>
</g>
<!-- 1990981839200&#45;&gt;1990981839824 -->
<g id="edge40" class="edge">
<title>1990981839200&#45;&gt;1990981839824</title>
<path fill="none" stroke="black" d="M2725.71,-99C2734.06,-99 2742.72,-99 2750.84,-99"/>
<polygon fill="black" stroke="black" points="2750.75,-102.5 2760.75,-99 2750.75,-95.5 2750.75,-102.5"/>
</g>
<!-- 1990978703568 -->
<g id="node19" class="node">
<title>1990978703568</title>
<polygon fill="white" stroke="black" points="2954.75,-216 2852.5,-216 2852.5,-180 2954.75,-180 2954.75,-216"/>
<text text-anchor="middle" x="2903.62" y="-192.97" font-family="Times New Roman,serif" font-size="12.00">Adjust Conditions</text>
</g>
<!-- 1990978703568&#45;&gt;1990977397888 -->
<g id="edge45" class="edge">
<title>1990978703568&#45;&gt;1990977397888</title>
<path fill="none" stroke="black" d="M2852.38,-208.03C2807.74,-216.06 2740.6,-226 2681.62,-226 1915.25,-226 1915.25,-226 1915.25,-226 1851.15,-226 1777.24,-214.36 1734.04,-206.37"/>
<polygon fill="black" stroke="black" points="1734.93,-202.97 1724.45,-204.55 1733.62,-209.85 1734.93,-202.97"/>
</g>
<!-- 1990977723984 -->
<g id="node20" class="node">
<title>1990977723984</title>
<polygon fill="black" stroke="black" points="2930.62,-81 2876.62,-81 2876.62,-45 2930.62,-45 2930.62,-81"/>
</g>
<!-- 1990975750896 -->
<g id="node43" class="node">
<title>1990975750896</title>
<ellipse fill="white" stroke="black" cx="3021.75" cy="-63" rx="27" ry="27"/>
<ellipse fill="none" stroke="black" cx="3021.75" cy="-63" rx="31" ry="31"/>
<text text-anchor="start" x="3005.25" y="-47.6" font-family="Times New Roman,serif" font-size="32.00">■</text>
</g>
<!-- 1990977723984&#45;&gt;1990975750896 -->
<g id="edge46" class="edge">
<title>1990977723984&#45;&gt;1990975750896</title>
<path fill="none" stroke="black" d="M2930.98,-63C2945.19,-63 2963.07,-63 2979.12,-63"/>
<polygon fill="black" stroke="black" points="2978.89,-66.5 2988.89,-63 2978.89,-59.5 2978.89,-66.5"/>
</g>
<!-- 1990975763712 -->
<g id="node21" class="node">
<title>1990975763712</title>
<ellipse fill="white" stroke="black" cx="27" cy="-180" rx="27" ry="27"/>
<text text-anchor="start" x="9.75" y="-162.7" font-family="Times New Roman,serif" font-size="34.00">●</text>
</g>
<!-- 1990975763712&#45;&gt;1990977732048 -->
<g id="edge1" class="edge">
<title>1990975763712&#45;&gt;1990977732048</title>
<path fill="none" stroke="black" d="M54.33,-180C61.76,-180 70.06,-180 78.28,-180"/>
<polygon fill="black" stroke="black" points="78.24,-183.5 88.24,-180 78.24,-176.5 78.24,-183.5"/>
</g>
<!-- 1990977723696&#45;&gt;1990978925488 -->
<g id="edge3" class="edge">
<title>1990977723696&#45;&gt;1990978925488</title>
<path fill="none" stroke="black" d="M251.13,-180C258.49,-180 266.72,-180 274.9,-180"/>
<polygon fill="black" stroke="black" points="274.81,-183.5 284.81,-180 274.81,-176.5 274.81,-183.5"/>
</g>
<!-- 1990978916128&#45;&gt;1990978342448 -->
<g id="edge5" class="edge">
<title>1990978916128&#45;&gt;1990978342448</title>
<path fill="none" stroke="black" d="M450.06,-180C457.44,-180 465.74,-180 474.11,-180"/>
<polygon fill="black" stroke="black" points="473.96,-183.5 483.96,-180 473.96,-176.5 473.96,-183.5"/>
</g>
<!-- 1990977924672&#45;&gt;1990977924720 -->
<g id="edge7" class="edge">
<title>1990977924672&#45;&gt;1990977924720</title>
<path fill="none" stroke="black" d="M662.48,-180C669.83,-180 678.1,-180 686.47,-180"/>
<polygon fill="black" stroke="black" points="686.34,-183.5 696.34,-180 686.34,-176.5 686.34,-183.5"/>
</g>
<!-- 1990977913920&#45;&gt;1990977925824 -->
<g id="edge11" class="edge">
<title>1990977913920&#45;&gt;1990977925824</title>
<path fill="none" stroke="black" d="M878.82,-216C886.19,-216 894.5,-216 902.88,-216"/>
<polygon fill="black" stroke="black" points="902.77,-219.5 912.77,-216 902.77,-212.5 902.77,-219.5"/>
</g>
<!-- 1990977391552&#45;&gt;1990977389776 -->
<g id="edge10" class="edge">
<title>1990977391552&#45;&gt;1990977389776</title>
<path fill="none" stroke="black" d="M878.82,-144C887.14,-144 896.64,-144 906.11,-144"/>
<polygon fill="black" stroke="black" points="906.04,-147.5 916.04,-144 906.03,-140.5 906.04,-147.5"/>
</g>
<!-- 1990981838720&#45;&gt;1990977390208 -->
<g id="edge14" class="edge">
<title>1990981838720&#45;&gt;1990977390208</title>
<path fill="none" stroke="black" d="M1197.59,-141.75C1257.03,-137.39 1407.05,-130.82 1526.5,-163 1537.12,-165.86 1547.99,-170.46 1557.91,-175.43"/>
<polygon fill="black" stroke="black" points="1556.04,-178.4 1566.52,-179.97 1559.31,-172.21 1556.04,-178.4"/>
</g>
<!-- 1990977918240&#45;&gt;1990977396832 -->
<g id="edge15" class="edge">
<title>1990977918240&#45;&gt;1990977396832</title>
<path fill="none" stroke="black" d="M1093.61,-216C1101.03,-216 1109.36,-216 1117.71,-216"/>
<polygon fill="black" stroke="black" points="1117.52,-219.5 1127.52,-216 1117.52,-212.5 1117.52,-219.5"/>
</g>
<!-- 1990977397888&#45;&gt;1990980994256 -->
<g id="edge20" class="edge">
<title>1990977397888&#45;&gt;1990980994256</title>
<path fill="none" stroke="black" d="M1723.12,-193.49C1730.67,-191.88 1739.23,-190.06 1747.91,-188.21"/>
<polygon fill="black" stroke="black" points="1748.37,-191.69 1757.42,-186.19 1746.91,-184.85 1748.37,-191.69"/>
</g>
<!-- 1990977400672&#45;&gt;1990977402208 -->
<g id="edge19" class="edge">
<title>1990977400672&#45;&gt;1990977402208</title>
<path fill="none" stroke="black" d="M1302.41,-271C1309.68,-271 1317.87,-271 1326.22,-271"/>
<polygon fill="black" stroke="black" points="1326.11,-274.5 1336.11,-271 1326.11,-267.5 1326.11,-274.5"/>
</g>
<!-- 1990977392368&#45;&gt;1990977395248 -->
<g id="edge21" class="edge">
<title>1990977392368&#45;&gt;1990977395248</title>
<path fill="none" stroke="black" d="M1302.41,-199C1310.29,-199 1319.26,-199 1328.33,-199"/>
<polygon fill="black" stroke="black" points="1328.29,-202.5 1338.29,-199 1328.29,-195.5 1328.29,-202.5"/>
</g>
<!-- 1990981003040&#45;&gt;1990981000208 -->
<g id="edge27" class="edge">
<title>1990981003040&#45;&gt;1990981000208</title>
<path fill="none" stroke="black" d="M1943.69,-171C1950.96,-171 1959.11,-171 1967.28,-171"/>
<polygon fill="black" stroke="black" points="1967.26,-174.5 1977.26,-171 1967.26,-167.5 1967.26,-174.5"/>
</g>
<!-- 1990981841696&#45;&gt;1990977390208 -->
<g id="edge25" class="edge">
<title>1990981841696&#45;&gt;1990977390208</title>
<path fill="none" stroke="black" d="M1521.41,-255.38C1533.67,-246.22 1549.45,-234.43 1563.4,-224.01"/>
<polygon fill="black" stroke="black" points="1565.12,-227.09 1571.04,-218.3 1560.93,-221.48 1565.12,-227.09"/>
</g>
<!-- 1990981834016&#45;&gt;1990977390208 -->
<g id="edge26" class="edge">
<title>1990981834016&#45;&gt;1990977390208</title>
<path fill="none" stroke="black" d="M1526.83,-199C1534.26,-199 1542.56,-199 1550.78,-199"/>
<polygon fill="black" stroke="black" points="1550.74,-202.5 1560.74,-199 1550.74,-195.5 1550.74,-202.5"/>
</g>
<!-- 1990980996368&#45;&gt;1990980996800 -->
<g id="edge29" class="edge">
<title>1990980996368&#45;&gt;1990980996800</title>
<path fill="none" stroke="black" d="M2150.79,-171C2158.17,-171 2166.52,-171 2175.04,-171"/>
<polygon fill="black" stroke="black" points="2174.77,-174.5 2184.77,-171 2174.77,-167.5 2174.77,-174.5"/>
</g>
<!-- 1990977398176&#45;&gt;1990981007744 -->
<g id="edge31" class="edge">
<title>1990977398176&#45;&gt;1990981007744</title>
<path fill="none" stroke="black" d="M2379.17,-171C2386.47,-171 2394.69,-171 2403.02,-171"/>
<polygon fill="black" stroke="black" points="2402.88,-174.5 2412.88,-171 2402.88,-167.5 2402.88,-174.5"/>
</g>
<!-- 1990977398176&#45;&gt;1990978707744 -->
<g id="edge32" class="edge">
<title>1990977398176&#45;&gt;1990978707744</title>
<path fill="none" stroke="black" d="M2374.87,-156.26C2389,-146.83 2407.68,-134.38 2424,-123.5"/>
<polygon fill="black" stroke="black" points="2425.65,-126.6 2432.03,-118.15 2421.77,-120.78 2425.65,-126.6"/>
</g>
<!-- 1990981840304&#45;&gt;1990981839200 -->
<g id="edge36" class="edge">
<title>1990981840304&#45;&gt;1990981839200</title>
<path fill="none" stroke="black" d="M2599.17,-99C2606.82,-99 2615.47,-99 2624.2,-99"/>
<polygon fill="black" stroke="black" points="2624.11,-102.5 2634.11,-99 2624.11,-95.5 2624.11,-102.5"/>
</g>
<!-- 1990981007072&#45;&gt;1990981003808 -->
<g id="edge37" class="edge">
<title>1990981007072&#45;&gt;1990981003808</title>
<path fill="none" stroke="black" d="M2599.17,-171C2608.06,-171 2618.31,-171 2628.45,-171"/>
<polygon fill="black" stroke="black" points="2628.26,-174.5 2638.26,-171 2628.26,-167.5 2628.26,-174.5"/>
</g>
<!-- 1990981837040&#45;&gt;1990981838336 -->
<g id="edge38" class="edge">
<title>1990981837040&#45;&gt;1990981838336</title>
<path fill="none" stroke="black" d="M2599.17,-27C2606.48,-27 2614.7,-27 2623.03,-27"/>
<polygon fill="black" stroke="black" points="2622.86,-30.5 2632.86,-27 2622.86,-23.5 2622.86,-30.5"/>
</g>
<!-- 1990981840400&#45;&gt;1990977723984 -->
<g id="edge42" class="edge">
<title>1990981840400&#45;&gt;1990977723984</title>
<path fill="none" stroke="black" d="M2815.66,-35.08C2830.35,-39.8 2849.16,-45.83 2865.52,-51.09"/>
<polygon fill="black" stroke="black" points="2864.34,-54.39 2874.94,-54.11 2866.48,-47.72 2864.34,-54.39"/>
</g>
<!-- 1990978712496&#45;&gt;1990978703568 -->
<g id="edge43" class="edge">
<title>1990978712496&#45;&gt;1990978703568</title>
<path fill="none" stroke="black" d="M2816.22,-177.19C2823.77,-179.01 2832.37,-181.08 2841.14,-183.19"/>
<polygon fill="black" stroke="black" points="2840.27,-186.59 2850.81,-185.52 2841.91,-179.78 2840.27,-186.59"/>
</g>
<!-- 1990981839824&#45;&gt;1990977723984 -->
<g id="edge44" class="edge">
<title>1990981839824&#45;&gt;1990977723984</title>
<path fill="none" stroke="black" d="M2815.66,-90.92C2830.35,-86.2 2849.16,-80.17 2865.52,-74.91"/>
<polygon fill="black" stroke="black" points="2866.48,-78.28 2874.94,-71.89 2864.34,-71.61 2866.48,-78.28"/>
</g>
</g>
</svg>
