<?xml version="1.0" encoding="UTF-8" standalone="no"?>
<!DOCTYPE svg PUBLIC "-//W3C//DTD SVG 1.1//EN"
 "http://www.w3.org/Graphics/SVG/1.1/DTD/svg11.dtd">
<!-- Generated by graphviz version 11.0.0 (20240428.1522)
 -->
<!-- Title: imdf_net_1754051810.6909406 Pages: 1 -->
<svg width="2662pt" height="266pt"
 viewBox="0.00 0.00 2661.75 266.00" xmlns="http://www.w3.org/2000/svg" xmlns:xlink="http://www.w3.org/1999/xlink">
<g id="graph0" class="graph" transform="scale(1 1) rotate(0) translate(4 262)">
<title>imdf_net_1754051810.6909406</title>
<polygon fill="white" stroke="none" points="-4,4 -4,-262 2657.75,-262 2657.75,4 -4,4"/>
<!-- 1990980803408 -->
<g id="node1" class="node">
<title>1990980803408</title>
<polygon fill="white" stroke="black" points="193,-213 90,-213 90,-177 193,-177 193,-213"/>
<text text-anchor="middle" x="141.5" y="-189.97" font-family="Times New Roman,serif" font-size="12.00">Launch Challenge</text>
</g>
<!-- 1990978087456 -->
<g id="node19" class="node">
<title>1990978087456</title>
<ellipse fill="white" stroke="black" cx="256" cy="-195" rx="27" ry="27"/>
</g>
<!-- 1990980803408&#45;&gt;1990978087456 -->
<g id="edge2" class="edge">
<title>1990980803408&#45;&gt;1990978087456</title>
<path fill="none" stroke="black" d="M193.48,-195C201.5,-195 209.65,-195 217.29,-195"/>
<polygon fill="black" stroke="black" points="217.27,-198.5 227.27,-195 217.27,-191.5 217.27,-198.5"/>
</g>
<!-- 1990980512384 -->
<g id="node2" class="node">
<title>1990980512384</title>
<polygon fill="white" stroke="black" points="396.5,-213 319,-213 319,-177 396.5,-177 396.5,-213"/>
<text text-anchor="middle" x="357.75" y="-189.97" font-family="Times New Roman,serif" font-size="12.00">Collect Ideas</text>
</g>
<!-- 1990980514592 -->
<g id="node20" class="node">
<title>1990980514592</title>
<ellipse fill="white" stroke="black" cx="459.5" cy="-195" rx="27" ry="27"/>
</g>
<!-- 1990980512384&#45;&gt;1990980514592 -->
<g id="edge4" class="edge">
<title>1990980512384&#45;&gt;1990980514592</title>
<path fill="none" stroke="black" d="M396.75,-195C404.57,-195 412.81,-195 420.63,-195"/>
<polygon fill="black" stroke="black" points="420.55,-198.5 430.55,-195 420.55,-191.5 420.55,-198.5"/>
</g>
<!-- 1990980514064 -->
<g id="node3" class="node">
<title>1990980514064</title>
<polygon fill="white" stroke="black" points="630.75,-213 522.5,-213 522.5,-177 630.75,-177 630.75,-213"/>
<text text-anchor="middle" x="576.62" y="-189.97" font-family="Times New Roman,serif" font-size="12.00">Community Voting</text>
</g>
<!-- 1990977399424 -->
<g id="node21" class="node">
<title>1990977399424</title>
<ellipse fill="white" stroke="black" cx="693.75" cy="-195" rx="27" ry="27"/>
</g>
<!-- 1990980514064&#45;&gt;1990977399424 -->
<g id="edge6" class="edge">
<title>1990980514064&#45;&gt;1990977399424</title>
<path fill="none" stroke="black" d="M631.14,-195C639.16,-195 647.28,-195 654.88,-195"/>
<polygon fill="black" stroke="black" points="654.79,-198.5 664.79,-195 654.79,-191.5 654.79,-198.5"/>
</g>
<!-- 1990977395872 -->
<g id="node4" class="node">
<title>1990977395872</title>
<polygon fill="white" stroke="black" points="844,-213 756.75,-213 756.75,-177 844,-177 844,-213"/>
<text text-anchor="middle" x="800.38" y="-189.97" font-family="Times New Roman,serif" font-size="12.00">Expert Review</text>
</g>
<!-- 1990978545248 -->
<g id="node22" class="node">
<title>1990978545248</title>
<ellipse fill="white" stroke="black" cx="907" cy="-195" rx="27" ry="27"/>
</g>
<!-- 1990977395872&#45;&gt;1990978545248 -->
<g id="edge8" class="edge">
<title>1990977395872&#45;&gt;1990978545248</title>
<path fill="none" stroke="black" d="M844.23,-195C852.18,-195 860.42,-195 868.2,-195"/>
<polygon fill="black" stroke="black" points="868.04,-198.5 878.04,-195 868.04,-191.5 868.04,-198.5"/>
</g>
<!-- 1990978536176 -->
<g id="node5" class="node">
<title>1990978536176</title>
<polygon fill="white" stroke="black" points="1057.25,-213 970,-213 970,-177 1057.25,-177 1057.25,-213"/>
<text text-anchor="middle" x="1013.62" y="-189.97" font-family="Times New Roman,serif" font-size="12.00">Select Winners</text>
</g>
<!-- 1990978536704 -->
<g id="node23" class="node">
<title>1990978536704</title>
<ellipse fill="white" stroke="black" cx="1120.25" cy="-231" rx="27" ry="27"/>
</g>
<!-- 1990978536176&#45;&gt;1990978536704 -->
<g id="edge10" class="edge">
<title>1990978536176&#45;&gt;1990978536704</title>
<path fill="none" stroke="black" d="M1057.48,-209.75C1066.19,-212.74 1075.27,-215.87 1083.69,-218.76"/>
<polygon fill="black" stroke="black" points="1082.28,-221.98 1092.88,-221.93 1084.56,-215.36 1082.28,-221.98"/>
</g>
<!-- 1990981167936 -->
<g id="node24" class="node">
<title>1990981167936</title>
<ellipse fill="white" stroke="black" cx="1120.25" cy="-159" rx="27" ry="27"/>
</g>
<!-- 1990978536176&#45;&gt;1990981167936 -->
<g id="edge11" class="edge">
<title>1990978536176&#45;&gt;1990981167936</title>
<path fill="none" stroke="black" d="M1057.48,-180.25C1066.19,-177.26 1075.27,-174.13 1083.69,-171.24"/>
<polygon fill="black" stroke="black" points="1084.56,-174.64 1092.88,-168.07 1082.28,-168.02 1084.56,-174.64"/>
</g>
<!-- 1990981172928 -->
<g id="node6" class="node">
<title>1990981172928</title>
<polygon fill="white" stroke="black" points="1283.25,-249 1193,-249 1193,-213 1283.25,-213 1283.25,-249"/>
<text text-anchor="middle" x="1238.12" y="-225.97" font-family="Times New Roman,serif" font-size="12.00">Resource Align</text>
</g>
<!-- 1990975989392 -->
<g id="node26" class="node">
<title>1990975989392</title>
<ellipse fill="white" stroke="black" cx="1356" cy="-231" rx="27" ry="27"/>
</g>
<!-- 1990981172928&#45;&gt;1990975989392 -->
<g id="edge15" class="edge">
<title>1990981172928&#45;&gt;1990975989392</title>
<path fill="none" stroke="black" d="M1283.59,-231C1294.75,-231 1306.61,-231 1317.39,-231"/>
<polygon fill="black" stroke="black" points="1317.07,-234.5 1327.07,-231 1317.07,-227.5 1317.07,-234.5"/>
</g>
<!-- 1990981171776 -->
<g id="node7" class="node">
<title>1990981171776</title>
<polygon fill="white" stroke="black" points="1293,-177 1183.25,-177 1183.25,-141 1293,-141 1293,-177"/>
<text text-anchor="middle" x="1238.12" y="-153.97" font-family="Times New Roman,serif" font-size="12.00">Contributor Engage</text>
</g>
<!-- 1990975983488 -->
<g id="node25" class="node">
<title>1990975983488</title>
<ellipse fill="white" stroke="black" cx="1356" cy="-159" rx="27" ry="27"/>
</g>
<!-- 1990981171776&#45;&gt;1990975983488 -->
<g id="edge14" class="edge">
<title>1990981171776&#45;&gt;1990975983488</title>
<path fill="none" stroke="black" d="M1293.33,-159C1301.37,-159 1309.51,-159 1317.12,-159"/>
<polygon fill="black" stroke="black" points="1317.04,-162.5 1327.04,-159 1317.04,-155.5 1317.04,-162.5"/>
</g>
<!-- 1990981159152 -->
<g id="node8" class="node">
<title>1990981159152</title>
<polygon fill="black" stroke="black" points="1473,-213 1419,-213 1419,-177 1473,-177 1473,-213"/>
</g>
<!-- 1990981158816 -->
<g id="node27" class="node">
<title>1990981158816</title>
<ellipse fill="white" stroke="black" cx="1536" cy="-195" rx="27" ry="27"/>
</g>
<!-- 1990981159152&#45;&gt;1990981158816 -->
<g id="edge18" class="edge">
<title>1990981159152&#45;&gt;1990981158816</title>
<path fill="none" stroke="black" d="M1473.4,-195C1480.89,-195 1489.18,-195 1497.2,-195"/>
<polygon fill="black" stroke="black" points="1497.1,-198.5 1507.1,-195 1497.1,-191.5 1497.1,-198.5"/>
</g>
<!-- 1990981165632 -->
<g id="node9" class="node">
<title>1990981165632</title>
<polygon fill="white" stroke="black" points="1690,-190 1599,-190 1599,-154 1690,-154 1690,-190"/>
<text text-anchor="middle" x="1644.5" y="-166.97" font-family="Times New Roman,serif" font-size="12.00">Prototype Build</text>
</g>
<!-- 1990981171008 -->
<g id="node28" class="node">
<title>1990981171008</title>
<ellipse fill="white" stroke="black" cx="1753" cy="-163" rx="27" ry="27"/>
</g>
<!-- 1990981165632&#45;&gt;1990981171008 -->
<g id="edge20" class="edge">
<title>1990981165632&#45;&gt;1990981171008</title>
<path fill="none" stroke="black" d="M1690.36,-168.21C1698.36,-167.53 1706.62,-166.83 1714.4,-166.18"/>
<polygon fill="black" stroke="black" points="1714.55,-169.68 1724.22,-165.35 1713.96,-162.7 1714.55,-169.68"/>
</g>
<!-- 1990981158912 -->
<g id="node10" class="node">
<title>1990981158912</title>
<polygon fill="white" stroke="black" points="1907.38,-185 1817.12,-185 1817.12,-149 1907.38,-149 1907.38,-185"/>
<text text-anchor="middle" x="1862.25" y="-161.97" font-family="Times New Roman,serif" font-size="12.00">Feedback Loop</text>
</g>
<!-- 1990980122192 -->
<g id="node30" class="node">
<title>1990980122192</title>
<ellipse fill="white" stroke="black" cx="1971.5" cy="-171" rx="27" ry="27"/>
</g>
<!-- 1990981158912&#45;&gt;1990980122192 -->
<g id="edge23" class="edge">
<title>1990981158912&#45;&gt;1990980122192</title>
<path fill="none" stroke="black" d="M1907.8,-168.66C1916.08,-168.97 1924.65,-169.29 1932.7,-169.59"/>
<polygon fill="black" stroke="black" points="1932.39,-173.08 1942.51,-169.96 1932.65,-166.09 1932.39,-173.08"/>
</g>
<!-- 1990969800176 -->
<g id="node11" class="node">
<title>1990969800176</title>
<polygon fill="white" stroke="black" points="1908.5,-117 1816,-117 1816,-81 1908.5,-81 1908.5,-117"/>
<text text-anchor="middle" x="1862.25" y="-93.97" font-family="Times New Roman,serif" font-size="12.00">Final Validation</text>
</g>
<!-- 1990978548128 -->
<g id="node29" class="node">
<title>1990978548128</title>
<ellipse fill="white" stroke="black" cx="1971.5" cy="-99" rx="27" ry="27"/>
</g>
<!-- 1990969800176&#45;&gt;1990978548128 -->
<g id="edge25" class="edge">
<title>1990969800176&#45;&gt;1990978548128</title>
<path fill="none" stroke="black" d="M1908.73,-99C1916.77,-99 1925.06,-99 1932.85,-99"/>
<polygon fill="black" stroke="black" points="1932.69,-102.5 1942.69,-99 1932.69,-95.5 1932.69,-102.5"/>
</g>
<!-- 1990969794272 -->
<g id="node31" class="node">
<title>1990969794272</title>
<ellipse fill="white" stroke="black" cx="1971.5" cy="-27" rx="27" ry="27"/>
</g>
<!-- 1990969800176&#45;&gt;1990969794272 -->
<g id="edge24" class="edge">
<title>1990969800176&#45;&gt;1990969794272</title>
<path fill="none" stroke="black" d="M1890.59,-80.65C1905.5,-70.64 1924,-58.22 1939.45,-47.85"/>
<polygon fill="black" stroke="black" points="1941,-51.02 1947.35,-42.54 1937.1,-45.21 1941,-51.02"/>
</g>
<!-- 1990980109952 -->
<g id="node12" class="node">
<title>1990980109952</title>
<polygon fill="white" stroke="black" points="2131.5,-216 2034.5,-216 2034.5,-180 2131.5,-180 2131.5,-216"/>
<text text-anchor="middle" x="2083" y="-192.97" font-family="Times New Roman,serif" font-size="12.00">Revise Prototype</text>
</g>
<!-- 1990980109952&#45;&gt;1990981158816 -->
<g id="edge29" class="edge">
<title>1990980109952&#45;&gt;1990981158816</title>
<path fill="none" stroke="black" d="M2034,-207.71C1989.83,-215.8 1922.4,-226 1863.25,-226 1752,-226 1752,-226 1752,-226 1688.92,-226 1616.48,-212.76 1573.84,-203.59"/>
<polygon fill="black" stroke="black" points="1574.64,-200.18 1564.12,-201.45 1573.13,-207.02 1574.64,-200.18"/>
</g>
<!-- 1990978547744 -->
<g id="node13" class="node">
<title>1990978547744</title>
<polygon fill="white" stroke="black" points="2131.12,-117 2034.88,-117 2034.88,-81 2131.12,-81 2131.12,-117"/>
<text text-anchor="middle" x="2083" y="-93.97" font-family="Times New Roman,serif" font-size="12.00">Scale Production</text>
</g>
<!-- 1990978539632 -->
<g id="node33" class="node">
<title>1990978539632</title>
<ellipse fill="white" stroke="black" cx="2194.5" cy="-99" rx="27" ry="27"/>
</g>
<!-- 1990978547744&#45;&gt;1990978539632 -->
<g id="edge30" class="edge">
<title>1990978547744&#45;&gt;1990978539632</title>
<path fill="none" stroke="black" d="M2131.39,-99C2139.53,-99 2147.89,-99 2155.73,-99"/>
<polygon fill="black" stroke="black" points="2155.63,-102.5 2165.63,-99 2155.63,-95.5 2155.63,-102.5"/>
</g>
<!-- 1990969798592 -->
<g id="node14" class="node">
<title>1990969798592</title>
<polygon fill="white" stroke="black" points="2121.38,-45 2044.62,-45 2044.62,-9 2121.38,-9 2121.38,-45"/>
<text text-anchor="middle" x="2083" y="-21.98" font-family="Times New Roman,serif" font-size="12.00">Legal Check</text>
</g>
<!-- 1990969793888 -->
<g id="node32" class="node">
<title>1990969793888</title>
<ellipse fill="white" stroke="black" cx="2194.5" cy="-27" rx="27" ry="27"/>
</g>
<!-- 1990969798592&#45;&gt;1990969793888 -->
<g id="edge31" class="edge">
<title>1990969798592&#45;&gt;1990969793888</title>
<path fill="none" stroke="black" d="M2121.68,-27C2132.68,-27 2144.69,-27 2155.69,-27"/>
<polygon fill="black" stroke="black" points="2155.63,-30.5 2165.63,-27 2155.63,-23.5 2155.63,-30.5"/>
</g>
<!-- 1990978544912 -->
<g id="node15" class="node">
<title>1990978544912</title>
<polygon fill="white" stroke="black" points="2322.62,-45 2265.38,-45 2265.38,-9 2322.62,-9 2322.62,-45"/>
<text text-anchor="middle" x="2294" y="-21.98" font-family="Times New Roman,serif" font-size="12.00">IP Filing</text>
</g>
<!-- 1990975991936 -->
<g id="node34" class="node">
<title>1990975991936</title>
<ellipse fill="white" stroke="black" cx="2393.5" cy="-27" rx="27" ry="27"/>
</g>
<!-- 1990978544912&#45;&gt;1990975991936 -->
<g id="edge35" class="edge">
<title>1990978544912&#45;&gt;1990975991936</title>
<path fill="none" stroke="black" d="M2322.94,-27C2332.94,-27 2344.38,-27 2355.05,-27"/>
<polygon fill="black" stroke="black" points="2354.72,-30.5 2364.72,-27 2354.72,-23.5 2354.72,-30.5"/>
</g>
<!-- 1990978548416 -->
<g id="node16" class="node">
<title>1990978548416</title>
<polygon fill="white" stroke="black" points="2330.5,-117 2257.5,-117 2257.5,-81 2330.5,-81 2330.5,-117"/>
<text text-anchor="middle" x="2294" y="-93.97" font-family="Times New Roman,serif" font-size="12.00">Market Test</text>
</g>
<!-- 1990975994000 -->
<g id="node35" class="node">
<title>1990975994000</title>
<ellipse fill="white" stroke="black" cx="2393.5" cy="-99" rx="27" ry="27"/>
</g>
<!-- 1990978548416&#45;&gt;1990975994000 -->
<g id="edge34" class="edge">
<title>1990978548416&#45;&gt;1990975994000</title>
<path fill="none" stroke="black" d="M2330.75,-99C2338.64,-99 2347.02,-99 2354.97,-99"/>
<polygon fill="black" stroke="black" points="2354.71,-102.5 2364.71,-99 2354.71,-95.5 2354.71,-102.5"/>
</g>
<!-- 1990978542368 -->
<g id="node17" class="node">
<title>1990978542368</title>
<polygon fill="white" stroke="black" points="2555.75,-81 2456.5,-81 2456.5,-45 2555.75,-45 2555.75,-81"/>
<text text-anchor="middle" x="2506.12" y="-57.98" font-family="Times New Roman,serif" font-size="12.00">Roadmap Update</text>
</g>
<!-- 1990980570288 -->
<g id="node36" class="node">
<title>1990980570288</title>
<ellipse fill="white" stroke="black" cx="2622.75" cy="-63" rx="27" ry="27"/>
<ellipse fill="none" stroke="black" cx="2622.75" cy="-63" rx="31" ry="31"/>
<text text-anchor="start" x="2606.25" y="-47.6" font-family="Times New Roman,serif" font-size="32.00">■</text>
</g>
<!-- 1990978542368&#45;&gt;1990980570288 -->
<g id="edge38" class="edge">
<title>1990978542368&#45;&gt;1990980570288</title>
<path fill="none" stroke="black" d="M2556.07,-63C2564.07,-63 2572.29,-63 2580.1,-63"/>
<polygon fill="black" stroke="black" points="2580.02,-66.5 2590.02,-63 2580.02,-59.5 2580.02,-66.5"/>
</g>
<!-- 1990980571440 -->
<g id="node18" class="node">
<title>1990980571440</title>
<ellipse fill="white" stroke="black" cx="27" cy="-195" rx="27" ry="27"/>
<text text-anchor="start" x="9.75" y="-177.7" font-family="Times New Roman,serif" font-size="34.00">●</text>
</g>
<!-- 1990980571440&#45;&gt;1990980803408 -->
<g id="edge1" class="edge">
<title>1990980571440&#45;&gt;1990980803408</title>
<path fill="none" stroke="black" d="M54.38,-195C61.61,-195 69.77,-195 78.11,-195"/>
<polygon fill="black" stroke="black" points="78.02,-198.5 88.02,-195 78.02,-191.5 78.02,-198.5"/>
</g>
<!-- 1990978087456&#45;&gt;1990980512384 -->
<g id="edge3" class="edge">
<title>1990978087456&#45;&gt;1990980512384</title>
<path fill="none" stroke="black" d="M283.47,-195C290.77,-195 298.93,-195 307.08,-195"/>
<polygon fill="black" stroke="black" points="307,-198.5 317,-195 307,-191.5 307,-198.5"/>
</g>
<!-- 1990980514592&#45;&gt;1990980514064 -->
<g id="edge5" class="edge">
<title>1990980514592&#45;&gt;1990980514064</title>
<path fill="none" stroke="black" d="M486.91,-195C494.12,-195 502.27,-195 510.62,-195"/>
<polygon fill="black" stroke="black" points="510.57,-198.5 520.57,-195 510.57,-191.5 510.57,-198.5"/>
</g>
<!-- 1990977399424&#45;&gt;1990977395872 -->
<g id="edge7" class="edge">
<title>1990977399424&#45;&gt;1990977395872</title>
<path fill="none" stroke="black" d="M721.15,-195C728.48,-195 736.71,-195 745.01,-195"/>
<polygon fill="black" stroke="black" points="744.78,-198.5 754.78,-195 744.78,-191.5 744.78,-198.5"/>
</g>
<!-- 1990978545248&#45;&gt;1990978536176 -->
<g id="edge9" class="edge">
<title>1990978545248&#45;&gt;1990978536176</title>
<path fill="none" stroke="black" d="M934.4,-195C941.73,-195 949.96,-195 958.26,-195"/>
<polygon fill="black" stroke="black" points="958.03,-198.5 968.03,-195 958.03,-191.5 958.03,-198.5"/>
</g>
<!-- 1990978536704&#45;&gt;1990981172928 -->
<g id="edge12" class="edge">
<title>1990978536704&#45;&gt;1990981172928</title>
<path fill="none" stroke="black" d="M1147.54,-231C1157.66,-231 1169.64,-231 1181.49,-231"/>
<polygon fill="black" stroke="black" points="1181.24,-234.5 1191.24,-231 1181.24,-227.5 1181.24,-234.5"/>
</g>
<!-- 1990981167936&#45;&gt;1990981171776 -->
<g id="edge13" class="edge">
<title>1990981167936&#45;&gt;1990981171776</title>
<path fill="none" stroke="black" d="M1147.54,-159C1154.88,-159 1163.19,-159 1171.72,-159"/>
<polygon fill="black" stroke="black" points="1171.49,-162.5 1181.49,-159 1171.49,-155.5 1171.49,-162.5"/>
</g>
<!-- 1990975983488&#45;&gt;1990981159152 -->
<g id="edge16" class="edge">
<title>1990975983488&#45;&gt;1990981159152</title>
<path fill="none" stroke="black" d="M1381.51,-169.03C1389.76,-172.4 1399.14,-176.24 1408.12,-179.91"/>
<polygon fill="black" stroke="black" points="1406.79,-183.15 1417.37,-183.7 1409.44,-176.67 1406.79,-183.15"/>
</g>
<!-- 1990975989392&#45;&gt;1990981159152 -->
<g id="edge17" class="edge">
<title>1990975989392&#45;&gt;1990981159152</title>
<path fill="none" stroke="black" d="M1381.51,-220.97C1389.76,-217.6 1399.14,-213.76 1408.12,-210.09"/>
<polygon fill="black" stroke="black" points="1409.44,-213.33 1417.37,-206.3 1406.79,-206.85 1409.44,-213.33"/>
</g>
<!-- 1990981158816&#45;&gt;1990981165632 -->
<g id="edge19" class="edge">
<title>1990981158816&#45;&gt;1990981165632</title>
<path fill="none" stroke="black" d="M1562.78,-189.43C1570.4,-187.79 1579.05,-185.92 1587.79,-184.03"/>
<polygon fill="black" stroke="black" points="1588.32,-187.5 1597.36,-181.97 1586.84,-180.66 1588.32,-187.5"/>
</g>
<!-- 1990981171008&#45;&gt;1990981158912 -->
<g id="edge22" class="edge">
<title>1990981171008&#45;&gt;1990981158912</title>
<path fill="none" stroke="black" d="M1780.24,-163.98C1788,-164.27 1796.81,-164.6 1805.68,-164.93"/>
<polygon fill="black" stroke="black" points="1805.26,-168.41 1815.38,-165.29 1805.52,-161.42 1805.26,-168.41"/>
</g>
<!-- 1990981171008&#45;&gt;1990969800176 -->
<g id="edge21" class="edge">
<title>1990981171008&#45;&gt;1990969800176</title>
<path fill="none" stroke="black" d="M1776.74,-149.43C1789.56,-141.78 1805.94,-132.01 1820.86,-123.1"/>
<polygon fill="black" stroke="black" points="1822.31,-126.32 1829.1,-118.19 1818.72,-120.3 1822.31,-126.32"/>
</g>
<!-- 1990978548128&#45;&gt;1990978547744 -->
<g id="edge27" class="edge">
<title>1990978548128&#45;&gt;1990978547744</title>
<path fill="none" stroke="black" d="M1998.73,-99C2006.21,-99 2014.67,-99 2023.27,-99"/>
<polygon fill="black" stroke="black" points="2023.06,-102.5 2033.06,-99 2023.06,-95.5 2023.06,-102.5"/>
</g>
<!-- 1990980122192&#45;&gt;1990980109952 -->
<g id="edge28" class="edge">
<title>1990980122192&#45;&gt;1990980109952</title>
<path fill="none" stroke="black" d="M1998.17,-177.33C2005.73,-179.19 2014.33,-181.31 2023.07,-183.47"/>
<polygon fill="black" stroke="black" points="2022.13,-186.84 2032.68,-185.84 2023.8,-180.05 2022.13,-186.84"/>
</g>
<!-- 1990969794272&#45;&gt;1990969798592 -->
<g id="edge26" class="edge">
<title>1990969794272&#45;&gt;1990969798592</title>
<path fill="none" stroke="black" d="M1998.73,-27C2009.08,-27 2021.33,-27 2033.2,-27"/>
<polygon fill="black" stroke="black" points="2032.87,-30.5 2042.87,-27 2032.87,-23.5 2032.87,-30.5"/>
</g>
<!-- 1990969793888&#45;&gt;1990978544912 -->
<g id="edge32" class="edge">
<title>1990969793888&#45;&gt;1990978544912</title>
<path fill="none" stroke="black" d="M2221.88,-27C2231.66,-27 2242.96,-27 2253.65,-27"/>
<polygon fill="black" stroke="black" points="2253.37,-30.5 2263.37,-27 2253.37,-23.5 2253.37,-30.5"/>
</g>
<!-- 1990978539632&#45;&gt;1990978548416 -->
<g id="edge33" class="edge">
<title>1990978539632&#45;&gt;1990978548416</title>
<path fill="none" stroke="black" d="M2221.88,-99C2229.24,-99 2237.47,-99 2245.65,-99"/>
<polygon fill="black" stroke="black" points="2245.56,-102.5 2255.56,-99 2245.56,-95.5 2245.56,-102.5"/>
</g>
<!-- 1990975991936&#45;&gt;1990978542368 -->
<g id="edge37" class="edge">
<title>1990975991936&#45;&gt;1990978542368</title>
<path fill="none" stroke="black" d="M2419.6,-35.17C2427.39,-37.7 2436.33,-40.61 2445.44,-43.58"/>
<polygon fill="black" stroke="black" points="2444.1,-46.82 2454.69,-46.59 2446.27,-40.17 2444.1,-46.82"/>
</g>
<!-- 1990975994000&#45;&gt;1990978542368 -->
<g id="edge36" class="edge">
<title>1990975994000&#45;&gt;1990978542368</title>
<path fill="none" stroke="black" d="M2419.6,-90.83C2427.39,-88.3 2436.33,-85.39 2445.44,-82.42"/>
<polygon fill="black" stroke="black" points="2446.27,-85.83 2454.69,-79.41 2444.1,-79.18 2446.27,-85.83"/>
</g>
</g>
</svg>
