<?xml version="1.0" encoding="UTF-8" standalone="no"?>
<!DOCTYPE svg PUBLIC "-//W3C//DTD SVG 1.1//EN"
 "http://www.w3.org/Graphics/SVG/1.1/DTD/svg11.dtd">
<!-- Generated by graphviz version 11.0.0 (20240428.1522)
 -->
<!-- Title: imdf_net_1754051803.668334 Pages: 1 -->
<svg width="3403pt" height="244pt"
 viewBox="0.00 0.00 3402.75 244.00" xmlns="http://www.w3.org/2000/svg" xmlns:xlink="http://www.w3.org/1999/xlink">
<g id="graph0" class="graph" transform="scale(1 1) rotate(0) translate(4 240)">
<title>imdf_net_1754051803.668334</title>
<polygon fill="white" stroke="none" points="-4,4 -4,-240 3398.75,-240 3398.75,4 -4,4"/>
<!-- 1990980509648 -->
<g id="node1" class="node">
<title>1990980509648</title>
<polygon fill="black" stroke="black" points="144,-81 90,-81 90,-45 144,-45 144,-81"/>
</g>
<!-- 1990981244576 -->
<g id="node22" class="node">
<title>1990981244576</title>
<ellipse fill="white" stroke="black" cx="207" cy="-99" rx="27" ry="27"/>
</g>
<!-- 1990980509648&#45;&gt;1990981244576 -->
<g id="edge2" class="edge">
<title>1990980509648&#45;&gt;1990981244576</title>
<path fill="none" stroke="black" d="M144.4,-73.8C152.75,-77.22 162.12,-81.05 170.97,-84.67"/>
<polygon fill="black" stroke="black" points="169.44,-87.83 180.02,-88.37 172.09,-81.35 169.44,-87.83"/>
</g>
<!-- 1990979730272 -->
<g id="node23" class="node">
<title>1990979730272</title>
<ellipse fill="white" stroke="black" cx="207" cy="-27" rx="27" ry="27"/>
</g>
<!-- 1990980509648&#45;&gt;1990979730272 -->
<g id="edge3" class="edge">
<title>1990980509648&#45;&gt;1990979730272</title>
<path fill="none" stroke="black" d="M144.4,-52.2C152.75,-48.78 162.12,-44.95 170.97,-41.33"/>
<polygon fill="black" stroke="black" points="172.09,-44.65 180.02,-37.63 169.44,-38.17 172.09,-44.65"/>
</g>
<!-- 1990977209936 -->
<g id="node2" class="node">
<title>1990977209936</title>
<polygon fill="white" stroke="black" points="363.25,-117 279,-117 279,-81 363.25,-81 363.25,-117"/>
<text text-anchor="middle" x="321.12" y="-93.97" font-family="Times New Roman,serif" font-size="12.00">Milk Sourcing</text>
</g>
<!-- 1990977221648 -->
<g id="node24" class="node">
<title>1990977221648</title>
<ellipse fill="white" stroke="black" cx="435.25" cy="-99" rx="27" ry="27"/>
</g>
<!-- 1990977209936&#45;&gt;1990977221648 -->
<g id="edge7" class="edge">
<title>1990977209936&#45;&gt;1990977221648</title>
<path fill="none" stroke="black" d="M363.56,-99C374.35,-99 385.91,-99 396.5,-99"/>
<polygon fill="black" stroke="black" points="396.42,-102.5 406.42,-99 396.42,-95.5 396.42,-102.5"/>
</g>
<!-- 1990977254896 -->
<g id="node3" class="node">
<title>1990977254896</title>
<polygon fill="white" stroke="black" points="372.25,-45 270,-45 270,-9 372.25,-9 372.25,-45"/>
<text text-anchor="middle" x="321.12" y="-21.98" font-family="Times New Roman,serif" font-size="12.00">Packaging Design</text>
</g>
<!-- 1990977242032 -->
<g id="node25" class="node">
<title>1990977242032</title>
<ellipse fill="white" stroke="black" cx="435.25" cy="-27" rx="27" ry="27"/>
</g>
<!-- 1990977254896&#45;&gt;1990977242032 -->
<g id="edge6" class="edge">
<title>1990977254896&#45;&gt;1990977242032</title>
<path fill="none" stroke="black" d="M372.61,-27C380.72,-27 388.98,-27 396.71,-27"/>
<polygon fill="black" stroke="black" points="396.44,-30.5 406.44,-27 396.44,-23.5 396.44,-30.5"/>
</g>
<!-- 1990980798080 -->
<g id="node4" class="node">
<title>1990980798080</title>
<polygon fill="white" stroke="black" points="584.75,-45 501.25,-45 501.25,-9 584.75,-9 584.75,-45"/>
<text text-anchor="middle" x="543" y="-21.98" font-family="Times New Roman,serif" font-size="12.00">Label Printing</text>
</g>
<!-- 1990975872736 -->
<g id="node27" class="node">
<title>1990975872736</title>
<ellipse fill="white" stroke="black" cx="767.12" cy="-27" rx="27" ry="27"/>
</g>
<!-- 1990980798080&#45;&gt;1990975872736 -->
<g id="edge11" class="edge">
<title>1990980798080&#45;&gt;1990975872736</title>
<path fill="none" stroke="black" d="M585,-27C625.99,-27 688.49,-27 728.31,-27"/>
<polygon fill="black" stroke="black" points="728.13,-30.5 738.13,-27 728.13,-23.5 728.13,-30.5"/>
</g>
<!-- 1990977218480 -->
<g id="node5" class="node">
<title>1990977218480</title>
<polygon fill="white" stroke="black" points="587.75,-117 498.25,-117 498.25,-81 587.75,-81 587.75,-117"/>
<text text-anchor="middle" x="543" y="-93.97" font-family="Times New Roman,serif" font-size="12.00">Quality Testing</text>
</g>
<!-- 1990976847696 -->
<g id="node26" class="node">
<title>1990976847696</title>
<ellipse fill="white" stroke="black" cx="650.75" cy="-99" rx="27" ry="27"/>
</g>
<!-- 1990977218480&#45;&gt;1990976847696 -->
<g id="edge10" class="edge">
<title>1990977218480&#45;&gt;1990976847696</title>
<path fill="none" stroke="black" d="M588.23,-99C596.2,-99 604.44,-99 612.2,-99"/>
<polygon fill="black" stroke="black" points="611.99,-102.5 621.99,-99 611.99,-95.5 611.99,-102.5"/>
</g>
<!-- 1990980801296 -->
<g id="node6" class="node">
<title>1990980801296</title>
<polygon fill="white" stroke="black" points="2380,-77 2282.25,-77 2282.25,-41 2380,-41 2380,-77"/>
<text text-anchor="middle" x="2331.12" y="-53.98" font-family="Times New Roman,serif" font-size="12.00">Order Processing</text>
</g>
<!-- 1990978228480 -->
<g id="node28" class="node">
<title>1990978228480</title>
<ellipse fill="white" stroke="black" cx="2443" cy="-59" rx="27" ry="27"/>
</g>
<!-- 1990980801296&#45;&gt;1990978228480 -->
<g id="edge14" class="edge">
<title>1990980801296&#45;&gt;1990978228480</title>
<path fill="none" stroke="black" d="M2380.32,-59C2388.36,-59 2396.6,-59 2404.32,-59"/>
<polygon fill="black" stroke="black" points="2404.06,-62.5 2414.06,-59 2404.06,-55.5 2404.06,-62.5"/>
</g>
<!-- 1990976836080 -->
<g id="node7" class="node">
<title>1990976836080</title>
<polygon fill="white" stroke="black" points="820.5,-150 713.75,-150 713.75,-114 820.5,-114 820.5,-150"/>
<text text-anchor="middle" x="767.12" y="-126.97" font-family="Times New Roman,serif" font-size="12.00">Recipe Refinement</text>
</g>
<!-- 1990976844816 -->
<g id="node29" class="node">
<title>1990976844816</title>
<ellipse fill="white" stroke="black" cx="883.5" cy="-137" rx="27" ry="27"/>
</g>
<!-- 1990976836080&#45;&gt;1990976844816 -->
<g id="edge15" class="edge">
<title>1990976836080&#45;&gt;1990976844816</title>
<path fill="none" stroke="black" d="M820.96,-134.31C828.95,-134.66 837.05,-135.01 844.64,-135.35"/>
<polygon fill="black" stroke="black" points="844.4,-138.84 854.54,-135.78 844.7,-131.84 844.4,-138.84"/>
</g>
<!-- 1990971515408 -->
<g id="node8" class="node">
<title>1990971515408</title>
<polygon fill="white" stroke="black" points="1038.25,-218 946.5,-218 946.5,-182 1038.25,-182 1038.25,-218"/>
<text text-anchor="middle" x="992.38" y="-194.97" font-family="Times New Roman,serif" font-size="12.00">Curd Formation</text>
</g>
<!-- 1990971508736 -->
<g id="node30" class="node">
<title>1990971508736</title>
<ellipse fill="white" stroke="black" cx="1101.25" cy="-209" rx="27" ry="27"/>
</g>
<!-- 1990971515408&#45;&gt;1990971508736 -->
<g id="edge21" class="edge">
<title>1990971515408&#45;&gt;1990971508736</title>
<path fill="none" stroke="black" d="M1038.7,-203.82C1046.71,-204.49 1054.97,-205.19 1062.73,-205.84"/>
<polygon fill="black" stroke="black" points="1062.27,-209.31 1072.53,-206.67 1062.86,-202.34 1062.27,-209.31"/>
</g>
<!-- 1990978227856 -->
<g id="node9" class="node">
<title>1990978227856</title>
<polygon fill="white" stroke="black" points="2615,-77 2506,-77 2506,-41 2615,-41 2615,-77"/>
<text text-anchor="middle" x="2560.5" y="-53.98" font-family="Times New Roman,serif" font-size="12.00">Retail Coordination</text>
</g>
<!-- 1990978225072 -->
<g id="node32" class="node">
<title>1990978225072</title>
<ellipse fill="white" stroke="black" cx="2678" cy="-59" rx="27" ry="27"/>
</g>
<!-- 1990978227856&#45;&gt;1990978225072 -->
<g id="edge19" class="edge">
<title>1990978227856&#45;&gt;1990978225072</title>
<path fill="none" stroke="black" d="M2615.19,-59C2623.41,-59 2631.73,-59 2639.5,-59"/>
<polygon fill="black" stroke="black" points="2639.26,-62.5 2649.26,-59 2639.26,-55.5 2639.26,-62.5"/>
</g>
<!-- 1990976834016 -->
<g id="node10" class="node">
<title>1990976834016</title>
<polygon fill="white" stroke="black" points="1037.12,-155 947.62,-155 947.62,-119 1037.12,-119 1037.12,-155"/>
<text text-anchor="middle" x="992.38" y="-131.97" font-family="Times New Roman,serif" font-size="12.00">Sales Feedback</text>
</g>
<!-- 1990976844192 -->
<g id="node31" class="node">
<title>1990976844192</title>
<ellipse fill="white" stroke="black" cx="1101.25" cy="-137" rx="27" ry="27"/>
</g>
<!-- 1990976834016&#45;&gt;1990976844192 -->
<g id="edge20" class="edge">
<title>1990976834016&#45;&gt;1990976844192</title>
<path fill="none" stroke="black" d="M1037.46,-137C1045.81,-137 1054.47,-137 1062.59,-137"/>
<polygon fill="black" stroke="black" points="1062.5,-140.5 1072.5,-137 1062.5,-133.5 1062.5,-140.5"/>
</g>
<!-- 1990971922224 -->
<g id="node11" class="node">
<title>1990971922224</title>
<polygon fill="white" stroke="black" points="2824.5,-77 2741,-77 2741,-41 2824.5,-41 2824.5,-77"/>
<text text-anchor="middle" x="2782.75" y="-53.98" font-family="Times New Roman,serif" font-size="12.00">Shipping Prep</text>
</g>
<!-- 1990971924864 -->
<g id="node33" class="node">
<title>1990971924864</title>
<ellipse fill="white" stroke="black" cx="2887.5" cy="-59" rx="27" ry="27"/>
</g>
<!-- 1990971922224&#45;&gt;1990971924864 -->
<g id="edge27" class="edge">
<title>1990971922224&#45;&gt;1990971924864</title>
<path fill="none" stroke="black" d="M2824.95,-59C2832.81,-59 2841,-59 2848.75,-59"/>
<polygon fill="black" stroke="black" points="2848.55,-62.5 2858.55,-59 2848.55,-55.5 2848.55,-62.5"/>
</g>
<!-- 1990976838096 -->
<g id="node12" class="node">
<title>1990976838096</title>
<polygon fill="white" stroke="black" points="1263.5,-127 1164.25,-127 1164.25,-91 1263.5,-91 1263.5,-127"/>
<text text-anchor="middle" x="1213.88" y="-103.97" font-family="Times New Roman,serif" font-size="12.00">Demand Forecast</text>
</g>
<!-- 1990976838096&#45;&gt;1990976847696 -->
<g id="edge25" class="edge">
<title>1990976838096&#45;&gt;1990976847696</title>
<path fill="none" stroke="black" d="M1163.83,-99.48C1119.49,-91.71 1052.31,-82 993.38,-82 882.5,-82 882.5,-82 882.5,-82 814.28,-82 735.03,-89.48 689.4,-94.52"/>
<polygon fill="black" stroke="black" points="689.05,-91.03 679.51,-95.63 689.84,-97.99 689.05,-91.03"/>
</g>
<!-- 1990971521264 -->
<g id="node13" class="node">
<title>1990971521264</title>
<polygon fill="white" stroke="black" points="1260.5,-221 1167.25,-221 1167.25,-185 1260.5,-185 1260.5,-221"/>
<text text-anchor="middle" x="1213.88" y="-197.97" font-family="Times New Roman,serif" font-size="12.00">Pressing Cheese</text>
</g>
<!-- 1990977360800 -->
<g id="node34" class="node">
<title>1990977360800</title>
<ellipse fill="white" stroke="black" cx="1326.5" cy="-185" rx="27" ry="27"/>
</g>
<!-- 1990971521264&#45;&gt;1990977360800 -->
<g id="edge26" class="edge">
<title>1990971521264&#45;&gt;1990977360800</title>
<path fill="none" stroke="black" d="M1260.83,-195.52C1269.99,-194.03 1279.51,-192.48 1288.33,-191.05"/>
<polygon fill="black" stroke="black" points="1288.64,-194.54 1297.95,-189.48 1287.52,-187.63 1288.64,-194.54"/>
</g>
<!-- 1990979665360 -->
<g id="node14" class="node">
<title>1990979665360</title>
<polygon fill="white" stroke="black" points="3067.75,-77 2950.5,-77 2950.5,-41 3067.75,-41 3067.75,-77"/>
<text text-anchor="middle" x="3009.12" y="-53.98" font-family="Times New Roman,serif" font-size="12.00">Temperature Monitor</text>
</g>
<!-- 1990979655280 -->
<g id="node36" class="node">
<title>1990979655280</title>
<ellipse fill="white" stroke="black" cx="3130.75" cy="-59" rx="27" ry="27"/>
</g>
<!-- 1990979665360&#45;&gt;1990979655280 -->
<g id="edge31" class="edge">
<title>1990979665360&#45;&gt;1990979655280</title>
<path fill="none" stroke="black" d="M3068.19,-59C3076.31,-59 3084.48,-59 3092.09,-59"/>
<polygon fill="black" stroke="black" points="3091.99,-62.5 3101.99,-59 3091.99,-55.5 3091.99,-62.5"/>
</g>
<!-- 1990977362912 -->
<g id="node15" class="node">
<title>1990977362912</title>
<polygon fill="white" stroke="black" points="1467.75,-194 1389.5,-194 1389.5,-158 1467.75,-158 1467.75,-194"/>
<text text-anchor="middle" x="1428.62" y="-170.97" font-family="Times New Roman,serif" font-size="12.00">Salting Stage</text>
</g>
<!-- 1990977368624 -->
<g id="node35" class="node">
<title>1990977368624</title>
<ellipse fill="white" stroke="black" cx="1530.75" cy="-174" rx="27" ry="27"/>
</g>
<!-- 1990977362912&#45;&gt;1990977368624 -->
<g id="edge30" class="edge">
<title>1990977362912&#45;&gt;1990977368624</title>
<path fill="none" stroke="black" d="M1468.05,-175.23C1475.89,-175.08 1484.13,-174.91 1491.94,-174.76"/>
<polygon fill="black" stroke="black" points="1491.93,-178.26 1501.86,-174.56 1491.79,-171.26 1491.93,-178.26"/>
</g>
<!-- 1990977362192 -->
<g id="node16" class="node">
<title>1990977362192</title>
<polygon fill="white" stroke="black" points="1669.75,-191 1593.75,-191 1593.75,-155 1669.75,-155 1669.75,-191"/>
<text text-anchor="middle" x="1631.75" y="-167.97" font-family="Times New Roman,serif" font-size="12.00">Aging Setup</text>
</g>
<!-- 1990979788368 -->
<g id="node37" class="node">
<title>1990979788368</title>
<ellipse fill="white" stroke="black" cx="1732.75" cy="-169" rx="27" ry="27"/>
</g>
<!-- 1990977362192&#45;&gt;1990979788368 -->
<g id="edge34" class="edge">
<title>1990977362192&#45;&gt;1990979788368</title>
<path fill="none" stroke="black" d="M1670.18,-171.49C1677.96,-171.17 1686.16,-170.84 1693.96,-170.53"/>
<polygon fill="black" stroke="black" points="1694,-174.03 1703.85,-170.13 1693.72,-167.03 1694,-174.03"/>
</g>
<!-- 1990979652880 -->
<g id="node17" class="node">
<title>1990979652880</title>
<polygon fill="white" stroke="black" points="3296.75,-77 3193.75,-77 3193.75,-41 3296.75,-41 3296.75,-77"/>
<text text-anchor="middle" x="3245.25" y="-53.98" font-family="Times New Roman,serif" font-size="12.00">Compliance Audit</text>
</g>
<!-- 1990980507920 -->
<g id="node38" class="node">
<title>1990980507920</title>
<ellipse fill="white" stroke="black" cx="3363.75" cy="-59" rx="27" ry="27"/>
<ellipse fill="none" stroke="black" cx="3363.75" cy="-59" rx="31" ry="31"/>
<text text-anchor="start" x="3347.25" y="-43.6" font-family="Times New Roman,serif" font-size="32.00">■</text>
</g>
<!-- 1990979652880&#45;&gt;1990980507920 -->
<g id="edge35" class="edge">
<title>1990979652880&#45;&gt;1990980507920</title>
<path fill="none" stroke="black" d="M3297.01,-59C3304.99,-59 3313.16,-59 3320.91,-59"/>
<polygon fill="black" stroke="black" points="3320.76,-62.5 3330.76,-59 3320.76,-55.5 3320.76,-62.5"/>
</g>
<!-- 1990977916512 -->
<g id="node18" class="node">
<title>1990977916512</title>
<polygon fill="white" stroke="black" points="1913,-187 1795.75,-187 1795.75,-151 1913,-151 1913,-187"/>
<text text-anchor="middle" x="1854.38" y="-163.97" font-family="Times New Roman,serif" font-size="12.00">Microclimate Control</text>
</g>
<!-- 1990977928848 -->
<g id="node39" class="node">
<title>1990977928848</title>
<ellipse fill="white" stroke="black" cx="1976" cy="-169" rx="27" ry="27"/>
</g>
<!-- 1990977916512&#45;&gt;1990977928848 -->
<g id="edge37" class="edge">
<title>1990977916512&#45;&gt;1990977928848</title>
<path fill="none" stroke="black" d="M1913.44,-169C1921.56,-169 1929.73,-169 1937.34,-169"/>
<polygon fill="black" stroke="black" points="1937.24,-172.5 1947.24,-169 1937.24,-165.5 1937.24,-172.5"/>
</g>
<!-- 1990980503984 -->
<g id="node19" class="node">
<title>1990980503984</title>
<polygon fill="white" stroke="black" points="2145.38,-187 2049.88,-187 2049.88,-151 2145.38,-151 2145.38,-187"/>
<text text-anchor="middle" x="2097.62" y="-163.97" font-family="Times New Roman,serif" font-size="12.00">Inventory Check</text>
</g>
<!-- 1990975880032 -->
<g id="node40" class="node">
<title>1990975880032</title>
<ellipse fill="white" stroke="black" cx="2219.25" cy="-110" rx="27" ry="27"/>
</g>
<!-- 1990980503984&#45;&gt;1990975880032 -->
<g id="edge41" class="edge">
<title>1990980503984&#45;&gt;1990975880032</title>
<path fill="none" stroke="black" d="M2138.4,-150.61C2144.4,-147.76 2150.5,-144.83 2156.25,-142 2165.57,-137.41 2175.6,-132.31 2184.82,-127.55"/>
<polygon fill="black" stroke="black" points="2186.2,-130.78 2193.46,-123.07 2182.97,-124.57 2186.2,-130.78"/>
</g>
<!-- 1990981830896 -->
<g id="node20" class="node">
<title>1990981830896</title>
<polygon fill="white" stroke="black" points="2156.25,-133 2039,-133 2039,-97 2156.25,-97 2156.25,-133"/>
<text text-anchor="middle" x="2097.62" y="-109.97" font-family="Times New Roman,serif" font-size="12.00">Temperature Monitor</text>
</g>
<!-- 1990981830896&#45;&gt;1990979788368 -->
<g id="edge40" class="edge">
<title>1990981830896&#45;&gt;1990979788368</title>
<path fill="none" stroke="black" d="M2038.58,-114.73C1977.3,-115.71 1878.32,-120.91 1795.75,-142 1786.37,-144.4 1776.6,-148.05 1767.66,-151.9"/>
<polygon fill="black" stroke="black" points="1766.29,-148.68 1758.64,-156.01 1769.19,-155.05 1766.29,-148.68"/>
</g>
<!-- 1990980515744 -->
<g id="node21" class="node">
<title>1990980515744</title>
<ellipse fill="white" stroke="black" cx="27" cy="-63" rx="27" ry="27"/>
<text text-anchor="start" x="9.75" y="-45.7" font-family="Times New Roman,serif" font-size="34.00">●</text>
</g>
<!-- 1990980515744&#45;&gt;1990980509648 -->
<g id="edge1" class="edge">
<title>1990980515744&#45;&gt;1990980509648</title>
<path fill="none" stroke="black" d="M54.4,-63C61.89,-63 70.18,-63 78.2,-63"/>
<polygon fill="black" stroke="black" points="78.1,-66.5 88.1,-63 78.1,-59.5 78.1,-66.5"/>
</g>
<!-- 1990981244576&#45;&gt;1990977209936 -->
<g id="edge4" class="edge">
<title>1990981244576&#45;&gt;1990977209936</title>
<path fill="none" stroke="black" d="M234.29,-99C244.19,-99 255.84,-99 267.31,-99"/>
<polygon fill="black" stroke="black" points="267.13,-102.5 277.13,-99 267.13,-95.5 267.13,-102.5"/>
</g>
<!-- 1990979730272&#45;&gt;1990977254896 -->
<g id="edge5" class="edge">
<title>1990979730272&#45;&gt;1990977254896</title>
<path fill="none" stroke="black" d="M234.29,-27C241.67,-27 250.02,-27 258.54,-27"/>
<polygon fill="black" stroke="black" points="258.27,-30.5 268.27,-27 258.27,-23.5 258.27,-30.5"/>
</g>
<!-- 1990977221648&#45;&gt;1990977218480 -->
<g id="edge8" class="edge">
<title>1990977221648&#45;&gt;1990977218480</title>
<path fill="none" stroke="black" d="M462.66,-99C469.98,-99 478.21,-99 486.53,-99"/>
<polygon fill="black" stroke="black" points="486.33,-102.5 496.33,-99 486.33,-95.5 486.33,-102.5"/>
</g>
<!-- 1990977242032&#45;&gt;1990980798080 -->
<g id="edge9" class="edge">
<title>1990977242032&#45;&gt;1990980798080</title>
<path fill="none" stroke="black" d="M462.66,-27C470.93,-27 480.35,-27 489.75,-27"/>
<polygon fill="black" stroke="black" points="489.61,-30.5 499.61,-27 489.61,-23.5 489.61,-30.5"/>
</g>
<!-- 1990976847696&#45;&gt;1990976836080 -->
<g id="edge13" class="edge">
<title>1990976847696&#45;&gt;1990976836080</title>
<path fill="none" stroke="black" d="M677.13,-106.32C684.81,-108.54 693.6,-111.07 702.61,-113.67"/>
<polygon fill="black" stroke="black" points="701.6,-117.03 712.18,-116.44 703.54,-110.3 701.6,-117.03"/>
</g>
<!-- 1990975872736&#45;&gt;1990980801296 -->
<g id="edge12" class="edge">
<title>1990975872736&#45;&gt;1990980801296</title>
<path fill="none" stroke="black" d="M794.58,-27.98C836.38,-29.43 920.23,-32 991.38,-32 991.38,-32 991.38,-32 2098.62,-32 2157.5,-32 2224.23,-40.72 2270.87,-48.25"/>
<polygon fill="black" stroke="black" points="2270.06,-51.66 2280.49,-49.84 2271.2,-44.76 2270.06,-51.66"/>
</g>
<!-- 1990978228480&#45;&gt;1990978227856 -->
<g id="edge18" class="edge">
<title>1990978228480&#45;&gt;1990978227856</title>
<path fill="none" stroke="black" d="M2470.5,-59C2477.73,-59 2485.9,-59 2494.29,-59"/>
<polygon fill="black" stroke="black" points="2494.27,-62.5 2504.27,-59 2494.27,-55.5 2494.27,-62.5"/>
</g>
<!-- 1990976844816&#45;&gt;1990971515408 -->
<g id="edge16" class="edge">
<title>1990976844816&#45;&gt;1990971515408</title>
<path fill="none" stroke="black" d="M907.43,-150.52C919.99,-157.92 935.92,-167.31 950.53,-175.92"/>
<polygon fill="black" stroke="black" points="948.68,-178.89 959.07,-180.96 952.23,-172.86 948.68,-178.89"/>
</g>
<!-- 1990976844816&#45;&gt;1990976834016 -->
<g id="edge17" class="edge">
<title>1990976844816&#45;&gt;1990976834016</title>
<path fill="none" stroke="black" d="M910.92,-137C918.57,-137 927.22,-137 935.95,-137"/>
<polygon fill="black" stroke="black" points="935.86,-140.5 945.86,-137 935.86,-133.5 935.86,-140.5"/>
</g>
<!-- 1990971508736&#45;&gt;1990971521264 -->
<g id="edge22" class="edge">
<title>1990971508736&#45;&gt;1990971521264</title>
<path fill="none" stroke="black" d="M1128.47,-207.58C1136.64,-207.13 1146.01,-206.63 1155.45,-206.11"/>
<polygon fill="black" stroke="black" points="1155.63,-209.61 1165.42,-205.57 1155.25,-202.62 1155.63,-209.61"/>
</g>
<!-- 1990976844192&#45;&gt;1990976838096 -->
<g id="edge23" class="edge">
<title>1990976844192&#45;&gt;1990976838096</title>
<path fill="none" stroke="black" d="M1127.91,-130.51C1135.45,-128.6 1144.03,-126.43 1152.77,-124.21"/>
<polygon fill="black" stroke="black" points="1153.57,-127.62 1162.4,-121.77 1151.85,-120.84 1153.57,-127.62"/>
</g>
<!-- 1990978225072&#45;&gt;1990971922224 -->
<g id="edge24" class="edge">
<title>1990978225072&#45;&gt;1990971922224</title>
<path fill="none" stroke="black" d="M2705.46,-59C2712.82,-59 2721.08,-59 2729.37,-59"/>
<polygon fill="black" stroke="black" points="2729.11,-62.5 2739.11,-59 2729.11,-55.5 2729.11,-62.5"/>
</g>
<!-- 1990971924864&#45;&gt;1990979665360 -->
<g id="edge28" class="edge">
<title>1990971924864&#45;&gt;1990979665360</title>
<path fill="none" stroke="black" d="M2914.75,-59C2922.02,-59 2930.27,-59 2938.78,-59"/>
<polygon fill="black" stroke="black" points="2938.55,-62.5 2948.55,-59 2938.55,-55.5 2938.55,-62.5"/>
</g>
<!-- 1990977360800&#45;&gt;1990977362912 -->
<g id="edge29" class="edge">
<title>1990977360800&#45;&gt;1990977362912</title>
<path fill="none" stroke="black" d="M1353.81,-182.64C1361.22,-181.97 1369.53,-181.22 1377.83,-180.48"/>
<polygon fill="black" stroke="black" points="1377.91,-183.98 1387.55,-179.6 1377.28,-177.01 1377.91,-183.98"/>
</g>
<!-- 1990977368624&#45;&gt;1990977362192 -->
<g id="edge32" class="edge">
<title>1990977368624&#45;&gt;1990977362192</title>
<path fill="none" stroke="black" d="M1558.02,-173.73C1565.5,-173.66 1573.9,-173.57 1582.26,-173.49"/>
<polygon fill="black" stroke="black" points="1582.07,-176.99 1592.03,-173.39 1582,-169.99 1582.07,-176.99"/>
</g>
<!-- 1990979655280&#45;&gt;1990979652880 -->
<g id="edge33" class="edge">
<title>1990979655280&#45;&gt;1990979652880</title>
<path fill="none" stroke="black" d="M3158.13,-59C3165.36,-59 3173.52,-59 3181.86,-59"/>
<polygon fill="black" stroke="black" points="3181.77,-62.5 3191.77,-59 3181.77,-55.5 3181.77,-62.5"/>
</g>
<!-- 1990979788368&#45;&gt;1990977916512 -->
<g id="edge36" class="edge">
<title>1990979788368&#45;&gt;1990977916512</title>
<path fill="none" stroke="black" d="M1760,-169C1767.27,-169 1775.52,-169 1784.03,-169"/>
<polygon fill="black" stroke="black" points="1783.8,-172.5 1793.8,-169 1783.8,-165.5 1783.8,-172.5"/>
</g>
<!-- 1990977928848&#45;&gt;1990980503984 -->
<g id="edge39" class="edge">
<title>1990977928848&#45;&gt;1990980503984</title>
<path fill="none" stroke="black" d="M2003.25,-169C2013.68,-169 2026.12,-169 2038.46,-169"/>
<polygon fill="black" stroke="black" points="2038.2,-172.5 2048.2,-169 2038.2,-165.5 2038.2,-172.5"/>
</g>
<!-- 1990977928848&#45;&gt;1990981830896 -->
<g id="edge38" class="edge">
<title>1990977928848&#45;&gt;1990981830896</title>
<path fill="none" stroke="black" d="M2001.21,-158.07C2013.97,-152.31 2030.12,-145.02 2045.5,-138.08"/>
<polygon fill="black" stroke="black" points="2046.91,-141.28 2054.58,-133.98 2044.03,-134.9 2046.91,-141.28"/>
</g>
<!-- 1990975880032&#45;&gt;1990980801296 -->
<g id="edge42" class="edge">
<title>1990975880032&#45;&gt;1990980801296</title>
<path fill="none" stroke="black" d="M2244.36,-98.81C2254.92,-93.91 2267.73,-87.96 2280.19,-82.18"/>
<polygon fill="black" stroke="black" points="2281.55,-85.4 2289.15,-78.02 2278.61,-79.05 2281.55,-85.4"/>
</g>
</g>
</svg>
