<?xml version="1.0" encoding="UTF-8" standalone="no"?>
<!DOCTYPE svg PUBLIC "-//W3C//DTD SVG 1.1//EN"
 "http://www.w3.org/Graphics/SVG/1.1/DTD/svg11.dtd">
<!-- Generated by graphviz version 11.0.0 (20240428.1522)
 -->
<!-- Title: imdf_net_1754051818.7120042 Pages: 1 -->
<svg width="3140pt" height="170pt"
 viewBox="0.00 0.00 3139.50 170.00" xmlns="http://www.w3.org/2000/svg" xmlns:xlink="http://www.w3.org/1999/xlink">
<g id="graph0" class="graph" transform="scale(1 1) rotate(0) translate(4 166)">
<title>imdf_net_1754051818.7120042</title>
<polygon fill="white" stroke="none" points="-4,4 -4,-166 3135.5,-166 3135.5,4 -4,4"/>
<!-- 1990969798928 -->
<g id="node1" class="node">
<title>1990969798928</title>
<polygon fill="white" stroke="black" points="178.75,-152 90,-152 90,-116 178.75,-116 178.75,-152"/>
<text text-anchor="middle" x="134.38" y="-128.97" font-family="Times New Roman,serif" font-size="12.00">Key Validation</text>
</g>
<!-- 1990969798448 -->
<g id="node20" class="node">
<title>1990969798448</title>
<ellipse fill="white" stroke="black" cx="241.75" cy="-134" rx="27" ry="27"/>
</g>
<!-- 1990969798928&#45;&gt;1990969798448 -->
<g id="edge2" class="edge">
<title>1990969798928&#45;&gt;1990969798448</title>
<path fill="none" stroke="black" d="M179.15,-134C187.11,-134 195.35,-134 203.11,-134"/>
<polygon fill="black" stroke="black" points="202.92,-137.5 212.92,-134 202.92,-130.5 202.92,-137.5"/>
</g>
<!-- 1990969799648 -->
<g id="node2" class="node">
<title>1990969799648</title>
<polygon fill="white" stroke="black" points="399.5,-152 304.75,-152 304.75,-116 399.5,-116 399.5,-152"/>
<text text-anchor="middle" x="352.12" y="-128.97" font-family="Times New Roman,serif" font-size="12.00">Data Handshake</text>
</g>
<!-- 1990971636144 -->
<g id="node21" class="node">
<title>1990971636144</title>
<ellipse fill="white" stroke="black" cx="462.5" cy="-134" rx="27" ry="27"/>
</g>
<!-- 1990969799648&#45;&gt;1990971636144 -->
<g id="edge4" class="edge">
<title>1990969799648&#45;&gt;1990971636144</title>
<path fill="none" stroke="black" d="M399.71,-134C407.79,-134 416.1,-134 423.9,-134"/>
<polygon fill="black" stroke="black" points="423.73,-137.5 433.73,-134 423.73,-130.5 423.73,-137.5"/>
</g>
<!-- 1990971623184 -->
<g id="node3" class="node">
<title>1990971623184</title>
<polygon fill="white" stroke="black" points="594.75,-152 525.5,-152 525.5,-116 594.75,-116 594.75,-152"/>
<text text-anchor="middle" x="560.12" y="-128.97" font-family="Times New Roman,serif" font-size="12.00">Node Sync</text>
</g>
<!-- 1990969283632 -->
<g id="node22" class="node">
<title>1990969283632</title>
<ellipse fill="white" stroke="black" cx="657.75" cy="-134" rx="27" ry="27"/>
</g>
<!-- 1990971623184&#45;&gt;1990969283632 -->
<g id="edge6" class="edge">
<title>1990971623184&#45;&gt;1990969283632</title>
<path fill="none" stroke="black" d="M595.11,-134C602.81,-134 611.03,-134 618.88,-134"/>
<polygon fill="black" stroke="black" points="618.88,-137.5 628.88,-134 618.88,-130.5 618.88,-137.5"/>
</g>
<!-- 1990968950464 -->
<g id="node4" class="node">
<title>1990968950464</title>
<polygon fill="white" stroke="black" points="803.5,-152 720.75,-152 720.75,-116 803.5,-116 803.5,-152"/>
<text text-anchor="middle" x="762.12" y="-128.97" font-family="Times New Roman,serif" font-size="12.00">Quantum Log</text>
</g>
<!-- 1992862876496 -->
<g id="node23" class="node">
<title>1992862876496</title>
<ellipse fill="white" stroke="black" cx="866.5" cy="-134" rx="27" ry="27"/>
</g>
<!-- 1990968950464&#45;&gt;1992862876496 -->
<g id="edge8" class="edge">
<title>1990968950464&#45;&gt;1992862876496</title>
<path fill="none" stroke="black" d="M803.88,-134C811.73,-134 819.92,-134 827.67,-134"/>
<polygon fill="black" stroke="black" points="827.49,-137.5 837.49,-134 827.49,-130.5 827.49,-137.5"/>
</g>
<!-- 1990982115136 -->
<g id="node5" class="node">
<title>1990982115136</title>
<polygon fill="white" stroke="black" points="1006.25,-152 929.5,-152 929.5,-116 1006.25,-116 1006.25,-152"/>
<text text-anchor="middle" x="967.88" y="-128.97" font-family="Times New Roman,serif" font-size="12.00">State Update</text>
</g>
<!-- 1990982117104 -->
<g id="node24" class="node">
<title>1990982117104</title>
<ellipse fill="white" stroke="black" cx="1069.25" cy="-134" rx="27" ry="27"/>
</g>
<!-- 1990982115136&#45;&gt;1990982117104 -->
<g id="edge10" class="edge">
<title>1990982115136&#45;&gt;1990982117104</title>
<path fill="none" stroke="black" d="M1006.73,-134C1014.52,-134 1022.73,-134 1030.52,-134"/>
<polygon fill="black" stroke="black" points="1030.4,-137.5 1040.4,-134 1030.4,-130.5 1030.4,-137.5"/>
</g>
<!-- 1990982112064 -->
<g id="node6" class="node">
<title>1990982112064</title>
<polygon fill="black" stroke="black" points="1186.25,-125 1132.25,-125 1132.25,-89 1186.25,-89 1186.25,-125"/>
</g>
<!-- 1990982115088 -->
<g id="node25" class="node">
<title>1990982115088</title>
<ellipse fill="white" stroke="black" cx="1249.25" cy="-107" rx="27" ry="27"/>
</g>
<!-- 1990982112064&#45;&gt;1990982115088 -->
<g id="edge12" class="edge">
<title>1990982112064&#45;&gt;1990982115088</title>
<path fill="none" stroke="black" d="M1186.65,-107C1194.14,-107 1202.43,-107 1210.45,-107"/>
<polygon fill="black" stroke="black" points="1210.35,-110.5 1220.35,-107 1210.35,-103.5 1210.35,-110.5"/>
</g>
<!-- 1990982114224 -->
<g id="node26" class="node">
<title>1990982114224</title>
<ellipse fill="white" stroke="black" cx="1249.25" cy="-35" rx="27" ry="27"/>
</g>
<!-- 1990982112064&#45;&gt;1990982114224 -->
<g id="edge13" class="edge">
<title>1990982112064&#45;&gt;1990982114224</title>
<path fill="none" stroke="black" d="M1182.46,-88.83C1193.57,-79.74 1207.17,-68.61 1219.12,-58.84"/>
<polygon fill="black" stroke="black" points="1221.17,-61.68 1226.69,-52.64 1216.73,-56.26 1221.17,-61.68"/>
</g>
<!-- 1990982110240 -->
<g id="node7" class="node">
<title>1990982110240</title>
<polygon fill="white" stroke="black" points="1398.75,-53 1312.25,-53 1312.25,-17 1398.75,-17 1398.75,-53"/>
<text text-anchor="middle" x="1355.5" y="-29.98" font-family="Times New Roman,serif" font-size="12.00">Anomaly Scan</text>
</g>
<!-- 1990982115472 -->
<g id="node28" class="node">
<title>1990982115472</title>
<ellipse fill="white" stroke="black" cx="1461.75" cy="-35" rx="27" ry="27"/>
</g>
<!-- 1990982110240&#45;&gt;1990982115472 -->
<g id="edge16" class="edge">
<title>1990982110240&#45;&gt;1990982115472</title>
<path fill="none" stroke="black" d="M1399.2,-35C1407.12,-35 1415.34,-35 1423.09,-35"/>
<polygon fill="black" stroke="black" points="1422.89,-38.5 1432.89,-35 1422.89,-31.5 1422.89,-38.5"/>
</g>
<!-- 1990982107504 -->
<g id="node8" class="node">
<title>1990982107504</title>
<polygon fill="white" stroke="black" points="1395,-125 1316,-125 1316,-89 1395,-89 1395,-125"/>
<text text-anchor="middle" x="1355.5" y="-101.97" font-family="Times New Roman,serif" font-size="12.00">Data Encrypt</text>
</g>
<!-- 1990982120080 -->
<g id="node27" class="node">
<title>1990982120080</title>
<ellipse fill="white" stroke="black" cx="1461.75" cy="-107" rx="27" ry="27"/>
</g>
<!-- 1990982107504&#45;&gt;1990982120080 -->
<g id="edge17" class="edge">
<title>1990982107504&#45;&gt;1990982120080</title>
<path fill="none" stroke="black" d="M1395.32,-107C1404.42,-107 1414.09,-107 1423.14,-107"/>
<polygon fill="black" stroke="black" points="1423.04,-110.5 1433.04,-107 1423.04,-103.5 1423.04,-110.5"/>
</g>
<!-- 1990982109520 -->
<g id="node9" class="node">
<title>1990982109520</title>
<polygon fill="white" stroke="black" points="1613.5,-124 1524.75,-124 1524.75,-88 1613.5,-88 1613.5,-124"/>
<text text-anchor="middle" x="1569.12" y="-100.97" font-family="Times New Roman,serif" font-size="12.00">Packet Routing</text>
</g>
<!-- 1990982122144 -->
<g id="node29" class="node">
<title>1990982122144</title>
<ellipse fill="white" stroke="black" cx="1676.5" cy="-106" rx="27" ry="27"/>
</g>
<!-- 1990982109520&#45;&gt;1990982122144 -->
<g id="edge21" class="edge">
<title>1990982109520&#45;&gt;1990982122144</title>
<path fill="none" stroke="black" d="M1613.9,-106C1621.86,-106 1630.1,-106 1637.86,-106"/>
<polygon fill="black" stroke="black" points="1637.67,-109.5 1647.67,-106 1637.67,-102.5 1637.67,-109.5"/>
</g>
<!-- 1990982109040 -->
<g id="node10" class="node">
<title>1990982109040</title>
<polygon fill="white" stroke="black" points="1610.12,-57 1528.12,-57 1528.12,-21 1610.12,-21 1610.12,-57"/>
<text text-anchor="middle" x="1569.12" y="-33.98" font-family="Times New Roman,serif" font-size="12.00">Load Balance</text>
</g>
<!-- 1990982110624 -->
<g id="node30" class="node">
<title>1990982110624</title>
<ellipse fill="white" stroke="black" cx="1780.5" cy="-42" rx="27" ry="27"/>
</g>
<!-- 1990982109040&#45;&gt;1990982110624 -->
<g id="edge20" class="edge">
<title>1990982109040&#45;&gt;1990982110624</title>
<path fill="none" stroke="black" d="M1610.49,-39.58C1648.45,-40.12 1704.83,-40.93 1741.87,-41.46"/>
<polygon fill="black" stroke="black" points="1741.61,-44.96 1751.65,-41.6 1741.71,-37.96 1741.61,-44.96"/>
</g>
<!-- 1990982113552 -->
<g id="node11" class="node">
<title>1990982113552</title>
<polygon fill="white" stroke="black" points="1821.5,-124 1739.5,-124 1739.5,-88 1821.5,-88 1821.5,-124"/>
<text text-anchor="middle" x="1780.5" y="-100.97" font-family="Times New Roman,serif" font-size="12.00">Packet Queue</text>
</g>
<!-- 1990982116144 -->
<g id="node31" class="node">
<title>1990982116144</title>
<ellipse fill="white" stroke="black" cx="1884.5" cy="-102" rx="27" ry="27"/>
</g>
<!-- 1990982113552&#45;&gt;1990982116144 -->
<g id="edge24" class="edge">
<title>1990982113552&#45;&gt;1990982116144</title>
<path fill="none" stroke="black" d="M1821.81,-104.42C1829.73,-104.11 1838,-103.78 1845.82,-103.48"/>
<polygon fill="black" stroke="black" points="1845.88,-106.98 1855.73,-103.09 1845.6,-99.98 1845.88,-106.98"/>
</g>
<!-- 1990982107936 -->
<g id="node12" class="node">
<title>1990982107936</title>
<polygon fill="white" stroke="black" points="2054.25,-97 1947.5,-97 1947.5,-61 2054.25,-61 2054.25,-97"/>
<text text-anchor="middle" x="2000.88" y="-73.97" font-family="Times New Roman,serif" font-size="12.00">Compliance Check</text>
</g>
<!-- 1990982115664 -->
<g id="node32" class="node">
<title>1990982115664</title>
<ellipse fill="white" stroke="black" cx="2117.25" cy="-79" rx="27" ry="27"/>
</g>
<!-- 1990982107936&#45;&gt;1990982115664 -->
<g id="edge25" class="edge">
<title>1990982107936&#45;&gt;1990982115664</title>
<path fill="none" stroke="black" d="M2054.71,-79C2062.7,-79 2070.8,-79 2078.39,-79"/>
<polygon fill="black" stroke="black" points="2078.29,-82.5 2088.29,-79 2078.29,-75.5 2078.29,-82.5"/>
</g>
<!-- 1990982114320 -->
<g id="node13" class="node">
<title>1990982114320</title>
<polygon fill="white" stroke="black" points="2270.5,-120 2180.25,-120 2180.25,-84 2270.5,-84 2270.5,-120"/>
<text text-anchor="middle" x="2225.38" y="-96.97" font-family="Times New Roman,serif" font-size="12.00">Forecast Adjust</text>
</g>
<!-- 1990982119840 -->
<g id="node33" class="node">
<title>1990982119840</title>
<ellipse fill="white" stroke="black" cx="2337.5" cy="-107" rx="27" ry="27"/>
</g>
<!-- 1990982114320&#45;&gt;1990982119840 -->
<g id="edge29" class="edge">
<title>1990982114320&#45;&gt;1990982119840</title>
<path fill="none" stroke="black" d="M2270.85,-104.02C2280.15,-104.44 2289.86,-104.88 2298.88,-105.29"/>
<polygon fill="black" stroke="black" points="2298.58,-108.78 2308.73,-105.74 2298.9,-101.79 2298.58,-108.78"/>
</g>
<!-- 1990982111536 -->
<g id="node14" class="node">
<title>1990982111536</title>
<polygon fill="black" stroke="black" points="2252.38,-60 2198.38,-60 2198.38,-24 2252.38,-24 2252.38,-60"/>
</g>
<!-- 1990980809600 -->
<g id="node34" class="node">
<title>1990980809600</title>
<ellipse fill="white" stroke="black" cx="2337.5" cy="-31" rx="27" ry="27"/>
<ellipse fill="none" stroke="black" cx="2337.5" cy="-31" rx="31" ry="31"/>
<text text-anchor="start" x="2321" y="-15.6" font-family="Times New Roman,serif" font-size="32.00">■</text>
</g>
<!-- 1990982111536&#45;&gt;1990980809600 -->
<g id="edge30" class="edge">
<title>1990982111536&#45;&gt;1990980809600</title>
<path fill="none" stroke="black" d="M2252.75,-39.37C2265.51,-38.09 2281.11,-36.53 2295.37,-35.11"/>
<polygon fill="black" stroke="black" points="2295.34,-38.63 2304.94,-34.15 2294.64,-31.66 2295.34,-38.63"/>
</g>
<!-- 1990982123248 -->
<g id="node15" class="node">
<title>1990982123248</title>
<polygon fill="white" stroke="black" points="2493.25,-125 2404.5,-125 2404.5,-89 2493.25,-89 2493.25,-125"/>
<text text-anchor="middle" x="2448.88" y="-101.97" font-family="Times New Roman,serif" font-size="12.00">Inventory Sync</text>
</g>
<!-- 1990982123488 -->
<g id="node35" class="node">
<title>1990982123488</title>
<ellipse fill="white" stroke="black" cx="2556.25" cy="-107" rx="27" ry="27"/>
</g>
<!-- 1990982123248&#45;&gt;1990982123488 -->
<g id="edge32" class="edge">
<title>1990982123248&#45;&gt;1990982123488</title>
<path fill="none" stroke="black" d="M2493.65,-107C2501.61,-107 2509.85,-107 2517.61,-107"/>
<polygon fill="black" stroke="black" points="2517.42,-110.5 2527.42,-107 2517.42,-103.5 2517.42,-110.5"/>
</g>
<!-- 1990982118832 -->
<g id="node16" class="node">
<title>1990982118832</title>
<polygon fill="white" stroke="black" points="2716.25,-125 2619.25,-125 2619.25,-89 2716.25,-89 2716.25,-125"/>
<text text-anchor="middle" x="2667.75" y="-101.97" font-family="Times New Roman,serif" font-size="12.00">Schedule Update</text>
</g>
<!-- 1990982117776 -->
<g id="node36" class="node">
<title>1990982117776</title>
<ellipse fill="white" stroke="black" cx="2779.25" cy="-107" rx="27" ry="27"/>
</g>
<!-- 1990982118832&#45;&gt;1990982117776 -->
<g id="edge34" class="edge">
<title>1990982118832&#45;&gt;1990982117776</title>
<path fill="none" stroke="black" d="M2716.46,-107C2724.57,-107 2732.9,-107 2740.7,-107"/>
<polygon fill="black" stroke="black" points="2740.54,-110.5 2750.54,-107 2740.54,-103.5 2740.54,-110.5"/>
</g>
<!-- 1990982112976 -->
<g id="node17" class="node">
<title>1990982112976</title>
<polygon fill="white" stroke="black" points="2915.25,-125 2842.25,-125 2842.25,-89 2915.25,-89 2915.25,-125"/>
<text text-anchor="middle" x="2878.75" y="-101.97" font-family="Times New Roman,serif" font-size="12.00">Risk Assess</text>
</g>
<!-- 1990982117440 -->
<g id="node37" class="node">
<title>1990982117440</title>
<ellipse fill="white" stroke="black" cx="2978.25" cy="-107" rx="27" ry="27"/>
</g>
<!-- 1990982112976&#45;&gt;1990982117440 -->
<g id="edge36" class="edge">
<title>1990982112976&#45;&gt;1990982117440</title>
<path fill="none" stroke="black" d="M2915.5,-107C2923.39,-107 2931.77,-107 2939.72,-107"/>
<polygon fill="black" stroke="black" points="2939.46,-110.5 2949.46,-107 2939.46,-103.5 2939.46,-110.5"/>
</g>
<!-- 1990982117488 -->
<g id="node18" class="node">
<title>1990982117488</title>
<polygon fill="white" stroke="black" points="3131.5,-152 3041.25,-152 3041.25,-116 3131.5,-116 3131.5,-152"/>
<text text-anchor="middle" x="3086.38" y="-128.97" font-family="Times New Roman,serif" font-size="12.00">Feedback Loop</text>
</g>
<!-- 1990982117488&#45;&gt;1990982117104 -->
<g id="edge38" class="edge">
<title>1990982117488&#45;&gt;1990982117104</title>
<path fill="none" stroke="black" d="M3041.09,-143.56C2999.61,-151.67 2935.77,-162 2879.75,-162 1248.25,-162 1248.25,-162 1248.25,-162 1198.71,-162 1142.35,-151.29 1106.56,-143.11"/>
<polygon fill="black" stroke="black" points="1107.71,-139.79 1097.17,-140.91 1106.11,-146.6 1107.71,-139.79"/>
</g>
<!-- 1990980807152 -->
<g id="node19" class="node">
<title>1990980807152</title>
<ellipse fill="white" stroke="black" cx="27" cy="-134" rx="27" ry="27"/>
<text text-anchor="start" x="9.75" y="-116.7" font-family="Times New Roman,serif" font-size="34.00">●</text>
</g>
<!-- 1990980807152&#45;&gt;1990969798928 -->
<g id="edge1" class="edge">
<title>1990980807152&#45;&gt;1990969798928</title>
<path fill="none" stroke="black" d="M54.32,-134C61.69,-134 70,-134 78.38,-134"/>
<polygon fill="black" stroke="black" points="78.27,-137.5 88.27,-134 78.27,-130.5 78.27,-137.5"/>
</g>
<!-- 1990969798448&#45;&gt;1990969799648 -->
<g id="edge3" class="edge">
<title>1990969798448&#45;&gt;1990969799648</title>
<path fill="none" stroke="black" d="M268.98,-134C276.31,-134 284.57,-134 292.95,-134"/>
<polygon fill="black" stroke="black" points="292.88,-137.5 302.88,-134 292.88,-130.5 292.88,-137.5"/>
</g>
<!-- 1990971636144&#45;&gt;1990971623184 -->
<g id="edge5" class="edge">
<title>1990971636144&#45;&gt;1990971623184</title>
<path fill="none" stroke="black" d="M489.88,-134C497.32,-134 505.64,-134 513.85,-134"/>
<polygon fill="black" stroke="black" points="513.78,-137.5 523.78,-134 513.78,-130.5 513.78,-137.5"/>
</g>
<!-- 1990969283632&#45;&gt;1990968950464 -->
<g id="edge7" class="edge">
<title>1990969283632&#45;&gt;1990968950464</title>
<path fill="none" stroke="black" d="M685.11,-134C692.53,-134 700.86,-134 709.21,-134"/>
<polygon fill="black" stroke="black" points="709.02,-137.5 719.02,-134 709.02,-130.5 709.02,-137.5"/>
</g>
<!-- 1992862876496&#45;&gt;1990982115136 -->
<g id="edge9" class="edge">
<title>1992862876496&#45;&gt;1990982115136</title>
<path fill="none" stroke="black" d="M893.87,-134C901.22,-134 909.44,-134 917.65,-134"/>
<polygon fill="black" stroke="black" points="917.64,-137.5 927.64,-134 917.64,-130.5 917.64,-137.5"/>
</g>
<!-- 1990982117104&#45;&gt;1990982112064 -->
<g id="edge11" class="edge">
<title>1990982117104&#45;&gt;1990982112064</title>
<path fill="none" stroke="black" d="M1095.23,-126.34C1103.31,-123.86 1112.44,-121.06 1121.2,-118.37"/>
<polygon fill="black" stroke="black" points="1122,-121.78 1130.53,-115.5 1119.94,-115.09 1122,-121.78"/>
</g>
<!-- 1990982115088&#45;&gt;1990982107504 -->
<g id="edge15" class="edge">
<title>1990982115088&#45;&gt;1990982107504</title>
<path fill="none" stroke="black" d="M1276.56,-107C1284.96,-107 1294.56,-107 1304.09,-107"/>
<polygon fill="black" stroke="black" points="1304.07,-110.5 1314.07,-107 1304.07,-103.5 1304.07,-110.5"/>
</g>
<!-- 1990982114224&#45;&gt;1990982110240 -->
<g id="edge14" class="edge">
<title>1990982114224&#45;&gt;1990982110240</title>
<path fill="none" stroke="black" d="M1276.56,-35C1283.94,-35 1292.24,-35 1300.61,-35"/>
<polygon fill="black" stroke="black" points="1300.46,-38.5 1310.46,-35 1300.46,-31.5 1300.46,-38.5"/>
</g>
<!-- 1990982120080&#45;&gt;1990982109520 -->
<g id="edge18" class="edge">
<title>1990982120080&#45;&gt;1990982109520</title>
<path fill="none" stroke="black" d="M1489.07,-106.75C1496.44,-106.68 1504.75,-106.6 1513.13,-106.52"/>
<polygon fill="black" stroke="black" points="1513.05,-110.02 1523.02,-106.43 1512.99,-103.02 1513.05,-110.02"/>
</g>
<!-- 1990982115472&#45;&gt;1990982109040 -->
<g id="edge19" class="edge">
<title>1990982115472&#45;&gt;1990982109040</title>
<path fill="none" stroke="black" d="M1489.07,-36C1497.39,-36.31 1506.89,-36.68 1516.36,-37.03"/>
<polygon fill="black" stroke="black" points="1516.16,-40.53 1526.29,-37.41 1516.43,-33.53 1516.16,-40.53"/>
</g>
<!-- 1990982122144&#45;&gt;1990982113552 -->
<g id="edge23" class="edge">
<title>1990982122144&#45;&gt;1990982113552</title>
<path fill="none" stroke="black" d="M1703.77,-106C1711.15,-106 1719.45,-106 1727.78,-106"/>
<polygon fill="black" stroke="black" points="1727.55,-109.5 1737.55,-106 1727.55,-102.5 1727.55,-109.5"/>
</g>
<!-- 1990982110624&#45;&gt;1990982107936 -->
<g id="edge22" class="edge">
<title>1990982110624&#45;&gt;1990982107936</title>
<path fill="none" stroke="black" d="M1807.41,-46.39C1838.94,-51.73 1893.27,-60.94 1936.19,-68.21"/>
<polygon fill="black" stroke="black" points="1935.46,-71.64 1945.9,-69.86 1936.63,-64.73 1935.46,-71.64"/>
</g>
<!-- 1990982116144&#45;&gt;1990982107936 -->
<g id="edge26" class="edge">
<title>1990982116144&#45;&gt;1990982107936</title>
<path fill="none" stroke="black" d="M1911.45,-96.78C1918.96,-95.27 1927.5,-93.55 1936.25,-91.79"/>
<polygon fill="black" stroke="black" points="1936.78,-95.26 1945.89,-89.86 1935.4,-88.4 1936.78,-95.26"/>
</g>
<!-- 1990982115664&#45;&gt;1990982114320 -->
<g id="edge27" class="edge">
<title>1990982115664&#45;&gt;1990982114320</title>
<path fill="none" stroke="black" d="M2143.94,-84.57C2151.53,-86.21 2160.15,-88.08 2168.86,-89.97"/>
<polygon fill="black" stroke="black" points="2167.87,-93.34 2178.39,-92.03 2169.36,-86.49 2167.87,-93.34"/>
</g>
<!-- 1990982115664&#45;&gt;1990982111536 -->
<g id="edge28" class="edge">
<title>1990982115664&#45;&gt;1990982111536</title>
<path fill="none" stroke="black" d="M2143.13,-70.33C2156.31,-65.73 2172.76,-59.99 2187.41,-54.89"/>
<polygon fill="black" stroke="black" points="2188.45,-58.23 2196.74,-51.64 2186.14,-51.62 2188.45,-58.23"/>
</g>
<!-- 1990982119840&#45;&gt;1990982123248 -->
<g id="edge31" class="edge">
<title>1990982119840&#45;&gt;1990982123248</title>
<path fill="none" stroke="black" d="M2364.98,-107C2373.43,-107 2383.12,-107 2392.82,-107"/>
<polygon fill="black" stroke="black" points="2392.64,-110.5 2402.64,-107 2392.64,-103.5 2392.64,-110.5"/>
</g>
<!-- 1990982123488&#45;&gt;1990982118832 -->
<g id="edge33" class="edge">
<title>1990982123488&#45;&gt;1990982118832</title>
<path fill="none" stroke="black" d="M2583.48,-107C2590.79,-107 2599.03,-107 2607.43,-107"/>
<polygon fill="black" stroke="black" points="2607.37,-110.5 2617.37,-107 2607.37,-103.5 2607.37,-110.5"/>
</g>
<!-- 1990982117776&#45;&gt;1990982112976 -->
<g id="edge35" class="edge">
<title>1990982117776&#45;&gt;1990982112976</title>
<path fill="none" stroke="black" d="M2806.63,-107C2813.99,-107 2822.22,-107 2830.4,-107"/>
<polygon fill="black" stroke="black" points="2830.31,-110.5 2840.31,-107 2830.31,-103.5 2830.31,-110.5"/>
</g>
<!-- 1990982117440&#45;&gt;1990982117488 -->
<g id="edge37" class="edge">
<title>1990982117440&#45;&gt;1990982117488</title>
<path fill="none" stroke="black" d="M3004.94,-113.54C3012.53,-115.47 3021.15,-117.66 3029.86,-119.88"/>
<polygon fill="black" stroke="black" points="3028.85,-123.23 3039.4,-122.3 3030.57,-116.45 3028.85,-123.23"/>
</g>
</g>
</svg>
