<?xml version="1.0" encoding="UTF-8" standalone="no"?>
<!DOCTYPE svg PUBLIC "-//W3C//DTD SVG 1.1//EN"
 "http://www.w3.org/Graphics/SVG/1.1/DTD/svg11.dtd">
<!-- Generated by graphviz version 11.0.0 (20240428.1522)
 -->
<!-- Title: imdf_net_1754051824.9431288 Pages: 1 -->
<svg width="2064pt" height="348pt"
 viewBox="0.00 0.00 2064.25 348.01" xmlns="http://www.w3.org/2000/svg" xmlns:xlink="http://www.w3.org/1999/xlink">
<g id="graph0" class="graph" transform="scale(1 1) rotate(0) translate(4 344.01)">
<title>imdf_net_1754051824.9431288</title>
<polygon fill="white" stroke="none" points="-4,4 -4,-344.01 2060.25,-344.01 2060.25,4 -4,4"/>
<!-- 1990979048448 -->
<g id="node1" class="node">
<title>1990979048448</title>
<polygon fill="white" stroke="black" points="172.75,-173.29 90,-173.29 90,-137.29 172.75,-137.29 172.75,-173.29"/>
<text text-anchor="middle" x="131.38" y="-150.26" font-family="Times New Roman,serif" font-size="12.00">Initial Review</text>
</g>
<!-- 1990980810128 -->
<g id="node18" class="node">
<title>1990980810128</title>
<ellipse fill="white" stroke="black" cx="235.75" cy="-255.29" rx="27" ry="27"/>
</g>
<!-- 1990979048448&#45;&gt;1990980810128 -->
<g id="edge2" class="edge">
<title>1990979048448&#45;&gt;1990980810128</title>
<path fill="none" stroke="black" d="M151.15,-173.63C167.07,-189.18 190.09,-211.67 207.95,-229.11"/>
<polygon fill="black" stroke="black" points="205.06,-231.18 214.66,-235.67 209.95,-226.18 205.06,-231.18"/>
</g>
<!-- 1990979043504 -->
<g id="node19" class="node">
<title>1990979043504</title>
<ellipse fill="white" stroke="black" cx="235.75" cy="-181.29" rx="27" ry="27"/>
</g>
<!-- 1990979048448&#45;&gt;1990979043504 -->
<g id="edge5" class="edge">
<title>1990979048448&#45;&gt;1990979043504</title>
<path fill="none" stroke="black" d="M173.13,-165.64C181.39,-167.74 190.03,-169.93 198.14,-171.99"/>
<polygon fill="black" stroke="black" points="197.13,-175.35 207.69,-174.42 198.86,-168.56 197.13,-175.35"/>
</g>
<!-- 1990979055696 -->
<g id="node20" class="node">
<title>1990979055696</title>
<ellipse fill="white" stroke="black" cx="449" cy="-131.29" rx="27" ry="27"/>
</g>
<!-- 1990979048448&#45;&gt;1990979055696 -->
<g id="edge4" class="edge">
<title>1990979048448&#45;&gt;1990979055696</title>
<path fill="none" stroke="black" d="M173.14,-149.4C184.64,-147.89 197.17,-146.38 208.75,-145.29 279.82,-138.57 363.09,-134.57 410.28,-132.66"/>
<polygon fill="black" stroke="black" points="410.39,-136.16 420.24,-132.27 410.11,-129.16 410.39,-136.16"/>
</g>
<!-- 1990980801872 -->
<g id="node21" class="node">
<title>1990980801872</title>
<ellipse fill="white" stroke="black" cx="235.75" cy="-54.29" rx="27" ry="27"/>
</g>
<!-- 1990979048448&#45;&gt;1990980801872 -->
<g id="edge3" class="edge">
<title>1990979048448&#45;&gt;1990980801872</title>
<path fill="none" stroke="black" d="M150.68,-137.23C166.64,-121.49 189.99,-98.44 208.04,-80.64"/>
<polygon fill="black" stroke="black" points="210.18,-83.45 214.84,-73.94 205.26,-78.47 210.18,-83.45"/>
</g>
<!-- 1990979052192 -->
<g id="node2" class="node">
<title>1990979052192</title>
<polygon fill="white" stroke="black" points="383,-217.29 301.75,-217.29 301.75,-181.29 383,-181.29 383,-217.29"/>
<text text-anchor="middle" x="342.38" y="-194.26" font-family="Times New Roman,serif" font-size="12.00">Material Scan</text>
</g>
<!-- 1990979053296 -->
<g id="node25" class="node">
<title>1990979053296</title>
<ellipse fill="white" stroke="black" cx="449" cy="-203.29" rx="27" ry="27"/>
</g>
<!-- 1990979052192&#45;&gt;1990979053296 -->
<g id="edge10" class="edge">
<title>1990979052192&#45;&gt;1990979053296</title>
<path fill="none" stroke="black" d="M383.23,-200.81C392.04,-201.15 401.36,-201.51 410.09,-201.84"/>
<polygon fill="black" stroke="black" points="409.9,-205.33 420.03,-202.22 410.17,-198.34 409.9,-205.33"/>
</g>
<!-- 1990980808352 -->
<g id="node3" class="node">
<title>1990980808352</title>
<polygon fill="white" stroke="black" points="386,-68.29 298.75,-68.29 298.75,-32.29 386,-32.29 386,-68.29"/>
<text text-anchor="middle" x="342.38" y="-45.26" font-family="Times New Roman,serif" font-size="12.00">Expert Consult</text>
</g>
<!-- 1990980797360 -->
<g id="node23" class="node">
<title>1990980797360</title>
<ellipse fill="white" stroke="black" cx="554.12" cy="-36.29" rx="27" ry="27"/>
</g>
<!-- 1990980808352&#45;&gt;1990980797360 -->
<g id="edge12" class="edge">
<title>1990980808352&#45;&gt;1990980797360</title>
<path fill="none" stroke="black" d="M386.33,-47.42C424.4,-44.88 479.42,-41.21 515.72,-38.79"/>
<polygon fill="black" stroke="black" points="515.54,-42.3 525.29,-38.15 515.08,-35.32 515.54,-42.3"/>
</g>
<!-- 1990980808784 -->
<g id="node4" class="node">
<title>1990980808784</title>
<polygon fill="white" stroke="black" points="378.88,-279.29 305.88,-279.29 305.88,-243.29 378.88,-243.29 378.88,-279.29"/>
<text text-anchor="middle" x="342.38" y="-256.26" font-family="Times New Roman,serif" font-size="12.00">Legal Audit</text>
</g>
<!-- 1990980807536 -->
<g id="node26" class="node">
<title>1990980807536</title>
<ellipse fill="white" stroke="black" cx="449" cy="-283.29" rx="27" ry="27"/>
</g>
<!-- 1990980808784&#45;&gt;1990980807536 -->
<g id="edge13" class="edge">
<title>1990980808784&#45;&gt;1990980807536</title>
<path fill="none" stroke="black" d="M379.09,-268.8C389.41,-270.97 400.7,-273.34 411.09,-275.53"/>
<polygon fill="black" stroke="black" points="410.36,-278.95 420.87,-277.58 411.8,-272.1 410.36,-278.95"/>
</g>
<!-- 1990979054832 -->
<g id="node5" class="node">
<title>1990979054832</title>
<polygon fill="white" stroke="black" points="827.5,-149.29 722.25,-149.29 722.25,-113.29 827.5,-113.29 827.5,-149.29"/>
<text text-anchor="middle" x="774.88" y="-126.26" font-family="Times New Roman,serif" font-size="12.00">Provenance Check</text>
</g>
<!-- 1990979050752 -->
<g id="node22" class="node">
<title>1990979050752</title>
<ellipse fill="white" stroke="black" cx="890.5" cy="-131.29" rx="27" ry="27"/>
</g>
<!-- 1990979054832&#45;&gt;1990979050752 -->
<g id="edge11" class="edge">
<title>1990979054832&#45;&gt;1990979050752</title>
<path fill="none" stroke="black" d="M827.7,-131.29C835.86,-131.29 844.16,-131.29 851.92,-131.29"/>
<polygon fill="black" stroke="black" points="851.68,-134.79 861.68,-131.29 851.68,-127.79 851.68,-134.79"/>
</g>
<!-- 1990979053008 -->
<g id="node24" class="node">
<title>1990979053008</title>
<ellipse fill="white" stroke="black" cx="890.5" cy="-59.29" rx="27" ry="27"/>
</g>
<!-- 1990979054832&#45;&gt;1990979053008 -->
<g id="edge14" class="edge">
<title>1990979054832&#45;&gt;1990979053008</title>
<path fill="none" stroke="black" d="M804.84,-112.93C821,-102.69 841.15,-89.92 857.74,-79.41"/>
<polygon fill="black" stroke="black" points="859.19,-82.64 865.76,-74.33 855.44,-76.73 859.19,-82.64"/>
</g>
<!-- 1990979048784 -->
<g id="node6" class="node">
<title>1990979048784</title>
<polygon fill="white" stroke="black" points="1061.75,-77.29 953.5,-77.29 953.5,-41.29 1061.75,-41.29 1061.75,-77.29"/>
<text text-anchor="middle" x="1007.62" y="-54.26" font-family="Times New Roman,serif" font-size="12.00">Historical Compare</text>
</g>
<!-- 1990980802304 -->
<g id="node27" class="node">
<title>1990980802304</title>
<ellipse fill="white" stroke="black" cx="1124.75" cy="-59.29" rx="27" ry="27"/>
</g>
<!-- 1990979048784&#45;&gt;1990980802304 -->
<g id="edge21" class="edge">
<title>1990979048784&#45;&gt;1990980802304</title>
<path fill="none" stroke="black" d="M1062.14,-59.29C1070.16,-59.29 1078.28,-59.29 1085.88,-59.29"/>
<polygon fill="black" stroke="black" points="1085.79,-62.79 1095.79,-59.29 1085.79,-55.79 1085.79,-62.79"/>
</g>
<!-- 1990980804320 -->
<g id="node7" class="node">
<title>1990980804320</title>
<polygon fill="white" stroke="black" points="590.62,-316.29 517.62,-316.29 517.62,-280.29 590.62,-280.29 590.62,-316.29"/>
<text text-anchor="middle" x="554.12" y="-293.26" font-family="Times New Roman,serif" font-size="12.00">Risk Assess</text>
</g>
<!-- 1990980799424 -->
<g id="node30" class="node">
<title>1990980799424</title>
<ellipse fill="white" stroke="black" cx="659.25" cy="-306.29" rx="27" ry="27"/>
</g>
<!-- 1990980804320&#45;&gt;1990980799424 -->
<g id="edge22" class="edge">
<title>1990980804320&#45;&gt;1990980799424</title>
<path fill="none" stroke="black" d="M590.9,-301.06C600.5,-301.81 610.9,-302.62 620.59,-303.37"/>
<polygon fill="black" stroke="black" points="620.21,-306.85 630.46,-304.13 620.76,-299.87 620.21,-306.85"/>
</g>
<!-- 1990979052912 -->
<g id="node8" class="node">
<title>1990979052912</title>
<polygon fill="white" stroke="black" points="1055,-149.29 960.25,-149.29 960.25,-113.29 1055,-113.29 1055,-149.29"/>
<text text-anchor="middle" x="1007.62" y="-126.26" font-family="Times New Roman,serif" font-size="12.00">Database Search</text>
</g>
<!-- 1990980803504 -->
<g id="node29" class="node">
<title>1990980803504</title>
<ellipse fill="white" stroke="black" cx="1124.75" cy="-131.29" rx="27" ry="27"/>
</g>
<!-- 1990979052912&#45;&gt;1990980803504 -->
<g id="edge20" class="edge">
<title>1990979052912&#45;&gt;1990980803504</title>
<path fill="none" stroke="black" d="M1055.45,-131.29C1065.63,-131.29 1076.27,-131.29 1086.05,-131.29"/>
<polygon fill="black" stroke="black" points="1085.93,-134.79 1095.93,-131.29 1085.93,-127.79 1085.93,-134.79"/>
</g>
<!-- 1990979057904 -->
<g id="node9" class="node">
<title>1990979057904</title>
<polygon fill="white" stroke="black" points="596.25,-221.29 512,-221.29 512,-185.29 596.25,-185.29 596.25,-221.29"/>
<text text-anchor="middle" x="554.12" y="-198.26" font-family="Times New Roman,serif" font-size="12.00">Xray Analysis</text>
</g>
<!-- 1990979045664 -->
<g id="node28" class="node">
<title>1990979045664</title>
<ellipse fill="white" stroke="black" cx="659.25" cy="-203.29" rx="27" ry="27"/>
</g>
<!-- 1990979057904&#45;&gt;1990979045664 -->
<g id="edge24" class="edge">
<title>1990979057904&#45;&gt;1990979045664</title>
<path fill="none" stroke="black" d="M596.48,-203.29C604.44,-203.29 612.74,-203.29 620.58,-203.29"/>
<polygon fill="black" stroke="black" points="620.5,-206.79 630.5,-203.29 620.5,-199.79 620.5,-206.79"/>
</g>
<!-- 1990980812240 -->
<g id="node10" class="node">
<title>1990980812240</title>
<polygon fill="white" stroke="black" points="1277.25,-185.29 1187.75,-185.29 1187.75,-149.29 1277.25,-149.29 1277.25,-185.29"/>
<text text-anchor="middle" x="1232.5" y="-162.26" font-family="Times New Roman,serif" font-size="12.00">Appraisal Draft</text>
</g>
<!-- 1990980797648 -->
<g id="node31" class="node">
<title>1990980797648</title>
<ellipse fill="white" stroke="black" cx="1340.25" cy="-167.29" rx="27" ry="27"/>
</g>
<!-- 1990980812240&#45;&gt;1990980797648 -->
<g id="edge23" class="edge">
<title>1990980812240&#45;&gt;1990980797648</title>
<path fill="none" stroke="black" d="M1277.73,-167.29C1285.7,-167.29 1293.94,-167.29 1301.7,-167.29"/>
<polygon fill="black" stroke="black" points="1301.49,-170.79 1311.49,-167.29 1301.49,-163.79 1301.49,-170.79"/>
</g>
<!-- 1990980807872 -->
<g id="node11" class="node">
<title>1990980807872</title>
<polygon fill="white" stroke="black" points="1504.75,-185.29 1403.25,-185.29 1403.25,-149.29 1504.75,-149.29 1504.75,-185.29"/>
<text text-anchor="middle" x="1454" y="-162.26" font-family="Times New Roman,serif" font-size="12.00">Final Certification</text>
</g>
<!-- 1990980797216 -->
<g id="node33" class="node">
<title>1990980797216</title>
<ellipse fill="white" stroke="black" cx="1567.75" cy="-167.29" rx="27" ry="27"/>
</g>
<!-- 1990980807872&#45;&gt;1990980797216 -->
<g id="edge31" class="edge">
<title>1990980807872&#45;&gt;1990980797216</title>
<path fill="none" stroke="black" d="M1504.99,-167.29C1513.1,-167.29 1521.37,-167.29 1529.11,-167.29"/>
<polygon fill="black" stroke="black" points="1528.86,-170.79 1538.86,-167.29 1528.86,-163.79 1528.86,-170.79"/>
</g>
<!-- 1990979059680 -->
<g id="node12" class="node">
<title>1990979059680</title>
<polygon fill="white" stroke="black" points="817,-221.29 732.75,-221.29 732.75,-185.29 817,-185.29 817,-221.29"/>
<text text-anchor="middle" x="774.88" y="-198.26" font-family="Times New Roman,serif" font-size="12.00">Chemical Test</text>
</g>
<!-- 1990979053584 -->
<g id="node32" class="node">
<title>1990979053584</title>
<ellipse fill="white" stroke="black" cx="890.5" cy="-275.29" rx="27" ry="27"/>
</g>
<!-- 1990979059680&#45;&gt;1990979053584 -->
<g id="edge32" class="edge">
<title>1990979059680&#45;&gt;1990979053584</title>
<path fill="none" stroke="black" d="M804.84,-221.64C821,-231.88 841.15,-244.65 857.74,-255.16"/>
<polygon fill="black" stroke="black" points="855.44,-257.85 865.76,-260.25 859.19,-251.94 855.44,-257.85"/>
</g>
<!-- 1990969425456 -->
<g id="node34" class="node">
<title>1990969425456</title>
<ellipse fill="white" stroke="black" cx="890.5" cy="-203.29" rx="27" ry="27"/>
</g>
<!-- 1990979059680&#45;&gt;1990969425456 -->
<g id="edge30" class="edge">
<title>1990979059680&#45;&gt;1990969425456</title>
<path fill="none" stroke="black" d="M817.22,-203.29C828.49,-203.29 840.65,-203.29 851.72,-203.29"/>
<polygon fill="black" stroke="black" points="851.69,-206.79 861.69,-203.29 851.69,-199.79 851.69,-206.79"/>
</g>
<!-- 1990969425408 -->
<g id="node13" class="node">
<title>1990969425408</title>
<polygon fill="white" stroke="black" points="1056.88,-293.29 958.38,-293.29 958.38,-257.29 1056.88,-257.29 1056.88,-293.29"/>
<text text-anchor="middle" x="1007.62" y="-270.26" font-family="Times New Roman,serif" font-size="12.00">Condition Report</text>
</g>
<!-- 1990980803168 -->
<g id="node37" class="node">
<title>1990980803168</title>
<ellipse fill="white" stroke="black" cx="1124.75" cy="-275.29" rx="27" ry="27"/>
</g>
<!-- 1990969425408&#45;&gt;1990980803168 -->
<g id="edge38" class="edge">
<title>1990969425408&#45;&gt;1990980803168</title>
<path fill="none" stroke="black" d="M1057.11,-275.29C1066.79,-275.29 1076.82,-275.29 1086.07,-275.29"/>
<polygon fill="black" stroke="black" points="1085.77,-278.79 1095.77,-275.29 1085.77,-271.79 1085.77,-278.79"/>
</g>
<!-- 1990980797696 -->
<g id="node14" class="node">
<title>1990980797696</title>
<polygon fill="white" stroke="black" points="1713.5,-185.29 1630.75,-185.29 1630.75,-149.29 1713.5,-149.29 1713.5,-185.29"/>
<text text-anchor="middle" x="1672.12" y="-162.26" font-family="Times New Roman,serif" font-size="12.00">Logistics Plan</text>
</g>
<!-- 1990980800336 -->
<g id="node36" class="node">
<title>1990980800336</title>
<ellipse fill="white" stroke="black" cx="1776.5" cy="-167.29" rx="27" ry="27"/>
</g>
<!-- 1990980797696&#45;&gt;1990980800336 -->
<g id="edge37" class="edge">
<title>1990980797696&#45;&gt;1990980800336</title>
<path fill="none" stroke="black" d="M1713.88,-167.29C1721.73,-167.29 1729.92,-167.29 1737.67,-167.29"/>
<polygon fill="black" stroke="black" points="1737.49,-170.79 1747.49,-167.29 1737.49,-163.79 1737.49,-170.79"/>
</g>
<!-- 1990969425360 -->
<g id="node15" class="node">
<title>1990969425360</title>
<polygon fill="white" stroke="black" points="1055,-221.29 960.25,-221.29 960.25,-185.29 1055,-185.29 1055,-221.29"/>
<text text-anchor="middle" x="1007.62" y="-198.26" font-family="Times New Roman,serif" font-size="12.00">Photograph Item</text>
</g>
<!-- 1990980810560 -->
<g id="node35" class="node">
<title>1990980810560</title>
<ellipse fill="white" stroke="black" cx="1124.75" cy="-203.29" rx="27" ry="27"/>
</g>
<!-- 1990969425360&#45;&gt;1990980810560 -->
<g id="edge36" class="edge">
<title>1990969425360&#45;&gt;1990980810560</title>
<path fill="none" stroke="black" d="M1055.45,-203.29C1065.63,-203.29 1076.27,-203.29 1086.05,-203.29"/>
<polygon fill="black" stroke="black" points="1085.93,-206.79 1095.93,-203.29 1085.93,-199.79 1085.93,-206.79"/>
</g>
<!-- 1990980802064 -->
<g id="node16" class="node">
<title>1990980802064</title>
<polygon fill="white" stroke="black" points="1958.25,-185.29 1839.5,-185.29 1839.5,-149.29 1958.25,-149.29 1958.25,-185.29"/>
<text text-anchor="middle" x="1898.88" y="-162.26" font-family="Times New Roman,serif" font-size="12.00">Acquisition Approval</text>
</g>
<!-- 1990978391408 -->
<g id="node38" class="node">
<title>1990978391408</title>
<ellipse fill="white" stroke="black" cx="2025.25" cy="-167.29" rx="27" ry="27"/>
<ellipse fill="none" stroke="black" cx="2025.25" cy="-167.29" rx="31" ry="31"/>
<text text-anchor="start" x="2008.75" y="-151.89" font-family="Times New Roman,serif" font-size="32.00">■</text>
</g>
<!-- 1990980802064&#45;&gt;1990978391408 -->
<g id="edge42" class="edge">
<title>1990980802064&#45;&gt;1990978391408</title>
<path fill="none" stroke="black" d="M1958.42,-167.29C1966.54,-167.29 1974.74,-167.29 1982.46,-167.29"/>
<polygon fill="black" stroke="black" points="1982.24,-170.79 1992.24,-167.29 1982.24,-163.79 1982.24,-170.79"/>
</g>
<!-- 1990978396112 -->
<g id="node17" class="node">
<title>1990978396112</title>
<ellipse fill="white" stroke="black" cx="27" cy="-155.29" rx="27" ry="27"/>
<text text-anchor="start" x="9.75" y="-137.99" font-family="Times New Roman,serif" font-size="34.00">●</text>
</g>
<!-- 1990978396112&#45;&gt;1990979048448 -->
<g id="edge1" class="edge">
<title>1990978396112&#45;&gt;1990979048448</title>
<path fill="none" stroke="black" d="M54.36,-155.29C61.78,-155.29 70.11,-155.29 78.46,-155.29"/>
<polygon fill="black" stroke="black" points="78.27,-158.79 88.27,-155.29 78.27,-151.79 78.27,-158.79"/>
</g>
<!-- 1990980810128&#45;&gt;1990980808784 -->
<g id="edge8" class="edge">
<title>1990980810128&#45;&gt;1990980808784</title>
<path fill="none" stroke="black" d="M263.15,-256.8C272.58,-257.34 283.5,-257.97 294.14,-258.58"/>
<polygon fill="black" stroke="black" points="293.8,-262.07 303.99,-259.14 294.2,-255.08 293.8,-262.07"/>
</g>
<!-- 1990979043504&#45;&gt;1990979052192 -->
<g id="edge7" class="edge">
<title>1990979043504&#45;&gt;1990979052192</title>
<path fill="none" stroke="black" d="M262.61,-185.74C271.05,-187.19 280.73,-188.86 290.36,-190.51"/>
<polygon fill="black" stroke="black" points="289.61,-193.93 300.06,-192.18 290.8,-187.04 289.61,-193.93"/>
</g>
<!-- 1990979055696&#45;&gt;1990979054832 -->
<g id="edge6" class="edge">
<title>1990979055696&#45;&gt;1990979054832</title>
<path fill="none" stroke="black" d="M476.23,-131.29C526.8,-131.29 639.07,-131.29 710.36,-131.29"/>
<polygon fill="black" stroke="black" points="710.35,-134.79 720.35,-131.29 710.35,-127.79 710.35,-134.79"/>
</g>
<!-- 1990980801872&#45;&gt;1990980808352 -->
<g id="edge9" class="edge">
<title>1990980801872&#45;&gt;1990980808352</title>
<path fill="none" stroke="black" d="M263.15,-53.28C270.48,-53 278.71,-52.68 287.01,-52.37"/>
<polygon fill="black" stroke="black" points="286.92,-55.87 296.78,-51.99 286.65,-48.88 286.92,-55.87"/>
</g>
<!-- 1990979050752&#45;&gt;1990979052912 -->
<g id="edge17" class="edge">
<title>1990979050752&#45;&gt;1990979052912</title>
<path fill="none" stroke="black" d="M917.91,-131.29C927.17,-131.29 937.98,-131.29 948.79,-131.29"/>
<polygon fill="black" stroke="black" points="948.49,-134.79 958.49,-131.29 948.49,-127.79 948.49,-134.79"/>
</g>
<!-- 1990980797360&#45;&gt;1990980812240 -->
<g id="edge15" class="edge">
<title>1990980797360&#45;&gt;1990980812240</title>
<path fill="none" stroke="black" d="M580.88,-30.04C621.59,-20.73 703.44,-4.29 773.88,-4.29 773.88,-4.29 773.88,-4.29 1008.62,-4.29 1072.79,-4.29 1098.73,12.86 1151.75,-23.29 1191.67,-50.51 1213.64,-104.58 1223.97,-138.17"/>
<polygon fill="black" stroke="black" points="1220.57,-139.03 1226.72,-147.66 1227.3,-137.08 1220.57,-139.03"/>
</g>
<!-- 1990979053008&#45;&gt;1990979048784 -->
<g id="edge18" class="edge">
<title>1990979053008&#45;&gt;1990979048784</title>
<path fill="none" stroke="black" d="M917.91,-59.29C925.12,-59.29 933.27,-59.29 941.62,-59.29"/>
<polygon fill="black" stroke="black" points="941.57,-62.79 951.57,-59.29 941.57,-55.79 941.57,-62.79"/>
</g>
<!-- 1990979053296&#45;&gt;1990979057904 -->
<g id="edge16" class="edge">
<title>1990979053296&#45;&gt;1990979057904</title>
<path fill="none" stroke="black" d="M476.29,-203.29C483.67,-203.29 491.98,-203.29 500.32,-203.29"/>
<polygon fill="black" stroke="black" points="500.14,-206.79 510.14,-203.29 500.14,-199.79 500.14,-206.79"/>
</g>
<!-- 1990980807536&#45;&gt;1990980804320 -->
<g id="edge19" class="edge">
<title>1990980807536&#45;&gt;1990980804320</title>
<path fill="none" stroke="black" d="M476.02,-287.07C485.22,-288.41 495.88,-289.96 506.27,-291.47"/>
<polygon fill="black" stroke="black" points="505.48,-294.89 515.88,-292.87 506.48,-287.97 505.48,-294.89"/>
</g>
<!-- 1990980802304&#45;&gt;1990980812240 -->
<g id="edge26" class="edge">
<title>1990980802304&#45;&gt;1990980812240</title>
<path fill="none" stroke="black" d="M1144.41,-78.35C1161.46,-95.76 1186.81,-121.65 1205.78,-141.02"/>
<polygon fill="black" stroke="black" points="1203.17,-143.36 1212.67,-148.06 1208.17,-138.46 1203.17,-143.36"/>
</g>
<!-- 1990979045664&#45;&gt;1990979059680 -->
<g id="edge28" class="edge">
<title>1990979045664&#45;&gt;1990979059680</title>
<path fill="none" stroke="black" d="M686.6,-203.29C696.94,-203.29 709.18,-203.29 721.18,-203.29"/>
<polygon fill="black" stroke="black" points="721.02,-206.79 731.02,-203.29 721.02,-199.79 721.02,-206.79"/>
</g>
<!-- 1990980803504&#45;&gt;1990980812240 -->
<g id="edge25" class="edge">
<title>1990980803504&#45;&gt;1990980812240</title>
<path fill="none" stroke="black" d="M1150.81,-139.82C1158.71,-142.51 1167.77,-145.59 1176.9,-148.7"/>
<polygon fill="black" stroke="black" points="1175.56,-151.94 1186.15,-151.85 1177.81,-145.31 1175.56,-151.94"/>
</g>
<!-- 1990980799424&#45;&gt;1990980812240 -->
<g id="edge27" class="edge">
<title>1990980799424&#45;&gt;1990980812240</title>
<path fill="none" stroke="black" d="M685.87,-312.23C728.07,-321.49 814.95,-338.29 889.5,-338.29 889.5,-338.29 889.5,-338.29 1008.62,-338.29 1073.36,-338.29 1099.28,-349.2 1151.75,-311.29 1190.7,-283.14 1212.89,-229.83 1223.54,-196.57"/>
<polygon fill="black" stroke="black" points="1226.84,-197.74 1226.39,-187.16 1220.14,-195.71 1226.84,-197.74"/>
</g>
<!-- 1990980797648&#45;&gt;1990980807872 -->
<g id="edge29" class="edge">
<title>1990980797648&#45;&gt;1990980807872</title>
<path fill="none" stroke="black" d="M1367.73,-167.29C1375.01,-167.29 1383.22,-167.29 1391.59,-167.29"/>
<polygon fill="black" stroke="black" points="1391.53,-170.79 1401.53,-167.29 1391.53,-163.79 1391.53,-170.79"/>
</g>
<!-- 1990979053584&#45;&gt;1990969425408 -->
<g id="edge34" class="edge">
<title>1990979053584&#45;&gt;1990969425408</title>
<path fill="none" stroke="black" d="M917.91,-275.29C926.59,-275.29 936.63,-275.29 946.76,-275.29"/>
<polygon fill="black" stroke="black" points="946.66,-278.79 956.66,-275.29 946.66,-271.79 946.66,-278.79"/>
</g>
<!-- 1990980797216&#45;&gt;1990980797696 -->
<g id="edge33" class="edge">
<title>1990980797216&#45;&gt;1990980797696</title>
<path fill="none" stroke="black" d="M1595.11,-167.29C1602.53,-167.29 1610.86,-167.29 1619.21,-167.29"/>
<polygon fill="black" stroke="black" points="1619.02,-170.79 1629.02,-167.29 1619.02,-163.79 1619.02,-170.79"/>
</g>
<!-- 1990969425456&#45;&gt;1990969425360 -->
<g id="edge35" class="edge">
<title>1990969425456&#45;&gt;1990969425360</title>
<path fill="none" stroke="black" d="M917.91,-203.29C927.17,-203.29 937.98,-203.29 948.79,-203.29"/>
<polygon fill="black" stroke="black" points="948.49,-206.79 958.49,-203.29 948.49,-199.79 948.49,-206.79"/>
</g>
<!-- 1990980810560&#45;&gt;1990980812240 -->
<g id="edge40" class="edge">
<title>1990980810560&#45;&gt;1990980812240</title>
<path fill="none" stroke="black" d="M1150.81,-194.76C1158.71,-192.07 1167.77,-188.98 1176.9,-185.87"/>
<polygon fill="black" stroke="black" points="1177.81,-189.26 1186.15,-182.73 1175.56,-182.64 1177.81,-189.26"/>
</g>
<!-- 1990980800336&#45;&gt;1990980802064 -->
<g id="edge41" class="edge">
<title>1990980800336&#45;&gt;1990980802064</title>
<path fill="none" stroke="black" d="M1803.92,-167.29C1811.23,-167.29 1819.53,-167.29 1828.09,-167.29"/>
<polygon fill="black" stroke="black" points="1827.93,-170.79 1837.93,-167.29 1827.93,-163.79 1827.93,-170.79"/>
</g>
<!-- 1990980803168&#45;&gt;1990980812240 -->
<g id="edge39" class="edge">
<title>1990980803168&#45;&gt;1990980812240</title>
<path fill="none" stroke="black" d="M1144.41,-256.23C1161.46,-238.82 1186.81,-212.92 1205.78,-193.56"/>
<polygon fill="black" stroke="black" points="1208.17,-196.11 1212.67,-186.52 1203.17,-191.22 1208.17,-196.11"/>
</g>
</g>
</svg>
