<?xml version="1.0" encoding="UTF-8" standalone="no"?>
<!DOCTYPE svg PUBLIC "-//W3C//DTD SVG 1.1//EN"
 "http://www.w3.org/Graphics/SVG/1.1/DTD/svg11.dtd">
<!-- Generated by graphviz version 11.0.0 (20240428.1522)
 -->
<!-- Title: imdf_net_1754051830.8170905 Pages: 1 -->
<svg width="3070pt" height="143pt"
 viewBox="0.00 0.00 3070.25 143.00" xmlns="http://www.w3.org/2000/svg" xmlns:xlink="http://www.w3.org/1999/xlink">
<g id="graph0" class="graph" transform="scale(1 1) rotate(0) translate(4 139)">
<title>imdf_net_1754051830.8170905</title>
<polygon fill="white" stroke="none" points="-4,4 -4,-139 3066.25,-139 3066.25,4 -4,4"/>
<!-- 1990980174864 -->
<g id="node1" class="node">
<title>1990980174864</title>
<polygon fill="white" stroke="black" points="175,-109 90,-109 90,-73 175,-73 175,-109"/>
<text text-anchor="middle" x="132.5" y="-85.97" font-family="Times New Roman,serif" font-size="12.00">Seed Sourcing</text>
</g>
<!-- 1990980185760 -->
<g id="node18" class="node">
<title>1990980185760</title>
<ellipse fill="white" stroke="black" cx="238" cy="-91" rx="27" ry="27"/>
</g>
<!-- 1990980174864&#45;&gt;1990980185760 -->
<g id="edge2" class="edge">
<title>1990980174864&#45;&gt;1990980185760</title>
<path fill="none" stroke="black" d="M175.3,-91C183.2,-91 191.42,-91 199.18,-91"/>
<polygon fill="black" stroke="black" points="199.01,-94.5 209.01,-91 199.01,-87.5 199.01,-94.5"/>
</g>
<!-- 1990980175728 -->
<g id="node2" class="node">
<title>1990980175728</title>
<polygon fill="white" stroke="black" points="392.75,-82 301,-82 301,-46 392.75,-46 392.75,-82"/>
<text text-anchor="middle" x="346.88" y="-58.98" font-family="Times New Roman,serif" font-size="12.00">Env Monitoring</text>
</g>
<!-- 1990980188160 -->
<g id="node19" class="node">
<title>1990980188160</title>
<ellipse fill="white" stroke="black" cx="455.75" cy="-63" rx="27" ry="27"/>
</g>
<!-- 1990980175728&#45;&gt;1990980188160 -->
<g id="edge4" class="edge">
<title>1990980175728&#45;&gt;1990980188160</title>
<path fill="none" stroke="black" d="M393.2,-63.58C401.21,-63.5 409.47,-63.42 417.23,-63.35"/>
<polygon fill="black" stroke="black" points="417.06,-66.85 427.03,-63.26 417,-59.85 417.06,-66.85"/>
</g>
<!-- 1990980121136 -->
<g id="node3" class="node">
<title>1990980121136</title>
<polygon fill="white" stroke="black" points="605.25,-135 518.75,-135 518.75,-99 605.25,-99 605.25,-135"/>
<text text-anchor="middle" x="562" y="-111.97" font-family="Times New Roman,serif" font-size="12.00">Nutrient Blend</text>
</g>
<!-- 1990980121136&#45;&gt;1990980185760 -->
<g id="edge7" class="edge">
<title>1990980121136&#45;&gt;1990980185760</title>
<path fill="none" stroke="black" d="M518.49,-113.57C455.15,-108.45 337,-98.91 276.62,-94.04"/>
<polygon fill="black" stroke="black" points="277.11,-90.57 266.86,-93.25 276.55,-97.54 277.11,-90.57"/>
</g>
<!-- 1990980109760 -->
<g id="node4" class="node">
<title>1990980109760</title>
<polygon fill="white" stroke="black" points="604.88,-81 519.12,-81 519.12,-45 604.88,-45 604.88,-81"/>
<text text-anchor="middle" x="562" y="-57.98" font-family="Times New Roman,serif" font-size="12.00">Crop Tracking</text>
</g>
<!-- 1990980110768 -->
<g id="node20" class="node">
<title>1990980110768</title>
<ellipse fill="white" stroke="black" cx="668.25" cy="-63" rx="27" ry="27"/>
</g>
<!-- 1990980109760&#45;&gt;1990980110768 -->
<g id="edge8" class="edge">
<title>1990980109760&#45;&gt;1990980110768</title>
<path fill="none" stroke="black" d="M605.1,-63C613.13,-63 621.49,-63 629.38,-63"/>
<polygon fill="black" stroke="black" points="629.37,-66.5 639.37,-63 629.37,-59.5 629.37,-66.5"/>
</g>
<!-- 1990980122000 -->
<g id="node5" class="node">
<title>1990980122000</title>
<polygon fill="white" stroke="black" points="839.5,-81 731.25,-81 731.25,-45 839.5,-45 839.5,-81"/>
<text text-anchor="middle" x="785.38" y="-57.98" font-family="Times New Roman,serif" font-size="12.00">Automated Harvest</text>
</g>
<!-- 1990980121568 -->
<g id="node21" class="node">
<title>1990980121568</title>
<ellipse fill="white" stroke="black" cx="902.5" cy="-63" rx="27" ry="27"/>
</g>
<!-- 1990980122000&#45;&gt;1990980121568 -->
<g id="edge10" class="edge">
<title>1990980122000&#45;&gt;1990980121568</title>
<path fill="none" stroke="black" d="M839.89,-63C847.91,-63 856.03,-63 863.63,-63"/>
<polygon fill="black" stroke="black" points="863.54,-66.5 873.54,-63 863.54,-59.5 863.54,-66.5"/>
</g>
<!-- 1990977968304 -->
<g id="node6" class="node">
<title>1990977968304</title>
<polygon fill="white" stroke="black" points="1053.5,-81 965.5,-81 965.5,-45 1053.5,-45 1053.5,-81"/>
<text text-anchor="middle" x="1009.5" y="-57.98" font-family="Times New Roman,serif" font-size="12.00">Quality Inspect</text>
</g>
<!-- 1990977967296 -->
<g id="node22" class="node">
<title>1990977967296</title>
<ellipse fill="white" stroke="black" cx="1116.5" cy="-63" rx="27" ry="27"/>
</g>
<!-- 1990977968304&#45;&gt;1990977967296 -->
<g id="edge12" class="edge">
<title>1990977968304&#45;&gt;1990977967296</title>
<path fill="none" stroke="black" d="M1053.81,-63C1061.77,-63 1070.01,-63 1077.78,-63"/>
<polygon fill="black" stroke="black" points="1077.6,-66.5 1087.6,-63 1077.6,-59.5 1077.6,-66.5"/>
</g>
<!-- 1990977969168 -->
<g id="node7" class="node">
<title>1990977969168</title>
<polygon fill="white" stroke="black" points="1272,-81 1179.5,-81 1179.5,-45 1272,-45 1272,-81"/>
<text text-anchor="middle" x="1225.75" y="-57.98" font-family="Times New Roman,serif" font-size="12.00">Pack Customize</text>
</g>
<!-- 1990977968400 -->
<g id="node23" class="node">
<title>1990977968400</title>
<ellipse fill="white" stroke="black" cx="1335" cy="-63" rx="27" ry="27"/>
</g>
<!-- 1990977969168&#45;&gt;1990977968400 -->
<g id="edge14" class="edge">
<title>1990977969168&#45;&gt;1990977968400</title>
<path fill="none" stroke="black" d="M1272.23,-63C1280.27,-63 1288.56,-63 1296.35,-63"/>
<polygon fill="black" stroke="black" points="1296.19,-66.5 1306.19,-63 1296.19,-59.5 1296.19,-66.5"/>
</g>
<!-- 1990977963840 -->
<g id="node8" class="node">
<title>1990977963840</title>
<polygon fill="white" stroke="black" points="1476.25,-81 1398,-81 1398,-45 1476.25,-45 1476.25,-81"/>
<text text-anchor="middle" x="1437.12" y="-57.98" font-family="Times New Roman,serif" font-size="12.00">Cold Storage</text>
</g>
<!-- 1990977967968 -->
<g id="node24" class="node">
<title>1990977967968</title>
<ellipse fill="white" stroke="black" cx="1539.25" cy="-63" rx="27" ry="27"/>
</g>
<!-- 1990977963840&#45;&gt;1990977967968 -->
<g id="edge16" class="edge">
<title>1990977963840&#45;&gt;1990977967968</title>
<path fill="none" stroke="black" d="M1476.55,-63C1484.39,-63 1492.63,-63 1500.44,-63"/>
<polygon fill="black" stroke="black" points="1500.36,-66.5 1510.36,-63 1500.36,-59.5 1500.36,-66.5"/>
</g>
<!-- 1990977966624 -->
<g id="node9" class="node">
<title>1990977966624</title>
<polygon fill="white" stroke="black" points="1691.75,-81 1602.25,-81 1602.25,-45 1691.75,-45 1691.75,-81"/>
<text text-anchor="middle" x="1647" y="-57.98" font-family="Times New Roman,serif" font-size="12.00">Route Planning</text>
</g>
<!-- 1990977968496 -->
<g id="node25" class="node">
<title>1990977968496</title>
<ellipse fill="white" stroke="black" cx="1754.75" cy="-63" rx="27" ry="27"/>
</g>
<!-- 1990977966624&#45;&gt;1990977968496 -->
<g id="edge18" class="edge">
<title>1990977966624&#45;&gt;1990977968496</title>
<path fill="none" stroke="black" d="M1692.23,-63C1700.2,-63 1708.44,-63 1716.2,-63"/>
<polygon fill="black" stroke="black" points="1715.99,-66.5 1725.99,-63 1715.99,-59.5 1715.99,-66.5"/>
</g>
<!-- 1990979478800 -->
<g id="node10" class="node">
<title>1990979478800</title>
<polygon fill="white" stroke="black" points="1895.25,-81 1817.75,-81 1817.75,-45 1895.25,-45 1895.25,-81"/>
<text text-anchor="middle" x="1856.5" y="-57.98" font-family="Times New Roman,serif" font-size="12.00">EV Dispatch</text>
</g>
<!-- 1990981171968 -->
<g id="node26" class="node">
<title>1990981171968</title>
<ellipse fill="white" stroke="black" cx="1958.25" cy="-63" rx="27" ry="27"/>
</g>
<!-- 1990979478800&#45;&gt;1990981171968 -->
<g id="edge20" class="edge">
<title>1990979478800&#45;&gt;1990981171968</title>
<path fill="none" stroke="black" d="M1895.5,-63C1903.32,-63 1911.56,-63 1919.38,-63"/>
<polygon fill="black" stroke="black" points="1919.3,-66.5 1929.3,-63 1919.3,-59.5 1919.3,-66.5"/>
</g>
<!-- 1990981164576 -->
<g id="node11" class="node">
<title>1990981164576</title>
<polygon fill="white" stroke="black" points="2120.5,-81 2021.25,-81 2021.25,-45 2120.5,-45 2120.5,-81"/>
<text text-anchor="middle" x="2070.88" y="-57.98" font-family="Times New Roman,serif" font-size="12.00">Inventory Update</text>
</g>
<!-- 1990981170288 -->
<g id="node27" class="node">
<title>1990981170288</title>
<ellipse fill="white" stroke="black" cx="2183.5" cy="-63" rx="27" ry="27"/>
</g>
<!-- 1990981164576&#45;&gt;1990981170288 -->
<g id="edge22" class="edge">
<title>1990981164576&#45;&gt;1990981170288</title>
<path fill="none" stroke="black" d="M2120.72,-63C2128.79,-63 2137.05,-63 2144.79,-63"/>
<polygon fill="black" stroke="black" points="2144.55,-66.5 2154.55,-63 2144.55,-59.5 2144.55,-66.5"/>
</g>
<!-- 1990981170384 -->
<g id="node12" class="node">
<title>1990981170384</title>
<polygon fill="white" stroke="black" points="2357,-81 2246.5,-81 2246.5,-45 2357,-45 2357,-81"/>
<text text-anchor="middle" x="2301.75" y="-57.98" font-family="Times New Roman,serif" font-size="12.00">Customer Feedback</text>
</g>
<!-- 1990981159632 -->
<g id="node28" class="node">
<title>1990981159632</title>
<ellipse fill="white" stroke="black" cx="2420" cy="-99" rx="27" ry="27"/>
</g>
<!-- 1990981170384&#45;&gt;1990981159632 -->
<g id="edge24" class="edge">
<title>1990981170384&#45;&gt;1990981159632</title>
<path fill="none" stroke="black" d="M2357.47,-79.95C2366.12,-82.62 2374.86,-85.33 2382.94,-87.83"/>
<polygon fill="black" stroke="black" points="2381.8,-91.15 2392.39,-90.76 2383.88,-84.46 2381.8,-91.15"/>
</g>
<!-- 1990980189936 -->
<g id="node29" class="node">
<title>1990980189936</title>
<ellipse fill="white" stroke="black" cx="2420" cy="-27" rx="27" ry="27"/>
</g>
<!-- 1990981170384&#45;&gt;1990980189936 -->
<g id="edge25" class="edge">
<title>1990981170384&#45;&gt;1990980189936</title>
<path fill="none" stroke="black" d="M2357.47,-46.05C2366.12,-43.38 2374.86,-40.67 2382.94,-38.17"/>
<polygon fill="black" stroke="black" points="2383.88,-41.54 2392.39,-35.24 2381.8,-34.85 2383.88,-41.54"/>
</g>
<!-- 1990980184512 -->
<g id="node13" class="node">
<title>1990980184512</title>
<polygon fill="white" stroke="black" points="2569.5,-49 2483,-49 2483,-13 2569.5,-13 2569.5,-49"/>
<text text-anchor="middle" x="2526.25" y="-25.98" font-family="Times New Roman,serif" font-size="12.00">Waste Recycle</text>
</g>
<!-- 1990980184272 -->
<g id="node31" class="node">
<title>1990980184272</title>
<ellipse fill="white" stroke="black" cx="2739.88" cy="-34" rx="27" ry="27"/>
</g>
<!-- 1990980184512&#45;&gt;1990980184272 -->
<g id="edge29" class="edge">
<title>1990980184512&#45;&gt;1990980184272</title>
<path fill="none" stroke="black" d="M2569.82,-31.6C2608.27,-32.15 2664.31,-32.94 2701.17,-33.47"/>
<polygon fill="black" stroke="black" points="2700.86,-36.96 2710.9,-33.6 2700.95,-29.96 2700.86,-36.96"/>
</g>
<!-- 1990980881632 -->
<g id="node14" class="node">
<title>1990980881632</title>
<polygon fill="white" stroke="black" points="2569.5,-116 2483,-116 2483,-80 2569.5,-80 2569.5,-116"/>
<text text-anchor="middle" x="2526.25" y="-92.97" font-family="Times New Roman,serif" font-size="12.00">Data Analytics</text>
</g>
<!-- 1990980892576 -->
<g id="node30" class="node">
<title>1990980892576</title>
<ellipse fill="white" stroke="black" cx="2632.5" cy="-98" rx="27" ry="27"/>
</g>
<!-- 1990980881632&#45;&gt;1990980892576 -->
<g id="edge28" class="edge">
<title>1990980881632&#45;&gt;1990980892576</title>
<path fill="none" stroke="black" d="M2569.95,-98C2577.87,-98 2586.09,-98 2593.84,-98"/>
<polygon fill="black" stroke="black" points="2593.64,-101.5 2603.64,-98 2593.64,-94.5 2593.64,-101.5"/>
</g>
<!-- 1990980182112 -->
<g id="node15" class="node">
<title>1990980182112</title>
<polygon fill="black" stroke="black" points="2964.25,-83 2910.25,-83 2910.25,-47 2964.25,-47 2964.25,-83"/>
</g>
<!-- 1990979171104 -->
<g id="node33" class="node">
<title>1990979171104</title>
<ellipse fill="white" stroke="black" cx="3031.25" cy="-65" rx="27" ry="27"/>
<ellipse fill="none" stroke="black" cx="3031.25" cy="-65" rx="31" ry="31"/>
<text text-anchor="start" x="3014.75" y="-49.6" font-family="Times New Roman,serif" font-size="32.00">■</text>
</g>
<!-- 1990980182112&#45;&gt;1990979171104 -->
<g id="edge33" class="edge">
<title>1990980182112&#45;&gt;1990979171104</title>
<path fill="none" stroke="black" d="M2964.37,-65C2971.88,-65 2980.26,-65 2988.47,-65"/>
<polygon fill="black" stroke="black" points="2988.33,-68.5 2998.33,-65 2988.33,-61.5 2988.33,-68.5"/>
</g>
<!-- 1990980880480 -->
<g id="node16" class="node">
<title>1990980880480</title>
<polygon fill="white" stroke="black" points="2784.25,-116 2695.5,-116 2695.5,-80 2784.25,-80 2784.25,-116"/>
<text text-anchor="middle" x="2739.88" y="-92.97" font-family="Times New Roman,serif" font-size="12.00">Yield Optimize</text>
</g>
<!-- 1990981167984 -->
<g id="node32" class="node">
<title>1990981167984</title>
<ellipse fill="white" stroke="black" cx="2847.25" cy="-92" rx="27" ry="27"/>
</g>
<!-- 1990980880480&#45;&gt;1990981167984 -->
<g id="edge32" class="edge">
<title>1990980880480&#45;&gt;1990981167984</title>
<path fill="none" stroke="black" d="M2784.65,-95.51C2792.61,-95.05 2800.85,-94.59 2808.61,-94.14"/>
<polygon fill="black" stroke="black" points="2808.64,-97.65 2818.42,-93.58 2808.24,-90.66 2808.64,-97.65"/>
</g>
<!-- 1990979165632 -->
<g id="node17" class="node">
<title>1990979165632</title>
<ellipse fill="white" stroke="black" cx="27" cy="-91" rx="27" ry="27"/>
<text text-anchor="start" x="9.75" y="-73.7" font-family="Times New Roman,serif" font-size="34.00">●</text>
</g>
<!-- 1990979165632&#45;&gt;1990980174864 -->
<g id="edge1" class="edge">
<title>1990979165632&#45;&gt;1990980174864</title>
<path fill="none" stroke="black" d="M54.39,-91C61.8,-91 70.13,-91 78.51,-91"/>
<polygon fill="black" stroke="black" points="78.36,-94.5 88.36,-91 78.36,-87.5 78.36,-94.5"/>
</g>
<!-- 1990980185760&#45;&gt;1990980175728 -->
<g id="edge3" class="edge">
<title>1990980185760&#45;&gt;1990980175728</title>
<path fill="none" stroke="black" d="M264.6,-84.53C272.24,-82.6 280.94,-80.41 289.73,-78.18"/>
<polygon fill="black" stroke="black" points="290.54,-81.59 299.38,-75.75 288.83,-74.8 290.54,-81.59"/>
</g>
<!-- 1990980188160&#45;&gt;1990980121136 -->
<g id="edge5" class="edge">
<title>1990980188160&#45;&gt;1990980121136</title>
<path fill="none" stroke="black" d="M480.15,-75.12C490.56,-80.51 503.19,-87.06 515.35,-93.35"/>
<polygon fill="black" stroke="black" points="513.56,-96.37 524.05,-97.86 516.78,-90.15 513.56,-96.37"/>
</g>
<!-- 1990980188160&#45;&gt;1990980109760 -->
<g id="edge6" class="edge">
<title>1990980188160&#45;&gt;1990980109760</title>
<path fill="none" stroke="black" d="M483.06,-63C490.52,-63 498.93,-63 507.39,-63"/>
<polygon fill="black" stroke="black" points="507.37,-66.5 517.37,-63 507.37,-59.5 507.37,-66.5"/>
</g>
<!-- 1990980110768&#45;&gt;1990980122000 -->
<g id="edge9" class="edge">
<title>1990980110768&#45;&gt;1990980122000</title>
<path fill="none" stroke="black" d="M695.66,-63C702.87,-63 711.02,-63 719.37,-63"/>
<polygon fill="black" stroke="black" points="719.32,-66.5 729.32,-63 719.32,-59.5 719.32,-66.5"/>
</g>
<!-- 1990980121568&#45;&gt;1990977968304 -->
<g id="edge11" class="edge">
<title>1990980121568&#45;&gt;1990977968304</title>
<path fill="none" stroke="black" d="M930,-63C937.35,-63 945.61,-63 953.94,-63"/>
<polygon fill="black" stroke="black" points="953.75,-66.5 963.75,-63 953.75,-59.5 953.75,-66.5"/>
</g>
<!-- 1990977967296&#45;&gt;1990977969168 -->
<g id="edge13" class="edge">
<title>1990977967296&#45;&gt;1990977969168</title>
<path fill="none" stroke="black" d="M1143.74,-63C1151.07,-63 1159.34,-63 1167.72,-63"/>
<polygon fill="black" stroke="black" points="1167.62,-66.5 1177.62,-63 1167.62,-59.5 1167.62,-66.5"/>
</g>
<!-- 1990977968400&#45;&gt;1990977963840 -->
<g id="edge15" class="edge">
<title>1990977968400&#45;&gt;1990977963840</title>
<path fill="none" stroke="black" d="M1362.31,-63C1369.63,-63 1377.84,-63 1386.05,-63"/>
<polygon fill="black" stroke="black" points="1386.05,-66.5 1396.05,-63 1386.05,-59.5 1386.05,-66.5"/>
</g>
<!-- 1990977967968&#45;&gt;1990977966624 -->
<g id="edge17" class="edge">
<title>1990977967968&#45;&gt;1990977966624</title>
<path fill="none" stroke="black" d="M1566.66,-63C1573.98,-63 1582.21,-63 1590.53,-63"/>
<polygon fill="black" stroke="black" points="1590.33,-66.5 1600.33,-63 1590.33,-59.5 1590.33,-66.5"/>
</g>
<!-- 1990977968496&#45;&gt;1990979478800 -->
<g id="edge19" class="edge">
<title>1990977968496&#45;&gt;1990979478800</title>
<path fill="none" stroke="black" d="M1782.22,-63C1789.52,-63 1797.68,-63 1805.83,-63"/>
<polygon fill="black" stroke="black" points="1805.75,-66.5 1815.75,-63 1805.75,-59.5 1805.75,-66.5"/>
</g>
<!-- 1990981171968&#45;&gt;1990981164576 -->
<g id="edge21" class="edge">
<title>1990981171968&#45;&gt;1990981164576</title>
<path fill="none" stroke="black" d="M1985.75,-63C1993.04,-63 2001.27,-63 2009.64,-63"/>
<polygon fill="black" stroke="black" points="2009.57,-66.5 2019.57,-63 2009.57,-59.5 2009.57,-66.5"/>
</g>
<!-- 1990981170288&#45;&gt;1990981170384 -->
<g id="edge23" class="edge">
<title>1990981170288&#45;&gt;1990981170384</title>
<path fill="none" stroke="black" d="M2210.88,-63C2218.24,-63 2226.58,-63 2235.14,-63"/>
<polygon fill="black" stroke="black" points="2234.94,-66.5 2244.94,-63 2234.94,-59.5 2234.94,-66.5"/>
</g>
<!-- 1990981159632&#45;&gt;1990980881632 -->
<g id="edge26" class="edge">
<title>1990981159632&#45;&gt;1990980881632</title>
<path fill="none" stroke="black" d="M2447.31,-98.75C2454.69,-98.68 2462.99,-98.6 2471.36,-98.52"/>
<polygon fill="black" stroke="black" points="2471.25,-102.02 2481.21,-98.42 2471.18,-95.02 2471.25,-102.02"/>
</g>
<!-- 1990980189936&#45;&gt;1990980184512 -->
<g id="edge27" class="edge">
<title>1990980189936&#45;&gt;1990980184512</title>
<path fill="none" stroke="black" d="M2447.31,-28.01C2454.69,-28.29 2462.99,-28.61 2471.36,-28.93"/>
<polygon fill="black" stroke="black" points="2471.09,-32.42 2481.21,-29.31 2471.35,-25.43 2471.09,-32.42"/>
</g>
<!-- 1990980892576&#45;&gt;1990980880480 -->
<g id="edge31" class="edge">
<title>1990980892576&#45;&gt;1990980880480</title>
<path fill="none" stroke="black" d="M2659.82,-98C2667.19,-98 2675.5,-98 2683.88,-98"/>
<polygon fill="black" stroke="black" points="2683.77,-101.5 2693.77,-98 2683.77,-94.5 2683.77,-101.5"/>
</g>
<!-- 1990980184272&#45;&gt;1990980182112 -->
<g id="edge30" class="edge">
<title>1990980184272&#45;&gt;1990980182112</title>
<path fill="none" stroke="black" d="M2766.82,-38.12C2800.59,-43.47 2859.86,-52.88 2898.58,-59.02"/>
<polygon fill="black" stroke="black" points="2897.97,-62.47 2908.39,-60.58 2899.06,-55.56 2897.97,-62.47"/>
</g>
<!-- 1990981167984&#45;&gt;1990980182112 -->
<g id="edge34" class="edge">
<title>1990981167984&#45;&gt;1990980182112</title>
<path fill="none" stroke="black" d="M2873.23,-84.34C2881.31,-81.86 2890.44,-79.06 2899.2,-76.37"/>
<polygon fill="black" stroke="black" points="2900,-79.78 2908.53,-73.5 2897.94,-73.09 2900,-79.78"/>
</g>
</g>
</svg>
