<?xml version="1.0" encoding="UTF-8" standalone="no"?>
<!DOCTYPE svg PUBLIC "-//W3C//DTD SVG 1.1//EN"
 "http://www.w3.org/Graphics/SVG/1.1/DTD/svg11.dtd">
<!-- Generated by graphviz version 11.0.0 (20240428.1522)
 -->
<!-- Title: imdf_net_1754051845.7702308 Pages: 1 -->
<svg width="3114pt" height="70pt"
 viewBox="0.00 0.00 3114.25 70.00" xmlns="http://www.w3.org/2000/svg" xmlns:xlink="http://www.w3.org/1999/xlink">
<g id="graph0" class="graph" transform="scale(1 1) rotate(0) translate(4 66)">
<title>imdf_net_1754051845.7702308</title>
<polygon fill="white" stroke="none" points="-4,4 -4,-66 3110.25,-66 3110.25,4 -4,4"/>
<!-- 1990976667568 -->
<g id="node1" class="node">
<title>1990976667568</title>
<polygon fill="white" stroke="black" points="160.75,-49 90,-49 90,-13 160.75,-13 160.75,-49"/>
<text text-anchor="middle" x="125.38" y="-25.98" font-family="Times New Roman,serif" font-size="12.00">Site Survey</text>
</g>
<!-- 1990976661088 -->
<g id="node17" class="node">
<title>1990976661088</title>
<ellipse fill="white" stroke="black" cx="223.75" cy="-31" rx="27" ry="27"/>
</g>
<!-- 1990976667568&#45;&gt;1990976661088 -->
<g id="edge2" class="edge">
<title>1990976667568&#45;&gt;1990976661088</title>
<path fill="none" stroke="black" d="M161.17,-31C168.9,-31 177.14,-31 184.98,-31"/>
<polygon fill="black" stroke="black" points="184.97,-34.5 194.97,-31 184.97,-27.5 184.97,-34.5"/>
</g>
<!-- 1990976651824 -->
<g id="node2" class="node">
<title>1990976651824</title>
<polygon fill="white" stroke="black" points="365.75,-49 286.75,-49 286.75,-13 365.75,-13 365.75,-49"/>
<text text-anchor="middle" x="326.25" y="-25.98" font-family="Times New Roman,serif" font-size="12.00">Impact Study</text>
</g>
<!-- 1990976655520 -->
<g id="node18" class="node">
<title>1990976655520</title>
<ellipse fill="white" stroke="black" cx="428.75" cy="-31" rx="27" ry="27"/>
</g>
<!-- 1990976651824&#45;&gt;1990976655520 -->
<g id="edge4" class="edge">
<title>1990976651824&#45;&gt;1990976655520</title>
<path fill="none" stroke="black" d="M366.11,-31C373.96,-31 382.2,-31 390.01,-31"/>
<polygon fill="black" stroke="black" points="389.91,-34.5 399.91,-31 389.91,-27.5 389.91,-34.5"/>
</g>
<!-- 1990976653408 -->
<g id="node3" class="node">
<title>1990976653408</title>
<polygon fill="white" stroke="black" points="579,-49 491.75,-49 491.75,-13 579,-13 579,-49"/>
<text text-anchor="middle" x="535.38" y="-25.98" font-family="Times New Roman,serif" font-size="12.00">System Design</text>
</g>
<!-- 1990976654896 -->
<g id="node19" class="node">
<title>1990976654896</title>
<ellipse fill="white" stroke="black" cx="642" cy="-31" rx="27" ry="27"/>
</g>
<!-- 1990976653408&#45;&gt;1990976654896 -->
<g id="edge6" class="edge">
<title>1990976653408&#45;&gt;1990976654896</title>
<path fill="none" stroke="black" d="M579.23,-31C587.18,-31 595.42,-31 603.2,-31"/>
<polygon fill="black" stroke="black" points="603.04,-34.5 613.04,-31 603.04,-27.5 603.04,-34.5"/>
</g>
<!-- 1990976658208 -->
<g id="node4" class="node">
<title>1990976658208</title>
<polygon fill="white" stroke="black" points="787.75,-49 705,-49 705,-13 787.75,-13 787.75,-49"/>
<text text-anchor="middle" x="746.38" y="-25.98" font-family="Times New Roman,serif" font-size="12.00">AI Integration</text>
</g>
<!-- 1990976662096 -->
<g id="node20" class="node">
<title>1990976662096</title>
<ellipse fill="white" stroke="black" cx="850.75" cy="-31" rx="27" ry="27"/>
</g>
<!-- 1990976658208&#45;&gt;1990976662096 -->
<g id="edge8" class="edge">
<title>1990976658208&#45;&gt;1990976662096</title>
<path fill="none" stroke="black" d="M788.13,-31C795.98,-31 804.17,-31 811.92,-31"/>
<polygon fill="black" stroke="black" points="811.74,-34.5 821.74,-31 811.74,-27.5 811.74,-34.5"/>
</g>
<!-- 1990979323520 -->
<g id="node5" class="node">
<title>1990979323520</title>
<polygon fill="white" stroke="black" points="985.25,-49 913.75,-49 913.75,-13 985.25,-13 985.25,-49"/>
<text text-anchor="middle" x="949.5" y="-25.98" font-family="Times New Roman,serif" font-size="12.00">Light Setup</text>
</g>
<!-- 1990979323856 -->
<g id="node21" class="node">
<title>1990979323856</title>
<ellipse fill="white" stroke="black" cx="1048.25" cy="-31" rx="27" ry="27"/>
</g>
<!-- 1990979323520&#45;&gt;1990979323856 -->
<g id="edge10" class="edge">
<title>1990979323520&#45;&gt;1990979323856</title>
<path fill="none" stroke="black" d="M985.7,-31C993.45,-31 1001.69,-31 1009.54,-31"/>
<polygon fill="black" stroke="black" points="1009.51,-34.5 1019.51,-31 1009.51,-27.5 1009.51,-34.5"/>
</g>
<!-- 1990979329472 -->
<g id="node6" class="node">
<title>1990979329472</title>
<polygon fill="white" stroke="black" points="1183.5,-49 1111.25,-49 1111.25,-13 1183.5,-13 1183.5,-49"/>
<text text-anchor="middle" x="1147.38" y="-25.98" font-family="Times New Roman,serif" font-size="12.00">Rack Install</text>
</g>
<!-- 1990979332592 -->
<g id="node22" class="node">
<title>1990979332592</title>
<ellipse fill="white" stroke="black" cx="1246.5" cy="-31" rx="27" ry="27"/>
</g>
<!-- 1990979329472&#45;&gt;1990979332592 -->
<g id="edge12" class="edge">
<title>1990979329472&#45;&gt;1990979332592</title>
<path fill="none" stroke="black" d="M1183.99,-31C1191.68,-31 1199.84,-31 1207.62,-31"/>
<polygon fill="black" stroke="black" points="1207.5,-34.5 1217.5,-31 1207.5,-27.5 1207.5,-34.5"/>
</g>
<!-- 1990979335952 -->
<g id="node7" class="node">
<title>1990979335952</title>
<polygon fill="white" stroke="black" points="1380.25,-49 1309.5,-49 1309.5,-13 1380.25,-13 1380.25,-49"/>
<text text-anchor="middle" x="1344.88" y="-25.98" font-family="Times New Roman,serif" font-size="12.00">Seed Select</text>
</g>
<!-- 1990979334800 -->
<g id="node23" class="node">
<title>1990979334800</title>
<ellipse fill="white" stroke="black" cx="1443.25" cy="-31" rx="27" ry="27"/>
</g>
<!-- 1990979335952&#45;&gt;1990979334800 -->
<g id="edge14" class="edge">
<title>1990979335952&#45;&gt;1990979334800</title>
<path fill="none" stroke="black" d="M1380.67,-31C1388.4,-31 1396.64,-31 1404.48,-31"/>
<polygon fill="black" stroke="black" points="1404.47,-34.5 1414.47,-31 1404.47,-27.5 1404.47,-34.5"/>
</g>
<!-- 1990979334320 -->
<g id="node8" class="node">
<title>1990979334320</title>
<polygon fill="white" stroke="black" points="1586,-49 1506.25,-49 1506.25,-13 1586,-13 1586,-49"/>
<text text-anchor="middle" x="1546.12" y="-25.98" font-family="Times New Roman,serif" font-size="12.00">Nutrient Prep</text>
</g>
<!-- 1990979331296 -->
<g id="node24" class="node">
<title>1990979331296</title>
<ellipse fill="white" stroke="black" cx="1649" cy="-31" rx="27" ry="27"/>
</g>
<!-- 1990979334320&#45;&gt;1990979331296 -->
<g id="edge16" class="edge">
<title>1990979334320&#45;&gt;1990979331296</title>
<path fill="none" stroke="black" d="M1586.41,-31C1594.28,-31 1602.52,-31 1610.32,-31"/>
<polygon fill="black" stroke="black" points="1610.22,-34.5 1620.22,-31 1610.22,-27.5 1610.22,-34.5"/>
</g>
<!-- 1990979327600 -->
<g id="node9" class="node">
<title>1990979327600</title>
<polygon fill="white" stroke="black" points="1774.5,-49 1712,-49 1712,-13 1774.5,-13 1774.5,-49"/>
<text text-anchor="middle" x="1743.25" y="-25.98" font-family="Times New Roman,serif" font-size="12.00">Staff Hire</text>
</g>
<!-- 1990979328176 -->
<g id="node25" class="node">
<title>1990979328176</title>
<ellipse fill="white" stroke="black" cx="1837.5" cy="-31" rx="27" ry="27"/>
</g>
<!-- 1990979327600&#45;&gt;1990979328176 -->
<g id="edge18" class="edge">
<title>1990979327600&#45;&gt;1990979328176</title>
<path fill="none" stroke="black" d="M1774.97,-31C1782.64,-31 1790.97,-31 1798.93,-31"/>
<polygon fill="black" stroke="black" points="1798.72,-34.5 1808.72,-31 1798.72,-27.5 1798.72,-34.5"/>
</g>
<!-- 1990979328128 -->
<g id="node10" class="node">
<title>1990979328128</title>
<polygon fill="white" stroke="black" points="1967.5,-49 1900.5,-49 1900.5,-13 1967.5,-13 1967.5,-49"/>
<text text-anchor="middle" x="1934" y="-25.98" font-family="Times New Roman,serif" font-size="12.00">Staff Train</text>
</g>
<!-- 1990979327984 -->
<g id="node26" class="node">
<title>1990979327984</title>
<ellipse fill="white" stroke="black" cx="2030.5" cy="-31" rx="27" ry="27"/>
</g>
<!-- 1990979328128&#45;&gt;1990979327984 -->
<g id="edge20" class="edge">
<title>1990979328128&#45;&gt;1990979327984</title>
<path fill="none" stroke="black" d="M1967.79,-31C1975.52,-31 1983.83,-31 1991.77,-31"/>
<polygon fill="black" stroke="black" points="1991.5,-34.5 2001.5,-31 1991.5,-27.5 1991.5,-34.5"/>
</g>
<!-- 1990979331488 -->
<g id="node11" class="node">
<title>1990979331488</title>
<polygon fill="white" stroke="black" points="2171.75,-49 2093.5,-49 2093.5,-13 2171.75,-13 2171.75,-49"/>
<text text-anchor="middle" x="2132.62" y="-25.98" font-family="Times New Roman,serif" font-size="12.00">System Tune</text>
</g>
<!-- 1990979328560 -->
<g id="node27" class="node">
<title>1990979328560</title>
<ellipse fill="white" stroke="black" cx="2234.75" cy="-31" rx="27" ry="27"/>
</g>
<!-- 1990979331488&#45;&gt;1990979328560 -->
<g id="edge22" class="edge">
<title>1990979331488&#45;&gt;1990979328560</title>
<path fill="none" stroke="black" d="M2172.05,-31C2179.89,-31 2188.13,-31 2195.94,-31"/>
<polygon fill="black" stroke="black" points="2195.86,-34.5 2205.86,-31 2195.86,-27.5 2195.86,-34.5"/>
</g>
<!-- 1990979323136 -->
<g id="node12" class="node">
<title>1990979323136</title>
<polygon fill="white" stroke="black" points="2372.25,-49 2297.75,-49 2297.75,-13 2372.25,-13 2372.25,-49"/>
<text text-anchor="middle" x="2335" y="-25.98" font-family="Times New Roman,serif" font-size="12.00">Pest Control</text>
</g>
<!-- 1990979329184 -->
<g id="node28" class="node">
<title>1990979329184</title>
<ellipse fill="white" stroke="black" cx="2435.25" cy="-31" rx="27" ry="27"/>
</g>
<!-- 1990979323136&#45;&gt;1990979329184 -->
<g id="edge24" class="edge">
<title>1990979323136&#45;&gt;1990979329184</title>
<path fill="none" stroke="black" d="M2372.58,-31C2380.34,-31 2388.54,-31 2396.34,-31"/>
<polygon fill="black" stroke="black" points="2396.25,-34.5 2406.25,-31 2396.25,-27.5 2396.25,-34.5"/>
</g>
<!-- 1990979336000 -->
<g id="node13" class="node">
<title>1990979336000</title>
<polygon fill="white" stroke="black" points="2576.5,-49 2498.25,-49 2498.25,-13 2576.5,-13 2576.5,-49"/>
<text text-anchor="middle" x="2537.38" y="-25.98" font-family="Times New Roman,serif" font-size="12.00">Data Review</text>
</g>
<!-- 1990979326016 -->
<g id="node29" class="node">
<title>1990979326016</title>
<ellipse fill="white" stroke="black" cx="2639.5" cy="-31" rx="27" ry="27"/>
</g>
<!-- 1990979336000&#45;&gt;1990979326016 -->
<g id="edge26" class="edge">
<title>1990979336000&#45;&gt;1990979326016</title>
<path fill="none" stroke="black" d="M2576.8,-31C2584.64,-31 2592.88,-31 2600.69,-31"/>
<polygon fill="black" stroke="black" points="2600.61,-34.5 2610.61,-31 2600.61,-27.5 2600.61,-34.5"/>
</g>
<!-- 1990979321984 -->
<g id="node14" class="node">
<title>1990979321984</title>
<polygon fill="white" stroke="black" points="2801.75,-49 2702.5,-49 2702.5,-13 2801.75,-13 2801.75,-49"/>
<text text-anchor="middle" x="2752.12" y="-25.98" font-family="Times New Roman,serif" font-size="12.00">Community Meet</text>
</g>
<!-- 1990979337920 -->
<g id="node30" class="node">
<title>1990979337920</title>
<ellipse fill="white" stroke="black" cx="2864.75" cy="-31" rx="27" ry="27"/>
</g>
<!-- 1990979321984&#45;&gt;1990979337920 -->
<g id="edge28" class="edge">
<title>1990979321984&#45;&gt;1990979337920</title>
<path fill="none" stroke="black" d="M2801.97,-31C2810.04,-31 2818.3,-31 2826.04,-31"/>
<polygon fill="black" stroke="black" points="2825.8,-34.5 2835.8,-31 2825.8,-27.5 2825.8,-34.5"/>
</g>
<!-- 1990979322560 -->
<g id="node15" class="node">
<title>1990979322560</title>
<polygon fill="white" stroke="black" points="3008.25,-49 2927.75,-49 2927.75,-13 3008.25,-13 3008.25,-49"/>
<text text-anchor="middle" x="2968" y="-25.98" font-family="Times New Roman,serif" font-size="12.00">Sustain Audit</text>
</g>
<!-- 1990969786688 -->
<g id="node31" class="node">
<title>1990969786688</title>
<ellipse fill="white" stroke="black" cx="3075.25" cy="-31" rx="27" ry="27"/>
<ellipse fill="none" stroke="black" cx="3075.25" cy="-31" rx="31" ry="31"/>
<text text-anchor="start" x="3058.75" y="-15.6" font-family="Times New Roman,serif" font-size="32.00">■</text>
</g>
<!-- 1990979322560&#45;&gt;1990969786688 -->
<g id="edge30" class="edge">
<title>1990979322560&#45;&gt;1990969786688</title>
<path fill="none" stroke="black" d="M3008.49,-31C3016.41,-31 3024.75,-31 3032.73,-31"/>
<polygon fill="black" stroke="black" points="3032.57,-34.5 3042.57,-31 3032.57,-27.5 3032.57,-34.5"/>
</g>
<!-- 1990969790912 -->
<g id="node16" class="node">
<title>1990969790912</title>
<ellipse fill="white" stroke="black" cx="27" cy="-31" rx="27" ry="27"/>
<text text-anchor="start" x="9.75" y="-13.7" font-family="Times New Roman,serif" font-size="34.00">●</text>
</g>
<!-- 1990969790912&#45;&gt;1990976667568 -->
<g id="edge1" class="edge">
<title>1990969790912&#45;&gt;1990976667568</title>
<path fill="none" stroke="black" d="M54.33,-31C61.76,-31 70.06,-31 78.28,-31"/>
<polygon fill="black" stroke="black" points="78.24,-34.5 88.24,-31 78.24,-27.5 78.24,-34.5"/>
</g>
<!-- 1990976661088&#45;&gt;1990976651824 -->
<g id="edge3" class="edge">
<title>1990976661088&#45;&gt;1990976651824</title>
<path fill="none" stroke="black" d="M251.16,-31C258.59,-31 266.94,-31 275.27,-31"/>
<polygon fill="black" stroke="black" points="275.03,-34.5 285.03,-31 275.03,-27.5 275.03,-34.5"/>
</g>
<!-- 1990976655520&#45;&gt;1990976653408 -->
<g id="edge5" class="edge">
<title>1990976655520&#45;&gt;1990976653408</title>
<path fill="none" stroke="black" d="M456.15,-31C463.48,-31 471.71,-31 480.01,-31"/>
<polygon fill="black" stroke="black" points="479.78,-34.5 489.78,-31 479.78,-27.5 479.78,-34.5"/>
</g>
<!-- 1990976654896&#45;&gt;1990976658208 -->
<g id="edge7" class="edge">
<title>1990976654896&#45;&gt;1990976658208</title>
<path fill="none" stroke="black" d="M669.36,-31C676.78,-31 685.11,-31 693.46,-31"/>
<polygon fill="black" stroke="black" points="693.27,-34.5 703.27,-31 693.27,-27.5 693.27,-34.5"/>
</g>
<!-- 1990976662096&#45;&gt;1990979323520 -->
<g id="edge9" class="edge">
<title>1990976662096&#45;&gt;1990979323520</title>
<path fill="none" stroke="black" d="M878.19,-31C885.56,-31 893.81,-31 901.98,-31"/>
<polygon fill="black" stroke="black" points="901.87,-34.5 911.87,-31 901.87,-27.5 901.87,-34.5"/>
</g>
<!-- 1990979323856&#45;&gt;1990979329472 -->
<g id="edge11" class="edge">
<title>1990979323856&#45;&gt;1990979329472</title>
<path fill="none" stroke="black" d="M1075.53,-31C1082.94,-31 1091.23,-31 1099.46,-31"/>
<polygon fill="black" stroke="black" points="1099.44,-34.5 1109.44,-31 1099.44,-27.5 1099.44,-34.5"/>
</g>
<!-- 1990979332592&#45;&gt;1990979335952 -->
<g id="edge13" class="edge">
<title>1990979332592&#45;&gt;1990979335952</title>
<path fill="none" stroke="black" d="M1273.83,-31C1281.26,-31 1289.56,-31 1297.78,-31"/>
<polygon fill="black" stroke="black" points="1297.74,-34.5 1307.74,-31 1297.74,-27.5 1297.74,-34.5"/>
</g>
<!-- 1990979334800&#45;&gt;1990979334320 -->
<g id="edge15" class="edge">
<title>1990979334800&#45;&gt;1990979334320</title>
<path fill="none" stroke="black" d="M1470.49,-31C1477.96,-31 1486.35,-31 1494.74,-31"/>
<polygon fill="black" stroke="black" points="1494.58,-34.5 1504.58,-31 1494.58,-27.5 1494.58,-34.5"/>
</g>
<!-- 1990979331296&#45;&gt;1990979327600 -->
<g id="edge17" class="edge">
<title>1990979331296&#45;&gt;1990979327600</title>
<path fill="none" stroke="black" d="M1676.19,-31C1683.72,-31 1692.13,-31 1700.36,-31"/>
<polygon fill="black" stroke="black" points="1700.24,-34.5 1710.24,-31 1700.24,-27.5 1700.24,-34.5"/>
</g>
<!-- 1990979328176&#45;&gt;1990979328128 -->
<g id="edge19" class="edge">
<title>1990979328176&#45;&gt;1990979328128</title>
<path fill="none" stroke="black" d="M1864.82,-31C1872.25,-31 1880.54,-31 1888.7,-31"/>
<polygon fill="black" stroke="black" points="1888.56,-34.5 1898.56,-31 1888.56,-27.5 1888.56,-34.5"/>
</g>
<!-- 1990979327984&#45;&gt;1990979331488 -->
<g id="edge21" class="edge">
<title>1990979327984&#45;&gt;1990979331488</title>
<path fill="none" stroke="black" d="M2057.81,-31C2065.13,-31 2073.34,-31 2081.55,-31"/>
<polygon fill="black" stroke="black" points="2081.55,-34.5 2091.55,-31 2081.55,-27.5 2081.55,-34.5"/>
</g>
<!-- 1990979328560&#45;&gt;1990979323136 -->
<g id="edge23" class="edge">
<title>1990979328560&#45;&gt;1990979323136</title>
<path fill="none" stroke="black" d="M2262.08,-31C2269.42,-31 2277.63,-31 2285.81,-31"/>
<polygon fill="black" stroke="black" points="2285.74,-34.5 2295.74,-31 2285.74,-27.5 2285.74,-34.5"/>
</g>
<!-- 1990979329184&#45;&gt;1990979336000 -->
<g id="edge25" class="edge">
<title>1990979329184&#45;&gt;1990979336000</title>
<path fill="none" stroke="black" d="M2462.56,-31C2469.88,-31 2478.09,-31 2486.3,-31"/>
<polygon fill="black" stroke="black" points="2486.3,-34.5 2496.3,-31 2486.3,-27.5 2486.3,-34.5"/>
</g>
<!-- 1990979326016&#45;&gt;1990979321984 -->
<g id="edge27" class="edge">
<title>1990979326016&#45;&gt;1990979321984</title>
<path fill="none" stroke="black" d="M2667,-31C2674.29,-31 2682.52,-31 2690.89,-31"/>
<polygon fill="black" stroke="black" points="2690.82,-34.5 2700.82,-31 2690.82,-27.5 2690.82,-34.5"/>
</g>
<!-- 1990979337920&#45;&gt;1990979322560 -->
<g id="edge29" class="edge">
<title>1990979337920&#45;&gt;1990979322560</title>
<path fill="none" stroke="black" d="M2892.09,-31C2899.5,-31 2907.82,-31 2916.15,-31"/>
<polygon fill="black" stroke="black" points="2915.92,-34.5 2925.92,-31 2915.92,-27.5 2915.92,-34.5"/>
</g>
</g>
</svg>
