<?xml version="1.0" encoding="UTF-8" standalone="no"?>
<!DOCTYPE svg PUBLIC "-//W3C//DTD SVG 1.1//EN"
 "http://www.w3.org/Graphics/SVG/1.1/DTD/svg11.dtd">
<!-- Generated by graphviz version 11.0.0 (20240428.1522)
 -->
<!-- Title: imdf_net_1754051851.1120129 Pages: 1 -->
<svg width="4074pt" height="179pt"
 viewBox="0.00 0.00 4074.00 179.00" xmlns="http://www.w3.org/2000/svg" xmlns:xlink="http://www.w3.org/1999/xlink">
<g id="graph0" class="graph" transform="scale(1 1) rotate(0) translate(4 175)">
<title>imdf_net_1754051851.1120129</title>
<polygon fill="white" stroke="none" points="-4,4 -4,-175 4070,-175 4070,4 -4,4"/>
<!-- 1990975870528 -->
<g id="node1" class="node">
<title>1990975870528</title>
<polygon fill="black" stroke="black" points="144,-148 90,-148 90,-112 144,-112 144,-148"/>
</g>
<!-- 1990982115712 -->
<g id="node23" class="node">
<title>1990982115712</title>
<ellipse fill="white" stroke="black" cx="207" cy="-130" rx="27" ry="27"/>
</g>
<!-- 1990975870528&#45;&gt;1990982115712 -->
<g id="edge2" class="edge">
<title>1990975870528&#45;&gt;1990982115712</title>
<path fill="none" stroke="black" d="M144.4,-130C151.89,-130 160.18,-130 168.2,-130"/>
<polygon fill="black" stroke="black" points="168.1,-133.5 178.1,-130 168.1,-126.5 168.1,-133.5"/>
</g>
<!-- 1990971921504 -->
<g id="node2" class="node">
<title>1990971921504</title>
<polygon fill="white" stroke="black" points="354.25,-121 270,-121 270,-85 354.25,-85 354.25,-121"/>
<text text-anchor="middle" x="312.12" y="-97.97" font-family="Times New Roman,serif" font-size="12.00">Milk Sourcing</text>
</g>
<!-- 1990971924432 -->
<g id="node24" class="node">
<title>1990971924432</title>
<ellipse fill="white" stroke="black" cx="417.25" cy="-99" rx="27" ry="27"/>
</g>
<!-- 1990971921504&#45;&gt;1990971924432 -->
<g id="edge4" class="edge">
<title>1990971921504&#45;&gt;1990971924432</title>
<path fill="none" stroke="black" d="M354.48,-101.4C362.44,-101.09 370.74,-100.77 378.58,-100.46"/>
<polygon fill="black" stroke="black" points="378.65,-103.96 388.5,-100.08 378.38,-96.97 378.65,-103.96"/>
</g>
<!-- 1990971931008 -->
<g id="node3" class="node">
<title>1990971931008</title>
<polygon fill="white" stroke="black" points="565.25,-117 480.25,-117 480.25,-81 565.25,-81 565.25,-117"/>
<text text-anchor="middle" x="522.75" y="-93.97" font-family="Times New Roman,serif" font-size="12.00">Microbial Test</text>
</g>
<!-- 1990971921168 -->
<g id="node25" class="node">
<title>1990971921168</title>
<ellipse fill="white" stroke="black" cx="628.25" cy="-99" rx="27" ry="27"/>
</g>
<!-- 1990971931008&#45;&gt;1990971921168 -->
<g id="edge6" class="edge">
<title>1990971931008&#45;&gt;1990971921168</title>
<path fill="none" stroke="black" d="M565.55,-99C573.45,-99 581.67,-99 589.43,-99"/>
<polygon fill="black" stroke="black" points="589.26,-102.5 599.26,-99 589.26,-95.5 589.26,-102.5"/>
</g>
<!-- 1990979722928 -->
<g id="node4" class="node">
<title>1990979722928</title>
<polygon fill="white" stroke="black" points="792.75,-117 691.25,-117 691.25,-81 792.75,-81 792.75,-117"/>
<text text-anchor="middle" x="742" y="-93.97" font-family="Times New Roman,serif" font-size="12.00">Regulation Check</text>
</g>
<!-- 1990979730176 -->
<g id="node26" class="node">
<title>1990979730176</title>
<ellipse fill="white" stroke="black" cx="855.75" cy="-99" rx="27" ry="27"/>
</g>
<!-- 1990979722928&#45;&gt;1990979730176 -->
<g id="edge8" class="edge">
<title>1990979722928&#45;&gt;1990979730176</title>
<path fill="none" stroke="black" d="M792.99,-99C801.1,-99 809.37,-99 817.11,-99"/>
<polygon fill="black" stroke="black" points="816.86,-102.5 826.86,-99 816.86,-95.5 816.86,-102.5"/>
</g>
<!-- 1990979722064 -->
<g id="node5" class="node">
<title>1990979722064</title>
<polygon fill="white" stroke="black" points="1008.25,-117 918.75,-117 918.75,-81 1008.25,-81 1008.25,-117"/>
<text text-anchor="middle" x="963.5" y="-93.97" font-family="Times New Roman,serif" font-size="12.00">Milk Pasteurize</text>
</g>
<!-- 1990979719472 -->
<g id="node27" class="node">
<title>1990979719472</title>
<ellipse fill="white" stroke="black" cx="1071.25" cy="-99" rx="27" ry="27"/>
</g>
<!-- 1990979722064&#45;&gt;1990979719472 -->
<g id="edge10" class="edge">
<title>1990979722064&#45;&gt;1990979719472</title>
<path fill="none" stroke="black" d="M1008.73,-99C1016.7,-99 1024.94,-99 1032.7,-99"/>
<polygon fill="black" stroke="black" points="1032.49,-102.5 1042.49,-99 1032.49,-95.5 1032.49,-102.5"/>
</g>
<!-- 1990979730464 -->
<g id="node6" class="node">
<title>1990979730464</title>
<polygon fill="white" stroke="black" points="1226,-117 1134.25,-117 1134.25,-81 1226,-81 1226,-117"/>
<text text-anchor="middle" x="1180.12" y="-93.97" font-family="Times New Roman,serif" font-size="12.00">Curd Formation</text>
</g>
<!-- 1990979721104 -->
<g id="node28" class="node">
<title>1990979721104</title>
<ellipse fill="white" stroke="black" cx="1289" cy="-99" rx="27" ry="27"/>
</g>
<!-- 1990979730464&#45;&gt;1990979721104 -->
<g id="edge12" class="edge">
<title>1990979730464&#45;&gt;1990979721104</title>
<path fill="none" stroke="black" d="M1226.45,-99C1234.46,-99 1242.72,-99 1250.48,-99"/>
<polygon fill="black" stroke="black" points="1250.28,-102.5 1260.28,-99 1250.28,-95.5 1250.28,-102.5"/>
</g>
<!-- 1990979724608 -->
<g id="node7" class="node">
<title>1990979724608</title>
<polygon fill="white" stroke="black" points="1426.5,-117 1352,-117 1352,-81 1426.5,-81 1426.5,-117"/>
<text text-anchor="middle" x="1389.25" y="-93.97" font-family="Times New Roman,serif" font-size="12.00">Whey Drain</text>
</g>
<!-- 1990979720912 -->
<g id="node29" class="node">
<title>1990979720912</title>
<ellipse fill="white" stroke="black" cx="1489.5" cy="-99" rx="27" ry="27"/>
</g>
<!-- 1990979724608&#45;&gt;1990979720912 -->
<g id="edge14" class="edge">
<title>1990979724608&#45;&gt;1990979720912</title>
<path fill="none" stroke="black" d="M1426.83,-99C1434.59,-99 1442.79,-99 1450.59,-99"/>
<polygon fill="black" stroke="black" points="1450.5,-102.5 1460.5,-99 1450.5,-95.5 1450.5,-102.5"/>
</g>
<!-- 1990979729600 -->
<g id="node8" class="node">
<title>1990979729600</title>
<polygon fill="white" stroke="black" points="1640.5,-117 1552.5,-117 1552.5,-81 1640.5,-81 1640.5,-117"/>
<text text-anchor="middle" x="1596.5" y="-93.97" font-family="Times New Roman,serif" font-size="12.00">Mold Inoculate</text>
</g>
<!-- 1990979720432 -->
<g id="node30" class="node">
<title>1990979720432</title>
<ellipse fill="white" stroke="black" cx="1703.5" cy="-99" rx="27" ry="27"/>
</g>
<!-- 1990979729600&#45;&gt;1990979720432 -->
<g id="edge16" class="edge">
<title>1990979729600&#45;&gt;1990979720432</title>
<path fill="none" stroke="black" d="M1640.81,-99C1648.77,-99 1657.01,-99 1664.78,-99"/>
<polygon fill="black" stroke="black" points="1664.6,-102.5 1674.6,-99 1664.6,-95.5 1664.6,-102.5"/>
</g>
<!-- 1990979720480 -->
<g id="node9" class="node">
<title>1990979720480</title>
<polygon fill="white" stroke="black" points="1844.75,-117 1766.5,-117 1766.5,-81 1844.75,-81 1844.75,-117"/>
<text text-anchor="middle" x="1805.62" y="-93.97" font-family="Times New Roman,serif" font-size="12.00">Press Cheese</text>
</g>
<!-- 1990979727920 -->
<g id="node31" class="node">
<title>1990979727920</title>
<ellipse fill="white" stroke="black" cx="1907.75" cy="-99" rx="27" ry="27"/>
</g>
<!-- 1990979720480&#45;&gt;1990979727920 -->
<g id="edge18" class="edge">
<title>1990979720480&#45;&gt;1990979727920</title>
<path fill="none" stroke="black" d="M1845.05,-99C1852.89,-99 1861.13,-99 1868.94,-99"/>
<polygon fill="black" stroke="black" points="1868.86,-102.5 1878.86,-99 1868.86,-95.5 1868.86,-102.5"/>
</g>
<!-- 1990979729120 -->
<g id="node10" class="node">
<title>1990979729120</title>
<polygon fill="white" stroke="black" points="2056.5,-117 1970.75,-117 1970.75,-81 2056.5,-81 2056.5,-117"/>
<text text-anchor="middle" x="2013.62" y="-93.97" font-family="Times New Roman,serif" font-size="12.00">Custom Aging</text>
</g>
<!-- 1990979721296 -->
<g id="node32" class="node">
<title>1990979721296</title>
<ellipse fill="white" stroke="black" cx="2119.5" cy="-99" rx="27" ry="27"/>
</g>
<!-- 1990979729120&#45;&gt;1990979721296 -->
<g id="edge20" class="edge">
<title>1990979729120&#45;&gt;1990979721296</title>
<path fill="none" stroke="black" d="M2056.87,-99C2064.78,-99 2073,-99 2080.76,-99"/>
<polygon fill="black" stroke="black" points="2080.57,-102.5 2090.57,-99 2080.57,-95.5 2080.57,-102.5"/>
</g>
<!-- 1990979719424 -->
<g id="node11" class="node">
<title>1990979719424</title>
<polygon fill="white" stroke="black" points="2270.5,-117 2182.5,-117 2182.5,-81 2270.5,-81 2270.5,-117"/>
<text text-anchor="middle" x="2226.5" y="-93.97" font-family="Times New Roman,serif" font-size="12.00">Quality Inspect</text>
</g>
<!-- 1990979715200 -->
<g id="node33" class="node">
<title>1990979715200</title>
<ellipse fill="white" stroke="black" cx="2333.5" cy="-99" rx="27" ry="27"/>
</g>
<!-- 1990979719424&#45;&gt;1990979715200 -->
<g id="edge22" class="edge">
<title>1990979719424&#45;&gt;1990979715200</title>
<path fill="none" stroke="black" d="M2270.81,-99C2278.77,-99 2287.01,-99 2294.78,-99"/>
<polygon fill="black" stroke="black" points="2294.6,-102.5 2304.6,-99 2294.6,-95.5 2294.6,-102.5"/>
</g>
<!-- 1990979722112 -->
<g id="node12" class="node">
<title>1990979722112</title>
<polygon fill="white" stroke="black" points="2487.5,-117 2396.5,-117 2396.5,-81 2487.5,-81 2487.5,-117"/>
<text text-anchor="middle" x="2442" y="-93.97" font-family="Times New Roman,serif" font-size="12.00">Flavor Profiling</text>
</g>
<!-- 1990979722880 -->
<g id="node34" class="node">
<title>1990979722880</title>
<ellipse fill="white" stroke="black" cx="2550.5" cy="-99" rx="27" ry="27"/>
</g>
<!-- 1990979722112&#45;&gt;1990979722880 -->
<g id="edge24" class="edge">
<title>1990979722112&#45;&gt;1990979722880</title>
<path fill="none" stroke="black" d="M2487.86,-99C2495.86,-99 2504.12,-99 2511.9,-99"/>
<polygon fill="black" stroke="black" points="2511.71,-102.5 2521.71,-99 2511.71,-95.5 2511.71,-102.5"/>
</g>
<!-- 1990979719136 -->
<g id="node13" class="node">
<title>1990979719136</title>
<polygon fill="white" stroke="black" points="2706,-117 2613.5,-117 2613.5,-81 2706,-81 2706,-117"/>
<text text-anchor="middle" x="2659.75" y="-93.97" font-family="Times New Roman,serif" font-size="12.00">Package Design</text>
</g>
<!-- 1990979726048 -->
<g id="node35" class="node">
<title>1990979726048</title>
<ellipse fill="white" stroke="black" cx="2769" cy="-99" rx="27" ry="27"/>
</g>
<!-- 1990979719136&#45;&gt;1990979726048 -->
<g id="edge26" class="edge">
<title>1990979719136&#45;&gt;1990979726048</title>
<path fill="none" stroke="black" d="M2706.23,-99C2714.27,-99 2722.56,-99 2730.35,-99"/>
<polygon fill="black" stroke="black" points="2730.19,-102.5 2740.19,-99 2730.19,-95.5 2730.19,-102.5"/>
</g>
<!-- 1990979725376 -->
<g id="node14" class="node">
<title>1990979725376</title>
<polygon fill="white" stroke="black" points="2920.75,-117 2832,-117 2832,-81 2920.75,-81 2920.75,-117"/>
<text text-anchor="middle" x="2876.38" y="-93.97" font-family="Times New Roman,serif" font-size="12.00">Batch Labeling</text>
</g>
<!-- 1990979717648 -->
<g id="node36" class="node">
<title>1990979717648</title>
<ellipse fill="white" stroke="black" cx="2983.75" cy="-99" rx="27" ry="27"/>
</g>
<!-- 1990979725376&#45;&gt;1990979717648 -->
<g id="edge29" class="edge">
<title>1990979725376&#45;&gt;1990979717648</title>
<path fill="none" stroke="black" d="M2921.15,-99C2929.11,-99 2937.35,-99 2945.11,-99"/>
<polygon fill="black" stroke="black" points="2944.92,-102.5 2954.92,-99 2944.92,-95.5 2944.92,-102.5"/>
</g>
<!-- 1990977249616 -->
<g id="node37" class="node">
<title>1990977249616</title>
<ellipse fill="white" stroke="black" cx="2983.75" cy="-27" rx="27" ry="27"/>
</g>
<!-- 1990979725376&#45;&gt;1990977249616 -->
<g id="edge28" class="edge">
<title>1990979725376&#45;&gt;1990977249616</title>
<path fill="none" stroke="black" d="M2904.24,-80.65C2918.64,-70.8 2936.47,-58.62 2951.5,-48.36"/>
<polygon fill="black" stroke="black" points="2953.37,-51.31 2959.65,-42.78 2949.42,-45.54 2953.37,-51.31"/>
</g>
<!-- 1990977244384 -->
<g id="node15" class="node">
<title>1990977244384</title>
<polygon fill="white" stroke="black" points="3139.25,-47 3046.75,-47 3046.75,-11 3139.25,-11 3139.25,-47"/>
<text text-anchor="middle" x="3093" y="-23.98" font-family="Times New Roman,serif" font-size="12.00">Marketing Draft</text>
</g>
<!-- 1990977252112 -->
<g id="node38" class="node">
<title>1990977252112</title>
<ellipse fill="white" stroke="black" cx="3304" cy="-35" rx="27" ry="27"/>
</g>
<!-- 1990977244384&#45;&gt;1990977252112 -->
<g id="edge32" class="edge">
<title>1990977244384&#45;&gt;1990977252112</title>
<path fill="none" stroke="black" d="M3139.61,-30.31C3177.27,-31.39 3230.08,-32.91 3265.36,-33.92"/>
<polygon fill="black" stroke="black" points="3265,-37.41 3275.1,-34.2 3265.2,-30.41 3265,-37.41"/>
</g>
<!-- 1990980357488 -->
<g id="node16" class="node">
<title>1990980357488</title>
<polygon fill="white" stroke="black" points="3135.5,-117 3050.5,-117 3050.5,-81 3135.5,-81 3135.5,-117"/>
<text text-anchor="middle" x="3093" y="-93.97" font-family="Times New Roman,serif" font-size="12.00">Shipment Plan</text>
</g>
<!-- 1990977253936 -->
<g id="node39" class="node">
<title>1990977253936</title>
<ellipse fill="white" stroke="black" cx="3202.25" cy="-99" rx="27" ry="27"/>
</g>
<!-- 1990980357488&#45;&gt;1990977253936 -->
<g id="edge33" class="edge">
<title>1990980357488&#45;&gt;1990977253936</title>
<path fill="none" stroke="black" d="M3135.77,-99C3144.93,-99 3154.58,-99 3163.57,-99"/>
<polygon fill="black" stroke="black" points="3163.4,-102.5 3173.4,-99 3163.4,-95.5 3163.4,-102.5"/>
</g>
<!-- 1990978402784 -->
<g id="node17" class="node">
<title>1990978402784</title>
<polygon fill="black" stroke="black" points="3740.5,-117 3686.5,-117 3686.5,-81 3740.5,-81 3740.5,-117"/>
</g>
<!-- 1990976603152 -->
<g id="node40" class="node">
<title>1990976603152</title>
<ellipse fill="white" stroke="black" cx="3803.5" cy="-99" rx="27" ry="27"/>
</g>
<!-- 1990978402784&#45;&gt;1990976603152 -->
<g id="edge37" class="edge">
<title>1990978402784&#45;&gt;1990976603152</title>
<path fill="none" stroke="black" d="M3740.9,-99C3748.39,-99 3756.68,-99 3764.7,-99"/>
<polygon fill="black" stroke="black" points="3764.6,-102.5 3774.6,-99 3764.6,-95.5 3764.6,-102.5"/>
</g>
<!-- 1990977256672 -->
<g id="node18" class="node">
<title>1990977256672</title>
<polygon fill="white" stroke="black" points="3342.75,-117 3265.25,-117 3265.25,-81 3342.75,-81 3342.75,-117"/>
<text text-anchor="middle" x="3304" y="-93.97" font-family="Times New Roman,serif" font-size="12.00">Retail Notify</text>
</g>
<!-- 1990977246448 -->
<g id="node41" class="node">
<title>1990977246448</title>
<ellipse fill="white" stroke="black" cx="3405.75" cy="-99" rx="27" ry="27"/>
</g>
<!-- 1990977256672&#45;&gt;1990977246448 -->
<g id="edge36" class="edge">
<title>1990977256672&#45;&gt;1990977246448</title>
<path fill="none" stroke="black" d="M3343,-99C3350.82,-99 3359.06,-99 3366.88,-99"/>
<polygon fill="black" stroke="black" points="3366.8,-102.5 3376.8,-99 3366.8,-95.5 3366.8,-102.5"/>
</g>
<!-- 1990977256000 -->
<g id="node19" class="node">
<title>1990977256000</title>
<polygon fill="white" stroke="black" points="3968,-171 3866.5,-171 3866.5,-135 3968,-135 3968,-171"/>
<text text-anchor="middle" x="3917.25" y="-147.97" font-family="Times New Roman,serif" font-size="12.00">Feedback Review</text>
</g>
<!-- 1990977256000&#45;&gt;1990982115712 -->
<g id="edge41" class="edge">
<title>1990977256000&#45;&gt;1990982115712</title>
<path fill="none" stroke="black" d="M3866.09,-153.39C3825.27,-153.67 3766.16,-154 3714.5,-154 416.25,-154 416.25,-154 416.25,-154 356,-154 286.59,-143.96 245.06,-136.87"/>
<polygon fill="black" stroke="black" points="245.81,-133.45 235.35,-135.18 244.6,-140.34 245.81,-133.45"/>
</g>
<!-- 1990977245488 -->
<g id="node20" class="node">
<title>1990977245488</title>
<polygon fill="white" stroke="black" points="3560.5,-117 3468.75,-117 3468.75,-81 3560.5,-81 3560.5,-117"/>
<text text-anchor="middle" x="3514.62" y="-93.97" font-family="Times New Roman,serif" font-size="12.00">Inventory Audit</text>
</g>
<!-- 1990977245776 -->
<g id="node42" class="node">
<title>1990977245776</title>
<ellipse fill="white" stroke="black" cx="3623.5" cy="-99" rx="27" ry="27"/>
</g>
<!-- 1990977245488&#45;&gt;1990977245776 -->
<g id="edge42" class="edge">
<title>1990977245488&#45;&gt;1990977245776</title>
<path fill="none" stroke="black" d="M3560.95,-99C3568.96,-99 3577.22,-99 3584.98,-99"/>
<polygon fill="black" stroke="black" points="3584.78,-102.5 3594.78,-99 3584.78,-95.5 3584.78,-102.5"/>
</g>
<!-- 1990977254080 -->
<g id="node21" class="node">
<title>1990977254080</title>
<polygon fill="black" stroke="black" points="3944.25,-117 3890.25,-117 3890.25,-81 3944.25,-81 3944.25,-117"/>
</g>
<!-- 1990975878064 -->
<g id="node43" class="node">
<title>1990975878064</title>
<ellipse fill="white" stroke="black" cx="4035" cy="-99" rx="27" ry="27"/>
<ellipse fill="none" stroke="black" cx="4035" cy="-99" rx="31" ry="31"/>
<text text-anchor="start" x="4018.5" y="-83.6" font-family="Times New Roman,serif" font-size="32.00">■</text>
</g>
<!-- 1990977254080&#45;&gt;1990975878064 -->
<g id="edge43" class="edge">
<title>1990977254080&#45;&gt;1990975878064</title>
<path fill="none" stroke="black" d="M3944.52,-99C3958.69,-99 3976.5,-99 3992.5,-99"/>
<polygon fill="black" stroke="black" points="3992.24,-102.5 4002.24,-99 3992.24,-95.5 3992.24,-102.5"/>
</g>
<!-- 1990975874752 -->
<g id="node22" class="node">
<title>1990975874752</title>
<ellipse fill="white" stroke="black" cx="27" cy="-130" rx="27" ry="27"/>
<text text-anchor="start" x="9.75" y="-112.7" font-family="Times New Roman,serif" font-size="34.00">●</text>
</g>
<!-- 1990975874752&#45;&gt;1990975870528 -->
<g id="edge1" class="edge">
<title>1990975874752&#45;&gt;1990975870528</title>
<path fill="none" stroke="black" d="M54.4,-130C61.89,-130 70.18,-130 78.2,-130"/>
<polygon fill="black" stroke="black" points="78.1,-133.5 88.1,-130 78.1,-126.5 78.1,-133.5"/>
</g>
<!-- 1990982115712&#45;&gt;1990971921504 -->
<g id="edge3" class="edge">
<title>1990982115712&#45;&gt;1990971921504</title>
<path fill="none" stroke="black" d="M233.49,-123.33C241.21,-121.31 249.98,-119.01 258.79,-116.7"/>
<polygon fill="black" stroke="black" points="259.62,-120.1 268.41,-114.18 257.85,-113.33 259.62,-120.1"/>
</g>
<!-- 1990971924432&#45;&gt;1990971931008 -->
<g id="edge5" class="edge">
<title>1990971924432&#45;&gt;1990971931008</title>
<path fill="none" stroke="black" d="M444.64,-99C452.05,-99 460.38,-99 468.76,-99"/>
<polygon fill="black" stroke="black" points="468.61,-102.5 478.61,-99 468.61,-95.5 468.61,-102.5"/>
</g>
<!-- 1990971921168&#45;&gt;1990979722928 -->
<g id="edge7" class="edge">
<title>1990971921168&#45;&gt;1990979722928</title>
<path fill="none" stroke="black" d="M655.73,-99C663.01,-99 671.22,-99 679.59,-99"/>
<polygon fill="black" stroke="black" points="679.53,-102.5 689.53,-99 679.53,-95.5 679.53,-102.5"/>
</g>
<!-- 1990979730176&#45;&gt;1990979722064 -->
<g id="edge9" class="edge">
<title>1990979730176&#45;&gt;1990979722064</title>
<path fill="none" stroke="black" d="M883.16,-99C890.48,-99 898.71,-99 907.03,-99"/>
<polygon fill="black" stroke="black" points="906.83,-102.5 916.83,-99 906.83,-95.5 906.83,-102.5"/>
</g>
<!-- 1990979719472&#45;&gt;1990979730464 -->
<g id="edge11" class="edge">
<title>1990979719472&#45;&gt;1990979730464</title>
<path fill="none" stroke="black" d="M1098.67,-99C1105.98,-99 1114.2,-99 1122.53,-99"/>
<polygon fill="black" stroke="black" points="1122.36,-102.5 1132.36,-99 1122.36,-95.5 1122.36,-102.5"/>
</g>
<!-- 1990979721104&#45;&gt;1990979724608 -->
<g id="edge13" class="edge">
<title>1990979721104&#45;&gt;1990979724608</title>
<path fill="none" stroke="black" d="M1316.33,-99C1323.67,-99 1331.88,-99 1340.06,-99"/>
<polygon fill="black" stroke="black" points="1339.99,-102.5 1349.99,-99 1339.99,-95.5 1339.99,-102.5"/>
</g>
<!-- 1990979720912&#45;&gt;1990979729600 -->
<g id="edge15" class="edge">
<title>1990979720912&#45;&gt;1990979729600</title>
<path fill="none" stroke="black" d="M1517,-99C1524.35,-99 1532.61,-99 1540.94,-99"/>
<polygon fill="black" stroke="black" points="1540.75,-102.5 1550.75,-99 1540.75,-95.5 1540.75,-102.5"/>
</g>
<!-- 1990979720432&#45;&gt;1990979720480 -->
<g id="edge17" class="edge">
<title>1990979720432&#45;&gt;1990979720480</title>
<path fill="none" stroke="black" d="M1730.81,-99C1738.13,-99 1746.34,-99 1754.55,-99"/>
<polygon fill="black" stroke="black" points="1754.55,-102.5 1764.55,-99 1754.55,-95.5 1754.55,-102.5"/>
</g>
<!-- 1990979727920&#45;&gt;1990979729120 -->
<g id="edge19" class="edge">
<title>1990979727920&#45;&gt;1990979729120</title>
<path fill="none" stroke="black" d="M1935.23,-99C1942.59,-99 1950.85,-99 1959.16,-99"/>
<polygon fill="black" stroke="black" points="1958.94,-102.5 1968.94,-99 1958.94,-95.5 1958.94,-102.5"/>
</g>
<!-- 1990979721296&#45;&gt;1990979719424 -->
<g id="edge21" class="edge">
<title>1990979721296&#45;&gt;1990979719424</title>
<path fill="none" stroke="black" d="M2147,-99C2154.35,-99 2162.61,-99 2170.94,-99"/>
<polygon fill="black" stroke="black" points="2170.75,-102.5 2180.75,-99 2170.75,-95.5 2170.75,-102.5"/>
</g>
<!-- 1990979715200&#45;&gt;1990979722112 -->
<g id="edge23" class="edge">
<title>1990979715200&#45;&gt;1990979722112</title>
<path fill="none" stroke="black" d="M2360.83,-99C2368.19,-99 2376.5,-99 2384.89,-99"/>
<polygon fill="black" stroke="black" points="2384.81,-102.5 2394.81,-99 2384.81,-95.5 2384.81,-102.5"/>
</g>
<!-- 1990979722880&#45;&gt;1990979719136 -->
<g id="edge25" class="edge">
<title>1990979722880&#45;&gt;1990979719136</title>
<path fill="none" stroke="black" d="M2577.74,-99C2585.07,-99 2593.34,-99 2601.72,-99"/>
<polygon fill="black" stroke="black" points="2601.62,-102.5 2611.62,-99 2601.62,-95.5 2601.62,-102.5"/>
</g>
<!-- 1990979726048&#45;&gt;1990979725376 -->
<g id="edge27" class="edge">
<title>1990979726048&#45;&gt;1990979725376</title>
<path fill="none" stroke="black" d="M2796.32,-99C2803.69,-99 2812,-99 2820.38,-99"/>
<polygon fill="black" stroke="black" points="2820.27,-102.5 2830.27,-99 2820.27,-95.5 2820.27,-102.5"/>
</g>
<!-- 1990979717648&#45;&gt;1990980357488 -->
<g id="edge31" class="edge">
<title>1990979717648&#45;&gt;1990980357488</title>
<path fill="none" stroke="black" d="M3010.99,-99C3019.46,-99 3029.17,-99 3038.86,-99"/>
<polygon fill="black" stroke="black" points="3038.64,-102.5 3048.64,-99 3038.64,-95.5 3038.64,-102.5"/>
</g>
<!-- 1990977249616&#45;&gt;1990977244384 -->
<g id="edge30" class="edge">
<title>1990977249616&#45;&gt;1990977244384</title>
<path fill="none" stroke="black" d="M3010.99,-27.49C3018.32,-27.63 3026.59,-27.78 3034.97,-27.94"/>
<polygon fill="black" stroke="black" points="3034.81,-31.43 3044.87,-28.12 3034.94,-24.44 3034.81,-31.43"/>
</g>
<!-- 1990977252112&#45;&gt;1990978402784 -->
<g id="edge34" class="edge">
<title>1990977252112&#45;&gt;1990978402784</title>
<path fill="none" stroke="black" d="M3331.32,-33.25C3390.1,-30.16 3535.93,-27.12 3650.5,-63 3659.54,-65.83 3668.68,-70.16 3677.06,-74.84"/>
<polygon fill="black" stroke="black" points="3675.17,-77.79 3685.55,-79.88 3678.74,-71.77 3675.17,-77.79"/>
</g>
<!-- 1990977253936&#45;&gt;1990977256672 -->
<g id="edge35" class="edge">
<title>1990977253936&#45;&gt;1990977256672</title>
<path fill="none" stroke="black" d="M3229.72,-99C3237.02,-99 3245.18,-99 3253.33,-99"/>
<polygon fill="black" stroke="black" points="3253.25,-102.5 3263.25,-99 3253.25,-95.5 3253.25,-102.5"/>
</g>
<!-- 1990976603152&#45;&gt;1990977256000 -->
<g id="edge40" class="edge">
<title>1990976603152&#45;&gt;1990977256000</title>
<path fill="none" stroke="black" d="M3828.2,-110.45C3839.74,-116.03 3854.05,-122.95 3867.76,-129.57"/>
<polygon fill="black" stroke="black" points="3866.19,-132.7 3876.71,-133.89 3869.23,-126.39 3866.19,-132.7"/>
</g>
<!-- 1990976603152&#45;&gt;1990977254080 -->
<g id="edge39" class="edge">
<title>1990976603152&#45;&gt;1990977254080</title>
<path fill="none" stroke="black" d="M3830.98,-99C3845.18,-99 3862.91,-99 3878.52,-99"/>
<polygon fill="black" stroke="black" points="3878.44,-102.5 3888.44,-99 3878.44,-95.5 3878.44,-102.5"/>
</g>
<!-- 1990977246448&#45;&gt;1990977245488 -->
<g id="edge38" class="edge">
<title>1990977246448&#45;&gt;1990977245488</title>
<path fill="none" stroke="black" d="M3433.17,-99C3440.48,-99 3448.7,-99 3457.03,-99"/>
<polygon fill="black" stroke="black" points="3456.86,-102.5 3466.86,-99 3456.86,-95.5 3456.86,-102.5"/>
</g>
<!-- 1990977245776&#45;&gt;1990978402784 -->
<g id="edge44" class="edge">
<title>1990977245776&#45;&gt;1990978402784</title>
<path fill="none" stroke="black" d="M3650.9,-99C3658.39,-99 3666.68,-99 3674.7,-99"/>
<polygon fill="black" stroke="black" points="3674.6,-102.5 3684.6,-99 3674.6,-95.5 3674.6,-102.5"/>
</g>
</g>
</svg>
