<?xml version="1.0" encoding="UTF-8" standalone="no"?>
<!DOCTYPE svg PUBLIC "-//W3C//DTD SVG 1.1//EN"
 "http://www.w3.org/Graphics/SVG/1.1/DTD/svg11.dtd">
<!-- Generated by graphviz version 11.0.0 (20240428.1522)
 -->
<!-- Title: imdf_net_1754051852.9421694 Pages: 1 -->
<svg width="2801pt" height="278pt"
 viewBox="0.00 0.00 2801.00 278.00" xmlns="http://www.w3.org/2000/svg" xmlns:xlink="http://www.w3.org/1999/xlink">
<g id="graph0" class="graph" transform="scale(1 1) rotate(0) translate(4 274)">
<title>imdf_net_1754051852.9421694</title>
<polygon fill="white" stroke="none" points="-4,4 -4,-274 2797,-274 2797,4 -4,4"/>
<!-- 1990979477216 -->
<g id="node1" class="node">
<title>1990979477216</title>
<polygon fill="white" stroke="black" points="148.75,-153 90,-153 90,-117 148.75,-117 148.75,-153"/>
<text text-anchor="middle" x="119.38" y="-129.97" font-family="Times New Roman,serif" font-size="12.00">Site Eval</text>
</g>
<!-- 1990980185184 -->
<g id="node18" class="node">
<title>1990980185184</title>
<ellipse fill="white" stroke="black" cx="211.75" cy="-135" rx="27" ry="27"/>
</g>
<!-- 1990979477216&#45;&gt;1990980185184 -->
<g id="edge2" class="edge">
<title>1990979477216&#45;&gt;1990980185184</title>
<path fill="none" stroke="black" d="M148.97,-135C156.61,-135 164.99,-135 173.05,-135"/>
<polygon fill="black" stroke="black" points="172.97,-138.5 182.97,-135 172.97,-131.5 172.97,-138.5"/>
</g>
<!-- 1990980175200 -->
<g id="node2" class="node">
<title>1990980175200</title>
<polygon fill="white" stroke="black" points="368.75,-153 274.75,-153 274.75,-117 368.75,-117 368.75,-153"/>
<text text-anchor="middle" x="321.75" y="-129.97" font-family="Times New Roman,serif" font-size="12.00">Env Assessment</text>
</g>
<!-- 1990980177168 -->
<g id="node19" class="node">
<title>1990980177168</title>
<ellipse fill="white" stroke="black" cx="431.75" cy="-135" rx="27" ry="27"/>
</g>
<!-- 1990980175200&#45;&gt;1990980177168 -->
<g id="edge4" class="edge">
<title>1990980175200&#45;&gt;1990980177168</title>
<path fill="none" stroke="black" d="M369.18,-135C377.06,-135 385.16,-135 392.78,-135"/>
<polygon fill="black" stroke="black" points="392.77,-138.5 402.77,-135 392.77,-131.5 392.77,-138.5"/>
</g>
<!-- 1990980189216 -->
<g id="node3" class="node">
<title>1990980189216</title>
<polygon fill="white" stroke="black" points="588,-153 494.75,-153 494.75,-117 588,-117 588,-153"/>
<text text-anchor="middle" x="541.38" y="-129.97" font-family="Times New Roman,serif" font-size="12.00">Modular Design</text>
</g>
<!-- 1990969425504 -->
<g id="node20" class="node">
<title>1990969425504</title>
<ellipse fill="white" stroke="black" cx="651" cy="-135" rx="27" ry="27"/>
</g>
<!-- 1990980189216&#45;&gt;1990969425504 -->
<g id="edge6" class="edge">
<title>1990980189216&#45;&gt;1990969425504</title>
<path fill="none" stroke="black" d="M588.33,-135C596.37,-135 604.66,-135 612.44,-135"/>
<polygon fill="black" stroke="black" points="612.26,-138.5 622.26,-135 612.26,-131.5 612.26,-138.5"/>
</g>
<!-- 1990976165152 -->
<g id="node4" class="node">
<title>1990976165152</title>
<polygon fill="white" stroke="black" points="798.25,-153 714,-153 714,-117 798.25,-117 798.25,-153"/>
<text text-anchor="middle" x="756.12" y="-129.97" font-family="Times New Roman,serif" font-size="12.00">Equip Procure</text>
</g>
<!-- 1990980445744 -->
<g id="node21" class="node">
<title>1990980445744</title>
<ellipse fill="white" stroke="black" cx="861.25" cy="-171" rx="27" ry="27"/>
</g>
<!-- 1990976165152&#45;&gt;1990980445744 -->
<g id="edge9" class="edge">
<title>1990976165152&#45;&gt;1990980445744</title>
<path fill="none" stroke="black" d="M798.48,-149.44C807.13,-152.45 816.17,-155.61 824.6,-158.55"/>
<polygon fill="black" stroke="black" points="823.19,-161.77 833.79,-161.76 825.5,-155.16 823.19,-161.77"/>
</g>
<!-- 1990980444784 -->
<g id="node22" class="node">
<title>1990980444784</title>
<ellipse fill="white" stroke="black" cx="861.25" cy="-99" rx="27" ry="27"/>
</g>
<!-- 1990976165152&#45;&gt;1990980444784 -->
<g id="edge8" class="edge">
<title>1990976165152&#45;&gt;1990980444784</title>
<path fill="none" stroke="black" d="M798.48,-120.56C807.13,-117.55 816.17,-114.39 824.6,-111.45"/>
<polygon fill="black" stroke="black" points="825.5,-114.84 833.79,-108.24 823.19,-108.23 825.5,-114.84"/>
</g>
<!-- 1990980437248 -->
<g id="node5" class="node">
<title>1990980437248</title>
<polygon fill="white" stroke="black" points="1003.25,-189 930.25,-189 930.25,-153 1003.25,-153 1003.25,-189"/>
<text text-anchor="middle" x="966.75" y="-165.97" font-family="Times New Roman,serif" font-size="12.00">Light Install</text>
</g>
<!-- 1990980436672 -->
<g id="node23" class="node">
<title>1990980436672</title>
<ellipse fill="white" stroke="black" cx="1072.25" cy="-171" rx="27" ry="27"/>
</g>
<!-- 1990980437248&#45;&gt;1990980436672 -->
<g id="edge13" class="edge">
<title>1990980437248&#45;&gt;1990980436672</title>
<path fill="none" stroke="black" d="M1003.66,-171C1013.29,-171 1023.73,-171 1033.46,-171"/>
<polygon fill="black" stroke="black" points="1033.36,-174.5 1043.36,-171 1033.36,-167.5 1033.36,-174.5"/>
</g>
<!-- 1990980447856 -->
<g id="node6" class="node">
<title>1990980447856</title>
<polygon fill="white" stroke="black" points="1009.25,-117 924.25,-117 924.25,-81 1009.25,-81 1009.25,-117"/>
<text text-anchor="middle" x="966.75" y="-93.97" font-family="Times New Roman,serif" font-size="12.00">Nutrient Setup</text>
</g>
<!-- 1990980449104 -->
<g id="node24" class="node">
<title>1990980449104</title>
<ellipse fill="white" stroke="black" cx="1072.25" cy="-99" rx="27" ry="27"/>
</g>
<!-- 1990980447856&#45;&gt;1990980449104 -->
<g id="edge12" class="edge">
<title>1990980447856&#45;&gt;1990980449104</title>
<path fill="none" stroke="black" d="M1009.55,-99C1017.45,-99 1025.67,-99 1033.43,-99"/>
<polygon fill="black" stroke="black" points="1033.26,-102.5 1043.26,-99 1033.26,-95.5 1033.26,-102.5"/>
</g>
<!-- 1990980445456 -->
<g id="node7" class="node">
<title>1990980445456</title>
<polygon fill="white" stroke="black" points="1216.5,-153 1135.25,-153 1135.25,-117 1216.5,-117 1216.5,-153"/>
<text text-anchor="middle" x="1175.88" y="-129.97" font-family="Times New Roman,serif" font-size="12.00">Seed Planting</text>
</g>
<!-- 1990980444496 -->
<g id="node25" class="node">
<title>1990980444496</title>
<ellipse fill="white" stroke="black" cx="1279.5" cy="-171" rx="27" ry="27"/>
</g>
<!-- 1990980445456&#45;&gt;1990980444496 -->
<g id="edge16" class="edge">
<title>1990980445456&#45;&gt;1990980444496</title>
<path fill="none" stroke="black" d="M1216.75,-149.12C1225.41,-152.19 1234.51,-155.42 1242.99,-158.42"/>
<polygon fill="black" stroke="black" points="1241.67,-161.67 1252.26,-161.71 1244,-155.07 1241.67,-161.67"/>
</g>
<!-- 1990980437344 -->
<g id="node26" class="node">
<title>1990980437344</title>
<ellipse fill="white" stroke="black" cx="1279.5" cy="-99" rx="27" ry="27"/>
</g>
<!-- 1990980445456&#45;&gt;1990980437344 -->
<g id="edge17" class="edge">
<title>1990980445456&#45;&gt;1990980437344</title>
<path fill="none" stroke="black" d="M1216.75,-120.88C1225.41,-117.81 1234.51,-114.58 1242.99,-111.58"/>
<polygon fill="black" stroke="black" points="1244,-114.93 1252.26,-108.29 1241.67,-108.33 1244,-114.93"/>
</g>
<!-- 1990980444976 -->
<g id="node8" class="node">
<title>1990980444976</title>
<polygon fill="white" stroke="black" points="1441,-117 1342.5,-117 1342.5,-81 1441,-81 1441,-117"/>
<text text-anchor="middle" x="1391.75" y="-93.97" font-family="Times New Roman,serif" font-size="12.00">Climate Calibrate</text>
</g>
<!-- 1990980451360 -->
<g id="node27" class="node">
<title>1990980451360</title>
<ellipse fill="white" stroke="black" cx="1504" cy="-27" rx="27" ry="27"/>
</g>
<!-- 1990980444976&#45;&gt;1990980451360 -->
<g id="edge21" class="edge">
<title>1990980444976&#45;&gt;1990980451360</title>
<path fill="none" stroke="black" d="M1420.86,-80.65C1436.28,-70.57 1455.46,-58.05 1471.41,-47.63"/>
<polygon fill="black" stroke="black" points="1473.13,-50.69 1479.59,-42.29 1469.3,-44.83 1473.13,-50.69"/>
</g>
<!-- 1990980451168 -->
<g id="node30" class="node">
<title>1990980451168</title>
<ellipse fill="white" stroke="black" cx="1504" cy="-99" rx="27" ry="27"/>
</g>
<!-- 1990980444976&#45;&gt;1990980451168 -->
<g id="edge23" class="edge">
<title>1990980444976&#45;&gt;1990980451168</title>
<path fill="none" stroke="black" d="M1441.43,-99C1449.38,-99 1457.51,-99 1465.15,-99"/>
<polygon fill="black" stroke="black" points="1465.14,-102.5 1475.14,-99 1465.14,-95.5 1465.14,-102.5"/>
</g>
<!-- 1990980440176 -->
<g id="node9" class="node">
<title>1990980440176</title>
<polygon fill="white" stroke="black" points="1431.62,-189 1351.88,-189 1351.88,-153 1431.62,-153 1431.62,-189"/>
<text text-anchor="middle" x="1391.75" y="-165.97" font-family="Times New Roman,serif" font-size="12.00">Sensor Install</text>
</g>
<!-- 1990980239440 -->
<g id="node28" class="node">
<title>1990980239440</title>
<ellipse fill="white" stroke="black" cx="1504" cy="-243" rx="27" ry="27"/>
</g>
<!-- 1990980440176&#45;&gt;1990980239440 -->
<g id="edge22" class="edge">
<title>1990980440176&#45;&gt;1990980239440</title>
<path fill="none" stroke="black" d="M1420.86,-189.35C1436.28,-199.43 1455.46,-211.95 1471.41,-222.37"/>
<polygon fill="black" stroke="black" points="1469.3,-225.17 1479.59,-227.71 1473.13,-219.31 1469.3,-225.17"/>
</g>
<!-- 1990980253264 -->
<g id="node29" class="node">
<title>1990980253264</title>
<ellipse fill="white" stroke="black" cx="1504" cy="-171" rx="27" ry="27"/>
</g>
<!-- 1990980440176&#45;&gt;1990980253264 -->
<g id="edge20" class="edge">
<title>1990980440176&#45;&gt;1990980253264</title>
<path fill="none" stroke="black" d="M1431.93,-171C1442.84,-171 1454.66,-171 1465.47,-171"/>
<polygon fill="black" stroke="black" points="1465.2,-174.5 1475.2,-171 1465.2,-167.5 1465.2,-174.5"/>
</g>
<!-- 1990980441472 -->
<g id="node10" class="node">
<title>1990980441472</title>
<polygon fill="white" stroke="black" points="1650.5,-189 1567,-189 1567,-153 1650.5,-153 1650.5,-189"/>
<text text-anchor="middle" x="1608.75" y="-165.97" font-family="Times New Roman,serif" font-size="12.00">Crop Rotation</text>
</g>
<!-- 1990980251344 -->
<g id="node31" class="node">
<title>1990980251344</title>
<ellipse fill="white" stroke="black" cx="1713.5" cy="-171" rx="27" ry="27"/>
</g>
<!-- 1990980441472&#45;&gt;1990980251344 -->
<g id="edge29" class="edge">
<title>1990980441472&#45;&gt;1990980251344</title>
<path fill="none" stroke="black" d="M1650.95,-171C1658.81,-171 1667,-171 1674.75,-171"/>
<polygon fill="black" stroke="black" points="1674.55,-174.5 1684.55,-171 1674.55,-167.5 1674.55,-174.5"/>
</g>
<!-- 1990980445696 -->
<g id="node11" class="node">
<title>1990980445696</title>
<polygon fill="white" stroke="black" points="1646,-117 1571.5,-117 1571.5,-81 1646,-81 1646,-117"/>
<text text-anchor="middle" x="1608.75" y="-93.97" font-family="Times New Roman,serif" font-size="12.00">Pest Control</text>
</g>
<!-- 1990980246736 -->
<g id="node32" class="node">
<title>1990980246736</title>
<ellipse fill="white" stroke="black" cx="1713.5" cy="-99" rx="27" ry="27"/>
</g>
<!-- 1990980445696&#45;&gt;1990980246736 -->
<g id="edge28" class="edge">
<title>1990980445696&#45;&gt;1990980246736</title>
<path fill="none" stroke="black" d="M1646.27,-99C1655.51,-99 1665.46,-99 1674.77,-99"/>
<polygon fill="black" stroke="black" points="1674.6,-102.5 1684.6,-99 1674.6,-95.5 1674.6,-102.5"/>
</g>
<!-- 1990977244864 -->
<g id="node12" class="node">
<title>1990977244864</title>
<polygon fill="white" stroke="black" points="1856.25,-153 1776.5,-153 1776.5,-117 1856.25,-117 1856.25,-153"/>
<text text-anchor="middle" x="1816.38" y="-129.97" font-family="Times New Roman,serif" font-size="12.00">Harvest Crop</text>
</g>
<!-- 1990977250192 -->
<g id="node33" class="node">
<title>1990977250192</title>
<ellipse fill="white" stroke="black" cx="1919.25" cy="-135" rx="27" ry="27"/>
</g>
<!-- 1990977244864&#45;&gt;1990977250192 -->
<g id="edge32" class="edge">
<title>1990977244864&#45;&gt;1990977250192</title>
<path fill="none" stroke="black" d="M1856.66,-135C1864.53,-135 1872.77,-135 1880.57,-135"/>
<polygon fill="black" stroke="black" points="1880.47,-138.5 1890.47,-135 1880.47,-131.5 1880.47,-138.5"/>
</g>
<!-- 1990977254752 -->
<g id="node13" class="node">
<title>1990977254752</title>
<polygon fill="white" stroke="black" points="2060.5,-153 1982.25,-153 1982.25,-117 2060.5,-117 2060.5,-153"/>
<text text-anchor="middle" x="2021.38" y="-129.97" font-family="Times New Roman,serif" font-size="12.00">Cold Storage</text>
</g>
<!-- 1990977247936 -->
<g id="node34" class="node">
<title>1990977247936</title>
<ellipse fill="white" stroke="black" cx="2123.5" cy="-135" rx="27" ry="27"/>
</g>
<!-- 1990977254752&#45;&gt;1990977247936 -->
<g id="edge34" class="edge">
<title>1990977254752&#45;&gt;1990977247936</title>
<path fill="none" stroke="black" d="M2060.8,-135C2068.64,-135 2076.88,-135 2084.69,-135"/>
<polygon fill="black" stroke="black" points="2084.61,-138.5 2094.61,-135 2084.61,-131.5 2084.61,-138.5"/>
</g>
<!-- 1990977248080 -->
<g id="node14" class="node">
<title>1990977248080</title>
<polygon fill="white" stroke="black" points="2267.75,-153 2186.5,-153 2186.5,-117 2267.75,-117 2267.75,-153"/>
<text text-anchor="middle" x="2227.12" y="-129.97" font-family="Times New Roman,serif" font-size="12.00">Delivery Plan</text>
</g>
<!-- 1990977247264 -->
<g id="node35" class="node">
<title>1990977247264</title>
<ellipse fill="white" stroke="black" cx="2330.75" cy="-135" rx="27" ry="27"/>
</g>
<!-- 1990977248080&#45;&gt;1990977247264 -->
<g id="edge36" class="edge">
<title>1990977248080&#45;&gt;1990977247264</title>
<path fill="none" stroke="black" d="M2268,-135C2275.9,-135 2284.17,-135 2292,-135"/>
<polygon fill="black" stroke="black" points="2291.92,-138.5 2301.92,-135 2291.92,-131.5 2291.92,-138.5"/>
</g>
<!-- 1990977254176 -->
<g id="node15" class="node">
<title>1990977254176</title>
<polygon fill="white" stroke="black" points="2475,-153 2393.75,-153 2393.75,-117 2475,-117 2475,-153"/>
<text text-anchor="middle" x="2434.38" y="-129.97" font-family="Times New Roman,serif" font-size="12.00">Data Analyze</text>
</g>
<!-- 1990980448000 -->
<g id="node36" class="node">
<title>1990980448000</title>
<ellipse fill="white" stroke="black" cx="2538" cy="-135" rx="27" ry="27"/>
</g>
<!-- 1990977254176&#45;&gt;1990980448000 -->
<g id="edge38" class="edge">
<title>1990977254176&#45;&gt;1990980448000</title>
<path fill="none" stroke="black" d="M2475.25,-135C2483.15,-135 2491.42,-135 2499.25,-135"/>
<polygon fill="black" stroke="black" points="2499.17,-138.5 2509.17,-135 2499.17,-131.5 2499.17,-138.5"/>
</g>
<!-- 1990980437728 -->
<g id="node16" class="node">
<title>1990980437728</title>
<polygon fill="white" stroke="black" points="2695,-153 2601,-153 2601,-117 2695,-117 2695,-153"/>
<text text-anchor="middle" x="2648" y="-129.97" font-family="Times New Roman,serif" font-size="12.00">Report Generate</text>
</g>
<!-- 1990971624096 -->
<g id="node37" class="node">
<title>1990971624096</title>
<ellipse fill="white" stroke="black" cx="2762" cy="-135" rx="27" ry="27"/>
<ellipse fill="none" stroke="black" cx="2762" cy="-135" rx="31" ry="31"/>
<text text-anchor="start" x="2745.5" y="-119.6" font-family="Times New Roman,serif" font-size="32.00">■</text>
</g>
<!-- 1990980437728&#45;&gt;1990971624096 -->
<g id="edge40" class="edge">
<title>1990980437728&#45;&gt;1990971624096</title>
<path fill="none" stroke="black" d="M2695.2,-135C2703.12,-135 2711.32,-135 2719.12,-135"/>
<polygon fill="black" stroke="black" points="2719.06,-138.5 2729.06,-135 2719.06,-131.5 2719.06,-138.5"/>
</g>
<!-- 1990971635424 -->
<g id="node17" class="node">
<title>1990971635424</title>
<ellipse fill="white" stroke="black" cx="27" cy="-135" rx="27" ry="27"/>
<text text-anchor="start" x="9.75" y="-117.7" font-family="Times New Roman,serif" font-size="34.00">●</text>
</g>
<!-- 1990971635424&#45;&gt;1990979477216 -->
<g id="edge1" class="edge">
<title>1990971635424&#45;&gt;1990979477216</title>
<path fill="none" stroke="black" d="M54.14,-135C61.72,-135 70.18,-135 78.41,-135"/>
<polygon fill="black" stroke="black" points="78.25,-138.5 88.25,-135 78.25,-131.5 78.25,-138.5"/>
</g>
<!-- 1990980185184&#45;&gt;1990980175200 -->
<g id="edge3" class="edge">
<title>1990980185184&#45;&gt;1990980175200</title>
<path fill="none" stroke="black" d="M239.17,-135C246.47,-135 254.69,-135 263.02,-135"/>
<polygon fill="black" stroke="black" points="262.88,-138.5 272.88,-135 262.88,-131.5 262.88,-138.5"/>
</g>
<!-- 1990980177168&#45;&gt;1990980189216 -->
<g id="edge5" class="edge">
<title>1990980177168&#45;&gt;1990980189216</title>
<path fill="none" stroke="black" d="M459.08,-135C466.44,-135 474.73,-135 483.14,-135"/>
<polygon fill="black" stroke="black" points="483.08,-138.5 493.08,-135 483.08,-131.5 483.08,-138.5"/>
</g>
<!-- 1990969425504&#45;&gt;1990976165152 -->
<g id="edge7" class="edge">
<title>1990969425504&#45;&gt;1990976165152</title>
<path fill="none" stroke="black" d="M678.29,-135C685.67,-135 693.98,-135 702.32,-135"/>
<polygon fill="black" stroke="black" points="702.14,-138.5 712.14,-135 702.14,-131.5 702.14,-138.5"/>
</g>
<!-- 1990980445744&#45;&gt;1990980437248 -->
<g id="edge10" class="edge">
<title>1990980445744&#45;&gt;1990980437248</title>
<path fill="none" stroke="black" d="M888.64,-171C897.77,-171 908.31,-171 918.61,-171"/>
<polygon fill="black" stroke="black" points="918.53,-174.5 928.53,-171 918.53,-167.5 918.53,-174.5"/>
</g>
<!-- 1990980444784&#45;&gt;1990980447856 -->
<g id="edge11" class="edge">
<title>1990980444784&#45;&gt;1990980447856</title>
<path fill="none" stroke="black" d="M888.64,-99C896.05,-99 904.38,-99 912.76,-99"/>
<polygon fill="black" stroke="black" points="912.61,-102.5 922.61,-99 912.61,-95.5 912.61,-102.5"/>
</g>
<!-- 1990980436672&#45;&gt;1990980445456 -->
<g id="edge15" class="edge">
<title>1990980436672&#45;&gt;1990980445456</title>
<path fill="none" stroke="black" d="M1098.11,-162.19C1106.05,-159.38 1115.15,-156.16 1124.23,-152.94"/>
<polygon fill="black" stroke="black" points="1125.15,-156.33 1133.4,-149.69 1122.81,-149.73 1125.15,-156.33"/>
</g>
<!-- 1990980449104&#45;&gt;1990980445456 -->
<g id="edge14" class="edge">
<title>1990980449104&#45;&gt;1990980445456</title>
<path fill="none" stroke="black" d="M1098.11,-107.81C1106.05,-110.62 1115.15,-113.84 1124.23,-117.06"/>
<polygon fill="black" stroke="black" points="1122.81,-120.27 1133.4,-120.31 1125.15,-113.67 1122.81,-120.27"/>
</g>
<!-- 1990980444496&#45;&gt;1990980440176 -->
<g id="edge19" class="edge">
<title>1990980444496&#45;&gt;1990980440176</title>
<path fill="none" stroke="black" d="M1306.91,-171C1316.94,-171 1328.74,-171 1340.26,-171"/>
<polygon fill="black" stroke="black" points="1340.1,-174.5 1350.1,-171 1340.1,-167.5 1340.1,-174.5"/>
</g>
<!-- 1990980437344&#45;&gt;1990980444976 -->
<g id="edge18" class="edge">
<title>1990980437344&#45;&gt;1990980444976</title>
<path fill="none" stroke="black" d="M1306.91,-99C1314.18,-99 1322.37,-99 1330.72,-99"/>
<polygon fill="black" stroke="black" points="1330.61,-102.5 1340.61,-99 1330.61,-95.5 1330.61,-102.5"/>
</g>
<!-- 1990980451360&#45;&gt;1990980445696 -->
<g id="edge25" class="edge">
<title>1990980451360&#45;&gt;1990980445696</title>
<path fill="none" stroke="black" d="M1526.79,-42.27C1540.06,-51.57 1557.32,-63.66 1572.5,-74.3"/>
<polygon fill="black" stroke="black" points="1570.18,-76.95 1580.38,-79.82 1574.2,-71.22 1570.18,-76.95"/>
</g>
<!-- 1990980239440&#45;&gt;1990980441472 -->
<g id="edge27" class="edge">
<title>1990980239440&#45;&gt;1990980441472</title>
<path fill="none" stroke="black" d="M1526.79,-227.73C1540.06,-218.43 1557.32,-206.34 1572.5,-195.7"/>
<polygon fill="black" stroke="black" points="1574.2,-198.78 1580.38,-190.18 1570.18,-193.05 1574.2,-198.78"/>
</g>
<!-- 1990980253264&#45;&gt;1990980445696 -->
<g id="edge26" class="edge">
<title>1990980253264&#45;&gt;1990980445696</title>
<path fill="none" stroke="black" d="M1526.79,-155.73C1540.06,-146.43 1557.32,-134.34 1572.5,-123.7"/>
<polygon fill="black" stroke="black" points="1574.2,-126.78 1580.38,-118.18 1570.18,-121.05 1574.2,-126.78"/>
</g>
<!-- 1990980451168&#45;&gt;1990980441472 -->
<g id="edge24" class="edge">
<title>1990980451168&#45;&gt;1990980441472</title>
<path fill="none" stroke="black" d="M1526.79,-114.27C1540.06,-123.57 1557.32,-135.66 1572.5,-146.3"/>
<polygon fill="black" stroke="black" points="1570.18,-148.95 1580.38,-151.82 1574.2,-143.22 1570.18,-148.95"/>
</g>
<!-- 1990980251344&#45;&gt;1990977244864 -->
<g id="edge31" class="edge">
<title>1990980251344&#45;&gt;1990977244864</title>
<path fill="none" stroke="black" d="M1739.44,-162.1C1747.4,-159.26 1756.52,-156 1765.61,-152.76"/>
<polygon fill="black" stroke="black" points="1766.53,-156.15 1774.77,-149.49 1764.18,-149.55 1766.53,-156.15"/>
</g>
<!-- 1990980246736&#45;&gt;1990977244864 -->
<g id="edge30" class="edge">
<title>1990980246736&#45;&gt;1990977244864</title>
<path fill="none" stroke="black" d="M1739.44,-107.9C1747.4,-110.74 1756.52,-114 1765.61,-117.24"/>
<polygon fill="black" stroke="black" points="1764.18,-120.45 1774.77,-120.51 1766.53,-113.85 1764.18,-120.45"/>
</g>
<!-- 1990977250192&#45;&gt;1990977254752 -->
<g id="edge33" class="edge">
<title>1990977250192&#45;&gt;1990977254752</title>
<path fill="none" stroke="black" d="M1946.56,-135C1953.88,-135 1962.09,-135 1970.3,-135"/>
<polygon fill="black" stroke="black" points="1970.3,-138.5 1980.3,-135 1970.3,-131.5 1970.3,-138.5"/>
</g>
<!-- 1990977247936&#45;&gt;1990977248080 -->
<g id="edge35" class="edge">
<title>1990977247936&#45;&gt;1990977248080</title>
<path fill="none" stroke="black" d="M2150.94,-135C2158.21,-135 2166.36,-135 2174.53,-135"/>
<polygon fill="black" stroke="black" points="2174.51,-138.5 2184.51,-135 2174.51,-131.5 2174.51,-138.5"/>
</g>
<!-- 1990977247264&#45;&gt;1990977254176 -->
<g id="edge37" class="edge">
<title>1990977247264&#45;&gt;1990977254176</title>
<path fill="none" stroke="black" d="M2358.19,-135C2365.46,-135 2373.61,-135 2381.78,-135"/>
<polygon fill="black" stroke="black" points="2381.76,-138.5 2391.76,-135 2381.76,-131.5 2381.76,-138.5"/>
</g>
<!-- 1990980448000&#45;&gt;1990980437728 -->
<g id="edge39" class="edge">
<title>1990980448000&#45;&gt;1990980437728</title>
<path fill="none" stroke="black" d="M2565.42,-135C2572.72,-135 2580.94,-135 2589.27,-135"/>
<polygon fill="black" stroke="black" points="2589.13,-138.5 2599.13,-135 2589.13,-131.5 2589.13,-138.5"/>
</g>
</g>
</svg>
