<?xml version="1.0" encoding="UTF-8" standalone="no"?>
<!DOCTYPE svg PUBLIC "-//W3C//DTD SVG 1.1//EN"
 "http://www.w3.org/Graphics/SVG/1.1/DTD/svg11.dtd">
<!-- Generated by graphviz version 11.0.0 (20240428.1522)
 -->
<!-- Title: imdf_net_1754051875.9828496 Pages: 1 -->
<svg width="3582pt" height="134pt"
 viewBox="0.00 0.00 3582.25 134.00" xmlns="http://www.w3.org/2000/svg" xmlns:xlink="http://www.w3.org/1999/xlink">
<g id="graph0" class="graph" transform="scale(1 1) rotate(0) translate(4 130)">
<title>imdf_net_1754051875.9828496</title>
<polygon fill="white" stroke="none" points="-4,4 -4,-130 3578.25,-130 3578.25,4 -4,4"/>
<!-- 1990978845104 -->
<g id="node1" class="node">
<title>1990978845104</title>
<polygon fill="black" stroke="black" points="144,-81 90,-81 90,-45 144,-45 144,-81"/>
</g>
<!-- 1990978844192 -->
<g id="node19" class="node">
<title>1990978844192</title>
<ellipse fill="white" stroke="black" cx="207" cy="-99" rx="27" ry="27"/>
</g>
<!-- 1990978845104&#45;&gt;1990978844192 -->
<g id="edge2" class="edge">
<title>1990978845104&#45;&gt;1990978844192</title>
<path fill="none" stroke="black" d="M144.4,-73.8C152.75,-77.22 162.12,-81.05 170.97,-84.67"/>
<polygon fill="black" stroke="black" points="169.44,-87.83 180.02,-88.37 172.09,-81.35 169.44,-87.83"/>
</g>
<!-- 1990971518624 -->
<g id="node20" class="node">
<title>1990971518624</title>
<ellipse fill="white" stroke="black" cx="207" cy="-27" rx="27" ry="27"/>
</g>
<!-- 1990978845104&#45;&gt;1990971518624 -->
<g id="edge3" class="edge">
<title>1990978845104&#45;&gt;1990971518624</title>
<path fill="none" stroke="black" d="M144.4,-52.2C152.75,-48.78 162.12,-44.95 170.97,-41.33"/>
<polygon fill="black" stroke="black" points="172.09,-44.65 180.02,-37.63 169.44,-38.17 172.09,-44.65"/>
</g>
<!-- 1990971512384 -->
<g id="node2" class="node">
<title>1990971512384</title>
<polygon fill="white" stroke="black" points="368.5,-45 270,-45 270,-9 368.5,-9 368.5,-45"/>
<text text-anchor="middle" x="319.25" y="-21.98" font-family="Times New Roman,serif" font-size="12.00">Climate Mapping</text>
</g>
<!-- 1990981962256 -->
<g id="node21" class="node">
<title>1990981962256</title>
<ellipse fill="white" stroke="black" cx="431.5" cy="-27" rx="27" ry="27"/>
</g>
<!-- 1990971512384&#45;&gt;1990981962256 -->
<g id="edge6" class="edge">
<title>1990971512384&#45;&gt;1990981962256</title>
<path fill="none" stroke="black" d="M368.93,-27C376.88,-27 385.01,-27 392.65,-27"/>
<polygon fill="black" stroke="black" points="392.64,-30.5 402.64,-27 392.64,-23.5 392.64,-30.5"/>
</g>
<!-- 1990971514352 -->
<g id="node3" class="node">
<title>1990971514352</title>
<polygon fill="white" stroke="black" points="358.38,-117 280.12,-117 280.12,-81 358.38,-81 358.38,-117"/>
<text text-anchor="middle" x="319.25" y="-93.97" font-family="Times New Roman,serif" font-size="12.00">Site Analysis</text>
</g>
<!-- 1990981970032 -->
<g id="node22" class="node">
<title>1990981970032</title>
<ellipse fill="white" stroke="black" cx="431.5" cy="-99" rx="27" ry="27"/>
</g>
<!-- 1990971514352&#45;&gt;1990981970032 -->
<g id="edge7" class="edge">
<title>1990971514352&#45;&gt;1990981970032</title>
<path fill="none" stroke="black" d="M358.81,-99C369.85,-99 381.86,-99 392.84,-99"/>
<polygon fill="black" stroke="black" points="392.74,-102.5 402.74,-99 392.74,-95.5 392.74,-102.5"/>
</g>
<!-- 1990971517664 -->
<g id="node4" class="node">
<title>1990971517664</title>
<polygon fill="white" stroke="black" points="580.25,-81 494.5,-81 494.5,-45 580.25,-45 580.25,-81"/>
<text text-anchor="middle" x="537.38" y="-57.98" font-family="Times New Roman,serif" font-size="12.00">Seed Selection</text>
</g>
<!-- 1990971520976 -->
<g id="node23" class="node">
<title>1990971520976</title>
<ellipse fill="white" stroke="black" cx="643.25" cy="-63" rx="27" ry="27"/>
</g>
<!-- 1990971517664&#45;&gt;1990971520976 -->
<g id="edge10" class="edge">
<title>1990971517664&#45;&gt;1990971520976</title>
<path fill="none" stroke="black" d="M580.62,-63C588.53,-63 596.75,-63 604.51,-63"/>
<polygon fill="black" stroke="black" points="604.32,-66.5 614.32,-63 604.32,-59.5 604.32,-66.5"/>
</g>
<!-- 1990971522368 -->
<g id="node5" class="node">
<title>1990971522368</title>
<polygon fill="white" stroke="black" points="816.75,-81 706.25,-81 706.25,-45 816.75,-45 816.75,-81"/>
<text text-anchor="middle" x="761.5" y="-57.98" font-family="Times New Roman,serif" font-size="12.00">Automated Planting</text>
</g>
<!-- 1990971515264 -->
<g id="node24" class="node">
<title>1990971515264</title>
<ellipse fill="white" stroke="black" cx="879.75" cy="-63" rx="27" ry="27"/>
</g>
<!-- 1990971522368&#45;&gt;1990971515264 -->
<g id="edge12" class="edge">
<title>1990971522368&#45;&gt;1990971515264</title>
<path fill="none" stroke="black" d="M817.22,-63C825.26,-63 833.39,-63 840.98,-63"/>
<polygon fill="black" stroke="black" points="840.88,-66.5 850.88,-63 840.88,-59.5 840.88,-66.5"/>
</g>
<!-- 1990971510512 -->
<g id="node6" class="node">
<title>1990971510512</title>
<polygon fill="white" stroke="black" points="1054,-81 942.75,-81 942.75,-45 1054,-45 1054,-81"/>
<text text-anchor="middle" x="998.38" y="-57.98" font-family="Times New Roman,serif" font-size="12.00">Nutrient Monitoring</text>
</g>
<!-- 1990971518000 -->
<g id="node25" class="node">
<title>1990971518000</title>
<ellipse fill="white" stroke="black" cx="1117" cy="-63" rx="27" ry="27"/>
</g>
<!-- 1990971510512&#45;&gt;1990971518000 -->
<g id="edge14" class="edge">
<title>1990971510512&#45;&gt;1990971518000</title>
<path fill="none" stroke="black" d="M1054.27,-63C1062.34,-63 1070.49,-63 1078.11,-63"/>
<polygon fill="black" stroke="black" points="1078.04,-66.5 1088.04,-63 1078.04,-59.5 1078.04,-66.5"/>
</g>
<!-- 1990971520208 -->
<g id="node7" class="node">
<title>1990971520208</title>
<polygon fill="white" stroke="black" points="1280,-81 1180,-81 1180,-45 1280,-45 1280,-81"/>
<text text-anchor="middle" x="1230" y="-57.98" font-family="Times New Roman,serif" font-size="12.00">Pollination Drone</text>
</g>
<!-- 1990971522560 -->
<g id="node26" class="node">
<title>1990971522560</title>
<ellipse fill="white" stroke="black" cx="1343" cy="-63" rx="27" ry="27"/>
</g>
<!-- 1990971520208&#45;&gt;1990971522560 -->
<g id="edge16" class="edge">
<title>1990971520208&#45;&gt;1990971522560</title>
<path fill="none" stroke="black" d="M1280.33,-63C1288.41,-63 1296.66,-63 1304.39,-63"/>
<polygon fill="black" stroke="black" points="1304.12,-66.5 1314.12,-63 1304.12,-59.5 1304.12,-66.5"/>
</g>
<!-- 1990971507104 -->
<g id="node8" class="node">
<title>1990971507104</title>
<polygon fill="white" stroke="black" points="1504.5,-81 1406,-81 1406,-45 1504.5,-45 1504.5,-81"/>
<text text-anchor="middle" x="1455.25" y="-57.98" font-family="Times New Roman,serif" font-size="12.00">Growth Tracking</text>
</g>
<!-- 1990971517616 -->
<g id="node27" class="node">
<title>1990971517616</title>
<ellipse fill="white" stroke="black" cx="1567.5" cy="-63" rx="27" ry="27"/>
</g>
<!-- 1990971507104&#45;&gt;1990971517616 -->
<g id="edge18" class="edge">
<title>1990971507104&#45;&gt;1990971517616</title>
<path fill="none" stroke="black" d="M1504.93,-63C1512.88,-63 1521.01,-63 1528.65,-63"/>
<polygon fill="black" stroke="black" points="1528.64,-66.5 1538.64,-63 1528.64,-59.5 1528.64,-66.5"/>
</g>
<!-- 1990981963888 -->
<g id="node9" class="node">
<title>1990981963888</title>
<polygon fill="white" stroke="black" points="1705,-81 1630.5,-81 1630.5,-45 1705,-45 1705,-81"/>
<text text-anchor="middle" x="1667.75" y="-57.98" font-family="Times New Roman,serif" font-size="12.00">Pest Control</text>
</g>
<!-- 1990981965280 -->
<g id="node28" class="node">
<title>1990981965280</title>
<ellipse fill="white" stroke="black" cx="1768" cy="-63" rx="27" ry="27"/>
</g>
<!-- 1990981963888&#45;&gt;1990981965280 -->
<g id="edge20" class="edge">
<title>1990981963888&#45;&gt;1990981965280</title>
<path fill="none" stroke="black" d="M1705.33,-63C1713.09,-63 1721.29,-63 1729.09,-63"/>
<polygon fill="black" stroke="black" points="1729,-66.5 1739,-63 1729,-59.5 1729,-66.5"/>
</g>
<!-- 1990981972144 -->
<g id="node10" class="node">
<title>1990981972144</title>
<polygon fill="white" stroke="black" points="1940,-81 1831,-81 1831,-45 1940,-45 1940,-81"/>
<text text-anchor="middle" x="1885.5" y="-57.98" font-family="Times New Roman,serif" font-size="12.00">Harvest Scheduling</text>
</g>
<!-- 1990981970512 -->
<g id="node29" class="node">
<title>1990981970512</title>
<ellipse fill="white" stroke="black" cx="2003" cy="-63" rx="27" ry="27"/>
</g>
<!-- 1990981972144&#45;&gt;1990981970512 -->
<g id="edge22" class="edge">
<title>1990981972144&#45;&gt;1990981970512</title>
<path fill="none" stroke="black" d="M1940.19,-63C1948.41,-63 1956.73,-63 1964.5,-63"/>
<polygon fill="black" stroke="black" points="1964.26,-66.5 1974.26,-63 1964.26,-59.5 1964.26,-66.5"/>
</g>
<!-- 1990981963408 -->
<g id="node11" class="node">
<title>1990981963408</title>
<polygon fill="white" stroke="black" points="2142.75,-81 2066,-81 2066,-45 2142.75,-45 2142.75,-81"/>
<text text-anchor="middle" x="2104.38" y="-57.98" font-family="Times New Roman,serif" font-size="12.00">Post&#45;Harvest</text>
</g>
<!-- 1990981971856 -->
<g id="node30" class="node">
<title>1990981971856</title>
<ellipse fill="white" stroke="black" cx="2205.75" cy="-63" rx="27" ry="27"/>
</g>
<!-- 1990981963408&#45;&gt;1990981971856 -->
<g id="edge24" class="edge">
<title>1990981963408&#45;&gt;1990981971856</title>
<path fill="none" stroke="black" d="M2143.23,-63C2151.02,-63 2159.23,-63 2167.02,-63"/>
<polygon fill="black" stroke="black" points="2166.9,-66.5 2176.9,-63 2166.9,-59.5 2166.9,-66.5"/>
</g>
<!-- 1990981961632 -->
<g id="node12" class="node">
<title>1990981961632</title>
<polygon fill="white" stroke="black" points="2362,-81 2268.75,-81 2268.75,-45 2362,-45 2362,-81"/>
<text text-anchor="middle" x="2315.38" y="-57.98" font-family="Times New Roman,serif" font-size="12.00">Quality Grading</text>
</g>
<!-- 1990981975456 -->
<g id="node31" class="node">
<title>1990981975456</title>
<ellipse fill="white" stroke="black" cx="2425" cy="-63" rx="27" ry="27"/>
</g>
<!-- 1990981961632&#45;&gt;1990981975456 -->
<g id="edge26" class="edge">
<title>1990981961632&#45;&gt;1990981975456</title>
<path fill="none" stroke="black" d="M2362.33,-63C2370.37,-63 2378.66,-63 2386.44,-63"/>
<polygon fill="black" stroke="black" points="2386.26,-66.5 2396.26,-63 2386.26,-59.5 2386.26,-66.5"/>
</g>
<!-- 1990978837376 -->
<g id="node13" class="node">
<title>1990978837376</title>
<polygon fill="white" stroke="black" points="2575.25,-81 2488,-81 2488,-45 2575.25,-45 2575.25,-81"/>
<text text-anchor="middle" x="2531.62" y="-57.98" font-family="Times New Roman,serif" font-size="12.00">Eco Packaging</text>
</g>
<!-- 1990981529488 -->
<g id="node32" class="node">
<title>1990981529488</title>
<ellipse fill="white" stroke="black" cx="2638.25" cy="-63" rx="27" ry="27"/>
</g>
<!-- 1990978837376&#45;&gt;1990981529488 -->
<g id="edge28" class="edge">
<title>1990978837376&#45;&gt;1990981529488</title>
<path fill="none" stroke="black" d="M2575.48,-63C2583.43,-63 2591.67,-63 2599.45,-63"/>
<polygon fill="black" stroke="black" points="2599.29,-66.5 2609.29,-63 2599.29,-59.5 2599.29,-66.5"/>
</g>
<!-- 1990981533376 -->
<g id="node14" class="node">
<title>1990981533376</title>
<polygon fill="white" stroke="black" points="2804.25,-81 2701.25,-81 2701.25,-45 2804.25,-45 2804.25,-81"/>
<text text-anchor="middle" x="2752.75" y="-57.98" font-family="Times New Roman,serif" font-size="12.00">Distribution Track</text>
</g>
<!-- 1990981525936 -->
<g id="node33" class="node">
<title>1990981525936</title>
<ellipse fill="white" stroke="black" cx="2867.25" cy="-63" rx="27" ry="27"/>
</g>
<!-- 1990981533376&#45;&gt;1990981525936 -->
<g id="edge30" class="edge">
<title>1990981533376&#45;&gt;1990981525936</title>
<path fill="none" stroke="black" d="M2804.73,-63C2812.75,-63 2820.9,-63 2828.54,-63"/>
<polygon fill="black" stroke="black" points="2828.52,-66.5 2838.52,-63 2828.52,-59.5 2828.52,-66.5"/>
</g>
<!-- 1990981524880 -->
<g id="node15" class="node">
<title>1990981524880</title>
<polygon fill="white" stroke="black" points="3026.5,-81 2930.25,-81 2930.25,-45 3026.5,-45 3026.5,-81"/>
<text text-anchor="middle" x="2978.38" y="-57.98" font-family="Times New Roman,serif" font-size="12.00">Waste Recycling</text>
</g>
<!-- 1990981520992 -->
<g id="node34" class="node">
<title>1990981520992</title>
<ellipse fill="white" stroke="black" cx="3089.5" cy="-63" rx="27" ry="27"/>
</g>
<!-- 1990981524880&#45;&gt;1990981520992 -->
<g id="edge32" class="edge">
<title>1990981524880&#45;&gt;1990981520992</title>
<path fill="none" stroke="black" d="M3026.92,-63C3034.84,-63 3042.95,-63 3050.59,-63"/>
<polygon fill="black" stroke="black" points="3050.58,-66.5 3060.58,-63 3050.58,-59.5 3050.58,-66.5"/>
</g>
<!-- 1990981526992 -->
<g id="node16" class="node">
<title>1990981526992</title>
<polygon fill="white" stroke="black" points="3267.5,-81 3152.5,-81 3152.5,-45 3267.5,-45 3267.5,-81"/>
<text text-anchor="middle" x="3210" y="-57.98" font-family="Times New Roman,serif" font-size="12.00">Energy Management</text>
</g>
<!-- 1990981531408 -->
<g id="node35" class="node">
<title>1990981531408</title>
<ellipse fill="white" stroke="black" cx="3330.5" cy="-63" rx="27" ry="27"/>
</g>
<!-- 1990981526992&#45;&gt;1990981531408 -->
<g id="edge34" class="edge">
<title>1990981526992&#45;&gt;1990981531408</title>
<path fill="none" stroke="black" d="M3267.82,-63C3275.93,-63 3284.1,-63 3291.72,-63"/>
<polygon fill="black" stroke="black" points="3291.64,-66.5 3301.64,-63 3291.64,-59.5 3291.64,-66.5"/>
</g>
<!-- 1990981961680 -->
<g id="node17" class="node">
<title>1990981961680</title>
<polygon fill="white" stroke="black" points="3476.25,-81 3393.5,-81 3393.5,-45 3476.25,-45 3476.25,-81"/>
<text text-anchor="middle" x="3434.88" y="-57.98" font-family="Times New Roman,serif" font-size="12.00">Data Analysis</text>
</g>
<!-- 1990978830512 -->
<g id="node36" class="node">
<title>1990978830512</title>
<ellipse fill="white" stroke="black" cx="3543.25" cy="-63" rx="27" ry="27"/>
<ellipse fill="none" stroke="black" cx="3543.25" cy="-63" rx="31" ry="31"/>
<text text-anchor="start" x="3526.75" y="-47.6" font-family="Times New Roman,serif" font-size="32.00">■</text>
</g>
<!-- 1990981961680&#45;&gt;1990978830512 -->
<g id="edge36" class="edge">
<title>1990981961680&#45;&gt;1990978830512</title>
<path fill="none" stroke="black" d="M3476.7,-63C3484.48,-63 3492.64,-63 3500.45,-63"/>
<polygon fill="black" stroke="black" points="3500.43,-66.5 3510.43,-63 3500.43,-59.5 3500.43,-66.5"/>
</g>
<!-- 1990978845872 -->
<g id="node18" class="node">
<title>1990978845872</title>
<ellipse fill="white" stroke="black" cx="27" cy="-63" rx="27" ry="27"/>
<text text-anchor="start" x="9.75" y="-45.7" font-family="Times New Roman,serif" font-size="34.00">●</text>
</g>
<!-- 1990978845872&#45;&gt;1990978845104 -->
<g id="edge1" class="edge">
<title>1990978845872&#45;&gt;1990978845104</title>
<path fill="none" stroke="black" d="M54.4,-63C61.89,-63 70.18,-63 78.2,-63"/>
<polygon fill="black" stroke="black" points="78.1,-66.5 88.1,-63 78.1,-59.5 78.1,-66.5"/>
</g>
<!-- 1990978844192&#45;&gt;1990971514352 -->
<g id="edge4" class="edge">
<title>1990978844192&#45;&gt;1990971514352</title>
<path fill="none" stroke="black" d="M234.41,-99C244.74,-99 256.94,-99 268.78,-99"/>
<polygon fill="black" stroke="black" points="268.45,-102.5 278.45,-99 268.45,-95.5 268.45,-102.5"/>
</g>
<!-- 1990971518624&#45;&gt;1990971512384 -->
<g id="edge5" class="edge">
<title>1990971518624&#45;&gt;1990971512384</title>
<path fill="none" stroke="black" d="M234.41,-27C241.68,-27 249.87,-27 258.22,-27"/>
<polygon fill="black" stroke="black" points="258.11,-30.5 268.11,-27 258.11,-23.5 258.11,-30.5"/>
</g>
<!-- 1990981962256&#45;&gt;1990971517664 -->
<g id="edge8" class="edge">
<title>1990981962256&#45;&gt;1990971517664</title>
<path fill="none" stroke="black" d="M457.38,-35.62C465.32,-38.37 474.43,-41.53 483.57,-44.7"/>
<polygon fill="black" stroke="black" points="482.23,-47.94 492.82,-47.91 484.52,-41.32 482.23,-47.94"/>
</g>
<!-- 1990981970032&#45;&gt;1990971517664 -->
<g id="edge9" class="edge">
<title>1990981970032&#45;&gt;1990971517664</title>
<path fill="none" stroke="black" d="M457.38,-90.38C465.32,-87.63 474.43,-84.47 483.57,-81.3"/>
<polygon fill="black" stroke="black" points="484.52,-84.68 492.82,-78.09 482.23,-78.06 484.52,-84.68"/>
</g>
<!-- 1990971520976&#45;&gt;1990971522368 -->
<g id="edge11" class="edge">
<title>1990971520976&#45;&gt;1990971522368</title>
<path fill="none" stroke="black" d="M670.63,-63C677.99,-63 686.33,-63 694.89,-63"/>
<polygon fill="black" stroke="black" points="694.69,-66.5 704.69,-63 694.69,-59.5 694.69,-66.5"/>
</g>
<!-- 1990971515264&#45;&gt;1990971510512 -->
<g id="edge13" class="edge">
<title>1990971515264&#45;&gt;1990971510512</title>
<path fill="none" stroke="black" d="M907.21,-63C914.42,-63 922.57,-63 930.94,-63"/>
<polygon fill="black" stroke="black" points="930.92,-66.5 940.92,-63 930.92,-59.5 930.92,-66.5"/>
</g>
<!-- 1990971518000&#45;&gt;1990971520208 -->
<g id="edge15" class="edge">
<title>1990971518000&#45;&gt;1990971520208</title>
<path fill="none" stroke="black" d="M1144.31,-63C1151.62,-63 1159.88,-63 1168.31,-63"/>
<polygon fill="black" stroke="black" points="1168.31,-66.5 1178.31,-63 1168.31,-59.5 1168.31,-66.5"/>
</g>
<!-- 1990971522560&#45;&gt;1990971507104 -->
<g id="edge17" class="edge">
<title>1990971522560&#45;&gt;1990971507104</title>
<path fill="none" stroke="black" d="M1370.41,-63C1377.68,-63 1385.87,-63 1394.22,-63"/>
<polygon fill="black" stroke="black" points="1394.11,-66.5 1404.11,-63 1394.11,-59.5 1394.11,-66.5"/>
</g>
<!-- 1990971517616&#45;&gt;1990981963888 -->
<g id="edge19" class="edge">
<title>1990971517616&#45;&gt;1990981963888</title>
<path fill="none" stroke="black" d="M1594.83,-63C1602.17,-63 1610.38,-63 1618.56,-63"/>
<polygon fill="black" stroke="black" points="1618.49,-66.5 1628.49,-63 1618.49,-59.5 1618.49,-66.5"/>
</g>
<!-- 1990981965280&#45;&gt;1990981972144 -->
<g id="edge21" class="edge">
<title>1990981965280&#45;&gt;1990981972144</title>
<path fill="none" stroke="black" d="M1795.5,-63C1802.73,-63 1810.9,-63 1819.29,-63"/>
<polygon fill="black" stroke="black" points="1819.27,-66.5 1829.27,-63 1819.27,-59.5 1819.27,-66.5"/>
</g>
<!-- 1990981970512&#45;&gt;1990981963408 -->
<g id="edge23" class="edge">
<title>1990981970512&#45;&gt;1990981963408</title>
<path fill="none" stroke="black" d="M2030.37,-63C2037.72,-63 2045.94,-63 2054.15,-63"/>
<polygon fill="black" stroke="black" points="2054.14,-66.5 2064.14,-63 2054.14,-59.5 2054.14,-66.5"/>
</g>
<!-- 1990981971856&#45;&gt;1990981961632 -->
<g id="edge25" class="edge">
<title>1990981971856&#45;&gt;1990981961632</title>
<path fill="none" stroke="black" d="M2233.08,-63C2240.44,-63 2248.73,-63 2257.14,-63"/>
<polygon fill="black" stroke="black" points="2257.08,-66.5 2267.08,-63 2257.08,-59.5 2257.08,-66.5"/>
</g>
<!-- 1990981975456&#45;&gt;1990978837376 -->
<g id="edge27" class="edge">
<title>1990981975456&#45;&gt;1990978837376</title>
<path fill="none" stroke="black" d="M2452.4,-63C2459.73,-63 2467.96,-63 2476.26,-63"/>
<polygon fill="black" stroke="black" points="2476.03,-66.5 2486.03,-63 2476.03,-59.5 2476.03,-66.5"/>
</g>
<!-- 1990981529488&#45;&gt;1990981533376 -->
<g id="edge29" class="edge">
<title>1990981529488&#45;&gt;1990981533376</title>
<path fill="none" stroke="black" d="M2665.63,-63C2672.86,-63 2681.02,-63 2689.36,-63"/>
<polygon fill="black" stroke="black" points="2689.27,-66.5 2699.27,-63 2689.27,-59.5 2689.27,-66.5"/>
</g>
<!-- 1990981525936&#45;&gt;1990981524880 -->
<g id="edge31" class="edge">
<title>1990981525936&#45;&gt;1990981524880</title>
<path fill="none" stroke="black" d="M2894.67,-63C2901.95,-63 2910.16,-63 2918.5,-63"/>
<polygon fill="black" stroke="black" points="2918.37,-66.5 2928.37,-63 2918.37,-59.5 2918.37,-66.5"/>
</g>
<!-- 1990981520992&#45;&gt;1990981526992 -->
<g id="edge33" class="edge">
<title>1990981520992&#45;&gt;1990981526992</title>
<path fill="none" stroke="black" d="M3116.8,-63C3124.1,-63 3132.38,-63 3140.91,-63"/>
<polygon fill="black" stroke="black" points="3140.69,-66.5 3150.69,-63 3140.69,-59.5 3140.69,-66.5"/>
</g>
<!-- 1990981531408&#45;&gt;1990981961680 -->
<g id="edge35" class="edge">
<title>1990981531408&#45;&gt;1990981961680</title>
<path fill="none" stroke="black" d="M3357.86,-63C3365.28,-63 3373.61,-63 3381.96,-63"/>
<polygon fill="black" stroke="black" points="3381.77,-66.5 3391.77,-63 3381.77,-59.5 3381.77,-66.5"/>
</g>
</g>
</svg>
