<?xml version="1.0" encoding="UTF-8" standalone="no"?>
<!DOCTYPE svg PUBLIC "-//W3C//DTD SVG 1.1//EN"
 "http://www.w3.org/Graphics/SVG/1.1/DTD/svg11.dtd">
<!-- Generated by graphviz version 11.0.0 (20240428.1522)
 -->
<!-- Title: imdf_net_1754051887.728995 Pages: 1 -->
<svg width="3063pt" height="230pt"
 viewBox="0.00 0.00 3063.25 230.00" xmlns="http://www.w3.org/2000/svg" xmlns:xlink="http://www.w3.org/1999/xlink">
<g id="graph0" class="graph" transform="scale(1 1) rotate(0) translate(4 226)">
<title>imdf_net_1754051887.728995</title>
<polygon fill="white" stroke="none" points="-4,4 -4,-226 3059.25,-226 3059.25,4 -4,4"/>
<!-- 1990980760880 -->
<g id="node1" class="node">
<title>1990980760880</title>
<polygon fill="white" stroke="black" points="175.75,-177 90,-177 90,-141 175.75,-141 175.75,-177"/>
<text text-anchor="middle" x="132.88" y="-153.97" font-family="Times New Roman,serif" font-size="12.00">Seed Selection</text>
</g>
<!-- 1990980760064 -->
<g id="node21" class="node">
<title>1990980760064</title>
<ellipse fill="white" stroke="black" cx="238.75" cy="-159" rx="27" ry="27"/>
</g>
<!-- 1990980760880&#45;&gt;1990980760064 -->
<g id="edge2" class="edge">
<title>1990980760880&#45;&gt;1990980760064</title>
<path fill="none" stroke="black" d="M176.12,-159C184.03,-159 192.25,-159 200.01,-159"/>
<polygon fill="black" stroke="black" points="199.82,-162.5 209.82,-159 199.82,-155.5 199.82,-162.5"/>
</g>
<!-- 1990980748880 -->
<g id="node2" class="node">
<title>1990980748880</title>
<polygon fill="white" stroke="black" points="392.75,-177 301.75,-177 301.75,-141 392.75,-141 392.75,-177"/>
<text text-anchor="middle" x="347.25" y="-153.97" font-family="Times New Roman,serif" font-size="12.00">Genetic Testing</text>
</g>
<!-- 1990980752240 -->
<g id="node22" class="node">
<title>1990980752240</title>
<ellipse fill="white" stroke="black" cx="455.75" cy="-159" rx="27" ry="27"/>
</g>
<!-- 1990980748880&#45;&gt;1990980752240 -->
<g id="edge4" class="edge">
<title>1990980748880&#45;&gt;1990980752240</title>
<path fill="none" stroke="black" d="M393.11,-159C401.11,-159 409.37,-159 417.15,-159"/>
<polygon fill="black" stroke="black" points="416.96,-162.5 426.96,-159 416.96,-155.5 416.96,-162.5"/>
</g>
<!-- 1990979791200 -->
<g id="node3" class="node">
<title>1990979791200</title>
<polygon fill="white" stroke="black" points="596.25,-177 518.75,-177 518.75,-141 596.25,-141 596.25,-177"/>
<text text-anchor="middle" x="557.5" y="-153.97" font-family="Times New Roman,serif" font-size="12.00">Nutrient Mix</text>
</g>
<!-- 1990979789280 -->
<g id="node23" class="node">
<title>1990979789280</title>
<ellipse fill="white" stroke="black" cx="659.25" cy="-159" rx="27" ry="27"/>
</g>
<!-- 1990979791200&#45;&gt;1990979789280 -->
<g id="edge6" class="edge">
<title>1990979791200&#45;&gt;1990979789280</title>
<path fill="none" stroke="black" d="M596.5,-159C604.32,-159 612.56,-159 620.38,-159"/>
<polygon fill="black" stroke="black" points="620.3,-162.5 630.3,-159 620.3,-155.5 620.3,-162.5"/>
</g>
<!-- 1990979793600 -->
<g id="node4" class="node">
<title>1990979793600</title>
<polygon fill="white" stroke="black" points="817.75,-177 722.25,-177 722.25,-141 817.75,-141 817.75,-177"/>
<text text-anchor="middle" x="770" y="-153.97" font-family="Times New Roman,serif" font-size="12.00">Automated Plant</text>
</g>
<!-- 1990976834832 -->
<g id="node24" class="node">
<title>1990976834832</title>
<ellipse fill="white" stroke="black" cx="880.75" cy="-195" rx="27" ry="27"/>
</g>
<!-- 1990979793600&#45;&gt;1990976834832 -->
<g id="edge9" class="edge">
<title>1990979793600&#45;&gt;1990976834832</title>
<path fill="none" stroke="black" d="M818.07,-174.58C826.75,-177.45 835.68,-180.41 843.97,-183.15"/>
<polygon fill="black" stroke="black" points="842.74,-186.43 853.33,-186.25 844.94,-179.79 842.74,-186.43"/>
</g>
<!-- 1990976840496 -->
<g id="node25" class="node">
<title>1990976840496</title>
<ellipse fill="white" stroke="black" cx="880.75" cy="-123" rx="27" ry="27"/>
</g>
<!-- 1990979793600&#45;&gt;1990976840496 -->
<g id="edge8" class="edge">
<title>1990979793600&#45;&gt;1990976840496</title>
<path fill="none" stroke="black" d="M818.07,-143.42C826.75,-140.55 835.68,-137.59 843.97,-134.85"/>
<polygon fill="black" stroke="black" points="844.94,-138.21 853.33,-131.75 842.74,-131.57 844.94,-138.21"/>
</g>
<!-- 1990976847504 -->
<g id="node5" class="node">
<title>1990976847504</title>
<polygon fill="white" stroke="black" points="1048.25,-213 943.75,-213 943.75,-177 1048.25,-177 1048.25,-213"/>
<text text-anchor="middle" x="996" y="-189.97" font-family="Times New Roman,serif" font-size="12.00">Microclimate Scan</text>
</g>
<!-- 1990976847072 -->
<g id="node27" class="node">
<title>1990976847072</title>
<ellipse fill="white" stroke="black" cx="1111.25" cy="-195" rx="27" ry="27"/>
</g>
<!-- 1990976847504&#45;&gt;1990976847072 -->
<g id="edge12" class="edge">
<title>1990976847504&#45;&gt;1990976847072</title>
<path fill="none" stroke="black" d="M1048.65,-195C1056.69,-195 1064.87,-195 1072.52,-195"/>
<polygon fill="black" stroke="black" points="1072.51,-198.5 1082.51,-195 1072.51,-191.5 1072.51,-198.5"/>
</g>
<!-- 1990976835168 -->
<g id="node6" class="node">
<title>1990976835168</title>
<polygon fill="white" stroke="black" points="1030.62,-141 961.38,-141 961.38,-105 1030.62,-105 1030.62,-141"/>
<text text-anchor="middle" x="996" y="-117.97" font-family="Times New Roman,serif" font-size="12.00">Pest Detect</text>
</g>
<!-- 1990976836560 -->
<g id="node26" class="node">
<title>1990976836560</title>
<ellipse fill="white" stroke="black" cx="1111.25" cy="-123" rx="27" ry="27"/>
</g>
<!-- 1990976835168&#45;&gt;1990976836560 -->
<g id="edge13" class="edge">
<title>1990976835168&#45;&gt;1990976836560</title>
<path fill="none" stroke="black" d="M1030.98,-123C1044.08,-123 1059.12,-123 1072.55,-123"/>
<polygon fill="black" stroke="black" points="1072.34,-126.5 1082.34,-123 1072.34,-119.5 1072.34,-126.5"/>
</g>
<!-- 1990976832960 -->
<g id="node7" class="node">
<title>1990976832960</title>
<polygon fill="black" stroke="black" points="1228.25,-177 1174.25,-177 1174.25,-141 1228.25,-141 1228.25,-177"/>
</g>
<!-- 1990976832000 -->
<g id="node28" class="node">
<title>1990976832000</title>
<ellipse fill="white" stroke="black" cx="1291.25" cy="-159" rx="27" ry="27"/>
</g>
<!-- 1990976832960&#45;&gt;1990976832000 -->
<g id="edge16" class="edge">
<title>1990976832960&#45;&gt;1990976832000</title>
<path fill="none" stroke="black" d="M1228.65,-159C1236.14,-159 1244.43,-159 1252.45,-159"/>
<polygon fill="black" stroke="black" points="1252.35,-162.5 1262.35,-159 1252.35,-155.5 1252.35,-162.5"/>
</g>
<!-- 1990976846592 -->
<g id="node8" class="node">
<title>1990976846592</title>
<polygon fill="white" stroke="black" points="1448.25,-154 1354.25,-154 1354.25,-118 1448.25,-118 1448.25,-154"/>
<text text-anchor="middle" x="1401.25" y="-130.97" font-family="Times New Roman,serif" font-size="12.00">Growth Monitor</text>
</g>
<!-- 1990976847216 -->
<g id="node29" class="node">
<title>1990976847216</title>
<ellipse fill="white" stroke="black" cx="1511.25" cy="-127" rx="27" ry="27"/>
</g>
<!-- 1990976846592&#45;&gt;1990976847216 -->
<g id="edge18" class="edge">
<title>1990976846592&#45;&gt;1990976847216</title>
<path fill="none" stroke="black" d="M1448.68,-132.13C1456.73,-131.46 1465,-130.77 1472.78,-130.12"/>
<polygon fill="black" stroke="black" points="1472.91,-133.62 1482.58,-129.31 1472.32,-126.65 1472.91,-133.62"/>
</g>
<!-- 1990981588160 -->
<g id="node9" class="node">
<title>1990981588160</title>
<polygon fill="white" stroke="black" points="1664.5,-88 1574.25,-88 1574.25,-52 1664.5,-52 1664.5,-88"/>
<text text-anchor="middle" x="1619.38" y="-64.97" font-family="Times New Roman,serif" font-size="12.00">Maturity Check</text>
</g>
<!-- 1990981598576 -->
<g id="node31" class="node">
<title>1990981598576</title>
<ellipse fill="white" stroke="black" cx="1727.5" cy="-63" rx="27" ry="27"/>
</g>
<!-- 1990981588160&#45;&gt;1990981598576 -->
<g id="edge21" class="edge">
<title>1990981588160&#45;&gt;1990981598576</title>
<path fill="none" stroke="black" d="M1664.77,-67.07C1672.76,-66.54 1681.03,-66 1688.81,-65.49"/>
<polygon fill="black" stroke="black" points="1688.9,-68.99 1698.65,-64.84 1688.44,-62 1688.9,-68.99"/>
</g>
<!-- 1990976831568 -->
<g id="node10" class="node">
<title>1990976831568</title>
<polygon fill="white" stroke="black" points="1659.62,-149 1579.12,-149 1579.12,-113 1659.62,-113 1659.62,-149"/>
<text text-anchor="middle" x="1619.38" y="-125.97" font-family="Times New Roman,serif" font-size="12.00">Light Control</text>
</g>
<!-- 1990976845920 -->
<g id="node30" class="node">
<title>1990976845920</title>
<ellipse fill="white" stroke="black" cx="1727.5" cy="-135" rx="27" ry="27"/>
</g>
<!-- 1990976831568&#45;&gt;1990976845920 -->
<g id="edge22" class="edge">
<title>1990976831568&#45;&gt;1990976845920</title>
<path fill="none" stroke="black" d="M1659.89,-132.49C1669.34,-132.85 1679.4,-133.22 1688.77,-133.58"/>
<polygon fill="black" stroke="black" points="1688.52,-137.07 1698.64,-133.95 1688.78,-130.08 1688.52,-137.07"/>
</g>
<!-- 1990981591232 -->
<g id="node11" class="node">
<title>1990981591232</title>
<polygon fill="white" stroke="black" points="1898.75,-81 1790.5,-81 1790.5,-45 1898.75,-45 1898.75,-81"/>
<text text-anchor="middle" x="1844.62" y="-57.98" font-family="Times New Roman,serif" font-size="12.00">Automated Harvest</text>
</g>
<!-- 1990981586624 -->
<g id="node32" class="node">
<title>1990981586624</title>
<ellipse fill="white" stroke="black" cx="1961.75" cy="-63" rx="27" ry="27"/>
</g>
<!-- 1990981591232&#45;&gt;1990981586624 -->
<g id="edge26" class="edge">
<title>1990981591232&#45;&gt;1990981586624</title>
<path fill="none" stroke="black" d="M1899.14,-63C1907.16,-63 1915.28,-63 1922.88,-63"/>
<polygon fill="black" stroke="black" points="1922.79,-66.5 1932.79,-63 1922.79,-59.5 1922.79,-66.5"/>
</g>
<!-- 1990976840784 -->
<g id="node12" class="node">
<title>1990976840784</title>
<polygon fill="white" stroke="black" points="1883.38,-180 1805.88,-180 1805.88,-144 1883.38,-144 1883.38,-180"/>
<text text-anchor="middle" x="1844.62" y="-156.97" font-family="Times New Roman,serif" font-size="12.00">Irrigation Set</text>
</g>
<!-- 1990976840784&#45;&gt;1990976832000 -->
<g id="edge25" class="edge">
<title>1990976840784&#45;&gt;1990976832000</title>
<path fill="none" stroke="black" d="M1805.49,-169.73C1761.19,-178.01 1685.8,-190 1620.38,-190 1510.25,-190 1510.25,-190 1510.25,-190 1445.99,-190 1372.13,-176.64 1328.98,-167.46"/>
<polygon fill="black" stroke="black" points="1329.92,-164.08 1319.4,-165.37 1328.43,-170.92 1329.92,-164.08"/>
</g>
<!-- 1990981590224 -->
<g id="node13" class="node">
<title>1990981590224</title>
<polygon fill="white" stroke="black" points="2112.75,-81 2024.75,-81 2024.75,-45 2112.75,-45 2112.75,-81"/>
<text text-anchor="middle" x="2068.75" y="-57.98" font-family="Times New Roman,serif" font-size="12.00">Quality Inspect</text>
</g>
<!-- 1990981596704 -->
<g id="node33" class="node">
<title>1990981596704</title>
<ellipse fill="white" stroke="black" cx="2175.75" cy="-63" rx="27" ry="27"/>
</g>
<!-- 1990981590224&#45;&gt;1990981596704 -->
<g id="edge28" class="edge">
<title>1990981590224&#45;&gt;1990981596704</title>
<path fill="none" stroke="black" d="M2113.06,-63C2121.02,-63 2129.26,-63 2137.03,-63"/>
<polygon fill="black" stroke="black" points="2136.85,-66.5 2146.85,-63 2136.85,-59.5 2136.85,-66.5"/>
</g>
<!-- 1990981598960 -->
<g id="node14" class="node">
<title>1990981598960</title>
<polygon fill="white" stroke="black" points="2326.75,-81 2238.75,-81 2238.75,-45 2326.75,-45 2326.75,-81"/>
<text text-anchor="middle" x="2282.75" y="-57.98" font-family="Times New Roman,serif" font-size="12.00">Sort Packaging</text>
</g>
<!-- 1990981592576 -->
<g id="node34" class="node">
<title>1990981592576</title>
<ellipse fill="white" stroke="black" cx="2389.75" cy="-99" rx="27" ry="27"/>
</g>
<!-- 1990981598960&#45;&gt;1990981592576 -->
<g id="edge30" class="edge">
<title>1990981598960&#45;&gt;1990981592576</title>
<path fill="none" stroke="black" d="M2327.06,-77.85C2335.69,-80.81 2344.65,-83.88 2352.98,-86.74"/>
<polygon fill="black" stroke="black" points="2351.84,-90.05 2362.44,-89.98 2354.11,-83.42 2351.84,-90.05"/>
</g>
<!-- 1990981586912 -->
<g id="node35" class="node">
<title>1990981586912</title>
<ellipse fill="white" stroke="black" cx="2389.75" cy="-27" rx="27" ry="27"/>
</g>
<!-- 1990981598960&#45;&gt;1990981586912 -->
<g id="edge31" class="edge">
<title>1990981598960&#45;&gt;1990981586912</title>
<path fill="none" stroke="black" d="M2327.06,-48.15C2335.69,-45.19 2344.65,-42.12 2352.98,-39.26"/>
<polygon fill="black" stroke="black" points="2354.11,-42.58 2362.44,-36.02 2351.84,-35.95 2354.11,-42.58"/>
</g>
<!-- 1990981593728 -->
<g id="node15" class="node">
<title>1990981593728</title>
<polygon fill="white" stroke="black" points="2552,-45 2452.75,-45 2452.75,-9 2552,-9 2552,-45"/>
<text text-anchor="middle" x="2502.38" y="-21.98" font-family="Times New Roman,serif" font-size="12.00">Demand Forecast</text>
</g>
<!-- 1990981591280 -->
<g id="node37" class="node">
<title>1990981591280</title>
<ellipse fill="white" stroke="black" cx="2615" cy="-27" rx="27" ry="27"/>
</g>
<!-- 1990981593728&#45;&gt;1990981591280 -->
<g id="edge35" class="edge">
<title>1990981593728&#45;&gt;1990981591280</title>
<path fill="none" stroke="black" d="M2552.22,-27C2560.29,-27 2568.55,-27 2576.29,-27"/>
<polygon fill="black" stroke="black" points="2576.05,-30.5 2586.05,-27 2576.05,-23.5 2576.05,-30.5"/>
</g>
<!-- 1990981596752 -->
<g id="node16" class="node">
<title>1990981596752</title>
<polygon fill="white" stroke="black" points="2550.5,-117 2454.25,-117 2454.25,-81 2550.5,-81 2550.5,-117"/>
<text text-anchor="middle" x="2502.38" y="-93.97" font-family="Times New Roman,serif" font-size="12.00">Waste Recycling</text>
</g>
<!-- 1990981590560 -->
<g id="node36" class="node">
<title>1990981590560</title>
<ellipse fill="white" stroke="black" cx="2615" cy="-99" rx="27" ry="27"/>
</g>
<!-- 1990981596752&#45;&gt;1990981590560 -->
<g id="edge34" class="edge">
<title>1990981596752&#45;&gt;1990981590560</title>
<path fill="none" stroke="black" d="M2550.93,-99C2559.35,-99 2568.02,-99 2576.12,-99"/>
<polygon fill="black" stroke="black" points="2576,-102.5 2586,-99 2576,-95.5 2576,-102.5"/>
</g>
<!-- 1990981599008 -->
<g id="node17" class="node">
<title>1990981599008</title>
<polygon fill="white" stroke="black" points="2768.25,-45 2687,-45 2687,-9 2768.25,-9 2768.25,-45"/>
<text text-anchor="middle" x="2727.62" y="-21.98" font-family="Times New Roman,serif" font-size="12.00">Delivery Plan</text>
</g>
<!-- 1990981599200 -->
<g id="node39" class="node">
<title>1990981599200</title>
<ellipse fill="white" stroke="black" cx="2840.25" cy="-27" rx="27" ry="27"/>
</g>
<!-- 1990981599008&#45;&gt;1990981599200 -->
<g id="edge38" class="edge">
<title>1990981599008&#45;&gt;1990981599200</title>
<path fill="none" stroke="black" d="M2768.56,-27C2779.27,-27 2790.8,-27 2801.39,-27"/>
<polygon fill="black" stroke="black" points="2801.33,-30.5 2811.33,-27 2801.33,-23.5 2801.33,-30.5"/>
</g>
<!-- 1990981586864 -->
<g id="node18" class="node">
<title>1990981586864</title>
<polygon fill="white" stroke="black" points="2777.25,-117 2678,-117 2678,-81 2777.25,-81 2777.25,-117"/>
<text text-anchor="middle" x="2727.62" y="-93.97" font-family="Times New Roman,serif" font-size="12.00">Energy Recovery</text>
</g>
<!-- 1990981597328 -->
<g id="node38" class="node">
<title>1990981597328</title>
<ellipse fill="white" stroke="black" cx="2840.25" cy="-99" rx="27" ry="27"/>
</g>
<!-- 1990981586864&#45;&gt;1990981597328 -->
<g id="edge39" class="edge">
<title>1990981586864&#45;&gt;1990981597328</title>
<path fill="none" stroke="black" d="M2777.47,-99C2785.54,-99 2793.8,-99 2801.54,-99"/>
<polygon fill="black" stroke="black" points="2801.3,-102.5 2811.3,-99 2801.3,-95.5 2801.3,-102.5"/>
</g>
<!-- 1990980750560 -->
<g id="node19" class="node">
<title>1990980750560</title>
<polygon fill="black" stroke="black" points="2957.25,-81 2903.25,-81 2903.25,-45 2957.25,-45 2957.25,-81"/>
</g>
<!-- 1990980441904 -->
<g id="node40" class="node">
<title>1990980441904</title>
<ellipse fill="white" stroke="black" cx="3024.25" cy="-63" rx="27" ry="27"/>
<ellipse fill="none" stroke="black" cx="3024.25" cy="-63" rx="31" ry="31"/>
<text text-anchor="start" x="3007.75" y="-47.6" font-family="Times New Roman,serif" font-size="32.00">■</text>
</g>
<!-- 1990980750560&#45;&gt;1990980441904 -->
<g id="edge42" class="edge">
<title>1990980750560&#45;&gt;1990980441904</title>
<path fill="none" stroke="black" d="M2957.37,-63C2964.88,-63 2973.26,-63 2981.47,-63"/>
<polygon fill="black" stroke="black" points="2981.33,-66.5 2991.33,-63 2981.33,-59.5 2981.33,-66.5"/>
</g>
<!-- 1990980447616 -->
<g id="node20" class="node">
<title>1990980447616</title>
<ellipse fill="white" stroke="black" cx="27" cy="-159" rx="27" ry="27"/>
<text text-anchor="start" x="9.75" y="-141.7" font-family="Times New Roman,serif" font-size="34.00">●</text>
</g>
<!-- 1990980447616&#45;&gt;1990980760880 -->
<g id="edge1" class="edge">
<title>1990980447616&#45;&gt;1990980760880</title>
<path fill="none" stroke="black" d="M54.48,-159C61.84,-159 70.1,-159 78.41,-159"/>
<polygon fill="black" stroke="black" points="78.19,-162.5 88.19,-159 78.19,-155.5 78.19,-162.5"/>
</g>
<!-- 1990980760064&#45;&gt;1990980748880 -->
<g id="edge3" class="edge">
<title>1990980760064&#45;&gt;1990980748880</title>
<path fill="none" stroke="black" d="M266.08,-159C273.44,-159 281.75,-159 290.14,-159"/>
<polygon fill="black" stroke="black" points="290.06,-162.5 300.06,-159 290.06,-155.5 290.06,-162.5"/>
</g>
<!-- 1990980752240&#45;&gt;1990979791200 -->
<g id="edge5" class="edge">
<title>1990980752240&#45;&gt;1990979791200</title>
<path fill="none" stroke="black" d="M483.22,-159C490.52,-159 498.68,-159 506.83,-159"/>
<polygon fill="black" stroke="black" points="506.75,-162.5 516.75,-159 506.75,-155.5 506.75,-162.5"/>
</g>
<!-- 1990979789280&#45;&gt;1990979793600 -->
<g id="edge7" class="edge">
<title>1990979789280&#45;&gt;1990979793600</title>
<path fill="none" stroke="black" d="M686.58,-159C693.92,-159 702.21,-159 710.63,-159"/>
<polygon fill="black" stroke="black" points="710.59,-162.5 720.59,-159 710.59,-155.5 710.59,-162.5"/>
</g>
<!-- 1990976834832&#45;&gt;1990976847504 -->
<g id="edge10" class="edge">
<title>1990976834832&#45;&gt;1990976847504</title>
<path fill="none" stroke="black" d="M908.02,-195C915.38,-195 923.71,-195 932.23,-195"/>
<polygon fill="black" stroke="black" points="931.96,-198.5 941.96,-195 931.96,-191.5 931.96,-198.5"/>
</g>
<!-- 1990976840496&#45;&gt;1990976835168 -->
<g id="edge11" class="edge">
<title>1990976840496&#45;&gt;1990976835168</title>
<path fill="none" stroke="black" d="M908.02,-123C920.49,-123 935.76,-123 950.01,-123"/>
<polygon fill="black" stroke="black" points="949.62,-126.5 959.62,-123 949.62,-119.5 949.62,-126.5"/>
</g>
<!-- 1990976836560&#45;&gt;1990976832960 -->
<g id="edge15" class="edge">
<title>1990976836560&#45;&gt;1990976832960</title>
<path fill="none" stroke="black" d="M1136.76,-133.03C1145.01,-136.4 1154.39,-140.24 1163.37,-143.91"/>
<polygon fill="black" stroke="black" points="1162.04,-147.15 1172.62,-147.7 1164.69,-140.67 1162.04,-147.15"/>
</g>
<!-- 1990976847072&#45;&gt;1990976832960 -->
<g id="edge14" class="edge">
<title>1990976847072&#45;&gt;1990976832960</title>
<path fill="none" stroke="black" d="M1136.76,-184.97C1145.01,-181.6 1154.39,-177.76 1163.37,-174.09"/>
<polygon fill="black" stroke="black" points="1164.69,-177.33 1172.62,-170.3 1162.04,-170.85 1164.69,-177.33"/>
</g>
<!-- 1990976832000&#45;&gt;1990976846592 -->
<g id="edge17" class="edge">
<title>1990976832000&#45;&gt;1990976846592</title>
<path fill="none" stroke="black" d="M1318.12,-153.49C1325.67,-151.88 1334.23,-150.06 1342.91,-148.21"/>
<polygon fill="black" stroke="black" points="1343.37,-151.69 1352.42,-146.19 1341.91,-144.85 1343.37,-151.69"/>
</g>
<!-- 1990976847216&#45;&gt;1990981588160 -->
<g id="edge20" class="edge">
<title>1990976847216&#45;&gt;1990981588160</title>
<path fill="none" stroke="black" d="M1535.54,-114.49C1546.92,-108.38 1560.99,-100.82 1574.3,-93.67"/>
<polygon fill="black" stroke="black" points="1575.77,-96.86 1582.93,-89.04 1572.46,-90.69 1575.77,-96.86"/>
</g>
<!-- 1990976847216&#45;&gt;1990976831568 -->
<g id="edge19" class="edge">
<title>1990976847216&#45;&gt;1990976831568</title>
<path fill="none" stroke="black" d="M1538.48,-127.99C1547.31,-128.32 1557.49,-128.71 1567.56,-129.08"/>
<polygon fill="black" stroke="black" points="1567.16,-132.57 1577.29,-129.45 1567.43,-125.58 1567.16,-132.57"/>
</g>
<!-- 1990976845920&#45;&gt;1990976840784 -->
<g id="edge24" class="edge">
<title>1990976845920&#45;&gt;1990976840784</title>
<path fill="none" stroke="black" d="M1754.05,-140.99C1765.97,-143.79 1780.57,-147.21 1794.5,-150.48"/>
<polygon fill="black" stroke="black" points="1793.45,-153.83 1803.99,-152.7 1795.05,-147.01 1793.45,-153.83"/>
</g>
<!-- 1990981598576&#45;&gt;1990981591232 -->
<g id="edge23" class="edge">
<title>1990981598576&#45;&gt;1990981591232</title>
<path fill="none" stroke="black" d="M1754.91,-63C1762.12,-63 1770.27,-63 1778.62,-63"/>
<polygon fill="black" stroke="black" points="1778.57,-66.5 1788.57,-63 1778.57,-59.5 1778.57,-66.5"/>
</g>
<!-- 1990981586624&#45;&gt;1990981590224 -->
<g id="edge27" class="edge">
<title>1990981586624&#45;&gt;1990981590224</title>
<path fill="none" stroke="black" d="M1989.25,-63C1996.6,-63 2004.86,-63 2013.19,-63"/>
<polygon fill="black" stroke="black" points="2013,-66.5 2023,-63 2013,-59.5 2013,-66.5"/>
</g>
<!-- 1990981596704&#45;&gt;1990981598960 -->
<g id="edge29" class="edge">
<title>1990981596704&#45;&gt;1990981598960</title>
<path fill="none" stroke="black" d="M2203.25,-63C2210.6,-63 2218.86,-63 2227.19,-63"/>
<polygon fill="black" stroke="black" points="2227,-66.5 2237,-63 2227,-59.5 2227,-66.5"/>
</g>
<!-- 1990981592576&#45;&gt;1990981596752 -->
<g id="edge32" class="edge">
<title>1990981592576&#45;&gt;1990981596752</title>
<path fill="none" stroke="black" d="M2417.25,-99C2424.98,-99 2433.75,-99 2442.64,-99"/>
<polygon fill="black" stroke="black" points="2442.38,-102.5 2452.38,-99 2442.38,-95.5 2442.38,-102.5"/>
</g>
<!-- 1990981586912&#45;&gt;1990981593728 -->
<g id="edge33" class="edge">
<title>1990981586912&#45;&gt;1990981593728</title>
<path fill="none" stroke="black" d="M2417.25,-27C2424.54,-27 2432.77,-27 2441.14,-27"/>
<polygon fill="black" stroke="black" points="2441.07,-30.5 2451.07,-27 2441.07,-23.5 2441.07,-30.5"/>
</g>
<!-- 1990981590560&#45;&gt;1990981586864 -->
<g id="edge37" class="edge">
<title>1990981590560&#45;&gt;1990981586864</title>
<path fill="none" stroke="black" d="M2642.5,-99C2649.79,-99 2658.02,-99 2666.39,-99"/>
<polygon fill="black" stroke="black" points="2666.32,-102.5 2676.32,-99 2666.32,-95.5 2666.32,-102.5"/>
</g>
<!-- 1990981591280&#45;&gt;1990981599008 -->
<g id="edge36" class="edge">
<title>1990981591280&#45;&gt;1990981599008</title>
<path fill="none" stroke="black" d="M2642.5,-27C2652.37,-27 2663.95,-27 2675.3,-27"/>
<polygon fill="black" stroke="black" points="2674.99,-30.5 2684.99,-27 2674.99,-23.5 2674.99,-30.5"/>
</g>
<!-- 1990981597328&#45;&gt;1990980750560 -->
<g id="edge41" class="edge">
<title>1990981597328&#45;&gt;1990980750560</title>
<path fill="none" stroke="black" d="M2865.76,-88.97C2874.01,-85.6 2883.39,-81.76 2892.37,-78.09"/>
<polygon fill="black" stroke="black" points="2893.69,-81.33 2901.62,-74.3 2891.04,-74.85 2893.69,-81.33"/>
</g>
<!-- 1990981599200&#45;&gt;1990980750560 -->
<g id="edge40" class="edge">
<title>1990981599200&#45;&gt;1990980750560</title>
<path fill="none" stroke="black" d="M2865.76,-37.03C2874.01,-40.4 2883.39,-44.24 2892.37,-47.91"/>
<polygon fill="black" stroke="black" points="2891.04,-51.15 2901.62,-51.7 2893.69,-44.67 2891.04,-51.15"/>
</g>
</g>
</svg>
