<?xml version="1.0" encoding="UTF-8" standalone="no"?>
<!DOCTYPE svg PUBLIC "-//W3C//DTD SVG 1.1//EN"
 "http://www.w3.org/Graphics/SVG/1.1/DTD/svg11.dtd">
<!-- Generated by graphviz version 11.0.0 (20240428.1522)
 -->
<!-- Title: imdf_net_1754051907.969823 Pages: 1 -->
<svg width="3520pt" height="173pt"
 viewBox="0.00 0.00 3520.25 173.00" xmlns="http://www.w3.org/2000/svg" xmlns:xlink="http://www.w3.org/1999/xlink">
<g id="graph0" class="graph" transform="scale(1 1) rotate(0) translate(4 169)">
<title>imdf_net_1754051907.969823</title>
<polygon fill="white" stroke="none" points="-4,4 -4,-169 3516.25,-169 3516.25,4 -4,4"/>
<!-- 1990981531744 -->
<g id="node1" class="node">
<title>1990981531744</title>
<polygon fill="black" stroke="black" points="144,-156 90,-156 90,-120 144,-120 144,-156"/>
</g>
<!-- 1990971514400 -->
<g id="node20" class="node">
<title>1990971514400</title>
<ellipse fill="white" stroke="black" cx="207" cy="-138" rx="27" ry="27"/>
</g>
<!-- 1990981531744&#45;&gt;1990971514400 -->
<g id="edge2" class="edge">
<title>1990981531744&#45;&gt;1990971514400</title>
<path fill="none" stroke="black" d="M144.4,-138C151.89,-138 160.18,-138 168.2,-138"/>
<polygon fill="black" stroke="black" points="168.1,-141.5 178.1,-138 168.1,-134.5 168.1,-141.5"/>
</g>
<!-- 1990979849968 -->
<g id="node2" class="node">
<title>1990979849968</title>
<polygon fill="white" stroke="black" points="346,-129 270,-129 270,-93 346,-93 346,-129"/>
<text text-anchor="middle" x="308" y="-105.97" font-family="Times New Roman,serif" font-size="12.00">Breed Select</text>
</g>
<!-- 1990979859808 -->
<g id="node21" class="node">
<title>1990979859808</title>
<ellipse fill="white" stroke="black" cx="409" cy="-107" rx="27" ry="27"/>
</g>
<!-- 1990979849968&#45;&gt;1990979859808 -->
<g id="edge4" class="edge">
<title>1990979849968&#45;&gt;1990979859808</title>
<path fill="none" stroke="black" d="M346.43,-109.49C354.21,-109.17 362.41,-108.84 370.21,-108.53"/>
<polygon fill="black" stroke="black" points="370.25,-112.03 380.1,-108.13 369.97,-105.03 370.25,-112.03"/>
</g>
<!-- 1990979850688 -->
<g id="node3" class="node">
<title>1990979850688</title>
<polygon fill="white" stroke="black" points="550.25,-125 472,-125 472,-89 550.25,-89 550.25,-125"/>
<text text-anchor="middle" x="511.12" y="-101.97" font-family="Times New Roman,serif" font-size="12.00">Milk Harvest</text>
</g>
<!-- 1990979857264 -->
<g id="node22" class="node">
<title>1990979857264</title>
<ellipse fill="white" stroke="black" cx="613.25" cy="-107" rx="27" ry="27"/>
</g>
<!-- 1990979850688&#45;&gt;1990979857264 -->
<g id="edge6" class="edge">
<title>1990979850688&#45;&gt;1990979857264</title>
<path fill="none" stroke="black" d="M550.55,-107C558.39,-107 566.63,-107 574.44,-107"/>
<polygon fill="black" stroke="black" points="574.36,-110.5 584.36,-107 574.36,-103.5 574.36,-110.5"/>
</g>
<!-- 1990981412208 -->
<g id="node4" class="node">
<title>1990981412208</title>
<polygon fill="white" stroke="black" points="760.5,-125 676.25,-125 676.25,-89 760.5,-89 760.5,-125"/>
<text text-anchor="middle" x="718.38" y="-101.97" font-family="Times New Roman,serif" font-size="12.00">Season Adjust</text>
</g>
<!-- 1990981415040 -->
<g id="node23" class="node">
<title>1990981415040</title>
<ellipse fill="white" stroke="black" cx="823.5" cy="-107" rx="27" ry="27"/>
</g>
<!-- 1990981412208&#45;&gt;1990981415040 -->
<g id="edge8" class="edge">
<title>1990981412208&#45;&gt;1990981415040</title>
<path fill="none" stroke="black" d="M760.73,-107C768.69,-107 776.99,-107 784.83,-107"/>
<polygon fill="black" stroke="black" points="784.75,-110.5 794.75,-107 784.75,-103.5 784.75,-110.5"/>
</g>
<!-- 1990981417056 -->
<g id="node5" class="node">
<title>1990981417056</title>
<polygon fill="white" stroke="black" points="983.5,-125 886.5,-125 886.5,-89 983.5,-89 983.5,-125"/>
<text text-anchor="middle" x="935" y="-101.97" font-family="Times New Roman,serif" font-size="12.00">Microflora Grow</text>
</g>
<!-- 1990981405392 -->
<g id="node24" class="node">
<title>1990981405392</title>
<ellipse fill="white" stroke="black" cx="1046.5" cy="-107" rx="27" ry="27"/>
</g>
<!-- 1990981417056&#45;&gt;1990981405392 -->
<g id="edge10" class="edge">
<title>1990981417056&#45;&gt;1990981405392</title>
<path fill="none" stroke="black" d="M983.71,-107C991.82,-107 1000.15,-107 1007.95,-107"/>
<polygon fill="black" stroke="black" points="1007.79,-110.5 1017.79,-107 1007.79,-103.5 1007.79,-110.5"/>
</g>
<!-- 1990981411296 -->
<g id="node6" class="node">
<title>1990981411296</title>
<polygon fill="white" stroke="black" points="1199.75,-125 1109.5,-125 1109.5,-89 1199.75,-89 1199.75,-125"/>
<text text-anchor="middle" x="1154.62" y="-101.97" font-family="Times New Roman,serif" font-size="12.00">Curd Handcraft</text>
</g>
<!-- 1990981404528 -->
<g id="node25" class="node">
<title>1990981404528</title>
<ellipse fill="white" stroke="black" cx="1262.75" cy="-107" rx="27" ry="27"/>
</g>
<!-- 1990981411296&#45;&gt;1990981404528 -->
<g id="edge12" class="edge">
<title>1990981411296&#45;&gt;1990981404528</title>
<path fill="none" stroke="black" d="M1200.02,-107C1208.01,-107 1216.28,-107 1224.06,-107"/>
<polygon fill="black" stroke="black" points="1223.89,-110.5 1233.89,-107 1223.89,-103.5 1223.89,-110.5"/>
</g>
<!-- 1990981417248 -->
<g id="node7" class="node">
<title>1990981417248</title>
<polygon fill="white" stroke="black" points="1392,-125 1325.75,-125 1325.75,-89 1392,-89 1392,-125"/>
<text text-anchor="middle" x="1358.88" y="-101.97" font-family="Times New Roman,serif" font-size="12.00">Salt Infuse</text>
</g>
<!-- 1990981412928 -->
<g id="node26" class="node">
<title>1990981412928</title>
<ellipse fill="white" stroke="black" cx="1455" cy="-107" rx="27" ry="27"/>
</g>
<!-- 1990981417248&#45;&gt;1990981412928 -->
<g id="edge14" class="edge">
<title>1990981417248&#45;&gt;1990981412928</title>
<path fill="none" stroke="black" d="M1392.27,-107C1400.06,-107 1408.44,-107 1416.44,-107"/>
<polygon fill="black" stroke="black" points="1416.27,-110.5 1426.27,-107 1416.27,-103.5 1416.27,-110.5"/>
</g>
<!-- 1990981414368 -->
<g id="node8" class="node">
<title>1990981414368</title>
<polygon fill="white" stroke="black" points="1606,-125 1518,-125 1518,-89 1606,-89 1606,-125"/>
<text text-anchor="middle" x="1562" y="-101.97" font-family="Times New Roman,serif" font-size="12.00">Mold Inoculate</text>
</g>
<!-- 1990981413024 -->
<g id="node27" class="node">
<title>1990981413024</title>
<ellipse fill="white" stroke="black" cx="1669" cy="-107" rx="27" ry="27"/>
</g>
<!-- 1990981414368&#45;&gt;1990981413024 -->
<g id="edge16" class="edge">
<title>1990981414368&#45;&gt;1990981413024</title>
<path fill="none" stroke="black" d="M1606.31,-107C1614.27,-107 1622.51,-107 1630.28,-107"/>
<polygon fill="black" stroke="black" points="1630.1,-110.5 1640.1,-107 1630.1,-103.5 1630.1,-110.5"/>
</g>
<!-- 1990981250384 -->
<g id="node9" class="node">
<title>1990981250384</title>
<polygon fill="white" stroke="black" points="1801.25,-125 1732,-125 1732,-89 1801.25,-89 1801.25,-125"/>
<text text-anchor="middle" x="1766.62" y="-101.97" font-family="Times New Roman,serif" font-size="12.00">Press Form</text>
</g>
<!-- 1990981240544 -->
<g id="node28" class="node">
<title>1990981240544</title>
<ellipse fill="white" stroke="black" cx="1864.25" cy="-107" rx="27" ry="27"/>
</g>
<!-- 1990981250384&#45;&gt;1990981240544 -->
<g id="edge18" class="edge">
<title>1990981250384&#45;&gt;1990981240544</title>
<path fill="none" stroke="black" d="M1801.61,-107C1809.31,-107 1817.53,-107 1825.38,-107"/>
<polygon fill="black" stroke="black" points="1825.38,-110.5 1835.38,-107 1825.38,-103.5 1825.38,-110.5"/>
</g>
<!-- 1990981246688 -->
<g id="node10" class="node">
<title>1990981246688</title>
<polygon fill="white" stroke="black" points="2012.25,-125 1927.25,-125 1927.25,-89 2012.25,-89 2012.25,-125"/>
<text text-anchor="middle" x="1969.75" y="-101.97" font-family="Times New Roman,serif" font-size="12.00">Aging Control</text>
</g>
<!-- 1990978542800 -->
<g id="node29" class="node">
<title>1990978542800</title>
<ellipse fill="white" stroke="black" cx="2075.25" cy="-107" rx="27" ry="27"/>
</g>
<!-- 1990981246688&#45;&gt;1990978542800 -->
<g id="edge20" class="edge">
<title>1990981246688&#45;&gt;1990978542800</title>
<path fill="none" stroke="black" d="M2012.55,-107C2020.45,-107 2028.67,-107 2036.43,-107"/>
<polygon fill="black" stroke="black" points="2036.26,-110.5 2046.26,-107 2036.26,-103.5 2036.26,-110.5"/>
</g>
<!-- 1990978536368 -->
<g id="node11" class="node">
<title>1990978536368</title>
<polygon fill="white" stroke="black" points="2208.25,-125 2138.25,-125 2138.25,-89 2208.25,-89 2208.25,-125"/>
<text text-anchor="middle" x="2173.25" y="-101.97" font-family="Times New Roman,serif" font-size="12.00">Flavor Test</text>
</g>
<!-- 1990978540352 -->
<g id="node30" class="node">
<title>1990978540352</title>
<ellipse fill="white" stroke="black" cx="2271.25" cy="-107" rx="27" ry="27"/>
</g>
<!-- 1990978536368&#45;&gt;1990978540352 -->
<g id="edge22" class="edge">
<title>1990978536368&#45;&gt;1990978540352</title>
<path fill="none" stroke="black" d="M2208.64,-107C2216.35,-107 2224.58,-107 2232.43,-107"/>
<polygon fill="black" stroke="black" points="2232.42,-110.5 2242.42,-107 2232.42,-103.5 2232.42,-110.5"/>
</g>
<!-- 1990978550960 -->
<g id="node12" class="node">
<title>1990978550960</title>
<polygon fill="white" stroke="black" points="2415.5,-125 2334.25,-125 2334.25,-89 2415.5,-89 2415.5,-125"/>
<text text-anchor="middle" x="2374.88" y="-101.97" font-family="Times New Roman,serif" font-size="12.00">Batch Record</text>
</g>
<!-- 1990978052480 -->
<g id="node31" class="node">
<title>1990978052480</title>
<ellipse fill="white" stroke="black" cx="2478.5" cy="-107" rx="27" ry="27"/>
</g>
<!-- 1990978550960&#45;&gt;1990978052480 -->
<g id="edge24" class="edge">
<title>1990978550960&#45;&gt;1990978052480</title>
<path fill="none" stroke="black" d="M2415.75,-107C2423.65,-107 2431.92,-107 2439.75,-107"/>
<polygon fill="black" stroke="black" points="2439.67,-110.5 2449.67,-107 2439.67,-103.5 2439.67,-110.5"/>
</g>
<!-- 1990979100576 -->
<g id="node13" class="node">
<title>1990979100576</title>
<polygon fill="white" stroke="black" points="2643.75,-125 2541.5,-125 2541.5,-89 2643.75,-89 2643.75,-125"/>
<text text-anchor="middle" x="2592.62" y="-101.97" font-family="Times New Roman,serif" font-size="12.00">Packaging Design</text>
</g>
<!-- 1990979100624 -->
<g id="node32" class="node">
<title>1990979100624</title>
<ellipse fill="white" stroke="black" cx="2706.75" cy="-107" rx="27" ry="27"/>
</g>
<!-- 1990979100576&#45;&gt;1990979100624 -->
<g id="edge26" class="edge">
<title>1990979100576&#45;&gt;1990979100624</title>
<path fill="none" stroke="black" d="M2644.11,-107C2652.22,-107 2660.48,-107 2668.21,-107"/>
<polygon fill="black" stroke="black" points="2667.94,-110.5 2677.94,-107 2667.94,-103.5 2667.94,-110.5"/>
</g>
<!-- 1990979097120 -->
<g id="node14" class="node">
<title>1990979097120</title>
<polygon fill="white" stroke="black" points="2862.25,-125 2769.75,-125 2769.75,-89 2862.25,-89 2862.25,-125"/>
<text text-anchor="middle" x="2816" y="-101.97" font-family="Times New Roman,serif" font-size="12.00">Temp Transport</text>
</g>
<!-- 1990979330864 -->
<g id="node33" class="node">
<title>1990979330864</title>
<ellipse fill="white" stroke="black" cx="2925.25" cy="-107" rx="27" ry="27"/>
</g>
<!-- 1990979097120&#45;&gt;1990979330864 -->
<g id="edge28" class="edge">
<title>1990979097120&#45;&gt;1990979330864</title>
<path fill="none" stroke="black" d="M2862.48,-107C2870.52,-107 2878.81,-107 2886.6,-107"/>
<polygon fill="black" stroke="black" points="2886.44,-110.5 2896.44,-107 2886.44,-103.5 2886.44,-110.5"/>
</g>
<!-- 1990979326304 -->
<g id="node15" class="node">
<title>1990979326304</title>
<polygon fill="white" stroke="black" points="3070.25,-125 2988.25,-125 2988.25,-89 3070.25,-89 3070.25,-125"/>
<text text-anchor="middle" x="3029.25" y="-101.97" font-family="Times New Roman,serif" font-size="12.00">Retail Deliver</text>
</g>
<!-- 1990971506768 -->
<g id="node34" class="node">
<title>1990971506768</title>
<ellipse fill="white" stroke="black" cx="3133.25" cy="-107" rx="27" ry="27"/>
</g>
<!-- 1990979326304&#45;&gt;1990971506768 -->
<g id="edge30" class="edge">
<title>1990979326304&#45;&gt;1990971506768</title>
<path fill="none" stroke="black" d="M3070.56,-107C3078.48,-107 3086.75,-107 3094.57,-107"/>
<polygon fill="black" stroke="black" points="3094.48,-110.5 3104.48,-107 3094.48,-103.5 3094.48,-110.5"/>
</g>
<!-- 1990980808400 -->
<g id="node16" class="node">
<title>1990980808400</title>
<polygon fill="white" stroke="black" points="3286.5,-125 3196.25,-125 3196.25,-89 3286.5,-89 3286.5,-125"/>
<text text-anchor="middle" x="3241.38" y="-101.97" font-family="Times New Roman,serif" font-size="12.00">Feedback Loop</text>
</g>
<!-- 1990980809936 -->
<g id="node35" class="node">
<title>1990980809936</title>
<ellipse fill="white" stroke="black" cx="3353.5" cy="-107" rx="27" ry="27"/>
</g>
<!-- 1990980808400&#45;&gt;1990980809936 -->
<g id="edge33" class="edge">
<title>1990980808400&#45;&gt;1990980809936</title>
<path fill="none" stroke="black" d="M3286.85,-107C3296.15,-107 3305.86,-107 3314.88,-107"/>
<polygon fill="black" stroke="black" points="3314.73,-110.5 3324.73,-107 3314.73,-103.5 3314.73,-110.5"/>
</g>
<!-- 1990978239952 -->
<g id="node17" class="node">
<title>1990978239952</title>
<polygon fill="black" stroke="black" points="3268.38,-60 3214.38,-60 3214.38,-24 3268.38,-24 3268.38,-60"/>
</g>
<!-- 1990981531216 -->
<g id="node36" class="node">
<title>1990981531216</title>
<ellipse fill="white" stroke="black" cx="3353.5" cy="-31" rx="27" ry="27"/>
<ellipse fill="none" stroke="black" cx="3353.5" cy="-31" rx="31" ry="31"/>
<text text-anchor="start" x="3337" y="-15.6" font-family="Times New Roman,serif" font-size="32.00">■</text>
</g>
<!-- 1990978239952&#45;&gt;1990981531216 -->
<g id="edge34" class="edge">
<title>1990978239952&#45;&gt;1990981531216</title>
<path fill="none" stroke="black" d="M3268.75,-39.37C3281.51,-38.09 3297.11,-36.53 3311.37,-35.11"/>
<polygon fill="black" stroke="black" points="3311.34,-38.63 3320.94,-34.15 3310.64,-31.66 3311.34,-38.63"/>
</g>
<!-- 1990980797840 -->
<g id="node18" class="node">
<title>1990980797840</title>
<polygon fill="white" stroke="black" points="3512.25,-152 3420.5,-152 3420.5,-116 3512.25,-116 3512.25,-152"/>
<text text-anchor="middle" x="3466.38" y="-128.97" font-family="Times New Roman,serif" font-size="12.00">Inventory Audit</text>
</g>
<!-- 1990980797840&#45;&gt;1990971514400 -->
<g id="edge36" class="edge">
<title>1990980797840&#45;&gt;1990971514400</title>
<path fill="none" stroke="black" d="M3420.31,-143.01C3375.41,-151.2 3304.42,-162 3242.38,-162 408,-162 408,-162 408,-162 350.83,-162 285.12,-152.21 245.09,-145.14"/>
<polygon fill="black" stroke="black" points="245.72,-141.7 235.26,-143.36 244.48,-148.59 245.72,-141.7"/>
</g>
<!-- 1990981526224 -->
<g id="node19" class="node">
<title>1990981526224</title>
<ellipse fill="white" stroke="black" cx="27" cy="-138" rx="27" ry="27"/>
<text text-anchor="start" x="9.75" y="-120.7" font-family="Times New Roman,serif" font-size="34.00">●</text>
</g>
<!-- 1990981526224&#45;&gt;1990981531744 -->
<g id="edge1" class="edge">
<title>1990981526224&#45;&gt;1990981531744</title>
<path fill="none" stroke="black" d="M54.4,-138C61.89,-138 70.18,-138 78.2,-138"/>
<polygon fill="black" stroke="black" points="78.1,-141.5 88.1,-138 78.1,-134.5 78.1,-141.5"/>
</g>
<!-- 1990971514400&#45;&gt;1990979849968 -->
<g id="edge3" class="edge">
<title>1990971514400&#45;&gt;1990979849968</title>
<path fill="none" stroke="black" d="M233.49,-131.05C241.23,-128.94 250,-126.55 258.71,-124.17"/>
<polygon fill="black" stroke="black" points="259.46,-127.59 268.18,-121.59 257.61,-120.84 259.46,-127.59"/>
</g>
<!-- 1990979859808&#45;&gt;1990979850688 -->
<g id="edge5" class="edge">
<title>1990979859808&#45;&gt;1990979850688</title>
<path fill="none" stroke="black" d="M436.31,-107C443.63,-107 451.84,-107 460.05,-107"/>
<polygon fill="black" stroke="black" points="460.05,-110.5 470.05,-107 460.05,-103.5 460.05,-110.5"/>
</g>
<!-- 1990979857264&#45;&gt;1990981412208 -->
<g id="edge7" class="edge">
<title>1990979857264&#45;&gt;1990981412208</title>
<path fill="none" stroke="black" d="M640.54,-107C647.92,-107 656.23,-107 664.57,-107"/>
<polygon fill="black" stroke="black" points="664.39,-110.5 674.39,-107 664.39,-103.5 664.39,-110.5"/>
</g>
<!-- 1990981415040&#45;&gt;1990981417056 -->
<g id="edge9" class="edge">
<title>1990981415040&#45;&gt;1990981417056</title>
<path fill="none" stroke="black" d="M850.73,-107C858.04,-107 866.28,-107 874.68,-107"/>
<polygon fill="black" stroke="black" points="874.62,-110.5 884.62,-107 874.62,-103.5 874.62,-110.5"/>
</g>
<!-- 1990981405392&#45;&gt;1990981411296 -->
<g id="edge11" class="edge">
<title>1990981405392&#45;&gt;1990981411296</title>
<path fill="none" stroke="black" d="M1073.73,-107C1081.08,-107 1089.35,-107 1097.72,-107"/>
<polygon fill="black" stroke="black" points="1097.59,-110.5 1107.59,-107 1097.59,-103.5 1097.59,-110.5"/>
</g>
<!-- 1990981404528&#45;&gt;1990981417248 -->
<g id="edge13" class="edge">
<title>1990981404528&#45;&gt;1990981417248</title>
<path fill="none" stroke="black" d="M1290.22,-107C1297.69,-107 1306.01,-107 1314.2,-107"/>
<polygon fill="black" stroke="black" points="1314.07,-110.5 1324.07,-107 1314.07,-103.5 1314.07,-110.5"/>
</g>
<!-- 1990981412928&#45;&gt;1990981414368 -->
<g id="edge15" class="edge">
<title>1990981412928&#45;&gt;1990981414368</title>
<path fill="none" stroke="black" d="M1482.5,-107C1489.85,-107 1498.11,-107 1506.44,-107"/>
<polygon fill="black" stroke="black" points="1506.25,-110.5 1516.25,-107 1506.25,-103.5 1506.25,-110.5"/>
</g>
<!-- 1990981413024&#45;&gt;1990981250384 -->
<g id="edge17" class="edge">
<title>1990981413024&#45;&gt;1990981250384</title>
<path fill="none" stroke="black" d="M1696.38,-107C1703.82,-107 1712.14,-107 1720.35,-107"/>
<polygon fill="black" stroke="black" points="1720.28,-110.5 1730.28,-107 1720.28,-103.5 1720.28,-110.5"/>
</g>
<!-- 1990981240544&#45;&gt;1990981246688 -->
<g id="edge19" class="edge">
<title>1990981240544&#45;&gt;1990981246688</title>
<path fill="none" stroke="black" d="M1891.64,-107C1899.05,-107 1907.38,-107 1915.76,-107"/>
<polygon fill="black" stroke="black" points="1915.61,-110.5 1925.61,-107 1915.61,-103.5 1915.61,-110.5"/>
</g>
<!-- 1990978542800&#45;&gt;1990978536368 -->
<g id="edge21" class="edge">
<title>1990978542800&#45;&gt;1990978536368</title>
<path fill="none" stroke="black" d="M2102.74,-107C2110.13,-107 2118.38,-107 2126.55,-107"/>
<polygon fill="black" stroke="black" points="2126.42,-110.5 2136.42,-107 2126.41,-103.5 2126.42,-110.5"/>
</g>
<!-- 1990978540352&#45;&gt;1990978550960 -->
<g id="edge23" class="edge">
<title>1990978540352&#45;&gt;1990978550960</title>
<path fill="none" stroke="black" d="M2298.69,-107C2305.96,-107 2314.11,-107 2322.28,-107"/>
<polygon fill="black" stroke="black" points="2322.26,-110.5 2332.26,-107 2322.26,-103.5 2322.26,-110.5"/>
</g>
<!-- 1990978052480&#45;&gt;1990979100576 -->
<g id="edge25" class="edge">
<title>1990978052480&#45;&gt;1990979100576</title>
<path fill="none" stroke="black" d="M2505.79,-107C2513.17,-107 2521.52,-107 2530.04,-107"/>
<polygon fill="black" stroke="black" points="2529.77,-110.5 2539.77,-107 2529.77,-103.5 2529.77,-110.5"/>
</g>
<!-- 1990979100624&#45;&gt;1990979097120 -->
<g id="edge27" class="edge">
<title>1990979100624&#45;&gt;1990979097120</title>
<path fill="none" stroke="black" d="M2733.99,-107C2741.32,-107 2749.59,-107 2757.97,-107"/>
<polygon fill="black" stroke="black" points="2757.87,-110.5 2767.87,-107 2757.87,-103.5 2757.87,-110.5"/>
</g>
<!-- 1990979330864&#45;&gt;1990979326304 -->
<g id="edge29" class="edge">
<title>1990979330864&#45;&gt;1990979326304</title>
<path fill="none" stroke="black" d="M2952.52,-107C2959.9,-107 2968.2,-107 2976.53,-107"/>
<polygon fill="black" stroke="black" points="2976.3,-110.5 2986.3,-107 2976.3,-103.5 2976.3,-110.5"/>
</g>
<!-- 1990971506768&#45;&gt;1990980808400 -->
<g id="edge31" class="edge">
<title>1990971506768&#45;&gt;1990980808400</title>
<path fill="none" stroke="black" d="M3160.48,-107C3167.83,-107 3176.1,-107 3184.47,-107"/>
<polygon fill="black" stroke="black" points="3184.34,-110.5 3194.34,-107 3184.34,-103.5 3184.34,-110.5"/>
</g>
<!-- 1990971506768&#45;&gt;1990978239952 -->
<g id="edge32" class="edge">
<title>1990971506768&#45;&gt;1990978239952</title>
<path fill="none" stroke="black" d="M3156.76,-93.22C3170.66,-84.7 3188.82,-73.58 3204.66,-63.88"/>
<polygon fill="black" stroke="black" points="3206.17,-67.06 3212.87,-58.85 3202.51,-61.09 3206.17,-67.06"/>
</g>
<!-- 1990980809936&#45;&gt;1990980797840 -->
<g id="edge35" class="edge">
<title>1990980809936&#45;&gt;1990980797840</title>
<path fill="none" stroke="black" d="M3380.22,-113.26C3388.95,-115.39 3399.09,-117.86 3409.26,-120.33"/>
<polygon fill="black" stroke="black" points="3408.22,-123.68 3418.77,-122.65 3409.88,-116.88 3408.22,-123.68"/>
</g>
</g>
</svg>
