<?xml version="1.0" encoding="UTF-8" standalone="no"?>
<!DOCTYPE svg PUBLIC "-//W3C//DTD SVG 1.1//EN"
 "http://www.w3.org/Graphics/SVG/1.1/DTD/svg11.dtd">
<!-- Generated by graphviz version 11.0.0 (20240428.1522)
 -->
<!-- Title: imdf_net_1754051912.486421 Pages: 1 -->
<svg width="3414pt" height="115pt"
 viewBox="0.00 0.00 3413.50 115.00" xmlns="http://www.w3.org/2000/svg" xmlns:xlink="http://www.w3.org/1999/xlink">
<g id="graph0" class="graph" transform="scale(1 1) rotate(0) translate(4 111)">
<title>imdf_net_1754051912.486421</title>
<polygon fill="white" stroke="none" points="-4,4 -4,-111 3409.5,-111 3409.5,4 -4,4"/>
<!-- 1990971037152 -->
<g id="node1" class="node">
<title>1990971037152</title>
<polygon fill="black" stroke="black" points="144,-84 90,-84 90,-48 144,-48 144,-84"/>
</g>
<!-- 1990980808304 -->
<g id="node19" class="node">
<title>1990980808304</title>
<ellipse fill="white" stroke="black" cx="207" cy="-66" rx="27" ry="27"/>
</g>
<!-- 1990971037152&#45;&gt;1990980808304 -->
<g id="edge2" class="edge">
<title>1990971037152&#45;&gt;1990980808304</title>
<path fill="none" stroke="black" d="M144.4,-66C151.89,-66 160.18,-66 168.2,-66"/>
<polygon fill="black" stroke="black" points="168.1,-69.5 178.1,-66 168.1,-62.5 168.1,-69.5"/>
</g>
<!-- 1990976847552 -->
<g id="node2" class="node">
<title>1990976847552</title>
<polygon fill="white" stroke="black" points="357.25,-57 270,-57 270,-21 357.25,-21 357.25,-57"/>
<text text-anchor="middle" x="313.62" y="-33.98" font-family="Times New Roman,serif" font-size="12.00">Trend Spotting</text>
</g>
<!-- 1990976834976 -->
<g id="node20" class="node">
<title>1990976834976</title>
<ellipse fill="white" stroke="black" cx="420.25" cy="-35" rx="27" ry="27"/>
</g>
<!-- 1990976847552&#45;&gt;1990976834976 -->
<g id="edge4" class="edge">
<title>1990976847552&#45;&gt;1990976834976</title>
<path fill="none" stroke="black" d="M357.48,-37.36C365.43,-37.06 373.67,-36.74 381.45,-36.45"/>
<polygon fill="black" stroke="black" points="381.43,-39.95 391.29,-36.07 381.17,-32.95 381.43,-39.95"/>
</g>
<!-- 1990976842944 -->
<g id="node3" class="node">
<title>1990976842944</title>
<polygon fill="white" stroke="black" points="557,-53 483.25,-53 483.25,-17 557,-17 557,-53"/>
<text text-anchor="middle" x="520.12" y="-29.98" font-family="Times New Roman,serif" font-size="12.00">Idea Mining</text>
</g>
<!-- 1990976844624 -->
<g id="node21" class="node">
<title>1990976844624</title>
<ellipse fill="white" stroke="black" cx="620" cy="-35" rx="27" ry="27"/>
</g>
<!-- 1990976842944&#45;&gt;1990976844624 -->
<g id="edge6" class="edge">
<title>1990976842944&#45;&gt;1990976844624</title>
<path fill="none" stroke="black" d="M557.29,-35C565.19,-35 573.58,-35 581.53,-35"/>
<polygon fill="black" stroke="black" points="581.25,-38.5 591.25,-35 581.25,-31.5 581.25,-38.5"/>
</g>
<!-- 1990976834448 -->
<g id="node4" class="node">
<title>1990976834448</title>
<polygon fill="white" stroke="black" points="766.5,-53 683,-53 683,-17 766.5,-17 766.5,-53"/>
<text text-anchor="middle" x="724.75" y="-29.98" font-family="Times New Roman,serif" font-size="12.00">Brainstorming</text>
</g>
<!-- 1990976843328 -->
<g id="node22" class="node">
<title>1990976843328</title>
<ellipse fill="white" stroke="black" cx="829.5" cy="-35" rx="27" ry="27"/>
</g>
<!-- 1990976834448&#45;&gt;1990976843328 -->
<g id="edge8" class="edge">
<title>1990976834448&#45;&gt;1990976843328</title>
<path fill="none" stroke="black" d="M766.95,-35C774.81,-35 783,-35 790.75,-35"/>
<polygon fill="black" stroke="black" points="790.55,-38.5 800.55,-35 790.55,-31.5 790.55,-38.5"/>
</g>
<!-- 1990976837280 -->
<g id="node5" class="node">
<title>1990976837280</title>
<polygon fill="white" stroke="black" points="983.5,-53 892.5,-53 892.5,-17 983.5,-17 983.5,-53"/>
<text text-anchor="middle" x="938" y="-29.98" font-family="Times New Roman,serif" font-size="12.00">Concept Sketch</text>
</g>
<!-- 1990976842848 -->
<g id="node23" class="node">
<title>1990976842848</title>
<ellipse fill="white" stroke="black" cx="1046.5" cy="-35" rx="27" ry="27"/>
</g>
<!-- 1990976837280&#45;&gt;1990976842848 -->
<g id="edge10" class="edge">
<title>1990976837280&#45;&gt;1990976842848</title>
<path fill="none" stroke="black" d="M983.86,-35C991.86,-35 1000.12,-35 1007.9,-35"/>
<polygon fill="black" stroke="black" points="1007.71,-38.5 1017.71,-35 1007.71,-31.5 1007.71,-38.5"/>
</g>
<!-- 1990976844576 -->
<g id="node6" class="node">
<title>1990976844576</title>
<polygon fill="white" stroke="black" points="1200.5,-52 1109.5,-52 1109.5,-16 1200.5,-16 1200.5,-52"/>
<text text-anchor="middle" x="1155" y="-28.98" font-family="Times New Roman,serif" font-size="12.00">Prototype Build</text>
</g>
<!-- 1990976843760 -->
<g id="node24" class="node">
<title>1990976843760</title>
<ellipse fill="white" stroke="black" cx="1263.5" cy="-34" rx="27" ry="27"/>
</g>
<!-- 1990976844576&#45;&gt;1990976843760 -->
<g id="edge12" class="edge">
<title>1990976844576&#45;&gt;1990976843760</title>
<path fill="none" stroke="black" d="M1200.86,-34C1208.86,-34 1217.12,-34 1224.9,-34"/>
<polygon fill="black" stroke="black" points="1224.71,-37.5 1234.71,-34 1224.71,-30.5 1224.71,-37.5"/>
</g>
<!-- 1990979785008 -->
<g id="node7" class="node">
<title>1990979785008</title>
<polygon fill="white" stroke="black" points="1410.75,-51 1326.5,-51 1326.5,-15 1410.75,-15 1410.75,-51"/>
<text text-anchor="middle" x="1368.62" y="-27.98" font-family="Times New Roman,serif" font-size="12.00">Sprint Review</text>
</g>
<!-- 1990979791632 -->
<g id="node25" class="node">
<title>1990979791632</title>
<ellipse fill="white" stroke="black" cx="1473.75" cy="-33" rx="27" ry="27"/>
</g>
<!-- 1990979785008&#45;&gt;1990979791632 -->
<g id="edge14" class="edge">
<title>1990979785008&#45;&gt;1990979791632</title>
<path fill="none" stroke="black" d="M1410.98,-33C1418.94,-33 1427.24,-33 1435.08,-33"/>
<polygon fill="black" stroke="black" points="1435,-36.5 1445,-33 1435,-29.5 1435,-36.5"/>
</g>
<!-- 1990979781936 -->
<g id="node8" class="node">
<title>1990979781936</title>
<polygon fill="white" stroke="black" points="1622.5,-49 1536.75,-49 1536.75,-13 1622.5,-13 1622.5,-49"/>
<text text-anchor="middle" x="1579.62" y="-25.98" font-family="Times New Roman,serif" font-size="12.00">Peer Feedback</text>
</g>
<!-- 1990979787696 -->
<g id="node26" class="node">
<title>1990979787696</title>
<ellipse fill="white" stroke="black" cx="1685.5" cy="-27" rx="27" ry="27"/>
</g>
<!-- 1990979781936&#45;&gt;1990979787696 -->
<g id="edge16" class="edge">
<title>1990979781936&#45;&gt;1990979787696</title>
<path fill="none" stroke="black" d="M1622.87,-29.37C1630.78,-29.07 1639,-28.75 1646.76,-28.45"/>
<polygon fill="black" stroke="black" points="1646.72,-31.96 1656.57,-28.08 1646.45,-24.96 1646.72,-31.96"/>
</g>
<!-- 1990979787744 -->
<g id="node9" class="node">
<title>1990979787744</title>
<polygon fill="white" stroke="black" points="1830.5,-46 1748.5,-46 1748.5,-10 1830.5,-10 1830.5,-46"/>
<text text-anchor="middle" x="1789.5" y="-22.98" font-family="Times New Roman,serif" font-size="12.00">Iterate Design</text>
</g>
<!-- 1990979788224 -->
<g id="node27" class="node">
<title>1990979788224</title>
<ellipse fill="white" stroke="black" cx="1893.5" cy="-32" rx="27" ry="27"/>
</g>
<!-- 1990979787744&#45;&gt;1990979788224 -->
<g id="edge18" class="edge">
<title>1990979787744&#45;&gt;1990979788224</title>
<path fill="none" stroke="black" d="M1830.81,-29.58C1838.73,-29.89 1847,-30.22 1854.82,-30.52"/>
<polygon fill="black" stroke="black" points="1854.6,-34.02 1864.73,-30.91 1854.88,-27.02 1854.6,-34.02"/>
</g>
<!-- 1990979788752 -->
<g id="node10" class="node">
<title>1990979788752</title>
<polygon fill="white" stroke="black" points="2033.25,-52 1956.5,-52 1956.5,-16 2033.25,-16 2033.25,-52"/>
<text text-anchor="middle" x="1994.88" y="-28.98" font-family="Times New Roman,serif" font-size="12.00">Pilot Launch</text>
</g>
<!-- 1990979788704 -->
<g id="node28" class="node">
<title>1990979788704</title>
<ellipse fill="white" stroke="black" cx="2096.25" cy="-35" rx="27" ry="27"/>
</g>
<!-- 1990979788752&#45;&gt;1990979788704 -->
<g id="edge20" class="edge">
<title>1990979788752&#45;&gt;1990979788704</title>
<path fill="none" stroke="black" d="M2033.73,-34.38C2041.52,-34.46 2049.73,-34.54 2057.52,-34.62"/>
<polygon fill="black" stroke="black" points="2057.37,-38.12 2067.4,-34.72 2057.44,-31.12 2057.37,-38.12"/>
</g>
<!-- 1990979789136 -->
<g id="node11" class="node">
<title>1990979789136</title>
<polygon fill="white" stroke="black" points="2234.5,-53 2159.25,-53 2159.25,-17 2234.5,-17 2234.5,-53"/>
<text text-anchor="middle" x="2196.88" y="-29.98" font-family="Times New Roman,serif" font-size="12.00">User Survey</text>
</g>
<!-- 1990979787984 -->
<g id="node29" class="node">
<title>1990979787984</title>
<ellipse fill="white" stroke="black" cx="2297.5" cy="-35" rx="27" ry="27"/>
</g>
<!-- 1990979789136&#45;&gt;1990979787984 -->
<g id="edge22" class="edge">
<title>1990979789136&#45;&gt;1990979787984</title>
<path fill="none" stroke="black" d="M2234.88,-35C2242.65,-35 2250.85,-35 2258.65,-35"/>
<polygon fill="black" stroke="black" points="2258.55,-38.5 2268.55,-35 2258.55,-31.5 2258.55,-38.5"/>
</g>
<!-- 1990971623856 -->
<g id="node12" class="node">
<title>1990971623856</title>
<polygon fill="white" stroke="black" points="2443.25,-53 2360.5,-53 2360.5,-17 2443.25,-17 2443.25,-53"/>
<text text-anchor="middle" x="2401.88" y="-29.98" font-family="Times New Roman,serif" font-size="12.00">Data Analysis</text>
</g>
<!-- 1990971626256 -->
<g id="node30" class="node">
<title>1990971626256</title>
<ellipse fill="white" stroke="black" cx="2506.25" cy="-35" rx="27" ry="27"/>
</g>
<!-- 1990971623856&#45;&gt;1990971626256 -->
<g id="edge24" class="edge">
<title>1990971623856&#45;&gt;1990971626256</title>
<path fill="none" stroke="black" d="M2443.63,-35C2451.48,-35 2459.67,-35 2467.42,-35"/>
<polygon fill="black" stroke="black" points="2467.24,-38.5 2477.24,-35 2467.24,-31.5 2467.24,-38.5"/>
</g>
<!-- 1990971635712 -->
<g id="node13" class="node">
<title>1990971635712</title>
<polygon fill="white" stroke="black" points="2646.75,-53 2569.25,-53 2569.25,-17 2646.75,-17 2646.75,-53"/>
<text text-anchor="middle" x="2608" y="-29.98" font-family="Times New Roman,serif" font-size="12.00">Market Pivot</text>
</g>
<!-- 1990971636960 -->
<g id="node31" class="node">
<title>1990971636960</title>
<ellipse fill="white" stroke="black" cx="2709.75" cy="-35" rx="27" ry="27"/>
</g>
<!-- 1990971635712&#45;&gt;1990971636960 -->
<g id="edge26" class="edge">
<title>1990971635712&#45;&gt;1990971636960</title>
<path fill="none" stroke="black" d="M2647,-35C2654.82,-35 2663.06,-35 2670.88,-35"/>
<polygon fill="black" stroke="black" points="2670.8,-38.5 2680.8,-35 2670.8,-31.5 2670.8,-38.5"/>
</g>
<!-- 1990980362000 -->
<g id="node14" class="node">
<title>1990980362000</title>
<polygon fill="white" stroke="black" points="2859.25,-53 2772.75,-53 2772.75,-17 2859.25,-17 2859.25,-53"/>
<text text-anchor="middle" x="2816" y="-29.98" font-family="Times New Roman,serif" font-size="12.00">Scale Planning</text>
</g>
<!-- 1990980369392 -->
<g id="node32" class="node">
<title>1990980369392</title>
<ellipse fill="white" stroke="black" cx="2922.25" cy="-35" rx="27" ry="27"/>
</g>
<!-- 1990980362000&#45;&gt;1990980369392 -->
<g id="edge28" class="edge">
<title>1990980362000&#45;&gt;1990980369392</title>
<path fill="none" stroke="black" d="M2859.7,-35C2867.62,-35 2875.84,-35 2883.59,-35"/>
<polygon fill="black" stroke="black" points="2883.39,-38.5 2893.39,-35 2883.39,-31.5 2883.39,-38.5"/>
</g>
<!-- 1990980355136 -->
<g id="node15" class="node">
<title>1990980355136</title>
<polygon fill="white" stroke="black" points="3098,-53 2985.25,-53 2985.25,-17 3098,-17 3098,-53"/>
<text text-anchor="middle" x="3041.62" y="-29.98" font-family="Times New Roman,serif" font-size="12.00">Knowledge Archive</text>
</g>
<!-- 1990975979744 -->
<g id="node33" class="node">
<title>1990975979744</title>
<ellipse fill="white" stroke="black" cx="3161" cy="-35" rx="27" ry="27"/>
</g>
<!-- 1990980355136&#45;&gt;1990975979744 -->
<g id="edge30" class="edge">
<title>1990980355136&#45;&gt;1990975979744</title>
<path fill="none" stroke="black" d="M3098.22,-35C3106.31,-35 3114.47,-35 3122.1,-35"/>
<polygon fill="black" stroke="black" points="3122.04,-38.5 3132.04,-35 3122.04,-31.5 3122.04,-38.5"/>
</g>
<!-- 1990980749984 -->
<g id="node16" class="node">
<title>1990980749984</title>
<polygon fill="black" stroke="black" points="3292.75,-53 3238.75,-53 3238.75,-17 3292.75,-17 3292.75,-53"/>
</g>
<!-- 1990971045264 -->
<g id="node34" class="node">
<title>1990971045264</title>
<ellipse fill="white" stroke="black" cx="3374.5" cy="-35" rx="27" ry="27"/>
<ellipse fill="none" stroke="black" cx="3374.5" cy="-35" rx="31" ry="31"/>
<text text-anchor="start" x="3358" y="-19.6" font-family="Times New Roman,serif" font-size="32.00">■</text>
</g>
<!-- 1990980749984&#45;&gt;1990971045264 -->
<g id="edge34" class="edge">
<title>1990980749984&#45;&gt;1990971045264</title>
<path fill="none" stroke="black" d="M3293.14,-35C3304.88,-35 3319,-35 3332.1,-35"/>
<polygon fill="black" stroke="black" points="3331.75,-38.5 3341.75,-35 3331.75,-31.5 3331.75,-38.5"/>
</g>
<!-- 1990980760112 -->
<g id="node17" class="node">
<title>1990980760112</title>
<polygon fill="white" stroke="black" points="3307.5,-107 3224,-107 3224,-71 3307.5,-71 3307.5,-107"/>
<text text-anchor="middle" x="3265.75" y="-83.97" font-family="Times New Roman,serif" font-size="12.00">Cycle Review</text>
</g>
<!-- 1990980760112&#45;&gt;1990980808304 -->
<g id="edge33" class="edge">
<title>1990980760112&#45;&gt;1990980808304</title>
<path fill="none" stroke="black" d="M3223.81,-89.29C3179.24,-89.59 3105.87,-90 3042.62,-90 419.25,-90 419.25,-90 419.25,-90 357.98,-90 287.34,-79.91 245.25,-72.81"/>
<polygon fill="black" stroke="black" points="245.85,-69.37 235.4,-71.11 244.66,-76.26 245.85,-69.37"/>
</g>
<!-- 1990971042960 -->
<g id="node18" class="node">
<title>1990971042960</title>
<ellipse fill="white" stroke="black" cx="27" cy="-66" rx="27" ry="27"/>
<text text-anchor="start" x="9.75" y="-48.7" font-family="Times New Roman,serif" font-size="34.00">●</text>
</g>
<!-- 1990971042960&#45;&gt;1990971037152 -->
<g id="edge1" class="edge">
<title>1990971042960&#45;&gt;1990971037152</title>
<path fill="none" stroke="black" d="M54.4,-66C61.89,-66 70.18,-66 78.2,-66"/>
<polygon fill="black" stroke="black" points="78.1,-69.5 88.1,-66 78.1,-62.5 78.1,-69.5"/>
</g>
<!-- 1990980808304&#45;&gt;1990976847552 -->
<g id="edge3" class="edge">
<title>1990980808304&#45;&gt;1990976847552</title>
<path fill="none" stroke="black" d="M233.59,-59.4C241.25,-57.42 249.95,-55.17 258.71,-52.91"/>
<polygon fill="black" stroke="black" points="259.49,-56.33 268.3,-50.44 257.74,-49.55 259.49,-56.33"/>
</g>
<!-- 1990976834976&#45;&gt;1990976842944 -->
<g id="edge5" class="edge">
<title>1990976834976&#45;&gt;1990976842944</title>
<path fill="none" stroke="black" d="M447.74,-35C455.12,-35 463.38,-35 471.59,-35"/>
<polygon fill="black" stroke="black" points="471.55,-38.5 481.55,-35 471.55,-31.5 471.55,-38.5"/>
</g>
<!-- 1990976844624&#45;&gt;1990976834448 -->
<g id="edge7" class="edge">
<title>1990976844624&#45;&gt;1990976834448</title>
<path fill="none" stroke="black" d="M647.46,-35C654.82,-35 663.08,-35 671.37,-35"/>
<polygon fill="black" stroke="black" points="671.11,-38.5 681.11,-35 671.11,-31.5 671.11,-38.5"/>
</g>
<!-- 1990976843328&#45;&gt;1990976837280 -->
<g id="edge9" class="edge">
<title>1990976843328&#45;&gt;1990976837280</title>
<path fill="none" stroke="black" d="M856.83,-35C864.19,-35 872.5,-35 880.89,-35"/>
<polygon fill="black" stroke="black" points="880.81,-38.5 890.81,-35 880.81,-31.5 880.81,-38.5"/>
</g>
<!-- 1990976842848&#45;&gt;1990976844576 -->
<g id="edge11" class="edge">
<title>1990976842848&#45;&gt;1990976844576</title>
<path fill="none" stroke="black" d="M1073.83,-34.75C1081.19,-34.68 1089.5,-34.61 1097.89,-34.53"/>
<polygon fill="black" stroke="black" points="1097.84,-38.03 1107.81,-34.43 1097.78,-31.03 1097.84,-38.03"/>
</g>
<!-- 1990976843760&#45;&gt;1990979785008 -->
<g id="edge13" class="edge">
<title>1990976843760&#45;&gt;1990979785008</title>
<path fill="none" stroke="black" d="M1290.79,-33.75C1298.17,-33.67 1306.48,-33.59 1314.82,-33.51"/>
<polygon fill="black" stroke="black" points="1314.67,-37.01 1324.64,-33.42 1314.6,-30.01 1314.67,-37.01"/>
</g>
<!-- 1990979791632&#45;&gt;1990979781936 -->
<g id="edge15" class="edge">
<title>1990979791632&#45;&gt;1990979781936</title>
<path fill="none" stroke="black" d="M1501.23,-32.49C1508.59,-32.35 1516.85,-32.19 1525.16,-32.03"/>
<polygon fill="black" stroke="black" points="1525,-35.53 1534.94,-31.84 1524.87,-28.53 1525,-35.53"/>
</g>
<!-- 1990979787696&#45;&gt;1990979787744 -->
<g id="edge17" class="edge">
<title>1990979787696&#45;&gt;1990979787744</title>
<path fill="none" stroke="black" d="M1712.77,-27.26C1720.15,-27.33 1728.45,-27.41 1736.78,-27.49"/>
<polygon fill="black" stroke="black" points="1736.51,-30.99 1746.55,-27.59 1736.58,-23.99 1736.51,-30.99"/>
</g>
<!-- 1990979788224&#45;&gt;1990979788752 -->
<g id="edge19" class="edge">
<title>1990979788224&#45;&gt;1990979788752</title>
<path fill="none" stroke="black" d="M1920.87,-32.53C1928.22,-32.68 1936.44,-32.84 1944.65,-33.01"/>
<polygon fill="black" stroke="black" points="1944.58,-36.51 1954.64,-33.21 1944.72,-29.51 1944.58,-36.51"/>
</g>
<!-- 1990979788704&#45;&gt;1990979789136 -->
<g id="edge21" class="edge">
<title>1990979788704&#45;&gt;1990979789136</title>
<path fill="none" stroke="black" d="M2123.68,-35C2131.05,-35 2139.29,-35 2147.5,-35"/>
<polygon fill="black" stroke="black" points="2147.48,-38.5 2157.48,-35 2147.48,-31.5 2147.48,-38.5"/>
</g>
<!-- 1990979787984&#45;&gt;1990971623856 -->
<g id="edge23" class="edge">
<title>1990979787984&#45;&gt;1990971623856</title>
<path fill="none" stroke="black" d="M2324.86,-35C2332.28,-35 2340.61,-35 2348.96,-35"/>
<polygon fill="black" stroke="black" points="2348.77,-38.5 2358.77,-35 2348.77,-31.5 2348.77,-38.5"/>
</g>
<!-- 1990971626256&#45;&gt;1990971635712 -->
<g id="edge25" class="edge">
<title>1990971626256&#45;&gt;1990971635712</title>
<path fill="none" stroke="black" d="M2533.72,-35C2541.02,-35 2549.18,-35 2557.33,-35"/>
<polygon fill="black" stroke="black" points="2557.25,-38.5 2567.25,-35 2557.25,-31.5 2557.25,-38.5"/>
</g>
<!-- 1990971636960&#45;&gt;1990980362000 -->
<g id="edge27" class="edge">
<title>1990971636960&#45;&gt;1990980362000</title>
<path fill="none" stroke="black" d="M2737.06,-35C2744.44,-35 2752.74,-35 2761.11,-35"/>
<polygon fill="black" stroke="black" points="2760.96,-38.5 2770.96,-35 2760.96,-31.5 2760.96,-38.5"/>
</g>
<!-- 1990980369392&#45;&gt;1990980355136 -->
<g id="edge29" class="edge">
<title>1990980369392&#45;&gt;1990980355136</title>
<path fill="none" stroke="black" d="M2949.59,-35C2956.92,-35 2965.23,-35 2973.78,-35"/>
<polygon fill="black" stroke="black" points="2973.57,-38.5 2983.57,-35 2973.57,-31.5 2973.57,-38.5"/>
</g>
<!-- 1990975979744&#45;&gt;1990980749984 -->
<g id="edge31" class="edge">
<title>1990975979744&#45;&gt;1990980749984</title>
<path fill="none" stroke="black" d="M3188.46,-35C3200.21,-35 3214.24,-35 3227.06,-35"/>
<polygon fill="black" stroke="black" points="3226.87,-38.5 3236.87,-35 3226.87,-31.5 3226.87,-38.5"/>
</g>
<!-- 1990975979744&#45;&gt;1990980760112 -->
<g id="edge32" class="edge">
<title>1990975979744&#45;&gt;1990980760112</title>
<path fill="none" stroke="black" d="M3185.32,-47.25C3195.58,-52.65 3208.01,-59.18 3219.96,-65.46"/>
<polygon fill="black" stroke="black" points="3218,-68.38 3228.48,-69.94 3221.25,-62.19 3218,-68.38"/>
</g>
</g>
</svg>
