<?xml version="1.0" encoding="UTF-8" standalone="no"?>
<!DOCTYPE svg PUBLIC "-//W3C//DTD SVG 1.1//EN"
 "http://www.w3.org/Graphics/SVG/1.1/DTD/svg11.dtd">
<!-- Generated by graphviz version 11.0.0 (20240428.1522)
 -->
<!-- Title: imdf_net_1754051920.6652997 Pages: 1 -->
<svg width="3295pt" height="143pt"
 viewBox="0.00 0.00 3295.00 143.00" xmlns="http://www.w3.org/2000/svg" xmlns:xlink="http://www.w3.org/1999/xlink">
<g id="graph0" class="graph" transform="scale(1 1) rotate(0) translate(4 139)">
<title>imdf_net_1754051920.6652997</title>
<polygon fill="white" stroke="none" points="-4,4 -4,-139 3291,-139 3291,4 -4,4"/>
<!-- 1990980514928 -->
<g id="node1" class="node">
<title>1990980514928</title>
<polygon fill="white" stroke="black" points="175,-109 90,-109 90,-73 175,-73 175,-109"/>
<text text-anchor="middle" x="132.5" y="-85.97" font-family="Times New Roman,serif" font-size="12.00">Milk Selection</text>
</g>
<!-- 1990980504560 -->
<g id="node20" class="node">
<title>1990980504560</title>
<ellipse fill="white" stroke="black" cx="238" cy="-91" rx="27" ry="27"/>
</g>
<!-- 1990980514928&#45;&gt;1990980504560 -->
<g id="edge2" class="edge">
<title>1990980514928&#45;&gt;1990980504560</title>
<path fill="none" stroke="black" d="M175.3,-91C183.2,-91 191.42,-91 199.18,-91"/>
<polygon fill="black" stroke="black" points="199.01,-94.5 209.01,-91 199.01,-87.5 199.01,-94.5"/>
</g>
<!-- 1990980511472 -->
<g id="node2" class="node">
<title>1990980511472</title>
<polygon fill="white" stroke="black" points="377.75,-109 301,-109 301,-73 377.75,-73 377.75,-109"/>
<text text-anchor="middle" x="339.38" y="-85.97" font-family="Times New Roman,serif" font-size="12.00">Milk Testing</text>
</g>
<!-- 1990980517664 -->
<g id="node21" class="node">
<title>1990980517664</title>
<ellipse fill="white" stroke="black" cx="440.75" cy="-91" rx="27" ry="27"/>
</g>
<!-- 1990980511472&#45;&gt;1990980517664 -->
<g id="edge4" class="edge">
<title>1990980511472&#45;&gt;1990980517664</title>
<path fill="none" stroke="black" d="M378.23,-91C386.02,-91 394.23,-91 402.02,-91"/>
<polygon fill="black" stroke="black" points="401.9,-94.5 411.9,-91 401.9,-87.5 401.9,-94.5"/>
</g>
<!-- 1990980507632 -->
<g id="node3" class="node">
<title>1990980507632</title>
<polygon fill="white" stroke="black" points="588.75,-109 503.75,-109 503.75,-73 588.75,-73 588.75,-109"/>
<text text-anchor="middle" x="546.25" y="-85.97" font-family="Times New Roman,serif" font-size="12.00">Starter Culture</text>
</g>
<!-- 1990980504128 -->
<g id="node22" class="node">
<title>1990980504128</title>
<ellipse fill="white" stroke="black" cx="651.75" cy="-91" rx="27" ry="27"/>
</g>
<!-- 1990980507632&#45;&gt;1990980504128 -->
<g id="edge6" class="edge">
<title>1990980507632&#45;&gt;1990980504128</title>
<path fill="none" stroke="black" d="M589.05,-91C596.95,-91 605.17,-91 612.93,-91"/>
<polygon fill="black" stroke="black" points="612.76,-94.5 622.76,-91 612.76,-87.5 612.76,-94.5"/>
</g>
<!-- 1990980510128 -->
<g id="node4" class="node">
<title>1990980510128</title>
<polygon fill="white" stroke="black" points="806.5,-109 714.75,-109 714.75,-73 806.5,-73 806.5,-109"/>
<text text-anchor="middle" x="760.62" y="-85.97" font-family="Times New Roman,serif" font-size="12.00">Curd Formation</text>
</g>
<!-- 1990980510992 -->
<g id="node23" class="node">
<title>1990980510992</title>
<ellipse fill="white" stroke="black" cx="869.5" cy="-91" rx="27" ry="27"/>
</g>
<!-- 1990980510128&#45;&gt;1990980510992 -->
<g id="edge8" class="edge">
<title>1990980510128&#45;&gt;1990980510992</title>
<path fill="none" stroke="black" d="M806.95,-91C814.96,-91 823.22,-91 830.98,-91"/>
<polygon fill="black" stroke="black" points="830.78,-94.5 840.78,-91 830.78,-87.5 830.78,-94.5"/>
</g>
<!-- 1990980503216 -->
<g id="node5" class="node">
<title>1990980503216</title>
<polygon fill="white" stroke="black" points="1030.25,-109 932.5,-109 932.5,-73 1030.25,-73 1030.25,-109"/>
<text text-anchor="middle" x="981.38" y="-85.97" font-family="Times New Roman,serif" font-size="12.00">Whey Separation</text>
</g>
<!-- 1990980510176 -->
<g id="node24" class="node">
<title>1990980510176</title>
<ellipse fill="white" stroke="black" cx="1093.25" cy="-91" rx="27" ry="27"/>
</g>
<!-- 1990980503216&#45;&gt;1990980510176 -->
<g id="edge10" class="edge">
<title>1990980503216&#45;&gt;1990980510176</title>
<path fill="none" stroke="black" d="M1030.57,-91C1038.61,-91 1046.85,-91 1054.57,-91"/>
<polygon fill="black" stroke="black" points="1054.31,-94.5 1064.31,-91 1054.31,-87.5 1054.31,-94.5"/>
</g>
<!-- 1990980516944 -->
<g id="node6" class="node">
<title>1990980516944</title>
<polygon fill="white" stroke="black" points="1250.25,-109 1156.25,-109 1156.25,-73 1250.25,-73 1250.25,-109"/>
<text text-anchor="middle" x="1203.25" y="-85.97" font-family="Times New Roman,serif" font-size="12.00">Molding Cheese</text>
</g>
<!-- 1990980517472 -->
<g id="node25" class="node">
<title>1990980517472</title>
<ellipse fill="white" stroke="black" cx="1313.25" cy="-91" rx="27" ry="27"/>
</g>
<!-- 1990980516944&#45;&gt;1990980517472 -->
<g id="edge12" class="edge">
<title>1990980516944&#45;&gt;1990980517472</title>
<path fill="none" stroke="black" d="M1250.68,-91C1258.56,-91 1266.66,-91 1274.28,-91"/>
<polygon fill="black" stroke="black" points="1274.27,-94.5 1284.27,-91 1274.27,-87.5 1274.27,-94.5"/>
</g>
<!-- 1990980517712 -->
<g id="node7" class="node">
<title>1990980517712</title>
<polygon fill="white" stroke="black" points="1469.5,-109 1376.25,-109 1376.25,-73 1469.5,-73 1469.5,-109"/>
<text text-anchor="middle" x="1422.88" y="-85.97" font-family="Times New Roman,serif" font-size="12.00">Pressing Cheese</text>
</g>
<!-- 1990980514784 -->
<g id="node26" class="node">
<title>1990980514784</title>
<ellipse fill="white" stroke="black" cx="1532.5" cy="-91" rx="27" ry="27"/>
</g>
<!-- 1990980517712&#45;&gt;1990980514784 -->
<g id="edge14" class="edge">
<title>1990980517712&#45;&gt;1990980514784</title>
<path fill="none" stroke="black" d="M1469.83,-91C1477.87,-91 1486.16,-91 1493.94,-91"/>
<polygon fill="black" stroke="black" points="1493.76,-94.5 1503.76,-91 1493.76,-87.5 1493.76,-94.5"/>
</g>
<!-- 1990980514160 -->
<g id="node8" class="node">
<title>1990980514160</title>
<polygon fill="white" stroke="black" points="1683.5,-109 1595.5,-109 1595.5,-73 1683.5,-73 1683.5,-109"/>
<text text-anchor="middle" x="1639.5" y="-85.97" font-family="Times New Roman,serif" font-size="12.00">Salting Process</text>
</g>
<!-- 1990982055456 -->
<g id="node27" class="node">
<title>1990982055456</title>
<ellipse fill="white" stroke="black" cx="1746.5" cy="-91" rx="27" ry="27"/>
</g>
<!-- 1990980514160&#45;&gt;1990982055456 -->
<g id="edge16" class="edge">
<title>1990980514160&#45;&gt;1990982055456</title>
<path fill="none" stroke="black" d="M1683.81,-91C1691.77,-91 1700.01,-91 1707.78,-91"/>
<polygon fill="black" stroke="black" points="1707.6,-94.5 1717.6,-91 1707.6,-87.5 1707.6,-94.5"/>
</g>
<!-- 1990982055360 -->
<g id="node9" class="node">
<title>1990982055360</title>
<polygon fill="white" stroke="black" points="1894.5,-82 1809.5,-82 1809.5,-46 1894.5,-46 1894.5,-82"/>
<text text-anchor="middle" x="1852" y="-58.98" font-family="Times New Roman,serif" font-size="12.00">Aging Control</text>
</g>
<!-- 1990982051280 -->
<g id="node28" class="node">
<title>1990982051280</title>
<ellipse fill="white" stroke="black" cx="1957.5" cy="-63" rx="27" ry="27"/>
</g>
<!-- 1990982055360&#45;&gt;1990982051280 -->
<g id="edge18" class="edge">
<title>1990982055360&#45;&gt;1990982051280</title>
<path fill="none" stroke="black" d="M1894.8,-63.6C1902.7,-63.52 1910.92,-63.44 1918.68,-63.37"/>
<polygon fill="black" stroke="black" points="1918.55,-66.87 1928.51,-63.27 1918.48,-59.87 1918.55,-66.87"/>
</g>
<!-- 1990982055744 -->
<g id="node10" class="node">
<title>1990982055744</title>
<polygon fill="white" stroke="black" points="2115.25,-135 2020.5,-135 2020.5,-99 2115.25,-99 2115.25,-135"/>
<text text-anchor="middle" x="2067.88" y="-111.97" font-family="Times New Roman,serif" font-size="12.00">Humidity Check</text>
</g>
<!-- 1990982055744&#45;&gt;1990982055456 -->
<g id="edge21" class="edge">
<title>1990982055744&#45;&gt;1990982055456</title>
<path fill="none" stroke="black" d="M2020.1,-113.19C1956.45,-108.01 1843.77,-98.84 1785.21,-94.07"/>
<polygon fill="black" stroke="black" points="1785.67,-90.6 1775.42,-93.27 1785.1,-97.57 1785.67,-90.6"/>
</g>
<!-- 1990982044368 -->
<g id="node11" class="node">
<title>1990982044368</title>
<polygon fill="black" stroke="black" points="2094.88,-81 2040.88,-81 2040.88,-45 2094.88,-45 2094.88,-81"/>
</g>
<!-- 1990982053632 -->
<g id="node29" class="node">
<title>1990982053632</title>
<ellipse fill="white" stroke="black" cx="2178.25" cy="-99" rx="27" ry="27"/>
</g>
<!-- 1990982044368&#45;&gt;1990982053632 -->
<g id="edge22" class="edge">
<title>1990982044368&#45;&gt;1990982053632</title>
<path fill="none" stroke="black" d="M2095.11,-71.71C2109.12,-76.37 2126.57,-82.17 2141.78,-87.22"/>
<polygon fill="black" stroke="black" points="2140.34,-90.43 2150.94,-90.26 2142.55,-83.79 2140.34,-90.43"/>
</g>
<!-- 1990982052624 -->
<g id="node30" class="node">
<title>1990982052624</title>
<ellipse fill="white" stroke="black" cx="2178.25" cy="-27" rx="27" ry="27"/>
</g>
<!-- 1990982044368&#45;&gt;1990982052624 -->
<g id="edge23" class="edge">
<title>1990982044368&#45;&gt;1990982052624</title>
<path fill="none" stroke="black" d="M2095.11,-54.29C2109.12,-49.63 2126.57,-43.83 2141.78,-38.78"/>
<polygon fill="black" stroke="black" points="2142.55,-42.21 2150.94,-35.74 2140.34,-35.57 2142.55,-42.21"/>
</g>
<!-- 1990982047056 -->
<g id="node12" class="node">
<title>1990982047056</title>
<polygon fill="white" stroke="black" points="2327,-45 2242,-45 2242,-9 2327,-9 2327,-45"/>
<text text-anchor="middle" x="2284.5" y="-21.98" font-family="Times New Roman,serif" font-size="12.00">Microbial Test</text>
</g>
<!-- 1990976303616 -->
<g id="node31" class="node">
<title>1990976303616</title>
<ellipse fill="white" stroke="black" cx="2390.75" cy="-27" rx="27" ry="27"/>
</g>
<!-- 1990982047056&#45;&gt;1990976303616 -->
<g id="edge26" class="edge">
<title>1990982047056&#45;&gt;1990976303616</title>
<path fill="none" stroke="black" d="M2327.3,-27C2335.52,-27 2344.1,-27 2352.17,-27"/>
<polygon fill="black" stroke="black" points="2352.02,-30.5 2362.02,-27 2352.02,-23.5 2352.02,-30.5"/>
</g>
<!-- 1990982055024 -->
<g id="node13" class="node">
<title>1990982055024</title>
<polygon fill="white" stroke="black" points="2327.75,-117 2241.25,-117 2241.25,-81 2327.75,-81 2327.75,-117"/>
<text text-anchor="middle" x="2284.5" y="-93.97" font-family="Times New Roman,serif" font-size="12.00">Texture Check</text>
</g>
<!-- 1990976293248 -->
<g id="node32" class="node">
<title>1990976293248</title>
<ellipse fill="white" stroke="black" cx="2390.75" cy="-99" rx="27" ry="27"/>
</g>
<!-- 1990982055024&#45;&gt;1990976293248 -->
<g id="edge27" class="edge">
<title>1990982055024&#45;&gt;1990976293248</title>
<path fill="none" stroke="black" d="M2328.2,-99C2336.12,-99 2344.34,-99 2352.09,-99"/>
<polygon fill="black" stroke="black" points="2351.89,-102.5 2361.89,-99 2351.89,-95.5 2351.89,-102.5"/>
</g>
<!-- 1990982046144 -->
<g id="node14" class="node">
<title>1990982046144</title>
<polygon fill="white" stroke="black" points="2544,-81 2453.75,-81 2453.75,-45 2544,-45 2544,-81"/>
<text text-anchor="middle" x="2498.88" y="-57.98" font-family="Times New Roman,serif" font-size="12.00">Packaging Prep</text>
</g>
<!-- 1990982053920 -->
<g id="node33" class="node">
<title>1990982053920</title>
<ellipse fill="white" stroke="black" cx="2607" cy="-99" rx="27" ry="27"/>
</g>
<!-- 1990982046144&#45;&gt;1990982053920 -->
<g id="edge31" class="edge">
<title>1990982046144&#45;&gt;1990982053920</title>
<path fill="none" stroke="black" d="M2544.27,-78.06C2552.86,-80.97 2561.76,-83.99 2570.04,-86.8"/>
<polygon fill="black" stroke="black" points="2568.83,-90.09 2579.42,-89.99 2571.08,-83.46 2568.83,-90.09"/>
</g>
<!-- 1990982046432 -->
<g id="node34" class="node">
<title>1990982046432</title>
<ellipse fill="white" stroke="black" cx="2607" cy="-27" rx="27" ry="27"/>
</g>
<!-- 1990982046144&#45;&gt;1990982046432 -->
<g id="edge30" class="edge">
<title>1990982046144&#45;&gt;1990982046432</title>
<path fill="none" stroke="black" d="M2544.27,-47.94C2552.86,-45.03 2561.76,-42.01 2570.04,-39.2"/>
<polygon fill="black" stroke="black" points="2571.08,-42.54 2579.42,-36.01 2568.83,-35.91 2571.08,-42.54"/>
</g>
<!-- 1990982057136 -->
<g id="node15" class="node">
<title>1990982057136</title>
<polygon fill="white" stroke="black" points="2753.5,-117 2670,-117 2670,-81 2753.5,-81 2753.5,-117"/>
<text text-anchor="middle" x="2711.75" y="-93.97" font-family="Times New Roman,serif" font-size="12.00">Label Printing</text>
</g>
<!-- 1990976296416 -->
<g id="node36" class="node">
<title>1990976296416</title>
<ellipse fill="white" stroke="black" cx="2816.5" cy="-99" rx="27" ry="27"/>
</g>
<!-- 1990982057136&#45;&gt;1990976296416 -->
<g id="edge35" class="edge">
<title>1990982057136&#45;&gt;1990976296416</title>
<path fill="none" stroke="black" d="M2753.95,-99C2761.81,-99 2770,-99 2777.75,-99"/>
<polygon fill="black" stroke="black" points="2777.55,-102.5 2787.55,-99 2777.55,-95.5 2777.55,-102.5"/>
</g>
<!-- 1990982047440 -->
<g id="node16" class="node">
<title>1990982047440</title>
<polygon fill="white" stroke="black" points="2749.75,-45 2673.75,-45 2673.75,-9 2749.75,-9 2749.75,-45"/>
<text text-anchor="middle" x="2711.75" y="-21.98" font-family="Times New Roman,serif" font-size="12.00">Eco Packing</text>
</g>
<!-- 1990976306448 -->
<g id="node35" class="node">
<title>1990976306448</title>
<ellipse fill="white" stroke="black" cx="2816.5" cy="-27" rx="27" ry="27"/>
</g>
<!-- 1990982047440&#45;&gt;1990976306448 -->
<g id="edge34" class="edge">
<title>1990982047440&#45;&gt;1990976306448</title>
<path fill="none" stroke="black" d="M2750.14,-27C2759.15,-27 2768.79,-27 2777.82,-27"/>
<polygon fill="black" stroke="black" points="2777.72,-30.5 2787.72,-27 2777.72,-23.5 2777.72,-30.5"/>
</g>
<!-- 1990982055600 -->
<g id="node17" class="node">
<title>1990982055600</title>
<polygon fill="white" stroke="black" points="2957.75,-81 2879.5,-81 2879.5,-45 2957.75,-45 2957.75,-81"/>
<text text-anchor="middle" x="2918.62" y="-57.98" font-family="Times New Roman,serif" font-size="12.00">Cold Storage</text>
</g>
<!-- 1990982042256 -->
<g id="node37" class="node">
<title>1990982042256</title>
<ellipse fill="white" stroke="black" cx="3020.75" cy="-63" rx="27" ry="27"/>
</g>
<!-- 1990982055600&#45;&gt;1990982042256 -->
<g id="edge38" class="edge">
<title>1990982055600&#45;&gt;1990982042256</title>
<path fill="none" stroke="black" d="M2958.05,-63C2965.89,-63 2974.13,-63 2981.94,-63"/>
<polygon fill="black" stroke="black" points="2981.86,-66.5 2991.86,-63 2981.86,-59.5 2981.86,-66.5"/>
</g>
<!-- 1990976298720 -->
<g id="node18" class="node">
<title>1990976298720</title>
<polygon fill="white" stroke="black" points="3189,-81 3083.75,-81 3083.75,-45 3189,-45 3189,-81"/>
<text text-anchor="middle" x="3136.38" y="-57.98" font-family="Times New Roman,serif" font-size="12.00">Boutique Shipping</text>
</g>
<!-- 1990976654272 -->
<g id="node38" class="node">
<title>1990976654272</title>
<ellipse fill="white" stroke="black" cx="3256" cy="-63" rx="27" ry="27"/>
<ellipse fill="none" stroke="black" cx="3256" cy="-63" rx="31" ry="31"/>
<text text-anchor="start" x="3239.5" y="-47.6" font-family="Times New Roman,serif" font-size="32.00">■</text>
</g>
<!-- 1990976298720&#45;&gt;1990976654272 -->
<g id="edge40" class="edge">
<title>1990976298720&#45;&gt;1990976654272</title>
<path fill="none" stroke="black" d="M3189.31,-63C3197.32,-63 3205.5,-63 3213.25,-63"/>
<polygon fill="black" stroke="black" points="3213.09,-66.5 3223.09,-63 3213.09,-59.5 3213.09,-66.5"/>
</g>
<!-- 1990976658784 -->
<g id="node19" class="node">
<title>1990976658784</title>
<ellipse fill="white" stroke="black" cx="27" cy="-91" rx="27" ry="27"/>
<text text-anchor="start" x="9.75" y="-73.7" font-family="Times New Roman,serif" font-size="34.00">●</text>
</g>
<!-- 1990976658784&#45;&gt;1990980514928 -->
<g id="edge1" class="edge">
<title>1990976658784&#45;&gt;1990980514928</title>
<path fill="none" stroke="black" d="M54.39,-91C61.8,-91 70.13,-91 78.51,-91"/>
<polygon fill="black" stroke="black" points="78.36,-94.5 88.36,-91 78.36,-87.5 78.36,-94.5"/>
</g>
<!-- 1990980504560&#45;&gt;1990980511472 -->
<g id="edge3" class="edge">
<title>1990980504560&#45;&gt;1990980511472</title>
<path fill="none" stroke="black" d="M265.37,-91C272.72,-91 280.94,-91 289.15,-91"/>
<polygon fill="black" stroke="black" points="289.14,-94.5 299.14,-91 289.14,-87.5 289.14,-94.5"/>
</g>
<!-- 1990980517664&#45;&gt;1990980507632 -->
<g id="edge5" class="edge">
<title>1990980517664&#45;&gt;1990980507632</title>
<path fill="none" stroke="black" d="M468.14,-91C475.55,-91 483.88,-91 492.26,-91"/>
<polygon fill="black" stroke="black" points="492.11,-94.5 502.11,-91 492.11,-87.5 492.11,-94.5"/>
</g>
<!-- 1990980504128&#45;&gt;1990980510128 -->
<g id="edge7" class="edge">
<title>1990980504128&#45;&gt;1990980510128</title>
<path fill="none" stroke="black" d="M679.17,-91C686.48,-91 694.7,-91 703.03,-91"/>
<polygon fill="black" stroke="black" points="702.86,-94.5 712.86,-91 702.86,-87.5 702.86,-94.5"/>
</g>
<!-- 1990980510992&#45;&gt;1990980503216 -->
<g id="edge9" class="edge">
<title>1990980510992&#45;&gt;1990980503216</title>
<path fill="none" stroke="black" d="M896.82,-91C904.15,-91 912.43,-91 920.85,-91"/>
<polygon fill="black" stroke="black" points="920.83,-94.5 930.83,-91 920.83,-87.5 920.83,-94.5"/>
</g>
<!-- 1990980510176&#45;&gt;1990980516944 -->
<g id="edge11" class="edge">
<title>1990980510176&#45;&gt;1990980516944</title>
<path fill="none" stroke="black" d="M1120.67,-91C1127.97,-91 1136.19,-91 1144.52,-91"/>
<polygon fill="black" stroke="black" points="1144.38,-94.5 1154.38,-91 1144.38,-87.5 1144.38,-94.5"/>
</g>
<!-- 1990980517472&#45;&gt;1990980517712 -->
<g id="edge13" class="edge">
<title>1990980517472&#45;&gt;1990980517712</title>
<path fill="none" stroke="black" d="M1340.58,-91C1347.94,-91 1356.23,-91 1364.64,-91"/>
<polygon fill="black" stroke="black" points="1364.58,-94.5 1374.58,-91 1364.58,-87.5 1364.58,-94.5"/>
</g>
<!-- 1990980514784&#45;&gt;1990980514160 -->
<g id="edge15" class="edge">
<title>1990980514784&#45;&gt;1990980514160</title>
<path fill="none" stroke="black" d="M1560,-91C1567.35,-91 1575.61,-91 1583.94,-91"/>
<polygon fill="black" stroke="black" points="1583.75,-94.5 1593.75,-91 1583.75,-87.5 1583.75,-94.5"/>
</g>
<!-- 1990982055456&#45;&gt;1990982055360 -->
<g id="edge17" class="edge">
<title>1990982055456&#45;&gt;1990982055360</title>
<path fill="none" stroke="black" d="M1773.08,-84.33C1780.74,-82.33 1789.44,-80.06 1798.18,-77.78"/>
<polygon fill="black" stroke="black" points="1798.94,-81.2 1807.73,-75.29 1797.17,-74.42 1798.94,-81.2"/>
</g>
<!-- 1990982051280&#45;&gt;1990982055744 -->
<g id="edge20" class="edge">
<title>1990982051280&#45;&gt;1990982055744</title>
<path fill="none" stroke="black" d="M1982.28,-74.85C1993.3,-80.34 2006.79,-87.06 2019.73,-93.51"/>
<polygon fill="black" stroke="black" points="2018.07,-96.59 2028.58,-97.92 2021.19,-90.33 2018.07,-96.59"/>
</g>
<!-- 1990982051280&#45;&gt;1990982044368 -->
<g id="edge19" class="edge">
<title>1990982051280&#45;&gt;1990982044368</title>
<path fill="none" stroke="black" d="M1984.73,-63C1998.08,-63 2014.54,-63 2029.22,-63"/>
<polygon fill="black" stroke="black" points="2028.99,-66.5 2038.99,-63 2028.99,-59.5 2028.99,-66.5"/>
</g>
<!-- 1990982053632&#45;&gt;1990982055024 -->
<g id="edge24" class="edge">
<title>1990982053632&#45;&gt;1990982055024</title>
<path fill="none" stroke="black" d="M2205.56,-99C2212.94,-99 2221.24,-99 2229.61,-99"/>
<polygon fill="black" stroke="black" points="2229.46,-102.5 2239.46,-99 2229.46,-95.5 2229.46,-102.5"/>
</g>
<!-- 1990982052624&#45;&gt;1990982047056 -->
<g id="edge25" class="edge">
<title>1990982052624&#45;&gt;1990982047056</title>
<path fill="none" stroke="black" d="M2205.56,-27C2213.19,-27 2221.81,-27 2230.47,-27"/>
<polygon fill="black" stroke="black" points="2230.27,-30.5 2240.27,-27 2230.27,-23.5 2230.27,-30.5"/>
</g>
<!-- 1990976303616&#45;&gt;1990982046144 -->
<g id="edge29" class="edge">
<title>1990976303616&#45;&gt;1990982046144</title>
<path fill="none" stroke="black" d="M2416.63,-35.44C2424.56,-38.13 2433.67,-41.22 2442.85,-44.33"/>
<polygon fill="black" stroke="black" points="2441.58,-47.6 2452.17,-47.5 2443.83,-40.97 2441.58,-47.6"/>
</g>
<!-- 1990976293248&#45;&gt;1990982046144 -->
<g id="edge28" class="edge">
<title>1990976293248&#45;&gt;1990982046144</title>
<path fill="none" stroke="black" d="M2416.63,-90.56C2424.56,-87.87 2433.67,-84.78 2442.85,-81.67"/>
<polygon fill="black" stroke="black" points="2443.83,-85.03 2452.17,-78.5 2441.58,-78.4 2443.83,-85.03"/>
</g>
<!-- 1990982053920&#45;&gt;1990982057136 -->
<g id="edge32" class="edge">
<title>1990982053920&#45;&gt;1990982057136</title>
<path fill="none" stroke="black" d="M2634.46,-99C2641.82,-99 2650.08,-99 2658.37,-99"/>
<polygon fill="black" stroke="black" points="2658.11,-102.5 2668.11,-99 2658.11,-95.5 2658.11,-102.5"/>
</g>
<!-- 1990982046432&#45;&gt;1990982047440 -->
<g id="edge33" class="edge">
<title>1990982046432&#45;&gt;1990982047440</title>
<path fill="none" stroke="black" d="M2634.46,-27C2642.92,-27 2652.56,-27 2662.08,-27"/>
<polygon fill="black" stroke="black" points="2662.02,-30.5 2672.02,-27 2662.02,-23.5 2662.02,-30.5"/>
</g>
<!-- 1990976306448&#45;&gt;1990982055600 -->
<g id="edge37" class="edge">
<title>1990976306448&#45;&gt;1990982055600</title>
<path fill="none" stroke="black" d="M2842.25,-35.9C2850.24,-38.77 2859.4,-42.07 2868.52,-45.34"/>
<polygon fill="black" stroke="black" points="2867.11,-48.56 2877.7,-48.65 2869.48,-41.97 2867.11,-48.56"/>
</g>
<!-- 1990976296416&#45;&gt;1990982055600 -->
<g id="edge36" class="edge">
<title>1990976296416&#45;&gt;1990982055600</title>
<path fill="none" stroke="black" d="M2842.25,-90.1C2850.24,-87.23 2859.4,-83.93 2868.52,-80.66"/>
<polygon fill="black" stroke="black" points="2869.48,-84.03 2877.7,-77.35 2867.11,-77.44 2869.48,-84.03"/>
</g>
<!-- 1990982042256&#45;&gt;1990976298720 -->
<g id="edge39" class="edge">
<title>1990982042256&#45;&gt;1990976298720</title>
<path fill="none" stroke="black" d="M3048.1,-63C3055.49,-63 3063.85,-63 3072.4,-63"/>
<polygon fill="black" stroke="black" points="3072.16,-66.5 3082.16,-63 3072.16,-59.5 3072.16,-66.5"/>
</g>
</g>
</svg>
