<?xml version="1.0" encoding="UTF-8" standalone="no"?>
<!DOCTYPE svg PUBLIC "-//W3C//DTD SVG 1.1//EN"
 "http://www.w3.org/Graphics/SVG/1.1/DTD/svg11.dtd">
<!-- Generated by graphviz version 11.0.0 (20240428.1522)
 -->
<!-- Title: imdf_net_1754051936.504648 Pages: 1 -->
<svg width="2327pt" height="215pt"
 viewBox="0.00 0.00 2327.25 215.00" xmlns="http://www.w3.org/2000/svg" xmlns:xlink="http://www.w3.org/1999/xlink">
<g id="graph0" class="graph" transform="scale(1 1) rotate(0) translate(4 211)">
<title>imdf_net_1754051936.504648</title>
<polygon fill="white" stroke="none" points="-4,4 -4,-211 2323.25,-211 2323.25,4 -4,4"/>
<!-- 1990975904304 -->
<g id="node1" class="node">
<title>1990975904304</title>
<polygon fill="white" stroke="black" points="148,-126 90,-126 90,-90 148,-90 148,-126"/>
<text text-anchor="middle" x="119" y="-102.97" font-family="Times New Roman,serif" font-size="12.00">Soil Test</text>
</g>
<!-- 1990981078000 -->
<g id="node18" class="node">
<title>1990981078000</title>
<ellipse fill="white" stroke="black" cx="211" cy="-108" rx="27" ry="27"/>
</g>
<!-- 1990975904304&#45;&gt;1990981078000 -->
<g id="edge2" class="edge">
<title>1990975904304&#45;&gt;1990981078000</title>
<path fill="none" stroke="black" d="M148.48,-108C156.02,-108 164.28,-108 172.23,-108"/>
<polygon fill="black" stroke="black" points="172.03,-111.5 182.03,-108 172.03,-104.5 172.03,-111.5"/>
</g>
<!-- 1990981089472 -->
<g id="node2" class="node">
<title>1990981089472</title>
<polygon fill="white" stroke="black" points="339.5,-126 274,-126 274,-90 339.5,-90 339.5,-126"/>
<text text-anchor="middle" x="306.75" y="-102.97" font-family="Times New Roman,serif" font-size="12.00">Data Sync</text>
</g>
<!-- 1990981086688 -->
<g id="node19" class="node">
<title>1990981086688</title>
<ellipse fill="white" stroke="black" cx="402.5" cy="-108" rx="27" ry="27"/>
</g>
<!-- 1990981089472&#45;&gt;1990981086688 -->
<g id="edge4" class="edge">
<title>1990981089472&#45;&gt;1990981086688</title>
<path fill="none" stroke="black" d="M339.75,-108C347.52,-108 355.9,-108 363.9,-108"/>
<polygon fill="black" stroke="black" points="363.73,-111.5 373.73,-108 363.73,-104.5 363.73,-111.5"/>
</g>
<!-- 1990981075984 -->
<g id="node3" class="node">
<title>1990981075984</title>
<polygon fill="white" stroke="black" points="536.25,-126 465.5,-126 465.5,-90 536.25,-90 536.25,-126"/>
<text text-anchor="middle" x="500.88" y="-102.97" font-family="Times New Roman,serif" font-size="12.00">Seed Select</text>
</g>
<!-- 1990981076224 -->
<g id="node20" class="node">
<title>1990981076224</title>
<ellipse fill="white" stroke="black" cx="599.25" cy="-108" rx="27" ry="27"/>
</g>
<!-- 1990981075984&#45;&gt;1990981076224 -->
<g id="edge6" class="edge">
<title>1990981075984&#45;&gt;1990981076224</title>
<path fill="none" stroke="black" d="M536.67,-108C544.4,-108 552.64,-108 560.48,-108"/>
<polygon fill="black" stroke="black" points="560.47,-111.5 570.47,-108 560.47,-104.5 560.47,-111.5"/>
</g>
<!-- 1990981085776 -->
<g id="node4" class="node">
<title>1990981085776</title>
<polygon fill="white" stroke="black" points="739.75,-126 662.25,-126 662.25,-90 739.75,-90 739.75,-126"/>
<text text-anchor="middle" x="701" y="-102.97" font-family="Times New Roman,serif" font-size="12.00">Irrigation Set</text>
</g>
<!-- 1990981079248 -->
<g id="node21" class="node">
<title>1990981079248</title>
<ellipse fill="white" stroke="black" cx="802.75" cy="-180" rx="27" ry="27"/>
</g>
<!-- 1990981085776&#45;&gt;1990981079248 -->
<g id="edge10" class="edge">
<title>1990981085776&#45;&gt;1990981079248</title>
<path fill="none" stroke="black" d="M727.43,-126.35C740.75,-135.97 757.16,-147.81 771.17,-157.92"/>
<polygon fill="black" stroke="black" points="769.03,-160.7 779.19,-163.71 773.13,-155.02 769.03,-160.7"/>
</g>
<!-- 1990981077472 -->
<g id="node22" class="node">
<title>1990981077472</title>
<ellipse fill="white" stroke="black" cx="802.75" cy="-36" rx="27" ry="27"/>
</g>
<!-- 1990981085776&#45;&gt;1990981077472 -->
<g id="edge8" class="edge">
<title>1990981085776&#45;&gt;1990981077472</title>
<path fill="none" stroke="black" d="M727.43,-89.65C740.75,-80.03 757.16,-68.19 771.17,-58.08"/>
<polygon fill="black" stroke="black" points="773.13,-60.98 779.19,-52.29 769.03,-55.3 773.13,-60.98"/>
</g>
<!-- 1990981086832 -->
<g id="node23" class="node">
<title>1990981086832</title>
<ellipse fill="white" stroke="black" cx="802.75" cy="-108" rx="27" ry="27"/>
</g>
<!-- 1990981085776&#45;&gt;1990981086832 -->
<g id="edge9" class="edge">
<title>1990981085776&#45;&gt;1990981086832</title>
<path fill="none" stroke="black" d="M740,-108C747.82,-108 756.06,-108 763.88,-108"/>
<polygon fill="black" stroke="black" points="763.8,-111.5 773.8,-108 763.8,-104.5 763.8,-111.5"/>
</g>
<!-- 1990981076128 -->
<g id="node5" class="node">
<title>1990981076128</title>
<polygon fill="white" stroke="black" points="953,-194 869.5,-194 869.5,-158 953,-158 953,-194"/>
<text text-anchor="middle" x="911.25" y="-170.97" font-family="Times New Roman,serif" font-size="12.00">Growth Track</text>
</g>
<!-- 1990978925152 -->
<g id="node26" class="node">
<title>1990978925152</title>
<ellipse fill="white" stroke="black" cx="1244.25" cy="-171" rx="27" ry="27"/>
</g>
<!-- 1990981076128&#45;&gt;1990978925152 -->
<g id="edge15" class="edge">
<title>1990981076128&#45;&gt;1990978925152</title>
<path fill="none" stroke="black" d="M953.17,-175.38C1018,-174.4 1143.39,-172.51 1205.91,-171.56"/>
<polygon fill="black" stroke="black" points="1205.72,-175.07 1215.67,-171.42 1205.62,-168.07 1205.72,-175.07"/>
</g>
<!-- 1990976055072 -->
<g id="node6" class="node">
<title>1990976055072</title>
<polygon fill="white" stroke="black" points="956.75,-69 865.75,-69 865.75,-33 956.75,-33 956.75,-69"/>
<text text-anchor="middle" x="911.25" y="-45.98" font-family="Times New Roman,serif" font-size="12.00">Workshop Host</text>
</g>
<!-- 1990976051904 -->
<g id="node24" class="node">
<title>1990976051904</title>
<ellipse fill="white" stroke="black" cx="1019.75" cy="-55" rx="27" ry="27"/>
</g>
<!-- 1990976055072&#45;&gt;1990976051904 -->
<g id="edge16" class="edge">
<title>1990976055072&#45;&gt;1990976051904</title>
<path fill="none" stroke="black" d="M957.11,-52.68C965.11,-52.99 973.37,-53.3 981.15,-53.59"/>
<polygon fill="black" stroke="black" points="980.84,-57.08 990.96,-53.96 981.1,-50.08 980.84,-57.08"/>
</g>
<!-- 1990981091056 -->
<g id="node7" class="node">
<title>1990981091056</title>
<polygon fill="white" stroke="black" points="956.38,-130 866.12,-130 866.12,-94 956.38,-94 956.38,-130"/>
<text text-anchor="middle" x="911.25" y="-106.97" font-family="Times New Roman,serif" font-size="12.00">Drone Pollinate</text>
</g>
<!-- 1990978921408 -->
<g id="node25" class="node">
<title>1990978921408</title>
<ellipse fill="white" stroke="black" cx="1132" cy="-120" rx="27" ry="27"/>
</g>
<!-- 1990981091056&#45;&gt;1990978921408 -->
<g id="edge14" class="edge">
<title>1990981091056&#45;&gt;1990978921408</title>
<path fill="none" stroke="black" d="M956.78,-113.63C997.08,-115.1 1055.77,-117.25 1093.67,-118.63"/>
<polygon fill="black" stroke="black" points="1093.09,-122.12 1103.21,-118.98 1093.34,-115.12 1093.09,-122.12"/>
</g>
<!-- 1990976052624 -->
<g id="node8" class="node">
<title>1990976052624</title>
<polygon fill="white" stroke="black" points="1181.25,-73 1082.75,-73 1082.75,-37 1181.25,-37 1181.25,-73"/>
<text text-anchor="middle" x="1132" y="-49.98" font-family="Times New Roman,serif" font-size="12.00">Feedback Collect</text>
</g>
<!-- 1990981088416 -->
<g id="node27" class="node">
<title>1990981088416</title>
<ellipse fill="white" stroke="black" cx="1244.25" cy="-55" rx="27" ry="27"/>
</g>
<!-- 1990976052624&#45;&gt;1990981088416 -->
<g id="edge20" class="edge">
<title>1990976052624&#45;&gt;1990981088416</title>
<path fill="none" stroke="black" d="M1181.68,-55C1189.63,-55 1197.76,-55 1205.4,-55"/>
<polygon fill="black" stroke="black" points="1205.39,-58.5 1215.39,-55 1205.39,-51.5 1205.39,-58.5"/>
</g>
<!-- 1990976053296 -->
<g id="node9" class="node">
<title>1990976053296</title>
<polygon fill="white" stroke="black" points="1384,-143 1307.25,-143 1307.25,-107 1384,-107 1384,-143"/>
<text text-anchor="middle" x="1345.62" y="-119.97" font-family="Times New Roman,serif" font-size="12.00">Harvest Plan</text>
</g>
<!-- 1990976052000 -->
<g id="node28" class="node">
<title>1990976052000</title>
<ellipse fill="white" stroke="black" cx="1447" cy="-127" rx="27" ry="27"/>
</g>
<!-- 1990976053296&#45;&gt;1990976052000 -->
<g id="edge21" class="edge">
<title>1990976053296&#45;&gt;1990976052000</title>
<path fill="none" stroke="black" d="M1384.48,-125.76C1392.27,-125.92 1400.48,-126.08 1408.27,-126.24"/>
<polygon fill="black" stroke="black" points="1408.08,-129.74 1418.15,-126.44 1408.23,-122.74 1408.08,-129.74"/>
</g>
<!-- 1990976048928 -->
<g id="node10" class="node">
<title>1990976048928</title>
<polygon fill="white" stroke="black" points="1382.5,-73 1308.75,-73 1308.75,-37 1382.5,-37 1382.5,-73"/>
<text text-anchor="middle" x="1345.62" y="-49.98" font-family="Times New Roman,serif" font-size="12.00">Crop Rotate</text>
</g>
<!-- 1990976053776 -->
<g id="node30" class="node">
<title>1990976053776</title>
<ellipse fill="white" stroke="black" cx="1447" cy="-55" rx="27" ry="27"/>
</g>
<!-- 1990976048928&#45;&gt;1990976053776 -->
<g id="edge25" class="edge">
<title>1990976048928&#45;&gt;1990976053776</title>
<path fill="none" stroke="black" d="M1382.78,-55C1391.08,-55 1399.92,-55 1408.29,-55"/>
<polygon fill="black" stroke="black" points="1408.17,-58.5 1418.17,-55 1408.17,-51.5 1408.17,-58.5"/>
</g>
<!-- 1990976051136 -->
<g id="node11" class="node">
<title>1990976051136</title>
<polygon fill="white" stroke="black" points="1586.75,-145 1510,-145 1510,-109 1586.75,-109 1586.75,-145"/>
<text text-anchor="middle" x="1548.38" y="-121.97" font-family="Times New Roman,serif" font-size="12.00">Market Sync</text>
</g>
<!-- 1990976052480 -->
<g id="node29" class="node">
<title>1990976052480</title>
<ellipse fill="white" stroke="black" cx="1649.75" cy="-127" rx="27" ry="27"/>
</g>
<!-- 1990976051136&#45;&gt;1990976052480 -->
<g id="edge26" class="edge">
<title>1990976051136&#45;&gt;1990976052480</title>
<path fill="none" stroke="black" d="M1587.23,-127C1595.02,-127 1603.23,-127 1611.02,-127"/>
<polygon fill="black" stroke="black" points="1610.9,-130.5 1620.9,-127 1610.9,-123.5 1610.9,-130.5"/>
</g>
<!-- 1990976060208 -->
<g id="node12" class="node">
<title>1990976060208</title>
<polygon fill="white" stroke="black" points="1586.75,-46 1510,-46 1510,-10 1586.75,-10 1586.75,-46"/>
<text text-anchor="middle" x="1548.38" y="-22.98" font-family="Times New Roman,serif" font-size="12.00">Pest Monitor</text>
</g>
<!-- 1990976060208&#45;&gt;1990981077472 -->
<g id="edge29" class="edge">
<title>1990976060208&#45;&gt;1990981077472</title>
<path fill="none" stroke="black" d="M1509.85,-19.6C1469.69,-11.35 1403.98,0 1346.62,0 1018.75,0 1018.75,0 1018.75,0 955.14,0 882.37,-15.52 839.89,-26.18"/>
<polygon fill="black" stroke="black" points="839.29,-22.72 830.47,-28.6 841.03,-29.5 839.29,-22.72"/>
</g>
<!-- 1990971352000 -->
<g id="node13" class="node">
<title>1990971352000</title>
<polygon fill="white" stroke="black" points="1789.5,-145 1712.75,-145 1712.75,-109 1789.5,-109 1789.5,-145"/>
<text text-anchor="middle" x="1751.12" y="-121.97" font-family="Times New Roman,serif" font-size="12.00">Trace Verify</text>
</g>
<!-- 1990971357232 -->
<g id="node31" class="node">
<title>1990971357232</title>
<ellipse fill="white" stroke="black" cx="1852.5" cy="-163" rx="27" ry="27"/>
</g>
<!-- 1990971352000&#45;&gt;1990971357232 -->
<g id="edge31" class="edge">
<title>1990971352000&#45;&gt;1990971357232</title>
<path fill="none" stroke="black" d="M1789.98,-140.71C1798.52,-143.81 1807.56,-147.08 1816,-150.14"/>
<polygon fill="black" stroke="black" points="1814.65,-153.37 1825.24,-153.49 1817.03,-146.79 1814.65,-153.37"/>
</g>
<!-- 1990978921552 -->
<g id="node32" class="node">
<title>1990978921552</title>
<ellipse fill="white" stroke="black" cx="1852.5" cy="-91" rx="27" ry="27"/>
</g>
<!-- 1990971352000&#45;&gt;1990978921552 -->
<g id="edge30" class="edge">
<title>1990971352000&#45;&gt;1990978921552</title>
<path fill="none" stroke="black" d="M1789.98,-113.29C1798.52,-110.19 1807.56,-106.92 1816,-103.86"/>
<polygon fill="black" stroke="black" points="1817.03,-107.21 1825.24,-100.51 1814.65,-100.63 1817.03,-107.21"/>
</g>
<!-- 1990978923088 -->
<g id="node14" class="node">
<title>1990978923088</title>
<polygon fill="white" stroke="black" points="2005.75,-109 1921.5,-109 1921.5,-73 2005.75,-73 2005.75,-109"/>
<text text-anchor="middle" x="1963.62" y="-85.97" font-family="Times New Roman,serif" font-size="12.00">Waste Process</text>
</g>
<!-- 1990981963936 -->
<g id="node33" class="node">
<title>1990981963936</title>
<ellipse fill="white" stroke="black" cx="2074.75" cy="-91" rx="27" ry="27"/>
</g>
<!-- 1990978923088&#45;&gt;1990981963936 -->
<g id="edge35" class="edge">
<title>1990978923088&#45;&gt;1990981963936</title>
<path fill="none" stroke="black" d="M2006.19,-91C2016.04,-91 2026.49,-91 2036.15,-91"/>
<polygon fill="black" stroke="black" points="2035.94,-94.5 2045.94,-91 2035.94,-87.5 2035.94,-94.5"/>
</g>
<!-- 1990971357040 -->
<g id="node15" class="node">
<title>1990971357040</title>
<polygon fill="white" stroke="black" points="2011.75,-181 1915.5,-181 1915.5,-145 2011.75,-145 2011.75,-181"/>
<text text-anchor="middle" x="1963.62" y="-157.97" font-family="Times New Roman,serif" font-size="12.00">Nutrient Recycle</text>
</g>
<!-- 1990981964752 -->
<g id="node34" class="node">
<title>1990981964752</title>
<ellipse fill="white" stroke="black" cx="2074.75" cy="-163" rx="27" ry="27"/>
</g>
<!-- 1990971357040&#45;&gt;1990981964752 -->
<g id="edge34" class="edge">
<title>1990971357040&#45;&gt;1990981964752</title>
<path fill="none" stroke="black" d="M2012.17,-163C2020.09,-163 2028.2,-163 2035.84,-163"/>
<polygon fill="black" stroke="black" points="2035.83,-166.5 2045.83,-163 2035.83,-159.5 2035.83,-166.5"/>
</g>
<!-- 1990978925440 -->
<g id="node16" class="node">
<title>1990978925440</title>
<polygon fill="white" stroke="black" points="2221.25,-145 2137.75,-145 2137.75,-109 2221.25,-109 2221.25,-145"/>
<text text-anchor="middle" x="2179.5" y="-121.97" font-family="Times New Roman,serif" font-size="12.00">Cycle Review</text>
</g>
<!-- 1990975900224 -->
<g id="node35" class="node">
<title>1990975900224</title>
<ellipse fill="white" stroke="black" cx="2288.25" cy="-127" rx="27" ry="27"/>
<ellipse fill="none" stroke="black" cx="2288.25" cy="-127" rx="31" ry="31"/>
<text text-anchor="start" x="2271.75" y="-111.6" font-family="Times New Roman,serif" font-size="32.00">■</text>
</g>
<!-- 1990978925440&#45;&gt;1990975900224 -->
<g id="edge38" class="edge">
<title>1990978925440&#45;&gt;1990975900224</title>
<path fill="none" stroke="black" d="M2221.47,-127C2229.37,-127 2237.65,-127 2245.58,-127"/>
<polygon fill="black" stroke="black" points="2245.32,-130.5 2255.32,-127 2245.32,-123.5 2245.32,-130.5"/>
</g>
<!-- 1990975901328 -->
<g id="node17" class="node">
<title>1990975901328</title>
<ellipse fill="white" stroke="black" cx="27" cy="-108" rx="27" ry="27"/>
<text text-anchor="start" x="9.75" y="-90.7" font-family="Times New Roman,serif" font-size="34.00">●</text>
</g>
<!-- 1990975901328&#45;&gt;1990975904304 -->
<g id="edge1" class="edge">
<title>1990975901328&#45;&gt;1990975904304</title>
<path fill="none" stroke="black" d="M54.03,-108C61.58,-108 70.01,-108 78.2,-108"/>
<polygon fill="black" stroke="black" points="77.99,-111.5 87.99,-108 77.99,-104.5 77.99,-111.5"/>
</g>
<!-- 1990981078000&#45;&gt;1990981089472 -->
<g id="edge3" class="edge">
<title>1990981078000&#45;&gt;1990981089472</title>
<path fill="none" stroke="black" d="M238.11,-108C245.63,-108 254.03,-108 262.29,-108"/>
<polygon fill="black" stroke="black" points="262.26,-111.5 272.26,-108 262.26,-104.5 262.26,-111.5"/>
</g>
<!-- 1990981086688&#45;&gt;1990981075984 -->
<g id="edge5" class="edge">
<title>1990981086688&#45;&gt;1990981075984</title>
<path fill="none" stroke="black" d="M429.83,-108C437.26,-108 445.56,-108 453.78,-108"/>
<polygon fill="black" stroke="black" points="453.74,-111.5 463.74,-108 453.74,-104.5 453.74,-111.5"/>
</g>
<!-- 1990981076224&#45;&gt;1990981085776 -->
<g id="edge7" class="edge">
<title>1990981076224&#45;&gt;1990981085776</title>
<path fill="none" stroke="black" d="M626.72,-108C634.02,-108 642.18,-108 650.33,-108"/>
<polygon fill="black" stroke="black" points="650.25,-111.5 660.25,-108 650.25,-104.5 650.25,-111.5"/>
</g>
<!-- 1990981079248&#45;&gt;1990981076128 -->
<g id="edge11" class="edge">
<title>1990981079248&#45;&gt;1990981076128</title>
<path fill="none" stroke="black" d="M830.08,-179.01C838.58,-178.69 848.32,-178.33 858.02,-177.96"/>
<polygon fill="black" stroke="black" points="857.93,-181.47 867.79,-177.59 857.67,-174.47 857.93,-181.47"/>
</g>
<!-- 1990981077472&#45;&gt;1990976055072 -->
<g id="edge12" class="edge">
<title>1990981077472&#45;&gt;1990976055072</title>
<path fill="none" stroke="black" d="M829.8,-39.67C837.25,-40.72 845.67,-41.9 854.19,-43.1"/>
<polygon fill="black" stroke="black" points="853.48,-46.54 863.87,-44.47 854.46,-39.61 853.48,-46.54"/>
</g>
<!-- 1990981086832&#45;&gt;1990981091056 -->
<g id="edge13" class="edge">
<title>1990981086832&#45;&gt;1990981091056</title>
<path fill="none" stroke="black" d="M830.08,-108.99C837.61,-109.27 846.13,-109.59 854.72,-109.91"/>
<polygon fill="black" stroke="black" points="854.35,-113.4 864.48,-110.28 854.62,-106.41 854.35,-113.4"/>
</g>
<!-- 1990976051904&#45;&gt;1990976052624 -->
<g id="edge19" class="edge">
<title>1990976051904&#45;&gt;1990976052624</title>
<path fill="none" stroke="black" d="M1047.16,-55C1054.43,-55 1062.62,-55 1070.97,-55"/>
<polygon fill="black" stroke="black" points="1070.86,-58.5 1080.86,-55 1070.86,-51.5 1070.86,-58.5"/>
</g>
<!-- 1990978921408&#45;&gt;1990976053296 -->
<g id="edge18" class="edge">
<title>1990978921408&#45;&gt;1990976053296</title>
<path fill="none" stroke="black" d="M1159.37,-120.62C1193.3,-121.42 1252.91,-122.83 1295.34,-123.84"/>
<polygon fill="black" stroke="black" points="1295.23,-127.33 1305.31,-124.07 1295.39,-120.34 1295.23,-127.33"/>
</g>
<!-- 1990978925152&#45;&gt;1990976053296 -->
<g id="edge17" class="edge">
<title>1990978925152&#45;&gt;1990976053296</title>
<path fill="none" stroke="black" d="M1269.31,-159.86C1277.57,-156.04 1287.15,-151.61 1296.64,-147.21"/>
<polygon fill="black" stroke="black" points="1297.86,-150.51 1305.46,-143.13 1294.92,-144.15 1297.86,-150.51"/>
</g>
<!-- 1990981088416&#45;&gt;1990976053296 -->
<g id="edge22" class="edge">
<title>1990981088416&#45;&gt;1990976053296</title>
<path fill="none" stroke="black" d="M1266.81,-70.19C1279.27,-78.96 1295.24,-90.21 1309.47,-100.24"/>
<polygon fill="black" stroke="black" points="1307.09,-102.84 1317.28,-105.74 1311.12,-97.12 1307.09,-102.84"/>
</g>
<!-- 1990981088416&#45;&gt;1990976048928 -->
<g id="edge23" class="edge">
<title>1990981088416&#45;&gt;1990976048928</title>
<path fill="none" stroke="black" d="M1271.62,-55C1279.46,-55 1288.29,-55 1297.04,-55"/>
<polygon fill="black" stroke="black" points="1296.89,-58.5 1306.89,-55 1296.89,-51.5 1296.89,-58.5"/>
</g>
<!-- 1990976052000&#45;&gt;1990976051136 -->
<g id="edge24" class="edge">
<title>1990976052000&#45;&gt;1990976051136</title>
<path fill="none" stroke="black" d="M1474.37,-127C1481.72,-127 1489.94,-127 1498.15,-127"/>
<polygon fill="black" stroke="black" points="1498.14,-130.5 1508.14,-127 1498.14,-123.5 1498.14,-130.5"/>
</g>
<!-- 1990976052480&#45;&gt;1990971352000 -->
<g id="edge28" class="edge">
<title>1990976052480&#45;&gt;1990971352000</title>
<path fill="none" stroke="black" d="M1677.12,-127C1684.47,-127 1692.69,-127 1700.9,-127"/>
<polygon fill="black" stroke="black" points="1700.89,-130.5 1710.89,-127 1700.89,-123.5 1700.89,-130.5"/>
</g>
<!-- 1990976053776&#45;&gt;1990976060208 -->
<g id="edge27" class="edge">
<title>1990976053776&#45;&gt;1990976060208</title>
<path fill="none" stroke="black" d="M1473.59,-48.05C1481.36,-45.94 1490.15,-43.55 1498.9,-41.17"/>
<polygon fill="black" stroke="black" points="1499.68,-44.58 1508.42,-38.59 1497.85,-37.83 1499.68,-44.58"/>
</g>
<!-- 1990971357232&#45;&gt;1990971357040 -->
<g id="edge32" class="edge">
<title>1990971357232&#45;&gt;1990971357040</title>
<path fill="none" stroke="black" d="M1879.92,-163C1887.2,-163 1895.41,-163 1903.75,-163"/>
<polygon fill="black" stroke="black" points="1903.62,-166.5 1913.62,-163 1903.62,-159.5 1903.62,-166.5"/>
</g>
<!-- 1990978921552&#45;&gt;1990978923088 -->
<g id="edge33" class="edge">
<title>1990978921552&#45;&gt;1990978923088</title>
<path fill="none" stroke="black" d="M1879.92,-91C1889,-91 1899.51,-91 1909.93,-91"/>
<polygon fill="black" stroke="black" points="1909.61,-94.5 1919.61,-91 1909.61,-87.5 1909.61,-94.5"/>
</g>
<!-- 1990981963936&#45;&gt;1990978925440 -->
<g id="edge36" class="edge">
<title>1990981963936&#45;&gt;1990978925440</title>
<path fill="none" stroke="black" d="M2100.62,-99.71C2108.56,-102.5 2117.67,-105.69 2126.78,-108.88"/>
<polygon fill="black" stroke="black" points="2125.4,-112.1 2136,-112.11 2127.72,-105.5 2125.4,-112.1"/>
</g>
<!-- 1990981964752&#45;&gt;1990978925440 -->
<g id="edge37" class="edge">
<title>1990981964752&#45;&gt;1990978925440</title>
<path fill="none" stroke="black" d="M2100.62,-154.29C2108.56,-151.5 2117.67,-148.31 2126.78,-145.12"/>
<polygon fill="black" stroke="black" points="2127.72,-148.5 2136,-141.89 2125.4,-141.9 2127.72,-148.5"/>
</g>
</g>
</svg>
