<?xml version="1.0" encoding="UTF-8" standalone="no"?>
<!DOCTYPE svg PUBLIC "-//W3C//DTD SVG 1.1//EN"
 "http://www.w3.org/Graphics/SVG/1.1/DTD/svg11.dtd">
<!-- Generated by graphviz version 11.0.0 (20240428.1522)
 -->
<!-- Title: imdf_net_1754051951.2877052 Pages: 1 -->
<svg width="3131pt" height="115pt"
 viewBox="0.00 0.00 3131.25 115.00" xmlns="http://www.w3.org/2000/svg" xmlns:xlink="http://www.w3.org/1999/xlink">
<g id="graph0" class="graph" transform="scale(1 1) rotate(0) translate(4 111)">
<title>imdf_net_1754051951.2877052</title>
<polygon fill="white" stroke="none" points="-4,4 -4,-111 3127.25,-111 3127.25,4 -4,4"/>
<!-- 1990979788608 -->
<g id="node1" class="node">
<title>1990979788608</title>
<polygon fill="white" stroke="black" points="179.5,-80 90,-80 90,-44 179.5,-44 179.5,-80"/>
<text text-anchor="middle" x="134.75" y="-56.98" font-family="Times New Roman,serif" font-size="12.00">Trend Scouting</text>
</g>
<!-- 1990975878448 -->
<g id="node17" class="node">
<title>1990975878448</title>
<ellipse fill="white" stroke="black" cx="242.5" cy="-62" rx="27" ry="27"/>
</g>
<!-- 1990979788608&#45;&gt;1990975878448 -->
<g id="edge2" class="edge">
<title>1990979788608&#45;&gt;1990975878448</title>
<path fill="none" stroke="black" d="M179.98,-62C187.95,-62 196.19,-62 203.95,-62"/>
<polygon fill="black" stroke="black" points="203.74,-65.5 213.74,-62 203.74,-58.5 203.74,-65.5"/>
</g>
<!-- 1990975870720 -->
<g id="node2" class="node">
<title>1990975870720</title>
<polygon fill="white" stroke="black" points="381.5,-80 305.5,-80 305.5,-44 381.5,-44 381.5,-80"/>
<text text-anchor="middle" x="343.5" y="-56.98" font-family="Times New Roman,serif" font-size="12.00">Idea Harvest</text>
</g>
<!-- 1990978351568 -->
<g id="node18" class="node">
<title>1990978351568</title>
<ellipse fill="white" stroke="black" cx="444.5" cy="-62" rx="27" ry="27"/>
</g>
<!-- 1990975870720&#45;&gt;1990978351568 -->
<g id="edge4" class="edge">
<title>1990975870720&#45;&gt;1990978351568</title>
<path fill="none" stroke="black" d="M381.93,-62C389.71,-62 397.91,-62 405.71,-62"/>
<polygon fill="black" stroke="black" points="405.6,-65.5 415.6,-62 405.6,-58.5 405.6,-65.5"/>
</g>
<!-- 1990978343456 -->
<g id="node3" class="node">
<title>1990978343456</title>
<polygon fill="white" stroke="black" points="608.25,-80 507.5,-80 507.5,-44 608.25,-44 608.25,-80"/>
<text text-anchor="middle" x="557.88" y="-56.98" font-family="Times New Roman,serif" font-size="12.00">Cross&#45;Workshops</text>
</g>
<!-- 1990978348880 -->
<g id="node19" class="node">
<title>1990978348880</title>
<ellipse fill="white" stroke="black" cx="671.25" cy="-62" rx="27" ry="27"/>
</g>
<!-- 1990978343456&#45;&gt;1990978348880 -->
<g id="edge6" class="edge">
<title>1990978343456&#45;&gt;1990978348880</title>
<path fill="none" stroke="black" d="M608.7,-62C616.68,-62 624.83,-62 632.47,-62"/>
<polygon fill="black" stroke="black" points="632.45,-65.5 642.45,-62 632.45,-58.5 632.45,-65.5"/>
</g>
<!-- 1990971863216 -->
<g id="node4" class="node">
<title>1990971863216</title>
<polygon fill="white" stroke="black" points="825.25,-57 734.25,-57 734.25,-21 825.25,-21 825.25,-57"/>
<text text-anchor="middle" x="779.75" y="-33.98" font-family="Times New Roman,serif" font-size="12.00">Concept Fusion</text>
</g>
<!-- 1990971864032 -->
<g id="node20" class="node">
<title>1990971864032</title>
<ellipse fill="white" stroke="black" cx="888.25" cy="-33" rx="27" ry="27"/>
</g>
<!-- 1990971863216&#45;&gt;1990971864032 -->
<g id="edge8" class="edge">
<title>1990971863216&#45;&gt;1990971864032</title>
<path fill="none" stroke="black" d="M825.61,-36.47C833.61,-36.02 841.87,-35.56 849.65,-35.12"/>
<polygon fill="black" stroke="black" points="849.67,-38.62 859.46,-34.57 849.28,-31.63 849.67,-38.62"/>
</g>
<!-- 1990979100048 -->
<g id="node5" class="node">
<title>1990979100048</title>
<polygon fill="white" stroke="black" points="1054.25,-49 951.25,-49 951.25,-13 1054.25,-13 1054.25,-49"/>
<text text-anchor="middle" x="1002.75" y="-25.98" font-family="Times New Roman,serif" font-size="12.00">Rapid Prototyping</text>
</g>
<!-- 1990979280464 -->
<g id="node21" class="node">
<title>1990979280464</title>
<ellipse fill="white" stroke="black" cx="1117.25" cy="-27" rx="27" ry="27"/>
</g>
<!-- 1990979100048&#45;&gt;1990979280464 -->
<g id="edge10" class="edge">
<title>1990979100048&#45;&gt;1990979280464</title>
<path fill="none" stroke="black" d="M1054.73,-29.19C1062.75,-28.9 1070.9,-28.61 1078.54,-28.34"/>
<polygon fill="black" stroke="black" points="1078.65,-31.84 1088.52,-27.99 1078.4,-24.84 1078.65,-31.84"/>
</g>
<!-- 1990979277536 -->
<g id="node6" class="node">
<title>1990979277536</title>
<polygon fill="white" stroke="black" points="1256.25,-46 1180.25,-46 1180.25,-10 1256.25,-10 1256.25,-46"/>
<text text-anchor="middle" x="1218.25" y="-22.98" font-family="Times New Roman,serif" font-size="12.00">Pilot Testing</text>
</g>
<!-- 1990981719184 -->
<g id="node22" class="node">
<title>1990981719184</title>
<ellipse fill="white" stroke="black" cx="1319.25" cy="-32" rx="27" ry="27"/>
</g>
<!-- 1990979277536&#45;&gt;1990981719184 -->
<g id="edge12" class="edge">
<title>1990979277536&#45;&gt;1990981719184</title>
<path fill="none" stroke="black" d="M1256.68,-29.51C1264.46,-29.83 1272.66,-30.16 1280.46,-30.47"/>
<polygon fill="black" stroke="black" points="1280.22,-33.97 1290.35,-30.87 1280.5,-26.97 1280.22,-33.97"/>
</g>
<!-- 1990981724128 -->
<g id="node7" class="node">
<title>1990981724128</title>
<polygon fill="white" stroke="black" points="1494.25,-52 1382.25,-52 1382.25,-16 1494.25,-16 1494.25,-52"/>
<text text-anchor="middle" x="1438.25" y="-28.98" font-family="Times New Roman,serif" font-size="12.00">Stakeholder Review</text>
</g>
<!-- 1990978354544 -->
<g id="node23" class="node">
<title>1990978354544</title>
<ellipse fill="white" stroke="black" cx="1557.25" cy="-35" rx="27" ry="27"/>
</g>
<!-- 1990981724128&#45;&gt;1990978354544 -->
<g id="edge14" class="edge">
<title>1990981724128&#45;&gt;1990978354544</title>
<path fill="none" stroke="black" d="M1494.67,-34.47C1502.73,-34.54 1510.87,-34.61 1518.47,-34.68"/>
<polygon fill="black" stroke="black" points="1518.35,-38.18 1528.38,-34.76 1518.41,-31.18 1518.35,-38.18"/>
</g>
<!-- 1990979577392 -->
<g id="node8" class="node">
<title>1990979577392</title>
<polygon fill="white" stroke="black" points="1710.5,-107 1620.25,-107 1620.25,-71 1710.5,-71 1710.5,-107"/>
<text text-anchor="middle" x="1665.38" y="-83.97" font-family="Times New Roman,serif" font-size="12.00">Feedback Loop</text>
</g>
<!-- 1990979577392&#45;&gt;1990978348880 -->
<g id="edge17" class="edge">
<title>1990979577392&#45;&gt;1990978348880</title>
<path fill="none" stroke="black" d="M1619.95,-89.31C1574.54,-89.61 1501.98,-90 1439.25,-90 887.25,-90 887.25,-90 887.25,-90 824.29,-90 751.81,-78.05 709.14,-69.76"/>
<polygon fill="black" stroke="black" points="709.9,-66.34 699.41,-67.83 708.53,-73.21 709.9,-66.34"/>
</g>
<!-- 1990977553328 -->
<g id="node9" class="node">
<title>1990977553328</title>
<polygon fill="white" stroke="black" points="1699.62,-53 1631.12,-53 1631.12,-17 1699.62,-17 1699.62,-53"/>
<text text-anchor="middle" x="1665.38" y="-29.98" font-family="Times New Roman,serif" font-size="12.00">IP Strategy</text>
</g>
<!-- 1990977556160 -->
<g id="node24" class="node">
<title>1990977556160</title>
<ellipse fill="white" stroke="black" cx="1773.5" cy="-35" rx="27" ry="27"/>
</g>
<!-- 1990977553328&#45;&gt;1990977556160 -->
<g id="edge18" class="edge">
<title>1990977553328&#45;&gt;1990977556160</title>
<path fill="none" stroke="black" d="M1699.95,-35C1711.04,-35 1723.45,-35 1734.82,-35"/>
<polygon fill="black" stroke="black" points="1734.69,-38.5 1744.69,-35 1734.69,-31.5 1734.69,-38.5"/>
</g>
<!-- 1990977566912 -->
<g id="node10" class="node">
<title>1990977566912</title>
<polygon fill="white" stroke="black" points="1931.25,-53 1836.5,-53 1836.5,-17 1931.25,-17 1931.25,-53"/>
<text text-anchor="middle" x="1883.88" y="-29.98" font-family="Times New Roman,serif" font-size="12.00">Regulatory Scan</text>
</g>
<!-- 1990977563888 -->
<g id="node25" class="node">
<title>1990977563888</title>
<ellipse fill="white" stroke="black" cx="1994.25" cy="-35" rx="27" ry="27"/>
</g>
<!-- 1990977566912&#45;&gt;1990977563888 -->
<g id="edge20" class="edge">
<title>1990977566912&#45;&gt;1990977563888</title>
<path fill="none" stroke="black" d="M1931.46,-35C1939.54,-35 1947.85,-35 1955.65,-35"/>
<polygon fill="black" stroke="black" points="1955.48,-38.5 1965.48,-35 1955.48,-31.5 1955.48,-38.5"/>
</g>
<!-- 1990977557840 -->
<g id="node11" class="node">
<title>1990977557840</title>
<polygon fill="white" stroke="black" points="2155.75,-53 2057.25,-53 2057.25,-17 2155.75,-17 2155.75,-53"/>
<text text-anchor="middle" x="2106.5" y="-29.98" font-family="Times New Roman,serif" font-size="12.00">Partnership Build</text>
</g>
<!-- 1990977558896 -->
<g id="node26" class="node">
<title>1990977558896</title>
<ellipse fill="white" stroke="black" cx="2218.75" cy="-35" rx="27" ry="27"/>
</g>
<!-- 1990977557840&#45;&gt;1990977558896 -->
<g id="edge22" class="edge">
<title>1990977557840&#45;&gt;1990977558896</title>
<path fill="none" stroke="black" d="M2156.18,-35C2164.13,-35 2172.26,-35 2179.9,-35"/>
<polygon fill="black" stroke="black" points="2179.89,-38.5 2189.89,-35 2179.89,-31.5 2179.89,-38.5"/>
</g>
<!-- 1990980753824 -->
<g id="node12" class="node">
<title>1990980753824</title>
<polygon fill="white" stroke="black" points="2384.75,-53 2281.75,-53 2281.75,-17 2384.75,-17 2384.75,-53"/>
<text text-anchor="middle" x="2333.25" y="-29.98" font-family="Times New Roman,serif" font-size="12.00">Market Alignment</text>
</g>
<!-- 1990980761360 -->
<g id="node27" class="node">
<title>1990980761360</title>
<ellipse fill="white" stroke="black" cx="2447.75" cy="-35" rx="27" ry="27"/>
</g>
<!-- 1990980753824&#45;&gt;1990980761360 -->
<g id="edge24" class="edge">
<title>1990980753824&#45;&gt;1990980761360</title>
<path fill="none" stroke="black" d="M2385.23,-35C2393.25,-35 2401.4,-35 2409.04,-35"/>
<polygon fill="black" stroke="black" points="2409.02,-38.5 2419.02,-35 2409.02,-31.5 2409.02,-38.5"/>
</g>
<!-- 1990980759152 -->
<g id="node13" class="node">
<title>1990980759152</title>
<polygon fill="white" stroke="black" points="2586,-53 2510.75,-53 2510.75,-17 2586,-17 2586,-53"/>
<text text-anchor="middle" x="2548.38" y="-29.98" font-family="Times New Roman,serif" font-size="12.00">Scaling Plan</text>
</g>
<!-- 1990980747728 -->
<g id="node28" class="node">
<title>1990980747728</title>
<ellipse fill="white" stroke="black" cx="2649" cy="-35" rx="27" ry="27"/>
</g>
<!-- 1990980759152&#45;&gt;1990980747728 -->
<g id="edge26" class="edge">
<title>1990980759152&#45;&gt;1990980747728</title>
<path fill="none" stroke="black" d="M2586.38,-35C2594.15,-35 2602.35,-35 2610.15,-35"/>
<polygon fill="black" stroke="black" points="2610.05,-38.5 2620.05,-35 2610.05,-31.5 2610.05,-38.5"/>
</g>
<!-- 1990980757136 -->
<g id="node14" class="node">
<title>1990980757136</title>
<polygon fill="white" stroke="black" points="2802.25,-53 2712,-53 2712,-17 2802.25,-17 2802.25,-53"/>
<text text-anchor="middle" x="2757.12" y="-29.98" font-family="Times New Roman,serif" font-size="12.00">Joint Marketing</text>
</g>
<!-- 1990980748496 -->
<g id="node29" class="node">
<title>1990980748496</title>
<ellipse fill="white" stroke="black" cx="2865.25" cy="-35" rx="27" ry="27"/>
</g>
<!-- 1990980757136&#45;&gt;1990980748496 -->
<g id="edge28" class="edge">
<title>1990980757136&#45;&gt;1990980748496</title>
<path fill="none" stroke="black" d="M2802.52,-35C2810.51,-35 2818.78,-35 2826.56,-35"/>
<polygon fill="black" stroke="black" points="2826.39,-38.5 2836.39,-35 2826.39,-31.5 2826.39,-38.5"/>
</g>
<!-- 1990980755600 -->
<g id="node15" class="node">
<title>1990980755600</title>
<polygon fill="white" stroke="black" points="3025.25,-53 2928.25,-53 2928.25,-17 3025.25,-17 3025.25,-53"/>
<text text-anchor="middle" x="2976.75" y="-29.98" font-family="Times New Roman,serif" font-size="12.00">Innovation Audit</text>
</g>
<!-- 1990982049552 -->
<g id="node30" class="node">
<title>1990982049552</title>
<ellipse fill="white" stroke="black" cx="3092.25" cy="-35" rx="27" ry="27"/>
<ellipse fill="none" stroke="black" cx="3092.25" cy="-35" rx="31" ry="31"/>
<text text-anchor="start" x="3075.75" y="-19.6" font-family="Times New Roman,serif" font-size="32.00">■</text>
</g>
<!-- 1990980755600&#45;&gt;1990982049552 -->
<g id="edge30" class="edge">
<title>1990980755600&#45;&gt;1990982049552</title>
<path fill="none" stroke="black" d="M3025.56,-35C3033.52,-35 3041.73,-35 3049.53,-35"/>
<polygon fill="black" stroke="black" points="3049.45,-38.5 3059.45,-35 3049.45,-31.5 3049.45,-38.5"/>
</g>
<!-- 1990982044704 -->
<g id="node16" class="node">
<title>1990982044704</title>
<ellipse fill="white" stroke="black" cx="27" cy="-62" rx="27" ry="27"/>
<text text-anchor="start" x="9.75" y="-44.7" font-family="Times New Roman,serif" font-size="34.00">●</text>
</g>
<!-- 1990982044704&#45;&gt;1990979788608 -->
<g id="edge1" class="edge">
<title>1990982044704&#45;&gt;1990979788608</title>
<path fill="none" stroke="black" d="M54.41,-62C61.73,-62 69.96,-62 78.28,-62"/>
<polygon fill="black" stroke="black" points="78.08,-65.5 88.08,-62 78.08,-58.5 78.08,-65.5"/>
</g>
<!-- 1990975878448&#45;&gt;1990975870720 -->
<g id="edge3" class="edge">
<title>1990975878448&#45;&gt;1990975870720</title>
<path fill="none" stroke="black" d="M269.77,-62C277.25,-62 285.65,-62 294.01,-62"/>
<polygon fill="black" stroke="black" points="293.78,-65.5 303.78,-62 293.78,-58.5 293.78,-65.5"/>
</g>
<!-- 1990978351568&#45;&gt;1990978343456 -->
<g id="edge5" class="edge">
<title>1990978351568&#45;&gt;1990978343456</title>
<path fill="none" stroke="black" d="M471.89,-62C479.15,-62 487.33,-62 495.67,-62"/>
<polygon fill="black" stroke="black" points="495.57,-65.5 505.57,-62 495.57,-58.5 495.57,-65.5"/>
</g>
<!-- 1990978348880&#45;&gt;1990971863216 -->
<g id="edge7" class="edge">
<title>1990978348880&#45;&gt;1990971863216</title>
<path fill="none" stroke="black" d="M698.03,-56.43C705.65,-54.79 714.3,-52.92 723.04,-51.03"/>
<polygon fill="black" stroke="black" points="723.57,-54.5 732.61,-48.97 722.09,-47.66 723.57,-54.5"/>
</g>
<!-- 1990971864032&#45;&gt;1990979100048 -->
<g id="edge9" class="edge">
<title>1990971864032&#45;&gt;1990979100048</title>
<path fill="none" stroke="black" d="M915.63,-32.53C922.86,-32.4 931.02,-32.26 939.36,-32.11"/>
<polygon fill="black" stroke="black" points="939.34,-35.61 949.27,-31.93 939.21,-28.61 939.34,-35.61"/>
</g>
<!-- 1990979280464&#45;&gt;1990979277536 -->
<g id="edge11" class="edge">
<title>1990979280464&#45;&gt;1990979277536</title>
<path fill="none" stroke="black" d="M1144.52,-27.27C1152,-27.34 1160.4,-27.43 1168.76,-27.51"/>
<polygon fill="black" stroke="black" points="1168.5,-31.01 1178.53,-27.61 1168.57,-24.01 1168.5,-31.01"/>
</g>
<!-- 1990981719184&#45;&gt;1990981724128 -->
<g id="edge13" class="edge">
<title>1990981719184&#45;&gt;1990981724128</title>
<path fill="none" stroke="black" d="M1346.51,-32.45C1353.82,-32.57 1362.1,-32.72 1370.62,-32.86"/>
<polygon fill="black" stroke="black" points="1370.32,-36.36 1380.38,-33.03 1370.44,-29.36 1370.32,-36.36"/>
</g>
<!-- 1990978354544&#45;&gt;1990979577392 -->
<g id="edge16" class="edge">
<title>1990978354544&#45;&gt;1990979577392</title>
<path fill="none" stroke="black" d="M1581.8,-46.98C1592.6,-52.48 1605.78,-59.18 1618.41,-65.61"/>
<polygon fill="black" stroke="black" points="1616.52,-68.58 1627.02,-69.99 1619.7,-62.34 1616.52,-68.58"/>
</g>
<!-- 1990978354544&#45;&gt;1990977553328 -->
<g id="edge15" class="edge">
<title>1990978354544&#45;&gt;1990977553328</title>
<path fill="none" stroke="black" d="M1584.48,-35C1595.09,-35 1607.63,-35 1619.6,-35"/>
<polygon fill="black" stroke="black" points="1619.31,-38.5 1629.31,-35 1619.31,-31.5 1619.31,-38.5"/>
</g>
<!-- 1990977556160&#45;&gt;1990977566912 -->
<g id="edge19" class="edge">
<title>1990977556160&#45;&gt;1990977566912</title>
<path fill="none" stroke="black" d="M1800.73,-35C1808.06,-35 1816.32,-35 1824.7,-35"/>
<polygon fill="black" stroke="black" points="1824.63,-38.5 1834.63,-35 1824.63,-31.5 1824.63,-38.5"/>
</g>
<!-- 1990977563888&#45;&gt;1990977557840 -->
<g id="edge21" class="edge">
<title>1990977563888&#45;&gt;1990977557840</title>
<path fill="none" stroke="black" d="M2021.66,-35C2028.93,-35 2037.12,-35 2045.47,-35"/>
<polygon fill="black" stroke="black" points="2045.36,-38.5 2055.36,-35 2045.36,-31.5 2045.36,-38.5"/>
</g>
<!-- 1990977558896&#45;&gt;1990980753824 -->
<g id="edge23" class="edge">
<title>1990977558896&#45;&gt;1990980753824</title>
<path fill="none" stroke="black" d="M2246.13,-35C2253.36,-35 2261.52,-35 2269.86,-35"/>
<polygon fill="black" stroke="black" points="2269.77,-38.5 2279.77,-35 2269.77,-31.5 2269.77,-38.5"/>
</g>
<!-- 1990980761360&#45;&gt;1990980759152 -->
<g id="edge25" class="edge">
<title>1990980761360&#45;&gt;1990980759152</title>
<path fill="none" stroke="black" d="M2475.18,-35C2482.55,-35 2490.79,-35 2499,-35"/>
<polygon fill="black" stroke="black" points="2498.98,-38.5 2508.98,-35 2498.98,-31.5 2498.98,-38.5"/>
</g>
<!-- 1990980747728&#45;&gt;1990980757136 -->
<g id="edge27" class="edge">
<title>1990980747728&#45;&gt;1990980757136</title>
<path fill="none" stroke="black" d="M2676.23,-35C2683.58,-35 2691.85,-35 2700.22,-35"/>
<polygon fill="black" stroke="black" points="2700.09,-38.5 2710.09,-35 2700.09,-31.5 2700.09,-38.5"/>
</g>
<!-- 1990980748496&#45;&gt;1990980755600 -->
<g id="edge29" class="edge">
<title>1990980748496&#45;&gt;1990980755600</title>
<path fill="none" stroke="black" d="M2892.48,-35C2899.79,-35 2908.03,-35 2916.43,-35"/>
<polygon fill="black" stroke="black" points="2916.37,-38.5 2926.37,-35 2916.37,-31.5 2916.37,-38.5"/>
</g>
</g>
</svg>
