<?xml version="1.0" encoding="UTF-8" standalone="no"?>
<!DOCTYPE svg PUBLIC "-//W3C//DTD SVG 1.1//EN"
 "http://www.w3.org/Graphics/SVG/1.1/DTD/svg11.dtd">
<!-- Generated by graphviz version 11.0.0 (20240428.1522)
 -->
<!-- Title: imdf_net_1754051968.5050015 Pages: 1 -->
<svg width="2780pt" height="240pt"
 viewBox="0.00 0.00 2779.75 240.00" xmlns="http://www.w3.org/2000/svg" xmlns:xlink="http://www.w3.org/1999/xlink">
<g id="graph0" class="graph" transform="scale(1 1) rotate(0) translate(4 236)">
<title>imdf_net_1754051968.5050015</title>
<polygon fill="white" stroke="none" points="-4,4 -4,-236 2775.75,-236 2775.75,4 -4,4"/>
<!-- 1990981650096 -->
<g id="node1" class="node">
<title>1990981650096</title>
<polygon fill="white" stroke="black" points="160.75,-115 90,-115 90,-79 160.75,-79 160.75,-115"/>
<text text-anchor="middle" x="125.38" y="-91.97" font-family="Times New Roman,serif" font-size="12.00">Site Survey</text>
</g>
<!-- 1990981660512 -->
<g id="node19" class="node">
<title>1990981660512</title>
<ellipse fill="white" stroke="black" cx="223.75" cy="-97" rx="27" ry="27"/>
</g>
<!-- 1990981650096&#45;&gt;1990981660512 -->
<g id="edge2" class="edge">
<title>1990981650096&#45;&gt;1990981660512</title>
<path fill="none" stroke="black" d="M161.17,-97C168.9,-97 177.14,-97 184.98,-97"/>
<polygon fill="black" stroke="black" points="184.97,-100.5 194.97,-97 184.97,-93.5 184.97,-100.5"/>
</g>
<!-- 1990981656288 -->
<g id="node2" class="node">
<title>1990981656288</title>
<polygon fill="white" stroke="black" points="373.25,-115 286.75,-115 286.75,-79 373.25,-79 373.25,-115"/>
<text text-anchor="middle" x="330" y="-91.97" font-family="Times New Roman,serif" font-size="12.00">Permit Review</text>
</g>
<!-- 1990980879424 -->
<g id="node20" class="node">
<title>1990980879424</title>
<ellipse fill="white" stroke="black" cx="436.25" cy="-133" rx="27" ry="27"/>
</g>
<!-- 1990981656288&#45;&gt;1990980879424 -->
<g id="edge4" class="edge">
<title>1990981656288&#45;&gt;1990980879424</title>
<path fill="none" stroke="black" d="M373.7,-111.75C382.29,-114.71 391.22,-117.8 399.53,-120.67"/>
<polygon fill="black" stroke="black" points="398.37,-123.97 408.97,-123.92 400.66,-117.35 398.37,-123.97"/>
</g>
<!-- 1990981656432 -->
<g id="node21" class="node">
<title>1990981656432</title>
<ellipse fill="white" stroke="black" cx="436.25" cy="-61" rx="27" ry="27"/>
</g>
<!-- 1990981656288&#45;&gt;1990981656432 -->
<g id="edge5" class="edge">
<title>1990981656288&#45;&gt;1990981656432</title>
<path fill="none" stroke="black" d="M373.7,-82.25C382.29,-79.29 391.22,-76.2 399.53,-73.33"/>
<polygon fill="black" stroke="black" points="400.66,-76.65 408.97,-70.08 398.37,-70.03 400.66,-76.65"/>
</g>
<!-- 1990976976080 -->
<g id="node3" class="node">
<title>1990976976080</title>
<polygon fill="white" stroke="black" points="577.5,-83 499.25,-83 499.25,-47 577.5,-47 577.5,-83"/>
<text text-anchor="middle" x="538.38" y="-59.98" font-family="Times New Roman,serif" font-size="12.00">Sensor Setup</text>
</g>
<!-- 1990977080832 -->
<g id="node22" class="node">
<title>1990977080832</title>
<ellipse fill="white" stroke="black" cx="741.5" cy="-68" rx="27" ry="27"/>
</g>
<!-- 1990976976080&#45;&gt;1990977080832 -->
<g id="edge9" class="edge">
<title>1990976976080&#45;&gt;1990977080832</title>
<path fill="none" stroke="black" d="M577.68,-65.57C613.62,-66.11 667.06,-66.9 702.8,-67.44"/>
<polygon fill="black" stroke="black" points="702.63,-70.94 712.68,-67.59 702.73,-63.94 702.63,-70.94"/>
</g>
<!-- 1990977565808 -->
<g id="node4" class="node">
<title>1990977565808</title>
<polygon fill="white" stroke="black" points="574.88,-150 501.88,-150 501.88,-114 574.88,-114 574.88,-150"/>
<text text-anchor="middle" x="538.38" y="-126.97" font-family="Times New Roman,serif" font-size="12.00">Soil Testing</text>
</g>
<!-- 1990977554720 -->
<g id="node23" class="node">
<title>1990977554720</title>
<ellipse fill="white" stroke="black" cx="640.5" cy="-132" rx="27" ry="27"/>
</g>
<!-- 1990977565808&#45;&gt;1990977554720 -->
<g id="edge8" class="edge">
<title>1990977565808&#45;&gt;1990977554720</title>
<path fill="none" stroke="black" d="M575.24,-132C583.88,-132 593.14,-132 601.86,-132"/>
<polygon fill="black" stroke="black" points="601.79,-135.5 611.79,-132 601.79,-128.5 601.79,-135.5"/>
</g>
<!-- 1990977554624 -->
<g id="node5" class="node">
<title>1990977554624</title>
<polygon fill="white" stroke="black" points="779.5,-150 703.5,-150 703.5,-114 779.5,-114 779.5,-150"/>
<text text-anchor="middle" x="741.5" y="-126.97" font-family="Times New Roman,serif" font-size="12.00">Biochar Mix</text>
</g>
<!-- 1990977086304 -->
<g id="node25" class="node">
<title>1990977086304</title>
<ellipse fill="white" stroke="black" cx="842.5" cy="-126" rx="27" ry="27"/>
</g>
<!-- 1990977554624&#45;&gt;1990977086304 -->
<g id="edge13" class="edge">
<title>1990977554624&#45;&gt;1990977086304</title>
<path fill="none" stroke="black" d="M779.93,-129.73C787.71,-129.26 795.91,-128.76 803.71,-128.29"/>
<polygon fill="black" stroke="black" points="803.83,-131.79 813.6,-127.69 803.41,-124.8 803.83,-131.79"/>
</g>
<!-- 1990977566528 -->
<g id="node6" class="node">
<title>1990977566528</title>
<polygon fill="white" stroke="black" points="996.5,-117 905.5,-117 905.5,-81 996.5,-81 996.5,-117"/>
<text text-anchor="middle" x="951" y="-93.97" font-family="Times New Roman,serif" font-size="12.00">Irrigation Install</text>
</g>
<!-- 1990977564896 -->
<g id="node24" class="node">
<title>1990977564896</title>
<ellipse fill="white" stroke="black" cx="1059.5" cy="-99" rx="27" ry="27"/>
</g>
<!-- 1990977566528&#45;&gt;1990977564896 -->
<g id="edge12" class="edge">
<title>1990977566528&#45;&gt;1990977564896</title>
<path fill="none" stroke="black" d="M996.86,-99C1004.86,-99 1013.12,-99 1020.9,-99"/>
<polygon fill="black" stroke="black" points="1020.71,-102.5 1030.71,-99 1020.71,-95.5 1020.71,-102.5"/>
</g>
<!-- 1990977560528 -->
<g id="node7" class="node">
<title>1990977560528</title>
<polygon fill="white" stroke="black" points="1208.25,-117 1122.5,-117 1122.5,-81 1208.25,-81 1208.25,-117"/>
<text text-anchor="middle" x="1165.38" y="-93.97" font-family="Times New Roman,serif" font-size="12.00">Seed Selection</text>
</g>
<!-- 1990977554384 -->
<g id="node26" class="node">
<title>1990977554384</title>
<ellipse fill="white" stroke="black" cx="1271.25" cy="-99" rx="27" ry="27"/>
</g>
<!-- 1990977560528&#45;&gt;1990977554384 -->
<g id="edge16" class="edge">
<title>1990977560528&#45;&gt;1990977554384</title>
<path fill="none" stroke="black" d="M1208.62,-99C1216.53,-99 1224.75,-99 1232.51,-99"/>
<polygon fill="black" stroke="black" points="1232.32,-102.5 1242.32,-99 1232.32,-95.5 1232.32,-102.5"/>
</g>
<!-- 1990980503408 -->
<g id="node8" class="node">
<title>1990980503408</title>
<polygon fill="white" stroke="black" points="1420,-117 1334.25,-117 1334.25,-81 1420,-81 1420,-117"/>
<text text-anchor="middle" x="1377.12" y="-93.97" font-family="Times New Roman,serif" font-size="12.00">Planting Phase</text>
</g>
<!-- 1990976230736 -->
<g id="node27" class="node">
<title>1990976230736</title>
<ellipse fill="white" stroke="black" cx="1483" cy="-171" rx="27" ry="27"/>
</g>
<!-- 1990980503408&#45;&gt;1990976230736 -->
<g id="edge19" class="edge">
<title>1990980503408&#45;&gt;1990976230736</title>
<path fill="none" stroke="black" d="M1404.61,-117.35C1418.71,-127.13 1436.14,-139.21 1450.88,-149.43"/>
<polygon fill="black" stroke="black" points="1448.67,-152.15 1458.88,-154.97 1452.65,-146.4 1448.67,-152.15"/>
</g>
<!-- 1990976230496 -->
<g id="node28" class="node">
<title>1990976230496</title>
<ellipse fill="white" stroke="black" cx="1483" cy="-99" rx="27" ry="27"/>
</g>
<!-- 1990980503408&#45;&gt;1990976230496 -->
<g id="edge20" class="edge">
<title>1990980503408&#45;&gt;1990976230496</title>
<path fill="none" stroke="black" d="M1420.37,-99C1428.28,-99 1436.5,-99 1444.26,-99"/>
<polygon fill="black" stroke="black" points="1444.07,-102.5 1454.07,-99 1444.07,-95.5 1444.07,-102.5"/>
</g>
<!-- 1990980516848 -->
<g id="node29" class="node">
<title>1990980516848</title>
<ellipse fill="white" stroke="black" cx="1483" cy="-27" rx="27" ry="27"/>
</g>
<!-- 1990980503408&#45;&gt;1990980516848 -->
<g id="edge18" class="edge">
<title>1990980503408&#45;&gt;1990980516848</title>
<path fill="none" stroke="black" d="M1404.61,-80.65C1418.71,-70.87 1436.14,-58.79 1450.88,-48.57"/>
<polygon fill="black" stroke="black" points="1452.65,-51.6 1458.88,-43.03 1448.67,-45.85 1452.65,-51.6"/>
</g>
<!-- 1990976230064 -->
<g id="node9" class="node">
<title>1990976230064</title>
<polygon fill="white" stroke="black" points="1645.25,-116 1546,-116 1546,-80 1645.25,-80 1645.25,-116"/>
<text text-anchor="middle" x="1595.62" y="-92.97" font-family="Times New Roman,serif" font-size="12.00">Community Meet</text>
</g>
<!-- 1990976227328 -->
<g id="node30" class="node">
<title>1990976227328</title>
<ellipse fill="white" stroke="black" cx="1809.62" cy="-97" rx="27" ry="27"/>
</g>
<!-- 1990976230064&#45;&gt;1990976227328 -->
<g id="edge24" class="edge">
<title>1990976230064&#45;&gt;1990976227328</title>
<path fill="none" stroke="black" d="M1645.53,-97.77C1683.76,-97.59 1736.12,-97.34 1771.09,-97.18"/>
<polygon fill="black" stroke="black" points="1770.75,-100.68 1780.73,-97.13 1770.71,-93.68 1770.75,-100.68"/>
</g>
<!-- 1990980504416 -->
<g id="node10" class="node">
<title>1990980504416</title>
<polygon fill="white" stroke="black" points="1632.88,-53 1558.38,-53 1558.38,-17 1632.88,-17 1632.88,-53"/>
<text text-anchor="middle" x="1595.62" y="-29.98" font-family="Times New Roman,serif" font-size="12.00">Pest Control</text>
</g>
<!-- 1990980509504 -->
<g id="node31" class="node">
<title>1990980509504</title>
<ellipse fill="white" stroke="black" cx="1911" cy="-41" rx="27" ry="27"/>
</g>
<!-- 1990980504416&#45;&gt;1990980509504 -->
<g id="edge25" class="edge">
<title>1990980504416&#45;&gt;1990980509504</title>
<path fill="none" stroke="black" d="M1633.19,-35.7C1693.13,-36.85 1811.68,-39.12 1872.33,-40.28"/>
<polygon fill="black" stroke="black" points="1872.08,-43.77 1882.14,-40.47 1872.21,-36.78 1872.08,-43.77"/>
</g>
<!-- 1990981353200 -->
<g id="node11" class="node">
<title>1990981353200</title>
<polygon fill="white" stroke="black" points="1642.62,-183 1548.62,-183 1548.62,-147 1642.62,-147 1642.62,-183"/>
<text text-anchor="middle" x="1595.62" y="-159.97" font-family="Times New Roman,serif" font-size="12.00">Growth Monitor</text>
</g>
<!-- 1990981341776 -->
<g id="node32" class="node">
<title>1990981341776</title>
<ellipse fill="white" stroke="black" cx="1708.25" cy="-160" rx="27" ry="27"/>
</g>
<!-- 1990981353200&#45;&gt;1990981341776 -->
<g id="edge26" class="edge">
<title>1990981353200&#45;&gt;1990981341776</title>
<path fill="none" stroke="black" d="M1642.9,-162.91C1651.85,-162.5 1661.13,-162.08 1669.77,-161.69"/>
<polygon fill="black" stroke="black" points="1669.7,-165.2 1679.53,-161.25 1669.38,-158.21 1669.7,-165.2"/>
</g>
<!-- 1990976839632 -->
<g id="node12" class="node">
<title>1990976839632</title>
<polygon fill="black" stroke="black" points="2673.75,-115 2619.75,-115 2619.75,-79 2673.75,-79 2673.75,-115"/>
</g>
<!-- 1990977366176 -->
<g id="node34" class="node">
<title>1990977366176</title>
<ellipse fill="white" stroke="black" cx="2740.75" cy="-97" rx="27" ry="27"/>
<ellipse fill="none" stroke="black" cx="2740.75" cy="-97" rx="31" ry="31"/>
<text text-anchor="start" x="2724.25" y="-81.6" font-family="Times New Roman,serif" font-size="32.00">■</text>
</g>
<!-- 1990976839632&#45;&gt;1990977366176 -->
<g id="edge31" class="edge">
<title>1990976839632&#45;&gt;1990977366176</title>
<path fill="none" stroke="black" d="M2673.87,-97C2681.38,-97 2689.76,-97 2697.97,-97"/>
<polygon fill="black" stroke="black" points="2697.83,-100.5 2707.83,-97 2697.83,-93.5 2697.83,-100.5"/>
</g>
<!-- 1990981339856 -->
<g id="node13" class="node">
<title>1990981339856</title>
<polygon fill="white" stroke="black" points="1848,-178 1771.25,-178 1771.25,-142 1848,-142 1848,-178"/>
<text text-anchor="middle" x="1809.62" y="-154.97" font-family="Times New Roman,serif" font-size="12.00">Data Upload</text>
</g>
<!-- 1990981343504 -->
<g id="node33" class="node">
<title>1990981343504</title>
<ellipse fill="white" stroke="black" cx="1911" cy="-160" rx="27" ry="27"/>
</g>
<!-- 1990981339856&#45;&gt;1990981343504 -->
<g id="edge30" class="edge">
<title>1990981339856&#45;&gt;1990981343504</title>
<path fill="none" stroke="black" d="M1848.48,-160C1856.27,-160 1864.48,-160 1872.27,-160"/>
<polygon fill="black" stroke="black" points="1872.15,-163.5 1882.15,-160 1872.15,-156.5 1872.15,-163.5"/>
</g>
<!-- 1990981338128 -->
<g id="node14" class="node">
<title>1990981338128</title>
<polygon fill="white" stroke="black" points="2060.5,-178 1974,-178 1974,-142 2060.5,-142 2060.5,-178"/>
<text text-anchor="middle" x="2017.25" y="-154.97" font-family="Times New Roman,serif" font-size="12.00">Yield Analysis</text>
</g>
<!-- 1990971863360 -->
<g id="node35" class="node">
<title>1990971863360</title>
<ellipse fill="white" stroke="black" cx="2123.5" cy="-160" rx="27" ry="27"/>
</g>
<!-- 1990981338128&#45;&gt;1990971863360 -->
<g id="edge33" class="edge">
<title>1990981338128&#45;&gt;1990971863360</title>
<path fill="none" stroke="black" d="M2060.95,-160C2068.87,-160 2077.09,-160 2084.84,-160"/>
<polygon fill="black" stroke="black" points="2084.64,-163.5 2094.64,-160 2084.64,-156.5 2084.64,-163.5"/>
</g>
<!-- 1990976055744 -->
<g id="node15" class="node">
<title>1990976055744</title>
<polygon fill="white" stroke="black" points="2270,-177 2193.25,-177 2193.25,-141 2270,-141 2270,-177"/>
<text text-anchor="middle" x="2231.62" y="-153.97" font-family="Times New Roman,serif" font-size="12.00">Harvest Plan</text>
</g>
<!-- 1990977078624 -->
<g id="node36" class="node">
<title>1990977078624</title>
<ellipse fill="white" stroke="black" cx="2339.75" cy="-159" rx="27" ry="27"/>
</g>
<!-- 1990976055744&#45;&gt;1990977078624 -->
<g id="edge37" class="edge">
<title>1990976055744&#45;&gt;1990977078624</title>
<path fill="none" stroke="black" d="M2270.34,-159C2280.36,-159 2291.18,-159 2301.19,-159"/>
<polygon fill="black" stroke="black" points="2300.96,-162.5 2310.96,-159 2300.96,-155.5 2300.96,-162.5"/>
</g>
<!-- 1990981338080 -->
<g id="node16" class="node">
<title>1990981338080</title>
<polygon fill="white" stroke="black" points="2276.75,-232 2186.5,-232 2186.5,-196 2276.75,-196 2276.75,-232"/>
<text text-anchor="middle" x="2231.62" y="-208.97" font-family="Times New Roman,serif" font-size="12.00">Feedback Loop</text>
</g>
<!-- 1990981338080&#45;&gt;1990976230736 -->
<g id="edge36" class="edge">
<title>1990981338080&#45;&gt;1990976230736</title>
<path fill="none" stroke="black" d="M2186.29,-214.33C2143.32,-214.62 2076.32,-215 2018.25,-215 1707.25,-215 1707.25,-215 1707.25,-215 1634.86,-215 1616.42,-208.79 1546,-192 1537.31,-189.93 1528.12,-187.15 1519.55,-184.29"/>
<polygon fill="black" stroke="black" points="1520.76,-181.01 1510.16,-181.04 1518.47,-187.62 1520.76,-181.01"/>
</g>
<!-- 1990977088128 -->
<g id="node17" class="node">
<title>1990977088128</title>
<polygon fill="white" stroke="black" points="2493.75,-173 2402.75,-173 2402.75,-137 2493.75,-137 2493.75,-173"/>
<text text-anchor="middle" x="2448.25" y="-149.97" font-family="Times New Roman,serif" font-size="12.00">Waste Compost</text>
</g>
<!-- 1990976058480 -->
<g id="node37" class="node">
<title>1990976058480</title>
<ellipse fill="white" stroke="black" cx="2556.75" cy="-153" rx="27" ry="27"/>
</g>
<!-- 1990977088128&#45;&gt;1990976058480 -->
<g id="edge39" class="edge">
<title>1990977088128&#45;&gt;1990976058480</title>
<path fill="none" stroke="black" d="M2494.11,-154.16C2502.11,-154.01 2510.37,-153.85 2518.15,-153.71"/>
<polygon fill="black" stroke="black" points="2518.03,-157.21 2527.96,-153.52 2517.9,-150.21 2518.03,-157.21"/>
</g>
<!-- 1990976663536 -->
<g id="node18" class="node">
<title>1990976663536</title>
<ellipse fill="white" stroke="black" cx="27" cy="-97" rx="27" ry="27"/>
<text text-anchor="start" x="9.75" y="-79.7" font-family="Times New Roman,serif" font-size="34.00">●</text>
</g>
<!-- 1990976663536&#45;&gt;1990981650096 -->
<g id="edge1" class="edge">
<title>1990976663536&#45;&gt;1990981650096</title>
<path fill="none" stroke="black" d="M54.33,-97C61.76,-97 70.06,-97 78.28,-97"/>
<polygon fill="black" stroke="black" points="78.24,-100.5 88.24,-97 78.24,-93.5 78.24,-100.5"/>
</g>
<!-- 1990981660512&#45;&gt;1990981656288 -->
<g id="edge3" class="edge">
<title>1990981660512&#45;&gt;1990981656288</title>
<path fill="none" stroke="black" d="M251.06,-97C258.44,-97 266.74,-97 275.11,-97"/>
<polygon fill="black" stroke="black" points="274.96,-100.5 284.96,-97 274.96,-93.5 274.96,-100.5"/>
</g>
<!-- 1990980879424&#45;&gt;1990977565808 -->
<g id="edge6" class="edge">
<title>1990980879424&#45;&gt;1990977565808</title>
<path fill="none" stroke="black" d="M463.56,-132.74C471.7,-132.66 480.95,-132.56 490.06,-132.47"/>
<polygon fill="black" stroke="black" points="489.98,-135.97 499.94,-132.37 489.91,-128.97 489.98,-135.97"/>
</g>
<!-- 1990981656432&#45;&gt;1990976976080 -->
<g id="edge7" class="edge">
<title>1990981656432&#45;&gt;1990976976080</title>
<path fill="none" stroke="black" d="M463.56,-62.05C470.97,-62.35 479.28,-62.68 487.58,-63.01"/>
<polygon fill="black" stroke="black" points="487.17,-66.5 497.3,-63.4 487.45,-59.5 487.17,-66.5"/>
</g>
<!-- 1990977080832&#45;&gt;1990977566528 -->
<g id="edge10" class="edge">
<title>1990977080832&#45;&gt;1990977566528</title>
<path fill="none" stroke="black" d="M768.36,-71.86C799.64,-76.54 853.18,-84.54 894.06,-90.64"/>
<polygon fill="black" stroke="black" points="893.32,-94.07 903.72,-92.09 894.35,-87.15 893.32,-94.07"/>
</g>
<!-- 1990977554720&#45;&gt;1990977554624 -->
<g id="edge11" class="edge">
<title>1990977554720&#45;&gt;1990977554624</title>
<path fill="none" stroke="black" d="M667.77,-132C675.25,-132 683.65,-132 692.01,-132"/>
<polygon fill="black" stroke="black" points="691.78,-135.5 701.78,-132 691.78,-128.5 691.78,-135.5"/>
</g>
<!-- 1990977564896&#45;&gt;1990977560528 -->
<g id="edge15" class="edge">
<title>1990977564896&#45;&gt;1990977560528</title>
<path fill="none" stroke="black" d="M1086.98,-99C1094.34,-99 1102.6,-99 1110.91,-99"/>
<polygon fill="black" stroke="black" points="1110.69,-102.5 1120.69,-99 1110.69,-95.5 1110.69,-102.5"/>
</g>
<!-- 1990977086304&#45;&gt;1990977566528 -->
<g id="edge14" class="edge">
<title>1990977086304&#45;&gt;1990977566528</title>
<path fill="none" stroke="black" d="M869.01,-119.53C876.62,-117.6 885.29,-115.41 894.05,-113.18"/>
<polygon fill="black" stroke="black" points="894.83,-116.6 903.67,-110.75 893.11,-109.81 894.83,-116.6"/>
</g>
<!-- 1990977554384&#45;&gt;1990980503408 -->
<g id="edge17" class="edge">
<title>1990977554384&#45;&gt;1990980503408</title>
<path fill="none" stroke="black" d="M1298.73,-99C1306.09,-99 1314.35,-99 1322.66,-99"/>
<polygon fill="black" stroke="black" points="1322.44,-102.5 1332.44,-99 1322.44,-95.5 1322.44,-102.5"/>
</g>
<!-- 1990976230736&#45;&gt;1990981353200 -->
<g id="edge23" class="edge">
<title>1990976230736&#45;&gt;1990981353200</title>
<path fill="none" stroke="black" d="M1510.22,-169.58C1518.3,-169.14 1527.55,-168.64 1536.88,-168.13"/>
<polygon fill="black" stroke="black" points="1536.94,-171.63 1546.74,-167.6 1536.56,-164.64 1536.94,-171.63"/>
</g>
<!-- 1990976230496&#45;&gt;1990976230064 -->
<g id="edge22" class="edge">
<title>1990976230496&#45;&gt;1990976230064</title>
<path fill="none" stroke="black" d="M1510.5,-98.76C1517.79,-98.69 1526.02,-98.62 1534.39,-98.54"/>
<polygon fill="black" stroke="black" points="1534.35,-102.05 1544.32,-98.45 1534.29,-95.05 1534.35,-102.05"/>
</g>
<!-- 1990980516848&#45;&gt;1990980504416 -->
<g id="edge21" class="edge">
<title>1990980516848&#45;&gt;1990980504416</title>
<path fill="none" stroke="black" d="M1510.22,-28.9C1521.17,-29.69 1534.26,-30.63 1546.82,-31.54"/>
<polygon fill="black" stroke="black" points="1546.4,-35.02 1556.62,-32.25 1546.9,-28.04 1546.4,-35.02"/>
</g>
<!-- 1990976227328&#45;&gt;1990976839632 -->
<g id="edge29" class="edge">
<title>1990976227328&#45;&gt;1990976839632</title>
<path fill="none" stroke="black" d="M1836.92,-97C1876.02,-97 1951.81,-97 2016.25,-97 2016.25,-97 2016.25,-97 2449.25,-97 2504.44,-97 2568.34,-97 2607.91,-97"/>
<polygon fill="black" stroke="black" points="2607.86,-100.5 2617.86,-97 2607.86,-93.5 2607.86,-100.5"/>
</g>
<!-- 1990980509504&#45;&gt;1990976839632 -->
<g id="edge27" class="edge">
<title>1990980509504&#45;&gt;1990976839632</title>
<path fill="none" stroke="black" d="M1938.23,-43.05C1978.04,-45.97 2056.1,-51 2122.5,-51 2122.5,-51 2122.5,-51 2449.25,-51 2506.01,-51 2569.63,-69.42 2608.69,-82.95"/>
<polygon fill="black" stroke="black" points="2607.49,-86.24 2618.08,-86.28 2609.83,-79.64 2607.49,-86.24"/>
</g>
<!-- 1990981341776&#45;&gt;1990981339856 -->
<g id="edge28" class="edge">
<title>1990981341776&#45;&gt;1990981339856</title>
<path fill="none" stroke="black" d="M1735.62,-160C1742.97,-160 1751.19,-160 1759.4,-160"/>
<polygon fill="black" stroke="black" points="1759.39,-163.5 1769.39,-160 1759.39,-156.5 1759.39,-163.5"/>
</g>
<!-- 1990981343504&#45;&gt;1990981338128 -->
<g id="edge32" class="edge">
<title>1990981343504&#45;&gt;1990981338128</title>
<path fill="none" stroke="black" d="M1938.31,-160C1945.69,-160 1953.99,-160 1962.36,-160"/>
<polygon fill="black" stroke="black" points="1962.21,-163.5 1972.21,-160 1962.21,-156.5 1962.21,-163.5"/>
</g>
<!-- 1990971863360&#45;&gt;1990976055744 -->
<g id="edge35" class="edge">
<title>1990971863360&#45;&gt;1990976055744</title>
<path fill="none" stroke="black" d="M2150.73,-159.75C2160.11,-159.66 2171,-159.56 2181.67,-159.46"/>
<polygon fill="black" stroke="black" points="2181.6,-162.96 2191.57,-159.37 2181.53,-155.96 2181.6,-162.96"/>
</g>
<!-- 1990971863360&#45;&gt;1990981338080 -->
<g id="edge34" class="edge">
<title>1990971863360&#45;&gt;1990981338080</title>
<path fill="none" stroke="black" d="M2148.05,-171.98C2158.85,-177.48 2172.03,-184.18 2184.66,-190.61"/>
<polygon fill="black" stroke="black" points="2182.77,-193.58 2193.27,-194.99 2185.95,-187.34 2182.77,-193.58"/>
</g>
<!-- 1990977078624&#45;&gt;1990977088128 -->
<g id="edge38" class="edge">
<title>1990977078624&#45;&gt;1990977088128</title>
<path fill="none" stroke="black" d="M2367.08,-158.01C2374.44,-157.73 2382.75,-157.42 2391.14,-157.11"/>
<polygon fill="black" stroke="black" points="2391.2,-160.61 2401.06,-156.73 2390.94,-153.61 2391.2,-160.61"/>
</g>
<!-- 1990976058480&#45;&gt;1990976839632 -->
<g id="edge40" class="edge">
<title>1990976058480&#45;&gt;1990976839632</title>
<path fill="none" stroke="black" d="M2579.96,-138.87C2589.06,-133.07 2599.83,-126.22 2610,-119.75"/>
<polygon fill="black" stroke="black" points="2611.65,-122.85 2618.2,-114.53 2607.89,-116.95 2611.65,-122.85"/>
</g>
</g>
</svg>
