<?xml version="1.0" encoding="UTF-8" standalone="no"?>
<!DOCTYPE svg PUBLIC "-//W3C//DTD SVG 1.1//EN"
 "http://www.w3.org/Graphics/SVG/1.1/DTD/svg11.dtd">
<!-- Generated by graphviz version 11.0.0 (20240428.1522)
 -->
<!-- Title: imdf_net_1754051989.0749261 Pages: 1 -->
<svg width="2836pt" height="201pt"
 viewBox="0.00 0.00 2836.25 201.00" xmlns="http://www.w3.org/2000/svg" xmlns:xlink="http://www.w3.org/1999/xlink">
<g id="graph0" class="graph" transform="scale(1 1) rotate(0) translate(4 197)">
<title>imdf_net_1754051989.0749261</title>
<polygon fill="white" stroke="none" points="-4,4 -4,-197 2832.25,-197 2832.25,4 -4,4"/>
<!-- 1990980881776 -->
<g id="node1" class="node">
<title>1990980881776</title>
<polygon fill="white" stroke="black" points="191.5,-148 90,-148 90,-112 191.5,-112 191.5,-148"/>
<text text-anchor="middle" x="140.75" y="-124.97" font-family="Times New Roman,serif" font-size="12.00">Source Botanicals</text>
</g>
<!-- 1990980884128 -->
<g id="node18" class="node">
<title>1990980884128</title>
<ellipse fill="white" stroke="black" cx="254.5" cy="-130" rx="27" ry="27"/>
</g>
<!-- 1990980881776&#45;&gt;1990980884128 -->
<g id="edge2" class="edge">
<title>1990980881776&#45;&gt;1990980884128</title>
<path fill="none" stroke="black" d="M191.74,-130C199.85,-130 208.12,-130 215.86,-130"/>
<polygon fill="black" stroke="black" points="215.61,-133.5 225.61,-130 215.61,-126.5 215.61,-133.5"/>
</g>
<!-- 1990980881344 -->
<g id="node2" class="node">
<title>1990980881344</title>
<polygon fill="white" stroke="black" points="413,-148 317.5,-148 317.5,-112 413,-112 413,-148"/>
<text text-anchor="middle" x="365.25" y="-124.97" font-family="Times New Roman,serif" font-size="12.00">Extract Essences</text>
</g>
<!-- 1990980885424 -->
<g id="node19" class="node">
<title>1990980885424</title>
<ellipse fill="white" stroke="black" cx="476" cy="-166" rx="27" ry="27"/>
</g>
<!-- 1990980881344&#45;&gt;1990980885424 -->
<g id="edge5" class="edge">
<title>1990980881344&#45;&gt;1990980885424</title>
<path fill="none" stroke="black" d="M413.32,-145.58C422,-148.45 430.93,-151.41 439.22,-154.15"/>
<polygon fill="black" stroke="black" points="437.99,-157.43 448.58,-157.25 440.19,-150.79 437.99,-157.43"/>
</g>
<!-- 1990980880096 -->
<g id="node20" class="node">
<title>1990980880096</title>
<ellipse fill="white" stroke="black" cx="476" cy="-94" rx="27" ry="27"/>
</g>
<!-- 1990980881344&#45;&gt;1990980880096 -->
<g id="edge4" class="edge">
<title>1990980881344&#45;&gt;1990980880096</title>
<path fill="none" stroke="black" d="M413.32,-114.42C422,-111.55 430.93,-108.59 439.22,-105.85"/>
<polygon fill="black" stroke="black" points="440.19,-109.21 448.58,-102.75 437.99,-102.57 440.19,-109.21"/>
</g>
<!-- 1990980890752 -->
<g id="node3" class="node">
<title>1990980890752</title>
<polygon fill="white" stroke="black" points="623.25,-184 546.5,-184 546.5,-148 623.25,-148 623.25,-184"/>
<text text-anchor="middle" x="584.88" y="-160.97" font-family="Times New Roman,serif" font-size="12.00">Steam Distill</text>
</g>
<!-- 1990978482832 -->
<g id="node21" class="node">
<title>1990978482832</title>
<ellipse fill="white" stroke="black" cx="693.75" cy="-166" rx="27" ry="27"/>
</g>
<!-- 1990980890752&#45;&gt;1990978482832 -->
<g id="edge8" class="edge">
<title>1990980890752&#45;&gt;1990978482832</title>
<path fill="none" stroke="black" d="M623.56,-166C633.75,-166 644.78,-166 654.98,-166"/>
<polygon fill="black" stroke="black" points="654.96,-169.5 664.96,-166 654.96,-162.5 654.96,-169.5"/>
</g>
<!-- 1990980890608 -->
<g id="node4" class="node">
<title>1990980890608</title>
<polygon fill="white" stroke="black" points="630.75,-112 539,-112 539,-76 630.75,-76 630.75,-112"/>
<text text-anchor="middle" x="584.88" y="-88.97" font-family="Times New Roman,serif" font-size="12.00">Enfleurage Step</text>
</g>
<!-- 1990978471648 -->
<g id="node22" class="node">
<title>1990978471648</title>
<ellipse fill="white" stroke="black" cx="693.75" cy="-94" rx="27" ry="27"/>
</g>
<!-- 1990980890608&#45;&gt;1990978471648 -->
<g id="edge9" class="edge">
<title>1990980890608&#45;&gt;1990978471648</title>
<path fill="none" stroke="black" d="M631.2,-94C639.21,-94 647.47,-94 655.23,-94"/>
<polygon fill="black" stroke="black" points="655.03,-97.5 665.03,-94 655.03,-90.5 655.03,-97.5"/>
</g>
<!-- 1990980888208 -->
<g id="node5" class="node">
<title>1990980888208</title>
<polygon fill="white" stroke="black" points="835,-148 756.75,-148 756.75,-112 835,-112 835,-148"/>
<text text-anchor="middle" x="795.88" y="-124.97" font-family="Times New Roman,serif" font-size="12.00">Blend Scents</text>
</g>
<!-- 1990980893488 -->
<g id="node23" class="node">
<title>1990980893488</title>
<ellipse fill="white" stroke="black" cx="898" cy="-130" rx="27" ry="27"/>
</g>
<!-- 1990980888208&#45;&gt;1990980893488 -->
<g id="edge12" class="edge">
<title>1990980888208&#45;&gt;1990980893488</title>
<path fill="none" stroke="black" d="M835.3,-130C843.14,-130 851.38,-130 859.19,-130"/>
<polygon fill="black" stroke="black" points="859.11,-133.5 869.11,-130 859.11,-126.5 859.11,-133.5"/>
</g>
<!-- 1990980878512 -->
<g id="node6" class="node">
<title>1990980878512</title>
<polygon fill="white" stroke="black" points="1042.25,-148 961,-148 961,-112 1042.25,-112 1042.25,-148"/>
<text text-anchor="middle" x="1001.62" y="-124.97" font-family="Times New Roman,serif" font-size="12.00">Mature Blend</text>
</g>
<!-- 1990980881008 -->
<g id="node24" class="node">
<title>1990980881008</title>
<ellipse fill="white" stroke="black" cx="1105.25" cy="-130" rx="27" ry="27"/>
</g>
<!-- 1990980878512&#45;&gt;1990980881008 -->
<g id="edge14" class="edge">
<title>1990980878512&#45;&gt;1990980881008</title>
<path fill="none" stroke="black" d="M1042.5,-130C1050.4,-130 1058.67,-130 1066.5,-130"/>
<polygon fill="black" stroke="black" points="1066.42,-133.5 1076.42,-130 1066.42,-126.5 1066.42,-133.5"/>
</g>
<!-- 1990980881440 -->
<g id="node7" class="node">
<title>1990980881440</title>
<polygon fill="white" stroke="black" points="1243.5,-125 1168.25,-125 1168.25,-89 1243.5,-89 1243.5,-125"/>
<text text-anchor="middle" x="1205.88" y="-101.97" font-family="Times New Roman,serif" font-size="12.00">Test Profiles</text>
</g>
<!-- 1990980893680 -->
<g id="node25" class="node">
<title>1990980893680</title>
<ellipse fill="white" stroke="black" cx="1306.5" cy="-101" rx="27" ry="27"/>
</g>
<!-- 1990980881440&#45;&gt;1990980893680 -->
<g id="edge16" class="edge">
<title>1990980881440&#45;&gt;1990980893680</title>
<path fill="none" stroke="black" d="M1243.88,-104.75C1251.65,-104.28 1259.85,-103.78 1267.65,-103.3"/>
<polygon fill="black" stroke="black" points="1267.78,-106.8 1277.55,-102.7 1267.36,-99.81 1267.78,-106.8"/>
</g>
<!-- 1990980884656 -->
<g id="node8" class="node">
<title>1990980884656</title>
<polygon fill="white" stroke="black" points="1453.75,-117 1369.5,-117 1369.5,-81 1453.75,-81 1453.75,-117"/>
<text text-anchor="middle" x="1411.62" y="-93.97" font-family="Times New Roman,serif" font-size="12.00">Olfactory Test</text>
</g>
<!-- 1990980887824 -->
<g id="node26" class="node">
<title>1990980887824</title>
<ellipse fill="white" stroke="black" cx="1516.75" cy="-95" rx="27" ry="27"/>
</g>
<!-- 1990980884656&#45;&gt;1990980887824 -->
<g id="edge18" class="edge">
<title>1990980884656&#45;&gt;1990980887824</title>
<path fill="none" stroke="black" d="M1453.98,-97.4C1461.94,-97.09 1470.24,-96.77 1478.08,-96.46"/>
<polygon fill="black" stroke="black" points="1478.15,-99.96 1488,-96.08 1477.88,-92.97 1478.15,-99.96"/>
</g>
<!-- 1990980893200 -->
<g id="node9" class="node">
<title>1990980893200</title>
<polygon fill="white" stroke="black" points="1664.75,-113 1579.75,-113 1579.75,-77 1664.75,-77 1664.75,-113"/>
<text text-anchor="middle" x="1622.25" y="-89.97" font-family="Times New Roman,serif" font-size="12.00">Quality Check</text>
</g>
<!-- 1990980879232 -->
<g id="node27" class="node">
<title>1990980879232</title>
<ellipse fill="white" stroke="black" cx="1727.75" cy="-95" rx="27" ry="27"/>
</g>
<!-- 1990980893200&#45;&gt;1990980879232 -->
<g id="edge20" class="edge">
<title>1990980893200&#45;&gt;1990980879232</title>
<path fill="none" stroke="black" d="M1665.05,-95C1672.95,-95 1681.17,-95 1688.93,-95"/>
<polygon fill="black" stroke="black" points="1688.76,-98.5 1698.76,-95 1688.76,-91.5 1688.76,-98.5"/>
</g>
<!-- 1990978482592 -->
<g id="node10" class="node">
<title>1990978482592</title>
<polygon fill="white" stroke="black" points="1881,-117 1790.75,-117 1790.75,-81 1881,-81 1881,-117"/>
<text text-anchor="middle" x="1835.88" y="-93.97" font-family="Times New Roman,serif" font-size="12.00">Adjust Formula</text>
</g>
<!-- 1990978479712 -->
<g id="node29" class="node">
<title>1990978479712</title>
<ellipse fill="white" stroke="black" cx="1944" cy="-103" rx="27" ry="27"/>
</g>
<!-- 1990978482592&#45;&gt;1990978479712 -->
<g id="edge23" class="edge">
<title>1990978482592&#45;&gt;1990978479712</title>
<path fill="none" stroke="black" d="M1881.27,-100.67C1889.26,-100.97 1897.53,-101.29 1905.31,-101.58"/>
<polygon fill="black" stroke="black" points="1905.02,-105.07 1915.14,-101.95 1905.28,-98.08 1905.02,-105.07"/>
</g>
<!-- 1990978475584 -->
<g id="node11" class="node">
<title>1990978475584</title>
<polygon fill="white" stroke="black" points="1879.5,-56 1792.25,-56 1792.25,-20 1879.5,-20 1879.5,-56"/>
<text text-anchor="middle" x="1835.88" y="-32.98" font-family="Times New Roman,serif" font-size="12.00">Bottle Perfume</text>
</g>
<!-- 1990978484272 -->
<g id="node28" class="node">
<title>1990978484272</title>
<ellipse fill="white" stroke="black" cx="1944" cy="-31" rx="27" ry="27"/>
</g>
<!-- 1990978475584&#45;&gt;1990978484272 -->
<g id="edge24" class="edge">
<title>1990978475584&#45;&gt;1990978484272</title>
<path fill="none" stroke="black" d="M1879.73,-35.17C1888.26,-34.61 1897.15,-34.02 1905.48,-33.48"/>
<polygon fill="black" stroke="black" points="1905.52,-36.98 1915.27,-32.83 1905.06,-29.99 1905.52,-36.98"/>
</g>
<!-- 1990978484704 -->
<g id="node12" class="node">
<title>1990978484704</title>
<polygon fill="white" stroke="black" points="2088.25,-148 2007,-148 2007,-112 2088.25,-112 2088.25,-148"/>
<text text-anchor="middle" x="2047.62" y="-124.97" font-family="Times New Roman,serif" font-size="12.00">Mature Blend</text>
</g>
<!-- 1990978484704&#45;&gt;1990980881008 -->
<g id="edge27" class="edge">
<title>1990978484704&#45;&gt;1990980881008</title>
<path fill="none" stroke="black" d="M2006.63,-138.55C1964.58,-146.79 1896.39,-158 1836.88,-158 1305.5,-158 1305.5,-158 1305.5,-158 1248.39,-158 1182.97,-146.58 1143.14,-138.33"/>
<polygon fill="black" stroke="black" points="1143.87,-134.91 1133.36,-136.25 1142.42,-141.75 1143.87,-134.91"/>
</g>
<!-- 1990978482928 -->
<g id="node13" class="node">
<title>1990978482928</title>
<polygon fill="white" stroke="black" points="2087.5,-49 2007.75,-49 2007.75,-13 2087.5,-13 2087.5,-49"/>
<text text-anchor="middle" x="2047.62" y="-25.98" font-family="Times New Roman,serif" font-size="12.00">Label Design</text>
</g>
<!-- 1990978481296 -->
<g id="node30" class="node">
<title>1990978481296</title>
<ellipse fill="white" stroke="black" cx="2151.25" cy="-31" rx="27" ry="27"/>
</g>
<!-- 1990978482928&#45;&gt;1990978481296 -->
<g id="edge28" class="edge">
<title>1990978482928&#45;&gt;1990978481296</title>
<path fill="none" stroke="black" d="M2087.92,-31C2096.02,-31 2104.54,-31 2112.59,-31"/>
<polygon fill="black" stroke="black" points="2112.42,-34.5 2122.42,-31 2112.42,-27.5 2112.42,-34.5"/>
</g>
<!-- 1990978477648 -->
<g id="node14" class="node">
<title>1990978477648</title>
<polygon fill="white" stroke="black" points="2304.5,-49 2214.25,-49 2214.25,-13 2304.5,-13 2304.5,-49"/>
<text text-anchor="middle" x="2259.38" y="-25.98" font-family="Times New Roman,serif" font-size="12.00">Package Goods</text>
</g>
<!-- 1990978483504 -->
<g id="node31" class="node">
<title>1990978483504</title>
<ellipse fill="white" stroke="black" cx="2367.5" cy="-31" rx="27" ry="27"/>
</g>
<!-- 1990978477648&#45;&gt;1990978483504 -->
<g id="edge30" class="edge">
<title>1990978477648&#45;&gt;1990978483504</title>
<path fill="none" stroke="black" d="M2304.77,-31C2312.76,-31 2321.03,-31 2328.81,-31"/>
<polygon fill="black" stroke="black" points="2328.64,-34.5 2338.64,-31 2328.64,-27.5 2328.64,-34.5"/>
</g>
<!-- 1990978479232 -->
<g id="node15" class="node">
<title>1990978479232</title>
<polygon fill="white" stroke="black" points="2523,-49 2430.5,-49 2430.5,-13 2523,-13 2523,-49"/>
<text text-anchor="middle" x="2476.75" y="-25.98" font-family="Times New Roman,serif" font-size="12.00">Distribute Stock</text>
</g>
<!-- 1990978476640 -->
<g id="node32" class="node">
<title>1990978476640</title>
<ellipse fill="white" stroke="black" cx="2586" cy="-31" rx="27" ry="27"/>
</g>
<!-- 1990978479232&#45;&gt;1990978476640 -->
<g id="edge32" class="edge">
<title>1990978479232&#45;&gt;1990978476640</title>
<path fill="none" stroke="black" d="M2523.23,-31C2531.27,-31 2539.56,-31 2547.35,-31"/>
<polygon fill="black" stroke="black" points="2547.19,-34.5 2557.19,-31 2547.19,-27.5 2547.19,-34.5"/>
</g>
<!-- 1990978477840 -->
<g id="node16" class="node">
<title>1990978477840</title>
<polygon fill="white" stroke="black" points="2730.25,-49 2649,-49 2649,-13 2730.25,-13 2730.25,-49"/>
<text text-anchor="middle" x="2689.62" y="-25.98" font-family="Times New Roman,serif" font-size="12.00">Record Batch</text>
</g>
<!-- 1990977969744 -->
<g id="node33" class="node">
<title>1990977969744</title>
<ellipse fill="white" stroke="black" cx="2797.25" cy="-31" rx="27" ry="27"/>
<ellipse fill="none" stroke="black" cx="2797.25" cy="-31" rx="31" ry="31"/>
<text text-anchor="start" x="2780.75" y="-15.6" font-family="Times New Roman,serif" font-size="32.00">■</text>
</g>
<!-- 1990978477840&#45;&gt;1990977969744 -->
<g id="edge34" class="edge">
<title>1990978477840&#45;&gt;1990977969744</title>
<path fill="none" stroke="black" d="M2730.56,-31C2738.41,-31 2746.66,-31 2754.57,-31"/>
<polygon fill="black" stroke="black" points="2754.3,-34.5 2764.3,-31 2754.3,-27.5 2754.3,-34.5"/>
</g>
<!-- 1990977962352 -->
<g id="node17" class="node">
<title>1990977962352</title>
<ellipse fill="white" stroke="black" cx="27" cy="-130" rx="27" ry="27"/>
<text text-anchor="start" x="9.75" y="-112.7" font-family="Times New Roman,serif" font-size="34.00">●</text>
</g>
<!-- 1990977962352&#45;&gt;1990980881776 -->
<g id="edge1" class="edge">
<title>1990977962352&#45;&gt;1990980881776</title>
<path fill="none" stroke="black" d="M54.48,-130C61.76,-130 69.97,-130 78.34,-130"/>
<polygon fill="black" stroke="black" points="78.28,-133.5 88.28,-130 78.28,-126.5 78.28,-133.5"/>
</g>
<!-- 1990980884128&#45;&gt;1990980881344 -->
<g id="edge3" class="edge">
<title>1990980884128&#45;&gt;1990980881344</title>
<path fill="none" stroke="black" d="M281.83,-130C289.17,-130 297.46,-130 305.88,-130"/>
<polygon fill="black" stroke="black" points="305.84,-133.5 315.84,-130 305.84,-126.5 305.84,-133.5"/>
</g>
<!-- 1990980885424&#45;&gt;1990980890752 -->
<g id="edge7" class="edge">
<title>1990980885424&#45;&gt;1990980890752</title>
<path fill="none" stroke="black" d="M503.42,-166C512.86,-166 523.83,-166 534.57,-166"/>
<polygon fill="black" stroke="black" points="534.55,-169.5 544.55,-166 534.55,-162.5 534.55,-169.5"/>
</g>
<!-- 1990980880096&#45;&gt;1990980890608 -->
<g id="edge6" class="edge">
<title>1990980880096&#45;&gt;1990980890608</title>
<path fill="none" stroke="black" d="M503.42,-94C510.73,-94 518.95,-94 527.28,-94"/>
<polygon fill="black" stroke="black" points="527.11,-97.5 537.11,-94 527.11,-90.5 527.11,-97.5"/>
</g>
<!-- 1990978482832&#45;&gt;1990980888208 -->
<g id="edge10" class="edge">
<title>1990978482832&#45;&gt;1990980888208</title>
<path fill="none" stroke="black" d="M719.5,-157.1C727.49,-154.23 736.65,-150.93 745.77,-147.66"/>
<polygon fill="black" stroke="black" points="746.73,-151.03 754.95,-144.35 744.36,-144.44 746.73,-151.03"/>
</g>
<!-- 1990978471648&#45;&gt;1990980888208 -->
<g id="edge11" class="edge">
<title>1990978471648&#45;&gt;1990980888208</title>
<path fill="none" stroke="black" d="M719.5,-102.9C727.49,-105.77 736.65,-109.07 745.77,-112.34"/>
<polygon fill="black" stroke="black" points="744.36,-115.56 754.95,-115.65 746.73,-108.97 744.36,-115.56"/>
</g>
<!-- 1990980893488&#45;&gt;1990980878512 -->
<g id="edge13" class="edge">
<title>1990980893488&#45;&gt;1990980878512</title>
<path fill="none" stroke="black" d="M925.44,-130C932.71,-130 940.86,-130 949.03,-130"/>
<polygon fill="black" stroke="black" points="949.01,-133.5 959.01,-130 949.01,-126.5 949.01,-133.5"/>
</g>
<!-- 1990980881008&#45;&gt;1990980881440 -->
<g id="edge15" class="edge">
<title>1990980881008&#45;&gt;1990980881440</title>
<path fill="none" stroke="black" d="M1131.91,-124.02C1139.52,-122.24 1148.13,-120.23 1156.69,-118.24"/>
<polygon fill="black" stroke="black" points="1157.42,-121.66 1166.36,-115.98 1155.83,-114.84 1157.42,-121.66"/>
</g>
<!-- 1990980893680&#45;&gt;1990980884656 -->
<g id="edge17" class="edge">
<title>1990980893680&#45;&gt;1990980884656</title>
<path fill="none" stroke="black" d="M1333.79,-100.49C1341.17,-100.35 1349.48,-100.19 1357.82,-100.02"/>
<polygon fill="black" stroke="black" points="1357.71,-103.53 1367.64,-99.83 1357.57,-96.53 1357.71,-103.53"/>
</g>
<!-- 1990980887824&#45;&gt;1990980893200 -->
<g id="edge19" class="edge">
<title>1990980887824&#45;&gt;1990980893200</title>
<path fill="none" stroke="black" d="M1544.14,-95C1551.55,-95 1559.88,-95 1568.26,-95"/>
<polygon fill="black" stroke="black" points="1568.11,-98.5 1578.11,-95 1568.11,-91.5 1568.11,-98.5"/>
</g>
<!-- 1990980879232&#45;&gt;1990978482592 -->
<g id="edge22" class="edge">
<title>1990980879232&#45;&gt;1990978482592</title>
<path fill="none" stroke="black" d="M1754.98,-95.99C1762.33,-96.27 1770.6,-96.58 1778.97,-96.89"/>
<polygon fill="black" stroke="black" points="1778.72,-100.39 1788.84,-97.27 1778.98,-93.39 1778.72,-100.39"/>
</g>
<!-- 1990980879232&#45;&gt;1990978475584 -->
<g id="edge21" class="edge">
<title>1990980879232&#45;&gt;1990978475584</title>
<path fill="none" stroke="black" d="M1752.04,-82.49C1763.42,-76.38 1777.49,-68.82 1790.8,-61.67"/>
<polygon fill="black" stroke="black" points="1792.27,-64.86 1799.43,-57.04 1788.96,-58.69 1792.27,-64.86"/>
</g>
<!-- 1990978484272&#45;&gt;1990978482928 -->
<g id="edge26" class="edge">
<title>1990978484272&#45;&gt;1990978482928</title>
<path fill="none" stroke="black" d="M1971.44,-31C1978.96,-31 1987.41,-31 1995.86,-31"/>
<polygon fill="black" stroke="black" points="1995.79,-34.5 2005.79,-31 1995.79,-27.5 1995.79,-34.5"/>
</g>
<!-- 1990978479712&#45;&gt;1990978484704 -->
<g id="edge25" class="edge">
<title>1990978479712&#45;&gt;1990978484704</title>
<path fill="none" stroke="black" d="M1970.38,-109.74C1978.07,-111.79 1986.81,-114.11 1995.55,-116.43"/>
<polygon fill="black" stroke="black" points="1994.53,-119.78 2005.09,-118.97 1996.33,-113.02 1994.53,-119.78"/>
</g>
<!-- 1990978481296&#45;&gt;1990978477648 -->
<g id="edge29" class="edge">
<title>1990978481296&#45;&gt;1990978477648</title>
<path fill="none" stroke="black" d="M2178.48,-31C2185.83,-31 2194.1,-31 2202.47,-31"/>
<polygon fill="black" stroke="black" points="2202.34,-34.5 2212.34,-31 2202.34,-27.5 2202.34,-34.5"/>
</g>
<!-- 1990978483504&#45;&gt;1990978479232 -->
<g id="edge31" class="edge">
<title>1990978483504&#45;&gt;1990978479232</title>
<path fill="none" stroke="black" d="M2394.74,-31C2402.07,-31 2410.34,-31 2418.72,-31"/>
<polygon fill="black" stroke="black" points="2418.62,-34.5 2428.62,-31 2418.62,-27.5 2418.62,-34.5"/>
</g>
<!-- 1990978476640&#45;&gt;1990978477840 -->
<g id="edge33" class="edge">
<title>1990978476640&#45;&gt;1990978477840</title>
<path fill="none" stroke="black" d="M2613.44,-31C2620.71,-31 2628.86,-31 2637.03,-31"/>
<polygon fill="black" stroke="black" points="2637.01,-34.5 2647.01,-31 2637.01,-27.5 2637.01,-34.5"/>
</g>
</g>
</svg>
