<?xml version="1.0" encoding="UTF-8" standalone="no"?>
<!DOCTYPE svg PUBLIC "-//W3C//DTD SVG 1.1//EN"
 "http://www.w3.org/Graphics/SVG/1.1/DTD/svg11.dtd">
<!-- Generated by graphviz version 11.0.0 (20240428.1522)
 -->
<!-- Title: imdf_net_1754051991.8714204 Pages: 1 -->
<svg width="3124pt" height="143pt"
 viewBox="0.00 0.00 3123.75 143.00" xmlns="http://www.w3.org/2000/svg" xmlns:xlink="http://www.w3.org/1999/xlink">
<g id="graph0" class="graph" transform="scale(1 1) rotate(0) translate(4 139)">
<title>imdf_net_1754051991.8714204</title>
<polygon fill="white" stroke="none" points="-4,4 -4,-139 3119.75,-139 3119.75,4 -4,4"/>
<!-- 1990976651968 -->
<g id="node1" class="node">
<title>1990976651968</title>
<polygon fill="white" stroke="black" points="193,-82 90,-82 90,-46 193,-46 193,-82"/>
<text text-anchor="middle" x="141.5" y="-58.98" font-family="Times New Roman,serif" font-size="12.00">Quantum Forecast</text>
</g>
<!-- 1990976658496 -->
<g id="node19" class="node">
<title>1990976658496</title>
<ellipse fill="white" stroke="black" cx="256" cy="-64" rx="27" ry="27"/>
</g>
<!-- 1990976651968&#45;&gt;1990976658496 -->
<g id="edge2" class="edge">
<title>1990976651968&#45;&gt;1990976658496</title>
<path fill="none" stroke="black" d="M193.48,-64C201.5,-64 209.65,-64 217.29,-64"/>
<polygon fill="black" stroke="black" points="217.27,-67.5 227.27,-64 217.27,-60.5 217.27,-67.5"/>
</g>
<!-- 1990976651824 -->
<g id="node2" class="node">
<title>1990976651824</title>
<polygon fill="white" stroke="black" points="409.25,-82 319,-82 319,-46 409.25,-46 409.25,-82"/>
<text text-anchor="middle" x="364.12" y="-58.98" font-family="Times New Roman,serif" font-size="12.00">Demand Model</text>
</g>
<!-- 1990976667280 -->
<g id="node20" class="node">
<title>1990976667280</title>
<ellipse fill="white" stroke="black" cx="472.25" cy="-100" rx="27" ry="27"/>
</g>
<!-- 1990976651824&#45;&gt;1990976667280 -->
<g id="edge4" class="edge">
<title>1990976651824&#45;&gt;1990976667280</title>
<path fill="none" stroke="black" d="M409.52,-79.06C418.11,-81.97 427.01,-84.99 435.29,-87.8"/>
<polygon fill="black" stroke="black" points="434.08,-91.09 444.67,-90.99 436.33,-84.46 434.08,-91.09"/>
</g>
<!-- 1990975867888 -->
<g id="node21" class="node">
<title>1990975867888</title>
<ellipse fill="white" stroke="black" cx="472.25" cy="-28" rx="27" ry="27"/>
</g>
<!-- 1990976651824&#45;&gt;1990975867888 -->
<g id="edge5" class="edge">
<title>1990976651824&#45;&gt;1990975867888</title>
<path fill="none" stroke="black" d="M409.52,-48.94C418.11,-46.03 427.01,-43.01 435.29,-40.2"/>
<polygon fill="black" stroke="black" points="436.33,-43.54 444.67,-37.01 434.08,-36.91 436.33,-43.54"/>
</g>
<!-- 1990976662864 -->
<g id="node3" class="node">
<title>1990976662864</title>
<polygon fill="white" stroke="black" points="621.38,-118 540.88,-118 540.88,-82 621.38,-82 621.38,-118"/>
<text text-anchor="middle" x="581.12" y="-94.97" font-family="Times New Roman,serif" font-size="12.00">State Monitor</text>
</g>
<!-- 1990976656624 -->
<g id="node23" class="node">
<title>1990976656624</title>
<ellipse fill="white" stroke="black" cx="796.62" cy="-100" rx="27" ry="27"/>
</g>
<!-- 1990976662864&#45;&gt;1990976656624 -->
<g id="edge9" class="edge">
<title>1990976662864&#45;&gt;1990976656624</title>
<path fill="none" stroke="black" d="M621.78,-100C660.8,-100 719.92,-100 758.16,-100"/>
<polygon fill="black" stroke="black" points="757.8,-103.5 767.8,-100 757.8,-96.5 757.8,-103.5"/>
</g>
<!-- 1990975867216 -->
<g id="node4" class="node">
<title>1990975867216</title>
<polygon fill="white" stroke="black" points="627,-46 535.25,-46 535.25,-10 627,-10 627,-46"/>
<text text-anchor="middle" x="581.12" y="-22.98" font-family="Times New Roman,serif" font-size="12.00">Entangle Verify</text>
</g>
<!-- 1990975879360 -->
<g id="node22" class="node">
<title>1990975879360</title>
<ellipse fill="white" stroke="black" cx="690" cy="-28" rx="27" ry="27"/>
</g>
<!-- 1990975867216&#45;&gt;1990975879360 -->
<g id="edge8" class="edge">
<title>1990975867216&#45;&gt;1990975879360</title>
<path fill="none" stroke="black" d="M627.45,-28C635.46,-28 643.72,-28 651.48,-28"/>
<polygon fill="black" stroke="black" points="651.28,-31.5 661.28,-28 651.28,-24.5 651.28,-31.5"/>
</g>
<!-- 1990975870000 -->
<g id="node5" class="node">
<title>1990975870000</title>
<polygon fill="white" stroke="black" points="840.25,-46 753,-46 753,-10 840.25,-10 840.25,-46"/>
<text text-anchor="middle" x="796.62" y="-22.98" font-family="Times New Roman,serif" font-size="12.00">Resource Sync</text>
</g>
<!-- 1990975865968 -->
<g id="node24" class="node">
<title>1990975865968</title>
<ellipse fill="white" stroke="black" cx="903.25" cy="-28" rx="27" ry="27"/>
</g>
<!-- 1990975870000&#45;&gt;1990975865968 -->
<g id="edge12" class="edge">
<title>1990975870000&#45;&gt;1990975865968</title>
<path fill="none" stroke="black" d="M840.48,-28C848.43,-28 856.67,-28 864.45,-28"/>
<polygon fill="black" stroke="black" points="864.29,-31.5 874.29,-28 864.29,-24.5 864.29,-31.5"/>
</g>
<!-- 1990971918768 -->
<g id="node6" class="node">
<title>1990971918768</title>
<polygon fill="white" stroke="black" points="1287,-90 1204.25,-90 1204.25,-54 1287,-54 1287,-90"/>
<text text-anchor="middle" x="1245.62" y="-66.97" font-family="Times New Roman,serif" font-size="12.00">Supply Match</text>
</g>
<!-- 1990971922608 -->
<g id="node25" class="node">
<title>1990971922608</title>
<ellipse fill="white" stroke="black" cx="1350" cy="-72" rx="27" ry="27"/>
</g>
<!-- 1990971918768&#45;&gt;1990971922608 -->
<g id="edge13" class="edge">
<title>1990971918768&#45;&gt;1990971922608</title>
<path fill="none" stroke="black" d="M1287.38,-72C1295.23,-72 1303.42,-72 1311.17,-72"/>
<polygon fill="black" stroke="black" points="1310.99,-75.5 1320.99,-72 1310.99,-68.5 1310.99,-75.5"/>
</g>
<!-- 1990971919968 -->
<g id="node7" class="node">
<title>1990971919968</title>
<polygon fill="white" stroke="black" points="1512.25,-90 1413,-90 1413,-54 1512.25,-54 1512.25,-90"/>
<text text-anchor="middle" x="1462.62" y="-66.97" font-family="Times New Roman,serif" font-size="12.00">Inventory Update</text>
</g>
<!-- 1990976889792 -->
<g id="node27" class="node">
<title>1990976889792</title>
<ellipse fill="white" stroke="black" cx="1575.25" cy="-72" rx="27" ry="27"/>
</g>
<!-- 1990971919968&#45;&gt;1990976889792 -->
<g id="edge16" class="edge">
<title>1990971919968&#45;&gt;1990976889792</title>
<path fill="none" stroke="black" d="M1512.47,-72C1520.54,-72 1528.8,-72 1536.54,-72"/>
<polygon fill="black" stroke="black" points="1536.3,-75.5 1546.3,-72 1536.3,-68.5 1536.3,-75.5"/>
</g>
<!-- 1990975865104 -->
<g id="node8" class="node">
<title>1990975865104</title>
<polygon fill="white" stroke="black" points="1078.25,-55 966.25,-55 966.25,-19 1078.25,-19 1078.25,-55"/>
<text text-anchor="middle" x="1022.25" y="-31.98" font-family="Times New Roman,serif" font-size="12.00">Decoherence Check</text>
</g>
<!-- 1990975866736 -->
<g id="node26" class="node">
<title>1990975866736</title>
<ellipse fill="white" stroke="black" cx="1141.25" cy="-45" rx="27" ry="27"/>
</g>
<!-- 1990975865104&#45;&gt;1990975866736 -->
<g id="edge17" class="edge">
<title>1990975865104&#45;&gt;1990975866736</title>
<path fill="none" stroke="black" d="M1078.67,-40.79C1086.73,-41.34 1094.87,-41.9 1102.47,-42.42"/>
<polygon fill="black" stroke="black" points="1102.17,-45.9 1112.38,-43.09 1102.64,-38.92 1102.17,-45.9"/>
</g>
<!-- 1990975879408 -->
<g id="node9" class="node">
<title>1990975879408</title>
<polygon fill="white" stroke="black" points="1285.12,-36 1206.12,-36 1206.12,0 1285.12,0 1285.12,-36"/>
<text text-anchor="middle" x="1245.62" y="-12.97" font-family="Times New Roman,serif" font-size="12.00">Error Correct</text>
</g>
<!-- 1990975879408&#45;&gt;1990975865968 -->
<g id="edge21" class="edge">
<title>1990975879408&#45;&gt;1990975865968</title>
<path fill="none" stroke="black" d="M1205.65,-12.66C1151.59,-6.21 1050.93,2.34 966.25,-10 957.61,-11.26 948.49,-13.42 939.98,-15.81"/>
<polygon fill="black" stroke="black" points="939.26,-12.37 930.69,-18.6 941.27,-19.08 939.26,-12.37"/>
</g>
<!-- 1990976892672 -->
<g id="node10" class="node">
<title>1990976892672</title>
<polygon fill="white" stroke="black" points="1729.25,-90 1638.25,-90 1638.25,-54 1729.25,-54 1729.25,-90"/>
<text text-anchor="middle" x="1683.75" y="-66.97" font-family="Times New Roman,serif" font-size="12.00">Route Optimize</text>
</g>
<!-- 1990981526896 -->
<g id="node28" class="node">
<title>1990981526896</title>
<ellipse fill="white" stroke="black" cx="1792.25" cy="-72" rx="27" ry="27"/>
</g>
<!-- 1990976892672&#45;&gt;1990981526896 -->
<g id="edge22" class="edge">
<title>1990976892672&#45;&gt;1990981526896</title>
<path fill="none" stroke="black" d="M1729.61,-72C1737.61,-72 1745.87,-72 1753.65,-72"/>
<polygon fill="black" stroke="black" points="1753.46,-75.5 1763.46,-72 1753.46,-68.5 1753.46,-75.5"/>
</g>
<!-- 1990981522048 -->
<g id="node11" class="node">
<title>1990981522048</title>
<polygon fill="white" stroke="black" points="1937.25,-90 1855.25,-90 1855.25,-54 1937.25,-54 1937.25,-90"/>
<text text-anchor="middle" x="1896.25" y="-66.97" font-family="Times New Roman,serif" font-size="12.00">Load Balance</text>
</g>
<!-- 1990981523296 -->
<g id="node29" class="node">
<title>1990981523296</title>
<ellipse fill="white" stroke="black" cx="2000.25" cy="-72" rx="27" ry="27"/>
</g>
<!-- 1990981522048&#45;&gt;1990981523296 -->
<g id="edge24" class="edge">
<title>1990981522048&#45;&gt;1990981523296</title>
<path fill="none" stroke="black" d="M1937.56,-72C1945.48,-72 1953.75,-72 1961.57,-72"/>
<polygon fill="black" stroke="black" points="1961.48,-75.5 1971.48,-72 1961.48,-68.5 1961.48,-75.5"/>
</g>
<!-- 1990981528192 -->
<g id="node12" class="node">
<title>1990981528192</title>
<polygon fill="white" stroke="black" points="2163.25,-90 2063.25,-90 2063.25,-54 2163.25,-54 2163.25,-90"/>
<text text-anchor="middle" x="2113.25" y="-66.97" font-family="Times New Roman,serif" font-size="12.00">Shipment Encode</text>
</g>
<!-- 1990981518256 -->
<g id="node30" class="node">
<title>1990981518256</title>
<ellipse fill="white" stroke="black" cx="2226.25" cy="-72" rx="27" ry="27"/>
</g>
<!-- 1990981528192&#45;&gt;1990981518256 -->
<g id="edge26" class="edge">
<title>1990981528192&#45;&gt;1990981518256</title>
<path fill="none" stroke="black" d="M2163.58,-72C2171.66,-72 2179.91,-72 2187.64,-72"/>
<polygon fill="black" stroke="black" points="2187.37,-75.5 2197.37,-72 2187.37,-68.5 2187.37,-75.5"/>
</g>
<!-- 1990981519840 -->
<g id="node13" class="node">
<title>1990981519840</title>
<polygon fill="white" stroke="black" points="2368.25,-90 2289.25,-90 2289.25,-54 2368.25,-54 2368.25,-90"/>
<text text-anchor="middle" x="2328.75" y="-66.97" font-family="Times New Roman,serif" font-size="12.00">Data Encrypt</text>
</g>
<!-- 1990981527568 -->
<g id="node31" class="node">
<title>1990981527568</title>
<ellipse fill="white" stroke="black" cx="2431.25" cy="-72" rx="27" ry="27"/>
</g>
<!-- 1990981519840&#45;&gt;1990981527568 -->
<g id="edge28" class="edge">
<title>1990981519840&#45;&gt;1990981527568</title>
<path fill="none" stroke="black" d="M2368.61,-72C2376.46,-72 2384.7,-72 2392.51,-72"/>
<polygon fill="black" stroke="black" points="2392.41,-75.5 2402.41,-72 2392.41,-68.5 2392.41,-75.5"/>
</g>
<!-- 1990981522528 -->
<g id="node14" class="node">
<title>1990981522528</title>
<polygon fill="white" stroke="black" points="2569.5,-90 2494.25,-90 2494.25,-54 2569.5,-54 2569.5,-90"/>
<text text-anchor="middle" x="2531.88" y="-66.97" font-family="Times New Roman,serif" font-size="12.00">Fragile Pack</text>
</g>
<!-- 1990981524784 -->
<g id="node32" class="node">
<title>1990981524784</title>
<ellipse fill="white" stroke="black" cx="2632.5" cy="-108" rx="27" ry="27"/>
</g>
<!-- 1990981522528&#45;&gt;1990981524784 -->
<g id="edge30" class="edge">
<title>1990981522528&#45;&gt;1990981524784</title>
<path fill="none" stroke="black" d="M2569.88,-85.51C2578.39,-88.61 2587.43,-91.91 2595.88,-95"/>
<polygon fill="black" stroke="black" points="2594.55,-98.24 2605.14,-98.38 2596.95,-91.66 2594.55,-98.24"/>
</g>
<!-- 1990981533664 -->
<g id="node33" class="node">
<title>1990981533664</title>
<ellipse fill="white" stroke="black" cx="2632.5" cy="-36" rx="27" ry="27"/>
</g>
<!-- 1990981522528&#45;&gt;1990981533664 -->
<g id="edge31" class="edge">
<title>1990981522528&#45;&gt;1990981533664</title>
<path fill="none" stroke="black" d="M2569.88,-58.49C2578.39,-55.39 2587.43,-52.09 2595.88,-49"/>
<polygon fill="black" stroke="black" points="2596.95,-52.34 2605.14,-45.62 2594.55,-45.76 2596.95,-52.34"/>
</g>
<!-- 1990981530256 -->
<g id="node15" class="node">
<title>1990981530256</title>
<polygon fill="white" stroke="black" points="2783.5,-54 2703.75,-54 2703.75,-18 2783.5,-18 2783.5,-54"/>
<text text-anchor="middle" x="2743.62" y="-30.98" font-family="Times New Roman,serif" font-size="12.00">Transit Track</text>
</g>
<!-- 1990981519360 -->
<g id="node34" class="node">
<title>1990981519360</title>
<ellipse fill="white" stroke="black" cx="2854.75" cy="-36" rx="27" ry="27"/>
</g>
<!-- 1990981530256&#45;&gt;1990981519360 -->
<g id="edge34" class="edge">
<title>1990981530256&#45;&gt;1990981519360</title>
<path fill="none" stroke="black" d="M2783.71,-36C2794.29,-36 2805.71,-36 2816.2,-36"/>
<polygon fill="black" stroke="black" points="2816.04,-39.5 2826.04,-36 2816.04,-32.5 2816.04,-39.5"/>
</g>
<!-- 1990981517968 -->
<g id="node16" class="node">
<title>1990981517968</title>
<polygon fill="white" stroke="black" points="2791.75,-126 2695.5,-126 2695.5,-90 2791.75,-90 2791.75,-126"/>
<text text-anchor="middle" x="2743.62" y="-102.97" font-family="Times New Roman,serif" font-size="12.00">Node Consensus</text>
</g>
<!-- 1990981520992 -->
<g id="node35" class="node">
<title>1990981520992</title>
<ellipse fill="white" stroke="black" cx="2854.75" cy="-108" rx="27" ry="27"/>
</g>
<!-- 1990981517968&#45;&gt;1990981520992 -->
<g id="edge35" class="edge">
<title>1990981517968&#45;&gt;1990981520992</title>
<path fill="none" stroke="black" d="M2792.17,-108C2800.09,-108 2808.2,-108 2815.84,-108"/>
<polygon fill="black" stroke="black" points="2815.83,-111.5 2825.83,-108 2815.83,-104.5 2815.83,-111.5"/>
</g>
<!-- 1990981533232 -->
<g id="node17" class="node">
<title>1990981533232</title>
<polygon fill="white" stroke="black" points="3017.75,-90 2917.75,-90 2917.75,-54 3017.75,-54 3017.75,-90"/>
<text text-anchor="middle" x="2967.75" y="-66.97" font-family="Times New Roman,serif" font-size="12.00">Delivery Confirm</text>
</g>
<!-- 1990971031680 -->
<g id="node36" class="node">
<title>1990971031680</title>
<ellipse fill="white" stroke="black" cx="3084.75" cy="-72" rx="27" ry="27"/>
<ellipse fill="none" stroke="black" cx="3084.75" cy="-72" rx="31" ry="31"/>
<text text-anchor="start" x="3068.25" y="-56.6" font-family="Times New Roman,serif" font-size="32.00">■</text>
</g>
<!-- 1990981533232&#45;&gt;1990971031680 -->
<g id="edge38" class="edge">
<title>1990981533232&#45;&gt;1990971031680</title>
<path fill="none" stroke="black" d="M3018.19,-72C3026.11,-72 3034.24,-72 3041.97,-72"/>
<polygon fill="black" stroke="black" points="3041.78,-75.5 3051.78,-72 3041.78,-68.5 3041.78,-75.5"/>
</g>
<!-- 1990971046320 -->
<g id="node18" class="node">
<title>1990971046320</title>
<ellipse fill="white" stroke="black" cx="27" cy="-64" rx="27" ry="27"/>
<text text-anchor="start" x="9.75" y="-46.7" font-family="Times New Roman,serif" font-size="34.00">●</text>
</g>
<!-- 1990971046320&#45;&gt;1990976651968 -->
<g id="edge1" class="edge">
<title>1990971046320&#45;&gt;1990976651968</title>
<path fill="none" stroke="black" d="M54.38,-64C61.61,-64 69.77,-64 78.11,-64"/>
<polygon fill="black" stroke="black" points="78.02,-67.5 88.02,-64 78.02,-60.5 78.02,-67.5"/>
</g>
<!-- 1990976658496&#45;&gt;1990976651824 -->
<g id="edge3" class="edge">
<title>1990976658496&#45;&gt;1990976651824</title>
<path fill="none" stroke="black" d="M283.23,-64C290.58,-64 298.85,-64 307.22,-64"/>
<polygon fill="black" stroke="black" points="307.09,-67.5 317.09,-64 307.09,-60.5 307.09,-67.5"/>
</g>
<!-- 1990976667280&#45;&gt;1990976662864 -->
<g id="edge7" class="edge">
<title>1990976667280&#45;&gt;1990976662864</title>
<path fill="none" stroke="black" d="M499.67,-100C508.65,-100 519.02,-100 529.25,-100"/>
<polygon fill="black" stroke="black" points="529.17,-103.5 539.17,-100 529.17,-96.5 529.17,-103.5"/>
</g>
<!-- 1990975867888&#45;&gt;1990975867216 -->
<g id="edge6" class="edge">
<title>1990975867888&#45;&gt;1990975867216</title>
<path fill="none" stroke="black" d="M499.67,-28C506.98,-28 515.2,-28 523.53,-28"/>
<polygon fill="black" stroke="black" points="523.36,-31.5 533.36,-28 523.36,-24.5 523.36,-31.5"/>
</g>
<!-- 1990975879360&#45;&gt;1990975870000 -->
<g id="edge10" class="edge">
<title>1990975879360&#45;&gt;1990975870000</title>
<path fill="none" stroke="black" d="M717.4,-28C724.73,-28 732.96,-28 741.26,-28"/>
<polygon fill="black" stroke="black" points="741.03,-31.5 751.03,-28 741.03,-24.5 741.03,-31.5"/>
</g>
<!-- 1990976656624&#45;&gt;1990971918768 -->
<g id="edge11" class="edge">
<title>1990976656624&#45;&gt;1990971918768</title>
<path fill="none" stroke="black" d="M823.73,-99.26C884.32,-97.4 1039.21,-91.9 1168.25,-81 1176.12,-80.34 1184.42,-79.5 1192.55,-78.6"/>
<polygon fill="black" stroke="black" points="1192.81,-82.1 1202.35,-77.48 1192.01,-75.14 1192.81,-82.1"/>
</g>
<!-- 1990975865968&#45;&gt;1990975865104 -->
<g id="edge15" class="edge">
<title>1990975865968&#45;&gt;1990975865104</title>
<path fill="none" stroke="black" d="M930.51,-30.02C937.82,-30.58 946.1,-31.22 954.62,-31.87"/>
<polygon fill="black" stroke="black" points="954.14,-35.35 964.38,-32.63 954.68,-28.37 954.14,-35.35"/>
</g>
<!-- 1990971922608&#45;&gt;1990971919968 -->
<g id="edge14" class="edge">
<title>1990971922608&#45;&gt;1990971919968</title>
<path fill="none" stroke="black" d="M1377.5,-72C1384.79,-72 1393.02,-72 1401.39,-72"/>
<polygon fill="black" stroke="black" points="1401.32,-75.5 1411.32,-72 1401.32,-68.5 1401.32,-75.5"/>
</g>
<!-- 1990975866736&#45;&gt;1990971918768 -->
<g id="edge18" class="edge">
<title>1990975866736&#45;&gt;1990971918768</title>
<path fill="none" stroke="black" d="M1167.82,-51.74C1175.48,-53.76 1184.18,-56.06 1192.89,-58.36"/>
<polygon fill="black" stroke="black" points="1191.84,-61.7 1202.4,-60.86 1193.62,-54.93 1191.84,-61.7"/>
</g>
<!-- 1990975866736&#45;&gt;1990975879408 -->
<g id="edge19" class="edge">
<title>1990975866736&#45;&gt;1990975879408</title>
<path fill="none" stroke="black" d="M1167.82,-38.26C1176.08,-36.08 1185.53,-33.58 1194.92,-31.11"/>
<polygon fill="black" stroke="black" points="1195.6,-34.55 1204.38,-28.61 1193.81,-27.78 1195.6,-34.55"/>
</g>
<!-- 1990976889792&#45;&gt;1990976892672 -->
<g id="edge20" class="edge">
<title>1990976889792&#45;&gt;1990976892672</title>
<path fill="none" stroke="black" d="M1602.58,-72C1609.94,-72 1618.25,-72 1626.64,-72"/>
<polygon fill="black" stroke="black" points="1626.56,-75.5 1636.56,-72 1626.56,-68.5 1626.56,-75.5"/>
</g>
<!-- 1990981526896&#45;&gt;1990981522048 -->
<g id="edge23" class="edge">
<title>1990981526896&#45;&gt;1990981522048</title>
<path fill="none" stroke="black" d="M1819.52,-72C1826.9,-72 1835.2,-72 1843.53,-72"/>
<polygon fill="black" stroke="black" points="1843.3,-75.5 1853.3,-72 1843.3,-68.5 1843.3,-75.5"/>
</g>
<!-- 1990981523296&#45;&gt;1990981528192 -->
<g id="edge25" class="edge">
<title>1990981523296&#45;&gt;1990981528192</title>
<path fill="none" stroke="black" d="M2027.56,-72C2034.87,-72 2043.13,-72 2051.56,-72"/>
<polygon fill="black" stroke="black" points="2051.56,-75.5 2061.56,-72 2051.56,-68.5 2051.56,-75.5"/>
</g>
<!-- 1990981518256&#45;&gt;1990981519840 -->
<g id="edge27" class="edge">
<title>1990981518256&#45;&gt;1990981519840</title>
<path fill="none" stroke="black" d="M2253.66,-72C2261.09,-72 2269.44,-72 2277.77,-72"/>
<polygon fill="black" stroke="black" points="2277.53,-75.5 2287.53,-72 2277.53,-68.5 2277.53,-75.5"/>
</g>
<!-- 1990981527568&#45;&gt;1990981522528 -->
<g id="edge29" class="edge">
<title>1990981527568&#45;&gt;1990981522528</title>
<path fill="none" stroke="black" d="M2458.68,-72C2466.05,-72 2474.29,-72 2482.5,-72"/>
<polygon fill="black" stroke="black" points="2482.48,-75.5 2492.48,-72 2482.48,-68.5 2482.48,-75.5"/>
</g>
<!-- 1990981524784&#45;&gt;1990981517968 -->
<g id="edge33" class="edge">
<title>1990981524784&#45;&gt;1990981517968</title>
<path fill="none" stroke="black" d="M2659.92,-108C2667.2,-108 2675.41,-108 2683.75,-108"/>
<polygon fill="black" stroke="black" points="2683.62,-111.5 2693.62,-108 2683.62,-104.5 2683.62,-111.5"/>
</g>
<!-- 1990981533664&#45;&gt;1990981530256 -->
<g id="edge32" class="edge">
<title>1990981533664&#45;&gt;1990981530256</title>
<path fill="none" stroke="black" d="M2659.92,-36C2669.65,-36 2681.04,-36 2692.19,-36"/>
<polygon fill="black" stroke="black" points="2692.14,-39.5 2702.14,-36 2692.14,-32.5 2692.14,-39.5"/>
</g>
<!-- 1990981519360&#45;&gt;1990981533232 -->
<g id="edge36" class="edge">
<title>1990981519360&#45;&gt;1990981533232</title>
<path fill="none" stroke="black" d="M2880.94,-44.17C2888.75,-46.7 2897.73,-49.61 2906.86,-52.58"/>
<polygon fill="black" stroke="black" points="2905.56,-55.83 2916.15,-55.59 2907.72,-49.18 2905.56,-55.83"/>
</g>
<!-- 1990981520992&#45;&gt;1990981533232 -->
<g id="edge37" class="edge">
<title>1990981520992&#45;&gt;1990981533232</title>
<path fill="none" stroke="black" d="M2880.94,-99.83C2888.75,-97.3 2897.73,-94.39 2906.86,-91.42"/>
<polygon fill="black" stroke="black" points="2907.72,-94.82 2916.15,-88.41 2905.56,-88.17 2907.72,-94.82"/>
</g>
</g>
</svg>
