<?xml version="1.0" encoding="UTF-8" standalone="no"?>
<!DOCTYPE svg PUBLIC "-//W3C//DTD SVG 1.1//EN"
 "http://www.w3.org/Graphics/SVG/1.1/DTD/svg11.dtd">
<!-- Generated by graphviz version 11.0.0 (20240428.1522)
 -->
<!-- Title: imdf_net_1754051991.6413167 Pages: 1 -->
<svg width="3301pt" height="313pt"
 viewBox="0.00 0.00 3301.00 313.00" xmlns="http://www.w3.org/2000/svg" xmlns:xlink="http://www.w3.org/1999/xlink">
<g id="graph0" class="graph" transform="scale(1 1) rotate(0) translate(4 309)">
<title>imdf_net_1754051991.6413167</title>
<polygon fill="white" stroke="none" points="-4,4 -4,-309 3297,-309 3297,4 -4,4"/>
<!-- 1990979046960 -->
<g id="node1" class="node">
<title>1990979046960</title>
<polygon fill="black" stroke="black" points="144,-224 90,-224 90,-188 144,-188 144,-224"/>
</g>
<!-- 1990979056032 -->
<g id="node24" class="node">
<title>1990979056032</title>
<ellipse fill="white" stroke="black" cx="207" cy="-278" rx="27" ry="27"/>
</g>
<!-- 1990979046960&#45;&gt;1990979056032 -->
<g id="edge2" class="edge">
<title>1990979046960&#45;&gt;1990979056032</title>
<path fill="none" stroke="black" d="M140.21,-224.17C151.32,-233.26 164.92,-244.39 176.87,-254.16"/>
<polygon fill="black" stroke="black" points="174.48,-256.74 184.44,-260.36 178.92,-251.32 174.48,-256.74"/>
</g>
<!-- 1990979045568 -->
<g id="node25" class="node">
<title>1990979045568</title>
<ellipse fill="white" stroke="black" cx="207" cy="-206" rx="27" ry="27"/>
</g>
<!-- 1990979046960&#45;&gt;1990979045568 -->
<g id="edge3" class="edge">
<title>1990979046960&#45;&gt;1990979045568</title>
<path fill="none" stroke="black" d="M144.4,-206C151.89,-206 160.18,-206 168.2,-206"/>
<polygon fill="black" stroke="black" points="168.1,-209.5 178.1,-206 168.1,-202.5 168.1,-209.5"/>
</g>
<!-- 1990980879040 -->
<g id="node26" class="node">
<title>1990980879040</title>
<ellipse fill="white" stroke="black" cx="207" cy="-134" rx="27" ry="27"/>
</g>
<!-- 1990979046960&#45;&gt;1990980879040 -->
<g id="edge4" class="edge">
<title>1990979046960&#45;&gt;1990980879040</title>
<path fill="none" stroke="black" d="M140.21,-187.83C151.32,-178.74 164.92,-167.61 176.87,-157.84"/>
<polygon fill="black" stroke="black" points="178.92,-160.68 184.44,-151.64 174.48,-155.26 178.92,-160.68"/>
</g>
<!-- 1990979056896 -->
<g id="node2" class="node">
<title>1990979056896</title>
<polygon fill="white" stroke="black" points="353.5,-296 270,-296 270,-260 353.5,-260 353.5,-296"/>
<text text-anchor="middle" x="311.75" y="-272.98" font-family="Times New Roman,serif" font-size="12.00">Climate Study</text>
</g>
<!-- 1990979051808 -->
<g id="node27" class="node">
<title>1990979051808</title>
<ellipse fill="white" stroke="black" cx="416.5" cy="-278" rx="27" ry="27"/>
</g>
<!-- 1990979056896&#45;&gt;1990979051808 -->
<g id="edge10" class="edge">
<title>1990979056896&#45;&gt;1990979051808</title>
<path fill="none" stroke="black" d="M353.95,-278C361.81,-278 370,-278 377.75,-278"/>
<polygon fill="black" stroke="black" points="377.55,-281.5 387.55,-278 377.55,-274.5 377.55,-281.5"/>
</g>
<!-- 1990980880768 -->
<g id="node3" class="node">
<title>1990980880768</title>
<polygon fill="white" stroke="black" points="348.25,-152 275.25,-152 275.25,-116 348.25,-116 348.25,-152"/>
<text text-anchor="middle" x="311.75" y="-128.97" font-family="Times New Roman,serif" font-size="12.00">Soil Testing</text>
</g>
<!-- 1990980892528 -->
<g id="node29" class="node">
<title>1990980892528</title>
<ellipse fill="white" stroke="black" cx="416.5" cy="-134" rx="27" ry="27"/>
</g>
<!-- 1990980880768&#45;&gt;1990980892528 -->
<g id="edge8" class="edge">
<title>1990980880768&#45;&gt;1990980892528</title>
<path fill="none" stroke="black" d="M348.69,-134C358.15,-134 368.38,-134 377.93,-134"/>
<polygon fill="black" stroke="black" points="377.62,-137.5 387.62,-134 377.62,-130.5 377.62,-137.5"/>
</g>
<!-- 1990979059536 -->
<g id="node4" class="node">
<title>1990979059536</title>
<polygon fill="white" stroke="black" points="347.12,-224 276.38,-224 276.38,-188 347.12,-188 347.12,-224"/>
<text text-anchor="middle" x="311.75" y="-200.97" font-family="Times New Roman,serif" font-size="12.00">Site Survey</text>
</g>
<!-- 1990979052528 -->
<g id="node28" class="node">
<title>1990979052528</title>
<ellipse fill="white" stroke="black" cx="416.5" cy="-206" rx="27" ry="27"/>
</g>
<!-- 1990979059536&#45;&gt;1990979052528 -->
<g id="edge9" class="edge">
<title>1990979059536&#45;&gt;1990979052528</title>
<path fill="none" stroke="black" d="M347.54,-206C357.33,-206 368.02,-206 377.97,-206"/>
<polygon fill="black" stroke="black" points="377.68,-209.5 387.68,-206 377.68,-202.5 377.68,-209.5"/>
</g>
<!-- 1990980883264 -->
<g id="node5" class="node">
<title>1990980883264</title>
<polygon fill="white" stroke="black" points="566,-224 479.5,-224 479.5,-188 566,-188 566,-224"/>
<text text-anchor="middle" x="522.75" y="-200.97" font-family="Times New Roman,serif" font-size="12.00">Design Layout</text>
</g>
<!-- 1990980884320 -->
<g id="node30" class="node">
<title>1990980884320</title>
<ellipse fill="white" stroke="black" cx="629" cy="-206" rx="27" ry="27"/>
</g>
<!-- 1990980883264&#45;&gt;1990980884320 -->
<g id="edge14" class="edge">
<title>1990980883264&#45;&gt;1990980884320</title>
<path fill="none" stroke="black" d="M566.45,-206C574.37,-206 582.59,-206 590.34,-206"/>
<polygon fill="black" stroke="black" points="590.14,-209.5 600.14,-206 590.14,-202.5 590.14,-209.5"/>
</g>
<!-- 1990978485472 -->
<g id="node6" class="node">
<title>1990978485472</title>
<polygon fill="white" stroke="black" points="792.75,-224 692,-224 692,-188 792.75,-188 792.75,-224"/>
<text text-anchor="middle" x="742.38" y="-200.97" font-family="Times New Roman,serif" font-size="12.00">Material Sourcing</text>
</g>
<!-- 1990978479904 -->
<g id="node31" class="node">
<title>1990978479904</title>
<ellipse fill="white" stroke="black" cx="855.75" cy="-206" rx="27" ry="27"/>
</g>
<!-- 1990978485472&#45;&gt;1990978479904 -->
<g id="edge16" class="edge">
<title>1990978485472&#45;&gt;1990978479904</title>
<path fill="none" stroke="black" d="M793.2,-206C801.18,-206 809.33,-206 816.97,-206"/>
<polygon fill="black" stroke="black" points="816.95,-209.5 826.95,-206 816.95,-202.5 816.95,-209.5"/>
</g>
<!-- 1990978476736 -->
<g id="node7" class="node">
<title>1990978476736</title>
<polygon fill="white" stroke="black" points="1016.5,-224 918.75,-224 918.75,-188 1016.5,-188 1016.5,-224"/>
<text text-anchor="middle" x="967.62" y="-200.97" font-family="Times New Roman,serif" font-size="12.00">Equipment Setup</text>
</g>
<!-- 1990978478512 -->
<g id="node32" class="node">
<title>1990978478512</title>
<ellipse fill="white" stroke="black" cx="1079.5" cy="-206" rx="27" ry="27"/>
</g>
<!-- 1990978476736&#45;&gt;1990978478512 -->
<g id="edge18" class="edge">
<title>1990978476736&#45;&gt;1990978478512</title>
<path fill="none" stroke="black" d="M1016.82,-206C1024.86,-206 1033.1,-206 1040.82,-206"/>
<polygon fill="black" stroke="black" points="1040.56,-209.5 1050.56,-206 1040.56,-202.5 1040.56,-209.5"/>
</g>
<!-- 1990978480912 -->
<g id="node8" class="node">
<title>1990978480912</title>
<polygon fill="white" stroke="black" points="1233.5,-224 1142.5,-224 1142.5,-188 1233.5,-188 1233.5,-224"/>
<text text-anchor="middle" x="1188" y="-200.97" font-family="Times New Roman,serif" font-size="12.00">Irrigation Install</text>
</g>
<!-- 1990978483792 -->
<g id="node33" class="node">
<title>1990978483792</title>
<ellipse fill="white" stroke="black" cx="1296.5" cy="-206" rx="27" ry="27"/>
</g>
<!-- 1990978480912&#45;&gt;1990978483792 -->
<g id="edge20" class="edge">
<title>1990978480912&#45;&gt;1990978483792</title>
<path fill="none" stroke="black" d="M1233.86,-206C1241.86,-206 1250.12,-206 1257.9,-206"/>
<polygon fill="black" stroke="black" points="1257.71,-209.5 1267.71,-206 1257.71,-202.5 1257.71,-209.5"/>
</g>
<!-- 1990978479040 -->
<g id="node9" class="node">
<title>1990978479040</title>
<polygon fill="white" stroke="black" points="1446,-224 1359.5,-224 1359.5,-188 1446,-188 1446,-224"/>
<text text-anchor="middle" x="1402.75" y="-200.97" font-family="Times New Roman,serif" font-size="12.00">Sensor Deploy</text>
</g>
<!-- 1990978483216 -->
<g id="node34" class="node">
<title>1990978483216</title>
<ellipse fill="white" stroke="black" cx="1509" cy="-206" rx="27" ry="27"/>
</g>
<!-- 1990978479040&#45;&gt;1990978483216 -->
<g id="edge22" class="edge">
<title>1990978479040&#45;&gt;1990978483216</title>
<path fill="none" stroke="black" d="M1446.45,-206C1454.37,-206 1462.59,-206 1470.34,-206"/>
<polygon fill="black" stroke="black" points="1470.14,-209.5 1480.14,-206 1470.14,-202.5 1470.14,-209.5"/>
</g>
<!-- 1990978479184 -->
<g id="node10" class="node">
<title>1990978479184</title>
<polygon fill="white" stroke="black" points="1658.5,-224 1572,-224 1572,-188 1658.5,-188 1658.5,-224"/>
<text text-anchor="middle" x="1615.25" y="-200.97" font-family="Times New Roman,serif" font-size="12.00">System Config</text>
</g>
<!-- 1990978474960 -->
<g id="node35" class="node">
<title>1990978474960</title>
<ellipse fill="white" stroke="black" cx="1721.5" cy="-206" rx="27" ry="27"/>
</g>
<!-- 1990978479184&#45;&gt;1990978474960 -->
<g id="edge24" class="edge">
<title>1990978479184&#45;&gt;1990978474960</title>
<path fill="none" stroke="black" d="M1658.95,-206C1666.87,-206 1675.09,-206 1682.84,-206"/>
<polygon fill="black" stroke="black" points="1682.64,-209.5 1692.64,-206 1682.64,-202.5 1682.64,-209.5"/>
</g>
<!-- 1990978474432 -->
<g id="node11" class="node">
<title>1990978474432</title>
<polygon fill="white" stroke="black" points="1866.5,-224 1784.5,-224 1784.5,-188 1866.5,-188 1866.5,-224"/>
<text text-anchor="middle" x="1825.5" y="-200.97" font-family="Times New Roman,serif" font-size="12.00">Staff Training</text>
</g>
<!-- 1990978475728 -->
<g id="node36" class="node">
<title>1990978475728</title>
<ellipse fill="white" stroke="black" cx="1929.5" cy="-206" rx="27" ry="27"/>
</g>
<!-- 1990978474432&#45;&gt;1990978475728 -->
<g id="edge26" class="edge">
<title>1990978474432&#45;&gt;1990978475728</title>
<path fill="none" stroke="black" d="M1866.81,-206C1874.73,-206 1883,-206 1890.82,-206"/>
<polygon fill="black" stroke="black" points="1890.73,-209.5 1900.73,-206 1890.73,-202.5 1890.73,-209.5"/>
</g>
<!-- 1990979048304 -->
<g id="node12" class="node">
<title>1990979048304</title>
<polygon fill="white" stroke="black" points="2074.5,-224 1992.5,-224 1992.5,-188 2074.5,-188 2074.5,-224"/>
<text text-anchor="middle" x="2033.5" y="-200.97" font-family="Times New Roman,serif" font-size="12.00">Crop Planting</text>
</g>
<!-- 1990979044704 -->
<g id="node37" class="node">
<title>1990979044704</title>
<ellipse fill="white" stroke="black" cx="2137.5" cy="-206" rx="27" ry="27"/>
</g>
<!-- 1990979048304&#45;&gt;1990979044704 -->
<g id="edge28" class="edge">
<title>1990979048304&#45;&gt;1990979044704</title>
<path fill="none" stroke="black" d="M2074.81,-206C2082.73,-206 2091,-206 2098.82,-206"/>
<polygon fill="black" stroke="black" points="2098.73,-209.5 2108.73,-206 2098.73,-202.5 2098.73,-209.5"/>
</g>
<!-- 1990981830128 -->
<g id="node13" class="node">
<title>1990981830128</title>
<polygon fill="black" stroke="black" points="2254.5,-197 2200.5,-197 2200.5,-161 2254.5,-161 2254.5,-197"/>
</g>
<!-- 1990981837136 -->
<g id="node38" class="node">
<title>1990981837136</title>
<ellipse fill="white" stroke="black" cx="2317.5" cy="-179" rx="27" ry="27"/>
</g>
<!-- 1990981830128&#45;&gt;1990981837136 -->
<g id="edge30" class="edge">
<title>1990981830128&#45;&gt;1990981837136</title>
<path fill="none" stroke="black" d="M2254.9,-179C2262.39,-179 2270.68,-179 2278.7,-179"/>
<polygon fill="black" stroke="black" points="2278.6,-182.5 2288.6,-179 2278.6,-175.5 2278.6,-182.5"/>
</g>
<!-- 1990981829216 -->
<g id="node39" class="node">
<title>1990981829216</title>
<ellipse fill="white" stroke="black" cx="2317.5" cy="-107" rx="27" ry="27"/>
</g>
<!-- 1990981830128&#45;&gt;1990981829216 -->
<g id="edge31" class="edge">
<title>1990981830128&#45;&gt;1990981829216</title>
<path fill="none" stroke="black" d="M2250.71,-160.83C2261.82,-151.74 2275.42,-140.61 2287.37,-130.84"/>
<polygon fill="black" stroke="black" points="2289.42,-133.68 2294.94,-124.64 2284.98,-128.26 2289.42,-133.68"/>
</g>
<!-- 1990981839104 -->
<g id="node14" class="node">
<title>1990981839104</title>
<polygon fill="white" stroke="black" points="2457.25,-197 2382.75,-197 2382.75,-161 2457.25,-161 2457.25,-197"/>
<text text-anchor="middle" x="2420" y="-173.97" font-family="Times New Roman,serif" font-size="12.00">Pest Control</text>
</g>
<!-- 1990981837040 -->
<g id="node41" class="node">
<title>1990981837040</title>
<ellipse fill="white" stroke="black" cx="2522.5" cy="-179" rx="27" ry="27"/>
</g>
<!-- 1990981839104&#45;&gt;1990981837040 -->
<g id="edge35" class="edge">
<title>1990981839104&#45;&gt;1990981837040</title>
<path fill="none" stroke="black" d="M2457.57,-179C2466.13,-179 2475.27,-179 2483.88,-179"/>
<polygon fill="black" stroke="black" points="2483.68,-182.5 2493.68,-179 2483.68,-175.5 2483.68,-182.5"/>
</g>
<!-- 1990981841936 -->
<g id="node15" class="node">
<title>1990981841936</title>
<polygon fill="white" stroke="black" points="2459.5,-125 2380.5,-125 2380.5,-89 2459.5,-89 2459.5,-125"/>
<text text-anchor="middle" x="2420" y="-101.97" font-family="Times New Roman,serif" font-size="12.00">Data Capture</text>
</g>
<!-- 1990981832480 -->
<g id="node40" class="node">
<title>1990981832480</title>
<ellipse fill="white" stroke="black" cx="2522.5" cy="-107" rx="27" ry="27"/>
</g>
<!-- 1990981841936&#45;&gt;1990981832480 -->
<g id="edge34" class="edge">
<title>1990981841936&#45;&gt;1990981832480</title>
<path fill="none" stroke="black" d="M2459.86,-107C2467.71,-107 2475.95,-107 2483.76,-107"/>
<polygon fill="black" stroke="black" points="2483.66,-110.5 2493.66,-107 2483.66,-103.5 2483.66,-110.5"/>
</g>
<!-- 1990981840976 -->
<g id="node16" class="node">
<title>1990981840976</title>
<polygon fill="black" stroke="black" points="2639.5,-159 2585.5,-159 2585.5,-123 2639.5,-123 2639.5,-159"/>
</g>
<!-- 1990981830368 -->
<g id="node42" class="node">
<title>1990981830368</title>
<ellipse fill="white" stroke="black" cx="2702.5" cy="-141" rx="27" ry="27"/>
</g>
<!-- 1990981840976&#45;&gt;1990981830368 -->
<g id="edge38" class="edge">
<title>1990981840976&#45;&gt;1990981830368</title>
<path fill="none" stroke="black" d="M2639.9,-141C2647.39,-141 2655.68,-141 2663.7,-141"/>
<polygon fill="black" stroke="black" points="2663.6,-144.5 2673.6,-141 2663.6,-137.5 2663.6,-144.5"/>
</g>
<!-- 1990971041472 -->
<g id="node17" class="node">
<title>1990971041472</title>
<polygon fill="white" stroke="black" points="2860.25,-179 2765.5,-179 2765.5,-143 2860.25,-143 2860.25,-179"/>
<text text-anchor="middle" x="2812.88" y="-155.97" font-family="Times New Roman,serif" font-size="12.00">Scale Expansion</text>
</g>
<!-- 1990971045600 -->
<g id="node43" class="node">
<title>1990971045600</title>
<ellipse fill="white" stroke="black" cx="2923.25" cy="-172" rx="27" ry="27"/>
</g>
<!-- 1990971041472&#45;&gt;1990971045600 -->
<g id="edge42" class="edge">
<title>1990971041472&#45;&gt;1990971045600</title>
<path fill="none" stroke="black" d="M2860.46,-165.73C2868.54,-166.55 2876.85,-167.39 2884.65,-168.18"/>
<polygon fill="black" stroke="black" points="2884.19,-171.65 2894.49,-169.18 2884.9,-164.69 2884.19,-171.65"/>
</g>
<!-- 1992857420768 -->
<g id="node18" class="node">
<title>1992857420768</title>
<polygon fill="black" stroke="black" points="2839.88,-117 2785.88,-117 2785.88,-81 2839.88,-81 2839.88,-117"/>
</g>
<!-- 1990977924432 -->
<g id="node44" class="node">
<title>1990977924432</title>
<ellipse fill="white" stroke="black" cx="2923.25" cy="-99" rx="27" ry="27"/>
</g>
<!-- 1992857420768&#45;&gt;1990977924432 -->
<g id="edge41" class="edge">
<title>1992857420768&#45;&gt;1990977924432</title>
<path fill="none" stroke="black" d="M2840.11,-99C2853.46,-99 2869.92,-99 2884.59,-99"/>
<polygon fill="black" stroke="black" points="2884.37,-102.5 2894.37,-99 2884.37,-95.5 2884.37,-102.5"/>
</g>
<!-- 1990977927888 -->
<g id="node45" class="node">
<title>1990977927888</title>
<ellipse fill="white" stroke="black" cx="2923.25" cy="-27" rx="27" ry="27"/>
</g>
<!-- 1992857420768&#45;&gt;1990977927888 -->
<g id="edge43" class="edge">
<title>1992857420768&#45;&gt;1990977927888</title>
<path fill="none" stroke="black" d="M2840.11,-81.57C2855.36,-71.44 2874.68,-58.6 2890.75,-47.93"/>
<polygon fill="black" stroke="black" points="2892.62,-50.89 2899.01,-42.44 2888.75,-45.06 2892.62,-50.89"/>
</g>
<!-- 1990977926688 -->
<g id="node19" class="node">
<title>1990977926688</title>
<polygon fill="white" stroke="black" points="3105,-45 2986.25,-45 2986.25,-9 3105,-9 3105,-45"/>
<text text-anchor="middle" x="3045.62" y="-21.98" font-family="Times New Roman,serif" font-size="12.00">Community Outreach</text>
</g>
<!-- 1990977916512 -->
<g id="node47" class="node">
<title>1990977916512</title>
<ellipse fill="white" stroke="black" cx="3172" cy="-27" rx="27" ry="27"/>
</g>
<!-- 1990977926688&#45;&gt;1990977916512 -->
<g id="edge47" class="edge">
<title>1990977926688&#45;&gt;1990977916512</title>
<path fill="none" stroke="black" d="M3105.17,-27C3114.7,-27 3124.34,-27 3133.2,-27"/>
<polygon fill="black" stroke="black" points="3133.2,-30.5 3143.2,-27 3133.2,-23.5 3133.2,-30.5"/>
</g>
<!-- 1990977924624 -->
<g id="node20" class="node">
<title>1990977924624</title>
<polygon fill="white" stroke="black" points="3086.62,-117 3004.62,-117 3004.62,-81 3086.62,-81 3086.62,-117"/>
<text text-anchor="middle" x="3045.62" y="-93.97" font-family="Times New Roman,serif" font-size="12.00">Yield Review</text>
</g>
<!-- 1990977922608 -->
<g id="node46" class="node">
<title>1990977922608</title>
<ellipse fill="white" stroke="black" cx="3172" cy="-99" rx="27" ry="27"/>
</g>
<!-- 1990977924624&#45;&gt;1990977922608 -->
<g id="edge48" class="edge">
<title>1990977924624&#45;&gt;1990977922608</title>
<path fill="none" stroke="black" d="M3087.01,-99C3101.89,-99 3118.69,-99 3133.33,-99"/>
<polygon fill="black" stroke="black" points="3133.02,-102.5 3143.02,-99 3133.02,-95.5 3133.02,-102.5"/>
</g>
<!-- 1990971043152 -->
<g id="node21" class="node">
<title>1990971043152</title>
<polygon fill="white" stroke="black" points="3084.75,-191 3006.5,-191 3006.5,-155 3084.75,-155 3084.75,-191"/>
<text text-anchor="middle" x="3045.62" y="-167.97" font-family="Times New Roman,serif" font-size="12.00">Policy Adapt</text>
</g>
<!-- 1990979050944 -->
<g id="node48" class="node">
<title>1990979050944</title>
<ellipse fill="white" stroke="black" cx="3172" cy="-175" rx="27" ry="27"/>
<ellipse fill="none" stroke="black" cx="3172" cy="-175" rx="31" ry="31"/>
<text text-anchor="start" x="3155.5" y="-159.6" font-family="Times New Roman,serif" font-size="32.00">■</text>
</g>
<!-- 1990971043152&#45;&gt;1990979050944 -->
<g id="edge49" class="edge">
<title>1990971043152&#45;&gt;1990979050944</title>
<path fill="none" stroke="black" d="M3084.96,-173.62C3099.15,-173.84 3115.3,-174.1 3129.74,-174.34"/>
<polygon fill="black" stroke="black" points="3129.32,-177.83 3139.37,-174.49 3129.43,-170.83 3129.32,-177.83"/>
</g>
<!-- 1990977926208 -->
<g id="node22" class="node">
<title>1990977926208</title>
<polygon fill="black" stroke="black" points="3293,-117 3239,-117 3239,-81 3293,-81 3293,-117"/>
</g>
<!-- 1990977926208&#45;&gt;1990979044704 -->
<g id="edge52" class="edge">
<title>1990977926208&#45;&gt;1990979044704</title>
<path fill="none" stroke="black" d="M3260.82,-117.46C3253.79,-143.86 3236.91,-191.78 3203,-215 3145.23,-254.56 3116.64,-234 3046.62,-234 2316.5,-234 2316.5,-234 2316.5,-234 2266.96,-234 2210.6,-223.29 2174.81,-215.11"/>
<polygon fill="black" stroke="black" points="2175.96,-211.79 2165.42,-212.91 2174.36,-218.6 2175.96,-211.79"/>
</g>
<!-- 1990979058336 -->
<g id="node23" class="node">
<title>1990979058336</title>
<ellipse fill="white" stroke="black" cx="27" cy="-206" rx="27" ry="27"/>
<text text-anchor="start" x="9.75" y="-188.7" font-family="Times New Roman,serif" font-size="34.00">●</text>
</g>
<!-- 1990979058336&#45;&gt;1990979046960 -->
<g id="edge1" class="edge">
<title>1990979058336&#45;&gt;1990979046960</title>
<path fill="none" stroke="black" d="M54.4,-206C61.89,-206 70.18,-206 78.2,-206"/>
<polygon fill="black" stroke="black" points="78.1,-209.5 88.1,-206 78.1,-202.5 78.1,-209.5"/>
</g>
<!-- 1990979056032&#45;&gt;1990979056896 -->
<g id="edge6" class="edge">
<title>1990979056032&#45;&gt;1990979056896</title>
<path fill="none" stroke="black" d="M234.46,-278C241.82,-278 250.08,-278 258.37,-278"/>
<polygon fill="black" stroke="black" points="258.11,-281.5 268.11,-278 258.11,-274.5 258.11,-281.5"/>
</g>
<!-- 1990979045568&#45;&gt;1990979059536 -->
<g id="edge7" class="edge">
<title>1990979045568&#45;&gt;1990979059536</title>
<path fill="none" stroke="black" d="M234.46,-206C243.71,-206 254.37,-206 264.74,-206"/>
<polygon fill="black" stroke="black" points="264.72,-209.5 274.72,-206 264.72,-202.5 264.72,-209.5"/>
</g>
<!-- 1990980879040&#45;&gt;1990980880768 -->
<g id="edge5" class="edge">
<title>1990980879040&#45;&gt;1990980880768</title>
<path fill="none" stroke="black" d="M234.46,-134C243.45,-134 253.77,-134 263.87,-134"/>
<polygon fill="black" stroke="black" points="263.57,-137.5 273.57,-134 263.57,-130.5 263.57,-137.5"/>
</g>
<!-- 1990979051808&#45;&gt;1990980883264 -->
<g id="edge12" class="edge">
<title>1990979051808&#45;&gt;1990980883264</title>
<path fill="none" stroke="black" d="M439.35,-262.91C452.8,-253.62 470.37,-241.49 485.82,-230.81"/>
<polygon fill="black" stroke="black" points="487.63,-233.82 493.87,-225.26 483.65,-228.06 487.63,-233.82"/>
</g>
<!-- 1990979052528&#45;&gt;1990980883264 -->
<g id="edge11" class="edge">
<title>1990979052528&#45;&gt;1990980883264</title>
<path fill="none" stroke="black" d="M443.81,-206C451.19,-206 459.49,-206 467.86,-206"/>
<polygon fill="black" stroke="black" points="467.71,-209.5 477.71,-206 467.71,-202.5 467.71,-209.5"/>
</g>
<!-- 1990980892528&#45;&gt;1990980883264 -->
<g id="edge13" class="edge">
<title>1990980892528&#45;&gt;1990980883264</title>
<path fill="none" stroke="black" d="M439.35,-149.09C452.8,-158.38 470.37,-170.51 485.82,-181.19"/>
<polygon fill="black" stroke="black" points="483.65,-183.94 493.87,-186.74 487.63,-178.18 483.65,-183.94"/>
</g>
<!-- 1990980884320&#45;&gt;1990978485472 -->
<g id="edge15" class="edge">
<title>1990980884320&#45;&gt;1990978485472</title>
<path fill="none" stroke="black" d="M656.39,-206C663.65,-206 671.83,-206 680.17,-206"/>
<polygon fill="black" stroke="black" points="680.07,-209.5 690.07,-206 680.07,-202.5 680.07,-209.5"/>
</g>
<!-- 1990978479904&#45;&gt;1990978476736 -->
<g id="edge17" class="edge">
<title>1990978479904&#45;&gt;1990978476736</title>
<path fill="none" stroke="black" d="M883.07,-206C890.4,-206 898.68,-206 907.1,-206"/>
<polygon fill="black" stroke="black" points="907.08,-209.5 917.08,-206 907.08,-202.5 907.08,-209.5"/>
</g>
<!-- 1990978478512&#45;&gt;1990978480912 -->
<g id="edge19" class="edge">
<title>1990978478512&#45;&gt;1990978480912</title>
<path fill="none" stroke="black" d="M1106.83,-206C1114.19,-206 1122.5,-206 1130.89,-206"/>
<polygon fill="black" stroke="black" points="1130.81,-209.5 1140.81,-206 1130.81,-202.5 1130.81,-209.5"/>
</g>
<!-- 1990978483792&#45;&gt;1990978479040 -->
<g id="edge21" class="edge">
<title>1990978483792&#45;&gt;1990978479040</title>
<path fill="none" stroke="black" d="M1323.81,-206C1331.19,-206 1339.49,-206 1347.86,-206"/>
<polygon fill="black" stroke="black" points="1347.71,-209.5 1357.71,-206 1347.71,-202.5 1347.71,-209.5"/>
</g>
<!-- 1990978483216&#45;&gt;1990978479184 -->
<g id="edge23" class="edge">
<title>1990978483216&#45;&gt;1990978479184</title>
<path fill="none" stroke="black" d="M1536.31,-206C1543.69,-206 1551.99,-206 1560.36,-206"/>
<polygon fill="black" stroke="black" points="1560.21,-209.5 1570.21,-206 1560.21,-202.5 1560.21,-209.5"/>
</g>
<!-- 1990978474960&#45;&gt;1990978474432 -->
<g id="edge25" class="edge">
<title>1990978474960&#45;&gt;1990978474432</title>
<path fill="none" stroke="black" d="M1748.77,-206C1756.15,-206 1764.45,-206 1772.78,-206"/>
<polygon fill="black" stroke="black" points="1772.55,-209.5 1782.55,-206 1772.55,-202.5 1772.55,-209.5"/>
</g>
<!-- 1990978475728&#45;&gt;1990979048304 -->
<g id="edge27" class="edge">
<title>1990978475728&#45;&gt;1990979048304</title>
<path fill="none" stroke="black" d="M1956.77,-206C1964.15,-206 1972.45,-206 1980.78,-206"/>
<polygon fill="black" stroke="black" points="1980.55,-209.5 1990.55,-206 1980.55,-202.5 1980.55,-209.5"/>
</g>
<!-- 1990979044704&#45;&gt;1990981830128 -->
<g id="edge29" class="edge">
<title>1990979044704&#45;&gt;1990981830128</title>
<path fill="none" stroke="black" d="M2163.48,-198.34C2171.56,-195.86 2180.69,-193.06 2189.45,-190.37"/>
<polygon fill="black" stroke="black" points="2190.25,-193.78 2198.78,-187.5 2188.19,-187.09 2190.25,-193.78"/>
</g>
<!-- 1990981837136&#45;&gt;1990981839104 -->
<g id="edge33" class="edge">
<title>1990981837136&#45;&gt;1990981839104</title>
<path fill="none" stroke="black" d="M2344.91,-179C2353,-179 2362.17,-179 2371.24,-179"/>
<polygon fill="black" stroke="black" points="2371.06,-182.5 2381.06,-179 2371.06,-175.5 2371.06,-182.5"/>
</g>
<!-- 1990981829216&#45;&gt;1990981841936 -->
<g id="edge32" class="edge">
<title>1990981829216&#45;&gt;1990981841936</title>
<path fill="none" stroke="black" d="M2344.91,-107C2352.34,-107 2360.69,-107 2369.02,-107"/>
<polygon fill="black" stroke="black" points="2368.78,-110.5 2378.78,-107 2368.78,-103.5 2368.78,-110.5"/>
</g>
<!-- 1990981832480&#45;&gt;1990981840976 -->
<g id="edge36" class="edge">
<title>1990981832480&#45;&gt;1990981840976</title>
<path fill="none" stroke="black" d="M2548.01,-116.47C2556.26,-119.66 2565.64,-123.28 2574.62,-126.75"/>
<polygon fill="black" stroke="black" points="2573.27,-129.98 2583.86,-130.32 2575.79,-123.45 2573.27,-129.98"/>
</g>
<!-- 1990981837040&#45;&gt;1990981840976 -->
<g id="edge37" class="edge">
<title>1990981837040&#45;&gt;1990981840976</title>
<path fill="none" stroke="black" d="M2547.55,-168.62C2555.89,-165.02 2565.44,-160.89 2574.57,-156.95"/>
<polygon fill="black" stroke="black" points="2575.82,-160.22 2583.62,-153.04 2573.05,-153.79 2575.82,-160.22"/>
</g>
<!-- 1990981830368&#45;&gt;1990971041472 -->
<g id="edge39" class="edge">
<title>1990981830368&#45;&gt;1990971041472</title>
<path fill="none" stroke="black" d="M2729.46,-145.79C2736.95,-147.17 2745.43,-148.74 2754.04,-150.33"/>
<polygon fill="black" stroke="black" points="2753.4,-153.77 2763.87,-152.14 2754.67,-146.88 2753.4,-153.77"/>
</g>
<!-- 1990981830368&#45;&gt;1992857420768 -->
<g id="edge40" class="edge">
<title>1990981830368&#45;&gt;1992857420768</title>
<path fill="none" stroke="black" d="M2728.09,-131.47C2742,-126.08 2759.65,-119.24 2775.16,-113.23"/>
<polygon fill="black" stroke="black" points="2776.02,-116.65 2784.08,-109.77 2773.49,-110.12 2776.02,-116.65"/>
</g>
<!-- 1990971045600&#45;&gt;1990971043152 -->
<g id="edge46" class="edge">
<title>1990971045600&#45;&gt;1990971043152</title>
<path fill="none" stroke="black" d="M2950.67,-172.22C2963.68,-172.33 2979.81,-172.46 2995.01,-172.59"/>
<polygon fill="black" stroke="black" points="2994.85,-176.09 3004.88,-172.67 2994.91,-169.09 2994.85,-176.09"/>
</g>
<!-- 1990977924432&#45;&gt;1990977924624 -->
<g id="edge45" class="edge">
<title>1990977924432&#45;&gt;1990977924624</title>
<path fill="none" stroke="black" d="M2950.67,-99C2963.12,-99 2978.42,-99 2993.03,-99"/>
<polygon fill="black" stroke="black" points="2993.02,-102.5 3003.02,-99 2993.02,-95.5 2993.02,-102.5"/>
</g>
<!-- 1990977927888&#45;&gt;1990977926688 -->
<g id="edge44" class="edge">
<title>1990977927888&#45;&gt;1990977926688</title>
<path fill="none" stroke="black" d="M2950.67,-27C2957.98,-27 2966.28,-27 2974.84,-27"/>
<polygon fill="black" stroke="black" points="2974.68,-30.5 2984.68,-27 2974.68,-23.5 2974.68,-30.5"/>
</g>
<!-- 1990977922608&#45;&gt;1990977926208 -->
<g id="edge51" class="edge">
<title>1990977922608&#45;&gt;1990977926208</title>
<path fill="none" stroke="black" d="M3199.12,-99C3207.96,-99 3218.01,-99 3227.55,-99"/>
<polygon fill="black" stroke="black" points="3227.3,-102.5 3237.3,-99 3227.3,-95.5 3227.3,-102.5"/>
</g>
<!-- 1990977916512&#45;&gt;1990977926208 -->
<g id="edge50" class="edge">
<title>1990977916512&#45;&gt;1990977926208</title>
<path fill="none" stroke="black" d="M3193.88,-43.34C3205.31,-52.29 3219.73,-63.57 3232.59,-73.64"/>
<polygon fill="black" stroke="black" points="3230.39,-76.36 3240.43,-79.77 3234.71,-70.85 3230.39,-76.36"/>
</g>
</g>
</svg>
