<?xml version="1.0" encoding="UTF-8" standalone="no"?>
<!DOCTYPE svg PUBLIC "-//W3C//DTD SVG 1.1//EN"
 "http://www.w3.org/Graphics/SVG/1.1/DTD/svg11.dtd">
<!-- Generated by graphviz version 11.0.0 (20240428.1522)
 -->
<!-- Title: imdf_net_1754051977.853718 Pages: 1 -->
<svg width="4066pt" height="173pt"
 viewBox="0.00 0.00 4065.75 173.00" xmlns="http://www.w3.org/2000/svg" xmlns:xlink="http://www.w3.org/1999/xlink">
<g id="graph0" class="graph" transform="scale(1 1) rotate(0) translate(4 169)">
<title>imdf_net_1754051977.853718</title>
<polygon fill="white" stroke="none" points="-4,4 -4,-169 4061.75,-169 4061.75,4 -4,4"/>
<!-- 1990981413024 -->
<g id="node1" class="node">
<title>1990981413024</title>
<polygon fill="black" stroke="black" points="144,-156 90,-156 90,-120 144,-120 144,-156"/>
</g>
<!-- 1990981416768 -->
<g id="node23" class="node">
<title>1990981416768</title>
<ellipse fill="white" stroke="black" cx="207" cy="-138" rx="27" ry="27"/>
</g>
<!-- 1990981413024&#45;&gt;1990981416768 -->
<g id="edge2" class="edge">
<title>1990981413024&#45;&gt;1990981416768</title>
<path fill="none" stroke="black" d="M144.4,-138C151.89,-138 160.18,-138 168.2,-138"/>
<polygon fill="black" stroke="black" points="168.1,-141.5 178.1,-138 168.1,-134.5 168.1,-141.5"/>
</g>
<!-- 1990982109664 -->
<g id="node2" class="node">
<title>1990982109664</title>
<polygon fill="white" stroke="black" points="354.25,-129 270,-129 270,-93 354.25,-93 354.25,-129"/>
<text text-anchor="middle" x="312.12" y="-105.97" font-family="Times New Roman,serif" font-size="12.00">Milk Sourcing</text>
</g>
<!-- 1990981415664 -->
<g id="node24" class="node">
<title>1990981415664</title>
<ellipse fill="white" stroke="black" cx="417.25" cy="-107" rx="27" ry="27"/>
</g>
<!-- 1990982109664&#45;&gt;1990981415664 -->
<g id="edge4" class="edge">
<title>1990982109664&#45;&gt;1990981415664</title>
<path fill="none" stroke="black" d="M354.48,-109.4C362.44,-109.09 370.74,-108.77 378.58,-108.46"/>
<polygon fill="black" stroke="black" points="378.65,-111.96 388.5,-108.08 378.38,-104.97 378.65,-111.96"/>
</g>
<!-- 1990981413696 -->
<g id="node3" class="node">
<title>1990981413696</title>
<polygon fill="white" stroke="black" points="571.25,-125 480.25,-125 480.25,-89 571.25,-89 571.25,-125"/>
<text text-anchor="middle" x="525.75" y="-101.97" font-family="Times New Roman,serif" font-size="12.00">Breed Selection</text>
</g>
<!-- 1990981411584 -->
<g id="node25" class="node">
<title>1990981411584</title>
<ellipse fill="white" stroke="black" cx="634.25" cy="-107" rx="27" ry="27"/>
</g>
<!-- 1990981413696&#45;&gt;1990981411584 -->
<g id="edge6" class="edge">
<title>1990981413696&#45;&gt;1990981411584</title>
<path fill="none" stroke="black" d="M571.61,-107C579.61,-107 587.87,-107 595.65,-107"/>
<polygon fill="black" stroke="black" points="595.46,-110.5 605.46,-107 595.46,-103.5 595.46,-110.5"/>
</g>
<!-- 1990976611984 -->
<g id="node4" class="node">
<title>1990976611984</title>
<polygon fill="white" stroke="black" points="789,-125 697.25,-125 697.25,-89 789,-89 789,-125"/>
<text text-anchor="middle" x="743.12" y="-101.97" font-family="Times New Roman,serif" font-size="12.00">Curd Formation</text>
</g>
<!-- 1990976605216 -->
<g id="node26" class="node">
<title>1990976605216</title>
<ellipse fill="white" stroke="black" cx="852" cy="-107" rx="27" ry="27"/>
</g>
<!-- 1990976611984&#45;&gt;1990976605216 -->
<g id="edge8" class="edge">
<title>1990976611984&#45;&gt;1990976605216</title>
<path fill="none" stroke="black" d="M789.45,-107C797.46,-107 805.72,-107 813.48,-107"/>
<polygon fill="black" stroke="black" points="813.28,-110.5 823.28,-107 813.28,-103.5 813.28,-110.5"/>
</g>
<!-- 1990976608816 -->
<g id="node5" class="node">
<title>1990976608816</title>
<polygon fill="white" stroke="black" points="1000,-125 915,-125 915,-89 1000,-89 1000,-125"/>
<text text-anchor="middle" x="957.5" y="-101.97" font-family="Times New Roman,serif" font-size="12.00">Hand Pressing</text>
</g>
<!-- 1990976607232 -->
<g id="node27" class="node">
<title>1990976607232</title>
<ellipse fill="white" stroke="black" cx="1063" cy="-107" rx="27" ry="27"/>
</g>
<!-- 1990976608816&#45;&gt;1990976607232 -->
<g id="edge10" class="edge">
<title>1990976608816&#45;&gt;1990976607232</title>
<path fill="none" stroke="black" d="M1000.3,-107C1008.2,-107 1016.42,-107 1024.18,-107"/>
<polygon fill="black" stroke="black" points="1024.01,-110.5 1034.01,-107 1024.01,-103.5 1024.01,-110.5"/>
</g>
<!-- 1990982119456 -->
<g id="node6" class="node">
<title>1990982119456</title>
<polygon fill="white" stroke="black" points="1204.25,-125 1126,-125 1126,-89 1204.25,-89 1204.25,-125"/>
<text text-anchor="middle" x="1165.12" y="-101.97" font-family="Times New Roman,serif" font-size="12.00">Salt Rubbing</text>
</g>
<!-- 1990982122624 -->
<g id="node28" class="node">
<title>1990982122624</title>
<ellipse fill="white" stroke="black" cx="1267.25" cy="-107" rx="27" ry="27"/>
</g>
<!-- 1990982119456&#45;&gt;1990982122624 -->
<g id="edge12" class="edge">
<title>1990982119456&#45;&gt;1990982122624</title>
<path fill="none" stroke="black" d="M1204.55,-107C1212.39,-107 1220.63,-107 1228.44,-107"/>
<polygon fill="black" stroke="black" points="1228.36,-110.5 1238.36,-107 1228.36,-103.5 1228.36,-110.5"/>
</g>
<!-- 1990977861008 -->
<g id="node7" class="node">
<title>1990977861008</title>
<polygon fill="white" stroke="black" points="1419,-125 1330.25,-125 1330.25,-89 1419,-89 1419,-125"/>
<text text-anchor="middle" x="1374.62" y="-101.97" font-family="Times New Roman,serif" font-size="12.00">Batch Labeling</text>
</g>
<!-- 1990977861632 -->
<g id="node29" class="node">
<title>1990977861632</title>
<ellipse fill="white" stroke="black" cx="1482" cy="-107" rx="27" ry="27"/>
</g>
<!-- 1990977861008&#45;&gt;1990977861632 -->
<g id="edge14" class="edge">
<title>1990977861008&#45;&gt;1990977861632</title>
<path fill="none" stroke="black" d="M1419.4,-107C1427.36,-107 1435.6,-107 1443.36,-107"/>
<polygon fill="black" stroke="black" points="1443.17,-110.5 1453.17,-107 1443.17,-103.5 1443.17,-110.5"/>
</g>
<!-- 1990977857792 -->
<g id="node8" class="node">
<title>1990977857792</title>
<polygon fill="white" stroke="black" points="1646.5,-125 1545,-125 1545,-89 1646.5,-89 1646.5,-125"/>
<text text-anchor="middle" x="1595.75" y="-101.97" font-family="Times New Roman,serif" font-size="12.00">Fermentation Test</text>
</g>
<!-- 1990977847952 -->
<g id="node30" class="node">
<title>1990977847952</title>
<ellipse fill="white" stroke="black" cx="1709.5" cy="-107" rx="27" ry="27"/>
</g>
<!-- 1990977857792&#45;&gt;1990977847952 -->
<g id="edge16" class="edge">
<title>1990977857792&#45;&gt;1990977847952</title>
<path fill="none" stroke="black" d="M1646.74,-107C1654.85,-107 1663.12,-107 1670.86,-107"/>
<polygon fill="black" stroke="black" points="1670.61,-110.5 1680.61,-107 1670.61,-103.5 1670.61,-110.5"/>
</g>
<!-- 1990977862208 -->
<g id="node9" class="node">
<title>1990977862208</title>
<polygon fill="white" stroke="black" points="1883.75,-125 1772.5,-125 1772.5,-89 1883.75,-89 1883.75,-125"/>
<text text-anchor="middle" x="1828.12" y="-101.97" font-family="Times New Roman,serif" font-size="12.00">Microclimate Aging</text>
</g>
<!-- 1990977856112 -->
<g id="node31" class="node">
<title>1990977856112</title>
<ellipse fill="white" stroke="black" cx="1946.75" cy="-107" rx="27" ry="27"/>
</g>
<!-- 1990977862208&#45;&gt;1990977856112 -->
<g id="edge18" class="edge">
<title>1990977862208&#45;&gt;1990977856112</title>
<path fill="none" stroke="black" d="M1884.02,-107C1892.09,-107 1900.24,-107 1907.86,-107"/>
<polygon fill="black" stroke="black" points="1907.79,-110.5 1917.79,-107 1907.79,-103.5 1907.79,-110.5"/>
</g>
<!-- 1990977849920 -->
<g id="node10" class="node">
<title>1990977849920</title>
<polygon fill="white" stroke="black" points="2113.5,-125 2009.75,-125 2009.75,-89 2113.5,-89 2113.5,-125"/>
<text text-anchor="middle" x="2061.62" y="-101.97" font-family="Times New Roman,serif" font-size="12.00">Manual Inspection</text>
</g>
<!-- 1990977851024 -->
<g id="node32" class="node">
<title>1990977851024</title>
<ellipse fill="white" stroke="black" cx="2176.5" cy="-107" rx="27" ry="27"/>
</g>
<!-- 1990977849920&#45;&gt;1990977851024 -->
<g id="edge20" class="edge">
<title>1990977849920&#45;&gt;1990977851024</title>
<path fill="none" stroke="black" d="M2113.78,-107C2121.91,-107 2130.19,-107 2137.94,-107"/>
<polygon fill="black" stroke="black" points="2137.68,-110.5 2147.68,-107 2137.68,-103.5 2137.68,-110.5"/>
</g>
<!-- 1990977848480 -->
<g id="node11" class="node">
<title>1990977848480</title>
<polygon fill="white" stroke="black" points="2330.5,-125 2239.5,-125 2239.5,-89 2330.5,-89 2330.5,-125"/>
<text text-anchor="middle" x="2285" y="-101.97" font-family="Times New Roman,serif" font-size="12.00">Flavor Profiling</text>
</g>
<!-- 1990977858944 -->
<g id="node33" class="node">
<title>1990977858944</title>
<ellipse fill="white" stroke="black" cx="2393.5" cy="-107" rx="27" ry="27"/>
</g>
<!-- 1990977848480&#45;&gt;1990977858944 -->
<g id="edge22" class="edge">
<title>1990977848480&#45;&gt;1990977858944</title>
<path fill="none" stroke="black" d="M2330.86,-107C2338.86,-107 2347.12,-107 2354.9,-107"/>
<polygon fill="black" stroke="black" points="2354.71,-110.5 2364.71,-107 2354.71,-103.5 2354.71,-110.5"/>
</g>
<!-- 1990977853088 -->
<g id="node12" class="node">
<title>1990977853088</title>
<polygon fill="white" stroke="black" points="2546.75,-125 2456.5,-125 2456.5,-89 2546.75,-89 2546.75,-125"/>
<text text-anchor="middle" x="2501.62" y="-101.97" font-family="Times New Roman,serif" font-size="12.00">Packaging Prep</text>
</g>
<!-- 1990977853040 -->
<g id="node34" class="node">
<title>1990977853040</title>
<ellipse fill="white" stroke="black" cx="2609.75" cy="-107" rx="27" ry="27"/>
</g>
<!-- 1990977853088&#45;&gt;1990977853040 -->
<g id="edge24" class="edge">
<title>1990977853088&#45;&gt;1990977853040</title>
<path fill="none" stroke="black" d="M2547.02,-107C2555.01,-107 2563.28,-107 2571.06,-107"/>
<polygon fill="black" stroke="black" points="2570.89,-110.5 2580.89,-107 2570.89,-103.5 2570.89,-110.5"/>
</g>
<!-- 1990977860576 -->
<g id="node13" class="node">
<title>1990977860576</title>
<polygon fill="white" stroke="black" points="2760,-125 2672.75,-125 2672.75,-89 2760,-89 2760,-125"/>
<text text-anchor="middle" x="2716.38" y="-101.97" font-family="Times New Roman,serif" font-size="12.00">Eco Packaging</text>
</g>
<!-- 1990977855056 -->
<g id="node35" class="node">
<title>1990977855056</title>
<ellipse fill="white" stroke="black" cx="2823" cy="-107" rx="27" ry="27"/>
</g>
<!-- 1990977860576&#45;&gt;1990977855056 -->
<g id="edge26" class="edge">
<title>1990977860576&#45;&gt;1990977855056</title>
<path fill="none" stroke="black" d="M2760.23,-107C2768.18,-107 2776.42,-107 2784.2,-107"/>
<polygon fill="black" stroke="black" points="2784.04,-110.5 2794.04,-107 2784.04,-103.5 2784.04,-110.5"/>
</g>
<!-- 1990977857408 -->
<g id="node14" class="node">
<title>1990977857408</title>
<polygon fill="white" stroke="black" points="2989.75,-125 2886,-125 2886,-89 2989.75,-89 2989.75,-125"/>
<text text-anchor="middle" x="2937.88" y="-101.97" font-family="Times New Roman,serif" font-size="12.00">Logistics Planning</text>
</g>
<!-- 1990982253552 -->
<g id="node36" class="node">
<title>1990982253552</title>
<ellipse fill="white" stroke="black" cx="3052.75" cy="-107" rx="27" ry="27"/>
</g>
<!-- 1990977857408&#45;&gt;1990982253552 -->
<g id="edge28" class="edge">
<title>1990977857408&#45;&gt;1990982253552</title>
<path fill="none" stroke="black" d="M2990.03,-107C2998.16,-107 3006.44,-107 3014.19,-107"/>
<polygon fill="black" stroke="black" points="3013.93,-110.5 3023.93,-107 3013.93,-103.5 3013.93,-110.5"/>
</g>
<!-- 1990982239152 -->
<g id="node15" class="node">
<title>1990982239152</title>
<polygon fill="white" stroke="black" points="3203.75,-125 3115.75,-125 3115.75,-89 3203.75,-89 3203.75,-125"/>
<text text-anchor="middle" x="3159.75" y="-101.97" font-family="Times New Roman,serif" font-size="12.00">Cold Transport</text>
</g>
<!-- 1990982248416 -->
<g id="node37" class="node">
<title>1990982248416</title>
<ellipse fill="white" stroke="black" cx="3266.75" cy="-107" rx="27" ry="27"/>
</g>
<!-- 1990982239152&#45;&gt;1990982248416 -->
<g id="edge30" class="edge">
<title>1990982239152&#45;&gt;1990982248416</title>
<path fill="none" stroke="black" d="M3204.06,-107C3212.02,-107 3220.26,-107 3228.03,-107"/>
<polygon fill="black" stroke="black" points="3227.85,-110.5 3237.85,-107 3227.85,-103.5 3227.85,-110.5"/>
</g>
<!-- 1990982254224 -->
<g id="node16" class="node">
<title>1990982254224</title>
<polygon fill="white" stroke="black" points="3426,-130 3338,-130 3338,-94 3426,-94 3426,-130"/>
<text text-anchor="middle" x="3382" y="-106.97" font-family="Times New Roman,serif" font-size="12.00">Retail Delivery</text>
</g>
<!-- 1990982240064 -->
<g id="node38" class="node">
<title>1990982240064</title>
<ellipse fill="white" stroke="black" cx="3497.25" cy="-80" rx="27" ry="27"/>
</g>
<!-- 1990982254224&#45;&gt;1990982240064 -->
<g id="edge33" class="edge">
<title>1990982254224&#45;&gt;1990982240064</title>
<path fill="none" stroke="black" d="M3426.46,-99.72C3437.46,-96.61 3449.15,-93.31 3459.76,-90.31"/>
<polygon fill="black" stroke="black" points="3460.64,-93.7 3469.31,-87.61 3458.73,-86.96 3460.64,-93.7"/>
</g>
<!-- 1990982252544 -->
<g id="node17" class="node">
<title>1990982252544</title>
<polygon fill="white" stroke="black" points="3434.25,-76 3329.75,-76 3329.75,-40 3434.25,-40 3434.25,-76"/>
<text text-anchor="middle" x="3382" y="-52.98" font-family="Times New Roman,serif" font-size="12.00">Chef Coordination</text>
</g>
<!-- 1990982252544&#45;&gt;1990982240064 -->
<g id="edge34" class="edge">
<title>1990982252544&#45;&gt;1990982240064</title>
<path fill="none" stroke="black" d="M3434.65,-68.03C3442.96,-69.65 3451.42,-71.29 3459.29,-72.82"/>
<polygon fill="black" stroke="black" points="3458.36,-76.2 3468.84,-74.68 3459.69,-69.33 3458.36,-76.2"/>
</g>
<!-- 1990982248320 -->
<g id="node18" class="node">
<title>1990982248320</title>
<polygon fill="black" stroke="black" points="3614.25,-98 3560.25,-98 3560.25,-62 3614.25,-62 3614.25,-98"/>
</g>
<!-- 1990981418160 -->
<g id="node39" class="node">
<title>1990981418160</title>
<ellipse fill="white" stroke="black" cx="3677.25" cy="-80" rx="27" ry="27"/>
</g>
<!-- 1990982248320&#45;&gt;1990981418160 -->
<g id="edge36" class="edge">
<title>1990982248320&#45;&gt;1990981418160</title>
<path fill="none" stroke="black" d="M3614.65,-80C3622.14,-80 3630.43,-80 3638.45,-80"/>
<polygon fill="black" stroke="black" points="3638.35,-83.5 3648.35,-80 3638.35,-76.5 3638.35,-83.5"/>
</g>
<!-- 1990981417536 -->
<g id="node19" class="node">
<title>1990981417536</title>
<polygon fill="white" stroke="black" points="3825.25,-114 3740.25,-114 3740.25,-78 3825.25,-78 3825.25,-114"/>
<text text-anchor="middle" x="3782.75" y="-90.97" font-family="Times New Roman,serif" font-size="12.00">Tasting Panels</text>
</g>
<!-- 1990981406208 -->
<g id="node40" class="node">
<title>1990981406208</title>
<ellipse fill="white" stroke="black" cx="3892.25" cy="-107" rx="27" ry="27"/>
</g>
<!-- 1990981417536&#45;&gt;1990981406208 -->
<g id="edge39" class="edge">
<title>1990981417536&#45;&gt;1990981406208</title>
<path fill="none" stroke="black" d="M3825.62,-100.28C3834.88,-101.23 3844.64,-102.23 3853.72,-103.16"/>
<polygon fill="black" stroke="black" points="3853.36,-106.64 3863.66,-104.18 3854.07,-99.68 3853.36,-106.64"/>
</g>
<!-- 1990981407552 -->
<g id="node20" class="node">
<title>1990981407552</title>
<polygon fill="black" stroke="black" points="3809.75,-54 3755.75,-54 3755.75,-18 3809.75,-18 3809.75,-54"/>
</g>
<!-- 1990981409712 -->
<g id="node41" class="node">
<title>1990981409712</title>
<ellipse fill="white" stroke="black" cx="3892.25" cy="-31" rx="27" ry="27"/>
<ellipse fill="none" stroke="black" cx="3892.25" cy="-31" rx="31" ry="31"/>
<text text-anchor="start" x="3875.75" y="-15.6" font-family="Times New Roman,serif" font-size="32.00">■</text>
</g>
<!-- 1990981407552&#45;&gt;1990981409712 -->
<g id="edge40" class="edge">
<title>1990981407552&#45;&gt;1990981409712</title>
<path fill="none" stroke="black" d="M3810.05,-34.78C3821.97,-34.22 3836.36,-33.55 3849.69,-32.93"/>
<polygon fill="black" stroke="black" points="3849.7,-36.44 3859.53,-32.48 3849.38,-29.44 3849.7,-36.44"/>
</g>
<!-- 1990980041856 -->
<g id="node21" class="node">
<title>1990980041856</title>
<polygon fill="white" stroke="black" points="4057.75,-152 3959.25,-152 3959.25,-116 4057.75,-116 4057.75,-152"/>
<text text-anchor="middle" x="4008.5" y="-128.97" font-family="Times New Roman,serif" font-size="12.00">Customer Survey</text>
</g>
<!-- 1990980041856&#45;&gt;1990981416768 -->
<g id="edge42" class="edge">
<title>1990980041856&#45;&gt;1990981416768</title>
<path fill="none" stroke="black" d="M3958.83,-143.64C3913.66,-151.74 3844.43,-162 3783.75,-162 416.25,-162 416.25,-162 416.25,-162 356,-162 286.59,-151.96 245.06,-144.87"/>
<polygon fill="black" stroke="black" points="245.81,-141.45 235.35,-143.18 244.6,-148.34 245.81,-141.45"/>
</g>
<!-- 1990981408848 -->
<g id="node22" class="node">
<title>1990981408848</title>
<ellipse fill="white" stroke="black" cx="27" cy="-138" rx="27" ry="27"/>
<text text-anchor="start" x="9.75" y="-120.7" font-family="Times New Roman,serif" font-size="34.00">●</text>
</g>
<!-- 1990981408848&#45;&gt;1990981413024 -->
<g id="edge1" class="edge">
<title>1990981408848&#45;&gt;1990981413024</title>
<path fill="none" stroke="black" d="M54.4,-138C61.89,-138 70.18,-138 78.2,-138"/>
<polygon fill="black" stroke="black" points="78.1,-141.5 88.1,-138 78.1,-134.5 78.1,-141.5"/>
</g>
<!-- 1990981416768&#45;&gt;1990982109664 -->
<g id="edge3" class="edge">
<title>1990981416768&#45;&gt;1990982109664</title>
<path fill="none" stroke="black" d="M233.49,-131.33C241.21,-129.31 249.98,-127.01 258.79,-124.7"/>
<polygon fill="black" stroke="black" points="259.62,-128.1 268.41,-122.18 257.85,-121.33 259.62,-128.1"/>
</g>
<!-- 1990981415664&#45;&gt;1990981413696 -->
<g id="edge5" class="edge">
<title>1990981415664&#45;&gt;1990981413696</title>
<path fill="none" stroke="black" d="M444.58,-107C451.94,-107 460.25,-107 468.64,-107"/>
<polygon fill="black" stroke="black" points="468.56,-110.5 478.56,-107 468.56,-103.5 468.56,-110.5"/>
</g>
<!-- 1990981411584&#45;&gt;1990976611984 -->
<g id="edge7" class="edge">
<title>1990981411584&#45;&gt;1990976611984</title>
<path fill="none" stroke="black" d="M661.67,-107C668.98,-107 677.2,-107 685.53,-107"/>
<polygon fill="black" stroke="black" points="685.36,-110.5 695.36,-107 685.36,-103.5 685.36,-110.5"/>
</g>
<!-- 1990976605216&#45;&gt;1990976608816 -->
<g id="edge9" class="edge">
<title>1990976605216&#45;&gt;1990976608816</title>
<path fill="none" stroke="black" d="M879.39,-107C886.8,-107 895.13,-107 903.51,-107"/>
<polygon fill="black" stroke="black" points="903.36,-110.5 913.36,-107 903.36,-103.5 903.36,-110.5"/>
</g>
<!-- 1990976607232&#45;&gt;1990982119456 -->
<g id="edge11" class="edge">
<title>1990976607232&#45;&gt;1990982119456</title>
<path fill="none" stroke="black" d="M1090.31,-107C1097.63,-107 1105.84,-107 1114.05,-107"/>
<polygon fill="black" stroke="black" points="1114.05,-110.5 1124.05,-107 1114.05,-103.5 1114.05,-110.5"/>
</g>
<!-- 1990982122624&#45;&gt;1990977861008 -->
<g id="edge13" class="edge">
<title>1990982122624&#45;&gt;1990977861008</title>
<path fill="none" stroke="black" d="M1294.57,-107C1301.94,-107 1310.25,-107 1318.63,-107"/>
<polygon fill="black" stroke="black" points="1318.52,-110.5 1328.52,-107 1318.52,-103.5 1318.52,-110.5"/>
</g>
<!-- 1990977861632&#45;&gt;1990977857792 -->
<g id="edge15" class="edge">
<title>1990977861632&#45;&gt;1990977857792</title>
<path fill="none" stroke="black" d="M1509.48,-107C1516.76,-107 1524.97,-107 1533.34,-107"/>
<polygon fill="black" stroke="black" points="1533.28,-110.5 1543.28,-107 1533.28,-103.5 1533.28,-110.5"/>
</g>
<!-- 1990977847952&#45;&gt;1990977862208 -->
<g id="edge17" class="edge">
<title>1990977847952&#45;&gt;1990977862208</title>
<path fill="none" stroke="black" d="M1736.96,-107C1744.17,-107 1752.32,-107 1760.69,-107"/>
<polygon fill="black" stroke="black" points="1760.67,-110.5 1770.67,-107 1760.67,-103.5 1760.67,-110.5"/>
</g>
<!-- 1990977856112&#45;&gt;1990977849920 -->
<g id="edge19" class="edge">
<title>1990977856112&#45;&gt;1990977849920</title>
<path fill="none" stroke="black" d="M1974.21,-107C1981.47,-107 1989.66,-107 1998.03,-107"/>
<polygon fill="black" stroke="black" points="1997.98,-110.5 2007.98,-107 1997.98,-103.5 1997.98,-110.5"/>
</g>
<!-- 1990977851024&#45;&gt;1990977848480 -->
<g id="edge21" class="edge">
<title>1990977851024&#45;&gt;1990977848480</title>
<path fill="none" stroke="black" d="M2203.83,-107C2211.19,-107 2219.5,-107 2227.89,-107"/>
<polygon fill="black" stroke="black" points="2227.81,-110.5 2237.81,-107 2227.81,-103.5 2227.81,-110.5"/>
</g>
<!-- 1990977858944&#45;&gt;1990977853088 -->
<g id="edge23" class="edge">
<title>1990977858944&#45;&gt;1990977853088</title>
<path fill="none" stroke="black" d="M2420.73,-107C2428.08,-107 2436.35,-107 2444.72,-107"/>
<polygon fill="black" stroke="black" points="2444.59,-110.5 2454.59,-107 2444.59,-103.5 2444.59,-110.5"/>
</g>
<!-- 1990977853040&#45;&gt;1990977860576 -->
<g id="edge25" class="edge">
<title>1990977853040&#45;&gt;1990977860576</title>
<path fill="none" stroke="black" d="M2637.15,-107C2644.48,-107 2652.71,-107 2661.01,-107"/>
<polygon fill="black" stroke="black" points="2660.78,-110.5 2670.78,-107 2660.78,-103.5 2660.78,-110.5"/>
</g>
<!-- 1990977855056&#45;&gt;1990977857408 -->
<g id="edge27" class="edge">
<title>1990977855056&#45;&gt;1990977857408</title>
<path fill="none" stroke="black" d="M2850.46,-107C2857.72,-107 2865.91,-107 2874.28,-107"/>
<polygon fill="black" stroke="black" points="2874.23,-110.5 2884.23,-107 2874.23,-103.5 2874.23,-110.5"/>
</g>
<!-- 1990982253552&#45;&gt;1990982239152 -->
<g id="edge29" class="edge">
<title>1990982253552&#45;&gt;1990982239152</title>
<path fill="none" stroke="black" d="M3080.25,-107C3087.6,-107 3095.86,-107 3104.19,-107"/>
<polygon fill="black" stroke="black" points="3104,-110.5 3114,-107 3104,-103.5 3104,-110.5"/>
</g>
<!-- 1990982248416&#45;&gt;1990982254224 -->
<g id="edge32" class="edge">
<title>1990982248416&#45;&gt;1990982254224</title>
<path fill="none" stroke="black" d="M3294.02,-108.16C3303.72,-108.59 3315.11,-109.09 3326.4,-109.59"/>
<polygon fill="black" stroke="black" points="3325.92,-113.07 3336.07,-110.02 3326.23,-106.08 3325.92,-113.07"/>
</g>
<!-- 1990982248416&#45;&gt;1990982252544 -->
<g id="edge31" class="edge">
<title>1990982248416&#45;&gt;1990982252544</title>
<path fill="none" stroke="black" d="M3292.04,-96.49C3302.61,-91.92 3315.42,-86.37 3328,-80.93"/>
<polygon fill="black" stroke="black" points="3329.28,-84.19 3337.07,-77.01 3326.5,-77.77 3329.28,-84.19"/>
</g>
<!-- 1990982240064&#45;&gt;1990982248320 -->
<g id="edge35" class="edge">
<title>1990982240064&#45;&gt;1990982248320</title>
<path fill="none" stroke="black" d="M3524.65,-80C3532.14,-80 3540.43,-80 3548.45,-80"/>
<polygon fill="black" stroke="black" points="3548.35,-83.5 3558.35,-80 3548.35,-76.5 3548.35,-83.5"/>
</g>
<!-- 1990981418160&#45;&gt;1990981417536 -->
<g id="edge38" class="edge">
<title>1990981418160&#45;&gt;1990981417536</title>
<path fill="none" stroke="black" d="M3704.37,-84.04C3711.86,-85.2 3720.32,-86.5 3728.81,-87.82"/>
<polygon fill="black" stroke="black" points="3728.02,-91.24 3738.44,-89.3 3729.09,-84.32 3728.02,-91.24"/>
</g>
<!-- 1990981418160&#45;&gt;1990981407552 -->
<g id="edge37" class="edge">
<title>1990981418160&#45;&gt;1990981407552</title>
<path fill="none" stroke="black" d="M3702.52,-69.68C3715.18,-64.3 3730.94,-57.6 3745.06,-51.6"/>
<polygon fill="black" stroke="black" points="3746.23,-54.9 3754.07,-47.77 3743.49,-48.46 3746.23,-54.9"/>
</g>
<!-- 1990981406208&#45;&gt;1990980041856 -->
<g id="edge41" class="edge">
<title>1990981406208&#45;&gt;1990980041856</title>
<path fill="none" stroke="black" d="M3918.89,-113.06C3927.59,-115.11 3937.7,-117.5 3947.92,-119.92"/>
<polygon fill="black" stroke="black" points="3946.97,-123.29 3957.51,-122.19 3948.58,-116.48 3946.97,-123.29"/>
</g>
</g>
</svg>
