<?xml version="1.0" encoding="UTF-8" standalone="no"?>
<!DOCTYPE svg PUBLIC "-//W3C//DTD SVG 1.1//EN"
 "http://www.w3.org/Graphics/SVG/1.1/DTD/svg11.dtd">
<!-- Generated by graphviz version 11.0.0 (20240428.1522)
 -->
<!-- Title: imdf_net_1754053423.4810014 Pages: 1 -->
<svg width="3839pt" height="115pt"
 viewBox="0.00 0.00 3839.00 115.00" xmlns="http://www.w3.org/2000/svg" xmlns:xlink="http://www.w3.org/1999/xlink">
<g id="graph0" class="graph" transform="scale(1 1) rotate(0) translate(4 111)">
<title>imdf_net_1754053423.4810014</title>
<polygon fill="white" stroke="none" points="-4,4 -4,-111 3835,-111 3835,4 -4,4"/>
<!-- 2892505303424 -->
<g id="node1" class="node">
<title>2892505303424</title>
<polygon fill="black" stroke="black" points="144,-80 90,-80 90,-44 144,-44 144,-80"/>
</g>
<!-- 2892505000432 -->
<g id="node21" class="node">
<title>2892505000432</title>
<ellipse fill="white" stroke="black" cx="207" cy="-62" rx="27" ry="27"/>
</g>
<!-- 2892505303424&#45;&gt;2892505000432 -->
<g id="edge2" class="edge">
<title>2892505303424&#45;&gt;2892505000432</title>
<path fill="none" stroke="black" d="M144.4,-62C151.89,-62 160.18,-62 168.2,-62"/>
<polygon fill="black" stroke="black" points="168.1,-65.5 178.1,-62 168.1,-58.5 168.1,-65.5"/>
</g>
<!-- 2892504517376 -->
<g id="node2" class="node">
<title>2892504517376</title>
<polygon fill="white" stroke="black" points="352,-57 270,-57 270,-21 352,-21 352,-57"/>
<text text-anchor="middle" x="311" y="-33.98" font-family="Times New Roman,serif" font-size="12.00">Idea Sourcing</text>
</g>
<!-- 2892509696688 -->
<g id="node22" class="node">
<title>2892509696688</title>
<ellipse fill="white" stroke="black" cx="415" cy="-34" rx="27" ry="27"/>
</g>
<!-- 2892504517376&#45;&gt;2892509696688 -->
<g id="edge4" class="edge">
<title>2892504517376&#45;&gt;2892509696688</title>
<path fill="none" stroke="black" d="M352.31,-37.02C360.23,-36.64 368.5,-36.23 376.32,-35.85"/>
<polygon fill="black" stroke="black" points="376.42,-39.35 386.23,-35.36 376.07,-32.36 376.42,-39.35"/>
</g>
<!-- 2892509707536 -->
<g id="node3" class="node">
<title>2892509707536</title>
<polygon fill="white" stroke="black" points="549.5,-48 478,-48 478,-12 549.5,-12 549.5,-48"/>
<text text-anchor="middle" x="513.75" y="-24.98" font-family="Times New Roman,serif" font-size="12.00">AI Filtering</text>
</g>
<!-- 2892509707392 -->
<g id="node23" class="node">
<title>2892509707392</title>
<ellipse fill="white" stroke="black" cx="612.5" cy="-28" rx="27" ry="27"/>
</g>
<!-- 2892509707536&#45;&gt;2892509707392 -->
<g id="edge6" class="edge">
<title>2892509707536&#45;&gt;2892509707392</title>
<path fill="none" stroke="black" d="M549.95,-29.27C557.7,-29.11 565.94,-28.94 573.79,-28.78"/>
<polygon fill="black" stroke="black" points="573.84,-32.28 583.76,-28.57 573.69,-25.28 573.84,-32.28"/>
</g>
<!-- 2892509706816 -->
<g id="node4" class="node">
<title>2892509706816</title>
<polygon fill="white" stroke="black" points="774,-45 675.5,-45 675.5,-9 774,-9 774,-45"/>
<text text-anchor="middle" x="724.75" y="-21.98" font-family="Times New Roman,serif" font-size="12.00">Community Vote</text>
</g>
<!-- 2892509697936 -->
<g id="node24" class="node">
<title>2892509697936</title>
<ellipse fill="white" stroke="black" cx="837" cy="-27" rx="27" ry="27"/>
</g>
<!-- 2892509706816&#45;&gt;2892509697936 -->
<g id="edge8" class="edge">
<title>2892509706816&#45;&gt;2892509697936</title>
<path fill="none" stroke="black" d="M774.43,-27C782.38,-27 790.51,-27 798.15,-27"/>
<polygon fill="black" stroke="black" points="798.14,-30.5 808.14,-27 798.14,-23.5 798.14,-30.5"/>
</g>
<!-- 2892509637248 -->
<g id="node5" class="node">
<title>2892509637248</title>
<polygon fill="white" stroke="black" points="987.25,-45 900,-45 900,-9 987.25,-9 987.25,-45"/>
<text text-anchor="middle" x="943.62" y="-21.98" font-family="Times New Roman,serif" font-size="12.00">Expert Review</text>
</g>
<!-- 2892509637440 -->
<g id="node25" class="node">
<title>2892509637440</title>
<ellipse fill="white" stroke="black" cx="1050.25" cy="-27" rx="27" ry="27"/>
</g>
<!-- 2892509637248&#45;&gt;2892509637440 -->
<g id="edge10" class="edge">
<title>2892509637248&#45;&gt;2892509637440</title>
<path fill="none" stroke="black" d="M987.48,-27C995.43,-27 1003.67,-27 1011.45,-27"/>
<polygon fill="black" stroke="black" points="1011.29,-30.5 1021.29,-27 1011.29,-23.5 1011.29,-30.5"/>
</g>
<!-- 2892509637872 -->
<g id="node6" class="node">
<title>2892509637872</title>
<polygon fill="white" stroke="black" points="1213.25,-45 1113.25,-45 1113.25,-9 1213.25,-9 1213.25,-45"/>
<text text-anchor="middle" x="1163.25" y="-21.98" font-family="Times New Roman,serif" font-size="12.00">Concept Refining</text>
</g>
<!-- 2892509637776 -->
<g id="node26" class="node">
<title>2892509637776</title>
<ellipse fill="white" stroke="black" cx="1276.25" cy="-27" rx="27" ry="27"/>
</g>
<!-- 2892509637872&#45;&gt;2892509637776 -->
<g id="edge12" class="edge">
<title>2892509637872&#45;&gt;2892509637776</title>
<path fill="none" stroke="black" d="M1213.58,-27C1221.66,-27 1229.91,-27 1237.64,-27"/>
<polygon fill="black" stroke="black" points="1237.37,-30.5 1247.37,-27 1237.37,-23.5 1237.37,-30.5"/>
</g>
<!-- 2892509638448 -->
<g id="node7" class="node">
<title>2892509638448</title>
<polygon fill="white" stroke="black" points="1430.25,-45 1339.25,-45 1339.25,-9 1430.25,-9 1430.25,-45"/>
<text text-anchor="middle" x="1384.75" y="-21.98" font-family="Times New Roman,serif" font-size="12.00">Prototype Build</text>
</g>
<!-- 2892509639216 -->
<g id="node27" class="node">
<title>2892509639216</title>
<ellipse fill="white" stroke="black" cx="1493.25" cy="-27" rx="27" ry="27"/>
</g>
<!-- 2892509638448&#45;&gt;2892509639216 -->
<g id="edge14" class="edge">
<title>2892509638448&#45;&gt;2892509639216</title>
<path fill="none" stroke="black" d="M1430.61,-27C1438.61,-27 1446.87,-27 1454.65,-27"/>
<polygon fill="black" stroke="black" points="1454.46,-30.5 1464.46,-27 1454.46,-23.5 1454.46,-30.5"/>
</g>
<!-- 2892509640224 -->
<g id="node8" class="node">
<title>2892509640224</title>
<polygon fill="white" stroke="black" points="1634.5,-45 1556.25,-45 1556.25,-9 1634.5,-9 1634.5,-45"/>
<text text-anchor="middle" x="1595.38" y="-21.98" font-family="Times New Roman,serif" font-size="12.00">Field Testing</text>
</g>
<!-- 2892509640272 -->
<g id="node28" class="node">
<title>2892509640272</title>
<ellipse fill="white" stroke="black" cx="1697.5" cy="-27" rx="27" ry="27"/>
</g>
<!-- 2892509640224&#45;&gt;2892509640272 -->
<g id="edge16" class="edge">
<title>2892509640224&#45;&gt;2892509640272</title>
<path fill="none" stroke="black" d="M1634.8,-27C1642.64,-27 1650.88,-27 1658.69,-27"/>
<polygon fill="black" stroke="black" points="1658.61,-30.5 1668.61,-27 1658.61,-23.5 1658.61,-30.5"/>
</g>
<!-- 2892509751312 -->
<g id="node9" class="node">
<title>2892509751312</title>
<polygon fill="white" stroke="black" points="1859,-45 1760.5,-45 1760.5,-9 1859,-9 1859,-45"/>
<text text-anchor="middle" x="1809.75" y="-21.98" font-family="Times New Roman,serif" font-size="12.00">Feedback Collect</text>
</g>
<!-- 2892509750976 -->
<g id="node29" class="node">
<title>2892509750976</title>
<ellipse fill="white" stroke="black" cx="1922" cy="-27" rx="27" ry="27"/>
</g>
<!-- 2892509751312&#45;&gt;2892509750976 -->
<g id="edge18" class="edge">
<title>2892509751312&#45;&gt;2892509750976</title>
<path fill="none" stroke="black" d="M1859.43,-27C1867.38,-27 1875.51,-27 1883.15,-27"/>
<polygon fill="black" stroke="black" points="1883.14,-30.5 1893.14,-27 1883.14,-23.5 1883.14,-30.5"/>
</g>
<!-- 2892509749200 -->
<g id="node10" class="node">
<title>2892509749200</title>
<polygon fill="white" stroke="black" points="2066.25,-49 1985,-49 1985,-13 2066.25,-13 2066.25,-49"/>
<text text-anchor="middle" x="2025.62" y="-25.98" font-family="Times New Roman,serif" font-size="12.00">Data Analyze</text>
</g>
<!-- 2892509746464 -->
<g id="node30" class="node">
<title>2892509746464</title>
<ellipse fill="white" stroke="black" cx="2129.25" cy="-33" rx="27" ry="27"/>
</g>
<!-- 2892509749200&#45;&gt;2892509746464 -->
<g id="edge20" class="edge">
<title>2892509749200&#45;&gt;2892509746464</title>
<path fill="none" stroke="black" d="M2066.5,-31.78C2074.4,-31.94 2082.67,-32.1 2090.5,-32.26"/>
<polygon fill="black" stroke="black" points="2090.36,-35.75 2100.42,-32.45 2090.5,-28.76 2090.36,-35.75"/>
</g>
<!-- 2892509745552 -->
<g id="node11" class="node">
<title>2892509745552</title>
<polygon fill="white" stroke="black" points="2274.25,-52 2192.25,-52 2192.25,-16 2274.25,-16 2274.25,-52"/>
<text text-anchor="middle" x="2233.25" y="-28.98" font-family="Times New Roman,serif" font-size="12.00">Design Iterate</text>
</g>
<!-- 2892509745696 -->
<g id="node31" class="node">
<title>2892509745696</title>
<ellipse fill="white" stroke="black" cx="2337.25" cy="-34" rx="27" ry="27"/>
</g>
<!-- 2892509745552&#45;&gt;2892509745696 -->
<g id="edge22" class="edge">
<title>2892509745552&#45;&gt;2892509745696</title>
<path fill="none" stroke="black" d="M2274.56,-34C2282.48,-34 2290.75,-34 2298.57,-34"/>
<polygon fill="black" stroke="black" points="2298.48,-37.5 2308.48,-34 2298.48,-30.5 2298.48,-37.5"/>
</g>
<!-- 2892509751984 -->
<g id="node12" class="node">
<title>2892509751984</title>
<polygon fill="white" stroke="black" points="2486,-52 2400.25,-52 2400.25,-16 2486,-16 2486,-52"/>
<text text-anchor="middle" x="2443.12" y="-28.98" font-family="Times New Roman,serif" font-size="12.00">Pivot Decision</text>
</g>
<!-- 2892509744640 -->
<g id="node32" class="node">
<title>2892509744640</title>
<ellipse fill="white" stroke="black" cx="2549" cy="-34" rx="27" ry="27"/>
</g>
<!-- 2892509751984&#45;&gt;2892509744640 -->
<g id="edge24" class="edge">
<title>2892509751984&#45;&gt;2892509744640</title>
<path fill="none" stroke="black" d="M2486.37,-34C2494.28,-34 2502.5,-34 2510.26,-34"/>
<polygon fill="black" stroke="black" points="2510.07,-37.5 2520.07,-34 2510.07,-30.5 2510.07,-37.5"/>
</g>
<!-- 2892509743008 -->
<g id="node13" class="node">
<title>2892509743008</title>
<polygon fill="white" stroke="black" points="2697,-52 2612,-52 2612,-16 2697,-16 2697,-52"/>
<text text-anchor="middle" x="2654.5" y="-28.98" font-family="Times New Roman,serif" font-size="12.00">IP Assessment</text>
</g>
<!-- 2892509741568 -->
<g id="node33" class="node">
<title>2892509741568</title>
<ellipse fill="white" stroke="black" cx="2760" cy="-34" rx="27" ry="27"/>
</g>
<!-- 2892509743008&#45;&gt;2892509741568 -->
<g id="edge26" class="edge">
<title>2892509743008&#45;&gt;2892509741568</title>
<path fill="none" stroke="black" d="M2697.3,-34C2705.2,-34 2713.42,-34 2721.18,-34"/>
<polygon fill="black" stroke="black" points="2721.01,-37.5 2731.01,-34 2721.01,-30.5 2721.01,-37.5"/>
</g>
<!-- 2892509743392 -->
<g id="node14" class="node">
<title>2892509743392</title>
<polygon fill="white" stroke="black" points="2902.75,-52 2823,-52 2823,-16 2902.75,-16 2902.75,-52"/>
<text text-anchor="middle" x="2862.88" y="-28.98" font-family="Times New Roman,serif" font-size="12.00">Partner Align</text>
</g>
<!-- 2892509753328 -->
<g id="node34" class="node">
<title>2892509753328</title>
<ellipse fill="white" stroke="black" cx="2965.75" cy="-34" rx="27" ry="27"/>
</g>
<!-- 2892509743392&#45;&gt;2892509753328 -->
<g id="edge28" class="edge">
<title>2892509743392&#45;&gt;2892509753328</title>
<path fill="none" stroke="black" d="M2903.16,-34C2911.03,-34 2919.27,-34 2927.07,-34"/>
<polygon fill="black" stroke="black" points="2926.97,-37.5 2936.97,-34 2926.97,-30.5 2926.97,-37.5"/>
</g>
<!-- 2892509753136 -->
<g id="node15" class="node">
<title>2892509753136</title>
<polygon fill="white" stroke="black" points="3109.25,-52 3028.75,-52 3028.75,-16 3109.25,-16 3109.25,-52"/>
<text text-anchor="middle" x="3069" y="-28.98" font-family="Times New Roman,serif" font-size="12.00">Scale Launch</text>
</g>
<!-- 2892509751072 -->
<g id="node35" class="node">
<title>2892509751072</title>
<ellipse fill="white" stroke="black" cx="3172.25" cy="-34" rx="27" ry="27"/>
</g>
<!-- 2892509753136&#45;&gt;2892509751072 -->
<g id="edge30" class="edge">
<title>2892509753136&#45;&gt;2892509751072</title>
<path fill="none" stroke="black" d="M3109.73,-34C3117.6,-34 3125.84,-34 3133.64,-34"/>
<polygon fill="black" stroke="black" points="3133.52,-37.5 3143.52,-34 3133.52,-30.5 3133.52,-37.5"/>
</g>
<!-- 2892509749728 -->
<g id="node16" class="node">
<title>2892509749728</title>
<polygon fill="white" stroke="black" points="3336.75,-52 3235.25,-52 3235.25,-16 3336.75,-16 3336.75,-52"/>
<text text-anchor="middle" x="3286" y="-28.98" font-family="Times New Roman,serif" font-size="12.00">Knowledge Share</text>
</g>
<!-- 2892505338496 -->
<g id="node36" class="node">
<title>2892505338496</title>
<ellipse fill="white" stroke="black" cx="3399.75" cy="-34" rx="27" ry="27"/>
</g>
<!-- 2892509749728&#45;&gt;2892505338496 -->
<g id="edge32" class="edge">
<title>2892509749728&#45;&gt;2892505338496</title>
<path fill="none" stroke="black" d="M3336.99,-34C3345.1,-34 3353.37,-34 3361.11,-34"/>
<polygon fill="black" stroke="black" points="3360.86,-37.5 3370.86,-34 3360.86,-30.5 3360.86,-37.5"/>
</g>
<!-- 2892505339456 -->
<g id="node17" class="node">
<title>2892505339456</title>
<polygon fill="white" stroke="black" points="3553,-53 3462.75,-53 3462.75,-17 3553,-17 3553,-53"/>
<text text-anchor="middle" x="3507.88" y="-29.98" font-family="Times New Roman,serif" font-size="12.00">Monitor Trends</text>
</g>
<!-- 2892505000000 -->
<g id="node37" class="node">
<title>2892505000000</title>
<ellipse fill="white" stroke="black" cx="3616" cy="-35" rx="27" ry="27"/>
</g>
<!-- 2892505339456&#45;&gt;2892505000000 -->
<g id="edge34" class="edge">
<title>2892505339456&#45;&gt;2892505000000</title>
<path fill="none" stroke="black" d="M3553.27,-35C3561.26,-35 3569.53,-35 3577.31,-35"/>
<polygon fill="black" stroke="black" points="3577.14,-38.5 3587.14,-35 3577.14,-31.5 3577.14,-38.5"/>
</g>
<!-- 2892509816896 -->
<g id="node18" class="node">
<title>2892509816896</title>
<polygon fill="black" stroke="black" points="3733,-53 3679,-53 3679,-17 3733,-17 3733,-53"/>
</g>
<!-- 2892505303376 -->
<g id="node38" class="node">
<title>2892505303376</title>
<ellipse fill="white" stroke="black" cx="3800" cy="-35" rx="27" ry="27"/>
<ellipse fill="none" stroke="black" cx="3800" cy="-35" rx="31" ry="31"/>
<text text-anchor="start" x="3783.5" y="-19.6" font-family="Times New Roman,serif" font-size="32.00">■</text>
</g>
<!-- 2892509816896&#45;&gt;2892505303376 -->
<g id="edge38" class="edge">
<title>2892509816896&#45;&gt;2892505303376</title>
<path fill="none" stroke="black" d="M3733.12,-35C3740.63,-35 3749.01,-35 3757.22,-35"/>
<polygon fill="black" stroke="black" points="3757.08,-38.5 3767.08,-35 3757.08,-31.5 3757.08,-38.5"/>
</g>
<!-- 2892509816608 -->
<g id="node19" class="node">
<title>2892509816608</title>
<polygon fill="black" stroke="black" points="3733,-107 3679,-107 3679,-71 3733,-71 3733,-107"/>
</g>
<!-- 2892509816608&#45;&gt;2892505000432 -->
<g id="edge37" class="edge">
<title>2892509816608&#45;&gt;2892505000432</title>
<path fill="none" stroke="black" d="M3678.67,-89.22C3641.03,-89.51 3569.65,-90 3508.88,-90 414,-90 414,-90 414,-90 354.41,-90 286.01,-78.36 244.94,-70.08"/>
<polygon fill="black" stroke="black" points="245.84,-66.7 235.34,-68.11 244.43,-73.55 245.84,-66.7"/>
</g>
<!-- 2892505303520 -->
<g id="node20" class="node">
<title>2892505303520</title>
<ellipse fill="white" stroke="black" cx="27" cy="-62" rx="27" ry="27"/>
<text text-anchor="start" x="9.75" y="-44.7" font-family="Times New Roman,serif" font-size="34.00">●</text>
</g>
<!-- 2892505303520&#45;&gt;2892505303424 -->
<g id="edge1" class="edge">
<title>2892505303520&#45;&gt;2892505303424</title>
<path fill="none" stroke="black" d="M54.4,-62C61.89,-62 70.18,-62 78.2,-62"/>
<polygon fill="black" stroke="black" points="78.1,-65.5 88.1,-62 78.1,-58.5 78.1,-65.5"/>
</g>
<!-- 2892505000432&#45;&gt;2892504517376 -->
<g id="edge3" class="edge">
<title>2892505000432&#45;&gt;2892504517376</title>
<path fill="none" stroke="black" d="M233.74,-56.2C241.29,-54.49 249.83,-52.57 258.39,-50.64"/>
<polygon fill="black" stroke="black" points="259.12,-54.06 268.1,-48.45 257.58,-47.23 259.12,-54.06"/>
</g>
<!-- 2892509696688&#45;&gt;2892509707536 -->
<g id="edge5" class="edge">
<title>2892509696688&#45;&gt;2892509707536</title>
<path fill="none" stroke="black" d="M442.44,-32.91C449.81,-32.6 458.06,-32.26 466.23,-31.92"/>
<polygon fill="black" stroke="black" points="466.27,-35.42 476.12,-31.51 465.98,-28.43 466.27,-35.42"/>
</g>
<!-- 2892509707392&#45;&gt;2892509706816 -->
<g id="edge7" class="edge">
<title>2892509707392&#45;&gt;2892509706816</title>
<path fill="none" stroke="black" d="M639.91,-27.76C647.18,-27.69 655.37,-27.62 663.72,-27.54"/>
<polygon fill="black" stroke="black" points="663.64,-31.05 673.61,-27.45 663.58,-24.05 663.64,-31.05"/>
</g>
<!-- 2892509697936&#45;&gt;2892509637248 -->
<g id="edge9" class="edge">
<title>2892509697936&#45;&gt;2892509637248</title>
<path fill="none" stroke="black" d="M864.4,-27C871.73,-27 879.96,-27 888.26,-27"/>
<polygon fill="black" stroke="black" points="888.03,-30.5 898.03,-27 888.03,-23.5 888.03,-30.5"/>
</g>
<!-- 2892509637440&#45;&gt;2892509637872 -->
<g id="edge11" class="edge">
<title>2892509637440&#45;&gt;2892509637872</title>
<path fill="none" stroke="black" d="M1077.56,-27C1084.87,-27 1093.13,-27 1101.56,-27"/>
<polygon fill="black" stroke="black" points="1101.56,-30.5 1111.56,-27 1101.56,-23.5 1101.56,-30.5"/>
</g>
<!-- 2892509637776&#45;&gt;2892509638448 -->
<g id="edge13" class="edge">
<title>2892509637776&#45;&gt;2892509638448</title>
<path fill="none" stroke="black" d="M1303.58,-27C1310.94,-27 1319.25,-27 1327.64,-27"/>
<polygon fill="black" stroke="black" points="1327.56,-30.5 1337.56,-27 1327.56,-23.5 1327.56,-30.5"/>
</g>
<!-- 2892509639216&#45;&gt;2892509640224 -->
<g id="edge15" class="edge">
<title>2892509639216&#45;&gt;2892509640224</title>
<path fill="none" stroke="black" d="M1520.56,-27C1527.88,-27 1536.09,-27 1544.3,-27"/>
<polygon fill="black" stroke="black" points="1544.3,-30.5 1554.3,-27 1544.3,-23.5 1544.3,-30.5"/>
</g>
<!-- 2892509640272&#45;&gt;2892509751312 -->
<g id="edge17" class="edge">
<title>2892509640272&#45;&gt;2892509751312</title>
<path fill="none" stroke="black" d="M1724.91,-27C1732.18,-27 1740.37,-27 1748.72,-27"/>
<polygon fill="black" stroke="black" points="1748.61,-30.5 1758.61,-27 1748.61,-23.5 1748.61,-30.5"/>
</g>
<!-- 2892509750976&#45;&gt;2892509749200 -->
<g id="edge19" class="edge">
<title>2892509750976&#45;&gt;2892509749200</title>
<path fill="none" stroke="black" d="M1949.44,-28.04C1956.71,-28.33 1964.86,-28.65 1973.03,-28.97"/>
<polygon fill="black" stroke="black" points="1972.88,-32.47 1983.01,-29.36 1973.16,-25.47 1972.88,-32.47"/>
</g>
<!-- 2892509746464&#45;&gt;2892509745552 -->
<g id="edge21" class="edge">
<title>2892509746464&#45;&gt;2892509745552</title>
<path fill="none" stroke="black" d="M2156.52,-33.26C2163.9,-33.33 2172.2,-33.41 2180.53,-33.49"/>
<polygon fill="black" stroke="black" points="2180.26,-36.99 2190.3,-33.59 2180.33,-29.99 2180.26,-36.99"/>
</g>
<!-- 2892509745696&#45;&gt;2892509751984 -->
<g id="edge23" class="edge">
<title>2892509745696&#45;&gt;2892509751984</title>
<path fill="none" stroke="black" d="M2364.73,-34C2372.09,-34 2380.35,-34 2388.66,-34"/>
<polygon fill="black" stroke="black" points="2388.44,-37.5 2398.44,-34 2388.44,-30.5 2388.44,-37.5"/>
</g>
<!-- 2892509744640&#45;&gt;2892509743008 -->
<g id="edge25" class="edge">
<title>2892509744640&#45;&gt;2892509743008</title>
<path fill="none" stroke="black" d="M2576.39,-34C2583.8,-34 2592.13,-34 2600.51,-34"/>
<polygon fill="black" stroke="black" points="2600.36,-37.5 2610.36,-34 2600.36,-30.5 2600.36,-37.5"/>
</g>
<!-- 2892509741568&#45;&gt;2892509743392 -->
<g id="edge27" class="edge">
<title>2892509741568&#45;&gt;2892509743392</title>
<path fill="none" stroke="black" d="M2787.24,-34C2794.71,-34 2803.1,-34 2811.49,-34"/>
<polygon fill="black" stroke="black" points="2811.33,-37.5 2821.33,-34 2811.33,-30.5 2811.33,-37.5"/>
</g>
<!-- 2892509753328&#45;&gt;2892509753136 -->
<g id="edge29" class="edge">
<title>2892509753328&#45;&gt;2892509753136</title>
<path fill="none" stroke="black" d="M2993.09,-34C3000.5,-34 3008.82,-34 3017.15,-34"/>
<polygon fill="black" stroke="black" points="3016.92,-37.5 3026.92,-34 3016.92,-30.5 3016.92,-37.5"/>
</g>
<!-- 2892509751072&#45;&gt;2892509749728 -->
<g id="edge31" class="edge">
<title>2892509751072&#45;&gt;2892509749728</title>
<path fill="none" stroke="black" d="M3199.73,-34C3207.01,-34 3215.22,-34 3223.59,-34"/>
<polygon fill="black" stroke="black" points="3223.53,-37.5 3233.53,-34 3223.53,-30.5 3223.53,-37.5"/>
</g>
<!-- 2892505338496&#45;&gt;2892505339456 -->
<g id="edge33" class="edge">
<title>2892505338496&#45;&gt;2892505339456</title>
<path fill="none" stroke="black" d="M3426.98,-34.25C3434.33,-34.32 3442.6,-34.39 3450.97,-34.47"/>
<polygon fill="black" stroke="black" points="3450.81,-37.97 3460.84,-34.57 3450.88,-30.97 3450.81,-37.97"/>
</g>
<!-- 2892505000000&#45;&gt;2892509816896 -->
<g id="edge35" class="edge">
<title>2892505000000&#45;&gt;2892509816896</title>
<path fill="none" stroke="black" d="M3643.4,-35C3650.89,-35 3659.18,-35 3667.2,-35"/>
<polygon fill="black" stroke="black" points="3667.1,-38.5 3677.1,-35 3667.1,-31.5 3667.1,-38.5"/>
</g>
<!-- 2892505000000&#45;&gt;2892509816608 -->
<g id="edge36" class="edge">
<title>2892505000000&#45;&gt;2892509816608</title>
<path fill="none" stroke="black" d="M3639.66,-48.91C3648.6,-54.39 3659.09,-60.83 3669.01,-66.92"/>
<polygon fill="black" stroke="black" points="3667.03,-69.8 3677.38,-72.05 3670.69,-63.84 3667.03,-69.8"/>
</g>
</g>
</svg>
