<?xml version="1.0" encoding="UTF-8" standalone="no"?>
<!DOCTYPE svg PUBLIC "-//W3C//DTD SVG 1.1//EN"
 "http://www.w3.org/Graphics/SVG/1.1/DTD/svg11.dtd">
<!-- Generated by graphviz version 11.0.0 (20240428.1522)
 -->
<!-- Title: imdf_net_1754051998.533179 Pages: 1 -->
<svg width="3113pt" height="143pt"
 viewBox="0.00 0.00 3113.25 143.00" xmlns="http://www.w3.org/2000/svg" xmlns:xlink="http://www.w3.org/1999/xlink">
<g id="graph0" class="graph" transform="scale(1 1) rotate(0) translate(4 139)">
<title>imdf_net_1754051998.533179</title>
<polygon fill="white" stroke="none" points="-4,4 -4,-139 3109.25,-139 3109.25,4 -4,4"/>
<!-- 1990977403024 -->
<g id="node1" class="node">
<title>1990977403024</title>
<polygon fill="white" stroke="black" points="160.75,-109 90,-109 90,-73 160.75,-73 160.75,-109"/>
<text text-anchor="middle" x="125.38" y="-85.97" font-family="Times New Roman,serif" font-size="12.00">Site Survey</text>
</g>
<!-- 1990977395632 -->
<g id="node18" class="node">
<title>1990977395632</title>
<ellipse fill="white" stroke="black" cx="223.75" cy="-91" rx="27" ry="27"/>
</g>
<!-- 1990977403024&#45;&gt;1990977395632 -->
<g id="edge2" class="edge">
<title>1990977403024&#45;&gt;1990977395632</title>
<path fill="none" stroke="black" d="M161.17,-91C168.9,-91 177.14,-91 184.98,-91"/>
<polygon fill="black" stroke="black" points="184.97,-94.5 194.97,-91 184.97,-87.5 184.97,-94.5"/>
</g>
<!-- 1990981165056 -->
<g id="node2" class="node">
<title>1990981165056</title>
<polygon fill="white" stroke="black" points="380.75,-109 286.75,-109 286.75,-73 380.75,-73 380.75,-109"/>
<text text-anchor="middle" x="333.75" y="-85.97" font-family="Times New Roman,serif" font-size="12.00">Supplier Vetting</text>
</g>
<!-- 1990981164864 -->
<g id="node19" class="node">
<title>1990981164864</title>
<ellipse fill="white" stroke="black" cx="443.75" cy="-91" rx="27" ry="27"/>
</g>
<!-- 1990981165056&#45;&gt;1990981164864 -->
<g id="edge4" class="edge">
<title>1990981165056&#45;&gt;1990981164864</title>
<path fill="none" stroke="black" d="M381.18,-91C389.06,-91 397.16,-91 404.78,-91"/>
<polygon fill="black" stroke="black" points="404.77,-94.5 414.77,-91 404.77,-87.5 404.77,-94.5"/>
</g>
<!-- 1990981170288 -->
<g id="node3" class="node">
<title>1990981170288</title>
<polygon fill="white" stroke="black" points="613.5,-109 506.75,-109 506.75,-73 613.5,-73 613.5,-109"/>
<text text-anchor="middle" x="560.12" y="-85.97" font-family="Times New Roman,serif" font-size="12.00">Compliance Check</text>
</g>
<!-- 1990981168416 -->
<g id="node20" class="node">
<title>1990981168416</title>
<ellipse fill="white" stroke="black" cx="676.5" cy="-91" rx="27" ry="27"/>
</g>
<!-- 1990981170288&#45;&gt;1990981168416 -->
<g id="edge6" class="edge">
<title>1990981170288&#45;&gt;1990981168416</title>
<path fill="none" stroke="black" d="M613.96,-91C621.95,-91 630.05,-91 637.64,-91"/>
<polygon fill="black" stroke="black" points="637.54,-94.5 647.54,-91 637.54,-87.5 637.54,-94.5"/>
</g>
<!-- 1990981161456 -->
<g id="node4" class="node">
<title>1990981161456</title>
<polygon fill="white" stroke="black" points="835.75,-109 739.5,-109 739.5,-73 835.75,-73 835.75,-109"/>
<text text-anchor="middle" x="787.62" y="-85.97" font-family="Times New Roman,serif" font-size="12.00">Risk Assessment</text>
</g>
<!-- 1990981169376 -->
<g id="node21" class="node">
<title>1990981169376</title>
<ellipse fill="white" stroke="black" cx="898.75" cy="-91" rx="27" ry="27"/>
</g>
<!-- 1990981161456&#45;&gt;1990981169376 -->
<g id="edge8" class="edge">
<title>1990981161456&#45;&gt;1990981169376</title>
<path fill="none" stroke="black" d="M836.17,-91C844.09,-91 852.2,-91 859.84,-91"/>
<polygon fill="black" stroke="black" points="859.83,-94.5 869.83,-91 859.83,-87.5 859.83,-94.5"/>
</g>
<!-- 1990981160880 -->
<g id="node5" class="node">
<title>1990981160880</title>
<polygon fill="white" stroke="black" points="1051.25,-109 961.75,-109 961.75,-73 1051.25,-73 1051.25,-109"/>
<text text-anchor="middle" x="1006.5" y="-85.97" font-family="Times New Roman,serif" font-size="12.00">Sample Testing</text>
</g>
<!-- 1990977220400 -->
<g id="node22" class="node">
<title>1990977220400</title>
<ellipse fill="white" stroke="black" cx="1114.25" cy="-91" rx="27" ry="27"/>
</g>
<!-- 1990981160880&#45;&gt;1990977220400 -->
<g id="edge10" class="edge">
<title>1990981160880&#45;&gt;1990977220400</title>
<path fill="none" stroke="black" d="M1051.73,-91C1059.7,-91 1067.94,-91 1075.7,-91"/>
<polygon fill="black" stroke="black" points="1075.49,-94.5 1085.49,-91 1075.49,-87.5 1075.49,-94.5"/>
</g>
<!-- 1990977223136 -->
<g id="node6" class="node">
<title>1990977223136</title>
<polygon fill="white" stroke="black" points="1261.5,-109 1177.25,-109 1177.25,-73 1261.5,-73 1261.5,-109"/>
<text text-anchor="middle" x="1219.38" y="-85.97" font-family="Times New Roman,serif" font-size="12.00">Contract Draft</text>
</g>
<!-- 1990977217664 -->
<g id="node23" class="node">
<title>1990977217664</title>
<ellipse fill="white" stroke="black" cx="1324.5" cy="-91" rx="27" ry="27"/>
</g>
<!-- 1990977223136&#45;&gt;1990977217664 -->
<g id="edge12" class="edge">
<title>1990977223136&#45;&gt;1990977217664</title>
<path fill="none" stroke="black" d="M1261.73,-91C1269.69,-91 1277.99,-91 1285.83,-91"/>
<polygon fill="black" stroke="black" points="1285.75,-94.5 1295.75,-91 1285.75,-87.5 1285.75,-94.5"/>
</g>
<!-- 1990977210704 -->
<g id="node7" class="node">
<title>1990977210704</title>
<polygon fill="white" stroke="black" points="1475.5,-82 1387.5,-82 1387.5,-46 1475.5,-46 1475.5,-82"/>
<text text-anchor="middle" x="1431.5" y="-58.98" font-family="Times New Roman,serif" font-size="12.00">Permit Request</text>
</g>
<!-- 1990977218960 -->
<g id="node24" class="node">
<title>1990977218960</title>
<ellipse fill="white" stroke="black" cx="1538.5" cy="-63" rx="27" ry="27"/>
</g>
<!-- 1990977210704&#45;&gt;1990977218960 -->
<g id="edge14" class="edge">
<title>1990977210704&#45;&gt;1990977218960</title>
<path fill="none" stroke="black" d="M1475.81,-63.59C1483.77,-63.51 1492.01,-63.43 1499.78,-63.36"/>
<polygon fill="black" stroke="black" points="1499.64,-66.86 1509.6,-63.27 1499.57,-59.86 1499.64,-66.86"/>
</g>
<!-- 1990977212048 -->
<g id="node8" class="node">
<title>1990977212048</title>
<polygon fill="white" stroke="black" points="1696.25,-81 1613.5,-81 1613.5,-45 1696.25,-45 1696.25,-81"/>
<text text-anchor="middle" x="1654.88" y="-57.98" font-family="Times New Roman,serif" font-size="12.00">Logistics Plan</text>
</g>
<!-- 1990977217760 -->
<g id="node25" class="node">
<title>1990977217760</title>
<ellipse fill="white" stroke="black" cx="1771.25" cy="-63" rx="27" ry="27"/>
</g>
<!-- 1990977212048&#45;&gt;1990977217760 -->
<g id="edge18" class="edge">
<title>1990977212048&#45;&gt;1990977217760</title>
<path fill="none" stroke="black" d="M1696.52,-63C1708.24,-63 1720.98,-63 1732.52,-63"/>
<polygon fill="black" stroke="black" points="1732.5,-66.5 1742.5,-63 1732.5,-59.5 1732.5,-66.5"/>
</g>
<!-- 1990977218912 -->
<g id="node9" class="node">
<title>1990977218912</title>
<polygon fill="white" stroke="black" points="1708.25,-135 1601.5,-135 1601.5,-99 1708.25,-99 1708.25,-135"/>
<text text-anchor="middle" x="1654.88" y="-111.97" font-family="Times New Roman,serif" font-size="12.00">Compliance Check</text>
</g>
<!-- 1990977218912&#45;&gt;1990977217664 -->
<g id="edge17" class="edge">
<title>1990977218912&#45;&gt;1990977217664</title>
<path fill="none" stroke="black" d="M1601.03,-112.82C1534.4,-107.54 1421.54,-98.6 1363.09,-93.98"/>
<polygon fill="black" stroke="black" points="1363.57,-90.5 1353.33,-93.2 1363.02,-97.48 1363.57,-90.5"/>
</g>
<!-- 1990977079920 -->
<g id="node10" class="node">
<title>1990977079920</title>
<polygon fill="white" stroke="black" points="1931.25,-81 1834.25,-81 1834.25,-45 1931.25,-45 1931.25,-81"/>
<text text-anchor="middle" x="1882.75" y="-57.98" font-family="Times New Roman,serif" font-size="12.00">Customs Review</text>
</g>
<!-- 1990977087552 -->
<g id="node26" class="node">
<title>1990977087552</title>
<ellipse fill="white" stroke="black" cx="1994.25" cy="-63" rx="27" ry="27"/>
</g>
<!-- 1990977079920&#45;&gt;1990977087552 -->
<g id="edge20" class="edge">
<title>1990977079920&#45;&gt;1990977087552</title>
<path fill="none" stroke="black" d="M1931.46,-63C1939.57,-63 1947.9,-63 1955.7,-63"/>
<polygon fill="black" stroke="black" points="1955.54,-66.5 1965.54,-63 1955.54,-59.5 1955.54,-66.5"/>
</g>
<!-- 1990977084240 -->
<g id="node11" class="node">
<title>1990977084240</title>
<polygon fill="white" stroke="black" points="2162.5,-81 2057.25,-81 2057.25,-45 2162.5,-45 2162.5,-81"/>
<text text-anchor="middle" x="2109.88" y="-57.98" font-family="Times New Roman,serif" font-size="12.00">Shipping Schedule</text>
</g>
<!-- 1990977090336 -->
<g id="node27" class="node">
<title>1990977090336</title>
<ellipse fill="white" stroke="black" cx="2225.5" cy="-99" rx="27" ry="27"/>
</g>
<!-- 1990977084240&#45;&gt;1990977090336 -->
<g id="edge22" class="edge">
<title>1990977084240&#45;&gt;1990977090336</title>
<path fill="none" stroke="black" d="M2162.7,-79.42C2171.47,-82.2 2180.4,-85.03 2188.65,-87.64"/>
<polygon fill="black" stroke="black" points="2187.36,-90.9 2197.95,-90.59 2189.47,-84.23 2187.36,-90.9"/>
</g>
<!-- 1990977084624 -->
<g id="node28" class="node">
<title>1990977084624</title>
<ellipse fill="white" stroke="black" cx="2225.5" cy="-27" rx="27" ry="27"/>
</g>
<!-- 1990977084240&#45;&gt;1990977084624 -->
<g id="edge23" class="edge">
<title>1990977084240&#45;&gt;1990977084624</title>
<path fill="none" stroke="black" d="M2162.7,-46.58C2171.47,-43.8 2180.4,-40.97 2188.65,-38.36"/>
<polygon fill="black" stroke="black" points="2189.47,-41.77 2197.95,-35.41 2187.36,-35.1 2189.47,-41.77"/>
</g>
<!-- 1990976976320 -->
<g id="node12" class="node">
<title>1990976976320</title>
<polygon fill="white" stroke="black" points="2373.5,-117 2298.25,-117 2298.25,-81 2373.5,-81 2373.5,-117"/>
<text text-anchor="middle" x="2335.88" y="-93.97" font-family="Times New Roman,serif" font-size="12.00">Ethics Audit</text>
</g>
<!-- 1990981172112 -->
<g id="node29" class="node">
<title>1990981172112</title>
<ellipse fill="white" stroke="black" cx="2446.25" cy="-99" rx="27" ry="27"/>
</g>
<!-- 1990976976320&#45;&gt;1990981172112 -->
<g id="edge27" class="edge">
<title>1990976976320&#45;&gt;1990981172112</title>
<path fill="none" stroke="black" d="M2373.87,-99C2384.77,-99 2396.7,-99 2407.63,-99"/>
<polygon fill="black" stroke="black" points="2407.5,-102.5 2417.5,-99 2407.5,-95.5 2407.5,-102.5"/>
</g>
<!-- 1990977080304 -->
<g id="node13" class="node">
<title>1990977080304</title>
<polygon fill="white" stroke="black" points="2383.25,-45 2288.5,-45 2288.5,-9 2383.25,-9 2383.25,-45"/>
<text text-anchor="middle" x="2335.88" y="-21.98" font-family="Times New Roman,serif" font-size="12.00">Traceability Log</text>
</g>
<!-- 1990981168368 -->
<g id="node30" class="node">
<title>1990981168368</title>
<ellipse fill="white" stroke="black" cx="2446.25" cy="-27" rx="27" ry="27"/>
</g>
<!-- 1990977080304&#45;&gt;1990981168368 -->
<g id="edge26" class="edge">
<title>1990977080304&#45;&gt;1990981168368</title>
<path fill="none" stroke="black" d="M2383.46,-27C2391.54,-27 2399.85,-27 2407.65,-27"/>
<polygon fill="black" stroke="black" points="2407.48,-30.5 2417.48,-27 2407.48,-23.5 2407.48,-30.5"/>
</g>
<!-- 1990981162656 -->
<g id="node14" class="node">
<title>1990981162656</title>
<polygon fill="white" stroke="black" points="2586,-81 2509.25,-81 2509.25,-45 2586,-45 2586,-81"/>
<text text-anchor="middle" x="2547.62" y="-57.98" font-family="Times New Roman,serif" font-size="12.00">Storage Prep</text>
</g>
<!-- 1990981160256 -->
<g id="node31" class="node">
<title>1990981160256</title>
<ellipse fill="white" stroke="black" cx="2649" cy="-63" rx="27" ry="27"/>
</g>
<!-- 1990981162656&#45;&gt;1990981160256 -->
<g id="edge30" class="edge">
<title>1990981162656&#45;&gt;1990981160256</title>
<path fill="none" stroke="black" d="M2586.48,-63C2594.27,-63 2602.48,-63 2610.27,-63"/>
<polygon fill="black" stroke="black" points="2610.15,-66.5 2620.15,-63 2610.15,-59.5 2610.15,-66.5"/>
</g>
<!-- 1990981170864 -->
<g id="node15" class="node">
<title>1990981170864</title>
<polygon fill="white" stroke="black" points="2797,-81 2712,-81 2712,-45 2797,-45 2797,-81"/>
<text text-anchor="middle" x="2754.5" y="-57.98" font-family="Times New Roman,serif" font-size="12.00">Quality Verify</text>
</g>
<!-- 1990981168656 -->
<g id="node32" class="node">
<title>1990981168656</title>
<ellipse fill="white" stroke="black" cx="2860" cy="-63" rx="27" ry="27"/>
</g>
<!-- 1990981170864&#45;&gt;1990981168656 -->
<g id="edge32" class="edge">
<title>1990981170864&#45;&gt;1990981168656</title>
<path fill="none" stroke="black" d="M2797.3,-63C2805.2,-63 2813.42,-63 2821.18,-63"/>
<polygon fill="black" stroke="black" points="2821.01,-66.5 2831.01,-63 2821.01,-59.5 2821.01,-66.5"/>
</g>
<!-- 1990981167360 -->
<g id="node16" class="node">
<title>1990981167360</title>
<polygon fill="white" stroke="black" points="3007.25,-81 2923,-81 2923,-45 3007.25,-45 3007.25,-81"/>
<text text-anchor="middle" x="2965.12" y="-57.98" font-family="Times New Roman,serif" font-size="12.00">Final Delivery</text>
</g>
<!-- 1990981835312 -->
<g id="node33" class="node">
<title>1990981835312</title>
<ellipse fill="white" stroke="black" cx="3074.25" cy="-63" rx="27" ry="27"/>
<ellipse fill="none" stroke="black" cx="3074.25" cy="-63" rx="31" ry="31"/>
<text text-anchor="start" x="3057.75" y="-47.6" font-family="Times New Roman,serif" font-size="32.00">■</text>
</g>
<!-- 1990981167360&#45;&gt;1990981835312 -->
<g id="edge34" class="edge">
<title>1990981167360&#45;&gt;1990981835312</title>
<path fill="none" stroke="black" d="M3007.54,-63C3015.45,-63 3023.74,-63 3031.66,-63"/>
<polygon fill="black" stroke="black" points="3031.39,-66.5 3041.39,-63 3031.39,-59.5 3031.39,-66.5"/>
</g>
<!-- 1990981829552 -->
<g id="node17" class="node">
<title>1990981829552</title>
<ellipse fill="white" stroke="black" cx="27" cy="-91" rx="27" ry="27"/>
<text text-anchor="start" x="9.75" y="-73.7" font-family="Times New Roman,serif" font-size="34.00">●</text>
</g>
<!-- 1990981829552&#45;&gt;1990977403024 -->
<g id="edge1" class="edge">
<title>1990981829552&#45;&gt;1990977403024</title>
<path fill="none" stroke="black" d="M54.33,-91C61.76,-91 70.06,-91 78.28,-91"/>
<polygon fill="black" stroke="black" points="78.24,-94.5 88.24,-91 78.24,-87.5 78.24,-94.5"/>
</g>
<!-- 1990977395632&#45;&gt;1990981165056 -->
<g id="edge3" class="edge">
<title>1990977395632&#45;&gt;1990981165056</title>
<path fill="none" stroke="black" d="M251.17,-91C258.47,-91 266.69,-91 275.02,-91"/>
<polygon fill="black" stroke="black" points="274.88,-94.5 284.88,-91 274.88,-87.5 274.88,-94.5"/>
</g>
<!-- 1990981164864&#45;&gt;1990981170288 -->
<g id="edge5" class="edge">
<title>1990981164864&#45;&gt;1990981170288</title>
<path fill="none" stroke="black" d="M470.99,-91C478.33,-91 486.64,-91 495.15,-91"/>
<polygon fill="black" stroke="black" points="494.88,-94.5 504.88,-91 494.88,-87.5 494.88,-94.5"/>
</g>
<!-- 1990981168416&#45;&gt;1990981161456 -->
<g id="edge7" class="edge">
<title>1990981168416&#45;&gt;1990981161456</title>
<path fill="none" stroke="black" d="M703.92,-91C711.2,-91 719.41,-91 727.75,-91"/>
<polygon fill="black" stroke="black" points="727.62,-94.5 737.62,-91 727.62,-87.5 727.62,-94.5"/>
</g>
<!-- 1990981169376&#45;&gt;1990981160880 -->
<g id="edge9" class="edge">
<title>1990981169376&#45;&gt;1990981160880</title>
<path fill="none" stroke="black" d="M926.16,-91C933.48,-91 941.71,-91 950.03,-91"/>
<polygon fill="black" stroke="black" points="949.83,-94.5 959.83,-91 949.83,-87.5 949.83,-94.5"/>
</g>
<!-- 1990977220400&#45;&gt;1990977223136 -->
<g id="edge11" class="edge">
<title>1990977220400&#45;&gt;1990977223136</title>
<path fill="none" stroke="black" d="M1141.54,-91C1148.92,-91 1157.23,-91 1165.57,-91"/>
<polygon fill="black" stroke="black" points="1165.39,-94.5 1175.39,-91 1165.39,-87.5 1165.39,-94.5"/>
</g>
<!-- 1990977217664&#45;&gt;1990977210704 -->
<g id="edge13" class="edge">
<title>1990977217664&#45;&gt;1990977210704</title>
<path fill="none" stroke="black" d="M1351.19,-84.4C1358.78,-82.44 1367.41,-80.22 1376.1,-77.99"/>
<polygon fill="black" stroke="black" points="1376.8,-81.42 1385.61,-75.54 1375.05,-74.64 1376.8,-81.42"/>
</g>
<!-- 1990977218960&#45;&gt;1990977212048 -->
<g id="edge15" class="edge">
<title>1990977218960&#45;&gt;1990977212048</title>
<path fill="none" stroke="black" d="M1565.74,-63C1576.55,-63 1589.46,-63 1602.03,-63"/>
<polygon fill="black" stroke="black" points="1601.89,-66.5 1611.89,-63 1601.89,-59.5 1601.89,-66.5"/>
</g>
<!-- 1990977218960&#45;&gt;1990977218912 -->
<g id="edge16" class="edge">
<title>1990977218960&#45;&gt;1990977218912</title>
<path fill="none" stroke="black" d="M1563.48,-74.32C1575.49,-79.99 1590.51,-87.08 1604.83,-93.84"/>
<polygon fill="black" stroke="black" points="1603.17,-96.93 1613.71,-98.04 1606.16,-90.6 1603.17,-96.93"/>
</g>
<!-- 1990977217760&#45;&gt;1990977079920 -->
<g id="edge19" class="edge">
<title>1990977217760&#45;&gt;1990977079920</title>
<path fill="none" stroke="black" d="M1798.48,-63C1805.79,-63 1814.03,-63 1822.43,-63"/>
<polygon fill="black" stroke="black" points="1822.37,-66.5 1832.37,-63 1822.37,-59.5 1822.37,-66.5"/>
</g>
<!-- 1990977087552&#45;&gt;1990977084240 -->
<g id="edge21" class="edge">
<title>1990977087552&#45;&gt;1990977084240</title>
<path fill="none" stroke="black" d="M2021.6,-63C2028.99,-63 2037.35,-63 2045.9,-63"/>
<polygon fill="black" stroke="black" points="2045.66,-66.5 2055.66,-63 2045.66,-59.5 2045.66,-66.5"/>
</g>
<!-- 1990977090336&#45;&gt;1990976976320 -->
<g id="edge24" class="edge">
<title>1990977090336&#45;&gt;1990976976320</title>
<path fill="none" stroke="black" d="M2252.73,-99C2262.88,-99 2274.83,-99 2286.43,-99"/>
<polygon fill="black" stroke="black" points="2286.31,-102.5 2296.31,-99 2286.31,-95.5 2286.31,-102.5"/>
</g>
<!-- 1990977084624&#45;&gt;1990977080304 -->
<g id="edge25" class="edge">
<title>1990977084624&#45;&gt;1990977080304</title>
<path fill="none" stroke="black" d="M2252.73,-27C2260.06,-27 2268.32,-27 2276.7,-27"/>
<polygon fill="black" stroke="black" points="2276.63,-30.5 2286.63,-27 2276.63,-23.5 2276.63,-30.5"/>
</g>
<!-- 1990981172112&#45;&gt;1990981162656 -->
<g id="edge28" class="edge">
<title>1990981172112&#45;&gt;1990981162656</title>
<path fill="none" stroke="black" d="M2472.07,-90.01C2480.09,-87.1 2489.27,-83.78 2498.38,-80.48"/>
<polygon fill="black" stroke="black" points="2499.34,-83.85 2507.55,-77.15 2496.96,-77.27 2499.34,-83.85"/>
</g>
<!-- 1990981168368&#45;&gt;1990981162656 -->
<g id="edge29" class="edge">
<title>1990981168368&#45;&gt;1990981162656</title>
<path fill="none" stroke="black" d="M2472.07,-35.99C2480.09,-38.9 2489.27,-42.22 2498.38,-45.52"/>
<polygon fill="black" stroke="black" points="2496.96,-48.73 2507.55,-48.85 2499.34,-42.15 2496.96,-48.73"/>
</g>
<!-- 1990981160256&#45;&gt;1990981170864 -->
<g id="edge31" class="edge">
<title>1990981160256&#45;&gt;1990981170864</title>
<path fill="none" stroke="black" d="M2676.39,-63C2683.8,-63 2692.13,-63 2700.51,-63"/>
<polygon fill="black" stroke="black" points="2700.36,-66.5 2710.36,-63 2700.36,-59.5 2700.36,-66.5"/>
</g>
<!-- 1990981168656&#45;&gt;1990981167360 -->
<g id="edge33" class="edge">
<title>1990981168656&#45;&gt;1990981167360</title>
<path fill="none" stroke="black" d="M2887.29,-63C2894.67,-63 2902.98,-63 2911.32,-63"/>
<polygon fill="black" stroke="black" points="2911.14,-66.5 2921.14,-63 2911.14,-59.5 2911.14,-66.5"/>
</g>
</g>
</svg>
