<?xml version="1.0" encoding="UTF-8" standalone="no"?>
<!DOCTYPE svg PUBLIC "-//W3C//DTD SVG 1.1//EN"
 "http://www.w3.org/Graphics/SVG/1.1/DTD/svg11.dtd">
<!-- Generated by graphviz version 11.0.0 (20240428.1522)
 -->
<!-- Title: imdf_net_1754051982.9457633 Pages: 1 -->
<svg width="3210pt" height="70pt"
 viewBox="0.00 0.00 3210.25 70.00" xmlns="http://www.w3.org/2000/svg" xmlns:xlink="http://www.w3.org/1999/xlink">
<g id="graph0" class="graph" transform="scale(1 1) rotate(0) translate(4 66)">
<title>imdf_net_1754051982.9457633</title>
<polygon fill="white" stroke="none" points="-4,4 -4,-66 3206.25,-66 3206.25,4 -4,4"/>
<!-- 1990975875808 -->
<g id="node1" class="node">
<title>1990975875808</title>
<polygon fill="white" stroke="black" points="159.25,-49 90,-49 90,-13 159.25,-13 159.25,-49"/>
<text text-anchor="middle" x="124.62" y="-25.98" font-family="Times New Roman,serif" font-size="12.00">Site Assess</text>
</g>
<!-- 1990975866448 -->
<g id="node17" class="node">
<title>1990975866448</title>
<ellipse fill="white" stroke="black" cx="222.25" cy="-31" rx="27" ry="27"/>
</g>
<!-- 1990975875808&#45;&gt;1990975866448 -->
<g id="edge2" class="edge">
<title>1990975875808&#45;&gt;1990975866448</title>
<path fill="none" stroke="black" d="M159.61,-31C167.31,-31 175.53,-31 183.38,-31"/>
<polygon fill="black" stroke="black" points="183.38,-34.5 193.38,-31 183.38,-27.5 183.38,-34.5"/>
</g>
<!-- 1990975869904 -->
<g id="node2" class="node">
<title>1990975869904</title>
<polygon fill="white" stroke="black" points="364.25,-49 285.25,-49 285.25,-13 364.25,-13 364.25,-49"/>
<text text-anchor="middle" x="324.75" y="-25.98" font-family="Times New Roman,serif" font-size="12.00">Impact Study</text>
</g>
<!-- 1990975868944 -->
<g id="node18" class="node">
<title>1990975868944</title>
<ellipse fill="white" stroke="black" cx="427.25" cy="-31" rx="27" ry="27"/>
</g>
<!-- 1990975869904&#45;&gt;1990975868944 -->
<g id="edge4" class="edge">
<title>1990975869904&#45;&gt;1990975868944</title>
<path fill="none" stroke="black" d="M364.61,-31C372.46,-31 380.7,-31 388.51,-31"/>
<polygon fill="black" stroke="black" points="388.41,-34.5 398.41,-31 388.41,-27.5 388.41,-34.5"/>
</g>
<!-- 1990975873360 -->
<g id="node3" class="node">
<title>1990975873360</title>
<polygon fill="white" stroke="black" points="577.5,-49 490.25,-49 490.25,-13 577.5,-13 577.5,-49"/>
<text text-anchor="middle" x="533.88" y="-25.98" font-family="Times New Roman,serif" font-size="12.00">System Design</text>
</g>
<!-- 1990975873216 -->
<g id="node19" class="node">
<title>1990975873216</title>
<ellipse fill="white" stroke="black" cx="640.5" cy="-31" rx="27" ry="27"/>
</g>
<!-- 1990975873360&#45;&gt;1990975873216 -->
<g id="edge6" class="edge">
<title>1990975873360&#45;&gt;1990975873216</title>
<path fill="none" stroke="black" d="M577.73,-31C585.68,-31 593.92,-31 601.7,-31"/>
<polygon fill="black" stroke="black" points="601.54,-34.5 611.54,-31 601.54,-27.5 601.54,-34.5"/>
</g>
<!-- 1990975866976 -->
<g id="node4" class="node">
<title>1990975866976</title>
<polygon fill="white" stroke="black" points="772,-49 703.5,-49 703.5,-13 772,-13 772,-49"/>
<text text-anchor="middle" x="737.75" y="-25.98" font-family="Times New Roman,serif" font-size="12.00">Unit Install</text>
</g>
<!-- 1990975878784 -->
<g id="node20" class="node">
<title>1990975878784</title>
<ellipse fill="white" stroke="black" cx="835" cy="-31" rx="27" ry="27"/>
</g>
<!-- 1990975866976&#45;&gt;1990975878784 -->
<g id="edge8" class="edge">
<title>1990975866976&#45;&gt;1990975878784</title>
<path fill="none" stroke="black" d="M772.33,-31C780.1,-31 788.43,-31 796.36,-31"/>
<polygon fill="black" stroke="black" points="796.08,-34.5 806.08,-31 796.08,-27.5 796.08,-34.5"/>
</g>
<!-- 1990975866640 -->
<g id="node5" class="node">
<title>1990975866640</title>
<polygon fill="white" stroke="black" points="976.25,-49 898,-49 898,-13 976.25,-13 976.25,-49"/>
<text text-anchor="middle" x="937.12" y="-25.98" font-family="Times New Roman,serif" font-size="12.00">Sensor Setup</text>
</g>
<!-- 1990975879840 -->
<g id="node21" class="node">
<title>1990975879840</title>
<ellipse fill="white" stroke="black" cx="1039.25" cy="-31" rx="27" ry="27"/>
</g>
<!-- 1990975866640&#45;&gt;1990975879840 -->
<g id="edge10" class="edge">
<title>1990975866640&#45;&gt;1990975879840</title>
<path fill="none" stroke="black" d="M976.55,-31C984.39,-31 992.63,-31 1000.44,-31"/>
<polygon fill="black" stroke="black" points="1000.36,-34.5 1010.36,-31 1000.36,-27.5 1000.36,-34.5"/>
</g>
<!-- 1990975873504 -->
<g id="node6" class="node">
<title>1990975873504</title>
<polygon fill="white" stroke="black" points="1169.25,-49 1102.25,-49 1102.25,-13 1169.25,-13 1169.25,-49"/>
<text text-anchor="middle" x="1135.75" y="-25.98" font-family="Times New Roman,serif" font-size="12.00">Staff Train</text>
</g>
<!-- 1990975865488 -->
<g id="node22" class="node">
<title>1990975865488</title>
<ellipse fill="white" stroke="black" cx="1232.25" cy="-31" rx="27" ry="27"/>
</g>
<!-- 1990975873504&#45;&gt;1990975865488 -->
<g id="edge12" class="edge">
<title>1990975873504&#45;&gt;1990975865488</title>
<path fill="none" stroke="black" d="M1169.54,-31C1177.27,-31 1185.58,-31 1193.52,-31"/>
<polygon fill="black" stroke="black" points="1193.25,-34.5 1203.25,-31 1193.25,-27.5 1193.25,-34.5"/>
</g>
<!-- 1990975879216 -->
<g id="node7" class="node">
<title>1990975879216</title>
<polygon fill="white" stroke="black" points="1381.75,-49 1295.25,-49 1295.25,-13 1381.75,-13 1381.75,-49"/>
<text text-anchor="middle" x="1338.5" y="-25.98" font-family="Times New Roman,serif" font-size="12.00">Crop Schedule</text>
</g>
<!-- 1990975880416 -->
<g id="node23" class="node">
<title>1990975880416</title>
<ellipse fill="white" stroke="black" cx="1444.75" cy="-31" rx="27" ry="27"/>
</g>
<!-- 1990975879216&#45;&gt;1990975880416 -->
<g id="edge14" class="edge">
<title>1990975879216&#45;&gt;1990975880416</title>
<path fill="none" stroke="black" d="M1382.2,-31C1390.12,-31 1398.34,-31 1406.09,-31"/>
<polygon fill="black" stroke="black" points="1405.89,-34.5 1415.89,-31 1405.89,-27.5 1405.89,-34.5"/>
</g>
<!-- 1990975875568 -->
<g id="node8" class="node">
<title>1990975875568</title>
<polygon fill="white" stroke="black" points="1614.5,-49 1507.75,-49 1507.75,-13 1614.5,-13 1614.5,-49"/>
<text text-anchor="middle" x="1561.12" y="-25.98" font-family="Times New Roman,serif" font-size="12.00">Compliance Check</text>
</g>
<!-- 1990975880224 -->
<g id="node24" class="node">
<title>1990975880224</title>
<ellipse fill="white" stroke="black" cx="1677.5" cy="-31" rx="27" ry="27"/>
</g>
<!-- 1990975875568&#45;&gt;1990975880224 -->
<g id="edge16" class="edge">
<title>1990975875568&#45;&gt;1990975880224</title>
<path fill="none" stroke="black" d="M1614.96,-31C1622.95,-31 1631.05,-31 1638.64,-31"/>
<polygon fill="black" stroke="black" points="1638.54,-34.5 1648.54,-31 1638.54,-27.5 1638.54,-34.5"/>
</g>
<!-- 1990975869424 -->
<g id="node9" class="node">
<title>1990975869424</title>
<polygon fill="white" stroke="black" points="1829.25,-49 1740.5,-49 1740.5,-13 1829.25,-13 1829.25,-49"/>
<text text-anchor="middle" x="1784.88" y="-25.98" font-family="Times New Roman,serif" font-size="12.00">Energy Deploy</text>
</g>
<!-- 1990975867072 -->
<g id="node25" class="node">
<title>1990975867072</title>
<ellipse fill="white" stroke="black" cx="1892.25" cy="-31" rx="27" ry="27"/>
</g>
<!-- 1990975869424&#45;&gt;1990975867072 -->
<g id="edge18" class="edge">
<title>1990975869424&#45;&gt;1990975867072</title>
<path fill="none" stroke="black" d="M1829.65,-31C1837.61,-31 1845.85,-31 1853.61,-31"/>
<polygon fill="black" stroke="black" points="1853.42,-34.5 1863.42,-31 1853.42,-27.5 1853.42,-34.5"/>
</g>
<!-- 1990975880992 -->
<g id="node10" class="node">
<title>1990975880992</title>
<polygon fill="white" stroke="black" points="2044,-49 1955.25,-49 1955.25,-13 2044,-13 2044,-49"/>
<text text-anchor="middle" x="1999.62" y="-25.98" font-family="Times New Roman,serif" font-size="12.00">Health Monitor</text>
</g>
<!-- 1990975881136 -->
<g id="node26" class="node">
<title>1990975881136</title>
<ellipse fill="white" stroke="black" cx="2107" cy="-31" rx="27" ry="27"/>
</g>
<!-- 1990975880992&#45;&gt;1990975881136 -->
<g id="edge20" class="edge">
<title>1990975880992&#45;&gt;1990975881136</title>
<path fill="none" stroke="black" d="M2044.4,-31C2052.36,-31 2060.6,-31 2068.36,-31"/>
<polygon fill="black" stroke="black" points="2068.17,-34.5 2078.17,-31 2068.17,-27.5 2068.17,-34.5"/>
</g>
<!-- 1990975879072 -->
<g id="node11" class="node">
<title>1990975879072</title>
<polygon fill="white" stroke="black" points="2252.75,-49 2170,-49 2170,-13 2252.75,-13 2252.75,-49"/>
<text text-anchor="middle" x="2211.38" y="-25.98" font-family="Times New Roman,serif" font-size="12.00">Nutrient Tune</text>
</g>
<!-- 1990975878064 -->
<g id="node27" class="node">
<title>1990975878064</title>
<ellipse fill="white" stroke="black" cx="2315.75" cy="-31" rx="27" ry="27"/>
</g>
<!-- 1990975879072&#45;&gt;1990975878064 -->
<g id="edge22" class="edge">
<title>1990975879072&#45;&gt;1990975878064</title>
<path fill="none" stroke="black" d="M2253.13,-31C2260.98,-31 2269.17,-31 2276.92,-31"/>
<polygon fill="black" stroke="black" points="2276.74,-34.5 2286.74,-31 2276.74,-27.5 2276.74,-34.5"/>
</g>
<!-- 1990975868416 -->
<g id="node12" class="node">
<title>1990975868416</title>
<polygon fill="white" stroke="black" points="2458.5,-49 2378.75,-49 2378.75,-13 2458.5,-13 2458.5,-49"/>
<text text-anchor="middle" x="2418.62" y="-25.98" font-family="Times New Roman,serif" font-size="12.00">Package Plan</text>
</g>
<!-- 1990975878352 -->
<g id="node28" class="node">
<title>1990975878352</title>
<ellipse fill="white" stroke="black" cx="2521.5" cy="-31" rx="27" ry="27"/>
</g>
<!-- 1990975868416&#45;&gt;1990975878352 -->
<g id="edge24" class="edge">
<title>1990975868416&#45;&gt;1990975878352</title>
<path fill="none" stroke="black" d="M2458.91,-31C2466.78,-31 2475.02,-31 2482.82,-31"/>
<polygon fill="black" stroke="black" points="2482.72,-34.5 2492.72,-31 2482.72,-27.5 2482.72,-34.5"/>
</g>
<!-- 1990975874224 -->
<g id="node13" class="node">
<title>1990975874224</title>
<polygon fill="white" stroke="black" points="2680.75,-49 2584.5,-49 2584.5,-13 2680.75,-13 2680.75,-49"/>
<text text-anchor="middle" x="2632.62" y="-25.98" font-family="Times New Roman,serif" font-size="12.00">Market Outreach</text>
</g>
<!-- 1990975869184 -->
<g id="node29" class="node">
<title>1990975869184</title>
<ellipse fill="white" stroke="black" cx="2743.75" cy="-31" rx="27" ry="27"/>
</g>
<!-- 1990975874224&#45;&gt;1990975869184 -->
<g id="edge26" class="edge">
<title>1990975874224&#45;&gt;1990975869184</title>
<path fill="none" stroke="black" d="M2681.17,-31C2689.09,-31 2697.2,-31 2704.84,-31"/>
<polygon fill="black" stroke="black" points="2704.83,-34.5 2714.83,-31 2704.83,-27.5 2704.83,-34.5"/>
</g>
<!-- 1990975880560 -->
<g id="node14" class="node">
<title>1990975880560</title>
<polygon fill="white" stroke="black" points="2897,-49 2806.75,-49 2806.75,-13 2897,-13 2897,-49"/>
<text text-anchor="middle" x="2851.88" y="-25.98" font-family="Times New Roman,serif" font-size="12.00">Feedback Loop</text>
</g>
<!-- 1990981526320 -->
<g id="node30" class="node">
<title>1990981526320</title>
<ellipse fill="white" stroke="black" cx="2960" cy="-31" rx="27" ry="27"/>
</g>
<!-- 1990975880560&#45;&gt;1990981526320 -->
<g id="edge28" class="edge">
<title>1990975880560&#45;&gt;1990981526320</title>
<path fill="none" stroke="black" d="M2897.27,-31C2905.26,-31 2913.53,-31 2921.31,-31"/>
<polygon fill="black" stroke="black" points="2921.14,-34.5 2931.14,-31 2921.14,-27.5 2921.14,-34.5"/>
</g>
<!-- 1990979649616 -->
<g id="node15" class="node">
<title>1990979649616</title>
<polygon fill="white" stroke="black" points="3104.25,-49 3023,-49 3023,-13 3104.25,-13 3104.25,-49"/>
<text text-anchor="middle" x="3063.62" y="-25.98" font-family="Times New Roman,serif" font-size="12.00">Data Analyze</text>
</g>
<!-- 1990976896848 -->
<g id="node31" class="node">
<title>1990976896848</title>
<ellipse fill="white" stroke="black" cx="3171.25" cy="-31" rx="27" ry="27"/>
<ellipse fill="none" stroke="black" cx="3171.25" cy="-31" rx="31" ry="31"/>
<text text-anchor="start" x="3154.75" y="-15.6" font-family="Times New Roman,serif" font-size="32.00">■</text>
</g>
<!-- 1990979649616&#45;&gt;1990976896848 -->
<g id="edge30" class="edge">
<title>1990979649616&#45;&gt;1990976896848</title>
<path fill="none" stroke="black" d="M3104.56,-31C3112.41,-31 3120.66,-31 3128.57,-31"/>
<polygon fill="black" stroke="black" points="3128.3,-34.5 3138.3,-31 3128.3,-27.5 3128.3,-34.5"/>
</g>
<!-- 1990976887680 -->
<g id="node16" class="node">
<title>1990976887680</title>
<ellipse fill="white" stroke="black" cx="27" cy="-31" rx="27" ry="27"/>
<text text-anchor="start" x="9.75" y="-13.7" font-family="Times New Roman,serif" font-size="34.00">●</text>
</g>
<!-- 1990976887680&#45;&gt;1990975875808 -->
<g id="edge1" class="edge">
<title>1990976887680&#45;&gt;1990975875808</title>
<path fill="none" stroke="black" d="M54.38,-31C61.82,-31 70.14,-31 78.35,-31"/>
<polygon fill="black" stroke="black" points="78.28,-34.5 88.28,-31 78.28,-27.5 78.28,-34.5"/>
</g>
<!-- 1990975866448&#45;&gt;1990975869904 -->
<g id="edge3" class="edge">
<title>1990975866448&#45;&gt;1990975869904</title>
<path fill="none" stroke="black" d="M249.66,-31C257.09,-31 265.44,-31 273.77,-31"/>
<polygon fill="black" stroke="black" points="273.53,-34.5 283.53,-31 273.53,-27.5 273.53,-34.5"/>
</g>
<!-- 1990975868944&#45;&gt;1990975873360 -->
<g id="edge5" class="edge">
<title>1990975868944&#45;&gt;1990975873360</title>
<path fill="none" stroke="black" d="M454.65,-31C461.98,-31 470.21,-31 478.51,-31"/>
<polygon fill="black" stroke="black" points="478.28,-34.5 488.28,-31 478.28,-27.5 478.28,-34.5"/>
</g>
<!-- 1990975873216&#45;&gt;1990975866976 -->
<g id="edge7" class="edge">
<title>1990975873216&#45;&gt;1990975866976</title>
<path fill="none" stroke="black" d="M667.78,-31C675.19,-31 683.47,-31 691.65,-31"/>
<polygon fill="black" stroke="black" points="691.53,-34.5 701.53,-31 691.53,-27.5 691.53,-34.5"/>
</g>
<!-- 1990975878784&#45;&gt;1990975866640 -->
<g id="edge9" class="edge">
<title>1990975878784&#45;&gt;1990975866640</title>
<path fill="none" stroke="black" d="M862.31,-31C869.63,-31 877.84,-31 886.05,-31"/>
<polygon fill="black" stroke="black" points="886.05,-34.5 896.05,-31 886.05,-27.5 886.05,-34.5"/>
</g>
<!-- 1990975879840&#45;&gt;1990975873504 -->
<g id="edge11" class="edge">
<title>1990975879840&#45;&gt;1990975873504</title>
<path fill="none" stroke="black" d="M1066.57,-31C1074,-31 1082.29,-31 1090.45,-31"/>
<polygon fill="black" stroke="black" points="1090.31,-34.5 1100.31,-31 1090.31,-27.5 1090.31,-34.5"/>
</g>
<!-- 1990975865488&#45;&gt;1990975879216 -->
<g id="edge13" class="edge">
<title>1990975865488&#45;&gt;1990975879216</title>
<path fill="none" stroke="black" d="M1259.56,-31C1266.94,-31 1275.24,-31 1283.61,-31"/>
<polygon fill="black" stroke="black" points="1283.46,-34.5 1293.46,-31 1283.46,-27.5 1283.46,-34.5"/>
</g>
<!-- 1990975880416&#45;&gt;1990975875568 -->
<g id="edge15" class="edge">
<title>1990975880416&#45;&gt;1990975875568</title>
<path fill="none" stroke="black" d="M1471.99,-31C1479.33,-31 1487.64,-31 1496.15,-31"/>
<polygon fill="black" stroke="black" points="1495.88,-34.5 1505.88,-31 1495.88,-27.5 1495.88,-34.5"/>
</g>
<!-- 1990975880224&#45;&gt;1990975869424 -->
<g id="edge17" class="edge">
<title>1990975880224&#45;&gt;1990975869424</title>
<path fill="none" stroke="black" d="M1704.82,-31C1712.19,-31 1720.5,-31 1728.88,-31"/>
<polygon fill="black" stroke="black" points="1728.77,-34.5 1738.77,-31 1728.77,-27.5 1728.77,-34.5"/>
</g>
<!-- 1990975867072&#45;&gt;1990975880992 -->
<g id="edge19" class="edge">
<title>1990975867072&#45;&gt;1990975880992</title>
<path fill="none" stroke="black" d="M1919.57,-31C1926.94,-31 1935.25,-31 1943.63,-31"/>
<polygon fill="black" stroke="black" points="1943.52,-34.5 1953.52,-31 1943.52,-27.5 1943.52,-34.5"/>
</g>
<!-- 1990975881136&#45;&gt;1990975879072 -->
<g id="edge21" class="edge">
<title>1990975881136&#45;&gt;1990975879072</title>
<path fill="none" stroke="black" d="M2134.36,-31C2141.78,-31 2150.11,-31 2158.46,-31"/>
<polygon fill="black" stroke="black" points="2158.27,-34.5 2168.27,-31 2158.27,-27.5 2158.27,-34.5"/>
</g>
<!-- 1990975878064&#45;&gt;1990975868416 -->
<g id="edge23" class="edge">
<title>1990975878064&#45;&gt;1990975868416</title>
<path fill="none" stroke="black" d="M2342.99,-31C2350.46,-31 2358.85,-31 2367.24,-31"/>
<polygon fill="black" stroke="black" points="2367.08,-34.5 2377.08,-31 2367.08,-27.5 2367.08,-34.5"/>
</g>
<!-- 1990975878352&#45;&gt;1990975874224 -->
<g id="edge25" class="edge">
<title>1990975878352&#45;&gt;1990975874224</title>
<path fill="none" stroke="black" d="M2548.92,-31C2556.2,-31 2564.41,-31 2572.75,-31"/>
<polygon fill="black" stroke="black" points="2572.62,-34.5 2582.62,-31 2572.62,-27.5 2572.62,-34.5"/>
</g>
<!-- 1990975869184&#45;&gt;1990975880560 -->
<g id="edge27" class="edge">
<title>1990975869184&#45;&gt;1990975880560</title>
<path fill="none" stroke="black" d="M2770.98,-31C2778.33,-31 2786.6,-31 2794.97,-31"/>
<polygon fill="black" stroke="black" points="2794.84,-34.5 2804.84,-31 2794.84,-27.5 2794.84,-34.5"/>
</g>
<!-- 1990981526320&#45;&gt;1990979649616 -->
<g id="edge29" class="edge">
<title>1990981526320&#45;&gt;1990979649616</title>
<path fill="none" stroke="black" d="M2987.44,-31C2994.71,-31 3002.86,-31 3011.03,-31"/>
<polygon fill="black" stroke="black" points="3011.01,-34.5 3021.01,-31 3011.01,-27.5 3011.01,-34.5"/>
</g>
</g>
</svg>
