<?xml version="1.0" encoding="UTF-8" standalone="no"?>
<!DOCTYPE svg PUBLIC "-//W3C//DTD SVG 1.1//EN"
 "http://www.w3.org/Graphics/SVG/1.1/DTD/svg11.dtd">
<!-- Generated by graphviz version 11.0.0 (20240428.1522)
 -->
<!-- Title: imdf_net_1754052017.1751244 Pages: 1 -->
<svg width="3079pt" height="350pt"
 viewBox="0.00 0.00 3078.50 350.00" xmlns="http://www.w3.org/2000/svg" xmlns:xlink="http://www.w3.org/1999/xlink">
<g id="graph0" class="graph" transform="scale(1 1) rotate(0) translate(4 346)">
<title>imdf_net_1754052017.1751244</title>
<polygon fill="white" stroke="none" points="-4,4 -4,-346 3074.5,-346 3074.5,4 -4,4"/>
<!-- 1990976653216 -->
<g id="node1" class="node">
<title>1990976653216</title>
<polygon fill="white" stroke="black" points="174.25,-153 90,-153 90,-117 174.25,-117 174.25,-153"/>
<text text-anchor="middle" x="132.12" y="-129.97" font-family="Times New Roman,serif" font-size="12.00">Milk Sourcing</text>
</g>
<!-- 1990976662432 -->
<g id="node20" class="node">
<title>1990976662432</title>
<ellipse fill="white" stroke="black" cx="237.25" cy="-135" rx="27" ry="27"/>
</g>
<!-- 1990976653216&#45;&gt;1990976662432 -->
<g id="edge2" class="edge">
<title>1990976653216&#45;&gt;1990976662432</title>
<path fill="none" stroke="black" d="M174.48,-135C182.44,-135 190.74,-135 198.58,-135"/>
<polygon fill="black" stroke="black" points="198.5,-138.5 208.5,-135 198.5,-131.5 198.5,-138.5"/>
</g>
<!-- 1990976657392 -->
<g id="node2" class="node">
<title>1990976657392</title>
<polygon fill="white" stroke="black" points="377,-153 300.25,-153 300.25,-117 377,-117 377,-153"/>
<text text-anchor="middle" x="338.62" y="-129.97" font-family="Times New Roman,serif" font-size="12.00">Milk Testing</text>
</g>
<!-- 1990976665456 -->
<g id="node21" class="node">
<title>1990976665456</title>
<ellipse fill="white" stroke="black" cx="440" cy="-135" rx="27" ry="27"/>
</g>
<!-- 1990976657392&#45;&gt;1990976665456 -->
<g id="edge4" class="edge">
<title>1990976657392&#45;&gt;1990976665456</title>
<path fill="none" stroke="black" d="M377.48,-135C385.27,-135 393.48,-135 401.27,-135"/>
<polygon fill="black" stroke="black" points="401.15,-138.5 411.15,-135 401.15,-131.5 401.15,-138.5"/>
</g>
<!-- 1990976666032 -->
<g id="node3" class="node">
<title>1990976666032</title>
<polygon fill="white" stroke="black" points="601.5,-153 503,-153 503,-117 601.5,-117 601.5,-153"/>
<text text-anchor="middle" x="552.25" y="-129.97" font-family="Times New Roman,serif" font-size="12.00">Coagulation Start</text>
</g>
<!-- 1990981836560 -->
<g id="node22" class="node">
<title>1990981836560</title>
<ellipse fill="white" stroke="black" cx="664.5" cy="-135" rx="27" ry="27"/>
</g>
<!-- 1990976666032&#45;&gt;1990981836560 -->
<g id="edge6" class="edge">
<title>1990976666032&#45;&gt;1990981836560</title>
<path fill="none" stroke="black" d="M601.93,-135C609.88,-135 618.01,-135 625.65,-135"/>
<polygon fill="black" stroke="black" points="625.64,-138.5 635.64,-135 625.64,-131.5 625.64,-138.5"/>
</g>
<!-- 1990981843184 -->
<g id="node4" class="node">
<title>1990981843184</title>
<polygon fill="white" stroke="black" points="805.75,-153 727.5,-153 727.5,-117 805.75,-117 805.75,-153"/>
<text text-anchor="middle" x="766.62" y="-129.97" font-family="Times New Roman,serif" font-size="12.00">Curd Cutting</text>
</g>
<!-- 1990980110288 -->
<g id="node23" class="node">
<title>1990980110288</title>
<ellipse fill="white" stroke="black" cx="868.75" cy="-135" rx="27" ry="27"/>
</g>
<!-- 1990981843184&#45;&gt;1990980110288 -->
<g id="edge8" class="edge">
<title>1990981843184&#45;&gt;1990980110288</title>
<path fill="none" stroke="black" d="M806.05,-135C813.89,-135 822.13,-135 829.94,-135"/>
<polygon fill="black" stroke="black" points="829.86,-138.5 839.86,-135 829.86,-131.5 829.86,-138.5"/>
</g>
<!-- 1990980120560 -->
<g id="node5" class="node">
<title>1990980120560</title>
<polygon fill="white" stroke="black" points="1006.25,-153 931.75,-153 931.75,-117 1006.25,-117 1006.25,-153"/>
<text text-anchor="middle" x="969" y="-129.97" font-family="Times New Roman,serif" font-size="12.00">Whey Drain</text>
</g>
<!-- 1990980245200 -->
<g id="node24" class="node">
<title>1990980245200</title>
<ellipse fill="white" stroke="black" cx="1069.25" cy="-135" rx="27" ry="27"/>
</g>
<!-- 1990980120560&#45;&gt;1990980245200 -->
<g id="edge10" class="edge">
<title>1990980120560&#45;&gt;1990980245200</title>
<path fill="none" stroke="black" d="M1006.58,-135C1014.34,-135 1022.54,-135 1030.34,-135"/>
<polygon fill="black" stroke="black" points="1030.25,-138.5 1040.25,-135 1030.25,-131.5 1030.25,-138.5"/>
</g>
<!-- 1990980251728 -->
<g id="node6" class="node">
<title>1990980251728</title>
<polygon fill="white" stroke="black" points="1226.25,-153 1132.25,-153 1132.25,-117 1226.25,-117 1226.25,-153"/>
<text text-anchor="middle" x="1179.25" y="-129.97" font-family="Times New Roman,serif" font-size="12.00">Molding Cheese</text>
</g>
<!-- 1990980245632 -->
<g id="node25" class="node">
<title>1990980245632</title>
<ellipse fill="white" stroke="black" cx="1289.25" cy="-135" rx="27" ry="27"/>
</g>
<!-- 1990980251728&#45;&gt;1990980245632 -->
<g id="edge12" class="edge">
<title>1990980251728&#45;&gt;1990980245632</title>
<path fill="none" stroke="black" d="M1226.68,-135C1234.56,-135 1242.66,-135 1250.28,-135"/>
<polygon fill="black" stroke="black" points="1250.27,-138.5 1260.27,-135 1250.27,-131.5 1250.27,-138.5"/>
</g>
<!-- 1990980254416 -->
<g id="node7" class="node">
<title>1990980254416</title>
<polygon fill="white" stroke="black" points="1444.75,-153 1352.25,-153 1352.25,-117 1444.75,-117 1444.75,-153"/>
<text text-anchor="middle" x="1398.5" y="-129.97" font-family="Times New Roman,serif" font-size="12.00">Salt Application</text>
</g>
<!-- 1990980252784 -->
<g id="node26" class="node">
<title>1990980252784</title>
<ellipse fill="white" stroke="black" cx="1507.75" cy="-135" rx="27" ry="27"/>
</g>
<!-- 1990980254416&#45;&gt;1990980252784 -->
<g id="edge14" class="edge">
<title>1990980254416&#45;&gt;1990980252784</title>
<path fill="none" stroke="black" d="M1444.98,-135C1453.02,-135 1461.31,-135 1469.1,-135"/>
<polygon fill="black" stroke="black" points="1468.94,-138.5 1478.94,-135 1468.94,-131.5 1468.94,-138.5"/>
</g>
<!-- 1990980253696 -->
<g id="node8" class="node">
<title>1990980253696</title>
<polygon fill="white" stroke="black" points="1688,-153 1570.75,-153 1570.75,-117 1688,-117 1688,-153"/>
<text text-anchor="middle" x="1629.38" y="-129.97" font-family="Times New Roman,serif" font-size="12.00">Fermentation Control</text>
</g>
<!-- 1990980246592 -->
<g id="node27" class="node">
<title>1990980246592</title>
<ellipse fill="white" stroke="black" cx="1751" cy="-135" rx="27" ry="27"/>
</g>
<!-- 1990980253696&#45;&gt;1990980246592 -->
<g id="edge16" class="edge">
<title>1990980253696&#45;&gt;1990980246592</title>
<path fill="none" stroke="black" d="M1688.44,-135C1696.56,-135 1704.73,-135 1712.34,-135"/>
<polygon fill="black" stroke="black" points="1712.24,-138.5 1722.24,-135 1712.24,-131.5 1712.24,-138.5"/>
</g>
<!-- 1990979921600 -->
<g id="node9" class="node">
<title>1990979921600</title>
<polygon fill="white" stroke="black" points="1890,-153 1814,-153 1814,-117 1890,-117 1890,-153"/>
<text text-anchor="middle" x="1852" y="-129.97" font-family="Times New Roman,serif" font-size="12.00">Aging Setup</text>
</g>
<!-- 1990979650960 -->
<g id="node28" class="node">
<title>1990979650960</title>
<ellipse fill="white" stroke="black" cx="1953" cy="-171" rx="27" ry="27"/>
</g>
<!-- 1990979921600&#45;&gt;1990979650960 -->
<g id="edge18" class="edge">
<title>1990979921600&#45;&gt;1990979650960</title>
<path fill="none" stroke="black" d="M1890.43,-148.61C1898.96,-151.71 1907.99,-155 1916.44,-158.07"/>
<polygon fill="black" stroke="black" points="1915.1,-161.31 1925.69,-161.43 1917.49,-154.73 1915.1,-161.31"/>
</g>
<!-- 1990979922512 -->
<g id="node29" class="node">
<title>1990979922512</title>
<ellipse fill="white" stroke="black" cx="1953" cy="-99" rx="27" ry="27"/>
</g>
<!-- 1990979921600&#45;&gt;1990979922512 -->
<g id="edge19" class="edge">
<title>1990979921600&#45;&gt;1990979922512</title>
<path fill="none" stroke="black" d="M1890.43,-121.39C1898.96,-118.29 1907.99,-115 1916.44,-111.93"/>
<polygon fill="black" stroke="black" points="1917.49,-115.27 1925.69,-108.57 1915.1,-108.69 1917.49,-115.27"/>
</g>
<!-- 1990977722400 -->
<g id="node10" class="node">
<title>1990977722400</title>
<polygon fill="white" stroke="black" points="2119,-117 2023.5,-117 2023.5,-81 2119,-81 2119,-117"/>
<text text-anchor="middle" x="2071.25" y="-93.97" font-family="Times New Roman,serif" font-size="12.00">Humidity Adjust</text>
</g>
<!-- 1990982196432 -->
<g id="node32" class="node">
<title>1990982196432</title>
<ellipse fill="white" stroke="black" cx="2189.5" cy="-27" rx="27" ry="27"/>
</g>
<!-- 1990977722400&#45;&gt;1990982196432 -->
<g id="edge25" class="edge">
<title>1990977722400&#45;&gt;1990982196432</title>
<path fill="none" stroke="black" d="M2101.89,-80.65C2118.53,-70.34 2139.32,-57.46 2156.35,-46.91"/>
<polygon fill="black" stroke="black" points="2157.95,-50.04 2164.61,-41.8 2154.26,-44.09 2157.95,-50.04"/>
</g>
<!-- 1990982201184 -->
<g id="node33" class="node">
<title>1990982201184</title>
<ellipse fill="white" stroke="black" cx="2189.5" cy="-99" rx="27" ry="27"/>
</g>
<!-- 1990977722400&#45;&gt;1990982201184 -->
<g id="edge24" class="edge">
<title>1990977722400&#45;&gt;1990982201184</title>
<path fill="none" stroke="black" d="M2119.2,-99C2129.71,-99 2140.72,-99 2150.8,-99"/>
<polygon fill="black" stroke="black" points="2150.59,-102.5 2160.59,-99 2150.59,-95.5 2150.59,-102.5"/>
</g>
<!-- 1990971037152 -->
<g id="node11" class="node">
<title>1990971037152</title>
<polygon fill="white" stroke="black" points="2126.5,-189 2016,-189 2016,-153 2126.5,-153 2126.5,-189"/>
<text text-anchor="middle" x="2071.25" y="-165.97" font-family="Times New Roman,serif" font-size="12.00">Temperature Adjust</text>
</g>
<!-- 1990982198784 -->
<g id="node30" class="node">
<title>1990982198784</title>
<ellipse fill="white" stroke="black" cx="2189.5" cy="-243" rx="27" ry="27"/>
</g>
<!-- 1990971037152&#45;&gt;1990982198784 -->
<g id="edge23" class="edge">
<title>1990971037152&#45;&gt;1990982198784</title>
<path fill="none" stroke="black" d="M2101.89,-189.35C2118.53,-199.66 2139.32,-212.54 2156.35,-223.09"/>
<polygon fill="black" stroke="black" points="2154.26,-225.91 2164.61,-228.2 2157.95,-219.96 2154.26,-225.91"/>
</g>
<!-- 1990982202528 -->
<g id="node31" class="node">
<title>1990982202528</title>
<ellipse fill="white" stroke="black" cx="2189.5" cy="-171" rx="27" ry="27"/>
</g>
<!-- 1990971037152&#45;&gt;1990982202528 -->
<g id="edge22" class="edge">
<title>1990971037152&#45;&gt;1990982202528</title>
<path fill="none" stroke="black" d="M2126.97,-171C2135.01,-171 2143.14,-171 2150.73,-171"/>
<polygon fill="black" stroke="black" points="2150.63,-174.5 2160.63,-171 2150.63,-167.5 2150.63,-174.5"/>
</g>
<!-- 1990981583024 -->
<g id="node12" class="node">
<title>1990981583024</title>
<polygon fill="white" stroke="black" points="2335.62,-117 2254.38,-117 2254.38,-81 2335.62,-81 2335.62,-117"/>
<text text-anchor="middle" x="2295" y="-93.97" font-family="Times New Roman,serif" font-size="12.00">Flavor Profile</text>
</g>
<!-- 1990982196288 -->
<g id="node36" class="node">
<title>1990982196288</title>
<ellipse fill="white" stroke="black" cx="2400.5" cy="-135" rx="27" ry="27"/>
</g>
<!-- 1990981583024&#45;&gt;1990982196288 -->
<g id="edge33" class="edge">
<title>1990981583024&#45;&gt;1990982196288</title>
<path fill="none" stroke="black" d="M2336.02,-112.92C2345.14,-116.09 2354.77,-119.44 2363.7,-122.55"/>
<polygon fill="black" stroke="black" points="2362.52,-125.84 2373.11,-125.82 2364.82,-119.23 2362.52,-125.84"/>
</g>
<!-- 1990982202576 -->
<g id="node37" class="node">
<title>1990982202576</title>
<ellipse fill="white" stroke="black" cx="2400.5" cy="-63" rx="27" ry="27"/>
</g>
<!-- 1990981583024&#45;&gt;1990982202576 -->
<g id="edge30" class="edge">
<title>1990981583024&#45;&gt;1990982202576</title>
<path fill="none" stroke="black" d="M2336.02,-85.08C2345.14,-81.91 2354.77,-78.56 2363.7,-75.45"/>
<polygon fill="black" stroke="black" points="2364.82,-78.77 2373.11,-72.18 2362.52,-72.16 2364.82,-78.77"/>
</g>
<!-- 1990981595216 -->
<g id="node13" class="node">
<title>1990981595216</title>
<polygon fill="white" stroke="black" points="2337.5,-243 2252.5,-243 2252.5,-207 2337.5,-207 2337.5,-243"/>
<text text-anchor="middle" x="2295" y="-219.97" font-family="Times New Roman,serif" font-size="12.00">Microbial Test</text>
</g>
<!-- 1990982190624 -->
<g id="node34" class="node">
<title>1990982190624</title>
<ellipse fill="white" stroke="black" cx="2400.5" cy="-279" rx="27" ry="27"/>
</g>
<!-- 1990981595216&#45;&gt;1990982190624 -->
<g id="edge32" class="edge">
<title>1990981595216&#45;&gt;1990982190624</title>
<path fill="none" stroke="black" d="M2331.33,-243.43C2342.51,-249.27 2354.84,-255.7 2365.9,-261.47"/>
<polygon fill="black" stroke="black" points="2364.21,-264.53 2374.69,-266.06 2367.44,-258.33 2364.21,-264.53"/>
</g>
<!-- 1990982192544 -->
<g id="node35" class="node">
<title>1990982192544</title>
<ellipse fill="white" stroke="black" cx="2400.5" cy="-207" rx="27" ry="27"/>
</g>
<!-- 1990981595216&#45;&gt;1990982192544 -->
<g id="edge31" class="edge">
<title>1990981595216&#45;&gt;1990982192544</title>
<path fill="none" stroke="black" d="M2337.8,-217.73C2345.94,-216.31 2354.42,-214.84 2362.4,-213.45"/>
<polygon fill="black" stroke="black" points="2362.89,-216.92 2372.14,-211.76 2361.69,-210.02 2362.89,-216.92"/>
</g>
<!-- 1990980117680 -->
<g id="node14" class="node">
<title>1990980117680</title>
<polygon fill="white" stroke="black" points="2562,-153 2467.25,-153 2467.25,-117 2562,-117 2562,-153"/>
<text text-anchor="middle" x="2514.62" y="-129.97" font-family="Times New Roman,serif" font-size="12.00">Traceability Log</text>
</g>
<!-- 1990982202624 -->
<g id="node39" class="node">
<title>1990982202624</title>
<ellipse fill="white" stroke="black" cx="2628.75" cy="-99" rx="27" ry="27"/>
</g>
<!-- 1990980117680&#45;&gt;1990982202624 -->
<g id="edge38" class="edge">
<title>1990980117680&#45;&gt;1990982202624</title>
<path fill="none" stroke="black" d="M2562.2,-120.05C2572.04,-116.89 2582.28,-113.6 2591.66,-110.59"/>
<polygon fill="black" stroke="black" points="2592.7,-113.93 2601.15,-107.54 2590.56,-107.26 2592.7,-113.93"/>
</g>
<!-- 1990982193264 -->
<g id="node41" class="node">
<title>1990982193264</title>
<ellipse fill="white" stroke="black" cx="2628.75" cy="-171" rx="27" ry="27"/>
</g>
<!-- 1990980117680&#45;&gt;1990982193264 -->
<g id="edge41" class="edge">
<title>1990980117680&#45;&gt;1990982193264</title>
<path fill="none" stroke="black" d="M2562.2,-149.95C2572.04,-153.11 2582.28,-156.4 2591.66,-159.41"/>
<polygon fill="black" stroke="black" points="2590.56,-162.74 2601.15,-162.46 2592.7,-156.07 2590.56,-162.74"/>
</g>
<!-- 1990980120368 -->
<g id="node15" class="node">
<title>1990980120368</title>
<polygon fill="white" stroke="black" points="2565.75,-279 2463.5,-279 2463.5,-243 2565.75,-243 2565.75,-279"/>
<text text-anchor="middle" x="2514.62" y="-255.97" font-family="Times New Roman,serif" font-size="12.00">Packaging Design</text>
</g>
<!-- 1990982189568 -->
<g id="node38" class="node">
<title>1990982189568</title>
<ellipse fill="white" stroke="black" cx="2628.75" cy="-243" rx="27" ry="27"/>
</g>
<!-- 1990980120368&#45;&gt;1990982189568 -->
<g id="edge40" class="edge">
<title>1990980120368&#45;&gt;1990982189568</title>
<path fill="none" stroke="black" d="M2566.11,-252.9C2574.29,-251.58 2582.64,-250.24 2590.43,-248.99"/>
<polygon fill="black" stroke="black" points="2590.94,-252.45 2600.26,-247.41 2589.83,-245.54 2590.94,-252.45"/>
</g>
<!-- 1990982190144 -->
<g id="node40" class="node">
<title>1990982190144</title>
<ellipse fill="white" stroke="black" cx="2628.75" cy="-315" rx="27" ry="27"/>
</g>
<!-- 1990980120368&#45;&gt;1990982190144 -->
<g id="edge39" class="edge">
<title>1990980120368&#45;&gt;1990982190144</title>
<path fill="none" stroke="black" d="M2553.9,-279.43C2566.88,-285.69 2581.29,-292.62 2593.91,-298.7"/>
<polygon fill="black" stroke="black" points="2592.12,-301.72 2602.65,-302.91 2595.16,-295.42 2592.12,-301.72"/>
</g>
<!-- 1990980117296 -->
<g id="node16" class="node">
<title>1990980117296</title>
<polygon fill="white" stroke="black" points="2792.5,-189 2691.75,-189 2691.75,-153 2792.5,-153 2792.5,-189"/>
<text text-anchor="middle" x="2742.12" y="-165.97" font-family="Times New Roman,serif" font-size="12.00">Distributor Notify</text>
</g>
<!-- 1990980122720 -->
<g id="node43" class="node">
<title>1990980122720</title>
<ellipse fill="white" stroke="black" cx="2855.5" cy="-171" rx="27" ry="27"/>
</g>
<!-- 1990980117296&#45;&gt;1990980122720 -->
<g id="edge47" class="edge">
<title>1990980117296&#45;&gt;1990980122720</title>
<path fill="none" stroke="black" d="M2792.95,-171C2800.93,-171 2809.08,-171 2816.72,-171"/>
<polygon fill="black" stroke="black" points="2816.7,-174.5 2826.7,-171 2816.7,-167.5 2816.7,-174.5"/>
</g>
<!-- 1990980121808 -->
<g id="node17" class="node">
<title>1990980121808</title>
<polygon fill="white" stroke="black" points="2785.75,-261 2698.5,-261 2698.5,-225 2785.75,-225 2785.75,-261"/>
<text text-anchor="middle" x="2742.12" y="-237.97" font-family="Times New Roman,serif" font-size="12.00">Retail Training</text>
</g>
<!-- 1990980115856 -->
<g id="node42" class="node">
<title>1990980115856</title>
<ellipse fill="white" stroke="black" cx="2855.5" cy="-243" rx="27" ry="27"/>
</g>
<!-- 1990980121808&#45;&gt;1990980115856 -->
<g id="edge46" class="edge">
<title>1990980121808&#45;&gt;1990980115856</title>
<path fill="none" stroke="black" d="M2786.19,-243C2796.28,-243 2806.96,-243 2816.8,-243"/>
<polygon fill="black" stroke="black" points="2816.78,-246.5 2826.78,-243 2816.78,-239.5 2816.78,-246.5"/>
</g>
<!-- 1990979651680 -->
<g id="node18" class="node">
<title>1990979651680</title>
<polygon fill="black" stroke="black" points="2972.5,-225 2918.5,-225 2918.5,-189 2972.5,-189 2972.5,-225"/>
</g>
<!-- 1990979058960 -->
<g id="node44" class="node">
<title>1990979058960</title>
<ellipse fill="white" stroke="black" cx="3039.5" cy="-207" rx="27" ry="27"/>
<ellipse fill="none" stroke="black" cx="3039.5" cy="-207" rx="31" ry="31"/>
<text text-anchor="start" x="3023" y="-191.6" font-family="Times New Roman,serif" font-size="32.00">■</text>
</g>
<!-- 1990979651680&#45;&gt;1990979058960 -->
<g id="edge50" class="edge">
<title>1990979651680&#45;&gt;1990979058960</title>
<path fill="none" stroke="black" d="M2972.62,-207C2980.13,-207 2988.51,-207 2996.72,-207"/>
<polygon fill="black" stroke="black" points="2996.58,-210.5 3006.58,-207 2996.58,-203.5 2996.58,-210.5"/>
</g>
<!-- 1990979048400 -->
<g id="node19" class="node">
<title>1990979048400</title>
<ellipse fill="white" stroke="black" cx="27" cy="-135" rx="27" ry="27"/>
<text text-anchor="start" x="9.75" y="-117.7" font-family="Times New Roman,serif" font-size="34.00">●</text>
</g>
<!-- 1990979048400&#45;&gt;1990976653216 -->
<g id="edge1" class="edge">
<title>1990979048400&#45;&gt;1990976653216</title>
<path fill="none" stroke="black" d="M54.29,-135C61.67,-135 69.98,-135 78.32,-135"/>
<polygon fill="black" stroke="black" points="78.14,-138.5 88.14,-135 78.14,-131.5 78.14,-138.5"/>
</g>
<!-- 1990976662432&#45;&gt;1990976657392 -->
<g id="edge3" class="edge">
<title>1990976662432&#45;&gt;1990976657392</title>
<path fill="none" stroke="black" d="M264.62,-135C271.97,-135 280.19,-135 288.4,-135"/>
<polygon fill="black" stroke="black" points="288.39,-138.5 298.39,-135 288.39,-131.5 288.39,-138.5"/>
</g>
<!-- 1990976665456&#45;&gt;1990976666032 -->
<g id="edge5" class="edge">
<title>1990976665456&#45;&gt;1990976666032</title>
<path fill="none" stroke="black" d="M467.41,-135C474.68,-135 482.87,-135 491.22,-135"/>
<polygon fill="black" stroke="black" points="491.11,-138.5 501.11,-135 491.11,-131.5 491.11,-138.5"/>
</g>
<!-- 1990981836560&#45;&gt;1990981843184 -->
<g id="edge7" class="edge">
<title>1990981836560&#45;&gt;1990981843184</title>
<path fill="none" stroke="black" d="M691.81,-135C699.13,-135 707.34,-135 715.55,-135"/>
<polygon fill="black" stroke="black" points="715.55,-138.5 725.55,-135 715.55,-131.5 715.55,-138.5"/>
</g>
<!-- 1990980110288&#45;&gt;1990980120560 -->
<g id="edge9" class="edge">
<title>1990980110288&#45;&gt;1990980120560</title>
<path fill="none" stroke="black" d="M896.08,-135C903.42,-135 911.63,-135 919.81,-135"/>
<polygon fill="black" stroke="black" points="919.74,-138.5 929.74,-135 919.74,-131.5 919.74,-138.5"/>
</g>
<!-- 1990980245200&#45;&gt;1990980251728 -->
<g id="edge11" class="edge">
<title>1990980245200&#45;&gt;1990980251728</title>
<path fill="none" stroke="black" d="M1096.67,-135C1103.97,-135 1112.19,-135 1120.52,-135"/>
<polygon fill="black" stroke="black" points="1120.38,-138.5 1130.38,-135 1120.38,-131.5 1120.38,-138.5"/>
</g>
<!-- 1990980245632&#45;&gt;1990980254416 -->
<g id="edge13" class="edge">
<title>1990980245632&#45;&gt;1990980254416</title>
<path fill="none" stroke="black" d="M1316.49,-135C1323.82,-135 1332.09,-135 1340.47,-135"/>
<polygon fill="black" stroke="black" points="1340.37,-138.5 1350.37,-135 1340.37,-131.5 1340.37,-138.5"/>
</g>
<!-- 1990980252784&#45;&gt;1990980253696 -->
<g id="edge15" class="edge">
<title>1990980252784&#45;&gt;1990980253696</title>
<path fill="none" stroke="black" d="M1535,-135C1542.27,-135 1550.52,-135 1559.03,-135"/>
<polygon fill="black" stroke="black" points="1558.8,-138.5 1568.8,-135 1558.8,-131.5 1558.8,-138.5"/>
</g>
<!-- 1990980246592&#45;&gt;1990979921600 -->
<g id="edge17" class="edge">
<title>1990980246592&#45;&gt;1990979921600</title>
<path fill="none" stroke="black" d="M1778.27,-135C1785.75,-135 1794.15,-135 1802.51,-135"/>
<polygon fill="black" stroke="black" points="1802.28,-138.5 1812.28,-135 1802.28,-131.5 1802.28,-138.5"/>
</g>
<!-- 1990979650960&#45;&gt;1990971037152 -->
<g id="edge21" class="edge">
<title>1990979650960&#45;&gt;1990971037152</title>
<path fill="none" stroke="black" d="M1980.38,-171C1987.74,-171 1996.08,-171 2004.64,-171"/>
<polygon fill="black" stroke="black" points="2004.44,-174.5 2014.44,-171 2004.44,-167.5 2004.44,-174.5"/>
</g>
<!-- 1990979922512&#45;&gt;1990977722400 -->
<g id="edge20" class="edge">
<title>1990979922512&#45;&gt;1990977722400</title>
<path fill="none" stroke="black" d="M1980.38,-99C1989.83,-99 2000.89,-99 2011.95,-99"/>
<polygon fill="black" stroke="black" points="2011.91,-102.5 2021.91,-99 2011.91,-95.5 2011.91,-102.5"/>
</g>
<!-- 1990982198784&#45;&gt;1990981595216 -->
<g id="edge27" class="edge">
<title>1990982198784&#45;&gt;1990981595216</title>
<path fill="none" stroke="black" d="M2216.62,-238.46C2224.11,-237.15 2232.57,-235.68 2241.06,-234.21"/>
<polygon fill="black" stroke="black" points="2241.44,-237.69 2250.69,-232.53 2240.24,-230.8 2241.44,-237.69"/>
</g>
<!-- 1990982202528&#45;&gt;1990981583024 -->
<g id="edge29" class="edge">
<title>1990982202528&#45;&gt;1990981583024</title>
<path fill="none" stroke="black" d="M2212.2,-155.91C2225.55,-146.62 2242.99,-134.49 2258.33,-123.81"/>
<polygon fill="black" stroke="black" points="2260.1,-126.84 2266.31,-118.26 2256.11,-121.1 2260.1,-126.84"/>
</g>
<!-- 1990982196432&#45;&gt;1990981583024 -->
<g id="edge28" class="edge">
<title>1990982196432&#45;&gt;1990981583024</title>
<path fill="none" stroke="black" d="M2212.2,-42.09C2225.55,-51.38 2242.99,-63.51 2258.33,-74.19"/>
<polygon fill="black" stroke="black" points="2256.11,-76.9 2266.31,-79.74 2260.1,-71.16 2256.11,-76.9"/>
</g>
<!-- 1990982201184&#45;&gt;1990981595216 -->
<g id="edge26" class="edge">
<title>1990982201184&#45;&gt;1990981595216</title>
<path fill="none" stroke="black" d="M2207.36,-119.52C2224.86,-140.82 2252.31,-174.25 2271.62,-197.75"/>
<polygon fill="black" stroke="black" points="2268.82,-199.86 2277.87,-205.37 2274.23,-195.42 2268.82,-199.86"/>
</g>
<!-- 1990982190624&#45;&gt;1990980120368 -->
<g id="edge36" class="edge">
<title>1990982190624&#45;&gt;1990980120368</title>
<path fill="none" stroke="black" d="M2427.51,-274.83C2434.88,-273.64 2443.25,-272.3 2451.79,-270.93"/>
<polygon fill="black" stroke="black" points="2452.24,-274.4 2461.56,-269.36 2451.13,-267.49 2452.24,-274.4"/>
</g>
<!-- 1990982192544&#45;&gt;1990980117680 -->
<g id="edge35" class="edge">
<title>1990982192544&#45;&gt;1990980117680</title>
<path fill="none" stroke="black" d="M2423.92,-192.6C2438.7,-183.12 2458.42,-170.45 2475.61,-159.41"/>
<polygon fill="black" stroke="black" points="2477.05,-162.65 2483.57,-154.3 2473.27,-156.76 2477.05,-162.65"/>
</g>
<!-- 1990982196288&#45;&gt;1990980120368 -->
<g id="edge34" class="edge">
<title>1990982196288&#45;&gt;1990980120368</title>
<path fill="none" stroke="black" d="M2419.27,-154.97C2438.32,-176.38 2468.68,-210.5 2489.8,-234.23"/>
<polygon fill="black" stroke="black" points="2487.13,-236.49 2496.39,-241.63 2492.36,-231.84 2487.13,-236.49"/>
</g>
<!-- 1990982202576&#45;&gt;1990980117680 -->
<g id="edge37" class="edge">
<title>1990982202576&#45;&gt;1990980117680</title>
<path fill="none" stroke="black" d="M2423.92,-77.4C2438.7,-86.88 2458.42,-99.55 2475.61,-110.59"/>
<polygon fill="black" stroke="black" points="2473.27,-113.24 2483.57,-115.7 2477.05,-107.35 2473.27,-113.24"/>
</g>
<!-- 1990982189568&#45;&gt;1990980117296 -->
<g id="edge42" class="edge">
<title>1990982189568&#45;&gt;1990980117296</title>
<path fill="none" stroke="black" d="M2652.02,-228.6C2666.56,-219.2 2685.92,-206.69 2702.88,-195.72"/>
<polygon fill="black" stroke="black" points="2704.77,-198.67 2711.27,-190.3 2700.97,-192.79 2704.77,-198.67"/>
</g>
<!-- 1990982202624&#45;&gt;1990980117296 -->
<g id="edge45" class="edge">
<title>1990982202624&#45;&gt;1990980117296</title>
<path fill="none" stroke="black" d="M2652.02,-113.4C2666.56,-122.8 2685.92,-135.31 2702.88,-146.28"/>
<polygon fill="black" stroke="black" points="2700.97,-149.21 2711.27,-151.7 2704.77,-143.33 2700.97,-149.21"/>
</g>
<!-- 1990982190144&#45;&gt;1990980121808 -->
<g id="edge43" class="edge">
<title>1990982190144&#45;&gt;1990980121808</title>
<path fill="none" stroke="black" d="M2652.02,-300.6C2666.56,-291.2 2685.92,-278.69 2702.88,-267.72"/>
<polygon fill="black" stroke="black" points="2704.77,-270.67 2711.27,-262.3 2700.97,-264.79 2704.77,-270.67"/>
</g>
<!-- 1990982193264&#45;&gt;1990980121808 -->
<g id="edge44" class="edge">
<title>1990982193264&#45;&gt;1990980121808</title>
<path fill="none" stroke="black" d="M2652.02,-185.4C2666.56,-194.8 2685.92,-207.31 2702.88,-218.28"/>
<polygon fill="black" stroke="black" points="2700.97,-221.21 2711.27,-223.7 2704.77,-215.33 2700.97,-221.21"/>
</g>
<!-- 1990980115856&#45;&gt;1990979651680 -->
<g id="edge49" class="edge">
<title>1990980115856&#45;&gt;1990979651680</title>
<path fill="none" stroke="black" d="M2881.01,-232.97C2889.26,-229.6 2898.64,-225.76 2907.62,-222.09"/>
<polygon fill="black" stroke="black" points="2908.94,-225.33 2916.87,-218.3 2906.29,-218.85 2908.94,-225.33"/>
</g>
<!-- 1990980122720&#45;&gt;1990979651680 -->
<g id="edge48" class="edge">
<title>1990980122720&#45;&gt;1990979651680</title>
<path fill="none" stroke="black" d="M2881.01,-181.03C2889.26,-184.4 2898.64,-188.24 2907.62,-191.91"/>
<polygon fill="black" stroke="black" points="2906.29,-195.15 2916.87,-195.7 2908.94,-188.67 2906.29,-195.15"/>
</g>
</g>
</svg>
