<?xml version="1.0" encoding="UTF-8" standalone="no"?>
<!DOCTYPE svg PUBLIC "-//W3C//DTD SVG 1.1//EN"
 "http://www.w3.org/Graphics/SVG/1.1/DTD/svg11.dtd">
<!-- Generated by graphviz version 11.0.0 (20240428.1522)
 -->
<!-- Title: imdf_net_1754052021.3245292 Pages: 1 -->
<svg width="3130pt" height="170pt"
 viewBox="0.00 0.00 3130.00 170.00" xmlns="http://www.w3.org/2000/svg" xmlns:xlink="http://www.w3.org/1999/xlink">
<g id="graph0" class="graph" transform="scale(1 1) rotate(0) translate(4 166)">
<title>imdf_net_1754052021.3245292</title>
<polygon fill="white" stroke="none" points="-4,4 -4,-166 3126,-166 3126,4 -4,4"/>
<!-- 1990977726528 -->
<g id="node1" class="node">
<title>1990977726528</title>
<polygon fill="white" stroke="black" points="160.75,-151 90,-151 90,-115 160.75,-115 160.75,-151"/>
<text text-anchor="middle" x="125.38" y="-127.97" font-family="Times New Roman,serif" font-size="12.00">Site Survey</text>
</g>
<!-- 1990977716736 -->
<g id="node18" class="node">
<title>1990977716736</title>
<ellipse fill="white" stroke="black" cx="223.75" cy="-133" rx="27" ry="27"/>
</g>
<!-- 1990977726528&#45;&gt;1990977716736 -->
<g id="edge2" class="edge">
<title>1990977726528&#45;&gt;1990977716736</title>
<path fill="none" stroke="black" d="M161.17,-133C168.9,-133 177.14,-133 184.98,-133"/>
<polygon fill="black" stroke="black" points="184.97,-136.5 194.97,-133 184.97,-129.5 184.97,-136.5"/>
</g>
<!-- 1990977716304 -->
<g id="node2" class="node">
<title>1990977716304</title>
<polygon fill="white" stroke="black" points="380.75,-151 286.75,-151 286.75,-115 380.75,-115 380.75,-151"/>
<text text-anchor="middle" x="333.75" y="-127.97" font-family="Times New Roman,serif" font-size="12.00">Env Assessment</text>
</g>
<!-- 1990977718272 -->
<g id="node19" class="node">
<title>1990977718272</title>
<ellipse fill="white" stroke="black" cx="443.75" cy="-133" rx="27" ry="27"/>
</g>
<!-- 1990977716304&#45;&gt;1990977718272 -->
<g id="edge4" class="edge">
<title>1990977716304&#45;&gt;1990977718272</title>
<path fill="none" stroke="black" d="M381.18,-133C389.06,-133 397.16,-133 404.78,-133"/>
<polygon fill="black" stroke="black" points="404.77,-136.5 414.77,-133 404.77,-129.5 404.77,-136.5"/>
</g>
<!-- 1990977726720 -->
<g id="node3" class="node">
<title>1990977726720</title>
<polygon fill="white" stroke="black" points="576,-151 506.75,-151 506.75,-115 576,-115 576,-151"/>
<text text-anchor="middle" x="541.38" y="-127.97" font-family="Times New Roman,serif" font-size="12.00">Reg Check</text>
</g>
<!-- 1990981521520 -->
<g id="node20" class="node">
<title>1990981521520</title>
<ellipse fill="white" stroke="black" cx="639" cy="-133" rx="27" ry="27"/>
</g>
<!-- 1990977726720&#45;&gt;1990981521520 -->
<g id="edge6" class="edge">
<title>1990977726720&#45;&gt;1990981521520</title>
<path fill="none" stroke="black" d="M576.36,-133C584.06,-133 592.28,-133 600.13,-133"/>
<polygon fill="black" stroke="black" points="600.13,-136.5 610.13,-133 600.13,-129.5 600.13,-136.5"/>
</g>
<!-- 1990981523536 -->
<g id="node4" class="node">
<title>1990981523536</title>
<polygon fill="white" stroke="black" points="801.25,-151 702,-151 702,-115 801.25,-115 801.25,-151"/>
<text text-anchor="middle" x="751.62" y="-127.97" font-family="Times New Roman,serif" font-size="12.00">Stakeholder Meet</text>
</g>
<!-- 1990981522816 -->
<g id="node21" class="node">
<title>1990981522816</title>
<ellipse fill="white" stroke="black" cx="864.25" cy="-133" rx="27" ry="27"/>
</g>
<!-- 1990981523536&#45;&gt;1990981522816 -->
<g id="edge8" class="edge">
<title>1990981523536&#45;&gt;1990981522816</title>
<path fill="none" stroke="black" d="M801.47,-133C809.54,-133 817.8,-133 825.54,-133"/>
<polygon fill="black" stroke="black" points="825.3,-136.5 835.3,-133 825.3,-129.5 825.3,-136.5"/>
</g>
<!-- 1990981525552 -->
<g id="node5" class="node">
<title>1990981525552</title>
<polygon fill="white" stroke="black" points="1007,-151 927.25,-151 927.25,-115 1007,-115 1007,-151"/>
<text text-anchor="middle" x="967.12" y="-127.97" font-family="Times New Roman,serif" font-size="12.00">Permit Apply</text>
</g>
<!-- 1990981524928 -->
<g id="node22" class="node">
<title>1990981524928</title>
<ellipse fill="white" stroke="black" cx="1070" cy="-133" rx="27" ry="27"/>
</g>
<!-- 1990981525552&#45;&gt;1990981524928 -->
<g id="edge10" class="edge">
<title>1990981525552&#45;&gt;1990981524928</title>
<path fill="none" stroke="black" d="M1007.41,-133C1015.28,-133 1023.52,-133 1031.32,-133"/>
<polygon fill="black" stroke="black" points="1031.22,-136.5 1041.22,-133 1031.22,-129.5 1031.22,-136.5"/>
</g>
<!-- 1990981524256 -->
<g id="node6" class="node">
<title>1990981524256</title>
<polygon fill="white" stroke="black" points="1202.25,-151 1133,-151 1133,-115 1202.25,-115 1202.25,-151"/>
<text text-anchor="middle" x="1167.62" y="-127.97" font-family="Times New Roman,serif" font-size="12.00">Hive Setup</text>
</g>
<!-- 1990981528864 -->
<g id="node23" class="node">
<title>1990981528864</title>
<ellipse fill="white" stroke="black" cx="1265.25" cy="-133" rx="27" ry="27"/>
</g>
<!-- 1990981524256&#45;&gt;1990981528864 -->
<g id="edge12" class="edge">
<title>1990981524256&#45;&gt;1990981528864</title>
<path fill="none" stroke="black" d="M1202.61,-133C1210.31,-133 1218.53,-133 1226.38,-133"/>
<polygon fill="black" stroke="black" points="1226.38,-136.5 1236.38,-133 1226.38,-129.5 1226.38,-136.5"/>
</g>
<!-- 1990981529152 -->
<g id="node7" class="node">
<title>1990981529152</title>
<polygon fill="white" stroke="black" points="1427.5,-151 1328.25,-151 1328.25,-115 1427.5,-115 1427.5,-151"/>
<text text-anchor="middle" x="1377.88" y="-127.97" font-family="Times New Roman,serif" font-size="12.00">Colony Introduce</text>
</g>
<!-- 1990976888304 -->
<g id="node24" class="node">
<title>1990976888304</title>
<ellipse fill="white" stroke="black" cx="1490.5" cy="-133" rx="27" ry="27"/>
</g>
<!-- 1990981529152&#45;&gt;1990976888304 -->
<g id="edge14" class="edge">
<title>1990981529152&#45;&gt;1990976888304</title>
<path fill="none" stroke="black" d="M1427.72,-133C1435.79,-133 1444.05,-133 1451.79,-133"/>
<polygon fill="black" stroke="black" points="1451.55,-136.5 1461.55,-133 1451.55,-129.5 1451.55,-136.5"/>
</g>
<!-- 1990976895504 -->
<g id="node8" class="node">
<title>1990976895504</title>
<polygon fill="white" stroke="black" points="1644.5,-151 1553.5,-151 1553.5,-115 1644.5,-115 1644.5,-151"/>
<text text-anchor="middle" x="1599" y="-127.97" font-family="Times New Roman,serif" font-size="12.00">Workshop Host</text>
</g>
<!-- 1990980029856 -->
<g id="node25" class="node">
<title>1990980029856</title>
<ellipse fill="white" stroke="black" cx="1707.5" cy="-133" rx="27" ry="27"/>
</g>
<!-- 1990976895504&#45;&gt;1990980029856 -->
<g id="edge16" class="edge">
<title>1990976895504&#45;&gt;1990980029856</title>
<path fill="none" stroke="black" d="M1644.86,-133C1652.86,-133 1661.12,-133 1668.9,-133"/>
<polygon fill="black" stroke="black" points="1668.71,-136.5 1678.71,-133 1668.71,-129.5 1668.71,-136.5"/>
</g>
<!-- 1990980032400 -->
<g id="node9" class="node">
<title>1990980032400</title>
<polygon fill="white" stroke="black" points="1859.25,-128 1770.5,-128 1770.5,-92 1859.25,-92 1859.25,-128"/>
<text text-anchor="middle" x="1814.88" y="-104.97" font-family="Times New Roman,serif" font-size="12.00">Health Monitor</text>
</g>
<!-- 1990980039456 -->
<g id="node26" class="node">
<title>1990980039456</title>
<ellipse fill="white" stroke="black" cx="1922.25" cy="-103" rx="27" ry="27"/>
</g>
<!-- 1990980032400&#45;&gt;1990980039456 -->
<g id="edge18" class="edge">
<title>1990980032400&#45;&gt;1990980039456</title>
<path fill="none" stroke="black" d="M1859.65,-107.09C1867.61,-106.56 1875.85,-106.02 1883.61,-105.5"/>
<polygon fill="black" stroke="black" points="1883.68,-109 1893.42,-104.85 1883.21,-102.02 1883.68,-109"/>
</g>
<!-- 1990981416576 -->
<g id="node10" class="node">
<title>1990981416576</title>
<polygon fill="black" stroke="black" points="2049.88,-121 1995.88,-121 1995.88,-85 2049.88,-85 2049.88,-121"/>
</g>
<!-- 1990980879376 -->
<g id="node28" class="node">
<title>1990980879376</title>
<ellipse fill="white" stroke="black" cx="2127.5" cy="-103" rx="27" ry="27"/>
<ellipse fill="none" stroke="black" cx="2127.5" cy="-103" rx="31" ry="31"/>
<text text-anchor="start" x="2111" y="-87.6" font-family="Times New Roman,serif" font-size="32.00">■</text>
</g>
<!-- 1990981416576&#45;&gt;1990980879376 -->
<g id="edge22" class="edge">
<title>1990981416576&#45;&gt;1990980879376</title>
<path fill="none" stroke="black" d="M2050.3,-103C2060.82,-103 2073.17,-103 2084.83,-103"/>
<polygon fill="black" stroke="black" points="2084.65,-106.5 2094.65,-103 2084.65,-99.5 2084.65,-106.5"/>
</g>
<!-- 1990976659648 -->
<g id="node11" class="node">
<title>1990976659648</title>
<polygon fill="white" stroke="black" points="2060.5,-56 1985.25,-56 1985.25,-20 2060.5,-20 2060.5,-56"/>
<text text-anchor="middle" x="2022.88" y="-32.98" font-family="Times New Roman,serif" font-size="12.00">Data Collect</text>
</g>
<!-- 1990976655328 -->
<g id="node27" class="node">
<title>1990976655328</title>
<ellipse fill="white" stroke="black" cx="2127.5" cy="-27" rx="27" ry="27"/>
</g>
<!-- 1990976659648&#45;&gt;1990976655328 -->
<g id="edge21" class="edge">
<title>1990976659648&#45;&gt;1990976655328</title>
<path fill="none" stroke="black" d="M2060.92,-34.03C2070.13,-33.04 2080,-31.98 2089.21,-31"/>
<polygon fill="black" stroke="black" points="2089.36,-34.5 2098.93,-29.95 2088.62,-27.54 2089.36,-34.5"/>
</g>
<!-- 1990976662624 -->
<g id="node12" class="node">
<title>1990976662624</title>
<polygon fill="white" stroke="black" points="2285.5,-63 2194.5,-63 2194.5,-27 2285.5,-27 2285.5,-63"/>
<text text-anchor="middle" x="2240" y="-39.98" font-family="Times New Roman,serif" font-size="12.00">Impact Analyze</text>
</g>
<!-- 1990981524736 -->
<g id="node29" class="node">
<title>1990981524736</title>
<ellipse fill="white" stroke="black" cx="2348.5" cy="-81" rx="27" ry="27"/>
</g>
<!-- 1990976662624&#45;&gt;1990981524736 -->
<g id="edge24" class="edge">
<title>1990976662624&#45;&gt;1990981524736</title>
<path fill="none" stroke="black" d="M2285.86,-60.16C2294.46,-63.07 2303.35,-66.08 2311.62,-68.87"/>
<polygon fill="black" stroke="black" points="2310.4,-72.15 2320.99,-72.04 2312.64,-65.52 2310.4,-72.15"/>
</g>
<!-- 1990977564080 -->
<g id="node13" class="node">
<title>1990977564080</title>
<polygon fill="white" stroke="black" points="2508.5,-118 2411.5,-118 2411.5,-82 2508.5,-82 2508.5,-118"/>
<text text-anchor="middle" x="2460" y="-94.97" font-family="Times New Roman,serif" font-size="12.00">Feedback Gather</text>
</g>
<!-- 1990977552560 -->
<g id="node30" class="node">
<title>1990977552560</title>
<ellipse fill="white" stroke="black" cx="2571.5" cy="-104" rx="27" ry="27"/>
</g>
<!-- 1990977564080&#45;&gt;1990977552560 -->
<g id="edge26" class="edge">
<title>1990977564080&#45;&gt;1990977552560</title>
<path fill="none" stroke="black" d="M2508.71,-101.74C2516.82,-102.04 2525.15,-102.34 2532.95,-102.63"/>
<polygon fill="black" stroke="black" points="2532.67,-106.12 2542.79,-102.99 2532.92,-99.12 2532.67,-106.12"/>
</g>
<!-- 1990977553568 -->
<g id="node14" class="node">
<title>1990977553568</title>
<polygon fill="white" stroke="black" points="2709,-124 2634.5,-124 2634.5,-88 2709,-88 2709,-124"/>
<text text-anchor="middle" x="2671.75" y="-100.97" font-family="Times New Roman,serif" font-size="12.00">Plan Update</text>
</g>
<!-- 1990982117248 -->
<g id="node31" class="node">
<title>1990982117248</title>
<ellipse fill="white" stroke="black" cx="2772" cy="-107" rx="27" ry="27"/>
</g>
<!-- 1990977553568&#45;&gt;1990982117248 -->
<g id="edge28" class="edge">
<title>1990977553568&#45;&gt;1990982117248</title>
<path fill="none" stroke="black" d="M2709.33,-106.37C2717.09,-106.45 2725.29,-106.53 2733.09,-106.61"/>
<polygon fill="black" stroke="black" points="2732.96,-110.11 2743,-106.71 2733.04,-103.11 2732.96,-110.11"/>
</g>
<!-- 1990982108224 -->
<g id="node15" class="node">
<title>1990982108224</title>
<polygon fill="white" stroke="black" points="2911.75,-125 2835,-125 2835,-89 2911.75,-89 2911.75,-125"/>
<text text-anchor="middle" x="2873.38" y="-101.97" font-family="Times New Roman,serif" font-size="12.00">Maintenance</text>
</g>
<!-- 1990982115328 -->
<g id="node32" class="node">
<title>1990982115328</title>
<ellipse fill="white" stroke="black" cx="2974.75" cy="-107" rx="27" ry="27"/>
</g>
<!-- 1990982108224&#45;&gt;1990982115328 -->
<g id="edge30" class="edge">
<title>1990982108224&#45;&gt;1990982115328</title>
<path fill="none" stroke="black" d="M2912.23,-107C2920.02,-107 2928.23,-107 2936.02,-107"/>
<polygon fill="black" stroke="black" points="2935.9,-110.5 2945.9,-107 2935.9,-103.5 2935.9,-110.5"/>
</g>
<!-- 1990982114272 -->
<g id="node16" class="node">
<title>1990982114272</title>
<polygon fill="white" stroke="black" points="3122,-152 3037.75,-152 3037.75,-116 3122,-116 3122,-152"/>
<text text-anchor="middle" x="3079.88" y="-128.97" font-family="Times New Roman,serif" font-size="12.00">Crisis Manage</text>
</g>
<!-- 1990982114272&#45;&gt;1990980029856 -->
<g id="edge32" class="edge">
<title>1990982114272&#45;&gt;1990980029856</title>
<path fill="none" stroke="black" d="M3037.58,-143.01C2996.44,-151.2 2931.35,-162 2874.38,-162 1921.25,-162 1921.25,-162 1921.25,-162 1859.07,-162 1787.59,-149.69 1745.33,-141.11"/>
<polygon fill="black" stroke="black" points="1746.2,-137.71 1735.7,-139.11 1744.78,-144.57 1746.2,-137.71"/>
</g>
<!-- 1990980884800 -->
<g id="node17" class="node">
<title>1990980884800</title>
<ellipse fill="white" stroke="black" cx="27" cy="-133" rx="27" ry="27"/>
<text text-anchor="start" x="9.75" y="-115.7" font-family="Times New Roman,serif" font-size="34.00">●</text>
</g>
<!-- 1990980884800&#45;&gt;1990977726528 -->
<g id="edge1" class="edge">
<title>1990980884800&#45;&gt;1990977726528</title>
<path fill="none" stroke="black" d="M54.33,-133C61.76,-133 70.06,-133 78.28,-133"/>
<polygon fill="black" stroke="black" points="78.24,-136.5 88.24,-133 78.24,-129.5 78.24,-136.5"/>
</g>
<!-- 1990977716736&#45;&gt;1990977716304 -->
<g id="edge3" class="edge">
<title>1990977716736&#45;&gt;1990977716304</title>
<path fill="none" stroke="black" d="M251.17,-133C258.47,-133 266.69,-133 275.02,-133"/>
<polygon fill="black" stroke="black" points="274.88,-136.5 284.88,-133 274.88,-129.5 274.88,-136.5"/>
</g>
<!-- 1990977718272&#45;&gt;1990977726720 -->
<g id="edge5" class="edge">
<title>1990977718272&#45;&gt;1990977726720</title>
<path fill="none" stroke="black" d="M471.13,-133C478.57,-133 486.89,-133 495.1,-133"/>
<polygon fill="black" stroke="black" points="495.03,-136.5 505.03,-133 495.03,-129.5 495.03,-136.5"/>
</g>
<!-- 1990981521520&#45;&gt;1990981523536 -->
<g id="edge7" class="edge">
<title>1990981521520&#45;&gt;1990981523536</title>
<path fill="none" stroke="black" d="M666.5,-133C673.79,-133 682.02,-133 690.39,-133"/>
<polygon fill="black" stroke="black" points="690.32,-136.5 700.32,-133 690.32,-129.5 690.32,-136.5"/>
</g>
<!-- 1990981522816&#45;&gt;1990981525552 -->
<g id="edge9" class="edge">
<title>1990981522816&#45;&gt;1990981525552</title>
<path fill="none" stroke="black" d="M891.49,-133C898.96,-133 907.35,-133 915.74,-133"/>
<polygon fill="black" stroke="black" points="915.58,-136.5 925.58,-133 915.58,-129.5 915.58,-136.5"/>
</g>
<!-- 1990981524928&#45;&gt;1990981524256 -->
<g id="edge11" class="edge">
<title>1990981524928&#45;&gt;1990981524256</title>
<path fill="none" stroke="black" d="M1097.38,-133C1104.82,-133 1113.14,-133 1121.35,-133"/>
<polygon fill="black" stroke="black" points="1121.28,-136.5 1131.28,-133 1121.28,-129.5 1121.28,-136.5"/>
</g>
<!-- 1990981528864&#45;&gt;1990981529152 -->
<g id="edge13" class="edge">
<title>1990981528864&#45;&gt;1990981529152</title>
<path fill="none" stroke="black" d="M1292.75,-133C1300.04,-133 1308.27,-133 1316.64,-133"/>
<polygon fill="black" stroke="black" points="1316.57,-136.5 1326.57,-133 1316.57,-129.5 1316.57,-136.5"/>
</g>
<!-- 1990976888304&#45;&gt;1990976895504 -->
<g id="edge15" class="edge">
<title>1990976888304&#45;&gt;1990976895504</title>
<path fill="none" stroke="black" d="M1517.83,-133C1525.19,-133 1533.5,-133 1541.89,-133"/>
<polygon fill="black" stroke="black" points="1541.81,-136.5 1551.81,-133 1541.81,-129.5 1541.81,-136.5"/>
</g>
<!-- 1990980029856&#45;&gt;1990980032400 -->
<g id="edge17" class="edge">
<title>1990980029856&#45;&gt;1990980032400</title>
<path fill="none" stroke="black" d="M1734.28,-127.37C1741.9,-125.71 1750.56,-123.82 1759.28,-121.92"/>
<polygon fill="black" stroke="black" points="1759.79,-125.39 1768.82,-119.83 1758.3,-118.55 1759.79,-125.39"/>
</g>
<!-- 1990980039456&#45;&gt;1990981416576 -->
<g id="edge19" class="edge">
<title>1990980039456&#45;&gt;1990981416576</title>
<path fill="none" stroke="black" d="M1949.68,-103C1960.38,-103 1972.92,-103 1984.53,-103"/>
<polygon fill="black" stroke="black" points="1984.2,-106.5 1994.2,-103 1984.2,-99.5 1984.2,-106.5"/>
</g>
<!-- 1990980039456&#45;&gt;1990976659648 -->
<g id="edge20" class="edge">
<title>1990980039456&#45;&gt;1990976659648</title>
<path fill="none" stroke="black" d="M1945.14,-88.57C1956.74,-80.93 1971.3,-71.33 1984.62,-62.55"/>
<polygon fill="black" stroke="black" points="1986.35,-65.61 1992.77,-57.18 1982.5,-59.76 1986.35,-65.61"/>
</g>
<!-- 1990976655328&#45;&gt;1990976662624 -->
<g id="edge23" class="edge">
<title>1990976655328&#45;&gt;1990976662624</title>
<path fill="none" stroke="black" d="M2154.41,-31.22C2163.03,-32.62 2172.99,-34.25 2182.99,-35.88"/>
<polygon fill="black" stroke="black" points="2182.29,-39.31 2192.72,-37.46 2183.42,-32.4 2182.29,-39.31"/>
</g>
<!-- 1990981524736&#45;&gt;1990977564080 -->
<g id="edge25" class="edge">
<title>1990981524736&#45;&gt;1990977564080</title>
<path fill="none" stroke="black" d="M2375.45,-85.5C2382.93,-86.8 2391.4,-88.27 2400.02,-89.77"/>
<polygon fill="black" stroke="black" points="2399.41,-93.21 2409.87,-91.47 2400.61,-86.32 2399.41,-93.21"/>
</g>
<!-- 1990977552560&#45;&gt;1990977553568 -->
<g id="edge27" class="edge">
<title>1990977552560&#45;&gt;1990977553568</title>
<path fill="none" stroke="black" d="M2598.83,-104.54C2606.17,-104.69 2614.38,-104.85 2622.56,-105.02"/>
<polygon fill="black" stroke="black" points="2622.42,-108.52 2632.49,-105.22 2622.57,-101.52 2622.42,-108.52"/>
</g>
<!-- 1990982117248&#45;&gt;1990982108224 -->
<g id="edge29" class="edge">
<title>1990982117248&#45;&gt;1990982108224</title>
<path fill="none" stroke="black" d="M2799.37,-107C2806.72,-107 2814.94,-107 2823.15,-107"/>
<polygon fill="black" stroke="black" points="2823.14,-110.5 2833.14,-107 2823.14,-103.5 2823.14,-110.5"/>
</g>
<!-- 1990982115328&#45;&gt;1990982114272 -->
<g id="edge31" class="edge">
<title>1990982115328&#45;&gt;1990982114272</title>
<path fill="none" stroke="black" d="M3001.24,-113.67C3008.96,-115.69 3017.73,-117.99 3026.54,-120.3"/>
<polygon fill="black" stroke="black" points="3025.6,-123.67 3036.16,-122.82 3027.37,-116.9 3025.6,-123.67"/>
</g>
</g>
</svg>
