<?xml version="1.0" encoding="UTF-8" standalone="no"?>
<!DOCTYPE svg PUBLIC "-//W3C//DTD SVG 1.1//EN"
 "http://www.w3.org/Graphics/SVG/1.1/DTD/svg11.dtd">
<!-- Generated by graphviz version 11.0.0 (20240428.1522)
 -->
<!-- Title: imdf_net_1754052035.4812331 Pages: 1 -->
<svg width="2804pt" height="566pt"
 viewBox="0.00 0.00 2804.00 566.00" xmlns="http://www.w3.org/2000/svg" xmlns:xlink="http://www.w3.org/1999/xlink">
<g id="graph0" class="graph" transform="scale(1 1) rotate(0) translate(4 562)">
<title>imdf_net_1754052035.4812331</title>
<polygon fill="white" stroke="none" points="-4,4 -4,-562 2800,-562 2800,4 -4,4"/>
<!-- 1990978077568 -->
<g id="node1" class="node">
<title>1990978077568</title>
<polygon fill="white" stroke="black" points="160.75,-369 90,-369 90,-333 160.75,-333 160.75,-369"/>
<text text-anchor="middle" x="125.38" y="-345.98" font-family="Times New Roman,serif" font-size="12.00">Site Survey</text>
</g>
<!-- 1990978088080 -->
<g id="node20" class="node">
<title>1990978088080</title>
<ellipse fill="white" stroke="black" cx="223.75" cy="-351" rx="27" ry="27"/>
</g>
<!-- 1990978077568&#45;&gt;1990978088080 -->
<g id="edge2" class="edge">
<title>1990978077568&#45;&gt;1990978088080</title>
<path fill="none" stroke="black" d="M161.17,-351C168.9,-351 177.14,-351 184.98,-351"/>
<polygon fill="black" stroke="black" points="184.97,-354.5 194.97,-351 184.97,-347.5 184.97,-354.5"/>
</g>
<!-- 1990978091056 -->
<g id="node2" class="node">
<title>1990978091056</title>
<polygon fill="white" stroke="black" points="368,-369 286.75,-369 286.75,-333 368,-333 368,-369"/>
<text text-anchor="middle" x="327.38" y="-345.98" font-family="Times New Roman,serif" font-size="12.00">Space Design</text>
</g>
<!-- 1990978088560 -->
<g id="node21" class="node">
<title>1990978088560</title>
<ellipse fill="white" stroke="black" cx="431" cy="-351" rx="27" ry="27"/>
</g>
<!-- 1990978091056&#45;&gt;1990978088560 -->
<g id="edge4" class="edge">
<title>1990978091056&#45;&gt;1990978088560</title>
<path fill="none" stroke="black" d="M368.25,-351C376.15,-351 384.42,-351 392.25,-351"/>
<polygon fill="black" stroke="black" points="392.17,-354.5 402.17,-351 392.17,-347.5 392.17,-354.5"/>
</g>
<!-- 1990978084960 -->
<g id="node3" class="node">
<title>1990978084960</title>
<polygon fill="white" stroke="black" points="589.5,-369 494,-369 494,-333 589.5,-333 589.5,-369"/>
<text text-anchor="middle" x="541.75" y="-345.98" font-family="Times New Roman,serif" font-size="12.00">Structural Check</text>
</g>
<!-- 1990981526080 -->
<g id="node22" class="node">
<title>1990981526080</title>
<ellipse fill="white" stroke="black" cx="652.5" cy="-351" rx="27" ry="27"/>
</g>
<!-- 1990978084960&#45;&gt;1990981526080 -->
<g id="edge6" class="edge">
<title>1990978084960&#45;&gt;1990981526080</title>
<path fill="none" stroke="black" d="M589.82,-351C597.82,-351 606.04,-351 613.77,-351"/>
<polygon fill="black" stroke="black" points="613.5,-354.5 623.5,-351 613.5,-347.5 613.5,-354.5"/>
</g>
<!-- 1990981528816 -->
<g id="node4" class="node">
<title>1990981528816</title>
<polygon fill="white" stroke="black" points="802.75,-369 715.5,-369 715.5,-333 802.75,-333 802.75,-369"/>
<text text-anchor="middle" x="759.12" y="-345.98" font-family="Times New Roman,serif" font-size="12.00">System Layout</text>
</g>
<!-- 1990981530880 -->
<g id="node23" class="node">
<title>1990981530880</title>
<ellipse fill="white" stroke="black" cx="865.75" cy="-387" rx="27" ry="27"/>
</g>
<!-- 1990981528816&#45;&gt;1990981530880 -->
<g id="edge8" class="edge">
<title>1990981528816&#45;&gt;1990981530880</title>
<path fill="none" stroke="black" d="M802.98,-365.75C811.69,-368.74 820.77,-371.87 829.19,-374.76"/>
<polygon fill="black" stroke="black" points="827.78,-377.98 838.38,-377.93 830.06,-371.36 827.78,-377.98"/>
</g>
<!-- 1990982107792 -->
<g id="node24" class="node">
<title>1990982107792</title>
<ellipse fill="white" stroke="black" cx="865.75" cy="-459" rx="27" ry="27"/>
</g>
<!-- 1990981528816&#45;&gt;1990982107792 -->
<g id="edge11" class="edge">
<title>1990981528816&#45;&gt;1990982107792</title>
<path fill="none" stroke="black" d="M777.87,-369.32C794.43,-386.41 819.35,-412.13 838.26,-431.65"/>
<polygon fill="black" stroke="black" points="835.68,-434.03 845.16,-438.77 840.71,-429.16 835.68,-434.03"/>
</g>
<!-- 1990981525168 -->
<g id="node25" class="node">
<title>1990981525168</title>
<ellipse fill="white" stroke="black" cx="865.75" cy="-315" rx="27" ry="27"/>
</g>
<!-- 1990981528816&#45;&gt;1990981525168 -->
<g id="edge10" class="edge">
<title>1990981528816&#45;&gt;1990981525168</title>
<path fill="none" stroke="black" d="M802.98,-336.25C811.69,-333.26 820.77,-330.13 829.19,-327.24"/>
<polygon fill="black" stroke="black" points="830.06,-330.64 838.38,-324.07 827.78,-324.02 830.06,-330.64"/>
</g>
<!-- 1990981519072 -->
<g id="node26" class="node">
<title>1990981519072</title>
<ellipse fill="white" stroke="black" cx="865.75" cy="-243" rx="27" ry="27"/>
</g>
<!-- 1990981528816&#45;&gt;1990981519072 -->
<g id="edge9" class="edge">
<title>1990981528816&#45;&gt;1990981519072</title>
<path fill="none" stroke="black" d="M777.87,-332.68C794.43,-315.59 819.35,-289.87 838.26,-270.35"/>
<polygon fill="black" stroke="black" points="840.71,-272.84 845.16,-263.23 835.68,-267.97 840.71,-272.84"/>
</g>
<!-- 1990981527760 -->
<g id="node5" class="node">
<title>1990981527760</title>
<polygon fill="white" stroke="black" points="1014.88,-333 935.12,-333 935.12,-297 1014.88,-297 1014.88,-333"/>
<text text-anchor="middle" x="975" y="-309.98" font-family="Times New Roman,serif" font-size="12.00">Sensor Install</text>
</g>
<!-- 1990979658064 -->
<g id="node31" class="node">
<title>1990979658064</title>
<ellipse fill="white" stroke="black" cx="1084.25" cy="-99" rx="27" ry="27"/>
</g>
<!-- 1990981527760&#45;&gt;1990979658064 -->
<g id="edge16" class="edge">
<title>1990981527760&#45;&gt;1990979658064</title>
<path fill="none" stroke="black" d="M998.81,-296.79C1006.93,-289.27 1015.48,-279.97 1021.25,-270 1052.34,-216.25 1030.63,-191.1 1057.25,-135 1058.19,-133.01 1059.25,-131.03 1060.38,-129.06"/>
<polygon fill="black" stroke="black" points="1063.23,-131.1 1065.67,-120.79 1057.33,-127.32 1063.23,-131.1"/>
</g>
<!-- 1990979662288 -->
<g id="node32" class="node">
<title>1990979662288</title>
<ellipse fill="white" stroke="black" cx="1084.25" cy="-315" rx="27" ry="27"/>
</g>
<!-- 1990981527760&#45;&gt;1990979662288 -->
<g id="edge20" class="edge">
<title>1990981527760&#45;&gt;1990979662288</title>
<path fill="none" stroke="black" d="M1015.33,-315C1025.19,-315 1035.74,-315 1045.52,-315"/>
<polygon fill="black" stroke="black" points="1045.46,-318.5 1055.46,-315 1045.46,-311.5 1045.46,-318.5"/>
</g>
<!-- 1990981524688 -->
<g id="node6" class="node">
<title>1990981524688</title>
<polygon fill="white" stroke="black" points="1021.25,-261 928.75,-261 928.75,-225 1021.25,-225 1021.25,-261"/>
<text text-anchor="middle" x="975" y="-237.97" font-family="Times New Roman,serif" font-size="12.00">Lighting Config</text>
</g>
<!-- 1990979659552 -->
<g id="node28" class="node">
<title>1990979659552</title>
<ellipse fill="white" stroke="black" cx="1084.25" cy="-243" rx="27" ry="27"/>
</g>
<!-- 1990981524688&#45;&gt;1990979659552 -->
<g id="edge21" class="edge">
<title>1990981524688&#45;&gt;1990979659552</title>
<path fill="none" stroke="black" d="M1021.48,-243C1029.52,-243 1037.81,-243 1045.6,-243"/>
<polygon fill="black" stroke="black" points="1045.44,-246.5 1055.44,-243 1045.44,-239.5 1045.44,-246.5"/>
</g>
<!-- 1990979655136 -->
<g id="node33" class="node">
<title>1990979655136</title>
<ellipse fill="white" stroke="black" cx="1084.25" cy="-27" rx="27" ry="27"/>
</g>
<!-- 1990981524688&#45;&gt;1990979655136 -->
<g id="edge19" class="edge">
<title>1990981524688&#45;&gt;1990979655136</title>
<path fill="none" stroke="black" d="M982.91,-224.52C995.67,-191.22 1024.61,-119.38 1057.25,-63 1058.32,-61.15 1059.47,-59.28 1060.66,-57.41"/>
<polygon fill="black" stroke="black" points="1063.31,-59.73 1066,-49.48 1057.51,-55.82 1063.31,-59.73"/>
</g>
<!-- 1990982118496 -->
<g id="node7" class="node">
<title>1990982118496</title>
<polygon fill="white" stroke="black" points="1020.88,-477 929.12,-477 929.12,-441 1020.88,-441 1020.88,-477"/>
<text text-anchor="middle" x="975" y="-453.98" font-family="Times New Roman,serif" font-size="12.00">Climate Control</text>
</g>
<!-- 1990979664640 -->
<g id="node27" class="node">
<title>1990979664640</title>
<ellipse fill="white" stroke="black" cx="1084.25" cy="-531" rx="27" ry="27"/>
</g>
<!-- 1990982118496&#45;&gt;1990979664640 -->
<g id="edge22" class="edge">
<title>1990982118496&#45;&gt;1990979664640</title>
<path fill="none" stroke="black" d="M1003.34,-477.35C1018.25,-487.36 1036.75,-499.78 1052.2,-510.15"/>
<polygon fill="black" stroke="black" points="1049.85,-512.79 1060.1,-515.46 1053.75,-506.98 1049.85,-512.79"/>
</g>
<!-- 1990979650384 -->
<g id="node29" class="node">
<title>1990979650384</title>
<ellipse fill="white" stroke="black" cx="1084.25" cy="-459" rx="27" ry="27"/>
</g>
<!-- 1990982118496&#45;&gt;1990979650384 -->
<g id="edge18" class="edge">
<title>1990982118496&#45;&gt;1990979650384</title>
<path fill="none" stroke="black" d="M1021.17,-459C1029.23,-459 1037.55,-459 1045.38,-459"/>
<polygon fill="black" stroke="black" points="1045.27,-462.5 1055.27,-459 1045.27,-455.5 1045.27,-462.5"/>
</g>
<!-- 1990981531120 -->
<g id="node8" class="node">
<title>1990981531120</title>
<polygon fill="white" stroke="black" points="1019.75,-405 930.25,-405 930.25,-369 1019.75,-369 1019.75,-405"/>
<text text-anchor="middle" x="975" y="-381.98" font-family="Times New Roman,serif" font-size="12.00">Irrigation Setup</text>
</g>
<!-- 1990979663536 -->
<g id="node30" class="node">
<title>1990979663536</title>
<ellipse fill="white" stroke="black" cx="1084.25" cy="-171" rx="27" ry="27"/>
</g>
<!-- 1990981531120&#45;&gt;1990979663536 -->
<g id="edge23" class="edge">
<title>1990981531120&#45;&gt;1990979663536</title>
<path fill="none" stroke="black" d="M998.81,-368.79C1006.93,-361.27 1015.48,-351.97 1021.25,-342 1052.34,-288.25 1030.63,-263.1 1057.25,-207 1058.19,-205.01 1059.25,-203.03 1060.38,-201.06"/>
<polygon fill="black" stroke="black" points="1063.23,-203.1 1065.67,-192.79 1057.33,-199.32 1063.23,-203.1"/>
</g>
<!-- 1990979652688 -->
<g id="node34" class="node">
<title>1990979652688</title>
<ellipse fill="white" stroke="black" cx="1084.25" cy="-387" rx="27" ry="27"/>
</g>
<!-- 1990981531120&#45;&gt;1990979652688 -->
<g id="edge17" class="edge">
<title>1990981531120&#45;&gt;1990979652688</title>
<path fill="none" stroke="black" d="M1020.24,-387C1028.62,-387 1037.3,-387 1045.46,-387"/>
<polygon fill="black" stroke="black" points="1045.41,-390.5 1055.41,-387 1045.41,-383.5 1045.41,-390.5"/>
</g>
<!-- 1990982123104 -->
<g id="node9" class="node">
<title>1990982123104</title>
<polygon fill="white" stroke="black" points="1232.62,-189 1155.12,-189 1155.12,-153 1232.62,-153 1232.62,-189"/>
<text text-anchor="middle" x="1193.88" y="-165.97" font-family="Times New Roman,serif" font-size="12.00">Nutrient Mix</text>
</g>
<!-- 1990979660128 -->
<g id="node36" class="node">
<title>1990979660128</title>
<ellipse fill="white" stroke="black" cx="1303.5" cy="-189" rx="27" ry="27"/>
</g>
<!-- 1990982123104&#45;&gt;1990979660128 -->
<g id="edge33" class="edge">
<title>1990982123104&#45;&gt;1990979660128</title>
<path fill="none" stroke="black" d="M1233.12,-177.4C1243.57,-179.14 1254.87,-181.03 1265.26,-182.77"/>
<polygon fill="black" stroke="black" points="1264.58,-186.21 1275.02,-184.4 1265.74,-179.3 1264.58,-186.21"/>
</g>
<!-- 1990976612704 -->
<g id="node10" class="node">
<title>1990976612704</title>
<polygon fill="white" stroke="black" points="1240.5,-333 1147.25,-333 1147.25,-297 1240.5,-297 1240.5,-333"/>
<text text-anchor="middle" x="1193.88" y="-309.98" font-family="Times New Roman,serif" font-size="12.00">Energy Connect</text>
</g>
<!-- 1990979663248 -->
<g id="node35" class="node">
<title>1990979663248</title>
<ellipse fill="white" stroke="black" cx="1303.5" cy="-297" rx="27" ry="27"/>
</g>
<!-- 1990976612704&#45;&gt;1990979663248 -->
<g id="edge32" class="edge">
<title>1990976612704&#45;&gt;1990979663248</title>
<path fill="none" stroke="black" d="M1240.83,-307.31C1249.04,-305.94 1257.51,-304.52 1265.43,-303.2"/>
<polygon fill="black" stroke="black" points="1265.79,-306.69 1275.08,-301.59 1264.64,-299.78 1265.79,-306.69"/>
</g>
<!-- 1990976610496 -->
<g id="node11" class="node">
<title>1990976610496</title>
<polygon fill="white" stroke="black" points="1432,-243 1366.5,-243 1366.5,-207 1432,-207 1432,-243"/>
<text text-anchor="middle" x="1399.25" y="-219.97" font-family="Times New Roman,serif" font-size="12.00">Data Sync</text>
</g>
<!-- 1990976602480 -->
<g id="node37" class="node">
<title>1990976602480</title>
<ellipse fill="white" stroke="black" cx="1495" cy="-225" rx="27" ry="27"/>
</g>
<!-- 1990976610496&#45;&gt;1990976602480 -->
<g id="edge36" class="edge">
<title>1990976610496&#45;&gt;1990976602480</title>
<path fill="none" stroke="black" d="M1432.25,-225C1440.02,-225 1448.4,-225 1456.4,-225"/>
<polygon fill="black" stroke="black" points="1456.23,-228.5 1466.23,-225 1456.23,-221.5 1456.23,-228.5"/>
</g>
<!-- 1990976609392 -->
<g id="node12" class="node">
<title>1990976609392</title>
<polygon fill="white" stroke="black" points="1653.5,-243 1558,-243 1558,-207 1653.5,-207 1653.5,-243"/>
<text text-anchor="middle" x="1605.75" y="-219.97" font-family="Times New Roman,serif" font-size="12.00">Automation Test</text>
</g>
<!-- 1990976604880 -->
<g id="node38" class="node">
<title>1990976604880</title>
<ellipse fill="white" stroke="black" cx="1716.5" cy="-225" rx="27" ry="27"/>
</g>
<!-- 1990976609392&#45;&gt;1990976604880 -->
<g id="edge38" class="edge">
<title>1990976609392&#45;&gt;1990976604880</title>
<path fill="none" stroke="black" d="M1653.82,-225C1661.82,-225 1670.04,-225 1677.77,-225"/>
<polygon fill="black" stroke="black" points="1677.5,-228.5 1687.5,-225 1677.5,-221.5 1677.5,-228.5"/>
</g>
<!-- 1990976608624 -->
<g id="node13" class="node">
<title>1990976608624</title>
<polygon fill="white" stroke="black" points="1860.75,-243 1779.5,-243 1779.5,-207 1860.75,-207 1860.75,-243"/>
<text text-anchor="middle" x="1820.12" y="-219.97" font-family="Times New Roman,serif" font-size="12.00">Crop Seeding</text>
</g>
<!-- 1990982253216 -->
<g id="node39" class="node">
<title>1990982253216</title>
<ellipse fill="white" stroke="black" cx="1923.75" cy="-225" rx="27" ry="27"/>
</g>
<!-- 1990976608624&#45;&gt;1990982253216 -->
<g id="edge40" class="edge">
<title>1990976608624&#45;&gt;1990982253216</title>
<path fill="none" stroke="black" d="M1861,-225C1868.9,-225 1877.17,-225 1885,-225"/>
<polygon fill="black" stroke="black" points="1884.92,-228.5 1894.92,-225 1884.92,-221.5 1884.92,-228.5"/>
</g>
<!-- 1990977852176 -->
<g id="node14" class="node">
<title>1990977852176</title>
<polygon fill="white" stroke="black" points="2080.75,-216 1986.75,-216 1986.75,-180 2080.75,-180 2080.75,-216"/>
<text text-anchor="middle" x="2033.75" y="-192.97" font-family="Times New Roman,serif" font-size="12.00">Growth Monitor</text>
</g>
<!-- 1990977862496 -->
<g id="node40" class="node">
<title>1990977862496</title>
<ellipse fill="white" stroke="black" cx="2143.75" cy="-197" rx="27" ry="27"/>
</g>
<!-- 1990977852176&#45;&gt;1990977862496 -->
<g id="edge42" class="edge">
<title>1990977852176&#45;&gt;1990977862496</title>
<path fill="none" stroke="black" d="M2081.18,-197.57C2089.06,-197.5 2097.16,-197.42 2104.78,-197.35"/>
<polygon fill="black" stroke="black" points="2104.81,-200.85 2114.77,-197.26 2104.74,-193.85 2104.81,-200.85"/>
</g>
<!-- 1990977589648 -->
<g id="node15" class="node">
<title>1990977589648</title>
<polygon fill="white" stroke="black" points="2283.5,-215 2206.75,-215 2206.75,-179 2283.5,-179 2283.5,-215"/>
<text text-anchor="middle" x="2245.12" y="-191.97" font-family="Times New Roman,serif" font-size="12.00">Harvest Plan</text>
</g>
<!-- 1990977588592 -->
<g id="node41" class="node">
<title>1990977588592</title>
<ellipse fill="white" stroke="black" cx="2346.5" cy="-197" rx="27" ry="27"/>
</g>
<!-- 1990977589648&#45;&gt;1990977588592 -->
<g id="edge46" class="edge">
<title>1990977589648&#45;&gt;1990977588592</title>
<path fill="none" stroke="black" d="M2283.98,-197C2291.77,-197 2299.98,-197 2307.77,-197"/>
<polygon fill="black" stroke="black" points="2307.65,-200.5 2317.65,-197 2307.65,-193.5 2307.65,-200.5"/>
</g>
<!-- 1990976618224 -->
<g id="node16" class="node">
<title>1990976618224</title>
<polygon fill="black" stroke="black" points="2272.12,-269 2218.12,-269 2218.12,-233 2272.12,-233 2272.12,-269"/>
</g>
<!-- 1990976618224&#45;&gt;1990982253216 -->
<g id="edge45" class="edge">
<title>1990976618224&#45;&gt;1990982253216</title>
<path fill="none" stroke="black" d="M2217.69,-248.85C2161.1,-244.24 2028.09,-233.41 1962.57,-228.08"/>
<polygon fill="black" stroke="black" points="1962.92,-224.6 1952.67,-227.27 1962.35,-231.57 1962.92,-224.6"/>
</g>
<!-- 1990977729744 -->
<g id="node17" class="node">
<title>1990977729744</title>
<polygon fill="white" stroke="black" points="2492.25,-215 2409.5,-215 2409.5,-179 2492.25,-179 2492.25,-215"/>
<text text-anchor="middle" x="2450.88" y="-191.97" font-family="Times New Roman,serif" font-size="12.00">Waste Handle</text>
</g>
<!-- 1990977721344 -->
<g id="node42" class="node">
<title>1990977721344</title>
<ellipse fill="white" stroke="black" cx="2555.25" cy="-197" rx="27" ry="27"/>
</g>
<!-- 1990977729744&#45;&gt;1990977721344 -->
<g id="edge48" class="edge">
<title>1990977729744&#45;&gt;1990977721344</title>
<path fill="none" stroke="black" d="M2492.63,-197C2500.48,-197 2508.67,-197 2516.42,-197"/>
<polygon fill="black" stroke="black" points="2516.24,-200.5 2526.24,-197 2516.24,-193.5 2516.24,-200.5"/>
</g>
<!-- 1990977717936 -->
<g id="node18" class="node">
<title>1990977717936</title>
<polygon fill="white" stroke="black" points="2698,-215 2618.25,-215 2618.25,-179 2698,-179 2698,-215"/>
<text text-anchor="middle" x="2658.12" y="-191.97" font-family="Times New Roman,serif" font-size="12.00">Supply Audit</text>
</g>
<!-- 1990978343024 -->
<g id="node43" class="node">
<title>1990978343024</title>
<ellipse fill="white" stroke="black" cx="2765" cy="-197" rx="27" ry="27"/>
<ellipse fill="none" stroke="black" cx="2765" cy="-197" rx="31" ry="31"/>
<text text-anchor="start" x="2748.5" y="-181.6" font-family="Times New Roman,serif" font-size="32.00">■</text>
</g>
<!-- 1990977717936&#45;&gt;1990978343024 -->
<g id="edge50" class="edge">
<title>1990977717936&#45;&gt;1990978343024</title>
<path fill="none" stroke="black" d="M2698.47,-197C2706.19,-197 2714.32,-197 2722.12,-197"/>
<polygon fill="black" stroke="black" points="2722.1,-200.5 2732.1,-197 2722.1,-193.5 2722.1,-200.5"/>
</g>
<!-- 1990978340384 -->
<g id="node19" class="node">
<title>1990978340384</title>
<ellipse fill="white" stroke="black" cx="27" cy="-351" rx="27" ry="27"/>
<text text-anchor="start" x="9.75" y="-333.7" font-family="Times New Roman,serif" font-size="34.00">●</text>
</g>
<!-- 1990978340384&#45;&gt;1990978077568 -->
<g id="edge1" class="edge">
<title>1990978340384&#45;&gt;1990978077568</title>
<path fill="none" stroke="black" d="M54.33,-351C61.76,-351 70.06,-351 78.28,-351"/>
<polygon fill="black" stroke="black" points="78.24,-354.5 88.24,-351 78.24,-347.5 78.24,-354.5"/>
</g>
<!-- 1990978088080&#45;&gt;1990978091056 -->
<g id="edge3" class="edge">
<title>1990978088080&#45;&gt;1990978091056</title>
<path fill="none" stroke="black" d="M251.19,-351C258.46,-351 266.61,-351 274.78,-351"/>
<polygon fill="black" stroke="black" points="274.76,-354.5 284.76,-351 274.76,-347.5 274.76,-354.5"/>
</g>
<!-- 1990978088560&#45;&gt;1990978084960 -->
<g id="edge5" class="edge">
<title>1990978088560&#45;&gt;1990978084960</title>
<path fill="none" stroke="black" d="M458.33,-351C465.67,-351 473.96,-351 482.38,-351"/>
<polygon fill="black" stroke="black" points="482.34,-354.5 492.34,-351 482.34,-347.5 482.34,-354.5"/>
</g>
<!-- 1990981526080&#45;&gt;1990981528816 -->
<g id="edge7" class="edge">
<title>1990981526080&#45;&gt;1990981528816</title>
<path fill="none" stroke="black" d="M679.9,-351C687.23,-351 695.46,-351 703.76,-351"/>
<polygon fill="black" stroke="black" points="703.53,-354.5 713.53,-351 703.53,-347.5 703.53,-354.5"/>
</g>
<!-- 1990981530880&#45;&gt;1990981531120 -->
<g id="edge14" class="edge">
<title>1990981530880&#45;&gt;1990981531120</title>
<path fill="none" stroke="black" d="M892.99,-387C900.83,-387 909.75,-387 918.73,-387"/>
<polygon fill="black" stroke="black" points="918.55,-390.5 928.55,-387 918.55,-383.5 918.55,-390.5"/>
</g>
<!-- 1990982107792&#45;&gt;1990982118496 -->
<g id="edge13" class="edge">
<title>1990982107792&#45;&gt;1990982118496</title>
<path fill="none" stroke="black" d="M892.99,-459C900.49,-459 908.97,-459 917.55,-459"/>
<polygon fill="black" stroke="black" points="917.29,-462.5 927.29,-459 917.29,-455.5 917.29,-462.5"/>
</g>
<!-- 1990981525168&#45;&gt;1990981527760 -->
<g id="edge15" class="edge">
<title>1990981525168&#45;&gt;1990981527760</title>
<path fill="none" stroke="black" d="M892.99,-315C902.19,-315 912.86,-315 923.37,-315"/>
<polygon fill="black" stroke="black" points="923.13,-318.5 933.13,-315 923.13,-311.5 923.13,-318.5"/>
</g>
<!-- 1990981519072&#45;&gt;1990981524688 -->
<g id="edge12" class="edge">
<title>1990981519072&#45;&gt;1990981524688</title>
<path fill="none" stroke="black" d="M892.99,-243C900.32,-243 908.59,-243 916.97,-243"/>
<polygon fill="black" stroke="black" points="916.87,-246.5 926.87,-243 916.87,-239.5 916.87,-246.5"/>
</g>
<!-- 1990979664640&#45;&gt;1990976612704 -->
<g id="edge31" class="edge">
<title>1990979664640&#45;&gt;1990976612704</title>
<path fill="none" stroke="black" d="M1101.65,-509.77C1105.01,-505.03 1108.39,-499.94 1111.25,-495 1140.89,-443.89 1167.59,-380.1 1181.89,-343.81"/>
<polygon fill="black" stroke="black" points="1185,-345.48 1185.37,-334.89 1178.48,-342.93 1185,-345.48"/>
</g>
<!-- 1990979659552&#45;&gt;1990976612704 -->
<g id="edge29" class="edge">
<title>1990979659552&#45;&gt;1990976612704</title>
<path fill="none" stroke="black" d="M1107.29,-257.74C1121.38,-267.17 1139.99,-279.62 1156.26,-290.5"/>
<polygon fill="black" stroke="black" points="1154,-293.2 1164.25,-295.85 1157.89,-287.38 1154,-293.2"/>
</g>
<!-- 1990979650384&#45;&gt;1990982123104 -->
<g id="edge27" class="edge">
<title>1990979650384&#45;&gt;1990982123104</title>
<path fill="none" stroke="black" d="M1102.01,-438.49C1105.43,-433.62 1108.74,-428.29 1111.25,-423 1137.87,-366.9 1127.94,-347.02 1147.25,-288 1157.21,-257.55 1170.77,-223.5 1180.52,-200.03"/>
<polygon fill="black" stroke="black" points="1183.74,-201.38 1184.38,-190.81 1177.28,-198.68 1183.74,-201.38"/>
</g>
<!-- 1990979663536&#45;&gt;1990982123104 -->
<g id="edge25" class="edge">
<title>1990979663536&#45;&gt;1990982123104</title>
<path fill="none" stroke="black" d="M1111.58,-171C1121.28,-171 1132.6,-171 1143.67,-171"/>
<polygon fill="black" stroke="black" points="1143.52,-174.5 1153.52,-171 1143.52,-167.5 1143.52,-174.5"/>
</g>
<!-- 1990979658064&#45;&gt;1990982123104 -->
<g id="edge26" class="edge">
<title>1990979658064&#45;&gt;1990982123104</title>
<path fill="none" stroke="black" d="M1107.29,-113.74C1121.38,-123.17 1139.99,-135.62 1156.26,-146.5"/>
<polygon fill="black" stroke="black" points="1154,-149.2 1164.25,-151.85 1157.89,-143.38 1154,-149.2"/>
</g>
<!-- 1990979662288&#45;&gt;1990976612704 -->
<g id="edge30" class="edge">
<title>1990979662288&#45;&gt;1990976612704</title>
<path fill="none" stroke="black" d="M1111.58,-315C1118.94,-315 1127.23,-315 1135.64,-315"/>
<polygon fill="black" stroke="black" points="1135.58,-318.5 1145.58,-315 1135.58,-311.5 1135.58,-318.5"/>
</g>
<!-- 1990979655136&#45;&gt;1990982123104 -->
<g id="edge28" class="edge">
<title>1990979655136&#45;&gt;1990982123104</title>
<path fill="none" stroke="black" d="M1101.13,-48.25C1120.06,-73.58 1151.75,-115.97 1172.48,-143.71"/>
<polygon fill="black" stroke="black" points="1169.62,-145.73 1178.41,-151.65 1175.23,-141.54 1169.62,-145.73"/>
</g>
<!-- 1990979652688&#45;&gt;1990976612704 -->
<g id="edge24" class="edge">
<title>1990979652688&#45;&gt;1990976612704</title>
<path fill="none" stroke="black" d="M1107.29,-372.26C1121.38,-362.83 1139.99,-350.38 1156.26,-339.5"/>
<polygon fill="black" stroke="black" points="1157.89,-342.62 1164.25,-334.15 1154,-336.8 1157.89,-342.62"/>
</g>
<!-- 1990979663248&#45;&gt;1990976610496 -->
<g id="edge35" class="edge">
<title>1990979663248&#45;&gt;1990976610496</title>
<path fill="none" stroke="black" d="M1325.31,-281.02C1337.05,-272 1352,-260.52 1365.3,-250.3"/>
<polygon fill="black" stroke="black" points="1367.19,-253.27 1372.99,-244.4 1362.93,-247.71 1367.19,-253.27"/>
</g>
<!-- 1990979660128&#45;&gt;1990976610496 -->
<g id="edge34" class="edge">
<title>1990979660128&#45;&gt;1990976610496</title>
<path fill="none" stroke="black" d="M1329.13,-198.46C1337.24,-201.57 1346.51,-205.13 1355.57,-208.61"/>
<polygon fill="black" stroke="black" points="1354.02,-211.76 1364.61,-212.08 1356.53,-205.23 1354.02,-211.76"/>
</g>
<!-- 1990976602480&#45;&gt;1990976609392 -->
<g id="edge37" class="edge">
<title>1990976602480&#45;&gt;1990976609392</title>
<path fill="none" stroke="black" d="M1522.33,-225C1529.67,-225 1537.96,-225 1546.38,-225"/>
<polygon fill="black" stroke="black" points="1546.34,-228.5 1556.34,-225 1546.34,-221.5 1546.34,-228.5"/>
</g>
<!-- 1990976604880&#45;&gt;1990976608624 -->
<g id="edge39" class="edge">
<title>1990976604880&#45;&gt;1990976608624</title>
<path fill="none" stroke="black" d="M1743.94,-225C1751.21,-225 1759.36,-225 1767.53,-225"/>
<polygon fill="black" stroke="black" points="1767.51,-228.5 1777.51,-225 1767.51,-221.5 1767.51,-228.5"/>
</g>
<!-- 1990982253216&#45;&gt;1990977852176 -->
<g id="edge41" class="edge">
<title>1990982253216&#45;&gt;1990977852176</title>
<path fill="none" stroke="black" d="M1950.34,-218.6C1957.98,-216.69 1966.67,-214.52 1975.47,-212.32"/>
<polygon fill="black" stroke="black" points="1976.3,-215.72 1985.15,-209.9 1974.6,-208.93 1976.3,-215.72"/>
</g>
<!-- 1990977862496&#45;&gt;1990977589648 -->
<g id="edge43" class="edge">
<title>1990977862496&#45;&gt;1990977589648</title>
<path fill="none" stroke="black" d="M2171.12,-197C2178.47,-197 2186.69,-197 2194.9,-197"/>
<polygon fill="black" stroke="black" points="2194.89,-200.5 2204.89,-197 2194.89,-193.5 2194.89,-200.5"/>
</g>
<!-- 1990977862496&#45;&gt;1990976618224 -->
<g id="edge44" class="edge">
<title>1990977862496&#45;&gt;1990976618224</title>
<path fill="none" stroke="black" d="M2168.05,-209.66C2179.93,-216.12 2194.66,-224.12 2207.98,-231.36"/>
<polygon fill="black" stroke="black" points="2206.03,-234.28 2216.49,-235.98 2209.37,-228.13 2206.03,-234.28"/>
</g>
<!-- 1990977588592&#45;&gt;1990977729744 -->
<g id="edge47" class="edge">
<title>1990977588592&#45;&gt;1990977729744</title>
<path fill="none" stroke="black" d="M2373.86,-197C2381.28,-197 2389.61,-197 2397.96,-197"/>
<polygon fill="black" stroke="black" points="2397.77,-200.5 2407.77,-197 2397.77,-193.5 2397.77,-200.5"/>
</g>
<!-- 1990977721344&#45;&gt;1990977717936 -->
<g id="edge49" class="edge">
<title>1990977721344&#45;&gt;1990977717936</title>
<path fill="none" stroke="black" d="M2582.49,-197C2589.96,-197 2598.35,-197 2606.74,-197"/>
<polygon fill="black" stroke="black" points="2606.58,-200.5 2616.58,-197 2606.58,-193.5 2606.58,-200.5"/>
</g>
</g>
</svg>
