<?xml version="1.0" encoding="UTF-8" standalone="no"?>
<!DOCTYPE svg PUBLIC "-//W3C//DTD SVG 1.1//EN"
 "http://www.w3.org/Graphics/SVG/1.1/DTD/svg11.dtd">
<!-- Generated by graphviz version 11.0.0 (20240428.1522)
 -->
<!-- Title: imdf_net_1754052060.004141 Pages: 1 -->
<svg width="2327pt" height="277pt"
 viewBox="0.00 0.00 2327.25 277.00" xmlns="http://www.w3.org/2000/svg" xmlns:xlink="http://www.w3.org/1999/xlink">
<g id="graph0" class="graph" transform="scale(1 1) rotate(0) translate(4 273)">
<title>imdf_net_1754052060.004141</title>
<polygon fill="white" stroke="none" points="-4,4 -4,-273 2323.25,-273 2323.25,4 -4,4"/>
<!-- 1990975764768 -->
<g id="node1" class="node">
<title>1990975764768</title>
<polygon fill="white" stroke="black" points="155.5,-188 90,-188 90,-152 155.5,-152 155.5,-188"/>
<text text-anchor="middle" x="122.75" y="-164.97" font-family="Times New Roman,serif" font-size="12.00">Env Setup</text>
</g>
<!-- 1990975752768 -->
<g id="node17" class="node">
<title>1990975752768</title>
<ellipse fill="white" stroke="black" cx="218.5" cy="-170" rx="27" ry="27"/>
</g>
<!-- 1990975764768&#45;&gt;1990975752768 -->
<g id="edge2" class="edge">
<title>1990975764768&#45;&gt;1990975752768</title>
<path fill="none" stroke="black" d="M155.75,-170C163.52,-170 171.9,-170 179.9,-170"/>
<polygon fill="black" stroke="black" points="179.73,-173.5 189.73,-170 179.73,-166.5 179.73,-173.5"/>
</g>
<!-- 1990975753920 -->
<g id="node2" class="node">
<title>1990975753920</title>
<polygon fill="white" stroke="black" points="352.25,-188 281.5,-188 281.5,-152 352.25,-152 352.25,-188"/>
<text text-anchor="middle" x="316.88" y="-164.97" font-family="Times New Roman,serif" font-size="12.00">Seed Select</text>
</g>
<!-- 1990975752144 -->
<g id="node18" class="node">
<title>1990975752144</title>
<ellipse fill="white" stroke="black" cx="415.25" cy="-170" rx="27" ry="27"/>
</g>
<!-- 1990975753920&#45;&gt;1990975752144 -->
<g id="edge4" class="edge">
<title>1990975753920&#45;&gt;1990975752144</title>
<path fill="none" stroke="black" d="M352.67,-170C360.4,-170 368.64,-170 376.48,-170"/>
<polygon fill="black" stroke="black" points="376.47,-173.5 386.47,-170 376.47,-166.5 376.47,-173.5"/>
</g>
<!-- 1990975764336 -->
<g id="node3" class="node">
<title>1990975764336</title>
<polygon fill="white" stroke="black" points="544.5,-188 478.25,-188 478.25,-152 544.5,-152 544.5,-188"/>
<text text-anchor="middle" x="511.38" y="-164.97" font-family="Times New Roman,serif" font-size="12.00">Seed Plant</text>
</g>
<!-- 1990975757136 -->
<g id="node19" class="node">
<title>1990975757136</title>
<ellipse fill="white" stroke="black" cx="607.5" cy="-170" rx="27" ry="27"/>
</g>
<!-- 1990975764336&#45;&gt;1990975757136 -->
<g id="edge6" class="edge">
<title>1990975764336&#45;&gt;1990975757136</title>
<path fill="none" stroke="black" d="M544.77,-170C552.56,-170 560.94,-170 568.94,-170"/>
<polygon fill="black" stroke="black" points="568.77,-173.5 578.77,-170 568.77,-166.5 568.77,-173.5"/>
</g>
<!-- 1990975758432 -->
<g id="node4" class="node">
<title>1990975758432</title>
<polygon fill="white" stroke="black" points="736,-188 670.5,-188 670.5,-152 736,-152 736,-188"/>
<text text-anchor="middle" x="703.25" y="-164.97" font-family="Times New Roman,serif" font-size="12.00">Germinate</text>
</g>
<!-- 1990980950912 -->
<g id="node20" class="node">
<title>1990980950912</title>
<ellipse fill="white" stroke="black" cx="799" cy="-242" rx="27" ry="27"/>
</g>
<!-- 1990975758432&#45;&gt;1990980950912 -->
<g id="edge8" class="edge">
<title>1990975758432&#45;&gt;1990980950912</title>
<path fill="none" stroke="black" d="M727.91,-188.17C740.04,-197.49 754.95,-208.94 767.9,-218.88"/>
<polygon fill="black" stroke="black" points="765.65,-221.57 775.71,-224.88 769.91,-216.01 765.65,-221.57"/>
</g>
<!-- 1990979728400 -->
<g id="node21" class="node">
<title>1990979728400</title>
<ellipse fill="white" stroke="black" cx="799" cy="-170" rx="27" ry="27"/>
</g>
<!-- 1990975758432&#45;&gt;1990979728400 -->
<g id="edge9" class="edge">
<title>1990975758432&#45;&gt;1990979728400</title>
<path fill="none" stroke="black" d="M736.25,-170C744.02,-170 752.4,-170 760.4,-170"/>
<polygon fill="black" stroke="black" points="760.23,-173.5 770.23,-170 760.23,-166.5 760.23,-173.5"/>
</g>
<!-- 1990975754064 -->
<g id="node22" class="node">
<title>1990975754064</title>
<ellipse fill="white" stroke="black" cx="799" cy="-98" rx="27" ry="27"/>
</g>
<!-- 1990975758432&#45;&gt;1990975754064 -->
<g id="edge10" class="edge">
<title>1990975758432&#45;&gt;1990975754064</title>
<path fill="none" stroke="black" d="M727.91,-151.83C740.04,-142.51 754.95,-131.06 767.9,-121.12"/>
<polygon fill="black" stroke="black" points="769.91,-123.99 775.71,-115.12 765.65,-118.43 769.91,-123.99"/>
</g>
<!-- 1990975759488 -->
<g id="node5" class="node">
<title>1990975759488</title>
<polygon fill="white" stroke="black" points="956,-116 862,-116 862,-80 956,-80 956,-116"/>
<text text-anchor="middle" x="909" y="-92.97" font-family="Times New Roman,serif" font-size="12.00">Monitor Growth</text>
</g>
<!-- 1990975762320 -->
<g id="node23" class="node">
<title>1990975762320</title>
<ellipse fill="white" stroke="black" cx="1019" cy="-99" rx="27" ry="27"/>
</g>
<!-- 1990975759488&#45;&gt;1990975762320 -->
<g id="edge16" class="edge">
<title>1990975759488&#45;&gt;1990975762320</title>
<path fill="none" stroke="black" d="M956.43,-98.43C964.31,-98.5 972.41,-98.58 980.03,-98.65"/>
<polygon fill="black" stroke="black" points="979.99,-102.15 990.02,-98.74 980.06,-95.15 979.99,-102.15"/>
</g>
<!-- 1990975754208 -->
<g id="node25" class="node">
<title>1990975754208</title>
<ellipse fill="white" stroke="black" cx="1019" cy="-27" rx="27" ry="27"/>
</g>
<!-- 1990975759488&#45;&gt;1990975754208 -->
<g id="edge15" class="edge">
<title>1990975759488&#45;&gt;1990975754208</title>
<path fill="none" stroke="black" d="M938.09,-79.53C952.86,-69.82 971.01,-57.89 986.28,-47.85"/>
<polygon fill="black" stroke="black" points="988.14,-50.82 994.57,-42.4 984.29,-44.97 988.14,-50.82"/>
</g>
<!-- 1990979722880 -->
<g id="node6" class="node">
<title>1990979722880</title>
<polygon fill="white" stroke="black" points="939.88,-189 878.12,-189 878.12,-153 939.88,-153 939.88,-189"/>
<text text-anchor="middle" x="909" y="-165.97" font-family="Times New Roman,serif" font-size="12.00">Pest Scan</text>
</g>
<!-- 1990978231264 -->
<g id="node26" class="node">
<title>1990978231264</title>
<ellipse fill="white" stroke="black" cx="1226.25" cy="-171" rx="27" ry="27"/>
</g>
<!-- 1990979722880&#45;&gt;1990978231264 -->
<g id="edge14" class="edge">
<title>1990979722880&#45;&gt;1990978231264</title>
<path fill="none" stroke="black" d="M940.23,-171C998.14,-171 1124.58,-171 1187.76,-171"/>
<polygon fill="black" stroke="black" points="1187.64,-174.5 1197.64,-171 1187.64,-167.5 1187.64,-174.5"/>
</g>
<!-- 1990979719760 -->
<g id="node7" class="node">
<title>1990979719760</title>
<polygon fill="white" stroke="black" points="951.88,-259 866.12,-259 866.12,-223 951.88,-223 951.88,-259"/>
<text text-anchor="middle" x="909" y="-235.97" font-family="Times New Roman,serif" font-size="12.00">Water Recycle</text>
</g>
<!-- 1990978238416 -->
<g id="node24" class="node">
<title>1990978238416</title>
<ellipse fill="white" stroke="black" cx="1122.62" cy="-239" rx="27" ry="27"/>
</g>
<!-- 1990979719760&#45;&gt;1990978238416 -->
<g id="edge17" class="edge">
<title>1990979719760&#45;&gt;1990978238416</title>
<path fill="none" stroke="black" d="M952.32,-240.6C990.85,-240.24 1047.2,-239.7 1084.14,-239.35"/>
<polygon fill="black" stroke="black" points="1083.93,-242.86 1093.89,-239.26 1083.86,-235.86 1083.93,-242.86"/>
</g>
<!-- 1990975763856 -->
<g id="node8" class="node">
<title>1990975763856</title>
<polygon fill="white" stroke="black" points="1160.62,-117 1084.62,-117 1084.62,-81 1160.62,-81 1160.62,-117"/>
<text text-anchor="middle" x="1122.62" y="-93.97" font-family="Times New Roman,serif" font-size="12.00">Adjust Light</text>
</g>
<!-- 1990978227856 -->
<g id="node27" class="node">
<title>1990978227856</title>
<ellipse fill="white" stroke="black" cx="1226.25" cy="-99" rx="27" ry="27"/>
</g>
<!-- 1990975763856&#45;&gt;1990978227856 -->
<g id="edge24" class="edge">
<title>1990975763856&#45;&gt;1990978227856</title>
<path fill="none" stroke="black" d="M1160.89,-99C1169.54,-99 1178.75,-99 1187.42,-99"/>
<polygon fill="black" stroke="black" points="1187.29,-102.5 1197.29,-99 1187.29,-95.5 1187.29,-102.5"/>
</g>
<!-- 1990979722688 -->
<g id="node9" class="node">
<title>1990979722688</title>
<polygon fill="white" stroke="black" points="1369,-153 1289.25,-153 1289.25,-117 1369,-117 1369,-153"/>
<text text-anchor="middle" x="1329.12" y="-129.97" font-family="Times New Roman,serif" font-size="12.00">Harvest Crop</text>
</g>
<!-- 1990979724704 -->
<g id="node28" class="node">
<title>1990979724704</title>
<ellipse fill="white" stroke="black" cx="1432" cy="-135" rx="27" ry="27"/>
</g>
<!-- 1990979722688&#45;&gt;1990979724704 -->
<g id="edge23" class="edge">
<title>1990979722688&#45;&gt;1990979724704</title>
<path fill="none" stroke="black" d="M1369.41,-135C1377.28,-135 1385.52,-135 1393.32,-135"/>
<polygon fill="black" stroke="black" points="1393.22,-138.5 1403.22,-135 1393.22,-131.5 1393.22,-138.5"/>
</g>
<!-- 1990975765872 -->
<g id="node10" class="node">
<title>1990975765872</title>
<polygon fill="white" stroke="black" points="1163.25,-45 1082,-45 1082,-9 1163.25,-9 1163.25,-45"/>
<text text-anchor="middle" x="1122.62" y="-21.98" font-family="Times New Roman,serif" font-size="12.00">Nutrient Feed</text>
</g>
<!-- 1990978233664 -->
<g id="node29" class="node">
<title>1990978233664</title>
<ellipse fill="white" stroke="black" cx="1226.25" cy="-27" rx="27" ry="27"/>
</g>
<!-- 1990975765872&#45;&gt;1990978233664 -->
<g id="edge22" class="edge">
<title>1990975765872&#45;&gt;1990978233664</title>
<path fill="none" stroke="black" d="M1163.5,-27C1171.4,-27 1179.67,-27 1187.5,-27"/>
<polygon fill="black" stroke="black" points="1187.42,-30.5 1197.42,-27 1187.42,-23.5 1187.42,-30.5"/>
</g>
<!-- 1990979726288 -->
<g id="node11" class="node">
<title>1990979726288</title>
<polygon fill="white" stroke="black" points="1576.25,-153 1495,-153 1495,-117 1576.25,-117 1576.25,-153"/>
<text text-anchor="middle" x="1535.62" y="-129.97" font-family="Times New Roman,serif" font-size="12.00">Pack Produce</text>
</g>
<!-- 1990979715392 -->
<g id="node30" class="node">
<title>1990979715392</title>
<ellipse fill="white" stroke="black" cx="1639.25" cy="-135" rx="27" ry="27"/>
</g>
<!-- 1990979726288&#45;&gt;1990979715392 -->
<g id="edge28" class="edge">
<title>1990979726288&#45;&gt;1990979715392</title>
<path fill="none" stroke="black" d="M1576.5,-135C1584.4,-135 1592.67,-135 1600.5,-135"/>
<polygon fill="black" stroke="black" points="1600.42,-138.5 1610.42,-135 1600.42,-131.5 1600.42,-138.5"/>
</g>
<!-- 1990979728592 -->
<g id="node12" class="node">
<title>1990979728592</title>
<polygon fill="white" stroke="black" points="1794.75,-153 1702.25,-153 1702.25,-117 1794.75,-117 1794.75,-153"/>
<text text-anchor="middle" x="1748.5" y="-129.97" font-family="Times New Roman,serif" font-size="12.00">Dispatch Goods</text>
</g>
<!-- 1990978536320 -->
<g id="node31" class="node">
<title>1990978536320</title>
<ellipse fill="white" stroke="black" cx="1857.75" cy="-171" rx="27" ry="27"/>
</g>
<!-- 1990979728592&#45;&gt;1990978536320 -->
<g id="edge31" class="edge">
<title>1990979728592&#45;&gt;1990978536320</title>
<path fill="none" stroke="black" d="M1794.98,-150.27C1803.62,-153.17 1812.54,-156.16 1820.83,-158.94"/>
<polygon fill="black" stroke="black" points="1819.62,-162.23 1830.22,-162.09 1821.85,-155.59 1819.62,-162.23"/>
</g>
<!-- 1990979716064 -->
<g id="node32" class="node">
<title>1990979716064</title>
<ellipse fill="white" stroke="black" cx="1857.75" cy="-99" rx="27" ry="27"/>
</g>
<!-- 1990979728592&#45;&gt;1990979716064 -->
<g id="edge30" class="edge">
<title>1990979728592&#45;&gt;1990979716064</title>
<path fill="none" stroke="black" d="M1794.98,-119.73C1803.62,-116.83 1812.54,-113.84 1820.83,-111.06"/>
<polygon fill="black" stroke="black" points="1821.85,-114.41 1830.22,-107.91 1819.62,-107.77 1821.85,-114.41"/>
</g>
<!-- 1990978547456 -->
<g id="node13" class="node">
<title>1990978547456</title>
<polygon fill="white" stroke="black" points="2011.75,-117 1920.75,-117 1920.75,-81 2011.75,-81 2011.75,-117"/>
<text text-anchor="middle" x="1966.25" y="-93.97" font-family="Times New Roman,serif" font-size="12.00">Waste Compost</text>
</g>
<!-- 1990978230544 -->
<g id="node33" class="node">
<title>1990978230544</title>
<ellipse fill="white" stroke="black" cx="2074.75" cy="-99" rx="27" ry="27"/>
</g>
<!-- 1990978547456&#45;&gt;1990978230544 -->
<g id="edge35" class="edge">
<title>1990978547456&#45;&gt;1990978230544</title>
<path fill="none" stroke="black" d="M2012.11,-99C2020.11,-99 2028.37,-99 2036.15,-99"/>
<polygon fill="black" stroke="black" points="2035.96,-102.5 2045.96,-99 2035.96,-95.5 2035.96,-102.5"/>
</g>
<!-- 1990978549568 -->
<g id="node14" class="node">
<title>1990978549568</title>
<polygon fill="white" stroke="black" points="2006.88,-189 1925.62,-189 1925.62,-153 2006.88,-153 2006.88,-189"/>
<text text-anchor="middle" x="1966.25" y="-165.97" font-family="Times New Roman,serif" font-size="12.00">Data Analyze</text>
</g>
<!-- 1990978233184 -->
<g id="node34" class="node">
<title>1990978233184</title>
<ellipse fill="white" stroke="black" cx="2074.75" cy="-171" rx="27" ry="27"/>
</g>
<!-- 1990978549568&#45;&gt;1990978233184 -->
<g id="edge34" class="edge">
<title>1990978549568&#45;&gt;1990978233184</title>
<path fill="none" stroke="black" d="M2007.21,-171C2016.67,-171 2026.73,-171 2036.09,-171"/>
<polygon fill="black" stroke="black" points="2035.95,-174.5 2045.95,-171 2035.95,-167.5 2035.95,-174.5"/>
</g>
<!-- 1990978547312 -->
<g id="node15" class="node">
<title>1990978547312</title>
<polygon fill="white" stroke="black" points="2221.25,-153 2137.75,-153 2137.75,-117 2221.25,-117 2221.25,-153"/>
<text text-anchor="middle" x="2179.5" y="-129.97" font-family="Times New Roman,serif" font-size="12.00">Cycle Review</text>
</g>
<!-- 1990975750368 -->
<g id="node35" class="node">
<title>1990975750368</title>
<ellipse fill="white" stroke="black" cx="2288.25" cy="-135" rx="27" ry="27"/>
<ellipse fill="none" stroke="black" cx="2288.25" cy="-135" rx="31" ry="31"/>
<text text-anchor="start" x="2271.75" y="-119.6" font-family="Times New Roman,serif" font-size="32.00">■</text>
</g>
<!-- 1990978547312&#45;&gt;1990975750368 -->
<g id="edge38" class="edge">
<title>1990978547312&#45;&gt;1990975750368</title>
<path fill="none" stroke="black" d="M2221.47,-135C2229.37,-135 2237.65,-135 2245.58,-135"/>
<polygon fill="black" stroke="black" points="2245.32,-138.5 2255.32,-135 2245.32,-131.5 2245.32,-138.5"/>
</g>
<!-- 1990975758768 -->
<g id="node16" class="node">
<title>1990975758768</title>
<ellipse fill="white" stroke="black" cx="27" cy="-170" rx="27" ry="27"/>
<text text-anchor="start" x="9.75" y="-152.7" font-family="Times New Roman,serif" font-size="34.00">●</text>
</g>
<!-- 1990975758768&#45;&gt;1990975764768 -->
<g id="edge1" class="edge">
<title>1990975758768&#45;&gt;1990975764768</title>
<path fill="none" stroke="black" d="M54.11,-170C61.63,-170 70.03,-170 78.29,-170"/>
<polygon fill="black" stroke="black" points="78.26,-173.5 88.26,-170 78.26,-166.5 78.26,-173.5"/>
</g>
<!-- 1990975752768&#45;&gt;1990975753920 -->
<g id="edge3" class="edge">
<title>1990975752768&#45;&gt;1990975753920</title>
<path fill="none" stroke="black" d="M245.83,-170C253.26,-170 261.56,-170 269.78,-170"/>
<polygon fill="black" stroke="black" points="269.74,-173.5 279.74,-170 269.74,-166.5 269.74,-173.5"/>
</g>
<!-- 1990975752144&#45;&gt;1990975764336 -->
<g id="edge5" class="edge">
<title>1990975752144&#45;&gt;1990975764336</title>
<path fill="none" stroke="black" d="M442.72,-170C450.19,-170 458.51,-170 466.7,-170"/>
<polygon fill="black" stroke="black" points="466.57,-173.5 476.57,-170 466.57,-166.5 466.57,-173.5"/>
</g>
<!-- 1990975757136&#45;&gt;1990975758432 -->
<g id="edge7" class="edge">
<title>1990975757136&#45;&gt;1990975758432</title>
<path fill="none" stroke="black" d="M634.61,-170C642.13,-170 650.53,-170 658.79,-170"/>
<polygon fill="black" stroke="black" points="658.76,-173.5 668.76,-170 658.76,-166.5 658.76,-173.5"/>
</g>
<!-- 1990980950912&#45;&gt;1990979719760 -->
<g id="edge12" class="edge">
<title>1990980950912&#45;&gt;1990979719760</title>
<path fill="none" stroke="black" d="M826.42,-241.76C834.95,-241.68 844.73,-241.59 854.49,-241.5"/>
<polygon fill="black" stroke="black" points="854.38,-245 864.35,-241.4 854.32,-238 854.38,-245"/>
</g>
<!-- 1990979728400&#45;&gt;1990979722880 -->
<g id="edge13" class="edge">
<title>1990979728400&#45;&gt;1990979722880</title>
<path fill="none" stroke="black" d="M826.42,-170.24C838.4,-170.36 852.85,-170.49 866.24,-170.61"/>
<polygon fill="black" stroke="black" points="866.11,-174.11 876.14,-170.7 866.17,-167.11 866.11,-174.11"/>
</g>
<!-- 1990975754064&#45;&gt;1990975759488 -->
<g id="edge11" class="edge">
<title>1990975754064&#45;&gt;1990975759488</title>
<path fill="none" stroke="black" d="M826.42,-98C833.72,-98 841.94,-98 850.27,-98"/>
<polygon fill="black" stroke="black" points="850.13,-101.5 860.13,-98 850.13,-94.5 850.13,-101.5"/>
</g>
<!-- 1990975762320&#45;&gt;1990975763856 -->
<g id="edge21" class="edge">
<title>1990975762320&#45;&gt;1990975763856</title>
<path fill="none" stroke="black" d="M1046.44,-99C1054.54,-99 1063.73,-99 1072.83,-99"/>
<polygon fill="black" stroke="black" points="1072.71,-102.5 1082.71,-99 1072.71,-95.5 1072.71,-102.5"/>
</g>
<!-- 1990978238416&#45;&gt;1990979722688 -->
<g id="edge20" class="edge">
<title>1990978238416&#45;&gt;1990979722688</title>
<path fill="none" stroke="black" d="M1149.92,-236.56C1177.19,-233.13 1220.37,-225.13 1253.25,-207 1273.71,-195.72 1292.64,-177.41 1306.35,-162.08"/>
<polygon fill="black" stroke="black" points="1308.91,-164.47 1312.8,-154.62 1303.61,-159.9 1308.91,-164.47"/>
</g>
<!-- 1990975754208&#45;&gt;1990975765872 -->
<g id="edge19" class="edge">
<title>1990975754208&#45;&gt;1990975765872</title>
<path fill="none" stroke="black" d="M1046.44,-27C1053.71,-27 1061.86,-27 1070.03,-27"/>
<polygon fill="black" stroke="black" points="1070.01,-30.5 1080.01,-27 1070.01,-23.5 1070.01,-30.5"/>
</g>
<!-- 1990978231264&#45;&gt;1990979722688 -->
<g id="edge18" class="edge">
<title>1990978231264&#45;&gt;1990979722688</title>
<path fill="none" stroke="black" d="M1252.19,-162.1C1260.15,-159.26 1269.27,-156 1278.36,-152.76"/>
<polygon fill="black" stroke="black" points="1279.28,-156.15 1287.52,-149.49 1276.93,-149.55 1279.28,-156.15"/>
</g>
<!-- 1990978227856&#45;&gt;1990979722688 -->
<g id="edge25" class="edge">
<title>1990978227856&#45;&gt;1990979722688</title>
<path fill="none" stroke="black" d="M1252.19,-107.9C1260.15,-110.74 1269.27,-114 1278.36,-117.24"/>
<polygon fill="black" stroke="black" points="1276.93,-120.45 1287.52,-120.51 1279.28,-113.85 1276.93,-120.45"/>
</g>
<!-- 1990979724704&#45;&gt;1990979726288 -->
<g id="edge27" class="edge">
<title>1990979724704&#45;&gt;1990979726288</title>
<path fill="none" stroke="black" d="M1459.44,-135C1466.71,-135 1474.86,-135 1483.03,-135"/>
<polygon fill="black" stroke="black" points="1483.01,-138.5 1493.01,-135 1483.01,-131.5 1483.01,-138.5"/>
</g>
<!-- 1990978233664&#45;&gt;1990979722688 -->
<g id="edge26" class="edge">
<title>1990978233664&#45;&gt;1990979722688</title>
<path fill="none" stroke="black" d="M1245.52,-46.56C1261.67,-63.85 1285.37,-89.22 1303.25,-108.36"/>
<polygon fill="black" stroke="black" points="1300.59,-110.64 1309.97,-115.56 1305.7,-105.86 1300.59,-110.64"/>
</g>
<!-- 1990979715392&#45;&gt;1990979728592 -->
<g id="edge29" class="edge">
<title>1990979715392&#45;&gt;1990979728592</title>
<path fill="none" stroke="black" d="M1666.49,-135C1673.82,-135 1682.09,-135 1690.47,-135"/>
<polygon fill="black" stroke="black" points="1690.37,-138.5 1700.37,-135 1690.37,-131.5 1690.37,-138.5"/>
</g>
<!-- 1990978536320&#45;&gt;1990978549568 -->
<g id="edge33" class="edge">
<title>1990978536320&#45;&gt;1990978549568</title>
<path fill="none" stroke="black" d="M1885.08,-171C1893.94,-171 1904.15,-171 1914.25,-171"/>
<polygon fill="black" stroke="black" points="1914.02,-174.5 1924.02,-171 1914.02,-167.5 1914.02,-174.5"/>
</g>
<!-- 1990979716064&#45;&gt;1990978547456 -->
<g id="edge32" class="edge">
<title>1990979716064&#45;&gt;1990978547456</title>
<path fill="none" stroke="black" d="M1885.08,-99C1892.44,-99 1900.75,-99 1909.14,-99"/>
<polygon fill="black" stroke="black" points="1909.06,-102.5 1919.06,-99 1909.06,-95.5 1909.06,-102.5"/>
</g>
<!-- 1990978230544&#45;&gt;1990978547312 -->
<g id="edge36" class="edge">
<title>1990978230544&#45;&gt;1990978547312</title>
<path fill="none" stroke="black" d="M2100.62,-107.71C2108.56,-110.5 2117.67,-113.69 2126.78,-116.88"/>
<polygon fill="black" stroke="black" points="2125.4,-120.1 2136,-120.11 2127.72,-113.5 2125.4,-120.1"/>
</g>
<!-- 1990978233184&#45;&gt;1990978547312 -->
<g id="edge37" class="edge">
<title>1990978233184&#45;&gt;1990978547312</title>
<path fill="none" stroke="black" d="M2100.62,-162.29C2108.56,-159.5 2117.67,-156.31 2126.78,-153.12"/>
<polygon fill="black" stroke="black" points="2127.72,-156.5 2136,-149.89 2125.4,-149.9 2127.72,-156.5"/>
</g>
</g>
</svg>
