<?xml version="1.0" encoding="UTF-8" standalone="no"?>
<!DOCTYPE svg PUBLIC "-//W3C//DTD SVG 1.1//EN"
 "http://www.w3.org/Graphics/SVG/1.1/DTD/svg11.dtd">
<!-- Generated by graphviz version 11.0.0 (20240428.1522)
 -->
<!-- Title: imdf_net_1754052086.0917213 Pages: 1 -->
<svg width="2877pt" height="566pt"
 viewBox="0.00 0.00 2876.50 566.00" xmlns="http://www.w3.org/2000/svg" xmlns:xlink="http://www.w3.org/1999/xlink">
<g id="graph0" class="graph" transform="scale(1 1) rotate(0) translate(4 562)">
<title>imdf_net_1754052086.0917213</title>
<polygon fill="white" stroke="none" points="-4,4 -4,-562 2872.5,-562 2872.5,4 -4,4"/>
<!-- 1990978478896 -->
<g id="node1" class="node">
<title>1990978478896</title>
<polygon fill="white" stroke="black" points="176.5,-297 90,-297 90,-261 176.5,-261 176.5,-297"/>
<text text-anchor="middle" x="133.25" y="-273.98" font-family="Times New Roman,serif" font-size="12.00">Market Survey</text>
</g>
<!-- 1990978472608 -->
<g id="node20" class="node">
<title>1990978472608</title>
<ellipse fill="white" stroke="black" cx="239.5" cy="-279" rx="27" ry="27"/>
</g>
<!-- 1990978478896&#45;&gt;1990978472608 -->
<g id="edge2" class="edge">
<title>1990978478896&#45;&gt;1990978472608</title>
<path fill="none" stroke="black" d="M176.95,-279C184.87,-279 193.09,-279 200.84,-279"/>
<polygon fill="black" stroke="black" points="200.64,-282.5 210.64,-279 200.64,-275.5 200.64,-282.5"/>
</g>
<!-- 1990980124064 -->
<g id="node2" class="node">
<title>1990980124064</title>
<polygon fill="white" stroke="black" points="404.75,-297 302.5,-297 302.5,-261 404.75,-261 404.75,-297"/>
<text text-anchor="middle" x="353.62" y="-273.98" font-family="Times New Roman,serif" font-size="12.00">Regulatory Check</text>
</g>
<!-- 1990980114560 -->
<g id="node21" class="node">
<title>1990980114560</title>
<ellipse fill="white" stroke="black" cx="467.75" cy="-315" rx="27" ry="27"/>
</g>
<!-- 1990980124064&#45;&gt;1990980114560 -->
<g id="edge5" class="edge">
<title>1990980124064&#45;&gt;1990980114560</title>
<path fill="none" stroke="black" d="M405.11,-295.21C413.82,-298.01 422.72,-300.86 430.94,-303.5"/>
<polygon fill="black" stroke="black" points="429.62,-306.75 440.21,-306.48 431.76,-300.09 429.62,-306.75"/>
</g>
<!-- 1990980109520 -->
<g id="node22" class="node">
<title>1990980109520</title>
<ellipse fill="white" stroke="black" cx="467.75" cy="-243" rx="27" ry="27"/>
</g>
<!-- 1990980124064&#45;&gt;1990980109520 -->
<g id="edge4" class="edge">
<title>1990980124064&#45;&gt;1990980109520</title>
<path fill="none" stroke="black" d="M405.11,-262.79C413.82,-259.99 422.72,-257.14 430.94,-254.5"/>
<polygon fill="black" stroke="black" points="431.76,-257.91 440.21,-251.52 429.62,-251.25 431.76,-257.91"/>
</g>
<!-- 1990980121904 -->
<g id="node3" class="node">
<title>1990980121904</title>
<polygon fill="white" stroke="black" points="613.12,-333 537.12,-333 537.12,-297 613.12,-297 613.12,-333"/>
<text text-anchor="middle" x="575.12" y="-309.98" font-family="Times New Roman,serif" font-size="12.00">Fleet Design</text>
</g>
<!-- 1990980945920 -->
<g id="node23" class="node">
<title>1990980945920</title>
<ellipse fill="white" stroke="black" cx="682.5" cy="-315" rx="27" ry="27"/>
</g>
<!-- 1990980121904&#45;&gt;1990980945920 -->
<g id="edge15" class="edge">
<title>1990980121904&#45;&gt;1990980945920</title>
<path fill="none" stroke="black" d="M613.57,-315C623.33,-315 633.85,-315 643.63,-315"/>
<polygon fill="black" stroke="black" points="643.57,-318.5 653.57,-315 643.57,-311.5 643.57,-318.5"/>
</g>
<!-- 1990980959264 -->
<g id="node24" class="node">
<title>1990980959264</title>
<ellipse fill="white" stroke="black" cx="682.5" cy="-531" rx="27" ry="27"/>
</g>
<!-- 1990980121904&#45;&gt;1990980959264 -->
<g id="edge11" class="edge">
<title>1990980121904&#45;&gt;1990980959264</title>
<path fill="none" stroke="black" d="M582.8,-333.5C595.14,-366.82 623.23,-438.7 655.5,-495 656.56,-496.86 657.7,-498.73 658.89,-500.6"/>
<polygon fill="black" stroke="black" points="655.73,-502.19 664.22,-508.53 661.54,-498.28 655.73,-502.19"/>
</g>
<!-- 1990979543616 -->
<g id="node27" class="node">
<title>1990979543616</title>
<ellipse fill="white" stroke="black" cx="682.5" cy="-459" rx="27" ry="27"/>
</g>
<!-- 1990980121904&#45;&gt;1990979543616 -->
<g id="edge10" class="edge">
<title>1990980121904&#45;&gt;1990979543616</title>
<path fill="none" stroke="black" d="M589.47,-333.24C606.98,-357.17 637.97,-399.52 659.11,-428.4"/>
<polygon fill="black" stroke="black" points="656.24,-430.41 664.97,-436.41 661.89,-426.28 656.24,-430.41"/>
</g>
<!-- 1990980948464 -->
<g id="node30" class="node">
<title>1990980948464</title>
<ellipse fill="white" stroke="black" cx="682.5" cy="-171" rx="27" ry="27"/>
</g>
<!-- 1990980121904&#45;&gt;1990980948464 -->
<g id="edge14" class="edge">
<title>1990980121904&#45;&gt;1990980948464</title>
<path fill="none" stroke="black" d="M595.81,-296.67C603.65,-288.85 612.47,-279.38 619.5,-270 638.84,-244.19 638.03,-234.11 655.5,-207 656.66,-205.2 657.87,-203.37 659.11,-201.53"/>
<polygon fill="black" stroke="black" points="661.74,-203.89 664.58,-193.68 655.99,-199.89 661.74,-203.89"/>
</g>
<!-- 1990980249712 -->
<g id="node4" class="node">
<title>1990980249712</title>
<polygon fill="white" stroke="black" points="619.5,-261 530.75,-261 530.75,-225 619.5,-225 619.5,-261"/>
<text text-anchor="middle" x="575.12" y="-237.97" font-family="Times New Roman,serif" font-size="12.00">Software Setup</text>
</g>
<!-- 1990980952352 -->
<g id="node25" class="node">
<title>1990980952352</title>
<ellipse fill="white" stroke="black" cx="682.5" cy="-243" rx="27" ry="27"/>
</g>
<!-- 1990980249712&#45;&gt;1990980952352 -->
<g id="edge8" class="edge">
<title>1990980249712&#45;&gt;1990980952352</title>
<path fill="none" stroke="black" d="M619.9,-243C627.86,-243 636.1,-243 643.86,-243"/>
<polygon fill="black" stroke="black" points="643.67,-246.5 653.67,-243 643.67,-239.5 643.67,-246.5"/>
</g>
<!-- 1990978234288 -->
<g id="node26" class="node">
<title>1990978234288</title>
<ellipse fill="white" stroke="black" cx="682.5" cy="-387" rx="27" ry="27"/>
</g>
<!-- 1990980249712&#45;&gt;1990978234288 -->
<g id="edge13" class="edge">
<title>1990980249712&#45;&gt;1990978234288</title>
<path fill="none" stroke="black" d="M595.81,-261.33C603.65,-269.15 612.47,-278.62 619.5,-288 638.84,-313.81 638.03,-323.89 655.5,-351 656.66,-352.8 657.87,-354.63 659.11,-356.47"/>
<polygon fill="black" stroke="black" points="655.99,-358.11 664.58,-364.32 661.74,-354.11 655.99,-358.11"/>
</g>
<!-- 1990978237648 -->
<g id="node28" class="node">
<title>1990978237648</title>
<ellipse fill="white" stroke="black" cx="682.5" cy="-99" rx="27" ry="27"/>
</g>
<!-- 1990980249712&#45;&gt;1990978237648 -->
<g id="edge12" class="edge">
<title>1990980249712&#45;&gt;1990978237648</title>
<path fill="none" stroke="black" d="M589.47,-224.76C606.98,-200.83 637.97,-158.48 659.11,-129.6"/>
<polygon fill="black" stroke="black" points="661.89,-131.72 664.97,-121.59 656.24,-127.59 661.89,-131.72"/>
</g>
<!-- 1990978240096 -->
<g id="node29" class="node">
<title>1990978240096</title>
<ellipse fill="white" stroke="black" cx="682.5" cy="-27" rx="27" ry="27"/>
</g>
<!-- 1990980249712&#45;&gt;1990978240096 -->
<g id="edge9" class="edge">
<title>1990980249712&#45;&gt;1990978240096</title>
<path fill="none" stroke="black" d="M582.8,-224.5C595.14,-191.18 623.23,-119.3 655.5,-63 656.56,-61.14 657.7,-59.27 658.89,-57.4"/>
<polygon fill="black" stroke="black" points="661.54,-59.72 664.22,-49.47 655.73,-55.81 661.54,-59.72"/>
</g>
<!-- 1990976160640 -->
<g id="node5" class="node">
<title>1990976160640</title>
<polygon fill="white" stroke="black" points="832,-405 749.25,-405 749.25,-369 832,-369 832,-405"/>
<text text-anchor="middle" x="790.62" y="-381.98" font-family="Times New Roman,serif" font-size="12.00">Weather Sync</text>
</g>
<!-- 1990978231552 -->
<g id="node31" class="node">
<title>1990978231552</title>
<ellipse fill="white" stroke="black" cx="898.75" cy="-387" rx="27" ry="27"/>
</g>
<!-- 1990976160640&#45;&gt;1990978231552 -->
<g id="edge27" class="edge">
<title>1990976160640&#45;&gt;1990978231552</title>
<path fill="none" stroke="black" d="M832.35,-387C841.46,-387 851.07,-387 860.05,-387"/>
<polygon fill="black" stroke="black" points="859.87,-390.5 869.87,-387 859.87,-383.5 859.87,-390.5"/>
</g>
<!-- 1990982118304 -->
<g id="node6" class="node">
<title>1990982118304</title>
<polygon fill="white" stroke="black" points="828.62,-261 752.62,-261 752.62,-225 828.62,-225 828.62,-261"/>
<text text-anchor="middle" x="790.62" y="-237.97" font-family="Times New Roman,serif" font-size="12.00">Safety Audit</text>
</g>
<!-- 1990978228432 -->
<g id="node33" class="node">
<title>1990978228432</title>
<ellipse fill="white" stroke="black" cx="898.75" cy="-243" rx="27" ry="27"/>
</g>
<!-- 1990982118304&#45;&gt;1990978228432 -->
<g id="edge25" class="edge">
<title>1990982118304&#45;&gt;1990978228432</title>
<path fill="none" stroke="black" d="M829.04,-243C839.08,-243 849.93,-243 859.99,-243"/>
<polygon fill="black" stroke="black" points="859.81,-246.5 869.81,-243 859.81,-239.5 859.81,-246.5"/>
</g>
<!-- 1990980239920 -->
<g id="node7" class="node">
<title>1990980239920</title>
<polygon fill="white" stroke="black" points="835.75,-333 745.5,-333 745.5,-297 835.75,-297 835.75,-333"/>
<text text-anchor="middle" x="790.62" y="-309.98" font-family="Times New Roman,serif" font-size="12.00">Route Mapping</text>
</g>
<!-- 1990978237024 -->
<g id="node34" class="node">
<title>1990978237024</title>
<ellipse fill="white" stroke="black" cx="898.75" cy="-315" rx="27" ry="27"/>
</g>
<!-- 1990980239920&#45;&gt;1990978237024 -->
<g id="edge24" class="edge">
<title>1990980239920&#45;&gt;1990978237024</title>
<path fill="none" stroke="black" d="M836.02,-315C844.01,-315 852.28,-315 860.06,-315"/>
<polygon fill="black" stroke="black" points="859.89,-318.5 869.89,-315 859.89,-311.5 859.89,-318.5"/>
</g>
<!-- 1990980253936 -->
<g id="node8" class="node">
<title>1990980253936</title>
<polygon fill="white" stroke="black" points="831.25,-189 750,-189 750,-153 831.25,-153 831.25,-189"/>
<text text-anchor="middle" x="790.62" y="-165.97" font-family="Times New Roman,serif" font-size="12.00">Pilot Training</text>
</g>
<!-- 1990978227760 -->
<g id="node32" class="node">
<title>1990978227760</title>
<ellipse fill="white" stroke="black" cx="898.75" cy="-171" rx="27" ry="27"/>
</g>
<!-- 1990980253936&#45;&gt;1990978227760 -->
<g id="edge26" class="edge">
<title>1990980253936&#45;&gt;1990978227760</title>
<path fill="none" stroke="black" d="M831.75,-171C841.07,-171 850.97,-171 860.18,-171"/>
<polygon fill="black" stroke="black" points="859.88,-174.5 869.88,-171 859.88,-167.5 859.88,-174.5"/>
</g>
<!-- 1990981168464 -->
<g id="node9" class="node">
<title>1990981168464</title>
<polygon fill="white" stroke="black" points="1033.25,-297 961.75,-297 961.75,-261 1033.25,-261 1033.25,-297"/>
<text text-anchor="middle" x="997.5" y="-273.98" font-family="Times New Roman,serif" font-size="12.00">Test Flights</text>
</g>
<!-- 1990981158768 -->
<g id="node35" class="node">
<title>1990981158768</title>
<ellipse fill="white" stroke="black" cx="1096.25" cy="-279" rx="27" ry="27"/>
</g>
<!-- 1990981168464&#45;&gt;1990981158768 -->
<g id="edge32" class="edge">
<title>1990981168464&#45;&gt;1990981158768</title>
<path fill="none" stroke="black" d="M1033.7,-279C1041.45,-279 1049.69,-279 1057.54,-279"/>
<polygon fill="black" stroke="black" points="1057.51,-282.5 1067.51,-279 1057.51,-275.5 1057.51,-282.5"/>
</g>
<!-- 1990981164048 -->
<g id="node10" class="node">
<title>1990981164048</title>
<polygon fill="white" stroke="black" points="1254,-297 1159.25,-297 1159.25,-261 1254,-261 1254,-297"/>
<text text-anchor="middle" x="1206.62" y="-273.98" font-family="Times New Roman,serif" font-size="12.00">Emergency Drill</text>
</g>
<!-- 1990981163952 -->
<g id="node36" class="node">
<title>1990981163952</title>
<ellipse fill="white" stroke="black" cx="1317" cy="-279" rx="27" ry="27"/>
</g>
<!-- 1990981164048&#45;&gt;1990981163952 -->
<g id="edge34" class="edge">
<title>1990981164048&#45;&gt;1990981163952</title>
<path fill="none" stroke="black" d="M1254.21,-279C1262.29,-279 1270.6,-279 1278.4,-279"/>
<polygon fill="black" stroke="black" points="1278.23,-282.5 1288.23,-279 1278.23,-275.5 1278.23,-282.5"/>
</g>
<!-- 1990977250624 -->
<g id="node11" class="node">
<title>1990977250624</title>
<polygon fill="white" stroke="black" points="1486.75,-297 1380,-297 1380,-261 1486.75,-261 1486.75,-297"/>
<text text-anchor="middle" x="1433.38" y="-273.98" font-family="Times New Roman,serif" font-size="12.00">Customer Onboard</text>
</g>
<!-- 1990981723264 -->
<g id="node37" class="node">
<title>1990981723264</title>
<ellipse fill="white" stroke="black" cx="1549.75" cy="-279" rx="27" ry="27"/>
</g>
<!-- 1990977250624&#45;&gt;1990981723264 -->
<g id="edge36" class="edge">
<title>1990977250624&#45;&gt;1990981723264</title>
<path fill="none" stroke="black" d="M1487.21,-279C1495.2,-279 1503.3,-279 1510.89,-279"/>
<polygon fill="black" stroke="black" points="1510.79,-282.5 1520.79,-279 1510.79,-275.5 1510.79,-282.5"/>
</g>
<!-- 1990979723600 -->
<g id="node12" class="node">
<title>1990979723600</title>
<polygon fill="white" stroke="black" points="1697,-274 1612.75,-274 1612.75,-238 1697,-238 1697,-274"/>
<text text-anchor="middle" x="1654.88" y="-250.97" font-family="Times New Roman,serif" font-size="12.00">Data Tracking</text>
</g>
<!-- 1990979715872 -->
<g id="node38" class="node">
<title>1990979715872</title>
<ellipse fill="white" stroke="black" cx="1760" cy="-251" rx="27" ry="27"/>
</g>
<!-- 1990979723600&#45;&gt;1990979715872 -->
<g id="edge38" class="edge">
<title>1990979723600&#45;&gt;1990979715872</title>
<path fill="none" stroke="black" d="M1697.23,-254C1705.19,-253.61 1713.49,-253.21 1721.33,-252.83"/>
<polygon fill="black" stroke="black" points="1721.44,-256.33 1731.25,-252.35 1721.1,-249.33 1721.44,-256.33"/>
</g>
<!-- 1990979726432 -->
<g id="node13" class="node">
<title>1990979726432</title>
<polygon fill="white" stroke="black" points="1938.75,-269 1823,-269 1823,-233 1938.75,-233 1938.75,-269"/>
<text text-anchor="middle" x="1880.88" y="-245.97" font-family="Times New Roman,serif" font-size="12.00">Performance Review</text>
</g>
<!-- 1990981470592 -->
<g id="node39" class="node">
<title>1990981470592</title>
<ellipse fill="white" stroke="black" cx="2001.75" cy="-251" rx="27" ry="27"/>
</g>
<!-- 1990979726432&#45;&gt;1990981470592 -->
<g id="edge40" class="edge">
<title>1990979726432&#45;&gt;1990981470592</title>
<path fill="none" stroke="black" d="M1939.22,-251C1947.33,-251 1955.48,-251 1963.09,-251"/>
<polygon fill="black" stroke="black" points="1962.98,-254.5 1972.98,-251 1962.98,-247.5 1962.98,-254.5"/>
</g>
<!-- 1990981483072 -->
<g id="node14" class="node">
<title>1990981483072</title>
<polygon fill="white" stroke="black" points="2149,-269 2064.75,-269 2064.75,-233 2149,-233 2149,-269"/>
<text text-anchor="middle" x="2106.88" y="-245.97" font-family="Times New Roman,serif" font-size="12.00">Tech Upgrade</text>
</g>
<!-- 1990981480672 -->
<g id="node40" class="node">
<title>1990981480672</title>
<ellipse fill="white" stroke="black" cx="2212" cy="-251" rx="27" ry="27"/>
</g>
<!-- 1990981483072&#45;&gt;1990981480672 -->
<g id="edge42" class="edge">
<title>1990981483072&#45;&gt;1990981480672</title>
<path fill="none" stroke="black" d="M2149.23,-251C2157.19,-251 2165.49,-251 2173.33,-251"/>
<polygon fill="black" stroke="black" points="2173.25,-254.5 2183.25,-251 2173.25,-247.5 2173.25,-254.5"/>
</g>
<!-- 1990981473280 -->
<g id="node15" class="node">
<title>1990981473280</title>
<polygon fill="white" stroke="black" points="2365.25,-269 2275,-269 2275,-233 2365.25,-233 2365.25,-269"/>
<text text-anchor="middle" x="2320.12" y="-245.97" font-family="Times New Roman,serif" font-size="12.00">Feedback Loop</text>
</g>
<!-- 1990981469488 -->
<g id="node41" class="node">
<title>1990981469488</title>
<ellipse fill="white" stroke="black" cx="2428.25" cy="-251" rx="27" ry="27"/>
</g>
<!-- 1990981473280&#45;&gt;1990981469488 -->
<g id="edge44" class="edge">
<title>1990981473280&#45;&gt;1990981469488</title>
<path fill="none" stroke="black" d="M2365.52,-251C2373.51,-251 2381.78,-251 2389.56,-251"/>
<polygon fill="black" stroke="black" points="2389.39,-254.5 2399.39,-251 2389.39,-247.5 2389.39,-254.5"/>
</g>
<!-- 1990979543424 -->
<g id="node16" class="node">
<title>1990979543424</title>
<polygon fill="white" stroke="black" points="2590.5,-269 2491.25,-269 2491.25,-233 2590.5,-233 2590.5,-269"/>
<text text-anchor="middle" x="2540.88" y="-245.97" font-family="Times New Roman,serif" font-size="12.00">Stakeholder Meet</text>
</g>
<!-- 1990981720000 -->
<g id="node42" class="node">
<title>1990981720000</title>
<ellipse fill="white" stroke="black" cx="2653.5" cy="-251" rx="27" ry="27"/>
</g>
<!-- 1990979543424&#45;&gt;1990981720000 -->
<g id="edge46" class="edge">
<title>1990979543424&#45;&gt;1990981720000</title>
<path fill="none" stroke="black" d="M2590.72,-251C2598.79,-251 2607.05,-251 2614.79,-251"/>
<polygon fill="black" stroke="black" points="2614.55,-254.5 2624.55,-251 2614.55,-247.5 2614.55,-254.5"/>
</g>
<!-- 1990979543712 -->
<g id="node17" class="node">
<title>1990979543712</title>
<polygon fill="black" stroke="black" points="2770.5,-323 2716.5,-323 2716.5,-287 2770.5,-287 2770.5,-323"/>
</g>
<!-- 1990979543712&#45;&gt;1990981723264 -->
<g id="edge49" class="edge">
<title>1990979543712&#45;&gt;1990981723264</title>
<path fill="none" stroke="black" d="M2716.21,-305.21C2677.88,-305.51 2604.4,-306 2541.88,-306 1759,-306 1759,-306 1759,-306 1698.65,-306 1629.26,-294.71 1587.77,-286.73"/>
<polygon fill="black" stroke="black" points="1588.56,-283.32 1578.07,-284.82 1587.2,-290.19 1588.56,-283.32"/>
</g>
<!-- 1990979539680 -->
<g id="node18" class="node">
<title>1990979539680</title>
<polygon fill="black" stroke="black" points="2770.5,-269 2716.5,-269 2716.5,-233 2770.5,-233 2770.5,-269"/>
</g>
<!-- 1990979051616 -->
<g id="node43" class="node">
<title>1990979051616</title>
<ellipse fill="white" stroke="black" cx="2837.5" cy="-251" rx="27" ry="27"/>
<ellipse fill="none" stroke="black" cx="2837.5" cy="-251" rx="31" ry="31"/>
<text text-anchor="start" x="2821" y="-235.6" font-family="Times New Roman,serif" font-size="32.00">■</text>
</g>
<!-- 1990979539680&#45;&gt;1990979051616 -->
<g id="edge50" class="edge">
<title>1990979539680&#45;&gt;1990979051616</title>
<path fill="none" stroke="black" d="M2770.62,-251C2778.13,-251 2786.51,-251 2794.72,-251"/>
<polygon fill="black" stroke="black" points="2794.58,-254.5 2804.58,-251 2794.58,-247.5 2794.58,-254.5"/>
</g>
<!-- 1990979054016 -->
<g id="node19" class="node">
<title>1990979054016</title>
<ellipse fill="white" stroke="black" cx="27" cy="-279" rx="27" ry="27"/>
<text text-anchor="start" x="9.75" y="-261.7" font-family="Times New Roman,serif" font-size="34.00">●</text>
</g>
<!-- 1990979054016&#45;&gt;1990978478896 -->
<g id="edge1" class="edge">
<title>1990979054016&#45;&gt;1990978478896</title>
<path fill="none" stroke="black" d="M54.31,-279C61.69,-279 69.99,-279 78.36,-279"/>
<polygon fill="black" stroke="black" points="78.21,-282.5 88.21,-279 78.21,-275.5 78.21,-282.5"/>
</g>
<!-- 1990978472608&#45;&gt;1990980124064 -->
<g id="edge3" class="edge">
<title>1990978472608&#45;&gt;1990980124064</title>
<path fill="none" stroke="black" d="M266.79,-279C274.17,-279 282.52,-279 291.04,-279"/>
<polygon fill="black" stroke="black" points="290.77,-282.5 300.77,-279 290.77,-275.5 290.77,-282.5"/>
</g>
<!-- 1990980114560&#45;&gt;1990980121904 -->
<g id="edge6" class="edge">
<title>1990980114560&#45;&gt;1990980121904</title>
<path fill="none" stroke="black" d="M495.07,-315C504.38,-315 515.17,-315 525.73,-315"/>
<polygon fill="black" stroke="black" points="525.51,-318.5 535.51,-315 525.51,-311.5 525.51,-318.5"/>
</g>
<!-- 1990980109520&#45;&gt;1990980249712 -->
<g id="edge7" class="edge">
<title>1990980109520&#45;&gt;1990980249712</title>
<path fill="none" stroke="black" d="M495.07,-243C502.44,-243 510.75,-243 519.13,-243"/>
<polygon fill="black" stroke="black" points="519.02,-246.5 529.02,-243 519.02,-239.5 519.02,-246.5"/>
</g>
<!-- 1990980945920&#45;&gt;1990982118304 -->
<g id="edge16" class="edge">
<title>1990980945920&#45;&gt;1990982118304</title>
<path fill="none" stroke="black" d="M705.49,-300.08C719.16,-290.8 737.09,-278.64 752.88,-267.93"/>
<polygon fill="black" stroke="black" points="754.82,-270.84 761.13,-262.33 750.89,-265.05 754.82,-270.84"/>
</g>
<!-- 1990980959264&#45;&gt;1990976160640 -->
<g id="edge18" class="edge">
<title>1990980959264&#45;&gt;1990976160640</title>
<path fill="none" stroke="black" d="M699.39,-509.44C718.01,-484.18 748.9,-442.25 769.27,-414.62"/>
<polygon fill="black" stroke="black" points="771.98,-416.84 775.09,-406.72 766.34,-412.69 771.98,-416.84"/>
</g>
<!-- 1990980952352&#45;&gt;1990980239920 -->
<g id="edge22" class="edge">
<title>1990980952352&#45;&gt;1990980239920</title>
<path fill="none" stroke="black" d="M705.49,-257.92C719.16,-267.2 737.09,-279.36 752.88,-290.07"/>
<polygon fill="black" stroke="black" points="750.89,-292.95 761.13,-295.67 754.82,-287.16 750.89,-292.95"/>
</g>
<!-- 1990978234288&#45;&gt;1990976160640 -->
<g id="edge20" class="edge">
<title>1990978234288&#45;&gt;1990976160640</title>
<path fill="none" stroke="black" d="M709.73,-387C718.2,-387 727.91,-387 737.58,-387"/>
<polygon fill="black" stroke="black" points="737.31,-390.5 747.31,-387 737.31,-383.5 737.31,-390.5"/>
</g>
<!-- 1990979543616&#45;&gt;1990980239920 -->
<g id="edge21" class="edge">
<title>1990979543616&#45;&gt;1990980239920</title>
<path fill="none" stroke="black" d="M699.55,-437.56C702.93,-432.83 706.41,-427.8 709.5,-423 726.97,-395.89 726.05,-385.72 745.5,-360 750.29,-353.67 755.91,-347.31 761.5,-341.45"/>
<polygon fill="black" stroke="black" points="763.97,-343.93 768.52,-334.36 759,-339 763.97,-343.93"/>
</g>
<!-- 1990978237648&#45;&gt;1990982118304 -->
<g id="edge23" class="edge">
<title>1990978237648&#45;&gt;1990982118304</title>
<path fill="none" stroke="black" d="M699.55,-120.44C702.93,-125.17 706.41,-130.2 709.5,-135 726.97,-162.11 726.05,-172.28 745.5,-198 750.29,-204.33 755.91,-210.69 761.5,-216.55"/>
<polygon fill="black" stroke="black" points="759,-219 768.52,-223.64 763.97,-214.07 759,-219"/>
</g>
<!-- 1990978240096&#45;&gt;1990980253936 -->
<g id="edge19" class="edge">
<title>1990978240096&#45;&gt;1990980253936</title>
<path fill="none" stroke="black" d="M699.39,-48.56C718.01,-73.82 748.9,-115.75 769.27,-143.38"/>
<polygon fill="black" stroke="black" points="766.34,-145.31 775.09,-151.28 771.98,-141.16 766.34,-145.31"/>
</g>
<!-- 1990980948464&#45;&gt;1990980253936 -->
<g id="edge17" class="edge">
<title>1990980948464&#45;&gt;1990980253936</title>
<path fill="none" stroke="black" d="M709.73,-171C718.38,-171 728.32,-171 738.18,-171"/>
<polygon fill="black" stroke="black" points="738.13,-174.5 748.13,-171 738.13,-167.5 738.13,-174.5"/>
</g>
<!-- 1990978231552&#45;&gt;1990981168464 -->
<g id="edge30" class="edge">
<title>1990978231552&#45;&gt;1990981168464</title>
<path fill="none" stroke="black" d="M917.5,-367.19C932.94,-349.95 955.47,-324.8 972.52,-305.77"/>
<polygon fill="black" stroke="black" points="975.08,-308.16 979.15,-298.37 969.87,-303.48 975.08,-308.16"/>
</g>
<!-- 1990978227760&#45;&gt;1990981168464 -->
<g id="edge31" class="edge">
<title>1990978227760&#45;&gt;1990981168464</title>
<path fill="none" stroke="black" d="M917.5,-190.81C932.94,-208.05 955.47,-233.2 972.52,-252.23"/>
<polygon fill="black" stroke="black" points="969.87,-254.52 979.15,-259.63 975.08,-249.84 969.87,-254.52"/>
</g>
<!-- 1990978228432&#45;&gt;1990981168464 -->
<g id="edge28" class="edge">
<title>1990978228432&#45;&gt;1990981168464</title>
<path fill="none" stroke="black" d="M924.41,-252.18C932.46,-255.17 941.67,-258.6 950.76,-261.98"/>
<polygon fill="black" stroke="black" points="949.28,-265.16 959.87,-265.37 951.72,-258.6 949.28,-265.16"/>
</g>
<!-- 1990978237024&#45;&gt;1990981168464 -->
<g id="edge29" class="edge">
<title>1990978237024&#45;&gt;1990981168464</title>
<path fill="none" stroke="black" d="M924.41,-305.82C932.46,-302.83 941.67,-299.4 950.76,-296.02"/>
<polygon fill="black" stroke="black" points="951.72,-299.4 959.87,-292.63 949.28,-292.84 951.72,-299.4"/>
</g>
<!-- 1990981158768&#45;&gt;1990981164048 -->
<g id="edge33" class="edge">
<title>1990981158768&#45;&gt;1990981164048</title>
<path fill="none" stroke="black" d="M1123.48,-279C1130.81,-279 1139.07,-279 1147.45,-279"/>
<polygon fill="black" stroke="black" points="1147.38,-282.5 1157.38,-279 1147.38,-275.5 1147.38,-282.5"/>
</g>
<!-- 1990981163952&#45;&gt;1990977250624 -->
<g id="edge35" class="edge">
<title>1990981163952&#45;&gt;1990977250624</title>
<path fill="none" stroke="black" d="M1344.24,-279C1351.58,-279 1359.89,-279 1368.4,-279"/>
<polygon fill="black" stroke="black" points="1368.13,-282.5 1378.13,-279 1368.13,-275.5 1368.13,-282.5"/>
</g>
<!-- 1990981723264&#45;&gt;1990979723600 -->
<g id="edge37" class="edge">
<title>1990981723264&#45;&gt;1990979723600</title>
<path fill="none" stroke="black" d="M1576.51,-273.26C1584.06,-271.57 1592.6,-269.67 1601.19,-267.75"/>
<polygon fill="black" stroke="black" points="1601.94,-271.17 1610.94,-265.58 1600.42,-264.34 1601.94,-271.17"/>
</g>
<!-- 1990979715872&#45;&gt;1990979726432 -->
<g id="edge39" class="edge">
<title>1990979715872&#45;&gt;1990979726432</title>
<path fill="none" stroke="black" d="M1787.38,-251C1794.71,-251 1803.01,-251 1811.57,-251"/>
<polygon fill="black" stroke="black" points="1811.39,-254.5 1821.39,-251 1811.39,-247.5 1811.39,-254.5"/>
</g>
<!-- 1990981470592&#45;&gt;1990981483072 -->
<g id="edge41" class="edge">
<title>1990981470592&#45;&gt;1990981483072</title>
<path fill="none" stroke="black" d="M2029.04,-251C2036.42,-251 2044.73,-251 2053.07,-251"/>
<polygon fill="black" stroke="black" points="2052.89,-254.5 2062.89,-251 2052.89,-247.5 2052.89,-254.5"/>
</g>
<!-- 1990981480672&#45;&gt;1990981473280 -->
<g id="edge43" class="edge">
<title>1990981480672&#45;&gt;1990981473280</title>
<path fill="none" stroke="black" d="M2239.23,-251C2246.58,-251 2254.85,-251 2263.22,-251"/>
<polygon fill="black" stroke="black" points="2263.09,-254.5 2273.09,-251 2263.09,-247.5 2263.09,-254.5"/>
</g>
<!-- 1990981469488&#45;&gt;1990979543424 -->
<g id="edge45" class="edge">
<title>1990981469488&#45;&gt;1990979543424</title>
<path fill="none" stroke="black" d="M2455.75,-251C2463.04,-251 2471.27,-251 2479.64,-251"/>
<polygon fill="black" stroke="black" points="2479.57,-254.5 2489.57,-251 2479.57,-247.5 2479.57,-254.5"/>
</g>
<!-- 1990981720000&#45;&gt;1990979543712 -->
<g id="edge48" class="edge">
<title>1990981720000&#45;&gt;1990979543712</title>
<path fill="none" stroke="black" d="M2677.16,-264.91C2686.1,-270.39 2696.59,-276.83 2706.51,-282.92"/>
<polygon fill="black" stroke="black" points="2704.53,-285.8 2714.88,-288.05 2708.19,-279.84 2704.53,-285.8"/>
</g>
<!-- 1990981720000&#45;&gt;1990979539680 -->
<g id="edge47" class="edge">
<title>1990981720000&#45;&gt;1990979539680</title>
<path fill="none" stroke="black" d="M2680.9,-251C2688.39,-251 2696.68,-251 2704.7,-251"/>
<polygon fill="black" stroke="black" points="2704.6,-254.5 2714.6,-251 2704.6,-247.5 2704.6,-254.5"/>
</g>
</g>
</svg>
