<?xml version="1.0" encoding="UTF-8" standalone="no"?>
<!DOCTYPE svg PUBLIC "-//W3C//DTD SVG 1.1//EN"
 "http://www.w3.org/Graphics/SVG/1.1/DTD/svg11.dtd">
<!-- Generated by graphviz version 11.0.0 (20240428.1522)
 -->
<!-- Title: imdf_net_1754052073.4868042 Pages: 1 -->
<svg width="3066pt" height="238pt"
 viewBox="0.00 0.00 3065.50 238.00" xmlns="http://www.w3.org/2000/svg" xmlns:xlink="http://www.w3.org/1999/xlink">
<g id="graph0" class="graph" transform="scale(1 1) rotate(0) translate(4 234)">
<title>imdf_net_1754052073.4868042</title>
<polygon fill="white" stroke="none" points="-4,4 -4,-234 3061.5,-234 3061.5,4 -4,4"/>
<!-- 1990979482544 -->
<g id="node1" class="node">
<title>1990979482544</title>
<polygon fill="white" stroke="black" points="160.75,-149 90,-149 90,-113 160.75,-113 160.75,-149"/>
<text text-anchor="middle" x="125.38" y="-125.97" font-family="Times New Roman,serif" font-size="12.00">Site Survey</text>
</g>
<!-- 1990979473904 -->
<g id="node20" class="node">
<title>1990979473904</title>
<ellipse fill="white" stroke="black" cx="223.75" cy="-131" rx="27" ry="27"/>
</g>
<!-- 1990979482544&#45;&gt;1990979473904 -->
<g id="edge2" class="edge">
<title>1990979482544&#45;&gt;1990979473904</title>
<path fill="none" stroke="black" d="M161.17,-131C168.9,-131 177.14,-131 184.98,-131"/>
<polygon fill="black" stroke="black" points="184.97,-134.5 194.97,-131 184.97,-127.5 184.97,-134.5"/>
</g>
<!-- 1990980890512 -->
<g id="node2" class="node">
<title>1990980890512</title>
<polygon fill="white" stroke="black" points="365.75,-149 286.75,-149 286.75,-113 365.75,-113 365.75,-149"/>
<text text-anchor="middle" x="326.25" y="-125.97" font-family="Times New Roman,serif" font-size="12.00">Load Testing</text>
</g>
<!-- 1990976173552 -->
<g id="node21" class="node">
<title>1990976173552</title>
<ellipse fill="white" stroke="black" cx="428.75" cy="-131" rx="27" ry="27"/>
</g>
<!-- 1990980890512&#45;&gt;1990976173552 -->
<g id="edge4" class="edge">
<title>1990980890512&#45;&gt;1990976173552</title>
<path fill="none" stroke="black" d="M366.11,-131C373.96,-131 382.2,-131 390.01,-131"/>
<polygon fill="black" stroke="black" points="389.91,-134.5 399.91,-131 389.91,-127.5 389.91,-134.5"/>
</g>
<!-- 1990976171728 -->
<g id="node3" class="node">
<title>1990976171728</title>
<polygon fill="white" stroke="black" points="570.75,-149 491.75,-149 491.75,-113 570.75,-113 570.75,-149"/>
<text text-anchor="middle" x="531.25" y="-125.97" font-family="Times New Roman,serif" font-size="12.00">Impact Study</text>
</g>
<!-- 1990976172256 -->
<g id="node22" class="node">
<title>1990976172256</title>
<ellipse fill="white" stroke="black" cx="633.75" cy="-131" rx="27" ry="27"/>
</g>
<!-- 1990976171728&#45;&gt;1990976172256 -->
<g id="edge6" class="edge">
<title>1990976171728&#45;&gt;1990976172256</title>
<path fill="none" stroke="black" d="M571.11,-131C578.96,-131 587.2,-131 595.01,-131"/>
<polygon fill="black" stroke="black" points="594.91,-134.5 604.91,-131 594.91,-127.5 594.91,-134.5"/>
</g>
<!-- 1990976164384 -->
<g id="node4" class="node">
<title>1990976164384</title>
<polygon fill="white" stroke="black" points="783.25,-149 696.75,-149 696.75,-113 783.25,-113 783.25,-149"/>
<text text-anchor="middle" x="740" y="-125.97" font-family="Times New Roman,serif" font-size="12.00">Crop Selection</text>
</g>
<!-- 1990975980896 -->
<g id="node23" class="node">
<title>1990975980896</title>
<ellipse fill="white" stroke="black" cx="846.25" cy="-131" rx="27" ry="27"/>
</g>
<!-- 1990976164384&#45;&gt;1990975980896 -->
<g id="edge8" class="edge">
<title>1990976164384&#45;&gt;1990975980896</title>
<path fill="none" stroke="black" d="M783.7,-131C791.62,-131 799.84,-131 807.59,-131"/>
<polygon fill="black" stroke="black" points="807.39,-134.5 817.39,-131 807.39,-127.5 807.39,-134.5"/>
</g>
<!-- 1990975980560 -->
<g id="node5" class="node">
<title>1990975980560</title>
<polygon fill="white" stroke="black" points="968.75,-149 909.25,-149 909.25,-113 968.75,-113 968.75,-149"/>
<text text-anchor="middle" x="939" y="-125.97" font-family="Times New Roman,serif" font-size="12.00">Soil Prep</text>
</g>
<!-- 1990975986752 -->
<g id="node24" class="node">
<title>1990975986752</title>
<ellipse fill="white" stroke="black" cx="1031.75" cy="-131" rx="27" ry="27"/>
</g>
<!-- 1990975980560&#45;&gt;1990975986752 -->
<g id="edge10" class="edge">
<title>1990975980560&#45;&gt;1990975986752</title>
<path fill="none" stroke="black" d="M969.21,-131C976.8,-131 985.09,-131 993.04,-131"/>
<polygon fill="black" stroke="black" points="992.84,-134.5 1002.84,-131 992.84,-127.5 992.84,-134.5"/>
</g>
<!-- 1990980573456 -->
<g id="node6" class="node">
<title>1990980573456</title>
<polygon fill="white" stroke="black" points="1161.75,-149 1094.75,-149 1094.75,-113 1161.75,-113 1161.75,-149"/>
<text text-anchor="middle" x="1128.25" y="-125.97" font-family="Times New Roman,serif" font-size="12.00">Bed Install</text>
</g>
<!-- 1990980568512 -->
<g id="node25" class="node">
<title>1990980568512</title>
<ellipse fill="white" stroke="black" cx="1224.75" cy="-203" rx="27" ry="27"/>
</g>
<!-- 1990980573456&#45;&gt;1990980568512 -->
<g id="edge13" class="edge">
<title>1990980573456&#45;&gt;1990980568512</title>
<path fill="none" stroke="black" d="M1153.1,-149.17C1165.42,-158.55 1180.58,-170.1 1193.69,-180.1"/>
<polygon fill="black" stroke="black" points="1191.53,-182.85 1201.6,-186.13 1195.77,-177.28 1191.53,-182.85"/>
</g>
<!-- 1990980582240 -->
<g id="node26" class="node">
<title>1990980582240</title>
<ellipse fill="white" stroke="black" cx="1224.75" cy="-131" rx="27" ry="27"/>
</g>
<!-- 1990980573456&#45;&gt;1990980582240 -->
<g id="edge12" class="edge">
<title>1990980573456&#45;&gt;1990980582240</title>
<path fill="none" stroke="black" d="M1162.04,-131C1169.77,-131 1178.08,-131 1186.02,-131"/>
<polygon fill="black" stroke="black" points="1185.75,-134.5 1195.75,-131 1185.75,-127.5 1185.75,-134.5"/>
</g>
<!-- 1990980443632 -->
<g id="node27" class="node">
<title>1990980443632</title>
<ellipse fill="white" stroke="black" cx="1224.75" cy="-59" rx="27" ry="27"/>
</g>
<!-- 1990980573456&#45;&gt;1990980443632 -->
<g id="edge14" class="edge">
<title>1990980573456&#45;&gt;1990980443632</title>
<path fill="none" stroke="black" d="M1153.1,-112.83C1165.42,-103.45 1180.58,-91.9 1193.69,-81.9"/>
<polygon fill="black" stroke="black" points="1195.77,-84.72 1201.6,-75.87 1191.53,-79.15 1195.77,-84.72"/>
</g>
<!-- 1990980440992 -->
<g id="node7" class="node">
<title>1990980440992</title>
<polygon fill="white" stroke="black" points="1370.88,-77 1294.12,-77 1294.12,-41 1370.88,-41 1370.88,-77"/>
<text text-anchor="middle" x="1332.5" y="-53.98" font-family="Times New Roman,serif" font-size="12.00">Solar Config</text>
</g>
<!-- 1990980572832 -->
<g id="node29" class="node">
<title>1990980572832</title>
<ellipse fill="white" stroke="black" cx="1440.25" cy="-59" rx="27" ry="27"/>
</g>
<!-- 1990980440992&#45;&gt;1990980572832 -->
<g id="edge19" class="edge">
<title>1990980440992&#45;&gt;1990980572832</title>
<path fill="none" stroke="black" d="M1371.08,-59C1381.07,-59 1391.85,-59 1401.82,-59"/>
<polygon fill="black" stroke="black" points="1401.56,-62.5 1411.56,-59 1401.56,-55.5 1401.56,-62.5"/>
</g>
<!-- 1990980573744 -->
<g id="node8" class="node">
<title>1990980573744</title>
<polygon fill="white" stroke="black" points="1377.25,-149 1287.75,-149 1287.75,-113 1377.25,-113 1377.25,-149"/>
<text text-anchor="middle" x="1332.5" y="-125.97" font-family="Times New Roman,serif" font-size="12.00">Irrigation Setup</text>
</g>
<!-- 1990980569328 -->
<g id="node30" class="node">
<title>1990980569328</title>
<ellipse fill="white" stroke="black" cx="1440.25" cy="-131" rx="27" ry="27"/>
</g>
<!-- 1990980573744&#45;&gt;1990980569328 -->
<g id="edge18" class="edge">
<title>1990980573744&#45;&gt;1990980569328</title>
<path fill="none" stroke="black" d="M1377.73,-131C1385.7,-131 1393.94,-131 1401.7,-131"/>
<polygon fill="black" stroke="black" points="1401.49,-134.5 1411.49,-131 1401.49,-127.5 1401.49,-134.5"/>
</g>
<!-- 1990980577632 -->
<g id="node9" class="node">
<title>1990980577632</title>
<polygon fill="white" stroke="black" points="1375.75,-221 1289.25,-221 1289.25,-185 1375.75,-185 1375.75,-221"/>
<text text-anchor="middle" x="1332.5" y="-197.97" font-family="Times New Roman,serif" font-size="12.00">Sensor Deploy</text>
</g>
<!-- 1990980577920 -->
<g id="node28" class="node">
<title>1990980577920</title>
<ellipse fill="white" stroke="black" cx="1440.25" cy="-203" rx="27" ry="27"/>
</g>
<!-- 1990980577632&#45;&gt;1990980577920 -->
<g id="edge20" class="edge">
<title>1990980577632&#45;&gt;1990980577920</title>
<path fill="none" stroke="black" d="M1376.21,-203C1384.53,-203 1393.19,-203 1401.35,-203"/>
<polygon fill="black" stroke="black" points="1401.3,-206.5 1411.3,-203 1401.3,-199.5 1401.3,-206.5"/>
</g>
<!-- 1990980450736 -->
<g id="node10" class="node">
<title>1990980450736</title>
<polygon fill="white" stroke="black" points="1602.5,-149 1503.25,-149 1503.25,-113 1602.5,-113 1602.5,-149"/>
<text text-anchor="middle" x="1552.88" y="-125.97" font-family="Times New Roman,serif" font-size="12.00">Community Meet</text>
</g>
<!-- 1990980451360 -->
<g id="node31" class="node">
<title>1990980451360</title>
<ellipse fill="white" stroke="black" cx="1665.5" cy="-131" rx="27" ry="27"/>
</g>
<!-- 1990980450736&#45;&gt;1990980451360 -->
<g id="edge24" class="edge">
<title>1990980450736&#45;&gt;1990980451360</title>
<path fill="none" stroke="black" d="M1602.72,-131C1610.79,-131 1619.05,-131 1626.79,-131"/>
<polygon fill="black" stroke="black" points="1626.55,-134.5 1636.55,-131 1626.55,-127.5 1626.55,-134.5"/>
</g>
<!-- 1990975993328 -->
<g id="node11" class="node">
<title>1990975993328</title>
<polygon fill="white" stroke="black" points="1818,-149 1728.5,-149 1728.5,-113 1818,-113 1818,-149"/>
<text text-anchor="middle" x="1773.25" y="-125.97" font-family="Times New Roman,serif" font-size="12.00">Workshop Plan</text>
</g>
<!-- 1990975987952 -->
<g id="node32" class="node">
<title>1990975987952</title>
<ellipse fill="white" stroke="black" cx="1881" cy="-131" rx="27" ry="27"/>
</g>
<!-- 1990975993328&#45;&gt;1990975987952 -->
<g id="edge26" class="edge">
<title>1990975993328&#45;&gt;1990975987952</title>
<path fill="none" stroke="black" d="M1818.48,-131C1826.45,-131 1834.69,-131 1842.45,-131"/>
<polygon fill="black" stroke="black" points="1842.24,-134.5 1852.24,-131 1842.24,-127.5 1842.24,-134.5"/>
</g>
<!-- 1990975994384 -->
<g id="node12" class="node">
<title>1990975994384</title>
<polygon fill="white" stroke="black" points="2018.5,-149 1944,-149 1944,-113 2018.5,-113 2018.5,-149"/>
<text text-anchor="middle" x="1981.25" y="-125.97" font-family="Times New Roman,serif" font-size="12.00">Pest Control</text>
</g>
<!-- 1990975981328 -->
<g id="node33" class="node">
<title>1990975981328</title>
<ellipse fill="white" stroke="black" cx="2081.5" cy="-131" rx="27" ry="27"/>
</g>
<!-- 1990975994384&#45;&gt;1990975981328 -->
<g id="edge28" class="edge">
<title>1990975994384&#45;&gt;1990975981328</title>
<path fill="none" stroke="black" d="M2018.83,-131C2026.59,-131 2034.79,-131 2042.59,-131"/>
<polygon fill="black" stroke="black" points="2042.5,-134.5 2052.5,-131 2042.5,-127.5 2042.5,-134.5"/>
</g>
<!-- 1990975995152 -->
<g id="node13" class="node">
<title>1990975995152</title>
<polygon fill="white" stroke="black" points="2221.25,-149 2144.5,-149 2144.5,-113 2221.25,-113 2221.25,-149"/>
<text text-anchor="middle" x="2182.88" y="-125.97" font-family="Times New Roman,serif" font-size="12.00">Harvest Plan</text>
</g>
<!-- 1990975987856 -->
<g id="node34" class="node">
<title>1990975987856</title>
<ellipse fill="white" stroke="black" cx="2284.25" cy="-131" rx="27" ry="27"/>
</g>
<!-- 1990975995152&#45;&gt;1990975987856 -->
<g id="edge30" class="edge">
<title>1990975995152&#45;&gt;1990975987856</title>
<path fill="none" stroke="black" d="M2221.73,-131C2229.52,-131 2237.73,-131 2245.52,-131"/>
<polygon fill="black" stroke="black" points="2245.4,-134.5 2255.4,-131 2245.4,-127.5 2245.4,-134.5"/>
</g>
<!-- 1990975991024 -->
<g id="node14" class="node">
<title>1990975991024</title>
<polygon fill="white" stroke="black" points="2428.5,-149 2347.25,-149 2347.25,-113 2428.5,-113 2428.5,-149"/>
<text text-anchor="middle" x="2387.88" y="-125.97" font-family="Times New Roman,serif" font-size="12.00">Supply Route</text>
</g>
<!-- 1990979280992 -->
<g id="node35" class="node">
<title>1990979280992</title>
<ellipse fill="white" stroke="black" cx="2491.5" cy="-131" rx="27" ry="27"/>
</g>
<!-- 1990975991024&#45;&gt;1990979280992 -->
<g id="edge32" class="edge">
<title>1990975991024&#45;&gt;1990979280992</title>
<path fill="none" stroke="black" d="M2428.75,-131C2436.65,-131 2444.92,-131 2452.75,-131"/>
<polygon fill="black" stroke="black" points="2452.67,-134.5 2462.67,-131 2452.67,-127.5 2452.67,-134.5"/>
</g>
<!-- 1990980570672 -->
<g id="node15" class="node">
<title>1990980570672</title>
<polygon fill="white" stroke="black" points="2634.25,-126 2554.5,-126 2554.5,-90 2634.25,-90 2634.25,-126"/>
<text text-anchor="middle" x="2594.38" y="-102.97" font-family="Times New Roman,serif" font-size="12.00">Data Monitor</text>
</g>
<!-- 1990980577440 -->
<g id="node36" class="node">
<title>1990980577440</title>
<ellipse fill="white" stroke="black" cx="2697.25" cy="-99" rx="27" ry="27"/>
</g>
<!-- 1990980570672&#45;&gt;1990980577440 -->
<g id="edge34" class="edge">
<title>1990980570672&#45;&gt;1990980577440</title>
<path fill="none" stroke="black" d="M2634.66,-104.49C2642.53,-103.79 2650.77,-103.06 2658.57,-102.36"/>
<polygon fill="black" stroke="black" points="2658.82,-105.85 2668.47,-101.48 2658.2,-98.88 2658.82,-105.85"/>
</g>
<!-- 1990980573360 -->
<g id="node16" class="node">
<title>1990980573360</title>
<polygon fill="white" stroke="black" points="2837,-121 2760.25,-121 2760.25,-85 2837,-85 2837,-121"/>
<text text-anchor="middle" x="2798.62" y="-97.97" font-family="Times New Roman,serif" font-size="12.00">Maintenance</text>
</g>
<!-- 1990980580464 -->
<g id="node37" class="node">
<title>1990980580464</title>
<ellipse fill="white" stroke="black" cx="2904" cy="-107" rx="27" ry="27"/>
</g>
<!-- 1990980573360&#45;&gt;1990980580464 -->
<g id="edge37" class="edge">
<title>1990980573360&#45;&gt;1990980580464</title>
<path fill="none" stroke="black" d="M2837.24,-104.46C2846.31,-104.81 2856.01,-105.18 2865.09,-105.53"/>
<polygon fill="black" stroke="black" points="2864.94,-109.03 2875.07,-105.92 2865.21,-102.03 2864.94,-109.03"/>
</g>
<!-- 1990980571488 -->
<g id="node17" class="node">
<title>1990980571488</title>
<polygon fill="black" stroke="black" points="2825.62,-58 2771.62,-58 2771.62,-22 2825.62,-22 2825.62,-58"/>
</g>
<!-- 1990978477600 -->
<g id="node38" class="node">
<title>1990978477600</title>
<ellipse fill="white" stroke="black" cx="2904" cy="-31" rx="27" ry="27"/>
<ellipse fill="none" stroke="black" cx="2904" cy="-31" rx="31" ry="31"/>
<text text-anchor="start" x="2887.5" y="-15.6" font-family="Times New Roman,serif" font-size="32.00">■</text>
</g>
<!-- 1990980571488&#45;&gt;1990978477600 -->
<g id="edge38" class="edge">
<title>1990980571488&#45;&gt;1990978477600</title>
<path fill="none" stroke="black" d="M2825.98,-37.71C2836.77,-36.77 2849.51,-35.66 2861.5,-34.61"/>
<polygon fill="black" stroke="black" points="2861.5,-38.13 2871.16,-33.77 2860.89,-31.15 2861.5,-38.13"/>
</g>
<!-- 1990980578544 -->
<g id="node18" class="node">
<title>1990980578544</title>
<polygon fill="white" stroke="black" points="3057.5,-152 2971,-152 2971,-116 3057.5,-116 3057.5,-152"/>
<text text-anchor="middle" x="3014.25" y="-128.97" font-family="Times New Roman,serif" font-size="12.00">Yield Analysis</text>
</g>
<!-- 1990980578544&#45;&gt;1990979280992 -->
<g id="edge40" class="edge">
<title>1990980578544&#45;&gt;1990979280992</title>
<path fill="none" stroke="black" d="M2970.5,-142.94C2927.53,-151.13 2859.29,-162 2799.62,-162 2696.25,-162 2696.25,-162 2696.25,-162 2637.31,-162 2569.85,-149.16 2529.25,-140.01"/>
<polygon fill="black" stroke="black" points="2530.05,-136.6 2519.52,-137.76 2528.47,-143.42 2530.05,-136.6"/>
</g>
<!-- 1990978485424 -->
<g id="node19" class="node">
<title>1990978485424</title>
<ellipse fill="white" stroke="black" cx="27" cy="-131" rx="27" ry="27"/>
<text text-anchor="start" x="9.75" y="-113.7" font-family="Times New Roman,serif" font-size="34.00">●</text>
</g>
<!-- 1990978485424&#45;&gt;1990979482544 -->
<g id="edge1" class="edge">
<title>1990978485424&#45;&gt;1990979482544</title>
<path fill="none" stroke="black" d="M54.33,-131C61.76,-131 70.06,-131 78.28,-131"/>
<polygon fill="black" stroke="black" points="78.24,-134.5 88.24,-131 78.24,-127.5 78.24,-134.5"/>
</g>
<!-- 1990979473904&#45;&gt;1990980890512 -->
<g id="edge3" class="edge">
<title>1990979473904&#45;&gt;1990980890512</title>
<path fill="none" stroke="black" d="M251.16,-131C258.59,-131 266.94,-131 275.27,-131"/>
<polygon fill="black" stroke="black" points="275.03,-134.5 285.03,-131 275.03,-127.5 275.03,-134.5"/>
</g>
<!-- 1990976173552&#45;&gt;1990976171728 -->
<g id="edge5" class="edge">
<title>1990976173552&#45;&gt;1990976171728</title>
<path fill="none" stroke="black" d="M456.16,-131C463.59,-131 471.94,-131 480.27,-131"/>
<polygon fill="black" stroke="black" points="480.03,-134.5 490.03,-131 480.03,-127.5 480.03,-134.5"/>
</g>
<!-- 1990976172256&#45;&gt;1990976164384 -->
<g id="edge7" class="edge">
<title>1990976172256&#45;&gt;1990976164384</title>
<path fill="none" stroke="black" d="M661.06,-131C668.44,-131 676.74,-131 685.11,-131"/>
<polygon fill="black" stroke="black" points="684.96,-134.5 694.96,-131 684.96,-127.5 684.96,-134.5"/>
</g>
<!-- 1990975980896&#45;&gt;1990975980560 -->
<g id="edge9" class="edge">
<title>1990975980896&#45;&gt;1990975980560</title>
<path fill="none" stroke="black" d="M873.5,-131C881.04,-131 889.45,-131 897.63,-131"/>
<polygon fill="black" stroke="black" points="897.43,-134.5 907.43,-131 897.43,-127.5 897.43,-134.5"/>
</g>
<!-- 1990975986752&#45;&gt;1990980573456 -->
<g id="edge11" class="edge">
<title>1990975986752&#45;&gt;1990980573456</title>
<path fill="none" stroke="black" d="M1059.07,-131C1066.5,-131 1074.79,-131 1082.95,-131"/>
<polygon fill="black" stroke="black" points="1082.81,-134.5 1092.81,-131 1082.81,-127.5 1082.81,-134.5"/>
</g>
<!-- 1990980568512&#45;&gt;1990980577632 -->
<g id="edge15" class="edge">
<title>1990980568512&#45;&gt;1990980577632</title>
<path fill="none" stroke="black" d="M1252.16,-203C1259.99,-203 1268.86,-203 1277.77,-203"/>
<polygon fill="black" stroke="black" points="1277.47,-206.5 1287.47,-203 1277.47,-199.5 1277.47,-206.5"/>
</g>
<!-- 1990980582240&#45;&gt;1990980573744 -->
<g id="edge16" class="edge">
<title>1990980582240&#45;&gt;1990980573744</title>
<path fill="none" stroke="black" d="M1252.16,-131C1259.48,-131 1267.71,-131 1276.03,-131"/>
<polygon fill="black" stroke="black" points="1275.83,-134.5 1285.83,-131 1275.83,-127.5 1275.83,-134.5"/>
</g>
<!-- 1990980443632&#45;&gt;1990980440992 -->
<g id="edge17" class="edge">
<title>1990980443632&#45;&gt;1990980440992</title>
<path fill="none" stroke="black" d="M1252.16,-59C1261.42,-59 1272.13,-59 1282.63,-59"/>
<polygon fill="black" stroke="black" points="1282.35,-62.5 1292.35,-59 1282.35,-55.5 1282.35,-62.5"/>
</g>
<!-- 1990980577920&#45;&gt;1990980450736 -->
<g id="edge21" class="edge">
<title>1990980577920&#45;&gt;1990980450736</title>
<path fill="none" stroke="black" d="M1463.37,-188.6C1477.81,-179.2 1497.05,-166.69 1513.89,-155.72"/>
<polygon fill="black" stroke="black" points="1515.74,-158.69 1522.21,-150.31 1511.92,-152.83 1515.74,-158.69"/>
</g>
<!-- 1990980572832&#45;&gt;1990980450736 -->
<g id="edge23" class="edge">
<title>1990980572832&#45;&gt;1990980450736</title>
<path fill="none" stroke="black" d="M1463.37,-73.4C1477.81,-82.8 1497.05,-95.31 1513.89,-106.28"/>
<polygon fill="black" stroke="black" points="1511.92,-109.17 1522.21,-111.69 1515.74,-103.31 1511.92,-109.17"/>
</g>
<!-- 1990980569328&#45;&gt;1990980450736 -->
<g id="edge22" class="edge">
<title>1990980569328&#45;&gt;1990980450736</title>
<path fill="none" stroke="black" d="M1467.75,-131C1475.04,-131 1483.27,-131 1491.64,-131"/>
<polygon fill="black" stroke="black" points="1491.57,-134.5 1501.57,-131 1491.57,-127.5 1491.57,-134.5"/>
</g>
<!-- 1990980451360&#45;&gt;1990975993328 -->
<g id="edge25" class="edge">
<title>1990980451360&#45;&gt;1990975993328</title>
<path fill="none" stroke="black" d="M1692.91,-131C1700.23,-131 1708.46,-131 1716.78,-131"/>
<polygon fill="black" stroke="black" points="1716.58,-134.5 1726.58,-131 1716.58,-127.5 1716.58,-134.5"/>
</g>
<!-- 1990975987952&#45;&gt;1990975994384 -->
<g id="edge27" class="edge">
<title>1990975987952&#45;&gt;1990975994384</title>
<path fill="none" stroke="black" d="M1908.33,-131C1915.67,-131 1923.88,-131 1932.06,-131"/>
<polygon fill="black" stroke="black" points="1931.99,-134.5 1941.99,-131 1931.99,-127.5 1931.99,-134.5"/>
</g>
<!-- 1990975981328&#45;&gt;1990975995152 -->
<g id="edge29" class="edge">
<title>1990975981328&#45;&gt;1990975995152</title>
<path fill="none" stroke="black" d="M2108.87,-131C2116.22,-131 2124.44,-131 2132.65,-131"/>
<polygon fill="black" stroke="black" points="2132.64,-134.5 2142.64,-131 2132.64,-127.5 2132.64,-134.5"/>
</g>
<!-- 1990975987856&#45;&gt;1990975991024 -->
<g id="edge31" class="edge">
<title>1990975987856&#45;&gt;1990975991024</title>
<path fill="none" stroke="black" d="M2311.69,-131C2318.96,-131 2327.11,-131 2335.28,-131"/>
<polygon fill="black" stroke="black" points="2335.26,-134.5 2345.26,-131 2335.26,-127.5 2335.26,-134.5"/>
</g>
<!-- 1990979280992&#45;&gt;1990980570672 -->
<g id="edge33" class="edge">
<title>1990979280992&#45;&gt;1990980570672</title>
<path fill="none" stroke="black" d="M2518.22,-125.14C2525.93,-123.38 2534.67,-121.38 2543.4,-119.4"/>
<polygon fill="black" stroke="black" points="2543.91,-122.87 2552.88,-117.23 2542.35,-116.04 2543.91,-122.87"/>
</g>
<!-- 1990980577440&#45;&gt;1990980573360 -->
<g id="edge35" class="edge">
<title>1990980577440&#45;&gt;1990980573360</title>
<path fill="none" stroke="black" d="M2724.62,-100.06C2731.97,-100.36 2740.19,-100.69 2748.4,-101.02"/>
<polygon fill="black" stroke="black" points="2748.26,-104.52 2758.39,-101.42 2748.54,-97.52 2748.26,-104.52"/>
</g>
<!-- 1990980577440&#45;&gt;1990980571488 -->
<g id="edge36" class="edge">
<title>1990980577440&#45;&gt;1990980571488</title>
<path fill="none" stroke="black" d="M2720.8,-85.61C2732.87,-78.44 2748.03,-69.45 2761.68,-61.34"/>
<polygon fill="black" stroke="black" points="2763.18,-64.52 2769.99,-56.41 2759.61,-58.5 2763.18,-64.52"/>
</g>
<!-- 1990980580464&#45;&gt;1990980578544 -->
<g id="edge39" class="edge">
<title>1990980580464&#45;&gt;1990980578544</title>
<path fill="none" stroke="black" d="M2930.65,-113.4C2939.47,-115.6 2949.69,-118.15 2959.88,-120.69"/>
<polygon fill="black" stroke="black" points="2958.84,-124.04 2969.39,-123.06 2960.53,-117.24 2958.84,-124.04"/>
</g>
</g>
</svg>
