<?xml version="1.0" encoding="UTF-8" standalone="no"?>
<!DOCTYPE svg PUBLIC "-//W3C//DTD SVG 1.1//EN"
 "http://www.w3.org/Graphics/SVG/1.1/DTD/svg11.dtd">
<!-- Generated by graphviz version 11.0.0 (20240428.1522)
 -->
<!-- Title: imdf_net_1754052110.0984337 Pages: 1 -->
<svg width="3705pt" height="172pt"
 viewBox="0.00 0.00 3705.25 172.00" xmlns="http://www.w3.org/2000/svg" xmlns:xlink="http://www.w3.org/1999/xlink">
<g id="graph0" class="graph" transform="scale(1 1) rotate(0) translate(4 168)">
<title>imdf_net_1754052110.0984337</title>
<polygon fill="white" stroke="none" points="-4,4 -4,-168 3701.25,-168 3701.25,4 -4,4"/>
<!-- 1990980444400 -->
<g id="node1" class="node">
<title>1990980444400</title>
<polygon fill="white" stroke="black" points="190.75,-119 90,-119 90,-83 190.75,-83 190.75,-119"/>
<text text-anchor="middle" x="140.38" y="-95.97" font-family="Times New Roman,serif" font-size="12.00">Material Sourcing</text>
</g>
<!-- 1990980449488 -->
<g id="node24" class="node">
<title>1990980449488</title>
<ellipse fill="white" stroke="black" cx="253.75" cy="-101" rx="27" ry="27"/>
</g>
<!-- 1990980444400&#45;&gt;1990980449488 -->
<g id="edge2" class="edge">
<title>1990980444400&#45;&gt;1990980449488</title>
<path fill="none" stroke="black" d="M191.2,-101C199.18,-101 207.33,-101 214.97,-101"/>
<polygon fill="black" stroke="black" points="214.95,-104.5 224.95,-101 214.95,-97.5 214.95,-104.5"/>
</g>
<!-- 1990980443872 -->
<g id="node2" class="node">
<title>1990980443872</title>
<polygon fill="white" stroke="black" points="410.75,-119 316.75,-119 316.75,-83 410.75,-83 410.75,-119"/>
<text text-anchor="middle" x="363.75" y="-95.97" font-family="Times New Roman,serif" font-size="12.00">Supplier Vetting</text>
</g>
<!-- 1990977557168 -->
<g id="node25" class="node">
<title>1990977557168</title>
<ellipse fill="white" stroke="black" cx="473.75" cy="-137" rx="27" ry="27"/>
</g>
<!-- 1990980443872&#45;&gt;1990977557168 -->
<g id="edge4" class="edge">
<title>1990980443872&#45;&gt;1990977557168</title>
<path fill="none" stroke="black" d="M411.18,-116.48C419.83,-119.36 428.74,-122.33 437,-125.08"/>
<polygon fill="black" stroke="black" points="435.76,-128.36 446.35,-128.2 437.97,-121.72 435.76,-128.36"/>
</g>
<!-- 1990975990640 -->
<g id="node26" class="node">
<title>1990975990640</title>
<ellipse fill="white" stroke="black" cx="473.75" cy="-65" rx="27" ry="27"/>
</g>
<!-- 1990980443872&#45;&gt;1990975990640 -->
<g id="edge5" class="edge">
<title>1990980443872&#45;&gt;1990975990640</title>
<path fill="none" stroke="black" d="M411.18,-85.52C419.83,-82.64 428.74,-79.67 437,-76.92"/>
<polygon fill="black" stroke="black" points="437.97,-80.28 446.35,-73.8 435.76,-73.64 437.97,-80.28"/>
</g>
<!-- 1990975988288 -->
<g id="node3" class="node">
<title>1990975988288</title>
<polygon fill="white" stroke="black" points="657.75,-83 536.75,-83 536.75,-47 657.75,-47 657.75,-83"/>
<text text-anchor="middle" x="597.25" y="-59.98" font-family="Times New Roman,serif" font-size="12.00">Design Customization</text>
</g>
<!-- 1990979659456 -->
<g id="node27" class="node">
<title>1990979659456</title>
<ellipse fill="white" stroke="black" cx="720.75" cy="-65" rx="27" ry="27"/>
</g>
<!-- 1990975988288&#45;&gt;1990979659456 -->
<g id="edge9" class="edge">
<title>1990975988288&#45;&gt;1990979659456</title>
<path fill="none" stroke="black" d="M657.93,-65C666.12,-65 674.34,-65 681.99,-65"/>
<polygon fill="black" stroke="black" points="681.94,-68.5 691.94,-65 681.94,-61.5 681.94,-68.5"/>
</g>
<!-- 1990980249952 -->
<g id="node4" class="node">
<title>1990980249952</title>
<polygon fill="white" stroke="black" points="643.12,-155 551.38,-155 551.38,-119 643.12,-119 643.12,-155"/>
<text text-anchor="middle" x="597.25" y="-131.97" font-family="Times New Roman,serif" font-size="12.00">Inventory Setup</text>
</g>
<!-- 1990980239824 -->
<g id="node28" class="node">
<title>1990980239824</title>
<ellipse fill="white" stroke="black" cx="720.75" cy="-137" rx="27" ry="27"/>
</g>
<!-- 1990980249952&#45;&gt;1990980239824 -->
<g id="edge8" class="edge">
<title>1990980249952&#45;&gt;1990980239824</title>
<path fill="none" stroke="black" d="M643.49,-137C656.27,-137 670.04,-137 682.31,-137"/>
<polygon fill="black" stroke="black" points="682.02,-140.5 692.02,-137 682.02,-133.5 682.02,-140.5"/>
</g>
<!-- 1990980250240 -->
<g id="node5" class="node">
<title>1990980250240</title>
<polygon fill="white" stroke="black" points="886.75,-155 783.75,-155 783.75,-119 886.75,-119 886.75,-155"/>
<text text-anchor="middle" x="835.25" y="-131.97" font-family="Times New Roman,serif" font-size="12.00">Seasonal Planning</text>
</g>
<!-- 1990980248464 -->
<g id="node29" class="node">
<title>1990980248464</title>
<ellipse fill="white" stroke="black" cx="949.75" cy="-137" rx="27" ry="27"/>
</g>
<!-- 1990980250240&#45;&gt;1990980248464 -->
<g id="edge13" class="edge">
<title>1990980250240&#45;&gt;1990980248464</title>
<path fill="none" stroke="black" d="M887.23,-137C895.25,-137 903.4,-137 911.04,-137"/>
<polygon fill="black" stroke="black" points="911.02,-140.5 921.02,-137 911.02,-133.5 911.02,-140.5"/>
</g>
<!-- 1990979658160 -->
<g id="node6" class="node">
<title>1990979658160</title>
<polygon fill="white" stroke="black" points="885.25,-46 785.25,-46 785.25,-10 885.25,-10 885.25,-46"/>
<text text-anchor="middle" x="835.25" y="-22.98" font-family="Times New Roman,serif" font-size="12.00">Prototype Testing</text>
</g>
<!-- 1990979651008 -->
<g id="node30" class="node">
<title>1990979651008</title>
<ellipse fill="white" stroke="black" cx="949.75" cy="-27" rx="27" ry="27"/>
</g>
<!-- 1990979658160&#45;&gt;1990979651008 -->
<g id="edge12" class="edge">
<title>1990979658160&#45;&gt;1990979651008</title>
<path fill="none" stroke="black" d="M885.59,-27.56C894.08,-27.49 902.78,-27.41 910.91,-27.34"/>
<polygon fill="black" stroke="black" points="910.83,-30.84 920.8,-27.25 910.77,-23.84 910.83,-30.84"/>
</g>
<!-- 1990971755648 -->
<g id="node7" class="node">
<title>1990971755648</title>
<polygon fill="white" stroke="black" points="1357.5,-81 1259.75,-81 1259.75,-45 1357.5,-45 1357.5,-81"/>
<text text-anchor="middle" x="1308.62" y="-57.98" font-family="Times New Roman,serif" font-size="12.00">Order Processing</text>
</g>
<!-- 1990978753872 -->
<g id="node31" class="node">
<title>1990978753872</title>
<ellipse fill="white" stroke="black" cx="1420.5" cy="-63" rx="27" ry="27"/>
</g>
<!-- 1990971755648&#45;&gt;1990978753872 -->
<g id="edge19" class="edge">
<title>1990971755648&#45;&gt;1990978753872</title>
<path fill="none" stroke="black" d="M1357.82,-63C1365.86,-63 1374.1,-63 1381.82,-63"/>
<polygon fill="black" stroke="black" points="1381.56,-66.5 1391.56,-63 1381.56,-59.5 1381.56,-66.5"/>
</g>
<!-- 1990971920688 -->
<g id="node8" class="node">
<title>1990971920688</title>
<polygon fill="white" stroke="black" points="1122.88,-152 1023.62,-152 1023.62,-116 1122.88,-116 1122.88,-152"/>
<text text-anchor="middle" x="1073.25" y="-128.97" font-family="Times New Roman,serif" font-size="12.00">Demand Forecast</text>
</g>
<!-- 1990976300112 -->
<g id="node32" class="node">
<title>1990976300112</title>
<ellipse fill="white" stroke="black" cx="1196.75" cy="-108" rx="27" ry="27"/>
</g>
<!-- 1990971920688&#45;&gt;1990976300112 -->
<g id="edge18" class="edge">
<title>1990971920688&#45;&gt;1990976300112</title>
<path fill="none" stroke="black" d="M1123.32,-123.5C1135.15,-120.97 1147.59,-118.31 1158.76,-115.92"/>
<polygon fill="black" stroke="black" points="1159.34,-119.37 1168.38,-113.86 1157.87,-112.53 1159.34,-119.37"/>
</g>
<!-- 1990980365168 -->
<g id="node9" class="node">
<title>1990980365168</title>
<polygon fill="white" stroke="black" points="1133.75,-95 1012.75,-95 1012.75,-59 1133.75,-59 1133.75,-95"/>
<text text-anchor="middle" x="1073.25" y="-71.97" font-family="Times New Roman,serif" font-size="12.00">Design Customization</text>
</g>
<!-- 1990980365168&#45;&gt;1990979659456 -->
<g id="edge17" class="edge">
<title>1990980365168&#45;&gt;1990979659456</title>
<path fill="none" stroke="black" d="M1012.5,-74.95C940.04,-72.47 820.1,-68.37 759.41,-66.29"/>
<polygon fill="black" stroke="black" points="759.72,-62.8 749.61,-65.95 759.48,-69.79 759.72,-62.8"/>
</g>
<!-- 1990981879040 -->
<g id="node10" class="node">
<title>1990981879040</title>
<polygon fill="white" stroke="black" points="1571.5,-81 1483.5,-81 1483.5,-45 1571.5,-45 1571.5,-81"/>
<text text-anchor="middle" x="1527.5" y="-57.98" font-family="Times New Roman,serif" font-size="12.00">Assembly Line</text>
</g>
<!-- 1990981884800 -->
<g id="node33" class="node">
<title>1990981884800</title>
<ellipse fill="white" stroke="black" cx="1634.5" cy="-63" rx="27" ry="27"/>
</g>
<!-- 1990981879040&#45;&gt;1990981884800 -->
<g id="edge22" class="edge">
<title>1990981879040&#45;&gt;1990981884800</title>
<path fill="none" stroke="black" d="M1571.81,-63C1579.77,-63 1588.01,-63 1595.78,-63"/>
<polygon fill="black" stroke="black" points="1595.6,-66.5 1605.6,-63 1595.6,-59.5 1595.6,-66.5"/>
</g>
<!-- 1990980120080 -->
<g id="node11" class="node">
<title>1990980120080</title>
<polygon fill="white" stroke="black" points="1782.5,-81 1697.5,-81 1697.5,-45 1782.5,-45 1782.5,-81"/>
<text text-anchor="middle" x="1740" y="-57.98" font-family="Times New Roman,serif" font-size="12.00">Quality Check</text>
</g>
<!-- 1990971929664 -->
<g id="node34" class="node">
<title>1990971929664</title>
<ellipse fill="white" stroke="black" cx="1845.5" cy="-63" rx="27" ry="27"/>
</g>
<!-- 1990980120080&#45;&gt;1990971929664 -->
<g id="edge24" class="edge">
<title>1990980120080&#45;&gt;1990971929664</title>
<path fill="none" stroke="black" d="M1782.8,-63C1790.7,-63 1798.92,-63 1806.68,-63"/>
<polygon fill="black" stroke="black" points="1806.51,-66.5 1816.51,-63 1806.51,-59.5 1806.51,-66.5"/>
</g>
<!-- 1990979579792 -->
<g id="node12" class="node">
<title>1990979579792</title>
<polygon fill="white" stroke="black" points="2010.75,-81 1908.5,-81 1908.5,-45 2010.75,-45 2010.75,-81"/>
<text text-anchor="middle" x="1959.62" y="-57.98" font-family="Times New Roman,serif" font-size="12.00">Packaging Design</text>
</g>
<!-- 1990979583776 -->
<g id="node35" class="node">
<title>1990979583776</title>
<ellipse fill="white" stroke="black" cx="2073.75" cy="-63" rx="27" ry="27"/>
</g>
<!-- 1990979579792&#45;&gt;1990979583776 -->
<g id="edge26" class="edge">
<title>1990979579792&#45;&gt;1990979583776</title>
<path fill="none" stroke="black" d="M2011.11,-63C2019.22,-63 2027.48,-63 2035.21,-63"/>
<polygon fill="black" stroke="black" points="2034.94,-66.5 2044.94,-63 2034.94,-59.5 2034.94,-66.5"/>
</g>
<!-- 1990979570432 -->
<g id="node13" class="node">
<title>1990979570432</title>
<polygon fill="white" stroke="black" points="2244.25,-81 2136.75,-81 2136.75,-45 2244.25,-45 2244.25,-81"/>
<text text-anchor="middle" x="2190.5" y="-57.98" font-family="Times New Roman,serif" font-size="12.00">Regulation Review</text>
</g>
<!-- 1990979577824 -->
<g id="node36" class="node">
<title>1990979577824</title>
<ellipse fill="white" stroke="black" cx="2307.25" cy="-63" rx="27" ry="27"/>
</g>
<!-- 1990979570432&#45;&gt;1990979577824 -->
<g id="edge28" class="edge">
<title>1990979570432&#45;&gt;1990979577824</title>
<path fill="none" stroke="black" d="M2244.51,-63C2252.7,-63 2261.01,-63 2268.76,-63"/>
<polygon fill="black" stroke="black" points="2268.51,-66.5 2278.51,-63 2268.51,-59.5 2268.51,-66.5"/>
</g>
<!-- 1990979583008 -->
<g id="node14" class="node">
<title>1990979583008</title>
<polygon fill="white" stroke="black" points="2473.25,-108 2370.25,-108 2370.25,-72 2473.25,-72 2473.25,-108"/>
<text text-anchor="middle" x="2421.75" y="-84.97" font-family="Times New Roman,serif" font-size="12.00">Compliance Audit</text>
</g>
<!-- 1990979580464 -->
<g id="node37" class="node">
<title>1990979580464</title>
<ellipse fill="white" stroke="black" cx="2536.25" cy="-63" rx="27" ry="27"/>
</g>
<!-- 1990979583008&#45;&gt;1990979580464 -->
<g id="edge32" class="edge">
<title>1990979583008&#45;&gt;1990979580464</title>
<path fill="none" stroke="black" d="M2473.73,-77.76C2482.09,-75.76 2490.61,-73.71 2498.53,-71.81"/>
<polygon fill="black" stroke="black" points="2499.26,-75.24 2508.16,-69.5 2497.62,-68.43 2499.26,-75.24"/>
</g>
<!-- 1990979579072 -->
<g id="node15" class="node">
<title>1990979579072</title>
<polygon fill="black" stroke="black" points="2448.75,-54 2394.75,-54 2394.75,-18 2448.75,-18 2448.75,-54"/>
</g>
<!-- 1990979579072&#45;&gt;1990979580464 -->
<g id="edge31" class="edge">
<title>1990979579072&#45;&gt;1990979580464</title>
<path fill="none" stroke="black" d="M2449.13,-42.33C2464.01,-45.9 2482.82,-50.42 2499.06,-54.31"/>
<polygon fill="black" stroke="black" points="2497.8,-57.61 2508.34,-56.54 2499.43,-50.8 2497.8,-57.61"/>
</g>
<!-- 1990979572688 -->
<g id="node16" class="node">
<title>1990979572688</title>
<polygon fill="black" stroke="black" points="2653.25,-81 2599.25,-81 2599.25,-45 2653.25,-45 2653.25,-81"/>
</g>
<!-- 1990979571680 -->
<g id="node38" class="node">
<title>1990979571680</title>
<ellipse fill="white" stroke="black" cx="2716.25" cy="-99" rx="27" ry="27"/>
</g>
<!-- 1990979572688&#45;&gt;1990979571680 -->
<g id="edge35" class="edge">
<title>1990979572688&#45;&gt;1990979571680</title>
<path fill="none" stroke="black" d="M2653.65,-73.8C2662,-77.22 2671.37,-81.05 2680.22,-84.67"/>
<polygon fill="black" stroke="black" points="2678.69,-87.83 2689.27,-88.37 2681.34,-81.35 2678.69,-87.83"/>
</g>
<!-- 1990979577200 -->
<g id="node39" class="node">
<title>1990979577200</title>
<ellipse fill="white" stroke="black" cx="2716.25" cy="-27" rx="27" ry="27"/>
</g>
<!-- 1990979572688&#45;&gt;1990979577200 -->
<g id="edge34" class="edge">
<title>1990979572688&#45;&gt;1990979577200</title>
<path fill="none" stroke="black" d="M2653.65,-52.2C2662,-48.78 2671.37,-44.95 2680.22,-41.33"/>
<polygon fill="black" stroke="black" points="2681.34,-44.65 2689.27,-37.63 2678.69,-38.17 2681.34,-44.65"/>
</g>
<!-- 1990979575904 -->
<g id="node17" class="node">
<title>1990979575904</title>
<polygon fill="white" stroke="black" points="2889,-45 2779.25,-45 2779.25,-9 2889,-9 2889,-45"/>
<text text-anchor="middle" x="2834.12" y="-21.98" font-family="Times New Roman,serif" font-size="12.00">Waste Management</text>
</g>
<!-- 1990982113312 -->
<g id="node41" class="node">
<title>1990982113312</title>
<ellipse fill="white" stroke="black" cx="2952" cy="-27" rx="27" ry="27"/>
</g>
<!-- 1990979575904&#45;&gt;1990982113312 -->
<g id="edge39" class="edge">
<title>1990979575904&#45;&gt;1990982113312</title>
<path fill="none" stroke="black" d="M2889.33,-27C2897.37,-27 2905.51,-27 2913.12,-27"/>
<polygon fill="black" stroke="black" points="2913.04,-30.5 2923.04,-27 2913.04,-23.5 2913.04,-30.5"/>
</g>
<!-- 1990979576432 -->
<g id="node18" class="node">
<title>1990979576432</title>
<polygon fill="white" stroke="black" points="2874.38,-117 2793.88,-117 2793.88,-81 2874.38,-81 2874.38,-117"/>
<text text-anchor="middle" x="2834.12" y="-93.97" font-family="Times New Roman,serif" font-size="12.00">Eco Logistics</text>
</g>
<!-- 1990982117296 -->
<g id="node40" class="node">
<title>1990982117296</title>
<ellipse fill="white" stroke="black" cx="2952" cy="-99" rx="27" ry="27"/>
</g>
<!-- 1990979576432&#45;&gt;1990982117296 -->
<g id="edge38" class="edge">
<title>1990979576432&#45;&gt;1990982117296</title>
<path fill="none" stroke="black" d="M2874.68,-99C2887.2,-99 2901,-99 2913.38,-99"/>
<polygon fill="black" stroke="black" points="2913.21,-102.5 2923.21,-99 2913.21,-95.5 2913.21,-102.5"/>
</g>
<!-- 1990978353968 -->
<g id="node19" class="node">
<title>1990978353968</title>
<polygon fill="white" stroke="black" points="3120.25,-81 3015,-81 3015,-45 3120.25,-45 3120.25,-81"/>
<text text-anchor="middle" x="3067.62" y="-57.98" font-family="Times New Roman,serif" font-size="12.00">Customer Training</text>
</g>
<!-- 1990978345904 -->
<g id="node42" class="node">
<title>1990978345904</title>
<ellipse fill="white" stroke="black" cx="3183.25" cy="-63" rx="27" ry="27"/>
</g>
<!-- 1990978353968&#45;&gt;1990978345904 -->
<g id="edge42" class="edge">
<title>1990978353968&#45;&gt;1990978345904</title>
<path fill="none" stroke="black" d="M3120.45,-63C3128.61,-63 3136.91,-63 3144.67,-63"/>
<polygon fill="black" stroke="black" points="3144.43,-66.5 3154.43,-63 3144.43,-59.5 3144.43,-66.5"/>
</g>
<!-- 1990978354736 -->
<g id="node20" class="node">
<title>1990978354736</title>
<polygon fill="white" stroke="black" points="3352.25,-54 3246.25,-54 3246.25,-18 3352.25,-18 3352.25,-54"/>
<text text-anchor="middle" x="3299.25" y="-30.98" font-family="Times New Roman,serif" font-size="12.00">Feedback Analysis</text>
</g>
<!-- 1990978346576 -->
<g id="node43" class="node">
<title>1990978346576</title>
<ellipse fill="white" stroke="black" cx="3415.25" cy="-35" rx="27" ry="27"/>
</g>
<!-- 1990978354736&#45;&gt;1990978346576 -->
<g id="edge44" class="edge">
<title>1990978354736&#45;&gt;1990978346576</title>
<path fill="none" stroke="black" d="M3352.58,-35.54C3360.74,-35.47 3369.03,-35.4 3376.78,-35.33"/>
<polygon fill="black" stroke="black" points="3376.54,-38.83 3386.51,-35.24 3376.48,-31.83 3376.54,-38.83"/>
</g>
<!-- 1990978352144 -->
<g id="node21" class="node">
<title>1990978352144</title>
<polygon fill="white" stroke="black" points="3599.25,-107 3478.25,-107 3478.25,-71 3599.25,-71 3599.25,-107"/>
<text text-anchor="middle" x="3538.75" y="-83.97" font-family="Times New Roman,serif" font-size="12.00">Design Customization</text>
</g>
<!-- 1990978352144&#45;&gt;1990978345904 -->
<g id="edge47" class="edge">
<title>1990978352144&#45;&gt;1990978345904</title>
<path fill="none" stroke="black" d="M3478.03,-84.61C3404.89,-79.23 3283.21,-70.28 3221.95,-65.77"/>
<polygon fill="black" stroke="black" points="3222.27,-62.29 3212.04,-65.04 3221.76,-69.27 3222.27,-62.29"/>
</g>
<!-- 1990978345616 -->
<g id="node22" class="node">
<title>1990978345616</title>
<polygon fill="black" stroke="black" points="3565.75,-53 3511.75,-53 3511.75,-17 3565.75,-17 3565.75,-53"/>
</g>
<!-- 1990980751328 -->
<g id="node44" class="node">
<title>1990980751328</title>
<ellipse fill="white" stroke="black" cx="3666.25" cy="-35" rx="27" ry="27"/>
<ellipse fill="none" stroke="black" cx="3666.25" cy="-35" rx="31" ry="31"/>
<text text-anchor="start" x="3649.75" y="-19.6" font-family="Times New Roman,serif" font-size="32.00">■</text>
</g>
<!-- 1990978345616&#45;&gt;1990980751328 -->
<g id="edge48" class="edge">
<title>1990978345616&#45;&gt;1990980751328</title>
<path fill="none" stroke="black" d="M3566.06,-35C3582.73,-35 3604.64,-35 3623.63,-35"/>
<polygon fill="black" stroke="black" points="3623.49,-38.5 3633.49,-35 3623.49,-31.5 3623.49,-38.5"/>
</g>
<!-- 1990977088800 -->
<g id="node23" class="node">
<title>1990977088800</title>
<ellipse fill="white" stroke="black" cx="27" cy="-101" rx="27" ry="27"/>
<text text-anchor="start" x="9.75" y="-83.7" font-family="Times New Roman,serif" font-size="34.00">●</text>
</g>
<!-- 1990977088800&#45;&gt;1990980444400 -->
<g id="edge1" class="edge">
<title>1990977088800&#45;&gt;1990980444400</title>
<path fill="none" stroke="black" d="M54.39,-101C61.65,-101 69.83,-101 78.17,-101"/>
<polygon fill="black" stroke="black" points="78.07,-104.5 88.07,-101 78.07,-97.5 78.07,-104.5"/>
</g>
<!-- 1990980449488&#45;&gt;1990980443872 -->
<g id="edge3" class="edge">
<title>1990980449488&#45;&gt;1990980443872</title>
<path fill="none" stroke="black" d="M281.17,-101C288.47,-101 296.69,-101 305.02,-101"/>
<polygon fill="black" stroke="black" points="304.88,-104.5 314.88,-101 304.88,-97.5 304.88,-104.5"/>
</g>
<!-- 1990977557168&#45;&gt;1990980249952 -->
<g id="edge6" class="edge">
<title>1990977557168&#45;&gt;1990980249952</title>
<path fill="none" stroke="black" d="M501.11,-137C512.56,-137 526.44,-137 540.02,-137"/>
<polygon fill="black" stroke="black" points="539.78,-140.5 549.78,-137 539.78,-133.5 539.78,-140.5"/>
</g>
<!-- 1990975990640&#45;&gt;1990975988288 -->
<g id="edge7" class="edge">
<title>1990975990640&#45;&gt;1990975988288</title>
<path fill="none" stroke="black" d="M501.11,-65C508.39,-65 516.65,-65 525.2,-65"/>
<polygon fill="black" stroke="black" points="525.01,-68.5 535.01,-65 525.01,-61.5 525.01,-68.5"/>
</g>
<!-- 1990979659456&#45;&gt;1990979658160 -->
<g id="edge11" class="edge">
<title>1990979659456&#45;&gt;1990979658160</title>
<path fill="none" stroke="black" d="M746.72,-56.79C754.9,-54.1 764.38,-50.98 774.02,-47.81"/>
<polygon fill="black" stroke="black" points="775.06,-51.15 783.46,-44.7 772.87,-44.5 775.06,-51.15"/>
</g>
<!-- 1990980239824&#45;&gt;1990980250240 -->
<g id="edge10" class="edge">
<title>1990980239824&#45;&gt;1990980250240</title>
<path fill="none" stroke="black" d="M748.13,-137C755.36,-137 763.52,-137 771.86,-137"/>
<polygon fill="black" stroke="black" points="771.77,-140.5 781.77,-137 771.77,-133.5 771.77,-140.5"/>
</g>
<!-- 1990980248464&#45;&gt;1990971920688 -->
<g id="edge15" class="edge">
<title>1990980248464&#45;&gt;1990971920688</title>
<path fill="none" stroke="black" d="M977.11,-136.35C987.48,-136.09 999.84,-135.79 1012.16,-135.48"/>
<polygon fill="black" stroke="black" points="1011.98,-138.99 1021.9,-135.24 1011.81,-131.99 1011.98,-138.99"/>
</g>
<!-- 1990979651008&#45;&gt;1990971755648 -->
<g id="edge16" class="edge">
<title>1990979651008&#45;&gt;1990971755648</title>
<path fill="none" stroke="black" d="M976.99,-29.65C1033.84,-35.38 1169.55,-49.07 1248.3,-57.02"/>
<polygon fill="black" stroke="black" points="1247.68,-60.47 1257.98,-57.99 1248.38,-53.51 1247.68,-60.47"/>
</g>
<!-- 1990979651008&#45;&gt;1990980365168 -->
<g id="edge14" class="edge">
<title>1990979651008&#45;&gt;1990980365168</title>
<path fill="none" stroke="black" d="M975.05,-37C987.08,-41.95 1002.15,-48.15 1016.8,-54.18"/>
<polygon fill="black" stroke="black" points="1015.37,-57.38 1025.95,-57.95 1018.03,-50.9 1015.37,-57.38"/>
</g>
<!-- 1990978753872&#45;&gt;1990981879040 -->
<g id="edge21" class="edge">
<title>1990978753872&#45;&gt;1990981879040</title>
<path fill="none" stroke="black" d="M1448,-63C1455.35,-63 1463.61,-63 1471.94,-63"/>
<polygon fill="black" stroke="black" points="1471.75,-66.5 1481.75,-63 1471.75,-59.5 1471.75,-66.5"/>
</g>
<!-- 1990976300112&#45;&gt;1990971755648 -->
<g id="edge20" class="edge">
<title>1990976300112&#45;&gt;1990971755648</title>
<path fill="none" stroke="black" d="M1222.13,-98.01C1231.05,-94.36 1241.54,-90.07 1252.06,-85.76"/>
<polygon fill="black" stroke="black" points="1253.2,-89.07 1261.13,-82.04 1250.55,-82.59 1253.2,-89.07"/>
</g>
<!-- 1990981884800&#45;&gt;1990980120080 -->
<g id="edge23" class="edge">
<title>1990981884800&#45;&gt;1990980120080</title>
<path fill="none" stroke="black" d="M1661.89,-63C1669.3,-63 1677.63,-63 1686.01,-63"/>
<polygon fill="black" stroke="black" points="1685.86,-66.5 1695.86,-63 1685.86,-59.5 1685.86,-66.5"/>
</g>
<!-- 1990971929664&#45;&gt;1990979579792 -->
<g id="edge25" class="edge">
<title>1990971929664&#45;&gt;1990979579792</title>
<path fill="none" stroke="black" d="M1872.79,-63C1880.17,-63 1888.52,-63 1897.04,-63"/>
<polygon fill="black" stroke="black" points="1896.77,-66.5 1906.77,-63 1896.77,-59.5 1896.77,-66.5"/>
</g>
<!-- 1990979583776&#45;&gt;1990979570432 -->
<g id="edge27" class="edge">
<title>1990979583776&#45;&gt;1990979570432</title>
<path fill="none" stroke="black" d="M2101.08,-63C2108.44,-63 2116.77,-63 2125.32,-63"/>
<polygon fill="black" stroke="black" points="2125.08,-66.5 2135.08,-63 2125.08,-59.5 2125.08,-66.5"/>
</g>
<!-- 1990979577824&#45;&gt;1990979583008 -->
<g id="edge30" class="edge">
<title>1990979577824&#45;&gt;1990979583008</title>
<path fill="none" stroke="black" d="M2333.78,-69.13C2341.43,-70.96 2350.17,-73.06 2359.1,-75.2"/>
<polygon fill="black" stroke="black" points="2358.01,-78.54 2368.55,-77.47 2359.64,-71.73 2358.01,-78.54"/>
</g>
<!-- 1990979577824&#45;&gt;1990979579072 -->
<g id="edge29" class="edge">
<title>1990979577824&#45;&gt;1990979579072</title>
<path fill="none" stroke="black" d="M2333.78,-56.87C2348.53,-53.33 2367.34,-48.82 2383.69,-44.89"/>
<polygon fill="black" stroke="black" points="2384.16,-48.38 2393.07,-42.64 2382.53,-41.57 2384.16,-48.38"/>
</g>
<!-- 1990979580464&#45;&gt;1990979572688 -->
<g id="edge33" class="edge">
<title>1990979580464&#45;&gt;1990979572688</title>
<path fill="none" stroke="black" d="M2563.65,-63C2571.14,-63 2579.43,-63 2587.45,-63"/>
<polygon fill="black" stroke="black" points="2587.35,-66.5 2597.35,-63 2587.35,-59.5 2587.35,-66.5"/>
</g>
<!-- 1990979571680&#45;&gt;1990979576432 -->
<g id="edge37" class="edge">
<title>1990979571680&#45;&gt;1990979576432</title>
<path fill="none" stroke="black" d="M2743.54,-99C2755.12,-99 2769.14,-99 2782.61,-99"/>
<polygon fill="black" stroke="black" points="2782.22,-102.5 2792.22,-99 2782.22,-95.5 2782.22,-102.5"/>
</g>
<!-- 1990979577200&#45;&gt;1990979575904 -->
<g id="edge36" class="edge">
<title>1990979577200&#45;&gt;1990979575904</title>
<path fill="none" stroke="black" d="M2743.54,-27C2750.88,-27 2759.19,-27 2767.72,-27"/>
<polygon fill="black" stroke="black" points="2767.49,-30.5 2777.49,-27 2767.49,-23.5 2767.49,-30.5"/>
</g>
<!-- 1990982117296&#45;&gt;1990978353968 -->
<g id="edge41" class="edge">
<title>1990982117296&#45;&gt;1990978353968</title>
<path fill="none" stroke="black" d="M2978.22,-91.01C2986.02,-88.54 2994.98,-85.7 3004.15,-82.79"/>
<polygon fill="black" stroke="black" points="3005.02,-86.19 3013.5,-79.83 3002.91,-79.52 3005.02,-86.19"/>
</g>
<!-- 1990982113312&#45;&gt;1990978353968 -->
<g id="edge40" class="edge">
<title>1990982113312&#45;&gt;1990978353968</title>
<path fill="none" stroke="black" d="M2978.22,-34.99C2986.02,-37.46 2994.98,-40.3 3004.15,-43.21"/>
<polygon fill="black" stroke="black" points="3002.91,-46.48 3013.5,-46.17 3005.02,-39.81 3002.91,-46.48"/>
</g>
<!-- 1990978345904&#45;&gt;1990978354736 -->
<g id="edge43" class="edge">
<title>1990978345904&#45;&gt;1990978354736</title>
<path fill="none" stroke="black" d="M3209.83,-56.94C3217.49,-55.13 3226.24,-53.05 3235.2,-50.93"/>
<polygon fill="black" stroke="black" points="3235.76,-54.4 3244.69,-48.69 3234.15,-47.59 3235.76,-54.4"/>
</g>
<!-- 1990978346576&#45;&gt;1990978352144 -->
<g id="edge46" class="edge">
<title>1990978346576&#45;&gt;1990978352144</title>
<path fill="none" stroke="black" d="M3440.25,-45.67C3453.42,-51.52 3470.26,-59.01 3486.24,-66.11"/>
<polygon fill="black" stroke="black" points="3484.62,-69.22 3495.18,-70.08 3487.46,-62.82 3484.62,-69.22"/>
</g>
<!-- 1990978346576&#45;&gt;1990978345616 -->
<g id="edge45" class="edge">
<title>1990978346576&#45;&gt;1990978345616</title>
<path fill="none" stroke="black" d="M3442.61,-35C3459.41,-35 3481.44,-35 3500.07,-35"/>
<polygon fill="black" stroke="black" points="3499.92,-38.5 3509.92,-35 3499.92,-31.5 3499.92,-38.5"/>
</g>
</g>
</svg>
