<?xml version="1.0" encoding="UTF-8" standalone="no"?>
<!DOCTYPE svg PUBLIC "-//W3C//DTD SVG 1.1//EN"
 "http://www.w3.org/Graphics/SVG/1.1/DTD/svg11.dtd">
<!-- Generated by graphviz version 11.0.0 (20240428.1522)
 -->
<!-- Title: imdf_net_1754053422.096513 Pages: 1 -->
<svg width="4272pt" height="170pt"
 viewBox="0.00 0.00 4272.00 170.00" xmlns="http://www.w3.org/2000/svg" xmlns:xlink="http://www.w3.org/1999/xlink">
<g id="graph0" class="graph" transform="scale(1 1) rotate(0) translate(4 166)">
<title>imdf_net_1754053422.096513</title>
<polygon fill="white" stroke="none" points="-4,4 -4,-166 4268,-166 4268,4 -4,4"/>
<!-- 2892504655072 -->
<g id="node1" class="node">
<title>2892504655072</title>
<polygon fill="white" stroke="black" points="174.25,-153 90,-153 90,-117 174.25,-117 174.25,-153"/>
<text text-anchor="middle" x="132.12" y="-129.97" font-family="Times New Roman,serif" font-size="12.00">Milk Sourcing</text>
</g>
<!-- 2892504657952 -->
<g id="node23" class="node">
<title>2892504657952</title>
<ellipse fill="white" stroke="black" cx="237.25" cy="-135" rx="27" ry="27"/>
</g>
<!-- 2892504655072&#45;&gt;2892504657952 -->
<g id="edge2" class="edge">
<title>2892504655072&#45;&gt;2892504657952</title>
<path fill="none" stroke="black" d="M174.48,-135C182.44,-135 190.74,-135 198.58,-135"/>
<polygon fill="black" stroke="black" points="198.5,-138.5 208.5,-135 198.5,-131.5 198.5,-138.5"/>
</g>
<!-- 2892504656896 -->
<g id="node2" class="node">
<title>2892504656896</title>
<polygon fill="white" stroke="black" points="389.75,-153 300.25,-153 300.25,-117 389.75,-117 389.75,-153"/>
<text text-anchor="middle" x="345" y="-129.97" font-family="Times New Roman,serif" font-size="12.00">Quality Testing</text>
</g>
<!-- 2892504658048 -->
<g id="node24" class="node">
<title>2892504658048</title>
<ellipse fill="white" stroke="black" cx="452.75" cy="-135" rx="27" ry="27"/>
</g>
<!-- 2892504656896&#45;&gt;2892504658048 -->
<g id="edge4" class="edge">
<title>2892504656896&#45;&gt;2892504658048</title>
<path fill="none" stroke="black" d="M390.23,-135C398.2,-135 406.44,-135 414.2,-135"/>
<polygon fill="black" stroke="black" points="413.99,-138.5 423.99,-135 413.99,-131.5 413.99,-138.5"/>
</g>
<!-- 2892504651568 -->
<g id="node3" class="node">
<title>2892504651568</title>
<polygon fill="white" stroke="black" points="605.25,-153 515.75,-153 515.75,-117 605.25,-117 605.25,-153"/>
<text text-anchor="middle" x="560.5" y="-129.97" font-family="Times New Roman,serif" font-size="12.00">Milk Pasteurize</text>
</g>
<!-- 2892508171008 -->
<g id="node25" class="node">
<title>2892508171008</title>
<ellipse fill="white" stroke="black" cx="668.25" cy="-135" rx="27" ry="27"/>
</g>
<!-- 2892504651568&#45;&gt;2892508171008 -->
<g id="edge6" class="edge">
<title>2892504651568&#45;&gt;2892508171008</title>
<path fill="none" stroke="black" d="M605.73,-135C613.7,-135 621.94,-135 629.7,-135"/>
<polygon fill="black" stroke="black" points="629.49,-138.5 639.49,-135 629.49,-131.5 629.49,-138.5"/>
</g>
<!-- 2892508172304 -->
<g id="node4" class="node">
<title>2892508172304</title>
<polygon fill="white" stroke="black" points="816.25,-153 731.25,-153 731.25,-117 816.25,-117 816.25,-153"/>
<text text-anchor="middle" x="773.75" y="-129.97" font-family="Times New Roman,serif" font-size="12.00">Starter Culture</text>
</g>
<!-- 2892509573248 -->
<g id="node26" class="node">
<title>2892509573248</title>
<ellipse fill="white" stroke="black" cx="879.25" cy="-135" rx="27" ry="27"/>
</g>
<!-- 2892508172304&#45;&gt;2892509573248 -->
<g id="edge8" class="edge">
<title>2892508172304&#45;&gt;2892509573248</title>
<path fill="none" stroke="black" d="M816.55,-135C824.45,-135 832.67,-135 840.43,-135"/>
<polygon fill="black" stroke="black" points="840.26,-138.5 850.26,-135 840.26,-131.5 840.26,-138.5"/>
</g>
<!-- 2892509572624 -->
<g id="node5" class="node">
<title>2892509572624</title>
<polygon fill="white" stroke="black" points="1016,-153 942.25,-153 942.25,-117 1016,-117 1016,-153"/>
<text text-anchor="middle" x="979.12" y="-129.97" font-family="Times New Roman,serif" font-size="12.00">Coagulation</text>
</g>
<!-- 2892509573584 -->
<g id="node27" class="node">
<title>2892509573584</title>
<ellipse fill="white" stroke="black" cx="1079" cy="-135" rx="27" ry="27"/>
</g>
<!-- 2892509572624&#45;&gt;2892509573584 -->
<g id="edge10" class="edge">
<title>2892509572624&#45;&gt;2892509573584</title>
<path fill="none" stroke="black" d="M1016.29,-135C1024.19,-135 1032.58,-135 1040.53,-135"/>
<polygon fill="black" stroke="black" points="1040.25,-138.5 1050.25,-135 1040.25,-131.5 1040.25,-138.5"/>
</g>
<!-- 2892509574160 -->
<g id="node6" class="node">
<title>2892509574160</title>
<polygon fill="white" stroke="black" points="1220.25,-153 1142,-153 1142,-117 1220.25,-117 1220.25,-153"/>
<text text-anchor="middle" x="1181.12" y="-129.97" font-family="Times New Roman,serif" font-size="12.00">Curd Cutting</text>
</g>
<!-- 2892509574400 -->
<g id="node28" class="node">
<title>2892509574400</title>
<ellipse fill="white" stroke="black" cx="1283.25" cy="-135" rx="27" ry="27"/>
</g>
<!-- 2892509574160&#45;&gt;2892509574400 -->
<g id="edge12" class="edge">
<title>2892509574160&#45;&gt;2892509574400</title>
<path fill="none" stroke="black" d="M1220.55,-135C1228.39,-135 1236.63,-135 1244.44,-135"/>
<polygon fill="black" stroke="black" points="1244.36,-138.5 1254.36,-135 1244.36,-131.5 1244.36,-138.5"/>
</g>
<!-- 2892509574976 -->
<g id="node7" class="node">
<title>2892509574976</title>
<polygon fill="white" stroke="black" points="1435.75,-153 1346.25,-153 1346.25,-117 1435.75,-117 1435.75,-153"/>
<text text-anchor="middle" x="1391" y="-129.97" font-family="Times New Roman,serif" font-size="12.00">Whey Draining</text>
</g>
<!-- 2892509575216 -->
<g id="node29" class="node">
<title>2892509575216</title>
<ellipse fill="white" stroke="black" cx="1498.75" cy="-135" rx="27" ry="27"/>
</g>
<!-- 2892509574976&#45;&gt;2892509575216 -->
<g id="edge14" class="edge">
<title>2892509574976&#45;&gt;2892509575216</title>
<path fill="none" stroke="black" d="M1436.23,-135C1444.2,-135 1452.44,-135 1460.2,-135"/>
<polygon fill="black" stroke="black" points="1459.99,-138.5 1469.99,-135 1459.99,-131.5 1459.99,-138.5"/>
</g>
<!-- 2892509575792 -->
<g id="node8" class="node">
<title>2892509575792</title>
<polygon fill="white" stroke="black" points="1646,-153 1561.75,-153 1561.75,-117 1646,-117 1646,-153"/>
<text text-anchor="middle" x="1603.88" y="-129.97" font-family="Times New Roman,serif" font-size="12.00">Molding Press</text>
</g>
<!-- 2892509576032 -->
<g id="node30" class="node">
<title>2892509576032</title>
<ellipse fill="white" stroke="black" cx="1709" cy="-135" rx="27" ry="27"/>
</g>
<!-- 2892509575792&#45;&gt;2892509576032 -->
<g id="edge16" class="edge">
<title>2892509575792&#45;&gt;2892509576032</title>
<path fill="none" stroke="black" d="M1646.23,-135C1654.19,-135 1662.49,-135 1670.33,-135"/>
<polygon fill="black" stroke="black" points="1670.25,-138.5 1680.25,-135 1670.25,-131.5 1670.25,-138.5"/>
</g>
<!-- 2892509576608 -->
<g id="node9" class="node">
<title>2892509576608</title>
<polygon fill="white" stroke="black" points="1842.75,-153 1772,-153 1772,-117 1842.75,-117 1842.75,-153"/>
<text text-anchor="middle" x="1807.38" y="-129.97" font-family="Times New Roman,serif" font-size="12.00">Salting Dry</text>
</g>
<!-- 2892509576848 -->
<g id="node31" class="node">
<title>2892509576848</title>
<ellipse fill="white" stroke="black" cx="1905.75" cy="-135" rx="27" ry="27"/>
</g>
<!-- 2892509576608&#45;&gt;2892509576848 -->
<g id="edge18" class="edge">
<title>2892509576608&#45;&gt;2892509576848</title>
<path fill="none" stroke="black" d="M1843.17,-135C1850.9,-135 1859.14,-135 1866.98,-135"/>
<polygon fill="black" stroke="black" points="1866.97,-138.5 1876.97,-135 1866.97,-131.5 1866.97,-138.5"/>
</g>
<!-- 2892509626640 -->
<g id="node10" class="node">
<title>2892509626640</title>
<polygon fill="white" stroke="black" points="2047,-153 1968.75,-153 1968.75,-117 2047,-117 2047,-153"/>
<text text-anchor="middle" x="2007.88" y="-129.97" font-family="Times New Roman,serif" font-size="12.00">Fermentation</text>
</g>
<!-- 2892509626880 -->
<g id="node32" class="node">
<title>2892509626880</title>
<ellipse fill="white" stroke="black" cx="2110" cy="-135" rx="27" ry="27"/>
</g>
<!-- 2892509626640&#45;&gt;2892509626880 -->
<g id="edge20" class="edge">
<title>2892509626640&#45;&gt;2892509626880</title>
<path fill="none" stroke="black" d="M2047.3,-135C2055.14,-135 2063.38,-135 2071.19,-135"/>
<polygon fill="black" stroke="black" points="2071.11,-138.5 2081.11,-135 2071.11,-131.5 2071.11,-138.5"/>
</g>
<!-- 2892509628656 -->
<g id="node11" class="node">
<title>2892509628656</title>
<polygon fill="white" stroke="black" points="2258,-153 2173,-153 2173,-117 2258,-117 2258,-153"/>
<text text-anchor="middle" x="2215.5" y="-129.97" font-family="Times New Roman,serif" font-size="12.00">Aging Control</text>
</g>
<!-- 2892509628896 -->
<g id="node33" class="node">
<title>2892509628896</title>
<ellipse fill="white" stroke="black" cx="2321" cy="-135" rx="27" ry="27"/>
</g>
<!-- 2892509628656&#45;&gt;2892509628896 -->
<g id="edge22" class="edge">
<title>2892509628656&#45;&gt;2892509628896</title>
<path fill="none" stroke="black" d="M2258.3,-135C2266.2,-135 2274.42,-135 2282.18,-135"/>
<polygon fill="black" stroke="black" points="2282.01,-138.5 2292.01,-135 2282.01,-131.5 2282.01,-138.5"/>
</g>
<!-- 2892509629472 -->
<g id="node12" class="node">
<title>2892509629472</title>
<polygon fill="white" stroke="black" points="2469,-153 2384,-153 2384,-117 2469,-117 2469,-153"/>
<text text-anchor="middle" x="2426.5" y="-129.97" font-family="Times New Roman,serif" font-size="12.00">Quality Check</text>
</g>
<!-- 2892509630528 -->
<g id="node34" class="node">
<title>2892509630528</title>
<ellipse fill="white" stroke="black" cx="2532" cy="-135" rx="27" ry="27"/>
</g>
<!-- 2892509629472&#45;&gt;2892509630528 -->
<g id="edge24" class="edge">
<title>2892509629472&#45;&gt;2892509630528</title>
<path fill="none" stroke="black" d="M2469.3,-135C2477.2,-135 2485.42,-135 2493.18,-135"/>
<polygon fill="black" stroke="black" points="2493.01,-138.5 2503.01,-135 2493.01,-131.5 2493.01,-138.5"/>
</g>
<!-- 2892509632544 -->
<g id="node13" class="node">
<title>2892509632544</title>
<polygon fill="white" stroke="black" points="2697.25,-130 2595,-130 2595,-94 2697.25,-94 2697.25,-130"/>
<text text-anchor="middle" x="2646.12" y="-106.97" font-family="Times New Roman,serif" font-size="12.00">Packaging Design</text>
</g>
<!-- 2892509632784 -->
<g id="node35" class="node">
<title>2892509632784</title>
<ellipse fill="white" stroke="black" cx="2760.25" cy="-107" rx="27" ry="27"/>
</g>
<!-- 2892509632544&#45;&gt;2892509632784 -->
<g id="edge26" class="edge">
<title>2892509632544&#45;&gt;2892509632784</title>
<path fill="none" stroke="black" d="M2697.61,-109.75C2705.72,-109.39 2713.98,-109.02 2721.71,-108.67"/>
<polygon fill="black" stroke="black" points="2721.61,-112.18 2731.44,-108.24 2721.3,-105.19 2721.61,-112.18"/>
</g>
<!-- 2892509633360 -->
<g id="node14" class="node">
<title>2892509633360</title>
<polygon fill="white" stroke="black" points="2926.25,-125 2823.25,-125 2823.25,-89 2926.25,-89 2926.25,-125"/>
<text text-anchor="middle" x="2874.75" y="-101.97" font-family="Times New Roman,serif" font-size="12.00">Custom Wrapping</text>
</g>
<!-- 2892509633600 -->
<g id="node36" class="node">
<title>2892509633600</title>
<ellipse fill="white" stroke="black" cx="2989.25" cy="-107" rx="27" ry="27"/>
</g>
<!-- 2892509633360&#45;&gt;2892509633600 -->
<g id="edge28" class="edge">
<title>2892509633360&#45;&gt;2892509633600</title>
<path fill="none" stroke="black" d="M2926.73,-107C2934.75,-107 2942.9,-107 2950.54,-107"/>
<polygon fill="black" stroke="black" points="2950.52,-110.5 2960.52,-107 2950.52,-103.5 2950.52,-110.5"/>
</g>
<!-- 2892509634176 -->
<g id="node15" class="node">
<title>2892509634176</title>
<polygon fill="white" stroke="black" points="3141,-125 3052.25,-125 3052.25,-89 3141,-89 3141,-125"/>
<text text-anchor="middle" x="3096.62" y="-101.97" font-family="Times New Roman,serif" font-size="12.00">Inventory Sync</text>
</g>
<!-- 2892509634416 -->
<g id="node37" class="node">
<title>2892509634416</title>
<ellipse fill="white" stroke="black" cx="3204" cy="-107" rx="27" ry="27"/>
</g>
<!-- 2892509634176&#45;&gt;2892509634416 -->
<g id="edge30" class="edge">
<title>2892509634176&#45;&gt;2892509634416</title>
<path fill="none" stroke="black" d="M3141.4,-107C3149.36,-107 3157.6,-107 3165.36,-107"/>
<polygon fill="black" stroke="black" points="3165.17,-110.5 3175.17,-107 3165.17,-103.5 3165.17,-110.5"/>
</g>
<!-- 2892509634992 -->
<g id="node16" class="node">
<title>2892509634992</title>
<polygon fill="white" stroke="black" points="3364.75,-124 3267,-124 3267,-88 3364.75,-88 3364.75,-124"/>
<text text-anchor="middle" x="3315.88" y="-100.97" font-family="Times New Roman,serif" font-size="12.00">Order Processing</text>
</g>
<!-- 2892509635568 -->
<g id="node38" class="node">
<title>2892509635568</title>
<ellipse fill="white" stroke="black" cx="3427.75" cy="-106" rx="27" ry="27"/>
</g>
<!-- 2892509634992&#45;&gt;2892509635568 -->
<g id="edge32" class="edge">
<title>2892509634992&#45;&gt;2892509635568</title>
<path fill="none" stroke="black" d="M3365.07,-106C3373.11,-106 3381.35,-106 3389.07,-106"/>
<polygon fill="black" stroke="black" points="3388.81,-109.5 3398.81,-106 3388.81,-102.5 3388.81,-109.5"/>
</g>
<!-- 2892509636144 -->
<g id="node17" class="node">
<title>2892509636144</title>
<polygon fill="white" stroke="black" points="3587,-123 3490.75,-123 3490.75,-87 3587,-87 3587,-123"/>
<text text-anchor="middle" x="3538.88" y="-99.97" font-family="Times New Roman,serif" font-size="12.00">Special Shipping</text>
</g>
<!-- 2892478469552 -->
<g id="node39" class="node">
<title>2892478469552</title>
<ellipse fill="white" stroke="black" cx="3650" cy="-103" rx="27" ry="27"/>
</g>
<!-- 2892509636144&#45;&gt;2892478469552 -->
<g id="edge34" class="edge">
<title>2892509636144&#45;&gt;2892478469552</title>
<path fill="none" stroke="black" d="M3587.42,-104.13C3595.34,-103.98 3603.45,-103.83 3611.09,-103.69"/>
<polygon fill="black" stroke="black" points="3611.14,-107.19 3621.08,-103.51 3611.01,-100.2 3611.14,-107.19"/>
</g>
<!-- 2892509637632 -->
<g id="node18" class="node">
<title>2892509637632</title>
<polygon fill="black" stroke="black" points="3795.25,-121 3741.25,-121 3741.25,-85 3795.25,-85 3795.25,-121"/>
</g>
<!-- 2892508156928 -->
<g id="node41" class="node">
<title>2892508156928</title>
<ellipse fill="white" stroke="black" cx="3890.5" cy="-103" rx="27" ry="27"/>
<ellipse fill="none" stroke="black" cx="3890.5" cy="-103" rx="31" ry="31"/>
<text text-anchor="start" x="3874" y="-87.6" font-family="Times New Roman,serif" font-size="32.00">■</text>
</g>
<!-- 2892509637632&#45;&gt;2892508156928 -->
<g id="edge38" class="edge">
<title>2892509637632&#45;&gt;2892508156928</title>
<path fill="none" stroke="black" d="M3795.64,-103C3811.07,-103 3830.87,-103 3848.31,-103"/>
<polygon fill="black" stroke="black" points="3847.85,-106.5 3857.85,-103 3847.85,-99.5 3847.85,-106.5"/>
</g>
<!-- 2892509639024 -->
<g id="node19" class="node">
<title>2892509639024</title>
<polygon fill="white" stroke="black" points="3823.5,-56 3713,-56 3713,-20 3823.5,-20 3823.5,-56"/>
<text text-anchor="middle" x="3768.25" y="-32.98" font-family="Times New Roman,serif" font-size="12.00">Customer Feedback</text>
</g>
<!-- 2892509639264 -->
<g id="node40" class="node">
<title>2892509639264</title>
<ellipse fill="white" stroke="black" cx="3890.5" cy="-27" rx="27" ry="27"/>
</g>
<!-- 2892509639024&#45;&gt;2892509639264 -->
<g id="edge37" class="edge">
<title>2892509639024&#45;&gt;2892509639264</title>
<path fill="none" stroke="black" d="M3823.75,-33.01C3833.34,-32.14 3843.12,-31.24 3852.11,-30.42"/>
<polygon fill="black" stroke="black" points="3852.24,-33.92 3861.88,-29.53 3851.6,-26.95 3852.24,-33.92"/>
</g>
<!-- 2892509639840 -->
<g id="node20" class="node">
<title>2892509639840</title>
<polygon fill="white" stroke="black" points="4045.5,-65 3957.5,-65 3957.5,-29 4045.5,-29 4045.5,-65"/>
<text text-anchor="middle" x="4001.5" y="-41.98" font-family="Times New Roman,serif" font-size="12.00">Batch Analysis</text>
</g>
<!-- 2892509640416 -->
<g id="node42" class="node">
<title>2892509640416</title>
<ellipse fill="white" stroke="black" cx="4108.5" cy="-87" rx="27" ry="27"/>
</g>
<!-- 2892509639840&#45;&gt;2892509640416 -->
<g id="edge40" class="edge">
<title>2892509639840&#45;&gt;2892509640416</title>
<path fill="none" stroke="black" d="M4045.81,-63.5C4054.61,-66.85 4063.77,-70.34 4072.24,-73.57"/>
<polygon fill="black" stroke="black" points="4070.91,-76.81 4081.5,-77.1 4073.4,-70.26 4070.91,-76.81"/>
</g>
<!-- 2892509640992 -->
<g id="node21" class="node">
<title>2892509640992</title>
<polygon fill="white" stroke="black" points="4264,-132 4171.5,-132 4171.5,-96 4264,-96 4264,-132"/>
<text text-anchor="middle" x="4217.75" y="-108.97" font-family="Times New Roman,serif" font-size="12.00">Limited Release</text>
</g>
<!-- 2892509640992&#45;&gt;2892509630528 -->
<g id="edge42" class="edge">
<title>2892509640992&#45;&gt;2892509630528</title>
<path fill="none" stroke="black" d="M4171.02,-130.38C4128.09,-144.29 4061.77,-162 4002.5,-162 2759.25,-162 2759.25,-162 2759.25,-162 2692.25,-162 2614.88,-150.18 2570.18,-142.18"/>
<polygon fill="black" stroke="black" points="2570.96,-138.77 2560.5,-140.41 2569.71,-145.66 2570.96,-138.77"/>
</g>
<!-- 2892508156976 -->
<g id="node22" class="node">
<title>2892508156976</title>
<ellipse fill="white" stroke="black" cx="27" cy="-135" rx="27" ry="27"/>
<text text-anchor="start" x="9.75" y="-117.7" font-family="Times New Roman,serif" font-size="34.00">●</text>
</g>
<!-- 2892508156976&#45;&gt;2892504655072 -->
<g id="edge1" class="edge">
<title>2892508156976&#45;&gt;2892504655072</title>
<path fill="none" stroke="black" d="M54.29,-135C61.67,-135 69.98,-135 78.32,-135"/>
<polygon fill="black" stroke="black" points="78.14,-138.5 88.14,-135 78.14,-131.5 78.14,-138.5"/>
</g>
<!-- 2892504657952&#45;&gt;2892504656896 -->
<g id="edge3" class="edge">
<title>2892504657952&#45;&gt;2892504656896</title>
<path fill="none" stroke="black" d="M264.66,-135C271.98,-135 280.21,-135 288.53,-135"/>
<polygon fill="black" stroke="black" points="288.33,-138.5 298.33,-135 288.33,-131.5 288.33,-138.5"/>
</g>
<!-- 2892504658048&#45;&gt;2892504651568 -->
<g id="edge5" class="edge">
<title>2892504658048&#45;&gt;2892504651568</title>
<path fill="none" stroke="black" d="M480.16,-135C487.48,-135 495.71,-135 504.03,-135"/>
<polygon fill="black" stroke="black" points="503.83,-138.5 513.83,-135 503.83,-131.5 503.83,-138.5"/>
</g>
<!-- 2892508171008&#45;&gt;2892508172304 -->
<g id="edge7" class="edge">
<title>2892508171008&#45;&gt;2892508172304</title>
<path fill="none" stroke="black" d="M695.64,-135C703.05,-135 711.38,-135 719.76,-135"/>
<polygon fill="black" stroke="black" points="719.61,-138.5 729.61,-135 719.61,-131.5 719.61,-138.5"/>
</g>
<!-- 2892509573248&#45;&gt;2892509572624 -->
<g id="edge9" class="edge">
<title>2892509573248&#45;&gt;2892509572624</title>
<path fill="none" stroke="black" d="M906.74,-135C914.12,-135 922.38,-135 930.59,-135"/>
<polygon fill="black" stroke="black" points="930.55,-138.5 940.55,-135 930.55,-131.5 930.55,-138.5"/>
</g>
<!-- 2892509573584&#45;&gt;2892509574160 -->
<g id="edge11" class="edge">
<title>2892509573584&#45;&gt;2892509574160</title>
<path fill="none" stroke="black" d="M1106.31,-135C1113.63,-135 1121.84,-135 1130.05,-135"/>
<polygon fill="black" stroke="black" points="1130.05,-138.5 1140.05,-135 1130.05,-131.5 1130.05,-138.5"/>
</g>
<!-- 2892509574400&#45;&gt;2892509574976 -->
<g id="edge13" class="edge">
<title>2892509574400&#45;&gt;2892509574976</title>
<path fill="none" stroke="black" d="M1310.66,-135C1317.98,-135 1326.21,-135 1334.53,-135"/>
<polygon fill="black" stroke="black" points="1334.33,-138.5 1344.33,-135 1334.33,-131.5 1334.33,-138.5"/>
</g>
<!-- 2892509575216&#45;&gt;2892509575792 -->
<g id="edge15" class="edge">
<title>2892509575216&#45;&gt;2892509575792</title>
<path fill="none" stroke="black" d="M1526.04,-135C1533.42,-135 1541.73,-135 1550.07,-135"/>
<polygon fill="black" stroke="black" points="1549.89,-138.5 1559.89,-135 1549.89,-131.5 1549.89,-138.5"/>
</g>
<!-- 2892509576032&#45;&gt;2892509576608 -->
<g id="edge17" class="edge">
<title>2892509576032&#45;&gt;2892509576608</title>
<path fill="none" stroke="black" d="M1736.33,-135C1743.76,-135 1752.06,-135 1760.28,-135"/>
<polygon fill="black" stroke="black" points="1760.24,-138.5 1770.24,-135 1760.24,-131.5 1760.24,-138.5"/>
</g>
<!-- 2892509576848&#45;&gt;2892509626640 -->
<g id="edge19" class="edge">
<title>2892509576848&#45;&gt;2892509626640</title>
<path fill="none" stroke="black" d="M1933.06,-135C1940.38,-135 1948.59,-135 1956.8,-135"/>
<polygon fill="black" stroke="black" points="1956.8,-138.5 1966.8,-135 1956.8,-131.5 1956.8,-138.5"/>
</g>
<!-- 2892509626880&#45;&gt;2892509628656 -->
<g id="edge21" class="edge">
<title>2892509626880&#45;&gt;2892509628656</title>
<path fill="none" stroke="black" d="M2137.39,-135C2144.8,-135 2153.13,-135 2161.51,-135"/>
<polygon fill="black" stroke="black" points="2161.36,-138.5 2171.36,-135 2161.36,-131.5 2161.36,-138.5"/>
</g>
<!-- 2892509628896&#45;&gt;2892509629472 -->
<g id="edge23" class="edge">
<title>2892509628896&#45;&gt;2892509629472</title>
<path fill="none" stroke="black" d="M2348.39,-135C2355.8,-135 2364.13,-135 2372.51,-135"/>
<polygon fill="black" stroke="black" points="2372.36,-138.5 2382.36,-135 2372.36,-131.5 2372.36,-138.5"/>
</g>
<!-- 2892509630528&#45;&gt;2892509632544 -->
<g id="edge25" class="edge">
<title>2892509630528&#45;&gt;2892509632544</title>
<path fill="none" stroke="black" d="M2558.72,-129.72C2566.27,-128.18 2574.87,-126.41 2583.64,-124.61"/>
<polygon fill="black" stroke="black" points="2584.21,-128.07 2593.3,-122.63 2582.8,-121.21 2584.21,-128.07"/>
</g>
<!-- 2892509632784&#45;&gt;2892509633360 -->
<g id="edge27" class="edge">
<title>2892509632784&#45;&gt;2892509633360</title>
<path fill="none" stroke="black" d="M2787.63,-107C2794.86,-107 2803.02,-107 2811.36,-107"/>
<polygon fill="black" stroke="black" points="2811.27,-110.5 2821.27,-107 2811.27,-103.5 2811.27,-110.5"/>
</g>
<!-- 2892509633600&#45;&gt;2892509634176 -->
<g id="edge29" class="edge">
<title>2892509633600&#45;&gt;2892509634176</title>
<path fill="none" stroke="black" d="M3016.57,-107C3023.94,-107 3032.25,-107 3040.63,-107"/>
<polygon fill="black" stroke="black" points="3040.52,-110.5 3050.52,-107 3040.52,-103.5 3040.52,-110.5"/>
</g>
<!-- 2892509634416&#45;&gt;2892509634992 -->
<g id="edge31" class="edge">
<title>2892509634416&#45;&gt;2892509634992</title>
<path fill="none" stroke="black" d="M3231.32,-106.76C3238.65,-106.69 3246.93,-106.62 3255.35,-106.54"/>
<polygon fill="black" stroke="black" points="3255.37,-110.04 3265.33,-106.45 3255.3,-103.04 3255.37,-110.04"/>
</g>
<!-- 2892509635568&#45;&gt;2892509636144 -->
<g id="edge33" class="edge">
<title>2892509635568&#45;&gt;2892509636144</title>
<path fill="none" stroke="black" d="M3455.17,-105.76C3462.45,-105.69 3470.66,-105.62 3479,-105.54"/>
<polygon fill="black" stroke="black" points="3478.91,-109.04 3488.87,-105.45 3478.84,-102.04 3478.91,-109.04"/>
</g>
<!-- 2892478469552&#45;&gt;2892509637632 -->
<g id="edge36" class="edge">
<title>2892478469552&#45;&gt;2892509637632</title>
<path fill="none" stroke="black" d="M3677.38,-103C3692.84,-103 3712.62,-103 3729.68,-103"/>
<polygon fill="black" stroke="black" points="3729.46,-106.5 3739.46,-103 3729.46,-99.5 3729.46,-106.5"/>
</g>
<!-- 2892478469552&#45;&gt;2892509639024 -->
<g id="edge35" class="edge">
<title>2892478469552&#45;&gt;2892509639024</title>
<path fill="none" stroke="black" d="M3673.97,-90.16C3688.35,-82.12 3707.33,-71.5 3724.41,-61.95"/>
<polygon fill="black" stroke="black" points="3725.86,-65.15 3732.88,-57.22 3722.45,-59.04 3725.86,-65.15"/>
</g>
<!-- 2892509639264&#45;&gt;2892509639840 -->
<g id="edge39" class="edge">
<title>2892509639264&#45;&gt;2892509639840</title>
<path fill="none" stroke="black" d="M3917.33,-31.74C3926.02,-33.33 3936.07,-35.18 3946.12,-37.02"/>
<polygon fill="black" stroke="black" points="3945.43,-40.45 3955.89,-38.82 3946.69,-33.57 3945.43,-40.45"/>
</g>
<!-- 2892509640416&#45;&gt;2892509640992 -->
<g id="edge41" class="edge">
<title>2892509640416&#45;&gt;2892509640992</title>
<path fill="none" stroke="black" d="M4135.19,-93.47C4142.77,-95.38 4151.39,-97.54 4160.11,-99.74"/>
<polygon fill="black" stroke="black" points="4159.12,-103.1 4169.68,-102.15 4160.83,-96.31 4159.12,-103.1"/>
</g>
</g>
</svg>
