<?xml version="1.0" encoding="UTF-8" standalone="no"?>
<!DOCTYPE svg PUBLIC "-//W3C//DTD SVG 1.1//EN"
 "http://www.w3.org/Graphics/SVG/1.1/DTD/svg11.dtd">
<!-- Generated by graphviz version 11.0.0 (20240428.1522)
 -->
<!-- Title: imdf_net_1754052147.706501 Pages: 1 -->
<svg width="3541pt" height="143pt"
 viewBox="0.00 0.00 3541.00 143.00" xmlns="http://www.w3.org/2000/svg" xmlns:xlink="http://www.w3.org/1999/xlink">
<g id="graph0" class="graph" transform="scale(1 1) rotate(0) translate(4 139)">
<title>imdf_net_1754052147.706501</title>
<polygon fill="white" stroke="none" points="-4,4 -4,-139 3537,-139 3537,4 -4,4"/>
<!-- 1990980441472 -->
<g id="node1" class="node">
<title>1990980441472</title>
<polygon fill="white" stroke="black" points="161.5,-109 90,-109 90,-73 161.5,-73 161.5,-109"/>
<text text-anchor="middle" x="125.75" y="-85.97" font-family="Times New Roman,serif" font-size="12.00">Client Meet</text>
</g>
<!-- 1990980440416 -->
<g id="node21" class="node">
<title>1990980440416</title>
<ellipse fill="white" stroke="black" cx="224.5" cy="-91" rx="27" ry="27"/>
</g>
<!-- 1990980441472&#45;&gt;1990980440416 -->
<g id="edge2" class="edge">
<title>1990980441472&#45;&gt;1990980440416</title>
<path fill="none" stroke="black" d="M161.95,-91C169.7,-91 177.94,-91 185.79,-91"/>
<polygon fill="black" stroke="black" points="185.76,-94.5 195.76,-91 185.76,-87.5 185.76,-94.5"/>
</g>
<!-- 1990980753968 -->
<g id="node2" class="node">
<title>1990980753968</title>
<polygon fill="white" stroke="black" points="390.5,-109 287.5,-109 287.5,-73 390.5,-73 390.5,-109"/>
<text text-anchor="middle" x="339" y="-85.97" font-family="Times New Roman,serif" font-size="12.00">Preference Survey</text>
</g>
<!-- 1990977722304 -->
<g id="node22" class="node">
<title>1990977722304</title>
<ellipse fill="white" stroke="black" cx="453.5" cy="-91" rx="27" ry="27"/>
</g>
<!-- 1990980753968&#45;&gt;1990977722304 -->
<g id="edge4" class="edge">
<title>1990980753968&#45;&gt;1990977722304</title>
<path fill="none" stroke="black" d="M390.98,-91C399,-91 407.15,-91 414.79,-91"/>
<polygon fill="black" stroke="black" points="414.77,-94.5 424.77,-91 414.77,-87.5 414.77,-94.5"/>
</g>
<!-- 1990978988192 -->
<g id="node3" class="node">
<title>1990978988192</title>
<polygon fill="white" stroke="black" points="607.5,-82 516.5,-82 516.5,-46 607.5,-46 607.5,-82"/>
<text text-anchor="middle" x="562" y="-58.98" font-family="Times New Roman,serif" font-size="12.00">Concept Sketch</text>
</g>
<!-- 1990978992896 -->
<g id="node23" class="node">
<title>1990978992896</title>
<ellipse fill="white" stroke="black" cx="670.5" cy="-63" rx="27" ry="27"/>
</g>
<!-- 1990978988192&#45;&gt;1990978992896 -->
<g id="edge6" class="edge">
<title>1990978988192&#45;&gt;1990978992896</title>
<path fill="none" stroke="black" d="M607.86,-63.58C615.86,-63.5 624.12,-63.43 631.9,-63.35"/>
<polygon fill="black" stroke="black" points="631.74,-66.85 641.71,-63.26 631.68,-59.86 631.74,-66.85"/>
</g>
<!-- 1990977503504 -->
<g id="node4" class="node">
<title>1990977503504</title>
<polygon fill="white" stroke="black" points="823.75,-135 733.5,-135 733.5,-99 823.75,-99 823.75,-135"/>
<text text-anchor="middle" x="778.62" y="-111.97" font-family="Times New Roman,serif" font-size="12.00">Feedback Loop</text>
</g>
<!-- 1990977503504&#45;&gt;1990977722304 -->
<g id="edge9" class="edge">
<title>1990977503504&#45;&gt;1990977722304</title>
<path fill="none" stroke="black" d="M733.21,-113.43C669.1,-108.27 551.76,-98.83 491.85,-94.01"/>
<polygon fill="black" stroke="black" points="492.43,-90.54 482.18,-93.23 491.86,-97.52 492.43,-90.54"/>
</g>
<!-- 1990976834880 -->
<g id="node5" class="node">
<title>1990976834880</title>
<polygon fill="black" stroke="black" points="805.62,-81 751.62,-81 751.62,-45 805.62,-45 805.62,-81"/>
</g>
<!-- 1990979171872 -->
<g id="node24" class="node">
<title>1990979171872</title>
<ellipse fill="white" stroke="black" cx="886.75" cy="-99" rx="27" ry="27"/>
</g>
<!-- 1990976834880&#45;&gt;1990979171872 -->
<g id="edge11" class="edge">
<title>1990976834880&#45;&gt;1990979171872</title>
<path fill="none" stroke="black" d="M805.86,-71.9C819.26,-76.45 835.76,-82.04 850.28,-86.97"/>
<polygon fill="black" stroke="black" points="848.88,-90.19 859.48,-90.09 851.13,-83.56 848.88,-90.19"/>
</g>
<!-- 1990979161024 -->
<g id="node25" class="node">
<title>1990979161024</title>
<ellipse fill="white" stroke="black" cx="886.75" cy="-27" rx="27" ry="27"/>
</g>
<!-- 1990976834880&#45;&gt;1990979161024 -->
<g id="edge10" class="edge">
<title>1990976834880&#45;&gt;1990979161024</title>
<path fill="none" stroke="black" d="M805.86,-54.1C819.26,-49.55 835.76,-43.96 850.28,-39.03"/>
<polygon fill="black" stroke="black" points="851.13,-42.44 859.48,-35.91 848.88,-35.81 851.13,-42.44"/>
</g>
<!-- 1990979173936 -->
<g id="node6" class="node">
<title>1990979173936</title>
<polygon fill="white" stroke="black" points="1050.5,-45 949.75,-45 949.75,-9 1050.5,-9 1050.5,-45"/>
<text text-anchor="middle" x="1000.12" y="-21.98" font-family="Times New Roman,serif" font-size="12.00">Material Sourcing</text>
</g>
<!-- 1990979168032 -->
<g id="node26" class="node">
<title>1990979168032</title>
<ellipse fill="white" stroke="black" cx="1113.5" cy="-27" rx="27" ry="27"/>
</g>
<!-- 1990979173936&#45;&gt;1990979168032 -->
<g id="edge15" class="edge">
<title>1990979173936&#45;&gt;1990979168032</title>
<path fill="none" stroke="black" d="M1050.95,-27C1058.93,-27 1067.08,-27 1074.72,-27"/>
<polygon fill="black" stroke="black" points="1074.7,-30.5 1084.7,-27 1074.7,-23.5 1074.7,-30.5"/>
</g>
<!-- 1990979165920 -->
<g id="node7" class="node">
<title>1990979165920</title>
<polygon fill="white" stroke="black" points="1041.12,-117 959.12,-117 959.12,-81 1041.12,-81 1041.12,-117"/>
<text text-anchor="middle" x="1000.12" y="-93.97" font-family="Times New Roman,serif" font-size="12.00">Cost Analysis</text>
</g>
<!-- 1990979173552 -->
<g id="node27" class="node">
<title>1990979173552</title>
<ellipse fill="white" stroke="black" cx="1113.5" cy="-99" rx="27" ry="27"/>
</g>
<!-- 1990979165920&#45;&gt;1990979173552 -->
<g id="edge14" class="edge">
<title>1990979165920&#45;&gt;1990979173552</title>
<path fill="none" stroke="black" d="M1041.33,-99C1052.32,-99 1064.17,-99 1074.99,-99"/>
<polygon fill="black" stroke="black" points="1074.73,-102.5 1084.73,-99 1074.73,-95.5 1074.73,-102.5"/>
</g>
<!-- 1990981251824 -->
<g id="node8" class="node">
<title>1990981251824</title>
<polygon fill="white" stroke="black" points="1278.75,-81 1176.5,-81 1176.5,-45 1278.75,-45 1278.75,-81"/>
<text text-anchor="middle" x="1227.62" y="-57.98" font-family="Times New Roman,serif" font-size="12.00">Layer Application</text>
</g>
<!-- 1990971345664 -->
<g id="node28" class="node">
<title>1990971345664</title>
<ellipse fill="white" stroke="black" cx="1341.75" cy="-63" rx="27" ry="27"/>
</g>
<!-- 1990981251824&#45;&gt;1990971345664 -->
<g id="edge18" class="edge">
<title>1990981251824&#45;&gt;1990971345664</title>
<path fill="none" stroke="black" d="M1279.11,-63C1287.22,-63 1295.48,-63 1303.21,-63"/>
<polygon fill="black" stroke="black" points="1302.94,-66.5 1312.94,-63 1302.94,-59.5 1302.94,-66.5"/>
</g>
<!-- 1990976059968 -->
<g id="node9" class="node">
<title>1990976059968</title>
<polygon fill="white" stroke="black" points="1488.25,-81 1404.75,-81 1404.75,-45 1488.25,-45 1488.25,-81"/>
<text text-anchor="middle" x="1446.5" y="-57.98" font-family="Times New Roman,serif" font-size="12.00">Drying Period</text>
</g>
<!-- 1990976056560 -->
<g id="node29" class="node">
<title>1990976056560</title>
<ellipse fill="white" stroke="black" cx="1551.25" cy="-63" rx="27" ry="27"/>
</g>
<!-- 1990976059968&#45;&gt;1990976056560 -->
<g id="edge20" class="edge">
<title>1990976059968&#45;&gt;1990976056560</title>
<path fill="none" stroke="black" d="M1488.7,-63C1496.56,-63 1504.75,-63 1512.5,-63"/>
<polygon fill="black" stroke="black" points="1512.3,-66.5 1522.3,-63 1512.3,-59.5 1512.3,-66.5"/>
</g>
<!-- 1990976047776 -->
<g id="node10" class="node">
<title>1990976047776</title>
<polygon fill="white" stroke="black" points="1699.25,-81 1614.25,-81 1614.25,-45 1699.25,-45 1699.25,-81"/>
<text text-anchor="middle" x="1656.75" y="-57.98" font-family="Times New Roman,serif" font-size="12.00">Quality Check</text>
</g>
<!-- 1990980807008 -->
<g id="node30" class="node">
<title>1990980807008</title>
<ellipse fill="white" stroke="black" cx="1762.25" cy="-63" rx="27" ry="27"/>
</g>
<!-- 1990976047776&#45;&gt;1990980807008 -->
<g id="edge22" class="edge">
<title>1990976047776&#45;&gt;1990980807008</title>
<path fill="none" stroke="black" d="M1699.55,-63C1707.45,-63 1715.67,-63 1723.43,-63"/>
<polygon fill="black" stroke="black" points="1723.26,-66.5 1733.26,-63 1723.26,-59.5 1723.26,-66.5"/>
</g>
<!-- 1990980810320 -->
<g id="node11" class="node">
<title>1990980810320</title>
<polygon fill="white" stroke="black" points="1917.75,-81 1825.25,-81 1825.25,-45 1917.75,-45 1917.75,-81"/>
<text text-anchor="middle" x="1871.5" y="-57.98" font-family="Times New Roman,serif" font-size="12.00">Frame Selection</text>
</g>
<!-- 1990980802880 -->
<g id="node31" class="node">
<title>1990980802880</title>
<ellipse fill="white" stroke="black" cx="1980.75" cy="-63" rx="27" ry="27"/>
</g>
<!-- 1990980810320&#45;&gt;1990980802880 -->
<g id="edge24" class="edge">
<title>1990980810320&#45;&gt;1990980802880</title>
<path fill="none" stroke="black" d="M1917.98,-63C1926.02,-63 1934.31,-63 1942.1,-63"/>
<polygon fill="black" stroke="black" points="1941.94,-66.5 1951.94,-63 1941.94,-59.5 1941.94,-66.5"/>
</g>
<!-- 1990980801392 -->
<g id="node12" class="node">
<title>1990980801392</title>
<polygon fill="white" stroke="black" points="2138.5,-81 2043.75,-81 2043.75,-45 2138.5,-45 2138.5,-81"/>
<text text-anchor="middle" x="2091.12" y="-57.98" font-family="Times New Roman,serif" font-size="12.00">Provenance Doc</text>
</g>
<!-- 1990980803120 -->
<g id="node32" class="node">
<title>1990980803120</title>
<ellipse fill="white" stroke="black" cx="2201.5" cy="-63" rx="27" ry="27"/>
</g>
<!-- 1990980801392&#45;&gt;1990980803120 -->
<g id="edge26" class="edge">
<title>1990980801392&#45;&gt;1990980803120</title>
<path fill="none" stroke="black" d="M2138.71,-63C2146.79,-63 2155.1,-63 2162.9,-63"/>
<polygon fill="black" stroke="black" points="2162.73,-66.5 2172.73,-63 2162.73,-59.5 2162.73,-66.5"/>
</g>
<!-- 1990980801632 -->
<g id="node13" class="node">
<title>1990980801632</title>
<polygon fill="white" stroke="black" points="2365.25,-81 2264.5,-81 2264.5,-45 2365.25,-45 2365.25,-81"/>
<text text-anchor="middle" x="2314.88" y="-57.98" font-family="Times New Roman,serif" font-size="12.00">Final Presentation</text>
</g>
<!-- 1990980803168 -->
<g id="node33" class="node">
<title>1990980803168</title>
<ellipse fill="white" stroke="black" cx="2428.25" cy="-63" rx="27" ry="27"/>
</g>
<!-- 1990980801632&#45;&gt;1990980803168 -->
<g id="edge28" class="edge">
<title>1990980801632&#45;&gt;1990980803168</title>
<path fill="none" stroke="black" d="M2365.7,-63C2373.68,-63 2381.83,-63 2389.47,-63"/>
<polygon fill="black" stroke="black" points="2389.45,-66.5 2399.45,-63 2389.45,-59.5 2389.45,-66.5"/>
</g>
<!-- 1990980803504 -->
<g id="node14" class="node">
<title>1990980803504</title>
<polygon fill="white" stroke="black" points="2578.5,-81 2491.25,-81 2491.25,-45 2578.5,-45 2578.5,-81"/>
<text text-anchor="middle" x="2534.88" y="-57.98" font-family="Times New Roman,serif" font-size="12.00">Payment Setup</text>
</g>
<!-- 1990979159392 -->
<g id="node34" class="node">
<title>1990979159392</title>
<ellipse fill="white" stroke="black" cx="2641.5" cy="-63" rx="27" ry="27"/>
</g>
<!-- 1990980803504&#45;&gt;1990979159392 -->
<g id="edge30" class="edge">
<title>1990980803504&#45;&gt;1990979159392</title>
<path fill="none" stroke="black" d="M2578.73,-63C2586.68,-63 2594.92,-63 2602.7,-63"/>
<polygon fill="black" stroke="black" points="2602.54,-66.5 2612.54,-63 2602.54,-59.5 2602.54,-66.5"/>
</g>
<!-- 1990979161984 -->
<g id="node15" class="node">
<title>1990979161984</title>
<polygon fill="white" stroke="black" points="2808.25,-81 2704.5,-81 2704.5,-45 2808.25,-45 2808.25,-81"/>
<text text-anchor="middle" x="2756.38" y="-57.98" font-family="Times New Roman,serif" font-size="12.00">Delivery Schedule</text>
</g>
<!-- 1990976058576 -->
<g id="node35" class="node">
<title>1990976058576</title>
<ellipse fill="white" stroke="black" cx="2871.25" cy="-63" rx="27" ry="27"/>
</g>
<!-- 1990979161984&#45;&gt;1990976058576 -->
<g id="edge32" class="edge">
<title>1990979161984&#45;&gt;1990976058576</title>
<path fill="none" stroke="black" d="M2808.53,-63C2816.66,-63 2824.94,-63 2832.69,-63"/>
<polygon fill="black" stroke="black" points="2832.43,-66.5 2842.43,-63 2832.43,-59.5 2832.43,-66.5"/>
</g>
<!-- 1990976045376 -->
<g id="node16" class="node">
<title>1990976045376</title>
<polygon fill="white" stroke="black" points="3035,-81 2934.25,-81 2934.25,-45 3035,-45 3035,-81"/>
<text text-anchor="middle" x="2984.62" y="-57.98" font-family="Times New Roman,serif" font-size="12.00">Aftercare Support</text>
</g>
<!-- 1990976060784 -->
<g id="node36" class="node">
<title>1990976060784</title>
<ellipse fill="white" stroke="black" cx="3098" cy="-63" rx="27" ry="27"/>
</g>
<!-- 1990976045376&#45;&gt;1990976060784 -->
<g id="edge34" class="edge">
<title>1990976045376&#45;&gt;1990976060784</title>
<path fill="none" stroke="black" d="M3035.45,-63C3043.43,-63 3051.58,-63 3059.22,-63"/>
<polygon fill="black" stroke="black" points="3059.2,-66.5 3069.2,-63 3059.2,-59.5 3059.2,-66.5"/>
</g>
<!-- 1990976058720 -->
<g id="node17" class="node">
<title>1990976058720</title>
<polygon fill="black" stroke="black" points="3235,-108 3181,-108 3181,-72 3235,-72 3235,-108"/>
</g>
<!-- 1990976050896 -->
<g id="node37" class="node">
<title>1990976050896</title>
<ellipse fill="white" stroke="black" cx="3318" cy="-63" rx="27" ry="27"/>
</g>
<!-- 1990976058720&#45;&gt;1990976050896 -->
<g id="edge38" class="edge">
<title>1990976058720&#45;&gt;1990976050896</title>
<path fill="none" stroke="black" d="M3235.42,-83.4C3249.05,-79.99 3265.9,-75.78 3280.73,-72.07"/>
<polygon fill="black" stroke="black" points="3281.28,-75.54 3290.13,-69.72 3279.58,-68.75 3281.28,-75.54"/>
</g>
<!-- 1990976051280 -->
<g id="node18" class="node">
<title>1990976051280</title>
<polygon fill="white" stroke="black" points="3255,-54 3161,-54 3161,-18 3255,-18 3255,-54"/>
<text text-anchor="middle" x="3208" y="-30.98" font-family="Times New Roman,serif" font-size="12.00">Restoration Plan</text>
</g>
<!-- 1990976051280&#45;&gt;1990976050896 -->
<g id="edge37" class="edge">
<title>1990976051280&#45;&gt;1990976050896</title>
<path fill="none" stroke="black" d="M3255.43,-47.61C3263.82,-49.71 3272.46,-51.87 3280.52,-53.88"/>
<polygon fill="black" stroke="black" points="3279.42,-57.21 3289.97,-56.24 3281.12,-50.42 3279.42,-57.21"/>
</g>
<!-- 1990976049216 -->
<g id="node19" class="node">
<title>1990976049216</title>
<polygon fill="black" stroke="black" points="3435,-81 3381,-81 3381,-45 3435,-45 3435,-81"/>
</g>
<!-- 1990979856736 -->
<g id="node38" class="node">
<title>1990979856736</title>
<ellipse fill="white" stroke="black" cx="3502" cy="-63" rx="27" ry="27"/>
<ellipse fill="none" stroke="black" cx="3502" cy="-63" rx="31" ry="31"/>
<text text-anchor="start" x="3485.5" y="-47.6" font-family="Times New Roman,serif" font-size="32.00">■</text>
</g>
<!-- 1990976049216&#45;&gt;1990979856736 -->
<g id="edge40" class="edge">
<title>1990976049216&#45;&gt;1990979856736</title>
<path fill="none" stroke="black" d="M3435.12,-63C3442.63,-63 3451.01,-63 3459.22,-63"/>
<polygon fill="black" stroke="black" points="3459.08,-66.5 3469.08,-63 3459.08,-59.5 3459.08,-66.5"/>
</g>
<!-- 1990979851216 -->
<g id="node20" class="node">
<title>1990979851216</title>
<ellipse fill="white" stroke="black" cx="27" cy="-91" rx="27" ry="27"/>
<text text-anchor="start" x="9.75" y="-73.7" font-family="Times New Roman,serif" font-size="34.00">●</text>
</g>
<!-- 1990979851216&#45;&gt;1990980441472 -->
<g id="edge1" class="edge">
<title>1990979851216&#45;&gt;1990980441472</title>
<path fill="none" stroke="black" d="M54.44,-91C61.81,-91 70.06,-91 78.23,-91"/>
<polygon fill="black" stroke="black" points="78.12,-94.5 88.12,-91 78.12,-87.5 78.12,-94.5"/>
</g>
<!-- 1990980440416&#45;&gt;1990980753968 -->
<g id="edge3" class="edge">
<title>1990980440416&#45;&gt;1990980753968</title>
<path fill="none" stroke="black" d="M251.88,-91C259.11,-91 267.27,-91 275.61,-91"/>
<polygon fill="black" stroke="black" points="275.52,-94.5 285.52,-91 275.52,-87.5 275.52,-94.5"/>
</g>
<!-- 1990977722304&#45;&gt;1990978988192 -->
<g id="edge5" class="edge">
<title>1990977722304&#45;&gt;1990978988192</title>
<path fill="none" stroke="black" d="M480.01,-84.53C487.62,-82.6 496.29,-80.41 505.05,-78.18"/>
<polygon fill="black" stroke="black" points="505.83,-81.6 514.67,-75.75 504.11,-74.81 505.83,-81.6"/>
</g>
<!-- 1990978992896&#45;&gt;1990977503504 -->
<g id="edge7" class="edge">
<title>1990978992896&#45;&gt;1990977503504</title>
<path fill="none" stroke="black" d="M695.05,-74.98C705.85,-80.48 719.03,-87.18 731.66,-93.61"/>
<polygon fill="black" stroke="black" points="729.77,-96.58 740.27,-97.99 732.95,-90.34 729.77,-96.58"/>
</g>
<!-- 1990978992896&#45;&gt;1990976834880 -->
<g id="edge8" class="edge">
<title>1990978992896&#45;&gt;1990976834880</title>
<path fill="none" stroke="black" d="M697.73,-63C710.49,-63 726.05,-63 740.04,-63"/>
<polygon fill="black" stroke="black" points="739.81,-66.5 749.81,-63 739.81,-59.5 739.81,-66.5"/>
</g>
<!-- 1990979171872&#45;&gt;1990979165920 -->
<g id="edge13" class="edge">
<title>1990979171872&#45;&gt;1990979165920</title>
<path fill="none" stroke="black" d="M914.14,-99C924.18,-99 935.99,-99 947.56,-99"/>
<polygon fill="black" stroke="black" points="947.46,-102.5 957.46,-99 947.46,-95.5 947.46,-102.5"/>
</g>
<!-- 1990979161024&#45;&gt;1990979173936 -->
<g id="edge12" class="edge">
<title>1990979161024&#45;&gt;1990979173936</title>
<path fill="none" stroke="black" d="M914.14,-27C921.4,-27 929.58,-27 937.92,-27"/>
<polygon fill="black" stroke="black" points="937.82,-30.5 947.82,-27 937.82,-23.5 937.82,-30.5"/>
</g>
<!-- 1990979168032&#45;&gt;1990981251824 -->
<g id="edge17" class="edge">
<title>1990979168032&#45;&gt;1990981251824</title>
<path fill="none" stroke="black" d="M1139.66,-35.08C1147.46,-37.58 1156.42,-40.46 1165.55,-43.39"/>
<polygon fill="black" stroke="black" points="1164.26,-46.65 1174.86,-46.38 1166.4,-39.99 1164.26,-46.65"/>
</g>
<!-- 1990979173552&#45;&gt;1990981251824 -->
<g id="edge16" class="edge">
<title>1990979173552&#45;&gt;1990981251824</title>
<path fill="none" stroke="black" d="M1139.66,-90.92C1147.46,-88.42 1156.42,-85.54 1165.55,-82.61"/>
<polygon fill="black" stroke="black" points="1166.4,-86.01 1174.86,-79.62 1164.26,-79.35 1166.4,-86.01"/>
</g>
<!-- 1990971345664&#45;&gt;1990976059968 -->
<g id="edge19" class="edge">
<title>1990971345664&#45;&gt;1990976059968</title>
<path fill="none" stroke="black" d="M1369.21,-63C1376.57,-63 1384.83,-63 1393.12,-63"/>
<polygon fill="black" stroke="black" points="1392.86,-66.5 1402.86,-63 1392.86,-59.5 1392.86,-66.5"/>
</g>
<!-- 1990976056560&#45;&gt;1990976047776 -->
<g id="edge21" class="edge">
<title>1990976056560&#45;&gt;1990976047776</title>
<path fill="none" stroke="black" d="M1578.64,-63C1586.05,-63 1594.38,-63 1602.76,-63"/>
<polygon fill="black" stroke="black" points="1602.61,-66.5 1612.61,-63 1602.61,-59.5 1602.61,-66.5"/>
</g>
<!-- 1990980807008&#45;&gt;1990980810320 -->
<g id="edge23" class="edge">
<title>1990980807008&#45;&gt;1990980810320</title>
<path fill="none" stroke="black" d="M1789.49,-63C1796.82,-63 1805.09,-63 1813.47,-63"/>
<polygon fill="black" stroke="black" points="1813.37,-66.5 1823.37,-63 1813.37,-59.5 1813.37,-66.5"/>
</g>
<!-- 1990980802880&#45;&gt;1990980801392 -->
<g id="edge25" class="edge">
<title>1990980802880&#45;&gt;1990980801392</title>
<path fill="none" stroke="black" d="M2007.98,-63C2015.31,-63 2023.57,-63 2031.95,-63"/>
<polygon fill="black" stroke="black" points="2031.88,-66.5 2041.88,-63 2031.88,-59.5 2031.88,-66.5"/>
</g>
<!-- 1990980803120&#45;&gt;1990980801632 -->
<g id="edge27" class="edge">
<title>1990980803120&#45;&gt;1990980801632</title>
<path fill="none" stroke="black" d="M2228.89,-63C2236.15,-63 2244.33,-63 2252.67,-63"/>
<polygon fill="black" stroke="black" points="2252.57,-66.5 2262.57,-63 2252.57,-59.5 2252.57,-66.5"/>
</g>
<!-- 1990980803168&#45;&gt;1990980803504 -->
<g id="edge29" class="edge">
<title>1990980803168&#45;&gt;1990980803504</title>
<path fill="none" stroke="black" d="M2455.65,-63C2462.98,-63 2471.21,-63 2479.51,-63"/>
<polygon fill="black" stroke="black" points="2479.28,-66.5 2489.28,-63 2479.28,-59.5 2479.28,-66.5"/>
</g>
<!-- 1990979159392&#45;&gt;1990979161984 -->
<g id="edge31" class="edge">
<title>1990979159392&#45;&gt;1990979161984</title>
<path fill="none" stroke="black" d="M2668.96,-63C2676.22,-63 2684.41,-63 2692.78,-63"/>
<polygon fill="black" stroke="black" points="2692.73,-66.5 2702.73,-63 2692.73,-59.5 2692.73,-66.5"/>
</g>
<!-- 1990976058576&#45;&gt;1990976045376 -->
<g id="edge33" class="edge">
<title>1990976058576&#45;&gt;1990976045376</title>
<path fill="none" stroke="black" d="M2898.64,-63C2905.9,-63 2914.08,-63 2922.42,-63"/>
<polygon fill="black" stroke="black" points="2922.32,-66.5 2932.32,-63 2922.32,-59.5 2922.32,-66.5"/>
</g>
<!-- 1990976060784&#45;&gt;1990976058720 -->
<g id="edge35" class="edge">
<title>1990976060784&#45;&gt;1990976058720</title>
<path fill="none" stroke="black" d="M3124.59,-69.4C3138.11,-72.78 3154.96,-76.99 3169.88,-80.72"/>
<polygon fill="black" stroke="black" points="3168.82,-84.06 3179.37,-83.09 3170.52,-77.27 3168.82,-84.06"/>
</g>
<!-- 1990976060784&#45;&gt;1990976051280 -->
<g id="edge36" class="edge">
<title>1990976060784&#45;&gt;1990976051280</title>
<path fill="none" stroke="black" d="M3124.59,-56.6C3132.23,-54.69 3140.92,-52.52 3149.72,-50.32"/>
<polygon fill="black" stroke="black" points="3150.55,-53.72 3159.4,-47.9 3148.85,-46.93 3150.55,-53.72"/>
</g>
<!-- 1990976050896&#45;&gt;1990976049216 -->
<g id="edge39" class="edge">
<title>1990976050896&#45;&gt;1990976049216</title>
<path fill="none" stroke="black" d="M3345.4,-63C3352.89,-63 3361.18,-63 3369.2,-63"/>
<polygon fill="black" stroke="black" points="3369.1,-66.5 3379.1,-63 3369.1,-59.5 3369.1,-66.5"/>
</g>
</g>
</svg>
