<?xml version="1.0" encoding="UTF-8" standalone="no"?>
<!DOCTYPE svg PUBLIC "-//W3C//DTD SVG 1.1//EN"
 "http://www.w3.org/Graphics/SVG/1.1/DTD/svg11.dtd">
<!-- Generated by graphviz version 11.0.0 (20240428.1522)
 -->
<!-- Title: imdf_net_1754052164.5658753 Pages: 1 -->
<svg width="2909pt" height="350pt"
 viewBox="0.00 0.00 2908.75 350.00" xmlns="http://www.w3.org/2000/svg" xmlns:xlink="http://www.w3.org/1999/xlink">
<g id="graph0" class="graph" transform="scale(1 1) rotate(0) translate(4 346)">
<title>imdf_net_1754052164.5658753</title>
<polygon fill="white" stroke="none" points="-4,4 -4,-346 2904.75,-346 2904.75,4 -4,4"/>
<!-- 1990980185856 -->
<g id="node1" class="node">
<title>1990980185856</title>
<polygon fill="white" stroke="black" points="174.25,-189 90,-189 90,-153 174.25,-153 174.25,-189"/>
<text text-anchor="middle" x="132.12" y="-165.97" font-family="Times New Roman,serif" font-size="12.00">Client Consult</text>
</g>
<!-- 1990980175584 -->
<g id="node19" class="node">
<title>1990980175584</title>
<ellipse fill="white" stroke="black" cx="237.25" cy="-171" rx="27" ry="27"/>
</g>
<!-- 1990980185856&#45;&gt;1990980175584 -->
<g id="edge2" class="edge">
<title>1990980185856&#45;&gt;1990980175584</title>
<path fill="none" stroke="black" d="M174.48,-171C182.44,-171 190.74,-171 198.58,-171"/>
<polygon fill="black" stroke="black" points="198.5,-174.5 208.5,-171 198.5,-167.5 198.5,-174.5"/>
</g>
<!-- 1990980180768 -->
<g id="node2" class="node">
<title>1990980180768</title>
<polygon fill="white" stroke="black" points="412.25,-189 300.25,-189 300.25,-153 412.25,-153 412.25,-189"/>
<text text-anchor="middle" x="356.25" y="-165.97" font-family="Times New Roman,serif" font-size="12.00">Requirement Gather</text>
</g>
<!-- 1990980187248 -->
<g id="node20" class="node">
<title>1990980187248</title>
<ellipse fill="white" stroke="black" cx="475.25" cy="-171" rx="27" ry="27"/>
</g>
<!-- 1990980180768&#45;&gt;1990980187248 -->
<g id="edge4" class="edge">
<title>1990980180768&#45;&gt;1990980187248</title>
<path fill="none" stroke="black" d="M412.67,-171C420.73,-171 428.87,-171 436.47,-171"/>
<polygon fill="black" stroke="black" points="436.38,-174.5 446.38,-171 436.38,-167.5 436.38,-174.5"/>
</g>
<!-- 1990980176544 -->
<g id="node3" class="node">
<title>1990980176544</title>
<polygon fill="white" stroke="black" points="655.5,-189 538.25,-189 538.25,-153 655.5,-153 655.5,-189"/>
<text text-anchor="middle" x="596.88" y="-165.97" font-family="Times New Roman,serif" font-size="12.00">Component Sourcing</text>
</g>
<!-- 1990980182160 -->
<g id="node21" class="node">
<title>1990980182160</title>
<ellipse fill="white" stroke="black" cx="718.5" cy="-171" rx="27" ry="27"/>
</g>
<!-- 1990980176544&#45;&gt;1990980182160 -->
<g id="edge6" class="edge">
<title>1990980176544&#45;&gt;1990980182160</title>
<path fill="none" stroke="black" d="M655.94,-171C664.06,-171 672.23,-171 679.84,-171"/>
<polygon fill="black" stroke="black" points="679.74,-174.5 689.74,-171 679.74,-167.5 679.74,-174.5"/>
</g>
<!-- 1990980180720 -->
<g id="node4" class="node">
<title>1990980180720</title>
<polygon fill="white" stroke="black" points="883.75,-189 781.5,-189 781.5,-153 883.75,-153 883.75,-189"/>
<text text-anchor="middle" x="832.62" y="-165.97" font-family="Times New Roman,serif" font-size="12.00">Sensor Integration</text>
</g>
<!-- 1990980184560 -->
<g id="node22" class="node">
<title>1990980184560</title>
<ellipse fill="white" stroke="black" cx="946.75" cy="-171" rx="27" ry="27"/>
</g>
<!-- 1990980180720&#45;&gt;1990980184560 -->
<g id="edge8" class="edge">
<title>1990980180720&#45;&gt;1990980184560</title>
<path fill="none" stroke="black" d="M884.11,-171C892.22,-171 900.48,-171 908.21,-171"/>
<polygon fill="black" stroke="black" points="907.94,-174.5 917.94,-171 907.94,-167.5 907.94,-174.5"/>
</g>
<!-- 1990980187680 -->
<g id="node5" class="node">
<title>1990980187680</title>
<polygon fill="white" stroke="black" points="1106,-189 1009.75,-189 1009.75,-153 1106,-153 1106,-189"/>
<text text-anchor="middle" x="1057.88" y="-165.97" font-family="Times New Roman,serif" font-size="12.00">Frame Assembly</text>
</g>
<!-- 1990980186288 -->
<g id="node23" class="node">
<title>1990980186288</title>
<ellipse fill="white" stroke="black" cx="1169" cy="-171" rx="27" ry="27"/>
</g>
<!-- 1990980187680&#45;&gt;1990980186288 -->
<g id="edge10" class="edge">
<title>1990980187680&#45;&gt;1990980186288</title>
<path fill="none" stroke="black" d="M1106.42,-171C1114.34,-171 1122.45,-171 1130.09,-171"/>
<polygon fill="black" stroke="black" points="1130.08,-174.5 1140.08,-171 1130.08,-167.5 1130.08,-174.5"/>
</g>
<!-- 1990980356000 -->
<g id="node6" class="node">
<title>1990980356000</title>
<polygon fill="white" stroke="black" points="1320,-189 1232,-189 1232,-153 1320,-153 1320,-189"/>
<text text-anchor="middle" x="1276" y="-165.97" font-family="Times New Roman,serif" font-size="12.00">Quality Inspect</text>
</g>
<!-- 1990980363632 -->
<g id="node24" class="node">
<title>1990980363632</title>
<ellipse fill="white" stroke="black" cx="1383" cy="-171" rx="27" ry="27"/>
</g>
<!-- 1990980356000&#45;&gt;1990980363632 -->
<g id="edge12" class="edge">
<title>1990980356000&#45;&gt;1990980363632</title>
<path fill="none" stroke="black" d="M1320.31,-171C1328.27,-171 1336.51,-171 1344.28,-171"/>
<polygon fill="black" stroke="black" points="1344.1,-174.5 1354.1,-171 1344.1,-167.5 1344.1,-174.5"/>
</g>
<!-- 1990980354608 -->
<g id="node7" class="node">
<title>1990980354608</title>
<polygon fill="white" stroke="black" points="1534,-189 1446,-189 1446,-153 1534,-153 1534,-189"/>
<text text-anchor="middle" x="1490" y="-165.97" font-family="Times New Roman,serif" font-size="12.00">Flight Simulate</text>
</g>
<!-- 1990980359072 -->
<g id="node25" class="node">
<title>1990980359072</title>
<ellipse fill="white" stroke="black" cx="1597" cy="-171" rx="27" ry="27"/>
</g>
<!-- 1990980354608&#45;&gt;1990980359072 -->
<g id="edge14" class="edge">
<title>1990980354608&#45;&gt;1990980359072</title>
<path fill="none" stroke="black" d="M1534.31,-171C1542.27,-171 1550.51,-171 1558.28,-171"/>
<polygon fill="black" stroke="black" points="1558.1,-174.5 1568.1,-171 1558.1,-167.5 1558.1,-174.5"/>
</g>
<!-- 1990980356864 -->
<g id="node8" class="node">
<title>1990980356864</title>
<polygon fill="white" stroke="black" points="1721,-189 1660,-189 1660,-153 1721,-153 1721,-189"/>
<text text-anchor="middle" x="1690.5" y="-165.97" font-family="Times New Roman,serif" font-size="12.00">Real Test</text>
</g>
<!-- 1990980367280 -->
<g id="node26" class="node">
<title>1990980367280</title>
<ellipse fill="white" stroke="black" cx="1784" cy="-171" rx="27" ry="27"/>
</g>
<!-- 1990980356864&#45;&gt;1990980367280 -->
<g id="edge16" class="edge">
<title>1990980356864&#45;&gt;1990980367280</title>
<path fill="none" stroke="black" d="M1721.46,-171C1729.09,-171 1737.4,-171 1745.36,-171"/>
<polygon fill="black" stroke="black" points="1745.16,-174.5 1755.16,-171 1745.16,-167.5 1745.16,-174.5"/>
</g>
<!-- 1990980357872 -->
<g id="node9" class="node">
<title>1990980357872</title>
<polygon fill="white" stroke="black" points="1941,-189 1847,-189 1847,-153 1941,-153 1941,-189"/>
<text text-anchor="middle" x="1894" y="-165.97" font-family="Times New Roman,serif" font-size="12.00">Data Calibration</text>
</g>
<!-- 1990980359024 -->
<g id="node27" class="node">
<title>1990980359024</title>
<ellipse fill="white" stroke="black" cx="2004" cy="-171" rx="27" ry="27"/>
</g>
<!-- 1990980357872&#45;&gt;1990980359024 -->
<g id="edge18" class="edge">
<title>1990980357872&#45;&gt;1990980359024</title>
<path fill="none" stroke="black" d="M1941.43,-171C1949.31,-171 1957.41,-171 1965.03,-171"/>
<polygon fill="black" stroke="black" points="1965.02,-174.5 1975.02,-171 1965.02,-167.5 1965.02,-174.5"/>
</g>
<!-- 1990980363248 -->
<g id="node10" class="node">
<title>1990980363248</title>
<polygon fill="white" stroke="black" points="2167,-189 2067,-189 2067,-153 2167,-153 2167,-189"/>
<text text-anchor="middle" x="2117" y="-165.97" font-family="Times New Roman,serif" font-size="12.00">Firmware Upload</text>
</g>
<!-- 1990979480576 -->
<g id="node28" class="node">
<title>1990979480576</title>
<ellipse fill="white" stroke="black" cx="2230" cy="-315" rx="27" ry="27"/>
</g>
<!-- 1990980363248&#45;&gt;1990979480576 -->
<g id="edge22" class="edge">
<title>1990980363248&#45;&gt;1990979480576</title>
<path fill="none" stroke="black" d="M2132.06,-189.24C2150.69,-213.41 2183.81,-256.37 2206.08,-285.27"/>
<polygon fill="black" stroke="black" points="2203.1,-287.13 2211.98,-292.92 2208.65,-282.86 2203.1,-287.13"/>
</g>
<!-- 1990980360464 -->
<g id="node29" class="node">
<title>1990980360464</title>
<ellipse fill="white" stroke="black" cx="2230" cy="-171" rx="27" ry="27"/>
</g>
<!-- 1990980363248&#45;&gt;1990980360464 -->
<g id="edge24" class="edge">
<title>1990980363248&#45;&gt;1990980360464</title>
<path fill="none" stroke="black" d="M2167.33,-171C2175.41,-171 2183.66,-171 2191.39,-171"/>
<polygon fill="black" stroke="black" points="2191.12,-174.5 2201.12,-171 2191.12,-167.5 2191.12,-174.5"/>
</g>
<!-- 1990979476544 -->
<g id="node30" class="node">
<title>1990979476544</title>
<ellipse fill="white" stroke="black" cx="2230" cy="-99" rx="27" ry="27"/>
</g>
<!-- 1990980363248&#45;&gt;1990979476544 -->
<g id="edge21" class="edge">
<title>1990980363248&#45;&gt;1990979476544</title>
<path fill="none" stroke="black" d="M2146.3,-152.65C2161.83,-142.57 2181.14,-130.05 2197.19,-119.63"/>
<polygon fill="black" stroke="black" points="2198.95,-122.67 2205.43,-114.29 2195.14,-116.79 2198.95,-122.67"/>
</g>
<!-- 1990980361184 -->
<g id="node31" class="node">
<title>1990980361184</title>
<ellipse fill="white" stroke="black" cx="2230" cy="-243" rx="27" ry="27"/>
</g>
<!-- 1990980363248&#45;&gt;1990980361184 -->
<g id="edge20" class="edge">
<title>1990980363248&#45;&gt;1990980361184</title>
<path fill="none" stroke="black" d="M2146.3,-189.35C2161.83,-199.43 2181.14,-211.95 2197.19,-222.37"/>
<polygon fill="black" stroke="black" points="2195.14,-225.21 2205.43,-227.71 2198.95,-219.33 2195.14,-225.21"/>
</g>
<!-- 1990979475680 -->
<g id="node32" class="node">
<title>1990979475680</title>
<ellipse fill="white" stroke="black" cx="2230" cy="-27" rx="27" ry="27"/>
</g>
<!-- 1990980363248&#45;&gt;1990979475680 -->
<g id="edge23" class="edge">
<title>1990980363248&#45;&gt;1990979475680</title>
<path fill="none" stroke="black" d="M2132.06,-152.76C2150.69,-128.59 2183.81,-85.63 2206.08,-56.73"/>
<polygon fill="black" stroke="black" points="2208.65,-59.14 2211.98,-49.08 2203.1,-54.87 2208.65,-59.14"/>
</g>
<!-- 1990979474432 -->
<g id="node11" class="node">
<title>1990979474432</title>
<polygon fill="white" stroke="black" points="2386.25,-56 2302.75,-56 2302.75,-20 2386.25,-20 2386.25,-56"/>
<text text-anchor="middle" x="2344.5" y="-32.98" font-family="Times New Roman,serif" font-size="12.00">Support Setup</text>
</g>
<!-- 1990979480480 -->
<g id="node36" class="node">
<title>1990979480480</title>
<ellipse fill="white" stroke="black" cx="2685.75" cy="-55" rx="27" ry="27"/>
</g>
<!-- 1990979474432&#45;&gt;1990979480480 -->
<g id="edge31" class="edge">
<title>1990979474432&#45;&gt;1990979480480</title>
<path fill="none" stroke="black" d="M2386.42,-40.05C2452.78,-43.38 2582.9,-49.9 2647.1,-53.11"/>
<polygon fill="black" stroke="black" points="2646.61,-56.59 2656.78,-53.6 2646.96,-49.6 2646.61,-56.59"/>
</g>
<!-- 1990979484656 -->
<g id="node12" class="node">
<title>1990979484656</title>
<polygon fill="white" stroke="black" points="2394.88,-330 2294.12,-330 2294.12,-294 2394.88,-294 2394.88,-330"/>
<text text-anchor="middle" x="2344.5" y="-306.98" font-family="Times New Roman,serif" font-size="12.00">Maintenance Plan</text>
</g>
<!-- 1990979477264 -->
<g id="node35" class="node">
<title>1990979477264</title>
<ellipse fill="white" stroke="black" cx="2572.38" cy="-270" rx="27" ry="27"/>
</g>
<!-- 1990979484656&#45;&gt;1990979477264 -->
<g id="edge34" class="edge">
<title>1990979484656&#45;&gt;1990979477264</title>
<path fill="none" stroke="black" d="M2395.35,-302.73C2437.38,-294.92 2496.58,-283.91 2534.47,-276.86"/>
<polygon fill="black" stroke="black" points="2534.82,-280.36 2544.01,-275.09 2533.54,-273.48 2534.82,-280.36"/>
</g>
<!-- 1990980354896 -->
<g id="node13" class="node">
<title>1990980354896</title>
<polygon fill="white" stroke="black" points="2384.38,-189 2304.62,-189 2304.62,-153 2384.38,-153 2384.38,-189"/>
<text text-anchor="middle" x="2344.5" y="-165.97" font-family="Times New Roman,serif" font-size="12.00">Manual Draft</text>
</g>
<!-- 1990980034176 -->
<g id="node33" class="node">
<title>1990980034176</title>
<ellipse fill="white" stroke="black" cx="2459" cy="-171" rx="27" ry="27"/>
</g>
<!-- 1990980354896&#45;&gt;1990980034176 -->
<g id="edge30" class="edge">
<title>1990980354896&#45;&gt;1990980034176</title>
<path fill="none" stroke="black" d="M2384.85,-171C2396.32,-171 2408.83,-171 2420.21,-171"/>
<polygon fill="black" stroke="black" points="2420.05,-174.5 2430.05,-171 2420.05,-167.5 2420.05,-174.5"/>
</g>
<!-- 1990980360560 -->
<g id="node14" class="node">
<title>1990980360560</title>
<polygon fill="white" stroke="black" points="2389.62,-261 2299.38,-261 2299.38,-225 2389.62,-225 2389.62,-261"/>
<text text-anchor="middle" x="2344.5" y="-237.97" font-family="Times New Roman,serif" font-size="12.00">Packaging Prep</text>
</g>
<!-- 1990980032160 -->
<g id="node37" class="node">
<title>1990980032160</title>
<ellipse fill="white" stroke="black" cx="2459" cy="-243" rx="27" ry="27"/>
</g>
<!-- 1990980360560&#45;&gt;1990980032160 -->
<g id="edge33" class="edge">
<title>1990980360560&#45;&gt;1990980032160</title>
<path fill="none" stroke="black" d="M2389.96,-243C2400.01,-243 2410.57,-243 2420.31,-243"/>
<polygon fill="black" stroke="black" points="2420.16,-246.5 2430.16,-243 2420.16,-239.5 2420.16,-246.5"/>
</g>
<!-- 1990979484320 -->
<g id="node15" class="node">
<title>1990979484320</title>
<polygon fill="white" stroke="black" points="2396,-118 2293,-118 2293,-82 2396,-82 2396,-118"/>
<text text-anchor="middle" x="2344.5" y="-94.97" font-family="Times New Roman,serif" font-size="12.00">Training Schedule</text>
</g>
<!-- 1990979481872 -->
<g id="node34" class="node">
<title>1990979481872</title>
<ellipse fill="white" stroke="black" cx="2572.38" cy="-105" rx="27" ry="27"/>
</g>
<!-- 1990979484320&#45;&gt;1990979481872 -->
<g id="edge32" class="edge">
<title>1990979484320&#45;&gt;1990979481872</title>
<path fill="none" stroke="black" d="M2396.47,-101.13C2438.15,-102.05 2496.14,-103.33 2533.72,-104.17"/>
<polygon fill="black" stroke="black" points="2533.57,-107.66 2543.64,-104.39 2533.72,-100.67 2533.57,-107.66"/>
</g>
<!-- 1990980354368 -->
<g id="node16" class="node">
<title>1990980354368</title>
<polygon fill="white" stroke="black" points="2622.75,-189 2522,-189 2522,-153 2622.75,-153 2622.75,-189"/>
<text text-anchor="middle" x="2572.38" y="-165.97" font-family="Times New Roman,serif" font-size="12.00">Shipping Arrange</text>
</g>
<!-- 1990980359264 -->
<g id="node38" class="node">
<title>1990980359264</title>
<ellipse fill="white" stroke="black" cx="2685.75" cy="-170" rx="27" ry="27"/>
</g>
<!-- 1990980354368&#45;&gt;1990980359264 -->
<g id="edge40" class="edge">
<title>1990980354368&#45;&gt;1990980359264</title>
<path fill="none" stroke="black" d="M2623.2,-170.55C2631.18,-170.48 2639.33,-170.41 2646.97,-170.34"/>
<polygon fill="black" stroke="black" points="2646.98,-173.84 2656.95,-170.25 2646.92,-166.84 2646.98,-173.84"/>
</g>
<!-- 1990980181200 -->
<g id="node17" class="node">
<title>1990980181200</title>
<polygon fill="black" stroke="black" points="2802.75,-163 2748.75,-163 2748.75,-127 2802.75,-127 2802.75,-163"/>
</g>
<!-- 1990980175344 -->
<g id="node39" class="node">
<title>1990980175344</title>
<ellipse fill="white" stroke="black" cx="2869.75" cy="-145" rx="27" ry="27"/>
<ellipse fill="none" stroke="black" cx="2869.75" cy="-145" rx="31" ry="31"/>
<text text-anchor="start" x="2853.25" y="-129.6" font-family="Times New Roman,serif" font-size="32.00">■</text>
</g>
<!-- 1990980181200&#45;&gt;1990980175344 -->
<g id="edge41" class="edge">
<title>1990980181200&#45;&gt;1990980175344</title>
<path fill="none" stroke="black" d="M2802.87,-145C2810.38,-145 2818.76,-145 2826.97,-145"/>
<polygon fill="black" stroke="black" points="2826.83,-148.5 2836.83,-145 2826.83,-141.5 2826.83,-148.5"/>
</g>
<!-- 1990980182736 -->
<g id="node18" class="node">
<title>1990980182736</title>
<ellipse fill="white" stroke="black" cx="27" cy="-171" rx="27" ry="27"/>
<text text-anchor="start" x="9.75" y="-153.7" font-family="Times New Roman,serif" font-size="34.00">●</text>
</g>
<!-- 1990980182736&#45;&gt;1990980185856 -->
<g id="edge1" class="edge">
<title>1990980182736&#45;&gt;1990980185856</title>
<path fill="none" stroke="black" d="M54.29,-171C61.67,-171 69.98,-171 78.32,-171"/>
<polygon fill="black" stroke="black" points="78.14,-174.5 88.14,-171 78.14,-167.5 78.14,-174.5"/>
</g>
<!-- 1990980175584&#45;&gt;1990980180768 -->
<g id="edge3" class="edge">
<title>1990980175584&#45;&gt;1990980180768</title>
<path fill="none" stroke="black" d="M264.51,-171C271.82,-171 280.1,-171 288.62,-171"/>
<polygon fill="black" stroke="black" points="288.38,-174.5 298.38,-171 288.38,-167.5 288.38,-174.5"/>
</g>
<!-- 1990980187248&#45;&gt;1990980176544 -->
<g id="edge5" class="edge">
<title>1990980187248&#45;&gt;1990980176544</title>
<path fill="none" stroke="black" d="M502.5,-171C509.77,-171 518.02,-171 526.53,-171"/>
<polygon fill="black" stroke="black" points="526.3,-174.5 536.3,-171 526.3,-167.5 526.3,-174.5"/>
</g>
<!-- 1990980182160&#45;&gt;1990980180720 -->
<g id="edge7" class="edge">
<title>1990980182160&#45;&gt;1990980180720</title>
<path fill="none" stroke="black" d="M745.79,-171C753.17,-171 761.52,-171 770.04,-171"/>
<polygon fill="black" stroke="black" points="769.77,-174.5 779.77,-171 769.77,-167.5 769.77,-174.5"/>
</g>
<!-- 1990980184560&#45;&gt;1990980187680 -->
<g id="edge9" class="edge">
<title>1990980184560&#45;&gt;1990980187680</title>
<path fill="none" stroke="black" d="M974.17,-171C981.45,-171 989.66,-171 998,-171"/>
<polygon fill="black" stroke="black" points="997.87,-174.5 1007.87,-171 997.87,-167.5 997.87,-174.5"/>
</g>
<!-- 1990980186288&#45;&gt;1990980356000 -->
<g id="edge11" class="edge">
<title>1990980186288&#45;&gt;1990980356000</title>
<path fill="none" stroke="black" d="M1196.5,-171C1203.85,-171 1212.11,-171 1220.44,-171"/>
<polygon fill="black" stroke="black" points="1220.25,-174.5 1230.25,-171 1220.25,-167.5 1220.25,-174.5"/>
</g>
<!-- 1990980363632&#45;&gt;1990980354608 -->
<g id="edge13" class="edge">
<title>1990980363632&#45;&gt;1990980354608</title>
<path fill="none" stroke="black" d="M1410.5,-171C1417.85,-171 1426.11,-171 1434.44,-171"/>
<polygon fill="black" stroke="black" points="1434.25,-174.5 1444.25,-171 1434.25,-167.5 1434.25,-174.5"/>
</g>
<!-- 1990980359072&#45;&gt;1990980356864 -->
<g id="edge15" class="edge">
<title>1990980359072&#45;&gt;1990980356864</title>
<path fill="none" stroke="black" d="M1624.47,-171C1631.84,-171 1640.04,-171 1648.05,-171"/>
<polygon fill="black" stroke="black" points="1648.04,-174.5 1658.04,-171 1648.04,-167.5 1648.04,-174.5"/>
</g>
<!-- 1990980367280&#45;&gt;1990980357872 -->
<g id="edge17" class="edge">
<title>1990980367280&#45;&gt;1990980357872</title>
<path fill="none" stroke="black" d="M1811.42,-171C1818.72,-171 1826.94,-171 1835.27,-171"/>
<polygon fill="black" stroke="black" points="1835.13,-174.5 1845.13,-171 1835.13,-167.5 1835.13,-174.5"/>
</g>
<!-- 1990980359024&#45;&gt;1990980363248 -->
<g id="edge19" class="edge">
<title>1990980359024&#45;&gt;1990980363248</title>
<path fill="none" stroke="black" d="M2031.31,-171C2038.62,-171 2046.88,-171 2055.31,-171"/>
<polygon fill="black" stroke="black" points="2055.31,-174.5 2065.31,-171 2055.31,-167.5 2055.31,-174.5"/>
</g>
<!-- 1990979480576&#45;&gt;1990979484656 -->
<g id="edge29" class="edge">
<title>1990979480576&#45;&gt;1990979484656</title>
<path fill="none" stroke="black" d="M2257.38,-314.3C2265.05,-314.09 2273.76,-313.86 2282.63,-313.62"/>
<polygon fill="black" stroke="black" points="2282.47,-317.13 2292.37,-313.36 2282.28,-310.13 2282.47,-317.13"/>
</g>
<!-- 1990980360464&#45;&gt;1990980354896 -->
<g id="edge27" class="edge">
<title>1990980360464&#45;&gt;1990980354896</title>
<path fill="none" stroke="black" d="M2257.38,-171C2268.12,-171 2280.9,-171 2293.29,-171"/>
<polygon fill="black" stroke="black" points="2292.98,-174.5 2302.98,-171 2292.98,-167.5 2292.98,-174.5"/>
</g>
<!-- 1990979476544&#45;&gt;1990979484320 -->
<g id="edge25" class="edge">
<title>1990979476544&#45;&gt;1990979484320</title>
<path fill="none" stroke="black" d="M2257.38,-99.23C2264.61,-99.3 2272.77,-99.37 2281.11,-99.45"/>
<polygon fill="black" stroke="black" points="2280.99,-102.94 2291.02,-99.53 2281.05,-95.94 2280.99,-102.94"/>
</g>
<!-- 1990980361184&#45;&gt;1990980360560 -->
<g id="edge26" class="edge">
<title>1990980361184&#45;&gt;1990980360560</title>
<path fill="none" stroke="black" d="M2257.38,-243C2266.53,-243 2277.18,-243 2287.8,-243"/>
<polygon fill="black" stroke="black" points="2287.73,-246.5 2297.73,-243 2287.73,-239.5 2287.73,-246.5"/>
</g>
<!-- 1990979475680&#45;&gt;1990979474432 -->
<g id="edge28" class="edge">
<title>1990979475680&#45;&gt;1990979474432</title>
<path fill="none" stroke="black" d="M2257.38,-29.58C2267.51,-30.57 2279.48,-31.74 2291.21,-32.89"/>
<polygon fill="black" stroke="black" points="2290.52,-36.34 2300.81,-33.83 2291.2,-29.37 2290.52,-36.34"/>
</g>
<!-- 1990980034176&#45;&gt;1990980354368 -->
<g id="edge36" class="edge">
<title>1990980034176&#45;&gt;1990980354368</title>
<path fill="none" stroke="black" d="M2486.39,-171C2493.65,-171 2501.83,-171 2510.17,-171"/>
<polygon fill="black" stroke="black" points="2510.07,-174.5 2520.07,-171 2510.07,-167.5 2510.07,-174.5"/>
</g>
<!-- 1990979481872&#45;&gt;1990980181200 -->
<g id="edge37" class="edge">
<title>1990979481872&#45;&gt;1990980181200</title>
<path fill="none" stroke="black" d="M2599.29,-110.15C2634.29,-117.1 2696.9,-129.54 2737.1,-137.52"/>
<polygon fill="black" stroke="black" points="2736.32,-140.94 2746.81,-139.45 2737.69,-134.07 2736.32,-140.94"/>
</g>
<!-- 1990979477264&#45;&gt;1990980181200 -->
<g id="edge35" class="edge">
<title>1990979477264&#45;&gt;1990980181200</title>
<path fill="none" stroke="black" d="M2598.41,-261.52C2627.41,-251.03 2675.93,-231.4 2712.75,-206 2726.81,-196.3 2740.56,-183.25 2751.52,-171.72"/>
<polygon fill="black" stroke="black" points="2754.08,-174.11 2758.29,-164.38 2748.93,-169.36 2754.08,-174.11"/>
</g>
<!-- 1990979480480&#45;&gt;1990980181200 -->
<g id="edge39" class="edge">
<title>1990979480480&#45;&gt;1990980181200</title>
<path fill="none" stroke="black" d="M2705.41,-74.09C2718.07,-87.03 2734.96,-104.3 2748.9,-118.56"/>
<polygon fill="black" stroke="black" points="2746.16,-120.77 2755.66,-125.47 2751.17,-115.88 2746.16,-120.77"/>
</g>
<!-- 1990980032160&#45;&gt;1990980354368 -->
<g id="edge38" class="edge">
<title>1990980032160&#45;&gt;1990980354368</title>
<path fill="none" stroke="black" d="M2482.27,-228.6C2496.81,-219.2 2516.17,-206.69 2533.13,-195.72"/>
<polygon fill="black" stroke="black" points="2535.02,-198.67 2541.52,-190.3 2531.22,-192.79 2535.02,-198.67"/>
</g>
<!-- 1990980359264&#45;&gt;1990980181200 -->
<g id="edge42" class="edge">
<title>1990980359264&#45;&gt;1990980181200</title>
<path fill="none" stroke="black" d="M2712.2,-162.77C2720.11,-160.52 2728.99,-158 2737.53,-155.57"/>
<polygon fill="black" stroke="black" points="2738.32,-158.99 2746.98,-152.89 2736.4,-152.26 2738.32,-158.99"/>
</g>
</g>
</svg>
