<?xml version="1.0" encoding="UTF-8" standalone="no"?>
<!DOCTYPE svg PUBLIC "-//W3C//DTD SVG 1.1//EN"
 "http://www.w3.org/Graphics/SVG/1.1/DTD/svg11.dtd">
<!-- Generated by graphviz version 11.0.0 (20240428.1522)
 -->
<!-- Title: imdf_net_1754052185.7179272 Pages: 1 -->
<svg width="3329pt" height="278pt"
 viewBox="0.00 0.00 3329.25 278.00" xmlns="http://www.w3.org/2000/svg" xmlns:xlink="http://www.w3.org/1999/xlink">
<g id="graph0" class="graph" transform="scale(1 1) rotate(0) translate(4 274)">
<title>imdf_net_1754052185.7179272</title>
<polygon fill="white" stroke="none" points="-4,4 -4,-274 3325.25,-274 3325.25,4 -4,4"/>
<!-- 1990979048640 -->
<g id="node1" class="node">
<title>1990979048640</title>
<polygon fill="white" stroke="black" points="174.25,-181 90,-181 90,-145 174.25,-145 174.25,-181"/>
<text text-anchor="middle" x="132.12" y="-157.97" font-family="Times New Roman,serif" font-size="12.00">Milk Sourcing</text>
</g>
<!-- 1990979044992 -->
<g id="node24" class="node">
<title>1990979044992</title>
<ellipse fill="white" stroke="black" cx="237.25" cy="-163" rx="27" ry="27"/>
</g>
<!-- 1990979048640&#45;&gt;1990979044992 -->
<g id="edge2" class="edge">
<title>1990979048640&#45;&gt;1990979044992</title>
<path fill="none" stroke="black" d="M174.48,-163C182.44,-163 190.74,-163 198.58,-163"/>
<polygon fill="black" stroke="black" points="198.5,-166.5 208.5,-163 198.5,-159.5 198.5,-166.5"/>
</g>
<!-- 1990979047920 -->
<g id="node2" class="node">
<title>1990979047920</title>
<polygon fill="white" stroke="black" points="385.25,-181 300.25,-181 300.25,-145 385.25,-145 385.25,-181"/>
<text text-anchor="middle" x="342.75" y="-157.97" font-family="Times New Roman,serif" font-size="12.00">Quality Check</text>
</g>
<!-- 1990979053104 -->
<g id="node25" class="node">
<title>1990979053104</title>
<ellipse fill="white" stroke="black" cx="448.25" cy="-163" rx="27" ry="27"/>
</g>
<!-- 1990979047920&#45;&gt;1990979053104 -->
<g id="edge4" class="edge">
<title>1990979047920&#45;&gt;1990979053104</title>
<path fill="none" stroke="black" d="M385.55,-163C393.45,-163 401.67,-163 409.43,-163"/>
<polygon fill="black" stroke="black" points="409.26,-166.5 419.26,-163 409.26,-159.5 409.26,-166.5"/>
</g>
<!-- 1990979057088 -->
<g id="node3" class="node">
<title>1990979057088</title>
<polygon fill="white" stroke="black" points="600.75,-181 511.25,-181 511.25,-145 600.75,-145 600.75,-181"/>
<text text-anchor="middle" x="556" y="-157.97" font-family="Times New Roman,serif" font-size="12.00">Milk Pasteurize</text>
</g>
<!-- 1990979054640 -->
<g id="node26" class="node">
<title>1990979054640</title>
<ellipse fill="white" stroke="black" cx="663.75" cy="-163" rx="27" ry="27"/>
</g>
<!-- 1990979057088&#45;&gt;1990979054640 -->
<g id="edge6" class="edge">
<title>1990979057088&#45;&gt;1990979054640</title>
<path fill="none" stroke="black" d="M601.23,-163C609.2,-163 617.44,-163 625.2,-163"/>
<polygon fill="black" stroke="black" points="624.99,-166.5 634.99,-163 624.99,-159.5 624.99,-166.5"/>
</g>
<!-- 1990979056464 -->
<g id="node4" class="node">
<title>1990979056464</title>
<polygon fill="white" stroke="black" points="802,-181 726.75,-181 726.75,-145 802,-145 802,-181"/>
<text text-anchor="middle" x="764.38" y="-157.97" font-family="Times New Roman,serif" font-size="12.00">Culture Add</text>
</g>
<!-- 1990979059008 -->
<g id="node27" class="node">
<title>1990979059008</title>
<ellipse fill="white" stroke="black" cx="865" cy="-163" rx="27" ry="27"/>
</g>
<!-- 1990979056464&#45;&gt;1990979059008 -->
<g id="edge8" class="edge">
<title>1990979056464&#45;&gt;1990979059008</title>
<path fill="none" stroke="black" d="M802.38,-163C810.15,-163 818.35,-163 826.15,-163"/>
<polygon fill="black" stroke="black" points="826.05,-166.5 836.05,-163 826.05,-159.5 826.05,-166.5"/>
</g>
<!-- 1990979053296 -->
<g id="node5" class="node">
<title>1990979053296</title>
<polygon fill="white" stroke="black" points="1017.5,-181 928,-181 928,-145 1017.5,-145 1017.5,-181"/>
<text text-anchor="middle" x="972.75" y="-157.97" font-family="Times New Roman,serif" font-size="12.00">Coagulate Milk</text>
</g>
<!-- 1990979281472 -->
<g id="node28" class="node">
<title>1990979281472</title>
<ellipse fill="white" stroke="black" cx="1080.5" cy="-163" rx="27" ry="27"/>
</g>
<!-- 1990979053296&#45;&gt;1990979281472 -->
<g id="edge10" class="edge">
<title>1990979053296&#45;&gt;1990979281472</title>
<path fill="none" stroke="black" d="M1017.98,-163C1025.95,-163 1034.19,-163 1041.95,-163"/>
<polygon fill="black" stroke="black" points="1041.74,-166.5 1051.74,-163 1041.74,-159.5 1041.74,-166.5"/>
</g>
<!-- 1990981090720 -->
<g id="node6" class="node">
<title>1990981090720</title>
<polygon fill="white" stroke="black" points="1208.25,-181 1143.5,-181 1143.5,-145 1208.25,-145 1208.25,-181"/>
<text text-anchor="middle" x="1175.88" y="-157.97" font-family="Times New Roman,serif" font-size="12.00">Cut Curds</text>
</g>
<!-- 1990981084480 -->
<g id="node29" class="node">
<title>1990981084480</title>
<ellipse fill="white" stroke="black" cx="1271.25" cy="-163" rx="27" ry="27"/>
</g>
<!-- 1990981090720&#45;&gt;1990981084480 -->
<g id="edge12" class="edge">
<title>1990981090720&#45;&gt;1990981084480</title>
<path fill="none" stroke="black" d="M1208.75,-163C1216.33,-163 1224.49,-163 1232.31,-163"/>
<polygon fill="black" stroke="black" points="1232.28,-166.5 1242.28,-163 1232.28,-159.5 1232.28,-166.5"/>
</g>
<!-- 1990977516752 -->
<g id="node7" class="node">
<title>1990977516752</title>
<polygon fill="white" stroke="black" points="1408.75,-181 1334.25,-181 1334.25,-145 1408.75,-145 1408.75,-181"/>
<text text-anchor="middle" x="1371.5" y="-157.97" font-family="Times New Roman,serif" font-size="12.00">Drain Whey</text>
</g>
<!-- 1990977506336 -->
<g id="node30" class="node">
<title>1990977506336</title>
<ellipse fill="white" stroke="black" cx="1471.75" cy="-163" rx="27" ry="27"/>
</g>
<!-- 1990977516752&#45;&gt;1990977506336 -->
<g id="edge14" class="edge">
<title>1990977516752&#45;&gt;1990977506336</title>
<path fill="none" stroke="black" d="M1409.08,-163C1416.84,-163 1425.04,-163 1432.84,-163"/>
<polygon fill="black" stroke="black" points="1432.75,-166.5 1442.75,-163 1432.75,-159.5 1432.75,-166.5"/>
</g>
<!-- 1990977510752 -->
<g id="node8" class="node">
<title>1990977510752</title>
<polygon fill="white" stroke="black" points="1604,-181 1534.75,-181 1534.75,-145 1604,-145 1604,-181"/>
<text text-anchor="middle" x="1569.38" y="-157.97" font-family="Times New Roman,serif" font-size="12.00">Mold Press</text>
</g>
<!-- 1990981965760 -->
<g id="node31" class="node">
<title>1990981965760</title>
<ellipse fill="white" stroke="black" cx="1667" cy="-163" rx="27" ry="27"/>
</g>
<!-- 1990977510752&#45;&gt;1990981965760 -->
<g id="edge16" class="edge">
<title>1990977510752&#45;&gt;1990981965760</title>
<path fill="none" stroke="black" d="M1604.36,-163C1612.06,-163 1620.28,-163 1628.13,-163"/>
<polygon fill="black" stroke="black" points="1628.13,-166.5 1638.13,-163 1628.13,-159.5 1628.13,-166.5"/>
</g>
<!-- 1990981531648 -->
<g id="node9" class="node">
<title>1990981531648</title>
<polygon fill="white" stroke="black" points="1803,-181 1730,-181 1730,-145 1803,-145 1803,-181"/>
<text text-anchor="middle" x="1766.5" y="-157.97" font-family="Times New Roman,serif" font-size="12.00">Salting Step</text>
</g>
<!-- 1990981533520 -->
<g id="node32" class="node">
<title>1990981533520</title>
<ellipse fill="white" stroke="black" cx="1866" cy="-163" rx="27" ry="27"/>
</g>
<!-- 1990981531648&#45;&gt;1990981533520 -->
<g id="edge18" class="edge">
<title>1990981531648&#45;&gt;1990981533520</title>
<path fill="none" stroke="black" d="M1803.25,-163C1811.14,-163 1819.52,-163 1827.47,-163"/>
<polygon fill="black" stroke="black" points="1827.21,-166.5 1837.21,-163 1827.21,-159.5 1827.21,-166.5"/>
</g>
<!-- 1990981529440 -->
<g id="node10" class="node">
<title>1990981529440</title>
<polygon fill="white" stroke="black" points="2002.75,-154 1929,-154 1929,-118 2002.75,-118 2002.75,-154"/>
<text text-anchor="middle" x="1965.88" y="-130.97" font-family="Times New Roman,serif" font-size="12.00">Cave Aging</text>
</g>
<!-- 1990981524640 -->
<g id="node33" class="node">
<title>1990981524640</title>
<ellipse fill="white" stroke="black" cx="2065.75" cy="-135" rx="27" ry="27"/>
</g>
<!-- 1990981529440&#45;&gt;1990981524640 -->
<g id="edge20" class="edge">
<title>1990981529440&#45;&gt;1990981524640</title>
<path fill="none" stroke="black" d="M2003.04,-135.63C2010.94,-135.55 2019.33,-135.46 2027.28,-135.38"/>
<polygon fill="black" stroke="black" points="2027.04,-138.89 2037,-135.28 2026.97,-131.89 2027.04,-138.89"/>
</g>
<!-- 1990981532032 -->
<g id="node11" class="node">
<title>1990981532032</title>
<polygon fill="white" stroke="black" points="2214.12,-207 2136.62,-207 2136.62,-171 2214.12,-171 2214.12,-207"/>
<text text-anchor="middle" x="2175.38" y="-183.97" font-family="Times New Roman,serif" font-size="12.00">Sensory Test</text>
</g>
<!-- 1990981532032&#45;&gt;1990981533520 -->
<g id="edge23" class="edge">
<title>1990981532032&#45;&gt;1990981533520</title>
<path fill="none" stroke="black" d="M2136.2,-185.77C2076.92,-180.76 1963.47,-171.16 1904.57,-166.18"/>
<polygon fill="black" stroke="black" points="1904.97,-162.7 1894.71,-165.34 1904.38,-169.67 1904.97,-162.7"/>
</g>
<!-- 1990978922752 -->
<g id="node12" class="node">
<title>1990978922752</title>
<polygon fill="white" stroke="black" points="2222,-153 2128.75,-153 2128.75,-117 2222,-117 2222,-153"/>
<text text-anchor="middle" x="2175.38" y="-129.97" font-family="Times New Roman,serif" font-size="12.00">Package Cheese</text>
</g>
<!-- 1990977249328 -->
<g id="node34" class="node">
<title>1990977249328</title>
<ellipse fill="white" stroke="black" cx="2285" cy="-135" rx="27" ry="27"/>
</g>
<!-- 1990978922752&#45;&gt;1990977249328 -->
<g id="edge24" class="edge">
<title>1990978922752&#45;&gt;1990977249328</title>
<path fill="none" stroke="black" d="M2222.33,-135C2230.37,-135 2238.66,-135 2246.44,-135"/>
<polygon fill="black" stroke="black" points="2246.26,-138.5 2256.26,-135 2246.26,-131.5 2246.26,-138.5"/>
</g>
<!-- 1990979170432 -->
<g id="node13" class="node">
<title>1990979170432</title>
<polygon fill="white" stroke="black" points="2437.5,-184 2348,-184 2348,-148 2437.5,-148 2437.5,-184"/>
<text text-anchor="middle" x="2392.75" y="-160.97" font-family="Times New Roman,serif" font-size="12.00">Route Planning</text>
</g>
<!-- 1990979170912 -->
<g id="node36" class="node">
<title>1990979170912</title>
<ellipse fill="white" stroke="black" cx="2500.5" cy="-171" rx="27" ry="27"/>
</g>
<!-- 1990979170432&#45;&gt;1990979170912 -->
<g id="edge27" class="edge">
<title>1990979170432&#45;&gt;1990979170912</title>
<path fill="none" stroke="black" d="M2437.98,-168.09C2445.95,-168.47 2454.19,-168.86 2461.95,-169.22"/>
<polygon fill="black" stroke="black" points="2461.58,-172.71 2471.74,-169.69 2461.91,-165.72 2461.58,-172.71"/>
</g>
<!-- 1990980632656 -->
<g id="node14" class="node">
<title>1990980632656</title>
<polygon fill="white" stroke="black" points="2437.5,-126 2348,-126 2348,-90 2437.5,-90 2437.5,-126"/>
<text text-anchor="middle" x="2392.75" y="-102.97" font-family="Times New Roman,serif" font-size="12.00">Route Planning</text>
</g>
<!-- 1990979054544 -->
<g id="node35" class="node">
<title>1990979054544</title>
<ellipse fill="white" stroke="black" cx="2500.5" cy="-99" rx="27" ry="27"/>
</g>
<!-- 1990980632656&#45;&gt;1990979054544 -->
<g id="edge28" class="edge">
<title>1990980632656&#45;&gt;1990979054544</title>
<path fill="none" stroke="black" d="M2437.98,-104.24C2445.95,-103.56 2454.19,-102.86 2461.95,-102.2"/>
<polygon fill="black" stroke="black" points="2462.07,-105.7 2471.74,-101.36 2461.48,-98.72 2462.07,-105.7"/>
</g>
<!-- 1990979167360 -->
<g id="node15" class="node">
<title>1990979167360</title>
<polygon fill="white" stroke="black" points="2638.75,-126 2563.5,-126 2563.5,-90 2638.75,-90 2638.75,-126"/>
<text text-anchor="middle" x="2601.12" y="-102.97" font-family="Times New Roman,serif" font-size="12.00">Order Fulfill</text>
</g>
<!-- 1990977248032 -->
<g id="node37" class="node">
<title>1990977248032</title>
<ellipse fill="white" stroke="black" cx="2701.75" cy="-135" rx="27" ry="27"/>
</g>
<!-- 1990979167360&#45;&gt;1990977248032 -->
<g id="edge31" class="edge">
<title>1990979167360&#45;&gt;1990977248032</title>
<path fill="none" stroke="black" d="M2639.13,-118.13C2647.3,-120.37 2655.96,-122.74 2664.12,-124.97"/>
<polygon fill="black" stroke="black" points="2663.19,-128.35 2673.76,-127.61 2665.04,-121.59 2663.19,-128.35"/>
</g>
<!-- 1990979168320 -->
<g id="node16" class="node">
<title>1990979168320</title>
<polygon fill="white" stroke="black" points="2638.75,-184 2563.5,-184 2563.5,-148 2638.75,-148 2638.75,-184"/>
<text text-anchor="middle" x="2601.12" y="-160.97" font-family="Times New Roman,serif" font-size="12.00">Order Fulfill</text>
</g>
<!-- 1990979168320&#45;&gt;1990977248032 -->
<g id="edge32" class="edge">
<title>1990979168320&#45;&gt;1990977248032</title>
<path fill="none" stroke="black" d="M2639.13,-154.37C2647.47,-151.75 2656.32,-148.97 2664.62,-146.36"/>
<polygon fill="black" stroke="black" points="2665.58,-149.72 2674.07,-143.39 2663.48,-143.04 2665.58,-149.72"/>
</g>
<!-- 1990977253024 -->
<g id="node17" class="node">
<title>1990977253024</title>
<polygon fill="black" stroke="black" points="2818.75,-153 2764.75,-153 2764.75,-117 2818.75,-117 2818.75,-153"/>
</g>
<!-- 1990979164960 -->
<g id="node38" class="node">
<title>1990979164960</title>
<ellipse fill="white" stroke="black" cx="2881.75" cy="-243" rx="27" ry="27"/>
</g>
<!-- 1990977253024&#45;&gt;1990979164960 -->
<g id="edge37" class="edge">
<title>1990977253024&#45;&gt;1990979164960</title>
<path fill="none" stroke="black" d="M2807.68,-153.32C2821.14,-169.84 2841.17,-194.43 2856.86,-213.68"/>
<polygon fill="black" stroke="black" points="2853.96,-215.66 2862.99,-221.2 2859.38,-211.24 2853.96,-215.66"/>
</g>
<!-- 1990976048592 -->
<g id="node39" class="node">
<title>1990976048592</title>
<ellipse fill="white" stroke="black" cx="2881.75" cy="-171" rx="27" ry="27"/>
</g>
<!-- 1990977253024&#45;&gt;1990976048592 -->
<g id="edge36" class="edge">
<title>1990977253024&#45;&gt;1990976048592</title>
<path fill="none" stroke="black" d="M2819.15,-145.8C2827.5,-149.22 2836.87,-153.05 2845.72,-156.67"/>
<polygon fill="black" stroke="black" points="2844.19,-159.83 2854.77,-160.37 2846.84,-153.35 2844.19,-159.83"/>
</g>
<!-- 1990976058336 -->
<g id="node40" class="node">
<title>1990976058336</title>
<ellipse fill="white" stroke="black" cx="2881.75" cy="-99" rx="27" ry="27"/>
</g>
<!-- 1990977253024&#45;&gt;1990976058336 -->
<g id="edge34" class="edge">
<title>1990977253024&#45;&gt;1990976058336</title>
<path fill="none" stroke="black" d="M2819.15,-124.2C2827.5,-120.78 2836.87,-116.95 2845.72,-113.33"/>
<polygon fill="black" stroke="black" points="2846.84,-116.65 2854.77,-109.63 2844.19,-110.17 2846.84,-116.65"/>
</g>
<!-- 1990976052192 -->
<g id="node41" class="node">
<title>1990976052192</title>
<ellipse fill="white" stroke="black" cx="2881.75" cy="-27" rx="27" ry="27"/>
</g>
<!-- 1990977253024&#45;&gt;1990976052192 -->
<g id="edge35" class="edge">
<title>1990977253024&#45;&gt;1990976052192</title>
<path fill="none" stroke="black" d="M2807.68,-116.68C2821.14,-100.16 2841.17,-75.57 2856.86,-56.32"/>
<polygon fill="black" stroke="black" points="2859.38,-58.76 2862.99,-48.8 2853.96,-54.34 2859.38,-58.76"/>
</g>
<!-- 1990979168176 -->
<g id="node18" class="node">
<title>1990979168176</title>
<polygon fill="white" stroke="black" points="3033.88,-261 2954.12,-261 2954.12,-225 3033.88,-225 3033.88,-261"/>
<text text-anchor="middle" x="2994" y="-237.97" font-family="Times New Roman,serif" font-size="12.00">Label Design</text>
</g>
<!-- 1990979169136 -->
<g id="node42" class="node">
<title>1990979169136</title>
<ellipse fill="white" stroke="black" cx="3106.25" cy="-243" rx="27" ry="27"/>
</g>
<!-- 1990979168176&#45;&gt;1990979169136 -->
<g id="edge44" class="edge">
<title>1990979168176&#45;&gt;1990979169136</title>
<path fill="none" stroke="black" d="M3034.18,-243C3045.09,-243 3056.91,-243 3067.72,-243"/>
<polygon fill="black" stroke="black" points="3067.45,-246.5 3077.45,-243 3067.45,-239.5 3067.45,-246.5"/>
</g>
<!-- 1990976057136 -->
<g id="node19" class="node">
<title>1990976057136</title>
<polygon fill="white" stroke="black" points="3036.5,-117 2951.5,-117 2951.5,-81 3036.5,-81 3036.5,-117"/>
<text text-anchor="middle" x="2994" y="-93.97" font-family="Times New Roman,serif" font-size="12.00">Event Manage</text>
</g>
<!-- 1990979158768 -->
<g id="node43" class="node">
<title>1990979158768</title>
<ellipse fill="white" stroke="black" cx="3106.25" cy="-99" rx="27" ry="27"/>
</g>
<!-- 1990976057136&#45;&gt;1990979158768 -->
<g id="edge42" class="edge">
<title>1990976057136&#45;&gt;1990979158768</title>
<path fill="none" stroke="black" d="M3037,-99C3047.03,-99 3057.69,-99 3067.52,-99"/>
<polygon fill="black" stroke="black" points="3067.49,-102.5 3077.49,-99 3067.49,-95.5 3067.49,-102.5"/>
</g>
<!-- 1990976048832 -->
<g id="node20" class="node">
<title>1990976048832</title>
<polygon fill="white" stroke="black" points="3043.25,-45 2944.75,-45 2944.75,-9 3043.25,-9 3043.25,-45"/>
<text text-anchor="middle" x="2994" y="-21.98" font-family="Times New Roman,serif" font-size="12.00">Customer Survey</text>
</g>
<!-- 1990976053872 -->
<g id="node44" class="node">
<title>1990976053872</title>
<ellipse fill="white" stroke="black" cx="3106.25" cy="-27" rx="27" ry="27"/>
</g>
<!-- 1990976048832&#45;&gt;1990976053872 -->
<g id="edge43" class="edge">
<title>1990976048832&#45;&gt;1990976053872</title>
<path fill="none" stroke="black" d="M3043.68,-27C3051.63,-27 3059.76,-27 3067.4,-27"/>
<polygon fill="black" stroke="black" points="3067.39,-30.5 3077.39,-27 3067.39,-23.5 3067.39,-30.5"/>
</g>
<!-- 1990976050800 -->
<g id="node21" class="node">
<title>1990976050800</title>
<polygon fill="white" stroke="black" points="3033.88,-189 2954.12,-189 2954.12,-153 3033.88,-153 3033.88,-189"/>
<text text-anchor="middle" x="2994" y="-165.97" font-family="Times New Roman,serif" font-size="12.00">Supply Audit</text>
</g>
<!-- 1990976053488 -->
<g id="node45" class="node">
<title>1990976053488</title>
<ellipse fill="white" stroke="black" cx="3106.25" cy="-171" rx="27" ry="27"/>
</g>
<!-- 1990976050800&#45;&gt;1990976053488 -->
<g id="edge45" class="edge">
<title>1990976050800&#45;&gt;1990976053488</title>
<path fill="none" stroke="black" d="M3034.18,-171C3045.09,-171 3056.91,-171 3067.72,-171"/>
<polygon fill="black" stroke="black" points="3067.45,-174.5 3077.45,-171 3067.45,-167.5 3067.45,-174.5"/>
</g>
<!-- 1990971351760 -->
<g id="node22" class="node">
<title>1990971351760</title>
<polygon fill="black" stroke="black" points="3223.25,-153 3169.25,-153 3169.25,-117 3223.25,-117 3223.25,-153"/>
</g>
<!-- 1990971223088 -->
<g id="node46" class="node">
<title>1990971223088</title>
<ellipse fill="white" stroke="black" cx="3290.25" cy="-135" rx="27" ry="27"/>
<ellipse fill="none" stroke="black" cx="3290.25" cy="-135" rx="31" ry="31"/>
<text text-anchor="start" x="3273.75" y="-119.6" font-family="Times New Roman,serif" font-size="32.00">■</text>
</g>
<!-- 1990971351760&#45;&gt;1990971223088 -->
<g id="edge50" class="edge">
<title>1990971351760&#45;&gt;1990971223088</title>
<path fill="none" stroke="black" d="M3223.37,-135C3230.88,-135 3239.26,-135 3247.47,-135"/>
<polygon fill="black" stroke="black" points="3247.33,-138.5 3257.33,-135 3247.33,-131.5 3247.33,-138.5"/>
</g>
<!-- 1990978980176 -->
<g id="node23" class="node">
<title>1990978980176</title>
<ellipse fill="white" stroke="black" cx="27" cy="-163" rx="27" ry="27"/>
<text text-anchor="start" x="9.75" y="-145.7" font-family="Times New Roman,serif" font-size="34.00">●</text>
</g>
<!-- 1990978980176&#45;&gt;1990979048640 -->
<g id="edge1" class="edge">
<title>1990978980176&#45;&gt;1990979048640</title>
<path fill="none" stroke="black" d="M54.29,-163C61.67,-163 69.98,-163 78.32,-163"/>
<polygon fill="black" stroke="black" points="78.14,-166.5 88.14,-163 78.14,-159.5 78.14,-166.5"/>
</g>
<!-- 1990979044992&#45;&gt;1990979047920 -->
<g id="edge3" class="edge">
<title>1990979044992&#45;&gt;1990979047920</title>
<path fill="none" stroke="black" d="M264.64,-163C272.05,-163 280.38,-163 288.76,-163"/>
<polygon fill="black" stroke="black" points="288.61,-166.5 298.61,-163 288.61,-159.5 288.61,-166.5"/>
</g>
<!-- 1990979053104&#45;&gt;1990979057088 -->
<g id="edge5" class="edge">
<title>1990979053104&#45;&gt;1990979057088</title>
<path fill="none" stroke="black" d="M475.66,-163C482.98,-163 491.21,-163 499.53,-163"/>
<polygon fill="black" stroke="black" points="499.33,-166.5 509.33,-163 499.33,-159.5 499.33,-166.5"/>
</g>
<!-- 1990979054640&#45;&gt;1990979056464 -->
<g id="edge7" class="edge">
<title>1990979054640&#45;&gt;1990979056464</title>
<path fill="none" stroke="black" d="M691.18,-163C698.55,-163 706.79,-163 715,-163"/>
<polygon fill="black" stroke="black" points="714.98,-166.5 724.98,-163 714.98,-159.5 714.98,-166.5"/>
</g>
<!-- 1990979059008&#45;&gt;1990979053296 -->
<g id="edge9" class="edge">
<title>1990979059008&#45;&gt;1990979053296</title>
<path fill="none" stroke="black" d="M892.41,-163C899.73,-163 907.96,-163 916.28,-163"/>
<polygon fill="black" stroke="black" points="916.08,-166.5 926.08,-163 916.08,-159.5 916.08,-166.5"/>
</g>
<!-- 1990979281472&#45;&gt;1990981090720 -->
<g id="edge11" class="edge">
<title>1990979281472&#45;&gt;1990981090720</title>
<path fill="none" stroke="black" d="M1107.51,-163C1114.99,-163 1123.36,-163 1131.59,-163"/>
<polygon fill="black" stroke="black" points="1131.51,-166.5 1141.51,-163 1131.51,-159.5 1131.51,-166.5"/>
</g>
<!-- 1990981084480&#45;&gt;1990977516752 -->
<g id="edge13" class="edge">
<title>1990981084480&#45;&gt;1990977516752</title>
<path fill="none" stroke="black" d="M1298.58,-163C1305.92,-163 1314.13,-163 1322.31,-163"/>
<polygon fill="black" stroke="black" points="1322.24,-166.5 1332.24,-163 1322.24,-159.5 1322.24,-166.5"/>
</g>
<!-- 1990977506336&#45;&gt;1990977510752 -->
<g id="edge15" class="edge">
<title>1990977506336&#45;&gt;1990977510752</title>
<path fill="none" stroke="black" d="M1499.13,-163C1506.57,-163 1514.89,-163 1523.1,-163"/>
<polygon fill="black" stroke="black" points="1523.03,-166.5 1533.03,-163 1523.03,-159.5 1523.03,-166.5"/>
</g>
<!-- 1990981965760&#45;&gt;1990981531648 -->
<g id="edge17" class="edge">
<title>1990981965760&#45;&gt;1990981531648</title>
<path fill="none" stroke="black" d="M1694.38,-163C1701.74,-163 1709.97,-163 1718.15,-163"/>
<polygon fill="black" stroke="black" points="1718.06,-166.5 1728.06,-163 1718.06,-159.5 1718.06,-166.5"/>
</g>
<!-- 1990981533520&#45;&gt;1990981529440 -->
<g id="edge19" class="edge">
<title>1990981533520&#45;&gt;1990981529440</title>
<path fill="none" stroke="black" d="M1892.46,-155.98C1900.27,-153.82 1909.12,-151.38 1917.88,-148.96"/>
<polygon fill="black" stroke="black" points="1918.69,-152.37 1927.4,-146.34 1916.83,-145.62 1918.69,-152.37"/>
</g>
<!-- 1990981524640&#45;&gt;1990981532032 -->
<g id="edge22" class="edge">
<title>1990981524640&#45;&gt;1990981532032</title>
<path fill="none" stroke="black" d="M2090.37,-146.85C2101.31,-152.34 2114.7,-159.06 2127.56,-165.51"/>
<polygon fill="black" stroke="black" points="2125.83,-168.56 2136.34,-169.92 2128.97,-162.3 2125.83,-168.56"/>
</g>
<!-- 1990981524640&#45;&gt;1990978922752 -->
<g id="edge21" class="edge">
<title>1990981524640&#45;&gt;1990978922752</title>
<path fill="none" stroke="black" d="M2093.08,-135C2100.44,-135 2108.73,-135 2117.14,-135"/>
<polygon fill="black" stroke="black" points="2117.08,-138.5 2127.08,-135 2117.08,-131.5 2117.08,-138.5"/>
</g>
<!-- 1990977249328&#45;&gt;1990979170432 -->
<g id="edge25" class="edge">
<title>1990977249328&#45;&gt;1990979170432</title>
<path fill="none" stroke="black" d="M2311.33,-142.43C2319.06,-144.69 2327.89,-147.28 2336.79,-149.89"/>
<polygon fill="black" stroke="black" points="2335.58,-153.18 2346.16,-152.64 2337.55,-146.47 2335.58,-153.18"/>
</g>
<!-- 1990977249328&#45;&gt;1990980632656 -->
<g id="edge26" class="edge">
<title>1990977249328&#45;&gt;1990980632656</title>
<path fill="none" stroke="black" d="M2311.6,-128.46C2319.25,-126.51 2327.95,-124.29 2336.73,-122.05"/>
<polygon fill="black" stroke="black" points="2337.53,-125.46 2346.35,-119.59 2335.79,-118.67 2337.53,-125.46"/>
</g>
<!-- 1990979054544&#45;&gt;1990979167360 -->
<g id="edge30" class="edge">
<title>1990979054544&#45;&gt;1990979167360</title>
<path fill="none" stroke="black" d="M2527.67,-101.39C2535.13,-102.07 2543.49,-102.83 2551.82,-103.59"/>
<polygon fill="black" stroke="black" points="2551.28,-107.06 2561.56,-104.48 2551.92,-100.09 2551.28,-107.06"/>
</g>
<!-- 1990979170912&#45;&gt;1990979168320 -->
<g id="edge29" class="edge">
<title>1990979170912&#45;&gt;1990979168320</title>
<path fill="none" stroke="black" d="M2527.93,-169.66C2535.3,-169.29 2543.54,-168.87 2551.75,-168.45"/>
<polygon fill="black" stroke="black" points="2551.92,-171.95 2561.73,-167.95 2551.56,-164.96 2551.92,-171.95"/>
</g>
<!-- 1990977248032&#45;&gt;1990977253024 -->
<g id="edge33" class="edge">
<title>1990977248032&#45;&gt;1990977253024</title>
<path fill="none" stroke="black" d="M2729.15,-135C2736.64,-135 2744.93,-135 2752.95,-135"/>
<polygon fill="black" stroke="black" points="2752.85,-138.5 2762.85,-135 2752.85,-131.5 2752.85,-138.5"/>
</g>
<!-- 1990979164960&#45;&gt;1990979168176 -->
<g id="edge39" class="edge">
<title>1990979164960&#45;&gt;1990979168176</title>
<path fill="none" stroke="black" d="M2909.16,-243C2919.19,-243 2930.99,-243 2942.51,-243"/>
<polygon fill="black" stroke="black" points="2942.35,-246.5 2952.35,-243 2942.35,-239.5 2942.35,-246.5"/>
</g>
<!-- 1990976048592&#45;&gt;1990976050800 -->
<g id="edge38" class="edge">
<title>1990976048592&#45;&gt;1990976050800</title>
<path fill="none" stroke="black" d="M2909.16,-171C2919.19,-171 2930.99,-171 2942.51,-171"/>
<polygon fill="black" stroke="black" points="2942.35,-174.5 2952.35,-171 2942.35,-167.5 2942.35,-174.5"/>
</g>
<!-- 1990976058336&#45;&gt;1990976057136 -->
<g id="edge41" class="edge">
<title>1990976058336&#45;&gt;1990976057136</title>
<path fill="none" stroke="black" d="M2909.16,-99C2918.42,-99 2929.18,-99 2939.85,-99"/>
<polygon fill="black" stroke="black" points="2939.79,-102.5 2949.79,-99 2939.79,-95.5 2939.79,-102.5"/>
</g>
<!-- 1990976052192&#45;&gt;1990976048832 -->
<g id="edge40" class="edge">
<title>1990976052192&#45;&gt;1990976048832</title>
<path fill="none" stroke="black" d="M2909.16,-27C2916.43,-27 2924.62,-27 2932.97,-27"/>
<polygon fill="black" stroke="black" points="2932.86,-30.5 2942.86,-27 2932.86,-23.5 2932.86,-30.5"/>
</g>
<!-- 1990979169136&#45;&gt;1990971351760 -->
<g id="edge47" class="edge">
<title>1990979169136&#45;&gt;1990971351760</title>
<path fill="none" stroke="black" d="M3124.01,-222.43C3137.92,-205.36 3157.81,-180.95 3173.04,-162.26"/>
<polygon fill="black" stroke="black" points="3175.75,-164.47 3179.36,-154.51 3170.33,-160.05 3175.75,-164.47"/>
</g>
<!-- 1990979158768&#45;&gt;1990971351760 -->
<g id="edge49" class="edge">
<title>1990979158768&#45;&gt;1990971351760</title>
<path fill="none" stroke="black" d="M3131.76,-109.03C3140.01,-112.4 3149.39,-116.24 3158.37,-119.91"/>
<polygon fill="black" stroke="black" points="3157.04,-123.15 3167.62,-123.7 3159.69,-116.67 3157.04,-123.15"/>
</g>
<!-- 1990976053872&#45;&gt;1990971351760 -->
<g id="edge46" class="edge">
<title>1990976053872&#45;&gt;1990971351760</title>
<path fill="none" stroke="black" d="M3124.01,-47.57C3137.92,-64.64 3157.81,-89.05 3173.04,-107.74"/>
<polygon fill="black" stroke="black" points="3170.33,-109.95 3179.36,-115.49 3175.75,-105.53 3170.33,-109.95"/>
</g>
<!-- 1990976053488&#45;&gt;1990971351760 -->
<g id="edge48" class="edge">
<title>1990976053488&#45;&gt;1990971351760</title>
<path fill="none" stroke="black" d="M3131.76,-160.97C3140.01,-157.6 3149.39,-153.76 3158.37,-150.09"/>
<polygon fill="black" stroke="black" points="3159.69,-153.33 3167.62,-146.3 3157.04,-146.85 3159.69,-153.33"/>
</g>
</g>
</svg>
