<?xml version="1.0" encoding="UTF-8" standalone="no"?>
<!DOCTYPE svg PUBLIC "-//W3C//DTD SVG 1.1//EN"
 "http://www.w3.org/Graphics/SVG/1.1/DTD/svg11.dtd">
<!-- Generated by graphviz version 11.0.0 (20240428.1522)
 -->
<!-- Title: imdf_net_1754052163.7348654 Pages: 1 -->
<svg width="3356pt" height="111pt"
 viewBox="0.00 0.00 3355.75 111.00" xmlns="http://www.w3.org/2000/svg" xmlns:xlink="http://www.w3.org/1999/xlink">
<g id="graph0" class="graph" transform="scale(1 1) rotate(0) translate(4 107)">
<title>imdf_net_1754052163.7348654</title>
<polygon fill="white" stroke="none" points="-4,4 -4,-107 3351.75,-107 3351.75,4 -4,4"/>
<!-- 1990980513968 -->
<g id="node1" class="node">
<title>1990980513968</title>
<polygon fill="white" stroke="black" points="160.75,-77 90,-77 90,-41 160.75,-41 160.75,-77"/>
<text text-anchor="middle" x="125.38" y="-53.98" font-family="Times New Roman,serif" font-size="12.00">Site Survey</text>
</g>
<!-- 1990980515120 -->
<g id="node19" class="node">
<title>1990980515120</title>
<ellipse fill="white" stroke="black" cx="223.75" cy="-59" rx="27" ry="27"/>
</g>
<!-- 1990980513968&#45;&gt;1990980515120 -->
<g id="edge2" class="edge">
<title>1990980513968&#45;&gt;1990980515120</title>
<path fill="none" stroke="black" d="M161.17,-59C168.9,-59 177.14,-59 184.98,-59"/>
<polygon fill="black" stroke="black" points="184.97,-62.5 194.97,-59 184.97,-55.5 184.97,-62.5"/>
</g>
<!-- 1990980506096 -->
<g id="node2" class="node">
<title>1990980506096</title>
<polygon fill="white" stroke="black" points="373.25,-77 286.75,-77 286.75,-41 373.25,-41 373.25,-77"/>
<text text-anchor="middle" x="330" y="-53.98" font-family="Times New Roman,serif" font-size="12.00">Design Layout</text>
</g>
<!-- 1990980515600 -->
<g id="node20" class="node">
<title>1990980515600</title>
<ellipse fill="white" stroke="black" cx="436.25" cy="-59" rx="27" ry="27"/>
</g>
<!-- 1990980506096&#45;&gt;1990980515600 -->
<g id="edge4" class="edge">
<title>1990980506096&#45;&gt;1990980515600</title>
<path fill="none" stroke="black" d="M373.7,-59C381.62,-59 389.84,-59 397.59,-59"/>
<polygon fill="black" stroke="black" points="397.39,-62.5 407.39,-59 397.39,-55.5 397.39,-62.5"/>
</g>
<!-- 1990980507632 -->
<g id="node3" class="node">
<title>1990980507632</title>
<polygon fill="white" stroke="black" points="579,-77 499.25,-77 499.25,-41 579,-41 579,-77"/>
<text text-anchor="middle" x="539.12" y="-53.98" font-family="Times New Roman,serif" font-size="12.00">System Build</text>
</g>
<!-- 1990980515360 -->
<g id="node21" class="node">
<title>1990980515360</title>
<ellipse fill="white" stroke="black" cx="642" cy="-59" rx="27" ry="27"/>
</g>
<!-- 1990980507632&#45;&gt;1990980515360 -->
<g id="edge6" class="edge">
<title>1990980507632&#45;&gt;1990980515360</title>
<path fill="none" stroke="black" d="M579.41,-59C587.28,-59 595.52,-59 603.32,-59"/>
<polygon fill="black" stroke="black" points="603.22,-62.5 613.22,-59 603.22,-55.5 603.22,-62.5"/>
</g>
<!-- 1990980510848 -->
<g id="node4" class="node">
<title>1990980510848</title>
<polygon fill="white" stroke="black" points="787.75,-77 705,-77 705,-41 787.75,-41 787.75,-77"/>
<text text-anchor="middle" x="746.38" y="-53.98" font-family="Times New Roman,serif" font-size="12.00">Climate Setup</text>
</g>
<!-- 1990980503120 -->
<g id="node22" class="node">
<title>1990980503120</title>
<ellipse fill="white" stroke="black" cx="850.75" cy="-59" rx="27" ry="27"/>
</g>
<!-- 1990980510848&#45;&gt;1990980503120 -->
<g id="edge8" class="edge">
<title>1990980510848&#45;&gt;1990980503120</title>
<path fill="none" stroke="black" d="M788.13,-59C795.98,-59 804.17,-59 811.92,-59"/>
<polygon fill="black" stroke="black" points="811.74,-62.5 821.74,-59 811.74,-55.5 811.74,-62.5"/>
</g>
<!-- 1990980516800 -->
<g id="node5" class="node">
<title>1990980516800</title>
<polygon fill="white" stroke="black" points="985.25,-77 913.75,-77 913.75,-41 985.25,-41 985.25,-77"/>
<text text-anchor="middle" x="949.5" y="-53.98" font-family="Times New Roman,serif" font-size="12.00">Crop Select</text>
</g>
<!-- 1990980503696 -->
<g id="node23" class="node">
<title>1990980503696</title>
<ellipse fill="white" stroke="black" cx="1048.25" cy="-59" rx="27" ry="27"/>
</g>
<!-- 1990980516800&#45;&gt;1990980503696 -->
<g id="edge10" class="edge">
<title>1990980516800&#45;&gt;1990980503696</title>
<path fill="none" stroke="black" d="M985.7,-59C993.45,-59 1001.69,-59 1009.54,-59"/>
<polygon fill="black" stroke="black" points="1009.51,-62.5 1019.51,-59 1009.51,-55.5 1009.51,-62.5"/>
</g>
<!-- 1990980517760 -->
<g id="node6" class="node">
<title>1990980517760</title>
<polygon fill="white" stroke="black" points="1188.75,-77 1111.25,-77 1111.25,-41 1188.75,-41 1188.75,-77"/>
<text text-anchor="middle" x="1150" y="-53.98" font-family="Times New Roman,serif" font-size="12.00">Nutrient Mix</text>
</g>
<!-- 1990980508592 -->
<g id="node24" class="node">
<title>1990980508592</title>
<ellipse fill="white" stroke="black" cx="1251.75" cy="-59" rx="27" ry="27"/>
</g>
<!-- 1990980517760&#45;&gt;1990980508592 -->
<g id="edge12" class="edge">
<title>1990980517760&#45;&gt;1990980508592</title>
<path fill="none" stroke="black" d="M1189,-59C1196.82,-59 1205.06,-59 1212.88,-59"/>
<polygon fill="black" stroke="black" points="1212.8,-62.5 1222.8,-59 1212.8,-55.5 1212.8,-62.5"/>
</g>
<!-- 1990980510464 -->
<g id="node7" class="node">
<title>1990980510464</title>
<polygon fill="white" stroke="black" points="1399,-77 1314.75,-77 1314.75,-41 1399,-41 1399,-77"/>
<text text-anchor="middle" x="1356.88" y="-53.98" font-family="Times New Roman,serif" font-size="12.00">Install Sensors</text>
</g>
<!-- 1990980514976 -->
<g id="node25" class="node">
<title>1990980514976</title>
<ellipse fill="white" stroke="black" cx="1462" cy="-59" rx="27" ry="27"/>
</g>
<!-- 1990980510464&#45;&gt;1990980514976 -->
<g id="edge14" class="edge">
<title>1990980510464&#45;&gt;1990980514976</title>
<path fill="none" stroke="black" d="M1399.23,-59C1407.19,-59 1415.49,-59 1423.33,-59"/>
<polygon fill="black" stroke="black" points="1423.25,-62.5 1433.25,-59 1423.25,-55.5 1423.25,-62.5"/>
</g>
<!-- 1990980509792 -->
<g id="node8" class="node">
<title>1990980509792</title>
<polygon fill="white" stroke="black" points="1631,-77 1525,-77 1525,-41 1631,-41 1631,-77"/>
<text text-anchor="middle" x="1578" y="-53.98" font-family="Times New Roman,serif" font-size="12.00">Automate Controls</text>
</g>
<!-- 1990975880224 -->
<g id="node26" class="node">
<title>1990975880224</title>
<ellipse fill="white" stroke="black" cx="1694" cy="-59" rx="27" ry="27"/>
</g>
<!-- 1990980509792&#45;&gt;1990975880224 -->
<g id="edge16" class="edge">
<title>1990980509792&#45;&gt;1990975880224</title>
<path fill="none" stroke="black" d="M1631.33,-59C1639.49,-59 1647.78,-59 1655.53,-59"/>
<polygon fill="black" stroke="black" points="1655.26,-62.5 1665.26,-59 1655.26,-55.5 1655.26,-62.5"/>
</g>
<!-- 1990975877248 -->
<g id="node9" class="node">
<title>1990975877248</title>
<polygon fill="white" stroke="black" points="1824,-77 1757,-77 1757,-41 1824,-41 1824,-77"/>
<text text-anchor="middle" x="1790.5" y="-53.98" font-family="Times New Roman,serif" font-size="12.00">Staff Train</text>
</g>
<!-- 1990975865584 -->
<g id="node27" class="node">
<title>1990975865584</title>
<ellipse fill="white" stroke="black" cx="1887" cy="-59" rx="27" ry="27"/>
</g>
<!-- 1990975877248&#45;&gt;1990975865584 -->
<g id="edge18" class="edge">
<title>1990975877248&#45;&gt;1990975865584</title>
<path fill="none" stroke="black" d="M1824.29,-59C1832.02,-59 1840.33,-59 1848.27,-59"/>
<polygon fill="black" stroke="black" points="1848,-62.5 1858,-59 1848,-55.5 1848,-62.5"/>
</g>
<!-- 1990975879216 -->
<g id="node10" class="node">
<title>1990975879216</title>
<polygon fill="white" stroke="black" points="2026.75,-77 1950,-77 1950,-41 2026.75,-41 2026.75,-77"/>
<text text-anchor="middle" x="1988.38" y="-53.98" font-family="Times New Roman,serif" font-size="12.00">Harvest Plan</text>
</g>
<!-- 1990975875280 -->
<g id="node28" class="node">
<title>1990975875280</title>
<ellipse fill="white" stroke="black" cx="2089.75" cy="-59" rx="27" ry="27"/>
</g>
<!-- 1990975879216&#45;&gt;1990975875280 -->
<g id="edge20" class="edge">
<title>1990975879216&#45;&gt;1990975875280</title>
<path fill="none" stroke="black" d="M2027.23,-59C2035.02,-59 2043.23,-59 2051.02,-59"/>
<polygon fill="black" stroke="black" points="2050.9,-62.5 2060.9,-59 2050.9,-55.5 2050.9,-62.5"/>
</g>
<!-- 1990975874704 -->
<g id="node11" class="node">
<title>1990975874704</title>
<polygon fill="white" stroke="black" points="2229.5,-54 2152.75,-54 2152.75,-18 2229.5,-18 2229.5,-54"/>
<text text-anchor="middle" x="2191.12" y="-30.98" font-family="Times New Roman,serif" font-size="12.00">Pest Monitor</text>
</g>
<!-- 1990975874080 -->
<g id="node29" class="node">
<title>1990975874080</title>
<ellipse fill="white" stroke="black" cx="2292.5" cy="-31" rx="27" ry="27"/>
</g>
<!-- 1990975874704&#45;&gt;1990975874080 -->
<g id="edge22" class="edge">
<title>1990975874704&#45;&gt;1990975874080</title>
<path fill="none" stroke="black" d="M2229.98,-34.1C2237.77,-33.7 2245.98,-33.29 2253.77,-32.9"/>
<polygon fill="black" stroke="black" points="2253.84,-36.4 2263.65,-32.4 2253.49,-29.41 2253.84,-36.4"/>
</g>
<!-- 1990975868608 -->
<g id="node12" class="node">
<title>1990975868608</title>
<polygon fill="white" stroke="black" points="2436.75,-49 2355.5,-49 2355.5,-13 2436.75,-13 2436.75,-49"/>
<text text-anchor="middle" x="2396.12" y="-25.98" font-family="Times New Roman,serif" font-size="12.00">Data Analyze</text>
</g>
<!-- 1990975872880 -->
<g id="node30" class="node">
<title>1990975872880</title>
<ellipse fill="white" stroke="black" cx="2499.75" cy="-31" rx="27" ry="27"/>
</g>
<!-- 1990975868608&#45;&gt;1990975872880 -->
<g id="edge24" class="edge">
<title>1990975868608&#45;&gt;1990975872880</title>
<path fill="none" stroke="black" d="M2437,-31C2444.9,-31 2453.17,-31 2461,-31"/>
<polygon fill="black" stroke="black" points="2460.92,-34.5 2470.92,-31 2460.92,-27.5 2460.92,-34.5"/>
</g>
<!-- 1990975873168 -->
<g id="node13" class="node">
<title>1990975873168</title>
<polygon fill="white" stroke="black" points="2642.5,-49 2562.75,-49 2562.75,-13 2642.5,-13 2642.5,-49"/>
<text text-anchor="middle" x="2602.62" y="-25.98" font-family="Times New Roman,serif" font-size="12.00">Market Align</text>
</g>
<!-- 1990975868176 -->
<g id="node31" class="node">
<title>1990975868176</title>
<ellipse fill="white" stroke="black" cx="2705.5" cy="-31" rx="27" ry="27"/>
</g>
<!-- 1990975873168&#45;&gt;1990975868176 -->
<g id="edge26" class="edge">
<title>1990975873168&#45;&gt;1990975868176</title>
<path fill="none" stroke="black" d="M2642.91,-31C2650.78,-31 2659.02,-31 2666.82,-31"/>
<polygon fill="black" stroke="black" points="2666.72,-34.5 2676.72,-31 2666.72,-27.5 2666.72,-34.5"/>
</g>
<!-- 1990975876768 -->
<g id="node14" class="node">
<title>1990975876768</title>
<polygon fill="white" stroke="black" points="2855,-49 2768.5,-49 2768.5,-13 2855,-13 2855,-49"/>
<text text-anchor="middle" x="2811.75" y="-25.98" font-family="Times New Roman,serif" font-size="12.00">Waste Manage</text>
</g>
<!-- 1990975865152 -->
<g id="node32" class="node">
<title>1990975865152</title>
<ellipse fill="white" stroke="black" cx="2918" cy="-31" rx="27" ry="27"/>
</g>
<!-- 1990975876768&#45;&gt;1990975865152 -->
<g id="edge28" class="edge">
<title>1990975876768&#45;&gt;1990975865152</title>
<path fill="none" stroke="black" d="M2855.45,-31C2863.37,-31 2871.59,-31 2879.34,-31"/>
<polygon fill="black" stroke="black" points="2879.14,-34.5 2889.14,-31 2879.14,-27.5 2879.14,-34.5"/>
</g>
<!-- 1990975872640 -->
<g id="node15" class="node">
<title>1990975872640</title>
<polygon fill="white" stroke="black" points="3069.75,-49 2981,-49 2981,-13 3069.75,-13 3069.75,-49"/>
<text text-anchor="middle" x="3025.38" y="-25.98" font-family="Times New Roman,serif" font-size="12.00">Yield Optimize</text>
</g>
<!-- 1990975867216 -->
<g id="node33" class="node">
<title>1990975867216</title>
<ellipse fill="white" stroke="black" cx="3132.75" cy="-31" rx="27" ry="27"/>
</g>
<!-- 1990975872640&#45;&gt;1990975867216 -->
<g id="edge30" class="edge">
<title>1990975872640&#45;&gt;1990975867216</title>
<path fill="none" stroke="black" d="M3070.15,-31C3078.11,-31 3086.35,-31 3094.11,-31"/>
<polygon fill="black" stroke="black" points="3093.92,-34.5 3103.92,-31 3093.92,-27.5 3093.92,-34.5"/>
</g>
<!-- 1990971924192 -->
<g id="node16" class="node">
<title>1990971924192</title>
<polygon fill="black" stroke="black" points="3249.75,-103 3195.75,-103 3195.75,-67 3249.75,-67 3249.75,-103"/>
</g>
<!-- 1990971924192&#45;&gt;1990975875280 -->
<g id="edge33" class="edge">
<title>1990971924192&#45;&gt;1990975875280</title>
<path fill="none" stroke="black" d="M3195.52,-85.22C3158.02,-85.51 3086.92,-86 3026.38,-86 2291.5,-86 2291.5,-86 2291.5,-86 2233.89,-86 2167.8,-74.94 2127.68,-66.98"/>
<polygon fill="black" stroke="black" points="2128.57,-63.59 2118.07,-65.03 2127.17,-70.45 2128.57,-63.59"/>
</g>
<!-- 1990971917664 -->
<g id="node17" class="node">
<title>1990971917664</title>
<polygon fill="black" stroke="black" points="3249.75,-49 3195.75,-49 3195.75,-13 3249.75,-13 3249.75,-49"/>
</g>
<!-- 1990977369776 -->
<g id="node34" class="node">
<title>1990977369776</title>
<ellipse fill="white" stroke="black" cx="3316.75" cy="-31" rx="27" ry="27"/>
<ellipse fill="none" stroke="black" cx="3316.75" cy="-31" rx="31" ry="31"/>
<text text-anchor="start" x="3300.25" y="-15.6" font-family="Times New Roman,serif" font-size="32.00">■</text>
</g>
<!-- 1990971917664&#45;&gt;1990977369776 -->
<g id="edge34" class="edge">
<title>1990971917664&#45;&gt;1990977369776</title>
<path fill="none" stroke="black" d="M3249.87,-31C3257.38,-31 3265.76,-31 3273.97,-31"/>
<polygon fill="black" stroke="black" points="3273.83,-34.5 3283.83,-31 3273.83,-27.5 3273.83,-34.5"/>
</g>
<!-- 1990977361472 -->
<g id="node18" class="node">
<title>1990977361472</title>
<ellipse fill="white" stroke="black" cx="27" cy="-59" rx="27" ry="27"/>
<text text-anchor="start" x="9.75" y="-41.7" font-family="Times New Roman,serif" font-size="34.00">●</text>
</g>
<!-- 1990977361472&#45;&gt;1990980513968 -->
<g id="edge1" class="edge">
<title>1990977361472&#45;&gt;1990980513968</title>
<path fill="none" stroke="black" d="M54.33,-59C61.76,-59 70.06,-59 78.28,-59"/>
<polygon fill="black" stroke="black" points="78.24,-62.5 88.24,-59 78.24,-55.5 78.24,-62.5"/>
</g>
<!-- 1990980515120&#45;&gt;1990980506096 -->
<g id="edge3" class="edge">
<title>1990980515120&#45;&gt;1990980506096</title>
<path fill="none" stroke="black" d="M251.06,-59C258.44,-59 266.74,-59 275.11,-59"/>
<polygon fill="black" stroke="black" points="274.96,-62.5 284.96,-59 274.96,-55.5 274.96,-62.5"/>
</g>
<!-- 1990980515600&#45;&gt;1990980507632 -->
<g id="edge5" class="edge">
<title>1990980515600&#45;&gt;1990980507632</title>
<path fill="none" stroke="black" d="M463.49,-59C470.96,-59 479.35,-59 487.74,-59"/>
<polygon fill="black" stroke="black" points="487.58,-62.5 497.58,-59 487.58,-55.5 487.58,-62.5"/>
</g>
<!-- 1990980515360&#45;&gt;1990980510848 -->
<g id="edge7" class="edge">
<title>1990980515360&#45;&gt;1990980510848</title>
<path fill="none" stroke="black" d="M669.36,-59C676.78,-59 685.11,-59 693.46,-59"/>
<polygon fill="black" stroke="black" points="693.27,-62.5 703.27,-59 693.27,-55.5 693.27,-62.5"/>
</g>
<!-- 1990980503120&#45;&gt;1990980516800 -->
<g id="edge9" class="edge">
<title>1990980503120&#45;&gt;1990980516800</title>
<path fill="none" stroke="black" d="M878.19,-59C885.56,-59 893.81,-59 901.98,-59"/>
<polygon fill="black" stroke="black" points="901.87,-62.5 911.87,-59 901.87,-55.5 901.87,-62.5"/>
</g>
<!-- 1990980503696&#45;&gt;1990980517760 -->
<g id="edge11" class="edge">
<title>1990980503696&#45;&gt;1990980517760</title>
<path fill="none" stroke="black" d="M1075.72,-59C1083.02,-59 1091.18,-59 1099.33,-59"/>
<polygon fill="black" stroke="black" points="1099.25,-62.5 1109.25,-59 1099.25,-55.5 1099.25,-62.5"/>
</g>
<!-- 1990980508592&#45;&gt;1990980510464 -->
<g id="edge13" class="edge">
<title>1990980508592&#45;&gt;1990980510464</title>
<path fill="none" stroke="black" d="M1279.04,-59C1286.42,-59 1294.73,-59 1303.07,-59"/>
<polygon fill="black" stroke="black" points="1302.89,-62.5 1312.89,-59 1302.89,-55.5 1302.89,-62.5"/>
</g>
<!-- 1990980514976&#45;&gt;1990980509792 -->
<g id="edge15" class="edge">
<title>1990980514976&#45;&gt;1990980509792</title>
<path fill="none" stroke="black" d="M1489.44,-59C1496.68,-59 1504.84,-59 1513.21,-59"/>
<polygon fill="black" stroke="black" points="1513.16,-62.5 1523.16,-59 1513.16,-55.5 1513.16,-62.5"/>
</g>
<!-- 1990975880224&#45;&gt;1990975877248 -->
<g id="edge17" class="edge">
<title>1990975880224&#45;&gt;1990975877248</title>
<path fill="none" stroke="black" d="M1721.32,-59C1728.75,-59 1737.04,-59 1745.2,-59"/>
<polygon fill="black" stroke="black" points="1745.06,-62.5 1755.06,-59 1745.06,-55.5 1745.06,-62.5"/>
</g>
<!-- 1990975865584&#45;&gt;1990975879216 -->
<g id="edge19" class="edge">
<title>1990975865584&#45;&gt;1990975879216</title>
<path fill="none" stroke="black" d="M1914.37,-59C1921.72,-59 1929.94,-59 1938.15,-59"/>
<polygon fill="black" stroke="black" points="1938.14,-62.5 1948.14,-59 1938.14,-55.5 1938.14,-62.5"/>
</g>
<!-- 1990975875280&#45;&gt;1990975874704 -->
<g id="edge21" class="edge">
<title>1990975875280&#45;&gt;1990975874704</title>
<path fill="none" stroke="black" d="M2116.34,-53.08C2124.11,-51.28 2132.9,-49.24 2141.65,-47.22"/>
<polygon fill="black" stroke="black" points="2142.2,-50.69 2151.15,-45.02 2140.62,-43.87 2142.2,-50.69"/>
</g>
<!-- 1990975874080&#45;&gt;1990975868608 -->
<g id="edge23" class="edge">
<title>1990975874080&#45;&gt;1990975868608</title>
<path fill="none" stroke="black" d="M2319.94,-31C2327.21,-31 2335.36,-31 2343.53,-31"/>
<polygon fill="black" stroke="black" points="2343.51,-34.5 2353.51,-31 2343.51,-27.5 2343.51,-34.5"/>
</g>
<!-- 1990975872880&#45;&gt;1990975873168 -->
<g id="edge25" class="edge">
<title>1990975872880&#45;&gt;1990975873168</title>
<path fill="none" stroke="black" d="M2526.99,-31C2534.46,-31 2542.85,-31 2551.24,-31"/>
<polygon fill="black" stroke="black" points="2551.08,-34.5 2561.08,-31 2551.08,-27.5 2551.08,-34.5"/>
</g>
<!-- 1990975868176&#45;&gt;1990975876768 -->
<g id="edge27" class="edge">
<title>1990975868176&#45;&gt;1990975876768</title>
<path fill="none" stroke="black" d="M2732.81,-31C2740.19,-31 2748.49,-31 2756.86,-31"/>
<polygon fill="black" stroke="black" points="2756.71,-34.5 2766.71,-31 2756.71,-27.5 2756.71,-34.5"/>
</g>
<!-- 1990975865152&#45;&gt;1990975872640 -->
<g id="edge29" class="edge">
<title>1990975865152&#45;&gt;1990975872640</title>
<path fill="none" stroke="black" d="M2945.32,-31C2952.69,-31 2961,-31 2969.38,-31"/>
<polygon fill="black" stroke="black" points="2969.27,-34.5 2979.27,-31 2969.27,-27.5 2969.27,-34.5"/>
</g>
<!-- 1990975867216&#45;&gt;1990971924192 -->
<g id="edge31" class="edge">
<title>1990975867216&#45;&gt;1990971924192</title>
<path fill="none" stroke="black" d="M3156.41,-44.91C3165.35,-50.39 3175.84,-56.83 3185.76,-62.92"/>
<polygon fill="black" stroke="black" points="3183.78,-65.8 3194.13,-68.05 3187.44,-59.84 3183.78,-65.8"/>
</g>
<!-- 1990975867216&#45;&gt;1990971917664 -->
<g id="edge32" class="edge">
<title>1990975867216&#45;&gt;1990971917664</title>
<path fill="none" stroke="black" d="M3160.15,-31C3167.64,-31 3175.93,-31 3183.95,-31"/>
<polygon fill="black" stroke="black" points="3183.85,-34.5 3193.85,-31 3183.85,-27.5 3183.85,-34.5"/>
</g>
</g>
</svg>
