<?xml version="1.0" encoding="UTF-8" standalone="no"?>
<!DOCTYPE svg PUBLIC "-//W3C//DTD SVG 1.1//EN"
 "http://www.w3.org/Graphics/SVG/1.1/DTD/svg11.dtd">
<!-- Generated by graphviz version 11.0.0 (20240428.1522)
 -->
<!-- Title: imdf_net_1754052178.1469836 Pages: 1 -->
<svg width="2748pt" height="350pt"
 viewBox="0.00 0.00 2748.00 350.00" xmlns="http://www.w3.org/2000/svg" xmlns:xlink="http://www.w3.org/1999/xlink">
<g id="graph0" class="graph" transform="scale(1 1) rotate(0) translate(4 346)">
<title>imdf_net_1754052178.1469836</title>
<polygon fill="white" stroke="none" points="-4,4 -4,-346 2744,-346 2744,4 -4,4"/>
<!-- 1990976054160 -->
<g id="node1" class="node">
<title>1990976054160</title>
<polygon fill="white" stroke="black" points="160.75,-189 90,-189 90,-153 160.75,-153 160.75,-189"/>
<text text-anchor="middle" x="125.38" y="-165.97" font-family="Times New Roman,serif" font-size="12.00">Site Survey</text>
</g>
<!-- 1990976047872 -->
<g id="node22" class="node">
<title>1990976047872</title>
<ellipse fill="white" stroke="black" cx="223.75" cy="-171" rx="27" ry="27"/>
</g>
<!-- 1990976054160&#45;&gt;1990976047872 -->
<g id="edge2" class="edge">
<title>1990976054160&#45;&gt;1990976047872</title>
<path fill="none" stroke="black" d="M161.17,-171C168.9,-171 177.14,-171 184.98,-171"/>
<polygon fill="black" stroke="black" points="184.97,-174.5 194.97,-171 184.97,-167.5 184.97,-174.5"/>
</g>
<!-- 1990976059776 -->
<g id="node2" class="node">
<title>1990976059776</title>
<polygon fill="white" stroke="black" points="365.75,-189 286.75,-189 286.75,-153 365.75,-153 365.75,-189"/>
<text text-anchor="middle" x="326.25" y="-165.97" font-family="Times New Roman,serif" font-size="12.00">Impact Study</text>
</g>
<!-- 1990977503648 -->
<g id="node23" class="node">
<title>1990977503648</title>
<ellipse fill="white" stroke="black" cx="428.75" cy="-207" rx="27" ry="27"/>
</g>
<!-- 1990976059776&#45;&gt;1990977503648 -->
<g id="edge5" class="edge">
<title>1990976059776&#45;&gt;1990977503648</title>
<path fill="none" stroke="black" d="M366.11,-184.92C374.71,-188 383.78,-191.25 392.24,-194.28"/>
<polygon fill="black" stroke="black" points="390.9,-197.52 401.5,-197.6 393.26,-190.93 390.9,-197.52"/>
</g>
<!-- 1990979914832 -->
<g id="node24" class="node">
<title>1990979914832</title>
<ellipse fill="white" stroke="black" cx="428.75" cy="-135" rx="27" ry="27"/>
</g>
<!-- 1990976059776&#45;&gt;1990979914832 -->
<g id="edge4" class="edge">
<title>1990976059776&#45;&gt;1990979914832</title>
<path fill="none" stroke="black" d="M366.11,-157.08C374.71,-154 383.78,-150.75 392.24,-147.72"/>
<polygon fill="black" stroke="black" points="393.26,-151.07 401.5,-144.4 390.9,-144.48 393.26,-151.07"/>
</g>
<!-- 1990979917712 -->
<g id="node3" class="node">
<title>1990979917712</title>
<polygon fill="white" stroke="black" points="567.38,-153 493.62,-153 493.62,-117 567.38,-117 567.38,-153"/>
<text text-anchor="middle" x="530.5" y="-129.97" font-family="Times New Roman,serif" font-size="12.00">Unit Design</text>
</g>
<!-- 1990981519936 -->
<g id="node26" class="node">
<title>1990981519936</title>
<ellipse fill="white" stroke="black" cx="632.25" cy="-135" rx="27" ry="27"/>
</g>
<!-- 1990979917712&#45;&gt;1990981519936 -->
<g id="edge9" class="edge">
<title>1990979917712&#45;&gt;1990981519936</title>
<path fill="none" stroke="black" d="M567.79,-135C576.12,-135 585,-135 593.39,-135"/>
<polygon fill="black" stroke="black" points="593.32,-138.5 603.32,-135 593.32,-131.5 593.32,-138.5"/>
</g>
<!-- 1990979921648 -->
<g id="node4" class="node">
<title>1990979921648</title>
<polygon fill="white" stroke="black" points="569.25,-225 491.75,-225 491.75,-189 569.25,-189 569.25,-225"/>
<text text-anchor="middle" x="530.5" y="-201.97" font-family="Times New Roman,serif" font-size="12.00">Permit Filing</text>
</g>
<!-- 1990981521856 -->
<g id="node25" class="node">
<title>1990981521856</title>
<ellipse fill="white" stroke="black" cx="632.25" cy="-207" rx="27" ry="27"/>
</g>
<!-- 1990979921648&#45;&gt;1990981521856 -->
<g id="edge8" class="edge">
<title>1990979921648&#45;&gt;1990981521856</title>
<path fill="none" stroke="black" d="M569.5,-207C577.32,-207 585.56,-207 593.38,-207"/>
<polygon fill="black" stroke="black" points="593.3,-210.5 603.3,-207 593.3,-203.5 593.3,-210.5"/>
</g>
<!-- 1990979919008 -->
<g id="node5" class="node">
<title>1990979919008</title>
<polygon fill="white" stroke="black" points="785.5,-189 695.25,-189 695.25,-153 785.5,-153 785.5,-189"/>
<text text-anchor="middle" x="740.38" y="-165.97" font-family="Times New Roman,serif" font-size="12.00">Equip Sourcing</text>
</g>
<!-- 1990980515264 -->
<g id="node27" class="node">
<title>1990980515264</title>
<ellipse fill="white" stroke="black" cx="848.5" cy="-171" rx="27" ry="27"/>
</g>
<!-- 1990979919008&#45;&gt;1990980515264 -->
<g id="edge12" class="edge">
<title>1990979919008&#45;&gt;1990980515264</title>
<path fill="none" stroke="black" d="M785.77,-171C793.76,-171 802.03,-171 809.81,-171"/>
<polygon fill="black" stroke="black" points="809.64,-174.5 819.64,-171 809.64,-167.5 809.64,-174.5"/>
</g>
<!-- 1990980370256 -->
<g id="node6" class="node">
<title>1990980370256</title>
<polygon fill="white" stroke="black" points="992,-189 911.5,-189 911.5,-153 992,-153 992,-189"/>
<text text-anchor="middle" x="951.75" y="-165.97" font-family="Times New Roman,serif" font-size="12.00">System Setup</text>
</g>
<!-- 1990980358688 -->
<g id="node28" class="node">
<title>1990980358688</title>
<ellipse fill="white" stroke="black" cx="1055" cy="-171" rx="27" ry="27"/>
</g>
<!-- 1990980370256&#45;&gt;1990980358688 -->
<g id="edge14" class="edge">
<title>1990980370256&#45;&gt;1990980358688</title>
<path fill="none" stroke="black" d="M992.48,-171C1000.35,-171 1008.59,-171 1016.39,-171"/>
<polygon fill="black" stroke="black" points="1016.27,-174.5 1026.27,-171 1016.27,-167.5 1016.27,-174.5"/>
</g>
<!-- 1990980359840 -->
<g id="node7" class="node">
<title>1990980359840</title>
<polygon fill="white" stroke="black" points="1206,-189 1118,-189 1118,-153 1206,-153 1206,-189"/>
<text text-anchor="middle" x="1162" y="-165.97" font-family="Times New Roman,serif" font-size="12.00">Lighting Install</text>
</g>
<!-- 1990980364448 -->
<g id="node29" class="node">
<title>1990980364448</title>
<ellipse fill="white" stroke="black" cx="1269" cy="-315" rx="27" ry="27"/>
</g>
<!-- 1990980359840&#45;&gt;1990980364448 -->
<g id="edge20" class="edge">
<title>1990980359840&#45;&gt;1990980364448</title>
<path fill="none" stroke="black" d="M1176.3,-189.24C1193.75,-213.17 1224.63,-255.52 1245.69,-284.4"/>
<polygon fill="black" stroke="black" points="1242.81,-286.4 1251.53,-292.41 1248.47,-282.27 1242.81,-286.4"/>
</g>
<!-- 1990981521616 -->
<g id="node30" class="node">
<title>1990981521616</title>
<ellipse fill="white" stroke="black" cx="1269" cy="-243" rx="27" ry="27"/>
</g>
<!-- 1990980359840&#45;&gt;1990981521616 -->
<g id="edge17" class="edge">
<title>1990980359840&#45;&gt;1990981521616</title>
<path fill="none" stroke="black" d="M1189.77,-189.35C1204.12,-199.2 1221.89,-211.38 1236.86,-221.64"/>
<polygon fill="black" stroke="black" points="1234.75,-224.45 1244.98,-227.21 1238.71,-218.67 1234.75,-224.45"/>
</g>
<!-- 1990981520080 -->
<g id="node31" class="node">
<title>1990981520080</title>
<ellipse fill="white" stroke="black" cx="1269" cy="-171" rx="27" ry="27"/>
</g>
<!-- 1990980359840&#45;&gt;1990981520080 -->
<g id="edge16" class="edge">
<title>1990980359840&#45;&gt;1990981520080</title>
<path fill="none" stroke="black" d="M1206.31,-171C1214.27,-171 1222.51,-171 1230.28,-171"/>
<polygon fill="black" stroke="black" points="1230.1,-174.5 1240.1,-171 1230.1,-167.5 1230.1,-174.5"/>
</g>
<!-- 1990981533136 -->
<g id="node32" class="node">
<title>1990981533136</title>
<ellipse fill="white" stroke="black" cx="1269" cy="-99" rx="27" ry="27"/>
</g>
<!-- 1990980359840&#45;&gt;1990981533136 -->
<g id="edge19" class="edge">
<title>1990980359840&#45;&gt;1990981533136</title>
<path fill="none" stroke="black" d="M1189.77,-152.65C1204.12,-142.8 1221.89,-130.62 1236.86,-120.36"/>
<polygon fill="black" stroke="black" points="1238.71,-123.33 1244.98,-114.79 1234.75,-117.55 1238.71,-123.33"/>
</g>
<!-- 1990981527520 -->
<g id="node33" class="node">
<title>1990981527520</title>
<ellipse fill="white" stroke="black" cx="1269" cy="-27" rx="27" ry="27"/>
</g>
<!-- 1990980359840&#45;&gt;1990981527520 -->
<g id="edge18" class="edge">
<title>1990980359840&#45;&gt;1990981527520</title>
<path fill="none" stroke="black" d="M1176.3,-152.76C1193.75,-128.83 1224.63,-86.48 1245.69,-57.6"/>
<polygon fill="black" stroke="black" points="1248.47,-59.73 1251.53,-49.59 1242.81,-55.6 1248.47,-59.73"/>
</g>
<!-- 1990975872160 -->
<g id="node8" class="node">
<title>1990975872160</title>
<polygon fill="white" stroke="black" points="1417.75,-331 1345.5,-331 1345.5,-295 1417.75,-295 1417.75,-331"/>
<text text-anchor="middle" x="1381.62" y="-307.98" font-family="Times New Roman,serif" font-size="12.00">Staff Hiring</text>
</g>
<!-- 1990975870096 -->
<g id="node34" class="node">
<title>1990975870096</title>
<ellipse fill="white" stroke="black" cx="1494.25" cy="-311" rx="27" ry="27"/>
</g>
<!-- 1990975872160&#45;&gt;1990975870096 -->
<g id="edge26" class="edge">
<title>1990975872160&#45;&gt;1990975870096</title>
<path fill="none" stroke="black" d="M1418.24,-312.36C1430.08,-312.14 1443.31,-311.9 1455.32,-311.69"/>
<polygon fill="black" stroke="black" points="1455.38,-315.19 1465.32,-311.51 1455.25,-308.19 1455.38,-315.19"/>
</g>
<!-- 1990981525168 -->
<g id="node9" class="node">
<title>1990981525168</title>
<polygon fill="white" stroke="black" points="1431.25,-119 1332,-119 1332,-83 1431.25,-83 1431.25,-119"/>
<text text-anchor="middle" x="1381.62" y="-95.97" font-family="Times New Roman,serif" font-size="12.00">Community Meet</text>
</g>
<!-- 1990979288336 -->
<g id="node35" class="node">
<title>1990979288336</title>
<ellipse fill="white" stroke="black" cx="1494.25" cy="-105" rx="27" ry="27"/>
</g>
<!-- 1990981525168&#45;&gt;1990979288336 -->
<g id="edge27" class="edge">
<title>1990981525168&#45;&gt;1990979288336</title>
<path fill="none" stroke="black" d="M1431.47,-102.77C1439.54,-103.06 1447.8,-103.36 1455.54,-103.64"/>
<polygon fill="black" stroke="black" points="1455.18,-107.13 1465.3,-103.99 1455.43,-100.13 1455.18,-107.13"/>
</g>
<!-- 1990981526608 -->
<g id="node10" class="node">
<title>1990981526608</title>
<polygon fill="white" stroke="black" points="1429.75,-45 1333.5,-45 1333.5,-9 1429.75,-9 1429.75,-45"/>
<text text-anchor="middle" x="1381.62" y="-21.98" font-family="Times New Roman,serif" font-size="12.00">Market Outreach</text>
</g>
<!-- 1990981526320 -->
<g id="node36" class="node">
<title>1990981526320</title>
<ellipse fill="white" stroke="black" cx="1715.75" cy="-27" rx="27" ry="27"/>
</g>
<!-- 1990981526608&#45;&gt;1990981526320 -->
<g id="edge28" class="edge">
<title>1990981526608&#45;&gt;1990981526320</title>
<path fill="none" stroke="black" d="M1430.21,-27C1496.8,-27 1616.42,-27 1677.16,-27"/>
<polygon fill="black" stroke="black" points="1676.98,-30.5 1686.98,-27 1676.98,-23.5 1676.98,-30.5"/>
</g>
<!-- 1990981520464 -->
<g id="node11" class="node">
<title>1990981520464</title>
<polygon fill="white" stroke="black" points="1419.25,-261 1344,-261 1344,-225 1419.25,-225 1419.25,-261"/>
<text text-anchor="middle" x="1381.62" y="-237.97" font-family="Times New Roman,serif" font-size="12.00">Waste Setup</text>
</g>
<!-- 1990979289056 -->
<g id="node38" class="node">
<title>1990979289056</title>
<ellipse fill="white" stroke="black" cx="1605" cy="-243" rx="27" ry="27"/>
</g>
<!-- 1990981520464&#45;&gt;1990979289056 -->
<g id="edge30" class="edge">
<title>1990981520464&#45;&gt;1990979289056</title>
<path fill="none" stroke="black" d="M1419.68,-243C1460.34,-243 1525.28,-243 1566.23,-243"/>
<polygon fill="black" stroke="black" points="1566.09,-246.5 1576.09,-243 1566.09,-239.5 1566.09,-246.5"/>
</g>
<!-- 1990981522144 -->
<g id="node12" class="node">
<title>1990981522144</title>
<polygon fill="white" stroke="black" points="1424.5,-189 1338.75,-189 1338.75,-153 1424.5,-153 1424.5,-189"/>
<text text-anchor="middle" x="1381.62" y="-165.97" font-family="Times New Roman,serif" font-size="12.00">Water Recycle</text>
</g>
<!-- 1990979277632 -->
<g id="node37" class="node">
<title>1990979277632</title>
<ellipse fill="white" stroke="black" cx="1605" cy="-171" rx="27" ry="27"/>
</g>
<!-- 1990981522144&#45;&gt;1990979277632 -->
<g id="edge29" class="edge">
<title>1990981522144&#45;&gt;1990979277632</title>
<path fill="none" stroke="black" d="M1424.79,-171C1465.6,-171 1526.91,-171 1566.18,-171"/>
<polygon fill="black" stroke="black" points="1566.11,-174.5 1576.11,-171 1566.11,-167.5 1566.11,-174.5"/>
</g>
<!-- 1990981529296 -->
<g id="node13" class="node">
<title>1990981529296</title>
<polygon fill="black" stroke="black" points="1832.75,-203 1778.75,-203 1778.75,-167 1832.75,-167 1832.75,-203"/>
</g>
<!-- 1990981530112 -->
<g id="node39" class="node">
<title>1990981530112</title>
<ellipse fill="white" stroke="black" cx="1895.75" cy="-185" rx="27" ry="27"/>
</g>
<!-- 1990981529296&#45;&gt;1990981530112 -->
<g id="edge36" class="edge">
<title>1990981529296&#45;&gt;1990981530112</title>
<path fill="none" stroke="black" d="M1833.15,-185C1840.64,-185 1848.93,-185 1856.95,-185"/>
<polygon fill="black" stroke="black" points="1856.85,-188.5 1866.85,-185 1856.85,-181.5 1856.85,-188.5"/>
</g>
<!-- 1990976051184 -->
<g id="node14" class="node">
<title>1990976051184</title>
<polygon fill="black" stroke="black" points="2642,-100 2588,-100 2588,-64 2642,-64 2642,-100"/>
</g>
<!-- 1990979538384 -->
<g id="node41" class="node">
<title>1990979538384</title>
<ellipse fill="white" stroke="black" cx="2709" cy="-82" rx="27" ry="27"/>
<ellipse fill="none" stroke="black" cx="2709" cy="-82" rx="31" ry="31"/>
<text text-anchor="start" x="2692.5" y="-66.6" font-family="Times New Roman,serif" font-size="32.00">■</text>
</g>
<!-- 1990976051184&#45;&gt;1990979538384 -->
<g id="edge38" class="edge">
<title>1990976051184&#45;&gt;1990979538384</title>
<path fill="none" stroke="black" d="M2642.12,-82C2649.63,-82 2658.01,-82 2666.22,-82"/>
<polygon fill="black" stroke="black" points="2666.08,-85.5 2676.08,-82 2666.08,-78.5 2666.08,-85.5"/>
</g>
<!-- 1990981521904 -->
<g id="node15" class="node">
<title>1990981521904</title>
<polygon fill="white" stroke="black" points="1652.75,-328 1557.25,-328 1557.25,-292 1652.75,-292 1652.75,-328"/>
<text text-anchor="middle" x="1605" y="-304.98" font-family="Times New Roman,serif" font-size="12.00">Training Session</text>
</g>
<!-- 1990979274800 -->
<g id="node40" class="node">
<title>1990979274800</title>
<ellipse fill="white" stroke="black" cx="1715.75" cy="-293" rx="27" ry="27"/>
</g>
<!-- 1990981521904&#45;&gt;1990979274800 -->
<g id="edge37" class="edge">
<title>1990981521904&#45;&gt;1990979274800</title>
<path fill="none" stroke="black" d="M1653.07,-302.64C1661.15,-301.38 1669.45,-300.08 1677.24,-298.86"/>
<polygon fill="black" stroke="black" points="1677.73,-302.33 1687.07,-297.33 1676.65,-295.41 1677.73,-302.33"/>
</g>
<!-- 1990981523392 -->
<g id="node16" class="node">
<title>1990981523392</title>
<polygon fill="white" stroke="black" points="2043.75,-168 1958.75,-168 1958.75,-132 2043.75,-132 2043.75,-168"/>
<text text-anchor="middle" x="2001.25" y="-144.97" font-family="Times New Roman,serif" font-size="12.00">Quality Check</text>
</g>
<!-- 1990981517632 -->
<g id="node42" class="node">
<title>1990981517632</title>
<ellipse fill="white" stroke="black" cx="2106.75" cy="-149" rx="27" ry="27"/>
</g>
<!-- 1990981523392&#45;&gt;1990981517632 -->
<g id="edge41" class="edge">
<title>1990981523392&#45;&gt;1990981517632</title>
<path fill="none" stroke="black" d="M2044.05,-149.6C2051.95,-149.52 2060.17,-149.44 2067.93,-149.37"/>
<polygon fill="black" stroke="black" points="2067.8,-152.87 2077.76,-149.27 2067.73,-145.87 2067.8,-152.87"/>
</g>
<!-- 1990981522576 -->
<g id="node17" class="node">
<title>1990981522576</title>
<polygon fill="white" stroke="black" points="2253.25,-222 2169.75,-222 2169.75,-186 2253.25,-186 2253.25,-222"/>
<text text-anchor="middle" x="2211.5" y="-198.97" font-family="Times New Roman,serif" font-size="12.00">Cycle Review</text>
</g>
<!-- 1990981522576&#45;&gt;1990981530112 -->
<g id="edge44" class="edge">
<title>1990981522576&#45;&gt;1990981530112</title>
<path fill="none" stroke="black" d="M2169.26,-201.5C2107.92,-197.79 1993.54,-190.86 1934.37,-187.28"/>
<polygon fill="black" stroke="black" points="1934.66,-183.79 1924.47,-186.68 1934.24,-190.78 1934.66,-183.79"/>
</g>
<!-- 1990981519504 -->
<g id="node18" class="node">
<title>1990981519504</title>
<polygon fill="black" stroke="black" points="2238.5,-167 2184.5,-167 2184.5,-131 2238.5,-131 2238.5,-167"/>
</g>
<!-- 1990981523584 -->
<g id="node43" class="node">
<title>1990981523584</title>
<ellipse fill="white" stroke="black" cx="2316.25" cy="-154" rx="27" ry="27"/>
</g>
<!-- 1990981519504&#45;&gt;1990981523584 -->
<g id="edge45" class="edge">
<title>1990981519504&#45;&gt;1990981523584</title>
<path fill="none" stroke="black" d="M2238.96,-150.29C2250.71,-150.86 2264.74,-151.54 2277.56,-152.17"/>
<polygon fill="black" stroke="black" points="2277.21,-155.65 2287.37,-152.64 2277.55,-148.66 2277.21,-155.65"/>
</g>
<!-- 1990981518880 -->
<g id="node44" class="node">
<title>1990981518880</title>
<ellipse fill="white" stroke="black" cx="2316.25" cy="-82" rx="27" ry="27"/>
</g>
<!-- 1990981519504&#45;&gt;1990981518880 -->
<g id="edge46" class="edge">
<title>1990981519504&#45;&gt;1990981518880</title>
<path fill="none" stroke="black" d="M2238.96,-131.75C2252.58,-122.86 2269.29,-111.97 2283.6,-102.64"/>
<polygon fill="black" stroke="black" points="2285.32,-105.7 2291.78,-97.3 2281.49,-99.83 2285.32,-105.7"/>
</g>
<!-- 1990981519792 -->
<g id="node19" class="node">
<title>1990981519792</title>
<polygon fill="white" stroke="black" points="2462,-100 2379.25,-100 2379.25,-64 2462,-64 2462,-100"/>
<text text-anchor="middle" x="2420.62" y="-76.97" font-family="Times New Roman,serif" font-size="12.00">Launch Phase</text>
</g>
<!-- 1990981523152 -->
<g id="node46" class="node">
<title>1990981523152</title>
<ellipse fill="white" stroke="black" cx="2525" cy="-82" rx="27" ry="27"/>
</g>
<!-- 1990981519792&#45;&gt;1990981523152 -->
<g id="edge50" class="edge">
<title>1990981519792&#45;&gt;1990981523152</title>
<path fill="none" stroke="black" d="M2462.38,-82C2470.23,-82 2478.42,-82 2486.17,-82"/>
<polygon fill="black" stroke="black" points="2485.99,-85.5 2495.99,-82 2485.99,-78.5 2485.99,-85.5"/>
</g>
<!-- 1990981529152 -->
<g id="node20" class="node">
<title>1990981529152</title>
<polygon fill="white" stroke="black" points="2460.5,-172 2380.75,-172 2380.75,-136 2460.5,-136 2460.5,-172"/>
<text text-anchor="middle" x="2420.62" y="-148.97" font-family="Times New Roman,serif" font-size="12.00">Data Monitor</text>
</g>
<!-- 1990981532704 -->
<g id="node45" class="node">
<title>1990981532704</title>
<ellipse fill="white" stroke="black" cx="2525" cy="-154" rx="27" ry="27"/>
</g>
<!-- 1990981529152&#45;&gt;1990981532704 -->
<g id="edge49" class="edge">
<title>1990981529152&#45;&gt;1990981532704</title>
<path fill="none" stroke="black" d="M2460.91,-154C2469.27,-154 2478.07,-154 2486.36,-154"/>
<polygon fill="black" stroke="black" points="2486.13,-157.5 2496.13,-154 2486.13,-150.5 2486.13,-157.5"/>
</g>
<!-- 1990979538240 -->
<g id="node21" class="node">
<title>1990979538240</title>
<ellipse fill="white" stroke="black" cx="27" cy="-171" rx="27" ry="27"/>
<text text-anchor="start" x="9.75" y="-153.7" font-family="Times New Roman,serif" font-size="34.00">●</text>
</g>
<!-- 1990979538240&#45;&gt;1990976054160 -->
<g id="edge1" class="edge">
<title>1990979538240&#45;&gt;1990976054160</title>
<path fill="none" stroke="black" d="M54.33,-171C61.76,-171 70.06,-171 78.28,-171"/>
<polygon fill="black" stroke="black" points="78.24,-174.5 88.24,-171 78.24,-167.5 78.24,-174.5"/>
</g>
<!-- 1990976047872&#45;&gt;1990976059776 -->
<g id="edge3" class="edge">
<title>1990976047872&#45;&gt;1990976059776</title>
<path fill="none" stroke="black" d="M251.16,-171C258.59,-171 266.94,-171 275.27,-171"/>
<polygon fill="black" stroke="black" points="275.03,-174.5 285.03,-171 275.03,-167.5 275.03,-174.5"/>
</g>
<!-- 1990977503648&#45;&gt;1990979921648 -->
<g id="edge7" class="edge">
<title>1990977503648&#45;&gt;1990979921648</title>
<path fill="none" stroke="black" d="M456.22,-207C463.52,-207 471.68,-207 479.83,-207"/>
<polygon fill="black" stroke="black" points="479.75,-210.5 489.75,-207 479.75,-203.5 479.75,-210.5"/>
</g>
<!-- 1990979914832&#45;&gt;1990979917712 -->
<g id="edge6" class="edge">
<title>1990979914832&#45;&gt;1990979917712</title>
<path fill="none" stroke="black" d="M456.22,-135C464.09,-135 472.96,-135 481.74,-135"/>
<polygon fill="black" stroke="black" points="481.63,-138.5 491.63,-135 481.63,-131.5 481.63,-138.5"/>
</g>
<!-- 1990981521856&#45;&gt;1990979919008 -->
<g id="edge10" class="edge">
<title>1990981521856&#45;&gt;1990979919008</title>
<path fill="none" stroke="black" d="M658.13,-198.56C666.06,-195.87 675.17,-192.78 684.35,-189.67"/>
<polygon fill="black" stroke="black" points="685.33,-193.03 693.67,-186.5 683.08,-186.4 685.33,-193.03"/>
</g>
<!-- 1990981519936&#45;&gt;1990979919008 -->
<g id="edge11" class="edge">
<title>1990981519936&#45;&gt;1990979919008</title>
<path fill="none" stroke="black" d="M658.13,-143.44C666.06,-146.13 675.17,-149.22 684.35,-152.33"/>
<polygon fill="black" stroke="black" points="683.08,-155.6 693.67,-155.5 685.33,-148.97 683.08,-155.6"/>
</g>
<!-- 1990980515264&#45;&gt;1990980370256 -->
<g id="edge13" class="edge">
<title>1990980515264&#45;&gt;1990980370256</title>
<path fill="none" stroke="black" d="M875.84,-171C883.25,-171 891.57,-171 899.9,-171"/>
<polygon fill="black" stroke="black" points="899.67,-174.5 909.67,-171 899.67,-167.5 899.67,-174.5"/>
</g>
<!-- 1990980358688&#45;&gt;1990980359840 -->
<g id="edge15" class="edge">
<title>1990980358688&#45;&gt;1990980359840</title>
<path fill="none" stroke="black" d="M1082.5,-171C1089.85,-171 1098.11,-171 1106.44,-171"/>
<polygon fill="black" stroke="black" points="1106.25,-174.5 1116.25,-171 1106.25,-167.5 1106.25,-174.5"/>
</g>
<!-- 1990980364448&#45;&gt;1990975872160 -->
<g id="edge22" class="edge">
<title>1990980364448&#45;&gt;1990975872160</title>
<path fill="none" stroke="black" d="M1296.22,-314.53C1307.58,-314.32 1321.24,-314.07 1334.22,-313.84"/>
<polygon fill="black" stroke="black" points="1333.94,-317.34 1343.87,-313.66 1333.81,-310.35 1333.94,-317.34"/>
</g>
<!-- 1990981521616&#45;&gt;1990981520464 -->
<g id="edge24" class="edge">
<title>1990981521616&#45;&gt;1990981520464</title>
<path fill="none" stroke="black" d="M1296.5,-243C1307.36,-243 1320.28,-243 1332.7,-243"/>
<polygon fill="black" stroke="black" points="1332.37,-246.5 1342.37,-243 1332.37,-239.5 1332.37,-246.5"/>
</g>
<!-- 1990981520080&#45;&gt;1990981522144 -->
<g id="edge21" class="edge">
<title>1990981520080&#45;&gt;1990981522144</title>
<path fill="none" stroke="black" d="M1296.5,-171C1305.7,-171 1316.37,-171 1326.97,-171"/>
<polygon fill="black" stroke="black" points="1326.85,-174.5 1336.85,-171 1326.85,-167.5 1326.85,-174.5"/>
</g>
<!-- 1990981533136&#45;&gt;1990981525168 -->
<g id="edge25" class="edge">
<title>1990981533136&#45;&gt;1990981525168</title>
<path fill="none" stroke="black" d="M1296.22,-99.47C1303.51,-99.61 1311.74,-99.75 1320.14,-99.91"/>
<polygon fill="black" stroke="black" points="1320.04,-103.41 1330.1,-100.09 1320.16,-96.41 1320.04,-103.41"/>
</g>
<!-- 1990981527520&#45;&gt;1990981526608 -->
<g id="edge23" class="edge">
<title>1990981527520&#45;&gt;1990981526608</title>
<path fill="none" stroke="black" d="M1296.5,-27C1304.23,-27 1313,-27 1321.89,-27"/>
<polygon fill="black" stroke="black" points="1321.63,-30.5 1331.63,-27 1321.63,-23.5 1321.63,-30.5"/>
</g>
<!-- 1990975870096&#45;&gt;1990981521904 -->
<g id="edge34" class="edge">
<title>1990975870096&#45;&gt;1990981521904</title>
<path fill="none" stroke="black" d="M1521.58,-310.76C1528.92,-310.69 1537.21,-310.61 1545.63,-310.54"/>
<polygon fill="black" stroke="black" points="1545.63,-314.04 1555.59,-310.45 1545.56,-307.04 1545.63,-314.04"/>
</g>
<!-- 1990979288336&#45;&gt;1990981529296 -->
<g id="edge31" class="edge">
<title>1990979288336&#45;&gt;1990981529296</title>
<path fill="none" stroke="black" d="M1521.4,-108.92C1552.83,-113.87 1607.07,-123.19 1652.75,-135 1692.63,-145.31 1737.31,-160.45 1767.85,-171.37"/>
<polygon fill="black" stroke="black" points="1766.41,-174.57 1777,-174.67 1768.78,-167.99 1766.41,-174.57"/>
</g>
<!-- 1990981526320&#45;&gt;1990976051184 -->
<g id="edge35" class="edge">
<title>1990981526320&#45;&gt;1990976051184</title>
<path fill="none" stroke="black" d="M1742.99,-27C1777.71,-27 1840.82,-27 1894.75,-27 1894.75,-27 1894.75,-27 2421.62,-27 2480.18,-27 2496.71,-26.73 2552,-46 2560.77,-49.06 2569.7,-53.39 2577.95,-58"/>
<polygon fill="black" stroke="black" points="2575.92,-60.87 2586.31,-62.92 2579.47,-54.83 2575.92,-60.87"/>
</g>
<!-- 1990979277632&#45;&gt;1990981529296 -->
<g id="edge33" class="edge">
<title>1990979277632&#45;&gt;1990981529296</title>
<path fill="none" stroke="black" d="M1632.39,-172.86C1666.94,-175.29 1727.71,-179.57 1767.08,-182.35"/>
<polygon fill="black" stroke="black" points="1766.83,-185.84 1777.06,-183.05 1767.33,-178.86 1766.83,-185.84"/>
</g>
<!-- 1990979289056&#45;&gt;1990981529296 -->
<g id="edge32" class="edge">
<title>1990979289056&#45;&gt;1990981529296</title>
<path fill="none" stroke="black" d="M1631.17,-235.65C1665.66,-225.59 1727.85,-207.44 1767.68,-195.82"/>
<polygon fill="black" stroke="black" points="1768.45,-199.24 1777.07,-193.08 1766.49,-192.52 1768.45,-199.24"/>
</g>
<!-- 1990981530112&#45;&gt;1990981523392 -->
<g id="edge40" class="edge">
<title>1990981530112&#45;&gt;1990981523392</title>
<path fill="none" stroke="black" d="M1921.8,-176.53C1929.63,-173.88 1938.58,-170.86 1947.56,-167.82"/>
<polygon fill="black" stroke="black" points="1948.68,-171.13 1957.04,-164.61 1946.44,-164.5 1948.68,-171.13"/>
</g>
<!-- 1990979274800&#45;&gt;1990981529296 -->
<g id="edge39" class="edge">
<title>1990979274800&#45;&gt;1990981529296</title>
<path fill="none" stroke="black" d="M1733.51,-272.43C1747.42,-255.36 1767.31,-230.95 1782.54,-212.26"/>
<polygon fill="black" stroke="black" points="1785.25,-214.47 1788.86,-204.51 1779.83,-210.05 1785.25,-214.47"/>
</g>
<!-- 1990981517632&#45;&gt;1990981522576 -->
<g id="edge42" class="edge">
<title>1990981517632&#45;&gt;1990981522576</title>
<path fill="none" stroke="black" d="M2131.07,-161.48C2141.43,-167.03 2153.99,-173.75 2166.03,-180.2"/>
<polygon fill="black" stroke="black" points="2164.16,-183.17 2174.63,-184.8 2167.47,-176.99 2164.16,-183.17"/>
</g>
<!-- 1990981517632&#45;&gt;1990981519504 -->
<g id="edge43" class="edge">
<title>1990981517632&#45;&gt;1990981519504</title>
<path fill="none" stroke="black" d="M2134.21,-149C2145.96,-149 2159.99,-149 2172.81,-149"/>
<polygon fill="black" stroke="black" points="2172.62,-152.5 2182.62,-149 2172.62,-145.5 2172.62,-152.5"/>
</g>
<!-- 1990981523584&#45;&gt;1990981529152 -->
<g id="edge48" class="edge">
<title>1990981523584&#45;&gt;1990981529152</title>
<path fill="none" stroke="black" d="M2343.61,-154C2351.44,-154 2360.29,-154 2369.11,-154"/>
<polygon fill="black" stroke="black" points="2369.09,-157.5 2379.09,-154 2369.09,-150.5 2369.09,-157.5"/>
</g>
<!-- 1990981518880&#45;&gt;1990981519792 -->
<g id="edge47" class="edge">
<title>1990981518880&#45;&gt;1990981519792</title>
<path fill="none" stroke="black" d="M2343.61,-82C2351.03,-82 2359.36,-82 2367.71,-82"/>
<polygon fill="black" stroke="black" points="2367.52,-85.5 2377.52,-82 2367.52,-78.5 2367.52,-85.5"/>
</g>
<!-- 1990981532704&#45;&gt;1990976051184 -->
<g id="edge51" class="edge">
<title>1990981532704&#45;&gt;1990976051184</title>
<path fill="none" stroke="black" d="M2546.41,-137.3C2557.17,-128.5 2570.61,-117.5 2582.66,-107.64"/>
<polygon fill="black" stroke="black" points="2584.84,-110.38 2590.37,-101.34 2580.41,-104.96 2584.84,-110.38"/>
</g>
<!-- 1990981523152&#45;&gt;1990976051184 -->
<g id="edge52" class="edge">
<title>1990981523152&#45;&gt;1990976051184</title>
<path fill="none" stroke="black" d="M2552.4,-82C2559.89,-82 2568.18,-82 2576.2,-82"/>
<polygon fill="black" stroke="black" points="2576.1,-85.5 2586.1,-82 2576.1,-78.5 2576.1,-85.5"/>
</g>
</g>
</svg>
