<?xml version="1.0" encoding="UTF-8" standalone="no"?>
<!DOCTYPE svg PUBLIC "-//W3C//DTD SVG 1.1//EN"
 "http://www.w3.org/Graphics/SVG/1.1/DTD/svg11.dtd">
<!-- Generated by graphviz version 11.0.0 (20240428.1522)
 -->
<!-- Title: imdf_net_1754052178.1091206 Pages: 1 -->
<svg width="3119pt" height="111pt"
 viewBox="0.00 0.00 3118.50 111.00" xmlns="http://www.w3.org/2000/svg" xmlns:xlink="http://www.w3.org/1999/xlink">
<g id="graph0" class="graph" transform="scale(1 1) rotate(0) translate(4 107)">
<title>imdf_net_1754052178.1091206</title>
<polygon fill="white" stroke="none" points="-4,4 -4,-107 3114.5,-107 3114.5,4 -4,4"/>
<!-- 1990980365312 -->
<g id="node1" class="node">
<title>1990980365312</title>
<polygon fill="white" stroke="black" points="168.25,-77 90,-77 90,-41 168.25,-41 168.25,-77"/>
<text text-anchor="middle" x="129.12" y="-53.98" font-family="Times New Roman,serif" font-size="12.00">Site Analysis</text>
</g>
<!-- 1990980368720 -->
<g id="node17" class="node">
<title>1990980368720</title>
<ellipse fill="white" stroke="black" cx="231.25" cy="-59" rx="27" ry="27"/>
</g>
<!-- 1990980365312&#45;&gt;1990980368720 -->
<g id="edge2" class="edge">
<title>1990980365312&#45;&gt;1990980368720</title>
<path fill="none" stroke="black" d="M168.55,-59C176.39,-59 184.63,-59 192.44,-59"/>
<polygon fill="black" stroke="black" points="192.36,-62.5 202.36,-59 192.36,-55.5 192.36,-62.5"/>
</g>
<!-- 1990971931056 -->
<g id="node2" class="node">
<title>1990971931056</title>
<polygon fill="white" stroke="black" points="392.75,-77 294.25,-77 294.25,-41 392.75,-41 392.75,-77"/>
<text text-anchor="middle" x="343.5" y="-53.98" font-family="Times New Roman,serif" font-size="12.00">Zoning Approval</text>
</g>
<!-- 1990980507392 -->
<g id="node18" class="node">
<title>1990980507392</title>
<ellipse fill="white" stroke="black" cx="455.75" cy="-59" rx="27" ry="27"/>
</g>
<!-- 1990971931056&#45;&gt;1990980507392 -->
<g id="edge4" class="edge">
<title>1990971931056&#45;&gt;1990980507392</title>
<path fill="none" stroke="black" d="M393.18,-59C401.13,-59 409.26,-59 416.9,-59"/>
<polygon fill="black" stroke="black" points="416.89,-62.5 426.89,-59 416.89,-55.5 416.89,-62.5"/>
</g>
<!-- 1990979924720 -->
<g id="node3" class="node">
<title>1990979924720</title>
<polygon fill="white" stroke="black" points="612,-77 518.75,-77 518.75,-41 612,-41 612,-77"/>
<text text-anchor="middle" x="565.38" y="-53.98" font-family="Times New Roman,serif" font-size="12.00">Modular Design</text>
</g>
<!-- 1990979923664 -->
<g id="node19" class="node">
<title>1990979923664</title>
<ellipse fill="white" stroke="black" cx="675" cy="-59" rx="27" ry="27"/>
</g>
<!-- 1990979924720&#45;&gt;1990979923664 -->
<g id="edge6" class="edge">
<title>1990979924720&#45;&gt;1990979923664</title>
<path fill="none" stroke="black" d="M612.33,-59C620.37,-59 628.66,-59 636.44,-59"/>
<polygon fill="black" stroke="black" points="636.26,-62.5 646.26,-59 636.26,-55.5 636.26,-62.5"/>
</g>
<!-- 1990979922032 -->
<g id="node4" class="node">
<title>1990979922032</title>
<polygon fill="white" stroke="black" points="841,-77 738,-77 738,-41 841,-41 841,-77"/>
<text text-anchor="middle" x="789.5" y="-53.98" font-family="Times New Roman,serif" font-size="12.00">Hydroponic Setup</text>
</g>
<!-- 1990979927792 -->
<g id="node20" class="node">
<title>1990979927792</title>
<ellipse fill="white" stroke="black" cx="904" cy="-59" rx="27" ry="27"/>
</g>
<!-- 1990979922032&#45;&gt;1990979927792 -->
<g id="edge8" class="edge">
<title>1990979922032&#45;&gt;1990979927792</title>
<path fill="none" stroke="black" d="M841.48,-59C849.5,-59 857.65,-59 865.29,-59"/>
<polygon fill="black" stroke="black" points="865.27,-62.5 875.27,-59 865.27,-55.5 865.27,-62.5"/>
</g>
<!-- 1990979925728 -->
<g id="node5" class="node">
<title>1990979925728</title>
<polygon fill="white" stroke="black" points="1044.5,-77 967,-77 967,-41 1044.5,-41 1044.5,-77"/>
<text text-anchor="middle" x="1005.75" y="-53.98" font-family="Times New Roman,serif" font-size="12.00">Nutrient Mix</text>
</g>
<!-- 1990979921552 -->
<g id="node21" class="node">
<title>1990979921552</title>
<ellipse fill="white" stroke="black" cx="1107.5" cy="-59" rx="27" ry="27"/>
</g>
<!-- 1990979925728&#45;&gt;1990979921552 -->
<g id="edge10" class="edge">
<title>1990979925728&#45;&gt;1990979921552</title>
<path fill="none" stroke="black" d="M1044.75,-59C1052.57,-59 1060.81,-59 1068.63,-59"/>
<polygon fill="black" stroke="black" points="1068.55,-62.5 1078.55,-59 1068.55,-55.5 1068.55,-62.5"/>
</g>
<!-- 1990979916368 -->
<g id="node6" class="node">
<title>1990979916368</title>
<polygon fill="white" stroke="black" points="1262.25,-77 1170.5,-77 1170.5,-41 1262.25,-41 1262.25,-77"/>
<text text-anchor="middle" x="1216.38" y="-53.98" font-family="Times New Roman,serif" font-size="12.00">Climate Control</text>
</g>
<!-- 1990979922464 -->
<g id="node22" class="node">
<title>1990979922464</title>
<ellipse fill="white" stroke="black" cx="1325.25" cy="-59" rx="27" ry="27"/>
</g>
<!-- 1990979916368&#45;&gt;1990979922464 -->
<g id="edge12" class="edge">
<title>1990979916368&#45;&gt;1990979922464</title>
<path fill="none" stroke="black" d="M1262.7,-59C1270.71,-59 1278.97,-59 1286.73,-59"/>
<polygon fill="black" stroke="black" points="1286.53,-62.5 1296.53,-59 1286.53,-55.5 1286.53,-62.5"/>
</g>
<!-- 1990979920736 -->
<g id="node7" class="node">
<title>1990979920736</title>
<polygon fill="white" stroke="black" points="1474,-77 1388.25,-77 1388.25,-41 1474,-41 1474,-77"/>
<text text-anchor="middle" x="1431.12" y="-53.98" font-family="Times New Roman,serif" font-size="12.00">Seed Selection</text>
</g>
<!-- 1990979915024 -->
<g id="node23" class="node">
<title>1990979915024</title>
<ellipse fill="white" stroke="black" cx="1537" cy="-59" rx="27" ry="27"/>
</g>
<!-- 1990979920736&#45;&gt;1990979915024 -->
<g id="edge14" class="edge">
<title>1990979920736&#45;&gt;1990979915024</title>
<path fill="none" stroke="black" d="M1474.37,-59C1482.28,-59 1490.5,-59 1498.26,-59"/>
<polygon fill="black" stroke="black" points="1498.07,-62.5 1508.07,-59 1498.07,-55.5 1498.07,-62.5"/>
</g>
<!-- 1990979923088 -->
<g id="node8" class="node">
<title>1990979923088</title>
<polygon fill="white" stroke="black" points="1699.25,-77 1600,-77 1600,-41 1699.25,-41 1699.25,-77"/>
<text text-anchor="middle" x="1649.62" y="-53.98" font-family="Times New Roman,serif" font-size="12.00">Germination Plan</text>
</g>
<!-- 1990979920784 -->
<g id="node24" class="node">
<title>1990979920784</title>
<ellipse fill="white" stroke="black" cx="1762.25" cy="-59" rx="27" ry="27"/>
</g>
<!-- 1990979923088&#45;&gt;1990979920784 -->
<g id="edge16" class="edge">
<title>1990979923088&#45;&gt;1990979920784</title>
<path fill="none" stroke="black" d="M1699.47,-59C1707.54,-59 1715.8,-59 1723.54,-59"/>
<polygon fill="black" stroke="black" points="1723.3,-62.5 1733.3,-59 1723.3,-55.5 1723.3,-62.5"/>
</g>
<!-- 1990979912240 -->
<g id="node9" class="node">
<title>1990979912240</title>
<polygon fill="white" stroke="black" points="1899.75,-77 1825.25,-77 1825.25,-41 1899.75,-41 1899.75,-77"/>
<text text-anchor="middle" x="1862.5" y="-53.98" font-family="Times New Roman,serif" font-size="12.00">Pest Control</text>
</g>
<!-- 1990979914448 -->
<g id="node25" class="node">
<title>1990979914448</title>
<ellipse fill="white" stroke="black" cx="1962.75" cy="-59" rx="27" ry="27"/>
</g>
<!-- 1990979912240&#45;&gt;1990979914448 -->
<g id="edge18" class="edge">
<title>1990979912240&#45;&gt;1990979914448</title>
<path fill="none" stroke="black" d="M1900.08,-59C1907.84,-59 1916.04,-59 1923.84,-59"/>
<polygon fill="black" stroke="black" points="1923.75,-62.5 1933.75,-59 1923.75,-55.5 1923.75,-62.5"/>
</g>
<!-- 1990979925296 -->
<g id="node10" class="node">
<title>1990979925296</title>
<polygon fill="white" stroke="black" points="2128.75,-77 2025.75,-77 2025.75,-41 2128.75,-41 2128.75,-77"/>
<text text-anchor="middle" x="2077.25" y="-53.98" font-family="Times New Roman,serif" font-size="12.00">Sensor Installation</text>
</g>
<!-- 1990979926112 -->
<g id="node26" class="node">
<title>1990979926112</title>
<ellipse fill="white" stroke="black" cx="2191.75" cy="-59" rx="27" ry="27"/>
</g>
<!-- 1990979925296&#45;&gt;1990979926112 -->
<g id="edge20" class="edge">
<title>1990979925296&#45;&gt;1990979926112</title>
<path fill="none" stroke="black" d="M2129.23,-59C2137.25,-59 2145.4,-59 2153.04,-59"/>
<polygon fill="black" stroke="black" points="2153.02,-62.5 2163.02,-59 2153.02,-55.5 2153.02,-62.5"/>
</g>
<!-- 1990981532944 -->
<g id="node11" class="node">
<title>1990981532944</title>
<polygon fill="white" stroke="black" points="2349.5,-50 2254.75,-50 2254.75,-14 2349.5,-14 2349.5,-50"/>
<text text-anchor="middle" x="2302.12" y="-26.98" font-family="Times New Roman,serif" font-size="12.00">Data Monitoring</text>
</g>
<!-- 1990981532320 -->
<g id="node27" class="node">
<title>1990981532320</title>
<ellipse fill="white" stroke="black" cx="2412.5" cy="-31" rx="27" ry="27"/>
</g>
<!-- 1990981532944&#45;&gt;1990981532320 -->
<g id="edge22" class="edge">
<title>1990981532944&#45;&gt;1990981532320</title>
<path fill="none" stroke="black" d="M2349.71,-31.57C2357.79,-31.5 2366.1,-31.42 2373.9,-31.35"/>
<polygon fill="black" stroke="black" points="2373.77,-34.85 2383.73,-31.26 2373.7,-27.85 2373.77,-34.85"/>
</g>
<!-- 1990981524976 -->
<g id="node12" class="node">
<title>1990981524976</title>
<polygon fill="white" stroke="black" points="2567.62,-103 2481.12,-103 2481.12,-67 2567.62,-67 2567.62,-103"/>
<text text-anchor="middle" x="2524.38" y="-79.97" font-family="Times New Roman,serif" font-size="12.00">Yield Analysis</text>
</g>
<!-- 1990981524976&#45;&gt;1990979926112 -->
<g id="edge25" class="edge">
<title>1990981524976&#45;&gt;1990979926112</title>
<path fill="none" stroke="black" d="M2480.85,-81.66C2415.66,-76.53 2292.11,-66.81 2230.15,-61.94"/>
<polygon fill="black" stroke="black" points="2230.72,-58.48 2220.48,-61.18 2230.17,-65.45 2230.72,-58.48"/>
</g>
<!-- 1990981528816 -->
<g id="node13" class="node">
<title>1990981528816</title>
<polygon fill="white" stroke="black" points="2573.25,-49 2475.5,-49 2475.5,-13 2573.25,-13 2573.25,-49"/>
<text text-anchor="middle" x="2524.38" y="-25.98" font-family="Times New Roman,serif" font-size="12.00">Harvest Planning</text>
</g>
<!-- 1990981518112 -->
<g id="node28" class="node">
<title>1990981518112</title>
<ellipse fill="white" stroke="black" cx="2636.25" cy="-31" rx="27" ry="27"/>
</g>
<!-- 1990981528816&#45;&gt;1990981518112 -->
<g id="edge26" class="edge">
<title>1990981528816&#45;&gt;1990981518112</title>
<path fill="none" stroke="black" d="M2573.57,-31C2581.61,-31 2589.85,-31 2597.57,-31"/>
<polygon fill="black" stroke="black" points="2597.31,-34.5 2607.31,-31 2597.31,-27.5 2597.31,-34.5"/>
</g>
<!-- 1990981526080 -->
<g id="node14" class="node">
<title>1990981526080</title>
<polygon fill="white" stroke="black" points="2794.75,-49 2699.25,-49 2699.25,-13 2794.75,-13 2794.75,-49"/>
<text text-anchor="middle" x="2747" y="-25.98" font-family="Times New Roman,serif" font-size="12.00">Packaging Setup</text>
</g>
<!-- 1990981526416 -->
<g id="node29" class="node">
<title>1990981526416</title>
<ellipse fill="white" stroke="black" cx="2857.75" cy="-31" rx="27" ry="27"/>
</g>
<!-- 1990981526080&#45;&gt;1990981526416 -->
<g id="edge28" class="edge">
<title>1990981526080&#45;&gt;1990981526416</title>
<path fill="none" stroke="black" d="M2795.07,-31C2803.07,-31 2811.29,-31 2819.02,-31"/>
<polygon fill="black" stroke="black" points="2818.75,-34.5 2828.75,-31 2818.75,-27.5 2818.75,-34.5"/>
</g>
<!-- 1990981525264 -->
<g id="node15" class="node">
<title>1990981525264</title>
<polygon fill="white" stroke="black" points="3012.5,-49 2920.75,-49 2920.75,-13 3012.5,-13 3012.5,-49"/>
<text text-anchor="middle" x="2966.62" y="-25.98" font-family="Times New Roman,serif" font-size="12.00">Urban Shipping</text>
</g>
<!-- 1990975867600 -->
<g id="node30" class="node">
<title>1990975867600</title>
<ellipse fill="white" stroke="black" cx="3079.5" cy="-31" rx="27" ry="27"/>
<ellipse fill="none" stroke="black" cx="3079.5" cy="-31" rx="31" ry="31"/>
<text text-anchor="start" x="3063" y="-15.6" font-family="Times New Roman,serif" font-size="32.00">■</text>
</g>
<!-- 1990981525264&#45;&gt;1990975867600 -->
<g id="edge30" class="edge">
<title>1990981525264&#45;&gt;1990975867600</title>
<path fill="none" stroke="black" d="M3012.72,-31C3020.61,-31 3028.78,-31 3036.57,-31"/>
<polygon fill="black" stroke="black" points="3036.51,-34.5 3046.51,-31 3036.51,-27.5 3036.51,-34.5"/>
</g>
<!-- 1990975865968 -->
<g id="node16" class="node">
<title>1990975865968</title>
<ellipse fill="white" stroke="black" cx="27" cy="-59" rx="27" ry="27"/>
<text text-anchor="start" x="9.75" y="-41.7" font-family="Times New Roman,serif" font-size="34.00">●</text>
</g>
<!-- 1990975865968&#45;&gt;1990980365312 -->
<g id="edge1" class="edge">
<title>1990975865968&#45;&gt;1990980365312</title>
<path fill="none" stroke="black" d="M54.31,-59C61.63,-59 69.84,-59 78.05,-59"/>
<polygon fill="black" stroke="black" points="78.05,-62.5 88.05,-59 78.05,-55.5 78.05,-62.5"/>
</g>
<!-- 1990980368720&#45;&gt;1990971931056 -->
<g id="edge3" class="edge">
<title>1990980368720&#45;&gt;1990971931056</title>
<path fill="none" stroke="black" d="M258.66,-59C265.93,-59 274.12,-59 282.47,-59"/>
<polygon fill="black" stroke="black" points="282.36,-62.5 292.36,-59 282.36,-55.5 282.36,-62.5"/>
</g>
<!-- 1990980507392&#45;&gt;1990979924720 -->
<g id="edge5" class="edge">
<title>1990980507392&#45;&gt;1990979924720</title>
<path fill="none" stroke="black" d="M483.08,-59C490.44,-59 498.73,-59 507.14,-59"/>
<polygon fill="black" stroke="black" points="507.08,-62.5 517.08,-59 507.08,-55.5 507.08,-62.5"/>
</g>
<!-- 1990979923664&#45;&gt;1990979922032 -->
<g id="edge7" class="edge">
<title>1990979923664&#45;&gt;1990979922032</title>
<path fill="none" stroke="black" d="M702.38,-59C709.61,-59 717.77,-59 726.11,-59"/>
<polygon fill="black" stroke="black" points="726.02,-62.5 736.02,-59 726.02,-55.5 726.02,-62.5"/>
</g>
<!-- 1990979927792&#45;&gt;1990979925728 -->
<g id="edge9" class="edge">
<title>1990979927792&#45;&gt;1990979925728</title>
<path fill="none" stroke="black" d="M931.47,-59C938.77,-59 946.93,-59 955.08,-59"/>
<polygon fill="black" stroke="black" points="955,-62.5 965,-59 955,-55.5 955,-62.5"/>
</g>
<!-- 1990979921552&#45;&gt;1990979916368 -->
<g id="edge11" class="edge">
<title>1990979921552&#45;&gt;1990979916368</title>
<path fill="none" stroke="black" d="M1134.92,-59C1142.23,-59 1150.45,-59 1158.78,-59"/>
<polygon fill="black" stroke="black" points="1158.61,-62.5 1168.61,-59 1158.61,-55.5 1158.61,-62.5"/>
</g>
<!-- 1990979922464&#45;&gt;1990979920736 -->
<g id="edge13" class="edge">
<title>1990979922464&#45;&gt;1990979920736</title>
<path fill="none" stroke="black" d="M1352.73,-59C1360.09,-59 1368.35,-59 1376.66,-59"/>
<polygon fill="black" stroke="black" points="1376.44,-62.5 1386.44,-59 1376.44,-55.5 1376.44,-62.5"/>
</g>
<!-- 1990979915024&#45;&gt;1990979923088 -->
<g id="edge15" class="edge">
<title>1990979915024&#45;&gt;1990979923088</title>
<path fill="none" stroke="black" d="M1564.5,-59C1571.79,-59 1580.02,-59 1588.39,-59"/>
<polygon fill="black" stroke="black" points="1588.32,-62.5 1598.32,-59 1588.32,-55.5 1588.32,-62.5"/>
</g>
<!-- 1990979920784&#45;&gt;1990979912240 -->
<g id="edge17" class="edge">
<title>1990979920784&#45;&gt;1990979912240</title>
<path fill="none" stroke="black" d="M1789.58,-59C1796.92,-59 1805.13,-59 1813.31,-59"/>
<polygon fill="black" stroke="black" points="1813.24,-62.5 1823.24,-59 1813.24,-55.5 1813.24,-62.5"/>
</g>
<!-- 1990979914448&#45;&gt;1990979925296 -->
<g id="edge19" class="edge">
<title>1990979914448&#45;&gt;1990979925296</title>
<path fill="none" stroke="black" d="M1990.13,-59C1997.36,-59 2005.52,-59 2013.86,-59"/>
<polygon fill="black" stroke="black" points="2013.77,-62.5 2023.77,-59 2013.77,-55.5 2013.77,-62.5"/>
</g>
<!-- 1990979926112&#45;&gt;1990981532944 -->
<g id="edge21" class="edge">
<title>1990979926112&#45;&gt;1990981532944</title>
<path fill="none" stroke="black" d="M2218.43,-52.6C2226,-50.72 2234.61,-48.57 2243.34,-46.4"/>
<polygon fill="black" stroke="black" points="2244.08,-49.82 2252.93,-44.01 2242.38,-43.03 2244.08,-49.82"/>
</g>
<!-- 1990981532320&#45;&gt;1990981524976 -->
<g id="edge23" class="edge">
<title>1990981532320&#45;&gt;1990981524976</title>
<path fill="none" stroke="black" d="M2437.34,-42.72C2448.61,-48.25 2462.47,-55.07 2475.76,-61.6"/>
<polygon fill="black" stroke="black" points="2473.88,-64.57 2484.4,-65.84 2476.97,-58.29 2473.88,-64.57"/>
</g>
<!-- 1990981532320&#45;&gt;1990981528816 -->
<g id="edge24" class="edge">
<title>1990981532320&#45;&gt;1990981528816</title>
<path fill="none" stroke="black" d="M2439.82,-31C2447.15,-31 2455.43,-31 2463.85,-31"/>
<polygon fill="black" stroke="black" points="2463.83,-34.5 2473.83,-31 2463.83,-27.5 2463.83,-34.5"/>
</g>
<!-- 1990981518112&#45;&gt;1990981526080 -->
<g id="edge27" class="edge">
<title>1990981518112&#45;&gt;1990981526080</title>
<path fill="none" stroke="black" d="M2663.58,-31C2670.92,-31 2679.21,-31 2687.63,-31"/>
<polygon fill="black" stroke="black" points="2687.59,-34.5 2697.59,-31 2687.59,-27.5 2687.59,-34.5"/>
</g>
<!-- 1990981526416&#45;&gt;1990981525264 -->
<g id="edge29" class="edge">
<title>1990981526416&#45;&gt;1990981525264</title>
<path fill="none" stroke="black" d="M2885.17,-31C2892.48,-31 2900.7,-31 2909.03,-31"/>
<polygon fill="black" stroke="black" points="2908.86,-34.5 2918.86,-31 2908.86,-27.5 2908.86,-34.5"/>
</g>
</g>
</svg>
