<?xml version="1.0" encoding="UTF-8" standalone="no"?>
<!DOCTYPE svg PUBLIC "-//W3C//DTD SVG 1.1//EN"
 "http://www.w3.org/Graphics/SVG/1.1/DTD/svg11.dtd">
<!-- Generated by graphviz version 11.0.0 (20240428.1522)
 -->
<!-- Title: imdf_net_1754052191.2438724 Pages: 1 -->
<svg width="3636pt" height="134pt"
 viewBox="0.00 0.00 3636.25 134.00" xmlns="http://www.w3.org/2000/svg" xmlns:xlink="http://www.w3.org/1999/xlink">
<g id="graph0" class="graph" transform="scale(1 1) rotate(0) translate(4 130)">
<title>imdf_net_1754052191.2438724</title>
<polygon fill="white" stroke="none" points="-4,4 -4,-130 3632.25,-130 3632.25,4 -4,4"/>
<!-- 1990975913664 -->
<g id="node1" class="node">
<title>1990975913664</title>
<polygon fill="black" stroke="black" points="144,-81 90,-81 90,-45 144,-45 144,-81"/>
</g>
<!-- 1990979727392 -->
<g id="node20" class="node">
<title>1990979727392</title>
<ellipse fill="white" stroke="black" cx="207" cy="-99" rx="27" ry="27"/>
</g>
<!-- 1990975913664&#45;&gt;1990979727392 -->
<g id="edge2" class="edge">
<title>1990975913664&#45;&gt;1990979727392</title>
<path fill="none" stroke="black" d="M144.4,-73.8C152.75,-77.22 162.12,-81.05 170.97,-84.67"/>
<polygon fill="black" stroke="black" points="169.44,-87.83 180.02,-88.37 172.09,-81.35 169.44,-87.83"/>
</g>
<!-- 1990975912560 -->
<g id="node21" class="node">
<title>1990975912560</title>
<ellipse fill="white" stroke="black" cx="207" cy="-27" rx="27" ry="27"/>
</g>
<!-- 1990975913664&#45;&gt;1990975912560 -->
<g id="edge3" class="edge">
<title>1990975913664&#45;&gt;1990975912560</title>
<path fill="none" stroke="black" d="M144.4,-52.2C152.75,-48.78 162.12,-44.95 170.97,-41.33"/>
<polygon fill="black" stroke="black" points="172.09,-44.65 180.02,-37.63 169.44,-38.17 172.09,-44.65"/>
</g>
<!-- 1990975906128 -->
<g id="node2" class="node">
<title>1990975906128</title>
<polygon fill="white" stroke="black" points="365.5,-49 278.25,-49 278.25,-13 365.5,-13 365.5,-49"/>
<text text-anchor="middle" x="321.88" y="-25.98" font-family="Times New Roman,serif" font-size="12.00">Artifact Assess</text>
</g>
<!-- 1990975909680 -->
<g id="node23" class="node">
<title>1990975909680</title>
<ellipse fill="white" stroke="black" cx="436.75" cy="-33" rx="27" ry="27"/>
</g>
<!-- 1990975906128&#45;&gt;1990975909680 -->
<g id="edge7" class="edge">
<title>1990975906128&#45;&gt;1990975909680</title>
<path fill="none" stroke="black" d="M365.87,-31.76C376.55,-31.95 387.92,-32.15 398.31,-32.34"/>
<polygon fill="black" stroke="black" points="397.97,-35.83 408.03,-32.51 398.09,-28.83 397.97,-35.83"/>
</g>
<!-- 1990979727728 -->
<g id="node3" class="node">
<title>1990979727728</title>
<polygon fill="white" stroke="black" points="373.75,-116 270,-116 270,-80 373.75,-80 373.75,-116"/>
<text text-anchor="middle" x="321.88" y="-92.97" font-family="Times New Roman,serif" font-size="12.00">Environmental Set</text>
</g>
<!-- 1990979722016 -->
<g id="node22" class="node">
<title>1990979722016</title>
<ellipse fill="white" stroke="black" cx="544.12" cy="-98" rx="27" ry="27"/>
</g>
<!-- 1990979727728&#45;&gt;1990979722016 -->
<g id="edge6" class="edge">
<title>1990979727728&#45;&gt;1990979722016</title>
<path fill="none" stroke="black" d="M374.24,-98C414.32,-98 469.1,-98 505.26,-98"/>
<polygon fill="black" stroke="black" points="505.25,-101.5 515.25,-98 505.25,-94.5 505.25,-101.5"/>
</g>
<!-- 1990975898064 -->
<g id="node4" class="node">
<title>1990975898064</title>
<polygon fill="black" stroke="black" points="3530.25,-86 3476.25,-86 3476.25,-50 3530.25,-50 3530.25,-86"/>
</g>
<!-- 1990975910736 -->
<g id="node25" class="node">
<title>1990975910736</title>
<ellipse fill="white" stroke="black" cx="3597.25" cy="-68" rx="27" ry="27"/>
<ellipse fill="none" stroke="black" cx="3597.25" cy="-68" rx="31" ry="31"/>
<text text-anchor="start" x="3580.75" y="-52.6" font-family="Times New Roman,serif" font-size="32.00">■</text>
</g>
<!-- 1990975898064&#45;&gt;1990975910736 -->
<g id="edge11" class="edge">
<title>1990975898064&#45;&gt;1990975910736</title>
<path fill="none" stroke="black" d="M3530.37,-68C3537.88,-68 3546.26,-68 3554.47,-68"/>
<polygon fill="black" stroke="black" points="3554.33,-71.5 3564.33,-68 3554.33,-64.5 3554.33,-71.5"/>
</g>
<!-- 1990979051232 -->
<g id="node5" class="node">
<title>1990979051232</title>
<polygon fill="white" stroke="black" points="588.5,-52 499.75,-52 499.75,-16 588.5,-16 588.5,-52"/>
<text text-anchor="middle" x="544.12" y="-28.98" font-family="Times New Roman,serif" font-size="12.00">Documentation</text>
</g>
<!-- 1990977363824 -->
<g id="node24" class="node">
<title>1990977363824</title>
<ellipse fill="white" stroke="black" cx="651.5" cy="-38" rx="27" ry="27"/>
</g>
<!-- 1990979051232&#45;&gt;1990977363824 -->
<g id="edge10" class="edge">
<title>1990979051232&#45;&gt;1990977363824</title>
<path fill="none" stroke="black" d="M588.9,-35.66C596.86,-35.96 605.1,-36.28 612.86,-36.57"/>
<polygon fill="black" stroke="black" points="612.55,-40.06 622.67,-36.94 612.81,-33.07 612.55,-40.06"/>
</g>
<!-- 1990976658928 -->
<g id="node6" class="node">
<title>1990976658928</title>
<polygon fill="white" stroke="black" points="810,-58 714.5,-58 714.5,-22 810,-22 810,-58"/>
<text text-anchor="middle" x="762.25" y="-34.98" font-family="Times New Roman,serif" font-size="12.00">Historical Check</text>
</g>
<!-- 1990976652832 -->
<g id="node26" class="node">
<title>1990976652832</title>
<ellipse fill="white" stroke="black" cx="873" cy="-41" rx="27" ry="27"/>
</g>
<!-- 1990976658928&#45;&gt;1990976652832 -->
<g id="edge13" class="edge">
<title>1990976658928&#45;&gt;1990976652832</title>
<path fill="none" stroke="black" d="M810.32,-40.43C818.32,-40.51 826.54,-40.58 834.27,-40.65"/>
<polygon fill="black" stroke="black" points="833.97,-44.15 844,-40.74 834.04,-37.15 833.97,-44.15"/>
</g>
<!-- 1990976657536 -->
<g id="node7" class="node">
<title>1990976657536</title>
<polygon fill="white" stroke="black" points="1014.25,-59 936,-59 936,-23 1014.25,-23 1014.25,-59"/>
<text text-anchor="middle" x="975.12" y="-35.98" font-family="Times New Roman,serif" font-size="12.00">Material Test</text>
</g>
<!-- 1990976663344 -->
<g id="node27" class="node">
<title>1990976663344</title>
<ellipse fill="white" stroke="black" cx="1077.25" cy="-41" rx="27" ry="27"/>
</g>
<!-- 1990976657536&#45;&gt;1990976663344 -->
<g id="edge15" class="edge">
<title>1990976657536&#45;&gt;1990976663344</title>
<path fill="none" stroke="black" d="M1014.55,-41C1022.39,-41 1030.63,-41 1038.44,-41"/>
<polygon fill="black" stroke="black" points="1038.36,-44.5 1048.36,-41 1038.36,-37.5 1038.36,-44.5"/>
</g>
<!-- 1990976654368 -->
<g id="node8" class="node">
<title>1990976654368</title>
<polygon fill="white" stroke="black" points="1228.25,-59 1140.25,-59 1140.25,-23 1228.25,-23 1228.25,-59"/>
<text text-anchor="middle" x="1184.25" y="-35.98" font-family="Times New Roman,serif" font-size="12.00">Condition Map</text>
</g>
<!-- 1990976652208 -->
<g id="node28" class="node">
<title>1990976652208</title>
<ellipse fill="white" stroke="black" cx="1291.25" cy="-41" rx="27" ry="27"/>
</g>
<!-- 1990976654368&#45;&gt;1990976652208 -->
<g id="edge17" class="edge">
<title>1990976654368&#45;&gt;1990976652208</title>
<path fill="none" stroke="black" d="M1228.56,-41C1236.52,-41 1244.76,-41 1252.53,-41"/>
<polygon fill="black" stroke="black" points="1252.35,-44.5 1262.35,-41 1252.35,-37.5 1252.35,-44.5"/>
</g>
<!-- 1990976651680 -->
<g id="node9" class="node">
<title>1990976651680</title>
<polygon fill="white" stroke="black" points="1437,-59 1354.25,-59 1354.25,-23 1437,-23 1437,-59"/>
<text text-anchor="middle" x="1395.62" y="-35.98" font-family="Times New Roman,serif" font-size="12.00">Surface Clean</text>
</g>
<!-- 1990976662480 -->
<g id="node29" class="node">
<title>1990976662480</title>
<ellipse fill="white" stroke="black" cx="1500" cy="-41" rx="27" ry="27"/>
</g>
<!-- 1990976651680&#45;&gt;1990976662480 -->
<g id="edge19" class="edge">
<title>1990976651680&#45;&gt;1990976662480</title>
<path fill="none" stroke="black" d="M1437.38,-41C1445.23,-41 1453.42,-41 1461.17,-41"/>
<polygon fill="black" stroke="black" points="1460.99,-44.5 1470.99,-41 1460.99,-37.5 1460.99,-44.5"/>
</g>
<!-- 1990976664400 -->
<g id="node10" class="node">
<title>1990976664400</title>
<polygon fill="white" stroke="black" points="1671.25,-59 1563,-59 1563,-23 1671.25,-23 1671.25,-59"/>
<text text-anchor="middle" x="1617.12" y="-35.98" font-family="Times New Roman,serif" font-size="12.00">Consolidate Fragile</text>
</g>
<!-- 1990976667424 -->
<g id="node30" class="node">
<title>1990976667424</title>
<ellipse fill="white" stroke="black" cx="1734.25" cy="-41" rx="27" ry="27"/>
</g>
<!-- 1990976664400&#45;&gt;1990976667424 -->
<g id="edge21" class="edge">
<title>1990976664400&#45;&gt;1990976667424</title>
<path fill="none" stroke="black" d="M1671.64,-41C1679.66,-41 1687.78,-41 1695.38,-41"/>
<polygon fill="black" stroke="black" points="1695.29,-44.5 1705.29,-41 1695.29,-37.5 1695.29,-44.5"/>
</g>
<!-- 1990976655712 -->
<g id="node11" class="node">
<title>1990976655712</title>
<polygon fill="white" stroke="black" points="1877.75,-59 1797.25,-59 1797.25,-23 1877.75,-23 1877.75,-59"/>
<text text-anchor="middle" x="1837.5" y="-35.98" font-family="Times New Roman,serif" font-size="12.00">Structural Fix</text>
</g>
<!-- 1990976655424 -->
<g id="node31" class="node">
<title>1990976655424</title>
<ellipse fill="white" stroke="black" cx="1940.75" cy="-41" rx="27" ry="27"/>
</g>
<!-- 1990976655712&#45;&gt;1990976655424 -->
<g id="edge23" class="edge">
<title>1990976655712&#45;&gt;1990976655424</title>
<path fill="none" stroke="black" d="M1878.23,-41C1886.1,-41 1894.34,-41 1902.14,-41"/>
<polygon fill="black" stroke="black" points="1902.02,-44.5 1912.02,-41 1902.02,-37.5 1902.02,-44.5"/>
</g>
<!-- 1990976667280 -->
<g id="node12" class="node">
<title>1990976667280</title>
<polygon fill="white" stroke="black" points="2079.75,-59 2003.75,-59 2003.75,-23 2079.75,-23 2079.75,-59"/>
<text text-anchor="middle" x="2041.75" y="-35.98" font-family="Times New Roman,serif" font-size="12.00">Micro Crack</text>
</g>
<!-- 1990976663680 -->
<g id="node32" class="node">
<title>1990976663680</title>
<ellipse fill="white" stroke="black" cx="2142.75" cy="-41" rx="27" ry="27"/>
</g>
<!-- 1990976667280&#45;&gt;1990976663680 -->
<g id="edge25" class="edge">
<title>1990976667280&#45;&gt;1990976663680</title>
<path fill="none" stroke="black" d="M2080.18,-41C2087.96,-41 2096.16,-41 2103.96,-41"/>
<polygon fill="black" stroke="black" points="2103.85,-44.5 2113.85,-41 2103.85,-37.5 2103.85,-44.5"/>
</g>
<!-- 1990976665888 -->
<g id="node13" class="node">
<title>1990976665888</title>
<polygon fill="white" stroke="black" points="2281.75,-59 2205.75,-59 2205.75,-23 2281.75,-23 2281.75,-59"/>
<text text-anchor="middle" x="2243.75" y="-35.98" font-family="Times New Roman,serif" font-size="12.00">Color Match</text>
</g>
<!-- 1990976655664 -->
<g id="node33" class="node">
<title>1990976655664</title>
<ellipse fill="white" stroke="black" cx="2344.75" cy="-41" rx="27" ry="27"/>
</g>
<!-- 1990976665888&#45;&gt;1990976655664 -->
<g id="edge27" class="edge">
<title>1990976665888&#45;&gt;1990976655664</title>
<path fill="none" stroke="black" d="M2282.18,-41C2289.96,-41 2298.16,-41 2305.96,-41"/>
<polygon fill="black" stroke="black" points="2305.85,-44.5 2315.85,-41 2305.85,-37.5 2305.85,-44.5"/>
</g>
<!-- 1990976656336 -->
<g id="node14" class="node">
<title>1990976656336</title>
<polygon fill="white" stroke="black" points="2494.25,-59 2407.75,-59 2407.75,-23 2494.25,-23 2494.25,-59"/>
<text text-anchor="middle" x="2451" y="-35.98" font-family="Times New Roman,serif" font-size="12.00">Repaint Period</text>
</g>
<!-- 1990976655136 -->
<g id="node34" class="node">
<title>1990976655136</title>
<ellipse fill="white" stroke="black" cx="2557.25" cy="-41" rx="27" ry="27"/>
</g>
<!-- 1990976656336&#45;&gt;1990976655136 -->
<g id="edge29" class="edge">
<title>1990976656336&#45;&gt;1990976655136</title>
<path fill="none" stroke="black" d="M2494.7,-41C2502.62,-41 2510.84,-41 2518.59,-41"/>
<polygon fill="black" stroke="black" points="2518.39,-44.5 2528.39,-41 2518.39,-37.5 2518.39,-44.5"/>
</g>
<!-- 1990976654608 -->
<g id="node15" class="node">
<title>1990976654608</title>
<polygon fill="white" stroke="black" points="2708.25,-59 2620.25,-59 2620.25,-23 2708.25,-23 2708.25,-59"/>
<text text-anchor="middle" x="2664.25" y="-35.98" font-family="Times New Roman,serif" font-size="12.00">Quality Inspect</text>
</g>
<!-- 1990976658688 -->
<g id="node35" class="node">
<title>1990976658688</title>
<ellipse fill="white" stroke="black" cx="2771.25" cy="-41" rx="27" ry="27"/>
</g>
<!-- 1990976654608&#45;&gt;1990976658688 -->
<g id="edge31" class="edge">
<title>1990976654608&#45;&gt;1990976658688</title>
<path fill="none" stroke="black" d="M2708.56,-41C2716.52,-41 2724.76,-41 2732.53,-41"/>
<polygon fill="black" stroke="black" points="2732.35,-44.5 2742.35,-41 2732.35,-37.5 2732.35,-44.5"/>
</g>
<!-- 1990976666704 -->
<g id="node16" class="node">
<title>1990976666704</title>
<polygon fill="white" stroke="black" points="2943.25,-59 2834.25,-59 2834.25,-23 2943.25,-23 2943.25,-59"/>
<text text-anchor="middle" x="2888.75" y="-35.98" font-family="Times New Roman,serif" font-size="12.00">Provenance Update</text>
</g>
<!-- 1990976657776 -->
<g id="node36" class="node">
<title>1990976657776</title>
<ellipse fill="white" stroke="black" cx="3006.25" cy="-41" rx="27" ry="27"/>
</g>
<!-- 1990976666704&#45;&gt;1990976657776 -->
<g id="edge33" class="edge">
<title>1990976666704&#45;&gt;1990976657776</title>
<path fill="none" stroke="black" d="M2943.44,-41C2951.66,-41 2959.98,-41 2967.75,-41"/>
<polygon fill="black" stroke="black" points="2967.51,-44.5 2977.51,-41 2967.51,-37.5 2967.51,-44.5"/>
</g>
<!-- 1990976653936 -->
<g id="node17" class="node">
<title>1990976653936</title>
<polygon fill="white" stroke="black" points="3142.25,-59 3069.25,-59 3069.25,-23 3142.25,-23 3142.25,-59"/>
<text text-anchor="middle" x="3105.75" y="-35.98" font-family="Times New Roman,serif" font-size="12.00">Report Prep</text>
</g>
<!-- 1990976832240 -->
<g id="node37" class="node">
<title>1990976832240</title>
<ellipse fill="white" stroke="black" cx="3205.25" cy="-41" rx="27" ry="27"/>
</g>
<!-- 1990976653936&#45;&gt;1990976832240 -->
<g id="edge35" class="edge">
<title>1990976653936&#45;&gt;1990976832240</title>
<path fill="none" stroke="black" d="M3142.5,-41C3150.39,-41 3158.77,-41 3166.72,-41"/>
<polygon fill="black" stroke="black" points="3166.46,-44.5 3176.46,-41 3166.46,-37.5 3166.46,-44.5"/>
</g>
<!-- 1990976664832 -->
<g id="node18" class="node">
<title>1990976664832</title>
<polygon fill="white" stroke="black" points="3350.25,-59 3268.25,-59 3268.25,-23 3350.25,-23 3350.25,-59"/>
<text text-anchor="middle" x="3309.25" y="-35.98" font-family="Times New Roman,serif" font-size="12.00">Archive Store</text>
</g>
<!-- 1990976840976 -->
<g id="node38" class="node">
<title>1990976840976</title>
<ellipse fill="white" stroke="black" cx="3413.25" cy="-41" rx="27" ry="27"/>
</g>
<!-- 1990976664832&#45;&gt;1990976840976 -->
<g id="edge37" class="edge">
<title>1990976664832&#45;&gt;1990976840976</title>
<path fill="none" stroke="black" d="M3350.56,-41C3358.48,-41 3366.75,-41 3374.57,-41"/>
<polygon fill="black" stroke="black" points="3374.48,-44.5 3384.48,-41 3374.48,-37.5 3374.48,-44.5"/>
</g>
<!-- 1990975898736 -->
<g id="node19" class="node">
<title>1990975898736</title>
<ellipse fill="white" stroke="black" cx="27" cy="-63" rx="27" ry="27"/>
<text text-anchor="start" x="9.75" y="-45.7" font-family="Times New Roman,serif" font-size="34.00">●</text>
</g>
<!-- 1990975898736&#45;&gt;1990975913664 -->
<g id="edge1" class="edge">
<title>1990975898736&#45;&gt;1990975913664</title>
<path fill="none" stroke="black" d="M54.4,-63C61.89,-63 70.18,-63 78.2,-63"/>
<polygon fill="black" stroke="black" points="78.1,-66.5 88.1,-63 78.1,-59.5 78.1,-66.5"/>
</g>
<!-- 1990979727392&#45;&gt;1990979727728 -->
<g id="edge4" class="edge">
<title>1990979727392&#45;&gt;1990979727728</title>
<path fill="none" stroke="black" d="M234.46,-98.77C241.72,-98.7 249.91,-98.63 258.28,-98.55"/>
<polygon fill="black" stroke="black" points="258.26,-102.05 268.23,-98.47 258.2,-95.06 258.26,-102.05"/>
</g>
<!-- 1990975912560&#45;&gt;1990975906128 -->
<g id="edge5" class="edge">
<title>1990975912560&#45;&gt;1990975906128</title>
<path fill="none" stroke="black" d="M234.46,-27.94C244.04,-28.28 255.24,-28.67 266.34,-29.07"/>
<polygon fill="black" stroke="black" points="266.17,-32.56 276.28,-29.42 266.41,-25.57 266.17,-32.56"/>
</g>
<!-- 1990979722016&#45;&gt;1990975898064 -->
<g id="edge8" class="edge">
<title>1990979722016&#45;&gt;1990975898064</title>
<path fill="none" stroke="black" d="M571.41,-97.6C612.09,-97.02 692.77,-96 761.25,-96 761.25,-96 761.25,-96 3310.25,-96 3364.44,-96 3426.33,-84.94 3464.86,-76.73"/>
<polygon fill="black" stroke="black" points="3465.53,-80.16 3474.55,-74.61 3464.03,-73.33 3465.53,-80.16"/>
</g>
<!-- 1990975909680&#45;&gt;1990979051232 -->
<g id="edge9" class="edge">
<title>1990975909680&#45;&gt;1990979051232</title>
<path fill="none" stroke="black" d="M464.07,-33.25C471.44,-33.32 479.75,-33.4 488.13,-33.48"/>
<polygon fill="black" stroke="black" points="487.99,-36.98 498.02,-33.57 488.05,-29.98 487.99,-36.98"/>
</g>
<!-- 1990977363824&#45;&gt;1990976658928 -->
<g id="edge12" class="edge">
<title>1990977363824&#45;&gt;1990976658928</title>
<path fill="none" stroke="black" d="M678.83,-38.48C686.17,-38.62 694.46,-38.77 702.88,-38.93"/>
<polygon fill="black" stroke="black" points="702.78,-42.43 712.84,-39.11 702.91,-35.43 702.78,-42.43"/>
</g>
<!-- 1990976652832&#45;&gt;1990976657536 -->
<g id="edge14" class="edge">
<title>1990976652832&#45;&gt;1990976657536</title>
<path fill="none" stroke="black" d="M900.31,-41C907.63,-41 915.84,-41 924.05,-41"/>
<polygon fill="black" stroke="black" points="924.05,-44.5 934.05,-41 924.05,-37.5 924.05,-44.5"/>
</g>
<!-- 1990976663344&#45;&gt;1990976654368 -->
<g id="edge16" class="edge">
<title>1990976663344&#45;&gt;1990976654368</title>
<path fill="none" stroke="black" d="M1104.75,-41C1112.1,-41 1120.36,-41 1128.69,-41"/>
<polygon fill="black" stroke="black" points="1128.5,-44.5 1138.5,-41 1128.5,-37.5 1128.5,-44.5"/>
</g>
<!-- 1990976652208&#45;&gt;1990976651680 -->
<g id="edge18" class="edge">
<title>1990976652208&#45;&gt;1990976651680</title>
<path fill="none" stroke="black" d="M1318.61,-41C1326.03,-41 1334.36,-41 1342.71,-41"/>
<polygon fill="black" stroke="black" points="1342.52,-44.5 1352.52,-41 1342.52,-37.5 1342.52,-44.5"/>
</g>
<!-- 1990976662480&#45;&gt;1990976664400 -->
<g id="edge20" class="edge">
<title>1990976662480&#45;&gt;1990976664400</title>
<path fill="none" stroke="black" d="M1527.41,-41C1534.62,-41 1542.77,-41 1551.12,-41"/>
<polygon fill="black" stroke="black" points="1551.07,-44.5 1561.07,-41 1551.07,-37.5 1551.07,-44.5"/>
</g>
<!-- 1990976667424&#45;&gt;1990976655712 -->
<g id="edge22" class="edge">
<title>1990976667424&#45;&gt;1990976655712</title>
<path fill="none" stroke="black" d="M1761.59,-41C1769,-41 1777.32,-41 1785.65,-41"/>
<polygon fill="black" stroke="black" points="1785.42,-44.5 1795.42,-41 1785.42,-37.5 1785.42,-44.5"/>
</g>
<!-- 1990976655424&#45;&gt;1990976667280 -->
<g id="edge24" class="edge">
<title>1990976655424&#45;&gt;1990976667280</title>
<path fill="none" stroke="black" d="M1968.02,-41C1975.5,-41 1983.9,-41 1992.26,-41"/>
<polygon fill="black" stroke="black" points="1992.03,-44.5 2002.03,-41 1992.03,-37.5 1992.03,-44.5"/>
</g>
<!-- 1990976663680&#45;&gt;1990976665888 -->
<g id="edge26" class="edge">
<title>1990976663680&#45;&gt;1990976665888</title>
<path fill="none" stroke="black" d="M2170.02,-41C2177.5,-41 2185.9,-41 2194.26,-41"/>
<polygon fill="black" stroke="black" points="2194.03,-44.5 2204.03,-41 2194.03,-37.5 2194.03,-44.5"/>
</g>
<!-- 1990976655664&#45;&gt;1990976656336 -->
<g id="edge28" class="edge">
<title>1990976655664&#45;&gt;1990976656336</title>
<path fill="none" stroke="black" d="M2372.06,-41C2379.44,-41 2387.74,-41 2396.11,-41"/>
<polygon fill="black" stroke="black" points="2395.96,-44.5 2405.96,-41 2395.96,-37.5 2395.96,-44.5"/>
</g>
<!-- 1990976655136&#45;&gt;1990976654608 -->
<g id="edge30" class="edge">
<title>1990976655136&#45;&gt;1990976654608</title>
<path fill="none" stroke="black" d="M2584.75,-41C2592.1,-41 2600.36,-41 2608.69,-41"/>
<polygon fill="black" stroke="black" points="2608.5,-44.5 2618.5,-41 2608.5,-37.5 2608.5,-44.5"/>
</g>
<!-- 1990976658688&#45;&gt;1990976666704 -->
<g id="edge32" class="edge">
<title>1990976658688&#45;&gt;1990976666704</title>
<path fill="none" stroke="black" d="M2798.75,-41C2805.98,-41 2814.15,-41 2822.54,-41"/>
<polygon fill="black" stroke="black" points="2822.52,-44.5 2832.52,-41 2822.52,-37.5 2822.52,-44.5"/>
</g>
<!-- 1990976657776&#45;&gt;1990976653936 -->
<g id="edge34" class="edge">
<title>1990976657776&#45;&gt;1990976653936</title>
<path fill="none" stroke="black" d="M3033.63,-41C3040.99,-41 3049.22,-41 3057.4,-41"/>
<polygon fill="black" stroke="black" points="3057.31,-44.5 3067.31,-41 3057.31,-37.5 3057.31,-44.5"/>
</g>
<!-- 1990976832240&#45;&gt;1990976664832 -->
<g id="edge36" class="edge">
<title>1990976832240&#45;&gt;1990976664832</title>
<path fill="none" stroke="black" d="M3232.52,-41C3239.9,-41 3248.2,-41 3256.53,-41"/>
<polygon fill="black" stroke="black" points="3256.3,-44.5 3266.3,-41 3256.3,-37.5 3256.3,-44.5"/>
</g>
<!-- 1990976840976&#45;&gt;1990975898064 -->
<g id="edge38" class="edge">
<title>1990976840976&#45;&gt;1990975898064</title>
<path fill="none" stroke="black" d="M3439.23,-48.66C3447.31,-51.14 3456.44,-53.94 3465.2,-56.63"/>
<polygon fill="black" stroke="black" points="3463.94,-59.91 3474.53,-59.5 3466,-53.22 3463.94,-59.91"/>
</g>
</g>
</svg>
