<?xml version="1.0" encoding="UTF-8" standalone="no"?>
<!DOCTYPE svg PUBLIC "-//W3C//DTD SVG 1.1//EN"
 "http://www.w3.org/Graphics/SVG/1.1/DTD/svg11.dtd">
<!-- Generated by graphviz version 11.0.0 (20240428.1522)
 -->
<!-- Title: imdf_net_1754052206.0096436 Pages: 1 -->
<svg width="2554pt" height="311pt"
 viewBox="0.00 0.00 2554.00 311.39" xmlns="http://www.w3.org/2000/svg" xmlns:xlink="http://www.w3.org/1999/xlink">
<g id="graph0" class="graph" transform="scale(1 1) rotate(0) translate(4 307.39)">
<title>imdf_net_1754052206.0096436</title>
<polygon fill="white" stroke="none" points="-4,4 -4,-307.39 2550,-307.39 2550,4 -4,4"/>
<!-- 1990979550912 -->
<g id="node1" class="node">
<title>1990979550912</title>
<polygon fill="white" stroke="black" points="160.75,-257 90,-257 90,-221 160.75,-221 160.75,-257"/>
<text text-anchor="middle" x="125.38" y="-233.97" font-family="Times New Roman,serif" font-size="12.00">Site Survey</text>
</g>
<!-- 1990979539872 -->
<g id="node20" class="node">
<title>1990979539872</title>
<ellipse fill="white" stroke="black" cx="223.75" cy="-239" rx="27" ry="27"/>
</g>
<!-- 1990979550912&#45;&gt;1990979539872 -->
<g id="edge2" class="edge">
<title>1990979550912&#45;&gt;1990979539872</title>
<path fill="none" stroke="black" d="M161.17,-239C168.9,-239 177.14,-239 184.98,-239"/>
<polygon fill="black" stroke="black" points="184.97,-242.5 194.97,-239 184.97,-235.5 184.97,-242.5"/>
</g>
<!-- 1990979541744 -->
<g id="node2" class="node">
<title>1990979541744</title>
<polygon fill="white" stroke="black" points="373.25,-257 286.75,-257 286.75,-221 373.25,-221 373.25,-257"/>
<text text-anchor="middle" x="330" y="-233.97" font-family="Times New Roman,serif" font-size="12.00">Design Layout</text>
</g>
<!-- 1990979544864 -->
<g id="node21" class="node">
<title>1990979544864</title>
<ellipse fill="white" stroke="black" cx="436.25" cy="-239" rx="27" ry="27"/>
</g>
<!-- 1990979541744&#45;&gt;1990979544864 -->
<g id="edge4" class="edge">
<title>1990979541744&#45;&gt;1990979544864</title>
<path fill="none" stroke="black" d="M373.7,-239C381.62,-239 389.84,-239 397.59,-239"/>
<polygon fill="black" stroke="black" points="397.39,-242.5 407.39,-239 397.39,-235.5 397.39,-242.5"/>
</g>
<!-- 1990979544240 -->
<g id="node3" class="node">
<title>1990979544240</title>
<polygon fill="white" stroke="black" points="585,-257 499.25,-257 499.25,-221 585,-221 585,-257"/>
<text text-anchor="middle" x="542.12" y="-233.97" font-family="Times New Roman,serif" font-size="12.00">Modular Build</text>
</g>
<!-- 1990979536656 -->
<g id="node22" class="node">
<title>1990979536656</title>
<ellipse fill="white" stroke="black" cx="648" cy="-275" rx="27" ry="27"/>
</g>
<!-- 1990979544240&#45;&gt;1990979536656 -->
<g id="edge7" class="edge">
<title>1990979544240&#45;&gt;1990979536656</title>
<path fill="none" stroke="black" d="M585.37,-253.64C593.95,-256.61 602.89,-259.71 611.21,-262.6"/>
<polygon fill="black" stroke="black" points="610.06,-265.9 620.66,-265.87 612.35,-259.29 610.06,-265.9"/>
</g>
<!-- 1990976046672 -->
<g id="node23" class="node">
<title>1990976046672</title>
<ellipse fill="white" stroke="black" cx="648" cy="-203" rx="27" ry="27"/>
</g>
<!-- 1990979544240&#45;&gt;1990976046672 -->
<g id="edge6" class="edge">
<title>1990979544240&#45;&gt;1990976046672</title>
<path fill="none" stroke="black" d="M585.37,-224.36C593.95,-221.39 602.89,-218.29 611.21,-215.4"/>
<polygon fill="black" stroke="black" points="612.35,-218.71 620.66,-212.13 610.06,-212.1 612.35,-218.71"/>
</g>
<!-- 1990976045568 -->
<g id="node4" class="node">
<title>1990976045568</title>
<polygon fill="white" stroke="black" points="796.38,-293 713.62,-293 713.62,-257 796.38,-257 796.38,-293"/>
<text text-anchor="middle" x="755" y="-269.98" font-family="Times New Roman,serif" font-size="12.00">Climate Setup</text>
</g>
<!-- 1990979166400 -->
<g id="node24" class="node">
<title>1990979166400</title>
<ellipse fill="white" stroke="black" cx="862" cy="-275" rx="27" ry="27"/>
</g>
<!-- 1990976045568&#45;&gt;1990979166400 -->
<g id="edge11" class="edge">
<title>1990976045568&#45;&gt;1990979166400</title>
<path fill="none" stroke="black" d="M796.6,-275C805.4,-275 814.68,-275 823.37,-275"/>
<polygon fill="black" stroke="black" points="823.24,-278.5 833.24,-275 823.24,-271.5 823.24,-278.5"/>
</g>
<!-- 1990976048112 -->
<g id="node5" class="node">
<title>1990976048112</title>
<polygon fill="white" stroke="black" points="799,-221 711,-221 711,-185 799,-185 799,-221"/>
<text text-anchor="middle" x="755" y="-197.97" font-family="Times New Roman,serif" font-size="12.00">Lighting Install</text>
</g>
<!-- 1990979164096 -->
<g id="node25" class="node">
<title>1990979164096</title>
<ellipse fill="white" stroke="black" cx="862" cy="-203" rx="27" ry="27"/>
</g>
<!-- 1990976048112&#45;&gt;1990979164096 -->
<g id="edge10" class="edge">
<title>1990976048112&#45;&gt;1990979164096</title>
<path fill="none" stroke="black" d="M799.31,-203C807.27,-203 815.51,-203 823.28,-203"/>
<polygon fill="black" stroke="black" points="823.1,-206.5 833.1,-203 823.1,-199.5 823.1,-206.5"/>
</g>
<!-- 1990976056656 -->
<g id="node6" class="node">
<title>1990976056656</title>
<polygon fill="white" stroke="black" points="1002.5,-257 925,-257 925,-221 1002.5,-221 1002.5,-257"/>
<text text-anchor="middle" x="963.75" y="-233.97" font-family="Times New Roman,serif" font-size="12.00">Nutrient Mix</text>
</g>
<!-- 1990976058480 -->
<g id="node26" class="node">
<title>1990976058480</title>
<ellipse fill="white" stroke="black" cx="1065.5" cy="-239" rx="27" ry="27"/>
</g>
<!-- 1990976056656&#45;&gt;1990976058480 -->
<g id="edge14" class="edge">
<title>1990976056656&#45;&gt;1990976058480</title>
<path fill="none" stroke="black" d="M1002.75,-239C1010.57,-239 1018.81,-239 1026.63,-239"/>
<polygon fill="black" stroke="black" points="1026.55,-242.5 1036.55,-239 1026.55,-235.5 1026.55,-242.5"/>
</g>
<!-- 1990976048448 -->
<g id="node7" class="node">
<title>1990976048448</title>
<polygon fill="white" stroke="black" points="1200,-257 1128.5,-257 1128.5,-221 1200,-221 1200,-257"/>
<text text-anchor="middle" x="1164.25" y="-233.97" font-family="Times New Roman,serif" font-size="12.00">Crop Select</text>
</g>
<!-- 1990976054448 -->
<g id="node27" class="node">
<title>1990976054448</title>
<ellipse fill="white" stroke="black" cx="1263" cy="-239" rx="27" ry="27"/>
</g>
<!-- 1990976048448&#45;&gt;1990976054448 -->
<g id="edge16" class="edge">
<title>1990976048448&#45;&gt;1990976054448</title>
<path fill="none" stroke="black" d="M1200.45,-239C1208.2,-239 1216.44,-239 1224.29,-239"/>
<polygon fill="black" stroke="black" points="1224.26,-242.5 1234.26,-239 1224.26,-235.5 1224.26,-242.5"/>
</g>
<!-- 1990981250672 -->
<g id="node8" class="node">
<title>1990981250672</title>
<polygon fill="white" stroke="black" points="1392.25,-257 1326,-257 1326,-221 1392.25,-221 1392.25,-257"/>
<text text-anchor="middle" x="1359.12" y="-233.97" font-family="Times New Roman,serif" font-size="12.00">Seed Plant</text>
</g>
<!-- 1990981241792 -->
<g id="node28" class="node">
<title>1990981241792</title>
<ellipse fill="white" stroke="black" cx="1455.25" cy="-239" rx="27" ry="27"/>
</g>
<!-- 1990981250672&#45;&gt;1990981241792 -->
<g id="edge18" class="edge">
<title>1990981250672&#45;&gt;1990981241792</title>
<path fill="none" stroke="black" d="M1392.52,-239C1400.31,-239 1408.69,-239 1416.69,-239"/>
<polygon fill="black" stroke="black" points="1416.52,-242.5 1426.52,-239 1416.52,-235.5 1416.52,-242.5"/>
</g>
<!-- 1990981239488 -->
<g id="node9" class="node">
<title>1990981239488</title>
<polygon fill="white" stroke="black" points="1601,-257 1518.25,-257 1518.25,-221 1601,-221 1601,-257"/>
<text text-anchor="middle" x="1559.62" y="-233.97" font-family="Times New Roman,serif" font-size="12.00">Irrigation Test</text>
</g>
<!-- 1990981244768 -->
<g id="node29" class="node">
<title>1990981244768</title>
<ellipse fill="white" stroke="black" cx="1664" cy="-239" rx="27" ry="27"/>
</g>
<!-- 1990981239488&#45;&gt;1990981244768 -->
<g id="edge20" class="edge">
<title>1990981239488&#45;&gt;1990981244768</title>
<path fill="none" stroke="black" d="M1601.38,-239C1609.23,-239 1617.42,-239 1625.17,-239"/>
<polygon fill="black" stroke="black" points="1624.99,-242.5 1634.99,-239 1624.99,-235.5 1624.99,-242.5"/>
</g>
<!-- 1990971357904 -->
<g id="node10" class="node">
<title>1990971357904</title>
<polygon fill="white" stroke="black" points="1821,-234 1727,-234 1727,-198 1821,-198 1821,-234"/>
<text text-anchor="middle" x="1774" y="-210.97" font-family="Times New Roman,serif" font-size="12.00">Growth Monitor</text>
</g>
<!-- 1990981251776 -->
<g id="node30" class="node">
<title>1990981251776</title>
<ellipse fill="white" stroke="black" cx="1884" cy="-175" rx="27" ry="27"/>
</g>
<!-- 1990971357904&#45;&gt;1990981251776 -->
<g id="edge22" class="edge">
<title>1990971357904&#45;&gt;1990981251776</title>
<path fill="none" stroke="black" d="M1821.43,-198.37C1830.25,-195.02 1839.35,-191.57 1847.76,-188.38"/>
<polygon fill="black" stroke="black" points="1848.81,-191.72 1856.92,-184.9 1846.33,-185.18 1848.81,-191.72"/>
</g>
<!-- 1990979047296 -->
<g id="node11" class="node">
<title>1990979047296</title>
<polygon fill="white" stroke="black" points="2023.75,-94 1947,-94 1947,-58 2023.75,-58 2023.75,-94"/>
<text text-anchor="middle" x="1985.38" y="-70.97" font-family="Times New Roman,serif" font-size="12.00">Harvest Plan</text>
</g>
<!-- 1990979045472 -->
<g id="node33" class="node">
<title>1990979045472</title>
<ellipse fill="white" stroke="black" cx="2086.75" cy="-31" rx="27" ry="27"/>
</g>
<!-- 1990979047296&#45;&gt;1990979045472 -->
<g id="edge28" class="edge">
<title>1990979047296&#45;&gt;1990979045472</title>
<path fill="none" stroke="black" d="M2024.23,-58.86C2033.2,-54.8 2042.71,-50.49 2051.51,-46.51"/>
<polygon fill="black" stroke="black" points="2052.76,-49.78 2060.42,-42.47 2049.87,-43.41 2052.76,-49.78"/>
</g>
<!-- 1990971353056 -->
<g id="node12" class="node">
<title>1990971353056</title>
<polygon fill="black" stroke="black" points="2012.38,-193 1958.38,-193 1958.38,-157 2012.38,-157 2012.38,-193"/>
</g>
<!-- 1990980176256 -->
<g id="node31" class="node">
<title>1990980176256</title>
<ellipse fill="white" stroke="black" cx="2086.75" cy="-103" rx="27" ry="27"/>
</g>
<!-- 1990971353056&#45;&gt;1990980176256 -->
<g id="edge26" class="edge">
<title>1990971353056&#45;&gt;1990980176256</title>
<path fill="none" stroke="black" d="M2011.71,-156.65C2024.88,-147.1 2041.1,-135.35 2054.99,-125.29"/>
<polygon fill="black" stroke="black" points="2056.9,-128.23 2062.94,-119.53 2052.79,-122.56 2056.9,-128.23"/>
</g>
<!-- 1990979057040 -->
<g id="node32" class="node">
<title>1990979057040</title>
<ellipse fill="white" stroke="black" cx="2086.75" cy="-247" rx="27" ry="27"/>
</g>
<!-- 1990971353056&#45;&gt;1990979057040 -->
<g id="edge25" class="edge">
<title>1990971353056&#45;&gt;1990979057040</title>
<path fill="none" stroke="black" d="M2011.71,-193.35C2024.88,-202.9 2041.1,-214.65 2054.99,-224.71"/>
<polygon fill="black" stroke="black" points="2052.79,-227.44 2062.94,-230.47 2056.9,-221.77 2052.79,-227.44"/>
</g>
<!-- 1990979059056 -->
<g id="node34" class="node">
<title>1990979059056</title>
<ellipse fill="white" stroke="black" cx="2086.75" cy="-175" rx="27" ry="27"/>
</g>
<!-- 1990971353056&#45;&gt;1990979059056 -->
<g id="edge27" class="edge">
<title>1990971353056&#45;&gt;1990979059056</title>
<path fill="none" stroke="black" d="M2012.74,-175C2023.53,-175 2036.2,-175 2047.94,-175"/>
<polygon fill="black" stroke="black" points="2047.74,-178.5 2057.74,-175 2047.74,-171.5 2047.74,-178.5"/>
</g>
<!-- 1990979059200 -->
<g id="node13" class="node">
<title>1990979059200</title>
<polygon fill="white" stroke="black" points="2227.25,-49 2152.75,-49 2152.75,-13 2227.25,-13 2227.25,-49"/>
<text text-anchor="middle" x="2190" y="-25.98" font-family="Times New Roman,serif" font-size="12.00">Market Prep</text>
</g>
<!-- 1990979055936 -->
<g id="node37" class="node">
<title>1990979055936</title>
<ellipse fill="white" stroke="black" cx="2293.25" cy="-31" rx="27" ry="27"/>
</g>
<!-- 1990979059200&#45;&gt;1990979055936 -->
<g id="edge33" class="edge">
<title>1990979059200&#45;&gt;1990979055936</title>
<path fill="none" stroke="black" d="M2227.55,-31C2236.38,-31 2245.82,-31 2254.69,-31"/>
<polygon fill="black" stroke="black" points="2254.4,-34.5 2264.4,-31 2254.4,-27.5 2254.4,-34.5"/>
</g>
<!-- 1990979046288 -->
<g id="node14" class="node">
<title>1990979046288</title>
<polygon fill="white" stroke="black" points="2227.25,-193 2152.75,-193 2152.75,-157 2227.25,-157 2227.25,-193"/>
<text text-anchor="middle" x="2190" y="-169.97" font-family="Times New Roman,serif" font-size="12.00">Pest Control</text>
</g>
<!-- 1990971353008 -->
<g id="node36" class="node">
<title>1990971353008</title>
<ellipse fill="white" stroke="black" cx="2293.25" cy="-175" rx="27" ry="27"/>
</g>
<!-- 1990979046288&#45;&gt;1990971353008 -->
<g id="edge34" class="edge">
<title>1990979046288&#45;&gt;1990971353008</title>
<path fill="none" stroke="black" d="M2227.55,-175C2236.38,-175 2245.82,-175 2254.69,-175"/>
<polygon fill="black" stroke="black" points="2254.4,-178.5 2264.4,-175 2254.4,-171.5 2254.4,-178.5"/>
</g>
<!-- 1990979050128 -->
<g id="node15" class="node">
<title>1990979050128</title>
<polygon fill="white" stroke="black" points="2230.25,-265 2149.75,-265 2149.75,-229 2230.25,-229 2230.25,-265"/>
<text text-anchor="middle" x="2190" y="-241.97" font-family="Times New Roman,serif" font-size="12.00">Energy Audit</text>
</g>
<!-- 1990979047152 -->
<g id="node38" class="node">
<title>1990979047152</title>
<ellipse fill="white" stroke="black" cx="2293.25" cy="-247" rx="27" ry="27"/>
</g>
<!-- 1990979050128&#45;&gt;1990979047152 -->
<g id="edge35" class="edge">
<title>1990979050128&#45;&gt;1990979047152</title>
<path fill="none" stroke="black" d="M2230.73,-247C2238.6,-247 2246.84,-247 2254.64,-247"/>
<polygon fill="black" stroke="black" points="2254.52,-250.5 2264.52,-247 2254.52,-243.5 2254.52,-250.5"/>
</g>
<!-- 1990979050176 -->
<g id="node16" class="node">
<title>1990979050176</title>
<polygon fill="white" stroke="black" points="2228,-121 2152,-121 2152,-85 2228,-85 2228,-121"/>
<text text-anchor="middle" x="2190" y="-97.97" font-family="Times New Roman,serif" font-size="12.00">Waste Cycle</text>
</g>
<!-- 1990980364688 -->
<g id="node35" class="node">
<title>1990980364688</title>
<ellipse fill="white" stroke="black" cx="2293.25" cy="-103" rx="27" ry="27"/>
</g>
<!-- 1990979050176&#45;&gt;1990980364688 -->
<g id="edge36" class="edge">
<title>1990979050176&#45;&gt;1990980364688</title>
<path fill="none" stroke="black" d="M2228.41,-103C2237.01,-103 2246.16,-103 2254.76,-103"/>
<polygon fill="black" stroke="black" points="2254.53,-106.5 2264.53,-103 2254.53,-99.5 2254.53,-106.5"/>
</g>
<!-- 1990971344032 -->
<g id="node17" class="node">
<title>1990971344032</title>
<polygon fill="black" stroke="black" points="2429.12,-229 2375.12,-229 2375.12,-193 2429.12,-193 2429.12,-229"/>
</g>
<!-- 1990971344032&#45;&gt;1990981244768 -->
<g id="edge41" class="edge">
<title>1990971344032&#45;&gt;1990981244768</title>
<path fill="none" stroke="black" d="M2386.19,-229.37C2371.35,-246.27 2346.99,-270.52 2320.25,-283 2267.64,-307.56 2249.06,-302 2191,-302 1883,-302 1883,-302 1883,-302 1815.77,-302 1741.31,-274.01 1699.12,-255.34"/>
<polygon fill="black" stroke="black" points="1700.8,-252.26 1690.25,-251.33 1697.91,-258.64 1700.8,-252.26"/>
</g>
<!-- 1990979045808 -->
<g id="node18" class="node">
<title>1990979045808</title>
<polygon fill="white" stroke="black" points="2448,-49 2356.25,-49 2356.25,-13 2448,-13 2448,-49"/>
<text text-anchor="middle" x="2402.12" y="-25.98" font-family="Times New Roman,serif" font-size="12.00">Logistics Coord</text>
</g>
<!-- 1990979549760 -->
<g id="node39" class="node">
<title>1990979549760</title>
<ellipse fill="white" stroke="black" cx="2515" cy="-31" rx="27" ry="27"/>
<ellipse fill="none" stroke="black" cx="2515" cy="-31" rx="31" ry="31"/>
<text text-anchor="start" x="2498.5" y="-15.6" font-family="Times New Roman,serif" font-size="32.00">■</text>
</g>
<!-- 1990979045808&#45;&gt;1990979549760 -->
<g id="edge42" class="edge">
<title>1990979045808&#45;&gt;1990979549760</title>
<path fill="none" stroke="black" d="M2448.22,-31C2456.11,-31 2464.28,-31 2472.07,-31"/>
<polygon fill="black" stroke="black" points="2472.01,-34.5 2482.01,-31 2472.01,-27.5 2472.01,-34.5"/>
</g>
<!-- 1990979550480 -->
<g id="node19" class="node">
<title>1990979550480</title>
<ellipse fill="white" stroke="black" cx="27" cy="-239" rx="27" ry="27"/>
<text text-anchor="start" x="9.75" y="-221.7" font-family="Times New Roman,serif" font-size="34.00">●</text>
</g>
<!-- 1990979550480&#45;&gt;1990979550912 -->
<g id="edge1" class="edge">
<title>1990979550480&#45;&gt;1990979550912</title>
<path fill="none" stroke="black" d="M54.33,-239C61.76,-239 70.06,-239 78.28,-239"/>
<polygon fill="black" stroke="black" points="78.24,-242.5 88.24,-239 78.24,-235.5 78.24,-242.5"/>
</g>
<!-- 1990979539872&#45;&gt;1990979541744 -->
<g id="edge3" class="edge">
<title>1990979539872&#45;&gt;1990979541744</title>
<path fill="none" stroke="black" d="M251.06,-239C258.44,-239 266.74,-239 275.11,-239"/>
<polygon fill="black" stroke="black" points="274.96,-242.5 284.96,-239 274.96,-235.5 274.96,-242.5"/>
</g>
<!-- 1990979544864&#45;&gt;1990979544240 -->
<g id="edge5" class="edge">
<title>1990979544864&#45;&gt;1990979544240</title>
<path fill="none" stroke="black" d="M463.73,-239C471.09,-239 479.35,-239 487.66,-239"/>
<polygon fill="black" stroke="black" points="487.44,-242.5 497.44,-239 487.44,-235.5 487.44,-242.5"/>
</g>
<!-- 1990979536656&#45;&gt;1990976045568 -->
<g id="edge8" class="edge">
<title>1990979536656&#45;&gt;1990976045568</title>
<path fill="none" stroke="black" d="M675.5,-275C683.53,-275 692.64,-275 701.75,-275"/>
<polygon fill="black" stroke="black" points="701.68,-278.5 711.68,-275 701.68,-271.5 701.68,-278.5"/>
</g>
<!-- 1990976046672&#45;&gt;1990976048112 -->
<g id="edge9" class="edge">
<title>1990976046672&#45;&gt;1990976048112</title>
<path fill="none" stroke="black" d="M675.5,-203C682.85,-203 691.11,-203 699.44,-203"/>
<polygon fill="black" stroke="black" points="699.25,-206.5 709.25,-203 699.25,-199.5 699.25,-206.5"/>
</g>
<!-- 1990979166400&#45;&gt;1990976056656 -->
<g id="edge13" class="edge">
<title>1990979166400&#45;&gt;1990976056656</title>
<path fill="none" stroke="black" d="M887.91,-266.01C895.88,-263.13 904.98,-259.85 914.04,-256.58"/>
<polygon fill="black" stroke="black" points="914.93,-259.98 923.15,-253.29 912.56,-253.39 914.93,-259.98"/>
</g>
<!-- 1990979164096&#45;&gt;1990976056656 -->
<g id="edge12" class="edge">
<title>1990979164096&#45;&gt;1990976056656</title>
<path fill="none" stroke="black" d="M887.91,-211.99C895.88,-214.87 904.98,-218.15 914.04,-221.42"/>
<polygon fill="black" stroke="black" points="912.56,-224.61 923.15,-224.71 914.93,-218.02 912.56,-224.61"/>
</g>
<!-- 1990976058480&#45;&gt;1990976048448 -->
<g id="edge15" class="edge">
<title>1990976058480&#45;&gt;1990976048448</title>
<path fill="none" stroke="black" d="M1092.94,-239C1100.31,-239 1108.56,-239 1116.73,-239"/>
<polygon fill="black" stroke="black" points="1116.62,-242.5 1126.62,-239 1116.62,-235.5 1116.62,-242.5"/>
</g>
<!-- 1990976054448&#45;&gt;1990981250672 -->
<g id="edge17" class="edge">
<title>1990976054448&#45;&gt;1990981250672</title>
<path fill="none" stroke="black" d="M1290.47,-239C1297.94,-239 1306.26,-239 1314.45,-239"/>
<polygon fill="black" stroke="black" points="1314.32,-242.5 1324.32,-239 1314.32,-235.5 1314.32,-242.5"/>
</g>
<!-- 1990981241792&#45;&gt;1990981239488 -->
<g id="edge19" class="edge">
<title>1990981241792&#45;&gt;1990981239488</title>
<path fill="none" stroke="black" d="M1482.61,-239C1490.03,-239 1498.36,-239 1506.71,-239"/>
<polygon fill="black" stroke="black" points="1506.52,-242.5 1516.52,-239 1506.52,-235.5 1506.52,-242.5"/>
</g>
<!-- 1990981244768&#45;&gt;1990971357904 -->
<g id="edge21" class="edge">
<title>1990981244768&#45;&gt;1990971357904</title>
<path fill="none" stroke="black" d="M1690.87,-233.49C1698.42,-231.88 1706.98,-230.06 1715.66,-228.21"/>
<polygon fill="black" stroke="black" points="1716.12,-231.69 1725.17,-226.19 1714.66,-224.85 1716.12,-231.69"/>
</g>
<!-- 1990981251776&#45;&gt;1990979047296 -->
<g id="edge23" class="edge">
<title>1990981251776&#45;&gt;1990979047296</title>
<path fill="none" stroke="black" d="M1903.69,-156.38C1919.06,-141.07 1941.01,-119.21 1958.13,-102.14"/>
<polygon fill="black" stroke="black" points="1960.42,-104.81 1965.03,-95.27 1955.48,-99.85 1960.42,-104.81"/>
</g>
<!-- 1990981251776&#45;&gt;1990971353056 -->
<g id="edge24" class="edge">
<title>1990981251776&#45;&gt;1990971353056</title>
<path fill="none" stroke="black" d="M1911.37,-175C1922.15,-175 1934.83,-175 1946.56,-175"/>
<polygon fill="black" stroke="black" points="1946.37,-178.5 1956.37,-175 1946.37,-171.5 1946.37,-178.5"/>
</g>
<!-- 1990980176256&#45;&gt;1990979050176 -->
<g id="edge29" class="edge">
<title>1990980176256&#45;&gt;1990979050176</title>
<path fill="none" stroke="black" d="M2114.09,-103C2122.16,-103 2131.32,-103 2140.39,-103"/>
<polygon fill="black" stroke="black" points="2140.23,-106.5 2150.23,-103 2140.23,-99.5 2140.23,-106.5"/>
</g>
<!-- 1990979057040&#45;&gt;1990979050128 -->
<g id="edge32" class="edge">
<title>1990979057040&#45;&gt;1990979050128</title>
<path fill="none" stroke="black" d="M2114.09,-247C2121.5,-247 2129.82,-247 2138.15,-247"/>
<polygon fill="black" stroke="black" points="2137.92,-250.5 2147.92,-247 2137.92,-243.5 2137.92,-250.5"/>
</g>
<!-- 1990979045472&#45;&gt;1990979059200 -->
<g id="edge31" class="edge">
<title>1990979045472&#45;&gt;1990979059200</title>
<path fill="none" stroke="black" d="M2114.09,-31C2122.42,-31 2131.9,-31 2141.25,-31"/>
<polygon fill="black" stroke="black" points="2140.99,-34.5 2150.99,-31 2140.99,-27.5 2140.99,-34.5"/>
</g>
<!-- 1990979059056&#45;&gt;1990979046288 -->
<g id="edge30" class="edge">
<title>1990979059056&#45;&gt;1990979046288</title>
<path fill="none" stroke="black" d="M2114.09,-175C2122.42,-175 2131.9,-175 2141.25,-175"/>
<polygon fill="black" stroke="black" points="2140.99,-178.5 2150.99,-175 2140.99,-171.5 2140.99,-178.5"/>
</g>
<!-- 1990980364688&#45;&gt;1990971344032 -->
<g id="edge37" class="edge">
<title>1990980364688&#45;&gt;1990971344032</title>
<path fill="none" stroke="black" d="M2312.87,-121.81C2330.06,-139.18 2355.77,-165.16 2375.01,-184.61"/>
<polygon fill="black" stroke="black" points="2372.49,-187.04 2382.01,-191.69 2377.47,-182.12 2372.49,-187.04"/>
</g>
<!-- 1990971353008&#45;&gt;1990971344032 -->
<g id="edge40" class="edge">
<title>1990971353008&#45;&gt;1990971344032</title>
<path fill="none" stroke="black" d="M2319.31,-183.44C2332.58,-187.91 2349.15,-193.49 2363.9,-198.46"/>
<polygon fill="black" stroke="black" points="2362.7,-201.75 2373.3,-201.63 2364.94,-195.12 2362.7,-201.75"/>
</g>
<!-- 1990979055936&#45;&gt;1990979045808 -->
<g id="edge38" class="edge">
<title>1990979055936&#45;&gt;1990979045808</title>
<path fill="none" stroke="black" d="M2320.67,-31C2327.98,-31 2336.2,-31 2344.53,-31"/>
<polygon fill="black" stroke="black" points="2344.36,-34.5 2354.36,-31 2344.36,-27.5 2344.36,-34.5"/>
</g>
<!-- 1990979047152&#45;&gt;1990971344032 -->
<g id="edge39" class="edge">
<title>1990979047152&#45;&gt;1990971344032</title>
<path fill="none" stroke="black" d="M2319.31,-238.56C2332.58,-234.09 2349.15,-228.51 2363.9,-223.54"/>
<polygon fill="black" stroke="black" points="2364.94,-226.88 2373.3,-220.37 2362.7,-220.25 2364.94,-226.88"/>
</g>
</g>
</svg>
