<?xml version="1.0" encoding="UTF-8" standalone="no"?>
<!DOCTYPE svg PUBLIC "-//W3C//DTD SVG 1.1//EN"
 "http://www.w3.org/Graphics/SVG/1.1/DTD/svg11.dtd">
<!-- Generated by graphviz version 11.0.0 (20240428.1522)
 -->
<!-- Title: imdf_net_1754052209.692311 Pages: 1 -->
<svg width="2746pt" height="243pt"
 viewBox="0.00 0.00 2746.00 242.63" xmlns="http://www.w3.org/2000/svg" xmlns:xlink="http://www.w3.org/1999/xlink">
<g id="graph0" class="graph" transform="scale(1 1) rotate(0) translate(4 238.63)">
<title>imdf_net_1754052209.692311</title>
<polygon fill="white" stroke="none" points="-4,4 -4,-238.63 2742,-238.63 2742,4 -4,4"/>
<!-- 1990977600832 -->
<g id="node1" class="node">
<title>1990977600832</title>
<polygon fill="white" stroke="black" points="160.75,-213 90,-213 90,-177 160.75,-177 160.75,-213"/>
<text text-anchor="middle" x="125.38" y="-189.97" font-family="Times New Roman,serif" font-size="12.00">Site Survey</text>
</g>
<!-- 1990977590608 -->
<g id="node18" class="node">
<title>1990977590608</title>
<ellipse fill="white" stroke="black" cx="223.75" cy="-195" rx="27" ry="27"/>
</g>
<!-- 1990977600832&#45;&gt;1990977590608 -->
<g id="edge2" class="edge">
<title>1990977600832&#45;&gt;1990977590608</title>
<path fill="none" stroke="black" d="M161.17,-195C168.9,-195 177.14,-195 184.98,-195"/>
<polygon fill="black" stroke="black" points="184.97,-198.5 194.97,-195 184.97,-191.5 184.97,-198.5"/>
</g>
<!-- 1990977594448 -->
<g id="node2" class="node">
<title>1990977594448</title>
<polygon fill="white" stroke="black" points="364.25,-213 286.75,-213 286.75,-177 364.25,-177 364.25,-213"/>
<text text-anchor="middle" x="325.5" y="-189.97" font-family="Times New Roman,serif" font-size="12.00">Permit Filing</text>
</g>
<!-- 1990981082944 -->
<g id="node19" class="node">
<title>1990981082944</title>
<ellipse fill="white" stroke="black" cx="427.25" cy="-195" rx="27" ry="27"/>
</g>
<!-- 1990977594448&#45;&gt;1990981082944 -->
<g id="edge4" class="edge">
<title>1990977594448&#45;&gt;1990981082944</title>
<path fill="none" stroke="black" d="M364.5,-195C372.32,-195 380.56,-195 388.38,-195"/>
<polygon fill="black" stroke="black" points="388.3,-198.5 398.3,-195 388.3,-191.5 388.3,-198.5"/>
</g>
<!-- 1990981083520 -->
<g id="node3" class="node">
<title>1990981083520</title>
<polygon fill="white" stroke="black" points="563.25,-213 490.25,-213 490.25,-177 563.25,-177 563.25,-213"/>
<text text-anchor="middle" x="526.75" y="-189.97" font-family="Times New Roman,serif" font-size="12.00">Soil Testing</text>
</g>
<!-- 1990981091152 -->
<g id="node20" class="node">
<title>1990981091152</title>
<ellipse fill="white" stroke="black" cx="626.25" cy="-195" rx="27" ry="27"/>
</g>
<!-- 1990981083520&#45;&gt;1990981091152 -->
<g id="edge6" class="edge">
<title>1990981083520&#45;&gt;1990981091152</title>
<path fill="none" stroke="black" d="M563.5,-195C571.39,-195 579.77,-195 587.72,-195"/>
<polygon fill="black" stroke="black" points="587.46,-198.5 597.46,-195 587.46,-191.5 587.46,-198.5"/>
</g>
<!-- 1990981079872 -->
<g id="node4" class="node">
<title>1990981079872</title>
<polygon fill="white" stroke="black" points="775,-213 689.25,-213 689.25,-177 775,-177 775,-213"/>
<text text-anchor="middle" x="732.12" y="-189.97" font-family="Times New Roman,serif" font-size="12.00">Bed Assembly</text>
</g>
<!-- 1990981075168 -->
<g id="node21" class="node">
<title>1990981075168</title>
<ellipse fill="white" stroke="black" cx="838" cy="-195" rx="27" ry="27"/>
</g>
<!-- 1990981079872&#45;&gt;1990981075168 -->
<g id="edge8" class="edge">
<title>1990981079872&#45;&gt;1990981075168</title>
<path fill="none" stroke="black" d="M775.37,-195C783.28,-195 791.5,-195 799.26,-195"/>
<polygon fill="black" stroke="black" points="799.07,-198.5 809.07,-195 799.07,-191.5 799.07,-198.5"/>
</g>
<!-- 1990981091008 -->
<g id="node5" class="node">
<title>1990981091008</title>
<polygon fill="white" stroke="black" points="990.5,-213 901,-213 901,-177 990.5,-177 990.5,-213"/>
<text text-anchor="middle" x="945.75" y="-189.97" font-family="Times New Roman,serif" font-size="12.00">Irrigation Setup</text>
</g>
<!-- 1990981089712 -->
<g id="node22" class="node">
<title>1990981089712</title>
<ellipse fill="white" stroke="black" cx="1053.5" cy="-195" rx="27" ry="27"/>
</g>
<!-- 1990981091008&#45;&gt;1990981089712 -->
<g id="edge10" class="edge">
<title>1990981091008&#45;&gt;1990981089712</title>
<path fill="none" stroke="black" d="M990.98,-195C998.95,-195 1007.19,-195 1014.95,-195"/>
<polygon fill="black" stroke="black" points="1014.74,-198.5 1024.74,-195 1014.74,-191.5 1014.74,-198.5"/>
</g>
<!-- 1990981081744 -->
<g id="node6" class="node">
<title>1990981081744</title>
<polygon fill="white" stroke="black" points="1203,-213 1116.5,-213 1116.5,-177 1203,-177 1203,-213"/>
<text text-anchor="middle" x="1159.75" y="-189.97" font-family="Times New Roman,serif" font-size="12.00">Crop Selection</text>
</g>
<!-- 1990977245536 -->
<g id="node23" class="node">
<title>1990977245536</title>
<ellipse fill="white" stroke="black" cx="1266" cy="-195" rx="27" ry="27"/>
</g>
<!-- 1990981081744&#45;&gt;1990977245536 -->
<g id="edge12" class="edge">
<title>1990981081744&#45;&gt;1990977245536</title>
<path fill="none" stroke="black" d="M1203.45,-195C1211.37,-195 1219.59,-195 1227.34,-195"/>
<polygon fill="black" stroke="black" points="1227.14,-198.5 1237.14,-195 1227.14,-191.5 1227.14,-198.5"/>
</g>
<!-- 1990977251776 -->
<g id="node7" class="node">
<title>1990977251776</title>
<polygon fill="white" stroke="black" points="1433.5,-213 1329,-213 1329,-177 1433.5,-177 1433.5,-213"/>
<text text-anchor="middle" x="1381.25" y="-189.97" font-family="Times New Roman,serif" font-size="12.00">Energy Integration</text>
</g>
<!-- 1990977250000 -->
<g id="node24" class="node">
<title>1990977250000</title>
<ellipse fill="white" stroke="black" cx="1496.5" cy="-195" rx="27" ry="27"/>
</g>
<!-- 1990977251776&#45;&gt;1990977250000 -->
<g id="edge14" class="edge">
<title>1990977251776&#45;&gt;1990977250000</title>
<path fill="none" stroke="black" d="M1433.9,-195C1441.94,-195 1450.12,-195 1457.77,-195"/>
<polygon fill="black" stroke="black" points="1457.76,-198.5 1467.76,-195 1457.76,-191.5 1457.76,-198.5"/>
</g>
<!-- 1990977252160 -->
<g id="node8" class="node">
<title>1990977252160</title>
<polygon fill="white" stroke="black" points="1634,-213 1559.5,-213 1559.5,-177 1634,-177 1634,-213"/>
<text text-anchor="middle" x="1596.75" y="-189.97" font-family="Times New Roman,serif" font-size="12.00">Pest Control</text>
</g>
<!-- 1990977250144 -->
<g id="node25" class="node">
<title>1990977250144</title>
<ellipse fill="white" stroke="black" cx="1697" cy="-195" rx="27" ry="27"/>
</g>
<!-- 1990977252160&#45;&gt;1990977250144 -->
<g id="edge16" class="edge">
<title>1990977252160&#45;&gt;1990977250144</title>
<path fill="none" stroke="black" d="M1634.33,-195C1642.09,-195 1650.29,-195 1658.09,-195"/>
<polygon fill="black" stroke="black" points="1658,-198.5 1668,-195 1658,-191.5 1658,-198.5"/>
</g>
<!-- 1990977256768 -->
<g id="node9" class="node">
<title>1990977256768</title>
<polygon fill="white" stroke="black" points="1859.25,-213 1760,-213 1760,-177 1859.25,-177 1859.25,-213"/>
<text text-anchor="middle" x="1809.62" y="-189.97" font-family="Times New Roman,serif" font-size="12.00">Community Meet</text>
</g>
<!-- 1990977248464 -->
<g id="node26" class="node">
<title>1990977248464</title>
<ellipse fill="white" stroke="black" cx="1922.25" cy="-195" rx="27" ry="27"/>
</g>
<!-- 1990977256768&#45;&gt;1990977248464 -->
<g id="edge18" class="edge">
<title>1990977256768&#45;&gt;1990977248464</title>
<path fill="none" stroke="black" d="M1859.47,-195C1867.54,-195 1875.8,-195 1883.54,-195"/>
<polygon fill="black" stroke="black" points="1883.3,-198.5 1893.3,-195 1883.3,-191.5 1883.3,-198.5"/>
</g>
<!-- 1990981517776 -->
<g id="node10" class="node">
<title>1990981517776</title>
<polygon fill="white" stroke="black" points="2094.25,-190 1985.25,-190 1985.25,-154 2094.25,-154 2094.25,-190"/>
<text text-anchor="middle" x="2039.75" y="-166.97" font-family="Times New Roman,serif" font-size="12.00">Growth Monitoring</text>
</g>
<!-- 1992219361936 -->
<g id="node27" class="node">
<title>1992219361936</title>
<ellipse fill="white" stroke="black" cx="2157.25" cy="-156" rx="27" ry="27"/>
</g>
<!-- 1990981517776&#45;&gt;1992219361936 -->
<g id="edge20" class="edge">
<title>1990981517776&#45;&gt;1992219361936</title>
<path fill="none" stroke="black" d="M2094.44,-164.56C2102.66,-163.42 2110.98,-162.27 2118.75,-161.19"/>
<polygon fill="black" stroke="black" points="2119.09,-164.68 2128.52,-159.84 2118.13,-157.75 2119.09,-164.68"/>
</g>
<!-- 1990979057424 -->
<g id="node11" class="node">
<title>1990979057424</title>
<polygon fill="white" stroke="black" points="2312.38,-174 2225.88,-174 2225.88,-138 2312.38,-138 2312.38,-174"/>
<text text-anchor="middle" x="2269.12" y="-150.97" font-family="Times New Roman,serif" font-size="12.00">Yield Analysis</text>
</g>
<!-- 1990980175104 -->
<g id="node28" class="node">
<title>1990980175104</title>
<ellipse fill="white" stroke="black" cx="2381" cy="-179" rx="27" ry="27"/>
</g>
<!-- 1990979057424&#45;&gt;1990980175104 -->
<g id="edge23" class="edge">
<title>1990979057424&#45;&gt;1990980175104</title>
<path fill="none" stroke="black" d="M2312.61,-164.89C2322.68,-167 2333.33,-169.23 2343.13,-171.28"/>
<polygon fill="black" stroke="black" points="2342.16,-174.66 2352.67,-173.28 2343.6,-167.8 2342.16,-174.66"/>
</g>
<!-- 1990979058720 -->
<g id="node29" class="node">
<title>1990979058720</title>
<ellipse fill="white" stroke="black" cx="2381" cy="-107" rx="27" ry="27"/>
</g>
<!-- 1990979057424&#45;&gt;1990979058720 -->
<g id="edge24" class="edge">
<title>1990979057424&#45;&gt;1990979058720</title>
<path fill="none" stroke="black" d="M2311.35,-137.61C2322.59,-132.6 2334.64,-127.23 2345.46,-122.4"/>
<polygon fill="black" stroke="black" points="2346.71,-125.68 2354.41,-118.41 2343.85,-119.29 2346.71,-125.68"/>
</g>
<!-- 1990979282624 -->
<g id="node12" class="node">
<title>1990979282624</title>
<polygon fill="white" stroke="black" points="2318,-75 2220.25,-75 2220.25,-39 2318,-39 2318,-75"/>
<text text-anchor="middle" x="2269.12" y="-51.98" font-family="Times New Roman,serif" font-size="12.00">Safety Inspection</text>
</g>
<!-- 1990977505328 -->
<g id="node30" class="node">
<title>1990977505328</title>
<ellipse fill="white" stroke="black" cx="2381" cy="-34" rx="27" ry="27"/>
</g>
<!-- 1990979282624&#45;&gt;1990977505328 -->
<g id="edge25" class="edge">
<title>1990979282624&#45;&gt;1990977505328</title>
<path fill="none" stroke="black" d="M2318.32,-46.91C2326.61,-45.18 2335.11,-43.4 2343.04,-41.74"/>
<polygon fill="black" stroke="black" points="2343.63,-45.19 2352.7,-39.72 2342.19,-38.34 2343.63,-45.19"/>
</g>
<!-- 1990980366272 -->
<g id="node13" class="node">
<title>1990980366272</title>
<polygon fill="white" stroke="black" points="2544.75,-197 2449.25,-197 2449.25,-161 2544.75,-161 2544.75,-197"/>
<text text-anchor="middle" x="2497" y="-173.97" font-family="Times New Roman,serif" font-size="12.00">Water Recycling</text>
</g>
<!-- 1990979055984 -->
<g id="node32" class="node">
<title>1990979055984</title>
<ellipse fill="white" stroke="black" cx="2617" cy="-179" rx="27" ry="27"/>
</g>
<!-- 1990980366272&#45;&gt;1990979055984 -->
<g id="edge29" class="edge">
<title>1990980366272&#45;&gt;1990979055984</title>
<path fill="none" stroke="black" d="M2544.98,-179C2556,-179 2567.6,-179 2578.16,-179"/>
<polygon fill="black" stroke="black" points="2578.04,-182.5 2588.04,-179 2578.04,-175.5 2578.04,-182.5"/>
</g>
<!-- 1990979047632 -->
<g id="node14" class="node">
<title>1990979047632</title>
<polygon fill="white" stroke="black" points="2547,-125 2447,-125 2447,-89 2547,-89 2547,-125"/>
<text text-anchor="middle" x="2497" y="-101.97" font-family="Times New Roman,serif" font-size="12.00">Nutrient Planning</text>
</g>
<!-- 1990979046144 -->
<g id="node31" class="node">
<title>1990979046144</title>
<ellipse fill="white" stroke="black" cx="2617" cy="-107" rx="27" ry="27"/>
</g>
<!-- 1990979047632&#45;&gt;1990979046144 -->
<g id="edge30" class="edge">
<title>1990979047632&#45;&gt;1990979046144</title>
<path fill="none" stroke="black" d="M2547.36,-107C2557.69,-107 2568.42,-107 2578.24,-107"/>
<polygon fill="black" stroke="black" points="2578.17,-110.5 2588.17,-107 2578.17,-103.5 2578.17,-110.5"/>
</g>
<!-- 1990977512672 -->
<g id="node15" class="node">
<title>1990977512672</title>
<polygon fill="white" stroke="black" points="2550,-51 2444,-51 2444,-15 2550,-15 2550,-51"/>
<text text-anchor="middle" x="2497" y="-27.98" font-family="Times New Roman,serif" font-size="12.00">Waste Composting</text>
</g>
<!-- 1990981658160 -->
<g id="node33" class="node">
<title>1990981658160</title>
<ellipse fill="white" stroke="black" cx="2617" cy="-31" rx="27" ry="27"/>
<ellipse fill="none" stroke="black" cx="2617" cy="-31" rx="31" ry="31"/>
<text text-anchor="start" x="2600.5" y="-15.6" font-family="Times New Roman,serif" font-size="32.00">■</text>
</g>
<!-- 1990977512672&#45;&gt;1990981658160 -->
<g id="edge31" class="edge">
<title>1990977512672&#45;&gt;1990981658160</title>
<path fill="none" stroke="black" d="M2550.44,-32.11C2558.46,-31.98 2566.63,-31.84 2574.37,-31.71"/>
<polygon fill="black" stroke="black" points="2574.24,-35.21 2584.18,-31.54 2574.12,-28.21 2574.24,-35.21"/>
</g>
<!-- 1990981525744 -->
<g id="node16" class="node">
<title>1990981525744</title>
<polygon fill="black" stroke="black" points="2738,-197 2684,-197 2684,-161 2738,-161 2738,-197"/>
</g>
<!-- 1990981525744&#45;&gt;1990977248464 -->
<g id="edge34" class="edge">
<title>1990981525744&#45;&gt;1990977248464</title>
<path fill="none" stroke="black" d="M2683.66,-197.43C2673.04,-204.01 2660.38,-210.81 2648,-215 2584.34,-236.52 2565.2,-234 2498,-234 2156.25,-234 2156.25,-234 2156.25,-234 2085.88,-234 2005.18,-216.48 1959.61,-204.93"/>
<polygon fill="black" stroke="black" points="1960.55,-201.56 1950,-202.44 1958.8,-208.34 1960.55,-201.56"/>
</g>
<!-- 1990981659648 -->
<g id="node17" class="node">
<title>1990981659648</title>
<ellipse fill="white" stroke="black" cx="27" cy="-195" rx="27" ry="27"/>
<text text-anchor="start" x="9.75" y="-177.7" font-family="Times New Roman,serif" font-size="34.00">●</text>
</g>
<!-- 1990981659648&#45;&gt;1990977600832 -->
<g id="edge1" class="edge">
<title>1990981659648&#45;&gt;1990977600832</title>
<path fill="none" stroke="black" d="M54.33,-195C61.76,-195 70.06,-195 78.28,-195"/>
<polygon fill="black" stroke="black" points="78.24,-198.5 88.24,-195 78.24,-191.5 78.24,-198.5"/>
</g>
<!-- 1990977590608&#45;&gt;1990977594448 -->
<g id="edge3" class="edge">
<title>1990977590608&#45;&gt;1990977594448</title>
<path fill="none" stroke="black" d="M251.22,-195C258.52,-195 266.68,-195 274.83,-195"/>
<polygon fill="black" stroke="black" points="274.75,-198.5 284.75,-195 274.75,-191.5 274.75,-198.5"/>
</g>
<!-- 1990981082944&#45;&gt;1990981083520 -->
<g id="edge5" class="edge">
<title>1990981082944&#45;&gt;1990981083520</title>
<path fill="none" stroke="black" d="M454.63,-195C461.99,-195 470.22,-195 478.4,-195"/>
<polygon fill="black" stroke="black" points="478.31,-198.5 488.31,-195 478.31,-191.5 478.31,-198.5"/>
</g>
<!-- 1990981091152&#45;&gt;1990981079872 -->
<g id="edge7" class="edge">
<title>1990981091152&#45;&gt;1990981079872</title>
<path fill="none" stroke="black" d="M653.73,-195C661.09,-195 669.35,-195 677.66,-195"/>
<polygon fill="black" stroke="black" points="677.44,-198.5 687.44,-195 677.44,-191.5 677.44,-198.5"/>
</g>
<!-- 1990981075168&#45;&gt;1990981091008 -->
<g id="edge9" class="edge">
<title>1990981075168&#45;&gt;1990981091008</title>
<path fill="none" stroke="black" d="M865.41,-195C872.73,-195 880.96,-195 889.28,-195"/>
<polygon fill="black" stroke="black" points="889.08,-198.5 899.08,-195 889.08,-191.5 889.08,-198.5"/>
</g>
<!-- 1990981089712&#45;&gt;1990981081744 -->
<g id="edge11" class="edge">
<title>1990981089712&#45;&gt;1990981081744</title>
<path fill="none" stroke="black" d="M1080.81,-195C1088.19,-195 1096.49,-195 1104.86,-195"/>
<polygon fill="black" stroke="black" points="1104.71,-198.5 1114.71,-195 1104.71,-191.5 1104.71,-198.5"/>
</g>
<!-- 1990977245536&#45;&gt;1990977251776 -->
<g id="edge13" class="edge">
<title>1990977245536&#45;&gt;1990977251776</title>
<path fill="none" stroke="black" d="M1293.27,-195C1300.63,-195 1308.96,-195 1317.48,-195"/>
<polygon fill="black" stroke="black" points="1317.21,-198.5 1327.21,-195 1317.21,-191.5 1317.21,-198.5"/>
</g>
<!-- 1990977250000&#45;&gt;1990977252160 -->
<g id="edge15" class="edge">
<title>1990977250000&#45;&gt;1990977252160</title>
<path fill="none" stroke="black" d="M1523.83,-195C1531.17,-195 1539.38,-195 1547.56,-195"/>
<polygon fill="black" stroke="black" points="1547.49,-198.5 1557.49,-195 1547.49,-191.5 1547.49,-198.5"/>
</g>
<!-- 1990977250144&#45;&gt;1990977256768 -->
<g id="edge17" class="edge">
<title>1990977250144&#45;&gt;1990977256768</title>
<path fill="none" stroke="black" d="M1724.5,-195C1731.79,-195 1740.02,-195 1748.39,-195"/>
<polygon fill="black" stroke="black" points="1748.32,-198.5 1758.32,-195 1748.32,-191.5 1748.32,-198.5"/>
</g>
<!-- 1990977248464&#45;&gt;1990981517776 -->
<g id="edge19" class="edge">
<title>1990977248464&#45;&gt;1990981517776</title>
<path fill="none" stroke="black" d="M1949.17,-189.84C1956.65,-188.35 1965.17,-186.65 1973.91,-184.91"/>
<polygon fill="black" stroke="black" points="1974.43,-188.38 1983.55,-182.99 1973.06,-181.51 1974.43,-188.38"/>
</g>
<!-- 1992219361936&#45;&gt;1990979057424 -->
<g id="edge21" class="edge">
<title>1992219361936&#45;&gt;1990979057424</title>
<path fill="none" stroke="black" d="M2184.57,-156C2193.61,-156 2204.09,-156 2214.51,-156"/>
<polygon fill="black" stroke="black" points="2214.21,-159.5 2224.21,-156 2214.21,-152.5 2214.21,-159.5"/>
</g>
<!-- 1992219361936&#45;&gt;1990979282624 -->
<g id="edge22" class="edge">
<title>1992219361936&#45;&gt;1990979282624</title>
<path fill="none" stroke="black" d="M2177.89,-138.3C2195.02,-122.87 2220.09,-100.28 2239.46,-82.83"/>
<polygon fill="black" stroke="black" points="2241.7,-85.52 2246.78,-76.23 2237.01,-80.32 2241.7,-85.52"/>
</g>
<!-- 1990980175104&#45;&gt;1990980366272 -->
<g id="edge27" class="edge">
<title>1990980175104&#45;&gt;1990980366272</title>
<path fill="none" stroke="black" d="M2408.44,-179C2417.23,-179 2427.4,-179 2437.63,-179"/>
<polygon fill="black" stroke="black" points="2437.62,-182.5 2447.62,-179 2437.62,-175.5 2437.62,-182.5"/>
</g>
<!-- 1990979058720&#45;&gt;1990979047632 -->
<g id="edge26" class="edge">
<title>1990979058720&#45;&gt;1990979047632</title>
<path fill="none" stroke="black" d="M2408.44,-107C2416.67,-107 2426.1,-107 2435.66,-107"/>
<polygon fill="black" stroke="black" points="2435.35,-110.5 2445.35,-107 2435.35,-103.5 2435.35,-110.5"/>
</g>
<!-- 1990977505328&#45;&gt;1990977512672 -->
<g id="edge28" class="edge">
<title>1990977505328&#45;&gt;1990977512672</title>
<path fill="none" stroke="black" d="M2408.44,-33.77C2415.68,-33.7 2423.84,-33.63 2432.21,-33.56"/>
<polygon fill="black" stroke="black" points="2432.19,-37.06 2442.16,-33.47 2432.13,-30.06 2432.19,-37.06"/>
</g>
<!-- 1990979046144&#45;&gt;1990981525744 -->
<g id="edge32" class="edge">
<title>1990979046144&#45;&gt;1990981525744</title>
<path fill="none" stroke="black" d="M2638.88,-123.34C2650.31,-132.29 2664.73,-143.57 2677.59,-153.64"/>
<polygon fill="black" stroke="black" points="2675.39,-156.36 2685.43,-159.77 2679.71,-150.85 2675.39,-156.36"/>
</g>
<!-- 1990979055984&#45;&gt;1990981525744 -->
<g id="edge33" class="edge">
<title>1990979055984&#45;&gt;1990981525744</title>
<path fill="none" stroke="black" d="M2644.12,-179C2652.96,-179 2663.01,-179 2672.55,-179"/>
<polygon fill="black" stroke="black" points="2672.3,-182.5 2682.3,-179 2672.3,-175.5 2672.3,-182.5"/>
</g>
</g>
</svg>
