<?xml version="1.0" encoding="UTF-8" standalone="no"?>
<!DOCTYPE svg PUBLIC "-//W3C//DTD SVG 1.1//EN"
 "http://www.w3.org/Graphics/SVG/1.1/DTD/svg11.dtd">
<!-- Generated by graphviz version 11.0.0 (20240428.1522)
 -->
<!-- Title: imdf_net_1754052237.5161428 Pages: 1 -->
<svg width="3136pt" height="242pt"
 viewBox="0.00 0.00 3135.50 242.00" xmlns="http://www.w3.org/2000/svg" xmlns:xlink="http://www.w3.org/1999/xlink">
<g id="graph0" class="graph" transform="scale(1 1) rotate(0) translate(4 238)">
<title>imdf_net_1754052237.5161428</title>
<polygon fill="white" stroke="none" points="-4,4 -4,-238 3131.5,-238 3131.5,4 -4,4"/>
<!-- 1990980363824 -->
<g id="node1" class="node">
<title>1990980363824</title>
<polygon fill="white" stroke="black" points="160.75,-146 90,-146 90,-110 160.75,-110 160.75,-146"/>
<text text-anchor="middle" x="125.38" y="-122.97" font-family="Times New Roman,serif" font-size="12.00">Site Survey</text>
</g>
<!-- 1990979854144 -->
<g id="node21" class="node">
<title>1990979854144</title>
<ellipse fill="white" stroke="black" cx="223.75" cy="-128" rx="27" ry="27"/>
</g>
<!-- 1990980363824&#45;&gt;1990979854144 -->
<g id="edge2" class="edge">
<title>1990980363824&#45;&gt;1990979854144</title>
<path fill="none" stroke="black" d="M161.17,-128C168.9,-128 177.14,-128 184.98,-128"/>
<polygon fill="black" stroke="black" points="184.97,-131.5 194.97,-128 184.97,-124.5 184.97,-131.5"/>
</g>
<!-- 1990980751088 -->
<g id="node2" class="node">
<title>1990980751088</title>
<polygon fill="white" stroke="black" points="365,-146 286.75,-146 286.75,-110 365,-110 365,-146"/>
<text text-anchor="middle" x="325.88" y="-122.97" font-family="Times New Roman,serif" font-size="12.00">Artifact Scan</text>
</g>
<!-- 1990976969216 -->
<g id="node22" class="node">
<title>1990976969216</title>
<ellipse fill="white" stroke="black" cx="428" cy="-54" rx="27" ry="27"/>
</g>
<!-- 1990980751088&#45;&gt;1990976969216 -->
<g id="edge6" class="edge">
<title>1990980751088&#45;&gt;1990976969216</title>
<path fill="none" stroke="black" d="M351.88,-109.52C365.47,-99.47 382.38,-86.98 396.71,-76.39"/>
<polygon fill="black" stroke="black" points="398.52,-79.4 404.48,-70.64 394.36,-73.77 398.52,-79.4"/>
</g>
<!-- 1990978397984 -->
<g id="node23" class="node">
<title>1990978397984</title>
<ellipse fill="white" stroke="black" cx="428" cy="-201" rx="27" ry="27"/>
</g>
<!-- 1990980751088&#45;&gt;1990978397984 -->
<g id="edge5" class="edge">
<title>1990980751088&#45;&gt;1990978397984</title>
<path fill="none" stroke="black" d="M352.14,-146.42C365.64,-156.26 382.35,-168.45 396.56,-178.81"/>
<polygon fill="black" stroke="black" points="394.11,-181.35 404.25,-184.41 398.23,-175.69 394.11,-181.35"/>
</g>
<!-- 1990981347440 -->
<g id="node24" class="node">
<title>1990981347440</title>
<ellipse fill="white" stroke="black" cx="428" cy="-128" rx="27" ry="27"/>
</g>
<!-- 1990980751088&#45;&gt;1990981347440 -->
<g id="edge4" class="edge">
<title>1990980751088&#45;&gt;1990981347440</title>
<path fill="none" stroke="black" d="M365.3,-128C373.14,-128 381.38,-128 389.19,-128"/>
<polygon fill="black" stroke="black" points="389.11,-131.5 399.11,-128 389.11,-124.5 389.11,-131.5"/>
</g>
<!-- 1990981347584 -->
<g id="node3" class="node">
<title>1990981347584</title>
<polygon fill="white" stroke="black" points="580.12,-146 507.12,-146 507.12,-110 580.12,-110 580.12,-146"/>
<text text-anchor="middle" x="543.62" y="-122.97" font-family="Times New Roman,serif" font-size="12.00">Risk Assess</text>
</g>
<!-- 1990980174336 -->
<g id="node25" class="node">
<title>1990980174336</title>
<ellipse fill="white" stroke="black" cx="766.25" cy="-90" rx="27" ry="27"/>
</g>
<!-- 1990981347584&#45;&gt;1990980174336 -->
<g id="edge11" class="edge">
<title>1990981347584&#45;&gt;1990980174336</title>
<path fill="none" stroke="black" d="M580.37,-114.49C596.06,-109.1 614.85,-103.39 632.25,-100 664.03,-93.82 700.76,-91.4 727.57,-90.49"/>
<polygon fill="black" stroke="black" points="727.35,-94 737.25,-90.22 727.16,-87 727.35,-94"/>
</g>
<!-- 1990980177168 -->
<g id="node26" class="node">
<title>1990980177168</title>
<ellipse fill="white" stroke="black" cx="659.25" cy="-135" rx="27" ry="27"/>
</g>
<!-- 1990981347584&#45;&gt;1990980177168 -->
<g id="edge13" class="edge">
<title>1990981347584&#45;&gt;1990980177168</title>
<path fill="none" stroke="black" d="M580.58,-130.21C593.32,-131 607.69,-131.89 620.57,-132.68"/>
<polygon fill="black" stroke="black" points="620.19,-136.16 630.39,-133.28 620.62,-129.18 620.19,-136.16"/>
</g>
<!-- 1990978393472 -->
<g id="node4" class="node">
<title>1990978393472</title>
<polygon fill="white" stroke="black" points="584.25,-223 503,-223 503,-187 584.25,-187 584.25,-223"/>
<text text-anchor="middle" x="543.62" y="-199.97" font-family="Times New Roman,serif" font-size="12.00">Local Liaison</text>
</g>
<!-- 1990980189120 -->
<g id="node27" class="node">
<title>1990980189120</title>
<ellipse fill="white" stroke="black" cx="659.25" cy="-207" rx="27" ry="27"/>
</g>
<!-- 1990978393472&#45;&gt;1990980189120 -->
<g id="edge12" class="edge">
<title>1990978393472&#45;&gt;1990980189120</title>
<path fill="none" stroke="black" d="M584.68,-205.71C596.35,-205.91 609.05,-206.13 620.56,-206.34"/>
<polygon fill="black" stroke="black" points="620.47,-209.84 630.53,-206.51 620.59,-202.84 620.47,-209.84"/>
</g>
<!-- 1990980878704 -->
<g id="node5" class="node">
<title>1990980878704</title>
<polygon fill="white" stroke="black" points="596.25,-54 491,-54 491,-18 596.25,-18 596.25,-54"/>
<text text-anchor="middle" x="543.62" y="-30.98" font-family="Times New Roman,serif" font-size="12.00">Provenance Check</text>
</g>
<!-- 1990977971808 -->
<g id="node28" class="node">
<title>1990977971808</title>
<ellipse fill="white" stroke="black" cx="659.25" cy="-27" rx="27" ry="27"/>
</g>
<!-- 1990980878704&#45;&gt;1990977971808 -->
<g id="edge10" class="edge">
<title>1990980878704&#45;&gt;1990977971808</title>
<path fill="none" stroke="black" d="M596.45,-31.9C604.61,-31.25 612.91,-30.59 620.67,-29.98"/>
<polygon fill="black" stroke="black" points="620.74,-33.48 630.43,-29.2 620.19,-26.5 620.74,-33.48"/>
</g>
<!-- 1990977962640 -->
<g id="node6" class="node">
<title>1990977962640</title>
<polygon fill="white" stroke="black" points="807.62,-45 724.88,-45 724.88,-9 807.62,-9 807.62,-45"/>
<text text-anchor="middle" x="766.25" y="-21.98" font-family="Times New Roman,serif" font-size="12.00">Legal Review</text>
</g>
<!-- 1990980186528 -->
<g id="node30" class="node">
<title>1990980186528</title>
<ellipse fill="white" stroke="black" cx="873.25" cy="-27" rx="27" ry="27"/>
</g>
<!-- 1990977962640&#45;&gt;1990980186528 -->
<g id="edge19" class="edge">
<title>1990977962640&#45;&gt;1990980186528</title>
<path fill="none" stroke="black" d="M807.85,-27C816.65,-27 825.93,-27 834.62,-27"/>
<polygon fill="black" stroke="black" points="834.49,-30.5 844.49,-27 834.49,-23.5 834.49,-30.5"/>
</g>
<!-- 1990975877584 -->
<g id="node7" class="node">
<title>1990975877584</title>
<polygon fill="white" stroke="black" points="810.25,-171 722.25,-171 722.25,-135 810.25,-135 810.25,-171"/>
<text text-anchor="middle" x="766.25" y="-147.97" font-family="Times New Roman,serif" font-size="12.00">Permit Request</text>
</g>
<!-- 1990980180624 -->
<g id="node29" class="node">
<title>1990980180624</title>
<ellipse fill="white" stroke="black" cx="988.12" cy="-153" rx="27" ry="27"/>
</g>
<!-- 1990975877584&#45;&gt;1990980180624 -->
<g id="edge20" class="edge">
<title>1990975877584&#45;&gt;1990980180624</title>
<path fill="none" stroke="black" d="M810.69,-153C851.09,-153 910.69,-153 949.21,-153"/>
<polygon fill="black" stroke="black" points="949.18,-156.5 959.18,-153 949.18,-149.5 949.18,-156.5"/>
</g>
<!-- 1990977973200 -->
<g id="node8" class="node">
<title>1990977973200</title>
<polygon fill="white" stroke="black" points="1040,-108 936.25,-108 936.25,-72 1040,-72 1040,-108"/>
<text text-anchor="middle" x="988.12" y="-84.97" font-family="Times New Roman,serif" font-size="12.00">Funding Approval</text>
</g>
<!-- 1990980177984 -->
<g id="node31" class="node">
<title>1990980177984</title>
<ellipse fill="white" stroke="black" cx="1103" cy="-90" rx="27" ry="27"/>
</g>
<!-- 1990977973200&#45;&gt;1990980177984 -->
<g id="edge18" class="edge">
<title>1990977973200&#45;&gt;1990980177984</title>
<path fill="none" stroke="black" d="M1040.28,-90C1048.41,-90 1056.69,-90 1064.44,-90"/>
<polygon fill="black" stroke="black" points="1064.18,-93.5 1074.18,-90 1064.18,-86.5 1064.18,-93.5"/>
</g>
<!-- 1990979172112 -->
<g id="node9" class="node">
<title>1990979172112</title>
<polygon fill="white" stroke="black" points="1255.5,-139 1166,-139 1166,-103 1255.5,-103 1255.5,-139"/>
<text text-anchor="middle" x="1210.75" y="-115.97" font-family="Times New Roman,serif" font-size="12.00">Secure Packing</text>
</g>
<!-- 1990977599248 -->
<g id="node32" class="node">
<title>1990977599248</title>
<ellipse fill="white" stroke="black" cx="1318.5" cy="-121" rx="27" ry="27"/>
</g>
<!-- 1990979172112&#45;&gt;1990977599248 -->
<g id="edge24" class="edge">
<title>1990979172112&#45;&gt;1990977599248</title>
<path fill="none" stroke="black" d="M1255.98,-121C1263.95,-121 1272.19,-121 1279.95,-121"/>
<polygon fill="black" stroke="black" points="1279.74,-124.5 1289.74,-121 1279.74,-117.5 1279.74,-124.5"/>
</g>
<!-- 1990978840928 -->
<g id="node10" class="node">
<title>1990978840928</title>
<polygon fill="white" stroke="black" points="1485.25,-139 1381.5,-139 1381.5,-103 1485.25,-103 1485.25,-139"/>
<text text-anchor="middle" x="1433.38" y="-115.97" font-family="Times New Roman,serif" font-size="12.00">Transport Arrange</text>
</g>
<!-- 1990978844336 -->
<g id="node33" class="node">
<title>1990978844336</title>
<ellipse fill="white" stroke="black" cx="1548.25" cy="-121" rx="27" ry="27"/>
</g>
<!-- 1990978840928&#45;&gt;1990978844336 -->
<g id="edge26" class="edge">
<title>1990978840928&#45;&gt;1990978844336</title>
<path fill="none" stroke="black" d="M1485.53,-121C1493.66,-121 1501.94,-121 1509.69,-121"/>
<polygon fill="black" stroke="black" points="1509.43,-124.5 1519.43,-121 1509.43,-117.5 1509.43,-124.5"/>
</g>
<!-- 1990978844960 -->
<g id="node11" class="node">
<title>1990978844960</title>
<polygon fill="white" stroke="black" points="1697,-139 1611.25,-139 1611.25,-103 1697,-103 1697,-139"/>
<text text-anchor="middle" x="1654.12" y="-115.97" font-family="Times New Roman,serif" font-size="12.00">Customs Clear</text>
</g>
<!-- 1990978839104 -->
<g id="node34" class="node">
<title>1990978839104</title>
<ellipse fill="white" stroke="black" cx="1760" cy="-121" rx="27" ry="27"/>
</g>
<!-- 1990978844960&#45;&gt;1990978839104 -->
<g id="edge28" class="edge">
<title>1990978844960&#45;&gt;1990978839104</title>
<path fill="none" stroke="black" d="M1697.37,-121C1705.28,-121 1713.5,-121 1721.26,-121"/>
<polygon fill="black" stroke="black" points="1721.07,-124.5 1731.07,-121 1721.07,-117.5 1721.07,-124.5"/>
</g>
<!-- 1990977369392 -->
<g id="node12" class="node">
<title>1990977369392</title>
<polygon fill="white" stroke="black" points="1921.5,-139 1823,-139 1823,-103 1921.5,-103 1921.5,-139"/>
<text text-anchor="middle" x="1872.25" y="-115.97" font-family="Times New Roman,serif" font-size="12.00">Condition Report</text>
</g>
<!-- 1990977357152 -->
<g id="node35" class="node">
<title>1990977357152</title>
<ellipse fill="white" stroke="black" cx="1984.5" cy="-121" rx="27" ry="27"/>
</g>
<!-- 1990977369392&#45;&gt;1990977357152 -->
<g id="edge30" class="edge">
<title>1990977369392&#45;&gt;1990977357152</title>
<path fill="none" stroke="black" d="M1921.93,-121C1929.88,-121 1938.01,-121 1945.65,-121"/>
<polygon fill="black" stroke="black" points="1945.64,-124.5 1955.64,-121 1945.64,-117.5 1945.64,-124.5"/>
</g>
<!-- 1990977365360 -->
<g id="node13" class="node">
<title>1990977365360</title>
<polygon fill="white" stroke="black" points="2150.5,-139 2047.5,-139 2047.5,-103 2150.5,-103 2150.5,-139"/>
<text text-anchor="middle" x="2099" y="-115.97" font-family="Times New Roman,serif" font-size="12.00">Conservation Plan</text>
</g>
<!-- 1990977358304 -->
<g id="node36" class="node">
<title>1990977358304</title>
<ellipse fill="white" stroke="black" cx="2213.5" cy="-121" rx="27" ry="27"/>
</g>
<!-- 1990977365360&#45;&gt;1990977358304 -->
<g id="edge32" class="edge">
<title>1990977365360&#45;&gt;1990977358304</title>
<path fill="none" stroke="black" d="M2150.98,-121C2159,-121 2167.15,-121 2174.79,-121"/>
<polygon fill="black" stroke="black" points="2174.77,-124.5 2184.77,-121 2174.77,-117.5 2174.77,-124.5"/>
</g>
<!-- 1990980122912 -->
<g id="node14" class="node">
<title>1990980122912</title>
<polygon fill="white" stroke="black" points="2375,-166 2276.5,-166 2276.5,-130 2375,-130 2375,-166"/>
<text text-anchor="middle" x="2325.75" y="-142.97" font-family="Times New Roman,serif" font-size="12.00">Ownership Audit</text>
</g>
<!-- 1990977368672 -->
<g id="node37" class="node">
<title>1990977368672</title>
<ellipse fill="white" stroke="black" cx="2438" cy="-121" rx="27" ry="27"/>
</g>
<!-- 1990980122912&#45;&gt;1990977368672 -->
<g id="edge36" class="edge">
<title>1990980122912&#45;&gt;1990977368672</title>
<path fill="none" stroke="black" d="M2375.43,-136.08C2383.72,-134.05 2392.21,-131.97 2400.14,-130.03"/>
<polygon fill="black" stroke="black" points="2400.9,-133.44 2409.78,-127.67 2399.24,-126.65 2400.9,-133.44"/>
</g>
<!-- 1990980119120 -->
<g id="node15" class="node">
<title>1990980119120</title>
<polygon fill="white" stroke="black" points="2363.38,-112 2288.12,-112 2288.12,-76 2363.38,-76 2363.38,-112"/>
<text text-anchor="middle" x="2325.75" y="-88.97" font-family="Times New Roman,serif" font-size="12.00">Exhibit Prep</text>
</g>
<!-- 1990980119120&#45;&gt;1990977368672 -->
<g id="edge35" class="edge">
<title>1990980119120&#45;&gt;1990977368672</title>
<path fill="none" stroke="black" d="M2363.77,-103.07C2375.62,-105.97 2388.73,-109.18 2400.54,-112.07"/>
<polygon fill="black" stroke="black" points="2399.37,-115.39 2409.91,-114.37 2401.03,-108.59 2399.37,-115.39"/>
</g>
<!-- 1990977367136 -->
<g id="node16" class="node">
<title>1990977367136</title>
<polygon fill="black" stroke="black" points="2555,-139 2501,-139 2501,-103 2555,-103 2555,-139"/>
</g>
<!-- 1990980358640 -->
<g id="node38" class="node">
<title>1990980358640</title>
<ellipse fill="white" stroke="black" cx="2618" cy="-121" rx="27" ry="27"/>
</g>
<!-- 1990977367136&#45;&gt;1990980358640 -->
<g id="edge38" class="edge">
<title>1990977367136&#45;&gt;1990980358640</title>
<path fill="none" stroke="black" d="M2555.4,-121C2562.89,-121 2571.18,-121 2579.2,-121"/>
<polygon fill="black" stroke="black" points="2579.1,-124.5 2589.1,-121 2579.1,-117.5 2579.1,-124.5"/>
</g>
<!-- 1990980364352 -->
<g id="node17" class="node">
<title>1990980364352</title>
<polygon fill="white" stroke="black" points="2787.75,-112 2681,-112 2681,-76 2787.75,-76 2787.75,-112"/>
<text text-anchor="middle" x="2734.38" y="-88.97" font-family="Times New Roman,serif" font-size="12.00">Compliance Verify</text>
</g>
<!-- 1990980360848 -->
<g id="node39" class="node">
<title>1990980360848</title>
<ellipse fill="white" stroke="black" cx="2850.75" cy="-93" rx="27" ry="27"/>
</g>
<!-- 1990980364352&#45;&gt;1990980360848 -->
<g id="edge40" class="edge">
<title>1990980364352&#45;&gt;1990980360848</title>
<path fill="none" stroke="black" d="M2788.21,-93.54C2796.2,-93.47 2804.3,-93.4 2811.89,-93.33"/>
<polygon fill="black" stroke="black" points="2811.82,-96.83 2821.79,-93.24 2811.76,-89.83 2811.82,-96.83"/>
</g>
<!-- 1990980363680 -->
<g id="node18" class="node">
<title>1990980363680</title>
<polygon fill="white" stroke="black" points="3008.12,-165 2935.12,-165 2935.12,-129 3008.12,-129 3008.12,-165"/>
<text text-anchor="middle" x="2971.62" y="-141.97" font-family="Times New Roman,serif" font-size="12.00">Risk Assess</text>
</g>
<!-- 1990980363680&#45;&gt;1990980358640 -->
<g id="edge43" class="edge">
<title>1990980363680&#45;&gt;1990980358640</title>
<path fill="none" stroke="black" d="M2934.64,-144.34C2867.81,-139.4 2725.13,-128.85 2656.88,-123.8"/>
<polygon fill="black" stroke="black" points="2657.17,-120.31 2646.94,-123.07 2656.65,-127.29 2657.17,-120.31"/>
</g>
<!-- 1990980356528 -->
<g id="node19" class="node">
<title>1990980356528</title>
<polygon fill="white" stroke="black" points="3029.5,-111 2913.75,-111 2913.75,-75 3029.5,-75 3029.5,-111"/>
<text text-anchor="middle" x="2971.62" y="-87.97" font-family="Times New Roman,serif" font-size="12.00">Final Documentation</text>
</g>
<!-- 1990977597616 -->
<g id="node40" class="node">
<title>1990977597616</title>
<ellipse fill="white" stroke="black" cx="3096.5" cy="-93" rx="27" ry="27"/>
<ellipse fill="none" stroke="black" cx="3096.5" cy="-93" rx="31" ry="31"/>
<text text-anchor="start" x="3080" y="-77.6" font-family="Times New Roman,serif" font-size="32.00">■</text>
</g>
<!-- 1990980356528&#45;&gt;1990977597616 -->
<g id="edge44" class="edge">
<title>1990980356528&#45;&gt;1990977597616</title>
<path fill="none" stroke="black" d="M3029.75,-93C3037.9,-93 3046.16,-93 3053.94,-93"/>
<polygon fill="black" stroke="black" points="3053.8,-96.5 3063.8,-93 3053.8,-89.5 3053.8,-96.5"/>
</g>
<!-- 1990977594304 -->
<g id="node20" class="node">
<title>1990977594304</title>
<ellipse fill="white" stroke="black" cx="27" cy="-128" rx="27" ry="27"/>
<text text-anchor="start" x="9.75" y="-110.7" font-family="Times New Roman,serif" font-size="34.00">●</text>
</g>
<!-- 1990977594304&#45;&gt;1990980363824 -->
<g id="edge1" class="edge">
<title>1990977594304&#45;&gt;1990980363824</title>
<path fill="none" stroke="black" d="M54.33,-128C61.76,-128 70.06,-128 78.28,-128"/>
<polygon fill="black" stroke="black" points="78.24,-131.5 88.24,-128 78.24,-124.5 78.24,-131.5"/>
</g>
<!-- 1990979854144&#45;&gt;1990980751088 -->
<g id="edge3" class="edge">
<title>1990979854144&#45;&gt;1990980751088</title>
<path fill="none" stroke="black" d="M251.06,-128C258.38,-128 266.59,-128 274.8,-128"/>
<polygon fill="black" stroke="black" points="274.8,-131.5 284.8,-128 274.8,-124.5 274.8,-131.5"/>
</g>
<!-- 1990976969216&#45;&gt;1990980878704 -->
<g id="edge8" class="edge">
<title>1990976969216&#45;&gt;1990980878704</title>
<path fill="none" stroke="black" d="M455.07,-49.87C462.45,-48.7 470.82,-47.38 479.39,-46.02"/>
<polygon fill="black" stroke="black" points="479.87,-49.48 489.2,-44.46 478.78,-42.57 479.87,-49.48"/>
</g>
<!-- 1990978397984&#45;&gt;1990978393472 -->
<g id="edge7" class="edge">
<title>1990978397984&#45;&gt;1990978393472</title>
<path fill="none" stroke="black" d="M455.35,-201.93C466.09,-202.31 478.9,-202.76 491.34,-203.19"/>
<polygon fill="black" stroke="black" points="490.98,-206.68 501.09,-203.54 491.22,-199.69 490.98,-206.68"/>
</g>
<!-- 1990981347440&#45;&gt;1990981347584 -->
<g id="edge9" class="edge">
<title>1990981347440&#45;&gt;1990981347584</title>
<path fill="none" stroke="black" d="M455.35,-128C467.34,-128 481.89,-128 495.65,-128"/>
<polygon fill="black" stroke="black" points="495.43,-131.5 505.43,-128 495.43,-124.5 495.43,-131.5"/>
</g>
<!-- 1990980174336&#45;&gt;1990977973200 -->
<g id="edge16" class="edge">
<title>1990980174336&#45;&gt;1990977973200</title>
<path fill="none" stroke="black" d="M793.34,-90C825.5,-90 881.23,-90 924.7,-90"/>
<polygon fill="black" stroke="black" points="924.52,-93.5 934.52,-90 924.52,-86.5 924.52,-93.5"/>
</g>
<!-- 1990980177168&#45;&gt;1990975877584 -->
<g id="edge15" class="edge">
<title>1990980177168&#45;&gt;1990975877584</title>
<path fill="none" stroke="black" d="M686.21,-139.45C693.72,-140.74 702.22,-142.2 710.79,-143.66"/>
<polygon fill="black" stroke="black" points="710.08,-147.09 720.53,-145.33 711.27,-140.19 710.08,-147.09"/>
</g>
<!-- 1990980189120&#45;&gt;1990975877584 -->
<g id="edge14" class="edge">
<title>1990980189120&#45;&gt;1990975877584</title>
<path fill="none" stroke="black" d="M683.81,-194.88C694.3,-189.49 707.03,-182.94 719.27,-176.65"/>
<polygon fill="black" stroke="black" points="720.75,-179.82 728.04,-172.14 717.55,-173.6 720.75,-179.82"/>
</g>
<!-- 1990977971808&#45;&gt;1990977962640 -->
<g id="edge17" class="edge">
<title>1990977971808&#45;&gt;1990977962640</title>
<path fill="none" stroke="black" d="M686.75,-27C694.78,-27 703.89,-27 713,-27"/>
<polygon fill="black" stroke="black" points="712.93,-30.5 722.93,-27 712.93,-23.5 712.93,-30.5"/>
</g>
<!-- 1990980180624&#45;&gt;1990979172112 -->
<g id="edge23" class="edge">
<title>1990980180624&#45;&gt;1990979172112</title>
<path fill="none" stroke="black" d="M1015.3,-149.2C1049.43,-144.25 1110,-135.47 1154.5,-129.01"/>
<polygon fill="black" stroke="black" points="1154.83,-132.5 1164.23,-127.6 1153.83,-125.57 1154.83,-132.5"/>
</g>
<!-- 1990980186528&#45;&gt;1990977973200 -->
<g id="edge21" class="edge">
<title>1990980186528&#45;&gt;1990977973200</title>
<path fill="none" stroke="black" d="M897.36,-39.9C910.93,-47.47 928.5,-57.28 944.49,-66.21"/>
<polygon fill="black" stroke="black" points="942.44,-69.07 952.88,-70.88 945.85,-62.95 942.44,-69.07"/>
</g>
<!-- 1990980177984&#45;&gt;1990979172112 -->
<g id="edge22" class="edge">
<title>1990980177984&#45;&gt;1990979172112</title>
<path fill="none" stroke="black" d="M1129.33,-97.43C1137.06,-99.69 1145.89,-102.28 1154.79,-104.89"/>
<polygon fill="black" stroke="black" points="1153.58,-108.18 1164.16,-107.64 1155.55,-101.47 1153.58,-108.18"/>
</g>
<!-- 1990977599248&#45;&gt;1990978840928 -->
<g id="edge25" class="edge">
<title>1990977599248&#45;&gt;1990978840928</title>
<path fill="none" stroke="black" d="M1345.96,-121C1353.22,-121 1361.41,-121 1369.78,-121"/>
<polygon fill="black" stroke="black" points="1369.73,-124.5 1379.73,-121 1369.73,-117.5 1369.73,-124.5"/>
</g>
<!-- 1990978844336&#45;&gt;1990978844960 -->
<g id="edge27" class="edge">
<title>1990978844336&#45;&gt;1990978844960</title>
<path fill="none" stroke="black" d="M1575.73,-121C1583.09,-121 1591.35,-121 1599.66,-121"/>
<polygon fill="black" stroke="black" points="1599.44,-124.5 1609.44,-121 1599.44,-117.5 1599.44,-124.5"/>
</g>
<!-- 1990978839104&#45;&gt;1990977369392 -->
<g id="edge29" class="edge">
<title>1990978839104&#45;&gt;1990977369392</title>
<path fill="none" stroke="black" d="M1787.41,-121C1794.68,-121 1802.87,-121 1811.22,-121"/>
<polygon fill="black" stroke="black" points="1811.11,-124.5 1821.11,-121 1811.11,-117.5 1811.11,-124.5"/>
</g>
<!-- 1990977357152&#45;&gt;1990977365360 -->
<g id="edge31" class="edge">
<title>1990977357152&#45;&gt;1990977365360</title>
<path fill="none" stroke="black" d="M2011.88,-121C2019.11,-121 2027.27,-121 2035.61,-121"/>
<polygon fill="black" stroke="black" points="2035.52,-124.5 2045.52,-121 2035.52,-117.5 2035.52,-124.5"/>
</g>
<!-- 1990977358304&#45;&gt;1990980122912 -->
<g id="edge34" class="edge">
<title>1990977358304&#45;&gt;1990980122912</title>
<path fill="none" stroke="black" d="M2240.07,-127.26C2247.76,-129.14 2256.54,-131.29 2265.46,-133.48"/>
<polygon fill="black" stroke="black" points="2264.34,-136.81 2274.88,-135.79 2266,-130.01 2264.34,-136.81"/>
</g>
<!-- 1990977358304&#45;&gt;1990980119120 -->
<g id="edge33" class="edge">
<title>1990977358304&#45;&gt;1990980119120</title>
<path fill="none" stroke="black" d="M2240.07,-114.74C2251.09,-112.04 2264.35,-108.79 2277.07,-105.68"/>
<polygon fill="black" stroke="black" points="2277.69,-109.13 2286.57,-103.35 2276.02,-102.33 2277.69,-109.13"/>
</g>
<!-- 1990977368672&#45;&gt;1990977367136 -->
<g id="edge37" class="edge">
<title>1990977368672&#45;&gt;1990977367136</title>
<path fill="none" stroke="black" d="M2465.4,-121C2472.89,-121 2481.18,-121 2489.2,-121"/>
<polygon fill="black" stroke="black" points="2489.1,-124.5 2499.1,-121 2489.1,-117.5 2489.1,-124.5"/>
</g>
<!-- 1990980358640&#45;&gt;1990980364352 -->
<g id="edge39" class="edge">
<title>1990980358640&#45;&gt;1990980364352</title>
<path fill="none" stroke="black" d="M2644.67,-114.94C2652.17,-113.17 2660.72,-111.15 2669.49,-109.08"/>
<polygon fill="black" stroke="black" points="2670.25,-112.5 2679.18,-106.79 2668.64,-105.69 2670.25,-112.5"/>
</g>
<!-- 1990980360848&#45;&gt;1990980363680 -->
<g id="edge41" class="edge">
<title>1990980360848&#45;&gt;1990980363680</title>
<path fill="none" stroke="black" d="M2875.81,-103.93C2889.85,-110.31 2908.04,-118.57 2924.73,-126.15"/>
<polygon fill="black" stroke="black" points="2922.94,-129.18 2933.49,-130.13 2925.84,-122.81 2922.94,-129.18"/>
</g>
<!-- 1990980360848&#45;&gt;1990980356528 -->
<g id="edge42" class="edge">
<title>1990980360848&#45;&gt;1990980356528</title>
<path fill="none" stroke="black" d="M2878.13,-93C2885.46,-93 2893.76,-93 2902.32,-93"/>
<polygon fill="black" stroke="black" points="2902.14,-96.5 2912.14,-93 2902.14,-89.5 2902.14,-96.5"/>
</g>
</g>
</svg>
