<?xml version="1.0" encoding="UTF-8" standalone="no"?>
<!DOCTYPE svg PUBLIC "-//W3C//DTD SVG 1.1//EN"
 "http://www.w3.org/Graphics/SVG/1.1/DTD/svg11.dtd">
<!-- Generated by graphviz version 11.0.0 (20240428.1522)
 -->
<!-- Title: imdf_net_1754052243.9379349 Pages: 1 -->
<svg width="2834pt" height="206pt"
 viewBox="0.00 0.00 2833.75 206.00" xmlns="http://www.w3.org/2000/svg" xmlns:xlink="http://www.w3.org/1999/xlink">
<g id="graph0" class="graph" transform="scale(1 1) rotate(0) translate(4 202)">
<title>imdf_net_1754052243.9379349</title>
<polygon fill="white" stroke="none" points="-4,4 -4,-202 2829.75,-202 2829.75,4 -4,4"/>
<!-- 1990979285744 -->
<g id="node1" class="node">
<title>1990979285744</title>
<polygon fill="white" stroke="black" points="160.75,-117 90,-117 90,-81 160.75,-81 160.75,-117"/>
<text text-anchor="middle" x="125.38" y="-93.97" font-family="Times New Roman,serif" font-size="12.00">Site Survey</text>
</g>
<!-- 1990979284208 -->
<g id="node19" class="node">
<title>1990979284208</title>
<ellipse fill="white" stroke="black" cx="223.75" cy="-99" rx="27" ry="27"/>
</g>
<!-- 1990979285744&#45;&gt;1990979284208 -->
<g id="edge2" class="edge">
<title>1990979285744&#45;&gt;1990979284208</title>
<path fill="none" stroke="black" d="M161.17,-99C168.9,-99 177.14,-99 184.98,-99"/>
<polygon fill="black" stroke="black" points="184.97,-102.5 194.97,-99 184.97,-95.5 184.97,-102.5"/>
</g>
<!-- 1990979920832 -->
<g id="node2" class="node">
<title>1990979920832</title>
<polygon fill="white" stroke="black" points="373.25,-117 286.75,-117 286.75,-81 373.25,-81 373.25,-117"/>
<text text-anchor="middle" x="330" y="-93.97" font-family="Times New Roman,serif" font-size="12.00">Permit Review</text>
</g>
<!-- 1990979922224 -->
<g id="node20" class="node">
<title>1990979922224</title>
<ellipse fill="white" stroke="black" cx="436.25" cy="-99" rx="27" ry="27"/>
</g>
<!-- 1990979920832&#45;&gt;1990979922224 -->
<g id="edge4" class="edge">
<title>1990979920832&#45;&gt;1990979922224</title>
<path fill="none" stroke="black" d="M373.7,-99C381.62,-99 389.84,-99 397.59,-99"/>
<polygon fill="black" stroke="black" points="397.39,-102.5 407.39,-99 397.39,-95.5 397.39,-102.5"/>
</g>
<!-- 1990979918768 -->
<g id="node3" class="node">
<title>1990979918768</title>
<polygon fill="white" stroke="black" points="578.25,-117 499.25,-117 499.25,-81 578.25,-81 578.25,-117"/>
<text text-anchor="middle" x="538.75" y="-93.97" font-family="Times New Roman,serif" font-size="12.00">Load Testing</text>
</g>
<!-- 1990979173456 -->
<g id="node21" class="node">
<title>1990979173456</title>
<ellipse fill="white" stroke="black" cx="641.25" cy="-99" rx="27" ry="27"/>
</g>
<!-- 1990979918768&#45;&gt;1990979173456 -->
<g id="edge6" class="edge">
<title>1990979918768&#45;&gt;1990979173456</title>
<path fill="none" stroke="black" d="M578.61,-99C586.46,-99 594.7,-99 602.51,-99"/>
<polygon fill="black" stroke="black" points="602.41,-102.5 612.41,-99 602.41,-95.5 602.41,-102.5"/>
</g>
<!-- 1990979167072 -->
<g id="node4" class="node">
<title>1990979167072</title>
<polygon fill="white" stroke="black" points="787,-117 704.25,-117 704.25,-81 787,-81 787,-117"/>
<text text-anchor="middle" x="745.62" y="-93.97" font-family="Times New Roman,serif" font-size="12.00">Soil Sampling</text>
</g>
<!-- 1990978993472 -->
<g id="node22" class="node">
<title>1990978993472</title>
<ellipse fill="white" stroke="black" cx="850" cy="-99" rx="27" ry="27"/>
</g>
<!-- 1990979167072&#45;&gt;1990978993472 -->
<g id="edge8" class="edge">
<title>1990979167072&#45;&gt;1990978993472</title>
<path fill="none" stroke="black" d="M787.38,-99C795.23,-99 803.42,-99 811.17,-99"/>
<polygon fill="black" stroke="black" points="810.99,-102.5 820.99,-99 810.99,-95.5 810.99,-102.5"/>
</g>
<!-- 1990978980080 -->
<g id="node5" class="node">
<title>1990978980080</title>
<polygon fill="white" stroke="black" points="1000.25,-117 913,-117 913,-81 1000.25,-81 1000.25,-117"/>
<text text-anchor="middle" x="956.62" y="-93.97" font-family="Times New Roman,serif" font-size="12.00">System Design</text>
</g>
<!-- 1990978980560 -->
<g id="node23" class="node">
<title>1990978980560</title>
<ellipse fill="white" stroke="black" cx="1063.25" cy="-99" rx="27" ry="27"/>
</g>
<!-- 1990978980080&#45;&gt;1990978980560 -->
<g id="edge10" class="edge">
<title>1990978980080&#45;&gt;1990978980560</title>
<path fill="none" stroke="black" d="M1000.48,-99C1008.43,-99 1016.67,-99 1024.45,-99"/>
<polygon fill="black" stroke="black" points="1024.29,-102.5 1034.29,-99 1024.29,-95.5 1024.29,-102.5"/>
</g>
<!-- 1990978987088 -->
<g id="node6" class="node">
<title>1990978987088</title>
<polygon fill="white" stroke="black" points="1229.25,-117 1126.25,-117 1126.25,-81 1229.25,-81 1229.25,-117"/>
<text text-anchor="middle" x="1177.75" y="-93.97" font-family="Times New Roman,serif" font-size="12.00">Module Assembly</text>
</g>
<!-- 1990980438592 -->
<g id="node24" class="node">
<title>1990980438592</title>
<ellipse fill="white" stroke="black" cx="1292.25" cy="-171" rx="27" ry="27"/>
</g>
<!-- 1990978987088&#45;&gt;1990980438592 -->
<g id="edge14" class="edge">
<title>1990978987088&#45;&gt;1990980438592</title>
<path fill="none" stroke="black" d="M1207.43,-117.35C1223.28,-127.5 1243.01,-140.13 1259.34,-150.58"/>
<polygon fill="black" stroke="black" points="1257.43,-153.51 1267.74,-155.95 1261.2,-147.61 1257.43,-153.51"/>
</g>
<!-- 1990980447568 -->
<g id="node25" class="node">
<title>1990980447568</title>
<ellipse fill="white" stroke="black" cx="1292.25" cy="-99" rx="27" ry="27"/>
</g>
<!-- 1990978987088&#45;&gt;1990980447568 -->
<g id="edge13" class="edge">
<title>1990978987088&#45;&gt;1990980447568</title>
<path fill="none" stroke="black" d="M1229.73,-99C1237.75,-99 1245.9,-99 1253.54,-99"/>
<polygon fill="black" stroke="black" points="1253.52,-102.5 1263.52,-99 1253.52,-95.5 1253.52,-102.5"/>
</g>
<!-- 1990980447088 -->
<g id="node26" class="node">
<title>1990980447088</title>
<ellipse fill="white" stroke="black" cx="1292.25" cy="-27" rx="27" ry="27"/>
</g>
<!-- 1990978987088&#45;&gt;1990980447088 -->
<g id="edge12" class="edge">
<title>1990978987088&#45;&gt;1990980447088</title>
<path fill="none" stroke="black" d="M1207.43,-80.65C1223.28,-70.5 1243.01,-57.87 1259.34,-47.42"/>
<polygon fill="black" stroke="black" points="1261.2,-50.39 1267.74,-42.05 1257.43,-44.49 1261.2,-50.39"/>
</g>
<!-- 1990980445072 -->
<g id="node7" class="node">
<title>1990980445072</title>
<polygon fill="white" stroke="black" points="1459.75,-189 1355.25,-189 1355.25,-153 1459.75,-153 1459.75,-189"/>
<text text-anchor="middle" x="1407.5" y="-165.97" font-family="Times New Roman,serif" font-size="12.00">Energy Integration</text>
</g>
<!-- 1990980446272 -->
<g id="node28" class="node">
<title>1990980446272</title>
<ellipse fill="white" stroke="black" cx="1522.75" cy="-171" rx="27" ry="27"/>
</g>
<!-- 1990980445072&#45;&gt;1990980446272 -->
<g id="edge19" class="edge">
<title>1990980445072&#45;&gt;1990980446272</title>
<path fill="none" stroke="black" d="M1460.15,-171C1468.19,-171 1476.37,-171 1484.02,-171"/>
<polygon fill="black" stroke="black" points="1484.01,-174.5 1494.01,-171 1484.01,-167.5 1484.01,-174.5"/>
</g>
<!-- 1990980446608 -->
<g id="node8" class="node">
<title>1990980446608</title>
<polygon fill="white" stroke="black" points="1447.38,-117 1367.62,-117 1367.62,-81 1447.38,-81 1447.38,-117"/>
<text text-anchor="middle" x="1407.5" y="-93.97" font-family="Times New Roman,serif" font-size="12.00">Sensor Install</text>
</g>
<!-- 1990980449776 -->
<g id="node29" class="node">
<title>1990980449776</title>
<ellipse fill="white" stroke="black" cx="1522.75" cy="-99" rx="27" ry="27"/>
</g>
<!-- 1990980446608&#45;&gt;1990980449776 -->
<g id="edge20" class="edge">
<title>1990980446608&#45;&gt;1990980449776</title>
<path fill="none" stroke="black" d="M1447.79,-99C1459.58,-99 1472.47,-99 1484.15,-99"/>
<polygon fill="black" stroke="black" points="1483.82,-102.5 1493.82,-99 1483.82,-95.5 1483.82,-102.5"/>
</g>
<!-- 1990980441904 -->
<g id="node9" class="node">
<title>1990980441904</title>
<polygon fill="white" stroke="black" points="1452.25,-45 1362.75,-45 1362.75,-9 1452.25,-9 1452.25,-45"/>
<text text-anchor="middle" x="1407.5" y="-21.98" font-family="Times New Roman,serif" font-size="12.00">Irrigation Setup</text>
</g>
<!-- 1990980436528 -->
<g id="node27" class="node">
<title>1990980436528</title>
<ellipse fill="white" stroke="black" cx="1522.75" cy="-27" rx="27" ry="27"/>
</g>
<!-- 1990980441904&#45;&gt;1990980436528 -->
<g id="edge18" class="edge">
<title>1990980441904&#45;&gt;1990980436528</title>
<path fill="none" stroke="black" d="M1452.61,-27C1462.97,-27 1473.91,-27 1483.96,-27"/>
<polygon fill="black" stroke="black" points="1483.75,-30.5 1493.75,-27 1483.75,-23.5 1483.75,-30.5"/>
</g>
<!-- 1990980446464 -->
<g id="node10" class="node">
<title>1990980446464</title>
<polygon fill="white" stroke="black" points="1678.25,-117 1585.75,-117 1585.75,-81 1678.25,-81 1678.25,-117"/>
<text text-anchor="middle" x="1632" y="-93.97" font-family="Times New Roman,serif" font-size="12.00">Nutrient Dosing</text>
</g>
<!-- 1990980444064 -->
<g id="node30" class="node">
<title>1990980444064</title>
<ellipse fill="white" stroke="black" cx="1741.25" cy="-99" rx="27" ry="27"/>
</g>
<!-- 1990980446464&#45;&gt;1990980444064 -->
<g id="edge24" class="edge">
<title>1990980446464&#45;&gt;1990980444064</title>
<path fill="none" stroke="black" d="M1678.48,-99C1686.52,-99 1694.81,-99 1702.6,-99"/>
<polygon fill="black" stroke="black" points="1702.44,-102.5 1712.44,-99 1702.44,-95.5 1702.44,-102.5"/>
</g>
<!-- 1990978181008 -->
<g id="node11" class="node">
<title>1990978181008</title>
<polygon fill="white" stroke="black" points="1890,-117 1804.25,-117 1804.25,-81 1890,-81 1890,-117"/>
<text text-anchor="middle" x="1847.12" y="-93.97" font-family="Times New Roman,serif" font-size="12.00">Planting Phase</text>
</g>
<!-- 1990981837712 -->
<g id="node31" class="node">
<title>1990981837712</title>
<ellipse fill="white" stroke="black" cx="1953" cy="-135" rx="27" ry="27"/>
</g>
<!-- 1990978181008&#45;&gt;1990981837712 -->
<g id="edge26" class="edge">
<title>1990978181008&#45;&gt;1990981837712</title>
<path fill="none" stroke="black" d="M1890.37,-113.64C1898.95,-116.61 1907.89,-119.71 1916.21,-122.6"/>
<polygon fill="black" stroke="black" points="1915.06,-125.9 1925.66,-125.87 1917.35,-119.29 1915.06,-125.9"/>
</g>
<!-- 1990981842752 -->
<g id="node32" class="node">
<title>1990981842752</title>
<ellipse fill="white" stroke="black" cx="1953" cy="-63" rx="27" ry="27"/>
</g>
<!-- 1990978181008&#45;&gt;1990981842752 -->
<g id="edge27" class="edge">
<title>1990978181008&#45;&gt;1990981842752</title>
<path fill="none" stroke="black" d="M1890.37,-84.36C1898.95,-81.39 1907.89,-78.29 1916.21,-75.4"/>
<polygon fill="black" stroke="black" points="1917.35,-78.71 1925.66,-72.13 1915.06,-72.1 1917.35,-78.71"/>
</g>
<!-- 1990981835120 -->
<g id="node12" class="node">
<title>1990981835120</title>
<polygon fill="white" stroke="black" points="2122.75,-149 2028,-149 2028,-113 2122.75,-113 2122.75,-149"/>
<text text-anchor="middle" x="2075.38" y="-125.97" font-family="Times New Roman,serif" font-size="12.00">Data Monitoring</text>
</g>
<!-- 1990981840208 -->
<g id="node34" class="node">
<title>1990981840208</title>
<ellipse fill="white" stroke="black" cx="2197.75" cy="-126" rx="27" ry="27"/>
</g>
<!-- 1990981835120&#45;&gt;1990981840208 -->
<g id="edge30" class="edge">
<title>1990981835120&#45;&gt;1990981840208</title>
<path fill="none" stroke="black" d="M2122.92,-129.07C2134.9,-128.57 2147.64,-128.04 2159.11,-127.56"/>
<polygon fill="black" stroke="black" points="2159.15,-131.06 2169,-127.15 2158.86,-124.07 2159.15,-131.06"/>
</g>
<!-- 1990981829360 -->
<g id="node13" class="node">
<title>1990981829360</title>
<polygon fill="white" stroke="black" points="2134.75,-81 2016,-81 2016,-45 2134.75,-45 2134.75,-81"/>
<text text-anchor="middle" x="2075.38" y="-57.98" font-family="Times New Roman,serif" font-size="12.00">Community Outreach</text>
</g>
<!-- 1990981828880 -->
<g id="node33" class="node">
<title>1990981828880</title>
<ellipse fill="white" stroke="black" cx="2298" cy="-63" rx="27" ry="27"/>
</g>
<!-- 1990981829360&#45;&gt;1990981828880 -->
<g id="edge31" class="edge">
<title>1990981829360&#45;&gt;1990981828880</title>
<path fill="none" stroke="black" d="M2135.21,-63C2174.6,-63 2225.29,-63 2259.34,-63"/>
<polygon fill="black" stroke="black" points="2259.13,-66.5 2269.13,-63 2259.13,-59.5 2259.13,-66.5"/>
</g>
<!-- 1990981842848 -->
<g id="node14" class="node">
<title>1990981842848</title>
<polygon fill="white" stroke="black" points="2335.25,-144 2260.75,-144 2260.75,-108 2335.25,-108 2335.25,-144"/>
<text text-anchor="middle" x="2298" y="-120.97" font-family="Times New Roman,serif" font-size="12.00">Pest Control</text>
</g>
<!-- 1990981840160 -->
<g id="node35" class="node">
<title>1990981840160</title>
<ellipse fill="white" stroke="black" cx="2398.25" cy="-126" rx="27" ry="27"/>
</g>
<!-- 1990981842848&#45;&gt;1990981840160 -->
<g id="edge34" class="edge">
<title>1990981842848&#45;&gt;1990981840160</title>
<path fill="none" stroke="black" d="M2335.58,-126C2343.34,-126 2351.54,-126 2359.34,-126"/>
<polygon fill="black" stroke="black" points="2359.25,-129.5 2369.25,-126 2359.25,-122.5 2359.25,-129.5"/>
</g>
<!-- 1990980643024 -->
<g id="node15" class="node">
<title>1990980643024</title>
<polygon fill="black" stroke="black" points="2727.75,-117 2673.75,-117 2673.75,-81 2727.75,-81 2727.75,-117"/>
</g>
<!-- 1990977244816 -->
<g id="node36" class="node">
<title>1990977244816</title>
<ellipse fill="white" stroke="black" cx="2794.75" cy="-99" rx="27" ry="27"/>
<ellipse fill="none" stroke="black" cx="2794.75" cy="-99" rx="31" ry="31"/>
<text text-anchor="start" x="2778.25" y="-83.6" font-family="Times New Roman,serif" font-size="32.00">■</text>
</g>
<!-- 1990980643024&#45;&gt;1990977244816 -->
<g id="edge35" class="edge">
<title>1990980643024&#45;&gt;1990977244816</title>
<path fill="none" stroke="black" d="M2727.87,-99C2735.38,-99 2743.76,-99 2751.97,-99"/>
<polygon fill="black" stroke="black" points="2751.83,-102.5 2761.83,-99 2751.83,-95.5 2751.83,-102.5"/>
</g>
<!-- 1990981831664 -->
<g id="node16" class="node">
<title>1990981831664</title>
<polygon fill="white" stroke="black" points="2547.75,-144 2461.25,-144 2461.25,-108 2547.75,-108 2547.75,-144"/>
<text text-anchor="middle" x="2504.5" y="-120.97" font-family="Times New Roman,serif" font-size="12.00">Yield Analysis</text>
</g>
<!-- 1990981838144 -->
<g id="node37" class="node">
<title>1990981838144</title>
<ellipse fill="white" stroke="black" cx="2610.75" cy="-126" rx="27" ry="27"/>
</g>
<!-- 1990981831664&#45;&gt;1990981838144 -->
<g id="edge37" class="edge">
<title>1990981831664&#45;&gt;1990981838144</title>
<path fill="none" stroke="black" d="M2548.2,-126C2556.12,-126 2564.34,-126 2572.09,-126"/>
<polygon fill="black" stroke="black" points="2571.89,-129.5 2581.89,-126 2571.89,-122.5 2571.89,-129.5"/>
</g>
<!-- 1990981838480 -->
<g id="node17" class="node">
<title>1990981838480</title>
<polygon fill="black" stroke="black" points="2727.75,-171 2673.75,-171 2673.75,-135 2727.75,-135 2727.75,-171"/>
</g>
<!-- 1990981838480&#45;&gt;1990981837712 -->
<g id="edge40" class="edge">
<title>1990981838480&#45;&gt;1990981837712</title>
<path fill="none" stroke="black" d="M2673.53,-159.21C2636.37,-167.46 2566.15,-181 2505.5,-181 2196.75,-181 2196.75,-181 2196.75,-181 2115.77,-181 2094.64,-177.32 2016,-158 2007.06,-155.8 1997.64,-152.73 1988.92,-149.54"/>
<polygon fill="black" stroke="black" points="1990.34,-146.33 1979.75,-146.04 1987.84,-152.87 1990.34,-146.33"/>
</g>
<!-- 1990977254320 -->
<g id="node18" class="node">
<title>1990977254320</title>
<ellipse fill="white" stroke="black" cx="27" cy="-99" rx="27" ry="27"/>
<text text-anchor="start" x="9.75" y="-81.7" font-family="Times New Roman,serif" font-size="34.00">●</text>
</g>
<!-- 1990977254320&#45;&gt;1990979285744 -->
<g id="edge1" class="edge">
<title>1990977254320&#45;&gt;1990979285744</title>
<path fill="none" stroke="black" d="M54.33,-99C61.76,-99 70.06,-99 78.28,-99"/>
<polygon fill="black" stroke="black" points="78.24,-102.5 88.24,-99 78.24,-95.5 78.24,-102.5"/>
</g>
<!-- 1990979284208&#45;&gt;1990979920832 -->
<g id="edge3" class="edge">
<title>1990979284208&#45;&gt;1990979920832</title>
<path fill="none" stroke="black" d="M251.06,-99C258.44,-99 266.74,-99 275.11,-99"/>
<polygon fill="black" stroke="black" points="274.96,-102.5 284.96,-99 274.96,-95.5 274.96,-102.5"/>
</g>
<!-- 1990979922224&#45;&gt;1990979918768 -->
<g id="edge5" class="edge">
<title>1990979922224&#45;&gt;1990979918768</title>
<path fill="none" stroke="black" d="M463.66,-99C471.09,-99 479.44,-99 487.77,-99"/>
<polygon fill="black" stroke="black" points="487.53,-102.5 497.53,-99 487.53,-95.5 487.53,-102.5"/>
</g>
<!-- 1990979173456&#45;&gt;1990979167072 -->
<g id="edge7" class="edge">
<title>1990979173456&#45;&gt;1990979167072</title>
<path fill="none" stroke="black" d="M668.61,-99C676.03,-99 684.36,-99 692.71,-99"/>
<polygon fill="black" stroke="black" points="692.52,-102.5 702.52,-99 692.52,-95.5 692.52,-102.5"/>
</g>
<!-- 1990978993472&#45;&gt;1990978980080 -->
<g id="edge9" class="edge">
<title>1990978993472&#45;&gt;1990978980080</title>
<path fill="none" stroke="black" d="M877.4,-99C884.73,-99 892.96,-99 901.26,-99"/>
<polygon fill="black" stroke="black" points="901.03,-102.5 911.03,-99 901.03,-95.5 901.03,-102.5"/>
</g>
<!-- 1990978980560&#45;&gt;1990978987088 -->
<g id="edge11" class="edge">
<title>1990978980560&#45;&gt;1990978987088</title>
<path fill="none" stroke="black" d="M1090.63,-99C1097.86,-99 1106.02,-99 1114.36,-99"/>
<polygon fill="black" stroke="black" points="1114.27,-102.5 1124.27,-99 1114.27,-95.5 1114.27,-102.5"/>
</g>
<!-- 1990980438592&#45;&gt;1990980445072 -->
<g id="edge17" class="edge">
<title>1990980438592&#45;&gt;1990980445072</title>
<path fill="none" stroke="black" d="M1319.52,-171C1326.88,-171 1335.21,-171 1343.73,-171"/>
<polygon fill="black" stroke="black" points="1343.46,-174.5 1353.46,-171 1343.46,-167.5 1343.46,-174.5"/>
</g>
<!-- 1990980447568&#45;&gt;1990980446608 -->
<g id="edge15" class="edge">
<title>1990980447568&#45;&gt;1990980446608</title>
<path fill="none" stroke="black" d="M1319.52,-99C1330.42,-99 1343.46,-99 1356.08,-99"/>
<polygon fill="black" stroke="black" points="1355.97,-102.5 1365.97,-99 1355.97,-95.5 1355.97,-102.5"/>
</g>
<!-- 1990980447088&#45;&gt;1990980441904 -->
<g id="edge16" class="edge">
<title>1990980447088&#45;&gt;1990980441904</title>
<path fill="none" stroke="black" d="M1319.52,-27C1329.02,-27 1340.15,-27 1351.21,-27"/>
<polygon fill="black" stroke="black" points="1351.12,-30.5 1361.12,-27 1351.12,-23.5 1351.12,-30.5"/>
</g>
<!-- 1990980436528&#45;&gt;1990980446464 -->
<g id="edge23" class="edge">
<title>1990980436528&#45;&gt;1990980446464</title>
<path fill="none" stroke="black" d="M1545.71,-41.74C1559.75,-51.17 1578.3,-63.62 1594.51,-74.5"/>
<polygon fill="black" stroke="black" points="1592.22,-77.18 1602.47,-79.85 1596.12,-71.37 1592.22,-77.18"/>
</g>
<!-- 1990980446272&#45;&gt;1990980446464 -->
<g id="edge21" class="edge">
<title>1990980446272&#45;&gt;1990980446464</title>
<path fill="none" stroke="black" d="M1545.71,-156.26C1559.75,-146.83 1578.3,-134.38 1594.51,-123.5"/>
<polygon fill="black" stroke="black" points="1596.12,-126.63 1602.47,-118.15 1592.22,-120.82 1596.12,-126.63"/>
</g>
<!-- 1990980449776&#45;&gt;1990980446464 -->
<g id="edge22" class="edge">
<title>1990980449776&#45;&gt;1990980446464</title>
<path fill="none" stroke="black" d="M1549.99,-99C1557.32,-99 1565.59,-99 1573.97,-99"/>
<polygon fill="black" stroke="black" points="1573.87,-102.5 1583.87,-99 1573.87,-95.5 1573.87,-102.5"/>
</g>
<!-- 1990980444064&#45;&gt;1990978181008 -->
<g id="edge25" class="edge">
<title>1990980444064&#45;&gt;1990978181008</title>
<path fill="none" stroke="black" d="M1768.73,-99C1776.09,-99 1784.35,-99 1792.66,-99"/>
<polygon fill="black" stroke="black" points="1792.44,-102.5 1802.44,-99 1792.44,-95.5 1792.44,-102.5"/>
</g>
<!-- 1990981837712&#45;&gt;1990981835120 -->
<g id="edge29" class="edge">
<title>1990981837712&#45;&gt;1990981835120</title>
<path fill="none" stroke="black" d="M1980.42,-134.12C1991.01,-133.77 2003.68,-133.35 2016.22,-132.93"/>
<polygon fill="black" stroke="black" points="2016.26,-136.43 2026.13,-132.6 2016.02,-129.44 2016.26,-136.43"/>
</g>
<!-- 1990981842752&#45;&gt;1990981829360 -->
<g id="edge28" class="edge">
<title>1990981842752&#45;&gt;1990981829360</title>
<path fill="none" stroke="black" d="M1980.42,-63C1987.73,-63 1996.03,-63 2004.59,-63"/>
<polygon fill="black" stroke="black" points="2004.43,-66.5 2014.43,-63 2004.43,-59.5 2004.43,-66.5"/>
</g>
<!-- 1990981828880&#45;&gt;1990980643024 -->
<g id="edge32" class="edge">
<title>1990981828880&#45;&gt;1990980643024</title>
<path fill="none" stroke="black" d="M2325.41,-64.52C2382.51,-67.94 2521.67,-76.96 2637.75,-90 2645.67,-90.89 2654.13,-92.01 2662.17,-93.15"/>
<polygon fill="black" stroke="black" points="2661.65,-96.61 2672.05,-94.59 2662.67,-89.68 2661.65,-96.61"/>
</g>
<!-- 1990981840208&#45;&gt;1990981842848 -->
<g id="edge33" class="edge">
<title>1990981840208&#45;&gt;1990981842848</title>
<path fill="none" stroke="black" d="M2225.08,-126C2232.42,-126 2240.63,-126 2248.81,-126"/>
<polygon fill="black" stroke="black" points="2248.74,-129.5 2258.74,-126 2248.74,-122.5 2248.74,-129.5"/>
</g>
<!-- 1990981840160&#45;&gt;1990981831664 -->
<g id="edge36" class="edge">
<title>1990981840160&#45;&gt;1990981831664</title>
<path fill="none" stroke="black" d="M2425.56,-126C2432.94,-126 2441.24,-126 2449.61,-126"/>
<polygon fill="black" stroke="black" points="2449.46,-129.5 2459.46,-126 2449.46,-122.5 2449.46,-129.5"/>
</g>
<!-- 1990981838144&#45;&gt;1990980643024 -->
<g id="edge38" class="edge">
<title>1990981838144&#45;&gt;1990980643024</title>
<path fill="none" stroke="black" d="M2636.73,-118.34C2644.81,-115.86 2653.94,-113.06 2662.7,-110.37"/>
<polygon fill="black" stroke="black" points="2663.5,-113.78 2672.03,-107.5 2661.44,-107.09 2663.5,-113.78"/>
</g>
<!-- 1990981838144&#45;&gt;1990981838480 -->
<g id="edge39" class="edge">
<title>1990981838144&#45;&gt;1990981838480</title>
<path fill="none" stroke="black" d="M2636.73,-133.66C2644.81,-136.14 2653.94,-138.94 2662.7,-141.63"/>
<polygon fill="black" stroke="black" points="2661.44,-144.91 2672.03,-144.5 2663.5,-138.22 2661.44,-144.91"/>
</g>
</g>
</svg>
