<?xml version="1.0" encoding="UTF-8" standalone="no"?>
<!DOCTYPE svg PUBLIC "-//W3C//DTD SVG 1.1//EN"
 "http://www.w3.org/Graphics/SVG/1.1/DTD/svg11.dtd">
<!-- Generated by graphviz version 11.0.0 (20240428.1522)
 -->
<!-- Title: imdf_net_1754052254.4962442 Pages: 1 -->
<svg width="3231pt" height="193pt"
 viewBox="0.00 0.00 3230.50 193.00" xmlns="http://www.w3.org/2000/svg" xmlns:xlink="http://www.w3.org/1999/xlink">
<g id="graph0" class="graph" transform="scale(1 1) rotate(0) translate(4 189)">
<title>imdf_net_1754052254.4962442</title>
<polygon fill="white" stroke="none" points="-4,4 -4,-189 3226.5,-189 3226.5,4 -4,4"/>
<!-- 1990981583552 -->
<g id="node1" class="node">
<title>1990981583552</title>
<polygon fill="white" stroke="black" points="174.25,-172 90,-172 90,-136 174.25,-136 174.25,-172"/>
<text text-anchor="middle" x="132.12" y="-148.97" font-family="Times New Roman,serif" font-size="12.00">Milk Sourcing</text>
</g>
<!-- 1990981585328 -->
<g id="node21" class="node">
<title>1990981585328</title>
<ellipse fill="white" stroke="black" cx="237.25" cy="-154" rx="27" ry="27"/>
</g>
<!-- 1990981583552&#45;&gt;1990981585328 -->
<g id="edge2" class="edge">
<title>1990981583552&#45;&gt;1990981585328</title>
<path fill="none" stroke="black" d="M174.48,-154C182.44,-154 190.74,-154 198.58,-154"/>
<polygon fill="black" stroke="black" points="198.5,-157.5 208.5,-154 198.5,-150.5 198.5,-157.5"/>
</g>
<!-- 1990981592384 -->
<g id="node2" class="node">
<title>1990981592384</title>
<polygon fill="white" stroke="black" points="389.75,-172 300.25,-172 300.25,-136 389.75,-136 389.75,-172"/>
<text text-anchor="middle" x="345" y="-148.97" font-family="Times New Roman,serif" font-size="12.00">Quality Testing</text>
</g>
<!-- 1990981584080 -->
<g id="node22" class="node">
<title>1990981584080</title>
<ellipse fill="white" stroke="black" cx="452.75" cy="-154" rx="27" ry="27"/>
</g>
<!-- 1990981592384&#45;&gt;1990981584080 -->
<g id="edge4" class="edge">
<title>1990981592384&#45;&gt;1990981584080</title>
<path fill="none" stroke="black" d="M390.23,-154C398.2,-154 406.44,-154 414.2,-154"/>
<polygon fill="black" stroke="black" points="413.99,-157.5 423.99,-154 413.99,-150.5 413.99,-157.5"/>
</g>
<!-- 1990981583888 -->
<g id="node3" class="node">
<title>1990981583888</title>
<polygon fill="white" stroke="black" points="605.25,-172 515.75,-172 515.75,-136 605.25,-136 605.25,-172"/>
<text text-anchor="middle" x="560.5" y="-148.97" font-family="Times New Roman,serif" font-size="12.00">Milk Pasteurize</text>
</g>
<!-- 1990980757664 -->
<g id="node23" class="node">
<title>1990980757664</title>
<ellipse fill="white" stroke="black" cx="668.25" cy="-154" rx="27" ry="27"/>
</g>
<!-- 1990981583888&#45;&gt;1990980757664 -->
<g id="edge6" class="edge">
<title>1990981583888&#45;&gt;1990980757664</title>
<path fill="none" stroke="black" d="M605.73,-154C613.7,-154 621.94,-154 629.7,-154"/>
<polygon fill="black" stroke="black" points="629.49,-157.5 639.49,-154 629.49,-150.5 629.49,-157.5"/>
</g>
<!-- 1990980761504 -->
<g id="node4" class="node">
<title>1990980761504</title>
<polygon fill="white" stroke="black" points="816.25,-172 731.25,-172 731.25,-136 816.25,-136 816.25,-172"/>
<text text-anchor="middle" x="773.75" y="-148.97" font-family="Times New Roman,serif" font-size="12.00">Starter Culture</text>
</g>
<!-- 1990980750080 -->
<g id="node24" class="node">
<title>1990980750080</title>
<ellipse fill="white" stroke="black" cx="879.25" cy="-154" rx="27" ry="27"/>
</g>
<!-- 1990980761504&#45;&gt;1990980750080 -->
<g id="edge8" class="edge">
<title>1990980761504&#45;&gt;1990980750080</title>
<path fill="none" stroke="black" d="M816.55,-154C824.45,-154 832.67,-154 840.43,-154"/>
<polygon fill="black" stroke="black" points="840.26,-157.5 850.26,-154 840.26,-150.5 840.26,-157.5"/>
</g>
<!-- 1990980761984 -->
<g id="node5" class="node">
<title>1990980761984</title>
<polygon fill="white" stroke="black" points="1020.5,-172 942.25,-172 942.25,-136 1020.5,-136 1020.5,-172"/>
<text text-anchor="middle" x="981.38" y="-148.97" font-family="Times New Roman,serif" font-size="12.00">Curd Cutting</text>
</g>
<!-- 1990977915264 -->
<g id="node25" class="node">
<title>1990977915264</title>
<ellipse fill="white" stroke="black" cx="1083.5" cy="-154" rx="27" ry="27"/>
</g>
<!-- 1990980761984&#45;&gt;1990977915264 -->
<g id="edge10" class="edge">
<title>1990980761984&#45;&gt;1990977915264</title>
<path fill="none" stroke="black" d="M1020.8,-154C1028.64,-154 1036.88,-154 1044.69,-154"/>
<polygon fill="black" stroke="black" points="1044.61,-157.5 1054.61,-154 1044.61,-150.5 1044.61,-157.5"/>
</g>
<!-- 1990979169568 -->
<g id="node6" class="node">
<title>1990979169568</title>
<polygon fill="white" stroke="black" points="1221,-172 1146.5,-172 1146.5,-136 1221,-136 1221,-172"/>
<text text-anchor="middle" x="1183.75" y="-148.97" font-family="Times New Roman,serif" font-size="12.00">Whey Drain</text>
</g>
<!-- 1990979170528 -->
<g id="node26" class="node">
<title>1990979170528</title>
<ellipse fill="white" stroke="black" cx="1284" cy="-154" rx="27" ry="27"/>
</g>
<!-- 1990979169568&#45;&gt;1990979170528 -->
<g id="edge12" class="edge">
<title>1990979169568&#45;&gt;1990979170528</title>
<path fill="none" stroke="black" d="M1221.33,-154C1229.09,-154 1237.29,-154 1245.09,-154"/>
<polygon fill="black" stroke="black" points="1245,-157.5 1255,-154 1245,-150.5 1245,-157.5"/>
</g>
<!-- 1990980506768 -->
<g id="node7" class="node">
<title>1990980506768</title>
<polygon fill="white" stroke="black" points="1416.25,-172 1347,-172 1347,-136 1416.25,-136 1416.25,-172"/>
<text text-anchor="middle" x="1381.62" y="-148.97" font-family="Times New Roman,serif" font-size="12.00">Press Mold</text>
</g>
<!-- 1990980503552 -->
<g id="node27" class="node">
<title>1990980503552</title>
<ellipse fill="white" stroke="black" cx="1479.25" cy="-154" rx="27" ry="27"/>
</g>
<!-- 1990980506768&#45;&gt;1990980503552 -->
<g id="edge14" class="edge">
<title>1990980506768&#45;&gt;1990980503552</title>
<path fill="none" stroke="black" d="M1416.61,-154C1424.31,-154 1432.53,-154 1440.38,-154"/>
<polygon fill="black" stroke="black" points="1440.38,-157.5 1450.38,-154 1440.38,-150.5 1440.38,-157.5"/>
</g>
<!-- 1990980503168 -->
<g id="node8" class="node">
<title>1990980503168</title>
<polygon fill="white" stroke="black" points="1611.5,-172 1542.25,-172 1542.25,-136 1611.5,-136 1611.5,-172"/>
<text text-anchor="middle" x="1576.88" y="-148.97" font-family="Times New Roman,serif" font-size="12.00">Brine Soak</text>
</g>
<!-- 1990971919824 -->
<g id="node28" class="node">
<title>1990971919824</title>
<ellipse fill="white" stroke="black" cx="1674.5" cy="-154" rx="27" ry="27"/>
</g>
<!-- 1990980503168&#45;&gt;1990971919824 -->
<g id="edge16" class="edge">
<title>1990980503168&#45;&gt;1990971919824</title>
<path fill="none" stroke="black" d="M1611.86,-154C1619.56,-154 1627.78,-154 1635.63,-154"/>
<polygon fill="black" stroke="black" points="1635.63,-157.5 1645.63,-154 1635.63,-150.5 1635.63,-157.5"/>
</g>
<!-- 1990971918768 -->
<g id="node9" class="node">
<title>1990971918768</title>
<polygon fill="white" stroke="black" points="1822.5,-149 1737.5,-149 1737.5,-113 1822.5,-113 1822.5,-149"/>
<text text-anchor="middle" x="1780" y="-125.97" font-family="Times New Roman,serif" font-size="12.00">Aging Control</text>
</g>
<!-- 1990971916656 -->
<g id="node29" class="node">
<title>1990971916656</title>
<ellipse fill="white" stroke="black" cx="1885.5" cy="-123" rx="27" ry="27"/>
</g>
<!-- 1990971918768&#45;&gt;1990971916656 -->
<g id="edge18" class="edge">
<title>1990971918768&#45;&gt;1990971916656</title>
<path fill="none" stroke="black" d="M1822.8,-127.77C1830.77,-127.15 1839.07,-126.51 1846.9,-125.91"/>
<polygon fill="black" stroke="black" points="1847.12,-129.4 1856.82,-125.14 1846.58,-122.42 1847.12,-129.4"/>
</g>
<!-- 1990977920544 -->
<g id="node10" class="node">
<title>1990977920544</title>
<polygon fill="white" stroke="black" points="2035.75,-72 1948.5,-72 1948.5,-36 2035.75,-36 2035.75,-72"/>
<text text-anchor="middle" x="1992.12" y="-48.98" font-family="Times New Roman,serif" font-size="12.00">Eco Packaging</text>
</g>
<!-- 1990977922896 -->
<g id="node30" class="node">
<title>1990977922896</title>
<ellipse fill="white" stroke="black" cx="2098.75" cy="-38" rx="27" ry="27"/>
</g>
<!-- 1990977920544&#45;&gt;1990977922896 -->
<g id="edge22" class="edge">
<title>1990977920544&#45;&gt;1990977922896</title>
<path fill="none" stroke="black" d="M2035.98,-47.45C2044.1,-46.21 2052.52,-44.92 2060.45,-43.7"/>
<polygon fill="black" stroke="black" points="2060.75,-47.2 2070.11,-42.23 2059.7,-40.28 2060.75,-47.2"/>
</g>
<!-- 1990979542752 -->
<g id="node11" class="node">
<title>1990979542752</title>
<polygon fill="white" stroke="black" points="2032.38,-141 1951.88,-141 1951.88,-105 2032.38,-105 2032.38,-141"/>
<text text-anchor="middle" x="1992.12" y="-117.97" font-family="Times New Roman,serif" font-size="12.00">Flavor Check</text>
</g>
<!-- 1990979547360 -->
<g id="node31" class="node">
<title>1990979547360</title>
<ellipse fill="white" stroke="black" cx="2098.75" cy="-123" rx="27" ry="27"/>
</g>
<!-- 1990979542752&#45;&gt;1990979547360 -->
<g id="edge21" class="edge">
<title>1990979542752&#45;&gt;1990979547360</title>
<path fill="none" stroke="black" d="M2032.68,-123C2041.69,-123 2051.24,-123 2060.17,-123"/>
<polygon fill="black" stroke="black" points="2059.94,-126.5 2069.94,-123 2059.94,-119.5 2059.94,-126.5"/>
</g>
<!-- 1990979538864 -->
<g id="node12" class="node">
<title>1990979538864</title>
<polygon fill="white" stroke="black" points="2245.25,-157 2161.75,-157 2161.75,-121 2245.25,-121 2245.25,-157"/>
<text text-anchor="middle" x="2203.5" y="-133.97" font-family="Times New Roman,serif" font-size="12.00">Recipe Adjust</text>
</g>
<!-- 1990979540448 -->
<g id="node33" class="node">
<title>1990979540448</title>
<ellipse fill="white" stroke="black" cx="2308.25" cy="-130" rx="27" ry="27"/>
</g>
<!-- 1990979538864&#45;&gt;1990979540448 -->
<g id="edge26" class="edge">
<title>1990979538864&#45;&gt;1990979540448</title>
<path fill="none" stroke="black" d="M2245.7,-135.39C2253.63,-134.7 2261.91,-133.97 2269.72,-133.29"/>
<polygon fill="black" stroke="black" points="2269.95,-136.78 2279.6,-132.42 2269.34,-129.81 2269.95,-136.78"/>
</g>
<!-- 1990980368576 -->
<g id="node13" class="node">
<title>1990980368576</title>
<polygon fill="black" stroke="black" points="2230.5,-103 2176.5,-103 2176.5,-67 2230.5,-67 2230.5,-103"/>
</g>
<!-- 1990980368576&#45;&gt;1990979540448 -->
<g id="edge28" class="edge">
<title>1990980368576&#45;&gt;1990979540448</title>
<path fill="none" stroke="black" d="M2230.96,-96.59C2243.63,-102.14 2258.96,-108.85 2272.55,-114.8"/>
<polygon fill="black" stroke="black" points="2271.04,-117.96 2281.6,-118.77 2273.85,-111.55 2271.04,-117.96"/>
</g>
<!-- 1990978836560 -->
<g id="node14" class="node">
<title>1990978836560</title>
<polygon fill="white" stroke="black" points="2240.38,-49 2166.62,-49 2166.62,-13 2240.38,-13 2240.38,-49"/>
<text text-anchor="middle" x="2203.5" y="-25.98" font-family="Times New Roman,serif" font-size="12.00">Batch Label</text>
</g>
<!-- 1990978843424 -->
<g id="node32" class="node">
<title>1990978843424</title>
<ellipse fill="white" stroke="black" cx="2308.25" cy="-31" rx="27" ry="27"/>
</g>
<!-- 1990978836560&#45;&gt;1990978843424 -->
<g id="edge27" class="edge">
<title>1990978836560&#45;&gt;1990978843424</title>
<path fill="none" stroke="black" d="M2240.73,-31C2250.07,-31 2260.15,-31 2269.56,-31"/>
<polygon fill="black" stroke="black" points="2269.52,-34.5 2279.52,-31 2269.52,-27.5 2269.52,-34.5"/>
</g>
<!-- 1990979550528 -->
<g id="node15" class="node">
<title>1990979550528</title>
<polygon fill="black" stroke="black" points="2449.75,-175 2395.75,-175 2395.75,-139 2449.75,-139 2449.75,-175"/>
</g>
<!-- 1990979550528&#45;&gt;1990971919824 -->
<g id="edge31" class="edge">
<title>1990979550528&#45;&gt;1990971919824</title>
<path fill="none" stroke="black" d="M2395.47,-162.6C2354.76,-170.77 2273.9,-185 2204.5,-185 1884.5,-185 1884.5,-185 1884.5,-185 1823.61,-185 1753.8,-171.96 1712.25,-162.8"/>
<polygon fill="black" stroke="black" points="1713.06,-159.39 1702.54,-160.61 1711.52,-166.22 1713.06,-159.39"/>
</g>
<!-- 1990978830560 -->
<g id="node16" class="node">
<title>1990978830560</title>
<polygon fill="white" stroke="black" points="2474.25,-49 2371.25,-49 2371.25,-13 2474.25,-13 2474.25,-49"/>
<text text-anchor="middle" x="2422.75" y="-25.98" font-family="Times New Roman,serif" font-size="12.00">Compliance Audit</text>
</g>
<!-- 1990978838672 -->
<g id="node34" class="node">
<title>1990978838672</title>
<ellipse fill="white" stroke="black" cx="2537.25" cy="-31" rx="27" ry="27"/>
</g>
<!-- 1990978830560&#45;&gt;1990978838672 -->
<g id="edge32" class="edge">
<title>1990978830560&#45;&gt;1990978838672</title>
<path fill="none" stroke="black" d="M2474.73,-31C2482.75,-31 2490.9,-31 2498.54,-31"/>
<polygon fill="black" stroke="black" points="2498.52,-34.5 2508.52,-31 2498.52,-27.5 2498.52,-34.5"/>
</g>
<!-- 1990978835792 -->
<g id="node17" class="node">
<title>1990978835792</title>
<polygon fill="white" stroke="black" points="2683,-49 2600.25,-49 2600.25,-13 2683,-13 2683,-49"/>
<text text-anchor="middle" x="2641.62" y="-25.98" font-family="Times New Roman,serif" font-size="12.00">Logistics Plan</text>
</g>
<!-- 1990980889168 -->
<g id="node35" class="node">
<title>1990980889168</title>
<ellipse fill="white" stroke="black" cx="2746" cy="-31" rx="27" ry="27"/>
</g>
<!-- 1990978835792&#45;&gt;1990980889168 -->
<g id="edge34" class="edge">
<title>1990978835792&#45;&gt;1990980889168</title>
<path fill="none" stroke="black" d="M2683.38,-31C2691.23,-31 2699.42,-31 2707.17,-31"/>
<polygon fill="black" stroke="black" points="2706.99,-34.5 2716.99,-31 2706.99,-27.5 2706.99,-34.5"/>
</g>
<!-- 1990980879808 -->
<g id="node18" class="node">
<title>1990980879808</title>
<polygon fill="white" stroke="black" points="2897,-49 2809,-49 2809,-13 2897,-13 2897,-49"/>
<text text-anchor="middle" x="2853" y="-25.98" font-family="Times New Roman,serif" font-size="12.00">Retail Delivery</text>
</g>
<!-- 1990977962592 -->
<g id="node36" class="node">
<title>1990977962592</title>
<ellipse fill="white" stroke="black" cx="2960" cy="-31" rx="27" ry="27"/>
</g>
<!-- 1990980879808&#45;&gt;1990977962592 -->
<g id="edge36" class="edge">
<title>1990980879808&#45;&gt;1990977962592</title>
<path fill="none" stroke="black" d="M2897.31,-31C2905.27,-31 2913.51,-31 2921.28,-31"/>
<polygon fill="black" stroke="black" points="2921.1,-34.5 2931.1,-31 2921.1,-27.5 2921.1,-34.5"/>
</g>
<!-- 1990977977136 -->
<g id="node19" class="node">
<title>1990977977136</title>
<polygon fill="white" stroke="black" points="3124.5,-49 3023,-49 3023,-13 3124.5,-13 3124.5,-49"/>
<text text-anchor="middle" x="3073.75" y="-25.98" font-family="Times New Roman,serif" font-size="12.00">Customer Review</text>
</g>
<!-- 1990976978720 -->
<g id="node37" class="node">
<title>1990976978720</title>
<ellipse fill="white" stroke="black" cx="3191.5" cy="-31" rx="27" ry="27"/>
<ellipse fill="none" stroke="black" cx="3191.5" cy="-31" rx="31" ry="31"/>
<text text-anchor="start" x="3175" y="-15.6" font-family="Times New Roman,serif" font-size="32.00">■</text>
</g>
<!-- 1990977977136&#45;&gt;1990976978720 -->
<g id="edge38" class="edge">
<title>1990977977136&#45;&gt;1990976978720</title>
<path fill="none" stroke="black" d="M3124.85,-31C3132.8,-31 3140.95,-31 3148.69,-31"/>
<polygon fill="black" stroke="black" points="3148.52,-34.5 3158.52,-31 3148.52,-27.5 3148.52,-34.5"/>
</g>
<!-- 1990979330720 -->
<g id="node20" class="node">
<title>1990979330720</title>
<ellipse fill="white" stroke="black" cx="27" cy="-154" rx="27" ry="27"/>
<text text-anchor="start" x="9.75" y="-136.7" font-family="Times New Roman,serif" font-size="34.00">●</text>
</g>
<!-- 1990979330720&#45;&gt;1990981583552 -->
<g id="edge1" class="edge">
<title>1990979330720&#45;&gt;1990981583552</title>
<path fill="none" stroke="black" d="M54.29,-154C61.67,-154 69.98,-154 78.32,-154"/>
<polygon fill="black" stroke="black" points="78.14,-157.5 88.14,-154 78.14,-150.5 78.14,-157.5"/>
</g>
<!-- 1990981585328&#45;&gt;1990981592384 -->
<g id="edge3" class="edge">
<title>1990981585328&#45;&gt;1990981592384</title>
<path fill="none" stroke="black" d="M264.66,-154C271.98,-154 280.21,-154 288.53,-154"/>
<polygon fill="black" stroke="black" points="288.33,-157.5 298.33,-154 288.33,-150.5 288.33,-157.5"/>
</g>
<!-- 1990981584080&#45;&gt;1990981583888 -->
<g id="edge5" class="edge">
<title>1990981584080&#45;&gt;1990981583888</title>
<path fill="none" stroke="black" d="M480.16,-154C487.48,-154 495.71,-154 504.03,-154"/>
<polygon fill="black" stroke="black" points="503.83,-157.5 513.83,-154 503.83,-150.5 503.83,-157.5"/>
</g>
<!-- 1990980757664&#45;&gt;1990980761504 -->
<g id="edge7" class="edge">
<title>1990980757664&#45;&gt;1990980761504</title>
<path fill="none" stroke="black" d="M695.64,-154C703.05,-154 711.38,-154 719.76,-154"/>
<polygon fill="black" stroke="black" points="719.61,-157.5 729.61,-154 719.61,-150.5 719.61,-157.5"/>
</g>
<!-- 1990980750080&#45;&gt;1990980761984 -->
<g id="edge9" class="edge">
<title>1990980750080&#45;&gt;1990980761984</title>
<path fill="none" stroke="black" d="M906.56,-154C913.88,-154 922.09,-154 930.3,-154"/>
<polygon fill="black" stroke="black" points="930.3,-157.5 940.3,-154 930.3,-150.5 930.3,-157.5"/>
</g>
<!-- 1990977915264&#45;&gt;1990979169568 -->
<g id="edge11" class="edge">
<title>1990977915264&#45;&gt;1990979169568</title>
<path fill="none" stroke="black" d="M1110.83,-154C1118.17,-154 1126.38,-154 1134.56,-154"/>
<polygon fill="black" stroke="black" points="1134.49,-157.5 1144.49,-154 1134.49,-150.5 1134.49,-157.5"/>
</g>
<!-- 1990979170528&#45;&gt;1990980506768 -->
<g id="edge13" class="edge">
<title>1990979170528&#45;&gt;1990980506768</title>
<path fill="none" stroke="black" d="M1311.38,-154C1318.82,-154 1327.14,-154 1335.35,-154"/>
<polygon fill="black" stroke="black" points="1335.28,-157.5 1345.28,-154 1335.28,-150.5 1335.28,-157.5"/>
</g>
<!-- 1990980503552&#45;&gt;1990980503168 -->
<g id="edge15" class="edge">
<title>1990980503552&#45;&gt;1990980503168</title>
<path fill="none" stroke="black" d="M1506.63,-154C1514.07,-154 1522.39,-154 1530.6,-154"/>
<polygon fill="black" stroke="black" points="1530.53,-157.5 1540.53,-154 1530.53,-150.5 1530.53,-157.5"/>
</g>
<!-- 1990971919824&#45;&gt;1990971918768 -->
<g id="edge17" class="edge">
<title>1990971919824&#45;&gt;1990971918768</title>
<path fill="none" stroke="black" d="M1701.35,-148.26C1709.01,-146.55 1717.7,-144.62 1726.41,-142.69"/>
<polygon fill="black" stroke="black" points="1726.91,-146.16 1735.91,-140.57 1725.39,-139.33 1726.91,-146.16"/>
</g>
<!-- 1990971916656&#45;&gt;1990977920544 -->
<g id="edge20" class="edge">
<title>1990971916656&#45;&gt;1990977920544</title>
<path fill="none" stroke="black" d="M1908.69,-108.37C1921.78,-99.73 1938.68,-88.59 1953.77,-78.63"/>
<polygon fill="black" stroke="black" points="1955.69,-81.56 1962.11,-73.14 1951.83,-75.72 1955.69,-81.56"/>
</g>
<!-- 1990971916656&#45;&gt;1990979542752 -->
<g id="edge19" class="edge">
<title>1990971916656&#45;&gt;1990979542752</title>
<path fill="none" stroke="black" d="M1912.9,-123C1921.25,-123 1930.78,-123 1940.24,-123"/>
<polygon fill="black" stroke="black" points="1940.16,-126.5 1950.16,-123 1940.16,-119.5 1940.16,-126.5"/>
</g>
<!-- 1990977922896&#45;&gt;1990978836560 -->
<g id="edge24" class="edge">
<title>1990977922896&#45;&gt;1990978836560</title>
<path fill="none" stroke="black" d="M2125.94,-36.22C2134.75,-35.62 2144.86,-34.93 2154.79,-34.25"/>
<polygon fill="black" stroke="black" points="2155.03,-37.74 2164.77,-33.57 2154.55,-30.76 2155.03,-37.74"/>
</g>
<!-- 1990979547360&#45;&gt;1990979538864 -->
<g id="edge23" class="edge">
<title>1990979547360&#45;&gt;1990979538864</title>
<path fill="none" stroke="black" d="M2125.94,-127.08C2133.47,-128.25 2141.95,-129.57 2150.46,-130.9"/>
<polygon fill="black" stroke="black" points="2149.66,-134.31 2160.08,-132.39 2150.74,-127.4 2149.66,-134.31"/>
</g>
<!-- 1990979547360&#45;&gt;1990980368576 -->
<g id="edge25" class="edge">
<title>1990979547360&#45;&gt;1990980368576</title>
<path fill="none" stroke="black" d="M2124.62,-113.8C2136.9,-109.26 2151.96,-103.69 2165.55,-98.66"/>
<polygon fill="black" stroke="black" points="2166.48,-102.05 2174.64,-95.3 2164.05,-95.49 2166.48,-102.05"/>
</g>
<!-- 1990978843424&#45;&gt;1990978830560 -->
<g id="edge30" class="edge">
<title>1990978843424&#45;&gt;1990978830560</title>
<path fill="none" stroke="black" d="M2335.63,-31C2342.86,-31 2351.02,-31 2359.36,-31"/>
<polygon fill="black" stroke="black" points="2359.27,-34.5 2369.27,-31 2359.27,-27.5 2359.27,-34.5"/>
</g>
<!-- 1990979540448&#45;&gt;1990979550528 -->
<g id="edge29" class="edge">
<title>1990979540448&#45;&gt;1990979550528</title>
<path fill="none" stroke="black" d="M2334.78,-136.13C2349.53,-139.67 2368.34,-144.18 2384.69,-148.11"/>
<polygon fill="black" stroke="black" points="2383.53,-151.43 2394.07,-150.36 2385.16,-144.62 2383.53,-151.43"/>
</g>
<!-- 1990978838672&#45;&gt;1990978835792 -->
<g id="edge33" class="edge">
<title>1990978838672&#45;&gt;1990978835792</title>
<path fill="none" stroke="black" d="M2564.61,-31C2572.03,-31 2580.36,-31 2588.71,-31"/>
<polygon fill="black" stroke="black" points="2588.52,-34.5 2598.52,-31 2588.52,-27.5 2588.52,-34.5"/>
</g>
<!-- 1990980889168&#45;&gt;1990980879808 -->
<g id="edge35" class="edge">
<title>1990980889168&#45;&gt;1990980879808</title>
<path fill="none" stroke="black" d="M2773.5,-31C2780.85,-31 2789.11,-31 2797.44,-31"/>
<polygon fill="black" stroke="black" points="2797.25,-34.5 2807.25,-31 2797.25,-27.5 2797.25,-34.5"/>
</g>
<!-- 1990977962592&#45;&gt;1990977977136 -->
<g id="edge37" class="edge">
<title>1990977962592&#45;&gt;1990977977136</title>
<path fill="none" stroke="black" d="M2987.48,-31C2994.76,-31 3002.97,-31 3011.34,-31"/>
<polygon fill="black" stroke="black" points="3011.28,-34.5 3021.28,-31 3011.28,-27.5 3011.28,-34.5"/>
</g>
</g>
</svg>
