<?xml version="1.0" encoding="UTF-8" standalone="no"?>
<!DOCTYPE svg PUBLIC "-//W3C//DTD SVG 1.1//EN"
 "http://www.w3.org/Graphics/SVG/1.1/DTD/svg11.dtd">
<!-- Generated by graphviz version 11.0.0 (20240428.1522)
 -->
<!-- Title: imdf_net_1754052296.5305417 Pages: 1 -->
<svg width="3095pt" height="134pt"
 viewBox="0.00 0.00 3095.25 134.00" xmlns="http://www.w3.org/2000/svg" xmlns:xlink="http://www.w3.org/1999/xlink">
<g id="graph0" class="graph" transform="scale(1 1) rotate(0) translate(4 130)">
<title>imdf_net_1754052296.5305417</title>
<polygon fill="white" stroke="none" points="-4,4 -4,-130 3091.25,-130 3091.25,4 -4,4"/>
<!-- 1990982051904 -->
<g id="node1" class="node">
<title>1990982051904</title>
<polygon fill="white" stroke="black" points="160.75,-81 90,-81 90,-45 160.75,-45 160.75,-81"/>
<text text-anchor="middle" x="125.38" y="-57.98" font-family="Times New Roman,serif" font-size="12.00">Site Survey</text>
</g>
<!-- 1990982052240 -->
<g id="node19" class="node">
<title>1990982052240</title>
<ellipse fill="white" stroke="black" cx="223.75" cy="-63" rx="27" ry="27"/>
</g>
<!-- 1990982051904&#45;&gt;1990982052240 -->
<g id="edge2" class="edge">
<title>1990982051904&#45;&gt;1990982052240</title>
<path fill="none" stroke="black" d="M161.17,-63C168.9,-63 177.14,-63 184.98,-63"/>
<polygon fill="black" stroke="black" points="184.97,-66.5 194.97,-63 184.97,-59.5 184.97,-66.5"/>
</g>
<!-- 1990982055360 -->
<g id="node2" class="node">
<title>1990982055360</title>
<polygon fill="white" stroke="black" points="379.25,-81 286.75,-81 286.75,-45 379.25,-45 379.25,-81"/>
<text text-anchor="middle" x="333" y="-57.98" font-family="Times New Roman,serif" font-size="12.00">Structure Check</text>
</g>
<!-- 1990982056368 -->
<g id="node20" class="node">
<title>1990982056368</title>
<ellipse fill="white" stroke="black" cx="442.25" cy="-63" rx="27" ry="27"/>
</g>
<!-- 1990982055360&#45;&gt;1990982056368 -->
<g id="edge4" class="edge">
<title>1990982055360&#45;&gt;1990982056368</title>
<path fill="none" stroke="black" d="M379.48,-63C387.52,-63 395.81,-63 403.6,-63"/>
<polygon fill="black" stroke="black" points="403.44,-66.5 413.44,-63 403.44,-59.5 403.44,-66.5"/>
</g>
<!-- 1990982042688 -->
<g id="node3" class="node">
<title>1990982042688</title>
<polygon fill="white" stroke="black" points="591.75,-81 505.25,-81 505.25,-45 591.75,-45 591.75,-81"/>
<text text-anchor="middle" x="548.5" y="-57.98" font-family="Times New Roman,serif" font-size="12.00">Design Layout</text>
</g>
<!-- 1990982056464 -->
<g id="node21" class="node">
<title>1990982056464</title>
<ellipse fill="white" stroke="black" cx="654.75" cy="-63" rx="27" ry="27"/>
</g>
<!-- 1990982042688&#45;&gt;1990982056464 -->
<g id="edge6" class="edge">
<title>1990982042688&#45;&gt;1990982056464</title>
<path fill="none" stroke="black" d="M592.2,-63C600.12,-63 608.34,-63 616.09,-63"/>
<polygon fill="black" stroke="black" points="615.89,-66.5 625.89,-63 615.89,-59.5 615.89,-66.5"/>
</g>
<!-- 1990982051520 -->
<g id="node4" class="node">
<title>1990982051520</title>
<polygon fill="white" stroke="black" points="820.75,-81 717.75,-81 717.75,-45 820.75,-45 820.75,-81"/>
<text text-anchor="middle" x="769.25" y="-57.98" font-family="Times New Roman,serif" font-size="12.00">Hydroponic Setup</text>
</g>
<!-- 1990982050176 -->
<g id="node22" class="node">
<title>1990982050176</title>
<ellipse fill="white" stroke="black" cx="883.75" cy="-63" rx="27" ry="27"/>
</g>
<!-- 1990982051520&#45;&gt;1990982050176 -->
<g id="edge8" class="edge">
<title>1990982051520&#45;&gt;1990982050176</title>
<path fill="none" stroke="black" d="M821.23,-63C829.25,-63 837.4,-63 845.04,-63"/>
<polygon fill="black" stroke="black" points="845.02,-66.5 855.02,-63 845.02,-59.5 845.02,-66.5"/>
</g>
<!-- 1990982056992 -->
<g id="node5" class="node">
<title>1990982056992</title>
<polygon fill="white" stroke="black" points="1042.25,-81 946.75,-81 946.75,-45 1042.25,-45 1042.25,-81"/>
<text text-anchor="middle" x="994.5" y="-57.98" font-family="Times New Roman,serif" font-size="12.00">Irrigation Config</text>
</g>
<!-- 1990982044416 -->
<g id="node23" class="node">
<title>1990982044416</title>
<ellipse fill="white" stroke="black" cx="1105.25" cy="-99" rx="27" ry="27"/>
</g>
<!-- 1990982056992&#45;&gt;1990982044416 -->
<g id="edge10" class="edge">
<title>1990982056992&#45;&gt;1990982044416</title>
<path fill="none" stroke="black" d="M1042.57,-78.58C1051.25,-81.45 1060.18,-84.41 1068.47,-87.15"/>
<polygon fill="black" stroke="black" points="1067.24,-90.43 1077.83,-90.25 1069.44,-83.79 1067.24,-90.43"/>
</g>
<!-- 1990980364976 -->
<g id="node24" class="node">
<title>1990980364976</title>
<ellipse fill="white" stroke="black" cx="1105.25" cy="-27" rx="27" ry="27"/>
</g>
<!-- 1990982056992&#45;&gt;1990980364976 -->
<g id="edge11" class="edge">
<title>1990982056992&#45;&gt;1990980364976</title>
<path fill="none" stroke="black" d="M1042.57,-47.42C1051.25,-44.55 1060.18,-41.59 1068.47,-38.85"/>
<polygon fill="black" stroke="black" points="1069.44,-42.21 1077.83,-35.75 1067.24,-35.57 1069.44,-42.21"/>
</g>
<!-- 1990978633408 -->
<g id="node6" class="node">
<title>1990978633408</title>
<polygon fill="white" stroke="black" points="1278,-45 1168.25,-45 1168.25,-9 1278,-9 1278,-45"/>
<text text-anchor="middle" x="1223.12" y="-21.98" font-family="Times New Roman,serif" font-size="12.00">Community Recruit</text>
</g>
<!-- 1990978835120 -->
<g id="node25" class="node">
<title>1990978835120</title>
<ellipse fill="white" stroke="black" cx="1341" cy="-27" rx="27" ry="27"/>
</g>
<!-- 1990978633408&#45;&gt;1990978835120 -->
<g id="edge15" class="edge">
<title>1990978633408&#45;&gt;1990978835120</title>
<path fill="none" stroke="black" d="M1278.33,-27C1286.37,-27 1294.51,-27 1302.12,-27"/>
<polygon fill="black" stroke="black" points="1302.04,-30.5 1312.04,-27 1302.04,-23.5 1302.04,-30.5"/>
</g>
<!-- 1990982050032 -->
<g id="node7" class="node">
<title>1990982050032</title>
<polygon fill="white" stroke="black" points="1266,-117 1180.25,-117 1180.25,-81 1266,-81 1266,-117"/>
<text text-anchor="middle" x="1223.12" y="-93.97" font-family="Times New Roman,serif" font-size="12.00">Material Order</text>
</g>
<!-- 1990982049264 -->
<g id="node26" class="node">
<title>1990982049264</title>
<ellipse fill="white" stroke="black" cx="1341" cy="-99" rx="27" ry="27"/>
</g>
<!-- 1990982050032&#45;&gt;1990982049264 -->
<g id="edge14" class="edge">
<title>1990982050032&#45;&gt;1990982049264</title>
<path fill="none" stroke="black" d="M1266.29,-99C1278,-99 1290.66,-99 1302.11,-99"/>
<polygon fill="black" stroke="black" points="1302.02,-102.5 1312.02,-99 1302.02,-95.5 1302.02,-102.5"/>
</g>
<!-- 1990980357008 -->
<g id="node8" class="node">
<title>1990980357008</title>
<polygon fill="white" stroke="black" points="1486,-117 1413.75,-117 1413.75,-81 1486,-81 1486,-117"/>
<text text-anchor="middle" x="1449.88" y="-93.97" font-family="Times New Roman,serif" font-size="12.00">Solar Install</text>
</g>
<!-- 1990981409952 -->
<g id="node27" class="node">
<title>1990981409952</title>
<ellipse fill="white" stroke="black" cx="1558.75" cy="-99" rx="27" ry="27"/>
</g>
<!-- 1990980357008&#45;&gt;1990981409952 -->
<g id="edge19" class="edge">
<title>1990980357008&#45;&gt;1990981409952</title>
<path fill="none" stroke="black" d="M1486.46,-99C1497.25,-99 1509.14,-99 1520.07,-99"/>
<polygon fill="black" stroke="black" points="1519.93,-102.5 1529.93,-99 1519.93,-95.5 1519.93,-102.5"/>
</g>
<!-- 1990978840304 -->
<g id="node9" class="node">
<title>1990978840304</title>
<polygon fill="white" stroke="black" points="1495.75,-45 1404,-45 1404,-9 1495.75,-9 1495.75,-45"/>
<text text-anchor="middle" x="1449.88" y="-21.98" font-family="Times New Roman,serif" font-size="12.00">Volunteer Train</text>
</g>
<!-- 1990971045408 -->
<g id="node28" class="node">
<title>1990971045408</title>
<ellipse fill="white" stroke="black" cx="1558.75" cy="-27" rx="27" ry="27"/>
</g>
<!-- 1990978840304&#45;&gt;1990971045408 -->
<g id="edge18" class="edge">
<title>1990978840304&#45;&gt;1990971045408</title>
<path fill="none" stroke="black" d="M1496.2,-27C1504.21,-27 1512.47,-27 1520.23,-27"/>
<polygon fill="black" stroke="black" points="1520.03,-30.5 1530.03,-27 1520.03,-23.5 1520.03,-30.5"/>
</g>
<!-- 1990978830704 -->
<g id="node10" class="node">
<title>1990978830704</title>
<polygon fill="white" stroke="black" points="1708.25,-81 1621.75,-81 1621.75,-45 1708.25,-45 1708.25,-81"/>
<text text-anchor="middle" x="1665" y="-57.98" font-family="Times New Roman,serif" font-size="12.00">Sensor Deploy</text>
</g>
<!-- 1990977403936 -->
<g id="node29" class="node">
<title>1990977403936</title>
<ellipse fill="white" stroke="black" cx="1771.25" cy="-63" rx="27" ry="27"/>
</g>
<!-- 1990978830704&#45;&gt;1990977403936 -->
<g id="edge22" class="edge">
<title>1990978830704&#45;&gt;1990977403936</title>
<path fill="none" stroke="black" d="M1708.7,-63C1716.62,-63 1724.84,-63 1732.59,-63"/>
<polygon fill="black" stroke="black" points="1732.39,-66.5 1742.39,-63 1732.39,-59.5 1732.39,-66.5"/>
</g>
<!-- 1990977398560 -->
<g id="node11" class="node">
<title>1990977398560</title>
<polygon fill="white" stroke="black" points="1914,-81 1834.25,-81 1834.25,-45 1914,-45 1914,-81"/>
<text text-anchor="middle" x="1874.12" y="-57.98" font-family="Times New Roman,serif" font-size="12.00">Data Monitor</text>
</g>
<!-- 1990977393952 -->
<g id="node30" class="node">
<title>1990977393952</title>
<ellipse fill="white" stroke="black" cx="1977" cy="-63" rx="27" ry="27"/>
</g>
<!-- 1990977398560&#45;&gt;1990977393952 -->
<g id="edge24" class="edge">
<title>1990977398560&#45;&gt;1990977393952</title>
<path fill="none" stroke="black" d="M1914.41,-63C1922.28,-63 1930.52,-63 1938.32,-63"/>
<polygon fill="black" stroke="black" points="1938.22,-66.5 1948.22,-63 1938.22,-59.5 1938.22,-66.5"/>
</g>
<!-- 1990977390208 -->
<g id="node12" class="node">
<title>1990977390208</title>
<polygon fill="white" stroke="black" points="2121.25,-81 2040,-81 2040,-45 2121.25,-45 2121.25,-81"/>
<text text-anchor="middle" x="2080.62" y="-57.98" font-family="Times New Roman,serif" font-size="12.00">Health Check</text>
</g>
<!-- 1990977402256 -->
<g id="node31" class="node">
<title>1990977402256</title>
<ellipse fill="white" stroke="black" cx="2184.25" cy="-63" rx="27" ry="27"/>
</g>
<!-- 1990977390208&#45;&gt;1990977402256 -->
<g id="edge26" class="edge">
<title>1990977390208&#45;&gt;1990977402256</title>
<path fill="none" stroke="black" d="M2121.5,-63C2129.4,-63 2137.67,-63 2145.5,-63"/>
<polygon fill="black" stroke="black" points="2145.42,-66.5 2155.42,-63 2145.42,-59.5 2145.42,-66.5"/>
</g>
<!-- 1990977392992 -->
<g id="node13" class="node">
<title>1990977392992</title>
<polygon fill="white" stroke="black" points="2324,-81 2247.25,-81 2247.25,-45 2324,-45 2324,-81"/>
<text text-anchor="middle" x="2285.62" y="-57.98" font-family="Times New Roman,serif" font-size="12.00">Harvest Plan</text>
</g>
<!-- 1990977402496 -->
<g id="node32" class="node">
<title>1990977402496</title>
<ellipse fill="white" stroke="black" cx="2387" cy="-99" rx="27" ry="27"/>
</g>
<!-- 1990977392992&#45;&gt;1990977402496 -->
<g id="edge29" class="edge">
<title>1990977392992&#45;&gt;1990977402496</title>
<path fill="none" stroke="black" d="M2324.48,-76.71C2333.02,-79.81 2342.06,-83.08 2350.5,-86.14"/>
<polygon fill="black" stroke="black" points="2349.15,-89.37 2359.74,-89.49 2351.53,-82.79 2349.15,-89.37"/>
</g>
<!-- 1990977398800 -->
<g id="node33" class="node">
<title>1990977398800</title>
<ellipse fill="white" stroke="black" cx="2387" cy="-27" rx="27" ry="27"/>
</g>
<!-- 1990977392992&#45;&gt;1990977398800 -->
<g id="edge28" class="edge">
<title>1990977392992&#45;&gt;1990977398800</title>
<path fill="none" stroke="black" d="M2324.48,-49.29C2333.02,-46.19 2342.06,-42.92 2350.5,-39.86"/>
<polygon fill="black" stroke="black" points="2351.53,-43.21 2359.74,-36.51 2349.15,-36.63 2351.53,-43.21"/>
</g>
<!-- 1990977400720 -->
<g id="node14" class="node">
<title>1990977400720</title>
<polygon fill="white" stroke="black" points="2541.75,-117 2460.5,-117 2460.5,-81 2541.75,-81 2541.75,-117"/>
<text text-anchor="middle" x="2501.12" y="-93.97" font-family="Times New Roman,serif" font-size="12.00">Market Liaise</text>
</g>
<!-- 1990971043152 -->
<g id="node35" class="node">
<title>1990971043152</title>
<ellipse fill="white" stroke="black" cx="2615.25" cy="-99" rx="27" ry="27"/>
</g>
<!-- 1990977400720&#45;&gt;1990971043152 -->
<g id="edge33" class="edge">
<title>1990977400720&#45;&gt;1990971043152</title>
<path fill="none" stroke="black" d="M2541.97,-99C2553.16,-99 2565.29,-99 2576.36,-99"/>
<polygon fill="black" stroke="black" points="2576.34,-102.5 2586.34,-99 2576.34,-95.5 2576.34,-102.5"/>
</g>
<!-- 1990977388720 -->
<g id="node15" class="node">
<title>1990977388720</title>
<polygon fill="white" stroke="black" points="2552.25,-45 2450,-45 2450,-9 2552.25,-9 2552.25,-45"/>
<text text-anchor="middle" x="2501.12" y="-21.98" font-family="Times New Roman,serif" font-size="12.00">Donation Arrange</text>
</g>
<!-- 1990971046032 -->
<g id="node34" class="node">
<title>1990971046032</title>
<ellipse fill="white" stroke="black" cx="2615.25" cy="-27" rx="27" ry="27"/>
</g>
<!-- 1990977388720&#45;&gt;1990971046032 -->
<g id="edge32" class="edge">
<title>1990977388720&#45;&gt;1990971046032</title>
<path fill="none" stroke="black" d="M2552.61,-27C2560.72,-27 2568.98,-27 2576.71,-27"/>
<polygon fill="black" stroke="black" points="2576.44,-30.5 2586.44,-27 2576.44,-23.5 2576.44,-30.5"/>
</g>
<!-- 1990981404912 -->
<g id="node16" class="node">
<title>1990981404912</title>
<polygon fill="white" stroke="black" points="2779,-81 2678.25,-81 2678.25,-45 2779,-45 2779,-81"/>
<text text-anchor="middle" x="2728.62" y="-57.98" font-family="Times New Roman,serif" font-size="12.00">Maintenance Plan</text>
</g>
<!-- 1990981406496 -->
<g id="node36" class="node">
<title>1990981406496</title>
<ellipse fill="white" stroke="black" cx="2842" cy="-63" rx="27" ry="27"/>
</g>
<!-- 1990981404912&#45;&gt;1990981406496 -->
<g id="edge36" class="edge">
<title>1990981404912&#45;&gt;1990981406496</title>
<path fill="none" stroke="black" d="M2779.45,-63C2787.43,-63 2795.58,-63 2803.22,-63"/>
<polygon fill="black" stroke="black" points="2803.2,-66.5 2813.2,-63 2803.2,-59.5 2803.2,-66.5"/>
</g>
<!-- 1990981411920 -->
<g id="node17" class="node">
<title>1990981411920</title>
<polygon fill="white" stroke="black" points="2989.25,-81 2905,-81 2905,-45 2989.25,-45 2989.25,-81"/>
<text text-anchor="middle" x="2947.12" y="-57.98" font-family="Times New Roman,serif" font-size="12.00">Season Adjust</text>
</g>
<!-- 1990982044368 -->
<g id="node37" class="node">
<title>1990982044368</title>
<ellipse fill="white" stroke="black" cx="3056.25" cy="-63" rx="27" ry="27"/>
<ellipse fill="none" stroke="black" cx="3056.25" cy="-63" rx="31" ry="31"/>
<text text-anchor="start" x="3039.75" y="-47.6" font-family="Times New Roman,serif" font-size="32.00">■</text>
</g>
<!-- 1990981411920&#45;&gt;1990982044368 -->
<g id="edge38" class="edge">
<title>1990981411920&#45;&gt;1990982044368</title>
<path fill="none" stroke="black" d="M2989.54,-63C2997.45,-63 3005.74,-63 3013.66,-63"/>
<polygon fill="black" stroke="black" points="3013.39,-66.5 3023.39,-63 3013.39,-59.5 3013.39,-66.5"/>
</g>
<!-- 1990982053248 -->
<g id="node18" class="node">
<title>1990982053248</title>
<ellipse fill="white" stroke="black" cx="27" cy="-63" rx="27" ry="27"/>
<text text-anchor="start" x="9.75" y="-45.7" font-family="Times New Roman,serif" font-size="34.00">●</text>
</g>
<!-- 1990982053248&#45;&gt;1990982051904 -->
<g id="edge1" class="edge">
<title>1990982053248&#45;&gt;1990982051904</title>
<path fill="none" stroke="black" d="M54.33,-63C61.76,-63 70.06,-63 78.28,-63"/>
<polygon fill="black" stroke="black" points="78.24,-66.5 88.24,-63 78.24,-59.5 78.24,-66.5"/>
</g>
<!-- 1990982052240&#45;&gt;1990982055360 -->
<g id="edge3" class="edge">
<title>1990982052240&#45;&gt;1990982055360</title>
<path fill="none" stroke="black" d="M250.99,-63C258.32,-63 266.59,-63 274.97,-63"/>
<polygon fill="black" stroke="black" points="274.87,-66.5 284.87,-63 274.87,-59.5 274.87,-66.5"/>
</g>
<!-- 1990982056368&#45;&gt;1990982042688 -->
<g id="edge5" class="edge">
<title>1990982056368&#45;&gt;1990982042688</title>
<path fill="none" stroke="black" d="M469.56,-63C476.94,-63 485.24,-63 493.61,-63"/>
<polygon fill="black" stroke="black" points="493.46,-66.5 503.46,-63 493.46,-59.5 493.46,-66.5"/>
</g>
<!-- 1990982056464&#45;&gt;1990982051520 -->
<g id="edge7" class="edge">
<title>1990982056464&#45;&gt;1990982051520</title>
<path fill="none" stroke="black" d="M682.13,-63C689.36,-63 697.52,-63 705.86,-63"/>
<polygon fill="black" stroke="black" points="705.77,-66.5 715.77,-63 705.77,-59.5 705.77,-66.5"/>
</g>
<!-- 1990982050176&#45;&gt;1990982056992 -->
<g id="edge9" class="edge">
<title>1990982050176&#45;&gt;1990982056992</title>
<path fill="none" stroke="black" d="M911.08,-63C918.42,-63 926.71,-63 935.13,-63"/>
<polygon fill="black" stroke="black" points="935.09,-66.5 945.09,-63 935.09,-59.5 935.09,-66.5"/>
</g>
<!-- 1990982044416&#45;&gt;1990982050032 -->
<g id="edge12" class="edge">
<title>1990982044416&#45;&gt;1990982050032</title>
<path fill="none" stroke="black" d="M1132.54,-99C1143.28,-99 1156.11,-99 1168.65,-99"/>
<polygon fill="black" stroke="black" points="1168.51,-102.5 1178.51,-99 1168.51,-95.5 1168.51,-102.5"/>
</g>
<!-- 1990980364976&#45;&gt;1990978633408 -->
<g id="edge13" class="edge">
<title>1990980364976&#45;&gt;1990978633408</title>
<path fill="none" stroke="black" d="M1132.54,-27C1139.88,-27 1148.19,-27 1156.72,-27"/>
<polygon fill="black" stroke="black" points="1156.49,-30.5 1166.49,-27 1156.49,-23.5 1156.49,-30.5"/>
</g>
<!-- 1990978835120&#45;&gt;1990978840304 -->
<g id="edge17" class="edge">
<title>1990978835120&#45;&gt;1990978840304</title>
<path fill="none" stroke="black" d="M1368.42,-27C1375.73,-27 1383.95,-27 1392.28,-27"/>
<polygon fill="black" stroke="black" points="1392.11,-30.5 1402.11,-27 1392.11,-23.5 1392.11,-30.5"/>
</g>
<!-- 1990982049264&#45;&gt;1990980357008 -->
<g id="edge16" class="edge">
<title>1990982049264&#45;&gt;1990980357008</title>
<path fill="none" stroke="black" d="M1368.42,-99C1378.62,-99 1390.6,-99 1402.15,-99"/>
<polygon fill="black" stroke="black" points="1401.97,-102.5 1411.97,-99 1401.97,-95.5 1401.97,-102.5"/>
</g>
<!-- 1990981409952&#45;&gt;1990978830704 -->
<g id="edge21" class="edge">
<title>1990981409952&#45;&gt;1990978830704</title>
<path fill="none" stroke="black" d="M1584.72,-90.38C1592.6,-87.66 1601.63,-84.54 1610.7,-81.4"/>
<polygon fill="black" stroke="black" points="1611.57,-84.81 1619.88,-78.23 1609.29,-78.19 1611.57,-84.81"/>
</g>
<!-- 1990971045408&#45;&gt;1990978830704 -->
<g id="edge20" class="edge">
<title>1990971045408&#45;&gt;1990978830704</title>
<path fill="none" stroke="black" d="M1584.72,-35.62C1592.6,-38.34 1601.63,-41.46 1610.7,-44.6"/>
<polygon fill="black" stroke="black" points="1609.29,-47.81 1619.88,-47.77 1611.57,-41.19 1609.29,-47.81"/>
</g>
<!-- 1990977403936&#45;&gt;1990977398560 -->
<g id="edge23" class="edge">
<title>1990977403936&#45;&gt;1990977398560</title>
<path fill="none" stroke="black" d="M1798.49,-63C1805.96,-63 1814.35,-63 1822.74,-63"/>
<polygon fill="black" stroke="black" points="1822.58,-66.5 1832.58,-63 1822.58,-59.5 1822.58,-66.5"/>
</g>
<!-- 1990977393952&#45;&gt;1990977390208 -->
<g id="edge25" class="edge">
<title>1990977393952&#45;&gt;1990977390208</title>
<path fill="none" stroke="black" d="M2004.44,-63C2011.71,-63 2019.86,-63 2028.03,-63"/>
<polygon fill="black" stroke="black" points="2028.01,-66.5 2038.01,-63 2028.01,-59.5 2028.01,-66.5"/>
</g>
<!-- 1990977402256&#45;&gt;1990977392992 -->
<g id="edge27" class="edge">
<title>1990977402256&#45;&gt;1990977392992</title>
<path fill="none" stroke="black" d="M2211.62,-63C2218.97,-63 2227.19,-63 2235.4,-63"/>
<polygon fill="black" stroke="black" points="2235.39,-66.5 2245.39,-63 2235.39,-59.5 2235.39,-66.5"/>
</g>
<!-- 1990977402496&#45;&gt;1990977400720 -->
<g id="edge30" class="edge">
<title>1990977402496&#45;&gt;1990977400720</title>
<path fill="none" stroke="black" d="M2414.29,-99C2424.69,-99 2437.01,-99 2449.03,-99"/>
<polygon fill="black" stroke="black" points="2448.87,-102.5 2458.87,-99 2448.87,-95.5 2448.87,-102.5"/>
</g>
<!-- 1990977398800&#45;&gt;1990977388720 -->
<g id="edge31" class="edge">
<title>1990977398800&#45;&gt;1990977388720</title>
<path fill="none" stroke="black" d="M2414.29,-27C2421.67,-27 2430.02,-27 2438.54,-27"/>
<polygon fill="black" stroke="black" points="2438.27,-30.5 2448.27,-27 2438.27,-23.5 2438.27,-30.5"/>
</g>
<!-- 1990971046032&#45;&gt;1990981404912 -->
<g id="edge35" class="edge">
<title>1990971046032&#45;&gt;1990981404912</title>
<path fill="none" stroke="black" d="M2641.24,-35.08C2649.08,-37.61 2658.1,-40.53 2667.28,-43.5"/>
<polygon fill="black" stroke="black" points="2666.05,-46.78 2676.64,-46.52 2668.2,-40.12 2666.05,-46.78"/>
</g>
<!-- 1990971043152&#45;&gt;1990981404912 -->
<g id="edge34" class="edge">
<title>1990971043152&#45;&gt;1990981404912</title>
<path fill="none" stroke="black" d="M2641.24,-90.92C2649.08,-88.39 2658.1,-85.47 2667.28,-82.5"/>
<polygon fill="black" stroke="black" points="2668.2,-85.88 2676.64,-79.48 2666.05,-79.22 2668.2,-85.88"/>
</g>
<!-- 1990981406496&#45;&gt;1990981411920 -->
<g id="edge37" class="edge">
<title>1990981406496&#45;&gt;1990981411920</title>
<path fill="none" stroke="black" d="M2869.29,-63C2876.67,-63 2884.98,-63 2893.32,-63"/>
<polygon fill="black" stroke="black" points="2893.14,-66.5 2903.14,-63 2893.14,-59.5 2893.14,-66.5"/>
</g>
</g>
</svg>
