<?xml version="1.0" encoding="UTF-8" standalone="no"?>
<!DOCTYPE svg PUBLIC "-//W3C//DTD SVG 1.1//EN"
 "http://www.w3.org/Graphics/SVG/1.1/DTD/svg11.dtd">
<!-- Generated by graphviz version 11.0.0 (20240428.1522)
 -->
<!-- Title: imdf_net_1754052296.48318 Pages: 1 -->
<svg width="3087pt" height="134pt"
 viewBox="0.00 0.00 3087.00 134.00" xmlns="http://www.w3.org/2000/svg" xmlns:xlink="http://www.w3.org/1999/xlink">
<g id="graph0" class="graph" transform="scale(1 1) rotate(0) translate(4 130)">
<title>imdf_net_1754052296.48318</title>
<polygon fill="white" stroke="none" points="-4,4 -4,-130 3083,-130 3083,4 -4,4"/>
<!-- 1990976162800 -->
<g id="node1" class="node">
<title>1990976162800</title>
<polygon fill="white" stroke="black" points="173.5,-81 90,-81 90,-45 173.5,-45 173.5,-81"/>
<text text-anchor="middle" x="131.75" y="-57.98" font-family="Times New Roman,serif" font-size="12.00">Visual Inspect</text>
</g>
<!-- 1990976172304 -->
<g id="node19" class="node">
<title>1990976172304</title>
<ellipse fill="white" stroke="black" cx="236.5" cy="-63" rx="27" ry="27"/>
</g>
<!-- 1990976162800&#45;&gt;1990976172304 -->
<g id="edge2" class="edge">
<title>1990976162800&#45;&gt;1990976172304</title>
<path fill="none" stroke="black" d="M173.95,-63C181.81,-63 190,-63 197.75,-63"/>
<polygon fill="black" stroke="black" points="197.55,-66.5 207.55,-63 197.55,-59.5 197.55,-66.5"/>
</g>
<!-- 1990976169664 -->
<g id="node2" class="node">
<title>1990976169664</title>
<polygon fill="white" stroke="black" points="404.75,-81 299.5,-81 299.5,-45 404.75,-45 404.75,-81"/>
<text text-anchor="middle" x="352.12" y="-57.98" font-family="Times New Roman,serif" font-size="12.00">Document Review</text>
</g>
<!-- 1990976163088 -->
<g id="node20" class="node">
<title>1990976163088</title>
<ellipse fill="white" stroke="black" cx="467.75" cy="-63" rx="27" ry="27"/>
</g>
<!-- 1990976169664&#45;&gt;1990976163088 -->
<g id="edge4" class="edge">
<title>1990976169664&#45;&gt;1990976163088</title>
<path fill="none" stroke="black" d="M404.95,-63C413.11,-63 421.41,-63 429.17,-63"/>
<polygon fill="black" stroke="black" points="428.93,-66.5 438.93,-63 428.93,-59.5 428.93,-66.5"/>
</g>
<!-- 1990976171296 -->
<g id="node3" class="node">
<title>1990976171296</title>
<polygon fill="white" stroke="black" points="609,-81 530.75,-81 530.75,-45 609,-45 609,-81"/>
<text text-anchor="middle" x="569.88" y="-57.98" font-family="Times New Roman,serif" font-size="12.00">Material Test</text>
</g>
<!-- 1990976163520 -->
<g id="node21" class="node">
<title>1990976163520</title>
<ellipse fill="white" stroke="black" cx="672" cy="-63" rx="27" ry="27"/>
</g>
<!-- 1990976171296&#45;&gt;1990976163520 -->
<g id="edge6" class="edge">
<title>1990976171296&#45;&gt;1990976163520</title>
<path fill="none" stroke="black" d="M609.3,-63C617.14,-63 625.38,-63 633.19,-63"/>
<polygon fill="black" stroke="black" points="633.11,-66.5 643.11,-63 633.11,-59.5 633.11,-66.5"/>
</g>
<!-- 1990976168992 -->
<g id="node4" class="node">
<title>1990976168992</title>
<polygon fill="white" stroke="black" points="838,-81 735,-81 735,-45 838,-45 838,-81"/>
<text text-anchor="middle" x="786.5" y="-57.98" font-family="Times New Roman,serif" font-size="12.00">Spectroscopy Run</text>
</g>
<!-- 1990976165152 -->
<g id="node22" class="node">
<title>1990976165152</title>
<ellipse fill="white" stroke="black" cx="901" cy="-99" rx="27" ry="27"/>
</g>
<!-- 1990976168992&#45;&gt;1990976165152 -->
<g id="edge9" class="edge">
<title>1990976168992&#45;&gt;1990976165152</title>
<path fill="none" stroke="black" d="M838.48,-79.31C847.2,-82.1 856.08,-84.95 864.29,-87.57"/>
<polygon fill="black" stroke="black" points="862.95,-90.82 873.54,-90.53 865.08,-84.15 862.95,-90.82"/>
</g>
<!-- 1990982120560 -->
<g id="node23" class="node">
<title>1990982120560</title>
<ellipse fill="white" stroke="black" cx="901" cy="-27" rx="27" ry="27"/>
</g>
<!-- 1990976168992&#45;&gt;1990982120560 -->
<g id="edge8" class="edge">
<title>1990976168992&#45;&gt;1990982120560</title>
<path fill="none" stroke="black" d="M838.48,-46.69C847.2,-43.9 856.08,-41.05 864.29,-38.43"/>
<polygon fill="black" stroke="black" points="865.08,-41.85 873.54,-35.47 862.95,-35.18 865.08,-41.85"/>
</g>
<!-- 1990976171440 -->
<g id="node5" class="node">
<title>1990976171440</title>
<polygon fill="white" stroke="black" points="1053.5,-117 964,-117 964,-81 1053.5,-81 1053.5,-117"/>
<text text-anchor="middle" x="1008.75" y="-93.97" font-family="Times New Roman,serif" font-size="12.00">Registry Check</text>
</g>
<!-- 1990980947600 -->
<g id="node24" class="node">
<title>1990980947600</title>
<ellipse fill="white" stroke="black" cx="1116.5" cy="-99" rx="27" ry="27"/>
</g>
<!-- 1990976171440&#45;&gt;1990980947600 -->
<g id="edge12" class="edge">
<title>1990976171440&#45;&gt;1990980947600</title>
<path fill="none" stroke="black" d="M1053.98,-99C1061.95,-99 1070.19,-99 1077.95,-99"/>
<polygon fill="black" stroke="black" points="1077.74,-102.5 1087.74,-99 1077.74,-95.5 1077.74,-102.5"/>
</g>
<!-- 1990982122576 -->
<g id="node6" class="node">
<title>1990982122576</title>
<polygon fill="white" stroke="black" points="1052.75,-45 964.75,-45 964.75,-9 1052.75,-9 1052.75,-45"/>
<text text-anchor="middle" x="1008.75" y="-21.98" font-family="Times New Roman,serif" font-size="12.00">Auction Verify</text>
</g>
<!-- 1990980951920 -->
<g id="node25" class="node">
<title>1990980951920</title>
<ellipse fill="white" stroke="black" cx="1116.5" cy="-27" rx="27" ry="27"/>
</g>
<!-- 1990982122576&#45;&gt;1990980951920 -->
<g id="edge13" class="edge">
<title>1990982122576&#45;&gt;1990980951920</title>
<path fill="none" stroke="black" d="M1053.07,-27C1061.27,-27 1069.79,-27 1077.8,-27"/>
<polygon fill="black" stroke="black" points="1077.56,-30.5 1087.56,-27 1077.56,-23.5 1077.56,-30.5"/>
</g>
<!-- 1990982114224 -->
<g id="node7" class="node">
<title>1990982114224</title>
<polygon fill="white" stroke="black" points="1263.75,-81 1179.5,-81 1179.5,-45 1263.75,-45 1263.75,-81"/>
<text text-anchor="middle" x="1221.62" y="-57.98" font-family="Times New Roman,serif" font-size="12.00">Anomaly Flag</text>
</g>
<!-- 1990982109664 -->
<g id="node26" class="node">
<title>1990982109664</title>
<ellipse fill="white" stroke="black" cx="1326.75" cy="-63" rx="27" ry="27"/>
</g>
<!-- 1990982114224&#45;&gt;1990982109664 -->
<g id="edge16" class="edge">
<title>1990982114224&#45;&gt;1990982109664</title>
<path fill="none" stroke="black" d="M1263.98,-63C1271.94,-63 1280.24,-63 1288.08,-63"/>
<polygon fill="black" stroke="black" points="1288,-66.5 1298,-63 1288,-59.5 1288,-66.5"/>
</g>
<!-- 1990982109184 -->
<g id="node8" class="node">
<title>1990982109184</title>
<polygon fill="white" stroke="black" points="1466.5,-81 1389.75,-81 1389.75,-45 1466.5,-45 1466.5,-81"/>
<text text-anchor="middle" x="1428.12" y="-57.98" font-family="Times New Roman,serif" font-size="12.00">Expert Panel</text>
</g>
<!-- 1990982113024 -->
<g id="node27" class="node">
<title>1990982113024</title>
<ellipse fill="white" stroke="black" cx="1529.5" cy="-63" rx="27" ry="27"/>
</g>
<!-- 1990982109184&#45;&gt;1990982113024 -->
<g id="edge18" class="edge">
<title>1990982109184&#45;&gt;1990982113024</title>
<path fill="none" stroke="black" d="M1466.98,-63C1474.77,-63 1482.98,-63 1490.77,-63"/>
<polygon fill="black" stroke="black" points="1490.65,-66.5 1500.65,-63 1490.65,-59.5 1490.65,-66.5"/>
</g>
<!-- 1990982121664 -->
<g id="node9" class="node">
<title>1990982121664</title>
<polygon fill="white" stroke="black" points="1706.75,-81 1592.5,-81 1592.5,-45 1706.75,-45 1706.75,-81"/>
<text text-anchor="middle" x="1649.62" y="-57.98" font-family="Times New Roman,serif" font-size="12.00">Conservation Assess</text>
</g>
<!-- 1990982119696 -->
<g id="node28" class="node">
<title>1990982119696</title>
<ellipse fill="white" stroke="black" cx="1769.75" cy="-63" rx="27" ry="27"/>
</g>
<!-- 1990982121664&#45;&gt;1990982119696 -->
<g id="edge20" class="edge">
<title>1990982121664&#45;&gt;1990982119696</title>
<path fill="none" stroke="black" d="M1706.92,-63C1715.03,-63 1723.21,-63 1730.85,-63"/>
<polygon fill="black" stroke="black" points="1730.8,-66.5 1740.8,-63 1730.8,-59.5 1730.8,-66.5"/>
</g>
<!-- 1990982119744 -->
<g id="node10" class="node">
<title>1990982119744</title>
<polygon fill="white" stroke="black" points="1926,-81 1832.75,-81 1832.75,-45 1926,-45 1926,-81"/>
<text text-anchor="middle" x="1879.38" y="-57.98" font-family="Times New Roman,serif" font-size="12.00">Handle Protocol</text>
</g>
<!-- 1990982119648 -->
<g id="node29" class="node">
<title>1990982119648</title>
<ellipse fill="white" stroke="black" cx="1989" cy="-99" rx="27" ry="27"/>
</g>
<!-- 1990982119744&#45;&gt;1990982119648 -->
<g id="edge22" class="edge">
<title>1990982119744&#45;&gt;1990982119648</title>
<path fill="none" stroke="black" d="M1926.33,-78.37C1934.97,-81.26 1943.89,-84.25 1952.17,-87.01"/>
<polygon fill="black" stroke="black" points="1950.94,-90.29 1961.53,-90.15 1953.16,-83.66 1950.94,-90.29"/>
</g>
<!-- 1990982118496 -->
<g id="node30" class="node">
<title>1990982118496</title>
<ellipse fill="white" stroke="black" cx="1989" cy="-27" rx="27" ry="27"/>
</g>
<!-- 1990982119744&#45;&gt;1990982118496 -->
<g id="edge23" class="edge">
<title>1990982119744&#45;&gt;1990982118496</title>
<path fill="none" stroke="black" d="M1926.33,-47.63C1934.97,-44.74 1943.89,-41.75 1952.17,-38.99"/>
<polygon fill="black" stroke="black" points="1953.16,-42.34 1961.53,-35.85 1950.94,-35.71 1953.16,-42.34"/>
</g>
<!-- 1990982109328 -->
<g id="node11" class="node">
<title>1990982109328</title>
<polygon fill="white" stroke="black" points="2137.75,-117 2052,-117 2052,-81 2137.75,-81 2137.75,-117"/>
<text text-anchor="middle" x="2094.88" y="-93.97" font-family="Times New Roman,serif" font-size="12.00">Image Capture</text>
</g>
<!-- 1990980993872 -->
<g id="node32" class="node">
<title>1990980993872</title>
<ellipse fill="white" stroke="black" cx="2200.75" cy="-99" rx="27" ry="27"/>
</g>
<!-- 1990982109328&#45;&gt;1990980993872 -->
<g id="edge27" class="edge">
<title>1990982109328&#45;&gt;1990980993872</title>
<path fill="none" stroke="black" d="M2138.12,-99C2146.03,-99 2154.25,-99 2162.01,-99"/>
<polygon fill="black" stroke="black" points="2161.82,-102.5 2171.82,-99 2161.82,-95.5 2161.82,-102.5"/>
</g>
<!-- 1990982120032 -->
<g id="node12" class="node">
<title>1990982120032</title>
<polygon fill="white" stroke="black" points="2123.5,-45 2066.25,-45 2066.25,-9 2123.5,-9 2123.5,-45"/>
<text text-anchor="middle" x="2094.88" y="-21.98" font-family="Times New Roman,serif" font-size="12.00">3D Scan</text>
</g>
<!-- 1990981007552 -->
<g id="node31" class="node">
<title>1990981007552</title>
<ellipse fill="white" stroke="black" cx="2200.75" cy="-27" rx="27" ry="27"/>
</g>
<!-- 1990982120032&#45;&gt;1990981007552 -->
<g id="edge26" class="edge">
<title>1990982120032&#45;&gt;1990981007552</title>
<path fill="none" stroke="black" d="M2123.99,-27C2135.76,-27 2149.62,-27 2162.25,-27"/>
<polygon fill="black" stroke="black" points="2161.89,-30.5 2171.89,-27 2161.89,-23.5 2161.89,-30.5"/>
</g>
<!-- 1990982110000 -->
<g id="node13" class="node">
<title>1990982110000</title>
<polygon fill="white" stroke="black" points="2355.5,-81 2263.75,-81 2263.75,-45 2355.5,-45 2355.5,-81"/>
<text text-anchor="middle" x="2309.62" y="-57.98" font-family="Times New Roman,serif" font-size="12.00">Report Compile</text>
</g>
<!-- 1990981339856 -->
<g id="node33" class="node">
<title>1990981339856</title>
<ellipse fill="white" stroke="black" cx="2418.5" cy="-99" rx="27" ry="27"/>
</g>
<!-- 1990982110000&#45;&gt;1990981339856 -->
<g id="edge30" class="edge">
<title>1990982110000&#45;&gt;1990981339856</title>
<path fill="none" stroke="black" d="M2355.95,-78.27C2364.55,-81.17 2373.45,-84.16 2381.71,-86.94"/>
<polygon fill="black" stroke="black" points="2380.46,-90.22 2391.05,-90.09 2382.7,-83.58 2380.46,-90.22"/>
</g>
<!-- 1990981341296 -->
<g id="node34" class="node">
<title>1990981341296</title>
<ellipse fill="white" stroke="black" cx="2418.5" cy="-27" rx="27" ry="27"/>
</g>
<!-- 1990982110000&#45;&gt;1990981341296 -->
<g id="edge31" class="edge">
<title>1990982110000&#45;&gt;1990981341296</title>
<path fill="none" stroke="black" d="M2355.95,-47.73C2364.55,-44.83 2373.45,-41.84 2381.71,-39.06"/>
<polygon fill="black" stroke="black" points="2382.7,-42.42 2391.05,-35.91 2380.46,-35.78 2382.7,-42.42"/>
</g>
<!-- 1990980957824 -->
<g id="node14" class="node">
<title>1990980957824</title>
<polygon fill="white" stroke="black" points="2555.62,-117 2490.12,-117 2490.12,-81 2555.62,-81 2555.62,-117"/>
<text text-anchor="middle" x="2522.88" y="-93.97" font-family="Times New Roman,serif" font-size="12.00">Data Sync</text>
</g>
<!-- 1990981007888 -->
<g id="node35" class="node">
<title>1990981007888</title>
<ellipse fill="white" stroke="black" cx="2627.25" cy="-99" rx="27" ry="27"/>
</g>
<!-- 1990980957824&#45;&gt;1990981007888 -->
<g id="edge35" class="edge">
<title>1990980957824&#45;&gt;1990981007888</title>
<path fill="none" stroke="black" d="M2555.99,-99C2566.41,-99 2578.06,-99 2588.83,-99"/>
<polygon fill="black" stroke="black" points="2588.56,-102.5 2598.56,-99 2588.56,-95.5 2588.56,-102.5"/>
</g>
<!-- 1990981343408 -->
<g id="node15" class="node">
<title>1990981343408</title>
<polygon fill="white" stroke="black" points="2564.25,-45 2481.5,-45 2481.5,-9 2564.25,-9 2564.25,-45"/>
<text text-anchor="middle" x="2522.88" y="-21.98" font-family="Times New Roman,serif" font-size="12.00">Legal Review</text>
</g>
<!-- 1990981004912 -->
<g id="node36" class="node">
<title>1990981004912</title>
<ellipse fill="white" stroke="black" cx="2627.25" cy="-27" rx="27" ry="27"/>
</g>
<!-- 1990981343408&#45;&gt;1990981004912 -->
<g id="edge34" class="edge">
<title>1990981343408&#45;&gt;1990981004912</title>
<path fill="none" stroke="black" d="M2564.63,-27C2572.48,-27 2580.67,-27 2588.42,-27"/>
<polygon fill="black" stroke="black" points="2588.24,-30.5 2598.24,-27 2588.24,-23.5 2588.24,-30.5"/>
</g>
<!-- 1990980951824 -->
<g id="node16" class="node">
<title>1990980951824</title>
<polygon fill="white" stroke="black" points="2772.25,-81 2690.25,-81 2690.25,-45 2772.25,-45 2772.25,-81"/>
<text text-anchor="middle" x="2731.25" y="-57.98" font-family="Times New Roman,serif" font-size="12.00">Archive Store</text>
</g>
<!-- 1990980954320 -->
<g id="node37" class="node">
<title>1990980954320</title>
<ellipse fill="white" stroke="black" cx="2835.25" cy="-63" rx="27" ry="27"/>
</g>
<!-- 1990980951824&#45;&gt;1990980954320 -->
<g id="edge38" class="edge">
<title>1990980951824&#45;&gt;1990980954320</title>
<path fill="none" stroke="black" d="M2772.56,-63C2780.48,-63 2788.75,-63 2796.57,-63"/>
<polygon fill="black" stroke="black" points="2796.48,-66.5 2806.48,-63 2796.48,-59.5 2796.48,-66.5"/>
</g>
<!-- 1990980945488 -->
<g id="node17" class="node">
<title>1990980945488</title>
<polygon fill="white" stroke="black" points="2981,-81 2898.25,-81 2898.25,-45 2981,-45 2981,-81"/>
<text text-anchor="middle" x="2939.62" y="-57.98" font-family="Times New Roman,serif" font-size="12.00">Client Deliver</text>
</g>
<!-- 1990978545248 -->
<g id="node38" class="node">
<title>1990978545248</title>
<ellipse fill="white" stroke="black" cx="3048" cy="-63" rx="27" ry="27"/>
<ellipse fill="none" stroke="black" cx="3048" cy="-63" rx="31" ry="31"/>
<text text-anchor="start" x="3031.5" y="-47.6" font-family="Times New Roman,serif" font-size="32.00">■</text>
</g>
<!-- 1990980945488&#45;&gt;1990978545248 -->
<g id="edge40" class="edge">
<title>1990980945488&#45;&gt;1990978545248</title>
<path fill="none" stroke="black" d="M2981.45,-63C2989.23,-63 2997.39,-63 3005.2,-63"/>
<polygon fill="black" stroke="black" points="3005.18,-66.5 3015.18,-63 3005.18,-59.5 3005.18,-66.5"/>
</g>
<!-- 1990978537136 -->
<g id="node18" class="node">
<title>1990978537136</title>
<ellipse fill="white" stroke="black" cx="27" cy="-63" rx="27" ry="27"/>
<text text-anchor="start" x="9.75" y="-45.7" font-family="Times New Roman,serif" font-size="34.00">●</text>
</g>
<!-- 1990978537136&#45;&gt;1990976162800 -->
<g id="edge1" class="edge">
<title>1990978537136&#45;&gt;1990976162800</title>
<path fill="none" stroke="black" d="M54.46,-63C61.82,-63 70.08,-63 78.37,-63"/>
<polygon fill="black" stroke="black" points="78.11,-66.5 88.11,-63 78.11,-59.5 78.11,-66.5"/>
</g>
<!-- 1990976172304&#45;&gt;1990976169664 -->
<g id="edge3" class="edge">
<title>1990976172304&#45;&gt;1990976169664</title>
<path fill="none" stroke="black" d="M263.85,-63C271.24,-63 279.6,-63 288.15,-63"/>
<polygon fill="black" stroke="black" points="287.91,-66.5 297.91,-63 287.91,-59.5 287.91,-66.5"/>
</g>
<!-- 1990976163088&#45;&gt;1990976171296 -->
<g id="edge5" class="edge">
<title>1990976163088&#45;&gt;1990976171296</title>
<path fill="none" stroke="black" d="M495.06,-63C502.38,-63 510.59,-63 518.8,-63"/>
<polygon fill="black" stroke="black" points="518.8,-66.5 528.8,-63 518.8,-59.5 518.8,-66.5"/>
</g>
<!-- 1990976163520&#45;&gt;1990976168992 -->
<g id="edge7" class="edge">
<title>1990976163520&#45;&gt;1990976168992</title>
<path fill="none" stroke="black" d="M699.38,-63C706.61,-63 714.77,-63 723.11,-63"/>
<polygon fill="black" stroke="black" points="723.02,-66.5 733.02,-63 723.02,-59.5 723.02,-66.5"/>
</g>
<!-- 1990976165152&#45;&gt;1990976171440 -->
<g id="edge10" class="edge">
<title>1990976165152&#45;&gt;1990976171440</title>
<path fill="none" stroke="black" d="M928.41,-99C935.73,-99 943.96,-99 952.28,-99"/>
<polygon fill="black" stroke="black" points="952.08,-102.5 962.08,-99 952.08,-95.5 952.08,-102.5"/>
</g>
<!-- 1990982120560&#45;&gt;1990982122576 -->
<g id="edge11" class="edge">
<title>1990982120560&#45;&gt;1990982122576</title>
<path fill="none" stroke="black" d="M928.41,-27C935.98,-27 944.53,-27 953.14,-27"/>
<polygon fill="black" stroke="black" points="952.9,-30.5 962.9,-27 952.9,-23.5 952.9,-30.5"/>
</g>
<!-- 1990980947600&#45;&gt;1990982114224 -->
<g id="edge14" class="edge">
<title>1990980947600&#45;&gt;1990982114224</title>
<path fill="none" stroke="black" d="M1142.46,-90.29C1150.43,-87.5 1159.57,-84.31 1168.72,-81.12"/>
<polygon fill="black" stroke="black" points="1169.68,-84.49 1177.97,-77.89 1167.38,-77.88 1169.68,-84.49"/>
</g>
<!-- 1990980951920&#45;&gt;1990982114224 -->
<g id="edge15" class="edge">
<title>1990980951920&#45;&gt;1990982114224</title>
<path fill="none" stroke="black" d="M1142.46,-35.71C1150.43,-38.5 1159.57,-41.69 1168.72,-44.88"/>
<polygon fill="black" stroke="black" points="1167.38,-48.12 1177.97,-48.11 1169.68,-41.51 1167.38,-48.12"/>
</g>
<!-- 1990982109664&#45;&gt;1990982109184 -->
<g id="edge17" class="edge">
<title>1990982109664&#45;&gt;1990982109184</title>
<path fill="none" stroke="black" d="M1354.12,-63C1361.47,-63 1369.69,-63 1377.9,-63"/>
<polygon fill="black" stroke="black" points="1377.89,-66.5 1387.89,-63 1377.89,-59.5 1377.89,-66.5"/>
</g>
<!-- 1990982113024&#45;&gt;1990982121664 -->
<g id="edge19" class="edge">
<title>1990982113024&#45;&gt;1990982121664</title>
<path fill="none" stroke="black" d="M1556.72,-63C1563.99,-63 1572.25,-63 1580.75,-63"/>
<polygon fill="black" stroke="black" points="1580.5,-66.5 1590.5,-63 1580.5,-59.5 1580.5,-66.5"/>
</g>
<!-- 1990982119696&#45;&gt;1990982119744 -->
<g id="edge21" class="edge">
<title>1990982119696&#45;&gt;1990982119744</title>
<path fill="none" stroke="black" d="M1797.08,-63C1804.44,-63 1812.73,-63 1821.14,-63"/>
<polygon fill="black" stroke="black" points="1821.08,-66.5 1831.08,-63 1821.08,-59.5 1821.08,-66.5"/>
</g>
<!-- 1990982119648&#45;&gt;1990982109328 -->
<g id="edge25" class="edge">
<title>1990982119648&#45;&gt;1990982109328</title>
<path fill="none" stroke="black" d="M2016.48,-99C2023.84,-99 2032.1,-99 2040.41,-99"/>
<polygon fill="black" stroke="black" points="2040.19,-102.5 2050.19,-99 2040.19,-95.5 2040.19,-102.5"/>
</g>
<!-- 1990982118496&#45;&gt;1990982120032 -->
<g id="edge24" class="edge">
<title>1990982118496&#45;&gt;1990982120032</title>
<path fill="none" stroke="black" d="M2016.48,-27C2028.08,-27 2041.92,-27 2054.68,-27"/>
<polygon fill="black" stroke="black" points="2054.48,-30.5 2064.48,-27 2054.48,-23.5 2054.48,-30.5"/>
</g>
<!-- 1990981007552&#45;&gt;1990982110000 -->
<g id="edge29" class="edge">
<title>1990981007552&#45;&gt;1990982110000</title>
<path fill="none" stroke="black" d="M2226.81,-35.44C2234.7,-38.1 2243.76,-41.15 2252.9,-44.23"/>
<polygon fill="black" stroke="black" points="2251.59,-47.48 2262.18,-47.36 2253.82,-40.85 2251.59,-47.48"/>
</g>
<!-- 1990980993872&#45;&gt;1990982110000 -->
<g id="edge28" class="edge">
<title>1990980993872&#45;&gt;1990982110000</title>
<path fill="none" stroke="black" d="M2226.81,-90.56C2234.7,-87.9 2243.76,-84.85 2252.9,-81.77"/>
<polygon fill="black" stroke="black" points="2253.82,-85.15 2262.18,-78.64 2251.59,-78.52 2253.82,-85.15"/>
</g>
<!-- 1990981339856&#45;&gt;1990980957824 -->
<g id="edge32" class="edge">
<title>1990981339856&#45;&gt;1990980957824</title>
<path fill="none" stroke="black" d="M2445.86,-99C2455.8,-99 2467.39,-99 2478.47,-99"/>
<polygon fill="black" stroke="black" points="2478.24,-102.5 2488.24,-99 2478.24,-95.5 2478.24,-102.5"/>
</g>
<!-- 1990981341296&#45;&gt;1990981343408 -->
<g id="edge33" class="edge">
<title>1990981341296&#45;&gt;1990981343408</title>
<path fill="none" stroke="black" d="M2445.86,-27C2453.28,-27 2461.61,-27 2469.96,-27"/>
<polygon fill="black" stroke="black" points="2469.77,-30.5 2479.77,-27 2469.77,-23.5 2469.77,-30.5"/>
</g>
<!-- 1990981007888&#45;&gt;1990980951824 -->
<g id="edge36" class="edge">
<title>1990981007888&#45;&gt;1990980951824</title>
<path fill="none" stroke="black" d="M2653.2,-90.19C2661.17,-87.38 2670.3,-84.16 2679.42,-80.94"/>
<polygon fill="black" stroke="black" points="2680.37,-84.32 2688.63,-77.69 2678.04,-77.72 2680.37,-84.32"/>
</g>
<!-- 1990981004912&#45;&gt;1990980951824 -->
<g id="edge37" class="edge">
<title>1990981004912&#45;&gt;1990980951824</title>
<path fill="none" stroke="black" d="M2653.2,-35.81C2661.17,-38.62 2670.3,-41.84 2679.42,-45.06"/>
<polygon fill="black" stroke="black" points="2678.04,-48.28 2688.63,-48.31 2680.37,-41.68 2678.04,-48.28"/>
</g>
<!-- 1990980954320&#45;&gt;1990980945488 -->
<g id="edge39" class="edge">
<title>1990980954320&#45;&gt;1990980945488</title>
<path fill="none" stroke="black" d="M2862.61,-63C2870.03,-63 2878.36,-63 2886.71,-63"/>
<polygon fill="black" stroke="black" points="2886.52,-66.5 2896.52,-63 2886.52,-59.5 2886.52,-66.5"/>
</g>
</g>
</svg>
