<?xml version="1.0" encoding="UTF-8" standalone="no"?>
<!DOCTYPE svg PUBLIC "-//W3C//DTD SVG 1.1//EN"
 "http://www.w3.org/Graphics/SVG/1.1/DTD/svg11.dtd">
<!-- Generated by graphviz version 11.0.0 (20240428.1522)
 -->
<!-- Title: imdf_net_1754052301.9232116 Pages: 1 -->
<svg width="3077pt" height="202pt"
 viewBox="0.00 0.00 3076.50 202.00" xmlns="http://www.w3.org/2000/svg" xmlns:xlink="http://www.w3.org/1999/xlink">
<g id="graph0" class="graph" transform="scale(1 1) rotate(0) translate(4 198)">
<title>imdf_net_1754052301.9232116</title>
<polygon fill="white" stroke="none" points="-4,4 -4,-198 3072.5,-198 3072.5,4 -4,4"/>
<!-- 1990971753392 -->
<g id="node1" class="node">
<title>1990971753392</title>
<polygon fill="white" stroke="black" points="159.25,-149 90,-149 90,-113 159.25,-113 159.25,-149"/>
<text text-anchor="middle" x="124.62" y="-125.97" font-family="Times New Roman,serif" font-size="12.00">Site Assess</text>
</g>
<!-- 1990976655232 -->
<g id="node20" class="node">
<title>1990976655232</title>
<ellipse fill="white" stroke="black" cx="222.25" cy="-131" rx="27" ry="27"/>
</g>
<!-- 1990971753392&#45;&gt;1990976655232 -->
<g id="edge2" class="edge">
<title>1990971753392&#45;&gt;1990976655232</title>
<path fill="none" stroke="black" d="M159.61,-131C167.31,-131 175.53,-131 183.38,-131"/>
<polygon fill="black" stroke="black" points="183.38,-134.5 193.38,-131 183.38,-127.5 183.38,-134.5"/>
</g>
<!-- 1990976651584 -->
<g id="node2" class="node">
<title>1990976651584</title>
<polygon fill="white" stroke="black" points="398,-149 285.25,-149 285.25,-113 398,-113 398,-149"/>
<text text-anchor="middle" x="341.62" y="-125.97" font-family="Times New Roman,serif" font-size="12.00">Review Compliance</text>
</g>
<!-- 1990976661424 -->
<g id="node21" class="node">
<title>1990976661424</title>
<ellipse fill="white" stroke="black" cx="461" cy="-131" rx="27" ry="27"/>
</g>
<!-- 1990976651584&#45;&gt;1990976661424 -->
<g id="edge4" class="edge">
<title>1990976651584&#45;&gt;1990976661424</title>
<path fill="none" stroke="black" d="M398.22,-131C406.31,-131 414.47,-131 422.1,-131"/>
<polygon fill="black" stroke="black" points="422.04,-134.5 432.04,-131 422.04,-127.5 422.04,-134.5"/>
</g>
<!-- 1990971631104 -->
<g id="node3" class="node">
<title>1990971631104</title>
<polygon fill="white" stroke="black" points="618,-149 524,-149 524,-113 618,-113 618,-149"/>
<text text-anchor="middle" x="571" y="-125.97" font-family="Times New Roman,serif" font-size="12.00">Design Modules</text>
</g>
<!-- 1990971632832 -->
<g id="node22" class="node">
<title>1990971632832</title>
<ellipse fill="white" stroke="black" cx="681" cy="-167" rx="27" ry="27"/>
</g>
<!-- 1990971631104&#45;&gt;1990971632832 -->
<g id="edge6" class="edge">
<title>1990971631104&#45;&gt;1990971632832</title>
<path fill="none" stroke="black" d="M618.43,-146.48C627.08,-149.36 635.99,-152.33 644.25,-155.08"/>
<polygon fill="black" stroke="black" points="643.01,-158.36 653.6,-158.2 645.22,-151.72 643.01,-158.36"/>
</g>
<!-- 1990980443968 -->
<g id="node23" class="node">
<title>1990980443968</title>
<ellipse fill="white" stroke="black" cx="681" cy="-95" rx="27" ry="27"/>
</g>
<!-- 1990971631104&#45;&gt;1990980443968 -->
<g id="edge7" class="edge">
<title>1990971631104&#45;&gt;1990980443968</title>
<path fill="none" stroke="black" d="M618.43,-115.52C627.08,-112.64 635.99,-109.67 644.25,-106.92"/>
<polygon fill="black" stroke="black" points="645.22,-110.28 653.6,-103.8 643.01,-103.64 645.22,-110.28"/>
</g>
<!-- 1990978980944 -->
<g id="node4" class="node">
<title>1990978980944</title>
<polygon fill="white" stroke="black" points="833.88,-185 763.12,-185 763.12,-149 833.88,-149 833.88,-185"/>
<text text-anchor="middle" x="798.5" y="-161.97" font-family="Times New Roman,serif" font-size="12.00">Set Climate</text>
</g>
<!-- 1990980449200 -->
<g id="node25" class="node">
<title>1990980449200</title>
<ellipse fill="white" stroke="black" cx="916" cy="-167" rx="27" ry="27"/>
</g>
<!-- 1990978980944&#45;&gt;1990980449200 -->
<g id="edge11" class="edge">
<title>1990978980944&#45;&gt;1990980449200</title>
<path fill="none" stroke="black" d="M834.15,-167C847.86,-167 863.64,-167 877.6,-167"/>
<polygon fill="black" stroke="black" points="877.3,-170.5 887.3,-167 877.3,-163.5 877.3,-170.5"/>
</g>
<!-- 1990981838432 -->
<g id="node5" class="node">
<title>1990981838432</title>
<polygon fill="white" stroke="black" points="853,-113 744,-113 744,-77 853,-77 853,-113"/>
<text text-anchor="middle" x="798.5" y="-89.97" font-family="Times New Roman,serif" font-size="12.00">Install Hydroponics</text>
</g>
<!-- 1990981830272 -->
<g id="node24" class="node">
<title>1990981830272</title>
<ellipse fill="white" stroke="black" cx="916" cy="-95" rx="27" ry="27"/>
</g>
<!-- 1990981838432&#45;&gt;1990981830272 -->
<g id="edge10" class="edge">
<title>1990981838432&#45;&gt;1990981830272</title>
<path fill="none" stroke="black" d="M853.19,-95C861.41,-95 869.73,-95 877.5,-95"/>
<polygon fill="black" stroke="black" points="877.26,-98.5 887.26,-95 877.26,-91.5 877.26,-98.5"/>
</g>
<!-- 1990980029568 -->
<g id="node6" class="node">
<title>1990980029568</title>
<polygon fill="white" stroke="black" points="1065.12,-113 982.38,-113 982.38,-77 1065.12,-77 1065.12,-113"/>
<text text-anchor="middle" x="1023.75" y="-89.97" font-family="Times New Roman,serif" font-size="12.00">Test Irrigation</text>
</g>
<!-- 1990980039168 -->
<g id="node26" class="node">
<title>1990980039168</title>
<ellipse fill="white" stroke="black" cx="1131.5" cy="-95" rx="27" ry="27"/>
</g>
<!-- 1990980029568&#45;&gt;1990980039168 -->
<g id="edge15" class="edge">
<title>1990980029568&#45;&gt;1990980039168</title>
<path fill="none" stroke="black" d="M1065.33,-95C1074.41,-95 1083.99,-95 1092.93,-95"/>
<polygon fill="black" stroke="black" points="1092.71,-98.5 1102.71,-95 1092.71,-91.5 1092.71,-98.5"/>
</g>
<!-- 1990980450064 -->
<g id="node7" class="node">
<title>1990980450064</title>
<polygon fill="white" stroke="black" points="1068.5,-185 979,-185 979,-149 1068.5,-149 1068.5,-185"/>
<text text-anchor="middle" x="1023.75" y="-161.97" font-family="Times New Roman,serif" font-size="12.00">Connect Power</text>
</g>
<!-- 1990980441424 -->
<g id="node27" class="node">
<title>1990980441424</title>
<ellipse fill="white" stroke="black" cx="1131.5" cy="-167" rx="27" ry="27"/>
</g>
<!-- 1990980450064&#45;&gt;1990980441424 -->
<g id="edge14" class="edge">
<title>1990980450064&#45;&gt;1990980441424</title>
<path fill="none" stroke="black" d="M1068.98,-167C1076.95,-167 1085.19,-167 1092.95,-167"/>
<polygon fill="black" stroke="black" points="1092.74,-170.5 1102.74,-167 1092.74,-163.5 1092.74,-170.5"/>
</g>
<!-- 1990977595264 -->
<g id="node8" class="node">
<title>1990977595264</title>
<polygon fill="white" stroke="black" points="1305,-117 1194.5,-117 1194.5,-81 1305,-81 1305,-117"/>
<text text-anchor="middle" x="1249.75" y="-93.97" font-family="Times New Roman,serif" font-size="12.00">Configure Nutrients</text>
</g>
<!-- 1990978713312 -->
<g id="node29" class="node">
<title>1990978713312</title>
<ellipse fill="white" stroke="black" cx="1482.12" cy="-102" rx="27" ry="27"/>
</g>
<!-- 1990977595264&#45;&gt;1990978713312 -->
<g id="edge19" class="edge">
<title>1990977595264&#45;&gt;1990978713312</title>
<path fill="none" stroke="black" d="M1305.35,-99.71C1347.85,-100.26 1405.74,-101.02 1443.27,-101.51"/>
<polygon fill="black" stroke="black" points="1443.14,-105.01 1453.18,-101.64 1443.23,-98.01 1443.14,-105.01"/>
</g>
<!-- 1990980445120 -->
<g id="node9" class="node">
<title>1990980445120</title>
<polygon fill="white" stroke="black" points="1298.25,-184 1201.25,-184 1201.25,-148 1298.25,-148 1298.25,-184"/>
<text text-anchor="middle" x="1249.75" y="-160.97" font-family="Times New Roman,serif" font-size="12.00">Integrate Sensors</text>
</g>
<!-- 1990980440032 -->
<g id="node28" class="node">
<title>1990980440032</title>
<ellipse fill="white" stroke="black" cx="1368" cy="-166" rx="27" ry="27"/>
</g>
<!-- 1990980445120&#45;&gt;1990980440032 -->
<g id="edge18" class="edge">
<title>1990980445120&#45;&gt;1990980440032</title>
<path fill="none" stroke="black" d="M1298.7,-166C1308.93,-166 1319.59,-166 1329.37,-166"/>
<polygon fill="black" stroke="black" points="1329.25,-169.5 1339.25,-166 1329.25,-162.5 1329.25,-169.5"/>
</g>
<!-- 1990977975072 -->
<g id="node10" class="node">
<title>1990977975072</title>
<polygon fill="white" stroke="black" points="1726.25,-151 1659.25,-151 1659.25,-115 1726.25,-115 1726.25,-151"/>
<text text-anchor="middle" x="1692.75" y="-127.97" font-family="Times New Roman,serif" font-size="12.00">Train Staff</text>
</g>
<!-- 1990977972000 -->
<g id="node31" class="node">
<title>1990977972000</title>
<ellipse fill="white" stroke="black" cx="1789.25" cy="-133" rx="27" ry="27"/>
</g>
<!-- 1990977975072&#45;&gt;1990977972000 -->
<g id="edge22" class="edge">
<title>1990977975072&#45;&gt;1990977972000</title>
<path fill="none" stroke="black" d="M1726.54,-133C1734.27,-133 1742.58,-133 1750.52,-133"/>
<polygon fill="black" stroke="black" points="1750.25,-136.5 1760.25,-133 1750.25,-129.5 1750.25,-136.5"/>
</g>
<!-- 1990980448240 -->
<g id="node11" class="node">
<title>1990980448240</title>
<polygon fill="white" stroke="black" points="1533.25,-184 1431,-184 1431,-148 1533.25,-148 1533.25,-184"/>
<text text-anchor="middle" x="1482.12" y="-160.97" font-family="Times New Roman,serif" font-size="12.00">Calibrate Lighting</text>
</g>
<!-- 1990982200848 -->
<g id="node30" class="node">
<title>1990982200848</title>
<ellipse fill="white" stroke="black" cx="1596.25" cy="-160" rx="27" ry="27"/>
</g>
<!-- 1990980448240&#45;&gt;1990982200848 -->
<g id="edge23" class="edge">
<title>1990980448240&#45;&gt;1990982200848</title>
<path fill="none" stroke="black" d="M1533.61,-163.3C1541.72,-162.86 1549.98,-162.42 1557.71,-162.01"/>
<polygon fill="black" stroke="black" points="1557.64,-165.52 1567.44,-161.49 1557.27,-158.53 1557.64,-165.52"/>
</g>
<!-- 1990981889792 -->
<g id="node12" class="node">
<title>1990981889792</title>
<polygon fill="white" stroke="black" points="1933.5,-151 1852.25,-151 1852.25,-115 1933.5,-115 1933.5,-151"/>
<text text-anchor="middle" x="1892.88" y="-127.97" font-family="Times New Roman,serif" font-size="12.00">Certify Green</text>
</g>
<!-- 1990981890560 -->
<g id="node32" class="node">
<title>1990981890560</title>
<ellipse fill="white" stroke="black" cx="1996.5" cy="-133" rx="27" ry="27"/>
</g>
<!-- 1990981889792&#45;&gt;1990981890560 -->
<g id="edge26" class="edge">
<title>1990981889792&#45;&gt;1990981890560</title>
<path fill="none" stroke="black" d="M1933.75,-133C1941.65,-133 1949.92,-133 1957.75,-133"/>
<polygon fill="black" stroke="black" points="1957.67,-136.5 1967.67,-133 1957.67,-129.5 1957.67,-136.5"/>
</g>
<!-- 1990981882880 -->
<g id="node13" class="node">
<title>1990981882880</title>
<polygon fill="white" stroke="black" points="2163.25,-151 2059.5,-151 2059.5,-115 2163.25,-115 2163.25,-151"/>
<text text-anchor="middle" x="2111.38" y="-127.97" font-family="Times New Roman,serif" font-size="12.00">Launch Marketing</text>
</g>
<!-- 1990982197104 -->
<g id="node33" class="node">
<title>1990982197104</title>
<ellipse fill="white" stroke="black" cx="2226.25" cy="-133" rx="27" ry="27"/>
</g>
<!-- 1990981882880&#45;&gt;1990982197104 -->
<g id="edge28" class="edge">
<title>1990981882880&#45;&gt;1990982197104</title>
<path fill="none" stroke="black" d="M2163.53,-133C2171.66,-133 2179.94,-133 2187.69,-133"/>
<polygon fill="black" stroke="black" points="2187.43,-136.5 2197.43,-133 2187.43,-129.5 2187.43,-136.5"/>
</g>
<!-- 1990982197968 -->
<g id="node14" class="node">
<title>1990982197968</title>
<polygon fill="white" stroke="black" points="2370.5,-128 2289.25,-128 2289.25,-92 2370.5,-92 2370.5,-128"/>
<text text-anchor="middle" x="2329.88" y="-104.97" font-family="Times New Roman,serif" font-size="12.00">Analyze Data</text>
</g>
<!-- 1990982204640 -->
<g id="node34" class="node">
<title>1990982204640</title>
<ellipse fill="white" stroke="black" cx="2433.5" cy="-103" rx="27" ry="27"/>
</g>
<!-- 1990982197968&#45;&gt;1990982204640 -->
<g id="edge30" class="edge">
<title>1990982197968&#45;&gt;1990982204640</title>
<path fill="none" stroke="black" d="M2370.75,-107.25C2378.65,-106.71 2386.92,-106.14 2394.75,-105.6"/>
<polygon fill="black" stroke="black" points="2394.94,-109.1 2404.68,-104.92 2394.46,-102.11 2394.94,-109.1"/>
</g>
<!-- 1990982193312 -->
<g id="node15" class="node">
<title>1990982193312</title>
<polygon fill="black" stroke="black" points="2574.62,-121 2520.62,-121 2520.62,-85 2574.62,-85 2574.62,-121"/>
</g>
<!-- 1990979483600 -->
<g id="node36" class="node">
<title>1990979483600</title>
<ellipse fill="white" stroke="black" cx="2665.75" cy="-103" rx="27" ry="27"/>
<ellipse fill="none" stroke="black" cx="2665.75" cy="-103" rx="31" ry="31"/>
<text text-anchor="start" x="2649.25" y="-87.6" font-family="Times New Roman,serif" font-size="32.00">■</text>
</g>
<!-- 1990982193312&#45;&gt;1990979483600 -->
<g id="edge34" class="edge">
<title>1990982193312&#45;&gt;1990979483600</title>
<path fill="none" stroke="black" d="M2574.98,-103C2589.19,-103 2607.07,-103 2623.12,-103"/>
<polygon fill="black" stroke="black" points="2622.89,-106.5 2632.89,-103 2622.89,-99.5 2622.89,-106.5"/>
</g>
<!-- 1990982200272 -->
<g id="node16" class="node">
<title>1990982200272</title>
<polygon fill="white" stroke="black" points="2598.75,-56 2496.5,-56 2496.5,-20 2598.75,-20 2598.75,-56"/>
<text text-anchor="middle" x="2547.62" y="-32.98" font-family="Times New Roman,serif" font-size="12.00">Adjust Parameters</text>
</g>
<!-- 1990982201808 -->
<g id="node35" class="node">
<title>1990982201808</title>
<ellipse fill="white" stroke="black" cx="2665.75" cy="-27" rx="27" ry="27"/>
</g>
<!-- 1990982200272&#45;&gt;1990982201808 -->
<g id="edge33" class="edge">
<title>1990982200272&#45;&gt;1990982201808</title>
<path fill="none" stroke="black" d="M2599.22,-33.21C2608.66,-32.31 2618.36,-31.39 2627.31,-30.55"/>
<polygon fill="black" stroke="black" points="2627.42,-34.05 2637.05,-29.62 2626.76,-27.08 2627.42,-34.05"/>
</g>
<!-- 1990982195280 -->
<g id="node17" class="node">
<title>1990982195280</title>
<polygon fill="white" stroke="black" points="2856,-65 2732.75,-65 2732.75,-29 2856,-29 2856,-65"/>
<text text-anchor="middle" x="2794.38" y="-41.98" font-family="Times New Roman,serif" font-size="12.00">Schedule Maintenance</text>
</g>
<!-- 1990982196192 -->
<g id="node37" class="node">
<title>1990982196192</title>
<ellipse fill="white" stroke="black" cx="2919" cy="-87" rx="27" ry="27"/>
</g>
<!-- 1990982195280&#45;&gt;1990982196192 -->
<g id="edge36" class="edge">
<title>1990982195280&#45;&gt;1990982196192</title>
<path fill="none" stroke="black" d="M2852.02,-65.48C2862.19,-68.8 2872.54,-72.17 2881.93,-75.23"/>
<polygon fill="black" stroke="black" points="2880.8,-78.55 2891.39,-78.32 2882.97,-71.89 2880.8,-78.55"/>
</g>
<!-- 1990982195424 -->
<g id="node18" class="node">
<title>1990982195424</title>
<polygon fill="white" stroke="black" points="3068.5,-132 2982,-132 2982,-96 3068.5,-96 3068.5,-132"/>
<text text-anchor="middle" x="3025.25" y="-108.97" font-family="Times New Roman,serif" font-size="12.00">Manage Waste</text>
</g>
<!-- 1990982195424&#45;&gt;1990982197104 -->
<g id="edge38" class="edge">
<title>1990982195424&#45;&gt;1990982197104</title>
<path fill="none" stroke="black" d="M2981.78,-128.4C2936.25,-142.54 2861.55,-162 2795.38,-162 2432.5,-162 2432.5,-162 2432.5,-162 2373.09,-162 2304.94,-149.94 2264.04,-141.37"/>
<polygon fill="black" stroke="black" points="2265,-138 2254.49,-139.33 2263.53,-144.84 2265,-138"/>
</g>
<!-- 1990978482880 -->
<g id="node19" class="node">
<title>1990978482880</title>
<ellipse fill="white" stroke="black" cx="27" cy="-131" rx="27" ry="27"/>
<text text-anchor="start" x="9.75" y="-113.7" font-family="Times New Roman,serif" font-size="34.00">●</text>
</g>
<!-- 1990978482880&#45;&gt;1990971753392 -->
<g id="edge1" class="edge">
<title>1990978482880&#45;&gt;1990971753392</title>
<path fill="none" stroke="black" d="M54.38,-131C61.82,-131 70.14,-131 78.35,-131"/>
<polygon fill="black" stroke="black" points="78.28,-134.5 88.28,-131 78.28,-127.5 78.28,-134.5"/>
</g>
<!-- 1990976655232&#45;&gt;1990976651584 -->
<g id="edge3" class="edge">
<title>1990976655232&#45;&gt;1990976651584</title>
<path fill="none" stroke="black" d="M249.59,-131C256.92,-131 265.23,-131 273.78,-131"/>
<polygon fill="black" stroke="black" points="273.57,-134.5 283.57,-131 273.57,-127.5 273.57,-134.5"/>
</g>
<!-- 1990976661424&#45;&gt;1990971631104 -->
<g id="edge5" class="edge">
<title>1990976661424&#45;&gt;1990971631104</title>
<path fill="none" stroke="black" d="M488.42,-131C495.72,-131 503.94,-131 512.27,-131"/>
<polygon fill="black" stroke="black" points="512.13,-134.5 522.13,-131 512.13,-127.5 512.13,-134.5"/>
</g>
<!-- 1990971632832&#45;&gt;1990978980944 -->
<g id="edge8" class="edge">
<title>1990971632832&#45;&gt;1990978980944</title>
<path fill="none" stroke="black" d="M708.5,-167C721.22,-167 736.83,-167 751.4,-167"/>
<polygon fill="black" stroke="black" points="751.28,-170.5 761.28,-167 751.28,-163.5 751.28,-170.5"/>
</g>
<!-- 1990980443968&#45;&gt;1990981838432 -->
<g id="edge9" class="edge">
<title>1990980443968&#45;&gt;1990981838432</title>
<path fill="none" stroke="black" d="M708.5,-95C715.73,-95 723.9,-95 732.29,-95"/>
<polygon fill="black" stroke="black" points="732.27,-98.5 742.27,-95 732.27,-91.5 732.27,-98.5"/>
</g>
<!-- 1990981830272&#45;&gt;1990980029568 -->
<g id="edge12" class="edge">
<title>1990981830272&#45;&gt;1990980029568</title>
<path fill="none" stroke="black" d="M943.41,-95C951.76,-95 961.3,-95 970.8,-95"/>
<polygon fill="black" stroke="black" points="970.77,-98.5 980.77,-95 970.77,-91.5 970.77,-98.5"/>
</g>
<!-- 1990980449200&#45;&gt;1990980450064 -->
<g id="edge13" class="edge">
<title>1990980449200&#45;&gt;1990980450064</title>
<path fill="none" stroke="black" d="M943.41,-167C950.73,-167 958.96,-167 967.28,-167"/>
<polygon fill="black" stroke="black" points="967.08,-170.5 977.08,-167 967.08,-163.5 967.08,-170.5"/>
</g>
<!-- 1990980039168&#45;&gt;1990977595264 -->
<g id="edge16" class="edge">
<title>1990980039168&#45;&gt;1990977595264</title>
<path fill="none" stroke="black" d="M1158.88,-95.91C1166.24,-96.16 1174.58,-96.45 1183.14,-96.74"/>
<polygon fill="black" stroke="black" points="1182.82,-100.23 1192.94,-97.08 1183.07,-93.24 1182.82,-100.23"/>
</g>
<!-- 1990980441424&#45;&gt;1990980445120 -->
<g id="edge17" class="edge">
<title>1990980441424&#45;&gt;1990980445120</title>
<path fill="none" stroke="black" d="M1158.88,-166.77C1168.13,-166.69 1178.92,-166.6 1189.76,-166.51"/>
<polygon fill="black" stroke="black" points="1189.51,-170.01 1199.48,-166.42 1189.45,-163.01 1189.51,-170.01"/>
</g>
<!-- 1990980440032&#45;&gt;1990980448240 -->
<g id="edge20" class="edge">
<title>1990980440032&#45;&gt;1990980448240</title>
<path fill="none" stroke="black" d="M1395.29,-166C1402.67,-166 1411.02,-166 1419.54,-166"/>
<polygon fill="black" stroke="black" points="1419.27,-169.5 1429.27,-166 1419.27,-162.5 1419.27,-169.5"/>
</g>
<!-- 1990978713312&#45;&gt;1990977975072 -->
<g id="edge21" class="edge">
<title>1990978713312&#45;&gt;1990977975072</title>
<path fill="none" stroke="black" d="M1509.13,-105.86C1543.77,-111.01 1605.58,-120.2 1647.6,-126.44"/>
<polygon fill="black" stroke="black" points="1646.98,-129.89 1657.39,-127.89 1648.01,-122.96 1646.98,-129.89"/>
</g>
<!-- 1990982200848&#45;&gt;1990977975072 -->
<g id="edge24" class="edge">
<title>1990982200848&#45;&gt;1990977975072</title>
<path fill="none" stroke="black" d="M1622.57,-152.76C1630.42,-150.52 1639.29,-147.99 1648.01,-145.5"/>
<polygon fill="black" stroke="black" points="1648.77,-148.92 1657.42,-142.81 1646.84,-142.19 1648.77,-148.92"/>
</g>
<!-- 1990977972000&#45;&gt;1990981889792 -->
<g id="edge25" class="edge">
<title>1990977972000&#45;&gt;1990981889792</title>
<path fill="none" stroke="black" d="M1816.69,-133C1823.96,-133 1832.11,-133 1840.28,-133"/>
<polygon fill="black" stroke="black" points="1840.26,-136.5 1850.26,-133 1840.26,-129.5 1840.26,-136.5"/>
</g>
<!-- 1990981890560&#45;&gt;1990981882880 -->
<g id="edge27" class="edge">
<title>1990981890560&#45;&gt;1990981882880</title>
<path fill="none" stroke="black" d="M2023.96,-133C2031.22,-133 2039.41,-133 2047.78,-133"/>
<polygon fill="black" stroke="black" points="2047.73,-136.5 2057.73,-133 2047.73,-129.5 2047.73,-136.5"/>
</g>
<!-- 1990982197104&#45;&gt;1990982197968 -->
<g id="edge29" class="edge">
<title>1990982197104&#45;&gt;1990982197968</title>
<path fill="none" stroke="black" d="M2252.89,-127.2C2260.58,-125.46 2269.3,-123.48 2278.02,-121.51"/>
<polygon fill="black" stroke="black" points="2278.54,-124.98 2287.52,-119.36 2276.99,-118.15 2278.54,-124.98"/>
</g>
<!-- 1990982204640&#45;&gt;1990982193312 -->
<g id="edge31" class="edge">
<title>1990982204640&#45;&gt;1990982193312</title>
<path fill="none" stroke="black" d="M2460.79,-103C2475.27,-103 2493.48,-103 2509.4,-103"/>
<polygon fill="black" stroke="black" points="2508.99,-106.5 2518.99,-103 2508.99,-99.5 2508.99,-106.5"/>
</g>
<!-- 1990982204640&#45;&gt;1990982200272 -->
<g id="edge32" class="edge">
<title>1990982204640&#45;&gt;1990982200272</title>
<path fill="none" stroke="black" d="M2457.46,-89.69C2471.15,-81.75 2488.94,-71.44 2505.03,-62.12"/>
<polygon fill="black" stroke="black" points="2506.56,-65.27 2513.46,-57.23 2503.05,-59.21 2506.56,-65.27"/>
</g>
<!-- 1990982201808&#45;&gt;1990982195280 -->
<g id="edge35" class="edge">
<title>1990982201808&#45;&gt;1990982195280</title>
<path fill="none" stroke="black" d="M2692.68,-31.1C2701.18,-32.44 2711.08,-34 2721.3,-35.62"/>
<polygon fill="black" stroke="black" points="2720.53,-39.04 2730.96,-37.14 2721.62,-32.12 2720.53,-39.04"/>
</g>
<!-- 1990982196192&#45;&gt;1990982195424 -->
<g id="edge37" class="edge">
<title>1990982196192&#45;&gt;1990982195424</title>
<path fill="none" stroke="black" d="M2945.5,-93.6C2953.13,-95.58 2961.8,-97.83 2970.53,-100.09"/>
<polygon fill="black" stroke="black" points="2969.52,-103.44 2980.08,-102.56 2971.28,-96.66 2969.52,-103.44"/>
</g>
</g>
</svg>
