<?xml version="1.0" encoding="UTF-8" standalone="no"?>
<!DOCTYPE svg PUBLIC "-//W3C//DTD SVG 1.1//EN"
 "http://www.w3.org/Graphics/SVG/1.1/DTD/svg11.dtd">
<!-- Generated by graphviz version 11.0.0 (20240428.1522)
 -->
<!-- Title: imdf_net_1754052311.271792 Pages: 1 -->
<svg width="2765pt" height="297pt"
 viewBox="0.00 0.00 2764.75 297.00" xmlns="http://www.w3.org/2000/svg" xmlns:xlink="http://www.w3.org/1999/xlink">
<g id="graph0" class="graph" transform="scale(1 1) rotate(0) translate(4 293)">
<title>imdf_net_1754052311.271792</title>
<polygon fill="white" stroke="none" points="-4,4 -4,-293 2760.75,-293 2760.75,4 -4,4"/>
<!-- 1990978239376 -->
<g id="node1" class="node">
<title>1990978239376</title>
<polygon fill="white" stroke="black" points="160.75,-274 90,-274 90,-238 160.75,-238 160.75,-274"/>
<text text-anchor="middle" x="125.38" y="-250.97" font-family="Times New Roman,serif" font-size="12.00">Site Survey</text>
</g>
<!-- 1990978228528 -->
<g id="node21" class="node">
<title>1990978228528</title>
<ellipse fill="white" stroke="black" cx="223.75" cy="-256" rx="27" ry="27"/>
</g>
<!-- 1990978239376&#45;&gt;1990978228528 -->
<g id="edge2" class="edge">
<title>1990978239376&#45;&gt;1990978228528</title>
<path fill="none" stroke="black" d="M161.17,-256C168.9,-256 177.14,-256 184.98,-256"/>
<polygon fill="black" stroke="black" points="184.97,-259.5 194.97,-256 184.97,-252.5 184.97,-259.5"/>
</g>
<!-- 1990978342928 -->
<g id="node2" class="node">
<title>1990978342928</title>
<polygon fill="white" stroke="black" points="373.25,-274 286.75,-274 286.75,-238 373.25,-238 373.25,-274"/>
<text text-anchor="middle" x="330" y="-250.97" font-family="Times New Roman,serif" font-size="12.00">Flora Mapping</text>
</g>
<!-- 1990982043984 -->
<g id="node22" class="node">
<title>1990982043984</title>
<ellipse fill="white" stroke="black" cx="436.25" cy="-256" rx="27" ry="27"/>
</g>
<!-- 1990978342928&#45;&gt;1990982043984 -->
<g id="edge4" class="edge">
<title>1990978342928&#45;&gt;1990982043984</title>
<path fill="none" stroke="black" d="M373.7,-256C381.62,-256 389.84,-256 397.59,-256"/>
<polygon fill="black" stroke="black" points="397.39,-259.5 407.39,-256 397.39,-252.5 397.39,-259.5"/>
</g>
<!-- 1990982056416 -->
<g id="node3" class="node">
<title>1990982056416</title>
<polygon fill="white" stroke="black" points="568.5,-274 499.25,-274 499.25,-238 568.5,-238 568.5,-274"/>
<text text-anchor="middle" x="533.88" y="-250.97" font-family="Times New Roman,serif" font-size="12.00">Hive Setup</text>
</g>
<!-- 1990982052720 -->
<g id="node23" class="node">
<title>1990982052720</title>
<ellipse fill="white" stroke="black" cx="631.5" cy="-256" rx="27" ry="27"/>
</g>
<!-- 1990982056416&#45;&gt;1990982052720 -->
<g id="edge6" class="edge">
<title>1990982056416&#45;&gt;1990982052720</title>
<path fill="none" stroke="black" d="M568.86,-256C576.56,-256 584.78,-256 592.63,-256"/>
<polygon fill="black" stroke="black" points="592.63,-259.5 602.63,-256 592.63,-252.5 592.63,-259.5"/>
</g>
<!-- 1990982052336 -->
<g id="node4" class="node">
<title>1990982052336</title>
<polygon fill="white" stroke="black" points="774.25,-274 694.5,-274 694.5,-238 774.25,-238 774.25,-274"/>
<text text-anchor="middle" x="734.38" y="-250.97" font-family="Times New Roman,serif" font-size="12.00">Sensor Install</text>
</g>
<!-- 1990977395632 -->
<g id="node24" class="node">
<title>1990977395632</title>
<ellipse fill="white" stroke="black" cx="837.25" cy="-256" rx="27" ry="27"/>
</g>
<!-- 1990982052336&#45;&gt;1990977395632 -->
<g id="edge8" class="edge">
<title>1990982052336&#45;&gt;1990977395632</title>
<path fill="none" stroke="black" d="M774.66,-256C782.53,-256 790.77,-256 798.57,-256"/>
<polygon fill="black" stroke="black" points="798.47,-259.5 808.47,-256 798.47,-252.5 798.47,-259.5"/>
</g>
<!-- 1990980881104 -->
<g id="node5" class="node">
<title>1990980881104</title>
<polygon fill="white" stroke="black" points="981.5,-251 900.25,-251 900.25,-215 981.5,-215 981.5,-251"/>
<text text-anchor="middle" x="940.88" y="-227.97" font-family="Times New Roman,serif" font-size="12.00">Health Check</text>
</g>
<!-- 1990980881008 -->
<g id="node25" class="node">
<title>1990980881008</title>
<ellipse fill="white" stroke="black" cx="1044.5" cy="-223" rx="27" ry="27"/>
</g>
<!-- 1990980881104&#45;&gt;1990980881008 -->
<g id="edge10" class="edge">
<title>1990980881104&#45;&gt;1990980881008</title>
<path fill="none" stroke="black" d="M981.75,-229.08C989.65,-228.3 997.92,-227.48 1005.75,-226.71"/>
<polygon fill="black" stroke="black" points="1006.07,-230.2 1015.68,-225.74 1005.39,-223.23 1006.07,-230.2"/>
</g>
<!-- 1990978227088 -->
<g id="node6" class="node">
<title>1990978227088</title>
<polygon fill="white" stroke="black" points="1189.5,-230 1107.5,-230 1107.5,-194 1189.5,-194 1189.5,-230"/>
<text text-anchor="middle" x="1148.5" y="-206.97" font-family="Times New Roman,serif" font-size="12.00">Data Logging</text>
</g>
<!-- 1990979574992 -->
<g id="node26" class="node">
<title>1990979574992</title>
<ellipse fill="white" stroke="black" cx="1252.5" cy="-212" rx="27" ry="27"/>
</g>
<!-- 1990978227088&#45;&gt;1990979574992 -->
<g id="edge12" class="edge">
<title>1990978227088&#45;&gt;1990979574992</title>
<path fill="none" stroke="black" d="M1189.81,-212C1197.73,-212 1206,-212 1213.82,-212"/>
<polygon fill="black" stroke="black" points="1213.73,-215.5 1223.73,-212 1213.73,-208.5 1213.73,-215.5"/>
</g>
<!-- 1990979718416 -->
<g id="node7" class="node">
<title>1990979718416</title>
<polygon fill="white" stroke="black" points="1404.25,-261 1315.5,-261 1315.5,-225 1404.25,-225 1404.25,-261"/>
<text text-anchor="middle" x="1359.88" y="-237.97" font-family="Times New Roman,serif" font-size="12.00">Swarm Control</text>
</g>
<!-- 1990978622032 -->
<g id="node27" class="node">
<title>1990978622032</title>
<ellipse fill="white" stroke="black" cx="1467.25" cy="-234" rx="27" ry="27"/>
</g>
<!-- 1990979718416&#45;&gt;1990978622032 -->
<g id="edge17" class="edge">
<title>1990979718416&#45;&gt;1990978622032</title>
<path fill="none" stroke="black" d="M1404.65,-239.26C1412.61,-238.58 1420.85,-237.88 1428.61,-237.21"/>
<polygon fill="black" stroke="black" points="1428.76,-240.71 1438.43,-236.38 1428.16,-233.74 1428.76,-240.71"/>
</g>
<!-- 1990979729696 -->
<g id="node8" class="node">
<title>1990979729696</title>
<polygon fill="white" stroke="black" points="1403.12,-207 1316.62,-207 1316.62,-171 1403.12,-171 1403.12,-207"/>
<text text-anchor="middle" x="1359.88" y="-183.97" font-family="Times New Roman,serif" font-size="12.00">Pest Treatment</text>
</g>
<!-- 1990979729696&#45;&gt;1990978622032 -->
<g id="edge18" class="edge">
<title>1990979729696&#45;&gt;1990978622032</title>
<path fill="none" stroke="black" d="M1403.43,-207.17C1412.77,-211.16 1422.55,-215.34 1431.54,-219.18"/>
<polygon fill="black" stroke="black" points="1430.07,-222.35 1440.64,-223.06 1432.81,-215.92 1430.07,-222.35"/>
</g>
<!-- 1990980749648 -->
<g id="node9" class="node">
<title>1990980749648</title>
<polygon fill="white" stroke="black" points="1402.38,-153 1317.38,-153 1317.38,-117 1402.38,-117 1402.38,-153"/>
<text text-anchor="middle" x="1359.88" y="-129.97" font-family="Times New Roman,serif" font-size="12.00">Yield Forecast</text>
</g>
<!-- 1990978838096 -->
<g id="node28" class="node">
<title>1990978838096</title>
<ellipse fill="white" stroke="black" cx="1467.25" cy="-135" rx="27" ry="27"/>
</g>
<!-- 1990980749648&#45;&gt;1990978838096 -->
<g id="edge16" class="edge">
<title>1990980749648&#45;&gt;1990978838096</title>
<path fill="none" stroke="black" d="M1402.82,-135C1411.33,-135 1420.22,-135 1428.57,-135"/>
<polygon fill="black" stroke="black" points="1428.39,-138.5 1438.39,-135 1428.39,-131.5 1428.39,-138.5"/>
</g>
<!-- 1990979576720 -->
<g id="node10" class="node">
<title>1990979576720</title>
<polygon fill="black" stroke="black" points="1599.75,-279 1545.75,-279 1545.75,-243 1599.75,-243 1599.75,-279"/>
</g>
<!-- 1990979576720&#45;&gt;1990977395632 -->
<g id="edge21" class="edge">
<title>1990979576720&#45;&gt;1990977395632</title>
<path fill="none" stroke="black" d="M1545.27,-266.8C1505.46,-275 1427.72,-289 1360.88,-289 1043.5,-289 1043.5,-289 1043.5,-289 983.75,-289 915.45,-275.2 874.64,-265.45"/>
<polygon fill="black" stroke="black" points="875.65,-262.09 865.11,-263.12 873.99,-268.89 875.65,-262.09"/>
</g>
<!-- 1990978830608 -->
<g id="node11" class="node">
<title>1990978830608</title>
<polygon fill="white" stroke="black" points="1615.25,-153 1530.25,-153 1530.25,-117 1615.25,-117 1615.25,-153"/>
<text text-anchor="middle" x="1572.75" y="-129.97" font-family="Times New Roman,serif" font-size="12.00">Yield Forecast</text>
</g>
<!-- 1990982052480 -->
<g id="node29" class="node">
<title>1990982052480</title>
<ellipse fill="white" stroke="black" cx="1678.25" cy="-135" rx="27" ry="27"/>
</g>
<!-- 1990978830608&#45;&gt;1990982052480 -->
<g id="edge22" class="edge">
<title>1990978830608&#45;&gt;1990982052480</title>
<path fill="none" stroke="black" d="M1615.55,-135C1623.45,-135 1631.67,-135 1639.43,-135"/>
<polygon fill="black" stroke="black" points="1639.26,-138.5 1649.26,-135 1639.26,-131.5 1639.26,-138.5"/>
</g>
<!-- 1990982051472 -->
<g id="node30" class="node">
<title>1990982051472</title>
<ellipse fill="white" stroke="black" cx="1678.25" cy="-216" rx="27" ry="27"/>
</g>
<!-- 1990978830608&#45;&gt;1990982051472 -->
<g id="edge24" class="edge">
<title>1990978830608&#45;&gt;1990982051472</title>
<path fill="none" stroke="black" d="M1597.24,-153.38C1612.09,-165.01 1631.43,-180.14 1647.38,-192.62"/>
<polygon fill="black" stroke="black" points="1645.09,-195.28 1655.12,-198.68 1649.41,-189.76 1645.09,-195.28"/>
</g>
<!-- 1990981340192 -->
<g id="node31" class="node">
<title>1990981340192</title>
<ellipse fill="white" stroke="black" cx="1678.25" cy="-45" rx="27" ry="27"/>
</g>
<!-- 1990978830608&#45;&gt;1990981340192 -->
<g id="edge23" class="edge">
<title>1990978830608&#45;&gt;1990981340192</title>
<path fill="none" stroke="black" d="M1594.94,-116.57C1610.46,-103.08 1631.67,-84.63 1648.68,-69.84"/>
<polygon fill="black" stroke="black" points="1650.75,-72.68 1656,-63.48 1646.15,-67.4 1650.75,-72.68"/>
</g>
<!-- 1990982043312 -->
<g id="node12" class="node">
<title>1990982043312</title>
<polygon fill="white" stroke="black" points="1837.5,-252 1748,-252 1748,-216 1837.5,-216 1837.5,-252"/>
<text text-anchor="middle" x="1792.75" y="-228.97" font-family="Times New Roman,serif" font-size="12.00">Workshop Plan</text>
</g>
<!-- 1990980946976 -->
<g id="node33" class="node">
<title>1990980946976</title>
<ellipse fill="white" stroke="black" cx="1907.25" cy="-243" rx="27" ry="27"/>
</g>
<!-- 1990982043312&#45;&gt;1990980946976 -->
<g id="edge29" class="edge">
<title>1990982043312&#45;&gt;1990980946976</title>
<path fill="none" stroke="black" d="M1837.89,-237.53C1848.15,-238.35 1858.98,-239.22 1868.92,-240.01"/>
<polygon fill="black" stroke="black" points="1868.34,-243.48 1878.58,-240.79 1868.89,-236.5 1868.34,-243.48"/>
</g>
<!-- 1990982049744 -->
<g id="node13" class="node">
<title>1990982049744</title>
<polygon fill="white" stroke="black" points="1844.25,-153 1741.25,-153 1741.25,-117 1844.25,-117 1844.25,-153"/>
<text text-anchor="middle" x="1792.75" y="-129.97" font-family="Times New Roman,serif" font-size="12.00">Compliance Audit</text>
</g>
<!-- 1990980956432 -->
<g id="node32" class="node">
<title>1990980956432</title>
<ellipse fill="white" stroke="black" cx="1907.25" cy="-99" rx="27" ry="27"/>
</g>
<!-- 1990982049744&#45;&gt;1990980956432 -->
<g id="edge31" class="edge">
<title>1990982049744&#45;&gt;1990980956432</title>
<path fill="none" stroke="black" d="M1844.73,-118.69C1853.45,-115.9 1862.33,-113.05 1870.54,-110.43"/>
<polygon fill="black" stroke="black" points="1871.33,-113.85 1879.79,-107.47 1869.2,-107.18 1871.33,-113.85"/>
</g>
<!-- 1990980950912 -->
<g id="node35" class="node">
<title>1990980950912</title>
<ellipse fill="white" stroke="black" cx="1907.25" cy="-171" rx="27" ry="27"/>
</g>
<!-- 1990982049744&#45;&gt;1990980950912 -->
<g id="edge30" class="edge">
<title>1990982049744&#45;&gt;1990980950912</title>
<path fill="none" stroke="black" d="M1844.73,-151.31C1853.45,-154.1 1862.33,-156.95 1870.54,-159.57"/>
<polygon fill="black" stroke="black" points="1869.2,-162.82 1879.79,-162.53 1871.33,-156.15 1869.2,-162.82"/>
</g>
<!-- 1990981353440 -->
<g id="node14" class="node">
<title>1990981353440</title>
<polygon fill="white" stroke="black" points="1838.62,-45 1746.88,-45 1746.88,-9 1838.62,-9 1838.62,-45"/>
<text text-anchor="middle" x="1792.75" y="-21.98" font-family="Times New Roman,serif" font-size="12.00">Pollination Map</text>
</g>
<!-- 1990980955328 -->
<g id="node34" class="node">
<title>1990980955328</title>
<ellipse fill="white" stroke="black" cx="1907.25" cy="-27" rx="27" ry="27"/>
</g>
<!-- 1990981353440&#45;&gt;1990980955328 -->
<g id="edge28" class="edge">
<title>1990981353440&#45;&gt;1990980955328</title>
<path fill="none" stroke="black" d="M1838.86,-27C1848.66,-27 1858.93,-27 1868.41,-27"/>
<polygon fill="black" stroke="black" points="1868.4,-30.5 1878.4,-27 1868.4,-23.5 1868.4,-30.5"/>
</g>
<!-- 1990980999968 -->
<g id="node15" class="node">
<title>1990980999968</title>
<polygon fill="white" stroke="black" points="2063.88,-117 1975.88,-117 1975.88,-81 2063.88,-81 2063.88,-117"/>
<text text-anchor="middle" x="2019.88" y="-93.97" font-family="Times New Roman,serif" font-size="12.00">Harvest Honey</text>
</g>
<!-- 1990981000592 -->
<g id="node36" class="node">
<title>1990981000592</title>
<ellipse fill="white" stroke="black" cx="2132.5" cy="-100" rx="27" ry="27"/>
</g>
<!-- 1990980999968&#45;&gt;1990981000592 -->
<g id="edge37" class="edge">
<title>1990980999968&#45;&gt;1990981000592</title>
<path fill="none" stroke="black" d="M2064.28,-99.39C2073.98,-99.48 2084.2,-99.57 2093.66,-99.66"/>
<polygon fill="black" stroke="black" points="2093.59,-103.16 2103.62,-99.75 2093.66,-96.16 2093.59,-103.16"/>
</g>
<!-- 1990981350320 -->
<g id="node16" class="node">
<title>1990981350320</title>
<polygon fill="white" stroke="black" points="2069.5,-189 1970.25,-189 1970.25,-153 2069.5,-153 2069.5,-189"/>
<text text-anchor="middle" x="2019.88" y="-165.97" font-family="Times New Roman,serif" font-size="12.00">Community Meet</text>
</g>
<!-- 1990982042784 -->
<g id="node37" class="node">
<title>1990982042784</title>
<ellipse fill="white" stroke="black" cx="2236.88" cy="-169" rx="27" ry="27"/>
</g>
<!-- 1990981350320&#45;&gt;1990982042784 -->
<g id="edge36" class="edge">
<title>1990981350320&#45;&gt;1990982042784</title>
<path fill="none" stroke="black" d="M2069.93,-170.54C2108.9,-170.18 2162.6,-169.68 2198.23,-169.35"/>
<polygon fill="black" stroke="black" points="2198.1,-172.85 2208.06,-169.26 2198.03,-165.85 2198.1,-172.85"/>
</g>
<!-- 1990980995072 -->
<g id="node17" class="node">
<title>1990980995072</title>
<polygon fill="white" stroke="black" points="2278.25,-122 2195.5,-122 2195.5,-86 2278.25,-86 2278.25,-122"/>
<text text-anchor="middle" x="2236.88" y="-98.97" font-family="Times New Roman,serif" font-size="12.00">Product Label</text>
</g>
<!-- 1990980998288 -->
<g id="node38" class="node">
<title>1990980998288</title>
<ellipse fill="white" stroke="black" cx="2341.25" cy="-108" rx="27" ry="27"/>
</g>
<!-- 1990980995072&#45;&gt;1990980998288 -->
<g id="edge40" class="edge">
<title>1990980995072&#45;&gt;1990980998288</title>
<path fill="none" stroke="black" d="M2278.63,-105.59C2286.55,-105.9 2294.83,-106.23 2302.64,-106.53"/>
<polygon fill="black" stroke="black" points="2302.41,-110.02 2312.54,-106.92 2302.68,-103.03 2302.41,-110.02"/>
</g>
<!-- 1990978838240 -->
<g id="node18" class="node">
<title>1990978838240</title>
<polygon fill="black" stroke="black" points="2658.75,-155 2604.75,-155 2604.75,-119 2658.75,-119 2658.75,-155"/>
</g>
<!-- 1990981839920 -->
<g id="node39" class="node">
<title>1990981839920</title>
<ellipse fill="white" stroke="black" cx="2725.75" cy="-137" rx="27" ry="27"/>
<ellipse fill="none" stroke="black" cx="2725.75" cy="-137" rx="31" ry="31"/>
<text text-anchor="start" x="2709.25" y="-121.6" font-family="Times New Roman,serif" font-size="32.00">■</text>
</g>
<!-- 1990978838240&#45;&gt;1990981839920 -->
<g id="edge41" class="edge">
<title>1990978838240&#45;&gt;1990981839920</title>
<path fill="none" stroke="black" d="M2658.87,-137C2666.38,-137 2674.76,-137 2682.97,-137"/>
<polygon fill="black" stroke="black" points="2682.83,-140.5 2692.83,-137 2682.83,-133.5 2682.83,-140.5"/>
</g>
<!-- 1990980997328 -->
<g id="node19" class="node">
<title>1990980997328</title>
<polygon fill="white" stroke="black" points="2478.75,-128 2404.25,-128 2404.25,-92 2478.75,-92 2478.75,-128"/>
<text text-anchor="middle" x="2441.5" y="-104.97" font-family="Times New Roman,serif" font-size="12.00">Market Ship</text>
</g>
<!-- 1990981008224 -->
<g id="node40" class="node">
<title>1990981008224</title>
<ellipse fill="white" stroke="black" cx="2541.75" cy="-110" rx="27" ry="27"/>
</g>
<!-- 1990980997328&#45;&gt;1990981008224 -->
<g id="edge43" class="edge">
<title>1990980997328&#45;&gt;1990981008224</title>
<path fill="none" stroke="black" d="M2479.08,-110C2486.84,-110 2495.04,-110 2502.84,-110"/>
<polygon fill="black" stroke="black" points="2502.75,-113.5 2512.75,-110 2502.75,-106.5 2502.75,-113.5"/>
</g>
<!-- 1990977593344 -->
<g id="node20" class="node">
<title>1990977593344</title>
<ellipse fill="white" stroke="black" cx="27" cy="-256" rx="27" ry="27"/>
<text text-anchor="start" x="9.75" y="-238.7" font-family="Times New Roman,serif" font-size="34.00">●</text>
</g>
<!-- 1990977593344&#45;&gt;1990978239376 -->
<g id="edge1" class="edge">
<title>1990977593344&#45;&gt;1990978239376</title>
<path fill="none" stroke="black" d="M54.33,-256C61.76,-256 70.06,-256 78.28,-256"/>
<polygon fill="black" stroke="black" points="78.24,-259.5 88.24,-256 78.24,-252.5 78.24,-259.5"/>
</g>
<!-- 1990978228528&#45;&gt;1990978342928 -->
<g id="edge3" class="edge">
<title>1990978228528&#45;&gt;1990978342928</title>
<path fill="none" stroke="black" d="M251.06,-256C258.44,-256 266.74,-256 275.11,-256"/>
<polygon fill="black" stroke="black" points="274.96,-259.5 284.96,-256 274.96,-252.5 274.96,-259.5"/>
</g>
<!-- 1990982043984&#45;&gt;1990982056416 -->
<g id="edge5" class="edge">
<title>1990982043984&#45;&gt;1990982056416</title>
<path fill="none" stroke="black" d="M463.63,-256C471.07,-256 479.39,-256 487.6,-256"/>
<polygon fill="black" stroke="black" points="487.53,-259.5 497.53,-256 487.53,-252.5 487.53,-259.5"/>
</g>
<!-- 1990982052720&#45;&gt;1990982052336 -->
<g id="edge7" class="edge">
<title>1990982052720&#45;&gt;1990982052336</title>
<path fill="none" stroke="black" d="M658.74,-256C666.21,-256 674.6,-256 682.99,-256"/>
<polygon fill="black" stroke="black" points="682.83,-259.5 692.83,-256 682.83,-252.5 682.83,-259.5"/>
</g>
<!-- 1990977395632&#45;&gt;1990980881104 -->
<g id="edge9" class="edge">
<title>1990977395632&#45;&gt;1990980881104</title>
<path fill="none" stroke="black" d="M863.89,-250.2C871.58,-248.46 880.3,-246.48 889.02,-244.51"/>
<polygon fill="black" stroke="black" points="889.54,-247.98 898.52,-242.36 887.99,-241.15 889.54,-247.98"/>
</g>
<!-- 1990980881008&#45;&gt;1990978227088 -->
<g id="edge11" class="edge">
<title>1990980881008&#45;&gt;1990978227088</title>
<path fill="none" stroke="black" d="M1071.77,-220.17C1079.15,-219.37 1087.45,-218.48 1095.78,-217.58"/>
<polygon fill="black" stroke="black" points="1095.99,-221.08 1105.56,-216.52 1095.24,-214.12 1095.99,-221.08"/>
</g>
<!-- 1990979574992&#45;&gt;1990979718416 -->
<g id="edge14" class="edge">
<title>1990979574992&#45;&gt;1990979718416</title>
<path fill="none" stroke="black" d="M1278.74,-219.43C1286.53,-221.72 1295.43,-224.34 1304.41,-226.98"/>
<polygon fill="black" stroke="black" points="1303.28,-230.29 1313.86,-229.76 1305.26,-223.58 1303.28,-230.29"/>
</g>
<!-- 1990979574992&#45;&gt;1990979729696 -->
<g id="edge13" class="edge">
<title>1990979574992&#45;&gt;1990979729696</title>
<path fill="none" stroke="black" d="M1279.28,-206.37C1287.25,-204.63 1296.34,-202.65 1305.46,-200.66"/>
<polygon fill="black" stroke="black" points="1306.03,-204.12 1315.05,-198.56 1304.54,-197.28 1306.03,-204.12"/>
</g>
<!-- 1990979574992&#45;&gt;1990980749648 -->
<g id="edge15" class="edge">
<title>1990979574992&#45;&gt;1990980749648</title>
<path fill="none" stroke="black" d="M1273.68,-194.69C1285.57,-184.75 1301.07,-172.25 1315.5,-162 1316.64,-161.19 1317.8,-160.38 1318.98,-159.57"/>
<polygon fill="black" stroke="black" points="1320.58,-162.71 1326.97,-154.26 1316.71,-156.88 1320.58,-162.71"/>
</g>
<!-- 1990978622032&#45;&gt;1990979576720 -->
<g id="edge19" class="edge">
<title>1990978622032&#45;&gt;1990979576720</title>
<path fill="none" stroke="black" d="M1493.83,-240.67C1506.09,-243.87 1521,-247.76 1534.48,-251.28"/>
<polygon fill="black" stroke="black" points="1533.36,-254.6 1543.91,-253.74 1535.12,-247.83 1533.36,-254.6"/>
</g>
<!-- 1990978838096&#45;&gt;1990978830608 -->
<g id="edge20" class="edge">
<title>1990978838096&#45;&gt;1990978830608</title>
<path fill="none" stroke="black" d="M1494.64,-135C1502.05,-135 1510.38,-135 1518.76,-135"/>
<polygon fill="black" stroke="black" points="1518.61,-138.5 1528.61,-135 1518.61,-131.5 1518.61,-138.5"/>
</g>
<!-- 1990982052480&#45;&gt;1990982049744 -->
<g id="edge25" class="edge">
<title>1990982052480&#45;&gt;1990982049744</title>
<path fill="none" stroke="black" d="M1705.63,-135C1712.86,-135 1721.02,-135 1729.36,-135"/>
<polygon fill="black" stroke="black" points="1729.27,-138.5 1739.27,-135 1729.27,-131.5 1729.27,-138.5"/>
</g>
<!-- 1990982051472&#45;&gt;1990982043312 -->
<g id="edge27" class="edge">
<title>1990982051472&#45;&gt;1990982043312</title>
<path fill="none" stroke="black" d="M1705.34,-220.17C1714.69,-221.67 1725.61,-223.42 1736.49,-225.16"/>
<polygon fill="black" stroke="black" points="1735.81,-228.59 1746.24,-226.72 1736.91,-221.68 1735.81,-228.59"/>
</g>
<!-- 1990981340192&#45;&gt;1990981353440 -->
<g id="edge26" class="edge">
<title>1990981340192&#45;&gt;1990981353440</title>
<path fill="none" stroke="black" d="M1705.34,-40.83C1714.3,-39.39 1724.72,-37.73 1735.14,-36.06"/>
<polygon fill="black" stroke="black" points="1735.58,-39.53 1744.9,-34.5 1734.48,-32.62 1735.58,-39.53"/>
</g>
<!-- 1990980956432&#45;&gt;1990980999968 -->
<g id="edge33" class="edge">
<title>1990980956432&#45;&gt;1990980999968</title>
<path fill="none" stroke="black" d="M1934.75,-99C1943.66,-99 1953.97,-99 1964.24,-99"/>
<polygon fill="black" stroke="black" points="1964.23,-102.5 1974.23,-99 1964.23,-95.5 1964.23,-102.5"/>
</g>
<!-- 1990980946976&#45;&gt;1990981350320 -->
<g id="edge34" class="edge">
<title>1990980946976&#45;&gt;1990981350320</title>
<path fill="none" stroke="black" d="M1930.37,-228.6C1944.81,-219.2 1964.05,-206.69 1980.89,-195.72"/>
<polygon fill="black" stroke="black" points="1982.74,-198.69 1989.21,-190.31 1978.92,-192.83 1982.74,-198.69"/>
</g>
<!-- 1990980955328&#45;&gt;1990980999968 -->
<g id="edge32" class="edge">
<title>1990980955328&#45;&gt;1990980999968</title>
<path fill="none" stroke="black" d="M1930.37,-41.4C1944.81,-50.8 1964.05,-63.31 1980.89,-74.28"/>
<polygon fill="black" stroke="black" points="1978.92,-77.17 1989.21,-79.69 1982.74,-71.31 1978.92,-77.17"/>
</g>
<!-- 1990980950912&#45;&gt;1990981350320 -->
<g id="edge35" class="edge">
<title>1990980950912&#45;&gt;1990981350320</title>
<path fill="none" stroke="black" d="M1934.75,-171C1942.04,-171 1950.27,-171 1958.64,-171"/>
<polygon fill="black" stroke="black" points="1958.57,-174.5 1968.57,-171 1958.57,-167.5 1958.57,-174.5"/>
</g>
<!-- 1990981000592&#45;&gt;1990980995072 -->
<g id="edge39" class="edge">
<title>1990981000592&#45;&gt;1990980995072</title>
<path fill="none" stroke="black" d="M2159.86,-101.03C2167.28,-101.32 2175.61,-101.65 2183.96,-101.97"/>
<polygon fill="black" stroke="black" points="2183.65,-105.46 2193.77,-102.36 2183.92,-98.47 2183.65,-105.46"/>
</g>
<!-- 1990982042784&#45;&gt;1990978838240 -->
<g id="edge38" class="edge">
<title>1990982042784&#45;&gt;1990978838240</title>
<path fill="none" stroke="black" d="M2264.1,-167.84C2320.14,-165.23 2455.67,-158.12 2568.75,-146 2576.6,-145.16 2584.98,-144.07 2592.96,-142.95"/>
<polygon fill="black" stroke="black" points="2593.37,-146.42 2602.76,-141.51 2592.36,-139.5 2593.37,-146.42"/>
</g>
<!-- 1990980998288&#45;&gt;1990980997328 -->
<g id="edge42" class="edge">
<title>1990980998288&#45;&gt;1990980997328</title>
<path fill="none" stroke="black" d="M2368.58,-108.54C2375.92,-108.69 2384.13,-108.85 2392.31,-109.02"/>
<polygon fill="black" stroke="black" points="2392.17,-112.52 2402.24,-109.22 2392.32,-105.52 2392.17,-112.52"/>
</g>
<!-- 1990981008224&#45;&gt;1990978838240 -->
<g id="edge44" class="edge">
<title>1990981008224&#45;&gt;1990978838240</title>
<path fill="none" stroke="black" d="M2567.73,-117.66C2575.81,-120.14 2584.94,-122.94 2593.7,-125.63"/>
<polygon fill="black" stroke="black" points="2592.44,-128.91 2603.03,-128.5 2594.5,-122.22 2592.44,-128.91"/>
</g>
</g>
</svg>
