<?xml version="1.0" encoding="UTF-8" standalone="no"?>
<!DOCTYPE svg PUBLIC "-//W3C//DTD SVG 1.1//EN"
 "http://www.w3.org/Graphics/SVG/1.1/DTD/svg11.dtd">
<!-- Generated by graphviz version 11.0.0 (20240428.1522)
 -->
<!-- Title: imdf_net_1754052308.4228547 Pages: 1 -->
<svg width="3135pt" height="70pt"
 viewBox="0.00 0.00 3135.25 70.00" xmlns="http://www.w3.org/2000/svg" xmlns:xlink="http://www.w3.org/1999/xlink">
<g id="graph0" class="graph" transform="scale(1 1) rotate(0) translate(4 66)">
<title>imdf_net_1754052308.4228547</title>
<polygon fill="white" stroke="none" points="-4,4 -4,-66 3131.25,-66 3131.25,4 -4,4"/>
<!-- 1990971763040 -->
<g id="node1" class="node">
<title>1990971763040</title>
<polygon fill="white" stroke="black" points="160.75,-49 90,-49 90,-13 160.75,-13 160.75,-49"/>
<text text-anchor="middle" x="125.38" y="-25.98" font-family="Times New Roman,serif" font-size="12.00">Site Survey</text>
</g>
<!-- 1990971762032 -->
<g id="node17" class="node">
<title>1990971762032</title>
<ellipse fill="white" stroke="black" cx="223.75" cy="-31" rx="27" ry="27"/>
</g>
<!-- 1990971763040&#45;&gt;1990971762032 -->
<g id="edge2" class="edge">
<title>1990971763040&#45;&gt;1990971762032</title>
<path fill="none" stroke="black" d="M161.17,-31C168.9,-31 177.14,-31 184.98,-31"/>
<polygon fill="black" stroke="black" points="184.97,-34.5 194.97,-31 184.97,-27.5 184.97,-34.5"/>
</g>
<!-- 1990971763808 -->
<g id="node2" class="node">
<title>1990971763808</title>
<polygon fill="white" stroke="black" points="359,-49 286.75,-49 286.75,-13 359,-13 359,-49"/>
<text text-anchor="middle" x="322.88" y="-25.98" font-family="Times New Roman,serif" font-size="12.00">Rack Install</text>
</g>
<!-- 1990971753200 -->
<g id="node18" class="node">
<title>1990971753200</title>
<ellipse fill="white" stroke="black" cx="422" cy="-31" rx="27" ry="27"/>
</g>
<!-- 1990971763808&#45;&gt;1990971753200 -->
<g id="edge4" class="edge">
<title>1990971763808&#45;&gt;1990971753200</title>
<path fill="none" stroke="black" d="M359.49,-31C367.18,-31 375.34,-31 383.12,-31"/>
<polygon fill="black" stroke="black" points="383,-34.5 393,-31 383,-27.5 383,-34.5"/>
</g>
<!-- 1990971767744 -->
<g id="node3" class="node">
<title>1990971767744</title>
<polygon fill="white" stroke="black" points="567.75,-49 485,-49 485,-13 567.75,-13 567.75,-49"/>
<text text-anchor="middle" x="526.38" y="-25.98" font-family="Times New Roman,serif" font-size="12.00">Climate Setup</text>
</g>
<!-- 1990971766448 -->
<g id="node19" class="node">
<title>1990971766448</title>
<ellipse fill="white" stroke="black" cx="630.75" cy="-31" rx="27" ry="27"/>
</g>
<!-- 1990971767744&#45;&gt;1990971766448 -->
<g id="edge6" class="edge">
<title>1990971767744&#45;&gt;1990971766448</title>
<path fill="none" stroke="black" d="M568.13,-31C575.98,-31 584.17,-31 591.92,-31"/>
<polygon fill="black" stroke="black" points="591.74,-34.5 601.74,-31 591.74,-27.5 591.74,-34.5"/>
</g>
<!-- 1990978709040 -->
<g id="node4" class="node">
<title>1990978709040</title>
<polygon fill="white" stroke="black" points="771.25,-49 693.75,-49 693.75,-13 771.25,-13 771.25,-49"/>
<text text-anchor="middle" x="732.5" y="-25.98" font-family="Times New Roman,serif" font-size="12.00">Nutrient Mix</text>
</g>
<!-- 1990978699392 -->
<g id="node20" class="node">
<title>1990978699392</title>
<ellipse fill="white" stroke="black" cx="834.25" cy="-31" rx="27" ry="27"/>
</g>
<!-- 1990978709040&#45;&gt;1990978699392 -->
<g id="edge8" class="edge">
<title>1990978709040&#45;&gt;1990978699392</title>
<path fill="none" stroke="black" d="M771.5,-31C779.32,-31 787.56,-31 795.38,-31"/>
<polygon fill="black" stroke="black" points="795.3,-34.5 805.3,-31 795.3,-27.5 795.3,-34.5"/>
</g>
<!-- 1990978707600 -->
<g id="node5" class="node">
<title>1990978707600</title>
<polygon fill="white" stroke="black" points="968,-49 897.25,-49 897.25,-13 968,-13 968,-49"/>
<text text-anchor="middle" x="932.62" y="-25.98" font-family="Times New Roman,serif" font-size="12.00">Seed Select</text>
</g>
<!-- 1990978700832 -->
<g id="node21" class="node">
<title>1990978700832</title>
<ellipse fill="white" stroke="black" cx="1031" cy="-31" rx="27" ry="27"/>
</g>
<!-- 1990978707600&#45;&gt;1990978700832 -->
<g id="edge10" class="edge">
<title>1990978707600&#45;&gt;1990978700832</title>
<path fill="none" stroke="black" d="M968.42,-31C976.15,-31 984.39,-31 992.23,-31"/>
<polygon fill="black" stroke="black" points="992.22,-34.5 1002.22,-31 992.22,-27.5 992.22,-34.5"/>
</g>
<!-- 1990978702272 -->
<g id="node6" class="node">
<title>1990978702272</title>
<polygon fill="white" stroke="black" points="1161,-49 1094,-49 1094,-13 1161,-13 1161,-49"/>
<text text-anchor="middle" x="1127.5" y="-25.98" font-family="Times New Roman,serif" font-size="12.00">Auto Plant</text>
</g>
<!-- 1990978707648 -->
<g id="node22" class="node">
<title>1990978707648</title>
<ellipse fill="white" stroke="black" cx="1224" cy="-31" rx="27" ry="27"/>
</g>
<!-- 1990978702272&#45;&gt;1990978707648 -->
<g id="edge12" class="edge">
<title>1990978702272&#45;&gt;1990978707648</title>
<path fill="none" stroke="black" d="M1161.29,-31C1169.02,-31 1177.33,-31 1185.27,-31"/>
<polygon fill="black" stroke="black" points="1185,-34.5 1195,-31 1185,-27.5 1185,-34.5"/>
</g>
<!-- 1990980576192 -->
<g id="node7" class="node">
<title>1990980576192</title>
<polygon fill="white" stroke="black" points="1373.5,-49 1287,-49 1287,-13 1373.5,-13 1373.5,-49"/>
<text text-anchor="middle" x="1330.25" y="-25.98" font-family="Times New Roman,serif" font-size="12.00">Sensor Deploy</text>
</g>
<!-- 1990980507824 -->
<g id="node23" class="node">
<title>1990980507824</title>
<ellipse fill="white" stroke="black" cx="1436.5" cy="-31" rx="27" ry="27"/>
</g>
<!-- 1990980576192&#45;&gt;1990980507824 -->
<g id="edge14" class="edge">
<title>1990980576192&#45;&gt;1990980507824</title>
<path fill="none" stroke="black" d="M1373.95,-31C1381.87,-31 1390.09,-31 1397.84,-31"/>
<polygon fill="black" stroke="black" points="1397.64,-34.5 1407.64,-31 1397.64,-27.5 1397.64,-34.5"/>
</g>
<!-- 1990980503024 -->
<g id="node8" class="node">
<title>1990980503024</title>
<polygon fill="white" stroke="black" points="1574,-49 1499.5,-49 1499.5,-13 1574,-13 1574,-49"/>
<text text-anchor="middle" x="1536.75" y="-25.98" font-family="Times New Roman,serif" font-size="12.00">Pest Control</text>
</g>
<!-- 1990980509744 -->
<g id="node24" class="node">
<title>1990980509744</title>
<ellipse fill="white" stroke="black" cx="1637" cy="-31" rx="27" ry="27"/>
</g>
<!-- 1990980503024&#45;&gt;1990980509744 -->
<g id="edge16" class="edge">
<title>1990980503024&#45;&gt;1990980509744</title>
<path fill="none" stroke="black" d="M1574.33,-31C1582.09,-31 1590.29,-31 1598.09,-31"/>
<polygon fill="black" stroke="black" points="1598,-34.5 1608,-31 1598,-27.5 1598,-34.5"/>
</g>
<!-- 1990979660512 -->
<g id="node9" class="node">
<title>1990979660512</title>
<polygon fill="white" stroke="black" points="1785,-49 1700,-49 1700,-13 1785,-13 1785,-49"/>
<text text-anchor="middle" x="1742.5" y="-25.98" font-family="Times New Roman,serif" font-size="12.00">Yield Forecast</text>
</g>
<!-- 1990976300304 -->
<g id="node25" class="node">
<title>1990976300304</title>
<ellipse fill="white" stroke="black" cx="1848" cy="-31" rx="27" ry="27"/>
</g>
<!-- 1990979660512&#45;&gt;1990976300304 -->
<g id="edge18" class="edge">
<title>1990979660512&#45;&gt;1990976300304</title>
<path fill="none" stroke="black" d="M1785.3,-31C1793.2,-31 1801.42,-31 1809.18,-31"/>
<polygon fill="black" stroke="black" points="1809.01,-34.5 1819.01,-31 1809.01,-27.5 1809.01,-34.5"/>
</g>
<!-- 1990976293680 -->
<g id="node10" class="node">
<title>1990976293680</title>
<polygon fill="white" stroke="black" points="1991.5,-49 1911,-49 1911,-13 1991.5,-13 1991.5,-49"/>
<text text-anchor="middle" x="1951.25" y="-25.98" font-family="Times New Roman,serif" font-size="12.00">Energy Audit</text>
</g>
<!-- 1990977562928 -->
<g id="node26" class="node">
<title>1990977562928</title>
<ellipse fill="white" stroke="black" cx="2054.5" cy="-31" rx="27" ry="27"/>
</g>
<!-- 1990976293680&#45;&gt;1990977562928 -->
<g id="edge20" class="edge">
<title>1990976293680&#45;&gt;1990977562928</title>
<path fill="none" stroke="black" d="M1991.98,-31C1999.85,-31 2008.09,-31 2015.89,-31"/>
<polygon fill="black" stroke="black" points="2015.77,-34.5 2025.77,-31 2015.77,-27.5 2015.77,-34.5"/>
</g>
<!-- 1990981833728 -->
<g id="node11" class="node">
<title>1990981833728</title>
<polygon fill="white" stroke="black" points="2193.5,-49 2117.5,-49 2117.5,-13 2193.5,-13 2193.5,-49"/>
<text text-anchor="middle" x="2155.5" y="-25.98" font-family="Times New Roman,serif" font-size="12.00">Waste Cycle</text>
</g>
<!-- 1990981844480 -->
<g id="node27" class="node">
<title>1990981844480</title>
<ellipse fill="white" stroke="black" cx="2256.5" cy="-31" rx="27" ry="27"/>
</g>
<!-- 1990981833728&#45;&gt;1990981844480 -->
<g id="edge22" class="edge">
<title>1990981833728&#45;&gt;1990981844480</title>
<path fill="none" stroke="black" d="M2193.93,-31C2201.71,-31 2209.91,-31 2217.71,-31"/>
<polygon fill="black" stroke="black" points="2217.6,-34.5 2227.6,-31 2217.6,-27.5 2217.6,-34.5"/>
</g>
<!-- 1990981840352 -->
<g id="node12" class="node">
<title>1990981840352</title>
<polygon fill="white" stroke="black" points="2386.5,-49 2319.5,-49 2319.5,-13 2386.5,-13 2386.5,-49"/>
<text text-anchor="middle" x="2353" y="-25.98" font-family="Times New Roman,serif" font-size="12.00">Staff Train</text>
</g>
<!-- 1990981830224 -->
<g id="node28" class="node">
<title>1990981830224</title>
<ellipse fill="white" stroke="black" cx="2449.5" cy="-31" rx="27" ry="27"/>
</g>
<!-- 1990981840352&#45;&gt;1990981830224 -->
<g id="edge24" class="edge">
<title>1990981840352&#45;&gt;1990981830224</title>
<path fill="none" stroke="black" d="M2386.79,-31C2394.52,-31 2402.83,-31 2410.77,-31"/>
<polygon fill="black" stroke="black" points="2410.5,-34.5 2420.5,-31 2410.5,-27.5 2410.5,-34.5"/>
</g>
<!-- 1990981838384 -->
<g id="node13" class="node">
<title>1990981838384</title>
<polygon fill="white" stroke="black" points="2619.25,-49 2512.5,-49 2512.5,-13 2619.25,-13 2619.25,-49"/>
<text text-anchor="middle" x="2565.88" y="-25.98" font-family="Times New Roman,serif" font-size="12.00">Compliance Check</text>
</g>
<!-- 1990979580032 -->
<g id="node29" class="node">
<title>1990979580032</title>
<ellipse fill="white" stroke="black" cx="2682.25" cy="-31" rx="27" ry="27"/>
</g>
<!-- 1990981838384&#45;&gt;1990979580032 -->
<g id="edge26" class="edge">
<title>1990981838384&#45;&gt;1990979580032</title>
<path fill="none" stroke="black" d="M2619.71,-31C2627.7,-31 2635.8,-31 2643.39,-31"/>
<polygon fill="black" stroke="black" points="2643.29,-34.5 2653.29,-31 2643.29,-27.5 2643.29,-34.5"/>
</g>
<!-- 1990979578016 -->
<g id="node14" class="node">
<title>1990979578016</title>
<polygon fill="white" stroke="black" points="2825,-49 2745.25,-49 2745.25,-13 2825,-13 2825,-49"/>
<text text-anchor="middle" x="2785.12" y="-25.98" font-family="Times New Roman,serif" font-size="12.00">Market Setup</text>
</g>
<!-- 1990979572880 -->
<g id="node30" class="node">
<title>1990979572880</title>
<ellipse fill="white" stroke="black" cx="2888" cy="-31" rx="27" ry="27"/>
</g>
<!-- 1990979578016&#45;&gt;1990979572880 -->
<g id="edge28" class="edge">
<title>1990979578016&#45;&gt;1990979572880</title>
<path fill="none" stroke="black" d="M2825.41,-31C2833.28,-31 2841.52,-31 2849.32,-31"/>
<polygon fill="black" stroke="black" points="2849.22,-34.5 2859.22,-31 2849.22,-27.5 2849.22,-34.5"/>
</g>
<!-- 1990979574512 -->
<g id="node15" class="node">
<title>1990979574512</title>
<polygon fill="white" stroke="black" points="3029.25,-49 2951,-49 2951,-13 3029.25,-13 3029.25,-49"/>
<text text-anchor="middle" x="2990.12" y="-25.98" font-family="Times New Roman,serif" font-size="12.00">Data Review</text>
</g>
<!-- 1990982193696 -->
<g id="node31" class="node">
<title>1990982193696</title>
<ellipse fill="white" stroke="black" cx="3096.25" cy="-31" rx="27" ry="27"/>
<ellipse fill="none" stroke="black" cx="3096.25" cy="-31" rx="31" ry="31"/>
<text text-anchor="start" x="3079.75" y="-15.6" font-family="Times New Roman,serif" font-size="32.00">■</text>
</g>
<!-- 1990979574512&#45;&gt;1990982193696 -->
<g id="edge30" class="edge">
<title>1990979574512&#45;&gt;1990982193696</title>
<path fill="none" stroke="black" d="M3029.6,-31C3037.46,-31 3045.77,-31 3053.73,-31"/>
<polygon fill="black" stroke="black" points="3053.55,-34.5 3063.55,-31 3053.55,-27.5 3053.55,-34.5"/>
</g>
<!-- 1990982194416 -->
<g id="node16" class="node">
<title>1990982194416</title>
<ellipse fill="white" stroke="black" cx="27" cy="-31" rx="27" ry="27"/>
<text text-anchor="start" x="9.75" y="-13.7" font-family="Times New Roman,serif" font-size="34.00">●</text>
</g>
<!-- 1990982194416&#45;&gt;1990971763040 -->
<g id="edge1" class="edge">
<title>1990982194416&#45;&gt;1990971763040</title>
<path fill="none" stroke="black" d="M54.33,-31C61.76,-31 70.06,-31 78.28,-31"/>
<polygon fill="black" stroke="black" points="78.24,-34.5 88.24,-31 78.24,-27.5 78.24,-34.5"/>
</g>
<!-- 1990971762032&#45;&gt;1990971763808 -->
<g id="edge3" class="edge">
<title>1990971762032&#45;&gt;1990971763808</title>
<path fill="none" stroke="black" d="M251.03,-31C258.44,-31 266.73,-31 274.96,-31"/>
<polygon fill="black" stroke="black" points="274.94,-34.5 284.94,-31 274.94,-27.5 274.94,-34.5"/>
</g>
<!-- 1990971753200&#45;&gt;1990971767744 -->
<g id="edge5" class="edge">
<title>1990971753200&#45;&gt;1990971767744</title>
<path fill="none" stroke="black" d="M449.36,-31C456.78,-31 465.11,-31 473.46,-31"/>
<polygon fill="black" stroke="black" points="473.27,-34.5 483.27,-31 473.27,-27.5 473.27,-34.5"/>
</g>
<!-- 1990971766448&#45;&gt;1990978709040 -->
<g id="edge7" class="edge">
<title>1990971766448&#45;&gt;1990978709040</title>
<path fill="none" stroke="black" d="M658.22,-31C665.52,-31 673.68,-31 681.83,-31"/>
<polygon fill="black" stroke="black" points="681.75,-34.5 691.75,-31 681.75,-27.5 681.75,-34.5"/>
</g>
<!-- 1990978699392&#45;&gt;1990978707600 -->
<g id="edge9" class="edge">
<title>1990978699392&#45;&gt;1990978707600</title>
<path fill="none" stroke="black" d="M861.58,-31C869.01,-31 877.31,-31 885.53,-31"/>
<polygon fill="black" stroke="black" points="885.49,-34.5 895.49,-31 885.49,-27.5 885.49,-34.5"/>
</g>
<!-- 1990978700832&#45;&gt;1990978702272 -->
<g id="edge11" class="edge">
<title>1990978700832&#45;&gt;1990978702272</title>
<path fill="none" stroke="black" d="M1058.32,-31C1065.75,-31 1074.04,-31 1082.2,-31"/>
<polygon fill="black" stroke="black" points="1082.06,-34.5 1092.06,-31 1082.06,-27.5 1082.06,-34.5"/>
</g>
<!-- 1990978707648&#45;&gt;1990980576192 -->
<g id="edge13" class="edge">
<title>1990978707648&#45;&gt;1990980576192</title>
<path fill="none" stroke="black" d="M1251.31,-31C1258.69,-31 1266.99,-31 1275.36,-31"/>
<polygon fill="black" stroke="black" points="1275.21,-34.5 1285.21,-31 1275.21,-27.5 1275.21,-34.5"/>
</g>
<!-- 1990980507824&#45;&gt;1990980503024 -->
<g id="edge15" class="edge">
<title>1990980507824&#45;&gt;1990980503024</title>
<path fill="none" stroke="black" d="M1463.83,-31C1471.17,-31 1479.38,-31 1487.56,-31"/>
<polygon fill="black" stroke="black" points="1487.49,-34.5 1497.49,-31 1487.49,-27.5 1487.49,-34.5"/>
</g>
<!-- 1990980509744&#45;&gt;1990979660512 -->
<g id="edge17" class="edge">
<title>1990980509744&#45;&gt;1990979660512</title>
<path fill="none" stroke="black" d="M1664.39,-31C1671.8,-31 1680.13,-31 1688.51,-31"/>
<polygon fill="black" stroke="black" points="1688.36,-34.5 1698.36,-31 1688.36,-27.5 1688.36,-34.5"/>
</g>
<!-- 1990976300304&#45;&gt;1990976293680 -->
<g id="edge19" class="edge">
<title>1990976300304&#45;&gt;1990976293680</title>
<path fill="none" stroke="black" d="M1875.34,-31C1882.75,-31 1891.07,-31 1899.4,-31"/>
<polygon fill="black" stroke="black" points="1899.17,-34.5 1909.17,-31 1899.17,-27.5 1899.17,-34.5"/>
</g>
<!-- 1990977562928&#45;&gt;1990981833728 -->
<g id="edge21" class="edge">
<title>1990977562928&#45;&gt;1990981833728</title>
<path fill="none" stroke="black" d="M2081.77,-31C2089.25,-31 2097.65,-31 2106.01,-31"/>
<polygon fill="black" stroke="black" points="2105.78,-34.5 2115.78,-31 2105.78,-27.5 2105.78,-34.5"/>
</g>
<!-- 1990981844480&#45;&gt;1990981840352 -->
<g id="edge23" class="edge">
<title>1990981844480&#45;&gt;1990981840352</title>
<path fill="none" stroke="black" d="M2283.82,-31C2291.25,-31 2299.54,-31 2307.7,-31"/>
<polygon fill="black" stroke="black" points="2307.56,-34.5 2317.56,-31 2307.56,-27.5 2307.56,-34.5"/>
</g>
<!-- 1990981830224&#45;&gt;1990981838384 -->
<g id="edge25" class="edge">
<title>1990981830224&#45;&gt;1990981838384</title>
<path fill="none" stroke="black" d="M2476.74,-31C2484.08,-31 2492.39,-31 2500.9,-31"/>
<polygon fill="black" stroke="black" points="2500.63,-34.5 2510.63,-31 2500.63,-27.5 2500.63,-34.5"/>
</g>
<!-- 1990979580032&#45;&gt;1990979578016 -->
<g id="edge27" class="edge">
<title>1990979580032&#45;&gt;1990979578016</title>
<path fill="none" stroke="black" d="M2709.49,-31C2716.96,-31 2725.35,-31 2733.74,-31"/>
<polygon fill="black" stroke="black" points="2733.58,-34.5 2743.58,-31 2733.58,-27.5 2733.58,-34.5"/>
</g>
<!-- 1990979572880&#45;&gt;1990979574512 -->
<g id="edge29" class="edge">
<title>1990979572880&#45;&gt;1990979574512</title>
<path fill="none" stroke="black" d="M2915.31,-31C2922.63,-31 2930.84,-31 2939.05,-31"/>
<polygon fill="black" stroke="black" points="2939.05,-34.5 2949.05,-31 2939.05,-27.5 2939.05,-34.5"/>
</g>
</g>
</svg>
