<?xml version="1.0" encoding="UTF-8" standalone="no"?>
<!DOCTYPE svg PUBLIC "-//W3C//DTD SVG 1.1//EN"
 "http://www.w3.org/Graphics/SVG/1.1/DTD/svg11.dtd">
<!-- Generated by graphviz version 11.0.0 (20240428.1522)
 -->
<!-- Title: imdf_net_1754052319.0299652 Pages: 1 -->
<svg width="3692pt" height="179pt"
 viewBox="0.00 0.00 3691.75 179.00" xmlns="http://www.w3.org/2000/svg" xmlns:xlink="http://www.w3.org/1999/xlink">
<g id="graph0" class="graph" transform="scale(1 1) rotate(0) translate(4 175)">
<title>imdf_net_1754052319.0299652</title>
<polygon fill="white" stroke="none" points="-4,4 -4,-175 3687.75,-175 3687.75,4 -4,4"/>
<!-- 1990978473280 -->
<g id="node1" class="node">
<title>1990978473280</title>
<polygon fill="black" stroke="black" points="144,-148 90,-148 90,-112 144,-112 144,-148"/>
</g>
<!-- 1990978083952 -->
<g id="node21" class="node">
<title>1990978083952</title>
<ellipse fill="white" stroke="black" cx="207" cy="-130" rx="27" ry="27"/>
</g>
<!-- 1990978473280&#45;&gt;1990978083952 -->
<g id="edge2" class="edge">
<title>1990978473280&#45;&gt;1990978083952</title>
<path fill="none" stroke="black" d="M144.4,-130C151.89,-130 160.18,-130 168.2,-130"/>
<polygon fill="black" stroke="black" points="168.1,-133.5 178.1,-130 168.1,-126.5 168.1,-133.5"/>
</g>
<!-- 1990978231552 -->
<g id="node2" class="node">
<title>1990978231552</title>
<polygon fill="white" stroke="black" points="348.25,-121 270,-121 270,-85 348.25,-85 348.25,-121"/>
<text text-anchor="middle" x="309.12" y="-97.97" font-family="Times New Roman,serif" font-size="12.00">Sensor Setup</text>
</g>
<!-- 1990980894304 -->
<g id="node22" class="node">
<title>1990980894304</title>
<ellipse fill="white" stroke="black" cx="411.25" cy="-99" rx="27" ry="27"/>
</g>
<!-- 1990978231552&#45;&gt;1990980894304 -->
<g id="edge4" class="edge">
<title>1990978231552&#45;&gt;1990980894304</title>
<path fill="none" stroke="black" d="M348.55,-101.46C356.39,-101.15 364.63,-100.82 372.44,-100.51"/>
<polygon fill="black" stroke="black" points="372.51,-104.01 382.36,-100.11 372.23,-97.02 372.51,-104.01"/>
</g>
<!-- 1990971214064 -->
<g id="node3" class="node">
<title>1990971214064</title>
<polygon fill="white" stroke="black" points="553.25,-117 474.25,-117 474.25,-81 553.25,-81 553.25,-117"/>
<text text-anchor="middle" x="513.75" y="-93.97" font-family="Times New Roman,serif" font-size="12.00">Data Capture</text>
</g>
<!-- 1990971227504 -->
<g id="node23" class="node">
<title>1990971227504</title>
<ellipse fill="white" stroke="black" cx="616.25" cy="-99" rx="27" ry="27"/>
</g>
<!-- 1990971214064&#45;&gt;1990971227504 -->
<g id="edge6" class="edge">
<title>1990971214064&#45;&gt;1990971227504</title>
<path fill="none" stroke="black" d="M553.61,-99C561.46,-99 569.7,-99 577.51,-99"/>
<polygon fill="black" stroke="black" points="577.41,-102.5 587.41,-99 577.41,-95.5 577.41,-102.5"/>
</g>
<!-- 1990971217376 -->
<g id="node4" class="node">
<title>1990971217376</title>
<polygon fill="white" stroke="black" points="757.5,-117 679.25,-117 679.25,-81 757.5,-81 757.5,-117"/>
<text text-anchor="middle" x="718.38" y="-93.97" font-family="Times New Roman,serif" font-size="12.00">Nutrient Test</text>
</g>
<!-- 1990971223760 -->
<g id="node24" class="node">
<title>1990971223760</title>
<ellipse fill="white" stroke="black" cx="820.5" cy="-99" rx="27" ry="27"/>
</g>
<!-- 1990971217376&#45;&gt;1990971223760 -->
<g id="edge8" class="edge">
<title>1990971217376&#45;&gt;1990971223760</title>
<path fill="none" stroke="black" d="M757.8,-99C765.64,-99 773.88,-99 781.69,-99"/>
<polygon fill="black" stroke="black" points="781.61,-102.5 791.61,-99 781.61,-95.5 781.61,-102.5"/>
</g>
<!-- 1990971926640 -->
<g id="node5" class="node">
<title>1990971926640</title>
<polygon fill="white" stroke="black" points="974.5,-117 883.5,-117 883.5,-81 974.5,-81 974.5,-117"/>
<text text-anchor="middle" x="929" y="-93.97" font-family="Times New Roman,serif" font-size="12.00">Soil Recalibrate</text>
</g>
<!-- 1990977220640 -->
<g id="node25" class="node">
<title>1990977220640</title>
<ellipse fill="white" stroke="black" cx="1037.5" cy="-99" rx="27" ry="27"/>
</g>
<!-- 1990971926640&#45;&gt;1990977220640 -->
<g id="edge10" class="edge">
<title>1990971926640&#45;&gt;1990977220640</title>
<path fill="none" stroke="black" d="M974.86,-99C982.86,-99 991.12,-99 998.9,-99"/>
<polygon fill="black" stroke="black" points="998.71,-102.5 1008.71,-99 998.71,-95.5 998.71,-102.5"/>
</g>
<!-- 1990977222944 -->
<g id="node6" class="node">
<title>1990977222944</title>
<polygon fill="white" stroke="black" points="1186.25,-117 1100.5,-117 1100.5,-81 1186.25,-81 1186.25,-117"/>
<text text-anchor="middle" x="1143.38" y="-93.97" font-family="Times New Roman,serif" font-size="12.00">Seed Selection</text>
</g>
<!-- 1990977219440 -->
<g id="node26" class="node">
<title>1990977219440</title>
<ellipse fill="white" stroke="black" cx="1249.25" cy="-99" rx="27" ry="27"/>
</g>
<!-- 1990977222944&#45;&gt;1990977219440 -->
<g id="edge12" class="edge">
<title>1990977222944&#45;&gt;1990977219440</title>
<path fill="none" stroke="black" d="M1186.62,-99C1194.53,-99 1202.75,-99 1210.51,-99"/>
<polygon fill="black" stroke="black" points="1210.32,-102.5 1220.32,-99 1210.32,-95.5 1210.32,-102.5"/>
</g>
<!-- 1990977213680 -->
<g id="node7" class="node">
<title>1990977213680</title>
<polygon fill="white" stroke="black" points="1422.75,-117 1312.25,-117 1312.25,-81 1422.75,-81 1422.75,-117"/>
<text text-anchor="middle" x="1367.5" y="-93.97" font-family="Times New Roman,serif" font-size="12.00">Automated Planting</text>
</g>
<!-- 1990975754448 -->
<g id="node27" class="node">
<title>1990975754448</title>
<ellipse fill="white" stroke="black" cx="1485.75" cy="-99" rx="27" ry="27"/>
</g>
<!-- 1990977213680&#45;&gt;1990975754448 -->
<g id="edge14" class="edge">
<title>1990977213680&#45;&gt;1990975754448</title>
<path fill="none" stroke="black" d="M1423.22,-99C1431.26,-99 1439.39,-99 1446.98,-99"/>
<polygon fill="black" stroke="black" points="1446.88,-102.5 1456.88,-99 1446.88,-95.5 1446.88,-102.5"/>
</g>
<!-- 1990975760592 -->
<g id="node28" class="node">
<title>1990975760592</title>
<ellipse fill="white" stroke="black" cx="1485.75" cy="-27" rx="27" ry="27"/>
</g>
<!-- 1990977213680&#45;&gt;1990975760592 -->
<g id="edge15" class="edge">
<title>1990977213680&#45;&gt;1990975760592</title>
<path fill="none" stroke="black" d="M1398.14,-80.65C1414.78,-70.34 1435.57,-57.46 1452.6,-46.91"/>
<polygon fill="black" stroke="black" points="1454.2,-50.04 1460.86,-41.8 1450.51,-44.09 1454.2,-50.04"/>
</g>
<!-- 1990975752384 -->
<g id="node8" class="node">
<title>1990975752384</title>
<polygon fill="white" stroke="black" points="1643.5,-117 1549.5,-117 1549.5,-81 1643.5,-81 1643.5,-117"/>
<text text-anchor="middle" x="1596.5" y="-93.97" font-family="Times New Roman,serif" font-size="12.00">Irrigation Adjust</text>
</g>
<!-- 1990975762416 -->
<g id="node30" class="node">
<title>1990975762416</title>
<ellipse fill="white" stroke="black" cx="1707.25" cy="-99" rx="27" ry="27"/>
</g>
<!-- 1990975752384&#45;&gt;1990975762416 -->
<g id="edge19" class="edge">
<title>1990975752384&#45;&gt;1990975762416</title>
<path fill="none" stroke="black" d="M1643.94,-99C1652.24,-99 1660.79,-99 1668.8,-99"/>
<polygon fill="black" stroke="black" points="1668.54,-102.5 1678.54,-99 1668.54,-95.5 1668.54,-102.5"/>
</g>
<!-- 1990975760208 -->
<g id="node9" class="node">
<title>1990975760208</title>
<polygon fill="white" stroke="black" points="1644.25,-45 1548.75,-45 1548.75,-9 1644.25,-9 1644.25,-45"/>
<text text-anchor="middle" x="1596.5" y="-21.98" font-family="Times New Roman,serif" font-size="12.00">Lighting Control</text>
</g>
<!-- 1990975764048 -->
<g id="node29" class="node">
<title>1990975764048</title>
<ellipse fill="white" stroke="black" cx="1707.25" cy="-27" rx="27" ry="27"/>
</g>
<!-- 1990975760208&#45;&gt;1990975764048 -->
<g id="edge18" class="edge">
<title>1990975760208&#45;&gt;1990975764048</title>
<path fill="none" stroke="black" d="M1644.57,-27C1652.57,-27 1660.79,-27 1668.52,-27"/>
<polygon fill="black" stroke="black" points="1668.25,-30.5 1678.25,-27 1668.25,-23.5 1668.25,-30.5"/>
</g>
<!-- 1990975763952 -->
<g id="node10" class="node">
<title>1990975763952</title>
<polygon fill="white" stroke="black" points="1856.75,-117 1770.25,-117 1770.25,-81 1856.75,-81 1856.75,-117"/>
<text text-anchor="middle" x="1813.5" y="-93.97" font-family="Times New Roman,serif" font-size="12.00">Pest Prediction</text>
</g>
<!-- 1990975755360 -->
<g id="node31" class="node">
<title>1990975755360</title>
<ellipse fill="white" stroke="black" cx="1919.75" cy="-99" rx="27" ry="27"/>
</g>
<!-- 1990975763952&#45;&gt;1990975755360 -->
<g id="edge22" class="edge">
<title>1990975763952&#45;&gt;1990975755360</title>
<path fill="none" stroke="black" d="M1857.2,-99C1865.12,-99 1873.34,-99 1881.09,-99"/>
<polygon fill="black" stroke="black" points="1880.89,-102.5 1890.89,-99 1880.89,-95.5 1880.89,-102.5"/>
</g>
<!-- 1990969798592 -->
<g id="node11" class="node">
<title>1990969798592</title>
<polygon fill="white" stroke="black" points="2066.25,-117 1982.75,-117 1982.75,-81 2066.25,-81 2066.25,-117"/>
<text text-anchor="middle" x="2024.5" y="-93.97" font-family="Times New Roman,serif" font-size="12.00">Crop Rotation</text>
</g>
<!-- 1990969796816 -->
<g id="node32" class="node">
<title>1990969796816</title>
<ellipse fill="white" stroke="black" cx="2129.25" cy="-99" rx="27" ry="27"/>
</g>
<!-- 1990969798592&#45;&gt;1990969796816 -->
<g id="edge24" class="edge">
<title>1990969798592&#45;&gt;1990969796816</title>
<path fill="none" stroke="black" d="M2066.7,-99C2074.56,-99 2082.75,-99 2090.5,-99"/>
<polygon fill="black" stroke="black" points="2090.3,-102.5 2100.3,-99 2090.3,-95.5 2090.3,-102.5"/>
</g>
<!-- 1990977218384 -->
<g id="node12" class="node">
<title>1990977218384</title>
<polygon fill="white" stroke="black" points="2277.25,-117 2192.25,-117 2192.25,-81 2277.25,-81 2277.25,-117"/>
<text text-anchor="middle" x="2234.75" y="-93.97" font-family="Times New Roman,serif" font-size="12.00">Yield Forecast</text>
</g>
<!-- 1990977212480 -->
<g id="node33" class="node">
<title>1990977212480</title>
<ellipse fill="white" stroke="black" cx="2340.25" cy="-99" rx="27" ry="27"/>
</g>
<!-- 1990977218384&#45;&gt;1990977212480 -->
<g id="edge26" class="edge">
<title>1990977218384&#45;&gt;1990977212480</title>
<path fill="none" stroke="black" d="M2277.55,-99C2285.45,-99 2293.67,-99 2301.43,-99"/>
<polygon fill="black" stroke="black" points="2301.26,-102.5 2311.26,-99 2301.26,-95.5 2301.26,-102.5"/>
</g>
<!-- 1990977212768 -->
<g id="node13" class="node">
<title>1990977212768</title>
<polygon fill="white" stroke="black" points="2489.75,-117 2403.25,-117 2403.25,-81 2489.75,-81 2489.75,-117"/>
<text text-anchor="middle" x="2446.5" y="-93.97" font-family="Times New Roman,serif" font-size="12.00">Market Survey</text>
</g>
<!-- 1990977221792 -->
<g id="node34" class="node">
<title>1990977221792</title>
<ellipse fill="white" stroke="black" cx="2552.75" cy="-99" rx="27" ry="27"/>
</g>
<!-- 1990977212768&#45;&gt;1990977221792 -->
<g id="edge28" class="edge">
<title>1990977212768&#45;&gt;1990977221792</title>
<path fill="none" stroke="black" d="M2490.2,-99C2498.12,-99 2506.34,-99 2514.09,-99"/>
<polygon fill="black" stroke="black" points="2513.89,-102.5 2523.89,-99 2513.89,-95.5 2513.89,-102.5"/>
</g>
<!-- 1990977220448 -->
<g id="node14" class="node">
<title>1990977220448</title>
<polygon fill="white" stroke="black" points="2712,-117 2615.75,-117 2615.75,-81 2712,-81 2712,-117"/>
<text text-anchor="middle" x="2663.88" y="-93.97" font-family="Times New Roman,serif" font-size="12.00">Distribution Plan</text>
</g>
<!-- 1990977220064 -->
<g id="node35" class="node">
<title>1990977220064</title>
<ellipse fill="white" stroke="black" cx="2775" cy="-99" rx="27" ry="27"/>
</g>
<!-- 1990977220448&#45;&gt;1990977220064 -->
<g id="edge30" class="edge">
<title>1990977220448&#45;&gt;1990977220064</title>
<path fill="none" stroke="black" d="M2712.42,-99C2720.34,-99 2728.45,-99 2736.09,-99"/>
<polygon fill="black" stroke="black" points="2736.08,-102.5 2746.08,-99 2736.08,-95.5 2736.08,-102.5"/>
</g>
<!-- 1990977222368 -->
<g id="node15" class="node">
<title>1990977222368</title>
<polygon fill="white" stroke="black" points="2959,-117 2838,-117 2838,-81 2959,-81 2959,-117"/>
<text text-anchor="middle" x="2898.5" y="-93.97" font-family="Times New Roman,serif" font-size="12.00">Community Feedback</text>
</g>
<!-- 1990977221504 -->
<g id="node36" class="node">
<title>1990977221504</title>
<ellipse fill="white" stroke="black" cx="3022" cy="-99" rx="27" ry="27"/>
</g>
<!-- 1990977222368&#45;&gt;1990977221504 -->
<g id="edge32" class="edge">
<title>1990977222368&#45;&gt;1990977221504</title>
<path fill="none" stroke="black" d="M2959.18,-99C2967.37,-99 2975.59,-99 2983.24,-99"/>
<polygon fill="black" stroke="black" points="2983.19,-102.5 2993.19,-99 2983.19,-95.5 2983.19,-102.5"/>
</g>
<!-- 1990977213392 -->
<g id="node16" class="node">
<title>1990977213392</title>
<polygon fill="white" stroke="black" points="3182,-117 3085,-117 3085,-81 3182,-81 3182,-117"/>
<text text-anchor="middle" x="3133.5" y="-93.97" font-family="Times New Roman,serif" font-size="12.00">Waste Collection</text>
</g>
<!-- 1990977215168 -->
<g id="node37" class="node">
<title>1990977215168</title>
<ellipse fill="white" stroke="black" cx="3245" cy="-99" rx="27" ry="27"/>
</g>
<!-- 1990977213392&#45;&gt;1990977215168 -->
<g id="edge34" class="edge">
<title>1990977213392&#45;&gt;1990977215168</title>
<path fill="none" stroke="black" d="M3182.21,-99C3190.32,-99 3198.65,-99 3206.45,-99"/>
<polygon fill="black" stroke="black" points="3206.29,-102.5 3216.29,-99 3206.29,-95.5 3206.29,-102.5"/>
</g>
<!-- 1990981722736 -->
<g id="node17" class="node">
<title>1990981722736</title>
<polygon fill="white" stroke="black" points="3405.75,-117 3308,-117 3308,-81 3405.75,-81 3405.75,-117"/>
<text text-anchor="middle" x="3356.88" y="-93.97" font-family="Times New Roman,serif" font-size="12.00">Compost Process</text>
</g>
<!-- 1990978707456 -->
<g id="node38" class="node">
<title>1990978707456</title>
<ellipse fill="white" stroke="black" cx="3468.75" cy="-99" rx="27" ry="27"/>
</g>
<!-- 1990981722736&#45;&gt;1990978707456 -->
<g id="edge36" class="edge">
<title>1990981722736&#45;&gt;1990978707456</title>
<path fill="none" stroke="black" d="M3406.07,-99C3414.11,-99 3422.35,-99 3430.07,-99"/>
<polygon fill="black" stroke="black" points="3429.81,-102.5 3439.81,-99 3429.81,-95.5 3429.81,-102.5"/>
</g>
<!-- 1990981729456 -->
<g id="node18" class="node">
<title>1990981729456</title>
<polygon fill="black" stroke="black" points="3585.75,-117 3531.75,-117 3531.75,-81 3585.75,-81 3585.75,-117"/>
</g>
<!-- 1990978481200 -->
<g id="node39" class="node">
<title>1990978481200</title>
<ellipse fill="white" stroke="black" cx="3652.75" cy="-99" rx="27" ry="27"/>
<ellipse fill="none" stroke="black" cx="3652.75" cy="-99" rx="31" ry="31"/>
<text text-anchor="start" x="3636.25" y="-83.6" font-family="Times New Roman,serif" font-size="32.00">■</text>
</g>
<!-- 1990981729456&#45;&gt;1990978481200 -->
<g id="edge40" class="edge">
<title>1990981729456&#45;&gt;1990978481200</title>
<path fill="none" stroke="black" d="M3585.87,-99C3593.38,-99 3601.76,-99 3609.97,-99"/>
<polygon fill="black" stroke="black" points="3609.83,-102.5 3619.83,-99 3609.83,-95.5 3609.83,-102.5"/>
</g>
<!-- 1990981728592 -->
<g id="node19" class="node">
<title>1990981728592</title>
<polygon fill="black" stroke="black" points="3585.75,-171 3531.75,-171 3531.75,-135 3585.75,-135 3585.75,-171"/>
</g>
<!-- 1990981728592&#45;&gt;1990978083952 -->
<g id="edge39" class="edge">
<title>1990981728592&#45;&gt;1990978083952</title>
<path fill="none" stroke="black" d="M3531.56,-153.21C3493.37,-153.51 3420.16,-154 3357.88,-154 410.25,-154 410.25,-154 410.25,-154 352.16,-154 285.34,-144.12 244.91,-137.03"/>
<polygon fill="black" stroke="black" points="245.7,-133.62 235.23,-135.3 244.46,-140.51 245.7,-133.62"/>
</g>
<!-- 1990978843616 -->
<g id="node20" class="node">
<title>1990978843616</title>
<ellipse fill="white" stroke="black" cx="27" cy="-130" rx="27" ry="27"/>
<text text-anchor="start" x="9.75" y="-112.7" font-family="Times New Roman,serif" font-size="34.00">●</text>
</g>
<!-- 1990978843616&#45;&gt;1990978473280 -->
<g id="edge1" class="edge">
<title>1990978843616&#45;&gt;1990978473280</title>
<path fill="none" stroke="black" d="M54.4,-130C61.89,-130 70.18,-130 78.2,-130"/>
<polygon fill="black" stroke="black" points="78.1,-133.5 88.1,-130 78.1,-126.5 78.1,-133.5"/>
</g>
<!-- 1990978083952&#45;&gt;1990978231552 -->
<g id="edge3" class="edge">
<title>1990978083952&#45;&gt;1990978231552</title>
<path fill="none" stroke="black" d="M233.52,-123.12C241.27,-121.03 250.04,-118.66 258.8,-116.3"/>
<polygon fill="black" stroke="black" points="259.58,-119.72 268.32,-113.73 257.75,-112.96 259.58,-119.72"/>
</g>
<!-- 1990980894304&#45;&gt;1990971214064 -->
<g id="edge5" class="edge">
<title>1990980894304&#45;&gt;1990971214064</title>
<path fill="none" stroke="black" d="M438.66,-99C446.09,-99 454.44,-99 462.77,-99"/>
<polygon fill="black" stroke="black" points="462.53,-102.5 472.53,-99 462.53,-95.5 462.53,-102.5"/>
</g>
<!-- 1990971227504&#45;&gt;1990971217376 -->
<g id="edge7" class="edge">
<title>1990971227504&#45;&gt;1990971217376</title>
<path fill="none" stroke="black" d="M643.56,-99C650.88,-99 659.09,-99 667.3,-99"/>
<polygon fill="black" stroke="black" points="667.3,-102.5 677.3,-99 667.3,-95.5 667.3,-102.5"/>
</g>
<!-- 1990971223760&#45;&gt;1990971926640 -->
<g id="edge9" class="edge">
<title>1990971223760&#45;&gt;1990971926640</title>
<path fill="none" stroke="black" d="M847.83,-99C855.19,-99 863.5,-99 871.89,-99"/>
<polygon fill="black" stroke="black" points="871.81,-102.5 881.81,-99 871.81,-95.5 871.81,-102.5"/>
</g>
<!-- 1990977220640&#45;&gt;1990977222944 -->
<g id="edge11" class="edge">
<title>1990977220640&#45;&gt;1990977222944</title>
<path fill="none" stroke="black" d="M1064.98,-99C1072.34,-99 1080.6,-99 1088.91,-99"/>
<polygon fill="black" stroke="black" points="1088.69,-102.5 1098.69,-99 1088.69,-95.5 1088.69,-102.5"/>
</g>
<!-- 1990977219440&#45;&gt;1990977213680 -->
<g id="edge13" class="edge">
<title>1990977219440&#45;&gt;1990977213680</title>
<path fill="none" stroke="black" d="M1276.63,-99C1283.99,-99 1292.33,-99 1300.89,-99"/>
<polygon fill="black" stroke="black" points="1300.69,-102.5 1310.69,-99 1300.69,-95.5 1300.69,-102.5"/>
</g>
<!-- 1990975754448&#45;&gt;1990975752384 -->
<g id="edge16" class="edge">
<title>1990975754448&#45;&gt;1990975752384</title>
<path fill="none" stroke="black" d="M1513.08,-99C1520.59,-99 1529.1,-99 1537.71,-99"/>
<polygon fill="black" stroke="black" points="1537.52,-102.5 1547.52,-99 1537.52,-95.5 1537.52,-102.5"/>
</g>
<!-- 1990975760592&#45;&gt;1990975760208 -->
<g id="edge17" class="edge">
<title>1990975760592&#45;&gt;1990975760208</title>
<path fill="none" stroke="black" d="M1513.08,-27C1520.42,-27 1528.71,-27 1537.13,-27"/>
<polygon fill="black" stroke="black" points="1537.09,-30.5 1547.09,-27 1537.09,-23.5 1537.09,-30.5"/>
</g>
<!-- 1990975764048&#45;&gt;1990975763952 -->
<g id="edge21" class="edge">
<title>1990975764048&#45;&gt;1990975763952</title>
<path fill="none" stroke="black" d="M1730.1,-42.09C1743.55,-51.38 1761.12,-63.51 1776.57,-74.19"/>
<polygon fill="black" stroke="black" points="1774.4,-76.94 1784.62,-79.74 1778.38,-71.18 1774.4,-76.94"/>
</g>
<!-- 1990975762416&#45;&gt;1990975763952 -->
<g id="edge20" class="edge">
<title>1990975762416&#45;&gt;1990975763952</title>
<path fill="none" stroke="black" d="M1734.56,-99C1741.94,-99 1750.24,-99 1758.61,-99"/>
<polygon fill="black" stroke="black" points="1758.46,-102.5 1768.46,-99 1758.46,-95.5 1758.46,-102.5"/>
</g>
<!-- 1990975755360&#45;&gt;1990969798592 -->
<g id="edge23" class="edge">
<title>1990975755360&#45;&gt;1990969798592</title>
<path fill="none" stroke="black" d="M1947.21,-99C1954.57,-99 1962.83,-99 1971.12,-99"/>
<polygon fill="black" stroke="black" points="1970.86,-102.5 1980.86,-99 1970.86,-95.5 1970.86,-102.5"/>
</g>
<!-- 1990969796816&#45;&gt;1990977218384 -->
<g id="edge25" class="edge">
<title>1990969796816&#45;&gt;1990977218384</title>
<path fill="none" stroke="black" d="M2156.64,-99C2164.05,-99 2172.38,-99 2180.76,-99"/>
<polygon fill="black" stroke="black" points="2180.61,-102.5 2190.61,-99 2180.61,-95.5 2180.61,-102.5"/>
</g>
<!-- 1990977212480&#45;&gt;1990977212768 -->
<g id="edge27" class="edge">
<title>1990977212480&#45;&gt;1990977212768</title>
<path fill="none" stroke="black" d="M2367.56,-99C2374.94,-99 2383.24,-99 2391.61,-99"/>
<polygon fill="black" stroke="black" points="2391.46,-102.5 2401.46,-99 2391.46,-95.5 2391.46,-102.5"/>
</g>
<!-- 1990977221792&#45;&gt;1990977220448 -->
<g id="edge29" class="edge">
<title>1990977221792&#45;&gt;1990977220448</title>
<path fill="none" stroke="black" d="M2580.17,-99C2587.45,-99 2595.66,-99 2604,-99"/>
<polygon fill="black" stroke="black" points="2603.87,-102.5 2613.87,-99 2603.87,-95.5 2603.87,-102.5"/>
</g>
<!-- 1990977220064&#45;&gt;1990977222368 -->
<g id="edge31" class="edge">
<title>1990977220064&#45;&gt;1990977222368</title>
<path fill="none" stroke="black" d="M2802.36,-99C2809.64,-99 2817.9,-99 2826.45,-99"/>
<polygon fill="black" stroke="black" points="2826.26,-102.5 2836.26,-99 2826.26,-95.5 2826.26,-102.5"/>
</g>
<!-- 1990977221504&#45;&gt;1990977213392 -->
<g id="edge33" class="edge">
<title>1990977221504&#45;&gt;1990977213392</title>
<path fill="none" stroke="black" d="M3049.23,-99C3056.54,-99 3064.78,-99 3073.18,-99"/>
<polygon fill="black" stroke="black" points="3073.12,-102.5 3083.12,-99 3073.12,-95.5 3073.12,-102.5"/>
</g>
<!-- 1990977215168&#45;&gt;1990981722736 -->
<g id="edge35" class="edge">
<title>1990977215168&#45;&gt;1990981722736</title>
<path fill="none" stroke="black" d="M3272.32,-99C3279.65,-99 3287.93,-99 3296.35,-99"/>
<polygon fill="black" stroke="black" points="3296.33,-102.5 3306.33,-99 3296.33,-95.5 3296.33,-102.5"/>
</g>
<!-- 1990978707456&#45;&gt;1990981729456 -->
<g id="edge37" class="edge">
<title>1990978707456&#45;&gt;1990981729456</title>
<path fill="none" stroke="black" d="M3496.15,-99C3503.64,-99 3511.93,-99 3519.95,-99"/>
<polygon fill="black" stroke="black" points="3519.85,-102.5 3529.85,-99 3519.85,-95.5 3519.85,-102.5"/>
</g>
<!-- 1990978707456&#45;&gt;1990981728592 -->
<g id="edge38" class="edge">
<title>1990978707456&#45;&gt;1990981728592</title>
<path fill="none" stroke="black" d="M3492.41,-112.91C3501.35,-118.39 3511.84,-124.83 3521.76,-130.92"/>
<polygon fill="black" stroke="black" points="3519.78,-133.8 3530.13,-136.05 3523.44,-127.84 3519.78,-133.8"/>
</g>
</g>
</svg>
