<?xml version="1.0" encoding="UTF-8" standalone="no"?>
<!DOCTYPE svg PUBLIC "-//W3C//DTD SVG 1.1//EN"
 "http://www.w3.org/Graphics/SVG/1.1/DTD/svg11.dtd">
<!-- Generated by graphviz version 11.0.0 (20240428.1522)
 -->
<!-- Title: imdf_net_1754052324.9862351 Pages: 1 -->
<svg width="2932pt" height="422pt"
 viewBox="0.00 0.00 2932.25 422.00" xmlns="http://www.w3.org/2000/svg" xmlns:xlink="http://www.w3.org/1999/xlink">
<g id="graph0" class="graph" transform="scale(1 1) rotate(0) translate(4 418)">
<title>imdf_net_1754052324.9862351</title>
<polygon fill="white" stroke="none" points="-4,4 -4,-418 2928.25,-418 2928.25,4 -4,4"/>
<!-- 1990981349120 -->
<g id="node1" class="node">
<title>1990981349120</title>
<polygon fill="white" stroke="black" points="169.75,-189 90,-189 90,-153 169.75,-153 169.75,-189"/>
<text text-anchor="middle" x="129.88" y="-165.97" font-family="Times New Roman,serif" font-size="12.00">Initial Inspect</text>
</g>
<!-- 1990981346048 -->
<g id="node19" class="node">
<title>1990981346048</title>
<ellipse fill="white" stroke="black" cx="232.75" cy="-171" rx="27" ry="27"/>
</g>
<!-- 1990981349120&#45;&gt;1990981346048 -->
<g id="edge2" class="edge">
<title>1990981349120&#45;&gt;1990981346048</title>
<path fill="none" stroke="black" d="M170.16,-171C178.03,-171 186.27,-171 194.07,-171"/>
<polygon fill="black" stroke="black" points="193.97,-174.5 203.97,-171 193.97,-167.5 193.97,-174.5"/>
</g>
<!-- 1990981341344 -->
<g id="node2" class="node">
<title>1990981341344</title>
<polygon fill="white" stroke="black" points="397.25,-189 295.75,-189 295.75,-153 397.25,-153 397.25,-189"/>
<text text-anchor="middle" x="346.5" y="-165.97" font-family="Times New Roman,serif" font-size="12.00">Disassemble Parts</text>
</g>
<!-- 1990981344416 -->
<g id="node20" class="node">
<title>1990981344416</title>
<ellipse fill="white" stroke="black" cx="460.25" cy="-171" rx="27" ry="27"/>
</g>
<!-- 1990981341344&#45;&gt;1990981344416 -->
<g id="edge4" class="edge">
<title>1990981341344&#45;&gt;1990981344416</title>
<path fill="none" stroke="black" d="M397.49,-171C405.6,-171 413.87,-171 421.61,-171"/>
<polygon fill="black" stroke="black" points="421.36,-174.5 431.36,-171 421.36,-167.5 421.36,-174.5"/>
</g>
<!-- 1990981337408 -->
<g id="node3" class="node">
<title>1990981337408</title>
<polygon fill="white" stroke="black" points="634.5,-189 523.25,-189 523.25,-153 634.5,-153 634.5,-189"/>
<text text-anchor="middle" x="578.88" y="-165.97" font-family="Times New Roman,serif" font-size="12.00">Component Catalog</text>
</g>
<!-- 1990981346960 -->
<g id="node21" class="node">
<title>1990981346960</title>
<ellipse fill="white" stroke="black" cx="697.5" cy="-243" rx="27" ry="27"/>
</g>
<!-- 1990981337408&#45;&gt;1990981346960 -->
<g id="edge6" class="edge">
<title>1990981337408&#45;&gt;1990981346960</title>
<path fill="none" stroke="black" d="M609.61,-189.35C626.42,-199.73 647.44,-212.71 664.6,-223.3"/>
<polygon fill="black" stroke="black" points="662.55,-226.16 672.9,-228.43 666.23,-220.2 662.55,-226.16"/>
</g>
<!-- 1990981343264 -->
<g id="node22" class="node">
<title>1990981343264</title>
<ellipse fill="white" stroke="black" cx="697.5" cy="-135" rx="27" ry="27"/>
</g>
<!-- 1990981337408&#45;&gt;1990981343264 -->
<g id="edge7" class="edge">
<title>1990981337408&#45;&gt;1990981343264</title>
<path fill="none" stroke="black" d="M634.77,-154.05C643.45,-151.38 652.22,-148.67 660.33,-146.17"/>
<polygon fill="black" stroke="black" points="661.29,-149.53 669.81,-143.24 659.22,-142.84 661.29,-149.53"/>
</g>
<!-- 1990981347680 -->
<g id="node4" class="node">
<title>1990981347680</title>
<polygon fill="white" stroke="black" points="856,-117 760.5,-117 760.5,-81 856,-81 856,-117"/>
<text text-anchor="middle" x="808.25" y="-93.97" font-family="Times New Roman,serif" font-size="12.00">Ultrasonic Clean</text>
</g>
<!-- 1990980998048 -->
<g id="node23" class="node">
<title>1990980998048</title>
<ellipse fill="white" stroke="black" cx="919" cy="-27" rx="27" ry="27"/>
</g>
<!-- 1990981347680&#45;&gt;1990980998048 -->
<g id="edge12" class="edge">
<title>1990981347680&#45;&gt;1990980998048</title>
<path fill="none" stroke="black" d="M836.97,-80.65C852.09,-70.64 870.85,-58.22 886.51,-47.85"/>
<polygon fill="black" stroke="black" points="888.14,-50.97 894.54,-42.53 884.27,-45.13 888.14,-50.97"/>
</g>
<!-- 1990981001408 -->
<g id="node24" class="node">
<title>1990981001408</title>
<ellipse fill="white" stroke="black" cx="919" cy="-243" rx="27" ry="27"/>
</g>
<!-- 1990981347680&#45;&gt;1990981001408 -->
<g id="edge14" class="edge">
<title>1990981347680&#45;&gt;1990981001408</title>
<path fill="none" stroke="black" d="M823.02,-117.24C841.18,-141.28 873.36,-183.89 895.18,-212.78"/>
<polygon fill="black" stroke="black" points="892.13,-214.56 900.95,-220.43 897.72,-210.34 892.13,-214.56"/>
</g>
<!-- 1990980999392 -->
<g id="node26" class="node">
<title>1990980999392</title>
<ellipse fill="white" stroke="black" cx="919" cy="-99" rx="27" ry="27"/>
</g>
<!-- 1990981347680&#45;&gt;1990980999392 -->
<g id="edge13" class="edge">
<title>1990981347680&#45;&gt;1990980999392</title>
<path fill="none" stroke="black" d="M856.32,-99C864.32,-99 872.54,-99 880.27,-99"/>
<polygon fill="black" stroke="black" points="880,-102.5 890,-99 880,-95.5 880,-102.5"/>
</g>
<!-- 1990981348208 -->
<g id="node5" class="node">
<title>1990981348208</title>
<polygon fill="white" stroke="black" points="852.62,-261 763.88,-261 763.88,-225 852.62,-225 852.62,-261"/>
<text text-anchor="middle" x="808.25" y="-237.97" font-family="Times New Roman,serif" font-size="12.00">Chemical Treat</text>
</g>
<!-- 1990981003472 -->
<g id="node25" class="node">
<title>1990981003472</title>
<ellipse fill="white" stroke="black" cx="919" cy="-387" rx="27" ry="27"/>
</g>
<!-- 1990981348208&#45;&gt;1990981003472 -->
<g id="edge15" class="edge">
<title>1990981348208&#45;&gt;1990981003472</title>
<path fill="none" stroke="black" d="M823.02,-261.24C841.18,-285.28 873.36,-327.89 895.18,-356.78"/>
<polygon fill="black" stroke="black" points="892.13,-358.56 900.95,-364.43 897.72,-354.34 892.13,-358.56"/>
</g>
<!-- 1990981008608 -->
<g id="node27" class="node">
<title>1990981008608</title>
<ellipse fill="white" stroke="black" cx="919" cy="-171" rx="27" ry="27"/>
</g>
<!-- 1990981348208&#45;&gt;1990981008608 -->
<g id="edge10" class="edge">
<title>1990981348208&#45;&gt;1990981008608</title>
<path fill="none" stroke="black" d="M836.97,-224.65C852.09,-214.64 870.85,-202.22 886.51,-191.85"/>
<polygon fill="black" stroke="black" points="888.14,-194.97 894.54,-186.53 884.27,-189.13 888.14,-194.97"/>
</g>
<!-- 1990981000688 -->
<g id="node28" class="node">
<title>1990981000688</title>
<ellipse fill="white" stroke="black" cx="919" cy="-315" rx="27" ry="27"/>
</g>
<!-- 1990981348208&#45;&gt;1990981000688 -->
<g id="edge11" class="edge">
<title>1990981348208&#45;&gt;1990981000688</title>
<path fill="none" stroke="black" d="M836.97,-261.35C852.09,-271.36 870.85,-283.78 886.51,-294.15"/>
<polygon fill="black" stroke="black" points="884.27,-296.87 894.54,-299.47 888.14,-291.03 884.27,-296.87"/>
</g>
<!-- 1990980996752 -->
<g id="node6" class="node">
<title>1990980996752</title>
<polygon fill="white" stroke="black" points="1071.12,-297 983.12,-297 983.12,-261 1071.12,-261 1071.12,-297"/>
<text text-anchor="middle" x="1027.12" y="-273.98" font-family="Times New Roman,serif" font-size="12.00">Source Springs</text>
</g>
<!-- 1990981002320 -->
<g id="node30" class="node">
<title>1990981002320</title>
<ellipse fill="white" stroke="black" cx="1135.25" cy="-279" rx="27" ry="27"/>
</g>
<!-- 1990980996752&#45;&gt;1990981002320 -->
<g id="edge24" class="edge">
<title>1990980996752&#45;&gt;1990981002320</title>
<path fill="none" stroke="black" d="M1071.6,-279C1079.9,-279 1088.54,-279 1096.64,-279"/>
<polygon fill="black" stroke="black" points="1096.52,-282.5 1106.52,-279 1096.52,-275.5 1096.52,-282.5"/>
</g>
<!-- 1990981342880 -->
<g id="node7" class="node">
<title>1990981342880</title>
<polygon fill="white" stroke="black" points="1072.25,-153 982,-153 982,-117 1072.25,-117 1072.25,-153"/>
<text text-anchor="middle" x="1027.12" y="-129.97" font-family="Times New Roman,serif" font-size="12.00">Fabricate Gears</text>
</g>
<!-- 1990981001456 -->
<g id="node31" class="node">
<title>1990981001456</title>
<ellipse fill="white" stroke="black" cx="1135.25" cy="-135" rx="27" ry="27"/>
</g>
<!-- 1990981342880&#45;&gt;1990981001456 -->
<g id="edge23" class="edge">
<title>1990981342880&#45;&gt;1990981001456</title>
<path fill="none" stroke="black" d="M1072.52,-135C1080.51,-135 1088.78,-135 1096.56,-135"/>
<polygon fill="black" stroke="black" points="1096.39,-138.5 1106.39,-135 1096.39,-131.5 1096.39,-138.5"/>
</g>
<!-- 1990981007024 -->
<g id="node8" class="node">
<title>1990981007024</title>
<polygon fill="white" stroke="black" points="1071.88,-225 982.38,-225 982.38,-189 1071.88,-189 1071.88,-225"/>
<text text-anchor="middle" x="1027.12" y="-201.97" font-family="Times New Roman,serif" font-size="12.00">Handcraft Parts</text>
</g>
<!-- 1990981004096 -->
<g id="node29" class="node">
<title>1990981004096</title>
<ellipse fill="white" stroke="black" cx="1135.25" cy="-207" rx="27" ry="27"/>
</g>
<!-- 1990981007024&#45;&gt;1990981004096 -->
<g id="edge22" class="edge">
<title>1990981007024&#45;&gt;1990981004096</title>
<path fill="none" stroke="black" d="M1072.21,-207C1080.3,-207 1088.68,-207 1096.57,-207"/>
<polygon fill="black" stroke="black" points="1096.54,-210.5 1106.54,-207 1096.54,-203.5 1096.54,-210.5"/>
</g>
<!-- 1990981009376 -->
<g id="node9" class="node">
<title>1990981009376</title>
<polygon fill="white" stroke="black" points="1299,-225 1198.25,-225 1198.25,-189 1299,-189 1299,-225"/>
<text text-anchor="middle" x="1248.62" y="-201.97" font-family="Times New Roman,serif" font-size="12.00">Align Mechanism</text>
</g>
<!-- 1990971345184 -->
<g id="node32" class="node">
<title>1990971345184</title>
<ellipse fill="white" stroke="black" cx="1362" cy="-207" rx="27" ry="27"/>
</g>
<!-- 1990981009376&#45;&gt;1990971345184 -->
<g id="edge28" class="edge">
<title>1990981009376&#45;&gt;1990971345184</title>
<path fill="none" stroke="black" d="M1299.45,-207C1307.43,-207 1315.58,-207 1323.22,-207"/>
<polygon fill="black" stroke="black" points="1323.2,-210.5 1333.2,-207 1323.2,-203.5 1323.2,-210.5"/>
</g>
<!-- 1990971357328 -->
<g id="node10" class="node">
<title>1990971357328</title>
<polygon fill="white" stroke="black" points="1519,-225 1425,-225 1425,-189 1519,-189 1519,-225"/>
<text text-anchor="middle" x="1472" y="-201.97" font-family="Times New Roman,serif" font-size="12.00">Apply Lubricate</text>
</g>
<!-- 1990971348832 -->
<g id="node33" class="node">
<title>1990971348832</title>
<ellipse fill="white" stroke="black" cx="1582" cy="-207" rx="27" ry="27"/>
</g>
<!-- 1990971357328&#45;&gt;1990971348832 -->
<g id="edge30" class="edge">
<title>1990971357328&#45;&gt;1990971348832</title>
<path fill="none" stroke="black" d="M1519.43,-207C1527.31,-207 1535.41,-207 1543.03,-207"/>
<polygon fill="black" stroke="black" points="1543.02,-210.5 1553.02,-207 1543.02,-203.5 1543.02,-210.5"/>
</g>
<!-- 1990971357712 -->
<g id="node11" class="node">
<title>1990971357712</title>
<polygon fill="white" stroke="black" points="1735.25,-225 1645,-225 1645,-189 1735.25,-189 1735.25,-225"/>
<text text-anchor="middle" x="1690.12" y="-201.97" font-family="Times New Roman,serif" font-size="12.00">Final Assembly</text>
</g>
<!-- 1990971354400 -->
<g id="node34" class="node">
<title>1990971354400</title>
<ellipse fill="white" stroke="black" cx="1798.25" cy="-207" rx="27" ry="27"/>
</g>
<!-- 1990971357712&#45;&gt;1990971354400 -->
<g id="edge32" class="edge">
<title>1990971357712&#45;&gt;1990971354400</title>
<path fill="none" stroke="black" d="M1735.52,-207C1743.51,-207 1751.78,-207 1759.56,-207"/>
<polygon fill="black" stroke="black" points="1759.39,-210.5 1769.39,-207 1759.39,-203.5 1759.39,-210.5"/>
</g>
<!-- 1990971357280 -->
<g id="node12" class="node">
<title>1990971357280</title>
<polygon fill="white" stroke="black" points="1957.5,-225 1861.25,-225 1861.25,-189 1957.5,-189 1957.5,-225"/>
<text text-anchor="middle" x="1909.38" y="-201.97" font-family="Times New Roman,serif" font-size="12.00">Calibrate Timing</text>
</g>
<!-- 1990977356816 -->
<g id="node35" class="node">
<title>1990977356816</title>
<ellipse fill="white" stroke="black" cx="2020.5" cy="-171" rx="27" ry="27"/>
</g>
<!-- 1990971357280&#45;&gt;1990977356816 -->
<g id="edge34" class="edge">
<title>1990971357280&#45;&gt;1990977356816</title>
<path fill="none" stroke="black" d="M1957.92,-191.31C1966.53,-188.47 1975.37,-185.56 1983.58,-182.85"/>
<polygon fill="black" stroke="black" points="1984.45,-186.25 1992.85,-179.79 1982.26,-179.6 1984.45,-186.25"/>
</g>
<!-- 1990981524688 -->
<g id="node36" class="node">
<title>1990981524688</title>
<ellipse fill="white" stroke="black" cx="2020.5" cy="-243" rx="27" ry="27"/>
</g>
<!-- 1990971357280&#45;&gt;1990981524688 -->
<g id="edge35" class="edge">
<title>1990971357280&#45;&gt;1990981524688</title>
<path fill="none" stroke="black" d="M1957.92,-222.69C1966.53,-225.53 1975.37,-228.44 1983.58,-231.15"/>
<polygon fill="black" stroke="black" points="1982.26,-234.4 1992.85,-234.21 1984.45,-227.75 1982.26,-234.4"/>
</g>
<!-- 1990977365456 -->
<g id="node13" class="node">
<title>1990977365456</title>
<polygon fill="white" stroke="black" points="2165.88,-189 2090.62,-189 2090.62,-153 2165.88,-153 2165.88,-189"/>
<text text-anchor="middle" x="2128.25" y="-165.97" font-family="Times New Roman,serif" font-size="12.00">Restore Dial</text>
</g>
<!-- 1990980997952 -->
<g id="node38" class="node">
<title>1990980997952</title>
<ellipse fill="white" stroke="black" cx="2236" cy="-171" rx="27" ry="27"/>
</g>
<!-- 1990977365456&#45;&gt;1990980997952 -->
<g id="edge38" class="edge">
<title>1990977365456&#45;&gt;1990980997952</title>
<path fill="none" stroke="black" d="M2166.24,-171C2176.25,-171 2187.11,-171 2197.17,-171"/>
<polygon fill="black" stroke="black" points="2197.01,-174.5 2207.01,-171 2197.01,-167.5 2197.01,-174.5"/>
</g>
<!-- 1990981533040 -->
<g id="node14" class="node">
<title>1990981533040</title>
<polygon fill="white" stroke="black" points="2173,-261 2083.5,-261 2083.5,-225 2173,-225 2173,-261"/>
<text text-anchor="middle" x="2128.25" y="-237.97" font-family="Times New Roman,serif" font-size="12.00">Refinish Hands</text>
</g>
<!-- 1990981009040 -->
<g id="node37" class="node">
<title>1990981009040</title>
<ellipse fill="white" stroke="black" cx="2236" cy="-243" rx="27" ry="27"/>
</g>
<!-- 1990981533040&#45;&gt;1990981009040 -->
<g id="edge39" class="edge">
<title>1990981533040&#45;&gt;1990981009040</title>
<path fill="none" stroke="black" d="M2173.48,-243C2181.45,-243 2189.69,-243 2197.45,-243"/>
<polygon fill="black" stroke="black" points="2197.24,-246.5 2207.24,-243 2197.24,-239.5 2197.24,-246.5"/>
</g>
<!-- 1990981531552 -->
<g id="node15" class="node">
<title>1990981531552</title>
<polygon fill="white" stroke="black" points="2389.25,-225 2299,-225 2299,-189 2389.25,-189 2389.25,-225"/>
<text text-anchor="middle" x="2344.12" y="-201.97" font-family="Times New Roman,serif" font-size="12.00">Quality Control</text>
</g>
<!-- 1990981525696 -->
<g id="node39" class="node">
<title>1990981525696</title>
<ellipse fill="white" stroke="black" cx="2452.25" cy="-207" rx="27" ry="27"/>
</g>
<!-- 1990981531552&#45;&gt;1990981525696 -->
<g id="edge42" class="edge">
<title>1990981531552&#45;&gt;1990981525696</title>
<path fill="none" stroke="black" d="M2389.52,-207C2397.51,-207 2405.78,-207 2413.56,-207"/>
<polygon fill="black" stroke="black" points="2413.39,-210.5 2423.39,-207 2413.39,-203.5 2413.39,-210.5"/>
</g>
<!-- 1990981525648 -->
<g id="node16" class="node">
<title>1990981525648</title>
<polygon fill="white" stroke="black" points="2596.5,-225 2515.25,-225 2515.25,-189 2596.5,-189 2596.5,-225"/>
<text text-anchor="middle" x="2555.88" y="-201.97" font-family="Times New Roman,serif" font-size="12.00">Test Function</text>
</g>
<!-- 1990981532416 -->
<g id="node40" class="node">
<title>1990981532416</title>
<ellipse fill="white" stroke="black" cx="2659.5" cy="-207" rx="27" ry="27"/>
</g>
<!-- 1990981525648&#45;&gt;1990981532416 -->
<g id="edge44" class="edge">
<title>1990981525648&#45;&gt;1990981532416</title>
<path fill="none" stroke="black" d="M2596.75,-207C2604.65,-207 2612.92,-207 2620.75,-207"/>
<polygon fill="black" stroke="black" points="2620.67,-210.5 2630.67,-207 2620.67,-203.5 2620.67,-210.5"/>
</g>
<!-- 1990981526608 -->
<g id="node17" class="node">
<title>1990981526608</title>
<polygon fill="white" stroke="black" points="2826.25,-225 2722.5,-225 2722.5,-189 2826.25,-189 2826.25,-225"/>
<text text-anchor="middle" x="2774.38" y="-201.97" font-family="Times New Roman,serif" font-size="12.00">Document History</text>
</g>
<!-- 1990981347056 -->
<g id="node41" class="node">
<title>1990981347056</title>
<ellipse fill="white" stroke="black" cx="2893.25" cy="-207" rx="27" ry="27"/>
<ellipse fill="none" stroke="black" cx="2893.25" cy="-207" rx="31" ry="31"/>
<text text-anchor="start" x="2876.75" y="-191.6" font-family="Times New Roman,serif" font-size="32.00">■</text>
</g>
<!-- 1990981526608&#45;&gt;1990981347056 -->
<g id="edge46" class="edge">
<title>1990981526608&#45;&gt;1990981347056</title>
<path fill="none" stroke="black" d="M2826.64,-207C2834.62,-207 2842.79,-207 2850.52,-207"/>
<polygon fill="black" stroke="black" points="2850.35,-210.5 2860.35,-207 2850.35,-203.5 2850.35,-210.5"/>
</g>
<!-- 1990981351856 -->
<g id="node18" class="node">
<title>1990981351856</title>
<ellipse fill="white" stroke="black" cx="27" cy="-171" rx="27" ry="27"/>
<text text-anchor="start" x="9.75" y="-153.7" font-family="Times New Roman,serif" font-size="34.00">●</text>
</g>
<!-- 1990981351856&#45;&gt;1990981349120 -->
<g id="edge1" class="edge">
<title>1990981351856&#45;&gt;1990981349120</title>
<path fill="none" stroke="black" d="M54.24,-171C61.71,-171 70.1,-171 78.49,-171"/>
<polygon fill="black" stroke="black" points="78.33,-174.5 88.33,-171 78.33,-167.5 78.33,-174.5"/>
</g>
<!-- 1990981346048&#45;&gt;1990981341344 -->
<g id="edge3" class="edge">
<title>1990981346048&#45;&gt;1990981341344</title>
<path fill="none" stroke="black" d="M260.23,-171C267.51,-171 275.72,-171 284.09,-171"/>
<polygon fill="black" stroke="black" points="284.03,-174.5 294.03,-171 284.03,-167.5 284.03,-174.5"/>
</g>
<!-- 1990981344416&#45;&gt;1990981337408 -->
<g id="edge5" class="edge">
<title>1990981344416&#45;&gt;1990981337408</title>
<path fill="none" stroke="black" d="M487.71,-171C494.92,-171 503.07,-171 511.44,-171"/>
<polygon fill="black" stroke="black" points="511.42,-174.5 521.42,-171 511.42,-167.5 511.42,-174.5"/>
</g>
<!-- 1990981346960&#45;&gt;1990981348208 -->
<g id="edge8" class="edge">
<title>1990981346960&#45;&gt;1990981348208</title>
<path fill="none" stroke="black" d="M724.83,-243C733.23,-243 742.86,-243 752.51,-243"/>
<polygon fill="black" stroke="black" points="752.26,-246.5 762.26,-243 752.26,-239.5 752.26,-246.5"/>
</g>
<!-- 1990981343264&#45;&gt;1990981347680 -->
<g id="edge9" class="edge">
<title>1990981343264&#45;&gt;1990981347680</title>
<path fill="none" stroke="black" d="M723.45,-126.74C731.29,-124.14 740.3,-121.16 749.44,-118.14"/>
<polygon fill="black" stroke="black" points="750.34,-121.53 758.74,-115.06 748.14,-114.88 750.34,-121.53"/>
</g>
<!-- 1990980998048&#45;&gt;1990981342880 -->
<g id="edge17" class="edge">
<title>1990980998048&#45;&gt;1990981342880</title>
<path fill="none" stroke="black" d="M938.73,-46.06C955.83,-63.47 981.28,-89.36 1000.31,-108.73"/>
<polygon fill="black" stroke="black" points="997.72,-111.09 1007.23,-115.77 1002.72,-106.18 997.72,-111.09"/>
</g>
<!-- 1990981001408&#45;&gt;1990980996752 -->
<g id="edge20" class="edge">
<title>1990981001408&#45;&gt;1990980996752</title>
<path fill="none" stroke="black" d="M944.88,-251.44C953.07,-254.22 962.52,-257.43 972.02,-260.65"/>
<polygon fill="black" stroke="black" points="970.67,-263.88 981.26,-263.78 972.92,-257.25 970.67,-263.88"/>
</g>
<!-- 1990981003472&#45;&gt;1990980996752 -->
<g id="edge21" class="edge">
<title>1990981003472&#45;&gt;1990980996752</title>
<path fill="none" stroke="black" d="M938.73,-367.94C955.83,-350.53 981.28,-324.64 1000.31,-305.27"/>
<polygon fill="black" stroke="black" points="1002.72,-307.82 1007.23,-298.23 997.72,-302.91 1002.72,-307.82"/>
</g>
<!-- 1990980999392&#45;&gt;1990981007024 -->
<g id="edge19" class="edge">
<title>1990980999392&#45;&gt;1990981007024</title>
<path fill="none" stroke="black" d="M938.73,-118.06C955.83,-135.47 981.28,-161.36 1000.31,-180.73"/>
<polygon fill="black" stroke="black" points="997.72,-183.09 1007.23,-187.77 1002.72,-178.18 997.72,-183.09"/>
</g>
<!-- 1990981008608&#45;&gt;1990981342880 -->
<g id="edge16" class="edge">
<title>1990981008608&#45;&gt;1990981342880</title>
<path fill="none" stroke="black" d="M944.88,-162.56C952.81,-159.87 961.92,-156.78 971.1,-153.67"/>
<polygon fill="black" stroke="black" points="972.08,-157.03 980.42,-150.5 969.83,-150.4 972.08,-157.03"/>
</g>
<!-- 1990981000688&#45;&gt;1990981007024 -->
<g id="edge18" class="edge">
<title>1990981000688&#45;&gt;1990981007024</title>
<path fill="none" stroke="black" d="M938.73,-295.94C955.83,-278.53 981.28,-252.64 1000.31,-233.27"/>
<polygon fill="black" stroke="black" points="1002.72,-235.82 1007.23,-226.23 997.72,-230.91 1002.72,-235.82"/>
</g>
<!-- 1990981004096&#45;&gt;1990981009376 -->
<g id="edge26" class="edge">
<title>1990981004096&#45;&gt;1990981009376</title>
<path fill="none" stroke="black" d="M1162.64,-207C1169.9,-207 1178.08,-207 1186.42,-207"/>
<polygon fill="black" stroke="black" points="1186.32,-210.5 1196.32,-207 1186.32,-203.5 1186.32,-210.5"/>
</g>
<!-- 1990981002320&#45;&gt;1990981009376 -->
<g id="edge27" class="edge">
<title>1990981002320&#45;&gt;1990981009376</title>
<path fill="none" stroke="black" d="M1158.52,-264.6C1173.06,-255.2 1192.42,-242.69 1209.38,-231.72"/>
<polygon fill="black" stroke="black" points="1211.27,-234.67 1217.77,-226.3 1207.47,-228.79 1211.27,-234.67"/>
</g>
<!-- 1990981001456&#45;&gt;1990981009376 -->
<g id="edge25" class="edge">
<title>1990981001456&#45;&gt;1990981009376</title>
<path fill="none" stroke="black" d="M1158.52,-149.4C1173.06,-158.8 1192.42,-171.31 1209.38,-182.28"/>
<polygon fill="black" stroke="black" points="1207.47,-185.21 1217.77,-187.7 1211.27,-179.33 1207.47,-185.21"/>
</g>
<!-- 1990971345184&#45;&gt;1990971357328 -->
<g id="edge29" class="edge">
<title>1990971345184&#45;&gt;1990971357328</title>
<path fill="none" stroke="black" d="M1389.42,-207C1396.72,-207 1404.94,-207 1413.27,-207"/>
<polygon fill="black" stroke="black" points="1413.13,-210.5 1423.13,-207 1413.13,-203.5 1413.13,-210.5"/>
</g>
<!-- 1990971348832&#45;&gt;1990971357712 -->
<g id="edge31" class="edge">
<title>1990971348832&#45;&gt;1990971357712</title>
<path fill="none" stroke="black" d="M1609.23,-207C1616.58,-207 1624.85,-207 1633.22,-207"/>
<polygon fill="black" stroke="black" points="1633.09,-210.5 1643.09,-207 1633.09,-203.5 1633.09,-210.5"/>
</g>
<!-- 1990971354400&#45;&gt;1990971357280 -->
<g id="edge33" class="edge">
<title>1990971354400&#45;&gt;1990971357280</title>
<path fill="none" stroke="black" d="M1825.67,-207C1832.95,-207 1841.16,-207 1849.5,-207"/>
<polygon fill="black" stroke="black" points="1849.37,-210.5 1859.37,-207 1849.37,-203.5 1849.37,-210.5"/>
</g>
<!-- 1990977356816&#45;&gt;1990977365456 -->
<g id="edge36" class="edge">
<title>1990977356816&#45;&gt;1990977365456</title>
<path fill="none" stroke="black" d="M2047.91,-171C2057.35,-171 2068.3,-171 2078.99,-171"/>
<polygon fill="black" stroke="black" points="2078.9,-174.5 2088.9,-171 2078.9,-167.5 2078.9,-174.5"/>
</g>
<!-- 1990981524688&#45;&gt;1990981533040 -->
<g id="edge37" class="edge">
<title>1990981524688&#45;&gt;1990981533040</title>
<path fill="none" stroke="black" d="M2047.91,-243C2055.23,-243 2063.46,-243 2071.78,-243"/>
<polygon fill="black" stroke="black" points="2071.58,-246.5 2081.58,-243 2071.58,-239.5 2071.58,-246.5"/>
</g>
<!-- 1990981009040&#45;&gt;1990981531552 -->
<g id="edge40" class="edge">
<title>1990981009040&#45;&gt;1990981531552</title>
<path fill="none" stroke="black" d="M2261.88,-234.56C2269.81,-231.87 2278.92,-228.78 2288.1,-225.67"/>
<polygon fill="black" stroke="black" points="2289.08,-229.03 2297.42,-222.5 2286.83,-222.4 2289.08,-229.03"/>
</g>
<!-- 1990980997952&#45;&gt;1990981531552 -->
<g id="edge41" class="edge">
<title>1990980997952&#45;&gt;1990981531552</title>
<path fill="none" stroke="black" d="M2261.88,-179.44C2269.81,-182.13 2278.92,-185.22 2288.1,-188.33"/>
<polygon fill="black" stroke="black" points="2286.83,-191.6 2297.42,-191.5 2289.08,-184.97 2286.83,-191.6"/>
</g>
<!-- 1990981525696&#45;&gt;1990981525648 -->
<g id="edge43" class="edge">
<title>1990981525696&#45;&gt;1990981525648</title>
<path fill="none" stroke="black" d="M2479.69,-207C2486.96,-207 2495.11,-207 2503.28,-207"/>
<polygon fill="black" stroke="black" points="2503.26,-210.5 2513.26,-207 2503.26,-203.5 2503.26,-210.5"/>
</g>
<!-- 1990981532416&#45;&gt;1990981526608 -->
<g id="edge45" class="edge">
<title>1990981532416&#45;&gt;1990981526608</title>
<path fill="none" stroke="black" d="M2686.96,-207C2694.22,-207 2702.41,-207 2710.78,-207"/>
<polygon fill="black" stroke="black" points="2710.73,-210.5 2720.73,-207 2710.73,-203.5 2710.73,-210.5"/>
</g>
</g>
</svg>
