<?xml version="1.0" encoding="UTF-8" standalone="no"?>
<!DOCTYPE svg PUBLIC "-//W3C//DTD SVG 1.1//EN"
 "http://www.w3.org/Graphics/SVG/1.1/DTD/svg11.dtd">
<!-- Generated by graphviz version 11.0.0 (20240428.1522)
 -->
<!-- Title: imdf_net_1754052314.1027467 Pages: 1 -->
<svg width="3185pt" height="70pt"
 viewBox="0.00 0.00 3184.75 70.00" xmlns="http://www.w3.org/2000/svg" xmlns:xlink="http://www.w3.org/1999/xlink">
<g id="graph0" class="graph" transform="scale(1 1) rotate(0) translate(4 66)">
<title>imdf_net_1754052314.1027467</title>
<polygon fill="white" stroke="none" points="-4,4 -4,-66 3180.75,-66 3180.75,4 -4,4"/>
<!-- 1990976611552 -->
<g id="node1" class="node">
<title>1990976611552</title>
<polygon fill="white" stroke="black" points="169.75,-49 90,-49 90,-13 169.75,-13 169.75,-49"/>
<text text-anchor="middle" x="129.88" y="-25.98" font-family="Times New Roman,serif" font-size="12.00">Req Analysis</text>
</g>
<!-- 1990976606944 -->
<g id="node17" class="node">
<title>1990976606944</title>
<ellipse fill="white" stroke="black" cx="232.75" cy="-31" rx="27" ry="27"/>
</g>
<!-- 1990976611552&#45;&gt;1990976606944 -->
<g id="edge2" class="edge">
<title>1990976611552&#45;&gt;1990976606944</title>
<path fill="none" stroke="black" d="M170.16,-31C178.03,-31 186.27,-31 194.07,-31"/>
<polygon fill="black" stroke="black" points="193.97,-34.5 203.97,-31 193.97,-27.5 193.97,-34.5"/>
</g>
<!-- 1990976605216 -->
<g id="node2" class="node">
<title>1990976605216</title>
<polygon fill="white" stroke="black" points="376.25,-49 295.75,-49 295.75,-13 376.25,-13 376.25,-49"/>
<text text-anchor="middle" x="336" y="-25.98" font-family="Times New Roman,serif" font-size="12.00">Part Sourcing</text>
</g>
<!-- 1990976615584 -->
<g id="node18" class="node">
<title>1990976615584</title>
<ellipse fill="white" stroke="black" cx="439.25" cy="-31" rx="27" ry="27"/>
</g>
<!-- 1990976605216&#45;&gt;1990976615584 -->
<g id="edge4" class="edge">
<title>1990976605216&#45;&gt;1990976615584</title>
<path fill="none" stroke="black" d="M376.73,-31C384.6,-31 392.84,-31 400.64,-31"/>
<polygon fill="black" stroke="black" points="400.52,-34.5 410.52,-31 400.52,-27.5 400.52,-34.5"/>
</g>
<!-- 1990976610160 -->
<g id="node3" class="node">
<title>1990976610160</title>
<polygon fill="white" stroke="black" points="577.5,-49 502.25,-49 502.25,-13 577.5,-13 577.5,-49"/>
<text text-anchor="middle" x="539.88" y="-25.98" font-family="Times New Roman,serif" font-size="12.00">Frame Build</text>
</g>
<!-- 1990976237840 -->
<g id="node19" class="node">
<title>1990976237840</title>
<ellipse fill="white" stroke="black" cx="640.5" cy="-31" rx="27" ry="27"/>
</g>
<!-- 1990976610160&#45;&gt;1990976237840 -->
<g id="edge6" class="edge">
<title>1990976610160&#45;&gt;1990976237840</title>
<path fill="none" stroke="black" d="M577.88,-31C585.65,-31 593.85,-31 601.65,-31"/>
<polygon fill="black" stroke="black" points="601.55,-34.5 611.55,-31 601.55,-27.5 601.55,-34.5"/>
</g>
<!-- 1990977553136 -->
<g id="node4" class="node">
<title>1990977553136</title>
<polygon fill="white" stroke="black" points="782.5,-49 703.5,-49 703.5,-13 782.5,-13 782.5,-49"/>
<text text-anchor="middle" x="743" y="-25.98" font-family="Times New Roman,serif" font-size="12.00">Wiring Setup</text>
</g>
<!-- 1990969800800 -->
<g id="node20" class="node">
<title>1990969800800</title>
<ellipse fill="white" stroke="black" cx="845.5" cy="-31" rx="27" ry="27"/>
</g>
<!-- 1990977553136&#45;&gt;1990969800800 -->
<g id="edge8" class="edge">
<title>1990977553136&#45;&gt;1990969800800</title>
<path fill="none" stroke="black" d="M782.86,-31C790.71,-31 798.95,-31 806.76,-31"/>
<polygon fill="black" stroke="black" points="806.66,-34.5 816.66,-31 806.66,-27.5 806.66,-34.5"/>
</g>
<!-- 1990969796528 -->
<g id="node5" class="node">
<title>1990969796528</title>
<polygon fill="white" stroke="black" points="985.25,-49 908.5,-49 908.5,-13 985.25,-13 985.25,-49"/>
<text text-anchor="middle" x="946.88" y="-25.98" font-family="Times New Roman,serif" font-size="12.00">Motor Install</text>
</g>
<!-- 1990969788128 -->
<g id="node21" class="node">
<title>1990969788128</title>
<ellipse fill="white" stroke="black" cx="1048.25" cy="-31" rx="27" ry="27"/>
</g>
<!-- 1990969796528&#45;&gt;1990969788128 -->
<g id="edge10" class="edge">
<title>1990969796528&#45;&gt;1990969788128</title>
<path fill="none" stroke="black" d="M985.73,-31C993.52,-31 1001.73,-31 1009.52,-31"/>
<polygon fill="black" stroke="black" points="1009.4,-34.5 1019.4,-31 1009.4,-27.5 1009.4,-34.5"/>
</g>
<!-- 1990969796720 -->
<g id="node6" class="node">
<title>1990969796720</title>
<polygon fill="white" stroke="black" points="1185.75,-49 1111.25,-49 1111.25,-13 1185.75,-13 1185.75,-49"/>
<text text-anchor="middle" x="1148.5" y="-25.98" font-family="Times New Roman,serif" font-size="12.00">Propeller Fit</text>
</g>
<!-- 1990971858032 -->
<g id="node22" class="node">
<title>1990971858032</title>
<ellipse fill="white" stroke="black" cx="1248.75" cy="-31" rx="27" ry="27"/>
</g>
<!-- 1990969796720&#45;&gt;1990971858032 -->
<g id="edge12" class="edge">
<title>1990969796720&#45;&gt;1990971858032</title>
<path fill="none" stroke="black" d="M1186.08,-31C1193.84,-31 1202.04,-31 1209.84,-31"/>
<polygon fill="black" stroke="black" points="1209.75,-34.5 1219.75,-31 1209.75,-27.5 1209.75,-34.5"/>
</g>
<!-- 1990975752000 -->
<g id="node7" class="node">
<title>1990975752000</title>
<polygon fill="white" stroke="black" points="1385.5,-49 1311.75,-49 1311.75,-13 1385.5,-13 1385.5,-49"/>
<text text-anchor="middle" x="1348.62" y="-25.98" font-family="Times New Roman,serif" font-size="12.00">Battery Test</text>
</g>
<!-- 1990975753776 -->
<g id="node23" class="node">
<title>1990975753776</title>
<ellipse fill="white" stroke="black" cx="1448.5" cy="-31" rx="27" ry="27"/>
</g>
<!-- 1990975752000&#45;&gt;1990975753776 -->
<g id="edge14" class="edge">
<title>1990975752000&#45;&gt;1990975753776</title>
<path fill="none" stroke="black" d="M1385.79,-31C1393.69,-31 1402.08,-31 1410.03,-31"/>
<polygon fill="black" stroke="black" points="1409.75,-34.5 1419.75,-31 1409.75,-27.5 1409.75,-34.5"/>
</g>
<!-- 1990975754496 -->
<g id="node8" class="node">
<title>1990975754496</title>
<polygon fill="white" stroke="black" points="1601.75,-49 1511.5,-49 1511.5,-13 1601.75,-13 1601.75,-49"/>
<text text-anchor="middle" x="1556.62" y="-25.98" font-family="Times New Roman,serif" font-size="12.00">Firmware Flash</text>
</g>
<!-- 1990975765536 -->
<g id="node24" class="node">
<title>1990975765536</title>
<ellipse fill="white" stroke="black" cx="1664.75" cy="-31" rx="27" ry="27"/>
</g>
<!-- 1990975754496&#45;&gt;1990975765536 -->
<g id="edge16" class="edge">
<title>1990975754496&#45;&gt;1990975765536</title>
<path fill="none" stroke="black" d="M1602.02,-31C1610.01,-31 1618.28,-31 1626.06,-31"/>
<polygon fill="black" stroke="black" points="1625.89,-34.5 1635.89,-31 1625.89,-27.5 1625.89,-34.5"/>
</g>
<!-- 1990975752528 -->
<g id="node9" class="node">
<title>1990975752528</title>
<polygon fill="white" stroke="black" points="1821.75,-49 1727.75,-49 1727.75,-13 1821.75,-13 1821.75,-49"/>
<text text-anchor="middle" x="1774.75" y="-25.98" font-family="Times New Roman,serif" font-size="12.00">Sensor Calibrate</text>
</g>
<!-- 1990975751904 -->
<g id="node25" class="node">
<title>1990975751904</title>
<ellipse fill="white" stroke="black" cx="1884.75" cy="-31" rx="27" ry="27"/>
</g>
<!-- 1990975752528&#45;&gt;1990975751904 -->
<g id="edge18" class="edge">
<title>1990975752528&#45;&gt;1990975751904</title>
<path fill="none" stroke="black" d="M1822.18,-31C1830.06,-31 1838.16,-31 1845.78,-31"/>
<polygon fill="black" stroke="black" points="1845.77,-34.5 1855.77,-31 1845.77,-27.5 1845.77,-34.5"/>
</g>
<!-- 1990975756032 -->
<g id="node10" class="node">
<title>1990975756032</title>
<polygon fill="white" stroke="black" points="2025.25,-49 1947.75,-49 1947.75,-13 2025.25,-13 2025.25,-49"/>
<text text-anchor="middle" x="1986.5" y="-25.98" font-family="Times New Roman,serif" font-size="12.00">Flight Check</text>
</g>
<!-- 1990975760736 -->
<g id="node26" class="node">
<title>1990975760736</title>
<ellipse fill="white" stroke="black" cx="2088.25" cy="-31" rx="27" ry="27"/>
</g>
<!-- 1990975756032&#45;&gt;1990975760736 -->
<g id="edge20" class="edge">
<title>1990975756032&#45;&gt;1990975760736</title>
<path fill="none" stroke="black" d="M2025.5,-31C2033.32,-31 2041.56,-31 2049.38,-31"/>
<polygon fill="black" stroke="black" points="2049.3,-34.5 2059.3,-31 2049.3,-27.5 2049.3,-34.5"/>
</g>
<!-- 1990975766496 -->
<g id="node11" class="node">
<title>1990975766496</title>
<polygon fill="white" stroke="black" points="2232.5,-49 2151.25,-49 2151.25,-13 2232.5,-13 2232.5,-49"/>
<text text-anchor="middle" x="2191.88" y="-25.98" font-family="Times New Roman,serif" font-size="12.00">Quality Audit</text>
</g>
<!-- 1990975755648 -->
<g id="node27" class="node">
<title>1990975755648</title>
<ellipse fill="white" stroke="black" cx="2295.5" cy="-31" rx="27" ry="27"/>
</g>
<!-- 1990975766496&#45;&gt;1990975755648 -->
<g id="edge22" class="edge">
<title>1990975766496&#45;&gt;1990975755648</title>
<path fill="none" stroke="black" d="M2232.75,-31C2240.65,-31 2248.92,-31 2256.75,-31"/>
<polygon fill="black" stroke="black" points="2256.67,-34.5 2266.67,-31 2256.67,-27.5 2256.67,-34.5"/>
</g>
<!-- 1990975755552 -->
<g id="node12" class="node">
<title>1990975755552</title>
<polygon fill="white" stroke="black" points="2439,-49 2358.5,-49 2358.5,-13 2439,-13 2439,-49"/>
<text text-anchor="middle" x="2398.75" y="-25.98" font-family="Times New Roman,serif" font-size="12.00">Package Prep</text>
</g>
<!-- 1990975764384 -->
<g id="node28" class="node">
<title>1990975764384</title>
<ellipse fill="white" stroke="black" cx="2502" cy="-31" rx="27" ry="27"/>
</g>
<!-- 1990975755552&#45;&gt;1990975764384 -->
<g id="edge24" class="edge">
<title>1990975755552&#45;&gt;1990975764384</title>
<path fill="none" stroke="black" d="M2439.48,-31C2447.35,-31 2455.59,-31 2463.39,-31"/>
<polygon fill="black" stroke="black" points="2463.27,-34.5 2473.27,-31 2463.27,-27.5 2463.27,-34.5"/>
</g>
<!-- 1990975750368 -->
<g id="node13" class="node">
<title>1990975750368</title>
<polygon fill="white" stroke="black" points="2653,-49 2565,-49 2565,-13 2653,-13 2653,-49"/>
<text text-anchor="middle" x="2609" y="-25.98" font-family="Times New Roman,serif" font-size="12.00">Client Training</text>
</g>
<!-- 1990975759488 -->
<g id="node29" class="node">
<title>1990975759488</title>
<ellipse fill="white" stroke="black" cx="2716" cy="-31" rx="27" ry="27"/>
</g>
<!-- 1990975750368&#45;&gt;1990975759488 -->
<g id="edge26" class="edge">
<title>1990975750368&#45;&gt;1990975759488</title>
<path fill="none" stroke="black" d="M2653.31,-31C2661.27,-31 2669.51,-31 2677.28,-31"/>
<polygon fill="black" stroke="black" points="2677.1,-34.5 2687.1,-31 2677.1,-27.5 2677.1,-34.5"/>
</g>
<!-- 1990975762704 -->
<g id="node14" class="node">
<title>1990975762704</title>
<polygon fill="white" stroke="black" points="2862.5,-49 2779,-49 2779,-13 2862.5,-13 2862.5,-49"/>
<text text-anchor="middle" x="2820.75" y="-25.98" font-family="Times New Roman,serif" font-size="12.00">Support Setup</text>
</g>
<!-- 1990975758576 -->
<g id="node30" class="node">
<title>1990975758576</title>
<ellipse fill="white" stroke="black" cx="2925.5" cy="-31" rx="27" ry="27"/>
</g>
<!-- 1990975762704&#45;&gt;1990975758576 -->
<g id="edge28" class="edge">
<title>1990975762704&#45;&gt;1990975758576</title>
<path fill="none" stroke="black" d="M2862.95,-31C2870.81,-31 2879,-31 2886.75,-31"/>
<polygon fill="black" stroke="black" points="2886.55,-34.5 2896.55,-31 2886.55,-27.5 2886.55,-34.5"/>
</g>
<!-- 1990975756272 -->
<g id="node15" class="node">
<title>1990975756272</title>
<polygon fill="white" stroke="black" points="3078.75,-49 2988.5,-49 2988.5,-13 3078.75,-13 3078.75,-49"/>
<text text-anchor="middle" x="3033.62" y="-25.98" font-family="Times New Roman,serif" font-size="12.00">Delivery Coord</text>
</g>
<!-- 1990979656336 -->
<g id="node31" class="node">
<title>1990979656336</title>
<ellipse fill="white" stroke="black" cx="3145.75" cy="-31" rx="27" ry="27"/>
<ellipse fill="none" stroke="black" cx="3145.75" cy="-31" rx="31" ry="31"/>
<text text-anchor="start" x="3129.25" y="-15.6" font-family="Times New Roman,serif" font-size="32.00">■</text>
</g>
<!-- 1990975756272&#45;&gt;1990979656336 -->
<g id="edge30" class="edge">
<title>1990975756272&#45;&gt;1990979656336</title>
<path fill="none" stroke="black" d="M3079.1,-31C3086.95,-31 3095.1,-31 3102.87,-31"/>
<polygon fill="black" stroke="black" points="3102.78,-34.5 3112.78,-31 3102.78,-27.5 3102.78,-34.5"/>
</g>
<!-- 1990979657968 -->
<g id="node16" class="node">
<title>1990979657968</title>
<ellipse fill="white" stroke="black" cx="27" cy="-31" rx="27" ry="27"/>
<text text-anchor="start" x="9.75" y="-13.7" font-family="Times New Roman,serif" font-size="34.00">●</text>
</g>
<!-- 1990979657968&#45;&gt;1990976611552 -->
<g id="edge1" class="edge">
<title>1990979657968&#45;&gt;1990976611552</title>
<path fill="none" stroke="black" d="M54.24,-31C61.71,-31 70.1,-31 78.49,-31"/>
<polygon fill="black" stroke="black" points="78.33,-34.5 88.33,-31 78.33,-27.5 78.33,-34.5"/>
</g>
<!-- 1990976606944&#45;&gt;1990976605216 -->
<g id="edge3" class="edge">
<title>1990976606944&#45;&gt;1990976605216</title>
<path fill="none" stroke="black" d="M260.09,-31C267.5,-31 275.82,-31 284.15,-31"/>
<polygon fill="black" stroke="black" points="283.92,-34.5 293.92,-31 283.92,-27.5 283.92,-34.5"/>
</g>
<!-- 1990976615584&#45;&gt;1990976610160 -->
<g id="edge5" class="edge">
<title>1990976615584&#45;&gt;1990976610160</title>
<path fill="none" stroke="black" d="M466.68,-31C474.05,-31 482.29,-31 490.5,-31"/>
<polygon fill="black" stroke="black" points="490.48,-34.5 500.48,-31 490.48,-27.5 490.48,-34.5"/>
</g>
<!-- 1990976237840&#45;&gt;1990977553136 -->
<g id="edge7" class="edge">
<title>1990976237840&#45;&gt;1990977553136</title>
<path fill="none" stroke="black" d="M667.91,-31C675.34,-31 683.69,-31 692.02,-31"/>
<polygon fill="black" stroke="black" points="691.78,-34.5 701.78,-31 691.78,-27.5 691.78,-34.5"/>
</g>
<!-- 1990969800800&#45;&gt;1990969796528 -->
<g id="edge9" class="edge">
<title>1990969800800&#45;&gt;1990969796528</title>
<path fill="none" stroke="black" d="M872.87,-31C880.22,-31 888.44,-31 896.65,-31"/>
<polygon fill="black" stroke="black" points="896.64,-34.5 906.64,-31 896.64,-27.5 896.64,-34.5"/>
</g>
<!-- 1990969788128&#45;&gt;1990969796720 -->
<g id="edge11" class="edge">
<title>1990969788128&#45;&gt;1990969796720</title>
<path fill="none" stroke="black" d="M1075.58,-31C1082.92,-31 1091.13,-31 1099.31,-31"/>
<polygon fill="black" stroke="black" points="1099.24,-34.5 1109.24,-31 1099.24,-27.5 1099.24,-34.5"/>
</g>
<!-- 1990971858032&#45;&gt;1990975752000 -->
<g id="edge13" class="edge">
<title>1990971858032&#45;&gt;1990975752000</title>
<path fill="none" stroke="black" d="M1276.24,-31C1283.62,-31 1291.88,-31 1300.09,-31"/>
<polygon fill="black" stroke="black" points="1300.05,-34.5 1310.05,-31 1300.05,-27.5 1300.05,-34.5"/>
</g>
<!-- 1990975753776&#45;&gt;1990975754496 -->
<g id="edge15" class="edge">
<title>1990975753776&#45;&gt;1990975754496</title>
<path fill="none" stroke="black" d="M1475.73,-31C1483.08,-31 1491.35,-31 1499.72,-31"/>
<polygon fill="black" stroke="black" points="1499.59,-34.5 1509.59,-31 1499.59,-27.5 1499.59,-34.5"/>
</g>
<!-- 1990975765536&#45;&gt;1990975752528 -->
<g id="edge17" class="edge">
<title>1990975765536&#45;&gt;1990975752528</title>
<path fill="none" stroke="black" d="M1692.17,-31C1699.47,-31 1707.69,-31 1716.02,-31"/>
<polygon fill="black" stroke="black" points="1715.88,-34.5 1725.88,-31 1715.88,-27.5 1715.88,-34.5"/>
</g>
<!-- 1990975751904&#45;&gt;1990975756032 -->
<g id="edge19" class="edge">
<title>1990975751904&#45;&gt;1990975756032</title>
<path fill="none" stroke="black" d="M1912.22,-31C1919.52,-31 1927.68,-31 1935.83,-31"/>
<polygon fill="black" stroke="black" points="1935.75,-34.5 1945.75,-31 1935.75,-27.5 1935.75,-34.5"/>
</g>
<!-- 1990975760736&#45;&gt;1990975766496 -->
<g id="edge21" class="edge">
<title>1990975760736&#45;&gt;1990975766496</title>
<path fill="none" stroke="black" d="M2115.69,-31C2122.96,-31 2131.11,-31 2139.28,-31"/>
<polygon fill="black" stroke="black" points="2139.26,-34.5 2149.26,-31 2139.26,-27.5 2139.26,-34.5"/>
</g>
<!-- 1990975755648&#45;&gt;1990975755552 -->
<g id="edge23" class="edge">
<title>1990975755648&#45;&gt;1990975755552</title>
<path fill="none" stroke="black" d="M2322.84,-31C2330.25,-31 2338.57,-31 2346.9,-31"/>
<polygon fill="black" stroke="black" points="2346.67,-34.5 2356.67,-31 2346.67,-27.5 2346.67,-34.5"/>
</g>
<!-- 1990975764384&#45;&gt;1990975750368 -->
<g id="edge25" class="edge">
<title>1990975764384&#45;&gt;1990975750368</title>
<path fill="none" stroke="black" d="M2529.5,-31C2536.85,-31 2545.11,-31 2553.44,-31"/>
<polygon fill="black" stroke="black" points="2553.25,-34.5 2563.25,-31 2553.25,-27.5 2553.25,-34.5"/>
</g>
<!-- 1990975759488&#45;&gt;1990975762704 -->
<g id="edge27" class="edge">
<title>1990975759488&#45;&gt;1990975762704</title>
<path fill="none" stroke="black" d="M2743.46,-31C2750.82,-31 2759.08,-31 2767.37,-31"/>
<polygon fill="black" stroke="black" points="2767.11,-34.5 2777.11,-31 2767.11,-27.5 2767.11,-34.5"/>
</g>
<!-- 1990975758576&#45;&gt;1990975756272 -->
<g id="edge29" class="edge">
<title>1990975758576&#45;&gt;1990975756272</title>
<path fill="none" stroke="black" d="M2952.73,-31C2960.08,-31 2968.35,-31 2976.72,-31"/>
<polygon fill="black" stroke="black" points="2976.59,-34.5 2986.59,-31 2976.59,-27.5 2976.59,-34.5"/>
</g>
</g>
</svg>
