<?xml version="1.0" encoding="UTF-8" standalone="no"?>
<!DOCTYPE svg PUBLIC "-//W3C//DTD SVG 1.1//EN"
 "http://www.w3.org/Graphics/SVG/1.1/DTD/svg11.dtd">
<!-- Generated by graphviz version 11.0.0 (20240428.1522)
 -->
<!-- Title: imdf_net_1754052334.2355766 Pages: 1 -->
<svg width="3324pt" height="166pt"
 viewBox="0.00 0.00 3324.25 166.00" xmlns="http://www.w3.org/2000/svg" xmlns:xlink="http://www.w3.org/1999/xlink">
<g id="graph0" class="graph" transform="scale(1 1) rotate(0) translate(4 162)">
<title>imdf_net_1754052334.2355766</title>
<polygon fill="white" stroke="none" points="-4,4 -4,-162 3320.25,-162 3320.25,4 -4,4"/>
<!-- 1990978482544 -->
<g id="node1" class="node">
<title>1990978482544</title>
<polygon fill="white" stroke="black" points="185.5,-149 90,-149 90,-113 185.5,-113 185.5,-149"/>
<text text-anchor="middle" x="137.75" y="-125.97" font-family="Times New Roman,serif" font-size="12.00">Startup Sourcing</text>
</g>
<!-- 1990978472224 -->
<g id="node19" class="node">
<title>1990978472224</title>
<ellipse fill="white" stroke="black" cx="248.5" cy="-131" rx="27" ry="27"/>
</g>
<!-- 1990978482544&#45;&gt;1990978472224 -->
<g id="edge2" class="edge">
<title>1990978482544&#45;&gt;1990978472224</title>
<path fill="none" stroke="black" d="M185.82,-131C193.82,-131 202.04,-131 209.77,-131"/>
<polygon fill="black" stroke="black" points="209.5,-134.5 219.5,-131 209.5,-127.5 209.5,-134.5"/>
</g>
<!-- 1990978477168 -->
<g id="node2" class="node">
<title>1990978477168</title>
<polygon fill="white" stroke="black" points="405.5,-149 311.5,-149 311.5,-113 405.5,-113 405.5,-149"/>
<text text-anchor="middle" x="358.5" y="-125.97" font-family="Times New Roman,serif" font-size="12.00">Market Analysis</text>
</g>
<!-- 1990978477504 -->
<g id="node20" class="node">
<title>1990978477504</title>
<ellipse fill="white" stroke="black" cx="468.5" cy="-131" rx="27" ry="27"/>
</g>
<!-- 1990978477168&#45;&gt;1990978477504 -->
<g id="edge4" class="edge">
<title>1990978477168&#45;&gt;1990978477504</title>
<path fill="none" stroke="black" d="M405.93,-131C413.81,-131 421.91,-131 429.53,-131"/>
<polygon fill="black" stroke="black" points="429.52,-134.5 439.52,-131 429.52,-127.5 429.52,-134.5"/>
</g>
<!-- 1990978482256 -->
<g id="node3" class="node">
<title>1990978482256</title>
<polygon fill="white" stroke="black" points="618.75,-149 531.5,-149 531.5,-113 618.75,-113 618.75,-149"/>
<text text-anchor="middle" x="575.12" y="-125.97" font-family="Times New Roman,serif" font-size="12.00">Trend Forecast</text>
</g>
<!-- 1990978475440 -->
<g id="node21" class="node">
<title>1990978475440</title>
<ellipse fill="white" stroke="black" cx="681.75" cy="-131" rx="27" ry="27"/>
</g>
<!-- 1990978482256&#45;&gt;1990978475440 -->
<g id="edge6" class="edge">
<title>1990978482256&#45;&gt;1990978475440</title>
<path fill="none" stroke="black" d="M618.98,-131C626.93,-131 635.17,-131 642.95,-131"/>
<polygon fill="black" stroke="black" points="642.79,-134.5 652.79,-131 642.79,-127.5 642.79,-134.5"/>
</g>
<!-- 1990978471648 -->
<g id="node4" class="node">
<title>1990978471648</title>
<polygon fill="white" stroke="black" points="843.25,-149 744.75,-149 744.75,-113 843.25,-113 843.25,-149"/>
<text text-anchor="middle" x="794" y="-125.97" font-family="Times New Roman,serif" font-size="12.00">Community Vote</text>
</g>
<!-- 1990978481104 -->
<g id="node22" class="node">
<title>1990978481104</title>
<ellipse fill="white" stroke="black" cx="906.25" cy="-131" rx="27" ry="27"/>
</g>
<!-- 1990978471648&#45;&gt;1990978481104 -->
<g id="edge8" class="edge">
<title>1990978471648&#45;&gt;1990978481104</title>
<path fill="none" stroke="black" d="M843.68,-131C851.63,-131 859.76,-131 867.4,-131"/>
<polygon fill="black" stroke="black" points="867.39,-134.5 877.39,-131 867.39,-127.5 867.39,-134.5"/>
</g>
<!-- 1990978479040 -->
<g id="node5" class="node">
<title>1990978479040</title>
<polygon fill="white" stroke="black" points="1056.5,-149 969.25,-149 969.25,-113 1056.5,-113 1056.5,-149"/>
<text text-anchor="middle" x="1012.88" y="-125.97" font-family="Times New Roman,serif" font-size="12.00">Expert Review</text>
</g>
<!-- 1990978484992 -->
<g id="node23" class="node">
<title>1990978484992</title>
<ellipse fill="white" stroke="black" cx="1119.5" cy="-131" rx="27" ry="27"/>
</g>
<!-- 1990978479040&#45;&gt;1990978484992 -->
<g id="edge10" class="edge">
<title>1990978479040&#45;&gt;1990978484992</title>
<path fill="none" stroke="black" d="M1056.73,-131C1064.68,-131 1072.92,-131 1080.7,-131"/>
<polygon fill="black" stroke="black" points="1080.54,-134.5 1090.54,-131 1080.54,-127.5 1080.54,-134.5"/>
</g>
<!-- 1990978477936 -->
<g id="node6" class="node">
<title>1990978477936</title>
<polygon fill="white" stroke="black" points="1259.25,-149 1182.5,-149 1182.5,-113 1259.25,-113 1259.25,-149"/>
<text text-anchor="middle" x="1220.88" y="-125.97" font-family="Times New Roman,serif" font-size="12.00">Legal Check</text>
</g>
<!-- 1990978471120 -->
<g id="node24" class="node">
<title>1990978471120</title>
<ellipse fill="white" stroke="black" cx="1322.25" cy="-131" rx="27" ry="27"/>
</g>
<!-- 1990978477936&#45;&gt;1990978471120 -->
<g id="edge12" class="edge">
<title>1990978477936&#45;&gt;1990978471120</title>
<path fill="none" stroke="black" d="M1259.73,-131C1267.52,-131 1275.73,-131 1283.52,-131"/>
<polygon fill="black" stroke="black" points="1283.4,-134.5 1293.4,-131 1283.4,-127.5 1283.4,-134.5"/>
</g>
<!-- 1990978474864 -->
<g id="node7" class="node">
<title>1990978474864</title>
<polygon fill="white" stroke="black" points="1470.25,-149 1385.25,-149 1385.25,-113 1470.25,-113 1470.25,-149"/>
<text text-anchor="middle" x="1427.75" y="-125.97" font-family="Times New Roman,serif" font-size="12.00">IP Assessment</text>
</g>
<!-- 1990978481920 -->
<g id="node25" class="node">
<title>1990978481920</title>
<ellipse fill="white" stroke="black" cx="1533.25" cy="-131" rx="27" ry="27"/>
</g>
<!-- 1990978474864&#45;&gt;1990978481920 -->
<g id="edge14" class="edge">
<title>1990978474864&#45;&gt;1990978481920</title>
<path fill="none" stroke="black" d="M1470.55,-131C1478.45,-131 1486.67,-131 1494.43,-131"/>
<polygon fill="black" stroke="black" points="1494.26,-134.5 1504.26,-131 1494.26,-127.5 1494.26,-134.5"/>
</g>
<!-- 1990978477264 -->
<g id="node8" class="node">
<title>1990978477264</title>
<polygon fill="white" stroke="black" points="1673.75,-149 1596.25,-149 1596.25,-113 1673.75,-113 1673.75,-149"/>
<text text-anchor="middle" x="1635" y="-125.97" font-family="Times New Roman,serif" font-size="12.00">Risk Review</text>
</g>
<!-- 1990978478992 -->
<g id="node26" class="node">
<title>1990978478992</title>
<ellipse fill="white" stroke="black" cx="1736.75" cy="-131" rx="27" ry="27"/>
</g>
<!-- 1990978477264&#45;&gt;1990978478992 -->
<g id="edge16" class="edge">
<title>1990978477264&#45;&gt;1990978478992</title>
<path fill="none" stroke="black" d="M1674,-131C1681.82,-131 1690.06,-131 1697.88,-131"/>
<polygon fill="black" stroke="black" points="1697.8,-134.5 1707.8,-131 1697.8,-127.5 1697.8,-134.5"/>
</g>
<!-- 1990978399904 -->
<g id="node9" class="node">
<title>1990978399904</title>
<polygon fill="white" stroke="black" points="1908,-149 1799.75,-149 1799.75,-113 1908,-113 1908,-149"/>
<text text-anchor="middle" x="1853.88" y="-125.97" font-family="Times New Roman,serif" font-size="12.00">Funding Allocation</text>
</g>
<!-- 1990978390448 -->
<g id="node27" class="node">
<title>1990978390448</title>
<ellipse fill="white" stroke="black" cx="1971" cy="-131" rx="27" ry="27"/>
</g>
<!-- 1990978399904&#45;&gt;1990978390448 -->
<g id="edge18" class="edge">
<title>1990978399904&#45;&gt;1990978390448</title>
<path fill="none" stroke="black" d="M1908.39,-131C1916.41,-131 1924.53,-131 1932.13,-131"/>
<polygon fill="black" stroke="black" points="1932.04,-134.5 1942.04,-131 1932.04,-127.5 1932.04,-134.5"/>
</g>
<!-- 1990977213248 -->
<g id="node10" class="node">
<title>1990977213248</title>
<polygon fill="white" stroke="black" points="2130.25,-149 2034,-149 2034,-113 2130.25,-113 2130.25,-149"/>
<text text-anchor="middle" x="2082.12" y="-125.97" font-family="Times New Roman,serif" font-size="12.00">Contract Signing</text>
</g>
<!-- 1990977224240 -->
<g id="node28" class="node">
<title>1990977224240</title>
<ellipse fill="white" stroke="black" cx="2193.25" cy="-131" rx="27" ry="27"/>
</g>
<!-- 1990977213248&#45;&gt;1990977224240 -->
<g id="edge20" class="edge">
<title>1990977213248&#45;&gt;1990977224240</title>
<path fill="none" stroke="black" d="M2130.67,-131C2138.59,-131 2146.7,-131 2154.34,-131"/>
<polygon fill="black" stroke="black" points="2154.33,-134.5 2164.33,-131 2154.33,-127.5 2154.33,-134.5"/>
</g>
<!-- 1990977213344 -->
<g id="node11" class="node">
<title>1990977213344</title>
<polygon fill="white" stroke="black" points="2355.5,-149 2256.25,-149 2256.25,-113 2355.5,-113 2355.5,-149"/>
<text text-anchor="middle" x="2305.88" y="-125.97" font-family="Times New Roman,serif" font-size="12.00">Micro Investment</text>
</g>
<!-- 1990977209744 -->
<g id="node29" class="node">
<title>1990977209744</title>
<ellipse fill="white" stroke="black" cx="2418.5" cy="-131" rx="27" ry="27"/>
</g>
<!-- 1990977213344&#45;&gt;1990977209744 -->
<g id="edge22" class="edge">
<title>1990977213344&#45;&gt;1990977209744</title>
<path fill="none" stroke="black" d="M2355.72,-131C2363.79,-131 2372.05,-131 2379.79,-131"/>
<polygon fill="black" stroke="black" points="2379.55,-134.5 2389.55,-131 2379.55,-127.5 2379.55,-134.5"/>
</g>
<!-- 1990977221936 -->
<g id="node12" class="node">
<title>1990977221936</title>
<polygon fill="white" stroke="black" points="2564.25,-126 2481.5,-126 2481.5,-90 2564.25,-90 2564.25,-126"/>
<text text-anchor="middle" x="2522.88" y="-102.97" font-family="Times New Roman,serif" font-size="12.00">Strategy Pivot</text>
</g>
<!-- 1990977210704 -->
<g id="node30" class="node">
<title>1990977210704</title>
<ellipse fill="white" stroke="black" cx="2627.25" cy="-103" rx="27" ry="27"/>
</g>
<!-- 1990977221936&#45;&gt;1990977210704 -->
<g id="edge24" class="edge">
<title>1990977221936&#45;&gt;1990977210704</title>
<path fill="none" stroke="black" d="M2564.63,-106.01C2572.55,-105.62 2580.83,-105.22 2588.64,-104.84"/>
<polygon fill="black" stroke="black" points="2588.72,-108.34 2598.54,-104.35 2588.38,-101.35 2588.72,-108.34"/>
</g>
<!-- 1990979793984 -->
<g id="node13" class="node">
<title>1990979793984</title>
<polygon fill="white" stroke="black" points="2782,-121 2690.25,-121 2690.25,-85 2782,-85 2782,-121"/>
<text text-anchor="middle" x="2736.12" y="-97.97" font-family="Times New Roman,serif" font-size="12.00">Progress Report</text>
</g>
<!-- 1990977217904 -->
<g id="node31" class="node">
<title>1990977217904</title>
<ellipse fill="white" stroke="black" cx="2845" cy="-103" rx="27" ry="27"/>
</g>
<!-- 1990979793984&#45;&gt;1990977217904 -->
<g id="edge26" class="edge">
<title>1990979793984&#45;&gt;1990977217904</title>
<path fill="none" stroke="black" d="M2782.45,-103C2790.46,-103 2798.72,-103 2806.48,-103"/>
<polygon fill="black" stroke="black" points="2806.28,-106.5 2816.28,-103 2806.28,-99.5 2806.28,-106.5"/>
</g>
<!-- 1990981662336 -->
<g id="node14" class="node">
<title>1990981662336</title>
<polygon fill="white" stroke="black" points="2999.75,-58 2908,-58 2908,-22 2999.75,-22 2999.75,-58"/>
<text text-anchor="middle" x="2953.88" y="-34.98" font-family="Times New Roman,serif" font-size="12.00">Impact Measure</text>
</g>
<!-- 1990981654656 -->
<g id="node32" class="node">
<title>1990981654656</title>
<ellipse fill="white" stroke="black" cx="3062.75" cy="-31" rx="27" ry="27"/>
</g>
<!-- 1990981662336&#45;&gt;1990981654656 -->
<g id="edge29" class="edge">
<title>1990981662336&#45;&gt;1990981654656</title>
<path fill="none" stroke="black" d="M3000.2,-36.18C3008.21,-35.51 3016.47,-34.81 3024.23,-34.16"/>
<polygon fill="black" stroke="black" points="3024.36,-37.66 3034.03,-33.33 3023.77,-30.69 3024.36,-37.66"/>
</g>
<!-- 1990981651008 -->
<g id="node15" class="node">
<title>1990981651008</title>
<polygon fill="white" stroke="black" points="2995.25,-121 2912.5,-121 2912.5,-85 2995.25,-85 2995.25,-121"/>
<text text-anchor="middle" x="2953.88" y="-97.97" font-family="Times New Roman,serif" font-size="12.00">Strategy Pivot</text>
</g>
<!-- 1990981659168 -->
<g id="node33" class="node">
<title>1990981659168</title>
<ellipse fill="white" stroke="black" cx="3062.75" cy="-103" rx="27" ry="27"/>
</g>
<!-- 1990981651008&#45;&gt;1990981659168 -->
<g id="edge30" class="edge">
<title>1990981651008&#45;&gt;1990981659168</title>
<path fill="none" stroke="black" d="M2995.58,-103C3004.96,-103 3014.89,-103 3024.12,-103"/>
<polygon fill="black" stroke="black" points="3023.84,-106.5 3033.84,-103 3023.84,-99.5 3023.84,-106.5"/>
</g>
<!-- 1990981655952 -->
<g id="node16" class="node">
<title>1990981655952</title>
<polygon fill="white" stroke="black" points="3217.88,-148 3126.12,-148 3126.12,-112 3217.88,-112 3217.88,-148"/>
<text text-anchor="middle" x="3172" y="-124.97" font-family="Times New Roman,serif" font-size="12.00">Progress Report</text>
</g>
<!-- 1990981655952&#45;&gt;1990977209744 -->
<g id="edge33" class="edge">
<title>1990981655952&#45;&gt;1990977209744</title>
<path fill="none" stroke="black" d="M3125.68,-139.32C3082.11,-147.47 3014.28,-158 2954.88,-158 2626.25,-158 2626.25,-158 2626.25,-158 2566.32,-158 2497.44,-146.71 2456.25,-138.73"/>
<polygon fill="black" stroke="black" points="2457.12,-135.33 2446.63,-136.82 2455.76,-142.2 2457.12,-135.33"/>
</g>
<!-- 1990981651680 -->
<g id="node17" class="node">
<title>1990981651680</title>
<polygon fill="white" stroke="black" points="3218.25,-49 3125.75,-49 3125.75,-13 3218.25,-13 3218.25,-49"/>
<text text-anchor="middle" x="3172" y="-25.98" font-family="Times New Roman,serif" font-size="12.00">Return Reinvest</text>
</g>
<!-- 1990978478944 -->
<g id="node34" class="node">
<title>1990978478944</title>
<ellipse fill="white" stroke="black" cx="3285.25" cy="-31" rx="27" ry="27"/>
<ellipse fill="none" stroke="black" cx="3285.25" cy="-31" rx="31" ry="31"/>
<text text-anchor="start" x="3268.75" y="-15.6" font-family="Times New Roman,serif" font-size="32.00">■</text>
</g>
<!-- 1990981651680&#45;&gt;1990978478944 -->
<g id="edge34" class="edge">
<title>1990981651680&#45;&gt;1990978478944</title>
<path fill="none" stroke="black" d="M3218.57,-31C3226.46,-31 3234.63,-31 3242.41,-31"/>
<polygon fill="black" stroke="black" points="3242.33,-34.5 3252.33,-31 3242.33,-27.5 3242.33,-34.5"/>
</g>
<!-- 1990978475968 -->
<g id="node18" class="node">
<title>1990978475968</title>
<ellipse fill="white" stroke="black" cx="27" cy="-131" rx="27" ry="27"/>
<text text-anchor="start" x="9.75" y="-113.7" font-family="Times New Roman,serif" font-size="34.00">●</text>
</g>
<!-- 1990978475968&#45;&gt;1990978482544 -->
<g id="edge1" class="edge">
<title>1990978475968&#45;&gt;1990978482544</title>
<path fill="none" stroke="black" d="M54.33,-131C61.67,-131 69.96,-131 78.38,-131"/>
<polygon fill="black" stroke="black" points="78.34,-134.5 88.34,-131 78.34,-127.5 78.34,-134.5"/>
</g>
<!-- 1990978472224&#45;&gt;1990978477168 -->
<g id="edge3" class="edge">
<title>1990978472224&#45;&gt;1990978477168</title>
<path fill="none" stroke="black" d="M275.92,-131C283.22,-131 291.44,-131 299.77,-131"/>
<polygon fill="black" stroke="black" points="299.63,-134.5 309.63,-131 299.63,-127.5 299.63,-134.5"/>
</g>
<!-- 1990978477504&#45;&gt;1990978482256 -->
<g id="edge5" class="edge">
<title>1990978477504&#45;&gt;1990978482256</title>
<path fill="none" stroke="black" d="M495.9,-131C503.23,-131 511.46,-131 519.76,-131"/>
<polygon fill="black" stroke="black" points="519.53,-134.5 529.53,-131 519.53,-127.5 519.53,-134.5"/>
</g>
<!-- 1990978475440&#45;&gt;1990978471648 -->
<g id="edge7" class="edge">
<title>1990978475440&#45;&gt;1990978471648</title>
<path fill="none" stroke="black" d="M709.16,-131C716.43,-131 724.62,-131 732.97,-131"/>
<polygon fill="black" stroke="black" points="732.86,-134.5 742.86,-131 732.86,-127.5 732.86,-134.5"/>
</g>
<!-- 1990978481104&#45;&gt;1990978479040 -->
<g id="edge9" class="edge">
<title>1990978481104&#45;&gt;1990978479040</title>
<path fill="none" stroke="black" d="M933.65,-131C940.98,-131 949.21,-131 957.51,-131"/>
<polygon fill="black" stroke="black" points="957.28,-134.5 967.28,-131 957.28,-127.5 957.28,-134.5"/>
</g>
<!-- 1990978484992&#45;&gt;1990978477936 -->
<g id="edge11" class="edge">
<title>1990978484992&#45;&gt;1990978477936</title>
<path fill="none" stroke="black" d="M1146.87,-131C1154.22,-131 1162.44,-131 1170.65,-131"/>
<polygon fill="black" stroke="black" points="1170.64,-134.5 1180.64,-131 1170.64,-127.5 1170.64,-134.5"/>
</g>
<!-- 1990978471120&#45;&gt;1990978474864 -->
<g id="edge13" class="edge">
<title>1990978471120&#45;&gt;1990978474864</title>
<path fill="none" stroke="black" d="M1349.64,-131C1357.05,-131 1365.38,-131 1373.76,-131"/>
<polygon fill="black" stroke="black" points="1373.61,-134.5 1383.61,-131 1373.61,-127.5 1373.61,-134.5"/>
</g>
<!-- 1990978481920&#45;&gt;1990978477264 -->
<g id="edge15" class="edge">
<title>1990978481920&#45;&gt;1990978477264</title>
<path fill="none" stroke="black" d="M1560.72,-131C1568.02,-131 1576.18,-131 1584.33,-131"/>
<polygon fill="black" stroke="black" points="1584.25,-134.5 1594.25,-131 1584.25,-127.5 1584.25,-134.5"/>
</g>
<!-- 1990978478992&#45;&gt;1990978399904 -->
<g id="edge17" class="edge">
<title>1990978478992&#45;&gt;1990978399904</title>
<path fill="none" stroke="black" d="M1764.16,-131C1771.37,-131 1779.52,-131 1787.87,-131"/>
<polygon fill="black" stroke="black" points="1787.82,-134.5 1797.82,-131 1787.82,-127.5 1787.82,-134.5"/>
</g>
<!-- 1990978390448&#45;&gt;1990977213248 -->
<g id="edge19" class="edge">
<title>1990978390448&#45;&gt;1990977213248</title>
<path fill="none" stroke="black" d="M1998.42,-131C2005.7,-131 2013.91,-131 2022.25,-131"/>
<polygon fill="black" stroke="black" points="2022.12,-134.5 2032.12,-131 2022.12,-127.5 2022.12,-134.5"/>
</g>
<!-- 1990977224240&#45;&gt;1990977213344 -->
<g id="edge21" class="edge">
<title>1990977224240&#45;&gt;1990977213344</title>
<path fill="none" stroke="black" d="M2220.75,-131C2228.04,-131 2236.27,-131 2244.64,-131"/>
<polygon fill="black" stroke="black" points="2244.57,-134.5 2254.57,-131 2244.57,-127.5 2244.57,-134.5"/>
</g>
<!-- 1990977209744&#45;&gt;1990977221936 -->
<g id="edge23" class="edge">
<title>1990977209744&#45;&gt;1990977221936</title>
<path fill="none" stroke="black" d="M2445.33,-125.2C2452.91,-123.49 2461.48,-121.57 2470.08,-119.64"/>
<polygon fill="black" stroke="black" points="2470.84,-123.05 2479.83,-117.45 2469.3,-116.22 2470.84,-123.05"/>
</g>
<!-- 1990977210704&#45;&gt;1990979793984 -->
<g id="edge25" class="edge">
<title>1990977210704&#45;&gt;1990979793984</title>
<path fill="none" stroke="black" d="M2654.67,-103C2661.98,-103 2670.2,-103 2678.53,-103"/>
<polygon fill="black" stroke="black" points="2678.36,-106.5 2688.36,-103 2678.36,-99.5 2678.36,-106.5"/>
</g>
<!-- 1990977217904&#45;&gt;1990981662336 -->
<g id="edge28" class="edge">
<title>1990977217904&#45;&gt;1990981662336</title>
<path fill="none" stroke="black" d="M2868.93,-89.48C2881.49,-82.08 2897.42,-72.69 2912.03,-64.08"/>
<polygon fill="black" stroke="black" points="2913.73,-67.14 2920.57,-59.04 2910.18,-61.11 2913.73,-67.14"/>
</g>
<!-- 1990977217904&#45;&gt;1990981651008 -->
<g id="edge27" class="edge">
<title>1990977217904&#45;&gt;1990981651008</title>
<path fill="none" stroke="black" d="M2872.42,-103C2881.04,-103 2890.93,-103 2900.76,-103"/>
<polygon fill="black" stroke="black" points="2900.68,-106.5 2910.68,-103 2900.68,-99.5 2900.68,-106.5"/>
</g>
<!-- 1990981654656&#45;&gt;1990981651680 -->
<g id="edge31" class="edge">
<title>1990981654656&#45;&gt;1990981651680</title>
<path fill="none" stroke="black" d="M3089.99,-31C3097.32,-31 3105.59,-31 3113.97,-31"/>
<polygon fill="black" stroke="black" points="3113.87,-34.5 3123.87,-31 3113.87,-27.5 3113.87,-34.5"/>
</g>
<!-- 1990981659168&#45;&gt;1990981655952 -->
<g id="edge32" class="edge">
<title>1990981659168&#45;&gt;1990981655952</title>
<path fill="none" stroke="black" d="M3089.44,-109.47C3097.11,-111.4 3105.83,-113.59 3114.66,-115.82"/>
<polygon fill="black" stroke="black" points="3113.8,-119.21 3124.35,-118.26 3115.51,-112.42 3113.8,-119.21"/>
</g>
</g>
</svg>
