<?xml version="1.0" encoding="UTF-8" standalone="no"?>
<!DOCTYPE svg PUBLIC "-//W3C//DTD SVG 1.1//EN"
 "http://www.w3.org/Graphics/SVG/1.1/DTD/svg11.dtd">
<!-- Generated by graphviz version 11.0.0 (20240428.1522)
 -->
<!-- Title: imdf_net_1754052331.845139 Pages: 1 -->
<svg width="2276pt" height="854pt"
 viewBox="0.00 0.00 2275.75 854.00" xmlns="http://www.w3.org/2000/svg" xmlns:xlink="http://www.w3.org/1999/xlink">
<g id="graph0" class="graph" transform="scale(1 1) rotate(0) translate(4 850)">
<title>imdf_net_1754052331.845139</title>
<polygon fill="white" stroke="none" points="-4,4 -4,-850 2271.75,-850 2271.75,4 -4,4"/>
<!-- 1990976174656 -->
<g id="node1" class="node">
<title>1990976174656</title>
<polygon fill="white" stroke="black" points="172.75,-369 90,-369 90,-333 172.75,-333 172.75,-369"/>
<text text-anchor="middle" x="131.38" y="-345.98" font-family="Times New Roman,serif" font-size="12.00">Initial Review</text>
</g>
<!-- 1990980995984 -->
<g id="node20" class="node">
<title>1990980995984</title>
<ellipse fill="white" stroke="black" cx="350.25" cy="-507" rx="27" ry="27"/>
</g>
<!-- 1990976174656&#45;&gt;1990980995984 -->
<g id="edge2" class="edge">
<title>1990976174656&#45;&gt;1990980995984</title>
<path fill="none" stroke="black" d="M149.6,-369.33C164.47,-384.63 186.95,-406.51 208.75,-423 243.17,-449.03 286.19,-473.73 315.5,-489.53"/>
<polygon fill="black" stroke="black" points="313.83,-492.6 324.3,-494.22 317.12,-486.42 313.83,-492.6"/>
</g>
<!-- 1990976657440 -->
<g id="node21" class="node">
<title>1990976657440</title>
<ellipse fill="white" stroke="black" cx="235.75" cy="-315" rx="27" ry="27"/>
</g>
<!-- 1990976174656&#45;&gt;1990976657440 -->
<g id="edge4" class="edge">
<title>1990976174656&#45;&gt;1990976657440</title>
<path fill="none" stroke="black" d="M173.13,-336.67C181.74,-333.64 190.76,-330.47 199.15,-327.52"/>
<polygon fill="black" stroke="black" points="200.05,-330.91 208.32,-324.29 197.73,-324.31 200.05,-330.91"/>
</g>
<!-- 1990981718320 -->
<g id="node22" class="node">
<title>1990981718320</title>
<ellipse fill="white" stroke="black" cx="235.75" cy="-243" rx="27" ry="27"/>
</g>
<!-- 1990976174656&#45;&gt;1990981718320 -->
<g id="edge3" class="edge">
<title>1990976174656&#45;&gt;1990981718320</title>
<path fill="none" stroke="black" d="M149.74,-332.68C165.94,-315.59 190.32,-289.87 208.83,-270.35"/>
<polygon fill="black" stroke="black" points="211.23,-272.9 215.57,-263.24 206.15,-268.09 211.23,-272.9"/>
</g>
<!-- 1990980577200 -->
<g id="node23" class="node">
<title>1990980577200</title>
<ellipse fill="white" stroke="black" cx="235.75" cy="-387" rx="27" ry="27"/>
</g>
<!-- 1990976174656&#45;&gt;1990980577200 -->
<g id="edge5" class="edge">
<title>1990976174656&#45;&gt;1990980577200</title>
<path fill="none" stroke="black" d="M173.13,-365.33C181.74,-368.36 190.76,-371.53 199.15,-374.48"/>
<polygon fill="black" stroke="black" points="197.73,-377.69 208.32,-377.71 200.05,-371.09 197.73,-377.69"/>
</g>
<!-- 1990981718032 -->
<g id="node2" class="node">
<title>1990981718032</title>
<polygon fill="white" stroke="black" points="401.75,-261 298.75,-261 298.75,-225 401.75,-225 401.75,-261"/>
<text text-anchor="middle" x="350.25" y="-237.97" font-family="Times New Roman,serif" font-size="12.00">Material Sampling</text>
</g>
<!-- 1990981725568 -->
<g id="node24" class="node">
<title>1990981725568</title>
<ellipse fill="white" stroke="black" cx="464.75" cy="-243" rx="27" ry="27"/>
</g>
<!-- 1990981718032&#45;&gt;1990981725568 -->
<g id="edge14" class="edge">
<title>1990981718032&#45;&gt;1990981725568</title>
<path fill="none" stroke="black" d="M402.23,-243C410.25,-243 418.4,-243 426.04,-243"/>
<polygon fill="black" stroke="black" points="426.02,-246.5 436.02,-243 426.02,-239.5 426.02,-246.5"/>
</g>
<!-- 1990980575376 -->
<g id="node3" class="node">
<title>1990980575376</title>
<polygon fill="white" stroke="black" points="623.62,-333 537.12,-333 537.12,-297 623.62,-297 623.62,-333"/>
<text text-anchor="middle" x="580.38" y="-309.98" font-family="Times New Roman,serif" font-size="12.00">Stylistic Match</text>
</g>
<!-- 1990979098320 -->
<g id="node28" class="node">
<title>1990979098320</title>
<ellipse fill="white" stroke="black" cx="696" cy="-603" rx="27" ry="27"/>
</g>
<!-- 1990980575376&#45;&gt;1990979098320 -->
<g id="edge13" class="edge">
<title>1990980575376&#45;&gt;1990979098320</title>
<path fill="none" stroke="black" d="M609.29,-333.44C618.19,-340.69 627.22,-349.74 633,-360 678.83,-441.36 632.74,-480.95 669,-567 669.85,-569.02 670.84,-571.04 671.92,-573.04"/>
<polygon fill="black" stroke="black" points="668.84,-574.71 677.09,-581.36 674.78,-571.02 668.84,-574.71"/>
</g>
<!-- 1990979095920 -->
<g id="node31" class="node">
<title>1990979095920</title>
<ellipse fill="white" stroke="black" cx="696" cy="-99" rx="27" ry="27"/>
</g>
<!-- 1990980575376&#45;&gt;1990979095920 -->
<g id="edge10" class="edge">
<title>1990980575376&#45;&gt;1990979095920</title>
<path fill="none" stroke="black" d="M608.25,-296.7C617.27,-289.35 626.65,-280.19 633,-270 665.84,-217.3 642.38,-191.1 669,-135 669.94,-133.01 671,-131.03 672.13,-129.06"/>
<polygon fill="black" stroke="black" points="674.98,-131.1 677.42,-120.79 669.08,-127.32 674.98,-131.1"/>
</g>
<!-- 1990979108736 -->
<g id="node33" class="node">
<title>1990979108736</title>
<ellipse fill="white" stroke="black" cx="696" cy="-315" rx="27" ry="27"/>
</g>
<!-- 1990980575376&#45;&gt;1990979108736 -->
<g id="edge15" class="edge">
<title>1990980575376&#45;&gt;1990979108736</title>
<path fill="none" stroke="black" d="M624.01,-315C634.9,-315 646.53,-315 657.16,-315"/>
<polygon fill="black" stroke="black" points="657.13,-318.5 667.13,-315 657.13,-311.5 657.13,-318.5"/>
</g>
<!-- 1990980581040 -->
<g id="node4" class="node">
<title>1990980581040</title>
<polygon fill="white" stroke="black" points="631.5,-405 529.25,-405 529.25,-369 631.5,-369 631.5,-405"/>
<text text-anchor="middle" x="580.38" y="-381.98" font-family="Times New Roman,serif" font-size="12.00">Historical Context</text>
</g>
<!-- 1990979106144 -->
<g id="node29" class="node">
<title>1990979106144</title>
<ellipse fill="white" stroke="black" cx="696" cy="-675" rx="27" ry="27"/>
</g>
<!-- 1990980581040&#45;&gt;1990979106144 -->
<g id="edge19" class="edge">
<title>1990980581040&#45;&gt;1990979106144</title>
<path fill="none" stroke="black" d="M585.82,-405.46C596.51,-448.17 626,-556.42 669,-639 670.01,-640.95 671.13,-642.91 672.3,-644.86"/>
<polygon fill="black" stroke="black" points="669.28,-646.64 677.7,-653.08 675.13,-642.8 669.28,-646.64"/>
</g>
<!-- 1990979097696 -->
<g id="node30" class="node">
<title>1990979097696</title>
<ellipse fill="white" stroke="black" cx="696" cy="-387" rx="27" ry="27"/>
</g>
<!-- 1990980581040&#45;&gt;1990979097696 -->
<g id="edge12" class="edge">
<title>1990980581040&#45;&gt;1990979097696</title>
<path fill="none" stroke="black" d="M631.87,-387C640.4,-387 649.11,-387 657.24,-387"/>
<polygon fill="black" stroke="black" points="657.12,-390.5 667.12,-387 657.12,-383.5 657.12,-390.5"/>
</g>
<!-- 1990979108592 -->
<g id="node32" class="node">
<title>1990979108592</title>
<ellipse fill="white" stroke="black" cx="696" cy="-171" rx="27" ry="27"/>
</g>
<!-- 1990980581040&#45;&gt;1990979108592 -->
<g id="edge17" class="edge">
<title>1990980581040&#45;&gt;1990979108592</title>
<path fill="none" stroke="black" d="M608.25,-368.7C617.27,-361.35 626.65,-352.19 633,-342 665.84,-289.3 642.38,-263.1 669,-207 669.94,-205.01 671,-203.03 672.13,-201.06"/>
<polygon fill="black" stroke="black" points="674.98,-203.1 677.42,-192.79 669.08,-199.32 674.98,-203.1"/>
</g>
<!-- 1990980994160 -->
<g id="node5" class="node">
<title>1990980994160</title>
<polygon fill="white" stroke="black" points="633,-621 527.75,-621 527.75,-585 633,-585 633,-621"/>
<text text-anchor="middle" x="580.38" y="-597.98" font-family="Times New Roman,serif" font-size="12.00">Provenance Check</text>
</g>
<!-- 1990979096592 -->
<g id="node25" class="node">
<title>1990979096592</title>
<ellipse fill="white" stroke="black" cx="696" cy="-747" rx="27" ry="27"/>
</g>
<!-- 1990980994160&#45;&gt;1990979096592 -->
<g id="edge16" class="edge">
<title>1990980994160&#45;&gt;1990979096592</title>
<path fill="none" stroke="black" d="M595.77,-621.24C614.84,-645.41 648.74,-688.37 671.54,-717.27"/>
<polygon fill="black" stroke="black" points="668.64,-719.25 677.58,-724.93 674.14,-714.91 668.64,-719.25"/>
</g>
<!-- 1990979100336 -->
<g id="node26" class="node">
<title>1990979100336</title>
<ellipse fill="white" stroke="black" cx="696" cy="-459" rx="27" ry="27"/>
</g>
<!-- 1990980994160&#45;&gt;1990979100336 -->
<g id="edge11" class="edge">
<title>1990980994160&#45;&gt;1990979100336</title>
<path fill="none" stroke="black" d="M595.77,-584.76C614.84,-560.59 648.74,-517.63 671.54,-488.73"/>
<polygon fill="black" stroke="black" points="674.14,-491.09 677.58,-481.07 668.64,-486.75 674.14,-491.09"/>
</g>
<!-- 1990980577104 -->
<g id="node27" class="node">
<title>1990980577104</title>
<ellipse fill="white" stroke="black" cx="696" cy="-819" rx="27" ry="27"/>
</g>
<!-- 1990980994160&#45;&gt;1990980577104 -->
<g id="edge18" class="edge">
<title>1990980994160&#45;&gt;1990980577104</title>
<path fill="none" stroke="black" d="M589.08,-621.42C603.25,-654.63 635.09,-726.33 669,-783 670.1,-784.84 671.26,-786.7 672.47,-788.56"/>
<polygon fill="black" stroke="black" points="669.33,-790.16 677.85,-796.46 675.12,-786.22 669.33,-790.16"/>
</g>
<!-- 1990981726720 -->
<g id="node6" class="node">
<title>1990981726720</title>
<polygon fill="white" stroke="black" points="620.62,-261 540.12,-261 540.12,-225 620.62,-225 620.62,-261"/>
<text text-anchor="middle" x="580.38" y="-237.97" font-family="Times New Roman,serif" font-size="12.00">Spectral Scan</text>
</g>
<!-- 1990979099952 -->
<g id="node34" class="node">
<title>1990979099952</title>
<ellipse fill="white" stroke="black" cx="696" cy="-243" rx="27" ry="27"/>
</g>
<!-- 1990981726720&#45;&gt;1990979099952 -->
<g id="edge37" class="edge">
<title>1990981726720&#45;&gt;1990979099952</title>
<path fill="none" stroke="black" d="M621.12,-243C632.92,-243 645.81,-243 657.48,-243"/>
<polygon fill="black" stroke="black" points="657.13,-246.5 667.13,-243 657.13,-239.5 657.13,-246.5"/>
</g>
<!-- 1990979102544 -->
<g id="node37" class="node">
<title>1990979102544</title>
<ellipse fill="white" stroke="black" cx="696" cy="-27" rx="27" ry="27"/>
</g>
<!-- 1990981726720&#45;&gt;1990979102544 -->
<g id="edge32" class="edge">
<title>1990981726720&#45;&gt;1990979102544</title>
<path fill="none" stroke="black" d="M589.08,-224.58C603.25,-191.37 635.09,-119.67 669,-63 670.1,-61.16 671.26,-59.3 672.47,-57.44"/>
<polygon fill="black" stroke="black" points="675.12,-59.78 677.85,-49.54 669.33,-55.84 675.12,-59.78"/>
</g>
<!-- 1990979100384 -->
<g id="node39" class="node">
<title>1990979100384</title>
<ellipse fill="white" stroke="black" cx="696" cy="-531" rx="27" ry="27"/>
</g>
<!-- 1990981726720&#45;&gt;1990979100384 -->
<g id="edge38" class="edge">
<title>1990981726720&#45;&gt;1990979100384</title>
<path fill="none" stroke="black" d="M609.29,-261.44C618.19,-268.69 627.22,-277.74 633,-288 678.83,-369.36 632.74,-408.95 669,-495 669.85,-497.02 670.84,-499.04 671.92,-501.04"/>
<polygon fill="black" stroke="black" points="668.84,-502.71 677.09,-509.36 674.78,-499.02 668.84,-502.71"/>
</g>
<!-- 1990980577056 -->
<g id="node7" class="node">
<title>1990980577056</title>
<polygon fill="white" stroke="black" points="866.12,-369 762.38,-369 762.38,-333 866.12,-333 866.12,-369"/>
<text text-anchor="middle" x="814.25" y="-345.98" font-family="Times New Roman,serif" font-size="12.00">Restoration Check</text>
</g>
<!-- 1990979107008 -->
<g id="node36" class="node">
<title>1990979107008</title>
<ellipse fill="white" stroke="black" cx="932.5" cy="-387" rx="27" ry="27"/>
</g>
<!-- 1990980577056&#45;&gt;1990979107008 -->
<g id="edge33" class="edge">
<title>1990980577056&#45;&gt;1990979107008</title>
<path fill="none" stroke="black" d="M866.58,-366.89C876.24,-369.89 886.16,-372.96 895.25,-375.77"/>
<polygon fill="black" stroke="black" points="894.19,-379.11 904.78,-378.73 896.26,-372.42 894.19,-379.11"/>
</g>
<!-- 1990979100768 -->
<g id="node40" class="node">
<title>1990979100768</title>
<ellipse fill="white" stroke="black" cx="932.5" cy="-243" rx="27" ry="27"/>
</g>
<!-- 1990980577056&#45;&gt;1990979100768 -->
<g id="edge36" class="edge">
<title>1990980577056&#45;&gt;1990979100768</title>
<path fill="none" stroke="black" d="M834.97,-332.68C853.87,-315.12 882.58,-288.45 903.78,-268.75"/>
<polygon fill="black" stroke="black" points="906.02,-271.45 910.96,-262.08 901.25,-266.32 906.02,-271.45"/>
</g>
<!-- 1990980578112 -->
<g id="node8" class="node">
<title>1990980578112</title>
<polygon fill="white" stroke="black" points="865.38,-612 763.12,-612 763.12,-576 865.38,-576 865.38,-612"/>
<text text-anchor="middle" x="814.25" y="-588.98" font-family="Times New Roman,serif" font-size="12.00">Forgery Detection</text>
</g>
<!-- 1990979096112 -->
<g id="node35" class="node">
<title>1990979096112</title>
<ellipse fill="white" stroke="black" cx="932.5" cy="-585" rx="27" ry="27"/>
</g>
<!-- 1990980578112&#45;&gt;1990979096112 -->
<g id="edge35" class="edge">
<title>1990980578112&#45;&gt;1990979096112</title>
<path fill="none" stroke="black" d="M865.56,-590.1C875.03,-589.37 884.79,-588.62 893.79,-587.92"/>
<polygon fill="black" stroke="black" points="893.9,-591.42 903.6,-587.16 893.36,-584.44 893.9,-591.42"/>
</g>
<!-- 1990979096064 -->
<g id="node41" class="node">
<title>1990979096064</title>
<ellipse fill="white" stroke="black" cx="932.5" cy="-495" rx="27" ry="27"/>
</g>
<!-- 1990980578112&#45;&gt;1990979096064 -->
<g id="edge30" class="edge">
<title>1990980578112&#45;&gt;1990979096064</title>
<path fill="none" stroke="black" d="M836.84,-575.61C855.38,-559.83 882.24,-536.95 902.62,-519.6"/>
<polygon fill="black" stroke="black" points="904.69,-522.43 910.04,-513.28 900.16,-517.1 904.69,-522.43"/>
</g>
<!-- 1990980577872 -->
<g id="node9" class="node">
<title>1990980577872</title>
<polygon fill="white" stroke="black" points="869.5,-189 759,-189 759,-153 869.5,-153 869.5,-189"/>
<text text-anchor="middle" x="814.25" y="-165.97" font-family="Times New Roman,serif" font-size="12.00">Expert Consultation</text>
</g>
<!-- 1990979099136 -->
<g id="node38" class="node">
<title>1990979099136</title>
<ellipse fill="white" stroke="black" cx="932.5" cy="-171" rx="27" ry="27"/>
</g>
<!-- 1990980577872&#45;&gt;1990979099136 -->
<g id="edge34" class="edge">
<title>1990980577872&#45;&gt;1990979099136</title>
<path fill="none" stroke="black" d="M869.97,-171C878.01,-171 886.14,-171 893.73,-171"/>
<polygon fill="black" stroke="black" points="893.63,-174.5 903.63,-171 893.63,-167.5 893.63,-174.5"/>
</g>
<!-- 1990979105520 -->
<g id="node42" class="node">
<title>1990979105520</title>
<ellipse fill="white" stroke="black" cx="932.5" cy="-315" rx="27" ry="27"/>
</g>
<!-- 1990980577872&#45;&gt;1990979105520 -->
<g id="edge31" class="edge">
<title>1990980577872&#45;&gt;1990979105520</title>
<path fill="none" stroke="black" d="M829.97,-189.24C849.49,-213.41 884.17,-256.37 907.5,-285.27"/>
<polygon fill="black" stroke="black" points="904.69,-287.36 913.69,-292.94 910.13,-282.96 904.69,-287.36"/>
</g>
<!-- 1990980570624 -->
<g id="node10" class="node">
<title>1990980570624</title>
<polygon fill="white" stroke="black" points="1097,-369 995.5,-369 995.5,-333 1097,-333 1097,-369"/>
<text text-anchor="middle" x="1046.25" y="-345.98" font-family="Times New Roman,serif" font-size="12.00">Legal Assessment</text>
</g>
<!-- 1990979095536 -->
<g id="node44" class="node">
<title>1990979095536</title>
<ellipse fill="white" stroke="black" cx="1160" cy="-351" rx="27" ry="27"/>
</g>
<!-- 1990980570624&#45;&gt;1990979095536 -->
<g id="edge49" class="edge">
<title>1990980570624&#45;&gt;1990979095536</title>
<path fill="none" stroke="black" d="M1097.24,-351C1105.35,-351 1113.62,-351 1121.36,-351"/>
<polygon fill="black" stroke="black" points="1121.11,-354.5 1131.11,-351 1121.11,-347.5 1121.11,-354.5"/>
</g>
<!-- 1990980580896 -->
<g id="node11" class="node">
<title>1990980580896</title>
<polygon fill="white" stroke="black" points="1094,-261 998.5,-261 998.5,-225 1094,-225 1094,-261"/>
<text text-anchor="middle" x="1046.25" y="-237.97" font-family="Times New Roman,serif" font-size="12.00">Ethics Screening</text>
</g>
<!-- 1990979102928 -->
<g id="node43" class="node">
<title>1990979102928</title>
<ellipse fill="white" stroke="black" cx="1160" cy="-279" rx="27" ry="27"/>
</g>
<!-- 1990980580896&#45;&gt;1990979102928 -->
<g id="edge48" class="edge">
<title>1990980580896&#45;&gt;1990979102928</title>
<path fill="none" stroke="black" d="M1094.32,-258.16C1103.99,-261.28 1114.02,-264.51 1123.21,-267.47"/>
<polygon fill="black" stroke="black" points="1121.9,-270.72 1132.49,-270.46 1124.04,-264.06 1121.9,-270.72"/>
</g>
<!-- 1990980568032 -->
<g id="node12" class="node">
<title>1990980568032</title>
<polygon fill="white" stroke="black" points="1321.5,-333 1223,-333 1223,-297 1321.5,-297 1321.5,-333"/>
<text text-anchor="middle" x="1272.25" y="-309.98" font-family="Times New Roman,serif" font-size="12.00">Condition Report</text>
</g>
<!-- 1990980577488 -->
<g id="node45" class="node">
<title>1990980577488</title>
<ellipse fill="white" stroke="black" cx="1384.5" cy="-279" rx="27" ry="27"/>
</g>
<!-- 1990980568032&#45;&gt;1990980577488 -->
<g id="edge52" class="edge">
<title>1990980568032&#45;&gt;1990980577488</title>
<path fill="none" stroke="black" d="M1321.93,-299.11C1330.57,-296.28 1339.43,-293.39 1347.64,-290.71"/>
<polygon fill="black" stroke="black" points="1348.49,-294.11 1356.91,-287.68 1346.32,-287.46 1348.49,-294.11"/>
</g>
<!-- 1990980582384 -->
<g id="node46" class="node">
<title>1990980582384</title>
<ellipse fill="white" stroke="black" cx="1384.5" cy="-351" rx="27" ry="27"/>
</g>
<!-- 1990980568032&#45;&gt;1990980582384 -->
<g id="edge53" class="edge">
<title>1990980568032&#45;&gt;1990980582384</title>
<path fill="none" stroke="black" d="M1321.93,-330.89C1330.57,-333.72 1339.43,-336.61 1347.64,-339.29"/>
<polygon fill="black" stroke="black" points="1346.32,-342.54 1356.91,-342.32 1348.49,-335.89 1346.32,-342.54"/>
</g>
<!-- 1990980576096 -->
<g id="node13" class="node">
<title>1990980576096</title>
<polygon fill="white" stroke="black" points="1546.75,-297 1447.5,-297 1447.5,-261 1546.75,-261 1546.75,-297"/>
<text text-anchor="middle" x="1497.12" y="-273.98" font-family="Times New Roman,serif" font-size="12.00">Certification Prep</text>
</g>
<!-- 1990979094528 -->
<g id="node48" class="node">
<title>1990979094528</title>
<ellipse fill="white" stroke="black" cx="1609.75" cy="-279" rx="27" ry="27"/>
</g>
<!-- 1990980576096&#45;&gt;1990979094528 -->
<g id="edge57" class="edge">
<title>1990980576096&#45;&gt;1990979094528</title>
<path fill="none" stroke="black" d="M1546.97,-279C1555.04,-279 1563.3,-279 1571.04,-279"/>
<polygon fill="black" stroke="black" points="1570.8,-282.5 1580.8,-279 1570.8,-275.5 1570.8,-282.5"/>
</g>
<!-- 1990980572256 -->
<g id="node14" class="node">
<title>1990980572256</title>
<polygon fill="white" stroke="black" points="1541.5,-369 1452.75,-369 1452.75,-333 1541.5,-333 1541.5,-369"/>
<text text-anchor="middle" x="1497.12" y="-345.98" font-family="Times New Roman,serif" font-size="12.00">Documentation</text>
</g>
<!-- 1990979103024 -->
<g id="node47" class="node">
<title>1990979103024</title>
<ellipse fill="white" stroke="black" cx="1609.75" cy="-351" rx="27" ry="27"/>
</g>
<!-- 1990980572256&#45;&gt;1990979103024 -->
<g id="edge56" class="edge">
<title>1990980572256&#45;&gt;1990979103024</title>
<path fill="none" stroke="black" d="M1541.85,-351C1551.53,-351 1561.71,-351 1571.12,-351"/>
<polygon fill="black" stroke="black" points="1571.03,-354.5 1581.03,-351 1571.03,-347.5 1571.03,-354.5"/>
</g>
<!-- 1990980573360 -->
<g id="node15" class="node">
<title>1990980573360</title>
<polygon fill="white" stroke="black" points="1760.75,-333 1672.75,-333 1672.75,-297 1760.75,-297 1760.75,-333"/>
<text text-anchor="middle" x="1716.75" y="-309.98" font-family="Times New Roman,serif" font-size="12.00">Final Approval</text>
</g>
<!-- 1990980569472 -->
<g id="node49" class="node">
<title>1990980569472</title>
<ellipse fill="white" stroke="black" cx="1823.75" cy="-315" rx="27" ry="27"/>
</g>
<!-- 1990980573360&#45;&gt;1990980569472 -->
<g id="edge60" class="edge">
<title>1990980573360&#45;&gt;1990980569472</title>
<path fill="none" stroke="black" d="M1761.06,-315C1769.02,-315 1777.26,-315 1785.03,-315"/>
<polygon fill="black" stroke="black" points="1784.85,-318.5 1794.85,-315 1784.85,-311.5 1784.85,-318.5"/>
</g>
<!-- 1990980568896 -->
<g id="node16" class="node">
<title>1990980568896</title>
<polygon fill="white" stroke="black" points="1989.75,-360 1886.75,-360 1886.75,-324 1989.75,-324 1989.75,-360"/>
<text text-anchor="middle" x="1938.25" y="-336.98" font-family="Times New Roman,serif" font-size="12.00">Conservation Plan</text>
</g>
<!-- 1990980573120 -->
<g id="node50" class="node">
<title>1990980573120</title>
<ellipse fill="white" stroke="black" cx="2052.75" cy="-315" rx="27" ry="27"/>
</g>
<!-- 1990980568896&#45;&gt;1990980573120 -->
<g id="edge64" class="edge">
<title>1990980568896&#45;&gt;1990980573120</title>
<path fill="none" stroke="black" d="M1990.23,-329.76C1998.59,-327.76 2007.11,-325.71 2015.03,-323.81"/>
<polygon fill="black" stroke="black" points="2015.76,-327.24 2024.66,-321.5 2014.12,-320.43 2015.76,-327.24"/>
</g>
<!-- 1990980574032 -->
<g id="node17" class="node">
<title>1990980574032</title>
<polygon fill="white" stroke="black" points="1985.25,-306 1891.25,-306 1891.25,-270 1985.25,-270 1985.25,-306"/>
<text text-anchor="middle" x="1938.25" y="-282.98" font-family="Times New Roman,serif" font-size="12.00">Market Analysis</text>
</g>
<!-- 1990980574032&#45;&gt;1990980573120 -->
<g id="edge63" class="edge">
<title>1990980574032&#45;&gt;1990980573120</title>
<path fill="none" stroke="black" d="M1985.66,-299.14C1995.47,-301.49 2005.69,-303.95 2015.08,-306.2"/>
<polygon fill="black" stroke="black" points="2014.03,-309.55 2024.57,-308.48 2015.66,-302.74 2014.03,-309.55"/>
</g>
<!-- 1990980571488 -->
<g id="node18" class="node">
<title>1990980571488</title>
<polygon fill="black" stroke="black" points="2169.75,-333 2115.75,-333 2115.75,-297 2169.75,-297 2169.75,-333"/>
</g>
<!-- 1990979917616 -->
<g id="node51" class="node">
<title>1990979917616</title>
<ellipse fill="white" stroke="black" cx="2236.75" cy="-315" rx="27" ry="27"/>
<ellipse fill="none" stroke="black" cx="2236.75" cy="-315" rx="31" ry="31"/>
<text text-anchor="start" x="2220.25" y="-299.6" font-family="Times New Roman,serif" font-size="32.00">■</text>
</g>
<!-- 1990980571488&#45;&gt;1990979917616 -->
<g id="edge66" class="edge">
<title>1990980571488&#45;&gt;1990979917616</title>
<path fill="none" stroke="black" d="M2169.87,-315C2177.38,-315 2185.76,-315 2193.97,-315"/>
<polygon fill="black" stroke="black" points="2193.83,-318.5 2203.83,-315 2193.83,-311.5 2193.83,-318.5"/>
</g>
<!-- 1990979919872 -->
<g id="node19" class="node">
<title>1990979919872</title>
<ellipse fill="white" stroke="black" cx="27" cy="-351" rx="27" ry="27"/>
<text text-anchor="start" x="9.75" y="-333.7" font-family="Times New Roman,serif" font-size="34.00">●</text>
</g>
<!-- 1990979919872&#45;&gt;1990976174656 -->
<g id="edge1" class="edge">
<title>1990979919872&#45;&gt;1990976174656</title>
<path fill="none" stroke="black" d="M54.36,-351C61.78,-351 70.11,-351 78.46,-351"/>
<polygon fill="black" stroke="black" points="78.27,-354.5 88.27,-351 78.27,-347.5 78.27,-354.5"/>
</g>
<!-- 1990980995984&#45;&gt;1990980994160 -->
<g id="edge9" class="edge">
<title>1990980995984&#45;&gt;1990980994160</title>
<path fill="none" stroke="black" d="M375.66,-517.27C411.14,-532.2 477.88,-560.29 525.29,-580.24"/>
<polygon fill="black" stroke="black" points="523.72,-583.38 534.3,-584.03 526.44,-576.93 523.72,-583.38"/>
</g>
<!-- 1990976657440&#45;&gt;1990980575376 -->
<g id="edge8" class="edge">
<title>1990976657440&#45;&gt;1990980575376</title>
<path fill="none" stroke="black" d="M263.07,-315C318.99,-315 450.65,-315 525.28,-315"/>
<polygon fill="black" stroke="black" points="525.24,-318.5 535.24,-315 525.24,-311.5 525.24,-318.5"/>
</g>
<!-- 1990981718320&#45;&gt;1990981718032 -->
<g id="edge7" class="edge">
<title>1990981718320&#45;&gt;1990981718032</title>
<path fill="none" stroke="black" d="M263.13,-243C270.36,-243 278.52,-243 286.86,-243"/>
<polygon fill="black" stroke="black" points="286.77,-246.5 296.77,-243 286.77,-239.5 286.77,-246.5"/>
</g>
<!-- 1990980577200&#45;&gt;1990980581040 -->
<g id="edge6" class="edge">
<title>1990980577200&#45;&gt;1990980581040</title>
<path fill="none" stroke="black" d="M263.07,-387C317.17,-387 442.15,-387 517.81,-387"/>
<polygon fill="black" stroke="black" points="517.54,-390.5 527.54,-387 517.54,-383.5 517.54,-390.5"/>
</g>
<!-- 1990981725568&#45;&gt;1990981726720 -->
<g id="edge20" class="edge">
<title>1990981725568&#45;&gt;1990981726720</title>
<path fill="none" stroke="black" d="M492.1,-243C502.95,-243 515.89,-243 528.44,-243"/>
<polygon fill="black" stroke="black" points="528.28,-246.5 538.28,-243 528.28,-239.5 528.28,-246.5"/>
</g>
<!-- 1990979096592&#45;&gt;1990980577056 -->
<g id="edge22" class="edge">
<title>1990979096592&#45;&gt;1990980577056</title>
<path fill="none" stroke="black" d="M713.82,-726.51C717.23,-721.64 720.53,-716.31 723,-711 750.81,-651.18 742.97,-630.99 759,-567 775.72,-500.29 795.39,-422.01 805.84,-380.44"/>
<polygon fill="black" stroke="black" points="809.19,-381.51 808.23,-370.96 802.4,-379.8 809.19,-381.51"/>
</g>
<!-- 1990979100336&#45;&gt;1990980577872 -->
<g id="edge28" class="edge">
<title>1990979100336&#45;&gt;1990980577872</title>
<path fill="none" stroke="black" d="M713.44,-438.32C716.87,-433.46 720.27,-428.18 723,-423 725.72,-417.84 779.77,-265.53 802.9,-200.24"/>
<polygon fill="black" stroke="black" points="806.17,-201.5 806.21,-190.9 799.57,-199.16 806.17,-201.5"/>
</g>
<!-- 1990980577104&#45;&gt;1990980578112 -->
<g id="edge29" class="edge">
<title>1990980577104&#45;&gt;1990980578112</title>
<path fill="none" stroke="black" d="M713.32,-797.72C716.69,-792.98 720.09,-787.91 723,-783 755.42,-728.35 785.63,-660.24 801.55,-622.52"/>
<polygon fill="black" stroke="black" points="804.62,-624.25 805.24,-613.67 798.16,-621.55 804.62,-624.25"/>
</g>
<!-- 1990979098320&#45;&gt;1990980578112 -->
<g id="edge25" class="edge">
<title>1990979098320&#45;&gt;1990980578112</title>
<path fill="none" stroke="black" d="M723.38,-600.96C731.85,-600.3 741.61,-599.55 751.52,-598.78"/>
<polygon fill="black" stroke="black" points="751.49,-602.29 761.19,-598.03 750.95,-595.31 751.49,-602.29"/>
</g>
<!-- 1990979106144&#45;&gt;1990980578112 -->
<g id="edge21" class="edge">
<title>1990979106144&#45;&gt;1990980578112</title>
<path fill="none" stroke="black" d="M718.87,-659.76C735.41,-648.24 758.47,-632.17 777.66,-618.8"/>
<polygon fill="black" stroke="black" points="779.56,-621.74 785.76,-613.15 775.56,-616 779.56,-621.74"/>
</g>
<!-- 1990979097696&#45;&gt;1990980577056 -->
<g id="edge26" class="edge">
<title>1990979097696&#45;&gt;1990980577056</title>
<path fill="none" stroke="black" d="M722.22,-379.19C730.95,-376.49 741.14,-373.33 751.5,-370.12"/>
<polygon fill="black" stroke="black" points="752.32,-373.53 760.84,-367.23 750.25,-366.85 752.32,-373.53"/>
</g>
<!-- 1990979095920&#45;&gt;1990980577872 -->
<g id="edge23" class="edge">
<title>1990979095920&#45;&gt;1990980577872</title>
<path fill="none" stroke="black" d="M719.41,-112.88C734.78,-122.4 755.58,-135.28 773.69,-146.5"/>
<polygon fill="black" stroke="black" points="771.79,-149.44 782.14,-151.73 775.48,-143.49 771.79,-149.44"/>
</g>
<!-- 1990979108592&#45;&gt;1990980577872 -->
<g id="edge27" class="edge">
<title>1990979108592&#45;&gt;1990980577872</title>
<path fill="none" stroke="black" d="M723.38,-171C730.74,-171 739.08,-171 747.64,-171"/>
<polygon fill="black" stroke="black" points="747.44,-174.5 757.44,-171 747.44,-167.5 747.44,-174.5"/>
</g>
<!-- 1990979108736&#45;&gt;1990980577056 -->
<g id="edge24" class="edge">
<title>1990979108736&#45;&gt;1990980577056</title>
<path fill="none" stroke="black" d="M722.22,-322.81C730.95,-325.51 741.14,-328.67 751.5,-331.88"/>
<polygon fill="black" stroke="black" points="750.25,-335.15 760.84,-334.77 752.32,-328.47 750.25,-335.15"/>
</g>
<!-- 1990979099952&#45;&gt;1990980577056 -->
<g id="edge41" class="edge">
<title>1990979099952&#45;&gt;1990980577056</title>
<path fill="none" stroke="black" d="M716.46,-261.08C735.2,-278.49 763.77,-305.03 785.02,-324.77"/>
<polygon fill="black" stroke="black" points="782.52,-327.23 792.23,-331.47 787.29,-322.1 782.52,-327.23"/>
</g>
<!-- 1990979096112&#45;&gt;1990980570624 -->
<g id="edge46" class="edge">
<title>1990979096112&#45;&gt;1990980570624</title>
<path fill="none" stroke="black" d="M945.17,-560.82C949.66,-551.5 954.83,-540.76 959.5,-531 985.11,-477.53 1014.84,-415.03 1031.71,-379.52"/>
<polygon fill="black" stroke="black" points="1034.73,-381.31 1035.86,-370.78 1028.41,-378.31 1034.73,-381.31"/>
</g>
<!-- 1990979107008&#45;&gt;1990980570624 -->
<g id="edge44" class="edge">
<title>1990979107008&#45;&gt;1990980570624</title>
<path fill="none" stroke="black" d="M958.58,-378.92C966.35,-376.42 975.28,-373.54 984.38,-370.61"/>
<polygon fill="black" stroke="black" points="985.2,-374.02 993.65,-367.62 983.06,-367.36 985.2,-374.02"/>
</g>
<!-- 1990979102544&#45;&gt;1990980577872 -->
<g id="edge39" class="edge">
<title>1990979102544&#45;&gt;1990980577872</title>
<path fill="none" stroke="black" d="M713.66,-47.63C734.07,-72.92 768.74,-115.86 791.31,-143.83"/>
<polygon fill="black" stroke="black" points="788.51,-145.93 797.52,-151.51 793.96,-141.53 788.51,-145.93"/>
</g>
<!-- 1990979099136&#45;&gt;1990980580896 -->
<g id="edge47" class="edge">
<title>1990979099136&#45;&gt;1990980580896</title>
<path fill="none" stroke="black" d="M955.85,-185.4C970.57,-194.88 990.23,-207.55 1007.36,-218.59"/>
<polygon fill="black" stroke="black" points="1004.99,-221.23 1015.3,-223.7 1008.79,-215.34 1004.99,-221.23"/>
</g>
<!-- 1990979100384&#45;&gt;1990980578112 -->
<g id="edge40" class="edge">
<title>1990979100384&#45;&gt;1990980578112</title>
<path fill="none" stroke="black" d="M720.25,-543.6C734.42,-551.28 753,-561.35 769.82,-570.46"/>
<polygon fill="black" stroke="black" points="767.68,-573.28 778.14,-574.97 771.01,-567.13 767.68,-573.28"/>
</g>
<!-- 1990979100768&#45;&gt;1990980580896 -->
<g id="edge43" class="edge">
<title>1990979100768&#45;&gt;1990980580896</title>
<path fill="none" stroke="black" d="M959.98,-243C968.15,-243 977.49,-243 986.92,-243"/>
<polygon fill="black" stroke="black" points="986.89,-246.5 996.89,-243 986.89,-239.5 986.89,-246.5"/>
</g>
<!-- 1990979096064&#45;&gt;1990980580896 -->
<g id="edge42" class="edge">
<title>1990979096064&#45;&gt;1990980580896</title>
<path fill="none" stroke="black" d="M942.63,-469.71C959.67,-422.54 994.67,-325.72 995.5,-324 1004.38,-305.59 1016.31,-286.03 1026.27,-270.74"/>
<polygon fill="black" stroke="black" points="1029.03,-272.91 1031.63,-262.64 1023.2,-269.04 1029.03,-272.91"/>
</g>
<!-- 1990979105520&#45;&gt;1990980570624 -->
<g id="edge45" class="edge">
<title>1990979105520&#45;&gt;1990980570624</title>
<path fill="none" stroke="black" d="M958.58,-323.08C966.35,-325.58 975.28,-328.46 984.38,-331.39"/>
<polygon fill="black" stroke="black" points="983.06,-334.64 993.65,-334.38 985.2,-327.98 983.06,-334.64"/>
</g>
<!-- 1990979102928&#45;&gt;1990980568032 -->
<g id="edge51" class="edge">
<title>1990979102928&#45;&gt;1990980568032</title>
<path fill="none" stroke="black" d="M1186.02,-287.17C1193.87,-289.73 1202.9,-292.68 1212.08,-295.68"/>
<polygon fill="black" stroke="black" points="1210.84,-298.95 1221.43,-298.73 1213.01,-292.3 1210.84,-298.95"/>
</g>
<!-- 1990979095536&#45;&gt;1990980568032 -->
<g id="edge50" class="edge">
<title>1990979095536&#45;&gt;1990980568032</title>
<path fill="none" stroke="black" d="M1186.02,-342.83C1193.87,-340.27 1202.9,-337.32 1212.08,-334.32"/>
<polygon fill="black" stroke="black" points="1213.01,-337.7 1221.43,-331.27 1210.84,-331.05 1213.01,-337.7"/>
</g>
<!-- 1990980577488&#45;&gt;1990980576096 -->
<g id="edge54" class="edge">
<title>1990980577488&#45;&gt;1990980576096</title>
<path fill="none" stroke="black" d="M1412,-279C1419.29,-279 1427.52,-279 1435.89,-279"/>
<polygon fill="black" stroke="black" points="1435.82,-282.5 1445.82,-279 1435.82,-275.5 1435.82,-282.5"/>
</g>
<!-- 1990980582384&#45;&gt;1990980572256 -->
<g id="edge55" class="edge">
<title>1990980582384&#45;&gt;1990980572256</title>
<path fill="none" stroke="black" d="M1412,-351C1420.82,-351 1431,-351 1441.17,-351"/>
<polygon fill="black" stroke="black" points="1441.05,-354.5 1451.05,-351 1441.05,-347.5 1441.05,-354.5"/>
</g>
<!-- 1990979103024&#45;&gt;1990980573360 -->
<g id="edge59" class="edge">
<title>1990979103024&#45;&gt;1990980573360</title>
<path fill="none" stroke="black" d="M1635.63,-342.47C1643.57,-339.75 1652.68,-336.63 1661.84,-333.48"/>
<polygon fill="black" stroke="black" points="1662.81,-336.85 1671.13,-330.3 1660.54,-330.23 1662.81,-336.85"/>
</g>
<!-- 1990979094528&#45;&gt;1990980573360 -->
<g id="edge58" class="edge">
<title>1990979094528&#45;&gt;1990980573360</title>
<path fill="none" stroke="black" d="M1635.63,-287.53C1643.57,-290.25 1652.68,-293.37 1661.84,-296.52"/>
<polygon fill="black" stroke="black" points="1660.54,-299.77 1671.13,-299.7 1662.81,-293.15 1660.54,-299.77"/>
</g>
<!-- 1990980569472&#45;&gt;1990980568896 -->
<g id="edge62" class="edge">
<title>1990980569472&#45;&gt;1990980568896</title>
<path fill="none" stroke="black" d="M1850.28,-321.13C1857.93,-322.96 1866.67,-325.06 1875.6,-327.2"/>
<polygon fill="black" stroke="black" points="1874.51,-330.54 1885.05,-329.47 1876.14,-323.73 1874.51,-330.54"/>
</g>
<!-- 1990980569472&#45;&gt;1990980574032 -->
<g id="edge61" class="edge">
<title>1990980569472&#45;&gt;1990980574032</title>
<path fill="none" stroke="black" d="M1850.28,-308.87C1859.23,-306.73 1869.67,-304.22 1880.16,-301.7"/>
<polygon fill="black" stroke="black" points="1880.66,-305.18 1889.57,-299.44 1879.03,-298.37 1880.66,-305.18"/>
</g>
<!-- 1990980573120&#45;&gt;1990980571488 -->
<g id="edge65" class="edge">
<title>1990980573120&#45;&gt;1990980571488</title>
<path fill="none" stroke="black" d="M2080.15,-315C2087.64,-315 2095.93,-315 2103.95,-315"/>
<polygon fill="black" stroke="black" points="2103.85,-318.5 2113.85,-315 2103.85,-311.5 2103.85,-318.5"/>
</g>
</g>
</svg>
