<?xml version="1.0" encoding="UTF-8" standalone="no"?>
<!DOCTYPE svg PUBLIC "-//W3C//DTD SVG 1.1//EN"
 "http://www.w3.org/Graphics/SVG/1.1/DTD/svg11.dtd">
<!-- Generated by graphviz version 11.0.0 (20240428.1522)
 -->
<!-- Title: imdf_net_1754052346.9775648 Pages: 1 -->
<svg width="3132pt" height="208pt"
 viewBox="0.00 0.00 3131.50 208.00" xmlns="http://www.w3.org/2000/svg" xmlns:xlink="http://www.w3.org/1999/xlink">
<g id="graph0" class="graph" transform="scale(1 1) rotate(0) translate(4 204)">
<title>imdf_net_1754052346.9775648</title>
<polygon fill="white" stroke="none" points="-4,4 -4,-204 3127.5,-204 3127.5,4 -4,4"/>
<!-- 1990976977520 -->
<g id="node1" class="node">
<title>1990976977520</title>
<polygon fill="white" stroke="black" points="173.5,-155 90,-155 90,-119 173.5,-119 173.5,-155"/>
<text text-anchor="middle" x="131.75" y="-131.97" font-family="Times New Roman,serif" font-size="12.00">Mission Setup</text>
</g>
<!-- 1990976967872 -->
<g id="node21" class="node">
<title>1990976967872</title>
<ellipse fill="white" stroke="black" cx="236.5" cy="-137" rx="27" ry="27"/>
</g>
<!-- 1990976977520&#45;&gt;1990976967872 -->
<g id="edge2" class="edge">
<title>1990976977520&#45;&gt;1990976967872</title>
<path fill="none" stroke="black" d="M173.95,-137C181.81,-137 190,-137 197.75,-137"/>
<polygon fill="black" stroke="black" points="197.55,-140.5 207.55,-137 197.55,-133.5 197.55,-140.5"/>
</g>
<!-- 1990976965136 -->
<g id="node2" class="node">
<title>1990976965136</title>
<polygon fill="white" stroke="black" points="380.75,-155 299.5,-155 299.5,-119 380.75,-119 380.75,-155"/>
<text text-anchor="middle" x="340.12" y="-131.97" font-family="Times New Roman,serif" font-size="12.00">Health Check</text>
</g>
<!-- 1990976970320 -->
<g id="node22" class="node">
<title>1990976970320</title>
<ellipse fill="white" stroke="black" cx="443.75" cy="-137" rx="27" ry="27"/>
</g>
<!-- 1990976965136&#45;&gt;1990976970320 -->
<g id="edge4" class="edge">
<title>1990976965136&#45;&gt;1990976970320</title>
<path fill="none" stroke="black" d="M381,-137C388.9,-137 397.17,-137 405,-137"/>
<polygon fill="black" stroke="black" points="404.92,-140.5 414.92,-137 404.92,-133.5 404.92,-140.5"/>
</g>
<!-- 1990976964848 -->
<g id="node3" class="node">
<title>1990976964848</title>
<polygon fill="white" stroke="black" points="580.5,-155 506.75,-155 506.75,-119 580.5,-119 580.5,-155"/>
<text text-anchor="middle" x="543.62" y="-131.97" font-family="Times New Roman,serif" font-size="12.00">Comm Link</text>
</g>
<!-- 1990976973488 -->
<g id="node23" class="node">
<title>1990976973488</title>
<ellipse fill="white" stroke="black" cx="643.5" cy="-137" rx="27" ry="27"/>
</g>
<!-- 1990976964848&#45;&gt;1990976973488 -->
<g id="edge6" class="edge">
<title>1990976964848&#45;&gt;1990976973488</title>
<path fill="none" stroke="black" d="M580.79,-137C588.69,-137 597.08,-137 605.03,-137"/>
<polygon fill="black" stroke="black" points="604.75,-140.5 614.75,-137 604.75,-133.5 604.75,-140.5"/>
</g>
<!-- 1990976972864 -->
<g id="node4" class="node">
<title>1990976972864</title>
<polygon fill="white" stroke="black" points="789.62,-186 706.88,-186 706.88,-150 789.62,-150 789.62,-186"/>
<text text-anchor="middle" x="748.25" y="-162.97" font-family="Times New Roman,serif" font-size="12.00">Flight Launch</text>
</g>
<!-- 1990976963120 -->
<g id="node24" class="node">
<title>1990976963120</title>
<ellipse fill="white" stroke="black" cx="853" cy="-173" rx="27" ry="27"/>
</g>
<!-- 1990976972864&#45;&gt;1990976963120 -->
<g id="edge10" class="edge">
<title>1990976972864&#45;&gt;1990976963120</title>
<path fill="none" stroke="black" d="M789.86,-169.98C797.92,-170.37 806.36,-170.78 814.32,-171.17"/>
<polygon fill="black" stroke="black" points="813.88,-174.65 824.04,-171.64 814.22,-167.66 813.88,-174.65"/>
</g>
<!-- 1990980951920 -->
<g id="node5" class="node">
<title>1990980951920</title>
<polygon fill="white" stroke="black" points="790,-128 706.5,-128 706.5,-92 790,-92 790,-128"/>
<text text-anchor="middle" x="748.25" y="-104.97" font-family="Times New Roman,serif" font-size="12.00">Recall Handle</text>
</g>
<!-- 1990980949424 -->
<g id="node25" class="node">
<title>1990980949424</title>
<ellipse fill="white" stroke="black" cx="853" cy="-101" rx="27" ry="27"/>
</g>
<!-- 1990980951920&#45;&gt;1990980949424 -->
<g id="edge9" class="edge">
<title>1990980951920&#45;&gt;1990980949424</title>
<path fill="none" stroke="black" d="M790.45,-106.39C798.38,-105.7 806.66,-104.97 814.47,-104.29"/>
<polygon fill="black" stroke="black" points="814.7,-107.78 824.35,-103.42 814.09,-100.81 814.7,-107.78"/>
</g>
<!-- 1990980946304 -->
<g id="node6" class="node">
<title>1990980946304</title>
<polygon fill="white" stroke="black" points="995,-119 918.25,-119 918.25,-83 995,-83 995,-119"/>
<text text-anchor="middle" x="956.62" y="-95.97" font-family="Times New Roman,serif" font-size="12.00">Log Archive</text>
</g>
<!-- 1990980949616 -->
<g id="node27" class="node">
<title>1990980949616</title>
<ellipse fill="white" stroke="black" cx="1060.25" cy="-101" rx="27" ry="27"/>
</g>
<!-- 1990980946304&#45;&gt;1990980949616 -->
<g id="edge13" class="edge">
<title>1990980946304&#45;&gt;1990980949616</title>
<path fill="none" stroke="black" d="M995.47,-101C1003.9,-101 1012.85,-101 1021.3,-101"/>
<polygon fill="black" stroke="black" points="1021.28,-104.5 1031.28,-101 1021.28,-97.5 1021.28,-104.5"/>
</g>
<!-- 1990976978288 -->
<g id="node7" class="node">
<title>1990976978288</title>
<polygon fill="white" stroke="black" points="997.25,-191 916,-191 916,-155 997.25,-155 997.25,-191"/>
<text text-anchor="middle" x="956.62" y="-167.97" font-family="Times New Roman,serif" font-size="12.00">Traffic Coord</text>
</g>
<!-- 1990976978480 -->
<g id="node26" class="node">
<title>1990976978480</title>
<ellipse fill="white" stroke="black" cx="1060.25" cy="-173" rx="27" ry="27"/>
</g>
<!-- 1990976978288&#45;&gt;1990976978480 -->
<g id="edge14" class="edge">
<title>1990976978288&#45;&gt;1990976978480</title>
<path fill="none" stroke="black" d="M997.5,-173C1005.4,-173 1013.67,-173 1021.5,-173"/>
<polygon fill="black" stroke="black" points="1021.42,-176.5 1031.42,-173 1021.42,-169.5 1021.42,-176.5"/>
</g>
<!-- 1990980949856 -->
<g id="node8" class="node">
<title>1990980949856</title>
<polygon fill="white" stroke="black" points="1345,-125 1238.25,-125 1238.25,-89 1345,-89 1345,-125"/>
<text text-anchor="middle" x="1291.62" y="-101.97" font-family="Times New Roman,serif" font-size="12.00">Compliance Check</text>
</g>
<!-- 1990976971472 -->
<g id="node29" class="node">
<title>1990976971472</title>
<ellipse fill="white" stroke="black" cx="2131.25" cy="-134" rx="27" ry="27"/>
</g>
<!-- 1990980949856&#45;&gt;1990976971472 -->
<g id="edge18" class="edge">
<title>1990980949856&#45;&gt;1990976971472</title>
<path fill="none" stroke="black" d="M1345.4,-108.46C1391.43,-109.6 1460,-111 1519.75,-111 1519.75,-111 1519.75,-111 1929.5,-111 1986.97,-111 2053.1,-120.42 2093.27,-127.2"/>
<polygon fill="black" stroke="black" points="2092.43,-130.61 2102.88,-128.86 2093.62,-123.71 2092.43,-130.61"/>
</g>
<!-- 1990976969840 -->
<g id="node9" class="node">
<title>1990976969840</title>
<polygon fill="white" stroke="black" points="1202.25,-190 1123.25,-190 1123.25,-154 1202.25,-154 1202.25,-190"/>
<text text-anchor="middle" x="1162.75" y="-166.97" font-family="Times New Roman,serif" font-size="12.00">Data Capture</text>
</g>
<!-- 1990976968496 -->
<g id="node28" class="node">
<title>1990976968496</title>
<ellipse fill="white" stroke="black" cx="1291.62" cy="-171" rx="27" ry="27"/>
</g>
<!-- 1990976969840&#45;&gt;1990976968496 -->
<g id="edge17" class="edge">
<title>1990976969840&#45;&gt;1990976968496</title>
<path fill="none" stroke="black" d="M1202.51,-171.69C1218.57,-171.57 1237.14,-171.42 1253.08,-171.3"/>
<polygon fill="black" stroke="black" points="1252.66,-174.8 1262.64,-171.22 1252.61,-167.8 1252.66,-174.8"/>
</g>
<!-- 1990976967296 -->
<g id="node10" class="node">
<title>1990976967296</title>
<polygon fill="white" stroke="black" points="1457.75,-187 1381,-187 1381,-151 1457.75,-151 1457.75,-187"/>
<text text-anchor="middle" x="1419.38" y="-163.97" font-family="Times New Roman,serif" font-size="12.00">Data Upload</text>
</g>
<!-- 1990976964560 -->
<g id="node30" class="node">
<title>1990976964560</title>
<ellipse fill="white" stroke="black" cx="1520.75" cy="-168" rx="27" ry="27"/>
</g>
<!-- 1990976967296&#45;&gt;1990976964560 -->
<g id="edge21" class="edge">
<title>1990976967296&#45;&gt;1990976964560</title>
<path fill="none" stroke="black" d="M1458.23,-168.62C1466.02,-168.54 1474.23,-168.46 1482.02,-168.38"/>
<polygon fill="black" stroke="black" points="1481.94,-171.88 1491.9,-168.28 1481.87,-164.88 1481.94,-171.88"/>
</g>
<!-- 1990976964944 -->
<g id="node11" class="node">
<title>1990976964944</title>
<polygon fill="black" stroke="black" points="2248.25,-152 2194.25,-152 2194.25,-116 2248.25,-116 2248.25,-152"/>
</g>
<!-- 1990980951728 -->
<g id="node31" class="node">
<title>1990980951728</title>
<ellipse fill="white" stroke="black" cx="2311.25" cy="-134" rx="27" ry="27"/>
</g>
<!-- 1990976964944&#45;&gt;1990980951728 -->
<g id="edge22" class="edge">
<title>1990976964944&#45;&gt;1990980951728</title>
<path fill="none" stroke="black" d="M2248.65,-134C2256.14,-134 2264.43,-134 2272.45,-134"/>
<polygon fill="black" stroke="black" points="2272.35,-137.5 2282.35,-134 2272.35,-130.5 2272.35,-137.5"/>
</g>
<!-- 1990976235776 -->
<g id="node12" class="node">
<title>1990976235776</title>
<polygon fill="white" stroke="black" points="2454.75,-129 2374.25,-129 2374.25,-93 2454.75,-93 2454.75,-129"/>
<text text-anchor="middle" x="2414.5" y="-105.97" font-family="Times New Roman,serif" font-size="12.00">Battery Swap</text>
</g>
<!-- 1990976232032 -->
<g id="node33" class="node">
<title>1990976232032</title>
<ellipse fill="white" stroke="black" cx="2517.75" cy="-106" rx="27" ry="27"/>
</g>
<!-- 1990976235776&#45;&gt;1990976232032 -->
<g id="edge25" class="edge">
<title>1990976235776&#45;&gt;1990976232032</title>
<path fill="none" stroke="black" d="M2455.23,-109.04C2463.1,-108.65 2471.34,-108.24 2479.14,-107.86"/>
<polygon fill="black" stroke="black" points="2479.21,-111.36 2489.02,-107.37 2478.86,-104.37 2479.21,-111.36"/>
</g>
<!-- 1990976974640 -->
<g id="node13" class="node">
<title>1990976974640</title>
<polygon fill="white" stroke="black" points="1668,-184 1583.75,-184 1583.75,-148 1668,-148 1668,-184"/>
<text text-anchor="middle" x="1625.88" y="-160.97" font-family="Times New Roman,serif" font-size="12.00">Image Process</text>
</g>
<!-- 1990976978096 -->
<g id="node32" class="node">
<title>1990976978096</title>
<ellipse fill="white" stroke="black" cx="1731" cy="-166" rx="27" ry="27"/>
</g>
<!-- 1990976974640&#45;&gt;1990976978096 -->
<g id="edge26" class="edge">
<title>1990976974640&#45;&gt;1990976978096</title>
<path fill="none" stroke="black" d="M1668.23,-166C1676.19,-166 1684.49,-166 1692.33,-166"/>
<polygon fill="black" stroke="black" points="1692.25,-169.5 1702.25,-166 1692.25,-162.5 1692.25,-169.5"/>
</g>
<!-- 1990976969360 -->
<g id="node14" class="node">
<title>1990976969360</title>
<polygon fill="white" stroke="black" points="1865.5,-184 1794,-184 1794,-148 1865.5,-148 1865.5,-184"/>
<text text-anchor="middle" x="1829.75" y="-160.97" font-family="Times New Roman,serif" font-size="12.00">Insight Gen</text>
</g>
<!-- 1990980958832 -->
<g id="node35" class="node">
<title>1990980958832</title>
<ellipse fill="white" stroke="black" cx="1928.5" cy="-166" rx="27" ry="27"/>
</g>
<!-- 1990976969360&#45;&gt;1990980958832 -->
<g id="edge29" class="edge">
<title>1990976969360&#45;&gt;1990980958832</title>
<path fill="none" stroke="black" d="M1865.95,-166C1873.7,-166 1881.94,-166 1889.79,-166"/>
<polygon fill="black" stroke="black" points="1889.76,-169.5 1899.76,-166 1889.76,-162.5 1889.76,-169.5"/>
</g>
<!-- 1990976230640 -->
<g id="node15" class="node">
<title>1990976230640</title>
<polygon fill="white" stroke="black" points="2657.5,-123 2580.75,-123 2580.75,-87 2657.5,-87 2657.5,-123"/>
<text text-anchor="middle" x="2619.12" y="-99.97" font-family="Times New Roman,serif" font-size="12.00">Maintenance</text>
</g>
<!-- 1990980949808 -->
<g id="node34" class="node">
<title>1990980949808</title>
<ellipse fill="white" stroke="black" cx="2720.5" cy="-103" rx="27" ry="27"/>
</g>
<!-- 1990976230640&#45;&gt;1990980949808 -->
<g id="edge30" class="edge">
<title>1990976230640&#45;&gt;1990980949808</title>
<path fill="none" stroke="black" d="M2657.98,-104.24C2665.77,-104.08 2673.98,-103.92 2681.77,-103.76"/>
<polygon fill="black" stroke="black" points="2681.73,-107.26 2691.65,-103.56 2681.58,-100.26 2681.73,-107.26"/>
</g>
<!-- 1990980953744 -->
<g id="node16" class="node">
<title>1990980953744</title>
<polygon fill="white" stroke="black" points="2068.25,-179 1991.5,-179 1991.5,-143 2068.25,-143 2068.25,-179"/>
<text text-anchor="middle" x="2029.88" y="-155.97" font-family="Times New Roman,serif" font-size="12.00">Log Archive</text>
</g>
<!-- 1990980953744&#45;&gt;1990976971472 -->
<g id="edge34" class="edge">
<title>1990980953744&#45;&gt;1990976971472</title>
<path fill="none" stroke="black" d="M2068.73,-150.72C2076.93,-148.49 2085.59,-146.13 2093.74,-143.92"/>
<polygon fill="black" stroke="black" points="2094.62,-147.31 2103.36,-141.31 2092.79,-140.55 2094.62,-147.31"/>
</g>
<!-- 1990976231888 -->
<g id="node17" class="node">
<title>1990976231888</title>
<polygon fill="black" stroke="black" points="2860.12,-121 2806.12,-121 2806.12,-85 2860.12,-85 2860.12,-121"/>
</g>
<!-- 1990977208400 -->
<g id="node37" class="node">
<title>1990977208400</title>
<ellipse fill="white" stroke="black" cx="2949.75" cy="-103" rx="27" ry="27"/>
<ellipse fill="none" stroke="black" cx="2949.75" cy="-103" rx="31" ry="31"/>
<text text-anchor="start" x="2933.25" y="-87.6" font-family="Times New Roman,serif" font-size="32.00">■</text>
</g>
<!-- 1990976231888&#45;&gt;1990977208400 -->
<g id="edge36" class="edge">
<title>1990976231888&#45;&gt;1990977208400</title>
<path fill="none" stroke="black" d="M2860.42,-103C2874.22,-103 2891.45,-103 2907.03,-103"/>
<polygon fill="black" stroke="black" points="2907.01,-106.5 2917.01,-103 2907.01,-99.5 2907.01,-106.5"/>
</g>
<!-- 1990976226800 -->
<g id="node18" class="node">
<title>1990976226800</title>
<polygon fill="white" stroke="black" points="2882.75,-56 2783.5,-56 2783.5,-20 2882.75,-20 2882.75,-56"/>
<text text-anchor="middle" x="2833.12" y="-32.98" font-family="Times New Roman,serif" font-size="12.00">Firmware Update</text>
</g>
<!-- 1990976238752 -->
<g id="node36" class="node">
<title>1990976238752</title>
<ellipse fill="white" stroke="black" cx="2949.75" cy="-27" rx="27" ry="27"/>
</g>
<!-- 1990976226800&#45;&gt;1990976238752 -->
<g id="edge35" class="edge">
<title>1990976226800&#45;&gt;1990976238752</title>
<path fill="none" stroke="black" d="M2883.07,-33.3C2892.46,-32.4 2902.16,-31.47 2911.13,-30.61"/>
<polygon fill="black" stroke="black" points="2911.28,-34.11 2920.9,-29.67 2910.61,-27.14 2911.28,-34.11"/>
</g>
<!-- 1990976239760 -->
<g id="node19" class="node">
<title>1990976239760</title>
<polygon fill="white" stroke="black" points="3123.5,-112 3016.75,-112 3016.75,-76 3123.5,-76 3123.5,-112"/>
<text text-anchor="middle" x="3070.12" y="-88.97" font-family="Times New Roman,serif" font-size="12.00">Compliance Check</text>
</g>
<!-- 1990976239760&#45;&gt;1990980951728 -->
<g id="edge38" class="edge">
<title>1990976239760&#45;&gt;1990980951728</title>
<path fill="none" stroke="black" d="M3042.49,-112.26C3025.56,-122.97 3002.75,-135.77 2980.75,-143 2918.32,-163.52 2899.84,-162 2834.12,-162 2516.75,-162 2516.75,-162 2516.75,-162 2457.72,-162 2389.98,-150.41 2349.18,-142.14"/>
<polygon fill="black" stroke="black" points="2349.91,-138.71 2339.4,-140.11 2348.48,-145.57 2349.91,-138.71"/>
</g>
<!-- 1990981343312 -->
<g id="node20" class="node">
<title>1990981343312</title>
<ellipse fill="white" stroke="black" cx="27" cy="-137" rx="27" ry="27"/>
<text text-anchor="start" x="9.75" y="-119.7" font-family="Times New Roman,serif" font-size="34.00">●</text>
</g>
<!-- 1990981343312&#45;&gt;1990976977520 -->
<g id="edge1" class="edge">
<title>1990981343312&#45;&gt;1990976977520</title>
<path fill="none" stroke="black" d="M54.46,-137C61.82,-137 70.08,-137 78.37,-137"/>
<polygon fill="black" stroke="black" points="78.11,-140.5 88.11,-137 78.11,-133.5 78.11,-140.5"/>
</g>
<!-- 1990976967872&#45;&gt;1990976965136 -->
<g id="edge3" class="edge">
<title>1990976967872&#45;&gt;1990976965136</title>
<path fill="none" stroke="black" d="M263.94,-137C271.21,-137 279.36,-137 287.53,-137"/>
<polygon fill="black" stroke="black" points="287.51,-140.5 297.51,-137 287.51,-133.5 287.51,-140.5"/>
</g>
<!-- 1990976970320&#45;&gt;1990976964848 -->
<g id="edge5" class="edge">
<title>1990976970320&#45;&gt;1990976964848</title>
<path fill="none" stroke="black" d="M471.24,-137C478.62,-137 486.88,-137 495.09,-137"/>
<polygon fill="black" stroke="black" points="495.05,-140.5 505.05,-137 495.05,-133.5 495.05,-140.5"/>
</g>
<!-- 1990976973488&#45;&gt;1990976972864 -->
<g id="edge8" class="edge">
<title>1990976973488&#45;&gt;1990976972864</title>
<path fill="none" stroke="black" d="M669.9,-144.66C677.76,-147.03 686.72,-149.74 695.68,-152.44"/>
<polygon fill="black" stroke="black" points="694.52,-155.75 705.1,-155.28 696.54,-149.04 694.52,-155.75"/>
</g>
<!-- 1990976973488&#45;&gt;1990980951920 -->
<g id="edge7" class="edge">
<title>1990976973488&#45;&gt;1990980951920</title>
<path fill="none" stroke="black" d="M669.9,-130.33C677.59,-128.31 686.33,-126.01 695.1,-123.7"/>
<polygon fill="black" stroke="black" points="695.91,-127.11 704.69,-121.18 694.13,-120.34 695.91,-127.11"/>
</g>
<!-- 1990976963120&#45;&gt;1990976978288 -->
<g id="edge11" class="edge">
<title>1990976963120&#45;&gt;1990976978288</title>
<path fill="none" stroke="black" d="M880.44,-173C887.71,-173 895.86,-173 904.03,-173"/>
<polygon fill="black" stroke="black" points="904.01,-176.5 914.01,-173 904.01,-169.5 904.01,-176.5"/>
</g>
<!-- 1990980949424&#45;&gt;1990980946304 -->
<g id="edge12" class="edge">
<title>1990980949424&#45;&gt;1990980946304</title>
<path fill="none" stroke="black" d="M880.44,-101C888.46,-101 897.54,-101 906.55,-101"/>
<polygon fill="black" stroke="black" points="906.33,-104.5 916.33,-101 906.33,-97.5 906.33,-104.5"/>
</g>
<!-- 1990976978480&#45;&gt;1990976969840 -->
<g id="edge15" class="edge">
<title>1990976978480&#45;&gt;1990976969840</title>
<path fill="none" stroke="black" d="M1087.66,-172.74C1095.09,-172.66 1103.44,-172.58 1111.77,-172.5"/>
<polygon fill="black" stroke="black" points="1111.56,-176 1121.53,-172.4 1111.49,-169 1111.56,-176"/>
</g>
<!-- 1990980949616&#45;&gt;1990980949856 -->
<g id="edge16" class="edge">
<title>1990980949616&#45;&gt;1990980949856</title>
<path fill="none" stroke="black" d="M1087.56,-101.69C1121.19,-102.57 1180.54,-104.12 1226.43,-105.32"/>
<polygon fill="black" stroke="black" points="1226.18,-108.82 1236.26,-105.58 1226.36,-101.82 1226.18,-108.82"/>
</g>
<!-- 1990976968496&#45;&gt;1990976967296 -->
<g id="edge19" class="edge">
<title>1990976968496&#45;&gt;1990976967296</title>
<path fill="none" stroke="black" d="M1318.99,-170.58C1333.64,-170.35 1352.34,-170.05 1369.55,-169.78"/>
<polygon fill="black" stroke="black" points="1369.14,-173.28 1379.08,-169.62 1369.03,-166.28 1369.14,-173.28"/>
</g>
<!-- 1990976971472&#45;&gt;1990976964944 -->
<g id="edge20" class="edge">
<title>1990976971472&#45;&gt;1990976964944</title>
<path fill="none" stroke="black" d="M2158.65,-134C2166.14,-134 2174.43,-134 2182.45,-134"/>
<polygon fill="black" stroke="black" points="2182.35,-137.5 2192.35,-134 2182.35,-130.5 2182.35,-137.5"/>
</g>
<!-- 1990976964560&#45;&gt;1990976974640 -->
<g id="edge24" class="edge">
<title>1990976964560&#45;&gt;1990976974640</title>
<path fill="none" stroke="black" d="M1548.04,-167.49C1555.42,-167.35 1563.73,-167.19 1572.07,-167.02"/>
<polygon fill="black" stroke="black" points="1571.96,-170.53 1581.89,-166.83 1571.82,-163.53 1571.96,-170.53"/>
</g>
<!-- 1990980951728&#45;&gt;1990976235776 -->
<g id="edge23" class="edge">
<title>1990980951728&#45;&gt;1990976235776</title>
<path fill="none" stroke="black" d="M2338.06,-128.14C2345.64,-126.42 2354.2,-124.47 2362.77,-122.52"/>
<polygon fill="black" stroke="black" points="2363.5,-125.95 2372.47,-120.32 2361.95,-119.12 2363.5,-125.95"/>
</g>
<!-- 1990976978096&#45;&gt;1990976969360 -->
<g id="edge27" class="edge">
<title>1990976978096&#45;&gt;1990976969360</title>
<path fill="none" stroke="black" d="M1758.44,-166C1765.81,-166 1774.06,-166 1782.23,-166"/>
<polygon fill="black" stroke="black" points="1782.12,-169.5 1792.12,-166 1782.12,-162.5 1782.12,-169.5"/>
</g>
<!-- 1990976232032&#45;&gt;1990976230640 -->
<g id="edge28" class="edge">
<title>1990976232032&#45;&gt;1990976230640</title>
<path fill="none" stroke="black" d="M2545.12,-105.73C2552.47,-105.66 2560.69,-105.58 2568.9,-105.5"/>
<polygon fill="black" stroke="black" points="2568.93,-109 2578.89,-105.39 2568.86,-102 2568.93,-109"/>
</g>
<!-- 1990980949808&#45;&gt;1990976231888 -->
<g id="edge32" class="edge">
<title>1990980949808&#45;&gt;1990976231888</title>
<path fill="none" stroke="black" d="M2748,-103C2761.95,-103 2779.31,-103 2794.62,-103"/>
<polygon fill="black" stroke="black" points="2794.33,-106.5 2804.33,-103 2794.33,-99.5 2794.33,-106.5"/>
</g>
<!-- 1990980949808&#45;&gt;1990976226800 -->
<g id="edge33" class="edge">
<title>1990980949808&#45;&gt;1990976226800</title>
<path fill="none" stroke="black" d="M2744.42,-89.53C2757.94,-81.59 2775.45,-71.3 2791.27,-62.01"/>
<polygon fill="black" stroke="black" points="2792.69,-65.23 2799.54,-57.15 2789.14,-59.2 2792.69,-65.23"/>
</g>
<!-- 1990980958832&#45;&gt;1990980953744 -->
<g id="edge31" class="edge">
<title>1990980958832&#45;&gt;1990980953744</title>
<path fill="none" stroke="black" d="M1955.87,-164.67C1963.3,-164.3 1971.63,-163.88 1979.94,-163.46"/>
<polygon fill="black" stroke="black" points="1979.83,-166.97 1989.65,-162.97 1979.48,-159.98 1979.83,-166.97"/>
</g>
<!-- 1990976238752&#45;&gt;1990976239760 -->
<g id="edge37" class="edge">
<title>1990976238752&#45;&gt;1990976239760</title>
<path fill="none" stroke="black" d="M2973.85,-40.08C2988.96,-48.62 3009.12,-60.04 3027.02,-70.17"/>
<polygon fill="black" stroke="black" points="3024.93,-73.01 3035.36,-74.89 3028.38,-66.92 3024.93,-73.01"/>
</g>
</g>
</svg>
