<?xml version="1.0" encoding="UTF-8" standalone="no"?>
<!DOCTYPE svg PUBLIC "-//W3C//DTD SVG 1.1//EN"
 "http://www.w3.org/Graphics/SVG/1.1/DTD/svg11.dtd">
<!-- Generated by graphviz version 11.0.0 (20240428.1522)
 -->
<!-- Title: imdf_net_1754052346.4140668 Pages: 1 -->
<svg width="3035pt" height="193pt"
 viewBox="0.00 0.00 3035.25 193.00" xmlns="http://www.w3.org/2000/svg" xmlns:xlink="http://www.w3.org/1999/xlink">
<g id="graph0" class="graph" transform="scale(1 1) rotate(0) translate(4 189)">
<title>imdf_net_1754052346.4140668</title>
<polygon fill="white" stroke="none" points="-4,4 -4,-189 3031.25,-189 3031.25,4 -4,4"/>
<!-- 1990981080496 -->
<g id="node1" class="node">
<title>1990981080496</title>
<polygon fill="white" stroke="black" points="163,-163 90,-163 90,-127 163,-127 163,-163"/>
<text text-anchor="middle" x="126.5" y="-139.97" font-family="Times New Roman,serif" font-size="12.00">Fleet Check</text>
</g>
<!-- 1990977358640 -->
<g id="node19" class="node">
<title>1990977358640</title>
<ellipse fill="white" stroke="black" cx="226" cy="-145" rx="27" ry="27"/>
</g>
<!-- 1990981080496&#45;&gt;1990977358640 -->
<g id="edge2" class="edge">
<title>1990981080496&#45;&gt;1990977358640</title>
<path fill="none" stroke="black" d="M163.25,-145C171.14,-145 179.52,-145 187.47,-145"/>
<polygon fill="black" stroke="black" points="187.21,-148.5 197.21,-145 187.21,-141.5 187.21,-148.5"/>
</g>
<!-- 1990981529200 -->
<g id="node2" class="node">
<title>1990981529200</title>
<polygon fill="white" stroke="black" points="357.5,-163 289,-163 289,-127 357.5,-127 357.5,-163"/>
<text text-anchor="middle" x="323.25" y="-139.97" font-family="Times New Roman,serif" font-size="12.00">Route Plan</text>
</g>
<!-- 1990981525456 -->
<g id="node20" class="node">
<title>1990981525456</title>
<ellipse fill="white" stroke="black" cx="420.5" cy="-145" rx="27" ry="27"/>
</g>
<!-- 1990981529200&#45;&gt;1990981525456 -->
<g id="edge4" class="edge">
<title>1990981529200&#45;&gt;1990981525456</title>
<path fill="none" stroke="black" d="M357.83,-145C365.6,-145 373.93,-145 381.86,-145"/>
<polygon fill="black" stroke="black" points="381.58,-148.5 391.58,-145 381.58,-141.5 381.58,-148.5"/>
</g>
<!-- 1990981345184 -->
<g id="node3" class="node">
<title>1990981345184</title>
<polygon fill="white" stroke="black" points="565.5,-163 483.5,-163 483.5,-127 565.5,-127 565.5,-163"/>
<text text-anchor="middle" x="524.5" y="-139.97" font-family="Times New Roman,serif" font-size="12.00">Weather Scan</text>
</g>
<!-- 1990977242608 -->
<g id="node21" class="node">
<title>1990977242608</title>
<ellipse fill="white" stroke="black" cx="628.5" cy="-145" rx="27" ry="27"/>
</g>
<!-- 1990981345184&#45;&gt;1990977242608 -->
<g id="edge6" class="edge">
<title>1990981345184&#45;&gt;1990977242608</title>
<path fill="none" stroke="black" d="M565.81,-145C573.73,-145 582,-145 589.82,-145"/>
<polygon fill="black" stroke="black" points="589.73,-148.5 599.73,-145 589.73,-141.5 589.73,-148.5"/>
</g>
<!-- 1990978342112 -->
<g id="node4" class="node">
<title>1990978342112</title>
<polygon fill="white" stroke="black" points="778,-163 691.5,-163 691.5,-127 778,-127 778,-163"/>
<text text-anchor="middle" x="734.75" y="-139.97" font-family="Times New Roman,serif" font-size="12.00">Airspace Clear</text>
</g>
<!-- 1990978340672 -->
<g id="node22" class="node">
<title>1990978340672</title>
<ellipse fill="white" stroke="black" cx="841" cy="-145" rx="27" ry="27"/>
</g>
<!-- 1990978342112&#45;&gt;1990978340672 -->
<g id="edge8" class="edge">
<title>1990978342112&#45;&gt;1990978340672</title>
<path fill="none" stroke="black" d="M778.45,-145C786.37,-145 794.59,-145 802.34,-145"/>
<polygon fill="black" stroke="black" points="802.14,-148.5 812.14,-145 802.14,-141.5 802.14,-148.5"/>
</g>
<!-- 1990978355168 -->
<g id="node5" class="node">
<title>1990978355168</title>
<polygon fill="white" stroke="black" points="993.5,-163 904,-163 904,-127 993.5,-127 993.5,-163"/>
<text text-anchor="middle" x="948.75" y="-139.97" font-family="Times New Roman,serif" font-size="12.00">Payload Secure</text>
</g>
<!-- 1990978347392 -->
<g id="node23" class="node">
<title>1990978347392</title>
<ellipse fill="white" stroke="black" cx="1056.5" cy="-145" rx="27" ry="27"/>
</g>
<!-- 1990978355168&#45;&gt;1990978347392 -->
<g id="edge10" class="edge">
<title>1990978355168&#45;&gt;1990978347392</title>
<path fill="none" stroke="black" d="M993.98,-145C1001.95,-145 1010.19,-145 1017.95,-145"/>
<polygon fill="black" stroke="black" points="1017.74,-148.5 1027.74,-145 1017.74,-141.5 1017.74,-148.5"/>
</g>
<!-- 1990978351424 -->
<g id="node6" class="node">
<title>1990978351424</title>
<polygon fill="white" stroke="black" points="1213.5,-163 1119.5,-163 1119.5,-127 1213.5,-127 1213.5,-163"/>
<text text-anchor="middle" x="1166.5" y="-139.97" font-family="Times New Roman,serif" font-size="12.00">Flight Authorize</text>
</g>
<!-- 1990978343408 -->
<g id="node24" class="node">
<title>1990978343408</title>
<ellipse fill="white" stroke="black" cx="1276.5" cy="-145" rx="27" ry="27"/>
</g>
<!-- 1990978351424&#45;&gt;1990978343408 -->
<g id="edge12" class="edge">
<title>1990978351424&#45;&gt;1990978343408</title>
<path fill="none" stroke="black" d="M1213.93,-145C1221.81,-145 1229.91,-145 1237.53,-145"/>
<polygon fill="black" stroke="black" points="1237.52,-148.5 1247.52,-145 1237.52,-141.5 1237.52,-148.5"/>
</g>
<!-- 1990978340096 -->
<g id="node7" class="node">
<title>1990978340096</title>
<polygon fill="white" stroke="black" points="1417.75,-163 1339.5,-163 1339.5,-127 1417.75,-127 1417.75,-163"/>
<text text-anchor="middle" x="1378.62" y="-139.97" font-family="Times New Roman,serif" font-size="12.00">Customs File</text>
</g>
<!-- 1990978349696 -->
<g id="node25" class="node">
<title>1990978349696</title>
<ellipse fill="white" stroke="black" cx="1480.75" cy="-145" rx="27" ry="27"/>
</g>
<!-- 1990978340096&#45;&gt;1990978349696 -->
<g id="edge14" class="edge">
<title>1990978340096&#45;&gt;1990978349696</title>
<path fill="none" stroke="black" d="M1418.05,-145C1425.89,-145 1434.13,-145 1441.94,-145"/>
<polygon fill="black" stroke="black" points="1441.86,-148.5 1451.86,-145 1441.86,-141.5 1441.86,-148.5"/>
</g>
<!-- 1990978340336 -->
<g id="node8" class="node">
<title>1990978340336</title>
<polygon fill="white" stroke="black" points="1628.75,-163 1543.75,-163 1543.75,-127 1628.75,-127 1628.75,-163"/>
<text text-anchor="middle" x="1586.25" y="-139.97" font-family="Times New Roman,serif" font-size="12.00">Drone Launch</text>
</g>
<!-- 1990978347056 -->
<g id="node26" class="node">
<title>1990978347056</title>
<ellipse fill="white" stroke="black" cx="1691.75" cy="-145" rx="27" ry="27"/>
</g>
<!-- 1990978340336&#45;&gt;1990978347056 -->
<g id="edge16" class="edge">
<title>1990978340336&#45;&gt;1990978347056</title>
<path fill="none" stroke="black" d="M1629.05,-145C1636.95,-145 1645.17,-145 1652.93,-145"/>
<polygon fill="black" stroke="black" points="1652.76,-148.5 1662.76,-145 1652.76,-141.5 1652.76,-148.5"/>
</g>
<!-- 1990982050272 -->
<g id="node9" class="node">
<title>1990982050272</title>
<polygon fill="white" stroke="black" points="1847.25,-140 1754.75,-140 1754.75,-104 1847.25,-104 1847.25,-140"/>
<text text-anchor="middle" x="1801" y="-116.97" font-family="Times New Roman,serif" font-size="12.00">Real&#45;time Track</text>
</g>
<!-- 1990978353056 -->
<g id="node27" class="node">
<title>1990978353056</title>
<ellipse fill="white" stroke="black" cx="1910.25" cy="-104" rx="27" ry="27"/>
</g>
<!-- 1990982050272&#45;&gt;1990978353056 -->
<g id="edge18" class="edge">
<title>1990982050272&#45;&gt;1990978353056</title>
<path fill="none" stroke="black" d="M1847.48,-114.37C1855.69,-112.99 1864.16,-111.57 1872.1,-110.24"/>
<polygon fill="black" stroke="black" points="1872.48,-113.72 1881.76,-108.61 1871.32,-106.82 1872.48,-113.72"/>
</g>
<!-- 1990982052864 -->
<g id="node10" class="node">
<title>1990982052864</title>
<polygon fill="white" stroke="black" points="2072.5,-157 1974,-157 1974,-121 2072.5,-121 2072.5,-157"/>
<text text-anchor="middle" x="2023.25" y="-133.97" font-family="Times New Roman,serif" font-size="12.00">Mid&#45;flight Adjust</text>
</g>
<!-- 1990982055648 -->
<g id="node28" class="node">
<title>1990982055648</title>
<ellipse fill="white" stroke="black" cx="2136.25" cy="-130" rx="27" ry="27"/>
</g>
<!-- 1990982052864&#45;&gt;1990982055648 -->
<g id="edge23" class="edge">
<title>1990982052864&#45;&gt;1990982055648</title>
<path fill="none" stroke="black" d="M2072.94,-135.05C2081.14,-134.39 2089.54,-133.71 2097.41,-133.07"/>
<polygon fill="black" stroke="black" points="2097.67,-136.56 2107.35,-132.26 2097.1,-129.58 2097.67,-136.56"/>
</g>
<!-- 1990982045184 -->
<g id="node11" class="node">
<title>1990982045184</title>
<polygon fill="white" stroke="black" points="2073.25,-49 1973.25,-49 1973.25,-13 2073.25,-13 2073.25,-49"/>
<text text-anchor="middle" x="2023.25" y="-25.98" font-family="Times New Roman,serif" font-size="12.00">Delivery Confirm</text>
</g>
<!-- 1990982051424 -->
<g id="node29" class="node">
<title>1990982051424</title>
<ellipse fill="white" stroke="black" cx="2136.25" cy="-31" rx="27" ry="27"/>
</g>
<!-- 1990982045184&#45;&gt;1990982051424 -->
<g id="edge24" class="edge">
<title>1990982045184&#45;&gt;1990982051424</title>
<path fill="none" stroke="black" d="M2073.58,-31C2081.66,-31 2089.91,-31 2097.64,-31"/>
<polygon fill="black" stroke="black" points="2097.37,-34.5 2107.37,-31 2097.37,-27.5 2097.37,-34.5"/>
</g>
<!-- 1990982048496 -->
<g id="node12" class="node">
<title>1990982048496</title>
<polygon fill="white" stroke="black" points="2060.88,-103 1985.62,-103 1985.62,-67 2060.88,-67 2060.88,-103"/>
<text text-anchor="middle" x="2023.25" y="-79.97" font-family="Times New Roman,serif" font-size="12.00">No&#45;fly Zone</text>
</g>
<!-- 1990982048496&#45;&gt;1990982055648 -->
<g id="edge22" class="edge">
<title>1990982048496&#45;&gt;1990982055648</title>
<path fill="none" stroke="black" d="M2061.21,-99.98C2073.8,-105.09 2087.82,-110.77 2100.24,-115.81"/>
<polygon fill="black" stroke="black" points="2098.69,-118.96 2109.28,-119.47 2101.32,-112.47 2098.69,-118.96"/>
</g>
<!-- 1990978347152 -->
<g id="node13" class="node">
<title>1990978347152</title>
<polygon fill="black" stroke="black" points="2266.12,-175 2212.12,-175 2212.12,-139 2266.12,-139 2266.12,-175"/>
</g>
<!-- 1990978347152&#45;&gt;1990978347056 -->
<g id="edge27" class="edge">
<title>1990978347152&#45;&gt;1990978347056</title>
<path fill="none" stroke="black" d="M2211.93,-162.67C2171.75,-170.85 2092.41,-185 2024.25,-185 1909.25,-185 1909.25,-185 1909.25,-185 1844.83,-185 1771.39,-167.66 1728.73,-155.81"/>
<polygon fill="black" stroke="black" points="1729.84,-152.49 1719.26,-153.13 1727.92,-159.22 1729.84,-152.49"/>
</g>
<!-- 1990982057136 -->
<g id="node14" class="node">
<title>1990982057136</title>
<polygon fill="white" stroke="black" points="2279,-49 2199.25,-49 2199.25,-13 2279,-13 2279,-49"/>
<text text-anchor="middle" x="2239.12" y="-25.98" font-family="Times New Roman,serif" font-size="12.00">Return Route</text>
</g>
<!-- 1990982042016 -->
<g id="node30" class="node">
<title>1990982042016</title>
<ellipse fill="white" stroke="black" cx="2342" cy="-31" rx="27" ry="27"/>
</g>
<!-- 1990982057136&#45;&gt;1990982042016 -->
<g id="edge28" class="edge">
<title>1990982057136&#45;&gt;1990982042016</title>
<path fill="none" stroke="black" d="M2279.41,-31C2287.28,-31 2295.52,-31 2303.32,-31"/>
<polygon fill="black" stroke="black" points="2303.22,-34.5 2313.22,-31 2303.22,-27.5 2303.22,-34.5"/>
</g>
<!-- 1990982053344 -->
<g id="node15" class="node">
<title>1990982053344</title>
<polygon fill="white" stroke="black" points="2496,-49 2405,-49 2405,-13 2496,-13 2496,-49"/>
<text text-anchor="middle" x="2450.5" y="-25.98" font-family="Times New Roman,serif" font-size="12.00">Post&#45;flight Scan</text>
</g>
<!-- 1990978844864 -->
<g id="node31" class="node">
<title>1990978844864</title>
<ellipse fill="white" stroke="black" cx="2559" cy="-31" rx="27" ry="27"/>
</g>
<!-- 1990982053344&#45;&gt;1990978844864 -->
<g id="edge30" class="edge">
<title>1990982053344&#45;&gt;1990978844864</title>
<path fill="none" stroke="black" d="M2496.36,-31C2504.36,-31 2512.62,-31 2520.4,-31"/>
<polygon fill="black" stroke="black" points="2520.21,-34.5 2530.21,-31 2520.21,-27.5 2520.21,-34.5"/>
</g>
<!-- 1990978836128 -->
<g id="node16" class="node">
<title>1990978836128</title>
<polygon fill="white" stroke="black" points="2687.5,-49 2622,-49 2622,-13 2687.5,-13 2687.5,-49"/>
<text text-anchor="middle" x="2654.75" y="-25.98" font-family="Times New Roman,serif" font-size="12.00">Data Sync</text>
</g>
<!-- 1990982042496 -->
<g id="node32" class="node">
<title>1990982042496</title>
<ellipse fill="white" stroke="black" cx="2750.5" cy="-31" rx="27" ry="27"/>
</g>
<!-- 1990978836128&#45;&gt;1990982042496 -->
<g id="edge32" class="edge">
<title>1990978836128&#45;&gt;1990982042496</title>
<path fill="none" stroke="black" d="M2687.75,-31C2695.52,-31 2703.9,-31 2711.9,-31"/>
<polygon fill="black" stroke="black" points="2711.73,-34.5 2721.73,-31 2711.73,-27.5 2711.73,-34.5"/>
</g>
<!-- 1990982042304 -->
<g id="node17" class="node">
<title>1990982042304</title>
<polygon fill="white" stroke="black" points="2929.25,-49 2813.5,-49 2813.5,-13 2929.25,-13 2929.25,-49"/>
<text text-anchor="middle" x="2871.38" y="-25.98" font-family="Times New Roman,serif" font-size="12.00">Performance Review</text>
</g>
<!-- 1990979158384 -->
<g id="node33" class="node">
<title>1990979158384</title>
<ellipse fill="white" stroke="black" cx="2996.25" cy="-31" rx="27" ry="27"/>
<ellipse fill="none" stroke="black" cx="2996.25" cy="-31" rx="31" ry="31"/>
<text text-anchor="start" x="2979.75" y="-15.6" font-family="Times New Roman,serif" font-size="32.00">■</text>
</g>
<!-- 1990982042304&#45;&gt;1990979158384 -->
<g id="edge34" class="edge">
<title>1990982042304&#45;&gt;1990979158384</title>
<path fill="none" stroke="black" d="M2929.5,-31C2937.65,-31 2945.91,-31 2953.69,-31"/>
<polygon fill="black" stroke="black" points="2953.55,-34.5 2963.55,-31 2953.55,-27.5 2953.55,-34.5"/>
</g>
<!-- 1990979171488 -->
<g id="node18" class="node">
<title>1990979171488</title>
<ellipse fill="white" stroke="black" cx="27" cy="-145" rx="27" ry="27"/>
<text text-anchor="start" x="9.75" y="-127.7" font-family="Times New Roman,serif" font-size="34.00">●</text>
</g>
<!-- 1990979171488&#45;&gt;1990981080496 -->
<g id="edge1" class="edge">
<title>1990979171488&#45;&gt;1990981080496</title>
<path fill="none" stroke="black" d="M54.38,-145C61.74,-145 69.97,-145 78.15,-145"/>
<polygon fill="black" stroke="black" points="78.06,-148.5 88.06,-145 78.06,-141.5 78.06,-148.5"/>
</g>
<!-- 1990977358640&#45;&gt;1990981529200 -->
<g id="edge3" class="edge">
<title>1990977358640&#45;&gt;1990981529200</title>
<path fill="none" stroke="black" d="M253.28,-145C260.69,-145 268.97,-145 277.15,-145"/>
<polygon fill="black" stroke="black" points="277.03,-148.5 287.03,-145 277.03,-141.5 277.03,-148.5"/>
</g>
<!-- 1990981525456&#45;&gt;1990981345184 -->
<g id="edge5" class="edge">
<title>1990981525456&#45;&gt;1990981345184</title>
<path fill="none" stroke="black" d="M447.77,-145C455.15,-145 463.45,-145 471.78,-145"/>
<polygon fill="black" stroke="black" points="471.55,-148.5 481.55,-145 471.55,-141.5 471.55,-148.5"/>
</g>
<!-- 1990977242608&#45;&gt;1990978342112 -->
<g id="edge7" class="edge">
<title>1990977242608&#45;&gt;1990978342112</title>
<path fill="none" stroke="black" d="M655.81,-145C663.19,-145 671.49,-145 679.86,-145"/>
<polygon fill="black" stroke="black" points="679.71,-148.5 689.71,-145 679.71,-141.5 679.71,-148.5"/>
</g>
<!-- 1990978340672&#45;&gt;1990978355168 -->
<g id="edge9" class="edge">
<title>1990978340672&#45;&gt;1990978355168</title>
<path fill="none" stroke="black" d="M868.41,-145C875.73,-145 883.96,-145 892.28,-145"/>
<polygon fill="black" stroke="black" points="892.08,-148.5 902.08,-145 892.08,-141.5 892.08,-148.5"/>
</g>
<!-- 1990978347392&#45;&gt;1990978351424 -->
<g id="edge11" class="edge">
<title>1990978347392&#45;&gt;1990978351424</title>
<path fill="none" stroke="black" d="M1083.92,-145C1091.22,-145 1099.44,-145 1107.77,-145"/>
<polygon fill="black" stroke="black" points="1107.63,-148.5 1117.63,-145 1107.63,-141.5 1107.63,-148.5"/>
</g>
<!-- 1990978343408&#45;&gt;1990978340096 -->
<g id="edge13" class="edge">
<title>1990978343408&#45;&gt;1990978340096</title>
<path fill="none" stroke="black" d="M1303.81,-145C1311.13,-145 1319.34,-145 1327.55,-145"/>
<polygon fill="black" stroke="black" points="1327.55,-148.5 1337.55,-145 1327.55,-141.5 1327.55,-148.5"/>
</g>
<!-- 1990978349696&#45;&gt;1990978340336 -->
<g id="edge15" class="edge">
<title>1990978349696&#45;&gt;1990978340336</title>
<path fill="none" stroke="black" d="M1508.14,-145C1515.55,-145 1523.88,-145 1532.26,-145"/>
<polygon fill="black" stroke="black" points="1532.11,-148.5 1542.11,-145 1532.11,-141.5 1532.11,-148.5"/>
</g>
<!-- 1990978347056&#45;&gt;1990982050272 -->
<g id="edge17" class="edge">
<title>1990978347056&#45;&gt;1990982050272</title>
<path fill="none" stroke="black" d="M1718.44,-139.49C1726.02,-137.87 1734.64,-136.02 1743.36,-134.15"/>
<polygon fill="black" stroke="black" points="1743.87,-137.62 1752.91,-132.1 1742.4,-130.77 1743.87,-137.62"/>
</g>
<!-- 1990978353056&#45;&gt;1990982052864 -->
<g id="edge20" class="edge">
<title>1990978353056&#45;&gt;1990982052864</title>
<path fill="none" stroke="black" d="M1936.44,-111.94C1944.35,-114.44 1953.44,-117.3 1962.68,-120.22"/>
<polygon fill="black" stroke="black" points="1961.51,-123.52 1972.1,-123.19 1963.61,-116.84 1961.51,-123.52"/>
</g>
<!-- 1990978353056&#45;&gt;1990982045184 -->
<g id="edge21" class="edge">
<title>1990978353056&#45;&gt;1990982045184</title>
<path fill="none" stroke="black" d="M1931.98,-87.52C1943.8,-78.41 1959.04,-67.13 1973.25,-58 1974.65,-57.1 1976.09,-56.19 1977.55,-55.3"/>
<polygon fill="black" stroke="black" points="1979.27,-58.35 1986.07,-50.23 1975.69,-52.33 1979.27,-58.35"/>
</g>
<!-- 1990978353056&#45;&gt;1990982048496 -->
<g id="edge19" class="edge">
<title>1990978353056&#45;&gt;1990982048496</title>
<path fill="none" stroke="black" d="M1937.27,-99.55C1948.38,-97.65 1961.69,-95.37 1974.46,-93.18"/>
<polygon fill="black" stroke="black" points="1974.7,-96.69 1983.97,-91.55 1973.52,-89.79 1974.7,-96.69"/>
</g>
<!-- 1990982055648&#45;&gt;1990978347152 -->
<g id="edge26" class="edge">
<title>1990982055648&#45;&gt;1990978347152</title>
<path fill="none" stroke="black" d="M2162.71,-136.81C2174.35,-139.93 2188.38,-143.68 2201.16,-147.1"/>
<polygon fill="black" stroke="black" points="2199.95,-150.4 2210.51,-149.61 2201.76,-143.64 2199.95,-150.4"/>
</g>
<!-- 1990982051424&#45;&gt;1990982057136 -->
<g id="edge25" class="edge">
<title>1990982051424&#45;&gt;1990982057136</title>
<path fill="none" stroke="black" d="M2163.49,-31C2170.96,-31 2179.35,-31 2187.74,-31"/>
<polygon fill="black" stroke="black" points="2187.58,-34.5 2197.58,-31 2187.58,-27.5 2187.58,-34.5"/>
</g>
<!-- 1990982042016&#45;&gt;1990982053344 -->
<g id="edge29" class="edge">
<title>1990982042016&#45;&gt;1990982053344</title>
<path fill="none" stroke="black" d="M2369.33,-31C2376.69,-31 2385,-31 2393.39,-31"/>
<polygon fill="black" stroke="black" points="2393.31,-34.5 2403.31,-31 2393.31,-27.5 2393.31,-34.5"/>
</g>
<!-- 1990978844864&#45;&gt;1990978836128 -->
<g id="edge31" class="edge">
<title>1990978844864&#45;&gt;1990978836128</title>
<path fill="none" stroke="black" d="M2586.11,-31C2593.63,-31 2602.03,-31 2610.29,-31"/>
<polygon fill="black" stroke="black" points="2610.26,-34.5 2620.26,-31 2610.26,-27.5 2610.26,-34.5"/>
</g>
<!-- 1990982042496&#45;&gt;1990982042304 -->
<g id="edge33" class="edge">
<title>1990982042496&#45;&gt;1990982042304</title>
<path fill="none" stroke="black" d="M2777.88,-31C2785.21,-31 2793.51,-31 2802.07,-31"/>
<polygon fill="black" stroke="black" points="2801.89,-34.5 2811.89,-31 2801.89,-27.5 2801.89,-34.5"/>
</g>
</g>
</svg>
