<?xml version="1.0" encoding="UTF-8" standalone="no"?>
<!DOCTYPE svg PUBLIC "-//W3C//DTD SVG 1.1//EN"
 "http://www.w3.org/Graphics/SVG/1.1/DTD/svg11.dtd">
<!-- Generated by graphviz version 11.0.0 (20240428.1522)
 -->
<!-- Title: imdf_net_1754052345.1469104 Pages: 1 -->
<svg width="3024pt" height="134pt"
 viewBox="0.00 0.00 3024.00 134.00" xmlns="http://www.w3.org/2000/svg" xmlns:xlink="http://www.w3.org/1999/xlink">
<g id="graph0" class="graph" transform="scale(1 1) rotate(0) translate(4 130)">
<title>imdf_net_1754052345.1469104</title>
<polygon fill="white" stroke="none" points="-4,4 -4,-130 3020,-130 3020,4 -4,4"/>
<!-- 1990981008080 -->
<g id="node1" class="node">
<title>1990981008080</title>
<polygon fill="white" stroke="black" points="160.75,-81 90,-81 90,-45 160.75,-45 160.75,-81"/>
<text text-anchor="middle" x="125.38" y="-57.98" font-family="Times New Roman,serif" font-size="12.00">Site Survey</text>
</g>
<!-- 1990979920880 -->
<g id="node18" class="node">
<title>1990979920880</title>
<ellipse fill="white" stroke="black" cx="223.75" cy="-63" rx="27" ry="27"/>
</g>
<!-- 1990981008080&#45;&gt;1990979920880 -->
<g id="edge2" class="edge">
<title>1990981008080&#45;&gt;1990979920880</title>
<path fill="none" stroke="black" d="M161.17,-63C168.9,-63 177.14,-63 184.98,-63"/>
<polygon fill="black" stroke="black" points="184.97,-66.5 194.97,-63 184.97,-59.5 184.97,-66.5"/>
</g>
<!-- 1990979920448 -->
<g id="node2" class="node">
<title>1990979920448</title>
<polygon fill="white" stroke="black" points="373.25,-81 286.75,-81 286.75,-45 373.25,-45 373.25,-81"/>
<text text-anchor="middle" x="330" y="-57.98" font-family="Times New Roman,serif" font-size="12.00">Design Layout</text>
</g>
<!-- 1990979920640 -->
<g id="node19" class="node">
<title>1990979920640</title>
<ellipse fill="white" stroke="black" cx="436.25" cy="-63" rx="27" ry="27"/>
</g>
<!-- 1990979920448&#45;&gt;1990979920640 -->
<g id="edge4" class="edge">
<title>1990979920448&#45;&gt;1990979920640</title>
<path fill="none" stroke="black" d="M373.7,-63C381.62,-63 389.84,-63 397.59,-63"/>
<polygon fill="black" stroke="black" points="397.39,-66.5 407.39,-63 397.39,-59.5 397.39,-66.5"/>
</g>
<!-- 1990979924144 -->
<g id="node3" class="node">
<title>1990979924144</title>
<polygon fill="white" stroke="black" points="587.25,-81 499.25,-81 499.25,-45 587.25,-45 587.25,-81"/>
<text text-anchor="middle" x="543.25" y="-57.98" font-family="Times New Roman,serif" font-size="12.00">Structure Build</text>
</g>
<!-- 1990979923712 -->
<g id="node20" class="node">
<title>1990979923712</title>
<ellipse fill="white" stroke="black" cx="650.25" cy="-99" rx="27" ry="27"/>
</g>
<!-- 1990979924144&#45;&gt;1990979923712 -->
<g id="edge6" class="edge">
<title>1990979924144&#45;&gt;1990979923712</title>
<path fill="none" stroke="black" d="M587.56,-77.85C596.19,-80.81 605.15,-83.88 613.48,-86.74"/>
<polygon fill="black" stroke="black" points="612.34,-90.05 622.94,-89.98 614.61,-83.42 612.34,-90.05"/>
</g>
<!-- 1990977848240 -->
<g id="node21" class="node">
<title>1990977848240</title>
<ellipse fill="white" stroke="black" cx="650.25" cy="-27" rx="27" ry="27"/>
</g>
<!-- 1990979924144&#45;&gt;1990977848240 -->
<g id="edge7" class="edge">
<title>1990979924144&#45;&gt;1990977848240</title>
<path fill="none" stroke="black" d="M587.56,-48.15C596.19,-45.19 605.15,-42.12 613.48,-39.26"/>
<polygon fill="black" stroke="black" points="614.61,-42.58 622.94,-36.02 612.34,-35.95 614.61,-42.58"/>
</g>
<!-- 1990977854720 -->
<g id="node4" class="node">
<title>1990977854720</title>
<polygon fill="white" stroke="black" points="808,-45 727.5,-45 727.5,-9 808,-9 808,-45"/>
<text text-anchor="middle" x="767.75" y="-21.98" font-family="Times New Roman,serif" font-size="12.00">Energy Setup</text>
</g>
<!-- 1990978832336 -->
<g id="node23" class="node">
<title>1990978832336</title>
<ellipse fill="white" stroke="black" cx="885.25" cy="-27" rx="27" ry="27"/>
</g>
<!-- 1990977854720&#45;&gt;1990978832336 -->
<g id="edge10" class="edge">
<title>1990977854720&#45;&gt;1990978832336</title>
<path fill="none" stroke="black" d="M808.5,-27C820.86,-27 834.45,-27 846.66,-27"/>
<polygon fill="black" stroke="black" points="846.34,-30.5 856.34,-27 846.34,-23.5 846.34,-30.5"/>
</g>
<!-- 1990981078192 -->
<g id="node5" class="node">
<title>1990981078192</title>
<polygon fill="white" stroke="black" points="822.25,-117 713.25,-117 713.25,-81 822.25,-81 822.25,-117"/>
<text text-anchor="middle" x="767.75" y="-93.97" font-family="Times New Roman,serif" font-size="12.00">Install Hydroponics</text>
</g>
<!-- 1990978839200 -->
<g id="node22" class="node">
<title>1990978839200</title>
<ellipse fill="white" stroke="black" cx="885.25" cy="-99" rx="27" ry="27"/>
</g>
<!-- 1990981078192&#45;&gt;1990978839200 -->
<g id="edge11" class="edge">
<title>1990981078192&#45;&gt;1990978839200</title>
<path fill="none" stroke="black" d="M822.44,-99C830.66,-99 838.98,-99 846.75,-99"/>
<polygon fill="black" stroke="black" points="846.51,-102.5 856.51,-99 846.51,-95.5 846.51,-102.5"/>
</g>
<!-- 1990977856880 -->
<g id="node6" class="node">
<title>1990977856880</title>
<polygon fill="white" stroke="black" points="1025.75,-81 948.25,-81 948.25,-45 1025.75,-45 1025.75,-81"/>
<text text-anchor="middle" x="987" y="-57.98" font-family="Times New Roman,serif" font-size="12.00">Nutrient Mix</text>
</g>
<!-- 1990977850784 -->
<g id="node24" class="node">
<title>1990977850784</title>
<ellipse fill="white" stroke="black" cx="1088.75" cy="-99" rx="27" ry="27"/>
</g>
<!-- 1990977856880&#45;&gt;1990977850784 -->
<g id="edge14" class="edge">
<title>1990977856880&#45;&gt;1990977850784</title>
<path fill="none" stroke="black" d="M1026,-76.71C1034.57,-79.81 1043.64,-83.08 1052.12,-86.14"/>
<polygon fill="black" stroke="black" points="1050.8,-89.39 1061.4,-89.49 1053.18,-82.8 1050.8,-89.39"/>
</g>
<!-- 1990977850400 -->
<g id="node25" class="node">
<title>1990977850400</title>
<ellipse fill="white" stroke="black" cx="1088.75" cy="-27" rx="27" ry="27"/>
</g>
<!-- 1990977856880&#45;&gt;1990977850400 -->
<g id="edge15" class="edge">
<title>1990977856880&#45;&gt;1990977850400</title>
<path fill="none" stroke="black" d="M1026,-49.29C1034.57,-46.19 1043.64,-42.92 1052.12,-39.86"/>
<polygon fill="black" stroke="black" points="1053.18,-43.2 1061.4,-36.51 1050.8,-36.61 1053.18,-43.2"/>
</g>
<!-- 1990977852944 -->
<g id="node7" class="node">
<title>1990977852944</title>
<polygon fill="white" stroke="black" points="1239,-45 1158.5,-45 1158.5,-9 1239,-9 1239,-45"/>
<text text-anchor="middle" x="1198.75" y="-21.98" font-family="Times New Roman,serif" font-size="12.00">Climate Tune</text>
</g>
<!-- 1990978837424 -->
<g id="node26" class="node">
<title>1990978837424</title>
<ellipse fill="white" stroke="black" cx="1308.75" cy="-27" rx="27" ry="27"/>
</g>
<!-- 1990977852944&#45;&gt;1990978837424 -->
<g id="edge19" class="edge">
<title>1990977852944&#45;&gt;1990978837424</title>
<path fill="none" stroke="black" d="M1239.35,-27C1249.39,-27 1260.15,-27 1270.08,-27"/>
<polygon fill="black" stroke="black" points="1269.77,-30.5 1279.77,-27 1269.77,-23.5 1269.77,-30.5"/>
</g>
<!-- 1990977851936 -->
<g id="node8" class="node">
<title>1990977851936</title>
<polygon fill="white" stroke="black" points="1245.75,-117 1151.75,-117 1151.75,-81 1245.75,-81 1245.75,-117"/>
<text text-anchor="middle" x="1198.75" y="-93.97" font-family="Times New Roman,serif" font-size="12.00">Sensor Calibrate</text>
</g>
<!-- 1990978835264 -->
<g id="node27" class="node">
<title>1990978835264</title>
<ellipse fill="white" stroke="black" cx="1308.75" cy="-99" rx="27" ry="27"/>
</g>
<!-- 1990977851936&#45;&gt;1990978835264 -->
<g id="edge18" class="edge">
<title>1990977851936&#45;&gt;1990978835264</title>
<path fill="none" stroke="black" d="M1246.18,-99C1254.06,-99 1262.16,-99 1269.78,-99"/>
<polygon fill="black" stroke="black" points="1269.77,-102.5 1279.77,-99 1269.77,-95.5 1269.77,-102.5"/>
</g>
<!-- 1990978832672 -->
<g id="node9" class="node">
<title>1990978832672</title>
<polygon fill="white" stroke="black" points="1442.5,-81 1371.75,-81 1371.75,-45 1442.5,-45 1442.5,-81"/>
<text text-anchor="middle" x="1407.12" y="-57.98" font-family="Times New Roman,serif" font-size="12.00">Seed Crops</text>
</g>
<!-- 1990978840592 -->
<g id="node28" class="node">
<title>1990978840592</title>
<ellipse fill="white" stroke="black" cx="1505.5" cy="-63" rx="27" ry="27"/>
</g>
<!-- 1990978832672&#45;&gt;1990978840592 -->
<g id="edge22" class="edge">
<title>1990978832672&#45;&gt;1990978840592</title>
<path fill="none" stroke="black" d="M1442.92,-63C1450.65,-63 1458.89,-63 1466.73,-63"/>
<polygon fill="black" stroke="black" points="1466.72,-66.5 1476.72,-63 1466.72,-59.5 1466.72,-66.5"/>
</g>
<!-- 1990978838768 -->
<g id="node10" class="node">
<title>1990978838768</title>
<polygon fill="white" stroke="black" points="1662.5,-81 1568.5,-81 1568.5,-45 1662.5,-45 1662.5,-81"/>
<text text-anchor="middle" x="1615.5" y="-57.98" font-family="Times New Roman,serif" font-size="12.00">Monitor Growth</text>
</g>
<!-- 1990978845584 -->
<g id="node29" class="node">
<title>1990978845584</title>
<ellipse fill="white" stroke="black" cx="1725.5" cy="-63" rx="27" ry="27"/>
</g>
<!-- 1990978838768&#45;&gt;1990978845584 -->
<g id="edge24" class="edge">
<title>1990978838768&#45;&gt;1990978845584</title>
<path fill="none" stroke="black" d="M1662.93,-63C1670.81,-63 1678.91,-63 1686.53,-63"/>
<polygon fill="black" stroke="black" points="1686.52,-66.5 1696.52,-63 1686.52,-59.5 1686.52,-66.5"/>
</g>
<!-- 1990978845056 -->
<g id="node11" class="node">
<title>1990978845056</title>
<polygon fill="white" stroke="black" points="1863,-81 1788.5,-81 1788.5,-45 1863,-45 1863,-81"/>
<text text-anchor="middle" x="1825.75" y="-57.98" font-family="Times New Roman,serif" font-size="12.00">Pest Control</text>
</g>
<!-- 1990978841168 -->
<g id="node30" class="node">
<title>1990978841168</title>
<ellipse fill="white" stroke="black" cx="1926" cy="-63" rx="27" ry="27"/>
</g>
<!-- 1990978845056&#45;&gt;1990978841168 -->
<g id="edge26" class="edge">
<title>1990978845056&#45;&gt;1990978841168</title>
<path fill="none" stroke="black" d="M1863.33,-63C1871.09,-63 1879.29,-63 1887.09,-63"/>
<polygon fill="black" stroke="black" points="1887,-66.5 1897,-63 1887,-59.5 1887,-66.5"/>
</g>
<!-- 1990978834160 -->
<g id="node12" class="node">
<title>1990978834160</title>
<polygon fill="white" stroke="black" points="2070.25,-81 1989,-81 1989,-45 2070.25,-45 2070.25,-81"/>
<text text-anchor="middle" x="2029.62" y="-57.98" font-family="Times New Roman,serif" font-size="12.00">Data Analyze</text>
</g>
<!-- 1990978831904 -->
<g id="node31" class="node">
<title>1990978831904</title>
<ellipse fill="white" stroke="black" cx="2133.25" cy="-63" rx="27" ry="27"/>
</g>
<!-- 1990978834160&#45;&gt;1990978831904 -->
<g id="edge28" class="edge">
<title>1990978834160&#45;&gt;1990978831904</title>
<path fill="none" stroke="black" d="M2070.5,-63C2078.4,-63 2086.67,-63 2094.5,-63"/>
<polygon fill="black" stroke="black" points="2094.42,-66.5 2104.42,-63 2094.42,-59.5 2094.42,-66.5"/>
</g>
<!-- 1990978831376 -->
<g id="node13" class="node">
<title>1990978831376</title>
<polygon fill="white" stroke="black" points="2281.25,-81 2196.25,-81 2196.25,-45 2281.25,-45 2281.25,-81"/>
<text text-anchor="middle" x="2238.75" y="-57.98" font-family="Times New Roman,serif" font-size="12.00">Yield Forecast</text>
</g>
<!-- 1990978841600 -->
<g id="node32" class="node">
<title>1990978841600</title>
<ellipse fill="white" stroke="black" cx="2344.25" cy="-63" rx="27" ry="27"/>
</g>
<!-- 1990978831376&#45;&gt;1990978841600 -->
<g id="edge30" class="edge">
<title>1990978831376&#45;&gt;1990978841600</title>
<path fill="none" stroke="black" d="M2281.55,-63C2289.45,-63 2297.67,-63 2305.43,-63"/>
<polygon fill="black" stroke="black" points="2305.26,-66.5 2315.26,-63 2305.26,-59.5 2305.26,-66.5"/>
</g>
<!-- 1990978845152 -->
<g id="node14" class="node">
<title>1990978845152</title>
<polygon fill="white" stroke="black" points="2484,-81 2407.25,-81 2407.25,-45 2484,-45 2484,-81"/>
<text text-anchor="middle" x="2445.62" y="-57.98" font-family="Times New Roman,serif" font-size="12.00">Harvest Plan</text>
</g>
<!-- 1990978836944 -->
<g id="node33" class="node">
<title>1990978836944</title>
<ellipse fill="white" stroke="black" cx="2547" cy="-63" rx="27" ry="27"/>
</g>
<!-- 1990978845152&#45;&gt;1990978836944 -->
<g id="edge32" class="edge">
<title>1990978845152&#45;&gt;1990978836944</title>
<path fill="none" stroke="black" d="M2484.48,-63C2492.27,-63 2500.48,-63 2508.27,-63"/>
<polygon fill="black" stroke="black" points="2508.15,-66.5 2518.15,-63 2508.15,-59.5 2508.15,-66.5"/>
</g>
<!-- 1990978842176 -->
<g id="node15" class="node">
<title>1990978842176</title>
<polygon fill="white" stroke="black" points="2695.75,-81 2610,-81 2610,-45 2695.75,-45 2695.75,-81"/>
<text text-anchor="middle" x="2652.88" y="-57.98" font-family="Times New Roman,serif" font-size="12.00">Logistics Sync</text>
</g>
<!-- 1990978839632 -->
<g id="node34" class="node">
<title>1990978839632</title>
<ellipse fill="white" stroke="black" cx="2758.75" cy="-63" rx="27" ry="27"/>
</g>
<!-- 1990978842176&#45;&gt;1990978839632 -->
<g id="edge34" class="edge">
<title>1990978842176&#45;&gt;1990978839632</title>
<path fill="none" stroke="black" d="M2696.12,-63C2704.03,-63 2712.25,-63 2720.01,-63"/>
<polygon fill="black" stroke="black" points="2719.82,-66.5 2729.82,-63 2719.82,-59.5 2719.82,-66.5"/>
</g>
<!-- 1990978831664 -->
<g id="node16" class="node">
<title>1990978831664</title>
<polygon fill="white" stroke="black" points="2918,-81 2821.75,-81 2821.75,-45 2918,-45 2918,-81"/>
<text text-anchor="middle" x="2869.88" y="-57.98" font-family="Times New Roman,serif" font-size="12.00">Market Outreach</text>
</g>
<!-- 1990976658016 -->
<g id="node35" class="node">
<title>1990976658016</title>
<ellipse fill="white" stroke="black" cx="2985" cy="-63" rx="27" ry="27"/>
<ellipse fill="none" stroke="black" cx="2985" cy="-63" rx="31" ry="31"/>
<text text-anchor="start" x="2968.5" y="-47.6" font-family="Times New Roman,serif" font-size="32.00">■</text>
</g>
<!-- 1990978831664&#45;&gt;1990976658016 -->
<g id="edge36" class="edge">
<title>1990978831664&#45;&gt;1990976658016</title>
<path fill="none" stroke="black" d="M2918.19,-63C2926.16,-63 2934.37,-63 2942.18,-63"/>
<polygon fill="black" stroke="black" points="2942.12,-66.5 2952.12,-63 2942.12,-59.5 2942.12,-66.5"/>
</g>
<!-- 1990976659216 -->
<g id="node17" class="node">
<title>1990976659216</title>
<ellipse fill="white" stroke="black" cx="27" cy="-63" rx="27" ry="27"/>
<text text-anchor="start" x="9.75" y="-45.7" font-family="Times New Roman,serif" font-size="34.00">●</text>
</g>
<!-- 1990976659216&#45;&gt;1990981008080 -->
<g id="edge1" class="edge">
<title>1990976659216&#45;&gt;1990981008080</title>
<path fill="none" stroke="black" d="M54.33,-63C61.76,-63 70.06,-63 78.28,-63"/>
<polygon fill="black" stroke="black" points="78.24,-66.5 88.24,-63 78.24,-59.5 78.24,-66.5"/>
</g>
<!-- 1990979920880&#45;&gt;1990979920448 -->
<g id="edge3" class="edge">
<title>1990979920880&#45;&gt;1990979920448</title>
<path fill="none" stroke="black" d="M251.06,-63C258.44,-63 266.74,-63 275.11,-63"/>
<polygon fill="black" stroke="black" points="274.96,-66.5 284.96,-63 274.96,-59.5 274.96,-66.5"/>
</g>
<!-- 1990979920640&#45;&gt;1990979924144 -->
<g id="edge5" class="edge">
<title>1990979920640&#45;&gt;1990979924144</title>
<path fill="none" stroke="black" d="M463.75,-63C471.1,-63 479.36,-63 487.69,-63"/>
<polygon fill="black" stroke="black" points="487.5,-66.5 497.5,-63 487.5,-59.5 487.5,-66.5"/>
</g>
<!-- 1990979923712&#45;&gt;1990981078192 -->
<g id="edge9" class="edge">
<title>1990979923712&#45;&gt;1990981078192</title>
<path fill="none" stroke="black" d="M677.75,-99C684.98,-99 693.15,-99 701.54,-99"/>
<polygon fill="black" stroke="black" points="701.52,-102.5 711.52,-99 701.52,-95.5 701.52,-102.5"/>
</g>
<!-- 1990977848240&#45;&gt;1990977854720 -->
<g id="edge8" class="edge">
<title>1990977848240&#45;&gt;1990977854720</title>
<path fill="none" stroke="black" d="M677.75,-27C689.08,-27 702.71,-27 715.86,-27"/>
<polygon fill="black" stroke="black" points="715.71,-30.5 725.71,-27 715.71,-23.5 715.71,-30.5"/>
</g>
<!-- 1990978839200&#45;&gt;1990977856880 -->
<g id="edge13" class="edge">
<title>1990978839200&#45;&gt;1990977856880</title>
<path fill="none" stroke="black" d="M911.16,-90.01C919.13,-87.13 928.23,-83.85 937.29,-80.58"/>
<polygon fill="black" stroke="black" points="938.18,-83.98 946.4,-77.29 935.81,-77.39 938.18,-83.98"/>
</g>
<!-- 1990978832336&#45;&gt;1990977856880 -->
<g id="edge12" class="edge">
<title>1990978832336&#45;&gt;1990977856880</title>
<path fill="none" stroke="black" d="M911.16,-35.99C919.13,-38.87 928.23,-42.15 937.29,-45.42"/>
<polygon fill="black" stroke="black" points="935.81,-48.61 946.4,-48.71 938.18,-42.02 935.81,-48.61"/>
</g>
<!-- 1990977850784&#45;&gt;1990977851936 -->
<g id="edge17" class="edge">
<title>1990977850784&#45;&gt;1990977851936</title>
<path fill="none" stroke="black" d="M1116.17,-99C1123.47,-99 1131.69,-99 1140.02,-99"/>
<polygon fill="black" stroke="black" points="1139.88,-102.5 1149.88,-99 1139.88,-95.5 1139.88,-102.5"/>
</g>
<!-- 1990977850400&#45;&gt;1990977852944 -->
<g id="edge16" class="edge">
<title>1990977850400&#45;&gt;1990977852944</title>
<path fill="none" stroke="black" d="M1116.17,-27C1125.43,-27 1136.18,-27 1146.77,-27"/>
<polygon fill="black" stroke="black" points="1146.6,-30.5 1156.6,-27 1146.6,-23.5 1146.6,-30.5"/>
</g>
<!-- 1990978837424&#45;&gt;1990978832672 -->
<g id="edge20" class="edge">
<title>1990978837424&#45;&gt;1990978832672</title>
<path fill="none" stroke="black" d="M1334.57,-36.27C1342.67,-39.3 1351.93,-42.75 1361.04,-46.16"/>
<polygon fill="black" stroke="black" points="1359.57,-49.35 1370.17,-49.57 1362.02,-42.79 1359.57,-49.35"/>
</g>
<!-- 1990978835264&#45;&gt;1990978832672 -->
<g id="edge21" class="edge">
<title>1990978835264&#45;&gt;1990978832672</title>
<path fill="none" stroke="black" d="M1334.57,-89.73C1342.67,-86.7 1351.93,-83.25 1361.04,-79.84"/>
<polygon fill="black" stroke="black" points="1362.02,-83.21 1370.17,-76.43 1359.57,-76.65 1362.02,-83.21"/>
</g>
<!-- 1990978840592&#45;&gt;1990978838768 -->
<g id="edge23" class="edge">
<title>1990978840592&#45;&gt;1990978838768</title>
<path fill="none" stroke="black" d="M1532.92,-63C1540.22,-63 1548.44,-63 1556.77,-63"/>
<polygon fill="black" stroke="black" points="1556.63,-66.5 1566.63,-63 1556.63,-59.5 1556.63,-66.5"/>
</g>
<!-- 1990978845584&#45;&gt;1990978845056 -->
<g id="edge25" class="edge">
<title>1990978845584&#45;&gt;1990978845056</title>
<path fill="none" stroke="black" d="M1752.83,-63C1760.17,-63 1768.38,-63 1776.56,-63"/>
<polygon fill="black" stroke="black" points="1776.49,-66.5 1786.49,-63 1776.49,-59.5 1776.49,-66.5"/>
</g>
<!-- 1990978841168&#45;&gt;1990978834160 -->
<g id="edge27" class="edge">
<title>1990978841168&#45;&gt;1990978834160</title>
<path fill="none" stroke="black" d="M1953.44,-63C1960.71,-63 1968.86,-63 1977.03,-63"/>
<polygon fill="black" stroke="black" points="1977.01,-66.5 1987.01,-63 1977.01,-59.5 1977.01,-66.5"/>
</g>
<!-- 1990978831904&#45;&gt;1990978831376 -->
<g id="edge29" class="edge">
<title>1990978831904&#45;&gt;1990978831376</title>
<path fill="none" stroke="black" d="M2160.64,-63C2168.05,-63 2176.38,-63 2184.76,-63"/>
<polygon fill="black" stroke="black" points="2184.61,-66.5 2194.61,-63 2184.61,-59.5 2184.61,-66.5"/>
</g>
<!-- 1990978841600&#45;&gt;1990978845152 -->
<g id="edge31" class="edge">
<title>1990978841600&#45;&gt;1990978845152</title>
<path fill="none" stroke="black" d="M2371.62,-63C2378.97,-63 2387.19,-63 2395.4,-63"/>
<polygon fill="black" stroke="black" points="2395.39,-66.5 2405.39,-63 2395.39,-59.5 2395.39,-66.5"/>
</g>
<!-- 1990978836944&#45;&gt;1990978842176 -->
<g id="edge33" class="edge">
<title>1990978836944&#45;&gt;1990978842176</title>
<path fill="none" stroke="black" d="M2574.48,-63C2581.84,-63 2590.1,-63 2598.41,-63"/>
<polygon fill="black" stroke="black" points="2598.19,-66.5 2608.19,-63 2598.19,-59.5 2598.19,-66.5"/>
</g>
<!-- 1990978839632&#45;&gt;1990978831664 -->
<g id="edge35" class="edge">
<title>1990978839632&#45;&gt;1990978831664</title>
<path fill="none" stroke="black" d="M2786.17,-63C2793.45,-63 2801.66,-63 2810,-63"/>
<polygon fill="black" stroke="black" points="2809.87,-66.5 2819.87,-63 2809.87,-59.5 2809.87,-66.5"/>
</g>
</g>
</svg>
