<?xml version="1.0" encoding="UTF-8" standalone="no"?>
<!DOCTYPE svg PUBLIC "-//W3C//DTD SVG 1.1//EN"
 "http://www.w3.org/Graphics/SVG/1.1/DTD/svg11.dtd">
<!-- Generated by graphviz version 11.0.0 (20240428.1522)
 -->
<!-- Title: imdf_net_1754052341.257579 Pages: 1 -->
<svg width="3128pt" height="70pt"
 viewBox="0.00 0.00 3127.75 70.00" xmlns="http://www.w3.org/2000/svg" xmlns:xlink="http://www.w3.org/1999/xlink">
<g id="graph0" class="graph" transform="scale(1 1) rotate(0) translate(4 66)">
<title>imdf_net_1754052341.257579</title>
<polygon fill="white" stroke="none" points="-4,4 -4,-66 3123.75,-66 3123.75,4 -4,4"/>
<!-- 1990981088992 -->
<g id="node1" class="node">
<title>1990981088992</title>
<polygon fill="white" stroke="black" points="159.25,-49 90,-49 90,-13 159.25,-13 159.25,-49"/>
<text text-anchor="middle" x="124.62" y="-25.98" font-family="Times New Roman,serif" font-size="12.00">Site Assess</text>
</g>
<!-- 1990981087792 -->
<g id="node17" class="node">
<title>1990981087792</title>
<ellipse fill="white" stroke="black" cx="222.25" cy="-31" rx="27" ry="27"/>
</g>
<!-- 1990981088992&#45;&gt;1990981087792 -->
<g id="edge2" class="edge">
<title>1990981088992&#45;&gt;1990981087792</title>
<path fill="none" stroke="black" d="M159.61,-31C167.31,-31 175.53,-31 183.38,-31"/>
<polygon fill="black" stroke="black" points="183.38,-34.5 193.38,-31 183.38,-27.5 183.38,-34.5"/>
</g>
<!-- 1990976174272 -->
<g id="node2" class="node">
<title>1990976174272</title>
<polygon fill="white" stroke="black" points="377.75,-49 285.25,-49 285.25,-13 377.75,-13 377.75,-49"/>
<text text-anchor="middle" x="331.5" y="-25.98" font-family="Times New Roman,serif" font-size="12.00">Structure Check</text>
</g>
<!-- 1990976166928 -->
<g id="node18" class="node">
<title>1990976166928</title>
<ellipse fill="white" stroke="black" cx="440.75" cy="-31" rx="27" ry="27"/>
</g>
<!-- 1990976174272&#45;&gt;1990976166928 -->
<g id="edge4" class="edge">
<title>1990976174272&#45;&gt;1990976166928</title>
<path fill="none" stroke="black" d="M377.98,-31C386.02,-31 394.31,-31 402.1,-31"/>
<polygon fill="black" stroke="black" points="401.94,-34.5 411.94,-31 401.94,-27.5 401.94,-34.5"/>
</g>
<!-- 1990979170192 -->
<g id="node3" class="node">
<title>1990979170192</title>
<polygon fill="white" stroke="black" points="570.75,-49 503.75,-49 503.75,-13 570.75,-13 570.75,-49"/>
<text text-anchor="middle" x="537.25" y="-25.98" font-family="Times New Roman,serif" font-size="12.00">Bed Install</text>
</g>
<!-- 1990979164576 -->
<g id="node19" class="node">
<title>1990979164576</title>
<ellipse fill="white" stroke="black" cx="633.75" cy="-31" rx="27" ry="27"/>
</g>
<!-- 1990979170192&#45;&gt;1990979164576 -->
<g id="edge6" class="edge">
<title>1990979170192&#45;&gt;1990979164576</title>
<path fill="none" stroke="black" d="M571.04,-31C578.77,-31 587.08,-31 595.02,-31"/>
<polygon fill="black" stroke="black" points="594.75,-34.5 604.75,-31 594.75,-27.5 594.75,-34.5"/>
</g>
<!-- 1990975750800 -->
<g id="node4" class="node">
<title>1990975750800</title>
<polygon fill="white" stroke="black" points="756.25,-49 696.75,-49 696.75,-13 756.25,-13 756.25,-49"/>
<text text-anchor="middle" x="726.5" y="-25.98" font-family="Times New Roman,serif" font-size="12.00">Soil Prep</text>
</g>
<!-- 1990975755120 -->
<g id="node20" class="node">
<title>1990975755120</title>
<ellipse fill="white" stroke="black" cx="819.25" cy="-31" rx="27" ry="27"/>
</g>
<!-- 1990975750800&#45;&gt;1990975755120 -->
<g id="edge8" class="edge">
<title>1990975750800&#45;&gt;1990975755120</title>
<path fill="none" stroke="black" d="M756.71,-31C764.3,-31 772.59,-31 780.54,-31"/>
<polygon fill="black" stroke="black" points="780.34,-34.5 790.34,-31 780.34,-27.5 780.34,-34.5"/>
</g>
<!-- 1990975754304 -->
<g id="node5" class="node">
<title>1990975754304</title>
<polygon fill="white" stroke="black" points="959.75,-49 882.25,-49 882.25,-13 959.75,-13 959.75,-49"/>
<text text-anchor="middle" x="921" y="-25.98" font-family="Times New Roman,serif" font-size="12.00">Irrigation Set</text>
</g>
<!-- 1990975754112 -->
<g id="node21" class="node">
<title>1990975754112</title>
<ellipse fill="white" stroke="black" cx="1022.75" cy="-31" rx="27" ry="27"/>
</g>
<!-- 1990975754304&#45;&gt;1990975754112 -->
<g id="edge10" class="edge">
<title>1990975754304&#45;&gt;1990975754112</title>
<path fill="none" stroke="black" d="M960,-31C967.82,-31 976.06,-31 983.88,-31"/>
<polygon fill="black" stroke="black" points="983.8,-34.5 993.8,-31 983.8,-27.5 983.8,-34.5"/>
</g>
<!-- 1990975755216 -->
<g id="node6" class="node">
<title>1990975755216</title>
<polygon fill="white" stroke="black" points="1172.25,-49 1085.75,-49 1085.75,-13 1172.25,-13 1172.25,-49"/>
<text text-anchor="middle" x="1129" y="-25.98" font-family="Times New Roman,serif" font-size="12.00">Sensor Deploy</text>
</g>
<!-- 1990975751184 -->
<g id="node22" class="node">
<title>1990975751184</title>
<ellipse fill="white" stroke="black" cx="1235.25" cy="-31" rx="27" ry="27"/>
</g>
<!-- 1990975755216&#45;&gt;1990975751184 -->
<g id="edge12" class="edge">
<title>1990975755216&#45;&gt;1990975751184</title>
<path fill="none" stroke="black" d="M1172.7,-31C1180.62,-31 1188.84,-31 1196.59,-31"/>
<polygon fill="black" stroke="black" points="1196.39,-34.5 1206.39,-31 1196.39,-27.5 1196.39,-34.5"/>
</g>
<!-- 1990975762512 -->
<g id="node7" class="node">
<title>1990975762512</title>
<polygon fill="white" stroke="black" points="1381,-49 1298.25,-49 1298.25,-13 1381,-13 1381,-49"/>
<text text-anchor="middle" x="1339.62" y="-25.98" font-family="Times New Roman,serif" font-size="12.00">Nutrient Tune</text>
</g>
<!-- 1990969795088 -->
<g id="node23" class="node">
<title>1990969795088</title>
<ellipse fill="white" stroke="black" cx="1444" cy="-31" rx="27" ry="27"/>
</g>
<!-- 1990975762512&#45;&gt;1990969795088 -->
<g id="edge14" class="edge">
<title>1990975762512&#45;&gt;1990969795088</title>
<path fill="none" stroke="black" d="M1381.38,-31C1389.23,-31 1397.42,-31 1405.17,-31"/>
<polygon fill="black" stroke="black" points="1404.99,-34.5 1414.99,-31 1404.99,-27.5 1404.99,-34.5"/>
</g>
<!-- 1990969798352 -->
<g id="node8" class="node">
<title>1990969798352</title>
<polygon fill="white" stroke="black" points="1578.5,-49 1507,-49 1507,-13 1578.5,-13 1578.5,-49"/>
<text text-anchor="middle" x="1542.75" y="-25.98" font-family="Times New Roman,serif" font-size="12.00">Crop Select</text>
</g>
<!-- 1990969790048 -->
<g id="node24" class="node">
<title>1990969790048</title>
<ellipse fill="white" stroke="black" cx="1641.5" cy="-31" rx="27" ry="27"/>
</g>
<!-- 1990969798352&#45;&gt;1990969790048 -->
<g id="edge16" class="edge">
<title>1990969798352&#45;&gt;1990969790048</title>
<path fill="none" stroke="black" d="M1578.95,-31C1586.7,-31 1594.94,-31 1602.79,-31"/>
<polygon fill="black" stroke="black" points="1602.76,-34.5 1612.76,-31 1602.76,-27.5 1602.76,-34.5"/>
</g>
<!-- 1990969793888 -->
<g id="node9" class="node">
<title>1990969793888</title>
<polygon fill="white" stroke="black" points="1779,-49 1704.5,-49 1704.5,-13 1779,-13 1779,-49"/>
<text text-anchor="middle" x="1741.75" y="-25.98" font-family="Times New Roman,serif" font-size="12.00">Pest Control</text>
</g>
<!-- 1990969801328 -->
<g id="node25" class="node">
<title>1990969801328</title>
<ellipse fill="white" stroke="black" cx="1842" cy="-31" rx="27" ry="27"/>
</g>
<!-- 1990969793888&#45;&gt;1990969801328 -->
<g id="edge18" class="edge">
<title>1990969793888&#45;&gt;1990969801328</title>
<path fill="none" stroke="black" d="M1779.33,-31C1787.09,-31 1795.29,-31 1803.09,-31"/>
<polygon fill="black" stroke="black" points="1803,-34.5 1813,-31 1803,-27.5 1803,-34.5"/>
</g>
<!-- 1990969798064 -->
<g id="node10" class="node">
<title>1990969798064</title>
<polygon fill="white" stroke="black" points="1984,-49 1905,-49 1905,-13 1984,-13 1984,-49"/>
<text text-anchor="middle" x="1944.5" y="-25.98" font-family="Times New Roman,serif" font-size="12.00">Growth Scan</text>
</g>
<!-- 1990969795616 -->
<g id="node26" class="node">
<title>1990969795616</title>
<ellipse fill="white" stroke="black" cx="2047" cy="-31" rx="27" ry="27"/>
</g>
<!-- 1990969798064&#45;&gt;1990969795616 -->
<g id="edge20" class="edge">
<title>1990969798064&#45;&gt;1990969795616</title>
<path fill="none" stroke="black" d="M1984.36,-31C1992.21,-31 2000.45,-31 2008.26,-31"/>
<polygon fill="black" stroke="black" points="2008.16,-34.5 2018.16,-31 2008.16,-27.5 2008.16,-34.5"/>
</g>
<!-- 1990969790144 -->
<g id="node11" class="node">
<title>1990969790144</title>
<polygon fill="white" stroke="black" points="2192.75,-49 2110,-49 2110,-13 2192.75,-13 2192.75,-49"/>
<text text-anchor="middle" x="2151.38" y="-25.98" font-family="Times New Roman,serif" font-size="12.00">Drone Survey</text>
</g>
<!-- 1990969799360 -->
<g id="node27" class="node">
<title>1990969799360</title>
<ellipse fill="white" stroke="black" cx="2255.75" cy="-31" rx="27" ry="27"/>
</g>
<!-- 1990969790144&#45;&gt;1990969799360 -->
<g id="edge22" class="edge">
<title>1990969790144&#45;&gt;1990969799360</title>
<path fill="none" stroke="black" d="M2193.13,-31C2200.98,-31 2209.17,-31 2216.92,-31"/>
<polygon fill="black" stroke="black" points="2216.74,-34.5 2226.74,-31 2216.74,-27.5 2216.74,-34.5"/>
</g>
<!-- 1990969796672 -->
<g id="node12" class="node">
<title>1990969796672</title>
<polygon fill="white" stroke="black" points="2395.5,-49 2318.75,-49 2318.75,-13 2395.5,-13 2395.5,-49"/>
<text text-anchor="middle" x="2357.12" y="-25.98" font-family="Times New Roman,serif" font-size="12.00">Harvest Plan</text>
</g>
<!-- 1990969790672 -->
<g id="node28" class="node">
<title>1990969790672</title>
<ellipse fill="white" stroke="black" cx="2458.5" cy="-31" rx="27" ry="27"/>
</g>
<!-- 1990969796672&#45;&gt;1990969790672 -->
<g id="edge24" class="edge">
<title>1990969796672&#45;&gt;1990969790672</title>
<path fill="none" stroke="black" d="M2395.98,-31C2403.77,-31 2411.98,-31 2419.77,-31"/>
<polygon fill="black" stroke="black" points="2419.65,-34.5 2429.65,-31 2419.65,-27.5 2419.65,-34.5"/>
</g>
<!-- 1990969793936 -->
<g id="node13" class="node">
<title>1990969793936</title>
<polygon fill="white" stroke="black" points="2598.25,-49 2521.5,-49 2521.5,-13 2598.25,-13 2598.25,-49"/>
<text text-anchor="middle" x="2559.88" y="-25.98" font-family="Times New Roman,serif" font-size="12.00">Package Opt</text>
</g>
<!-- 1990969788032 -->
<g id="node29" class="node">
<title>1990969788032</title>
<ellipse fill="white" stroke="black" cx="2661.25" cy="-31" rx="27" ry="27"/>
</g>
<!-- 1990969793936&#45;&gt;1990969788032 -->
<g id="edge26" class="edge">
<title>1990969793936&#45;&gt;1990969788032</title>
<path fill="none" stroke="black" d="M2598.73,-31C2606.52,-31 2614.73,-31 2622.52,-31"/>
<polygon fill="black" stroke="black" points="2622.4,-34.5 2632.4,-31 2622.4,-27.5 2622.4,-34.5"/>
</g>
<!-- 1990969796432 -->
<g id="node14" class="node">
<title>1990969796432</title>
<polygon fill="white" stroke="black" points="2809.25,-49 2724.25,-49 2724.25,-13 2809.25,-13 2809.25,-49"/>
<text text-anchor="middle" x="2766.75" y="-25.98" font-family="Times New Roman,serif" font-size="12.00">Yield Forecast</text>
</g>
<!-- 1990969800992 -->
<g id="node30" class="node">
<title>1990969800992</title>
<ellipse fill="white" stroke="black" cx="2872.25" cy="-31" rx="27" ry="27"/>
</g>
<!-- 1990969796432&#45;&gt;1990969800992 -->
<g id="edge28" class="edge">
<title>1990969796432&#45;&gt;1990969800992</title>
<path fill="none" stroke="black" d="M2809.55,-31C2817.45,-31 2825.67,-31 2833.43,-31"/>
<polygon fill="black" stroke="black" points="2833.26,-34.5 2843.26,-31 2833.26,-27.5 2833.26,-34.5"/>
</g>
<!-- 1990978992608 -->
<g id="node15" class="node">
<title>1990978992608</title>
<polygon fill="white" stroke="black" points="3021.75,-49 2935.25,-49 2935.25,-13 3021.75,-13 3021.75,-49"/>
<text text-anchor="middle" x="2978.5" y="-25.98" font-family="Times New Roman,serif" font-size="12.00">Waste Manage</text>
</g>
<!-- 1990981089040 -->
<g id="node31" class="node">
<title>1990981089040</title>
<ellipse fill="white" stroke="black" cx="3088.75" cy="-31" rx="27" ry="27"/>
<ellipse fill="none" stroke="black" cx="3088.75" cy="-31" rx="31" ry="31"/>
<text text-anchor="start" x="3072.25" y="-15.6" font-family="Times New Roman,serif" font-size="32.00">■</text>
</g>
<!-- 1990978992608&#45;&gt;1990981089040 -->
<g id="edge30" class="edge">
<title>1990978992608&#45;&gt;1990981089040</title>
<path fill="none" stroke="black" d="M3021.97,-31C3029.93,-31 3038.24,-31 3046.18,-31"/>
<polygon fill="black" stroke="black" points="3045.93,-34.5 3055.93,-31 3045.93,-27.5 3045.93,-34.5"/>
</g>
<!-- 1990981087888 -->
<g id="node16" class="node">
<title>1990981087888</title>
<ellipse fill="white" stroke="black" cx="27" cy="-31" rx="27" ry="27"/>
<text text-anchor="start" x="9.75" y="-13.7" font-family="Times New Roman,serif" font-size="34.00">●</text>
</g>
<!-- 1990981087888&#45;&gt;1990981088992 -->
<g id="edge1" class="edge">
<title>1990981087888&#45;&gt;1990981088992</title>
<path fill="none" stroke="black" d="M54.38,-31C61.82,-31 70.14,-31 78.35,-31"/>
<polygon fill="black" stroke="black" points="78.28,-34.5 88.28,-31 78.28,-27.5 78.28,-34.5"/>
</g>
<!-- 1990981087792&#45;&gt;1990976174272 -->
<g id="edge3" class="edge">
<title>1990981087792&#45;&gt;1990976174272</title>
<path fill="none" stroke="black" d="M249.49,-31C256.82,-31 265.09,-31 273.47,-31"/>
<polygon fill="black" stroke="black" points="273.37,-34.5 283.37,-31 273.37,-27.5 273.37,-34.5"/>
</g>
<!-- 1990976166928&#45;&gt;1990979170192 -->
<g id="edge5" class="edge">
<title>1990976166928&#45;&gt;1990979170192</title>
<path fill="none" stroke="black" d="M468.07,-31C475.5,-31 483.79,-31 491.95,-31"/>
<polygon fill="black" stroke="black" points="491.81,-34.5 501.81,-31 491.81,-27.5 491.81,-34.5"/>
</g>
<!-- 1990979164576&#45;&gt;1990975750800 -->
<g id="edge7" class="edge">
<title>1990979164576&#45;&gt;1990975750800</title>
<path fill="none" stroke="black" d="M661,-31C668.54,-31 676.95,-31 685.13,-31"/>
<polygon fill="black" stroke="black" points="684.93,-34.5 694.93,-31 684.93,-27.5 684.93,-34.5"/>
</g>
<!-- 1990975755120&#45;&gt;1990975754304 -->
<g id="edge9" class="edge">
<title>1990975755120&#45;&gt;1990975754304</title>
<path fill="none" stroke="black" d="M846.72,-31C854.02,-31 862.18,-31 870.33,-31"/>
<polygon fill="black" stroke="black" points="870.25,-34.5 880.25,-31 870.25,-27.5 870.25,-34.5"/>
</g>
<!-- 1990975754112&#45;&gt;1990975755216 -->
<g id="edge11" class="edge">
<title>1990975754112&#45;&gt;1990975755216</title>
<path fill="none" stroke="black" d="M1050.06,-31C1057.44,-31 1065.74,-31 1074.11,-31"/>
<polygon fill="black" stroke="black" points="1073.96,-34.5 1083.96,-31 1073.96,-27.5 1073.96,-34.5"/>
</g>
<!-- 1990975751184&#45;&gt;1990975762512 -->
<g id="edge13" class="edge">
<title>1990975751184&#45;&gt;1990975762512</title>
<path fill="none" stroke="black" d="M1262.61,-31C1270.03,-31 1278.36,-31 1286.71,-31"/>
<polygon fill="black" stroke="black" points="1286.52,-34.5 1296.52,-31 1286.52,-27.5 1286.52,-34.5"/>
</g>
<!-- 1990969795088&#45;&gt;1990969798352 -->
<g id="edge15" class="edge">
<title>1990969795088&#45;&gt;1990969798352</title>
<path fill="none" stroke="black" d="M1471.44,-31C1478.81,-31 1487.06,-31 1495.23,-31"/>
<polygon fill="black" stroke="black" points="1495.12,-34.5 1505.12,-31 1495.12,-27.5 1495.12,-34.5"/>
</g>
<!-- 1990969790048&#45;&gt;1990969793888 -->
<g id="edge17" class="edge">
<title>1990969790048&#45;&gt;1990969793888</title>
<path fill="none" stroke="black" d="M1668.83,-31C1676.17,-31 1684.38,-31 1692.56,-31"/>
<polygon fill="black" stroke="black" points="1692.49,-34.5 1702.49,-31 1692.49,-27.5 1692.49,-34.5"/>
</g>
<!-- 1990969801328&#45;&gt;1990969798064 -->
<g id="edge19" class="edge">
<title>1990969801328&#45;&gt;1990969798064</title>
<path fill="none" stroke="black" d="M1869.41,-31C1876.84,-31 1885.19,-31 1893.52,-31"/>
<polygon fill="black" stroke="black" points="1893.28,-34.5 1903.28,-31 1893.28,-27.5 1893.28,-34.5"/>
</g>
<!-- 1990969795616&#45;&gt;1990969790144 -->
<g id="edge21" class="edge">
<title>1990969795616&#45;&gt;1990969790144</title>
<path fill="none" stroke="black" d="M2074.36,-31C2081.78,-31 2090.11,-31 2098.46,-31"/>
<polygon fill="black" stroke="black" points="2098.27,-34.5 2108.27,-31 2098.27,-27.5 2098.27,-34.5"/>
</g>
<!-- 1990969799360&#45;&gt;1990969796672 -->
<g id="edge23" class="edge">
<title>1990969799360&#45;&gt;1990969796672</title>
<path fill="none" stroke="black" d="M2283.12,-31C2290.47,-31 2298.69,-31 2306.9,-31"/>
<polygon fill="black" stroke="black" points="2306.89,-34.5 2316.89,-31 2306.89,-27.5 2306.89,-34.5"/>
</g>
<!-- 1990969790672&#45;&gt;1990969793936 -->
<g id="edge25" class="edge">
<title>1990969790672&#45;&gt;1990969793936</title>
<path fill="none" stroke="black" d="M2485.87,-31C2493.22,-31 2501.44,-31 2509.65,-31"/>
<polygon fill="black" stroke="black" points="2509.64,-34.5 2519.64,-31 2509.64,-27.5 2509.64,-34.5"/>
</g>
<!-- 1990969788032&#45;&gt;1990969796432 -->
<g id="edge27" class="edge">
<title>1990969788032&#45;&gt;1990969796432</title>
<path fill="none" stroke="black" d="M2688.64,-31C2696.05,-31 2704.38,-31 2712.76,-31"/>
<polygon fill="black" stroke="black" points="2712.61,-34.5 2722.61,-31 2712.61,-27.5 2712.61,-34.5"/>
</g>
<!-- 1990969800992&#45;&gt;1990978992608 -->
<g id="edge29" class="edge">
<title>1990969800992&#45;&gt;1990978992608</title>
<path fill="none" stroke="black" d="M2899.56,-31C2906.94,-31 2915.24,-31 2923.61,-31"/>
<polygon fill="black" stroke="black" points="2923.46,-34.5 2933.46,-31 2923.46,-27.5 2923.46,-34.5"/>
</g>
</g>
</svg>
