<?xml version="1.0" encoding="UTF-8" standalone="no"?>
<!DOCTYPE svg PUBLIC "-//W3C//DTD SVG 1.1//EN"
 "http://www.w3.org/Graphics/SVG/1.1/DTD/svg11.dtd">
<!-- Generated by graphviz version 11.0.0 (20240428.1522)
 -->
<!-- Title: imdf_net_1754052366.8254695 Pages: 1 -->
<svg width="2725pt" height="171pt"
 viewBox="0.00 0.00 2725.00 171.00" xmlns="http://www.w3.org/2000/svg" xmlns:xlink="http://www.w3.org/1999/xlink">
<g id="graph0" class="graph" transform="scale(1 1) rotate(0) translate(4 167)">
<title>imdf_net_1754052366.8254695</title>
<polygon fill="white" stroke="none" points="-4,4 -4,-167 2721,-167 2721,4 -4,4"/>
<!-- 1990981078000 -->
<g id="node1" class="node">
<title>1990981078000</title>
<polygon fill="white" stroke="black" points="176.5,-137 90,-137 90,-101 176.5,-101 176.5,-137"/>
<text text-anchor="middle" x="133.25" y="-113.97" font-family="Times New Roman,serif" font-size="12.00">Farm Sourcing</text>
</g>
<!-- 1990981075024 -->
<g id="node17" class="node">
<title>1990981075024</title>
<ellipse fill="white" stroke="black" cx="239.5" cy="-119" rx="27" ry="27"/>
</g>
<!-- 1990981078000&#45;&gt;1990981075024 -->
<g id="edge2" class="edge">
<title>1990981078000&#45;&gt;1990981075024</title>
<path fill="none" stroke="black" d="M176.95,-119C184.87,-119 193.09,-119 200.84,-119"/>
<polygon fill="black" stroke="black" points="200.64,-122.5 210.64,-119 200.64,-115.5 200.64,-122.5"/>
</g>
<!-- 1990981088176 -->
<g id="node2" class="node">
<title>1990981088176</title>
<polygon fill="white" stroke="black" points="384.5,-137 302.5,-137 302.5,-101 384.5,-101 384.5,-137"/>
<text text-anchor="middle" x="343.5" y="-113.97" font-family="Times New Roman,serif" font-size="12.00">Batch Testing</text>
</g>
<!-- 1990981082656 -->
<g id="node18" class="node">
<title>1990981082656</title>
<ellipse fill="white" stroke="black" cx="447.5" cy="-119" rx="27" ry="27"/>
</g>
<!-- 1990981088176&#45;&gt;1990981082656 -->
<g id="edge4" class="edge">
<title>1990981088176&#45;&gt;1990981082656</title>
<path fill="none" stroke="black" d="M384.81,-119C392.73,-119 401,-119 408.82,-119"/>
<polygon fill="black" stroke="black" points="408.73,-122.5 418.73,-119 408.73,-115.5 408.73,-122.5"/>
</g>
<!-- 1990980574320 -->
<g id="node3" class="node">
<title>1990980574320</title>
<polygon fill="white" stroke="black" points="586.5,-137 510.5,-137 510.5,-101 586.5,-101 586.5,-137"/>
<text text-anchor="middle" x="548.5" y="-113.97" font-family="Times New Roman,serif" font-size="12.00">Safety Audit</text>
</g>
<!-- 1990978482448 -->
<g id="node19" class="node">
<title>1990978482448</title>
<ellipse fill="white" stroke="black" cx="649.5" cy="-119" rx="27" ry="27"/>
</g>
<!-- 1990980574320&#45;&gt;1990978482448 -->
<g id="edge6" class="edge">
<title>1990980574320&#45;&gt;1990978482448</title>
<path fill="none" stroke="black" d="M586.93,-119C594.71,-119 602.91,-119 610.71,-119"/>
<polygon fill="black" stroke="black" points="610.6,-122.5 620.6,-119 610.6,-115.5 610.6,-122.5"/>
</g>
<!-- 1990979538864 -->
<g id="node4" class="node">
<title>1990979538864</title>
<polygon fill="white" stroke="black" points="825.25,-137 712.5,-137 712.5,-101 825.25,-101 825.25,-137"/>
<text text-anchor="middle" x="768.88" y="-113.97" font-family="Times New Roman,serif" font-size="12.00">Compliance Review</text>
</g>
<!-- 1990975873312 -->
<g id="node20" class="node">
<title>1990975873312</title>
<ellipse fill="white" stroke="black" cx="888.25" cy="-119" rx="27" ry="27"/>
</g>
<!-- 1990979538864&#45;&gt;1990975873312 -->
<g id="edge8" class="edge">
<title>1990979538864&#45;&gt;1990975873312</title>
<path fill="none" stroke="black" d="M825.47,-119C833.56,-119 841.72,-119 849.35,-119"/>
<polygon fill="black" stroke="black" points="849.29,-122.5 859.29,-119 849.29,-115.5 849.29,-122.5"/>
</g>
<!-- 1990975865728 -->
<g id="node5" class="node">
<title>1990975865728</title>
<polygon fill="white" stroke="black" points="1049,-137 951.25,-137 951.25,-101 1049,-101 1049,-137"/>
<text text-anchor="middle" x="1000.12" y="-113.97" font-family="Times New Roman,serif" font-size="12.00">Order Processing</text>
</g>
<!-- 1990977396352 -->
<g id="node21" class="node">
<title>1990977396352</title>
<ellipse fill="white" stroke="black" cx="1112" cy="-119" rx="27" ry="27"/>
</g>
<!-- 1990975865728&#45;&gt;1990977396352 -->
<g id="edge10" class="edge">
<title>1990975865728&#45;&gt;1990977396352</title>
<path fill="none" stroke="black" d="M1049.32,-119C1057.36,-119 1065.6,-119 1073.32,-119"/>
<polygon fill="black" stroke="black" points="1073.06,-122.5 1083.06,-119 1073.06,-115.5 1073.06,-122.5"/>
</g>
<!-- 1990977398752 -->
<g id="node6" class="node">
<title>1990977398752</title>
<polygon fill="white" stroke="black" points="1269,-110 1175,-110 1175,-74 1269,-74 1269,-110"/>
<text text-anchor="middle" x="1222" y="-86.97" font-family="Times New Roman,serif" font-size="12.00">Market Analysis</text>
</g>
<!-- 1990977393280 -->
<g id="node22" class="node">
<title>1990977393280</title>
<ellipse fill="white" stroke="black" cx="1332" cy="-91" rx="27" ry="27"/>
</g>
<!-- 1990977398752&#45;&gt;1990977393280 -->
<g id="edge12" class="edge">
<title>1990977398752&#45;&gt;1990977393280</title>
<path fill="none" stroke="black" d="M1269.43,-91.57C1277.31,-91.5 1285.41,-91.42 1293.03,-91.35"/>
<polygon fill="black" stroke="black" points="1293.06,-94.85 1303.02,-91.26 1292.99,-87.85 1293.06,-94.85"/>
</g>
<!-- 1990977394816 -->
<g id="node7" class="node">
<title>1990977394816</title>
<polygon fill="white" stroke="black" points="1479.25,-109 1399.5,-109 1399.5,-73 1479.25,-73 1479.25,-109"/>
<text text-anchor="middle" x="1439.38" y="-85.97" font-family="Times New Roman,serif" font-size="12.00">Label Design</text>
</g>
<!-- 1990980186624 -->
<g id="node23" class="node">
<title>1990980186624</title>
<ellipse fill="white" stroke="black" cx="1546.75" cy="-91" rx="27" ry="27"/>
</g>
<!-- 1990977394816&#45;&gt;1990980186624 -->
<g id="edge16" class="edge">
<title>1990977394816&#45;&gt;1990980186624</title>
<path fill="none" stroke="black" d="M1479.61,-91C1488.91,-91 1498.81,-91 1508.04,-91"/>
<polygon fill="black" stroke="black" points="1507.76,-94.5 1517.76,-91 1507.76,-87.5 1507.76,-94.5"/>
</g>
<!-- 1990977396112 -->
<g id="node8" class="node">
<title>1990977396112</title>
<polygon fill="white" stroke="black" points="1483.75,-163 1395,-163 1395,-127 1483.75,-127 1483.75,-163"/>
<text text-anchor="middle" x="1439.38" y="-139.97" font-family="Times New Roman,serif" font-size="12.00">Inventory Sync</text>
</g>
<!-- 1990977396112&#45;&gt;1990977396352 -->
<g id="edge15" class="edge">
<title>1990977396112&#45;&gt;1990977396352</title>
<path fill="none" stroke="black" d="M1394.77,-141.52C1330.49,-136.38 1211.38,-126.86 1150.68,-122.01"/>
<polygon fill="black" stroke="black" points="1151.11,-118.53 1140.86,-121.23 1150.55,-125.51 1151.11,-118.53"/>
</g>
<!-- 1990980184656 -->
<g id="node9" class="node">
<title>1990980184656</title>
<polygon fill="white" stroke="black" points="1690.25,-82 1609.75,-82 1609.75,-46 1690.25,-46 1690.25,-82"/>
<text text-anchor="middle" x="1650" y="-58.98" font-family="Times New Roman,serif" font-size="12.00">Cold Packing</text>
</g>
<!-- 1990980184224 -->
<g id="node24" class="node">
<title>1990980184224</title>
<ellipse fill="white" stroke="black" cx="1753.25" cy="-63" rx="27" ry="27"/>
</g>
<!-- 1990980184656&#45;&gt;1990980184224 -->
<g id="edge18" class="edge">
<title>1990980184656&#45;&gt;1990980184224</title>
<path fill="none" stroke="black" d="M1690.73,-63.61C1698.6,-63.53 1706.84,-63.45 1714.64,-63.37"/>
<polygon fill="black" stroke="black" points="1714.56,-66.87 1724.52,-63.27 1714.49,-59.87 1714.56,-66.87"/>
</g>
<!-- 1990980183552 -->
<g id="node10" class="node">
<title>1990980183552</title>
<polygon fill="white" stroke="black" points="1916.25,-135 1826,-135 1826,-99 1916.25,-99 1916.25,-135"/>
<text text-anchor="middle" x="1871.12" y="-111.97" font-family="Times New Roman,serif" font-size="12.00">Quality Control</text>
</g>
<!-- 1990980183552&#45;&gt;1990980186624 -->
<g id="edge21" class="edge">
<title>1990980183552&#45;&gt;1990980186624</title>
<path fill="none" stroke="black" d="M1825.63,-113.41C1761.73,-108.26 1645.1,-98.85 1585.3,-94.03"/>
<polygon fill="black" stroke="black" points="1585.89,-90.56 1575.64,-93.25 1585.33,-97.54 1585.89,-90.56"/>
</g>
<!-- 1990980119984 -->
<g id="node11" class="node">
<title>1990980119984</title>
<polygon fill="white" stroke="black" points="1926,-81 1816.25,-81 1816.25,-45 1926,-45 1926,-81"/>
<text text-anchor="middle" x="1871.12" y="-57.98" font-family="Times New Roman,serif" font-size="12.00">Temperature Check</text>
</g>
<!-- 1990980115904 -->
<g id="node25" class="node">
<title>1990980115904</title>
<ellipse fill="white" stroke="black" cx="1989" cy="-99" rx="27" ry="27"/>
</g>
<!-- 1990980119984&#45;&gt;1990980115904 -->
<g id="edge22" class="edge">
<title>1990980119984&#45;&gt;1990980115904</title>
<path fill="none" stroke="black" d="M1926.33,-79.84C1934.98,-82.53 1943.74,-85.25 1951.83,-87.76"/>
<polygon fill="black" stroke="black" points="1950.72,-91.08 1961.31,-90.71 1952.8,-84.4 1950.72,-91.08"/>
</g>
<!-- 1990980116720 -->
<g id="node26" class="node">
<title>1990980116720</title>
<ellipse fill="white" stroke="black" cx="1989" cy="-27" rx="27" ry="27"/>
</g>
<!-- 1990980119984&#45;&gt;1990980116720 -->
<g id="edge23" class="edge">
<title>1990980119984&#45;&gt;1990980116720</title>
<path fill="none" stroke="black" d="M1926.33,-46.16C1934.98,-43.47 1943.74,-40.75 1951.83,-38.24"/>
<polygon fill="black" stroke="black" points="1952.8,-41.6 1961.31,-35.29 1950.72,-34.92 1952.8,-41.6"/>
</g>
<!-- 1990980116432 -->
<g id="node12" class="node">
<title>1990980116432</title>
<polygon fill="white" stroke="black" points="2147.5,-117 2059.5,-117 2059.5,-81 2147.5,-81 2147.5,-117"/>
<text text-anchor="middle" x="2103.5" y="-93.97" font-family="Times New Roman,serif" font-size="12.00">Customs Filing</text>
</g>
<!-- 1990976159872 -->
<g id="node27" class="node">
<title>1990976159872</title>
<ellipse fill="white" stroke="black" cx="2218" cy="-99" rx="27" ry="27"/>
</g>
<!-- 1990980116432&#45;&gt;1990976159872 -->
<g id="edge26" class="edge">
<title>1990980116432&#45;&gt;1990976159872</title>
<path fill="none" stroke="black" d="M2148,-99C2158.31,-99 2169.22,-99 2179.25,-99"/>
<polygon fill="black" stroke="black" points="2179.02,-102.5 2189.02,-99 2179.02,-95.5 2179.02,-102.5"/>
</g>
<!-- 1990980118880 -->
<g id="node13" class="node">
<title>1990980118880</title>
<polygon fill="white" stroke="black" points="2155,-45 2052,-45 2052,-9 2155,-9 2155,-45"/>
<text text-anchor="middle" x="2103.5" y="-21.98" font-family="Times New Roman,serif" font-size="12.00">Logistics Booking</text>
</g>
<!-- 1990976168224 -->
<g id="node28" class="node">
<title>1990976168224</title>
<ellipse fill="white" stroke="black" cx="2218" cy="-27" rx="27" ry="27"/>
</g>
<!-- 1990980118880&#45;&gt;1990976168224 -->
<g id="edge27" class="edge">
<title>1990980118880&#45;&gt;1990976168224</title>
<path fill="none" stroke="black" d="M2155.48,-27C2163.5,-27 2171.65,-27 2179.29,-27"/>
<polygon fill="black" stroke="black" points="2179.27,-30.5 2189.27,-27 2179.27,-23.5 2179.27,-30.5"/>
</g>
<!-- 1990980114656 -->
<g id="node14" class="node">
<title>1990980114656</title>
<polygon fill="white" stroke="black" points="2390,-81 2281,-81 2281,-45 2390,-45 2390,-81"/>
<text text-anchor="middle" x="2335.5" y="-57.98" font-family="Times New Roman,serif" font-size="12.00">Retail Coordination</text>
</g>
<!-- 1990980570192 -->
<g id="node29" class="node">
<title>1990980570192</title>
<ellipse fill="white" stroke="black" cx="2453" cy="-63" rx="27" ry="27"/>
</g>
<!-- 1990980114656&#45;&gt;1990980570192 -->
<g id="edge30" class="edge">
<title>1990980114656&#45;&gt;1990980570192</title>
<path fill="none" stroke="black" d="M2390.19,-63C2398.41,-63 2406.73,-63 2414.5,-63"/>
<polygon fill="black" stroke="black" points="2414.26,-66.5 2424.26,-63 2414.26,-59.5 2414.26,-66.5"/>
</g>
<!-- 1990980567216 -->
<g id="node15" class="node">
<title>1990980567216</title>
<polygon fill="white" stroke="black" points="2619,-81 2516,-81 2516,-45 2619,-45 2619,-81"/>
<text text-anchor="middle" x="2567.5" y="-57.98" font-family="Times New Roman,serif" font-size="12.00">Delivery Tracking</text>
</g>
<!-- 1990978402784 -->
<g id="node30" class="node">
<title>1990978402784</title>
<ellipse fill="white" stroke="black" cx="2686" cy="-63" rx="27" ry="27"/>
<ellipse fill="none" stroke="black" cx="2686" cy="-63" rx="31" ry="31"/>
<text text-anchor="start" x="2669.5" y="-47.6" font-family="Times New Roman,serif" font-size="32.00">■</text>
</g>
<!-- 1990980567216&#45;&gt;1990978402784 -->
<g id="edge32" class="edge">
<title>1990980567216&#45;&gt;1990978402784</title>
<path fill="none" stroke="black" d="M2619.26,-63C2627.24,-63 2635.41,-63 2643.16,-63"/>
<polygon fill="black" stroke="black" points="2643.01,-66.5 2653.01,-63 2643.01,-59.5 2643.01,-66.5"/>
</g>
<!-- 1990978400000 -->
<g id="node16" class="node">
<title>1990978400000</title>
<ellipse fill="white" stroke="black" cx="27" cy="-119" rx="27" ry="27"/>
<text text-anchor="start" x="9.75" y="-101.7" font-family="Times New Roman,serif" font-size="34.00">●</text>
</g>
<!-- 1990978400000&#45;&gt;1990981078000 -->
<g id="edge1" class="edge">
<title>1990978400000&#45;&gt;1990981078000</title>
<path fill="none" stroke="black" d="M54.31,-119C61.69,-119 69.99,-119 78.36,-119"/>
<polygon fill="black" stroke="black" points="78.21,-122.5 88.21,-119 78.21,-115.5 78.21,-122.5"/>
</g>
<!-- 1990981075024&#45;&gt;1990981088176 -->
<g id="edge3" class="edge">
<title>1990981075024&#45;&gt;1990981088176</title>
<path fill="none" stroke="black" d="M266.77,-119C274.15,-119 282.45,-119 290.78,-119"/>
<polygon fill="black" stroke="black" points="290.55,-122.5 300.55,-119 290.55,-115.5 290.55,-122.5"/>
</g>
<!-- 1990981082656&#45;&gt;1990980574320 -->
<g id="edge5" class="edge">
<title>1990981082656&#45;&gt;1990980574320</title>
<path fill="none" stroke="black" d="M474.77,-119C482.25,-119 490.65,-119 499.01,-119"/>
<polygon fill="black" stroke="black" points="498.78,-122.5 508.78,-119 498.78,-115.5 498.78,-122.5"/>
</g>
<!-- 1990978482448&#45;&gt;1990979538864 -->
<g id="edge7" class="edge">
<title>1990978482448&#45;&gt;1990979538864</title>
<path fill="none" stroke="black" d="M676.84,-119C684.17,-119 692.48,-119 701.03,-119"/>
<polygon fill="black" stroke="black" points="700.82,-122.5 710.82,-119 700.82,-115.5 700.82,-122.5"/>
</g>
<!-- 1990975873312&#45;&gt;1990975865728 -->
<g id="edge9" class="edge">
<title>1990975873312&#45;&gt;1990975865728</title>
<path fill="none" stroke="black" d="M915.57,-119C922.9,-119 931.18,-119 939.6,-119"/>
<polygon fill="black" stroke="black" points="939.58,-122.5 949.58,-119 939.58,-115.5 939.58,-122.5"/>
</g>
<!-- 1990977396352&#45;&gt;1990977398752 -->
<g id="edge11" class="edge">
<title>1990977396352&#45;&gt;1990977398752</title>
<path fill="none" stroke="black" d="M1138.59,-112.6C1146.23,-110.69 1154.92,-108.52 1163.72,-106.32"/>
<polygon fill="black" stroke="black" points="1164.55,-109.72 1173.4,-103.9 1162.85,-102.93 1164.55,-109.72"/>
</g>
<!-- 1990977393280&#45;&gt;1990977394816 -->
<g id="edge13" class="edge">
<title>1990977393280&#45;&gt;1990977394816</title>
<path fill="none" stroke="black" d="M1359.32,-91C1367.99,-91 1377.95,-91 1387.82,-91"/>
<polygon fill="black" stroke="black" points="1387.75,-94.5 1397.75,-91 1387.75,-87.5 1387.75,-94.5"/>
</g>
<!-- 1990977393280&#45;&gt;1990977396112 -->
<g id="edge14" class="edge">
<title>1990977393280&#45;&gt;1990977396112</title>
<path fill="none" stroke="black" d="M1356.65,-103.12C1367.17,-108.51 1379.94,-115.06 1392.23,-121.35"/>
<polygon fill="black" stroke="black" points="1390.54,-124.42 1401.04,-125.87 1393.73,-118.19 1390.54,-124.42"/>
</g>
<!-- 1990980186624&#45;&gt;1990980184656 -->
<g id="edge17" class="edge">
<title>1990980186624&#45;&gt;1990980184656</title>
<path fill="none" stroke="black" d="M1573.3,-84.19C1580.96,-82.14 1589.65,-79.83 1598.34,-77.51"/>
<polygon fill="black" stroke="black" points="1599.04,-80.94 1607.8,-74.99 1597.24,-74.18 1599.04,-80.94"/>
</g>
<!-- 1990980184224&#45;&gt;1990980183552 -->
<g id="edge20" class="edge">
<title>1990980184224&#45;&gt;1990980183552</title>
<path fill="none" stroke="black" d="M1778.26,-74.19C1790.42,-79.86 1805.66,-86.96 1820.22,-93.74"/>
<polygon fill="black" stroke="black" points="1818.72,-96.91 1829.27,-97.96 1821.68,-90.56 1818.72,-96.91"/>
</g>
<!-- 1990980184224&#45;&gt;1990980119984 -->
<g id="edge19" class="edge">
<title>1990980184224&#45;&gt;1990980119984</title>
<path fill="none" stroke="black" d="M1780.54,-63C1787.88,-63 1796.19,-63 1804.72,-63"/>
<polygon fill="black" stroke="black" points="1804.49,-66.5 1814.49,-63 1804.49,-59.5 1804.49,-66.5"/>
</g>
<!-- 1990980115904&#45;&gt;1990980116432 -->
<g id="edge24" class="edge">
<title>1990980115904&#45;&gt;1990980116432</title>
<path fill="none" stroke="black" d="M2016.38,-99C2025.82,-99 2036.85,-99 2047.81,-99"/>
<polygon fill="black" stroke="black" points="2047.61,-102.5 2057.61,-99 2047.61,-95.5 2047.61,-102.5"/>
</g>
<!-- 1990980116720&#45;&gt;1990980118880 -->
<g id="edge25" class="edge">
<title>1990980116720&#45;&gt;1990980118880</title>
<path fill="none" stroke="black" d="M2016.38,-27C2023.61,-27 2031.77,-27 2040.11,-27"/>
<polygon fill="black" stroke="black" points="2040.02,-30.5 2050.02,-27 2040.02,-23.5 2040.02,-30.5"/>
</g>
<!-- 1990976159872&#45;&gt;1990980114656 -->
<g id="edge28" class="edge">
<title>1990976159872&#45;&gt;1990980114656</title>
<path fill="none" stroke="black" d="M2244.06,-91.19C2251.79,-88.78 2260.68,-86.01 2269.8,-83.17"/>
<polygon fill="black" stroke="black" points="2270.61,-86.58 2279.12,-80.26 2268.53,-79.9 2270.61,-86.58"/>
</g>
<!-- 1990976168224&#45;&gt;1990980114656 -->
<g id="edge29" class="edge">
<title>1990976168224&#45;&gt;1990980114656</title>
<path fill="none" stroke="black" d="M2244.06,-34.81C2251.79,-37.22 2260.68,-39.99 2269.8,-42.83"/>
<polygon fill="black" stroke="black" points="2268.53,-46.1 2279.12,-45.74 2270.61,-39.42 2268.53,-46.1"/>
</g>
<!-- 1990980570192&#45;&gt;1990980567216 -->
<g id="edge31" class="edge">
<title>1990980570192&#45;&gt;1990980567216</title>
<path fill="none" stroke="black" d="M2480.38,-63C2487.61,-63 2495.77,-63 2504.11,-63"/>
<polygon fill="black" stroke="black" points="2504.02,-66.5 2514.02,-63 2504.02,-59.5 2504.02,-66.5"/>
</g>
</g>
</svg>
