<?xml version="1.0" encoding="UTF-8" standalone="no"?>
<!DOCTYPE svg PUBLIC "-//W3C//DTD SVG 1.1//EN"
 "http://www.w3.org/Graphics/SVG/1.1/DTD/svg11.dtd">
<!-- Generated by graphviz version 11.0.0 (20240428.1522)
 -->
<!-- Title: imdf_net_1754052354.8882153 Pages: 1 -->
<svg width="2373pt" height="710pt"
 viewBox="0.00 0.00 2372.75 710.00" xmlns="http://www.w3.org/2000/svg" xmlns:xlink="http://www.w3.org/1999/xlink">
<g id="graph0" class="graph" transform="scale(1 1) rotate(0) translate(4 706)">
<title>imdf_net_1754052354.8882153</title>
<polygon fill="white" stroke="none" points="-4,4 -4,-706 2368.75,-706 2368.75,4 -4,4"/>
<!-- 1990976170240 -->
<g id="node1" class="node">
<title>1990976170240</title>
<polygon fill="white" stroke="black" points="181,-477 90,-477 90,-441 181,-441 181,-477"/>
<text text-anchor="middle" x="135.5" y="-453.98" font-family="Times New Roman,serif" font-size="12.00">Spec Collection</text>
</g>
<!-- 1990976173264 -->
<g id="node17" class="node">
<title>1990976173264</title>
<ellipse fill="white" stroke="black" cx="244" cy="-459" rx="27" ry="27"/>
</g>
<!-- 1990976170240&#45;&gt;1990976173264 -->
<g id="edge2" class="edge">
<title>1990976170240&#45;&gt;1990976173264</title>
<path fill="none" stroke="black" d="M181.36,-459C189.36,-459 197.62,-459 205.4,-459"/>
<polygon fill="black" stroke="black" points="205.21,-462.5 215.21,-459 205.21,-455.5 205.21,-462.5"/>
</g>
<!-- 1990976164480 -->
<g id="node2" class="node">
<title>1990976164480</title>
<polygon fill="white" stroke="black" points="424.25,-477 307,-477 307,-441 424.25,-441 424.25,-477"/>
<text text-anchor="middle" x="365.62" y="-453.98" font-family="Times New Roman,serif" font-size="12.00">Component Sourcing</text>
</g>
<!-- 1990976160544 -->
<g id="node18" class="node">
<title>1990976160544</title>
<ellipse fill="white" stroke="black" cx="487.25" cy="-459" rx="27" ry="27"/>
</g>
<!-- 1990976164480&#45;&gt;1990976160544 -->
<g id="edge4" class="edge">
<title>1990976164480&#45;&gt;1990976160544</title>
<path fill="none" stroke="black" d="M424.69,-459C432.81,-459 440.98,-459 448.59,-459"/>
<polygon fill="black" stroke="black" points="448.49,-462.5 458.49,-459 448.49,-455.5 448.49,-462.5"/>
</g>
<!-- 1990976170192 -->
<g id="node3" class="node">
<title>1990976170192</title>
<polygon fill="white" stroke="black" points="657,-477 550.25,-477 550.25,-441 657,-441 657,-477"/>
<text text-anchor="middle" x="603.62" y="-453.98" font-family="Times New Roman,serif" font-size="12.00">Material Inspection</text>
</g>
<!-- 1990976172592 -->
<g id="node19" class="node">
<title>1990976172592</title>
<ellipse fill="white" stroke="black" cx="720" cy="-459" rx="27" ry="27"/>
</g>
<!-- 1990976170192&#45;&gt;1990976172592 -->
<g id="edge6" class="edge">
<title>1990976170192&#45;&gt;1990976172592</title>
<path fill="none" stroke="black" d="M657.46,-459C665.45,-459 673.55,-459 681.14,-459"/>
<polygon fill="black" stroke="black" points="681.04,-462.5 691.04,-459 681.04,-455.5 681.04,-462.5"/>
</g>
<!-- 1990976167024 -->
<g id="node4" class="node">
<title>1990976167024</title>
<polygon fill="white" stroke="black" points="881.5,-477 783,-477 783,-441 881.5,-441 881.5,-477"/>
<text text-anchor="middle" x="832.25" y="-453.98" font-family="Times New Roman,serif" font-size="12.00">Circuit Assembly</text>
</g>
<!-- 1990981081120 -->
<g id="node20" class="node">
<title>1990981081120</title>
<ellipse fill="white" stroke="black" cx="944.5" cy="-459" rx="27" ry="27"/>
</g>
<!-- 1990976167024&#45;&gt;1990981081120 -->
<g id="edge8" class="edge">
<title>1990976167024&#45;&gt;1990981081120</title>
<path fill="none" stroke="black" d="M881.93,-459C889.88,-459 898.01,-459 905.65,-459"/>
<polygon fill="black" stroke="black" points="905.64,-462.5 915.64,-459 905.64,-455.5 905.64,-462.5"/>
</g>
<!-- 1990981076416 -->
<g id="node5" class="node">
<title>1990981076416</title>
<polygon fill="white" stroke="black" points="1111.25,-477 1007.5,-477 1007.5,-441 1111.25,-441 1111.25,-477"/>
<text text-anchor="middle" x="1059.38" y="-453.98" font-family="Times New Roman,serif" font-size="12.00">Sensor Calibration</text>
</g>
<!-- 1990981086016 -->
<g id="node21" class="node">
<title>1990981086016</title>
<ellipse fill="white" stroke="black" cx="1174.25" cy="-459" rx="27" ry="27"/>
</g>
<!-- 1990981076416&#45;&gt;1990981086016 -->
<g id="edge10" class="edge">
<title>1990981076416&#45;&gt;1990981086016</title>
<path fill="none" stroke="black" d="M1111.53,-459C1119.66,-459 1127.94,-459 1135.69,-459"/>
<polygon fill="black" stroke="black" points="1135.43,-462.5 1145.43,-459 1135.43,-455.5 1135.43,-462.5"/>
</g>
<!-- 1990981077856 -->
<g id="node6" class="node">
<title>1990981077856</title>
<polygon fill="white" stroke="black" points="1337.25,-477 1237.25,-477 1237.25,-441 1337.25,-441 1337.25,-477"/>
<text text-anchor="middle" x="1287.25" y="-453.98" font-family="Times New Roman,serif" font-size="12.00">Firmware Upload</text>
</g>
<!-- 1990981086208 -->
<g id="node22" class="node">
<title>1990981086208</title>
<ellipse fill="white" stroke="black" cx="1400.25" cy="-603" rx="27" ry="27"/>
</g>
<!-- 1990981077856&#45;&gt;1990981086208 -->
<g id="edge13" class="edge">
<title>1990981077856&#45;&gt;1990981086208</title>
<path fill="none" stroke="black" d="M1302.31,-477.24C1320.94,-501.41 1354.06,-544.37 1376.33,-573.27"/>
<polygon fill="black" stroke="black" points="1373.35,-575.13 1382.23,-580.92 1378.9,-570.86 1373.35,-575.13"/>
</g>
<!-- 1990980578304 -->
<g id="node23" class="node">
<title>1990980578304</title>
<ellipse fill="white" stroke="black" cx="1400.25" cy="-459" rx="27" ry="27"/>
</g>
<!-- 1990981077856&#45;&gt;1990980578304 -->
<g id="edge15" class="edge">
<title>1990981077856&#45;&gt;1990980578304</title>
<path fill="none" stroke="black" d="M1337.58,-459C1345.66,-459 1353.91,-459 1361.64,-459"/>
<polygon fill="black" stroke="black" points="1361.37,-462.5 1371.37,-459 1361.37,-455.5 1361.37,-462.5"/>
</g>
<!-- 1990981082272 -->
<g id="node24" class="node">
<title>1990981082272</title>
<ellipse fill="white" stroke="black" cx="1400.25" cy="-531" rx="27" ry="27"/>
</g>
<!-- 1990981077856&#45;&gt;1990981082272 -->
<g id="edge14" class="edge">
<title>1990981077856&#45;&gt;1990981082272</title>
<path fill="none" stroke="black" d="M1316.55,-477.35C1332.08,-487.43 1351.39,-499.95 1367.44,-510.37"/>
<polygon fill="black" stroke="black" points="1365.39,-513.21 1375.68,-515.71 1369.2,-507.33 1365.39,-513.21"/>
</g>
<!-- 1990981079728 -->
<g id="node25" class="node">
<title>1990981079728</title>
<ellipse fill="white" stroke="black" cx="1400.25" cy="-387" rx="27" ry="27"/>
</g>
<!-- 1990981077856&#45;&gt;1990981079728 -->
<g id="edge16" class="edge">
<title>1990981077856&#45;&gt;1990981079728</title>
<path fill="none" stroke="black" d="M1316.55,-440.65C1332.08,-430.57 1351.39,-418.05 1367.44,-407.63"/>
<polygon fill="black" stroke="black" points="1369.2,-410.67 1375.68,-402.29 1365.39,-404.79 1369.2,-410.67"/>
</g>
<!-- 1990981088752 -->
<g id="node26" class="node">
<title>1990981088752</title>
<ellipse fill="white" stroke="black" cx="1400.25" cy="-315" rx="27" ry="27"/>
</g>
<!-- 1990981077856&#45;&gt;1990981088752 -->
<g id="edge12" class="edge">
<title>1990981077856&#45;&gt;1990981088752</title>
<path fill="none" stroke="black" d="M1302.31,-440.76C1320.94,-416.59 1354.06,-373.63 1376.33,-344.73"/>
<polygon fill="black" stroke="black" points="1378.9,-347.14 1382.23,-337.08 1373.35,-342.87 1378.9,-347.14"/>
</g>
<!-- 1990981078048 -->
<g id="node7" class="node">
<title>1990981078048</title>
<polygon fill="white" stroke="black" points="1570,-549 1472.25,-549 1472.25,-513 1570,-513 1570,-549"/>
<text text-anchor="middle" x="1521.12" y="-525.98" font-family="Times New Roman,serif" font-size="12.00">Flight Simulation</text>
</g>
<!-- 1990981652160 -->
<g id="node31" class="node">
<title>1990981652160</title>
<ellipse fill="white" stroke="black" cx="1642" cy="-531" rx="27" ry="27"/>
</g>
<!-- 1990981078048&#45;&gt;1990981652160 -->
<g id="edge31" class="edge">
<title>1990981078048&#45;&gt;1990981652160</title>
<path fill="none" stroke="black" d="M1570.48,-531C1581.4,-531 1592.85,-531 1603.27,-531"/>
<polygon fill="black" stroke="black" points="1602.99,-534.5 1612.99,-531 1602.99,-527.5 1602.99,-534.5"/>
</g>
<!-- 1990981650672 -->
<g id="node35" class="node">
<title>1990981650672</title>
<ellipse fill="white" stroke="black" cx="1642" cy="-243" rx="27" ry="27"/>
</g>
<!-- 1990981078048&#45;&gt;1990981650672 -->
<g id="edge22" class="edge">
<title>1990981078048&#45;&gt;1990981650672</title>
<path fill="none" stroke="black" d="M1553.46,-512.63C1563.08,-505.5 1572.75,-496.5 1579,-486 1626.76,-405.75 1578.74,-365.05 1615,-279 1615.85,-276.98 1616.84,-274.96 1617.92,-272.96"/>
<polygon fill="black" stroke="black" points="1620.78,-274.98 1623.09,-264.64 1614.84,-271.29 1620.78,-274.98"/>
</g>
<!-- 1990981079968 -->
<g id="node8" class="node">
<title>1990981079968</title>
<polygon fill="white" stroke="black" points="1579,-333 1463.25,-333 1463.25,-297 1579,-297 1579,-333"/>
<text text-anchor="middle" x="1521.12" y="-309.98" font-family="Times New Roman,serif" font-size="12.00">Battery Conditioning</text>
</g>
<!-- 1990981660944 -->
<g id="node29" class="node">
<title>1990981660944</title>
<ellipse fill="white" stroke="black" cx="1642" cy="-27" rx="27" ry="27"/>
</g>
<!-- 1990981079968&#45;&gt;1990981660944 -->
<g id="edge28" class="edge">
<title>1990981079968&#45;&gt;1990981660944</title>
<path fill="none" stroke="black" d="M1527.04,-296.56C1538.82,-253.9 1570.95,-145.72 1615,-63 1616.03,-61.06 1617.16,-59.11 1618.34,-57.17"/>
<polygon fill="black" stroke="black" points="1621.17,-59.23 1623.76,-48.96 1615.33,-55.37 1621.17,-59.23"/>
</g>
<!-- 1990981660224 -->
<g id="node33" class="node">
<title>1990981660224</title>
<ellipse fill="white" stroke="black" cx="1642" cy="-315" rx="27" ry="27"/>
</g>
<!-- 1990981079968&#45;&gt;1990981660224 -->
<g id="edge27" class="edge">
<title>1990981079968&#45;&gt;1990981660224</title>
<path fill="none" stroke="black" d="M1579.47,-315C1587.58,-315 1595.73,-315 1603.34,-315"/>
<polygon fill="black" stroke="black" points="1603.23,-318.5 1613.23,-315 1603.23,-311.5 1603.23,-318.5"/>
</g>
<!-- 1990981088080 -->
<g id="node9" class="node">
<title>1990981088080</title>
<polygon fill="white" stroke="black" points="1571.12,-621 1471.12,-621 1471.12,-585 1571.12,-585 1571.12,-621"/>
<text text-anchor="middle" x="1521.12" y="-597.98" font-family="Times New Roman,serif" font-size="12.00">Structural Testing</text>
</g>
<!-- 1990981653888 -->
<g id="node27" class="node">
<title>1990981653888</title>
<ellipse fill="white" stroke="black" cx="1642" cy="-675" rx="27" ry="27"/>
</g>
<!-- 1990981088080&#45;&gt;1990981653888 -->
<g id="edge24" class="edge">
<title>1990981088080&#45;&gt;1990981653888</title>
<path fill="none" stroke="black" d="M1552.43,-621.35C1569.57,-631.73 1590.99,-644.71 1608.48,-655.3"/>
<polygon fill="black" stroke="black" points="1606.6,-658.26 1616.96,-660.44 1610.22,-652.27 1606.6,-658.26"/>
</g>
<!-- 1990981654848 -->
<g id="node32" class="node">
<title>1990981654848</title>
<ellipse fill="white" stroke="black" cx="1642" cy="-603" rx="27" ry="27"/>
</g>
<!-- 1990981088080&#45;&gt;1990981654848 -->
<g id="edge25" class="edge">
<title>1990981088080&#45;&gt;1990981654848</title>
<path fill="none" stroke="black" d="M1571.51,-603C1582.14,-603 1593.22,-603 1603.33,-603"/>
<polygon fill="black" stroke="black" points="1603.15,-606.5 1613.15,-603 1603.15,-599.5 1603.15,-606.5"/>
</g>
<!-- 1990981085008 -->
<g id="node10" class="node">
<title>1990981085008</title>
<polygon fill="white" stroke="black" points="1570,-405 1472.25,-405 1472.25,-369 1570,-369 1570,-405"/>
<text text-anchor="middle" x="1521.12" y="-381.98" font-family="Times New Roman,serif" font-size="12.00">Thermal Imaging</text>
</g>
<!-- 1990981658976 -->
<g id="node34" class="node">
<title>1990981658976</title>
<ellipse fill="white" stroke="black" cx="1642" cy="-99" rx="27" ry="27"/>
</g>
<!-- 1990981085008&#45;&gt;1990981658976 -->
<g id="edge26" class="edge">
<title>1990981085008&#45;&gt;1990981658976</title>
<path fill="none" stroke="black" d="M1553.46,-368.63C1563.08,-361.5 1572.75,-352.5 1579,-342 1626.76,-261.75 1578.74,-221.05 1615,-135 1615.85,-132.98 1616.84,-130.96 1617.92,-128.96"/>
<polygon fill="black" stroke="black" points="1620.78,-130.98 1623.09,-120.64 1614.84,-127.29 1620.78,-130.98"/>
</g>
<!-- 1990981655280 -->
<g id="node36" class="node">
<title>1990981655280</title>
<ellipse fill="white" stroke="black" cx="1642" cy="-387" rx="27" ry="27"/>
</g>
<!-- 1990981085008&#45;&gt;1990981655280 -->
<g id="edge30" class="edge">
<title>1990981085008&#45;&gt;1990981655280</title>
<path fill="none" stroke="black" d="M1570.48,-387C1581.4,-387 1592.85,-387 1603.27,-387"/>
<polygon fill="black" stroke="black" points="1602.99,-390.5 1612.99,-387 1602.99,-383.5 1602.99,-390.5"/>
</g>
<!-- 1990980572640 -->
<g id="node11" class="node">
<title>1990980572640</title>
<polygon fill="white" stroke="black" points="1577.5,-477 1464.75,-477 1464.75,-441 1577.5,-441 1577.5,-477"/>
<text text-anchor="middle" x="1521.12" y="-453.98" font-family="Times New Roman,serif" font-size="12.00">Software Integration</text>
</g>
<!-- 1990981649280 -->
<g id="node28" class="node">
<title>1990981649280</title>
<ellipse fill="white" stroke="black" cx="1642" cy="-171" rx="27" ry="27"/>
</g>
<!-- 1990980572640&#45;&gt;1990981649280 -->
<g id="edge23" class="edge">
<title>1990980572640&#45;&gt;1990981649280</title>
<path fill="none" stroke="black" d="M1553.46,-440.63C1563.08,-433.5 1572.75,-424.5 1579,-414 1626.76,-333.75 1578.74,-293.05 1615,-207 1615.85,-204.98 1616.84,-202.96 1617.92,-200.96"/>
<polygon fill="black" stroke="black" points="1620.78,-202.98 1623.09,-192.64 1614.84,-199.29 1620.78,-202.98"/>
</g>
<!-- 1990981649184 -->
<g id="node30" class="node">
<title>1990981649184</title>
<ellipse fill="white" stroke="black" cx="1642" cy="-459" rx="27" ry="27"/>
</g>
<!-- 1990980572640&#45;&gt;1990981649184 -->
<g id="edge29" class="edge">
<title>1990980572640&#45;&gt;1990981649184</title>
<path fill="none" stroke="black" d="M1577.73,-459C1586.42,-459 1595.22,-459 1603.38,-459"/>
<polygon fill="black" stroke="black" points="1603.28,-462.5 1613.28,-459 1603.28,-455.5 1603.28,-462.5"/>
</g>
<!-- 1990977214016 -->
<g id="node12" class="node">
<title>1990977214016</title>
<polygon fill="white" stroke="black" points="1818.5,-441 1705,-441 1705,-405 1818.5,-405 1818.5,-441"/>
<text text-anchor="middle" x="1761.75" y="-417.98" font-family="Times New Roman,serif" font-size="12.00">Documentation Prep</text>
</g>
<!-- 1990981649040 -->
<g id="node37" class="node">
<title>1990981649040</title>
<ellipse fill="white" stroke="black" cx="1881.5" cy="-405" rx="27" ry="27"/>
</g>
<!-- 1990977214016&#45;&gt;1990981649040 -->
<g id="edge43" class="edge">
<title>1990977214016&#45;&gt;1990981649040</title>
<path fill="none" stroke="black" d="M1818.87,-414.42C1827.13,-413.16 1835.46,-411.89 1843.21,-410.7"/>
<polygon fill="black" stroke="black" points="1843.6,-414.18 1852.95,-409.21 1842.54,-407.26 1843.6,-414.18"/>
</g>
<!-- 1990980575184 -->
<g id="node13" class="node">
<title>1990980575184</title>
<polygon fill="white" stroke="black" points="1808.38,-225 1715.12,-225 1715.12,-189 1808.38,-189 1808.38,-225"/>
<text text-anchor="middle" x="1761.75" y="-201.97" font-family="Times New Roman,serif" font-size="12.00">Anti&#45;Static Pack</text>
</g>
<!-- 1990981663152 -->
<g id="node38" class="node">
<title>1990981663152</title>
<ellipse fill="white" stroke="black" cx="1881.5" cy="-261" rx="27" ry="27"/>
</g>
<!-- 1990980575184&#45;&gt;1990981663152 -->
<g id="edge42" class="edge">
<title>1990980575184&#45;&gt;1990981663152</title>
<path fill="none" stroke="black" d="M1802.94,-225.43C1817.03,-231.89 1832.71,-239.09 1846.27,-245.3"/>
<polygon fill="black" stroke="black" points="1844.69,-248.43 1855.24,-249.41 1847.61,-242.06 1844.69,-248.43"/>
</g>
<!-- 1990980582480 -->
<g id="node14" class="node">
<title>1990980582480</title>
<polygon fill="white" stroke="black" points="2037,-315 1944.5,-315 1944.5,-279 2037,-279 2037,-315"/>
<text text-anchor="middle" x="1990.75" y="-291.98" font-family="Times New Roman,serif" font-size="12.00">Client Approval</text>
</g>
<!-- 1990980583008 -->
<g id="node39" class="node">
<title>1990980583008</title>
<ellipse fill="white" stroke="black" cx="2100" cy="-297" rx="27" ry="27"/>
</g>
<!-- 1990980582480&#45;&gt;1990980583008 -->
<g id="edge46" class="edge">
<title>1990980582480&#45;&gt;1990980583008</title>
<path fill="none" stroke="black" d="M2037.23,-297C2045.27,-297 2053.56,-297 2061.35,-297"/>
<polygon fill="black" stroke="black" points="2061.19,-300.5 2071.19,-297 2061.19,-293.5 2061.19,-300.5"/>
</g>
<!-- 1990980578352 -->
<g id="node15" class="node">
<title>1990980578352</title>
<polygon fill="white" stroke="black" points="2266.75,-315 2163,-315 2163,-279 2266.75,-279 2266.75,-315"/>
<text text-anchor="middle" x="2214.88" y="-291.98" font-family="Times New Roman,serif" font-size="12.00">Shipping Dispatch</text>
</g>
<!-- 1990979793600 -->
<g id="node40" class="node">
<title>1990979793600</title>
<ellipse fill="white" stroke="black" cx="2333.75" cy="-297" rx="27" ry="27"/>
<ellipse fill="none" stroke="black" cx="2333.75" cy="-297" rx="31" ry="31"/>
<text text-anchor="start" x="2317.25" y="-281.6" font-family="Times New Roman,serif" font-size="32.00">■</text>
</g>
<!-- 1990980578352&#45;&gt;1990979793600 -->
<g id="edge48" class="edge">
<title>1990980578352&#45;&gt;1990979793600</title>
<path fill="none" stroke="black" d="M2267.14,-297C2275.12,-297 2283.29,-297 2291.02,-297"/>
<polygon fill="black" stroke="black" points="2290.85,-300.5 2300.85,-297 2290.85,-293.5 2290.85,-300.5"/>
</g>
<!-- 1990979793504 -->
<g id="node16" class="node">
<title>1990979793504</title>
<ellipse fill="white" stroke="black" cx="27" cy="-459" rx="27" ry="27"/>
<text text-anchor="start" x="9.75" y="-441.7" font-family="Times New Roman,serif" font-size="34.00">●</text>
</g>
<!-- 1990979793504&#45;&gt;1990976170240 -->
<g id="edge1" class="edge">
<title>1990979793504&#45;&gt;1990976170240</title>
<path fill="none" stroke="black" d="M54.33,-459C61.69,-459 70,-459 78.39,-459"/>
<polygon fill="black" stroke="black" points="78.31,-462.5 88.31,-459 78.31,-455.5 78.31,-462.5"/>
</g>
<!-- 1990976173264&#45;&gt;1990976164480 -->
<g id="edge3" class="edge">
<title>1990976173264&#45;&gt;1990976164480</title>
<path fill="none" stroke="black" d="M271.25,-459C278.52,-459 286.77,-459 295.28,-459"/>
<polygon fill="black" stroke="black" points="295.05,-462.5 305.05,-459 295.05,-455.5 295.05,-462.5"/>
</g>
<!-- 1990976160544&#45;&gt;1990976170192 -->
<g id="edge5" class="edge">
<title>1990976160544&#45;&gt;1990976170192</title>
<path fill="none" stroke="black" d="M514.49,-459C521.83,-459 530.14,-459 538.65,-459"/>
<polygon fill="black" stroke="black" points="538.38,-462.5 548.38,-459 538.38,-455.5 538.38,-462.5"/>
</g>
<!-- 1990976172592&#45;&gt;1990976167024 -->
<g id="edge7" class="edge">
<title>1990976172592&#45;&gt;1990976167024</title>
<path fill="none" stroke="black" d="M747.41,-459C754.68,-459 762.87,-459 771.22,-459"/>
<polygon fill="black" stroke="black" points="771.11,-462.5 781.11,-459 771.11,-455.5 771.11,-462.5"/>
</g>
<!-- 1990981081120&#45;&gt;1990981076416 -->
<g id="edge9" class="edge">
<title>1990981081120&#45;&gt;1990981076416</title>
<path fill="none" stroke="black" d="M971.96,-459C979.22,-459 987.41,-459 995.78,-459"/>
<polygon fill="black" stroke="black" points="995.73,-462.5 1005.73,-459 995.73,-455.5 995.73,-462.5"/>
</g>
<!-- 1990981086016&#45;&gt;1990981077856 -->
<g id="edge11" class="edge">
<title>1990981086016&#45;&gt;1990981077856</title>
<path fill="none" stroke="black" d="M1201.56,-459C1208.87,-459 1217.13,-459 1225.56,-459"/>
<polygon fill="black" stroke="black" points="1225.56,-462.5 1235.56,-459 1225.56,-455.5 1225.56,-462.5"/>
</g>
<!-- 1990981086208&#45;&gt;1990981088080 -->
<g id="edge20" class="edge">
<title>1990981086208&#45;&gt;1990981088080</title>
<path fill="none" stroke="black" d="M1427.63,-603C1437.17,-603 1448.38,-603 1459.64,-603"/>
<polygon fill="black" stroke="black" points="1459.34,-606.5 1469.34,-603 1459.34,-599.5 1459.34,-606.5"/>
</g>
<!-- 1990980578304&#45;&gt;1990980572640 -->
<g id="edge19" class="edge">
<title>1990980578304&#45;&gt;1990980572640</title>
<path fill="none" stroke="black" d="M1427.63,-459C1435.33,-459 1444.11,-459 1453.12,-459"/>
<polygon fill="black" stroke="black" points="1453.09,-462.5 1463.09,-459 1453.09,-455.5 1453.09,-462.5"/>
</g>
<!-- 1990981082272&#45;&gt;1990981078048 -->
<g id="edge21" class="edge">
<title>1990981082272&#45;&gt;1990981078048</title>
<path fill="none" stroke="black" d="M1427.63,-531C1437.38,-531 1448.87,-531 1460.37,-531"/>
<polygon fill="black" stroke="black" points="1460.3,-534.5 1470.3,-531 1460.3,-527.5 1460.3,-534.5"/>
</g>
<!-- 1990981079728&#45;&gt;1990981085008 -->
<g id="edge17" class="edge">
<title>1990981079728&#45;&gt;1990981085008</title>
<path fill="none" stroke="black" d="M1427.63,-387C1437.38,-387 1448.87,-387 1460.37,-387"/>
<polygon fill="black" stroke="black" points="1460.3,-390.5 1470.3,-387 1460.3,-383.5 1460.3,-390.5"/>
</g>
<!-- 1990981088752&#45;&gt;1990981079968 -->
<g id="edge18" class="edge">
<title>1990981088752&#45;&gt;1990981079968</title>
<path fill="none" stroke="black" d="M1427.63,-315C1434.96,-315 1443.26,-315 1451.82,-315"/>
<polygon fill="black" stroke="black" points="1451.64,-318.5 1461.64,-315 1451.64,-311.5 1451.64,-318.5"/>
</g>
<!-- 1990981653888&#45;&gt;1990977214016 -->
<g id="edge35" class="edge">
<title>1990981653888&#45;&gt;1990977214016</title>
<path fill="none" stroke="black" d="M1659.49,-653.82C1662.84,-649.07 1666.2,-643.97 1669,-639 1705.03,-575.13 1735.75,-494.29 1750.82,-451.92"/>
<polygon fill="black" stroke="black" points="1754.04,-453.3 1754.06,-442.71 1747.44,-450.98 1754.04,-453.3"/>
</g>
<!-- 1990981649280&#45;&gt;1990980575184 -->
<g id="edge38" class="edge">
<title>1990981649280&#45;&gt;1990980575184</title>
<path fill="none" stroke="black" d="M1668.26,-178.72C1678.71,-181.92 1691.29,-185.76 1703.76,-189.58"/>
<polygon fill="black" stroke="black" points="1702.6,-192.88 1713.18,-192.46 1704.64,-186.19 1702.6,-192.88"/>
</g>
<!-- 1990981660944&#45;&gt;1990980575184 -->
<g id="edge37" class="edge">
<title>1990981660944&#45;&gt;1990980575184</title>
<path fill="none" stroke="black" d="M1658.88,-48.56C1662.27,-53.28 1665.8,-58.28 1669,-63 1695.96,-102.71 1725.52,-149.79 1743.6,-179.03"/>
<polygon fill="black" stroke="black" points="1740.48,-180.63 1748.7,-187.31 1746.43,-176.96 1740.48,-180.63"/>
</g>
<!-- 1990981649184&#45;&gt;1990977214016 -->
<g id="edge40" class="edge">
<title>1990981649184&#45;&gt;1990977214016</title>
<path fill="none" stroke="black" d="M1668.26,-451.28C1675.93,-448.93 1684.75,-446.23 1693.83,-443.46"/>
<polygon fill="black" stroke="black" points="1694.57,-446.89 1703.11,-440.62 1692.53,-440.2 1694.57,-446.89"/>
</g>
<!-- 1990981652160&#45;&gt;1990977214016 -->
<g id="edge39" class="edge">
<title>1990981652160&#45;&gt;1990977214016</title>
<path fill="none" stroke="black" d="M1662.71,-512.92C1681.7,-495.51 1710.63,-468.97 1732.15,-449.23"/>
<polygon fill="black" stroke="black" points="1734.46,-451.86 1739.47,-442.52 1729.73,-446.7 1734.46,-451.86"/>
</g>
<!-- 1990981654848&#45;&gt;1990980575184 -->
<g id="edge36" class="edge">
<title>1990981654848&#45;&gt;1990980575184</title>
<path fill="none" stroke="black" d="M1659.97,-582.58C1663.38,-577.71 1666.63,-572.36 1669,-567 1700.42,-495.97 1686,-471.31 1705,-396 1719.39,-338.98 1739.59,-273.32 1751.31,-236.33"/>
<polygon fill="black" stroke="black" points="1754.64,-237.41 1754.34,-226.82 1747.97,-235.28 1754.64,-237.41"/>
</g>
<!-- 1990981660224&#45;&gt;1990977214016 -->
<g id="edge33" class="edge">
<title>1990981660224&#45;&gt;1990977214016</title>
<path fill="none" stroke="black" d="M1662.71,-333.08C1681.7,-350.49 1710.63,-377.03 1732.15,-396.77"/>
<polygon fill="black" stroke="black" points="1729.73,-399.3 1739.47,-403.48 1734.46,-394.14 1729.73,-399.3"/>
</g>
<!-- 1990981658976&#45;&gt;1990980575184 -->
<g id="edge34" class="edge">
<title>1990981658976&#45;&gt;1990980575184</title>
<path fill="none" stroke="black" d="M1662.71,-117.08C1681.7,-134.49 1710.63,-161.03 1732.15,-180.77"/>
<polygon fill="black" stroke="black" points="1729.73,-183.3 1739.47,-187.48 1734.46,-178.14 1729.73,-183.3"/>
</g>
<!-- 1990981650672&#45;&gt;1990980575184 -->
<g id="edge41" class="edge">
<title>1990981650672&#45;&gt;1990980575184</title>
<path fill="none" stroke="black" d="M1668.26,-235.28C1678.71,-232.08 1691.29,-228.24 1703.76,-224.42"/>
<polygon fill="black" stroke="black" points="1704.64,-227.81 1713.18,-221.54 1702.6,-221.12 1704.64,-227.81"/>
</g>
<!-- 1990981655280&#45;&gt;1990977214016 -->
<g id="edge32" class="edge">
<title>1990981655280&#45;&gt;1990977214016</title>
<path fill="none" stroke="black" d="M1668.26,-394.72C1675.93,-397.07 1684.75,-399.77 1693.83,-402.54"/>
<polygon fill="black" stroke="black" points="1692.53,-405.8 1703.11,-405.38 1694.57,-399.11 1692.53,-405.8"/>
</g>
<!-- 1990981649040&#45;&gt;1990980582480 -->
<g id="edge45" class="edge">
<title>1990981649040&#45;&gt;1990980582480</title>
<path fill="none" stroke="black" d="M1901.18,-386.19C1918.43,-368.82 1944.23,-342.84 1963.54,-323.39"/>
<polygon fill="black" stroke="black" points="1966.01,-325.87 1970.57,-316.31 1961.04,-320.94 1966.01,-325.87"/>
</g>
<!-- 1990981663152&#45;&gt;1990980582480 -->
<g id="edge44" class="edge">
<title>1990981663152&#45;&gt;1990980582480</title>
<path fill="none" stroke="black" d="M1907.65,-269.44C1915.48,-272.07 1924.45,-275.08 1933.52,-278.13"/>
<polygon fill="black" stroke="black" points="1932.13,-281.35 1942.72,-281.22 1934.36,-274.71 1932.13,-281.35"/>
</g>
<!-- 1990980583008&#45;&gt;1990980578352 -->
<g id="edge47" class="edge">
<title>1990980583008&#45;&gt;1990980578352</title>
<path fill="none" stroke="black" d="M2127.46,-297C2134.72,-297 2142.91,-297 2151.28,-297"/>
<polygon fill="black" stroke="black" points="2151.23,-300.5 2161.23,-297 2151.23,-293.5 2151.23,-300.5"/>
</g>
</g>
</svg>
