<?xml version="1.0" encoding="UTF-8" standalone="no"?>
<!DOCTYPE svg PUBLIC "-//W3C//DTD SVG 1.1//EN"
 "http://www.w3.org/Graphics/SVG/1.1/DTD/svg11.dtd">
<!-- Generated by graphviz version 11.0.0 (20240428.1522)
 -->
<!-- Title: imdf_net_1754053436.854337 Pages: 1 -->
<svg width="2522pt" height="242pt"
 viewBox="0.00 0.00 2522.25 242.00" xmlns="http://www.w3.org/2000/svg" xmlns:xlink="http://www.w3.org/1999/xlink">
<g id="graph0" class="graph" transform="scale(1 1) rotate(0) translate(4 238)">
<title>imdf_net_1754053436.854337</title>
<polygon fill="white" stroke="none" points="-4,4 -4,-238 2518.25,-238 2518.25,4 -4,4"/>
<!-- 2892509988816 -->
<g id="node1" class="node">
<title>2892509988816</title>
<polygon fill="white" stroke="black" points="174.25,-117 90,-117 90,-81 174.25,-81 174.25,-117"/>
<text text-anchor="middle" x="132.12" y="-93.97" font-family="Times New Roman,serif" font-size="12.00">Artifact Intake</text>
</g>
<!-- 2892509988624 -->
<g id="node17" class="node">
<title>2892509988624</title>
<ellipse fill="white" stroke="black" cx="237.25" cy="-99" rx="27" ry="27"/>
</g>
<!-- 2892509988816&#45;&gt;2892509988624 -->
<g id="edge2" class="edge">
<title>2892509988816&#45;&gt;2892509988624</title>
<path fill="none" stroke="black" d="M174.48,-99C182.44,-99 190.74,-99 198.58,-99"/>
<polygon fill="black" stroke="black" points="198.5,-102.5 208.5,-99 198.5,-95.5 198.5,-102.5"/>
</g>
<!-- 2892509989008 -->
<g id="node2" class="node">
<title>2892509989008</title>
<polygon fill="white" stroke="black" points="383.75,-117 300.25,-117 300.25,-81 383.75,-81 383.75,-117"/>
<text text-anchor="middle" x="342" y="-93.97" font-family="Times New Roman,serif" font-size="12.00">Visual Inspect</text>
</g>
<!-- 2892509991888 -->
<g id="node18" class="node">
<title>2892509991888</title>
<ellipse fill="white" stroke="black" cx="446.75" cy="-171" rx="27" ry="27"/>
</g>
<!-- 2892509989008&#45;&gt;2892509991888 -->
<g id="edge4" class="edge">
<title>2892509989008&#45;&gt;2892509991888</title>
<path fill="none" stroke="black" d="M369.19,-117.35C383.14,-127.13 400.38,-139.21 414.97,-149.43"/>
<polygon fill="black" stroke="black" points="412.67,-152.09 422.87,-154.97 416.69,-146.36 412.67,-152.09"/>
</g>
<!-- 2892509994720 -->
<g id="node19" class="node">
<title>2892509994720</title>
<ellipse fill="white" stroke="black" cx="446.75" cy="-99" rx="27" ry="27"/>
</g>
<!-- 2892509989008&#45;&gt;2892509994720 -->
<g id="edge6" class="edge">
<title>2892509989008&#45;&gt;2892509994720</title>
<path fill="none" stroke="black" d="M384.2,-99C392.06,-99 400.25,-99 408,-99"/>
<polygon fill="black" stroke="black" points="407.8,-102.5 417.8,-99 407.8,-95.5 407.8,-102.5"/>
</g>
<!-- 2892508959072 -->
<g id="node20" class="node">
<title>2892508959072</title>
<ellipse fill="white" stroke="black" cx="446.75" cy="-27" rx="27" ry="27"/>
</g>
<!-- 2892509989008&#45;&gt;2892508959072 -->
<g id="edge5" class="edge">
<title>2892509989008&#45;&gt;2892508959072</title>
<path fill="none" stroke="black" d="M369.19,-80.65C383.14,-70.87 400.38,-58.79 414.97,-48.57"/>
<polygon fill="black" stroke="black" points="416.69,-51.64 422.87,-43.03 412.67,-45.91 416.69,-51.64"/>
</g>
<!-- 2892508955040 -->
<g id="node3" class="node">
<title>2892508955040</title>
<polygon fill="white" stroke="black" points="615,-189 515.75,-189 515.75,-153 615,-153 615,-189"/>
<text text-anchor="middle" x="565.38" y="-165.97" font-family="Times New Roman,serif" font-size="12.00">Material Analysis</text>
</g>
<!-- 2892509011248 -->
<g id="node23" class="node">
<title>2892509011248</title>
<ellipse fill="white" stroke="black" cx="684" cy="-171" rx="27" ry="27"/>
</g>
<!-- 2892508955040&#45;&gt;2892509011248 -->
<g id="edge12" class="edge">
<title>2892508955040&#45;&gt;2892509011248</title>
<path fill="none" stroke="black" d="M615.5,-171C625.39,-171 635.64,-171 645.08,-171"/>
<polygon fill="black" stroke="black" points="645,-174.5 655,-171 645,-167.5 645,-174.5"/>
</g>
<!-- 2892509999040 -->
<g id="node4" class="node">
<title>2892509999040</title>
<polygon fill="white" stroke="black" points="615.38,-117 515.38,-117 515.38,-81 615.38,-81 615.38,-117"/>
<text text-anchor="middle" x="565.38" y="-93.97" font-family="Times New Roman,serif" font-size="12.00">Radiocarbon Test</text>
</g>
<!-- 2892509011968 -->
<g id="node21" class="node">
<title>2892509011968</title>
<ellipse fill="white" stroke="black" cx="684" cy="-99" rx="27" ry="27"/>
</g>
<!-- 2892509999040&#45;&gt;2892509011968 -->
<g id="edge10" class="edge">
<title>2892509999040&#45;&gt;2892509011968</title>
<path fill="none" stroke="black" d="M615.83,-99C625.7,-99 635.91,-99 645.3,-99"/>
<polygon fill="black" stroke="black" points="645.16,-102.5 655.16,-99 645.16,-95.5 645.16,-102.5"/>
</g>
<!-- 2892509215296 -->
<g id="node5" class="node">
<title>2892509215296</title>
<polygon fill="white" stroke="black" points="621,-45 509.75,-45 509.75,-9 621,-9 621,-45"/>
<text text-anchor="middle" x="565.38" y="-21.98" font-family="Times New Roman,serif" font-size="12.00">Surface Microscopy</text>
</g>
<!-- 2892509011728 -->
<g id="node22" class="node">
<title>2892509011728</title>
<ellipse fill="white" stroke="black" cx="684" cy="-27" rx="27" ry="27"/>
</g>
<!-- 2892509215296&#45;&gt;2892509011728 -->
<g id="edge11" class="edge">
<title>2892509215296&#45;&gt;2892509011728</title>
<path fill="none" stroke="black" d="M621.27,-27C629.34,-27 637.49,-27 645.11,-27"/>
<polygon fill="black" stroke="black" points="645.04,-30.5 655.04,-27 645.04,-23.5 645.04,-30.5"/>
</g>
<!-- 2892509208048 -->
<g id="node6" class="node">
<title>2892509208048</title>
<polygon fill="white" stroke="black" points="834.25,-117 747,-117 747,-81 834.25,-81 834.25,-117"/>
<text text-anchor="middle" x="790.62" y="-93.97" font-family="Times New Roman,serif" font-size="12.00">Expert Consult</text>
</g>
<!-- 2892509202432 -->
<g id="node24" class="node">
<title>2892509202432</title>
<ellipse fill="white" stroke="black" cx="897.25" cy="-135" rx="27" ry="27"/>
</g>
<!-- 2892509208048&#45;&gt;2892509202432 -->
<g id="edge17" class="edge">
<title>2892509208048&#45;&gt;2892509202432</title>
<path fill="none" stroke="black" d="M834.48,-113.75C843.19,-116.74 852.27,-119.87 860.69,-122.76"/>
<polygon fill="black" stroke="black" points="859.28,-125.98 869.88,-125.93 861.56,-119.36 859.28,-125.98"/>
</g>
<!-- 2892509201472 -->
<g id="node25" class="node">
<title>2892509201472</title>
<ellipse fill="white" stroke="black" cx="897.25" cy="-63" rx="27" ry="27"/>
</g>
<!-- 2892509208048&#45;&gt;2892509201472 -->
<g id="edge16" class="edge">
<title>2892509208048&#45;&gt;2892509201472</title>
<path fill="none" stroke="black" d="M834.48,-84.25C843.19,-81.26 852.27,-78.13 860.69,-75.24"/>
<polygon fill="black" stroke="black" points="861.56,-78.64 869.88,-72.07 859.28,-72.02 861.56,-78.64"/>
</g>
<!-- 2892509203104 -->
<g id="node7" class="node">
<title>2892509203104</title>
<polygon fill="white" stroke="black" points="1061.75,-153 960.25,-153 960.25,-117 1061.75,-117 1061.75,-153"/>
<text text-anchor="middle" x="1011" y="-129.97" font-family="Times New Roman,serif" font-size="12.00">Historical Review</text>
</g>
<!-- 2892509134144 -->
<g id="node26" class="node">
<title>2892509134144</title>
<ellipse fill="white" stroke="black" cx="1124.75" cy="-207" rx="27" ry="27"/>
</g>
<!-- 2892509203104&#45;&gt;2892509134144 -->
<g id="edge21" class="edge">
<title>2892509203104&#45;&gt;2892509134144</title>
<path fill="none" stroke="black" d="M1040.49,-153.35C1056.23,-163.5 1075.83,-176.13 1092.06,-186.58"/>
<polygon fill="black" stroke="black" points="1090.09,-189.47 1100.39,-191.95 1093.88,-183.59 1090.09,-189.47"/>
</g>
<!-- 2892509006784 -->
<g id="node27" class="node">
<title>2892509006784</title>
<ellipse fill="white" stroke="black" cx="1124.75" cy="-135" rx="27" ry="27"/>
</g>
<!-- 2892509203104&#45;&gt;2892509006784 -->
<g id="edge22" class="edge">
<title>2892509203104&#45;&gt;2892509006784</title>
<path fill="none" stroke="black" d="M1061.99,-135C1070.1,-135 1078.37,-135 1086.11,-135"/>
<polygon fill="black" stroke="black" points="1085.86,-138.5 1095.86,-135 1085.86,-131.5 1085.86,-138.5"/>
</g>
<!-- 2892509215440 -->
<g id="node8" class="node">
<title>2892509215440</title>
<polygon fill="white" stroke="black" points="1061,-81 961,-81 961,-45 1061,-45 1061,-81"/>
<text text-anchor="middle" x="1011" y="-57.98" font-family="Times New Roman,serif" font-size="12.00">Stylistic Compare</text>
</g>
<!-- 2892509890416 -->
<g id="node28" class="node">
<title>2892509890416</title>
<ellipse fill="white" stroke="black" cx="1124.75" cy="-63" rx="27" ry="27"/>
</g>
<!-- 2892509215440&#45;&gt;2892509890416 -->
<g id="edge20" class="edge">
<title>2892509215440&#45;&gt;2892509890416</title>
<path fill="none" stroke="black" d="M1061.34,-63C1069.57,-63 1078,-63 1085.88,-63"/>
<polygon fill="black" stroke="black" points="1085.83,-66.5 1095.83,-63 1085.83,-59.5 1085.83,-66.5"/>
</g>
<!-- 2892509134000 -->
<g id="node9" class="node">
<title>2892509134000</title>
<polygon fill="white" stroke="black" points="1288.88,-153 1190.38,-153 1190.38,-117 1288.88,-117 1288.88,-153"/>
<text text-anchor="middle" x="1239.62" y="-129.97" font-family="Times New Roman,serif" font-size="12.00">Condition Report</text>
</g>
<!-- 2892509891568 -->
<g id="node30" class="node">
<title>2892509891568</title>
<ellipse fill="white" stroke="black" cx="1470.12" cy="-141" rx="27" ry="27"/>
</g>
<!-- 2892509134000&#45;&gt;2892509891568 -->
<g id="edge27" class="edge">
<title>2892509134000&#45;&gt;2892509891568</title>
<path fill="none" stroke="black" d="M1289.36,-136.28C1331.89,-137.4 1392.7,-138.99 1431.55,-140.01"/>
<polygon fill="black" stroke="black" points="1431.25,-143.51 1441.34,-140.27 1431.44,-136.51 1431.25,-143.51"/>
</g>
<!-- 2892509126368 -->
<g id="node10" class="node">
<title>2892509126368</title>
<polygon fill="white" stroke="black" points="1291.5,-224 1187.75,-224 1187.75,-188 1291.5,-188 1291.5,-224"/>
<text text-anchor="middle" x="1239.62" y="-200.97" font-family="Times New Roman,serif" font-size="12.00">Archival Research</text>
</g>
<!-- 2892509123968 -->
<g id="node29" class="node">
<title>2892509123968</title>
<ellipse fill="white" stroke="black" cx="1354.5" cy="-205" rx="27" ry="27"/>
</g>
<!-- 2892509126368&#45;&gt;2892509123968 -->
<g id="edge26" class="edge">
<title>2892509126368&#45;&gt;2892509123968</title>
<path fill="none" stroke="black" d="M1291.78,-205.55C1299.91,-205.47 1308.19,-205.4 1315.94,-205.33"/>
<polygon fill="black" stroke="black" points="1315.71,-208.83 1325.68,-205.25 1315.65,-201.84 1315.71,-208.83"/>
</g>
<!-- 2892509124880 -->
<g id="node11" class="node">
<title>2892509124880</title>
<polygon fill="white" stroke="black" points="1522.75,-223 1417.5,-223 1417.5,-187 1522.75,-187 1522.75,-223"/>
<text text-anchor="middle" x="1470.12" y="-199.97" font-family="Times New Roman,serif" font-size="12.00">Provenance Check</text>
</g>
<!-- 2892509126800 -->
<g id="node31" class="node">
<title>2892509126800</title>
<ellipse fill="white" stroke="black" cx="1585.75" cy="-203" rx="27" ry="27"/>
</g>
<!-- 2892509124880&#45;&gt;2892509126800 -->
<g id="edge30" class="edge">
<title>2892509124880&#45;&gt;2892509126800</title>
<path fill="none" stroke="black" d="M1522.95,-204.09C1531.11,-203.94 1539.41,-203.8 1547.17,-203.66"/>
<polygon fill="black" stroke="black" points="1546.99,-207.17 1556.93,-203.49 1546.87,-200.17 1546.99,-207.17"/>
</g>
<!-- 2892509129968 -->
<g id="node12" class="node">
<title>2892509129968</title>
<polygon fill="white" stroke="black" points="1990.5,-190 1877,-190 1877,-154 1990.5,-154 1990.5,-190"/>
<text text-anchor="middle" x="1933.75" y="-166.97" font-family="Times New Roman,serif" font-size="12.00">Authentication Draft</text>
</g>
<!-- 2892509128096 -->
<g id="node32" class="node">
<title>2892509128096</title>
<ellipse fill="white" stroke="black" cx="2053.5" cy="-172" rx="27" ry="27"/>
</g>
<!-- 2892509129968&#45;&gt;2892509128096 -->
<g id="edge31" class="edge">
<title>2892509129968&#45;&gt;2892509128096</title>
<path fill="none" stroke="black" d="M1990.87,-172C1998.95,-172 2007.11,-172 2014.72,-172"/>
<polygon fill="black" stroke="black" points="2014.63,-175.5 2024.63,-172 2014.63,-168.5 2014.63,-175.5"/>
</g>
<!-- 2892509134336 -->
<g id="node13" class="node">
<title>2892509134336</title>
<polygon fill="white" stroke="black" points="1751,-220 1648.75,-220 1648.75,-184 1751,-184 1751,-220"/>
<text text-anchor="middle" x="1699.88" y="-196.97" font-family="Times New Roman,serif" font-size="12.00">Legal Verification</text>
</g>
<!-- 2892509895744 -->
<g id="node34" class="node">
<title>2892509895744</title>
<ellipse fill="white" stroke="black" cx="1814" cy="-202" rx="27" ry="27"/>
</g>
<!-- 2892509134336&#45;&gt;2892509895744 -->
<g id="edge35" class="edge">
<title>2892509134336&#45;&gt;2892509895744</title>
<path fill="none" stroke="black" d="M1751.36,-202C1759.47,-202 1767.73,-202 1775.46,-202"/>
<polygon fill="black" stroke="black" points="1775.19,-205.5 1785.19,-202 1775.19,-198.5 1775.19,-205.5"/>
</g>
<!-- 2892509127952 -->
<g id="node14" class="node">
<title>2892509127952</title>
<polygon fill="white" stroke="black" points="2215,-190 2116.5,-190 2116.5,-154 2215,-154 2215,-190"/>
<text text-anchor="middle" x="2165.75" y="-166.97" font-family="Times New Roman,serif" font-size="12.00">Preservation Plan</text>
</g>
<!-- 2892509126656 -->
<g id="node33" class="node">
<title>2892509126656</title>
<ellipse fill="white" stroke="black" cx="2278" cy="-172" rx="27" ry="27"/>
</g>
<!-- 2892509127952&#45;&gt;2892509126656 -->
<g id="edge34" class="edge">
<title>2892509127952&#45;&gt;2892509126656</title>
<path fill="none" stroke="black" d="M2215.43,-172C2223.38,-172 2231.51,-172 2239.15,-172"/>
<polygon fill="black" stroke="black" points="2239.14,-175.5 2249.14,-172 2239.14,-168.5 2239.14,-175.5"/>
</g>
<!-- 2892509015232 -->
<g id="node15" class="node">
<title>2892509015232</title>
<polygon fill="white" stroke="black" points="2416.25,-190 2341,-190 2341,-154 2416.25,-154 2416.25,-190"/>
<text text-anchor="middle" x="2378.62" y="-166.97" font-family="Times New Roman,serif" font-size="12.00">Final Report</text>
</g>
<!-- 2892509996160 -->
<g id="node35" class="node">
<title>2892509996160</title>
<ellipse fill="white" stroke="black" cx="2483.25" cy="-172" rx="27" ry="27"/>
<ellipse fill="none" stroke="black" cx="2483.25" cy="-172" rx="31" ry="31"/>
<text text-anchor="start" x="2466.75" y="-156.6" font-family="Times New Roman,serif" font-size="32.00">■</text>
</g>
<!-- 2892509015232&#45;&gt;2892509996160 -->
<g id="edge38" class="edge">
<title>2892509015232&#45;&gt;2892509996160</title>
<path fill="none" stroke="black" d="M2416.67,-172C2424.47,-172 2432.74,-172 2440.68,-172"/>
<polygon fill="black" stroke="black" points="2440.48,-175.5 2450.48,-172 2440.48,-168.5 2440.48,-175.5"/>
</g>
<!-- 2892509994288 -->
<g id="node16" class="node">
<title>2892509994288</title>
<ellipse fill="white" stroke="black" cx="27" cy="-99" rx="27" ry="27"/>
<text text-anchor="start" x="9.75" y="-81.7" font-family="Times New Roman,serif" font-size="34.00">●</text>
</g>
<!-- 2892509994288&#45;&gt;2892509988816 -->
<g id="edge1" class="edge">
<title>2892509994288&#45;&gt;2892509988816</title>
<path fill="none" stroke="black" d="M54.29,-99C61.67,-99 69.98,-99 78.32,-99"/>
<polygon fill="black" stroke="black" points="78.14,-102.5 88.14,-99 78.14,-95.5 78.14,-102.5"/>
</g>
<!-- 2892509988624&#45;&gt;2892509989008 -->
<g id="edge3" class="edge">
<title>2892509988624&#45;&gt;2892509989008</title>
<path fill="none" stroke="black" d="M264.71,-99C272.07,-99 280.33,-99 288.62,-99"/>
<polygon fill="black" stroke="black" points="288.36,-102.5 298.36,-99 288.36,-95.5 288.36,-102.5"/>
</g>
<!-- 2892509991888&#45;&gt;2892508955040 -->
<g id="edge7" class="edge">
<title>2892509991888&#45;&gt;2892508955040</title>
<path fill="none" stroke="black" d="M474.21,-171C483.2,-171 493.63,-171 504.15,-171"/>
<polygon fill="black" stroke="black" points="504.02,-174.5 514.02,-171 504.02,-167.5 504.02,-174.5"/>
</g>
<!-- 2892509994720&#45;&gt;2892509999040 -->
<g id="edge8" class="edge">
<title>2892509994720&#45;&gt;2892509999040</title>
<path fill="none" stroke="black" d="M474.21,-99C483.1,-99 493.4,-99 503.81,-99"/>
<polygon fill="black" stroke="black" points="503.56,-102.5 513.56,-99 503.56,-95.5 503.56,-102.5"/>
</g>
<!-- 2892508959072&#45;&gt;2892509215296 -->
<g id="edge9" class="edge">
<title>2892508959072&#45;&gt;2892509215296</title>
<path fill="none" stroke="black" d="M474.21,-27C481.42,-27 489.57,-27 497.94,-27"/>
<polygon fill="black" stroke="black" points="497.92,-30.5 507.92,-27 497.92,-23.5 497.92,-30.5"/>
</g>
<!-- 2892509011968&#45;&gt;2892509208048 -->
<g id="edge14" class="edge">
<title>2892509011968&#45;&gt;2892509208048</title>
<path fill="none" stroke="black" d="M711.4,-99C718.73,-99 726.96,-99 735.26,-99"/>
<polygon fill="black" stroke="black" points="735.03,-102.5 745.03,-99 735.03,-95.5 735.03,-102.5"/>
</g>
<!-- 2892509011728&#45;&gt;2892509208048 -->
<g id="edge15" class="edge">
<title>2892509011728&#45;&gt;2892509208048</title>
<path fill="none" stroke="black" d="M706.93,-42.09C720.43,-51.38 738.06,-63.51 753.57,-74.19"/>
<polygon fill="black" stroke="black" points="751.42,-76.96 761.65,-79.75 755.39,-71.19 751.42,-76.96"/>
</g>
<!-- 2892509011248&#45;&gt;2892509208048 -->
<g id="edge13" class="edge">
<title>2892509011248&#45;&gt;2892509208048</title>
<path fill="none" stroke="black" d="M706.93,-155.91C720.43,-146.62 738.06,-134.49 753.57,-123.81"/>
<polygon fill="black" stroke="black" points="755.39,-126.81 761.65,-118.25 751.42,-121.04 755.39,-126.81"/>
</g>
<!-- 2892509202432&#45;&gt;2892509203104 -->
<g id="edge19" class="edge">
<title>2892509202432&#45;&gt;2892509203104</title>
<path fill="none" stroke="black" d="M924.73,-135C932.01,-135 940.22,-135 948.59,-135"/>
<polygon fill="black" stroke="black" points="948.53,-138.5 958.53,-135 948.53,-131.5 948.53,-138.5"/>
</g>
<!-- 2892509201472&#45;&gt;2892509215440 -->
<g id="edge18" class="edge">
<title>2892509201472&#45;&gt;2892509215440</title>
<path fill="none" stroke="black" d="M924.73,-63C932.27,-63 940.81,-63 949.5,-63"/>
<polygon fill="black" stroke="black" points="949.42,-66.5 959.42,-63 949.42,-59.5 949.42,-66.5"/>
</g>
<!-- 2892509134144&#45;&gt;2892509126368 -->
<g id="edge24" class="edge">
<title>2892509134144&#45;&gt;2892509126368</title>
<path fill="none" stroke="black" d="M1152.21,-206.77C1159.47,-206.7 1167.66,-206.63 1176.03,-206.55"/>
<polygon fill="black" stroke="black" points="1176.01,-210.05 1185.98,-206.47 1175.95,-203.06 1176.01,-210.05"/>
</g>
<!-- 2892509006784&#45;&gt;2892509134000 -->
<g id="edge25" class="edge">
<title>2892509006784&#45;&gt;2892509134000</title>
<path fill="none" stroke="black" d="M1152.21,-135C1160.27,-135 1169.48,-135 1178.82,-135"/>
<polygon fill="black" stroke="black" points="1178.68,-138.5 1188.68,-135 1178.68,-131.5 1178.68,-138.5"/>
</g>
<!-- 2892509890416&#45;&gt;2892509134000 -->
<g id="edge23" class="edge">
<title>2892509890416&#45;&gt;2892509134000</title>
<path fill="none" stroke="black" d="M1148.05,-77.22C1163.01,-86.77 1183.1,-99.58 1200.56,-110.72"/>
<polygon fill="black" stroke="black" points="1198.35,-113.46 1208.66,-115.89 1202.11,-107.56 1198.35,-113.46"/>
</g>
<!-- 2892509123968&#45;&gt;2892509124880 -->
<g id="edge28" class="edge">
<title>2892509123968&#45;&gt;2892509124880</title>
<path fill="none" stroke="black" d="M1381.85,-205C1389.24,-205 1397.6,-205 1406.15,-205"/>
<polygon fill="black" stroke="black" points="1405.91,-208.5 1415.91,-205 1405.91,-201.5 1405.91,-208.5"/>
</g>
<!-- 2892509891568&#45;&gt;2892509129968 -->
<g id="edge29" class="edge">
<title>2892509891568&#45;&gt;2892509129968</title>
<path fill="none" stroke="black" d="M1497.27,-142.76C1567.49,-147.47 1761.93,-160.53 1865.61,-167.49"/>
<polygon fill="black" stroke="black" points="1865.15,-170.97 1875.36,-168.15 1865.62,-163.98 1865.15,-170.97"/>
</g>
<!-- 2892509126800&#45;&gt;2892509134336 -->
<g id="edge32" class="edge">
<title>2892509126800&#45;&gt;2892509134336</title>
<path fill="none" stroke="black" d="M1613.04,-202.77C1620.42,-202.7 1628.77,-202.63 1637.29,-202.55"/>
<polygon fill="black" stroke="black" points="1637.05,-206.05 1647.02,-202.46 1636.98,-199.05 1637.05,-206.05"/>
</g>
<!-- 2892509128096&#45;&gt;2892509127952 -->
<g id="edge33" class="edge">
<title>2892509128096&#45;&gt;2892509127952</title>
<path fill="none" stroke="black" d="M2080.91,-172C2088.18,-172 2096.37,-172 2104.72,-172"/>
<polygon fill="black" stroke="black" points="2104.61,-175.5 2114.61,-172 2104.61,-168.5 2104.61,-175.5"/>
</g>
<!-- 2892509126656&#45;&gt;2892509015232 -->
<g id="edge37" class="edge">
<title>2892509126656&#45;&gt;2892509015232</title>
<path fill="none" stroke="black" d="M2305.43,-172C2312.8,-172 2321.04,-172 2329.25,-172"/>
<polygon fill="black" stroke="black" points="2329.23,-175.5 2339.23,-172 2329.23,-168.5 2329.23,-175.5"/>
</g>
<!-- 2892509895744&#45;&gt;2892509129968 -->
<g id="edge36" class="edge">
<title>2892509895744&#45;&gt;2892509129968</title>
<path fill="none" stroke="black" d="M1840.55,-195.49C1848.15,-193.55 1856.85,-191.34 1865.81,-189.06"/>
<polygon fill="black" stroke="black" points="1866.51,-192.49 1875.33,-186.63 1864.78,-185.71 1866.51,-192.49"/>
</g>
</g>
</svg>
