<?xml version="1.0" encoding="UTF-8" standalone="no"?>
<!DOCTYPE svg PUBLIC "-//W3C//DTD SVG 1.1//EN"
 "http://www.w3.org/Graphics/SVG/1.1/DTD/svg11.dtd">
<!-- Generated by graphviz version 11.0.0 (20240428.1522)
 -->
<!-- Title: imdf_net_1754053436.941992 Pages: 1 -->
<svg width="2884pt" height="216pt"
 viewBox="0.00 0.00 2884.00 216.00" xmlns="http://www.w3.org/2000/svg" xmlns:xlink="http://www.w3.org/1999/xlink">
<g id="graph0" class="graph" transform="scale(1 1) rotate(0) translate(4 212)">
<title>imdf_net_1754053436.941992</title>
<polygon fill="white" stroke="none" points="-4,4 -4,-212 2880,-212 2880,4 -4,4"/>
<!-- 2892509207472 -->
<g id="node1" class="node">
<title>2892509207472</title>
<polygon fill="white" stroke="black" points="174.25,-123 90,-123 90,-87 174.25,-87 174.25,-123"/>
<text text-anchor="middle" x="132.12" y="-99.97" font-family="Times New Roman,serif" font-size="12.00">Milk Sourcing</text>
</g>
<!-- 2892508969488 -->
<g id="node19" class="node">
<title>2892508969488</title>
<ellipse fill="white" stroke="black" cx="237.25" cy="-105" rx="27" ry="27"/>
</g>
<!-- 2892509207472&#45;&gt;2892508969488 -->
<g id="edge2" class="edge">
<title>2892509207472&#45;&gt;2892508969488</title>
<path fill="none" stroke="black" d="M174.48,-105C182.44,-105 190.74,-105 198.58,-105"/>
<polygon fill="black" stroke="black" points="198.5,-108.5 208.5,-105 198.5,-101.5 198.5,-108.5"/>
</g>
<!-- 2892508802144 -->
<g id="node2" class="node">
<title>2892508802144</title>
<polygon fill="white" stroke="black" points="389.75,-123 300.25,-123 300.25,-87 389.75,-87 389.75,-123"/>
<text text-anchor="middle" x="345" y="-99.97" font-family="Times New Roman,serif" font-size="12.00">Milk Pasteurize</text>
</g>
<!-- 2892508805792 -->
<g id="node20" class="node">
<title>2892508805792</title>
<ellipse fill="white" stroke="black" cx="452.75" cy="-105" rx="27" ry="27"/>
</g>
<!-- 2892508802144&#45;&gt;2892508805792 -->
<g id="edge4" class="edge">
<title>2892508802144&#45;&gt;2892508805792</title>
<path fill="none" stroke="black" d="M390.23,-105C398.2,-105 406.44,-105 414.2,-105"/>
<polygon fill="black" stroke="black" points="413.99,-108.5 423.99,-105 413.99,-101.5 413.99,-108.5"/>
</g>
<!-- 2892508727296 -->
<g id="node3" class="node">
<title>2892508727296</title>
<polygon fill="white" stroke="black" points="607.5,-123 515.75,-123 515.75,-87 607.5,-87 607.5,-123"/>
<text text-anchor="middle" x="561.62" y="-99.97" font-family="Times New Roman,serif" font-size="12.00">Curd Formation</text>
</g>
<!-- 2892508726720 -->
<g id="node21" class="node">
<title>2892508726720</title>
<ellipse fill="white" stroke="black" cx="670.5" cy="-105" rx="27" ry="27"/>
</g>
<!-- 2892508727296&#45;&gt;2892508726720 -->
<g id="edge6" class="edge">
<title>2892508727296&#45;&gt;2892508726720</title>
<path fill="none" stroke="black" d="M607.95,-105C615.96,-105 624.22,-105 631.98,-105"/>
<polygon fill="black" stroke="black" points="631.78,-108.5 641.78,-105 631.78,-101.5 631.78,-108.5"/>
</g>
<!-- 2892508725856 -->
<g id="node4" class="node">
<title>2892508725856</title>
<polygon fill="white" stroke="black" points="811.75,-123 733.5,-123 733.5,-87 811.75,-87 811.75,-123"/>
<text text-anchor="middle" x="772.62" y="-99.97" font-family="Times New Roman,serif" font-size="12.00">Press Cheese</text>
</g>
<!-- 2892508732384 -->
<g id="node22" class="node">
<title>2892508732384</title>
<ellipse fill="white" stroke="black" cx="874.75" cy="-105" rx="27" ry="27"/>
</g>
<!-- 2892508725856&#45;&gt;2892508732384 -->
<g id="edge8" class="edge">
<title>2892508725856&#45;&gt;2892508732384</title>
<path fill="none" stroke="black" d="M812.05,-105C819.89,-105 828.13,-105 835.94,-105"/>
<polygon fill="black" stroke="black" points="835.86,-108.5 845.86,-105 835.86,-101.5 835.86,-108.5"/>
</g>
<!-- 2892508728160 -->
<g id="node5" class="node">
<title>2892508728160</title>
<polygon fill="white" stroke="black" points="1037,-123 937.75,-123 937.75,-87 1037,-87 1037,-123"/>
<text text-anchor="middle" x="987.38" y="-99.97" font-family="Times New Roman,serif" font-size="12.00">Controlled Aging</text>
</g>
<!-- 2892508731376 -->
<g id="node23" class="node">
<title>2892508731376</title>
<ellipse fill="white" stroke="black" cx="1100" cy="-105" rx="27" ry="27"/>
</g>
<!-- 2892508728160&#45;&gt;2892508731376 -->
<g id="edge10" class="edge">
<title>2892508728160&#45;&gt;2892508731376</title>
<path fill="none" stroke="black" d="M1037.22,-105C1045.29,-105 1053.55,-105 1061.29,-105"/>
<polygon fill="black" stroke="black" points="1061.05,-108.5 1071.05,-105 1061.05,-101.5 1061.05,-108.5"/>
</g>
<!-- 2892508737664 -->
<g id="node6" class="node">
<title>2892508737664</title>
<polygon fill="white" stroke="black" points="1245,-123 1163,-123 1163,-87 1245,-87 1245,-123"/>
<text text-anchor="middle" x="1204" y="-99.97" font-family="Times New Roman,serif" font-size="12.00">Batch Testing</text>
</g>
<!-- 2892508737280 -->
<g id="node24" class="node">
<title>2892508737280</title>
<ellipse fill="white" stroke="black" cx="1308" cy="-141" rx="27" ry="27"/>
</g>
<!-- 2892508737664&#45;&gt;2892508737280 -->
<g id="edge12" class="edge">
<title>2892508737664&#45;&gt;2892508737280</title>
<path fill="none" stroke="black" d="M1245.31,-119.23C1253.99,-122.29 1263.09,-125.5 1271.56,-128.49"/>
<polygon fill="black" stroke="black" points="1270.22,-131.73 1280.82,-131.76 1272.55,-125.13 1270.22,-131.73"/>
</g>
<!-- 2892508731328 -->
<g id="node25" class="node">
<title>2892508731328</title>
<ellipse fill="white" stroke="black" cx="1308" cy="-69" rx="27" ry="27"/>
</g>
<!-- 2892508737664&#45;&gt;2892508731328 -->
<g id="edge13" class="edge">
<title>2892508737664&#45;&gt;2892508731328</title>
<path fill="none" stroke="black" d="M1245.31,-90.77C1253.99,-87.71 1263.09,-84.5 1271.56,-81.51"/>
<polygon fill="black" stroke="black" points="1272.55,-84.87 1280.82,-78.24 1270.22,-78.27 1272.55,-84.87"/>
</g>
<!-- 2892508734352 -->
<g id="node7" class="node">
<title>2892508734352</title>
<polygon fill="white" stroke="black" points="1465.75,-159 1371.75,-159 1371.75,-123 1465.75,-123 1465.75,-159"/>
<text text-anchor="middle" x="1418.75" y="-135.97" font-family="Times New Roman,serif" font-size="12.00">Sensory Review</text>
</g>
<!-- 2892508390912 -->
<g id="node26" class="node">
<title>2892508390912</title>
<ellipse fill="white" stroke="black" cx="1529.5" cy="-141" rx="27" ry="27"/>
</g>
<!-- 2892508734352&#45;&gt;2892508390912 -->
<g id="edge17" class="edge">
<title>2892508734352&#45;&gt;2892508390912</title>
<path fill="none" stroke="black" d="M1466.19,-141C1474.49,-141 1483.04,-141 1491.05,-141"/>
<polygon fill="black" stroke="black" points="1490.79,-144.5 1500.79,-141 1490.79,-137.5 1490.79,-144.5"/>
</g>
<!-- 2892508737760 -->
<g id="node8" class="node">
<title>2892508737760</title>
<polygon fill="white" stroke="black" points="1466.5,-87 1371,-87 1371,-51 1466.5,-51 1466.5,-87"/>
<text text-anchor="middle" x="1418.75" y="-63.98" font-family="Times New Roman,serif" font-size="12.00">Microbial Check</text>
</g>
<!-- 2892508384960 -->
<g id="node27" class="node">
<title>2892508384960</title>
<ellipse fill="white" stroke="black" cx="1529.5" cy="-69" rx="27" ry="27"/>
</g>
<!-- 2892508737760&#45;&gt;2892508384960 -->
<g id="edge16" class="edge">
<title>2892508737760&#45;&gt;2892508384960</title>
<path fill="none" stroke="black" d="M1466.82,-69C1474.82,-69 1483.04,-69 1490.77,-69"/>
<polygon fill="black" stroke="black" points="1490.5,-72.5 1500.5,-69 1490.5,-65.5 1490.5,-72.5"/>
</g>
<!-- 2892508734544 -->
<g id="node9" class="node">
<title>2892508734544</title>
<polygon fill="white" stroke="black" points="1685.75,-123 1592.5,-123 1592.5,-87 1685.75,-87 1685.75,-123"/>
<text text-anchor="middle" x="1639.12" y="-99.97" font-family="Times New Roman,serif" font-size="12.00">Package Cheese</text>
</g>
<!-- 2892508866816 -->
<g id="node28" class="node">
<title>2892508866816</title>
<ellipse fill="white" stroke="black" cx="1748.75" cy="-177" rx="27" ry="27"/>
</g>
<!-- 2892508734544&#45;&gt;2892508866816 -->
<g id="edge20" class="edge">
<title>2892508734544&#45;&gt;2892508866816</title>
<path fill="none" stroke="black" d="M1667.56,-123.35C1682.52,-133.36 1701.09,-145.78 1716.59,-156.15"/>
<polygon fill="black" stroke="black" points="1714.27,-158.81 1724.52,-161.46 1718.16,-152.99 1714.27,-158.81"/>
</g>
<!-- 2892508740928 -->
<g id="node29" class="node">
<title>2892508740928</title>
<ellipse fill="white" stroke="black" cx="1748.75" cy="-105" rx="27" ry="27"/>
</g>
<!-- 2892508734544&#45;&gt;2892508740928 -->
<g id="edge22" class="edge">
<title>2892508734544&#45;&gt;2892508740928</title>
<path fill="none" stroke="black" d="M1686.08,-105C1694.12,-105 1702.41,-105 1710.19,-105"/>
<polygon fill="black" stroke="black" points="1710.01,-108.5 1720.01,-105 1710.01,-101.5 1710.01,-108.5"/>
</g>
<!-- 2892508866768 -->
<g id="node30" class="node">
<title>2892508866768</title>
<ellipse fill="white" stroke="black" cx="1748.75" cy="-30" rx="27" ry="27"/>
</g>
<!-- 2892508734544&#45;&gt;2892508866768 -->
<g id="edge21" class="edge">
<title>2892508734544&#45;&gt;2892508866768</title>
<path fill="none" stroke="black" d="M1666.45,-86.65C1681.6,-76.09 1700.73,-62.77 1716.62,-51.69"/>
<polygon fill="black" stroke="black" points="1718.59,-54.59 1724.79,-46 1714.59,-48.84 1718.59,-54.59"/>
</g>
<!-- 2892508872672 -->
<g id="node10" class="node">
<title>2892508872672</title>
<polygon fill="white" stroke="black" points="1914.75,-195 1811.75,-195 1811.75,-159 1914.75,-159 1914.75,-195"/>
<text text-anchor="middle" x="1863.25" y="-171.97" font-family="Times New Roman,serif" font-size="12.00">Compliance Audit</text>
</g>
<!-- 2892508861248 -->
<g id="node32" class="node">
<title>2892508861248</title>
<ellipse fill="white" stroke="black" cx="2092.25" cy="-181" rx="27" ry="27"/>
</g>
<!-- 2892508872672&#45;&gt;2892508861248 -->
<g id="edge27" class="edge">
<title>2892508872672&#45;&gt;2892508861248</title>
<path fill="none" stroke="black" d="M1915.19,-177.9C1957.25,-178.64 2015.96,-179.67 2053.8,-180.34"/>
<polygon fill="black" stroke="black" points="2053.26,-183.83 2063.32,-180.51 2053.38,-176.83 2053.26,-183.83"/>
</g>
<!-- 2892505340128 -->
<g id="node11" class="node">
<title>2892505340128</title>
<polygon fill="white" stroke="black" points="1909.5,-123 1817,-123 1817,-87 1909.5,-87 1909.5,-123"/>
<text text-anchor="middle" x="1863.25" y="-99.97" font-family="Times New Roman,serif" font-size="12.00">Temp Transport</text>
</g>
<!-- 2892505338592 -->
<g id="node33" class="node">
<title>2892505338592</title>
<ellipse fill="white" stroke="black" cx="1977.75" cy="-105" rx="27" ry="27"/>
</g>
<!-- 2892505340128&#45;&gt;2892505338592 -->
<g id="edge28" class="edge">
<title>2892505340128&#45;&gt;2892505338592</title>
<path fill="none" stroke="black" d="M1909.68,-105C1919.37,-105 1929.51,-105 1938.88,-105"/>
<polygon fill="black" stroke="black" points="1938.74,-108.5 1948.74,-105 1938.74,-101.5 1938.74,-108.5"/>
</g>
<!-- 2892508863456 -->
<g id="node12" class="node">
<title>2892508863456</title>
<polygon fill="white" stroke="black" points="1914,-45 1812.5,-45 1812.5,-9 1914,-9 1914,-45"/>
<text text-anchor="middle" x="1863.25" y="-21.98" font-family="Times New Roman,serif" font-size="12.00">Market Campaign</text>
</g>
<!-- 2892508464432 -->
<g id="node31" class="node">
<title>2892508464432</title>
<ellipse fill="white" stroke="black" cx="2206.75" cy="-27" rx="27" ry="27"/>
</g>
<!-- 2892508863456&#45;&gt;2892508464432 -->
<g id="edge26" class="edge">
<title>2892508863456&#45;&gt;2892508464432</title>
<path fill="none" stroke="black" d="M1914.27,-27C1983.37,-27 2106.47,-27 2168.23,-27"/>
<polygon fill="black" stroke="black" points="2167.86,-30.5 2177.86,-27 2167.86,-23.5 2167.86,-30.5"/>
</g>
<!-- 2892508870176 -->
<g id="node13" class="node">
<title>2892508870176</title>
<polygon fill="white" stroke="black" points="2143.75,-123 2040.75,-123 2040.75,-87 2143.75,-87 2143.75,-123"/>
<text text-anchor="middle" x="2092.25" y="-99.97" font-family="Times New Roman,serif" font-size="12.00">Retail Distribution</text>
</g>
<!-- 2892508872384 -->
<g id="node35" class="node">
<title>2892508872384</title>
<ellipse fill="white" stroke="black" cx="2206.75" cy="-105" rx="27" ry="27"/>
</g>
<!-- 2892508870176&#45;&gt;2892508872384 -->
<g id="edge33" class="edge">
<title>2892508870176&#45;&gt;2892508872384</title>
<path fill="none" stroke="black" d="M2144.23,-105C2152.25,-105 2160.4,-105 2168.04,-105"/>
<polygon fill="black" stroke="black" points="2168.02,-108.5 2178.02,-105 2168.02,-101.5 2168.02,-108.5"/>
</g>
<!-- 2892509211120 -->
<g id="node14" class="node">
<title>2892509211120</title>
<polygon fill="black" stroke="black" points="2778,-149 2724,-149 2724,-113 2778,-113 2778,-149"/>
</g>
<!-- 2892509131600 -->
<g id="node36" class="node">
<title>2892509131600</title>
<ellipse fill="white" stroke="black" cx="2845" cy="-131" rx="27" ry="27"/>
<ellipse fill="none" stroke="black" cx="2845" cy="-131" rx="31" ry="31"/>
<text text-anchor="start" x="2828.5" y="-115.6" font-family="Times New Roman,serif" font-size="32.00">■</text>
</g>
<!-- 2892509211120&#45;&gt;2892509131600 -->
<g id="edge34" class="edge">
<title>2892509211120&#45;&gt;2892509131600</title>
<path fill="none" stroke="black" d="M2778.12,-131C2785.63,-131 2794.01,-131 2802.22,-131"/>
<polygon fill="black" stroke="black" points="2802.08,-134.5 2812.08,-131 2802.08,-127.5 2802.08,-134.5"/>
</g>
<!-- 2892508393456 -->
<g id="node15" class="node">
<title>2892508393456</title>
<polygon fill="white" stroke="black" points="2597.62,-99 2499.12,-99 2499.12,-63 2597.62,-63 2597.62,-99"/>
<text text-anchor="middle" x="2548.38" y="-75.97" font-family="Times New Roman,serif" font-size="12.00">Feedback Collect</text>
</g>
<!-- 2892508381696 -->
<g id="node34" class="node">
<title>2892508381696</title>
<ellipse fill="white" stroke="black" cx="2661" cy="-104" rx="27" ry="27"/>
</g>
<!-- 2892508393456&#45;&gt;2892508381696 -->
<g id="edge32" class="edge">
<title>2892508393456&#45;&gt;2892508381696</title>
<path fill="none" stroke="black" d="M2597.9,-91.09C2606.42,-92.86 2615.16,-94.68 2623.29,-96.37"/>
<polygon fill="black" stroke="black" points="2622.32,-99.74 2632.82,-98.35 2623.74,-92.89 2622.32,-99.74"/>
</g>
<!-- 2892508393600 -->
<g id="node16" class="node">
<title>2892508393600</title>
<polygon fill="white" stroke="black" points="2372.75,-100 2269.75,-100 2269.75,-64 2372.75,-64 2372.75,-100"/>
<text text-anchor="middle" x="2321.25" y="-76.97" font-family="Times New Roman,serif" font-size="12.00">Inventory Monitor</text>
</g>
<!-- 2892508392928 -->
<g id="node37" class="node">
<title>2892508392928</title>
<ellipse fill="white" stroke="black" cx="2435.75" cy="-81" rx="27" ry="27"/>
</g>
<!-- 2892508393600&#45;&gt;2892508392928 -->
<g id="edge37" class="edge">
<title>2892508393600&#45;&gt;2892508392928</title>
<path fill="none" stroke="black" d="M2373.23,-81.55C2381.25,-81.48 2389.4,-81.4 2397.04,-81.34"/>
<polygon fill="black" stroke="black" points="2397.05,-84.84 2407.02,-81.25 2396.99,-77.84 2397.05,-84.84"/>
</g>
<!-- 2892508382608 -->
<g id="node17" class="node">
<title>2892508382608</title>
<polygon fill="white" stroke="black" points="2598,-154 2498.75,-154 2498.75,-118 2598,-118 2598,-154"/>
<text text-anchor="middle" x="2548.38" y="-130.97" font-family="Times New Roman,serif" font-size="12.00">Demand Forecast</text>
</g>
<!-- 2892508382608&#45;&gt;2892508872384 -->
<g id="edge40" class="edge">
<title>2892508382608&#45;&gt;2892508872384</title>
<path fill="none" stroke="black" d="M2498.5,-131.54C2430.03,-125.29 2307.01,-114.06 2245.26,-108.42"/>
<polygon fill="black" stroke="black" points="2245.9,-104.97 2235.62,-107.54 2245.26,-111.94 2245.9,-104.97"/>
</g>
<!-- 2892509131936 -->
<g id="node18" class="node">
<title>2892509131936</title>
<ellipse fill="white" stroke="black" cx="27" cy="-105" rx="27" ry="27"/>
<text text-anchor="start" x="9.75" y="-87.7" font-family="Times New Roman,serif" font-size="34.00">●</text>
</g>
<!-- 2892509131936&#45;&gt;2892509207472 -->
<g id="edge1" class="edge">
<title>2892509131936&#45;&gt;2892509207472</title>
<path fill="none" stroke="black" d="M54.29,-105C61.67,-105 69.98,-105 78.32,-105"/>
<polygon fill="black" stroke="black" points="78.14,-108.5 88.14,-105 78.14,-101.5 78.14,-108.5"/>
</g>
<!-- 2892508969488&#45;&gt;2892508802144 -->
<g id="edge3" class="edge">
<title>2892508969488&#45;&gt;2892508802144</title>
<path fill="none" stroke="black" d="M264.66,-105C271.98,-105 280.21,-105 288.53,-105"/>
<polygon fill="black" stroke="black" points="288.33,-108.5 298.33,-105 288.33,-101.5 288.33,-108.5"/>
</g>
<!-- 2892508805792&#45;&gt;2892508727296 -->
<g id="edge5" class="edge">
<title>2892508805792&#45;&gt;2892508727296</title>
<path fill="none" stroke="black" d="M480.17,-105C487.48,-105 495.7,-105 504.03,-105"/>
<polygon fill="black" stroke="black" points="503.86,-108.5 513.86,-105 503.86,-101.5 503.86,-108.5"/>
</g>
<!-- 2892508726720&#45;&gt;2892508725856 -->
<g id="edge7" class="edge">
<title>2892508726720&#45;&gt;2892508725856</title>
<path fill="none" stroke="black" d="M697.81,-105C705.13,-105 713.34,-105 721.55,-105"/>
<polygon fill="black" stroke="black" points="721.55,-108.5 731.55,-105 721.55,-101.5 721.55,-108.5"/>
</g>
<!-- 2892508732384&#45;&gt;2892508728160 -->
<g id="edge9" class="edge">
<title>2892508732384&#45;&gt;2892508728160</title>
<path fill="none" stroke="black" d="M902.25,-105C909.54,-105 917.77,-105 926.14,-105"/>
<polygon fill="black" stroke="black" points="926.07,-108.5 936.07,-105 926.07,-101.5 926.07,-108.5"/>
</g>
<!-- 2892508731376&#45;&gt;2892508737664 -->
<g id="edge11" class="edge">
<title>2892508731376&#45;&gt;2892508737664</title>
<path fill="none" stroke="black" d="M1127.27,-105C1134.65,-105 1142.95,-105 1151.28,-105"/>
<polygon fill="black" stroke="black" points="1151.05,-108.5 1161.05,-105 1151.05,-101.5 1151.05,-108.5"/>
</g>
<!-- 2892508737280&#45;&gt;2892508734352 -->
<g id="edge15" class="edge">
<title>2892508737280&#45;&gt;2892508734352</title>
<path fill="none" stroke="black" d="M1335.33,-141C1342.84,-141 1351.35,-141 1359.96,-141"/>
<polygon fill="black" stroke="black" points="1359.77,-144.5 1369.77,-141 1359.77,-137.5 1359.77,-144.5"/>
</g>
<!-- 2892508731328&#45;&gt;2892508737760 -->
<g id="edge14" class="edge">
<title>2892508731328&#45;&gt;2892508737760</title>
<path fill="none" stroke="black" d="M1335.33,-69C1342.67,-69 1350.96,-69 1359.38,-69"/>
<polygon fill="black" stroke="black" points="1359.34,-72.5 1369.34,-69 1359.34,-65.5 1359.34,-72.5"/>
</g>
<!-- 2892508390912&#45;&gt;2892508734544 -->
<g id="edge19" class="edge">
<title>2892508390912&#45;&gt;2892508734544</title>
<path fill="none" stroke="black" d="M1555.46,-132.65C1563.32,-130.02 1572.34,-127.01 1581.47,-123.95"/>
<polygon fill="black" stroke="black" points="1582.36,-127.34 1590.73,-120.85 1580.14,-120.7 1582.36,-127.34"/>
</g>
<!-- 2892508384960&#45;&gt;2892508734544 -->
<g id="edge18" class="edge">
<title>2892508384960&#45;&gt;2892508734544</title>
<path fill="none" stroke="black" d="M1555.46,-77.35C1563.32,-79.98 1572.34,-82.99 1581.47,-86.05"/>
<polygon fill="black" stroke="black" points="1580.14,-89.3 1590.73,-89.15 1582.36,-82.66 1580.14,-89.3"/>
</g>
<!-- 2892508866816&#45;&gt;2892508872672 -->
<g id="edge25" class="edge">
<title>2892508866816&#45;&gt;2892508872672</title>
<path fill="none" stroke="black" d="M1776.13,-177C1783.36,-177 1791.52,-177 1799.86,-177"/>
<polygon fill="black" stroke="black" points="1799.77,-180.5 1809.77,-177 1799.77,-173.5 1799.77,-180.5"/>
</g>
<!-- 2892508740928&#45;&gt;2892505340128 -->
<g id="edge23" class="edge">
<title>2892508740928&#45;&gt;2892505340128</title>
<path fill="none" stroke="black" d="M1776.13,-105C1784.9,-105 1795.05,-105 1805.22,-105"/>
<polygon fill="black" stroke="black" points="1805.14,-108.5 1815.14,-105 1805.14,-101.5 1805.14,-108.5"/>
</g>
<!-- 2892508866768&#45;&gt;2892508863456 -->
<g id="edge24" class="edge">
<title>2892508866768&#45;&gt;2892508863456</title>
<path fill="none" stroke="black" d="M1776.13,-29.3C1783.62,-29.1 1792.12,-28.87 1800.78,-28.64"/>
<polygon fill="black" stroke="black" points="1800.77,-32.14 1810.67,-28.38 1800.58,-25.14 1800.77,-32.14"/>
</g>
<!-- 2892508464432&#45;&gt;2892508393456 -->
<g id="edge29" class="edge">
<title>2892508464432&#45;&gt;2892508393456</title>
<path fill="none" stroke="black" d="M2233.88,-26.03C2280.54,-24.91 2380.99,-25.31 2462.75,-45 2475.6,-48.09 2488.98,-52.95 2501.21,-58.1"/>
<polygon fill="black" stroke="black" points="2499.67,-61.25 2510.24,-62.07 2502.49,-54.84 2499.67,-61.25"/>
</g>
<!-- 2892508861248&#45;&gt;2892509211120 -->
<g id="edge31" class="edge">
<title>2892508861248&#45;&gt;2892509211120</title>
<path fill="none" stroke="black" d="M2119.47,-181.19C2161.73,-181.48 2247.54,-182 2320.25,-182 2320.25,-182 2320.25,-182 2549.38,-182 2608.01,-182 2673.4,-161.28 2713.12,-146.26"/>
<polygon fill="black" stroke="black" points="2714.14,-149.61 2722.2,-142.74 2711.61,-143.09 2714.14,-149.61"/>
</g>
<!-- 2892505338592&#45;&gt;2892508870176 -->
<g id="edge30" class="edge">
<title>2892505338592&#45;&gt;2892508870176</title>
<path fill="none" stroke="black" d="M2005.13,-105C2012.36,-105 2020.52,-105 2028.86,-105"/>
<polygon fill="black" stroke="black" points="2028.77,-108.5 2038.77,-105 2028.77,-101.5 2028.77,-108.5"/>
</g>
<!-- 2892508381696&#45;&gt;2892509211120 -->
<g id="edge35" class="edge">
<title>2892508381696&#45;&gt;2892509211120</title>
<path fill="none" stroke="black" d="M2686.98,-111.66C2695.06,-114.14 2704.19,-116.94 2712.95,-119.63"/>
<polygon fill="black" stroke="black" points="2711.69,-122.91 2722.28,-122.5 2713.75,-116.22 2711.69,-122.91"/>
</g>
<!-- 2892508872384&#45;&gt;2892508393600 -->
<g id="edge36" class="edge">
<title>2892508872384&#45;&gt;2892508393600</title>
<path fill="none" stroke="black" d="M2233.56,-99.72C2241.04,-98.19 2249.55,-96.45 2258.24,-94.68"/>
<polygon fill="black" stroke="black" points="2258.71,-98.15 2267.81,-92.72 2257.31,-91.3 2258.71,-98.15"/>
</g>
<!-- 2892508392928&#45;&gt;2892508393456 -->
<g id="edge38" class="edge">
<title>2892508392928&#45;&gt;2892508393456</title>
<path fill="none" stroke="black" d="M2463.25,-81C2470.71,-81 2479.15,-81 2487.73,-81"/>
<polygon fill="black" stroke="black" points="2487.51,-84.5 2497.51,-81 2487.51,-77.5 2487.51,-84.5"/>
</g>
<!-- 2892508392928&#45;&gt;2892508382608 -->
<g id="edge39" class="edge">
<title>2892508392928&#45;&gt;2892508382608</title>
<path fill="none" stroke="black" d="M2460.48,-92.8C2472.02,-98.53 2486.31,-105.64 2499.94,-112.42"/>
<polygon fill="black" stroke="black" points="2498.32,-115.52 2508.83,-116.84 2501.44,-109.25 2498.32,-115.52"/>
</g>
</g>
</svg>
