<?xml version="1.0" encoding="UTF-8" standalone="no"?>
<!DOCTYPE svg PUBLIC "-//W3C//DTD SVG 1.1//EN"
 "http://www.w3.org/Graphics/SVG/1.1/DTD/svg11.dtd">
<!-- Generated by graphviz version 11.0.0 (20240428.1522)
 -->
<!-- Title: imdf_net_1754053425.8668172 Pages: 1 -->
<svg width="2088pt" height="458pt"
 viewBox="0.00 0.00 2087.50 458.00" xmlns="http://www.w3.org/2000/svg" xmlns:xlink="http://www.w3.org/1999/xlink">
<g id="graph0" class="graph" transform="scale(1 1) rotate(0) translate(4 454)">
<title>imdf_net_1754053425.8668172</title>
<polygon fill="white" stroke="none" points="-4,4 -4,-454 2083.5,-454 2083.5,4 -4,4"/>
<!-- 2892508385008 -->
<g id="node1" class="node">
<title>2892508385008</title>
<polygon fill="white" stroke="black" points="160.75,-261 90,-261 90,-225 160.75,-225 160.75,-261"/>
<text text-anchor="middle" x="125.38" y="-237.97" font-family="Times New Roman,serif" font-size="12.00">Site Survey</text>
</g>
<!-- 2892508385056 -->
<g id="node20" class="node">
<title>2892508385056</title>
<ellipse fill="white" stroke="black" cx="223.75" cy="-243" rx="27" ry="27"/>
</g>
<!-- 2892508385008&#45;&gt;2892508385056 -->
<g id="edge2" class="edge">
<title>2892508385008&#45;&gt;2892508385056</title>
<path fill="none" stroke="black" d="M161.17,-243C168.9,-243 177.14,-243 184.98,-243"/>
<polygon fill="black" stroke="black" points="184.97,-246.5 194.97,-243 184.97,-239.5 184.97,-246.5"/>
</g>
<!-- 2892508396096 -->
<g id="node2" class="node">
<title>2892508396096</title>
<polygon fill="white" stroke="black" points="366.5,-261 286.75,-261 286.75,-225 366.5,-225 366.5,-261"/>
<text text-anchor="middle" x="326.62" y="-237.97" font-family="Times New Roman,serif" font-size="12.00">Permit Apply</text>
</g>
<!-- 2892508391776 -->
<g id="node21" class="node">
<title>2892508391776</title>
<ellipse fill="white" stroke="black" cx="429.5" cy="-243" rx="27" ry="27"/>
</g>
<!-- 2892508396096&#45;&gt;2892508391776 -->
<g id="edge4" class="edge">
<title>2892508396096&#45;&gt;2892508391776</title>
<path fill="none" stroke="black" d="M366.91,-243C374.78,-243 383.02,-243 390.82,-243"/>
<polygon fill="black" stroke="black" points="390.72,-246.5 400.72,-243 390.72,-239.5 390.72,-246.5"/>
</g>
<!-- 2892505337248 -->
<g id="node3" class="node">
<title>2892505337248</title>
<polygon fill="white" stroke="black" points="579.75,-261 492.5,-261 492.5,-225 579.75,-225 579.75,-261"/>
<text text-anchor="middle" x="536.12" y="-237.97" font-family="Times New Roman,serif" font-size="12.00">System Design</text>
</g>
<!-- 2892505342432 -->
<g id="node22" class="node">
<title>2892505342432</title>
<ellipse fill="white" stroke="black" cx="642.75" cy="-243" rx="27" ry="27"/>
</g>
<!-- 2892505337248&#45;&gt;2892505342432 -->
<g id="edge6" class="edge">
<title>2892505337248&#45;&gt;2892505342432</title>
<path fill="none" stroke="black" d="M579.98,-243C587.93,-243 596.17,-243 603.95,-243"/>
<polygon fill="black" stroke="black" points="603.79,-246.5 613.79,-243 603.79,-239.5 603.79,-246.5"/>
</g>
<!-- 2892505349104 -->
<g id="node4" class="node">
<title>2892505349104</title>
<polygon fill="white" stroke="black" points="796.75,-261 705.75,-261 705.75,-225 796.75,-225 796.75,-261"/>
<text text-anchor="middle" x="751.25" y="-237.97" font-family="Times New Roman,serif" font-size="12.00">Structural Build</text>
</g>
<!-- 2892509463616 -->
<g id="node23" class="node">
<title>2892509463616</title>
<ellipse fill="white" stroke="black" cx="859.75" cy="-423" rx="27" ry="27"/>
</g>
<!-- 2892505349104&#45;&gt;2892509463616 -->
<g id="edge10" class="edge">
<title>2892505349104&#45;&gt;2892509463616</title>
<path fill="none" stroke="black" d="M761.52,-261.12C775.86,-288.81 804.73,-343.05 832.75,-387 833.9,-388.8 835.11,-390.64 836.34,-392.48"/>
<polygon fill="black" stroke="black" points="833.22,-394.12 841.8,-400.34 838.97,-390.13 833.22,-394.12"/>
</g>
<!-- 2892504654928 -->
<g id="node24" class="node">
<title>2892504654928</title>
<ellipse fill="white" stroke="black" cx="859.75" cy="-351" rx="27" ry="27"/>
</g>
<!-- 2892505349104&#45;&gt;2892504654928 -->
<g id="edge12" class="edge">
<title>2892505349104&#45;&gt;2892504654928</title>
<path fill="none" stroke="black" d="M770.32,-261.32C787.35,-278.59 813.07,-304.68 832.39,-324.27"/>
<polygon fill="black" stroke="black" points="829.66,-326.49 839.17,-331.15 834.65,-321.57 829.66,-326.49"/>
</g>
<!-- 2892504810704 -->
<g id="node25" class="node">
<title>2892504810704</title>
<ellipse fill="white" stroke="black" cx="859.75" cy="-279" rx="27" ry="27"/>
</g>
<!-- 2892505349104&#45;&gt;2892504810704 -->
<g id="edge13" class="edge">
<title>2892505349104&#45;&gt;2892504810704</title>
<path fill="none" stroke="black" d="M797.11,-258.16C805.71,-261.07 814.6,-264.08 822.87,-266.87"/>
<polygon fill="black" stroke="black" points="821.65,-270.15 832.24,-270.04 823.89,-263.52 821.65,-270.15"/>
</g>
<!-- 2892504819920 -->
<g id="node26" class="node">
<title>2892504819920</title>
<ellipse fill="white" stroke="black" cx="859.75" cy="-207" rx="27" ry="27"/>
</g>
<!-- 2892505349104&#45;&gt;2892504819920 -->
<g id="edge8" class="edge">
<title>2892505349104&#45;&gt;2892504819920</title>
<path fill="none" stroke="black" d="M797.11,-227.84C805.71,-224.93 814.6,-221.92 822.87,-219.13"/>
<polygon fill="black" stroke="black" points="823.89,-222.48 832.24,-215.96 821.65,-215.85 823.89,-222.48"/>
</g>
<!-- 2892505121232 -->
<g id="node27" class="node">
<title>2892505121232</title>
<ellipse fill="white" stroke="black" cx="859.75" cy="-135" rx="27" ry="27"/>
</g>
<!-- 2892505349104&#45;&gt;2892505121232 -->
<g id="edge11" class="edge">
<title>2892505349104&#45;&gt;2892505121232</title>
<path fill="none" stroke="black" d="M770.32,-224.68C787.35,-207.41 813.07,-181.32 832.39,-161.73"/>
<polygon fill="black" stroke="black" points="834.65,-164.43 839.17,-154.85 829.66,-159.51 834.65,-164.43"/>
</g>
<!-- 2892509478880 -->
<g id="node28" class="node">
<title>2892509478880</title>
<ellipse fill="white" stroke="black" cx="859.75" cy="-63" rx="27" ry="27"/>
</g>
<!-- 2892505349104&#45;&gt;2892509478880 -->
<g id="edge9" class="edge">
<title>2892505349104&#45;&gt;2892509478880</title>
<path fill="none" stroke="black" d="M761.52,-224.88C775.86,-197.19 804.73,-142.95 832.75,-99 833.9,-97.2 835.11,-95.36 836.34,-93.52"/>
<polygon fill="black" stroke="black" points="838.97,-95.87 841.8,-85.66 833.22,-91.88 838.97,-95.87"/>
</g>
<!-- 2892504823040 -->
<g id="node5" class="node">
<title>2892504823040</title>
<polygon fill="white" stroke="black" points="1022.38,-297 931.38,-297 931.38,-261 1022.38,-261 1022.38,-297"/>
<text text-anchor="middle" x="976.88" y="-273.98" font-family="Times New Roman,serif" font-size="12.00">Irrigation Install</text>
</g>
<!-- 2892507935664 -->
<g id="node33" class="node">
<title>2892507935664</title>
<ellipse fill="white" stroke="black" cx="1094" cy="-279" rx="27" ry="27"/>
</g>
<!-- 2892504823040&#45;&gt;2892507935664 -->
<g id="edge24" class="edge">
<title>2892504823040&#45;&gt;2892507935664</title>
<path fill="none" stroke="black" d="M1022.71,-279C1033.54,-279 1045,-279 1055.45,-279"/>
<polygon fill="black" stroke="black" points="1055.22,-282.5 1065.22,-279 1055.22,-275.5 1055.22,-282.5"/>
</g>
<!-- 2892505126032 -->
<g id="node6" class="node">
<title>2892505126032</title>
<polygon fill="white" stroke="black" points="1020.12,-153 933.62,-153 933.62,-117 1020.12,-117 1020.12,-153"/>
<text text-anchor="middle" x="976.88" y="-129.97" font-family="Times New Roman,serif" font-size="12.00">Sensor Deploy</text>
</g>
<!-- 2892505128288 -->
<g id="node34" class="node">
<title>2892505128288</title>
<ellipse fill="white" stroke="black" cx="1094" cy="-135" rx="27" ry="27"/>
</g>
<!-- 2892505126032&#45;&gt;2892505128288 -->
<g id="edge21" class="edge">
<title>2892505126032&#45;&gt;2892505128288</title>
<path fill="none" stroke="black" d="M1020.42,-135C1031.92,-135 1044.29,-135 1055.49,-135"/>
<polygon fill="black" stroke="black" points="1055.15,-138.5 1065.15,-135 1055.15,-131.5 1055.15,-138.5"/>
</g>
<!-- 2892509473168 -->
<g id="node7" class="node">
<title>2892509473168</title>
<polygon fill="white" stroke="black" points="1020.5,-441 933.25,-441 933.25,-405 1020.5,-405 1020.5,-441"/>
<text text-anchor="middle" x="976.88" y="-417.98" font-family="Times New Roman,serif" font-size="12.00">Climate Adjust</text>
</g>
<!-- 2892509476480 -->
<g id="node29" class="node">
<title>2892509476480</title>
<ellipse fill="white" stroke="black" cx="1094" cy="-423" rx="27" ry="27"/>
</g>
<!-- 2892509473168&#45;&gt;2892509476480 -->
<g id="edge20" class="edge">
<title>2892509473168&#45;&gt;2892509476480</title>
<path fill="none" stroke="black" d="M1020.74,-423C1032.1,-423 1044.28,-423 1055.35,-423"/>
<polygon fill="black" stroke="black" points="1055.3,-426.5 1065.3,-423 1055.3,-419.5 1055.3,-426.5"/>
</g>
<!-- 2892505123536 -->
<g id="node8" class="node">
<title>2892505123536</title>
<polygon fill="white" stroke="black" points="1015.62,-225 938.12,-225 938.12,-189 1015.62,-189 1015.62,-225"/>
<text text-anchor="middle" x="976.88" y="-201.97" font-family="Times New Roman,serif" font-size="12.00">Nutrient Mix</text>
</g>
<!-- 2892504811280 -->
<g id="node31" class="node">
<title>2892504811280</title>
<ellipse fill="white" stroke="black" cx="1094" cy="-207" rx="27" ry="27"/>
</g>
<!-- 2892505123536&#45;&gt;2892504811280 -->
<g id="edge23" class="edge">
<title>2892505123536&#45;&gt;2892504811280</title>
<path fill="none" stroke="black" d="M1015.89,-207C1028.63,-207 1042.81,-207 1055.51,-207"/>
<polygon fill="black" stroke="black" points="1055.15,-210.5 1065.15,-207 1055.15,-203.5 1055.15,-210.5"/>
</g>
<!-- 2892509476816 -->
<g id="node9" class="node">
<title>2892509476816</title>
<polygon fill="white" stroke="black" points="1031,-81 922.75,-81 922.75,-45 1031,-45 1031,-81"/>
<text text-anchor="middle" x="976.88" y="-57.98" font-family="Times New Roman,serif" font-size="12.00">Automation Config</text>
</g>
<!-- 2892508013600 -->
<g id="node32" class="node">
<title>2892508013600</title>
<ellipse fill="white" stroke="black" cx="1094" cy="-63" rx="27" ry="27"/>
</g>
<!-- 2892509476816&#45;&gt;2892508013600 -->
<g id="edge25" class="edge">
<title>2892509476816&#45;&gt;2892508013600</title>
<path fill="none" stroke="black" d="M1031.39,-63C1039.41,-63 1047.53,-63 1055.13,-63"/>
<polygon fill="black" stroke="black" points="1055.04,-66.5 1065.04,-63 1055.04,-59.5 1055.04,-66.5"/>
</g>
<!-- 2892504658528 -->
<g id="node10" class="node">
<title>2892504658528</title>
<polygon fill="white" stroke="black" points="1020.12,-369 933.62,-369 933.62,-333 1020.12,-333 1020.12,-369"/>
<text text-anchor="middle" x="976.88" y="-345.98" font-family="Times New Roman,serif" font-size="12.00">Lighting Setup</text>
</g>
<!-- 2892504657424 -->
<g id="node30" class="node">
<title>2892504657424</title>
<ellipse fill="white" stroke="black" cx="1094" cy="-351" rx="27" ry="27"/>
</g>
<!-- 2892504658528&#45;&gt;2892504657424 -->
<g id="edge22" class="edge">
<title>2892504658528&#45;&gt;2892504657424</title>
<path fill="none" stroke="black" d="M1020.42,-351C1031.92,-351 1044.29,-351 1055.49,-351"/>
<polygon fill="black" stroke="black" points="1055.15,-354.5 1065.15,-351 1055.15,-347.5 1055.15,-354.5"/>
</g>
<!-- 2892509468464 -->
<g id="node11" class="node">
<title>2892509468464</title>
<polygon fill="white" stroke="black" points="1239,-261 1157,-261 1157,-225 1239,-225 1239,-261"/>
<text text-anchor="middle" x="1198" y="-237.97" font-family="Times New Roman,serif" font-size="12.00">Crop Planting</text>
</g>
<!-- 2892505349728 -->
<g id="node35" class="node">
<title>2892505349728</title>
<ellipse fill="white" stroke="black" cx="1302" cy="-243" rx="27" ry="27"/>
</g>
<!-- 2892509468464&#45;&gt;2892505349728 -->
<g id="edge32" class="edge">
<title>2892509468464&#45;&gt;2892505349728</title>
<path fill="none" stroke="black" d="M1239.31,-243C1247.23,-243 1255.5,-243 1263.32,-243"/>
<polygon fill="black" stroke="black" points="1263.23,-246.5 1273.23,-243 1263.23,-239.5 1263.23,-246.5"/>
</g>
<!-- 2892505348480 -->
<g id="node12" class="node">
<title>2892505348480</title>
<polygon fill="white" stroke="black" points="1459,-238 1365,-238 1365,-202 1459,-202 1459,-238"/>
<text text-anchor="middle" x="1412" y="-214.97" font-family="Times New Roman,serif" font-size="12.00">Growth Monitor</text>
</g>
<!-- 2892505347760 -->
<g id="node36" class="node">
<title>2892505347760</title>
<ellipse fill="white" stroke="black" cx="1522" cy="-179" rx="27" ry="27"/>
</g>
<!-- 2892505348480&#45;&gt;2892505347760 -->
<g id="edge34" class="edge">
<title>2892505348480&#45;&gt;2892505347760</title>
<path fill="none" stroke="black" d="M1459.43,-202.37C1468.25,-199.02 1477.35,-195.57 1485.76,-192.38"/>
<polygon fill="black" stroke="black" points="1486.81,-195.72 1494.92,-188.9 1484.33,-189.18 1486.81,-195.72"/>
</g>
<!-- 2892505348240 -->
<g id="node13" class="node">
<title>2892505348240</title>
<polygon fill="black" stroke="black" points="1661.62,-197 1607.62,-197 1607.62,-161 1661.62,-161 1661.62,-197"/>
</g>
<!-- 2892505006000 -->
<g id="node37" class="node">
<title>2892505006000</title>
<ellipse fill="white" stroke="black" cx="1751.25" cy="-251" rx="27" ry="27"/>
</g>
<!-- 2892505348240&#45;&gt;2892505006000 -->
<g id="edge37" class="edge">
<title>2892505348240&#45;&gt;2892505006000</title>
<path fill="none" stroke="black" d="M1661.92,-195.52C1678.76,-206.1 1700.72,-219.89 1718.53,-231.07"/>
<polygon fill="black" stroke="black" points="1716.32,-233.82 1726.65,-236.18 1720.05,-227.9 1716.32,-233.82"/>
</g>
<!-- 2892505342144 -->
<g id="node38" class="node">
<title>2892505342144</title>
<ellipse fill="white" stroke="black" cx="1751.25" cy="-179" rx="27" ry="27"/>
</g>
<!-- 2892505348240&#45;&gt;2892505342144 -->
<g id="edge38" class="edge">
<title>2892505348240&#45;&gt;2892505342144</title>
<path fill="none" stroke="black" d="M1661.92,-179C1677.07,-179 1696.35,-179 1713.03,-179"/>
<polygon fill="black" stroke="black" points="1712.56,-182.5 1722.56,-179 1712.56,-175.5 1712.56,-182.5"/>
</g>
<!-- 2892505005568 -->
<g id="node39" class="node">
<title>2892505005568</title>
<ellipse fill="white" stroke="black" cx="1751.25" cy="-107" rx="27" ry="27"/>
</g>
<!-- 2892505348240&#45;&gt;2892505005568 -->
<g id="edge39" class="edge">
<title>2892505348240&#45;&gt;2892505005568</title>
<path fill="none" stroke="black" d="M1661.92,-162.48C1678.76,-151.9 1700.72,-138.11 1718.53,-126.93"/>
<polygon fill="black" stroke="black" points="1720.05,-130.1 1726.65,-121.82 1716.32,-124.18 1720.05,-130.1"/>
</g>
<!-- 2892508465872 -->
<g id="node14" class="node">
<title>2892508465872</title>
<polygon fill="white" stroke="black" points="1684.25,-96 1585,-96 1585,-60 1684.25,-60 1684.25,-96"/>
<text text-anchor="middle" x="1634.62" y="-72.97" font-family="Times New Roman,serif" font-size="12.00">Community Meet</text>
</g>
<!-- 2892503126176 -->
<g id="node40" class="node">
<title>2892503126176</title>
<ellipse fill="white" stroke="black" cx="1751.25" cy="-31" rx="27" ry="27"/>
<ellipse fill="none" stroke="black" cx="1751.25" cy="-31" rx="31" ry="31"/>
<text text-anchor="start" x="1734.75" y="-15.6" font-family="Times New Roman,serif" font-size="32.00">■</text>
</g>
<!-- 2892508465872&#45;&gt;2892503126176 -->
<g id="edge40" class="edge">
<title>2892508465872&#45;&gt;2892503126176</title>
<path fill="none" stroke="black" d="M1680.6,-59.56C1690.92,-55.33 1701.79,-50.87 1711.81,-46.76"/>
<polygon fill="black" stroke="black" points="1712.94,-50.08 1720.86,-43.05 1710.28,-43.6 1712.94,-50.08"/>
</g>
<!-- 2892504989776 -->
<g id="node15" class="node">
<title>2892504989776</title>
<polygon fill="white" stroke="black" points="1896.12,-125 1821.62,-125 1821.62,-89 1896.12,-89 1896.12,-125"/>
<text text-anchor="middle" x="1858.88" y="-101.97" font-family="Times New Roman,serif" font-size="12.00">Pest Control</text>
</g>
<!-- 2892505002304 -->
<g id="node42" class="node">
<title>2892505002304</title>
<ellipse fill="white" stroke="black" cx="1962.5" cy="-107" rx="27" ry="27"/>
</g>
<!-- 2892504989776&#45;&gt;2892505002304 -->
<g id="edge45" class="edge">
<title>2892504989776&#45;&gt;2892505002304</title>
<path fill="none" stroke="black" d="M1896.56,-107C1905.42,-107 1914.9,-107 1923.8,-107"/>
<polygon fill="black" stroke="black" points="1923.55,-110.5 1933.55,-107 1923.55,-103.5 1923.55,-110.5"/>
</g>
<!-- 2892505006048 -->
<g id="node16" class="node">
<title>2892505006048</title>
<polygon fill="white" stroke="black" points="1896.88,-269 1820.88,-269 1820.88,-233 1896.88,-233 1896.88,-269"/>
<text text-anchor="middle" x="1858.88" y="-245.97" font-family="Times New Roman,serif" font-size="12.00">Waste Cycle</text>
</g>
<!-- 2892504996208 -->
<g id="node43" class="node">
<title>2892504996208</title>
<ellipse fill="white" stroke="black" cx="1962.5" cy="-251" rx="27" ry="27"/>
</g>
<!-- 2892505006048&#45;&gt;2892504996208 -->
<g id="edge44" class="edge">
<title>2892505006048&#45;&gt;2892504996208</title>
<path fill="none" stroke="black" d="M1897.14,-251C1905.79,-251 1915,-251 1923.67,-251"/>
<polygon fill="black" stroke="black" points="1923.54,-254.5 1933.54,-251 1923.54,-247.5 1923.54,-254.5"/>
</g>
<!-- 2892505346800 -->
<g id="node17" class="node">
<title>2892505346800</title>
<polygon fill="white" stroke="black" points="1899.5,-197 1818.25,-197 1818.25,-161 1899.5,-161 1899.5,-197"/>
<text text-anchor="middle" x="1858.88" y="-173.97" font-family="Times New Roman,serif" font-size="12.00">Data Analyze</text>
</g>
<!-- 2892505343104 -->
<g id="node41" class="node">
<title>2892505343104</title>
<ellipse fill="white" stroke="black" cx="1962.5" cy="-179" rx="27" ry="27"/>
</g>
<!-- 2892505346800&#45;&gt;2892505343104 -->
<g id="edge46" class="edge">
<title>2892505346800&#45;&gt;2892505343104</title>
<path fill="none" stroke="black" d="M1899.75,-179C1907.65,-179 1915.92,-179 1923.75,-179"/>
<polygon fill="black" stroke="black" points="1923.67,-182.5 1933.67,-179 1923.67,-175.5 1923.67,-182.5"/>
</g>
<!-- 2892505345504 -->
<g id="node18" class="node">
<title>2892505345504</title>
<polygon fill="black" stroke="black" points="2079.5,-233 2025.5,-233 2025.5,-197 2079.5,-197 2079.5,-233"/>
</g>
<!-- 2892505345504&#45;&gt;2892505349728 -->
<g id="edge50" class="edge">
<title>2892505345504&#45;&gt;2892505349728</title>
<path fill="none" stroke="black" d="M2041.04,-233.38C2030.37,-250.27 2012.19,-274.52 1989.5,-287 1938.48,-315.05 1918.1,-306 1859.88,-306 1521,-306 1521,-306 1521,-306 1453.77,-306 1379.31,-278.01 1337.12,-259.34"/>
<polygon fill="black" stroke="black" points="1338.8,-256.26 1328.25,-255.33 1335.91,-262.64 1338.8,-256.26"/>
</g>
<!-- 2892503126032 -->
<g id="node19" class="node">
<title>2892503126032</title>
<ellipse fill="white" stroke="black" cx="27" cy="-243" rx="27" ry="27"/>
<text text-anchor="start" x="9.75" y="-225.7" font-family="Times New Roman,serif" font-size="34.00">●</text>
</g>
<!-- 2892503126032&#45;&gt;2892508385008 -->
<g id="edge1" class="edge">
<title>2892503126032&#45;&gt;2892508385008</title>
<path fill="none" stroke="black" d="M54.33,-243C61.76,-243 70.06,-243 78.28,-243"/>
<polygon fill="black" stroke="black" points="78.24,-246.5 88.24,-243 78.24,-239.5 78.24,-246.5"/>
</g>
<!-- 2892508385056&#45;&gt;2892508396096 -->
<g id="edge3" class="edge">
<title>2892508385056&#45;&gt;2892508396096</title>
<path fill="none" stroke="black" d="M250.99,-243C258.46,-243 266.85,-243 275.24,-243"/>
<polygon fill="black" stroke="black" points="275.08,-246.5 285.08,-243 275.08,-239.5 275.08,-246.5"/>
</g>
<!-- 2892508391776&#45;&gt;2892505337248 -->
<g id="edge5" class="edge">
<title>2892508391776&#45;&gt;2892505337248</title>
<path fill="none" stroke="black" d="M456.9,-243C464.23,-243 472.46,-243 480.76,-243"/>
<polygon fill="black" stroke="black" points="480.53,-246.5 490.53,-243 480.53,-239.5 480.53,-246.5"/>
</g>
<!-- 2892505342432&#45;&gt;2892505349104 -->
<g id="edge7" class="edge">
<title>2892505342432&#45;&gt;2892505349104</title>
<path fill="none" stroke="black" d="M670.08,-243C677.44,-243 685.75,-243 694.14,-243"/>
<polygon fill="black" stroke="black" points="694.06,-246.5 704.06,-243 694.06,-239.5 694.06,-246.5"/>
</g>
<!-- 2892509463616&#45;&gt;2892509473168 -->
<g id="edge19" class="edge">
<title>2892509463616&#45;&gt;2892509473168</title>
<path fill="none" stroke="black" d="M887.16,-423C897.42,-423 909.58,-423 921.54,-423"/>
<polygon fill="black" stroke="black" points="921.38,-426.5 931.38,-423 921.38,-419.5 921.38,-426.5"/>
</g>
<!-- 2892504654928&#45;&gt;2892504658528 -->
<g id="edge17" class="edge">
<title>2892504654928&#45;&gt;2892504658528</title>
<path fill="none" stroke="black" d="M887.16,-351C897.53,-351 909.82,-351 921.9,-351"/>
<polygon fill="black" stroke="black" points="921.83,-354.5 931.83,-351 921.83,-347.5 921.83,-354.5"/>
</g>
<!-- 2892504810704&#45;&gt;2892504823040 -->
<g id="edge14" class="edge">
<title>2892504810704&#45;&gt;2892504823040</title>
<path fill="none" stroke="black" d="M887.16,-279C896.92,-279 908.39,-279 919.78,-279"/>
<polygon fill="black" stroke="black" points="919.57,-282.5 929.57,-279 919.57,-275.5 919.57,-282.5"/>
</g>
<!-- 2892504819920&#45;&gt;2892505123536 -->
<g id="edge16" class="edge">
<title>2892504819920&#45;&gt;2892505123536</title>
<path fill="none" stroke="black" d="M887.16,-207C898.88,-207 913.07,-207 926.63,-207"/>
<polygon fill="black" stroke="black" points="926.29,-210.5 936.29,-207 926.29,-203.5 926.29,-210.5"/>
</g>
<!-- 2892505121232&#45;&gt;2892505126032 -->
<g id="edge15" class="edge">
<title>2892505121232&#45;&gt;2892505126032</title>
<path fill="none" stroke="black" d="M887.16,-135C897.53,-135 909.82,-135 921.9,-135"/>
<polygon fill="black" stroke="black" points="921.83,-138.5 931.83,-135 921.83,-131.5 921.83,-138.5"/>
</g>
<!-- 2892509478880&#45;&gt;2892509476816 -->
<g id="edge18" class="edge">
<title>2892509478880&#45;&gt;2892509476816</title>
<path fill="none" stroke="black" d="M887.16,-63C894.37,-63 902.52,-63 910.87,-63"/>
<polygon fill="black" stroke="black" points="910.82,-66.5 920.82,-63 910.82,-59.5 910.82,-66.5"/>
</g>
<!-- 2892509476480&#45;&gt;2892509468464 -->
<g id="edge26" class="edge">
<title>2892509476480&#45;&gt;2892509468464</title>
<path fill="none" stroke="black" d="M1111.18,-401.63C1114.55,-396.9 1117.99,-391.85 1121,-387 1145.17,-348.07 1169.2,-300.71 1183.58,-271.2"/>
<polygon fill="black" stroke="black" points="1186.56,-273.07 1187.76,-262.55 1180.26,-270.02 1186.56,-273.07"/>
</g>
<!-- 2892504657424&#45;&gt;2892509468464 -->
<g id="edge31" class="edge">
<title>2892504657424&#45;&gt;2892509468464</title>
<path fill="none" stroke="black" d="M1113.24,-331.69C1129.53,-314.43 1153.58,-288.98 1171.73,-269.76"/>
<polygon fill="black" stroke="black" points="1174.24,-272.19 1178.56,-262.52 1169.15,-267.39 1174.24,-272.19"/>
</g>
<!-- 2892504811280&#45;&gt;2892509468464 -->
<g id="edge30" class="edge">
<title>2892504811280&#45;&gt;2892509468464</title>
<path fill="none" stroke="black" d="M1119.95,-215.81C1127.92,-218.62 1137.05,-221.84 1146.17,-225.06"/>
<polygon fill="black" stroke="black" points="1144.79,-228.28 1155.38,-228.31 1147.12,-221.68 1144.79,-228.28"/>
</g>
<!-- 2892508013600&#45;&gt;2892509468464 -->
<g id="edge28" class="edge">
<title>2892508013600&#45;&gt;2892509468464</title>
<path fill="none" stroke="black" d="M1111.18,-84.37C1114.55,-89.1 1117.99,-94.15 1121,-99 1145.17,-137.93 1169.2,-185.29 1183.58,-214.8"/>
<polygon fill="black" stroke="black" points="1180.26,-215.98 1187.76,-223.45 1186.56,-212.93 1180.26,-215.98"/>
</g>
<!-- 2892507935664&#45;&gt;2892509468464 -->
<g id="edge27" class="edge">
<title>2892507935664&#45;&gt;2892509468464</title>
<path fill="none" stroke="black" d="M1119.95,-270.19C1127.92,-267.38 1137.05,-264.16 1146.17,-260.94"/>
<polygon fill="black" stroke="black" points="1147.12,-264.32 1155.38,-257.69 1144.79,-257.72 1147.12,-264.32"/>
</g>
<!-- 2892505128288&#45;&gt;2892509468464 -->
<g id="edge29" class="edge">
<title>2892505128288&#45;&gt;2892509468464</title>
<path fill="none" stroke="black" d="M1113.24,-154.31C1129.53,-171.57 1153.58,-197.02 1171.73,-216.24"/>
<polygon fill="black" stroke="black" points="1169.15,-218.61 1178.56,-223.48 1174.24,-213.81 1169.15,-218.61"/>
</g>
<!-- 2892505349728&#45;&gt;2892505348480 -->
<g id="edge33" class="edge">
<title>2892505349728&#45;&gt;2892505348480</title>
<path fill="none" stroke="black" d="M1328.87,-237.49C1336.42,-235.88 1344.98,-234.06 1353.66,-232.21"/>
<polygon fill="black" stroke="black" points="1354.12,-235.69 1363.17,-230.19 1352.66,-228.85 1354.12,-235.69"/>
</g>
<!-- 2892505347760&#45;&gt;2892505348240 -->
<g id="edge35" class="edge">
<title>2892505347760&#45;&gt;2892505348240</title>
<path fill="none" stroke="black" d="M1549.5,-179C1563.45,-179 1580.81,-179 1596.12,-179"/>
<polygon fill="black" stroke="black" points="1595.83,-182.5 1605.83,-179 1595.83,-175.5 1595.83,-182.5"/>
</g>
<!-- 2892505347760&#45;&gt;2892508465872 -->
<g id="edge36" class="edge">
<title>2892505347760&#45;&gt;2892508465872</title>
<path fill="none" stroke="black" d="M1542.52,-161.18C1559.92,-145.29 1585.6,-121.85 1605.26,-103.89"/>
<polygon fill="black" stroke="black" points="1607.41,-106.68 1612.43,-97.35 1602.69,-101.51 1607.41,-106.68"/>
</g>
<!-- 2892505006000&#45;&gt;2892505006048 -->
<g id="edge41" class="edge">
<title>2892505006000&#45;&gt;2892505006048</title>
<path fill="none" stroke="black" d="M1778.63,-251C1787.96,-251 1798.78,-251 1809.37,-251"/>
<polygon fill="black" stroke="black" points="1809.17,-254.5 1819.17,-251 1809.17,-247.5 1809.17,-254.5"/>
</g>
<!-- 2892505342144&#45;&gt;2892505346800 -->
<g id="edge42" class="edge">
<title>2892505342144&#45;&gt;2892505346800</title>
<path fill="none" stroke="black" d="M1778.63,-179C1787.15,-179 1796.91,-179 1806.6,-179"/>
<polygon fill="black" stroke="black" points="1806.35,-182.5 1816.35,-179 1806.35,-175.5 1806.35,-182.5"/>
</g>
<!-- 2892505005568&#45;&gt;2892504989776 -->
<g id="edge43" class="edge">
<title>2892505005568&#45;&gt;2892504989776</title>
<path fill="none" stroke="black" d="M1778.63,-107C1788.14,-107 1799.2,-107 1809.98,-107"/>
<polygon fill="black" stroke="black" points="1809.97,-110.5 1819.97,-107 1809.97,-103.5 1809.97,-110.5"/>
</g>
<!-- 2892505343104&#45;&gt;2892505345504 -->
<g id="edge47" class="edge">
<title>2892505343104&#45;&gt;2892505345504</title>
<path fill="none" stroke="black" d="M1988.01,-189.03C1996.26,-192.4 2005.64,-196.24 2014.62,-199.91"/>
<polygon fill="black" stroke="black" points="2013.29,-203.15 2023.87,-203.7 2015.94,-196.67 2013.29,-203.15"/>
</g>
<!-- 2892505002304&#45;&gt;2892505345504 -->
<g id="edge48" class="edge">
<title>2892505002304&#45;&gt;2892505345504</title>
<path fill="none" stroke="black" d="M1980.26,-127.57C1994.17,-144.64 2014.06,-169.05 2029.29,-187.74"/>
<polygon fill="black" stroke="black" points="2026.58,-189.95 2035.61,-195.49 2032,-185.53 2026.58,-189.95"/>
</g>
<!-- 2892504996208&#45;&gt;2892505345504 -->
<g id="edge49" class="edge">
<title>2892504996208&#45;&gt;2892505345504</title>
<path fill="none" stroke="black" d="M1988.01,-240.97C1996.26,-237.6 2005.64,-233.76 2014.62,-230.09"/>
<polygon fill="black" stroke="black" points="2015.94,-233.33 2023.87,-226.3 2013.29,-226.85 2015.94,-233.33"/>
</g>
</g>
</svg>
