<?xml version="1.0" encoding="UTF-8" standalone="no"?>
<!DOCTYPE svg PUBLIC "-//W3C//DTD SVG 1.1//EN"
 "http://www.w3.org/Graphics/SVG/1.1/DTD/svg11.dtd">
<!-- Generated by graphviz version 11.0.0 (20240428.1522)
 -->
<!-- Title: imdf_net_1754052394.679464 Pages: 1 -->
<svg width="2182pt" height="638pt"
 viewBox="0.00 0.00 2181.75 638.00" xmlns="http://www.w3.org/2000/svg" xmlns:xlink="http://www.w3.org/1999/xlink">
<g id="graph0" class="graph" transform="scale(1 1) rotate(0) translate(4 634)">
<title>imdf_net_1754052394.679464</title>
<polygon fill="white" stroke="none" points="-4,4 -4,-634 2177.75,-634 2177.75,4 -4,4"/>
<!-- 1990977585712 -->
<g id="node1" class="node">
<title>1990977585712</title>
<polygon fill="black" stroke="black" points="144,-369 90,-369 90,-333 144,-333 144,-369"/>
</g>
<!-- 1990981076656 -->
<g id="node19" class="node">
<title>1990981076656</title>
<ellipse fill="white" stroke="black" cx="207" cy="-315" rx="27" ry="27"/>
</g>
<!-- 1990977585712&#45;&gt;1990981076656 -->
<g id="edge2" class="edge">
<title>1990977585712&#45;&gt;1990981076656</title>
<path fill="none" stroke="black" d="M144.4,-340.2C152.75,-336.78 162.12,-332.95 170.97,-329.33"/>
<polygon fill="black" stroke="black" points="172.09,-332.65 180.02,-325.63 169.44,-326.17 172.09,-332.65"/>
</g>
<!-- 1990976165200 -->
<g id="node20" class="node">
<title>1990976165200</title>
<ellipse fill="white" stroke="black" cx="207" cy="-387" rx="27" ry="27"/>
</g>
<!-- 1990977585712&#45;&gt;1990976165200 -->
<g id="edge3" class="edge">
<title>1990977585712&#45;&gt;1990976165200</title>
<path fill="none" stroke="black" d="M144.4,-361.8C152.75,-365.22 162.12,-369.05 170.97,-372.67"/>
<polygon fill="black" stroke="black" points="169.44,-375.83 180.02,-376.37 172.09,-369.35 169.44,-375.83"/>
</g>
<!-- 1990976172208 -->
<g id="node2" class="node">
<title>1990976172208</title>
<polygon fill="white" stroke="black" points="363.25,-405 282,-405 282,-369 363.25,-369 363.25,-405"/>
<text text-anchor="middle" x="322.62" y="-381.98" font-family="Times New Roman,serif" font-size="12.00">Material Scan</text>
</g>
<!-- 1990977251584 -->
<g id="node22" class="node">
<title>1990977251584</title>
<ellipse fill="white" stroke="black" cx="438.25" cy="-387" rx="27" ry="27"/>
</g>
<!-- 1990976172208&#45;&gt;1990977251584 -->
<g id="edge8" class="edge">
<title>1990976172208&#45;&gt;1990977251584</title>
<path fill="none" stroke="black" d="M363.68,-387C375.35,-387 388.05,-387 399.56,-387"/>
<polygon fill="black" stroke="black" points="399.53,-390.5 409.53,-387 399.53,-383.5 399.53,-390.5"/>
</g>
<!-- 1990977246256 -->
<g id="node23" class="node">
<title>1990977246256</title>
<ellipse fill="white" stroke="black" cx="438.25" cy="-459" rx="27" ry="27"/>
</g>
<!-- 1990976172208&#45;&gt;1990977246256 -->
<g id="edge7" class="edge">
<title>1990976172208&#45;&gt;1990977246256</title>
<path fill="none" stroke="black" d="M352.59,-405.35C368.75,-415.59 388.9,-428.36 405.49,-438.88"/>
<polygon fill="black" stroke="black" points="403.19,-441.56 413.51,-443.96 406.94,-435.65 403.19,-441.56"/>
</g>
<!-- 1990976168512 -->
<g id="node3" class="node">
<title>1990976168512</title>
<polygon fill="white" stroke="black" points="375.25,-333 270,-333 270,-297 375.25,-297 375.25,-333"/>
<text text-anchor="middle" x="322.62" y="-309.98" font-family="Times New Roman,serif" font-size="12.00">Provenance Check</text>
</g>
<!-- 1990977257344 -->
<g id="node21" class="node">
<title>1990977257344</title>
<ellipse fill="white" stroke="black" cx="438.25" cy="-315" rx="27" ry="27"/>
</g>
<!-- 1990976168512&#45;&gt;1990977257344 -->
<g id="edge9" class="edge">
<title>1990976168512&#45;&gt;1990977257344</title>
<path fill="none" stroke="black" d="M375.45,-315C383.61,-315 391.91,-315 399.67,-315"/>
<polygon fill="black" stroke="black" points="399.43,-318.5 409.43,-315 399.43,-311.5 399.43,-318.5"/>
</g>
<!-- 1990977249376 -->
<g id="node24" class="node">
<title>1990977249376</title>
<ellipse fill="white" stroke="black" cx="438.25" cy="-243" rx="27" ry="27"/>
</g>
<!-- 1990976168512&#45;&gt;1990977249376 -->
<g id="edge6" class="edge">
<title>1990976168512&#45;&gt;1990977249376</title>
<path fill="none" stroke="black" d="M352.59,-296.65C368.75,-286.41 388.9,-273.64 405.49,-263.12"/>
<polygon fill="black" stroke="black" points="406.94,-266.35 413.51,-258.04 403.19,-260.44 406.94,-266.35"/>
</g>
<!-- 1990978481968 -->
<g id="node4" class="node">
<title>1990978481968</title>
<polygon fill="white" stroke="black" points="590,-477 501.25,-477 501.25,-441 590,-441 590,-477"/>
<text text-anchor="middle" x="545.62" y="-453.98" font-family="Times New Roman,serif" font-size="12.00">Forensic Image</text>
</g>
<!-- 1990977241744 -->
<g id="node26" class="node">
<title>1990977241744</title>
<ellipse fill="white" stroke="black" cx="653" cy="-459" rx="27" ry="27"/>
</g>
<!-- 1990978481968&#45;&gt;1990977241744 -->
<g id="edge16" class="edge">
<title>1990978481968&#45;&gt;1990977241744</title>
<path fill="none" stroke="black" d="M590.4,-459C598.36,-459 606.6,-459 614.36,-459"/>
<polygon fill="black" stroke="black" points="614.17,-462.5 624.17,-459 614.17,-455.5 614.17,-462.5"/>
</g>
<!-- 1990977251008 -->
<g id="node28" class="node">
<title>1990977251008</title>
<ellipse fill="white" stroke="black" cx="653" cy="-531" rx="27" ry="27"/>
</g>
<!-- 1990978481968&#45;&gt;1990977251008 -->
<g id="edge17" class="edge">
<title>1990978481968&#45;&gt;1990977251008</title>
<path fill="none" stroke="black" d="M573.49,-477.35C587.89,-487.2 605.72,-499.38 620.75,-509.64"/>
<polygon fill="black" stroke="black" points="618.67,-512.46 628.9,-515.22 622.62,-506.69 618.67,-512.46"/>
</g>
<!-- 1990977252544 -->
<g id="node29" class="node">
<title>1990977252544</title>
<ellipse fill="white" stroke="black" cx="653" cy="-315" rx="27" ry="27"/>
</g>
<!-- 1990978481968&#45;&gt;1990977252544 -->
<g id="edge14" class="edge">
<title>1990978481968&#45;&gt;1990977252544</title>
<path fill="none" stroke="black" d="M559.97,-440.76C577.48,-416.83 608.47,-374.48 629.61,-345.6"/>
<polygon fill="black" stroke="black" points="632.39,-347.72 635.47,-337.59 626.74,-343.59 632.39,-347.72"/>
</g>
<!-- 1990976175472 -->
<g id="node5" class="node">
<title>1990976175472</title>
<polygon fill="white" stroke="black" points="584.75,-261 506.5,-261 506.5,-225 584.75,-225 584.75,-261"/>
<text text-anchor="middle" x="545.62" y="-237.97" font-family="Times New Roman,serif" font-size="12.00">Stylistic Eval</text>
</g>
<!-- 1990977251728 -->
<g id="node25" class="node">
<title>1990977251728</title>
<ellipse fill="white" stroke="black" cx="653" cy="-387" rx="27" ry="27"/>
</g>
<!-- 1990976175472&#45;&gt;1990977251728 -->
<g id="edge18" class="edge">
<title>1990976175472&#45;&gt;1990977251728</title>
<path fill="none" stroke="black" d="M559.97,-261.24C577.48,-285.17 608.47,-327.52 629.61,-356.4"/>
<polygon fill="black" stroke="black" points="626.74,-358.41 635.47,-364.41 632.39,-354.28 626.74,-358.41"/>
</g>
<!-- 1990977245488 -->
<g id="node27" class="node">
<title>1990977245488</title>
<ellipse fill="white" stroke="black" cx="653" cy="-171" rx="27" ry="27"/>
</g>
<!-- 1990976175472&#45;&gt;1990977245488 -->
<g id="edge15" class="edge">
<title>1990976175472&#45;&gt;1990977245488</title>
<path fill="none" stroke="black" d="M573.49,-224.65C587.89,-214.8 605.72,-202.62 620.75,-192.36"/>
<polygon fill="black" stroke="black" points="622.62,-195.31 628.9,-186.78 618.67,-189.54 622.62,-195.31"/>
</g>
<!-- 1990977253360 -->
<g id="node30" class="node">
<title>1990977253360</title>
<ellipse fill="white" stroke="black" cx="653" cy="-243" rx="27" ry="27"/>
</g>
<!-- 1990976175472&#45;&gt;1990977253360 -->
<g id="edge19" class="edge">
<title>1990976175472&#45;&gt;1990977253360</title>
<path fill="none" stroke="black" d="M584.97,-243C594.59,-243 604.9,-243 614.48,-243"/>
<polygon fill="black" stroke="black" points="614.2,-246.5 624.2,-243 614.2,-239.5 614.2,-246.5"/>
</g>
<!-- 1990978484224 -->
<g id="node6" class="node">
<title>1990978484224</title>
<polygon fill="white" stroke="black" points="809.25,-189 719,-189 719,-153 809.25,-153 809.25,-189"/>
<text text-anchor="middle" x="764.12" y="-165.97" font-family="Times New Roman,serif" font-size="12.00">Age Simulation</text>
</g>
<!-- 1990979781792 -->
<g id="node33" class="node">
<title>1990979781792</title>
<ellipse fill="white" stroke="black" cx="875.25" cy="-387" rx="27" ry="27"/>
</g>
<!-- 1990978484224&#45;&gt;1990979781792 -->
<g id="edge31" class="edge">
<title>1990978484224&#45;&gt;1990979781792</title>
<path fill="none" stroke="black" d="M789.39,-189.48C797.7,-196.91 806.37,-206.07 812.25,-216 843.88,-269.43 821.63,-294.9 848.25,-351 849.19,-352.99 850.25,-354.97 851.38,-356.94"/>
<polygon fill="black" stroke="black" points="848.33,-358.68 856.67,-365.21 854.23,-354.9 848.33,-358.68"/>
</g>
<!-- 1990981526560 -->
<g id="node34" class="node">
<title>1990981526560</title>
<ellipse fill="white" stroke="black" cx="875.25" cy="-171" rx="27" ry="27"/>
</g>
<!-- 1990978484224&#45;&gt;1990981526560 -->
<g id="edge29" class="edge">
<title>1990978484224&#45;&gt;1990981526560</title>
<path fill="none" stroke="black" d="M809.51,-171C818.44,-171 827.74,-171 836.41,-171"/>
<polygon fill="black" stroke="black" points="836.25,-174.5 846.25,-171 836.25,-167.5 836.25,-174.5"/>
</g>
<!-- 1990979790288 -->
<g id="node37" class="node">
<title>1990979790288</title>
<ellipse fill="white" stroke="black" cx="875.25" cy="-27" rx="27" ry="27"/>
</g>
<!-- 1990978484224&#45;&gt;1990979790288 -->
<g id="edge27" class="edge">
<title>1990978484224&#45;&gt;1990979790288</title>
<path fill="none" stroke="black" d="M778.95,-152.76C797.16,-128.72 829.45,-86.11 851.35,-57.22"/>
<polygon fill="black" stroke="black" points="853.9,-59.65 857.15,-49.57 848.32,-55.43 853.9,-59.65"/>
</g>
<!-- 1990978482736 -->
<g id="node7" class="node">
<title>1990978482736</title>
<polygon fill="white" stroke="black" points="810.38,-549 717.88,-549 717.88,-513 810.38,-513 810.38,-549"/>
<text text-anchor="middle" x="764.12" y="-525.98" font-family="Times New Roman,serif" font-size="12.00">Database Match</text>
</g>
<!-- 1990979785632 -->
<g id="node31" class="node">
<title>1990979785632</title>
<ellipse fill="white" stroke="black" cx="875.25" cy="-603" rx="27" ry="27"/>
</g>
<!-- 1990978482736&#45;&gt;1990979785632 -->
<g id="edge33" class="edge">
<title>1990978482736&#45;&gt;1990979785632</title>
<path fill="none" stroke="black" d="M792.94,-549.35C808.21,-559.43 827.2,-571.95 842.98,-582.37"/>
<polygon fill="black" stroke="black" points="840.79,-585.12 851.07,-587.7 844.65,-579.27 840.79,-585.12"/>
</g>
<!-- 1990979793312 -->
<g id="node32" class="node">
<title>1990979793312</title>
<ellipse fill="white" stroke="black" cx="875.25" cy="-531" rx="27" ry="27"/>
</g>
<!-- 1990978482736&#45;&gt;1990979793312 -->
<g id="edge26" class="edge">
<title>1990978482736&#45;&gt;1990979793312</title>
<path fill="none" stroke="black" d="M810.77,-531C819.35,-531 828.22,-531 836.52,-531"/>
<polygon fill="black" stroke="black" points="836.27,-534.5 846.27,-531 836.27,-527.5 836.27,-534.5"/>
</g>
<!-- 1990979785824 -->
<g id="node38" class="node">
<title>1990979785824</title>
<ellipse fill="white" stroke="black" cx="875.25" cy="-315" rx="27" ry="27"/>
</g>
<!-- 1990978482736&#45;&gt;1990979785824 -->
<g id="edge34" class="edge">
<title>1990978482736&#45;&gt;1990979785824</title>
<path fill="none" stroke="black" d="M772.27,-512.53C785.44,-479.26 815.24,-407.46 848.25,-351 849.33,-349.15 850.48,-347.28 851.68,-345.42"/>
<polygon fill="black" stroke="black" points="854.33,-347.75 857.03,-337.5 848.53,-343.82 854.33,-347.75"/>
</g>
<!-- 1990978478176 -->
<g id="node8" class="node">
<title>1990978478176</title>
<polygon fill="white" stroke="black" points="812.25,-261 716,-261 716,-225 812.25,-225 812.25,-261"/>
<text text-anchor="middle" x="764.12" y="-237.97" font-family="Times New Roman,serif" font-size="12.00">Heritage Consult</text>
</g>
<!-- 1990979791296 -->
<g id="node35" class="node">
<title>1990979791296</title>
<ellipse fill="white" stroke="black" cx="875.25" cy="-243" rx="27" ry="27"/>
</g>
<!-- 1990978478176&#45;&gt;1990979791296 -->
<g id="edge30" class="edge">
<title>1990978478176&#45;&gt;1990979791296</title>
<path fill="none" stroke="black" d="M812.67,-243C820.59,-243 828.7,-243 836.34,-243"/>
<polygon fill="black" stroke="black" points="836.33,-246.5 846.33,-243 836.33,-239.5 836.33,-246.5"/>
</g>
<!-- 1990979787600 -->
<g id="node36" class="node">
<title>1990979787600</title>
<ellipse fill="white" stroke="black" cx="875.25" cy="-459" rx="27" ry="27"/>
</g>
<!-- 1990978478176&#45;&gt;1990979787600 -->
<g id="edge28" class="edge">
<title>1990978478176&#45;&gt;1990979787600</title>
<path fill="none" stroke="black" d="M772.27,-261.47C785.44,-294.74 815.24,-366.54 848.25,-423 849.33,-424.85 850.48,-426.72 851.68,-428.58"/>
<polygon fill="black" stroke="black" points="848.53,-430.18 857.03,-436.5 854.33,-426.25 848.53,-430.18"/>
</g>
<!-- 1990979781600 -->
<g id="node39" class="node">
<title>1990979781600</title>
<ellipse fill="white" stroke="black" cx="875.25" cy="-99" rx="27" ry="27"/>
</g>
<!-- 1990978478176&#45;&gt;1990979781600 -->
<g id="edge32" class="edge">
<title>1990978478176&#45;&gt;1990979781600</title>
<path fill="none" stroke="black" d="M786.62,-224.92C795.16,-217.14 804.72,-207.62 812.25,-198 832.12,-172.6 830.78,-162.11 848.25,-135 849.41,-133.2 850.62,-131.37 851.86,-129.53"/>
<polygon fill="black" stroke="black" points="854.49,-131.89 857.33,-121.68 848.74,-127.89 854.49,-131.89"/>
</g>
<!-- 1990981352192 -->
<g id="node9" class="node">
<title>1990981352192</title>
<polygon fill="white" stroke="black" points="1040.5,-477 938.25,-477 938.25,-441 1040.5,-441 1040.5,-477"/>
<text text-anchor="middle" x="989.38" y="-453.98" font-family="Times New Roman,serif" font-size="12.00">Ownership Verify</text>
</g>
<!-- 1990979915504 -->
<g id="node43" class="node">
<title>1990979915504</title>
<ellipse fill="white" stroke="black" cx="1103.5" cy="-387" rx="27" ry="27"/>
</g>
<!-- 1990981352192&#45;&gt;1990979915504 -->
<g id="edge45" class="edge">
<title>1990981352192&#45;&gt;1990979915504</title>
<path fill="none" stroke="black" d="M1018.96,-440.65C1034.76,-430.5 1054.42,-417.87 1070.7,-407.42"/>
<polygon fill="black" stroke="black" points="1072.54,-410.4 1079.06,-402.05 1068.76,-404.51 1072.54,-410.4"/>
</g>
<!-- 1990981518736 -->
<g id="node45" class="node">
<title>1990981518736</title>
<ellipse fill="white" stroke="black" cx="1103.5" cy="-459" rx="27" ry="27"/>
</g>
<!-- 1990981352192&#45;&gt;1990981518736 -->
<g id="edge46" class="edge">
<title>1990981352192&#45;&gt;1990981518736</title>
<path fill="none" stroke="black" d="M1040.86,-459C1048.97,-459 1057.23,-459 1064.96,-459"/>
<polygon fill="black" stroke="black" points="1064.69,-462.5 1074.69,-459 1064.69,-455.5 1064.69,-462.5"/>
</g>
<!-- 1990981345568 -->
<g id="node10" class="node">
<title>1990981345568</title>
<polygon fill="white" stroke="black" points="1037.88,-117 940.88,-117 940.88,-81 1037.88,-81 1037.88,-117"/>
<text text-anchor="middle" x="989.38" y="-93.97" font-family="Times New Roman,serif" font-size="12.00">Stakeholder Talk</text>
</g>
<!-- 1990981520800 -->
<g id="node40" class="node">
<title>1990981520800</title>
<ellipse fill="white" stroke="black" cx="1103.5" cy="-99" rx="27" ry="27"/>
</g>
<!-- 1990981345568&#45;&gt;1990981520800 -->
<g id="edge49" class="edge">
<title>1990981345568&#45;&gt;1990981520800</title>
<path fill="none" stroke="black" d="M1038.25,-99C1047.07,-99 1056.17,-99 1064.64,-99"/>
<polygon fill="black" stroke="black" points="1064.6,-102.5 1074.6,-99 1064.6,-95.5 1064.6,-102.5"/>
</g>
<!-- 1990981527616 -->
<g id="node41" class="node">
<title>1990981527616</title>
<ellipse fill="white" stroke="black" cx="1103.5" cy="-243" rx="27" ry="27"/>
</g>
<!-- 1990981345568&#45;&gt;1990981527616 -->
<g id="edge48" class="edge">
<title>1990981345568&#45;&gt;1990981527616</title>
<path fill="none" stroke="black" d="M1004.58,-117.24C1023.4,-141.41 1056.85,-184.37 1079.35,-213.27"/>
<polygon fill="black" stroke="black" points="1076.4,-215.18 1085.31,-220.92 1081.93,-210.88 1076.4,-215.18"/>
</g>
<!-- 1990981349408 -->
<g id="node11" class="node">
<title>1990981349408</title>
<polygon fill="white" stroke="black" points="1028.5,-261 950.25,-261 950.25,-225 1028.5,-225 1028.5,-261"/>
<text text-anchor="middle" x="989.38" y="-237.97" font-family="Times New Roman,serif" font-size="12.00">Forgery Risk</text>
</g>
<!-- 1990979925584 -->
<g id="node42" class="node">
<title>1990979925584</title>
<ellipse fill="white" stroke="black" cx="1103.5" cy="-315" rx="27" ry="27"/>
</g>
<!-- 1990981349408&#45;&gt;1990979925584 -->
<g id="edge44" class="edge">
<title>1990981349408&#45;&gt;1990979925584</title>
<path fill="none" stroke="black" d="M1018.96,-261.35C1034.76,-271.5 1054.42,-284.13 1070.7,-294.58"/>
<polygon fill="black" stroke="black" points="1068.76,-297.49 1079.06,-299.95 1072.54,-291.6 1068.76,-297.49"/>
</g>
<!-- 1990979921264 -->
<g id="node44" class="node">
<title>1990979921264</title>
<ellipse fill="white" stroke="black" cx="1103.5" cy="-171" rx="27" ry="27"/>
</g>
<!-- 1990981349408&#45;&gt;1990979921264 -->
<g id="edge47" class="edge">
<title>1990981349408&#45;&gt;1990979921264</title>
<path fill="none" stroke="black" d="M1018.96,-224.65C1034.76,-214.5 1054.42,-201.87 1070.7,-191.42"/>
<polygon fill="black" stroke="black" points="1072.54,-194.4 1079.06,-186.05 1068.76,-188.51 1072.54,-194.4"/>
</g>
<!-- 1990981342160 -->
<g id="node12" class="node">
<title>1990981342160</title>
<polygon fill="white" stroke="black" points="1250.75,-297 1166.5,-297 1166.5,-261 1250.75,-261 1250.75,-297"/>
<text text-anchor="middle" x="1208.62" y="-273.98" font-family="Times New Roman,serif" font-size="12.00">Certify Report</text>
</g>
<!-- 1990977256768 -->
<g id="node46" class="node">
<title>1990977256768</title>
<ellipse fill="white" stroke="black" cx="1313.75" cy="-278" rx="27" ry="27"/>
</g>
<!-- 1990981342160&#45;&gt;1990977256768 -->
<g id="edge57" class="edge">
<title>1990981342160&#45;&gt;1990977256768</title>
<path fill="none" stroke="black" d="M1250.98,-278.6C1258.94,-278.52 1267.24,-278.44 1275.08,-278.37"/>
<polygon fill="black" stroke="black" points="1275.04,-281.87 1285,-278.27 1274.97,-274.87 1275.04,-281.87"/>
</g>
<!-- 1990981351664 -->
<g id="node13" class="node">
<title>1990981351664</title>
<polygon fill="white" stroke="black" points="1248.5,-189 1168.75,-189 1168.75,-153 1248.5,-153 1248.5,-189"/>
<text text-anchor="middle" x="1208.62" y="-165.97" font-family="Times New Roman,serif" font-size="12.00">Data Archive</text>
</g>
<!-- 1990981338080 -->
<g id="node47" class="node">
<title>1990981338080</title>
<ellipse fill="white" stroke="black" cx="1418.12" cy="-212" rx="27" ry="27"/>
</g>
<!-- 1990981351664&#45;&gt;1990981338080 -->
<g id="edge56" class="edge">
<title>1990981351664&#45;&gt;1990981338080</title>
<path fill="none" stroke="black" d="M1248.65,-178.71C1286.37,-186.16 1343.07,-197.37 1380.1,-204.68"/>
<polygon fill="black" stroke="black" points="1379.4,-208.11 1389.89,-206.62 1380.76,-201.25 1379.4,-208.11"/>
</g>
<!-- 1990977255568 -->
<g id="node14" class="node">
<title>1990977255568</title>
<polygon fill="white" stroke="black" points="1459.5,-295 1376.75,-295 1376.75,-259 1459.5,-259 1459.5,-295"/>
<text text-anchor="middle" x="1418.12" y="-271.98" font-family="Times New Roman,serif" font-size="12.00">Legal Review</text>
</g>
<!-- 1990981352288 -->
<g id="node48" class="node">
<title>1990981352288</title>
<ellipse fill="white" stroke="black" cx="1522.5" cy="-273" rx="27" ry="27"/>
</g>
<!-- 1990977255568&#45;&gt;1990981352288 -->
<g id="edge60" class="edge">
<title>1990977255568&#45;&gt;1990981352288</title>
<path fill="none" stroke="black" d="M1459.88,-275.41C1467.8,-275.1 1476.08,-274.77 1483.89,-274.47"/>
<polygon fill="black" stroke="black" points="1483.93,-277.97 1493.79,-274.08 1483.66,-270.98 1483.93,-277.97"/>
</g>
<!-- 1990981088032 -->
<g id="node15" class="node">
<title>1990981088032</title>
<polygon fill="black" stroke="black" points="2075.75,-261 2021.75,-261 2021.75,-225 2075.75,-225 2075.75,-261"/>
</g>
<!-- 1990977586576 -->
<g id="node49" class="node">
<title>1990977586576</title>
<ellipse fill="white" stroke="black" cx="2142.75" cy="-243" rx="27" ry="27"/>
<ellipse fill="none" stroke="black" cx="2142.75" cy="-243" rx="31" ry="31"/>
<text text-anchor="start" x="2126.25" y="-227.6" font-family="Times New Roman,serif" font-size="32.00">■</text>
</g>
<!-- 1990981088032&#45;&gt;1990977586576 -->
<g id="edge61" class="edge">
<title>1990981088032&#45;&gt;1990977586576</title>
<path fill="none" stroke="black" d="M2075.87,-243C2083.38,-243 2091.76,-243 2099.97,-243"/>
<polygon fill="black" stroke="black" points="2099.83,-246.5 2109.83,-243 2099.83,-239.5 2099.83,-246.5"/>
</g>
<!-- 1990981348256 -->
<g id="node16" class="node">
<title>1990981348256</title>
<polygon fill="white" stroke="black" points="1684,-289 1585.5,-289 1585.5,-253 1684,-253 1684,-289"/>
<text text-anchor="middle" x="1634.75" y="-265.98" font-family="Times New Roman,serif" font-size="12.00">Secure Handover</text>
</g>
<!-- 1990977247600 -->
<g id="node50" class="node">
<title>1990977247600</title>
<ellipse fill="white" stroke="black" cx="1747" cy="-271" rx="27" ry="27"/>
</g>
<!-- 1990981348256&#45;&gt;1990977247600 -->
<g id="edge63" class="edge">
<title>1990981348256&#45;&gt;1990977247600</title>
<path fill="none" stroke="black" d="M1684.43,-271C1692.38,-271 1700.51,-271 1708.15,-271"/>
<polygon fill="black" stroke="black" points="1708.14,-274.5 1718.14,-271 1708.14,-267.5 1708.14,-274.5"/>
</g>
<!-- 1990977252160 -->
<g id="node17" class="node">
<title>1990977252160</title>
<polygon fill="white" stroke="black" points="1895.75,-289 1810,-289 1810,-253 1895.75,-253 1895.75,-289"/>
<text text-anchor="middle" x="1852.88" y="-265.98" font-family="Times New Roman,serif" font-size="12.00">Trace Protocol</text>
</g>
<!-- 1990981341200 -->
<g id="node51" class="node">
<title>1990981341200</title>
<ellipse fill="white" stroke="black" cx="1958.75" cy="-271" rx="27" ry="27"/>
</g>
<!-- 1990977252160&#45;&gt;1990981341200 -->
<g id="edge65" class="edge">
<title>1990977252160&#45;&gt;1990981341200</title>
<path fill="none" stroke="black" d="M1896.12,-271C1904.03,-271 1912.25,-271 1920.01,-271"/>
<polygon fill="black" stroke="black" points="1919.82,-274.5 1929.82,-271 1919.82,-267.5 1919.82,-274.5"/>
</g>
<!-- 1990977598000 -->
<g id="node18" class="node">
<title>1990977598000</title>
<ellipse fill="white" stroke="black" cx="27" cy="-351" rx="27" ry="27"/>
<text text-anchor="start" x="9.75" y="-333.7" font-family="Times New Roman,serif" font-size="34.00">●</text>
</g>
<!-- 1990977598000&#45;&gt;1990977585712 -->
<g id="edge1" class="edge">
<title>1990977598000&#45;&gt;1990977585712</title>
<path fill="none" stroke="black" d="M54.4,-351C61.89,-351 70.18,-351 78.2,-351"/>
<polygon fill="black" stroke="black" points="78.1,-354.5 88.1,-351 78.1,-347.5 78.1,-354.5"/>
</g>
<!-- 1990981076656&#45;&gt;1990976168512 -->
<g id="edge4" class="edge">
<title>1990981076656&#45;&gt;1990976168512</title>
<path fill="none" stroke="black" d="M234.35,-315C241.74,-315 250.1,-315 258.65,-315"/>
<polygon fill="black" stroke="black" points="258.41,-318.5 268.41,-315 258.41,-311.5 258.41,-318.5"/>
</g>
<!-- 1990976165200&#45;&gt;1990976172208 -->
<g id="edge5" class="edge">
<title>1990976165200&#45;&gt;1990976172208</title>
<path fill="none" stroke="black" d="M234.35,-387C245.09,-387 257.9,-387 270.34,-387"/>
<polygon fill="black" stroke="black" points="270.09,-390.5 280.09,-387 270.09,-383.5 270.09,-390.5"/>
</g>
<!-- 1990977257344&#45;&gt;1990978481968 -->
<g id="edge13" class="edge">
<title>1990977257344&#45;&gt;1990978481968</title>
<path fill="none" stroke="black" d="M455.03,-336.56C473.51,-361.82 504.19,-403.75 524.41,-431.38"/>
<polygon fill="black" stroke="black" points="521.46,-433.28 530.19,-439.28 527.11,-429.14 521.46,-433.28"/>
</g>
<!-- 1990977251584&#45;&gt;1990976175472 -->
<g id="edge12" class="edge">
<title>1990977251584&#45;&gt;1990976175472</title>
<path fill="none" stroke="black" d="M455.03,-365.44C473.51,-340.18 504.19,-298.25 524.41,-270.62"/>
<polygon fill="black" stroke="black" points="527.11,-272.86 530.19,-262.72 521.46,-268.72 527.11,-272.86"/>
</g>
<!-- 1990977246256&#45;&gt;1990978481968 -->
<g id="edge11" class="edge">
<title>1990977246256&#45;&gt;1990978481968</title>
<path fill="none" stroke="black" d="M465.57,-459C472.94,-459 481.25,-459 489.63,-459"/>
<polygon fill="black" stroke="black" points="489.52,-462.5 499.52,-459 489.52,-455.5 489.52,-462.5"/>
</g>
<!-- 1990977249376&#45;&gt;1990976175472 -->
<g id="edge10" class="edge">
<title>1990977249376&#45;&gt;1990976175472</title>
<path fill="none" stroke="black" d="M465.57,-243C474.52,-243 484.83,-243 494.99,-243"/>
<polygon fill="black" stroke="black" points="494.8,-246.5 504.8,-243 494.8,-239.5 494.8,-246.5"/>
</g>
<!-- 1990977251728&#45;&gt;1990978482736 -->
<g id="edge22" class="edge">
<title>1990977251728&#45;&gt;1990978482736</title>
<path fill="none" stroke="black" d="M670.1,-408.25C689.3,-433.58 721.42,-475.97 742.44,-503.71"/>
<polygon fill="black" stroke="black" points="739.63,-505.8 748.46,-511.65 745.21,-501.57 739.63,-505.8"/>
</g>
<!-- 1990977241744&#45;&gt;1990978478176 -->
<g id="edge24" class="edge">
<title>1990977241744&#45;&gt;1990978478176</title>
<path fill="none" stroke="black" d="M670.37,-437.75C673.73,-433.01 677.12,-427.93 680,-423 709.91,-371.83 737.19,-308.07 751.85,-271.79"/>
<polygon fill="black" stroke="black" points="754.95,-273.46 755.42,-262.87 748.45,-270.86 754.95,-273.46"/>
</g>
<!-- 1990977245488&#45;&gt;1990978484224 -->
<g id="edge23" class="edge">
<title>1990977245488&#45;&gt;1990978484224</title>
<path fill="none" stroke="black" d="M680.42,-171C688.58,-171 697.9,-171 707.27,-171"/>
<polygon fill="black" stroke="black" points="707.13,-174.5 717.13,-171 707.13,-167.5 707.13,-174.5"/>
</g>
<!-- 1990977251008&#45;&gt;1990978482736 -->
<g id="edge21" class="edge">
<title>1990977251008&#45;&gt;1990978482736</title>
<path fill="none" stroke="black" d="M680.42,-531C688.31,-531 697.29,-531 706.35,-531"/>
<polygon fill="black" stroke="black" points="706.28,-534.5 716.28,-531 706.28,-527.5 706.28,-534.5"/>
</g>
<!-- 1990977252544&#45;&gt;1990978484224 -->
<g id="edge20" class="edge">
<title>1990977252544&#45;&gt;1990978484224</title>
<path fill="none" stroke="black" d="M670.05,-293.56C673.43,-288.83 676.91,-283.8 680,-279 697.47,-251.89 696.13,-241.4 716,-216 721.18,-209.38 727.31,-202.82 733.42,-196.84"/>
<polygon fill="black" stroke="black" points="735.66,-199.53 740.53,-190.12 730.86,-194.44 735.66,-199.53"/>
</g>
<!-- 1990977253360&#45;&gt;1990978478176 -->
<g id="edge25" class="edge">
<title>1990977253360&#45;&gt;1990978478176</title>
<path fill="none" stroke="black" d="M680.42,-243C687.7,-243 695.91,-243 704.25,-243"/>
<polygon fill="black" stroke="black" points="704.12,-246.5 714.12,-243 704.12,-239.5 704.12,-246.5"/>
</g>
<!-- 1990979785632&#45;&gt;1990981352192 -->
<g id="edge40" class="edge">
<title>1990979785632&#45;&gt;1990981352192</title>
<path fill="none" stroke="black" d="M892.55,-582.06C912.31,-556.69 945.63,-513.9 967.31,-486.05"/>
<polygon fill="black" stroke="black" points="969.87,-488.46 973.25,-478.42 964.35,-484.16 969.87,-488.46"/>
</g>
<!-- 1990979793312&#45;&gt;1990981349408 -->
<g id="edge41" class="edge">
<title>1990979793312&#45;&gt;1990981349408</title>
<path fill="none" stroke="black" d="M892.74,-510.35C896.17,-505.49 899.56,-500.2 902.25,-495 941.61,-418.91 969.11,-320.94 981.3,-272.64"/>
<polygon fill="black" stroke="black" points="984.7,-273.48 983.71,-262.94 977.9,-271.8 984.7,-273.48"/>
</g>
<!-- 1990979781792&#45;&gt;1990981352192 -->
<g id="edge37" class="edge">
<title>1990979781792&#45;&gt;1990981352192</title>
<path fill="none" stroke="black" d="M898.67,-401.4C913.45,-410.88 933.17,-423.55 950.36,-434.59"/>
<polygon fill="black" stroke="black" points="948.02,-437.24 958.32,-439.7 951.8,-431.35 948.02,-437.24"/>
</g>
<!-- 1990981526560&#45;&gt;1990981349408 -->
<g id="edge36" class="edge">
<title>1990981526560&#45;&gt;1990981349408</title>
<path fill="none" stroke="black" d="M898.67,-185.4C913.45,-194.88 933.17,-207.55 950.36,-218.59"/>
<polygon fill="black" stroke="black" points="948.02,-221.24 958.32,-223.7 951.8,-215.35 948.02,-221.24"/>
</g>
<!-- 1990979791296&#45;&gt;1990981349408 -->
<g id="edge42" class="edge">
<title>1990979791296&#45;&gt;1990981349408</title>
<path fill="none" stroke="black" d="M902.54,-243C913.34,-243 926.22,-243 938.68,-243"/>
<polygon fill="black" stroke="black" points="938.42,-246.5 948.42,-243 938.42,-239.5 938.42,-246.5"/>
</g>
<!-- 1990979787600&#45;&gt;1990981352192 -->
<g id="edge39" class="edge">
<title>1990979787600&#45;&gt;1990981352192</title>
<path fill="none" stroke="black" d="M902.54,-459C909.92,-459 918.27,-459 926.79,-459"/>
<polygon fill="black" stroke="black" points="926.52,-462.5 936.52,-459 926.52,-455.5 926.52,-462.5"/>
</g>
<!-- 1990979790288&#45;&gt;1990981345568 -->
<g id="edge35" class="edge">
<title>1990979790288&#45;&gt;1990981345568</title>
<path fill="none" stroke="black" d="M898.67,-41.4C913.45,-50.88 933.17,-63.55 950.36,-74.59"/>
<polygon fill="black" stroke="black" points="948.02,-77.24 958.32,-79.7 951.8,-71.35 948.02,-77.24"/>
</g>
<!-- 1990979785824&#45;&gt;1990981345568 -->
<g id="edge43" class="edge">
<title>1990979785824&#45;&gt;1990981345568</title>
<path fill="none" stroke="black" d="M892.57,-293.72C895.94,-288.98 899.34,-283.91 902.25,-279 932.71,-227.71 961.16,-163.98 976.52,-127.75"/>
<polygon fill="black" stroke="black" points="979.62,-129.41 980.27,-118.83 973.17,-126.7 979.62,-129.41"/>
</g>
<!-- 1990979781600&#45;&gt;1990981345568 -->
<g id="edge38" class="edge">
<title>1990979781600&#45;&gt;1990981345568</title>
<path fill="none" stroke="black" d="M902.54,-99C910.64,-99 919.9,-99 929.28,-99"/>
<polygon fill="black" stroke="black" points="929.2,-102.5 939.2,-99 929.2,-95.5 929.2,-102.5"/>
</g>
<!-- 1990981520800&#45;&gt;1990981351664 -->
<g id="edge51" class="edge">
<title>1990981520800&#45;&gt;1990981351664</title>
<path fill="none" stroke="black" d="M1126.37,-114.27C1139.69,-123.57 1157.01,-135.66 1172.24,-146.3"/>
<polygon fill="black" stroke="black" points="1169.96,-148.97 1180.16,-151.83 1173.97,-143.23 1169.96,-148.97"/>
</g>
<!-- 1990981527616&#45;&gt;1990981342160 -->
<g id="edge55" class="edge">
<title>1990981527616&#45;&gt;1990981342160</title>
<path fill="none" stroke="black" d="M1129.46,-251.71C1137.43,-254.5 1146.57,-257.69 1155.72,-260.88"/>
<polygon fill="black" stroke="black" points="1154.38,-264.12 1164.97,-264.11 1156.68,-257.51 1154.38,-264.12"/>
</g>
<!-- 1990979925584&#45;&gt;1990981342160 -->
<g id="edge52" class="edge">
<title>1990979925584&#45;&gt;1990981342160</title>
<path fill="none" stroke="black" d="M1129.46,-306.29C1137.43,-303.5 1146.57,-300.31 1155.72,-297.12"/>
<polygon fill="black" stroke="black" points="1156.68,-300.49 1164.97,-293.89 1154.38,-293.88 1156.68,-300.49"/>
</g>
<!-- 1990979915504&#45;&gt;1990981351664 -->
<g id="edge50" class="edge">
<title>1990979915504&#45;&gt;1990981351664</title>
<path fill="none" stroke="black" d="M1120.92,-366.31C1124.35,-361.45 1127.76,-356.18 1130.5,-351 1152.42,-309.63 1147.87,-294.95 1166.5,-252 1174.25,-234.13 1184.09,-214.65 1192.21,-199.27"/>
<polygon fill="black" stroke="black" points="1195.17,-201.16 1196.79,-190.69 1188.99,-197.86 1195.17,-201.16"/>
</g>
<!-- 1990979921264&#45;&gt;1990981351664 -->
<g id="edge53" class="edge">
<title>1990979921264&#45;&gt;1990981351664</title>
<path fill="none" stroke="black" d="M1130.79,-171C1138.85,-171 1148,-171 1157.1,-171"/>
<polygon fill="black" stroke="black" points="1157.01,-174.5 1167.01,-171 1157.01,-167.5 1157.01,-174.5"/>
</g>
<!-- 1990981518736&#45;&gt;1990981342160 -->
<g id="edge54" class="edge">
<title>1990981518736&#45;&gt;1990981342160</title>
<path fill="none" stroke="black" d="M1120.65,-437.62C1124.03,-432.89 1127.48,-427.84 1130.5,-423 1154.86,-384.02 1179.29,-336.67 1193.94,-307.18"/>
<polygon fill="black" stroke="black" points="1196.92,-309.04 1198.21,-298.53 1190.64,-305.95 1196.92,-309.04"/>
</g>
<!-- 1990977256768&#45;&gt;1990977255568 -->
<g id="edge58" class="edge">
<title>1990977256768&#45;&gt;1990977255568</title>
<path fill="none" stroke="black" d="M1341.11,-277.74C1348.53,-277.67 1356.86,-277.59 1365.21,-277.51"/>
<polygon fill="black" stroke="black" points="1365.06,-281.01 1375.02,-277.41 1364.99,-274.01 1365.06,-281.01"/>
</g>
<!-- 1990981338080&#45;&gt;1990981088032 -->
<g id="edge59" class="edge">
<title>1990981338080&#45;&gt;1990981088032</title>
<path fill="none" stroke="black" d="M1445.56,-212.81C1486.06,-213.98 1565.92,-216 1633.75,-216 1633.75,-216 1633.75,-216 1853.88,-216 1908.78,-216 1971.59,-226.75 2010.47,-234.69"/>
<polygon fill="black" stroke="black" points="2009.27,-238.01 2019.77,-236.63 2010.7,-231.16 2009.27,-238.01"/>
</g>
<!-- 1990981352288&#45;&gt;1990981348256 -->
<g id="edge62" class="edge">
<title>1990981352288&#45;&gt;1990981348256</title>
<path fill="none" stroke="black" d="M1549.91,-272.52C1557.18,-272.39 1565.37,-272.24 1573.72,-272.09"/>
<polygon fill="black" stroke="black" points="1573.67,-275.59 1583.61,-271.91 1573.55,-268.59 1573.67,-275.59"/>
</g>
<!-- 1990977247600&#45;&gt;1990977252160 -->
<g id="edge64" class="edge">
<title>1990977247600&#45;&gt;1990977252160</title>
<path fill="none" stroke="black" d="M1774.48,-271C1781.84,-271 1790.1,-271 1798.41,-271"/>
<polygon fill="black" stroke="black" points="1798.19,-274.5 1808.19,-271 1798.19,-267.5 1798.19,-274.5"/>
</g>
<!-- 1990981341200&#45;&gt;1990981088032 -->
<g id="edge66" class="edge">
<title>1990981341200&#45;&gt;1990981088032</title>
<path fill="none" stroke="black" d="M1984.73,-263.05C1992.81,-260.48 2001.94,-257.58 2010.7,-254.79"/>
<polygon fill="black" stroke="black" points="2011.57,-258.19 2020.04,-251.82 2009.44,-251.52 2011.57,-258.19"/>
</g>
</g>
</svg>
