<?xml version="1.0" encoding="UTF-8" standalone="no"?>
<!DOCTYPE svg PUBLIC "-//W3C//DTD SVG 1.1//EN"
 "http://www.w3.org/Graphics/SVG/1.1/DTD/svg11.dtd">
<!-- Generated by graphviz version 11.0.0 (20240428.1522)
 -->
<!-- Title: imdf_net_1754052393.2441752 Pages: 1 -->
<svg width="2017pt" height="278pt"
 viewBox="0.00 0.00 2017.00 278.00" xmlns="http://www.w3.org/2000/svg" xmlns:xlink="http://www.w3.org/1999/xlink">
<g id="graph0" class="graph" transform="scale(1 1) rotate(0) translate(4 274)">
<title>imdf_net_1754052393.2441752</title>
<polygon fill="white" stroke="none" points="-4,4 -4,-274 2013,-274 2013,4 -4,4"/>
<!-- 1990977590320 -->
<g id="node1" class="node">
<title>1990977590320</title>
<polygon fill="white" stroke="black" points="174.25,-153 90,-153 90,-117 174.25,-117 174.25,-153"/>
<text text-anchor="middle" x="132.12" y="-129.97" font-family="Times New Roman,serif" font-size="12.00">Artifact Intake</text>
</g>
<!-- 1990975908864 -->
<g id="node17" class="node">
<title>1990975908864</title>
<ellipse fill="white" stroke="black" cx="237.25" cy="-243" rx="27" ry="27"/>
</g>
<!-- 1990977590320&#45;&gt;1990975908864 -->
<g id="edge5" class="edge">
<title>1990977590320&#45;&gt;1990975908864</title>
<path fill="none" stroke="black" d="M150.62,-153.32C166.94,-170.41 191.5,-196.13 210.14,-215.65"/>
<polygon fill="black" stroke="black" points="207.49,-217.95 216.93,-222.77 212.55,-213.12 207.49,-217.95"/>
</g>
<!-- 1990977587728 -->
<g id="node18" class="node">
<title>1990977587728</title>
<ellipse fill="white" stroke="black" cx="237.25" cy="-171" rx="27" ry="27"/>
</g>
<!-- 1990977590320&#45;&gt;1990977587728 -->
<g id="edge2" class="edge">
<title>1990977590320&#45;&gt;1990977587728</title>
<path fill="none" stroke="black" d="M174.48,-149.44C183.13,-152.45 192.17,-155.61 200.6,-158.55"/>
<polygon fill="black" stroke="black" points="199.19,-161.77 209.79,-161.76 201.5,-155.16 199.19,-161.77"/>
</g>
<!-- 1990977595168 -->
<g id="node19" class="node">
<title>1990977595168</title>
<ellipse fill="white" stroke="black" cx="237.25" cy="-99" rx="27" ry="27"/>
</g>
<!-- 1990977590320&#45;&gt;1990977595168 -->
<g id="edge3" class="edge">
<title>1990977590320&#45;&gt;1990977595168</title>
<path fill="none" stroke="black" d="M174.48,-120.56C183.13,-117.55 192.17,-114.39 200.6,-111.45"/>
<polygon fill="black" stroke="black" points="201.5,-114.84 209.79,-108.24 199.19,-108.23 201.5,-114.84"/>
</g>
<!-- 1990977594544 -->
<g id="node20" class="node">
<title>1990977594544</title>
<ellipse fill="white" stroke="black" cx="237.25" cy="-27" rx="27" ry="27"/>
</g>
<!-- 1990977590320&#45;&gt;1990977594544 -->
<g id="edge4" class="edge">
<title>1990977590320&#45;&gt;1990977594544</title>
<path fill="none" stroke="black" d="M150.62,-116.68C166.94,-99.59 191.5,-73.87 210.14,-54.35"/>
<polygon fill="black" stroke="black" points="212.55,-56.88 216.93,-47.23 207.49,-52.05 212.55,-56.88"/>
</g>
<!-- 1990975911600 -->
<g id="node2" class="node">
<title>1990975911600</title>
<polygon fill="white" stroke="black" points="392.75,-117 313,-117 313,-81 392.75,-81 392.75,-117"/>
<text text-anchor="middle" x="352.88" y="-93.97" font-family="Times New Roman,serif" font-size="12.00">Style Review</text>
</g>
<!-- 1990980572352 -->
<g id="node23" class="node">
<title>1990980572352</title>
<ellipse fill="white" stroke="black" cx="468.5" cy="-99" rx="27" ry="27"/>
</g>
<!-- 1990975911600&#45;&gt;1990980572352 -->
<g id="edge10" class="edge">
<title>1990975911600&#45;&gt;1990980572352</title>
<path fill="none" stroke="black" d="M392.98,-99C404.92,-99 418.02,-99 429.86,-99"/>
<polygon fill="black" stroke="black" points="429.68,-102.5 439.68,-99 429.68,-95.5 429.68,-102.5"/>
</g>
<!-- 1990978084528 -->
<g id="node3" class="node">
<title>1990978084528</title>
<polygon fill="white" stroke="black" points="396.5,-261 309.25,-261 309.25,-225 396.5,-225 396.5,-261"/>
<text text-anchor="middle" x="352.88" y="-237.97" font-family="Times New Roman,serif" font-size="12.00">Context Verify</text>
</g>
<!-- 1990978395824 -->
<g id="node21" class="node">
<title>1990978395824</title>
<ellipse fill="white" stroke="black" cx="468.5" cy="-243" rx="27" ry="27"/>
</g>
<!-- 1990978084528&#45;&gt;1990978395824 -->
<g id="edge12" class="edge">
<title>1990978084528&#45;&gt;1990978395824</title>
<path fill="none" stroke="black" d="M396.83,-243C407.7,-243 419.29,-243 429.87,-243"/>
<polygon fill="black" stroke="black" points="429.78,-246.5 439.78,-243 429.78,-239.5 429.78,-246.5"/>
</g>
<!-- 1990977592816 -->
<g id="node4" class="node">
<title>1990977592816</title>
<polygon fill="white" stroke="black" points="405.5,-189 300.25,-189 300.25,-153 405.5,-153 405.5,-189"/>
<text text-anchor="middle" x="352.88" y="-165.97" font-family="Times New Roman,serif" font-size="12.00">Provenance Check</text>
</g>
<!-- 1990980576576 -->
<g id="node22" class="node">
<title>1990980576576</title>
<ellipse fill="white" stroke="black" cx="468.5" cy="-171" rx="27" ry="27"/>
</g>
<!-- 1990977592816&#45;&gt;1990980576576 -->
<g id="edge11" class="edge">
<title>1990977592816&#45;&gt;1990980576576</title>
<path fill="none" stroke="black" d="M405.7,-171C413.86,-171 422.16,-171 429.92,-171"/>
<polygon fill="black" stroke="black" points="429.68,-174.5 439.68,-171 429.68,-167.5 429.68,-174.5"/>
</g>
<!-- 1990977589360 -->
<g id="node5" class="node">
<title>1990977589360</title>
<polygon fill="white" stroke="black" points="393.5,-45 312.25,-45 312.25,-9 393.5,-9 393.5,-45"/>
<text text-anchor="middle" x="352.88" y="-21.98" font-family="Times New Roman,serif" font-size="12.00">Material Scan</text>
</g>
<!-- 1990980577776 -->
<g id="node24" class="node">
<title>1990980577776</title>
<ellipse fill="white" stroke="black" cx="468.5" cy="-27" rx="27" ry="27"/>
</g>
<!-- 1990977589360&#45;&gt;1990980577776 -->
<g id="edge13" class="edge">
<title>1990977589360&#45;&gt;1990980577776</title>
<path fill="none" stroke="black" d="M393.93,-27C405.6,-27 418.3,-27 429.81,-27"/>
<polygon fill="black" stroke="black" points="429.78,-30.5 439.78,-27 429.78,-23.5 429.78,-30.5"/>
</g>
<!-- 1990978077568 -->
<g id="node6" class="node">
<title>1990978077568</title>
<polygon fill="white" stroke="black" points="608.25,-153 531.5,-153 531.5,-117 608.25,-117 608.25,-153"/>
<text text-anchor="middle" x="569.88" y="-129.97" font-family="Times New Roman,serif" font-size="12.00">Expert Panel</text>
</g>
<!-- 1990978225936 -->
<g id="node25" class="node">
<title>1990978225936</title>
<ellipse fill="white" stroke="black" cx="671.25" cy="-171" rx="27" ry="27"/>
</g>
<!-- 1990978077568&#45;&gt;1990978225936 -->
<g id="edge19" class="edge">
<title>1990978077568&#45;&gt;1990978225936</title>
<path fill="none" stroke="black" d="M608.73,-148.71C617.27,-151.81 626.31,-155.08 634.75,-158.14"/>
<polygon fill="black" stroke="black" points="633.4,-161.37 643.99,-161.49 635.78,-154.79 633.4,-161.37"/>
</g>
<!-- 1990978234912 -->
<g id="node26" class="node">
<title>1990978234912</title>
<ellipse fill="white" stroke="black" cx="671.25" cy="-99" rx="27" ry="27"/>
</g>
<!-- 1990978077568&#45;&gt;1990978234912 -->
<g id="edge18" class="edge">
<title>1990978077568&#45;&gt;1990978234912</title>
<path fill="none" stroke="black" d="M608.73,-121.29C617.27,-118.19 626.31,-114.92 634.75,-111.86"/>
<polygon fill="black" stroke="black" points="635.78,-115.21 643.99,-108.51 633.4,-108.63 635.78,-115.21"/>
</g>
<!-- 1990978238272 -->
<g id="node7" class="node">
<title>1990978238272</title>
<polygon fill="white" stroke="black" points="830.5,-117 736.5,-117 736.5,-81 830.5,-81 830.5,-117"/>
<text text-anchor="middle" x="783.5" y="-93.97" font-family="Times New Roman,serif" font-size="12.00">Restoration Plan</text>
</g>
<!-- 1990978396304 -->
<g id="node28" class="node">
<title>1990978396304</title>
<ellipse fill="white" stroke="black" cx="895.75" cy="-99" rx="27" ry="27"/>
</g>
<!-- 1990978238272&#45;&gt;1990978396304 -->
<g id="edge23" class="edge">
<title>1990978238272&#45;&gt;1990978396304</title>
<path fill="none" stroke="black" d="M830.94,-99C839.66,-99 848.67,-99 857.09,-99"/>
<polygon fill="black" stroke="black" points="856.97,-102.5 866.97,-99 856.97,-95.5 856.97,-102.5"/>
</g>
<!-- 1990978393040 -->
<g id="node29" class="node">
<title>1990978393040</title>
<ellipse fill="white" stroke="black" cx="895.75" cy="-27" rx="27" ry="27"/>
</g>
<!-- 1990978238272&#45;&gt;1990978393040 -->
<g id="edge24" class="edge">
<title>1990978238272&#45;&gt;1990978393040</title>
<path fill="none" stroke="black" d="M812.61,-80.65C828.03,-70.57 847.21,-58.05 863.16,-47.63"/>
<polygon fill="black" stroke="black" points="864.88,-50.69 871.34,-42.29 861.05,-44.83 864.88,-50.69"/>
</g>
<!-- 1990978237552 -->
<g id="node8" class="node">
<title>1990978237552</title>
<polygon fill="white" stroke="black" points="832.75,-189 734.25,-189 734.25,-153 832.75,-153 832.75,-189"/>
<text text-anchor="middle" x="783.5" y="-165.97" font-family="Times New Roman,serif" font-size="12.00">Condition Report</text>
</g>
<!-- 1990978389248 -->
<g id="node27" class="node">
<title>1990978389248</title>
<ellipse fill="white" stroke="black" cx="895.75" cy="-243" rx="27" ry="27"/>
</g>
<!-- 1990978237552&#45;&gt;1990978389248 -->
<g id="edge22" class="edge">
<title>1990978237552&#45;&gt;1990978389248</title>
<path fill="none" stroke="black" d="M812.61,-189.35C828.03,-199.43 847.21,-211.95 863.16,-222.37"/>
<polygon fill="black" stroke="black" points="861.05,-225.17 871.34,-227.71 864.88,-219.31 861.05,-225.17"/>
</g>
<!-- 1990978403168 -->
<g id="node30" class="node">
<title>1990978403168</title>
<ellipse fill="white" stroke="black" cx="895.75" cy="-171" rx="27" ry="27"/>
</g>
<!-- 1990978237552&#45;&gt;1990978403168 -->
<g id="edge25" class="edge">
<title>1990978237552&#45;&gt;1990978403168</title>
<path fill="none" stroke="black" d="M833.18,-171C841.13,-171 849.26,-171 856.9,-171"/>
<polygon fill="black" stroke="black" points="856.89,-174.5 866.89,-171 856.89,-167.5 856.89,-174.5"/>
</g>
<!-- 1990980189792 -->
<g id="node9" class="node">
<title>1990980189792</title>
<polygon fill="white" stroke="black" points="1057.25,-189 958.75,-189 958.75,-153 1057.25,-153 1057.25,-189"/>
<text text-anchor="middle" x="1008" y="-165.97" font-family="Times New Roman,serif" font-size="12.00">Ownership Audit</text>
</g>
<!-- 1990978391168 -->
<g id="node31" class="node">
<title>1990978391168</title>
<ellipse fill="white" stroke="black" cx="1120.25" cy="-171" rx="27" ry="27"/>
</g>
<!-- 1990980189792&#45;&gt;1990978391168 -->
<g id="edge30" class="edge">
<title>1990980189792&#45;&gt;1990978391168</title>
<path fill="none" stroke="black" d="M1057.68,-171C1065.63,-171 1073.76,-171 1081.4,-171"/>
<polygon fill="black" stroke="black" points="1081.39,-174.5 1091.39,-171 1081.39,-167.5 1081.39,-174.5"/>
</g>
<!-- 1990980175200 -->
<g id="node10" class="node">
<title>1990980175200</title>
<polygon fill="white" stroke="black" points="1052,-117 964,-117 964,-81 1052,-81 1052,-117"/>
<text text-anchor="middle" x="1008" y="-93.97" font-family="Times New Roman,serif" font-size="12.00">Export Review</text>
</g>
<!-- 1990978397168 -->
<g id="node32" class="node">
<title>1990978397168</title>
<ellipse fill="white" stroke="black" cx="1120.25" cy="-99" rx="27" ry="27"/>
</g>
<!-- 1990980175200&#45;&gt;1990978397168 -->
<g id="edge31" class="edge">
<title>1990980175200&#45;&gt;1990978397168</title>
<path fill="none" stroke="black" d="M1052.26,-99C1061.93,-99 1072.11,-99 1081.54,-99"/>
<polygon fill="black" stroke="black" points="1081.46,-102.5 1091.46,-99 1081.46,-95.5 1081.46,-102.5"/>
</g>
<!-- 1990980177600 -->
<g id="node11" class="node">
<title>1990980177600</title>
<polygon fill="white" stroke="black" points="1272.75,-153 1183.25,-153 1183.25,-117 1272.75,-117 1272.75,-153"/>
<text text-anchor="middle" x="1228" y="-129.97" font-family="Times New Roman,serif" font-size="12.00">Final Valuation</text>
</g>
<!-- 1990980183120 -->
<g id="node33" class="node">
<title>1990980183120</title>
<ellipse fill="white" stroke="black" cx="1335.75" cy="-135" rx="27" ry="27"/>
</g>
<!-- 1990980177600&#45;&gt;1990980183120 -->
<g id="edge34" class="edge">
<title>1990980177600&#45;&gt;1990980183120</title>
<path fill="none" stroke="black" d="M1273.23,-135C1281.2,-135 1289.44,-135 1297.2,-135"/>
<polygon fill="black" stroke="black" points="1296.99,-138.5 1306.99,-135 1296.99,-131.5 1296.99,-138.5"/>
</g>
<!-- 1990980189888 -->
<g id="node12" class="node">
<title>1990980189888</title>
<polygon fill="white" stroke="black" points="1480.75,-153 1398.75,-153 1398.75,-117 1480.75,-117 1480.75,-153"/>
<text text-anchor="middle" x="1439.75" y="-129.97" font-family="Times New Roman,serif" font-size="12.00">Catalog Entry</text>
</g>
<!-- 1990980186384 -->
<g id="node34" class="node">
<title>1990980186384</title>
<ellipse fill="white" stroke="black" cx="1543.75" cy="-99" rx="27" ry="27"/>
</g>
<!-- 1990980189888&#45;&gt;1990980186384 -->
<g id="edge36" class="edge">
<title>1990980189888&#45;&gt;1990980186384</title>
<path fill="none" stroke="black" d="M1481.06,-120.77C1489.74,-117.71 1498.84,-114.5 1507.31,-111.51"/>
<polygon fill="black" stroke="black" points="1508.3,-114.87 1516.57,-108.24 1505.97,-108.27 1508.3,-114.87"/>
</g>
<!-- 1990980179040 -->
<g id="node35" class="node">
<title>1990980179040</title>
<ellipse fill="white" stroke="black" cx="1543.75" cy="-171" rx="27" ry="27"/>
</g>
<!-- 1990980189888&#45;&gt;1990980179040 -->
<g id="edge37" class="edge">
<title>1990980189888&#45;&gt;1990980179040</title>
<path fill="none" stroke="black" d="M1481.06,-149.23C1489.74,-152.29 1498.84,-155.5 1507.31,-158.49"/>
<polygon fill="black" stroke="black" points="1505.97,-161.73 1516.57,-161.76 1508.3,-155.13 1505.97,-161.73"/>
</g>
<!-- 1990980177696 -->
<g id="node13" class="node">
<title>1990980177696</title>
<polygon fill="white" stroke="black" points="1689.88,-189 1613.12,-189 1613.12,-153 1689.88,-153 1689.88,-189"/>
<text text-anchor="middle" x="1651.5" y="-165.97" font-family="Times New Roman,serif" font-size="12.00">Storage Prep</text>
</g>
<!-- 1990981083184 -->
<g id="node36" class="node">
<title>1990981083184</title>
<ellipse fill="white" stroke="black" cx="1759.25" cy="-171" rx="27" ry="27"/>
</g>
<!-- 1990980177696&#45;&gt;1990981083184 -->
<g id="edge41" class="edge">
<title>1990980177696&#45;&gt;1990981083184</title>
<path fill="none" stroke="black" d="M1690.08,-171C1700.07,-171 1710.85,-171 1720.82,-171"/>
<polygon fill="black" stroke="black" points="1720.56,-174.5 1730.56,-171 1720.56,-167.5 1720.56,-174.5"/>
</g>
<!-- 1990980570528 -->
<g id="node14" class="node">
<title>1990980570528</title>
<polygon fill="white" stroke="black" points="1696.25,-117 1606.75,-117 1606.75,-81 1696.25,-81 1696.25,-117"/>
<text text-anchor="middle" x="1651.5" y="-93.97" font-family="Times New Roman,serif" font-size="12.00">Digital Archive</text>
</g>
<!-- 1990981086688 -->
<g id="node37" class="node">
<title>1990981086688</title>
<ellipse fill="white" stroke="black" cx="1759.25" cy="-99" rx="27" ry="27"/>
</g>
<!-- 1990980570528&#45;&gt;1990981086688 -->
<g id="edge40" class="edge">
<title>1990980570528&#45;&gt;1990981086688</title>
<path fill="none" stroke="black" d="M1696.73,-99C1704.7,-99 1712.94,-99 1720.7,-99"/>
<polygon fill="black" stroke="black" points="1720.49,-102.5 1730.49,-99 1720.49,-95.5 1720.49,-102.5"/>
</g>
<!-- 1990980579456 -->
<g id="node15" class="node">
<title>1990980579456</title>
<polygon fill="white" stroke="black" points="1911,-153 1822.25,-153 1822.25,-117 1911,-117 1911,-153"/>
<text text-anchor="middle" x="1866.62" y="-129.97" font-family="Times New Roman,serif" font-size="12.00">Sales Approval</text>
</g>
<!-- 1990981650048 -->
<g id="node38" class="node">
<title>1990981650048</title>
<ellipse fill="white" stroke="black" cx="1978" cy="-135" rx="27" ry="27"/>
<ellipse fill="none" stroke="black" cx="1978" cy="-135" rx="31" ry="31"/>
<text text-anchor="start" x="1961.5" y="-119.6" font-family="Times New Roman,serif" font-size="32.00">■</text>
</g>
<!-- 1990980579456&#45;&gt;1990981650048 -->
<g id="edge44" class="edge">
<title>1990980579456&#45;&gt;1990981650048</title>
<path fill="none" stroke="black" d="M1911.48,-135C1919.3,-135 1927.42,-135 1935.17,-135"/>
<polygon fill="black" stroke="black" points="1935.06,-138.5 1945.06,-135 1935.06,-131.5 1935.06,-138.5"/>
</g>
<!-- 1990981649904 -->
<g id="node16" class="node">
<title>1990981649904</title>
<ellipse fill="white" stroke="black" cx="27" cy="-135" rx="27" ry="27"/>
<text text-anchor="start" x="9.75" y="-117.7" font-family="Times New Roman,serif" font-size="34.00">●</text>
</g>
<!-- 1990981649904&#45;&gt;1990977590320 -->
<g id="edge1" class="edge">
<title>1990981649904&#45;&gt;1990977590320</title>
<path fill="none" stroke="black" d="M54.29,-135C61.67,-135 69.98,-135 78.32,-135"/>
<polygon fill="black" stroke="black" points="78.14,-138.5 88.14,-135 78.14,-131.5 78.14,-138.5"/>
</g>
<!-- 1990975908864&#45;&gt;1990978084528 -->
<g id="edge7" class="edge">
<title>1990975908864&#45;&gt;1990978084528</title>
<path fill="none" stroke="black" d="M264.6,-243C274.44,-243 286,-243 297.43,-243"/>
<polygon fill="black" stroke="black" points="297.24,-246.5 307.24,-243 297.24,-239.5 297.24,-246.5"/>
</g>
<!-- 1990977587728&#45;&gt;1990977592816 -->
<g id="edge9" class="edge">
<title>1990977587728&#45;&gt;1990977592816</title>
<path fill="none" stroke="black" d="M264.6,-171C271.99,-171 280.35,-171 288.9,-171"/>
<polygon fill="black" stroke="black" points="288.66,-174.5 298.66,-171 288.66,-167.5 288.66,-174.5"/>
</g>
<!-- 1990977595168&#45;&gt;1990975911600 -->
<g id="edge6" class="edge">
<title>1990977595168&#45;&gt;1990975911600</title>
<path fill="none" stroke="black" d="M264.6,-99C275.55,-99 288.63,-99 301.29,-99"/>
<polygon fill="black" stroke="black" points="301.22,-102.5 311.22,-99 301.22,-95.5 301.22,-102.5"/>
</g>
<!-- 1990977594544&#45;&gt;1990977589360 -->
<g id="edge8" class="edge">
<title>1990977594544&#45;&gt;1990977589360</title>
<path fill="none" stroke="black" d="M264.6,-27C275.34,-27 288.15,-27 300.59,-27"/>
<polygon fill="black" stroke="black" points="300.34,-30.5 310.34,-27 300.34,-23.5 300.34,-30.5"/>
</g>
<!-- 1990978395824&#45;&gt;1990978077568 -->
<g id="edge14" class="edge">
<title>1990978395824&#45;&gt;1990978077568</title>
<path fill="none" stroke="black" d="M487.5,-223.44C503.41,-206.15 526.75,-180.78 544.37,-161.64"/>
<polygon fill="black" stroke="black" points="546.79,-164.17 550.98,-154.45 541.64,-159.43 546.79,-164.17"/>
</g>
<!-- 1990980576576&#45;&gt;1990978077568 -->
<g id="edge17" class="edge">
<title>1990980576576&#45;&gt;1990978077568</title>
<path fill="none" stroke="black" d="M494.32,-162.01C502.34,-159.1 511.52,-155.78 520.63,-152.48"/>
<polygon fill="black" stroke="black" points="521.59,-155.85 529.8,-149.15 519.21,-149.27 521.59,-155.85"/>
</g>
<!-- 1990980572352&#45;&gt;1990978077568 -->
<g id="edge15" class="edge">
<title>1990980572352&#45;&gt;1990978077568</title>
<path fill="none" stroke="black" d="M494.32,-107.99C502.34,-110.9 511.52,-114.22 520.63,-117.52"/>
<polygon fill="black" stroke="black" points="519.21,-120.73 529.8,-120.85 521.59,-114.15 519.21,-120.73"/>
</g>
<!-- 1990980577776&#45;&gt;1990978077568 -->
<g id="edge16" class="edge">
<title>1990980577776&#45;&gt;1990978077568</title>
<path fill="none" stroke="black" d="M487.5,-46.56C503.41,-63.85 526.75,-89.22 544.37,-108.36"/>
<polygon fill="black" stroke="black" points="541.64,-110.57 550.98,-115.55 546.79,-105.83 541.64,-110.57"/>
</g>
<!-- 1990978225936&#45;&gt;1990978237552 -->
<g id="edge20" class="edge">
<title>1990978225936&#45;&gt;1990978237552</title>
<path fill="none" stroke="black" d="M698.66,-171C705.93,-171 714.12,-171 722.47,-171"/>
<polygon fill="black" stroke="black" points="722.36,-174.5 732.36,-171 722.36,-167.5 722.36,-174.5"/>
</g>
<!-- 1990978234912&#45;&gt;1990978238272 -->
<g id="edge21" class="edge">
<title>1990978234912&#45;&gt;1990978238272</title>
<path fill="none" stroke="black" d="M698.66,-99C706.54,-99 715.51,-99 724.58,-99"/>
<polygon fill="black" stroke="black" points="724.54,-102.5 734.54,-99 724.54,-95.5 724.54,-102.5"/>
</g>
<!-- 1990978389248&#45;&gt;1990980189792 -->
<g id="edge28" class="edge">
<title>1990978389248&#45;&gt;1990980189792</title>
<path fill="none" stroke="black" d="M919.06,-228.43C933.47,-219.02 952.59,-206.53 969.32,-195.61"/>
<polygon fill="black" stroke="black" points="971.11,-198.62 977.57,-190.22 967.28,-192.76 971.11,-198.62"/>
</g>
<!-- 1990978396304&#45;&gt;1990980189792 -->
<g id="edge26" class="edge">
<title>1990978396304&#45;&gt;1990980189792</title>
<path fill="none" stroke="black" d="M919.06,-113.57C933.47,-122.98 952.59,-135.47 969.32,-146.39"/>
<polygon fill="black" stroke="black" points="967.28,-149.24 977.57,-151.78 971.11,-143.38 967.28,-149.24"/>
</g>
<!-- 1990978393040&#45;&gt;1990980175200 -->
<g id="edge29" class="edge">
<title>1990978393040&#45;&gt;1990980175200</title>
<path fill="none" stroke="black" d="M919.06,-41.57C933.47,-50.98 952.59,-63.47 969.32,-74.39"/>
<polygon fill="black" stroke="black" points="967.28,-77.24 977.57,-79.78 971.11,-71.38 967.28,-77.24"/>
</g>
<!-- 1990978403168&#45;&gt;1990980175200 -->
<g id="edge27" class="edge">
<title>1990978403168&#45;&gt;1990980175200</title>
<path fill="none" stroke="black" d="M919.06,-156.43C933.47,-147.02 952.59,-134.53 969.32,-123.61"/>
<polygon fill="black" stroke="black" points="971.11,-126.62 977.57,-118.22 967.28,-120.76 971.11,-126.62"/>
</g>
<!-- 1990978391168&#45;&gt;1990980177600 -->
<g id="edge32" class="edge">
<title>1990978391168&#45;&gt;1990980177600</title>
<path fill="none" stroke="black" d="M1146.31,-162.47C1154.21,-159.78 1163.27,-156.69 1172.4,-153.59"/>
<polygon fill="black" stroke="black" points="1173.31,-156.97 1181.65,-150.44 1171.06,-150.35 1173.31,-156.97"/>
</g>
<!-- 1990978397168&#45;&gt;1990980177600 -->
<g id="edge33" class="edge">
<title>1990978397168&#45;&gt;1990980177600</title>
<path fill="none" stroke="black" d="M1146.31,-107.53C1154.21,-110.22 1163.27,-113.31 1172.4,-116.41"/>
<polygon fill="black" stroke="black" points="1171.06,-119.65 1181.65,-119.56 1173.31,-113.03 1171.06,-119.65"/>
</g>
<!-- 1990980183120&#45;&gt;1990980189888 -->
<g id="edge35" class="edge">
<title>1990980183120&#45;&gt;1990980189888</title>
<path fill="none" stroke="black" d="M1363.02,-135C1370.4,-135 1378.7,-135 1387.03,-135"/>
<polygon fill="black" stroke="black" points="1386.8,-138.5 1396.8,-135 1386.8,-131.5 1386.8,-138.5"/>
</g>
<!-- 1990980186384&#45;&gt;1990980570528 -->
<g id="edge39" class="edge">
<title>1990980186384&#45;&gt;1990980570528</title>
<path fill="none" stroke="black" d="M1571.16,-99C1578.48,-99 1586.71,-99 1595.03,-99"/>
<polygon fill="black" stroke="black" points="1594.83,-102.5 1604.83,-99 1594.83,-95.5 1594.83,-102.5"/>
</g>
<!-- 1990980179040&#45;&gt;1990980177696 -->
<g id="edge38" class="edge">
<title>1990980179040&#45;&gt;1990980177696</title>
<path fill="none" stroke="black" d="M1571.16,-171C1580.42,-171 1591.13,-171 1601.63,-171"/>
<polygon fill="black" stroke="black" points="1601.35,-174.5 1611.35,-171 1601.35,-167.5 1601.35,-174.5"/>
</g>
<!-- 1990981083184&#45;&gt;1990980579456 -->
<g id="edge42" class="edge">
<title>1990981083184&#45;&gt;1990980579456</title>
<path fill="none" stroke="black" d="M1785.22,-162.47C1793.1,-159.78 1802.12,-156.69 1811.22,-153.59"/>
<polygon fill="black" stroke="black" points="1812.1,-156.98 1820.43,-150.44 1809.84,-150.36 1812.1,-156.98"/>
</g>
<!-- 1990981086688&#45;&gt;1990980579456 -->
<g id="edge43" class="edge">
<title>1990981086688&#45;&gt;1990980579456</title>
<path fill="none" stroke="black" d="M1785.22,-107.53C1793.1,-110.22 1802.12,-113.31 1811.22,-116.41"/>
<polygon fill="black" stroke="black" points="1809.84,-119.64 1820.43,-119.56 1812.1,-113.02 1809.84,-119.64"/>
</g>
</g>
</svg>
