<?xml version="1.0" encoding="UTF-8" standalone="no"?>
<!DOCTYPE svg PUBLIC "-//W3C//DTD SVG 1.1//EN"
 "http://www.w3.org/Graphics/SVG/1.1/DTD/svg11.dtd">
<!-- Generated by graphviz version 11.0.0 (20240428.1522)
 -->
<!-- Title: imdf_net_1754052405.9812903 Pages: 1 -->
<svg width="2903pt" height="162pt"
 viewBox="0.00 0.00 2903.00 162.00" xmlns="http://www.w3.org/2000/svg" xmlns:xlink="http://www.w3.org/1999/xlink">
<g id="graph0" class="graph" transform="scale(1 1) rotate(0) translate(4 158)">
<title>imdf_net_1754052405.9812903</title>
<polygon fill="white" stroke="none" points="-4,4 -4,-158 2899,-158 2899,4 -4,4"/>
<!-- 1990977589216 -->
<g id="node1" class="node">
<title>1990977589216</title>
<polygon fill="white" stroke="black" points="160.75,-109 90,-109 90,-73 160.75,-73 160.75,-109"/>
<text text-anchor="middle" x="125.38" y="-85.97" font-family="Times New Roman,serif" font-size="12.00">Site Survey</text>
</g>
<!-- 1990980754160 -->
<g id="node19" class="node">
<title>1990980754160</title>
<ellipse fill="white" stroke="black" cx="223.75" cy="-91" rx="27" ry="27"/>
</g>
<!-- 1990977589216&#45;&gt;1990980754160 -->
<g id="edge2" class="edge">
<title>1990977589216&#45;&gt;1990980754160</title>
<path fill="none" stroke="black" d="M161.17,-91C168.9,-91 177.14,-91 184.98,-91"/>
<polygon fill="black" stroke="black" points="184.97,-94.5 194.97,-91 184.97,-87.5 184.97,-94.5"/>
</g>
<!-- 1990980763328 -->
<g id="node2" class="node">
<title>1990980763328</title>
<polygon fill="white" stroke="black" points="350.75,-109 286.75,-109 286.75,-73 350.75,-73 350.75,-109"/>
<text text-anchor="middle" x="318.75" y="-85.97" font-family="Times New Roman,serif" font-size="12.00">Load Test</text>
</g>
<!-- 1990980751856 -->
<g id="node20" class="node">
<title>1990980751856</title>
<ellipse fill="white" stroke="black" cx="413.75" cy="-91" rx="27" ry="27"/>
</g>
<!-- 1990980763328&#45;&gt;1990980751856 -->
<g id="edge4" class="edge">
<title>1990980763328&#45;&gt;1990980751856</title>
<path fill="none" stroke="black" d="M351.24,-91C358.79,-91 366.95,-91 374.76,-91"/>
<polygon fill="black" stroke="black" points="374.74,-94.5 384.74,-91 374.74,-87.5 374.74,-94.5"/>
</g>
<!-- 1990980748304 -->
<g id="node3" class="node">
<title>1990980748304</title>
<polygon fill="white" stroke="black" points="555.75,-109 476.75,-109 476.75,-73 555.75,-73 555.75,-109"/>
<text text-anchor="middle" x="516.25" y="-85.97" font-family="Times New Roman,serif" font-size="12.00">Impact Study</text>
</g>
<!-- 1990980761792 -->
<g id="node21" class="node">
<title>1990980761792</title>
<ellipse fill="white" stroke="black" cx="618.75" cy="-91" rx="27" ry="27"/>
</g>
<!-- 1990980748304&#45;&gt;1990980761792 -->
<g id="edge6" class="edge">
<title>1990980748304&#45;&gt;1990980761792</title>
<path fill="none" stroke="black" d="M556.11,-91C563.96,-91 572.2,-91 580.01,-91"/>
<polygon fill="black" stroke="black" points="579.91,-94.5 589.91,-91 579.91,-87.5 579.91,-94.5"/>
</g>
<!-- 1990975897968 -->
<g id="node4" class="node">
<title>1990975897968</title>
<polygon fill="white" stroke="black" points="761.5,-109 681.75,-109 681.75,-73 761.5,-73 761.5,-109"/>
<text text-anchor="middle" x="721.62" y="-85.97" font-family="Times New Roman,serif" font-size="12.00">Permit Apply</text>
</g>
<!-- 1990975897776 -->
<g id="node22" class="node">
<title>1990975897776</title>
<ellipse fill="white" stroke="black" cx="824.5" cy="-91" rx="27" ry="27"/>
</g>
<!-- 1990975897968&#45;&gt;1990975897776 -->
<g id="edge8" class="edge">
<title>1990975897968&#45;&gt;1990975897776</title>
<path fill="none" stroke="black" d="M761.91,-91C769.78,-91 778.02,-91 785.82,-91"/>
<polygon fill="black" stroke="black" points="785.72,-94.5 795.72,-91 785.72,-87.5 785.72,-94.5"/>
</g>
<!-- 1990978922416 -->
<g id="node5" class="node">
<title>1990978922416</title>
<polygon fill="white" stroke="black" points="974,-109 887.5,-109 887.5,-73 974,-73 974,-109"/>
<text text-anchor="middle" x="930.75" y="-85.97" font-family="Times New Roman,serif" font-size="12.00">Design Layout</text>
</g>
<!-- 1990978924768 -->
<g id="node23" class="node">
<title>1990978924768</title>
<ellipse fill="white" stroke="black" cx="1037" cy="-127" rx="27" ry="27"/>
</g>
<!-- 1990978922416&#45;&gt;1990978924768 -->
<g id="edge11" class="edge">
<title>1990978922416&#45;&gt;1990978924768</title>
<path fill="none" stroke="black" d="M974.45,-105.75C983.04,-108.71 991.97,-111.8 1000.28,-114.67"/>
<polygon fill="black" stroke="black" points="999.12,-117.97 1009.72,-117.92 1001.41,-111.35 999.12,-117.97"/>
</g>
<!-- 1990978925680 -->
<g id="node24" class="node">
<title>1990978925680</title>
<ellipse fill="white" stroke="black" cx="1037" cy="-55" rx="27" ry="27"/>
</g>
<!-- 1990978922416&#45;&gt;1990978925680 -->
<g id="edge10" class="edge">
<title>1990978922416&#45;&gt;1990978925680</title>
<path fill="none" stroke="black" d="M974.45,-76.25C983.04,-73.29 991.97,-70.2 1000.28,-67.33"/>
<polygon fill="black" stroke="black" points="1001.41,-70.65 1009.72,-64.08 999.12,-64.03 1001.41,-70.65"/>
</g>
<!-- 1990978915408 -->
<g id="node6" class="node">
<title>1990978915408</title>
<polygon fill="white" stroke="black" points="1172.62,-145 1101.88,-145 1101.88,-109 1172.62,-109 1172.62,-145"/>
<text text-anchor="middle" x="1137.25" y="-121.97" font-family="Times New Roman,serif" font-size="12.00">Soil Source</text>
</g>
<!-- 1990971627216 -->
<g id="node26" class="node">
<title>1990971627216</title>
<ellipse fill="white" stroke="black" cx="1237.5" cy="-127" rx="27" ry="27"/>
</g>
<!-- 1990978915408&#45;&gt;1990971627216 -->
<g id="edge15" class="edge">
<title>1990978915408&#45;&gt;1990971627216</title>
<path fill="none" stroke="black" d="M1172.89,-127C1181.32,-127 1190.38,-127 1198.94,-127"/>
<polygon fill="black" stroke="black" points="1198.69,-130.5 1208.69,-127 1198.69,-123.5 1198.69,-130.5"/>
</g>
<!-- 1990978920544 -->
<g id="node7" class="node">
<title>1990978920544</title>
<polygon fill="white" stroke="black" points="1174.5,-73 1100,-73 1100,-37 1174.5,-37 1174.5,-73"/>
<text text-anchor="middle" x="1137.25" y="-49.98" font-family="Times New Roman,serif" font-size="12.00">Water Setup</text>
</g>
<!-- 1990971629568 -->
<g id="node25" class="node">
<title>1990971629568</title>
<ellipse fill="white" stroke="black" cx="1237.5" cy="-55" rx="27" ry="27"/>
</g>
<!-- 1990978920544&#45;&gt;1990971629568 -->
<g id="edge14" class="edge">
<title>1990978920544&#45;&gt;1990971629568</title>
<path fill="none" stroke="black" d="M1174.83,-55C1182.59,-55 1190.79,-55 1198.59,-55"/>
<polygon fill="black" stroke="black" points="1198.5,-58.5 1208.5,-55 1198.5,-51.5 1198.5,-58.5"/>
</g>
<!-- 1990978917664 -->
<g id="node8" class="node">
<title>1990978917664</title>
<polygon fill="white" stroke="black" points="1380.25,-109 1300.5,-109 1300.5,-73 1380.25,-73 1380.25,-109"/>
<text text-anchor="middle" x="1340.38" y="-85.97" font-family="Times New Roman,serif" font-size="12.00">Sensor Install</text>
</g>
<!-- 1990978924816 -->
<g id="node27" class="node">
<title>1990978924816</title>
<ellipse fill="white" stroke="black" cx="1443.25" cy="-91" rx="27" ry="27"/>
</g>
<!-- 1990978917664&#45;&gt;1990978924816 -->
<g id="edge18" class="edge">
<title>1990978917664&#45;&gt;1990978924816</title>
<path fill="none" stroke="black" d="M1380.66,-91C1388.53,-91 1396.77,-91 1404.57,-91"/>
<polygon fill="black" stroke="black" points="1404.47,-94.5 1414.47,-91 1404.47,-87.5 1404.47,-94.5"/>
</g>
<!-- 1990978921840 -->
<g id="node9" class="node">
<title>1990978921840</title>
<polygon fill="white" stroke="black" points="1573.25,-109 1506.25,-109 1506.25,-73 1573.25,-73 1573.25,-109"/>
<text text-anchor="middle" x="1539.75" y="-85.97" font-family="Times New Roman,serif" font-size="12.00">Staff Train</text>
</g>
<!-- 1990978919728 -->
<g id="node28" class="node">
<title>1990978919728</title>
<ellipse fill="white" stroke="black" cx="1636.25" cy="-91" rx="27" ry="27"/>
</g>
<!-- 1990978921840&#45;&gt;1990978919728 -->
<g id="edge20" class="edge">
<title>1990978921840&#45;&gt;1990978919728</title>
<path fill="none" stroke="black" d="M1573.54,-91C1581.27,-91 1589.58,-91 1597.52,-91"/>
<polygon fill="black" stroke="black" points="1597.25,-94.5 1607.25,-91 1597.25,-87.5 1597.25,-94.5"/>
</g>
<!-- 1990978923760 -->
<g id="node10" class="node">
<title>1990978923760</title>
<polygon fill="white" stroke="black" points="1765.5,-109 1699.25,-109 1699.25,-73 1765.5,-73 1765.5,-109"/>
<text text-anchor="middle" x="1732.38" y="-85.97" font-family="Times New Roman,serif" font-size="12.00">Plant Seed</text>
</g>
<!-- 1990978921072 -->
<g id="node29" class="node">
<title>1990978921072</title>
<ellipse fill="white" stroke="black" cx="1828.5" cy="-91" rx="27" ry="27"/>
</g>
<!-- 1990978923760&#45;&gt;1990978921072 -->
<g id="edge22" class="edge">
<title>1990978923760&#45;&gt;1990978921072</title>
<path fill="none" stroke="black" d="M1765.77,-91C1773.56,-91 1781.94,-91 1789.94,-91"/>
<polygon fill="black" stroke="black" points="1789.77,-94.5 1799.77,-91 1789.77,-87.5 1789.77,-94.5"/>
</g>
<!-- 1990980878944 -->
<g id="node11" class="node">
<title>1990980878944</title>
<polygon fill="white" stroke="black" points="1984.75,-82 1891.5,-82 1891.5,-46 1984.75,-46 1984.75,-82"/>
<text text-anchor="middle" x="1938.12" y="-58.98" font-family="Times New Roman,serif" font-size="12.00">Irrigation Check</text>
</g>
<!-- 1990969787744 -->
<g id="node30" class="node">
<title>1990969787744</title>
<ellipse fill="white" stroke="black" cx="2047.75" cy="-63" rx="27" ry="27"/>
</g>
<!-- 1990980878944&#45;&gt;1990969787744 -->
<g id="edge24" class="edge">
<title>1990980878944&#45;&gt;1990969787744</title>
<path fill="none" stroke="black" d="M1985.08,-63.57C1993.12,-63.5 2001.41,-63.42 2009.19,-63.35"/>
<polygon fill="black" stroke="black" points="2009.04,-66.85 2019.01,-63.26 2008.97,-59.85 2009.04,-66.85"/>
</g>
<!-- 1990971626448 -->
<g id="node12" class="node">
<title>1990971626448</title>
<polygon fill="white" stroke="black" points="2186.38,-135 2111.88,-135 2111.88,-99 2186.38,-99 2186.38,-135"/>
<text text-anchor="middle" x="2149.12" y="-111.97" font-family="Times New Roman,serif" font-size="12.00">Pest Control</text>
</g>
<!-- 1990971626448&#45;&gt;1990978921072 -->
<g id="edge27" class="edge">
<title>1990971626448&#45;&gt;1990978921072</title>
<path fill="none" stroke="black" d="M2111.42,-114C2050.35,-109.02 1928.53,-99.08 1866.97,-94.06"/>
<polygon fill="black" stroke="black" points="1867.61,-90.6 1857.35,-93.27 1867.04,-97.57 1867.61,-90.6"/>
</g>
<!-- 1990971632208 -->
<g id="node13" class="node">
<title>1990971632208</title>
<polygon fill="white" stroke="black" points="2187.5,-81 2110.75,-81 2110.75,-45 2187.5,-45 2187.5,-81"/>
<text text-anchor="middle" x="2149.12" y="-57.98" font-family="Times New Roman,serif" font-size="12.00">Harvest Plan</text>
</g>
<!-- 1990971628752 -->
<g id="node31" class="node">
<title>1990971628752</title>
<ellipse fill="white" stroke="black" cx="2250.5" cy="-63" rx="27" ry="27"/>
</g>
<!-- 1990971632208&#45;&gt;1990971628752 -->
<g id="edge28" class="edge">
<title>1990971632208&#45;&gt;1990971628752</title>
<path fill="none" stroke="black" d="M2187.98,-63C2195.77,-63 2203.98,-63 2211.77,-63"/>
<polygon fill="black" stroke="black" points="2211.65,-66.5 2221.65,-63 2211.65,-59.5 2211.65,-66.5"/>
</g>
<!-- 1990971631392 -->
<g id="node14" class="node">
<title>1990971631392</title>
<polygon fill="white" stroke="black" points="2402.25,-81 2313.5,-81 2313.5,-45 2402.25,-45 2402.25,-81"/>
<text text-anchor="middle" x="2357.88" y="-57.98" font-family="Times New Roman,serif" font-size="12.00">Market Launch</text>
</g>
<!-- 1990971634320 -->
<g id="node32" class="node">
<title>1990971634320</title>
<ellipse fill="white" stroke="black" cx="2465.25" cy="-99" rx="27" ry="27"/>
</g>
<!-- 1990971631392&#45;&gt;1990971634320 -->
<g id="edge30" class="edge">
<title>1990971631392&#45;&gt;1990971634320</title>
<path fill="none" stroke="black" d="M2402.65,-77.95C2411.2,-80.88 2420.08,-83.91 2428.34,-86.73"/>
<polygon fill="black" stroke="black" points="2427.11,-90.01 2437.7,-89.93 2429.37,-83.38 2427.11,-90.01"/>
</g>
<!-- 1990971634032 -->
<g id="node33" class="node">
<title>1990971634032</title>
<ellipse fill="white" stroke="black" cx="2465.25" cy="-27" rx="27" ry="27"/>
</g>
<!-- 1990971631392&#45;&gt;1990971634032 -->
<g id="edge31" class="edge">
<title>1990971631392&#45;&gt;1990971634032</title>
<path fill="none" stroke="black" d="M2402.65,-48.05C2411.2,-45.12 2420.08,-42.09 2428.34,-39.27"/>
<polygon fill="black" stroke="black" points="2429.37,-42.62 2437.7,-36.07 2427.11,-35.99 2429.37,-42.62"/>
</g>
<!-- 1990971628416 -->
<g id="node15" class="node">
<title>1990971628416</title>
<polygon fill="white" stroke="black" points="2615.88,-117 2529.38,-117 2529.38,-81 2615.88,-81 2615.88,-117"/>
<text text-anchor="middle" x="2572.62" y="-93.97" font-family="Times New Roman,serif" font-size="12.00">Waste Manage</text>
</g>
<!-- 1990971630576 -->
<g id="node35" class="node">
<title>1990971630576</title>
<ellipse fill="white" stroke="black" cx="2680" cy="-99" rx="27" ry="27"/>
</g>
<!-- 1990971628416&#45;&gt;1990971630576 -->
<g id="edge34" class="edge">
<title>1990971628416&#45;&gt;1990971630576</title>
<path fill="none" stroke="black" d="M2616.18,-99C2624.47,-99 2633.11,-99 2641.23,-99"/>
<polygon fill="black" stroke="black" points="2641.15,-102.5 2651.15,-99 2641.15,-95.5 2641.15,-102.5"/>
</g>
<!-- 1990971632784 -->
<g id="node16" class="node">
<title>1990971632784</title>
<polygon fill="white" stroke="black" points="2617,-45 2528.25,-45 2528.25,-9 2617,-9 2617,-45"/>
<text text-anchor="middle" x="2572.62" y="-21.98" font-family="Times New Roman,serif" font-size="12.00">Delivery Route</text>
</g>
<!-- 1990971624912 -->
<g id="node34" class="node">
<title>1990971624912</title>
<ellipse fill="white" stroke="black" cx="2680" cy="-27" rx="27" ry="27"/>
</g>
<!-- 1990971632784&#45;&gt;1990971624912 -->
<g id="edge35" class="edge">
<title>1990971632784&#45;&gt;1990971624912</title>
<path fill="none" stroke="black" d="M2617.4,-27C2625.36,-27 2633.6,-27 2641.36,-27"/>
<polygon fill="black" stroke="black" points="2641.17,-30.5 2651.17,-27 2641.17,-23.5 2641.17,-30.5"/>
</g>
<!-- 1990980186960 -->
<g id="node17" class="node">
<title>1990980186960</title>
<polygon fill="black" stroke="black" points="2797,-81 2743,-81 2743,-45 2797,-45 2797,-81"/>
</g>
<!-- 1990969799552 -->
<g id="node36" class="node">
<title>1990969799552</title>
<ellipse fill="white" stroke="black" cx="2864" cy="-63" rx="27" ry="27"/>
<ellipse fill="none" stroke="black" cx="2864" cy="-63" rx="31" ry="31"/>
<text text-anchor="start" x="2847.5" y="-47.6" font-family="Times New Roman,serif" font-size="32.00">■</text>
</g>
<!-- 1990980186960&#45;&gt;1990969799552 -->
<g id="edge38" class="edge">
<title>1990980186960&#45;&gt;1990969799552</title>
<path fill="none" stroke="black" d="M2797.12,-63C2804.63,-63 2813.01,-63 2821.22,-63"/>
<polygon fill="black" stroke="black" points="2821.08,-66.5 2831.08,-63 2821.08,-59.5 2821.08,-66.5"/>
</g>
<!-- 1990980582528 -->
<g id="node18" class="node">
<title>1990980582528</title>
<ellipse fill="white" stroke="black" cx="27" cy="-91" rx="27" ry="27"/>
<text text-anchor="start" x="9.75" y="-73.7" font-family="Times New Roman,serif" font-size="34.00">●</text>
</g>
<!-- 1990980582528&#45;&gt;1990977589216 -->
<g id="edge1" class="edge">
<title>1990980582528&#45;&gt;1990977589216</title>
<path fill="none" stroke="black" d="M54.33,-91C61.76,-91 70.06,-91 78.28,-91"/>
<polygon fill="black" stroke="black" points="78.24,-94.5 88.24,-91 78.24,-87.5 78.24,-94.5"/>
</g>
<!-- 1990980754160&#45;&gt;1990980763328 -->
<g id="edge3" class="edge">
<title>1990980754160&#45;&gt;1990980763328</title>
<path fill="none" stroke="black" d="M251.15,-91C258.6,-91 266.89,-91 275.04,-91"/>
<polygon fill="black" stroke="black" points="274.82,-94.5 284.82,-91 274.82,-87.5 274.82,-94.5"/>
</g>
<!-- 1990980751856&#45;&gt;1990980748304 -->
<g id="edge5" class="edge">
<title>1990980751856&#45;&gt;1990980748304</title>
<path fill="none" stroke="black" d="M441.16,-91C448.59,-91 456.94,-91 465.27,-91"/>
<polygon fill="black" stroke="black" points="465.03,-94.5 475.03,-91 465.03,-87.5 465.03,-94.5"/>
</g>
<!-- 1990980761792&#45;&gt;1990975897968 -->
<g id="edge7" class="edge">
<title>1990980761792&#45;&gt;1990975897968</title>
<path fill="none" stroke="black" d="M645.99,-91C653.46,-91 661.85,-91 670.24,-91"/>
<polygon fill="black" stroke="black" points="670.08,-94.5 680.08,-91 670.08,-87.5 670.08,-94.5"/>
</g>
<!-- 1990975897776&#45;&gt;1990978922416 -->
<g id="edge9" class="edge">
<title>1990975897776&#45;&gt;1990978922416</title>
<path fill="none" stroke="black" d="M851.81,-91C859.19,-91 867.49,-91 875.86,-91"/>
<polygon fill="black" stroke="black" points="875.71,-94.5 885.71,-91 875.71,-87.5 875.71,-94.5"/>
</g>
<!-- 1990978924768&#45;&gt;1990978915408 -->
<g id="edge13" class="edge">
<title>1990978924768&#45;&gt;1990978915408</title>
<path fill="none" stroke="black" d="M1064.33,-127C1072.31,-127 1081.33,-127 1090.21,-127"/>
<polygon fill="black" stroke="black" points="1090.19,-130.5 1100.19,-127 1090.19,-123.5 1090.19,-130.5"/>
</g>
<!-- 1990978925680&#45;&gt;1990978920544 -->
<g id="edge12" class="edge">
<title>1990978925680&#45;&gt;1990978920544</title>
<path fill="none" stroke="black" d="M1064.33,-55C1071.67,-55 1079.88,-55 1088.06,-55"/>
<polygon fill="black" stroke="black" points="1087.99,-58.5 1097.99,-55 1087.99,-51.5 1087.99,-58.5"/>
</g>
<!-- 1990971629568&#45;&gt;1990978917664 -->
<g id="edge17" class="edge">
<title>1990971629568&#45;&gt;1990978917664</title>
<path fill="none" stroke="black" d="M1263.44,-63.9C1271.4,-66.74 1280.52,-70 1289.61,-73.24"/>
<polygon fill="black" stroke="black" points="1288.18,-76.45 1298.77,-76.51 1290.53,-69.85 1288.18,-76.45"/>
</g>
<!-- 1990971627216&#45;&gt;1990978917664 -->
<g id="edge16" class="edge">
<title>1990971627216&#45;&gt;1990978917664</title>
<path fill="none" stroke="black" d="M1263.44,-118.1C1271.4,-115.26 1280.52,-112 1289.61,-108.76"/>
<polygon fill="black" stroke="black" points="1290.53,-112.15 1298.77,-105.49 1288.18,-105.55 1290.53,-112.15"/>
</g>
<!-- 1990978924816&#45;&gt;1990978921840 -->
<g id="edge19" class="edge">
<title>1990978924816&#45;&gt;1990978921840</title>
<path fill="none" stroke="black" d="M1470.57,-91C1478,-91 1486.29,-91 1494.45,-91"/>
<polygon fill="black" stroke="black" points="1494.31,-94.5 1504.31,-91 1494.31,-87.5 1494.31,-94.5"/>
</g>
<!-- 1990978919728&#45;&gt;1990978923760 -->
<g id="edge21" class="edge">
<title>1990978919728&#45;&gt;1990978923760</title>
<path fill="none" stroke="black" d="M1663.72,-91C1671.19,-91 1679.51,-91 1687.7,-91"/>
<polygon fill="black" stroke="black" points="1687.57,-94.5 1697.57,-91 1687.57,-87.5 1687.57,-94.5"/>
</g>
<!-- 1990978921072&#45;&gt;1990980878944 -->
<g id="edge23" class="edge">
<title>1990978921072&#45;&gt;1990980878944</title>
<path fill="none" stroke="black" d="M1855.01,-84.6C1862.61,-82.69 1871.27,-80.52 1880.05,-78.32"/>
<polygon fill="black" stroke="black" points="1880.84,-81.73 1889.69,-75.9 1879.13,-74.94 1880.84,-81.73"/>
</g>
<!-- 1990969787744&#45;&gt;1990971626448 -->
<g id="edge26" class="edge">
<title>1990969787744&#45;&gt;1990971626448</title>
<path fill="none" stroke="black" d="M2072.05,-75.66C2081.71,-80.91 2093.25,-87.18 2104.38,-93.23"/>
<polygon fill="black" stroke="black" points="2102.64,-96.27 2113.1,-97.97 2105.99,-90.12 2102.64,-96.27"/>
</g>
<!-- 1990969787744&#45;&gt;1990971632208 -->
<g id="edge25" class="edge">
<title>1990969787744&#45;&gt;1990971632208</title>
<path fill="none" stroke="black" d="M2075.12,-63C2082.47,-63 2090.69,-63 2098.9,-63"/>
<polygon fill="black" stroke="black" points="2098.89,-66.5 2108.89,-63 2098.89,-59.5 2098.89,-66.5"/>
</g>
<!-- 1990971628752&#45;&gt;1990971631392 -->
<g id="edge29" class="edge">
<title>1990971628752&#45;&gt;1990971631392</title>
<path fill="none" stroke="black" d="M2277.82,-63C2285.19,-63 2293.5,-63 2301.88,-63"/>
<polygon fill="black" stroke="black" points="2301.77,-66.5 2311.77,-63 2301.77,-59.5 2301.77,-66.5"/>
</g>
<!-- 1990971634320&#45;&gt;1990971628416 -->
<g id="edge32" class="edge">
<title>1990971634320&#45;&gt;1990971628416</title>
<path fill="none" stroke="black" d="M2492.57,-99C2500.28,-99 2509.01,-99 2517.79,-99"/>
<polygon fill="black" stroke="black" points="2517.75,-102.5 2527.75,-99 2517.75,-95.5 2517.75,-102.5"/>
</g>
<!-- 1990971634032&#45;&gt;1990971632784 -->
<g id="edge33" class="edge">
<title>1990971634032&#45;&gt;1990971632784</title>
<path fill="none" stroke="black" d="M2492.57,-27C2499.94,-27 2508.25,-27 2516.63,-27"/>
<polygon fill="black" stroke="black" points="2516.52,-30.5 2526.52,-27 2516.52,-23.5 2516.52,-30.5"/>
</g>
<!-- 1990971624912&#45;&gt;1990980186960 -->
<g id="edge36" class="edge">
<title>1990971624912&#45;&gt;1990980186960</title>
<path fill="none" stroke="black" d="M2705.51,-37.03C2713.76,-40.4 2723.14,-44.24 2732.12,-47.91"/>
<polygon fill="black" stroke="black" points="2730.79,-51.15 2741.37,-51.7 2733.44,-44.67 2730.79,-51.15"/>
</g>
<!-- 1990971630576&#45;&gt;1990980186960 -->
<g id="edge37" class="edge">
<title>1990971630576&#45;&gt;1990980186960</title>
<path fill="none" stroke="black" d="M2705.51,-88.97C2713.76,-85.6 2723.14,-81.76 2732.12,-78.09"/>
<polygon fill="black" stroke="black" points="2733.44,-81.33 2741.37,-74.3 2730.79,-74.85 2733.44,-81.33"/>
</g>
</g>
</svg>
