<?xml version="1.0" encoding="UTF-8" standalone="no"?>
<!DOCTYPE svg PUBLIC "-//W3C//DTD SVG 1.1//EN"
 "http://www.w3.org/Graphics/SVG/1.1/DTD/svg11.dtd">
<!-- Generated by graphviz version 11.0.0 (20240428.1522)
 -->
<!-- Title: imdf_net_1754052411.7117693 Pages: 1 -->
<svg width="2511pt" height="307pt"
 viewBox="0.00 0.00 2511.00 307.00" xmlns="http://www.w3.org/2000/svg" xmlns:xlink="http://www.w3.org/1999/xlink">
<g id="graph0" class="graph" transform="scale(1 1) rotate(0) translate(4 303)">
<title>imdf_net_1754052411.7117693</title>
<polygon fill="white" stroke="none" points="-4,4 -4,-303 2507,-303 2507,4 -4,4"/>
<!-- 1990981470112 -->
<g id="node1" class="node">
<title>1990981470112</title>
<polygon fill="white" stroke="black" points="160.75,-218 90,-218 90,-182 160.75,-182 160.75,-218"/>
<text text-anchor="middle" x="125.38" y="-194.97" font-family="Times New Roman,serif" font-size="12.00">Site Survey</text>
</g>
<!-- 1990981473088 -->
<g id="node18" class="node">
<title>1990981473088</title>
<ellipse fill="white" stroke="black" cx="223.75" cy="-200" rx="27" ry="27"/>
</g>
<!-- 1990981470112&#45;&gt;1990981473088 -->
<g id="edge2" class="edge">
<title>1990981470112&#45;&gt;1990981473088</title>
<path fill="none" stroke="black" d="M161.17,-200C168.9,-200 177.14,-200 184.98,-200"/>
<polygon fill="black" stroke="black" points="184.97,-203.5 194.97,-200 184.97,-196.5 184.97,-203.5"/>
</g>
<!-- 1990981469680 -->
<g id="node2" class="node">
<title>1990981469680</title>
<polygon fill="white" stroke="black" points="379.25,-218 286.75,-218 286.75,-182 379.25,-182 379.25,-218"/>
<text text-anchor="middle" x="333" y="-194.97" font-family="Times New Roman,serif" font-size="12.00">Structure Check</text>
</g>
<!-- 1990981476928 -->
<g id="node19" class="node">
<title>1990981476928</title>
<ellipse fill="white" stroke="black" cx="442.25" cy="-200" rx="27" ry="27"/>
</g>
<!-- 1990981469680&#45;&gt;1990981476928 -->
<g id="edge4" class="edge">
<title>1990981469680&#45;&gt;1990981476928</title>
<path fill="none" stroke="black" d="M379.48,-200C387.52,-200 395.81,-200 403.6,-200"/>
<polygon fill="black" stroke="black" points="403.44,-203.5 413.44,-200 403.44,-196.5 403.44,-203.5"/>
</g>
<!-- 1990981482688 -->
<g id="node3" class="node">
<title>1990981482688</title>
<polygon fill="white" stroke="black" points="576,-218 505.25,-218 505.25,-182 576,-182 576,-218"/>
<text text-anchor="middle" x="540.62" y="-194.97" font-family="Times New Roman,serif" font-size="12.00">Rack Setup</text>
</g>
<!-- 1990981470304 -->
<g id="node20" class="node">
<title>1990981470304</title>
<ellipse fill="white" stroke="black" cx="639" cy="-200" rx="27" ry="27"/>
</g>
<!-- 1990981482688&#45;&gt;1990981470304 -->
<g id="edge6" class="edge">
<title>1990981482688&#45;&gt;1990981470304</title>
<path fill="none" stroke="black" d="M576.42,-200C584.15,-200 592.39,-200 600.23,-200"/>
<polygon fill="black" stroke="black" points="600.22,-203.5 610.22,-200 600.22,-196.5 600.22,-203.5"/>
</g>
<!-- 1990978925632 -->
<g id="node4" class="node">
<title>1990978925632</title>
<polygon fill="white" stroke="black" points="766,-218 702,-218 702,-182 766,-182 766,-218"/>
<text text-anchor="middle" x="734" y="-194.97" font-family="Times New Roman,serif" font-size="12.00">Seed Prep</text>
</g>
<!-- 1990978927936 -->
<g id="node21" class="node">
<title>1990978927936</title>
<ellipse fill="white" stroke="black" cx="829" cy="-200" rx="27" ry="27"/>
</g>
<!-- 1990978925632&#45;&gt;1990978927936 -->
<g id="edge8" class="edge">
<title>1990978925632&#45;&gt;1990978927936</title>
<path fill="none" stroke="black" d="M766.49,-200C774.04,-200 782.2,-200 790.01,-200"/>
<polygon fill="black" stroke="black" points="789.99,-203.5 799.99,-200 789.99,-196.5 789.99,-203.5"/>
</g>
<!-- 1990978925008 -->
<g id="node5" class="node">
<title>1990978925008</title>
<polygon fill="white" stroke="black" points="969.5,-218 892,-218 892,-182 969.5,-182 969.5,-218"/>
<text text-anchor="middle" x="930.75" y="-194.97" font-family="Times New Roman,serif" font-size="12.00">Nutrient Mix</text>
</g>
<!-- 1990978918384 -->
<g id="node22" class="node">
<title>1990978918384</title>
<ellipse fill="white" stroke="black" cx="1032.5" cy="-200" rx="27" ry="27"/>
</g>
<!-- 1990978925008&#45;&gt;1990978918384 -->
<g id="edge10" class="edge">
<title>1990978925008&#45;&gt;1990978918384</title>
<path fill="none" stroke="black" d="M969.75,-200C977.57,-200 985.81,-200 993.63,-200"/>
<polygon fill="black" stroke="black" points="993.55,-203.5 1003.55,-200 993.55,-196.5 993.55,-203.5"/>
</g>
<!-- 1990978920880 -->
<g id="node6" class="node">
<title>1990978920880</title>
<polygon fill="white" stroke="black" points="1174.5,-218 1095.5,-218 1095.5,-182 1174.5,-182 1174.5,-218"/>
<text text-anchor="middle" x="1135" y="-194.97" font-family="Times New Roman,serif" font-size="12.00">Seed Sowing</text>
</g>
<!-- 1990981971136 -->
<g id="node23" class="node">
<title>1990981971136</title>
<ellipse fill="white" stroke="black" cx="1237.5" cy="-200" rx="27" ry="27"/>
</g>
<!-- 1990978920880&#45;&gt;1990981971136 -->
<g id="edge12" class="edge">
<title>1990978920880&#45;&gt;1990981971136</title>
<path fill="none" stroke="black" d="M1174.86,-200C1182.71,-200 1190.95,-200 1198.76,-200"/>
<polygon fill="black" stroke="black" points="1198.66,-203.5 1208.66,-200 1198.66,-196.5 1198.66,-203.5"/>
</g>
<!-- 1990981975984 -->
<g id="node7" class="node">
<title>1990981975984</title>
<polygon fill="white" stroke="black" points="1378.75,-218 1300.5,-218 1300.5,-182 1378.75,-182 1378.75,-218"/>
<text text-anchor="middle" x="1339.62" y="-194.97" font-family="Times New Roman,serif" font-size="12.00">Sensor Setup</text>
</g>
<!-- 1990977855392 -->
<g id="node24" class="node">
<title>1990977855392</title>
<ellipse fill="white" stroke="black" cx="1441.75" cy="-272" rx="27" ry="27"/>
</g>
<!-- 1990981975984&#45;&gt;1990977855392 -->
<g id="edge14" class="edge">
<title>1990981975984&#45;&gt;1990977855392</title>
<path fill="none" stroke="black" d="M1366.15,-218.35C1379.52,-227.97 1395.99,-239.81 1410.05,-249.92"/>
<polygon fill="black" stroke="black" points="1407.94,-252.72 1418.11,-255.72 1412.03,-247.04 1407.94,-252.72"/>
</g>
<!-- 1990977847376 -->
<g id="node25" class="node">
<title>1990977847376</title>
<ellipse fill="white" stroke="black" cx="1441.75" cy="-200" rx="27" ry="27"/>
</g>
<!-- 1990981975984&#45;&gt;1990977847376 -->
<g id="edge15" class="edge">
<title>1990981975984&#45;&gt;1990977847376</title>
<path fill="none" stroke="black" d="M1379.05,-200C1386.89,-200 1395.13,-200 1402.94,-200"/>
<polygon fill="black" stroke="black" points="1402.86,-203.5 1412.86,-200 1402.86,-196.5 1402.86,-203.5"/>
</g>
<!-- 1990976233040 -->
<g id="node26" class="node">
<title>1990976233040</title>
<ellipse fill="white" stroke="black" cx="1441.75" cy="-119" rx="27" ry="27"/>
</g>
<!-- 1990981975984&#45;&gt;1990976233040 -->
<g id="edge16" class="edge">
<title>1990981975984&#45;&gt;1990976233040</title>
<path fill="none" stroke="black" d="M1363.34,-181.62C1377.62,-170.07 1396.18,-155.06 1411.54,-142.63"/>
<polygon fill="black" stroke="black" points="1413.41,-145.62 1418.99,-136.61 1409.01,-140.17 1413.41,-145.62"/>
</g>
<!-- 1990977848336 -->
<g id="node8" class="node">
<title>1990977848336</title>
<polygon fill="white" stroke="black" points="1584.5,-227 1508.5,-227 1508.5,-191 1584.5,-191 1584.5,-227"/>
<text text-anchor="middle" x="1546.5" y="-203.97" font-family="Times New Roman,serif" font-size="12.00">Light Adjust</text>
</g>
<!-- 1990977857264 -->
<g id="node31" class="node">
<title>1990977857264</title>
<ellipse fill="white" stroke="black" cx="1970" cy="-217" rx="27" ry="27"/>
</g>
<!-- 1990977848336&#45;&gt;1990977857264 -->
<g id="edge23" class="edge">
<title>1990977848336&#45;&gt;1990977857264</title>
<path fill="none" stroke="black" d="M1584.91,-209.71C1664.72,-211.22 1850.98,-214.76 1931.17,-216.28"/>
<polygon fill="black" stroke="black" points="1931.08,-219.78 1941.14,-216.47 1931.21,-212.78 1931.08,-219.78"/>
</g>
<!-- 1990976227376 -->
<g id="node9" class="node">
<title>1990976227376</title>
<polygon fill="white" stroke="black" points="1586,-127 1507,-127 1507,-91 1586,-91 1586,-127"/>
<text text-anchor="middle" x="1546.5" y="-103.97" font-family="Times New Roman,serif" font-size="12.00">Data Capture</text>
</g>
<!-- 1990976240576 -->
<g id="node27" class="node">
<title>1990976240576</title>
<ellipse fill="white" stroke="black" cx="1651.25" cy="-171" rx="27" ry="27"/>
</g>
<!-- 1990976227376&#45;&gt;1990976240576 -->
<g id="edge20" class="edge">
<title>1990976227376&#45;&gt;1990976240576</title>
<path fill="none" stroke="black" d="M1578.05,-127.43C1590.56,-134.98 1605.05,-143.73 1617.76,-151.39"/>
<polygon fill="black" stroke="black" points="1615.82,-154.31 1626.19,-156.48 1619.44,-148.32 1615.82,-154.31"/>
</g>
<!-- 1990982253120 -->
<g id="node28" class="node">
<title>1990982253120</title>
<ellipse fill="white" stroke="black" cx="1651.25" cy="-99" rx="27" ry="27"/>
</g>
<!-- 1990976227376&#45;&gt;1990982253120 -->
<g id="edge21" class="edge">
<title>1990976227376&#45;&gt;1990982253120</title>
<path fill="none" stroke="black" d="M1586.35,-105.22C1595.02,-104.38 1604.2,-103.48 1612.82,-102.64"/>
<polygon fill="black" stroke="black" points="1612.99,-106.14 1622.61,-101.69 1612.31,-99.18 1612.99,-106.14"/>
</g>
<!-- 1990978341440 -->
<g id="node29" class="node">
<title>1990978341440</title>
<ellipse fill="white" stroke="black" cx="1651.25" cy="-27" rx="27" ry="27"/>
</g>
<!-- 1990976227376&#45;&gt;1990978341440 -->
<g id="edge22" class="edge">
<title>1990976227376&#45;&gt;1990978341440</title>
<path fill="none" stroke="black" d="M1570.56,-90.6C1585.4,-78.76 1604.82,-63.26 1620.77,-50.52"/>
<polygon fill="black" stroke="black" points="1622.89,-53.31 1628.52,-44.34 1618.52,-47.84 1622.89,-53.31"/>
</g>
<!-- 1990977852992 -->
<g id="node10" class="node">
<title>1990977852992</title>
<polygon fill="white" stroke="black" points="1588.25,-290 1504.75,-290 1504.75,-254 1588.25,-254 1588.25,-290"/>
<text text-anchor="middle" x="1546.5" y="-266.98" font-family="Times New Roman,serif" font-size="12.00">Irrigation Plan</text>
</g>
<!-- 1990981959760 -->
<g id="node30" class="node">
<title>1990981959760</title>
<ellipse fill="white" stroke="black" cx="2077.75" cy="-272" rx="27" ry="27"/>
</g>
<!-- 1990977852992&#45;&gt;1990981959760 -->
<g id="edge24" class="edge">
<title>1990977852992&#45;&gt;1990981959760</title>
<path fill="none" stroke="black" d="M1588.59,-272C1630.6,-272 1697.72,-272 1755.75,-272 1755.75,-272 1755.75,-272 1863.25,-272 1924.78,-272 1996.29,-272 2038.96,-272"/>
<polygon fill="black" stroke="black" points="2038.94,-275.5 2048.94,-272 2038.94,-268.5 2038.94,-275.5"/>
</g>
<!-- 1990978830464 -->
<g id="node11" class="node">
<title>1990978830464</title>
<polygon fill="black" stroke="black" points="2405,-235 2351,-235 2351,-199 2405,-199 2405,-235"/>
</g>
<!-- 1990979170384 -->
<g id="node35" class="node">
<title>1990979170384</title>
<ellipse fill="white" stroke="black" cx="2472" cy="-217" rx="27" ry="27"/>
<ellipse fill="none" stroke="black" cx="2472" cy="-217" rx="31" ry="31"/>
<text text-anchor="start" x="2455.5" y="-201.6" font-family="Times New Roman,serif" font-size="32.00">■</text>
</g>
<!-- 1990978830464&#45;&gt;1990979170384 -->
<g id="edge33" class="edge">
<title>1990978830464&#45;&gt;1990979170384</title>
<path fill="none" stroke="black" d="M2405.12,-217C2412.63,-217 2421.01,-217 2429.22,-217"/>
<polygon fill="black" stroke="black" points="2429.08,-220.5 2439.08,-217 2429.08,-213.5 2429.08,-220.5"/>
</g>
<!-- 1990982252304 -->
<g id="node12" class="node">
<title>1990982252304</title>
<polygon fill="white" stroke="black" points="1794,-189 1719.5,-189 1719.5,-153 1794,-153 1794,-189"/>
<text text-anchor="middle" x="1756.75" y="-165.97" font-family="Times New Roman,serif" font-size="12.00">Pest Control</text>
</g>
<!-- 1990980998624 -->
<g id="node34" class="node">
<title>1990980998624</title>
<ellipse fill="white" stroke="black" cx="1862.25" cy="-171" rx="27" ry="27"/>
</g>
<!-- 1990982252304&#45;&gt;1990980998624 -->
<g id="edge32" class="edge">
<title>1990982252304&#45;&gt;1990980998624</title>
<path fill="none" stroke="black" d="M1794.24,-171C1803.76,-171 1814.03,-171 1823.6,-171"/>
<polygon fill="black" stroke="black" points="1823.33,-174.5 1833.33,-171 1823.33,-167.5 1823.33,-174.5"/>
</g>
<!-- 1990978350368 -->
<g id="node13" class="node">
<title>1990978350368</title>
<polygon fill="white" stroke="black" points="1795.5,-45 1718,-45 1718,-9 1795.5,-9 1795.5,-45"/>
<text text-anchor="middle" x="1756.75" y="-21.98" font-family="Times New Roman,serif" font-size="12.00">Energy Sync</text>
</g>
<!-- 1990980994256 -->
<g id="node32" class="node">
<title>1990980994256</title>
<ellipse fill="white" stroke="black" cx="1862.25" cy="-27" rx="27" ry="27"/>
</g>
<!-- 1990978350368&#45;&gt;1990980994256 -->
<g id="edge30" class="edge">
<title>1990978350368&#45;&gt;1990980994256</title>
<path fill="none" stroke="black" d="M1796,-27C1804.96,-27 1814.51,-27 1823.46,-27"/>
<polygon fill="black" stroke="black" points="1823.27,-30.5 1833.27,-27 1823.27,-23.5 1823.27,-30.5"/>
</g>
<!-- 1990982240736 -->
<g id="node14" class="node">
<title>1990982240736</title>
<polygon fill="white" stroke="black" points="1799.25,-117 1714.25,-117 1714.25,-81 1799.25,-81 1799.25,-117"/>
<text text-anchor="middle" x="1756.75" y="-93.97" font-family="Times New Roman,serif" font-size="12.00">Yield Forecast</text>
</g>
<!-- 1990981000256 -->
<g id="node33" class="node">
<title>1990981000256</title>
<ellipse fill="white" stroke="black" cx="1862.25" cy="-99" rx="27" ry="27"/>
</g>
<!-- 1990982240736&#45;&gt;1990981000256 -->
<g id="edge31" class="edge">
<title>1990982240736&#45;&gt;1990981000256</title>
<path fill="none" stroke="black" d="M1799.55,-99C1807.45,-99 1815.67,-99 1823.43,-99"/>
<polygon fill="black" stroke="black" points="1823.26,-102.5 1833.26,-99 1823.26,-95.5 1823.26,-102.5"/>
</g>
<!-- 1990978347584 -->
<g id="node15" class="node">
<title>1990978347584</title>
<polygon fill="white" stroke="black" points="2014.75,-149 1925.25,-149 1925.25,-113 2014.75,-113 2014.75,-149"/>
<text text-anchor="middle" x="1970" y="-125.97" font-family="Times New Roman,serif" font-size="12.00">Harvest Inspect</text>
</g>
<!-- 1990978340720 -->
<g id="node36" class="node">
<title>1990978340720</title>
<ellipse fill="white" stroke="black" cx="2077.75" cy="-158" rx="27" ry="27"/>
</g>
<!-- 1990978347584&#45;&gt;1990978340720 -->
<g id="edge37" class="edge">
<title>1990978347584&#45;&gt;1990978340720</title>
<path fill="none" stroke="black" d="M2015.23,-142.29C2023.54,-144.42 2032.15,-146.61 2040.19,-148.67"/>
<polygon fill="black" stroke="black" points="2039.08,-151.99 2049.63,-151.08 2040.81,-145.21 2039.08,-151.99"/>
</g>
<!-- 1990978352192 -->
<g id="node16" class="node">
<title>1990978352192</title>
<polygon fill="white" stroke="black" points="2225,-180 2140.75,-180 2140.75,-144 2225,-144 2225,-180"/>
<text text-anchor="middle" x="2182.88" y="-156.97" font-family="Times New Roman,serif" font-size="12.00">Pack Dispatch</text>
</g>
<!-- 1990978345328 -->
<g id="node37" class="node">
<title>1990978345328</title>
<ellipse fill="white" stroke="black" cx="2288" cy="-162" rx="27" ry="27"/>
</g>
<!-- 1990978352192&#45;&gt;1990978345328 -->
<g id="edge39" class="edge">
<title>1990978352192&#45;&gt;1990978345328</title>
<path fill="none" stroke="black" d="M2225.23,-162C2233.19,-162 2241.49,-162 2249.33,-162"/>
<polygon fill="black" stroke="black" points="2249.25,-165.5 2259.25,-162 2249.25,-158.5 2249.25,-165.5"/>
</g>
<!-- 1990979168224 -->
<g id="node17" class="node">
<title>1990979168224</title>
<ellipse fill="white" stroke="black" cx="27" cy="-200" rx="27" ry="27"/>
<text text-anchor="start" x="9.75" y="-182.7" font-family="Times New Roman,serif" font-size="34.00">●</text>
</g>
<!-- 1990979168224&#45;&gt;1990981470112 -->
<g id="edge1" class="edge">
<title>1990979168224&#45;&gt;1990981470112</title>
<path fill="none" stroke="black" d="M54.33,-200C61.76,-200 70.06,-200 78.28,-200"/>
<polygon fill="black" stroke="black" points="78.24,-203.5 88.24,-200 78.24,-196.5 78.24,-203.5"/>
</g>
<!-- 1990981473088&#45;&gt;1990981469680 -->
<g id="edge3" class="edge">
<title>1990981473088&#45;&gt;1990981469680</title>
<path fill="none" stroke="black" d="M250.99,-200C258.32,-200 266.59,-200 274.97,-200"/>
<polygon fill="black" stroke="black" points="274.87,-203.5 284.87,-200 274.87,-196.5 274.87,-203.5"/>
</g>
<!-- 1990981476928&#45;&gt;1990981482688 -->
<g id="edge5" class="edge">
<title>1990981476928&#45;&gt;1990981482688</title>
<path fill="none" stroke="black" d="M469.58,-200C477.01,-200 485.31,-200 493.53,-200"/>
<polygon fill="black" stroke="black" points="493.49,-203.5 503.49,-200 493.49,-196.5 493.49,-203.5"/>
</g>
<!-- 1990981470304&#45;&gt;1990978925632 -->
<g id="edge7" class="edge">
<title>1990981470304&#45;&gt;1990978925632</title>
<path fill="none" stroke="black" d="M666.4,-200C673.85,-200 682.14,-200 690.29,-200"/>
<polygon fill="black" stroke="black" points="690.07,-203.5 700.07,-200 690.07,-196.5 690.07,-203.5"/>
</g>
<!-- 1990978927936&#45;&gt;1990978925008 -->
<g id="edge9" class="edge">
<title>1990978927936&#45;&gt;1990978925008</title>
<path fill="none" stroke="black" d="M856.47,-200C863.77,-200 871.93,-200 880.08,-200"/>
<polygon fill="black" stroke="black" points="880,-203.5 890,-200 880,-196.5 880,-203.5"/>
</g>
<!-- 1990978918384&#45;&gt;1990978920880 -->
<g id="edge11" class="edge">
<title>1990978918384&#45;&gt;1990978920880</title>
<path fill="none" stroke="black" d="M1059.91,-200C1067.34,-200 1075.69,-200 1084.02,-200"/>
<polygon fill="black" stroke="black" points="1083.78,-203.5 1093.78,-200 1083.78,-196.5 1083.78,-203.5"/>
</g>
<!-- 1990981971136&#45;&gt;1990981975984 -->
<g id="edge13" class="edge">
<title>1990981971136&#45;&gt;1990981975984</title>
<path fill="none" stroke="black" d="M1264.81,-200C1272.13,-200 1280.34,-200 1288.55,-200"/>
<polygon fill="black" stroke="black" points="1288.55,-203.5 1298.55,-200 1288.55,-196.5 1288.55,-203.5"/>
</g>
<!-- 1990977855392&#45;&gt;1990977852992 -->
<g id="edge19" class="edge">
<title>1990977855392&#45;&gt;1990977852992</title>
<path fill="none" stroke="black" d="M1469.21,-272C1476.57,-272 1484.83,-272 1493.12,-272"/>
<polygon fill="black" stroke="black" points="1492.86,-275.5 1502.86,-272 1492.86,-268.5 1492.86,-275.5"/>
</g>
<!-- 1990977847376&#45;&gt;1990977848336 -->
<g id="edge17" class="edge">
<title>1990977847376&#45;&gt;1990977848336</title>
<path fill="none" stroke="black" d="M1468.94,-202.29C1477.49,-203.04 1487.27,-203.9 1496.92,-204.75"/>
<polygon fill="black" stroke="black" points="1496.33,-208.21 1506.6,-205.59 1496.95,-201.23 1496.33,-208.21"/>
</g>
<!-- 1990976233040&#45;&gt;1990976227376 -->
<g id="edge18" class="edge">
<title>1990976233040&#45;&gt;1990976227376</title>
<path fill="none" stroke="black" d="M1468.94,-116.45C1476.97,-115.67 1486.09,-114.78 1495.16,-113.9"/>
<polygon fill="black" stroke="black" points="1495.42,-117.39 1505.04,-112.94 1494.75,-110.42 1495.42,-117.39"/>
</g>
<!-- 1990976240576&#45;&gt;1990982252304 -->
<g id="edge29" class="edge">
<title>1990976240576&#45;&gt;1990982252304</title>
<path fill="none" stroke="black" d="M1678.64,-171C1687.6,-171 1697.91,-171 1708.02,-171"/>
<polygon fill="black" stroke="black" points="1707.75,-174.5 1717.75,-171 1707.75,-167.5 1707.75,-174.5"/>
</g>
<!-- 1990982253120&#45;&gt;1990982240736 -->
<g id="edge27" class="edge">
<title>1990982253120&#45;&gt;1990982240736</title>
<path fill="none" stroke="black" d="M1678.64,-99C1686.05,-99 1694.38,-99 1702.76,-99"/>
<polygon fill="black" stroke="black" points="1702.61,-102.5 1712.61,-99 1702.61,-95.5 1702.61,-102.5"/>
</g>
<!-- 1990978341440&#45;&gt;1990978350368 -->
<g id="edge25" class="edge">
<title>1990978341440&#45;&gt;1990978350368</title>
<path fill="none" stroke="black" d="M1678.64,-27C1687.07,-27 1696.69,-27 1706.21,-27"/>
<polygon fill="black" stroke="black" points="1706.18,-30.5 1716.18,-27 1706.18,-23.5 1706.18,-30.5"/>
</g>
<!-- 1990981959760&#45;&gt;1990978830464 -->
<g id="edge28" class="edge">
<title>1990981959760&#45;&gt;1990978830464</title>
<path fill="none" stroke="black" d="M2104.7,-267.93C2148.27,-261.01 2238.86,-246.19 2315,-231 2322.94,-229.41 2331.43,-227.59 2339.49,-225.79"/>
<polygon fill="black" stroke="black" points="2340.06,-229.25 2349.04,-223.62 2338.51,-222.42 2340.06,-229.25"/>
</g>
<!-- 1990977857264&#45;&gt;1990978830464 -->
<g id="edge26" class="edge">
<title>1990977857264&#45;&gt;1990978830464</title>
<path fill="none" stroke="black" d="M1997.33,-217C2067.26,-217 2257.89,-217 2339.31,-217"/>
<polygon fill="black" stroke="black" points="2339.22,-220.5 2349.22,-217 2339.22,-213.5 2339.22,-220.5"/>
</g>
<!-- 1990980994256&#45;&gt;1990978347584 -->
<g id="edge35" class="edge">
<title>1990980994256&#45;&gt;1990978347584</title>
<path fill="none" stroke="black" d="M1882.16,-45.59C1898.85,-62.01 1923.37,-86.13 1942.11,-104.55"/>
<polygon fill="black" stroke="black" points="1939.59,-106.99 1949.18,-111.51 1944.5,-102 1939.59,-106.99"/>
</g>
<!-- 1990981000256&#45;&gt;1990978347584 -->
<g id="edge36" class="edge">
<title>1990981000256&#45;&gt;1990978347584</title>
<path fill="none" stroke="black" d="M1888.58,-106.66C1896.31,-109 1905.14,-111.67 1914.04,-114.37"/>
<polygon fill="black" stroke="black" points="1912.83,-117.66 1923.42,-117.21 1914.86,-110.96 1912.83,-117.66"/>
</g>
<!-- 1990980998624&#45;&gt;1990978347584 -->
<g id="edge34" class="edge">
<title>1990980998624&#45;&gt;1990978347584</title>
<path fill="none" stroke="black" d="M1888.04,-161.62C1895.94,-158.63 1905.02,-155.2 1914.17,-151.74"/>
<polygon fill="black" stroke="black" points="1915.36,-155.03 1923.47,-148.22 1912.88,-148.49 1915.36,-155.03"/>
</g>
<!-- 1990978340720&#45;&gt;1990978352192 -->
<g id="edge38" class="edge">
<title>1990978340720&#45;&gt;1990978352192</title>
<path fill="none" stroke="black" d="M2105.04,-159.02C2112.42,-159.31 2120.73,-159.63 2129.07,-159.95"/>
<polygon fill="black" stroke="black" points="2128.76,-163.44 2138.89,-160.33 2129.03,-156.45 2128.76,-163.44"/>
</g>
<!-- 1990978345328&#45;&gt;1990978830464 -->
<g id="edge40" class="edge">
<title>1990978345328&#45;&gt;1990978830464</title>
<path fill="none" stroke="black" d="M2311.21,-175.88C2320.31,-181.57 2331.08,-188.3 2341.25,-194.65"/>
<polygon fill="black" stroke="black" points="2339.11,-197.45 2349.45,-199.78 2342.82,-191.51 2339.11,-197.45"/>
</g>
</g>
</svg>
