<?xml version="1.0" encoding="UTF-8" standalone="no"?>
<!DOCTYPE svg PUBLIC "-//W3C//DTD SVG 1.1//EN"
 "http://www.w3.org/Graphics/SVG/1.1/DTD/svg11.dtd">
<!-- Generated by graphviz version 11.0.0 (20240428.1522)
 -->
<!-- Title: imdf_net_1754053446.8569865 Pages: 1 -->
<svg width="2925pt" height="342pt"
 viewBox="0.00 0.00 2924.50 342.35" xmlns="http://www.w3.org/2000/svg" xmlns:xlink="http://www.w3.org/1999/xlink">
<g id="graph0" class="graph" transform="scale(1 1) rotate(0) translate(4 338.35)">
<title>imdf_net_1754053446.8569865</title>
<polygon fill="white" stroke="none" points="-4,4 -4,-338.35 2920.5,-338.35 2920.5,4 -4,4"/>
<!-- 2892509258832 -->
<g id="node1" class="node">
<title>2892509258832</title>
<polygon fill="white" stroke="black" points="190,-149 90,-149 90,-113 190,-113 190,-149"/>
<text text-anchor="middle" x="140" y="-125.97" font-family="Times New Roman,serif" font-size="12.00">Capture Metadata</text>
</g>
<!-- 2892509259360 -->
<g id="node23" class="node">
<title>2892509259360</title>
<ellipse fill="white" stroke="black" cx="253" cy="-131" rx="27" ry="27"/>
</g>
<!-- 2892509258832&#45;&gt;2892509259360 -->
<g id="edge2" class="edge">
<title>2892509258832&#45;&gt;2892509259360</title>
<path fill="none" stroke="black" d="M190.33,-131C198.41,-131 206.66,-131 214.39,-131"/>
<polygon fill="black" stroke="black" points="214.12,-134.5 224.12,-131 214.12,-127.5 214.12,-134.5"/>
</g>
<!-- 2892509259552 -->
<g id="node2" class="node">
<title>2892509259552</title>
<polygon fill="white" stroke="black" points="396.5,-149 316,-149 316,-113 396.5,-113 396.5,-149"/>
<text text-anchor="middle" x="356.25" y="-125.97" font-family="Times New Roman,serif" font-size="12.00">Verify Rights</text>
</g>
<!-- 2892509258880 -->
<g id="node24" class="node">
<title>2892509258880</title>
<ellipse fill="white" stroke="black" cx="459.5" cy="-131" rx="27" ry="27"/>
</g>
<!-- 2892509259552&#45;&gt;2892509258880 -->
<g id="edge4" class="edge">
<title>2892509259552&#45;&gt;2892509258880</title>
<path fill="none" stroke="black" d="M396.98,-131C404.85,-131 413.09,-131 420.89,-131"/>
<polygon fill="black" stroke="black" points="420.77,-134.5 430.77,-131 420.77,-127.5 420.77,-134.5"/>
</g>
<!-- 2892509569792 -->
<g id="node3" class="node">
<title>2892509569792</title>
<polygon fill="white" stroke="black" points="617.25,-149 522.5,-149 522.5,-113 617.25,-113 617.25,-149"/>
<text text-anchor="middle" x="569.88" y="-125.97" font-family="Times New Roman,serif" font-size="12.00">Negotiate Terms</text>
</g>
<!-- 2892509700960 -->
<g id="node25" class="node">
<title>2892509700960</title>
<ellipse fill="white" stroke="black" cx="680.25" cy="-131" rx="27" ry="27"/>
</g>
<!-- 2892509569792&#45;&gt;2892509700960 -->
<g id="edge6" class="edge">
<title>2892509569792&#45;&gt;2892509700960</title>
<path fill="none" stroke="black" d="M617.46,-131C625.54,-131 633.85,-131 641.65,-131"/>
<polygon fill="black" stroke="black" points="641.48,-134.5 651.48,-131 641.48,-127.5 641.48,-134.5"/>
</g>
<!-- 2892509702064 -->
<g id="node4" class="node">
<title>2892509702064</title>
<polygon fill="white" stroke="black" points="841,-149 743.25,-149 743.25,-113 841,-113 841,-149"/>
<text text-anchor="middle" x="792.12" y="-125.97" font-family="Times New Roman,serif" font-size="12.00">Execute Contract</text>
</g>
<!-- 2892509701488 -->
<g id="node26" class="node">
<title>2892509701488</title>
<ellipse fill="white" stroke="black" cx="904" cy="-131" rx="27" ry="27"/>
</g>
<!-- 2892509702064&#45;&gt;2892509701488 -->
<g id="edge8" class="edge">
<title>2892509702064&#45;&gt;2892509701488</title>
<path fill="none" stroke="black" d="M841.32,-131C849.36,-131 857.6,-131 865.32,-131"/>
<polygon fill="black" stroke="black" points="865.06,-134.5 875.06,-131 865.06,-127.5 865.06,-134.5"/>
</g>
<!-- 2892509120800 -->
<g id="node5" class="node">
<title>2892509120800</title>
<polygon fill="white" stroke="black" points="1068.5,-149 967,-149 967,-113 1068.5,-113 1068.5,-149"/>
<text text-anchor="middle" x="1017.75" y="-125.97" font-family="Times New Roman,serif" font-size="12.00">Distribute Artifact</text>
</g>
<!-- 2892509121664 -->
<g id="node27" class="node">
<title>2892509121664</title>
<ellipse fill="white" stroke="black" cx="1131.5" cy="-131" rx="27" ry="27"/>
</g>
<!-- 2892509120800&#45;&gt;2892509121664 -->
<g id="edge10" class="edge">
<title>2892509120800&#45;&gt;2892509121664</title>
<path fill="none" stroke="black" d="M1068.74,-131C1076.85,-131 1085.12,-131 1092.86,-131"/>
<polygon fill="black" stroke="black" points="1092.61,-134.5 1102.61,-131 1092.61,-127.5 1092.61,-134.5"/>
</g>
<!-- 2892509122288 -->
<g id="node6" class="node">
<title>2892509122288</title>
<polygon fill="white" stroke="black" points="1276.5,-149 1194.5,-149 1194.5,-113 1276.5,-113 1276.5,-149"/>
<text text-anchor="middle" x="1235.5" y="-125.97" font-family="Times New Roman,serif" font-size="12.00">Sync Systems</text>
</g>
<!-- 2892504656800 -->
<g id="node28" class="node">
<title>2892504656800</title>
<ellipse fill="white" stroke="black" cx="1339.5" cy="-167" rx="27" ry="27"/>
</g>
<!-- 2892509122288&#45;&gt;2892504656800 -->
<g id="edge13" class="edge">
<title>2892509122288&#45;&gt;2892504656800</title>
<path fill="none" stroke="black" d="M1276.81,-145.23C1285.49,-148.29 1294.59,-151.5 1303.06,-154.49"/>
<polygon fill="black" stroke="black" points="1301.72,-157.73 1312.32,-157.76 1304.05,-151.13 1301.72,-157.73"/>
</g>
<!-- 2892510395760 -->
<g id="node29" class="node">
<title>2892510395760</title>
<ellipse fill="white" stroke="black" cx="1339.5" cy="-95" rx="27" ry="27"/>
</g>
<!-- 2892509122288&#45;&gt;2892510395760 -->
<g id="edge12" class="edge">
<title>2892509122288&#45;&gt;2892510395760</title>
<path fill="none" stroke="black" d="M1276.81,-116.77C1285.49,-113.71 1294.59,-110.5 1303.06,-107.51"/>
<polygon fill="black" stroke="black" points="1304.05,-110.87 1312.32,-104.24 1301.72,-104.27 1304.05,-110.87"/>
</g>
<!-- 2892507850288 -->
<g id="node7" class="node">
<title>2892507850288</title>
<polygon fill="white" stroke="black" points="1501.38,-232 1414.12,-232 1414.12,-196 1501.38,-196 1501.38,-232"/>
<text text-anchor="middle" x="1457.75" y="-208.97" font-family="Times New Roman,serif" font-size="12.00">Monitor Usage</text>
</g>
<!-- 2892508970016 -->
<g id="node30" class="node">
<title>2892508970016</title>
<ellipse fill="white" stroke="black" cx="1576" cy="-220" rx="27" ry="27"/>
</g>
<!-- 2892507850288&#45;&gt;2892508970016 -->
<g id="edge17" class="edge">
<title>2892507850288&#45;&gt;2892508970016</title>
<path fill="none" stroke="black" d="M1501.71,-216.22C1513.42,-216.82 1526.02,-217.47 1537.41,-218.06"/>
<polygon fill="black" stroke="black" points="1537.07,-221.55 1547.24,-218.57 1537.43,-214.56 1537.07,-221.55"/>
</g>
<!-- 2892510396336 -->
<g id="node8" class="node">
<title>2892510396336</title>
<polygon fill="white" stroke="black" points="1513,-113 1402.5,-113 1402.5,-77 1513,-77 1513,-113"/>
<text text-anchor="middle" x="1457.75" y="-89.97" font-family="Times New Roman,serif" font-size="12.00">Track Consumption</text>
</g>
<!-- 2892510429408 -->
<g id="node31" class="node">
<title>2892510429408</title>
<ellipse fill="white" stroke="black" cx="1576" cy="-95" rx="27" ry="27"/>
</g>
<!-- 2892510396336&#45;&gt;2892510429408 -->
<g id="edge16" class="edge">
<title>2892510396336&#45;&gt;2892510429408</title>
<path fill="none" stroke="black" d="M1513.47,-95C1521.51,-95 1529.64,-95 1537.23,-95"/>
<polygon fill="black" stroke="black" points="1537.13,-98.5 1547.13,-95 1537.13,-91.5 1537.13,-98.5"/>
</g>
<!-- 2892510392592 -->
<g id="node9" class="node">
<title>2892510392592</title>
<polygon fill="white" stroke="black" points="1739.75,-234 1641.25,-234 1641.25,-198 1739.75,-198 1739.75,-234"/>
<text text-anchor="middle" x="1690.5" y="-210.97" font-family="Times New Roman,serif" font-size="12.00">Resolve Disputes</text>
</g>
<!-- 2892510392832 -->
<g id="node32" class="node">
<title>2892510392832</title>
<ellipse fill="white" stroke="black" cx="1805" cy="-207" rx="27" ry="27"/>
</g>
<!-- 2892510392592&#45;&gt;2892510392832 -->
<g id="edge25" class="edge">
<title>2892510392592&#45;&gt;2892510392832</title>
<path fill="none" stroke="black" d="M1740.19,-212.1C1748.99,-211.4 1758.04,-210.68 1766.46,-210"/>
<polygon fill="black" stroke="black" points="1766.65,-213.5 1776.34,-209.21 1766.09,-206.52 1766.65,-213.5"/>
</g>
<!-- 2892510429984 -->
<g id="node10" class="node">
<title>2892510429984</title>
<polygon fill="white" stroke="black" points="1740.88,-113 1640.12,-113 1640.12,-77 1740.88,-77 1740.88,-113"/>
<text text-anchor="middle" x="1690.5" y="-89.97" font-family="Times New Roman,serif" font-size="12.00">Process Payments</text>
</g>
<!-- 2892510430224 -->
<g id="node33" class="node">
<title>2892510430224</title>
<ellipse fill="white" stroke="black" cx="1805" cy="-99" rx="27" ry="27"/>
</g>
<!-- 2892510429984&#45;&gt;2892510430224 -->
<g id="edge23" class="edge">
<title>2892510429984&#45;&gt;2892510430224</title>
<path fill="none" stroke="black" d="M1741.17,-96.77C1749.63,-97.07 1758.3,-97.38 1766.38,-97.66"/>
<polygon fill="black" stroke="black" points="1766.1,-101.15 1776.21,-98.01 1766.34,-94.16 1766.1,-101.15"/>
</g>
<!-- 2892510431040 -->
<g id="node34" class="node">
<title>2892510431040</title>
<ellipse fill="white" stroke="black" cx="1805" cy="-27" rx="27" ry="27"/>
</g>
<!-- 2892510429984&#45;&gt;2892510431040 -->
<g id="edge22" class="edge">
<title>2892510429984&#45;&gt;2892510431040</title>
<path fill="none" stroke="black" d="M1721.94,-76.6C1737.32,-67.31 1755.97,-56.03 1771.61,-46.58"/>
<polygon fill="black" stroke="black" points="1773.34,-49.62 1780.09,-41.45 1769.72,-43.63 1773.34,-49.62"/>
</g>
<!-- 2892507845200 -->
<g id="node11" class="node">
<title>2892507845200</title>
<polygon fill="black" stroke="black" points="2818.5,-310 2764.5,-310 2764.5,-274 2818.5,-274 2818.5,-310"/>
</g>
<!-- 2892505305680 -->
<g id="node36" class="node">
<title>2892505305680</title>
<ellipse fill="white" stroke="black" cx="2885.5" cy="-292" rx="27" ry="27"/>
<ellipse fill="none" stroke="black" cx="2885.5" cy="-292" rx="31" ry="31"/>
<text text-anchor="start" x="2869" y="-276.6" font-family="Times New Roman,serif" font-size="32.00">■</text>
</g>
<!-- 2892507845200&#45;&gt;2892505305680 -->
<g id="edge26" class="edge">
<title>2892507845200&#45;&gt;2892505305680</title>
<path fill="none" stroke="black" d="M2818.62,-292C2826.13,-292 2834.51,-292 2842.72,-292"/>
<polygon fill="black" stroke="black" points="2842.58,-295.5 2852.58,-292 2842.58,-288.5 2842.58,-295.5"/>
</g>
<!-- 2892510388560 -->
<g id="node12" class="node">
<title>2892510388560</title>
<polygon fill="white" stroke="black" points="1742,-291 1639,-291 1639,-255 1742,-255 1742,-291"/>
<text text-anchor="middle" x="1690.5" y="-267.98" font-family="Times New Roman,serif" font-size="12.00">Audit Compliance</text>
</g>
<!-- 2892510390240 -->
<g id="node35" class="node">
<title>2892510390240</title>
<ellipse fill="white" stroke="black" cx="1805" cy="-279" rx="27" ry="27"/>
</g>
<!-- 2892510388560&#45;&gt;2892510390240 -->
<g id="edge24" class="edge">
<title>2892510388560&#45;&gt;2892510390240</title>
<path fill="none" stroke="black" d="M1742.48,-275.72C1750.5,-276.15 1758.65,-276.58 1766.29,-276.99"/>
<polygon fill="black" stroke="black" points="1766.1,-280.48 1776.27,-277.52 1766.47,-273.49 1766.1,-280.48"/>
</g>
<!-- 2892510431616 -->
<g id="node13" class="node">
<title>2892510431616</title>
<polygon fill="white" stroke="black" points="1978.5,-45 1868,-45 1868,-9 1978.5,-9 1978.5,-45"/>
<text text-anchor="middle" x="1923.25" y="-21.98" font-family="Times New Roman,serif" font-size="12.00">Notify Stakeholders</text>
</g>
<!-- 2892510435840 -->
<g id="node38" class="node">
<title>2892510435840</title>
<ellipse fill="white" stroke="black" cx="2041.5" cy="-27" rx="27" ry="27"/>
</g>
<!-- 2892510431616&#45;&gt;2892510435840 -->
<g id="edge33" class="edge">
<title>2892510431616&#45;&gt;2892510435840</title>
<path fill="none" stroke="black" d="M1978.97,-27C1987.01,-27 1995.14,-27 2002.73,-27"/>
<polygon fill="black" stroke="black" points="2002.63,-30.5 2012.63,-27 2002.63,-23.5 2002.63,-30.5"/>
</g>
<!-- 2892510390816 -->
<g id="node14" class="node">
<title>2892510390816</title>
<polygon fill="white" stroke="black" points="2197.75,-292 2107.5,-292 2107.5,-256 2197.75,-256 2197.75,-292"/>
<text text-anchor="middle" x="2152.62" y="-268.98" font-family="Times New Roman,serif" font-size="12.00">Update License</text>
</g>
<!-- 2892508968624 -->
<g id="node39" class="node">
<title>2892508968624</title>
<ellipse fill="white" stroke="black" cx="2263.75" cy="-217" rx="27" ry="27"/>
</g>
<!-- 2892510390816&#45;&gt;2892508968624 -->
<g id="edge31" class="edge">
<title>2892510390816&#45;&gt;2892508968624</title>
<path fill="none" stroke="black" d="M2188.75,-255.65C2201.83,-248.82 2216.62,-241.09 2229.52,-234.36"/>
<polygon fill="black" stroke="black" points="2230.81,-237.63 2238.05,-229.9 2227.57,-231.43 2230.81,-237.63"/>
</g>
<!-- 2892510393408 -->
<g id="node15" class="node">
<title>2892510393408</title>
<polygon fill="white" stroke="black" points="1974.75,-231 1871.75,-231 1871.75,-195 1974.75,-195 1974.75,-231"/>
<text text-anchor="middle" x="1923.25" y="-207.97" font-family="Times New Roman,serif" font-size="12.00">Audit Compliance</text>
</g>
<!-- 2892510393984 -->
<g id="node37" class="node">
<title>2892510393984</title>
<ellipse fill="white" stroke="black" cx="2041.5" cy="-217" rx="27" ry="27"/>
</g>
<!-- 2892510393408&#45;&gt;2892510393984 -->
<g id="edge34" class="edge">
<title>2892510393408&#45;&gt;2892510393984</title>
<path fill="none" stroke="black" d="M1975.24,-214.75C1984.47,-215.07 1993.94,-215.4 2002.7,-215.7"/>
<polygon fill="black" stroke="black" points="2002.5,-219.19 2012.62,-216.04 2002.74,-212.2 2002.5,-219.19"/>
</g>
<!-- 2892510430800 -->
<g id="node16" class="node">
<title>2892510430800</title>
<polygon fill="white" stroke="black" points="1972.5,-117 1874,-117 1874,-81 1972.5,-81 1972.5,-117"/>
<text text-anchor="middle" x="1923.25" y="-93.97" font-family="Times New Roman,serif" font-size="12.00">Generate Reports</text>
</g>
<!-- 2892510435504 -->
<g id="node40" class="node">
<title>2892510435504</title>
<ellipse fill="white" stroke="black" cx="2041.5" cy="-99" rx="27" ry="27"/>
</g>
<!-- 2892510430800&#45;&gt;2892510435504 -->
<g id="edge32" class="edge">
<title>2892510430800&#45;&gt;2892510435504</title>
<path fill="none" stroke="black" d="M1972.88,-99C1982.96,-99 1993.44,-99 2003.05,-99"/>
<polygon fill="black" stroke="black" points="2002.74,-102.5 2012.74,-99 2002.74,-95.5 2002.74,-102.5"/>
</g>
<!-- 2892504653872 -->
<g id="node17" class="node">
<title>2892504653872</title>
<polygon fill="black" stroke="black" points="2404.5,-221 2350.5,-221 2350.5,-185 2404.5,-185 2404.5,-221"/>
</g>
<!-- 2892504653872&#45;&gt;2892504656800 -->
<g id="edge39" class="edge">
<title>2892504653872&#45;&gt;2892504656800</title>
<path fill="none" stroke="black" d="M2350.03,-194.9C2308.58,-182.95 2225.62,-162 2153.62,-162 1575,-162 1575,-162 1575,-162 1505.51,-162 1424.47,-164.22 1378.15,-165.7"/>
<polygon fill="black" stroke="black" points="1378.26,-162.2 1368.38,-166.02 1378.49,-169.19 1378.26,-162.2"/>
</g>
<!-- 2892510432432 -->
<g id="node18" class="node">
<title>2892510432432</title>
<polygon fill="white" stroke="black" points="2200.75,-117 2104.5,-117 2104.5,-81 2200.75,-81 2200.75,-117"/>
<text text-anchor="middle" x="2152.62" y="-93.97" font-family="Times New Roman,serif" font-size="12.00">Archive Records</text>
</g>
<!-- 2892510432672 -->
<g id="node41" class="node">
<title>2892510432672</title>
<ellipse fill="white" stroke="black" cx="2263.75" cy="-103" rx="27" ry="27"/>
</g>
<!-- 2892510432432&#45;&gt;2892510432672 -->
<g id="edge41" class="edge">
<title>2892510432432&#45;&gt;2892510432672</title>
<path fill="none" stroke="black" d="M2201.17,-100.74C2209.09,-101.03 2217.2,-101.33 2224.84,-101.61"/>
<polygon fill="black" stroke="black" points="2224.71,-105.11 2234.83,-101.98 2224.96,-98.11 2224.71,-105.11"/>
</g>
<!-- 2892510394560 -->
<g id="node19" class="node">
<title>2892510394560</title>
<polygon fill="white" stroke="black" points="2197.75,-235 2107.5,-235 2107.5,-199 2197.75,-199 2197.75,-235"/>
<text text-anchor="middle" x="2152.62" y="-211.97" font-family="Times New Roman,serif" font-size="12.00">Update License</text>
</g>
<!-- 2892510394560&#45;&gt;2892508968624 -->
<g id="edge40" class="edge">
<title>2892510394560&#45;&gt;2892508968624</title>
<path fill="none" stroke="black" d="M2198.01,-217C2206.94,-217 2216.24,-217 2224.91,-217"/>
<polygon fill="black" stroke="black" points="2224.75,-220.5 2234.75,-217 2224.75,-213.5 2224.75,-220.5"/>
</g>
<!-- 2892510433248 -->
<g id="node20" class="node">
<title>2892510433248</title>
<polygon fill="white" stroke="black" points="2428.25,-139 2326.75,-139 2326.75,-103 2428.25,-103 2428.25,-139"/>
<text text-anchor="middle" x="2377.5" y="-115.97" font-family="Times New Roman,serif" font-size="12.00">Review Feedback</text>
</g>
<!-- 2892510433824 -->
<g id="node42" class="node">
<title>2892510433824</title>
<ellipse fill="white" stroke="black" cx="2491.25" cy="-178" rx="27" ry="27"/>
</g>
<!-- 2892510433248&#45;&gt;2892510433824 -->
<g id="edge43" class="edge">
<title>2892510433248&#45;&gt;2892510433824</title>
<path fill="none" stroke="black" d="M2414.47,-139.35C2427.97,-146.23 2443.24,-154.02 2456.52,-160.8"/>
<polygon fill="black" stroke="black" points="2454.83,-163.86 2465.33,-165.29 2458.01,-157.63 2454.83,-163.86"/>
</g>
<!-- 2892510344400 -->
<g id="node21" class="node">
<title>2892510344400</title>
<polygon fill="white" stroke="black" points="2638.5,-254 2554.25,-254 2554.25,-218 2638.5,-218 2638.5,-254"/>
<text text-anchor="middle" x="2596.38" y="-230.97" font-family="Times New Roman,serif" font-size="12.00">Adjust Pricing</text>
</g>
<!-- 2892510433488 -->
<g id="node43" class="node">
<title>2892510433488</title>
<ellipse fill="white" stroke="black" cx="2701.5" cy="-265" rx="27" ry="27"/>
</g>
<!-- 2892510344400&#45;&gt;2892510433488 -->
<g id="edge45" class="edge">
<title>2892510344400&#45;&gt;2892510433488</title>
<path fill="none" stroke="black" d="M2638.73,-247.63C2647.2,-250.01 2656.06,-252.5 2664.34,-254.83"/>
<polygon fill="black" stroke="black" points="2663.14,-258.13 2673.71,-257.47 2665.03,-251.39 2663.14,-258.13"/>
</g>
<!-- 2892509467072 -->
<g id="node22" class="node">
<title>2892509467072</title>
<ellipse fill="white" stroke="black" cx="27" cy="-131" rx="27" ry="27"/>
<text text-anchor="start" x="9.75" y="-113.7" font-family="Times New Roman,serif" font-size="34.00">●</text>
</g>
<!-- 2892509467072&#45;&gt;2892509258832 -->
<g id="edge1" class="edge">
<title>2892509467072&#45;&gt;2892509258832</title>
<path fill="none" stroke="black" d="M54.31,-131C61.62,-131 69.88,-131 78.31,-131"/>
<polygon fill="black" stroke="black" points="78.31,-134.5 88.31,-131 78.31,-127.5 78.31,-134.5"/>
</g>
<!-- 2892509259360&#45;&gt;2892509259552 -->
<g id="edge3" class="edge">
<title>2892509259360&#45;&gt;2892509259552</title>
<path fill="none" stroke="black" d="M280.34,-131C287.75,-131 296.07,-131 304.4,-131"/>
<polygon fill="black" stroke="black" points="304.17,-134.5 314.17,-131 304.17,-127.5 304.17,-134.5"/>
</g>
<!-- 2892509258880&#45;&gt;2892509569792 -->
<g id="edge5" class="edge">
<title>2892509258880&#45;&gt;2892509569792</title>
<path fill="none" stroke="black" d="M486.73,-131C494.06,-131 502.32,-131 510.7,-131"/>
<polygon fill="black" stroke="black" points="510.63,-134.5 520.63,-131 510.63,-127.5 510.63,-134.5"/>
</g>
<!-- 2892509700960&#45;&gt;2892509702064 -->
<g id="edge7" class="edge">
<title>2892509700960&#45;&gt;2892509702064</title>
<path fill="none" stroke="black" d="M707.57,-131C714.9,-131 723.18,-131 731.6,-131"/>
<polygon fill="black" stroke="black" points="731.58,-134.5 741.58,-131 731.58,-127.5 731.58,-134.5"/>
</g>
<!-- 2892509701488&#45;&gt;2892509120800 -->
<g id="edge9" class="edge">
<title>2892509701488&#45;&gt;2892509120800</title>
<path fill="none" stroke="black" d="M931.48,-131C938.76,-131 946.97,-131 955.34,-131"/>
<polygon fill="black" stroke="black" points="955.28,-134.5 965.28,-131 955.28,-127.5 955.28,-134.5"/>
</g>
<!-- 2892509121664&#45;&gt;2892509122288 -->
<g id="edge11" class="edge">
<title>2892509121664&#45;&gt;2892509122288</title>
<path fill="none" stroke="black" d="M1158.77,-131C1166.15,-131 1174.45,-131 1182.78,-131"/>
<polygon fill="black" stroke="black" points="1182.55,-134.5 1192.55,-131 1182.55,-127.5 1182.55,-134.5"/>
</g>
<!-- 2892504656800&#45;&gt;2892507850288 -->
<g id="edge14" class="edge">
<title>2892504656800&#45;&gt;2892507850288</title>
<path fill="none" stroke="black" d="M1364.87,-176.85C1376.22,-181.44 1390.21,-187.1 1403.81,-192.6"/>
<polygon fill="black" stroke="black" points="1402.1,-195.68 1412.68,-196.18 1404.72,-189.19 1402.1,-195.68"/>
</g>
<!-- 2892510395760&#45;&gt;2892510396336 -->
<g id="edge15" class="edge">
<title>2892510395760&#45;&gt;2892510396336</title>
<path fill="none" stroke="black" d="M1366.88,-95C1374.24,-95 1382.58,-95 1391.14,-95"/>
<polygon fill="black" stroke="black" points="1390.94,-98.5 1400.94,-95 1390.94,-91.5 1390.94,-98.5"/>
</g>
<!-- 2892508970016&#45;&gt;2892510392592 -->
<g id="edge20" class="edge">
<title>2892508970016&#45;&gt;2892510392592</title>
<path fill="none" stroke="black" d="M1603.38,-219.06C1611.32,-218.78 1620.38,-218.46 1629.57,-218.13"/>
<polygon fill="black" stroke="black" points="1629.4,-221.64 1639.27,-217.79 1629.15,-214.64 1629.4,-221.64"/>
</g>
<!-- 2892508970016&#45;&gt;2892507845200 -->
<g id="edge18" class="edge">
<title>2892508970016&#45;&gt;2892507845200</title>
<path fill="none" stroke="black" d="M1589.23,-243.73C1599.89,-261.99 1617.08,-286.34 1639,-300 1702.54,-339.6 1729.13,-334 1804,-334 1804,-334 1804,-334 2597.38,-334 2652.65,-334 2714.84,-317.37 2753.35,-305.04"/>
<polygon fill="black" stroke="black" points="2754.18,-308.45 2762.59,-302 2752,-301.8 2754.18,-308.45"/>
</g>
<!-- 2892508970016&#45;&gt;2892510388560 -->
<g id="edge21" class="edge">
<title>2892508970016&#45;&gt;2892510388560</title>
<path fill="none" stroke="black" d="M1600.86,-231.24C1612.37,-236.66 1626.63,-243.38 1640.32,-249.83"/>
<polygon fill="black" stroke="black" points="1638.72,-252.95 1649.26,-254.04 1641.7,-246.61 1638.72,-252.95"/>
</g>
<!-- 2892510429408&#45;&gt;2892510429984 -->
<g id="edge19" class="edge">
<title>2892510429408&#45;&gt;2892510429984</title>
<path fill="none" stroke="black" d="M1603.38,-95C1611.05,-95 1619.76,-95 1628.63,-95"/>
<polygon fill="black" stroke="black" points="1628.37,-98.5 1638.37,-95 1628.37,-91.5 1628.37,-98.5"/>
</g>
<!-- 2892510392832&#45;&gt;2892510393408 -->
<g id="edge27" class="edge">
<title>2892510392832&#45;&gt;2892510393408</title>
<path fill="none" stroke="black" d="M1832.38,-208.36C1840.85,-208.8 1850.61,-209.3 1860.52,-209.81"/>
<polygon fill="black" stroke="black" points="1860.02,-213.29 1870.19,-210.31 1860.38,-206.3 1860.02,-213.29"/>
</g>
<!-- 2892510430224&#45;&gt;2892510430800 -->
<g id="edge28" class="edge">
<title>2892510430224&#45;&gt;2892510430800</title>
<path fill="none" stroke="black" d="M1832.38,-99C1841.33,-99 1851.74,-99 1862.22,-99"/>
<polygon fill="black" stroke="black" points="1862.05,-102.5 1872.05,-99 1862.05,-95.5 1862.05,-102.5"/>
</g>
<!-- 2892510431040&#45;&gt;2892510431616 -->
<g id="edge29" class="edge">
<title>2892510431040&#45;&gt;2892510431616</title>
<path fill="none" stroke="black" d="M1832.38,-27C1839.74,-27 1848.08,-27 1856.64,-27"/>
<polygon fill="black" stroke="black" points="1856.44,-30.5 1866.44,-27 1856.44,-23.5 1856.44,-30.5"/>
</g>
<!-- 2892510390240&#45;&gt;2892510390816 -->
<g id="edge30" class="edge">
<title>2892510390240&#45;&gt;2892510390816</title>
<path fill="none" stroke="black" d="M1832.26,-278.62C1888.23,-277.81 2020.29,-275.9 2095.9,-274.81"/>
<polygon fill="black" stroke="black" points="2095.62,-278.31 2105.56,-274.67 2095.51,-271.31 2095.62,-278.31"/>
</g>
<!-- 2892510393984&#45;&gt;2892510394560 -->
<g id="edge36" class="edge">
<title>2892510393984&#45;&gt;2892510394560</title>
<path fill="none" stroke="black" d="M2068.92,-217C2077.08,-217 2086.4,-217 2095.77,-217"/>
<polygon fill="black" stroke="black" points="2095.63,-220.5 2105.63,-217 2095.63,-213.5 2095.63,-220.5"/>
</g>
<!-- 2892510435840&#45;&gt;2892510432432 -->
<g id="edge38" class="edge">
<title>2892510435840&#45;&gt;2892510432432</title>
<path fill="none" stroke="black" d="M2064.58,-41.57C2078.85,-50.98 2097.77,-63.47 2114.33,-74.39"/>
<polygon fill="black" stroke="black" points="2112.21,-77.19 2122.49,-79.77 2116.07,-71.34 2112.21,-77.19"/>
</g>
<!-- 2892508968624&#45;&gt;2892504653872 -->
<g id="edge35" class="edge">
<title>2892508968624&#45;&gt;2892504653872</title>
<path fill="none" stroke="black" d="M2290.95,-213.72C2305.28,-211.92 2323.27,-209.67 2339.06,-207.69"/>
<polygon fill="black" stroke="black" points="2339.09,-211.21 2348.57,-206.5 2338.22,-204.27 2339.09,-211.21"/>
</g>
<!-- 2892510435504&#45;&gt;2892510432432 -->
<g id="edge37" class="edge">
<title>2892510435504&#45;&gt;2892510432432</title>
<path fill="none" stroke="black" d="M2068.92,-99C2076.2,-99 2084.41,-99 2092.75,-99"/>
<polygon fill="black" stroke="black" points="2092.62,-102.5 2102.62,-99 2092.62,-95.5 2092.62,-102.5"/>
</g>
<!-- 2892510432672&#45;&gt;2892510433248 -->
<g id="edge42" class="edge">
<title>2892510432672&#45;&gt;2892510433248</title>
<path fill="none" stroke="black" d="M2290.67,-107.17C2298.11,-108.37 2306.56,-109.73 2315.18,-111.12"/>
<polygon fill="black" stroke="black" points="2314.63,-114.58 2325.05,-112.71 2315.74,-107.67 2314.63,-114.58"/>
</g>
<!-- 2892510433824&#45;&gt;2892510344400 -->
<g id="edge44" class="edge">
<title>2892510433824&#45;&gt;2892510344400</title>
<path fill="none" stroke="black" d="M2515.39,-191.02C2526.36,-197.18 2539.82,-204.75 2552.54,-211.91"/>
<polygon fill="black" stroke="black" points="2550.78,-214.93 2561.21,-216.79 2554.21,-208.83 2550.78,-214.93"/>
</g>
<!-- 2892510433488&#45;&gt;2892507845200 -->
<g id="edge46" class="edge">
<title>2892510433488&#45;&gt;2892507845200</title>
<path fill="none" stroke="black" d="M2727.48,-272.66C2735.56,-275.14 2744.69,-277.94 2753.45,-280.63"/>
<polygon fill="black" stroke="black" points="2752.19,-283.91 2762.78,-283.5 2754.25,-277.22 2752.19,-283.91"/>
</g>
</g>
</svg>
