<?xml version="1.0" encoding="UTF-8" standalone="no"?>
<!DOCTYPE svg PUBLIC "-//W3C//DTD SVG 1.1//EN"
 "http://www.w3.org/Graphics/SVG/1.1/DTD/svg11.dtd">
<!-- Generated by graphviz version 11.0.0 (20240428.1522)
 -->
<!-- Title: imdf_net_1754052451.5980213 Pages: 1 -->
<svg width="3340pt" height="70pt"
 viewBox="0.00 0.00 3339.50 70.00" xmlns="http://www.w3.org/2000/svg" xmlns:xlink="http://www.w3.org/1999/xlink">
<g id="graph0" class="graph" transform="scale(1 1) rotate(0) translate(4 66)">
<title>imdf_net_1754052451.5980213</title>
<polygon fill="white" stroke="none" points="-4,4 -4,-66 3335.5,-66 3335.5,4 -4,4"/>
<!-- 1990980997232 -->
<g id="node1" class="node">
<title>1990980997232</title>
<polygon fill="white" stroke="black" points="160.75,-49 90,-49 90,-13 160.75,-13 160.75,-49"/>
<text text-anchor="middle" x="125.38" y="-25.98" font-family="Times New Roman,serif" font-size="12.00">Seed Select</text>
</g>
<!-- 1990980995168 -->
<g id="node18" class="node">
<title>1990980995168</title>
<ellipse fill="white" stroke="black" cx="223.75" cy="-31" rx="27" ry="27"/>
</g>
<!-- 1990980997232&#45;&gt;1990980995168 -->
<g id="edge2" class="edge">
<title>1990980997232&#45;&gt;1990980995168</title>
<path fill="none" stroke="black" d="M161.17,-31C168.9,-31 177.14,-31 184.98,-31"/>
<polygon fill="black" stroke="black" points="184.97,-34.5 194.97,-31 184.97,-27.5 184.97,-34.5"/>
</g>
<!-- 1990980997088 -->
<g id="node2" class="node">
<title>1990980997088</title>
<polygon fill="white" stroke="black" points="364.25,-49 286.75,-49 286.75,-13 364.25,-13 364.25,-49"/>
<text text-anchor="middle" x="325.5" y="-25.98" font-family="Times New Roman,serif" font-size="12.00">Nutrient Mix</text>
</g>
<!-- 1990980993584 -->
<g id="node19" class="node">
<title>1990980993584</title>
<ellipse fill="white" stroke="black" cx="427.25" cy="-31" rx="27" ry="27"/>
</g>
<!-- 1990980997088&#45;&gt;1990980993584 -->
<g id="edge4" class="edge">
<title>1990980997088&#45;&gt;1990980993584</title>
<path fill="none" stroke="black" d="M364.5,-31C372.32,-31 380.56,-31 388.38,-31"/>
<polygon fill="black" stroke="black" points="388.3,-34.5 398.3,-31 388.3,-27.5 388.3,-34.5"/>
</g>
<!-- 1990980996080 -->
<g id="node3" class="node">
<title>1990980996080</title>
<polygon fill="white" stroke="black" points="560.25,-49 490.25,-49 490.25,-13 560.25,-13 560.25,-49"/>
<text text-anchor="middle" x="525.25" y="-25.98" font-family="Times New Roman,serif" font-size="12.00">Plant Setup</text>
</g>
<!-- 1990978536464 -->
<g id="node20" class="node">
<title>1990978536464</title>
<ellipse fill="white" stroke="black" cx="623.25" cy="-31" rx="27" ry="27"/>
</g>
<!-- 1990980996080&#45;&gt;1990978536464 -->
<g id="edge6" class="edge">
<title>1990980996080&#45;&gt;1990978536464</title>
<path fill="none" stroke="black" d="M560.64,-31C568.35,-31 576.58,-31 584.43,-31"/>
<polygon fill="black" stroke="black" points="584.42,-34.5 594.42,-31 584.42,-27.5 584.42,-34.5"/>
</g>
<!-- 1990981717984 -->
<g id="node4" class="node">
<title>1990981717984</title>
<polygon fill="white" stroke="black" points="756.25,-49 686.25,-49 686.25,-13 756.25,-13 756.25,-49"/>
<text text-anchor="middle" x="721.25" y="-25.98" font-family="Times New Roman,serif" font-size="12.00">AI Monitor</text>
</g>
<!-- 1990976892048 -->
<g id="node21" class="node">
<title>1990976892048</title>
<ellipse fill="white" stroke="black" cx="819.25" cy="-31" rx="27" ry="27"/>
</g>
<!-- 1990981717984&#45;&gt;1990976892048 -->
<g id="edge8" class="edge">
<title>1990981717984&#45;&gt;1990976892048</title>
<path fill="none" stroke="black" d="M756.64,-31C764.35,-31 772.58,-31 780.43,-31"/>
<polygon fill="black" stroke="black" points="780.42,-34.5 790.42,-31 780.42,-27.5 780.42,-34.5"/>
</g>
<!-- 1990976890512 -->
<g id="node5" class="node">
<title>1990976890512</title>
<polygon fill="white" stroke="black" points="952.25,-49 882.25,-49 882.25,-13 952.25,-13 952.25,-49"/>
<text text-anchor="middle" x="917.25" y="-25.98" font-family="Times New Roman,serif" font-size="12.00">Env Adjust</text>
</g>
<!-- 1990976884800 -->
<g id="node22" class="node">
<title>1990976884800</title>
<ellipse fill="white" stroke="black" cx="1015.25" cy="-31" rx="27" ry="27"/>
</g>
<!-- 1990976890512&#45;&gt;1990976884800 -->
<g id="edge10" class="edge">
<title>1990976890512&#45;&gt;1990976884800</title>
<path fill="none" stroke="black" d="M952.64,-31C960.35,-31 968.58,-31 976.43,-31"/>
<polygon fill="black" stroke="black" points="976.42,-34.5 986.42,-31 976.42,-27.5 976.42,-34.5"/>
</g>
<!-- 1990976889696 -->
<g id="node6" class="node">
<title>1990976889696</title>
<polygon fill="white" stroke="black" points="1147.5,-49 1078.25,-49 1078.25,-13 1147.5,-13 1147.5,-49"/>
<text text-anchor="middle" x="1112.88" y="-25.98" font-family="Times New Roman,serif" font-size="12.00">Pest Detect</text>
</g>
<!-- 1990976885184 -->
<g id="node23" class="node">
<title>1990976885184</title>
<ellipse fill="white" stroke="black" cx="1210.5" cy="-31" rx="27" ry="27"/>
</g>
<!-- 1990976889696&#45;&gt;1990976885184 -->
<g id="edge12" class="edge">
<title>1990976889696&#45;&gt;1990976885184</title>
<path fill="none" stroke="black" d="M1147.86,-31C1155.56,-31 1163.78,-31 1171.63,-31"/>
<polygon fill="black" stroke="black" points="1171.63,-34.5 1181.63,-31 1171.63,-27.5 1171.63,-34.5"/>
</g>
<!-- 1990976895744 -->
<g id="node7" class="node">
<title>1990976895744</title>
<polygon fill="white" stroke="black" points="1345.75,-49 1273.5,-49 1273.5,-13 1345.75,-13 1345.75,-49"/>
<text text-anchor="middle" x="1309.62" y="-25.98" font-family="Times New Roman,serif" font-size="12.00">Bio Control</text>
</g>
<!-- 1990976886288 -->
<g id="node24" class="node">
<title>1990976886288</title>
<ellipse fill="white" stroke="black" cx="1408.75" cy="-31" rx="27" ry="27"/>
</g>
<!-- 1990976895744&#45;&gt;1990976886288 -->
<g id="edge14" class="edge">
<title>1990976895744&#45;&gt;1990976886288</title>
<path fill="none" stroke="black" d="M1346.24,-31C1353.93,-31 1362.09,-31 1369.87,-31"/>
<polygon fill="black" stroke="black" points="1369.75,-34.5 1379.75,-31 1369.75,-27.5 1369.75,-34.5"/>
</g>
<!-- 1990976881968 -->
<g id="node8" class="node">
<title>1990976881968</title>
<polygon fill="white" stroke="black" points="1554.5,-49 1471.75,-49 1471.75,-13 1554.5,-13 1554.5,-49"/>
<text text-anchor="middle" x="1513.12" y="-25.98" font-family="Times New Roman,serif" font-size="12.00">Growth Audit</text>
</g>
<!-- 1990976885136 -->
<g id="node25" class="node">
<title>1990976885136</title>
<ellipse fill="white" stroke="black" cx="1617.5" cy="-31" rx="27" ry="27"/>
</g>
<!-- 1990976881968&#45;&gt;1990976885136 -->
<g id="edge16" class="edge">
<title>1990976881968&#45;&gt;1990976885136</title>
<path fill="none" stroke="black" d="M1554.88,-31C1562.73,-31 1570.92,-31 1578.67,-31"/>
<polygon fill="black" stroke="black" points="1578.49,-34.5 1588.49,-31 1578.49,-27.5 1578.49,-34.5"/>
</g>
<!-- 1990976889168 -->
<g id="node9" class="node">
<title>1990976889168</title>
<polygon fill="white" stroke="black" points="1764,-49 1680.5,-49 1680.5,-13 1764,-13 1764,-49"/>
<text text-anchor="middle" x="1722.25" y="-25.98" font-family="Times New Roman,serif" font-size="12.00">Demand Sync</text>
</g>
<!-- 1990976885328 -->
<g id="node26" class="node">
<title>1990976885328</title>
<ellipse fill="white" stroke="black" cx="1827" cy="-31" rx="27" ry="27"/>
</g>
<!-- 1990976889168&#45;&gt;1990976885328 -->
<g id="edge18" class="edge">
<title>1990976889168&#45;&gt;1990976885328</title>
<path fill="none" stroke="black" d="M1764.45,-31C1772.31,-31 1780.5,-31 1788.25,-31"/>
<polygon fill="black" stroke="black" points="1788.05,-34.5 1798.05,-31 1788.05,-27.5 1788.05,-34.5"/>
</g>
<!-- 1990976888256 -->
<g id="node10" class="node">
<title>1990976888256</title>
<polygon fill="white" stroke="black" points="1966.75,-49 1890,-49 1890,-13 1966.75,-13 1966.75,-49"/>
<text text-anchor="middle" x="1928.38" y="-25.98" font-family="Times New Roman,serif" font-size="12.00">Harvest Plan</text>
</g>
<!-- 1990976895408 -->
<g id="node27" class="node">
<title>1990976895408</title>
<ellipse fill="white" stroke="black" cx="2029.75" cy="-31" rx="27" ry="27"/>
</g>
<!-- 1990976888256&#45;&gt;1990976895408 -->
<g id="edge20" class="edge">
<title>1990976888256&#45;&gt;1990976895408</title>
<path fill="none" stroke="black" d="M1967.23,-31C1975.02,-31 1983.23,-31 1991.02,-31"/>
<polygon fill="black" stroke="black" points="1990.9,-34.5 2000.9,-31 1990.9,-27.5 1990.9,-34.5"/>
</g>
<!-- 1990976890080 -->
<g id="node11" class="node">
<title>1990976890080</title>
<polygon fill="white" stroke="black" points="2177.75,-49 2092.75,-49 2092.75,-13 2177.75,-13 2177.75,-49"/>
<text text-anchor="middle" x="2135.25" y="-25.98" font-family="Times New Roman,serif" font-size="12.00">Quality Check</text>
</g>
<!-- 1990976891328 -->
<g id="node28" class="node">
<title>1990976891328</title>
<ellipse fill="white" stroke="black" cx="2240.75" cy="-31" rx="27" ry="27"/>
</g>
<!-- 1990976890080&#45;&gt;1990976891328 -->
<g id="edge22" class="edge">
<title>1990976890080&#45;&gt;1990976891328</title>
<path fill="none" stroke="black" d="M2178.05,-31C2185.95,-31 2194.17,-31 2201.93,-31"/>
<polygon fill="black" stroke="black" points="2201.76,-34.5 2211.76,-31 2201.76,-27.5 2201.76,-34.5"/>
</g>
<!-- 1990976882736 -->
<g id="node12" class="node">
<title>1990976882736</title>
<polygon fill="white" stroke="black" points="2381.25,-49 2303.75,-49 2303.75,-13 2381.25,-13 2381.25,-49"/>
<text text-anchor="middle" x="2342.5" y="-25.98" font-family="Times New Roman,serif" font-size="12.00">Eco Package</text>
</g>
<!-- 1990976883840 -->
<g id="node29" class="node">
<title>1990976883840</title>
<ellipse fill="white" stroke="black" cx="2444.25" cy="-31" rx="27" ry="27"/>
</g>
<!-- 1990976882736&#45;&gt;1990976883840 -->
<g id="edge24" class="edge">
<title>1990976882736&#45;&gt;1990976883840</title>
<path fill="none" stroke="black" d="M2381.5,-31C2389.32,-31 2397.56,-31 2405.38,-31"/>
<polygon fill="black" stroke="black" points="2405.3,-34.5 2415.3,-31 2405.3,-27.5 2405.3,-34.5"/>
</g>
<!-- 1990976891904 -->
<g id="node13" class="node">
<title>1990976891904</title>
<polygon fill="white" stroke="black" points="2585.5,-49 2507.25,-49 2507.25,-13 2585.5,-13 2585.5,-49"/>
<text text-anchor="middle" x="2546.38" y="-25.98" font-family="Times New Roman,serif" font-size="12.00">Data Review</text>
</g>
<!-- 1990976885856 -->
<g id="node30" class="node">
<title>1990976885856</title>
<ellipse fill="white" stroke="black" cx="2648.5" cy="-31" rx="27" ry="27"/>
</g>
<!-- 1990976891904&#45;&gt;1990976885856 -->
<g id="edge26" class="edge">
<title>1990976891904&#45;&gt;1990976885856</title>
<path fill="none" stroke="black" d="M2585.8,-31C2593.64,-31 2601.88,-31 2609.69,-31"/>
<polygon fill="black" stroke="black" points="2609.61,-34.5 2619.61,-31 2609.61,-27.5 2609.61,-34.5"/>
</g>
<!-- 1990976891280 -->
<g id="node14" class="node">
<title>1990976891280</title>
<polygon fill="white" stroke="black" points="2794.25,-49 2711.5,-49 2711.5,-13 2794.25,-13 2794.25,-49"/>
<text text-anchor="middle" x="2752.88" y="-25.98" font-family="Times New Roman,serif" font-size="12.00">Crop Forecast</text>
</g>
<!-- 1990979663392 -->
<g id="node31" class="node">
<title>1990979663392</title>
<ellipse fill="white" stroke="black" cx="2857.25" cy="-31" rx="27" ry="27"/>
</g>
<!-- 1990976891280&#45;&gt;1990979663392 -->
<g id="edge28" class="edge">
<title>1990976891280&#45;&gt;1990979663392</title>
<path fill="none" stroke="black" d="M2794.63,-31C2802.48,-31 2810.67,-31 2818.42,-31"/>
<polygon fill="black" stroke="black" points="2818.24,-34.5 2828.24,-31 2818.24,-27.5 2818.24,-34.5"/>
</g>
<!-- 1990979654992 -->
<g id="node15" class="node">
<title>1990979654992</title>
<polygon fill="white" stroke="black" points="3021,-49 2920.25,-49 2920.25,-13 3021,-13 3021,-49"/>
<text text-anchor="middle" x="2970.62" y="-25.98" font-family="Times New Roman,serif" font-size="12.00">Community Train</text>
</g>
<!-- 1990979653696 -->
<g id="node32" class="node">
<title>1990979653696</title>
<ellipse fill="white" stroke="black" cx="3084" cy="-31" rx="27" ry="27"/>
</g>
<!-- 1990979654992&#45;&gt;1990979653696 -->
<g id="edge30" class="edge">
<title>1990979654992&#45;&gt;1990979653696</title>
<path fill="none" stroke="black" d="M3021.45,-31C3029.43,-31 3037.58,-31 3045.22,-31"/>
<polygon fill="black" stroke="black" points="3045.2,-34.5 3055.2,-31 3045.2,-27.5 3045.2,-34.5"/>
</g>
<!-- 1990979657440 -->
<g id="node16" class="node">
<title>1990979657440</title>
<polygon fill="white" stroke="black" points="3233.5,-49 3147,-49 3147,-13 3233.5,-13 3233.5,-49"/>
<text text-anchor="middle" x="3190.25" y="-25.98" font-family="Times New Roman,serif" font-size="12.00">Waste Manage</text>
</g>
<!-- 1990976835312 -->
<g id="node33" class="node">
<title>1990976835312</title>
<ellipse fill="white" stroke="black" cx="3300.5" cy="-31" rx="27" ry="27"/>
<ellipse fill="none" stroke="black" cx="3300.5" cy="-31" rx="31" ry="31"/>
<text text-anchor="start" x="3284" y="-15.6" font-family="Times New Roman,serif" font-size="32.00">■</text>
</g>
<!-- 1990979657440&#45;&gt;1990976835312 -->
<g id="edge32" class="edge">
<title>1990979657440&#45;&gt;1990976835312</title>
<path fill="none" stroke="black" d="M3233.72,-31C3241.68,-31 3249.99,-31 3257.93,-31"/>
<polygon fill="black" stroke="black" points="3257.68,-34.5 3267.68,-31 3257.68,-27.5 3257.68,-34.5"/>
</g>
<!-- 1990976844864 -->
<g id="node17" class="node">
<title>1990976844864</title>
<ellipse fill="white" stroke="black" cx="27" cy="-31" rx="27" ry="27"/>
<text text-anchor="start" x="9.75" y="-13.7" font-family="Times New Roman,serif" font-size="34.00">●</text>
</g>
<!-- 1990976844864&#45;&gt;1990980997232 -->
<g id="edge1" class="edge">
<title>1990976844864&#45;&gt;1990980997232</title>
<path fill="none" stroke="black" d="M54.33,-31C61.76,-31 70.06,-31 78.28,-31"/>
<polygon fill="black" stroke="black" points="78.24,-34.5 88.24,-31 78.24,-27.5 78.24,-34.5"/>
</g>
<!-- 1990980995168&#45;&gt;1990980997088 -->
<g id="edge3" class="edge">
<title>1990980995168&#45;&gt;1990980997088</title>
<path fill="none" stroke="black" d="M251.22,-31C258.52,-31 266.68,-31 274.83,-31"/>
<polygon fill="black" stroke="black" points="274.75,-34.5 284.75,-31 274.75,-27.5 274.75,-34.5"/>
</g>
<!-- 1990980993584&#45;&gt;1990980996080 -->
<g id="edge5" class="edge">
<title>1990980993584&#45;&gt;1990980996080</title>
<path fill="none" stroke="black" d="M454.74,-31C462.13,-31 470.38,-31 478.55,-31"/>
<polygon fill="black" stroke="black" points="478.42,-34.5 488.42,-31 478.41,-27.5 478.42,-34.5"/>
</g>
<!-- 1990978536464&#45;&gt;1990981717984 -->
<g id="edge7" class="edge">
<title>1990978536464&#45;&gt;1990981717984</title>
<path fill="none" stroke="black" d="M650.74,-31C658.13,-31 666.38,-31 674.55,-31"/>
<polygon fill="black" stroke="black" points="674.42,-34.5 684.42,-31 674.41,-27.5 674.42,-34.5"/>
</g>
<!-- 1990976892048&#45;&gt;1990976890512 -->
<g id="edge9" class="edge">
<title>1990976892048&#45;&gt;1990976890512</title>
<path fill="none" stroke="black" d="M846.74,-31C854.13,-31 862.38,-31 870.55,-31"/>
<polygon fill="black" stroke="black" points="870.42,-34.5 880.42,-31 870.41,-27.5 870.42,-34.5"/>
</g>
<!-- 1990976884800&#45;&gt;1990976889696 -->
<g id="edge11" class="edge">
<title>1990976884800&#45;&gt;1990976889696</title>
<path fill="none" stroke="black" d="M1042.63,-31C1050.07,-31 1058.39,-31 1066.6,-31"/>
<polygon fill="black" stroke="black" points="1066.53,-34.5 1076.53,-31 1066.53,-27.5 1066.53,-34.5"/>
</g>
<!-- 1990976885184&#45;&gt;1990976895744 -->
<g id="edge13" class="edge">
<title>1990976885184&#45;&gt;1990976895744</title>
<path fill="none" stroke="black" d="M1237.78,-31C1245.19,-31 1253.48,-31 1261.71,-31"/>
<polygon fill="black" stroke="black" points="1261.69,-34.5 1271.69,-31 1261.69,-27.5 1261.69,-34.5"/>
</g>
<!-- 1990976886288&#45;&gt;1990976881968 -->
<g id="edge15" class="edge">
<title>1990976886288&#45;&gt;1990976881968</title>
<path fill="none" stroke="black" d="M1436.11,-31C1443.53,-31 1451.86,-31 1460.21,-31"/>
<polygon fill="black" stroke="black" points="1460.02,-34.5 1470.02,-31 1460.02,-27.5 1460.02,-34.5"/>
</g>
<!-- 1990976885136&#45;&gt;1990976889168 -->
<g id="edge17" class="edge">
<title>1990976885136&#45;&gt;1990976889168</title>
<path fill="none" stroke="black" d="M1644.96,-31C1652.32,-31 1660.58,-31 1668.87,-31"/>
<polygon fill="black" stroke="black" points="1668.61,-34.5 1678.61,-31 1668.61,-27.5 1668.61,-34.5"/>
</g>
<!-- 1990976885328&#45;&gt;1990976888256 -->
<g id="edge19" class="edge">
<title>1990976885328&#45;&gt;1990976888256</title>
<path fill="none" stroke="black" d="M1854.37,-31C1861.72,-31 1869.94,-31 1878.15,-31"/>
<polygon fill="black" stroke="black" points="1878.14,-34.5 1888.14,-31 1878.14,-27.5 1878.14,-34.5"/>
</g>
<!-- 1990976895408&#45;&gt;1990976890080 -->
<g id="edge21" class="edge">
<title>1990976895408&#45;&gt;1990976890080</title>
<path fill="none" stroke="black" d="M2057.14,-31C2064.55,-31 2072.88,-31 2081.26,-31"/>
<polygon fill="black" stroke="black" points="2081.11,-34.5 2091.11,-31 2081.11,-27.5 2081.11,-34.5"/>
</g>
<!-- 1990976891328&#45;&gt;1990976882736 -->
<g id="edge23" class="edge">
<title>1990976891328&#45;&gt;1990976882736</title>
<path fill="none" stroke="black" d="M2268.22,-31C2275.52,-31 2283.68,-31 2291.83,-31"/>
<polygon fill="black" stroke="black" points="2291.75,-34.5 2301.75,-31 2291.75,-27.5 2291.75,-34.5"/>
</g>
<!-- 1990976883840&#45;&gt;1990976891904 -->
<g id="edge25" class="edge">
<title>1990976883840&#45;&gt;1990976891904</title>
<path fill="none" stroke="black" d="M2471.56,-31C2478.88,-31 2487.09,-31 2495.3,-31"/>
<polygon fill="black" stroke="black" points="2495.3,-34.5 2505.3,-31 2495.3,-27.5 2495.3,-34.5"/>
</g>
<!-- 1990976885856&#45;&gt;1990976891280 -->
<g id="edge27" class="edge">
<title>1990976885856&#45;&gt;1990976891280</title>
<path fill="none" stroke="black" d="M2675.86,-31C2683.28,-31 2691.61,-31 2699.96,-31"/>
<polygon fill="black" stroke="black" points="2699.77,-34.5 2709.77,-31 2699.77,-27.5 2699.77,-34.5"/>
</g>
<!-- 1990979663392&#45;&gt;1990979654992 -->
<g id="edge29" class="edge">
<title>1990979663392&#45;&gt;1990979654992</title>
<path fill="none" stroke="black" d="M2884.64,-31C2891.9,-31 2900.08,-31 2908.42,-31"/>
<polygon fill="black" stroke="black" points="2908.32,-34.5 2918.32,-31 2908.32,-27.5 2908.32,-34.5"/>
</g>
<!-- 1990979653696&#45;&gt;1990979657440 -->
<g id="edge31" class="edge">
<title>1990979653696&#45;&gt;1990979657440</title>
<path fill="none" stroke="black" d="M3111.31,-31C3118.69,-31 3126.99,-31 3135.36,-31"/>
<polygon fill="black" stroke="black" points="3135.21,-34.5 3145.21,-31 3135.21,-27.5 3135.21,-34.5"/>
</g>
</g>
</svg>
