<?xml version="1.0" encoding="UTF-8" standalone="no"?>
<!DOCTYPE svg PUBLIC "-//W3C//DTD SVG 1.1//EN"
 "http://www.w3.org/Graphics/SVG/1.1/DTD/svg11.dtd">
<!-- Generated by graphviz version 11.0.0 (20240428.1522)
 -->
<!-- Title: imdf_net_1754052460.8252404 Pages: 1 -->
<svg width="2609pt" height="312pt"
 viewBox="0.00 0.00 2608.50 311.91" xmlns="http://www.w3.org/2000/svg" xmlns:xlink="http://www.w3.org/1999/xlink">
<g id="graph0" class="graph" transform="scale(1 1) rotate(0) translate(4 307.91)">
<title>imdf_net_1754052460.8252404</title>
<polygon fill="white" stroke="none" points="-4,4 -4,-307.91 2604.5,-307.91 2604.5,4 -4,4"/>
<!-- 1990975989872 -->
<g id="node1" class="node">
<title>1990975989872</title>
<polygon fill="white" stroke="black" points="169.75,-257 90,-257 90,-221 169.75,-221 169.75,-257"/>
<text text-anchor="middle" x="129.88" y="-233.97" font-family="Times New Roman,serif" font-size="12.00">Nutrient Prep</text>
</g>
<!-- 1990975986224 -->
<g id="node20" class="node">
<title>1990975986224</title>
<ellipse fill="white" stroke="black" cx="232.75" cy="-239" rx="27" ry="27"/>
</g>
<!-- 1990975989872&#45;&gt;1990975986224 -->
<g id="edge2" class="edge">
<title>1990975989872&#45;&gt;1990975986224</title>
<path fill="none" stroke="black" d="M170.16,-239C178.03,-239 186.27,-239 194.07,-239"/>
<polygon fill="black" stroke="black" points="193.97,-242.5 203.97,-239 193.97,-235.5 193.97,-242.5"/>
</g>
<!-- 1990971627072 -->
<g id="node2" class="node">
<title>1990971627072</title>
<polygon fill="white" stroke="black" points="387.5,-257 295.75,-257 295.75,-221 387.5,-221 387.5,-257"/>
<text text-anchor="middle" x="341.62" y="-233.97" font-family="Times New Roman,serif" font-size="12.00">Seed Germinate</text>
</g>
<!-- 1990971621648 -->
<g id="node21" class="node">
<title>1990971621648</title>
<ellipse fill="white" stroke="black" cx="450.5" cy="-239" rx="27" ry="27"/>
</g>
<!-- 1990971627072&#45;&gt;1990971621648 -->
<g id="edge4" class="edge">
<title>1990971627072&#45;&gt;1990971621648</title>
<path fill="none" stroke="black" d="M387.95,-239C395.96,-239 404.22,-239 411.98,-239"/>
<polygon fill="black" stroke="black" points="411.78,-242.5 421.78,-239 411.78,-235.5 411.78,-242.5"/>
</g>
<!-- 1990977978192 -->
<g id="node3" class="node">
<title>1990977978192</title>
<polygon fill="white" stroke="black" points="594,-257 513.5,-257 513.5,-221 594,-221 594,-257"/>
<text text-anchor="middle" x="553.75" y="-233.97" font-family="Times New Roman,serif" font-size="12.00">Light Control</text>
</g>
<!-- 1990978917184 -->
<g id="node22" class="node">
<title>1990978917184</title>
<ellipse fill="white" stroke="black" cx="657" cy="-239" rx="27" ry="27"/>
</g>
<!-- 1990977978192&#45;&gt;1990978917184 -->
<g id="edge6" class="edge">
<title>1990977978192&#45;&gt;1990978917184</title>
<path fill="none" stroke="black" d="M594.48,-239C602.35,-239 610.59,-239 618.39,-239"/>
<polygon fill="black" stroke="black" points="618.27,-242.5 628.27,-239 618.27,-235.5 618.27,-242.5"/>
</g>
<!-- 1990978912336 -->
<g id="node4" class="node">
<title>1990978912336</title>
<polygon fill="white" stroke="black" points="835,-257 720,-257 720,-221 835,-221 835,-257"/>
<text text-anchor="middle" x="777.5" y="-233.97" font-family="Times New Roman,serif" font-size="12.00">Transplant Seedlings</text>
</g>
<!-- 1990981971712 -->
<g id="node23" class="node">
<title>1990981971712</title>
<ellipse fill="white" stroke="black" cx="898" cy="-275" rx="27" ry="27"/>
</g>
<!-- 1990978912336&#45;&gt;1990981971712 -->
<g id="edge8" class="edge">
<title>1990978912336&#45;&gt;1990981971712</title>
<path fill="none" stroke="black" d="M835.32,-256.26C844.04,-258.91 852.83,-261.58 860.94,-264.04"/>
<polygon fill="black" stroke="black" points="859.82,-267.36 870.41,-266.92 861.86,-260.67 859.82,-267.36"/>
</g>
<!-- 1990980029664 -->
<g id="node24" class="node">
<title>1990980029664</title>
<ellipse fill="white" stroke="black" cx="898" cy="-203" rx="27" ry="27"/>
</g>
<!-- 1990978912336&#45;&gt;1990980029664 -->
<g id="edge9" class="edge">
<title>1990978912336&#45;&gt;1990980029664</title>
<path fill="none" stroke="black" d="M835.32,-221.74C844.04,-219.09 852.83,-216.42 860.94,-213.96"/>
<polygon fill="black" stroke="black" points="861.86,-217.33 870.41,-211.08 859.82,-210.64 861.86,-217.33"/>
</g>
<!-- 1990981974592 -->
<g id="node5" class="node">
<title>1990981974592</title>
<polygon fill="white" stroke="black" points="1044.88,-293 964.38,-293 964.38,-257 1044.88,-257 1044.88,-293"/>
<text text-anchor="middle" x="1004.62" y="-269.98" font-family="Times New Roman,serif" font-size="12.00">CO2 Monitor</text>
</g>
<!-- 1990981969456 -->
<g id="node26" class="node">
<title>1990981969456</title>
<ellipse fill="white" stroke="black" cx="1111.25" cy="-275" rx="27" ry="27"/>
</g>
<!-- 1990981974592&#45;&gt;1990981969456 -->
<g id="edge13" class="edge">
<title>1990981974592&#45;&gt;1990981969456</title>
<path fill="none" stroke="black" d="M1045.18,-275C1054.19,-275 1063.74,-275 1072.67,-275"/>
<polygon fill="black" stroke="black" points="1072.44,-278.5 1082.44,-275 1072.44,-271.5 1072.44,-278.5"/>
</g>
<!-- 1990981961584 -->
<g id="node6" class="node">
<title>1990981961584</title>
<polygon fill="white" stroke="black" points="1048.25,-221 961,-221 961,-185 1048.25,-185 1048.25,-221"/>
<text text-anchor="middle" x="1004.62" y="-197.97" font-family="Times New Roman,serif" font-size="12.00">Climate Adjust</text>
</g>
<!-- 1990978927744 -->
<g id="node25" class="node">
<title>1990978927744</title>
<ellipse fill="white" stroke="black" cx="1111.25" cy="-203" rx="27" ry="27"/>
</g>
<!-- 1990981961584&#45;&gt;1990978927744 -->
<g id="edge12" class="edge">
<title>1990981961584&#45;&gt;1990978927744</title>
<path fill="none" stroke="black" d="M1048.48,-203C1056.43,-203 1064.67,-203 1072.45,-203"/>
<polygon fill="black" stroke="black" points="1072.29,-206.5 1082.29,-203 1072.29,-199.5 1072.29,-206.5"/>
</g>
<!-- 1990978915552 -->
<g id="node7" class="node">
<title>1990978915552</title>
<polygon fill="black" stroke="black" points="1228.25,-257 1174.25,-257 1174.25,-221 1228.25,-221 1228.25,-257"/>
</g>
<!-- 1990981971616 -->
<g id="node27" class="node">
<title>1990981971616</title>
<ellipse fill="white" stroke="black" cx="1291.25" cy="-239" rx="27" ry="27"/>
</g>
<!-- 1990978915552&#45;&gt;1990981971616 -->
<g id="edge16" class="edge">
<title>1990978915552&#45;&gt;1990981971616</title>
<path fill="none" stroke="black" d="M1228.65,-239C1236.14,-239 1244.43,-239 1252.45,-239"/>
<polygon fill="black" stroke="black" points="1252.35,-242.5 1262.35,-239 1252.35,-235.5 1252.35,-242.5"/>
</g>
<!-- 1990979661184 -->
<g id="node8" class="node">
<title>1990979661184</title>
<polygon fill="white" stroke="black" points="1428.75,-234 1354.25,-234 1354.25,-198 1428.75,-198 1428.75,-234"/>
<text text-anchor="middle" x="1391.5" y="-210.97" font-family="Times New Roman,serif" font-size="12.00">Sensor Scan</text>
</g>
<!-- 1990981966912 -->
<g id="node28" class="node">
<title>1990981966912</title>
<ellipse fill="white" stroke="black" cx="1491.75" cy="-175" rx="27" ry="27"/>
</g>
<!-- 1990979661184&#45;&gt;1990981966912 -->
<g id="edge18" class="edge">
<title>1990979661184&#45;&gt;1990981966912</title>
<path fill="none" stroke="black" d="M1429.08,-200.73C1437.83,-197.08 1447.15,-193.2 1455.82,-189.58"/>
<polygon fill="black" stroke="black" points="1457.08,-192.84 1464.96,-185.76 1454.39,-186.38 1457.08,-192.84"/>
</g>
<!-- 1990981961488 -->
<g id="node9" class="node">
<title>1990981961488</title>
<polygon fill="black" stroke="black" points="1631.38,-193 1577.38,-193 1577.38,-157 1631.38,-157 1631.38,-193"/>
</g>
<!-- 1990978180144 -->
<g id="node29" class="node">
<title>1990978180144</title>
<ellipse fill="white" stroke="black" cx="1717" cy="-247" rx="27" ry="27"/>
</g>
<!-- 1990981961488&#45;&gt;1990978180144 -->
<g id="edge22" class="edge">
<title>1990981961488&#45;&gt;1990978180144</title>
<path fill="none" stroke="black" d="M1631.87,-192.25C1647.69,-202.54 1667.87,-215.67 1684.5,-226.5"/>
<polygon fill="black" stroke="black" points="1682.26,-229.22 1692.55,-231.74 1686.08,-223.35 1682.26,-229.22"/>
</g>
<!-- 1990978190656 -->
<g id="node30" class="node">
<title>1990978190656</title>
<ellipse fill="white" stroke="black" cx="1717" cy="-175" rx="27" ry="27"/>
</g>
<!-- 1990981961488&#45;&gt;1990978190656 -->
<g id="edge23" class="edge">
<title>1990981961488&#45;&gt;1990978190656</title>
<path fill="none" stroke="black" d="M1631.87,-175C1645.83,-175 1663.18,-175 1678.5,-175"/>
<polygon fill="black" stroke="black" points="1678.21,-178.5 1688.21,-175 1678.21,-171.5 1678.21,-178.5"/>
</g>
<!-- 1990978179040 -->
<g id="node31" class="node">
<title>1990978179040</title>
<ellipse fill="white" stroke="black" cx="1717" cy="-103" rx="27" ry="27"/>
</g>
<!-- 1990981961488&#45;&gt;1990978179040 -->
<g id="edge21" class="edge">
<title>1990981961488&#45;&gt;1990978179040</title>
<path fill="none" stroke="black" d="M1631.87,-157.75C1647.69,-147.46 1667.87,-134.33 1684.5,-123.5"/>
<polygon fill="black" stroke="black" points="1686.08,-126.65 1692.55,-118.26 1682.26,-120.78 1686.08,-126.65"/>
</g>
<!-- 1990980889072 -->
<g id="node10" class="node">
<title>1990980889072</title>
<polygon fill="white" stroke="black" points="1654,-94 1554.75,-94 1554.75,-58 1654,-58 1654,-94"/>
<text text-anchor="middle" x="1604.38" y="-70.97" font-family="Times New Roman,serif" font-size="12.00">Harvest Schedule</text>
</g>
<!-- 1990982203872 -->
<g id="node32" class="node">
<title>1990982203872</title>
<ellipse fill="white" stroke="black" cx="1717" cy="-31" rx="27" ry="27"/>
</g>
<!-- 1990980889072&#45;&gt;1990982203872 -->
<g id="edge24" class="edge">
<title>1990980889072&#45;&gt;1990982203872</title>
<path fill="none" stroke="black" d="M1650.69,-57.57C1660.83,-53.44 1671.44,-49.12 1681.09,-45.2"/>
<polygon fill="black" stroke="black" points="1682.15,-48.55 1690.09,-41.54 1679.51,-42.06 1682.15,-48.55"/>
</g>
<!-- 1990978188928 -->
<g id="node11" class="node">
<title>1990978188928</title>
<polygon fill="white" stroke="black" points="1870.62,-121 1780.38,-121 1780.38,-85 1870.62,-85 1870.62,-121"/>
<text text-anchor="middle" x="1825.5" y="-97.97" font-family="Times New Roman,serif" font-size="12.00">Growth Record</text>
</g>
<!-- 1990978179472 -->
<g id="node33" class="node">
<title>1990978179472</title>
<ellipse fill="white" stroke="black" cx="1934" cy="-103" rx="27" ry="27"/>
</g>
<!-- 1990978188928&#45;&gt;1990978179472 -->
<g id="edge29" class="edge">
<title>1990978188928&#45;&gt;1990978179472</title>
<path fill="none" stroke="black" d="M1871.05,-103C1879.07,-103 1887.37,-103 1895.18,-103"/>
<polygon fill="black" stroke="black" points="1895.05,-106.5 1905.05,-103 1895.05,-99.5 1895.05,-106.5"/>
</g>
<!-- 1990978188208 -->
<g id="node12" class="node">
<title>1990978188208</title>
<polygon fill="white" stroke="black" points="1862.75,-265 1788.25,-265 1788.25,-229 1862.75,-229 1862.75,-265"/>
<text text-anchor="middle" x="1825.5" y="-241.97" font-family="Times New Roman,serif" font-size="12.00">Pest Control</text>
</g>
<!-- 1990978186816 -->
<g id="node35" class="node">
<title>1990978186816</title>
<ellipse fill="white" stroke="black" cx="1934" cy="-247" rx="27" ry="27"/>
</g>
<!-- 1990978188208&#45;&gt;1990978186816 -->
<g id="edge31" class="edge">
<title>1990978188208&#45;&gt;1990978186816</title>
<path fill="none" stroke="black" d="M1863.15,-247C1873.56,-247 1884.9,-247 1895.36,-247"/>
<polygon fill="black" stroke="black" points="1895.19,-250.5 1905.19,-247 1895.19,-243.5 1895.19,-250.5"/>
</g>
<!-- 1990982197056 -->
<g id="node13" class="node">
<title>1990982197056</title>
<polygon fill="white" stroke="black" points="1871,-49 1780,-49 1780,-13 1871,-13 1871,-49"/>
<text text-anchor="middle" x="1825.5" y="-25.98" font-family="Times New Roman,serif" font-size="12.00">Waste Compost</text>
</g>
<!-- 1990982203200 -->
<g id="node36" class="node">
<title>1990982203200</title>
<ellipse fill="white" stroke="black" cx="1934" cy="-31" rx="27" ry="27"/>
</g>
<!-- 1990982197056&#45;&gt;1990982203200 -->
<g id="edge32" class="edge">
<title>1990982197056&#45;&gt;1990982203200</title>
<path fill="none" stroke="black" d="M1871.36,-31C1879.36,-31 1887.62,-31 1895.4,-31"/>
<polygon fill="black" stroke="black" points="1895.21,-34.5 1905.21,-31 1895.21,-27.5 1895.21,-34.5"/>
</g>
<!-- 1990978182112 -->
<g id="node14" class="node">
<title>1990978182112</title>
<polygon fill="white" stroke="black" points="1870.25,-193 1780.75,-193 1780.75,-157 1870.25,-157 1870.25,-193"/>
<text text-anchor="middle" x="1825.5" y="-169.97" font-family="Times New Roman,serif" font-size="12.00">Nutrient Adjust</text>
</g>
<!-- 1990971861440 -->
<g id="node34" class="node">
<title>1990971861440</title>
<ellipse fill="white" stroke="black" cx="1934" cy="-175" rx="27" ry="27"/>
</g>
<!-- 1990978182112&#45;&gt;1990971861440 -->
<g id="edge30" class="edge">
<title>1990978182112&#45;&gt;1990971861440</title>
<path fill="none" stroke="black" d="M1870.74,-175C1878.96,-175 1887.47,-175 1895.46,-175"/>
<polygon fill="black" stroke="black" points="1895.19,-178.5 1905.19,-175 1895.19,-171.5 1895.19,-178.5"/>
</g>
<!-- 1990982200704 -->
<g id="node15" class="node">
<title>1990982200704</title>
<polygon fill="white" stroke="black" points="2074.5,-49 1997,-49 1997,-13 2074.5,-13 2074.5,-49"/>
<text text-anchor="middle" x="2035.75" y="-25.98" font-family="Times New Roman,serif" font-size="12.00">Eco Package</text>
</g>
<!-- 1990982204352 -->
<g id="node37" class="node">
<title>1990982204352</title>
<ellipse fill="white" stroke="black" cx="2137.5" cy="-31" rx="27" ry="27"/>
</g>
<!-- 1990982200704&#45;&gt;1990982204352 -->
<g id="edge38" class="edge">
<title>1990982200704&#45;&gt;1990982204352</title>
<path fill="none" stroke="black" d="M2074.75,-31C2082.57,-31 2090.81,-31 2098.63,-31"/>
<polygon fill="black" stroke="black" points="2098.55,-34.5 2108.55,-31 2098.55,-27.5 2098.55,-34.5"/>
</g>
<!-- 1990981975408 -->
<g id="node16" class="node">
<title>1990981975408</title>
<polygon fill="black" stroke="black" points="2062.75,-229 2008.75,-229 2008.75,-193 2062.75,-193 2062.75,-229"/>
</g>
<!-- 1990981975408&#45;&gt;1990981971616 -->
<g id="edge37" class="edge">
<title>1990981975408&#45;&gt;1990981971616</title>
<path fill="none" stroke="black" d="M2021.5,-229.41C2008.24,-246.33 1986.21,-270.61 1961,-283 1906.82,-309.63 1886.87,-302 1826.5,-302 1490.75,-302 1490.75,-302 1490.75,-302 1430.44,-302 1364.44,-275.25 1325.78,-256.61"/>
<polygon fill="black" stroke="black" points="1327.5,-253.56 1316.98,-252.27 1324.4,-259.83 1327.5,-253.56"/>
</g>
<!-- 1990982198016 -->
<g id="node17" class="node">
<title>1990982198016</title>
<polygon fill="white" stroke="black" points="2291.5,-49 2200.5,-49 2200.5,-13 2291.5,-13 2291.5,-49"/>
<text text-anchor="middle" x="2246" y="-25.98" font-family="Times New Roman,serif" font-size="12.00">Urban Dispatch</text>
</g>
<!-- 1990982200176 -->
<g id="node38" class="node">
<title>1990982200176</title>
<ellipse fill="white" stroke="black" cx="2354.5" cy="-31" rx="27" ry="27"/>
</g>
<!-- 1990982198016&#45;&gt;1990982200176 -->
<g id="edge40" class="edge">
<title>1990982198016&#45;&gt;1990982200176</title>
<path fill="none" stroke="black" d="M2291.86,-31C2299.86,-31 2308.12,-31 2315.9,-31"/>
<polygon fill="black" stroke="black" points="2315.71,-34.5 2325.71,-31 2315.71,-27.5 2315.71,-34.5"/>
</g>
<!-- 1990982189472 -->
<g id="node18" class="node">
<title>1990982189472</title>
<polygon fill="white" stroke="black" points="2502.5,-49 2417.5,-49 2417.5,-13 2502.5,-13 2502.5,-49"/>
<text text-anchor="middle" x="2460" y="-25.98" font-family="Times New Roman,serif" font-size="12.00">Yield Analyze</text>
</g>
<!-- 1990981595456 -->
<g id="node39" class="node">
<title>1990981595456</title>
<ellipse fill="white" stroke="black" cx="2569.5" cy="-31" rx="27" ry="27"/>
<ellipse fill="none" stroke="black" cx="2569.5" cy="-31" rx="31" ry="31"/>
<text text-anchor="start" x="2553" y="-15.6" font-family="Times New Roman,serif" font-size="32.00">■</text>
</g>
<!-- 1990982189472&#45;&gt;1990981595456 -->
<g id="edge42" class="edge">
<title>1990982189472&#45;&gt;1990981595456</title>
<path fill="none" stroke="black" d="M2502.87,-31C2510.7,-31 2518.88,-31 2526.71,-31"/>
<polygon fill="black" stroke="black" points="2526.71,-34.5 2536.71,-31 2526.71,-27.5 2526.71,-34.5"/>
</g>
<!-- 1990981598192 -->
<g id="node19" class="node">
<title>1990981598192</title>
<ellipse fill="white" stroke="black" cx="27" cy="-239" rx="27" ry="27"/>
<text text-anchor="start" x="9.75" y="-221.7" font-family="Times New Roman,serif" font-size="34.00">●</text>
</g>
<!-- 1990981598192&#45;&gt;1990975989872 -->
<g id="edge1" class="edge">
<title>1990981598192&#45;&gt;1990975989872</title>
<path fill="none" stroke="black" d="M54.24,-239C61.71,-239 70.1,-239 78.49,-239"/>
<polygon fill="black" stroke="black" points="78.33,-242.5 88.33,-239 78.33,-235.5 78.33,-242.5"/>
</g>
<!-- 1990975986224&#45;&gt;1990971627072 -->
<g id="edge3" class="edge">
<title>1990975986224&#45;&gt;1990971627072</title>
<path fill="none" stroke="black" d="M260.17,-239C267.48,-239 275.7,-239 284.03,-239"/>
<polygon fill="black" stroke="black" points="283.86,-242.5 293.86,-239 283.86,-235.5 283.86,-242.5"/>
</g>
<!-- 1990971621648&#45;&gt;1990977978192 -->
<g id="edge5" class="edge">
<title>1990971621648&#45;&gt;1990977978192</title>
<path fill="none" stroke="black" d="M477.84,-239C485.25,-239 493.57,-239 501.9,-239"/>
<polygon fill="black" stroke="black" points="501.67,-242.5 511.67,-239 501.67,-235.5 501.67,-242.5"/>
</g>
<!-- 1990978917184&#45;&gt;1990978912336 -->
<g id="edge7" class="edge">
<title>1990978917184&#45;&gt;1990978912336</title>
<path fill="none" stroke="black" d="M684.3,-239C691.6,-239 699.88,-239 708.41,-239"/>
<polygon fill="black" stroke="black" points="708.19,-242.5 718.19,-239 708.19,-235.5 708.19,-242.5"/>
</g>
<!-- 1990981971712&#45;&gt;1990981974592 -->
<g id="edge10" class="edge">
<title>1990981971712&#45;&gt;1990981974592</title>
<path fill="none" stroke="black" d="M925.4,-275C933.75,-275 943.28,-275 952.74,-275"/>
<polygon fill="black" stroke="black" points="952.66,-278.5 962.66,-275 952.66,-271.5 952.66,-278.5"/>
</g>
<!-- 1990980029664&#45;&gt;1990981961584 -->
<g id="edge11" class="edge">
<title>1990980029664&#45;&gt;1990981961584</title>
<path fill="none" stroke="black" d="M925.4,-203C932.73,-203 940.96,-203 949.26,-203"/>
<polygon fill="black" stroke="black" points="949.03,-206.5 959.03,-203 949.03,-199.5 949.03,-206.5"/>
</g>
<!-- 1990978927744&#45;&gt;1990978915552 -->
<g id="edge14" class="edge">
<title>1990978927744&#45;&gt;1990978915552</title>
<path fill="none" stroke="black" d="M1136.76,-213.03C1145.01,-216.4 1154.39,-220.24 1163.37,-223.91"/>
<polygon fill="black" stroke="black" points="1162.04,-227.15 1172.62,-227.7 1164.69,-220.67 1162.04,-227.15"/>
</g>
<!-- 1990981969456&#45;&gt;1990978915552 -->
<g id="edge15" class="edge">
<title>1990981969456&#45;&gt;1990978915552</title>
<path fill="none" stroke="black" d="M1136.76,-264.97C1145.01,-261.6 1154.39,-257.76 1163.37,-254.09"/>
<polygon fill="black" stroke="black" points="1164.69,-257.33 1172.62,-250.3 1162.04,-250.85 1164.69,-257.33"/>
</g>
<!-- 1990981971616&#45;&gt;1990979661184 -->
<g id="edge17" class="edge">
<title>1990981971616&#45;&gt;1990979661184</title>
<path fill="none" stroke="black" d="M1318.06,-232.96C1325.65,-231.18 1334.21,-229.18 1342.71,-227.19"/>
<polygon fill="black" stroke="black" points="1343.36,-230.63 1352.3,-224.94 1341.77,-223.81 1343.36,-230.63"/>
</g>
<!-- 1990981966912&#45;&gt;1990981961488 -->
<g id="edge19" class="edge">
<title>1990981966912&#45;&gt;1990981961488</title>
<path fill="none" stroke="black" d="M1519.25,-175C1533.2,-175 1550.56,-175 1565.87,-175"/>
<polygon fill="black" stroke="black" points="1565.58,-178.5 1575.58,-175 1565.58,-171.5 1565.58,-178.5"/>
</g>
<!-- 1990981966912&#45;&gt;1990980889072 -->
<g id="edge20" class="edge">
<title>1990981966912&#45;&gt;1990980889072</title>
<path fill="none" stroke="black" d="M1512.53,-157.3C1529.77,-141.87 1555.01,-119.28 1574.51,-101.83"/>
<polygon fill="black" stroke="black" points="1576.77,-104.5 1581.89,-95.23 1572.11,-99.29 1576.77,-104.5"/>
</g>
<!-- 1990978180144&#45;&gt;1990978188208 -->
<g id="edge28" class="edge">
<title>1990978180144&#45;&gt;1990978188208</title>
<path fill="none" stroke="black" d="M1744.33,-247C1754.11,-247 1765.54,-247 1776.65,-247"/>
<polygon fill="black" stroke="black" points="1776.52,-250.5 1786.52,-247 1776.52,-243.5 1776.52,-250.5"/>
</g>
<!-- 1990978190656&#45;&gt;1990978182112 -->
<g id="edge26" class="edge">
<title>1990978190656&#45;&gt;1990978182112</title>
<path fill="none" stroke="black" d="M1744.33,-175C1751.95,-175 1760.57,-175 1769.27,-175"/>
<polygon fill="black" stroke="black" points="1769.14,-178.5 1779.14,-175 1769.14,-171.5 1769.14,-178.5"/>
</g>
<!-- 1990978179040&#45;&gt;1990978188928 -->
<g id="edge25" class="edge">
<title>1990978179040&#45;&gt;1990978188928</title>
<path fill="none" stroke="black" d="M1744.33,-103C1751.86,-103 1760.38,-103 1768.97,-103"/>
<polygon fill="black" stroke="black" points="1768.73,-106.5 1778.73,-103 1768.73,-99.5 1768.73,-106.5"/>
</g>
<!-- 1990982203872&#45;&gt;1990982197056 -->
<g id="edge27" class="edge">
<title>1990982203872&#45;&gt;1990982197056</title>
<path fill="none" stroke="black" d="M1744.33,-31C1751.69,-31 1760,-31 1768.39,-31"/>
<polygon fill="black" stroke="black" points="1768.31,-34.5 1778.31,-31 1768.31,-27.5 1768.31,-34.5"/>
</g>
<!-- 1990978179472&#45;&gt;1990981975408 -->
<g id="edge34" class="edge">
<title>1990978179472&#45;&gt;1990981975408</title>
<path fill="none" stroke="black" d="M1953.06,-122.56C1969.03,-139.85 1992.47,-165.22 2010.15,-184.36"/>
<polygon fill="black" stroke="black" points="2007.44,-186.58 2016.79,-191.56 2012.58,-181.84 2007.44,-186.58"/>
</g>
<!-- 1990971861440&#45;&gt;1990981975408 -->
<g id="edge35" class="edge">
<title>1990971861440&#45;&gt;1990981975408</title>
<path fill="none" stroke="black" d="M1959.91,-183.99C1971.34,-188.12 1985.12,-193.09 1997.73,-197.64"/>
<polygon fill="black" stroke="black" points="1996.39,-200.88 2006.99,-200.98 1998.77,-194.29 1996.39,-200.88"/>
</g>
<!-- 1990978186816&#45;&gt;1990981975408 -->
<g id="edge36" class="edge">
<title>1990978186816&#45;&gt;1990981975408</title>
<path fill="none" stroke="black" d="M1959.91,-238.01C1971.34,-233.88 1985.12,-228.91 1997.73,-224.36"/>
<polygon fill="black" stroke="black" points="1998.77,-227.71 2006.99,-221.02 1996.39,-221.12 1998.77,-227.71"/>
</g>
<!-- 1990982203200&#45;&gt;1990982200704 -->
<g id="edge33" class="edge">
<title>1990982203200&#45;&gt;1990982200704</title>
<path fill="none" stroke="black" d="M1961.47,-31C1968.77,-31 1976.93,-31 1985.08,-31"/>
<polygon fill="black" stroke="black" points="1985,-34.5 1995,-31 1985,-27.5 1985,-34.5"/>
</g>
<!-- 1990982204352&#45;&gt;1990982198016 -->
<g id="edge39" class="edge">
<title>1990982204352&#45;&gt;1990982198016</title>
<path fill="none" stroke="black" d="M2164.83,-31C2172.19,-31 2180.5,-31 2188.89,-31"/>
<polygon fill="black" stroke="black" points="2188.81,-34.5 2198.81,-31 2188.81,-27.5 2188.81,-34.5"/>
</g>
<!-- 1990982200176&#45;&gt;1990982189472 -->
<g id="edge41" class="edge">
<title>1990982200176&#45;&gt;1990982189472</title>
<path fill="none" stroke="black" d="M2381.89,-31C2389.3,-31 2397.63,-31 2406.01,-31"/>
<polygon fill="black" stroke="black" points="2405.86,-34.5 2415.86,-31 2405.86,-27.5 2405.86,-34.5"/>
</g>
</g>
</svg>
