<?xml version="1.0" encoding="UTF-8" standalone="no"?>
<!DOCTYPE svg PUBLIC "-//W3C//DTD SVG 1.1//EN"
 "http://www.w3.org/Graphics/SVG/1.1/DTD/svg11.dtd">
<!-- Generated by graphviz version 11.0.0 (20240428.1522)
 -->
<!-- Title: imdf_net_1754052466.078115 Pages: 1 -->
<svg width="2766pt" height="350pt"
 viewBox="0.00 0.00 2766.25 350.00" xmlns="http://www.w3.org/2000/svg" xmlns:xlink="http://www.w3.org/1999/xlink">
<g id="graph0" class="graph" transform="scale(1 1) rotate(0) translate(4 346)">
<title>imdf_net_1754052466.078115</title>
<polygon fill="white" stroke="none" points="-4,4 -4,-346 2762.25,-346 2762.25,4 -4,4"/>
<!-- 1990975900848 -->
<g id="node1" class="node">
<title>1990975900848</title>
<polygon fill="black" stroke="black" points="144,-189 90,-189 90,-153 144,-153 144,-189"/>
</g>
<!-- 1990981476880 -->
<g id="node21" class="node">
<title>1990981476880</title>
<ellipse fill="white" stroke="black" cx="207" cy="-207" rx="27" ry="27"/>
</g>
<!-- 1990975900848&#45;&gt;1990981476880 -->
<g id="edge2" class="edge">
<title>1990975900848&#45;&gt;1990981476880</title>
<path fill="none" stroke="black" d="M144.4,-181.8C152.75,-185.22 162.12,-189.05 170.97,-192.67"/>
<polygon fill="black" stroke="black" points="169.44,-195.83 180.02,-196.37 172.09,-189.35 169.44,-195.83"/>
</g>
<!-- 1990979283824 -->
<g id="node22" class="node">
<title>1990979283824</title>
<ellipse fill="white" stroke="black" cx="207" cy="-135" rx="27" ry="27"/>
</g>
<!-- 1990975900848&#45;&gt;1990979283824 -->
<g id="edge3" class="edge">
<title>1990975900848&#45;&gt;1990979283824</title>
<path fill="none" stroke="black" d="M144.4,-160.2C152.75,-156.78 162.12,-152.95 170.97,-149.33"/>
<polygon fill="black" stroke="black" points="172.09,-152.65 180.02,-145.63 169.44,-146.17 172.09,-152.65"/>
</g>
<!-- 1990981416720 -->
<g id="node2" class="node">
<title>1990981416720</title>
<polygon fill="white" stroke="black" points="371.5,-225 270,-225 270,-189 371.5,-189 371.5,-225"/>
<text text-anchor="middle" x="320.75" y="-201.97" font-family="Times New Roman,serif" font-size="12.00">Regulation Check</text>
</g>
<!-- 1990977732336 -->
<g id="node24" class="node">
<title>1990977732336</title>
<ellipse fill="white" stroke="black" cx="434.5" cy="-207" rx="27" ry="27"/>
</g>
<!-- 1990981416720&#45;&gt;1990977732336 -->
<g id="edge6" class="edge">
<title>1990981416720&#45;&gt;1990977732336</title>
<path fill="none" stroke="black" d="M371.74,-207C379.85,-207 388.12,-207 395.86,-207"/>
<polygon fill="black" stroke="black" points="395.61,-210.5 405.61,-207 395.61,-203.5 395.61,-210.5"/>
</g>
<!-- 1990981479856 -->
<g id="node3" class="node">
<title>1990981479856</title>
<polygon fill="white" stroke="black" points="370.38,-153 271.12,-153 271.12,-117 370.38,-117 370.38,-153"/>
<text text-anchor="middle" x="320.75" y="-129.97" font-family="Times New Roman,serif" font-size="12.00">Stakeholder Meet</text>
</g>
<!-- 1990976052960 -->
<g id="node23" class="node">
<title>1990976052960</title>
<ellipse fill="white" stroke="black" cx="434.5" cy="-135" rx="27" ry="27"/>
</g>
<!-- 1990981479856&#45;&gt;1990976052960 -->
<g id="edge7" class="edge">
<title>1990981479856&#45;&gt;1990976052960</title>
<path fill="none" stroke="black" d="M370.77,-135C379.2,-135 387.84,-135 395.91,-135"/>
<polygon fill="black" stroke="black" points="395.72,-138.5 405.72,-135 395.72,-131.5 395.72,-138.5"/>
</g>
<!-- 1990981523152 -->
<g id="node4" class="node">
<title>1990981523152</title>
<polygon fill="white" stroke="black" points="568.25,-189 497.5,-189 497.5,-153 568.25,-153 568.25,-189"/>
<text text-anchor="middle" x="532.88" y="-165.97" font-family="Times New Roman,serif" font-size="12.00">Site Survey</text>
</g>
<!-- 1990977245248 -->
<g id="node25" class="node">
<title>1990977245248</title>
<ellipse fill="white" stroke="black" cx="631.25" cy="-171" rx="27" ry="27"/>
</g>
<!-- 1990981523152&#45;&gt;1990977245248 -->
<g id="edge10" class="edge">
<title>1990981523152&#45;&gt;1990977245248</title>
<path fill="none" stroke="black" d="M568.67,-171C576.4,-171 584.64,-171 592.48,-171"/>
<polygon fill="black" stroke="black" points="592.47,-174.5 602.47,-171 592.47,-167.5 592.47,-174.5"/>
</g>
<!-- 1990977507632 -->
<g id="node5" class="node">
<title>1990977507632</title>
<polygon fill="white" stroke="black" points="780.75,-189 694.25,-189 694.25,-153 780.75,-153 780.75,-189"/>
<text text-anchor="middle" x="737.5" y="-165.97" font-family="Times New Roman,serif" font-size="12.00">Design Layout</text>
</g>
<!-- 1990976056320 -->
<g id="node26" class="node">
<title>1990976056320</title>
<ellipse fill="white" stroke="black" cx="843.75" cy="-171" rx="27" ry="27"/>
</g>
<!-- 1990977507632&#45;&gt;1990976056320 -->
<g id="edge12" class="edge">
<title>1990977507632&#45;&gt;1990976056320</title>
<path fill="none" stroke="black" d="M781.2,-171C789.12,-171 797.34,-171 805.09,-171"/>
<polygon fill="black" stroke="black" points="804.89,-174.5 814.89,-171 804.89,-167.5 804.89,-174.5"/>
</g>
<!-- 1990976050560 -->
<g id="node6" class="node">
<title>1990976050560</title>
<polygon fill="white" stroke="black" points="993.25,-189 906.75,-189 906.75,-153 993.25,-153 993.25,-189"/>
<text text-anchor="middle" x="950" y="-165.97" font-family="Times New Roman,serif" font-size="12.00">Modular Setup</text>
</g>
<!-- 1990976052528 -->
<g id="node27" class="node">
<title>1990976052528</title>
<ellipse fill="white" stroke="black" cx="1056.25" cy="-171" rx="27" ry="27"/>
</g>
<!-- 1990976050560&#45;&gt;1990976052528 -->
<g id="edge14" class="edge">
<title>1990976050560&#45;&gt;1990976052528</title>
<path fill="none" stroke="black" d="M993.7,-171C1001.62,-171 1009.84,-171 1017.59,-171"/>
<polygon fill="black" stroke="black" points="1017.39,-174.5 1027.39,-171 1017.39,-167.5 1017.39,-174.5"/>
</g>
<!-- 1990976048400 -->
<g id="node7" class="node">
<title>1990976048400</title>
<polygon fill="white" stroke="black" points="1201.25,-189 1119.25,-189 1119.25,-153 1201.25,-153 1201.25,-189"/>
<text text-anchor="middle" x="1160.25" y="-165.97" font-family="Times New Roman,serif" font-size="12.00">System Install</text>
</g>
<!-- 1990976047488 -->
<g id="node28" class="node">
<title>1990976047488</title>
<ellipse fill="white" stroke="black" cx="1264.25" cy="-315" rx="27" ry="27"/>
</g>
<!-- 1990976048400&#45;&gt;1990976047488 -->
<g id="edge16" class="edge">
<title>1990976048400&#45;&gt;1990976047488</title>
<path fill="none" stroke="black" d="M1174.09,-189.39C1189.15,-210.93 1214.89,-247.64 1237.25,-279 1238.49,-280.74 1239.77,-282.53 1241.06,-284.33"/>
<polygon fill="black" stroke="black" points="1237.97,-286.03 1246.65,-292.1 1243.65,-281.94 1237.97,-286.03"/>
</g>
<!-- 1990976054832 -->
<g id="node29" class="node">
<title>1990976054832</title>
<ellipse fill="white" stroke="black" cx="1264.25" cy="-243" rx="27" ry="27"/>
</g>
<!-- 1990976048400&#45;&gt;1990976054832 -->
<g id="edge18" class="edge">
<title>1990976048400&#45;&gt;1990976054832</title>
<path fill="none" stroke="black" d="M1187.25,-189.35C1201.1,-199.13 1218.21,-211.21 1232.69,-221.43"/>
<polygon fill="black" stroke="black" points="1230.34,-224.06 1240.53,-226.96 1234.38,-218.34 1230.34,-224.06"/>
</g>
<!-- 1990976046432 -->
<g id="node30" class="node">
<title>1990976046432</title>
<ellipse fill="white" stroke="black" cx="1264.25" cy="-171" rx="27" ry="27"/>
</g>
<!-- 1990976048400&#45;&gt;1990976046432 -->
<g id="edge19" class="edge">
<title>1990976048400&#45;&gt;1990976046432</title>
<path fill="none" stroke="black" d="M1201.56,-171C1209.48,-171 1217.75,-171 1225.57,-171"/>
<polygon fill="black" stroke="black" points="1225.48,-174.5 1235.48,-171 1225.48,-167.5 1225.48,-174.5"/>
</g>
<!-- 1990976050272 -->
<g id="node31" class="node">
<title>1990976050272</title>
<ellipse fill="white" stroke="black" cx="1264.25" cy="-99" rx="27" ry="27"/>
</g>
<!-- 1990976048400&#45;&gt;1990976050272 -->
<g id="edge17" class="edge">
<title>1990976048400&#45;&gt;1990976050272</title>
<path fill="none" stroke="black" d="M1187.25,-152.65C1201.1,-142.87 1218.21,-130.79 1232.69,-120.57"/>
<polygon fill="black" stroke="black" points="1234.38,-123.66 1240.53,-115.04 1230.34,-117.94 1234.38,-123.66"/>
</g>
<!-- 1990976046192 -->
<g id="node32" class="node">
<title>1990976046192</title>
<ellipse fill="white" stroke="black" cx="1264.25" cy="-27" rx="27" ry="27"/>
</g>
<!-- 1990976048400&#45;&gt;1990976046192 -->
<g id="edge20" class="edge">
<title>1990976048400&#45;&gt;1990976046192</title>
<path fill="none" stroke="black" d="M1174.09,-152.61C1189.15,-131.07 1214.89,-94.36 1237.25,-63 1238.49,-61.26 1239.77,-59.47 1241.06,-57.67"/>
<polygon fill="black" stroke="black" points="1243.65,-60.06 1246.65,-49.9 1237.97,-55.97 1243.65,-60.06"/>
</g>
<!-- 1990976046096 -->
<g id="node8" class="node">
<title>1990976046096</title>
<polygon fill="white" stroke="black" points="1420.5,-261 1329.5,-261 1329.5,-225 1420.5,-225 1420.5,-261"/>
<text text-anchor="middle" x="1375" y="-237.97" font-family="Times New Roman,serif" font-size="12.00">Env Calibration</text>
</g>
<!-- 1990976058480 -->
<g id="node37" class="node">
<title>1990976058480</title>
<ellipse fill="white" stroke="black" cx="1485.75" cy="-243" rx="27" ry="27"/>
</g>
<!-- 1990976046096&#45;&gt;1990976058480 -->
<g id="edge27" class="edge">
<title>1990976046096&#45;&gt;1990976058480</title>
<path fill="none" stroke="black" d="M1420.86,-243C1429.53,-243 1438.53,-243 1446.95,-243"/>
<polygon fill="black" stroke="black" points="1446.85,-246.5 1456.85,-243 1446.85,-239.5 1446.85,-246.5"/>
</g>
<!-- 1990976053392 -->
<g id="node9" class="node">
<title>1990976053392</title>
<polygon fill="white" stroke="black" points="1417.12,-45 1332.88,-45 1332.88,-9 1417.12,-9 1417.12,-45"/>
<text text-anchor="middle" x="1375" y="-21.98" font-family="Times New Roman,serif" font-size="12.00">Waste Process</text>
</g>
<!-- 1990976054112 -->
<g id="node36" class="node">
<title>1990976054112</title>
<ellipse fill="white" stroke="black" cx="1485.75" cy="-27" rx="27" ry="27"/>
</g>
<!-- 1990976053392&#45;&gt;1990976054112 -->
<g id="edge30" class="edge">
<title>1990976053392&#45;&gt;1990976054112</title>
<path fill="none" stroke="black" d="M1417.42,-27C1427.24,-27 1437.65,-27 1447.28,-27"/>
<polygon fill="black" stroke="black" points="1447.03,-30.5 1457.03,-27 1447.03,-23.5 1447.03,-30.5"/>
</g>
<!-- 1990976060448 -->
<g id="node10" class="node">
<title>1990976060448</title>
<polygon fill="white" stroke="black" points="1422.75,-117 1327.25,-117 1327.25,-81 1422.75,-81 1422.75,-117"/>
<text text-anchor="middle" x="1375" y="-93.97" font-family="Times New Roman,serif" font-size="12.00">Water Recycling</text>
</g>
<!-- 1990976056032 -->
<g id="node35" class="node">
<title>1990976056032</title>
<ellipse fill="white" stroke="black" cx="1485.75" cy="-99" rx="27" ry="27"/>
</g>
<!-- 1990976060448&#45;&gt;1990976056032 -->
<g id="edge28" class="edge">
<title>1990976060448&#45;&gt;1990976056032</title>
<path fill="none" stroke="black" d="M1423.07,-99C1431.07,-99 1439.29,-99 1447.02,-99"/>
<polygon fill="black" stroke="black" points="1446.75,-102.5 1456.75,-99 1446.75,-95.5 1446.75,-102.5"/>
</g>
<!-- 1990976057664 -->
<g id="node11" class="node">
<title>1990976057664</title>
<polygon fill="white" stroke="black" points="1413.75,-189 1336.25,-189 1336.25,-153 1413.75,-153 1413.75,-189"/>
<text text-anchor="middle" x="1375" y="-165.97" font-family="Times New Roman,serif" font-size="12.00">Nutrient Mix</text>
</g>
<!-- 1990976060976 -->
<g id="node33" class="node">
<title>1990976060976</title>
<ellipse fill="white" stroke="black" cx="1485.75" cy="-171" rx="27" ry="27"/>
</g>
<!-- 1990976057664&#45;&gt;1990976060976 -->
<g id="edge29" class="edge">
<title>1990976057664&#45;&gt;1990976060976</title>
<path fill="none" stroke="black" d="M1414.04,-171C1424.83,-171 1436.57,-171 1447.33,-171"/>
<polygon fill="black" stroke="black" points="1447.02,-174.5 1457.02,-171 1447.02,-167.5 1447.02,-174.5"/>
</g>
<!-- 1990976059632 -->
<g id="node12" class="node">
<title>1990976059632</title>
<polygon fill="white" stroke="black" points="1422.38,-333 1327.62,-333 1327.62,-297 1422.38,-297 1422.38,-333"/>
<text text-anchor="middle" x="1375" y="-309.98" font-family="Times New Roman,serif" font-size="12.00">Energy Integrate</text>
</g>
<!-- 1990976053056 -->
<g id="node34" class="node">
<title>1990976053056</title>
<ellipse fill="white" stroke="black" cx="1485.75" cy="-315" rx="27" ry="27"/>
</g>
<!-- 1990976059632&#45;&gt;1990976053056 -->
<g id="edge26" class="edge">
<title>1990976059632&#45;&gt;1990976053056</title>
<path fill="none" stroke="black" d="M1422.75,-315C1430.86,-315 1439.19,-315 1447.02,-315"/>
<polygon fill="black" stroke="black" points="1446.89,-318.5 1456.89,-315 1446.89,-311.5 1446.89,-318.5"/>
</g>
<!-- 1990976060400 -->
<g id="node13" class="node">
<title>1990976060400</title>
<polygon fill="white" stroke="black" points="1630.75,-189 1548.75,-189 1548.75,-153 1630.75,-153 1630.75,-189"/>
<text text-anchor="middle" x="1589.75" y="-165.97" font-family="Times New Roman,serif" font-size="12.00">Staff Training</text>
</g>
<!-- 1990976056080 -->
<g id="node38" class="node">
<title>1990976056080</title>
<ellipse fill="white" stroke="black" cx="1693.75" cy="-171" rx="27" ry="27"/>
</g>
<!-- 1990976060400&#45;&gt;1990976056080 -->
<g id="edge36" class="edge">
<title>1990976060400&#45;&gt;1990976056080</title>
<path fill="none" stroke="black" d="M1631.06,-171C1638.98,-171 1647.25,-171 1655.07,-171"/>
<polygon fill="black" stroke="black" points="1654.98,-174.5 1664.98,-171 1654.98,-167.5 1654.98,-174.5"/>
</g>
<!-- 1990976060688 -->
<g id="node14" class="node">
<title>1990976060688</title>
<polygon fill="white" stroke="black" points="1838.75,-189 1756.75,-189 1756.75,-153 1838.75,-153 1838.75,-189"/>
<text text-anchor="middle" x="1797.75" y="-165.97" font-family="Times New Roman,serif" font-size="12.00">Crop Planting</text>
</g>
<!-- 1990976057760 -->
<g id="node39" class="node">
<title>1990976057760</title>
<ellipse fill="white" stroke="black" cx="1901.75" cy="-171" rx="27" ry="27"/>
</g>
<!-- 1990976060688&#45;&gt;1990976057760 -->
<g id="edge38" class="edge">
<title>1990976060688&#45;&gt;1990976057760</title>
<path fill="none" stroke="black" d="M1839.06,-171C1846.98,-171 1855.25,-171 1863.07,-171"/>
<polygon fill="black" stroke="black" points="1862.98,-174.5 1872.98,-171 1862.98,-167.5 1862.98,-174.5"/>
</g>
<!-- 1990976059152 -->
<g id="node15" class="node">
<title>1990976059152</title>
<polygon fill="white" stroke="black" points="2034,-166 1964.75,-166 1964.75,-130 2034,-130 2034,-166"/>
<text text-anchor="middle" x="1999.38" y="-142.97" font-family="Times New Roman,serif" font-size="12.00">Monitoring</text>
</g>
<!-- 1990977723792 -->
<g id="node40" class="node">
<title>1990977723792</title>
<ellipse fill="white" stroke="black" cx="2097" cy="-143" rx="27" ry="27"/>
</g>
<!-- 1990976059152&#45;&gt;1990977723792 -->
<g id="edge40" class="edge">
<title>1990976059152&#45;&gt;1990977723792</title>
<path fill="none" stroke="black" d="M2034.36,-146.22C2042.15,-145.82 2050.48,-145.38 2058.41,-144.97"/>
<polygon fill="black" stroke="black" points="2058.33,-148.47 2068.13,-144.46 2057.96,-141.48 2058.33,-148.47"/>
</g>
<!-- 1990977722832 -->
<g id="node16" class="node">
<title>1990977722832</title>
<polygon fill="white" stroke="black" points="2242.75,-161 2160,-161 2160,-125 2242.75,-125 2242.75,-161"/>
<text text-anchor="middle" x="2201.38" y="-137.97" font-family="Times New Roman,serif" font-size="12.00">Data Analysis</text>
</g>
<!-- 1990977718368 -->
<g id="node41" class="node">
<title>1990977718368</title>
<ellipse fill="white" stroke="black" cx="2305.75" cy="-143" rx="27" ry="27"/>
</g>
<!-- 1990977722832&#45;&gt;1990977718368 -->
<g id="edge42" class="edge">
<title>1990977722832&#45;&gt;1990977718368</title>
<path fill="none" stroke="black" d="M2243.13,-143C2250.98,-143 2259.17,-143 2266.92,-143"/>
<polygon fill="black" stroke="black" points="2266.74,-146.5 2276.74,-143 2266.74,-139.5 2266.74,-146.5"/>
</g>
<!-- 1990977718656 -->
<g id="node17" class="node">
<title>1990977718656</title>
<polygon fill="white" stroke="black" points="2457.5,-161 2368.75,-161 2368.75,-125 2457.5,-125 2457.5,-161"/>
<text text-anchor="middle" x="2413.12" y="-137.97" font-family="Times New Roman,serif" font-size="12.00">Yield Optimize</text>
</g>
<!-- 1990982248080 -->
<g id="node42" class="node">
<title>1990982248080</title>
<ellipse fill="white" stroke="black" cx="2520.5" cy="-143" rx="27" ry="27"/>
</g>
<!-- 1990977718656&#45;&gt;1990982248080 -->
<g id="edge44" class="edge">
<title>1990977718656&#45;&gt;1990982248080</title>
<path fill="none" stroke="black" d="M2457.9,-143C2465.86,-143 2474.1,-143 2481.86,-143"/>
<polygon fill="black" stroke="black" points="2481.67,-146.5 2491.67,-143 2481.67,-139.5 2481.67,-146.5"/>
</g>
<!-- 1990977727008 -->
<g id="node18" class="node">
<title>1990977727008</title>
<polygon fill="black" stroke="black" points="2648.88,-161 2594.88,-161 2594.88,-125 2648.88,-125 2648.88,-161"/>
</g>
<!-- 1990975906560 -->
<g id="node43" class="node">
<title>1990975906560</title>
<ellipse fill="white" stroke="black" cx="2727.25" cy="-143" rx="27" ry="27"/>
<ellipse fill="none" stroke="black" cx="2727.25" cy="-143" rx="31" ry="31"/>
<text text-anchor="start" x="2710.75" y="-127.6" font-family="Times New Roman,serif" font-size="32.00">■</text>
</g>
<!-- 1990977727008&#45;&gt;1990975906560 -->
<g id="edge48" class="edge">
<title>1990977727008&#45;&gt;1990975906560</title>
<path fill="none" stroke="black" d="M2649.23,-143C2660.02,-143 2672.76,-143 2684.75,-143"/>
<polygon fill="black" stroke="black" points="2684.4,-146.5 2694.4,-143 2684.4,-139.5 2684.4,-146.5"/>
</g>
<!-- 1990977729984 -->
<g id="node19" class="node">
<title>1990977729984</title>
<polygon fill="white" stroke="black" points="2660.25,-215 2583.5,-215 2583.5,-179 2660.25,-179 2660.25,-215"/>
<text text-anchor="middle" x="2621.88" y="-191.97" font-family="Times New Roman,serif" font-size="12.00">Maintenance</text>
</g>
<!-- 1990977729984&#45;&gt;1990976057760 -->
<g id="edge47" class="edge">
<title>1990977729984&#45;&gt;1990976057760</title>
<path fill="none" stroke="black" d="M2583.15,-197.29C2541.7,-197.59 2473.17,-198 2414.12,-198 2096,-198 2096,-198 2096,-198 2041.2,-198 1978.49,-187.22 1939.75,-179.28"/>
<polygon fill="black" stroke="black" points="1940.52,-175.87 1930.02,-177.24 1939.08,-182.72 1940.52,-175.87"/>
</g>
<!-- 1990975903920 -->
<g id="node20" class="node">
<title>1990975903920</title>
<ellipse fill="white" stroke="black" cx="27" cy="-171" rx="27" ry="27"/>
<text text-anchor="start" x="9.75" y="-153.7" font-family="Times New Roman,serif" font-size="34.00">●</text>
</g>
<!-- 1990975903920&#45;&gt;1990975900848 -->
<g id="edge1" class="edge">
<title>1990975903920&#45;&gt;1990975900848</title>
<path fill="none" stroke="black" d="M54.4,-171C61.89,-171 70.18,-171 78.2,-171"/>
<polygon fill="black" stroke="black" points="78.1,-174.5 88.1,-171 78.1,-167.5 78.1,-174.5"/>
</g>
<!-- 1990981476880&#45;&gt;1990981416720 -->
<g id="edge5" class="edge">
<title>1990981476880&#45;&gt;1990981416720</title>
<path fill="none" stroke="black" d="M234.48,-207C241.76,-207 249.97,-207 258.34,-207"/>
<polygon fill="black" stroke="black" points="258.28,-210.5 268.28,-207 258.28,-203.5 258.28,-210.5"/>
</g>
<!-- 1990979283824&#45;&gt;1990981479856 -->
<g id="edge4" class="edge">
<title>1990979283824&#45;&gt;1990981479856</title>
<path fill="none" stroke="black" d="M234.48,-135C242.02,-135 250.56,-135 259.25,-135"/>
<polygon fill="black" stroke="black" points="259.17,-138.5 269.17,-135 259.17,-131.5 259.17,-138.5"/>
</g>
<!-- 1990976052960&#45;&gt;1990981523152 -->
<g id="edge8" class="edge">
<title>1990976052960&#45;&gt;1990981523152</title>
<path fill="none" stroke="black" d="M460.32,-144.27C468.42,-147.3 477.68,-150.75 486.79,-154.16"/>
<polygon fill="black" stroke="black" points="485.32,-157.35 495.92,-157.57 487.77,-150.79 485.32,-157.35"/>
</g>
<!-- 1990977732336&#45;&gt;1990981523152 -->
<g id="edge9" class="edge">
<title>1990977732336&#45;&gt;1990981523152</title>
<path fill="none" stroke="black" d="M460.32,-197.73C468.42,-194.7 477.68,-191.25 486.79,-187.84"/>
<polygon fill="black" stroke="black" points="487.77,-191.21 495.92,-184.43 485.32,-184.65 487.77,-191.21"/>
</g>
<!-- 1990977245248&#45;&gt;1990977507632 -->
<g id="edge11" class="edge">
<title>1990977245248&#45;&gt;1990977507632</title>
<path fill="none" stroke="black" d="M658.56,-171C665.94,-171 674.24,-171 682.61,-171"/>
<polygon fill="black" stroke="black" points="682.46,-174.5 692.46,-171 682.46,-167.5 682.46,-174.5"/>
</g>
<!-- 1990976056320&#45;&gt;1990976050560 -->
<g id="edge13" class="edge">
<title>1990976056320&#45;&gt;1990976050560</title>
<path fill="none" stroke="black" d="M871.06,-171C878.44,-171 886.74,-171 895.11,-171"/>
<polygon fill="black" stroke="black" points="894.96,-174.5 904.96,-171 894.96,-167.5 894.96,-174.5"/>
</g>
<!-- 1990976052528&#45;&gt;1990976048400 -->
<g id="edge15" class="edge">
<title>1990976052528&#45;&gt;1990976048400</title>
<path fill="none" stroke="black" d="M1083.52,-171C1090.9,-171 1099.2,-171 1107.53,-171"/>
<polygon fill="black" stroke="black" points="1107.3,-174.5 1117.3,-171 1107.3,-167.5 1107.3,-174.5"/>
</g>
<!-- 1990976047488&#45;&gt;1990976059632 -->
<g id="edge22" class="edge">
<title>1990976047488&#45;&gt;1990976059632</title>
<path fill="none" stroke="black" d="M1291.58,-315C1299.09,-315 1307.6,-315 1316.21,-315"/>
<polygon fill="black" stroke="black" points="1316.02,-318.5 1326.02,-315 1316.02,-311.5 1316.02,-318.5"/>
</g>
<!-- 1990976054832&#45;&gt;1990976046096 -->
<g id="edge24" class="edge">
<title>1990976054832&#45;&gt;1990976046096</title>
<path fill="none" stroke="black" d="M1291.58,-243C1299.62,-243 1308.79,-243 1318.03,-243"/>
<polygon fill="black" stroke="black" points="1317.73,-246.5 1327.73,-243 1317.73,-239.5 1317.73,-246.5"/>
</g>
<!-- 1990976046432&#45;&gt;1990976057664 -->
<g id="edge23" class="edge">
<title>1990976046432&#45;&gt;1990976057664</title>
<path fill="none" stroke="black" d="M1291.58,-171C1301.57,-171 1313.31,-171 1324.74,-171"/>
<polygon fill="black" stroke="black" points="1324.48,-174.5 1334.48,-171 1324.48,-167.5 1324.48,-174.5"/>
</g>
<!-- 1990976050272&#45;&gt;1990976060448 -->
<g id="edge25" class="edge">
<title>1990976050272&#45;&gt;1990976060448</title>
<path fill="none" stroke="black" d="M1291.58,-99C1298.92,-99 1307.21,-99 1315.63,-99"/>
<polygon fill="black" stroke="black" points="1315.59,-102.5 1325.59,-99 1315.59,-95.5 1315.59,-102.5"/>
</g>
<!-- 1990976046192&#45;&gt;1990976053392 -->
<g id="edge21" class="edge">
<title>1990976046192&#45;&gt;1990976053392</title>
<path fill="none" stroke="black" d="M1291.58,-27C1300.53,-27 1310.88,-27 1321.15,-27"/>
<polygon fill="black" stroke="black" points="1321.13,-30.5 1331.13,-27 1321.13,-23.5 1321.13,-30.5"/>
</g>
<!-- 1990976060976&#45;&gt;1990976060400 -->
<g id="edge33" class="edge">
<title>1990976060976&#45;&gt;1990976060400</title>
<path fill="none" stroke="black" d="M1513.02,-171C1520.4,-171 1528.7,-171 1537.03,-171"/>
<polygon fill="black" stroke="black" points="1536.8,-174.5 1546.8,-171 1536.8,-167.5 1536.8,-174.5"/>
</g>
<!-- 1990976053056&#45;&gt;1990976060400 -->
<g id="edge31" class="edge">
<title>1990976053056&#45;&gt;1990976060400</title>
<path fill="none" stroke="black" d="M1502.47,-293.33C1505.87,-288.61 1509.44,-283.65 1512.75,-279 1532.14,-251.8 1554.07,-220.58 1569.38,-198.73"/>
<polygon fill="black" stroke="black" points="1572.18,-200.83 1575.04,-190.63 1566.44,-196.82 1572.18,-200.83"/>
</g>
<!-- 1990976056032&#45;&gt;1990976060400 -->
<g id="edge32" class="edge">
<title>1990976056032&#45;&gt;1990976060400</title>
<path fill="none" stroke="black" d="M1508.38,-114.27C1521.55,-123.57 1538.69,-135.66 1553.76,-146.3"/>
<polygon fill="black" stroke="black" points="1551.39,-148.91 1561.58,-151.82 1555.43,-143.19 1551.39,-148.91"/>
</g>
<!-- 1990976054112&#45;&gt;1990976060400 -->
<g id="edge35" class="edge">
<title>1990976054112&#45;&gt;1990976060400</title>
<path fill="none" stroke="black" d="M1502.47,-48.67C1505.87,-53.39 1509.44,-58.35 1512.75,-63 1532.14,-90.2 1554.07,-121.42 1569.38,-143.27"/>
<polygon fill="black" stroke="black" points="1566.44,-145.18 1575.04,-151.37 1572.18,-141.17 1566.44,-145.18"/>
</g>
<!-- 1990976058480&#45;&gt;1990976060400 -->
<g id="edge34" class="edge">
<title>1990976058480&#45;&gt;1990976060400</title>
<path fill="none" stroke="black" d="M1508.38,-227.73C1521.55,-218.43 1538.69,-206.34 1553.76,-195.7"/>
<polygon fill="black" stroke="black" points="1555.43,-198.81 1561.58,-190.18 1551.39,-193.09 1555.43,-198.81"/>
</g>
<!-- 1990976056080&#45;&gt;1990976060688 -->
<g id="edge37" class="edge">
<title>1990976056080&#45;&gt;1990976060688</title>
<path fill="none" stroke="black" d="M1721.02,-171C1728.4,-171 1736.7,-171 1745.03,-171"/>
<polygon fill="black" stroke="black" points="1744.8,-174.5 1754.8,-171 1744.8,-167.5 1744.8,-174.5"/>
</g>
<!-- 1990976057760&#45;&gt;1990976059152 -->
<g id="edge39" class="edge">
<title>1990976057760&#45;&gt;1990976059152</title>
<path fill="none" stroke="black" d="M1928.38,-164.84C1936.07,-162.99 1944.75,-160.9 1953.31,-158.84"/>
<polygon fill="black" stroke="black" points="1954.02,-162.27 1962.93,-156.53 1952.39,-155.46 1954.02,-162.27"/>
</g>
<!-- 1990977723792&#45;&gt;1990977722832 -->
<g id="edge41" class="edge">
<title>1990977723792&#45;&gt;1990977722832</title>
<path fill="none" stroke="black" d="M2124.36,-143C2131.78,-143 2140.11,-143 2148.46,-143"/>
<polygon fill="black" stroke="black" points="2148.27,-146.5 2158.27,-143 2148.27,-139.5 2148.27,-146.5"/>
</g>
<!-- 1990977718368&#45;&gt;1990977718656 -->
<g id="edge43" class="edge">
<title>1990977718368&#45;&gt;1990977718656</title>
<path fill="none" stroke="black" d="M2333.07,-143C2340.44,-143 2348.75,-143 2357.13,-143"/>
<polygon fill="black" stroke="black" points="2357.02,-146.5 2367.02,-143 2357.02,-139.5 2357.02,-146.5"/>
</g>
<!-- 1990982248080&#45;&gt;1990977727008 -->
<g id="edge45" class="edge">
<title>1990982248080&#45;&gt;1990977727008</title>
<path fill="none" stroke="black" d="M2547.87,-143C2558.65,-143 2571.33,-143 2583.06,-143"/>
<polygon fill="black" stroke="black" points="2582.87,-146.5 2592.87,-143 2582.87,-139.5 2582.87,-146.5"/>
</g>
<!-- 1990982248080&#45;&gt;1990977729984 -->
<g id="edge46" class="edge">
<title>1990982248080&#45;&gt;1990977729984</title>
<path fill="none" stroke="black" d="M2544.8,-155.66C2554.46,-160.91 2566,-167.18 2577.13,-173.23"/>
<polygon fill="black" stroke="black" points="2575.39,-176.27 2585.85,-177.97 2578.74,-170.12 2575.39,-176.27"/>
</g>
</g>
</svg>
