<?xml version="1.0" encoding="UTF-8" standalone="no"?>
<!DOCTYPE svg PUBLIC "-//W3C//DTD SVG 1.1//EN"
 "http://www.w3.org/Graphics/SVG/1.1/DTD/svg11.dtd">
<!-- Generated by graphviz version 11.0.0 (20240428.1522)
 -->
<!-- Title: imdf_net_1754052469.9328597 Pages: 1 -->
<svg width="3330pt" height="278pt"
 viewBox="0.00 0.00 3329.50 278.00" xmlns="http://www.w3.org/2000/svg" xmlns:xlink="http://www.w3.org/1999/xlink">
<g id="graph0" class="graph" transform="scale(1 1) rotate(0) translate(4 274)">
<title>imdf_net_1754052469.9328597</title>
<polygon fill="white" stroke="none" points="-4,4 -4,-274 3325.5,-274 3325.5,4 -4,4"/>
<!-- 1990979650288 -->
<g id="node1" class="node">
<title>1990979650288</title>
<polygon fill="white" stroke="black" points="174.25,-153 90,-153 90,-117 174.25,-117 174.25,-153"/>
<text text-anchor="middle" x="132.12" y="-129.97" font-family="Times New Roman,serif" font-size="12.00">Artifact Intake</text>
</g>
<!-- 1990979659312 -->
<g id="node24" class="node">
<title>1990979659312</title>
<ellipse fill="white" stroke="black" cx="237.25" cy="-135" rx="27" ry="27"/>
</g>
<!-- 1990979650288&#45;&gt;1990979659312 -->
<g id="edge2" class="edge">
<title>1990979650288&#45;&gt;1990979659312</title>
<path fill="none" stroke="black" d="M174.48,-135C182.44,-135 190.74,-135 198.58,-135"/>
<polygon fill="black" stroke="black" points="198.5,-138.5 208.5,-135 198.5,-131.5 198.5,-138.5"/>
</g>
<!-- 1990979649952 -->
<g id="node2" class="node">
<title>1990979649952</title>
<polygon fill="white" stroke="black" points="397.25,-153 300.25,-153 300.25,-117 397.25,-117 397.25,-153"/>
<text text-anchor="middle" x="348.75" y="-129.97" font-family="Times New Roman,serif" font-size="12.00">Condition Check</text>
</g>
<!-- 1990979657344 -->
<g id="node25" class="node">
<title>1990979657344</title>
<ellipse fill="white" stroke="black" cx="460.25" cy="-135" rx="27" ry="27"/>
</g>
<!-- 1990979649952&#45;&gt;1990979657344 -->
<g id="edge4" class="edge">
<title>1990979649952&#45;&gt;1990979657344</title>
<path fill="none" stroke="black" d="M397.46,-135C405.57,-135 413.9,-135 421.7,-135"/>
<polygon fill="black" stroke="black" points="421.54,-138.5 431.54,-135 421.54,-131.5 421.54,-138.5"/>
</g>
<!-- 1990979655472 -->
<g id="node3" class="node">
<title>1990979655472</title>
<polygon fill="white" stroke="black" points="622.5,-153 523.25,-153 523.25,-117 622.5,-117 622.5,-153"/>
<text text-anchor="middle" x="572.88" y="-129.97" font-family="Times New Roman,serif" font-size="12.00">Material Analysis</text>
</g>
<!-- 1990978627696 -->
<g id="node26" class="node">
<title>1990978627696</title>
<ellipse fill="white" stroke="black" cx="685.5" cy="-171" rx="27" ry="27"/>
</g>
<!-- 1990979655472&#45;&gt;1990978627696 -->
<g id="edge6" class="edge">
<title>1990979655472&#45;&gt;1990978627696</title>
<path fill="none" stroke="black" d="M622.72,-150.89C631.39,-153.72 640.28,-156.61 648.52,-159.29"/>
<polygon fill="black" stroke="black" points="647.23,-162.55 657.82,-162.32 649.4,-155.9 647.23,-162.55"/>
</g>
<!-- 1990978632832 -->
<g id="node27" class="node">
<title>1990978632832</title>
<ellipse fill="white" stroke="black" cx="685.5" cy="-99" rx="27" ry="27"/>
</g>
<!-- 1990979655472&#45;&gt;1990978632832 -->
<g id="edge7" class="edge">
<title>1990979655472&#45;&gt;1990978632832</title>
<path fill="none" stroke="black" d="M622.72,-119.11C631.39,-116.28 640.28,-113.39 648.52,-110.71"/>
<polygon fill="black" stroke="black" points="649.4,-114.1 657.82,-107.68 647.23,-107.45 649.4,-114.1"/>
</g>
<!-- 1990978627072 -->
<g id="node4" class="node">
<title>1990978627072</title>
<polygon fill="white" stroke="black" points="851.5,-117 748.5,-117 748.5,-81 851.5,-81 851.5,-117"/>
<text text-anchor="middle" x="800" y="-93.97" font-family="Times New Roman,serif" font-size="12.00">Spectroscopy Test</text>
</g>
<!-- 1990978626496 -->
<g id="node29" class="node">
<title>1990978626496</title>
<ellipse fill="white" stroke="black" cx="914.5" cy="-99" rx="27" ry="27"/>
</g>
<!-- 1990978627072&#45;&gt;1990978626496 -->
<g id="edge10" class="edge">
<title>1990978627072&#45;&gt;1990978626496</title>
<path fill="none" stroke="black" d="M851.98,-99C860,-99 868.15,-99 875.79,-99"/>
<polygon fill="black" stroke="black" points="875.77,-102.5 885.77,-99 875.77,-95.5 875.77,-102.5"/>
</g>
<!-- 1990978618576 -->
<g id="node5" class="node">
<title>1990978618576</title>
<polygon fill="white" stroke="black" points="851.12,-189 748.88,-189 748.88,-153 851.12,-153 851.12,-189"/>
<text text-anchor="middle" x="800" y="-165.97" font-family="Times New Roman,serif" font-size="12.00">Radiocarbon Date</text>
</g>
<!-- 1990978627216 -->
<g id="node28" class="node">
<title>1990978627216</title>
<ellipse fill="white" stroke="black" cx="914.5" cy="-171" rx="27" ry="27"/>
</g>
<!-- 1990978618576&#45;&gt;1990978627216 -->
<g id="edge11" class="edge">
<title>1990978618576&#45;&gt;1990978627216</title>
<path fill="none" stroke="black" d="M851.33,-171C859.56,-171 867.97,-171 875.83,-171"/>
<polygon fill="black" stroke="black" points="875.74,-174.5 885.74,-171 875.74,-167.5 875.74,-174.5"/>
</g>
<!-- 1990978620592 -->
<g id="node6" class="node">
<title>1990978620592</title>
<polygon fill="white" stroke="black" points="1095.5,-153 977.5,-153 977.5,-117 1095.5,-117 1095.5,-153"/>
<text text-anchor="middle" x="1036.5" y="-129.97" font-family="Times New Roman,serif" font-size="12.00">Provenance Research</text>
</g>
<!-- 1990978619392 -->
<g id="node30" class="node">
<title>1990978619392</title>
<ellipse fill="white" stroke="black" cx="1158.5" cy="-171" rx="27" ry="27"/>
</g>
<!-- 1990978620592&#45;&gt;1990978619392 -->
<g id="edge15" class="edge">
<title>1990978620592&#45;&gt;1990978619392</title>
<path fill="none" stroke="black" d="M1095.74,-152.47C1104.51,-155.1 1113.33,-157.75 1121.44,-160.18"/>
<polygon fill="black" stroke="black" points="1120.34,-163.51 1130.93,-163.03 1122.35,-156.8 1120.34,-163.51"/>
</g>
<!-- 1990978626736 -->
<g id="node31" class="node">
<title>1990978626736</title>
<ellipse fill="white" stroke="black" cx="1158.5" cy="-99" rx="27" ry="27"/>
</g>
<!-- 1990978620592&#45;&gt;1990978626736 -->
<g id="edge14" class="edge">
<title>1990978620592&#45;&gt;1990978626736</title>
<path fill="none" stroke="black" d="M1095.74,-117.53C1104.51,-114.9 1113.33,-112.25 1121.44,-109.82"/>
<polygon fill="black" stroke="black" points="1122.35,-113.2 1130.93,-106.97 1120.34,-106.49 1122.35,-113.2"/>
</g>
<!-- 1990978631584 -->
<g id="node7" class="node">
<title>1990978631584</title>
<polygon fill="white" stroke="black" points="1311,-189 1221.5,-189 1221.5,-153 1311,-153 1311,-189"/>
<text text-anchor="middle" x="1266.25" y="-165.97" font-family="Times New Roman,serif" font-size="12.00">Archive Search</text>
</g>
<!-- 1990978624432 -->
<g id="node33" class="node">
<title>1990978624432</title>
<ellipse fill="white" stroke="black" cx="1374" cy="-171" rx="27" ry="27"/>
</g>
<!-- 1990978631584&#45;&gt;1990978624432 -->
<g id="edge19" class="edge">
<title>1990978631584&#45;&gt;1990978624432</title>
<path fill="none" stroke="black" d="M1311.48,-171C1319.45,-171 1327.69,-171 1335.45,-171"/>
<polygon fill="black" stroke="black" points="1335.24,-174.5 1345.24,-171 1335.24,-167.5 1335.24,-174.5"/>
</g>
<!-- 1990978618720 -->
<g id="node8" class="node">
<title>1990978618720</title>
<polygon fill="white" stroke="black" points="1309.88,-117 1222.62,-117 1222.62,-81 1309.88,-81 1309.88,-117"/>
<text text-anchor="middle" x="1266.25" y="-93.97" font-family="Times New Roman,serif" font-size="12.00">Expert Consult</text>
</g>
<!-- 1990978632784 -->
<g id="node32" class="node">
<title>1990978632784</title>
<ellipse fill="white" stroke="black" cx="1374" cy="-99" rx="27" ry="27"/>
</g>
<!-- 1990978618720&#45;&gt;1990978632784 -->
<g id="edge18" class="edge">
<title>1990978618720&#45;&gt;1990978632784</title>
<path fill="none" stroke="black" d="M1310.26,-99C1318.56,-99 1327.2,-99 1335.31,-99"/>
<polygon fill="black" stroke="black" points="1335.21,-102.5 1345.21,-99 1335.21,-95.5 1335.21,-102.5"/>
</g>
<!-- 1990978622992 -->
<g id="node9" class="node">
<title>1990978622992</title>
<polygon fill="black" stroke="black" points="1491,-153 1437,-153 1437,-117 1491,-117 1491,-153"/>
</g>
<!-- 1990978624816 -->
<g id="node34" class="node">
<title>1990978624816</title>
<ellipse fill="white" stroke="black" cx="1554" cy="-135" rx="27" ry="27"/>
</g>
<!-- 1990978622992&#45;&gt;1990978624816 -->
<g id="edge22" class="edge">
<title>1990978622992&#45;&gt;1990978624816</title>
<path fill="none" stroke="black" d="M1491.4,-135C1498.89,-135 1507.18,-135 1515.2,-135"/>
<polygon fill="black" stroke="black" points="1515.1,-138.5 1525.1,-135 1515.1,-131.5 1515.1,-138.5"/>
</g>
<!-- 1990978626832 -->
<g id="node10" class="node">
<title>1990978626832</title>
<polygon fill="white" stroke="black" points="1715.5,-178 1617,-178 1617,-142 1715.5,-142 1715.5,-178"/>
<text text-anchor="middle" x="1666.25" y="-154.97" font-family="Times New Roman,serif" font-size="12.00">Forensic Imaging</text>
</g>
<!-- 1990978617952 -->
<g id="node35" class="node">
<title>1990978617952</title>
<ellipse fill="white" stroke="black" cx="1778.5" cy="-167" rx="27" ry="27"/>
</g>
<!-- 1990978626832&#45;&gt;1990978617952 -->
<g id="edge25" class="edge">
<title>1990978626832&#45;&gt;1990978617952</title>
<path fill="none" stroke="black" d="M1715.93,-163.09C1723.97,-163.6 1732.2,-164.12 1739.92,-164.61"/>
<polygon fill="black" stroke="black" points="1739.44,-168.09 1749.64,-165.23 1739.88,-161.1 1739.44,-168.09"/>
</g>
<!-- 1990978632640 -->
<g id="node11" class="node">
<title>1990978632640</title>
<polygon fill="black" stroke="black" points="1805.5,-122 1751.5,-122 1751.5,-86 1805.5,-86 1805.5,-122"/>
</g>
<!-- 1990978621648 -->
<g id="node36" class="node">
<title>1990978621648</title>
<ellipse fill="white" stroke="black" cx="1997" cy="-135" rx="27" ry="27"/>
</g>
<!-- 1990978632640&#45;&gt;1990978621648 -->
<g id="edge26" class="edge">
<title>1990978632640&#45;&gt;1990978621648</title>
<path fill="none" stroke="black" d="M1805.61,-107.74C1843.73,-113.2 1914.81,-123.37 1958.51,-129.63"/>
<polygon fill="black" stroke="black" points="1957.9,-133.08 1968.29,-131.03 1958.89,-126.15 1957.9,-133.08"/>
</g>
<!-- 1990978624384 -->
<g id="node12" class="node">
<title>1990978624384</title>
<polygon fill="black" stroke="black" points="2114,-153 2060,-153 2060,-117 2114,-117 2114,-153"/>
</g>
<!-- 1990977922560 -->
<g id="node37" class="node">
<title>1990977922560</title>
<ellipse fill="white" stroke="black" cx="2177" cy="-171" rx="27" ry="27"/>
</g>
<!-- 1990978624384&#45;&gt;1990977922560 -->
<g id="edge30" class="edge">
<title>1990978624384&#45;&gt;1990977922560</title>
<path fill="none" stroke="black" d="M2114.4,-145.8C2122.75,-149.22 2132.12,-153.05 2140.97,-156.67"/>
<polygon fill="black" stroke="black" points="2139.44,-159.83 2150.02,-160.37 2142.09,-153.35 2139.44,-159.83"/>
</g>
<!-- 1990977919056 -->
<g id="node38" class="node">
<title>1990977919056</title>
<ellipse fill="white" stroke="black" cx="2177" cy="-99" rx="27" ry="27"/>
</g>
<!-- 1990978624384&#45;&gt;1990977919056 -->
<g id="edge31" class="edge">
<title>1990978624384&#45;&gt;1990977919056</title>
<path fill="none" stroke="black" d="M2114.4,-124.2C2122.75,-120.78 2132.12,-116.95 2140.97,-113.33"/>
<polygon fill="black" stroke="black" points="2142.09,-116.65 2150.02,-109.63 2139.44,-110.17 2142.09,-116.65"/>
</g>
<!-- 1990977923472 -->
<g id="node13" class="node">
<title>1990977923472</title>
<polygon fill="white" stroke="black" points="1934,-178 1841.5,-178 1841.5,-142 1934,-142 1934,-178"/>
<text text-anchor="middle" x="1887.75" y="-154.97" font-family="Times New Roman,serif" font-size="12.00">Residue Testing</text>
</g>
<!-- 1990977923472&#45;&gt;1990978621648 -->
<g id="edge29" class="edge">
<title>1990977923472&#45;&gt;1990978621648</title>
<path fill="none" stroke="black" d="M1934.23,-149.4C1942.62,-147.44 1951.27,-145.43 1959.35,-143.54"/>
<polygon fill="black" stroke="black" points="1959.88,-147.01 1968.83,-141.33 1958.29,-140.2 1959.88,-147.01"/>
</g>
<!-- 1990977917904 -->
<g id="node14" class="node">
<title>1990977917904</title>
<polygon fill="white" stroke="black" points="2340,-189 2246.75,-189 2246.75,-153 2340,-153 2340,-189"/>
<text text-anchor="middle" x="2293.38" y="-165.97" font-family="Times New Roman,serif" font-size="12.00">Legal Clearance</text>
</g>
<!-- 1990977926064 -->
<g id="node40" class="node">
<title>1990977926064</title>
<ellipse fill="white" stroke="black" cx="2409.75" cy="-171" rx="27" ry="27"/>
</g>
<!-- 1990977917904&#45;&gt;1990977926064 -->
<g id="edge34" class="edge">
<title>1990977917904&#45;&gt;1990977926064</title>
<path fill="none" stroke="black" d="M2340.24,-171C2350.4,-171 2361.06,-171 2370.86,-171"/>
<polygon fill="black" stroke="black" points="2370.79,-174.5 2380.79,-171 2370.79,-167.5 2370.79,-174.5"/>
</g>
<!-- 1990977916128 -->
<g id="node15" class="node">
<title>1990977916128</title>
<polygon fill="white" stroke="black" points="2346.75,-117 2240,-117 2240,-81 2346.75,-81 2346.75,-117"/>
<text text-anchor="middle" x="2293.38" y="-93.97" font-family="Times New Roman,serif" font-size="12.00">Compliance Check</text>
</g>
<!-- 1990977920880 -->
<g id="node39" class="node">
<title>1990977920880</title>
<ellipse fill="white" stroke="black" cx="2409.75" cy="-99" rx="27" ry="27"/>
</g>
<!-- 1990977916128&#45;&gt;1990977920880 -->
<g id="edge35" class="edge">
<title>1990977916128&#45;&gt;1990977920880</title>
<path fill="none" stroke="black" d="M2347.21,-99C2355.2,-99 2363.3,-99 2370.89,-99"/>
<polygon fill="black" stroke="black" points="2370.79,-102.5 2380.79,-99 2370.79,-95.5 2370.79,-102.5"/>
</g>
<!-- 1990977927888 -->
<g id="node16" class="node">
<title>1990977927888</title>
<polygon fill="black" stroke="black" points="2526.75,-153 2472.75,-153 2472.75,-117 2526.75,-117 2526.75,-153"/>
</g>
<!-- 1990977914496 -->
<g id="node41" class="node">
<title>1990977914496</title>
<ellipse fill="white" stroke="black" cx="2589.75" cy="-243" rx="27" ry="27"/>
</g>
<!-- 1990977927888&#45;&gt;1990977914496 -->
<g id="edge41" class="edge">
<title>1990977927888&#45;&gt;1990977914496</title>
<path fill="none" stroke="black" d="M2515.68,-153.32C2529.14,-169.84 2549.17,-194.43 2564.86,-213.68"/>
<polygon fill="black" stroke="black" points="2561.96,-215.66 2570.99,-221.2 2567.38,-211.24 2561.96,-215.66"/>
</g>
<!-- 1990977924768 -->
<g id="node42" class="node">
<title>1990977924768</title>
<ellipse fill="white" stroke="black" cx="2589.75" cy="-171" rx="27" ry="27"/>
</g>
<!-- 1990977927888&#45;&gt;1990977924768 -->
<g id="edge38" class="edge">
<title>1990977927888&#45;&gt;1990977924768</title>
<path fill="none" stroke="black" d="M2527.15,-145.8C2535.5,-149.22 2544.87,-153.05 2553.72,-156.67"/>
<polygon fill="black" stroke="black" points="2552.19,-159.83 2562.77,-160.37 2554.84,-153.35 2552.19,-159.83"/>
</g>
<!-- 1990977920784 -->
<g id="node43" class="node">
<title>1990977920784</title>
<ellipse fill="white" stroke="black" cx="2589.75" cy="-99" rx="27" ry="27"/>
</g>
<!-- 1990977927888&#45;&gt;1990977920784 -->
<g id="edge40" class="edge">
<title>1990977927888&#45;&gt;1990977920784</title>
<path fill="none" stroke="black" d="M2527.15,-124.2C2535.5,-120.78 2544.87,-116.95 2553.72,-113.33"/>
<polygon fill="black" stroke="black" points="2554.84,-116.65 2562.77,-109.63 2552.19,-110.17 2554.84,-116.65"/>
</g>
<!-- 1990977924000 -->
<g id="node44" class="node">
<title>1990977924000</title>
<ellipse fill="white" stroke="black" cx="2589.75" cy="-27" rx="27" ry="27"/>
</g>
<!-- 1990977927888&#45;&gt;1990977924000 -->
<g id="edge39" class="edge">
<title>1990977927888&#45;&gt;1990977924000</title>
<path fill="none" stroke="black" d="M2515.68,-116.68C2529.14,-100.16 2549.17,-75.57 2564.86,-56.32"/>
<polygon fill="black" stroke="black" points="2567.38,-58.76 2570.99,-48.8 2561.96,-54.34 2567.38,-58.76"/>
</g>
<!-- 1990977918000 -->
<g id="node17" class="node">
<title>1990977918000</title>
<polygon fill="white" stroke="black" points="2764,-117 2652.75,-117 2652.75,-81 2764,-81 2764,-117"/>
<text text-anchor="middle" x="2708.38" y="-93.97" font-family="Times New Roman,serif" font-size="12.00">Insurance Valuation</text>
</g>
<!-- 1990977924336 -->
<g id="node45" class="node">
<title>1990977924336</title>
<ellipse fill="white" stroke="black" cx="2827" cy="-99" rx="27" ry="27"/>
</g>
<!-- 1990977918000&#45;&gt;1990977924336 -->
<g id="edge49" class="edge">
<title>1990977918000&#45;&gt;1990977924336</title>
<path fill="none" stroke="black" d="M2764.27,-99C2772.34,-99 2780.49,-99 2788.11,-99"/>
<polygon fill="black" stroke="black" points="2788.04,-102.5 2798.04,-99 2788.04,-95.5 2788.04,-102.5"/>
</g>
<!-- 1990977929040 -->
<g id="node18" class="node">
<title>1990977929040</title>
<polygon fill="white" stroke="black" points="2753.12,-45 2663.62,-45 2663.62,-9 2753.12,-9 2753.12,-45"/>
<text text-anchor="middle" x="2708.38" y="-21.98" font-family="Times New Roman,serif" font-size="12.00">Digital Archive</text>
</g>
<!-- 1990977917184 -->
<g id="node46" class="node">
<title>1990977917184</title>
<ellipse fill="white" stroke="black" cx="2827" cy="-27" rx="27" ry="27"/>
</g>
<!-- 1990977929040&#45;&gt;1990977917184 -->
<g id="edge47" class="edge">
<title>1990977929040&#45;&gt;1990977917184</title>
<path fill="none" stroke="black" d="M2753.47,-27C2764.93,-27 2777.17,-27 2788.28,-27"/>
<polygon fill="black" stroke="black" points="2788.27,-30.5 2798.27,-27 2788.27,-23.5 2788.27,-30.5"/>
</g>
<!-- 1990977919440 -->
<g id="node19" class="node">
<title>1990977919440</title>
<polygon fill="white" stroke="black" points="2762.12,-261 2654.62,-261 2654.62,-225 2762.12,-225 2762.12,-261"/>
<text text-anchor="middle" x="2708.38" y="-237.97" font-family="Times New Roman,serif" font-size="12.00">Stakeholder Report</text>
</g>
<!-- 1990977916272 -->
<g id="node48" class="node">
<title>1990977916272</title>
<ellipse fill="white" stroke="black" cx="2827" cy="-243" rx="27" ry="27"/>
</g>
<!-- 1990977919440&#45;&gt;1990977916272 -->
<g id="edge48" class="edge">
<title>1990977919440&#45;&gt;1990977916272</title>
<path fill="none" stroke="black" d="M2762.57,-243C2771.21,-243 2779.99,-243 2788.17,-243"/>
<polygon fill="black" stroke="black" points="2788.1,-246.5 2798.1,-243 2788.1,-239.5 2788.1,-246.5"/>
</g>
<!-- 1990977923040 -->
<g id="node20" class="node">
<title>1990977923040</title>
<polygon fill="white" stroke="black" points="2752.75,-189 2664,-189 2664,-153 2752.75,-153 2752.75,-189"/>
<text text-anchor="middle" x="2708.38" y="-165.97" font-family="Times New Roman,serif" font-size="12.00">Documentation</text>
</g>
<!-- 1990977919344 -->
<g id="node47" class="node">
<title>1990977919344</title>
<ellipse fill="white" stroke="black" cx="2827" cy="-171" rx="27" ry="27"/>
</g>
<!-- 1990977923040&#45;&gt;1990977919344 -->
<g id="edge46" class="edge">
<title>1990977923040&#45;&gt;1990977919344</title>
<path fill="none" stroke="black" d="M2753.13,-171C2764.74,-171 2777.17,-171 2788.42,-171"/>
<polygon fill="black" stroke="black" points="2788.12,-174.5 2798.12,-171 2788.12,-167.5 2788.12,-174.5"/>
</g>
<!-- 1990977925440 -->
<g id="node21" class="node">
<title>1990977925440</title>
<polygon fill="white" stroke="black" points="2990.75,-153 2890,-153 2890,-117 2990.75,-117 2990.75,-153"/>
<text text-anchor="middle" x="2940.38" y="-129.97" font-family="Times New Roman,serif" font-size="12.00">Secure Packaging</text>
</g>
<!-- 1990977914256 -->
<g id="node49" class="node">
<title>1990977914256</title>
<ellipse fill="white" stroke="black" cx="3053.75" cy="-135" rx="27" ry="27"/>
</g>
<!-- 1990977925440&#45;&gt;1990977914256 -->
<g id="edge54" class="edge">
<title>1990977925440&#45;&gt;1990977914256</title>
<path fill="none" stroke="black" d="M2991.2,-135C2999.18,-135 3007.33,-135 3014.97,-135"/>
<polygon fill="black" stroke="black" points="3014.95,-138.5 3024.95,-135 3014.95,-131.5 3014.95,-138.5"/>
</g>
<!-- 1990977927552 -->
<g id="node22" class="node">
<title>1990977927552</title>
<polygon fill="white" stroke="black" points="3223.5,-153 3116.75,-153 3116.75,-117 3223.5,-117 3223.5,-153"/>
<text text-anchor="middle" x="3170.12" y="-129.97" font-family="Times New Roman,serif" font-size="12.00">Shipment Logistics</text>
</g>
<!-- 1990981843184 -->
<g id="node50" class="node">
<title>1990981843184</title>
<ellipse fill="white" stroke="black" cx="3290.5" cy="-135" rx="27" ry="27"/>
<ellipse fill="none" stroke="black" cx="3290.5" cy="-135" rx="31" ry="31"/>
<text text-anchor="start" x="3274" y="-119.6" font-family="Times New Roman,serif" font-size="32.00">■</text>
</g>
<!-- 1990977927552&#45;&gt;1990981843184 -->
<g id="edge56" class="edge">
<title>1990977927552&#45;&gt;1990981843184</title>
<path fill="none" stroke="black" d="M3223.74,-135C3231.77,-135 3239.97,-135 3247.73,-135"/>
<polygon fill="black" stroke="black" points="3247.59,-138.5 3257.59,-135 3247.59,-131.5 3247.59,-138.5"/>
</g>
<!-- 1990981834016 -->
<g id="node23" class="node">
<title>1990981834016</title>
<ellipse fill="white" stroke="black" cx="27" cy="-135" rx="27" ry="27"/>
<text text-anchor="start" x="9.75" y="-117.7" font-family="Times New Roman,serif" font-size="34.00">●</text>
</g>
<!-- 1990981834016&#45;&gt;1990979650288 -->
<g id="edge1" class="edge">
<title>1990981834016&#45;&gt;1990979650288</title>
<path fill="none" stroke="black" d="M54.29,-135C61.67,-135 69.98,-135 78.32,-135"/>
<polygon fill="black" stroke="black" points="78.14,-138.5 88.14,-135 78.14,-131.5 78.14,-138.5"/>
</g>
<!-- 1990979659312&#45;&gt;1990979649952 -->
<g id="edge3" class="edge">
<title>1990979659312&#45;&gt;1990979649952</title>
<path fill="none" stroke="black" d="M264.48,-135C271.79,-135 280.03,-135 288.43,-135"/>
<polygon fill="black" stroke="black" points="288.37,-138.5 298.37,-135 288.37,-131.5 288.37,-138.5"/>
</g>
<!-- 1990979657344&#45;&gt;1990979655472 -->
<g id="edge5" class="edge">
<title>1990979657344&#45;&gt;1990979655472</title>
<path fill="none" stroke="black" d="M487.75,-135C495.04,-135 503.27,-135 511.64,-135"/>
<polygon fill="black" stroke="black" points="511.57,-138.5 521.57,-135 511.57,-131.5 511.57,-138.5"/>
</g>
<!-- 1990978627696&#45;&gt;1990978618576 -->
<g id="edge8" class="edge">
<title>1990978627696&#45;&gt;1990978618576</title>
<path fill="none" stroke="black" d="M712.88,-171C720.28,-171 728.66,-171 737.21,-171"/>
<polygon fill="black" stroke="black" points="736.97,-174.5 746.97,-171 736.97,-167.5 736.97,-174.5"/>
</g>
<!-- 1990978632832&#45;&gt;1990978627072 -->
<g id="edge9" class="edge">
<title>1990978632832&#45;&gt;1990978627072</title>
<path fill="none" stroke="black" d="M712.88,-99C720.11,-99 728.27,-99 736.61,-99"/>
<polygon fill="black" stroke="black" points="736.52,-102.5 746.52,-99 736.52,-95.5 736.52,-102.5"/>
</g>
<!-- 1990978627216&#45;&gt;1990978620592 -->
<g id="edge13" class="edge">
<title>1990978627216&#45;&gt;1990978620592</title>
<path fill="none" stroke="black" d="M940.66,-163.45C948.36,-161.14 957.24,-158.48 966.41,-155.73"/>
<polygon fill="black" stroke="black" points="967.23,-159.13 975.81,-152.91 965.22,-152.43 967.23,-159.13"/>
</g>
<!-- 1990978626496&#45;&gt;1990978620592 -->
<g id="edge12" class="edge">
<title>1990978626496&#45;&gt;1990978620592</title>
<path fill="none" stroke="black" d="M940.66,-106.55C948.36,-108.86 957.24,-111.52 966.41,-114.27"/>
<polygon fill="black" stroke="black" points="965.22,-117.57 975.81,-117.09 967.23,-110.87 965.22,-117.57"/>
</g>
<!-- 1990978619392&#45;&gt;1990978631584 -->
<g id="edge17" class="edge">
<title>1990978619392&#45;&gt;1990978631584</title>
<path fill="none" stroke="black" d="M1185.91,-171C1193.23,-171 1201.46,-171 1209.78,-171"/>
<polygon fill="black" stroke="black" points="1209.58,-174.5 1219.58,-171 1209.58,-167.5 1209.58,-174.5"/>
</g>
<!-- 1990978626736&#45;&gt;1990978618720 -->
<g id="edge16" class="edge">
<title>1990978626736&#45;&gt;1990978618720</title>
<path fill="none" stroke="black" d="M1185.91,-99C1193.57,-99 1202.22,-99 1210.93,-99"/>
<polygon fill="black" stroke="black" points="1210.81,-102.5 1220.81,-99 1210.81,-95.5 1210.81,-102.5"/>
</g>
<!-- 1990978632784&#45;&gt;1990978622992 -->
<g id="edge20" class="edge">
<title>1990978632784&#45;&gt;1990978622992</title>
<path fill="none" stroke="black" d="M1399.51,-109.03C1407.76,-112.4 1417.14,-116.24 1426.12,-119.91"/>
<polygon fill="black" stroke="black" points="1424.79,-123.15 1435.37,-123.7 1427.44,-116.67 1424.79,-123.15"/>
</g>
<!-- 1990978624432&#45;&gt;1990978622992 -->
<g id="edge21" class="edge">
<title>1990978624432&#45;&gt;1990978622992</title>
<path fill="none" stroke="black" d="M1399.51,-160.97C1407.76,-157.6 1417.14,-153.76 1426.12,-150.09"/>
<polygon fill="black" stroke="black" points="1427.44,-153.33 1435.37,-146.3 1424.79,-146.85 1427.44,-153.33"/>
</g>
<!-- 1990978624816&#45;&gt;1990978626832 -->
<g id="edge23" class="edge">
<title>1990978624816&#45;&gt;1990978626832</title>
<path fill="none" stroke="black" d="M1580.85,-140.86C1588.37,-142.57 1596.91,-144.5 1605.6,-146.47"/>
<polygon fill="black" stroke="black" points="1604.62,-149.84 1615.15,-148.64 1606.17,-143.01 1604.62,-149.84"/>
</g>
<!-- 1990978624816&#45;&gt;1990978632640 -->
<g id="edge24" class="edge">
<title>1990978624816&#45;&gt;1990978632640</title>
<path fill="none" stroke="black" d="M1580.96,-131.38C1620.11,-125.93 1694.46,-115.57 1739.65,-109.27"/>
<polygon fill="black" stroke="black" points="1740.1,-112.75 1749.52,-107.9 1739.13,-105.81 1740.1,-112.75"/>
</g>
<!-- 1990978617952&#45;&gt;1990977923472 -->
<g id="edge28" class="edge">
<title>1990978617952&#45;&gt;1990977923472</title>
<path fill="none" stroke="black" d="M1805.74,-165.29C1813.07,-164.81 1821.34,-164.27 1829.72,-163.72"/>
<polygon fill="black" stroke="black" points="1829.87,-167.22 1839.62,-163.08 1829.42,-160.23 1829.87,-167.22"/>
</g>
<!-- 1990978621648&#45;&gt;1990978624384 -->
<g id="edge27" class="edge">
<title>1990978621648&#45;&gt;1990978624384</title>
<path fill="none" stroke="black" d="M2024.4,-135C2031.89,-135 2040.18,-135 2048.2,-135"/>
<polygon fill="black" stroke="black" points="2048.1,-138.5 2058.1,-135 2048.1,-131.5 2048.1,-138.5"/>
</g>
<!-- 1990977922560&#45;&gt;1990977917904 -->
<g id="edge33" class="edge">
<title>1990977922560&#45;&gt;1990977917904</title>
<path fill="none" stroke="black" d="M2204.24,-171C2213.54,-171 2224.4,-171 2235.26,-171"/>
<polygon fill="black" stroke="black" points="2235,-174.5 2245,-171 2235,-167.5 2235,-174.5"/>
</g>
<!-- 1990977919056&#45;&gt;1990977916128 -->
<g id="edge32" class="edge">
<title>1990977919056&#45;&gt;1990977916128</title>
<path fill="none" stroke="black" d="M2204.24,-99C2211.58,-99 2219.89,-99 2228.4,-99"/>
<polygon fill="black" stroke="black" points="2228.13,-102.5 2238.13,-99 2228.13,-95.5 2228.13,-102.5"/>
</g>
<!-- 1990977920880&#45;&gt;1990977927888 -->
<g id="edge36" class="edge">
<title>1990977920880&#45;&gt;1990977927888</title>
<path fill="none" stroke="black" d="M2435.26,-109.03C2443.51,-112.4 2452.89,-116.24 2461.87,-119.91"/>
<polygon fill="black" stroke="black" points="2460.54,-123.15 2471.12,-123.7 2463.19,-116.67 2460.54,-123.15"/>
</g>
<!-- 1990977926064&#45;&gt;1990977927888 -->
<g id="edge37" class="edge">
<title>1990977926064&#45;&gt;1990977927888</title>
<path fill="none" stroke="black" d="M2435.26,-160.97C2443.51,-157.6 2452.89,-153.76 2461.87,-150.09"/>
<polygon fill="black" stroke="black" points="2463.19,-153.33 2471.12,-146.3 2460.54,-146.85 2463.19,-153.33"/>
</g>
<!-- 1990977914496&#45;&gt;1990977919440 -->
<g id="edge45" class="edge">
<title>1990977914496&#45;&gt;1990977919440</title>
<path fill="none" stroke="black" d="M2617.21,-243C2624.96,-243 2633.8,-243 2642.83,-243"/>
<polygon fill="black" stroke="black" points="2642.8,-246.5 2652.8,-243 2642.8,-239.5 2642.8,-246.5"/>
</g>
<!-- 1990977924768&#45;&gt;1990977923040 -->
<g id="edge42" class="edge">
<title>1990977924768&#45;&gt;1990977923040</title>
<path fill="none" stroke="black" d="M2617.21,-171C2627.71,-171 2640.19,-171 2652.47,-171"/>
<polygon fill="black" stroke="black" points="2652.12,-174.5 2662.12,-171 2652.12,-167.5 2652.12,-174.5"/>
</g>
<!-- 1990977920784&#45;&gt;1990977918000 -->
<g id="edge44" class="edge">
<title>1990977920784&#45;&gt;1990977918000</title>
<path fill="none" stroke="black" d="M2617.21,-99C2624.42,-99 2632.57,-99 2640.94,-99"/>
<polygon fill="black" stroke="black" points="2640.92,-102.5 2650.92,-99 2640.92,-95.5 2640.92,-102.5"/>
</g>
<!-- 1990977924000&#45;&gt;1990977929040 -->
<g id="edge43" class="edge">
<title>1990977924000&#45;&gt;1990977929040</title>
<path fill="none" stroke="black" d="M2617.21,-27C2627.5,-27 2639.7,-27 2651.74,-27"/>
<polygon fill="black" stroke="black" points="2651.66,-30.5 2661.66,-27 2651.66,-23.5 2651.66,-30.5"/>
</g>
<!-- 1990977924336&#45;&gt;1990977925440 -->
<g id="edge50" class="edge">
<title>1990977924336&#45;&gt;1990977925440</title>
<path fill="none" stroke="black" d="M2852.99,-107.08C2860.83,-109.61 2869.85,-112.53 2879.03,-115.5"/>
<polygon fill="black" stroke="black" points="2877.8,-118.78 2888.39,-118.52 2879.95,-112.12 2877.8,-118.78"/>
</g>
<!-- 1990977917184&#45;&gt;1990977925440 -->
<g id="edge52" class="edge">
<title>1990977917184&#45;&gt;1990977925440</title>
<path fill="none" stroke="black" d="M2847.15,-45.57C2865.1,-62.98 2892.14,-89.2 2912.3,-108.75"/>
<polygon fill="black" stroke="black" points="2909.78,-111.17 2919.39,-115.62 2914.65,-106.15 2909.78,-111.17"/>
</g>
<!-- 1990977919344&#45;&gt;1990977925440 -->
<g id="edge51" class="edge">
<title>1990977919344&#45;&gt;1990977925440</title>
<path fill="none" stroke="black" d="M2852.99,-162.92C2860.83,-160.39 2869.85,-157.47 2879.03,-154.5"/>
<polygon fill="black" stroke="black" points="2879.95,-157.88 2888.39,-151.48 2877.8,-151.22 2879.95,-157.88"/>
</g>
<!-- 1990977916272&#45;&gt;1990977925440 -->
<g id="edge53" class="edge">
<title>1990977916272&#45;&gt;1990977925440</title>
<path fill="none" stroke="black" d="M2847.15,-224.43C2865.1,-207.02 2892.14,-180.8 2912.3,-161.25"/>
<polygon fill="black" stroke="black" points="2914.65,-163.85 2919.39,-154.38 2909.78,-158.83 2914.65,-163.85"/>
</g>
<!-- 1990977914256&#45;&gt;1990977927552 -->
<g id="edge55" class="edge">
<title>1990977914256&#45;&gt;1990977927552</title>
<path fill="none" stroke="black" d="M3080.99,-135C3088.33,-135 3096.64,-135 3105.15,-135"/>
<polygon fill="black" stroke="black" points="3104.88,-138.5 3114.88,-135 3104.88,-131.5 3104.88,-138.5"/>
</g>
</g>
</svg>
