<?xml version="1.0" encoding="UTF-8" standalone="no"?>
<!DOCTYPE svg PUBLIC "-//W3C//DTD SVG 1.1//EN"
 "http://www.w3.org/Graphics/SVG/1.1/DTD/svg11.dtd">
<!-- Generated by graphviz version 11.0.0 (20240428.1522)
 -->
<!-- Title: imdf_net_1754052485.3088348 Pages: 1 -->
<svg width="3431pt" height="70pt"
 viewBox="0.00 0.00 3431.00 70.00" xmlns="http://www.w3.org/2000/svg" xmlns:xlink="http://www.w3.org/1999/xlink">
<g id="graph0" class="graph" transform="scale(1 1) rotate(0) translate(4 66)">
<title>imdf_net_1754052485.3088348</title>
<polygon fill="white" stroke="none" points="-4,4 -4,-66 3427,-66 3427,4 -4,4"/>
<!-- 1990982426768 -->
<g id="node1" class="node">
<title>1990982426768</title>
<polygon fill="white" stroke="black" points="168.25,-49 90,-49 90,-13 168.25,-13 168.25,-49"/>
<text text-anchor="middle" x="129.12" y="-25.98" font-family="Times New Roman,serif" font-size="12.00">Site Analysis</text>
</g>
<!-- 1990982426816 -->
<g id="node18" class="node">
<title>1990982426816</title>
<ellipse fill="white" stroke="black" cx="231.25" cy="-31" rx="27" ry="27"/>
</g>
<!-- 1990982426768&#45;&gt;1990982426816 -->
<g id="edge2" class="edge">
<title>1990982426768&#45;&gt;1990982426816</title>
<path fill="none" stroke="black" d="M168.55,-31C176.39,-31 184.63,-31 192.44,-31"/>
<polygon fill="black" stroke="black" points="192.36,-34.5 202.36,-31 192.36,-27.5 192.36,-34.5"/>
</g>
<!-- 1990982420720 -->
<g id="node2" class="node">
<title>1990982420720</title>
<polygon fill="white" stroke="black" points="359.75,-49 294.25,-49 294.25,-13 359.75,-13 359.75,-49"/>
<text text-anchor="middle" x="327" y="-25.98" font-family="Times New Roman,serif" font-size="12.00">Env Setup</text>
</g>
<!-- 1990982420576 -->
<g id="node19" class="node">
<title>1990982420576</title>
<ellipse fill="white" stroke="black" cx="422.75" cy="-31" rx="27" ry="27"/>
</g>
<!-- 1990982420720&#45;&gt;1990982420576 -->
<g id="edge4" class="edge">
<title>1990982420720&#45;&gt;1990982420576</title>
<path fill="none" stroke="black" d="M360,-31C367.77,-31 376.15,-31 384.15,-31"/>
<polygon fill="black" stroke="black" points="383.98,-34.5 393.98,-31 383.98,-27.5 383.98,-34.5"/>
</g>
<!-- 1990982421680 -->
<g id="node3" class="node">
<title>1990982421680</title>
<polygon fill="white" stroke="black" points="556.5,-49 485.75,-49 485.75,-13 556.5,-13 556.5,-49"/>
<text text-anchor="middle" x="521.12" y="-25.98" font-family="Times New Roman,serif" font-size="12.00">Seed Select</text>
</g>
<!-- 1990977211568 -->
<g id="node20" class="node">
<title>1990977211568</title>
<ellipse fill="white" stroke="black" cx="619.5" cy="-31" rx="27" ry="27"/>
</g>
<!-- 1990982421680&#45;&gt;1990977211568 -->
<g id="edge6" class="edge">
<title>1990982421680&#45;&gt;1990977211568</title>
<path fill="none" stroke="black" d="M556.92,-31C564.65,-31 572.89,-31 580.73,-31"/>
<polygon fill="black" stroke="black" points="580.72,-34.5 590.72,-31 580.72,-27.5 580.72,-34.5"/>
</g>
<!-- 1990977208880 -->
<g id="node4" class="node">
<title>1990977208880</title>
<polygon fill="white" stroke="black" points="784,-49 682.5,-49 682.5,-13 784,-13 784,-49"/>
<text text-anchor="middle" x="733.25" y="-25.98" font-family="Times New Roman,serif" font-size="12.00">Seed Germination</text>
</g>
<!-- 1990977210080 -->
<g id="node21" class="node">
<title>1990977210080</title>
<ellipse fill="white" stroke="black" cx="847" cy="-31" rx="27" ry="27"/>
</g>
<!-- 1990977208880&#45;&gt;1990977210080 -->
<g id="edge8" class="edge">
<title>1990977208880&#45;&gt;1990977210080</title>
<path fill="none" stroke="black" d="M784.24,-31C792.35,-31 800.62,-31 808.36,-31"/>
<polygon fill="black" stroke="black" points="808.11,-34.5 818.11,-31 808.11,-27.5 808.11,-34.5"/>
</g>
<!-- 1990977222032 -->
<g id="node5" class="node">
<title>1990977222032</title>
<polygon fill="white" stroke="black" points="991.25,-49 910,-49 910,-13 991.25,-13 991.25,-49"/>
<text text-anchor="middle" x="950.62" y="-25.98" font-family="Times New Roman,serif" font-size="12.00">Transplanting</text>
</g>
<!-- 1990977219488 -->
<g id="node22" class="node">
<title>1990977219488</title>
<ellipse fill="white" stroke="black" cx="1054.25" cy="-31" rx="27" ry="27"/>
</g>
<!-- 1990977222032&#45;&gt;1990977219488 -->
<g id="edge10" class="edge">
<title>1990977222032&#45;&gt;1990977219488</title>
<path fill="none" stroke="black" d="M991.5,-31C999.4,-31 1007.67,-31 1015.5,-31"/>
<polygon fill="black" stroke="black" points="1015.42,-34.5 1025.42,-31 1015.42,-27.5 1015.42,-34.5"/>
</g>
<!-- 1990977215360 -->
<g id="node6" class="node">
<title>1990977215360</title>
<polygon fill="white" stroke="black" points="1206,-49 1117.25,-49 1117.25,-13 1206,-13 1206,-49"/>
<text text-anchor="middle" x="1161.62" y="-25.98" font-family="Times New Roman,serif" font-size="12.00">Nutrient Check</text>
</g>
<!-- 1990977211952 -->
<g id="node23" class="node">
<title>1990977211952</title>
<ellipse fill="white" stroke="black" cx="1269" cy="-31" rx="27" ry="27"/>
</g>
<!-- 1990977215360&#45;&gt;1990977211952 -->
<g id="edge12" class="edge">
<title>1990977215360&#45;&gt;1990977211952</title>
<path fill="none" stroke="black" d="M1206.4,-31C1214.36,-31 1222.6,-31 1230.36,-31"/>
<polygon fill="black" stroke="black" points="1230.17,-34.5 1240.17,-31 1230.17,-27.5 1230.17,-34.5"/>
</g>
<!-- 1990977215696 -->
<g id="node7" class="node">
<title>1990977215696</title>
<polygon fill="white" stroke="black" points="1408,-49 1332,-49 1332,-13 1408,-13 1408,-49"/>
<text text-anchor="middle" x="1370" y="-25.98" font-family="Times New Roman,serif" font-size="12.00">Light Adjust</text>
</g>
<!-- 1990977216560 -->
<g id="node24" class="node">
<title>1990977216560</title>
<ellipse fill="white" stroke="black" cx="1471" cy="-31" rx="27" ry="27"/>
</g>
<!-- 1990977215696&#45;&gt;1990977216560 -->
<g id="edge14" class="edge">
<title>1990977215696&#45;&gt;1990977216560</title>
<path fill="none" stroke="black" d="M1408.43,-31C1416.21,-31 1424.41,-31 1432.21,-31"/>
<polygon fill="black" stroke="black" points="1432.1,-34.5 1442.1,-31 1432.1,-27.5 1432.1,-34.5"/>
</g>
<!-- 1990977218096 -->
<g id="node8" class="node">
<title>1990977218096</title>
<polygon fill="white" stroke="black" points="1634,-49 1534,-49 1534,-13 1634,-13 1634,-49"/>
<text text-anchor="middle" x="1584" y="-25.98" font-family="Times New Roman,serif" font-size="12.00">Humidity Control</text>
</g>
<!-- 1990977223808 -->
<g id="node25" class="node">
<title>1990977223808</title>
<ellipse fill="white" stroke="black" cx="1697" cy="-31" rx="27" ry="27"/>
</g>
<!-- 1990977218096&#45;&gt;1990977223808 -->
<g id="edge16" class="edge">
<title>1990977218096&#45;&gt;1990977223808</title>
<path fill="none" stroke="black" d="M1634.33,-31C1642.41,-31 1650.66,-31 1658.39,-31"/>
<polygon fill="black" stroke="black" points="1658.12,-34.5 1668.12,-31 1658.12,-27.5 1658.12,-34.5"/>
</g>
<!-- 1990977215600 -->
<g id="node9" class="node">
<title>1990977215600</title>
<polygon fill="white" stroke="black" points="1829.25,-49 1760,-49 1760,-13 1829.25,-13 1829.25,-49"/>
<text text-anchor="middle" x="1794.62" y="-25.98" font-family="Times New Roman,serif" font-size="12.00">Pest Detect</text>
</g>
<!-- 1990977219104 -->
<g id="node26" class="node">
<title>1990977219104</title>
<ellipse fill="white" stroke="black" cx="1892.25" cy="-31" rx="27" ry="27"/>
</g>
<!-- 1990977215600&#45;&gt;1990977219104 -->
<g id="edge18" class="edge">
<title>1990977215600&#45;&gt;1990977219104</title>
<path fill="none" stroke="black" d="M1829.61,-31C1837.31,-31 1845.53,-31 1853.38,-31"/>
<polygon fill="black" stroke="black" points="1853.38,-34.5 1863.38,-31 1853.38,-27.5 1853.38,-34.5"/>
</g>
<!-- 1990977224576 -->
<g id="node10" class="node">
<title>1990977224576</title>
<polygon fill="white" stroke="black" points="2037.25,-49 1955.25,-49 1955.25,-13 2037.25,-13 2037.25,-49"/>
<text text-anchor="middle" x="1996.25" y="-25.98" font-family="Times New Roman,serif" font-size="12.00">Organic Treat</text>
</g>
<!-- 1990977221168 -->
<g id="node27" class="node">
<title>1990977221168</title>
<ellipse fill="white" stroke="black" cx="2100.25" cy="-31" rx="27" ry="27"/>
</g>
<!-- 1990977224576&#45;&gt;1990977221168 -->
<g id="edge20" class="edge">
<title>1990977224576&#45;&gt;1990977221168</title>
<path fill="none" stroke="black" d="M2037.56,-31C2045.48,-31 2053.75,-31 2061.57,-31"/>
<polygon fill="black" stroke="black" points="2061.48,-34.5 2071.48,-31 2061.48,-27.5 2061.48,-34.5"/>
</g>
<!-- 1990977223568 -->
<g id="node11" class="node">
<title>1990977223568</title>
<polygon fill="white" stroke="black" points="2255,-49 2163.25,-49 2163.25,-13 2255,-13 2255,-49"/>
<text text-anchor="middle" x="2209.12" y="-25.98" font-family="Times New Roman,serif" font-size="12.00">Stagger Harvest</text>
</g>
<!-- 1990977222752 -->
<g id="node28" class="node">
<title>1990977222752</title>
<ellipse fill="white" stroke="black" cx="2318" cy="-31" rx="27" ry="27"/>
</g>
<!-- 1990977223568&#45;&gt;1990977222752 -->
<g id="edge22" class="edge">
<title>1990977223568&#45;&gt;1990977222752</title>
<path fill="none" stroke="black" d="M2255.45,-31C2263.46,-31 2271.72,-31 2279.48,-31"/>
<polygon fill="black" stroke="black" points="2279.28,-34.5 2289.28,-31 2279.28,-27.5 2279.28,-34.5"/>
</g>
<!-- 1990977221024 -->
<g id="node12" class="node">
<title>1990977221024</title>
<polygon fill="white" stroke="black" points="2473.5,-49 2381,-49 2381,-13 2473.5,-13 2473.5,-49"/>
<text text-anchor="middle" x="2427.25" y="-25.98" font-family="Times New Roman,serif" font-size="12.00">Auto Packaging</text>
</g>
<!-- 1990977219776 -->
<g id="node29" class="node">
<title>1990977219776</title>
<ellipse fill="white" stroke="black" cx="2536.5" cy="-31" rx="27" ry="27"/>
</g>
<!-- 1990977221024&#45;&gt;1990977219776 -->
<g id="edge24" class="edge">
<title>1990977221024&#45;&gt;1990977219776</title>
<path fill="none" stroke="black" d="M2473.73,-31C2481.77,-31 2490.06,-31 2497.85,-31"/>
<polygon fill="black" stroke="black" points="2497.69,-34.5 2507.69,-31 2497.69,-27.5 2497.69,-34.5"/>
</g>
<!-- 1990977222608 -->
<g id="node13" class="node">
<title>1990977222608</title>
<polygon fill="white" stroke="black" points="2687.5,-49 2599.5,-49 2599.5,-13 2687.5,-13 2687.5,-49"/>
<text text-anchor="middle" x="2643.5" y="-25.98" font-family="Times New Roman,serif" font-size="12.00">Quality Inspect</text>
</g>
<!-- 1990977222512 -->
<g id="node30" class="node">
<title>1990977222512</title>
<ellipse fill="white" stroke="black" cx="2750.5" cy="-31" rx="27" ry="27"/>
</g>
<!-- 1990977222608&#45;&gt;1990977222512 -->
<g id="edge26" class="edge">
<title>1990977222608&#45;&gt;1990977222512</title>
<path fill="none" stroke="black" d="M2687.81,-31C2695.77,-31 2704.01,-31 2711.78,-31"/>
<polygon fill="black" stroke="black" points="2711.6,-34.5 2721.6,-31 2711.6,-27.5 2711.6,-34.5"/>
</g>
<!-- 1990977209504 -->
<g id="node14" class="node">
<title>1990977209504</title>
<polygon fill="white" stroke="black" points="2897.75,-49 2813.5,-49 2813.5,-13 2897.75,-13 2897.75,-49"/>
<text text-anchor="middle" x="2855.62" y="-25.98" font-family="Times New Roman,serif" font-size="12.00">Waste Process</text>
</g>
<!-- 1990977214928 -->
<g id="node31" class="node">
<title>1990977214928</title>
<ellipse fill="white" stroke="black" cx="2960.75" cy="-31" rx="27" ry="27"/>
</g>
<!-- 1990977209504&#45;&gt;1990977214928 -->
<g id="edge28" class="edge">
<title>1990977209504&#45;&gt;1990977214928</title>
<path fill="none" stroke="black" d="M2897.98,-31C2905.94,-31 2914.24,-31 2922.08,-31"/>
<polygon fill="black" stroke="black" points="2922,-34.5 2932,-31 2922,-27.5 2922,-34.5"/>
</g>
<!-- 1990977216032 -->
<g id="node15" class="node">
<title>1990977216032</title>
<polygon fill="white" stroke="black" points="3097.5,-49 3023.75,-49 3023.75,-13 3097.5,-13 3097.5,-49"/>
<text text-anchor="middle" x="3060.62" y="-25.98" font-family="Times New Roman,serif" font-size="12.00">Market Plan</text>
</g>
<!-- 1990977220016 -->
<g id="node32" class="node">
<title>1990977220016</title>
<ellipse fill="white" stroke="black" cx="3160.5" cy="-31" rx="27" ry="27"/>
</g>
<!-- 1990977216032&#45;&gt;1990977220016 -->
<g id="edge30" class="edge">
<title>1990977216032&#45;&gt;1990977220016</title>
<path fill="none" stroke="black" d="M3097.79,-31C3105.69,-31 3114.08,-31 3122.03,-31"/>
<polygon fill="black" stroke="black" points="3121.75,-34.5 3131.75,-31 3121.75,-27.5 3121.75,-34.5"/>
</g>
<!-- 1990977218768 -->
<g id="node16" class="node">
<title>1990977218768</title>
<polygon fill="white" stroke="black" points="3325,-49 3223.5,-49 3223.5,-13 3325,-13 3325,-49"/>
<text text-anchor="middle" x="3274.25" y="-25.98" font-family="Times New Roman,serif" font-size="12.00">Feedback Review</text>
</g>
<!-- 1990982433536 -->
<g id="node33" class="node">
<title>1990982433536</title>
<ellipse fill="white" stroke="black" cx="3392" cy="-31" rx="27" ry="27"/>
<ellipse fill="none" stroke="black" cx="3392" cy="-31" rx="31" ry="31"/>
<text text-anchor="start" x="3375.5" y="-15.6" font-family="Times New Roman,serif" font-size="32.00">■</text>
</g>
<!-- 1990977218768&#45;&gt;1990982433536 -->
<g id="edge32" class="edge">
<title>1990977218768&#45;&gt;1990982433536</title>
<path fill="none" stroke="black" d="M3325.35,-31C3333.3,-31 3341.45,-31 3349.19,-31"/>
<polygon fill="black" stroke="black" points="3349.02,-34.5 3359.02,-31 3349.02,-27.5 3349.02,-34.5"/>
</g>
<!-- 1990969425696 -->
<g id="node17" class="node">
<title>1990969425696</title>
<ellipse fill="white" stroke="black" cx="27" cy="-31" rx="27" ry="27"/>
<text text-anchor="start" x="9.75" y="-13.7" font-family="Times New Roman,serif" font-size="34.00">●</text>
</g>
<!-- 1990969425696&#45;&gt;1990982426768 -->
<g id="edge1" class="edge">
<title>1990969425696&#45;&gt;1990982426768</title>
<path fill="none" stroke="black" d="M54.31,-31C61.63,-31 69.84,-31 78.05,-31"/>
<polygon fill="black" stroke="black" points="78.05,-34.5 88.05,-31 78.05,-27.5 78.05,-34.5"/>
</g>
<!-- 1990982426816&#45;&gt;1990982420720 -->
<g id="edge3" class="edge">
<title>1990982426816&#45;&gt;1990982420720</title>
<path fill="none" stroke="black" d="M258.36,-31C265.88,-31 274.28,-31 282.54,-31"/>
<polygon fill="black" stroke="black" points="282.51,-34.5 292.51,-31 282.51,-27.5 282.51,-34.5"/>
</g>
<!-- 1990982420576&#45;&gt;1990982421680 -->
<g id="edge5" class="edge">
<title>1990982420576&#45;&gt;1990982421680</title>
<path fill="none" stroke="black" d="M450.08,-31C457.51,-31 465.81,-31 474.03,-31"/>
<polygon fill="black" stroke="black" points="473.99,-34.5 483.99,-31 473.99,-27.5 473.99,-34.5"/>
</g>
<!-- 1990977211568&#45;&gt;1990977208880 -->
<g id="edge7" class="edge">
<title>1990977211568&#45;&gt;1990977208880</title>
<path fill="none" stroke="black" d="M646.98,-31C654.26,-31 662.47,-31 670.84,-31"/>
<polygon fill="black" stroke="black" points="670.78,-34.5 680.78,-31 670.78,-27.5 670.78,-34.5"/>
</g>
<!-- 1990977210080&#45;&gt;1990977222032 -->
<g id="edge9" class="edge">
<title>1990977210080&#45;&gt;1990977222032</title>
<path fill="none" stroke="black" d="M874.44,-31C881.71,-31 889.86,-31 898.03,-31"/>
<polygon fill="black" stroke="black" points="898.01,-34.5 908.01,-31 898.01,-27.5 898.01,-34.5"/>
</g>
<!-- 1990977219488&#45;&gt;1990977215360 -->
<g id="edge11" class="edge">
<title>1990977219488&#45;&gt;1990977215360</title>
<path fill="none" stroke="black" d="M1081.57,-31C1088.94,-31 1097.25,-31 1105.63,-31"/>
<polygon fill="black" stroke="black" points="1105.52,-34.5 1115.52,-31 1105.52,-27.5 1105.52,-34.5"/>
</g>
<!-- 1990977211952&#45;&gt;1990977215696 -->
<g id="edge13" class="edge">
<title>1990977211952&#45;&gt;1990977215696</title>
<path fill="none" stroke="black" d="M1296.27,-31C1303.75,-31 1312.15,-31 1320.51,-31"/>
<polygon fill="black" stroke="black" points="1320.28,-34.5 1330.28,-31 1320.28,-27.5 1320.28,-34.5"/>
</g>
<!-- 1990977216560&#45;&gt;1990977218096 -->
<g id="edge15" class="edge">
<title>1990977216560&#45;&gt;1990977218096</title>
<path fill="none" stroke="black" d="M1498.31,-31C1505.62,-31 1513.88,-31 1522.31,-31"/>
<polygon fill="black" stroke="black" points="1522.31,-34.5 1532.31,-31 1522.31,-27.5 1522.31,-34.5"/>
</g>
<!-- 1990977223808&#45;&gt;1990977215600 -->
<g id="edge17" class="edge">
<title>1990977223808&#45;&gt;1990977215600</title>
<path fill="none" stroke="black" d="M1724.38,-31C1731.82,-31 1740.14,-31 1748.35,-31"/>
<polygon fill="black" stroke="black" points="1748.28,-34.5 1758.28,-31 1748.28,-27.5 1748.28,-34.5"/>
</g>
<!-- 1990977219104&#45;&gt;1990977224576 -->
<g id="edge19" class="edge">
<title>1990977219104&#45;&gt;1990977224576</title>
<path fill="none" stroke="black" d="M1919.52,-31C1926.9,-31 1935.2,-31 1943.53,-31"/>
<polygon fill="black" stroke="black" points="1943.3,-34.5 1953.3,-31 1943.3,-27.5 1943.3,-34.5"/>
</g>
<!-- 1990977221168&#45;&gt;1990977223568 -->
<g id="edge21" class="edge">
<title>1990977221168&#45;&gt;1990977223568</title>
<path fill="none" stroke="black" d="M2127.67,-31C2134.98,-31 2143.2,-31 2151.53,-31"/>
<polygon fill="black" stroke="black" points="2151.36,-34.5 2161.36,-31 2151.36,-27.5 2151.36,-34.5"/>
</g>
<!-- 1990977222752&#45;&gt;1990977221024 -->
<g id="edge23" class="edge">
<title>1990977222752&#45;&gt;1990977221024</title>
<path fill="none" stroke="black" d="M2345.24,-31C2352.57,-31 2360.84,-31 2369.22,-31"/>
<polygon fill="black" stroke="black" points="2369.12,-34.5 2379.12,-31 2369.12,-27.5 2369.12,-34.5"/>
</g>
<!-- 1990977219776&#45;&gt;1990977222608 -->
<g id="edge25" class="edge">
<title>1990977219776&#45;&gt;1990977222608</title>
<path fill="none" stroke="black" d="M2564,-31C2571.35,-31 2579.61,-31 2587.94,-31"/>
<polygon fill="black" stroke="black" points="2587.75,-34.5 2597.75,-31 2587.75,-27.5 2587.75,-34.5"/>
</g>
<!-- 1990977222512&#45;&gt;1990977209504 -->
<g id="edge27" class="edge">
<title>1990977222512&#45;&gt;1990977209504</title>
<path fill="none" stroke="black" d="M2777.79,-31C2785.17,-31 2793.48,-31 2801.82,-31"/>
<polygon fill="black" stroke="black" points="2801.64,-34.5 2811.64,-31 2801.64,-27.5 2801.64,-34.5"/>
</g>
<!-- 1990977214928&#45;&gt;1990977216032 -->
<g id="edge29" class="edge">
<title>1990977214928&#45;&gt;1990977216032</title>
<path fill="none" stroke="black" d="M2988.24,-31C2995.62,-31 3003.88,-31 3012.09,-31"/>
<polygon fill="black" stroke="black" points="3012.05,-34.5 3022.05,-31 3012.05,-27.5 3012.05,-34.5"/>
</g>
<!-- 1990977220016&#45;&gt;1990977218768 -->
<g id="edge31" class="edge">
<title>1990977220016&#45;&gt;1990977218768</title>
<path fill="none" stroke="black" d="M3187.98,-31C3195.26,-31 3203.47,-31 3211.84,-31"/>
<polygon fill="black" stroke="black" points="3211.78,-34.5 3221.78,-31 3211.78,-27.5 3211.78,-34.5"/>
</g>
</g>
</svg>
