<?xml version="1.0" encoding="UTF-8" standalone="no"?>
<!DOCTYPE svg PUBLIC "-//W3C//DTD SVG 1.1//EN"
 "http://www.w3.org/Graphics/SVG/1.1/DTD/svg11.dtd">
<!-- Generated by graphviz version 11.0.0 (20240428.1522)
 -->
<!-- Title: imdf_net_1754052495.2828853 Pages: 1 -->
<svg width="2760pt" height="272pt"
 viewBox="0.00 0.00 2759.50 272.00" xmlns="http://www.w3.org/2000/svg" xmlns:xlink="http://www.w3.org/1999/xlink">
<g id="graph0" class="graph" transform="scale(1 1) rotate(0) translate(4 268)">
<title>imdf_net_1754052495.2828853</title>
<polygon fill="white" stroke="none" points="-4,4 -4,-268 2755.5,-268 2755.5,4 -4,4"/>
<!-- 1990981086160 -->
<g id="node1" class="node">
<title>1990981086160</title>
<polygon fill="white" stroke="black" points="167.5,-219 90,-219 90,-183 167.5,-183 167.5,-219"/>
<text text-anchor="middle" x="128.75" y="-195.97" font-family="Times New Roman,serif" font-size="12.00">Flora Survey</text>
</g>
<!-- 1990981082128 -->
<g id="node21" class="node">
<title>1990981082128</title>
<ellipse fill="white" stroke="black" cx="230.5" cy="-201" rx="27" ry="27"/>
</g>
<!-- 1990981086160&#45;&gt;1990981082128 -->
<g id="edge2" class="edge">
<title>1990981086160&#45;&gt;1990981082128</title>
<path fill="none" stroke="black" d="M167.75,-201C175.57,-201 183.81,-201 191.63,-201"/>
<polygon fill="black" stroke="black" points="191.55,-204.5 201.55,-201 191.55,-197.5 191.55,-204.5"/>
</g>
<!-- 1990981076368 -->
<g id="node2" class="node">
<title>1990981076368</title>
<polygon fill="white" stroke="black" points="381.5,-219 293.5,-219 293.5,-183 381.5,-183 381.5,-219"/>
<text text-anchor="middle" x="337.5" y="-195.97" font-family="Times New Roman,serif" font-size="12.00">Permit Request</text>
</g>
<!-- 1990981075072 -->
<g id="node22" class="node">
<title>1990981075072</title>
<ellipse fill="white" stroke="black" cx="444.5" cy="-201" rx="27" ry="27"/>
</g>
<!-- 1990981076368&#45;&gt;1990981075072 -->
<g id="edge4" class="edge">
<title>1990981076368&#45;&gt;1990981075072</title>
<path fill="none" stroke="black" d="M381.81,-201C389.77,-201 398.01,-201 405.78,-201"/>
<polygon fill="black" stroke="black" points="405.6,-204.5 415.6,-201 405.6,-197.5 405.6,-204.5"/>
</g>
<!-- 1990981083808 -->
<g id="node3" class="node">
<title>1990981083808</title>
<polygon fill="white" stroke="black" points="576.75,-219 507.5,-219 507.5,-183 576.75,-183 576.75,-219"/>
<text text-anchor="middle" x="542.12" y="-195.97" font-family="Times New Roman,serif" font-size="12.00">Hive Setup</text>
</g>
<!-- 1990981593296 -->
<g id="node23" class="node">
<title>1990981593296</title>
<ellipse fill="white" stroke="black" cx="639.75" cy="-201" rx="27" ry="27"/>
</g>
<!-- 1990981083808&#45;&gt;1990981593296 -->
<g id="edge6" class="edge">
<title>1990981083808&#45;&gt;1990981593296</title>
<path fill="none" stroke="black" d="M577.11,-201C584.81,-201 593.03,-201 600.88,-201"/>
<polygon fill="black" stroke="black" points="600.88,-204.5 610.88,-201 600.88,-197.5 600.88,-204.5"/>
</g>
<!-- 1990981586096 -->
<g id="node4" class="node">
<title>1990981586096</title>
<polygon fill="white" stroke="black" points="782.5,-219 702.75,-219 702.75,-183 782.5,-183 782.5,-219"/>
<text text-anchor="middle" x="742.62" y="-195.97" font-family="Times New Roman,serif" font-size="12.00">Sensor Install</text>
</g>
<!-- 1990981596560 -->
<g id="node24" class="node">
<title>1990981596560</title>
<ellipse fill="white" stroke="black" cx="845.5" cy="-237" rx="27" ry="27"/>
</g>
<!-- 1990981586096&#45;&gt;1990981596560 -->
<g id="edge8" class="edge">
<title>1990981586096&#45;&gt;1990981596560</title>
<path fill="none" stroke="black" d="M782.91,-215.02C791.53,-218.1 800.6,-221.33 809.06,-224.35"/>
<polygon fill="black" stroke="black" points="807.71,-227.59 818.3,-227.65 810.06,-220.99 807.71,-227.59"/>
</g>
<!-- 1990981471696 -->
<g id="node25" class="node">
<title>1990981471696</title>
<ellipse fill="white" stroke="black" cx="845.5" cy="-165" rx="27" ry="27"/>
</g>
<!-- 1990981586096&#45;&gt;1990981471696 -->
<g id="edge9" class="edge">
<title>1990981586096&#45;&gt;1990981471696</title>
<path fill="none" stroke="black" d="M782.91,-186.98C791.53,-183.9 800.6,-180.67 809.06,-177.65"/>
<polygon fill="black" stroke="black" points="810.06,-181.01 818.3,-174.35 807.71,-174.41 810.06,-181.01"/>
</g>
<!-- 1990981588160 -->
<g id="node5" class="node">
<title>1990981588160</title>
<polygon fill="white" stroke="black" points="993.12,-255 911.88,-255 911.88,-219 993.12,-219 993.12,-255"/>
<text text-anchor="middle" x="952.5" y="-231.97" font-family="Times New Roman,serif" font-size="12.00">Health Check</text>
</g>
<!-- 1990981598480 -->
<g id="node26" class="node">
<title>1990981598480</title>
<ellipse fill="white" stroke="black" cx="1059.5" cy="-237" rx="27" ry="27"/>
</g>
<!-- 1990981588160&#45;&gt;1990981598480 -->
<g id="edge13" class="edge">
<title>1990981588160&#45;&gt;1990981598480</title>
<path fill="none" stroke="black" d="M993.5,-237C1002.52,-237 1012.07,-237 1020.99,-237"/>
<polygon fill="black" stroke="black" points="1020.74,-240.5 1030.74,-237 1020.74,-233.5 1020.74,-240.5"/>
</g>
<!-- 1990981597520 -->
<g id="node6" class="node">
<title>1990981597520</title>
<polygon fill="white" stroke="black" points="996.5,-132 908.5,-132 908.5,-96 996.5,-96 996.5,-132"/>
<text text-anchor="middle" x="952.5" y="-108.97" font-family="Times New Roman,serif" font-size="12.00">Seasonal Audit</text>
</g>
<!-- 1990981478080 -->
<g id="node27" class="node">
<title>1990981478080</title>
<ellipse fill="white" stroke="black" cx="1059.5" cy="-91" rx="27" ry="27"/>
</g>
<!-- 1990981597520&#45;&gt;1990981478080 -->
<g id="edge12" class="edge">
<title>1990981597520&#45;&gt;1990981478080</title>
<path fill="none" stroke="black" d="M996.81,-104.51C1005.01,-102.72 1013.52,-100.85 1021.5,-99.1"/>
<polygon fill="black" stroke="black" points="1022.22,-102.53 1031.24,-96.97 1020.73,-95.69 1022.22,-102.53"/>
</g>
<!-- 1990981584032 -->
<g id="node7" class="node">
<title>1990981584032</title>
<polygon fill="white" stroke="black" points="1197,-255 1122.5,-255 1122.5,-219 1197,-219 1197,-255"/>
<text text-anchor="middle" x="1159.75" y="-231.97" font-family="Times New Roman,serif" font-size="12.00">Pest Control</text>
</g>
<!-- 1990981595168 -->
<g id="node29" class="node">
<title>1990981595168</title>
<ellipse fill="white" stroke="black" cx="1260" cy="-237" rx="27" ry="27"/>
</g>
<!-- 1990981584032&#45;&gt;1990981595168 -->
<g id="edge19" class="edge">
<title>1990981584032&#45;&gt;1990981595168</title>
<path fill="none" stroke="black" d="M1197.33,-237C1205.09,-237 1213.29,-237 1221.09,-237"/>
<polygon fill="black" stroke="black" points="1221,-240.5 1231,-237 1221,-233.5 1221,-240.5"/>
</g>
<!-- 1990981585952 -->
<g id="node8" class="node">
<title>1990981585952</title>
<polygon fill="black" stroke="black" points="1186.75,-109 1132.75,-109 1132.75,-73 1186.75,-73 1186.75,-109"/>
</g>
<!-- 1990981596800 -->
<g id="node28" class="node">
<title>1990981596800</title>
<ellipse fill="white" stroke="black" cx="1260" cy="-127" rx="27" ry="27"/>
</g>
<!-- 1990981585952&#45;&gt;1990981596800 -->
<g id="edge17" class="edge">
<title>1990981585952&#45;&gt;1990981596800</title>
<path fill="none" stroke="black" d="M1187.08,-100.65C1198.31,-104.76 1211.58,-109.62 1223.64,-114.04"/>
<polygon fill="black" stroke="black" points="1222.27,-117.27 1232.87,-117.42 1224.68,-110.7 1222.27,-117.27"/>
</g>
<!-- 1990981589168 -->
<g id="node30" class="node">
<title>1990981589168</title>
<ellipse fill="white" stroke="black" cx="1260" cy="-55" rx="27" ry="27"/>
</g>
<!-- 1990981585952&#45;&gt;1990981589168 -->
<g id="edge18" class="edge">
<title>1990981585952&#45;&gt;1990981589168</title>
<path fill="none" stroke="black" d="M1187.08,-81.35C1198.31,-77.24 1211.58,-72.38 1223.64,-67.96"/>
<polygon fill="black" stroke="black" points="1224.68,-71.3 1232.87,-64.58 1222.27,-64.73 1224.68,-71.3"/>
</g>
<!-- 1990981078720 -->
<g id="node9" class="node">
<title>1990981078720</title>
<polygon fill="black" stroke="black" points="2653.5,-105 2599.5,-105 2599.5,-69 2653.5,-69 2653.5,-105"/>
</g>
<!-- 1990981079104 -->
<g id="node31" class="node">
<title>1990981079104</title>
<ellipse fill="white" stroke="black" cx="2720.5" cy="-87" rx="27" ry="27"/>
<ellipse fill="none" stroke="black" cx="2720.5" cy="-87" rx="31" ry="31"/>
<text text-anchor="start" x="2704" y="-71.6" font-family="Times New Roman,serif" font-size="32.00">■</text>
</g>
<!-- 1990981078720&#45;&gt;1990981079104 -->
<g id="edge20" class="edge">
<title>1990981078720&#45;&gt;1990981079104</title>
<path fill="none" stroke="black" d="M2653.62,-87C2661.13,-87 2669.51,-87 2677.72,-87"/>
<polygon fill="black" stroke="black" points="2677.58,-90.5 2687.58,-87 2677.58,-83.5 2677.58,-90.5"/>
</g>
<!-- 1990980800432 -->
<g id="node10" class="node">
<title>1990980800432</title>
<polygon fill="white" stroke="black" points="1411,-145 1323.75,-145 1323.75,-109 1411,-109 1411,-145"/>
<text text-anchor="middle" x="1367.38" y="-121.97" font-family="Times New Roman,serif" font-size="12.00">Design Update</text>
</g>
<!-- 1990981590176 -->
<g id="node33" class="node">
<title>1990981590176</title>
<ellipse fill="white" stroke="black" cx="1474.75" cy="-127" rx="27" ry="27"/>
</g>
<!-- 1990980800432&#45;&gt;1990981590176 -->
<g id="edge26" class="edge">
<title>1990980800432&#45;&gt;1990981590176</title>
<path fill="none" stroke="black" d="M1411.24,-127C1419.43,-127 1427.95,-127 1435.97,-127"/>
<polygon fill="black" stroke="black" points="1435.75,-130.5 1445.75,-127 1435.75,-123.5 1435.75,-130.5"/>
</g>
<!-- 1990981587776 -->
<g id="node11" class="node">
<title>1990981587776</title>
<polygon fill="white" stroke="black" points="1411.38,-255 1323.38,-255 1323.38,-219 1411.38,-219 1411.38,-255"/>
<text text-anchor="middle" x="1367.38" y="-231.97" font-family="Times New Roman,serif" font-size="12.00">Honey Harvest</text>
</g>
<!-- 1990981587200 -->
<g id="node32" class="node">
<title>1990981587200</title>
<ellipse fill="white" stroke="black" cx="1474.75" cy="-237" rx="27" ry="27"/>
</g>
<!-- 1990981587776&#45;&gt;1990981587200 -->
<g id="edge25" class="edge">
<title>1990981587776&#45;&gt;1990981587200</title>
<path fill="none" stroke="black" d="M1411.84,-237C1419.82,-237 1428.1,-237 1435.9,-237"/>
<polygon fill="black" stroke="black" points="1435.76,-240.5 1445.76,-237 1435.76,-233.5 1435.76,-240.5"/>
</g>
<!-- 1990981592912 -->
<g id="node12" class="node">
<title>1990981592912</title>
<polygon fill="white" stroke="black" points="1411.75,-73 1323,-73 1323,-37 1411.75,-37 1411.75,-73"/>
<text text-anchor="middle" x="1367.38" y="-49.98" font-family="Times New Roman,serif" font-size="12.00">Pollen Analyze</text>
</g>
<!-- 1990981591232 -->
<g id="node34" class="node">
<title>1990981591232</title>
<ellipse fill="white" stroke="black" cx="1474.75" cy="-55" rx="27" ry="27"/>
</g>
<!-- 1990981592912&#45;&gt;1990981591232 -->
<g id="edge24" class="edge">
<title>1990981592912&#45;&gt;1990981591232</title>
<path fill="none" stroke="black" d="M1412.15,-55C1420.11,-55 1428.35,-55 1436.11,-55"/>
<polygon fill="black" stroke="black" points="1435.92,-58.5 1445.92,-55 1435.92,-51.5 1435.92,-58.5"/>
</g>
<!-- 1990981594064 -->
<g id="node13" class="node">
<title>1990981594064</title>
<polygon fill="white" stroke="black" points="1612.25,-227 1537.75,-227 1537.75,-191 1612.25,-191 1612.25,-227"/>
<text text-anchor="middle" x="1575" y="-203.97" font-family="Times New Roman,serif" font-size="12.00">Quality Test</text>
</g>
<!-- 1990981584896 -->
<g id="node35" class="node">
<title>1990981584896</title>
<ellipse fill="white" stroke="black" cx="1675.25" cy="-196" rx="27" ry="27"/>
</g>
<!-- 1990981594064&#45;&gt;1990981584896 -->
<g id="edge31" class="edge">
<title>1990981594064&#45;&gt;1990981584896</title>
<path fill="none" stroke="black" d="M1612.58,-204.16C1620.5,-203.11 1628.89,-202 1636.84,-200.95"/>
<polygon fill="black" stroke="black" points="1637.11,-204.44 1646.57,-199.66 1636.19,-197.51 1637.11,-204.44"/>
</g>
<!-- 1990981592048 -->
<g id="node14" class="node">
<title>1990981592048</title>
<polygon fill="black" stroke="black" points="1602,-145 1548,-145 1548,-109 1602,-109 1602,-145"/>
</g>
<!-- 1990981592048&#45;&gt;1990981471696 -->
<g id="edge30" class="edge">
<title>1990981592048&#45;&gt;1990981471696</title>
<path fill="none" stroke="black" d="M1547.75,-142.64C1534.4,-149.91 1517.67,-158.04 1501.75,-163 1444.58,-180.8 1428.25,-182 1368.38,-182 1058.5,-182 1058.5,-182 1058.5,-182 997.21,-182 926.26,-174.85 883.95,-169.83"/>
<polygon fill="black" stroke="black" points="884.41,-166.36 874.06,-168.62 883.56,-173.3 884.41,-166.36"/>
</g>
<!-- 1990981584800 -->
<g id="node15" class="node">
<title>1990981584800</title>
<polygon fill="white" stroke="black" points="1815,-207 1738.25,-207 1738.25,-171 1815,-171 1815,-207"/>
<text text-anchor="middle" x="1776.62" y="-183.97" font-family="Times New Roman,serif" font-size="12.00">Data Upload</text>
</g>
<!-- 1990981587920 -->
<g id="node36" class="node">
<title>1990981587920</title>
<ellipse fill="white" stroke="black" cx="1878" cy="-186" rx="27" ry="27"/>
</g>
<!-- 1990981584800&#45;&gt;1990981587920 -->
<g id="edge33" class="edge">
<title>1990981584800&#45;&gt;1990981587920</title>
<path fill="none" stroke="black" d="M1815.48,-187.86C1823.27,-187.62 1831.48,-187.37 1839.27,-187.14"/>
<polygon fill="black" stroke="black" points="1839.26,-190.64 1849.15,-186.84 1839.05,-183.64 1839.26,-190.64"/>
</g>
<!-- 1990981588208 -->
<g id="node16" class="node">
<title>1990981588208</title>
<polygon fill="white" stroke="black" points="2032.75,-177 1941,-177 1941,-141 2032.75,-141 2032.75,-177"/>
<text text-anchor="middle" x="1986.88" y="-153.97" font-family="Times New Roman,serif" font-size="12.00">Report Compile</text>
</g>
<!-- 1990981587632 -->
<g id="node37" class="node">
<title>1990981587632</title>
<ellipse fill="white" stroke="black" cx="2095.75" cy="-159" rx="27" ry="27"/>
</g>
<!-- 1990981588208&#45;&gt;1990981587632 -->
<g id="edge36" class="edge">
<title>1990981588208&#45;&gt;1990981587632</title>
<path fill="none" stroke="black" d="M2033.2,-159C2041.21,-159 2049.47,-159 2057.23,-159"/>
<polygon fill="black" stroke="black" points="2057.03,-162.5 2067.03,-159 2057.03,-155.5 2057.03,-162.5"/>
</g>
<!-- 1990981087168 -->
<g id="node38" class="node">
<title>1990981087168</title>
<ellipse fill="white" stroke="black" cx="2095.75" cy="-87" rx="27" ry="27"/>
</g>
<!-- 1990981588208&#45;&gt;1990981087168 -->
<g id="edge35" class="edge">
<title>1990981588208&#45;&gt;1990981087168</title>
<path fill="none" stroke="black" d="M2015.12,-140.65C2029.97,-130.64 2048.41,-118.22 2063.8,-107.85"/>
<polygon fill="black" stroke="black" points="2065.34,-111.03 2071.68,-102.54 2061.43,-105.23 2065.34,-111.03"/>
</g>
<!-- 1990981588448 -->
<g id="node17" class="node">
<title>1990981588448</title>
<polygon fill="white" stroke="black" points="2248.25,-175 2158.75,-175 2158.75,-139 2248.25,-139 2248.25,-175"/>
<text text-anchor="middle" x="2203.5" y="-151.97" font-family="Times New Roman,serif" font-size="12.00">Workshop Plan</text>
</g>
<!-- 1990981597472 -->
<g id="node39" class="node">
<title>1990981597472</title>
<ellipse fill="white" stroke="black" cx="2311.25" cy="-155" rx="27" ry="27"/>
</g>
<!-- 1990981588448&#45;&gt;1990981597472 -->
<g id="edge39" class="edge">
<title>1990981588448&#45;&gt;1990981597472</title>
<path fill="none" stroke="black" d="M2248.73,-156.16C2256.7,-156.01 2264.94,-155.86 2272.7,-155.71"/>
<polygon fill="black" stroke="black" points="2272.55,-159.21 2282.49,-155.53 2272.42,-152.21 2272.55,-159.21"/>
</g>
<!-- 1990981474144 -->
<g id="node18" class="node">
<title>1990981474144</title>
<polygon fill="white" stroke="black" points="2246,-105 2161,-105 2161,-69 2246,-69 2246,-105"/>
<text text-anchor="middle" x="2203.5" y="-81.97" font-family="Times New Roman,serif" font-size="12.00">Research Link</text>
</g>
<!-- 1990981589840 -->
<g id="node40" class="node">
<title>1990981589840</title>
<ellipse fill="white" stroke="black" cx="2423.88" cy="-87" rx="27" ry="27"/>
</g>
<!-- 1990981474144&#45;&gt;1990981589840 -->
<g id="edge40" class="edge">
<title>1990981474144&#45;&gt;1990981589840</title>
<path fill="none" stroke="black" d="M2246.35,-87C2286.53,-87 2346.67,-87 2385.34,-87"/>
<polygon fill="black" stroke="black" points="2385.09,-90.5 2395.09,-87 2385.09,-83.5 2385.09,-90.5"/>
</g>
<!-- 1990981588736 -->
<g id="node19" class="node">
<title>1990981588736</title>
<polygon fill="white" stroke="black" points="2473.5,-172 2374.25,-172 2374.25,-136 2473.5,-136 2473.5,-172"/>
<text text-anchor="middle" x="2423.88" y="-148.97" font-family="Times New Roman,serif" font-size="12.00">Community Meet</text>
</g>
<!-- 1990981596464 -->
<g id="node41" class="node">
<title>1990981596464</title>
<ellipse fill="white" stroke="black" cx="2536.5" cy="-141" rx="27" ry="27"/>
</g>
<!-- 1990981588736&#45;&gt;1990981596464 -->
<g id="edge43" class="edge">
<title>1990981588736&#45;&gt;1990981596464</title>
<path fill="none" stroke="black" d="M2473.72,-148.26C2481.87,-147.3 2490.21,-146.32 2498.01,-145.41"/>
<polygon fill="black" stroke="black" points="2498.34,-148.89 2507.86,-144.25 2497.52,-141.94 2498.34,-148.89"/>
</g>
<!-- 1990981088992 -->
<g id="node20" class="node">
<title>1990981088992</title>
<ellipse fill="white" stroke="black" cx="27" cy="-201" rx="27" ry="27"/>
<text text-anchor="start" x="9.75" y="-183.7" font-family="Times New Roman,serif" font-size="34.00">●</text>
</g>
<!-- 1990981088992&#45;&gt;1990981086160 -->
<g id="edge1" class="edge">
<title>1990981088992&#45;&gt;1990981086160</title>
<path fill="none" stroke="black" d="M54.47,-201C61.77,-201 69.93,-201 78.08,-201"/>
<polygon fill="black" stroke="black" points="78,-204.5 88,-201 78,-197.5 78,-204.5"/>
</g>
<!-- 1990981082128&#45;&gt;1990981076368 -->
<g id="edge3" class="edge">
<title>1990981082128&#45;&gt;1990981076368</title>
<path fill="none" stroke="black" d="M258,-201C265.35,-201 273.61,-201 281.94,-201"/>
<polygon fill="black" stroke="black" points="281.75,-204.5 291.75,-201 281.75,-197.5 281.75,-204.5"/>
</g>
<!-- 1990981075072&#45;&gt;1990981083808 -->
<g id="edge5" class="edge">
<title>1990981075072&#45;&gt;1990981083808</title>
<path fill="none" stroke="black" d="M471.88,-201C479.32,-201 487.64,-201 495.85,-201"/>
<polygon fill="black" stroke="black" points="495.78,-204.5 505.78,-201 495.78,-197.5 495.78,-204.5"/>
</g>
<!-- 1990981593296&#45;&gt;1990981586096 -->
<g id="edge7" class="edge">
<title>1990981593296&#45;&gt;1990981586096</title>
<path fill="none" stroke="black" d="M666.99,-201C674.46,-201 682.85,-201 691.24,-201"/>
<polygon fill="black" stroke="black" points="691.08,-204.5 701.08,-201 691.08,-197.5 691.08,-204.5"/>
</g>
<!-- 1990981596560&#45;&gt;1990981588160 -->
<g id="edge10" class="edge">
<title>1990981596560&#45;&gt;1990981588160</title>
<path fill="none" stroke="black" d="M873,-237C881.29,-237 890.74,-237 900.14,-237"/>
<polygon fill="black" stroke="black" points="899.99,-240.5 909.99,-237 899.99,-233.5 899.99,-240.5"/>
</g>
<!-- 1990981471696&#45;&gt;1990981597520 -->
<g id="edge11" class="edge">
<title>1990981471696&#45;&gt;1990981597520</title>
<path fill="none" stroke="black" d="M870.33,-153.43C880.25,-148.61 892.14,-142.83 903.72,-137.21"/>
<polygon fill="black" stroke="black" points="904.94,-140.51 912.4,-132.99 901.88,-134.21 904.94,-140.51"/>
</g>
<!-- 1990981598480&#45;&gt;1990981584032 -->
<g id="edge16" class="edge">
<title>1990981598480&#45;&gt;1990981584032</title>
<path fill="none" stroke="black" d="M1086.83,-237C1094.17,-237 1102.38,-237 1110.56,-237"/>
<polygon fill="black" stroke="black" points="1110.49,-240.5 1120.49,-237 1110.49,-233.5 1110.49,-240.5"/>
</g>
<!-- 1990981478080&#45;&gt;1990981585952 -->
<g id="edge14" class="edge">
<title>1990981478080&#45;&gt;1990981585952</title>
<path fill="none" stroke="black" d="M1086.83,-91C1097.29,-91 1109.53,-91 1120.91,-91"/>
<polygon fill="black" stroke="black" points="1120.83,-94.5 1130.83,-91 1120.83,-87.5 1120.83,-94.5"/>
</g>
<!-- 1990981478080&#45;&gt;1990981078720 -->
<g id="edge15" class="edge">
<title>1990981478080&#45;&gt;1990981078720</title>
<path fill="none" stroke="black" d="M1081.09,-74.31C1115.65,-48.04 1188.49,0 1259,0 1259,0 1259,0 2424.88,0 2487.87,0 2553.49,-36.55 2591.87,-62.27"/>
<polygon fill="black" stroke="black" points="2589.55,-64.92 2599.77,-67.69 2593.51,-59.15 2589.55,-64.92"/>
</g>
<!-- 1990981596800&#45;&gt;1990980800432 -->
<g id="edge21" class="edge">
<title>1990981596800&#45;&gt;1990980800432</title>
<path fill="none" stroke="black" d="M1287.32,-127C1294.95,-127 1303.57,-127 1312.25,-127"/>
<polygon fill="black" stroke="black" points="1312.09,-130.5 1322.09,-127 1312.09,-123.5 1312.09,-130.5"/>
</g>
<!-- 1990981595168&#45;&gt;1990981587776 -->
<g id="edge23" class="edge">
<title>1990981595168&#45;&gt;1990981587776</title>
<path fill="none" stroke="black" d="M1287.32,-237C1294.86,-237 1303.38,-237 1311.96,-237"/>
<polygon fill="black" stroke="black" points="1311.68,-240.5 1321.68,-237 1311.68,-233.5 1311.68,-240.5"/>
</g>
<!-- 1990981589168&#45;&gt;1990981592912 -->
<g id="edge22" class="edge">
<title>1990981589168&#45;&gt;1990981592912</title>
<path fill="none" stroke="black" d="M1287.32,-55C1294.69,-55 1303,-55 1311.38,-55"/>
<polygon fill="black" stroke="black" points="1311.27,-58.5 1321.27,-55 1311.27,-51.5 1311.27,-58.5"/>
</g>
<!-- 1990981587200&#45;&gt;1990981594064 -->
<g id="edge27" class="edge">
<title>1990981587200&#45;&gt;1990981594064</title>
<path fill="none" stroke="black" d="M1501.05,-229.79C1508.81,-227.58 1517.61,-225.07 1526.35,-222.58"/>
<polygon fill="black" stroke="black" points="1527.19,-225.98 1535.84,-219.87 1525.27,-219.25 1527.19,-225.98"/>
</g>
<!-- 1990981590176&#45;&gt;1990981592048 -->
<g id="edge28" class="edge">
<title>1990981590176&#45;&gt;1990981592048</title>
<path fill="none" stroke="black" d="M1502.08,-127C1512.54,-127 1524.78,-127 1536.16,-127"/>
<polygon fill="black" stroke="black" points="1536.08,-130.5 1546.08,-127 1536.08,-123.5 1536.08,-130.5"/>
</g>
<!-- 1990981591232&#45;&gt;1990981592048 -->
<g id="edge29" class="edge">
<title>1990981591232&#45;&gt;1990981592048</title>
<path fill="none" stroke="black" d="M1497.07,-70.62C1509.57,-79.78 1525.65,-91.57 1539.88,-101.99"/>
<polygon fill="black" stroke="black" points="1537.54,-104.62 1547.68,-107.71 1541.68,-98.98 1537.54,-104.62"/>
</g>
<!-- 1990981584896&#45;&gt;1990981584800 -->
<g id="edge32" class="edge">
<title>1990981584896&#45;&gt;1990981584800</title>
<path fill="none" stroke="black" d="M1702.62,-194.14C1710.05,-193.62 1718.38,-193.03 1726.69,-192.45"/>
<polygon fill="black" stroke="black" points="1726.67,-195.96 1736.4,-191.76 1726.18,-188.97 1726.67,-195.96"/>
</g>
<!-- 1990981587920&#45;&gt;1990981588208 -->
<g id="edge34" class="edge">
<title>1990981587920&#45;&gt;1990981588208</title>
<path fill="none" stroke="black" d="M1904.6,-179.53C1912.24,-177.6 1920.94,-175.41 1929.73,-173.18"/>
<polygon fill="black" stroke="black" points="1930.54,-176.59 1939.38,-170.75 1928.83,-169.8 1930.54,-176.59"/>
</g>
<!-- 1990981587632&#45;&gt;1990981588448 -->
<g id="edge38" class="edge">
<title>1990981587632&#45;&gt;1990981588448</title>
<path fill="none" stroke="black" d="M2123.16,-158.5C2130.48,-158.36 2138.71,-158.21 2147.03,-158.05"/>
<polygon fill="black" stroke="black" points="2146.9,-161.55 2156.83,-157.86 2146.76,-154.55 2146.9,-161.55"/>
</g>
<!-- 1990981087168&#45;&gt;1990981474144 -->
<g id="edge37" class="edge">
<title>1990981087168&#45;&gt;1990981474144</title>
<path fill="none" stroke="black" d="M2123.16,-87C2131.16,-87 2140.25,-87 2149.35,-87"/>
<polygon fill="black" stroke="black" points="2149.29,-90.5 2159.29,-87 2149.29,-83.5 2149.29,-90.5"/>
</g>
<!-- 1990981597472&#45;&gt;1990981588736 -->
<g id="edge42" class="edge">
<title>1990981597472&#45;&gt;1990981588736</title>
<path fill="none" stroke="black" d="M2338.75,-154.76C2346.04,-154.69 2354.27,-154.62 2362.64,-154.54"/>
<polygon fill="black" stroke="black" points="2362.6,-158.05 2372.57,-154.45 2362.54,-151.05 2362.6,-158.05"/>
</g>
<!-- 1990981589840&#45;&gt;1990981078720 -->
<g id="edge41" class="edge">
<title>1990981589840&#45;&gt;1990981078720</title>
<path fill="none" stroke="black" d="M2451.1,-87C2486.02,-87 2548.01,-87 2587.9,-87"/>
<polygon fill="black" stroke="black" points="2587.75,-90.5 2597.75,-87 2587.75,-83.5 2587.75,-90.5"/>
</g>
<!-- 1990981596464&#45;&gt;1990981078720 -->
<g id="edge44" class="edge">
<title>1990981596464&#45;&gt;1990981078720</title>
<path fill="none" stroke="black" d="M2560.16,-127.09C2569.1,-121.61 2579.59,-115.17 2589.51,-109.08"/>
<polygon fill="black" stroke="black" points="2591.19,-112.16 2597.88,-103.95 2587.53,-106.2 2591.19,-112.16"/>
</g>
</g>
</svg>
