<?xml version="1.0" encoding="UTF-8" standalone="no"?>
<!DOCTYPE svg PUBLIC "-//W3C//DTD SVG 1.1//EN"
 "http://www.w3.org/Graphics/SVG/1.1/DTD/svg11.dtd">
<!-- Generated by graphviz version 11.0.0 (20240428.1522)
 -->
<!-- Title: imdf_net_1754052527.4609897 Pages: 1 -->
<svg width="2836pt" height="341pt"
 viewBox="0.00 0.00 2835.50 341.00" xmlns="http://www.w3.org/2000/svg" xmlns:xlink="http://www.w3.org/1999/xlink">
<g id="graph0" class="graph" transform="scale(1 1) rotate(0) translate(4 337)">
<title>imdf_net_1754052527.4609897</title>
<polygon fill="white" stroke="none" points="-4,4 -4,-337 2831.5,-337 2831.5,4 -4,4"/>
<!-- 1990981838384 -->
<g id="node1" class="node">
<title>1990981838384</title>
<polygon fill="white" stroke="black" points="186.25,-252 90,-252 90,-216 186.25,-216 186.25,-252"/>
<text text-anchor="middle" x="138.12" y="-228.97" font-family="Times New Roman,serif" font-size="12.00">Artwork Catalog</text>
</g>
<!-- 1990981839584 -->
<g id="node21" class="node">
<title>1990981839584</title>
<ellipse fill="white" stroke="black" cx="249.25" cy="-234" rx="27" ry="27"/>
</g>
<!-- 1990981838384&#45;&gt;1990981839584 -->
<g id="edge2" class="edge">
<title>1990981838384&#45;&gt;1990981839584</title>
<path fill="none" stroke="black" d="M186.67,-234C194.59,-234 202.7,-234 210.34,-234"/>
<polygon fill="black" stroke="black" points="210.33,-237.5 220.33,-234 210.33,-230.5 210.33,-237.5"/>
</g>
<!-- 1990981840880 -->
<g id="node2" class="node">
<title>1990981840880</title>
<polygon fill="white" stroke="black" points="395.75,-252 312.25,-252 312.25,-216 395.75,-216 395.75,-252"/>
<text text-anchor="middle" x="354" y="-228.97" font-family="Times New Roman,serif" font-size="12.00">Pack Securely</text>
</g>
<!-- 1990981662480 -->
<g id="node22" class="node">
<title>1990981662480</title>
<ellipse fill="white" stroke="black" cx="458.75" cy="-306" rx="27" ry="27"/>
</g>
<!-- 1990981840880&#45;&gt;1990981662480 -->
<g id="edge5" class="edge">
<title>1990981840880&#45;&gt;1990981662480</title>
<path fill="none" stroke="black" d="M381.19,-252.35C395.14,-262.13 412.38,-274.21 426.97,-284.43"/>
<polygon fill="black" stroke="black" points="424.67,-287.09 434.87,-289.97 428.69,-281.36 424.67,-287.09"/>
</g>
<!-- 1990971516704 -->
<g id="node23" class="node">
<title>1990971516704</title>
<ellipse fill="white" stroke="black" cx="458.75" cy="-234" rx="27" ry="27"/>
</g>
<!-- 1990981840880&#45;&gt;1990971516704 -->
<g id="edge6" class="edge">
<title>1990981840880&#45;&gt;1990971516704</title>
<path fill="none" stroke="black" d="M396.2,-234C404.06,-234 412.25,-234 420,-234"/>
<polygon fill="black" stroke="black" points="419.8,-237.5 429.8,-234 419.8,-230.5 419.8,-237.5"/>
</g>
<!-- 1990981657008 -->
<g id="node24" class="node">
<title>1990981657008</title>
<ellipse fill="white" stroke="black" cx="458.75" cy="-162" rx="27" ry="27"/>
</g>
<!-- 1990981840880&#45;&gt;1990981657008 -->
<g id="edge4" class="edge">
<title>1990981840880&#45;&gt;1990981657008</title>
<path fill="none" stroke="black" d="M381.19,-215.65C395.14,-205.87 412.38,-193.79 426.97,-183.57"/>
<polygon fill="black" stroke="black" points="428.69,-186.64 434.87,-178.03 424.67,-180.91 428.69,-186.64"/>
</g>
<!-- 1990971512720 -->
<g id="node3" class="node">
<title>1990971512720</title>
<polygon fill="white" stroke="black" points="616.88,-252 531.88,-252 531.88,-216 616.88,-216 616.88,-252"/>
<text text-anchor="middle" x="574.38" y="-228.97" font-family="Times New Roman,serif" font-size="12.00">Carrier Assign</text>
</g>
<!-- 1990971349312 -->
<g id="node27" class="node">
<title>1990971349312</title>
<ellipse fill="white" stroke="black" cx="690" cy="-234" rx="27" ry="27"/>
</g>
<!-- 1990971512720&#45;&gt;1990971349312 -->
<g id="edge11" class="edge">
<title>1990971512720&#45;&gt;1990971349312</title>
<path fill="none" stroke="black" d="M617.36,-234C628.5,-234 640.46,-234 651.36,-234"/>
<polygon fill="black" stroke="black" points="651.16,-237.5 661.16,-234 651.16,-230.5 651.16,-237.5"/>
</g>
<!-- 1990981664496 -->
<g id="node4" class="node">
<title>1990981664496</title>
<polygon fill="white" stroke="black" points="622.12,-180 526.62,-180 526.62,-144 622.12,-144 622.12,-180"/>
<text text-anchor="middle" x="574.38" y="-156.97" font-family="Times New Roman,serif" font-size="12.00">Insurance Check</text>
</g>
<!-- 1990971044352 -->
<g id="node25" class="node">
<title>1990971044352</title>
<ellipse fill="white" stroke="black" cx="907" cy="-162" rx="27" ry="27"/>
</g>
<!-- 1990981664496&#45;&gt;1990971044352 -->
<g id="edge12" class="edge">
<title>1990981664496&#45;&gt;1990971044352</title>
<path fill="none" stroke="black" d="M622.39,-162C688.58,-162 807.89,-162 868.49,-162"/>
<polygon fill="black" stroke="black" points="868.28,-165.5 878.28,-162 868.28,-158.5 868.28,-165.5"/>
</g>
<!-- 1990981662960 -->
<g id="node5" class="node">
<title>1990981662960</title>
<polygon fill="white" stroke="black" points="627,-321 521.75,-321 521.75,-285 627,-285 627,-321"/>
<text text-anchor="middle" x="574.38" y="-297.98" font-family="Times New Roman,serif" font-size="12.00">Provenance Verify</text>
</g>
<!-- 1990971033120 -->
<g id="node26" class="node">
<title>1990971033120</title>
<ellipse fill="white" stroke="black" cx="798.5" cy="-299" rx="27" ry="27"/>
</g>
<!-- 1990981662960&#45;&gt;1990971033120 -->
<g id="edge10" class="edge">
<title>1990981662960&#45;&gt;1990971033120</title>
<path fill="none" stroke="black" d="M627.45,-302.06C668.18,-301.33 723.82,-300.33 760.19,-299.67"/>
<polygon fill="black" stroke="black" points="759.84,-303.18 769.77,-299.5 759.71,-296.18 759.84,-303.18"/>
</g>
<!-- 1990971348736 -->
<g id="node6" class="node">
<title>1990971348736</title>
<polygon fill="white" stroke="black" points="844,-252 753,-252 753,-216 844,-216 844,-252"/>
<text text-anchor="middle" x="798.5" y="-228.97" font-family="Times New Roman,serif" font-size="12.00">Route Optimize</text>
</g>
<!-- 1990981659024 -->
<g id="node28" class="node">
<title>1990981659024</title>
<ellipse fill="white" stroke="black" cx="907" cy="-234" rx="27" ry="27"/>
</g>
<!-- 1990971348736&#45;&gt;1990981659024 -->
<g id="edge17" class="edge">
<title>1990971348736&#45;&gt;1990981659024</title>
<path fill="none" stroke="black" d="M844.36,-234C852.36,-234 860.62,-234 868.4,-234"/>
<polygon fill="black" stroke="black" points="868.21,-237.5 878.21,-234 868.21,-230.5 868.21,-237.5"/>
</g>
<!-- 1990981663632 -->
<g id="node7" class="node">
<title>1990981663632</title>
<polygon fill="black" stroke="black" points="1244,-252 1190,-252 1190,-216 1244,-216 1244,-252"/>
</g>
<!-- 1990981655664 -->
<g id="node29" class="node">
<title>1990981655664</title>
<ellipse fill="white" stroke="black" cx="1307" cy="-234" rx="27" ry="27"/>
</g>
<!-- 1990981663632&#45;&gt;1990981655664 -->
<g id="edge16" class="edge">
<title>1990981663632&#45;&gt;1990981655664</title>
<path fill="none" stroke="black" d="M1244.4,-234C1251.89,-234 1260.18,-234 1268.2,-234"/>
<polygon fill="black" stroke="black" points="1268.1,-237.5 1278.1,-234 1268.1,-230.5 1268.1,-237.5"/>
</g>
<!-- 1990971033600 -->
<g id="node8" class="node">
<title>1990971033600</title>
<polygon fill="black" stroke="black" points="1424,-189 1370,-189 1370,-153 1424,-153 1424,-189"/>
</g>
<!-- 1990971032736 -->
<g id="node30" class="node">
<title>1990971032736</title>
<ellipse fill="white" stroke="black" cx="1487" cy="-243" rx="27" ry="27"/>
</g>
<!-- 1990971033600&#45;&gt;1990971032736 -->
<g id="edge24" class="edge">
<title>1990971033600&#45;&gt;1990971032736</title>
<path fill="none" stroke="black" d="M1420.21,-189.17C1431.32,-198.26 1444.92,-209.39 1456.87,-219.16"/>
<polygon fill="black" stroke="black" points="1454.48,-221.74 1464.44,-225.36 1458.92,-216.32 1454.48,-221.74"/>
</g>
<!-- 1990979723744 -->
<g id="node32" class="node">
<title>1990979723744</title>
<ellipse fill="white" stroke="black" cx="1487" cy="-171" rx="27" ry="27"/>
</g>
<!-- 1990971033600&#45;&gt;1990979723744 -->
<g id="edge23" class="edge">
<title>1990971033600&#45;&gt;1990979723744</title>
<path fill="none" stroke="black" d="M1424.4,-171C1431.89,-171 1440.18,-171 1448.2,-171"/>
<polygon fill="black" stroke="black" points="1448.1,-174.5 1458.1,-171 1448.1,-167.5 1448.1,-174.5"/>
</g>
<!-- 1990971044832 -->
<g id="node33" class="node">
<title>1990971044832</title>
<ellipse fill="white" stroke="black" cx="1487" cy="-99" rx="27" ry="27"/>
</g>
<!-- 1990971033600&#45;&gt;1990971044832 -->
<g id="edge20" class="edge">
<title>1990971033600&#45;&gt;1990971044832</title>
<path fill="none" stroke="black" d="M1420.21,-152.83C1431.32,-143.74 1444.92,-132.61 1456.87,-122.84"/>
<polygon fill="black" stroke="black" points="1458.92,-125.68 1464.44,-116.64 1454.48,-120.26 1458.92,-125.68"/>
</g>
<!-- 1990981664112 -->
<g id="node34" class="node">
<title>1990981664112</title>
<ellipse fill="white" stroke="black" cx="1487" cy="-27" rx="27" ry="27"/>
</g>
<!-- 1990971033600&#45;&gt;1990981664112 -->
<g id="edge21" class="edge">
<title>1990971033600&#45;&gt;1990981664112</title>
<path fill="none" stroke="black" d="M1407.75,-152.69C1419.51,-130.93 1440.18,-93.7 1460,-63 1461.16,-61.2 1462.37,-59.37 1463.62,-57.54"/>
<polygon fill="black" stroke="black" points="1466.24,-59.89 1469.09,-49.69 1460.5,-55.89 1466.24,-59.89"/>
</g>
<!-- 1990981651152 -->
<g id="node9" class="node">
<title>1990981651152</title>
<polygon fill="white" stroke="black" points="1064,-252 970,-252 970,-216 1064,-216 1064,-252"/>
<text text-anchor="middle" x="1017" y="-228.97" font-family="Times New Roman,serif" font-size="12.00">Customs Submit</text>
</g>
<!-- 1990971033024 -->
<g id="node31" class="node">
<title>1990971033024</title>
<ellipse fill="white" stroke="black" cx="1127" cy="-234" rx="27" ry="27"/>
</g>
<!-- 1990981651152&#45;&gt;1990971033024 -->
<g id="edge22" class="edge">
<title>1990981651152&#45;&gt;1990971033024</title>
<path fill="none" stroke="black" d="M1064.43,-234C1072.31,-234 1080.41,-234 1088.03,-234"/>
<polygon fill="black" stroke="black" points="1088.02,-237.5 1098.02,-234 1088.02,-230.5 1088.02,-237.5"/>
</g>
<!-- 1990979719952 -->
<g id="node10" class="node">
<title>1990979719952</title>
<polygon fill="white" stroke="black" points="1654.12,-261 1555.62,-261 1555.62,-225 1654.12,-225 1654.12,-261"/>
<text text-anchor="middle" x="1604.88" y="-237.97" font-family="Times New Roman,serif" font-size="12.00">Temperature Log</text>
</g>
<!-- 1990971039984 -->
<g id="node37" class="node">
<title>1990971039984</title>
<ellipse fill="white" stroke="black" cx="1722.75" cy="-243" rx="27" ry="27"/>
</g>
<!-- 1990979719952&#45;&gt;1990971039984 -->
<g id="edge31" class="edge">
<title>1990979719952&#45;&gt;1990971039984</title>
<path fill="none" stroke="black" d="M1654.35,-243C1664.2,-243 1674.43,-243 1683.85,-243"/>
<polygon fill="black" stroke="black" points="1683.76,-246.5 1693.76,-243 1683.76,-239.5 1683.76,-246.5"/>
</g>
<!-- 1990979723696 -->
<g id="node11" class="node">
<title>1990979723696</title>
<polygon fill="white" stroke="black" points="1654.88,-189 1554.88,-189 1554.88,-153 1654.88,-153 1654.88,-189"/>
<text text-anchor="middle" x="1604.88" y="-165.97" font-family="Times New Roman,serif" font-size="12.00">Humidity Control</text>
</g>
<!-- 1990979719280 -->
<g id="node38" class="node">
<title>1990979719280</title>
<ellipse fill="white" stroke="black" cx="1722.75" cy="-171" rx="27" ry="27"/>
</g>
<!-- 1990979723696&#45;&gt;1990979719280 -->
<g id="edge30" class="edge">
<title>1990979723696&#45;&gt;1990979719280</title>
<path fill="none" stroke="black" d="M1655.35,-171C1664.93,-171 1674.83,-171 1683.96,-171"/>
<polygon fill="black" stroke="black" points="1683.92,-174.5 1693.92,-171 1683.92,-167.5 1683.92,-174.5"/>
</g>
<!-- 1990971033168 -->
<g id="node12" class="node">
<title>1990971033168</title>
<polygon fill="white" stroke="black" points="1659.75,-117 1550,-117 1550,-81 1659.75,-81 1659.75,-117"/>
<text text-anchor="middle" x="1604.88" y="-93.97" font-family="Times New Roman,serif" font-size="12.00">Stakeholder Update</text>
</g>
<!-- 1990971044448 -->
<g id="node36" class="node">
<title>1990971044448</title>
<ellipse fill="white" stroke="black" cx="1722.75" cy="-99" rx="27" ry="27"/>
</g>
<!-- 1990971033168&#45;&gt;1990971044448 -->
<g id="edge33" class="edge">
<title>1990971033168&#45;&gt;1990971044448</title>
<path fill="none" stroke="black" d="M1660.08,-99C1668.12,-99 1676.26,-99 1683.87,-99"/>
<polygon fill="black" stroke="black" points="1683.79,-102.5 1693.79,-99 1683.79,-95.5 1683.79,-102.5"/>
</g>
<!-- 1990981655136 -->
<g id="node13" class="node">
<title>1990981655136</title>
<polygon fill="white" stroke="black" points="1651.12,-45 1558.62,-45 1558.62,-9 1651.12,-9 1651.12,-45"/>
<text text-anchor="middle" x="1604.88" y="-21.98" font-family="Times New Roman,serif" font-size="12.00">Real&#45;time Track</text>
</g>
<!-- 1990981653408 -->
<g id="node35" class="node">
<title>1990981653408</title>
<ellipse fill="white" stroke="black" cx="1722.75" cy="-27" rx="27" ry="27"/>
</g>
<!-- 1990981655136&#45;&gt;1990981653408 -->
<g id="edge32" class="edge">
<title>1990981655136&#45;&gt;1990981653408</title>
<path fill="none" stroke="black" d="M1651.34,-27C1662.21,-27 1673.7,-27 1684.17,-27"/>
<polygon fill="black" stroke="black" points="1683.96,-30.5 1693.96,-27 1683.96,-23.5 1683.96,-30.5"/>
</g>
<!-- 1990971035904 -->
<g id="node14" class="node">
<title>1990971035904</title>
<polygon fill="black" stroke="black" points="1839.75,-189 1785.75,-189 1785.75,-153 1839.75,-153 1839.75,-189"/>
</g>
<!-- 1990981661184 -->
<g id="node39" class="node">
<title>1990981661184</title>
<ellipse fill="white" stroke="black" cx="1902.75" cy="-207" rx="27" ry="27"/>
</g>
<!-- 1990971035904&#45;&gt;1990981661184 -->
<g id="edge38" class="edge">
<title>1990971035904&#45;&gt;1990981661184</title>
<path fill="none" stroke="black" d="M1840.15,-181.8C1848.5,-185.22 1857.87,-189.05 1866.72,-192.67"/>
<polygon fill="black" stroke="black" points="1865.19,-195.83 1875.77,-196.37 1867.84,-189.35 1865.19,-195.83"/>
</g>
<!-- 1990971038352 -->
<g id="node15" class="node">
<title>1990971038352</title>
<polygon fill="white" stroke="black" points="2062,-279 1968,-279 1968,-243 2062,-243 2062,-279"/>
<text text-anchor="middle" x="2015" y="-255.97" font-family="Times New Roman,serif" font-size="12.00">Emergency Plan</text>
</g>
<!-- 1990971038352&#45;&gt;1990981655664 -->
<g id="edge41" class="edge">
<title>1990971038352&#45;&gt;1990981655664</title>
<path fill="none" stroke="black" d="M1967.51,-274.57C1927.21,-285.13 1867.13,-298 1813.75,-298 1486,-298 1486,-298 1486,-298 1432.73,-298 1375.5,-272.3 1340.71,-253.47"/>
<polygon fill="black" stroke="black" points="1342.43,-250.42 1331.99,-248.62 1339.03,-256.54 1342.43,-250.42"/>
</g>
<!-- 1990971043104 -->
<g id="node16" class="node">
<title>1990971043104</title>
<polygon fill="white" stroke="black" points="2064.25,-225 1965.75,-225 1965.75,-189 2064.25,-189 2064.25,-225"/>
<text text-anchor="middle" x="2015" y="-201.97" font-family="Times New Roman,serif" font-size="12.00">Unload Carefully</text>
</g>
<!-- 1990971036240 -->
<g id="node40" class="node">
<title>1990971036240</title>
<ellipse fill="white" stroke="black" cx="2127.25" cy="-207" rx="27" ry="27"/>
</g>
<!-- 1990971043104&#45;&gt;1990971036240 -->
<g id="edge42" class="edge">
<title>1990971043104&#45;&gt;1990971036240</title>
<path fill="none" stroke="black" d="M2064.68,-207C2072.63,-207 2080.76,-207 2088.4,-207"/>
<polygon fill="black" stroke="black" points="2088.39,-210.5 2098.39,-207 2088.39,-203.5 2088.39,-210.5"/>
</g>
<!-- 1990971039312 -->
<g id="node17" class="node">
<title>1990971039312</title>
<polygon fill="white" stroke="black" points="2287.25,-225 2190.25,-225 2190.25,-189 2287.25,-189 2287.25,-225"/>
<text text-anchor="middle" x="2238.75" y="-201.97" font-family="Times New Roman,serif" font-size="12.00">Condition Check</text>
</g>
<!-- 1990971045072 -->
<g id="node41" class="node">
<title>1990971045072</title>
<ellipse fill="white" stroke="black" cx="2350.25" cy="-207" rx="27" ry="27"/>
</g>
<!-- 1990971039312&#45;&gt;1990971045072 -->
<g id="edge44" class="edge">
<title>1990971039312&#45;&gt;1990971045072</title>
<path fill="none" stroke="black" d="M2287.46,-207C2295.57,-207 2303.9,-207 2311.7,-207"/>
<polygon fill="black" stroke="black" points="2311.54,-210.5 2321.54,-207 2311.54,-203.5 2311.54,-210.5"/>
</g>
<!-- 1990971046320 -->
<g id="node18" class="node">
<title>1990971046320</title>
<polygon fill="white" stroke="black" points="2493.75,-225 2413.25,-225 2413.25,-189 2493.75,-189 2493.75,-225"/>
<text text-anchor="middle" x="2453.5" y="-201.97" font-family="Times New Roman,serif" font-size="12.00">Exhibit Setup</text>
</g>
<!-- 1990971044688 -->
<g id="node42" class="node">
<title>1990971044688</title>
<ellipse fill="white" stroke="black" cx="2556.75" cy="-207" rx="27" ry="27"/>
</g>
<!-- 1990971046320&#45;&gt;1990971044688 -->
<g id="edge46" class="edge">
<title>1990971046320&#45;&gt;1990971044688</title>
<path fill="none" stroke="black" d="M2494.23,-207C2502.1,-207 2510.34,-207 2518.14,-207"/>
<polygon fill="black" stroke="black" points="2518.02,-210.5 2528.02,-207 2518.02,-203.5 2518.02,-210.5"/>
</g>
<!-- 1990971037056 -->
<g id="node19" class="node">
<title>1990971037056</title>
<polygon fill="white" stroke="black" points="2729.5,-225 2619.75,-225 2619.75,-189 2729.5,-189 2729.5,-225"/>
<text text-anchor="middle" x="2674.62" y="-201.97" font-family="Times New Roman,serif" font-size="12.00">Documentation File</text>
</g>
<!-- 1990975865008 -->
<g id="node43" class="node">
<title>1990975865008</title>
<ellipse fill="white" stroke="black" cx="2796.5" cy="-207" rx="27" ry="27"/>
<ellipse fill="none" stroke="black" cx="2796.5" cy="-207" rx="31" ry="31"/>
<text text-anchor="start" x="2780" y="-191.6" font-family="Times New Roman,serif" font-size="32.00">■</text>
</g>
<!-- 1990971037056&#45;&gt;1990975865008 -->
<g id="edge48" class="edge">
<title>1990971037056&#45;&gt;1990975865008</title>
<path fill="none" stroke="black" d="M2729.95,-207C2738.01,-207 2746.21,-207 2753.96,-207"/>
<polygon fill="black" stroke="black" points="2753.78,-210.5 2763.78,-207 2753.78,-203.5 2753.78,-210.5"/>
</g>
<!-- 1990975876432 -->
<g id="node20" class="node">
<title>1990975876432</title>
<ellipse fill="white" stroke="black" cx="27" cy="-234" rx="27" ry="27"/>
<text text-anchor="start" x="9.75" y="-216.7" font-family="Times New Roman,serif" font-size="34.00">●</text>
</g>
<!-- 1990975876432&#45;&gt;1990981838384 -->
<g id="edge1" class="edge">
<title>1990975876432&#45;&gt;1990981838384</title>
<path fill="none" stroke="black" d="M54.42,-234C61.7,-234 69.91,-234 78.25,-234"/>
<polygon fill="black" stroke="black" points="78.12,-237.5 88.12,-234 78.12,-230.5 78.12,-237.5"/>
</g>
<!-- 1990981839584&#45;&gt;1990981840880 -->
<g id="edge3" class="edge">
<title>1990981839584&#45;&gt;1990981840880</title>
<path fill="none" stroke="black" d="M276.71,-234C284.07,-234 292.33,-234 300.62,-234"/>
<polygon fill="black" stroke="black" points="300.36,-237.5 310.36,-234 300.36,-230.5 300.36,-237.5"/>
</g>
<!-- 1990981662480&#45;&gt;1990981662960 -->
<g id="edge8" class="edge">
<title>1990981662480&#45;&gt;1990981662960</title>
<path fill="none" stroke="black" d="M486.1,-305.3C493.49,-305.11 501.85,-304.89 510.4,-304.66"/>
<polygon fill="black" stroke="black" points="510.26,-308.17 520.16,-304.4 510.07,-301.17 510.26,-308.17"/>
</g>
<!-- 1990971516704&#45;&gt;1990971512720 -->
<g id="edge9" class="edge">
<title>1990971516704&#45;&gt;1990971512720</title>
<path fill="none" stroke="black" d="M486.1,-234C496.34,-234 508.44,-234 520.33,-234"/>
<polygon fill="black" stroke="black" points="520.08,-237.5 530.08,-234 520.08,-230.5 520.08,-237.5"/>
</g>
<!-- 1990981657008&#45;&gt;1990981664496 -->
<g id="edge7" class="edge">
<title>1990981657008&#45;&gt;1990981664496</title>
<path fill="none" stroke="black" d="M486.1,-162C494.77,-162 504.79,-162 514.87,-162"/>
<polygon fill="black" stroke="black" points="514.7,-165.5 524.7,-162 514.7,-158.5 514.7,-165.5"/>
</g>
<!-- 1990971044352&#45;&gt;1990981663632 -->
<g id="edge13" class="edge">
<title>1990971044352&#45;&gt;1990981663632</title>
<path fill="none" stroke="black" d="M934.27,-162.6C980.11,-164.35 1077.18,-171.2 1154,-198 1162.77,-201.06 1171.7,-205.4 1179.95,-210.01"/>
<polygon fill="black" stroke="black" points="1177.92,-212.87 1188.31,-214.93 1181.47,-206.84 1177.92,-212.87"/>
</g>
<!-- 1990971033120&#45;&gt;1990981663632 -->
<g id="edge14" class="edge">
<title>1990971033120&#45;&gt;1990981663632</title>
<path fill="none" stroke="black" d="M825.6,-300.73C885.32,-303.85 1035.86,-307.04 1154,-270 1163.03,-267.17 1172.17,-262.84 1180.56,-258.15"/>
<polygon fill="black" stroke="black" points="1182.24,-261.23 1189.05,-253.11 1178.67,-255.21 1182.24,-261.23"/>
</g>
<!-- 1990971349312&#45;&gt;1990971348736 -->
<g id="edge15" class="edge">
<title>1990971349312&#45;&gt;1990971348736</title>
<path fill="none" stroke="black" d="M717.33,-234C724.69,-234 733,-234 741.39,-234"/>
<polygon fill="black" stroke="black" points="741.31,-237.5 751.31,-234 741.31,-230.5 741.31,-237.5"/>
</g>
<!-- 1990981659024&#45;&gt;1990981651152 -->
<g id="edge19" class="edge">
<title>1990981659024&#45;&gt;1990981651152</title>
<path fill="none" stroke="black" d="M934.42,-234C941.72,-234 949.94,-234 958.27,-234"/>
<polygon fill="black" stroke="black" points="958.13,-237.5 968.13,-234 958.13,-230.5 958.13,-237.5"/>
</g>
<!-- 1990981655664&#45;&gt;1990971033600 -->
<g id="edge18" class="edge">
<title>1990981655664&#45;&gt;1990971033600</title>
<path fill="none" stroke="black" d="M1329.3,-218.75C1338.82,-211.93 1350.3,-203.72 1361.02,-196.04"/>
<polygon fill="black" stroke="black" points="1362.86,-199.03 1368.96,-190.36 1358.79,-193.34 1362.86,-199.03"/>
</g>
<!-- 1990971032736&#45;&gt;1990979719952 -->
<g id="edge26" class="edge">
<title>1990971032736&#45;&gt;1990979719952</title>
<path fill="none" stroke="black" d="M1514.29,-243C1523.22,-243 1533.59,-243 1544.04,-243"/>
<polygon fill="black" stroke="black" points="1543.84,-246.5 1553.84,-243 1543.84,-239.5 1543.84,-246.5"/>
</g>
<!-- 1990971033024&#45;&gt;1990981663632 -->
<g id="edge25" class="edge">
<title>1990971033024&#45;&gt;1990981663632</title>
<path fill="none" stroke="black" d="M1154.4,-234C1161.89,-234 1170.18,-234 1178.2,-234"/>
<polygon fill="black" stroke="black" points="1178.1,-237.5 1188.1,-234 1178.1,-230.5 1178.1,-237.5"/>
</g>
<!-- 1990979723744&#45;&gt;1990979723696 -->
<g id="edge27" class="edge">
<title>1990979723744&#45;&gt;1990979723696</title>
<path fill="none" stroke="black" d="M1514.29,-171C1522.93,-171 1532.92,-171 1543.03,-171"/>
<polygon fill="black" stroke="black" points="1542.91,-174.5 1552.91,-171 1542.91,-167.5 1542.91,-174.5"/>
</g>
<!-- 1990971044832&#45;&gt;1990971033168 -->
<g id="edge28" class="edge">
<title>1990971044832&#45;&gt;1990971033168</title>
<path fill="none" stroke="black" d="M1514.29,-99C1521.63,-99 1529.94,-99 1538.47,-99"/>
<polygon fill="black" stroke="black" points="1538.24,-102.5 1548.24,-99 1538.24,-95.5 1538.24,-102.5"/>
</g>
<!-- 1990981664112&#45;&gt;1990981655136 -->
<g id="edge29" class="edge">
<title>1990981664112&#45;&gt;1990981655136</title>
<path fill="none" stroke="black" d="M1514.29,-27C1524.11,-27 1535.67,-27 1547.17,-27"/>
<polygon fill="black" stroke="black" points="1547.07,-30.5 1557.07,-27 1547.07,-23.5 1547.07,-30.5"/>
</g>
<!-- 1990981653408&#45;&gt;1990971035904 -->
<g id="edge36" class="edge">
<title>1990981653408&#45;&gt;1990971035904</title>
<path fill="none" stroke="black" d="M1739.8,-48.45C1743.18,-53.18 1746.66,-58.21 1749.75,-63 1766.78,-89.38 1784.44,-120.59 1796.54,-142.66"/>
<polygon fill="black" stroke="black" points="1793.42,-144.25 1801.28,-151.36 1799.57,-140.91 1793.42,-144.25"/>
</g>
<!-- 1990971044448&#45;&gt;1990971035904 -->
<g id="edge37" class="edge">
<title>1990971044448&#45;&gt;1990971035904</title>
<path fill="none" stroke="black" d="M1744.16,-115.7C1754.92,-124.5 1768.36,-135.5 1780.41,-145.36"/>
<polygon fill="black" stroke="black" points="1778.16,-148.04 1788.12,-151.66 1782.59,-142.62 1778.16,-148.04"/>
</g>
<!-- 1990971039984&#45;&gt;1990971035904 -->
<g id="edge35" class="edge">
<title>1990971039984&#45;&gt;1990971035904</title>
<path fill="none" stroke="black" d="M1744.16,-226.3C1754.92,-217.5 1768.36,-206.5 1780.41,-196.64"/>
<polygon fill="black" stroke="black" points="1782.59,-199.38 1788.12,-190.34 1778.16,-193.96 1782.59,-199.38"/>
</g>
<!-- 1990979719280&#45;&gt;1990971035904 -->
<g id="edge34" class="edge">
<title>1990979719280&#45;&gt;1990971035904</title>
<path fill="none" stroke="black" d="M1750.15,-171C1757.64,-171 1765.93,-171 1773.95,-171"/>
<polygon fill="black" stroke="black" points="1773.85,-174.5 1783.85,-171 1773.85,-167.5 1773.85,-174.5"/>
</g>
<!-- 1990981661184&#45;&gt;1990971038352 -->
<g id="edge40" class="edge">
<title>1990981661184&#45;&gt;1990971038352</title>
<path fill="none" stroke="black" d="M1927.4,-218.58C1938.8,-224.17 1952.89,-231.07 1966.37,-237.67"/>
<polygon fill="black" stroke="black" points="1964.63,-240.72 1975.15,-241.97 1967.71,-234.43 1964.63,-240.72"/>
</g>
<!-- 1990981661184&#45;&gt;1990971043104 -->
<g id="edge39" class="edge">
<title>1990981661184&#45;&gt;1990971043104</title>
<path fill="none" stroke="black" d="M1930.16,-207C1937.43,-207 1945.62,-207 1953.97,-207"/>
<polygon fill="black" stroke="black" points="1953.86,-210.5 1963.86,-207 1953.86,-203.5 1953.86,-210.5"/>
</g>
<!-- 1990971036240&#45;&gt;1990971039312 -->
<g id="edge43" class="edge">
<title>1990971036240&#45;&gt;1990971039312</title>
<path fill="none" stroke="black" d="M2154.48,-207C2161.79,-207 2170.03,-207 2178.43,-207"/>
<polygon fill="black" stroke="black" points="2178.37,-210.5 2188.37,-207 2178.37,-203.5 2178.37,-210.5"/>
</g>
<!-- 1990971045072&#45;&gt;1990971046320 -->
<g id="edge45" class="edge">
<title>1990971045072&#45;&gt;1990971046320</title>
<path fill="none" stroke="black" d="M2377.59,-207C2385,-207 2393.32,-207 2401.65,-207"/>
<polygon fill="black" stroke="black" points="2401.42,-210.5 2411.42,-207 2401.42,-203.5 2401.42,-210.5"/>
</g>
<!-- 1990971044688&#45;&gt;1990971037056 -->
<g id="edge47" class="edge">
<title>1990971044688&#45;&gt;1990971037056</title>
<path fill="none" stroke="black" d="M2584.04,-207C2591.38,-207 2599.69,-207 2608.22,-207"/>
<polygon fill="black" stroke="black" points="2607.99,-210.5 2617.99,-207 2607.99,-203.5 2607.99,-210.5"/>
</g>
</g>
</svg>
