<?xml version="1.0" encoding="UTF-8" standalone="no"?>
<!DOCTYPE svg PUBLIC "-//W3C//DTD SVG 1.1//EN"
 "http://www.w3.org/Graphics/SVG/1.1/DTD/svg11.dtd">
<!-- Generated by graphviz version 11.0.0 (20240428.1522)
 -->
<!-- Title: imdf_net_1754052531.3465075 Pages: 1 -->
<svg width="3013pt" height="170pt"
 viewBox="0.00 0.00 3013.00 170.00" xmlns="http://www.w3.org/2000/svg" xmlns:xlink="http://www.w3.org/1999/xlink">
<g id="graph0" class="graph" transform="scale(1 1) rotate(0) translate(4 166)">
<title>imdf_net_1754052531.3465075</title>
<polygon fill="white" stroke="none" points="-4,4 -4,-166 3009,-166 3009,4 -4,4"/>
<!-- 1990978237744 -->
<g id="node1" class="node">
<title>1990978237744</title>
<polygon fill="white" stroke="black" points="160.75,-153 90,-153 90,-117 160.75,-117 160.75,-153"/>
<text text-anchor="middle" x="125.38" y="-129.97" font-family="Times New Roman,serif" font-size="12.00">Site Survey</text>
</g>
<!-- 1990978225936 -->
<g id="node18" class="node">
<title>1990978225936</title>
<ellipse fill="white" stroke="black" cx="223.75" cy="-135" rx="27" ry="27"/>
</g>
<!-- 1990978237744&#45;&gt;1990978225936 -->
<g id="edge2" class="edge">
<title>1990978237744&#45;&gt;1990978225936</title>
<path fill="none" stroke="black" d="M161.17,-135C168.9,-135 177.14,-135 184.98,-135"/>
<polygon fill="black" stroke="black" points="184.97,-138.5 194.97,-135 184.97,-131.5 184.97,-138.5"/>
</g>
<!-- 1990978234048 -->
<g id="node2" class="node">
<title>1990978234048</title>
<polygon fill="white" stroke="black" points="350.75,-153 286.75,-153 286.75,-117 350.75,-117 350.75,-153"/>
<text text-anchor="middle" x="318.75" y="-129.97" font-family="Times New Roman,serif" font-size="12.00">Load Test</text>
</g>
<!-- 1990975878592 -->
<g id="node19" class="node">
<title>1990975878592</title>
<ellipse fill="white" stroke="black" cx="413.75" cy="-135" rx="27" ry="27"/>
</g>
<!-- 1990978234048&#45;&gt;1990975878592 -->
<g id="edge4" class="edge">
<title>1990978234048&#45;&gt;1990975878592</title>
<path fill="none" stroke="black" d="M351.24,-135C358.79,-135 366.95,-135 374.76,-135"/>
<polygon fill="black" stroke="black" points="374.74,-138.5 384.74,-135 374.74,-131.5 374.74,-138.5"/>
</g>
<!-- 1990975869664 -->
<g id="node3" class="node">
<title>1990975869664</title>
<polygon fill="white" stroke="black" points="556.5,-153 476.75,-153 476.75,-117 556.5,-117 556.5,-153"/>
<text text-anchor="middle" x="516.62" y="-129.97" font-family="Times New Roman,serif" font-size="12.00">Permit Apply</text>
</g>
<!-- 1990975878160 -->
<g id="node20" class="node">
<title>1990975878160</title>
<ellipse fill="white" stroke="black" cx="619.5" cy="-135" rx="27" ry="27"/>
</g>
<!-- 1990975869664&#45;&gt;1990975878160 -->
<g id="edge6" class="edge">
<title>1990975869664&#45;&gt;1990975878160</title>
<path fill="none" stroke="black" d="M556.91,-135C564.78,-135 573.02,-135 580.82,-135"/>
<polygon fill="black" stroke="black" points="580.72,-138.5 590.72,-135 580.72,-131.5 580.72,-138.5"/>
</g>
<!-- 1990975878448 -->
<g id="node4" class="node">
<title>1990975878448</title>
<polygon fill="white" stroke="black" points="755.5,-153 682.5,-153 682.5,-117 755.5,-117 755.5,-153"/>
<text text-anchor="middle" x="719" y="-129.97" font-family="Times New Roman,serif" font-size="12.00">Soil Sample</text>
</g>
<!-- 1990975874224 -->
<g id="node21" class="node">
<title>1990975874224</title>
<ellipse fill="white" stroke="black" cx="818.5" cy="-135" rx="27" ry="27"/>
</g>
<!-- 1990975878448&#45;&gt;1990975874224 -->
<g id="edge8" class="edge">
<title>1990975878448&#45;&gt;1990975874224</title>
<path fill="none" stroke="black" d="M755.75,-135C763.64,-135 772.02,-135 779.97,-135"/>
<polygon fill="black" stroke="black" points="779.71,-138.5 789.71,-135 779.71,-131.5 779.71,-138.5"/>
</g>
<!-- 1990975876288 -->
<g id="node5" class="node">
<title>1990975876288</title>
<polygon fill="white" stroke="black" points="965,-153 881.5,-153 881.5,-117 965,-117 965,-153"/>
<text text-anchor="middle" x="923.25" y="-129.97" font-family="Times New Roman,serif" font-size="12.00">Irrigation Plan</text>
</g>
<!-- 1990975865680 -->
<g id="node22" class="node">
<title>1990975865680</title>
<ellipse fill="white" stroke="black" cx="1028" cy="-135" rx="27" ry="27"/>
</g>
<!-- 1990975876288&#45;&gt;1990975865680 -->
<g id="edge10" class="edge">
<title>1990975876288&#45;&gt;1990975865680</title>
<path fill="none" stroke="black" d="M965.45,-135C973.31,-135 981.5,-135 989.25,-135"/>
<polygon fill="black" stroke="black" points="989.05,-138.5 999.05,-135 989.05,-131.5 989.05,-138.5"/>
</g>
<!-- 1990975874608 -->
<g id="node6" class="node">
<title>1990975874608</title>
<polygon fill="white" stroke="black" points="1171.5,-153 1091,-153 1091,-117 1171.5,-117 1171.5,-153"/>
<text text-anchor="middle" x="1131.25" y="-129.97" font-family="Times New Roman,serif" font-size="12.00">Energy Setup</text>
</g>
<!-- 1990975869232 -->
<g id="node23" class="node">
<title>1990975869232</title>
<ellipse fill="white" stroke="black" cx="1234.5" cy="-135" rx="27" ry="27"/>
</g>
<!-- 1990975874608&#45;&gt;1990975869232 -->
<g id="edge12" class="edge">
<title>1990975874608&#45;&gt;1990975869232</title>
<path fill="none" stroke="black" d="M1171.98,-135C1179.85,-135 1188.09,-135 1195.89,-135"/>
<polygon fill="black" stroke="black" points="1195.77,-138.5 1205.77,-135 1195.77,-131.5 1195.77,-138.5"/>
</g>
<!-- 1990975868416 -->
<g id="node7" class="node">
<title>1990975868416</title>
<polygon fill="white" stroke="black" points="1370.5,-153 1297.5,-153 1297.5,-117 1370.5,-117 1370.5,-153"/>
<text text-anchor="middle" x="1334" y="-129.97" font-family="Times New Roman,serif" font-size="12.00">Install Units</text>
</g>
<!-- 1990979334176 -->
<g id="node24" class="node">
<title>1990979334176</title>
<ellipse fill="white" stroke="black" cx="1433.5" cy="-135" rx="27" ry="27"/>
</g>
<!-- 1990975868416&#45;&gt;1990979334176 -->
<g id="edge14" class="edge">
<title>1990975868416&#45;&gt;1990979334176</title>
<path fill="none" stroke="black" d="M1370.75,-135C1378.64,-135 1387.02,-135 1394.97,-135"/>
<polygon fill="black" stroke="black" points="1394.71,-138.5 1404.71,-135 1394.71,-131.5 1394.71,-138.5"/>
</g>
<!-- 1990978058384 -->
<g id="node8" class="node">
<title>1990978058384</title>
<polygon fill="white" stroke="black" points="1574.75,-153 1496.5,-153 1496.5,-117 1574.75,-117 1574.75,-153"/>
<text text-anchor="middle" x="1535.62" y="-129.97" font-family="Times New Roman,serif" font-size="12.00">Sensor Setup</text>
</g>
<!-- 1990978055504 -->
<g id="node25" class="node">
<title>1990978055504</title>
<ellipse fill="white" stroke="black" cx="1637.75" cy="-135" rx="27" ry="27"/>
</g>
<!-- 1990978058384&#45;&gt;1990978055504 -->
<g id="edge16" class="edge">
<title>1990978058384&#45;&gt;1990978055504</title>
<path fill="none" stroke="black" d="M1575.05,-135C1582.89,-135 1591.13,-135 1598.94,-135"/>
<polygon fill="black" stroke="black" points="1598.86,-138.5 1608.86,-135 1598.86,-131.5 1598.86,-138.5"/>
</g>
<!-- 1990978052912 -->
<g id="node9" class="node">
<title>1990978052912</title>
<polygon fill="white" stroke="black" points="1775.25,-153 1700.75,-153 1700.75,-117 1775.25,-117 1775.25,-153"/>
<text text-anchor="middle" x="1738" y="-129.97" font-family="Times New Roman,serif" font-size="12.00">Pest Control</text>
</g>
<!-- 1990978050992 -->
<g id="node26" class="node">
<title>1990978050992</title>
<ellipse fill="white" stroke="black" cx="1838.25" cy="-135" rx="27" ry="27"/>
</g>
<!-- 1990978052912&#45;&gt;1990978050992 -->
<g id="edge18" class="edge">
<title>1990978052912&#45;&gt;1990978050992</title>
<path fill="none" stroke="black" d="M1775.58,-135C1783.34,-135 1791.54,-135 1799.34,-135"/>
<polygon fill="black" stroke="black" points="1799.25,-138.5 1809.25,-135 1799.25,-131.5 1799.25,-138.5"/>
</g>
<!-- 1990978048112 -->
<g id="node10" class="node">
<title>1990978048112</title>
<polygon fill="white" stroke="black" points="1983.25,-153 1901.25,-153 1901.25,-117 1983.25,-117 1983.25,-153"/>
<text text-anchor="middle" x="1942.25" y="-129.97" font-family="Times New Roman,serif" font-size="12.00">Staff Training</text>
</g>
<!-- 1990971351376 -->
<g id="node27" class="node">
<title>1990971351376</title>
<ellipse fill="white" stroke="black" cx="2046.25" cy="-135" rx="27" ry="27"/>
</g>
<!-- 1990978048112&#45;&gt;1990971351376 -->
<g id="edge20" class="edge">
<title>1990978048112&#45;&gt;1990971351376</title>
<path fill="none" stroke="black" d="M1983.56,-135C1991.48,-135 1999.75,-135 2007.57,-135"/>
<polygon fill="black" stroke="black" points="2007.48,-138.5 2017.48,-135 2007.48,-131.5 2007.48,-138.5"/>
</g>
<!-- 1990971345040 -->
<g id="node11" class="node">
<title>1990971345040</title>
<polygon fill="white" stroke="black" points="2179.25,-153 2109.25,-153 2109.25,-117 2179.25,-117 2179.25,-153"/>
<text text-anchor="middle" x="2144.25" y="-129.97" font-family="Times New Roman,serif" font-size="12.00">Seed Order</text>
</g>
<!-- 1990971348496 -->
<g id="node28" class="node">
<title>1990971348496</title>
<ellipse fill="white" stroke="black" cx="2242.25" cy="-135" rx="27" ry="27"/>
</g>
<!-- 1990971345040&#45;&gt;1990971348496 -->
<g id="edge22" class="edge">
<title>1990971345040&#45;&gt;1990971348496</title>
<path fill="none" stroke="black" d="M2179.64,-135C2187.35,-135 2195.58,-135 2203.43,-135"/>
<polygon fill="black" stroke="black" points="2203.42,-138.5 2213.42,-135 2203.42,-131.5 2203.42,-138.5"/>
</g>
<!-- 1990976238704 -->
<g id="node12" class="node">
<title>1990976238704</title>
<polygon fill="white" stroke="black" points="2387.25,-130 2305.25,-130 2305.25,-94 2387.25,-94 2387.25,-130"/>
<text text-anchor="middle" x="2346.25" y="-106.97" font-family="Times New Roman,serif" font-size="12.00">Crop Planting</text>
</g>
<!-- 1990981078048 -->
<g id="node29" class="node">
<title>1990981078048</title>
<ellipse fill="white" stroke="black" cx="2450.25" cy="-107" rx="27" ry="27"/>
</g>
<!-- 1990976238704&#45;&gt;1990981078048 -->
<g id="edge24" class="edge">
<title>1990976238704&#45;&gt;1990981078048</title>
<path fill="none" stroke="black" d="M2387.56,-110.02C2395.48,-109.64 2403.75,-109.23 2411.57,-108.85"/>
<polygon fill="black" stroke="black" points="2411.67,-112.35 2421.48,-108.36 2411.32,-105.36 2411.67,-112.35"/>
</g>
<!-- 1990980760496 -->
<g id="node13" class="node">
<title>1990980760496</title>
<polygon fill="white" stroke="black" points="2588.5,-125 2513.25,-125 2513.25,-89 2588.5,-89 2588.5,-125"/>
<text text-anchor="middle" x="2550.88" y="-101.97" font-family="Times New Roman,serif" font-size="12.00">Harvest Log</text>
</g>
<!-- 1990980755552 -->
<g id="node30" class="node">
<title>1990980755552</title>
<ellipse fill="white" stroke="black" cx="2655.5" cy="-107" rx="27" ry="27"/>
</g>
<!-- 1990980760496&#45;&gt;1990980755552 -->
<g id="edge27" class="edge">
<title>1990980760496&#45;&gt;1990980755552</title>
<path fill="none" stroke="black" d="M2588.92,-107C2597.95,-107 2607.61,-107 2616.67,-107"/>
<polygon fill="black" stroke="black" points="2616.61,-110.5 2626.61,-107 2616.61,-103.5 2616.61,-110.5"/>
</g>
<!-- 1990976240864 -->
<g id="node14" class="node">
<title>1990976240864</title>
<polygon fill="black" stroke="black" points="2577.88,-60 2523.88,-60 2523.88,-24 2577.88,-24 2577.88,-60"/>
</g>
<!-- 1990971514880 -->
<g id="node31" class="node">
<title>1990971514880</title>
<ellipse fill="white" stroke="black" cx="2655.5" cy="-31" rx="27" ry="27"/>
<ellipse fill="none" stroke="black" cx="2655.5" cy="-31" rx="31" ry="31"/>
<text text-anchor="start" x="2639" y="-15.6" font-family="Times New Roman,serif" font-size="32.00">■</text>
</g>
<!-- 1990976240864&#45;&gt;1990971514880 -->
<g id="edge28" class="edge">
<title>1990976240864&#45;&gt;1990971514880</title>
<path fill="none" stroke="black" d="M2578.3,-39.17C2588.9,-38.03 2601.37,-36.69 2613.12,-35.44"/>
<polygon fill="black" stroke="black" points="2613.46,-38.92 2623.03,-34.37 2612.71,-31.96 2613.46,-38.92"/>
</g>
<!-- 1990980761600 -->
<g id="node15" class="node">
<title>1990980761600</title>
<polygon fill="white" stroke="black" points="2790.25,-125 2722.5,-125 2722.5,-89 2790.25,-89 2790.25,-125"/>
<text text-anchor="middle" x="2756.38" y="-101.97" font-family="Times New Roman,serif" font-size="12.00">Waste Sort</text>
</g>
<!-- 1990980748496 -->
<g id="node32" class="node">
<title>1990980748496</title>
<ellipse fill="white" stroke="black" cx="2853.25" cy="-107" rx="27" ry="27"/>
</g>
<!-- 1990980761600&#45;&gt;1990980748496 -->
<g id="edge30" class="edge">
<title>1990980761600&#45;&gt;1990980748496</title>
<path fill="none" stroke="black" d="M2790.56,-107C2798.31,-107 2806.63,-107 2814.56,-107"/>
<polygon fill="black" stroke="black" points="2814.29,-110.5 2824.29,-107 2814.29,-103.5 2814.29,-110.5"/>
</g>
<!-- 1990980753392 -->
<g id="node16" class="node">
<title>1990980753392</title>
<polygon fill="white" stroke="black" points="3005,-152 2916.25,-152 2916.25,-116 3005,-116 3005,-152"/>
<text text-anchor="middle" x="2960.62" y="-128.97" font-family="Times New Roman,serif" font-size="12.00">Market Launch</text>
</g>
<!-- 1990980753392&#45;&gt;1990971348496 -->
<g id="edge32" class="edge">
<title>1990980753392&#45;&gt;1990971348496</title>
<path fill="none" stroke="black" d="M2916.07,-143.56C2875.28,-151.67 2812.5,-162 2757.38,-162 2449.25,-162 2449.25,-162 2449.25,-162 2389.7,-162 2321.29,-150.77 2280.2,-142.8"/>
<polygon fill="black" stroke="black" points="2281.1,-139.41 2270.61,-140.89 2279.73,-146.27 2281.1,-139.41"/>
</g>
<!-- 1990971522128 -->
<g id="node17" class="node">
<title>1990971522128</title>
<ellipse fill="white" stroke="black" cx="27" cy="-135" rx="27" ry="27"/>
<text text-anchor="start" x="9.75" y="-117.7" font-family="Times New Roman,serif" font-size="34.00">●</text>
</g>
<!-- 1990971522128&#45;&gt;1990978237744 -->
<g id="edge1" class="edge">
<title>1990971522128&#45;&gt;1990978237744</title>
<path fill="none" stroke="black" d="M54.33,-135C61.76,-135 70.06,-135 78.28,-135"/>
<polygon fill="black" stroke="black" points="78.24,-138.5 88.24,-135 78.24,-131.5 78.24,-138.5"/>
</g>
<!-- 1990978225936&#45;&gt;1990978234048 -->
<g id="edge3" class="edge">
<title>1990978225936&#45;&gt;1990978234048</title>
<path fill="none" stroke="black" d="M251.15,-135C258.6,-135 266.89,-135 275.04,-135"/>
<polygon fill="black" stroke="black" points="274.82,-138.5 284.82,-135 274.82,-131.5 274.82,-138.5"/>
</g>
<!-- 1990975878592&#45;&gt;1990975869664 -->
<g id="edge5" class="edge">
<title>1990975878592&#45;&gt;1990975869664</title>
<path fill="none" stroke="black" d="M440.99,-135C448.46,-135 456.85,-135 465.24,-135"/>
<polygon fill="black" stroke="black" points="465.08,-138.5 475.08,-135 465.08,-131.5 465.08,-138.5"/>
</g>
<!-- 1990975878160&#45;&gt;1990975878448 -->
<g id="edge7" class="edge">
<title>1990975878160&#45;&gt;1990975878448</title>
<path fill="none" stroke="black" d="M646.88,-135C654.24,-135 662.47,-135 670.65,-135"/>
<polygon fill="black" stroke="black" points="670.56,-138.5 680.56,-135 670.56,-131.5 670.56,-138.5"/>
</g>
<!-- 1990975874224&#45;&gt;1990975876288 -->
<g id="edge9" class="edge">
<title>1990975874224&#45;&gt;1990975876288</title>
<path fill="none" stroke="black" d="M845.96,-135C853.32,-135 861.58,-135 869.87,-135"/>
<polygon fill="black" stroke="black" points="869.61,-138.5 879.61,-135 869.61,-131.5 869.61,-138.5"/>
</g>
<!-- 1990975865680&#45;&gt;1990975874608 -->
<g id="edge11" class="edge">
<title>1990975865680&#45;&gt;1990975874608</title>
<path fill="none" stroke="black" d="M1055.34,-135C1062.75,-135 1071.07,-135 1079.4,-135"/>
<polygon fill="black" stroke="black" points="1079.17,-138.5 1089.17,-135 1079.17,-131.5 1079.17,-138.5"/>
</g>
<!-- 1990975869232&#45;&gt;1990975868416 -->
<g id="edge13" class="edge">
<title>1990975869232&#45;&gt;1990975868416</title>
<path fill="none" stroke="black" d="M1261.88,-135C1269.24,-135 1277.47,-135 1285.65,-135"/>
<polygon fill="black" stroke="black" points="1285.56,-138.5 1295.56,-135 1285.56,-131.5 1285.56,-138.5"/>
</g>
<!-- 1990979334176&#45;&gt;1990978058384 -->
<g id="edge15" class="edge">
<title>1990979334176&#45;&gt;1990978058384</title>
<path fill="none" stroke="black" d="M1460.81,-135C1468.13,-135 1476.34,-135 1484.55,-135"/>
<polygon fill="black" stroke="black" points="1484.55,-138.5 1494.55,-135 1484.55,-131.5 1484.55,-138.5"/>
</g>
<!-- 1990978055504&#45;&gt;1990978052912 -->
<g id="edge17" class="edge">
<title>1990978055504&#45;&gt;1990978052912</title>
<path fill="none" stroke="black" d="M1665.08,-135C1672.42,-135 1680.63,-135 1688.81,-135"/>
<polygon fill="black" stroke="black" points="1688.74,-138.5 1698.74,-135 1688.74,-131.5 1688.74,-138.5"/>
</g>
<!-- 1990978050992&#45;&gt;1990978048112 -->
<g id="edge19" class="edge">
<title>1990978050992&#45;&gt;1990978048112</title>
<path fill="none" stroke="black" d="M1865.52,-135C1872.9,-135 1881.2,-135 1889.53,-135"/>
<polygon fill="black" stroke="black" points="1889.3,-138.5 1899.3,-135 1889.3,-131.5 1889.3,-138.5"/>
</g>
<!-- 1990971351376&#45;&gt;1990971345040 -->
<g id="edge21" class="edge">
<title>1990971351376&#45;&gt;1990971345040</title>
<path fill="none" stroke="black" d="M2073.74,-135C2081.13,-135 2089.38,-135 2097.55,-135"/>
<polygon fill="black" stroke="black" points="2097.42,-138.5 2107.42,-135 2097.41,-131.5 2097.42,-138.5"/>
</g>
<!-- 1990971348496&#45;&gt;1990976238704 -->
<g id="edge23" class="edge">
<title>1990971348496&#45;&gt;1990976238704</title>
<path fill="none" stroke="black" d="M2268.99,-129.2C2276.54,-127.49 2285.08,-125.57 2293.64,-123.64"/>
<polygon fill="black" stroke="black" points="2294.37,-127.06 2303.35,-121.45 2292.83,-120.23 2294.37,-127.06"/>
</g>
<!-- 1990981078048&#45;&gt;1990980760496 -->
<g id="edge26" class="edge">
<title>1990981078048&#45;&gt;1990980760496</title>
<path fill="none" stroke="black" d="M2477.68,-107C2485.05,-107 2493.29,-107 2501.5,-107"/>
<polygon fill="black" stroke="black" points="2501.48,-110.5 2511.48,-107 2501.48,-103.5 2501.48,-110.5"/>
</g>
<!-- 1990981078048&#45;&gt;1990976240864 -->
<g id="edge25" class="edge">
<title>1990981078048&#45;&gt;1990976240864</title>
<path fill="none" stroke="black" d="M2473.14,-92.57C2485.22,-84.61 2500.52,-74.53 2514.27,-65.46"/>
<polygon fill="black" stroke="black" points="2515.8,-68.65 2522.23,-60.22 2511.95,-62.8 2515.8,-68.65"/>
</g>
<!-- 1990980755552&#45;&gt;1990980761600 -->
<g id="edge29" class="edge">
<title>1990980755552&#45;&gt;1990980761600</title>
<path fill="none" stroke="black" d="M2683,-107C2691.54,-107 2701.25,-107 2710.73,-107"/>
<polygon fill="black" stroke="black" points="2710.56,-110.5 2720.56,-107 2710.56,-103.5 2710.56,-110.5"/>
</g>
<!-- 1990980748496&#45;&gt;1990980753392 -->
<g id="edge31" class="edge">
<title>1990980748496&#45;&gt;1990980753392</title>
<path fill="none" stroke="black" d="M2879.76,-113.54C2887.38,-115.49 2896.05,-117.71 2904.8,-119.95"/>
<polygon fill="black" stroke="black" points="2903.83,-123.32 2914.38,-122.41 2905.56,-116.53 2903.83,-123.32"/>
</g>
</g>
</svg>
