<?xml version="1.0" encoding="UTF-8" standalone="no"?>
<!DOCTYPE svg PUBLIC "-//W3C//DTD SVG 1.1//EN"
 "http://www.w3.org/Graphics/SVG/1.1/DTD/svg11.dtd">
<!-- Generated by graphviz version 11.0.0 (20240428.1522)
 -->
<!-- Title: imdf_net_1754052539.0994997 Pages: 1 -->
<svg width="3673pt" height="179pt"
 viewBox="0.00 0.00 3673.00 179.00" xmlns="http://www.w3.org/2000/svg" xmlns:xlink="http://www.w3.org/1999/xlink">
<g id="graph0" class="graph" transform="scale(1 1) rotate(0) translate(4 175)">
<title>imdf_net_1754052539.0994997</title>
<polygon fill="white" stroke="none" points="-4,4 -4,-175 3669,-175 3669,4 -4,4"/>
<!-- 1990978549328 -->
<g id="node1" class="node">
<title>1990978549328</title>
<polygon fill="black" stroke="black" points="144,-148 90,-148 90,-112 144,-112 144,-148"/>
</g>
<!-- 1990978542992 -->
<g id="node22" class="node">
<title>1990978542992</title>
<ellipse fill="white" stroke="black" cx="207" cy="-130" rx="27" ry="27"/>
</g>
<!-- 1990978549328&#45;&gt;1990978542992 -->
<g id="edge2" class="edge">
<title>1990978549328&#45;&gt;1990978542992</title>
<path fill="none" stroke="black" d="M144.4,-130C151.89,-130 160.18,-130 168.2,-130"/>
<polygon fill="black" stroke="black" points="168.1,-133.5 178.1,-130 168.1,-126.5 168.1,-133.5"/>
</g>
<!-- 1990975757136 -->
<g id="node2" class="node">
<title>1990975757136</title>
<polygon fill="white" stroke="black" points="354.25,-121 270,-121 270,-85 354.25,-85 354.25,-121"/>
<text text-anchor="middle" x="312.12" y="-97.97" font-family="Times New Roman,serif" font-size="12.00">Milk Sourcing</text>
</g>
<!-- 1990975755984 -->
<g id="node23" class="node">
<title>1990975755984</title>
<ellipse fill="white" stroke="black" cx="417.25" cy="-99" rx="27" ry="27"/>
</g>
<!-- 1990975757136&#45;&gt;1990975755984 -->
<g id="edge4" class="edge">
<title>1990975757136&#45;&gt;1990975755984</title>
<path fill="none" stroke="black" d="M354.48,-101.4C362.44,-101.09 370.74,-100.77 378.58,-100.46"/>
<polygon fill="black" stroke="black" points="378.65,-103.96 388.5,-100.08 378.38,-96.97 378.65,-103.96"/>
</g>
<!-- 1990975765008 -->
<g id="node3" class="node">
<title>1990975765008</title>
<polygon fill="white" stroke="black" points="569.75,-117 480.25,-117 480.25,-81 569.75,-81 569.75,-117"/>
<text text-anchor="middle" x="525" y="-93.97" font-family="Times New Roman,serif" font-size="12.00">Quality Testing</text>
</g>
<!-- 1990975762368 -->
<g id="node24" class="node">
<title>1990975762368</title>
<ellipse fill="white" stroke="black" cx="632.75" cy="-99" rx="27" ry="27"/>
</g>
<!-- 1990975765008&#45;&gt;1990975762368 -->
<g id="edge6" class="edge">
<title>1990975765008&#45;&gt;1990975762368</title>
<path fill="none" stroke="black" d="M570.23,-99C578.2,-99 586.44,-99 594.2,-99"/>
<polygon fill="black" stroke="black" points="593.99,-102.5 603.99,-99 593.99,-95.5 593.99,-102.5"/>
</g>
<!-- 1990975762560 -->
<g id="node4" class="node">
<title>1990975762560</title>
<polygon fill="white" stroke="black" points="785.25,-117 695.75,-117 695.75,-81 785.25,-81 785.25,-117"/>
<text text-anchor="middle" x="740.5" y="-93.97" font-family="Times New Roman,serif" font-size="12.00">Milk Pasteurize</text>
</g>
<!-- 1990975756464 -->
<g id="node25" class="node">
<title>1990975756464</title>
<ellipse fill="white" stroke="black" cx="848.25" cy="-99" rx="27" ry="27"/>
</g>
<!-- 1990975762560&#45;&gt;1990975756464 -->
<g id="edge8" class="edge">
<title>1990975762560&#45;&gt;1990975756464</title>
<path fill="none" stroke="black" d="M785.73,-99C793.7,-99 801.94,-99 809.7,-99"/>
<polygon fill="black" stroke="black" points="809.49,-102.5 819.49,-99 809.49,-95.5 809.49,-102.5"/>
</g>
<!-- 1990975755552 -->
<g id="node5" class="node">
<title>1990975755552</title>
<polygon fill="white" stroke="black" points="1003,-117 911.25,-117 911.25,-81 1003,-81 1003,-117"/>
<text text-anchor="middle" x="957.12" y="-93.97" font-family="Times New Roman,serif" font-size="12.00">Curd Formation</text>
</g>
<!-- 1990982430992 -->
<g id="node26" class="node">
<title>1990982430992</title>
<ellipse fill="white" stroke="black" cx="1066" cy="-99" rx="27" ry="27"/>
</g>
<!-- 1990975755552&#45;&gt;1990982430992 -->
<g id="edge10" class="edge">
<title>1990975755552&#45;&gt;1990982430992</title>
<path fill="none" stroke="black" d="M1003.45,-99C1011.46,-99 1019.72,-99 1027.48,-99"/>
<polygon fill="black" stroke="black" points="1027.28,-102.5 1037.28,-99 1027.28,-95.5 1027.28,-102.5"/>
</g>
<!-- 1990982432336 -->
<g id="node6" class="node">
<title>1990982432336</title>
<polygon fill="white" stroke="black" points="1226.75,-117 1129,-117 1129,-81 1226.75,-81 1226.75,-117"/>
<text text-anchor="middle" x="1177.88" y="-93.97" font-family="Times New Roman,serif" font-size="12.00">Whey Separation</text>
</g>
<!-- 1990982432480 -->
<g id="node27" class="node">
<title>1990982432480</title>
<ellipse fill="white" stroke="black" cx="1289.75" cy="-99" rx="27" ry="27"/>
</g>
<!-- 1990982432336&#45;&gt;1990982432480 -->
<g id="edge12" class="edge">
<title>1990982432336&#45;&gt;1990982432480</title>
<path fill="none" stroke="black" d="M1227.07,-99C1235.11,-99 1243.35,-99 1251.07,-99"/>
<polygon fill="black" stroke="black" points="1250.81,-102.5 1260.81,-99 1250.81,-95.5 1250.81,-102.5"/>
</g>
<!-- 1990982434304 -->
<g id="node7" class="node">
<title>1990982434304</title>
<polygon fill="white" stroke="black" points="1431,-117 1352.75,-117 1352.75,-81 1431,-81 1431,-117"/>
<text text-anchor="middle" x="1391.88" y="-93.97" font-family="Times New Roman,serif" font-size="12.00">Press Cheese</text>
</g>
<!-- 1990982429120 -->
<g id="node28" class="node">
<title>1990982429120</title>
<ellipse fill="white" stroke="black" cx="1494" cy="-99" rx="27" ry="27"/>
</g>
<!-- 1990982434304&#45;&gt;1990982429120 -->
<g id="edge14" class="edge">
<title>1990982434304&#45;&gt;1990982429120</title>
<path fill="none" stroke="black" d="M1431.3,-99C1439.14,-99 1447.38,-99 1455.19,-99"/>
<polygon fill="black" stroke="black" points="1455.11,-102.5 1465.11,-99 1455.11,-95.5 1455.11,-102.5"/>
</g>
<!-- 1990977084720 -->
<g id="node8" class="node">
<title>1990977084720</title>
<polygon fill="white" stroke="black" points="1649.5,-117 1557,-117 1557,-81 1649.5,-81 1649.5,-117"/>
<text text-anchor="middle" x="1603.25" y="-93.97" font-family="Times New Roman,serif" font-size="12.00">Salt Application</text>
</g>
<!-- 1990980954416 -->
<g id="node29" class="node">
<title>1990980954416</title>
<ellipse fill="white" stroke="black" cx="1712.5" cy="-99" rx="27" ry="27"/>
</g>
<!-- 1990977084720&#45;&gt;1990980954416 -->
<g id="edge16" class="edge">
<title>1990977084720&#45;&gt;1990980954416</title>
<path fill="none" stroke="black" d="M1649.73,-99C1657.77,-99 1666.06,-99 1673.85,-99"/>
<polygon fill="black" stroke="black" points="1673.69,-102.5 1683.69,-99 1673.69,-95.5 1673.69,-102.5"/>
</g>
<!-- 1990981241168 -->
<g id="node9" class="node">
<title>1990981241168</title>
<polygon fill="white" stroke="black" points="1874.75,-68 1775.5,-68 1775.5,-32 1874.75,-32 1874.75,-68"/>
<text text-anchor="middle" x="1825.12" y="-44.98" font-family="Times New Roman,serif" font-size="12.00">Controlled Aging</text>
</g>
<!-- 1990981250288 -->
<g id="node30" class="node">
<title>1990981250288</title>
<ellipse fill="white" stroke="black" cx="1937.75" cy="-49" rx="27" ry="27"/>
</g>
<!-- 1990981241168&#45;&gt;1990981250288 -->
<g id="edge18" class="edge">
<title>1990981241168&#45;&gt;1990981250288</title>
<path fill="none" stroke="black" d="M1874.97,-49.56C1883.04,-49.49 1891.3,-49.41 1899.04,-49.34"/>
<polygon fill="black" stroke="black" points="1898.83,-52.84 1908.8,-49.25 1898.76,-45.84 1898.83,-52.84"/>
</g>
<!-- 1990981248896 -->
<g id="node10" class="node">
<title>1990981248896</title>
<polygon fill="white" stroke="black" points="2092.88,-121 2004.88,-121 2004.88,-85 2092.88,-85 2092.88,-121"/>
<text text-anchor="middle" x="2048.88" y="-97.97" font-family="Times New Roman,serif" font-size="12.00">Sensory Check</text>
</g>
<!-- 1990981248896&#45;&gt;1990980954416 -->
<g id="edge21" class="edge">
<title>1990981248896&#45;&gt;1990980954416</title>
<path fill="none" stroke="black" d="M2004.49,-102.48C1938.35,-101.69 1813.43,-100.2 1751,-99.45"/>
<polygon fill="black" stroke="black" points="1751.29,-95.95 1741.25,-99.33 1751.21,-102.95 1751.29,-95.95"/>
</g>
<!-- 1990981251632 -->
<g id="node11" class="node">
<title>1990981251632</title>
<polygon fill="white" stroke="black" points="2097,-67 2000.75,-67 2000.75,-31 2097,-31 2097,-67"/>
<text text-anchor="middle" x="2048.88" y="-43.98" font-family="Times New Roman,serif" font-size="12.00">Batch Packaging</text>
</g>
<!-- 1990981254752 -->
<g id="node31" class="node">
<title>1990981254752</title>
<ellipse fill="white" stroke="black" cx="2160" cy="-49" rx="27" ry="27"/>
</g>
<!-- 1990981251632&#45;&gt;1990981254752 -->
<g id="edge22" class="edge">
<title>1990981251632&#45;&gt;1990981254752</title>
<path fill="none" stroke="black" d="M2097.42,-49C2105.34,-49 2113.45,-49 2121.09,-49"/>
<polygon fill="black" stroke="black" points="2121.08,-52.5 2131.08,-49 2121.08,-45.5 2121.08,-52.5"/>
</g>
<!-- 1990981250240 -->
<g id="node12" class="node">
<title>1990981250240</title>
<polygon fill="white" stroke="black" points="2306.5,-67 2223,-67 2223,-31 2306.5,-31 2306.5,-67"/>
<text text-anchor="middle" x="2264.75" y="-43.98" font-family="Times New Roman,serif" font-size="12.00">Label Printing</text>
</g>
<!-- 1990981246928 -->
<g id="node32" class="node">
<title>1990981246928</title>
<ellipse fill="white" stroke="black" cx="2369.5" cy="-49" rx="27" ry="27"/>
</g>
<!-- 1990981250240&#45;&gt;1990981246928 -->
<g id="edge24" class="edge">
<title>1990981250240&#45;&gt;1990981246928</title>
<path fill="none" stroke="black" d="M2306.95,-49C2314.81,-49 2323,-49 2330.75,-49"/>
<polygon fill="black" stroke="black" points="2330.55,-52.5 2340.55,-49 2330.55,-45.5 2330.55,-52.5"/>
</g>
<!-- 1990981250624 -->
<g id="node13" class="node">
<title>1990981250624</title>
<polygon fill="white" stroke="black" points="2510.75,-67 2432.5,-67 2432.5,-31 2510.75,-31 2510.75,-67"/>
<text text-anchor="middle" x="2471.62" y="-43.98" font-family="Times New Roman,serif" font-size="12.00">Cold Storage</text>
</g>
<!-- 1990980034992 -->
<g id="node33" class="node">
<title>1990980034992</title>
<ellipse fill="white" stroke="black" cx="2573.75" cy="-49" rx="27" ry="27"/>
</g>
<!-- 1990981250624&#45;&gt;1990980034992 -->
<g id="edge26" class="edge">
<title>1990981250624&#45;&gt;1990980034992</title>
<path fill="none" stroke="black" d="M2511.05,-49C2518.89,-49 2527.13,-49 2534.94,-49"/>
<polygon fill="black" stroke="black" points="2534.86,-52.5 2544.86,-49 2534.86,-45.5 2534.86,-52.5"/>
</g>
<!-- 1990980040896 -->
<g id="node14" class="node">
<title>1990980040896</title>
<polygon fill="white" stroke="black" points="2719.5,-67 2636.75,-67 2636.75,-31 2719.5,-31 2719.5,-67"/>
<text text-anchor="middle" x="2678.12" y="-43.98" font-family="Times New Roman,serif" font-size="12.00">Logistics Plan</text>
</g>
<!-- 1990976970800 -->
<g id="node34" class="node">
<title>1990976970800</title>
<ellipse fill="white" stroke="black" cx="2782.5" cy="-49" rx="27" ry="27"/>
</g>
<!-- 1990980040896&#45;&gt;1990976970800 -->
<g id="edge28" class="edge">
<title>1990980040896&#45;&gt;1990976970800</title>
<path fill="none" stroke="black" d="M2719.88,-49C2727.73,-49 2735.92,-49 2743.67,-49"/>
<polygon fill="black" stroke="black" points="2743.49,-52.5 2753.49,-49 2743.49,-45.5 2743.49,-52.5"/>
</g>
<!-- 1990976970752 -->
<g id="node15" class="node">
<title>1990976970752</title>
<polygon fill="white" stroke="black" points="2933.5,-67 2845.5,-67 2845.5,-31 2933.5,-31 2933.5,-67"/>
<text text-anchor="middle" x="2889.5" y="-43.98" font-family="Times New Roman,serif" font-size="12.00">Retail Delivery</text>
</g>
<!-- 1990981728832 -->
<g id="node35" class="node">
<title>1990981728832</title>
<ellipse fill="white" stroke="black" cx="2996.5" cy="-99" rx="27" ry="27"/>
</g>
<!-- 1990976970752&#45;&gt;1990981728832 -->
<g id="edge31" class="edge">
<title>1990976970752&#45;&gt;1990981728832</title>
<path fill="none" stroke="black" d="M2929.3,-67.48C2939.88,-72.51 2951.26,-77.93 2961.54,-82.83"/>
<polygon fill="black" stroke="black" points="2959.89,-85.92 2970.42,-87.06 2962.9,-79.6 2959.89,-85.92"/>
</g>
<!-- 1990976970464 -->
<g id="node36" class="node">
<title>1990976970464</title>
<ellipse fill="white" stroke="black" cx="2996.5" cy="-27" rx="27" ry="27"/>
</g>
<!-- 1990976970752&#45;&gt;1990976970464 -->
<g id="edge30" class="edge">
<title>1990976970752&#45;&gt;1990976970464</title>
<path fill="none" stroke="black" d="M2933.81,-39.92C2942.01,-38.21 2950.52,-36.42 2958.5,-34.75"/>
<polygon fill="black" stroke="black" points="2959.17,-38.19 2968.24,-32.71 2957.74,-31.34 2959.17,-38.19"/>
</g>
<!-- 1990981727248 -->
<g id="node16" class="node">
<title>1990981727248</title>
<polygon fill="white" stroke="black" points="3161.75,-45 3059.5,-45 3059.5,-9 3161.75,-9 3161.75,-45"/>
<text text-anchor="middle" x="3110.62" y="-21.98" font-family="Times New Roman,serif" font-size="12.00">Provenance Track</text>
</g>
<!-- 1990976974496 -->
<g id="node37" class="node">
<title>1990976974496</title>
<ellipse fill="white" stroke="black" cx="3224.75" cy="-27" rx="27" ry="27"/>
</g>
<!-- 1990981727248&#45;&gt;1990976974496 -->
<g id="edge34" class="edge">
<title>1990981727248&#45;&gt;1990976974496</title>
<path fill="none" stroke="black" d="M3162.11,-27C3170.22,-27 3178.48,-27 3186.21,-27"/>
<polygon fill="black" stroke="black" points="3185.94,-30.5 3195.94,-27 3185.94,-23.5 3185.94,-30.5"/>
</g>
<!-- 1990981721968 -->
<g id="node17" class="node">
<title>1990981721968</title>
<polygon fill="white" stroke="black" points="3161.38,-117 3059.88,-117 3059.88,-81 3161.38,-81 3161.38,-117"/>
<text text-anchor="middle" x="3110.62" y="-93.97" font-family="Times New Roman,serif" font-size="12.00">Feedback Review</text>
</g>
<!-- 1990981724752 -->
<g id="node38" class="node">
<title>1990981724752</title>
<ellipse fill="white" stroke="black" cx="3224.75" cy="-99" rx="27" ry="27"/>
</g>
<!-- 1990981721968&#45;&gt;1990981724752 -->
<g id="edge35" class="edge">
<title>1990981721968&#45;&gt;1990981724752</title>
<path fill="none" stroke="black" d="M3161.78,-99C3169.92,-99 3178.21,-99 3185.99,-99"/>
<polygon fill="black" stroke="black" points="3185.77,-102.5 3195.77,-99 3185.77,-95.5 3185.77,-102.5"/>
</g>
<!-- 1990975760688 -->
<g id="node18" class="node">
<title>1990975760688</title>
<polygon fill="black" stroke="black" points="3341.75,-117 3287.75,-117 3287.75,-81 3341.75,-81 3341.75,-117"/>
</g>
<!-- 1990978546208 -->
<g id="node39" class="node">
<title>1990978546208</title>
<ellipse fill="white" stroke="black" cx="3404.75" cy="-99" rx="27" ry="27"/>
</g>
<!-- 1990975760688&#45;&gt;1990978546208 -->
<g id="edge38" class="edge">
<title>1990975760688&#45;&gt;1990978546208</title>
<path fill="none" stroke="black" d="M3342.15,-99C3349.64,-99 3357.93,-99 3365.95,-99"/>
<polygon fill="black" stroke="black" points="3365.85,-102.5 3375.85,-99 3365.85,-95.5 3365.85,-102.5"/>
</g>
<!-- 1990979057616 -->
<g id="node19" class="node">
<title>1990979057616</title>
<polygon fill="black" stroke="black" points="3544.38,-117 3490.38,-117 3490.38,-81 3544.38,-81 3544.38,-117"/>
</g>
<!-- 1990978535840 -->
<g id="node40" class="node">
<title>1990978535840</title>
<ellipse fill="white" stroke="black" cx="3634" cy="-99" rx="27" ry="27"/>
<ellipse fill="none" stroke="black" cx="3634" cy="-99" rx="31" ry="31"/>
<text text-anchor="start" x="3617.5" y="-83.6" font-family="Times New Roman,serif" font-size="32.00">■</text>
</g>
<!-- 1990979057616&#45;&gt;1990978535840 -->
<g id="edge42" class="edge">
<title>1990979057616&#45;&gt;1990978535840</title>
<path fill="none" stroke="black" d="M3544.67,-99C3558.47,-99 3575.7,-99 3591.28,-99"/>
<polygon fill="black" stroke="black" points="3591.26,-102.5 3601.26,-99 3591.26,-95.5 3591.26,-102.5"/>
</g>
<!-- 1990979047632 -->
<g id="node20" class="node">
<title>1990979047632</title>
<polygon fill="white" stroke="black" points="3567,-171 3467.75,-171 3467.75,-135 3567,-135 3567,-171"/>
<text text-anchor="middle" x="3517.38" y="-147.97" font-family="Times New Roman,serif" font-size="12.00">Demand Forecast</text>
</g>
<!-- 1990979047632&#45;&gt;1990978542992 -->
<g id="edge41" class="edge">
<title>1990979047632&#45;&gt;1990978542992</title>
<path fill="none" stroke="black" d="M3467.32,-153.38C3426.7,-153.66 3367.47,-154 3315.75,-154 416.25,-154 416.25,-154 416.25,-154 356,-154 286.59,-143.96 245.06,-136.87"/>
<polygon fill="black" stroke="black" points="245.81,-133.45 235.35,-135.18 244.6,-140.34 245.81,-133.45"/>
</g>
<!-- 1990978538288 -->
<g id="node21" class="node">
<title>1990978538288</title>
<ellipse fill="white" stroke="black" cx="27" cy="-130" rx="27" ry="27"/>
<text text-anchor="start" x="9.75" y="-112.7" font-family="Times New Roman,serif" font-size="34.00">●</text>
</g>
<!-- 1990978538288&#45;&gt;1990978549328 -->
<g id="edge1" class="edge">
<title>1990978538288&#45;&gt;1990978549328</title>
<path fill="none" stroke="black" d="M54.4,-130C61.89,-130 70.18,-130 78.2,-130"/>
<polygon fill="black" stroke="black" points="78.1,-133.5 88.1,-130 78.1,-126.5 78.1,-133.5"/>
</g>
<!-- 1990978542992&#45;&gt;1990975757136 -->
<g id="edge3" class="edge">
<title>1990978542992&#45;&gt;1990975757136</title>
<path fill="none" stroke="black" d="M233.49,-123.33C241.21,-121.31 249.98,-119.01 258.79,-116.7"/>
<polygon fill="black" stroke="black" points="259.62,-120.1 268.41,-114.18 257.85,-113.33 259.62,-120.1"/>
</g>
<!-- 1990975755984&#45;&gt;1990975765008 -->
<g id="edge5" class="edge">
<title>1990975755984&#45;&gt;1990975765008</title>
<path fill="none" stroke="black" d="M444.66,-99C451.98,-99 460.21,-99 468.53,-99"/>
<polygon fill="black" stroke="black" points="468.33,-102.5 478.33,-99 468.33,-95.5 468.33,-102.5"/>
</g>
<!-- 1990975762368&#45;&gt;1990975762560 -->
<g id="edge7" class="edge">
<title>1990975762368&#45;&gt;1990975762560</title>
<path fill="none" stroke="black" d="M660.16,-99C667.48,-99 675.71,-99 684.03,-99"/>
<polygon fill="black" stroke="black" points="683.83,-102.5 693.83,-99 683.83,-95.5 683.83,-102.5"/>
</g>
<!-- 1990975756464&#45;&gt;1990975755552 -->
<g id="edge9" class="edge">
<title>1990975756464&#45;&gt;1990975755552</title>
<path fill="none" stroke="black" d="M875.67,-99C882.98,-99 891.2,-99 899.53,-99"/>
<polygon fill="black" stroke="black" points="899.36,-102.5 909.36,-99 899.36,-95.5 899.36,-102.5"/>
</g>
<!-- 1990982430992&#45;&gt;1990982432336 -->
<g id="edge11" class="edge">
<title>1990982430992&#45;&gt;1990982432336</title>
<path fill="none" stroke="black" d="M1093.32,-99C1100.65,-99 1108.93,-99 1117.35,-99"/>
<polygon fill="black" stroke="black" points="1117.33,-102.5 1127.33,-99 1117.33,-95.5 1117.33,-102.5"/>
</g>
<!-- 1990982432480&#45;&gt;1990982434304 -->
<g id="edge13" class="edge">
<title>1990982432480&#45;&gt;1990982434304</title>
<path fill="none" stroke="black" d="M1317.06,-99C1324.38,-99 1332.59,-99 1340.8,-99"/>
<polygon fill="black" stroke="black" points="1340.8,-102.5 1350.8,-99 1340.8,-95.5 1340.8,-102.5"/>
</g>
<!-- 1990982429120&#45;&gt;1990977084720 -->
<g id="edge15" class="edge">
<title>1990982429120&#45;&gt;1990977084720</title>
<path fill="none" stroke="black" d="M1521.24,-99C1528.57,-99 1536.84,-99 1545.22,-99"/>
<polygon fill="black" stroke="black" points="1545.12,-102.5 1555.12,-99 1545.12,-95.5 1545.12,-102.5"/>
</g>
<!-- 1990980954416&#45;&gt;1990981241168 -->
<g id="edge17" class="edge">
<title>1990980954416&#45;&gt;1990981241168</title>
<path fill="none" stroke="black" d="M1737.78,-88.25C1747.91,-83.76 1760.1,-78.36 1772.08,-73.05"/>
<polygon fill="black" stroke="black" points="1773.39,-76.3 1781.12,-69.05 1770.56,-69.9 1773.39,-76.3"/>
</g>
<!-- 1990981250288&#45;&gt;1990981248896 -->
<g id="edge19" class="edge">
<title>1990981250288&#45;&gt;1990981248896</title>
<path fill="none" stroke="black" d="M1962.43,-60.72C1973.51,-66.2 1987.12,-72.94 2000.2,-79.41"/>
<polygon fill="black" stroke="black" points="1998.64,-82.54 2009.15,-83.84 2001.74,-76.27 1998.64,-82.54"/>
</g>
<!-- 1990981250288&#45;&gt;1990981251632 -->
<g id="edge20" class="edge">
<title>1990981250288&#45;&gt;1990981251632</title>
<path fill="none" stroke="black" d="M1965.17,-49C1972.45,-49 1980.66,-49 1989,-49"/>
<polygon fill="black" stroke="black" points="1988.87,-52.5 1998.87,-49 1988.87,-45.5 1988.87,-52.5"/>
</g>
<!-- 1990981254752&#45;&gt;1990981250240 -->
<g id="edge23" class="edge">
<title>1990981254752&#45;&gt;1990981250240</title>
<path fill="none" stroke="black" d="M2187.46,-49C2194.82,-49 2203.08,-49 2211.37,-49"/>
<polygon fill="black" stroke="black" points="2211.11,-52.5 2221.11,-49 2211.11,-45.5 2211.11,-52.5"/>
</g>
<!-- 1990981246928&#45;&gt;1990981250624 -->
<g id="edge25" class="edge">
<title>1990981246928&#45;&gt;1990981250624</title>
<path fill="none" stroke="black" d="M2396.81,-49C2404.13,-49 2412.34,-49 2420.55,-49"/>
<polygon fill="black" stroke="black" points="2420.55,-52.5 2430.55,-49 2420.55,-45.5 2420.55,-52.5"/>
</g>
<!-- 1990980034992&#45;&gt;1990980040896 -->
<g id="edge27" class="edge">
<title>1990980034992&#45;&gt;1990980040896</title>
<path fill="none" stroke="black" d="M2601.11,-49C2608.53,-49 2616.86,-49 2625.21,-49"/>
<polygon fill="black" stroke="black" points="2625.02,-52.5 2635.02,-49 2625.02,-45.5 2625.02,-52.5"/>
</g>
<!-- 1990976970800&#45;&gt;1990976970752 -->
<g id="edge29" class="edge">
<title>1990976970800&#45;&gt;1990976970752</title>
<path fill="none" stroke="black" d="M2810,-49C2817.35,-49 2825.61,-49 2833.94,-49"/>
<polygon fill="black" stroke="black" points="2833.75,-52.5 2843.75,-49 2833.75,-45.5 2833.75,-52.5"/>
</g>
<!-- 1990981728832&#45;&gt;1990981721968 -->
<g id="edge33" class="edge">
<title>1990981728832&#45;&gt;1990981721968</title>
<path fill="none" stroke="black" d="M3023.79,-99C3031.26,-99 3039.72,-99 3048.36,-99"/>
<polygon fill="black" stroke="black" points="3048.21,-102.5 3058.21,-99 3048.21,-95.5 3048.21,-102.5"/>
</g>
<!-- 1990976970464&#45;&gt;1990981727248 -->
<g id="edge32" class="edge">
<title>1990976970464&#45;&gt;1990981727248</title>
<path fill="none" stroke="black" d="M3023.79,-27C3031.17,-27 3039.52,-27 3048.04,-27"/>
<polygon fill="black" stroke="black" points="3047.77,-30.5 3057.77,-27 3047.77,-23.5 3047.77,-30.5"/>
</g>
<!-- 1990976974496&#45;&gt;1990975760688 -->
<g id="edge37" class="edge">
<title>1990976974496&#45;&gt;1990975760688</title>
<path fill="none" stroke="black" d="M3246.16,-43.7C3256.92,-52.5 3270.36,-63.5 3282.41,-73.36"/>
<polygon fill="black" stroke="black" points="3280.16,-76.04 3290.12,-79.66 3284.59,-70.62 3280.16,-76.04"/>
</g>
<!-- 1990981724752&#45;&gt;1990975760688 -->
<g id="edge36" class="edge">
<title>1990981724752&#45;&gt;1990975760688</title>
<path fill="none" stroke="black" d="M3252.15,-99C3259.64,-99 3267.93,-99 3275.95,-99"/>
<polygon fill="black" stroke="black" points="3275.85,-102.5 3285.85,-99 3275.85,-95.5 3275.85,-102.5"/>
</g>
<!-- 1990978546208&#45;&gt;1990979057616 -->
<g id="edge39" class="edge">
<title>1990978546208&#45;&gt;1990979057616</title>
<path fill="none" stroke="black" d="M3432.25,-99C3446.2,-99 3463.56,-99 3478.87,-99"/>
<polygon fill="black" stroke="black" points="3478.58,-102.5 3488.58,-99 3478.58,-95.5 3478.58,-102.5"/>
</g>
<!-- 1990978546208&#45;&gt;1990979047632 -->
<g id="edge40" class="edge">
<title>1990978546208&#45;&gt;1990979047632</title>
<path fill="none" stroke="black" d="M3429.48,-110.58C3440.92,-116.17 3455.06,-123.07 3468.59,-129.67"/>
<polygon fill="black" stroke="black" points="3466.88,-132.73 3477.4,-133.97 3469.95,-126.44 3466.88,-132.73"/>
</g>
</g>
</svg>
