<?xml version="1.0" encoding="UTF-8" standalone="no"?>
<!DOCTYPE svg PUBLIC "-//W3C//DTD SVG 1.1//EN"
 "http://www.w3.org/Graphics/SVG/1.1/DTD/svg11.dtd">
<!-- Generated by graphviz version 11.0.0 (20240428.1522)
 -->
<!-- Title: imdf_net_1754052553.5722787 Pages: 1 -->
<svg width="3374pt" height="206pt"
 viewBox="0.00 0.00 3374.25 206.00" xmlns="http://www.w3.org/2000/svg" xmlns:xlink="http://www.w3.org/1999/xlink">
<g id="graph0" class="graph" transform="scale(1 1) rotate(0) translate(4 202)">
<title>imdf_net_1754052553.5722787</title>
<polygon fill="white" stroke="none" points="-4,4 -4,-202 3370.25,-202 3370.25,4 -4,4"/>
<!-- 1990976656096 -->
<g id="node1" class="node">
<title>1990976656096</title>
<polygon fill="white" stroke="black" points="175,-144 90,-144 90,-108 175,-108 175,-144"/>
<text text-anchor="middle" x="132.5" y="-120.97" font-family="Times New Roman,serif" font-size="12.00">Seed Sourcing</text>
</g>
<!-- 1990971033264 -->
<g id="node21" class="node">
<title>1990971033264</title>
<ellipse fill="white" stroke="black" cx="238" cy="-126" rx="27" ry="27"/>
</g>
<!-- 1990976656096&#45;&gt;1990971033264 -->
<g id="edge2" class="edge">
<title>1990976656096&#45;&gt;1990971033264</title>
<path fill="none" stroke="black" d="M175.3,-126C183.2,-126 191.42,-126 199.18,-126"/>
<polygon fill="black" stroke="black" points="199.01,-129.5 209.01,-126 199.01,-122.5 199.01,-129.5"/>
</g>
<!-- 1990971035712 -->
<g id="node2" class="node">
<title>1990971035712</title>
<polygon fill="white" stroke="black" points="398,-144 301,-144 301,-108 398,-108 398,-144"/>
<text text-anchor="middle" x="349.5" y="-120.97" font-family="Times New Roman,serif" font-size="12.00">Farm Scheduling</text>
</g>
<!-- 1990979727776 -->
<g id="node22" class="node">
<title>1990979727776</title>
<ellipse fill="white" stroke="black" cx="461" cy="-126" rx="27" ry="27"/>
</g>
<!-- 1990971035712&#45;&gt;1990979727776 -->
<g id="edge4" class="edge">
<title>1990971035712&#45;&gt;1990979727776</title>
<path fill="none" stroke="black" d="M398.21,-126C406.32,-126 414.65,-126 422.45,-126"/>
<polygon fill="black" stroke="black" points="422.29,-129.5 432.29,-126 422.29,-122.5 422.29,-129.5"/>
</g>
<!-- 1990979577920 -->
<g id="node3" class="node">
<title>1990979577920</title>
<polygon fill="white" stroke="black" points="628.5,-121 524,-121 524,-85 628.5,-85 628.5,-121"/>
<text text-anchor="middle" x="576.25" y="-97.97" font-family="Times New Roman,serif" font-size="12.00">Sensor Monitoring</text>
</g>
<!-- 1990976292096 -->
<g id="node23" class="node">
<title>1990976292096</title>
<ellipse fill="white" stroke="black" cx="691.5" cy="-97" rx="27" ry="27"/>
</g>
<!-- 1990979577920&#45;&gt;1990976292096 -->
<g id="edge6" class="edge">
<title>1990979577920&#45;&gt;1990976292096</title>
<path fill="none" stroke="black" d="M628.9,-100.26C637.04,-99.83 645.31,-99.39 653.04,-98.98"/>
<polygon fill="black" stroke="black" points="652.96,-102.49 662.77,-98.47 652.59,-95.5 652.96,-102.49"/>
</g>
<!-- 1990976306496 -->
<g id="node4" class="node">
<title>1990976306496</title>
<polygon fill="white" stroke="black" points="841.75,-113 754.5,-113 754.5,-77 841.75,-77 841.75,-113"/>
<text text-anchor="middle" x="798.12" y="-89.97" font-family="Times New Roman,serif" font-size="12.00">Pest Inspection</text>
</g>
<!-- 1990976293008 -->
<g id="node24" class="node">
<title>1990976293008</title>
<ellipse fill="white" stroke="black" cx="904.75" cy="-91" rx="27" ry="27"/>
</g>
<!-- 1990976306496&#45;&gt;1990976293008 -->
<g id="edge8" class="edge">
<title>1990976306496&#45;&gt;1990976293008</title>
<path fill="none" stroke="black" d="M841.98,-93.36C849.93,-93.06 858.17,-92.74 865.95,-92.45"/>
<polygon fill="black" stroke="black" points="865.93,-95.95 875.79,-92.07 865.67,-88.95 865.93,-95.95"/>
</g>
<!-- 1990976295456 -->
<g id="node5" class="node">
<title>1990976295456</title>
<polygon fill="white" stroke="black" points="1063.25,-110 967.75,-110 967.75,-74 1063.25,-74 1063.25,-110"/>
<text text-anchor="middle" x="1015.5" y="-86.97" font-family="Times New Roman,serif" font-size="12.00">Nutrient Cycling</text>
</g>
<!-- 1990981089424 -->
<g id="node25" class="node">
<title>1990981089424</title>
<ellipse fill="white" stroke="black" cx="1126.25" cy="-96" rx="27" ry="27"/>
</g>
<!-- 1990976295456&#45;&gt;1990981089424 -->
<g id="edge10" class="edge">
<title>1990976295456&#45;&gt;1990981089424</title>
<path fill="none" stroke="black" d="M1063.57,-93.73C1071.57,-94.03 1079.79,-94.33 1087.52,-94.61"/>
<polygon fill="black" stroke="black" points="1087.13,-98.1 1097.25,-94.97 1087.39,-91.1 1087.13,-98.1"/>
</g>
<!-- 1990981078864 -->
<g id="node6" class="node">
<title>1990981078864</title>
<polygon fill="white" stroke="black" points="1287,-116 1189.25,-116 1189.25,-80 1287,-80 1287,-116"/>
<text text-anchor="middle" x="1238.12" y="-92.97" font-family="Times New Roman,serif" font-size="12.00">Crop Forecasting</text>
</g>
<!-- 1990979723936 -->
<g id="node26" class="node">
<title>1990979723936</title>
<ellipse fill="white" stroke="black" cx="1350" cy="-99" rx="27" ry="27"/>
</g>
<!-- 1990981078864&#45;&gt;1990979723936 -->
<g id="edge12" class="edge">
<title>1990981078864&#45;&gt;1990979723936</title>
<path fill="none" stroke="black" d="M1287.32,-98.44C1295.36,-98.51 1303.6,-98.59 1311.32,-98.66"/>
<polygon fill="black" stroke="black" points="1311.03,-102.15 1321.06,-98.75 1311.09,-95.15 1311.03,-102.15"/>
</g>
<!-- 1990981829024 -->
<g id="node7" class="node">
<title>1990981829024</title>
<polygon fill="white" stroke="black" points="1503.25,-117 1413,-117 1413,-81 1503.25,-81 1503.25,-117"/>
<text text-anchor="middle" x="1458.12" y="-93.97" font-family="Times New Roman,serif" font-size="12.00">Harvest Timing</text>
</g>
<!-- 1990981844720 -->
<g id="node27" class="node">
<title>1990981844720</title>
<ellipse fill="white" stroke="black" cx="1566.25" cy="-99" rx="27" ry="27"/>
</g>
<!-- 1990981829024&#45;&gt;1990981844720 -->
<g id="edge16" class="edge">
<title>1990981829024&#45;&gt;1990981844720</title>
<path fill="none" stroke="black" d="M1503.52,-99C1511.51,-99 1519.78,-99 1527.56,-99"/>
<polygon fill="black" stroke="black" points="1527.39,-102.5 1537.39,-99 1527.39,-95.5 1527.39,-102.5"/>
</g>
<!-- 1990981087072 -->
<g id="node8" class="node">
<title>1990981087072</title>
<polygon fill="black" stroke="black" points="1485.12,-171 1431.12,-171 1431.12,-135 1485.12,-135 1485.12,-171"/>
</g>
<!-- 1990981087072&#45;&gt;1990979727776 -->
<g id="edge15" class="edge">
<title>1990981087072&#45;&gt;1990979727776</title>
<path fill="none" stroke="black" d="M1430.95,-153.2C1390.02,-153.49 1308.39,-154 1239.12,-154 690.5,-154 690.5,-154 690.5,-154 622.63,-154 544.25,-141.68 499.17,-133.38"/>
<polygon fill="black" stroke="black" points="499.88,-129.95 489.4,-131.55 498.59,-136.83 499.88,-129.95"/>
</g>
<!-- 1990981829408 -->
<g id="node9" class="node">
<title>1990981829408</title>
<polygon fill="white" stroke="black" points="1714.25,-117 1629.25,-117 1629.25,-81 1714.25,-81 1714.25,-117"/>
<text text-anchor="middle" x="1671.75" y="-93.97" font-family="Times New Roman,serif" font-size="12.00">Quality Check</text>
</g>
<!-- 1990981835936 -->
<g id="node28" class="node">
<title>1990981835936</title>
<ellipse fill="white" stroke="black" cx="1777.25" cy="-99" rx="27" ry="27"/>
</g>
<!-- 1990981829408&#45;&gt;1990981835936 -->
<g id="edge18" class="edge">
<title>1990981829408&#45;&gt;1990981835936</title>
<path fill="none" stroke="black" d="M1714.55,-99C1722.45,-99 1730.67,-99 1738.43,-99"/>
<polygon fill="black" stroke="black" points="1738.26,-102.5 1748.26,-99 1738.26,-95.5 1738.26,-102.5"/>
</g>
<!-- 1990977854480 -->
<g id="node10" class="node">
<title>1990977854480</title>
<polygon fill="white" stroke="black" points="1938.75,-144 1851.5,-144 1851.5,-108 1938.75,-108 1938.75,-144"/>
<text text-anchor="middle" x="1895.12" y="-120.97" font-family="Times New Roman,serif" font-size="12.00">Eco Packaging</text>
</g>
<!-- 1990977849008 -->
<g id="node29" class="node">
<title>1990977849008</title>
<ellipse fill="white" stroke="black" cx="2013" cy="-99" rx="27" ry="27"/>
</g>
<!-- 1990977854480&#45;&gt;1990977849008 -->
<g id="edge21" class="edge">
<title>1990977854480&#45;&gt;1990977849008</title>
<path fill="none" stroke="black" d="M1938.94,-116.02C1950.84,-113.25 1963.65,-110.27 1975.17,-107.58"/>
<polygon fill="black" stroke="black" points="1975.76,-111.04 1984.7,-105.36 1974.17,-104.22 1975.76,-111.04"/>
</g>
<!-- 1990978228816 -->
<g id="node11" class="node">
<title>1990978228816</title>
<polygon fill="white" stroke="black" points="1950,-90 1840.25,-90 1840.25,-54 1950,-54 1950,-90"/>
<text text-anchor="middle" x="1895.12" y="-66.97" font-family="Times New Roman,serif" font-size="12.00">Waste Management</text>
</g>
<!-- 1990978228816&#45;&gt;1990977849008 -->
<g id="edge22" class="edge">
<title>1990978228816&#45;&gt;1990977849008</title>
<path fill="none" stroke="black" d="M1950.33,-84.63C1958.8,-86.6 1967.38,-88.6 1975.33,-90.46"/>
<polygon fill="black" stroke="black" points="1974.45,-93.84 1984.98,-92.7 1976.04,-87.03 1974.45,-93.84"/>
</g>
<!-- 1990978231216 -->
<g id="node12" class="node">
<title>1990978231216</title>
<polygon fill="white" stroke="black" points="2180.5,-117 2076,-117 2076,-81 2180.5,-81 2180.5,-117"/>
<text text-anchor="middle" x="2128.25" y="-93.97" font-family="Times New Roman,serif" font-size="12.00">Storage Allocation</text>
</g>
<!-- 1990978233088 -->
<g id="node30" class="node">
<title>1990978233088</title>
<ellipse fill="white" stroke="black" cx="2243.5" cy="-99" rx="27" ry="27"/>
</g>
<!-- 1990978231216&#45;&gt;1990978233088 -->
<g id="edge24" class="edge">
<title>1990978231216&#45;&gt;1990978233088</title>
<path fill="none" stroke="black" d="M2180.9,-99C2188.94,-99 2197.12,-99 2204.77,-99"/>
<polygon fill="black" stroke="black" points="2204.76,-102.5 2214.76,-99 2204.76,-95.5 2204.76,-102.5"/>
</g>
<!-- 1990982525600 -->
<g id="node13" class="node">
<title>1990982525600</title>
<polygon fill="white" stroke="black" points="2404.25,-117 2306.5,-117 2306.5,-81 2404.25,-81 2404.25,-117"/>
<text text-anchor="middle" x="2355.38" y="-93.97" font-family="Times New Roman,serif" font-size="12.00">Order Processing</text>
</g>
<!-- 1990980808832 -->
<g id="node31" class="node">
<title>1990980808832</title>
<ellipse fill="white" stroke="black" cx="2467.25" cy="-99" rx="27" ry="27"/>
</g>
<!-- 1990982525600&#45;&gt;1990980808832 -->
<g id="edge26" class="edge">
<title>1990982525600&#45;&gt;1990980808832</title>
<path fill="none" stroke="black" d="M2404.57,-99C2412.61,-99 2420.85,-99 2428.57,-99"/>
<polygon fill="black" stroke="black" points="2428.31,-102.5 2438.31,-99 2428.31,-95.5 2428.31,-102.5"/>
</g>
<!-- 1990980800144 -->
<g id="node14" class="node">
<title>1990980800144</title>
<polygon fill="white" stroke="black" points="2619.75,-117 2530.25,-117 2530.25,-81 2619.75,-81 2619.75,-117"/>
<text text-anchor="middle" x="2575" y="-93.97" font-family="Times New Roman,serif" font-size="12.00">Route Planning</text>
</g>
<!-- 1990971767504 -->
<g id="node32" class="node">
<title>1990971767504</title>
<ellipse fill="white" stroke="black" cx="2682.75" cy="-99" rx="27" ry="27"/>
</g>
<!-- 1990980800144&#45;&gt;1990971767504 -->
<g id="edge28" class="edge">
<title>1990980800144&#45;&gt;1990971767504</title>
<path fill="none" stroke="black" d="M2620.23,-99C2628.2,-99 2636.44,-99 2644.2,-99"/>
<polygon fill="black" stroke="black" points="2643.99,-102.5 2653.99,-99 2643.99,-95.5 2643.99,-102.5"/>
</g>
<!-- 1990980514592 -->
<g id="node15" class="node">
<title>1990980514592</title>
<polygon fill="white" stroke="black" points="2843.5,-117 2745.75,-117 2745.75,-81 2843.5,-81 2843.5,-117"/>
<text text-anchor="middle" x="2794.62" y="-93.97" font-family="Times New Roman,serif" font-size="12.00">Vehicle Dispatch</text>
</g>
<!-- 1990978091680 -->
<g id="node33" class="node">
<title>1990978091680</title>
<ellipse fill="white" stroke="black" cx="2906.5" cy="-171" rx="27" ry="27"/>
</g>
<!-- 1990980514592&#45;&gt;1990978091680 -->
<g id="edge30" class="edge">
<title>1990980514592&#45;&gt;1990978091680</title>
<path fill="none" stroke="black" d="M2823.64,-117.35C2839.01,-127.43 2858.12,-139.95 2874.01,-150.37"/>
<polygon fill="black" stroke="black" points="2871.88,-153.15 2882.16,-155.71 2875.72,-147.3 2871.88,-153.15"/>
</g>
<!-- 1990971754208 -->
<g id="node34" class="node">
<title>1990971754208</title>
<ellipse fill="white" stroke="black" cx="2906.5" cy="-99" rx="27" ry="27"/>
</g>
<!-- 1990980514592&#45;&gt;1990971754208 -->
<g id="edge32" class="edge">
<title>1990980514592&#45;&gt;1990971754208</title>
<path fill="none" stroke="black" d="M2843.82,-99C2851.86,-99 2860.1,-99 2867.82,-99"/>
<polygon fill="black" stroke="black" points="2867.56,-102.5 2877.56,-99 2867.56,-95.5 2867.56,-102.5"/>
</g>
<!-- 1990971766256 -->
<g id="node35" class="node">
<title>1990971766256</title>
<ellipse fill="white" stroke="black" cx="2906.5" cy="-27" rx="27" ry="27"/>
</g>
<!-- 1990980514592&#45;&gt;1990971766256 -->
<g id="edge31" class="edge">
<title>1990980514592&#45;&gt;1990971766256</title>
<path fill="none" stroke="black" d="M2823.64,-80.65C2839.01,-70.57 2858.12,-58.05 2874.01,-47.63"/>
<polygon fill="black" stroke="black" points="2875.72,-50.7 2882.16,-42.29 2871.88,-44.85 2875.72,-50.7"/>
</g>
<!-- 1990971757568 -->
<g id="node16" class="node">
<title>1990971757568</title>
<polygon fill="white" stroke="black" points="3084.12,-45 2973.62,-45 2973.62,-9 3084.12,-9 3084.12,-45"/>
<text text-anchor="middle" x="3028.88" y="-21.98" font-family="Times New Roman,serif" font-size="12.00">Customer Feedback</text>
</g>
<!-- 1990979170048 -->
<g id="node36" class="node">
<title>1990979170048</title>
<ellipse fill="white" stroke="black" cx="3151.25" cy="-27" rx="27" ry="27"/>
</g>
<!-- 1990971757568&#45;&gt;1990979170048 -->
<g id="edge36" class="edge">
<title>1990971757568&#45;&gt;1990979170048</title>
<path fill="none" stroke="black" d="M3084.43,-27C3093.94,-27 3103.65,-27 3112.58,-27"/>
<polygon fill="black" stroke="black" points="3112.28,-30.5 3122.28,-27 3112.28,-23.5 3112.28,-30.5"/>
</g>
<!-- 1990978080640 -->
<g id="node17" class="node">
<title>1990978080640</title>
<polygon fill="white" stroke="black" points="3088.25,-189 2969.5,-189 2969.5,-153 3088.25,-153 3088.25,-189"/>
<text text-anchor="middle" x="3028.88" y="-165.97" font-family="Times New Roman,serif" font-size="12.00">Community Outreach</text>
</g>
<!-- 1990971760496 -->
<g id="node38" class="node">
<title>1990971760496</title>
<ellipse fill="white" stroke="black" cx="3151.25" cy="-171" rx="27" ry="27"/>
</g>
<!-- 1990978080640&#45;&gt;1990971760496 -->
<g id="edge37" class="edge">
<title>1990978080640&#45;&gt;1990971760496</title>
<path fill="none" stroke="black" d="M3088.65,-171C3096.8,-171 3104.98,-171 3112.6,-171"/>
<polygon fill="black" stroke="black" points="3112.51,-174.5 3122.51,-171 3112.51,-167.5 3112.51,-174.5"/>
</g>
<!-- 1990971764816 -->
<g id="node18" class="node">
<title>1990971764816</title>
<polygon fill="white" stroke="black" points="3079.25,-117 2978.5,-117 2978.5,-81 3079.25,-81 3079.25,-117"/>
<text text-anchor="middle" x="3028.88" y="-93.97" font-family="Times New Roman,serif" font-size="12.00">Demand Analysis</text>
</g>
<!-- 1990971766784 -->
<g id="node37" class="node">
<title>1990971766784</title>
<ellipse fill="white" stroke="black" cx="3151.25" cy="-99" rx="27" ry="27"/>
</g>
<!-- 1990971764816&#45;&gt;1990971766784 -->
<g id="edge38" class="edge">
<title>1990971764816&#45;&gt;1990971766784</title>
<path fill="none" stroke="black" d="M3079.53,-99C3090.64,-99 3102.23,-99 3112.75,-99"/>
<polygon fill="black" stroke="black" points="3112.57,-102.5 3122.57,-99 3112.57,-95.5 3112.57,-102.5"/>
</g>
<!-- 1990976659696 -->
<g id="node19" class="node">
<title>1990976659696</title>
<polygon fill="black" stroke="black" points="3268.25,-117 3214.25,-117 3214.25,-81 3268.25,-81 3268.25,-117"/>
</g>
<!-- 1990976655328 -->
<g id="node39" class="node">
<title>1990976655328</title>
<ellipse fill="white" stroke="black" cx="3335.25" cy="-99" rx="27" ry="27"/>
<ellipse fill="none" stroke="black" cx="3335.25" cy="-99" rx="31" ry="31"/>
<text text-anchor="start" x="3318.75" y="-83.6" font-family="Times New Roman,serif" font-size="32.00">■</text>
</g>
<!-- 1990976659696&#45;&gt;1990976655328 -->
<g id="edge42" class="edge">
<title>1990976659696&#45;&gt;1990976655328</title>
<path fill="none" stroke="black" d="M3268.37,-99C3275.88,-99 3284.26,-99 3292.47,-99"/>
<polygon fill="black" stroke="black" points="3292.33,-102.5 3302.33,-99 3292.33,-95.5 3292.33,-102.5"/>
</g>
<!-- 1990976651488 -->
<g id="node20" class="node">
<title>1990976651488</title>
<ellipse fill="white" stroke="black" cx="27" cy="-126" rx="27" ry="27"/>
<text text-anchor="start" x="9.75" y="-108.7" font-family="Times New Roman,serif" font-size="34.00">●</text>
</g>
<!-- 1990976651488&#45;&gt;1990976656096 -->
<g id="edge1" class="edge">
<title>1990976651488&#45;&gt;1990976656096</title>
<path fill="none" stroke="black" d="M54.39,-126C61.8,-126 70.13,-126 78.51,-126"/>
<polygon fill="black" stroke="black" points="78.36,-129.5 88.36,-126 78.36,-122.5 78.36,-129.5"/>
</g>
<!-- 1990971033264&#45;&gt;1990971035712 -->
<g id="edge3" class="edge">
<title>1990971033264&#45;&gt;1990971035712</title>
<path fill="none" stroke="black" d="M265.23,-126C272.54,-126 280.78,-126 289.18,-126"/>
<polygon fill="black" stroke="black" points="289.12,-129.5 299.12,-126 289.12,-122.5 289.12,-129.5"/>
</g>
<!-- 1990979727776&#45;&gt;1990979577920 -->
<g id="edge5" class="edge">
<title>1990979727776&#45;&gt;1990979577920</title>
<path fill="none" stroke="black" d="M487.98,-120.72C495.51,-119.19 504.08,-117.45 512.83,-115.68"/>
<polygon fill="black" stroke="black" points="513.36,-119.14 522.47,-113.72 511.97,-112.28 513.36,-119.14"/>
</g>
<!-- 1990976292096&#45;&gt;1990976306496 -->
<g id="edge7" class="edge">
<title>1990976292096&#45;&gt;1990976306496</title>
<path fill="none" stroke="black" d="M718.9,-96.5C726.23,-96.36 734.46,-96.2 742.76,-96.04"/>
<polygon fill="black" stroke="black" points="742.6,-99.54 752.53,-95.85 742.46,-92.54 742.6,-99.54"/>
</g>
<!-- 1990976293008&#45;&gt;1990976295456 -->
<g id="edge9" class="edge">
<title>1990976293008&#45;&gt;1990976295456</title>
<path fill="none" stroke="black" d="M932.08,-91.24C939.42,-91.31 947.71,-91.39 956.13,-91.46"/>
<polygon fill="black" stroke="black" points="956.06,-94.96 966.09,-91.55 956.13,-87.96 956.06,-94.96"/>
</g>
<!-- 1990981089424&#45;&gt;1990981078864 -->
<g id="edge11" class="edge">
<title>1990981089424&#45;&gt;1990981078864</title>
<path fill="none" stroke="black" d="M1153.57,-96.48C1160.9,-96.61 1169.18,-96.76 1177.6,-96.92"/>
<polygon fill="black" stroke="black" points="1177.52,-100.42 1187.58,-97.1 1177.65,-93.42 1177.52,-100.42"/>
</g>
<!-- 1990979723936&#45;&gt;1990981829024 -->
<g id="edge14" class="edge">
<title>1990979723936&#45;&gt;1990981829024</title>
<path fill="none" stroke="black" d="M1377.23,-99C1384.58,-99 1392.85,-99 1401.22,-99"/>
<polygon fill="black" stroke="black" points="1401.09,-102.5 1411.09,-99 1401.09,-95.5 1401.09,-102.5"/>
</g>
<!-- 1990979723936&#45;&gt;1990981087072 -->
<g id="edge13" class="edge">
<title>1990979723936&#45;&gt;1990981087072</title>
<path fill="none" stroke="black" d="M1374.55,-110.98C1388.05,-117.85 1405.28,-126.62 1420.5,-134.37"/>
<polygon fill="black" stroke="black" points="1418.8,-137.43 1429.3,-138.84 1421.98,-131.19 1418.8,-137.43"/>
</g>
<!-- 1990981844720&#45;&gt;1990981829408 -->
<g id="edge17" class="edge">
<title>1990981844720&#45;&gt;1990981829408</title>
<path fill="none" stroke="black" d="M1593.64,-99C1601.05,-99 1609.38,-99 1617.76,-99"/>
<polygon fill="black" stroke="black" points="1617.61,-102.5 1627.61,-99 1617.61,-95.5 1617.61,-102.5"/>
</g>
<!-- 1990981835936&#45;&gt;1990977854480 -->
<g id="edge19" class="edge">
<title>1990981835936&#45;&gt;1990977854480</title>
<path fill="none" stroke="black" d="M1803.97,-104.99C1814.69,-107.49 1827.58,-110.49 1840.21,-113.44"/>
<polygon fill="black" stroke="black" points="1839.18,-116.79 1849.71,-115.65 1840.76,-109.97 1839.18,-116.79"/>
</g>
<!-- 1990981835936&#45;&gt;1990978228816 -->
<g id="edge20" class="edge">
<title>1990981835936&#45;&gt;1990978228816</title>
<path fill="none" stroke="black" d="M1803.97,-93.01C1811.47,-91.26 1820.02,-89.27 1828.81,-87.22"/>
<polygon fill="black" stroke="black" points="1829.59,-90.63 1838.53,-84.95 1828,-83.81 1829.59,-90.63"/>
</g>
<!-- 1990977849008&#45;&gt;1990978231216 -->
<g id="edge23" class="edge">
<title>1990977849008&#45;&gt;1990978231216</title>
<path fill="none" stroke="black" d="M2040.27,-99C2047.63,-99 2055.96,-99 2064.48,-99"/>
<polygon fill="black" stroke="black" points="2064.21,-102.5 2074.21,-99 2064.21,-95.5 2064.21,-102.5"/>
</g>
<!-- 1990978233088&#45;&gt;1990982525600 -->
<g id="edge25" class="edge">
<title>1990978233088&#45;&gt;1990982525600</title>
<path fill="none" stroke="black" d="M2270.82,-99C2278.15,-99 2286.43,-99 2294.85,-99"/>
<polygon fill="black" stroke="black" points="2294.83,-102.5 2304.83,-99 2294.83,-95.5 2294.83,-102.5"/>
</g>
<!-- 1990980808832&#45;&gt;1990980800144 -->
<g id="edge27" class="edge">
<title>1990980808832&#45;&gt;1990980800144</title>
<path fill="none" stroke="black" d="M2494.66,-99C2501.98,-99 2510.21,-99 2518.53,-99"/>
<polygon fill="black" stroke="black" points="2518.33,-102.5 2528.33,-99 2518.33,-95.5 2518.33,-102.5"/>
</g>
<!-- 1990971767504&#45;&gt;1990980514592 -->
<g id="edge29" class="edge">
<title>1990971767504&#45;&gt;1990980514592</title>
<path fill="none" stroke="black" d="M2710.07,-99C2717.4,-99 2725.68,-99 2734.1,-99"/>
<polygon fill="black" stroke="black" points="2734.08,-102.5 2744.08,-99 2734.08,-95.5 2734.08,-102.5"/>
</g>
<!-- 1990978091680&#45;&gt;1990978080640 -->
<g id="edge33" class="edge">
<title>1990978091680&#45;&gt;1990978080640</title>
<path fill="none" stroke="black" d="M2933.92,-171C2941.23,-171 2949.53,-171 2958.09,-171"/>
<polygon fill="black" stroke="black" points="2957.93,-174.5 2967.93,-171 2957.93,-167.5 2957.93,-174.5"/>
</g>
<!-- 1990971754208&#45;&gt;1990971764816 -->
<g id="edge34" class="edge">
<title>1990971754208&#45;&gt;1990971764816</title>
<path fill="none" stroke="black" d="M2933.92,-99C2943.68,-99 2955.18,-99 2966.74,-99"/>
<polygon fill="black" stroke="black" points="2966.74,-102.5 2976.74,-99 2966.74,-95.5 2966.74,-102.5"/>
</g>
<!-- 1990971766256&#45;&gt;1990971757568 -->
<g id="edge35" class="edge">
<title>1990971766256&#45;&gt;1990971757568</title>
<path fill="none" stroke="black" d="M2933.92,-27C2942.36,-27 2952.12,-27 2962.09,-27"/>
<polygon fill="black" stroke="black" points="2961.86,-30.5 2971.86,-27 2961.86,-23.5 2961.86,-30.5"/>
</g>
<!-- 1990979170048&#45;&gt;1990976659696 -->
<g id="edge40" class="edge">
<title>1990979170048&#45;&gt;1990976659696</title>
<path fill="none" stroke="black" d="M3172.66,-43.7C3183.42,-52.5 3196.86,-63.5 3208.91,-73.36"/>
<polygon fill="black" stroke="black" points="3206.66,-76.04 3216.62,-79.66 3211.09,-70.62 3206.66,-76.04"/>
</g>
<!-- 1990971766784&#45;&gt;1990976659696 -->
<g id="edge41" class="edge">
<title>1990971766784&#45;&gt;1990976659696</title>
<path fill="none" stroke="black" d="M3178.65,-99C3186.14,-99 3194.43,-99 3202.45,-99"/>
<polygon fill="black" stroke="black" points="3202.35,-102.5 3212.35,-99 3202.35,-95.5 3202.35,-102.5"/>
</g>
<!-- 1990971760496&#45;&gt;1990976659696 -->
<g id="edge39" class="edge">
<title>1990971760496&#45;&gt;1990976659696</title>
<path fill="none" stroke="black" d="M3172.66,-154.3C3183.42,-145.5 3196.86,-134.5 3208.91,-124.64"/>
<polygon fill="black" stroke="black" points="3211.09,-127.38 3216.62,-118.34 3206.66,-121.96 3211.09,-127.38"/>
</g>
</g>
</svg>
