<?xml version="1.0" encoding="UTF-8" standalone="no"?>
<!DOCTYPE svg PUBLIC "-//W3C//DTD SVG 1.1//EN"
 "http://www.w3.org/Graphics/SVG/1.1/DTD/svg11.dtd">
<!-- Generated by graphviz version 11.0.0 (20240428.1522)
 -->
<!-- Title: imdf_net_1754052592.7460938 Pages: 1 -->
<svg width="3165pt" height="134pt"
 viewBox="0.00 0.00 3165.00 134.00" xmlns="http://www.w3.org/2000/svg" xmlns:xlink="http://www.w3.org/1999/xlink">
<g id="graph0" class="graph" transform="scale(1 1) rotate(0) translate(4 130)">
<title>imdf_net_1754052592.7460938</title>
<polygon fill="white" stroke="none" points="-4,4 -4,-130 3161,-130 3161,4 -4,4"/>
<!-- 1990982530832 -->
<g id="node1" class="node">
<title>1990982530832</title>
<polygon fill="white" stroke="black" points="181.75,-81 90,-81 90,-45 181.75,-45 181.75,-81"/>
<text text-anchor="middle" x="135.88" y="-57.98" font-family="Times New Roman,serif" font-size="12.00">Site Acquisition</text>
</g>
<!-- 1990979576000 -->
<g id="node17" class="node">
<title>1990979576000</title>
<ellipse fill="white" stroke="black" cx="244.75" cy="-63" rx="27" ry="27"/>
</g>
<!-- 1990982530832&#45;&gt;1990979576000 -->
<g id="edge2" class="edge">
<title>1990982530832&#45;&gt;1990979576000</title>
<path fill="none" stroke="black" d="M182.2,-63C190.21,-63 198.47,-63 206.23,-63"/>
<polygon fill="black" stroke="black" points="206.03,-66.5 216.03,-63 206.03,-59.5 206.03,-66.5"/>
</g>
<!-- 1990980804992 -->
<g id="node2" class="node">
<title>1990980804992</title>
<polygon fill="white" stroke="black" points="391.25,-81 307.75,-81 307.75,-45 391.25,-45 391.25,-81"/>
<text text-anchor="middle" x="349.5" y="-57.98" font-family="Times New Roman,serif" font-size="12.00">Impact Assess</text>
</g>
<!-- 1990971755648 -->
<g id="node18" class="node">
<title>1990971755648</title>
<ellipse fill="white" stroke="black" cx="454.25" cy="-63" rx="27" ry="27"/>
</g>
<!-- 1990980804992&#45;&gt;1990971755648 -->
<g id="edge4" class="edge">
<title>1990980804992&#45;&gt;1990971755648</title>
<path fill="none" stroke="black" d="M391.7,-63C399.56,-63 407.75,-63 415.5,-63"/>
<polygon fill="black" stroke="black" points="415.3,-66.5 425.3,-63 415.3,-59.5 415.3,-66.5"/>
</g>
<!-- 1990981078672 -->
<g id="node3" class="node">
<title>1990981078672</title>
<polygon fill="white" stroke="black" points="603.75,-81 517.25,-81 517.25,-45 603.75,-45 603.75,-81"/>
<text text-anchor="middle" x="560.5" y="-57.98" font-family="Times New Roman,serif" font-size="12.00">Modular Setup</text>
</g>
<!-- 1990981086640 -->
<g id="node19" class="node">
<title>1990981086640</title>
<ellipse fill="white" stroke="black" cx="666.75" cy="-63" rx="27" ry="27"/>
</g>
<!-- 1990981078672&#45;&gt;1990981086640 -->
<g id="edge6" class="edge">
<title>1990981078672&#45;&gt;1990981086640</title>
<path fill="none" stroke="black" d="M604.2,-63C612.12,-63 620.34,-63 628.09,-63"/>
<polygon fill="black" stroke="black" points="627.89,-66.5 637.89,-63 627.89,-59.5 627.89,-66.5"/>
</g>
<!-- 1990981079824 -->
<g id="node4" class="node">
<title>1990981079824</title>
<polygon fill="white" stroke="black" points="811.75,-81 729.75,-81 729.75,-45 811.75,-45 811.75,-81"/>
<text text-anchor="middle" x="770.75" y="-57.98" font-family="Times New Roman,serif" font-size="12.00">Crop Planting</text>
</g>
<!-- 1990978833152 -->
<g id="node20" class="node">
<title>1990978833152</title>
<ellipse fill="white" stroke="black" cx="874.75" cy="-99" rx="27" ry="27"/>
</g>
<!-- 1990981079824&#45;&gt;1990978833152 -->
<g id="edge9" class="edge">
<title>1990981079824&#45;&gt;1990978833152</title>
<path fill="none" stroke="black" d="M812.06,-77.23C820.74,-80.29 829.84,-83.5 838.31,-86.49"/>
<polygon fill="black" stroke="black" points="836.97,-89.73 847.57,-89.76 839.3,-83.13 836.97,-89.73"/>
</g>
<!-- 1990982191536 -->
<g id="node21" class="node">
<title>1990982191536</title>
<ellipse fill="white" stroke="black" cx="874.75" cy="-27" rx="27" ry="27"/>
</g>
<!-- 1990981079824&#45;&gt;1990982191536 -->
<g id="edge8" class="edge">
<title>1990981079824&#45;&gt;1990982191536</title>
<path fill="none" stroke="black" d="M812.06,-48.77C820.74,-45.71 829.84,-42.5 838.31,-39.51"/>
<polygon fill="black" stroke="black" points="839.3,-42.87 847.57,-36.24 836.97,-36.27 839.3,-42.87"/>
</g>
<!-- 1990978832912 -->
<g id="node5" class="node">
<title>1990978832912</title>
<polygon fill="white" stroke="black" points="1022,-117 947.5,-117 947.5,-81 1022,-81 1022,-117"/>
<text text-anchor="middle" x="984.75" y="-93.97" font-family="Times New Roman,serif" font-size="12.00">Pest Control</text>
</g>
<!-- 1990978838336 -->
<g id="node22" class="node">
<title>1990978838336</title>
<ellipse fill="white" stroke="black" cx="1094.75" cy="-99" rx="27" ry="27"/>
</g>
<!-- 1990978832912&#45;&gt;1990978838336 -->
<g id="edge13" class="edge">
<title>1990978832912&#45;&gt;1990978838336</title>
<path fill="none" stroke="black" d="M1022.31,-99C1033.19,-99 1045.12,-99 1056.07,-99"/>
<polygon fill="black" stroke="black" points="1055.95,-102.5 1065.95,-99 1055.95,-95.5 1055.95,-102.5"/>
</g>
<!-- 1990978843568 -->
<g id="node6" class="node">
<title>1990978843568</title>
<polygon fill="white" stroke="black" points="1031.75,-45 937.75,-45 937.75,-9 1031.75,-9 1031.75,-45"/>
<text text-anchor="middle" x="984.75" y="-21.98" font-family="Times New Roman,serif" font-size="12.00">Nutrient Control</text>
</g>
<!-- 1990978832240 -->
<g id="node23" class="node">
<title>1990978832240</title>
<ellipse fill="white" stroke="black" cx="1094.75" cy="-27" rx="27" ry="27"/>
</g>
<!-- 1990978843568&#45;&gt;1990978832240 -->
<g id="edge12" class="edge">
<title>1990978843568&#45;&gt;1990978832240</title>
<path fill="none" stroke="black" d="M1032.18,-27C1040.06,-27 1048.16,-27 1055.78,-27"/>
<polygon fill="black" stroke="black" points="1055.77,-30.5 1065.77,-27 1055.77,-23.5 1055.77,-30.5"/>
</g>
<!-- 1990978834880 -->
<g id="node7" class="node">
<title>1990978834880</title>
<polygon fill="white" stroke="black" points="1251.75,-81 1157.75,-81 1157.75,-45 1251.75,-45 1251.75,-81"/>
<text text-anchor="middle" x="1204.75" y="-57.98" font-family="Times New Roman,serif" font-size="12.00">Growth Monitor</text>
</g>
<!-- 1990978833824 -->
<g id="node24" class="node">
<title>1990978833824</title>
<ellipse fill="white" stroke="black" cx="1314.75" cy="-63" rx="27" ry="27"/>
</g>
<!-- 1990978834880&#45;&gt;1990978833824 -->
<g id="edge16" class="edge">
<title>1990978834880&#45;&gt;1990978833824</title>
<path fill="none" stroke="black" d="M1252.18,-63C1260.06,-63 1268.16,-63 1275.78,-63"/>
<polygon fill="black" stroke="black" points="1275.77,-66.5 1285.77,-63 1275.77,-59.5 1275.77,-66.5"/>
</g>
<!-- 1990978845872 -->
<g id="node8" class="node">
<title>1990978845872</title>
<polygon fill="white" stroke="black" points="1489,-81 1377.75,-81 1377.75,-45 1489,-45 1489,-81"/>
<text text-anchor="middle" x="1433.38" y="-57.98" font-family="Times New Roman,serif" font-size="12.00">Community Engage</text>
</g>
<!-- 1990978836656 -->
<g id="node25" class="node">
<title>1990978836656</title>
<ellipse fill="white" stroke="black" cx="1552" cy="-63" rx="27" ry="27"/>
</g>
<!-- 1990978845872&#45;&gt;1990978836656 -->
<g id="edge18" class="edge">
<title>1990978845872&#45;&gt;1990978836656</title>
<path fill="none" stroke="black" d="M1489.27,-63C1497.34,-63 1505.49,-63 1513.11,-63"/>
<polygon fill="black" stroke="black" points="1513.04,-66.5 1523.04,-63 1513.04,-59.5 1513.04,-66.5"/>
</g>
<!-- 1990978846352 -->
<g id="node9" class="node">
<title>1990978846352</title>
<polygon fill="white" stroke="black" points="1700,-81 1615,-81 1615,-45 1700,-45 1700,-81"/>
<text text-anchor="middle" x="1657.5" y="-57.98" font-family="Times New Roman,serif" font-size="12.00">Yield Forecast</text>
</g>
<!-- 1990978836224 -->
<g id="node26" class="node">
<title>1990978836224</title>
<ellipse fill="white" stroke="black" cx="1763" cy="-63" rx="27" ry="27"/>
</g>
<!-- 1990978846352&#45;&gt;1990978836224 -->
<g id="edge20" class="edge">
<title>1990978846352&#45;&gt;1990978836224</title>
<path fill="none" stroke="black" d="M1700.3,-63C1708.2,-63 1716.42,-63 1724.18,-63"/>
<polygon fill="black" stroke="black" points="1724.01,-66.5 1734.01,-63 1724.01,-59.5 1724.01,-66.5"/>
</g>
<!-- 1990978843184 -->
<g id="node10" class="node">
<title>1990978843184</title>
<polygon fill="white" stroke="black" points="1931.25,-81 1826,-81 1826,-45 1931.25,-45 1931.25,-81"/>
<text text-anchor="middle" x="1878.62" y="-57.98" font-family="Times New Roman,serif" font-size="12.00">Supply Coordinate</text>
</g>
<!-- 1990978836080 -->
<g id="node27" class="node">
<title>1990978836080</title>
<ellipse fill="white" stroke="black" cx="1994.25" cy="-63" rx="27" ry="27"/>
</g>
<!-- 1990978843184&#45;&gt;1990978836080 -->
<g id="edge22" class="edge">
<title>1990978843184&#45;&gt;1990978836080</title>
<path fill="none" stroke="black" d="M1931.45,-63C1939.61,-63 1947.91,-63 1955.67,-63"/>
<polygon fill="black" stroke="black" points="1955.43,-66.5 1965.43,-63 1955.43,-59.5 1955.43,-66.5"/>
</g>
<!-- 1990978842896 -->
<g id="node11" class="node">
<title>1990978842896</title>
<polygon fill="white" stroke="black" points="2164,-81 2057.25,-81 2057.25,-45 2164,-45 2164,-81"/>
<text text-anchor="middle" x="2110.62" y="-57.98" font-family="Times New Roman,serif" font-size="12.00">Compliance Check</text>
</g>
<!-- 1990978838288 -->
<g id="node28" class="node">
<title>1990978838288</title>
<ellipse fill="white" stroke="black" cx="2227" cy="-63" rx="27" ry="27"/>
</g>
<!-- 1990978842896&#45;&gt;1990978838288 -->
<g id="edge24" class="edge">
<title>1990978842896&#45;&gt;1990978838288</title>
<path fill="none" stroke="black" d="M2164.46,-63C2172.45,-63 2180.55,-63 2188.14,-63"/>
<polygon fill="black" stroke="black" points="2188.04,-66.5 2198.04,-63 2188.04,-59.5 2188.04,-66.5"/>
</g>
<!-- 1990978757520 -->
<g id="node12" class="node">
<title>1990978757520</title>
<polygon fill="white" stroke="black" points="2376.5,-81 2290,-81 2290,-45 2376.5,-45 2376.5,-81"/>
<text text-anchor="middle" x="2333.25" y="-57.98" font-family="Times New Roman,serif" font-size="12.00">Waste Recycle</text>
</g>
<!-- 1990978758768 -->
<g id="node29" class="node">
<title>1990978758768</title>
<ellipse fill="white" stroke="black" cx="2439.5" cy="-63" rx="27" ry="27"/>
</g>
<!-- 1990978757520&#45;&gt;1990978758768 -->
<g id="edge26" class="edge">
<title>1990978757520&#45;&gt;1990978758768</title>
<path fill="none" stroke="black" d="M2376.95,-63C2384.87,-63 2393.09,-63 2400.84,-63"/>
<polygon fill="black" stroke="black" points="2400.64,-66.5 2410.64,-63 2400.64,-59.5 2400.64,-66.5"/>
</g>
<!-- 1990977928464 -->
<g id="node13" class="node">
<title>1990977928464</title>
<polygon fill="white" stroke="black" points="2599.5,-81 2502.5,-81 2502.5,-45 2599.5,-45 2599.5,-81"/>
<text text-anchor="middle" x="2551" y="-57.98" font-family="Times New Roman,serif" font-size="12.00">Energy Optimize</text>
</g>
<!-- 1990977913632 -->
<g id="node30" class="node">
<title>1990977913632</title>
<ellipse fill="white" stroke="black" cx="2662.5" cy="-63" rx="27" ry="27"/>
</g>
<!-- 1990977928464&#45;&gt;1990977913632 -->
<g id="edge28" class="edge">
<title>1990977928464&#45;&gt;1990977913632</title>
<path fill="none" stroke="black" d="M2599.71,-63C2607.82,-63 2616.15,-63 2623.95,-63"/>
<polygon fill="black" stroke="black" points="2623.79,-66.5 2633.79,-63 2623.79,-59.5 2623.79,-66.5"/>
</g>
<!-- 1990977925104 -->
<g id="node14" class="node">
<title>1990977925104</title>
<polygon fill="white" stroke="black" points="2817.25,-81 2725.5,-81 2725.5,-45 2817.25,-45 2817.25,-81"/>
<text text-anchor="middle" x="2771.38" y="-57.98" font-family="Times New Roman,serif" font-size="12.00">Market Strategy</text>
</g>
<!-- 1990982204016 -->
<g id="node31" class="node">
<title>1990982204016</title>
<ellipse fill="white" stroke="black" cx="2880.25" cy="-63" rx="27" ry="27"/>
</g>
<!-- 1990977925104&#45;&gt;1990982204016 -->
<g id="edge30" class="edge">
<title>1990977925104&#45;&gt;1990982204016</title>
<path fill="none" stroke="black" d="M2817.7,-63C2825.71,-63 2833.97,-63 2841.73,-63"/>
<polygon fill="black" stroke="black" points="2841.53,-66.5 2851.53,-63 2841.53,-59.5 2841.53,-66.5"/>
</g>
<!-- 1990982198256 -->
<g id="node15" class="node">
<title>1990982198256</title>
<polygon fill="white" stroke="black" points="3059,-81 2943.25,-81 2943.25,-45 3059,-45 3059,-81"/>
<text text-anchor="middle" x="3001.12" y="-57.98" font-family="Times New Roman,serif" font-size="12.00">Performance Review</text>
</g>
<!-- 1990978980512 -->
<g id="node32" class="node">
<title>1990978980512</title>
<ellipse fill="white" stroke="black" cx="3126" cy="-63" rx="27" ry="27"/>
<ellipse fill="none" stroke="black" cx="3126" cy="-63" rx="31" ry="31"/>
<text text-anchor="start" x="3109.5" y="-47.6" font-family="Times New Roman,serif" font-size="32.00">■</text>
</g>
<!-- 1990982198256&#45;&gt;1990978980512 -->
<g id="edge32" class="edge">
<title>1990982198256&#45;&gt;1990978980512</title>
<path fill="none" stroke="black" d="M3059.25,-63C3067.4,-63 3075.66,-63 3083.44,-63"/>
<polygon fill="black" stroke="black" points="3083.3,-66.5 3093.3,-63 3083.3,-59.5 3083.3,-66.5"/>
</g>
<!-- 1990976303328 -->
<g id="node16" class="node">
<title>1990976303328</title>
<ellipse fill="white" stroke="black" cx="27" cy="-63" rx="27" ry="27"/>
<text text-anchor="start" x="9.75" y="-45.7" font-family="Times New Roman,serif" font-size="34.00">●</text>
</g>
<!-- 1990976303328&#45;&gt;1990982530832 -->
<g id="edge1" class="edge">
<title>1990976303328&#45;&gt;1990982530832</title>
<path fill="none" stroke="black" d="M54.42,-63C61.73,-63 69.95,-63 78.28,-63"/>
<polygon fill="black" stroke="black" points="78.11,-66.5 88.11,-63 78.11,-59.5 78.11,-66.5"/>
</g>
<!-- 1990979576000&#45;&gt;1990980804992 -->
<g id="edge3" class="edge">
<title>1990979576000&#45;&gt;1990980804992</title>
<path fill="none" stroke="black" d="M272.21,-63C279.57,-63 287.83,-63 296.12,-63"/>
<polygon fill="black" stroke="black" points="295.86,-66.5 305.86,-63 295.86,-59.5 295.86,-66.5"/>
</g>
<!-- 1990971755648&#45;&gt;1990981078672 -->
<g id="edge5" class="edge">
<title>1990971755648&#45;&gt;1990981078672</title>
<path fill="none" stroke="black" d="M481.56,-63C488.94,-63 497.24,-63 505.61,-63"/>
<polygon fill="black" stroke="black" points="505.46,-66.5 515.46,-63 505.46,-59.5 505.46,-66.5"/>
</g>
<!-- 1990981086640&#45;&gt;1990981079824 -->
<g id="edge7" class="edge">
<title>1990981086640&#45;&gt;1990981079824</title>
<path fill="none" stroke="black" d="M694.02,-63C701.4,-63 709.7,-63 718.03,-63"/>
<polygon fill="black" stroke="black" points="717.8,-66.5 727.8,-63 717.8,-59.5 717.8,-66.5"/>
</g>
<!-- 1990978833152&#45;&gt;1990978832912 -->
<g id="edge11" class="edge">
<title>1990978833152&#45;&gt;1990978832912</title>
<path fill="none" stroke="black" d="M902.17,-99C912.29,-99 924.17,-99 935.69,-99"/>
<polygon fill="black" stroke="black" points="935.49,-102.5 945.49,-99 935.49,-95.5 935.49,-102.5"/>
</g>
<!-- 1990982191536&#45;&gt;1990978843568 -->
<g id="edge10" class="edge">
<title>1990982191536&#45;&gt;1990978843568</title>
<path fill="none" stroke="black" d="M902.17,-27C909.47,-27 917.69,-27 926.02,-27"/>
<polygon fill="black" stroke="black" points="925.88,-30.5 935.88,-27 925.88,-23.5 925.88,-30.5"/>
</g>
<!-- 1990978838336&#45;&gt;1990978834880 -->
<g id="edge15" class="edge">
<title>1990978838336&#45;&gt;1990978834880</title>
<path fill="none" stroke="black" d="M1120.8,-90.65C1128.68,-88.02 1137.73,-85.01 1146.89,-81.95"/>
<polygon fill="black" stroke="black" points="1147.82,-85.33 1156.2,-78.85 1145.61,-78.69 1147.82,-85.33"/>
</g>
<!-- 1990978832240&#45;&gt;1990978834880 -->
<g id="edge14" class="edge">
<title>1990978832240&#45;&gt;1990978834880</title>
<path fill="none" stroke="black" d="M1120.8,-35.35C1128.68,-37.98 1137.73,-40.99 1146.89,-44.05"/>
<polygon fill="black" stroke="black" points="1145.61,-47.31 1156.2,-47.15 1147.82,-40.67 1145.61,-47.31"/>
</g>
<!-- 1990978833824&#45;&gt;1990978845872 -->
<g id="edge17" class="edge">
<title>1990978833824&#45;&gt;1990978845872</title>
<path fill="none" stroke="black" d="M1342.21,-63C1349.42,-63 1357.57,-63 1365.94,-63"/>
<polygon fill="black" stroke="black" points="1365.92,-66.5 1375.92,-63 1365.92,-59.5 1365.92,-66.5"/>
</g>
<!-- 1990978836656&#45;&gt;1990978846352 -->
<g id="edge19" class="edge">
<title>1990978836656&#45;&gt;1990978846352</title>
<path fill="none" stroke="black" d="M1579.39,-63C1586.8,-63 1595.13,-63 1603.51,-63"/>
<polygon fill="black" stroke="black" points="1603.36,-66.5 1613.36,-63 1603.36,-59.5 1603.36,-66.5"/>
</g>
<!-- 1990978836224&#45;&gt;1990978843184 -->
<g id="edge21" class="edge">
<title>1990978836224&#45;&gt;1990978843184</title>
<path fill="none" stroke="black" d="M1790.35,-63C1797.74,-63 1806.1,-63 1814.65,-63"/>
<polygon fill="black" stroke="black" points="1814.41,-66.5 1824.41,-63 1814.41,-59.5 1814.41,-66.5"/>
</g>
<!-- 1990978836080&#45;&gt;1990978842896 -->
<g id="edge23" class="edge">
<title>1990978836080&#45;&gt;1990978842896</title>
<path fill="none" stroke="black" d="M2021.49,-63C2028.83,-63 2037.14,-63 2045.65,-63"/>
<polygon fill="black" stroke="black" points="2045.38,-66.5 2055.38,-63 2045.38,-59.5 2045.38,-66.5"/>
</g>
<!-- 1990978838288&#45;&gt;1990978757520 -->
<g id="edge25" class="edge">
<title>1990978838288&#45;&gt;1990978757520</title>
<path fill="none" stroke="black" d="M2254.31,-63C2261.69,-63 2269.99,-63 2278.36,-63"/>
<polygon fill="black" stroke="black" points="2278.21,-66.5 2288.21,-63 2278.21,-59.5 2278.21,-66.5"/>
</g>
<!-- 1990978758768&#45;&gt;1990977928464 -->
<g id="edge27" class="edge">
<title>1990978758768&#45;&gt;1990977928464</title>
<path fill="none" stroke="black" d="M2466.73,-63C2474.04,-63 2482.28,-63 2490.68,-63"/>
<polygon fill="black" stroke="black" points="2490.62,-66.5 2500.62,-63 2490.62,-59.5 2490.62,-66.5"/>
</g>
<!-- 1990977913632&#45;&gt;1990977925104 -->
<g id="edge29" class="edge">
<title>1990977913632&#45;&gt;1990977925104</title>
<path fill="none" stroke="black" d="M2689.92,-63C2697.23,-63 2705.45,-63 2713.78,-63"/>
<polygon fill="black" stroke="black" points="2713.61,-66.5 2723.61,-63 2713.61,-59.5 2713.61,-66.5"/>
</g>
<!-- 1990982204016&#45;&gt;1990982198256 -->
<g id="edge31" class="edge">
<title>1990982204016&#45;&gt;1990982198256</title>
<path fill="none" stroke="black" d="M2907.63,-63C2914.96,-63 2923.26,-63 2931.82,-63"/>
<polygon fill="black" stroke="black" points="2931.64,-66.5 2941.64,-63 2931.64,-59.5 2931.64,-66.5"/>
</g>
</g>
</svg>
