<?xml version="1.0" encoding="UTF-8" standalone="no"?>
<!DOCTYPE svg PUBLIC "-//W3C//DTD SVG 1.1//EN"
 "http://www.w3.org/Graphics/SVG/1.1/DTD/svg11.dtd">
<!-- Generated by graphviz version 11.0.0 (20240428.1522)
 -->
<!-- Title: imdf_net_1754052596.8255644 Pages: 1 -->
<svg width="3269pt" height="143pt"
 viewBox="0.00 0.00 3268.50 143.00" xmlns="http://www.w3.org/2000/svg" xmlns:xlink="http://www.w3.org/1999/xlink">
<g id="graph0" class="graph" transform="scale(1 1) rotate(0) translate(4 139)">
<title>imdf_net_1754052596.8255644</title>
<polygon fill="white" stroke="none" points="-4,4 -4,-139 3264.5,-139 3264.5,4 -4,4"/>
<!-- 1990978763136 -->
<g id="node1" class="node">
<title>1990978763136</title>
<polygon fill="white" stroke="black" points="161.5,-109 90,-109 90,-73 161.5,-73 161.5,-109"/>
<text text-anchor="middle" x="125.75" y="-85.97" font-family="Times New Roman,serif" font-size="12.00">Client Meet</text>
</g>
<!-- 1990978758720 -->
<g id="node20" class="node">
<title>1990978758720</title>
<ellipse fill="white" stroke="black" cx="224.5" cy="-91" rx="27" ry="27"/>
</g>
<!-- 1990978763136&#45;&gt;1990978758720 -->
<g id="edge2" class="edge">
<title>1990978763136&#45;&gt;1990978758720</title>
<path fill="none" stroke="black" d="M161.95,-91C169.7,-91 177.94,-91 185.79,-91"/>
<polygon fill="black" stroke="black" points="185.76,-94.5 195.76,-91 185.76,-87.5 185.76,-94.5"/>
</g>
<!-- 1990978750704 -->
<g id="node2" class="node">
<title>1990978750704</title>
<polygon fill="white" stroke="black" points="375.5,-109 287.5,-109 287.5,-73 375.5,-73 375.5,-109"/>
<text text-anchor="middle" x="331.5" y="-85.97" font-family="Times New Roman,serif" font-size="12.00">Vision Capture</text>
</g>
<!-- 1990978756080 -->
<g id="node21" class="node">
<title>1990978756080</title>
<ellipse fill="white" stroke="black" cx="438.5" cy="-91" rx="27" ry="27"/>
</g>
<!-- 1990978750704&#45;&gt;1990978756080 -->
<g id="edge4" class="edge">
<title>1990978750704&#45;&gt;1990978756080</title>
<path fill="none" stroke="black" d="M375.81,-91C383.77,-91 392.01,-91 399.78,-91"/>
<polygon fill="black" stroke="black" points="399.6,-94.5 409.6,-91 399.6,-87.5 399.6,-94.5"/>
</g>
<!-- 1990978762032 -->
<g id="node3" class="node">
<title>1990978762032</title>
<polygon fill="white" stroke="black" points="585,-82 501.5,-82 501.5,-46 585,-46 585,-82"/>
<text text-anchor="middle" x="543.25" y="-58.98" font-family="Times New Roman,serif" font-size="12.00">Concept Draft</text>
</g>
<!-- 1990978761072 -->
<g id="node22" class="node">
<title>1990978761072</title>
<ellipse fill="white" stroke="black" cx="648" cy="-63" rx="27" ry="27"/>
</g>
<!-- 1990978762032&#45;&gt;1990978761072 -->
<g id="edge6" class="edge">
<title>1990978762032&#45;&gt;1990978761072</title>
<path fill="none" stroke="black" d="M585.45,-63.6C593.31,-63.52 601.5,-63.44 609.25,-63.37"/>
<polygon fill="black" stroke="black" points="609.08,-66.87 619.05,-63.27 609.01,-59.87 609.08,-66.87"/>
</g>
<!-- 1990978748544 -->
<g id="node4" class="node">
<title>1990978748544</title>
<polygon fill="white" stroke="black" points="806.5,-135 716.25,-135 716.25,-99 806.5,-99 806.5,-135"/>
<text text-anchor="middle" x="761.38" y="-111.97" font-family="Times New Roman,serif" font-size="12.00">Feedback Loop</text>
</g>
<!-- 1990978748544&#45;&gt;1990978756080 -->
<g id="edge9" class="edge">
<title>1990978748544&#45;&gt;1990978756080</title>
<path fill="none" stroke="black" d="M715.81,-113.39C652.27,-108.24 536.78,-98.88 477.23,-94.06"/>
<polygon fill="black" stroke="black" points="477.52,-90.57 467.27,-93.25 476.95,-97.55 477.52,-90.57"/>
</g>
<!-- 1990979333648 -->
<g id="node5" class="node">
<title>1990979333648</title>
<polygon fill="white" stroke="black" points="811.75,-81 711,-81 711,-45 811.75,-45 811.75,-81"/>
<text text-anchor="middle" x="761.38" y="-57.98" font-family="Times New Roman,serif" font-size="12.00">Material Sourcing</text>
</g>
<!-- 1990979472800 -->
<g id="node23" class="node">
<title>1990979472800</title>
<ellipse fill="white" stroke="black" cx="874.75" cy="-63" rx="27" ry="27"/>
</g>
<!-- 1990979333648&#45;&gt;1990979472800 -->
<g id="edge10" class="edge">
<title>1990979333648&#45;&gt;1990979472800</title>
<path fill="none" stroke="black" d="M812.2,-63C820.18,-63 828.33,-63 835.97,-63"/>
<polygon fill="black" stroke="black" points="835.95,-66.5 845.95,-63 835.95,-59.5 835.95,-66.5"/>
</g>
<!-- 1990979485088 -->
<g id="node6" class="node">
<title>1990979485088</title>
<polygon fill="white" stroke="black" points="1036.25,-81 937.75,-81 937.75,-45 1036.25,-45 1036.25,-81"/>
<text text-anchor="middle" x="987" y="-57.98" font-family="Times New Roman,serif" font-size="12.00">Vendor Selection</text>
</g>
<!-- 1990979482544 -->
<g id="node24" class="node">
<title>1990979482544</title>
<ellipse fill="white" stroke="black" cx="1099.25" cy="-63" rx="27" ry="27"/>
</g>
<!-- 1990979485088&#45;&gt;1990979482544 -->
<g id="edge12" class="edge">
<title>1990979485088&#45;&gt;1990979482544</title>
<path fill="none" stroke="black" d="M1036.68,-63C1044.63,-63 1052.76,-63 1060.4,-63"/>
<polygon fill="black" stroke="black" points="1060.39,-66.5 1070.39,-63 1060.39,-59.5 1060.39,-66.5"/>
</g>
<!-- 1990979482736 -->
<g id="node7" class="node">
<title>1990979482736</title>
<polygon fill="white" stroke="black" points="1248.75,-81 1162.25,-81 1162.25,-45 1248.75,-45 1248.75,-81"/>
<text text-anchor="middle" x="1205.5" y="-57.98" font-family="Times New Roman,serif" font-size="12.00">Artisan Assign</text>
</g>
<!-- 1990979473520 -->
<g id="node25" class="node">
<title>1990979473520</title>
<ellipse fill="white" stroke="black" cx="1311.75" cy="-63" rx="27" ry="27"/>
</g>
<!-- 1990979482736&#45;&gt;1990979473520 -->
<g id="edge14" class="edge">
<title>1990979482736&#45;&gt;1990979473520</title>
<path fill="none" stroke="black" d="M1249.2,-63C1257.12,-63 1265.34,-63 1273.09,-63"/>
<polygon fill="black" stroke="black" points="1272.89,-66.5 1282.89,-63 1272.89,-59.5 1272.89,-66.5"/>
</g>
<!-- 1990979481728 -->
<g id="node8" class="node">
<title>1990979481728</title>
<polygon fill="white" stroke="black" points="1465.75,-81 1374.75,-81 1374.75,-45 1465.75,-45 1465.75,-81"/>
<text text-anchor="middle" x="1420.25" y="-57.98" font-family="Times New Roman,serif" font-size="12.00">Prototype Build</text>
</g>
<!-- 1990979482304 -->
<g id="node26" class="node">
<title>1990979482304</title>
<ellipse fill="white" stroke="black" cx="1528.75" cy="-99" rx="27" ry="27"/>
</g>
<!-- 1990979481728&#45;&gt;1990979482304 -->
<g id="edge16" class="edge">
<title>1990979481728&#45;&gt;1990979482304</title>
<path fill="none" stroke="black" d="M1466.11,-78.16C1474.71,-81.07 1483.6,-84.08 1491.87,-86.87"/>
<polygon fill="black" stroke="black" points="1490.65,-90.15 1501.24,-90.04 1492.89,-83.52 1490.65,-90.15"/>
</g>
<!-- 1990979471840 -->
<g id="node27" class="node">
<title>1990979471840</title>
<ellipse fill="white" stroke="black" cx="1528.75" cy="-27" rx="27" ry="27"/>
</g>
<!-- 1990979481728&#45;&gt;1990979471840 -->
<g id="edge17" class="edge">
<title>1990979481728&#45;&gt;1990979471840</title>
<path fill="none" stroke="black" d="M1466.11,-47.84C1474.71,-44.93 1483.6,-41.92 1491.87,-39.13"/>
<polygon fill="black" stroke="black" points="1492.89,-42.48 1501.24,-35.96 1490.65,-35.85 1492.89,-42.48"/>
</g>
<!-- 1990979483024 -->
<g id="node9" class="node">
<title>1990979483024</title>
<polygon fill="white" stroke="black" points="1688,-117 1591.75,-117 1591.75,-81 1688,-81 1688,-117"/>
<text text-anchor="middle" x="1639.88" y="-93.97" font-family="Times New Roman,serif" font-size="12.00">Technical Check</text>
</g>
<!-- 1990976230448 -->
<g id="node29" class="node">
<title>1990976230448</title>
<ellipse fill="white" stroke="black" cx="1751" cy="-99" rx="27" ry="27"/>
</g>
<!-- 1990979483024&#45;&gt;1990976230448 -->
<g id="edge21" class="edge">
<title>1990979483024&#45;&gt;1990976230448</title>
<path fill="none" stroke="black" d="M1688.42,-99C1696.34,-99 1704.45,-99 1712.09,-99"/>
<polygon fill="black" stroke="black" points="1712.08,-102.5 1722.08,-99 1712.08,-95.5 1712.08,-102.5"/>
</g>
<!-- 1990979471216 -->
<g id="node10" class="node">
<title>1990979471216</title>
<polygon fill="white" stroke="black" points="1685.38,-45 1594.38,-45 1594.38,-9 1685.38,-9 1685.38,-45"/>
<text text-anchor="middle" x="1639.88" y="-21.98" font-family="Times New Roman,serif" font-size="12.00">Quality Review</text>
</g>
<!-- 1990976235440 -->
<g id="node28" class="node">
<title>1990976235440</title>
<ellipse fill="white" stroke="black" cx="1751" cy="-27" rx="27" ry="27"/>
</g>
<!-- 1990979471216&#45;&gt;1990976235440 -->
<g id="edge20" class="edge">
<title>1990979471216&#45;&gt;1990976235440</title>
<path fill="none" stroke="black" d="M1685.58,-27C1694.48,-27 1703.74,-27 1712.38,-27"/>
<polygon fill="black" stroke="black" points="1712.16,-30.5 1722.16,-27 1712.16,-23.5 1712.16,-30.5"/>
</g>
<!-- 1990979484464 -->
<g id="node11" class="node">
<title>1990979484464</title>
<polygon fill="white" stroke="black" points="1902,-81 1814,-81 1814,-45 1902,-45 1902,-81"/>
<text text-anchor="middle" x="1858" y="-57.98" font-family="Times New Roman,serif" font-size="12.00">Final Approval</text>
</g>
<!-- 1990979481968 -->
<g id="node30" class="node">
<title>1990979481968</title>
<ellipse fill="white" stroke="black" cx="1965" cy="-63" rx="27" ry="27"/>
</g>
<!-- 1990979484464&#45;&gt;1990979481968 -->
<g id="edge24" class="edge">
<title>1990979484464&#45;&gt;1990979481968</title>
<path fill="none" stroke="black" d="M1902.31,-63C1910.27,-63 1918.51,-63 1926.28,-63"/>
<polygon fill="black" stroke="black" points="1926.1,-66.5 1936.1,-63 1926.1,-59.5 1926.1,-66.5"/>
</g>
<!-- 1990979483792 -->
<g id="node12" class="node">
<title>1990979483792</title>
<polygon fill="white" stroke="black" points="2118.25,-81 2028,-81 2028,-45 2118.25,-45 2118.25,-81"/>
<text text-anchor="middle" x="2073.12" y="-57.98" font-family="Times New Roman,serif" font-size="12.00">Packaging Prep</text>
</g>
<!-- 1990976168656 -->
<g id="node31" class="node">
<title>1990976168656</title>
<ellipse fill="white" stroke="black" cx="2181.25" cy="-63" rx="27" ry="27"/>
</g>
<!-- 1990979483792&#45;&gt;1990976168656 -->
<g id="edge26" class="edge">
<title>1990979483792&#45;&gt;1990976168656</title>
<path fill="none" stroke="black" d="M2118.52,-63C2126.51,-63 2134.78,-63 2142.56,-63"/>
<polygon fill="black" stroke="black" points="2142.39,-66.5 2152.39,-63 2142.39,-59.5 2142.39,-66.5"/>
</g>
<!-- 1990976161984 -->
<g id="node13" class="node">
<title>1990976161984</title>
<polygon fill="white" stroke="black" points="2327,-81 2244.25,-81 2244.25,-45 2327,-45 2327,-81"/>
<text text-anchor="middle" x="2285.62" y="-57.98" font-family="Times New Roman,serif" font-size="12.00">Logistics Plan</text>
</g>
<!-- 1990976174800 -->
<g id="node32" class="node">
<title>1990976174800</title>
<ellipse fill="white" stroke="black" cx="2390" cy="-63" rx="27" ry="27"/>
</g>
<!-- 1990976161984&#45;&gt;1990976174800 -->
<g id="edge28" class="edge">
<title>1990976161984&#45;&gt;1990976174800</title>
<path fill="none" stroke="black" d="M2327.38,-63C2335.23,-63 2343.42,-63 2351.17,-63"/>
<polygon fill="black" stroke="black" points="2350.99,-66.5 2360.99,-63 2350.99,-59.5 2350.99,-66.5"/>
</g>
<!-- 1990976164816 -->
<g id="node14" class="node">
<title>1990976164816</title>
<polygon fill="white" stroke="black" points="2550,-81 2453,-81 2453,-45 2550,-45 2550,-81"/>
<text text-anchor="middle" x="2501.5" y="-57.98" font-family="Times New Roman,serif" font-size="12.00">Secure Transport</text>
</g>
<!-- 1990976167456 -->
<g id="node33" class="node">
<title>1990976167456</title>
<ellipse fill="white" stroke="black" cx="2613" cy="-63" rx="27" ry="27"/>
</g>
<!-- 1990976164816&#45;&gt;1990976167456 -->
<g id="edge30" class="edge">
<title>1990976164816&#45;&gt;1990976167456</title>
<path fill="none" stroke="black" d="M2550.21,-63C2558.32,-63 2566.65,-63 2574.45,-63"/>
<polygon fill="black" stroke="black" points="2574.29,-66.5 2584.29,-63 2574.29,-59.5 2574.29,-66.5"/>
</g>
<!-- 1990976171152 -->
<g id="node15" class="node">
<title>1990976171152</title>
<polygon fill="white" stroke="black" points="2761.75,-81 2676,-81 2676,-45 2761.75,-45 2761.75,-81"/>
<text text-anchor="middle" x="2718.88" y="-57.98" font-family="Times New Roman,serif" font-size="12.00">Installation Set</text>
</g>
<!-- 1990976165056 -->
<g id="node34" class="node">
<title>1990976165056</title>
<ellipse fill="white" stroke="black" cx="2824.75" cy="-99" rx="27" ry="27"/>
</g>
<!-- 1990976171152&#45;&gt;1990976165056 -->
<g id="edge33" class="edge">
<title>1990976171152&#45;&gt;1990976165056</title>
<path fill="none" stroke="black" d="M2762.12,-77.64C2770.7,-80.61 2779.64,-83.71 2787.96,-86.6"/>
<polygon fill="black" stroke="black" points="2786.81,-89.9 2797.41,-89.87 2789.1,-83.29 2786.81,-89.9"/>
</g>
<!-- 1990978701888 -->
<g id="node35" class="node">
<title>1990978701888</title>
<ellipse fill="white" stroke="black" cx="2824.75" cy="-27" rx="27" ry="27"/>
</g>
<!-- 1990976171152&#45;&gt;1990978701888 -->
<g id="edge32" class="edge">
<title>1990976171152&#45;&gt;1990978701888</title>
<path fill="none" stroke="black" d="M2762.12,-48.36C2770.7,-45.39 2779.64,-42.29 2787.96,-39.4"/>
<polygon fill="black" stroke="black" points="2789.1,-42.71 2797.41,-36.13 2786.81,-36.1 2789.1,-42.71"/>
</g>
<!-- 1990978703664 -->
<g id="node16" class="node">
<title>1990978703664</title>
<polygon fill="white" stroke="black" points="2982.5,-45 2887.75,-45 2887.75,-9 2982.5,-9 2982.5,-45"/>
<text text-anchor="middle" x="2935.12" y="-21.98" font-family="Times New Roman,serif" font-size="12.00">Archival Record</text>
</g>
<!-- 1990978704432 -->
<g id="node37" class="node">
<title>1990978704432</title>
<ellipse fill="white" stroke="black" cx="3045.5" cy="-27" rx="27" ry="27"/>
</g>
<!-- 1990978703664&#45;&gt;1990978704432 -->
<g id="edge37" class="edge">
<title>1990978703664&#45;&gt;1990978704432</title>
<path fill="none" stroke="black" d="M2982.71,-27C2990.79,-27 2999.1,-27 3006.9,-27"/>
<polygon fill="black" stroke="black" points="3006.73,-30.5 3016.73,-27 3006.73,-23.5 3006.73,-30.5"/>
</g>
<!-- 1990978713696 -->
<g id="node17" class="node">
<title>1990978713696</title>
<polygon fill="white" stroke="black" points="2977.62,-117 2892.62,-117 2892.62,-81 2977.62,-81 2977.62,-117"/>
<text text-anchor="middle" x="2935.12" y="-93.97" font-family="Times New Roman,serif" font-size="12.00">Client Support</text>
</g>
<!-- 1990976172208 -->
<g id="node36" class="node">
<title>1990976172208</title>
<ellipse fill="white" stroke="black" cx="3045.5" cy="-99" rx="27" ry="27"/>
</g>
<!-- 1990978713696&#45;&gt;1990976172208 -->
<g id="edge36" class="edge">
<title>1990978713696&#45;&gt;1990976172208</title>
<path fill="none" stroke="black" d="M2978.03,-99C2987.49,-99 2997.48,-99 3006.77,-99"/>
<polygon fill="black" stroke="black" points="3006.53,-102.5 3016.53,-99 3006.53,-95.5 3006.53,-102.5"/>
</g>
<!-- 1990978757760 -->
<g id="node18" class="node">
<title>1990978757760</title>
<polygon fill="black" stroke="black" points="3162.5,-81 3108.5,-81 3108.5,-45 3162.5,-45 3162.5,-81"/>
</g>
<!-- 1990981583024 -->
<g id="node38" class="node">
<title>1990981583024</title>
<ellipse fill="white" stroke="black" cx="3229.5" cy="-63" rx="27" ry="27"/>
<ellipse fill="none" stroke="black" cx="3229.5" cy="-63" rx="31" ry="31"/>
<text text-anchor="start" x="3213" y="-47.6" font-family="Times New Roman,serif" font-size="32.00">■</text>
</g>
<!-- 1990978757760&#45;&gt;1990981583024 -->
<g id="edge40" class="edge">
<title>1990978757760&#45;&gt;1990981583024</title>
<path fill="none" stroke="black" d="M3162.62,-63C3170.13,-63 3178.51,-63 3186.72,-63"/>
<polygon fill="black" stroke="black" points="3186.58,-66.5 3196.58,-63 3186.58,-59.5 3186.58,-66.5"/>
</g>
<!-- 1990981590272 -->
<g id="node19" class="node">
<title>1990981590272</title>
<ellipse fill="white" stroke="black" cx="27" cy="-91" rx="27" ry="27"/>
<text text-anchor="start" x="9.75" y="-73.7" font-family="Times New Roman,serif" font-size="34.00">●</text>
</g>
<!-- 1990981590272&#45;&gt;1990978763136 -->
<g id="edge1" class="edge">
<title>1990981590272&#45;&gt;1990978763136</title>
<path fill="none" stroke="black" d="M54.44,-91C61.81,-91 70.06,-91 78.23,-91"/>
<polygon fill="black" stroke="black" points="78.12,-94.5 88.12,-91 78.12,-87.5 78.12,-94.5"/>
</g>
<!-- 1990978758720&#45;&gt;1990978750704 -->
<g id="edge3" class="edge">
<title>1990978758720&#45;&gt;1990978750704</title>
<path fill="none" stroke="black" d="M252,-91C259.35,-91 267.61,-91 275.94,-91"/>
<polygon fill="black" stroke="black" points="275.75,-94.5 285.75,-91 275.75,-87.5 275.75,-94.5"/>
</g>
<!-- 1990978756080&#45;&gt;1990978762032 -->
<g id="edge5" class="edge">
<title>1990978756080&#45;&gt;1990978762032</title>
<path fill="none" stroke="black" d="M464.9,-84.33C472.59,-82.31 481.33,-80.01 490.1,-77.7"/>
<polygon fill="black" stroke="black" points="490.91,-81.11 499.69,-75.18 489.13,-74.34 490.91,-81.11"/>
</g>
<!-- 1990978761072&#45;&gt;1990978748544 -->
<g id="edge8" class="edge">
<title>1990978761072&#45;&gt;1990978748544</title>
<path fill="none" stroke="black" d="M672.89,-74.58C684.4,-80.17 698.64,-87.07 712.26,-93.67"/>
<polygon fill="black" stroke="black" points="710.62,-96.76 721.14,-97.98 713.67,-90.46 710.62,-96.76"/>
</g>
<!-- 1990978761072&#45;&gt;1990979333648 -->
<g id="edge7" class="edge">
<title>1990978761072&#45;&gt;1990979333648</title>
<path fill="none" stroke="black" d="M675.39,-63C682.65,-63 690.83,-63 699.17,-63"/>
<polygon fill="black" stroke="black" points="699.07,-66.5 709.07,-63 699.07,-59.5 699.07,-66.5"/>
</g>
<!-- 1990979472800&#45;&gt;1990979485088 -->
<g id="edge11" class="edge">
<title>1990979472800&#45;&gt;1990979485088</title>
<path fill="none" stroke="black" d="M902.16,-63C909.43,-63 917.62,-63 925.97,-63"/>
<polygon fill="black" stroke="black" points="925.86,-66.5 935.86,-63 925.86,-59.5 925.86,-66.5"/>
</g>
<!-- 1990979482544&#45;&gt;1990979482736 -->
<g id="edge13" class="edge">
<title>1990979482544&#45;&gt;1990979482736</title>
<path fill="none" stroke="black" d="M1126.56,-63C1133.94,-63 1142.24,-63 1150.61,-63"/>
<polygon fill="black" stroke="black" points="1150.46,-66.5 1160.46,-63 1150.46,-59.5 1150.46,-66.5"/>
</g>
<!-- 1990979473520&#45;&gt;1990979481728 -->
<g id="edge15" class="edge">
<title>1990979473520&#45;&gt;1990979481728</title>
<path fill="none" stroke="black" d="M1339.08,-63C1346.44,-63 1354.75,-63 1363.14,-63"/>
<polygon fill="black" stroke="black" points="1363.06,-66.5 1373.06,-63 1363.06,-59.5 1363.06,-66.5"/>
</g>
<!-- 1990979482304&#45;&gt;1990979483024 -->
<g id="edge19" class="edge">
<title>1990979482304&#45;&gt;1990979483024</title>
<path fill="none" stroke="black" d="M1556.17,-99C1563.45,-99 1571.66,-99 1580,-99"/>
<polygon fill="black" stroke="black" points="1579.87,-102.5 1589.87,-99 1579.87,-95.5 1579.87,-102.5"/>
</g>
<!-- 1990979471840&#45;&gt;1990979471216 -->
<g id="edge18" class="edge">
<title>1990979471840&#45;&gt;1990979471216</title>
<path fill="none" stroke="black" d="M1556.17,-27C1564.24,-27 1573.44,-27 1582.71,-27"/>
<polygon fill="black" stroke="black" points="1582.45,-30.5 1592.45,-27 1582.45,-23.5 1582.45,-30.5"/>
</g>
<!-- 1990976235440&#45;&gt;1990979484464 -->
<g id="edge22" class="edge">
<title>1990976235440&#45;&gt;1990979484464</title>
<path fill="none" stroke="black" d="M1776.88,-35.53C1784.82,-38.25 1793.93,-41.37 1803.09,-44.52"/>
<polygon fill="black" stroke="black" points="1801.79,-47.77 1812.38,-47.7 1804.06,-41.15 1801.79,-47.77"/>
</g>
<!-- 1990976230448&#45;&gt;1990979484464 -->
<g id="edge23" class="edge">
<title>1990976230448&#45;&gt;1990979484464</title>
<path fill="none" stroke="black" d="M1776.88,-90.47C1784.82,-87.75 1793.93,-84.63 1803.09,-81.48"/>
<polygon fill="black" stroke="black" points="1804.06,-84.85 1812.38,-78.3 1801.79,-78.23 1804.06,-84.85"/>
</g>
<!-- 1990979481968&#45;&gt;1990979483792 -->
<g id="edge25" class="edge">
<title>1990979481968&#45;&gt;1990979483792</title>
<path fill="none" stroke="black" d="M1992.23,-63C1999.58,-63 2007.85,-63 2016.22,-63"/>
<polygon fill="black" stroke="black" points="2016.09,-66.5 2026.09,-63 2016.09,-59.5 2016.09,-66.5"/>
</g>
<!-- 1990976168656&#45;&gt;1990976161984 -->
<g id="edge27" class="edge">
<title>1990976168656&#45;&gt;1990976161984</title>
<path fill="none" stroke="black" d="M2208.61,-63C2216.03,-63 2224.36,-63 2232.71,-63"/>
<polygon fill="black" stroke="black" points="2232.52,-66.5 2242.52,-63 2232.52,-59.5 2232.52,-66.5"/>
</g>
<!-- 1990976174800&#45;&gt;1990976164816 -->
<g id="edge29" class="edge">
<title>1990976174800&#45;&gt;1990976164816</title>
<path fill="none" stroke="black" d="M2417.23,-63C2424.54,-63 2432.78,-63 2441.18,-63"/>
<polygon fill="black" stroke="black" points="2441.12,-66.5 2451.12,-63 2441.12,-59.5 2441.12,-66.5"/>
</g>
<!-- 1990976167456&#45;&gt;1990976171152 -->
<g id="edge31" class="edge">
<title>1990976167456&#45;&gt;1990976171152</title>
<path fill="none" stroke="black" d="M2640.48,-63C2647.84,-63 2656.1,-63 2664.41,-63"/>
<polygon fill="black" stroke="black" points="2664.19,-66.5 2674.19,-63 2664.19,-59.5 2664.19,-66.5"/>
</g>
<!-- 1990976165056&#45;&gt;1990978713696 -->
<g id="edge35" class="edge">
<title>1990976165056&#45;&gt;1990978713696</title>
<path fill="none" stroke="black" d="M2851.98,-99C2860.81,-99 2871.01,-99 2881.15,-99"/>
<polygon fill="black" stroke="black" points="2880.98,-102.5 2890.98,-99 2880.98,-95.5 2880.98,-102.5"/>
</g>
<!-- 1990978701888&#45;&gt;1990978703664 -->
<g id="edge34" class="edge">
<title>1990978701888&#45;&gt;1990978703664</title>
<path fill="none" stroke="black" d="M2851.98,-27C2859.31,-27 2867.57,-27 2875.95,-27"/>
<polygon fill="black" stroke="black" points="2875.88,-30.5 2885.88,-27 2875.88,-23.5 2875.88,-30.5"/>
</g>
<!-- 1990976172208&#45;&gt;1990978757760 -->
<g id="edge39" class="edge">
<title>1990976172208&#45;&gt;1990978757760</title>
<path fill="none" stroke="black" d="M3071.01,-88.97C3079.26,-85.6 3088.64,-81.76 3097.62,-78.09"/>
<polygon fill="black" stroke="black" points="3098.94,-81.33 3106.87,-74.3 3096.29,-74.85 3098.94,-81.33"/>
</g>
<!-- 1990978704432&#45;&gt;1990978757760 -->
<g id="edge38" class="edge">
<title>1990978704432&#45;&gt;1990978757760</title>
<path fill="none" stroke="black" d="M3071.01,-37.03C3079.26,-40.4 3088.64,-44.24 3097.62,-47.91"/>
<polygon fill="black" stroke="black" points="3096.29,-51.15 3106.87,-51.7 3098.94,-44.67 3096.29,-51.15"/>
</g>
</g>
</svg>
