<?xml version="1.0" encoding="UTF-8" standalone="no"?>
<!DOCTYPE svg PUBLIC "-//W3C//DTD SVG 1.1//EN"
 "http://www.w3.org/Graphics/SVG/1.1/DTD/svg11.dtd">
<!-- Generated by graphviz version 11.0.0 (20240428.1522)
 -->
<!-- Title: imdf_net_1754052607.603667 Pages: 1 -->
<svg width="2368pt" height="350pt"
 viewBox="0.00 0.00 2368.00 350.00" xmlns="http://www.w3.org/2000/svg" xmlns:xlink="http://www.w3.org/1999/xlink">
<g id="graph0" class="graph" transform="scale(1 1) rotate(0) translate(4 346)">
<title>imdf_net_1754052607.603667</title>
<polygon fill="white" stroke="none" points="-4,4 -4,-346 2364,-346 2364,4 -4,4"/>
<!-- 1990980994064 -->
<g id="node1" class="node">
<title>1990980994064</title>
<polygon fill="white" stroke="black" points="160.75,-245 90,-245 90,-209 160.75,-209 160.75,-245"/>
<text text-anchor="middle" x="125.38" y="-221.97" font-family="Times New Roman,serif" font-size="12.00">Site Survey</text>
</g>
<!-- 1990981009088 -->
<g id="node22" class="node">
<title>1990981009088</title>
<ellipse fill="white" stroke="black" cx="223.75" cy="-263" rx="27" ry="27"/>
</g>
<!-- 1990980994064&#45;&gt;1990981009088 -->
<g id="edge2" class="edge">
<title>1990980994064&#45;&gt;1990981009088</title>
<path fill="none" stroke="black" d="M161.17,-240C169.64,-243.16 178.71,-246.55 187.22,-249.73"/>
<polygon fill="black" stroke="black" points="185.97,-253 196.56,-253.22 188.42,-246.44 185.97,-253"/>
</g>
<!-- 1990981006016 -->
<g id="node23" class="node">
<title>1990981006016</title>
<ellipse fill="white" stroke="black" cx="223.75" cy="-191" rx="27" ry="27"/>
</g>
<!-- 1990980994064&#45;&gt;1990981006016 -->
<g id="edge3" class="edge">
<title>1990980994064&#45;&gt;1990981006016</title>
<path fill="none" stroke="black" d="M161.17,-214C169.64,-210.84 178.71,-207.45 187.22,-204.27"/>
<polygon fill="black" stroke="black" points="188.42,-207.56 196.56,-200.78 185.97,-201 188.42,-207.56"/>
</g>
<!-- 1990978084000 -->
<g id="node2" class="node">
<title>1990978084000</title>
<polygon fill="white" stroke="black" points="371.75,-209 289,-209 289,-173 371.75,-173 371.75,-209"/>
<text text-anchor="middle" x="330.38" y="-185.97" font-family="Times New Roman,serif" font-size="12.00">Water Testing</text>
</g>
<!-- 1990982056752 -->
<g id="node25" class="node">
<title>1990982056752</title>
<ellipse fill="white" stroke="black" cx="437" cy="-191" rx="27" ry="27"/>
</g>
<!-- 1990978084000&#45;&gt;1990982056752 -->
<g id="edge7" class="edge">
<title>1990978084000&#45;&gt;1990982056752</title>
<path fill="none" stroke="black" d="M372.13,-191C380.7,-191 389.72,-191 398.19,-191"/>
<polygon fill="black" stroke="black" points="398.17,-194.5 408.17,-191 398.17,-187.5 398.17,-194.5"/>
</g>
<!-- 1990980994544 -->
<g id="node3" class="node">
<title>1990980994544</title>
<polygon fill="white" stroke="black" points="374,-281 286.75,-281 286.75,-245 374,-245 374,-281"/>
<text text-anchor="middle" x="330.38" y="-257.98" font-family="Times New Roman,serif" font-size="12.00">Light Mapping</text>
</g>
<!-- 1990982047680 -->
<g id="node24" class="node">
<title>1990982047680</title>
<ellipse fill="white" stroke="black" cx="437" cy="-263" rx="27" ry="27"/>
</g>
<!-- 1990980994544&#45;&gt;1990982047680 -->
<g id="edge6" class="edge">
<title>1990980994544&#45;&gt;1990982047680</title>
<path fill="none" stroke="black" d="M374.23,-263C382.18,-263 390.42,-263 398.2,-263"/>
<polygon fill="black" stroke="black" points="398.04,-266.5 408.04,-263 398.04,-259.5 398.04,-266.5"/>
</g>
<!-- 1990980368288 -->
<g id="node4" class="node">
<title>1990980368288</title>
<polygon fill="black" stroke="black" points="554,-245 500,-245 500,-209 554,-209 554,-245"/>
</g>
<!-- 1990977976272 -->
<g id="node26" class="node">
<title>1990977976272</title>
<ellipse fill="white" stroke="black" cx="617" cy="-227" rx="27" ry="27"/>
</g>
<!-- 1990980368288&#45;&gt;1990977976272 -->
<g id="edge10" class="edge">
<title>1990980368288&#45;&gt;1990977976272</title>
<path fill="none" stroke="black" d="M554.4,-227C561.89,-227 570.18,-227 578.2,-227"/>
<polygon fill="black" stroke="black" points="578.1,-230.5 588.1,-227 578.1,-223.5 578.1,-230.5"/>
</g>
<!-- 1990981340624 -->
<g id="node5" class="node">
<title>1990981340624</title>
<polygon fill="white" stroke="black" points="774,-218 680,-218 680,-182 774,-182 774,-218"/>
<text text-anchor="middle" x="727" y="-194.97" font-family="Times New Roman,serif" font-size="12.00">Design Modules</text>
</g>
<!-- 1990981340672 -->
<g id="node27" class="node">
<title>1990981340672</title>
<ellipse fill="white" stroke="black" cx="837" cy="-199" rx="27" ry="27"/>
</g>
<!-- 1990981340624&#45;&gt;1990981340672 -->
<g id="edge12" class="edge">
<title>1990981340624&#45;&gt;1990981340672</title>
<path fill="none" stroke="black" d="M774.43,-199.57C782.31,-199.5 790.41,-199.42 798.03,-199.35"/>
<polygon fill="black" stroke="black" points="798.06,-202.85 808.02,-199.26 797.99,-195.85 798.06,-202.85"/>
</g>
<!-- 1990981342592 -->
<g id="node6" class="node">
<title>1990981342592</title>
<polygon fill="white" stroke="black" points="982.75,-217 919.5,-217 919.5,-181 982.75,-181 982.75,-217"/>
<text text-anchor="middle" x="951.12" y="-193.97" font-family="Times New Roman,serif" font-size="12.00">IoT Setup</text>
</g>
<!-- 1990981347248 -->
<g id="node28" class="node">
<title>1990981347248</title>
<ellipse fill="white" stroke="black" cx="1065.25" cy="-199" rx="27" ry="27"/>
</g>
<!-- 1990981342592&#45;&gt;1990981347248 -->
<g id="edge16" class="edge">
<title>1990981342592&#45;&gt;1990981347248</title>
<path fill="none" stroke="black" d="M983.06,-199C996.53,-199 1012.44,-199 1026.59,-199"/>
<polygon fill="black" stroke="black" points="1026.46,-202.5 1036.46,-199 1026.46,-195.5 1026.46,-202.5"/>
</g>
<!-- 1990981350848 -->
<g id="node7" class="node">
<title>1990981350848</title>
<polygon fill="white" stroke="black" points="1002.25,-271 900,-271 900,-235 1002.25,-235 1002.25,-271"/>
<text text-anchor="middle" x="951.12" y="-247.97" font-family="Times New Roman,serif" font-size="12.00">Regulatory Check</text>
</g>
<!-- 1990981350848&#45;&gt;1990977976272 -->
<g id="edge15" class="edge">
<title>1990981350848&#45;&gt;1990977976272</title>
<path fill="none" stroke="black" d="M899.58,-249.04C832.43,-243.79 715.33,-234.62 655.51,-229.94"/>
<polygon fill="black" stroke="black" points="656.09,-226.47 645.85,-229.18 655.54,-233.45 656.09,-226.47"/>
</g>
<!-- 1990981349552 -->
<g id="node8" class="node">
<title>1990981349552</title>
<polygon fill="white" stroke="black" points="1232,-190 1128.25,-190 1128.25,-154 1232,-154 1232,-190"/>
<text text-anchor="middle" x="1180.12" y="-166.97" font-family="Times New Roman,serif" font-size="12.00">Sensor Calibration</text>
</g>
<!-- 1990981340768 -->
<g id="node29" class="node">
<title>1990981340768</title>
<ellipse fill="white" stroke="black" cx="1295" cy="-171" rx="27" ry="27"/>
</g>
<!-- 1990981349552&#45;&gt;1990981340768 -->
<g id="edge18" class="edge">
<title>1990981349552&#45;&gt;1990981340768</title>
<path fill="none" stroke="black" d="M1232.28,-171.55C1240.41,-171.47 1248.69,-171.4 1256.44,-171.33"/>
<polygon fill="black" stroke="black" points="1256.21,-174.83 1266.18,-171.25 1256.15,-167.84 1256.21,-174.83"/>
</g>
<!-- 1990981341584 -->
<g id="node9" class="node">
<title>1990981341584</title>
<polygon fill="white" stroke="black" points="1446.75,-243 1358,-243 1358,-207 1446.75,-207 1446.75,-243"/>
<text text-anchor="middle" x="1402.38" y="-219.97" font-family="Times New Roman,serif" font-size="12.00">System Testing</text>
</g>
<!-- 1990981341584&#45;&gt;1990981347248 -->
<g id="edge21" class="edge">
<title>1990981341584&#45;&gt;1990981347248</title>
<path fill="none" stroke="black" d="M1357.61,-221.6C1291.24,-216.46 1166.3,-206.76 1103.82,-201.91"/>
<polygon fill="black" stroke="black" points="1104.3,-198.44 1094.06,-201.16 1103.75,-205.42 1104.3,-198.44"/>
</g>
<!-- 1990981342352 -->
<g id="node10" class="node">
<title>1990981342352</title>
<polygon fill="black" stroke="black" points="1429.38,-189 1375.38,-189 1375.38,-153 1429.38,-153 1429.38,-189"/>
</g>
<!-- 1990981345280 -->
<g id="node30" class="node">
<title>1990981345280</title>
<ellipse fill="white" stroke="black" cx="1509.75" cy="-315" rx="27" ry="27"/>
</g>
<!-- 1990981342352&#45;&gt;1990981345280 -->
<g id="edge23" class="edge">
<title>1990981342352&#45;&gt;1990981345280</title>
<path fill="none" stroke="black" d="M1429.63,-183.86C1435.81,-187.77 1441.98,-192.51 1446.75,-198 1472.61,-227.72 1463.11,-244.85 1482.75,-279 1483.82,-280.85 1484.96,-282.73 1486.14,-284.6"/>
<polygon fill="black" stroke="black" points="1482.99,-286.19 1491.48,-292.53 1488.8,-282.28 1482.99,-286.19"/>
</g>
<!-- 1990981337984 -->
<g id="node31" class="node">
<title>1990981337984</title>
<ellipse fill="white" stroke="black" cx="1509.75" cy="-243" rx="27" ry="27"/>
</g>
<!-- 1990981342352&#45;&gt;1990981337984 -->
<g id="edge22" class="edge">
<title>1990981342352&#45;&gt;1990981337984</title>
<path fill="none" stroke="black" d="M1429.72,-186.98C1435.38,-190.53 1441.3,-194.34 1446.75,-198 1457.2,-205.03 1468.41,-213.02 1478.38,-220.3"/>
<polygon fill="black" stroke="black" points="1476.15,-223 1486.28,-226.1 1480.29,-217.36 1476.15,-223"/>
</g>
<!-- 1990981346576 -->
<g id="node32" class="node">
<title>1990981346576</title>
<ellipse fill="white" stroke="black" cx="1509.75" cy="-171" rx="27" ry="27"/>
</g>
<!-- 1990981342352&#45;&gt;1990981346576 -->
<g id="edge26" class="edge">
<title>1990981342352&#45;&gt;1990981346576</title>
<path fill="none" stroke="black" d="M1429.69,-171C1442.27,-171 1457.54,-171 1471.3,-171"/>
<polygon fill="black" stroke="black" points="1470.89,-174.5 1480.89,-171 1470.89,-167.5 1470.89,-174.5"/>
</g>
<!-- 1990981352240 -->
<g id="node33" class="node">
<title>1990981352240</title>
<ellipse fill="white" stroke="black" cx="1509.75" cy="-99" rx="27" ry="27"/>
</g>
<!-- 1990981342352&#45;&gt;1990981352240 -->
<g id="edge24" class="edge">
<title>1990981342352&#45;&gt;1990981352240</title>
<path fill="none" stroke="black" d="M1429.69,-153.02C1444.33,-143.01 1462.63,-130.51 1477.94,-120.05"/>
<polygon fill="black" stroke="black" points="1479.49,-123.23 1485.77,-114.7 1475.54,-117.45 1479.49,-123.23"/>
</g>
<!-- 1990981347440 -->
<g id="node34" class="node">
<title>1990981347440</title>
<ellipse fill="white" stroke="black" cx="1509.75" cy="-27" rx="27" ry="27"/>
</g>
<!-- 1990981342352&#45;&gt;1990981347440 -->
<g id="edge25" class="edge">
<title>1990981342352&#45;&gt;1990981347440</title>
<path fill="none" stroke="black" d="M1416.72,-152.76C1434.23,-128.83 1465.22,-86.48 1486.36,-57.6"/>
<polygon fill="black" stroke="black" points="1489.14,-59.72 1492.22,-49.59 1483.49,-55.59 1489.14,-59.72"/>
</g>
<!-- 1990981351568 -->
<g id="node11" class="node">
<title>1990981351568</title>
<polygon fill="white" stroke="black" points="1661.12,-45 1583.62,-45 1583.62,-9 1661.12,-9 1661.12,-45"/>
<text text-anchor="middle" x="1622.38" y="-21.98" font-family="Times New Roman,serif" font-size="12.00">Nutrient Mix</text>
</g>
<!-- 1990982052912 -->
<g id="node37" class="node">
<title>1990982052912</title>
<ellipse fill="white" stroke="black" cx="1735" cy="-27" rx="27" ry="27"/>
</g>
<!-- 1990981351568&#45;&gt;1990982052912 -->
<g id="edge34" class="edge">
<title>1990981351568&#45;&gt;1990982052912</title>
<path fill="none" stroke="black" d="M1661.45,-27C1672.76,-27 1685.15,-27 1696.44,-27"/>
<polygon fill="black" stroke="black" points="1696.2,-30.5 1706.2,-27 1696.2,-23.5 1696.2,-30.5"/>
</g>
<!-- 1990981344032 -->
<g id="node12" class="node">
<title>1990981344032</title>
<polygon fill="white" stroke="black" points="1668.25,-117 1576.5,-117 1576.5,-81 1668.25,-81 1668.25,-117"/>
<text text-anchor="middle" x="1622.38" y="-93.97" font-family="Times New Roman,serif" font-size="12.00">Climate Control</text>
</g>
<!-- 1990982043648 -->
<g id="node35" class="node">
<title>1990982043648</title>
<ellipse fill="white" stroke="black" cx="1735" cy="-99" rx="27" ry="27"/>
</g>
<!-- 1990981344032&#45;&gt;1990982043648 -->
<g id="edge32" class="edge">
<title>1990981344032&#45;&gt;1990982043648</title>
<path fill="none" stroke="black" d="M1668.69,-99C1677.9,-99 1687.49,-99 1696.4,-99"/>
<polygon fill="black" stroke="black" points="1696.11,-102.5 1706.11,-99 1696.11,-95.5 1696.11,-102.5"/>
</g>
<!-- 1990981344080 -->
<g id="node13" class="node">
<title>1990981344080</title>
<polygon fill="white" stroke="black" points="1662.62,-261 1582.12,-261 1582.12,-225 1662.62,-225 1662.62,-261"/>
<text text-anchor="middle" x="1622.38" y="-237.97" font-family="Times New Roman,serif" font-size="12.00">Energy Audit</text>
</g>
<!-- 1990982053920 -->
<g id="node36" class="node">
<title>1990982053920</title>
<ellipse fill="white" stroke="black" cx="1735" cy="-243" rx="27" ry="27"/>
</g>
<!-- 1990981344080&#45;&gt;1990982053920 -->
<g id="edge36" class="edge">
<title>1990981344080&#45;&gt;1990982053920</title>
<path fill="none" stroke="black" d="M1663,-243C1673.93,-243 1685.75,-243 1696.55,-243"/>
<polygon fill="black" stroke="black" points="1696.26,-246.5 1706.26,-243 1696.26,-239.5 1696.26,-246.5"/>
</g>
<!-- 1990981340384 -->
<g id="node14" class="node">
<title>1990981340384</title>
<polygon fill="white" stroke="black" points="1663.38,-189 1581.38,-189 1581.38,-153 1663.38,-153 1663.38,-189"/>
<text text-anchor="middle" x="1622.38" y="-165.97" font-family="Times New Roman,serif" font-size="12.00">Staff Training</text>
</g>
<!-- 1990982057328 -->
<g id="node39" class="node">
<title>1990982057328</title>
<ellipse fill="white" stroke="black" cx="1735" cy="-171" rx="27" ry="27"/>
</g>
<!-- 1990981340384&#45;&gt;1990982057328 -->
<g id="edge33" class="edge">
<title>1990981340384&#45;&gt;1990982057328</title>
<path fill="none" stroke="black" d="M1663.63,-171C1674.31,-171 1685.8,-171 1696.34,-171"/>
<polygon fill="black" stroke="black" points="1696.23,-174.5 1706.23,-171 1696.23,-167.5 1696.23,-174.5"/>
</g>
<!-- 1990981344752 -->
<g id="node15" class="node">
<title>1990981344752</title>
<polygon fill="white" stroke="black" points="1672,-333 1572.75,-333 1572.75,-297 1672,-297 1672,-333"/>
<text text-anchor="middle" x="1622.38" y="-309.98" font-family="Times New Roman,serif" font-size="12.00">Community Meet</text>
</g>
<!-- 1990982047056 -->
<g id="node38" class="node">
<title>1990982047056</title>
<ellipse fill="white" stroke="black" cx="1735" cy="-315" rx="27" ry="27"/>
</g>
<!-- 1990981344752&#45;&gt;1990982047056 -->
<g id="edge35" class="edge">
<title>1990981344752&#45;&gt;1990982047056</title>
<path fill="none" stroke="black" d="M1672.22,-315C1680.29,-315 1688.55,-315 1696.29,-315"/>
<polygon fill="black" stroke="black" points="1696.05,-318.5 1706.05,-315 1696.05,-311.5 1696.05,-318.5"/>
</g>
<!-- 1990981353296 -->
<g id="node16" class="node">
<title>1990981353296</title>
<polygon fill="white" stroke="black" points="1865.75,-189 1798,-189 1798,-153 1865.75,-153 1865.75,-189"/>
<text text-anchor="middle" x="1831.88" y="-165.97" font-family="Times New Roman,serif" font-size="12.00">Installation</text>
</g>
<!-- 1990981342976 -->
<g id="node40" class="node">
<title>1990981342976</title>
<ellipse fill="white" stroke="black" cx="1928.75" cy="-243" rx="27" ry="27"/>
</g>
<!-- 1990981353296&#45;&gt;1990981342976 -->
<g id="edge42" class="edge">
<title>1990981353296&#45;&gt;1990981342976</title>
<path fill="none" stroke="black" d="M1856.82,-189.17C1869.18,-198.55 1884.4,-210.1 1897.57,-220.1"/>
<polygon fill="black" stroke="black" points="1895.44,-222.87 1905.52,-226.13 1899.67,-217.29 1895.44,-222.87"/>
</g>
<!-- 1990981353392 -->
<g id="node41" class="node">
<title>1990981353392</title>
<ellipse fill="white" stroke="black" cx="1928.75" cy="-171" rx="27" ry="27"/>
</g>
<!-- 1990981353296&#45;&gt;1990981353392 -->
<g id="edge44" class="edge">
<title>1990981353296&#45;&gt;1990981353392</title>
<path fill="none" stroke="black" d="M1866.06,-171C1873.81,-171 1882.13,-171 1890.06,-171"/>
<polygon fill="black" stroke="black" points="1889.79,-174.5 1899.79,-171 1889.79,-167.5 1889.79,-174.5"/>
</g>
<!-- 1990982054208 -->
<g id="node42" class="node">
<title>1990982054208</title>
<ellipse fill="white" stroke="black" cx="1928.75" cy="-99" rx="27" ry="27"/>
</g>
<!-- 1990981353296&#45;&gt;1990982054208 -->
<g id="edge43" class="edge">
<title>1990981353296&#45;&gt;1990982054208</title>
<path fill="none" stroke="black" d="M1856.82,-152.83C1869.18,-143.45 1884.4,-131.9 1897.57,-121.9"/>
<polygon fill="black" stroke="black" points="1899.67,-124.71 1905.52,-115.87 1895.44,-119.13 1899.67,-124.71"/>
</g>
<!-- 1990981349504 -->
<g id="node17" class="node">
<title>1990981349504</title>
<polygon fill="white" stroke="black" points="2080.12,-189 1993.62,-189 1993.62,-153 2080.12,-153 2080.12,-189"/>
<text text-anchor="middle" x="2036.88" y="-165.97" font-family="Times New Roman,serif" font-size="12.00">Yield Analysis</text>
</g>
<!-- 1990981349216 -->
<g id="node45" class="node">
<title>1990981349216</title>
<ellipse fill="white" stroke="black" cx="2145" cy="-171" rx="27" ry="27"/>
</g>
<!-- 1990981349504&#45;&gt;1990981349216 -->
<g id="edge49" class="edge">
<title>1990981349504&#45;&gt;1990981349216</title>
<path fill="none" stroke="black" d="M2080.43,-171C2088.97,-171 2097.9,-171 2106.26,-171"/>
<polygon fill="black" stroke="black" points="2106.11,-174.5 2116.11,-171 2106.11,-167.5 2106.11,-174.5"/>
</g>
<!-- 1990982057760 -->
<g id="node18" class="node">
<title>1990982057760</title>
<polygon fill="white" stroke="black" points="2080.88,-117 1992.88,-117 1992.88,-81 2080.88,-81 2080.88,-117"/>
<text text-anchor="middle" x="2036.88" y="-93.97" font-family="Times New Roman,serif" font-size="12.00">Impact Review</text>
</g>
<!-- 1990982049552 -->
<g id="node43" class="node">
<title>1990982049552</title>
<ellipse fill="white" stroke="black" cx="2145" cy="-99" rx="27" ry="27"/>
</g>
<!-- 1990982057760&#45;&gt;1990982049552 -->
<g id="edge48" class="edge">
<title>1990982057760&#45;&gt;1990982049552</title>
<path fill="none" stroke="black" d="M2081.35,-99C2089.65,-99 2098.29,-99 2106.39,-99"/>
<polygon fill="black" stroke="black" points="2106.27,-102.5 2116.27,-99 2106.27,-95.5 2106.27,-102.5"/>
</g>
<!-- 1990981339088 -->
<g id="node19" class="node">
<title>1990981339088</title>
<polygon fill="white" stroke="black" points="2082,-261 1991.75,-261 1991.75,-225 2082,-225 2082,-261"/>
<text text-anchor="middle" x="2036.88" y="-237.97" font-family="Times New Roman,serif" font-size="12.00">Resource Audit</text>
</g>
<!-- 1990981337504 -->
<g id="node44" class="node">
<title>1990981337504</title>
<ellipse fill="white" stroke="black" cx="2145" cy="-243" rx="27" ry="27"/>
</g>
<!-- 1990981339088&#45;&gt;1990981337504 -->
<g id="edge50" class="edge">
<title>1990981339088&#45;&gt;1990981337504</title>
<path fill="none" stroke="black" d="M2082.27,-243C2090.26,-243 2098.53,-243 2106.31,-243"/>
<polygon fill="black" stroke="black" points="2106.14,-246.5 2116.14,-243 2106.14,-239.5 2106.14,-246.5"/>
</g>
<!-- 1990979337440 -->
<g id="node20" class="node">
<title>1990979337440</title>
<polygon fill="black" stroke="black" points="2262,-189 2208,-189 2208,-153 2262,-153 2262,-189"/>
</g>
<!-- 1990981885472 -->
<g id="node46" class="node">
<title>1990981885472</title>
<ellipse fill="white" stroke="black" cx="2329" cy="-171" rx="27" ry="27"/>
<ellipse fill="none" stroke="black" cx="2329" cy="-171" rx="31" ry="31"/>
<text text-anchor="start" x="2312.5" y="-155.6" font-family="Times New Roman,serif" font-size="32.00">■</text>
</g>
<!-- 1990979337440&#45;&gt;1990981885472 -->
<g id="edge54" class="edge">
<title>1990979337440&#45;&gt;1990981885472</title>
<path fill="none" stroke="black" d="M2262.12,-171C2269.63,-171 2278.01,-171 2286.22,-171"/>
<polygon fill="black" stroke="black" points="2286.08,-174.5 2296.08,-171 2286.08,-167.5 2286.08,-174.5"/>
</g>
<!-- 1990981887632 -->
<g id="node21" class="node">
<title>1990981887632</title>
<ellipse fill="white" stroke="black" cx="27" cy="-227" rx="27" ry="27"/>
<text text-anchor="start" x="9.75" y="-209.7" font-family="Times New Roman,serif" font-size="34.00">●</text>
</g>
<!-- 1990981887632&#45;&gt;1990980994064 -->
<g id="edge1" class="edge">
<title>1990981887632&#45;&gt;1990980994064</title>
<path fill="none" stroke="black" d="M54.33,-227C61.76,-227 70.06,-227 78.28,-227"/>
<polygon fill="black" stroke="black" points="78.24,-230.5 88.24,-227 78.24,-223.5 78.24,-230.5"/>
</g>
<!-- 1990981009088&#45;&gt;1990980994544 -->
<g id="edge5" class="edge">
<title>1990981009088&#45;&gt;1990980994544</title>
<path fill="none" stroke="black" d="M251.15,-263C258.48,-263 266.71,-263 275.01,-263"/>
<polygon fill="black" stroke="black" points="274.78,-266.5 284.78,-263 274.78,-259.5 274.78,-266.5"/>
</g>
<!-- 1990981006016&#45;&gt;1990978084000 -->
<g id="edge4" class="edge">
<title>1990981006016&#45;&gt;1990978084000</title>
<path fill="none" stroke="black" d="M251.15,-191C259.15,-191 268.24,-191 277.31,-191"/>
<polygon fill="black" stroke="black" points="277.2,-194.5 287.2,-191 277.2,-187.5 277.2,-194.5"/>
</g>
<!-- 1990982047680&#45;&gt;1990980368288 -->
<g id="edge9" class="edge">
<title>1990982047680&#45;&gt;1990980368288</title>
<path fill="none" stroke="black" d="M462.51,-252.97C470.76,-249.6 480.14,-245.76 489.12,-242.09"/>
<polygon fill="black" stroke="black" points="490.44,-245.33 498.37,-238.3 487.79,-238.85 490.44,-245.33"/>
</g>
<!-- 1990982056752&#45;&gt;1990980368288 -->
<g id="edge8" class="edge">
<title>1990982056752&#45;&gt;1990980368288</title>
<path fill="none" stroke="black" d="M462.51,-201.03C470.76,-204.4 480.14,-208.24 489.12,-211.91"/>
<polygon fill="black" stroke="black" points="487.79,-215.15 498.37,-215.7 490.44,-208.67 487.79,-215.15"/>
</g>
<!-- 1990977976272&#45;&gt;1990981340624 -->
<g id="edge11" class="edge">
<title>1990977976272&#45;&gt;1990981340624</title>
<path fill="none" stroke="black" d="M643.59,-220.6C651.23,-218.69 659.92,-216.52 668.72,-214.32"/>
<polygon fill="black" stroke="black" points="669.55,-217.72 678.4,-211.9 667.85,-210.93 669.55,-217.72"/>
</g>
<!-- 1990981340672&#45;&gt;1990981342592 -->
<g id="edge13" class="edge">
<title>1990981340672&#45;&gt;1990981342592</title>
<path fill="none" stroke="black" d="M864.29,-199C877.26,-199 893.23,-199 907.86,-199"/>
<polygon fill="black" stroke="black" points="907.71,-202.5 917.71,-199 907.71,-195.5 907.71,-202.5"/>
</g>
<!-- 1990981340672&#45;&gt;1990981350848 -->
<g id="edge14" class="edge">
<title>1990981340672&#45;&gt;1990981350848</title>
<path fill="none" stroke="black" d="M861.78,-210.45C873.36,-216.03 887.72,-222.95 901.48,-229.57"/>
<polygon fill="black" stroke="black" points="899.93,-232.71 910.46,-233.9 902.97,-226.4 899.93,-232.71"/>
</g>
<!-- 1990981347248&#45;&gt;1990981349552 -->
<g id="edge17" class="edge">
<title>1990981347248&#45;&gt;1990981349552</title>
<path fill="none" stroke="black" d="M1091.86,-192.87C1099.36,-191.08 1107.91,-189.03 1116.66,-186.94"/>
<polygon fill="black" stroke="black" points="1117.39,-190.37 1126.3,-184.64 1115.76,-183.56 1117.39,-190.37"/>
</g>
<!-- 1990981340768&#45;&gt;1990981341584 -->
<g id="edge19" class="edge">
<title>1990981340768&#45;&gt;1990981341584</title>
<path fill="none" stroke="black" d="M1319.65,-183.12C1330.17,-188.51 1342.94,-195.06 1355.23,-201.35"/>
<polygon fill="black" stroke="black" points="1353.54,-204.42 1364.04,-205.87 1356.73,-198.19 1353.54,-204.42"/>
</g>
<!-- 1990981340768&#45;&gt;1990981342352 -->
<g id="edge20" class="edge">
<title>1990981340768&#45;&gt;1990981342352</title>
<path fill="none" stroke="black" d="M1322.32,-171C1334.89,-171 1350.16,-171 1363.92,-171"/>
<polygon fill="black" stroke="black" points="1363.51,-174.5 1373.51,-171 1363.51,-167.5 1363.51,-174.5"/>
</g>
<!-- 1990981345280&#45;&gt;1990981344752 -->
<g id="edge29" class="edge">
<title>1990981345280&#45;&gt;1990981344752</title>
<path fill="none" stroke="black" d="M1537.25,-315C1544.54,-315 1552.77,-315 1561.14,-315"/>
<polygon fill="black" stroke="black" points="1561.07,-318.5 1571.07,-315 1561.07,-311.5 1561.07,-318.5"/>
</g>
<!-- 1990981337984&#45;&gt;1990981344080 -->
<g id="edge31" class="edge">
<title>1990981337984&#45;&gt;1990981344080</title>
<path fill="none" stroke="black" d="M1537.25,-243C1547.22,-243 1558.92,-243 1570.38,-243"/>
<polygon fill="black" stroke="black" points="1570.17,-246.5 1580.17,-243 1570.17,-239.5 1570.17,-246.5"/>
</g>
<!-- 1990981346576&#45;&gt;1990981340384 -->
<g id="edge27" class="edge">
<title>1990981346576&#45;&gt;1990981340384</title>
<path fill="none" stroke="black" d="M1537.25,-171C1547.12,-171 1558.7,-171 1570.05,-171"/>
<polygon fill="black" stroke="black" points="1569.74,-174.5 1579.74,-171 1569.74,-167.5 1569.74,-174.5"/>
</g>
<!-- 1990981352240&#45;&gt;1990981344032 -->
<g id="edge28" class="edge">
<title>1990981352240&#45;&gt;1990981344032</title>
<path fill="none" stroke="black" d="M1537.25,-99C1545.61,-99 1555.19,-99 1564.82,-99"/>
<polygon fill="black" stroke="black" points="1564.57,-102.5 1574.57,-99 1564.57,-95.5 1564.57,-102.5"/>
</g>
<!-- 1990981347440&#45;&gt;1990981351568 -->
<g id="edge30" class="edge">
<title>1990981347440&#45;&gt;1990981351568</title>
<path fill="none" stroke="black" d="M1537.25,-27C1547.71,-27 1560.08,-27 1572.07,-27"/>
<polygon fill="black" stroke="black" points="1571.86,-30.5 1581.86,-27 1571.86,-23.5 1571.86,-30.5"/>
</g>
<!-- 1990982043648&#45;&gt;1990981353296 -->
<g id="edge39" class="edge">
<title>1990982043648&#45;&gt;1990981353296</title>
<path fill="none" stroke="black" d="M1757.06,-114.98C1768.94,-124 1784.07,-135.48 1797.53,-145.7"/>
<polygon fill="black" stroke="black" points="1795.24,-148.35 1805.32,-151.61 1799.47,-142.77 1795.24,-148.35"/>
</g>
<!-- 1990982053920&#45;&gt;1990981353296 -->
<g id="edge40" class="edge">
<title>1990982053920&#45;&gt;1990981353296</title>
<path fill="none" stroke="black" d="M1757.06,-227.02C1768.94,-218 1784.07,-206.52 1797.53,-196.3"/>
<polygon fill="black" stroke="black" points="1799.47,-199.23 1805.32,-190.39 1795.24,-193.65 1799.47,-199.23"/>
</g>
<!-- 1990982052912&#45;&gt;1990981353296 -->
<g id="edge41" class="edge">
<title>1990982052912&#45;&gt;1990981353296</title>
<path fill="none" stroke="black" d="M1751.88,-48.56C1755.27,-53.28 1758.79,-58.28 1762,-63 1780.23,-89.84 1800.05,-121.16 1813.73,-143.15"/>
<polygon fill="black" stroke="black" points="1810.69,-144.89 1818.94,-151.54 1816.64,-141.2 1810.69,-144.89"/>
</g>
<!-- 1990982047056&#45;&gt;1990981353296 -->
<g id="edge37" class="edge">
<title>1990982047056&#45;&gt;1990981353296</title>
<path fill="none" stroke="black" d="M1751.88,-293.44C1755.27,-288.72 1758.79,-283.72 1762,-279 1780.23,-252.16 1800.05,-220.84 1813.73,-198.85"/>
<polygon fill="black" stroke="black" points="1816.64,-200.8 1818.94,-190.46 1810.69,-197.11 1816.64,-200.8"/>
</g>
<!-- 1990982057328&#45;&gt;1990981353296 -->
<g id="edge38" class="edge">
<title>1990982057328&#45;&gt;1990981353296</title>
<path fill="none" stroke="black" d="M1762.43,-171C1769.88,-171 1778.2,-171 1786.4,-171"/>
<polygon fill="black" stroke="black" points="1786.3,-174.5 1796.3,-171 1786.3,-167.5 1786.3,-174.5"/>
</g>
<!-- 1990981342976&#45;&gt;1990981339088 -->
<g id="edge45" class="edge">
<title>1990981342976&#45;&gt;1990981339088</title>
<path fill="none" stroke="black" d="M1955.98,-243C1963.33,-243 1971.6,-243 1979.97,-243"/>
<polygon fill="black" stroke="black" points="1979.84,-246.5 1989.84,-243 1979.84,-239.5 1979.84,-246.5"/>
</g>
<!-- 1990981353392&#45;&gt;1990981349504 -->
<g id="edge47" class="edge">
<title>1990981353392&#45;&gt;1990981349504</title>
<path fill="none" stroke="black" d="M1955.98,-171C1963.92,-171 1972.95,-171 1982.01,-171"/>
<polygon fill="black" stroke="black" points="1981.91,-174.5 1991.91,-171 1981.91,-167.5 1981.91,-174.5"/>
</g>
<!-- 1990982054208&#45;&gt;1990982057760 -->
<g id="edge46" class="edge">
<title>1990982054208&#45;&gt;1990982057760</title>
<path fill="none" stroke="black" d="M1955.98,-99C1963.67,-99 1972.37,-99 1981.13,-99"/>
<polygon fill="black" stroke="black" points="1981.09,-102.5 1991.09,-99 1981.09,-95.5 1981.09,-102.5"/>
</g>
<!-- 1990982049552&#45;&gt;1990979337440 -->
<g id="edge51" class="edge">
<title>1990982049552&#45;&gt;1990979337440</title>
<path fill="none" stroke="black" d="M2166.41,-115.7C2177.17,-124.5 2190.61,-135.5 2202.66,-145.36"/>
<polygon fill="black" stroke="black" points="2200.41,-148.04 2210.37,-151.66 2204.84,-142.62 2200.41,-148.04"/>
</g>
<!-- 1990981337504&#45;&gt;1990979337440 -->
<g id="edge53" class="edge">
<title>1990981337504&#45;&gt;1990979337440</title>
<path fill="none" stroke="black" d="M2166.41,-226.3C2177.17,-217.5 2190.61,-206.5 2202.66,-196.64"/>
<polygon fill="black" stroke="black" points="2204.84,-199.38 2210.37,-190.34 2200.41,-193.96 2204.84,-199.38"/>
</g>
<!-- 1990981349216&#45;&gt;1990979337440 -->
<g id="edge52" class="edge">
<title>1990981349216&#45;&gt;1990979337440</title>
<path fill="none" stroke="black" d="M2172.4,-171C2179.89,-171 2188.18,-171 2196.2,-171"/>
<polygon fill="black" stroke="black" points="2196.1,-174.5 2206.1,-171 2196.1,-167.5 2196.1,-174.5"/>
</g>
</g>
</svg>
