<?xml version="1.0" encoding="UTF-8" standalone="no"?>
<!DOCTYPE svg PUBLIC "-//W3C//DTD SVG 1.1//EN"
 "http://www.w3.org/Graphics/SVG/1.1/DTD/svg11.dtd">
<!-- Generated by graphviz version 11.0.0 (20240428.1522)
 -->
<!-- Title: imdf_net_1754052603.759135 Pages: 1 -->
<svg width="3446pt" height="113pt"
 viewBox="0.00 0.00 3446.00 113.00" xmlns="http://www.w3.org/2000/svg" xmlns:xlink="http://www.w3.org/1999/xlink">
<g id="graph0" class="graph" transform="scale(1 1) rotate(0) translate(4 109)">
<title>imdf_net_1754052603.759135</title>
<polygon fill="white" stroke="none" points="-4,4 -4,-109 3442,-109 3442,4 -4,4"/>
<!-- 1990971857936 -->
<g id="node1" class="node">
<title>1990971857936</title>
<polygon fill="white" stroke="black" points="168.25,-77 90,-77 90,-41 168.25,-41 168.25,-77"/>
<text text-anchor="middle" x="129.12" y="-53.98" font-family="Times New Roman,serif" font-size="12.00">Site Analysis</text>
</g>
<!-- 1990981598672 -->
<g id="node19" class="node">
<title>1990981598672</title>
<ellipse fill="white" stroke="black" cx="231.25" cy="-59" rx="27" ry="27"/>
</g>
<!-- 1990971857936&#45;&gt;1990981598672 -->
<g id="edge2" class="edge">
<title>1990971857936&#45;&gt;1990981598672</title>
<path fill="none" stroke="black" d="M168.55,-59C176.39,-59 184.63,-59 192.44,-59"/>
<polygon fill="black" stroke="black" points="192.36,-62.5 202.36,-59 192.36,-55.5 192.36,-62.5"/>
</g>
<!-- 1990981592576 -->
<g id="node2" class="node">
<title>1990981592576</title>
<polygon fill="white" stroke="black" points="380.75,-77 294.25,-77 294.25,-41 380.75,-41 380.75,-77"/>
<text text-anchor="middle" x="337.5" y="-53.98" font-family="Times New Roman,serif" font-size="12.00">Design Layout</text>
</g>
<!-- 1990981594496 -->
<g id="node20" class="node">
<title>1990981594496</title>
<ellipse fill="white" stroke="black" cx="443.75" cy="-59" rx="27" ry="27"/>
</g>
<!-- 1990981592576&#45;&gt;1990981594496 -->
<g id="edge4" class="edge">
<title>1990981592576&#45;&gt;1990981594496</title>
<path fill="none" stroke="black" d="M381.2,-59C389.12,-59 397.34,-59 405.09,-59"/>
<polygon fill="black" stroke="black" points="404.89,-62.5 414.89,-59 404.89,-55.5 404.89,-62.5"/>
</g>
<!-- 1990981591376 -->
<g id="node3" class="node">
<title>1990981591376</title>
<polygon fill="white" stroke="black" points="609.75,-77 506.75,-77 506.75,-41 609.75,-41 609.75,-77"/>
<text text-anchor="middle" x="558.25" y="-53.98" font-family="Times New Roman,serif" font-size="12.00">Module Assembly</text>
</g>
<!-- 1990980515936 -->
<g id="node21" class="node">
<title>1990980515936</title>
<ellipse fill="white" stroke="black" cx="672.75" cy="-59" rx="27" ry="27"/>
</g>
<!-- 1990981591376&#45;&gt;1990980515936 -->
<g id="edge6" class="edge">
<title>1990981591376&#45;&gt;1990980515936</title>
<path fill="none" stroke="black" d="M610.23,-59C618.25,-59 626.4,-59 634.04,-59"/>
<polygon fill="black" stroke="black" points="634.02,-62.5 644.02,-59 634.02,-55.5 634.02,-62.5"/>
</g>
<!-- 1990977853808 -->
<g id="node4" class="node">
<title>1990977853808</title>
<polygon fill="white" stroke="black" points="818.5,-77 735.75,-77 735.75,-41 818.5,-41 818.5,-77"/>
<text text-anchor="middle" x="777.12" y="-53.98" font-family="Times New Roman,serif" font-size="12.00">Climate Setup</text>
</g>
<!-- 1990982119744 -->
<g id="node22" class="node">
<title>1990982119744</title>
<ellipse fill="white" stroke="black" cx="881.5" cy="-59" rx="27" ry="27"/>
</g>
<!-- 1990977853808&#45;&gt;1990982119744 -->
<g id="edge8" class="edge">
<title>1990977853808&#45;&gt;1990982119744</title>
<path fill="none" stroke="black" d="M818.88,-59C826.73,-59 834.92,-59 842.67,-59"/>
<polygon fill="black" stroke="black" points="842.49,-62.5 852.49,-59 842.49,-55.5 842.49,-62.5"/>
</g>
<!-- 1990982110624 -->
<g id="node5" class="node">
<title>1990982110624</title>
<polygon fill="white" stroke="black" points="1024.25,-77 944.5,-77 944.5,-41 1024.25,-41 1024.25,-77"/>
<text text-anchor="middle" x="984.38" y="-53.98" font-family="Times New Roman,serif" font-size="12.00">Sensor Install</text>
</g>
<!-- 1990982114752 -->
<g id="node23" class="node">
<title>1990982114752</title>
<ellipse fill="white" stroke="black" cx="1087.25" cy="-59" rx="27" ry="27"/>
</g>
<!-- 1990982110624&#45;&gt;1990982114752 -->
<g id="edge10" class="edge">
<title>1990982110624&#45;&gt;1990982114752</title>
<path fill="none" stroke="black" d="M1024.66,-59C1032.53,-59 1040.77,-59 1048.57,-59"/>
<polygon fill="black" stroke="black" points="1048.47,-62.5 1058.47,-59 1048.47,-55.5 1048.47,-62.5"/>
</g>
<!-- 1990982109328 -->
<g id="node6" class="node">
<title>1990982109328</title>
<polygon fill="white" stroke="black" points="1233,-77 1150.25,-77 1150.25,-41 1233,-41 1233,-77"/>
<text text-anchor="middle" x="1191.62" y="-53.98" font-family="Times New Roman,serif" font-size="12.00">Water Testing</text>
</g>
<!-- 1990982123344 -->
<g id="node24" class="node">
<title>1990982123344</title>
<ellipse fill="white" stroke="black" cx="1296" cy="-59" rx="27" ry="27"/>
</g>
<!-- 1990982109328&#45;&gt;1990982123344 -->
<g id="edge12" class="edge">
<title>1990982109328&#45;&gt;1990982123344</title>
<path fill="none" stroke="black" d="M1233.38,-59C1241.23,-59 1249.42,-59 1257.17,-59"/>
<polygon fill="black" stroke="black" points="1256.99,-62.5 1266.99,-59 1256.99,-55.5 1256.99,-62.5"/>
</g>
<!-- 1990982110288 -->
<g id="node7" class="node">
<title>1990982110288</title>
<polygon fill="white" stroke="black" points="1436.5,-77 1359,-77 1359,-41 1436.5,-41 1436.5,-77"/>
<text text-anchor="middle" x="1397.75" y="-53.98" font-family="Times New Roman,serif" font-size="12.00">Nutrient Mix</text>
</g>
<!-- 1990982119648 -->
<g id="node25" class="node">
<title>1990982119648</title>
<ellipse fill="white" stroke="black" cx="1499.5" cy="-59" rx="27" ry="27"/>
</g>
<!-- 1990982110288&#45;&gt;1990982119648 -->
<g id="edge14" class="edge">
<title>1990982110288&#45;&gt;1990982119648</title>
<path fill="none" stroke="black" d="M1436.75,-59C1444.57,-59 1452.81,-59 1460.63,-59"/>
<polygon fill="black" stroke="black" points="1460.55,-62.5 1470.55,-59 1460.55,-55.5 1460.55,-62.5"/>
</g>
<!-- 1990982115712 -->
<g id="node8" class="node">
<title>1990982115712</title>
<polygon fill="white" stroke="black" points="1648.25,-77 1562.5,-77 1562.5,-41 1648.25,-41 1648.25,-77"/>
<text text-anchor="middle" x="1605.38" y="-53.98" font-family="Times New Roman,serif" font-size="12.00">Seed Selection</text>
</g>
<!-- 1990982108800 -->
<g id="node26" class="node">
<title>1990982108800</title>
<ellipse fill="white" stroke="black" cx="1711.25" cy="-59" rx="27" ry="27"/>
</g>
<!-- 1990982115712&#45;&gt;1990982108800 -->
<g id="edge16" class="edge">
<title>1990982115712&#45;&gt;1990982108800</title>
<path fill="none" stroke="black" d="M1648.62,-59C1656.53,-59 1664.75,-59 1672.51,-59"/>
<polygon fill="black" stroke="black" points="1672.32,-62.5 1682.32,-59 1672.32,-55.5 1672.32,-62.5"/>
</g>
<!-- 1990982117296 -->
<g id="node9" class="node">
<title>1990982117296</title>
<polygon fill="white" stroke="black" points="1860,-77 1774.25,-77 1774.25,-41 1860,-41 1860,-77"/>
<text text-anchor="middle" x="1817.12" y="-53.98" font-family="Times New Roman,serif" font-size="12.00">Planting Phase</text>
</g>
<!-- 1990982117392 -->
<g id="node27" class="node">
<title>1990982117392</title>
<ellipse fill="white" stroke="black" cx="1923" cy="-59" rx="27" ry="27"/>
</g>
<!-- 1990982117296&#45;&gt;1990982117392 -->
<g id="edge18" class="edge">
<title>1990982117296&#45;&gt;1990982117392</title>
<path fill="none" stroke="black" d="M1860.37,-59C1868.28,-59 1876.5,-59 1884.26,-59"/>
<polygon fill="black" stroke="black" points="1884.07,-62.5 1894.07,-59 1884.07,-55.5 1884.07,-62.5"/>
</g>
<!-- 1990982108272 -->
<g id="node10" class="node">
<title>1990982108272</title>
<polygon fill="white" stroke="black" points="2080,-54 1986,-54 1986,-18 2080,-18 2080,-54"/>
<text text-anchor="middle" x="2033" y="-30.98" font-family="Times New Roman,serif" font-size="12.00">Growth Monitor</text>
</g>
<!-- 1990982117728 -->
<g id="node28" class="node">
<title>1990982117728</title>
<ellipse fill="white" stroke="black" cx="2143" cy="-27" rx="27" ry="27"/>
</g>
<!-- 1990982108272&#45;&gt;1990982117728 -->
<g id="edge20" class="edge">
<title>1990982108272&#45;&gt;1990982117728</title>
<path fill="none" stroke="black" d="M2080.43,-32.13C2088.48,-31.46 2096.75,-30.77 2104.53,-30.12"/>
<polygon fill="black" stroke="black" points="2104.66,-33.62 2114.33,-29.31 2104.07,-26.65 2104.66,-33.62"/>
</g>
<!-- 1990982115520 -->
<g id="node11" class="node">
<title>1990982115520</title>
<polygon fill="white" stroke="black" points="2280.5,-47 2206,-47 2206,-11 2280.5,-11 2280.5,-47"/>
<text text-anchor="middle" x="2243.25" y="-23.98" font-family="Times New Roman,serif" font-size="12.00">Pest Control</text>
</g>
<!-- 1990982111200 -->
<g id="node29" class="node">
<title>1990982111200</title>
<ellipse fill="white" stroke="black" cx="2343.5" cy="-33" rx="27" ry="27"/>
</g>
<!-- 1990982115520&#45;&gt;1990982111200 -->
<g id="edge22" class="edge">
<title>1990982115520&#45;&gt;1990982111200</title>
<path fill="none" stroke="black" d="M2280.83,-30.49C2288.75,-30.81 2297.14,-31.15 2305.09,-31.48"/>
<polygon fill="black" stroke="black" points="2304.67,-34.96 2314.8,-31.87 2304.95,-27.97 2304.67,-34.96"/>
</g>
<!-- 1990982113408 -->
<g id="node12" class="node">
<title>1990982113408</title>
<polygon fill="black" stroke="black" points="2471.88,-105 2417.88,-105 2417.88,-69 2471.88,-69 2471.88,-105"/>
</g>
<!-- 1990982113408&#45;&gt;1990982117392 -->
<g id="edge25" class="edge">
<title>1990982113408&#45;&gt;1990982117392</title>
<path fill="none" stroke="black" d="M2417.4,-87.65C2379.17,-88.53 2306.29,-90 2244.25,-90 2142,-90 2142,-90 2142,-90 2077.74,-90 2003.88,-76.64 1960.73,-67.46"/>
<polygon fill="black" stroke="black" points="1961.67,-64.08 1951.15,-65.37 1960.18,-70.92 1961.67,-64.08"/>
</g>
<!-- 1990982109520 -->
<g id="node13" class="node">
<title>1990982109520</title>
<polygon fill="white" stroke="black" points="2483.25,-51 2406.5,-51 2406.5,-15 2483.25,-15 2483.25,-51"/>
<text text-anchor="middle" x="2444.88" y="-27.98" font-family="Times New Roman,serif" font-size="12.00">Harvest Plan</text>
</g>
<!-- 1990982118688 -->
<g id="node30" class="node">
<title>1990982118688</title>
<ellipse fill="white" stroke="black" cx="2546.25" cy="-33" rx="27" ry="27"/>
</g>
<!-- 1990982109520&#45;&gt;1990982118688 -->
<g id="edge26" class="edge">
<title>1990982109520&#45;&gt;1990982118688</title>
<path fill="none" stroke="black" d="M2483.73,-33C2491.52,-33 2499.73,-33 2507.52,-33"/>
<polygon fill="black" stroke="black" points="2507.4,-36.5 2517.4,-33 2507.4,-29.5 2507.4,-36.5"/>
</g>
<!-- 1990982118400 -->
<g id="node14" class="node">
<title>1990982118400</title>
<polygon fill="white" stroke="black" points="2681.5,-51 2609.25,-51 2609.25,-15 2681.5,-15 2681.5,-51"/>
<text text-anchor="middle" x="2645.38" y="-27.98" font-family="Times New Roman,serif" font-size="12.00">Yield Audit</text>
</g>
<!-- 1990982112112 -->
<g id="node31" class="node">
<title>1990982112112</title>
<ellipse fill="white" stroke="black" cx="2744.5" cy="-33" rx="27" ry="27"/>
</g>
<!-- 1990982118400&#45;&gt;1990982112112 -->
<g id="edge28" class="edge">
<title>1990982118400&#45;&gt;1990982112112</title>
<path fill="none" stroke="black" d="M2681.99,-33C2689.68,-33 2697.84,-33 2705.62,-33"/>
<polygon fill="black" stroke="black" points="2705.5,-36.5 2715.5,-33 2705.5,-29.5 2705.5,-36.5"/>
</g>
<!-- 1990982120464 -->
<g id="node15" class="node">
<title>1990982120464</title>
<polygon fill="white" stroke="black" points="2897.75,-51 2807.5,-51 2807.5,-15 2897.75,-15 2897.75,-51"/>
<text text-anchor="middle" x="2852.62" y="-27.98" font-family="Times New Roman,serif" font-size="12.00">Packaging Prep</text>
</g>
<!-- 1990982112736 -->
<g id="node32" class="node">
<title>1990982112736</title>
<ellipse fill="white" stroke="black" cx="2960.75" cy="-33" rx="27" ry="27"/>
</g>
<!-- 1990982120464&#45;&gt;1990982112736 -->
<g id="edge30" class="edge">
<title>1990982120464&#45;&gt;1990982112736</title>
<path fill="none" stroke="black" d="M2898.02,-33C2906.01,-33 2914.28,-33 2922.06,-33"/>
<polygon fill="black" stroke="black" points="2921.89,-36.5 2931.89,-33 2921.89,-29.5 2921.89,-36.5"/>
</g>
<!-- 1990975994000 -->
<g id="node16" class="node">
<title>1990975994000</title>
<polygon fill="white" stroke="black" points="3117.75,-51 3023.75,-51 3023.75,-15 3117.75,-15 3117.75,-51"/>
<text text-anchor="middle" x="3070.75" y="-27.98" font-family="Times New Roman,serif" font-size="12.00">Market Delivery</text>
</g>
<!-- 1990975994720 -->
<g id="node33" class="node">
<title>1990975994720</title>
<ellipse fill="white" stroke="black" cx="3180.75" cy="-33" rx="27" ry="27"/>
</g>
<!-- 1990975994000&#45;&gt;1990975994720 -->
<g id="edge32" class="edge">
<title>1990975994000&#45;&gt;1990975994720</title>
<path fill="none" stroke="black" d="M3118.18,-33C3126.06,-33 3134.16,-33 3141.78,-33"/>
<polygon fill="black" stroke="black" points="3141.77,-36.5 3151.77,-33 3141.77,-29.5 3141.77,-36.5"/>
</g>
<!-- 1990975980848 -->
<g id="node17" class="node">
<title>1990975980848</title>
<polygon fill="white" stroke="black" points="3340,-51 3243.75,-51 3243.75,-15 3340,-15 3340,-51"/>
<text text-anchor="middle" x="3291.88" y="-27.98" font-family="Times New Roman,serif" font-size="12.00">Waste Recycling</text>
</g>
<!-- 1990979920256 -->
<g id="node34" class="node">
<title>1990979920256</title>
<ellipse fill="white" stroke="black" cx="3407" cy="-33" rx="27" ry="27"/>
<ellipse fill="none" stroke="black" cx="3407" cy="-33" rx="31" ry="31"/>
<text text-anchor="start" x="3390.5" y="-17.6" font-family="Times New Roman,serif" font-size="32.00">■</text>
</g>
<!-- 1990975980848&#45;&gt;1990979920256 -->
<g id="edge34" class="edge">
<title>1990975980848&#45;&gt;1990979920256</title>
<path fill="none" stroke="black" d="M3340.19,-33C3348.16,-33 3356.37,-33 3364.18,-33"/>
<polygon fill="black" stroke="black" points="3364.12,-36.5 3374.12,-33 3364.12,-29.5 3364.12,-36.5"/>
</g>
<!-- 1990979912912 -->
<g id="node18" class="node">
<title>1990979912912</title>
<ellipse fill="white" stroke="black" cx="27" cy="-59" rx="27" ry="27"/>
<text text-anchor="start" x="9.75" y="-41.7" font-family="Times New Roman,serif" font-size="34.00">●</text>
</g>
<!-- 1990979912912&#45;&gt;1990971857936 -->
<g id="edge1" class="edge">
<title>1990979912912&#45;&gt;1990971857936</title>
<path fill="none" stroke="black" d="M54.31,-59C61.63,-59 69.84,-59 78.05,-59"/>
<polygon fill="black" stroke="black" points="78.05,-62.5 88.05,-59 78.05,-55.5 78.05,-62.5"/>
</g>
<!-- 1990981598672&#45;&gt;1990981592576 -->
<g id="edge3" class="edge">
<title>1990981598672&#45;&gt;1990981592576</title>
<path fill="none" stroke="black" d="M258.56,-59C265.94,-59 274.24,-59 282.61,-59"/>
<polygon fill="black" stroke="black" points="282.46,-62.5 292.46,-59 282.46,-55.5 282.46,-62.5"/>
</g>
<!-- 1990981594496&#45;&gt;1990981591376 -->
<g id="edge5" class="edge">
<title>1990981594496&#45;&gt;1990981591376</title>
<path fill="none" stroke="black" d="M471.13,-59C478.36,-59 486.52,-59 494.86,-59"/>
<polygon fill="black" stroke="black" points="494.77,-62.5 504.77,-59 494.77,-55.5 494.77,-62.5"/>
</g>
<!-- 1990980515936&#45;&gt;1990977853808 -->
<g id="edge7" class="edge">
<title>1990980515936&#45;&gt;1990977853808</title>
<path fill="none" stroke="black" d="M700.11,-59C707.53,-59 715.86,-59 724.21,-59"/>
<polygon fill="black" stroke="black" points="724.02,-62.5 734.02,-59 724.02,-55.5 724.02,-62.5"/>
</g>
<!-- 1990982119744&#45;&gt;1990982110624 -->
<g id="edge9" class="edge">
<title>1990982119744&#45;&gt;1990982110624</title>
<path fill="none" stroke="black" d="M908.74,-59C916.21,-59 924.6,-59 932.99,-59"/>
<polygon fill="black" stroke="black" points="932.83,-62.5 942.83,-59 932.83,-55.5 932.83,-62.5"/>
</g>
<!-- 1990982114752&#45;&gt;1990982109328 -->
<g id="edge11" class="edge">
<title>1990982114752&#45;&gt;1990982109328</title>
<path fill="none" stroke="black" d="M1114.61,-59C1122.03,-59 1130.36,-59 1138.71,-59"/>
<polygon fill="black" stroke="black" points="1138.52,-62.5 1148.52,-59 1138.52,-55.5 1138.52,-62.5"/>
</g>
<!-- 1990982123344&#45;&gt;1990982110288 -->
<g id="edge13" class="edge">
<title>1990982123344&#45;&gt;1990982110288</title>
<path fill="none" stroke="black" d="M1323.47,-59C1330.77,-59 1338.93,-59 1347.08,-59"/>
<polygon fill="black" stroke="black" points="1347,-62.5 1357,-59 1347,-55.5 1347,-62.5"/>
</g>
<!-- 1990982119648&#45;&gt;1990982115712 -->
<g id="edge15" class="edge">
<title>1990982119648&#45;&gt;1990982115712</title>
<path fill="none" stroke="black" d="M1526.98,-59C1534.34,-59 1542.6,-59 1550.91,-59"/>
<polygon fill="black" stroke="black" points="1550.69,-62.5 1560.69,-59 1550.69,-55.5 1550.69,-62.5"/>
</g>
<!-- 1990982108800&#45;&gt;1990982117296 -->
<g id="edge17" class="edge">
<title>1990982108800&#45;&gt;1990982117296</title>
<path fill="none" stroke="black" d="M1738.73,-59C1746.09,-59 1754.35,-59 1762.66,-59"/>
<polygon fill="black" stroke="black" points="1762.44,-62.5 1772.44,-59 1762.44,-55.5 1762.44,-62.5"/>
</g>
<!-- 1990982117392&#45;&gt;1990982108272 -->
<g id="edge19" class="edge">
<title>1990982117392&#45;&gt;1990982108272</title>
<path fill="none" stroke="black" d="M1949.87,-53.49C1957.42,-51.88 1965.98,-50.06 1974.66,-48.21"/>
<polygon fill="black" stroke="black" points="1975.12,-51.69 1984.17,-46.19 1973.66,-44.85 1975.12,-51.69"/>
</g>
<!-- 1990982117728&#45;&gt;1990982115520 -->
<g id="edge21" class="edge">
<title>1990982117728&#45;&gt;1990982115520</title>
<path fill="none" stroke="black" d="M2170.33,-27.54C2177.67,-27.69 2185.88,-27.85 2194.06,-28.02"/>
<polygon fill="black" stroke="black" points="2193.92,-31.52 2203.99,-28.22 2194.07,-24.52 2193.92,-31.52"/>
</g>
<!-- 1990982111200&#45;&gt;1990982113408 -->
<g id="edge24" class="edge">
<title>1990982111200&#45;&gt;1990982113408</title>
<path fill="none" stroke="black" d="M2367.8,-45.66C2379.68,-52.12 2394.41,-60.12 2407.73,-67.36"/>
<polygon fill="black" stroke="black" points="2405.78,-70.28 2416.24,-71.98 2409.12,-64.13 2405.78,-70.28"/>
</g>
<!-- 1990982111200&#45;&gt;1990982109520 -->
<g id="edge23" class="edge">
<title>1990982111200&#45;&gt;1990982109520</title>
<path fill="none" stroke="black" d="M2370.87,-33C2378.22,-33 2386.44,-33 2394.65,-33"/>
<polygon fill="black" stroke="black" points="2394.64,-36.5 2404.64,-33 2394.64,-29.5 2394.64,-36.5"/>
</g>
<!-- 1990982118688&#45;&gt;1990982118400 -->
<g id="edge27" class="edge">
<title>1990982118688&#45;&gt;1990982118400</title>
<path fill="none" stroke="black" d="M2573.53,-33C2580.94,-33 2589.23,-33 2597.46,-33"/>
<polygon fill="black" stroke="black" points="2597.44,-36.5 2607.44,-33 2597.44,-29.5 2597.44,-36.5"/>
</g>
<!-- 1990982112112&#45;&gt;1990982120464 -->
<g id="edge29" class="edge">
<title>1990982112112&#45;&gt;1990982120464</title>
<path fill="none" stroke="black" d="M2771.73,-33C2779.08,-33 2787.35,-33 2795.72,-33"/>
<polygon fill="black" stroke="black" points="2795.59,-36.5 2805.59,-33 2795.59,-29.5 2795.59,-36.5"/>
</g>
<!-- 1990982112736&#45;&gt;1990975994000 -->
<g id="edge31" class="edge">
<title>1990982112736&#45;&gt;1990975994000</title>
<path fill="none" stroke="black" d="M2988.17,-33C2995.47,-33 3003.69,-33 3012.02,-33"/>
<polygon fill="black" stroke="black" points="3011.88,-36.5 3021.88,-33 3011.88,-29.5 3011.88,-36.5"/>
</g>
<!-- 1990975994720&#45;&gt;1990975980848 -->
<g id="edge33" class="edge">
<title>1990975994720&#45;&gt;1990975980848</title>
<path fill="none" stroke="black" d="M3208.17,-33C3215.45,-33 3223.66,-33 3232,-33"/>
<polygon fill="black" stroke="black" points="3231.87,-36.5 3241.87,-33 3231.87,-29.5 3231.87,-36.5"/>
</g>
</g>
</svg>
