<?xml version="1.0" encoding="UTF-8" standalone="no"?>
<!DOCTYPE svg PUBLIC "-//W3C//DTD SVG 1.1//EN"
 "http://www.w3.org/Graphics/SVG/1.1/DTD/svg11.dtd">
<!-- Generated by graphviz version 11.0.0 (20240428.1522)
 -->
<!-- Title: imdf_net_1754052613.1111999 Pages: 1 -->
<svg width="2842pt" height="206pt"
 viewBox="0.00 0.00 2842.25 206.00" xmlns="http://www.w3.org/2000/svg" xmlns:xlink="http://www.w3.org/1999/xlink">
<g id="graph0" class="graph" transform="scale(1 1) rotate(0) translate(4 202)">
<title>imdf_net_1754052613.1111999</title>
<polygon fill="white" stroke="none" points="-4,4 -4,-202 2838.25,-202 2838.25,4 -4,4"/>
<!-- 1990978393808 -->
<g id="node1" class="node">
<title>1990978393808</title>
<polygon fill="white" stroke="black" points="160.75,-117 90,-117 90,-81 160.75,-81 160.75,-117"/>
<text text-anchor="middle" x="125.38" y="-93.97" font-family="Times New Roman,serif" font-size="12.00">Site Survey</text>
</g>
<!-- 1990978399376 -->
<g id="node19" class="node">
<title>1990978399376</title>
<ellipse fill="white" stroke="black" cx="223.75" cy="-99" rx="27" ry="27"/>
</g>
<!-- 1990978393808&#45;&gt;1990978399376 -->
<g id="edge2" class="edge">
<title>1990978393808&#45;&gt;1990978399376</title>
<path fill="none" stroke="black" d="M161.17,-99C168.9,-99 177.14,-99 184.98,-99"/>
<polygon fill="black" stroke="black" points="184.97,-102.5 194.97,-99 184.97,-95.5 184.97,-102.5"/>
</g>
<!-- 1990978395392 -->
<g id="node2" class="node">
<title>1990978395392</title>
<polygon fill="white" stroke="black" points="381.5,-117 286.75,-117 286.75,-81 381.5,-81 381.5,-117"/>
<text text-anchor="middle" x="334.12" y="-93.97" font-family="Times New Roman,serif" font-size="12.00">Design Planning</text>
</g>
<!-- 1990978395344 -->
<g id="node20" class="node">
<title>1990978395344</title>
<ellipse fill="white" stroke="black" cx="444.5" cy="-99" rx="27" ry="27"/>
</g>
<!-- 1990978395392&#45;&gt;1990978395344 -->
<g id="edge4" class="edge">
<title>1990978395392&#45;&gt;1990978395344</title>
<path fill="none" stroke="black" d="M381.71,-99C389.79,-99 398.1,-99 405.9,-99"/>
<polygon fill="black" stroke="black" points="405.73,-102.5 415.73,-99 405.73,-95.5 405.73,-102.5"/>
</g>
<!-- 1990978394624 -->
<g id="node3" class="node">
<title>1990978394624</title>
<polygon fill="white" stroke="black" points="585,-117 507.5,-117 507.5,-81 585,-81 585,-117"/>
<text text-anchor="middle" x="546.25" y="-93.97" font-family="Times New Roman,serif" font-size="12.00">Permit Filing</text>
</g>
<!-- 1990978398704 -->
<g id="node21" class="node">
<title>1990978398704</title>
<ellipse fill="white" stroke="black" cx="648" cy="-99" rx="27" ry="27"/>
</g>
<!-- 1990978394624&#45;&gt;1990978398704 -->
<g id="edge6" class="edge">
<title>1990978394624&#45;&gt;1990978398704</title>
<path fill="none" stroke="black" d="M585.25,-99C593.07,-99 601.31,-99 609.13,-99"/>
<polygon fill="black" stroke="black" points="609.05,-102.5 619.05,-99 609.05,-95.5 609.05,-102.5"/>
</g>
<!-- 1990978398800 -->
<g id="node4" class="node">
<title>1990978398800</title>
<polygon fill="white" stroke="black" points="822.25,-117 711,-117 711,-81 822.25,-81 822.25,-117"/>
<text text-anchor="middle" x="766.62" y="-93.97" font-family="Times New Roman,serif" font-size="12.00">Structural Reinforce</text>
</g>
<!-- 1990971626736 -->
<g id="node22" class="node">
<title>1990971626736</title>
<ellipse fill="white" stroke="black" cx="885.25" cy="-99" rx="27" ry="27"/>
</g>
<!-- 1990978398800&#45;&gt;1990971626736 -->
<g id="edge8" class="edge">
<title>1990978398800&#45;&gt;1990971626736</title>
<path fill="none" stroke="black" d="M822.52,-99C830.59,-99 838.74,-99 846.36,-99"/>
<polygon fill="black" stroke="black" points="846.29,-102.5 856.29,-99 846.29,-95.5 846.29,-102.5"/>
</g>
<!-- 1990971623520 -->
<g id="node5" class="node">
<title>1990971623520</title>
<polygon fill="white" stroke="black" points="1051.25,-117 948.25,-117 948.25,-81 1051.25,-81 1051.25,-117"/>
<text text-anchor="middle" x="999.75" y="-93.97" font-family="Times New Roman,serif" font-size="12.00">Hydroponic Setup</text>
</g>
<!-- 1990971625728 -->
<g id="node23" class="node">
<title>1990971625728</title>
<ellipse fill="white" stroke="black" cx="1114.25" cy="-135" rx="27" ry="27"/>
</g>
<!-- 1990971623520&#45;&gt;1990971625728 -->
<g id="edge10" class="edge">
<title>1990971623520&#45;&gt;1990971625728</title>
<path fill="none" stroke="black" d="M1051.73,-115.31C1060.45,-118.1 1069.33,-120.95 1077.54,-123.57"/>
<polygon fill="black" stroke="black" points="1076.2,-126.82 1086.79,-126.53 1078.33,-120.15 1076.2,-126.82"/>
</g>
<!-- 1990971630432 -->
<g id="node24" class="node">
<title>1990971630432</title>
<ellipse fill="white" stroke="black" cx="1114.25" cy="-63" rx="27" ry="27"/>
</g>
<!-- 1990971623520&#45;&gt;1990971630432 -->
<g id="edge11" class="edge">
<title>1990971623520&#45;&gt;1990971630432</title>
<path fill="none" stroke="black" d="M1051.73,-82.69C1060.45,-79.9 1069.33,-77.05 1077.54,-74.43"/>
<polygon fill="black" stroke="black" points="1078.33,-77.85 1086.79,-71.47 1076.2,-71.18 1078.33,-77.85"/>
</g>
<!-- 1990971633792 -->
<g id="node6" class="node">
<title>1990971633792</title>
<polygon fill="white" stroke="black" points="1257.38,-153 1177.62,-153 1177.62,-117 1257.38,-117 1257.38,-153"/>
<text text-anchor="middle" x="1217.5" y="-129.97" font-family="Times New Roman,serif" font-size="12.00">Sensor Install</text>
</g>
<!-- 1990981346240 -->
<g id="node25" class="node">
<title>1990981346240</title>
<ellipse fill="white" stroke="black" cx="1320.75" cy="-135" rx="27" ry="27"/>
</g>
<!-- 1990971633792&#45;&gt;1990981346240 -->
<g id="edge14" class="edge">
<title>1990971633792&#45;&gt;1990981346240</title>
<path fill="none" stroke="black" d="M1257.65,-135C1265.72,-135 1274.21,-135 1282.23,-135"/>
<polygon fill="black" stroke="black" points="1282.02,-138.5 1292.02,-135 1282.02,-131.5 1282.02,-138.5"/>
</g>
<!-- 1990971634464 -->
<g id="node7" class="node">
<title>1990971634464</title>
<polygon fill="white" stroke="black" points="1257.75,-81 1177.25,-81 1177.25,-45 1257.75,-45 1257.75,-81"/>
<text text-anchor="middle" x="1217.5" y="-57.98" font-family="Times New Roman,serif" font-size="12.00">Energy Audit</text>
</g>
<!-- 1990981340912 -->
<g id="node26" class="node">
<title>1990981340912</title>
<ellipse fill="white" stroke="black" cx="1320.75" cy="-63" rx="27" ry="27"/>
</g>
<!-- 1990971634464&#45;&gt;1990981340912 -->
<g id="edge15" class="edge">
<title>1990971634464&#45;&gt;1990981340912</title>
<path fill="none" stroke="black" d="M1258.23,-63C1266.1,-63 1274.34,-63 1282.14,-63"/>
<polygon fill="black" stroke="black" points="1282.02,-66.5 1292.02,-63 1282.02,-59.5 1282.02,-66.5"/>
</g>
<!-- 1990971631104 -->
<g id="node8" class="node">
<title>1990971631104</title>
<polygon fill="white" stroke="black" points="1470.25,-117 1383.75,-117 1383.75,-81 1470.25,-81 1470.25,-117"/>
<text text-anchor="middle" x="1427" y="-93.97" font-family="Times New Roman,serif" font-size="12.00">Crop Selection</text>
</g>
<!-- 1990971627168 -->
<g id="node27" class="node">
<title>1990971627168</title>
<ellipse fill="white" stroke="black" cx="1533.25" cy="-99" rx="27" ry="27"/>
</g>
<!-- 1990971631104&#45;&gt;1990971627168 -->
<g id="edge18" class="edge">
<title>1990971631104&#45;&gt;1990971627168</title>
<path fill="none" stroke="black" d="M1470.7,-99C1478.62,-99 1486.84,-99 1494.59,-99"/>
<polygon fill="black" stroke="black" points="1494.39,-102.5 1504.39,-99 1494.39,-95.5 1494.39,-102.5"/>
</g>
<!-- 1990971621936 -->
<g id="node9" class="node">
<title>1990971621936</title>
<polygon fill="white" stroke="black" points="1673.75,-117 1596.25,-117 1596.25,-81 1673.75,-81 1673.75,-117"/>
<text text-anchor="middle" x="1635" y="-93.97" font-family="Times New Roman,serif" font-size="12.00">Nutrient Mix</text>
</g>
<!-- 1990976831760 -->
<g id="node28" class="node">
<title>1990976831760</title>
<ellipse fill="white" stroke="black" cx="1736.75" cy="-99" rx="27" ry="27"/>
</g>
<!-- 1990971621936&#45;&gt;1990976831760 -->
<g id="edge20" class="edge">
<title>1990971621936&#45;&gt;1990976831760</title>
<path fill="none" stroke="black" d="M1674,-99C1681.82,-99 1690.06,-99 1697.88,-99"/>
<polygon fill="black" stroke="black" points="1697.8,-102.5 1707.8,-99 1697.8,-95.5 1697.8,-102.5"/>
</g>
<!-- 1990976833200 -->
<g id="node10" class="node">
<title>1990976833200</title>
<polygon fill="white" stroke="black" points="1884,-117 1799.75,-117 1799.75,-81 1884,-81 1884,-117"/>
<text text-anchor="middle" x="1841.88" y="-93.97" font-family="Times New Roman,serif" font-size="12.00">Waste Process</text>
</g>
<!-- 1990976833536 -->
<g id="node29" class="node">
<title>1990976833536</title>
<ellipse fill="white" stroke="black" cx="1947" cy="-171" rx="27" ry="27"/>
</g>
<!-- 1990976833200&#45;&gt;1990976833536 -->
<g id="edge23" class="edge">
<title>1990976833200&#45;&gt;1990976833536</title>
<path fill="none" stroke="black" d="M1869.16,-117.35C1883.16,-127.13 1900.47,-139.21 1915.11,-149.43"/>
<polygon fill="black" stroke="black" points="1912.84,-152.11 1923.04,-154.97 1916.84,-146.37 1912.84,-152.11"/>
</g>
<!-- 1990976846112 -->
<g id="node30" class="node">
<title>1990976846112</title>
<ellipse fill="white" stroke="black" cx="1947" cy="-99" rx="27" ry="27"/>
</g>
<!-- 1990976833200&#45;&gt;1990976846112 -->
<g id="edge24" class="edge">
<title>1990976833200&#45;&gt;1990976846112</title>
<path fill="none" stroke="black" d="M1884.23,-99C1892.19,-99 1900.49,-99 1908.33,-99"/>
<polygon fill="black" stroke="black" points="1908.25,-102.5 1918.25,-99 1908.25,-95.5 1908.25,-102.5"/>
</g>
<!-- 1990976838336 -->
<g id="node31" class="node">
<title>1990976838336</title>
<ellipse fill="white" stroke="black" cx="1947" cy="-27" rx="27" ry="27"/>
</g>
<!-- 1990976833200&#45;&gt;1990976838336 -->
<g id="edge22" class="edge">
<title>1990976833200&#45;&gt;1990976838336</title>
<path fill="none" stroke="black" d="M1869.16,-80.65C1883.16,-70.87 1900.47,-58.79 1915.11,-48.57"/>
<polygon fill="black" stroke="black" points="1916.84,-51.63 1923.04,-43.03 1912.84,-45.89 1916.84,-51.63"/>
</g>
<!-- 1990976840880 -->
<g id="node11" class="node">
<title>1990976840880</title>
<polygon fill="white" stroke="black" points="2109.25,-189 2010,-189 2010,-153 2109.25,-153 2109.25,-189"/>
<text text-anchor="middle" x="2059.62" y="-165.97" font-family="Times New Roman,serif" font-size="12.00">Community Meet</text>
</g>
<!-- 1990981339136 -->
<g id="node32" class="node">
<title>1990981339136</title>
<ellipse fill="white" stroke="black" cx="2172.25" cy="-171" rx="27" ry="27"/>
</g>
<!-- 1990976840880&#45;&gt;1990981339136 -->
<g id="edge30" class="edge">
<title>1990976840880&#45;&gt;1990981339136</title>
<path fill="none" stroke="black" d="M2109.47,-171C2117.54,-171 2125.8,-171 2133.54,-171"/>
<polygon fill="black" stroke="black" points="2133.3,-174.5 2143.3,-171 2133.3,-167.5 2133.3,-174.5"/>
</g>
<!-- 1990976841408 -->
<g id="node12" class="node">
<title>1990976841408</title>
<polygon fill="white" stroke="black" points="2099.88,-45 2019.38,-45 2019.38,-9 2099.88,-9 2099.88,-45"/>
<text text-anchor="middle" x="2059.62" y="-21.98" font-family="Times New Roman,serif" font-size="12.00">Market Study</text>
</g>
<!-- 1990981351904 -->
<g id="node34" class="node">
<title>1990981351904</title>
<ellipse fill="white" stroke="black" cx="2172.25" cy="-27" rx="27" ry="27"/>
</g>
<!-- 1990976841408&#45;&gt;1990981351904 -->
<g id="edge29" class="edge">
<title>1990976841408&#45;&gt;1990981351904</title>
<path fill="none" stroke="black" d="M2100.25,-27C2111.18,-27 2123,-27 2133.8,-27"/>
<polygon fill="black" stroke="black" points="2133.51,-30.5 2143.51,-27 2133.51,-23.5 2133.51,-30.5"/>
</g>
<!-- 1990976847312 -->
<g id="node13" class="node">
<title>1990976847312</title>
<polygon fill="white" stroke="black" points="2100.62,-117 2018.62,-117 2018.62,-81 2100.62,-81 2100.62,-117"/>
<text text-anchor="middle" x="2059.62" y="-93.97" font-family="Times New Roman,serif" font-size="12.00">Staff Training</text>
</g>
<!-- 1990981352912 -->
<g id="node33" class="node">
<title>1990981352912</title>
<ellipse fill="white" stroke="black" cx="2172.25" cy="-99" rx="27" ry="27"/>
</g>
<!-- 1990976847312&#45;&gt;1990981352912 -->
<g id="edge28" class="edge">
<title>1990976847312&#45;&gt;1990981352912</title>
<path fill="none" stroke="black" d="M2100.88,-99C2111.56,-99 2123.05,-99 2133.59,-99"/>
<polygon fill="black" stroke="black" points="2133.48,-102.5 2143.48,-99 2133.48,-95.5 2133.48,-102.5"/>
</g>
<!-- 1990976833584 -->
<g id="node14" class="node">
<title>1990976833584</title>
<polygon fill="white" stroke="black" points="2312.75,-117 2235.25,-117 2235.25,-81 2312.75,-81 2312.75,-117"/>
<text text-anchor="middle" x="2274" y="-93.97" font-family="Times New Roman,serif" font-size="12.00">Launch Trial</text>
</g>
<!-- 1990976831856 -->
<g id="node35" class="node">
<title>1990976831856</title>
<ellipse fill="white" stroke="black" cx="2375.75" cy="-99" rx="27" ry="27"/>
</g>
<!-- 1990976833584&#45;&gt;1990976831856 -->
<g id="edge34" class="edge">
<title>1990976833584&#45;&gt;1990976831856</title>
<path fill="none" stroke="black" d="M2313,-99C2320.82,-99 2329.06,-99 2336.88,-99"/>
<polygon fill="black" stroke="black" points="2336.8,-102.5 2346.8,-99 2336.8,-95.5 2336.8,-102.5"/>
</g>
<!-- 1990976842608 -->
<g id="node15" class="node">
<title>1990976842608</title>
<polygon fill="white" stroke="black" points="2518.5,-90 2438.75,-90 2438.75,-54 2518.5,-54 2518.5,-90"/>
<text text-anchor="middle" x="2478.62" y="-66.97" font-family="Times New Roman,serif" font-size="12.00">Data Monitor</text>
</g>
<!-- 1990976842224 -->
<g id="node36" class="node">
<title>1990976842224</title>
<ellipse fill="white" stroke="black" cx="2581.5" cy="-71" rx="27" ry="27"/>
</g>
<!-- 1990976842608&#45;&gt;1990976842224 -->
<g id="edge36" class="edge">
<title>1990976842608&#45;&gt;1990976842224</title>
<path fill="none" stroke="black" d="M2518.91,-71.61C2526.78,-71.53 2535.02,-71.45 2542.82,-71.37"/>
<polygon fill="black" stroke="black" points="2542.75,-74.87 2552.72,-71.28 2542.68,-67.87 2542.75,-74.87"/>
</g>
<!-- 1990976832672 -->
<g id="node16" class="node">
<title>1990976832672</title>
<polygon fill="black" stroke="black" points="2717.38,-89 2663.38,-89 2663.38,-53 2717.38,-53 2717.38,-89"/>
</g>
<!-- 1990978398944 -->
<g id="node37" class="node">
<title>1990978398944</title>
<ellipse fill="white" stroke="black" cx="2803.25" cy="-71" rx="27" ry="27"/>
<ellipse fill="none" stroke="black" cx="2803.25" cy="-71" rx="31" ry="31"/>
<text text-anchor="start" x="2786.75" y="-55.6" font-family="Times New Roman,serif" font-size="32.00">■</text>
</g>
<!-- 1990976832672&#45;&gt;1990978398944 -->
<g id="edge40" class="edge">
<title>1990976832672&#45;&gt;1990978398944</title>
<path fill="none" stroke="black" d="M2717.65,-71C2730.49,-71 2746.24,-71 2760.65,-71"/>
<polygon fill="black" stroke="black" points="2760.33,-74.5 2770.33,-71 2760.33,-67.5 2760.33,-74.5"/>
</g>
<!-- 1990976837040 -->
<g id="node17" class="node">
<title>1990976837040</title>
<polygon fill="white" stroke="black" points="2736.25,-143 2644.5,-143 2644.5,-107 2736.25,-107 2736.25,-143"/>
<text text-anchor="middle" x="2690.38" y="-119.97" font-family="Times New Roman,serif" font-size="12.00">Climate Control</text>
</g>
<!-- 1990976837040&#45;&gt;1990976831856 -->
<g id="edge39" class="edge">
<title>1990976837040&#45;&gt;1990976831856</title>
<path fill="none" stroke="black" d="M2644.06,-121.23C2582.05,-116.07 2471.9,-106.91 2414.27,-102.12"/>
<polygon fill="black" stroke="black" points="2414.9,-98.66 2404.64,-101.32 2414.32,-105.64 2414.9,-98.66"/>
</g>
<!-- 1990978398512 -->
<g id="node18" class="node">
<title>1990978398512</title>
<ellipse fill="white" stroke="black" cx="27" cy="-99" rx="27" ry="27"/>
<text text-anchor="start" x="9.75" y="-81.7" font-family="Times New Roman,serif" font-size="34.00">●</text>
</g>
<!-- 1990978398512&#45;&gt;1990978393808 -->
<g id="edge1" class="edge">
<title>1990978398512&#45;&gt;1990978393808</title>
<path fill="none" stroke="black" d="M54.33,-99C61.76,-99 70.06,-99 78.28,-99"/>
<polygon fill="black" stroke="black" points="78.24,-102.5 88.24,-99 78.24,-95.5 78.24,-102.5"/>
</g>
<!-- 1990978399376&#45;&gt;1990978395392 -->
<g id="edge3" class="edge">
<title>1990978399376&#45;&gt;1990978395392</title>
<path fill="none" stroke="black" d="M250.98,-99C258.31,-99 266.57,-99 274.95,-99"/>
<polygon fill="black" stroke="black" points="274.88,-102.5 284.88,-99 274.88,-95.5 274.88,-102.5"/>
</g>
<!-- 1990978395344&#45;&gt;1990978394624 -->
<g id="edge5" class="edge">
<title>1990978395344&#45;&gt;1990978394624</title>
<path fill="none" stroke="black" d="M471.97,-99C479.27,-99 487.43,-99 495.58,-99"/>
<polygon fill="black" stroke="black" points="495.5,-102.5 505.5,-99 495.5,-95.5 495.5,-102.5"/>
</g>
<!-- 1990978398704&#45;&gt;1990978398800 -->
<g id="edge7" class="edge">
<title>1990978398704&#45;&gt;1990978398800</title>
<path fill="none" stroke="black" d="M675.46,-99C682.67,-99 690.82,-99 699.19,-99"/>
<polygon fill="black" stroke="black" points="699.17,-102.5 709.17,-99 699.17,-95.5 699.17,-102.5"/>
</g>
<!-- 1990971626736&#45;&gt;1990971623520 -->
<g id="edge9" class="edge">
<title>1990971626736&#45;&gt;1990971623520</title>
<path fill="none" stroke="black" d="M912.63,-99C919.86,-99 928.02,-99 936.36,-99"/>
<polygon fill="black" stroke="black" points="936.27,-102.5 946.27,-99 936.27,-95.5 936.27,-102.5"/>
</g>
<!-- 1990971625728&#45;&gt;1990971633792 -->
<g id="edge12" class="edge">
<title>1990971625728&#45;&gt;1990971633792</title>
<path fill="none" stroke="black" d="M1141.59,-135C1149.08,-135 1157.5,-135 1165.92,-135"/>
<polygon fill="black" stroke="black" points="1165.81,-138.5 1175.81,-135 1165.81,-131.5 1165.81,-138.5"/>
</g>
<!-- 1990971630432&#45;&gt;1990971634464 -->
<g id="edge13" class="edge">
<title>1990971630432&#45;&gt;1990971634464</title>
<path fill="none" stroke="black" d="M1141.59,-63C1149,-63 1157.32,-63 1165.65,-63"/>
<polygon fill="black" stroke="black" points="1165.42,-66.5 1175.42,-63 1165.42,-59.5 1165.42,-66.5"/>
</g>
<!-- 1990981346240&#45;&gt;1990971631104 -->
<g id="edge16" class="edge">
<title>1990981346240&#45;&gt;1990971631104</title>
<path fill="none" stroke="black" d="M1346.72,-126.38C1354.6,-123.66 1363.63,-120.54 1372.7,-117.4"/>
<polygon fill="black" stroke="black" points="1373.57,-120.81 1381.88,-114.23 1371.29,-114.19 1373.57,-120.81"/>
</g>
<!-- 1990981340912&#45;&gt;1990971631104 -->
<g id="edge17" class="edge">
<title>1990981340912&#45;&gt;1990971631104</title>
<path fill="none" stroke="black" d="M1346.72,-71.62C1354.6,-74.34 1363.63,-77.46 1372.7,-80.6"/>
<polygon fill="black" stroke="black" points="1371.29,-83.81 1381.88,-83.77 1373.57,-77.19 1371.29,-83.81"/>
</g>
<!-- 1990971627168&#45;&gt;1990971621936 -->
<g id="edge19" class="edge">
<title>1990971627168&#45;&gt;1990971621936</title>
<path fill="none" stroke="black" d="M1560.72,-99C1568.02,-99 1576.18,-99 1584.33,-99"/>
<polygon fill="black" stroke="black" points="1584.25,-102.5 1594.25,-99 1584.25,-95.5 1584.25,-102.5"/>
</g>
<!-- 1990976831760&#45;&gt;1990976833200 -->
<g id="edge21" class="edge">
<title>1990976831760&#45;&gt;1990976833200</title>
<path fill="none" stroke="black" d="M1764.04,-99C1771.42,-99 1779.73,-99 1788.07,-99"/>
<polygon fill="black" stroke="black" points="1787.89,-102.5 1797.89,-99 1787.89,-95.5 1787.89,-102.5"/>
</g>
<!-- 1990976833536&#45;&gt;1990976840880 -->
<g id="edge27" class="edge">
<title>1990976833536&#45;&gt;1990976840880</title>
<path fill="none" stroke="black" d="M1974.5,-171C1981.79,-171 1990.02,-171 1998.39,-171"/>
<polygon fill="black" stroke="black" points="1998.32,-174.5 2008.32,-171 1998.32,-167.5 1998.32,-174.5"/>
</g>
<!-- 1990976846112&#45;&gt;1990976847312 -->
<g id="edge25" class="edge">
<title>1990976846112&#45;&gt;1990976847312</title>
<path fill="none" stroke="black" d="M1974.5,-99C1984.37,-99 1995.95,-99 2007.3,-99"/>
<polygon fill="black" stroke="black" points="2006.99,-102.5 2016.99,-99 2006.99,-95.5 2006.99,-102.5"/>
</g>
<!-- 1990976838336&#45;&gt;1990976841408 -->
<g id="edge26" class="edge">
<title>1990976838336&#45;&gt;1990976841408</title>
<path fill="none" stroke="black" d="M1974.5,-27C1984.47,-27 1996.17,-27 2007.63,-27"/>
<polygon fill="black" stroke="black" points="2007.42,-30.5 2017.42,-27 2007.42,-23.5 2007.42,-30.5"/>
</g>
<!-- 1990981339136&#45;&gt;1990976833584 -->
<g id="edge32" class="edge">
<title>1990981339136&#45;&gt;1990976833584</title>
<path fill="none" stroke="black" d="M2194.4,-155.73C2207.16,-146.52 2223.73,-134.56 2238.36,-124"/>
<polygon fill="black" stroke="black" points="2240.35,-126.88 2246.41,-118.19 2236.25,-121.21 2240.35,-126.88"/>
</g>
<!-- 1990981352912&#45;&gt;1990976833584 -->
<g id="edge31" class="edge">
<title>1990981352912&#45;&gt;1990976833584</title>
<path fill="none" stroke="black" d="M2199.72,-99C2207.02,-99 2215.18,-99 2223.33,-99"/>
<polygon fill="black" stroke="black" points="2223.25,-102.5 2233.25,-99 2223.25,-95.5 2223.25,-102.5"/>
</g>
<!-- 1990981351904&#45;&gt;1990976833584 -->
<g id="edge33" class="edge">
<title>1990981351904&#45;&gt;1990976833584</title>
<path fill="none" stroke="black" d="M2194.4,-42.27C2207.16,-51.48 2223.73,-63.44 2238.36,-74"/>
<polygon fill="black" stroke="black" points="2236.25,-76.79 2246.41,-79.81 2240.35,-71.12 2236.25,-76.79"/>
</g>
<!-- 1990976831856&#45;&gt;1990976842608 -->
<g id="edge35" class="edge">
<title>1990976831856&#45;&gt;1990976842608</title>
<path fill="none" stroke="black" d="M2402.21,-92.19C2409.92,-90.12 2418.68,-87.78 2427.43,-85.44"/>
<polygon fill="black" stroke="black" points="2428.21,-88.85 2436.96,-82.88 2426.4,-82.09 2428.21,-88.85"/>
</g>
<!-- 1990976842224&#45;&gt;1990976832672 -->
<g id="edge38" class="edge">
<title>1990976842224&#45;&gt;1990976832672</title>
<path fill="none" stroke="black" d="M2608.92,-71C2621.76,-71 2637.44,-71 2651.53,-71"/>
<polygon fill="black" stroke="black" points="2651.38,-74.5 2661.38,-71 2651.38,-67.5 2651.38,-74.5"/>
</g>
<!-- 1990976842224&#45;&gt;1990976837040 -->
<g id="edge37" class="edge">
<title>1990976842224&#45;&gt;1990976837040</title>
<path fill="none" stroke="black" d="M2606.22,-82.98C2617.09,-88.48 2630.36,-95.18 2643.09,-101.61"/>
<polygon fill="black" stroke="black" points="2641.26,-104.61 2651.77,-106 2644.42,-98.36 2641.26,-104.61"/>
</g>
</g>
</svg>
