<?xml version="1.0" encoding="UTF-8" standalone="no"?>
<!DOCTYPE svg PUBLIC "-//W3C//DTD SVG 1.1//EN"
 "http://www.w3.org/Graphics/SVG/1.1/DTD/svg11.dtd">
<!-- Generated by graphviz version 11.0.0 (20240428.1522)
 -->
<!-- Title: imdf_net_1754052690.339982 Pages: 1 -->
<svg width="3879pt" height="190pt"
 viewBox="0.00 0.00 3879.25 190.00" xmlns="http://www.w3.org/2000/svg" xmlns:xlink="http://www.w3.org/1999/xlink">
<g id="graph0" class="graph" transform="scale(1 1) rotate(0) translate(4 186)">
<title>imdf_net_1754052690.339982</title>
<polygon fill="white" stroke="none" points="-4,4 -4,-186 3875.25,-186 3875.25,4 -4,4"/>
<!-- 1990976843520 -->
<g id="node1" class="node">
<title>1990976843520</title>
<polygon fill="black" stroke="black" points="144,-170 90,-170 90,-134 144,-134 144,-170"/>
</g>
<!-- 1990978476928 -->
<g id="node23" class="node">
<title>1990978476928</title>
<ellipse fill="white" stroke="black" cx="207" cy="-152" rx="27" ry="27"/>
</g>
<!-- 1990976843520&#45;&gt;1990978476928 -->
<g id="edge2" class="edge">
<title>1990976843520&#45;&gt;1990978476928</title>
<path fill="none" stroke="black" d="M144.4,-152C151.89,-152 160.18,-152 168.2,-152"/>
<polygon fill="black" stroke="black" points="168.1,-155.5 178.1,-152 168.1,-148.5 168.1,-155.5"/>
</g>
<!-- 1990981518592 -->
<g id="node2" class="node">
<title>1990981518592</title>
<polygon fill="black" stroke="black" points="324,-143 270,-143 270,-107 324,-107 324,-143"/>
</g>
<!-- 1990979286272 -->
<g id="node24" class="node">
<title>1990979286272</title>
<ellipse fill="white" stroke="black" cx="387" cy="-125" rx="27" ry="27"/>
</g>
<!-- 1990981518592&#45;&gt;1990979286272 -->
<g id="edge5" class="edge">
<title>1990981518592&#45;&gt;1990979286272</title>
<path fill="none" stroke="black" d="M324.4,-125C331.89,-125 340.18,-125 348.2,-125"/>
<polygon fill="black" stroke="black" points="348.1,-128.5 358.1,-125 348.1,-121.5 348.1,-128.5"/>
</g>
<!-- 1990979057280 -->
<g id="node25" class="node">
<title>1990979057280</title>
<ellipse fill="white" stroke="black" cx="387" cy="-51" rx="27" ry="27"/>
</g>
<!-- 1990981518592&#45;&gt;1990979057280 -->
<g id="edge4" class="edge">
<title>1990981518592&#45;&gt;1990979057280</title>
<path fill="none" stroke="black" d="M319.75,-106.71C331.06,-97.2 345.02,-85.46 357.21,-75.21"/>
<polygon fill="black" stroke="black" points="359.14,-78.16 364.55,-69.04 354.64,-72.8 359.14,-78.16"/>
</g>
<!-- 1990979285552 -->
<g id="node3" class="node">
<title>1990979285552</title>
<polygon fill="white" stroke="black" points="541.38,-143 451.12,-143 451.12,-107 541.38,-107 541.38,-143"/>
<text text-anchor="middle" x="496.25" y="-119.97" font-family="Times New Roman,serif" font-size="12.00">Milk Collection</text>
</g>
<!-- 1990979287760 -->
<g id="node27" class="node">
<title>1990979287760</title>
<ellipse fill="white" stroke="black" cx="605.5" cy="-125" rx="27" ry="27"/>
</g>
<!-- 1990979285552&#45;&gt;1990979287760 -->
<g id="edge9" class="edge">
<title>1990979285552&#45;&gt;1990979287760</title>
<path fill="none" stroke="black" d="M541.8,-125C550.08,-125 558.65,-125 566.7,-125"/>
<polygon fill="black" stroke="black" points="566.51,-128.5 576.51,-125 566.51,-121.5 566.51,-128.5"/>
</g>
<!-- 1990979056176 -->
<g id="node4" class="node">
<title>1990979056176</title>
<polygon fill="white" stroke="black" points="542.5,-55 450,-55 450,-19 542.5,-19 542.5,-55"/>
<text text-anchor="middle" x="496.25" y="-31.98" font-family="Times New Roman,serif" font-size="12.00">Blockchain Log</text>
</g>
<!-- 1990979058048 -->
<g id="node26" class="node">
<title>1990979058048</title>
<ellipse fill="white" stroke="black" cx="713.25" cy="-27" rx="27" ry="27"/>
</g>
<!-- 1990979056176&#45;&gt;1990979058048 -->
<g id="edge8" class="edge">
<title>1990979056176&#45;&gt;1990979058048</title>
<path fill="none" stroke="black" d="M542.85,-34.88C582.11,-33.05 638.08,-30.45 674.78,-28.74"/>
<polygon fill="black" stroke="black" points="674.64,-32.25 684.46,-28.29 674.31,-25.26 674.64,-32.25"/>
</g>
<!-- 1990981523680 -->
<g id="node5" class="node">
<title>1990981523680</title>
<polygon fill="black" stroke="black" points="3545.75,-100 3491.75,-100 3491.75,-64 3545.75,-64 3545.75,-100"/>
</g>
<!-- 1992862834592 -->
<g id="node28" class="node">
<title>1992862834592</title>
<ellipse fill="white" stroke="black" cx="3608.75" cy="-105" rx="27" ry="27"/>
</g>
<!-- 1990981523680&#45;&gt;1992862834592 -->
<g id="edge13" class="edge">
<title>1990981523680&#45;&gt;1992862834592</title>
<path fill="none" stroke="black" d="M3546.15,-88.9C3554.02,-90.96 3562.78,-93.25 3571.18,-95.44"/>
<polygon fill="black" stroke="black" points="3570.25,-98.82 3580.81,-97.96 3572.02,-92.04 3570.25,-98.82"/>
</g>
<!-- 1990977553136 -->
<g id="node6" class="node">
<title>1990977553136</title>
<polygon fill="white" stroke="black" points="758,-108 668.5,-108 668.5,-72 758,-72 758,-108"/>
<text text-anchor="middle" x="713.25" y="-84.97" font-family="Times New Roman,serif" font-size="12.00">Quality Testing</text>
</g>
<!-- 1990971036768 -->
<g id="node29" class="node">
<title>1990971036768</title>
<ellipse fill="white" stroke="black" cx="821" cy="-89" rx="27" ry="27"/>
</g>
<!-- 1990977553136&#45;&gt;1990971036768 -->
<g id="edge12" class="edge">
<title>1990977553136&#45;&gt;1990971036768</title>
<path fill="none" stroke="black" d="M758.48,-89.58C766.45,-89.51 774.69,-89.43 782.45,-89.36"/>
<polygon fill="black" stroke="black" points="782.27,-92.86 792.24,-89.26 782.2,-85.86 782.27,-92.86"/>
</g>
<!-- 1990982198352 -->
<g id="node7" class="node">
<title>1990982198352</title>
<polygon fill="white" stroke="black" points="978,-100 893,-100 893,-64 978,-64 978,-100"/>
<text text-anchor="middle" x="935.5" y="-76.97" font-family="Times New Roman,serif" font-size="12.00">Milk Blending</text>
</g>
<!-- 1990971767888 -->
<g id="node30" class="node">
<title>1990971767888</title>
<ellipse fill="white" stroke="black" cx="1050" cy="-82" rx="27" ry="27"/>
</g>
<!-- 1990982198352&#45;&gt;1990971767888 -->
<g id="edge20" class="edge">
<title>1990982198352&#45;&gt;1990971767888</title>
<path fill="none" stroke="black" d="M978.39,-82C989.19,-82 1000.75,-82 1011.33,-82"/>
<polygon fill="black" stroke="black" points="1011.24,-85.5 1021.24,-82 1011.24,-78.5 1011.24,-85.5"/>
</g>
<!-- 1990977559136 -->
<g id="node8" class="node">
<title>1990977559136</title>
<polygon fill="white" stroke="black" points="987,-154 884,-154 884,-118 987,-118 987,-154"/>
<text text-anchor="middle" x="935.5" y="-130.97" font-family="Times New Roman,serif" font-size="12.00">Compliance Audit</text>
</g>
<!-- 1990977559136&#45;&gt;1990979287760 -->
<g id="edge19" class="edge">
<title>1990977559136&#45;&gt;1990979287760</title>
<path fill="none" stroke="black" d="M883.51,-134.29C817.25,-132.07 703.09,-128.24 644.15,-126.26"/>
<polygon fill="black" stroke="black" points="644.41,-122.77 634.3,-125.93 644.18,-129.77 644.41,-122.77"/>
</g>
<!-- 1990979046624 -->
<g id="node9" class="node">
<title>1990979046624</title>
<polygon fill="black" stroke="black" points="3749.5,-123 3695.5,-123 3695.5,-87 3749.5,-87 3749.5,-123"/>
</g>
<!-- 1990980633232 -->
<g id="node31" class="node">
<title>1990980633232</title>
<ellipse fill="white" stroke="black" cx="3840.25" cy="-105" rx="27" ry="27"/>
<ellipse fill="none" stroke="black" cx="3840.25" cy="-105" rx="31" ry="31"/>
<text text-anchor="start" x="3823.75" y="-89.6" font-family="Times New Roman,serif" font-size="32.00">■</text>
</g>
<!-- 1990979046624&#45;&gt;1990980633232 -->
<g id="edge21" class="edge">
<title>1990979046624&#45;&gt;1990980633232</title>
<path fill="none" stroke="black" d="M3749.77,-105C3763.94,-105 3781.75,-105 3797.75,-105"/>
<polygon fill="black" stroke="black" points="3797.49,-108.5 3807.49,-105 3797.49,-101.5 3797.49,-108.5"/>
</g>
<!-- 1990979054448 -->
<g id="node10" class="node">
<title>1990979054448</title>
<polygon fill="white" stroke="black" points="3773.25,-177 3671.75,-177 3671.75,-141 3773.25,-141 3773.25,-177"/>
<text text-anchor="middle" x="3722.5" y="-153.97" font-family="Times New Roman,serif" font-size="12.00">Feedback Review</text>
</g>
<!-- 1990979054448&#45;&gt;1990978476928 -->
<g id="edge18" class="edge">
<title>1990979054448&#45;&gt;1990978476928</title>
<path fill="none" stroke="black" d="M3671.52,-167.89C3630.8,-174.36 3571.75,-182 3519.75,-182 386,-182 386,-182 386,-182 336.37,-182 280.03,-170.52 244.27,-161.76"/>
<polygon fill="black" stroke="black" points="245.44,-158.45 234.89,-159.4 243.73,-165.24 245.44,-158.45"/>
</g>
<!-- 1990971760544 -->
<g id="node11" class="node">
<title>1990971760544</title>
<polygon fill="white" stroke="black" points="1198,-100 1113,-100 1113,-64 1198,-64 1198,-100"/>
<text text-anchor="middle" x="1155.5" y="-76.97" font-family="Times New Roman,serif" font-size="12.00">Starter Culture</text>
</g>
<!-- 1990981338272 -->
<g id="node32" class="node">
<title>1990981338272</title>
<ellipse fill="white" stroke="black" cx="1261" cy="-82" rx="27" ry="27"/>
</g>
<!-- 1990971760544&#45;&gt;1990981338272 -->
<g id="edge23" class="edge">
<title>1990971760544&#45;&gt;1990981338272</title>
<path fill="none" stroke="black" d="M1198.3,-82C1206.2,-82 1214.42,-82 1222.18,-82"/>
<polygon fill="black" stroke="black" points="1222.01,-85.5 1232.01,-82 1222.01,-78.5 1222.01,-85.5"/>
</g>
<!-- 1990981352672 -->
<g id="node12" class="node">
<title>1990981352672</title>
<polygon fill="white" stroke="black" points="1436,-100 1324,-100 1324,-64 1436,-64 1436,-100"/>
<text text-anchor="middle" x="1380" y="-76.97" font-family="Times New Roman,serif" font-size="12.00">Fermentation Check</text>
</g>
<!-- 1990981349168 -->
<g id="node33" class="node">
<title>1990981349168</title>
<ellipse fill="white" stroke="black" cx="1499" cy="-82" rx="27" ry="27"/>
</g>
<!-- 1990981352672&#45;&gt;1990981349168 -->
<g id="edge25" class="edge">
<title>1990981352672&#45;&gt;1990981349168</title>
<path fill="none" stroke="black" d="M1436.42,-82C1444.48,-82 1452.62,-82 1460.22,-82"/>
<polygon fill="black" stroke="black" points="1460.13,-85.5 1470.13,-82 1460.13,-78.5 1460.13,-85.5"/>
</g>
<!-- 1990981349456 -->
<g id="node13" class="node">
<title>1990981349456</title>
<polygon fill="white" stroke="black" points="1640.25,-100 1562,-100 1562,-64 1640.25,-64 1640.25,-100"/>
<text text-anchor="middle" x="1601.12" y="-76.97" font-family="Times New Roman,serif" font-size="12.00">Curd Cutting</text>
</g>
<!-- 1990981348112 -->
<g id="node34" class="node">
<title>1990981348112</title>
<ellipse fill="white" stroke="black" cx="1703.25" cy="-82" rx="27" ry="27"/>
</g>
<!-- 1990981349456&#45;&gt;1990981348112 -->
<g id="edge27" class="edge">
<title>1990981349456&#45;&gt;1990981348112</title>
<path fill="none" stroke="black" d="M1640.55,-82C1648.39,-82 1656.63,-82 1664.44,-82"/>
<polygon fill="black" stroke="black" points="1664.36,-85.5 1674.36,-82 1664.36,-78.5 1664.36,-85.5"/>
</g>
<!-- 1990981342496 -->
<g id="node14" class="node">
<title>1990981342496</title>
<polygon fill="white" stroke="black" points="1864,-100 1766.25,-100 1766.25,-64 1864,-64 1864,-100"/>
<text text-anchor="middle" x="1815.12" y="-76.97" font-family="Times New Roman,serif" font-size="12.00">Whey Separation</text>
</g>
<!-- 1990982428592 -->
<g id="node35" class="node">
<title>1990982428592</title>
<ellipse fill="white" stroke="black" cx="1927" cy="-82" rx="27" ry="27"/>
</g>
<!-- 1990981342496&#45;&gt;1990982428592 -->
<g id="edge29" class="edge">
<title>1990981342496&#45;&gt;1990982428592</title>
<path fill="none" stroke="black" d="M1864.32,-82C1872.36,-82 1880.6,-82 1888.32,-82"/>
<polygon fill="black" stroke="black" points="1888.06,-85.5 1898.06,-82 1888.06,-78.5 1888.06,-85.5"/>
</g>
<!-- 1990982430992 -->
<g id="node15" class="node">
<title>1990982430992</title>
<polygon fill="white" stroke="black" points="2074.25,-100 1990,-100 1990,-64 2074.25,-64 2074.25,-100"/>
<text text-anchor="middle" x="2032.12" y="-76.97" font-family="Times New Roman,serif" font-size="12.00">Molding Press</text>
</g>
<!-- 1990982434016 -->
<g id="node36" class="node">
<title>1990982434016</title>
<ellipse fill="white" stroke="black" cx="2137.25" cy="-82" rx="27" ry="27"/>
</g>
<!-- 1990982430992&#45;&gt;1990982434016 -->
<g id="edge31" class="edge">
<title>1990982430992&#45;&gt;1990982434016</title>
<path fill="none" stroke="black" d="M2074.48,-82C2082.44,-82 2090.74,-82 2098.58,-82"/>
<polygon fill="black" stroke="black" points="2098.5,-85.5 2108.5,-82 2098.5,-78.5 2098.5,-85.5"/>
</g>
<!-- 1990982428976 -->
<g id="node16" class="node">
<title>1990982428976</title>
<polygon fill="white" stroke="black" points="2278.5,-100 2200.25,-100 2200.25,-64 2278.5,-64 2278.5,-100"/>
<text text-anchor="middle" x="2239.38" y="-76.97" font-family="Times New Roman,serif" font-size="12.00">Salting Stage</text>
</g>
<!-- 1990982433968 -->
<g id="node37" class="node">
<title>1990982433968</title>
<ellipse fill="white" stroke="black" cx="2341.5" cy="-82" rx="27" ry="27"/>
</g>
<!-- 1990982428976&#45;&gt;1990982433968 -->
<g id="edge33" class="edge">
<title>1990982428976&#45;&gt;1990982433968</title>
<path fill="none" stroke="black" d="M2278.8,-82C2286.64,-82 2294.88,-82 2302.69,-82"/>
<polygon fill="black" stroke="black" points="2302.61,-85.5 2312.61,-82 2302.61,-78.5 2302.61,-85.5"/>
</g>
<!-- 1990982427008 -->
<g id="node17" class="node">
<title>1990982427008</title>
<polygon fill="white" stroke="black" points="2489.5,-100 2404.5,-100 2404.5,-64 2489.5,-64 2489.5,-100"/>
<text text-anchor="middle" x="2447" y="-76.97" font-family="Times New Roman,serif" font-size="12.00">Aging Control</text>
</g>
<!-- 1990982427488 -->
<g id="node38" class="node">
<title>1990982427488</title>
<ellipse fill="white" stroke="black" cx="2552.5" cy="-82" rx="27" ry="27"/>
</g>
<!-- 1990982427008&#45;&gt;1990982427488 -->
<g id="edge35" class="edge">
<title>1990982427008&#45;&gt;1990982427488</title>
<path fill="none" stroke="black" d="M2489.8,-82C2497.7,-82 2505.92,-82 2513.68,-82"/>
<polygon fill="black" stroke="black" points="2513.51,-85.5 2523.51,-82 2513.51,-78.5 2513.51,-85.5"/>
</g>
<!-- 1990982422112 -->
<g id="node18" class="node">
<title>1990982422112</title>
<polygon fill="white" stroke="black" points="2717.75,-100 2615.5,-100 2615.5,-64 2717.75,-64 2717.75,-100"/>
<text text-anchor="middle" x="2666.62" y="-76.97" font-family="Times New Roman,serif" font-size="12.00">Packaging Design</text>
</g>
<!-- 1990982426624 -->
<g id="node39" class="node">
<title>1990982426624</title>
<ellipse fill="white" stroke="black" cx="2780.75" cy="-82" rx="27" ry="27"/>
</g>
<!-- 1990982422112&#45;&gt;1990982426624 -->
<g id="edge37" class="edge">
<title>1990982422112&#45;&gt;1990982426624</title>
<path fill="none" stroke="black" d="M2718.11,-82C2726.22,-82 2734.48,-82 2742.21,-82"/>
<polygon fill="black" stroke="black" points="2741.94,-85.5 2751.94,-82 2741.94,-78.5 2741.94,-85.5"/>
</g>
<!-- 1990978237696 -->
<g id="node19" class="node">
<title>1990978237696</title>
<polygon fill="white" stroke="black" points="2928.75,-100 2843.75,-100 2843.75,-64 2928.75,-64 2928.75,-100"/>
<text text-anchor="middle" x="2886.25" y="-76.97" font-family="Times New Roman,serif" font-size="12.00">Cold Shipping</text>
</g>
<!-- 1990978238560 -->
<g id="node40" class="node">
<title>1990978238560</title>
<ellipse fill="white" stroke="black" cx="2991.75" cy="-82" rx="27" ry="27"/>
</g>
<!-- 1990978237696&#45;&gt;1990978238560 -->
<g id="edge39" class="edge">
<title>1990978237696&#45;&gt;1990978238560</title>
<path fill="none" stroke="black" d="M2929.05,-82C2936.95,-82 2945.17,-82 2952.93,-82"/>
<polygon fill="black" stroke="black" points="2952.76,-85.5 2962.76,-82 2952.76,-78.5 2952.76,-85.5"/>
</g>
<!-- 1990978231120 -->
<g id="node20" class="node">
<title>1990978231120</title>
<polygon fill="white" stroke="black" points="3141.25,-100 3054.75,-100 3054.75,-64 3141.25,-64 3141.25,-100"/>
<text text-anchor="middle" x="3098" y="-76.97" font-family="Times New Roman,serif" font-size="12.00">Market Pricing</text>
</g>
<!-- 1990978228864 -->
<g id="node41" class="node">
<title>1990978228864</title>
<ellipse fill="white" stroke="black" cx="3204.25" cy="-82" rx="27" ry="27"/>
</g>
<!-- 1990978231120&#45;&gt;1990978228864 -->
<g id="edge41" class="edge">
<title>1990978231120&#45;&gt;1990978228864</title>
<path fill="none" stroke="black" d="M3141.7,-82C3149.62,-82 3157.84,-82 3165.59,-82"/>
<polygon fill="black" stroke="black" points="3165.39,-85.5 3175.39,-82 3165.39,-78.5 3165.39,-85.5"/>
</g>
<!-- 1990979043792 -->
<g id="node21" class="node">
<title>1990979043792</title>
<polygon fill="white" stroke="black" points="3365.75,-100 3267.25,-100 3267.25,-64 3365.75,-64 3365.75,-100"/>
<text text-anchor="middle" x="3316.5" y="-76.97" font-family="Times New Roman,serif" font-size="12.00">Order Fulfillment</text>
</g>
<!-- 1990978237840 -->
<g id="node42" class="node">
<title>1990978237840</title>
<ellipse fill="white" stroke="black" cx="3428.75" cy="-82" rx="27" ry="27"/>
</g>
<!-- 1990979043792&#45;&gt;1990978237840 -->
<g id="edge43" class="edge">
<title>1990979043792&#45;&gt;1990978237840</title>
<path fill="none" stroke="black" d="M3366.18,-82C3374.13,-82 3382.26,-82 3389.9,-82"/>
<polygon fill="black" stroke="black" points="3389.89,-85.5 3399.89,-82 3389.89,-78.5 3389.89,-85.5"/>
</g>
<!-- 1990980632848 -->
<g id="node22" class="node">
<title>1990980632848</title>
<ellipse fill="white" stroke="black" cx="27" cy="-152" rx="27" ry="27"/>
<text text-anchor="start" x="9.75" y="-134.7" font-family="Times New Roman,serif" font-size="34.00">●</text>
</g>
<!-- 1990980632848&#45;&gt;1990976843520 -->
<g id="edge1" class="edge">
<title>1990980632848&#45;&gt;1990976843520</title>
<path fill="none" stroke="black" d="M54.4,-152C61.89,-152 70.18,-152 78.2,-152"/>
<polygon fill="black" stroke="black" points="78.1,-155.5 88.1,-152 78.1,-148.5 78.1,-155.5"/>
</g>
<!-- 1990978476928&#45;&gt;1990981518592 -->
<g id="edge3" class="edge">
<title>1990978476928&#45;&gt;1990981518592</title>
<path fill="none" stroke="black" d="M232.98,-144.34C241.06,-141.86 250.19,-139.06 258.95,-136.37"/>
<polygon fill="black" stroke="black" points="259.75,-139.78 268.28,-133.5 257.69,-133.09 259.75,-139.78"/>
</g>
<!-- 1990979286272&#45;&gt;1990979285552 -->
<g id="edge6" class="edge">
<title>1990979286272&#45;&gt;1990979285552</title>
<path fill="none" stroke="black" d="M414.24,-125C421.91,-125 430.61,-125 439.39,-125"/>
<polygon fill="black" stroke="black" points="439.38,-128.5 449.38,-125 439.38,-121.5 439.38,-128.5"/>
</g>
<!-- 1990979057280&#45;&gt;1990979056176 -->
<g id="edge7" class="edge">
<title>1990979057280&#45;&gt;1990979056176</title>
<path fill="none" stroke="black" d="M414.24,-47.58C421.65,-46.61 430.02,-45.51 438.5,-44.41"/>
<polygon fill="black" stroke="black" points="438.67,-47.92 448.13,-43.15 437.76,-40.97 438.67,-47.92"/>
</g>
<!-- 1990979058048&#45;&gt;1990981523680 -->
<g id="edge11" class="edge">
<title>1990979058048&#45;&gt;1990981523680</title>
<path fill="none" stroke="black" d="M740.69,-27C782.04,-27 864.52,-27 934.5,-27 934.5,-27 934.5,-27 3317.5,-27 3379.52,-27 3397.1,-25.82 3455.75,-46 3464.54,-49.02 3473.47,-53.34 3481.72,-57.95"/>
<polygon fill="black" stroke="black" points="3479.69,-60.81 3490.08,-62.87 3483.24,-54.78 3479.69,-60.81"/>
</g>
<!-- 1990979287760&#45;&gt;1990977553136 -->
<g id="edge10" class="edge">
<title>1990979287760&#45;&gt;1990977553136</title>
<path fill="none" stroke="black" d="M631.56,-116.71C639.46,-114.09 648.52,-111.09 657.65,-108.07"/>
<polygon fill="black" stroke="black" points="658.5,-111.47 666.9,-105.01 656.31,-104.83 658.5,-111.47"/>
</g>
<!-- 1992862834592&#45;&gt;1990979046624 -->
<g id="edge14" class="edge">
<title>1992862834592&#45;&gt;1990979046624</title>
<path fill="none" stroke="black" d="M3636.23,-105C3650.43,-105 3668.16,-105 3683.77,-105"/>
<polygon fill="black" stroke="black" points="3683.69,-108.5 3693.69,-105 3683.69,-101.5 3683.69,-108.5"/>
</g>
<!-- 1992862834592&#45;&gt;1990979054448 -->
<g id="edge16" class="edge">
<title>1992862834592&#45;&gt;1990979054448</title>
<path fill="none" stroke="black" d="M3633.45,-116.45C3644.99,-122.03 3659.3,-128.95 3673.01,-135.57"/>
<polygon fill="black" stroke="black" points="3671.44,-138.7 3681.96,-139.89 3674.48,-132.39 3671.44,-138.7"/>
</g>
<!-- 1990971036768&#45;&gt;1990982198352 -->
<g id="edge15" class="edge">
<title>1990971036768&#45;&gt;1990982198352</title>
<path fill="none" stroke="black" d="M848.38,-87.36C858.31,-86.74 870,-86.01 881.51,-85.3"/>
<polygon fill="black" stroke="black" points="881.61,-88.8 891.37,-84.68 881.17,-81.81 881.61,-88.8"/>
</g>
<!-- 1990971036768&#45;&gt;1990977559136 -->
<g id="edge17" class="edge">
<title>1990971036768&#45;&gt;1990977559136</title>
<path fill="none" stroke="black" d="M846.41,-99.2C856.41,-103.37 868.4,-108.39 880.28,-113.35"/>
<polygon fill="black" stroke="black" points="878.66,-116.46 889.24,-117.09 881.36,-110.01 878.66,-116.46"/>
</g>
<!-- 1990971767888&#45;&gt;1990971760544 -->
<g id="edge22" class="edge">
<title>1990971767888&#45;&gt;1990971760544</title>
<path fill="none" stroke="black" d="M1077.39,-82C1084.8,-82 1093.13,-82 1101.51,-82"/>
<polygon fill="black" stroke="black" points="1101.36,-85.5 1111.36,-82 1101.36,-78.5 1101.36,-85.5"/>
</g>
<!-- 1990981338272&#45;&gt;1990981352672 -->
<g id="edge24" class="edge">
<title>1990981338272&#45;&gt;1990981352672</title>
<path fill="none" stroke="black" d="M1288.26,-82C1295.57,-82 1303.85,-82 1312.37,-82"/>
<polygon fill="black" stroke="black" points="1312.13,-85.5 1322.13,-82 1312.13,-78.5 1312.13,-85.5"/>
</g>
<!-- 1990981349168&#45;&gt;1990981349456 -->
<g id="edge26" class="edge">
<title>1990981349168&#45;&gt;1990981349456</title>
<path fill="none" stroke="black" d="M1526.31,-82C1533.63,-82 1541.84,-82 1550.05,-82"/>
<polygon fill="black" stroke="black" points="1550.05,-85.5 1560.05,-82 1550.05,-78.5 1550.05,-85.5"/>
</g>
<!-- 1990981348112&#45;&gt;1990981342496 -->
<g id="edge28" class="edge">
<title>1990981348112&#45;&gt;1990981342496</title>
<path fill="none" stroke="black" d="M1730.57,-82C1737.9,-82 1746.18,-82 1754.6,-82"/>
<polygon fill="black" stroke="black" points="1754.58,-85.5 1764.58,-82 1754.58,-78.5 1754.58,-85.5"/>
</g>
<!-- 1990982428592&#45;&gt;1990982430992 -->
<g id="edge30" class="edge">
<title>1990982428592&#45;&gt;1990982430992</title>
<path fill="none" stroke="black" d="M1954.29,-82C1961.67,-82 1969.98,-82 1978.32,-82"/>
<polygon fill="black" stroke="black" points="1978.14,-85.5 1988.14,-82 1978.14,-78.5 1978.14,-85.5"/>
</g>
<!-- 1990982434016&#45;&gt;1990982428976 -->
<g id="edge32" class="edge">
<title>1990982434016&#45;&gt;1990982428976</title>
<path fill="none" stroke="black" d="M2164.56,-82C2171.88,-82 2180.09,-82 2188.3,-82"/>
<polygon fill="black" stroke="black" points="2188.3,-85.5 2198.3,-82 2188.3,-78.5 2188.3,-85.5"/>
</g>
<!-- 1990982433968&#45;&gt;1990982427008 -->
<g id="edge34" class="edge">
<title>1990982433968&#45;&gt;1990982427008</title>
<path fill="none" stroke="black" d="M2368.89,-82C2376.3,-82 2384.63,-82 2393.01,-82"/>
<polygon fill="black" stroke="black" points="2392.86,-85.5 2402.86,-82 2392.86,-78.5 2392.86,-85.5"/>
</g>
<!-- 1990982427488&#45;&gt;1990982422112 -->
<g id="edge36" class="edge">
<title>1990982427488&#45;&gt;1990982422112</title>
<path fill="none" stroke="black" d="M2579.79,-82C2587.17,-82 2595.52,-82 2604.04,-82"/>
<polygon fill="black" stroke="black" points="2603.77,-85.5 2613.77,-82 2603.77,-78.5 2603.77,-85.5"/>
</g>
<!-- 1990982426624&#45;&gt;1990978237696 -->
<g id="edge38" class="edge">
<title>1990982426624&#45;&gt;1990978237696</title>
<path fill="none" stroke="black" d="M2808.14,-82C2815.55,-82 2823.88,-82 2832.26,-82"/>
<polygon fill="black" stroke="black" points="2832.11,-85.5 2842.11,-82 2832.11,-78.5 2832.11,-85.5"/>
</g>
<!-- 1990978238560&#45;&gt;1990978231120 -->
<g id="edge40" class="edge">
<title>1990978238560&#45;&gt;1990978231120</title>
<path fill="none" stroke="black" d="M3019.06,-82C3026.44,-82 3034.74,-82 3043.11,-82"/>
<polygon fill="black" stroke="black" points="3042.96,-85.5 3052.96,-82 3042.96,-78.5 3042.96,-85.5"/>
</g>
<!-- 1990978228864&#45;&gt;1990979043792 -->
<g id="edge42" class="edge">
<title>1990978228864&#45;&gt;1990979043792</title>
<path fill="none" stroke="black" d="M3231.66,-82C3238.93,-82 3247.12,-82 3255.47,-82"/>
<polygon fill="black" stroke="black" points="3255.36,-85.5 3265.36,-82 3255.36,-78.5 3255.36,-85.5"/>
</g>
<!-- 1990978237840&#45;&gt;1990981523680 -->
<g id="edge44" class="edge">
<title>1990978237840&#45;&gt;1990981523680</title>
<path fill="none" stroke="black" d="M3456.15,-82C3463.64,-82 3471.93,-82 3479.95,-82"/>
<polygon fill="black" stroke="black" points="3479.85,-85.5 3489.85,-82 3479.85,-78.5 3479.85,-85.5"/>
</g>
</g>
</svg>
