<?xml version="1.0" encoding="UTF-8" standalone="no"?>
<!DOCTYPE svg PUBLIC "-//W3C//DTD SVG 1.1//EN"
 "http://www.w3.org/Graphics/SVG/1.1/DTD/svg11.dtd">
<!-- Generated by graphviz version 11.0.0 (20240428.1522)
 -->
<!-- Title: imdf_net_1754052682.3735862 Pages: 1 -->
<svg width="3186pt" height="464pt"
 viewBox="0.00 0.00 3185.75 463.75" xmlns="http://www.w3.org/2000/svg" xmlns:xlink="http://www.w3.org/1999/xlink">
<g id="graph0" class="graph" transform="scale(1 1) rotate(0) translate(4 459.75)">
<title>imdf_net_1754052682.3735862</title>
<polygon fill="white" stroke="none" points="-4,4 -4,-459.75 3181.75,-459.75 3181.75,4 -4,4"/>
<!-- 1990978398320 -->
<g id="node1" class="node">
<title>1990978398320</title>
<polygon fill="white" stroke="black" points="180.25,-368 90,-368 90,-332 180.25,-332 180.25,-368"/>
<text text-anchor="middle" x="135.12" y="-344.98" font-family="Times New Roman,serif" font-size="12.00">Patent Scouting</text>
</g>
<!-- 1990978393616 -->
<g id="node29" class="node">
<title>1990978393616</title>
<ellipse fill="white" stroke="black" cx="243.25" cy="-386" rx="27" ry="27"/>
</g>
<!-- 1990978398320&#45;&gt;1990978393616 -->
<g id="edge3" class="edge">
<title>1990978398320&#45;&gt;1990978393616</title>
<path fill="none" stroke="black" d="M180.52,-365.06C189.11,-367.97 198.01,-370.99 206.29,-373.8"/>
<polygon fill="black" stroke="black" points="205.08,-377.09 215.67,-376.99 207.33,-370.46 205.08,-377.09"/>
</g>
<!-- 1990971768608 -->
<g id="node30" class="node">
<title>1990971768608</title>
<ellipse fill="white" stroke="black" cx="243.25" cy="-314" rx="27" ry="27"/>
</g>
<!-- 1990978398320&#45;&gt;1990971768608 -->
<g id="edge2" class="edge">
<title>1990978398320&#45;&gt;1990971768608</title>
<path fill="none" stroke="black" d="M180.52,-334.94C189.11,-332.03 198.01,-329.01 206.29,-326.2"/>
<polygon fill="black" stroke="black" points="207.33,-329.54 215.67,-323.01 205.08,-322.91 207.33,-329.54"/>
</g>
<!-- 1990971759248 -->
<g id="node2" class="node">
<title>1990971759248</title>
<polygon fill="white" stroke="black" points="393.88,-332 320.88,-332 320.88,-296 393.88,-296 393.88,-332"/>
<text text-anchor="middle" x="357.38" y="-308.98" font-family="Times New Roman,serif" font-size="12.00">Legal Audit</text>
</g>
<!-- 1990981662384 -->
<g id="node32" class="node">
<title>1990981662384</title>
<ellipse fill="white" stroke="black" cx="471.5" cy="-314" rx="27" ry="27"/>
</g>
<!-- 1990971759248&#45;&gt;1990981662384 -->
<g id="edge6" class="edge">
<title>1990971759248&#45;&gt;1990981662384</title>
<path fill="none" stroke="black" d="M394.16,-314C406.5,-314 420.35,-314 432.83,-314"/>
<polygon fill="black" stroke="black" points="432.77,-317.5 442.77,-314 432.77,-310.5 432.77,-317.5"/>
</g>
<!-- 1990978401248 -->
<g id="node3" class="node">
<title>1990978401248</title>
<polygon fill="white" stroke="black" points="408.5,-404 306.25,-404 306.25,-368 408.5,-368 408.5,-404"/>
<text text-anchor="middle" x="357.38" y="-380.98" font-family="Times New Roman,serif" font-size="12.00">Technical Review</text>
</g>
<!-- 1990981656192 -->
<g id="node31" class="node">
<title>1990981656192</title>
<ellipse fill="white" stroke="black" cx="471.5" cy="-386" rx="27" ry="27"/>
</g>
<!-- 1990978401248&#45;&gt;1990981656192 -->
<g id="edge7" class="edge">
<title>1990978401248&#45;&gt;1990981656192</title>
<path fill="none" stroke="black" d="M408.86,-386C416.97,-386 425.23,-386 432.96,-386"/>
<polygon fill="black" stroke="black" points="432.69,-389.5 442.69,-386 432.69,-382.5 432.69,-389.5"/>
</g>
<!-- 1990971353152 -->
<g id="node4" class="node">
<title>1990971353152</title>
<polygon fill="white" stroke="black" points="628.5,-368 534.5,-368 534.5,-332 628.5,-332 628.5,-368"/>
<text text-anchor="middle" x="581.5" y="-344.98" font-family="Times New Roman,serif" font-size="12.00">Market Analysis</text>
</g>
<!-- 1990971347248 -->
<g id="node33" class="node">
<title>1990971347248</title>
<ellipse fill="white" stroke="black" cx="691.5" cy="-386" rx="27" ry="27"/>
</g>
<!-- 1990971353152&#45;&gt;1990971347248 -->
<g id="edge11" class="edge">
<title>1990971353152&#45;&gt;1990971347248</title>
<path fill="none" stroke="black" d="M628.93,-365.48C637.58,-368.36 646.49,-371.33 654.75,-374.08"/>
<polygon fill="black" stroke="black" points="653.51,-377.36 664.1,-377.2 655.72,-370.72 653.51,-377.36"/>
</g>
<!-- 1990978078624 -->
<g id="node34" class="node">
<title>1990978078624</title>
<ellipse fill="white" stroke="black" cx="691.5" cy="-314" rx="27" ry="27"/>
</g>
<!-- 1990971353152&#45;&gt;1990978078624 -->
<g id="edge10" class="edge">
<title>1990971353152&#45;&gt;1990978078624</title>
<path fill="none" stroke="black" d="M628.93,-334.52C637.58,-331.64 646.49,-328.67 654.75,-325.92"/>
<polygon fill="black" stroke="black" points="655.72,-329.28 664.1,-322.8 653.51,-322.64 655.72,-329.28"/>
</g>
<!-- 1990978083856 -->
<g id="node5" class="node">
<title>1990978083856</title>
<polygon fill="white" stroke="black" points="858.25,-332 762,-332 762,-296 858.25,-296 858.25,-332"/>
<text text-anchor="middle" x="810.12" y="-308.98" font-family="Times New Roman,serif" font-size="12.00">Risk Assessment</text>
</g>
<!-- 1990981654272 -->
<g id="node35" class="node">
<title>1990981654272</title>
<ellipse fill="white" stroke="black" cx="928.75" cy="-314" rx="27" ry="27"/>
</g>
<!-- 1990978083856&#45;&gt;1990981654272 -->
<g id="edge14" class="edge">
<title>1990978083856&#45;&gt;1990981654272</title>
<path fill="none" stroke="black" d="M858.56,-314C869.08,-314 880.08,-314 890.14,-314"/>
<polygon fill="black" stroke="black" points="889.92,-317.5 899.92,-314 889.92,-310.5 889.92,-317.5"/>
</g>
<!-- 1990978084000 -->
<g id="node6" class="node">
<title>1990978084000</title>
<polygon fill="white" stroke="black" points="865.75,-404 754.5,-404 754.5,-368 865.75,-368 865.75,-404"/>
<text text-anchor="middle" x="810.12" y="-380.98" font-family="Times New Roman,serif" font-size="12.00">Valuation Modeling</text>
</g>
<!-- 1990981658064 -->
<g id="node36" class="node">
<title>1990981658064</title>
<ellipse fill="white" stroke="black" cx="928.75" cy="-386" rx="27" ry="27"/>
</g>
<!-- 1990978084000&#45;&gt;1990981658064 -->
<g id="edge15" class="edge">
<title>1990978084000&#45;&gt;1990981658064</title>
<path fill="none" stroke="black" d="M866.02,-386C874.09,-386 882.24,-386 889.86,-386"/>
<polygon fill="black" stroke="black" points="889.79,-389.5 899.79,-386 889.79,-382.5 889.79,-389.5"/>
</g>
<!-- 1990978086496 -->
<g id="node7" class="node">
<title>1990978086496</title>
<polygon fill="black" stroke="black" points="1045.75,-368 991.75,-368 991.75,-332 1045.75,-332 1045.75,-368"/>
</g>
<!-- 1990978082464 -->
<g id="node37" class="node">
<title>1990978082464</title>
<ellipse fill="white" stroke="black" cx="1108.75" cy="-350" rx="27" ry="27"/>
</g>
<!-- 1990978086496&#45;&gt;1990978082464 -->
<g id="edge18" class="edge">
<title>1990978086496&#45;&gt;1990978082464</title>
<path fill="none" stroke="black" d="M1046.15,-350C1053.64,-350 1061.93,-350 1069.95,-350"/>
<polygon fill="black" stroke="black" points="1069.85,-353.5 1079.85,-350 1069.85,-346.5 1069.85,-353.5"/>
</g>
<!-- 1990978078720 -->
<g id="node8" class="node">
<title>1990978078720</title>
<polygon fill="white" stroke="black" points="1268.38,-395 1176.62,-395 1176.62,-359 1268.38,-359 1268.38,-395"/>
<text text-anchor="middle" x="1222.5" y="-371.98" font-family="Times New Roman,serif" font-size="12.00">Buyer Outreach</text>
</g>
<!-- 1990978089136 -->
<g id="node38" class="node">
<title>1990978089136</title>
<ellipse fill="white" stroke="black" cx="1336.25" cy="-350" rx="27" ry="27"/>
</g>
<!-- 1990978078720&#45;&gt;1990978089136 -->
<g id="edge21" class="edge">
<title>1990978078720&#45;&gt;1990978089136</title>
<path fill="none" stroke="black" d="M1268.63,-366.1C1278.54,-363.7 1288.91,-361.2 1298.44,-358.89"/>
<polygon fill="black" stroke="black" points="1299.19,-362.31 1308.09,-356.56 1297.55,-355.51 1299.19,-362.31"/>
</g>
<!-- 1990978086544 -->
<g id="node9" class="node">
<title>1990978086544</title>
<polygon fill="white" stroke="black" points="1273.25,-341 1171.75,-341 1171.75,-305 1273.25,-305 1273.25,-341"/>
<text text-anchor="middle" x="1222.5" y="-317.98" font-family="Times New Roman,serif" font-size="12.00">License Targeting</text>
</g>
<!-- 1990978086544&#45;&gt;1990978089136 -->
<g id="edge22" class="edge">
<title>1990978086544&#45;&gt;1990978089136</title>
<path fill="none" stroke="black" d="M1273.49,-335.08C1281.85,-337.1 1290.38,-339.16 1298.33,-341.08"/>
<polygon fill="black" stroke="black" points="1297.47,-344.47 1308.01,-343.42 1299.11,-337.67 1297.47,-344.47"/>
</g>
<!-- 1990978081552 -->
<g id="node10" class="node">
<title>1990978081552</title>
<polygon fill="white" stroke="black" points="1501.5,-368 1399.25,-368 1399.25,-332 1501.5,-332 1501.5,-368"/>
<text text-anchor="middle" x="1450.38" y="-344.98" font-family="Times New Roman,serif" font-size="12.00">Negotiation Phase</text>
</g>
<!-- 1990978091584 -->
<g id="node39" class="node">
<title>1990978091584</title>
<ellipse fill="white" stroke="black" cx="1564.5" cy="-350" rx="27" ry="27"/>
</g>
<!-- 1990978081552&#45;&gt;1990978091584 -->
<g id="edge24" class="edge">
<title>1990978081552&#45;&gt;1990978091584</title>
<path fill="none" stroke="black" d="M1501.86,-350C1509.97,-350 1518.23,-350 1525.96,-350"/>
<polygon fill="black" stroke="black" points="1525.69,-353.5 1535.69,-350 1525.69,-346.5 1525.69,-353.5"/>
</g>
<!-- 1990978089904 -->
<g id="node11" class="node">
<title>1990978089904</title>
<polygon fill="white" stroke="black" points="1726.75,-368 1627.5,-368 1627.5,-332 1726.75,-332 1726.75,-368"/>
<text text-anchor="middle" x="1677.12" y="-344.98" font-family="Times New Roman,serif" font-size="12.00">Contract Drafting</text>
</g>
<!-- 1990978086448 -->
<g id="node40" class="node">
<title>1990978086448</title>
<ellipse fill="white" stroke="black" cx="1789.75" cy="-350" rx="27" ry="27"/>
</g>
<!-- 1990978089904&#45;&gt;1990978086448 -->
<g id="edge26" class="edge">
<title>1990978089904&#45;&gt;1990978086448</title>
<path fill="none" stroke="black" d="M1726.97,-350C1735.04,-350 1743.3,-350 1751.04,-350"/>
<polygon fill="black" stroke="black" points="1750.8,-353.5 1760.8,-350 1750.8,-346.5 1750.8,-353.5"/>
</g>
<!-- 1990978077760 -->
<g id="node12" class="node">
<title>1990978077760</title>
<polygon fill="white" stroke="black" points="1952.75,-368 1852.75,-368 1852.75,-332 1952.75,-332 1952.75,-368"/>
<text text-anchor="middle" x="1902.75" y="-344.98" font-family="Times New Roman,serif" font-size="12.00">Approval Process</text>
</g>
<!-- 1990978087072 -->
<g id="node41" class="node">
<title>1990978087072</title>
<ellipse fill="white" stroke="black" cx="2015.75" cy="-350" rx="27" ry="27"/>
</g>
<!-- 1990978077760&#45;&gt;1990978087072 -->
<g id="edge28" class="edge">
<title>1990978077760&#45;&gt;1990978087072</title>
<path fill="none" stroke="black" d="M1953.08,-350C1961.16,-350 1969.41,-350 1977.14,-350"/>
<polygon fill="black" stroke="black" points="1976.87,-353.5 1986.87,-350 1976.87,-346.5 1976.87,-353.5"/>
</g>
<!-- 1990978091344 -->
<g id="node13" class="node">
<title>1990978091344</title>
<polygon fill="black" stroke="black" points="2132.75,-305 2078.75,-305 2078.75,-269 2132.75,-269 2132.75,-305"/>
</g>
<!-- 1990978077280 -->
<g id="node42" class="node">
<title>1990978077280</title>
<ellipse fill="white" stroke="black" cx="2195.75" cy="-395" rx="27" ry="27"/>
</g>
<!-- 1990978091344&#45;&gt;1990978077280 -->
<g id="edge34" class="edge">
<title>1990978091344&#45;&gt;1990978077280</title>
<path fill="none" stroke="black" d="M2121.68,-305.32C2135.14,-321.84 2155.17,-346.43 2170.86,-365.68"/>
<polygon fill="black" stroke="black" points="2167.96,-367.66 2176.99,-373.2 2173.38,-363.24 2167.96,-367.66"/>
</g>
<!-- 1990978082992 -->
<g id="node43" class="node">
<title>1990978082992</title>
<ellipse fill="white" stroke="black" cx="2195.75" cy="-323" rx="27" ry="27"/>
</g>
<!-- 1990978091344&#45;&gt;1990978082992 -->
<g id="edge30" class="edge">
<title>1990978091344&#45;&gt;1990978082992</title>
<path fill="none" stroke="black" d="M2133.15,-297.8C2141.5,-301.22 2150.87,-305.05 2159.72,-308.67"/>
<polygon fill="black" stroke="black" points="2158.19,-311.83 2168.77,-312.37 2160.84,-305.35 2158.19,-311.83"/>
</g>
<!-- 1990978088272 -->
<g id="node44" class="node">
<title>1990978088272</title>
<ellipse fill="white" stroke="black" cx="2195.75" cy="-251" rx="27" ry="27"/>
</g>
<!-- 1990978091344&#45;&gt;1990978088272 -->
<g id="edge33" class="edge">
<title>1990978091344&#45;&gt;1990978088272</title>
<path fill="none" stroke="black" d="M2133.15,-276.2C2141.5,-272.78 2150.87,-268.95 2159.72,-265.33"/>
<polygon fill="black" stroke="black" points="2160.84,-268.65 2168.77,-261.63 2158.19,-262.17 2160.84,-268.65"/>
</g>
<!-- 1990978077520 -->
<g id="node45" class="node">
<title>1990978077520</title>
<ellipse fill="white" stroke="black" cx="2195.75" cy="-179" rx="27" ry="27"/>
</g>
<!-- 1990978091344&#45;&gt;1990978077520 -->
<g id="edge31" class="edge">
<title>1990978091344&#45;&gt;1990978077520</title>
<path fill="none" stroke="black" d="M2121.68,-268.68C2135.14,-252.16 2155.17,-227.57 2170.86,-208.32"/>
<polygon fill="black" stroke="black" points="2173.38,-210.76 2176.99,-200.8 2167.96,-206.34 2173.38,-210.76"/>
</g>
<!-- 1990978088416 -->
<g id="node46" class="node">
<title>1990978088416</title>
<ellipse fill="white" stroke="black" cx="2195.75" cy="-107" rx="27" ry="27"/>
</g>
<!-- 1990978091344&#45;&gt;1990978088416 -->
<g id="edge32" class="edge">
<title>1990978091344&#45;&gt;1990978088416</title>
<path fill="none" stroke="black" d="M2113.17,-268.66C2123.28,-240.69 2144.31,-186.09 2168.75,-143 2169.81,-141.14 2170.94,-139.26 2172.12,-137.38"/>
<polygon fill="black" stroke="black" points="2174.78,-139.7 2177.44,-129.45 2168.96,-135.81 2174.78,-139.7"/>
</g>
<!-- 1990978086784 -->
<g id="node14" class="node">
<title>1990978086784</title>
<polygon fill="white" stroke="black" points="2366.62,-341 2273.38,-341 2273.38,-305 2366.62,-305 2366.62,-341"/>
<text text-anchor="middle" x="2320" y="-317.98" font-family="Times New Roman,serif" font-size="12.00">Innovation Scan</text>
</g>
<!-- 1990978084720 -->
<g id="node49" class="node">
<title>1990978084720</title>
<ellipse fill="white" stroke="black" cx="2444.25" cy="-323" rx="27" ry="27"/>
</g>
<!-- 1990978086784&#45;&gt;1990978084720 -->
<g id="edge44" class="edge">
<title>1990978086784&#45;&gt;1990978084720</title>
<path fill="none" stroke="black" d="M2366.87,-323C2379.7,-323 2393.5,-323 2405.79,-323"/>
<polygon fill="black" stroke="black" points="2405.51,-326.5 2415.51,-323 2405.51,-319.5 2405.51,-326.5"/>
</g>
<!-- 1990978080160 -->
<g id="node15" class="node">
<title>1990978080160</title>
<polygon fill="white" stroke="black" points="2371.5,-269 2268.5,-269 2268.5,-233 2371.5,-233 2371.5,-269"/>
<text text-anchor="middle" x="2320" y="-245.97" font-family="Times New Roman,serif" font-size="12.00">Portfolio Tracking</text>
</g>
<!-- 1990978086832 -->
<g id="node50" class="node">
<title>1990978086832</title>
<ellipse fill="white" stroke="black" cx="2444.25" cy="-251" rx="27" ry="27"/>
</g>
<!-- 1990978080160&#45;&gt;1990978086832 -->
<g id="edge41" class="edge">
<title>1990978080160&#45;&gt;1990978086832</title>
<path fill="none" stroke="black" d="M2371.78,-251C2383.03,-251 2394.76,-251 2405.39,-251"/>
<polygon fill="black" stroke="black" points="2405.32,-254.5 2415.32,-251 2405.32,-247.5 2405.32,-254.5"/>
</g>
<!-- 1990978085296 -->
<g id="node16" class="node">
<title>1990978085296</title>
<polygon fill="white" stroke="black" points="2381.25,-125 2258.75,-125 2258.75,-89 2381.25,-89 2381.25,-125"/>
<text text-anchor="middle" x="2320" y="-101.97" font-family="Times New Roman,serif" font-size="12.00">Renewal Management</text>
</g>
<!-- 1990978091152 -->
<g id="node48" class="node">
<title>1990978091152</title>
<ellipse fill="white" stroke="black" cx="2444.25" cy="-107" rx="27" ry="27"/>
</g>
<!-- 1990978085296&#45;&gt;1990978091152 -->
<g id="edge43" class="edge">
<title>1990978085296&#45;&gt;1990978091152</title>
<path fill="none" stroke="black" d="M2381.41,-107C2389.62,-107 2397.85,-107 2405.5,-107"/>
<polygon fill="black" stroke="black" points="2405.45,-110.5 2415.45,-107 2405.45,-103.5 2405.45,-110.5"/>
</g>
<!-- 1990978085872 -->
<g id="node17" class="node">
<title>1990978085872</title>
<polygon fill="white" stroke="black" points="2373.38,-413 2266.62,-413 2266.62,-377 2373.38,-377 2373.38,-413"/>
<text text-anchor="middle" x="2320" y="-389.98" font-family="Times New Roman,serif" font-size="12.00">Compliance Check</text>
</g>
<!-- 1990978080688 -->
<g id="node51" class="node">
<title>1990978080688</title>
<ellipse fill="white" stroke="black" cx="2444.25" cy="-395" rx="27" ry="27"/>
</g>
<!-- 1990978085872&#45;&gt;1990978080688 -->
<g id="edge42" class="edge">
<title>1990978085872&#45;&gt;1990978080688</title>
<path fill="none" stroke="black" d="M2373.55,-395C2384.35,-395 2395.5,-395 2405.64,-395"/>
<polygon fill="black" stroke="black" points="2405.47,-398.5 2415.47,-395 2405.47,-391.5 2405.47,-398.5"/>
</g>
<!-- 1990978079584 -->
<g id="node18" class="node">
<title>1990978079584</title>
<polygon fill="white" stroke="black" points="2377.12,-197 2262.88,-197 2262.88,-161 2377.12,-161 2377.12,-197"/>
<text text-anchor="middle" x="2320" y="-173.97" font-family="Times New Roman,serif" font-size="12.00">Revenue Monitoring</text>
</g>
<!-- 1990978079824 -->
<g id="node47" class="node">
<title>1990978079824</title>
<ellipse fill="white" stroke="black" cx="2444.25" cy="-179" rx="27" ry="27"/>
</g>
<!-- 1990978079584&#45;&gt;1990978079824 -->
<g id="edge40" class="edge">
<title>1990978079584&#45;&gt;1990978079824</title>
<path fill="none" stroke="black" d="M2377.47,-179C2386.94,-179 2396.55,-179 2405.39,-179"/>
<polygon fill="black" stroke="black" points="2405.39,-182.5 2415.39,-179 2405.39,-175.5 2405.39,-182.5"/>
</g>
<!-- 1990978090816 -->
<g id="node19" class="node">
<title>1990978090816</title>
<polygon fill="black" stroke="black" points="2561.25,-269 2507.25,-269 2507.25,-233 2561.25,-233 2561.25,-269"/>
</g>
<!-- 1990978080736 -->
<g id="node52" class="node">
<title>1990978080736</title>
<ellipse fill="white" stroke="black" cx="2624.25" cy="-251" rx="27" ry="27"/>
</g>
<!-- 1990978090816&#45;&gt;1990978080736 -->
<g id="edge50" class="edge">
<title>1990978090816&#45;&gt;1990978080736</title>
<path fill="none" stroke="black" d="M2561.65,-251C2569.14,-251 2577.43,-251 2585.45,-251"/>
<polygon fill="black" stroke="black" points="2585.35,-254.5 2595.35,-251 2585.35,-247.5 2585.35,-254.5"/>
</g>
<!-- 1990978079056 -->
<g id="node20" class="node">
<title>1990978079056</title>
<polygon fill="black" stroke="black" points="2741.25,-269 2687.25,-269 2687.25,-233 2741.25,-233 2741.25,-269"/>
</g>
<!-- 1990981660752 -->
<g id="node53" class="node">
<title>1990981660752</title>
<ellipse fill="white" stroke="black" cx="2808.25" cy="-395" rx="27" ry="27"/>
</g>
<!-- 1990978079056&#45;&gt;1990981660752 -->
<g id="edge53" class="edge">
<title>1990978079056&#45;&gt;1990981660752</title>
<path fill="none" stroke="black" d="M2724.43,-269.16C2735.8,-291.1 2756.26,-328.83 2777.25,-359 2778.88,-361.34 2780.62,-363.71 2782.42,-366.06"/>
<polygon fill="black" stroke="black" points="2779.57,-368.1 2788.54,-373.74 2785.04,-363.74 2779.57,-368.1"/>
</g>
<!-- 1990981650576 -->
<g id="node54" class="node">
<title>1990981650576</title>
<ellipse fill="white" stroke="black" cx="2808.25" cy="-323" rx="27" ry="27"/>
</g>
<!-- 1990978079056&#45;&gt;1990981650576 -->
<g id="edge55" class="edge">
<title>1990978079056&#45;&gt;1990981650576</title>
<path fill="none" stroke="black" d="M2738.47,-269.17C2750.29,-278.42 2764.8,-289.78 2777.44,-299.67"/>
<polygon fill="black" stroke="black" points="2775.02,-302.22 2785.05,-305.63 2779.33,-296.71 2775.02,-302.22"/>
</g>
<!-- 1990981649328 -->
<g id="node55" class="node">
<title>1990981649328</title>
<ellipse fill="white" stroke="black" cx="2808.25" cy="-251" rx="27" ry="27"/>
</g>
<!-- 1990978079056&#45;&gt;1990981649328 -->
<g id="edge57" class="edge">
<title>1990978079056&#45;&gt;1990981649328</title>
<path fill="none" stroke="black" d="M2741.37,-251C2750.21,-251 2760.26,-251 2769.8,-251"/>
<polygon fill="black" stroke="black" points="2769.55,-254.5 2779.55,-251 2769.55,-247.5 2769.55,-254.5"/>
</g>
<!-- 1990981654992 -->
<g id="node56" class="node">
<title>1990981654992</title>
<ellipse fill="white" stroke="black" cx="2808.25" cy="-179" rx="27" ry="27"/>
</g>
<!-- 1990978079056&#45;&gt;1990981654992 -->
<g id="edge56" class="edge">
<title>1990978079056&#45;&gt;1990981654992</title>
<path fill="none" stroke="black" d="M2738.47,-232.83C2750.29,-223.58 2764.8,-212.22 2777.44,-202.33"/>
<polygon fill="black" stroke="black" points="2779.33,-205.29 2785.05,-196.37 2775.02,-199.78 2779.33,-205.29"/>
</g>
<!-- 1990981657056 -->
<g id="node57" class="node">
<title>1990981657056</title>
<ellipse fill="white" stroke="black" cx="2808.25" cy="-107" rx="27" ry="27"/>
</g>
<!-- 1990978079056&#45;&gt;1990981657056 -->
<g id="edge54" class="edge">
<title>1990978079056&#45;&gt;1990981657056</title>
<path fill="none" stroke="black" d="M2724.43,-232.84C2735.8,-210.9 2756.26,-173.17 2777.25,-143 2778.88,-140.66 2780.62,-138.29 2782.42,-135.94"/>
<polygon fill="black" stroke="black" points="2785.04,-138.26 2788.54,-128.26 2779.57,-133.9 2785.04,-138.26"/>
</g>
<!-- 1990978084192 -->
<g id="node21" class="node">
<title>1990978084192</title>
<polygon fill="black" stroke="black" points="2741.25,-132 2687.25,-132 2687.25,-96 2741.25,-96 2741.25,-132"/>
</g>
<!-- 1990978921360 -->
<g id="node58" class="node">
<title>1990978921360</title>
<ellipse fill="white" stroke="black" cx="2808.25" cy="-31" rx="27" ry="27"/>
<ellipse fill="none" stroke="black" cx="2808.25" cy="-31" rx="31" ry="31"/>
<text text-anchor="start" x="2791.75" y="-15.6" font-family="Times New Roman,serif" font-size="32.00">■</text>
</g>
<!-- 1990978084192&#45;&gt;1990978921360 -->
<g id="edge58" class="edge">
<title>1990978084192&#45;&gt;1990978921360</title>
<path fill="none" stroke="black" d="M2735.67,-95.58C2747.57,-84.85 2762.81,-71.09 2776.18,-59.03"/>
<polygon fill="black" stroke="black" points="2778.43,-61.72 2783.51,-52.42 2773.74,-56.52 2778.43,-61.72"/>
</g>
<!-- 1990981650432 -->
<g id="node22" class="node">
<title>1990981650432</title>
<polygon fill="white" stroke="black" points="2983.12,-125 2889.88,-125 2889.88,-89 2983.12,-89 2983.12,-125"/>
<text text-anchor="middle" x="2936.5" y="-101.97" font-family="Times New Roman,serif" font-size="12.00">Innovation Scan</text>
</g>
<!-- 1990981656000 -->
<g id="node63" class="node">
<title>1990981656000</title>
<ellipse fill="white" stroke="black" cx="3060.75" cy="-107" rx="27" ry="27"/>
</g>
<!-- 1990981650432&#45;&gt;1990981656000 -->
<g id="edge68" class="edge">
<title>1990981650432&#45;&gt;1990981656000</title>
<path fill="none" stroke="black" d="M2983.37,-107C2996.2,-107 3010,-107 3022.29,-107"/>
<polygon fill="black" stroke="black" points="3022.01,-110.5 3032.01,-107 3022.01,-103.5 3022.01,-110.5"/>
</g>
<!-- 1990981659072 -->
<g id="node23" class="node">
<title>1990981659072</title>
<polygon fill="white" stroke="black" points="2988,-413 2885,-413 2885,-377 2988,-377 2988,-413"/>
<text text-anchor="middle" x="2936.5" y="-389.98" font-family="Times New Roman,serif" font-size="12.00">Portfolio Tracking</text>
</g>
<!-- 1990981653264 -->
<g id="node59" class="node">
<title>1990981653264</title>
<ellipse fill="white" stroke="black" cx="3060.75" cy="-395" rx="27" ry="27"/>
</g>
<!-- 1990981659072&#45;&gt;1990981653264 -->
<g id="edge67" class="edge">
<title>1990981659072&#45;&gt;1990981653264</title>
<path fill="none" stroke="black" d="M2988.28,-395C2999.53,-395 3011.26,-395 3021.89,-395"/>
<polygon fill="black" stroke="black" points="3021.82,-398.5 3031.82,-395 3021.82,-391.5 3021.82,-398.5"/>
</g>
<!-- 1990981651488 -->
<g id="node24" class="node">
<title>1990981651488</title>
<polygon fill="white" stroke="black" points="2997.75,-341 2875.25,-341 2875.25,-305 2997.75,-305 2997.75,-341"/>
<text text-anchor="middle" x="2936.5" y="-317.98" font-family="Times New Roman,serif" font-size="12.00">Renewal Management</text>
</g>
<!-- 1990981650240 -->
<g id="node61" class="node">
<title>1990981650240</title>
<ellipse fill="white" stroke="black" cx="3060.75" cy="-323" rx="27" ry="27"/>
</g>
<!-- 1990981651488&#45;&gt;1990981650240 -->
<g id="edge65" class="edge">
<title>1990981651488&#45;&gt;1990981650240</title>
<path fill="none" stroke="black" d="M2997.91,-323C3006.12,-323 3014.35,-323 3022,-323"/>
<polygon fill="black" stroke="black" points="3021.95,-326.5 3031.95,-323 3021.95,-319.5 3021.95,-326.5"/>
</g>
<!-- 1990981661904 -->
<g id="node25" class="node">
<title>1990981661904</title>
<polygon fill="white" stroke="black" points="2993.62,-269 2879.38,-269 2879.38,-233 2993.62,-233 2993.62,-269"/>
<text text-anchor="middle" x="2936.5" y="-245.97" font-family="Times New Roman,serif" font-size="12.00">Revenue Monitoring</text>
</g>
<!-- 1990981656912 -->
<g id="node62" class="node">
<title>1990981656912</title>
<ellipse fill="white" stroke="black" cx="3060.75" cy="-251" rx="27" ry="27"/>
</g>
<!-- 1990981661904&#45;&gt;1990981656912 -->
<g id="edge66" class="edge">
<title>1990981661904&#45;&gt;1990981656912</title>
<path fill="none" stroke="black" d="M2993.97,-251C3003.44,-251 3013.05,-251 3021.89,-251"/>
<polygon fill="black" stroke="black" points="3021.89,-254.5 3031.89,-251 3021.89,-247.5 3021.89,-254.5"/>
</g>
<!-- 1990981653312 -->
<g id="node26" class="node">
<title>1990981653312</title>
<polygon fill="white" stroke="black" points="2989.88,-197 2883.12,-197 2883.12,-161 2989.88,-161 2989.88,-197"/>
<text text-anchor="middle" x="2936.5" y="-173.97" font-family="Times New Roman,serif" font-size="12.00">Compliance Check</text>
</g>
<!-- 1990981657920 -->
<g id="node60" class="node">
<title>1990981657920</title>
<ellipse fill="white" stroke="black" cx="3060.75" cy="-179" rx="27" ry="27"/>
</g>
<!-- 1990981653312&#45;&gt;1990981657920 -->
<g id="edge64" class="edge">
<title>1990981653312&#45;&gt;1990981657920</title>
<path fill="none" stroke="black" d="M2990.05,-179C3000.85,-179 3012,-179 3022.14,-179"/>
<polygon fill="black" stroke="black" points="3021.97,-182.5 3031.97,-179 3021.97,-175.5 3021.97,-182.5"/>
</g>
<!-- 1990978092880 -->
<g id="node27" class="node">
<title>1990978092880</title>
<polygon fill="black" stroke="black" points="3177.75,-305 3123.75,-305 3123.75,-269 3177.75,-269 3177.75,-305"/>
</g>
<!-- 1990978092880&#45;&gt;1990978087072 -->
<g id="edge74" class="edge">
<title>1990978092880&#45;&gt;1990978087072</title>
<path fill="none" stroke="black" d="M3147.68,-305.07C3143.06,-336.32 3128.86,-400.07 3087.75,-431 3033.96,-471.47 3004.81,-450 2937.5,-450 2194.75,-450 2194.75,-450 2194.75,-450 2134.55,-450 2075.89,-405.99 2043.22,-376.37"/>
<polygon fill="black" stroke="black" points="2045.91,-374.09 2036.21,-369.84 2041.14,-379.22 2045.91,-374.09"/>
</g>
<!-- 1990978924672 -->
<g id="node28" class="node">
<title>1990978924672</title>
<ellipse fill="white" stroke="black" cx="27" cy="-350" rx="27" ry="27"/>
<text text-anchor="start" x="9.75" y="-332.7" font-family="Times New Roman,serif" font-size="34.00">●</text>
</g>
<!-- 1990978924672&#45;&gt;1990978398320 -->
<g id="edge1" class="edge">
<title>1990978924672&#45;&gt;1990978398320</title>
<path fill="none" stroke="black" d="M54.23,-350C61.58,-350 69.85,-350 78.22,-350"/>
<polygon fill="black" stroke="black" points="78.09,-353.5 88.09,-350 78.09,-346.5 78.09,-353.5"/>
</g>
<!-- 1990978393616&#45;&gt;1990978401248 -->
<g id="edge4" class="edge">
<title>1990978393616&#45;&gt;1990978401248</title>
<path fill="none" stroke="black" d="M270.54,-386C277.92,-386 286.27,-386 294.79,-386"/>
<polygon fill="black" stroke="black" points="294.52,-389.5 304.52,-386 294.52,-382.5 294.52,-389.5"/>
</g>
<!-- 1990971768608&#45;&gt;1990971759248 -->
<g id="edge5" class="edge">
<title>1990971768608&#45;&gt;1990971759248</title>
<path fill="none" stroke="black" d="M270.54,-314C282.05,-314 295.93,-314 309.13,-314"/>
<polygon fill="black" stroke="black" points="308.98,-317.5 318.98,-314 308.98,-310.5 308.98,-317.5"/>
</g>
<!-- 1990981656192&#45;&gt;1990971353152 -->
<g id="edge9" class="edge">
<title>1990981656192&#45;&gt;1990971353152</title>
<path fill="none" stroke="black" d="M497.55,-377.65C505.43,-375.02 514.48,-372.01 523.64,-368.95"/>
<polygon fill="black" stroke="black" points="524.57,-372.33 532.95,-365.85 522.36,-365.69 524.57,-372.33"/>
</g>
<!-- 1990981662384&#45;&gt;1990971353152 -->
<g id="edge8" class="edge">
<title>1990981662384&#45;&gt;1990971353152</title>
<path fill="none" stroke="black" d="M497.55,-322.35C505.43,-324.98 514.48,-327.99 523.64,-331.05"/>
<polygon fill="black" stroke="black" points="522.36,-334.31 532.95,-334.15 524.57,-327.67 522.36,-334.31"/>
</g>
<!-- 1990971347248&#45;&gt;1990978084000 -->
<g id="edge13" class="edge">
<title>1990971347248&#45;&gt;1990978084000</title>
<path fill="none" stroke="black" d="M718.96,-386C726.17,-386 734.32,-386 742.69,-386"/>
<polygon fill="black" stroke="black" points="742.67,-389.5 752.67,-386 742.67,-382.5 742.67,-389.5"/>
</g>
<!-- 1990978078624&#45;&gt;1990978083856 -->
<g id="edge12" class="edge">
<title>1990978078624&#45;&gt;1990978083856</title>
<path fill="none" stroke="black" d="M718.96,-314C728.34,-314 739.3,-314 750.29,-314"/>
<polygon fill="black" stroke="black" points="750.17,-317.5 760.17,-314 750.17,-310.5 750.17,-317.5"/>
</g>
<!-- 1990981654272&#45;&gt;1990978086496 -->
<g id="edge17" class="edge">
<title>1990981654272&#45;&gt;1990978086496</title>
<path fill="none" stroke="black" d="M954.26,-324.03C962.51,-327.4 971.89,-331.24 980.87,-334.91"/>
<polygon fill="black" stroke="black" points="979.54,-338.15 990.12,-338.7 982.19,-331.67 979.54,-338.15"/>
</g>
<!-- 1990981658064&#45;&gt;1990978086496 -->
<g id="edge16" class="edge">
<title>1990981658064&#45;&gt;1990978086496</title>
<path fill="none" stroke="black" d="M954.26,-375.97C962.51,-372.6 971.89,-368.76 980.87,-365.09"/>
<polygon fill="black" stroke="black" points="982.19,-368.33 990.12,-361.3 979.54,-361.85 982.19,-368.33"/>
</g>
<!-- 1990978082464&#45;&gt;1990978078720 -->
<g id="edge19" class="edge">
<title>1990978082464&#45;&gt;1990978078720</title>
<path fill="none" stroke="black" d="M1135.39,-356.19C1144.38,-358.37 1154.86,-360.9 1165.36,-363.44"/>
<polygon fill="black" stroke="black" points="1164.23,-366.76 1174.77,-365.71 1165.88,-359.96 1164.23,-366.76"/>
</g>
<!-- 1990978082464&#45;&gt;1990978086544 -->
<g id="edge20" class="edge">
<title>1990978082464&#45;&gt;1990978086544</title>
<path fill="none" stroke="black" d="M1135.39,-343.81C1142.91,-341.99 1151.48,-339.92 1160.22,-337.81"/>
<polygon fill="black" stroke="black" points="1160.96,-341.23 1169.86,-335.48 1159.32,-334.42 1160.96,-341.23"/>
</g>
<!-- 1990978089136&#45;&gt;1990978081552 -->
<g id="edge23" class="edge">
<title>1990978089136&#45;&gt;1990978081552</title>
<path fill="none" stroke="black" d="M1363.54,-350C1370.92,-350 1379.27,-350 1387.79,-350"/>
<polygon fill="black" stroke="black" points="1387.52,-353.5 1397.52,-350 1387.52,-346.5 1387.52,-353.5"/>
</g>
<!-- 1990978091584&#45;&gt;1990978089904 -->
<g id="edge25" class="edge">
<title>1990978091584&#45;&gt;1990978089904</title>
<path fill="none" stroke="black" d="M1592,-350C1599.29,-350 1607.52,-350 1615.89,-350"/>
<polygon fill="black" stroke="black" points="1615.82,-353.5 1625.82,-350 1615.82,-346.5 1615.82,-353.5"/>
</g>
<!-- 1990978086448&#45;&gt;1990978077760 -->
<g id="edge27" class="edge">
<title>1990978086448&#45;&gt;1990978077760</title>
<path fill="none" stroke="black" d="M1817.06,-350C1824.37,-350 1832.63,-350 1841.06,-350"/>
<polygon fill="black" stroke="black" points="1841.06,-353.5 1851.06,-350 1841.06,-346.5 1841.06,-353.5"/>
</g>
<!-- 1990978087072&#45;&gt;1990978091344 -->
<g id="edge29" class="edge">
<title>1990978087072&#45;&gt;1990978091344</title>
<path fill="none" stroke="black" d="M2038.05,-334.75C2047.57,-327.93 2059.05,-319.72 2069.77,-312.04"/>
<polygon fill="black" stroke="black" points="2071.61,-315.03 2077.71,-306.36 2067.54,-309.34 2071.61,-315.03"/>
</g>
<!-- 1990978077280&#45;&gt;1990978085872 -->
<g id="edge38" class="edge">
<title>1990978077280&#45;&gt;1990978085872</title>
<path fill="none" stroke="black" d="M2222.98,-395C2232.45,-395 2243.6,-395 2254.89,-395"/>
<polygon fill="black" stroke="black" points="2254.65,-398.5 2264.65,-395 2254.65,-391.5 2254.65,-398.5"/>
</g>
<!-- 1990978082992&#45;&gt;1990978086784 -->
<g id="edge39" class="edge">
<title>1990978082992&#45;&gt;1990978086784</title>
<path fill="none" stroke="black" d="M2222.98,-323C2234.38,-323 2248.21,-323 2261.79,-323"/>
<polygon fill="black" stroke="black" points="2261.56,-326.5 2271.56,-323 2261.56,-319.5 2261.56,-326.5"/>
</g>
<!-- 1990978088272&#45;&gt;1990978080160 -->
<g id="edge36" class="edge">
<title>1990978088272&#45;&gt;1990978080160</title>
<path fill="none" stroke="black" d="M2222.98,-251C2232.97,-251 2244.84,-251 2256.76,-251"/>
<polygon fill="black" stroke="black" points="2256.64,-254.5 2266.64,-251 2256.64,-247.5 2256.64,-254.5"/>
</g>
<!-- 1990978077520&#45;&gt;1990978079584 -->
<g id="edge35" class="edge">
<title>1990978077520&#45;&gt;1990978079584</title>
<path fill="none" stroke="black" d="M2222.98,-179C2231.39,-179 2241.12,-179 2251.1,-179"/>
<polygon fill="black" stroke="black" points="2250.9,-182.5 2260.9,-179 2250.9,-175.5 2250.9,-182.5"/>
</g>
<!-- 1990978088416&#45;&gt;1990978085296 -->
<g id="edge37" class="edge">
<title>1990978088416&#45;&gt;1990978085296</title>
<path fill="none" stroke="black" d="M2222.98,-107C2230.24,-107 2238.5,-107 2247.05,-107"/>
<polygon fill="black" stroke="black" points="2246.89,-110.5 2256.89,-107 2246.89,-103.5 2246.89,-110.5"/>
</g>
<!-- 1990978079824&#45;&gt;1990978090816 -->
<g id="edge49" class="edge">
<title>1990978079824&#45;&gt;1990978090816</title>
<path fill="none" stroke="black" d="M2465.66,-195.7C2476.42,-204.5 2489.86,-215.5 2501.91,-225.36"/>
<polygon fill="black" stroke="black" points="2499.66,-228.04 2509.62,-231.66 2504.09,-222.62 2499.66,-228.04"/>
</g>
<!-- 1990978091152&#45;&gt;1990978090816 -->
<g id="edge48" class="edge">
<title>1990978091152&#45;&gt;1990978090816</title>
<path fill="none" stroke="black" d="M2461.3,-128.45C2464.68,-133.18 2468.16,-138.21 2471.25,-143 2488.28,-169.38 2505.94,-200.59 2518.04,-222.66"/>
<polygon fill="black" stroke="black" points="2514.92,-224.25 2522.78,-231.36 2521.07,-220.91 2514.92,-224.25"/>
</g>
<!-- 1990978084720&#45;&gt;1990978090816 -->
<g id="edge47" class="edge">
<title>1990978084720&#45;&gt;1990978090816</title>
<path fill="none" stroke="black" d="M2465.66,-306.3C2476.42,-297.5 2489.86,-286.5 2501.91,-276.64"/>
<polygon fill="black" stroke="black" points="2504.09,-279.38 2509.62,-270.34 2499.66,-273.96 2504.09,-279.38"/>
</g>
<!-- 1990978086832&#45;&gt;1990978090816 -->
<g id="edge45" class="edge">
<title>1990978086832&#45;&gt;1990978090816</title>
<path fill="none" stroke="black" d="M2471.65,-251C2479.14,-251 2487.43,-251 2495.45,-251"/>
<polygon fill="black" stroke="black" points="2495.35,-254.5 2505.35,-251 2495.35,-247.5 2495.35,-254.5"/>
</g>
<!-- 1990978080688&#45;&gt;1990978090816 -->
<g id="edge46" class="edge">
<title>1990978080688&#45;&gt;1990978090816</title>
<path fill="none" stroke="black" d="M2461.3,-373.55C2464.68,-368.82 2468.16,-363.79 2471.25,-359 2488.28,-332.62 2505.94,-301.41 2518.04,-279.34"/>
<polygon fill="black" stroke="black" points="2521.07,-281.09 2522.78,-270.64 2514.92,-277.75 2521.07,-281.09"/>
</g>
<!-- 1990978080736&#45;&gt;1990978079056 -->
<g id="edge52" class="edge">
<title>1990978080736&#45;&gt;1990978079056</title>
<path fill="none" stroke="black" d="M2651.65,-251C2659.14,-251 2667.43,-251 2675.45,-251"/>
<polygon fill="black" stroke="black" points="2675.35,-254.5 2685.35,-251 2675.35,-247.5 2675.35,-254.5"/>
</g>
<!-- 1990978080736&#45;&gt;1990978084192 -->
<g id="edge51" class="edge">
<title>1990978080736&#45;&gt;1990978084192</title>
<path fill="none" stroke="black" d="M2639.78,-228.38C2655.04,-204.63 2679.04,-167.26 2695.43,-141.74"/>
<polygon fill="black" stroke="black" points="2698.24,-143.85 2700.7,-133.54 2692.35,-140.06 2698.24,-143.85"/>
</g>
<!-- 1990981660752&#45;&gt;1990981659072 -->
<g id="edge59" class="edge">
<title>1990981660752&#45;&gt;1990981659072</title>
<path fill="none" stroke="black" d="M2835.72,-395C2846.68,-395 2859.9,-395 2873.07,-395"/>
<polygon fill="black" stroke="black" points="2873.07,-398.5 2883.07,-395 2873.07,-391.5 2873.07,-398.5"/>
</g>
<!-- 1990981650576&#45;&gt;1990981651488 -->
<g id="edge63" class="edge">
<title>1990981650576&#45;&gt;1990981651488</title>
<path fill="none" stroke="black" d="M2835.72,-323C2844.07,-323 2853.73,-323 2863.69,-323"/>
<polygon fill="black" stroke="black" points="2863.49,-326.5 2873.49,-323 2863.49,-319.5 2863.49,-326.5"/>
</g>
<!-- 1990981649328&#45;&gt;1990981661904 -->
<g id="edge60" class="edge">
<title>1990981649328&#45;&gt;1990981661904</title>
<path fill="none" stroke="black" d="M2835.72,-251C2845.15,-251 2856.26,-251 2867.58,-251"/>
<polygon fill="black" stroke="black" points="2867.39,-254.5 2877.39,-251 2867.39,-247.5 2867.39,-254.5"/>
</g>
<!-- 1990981654992&#45;&gt;1990981653312 -->
<g id="edge62" class="edge">
<title>1990981654992&#45;&gt;1990981653312</title>
<path fill="none" stroke="black" d="M2835.72,-179C2846.18,-179 2858.7,-179 2871.28,-179"/>
<polygon fill="black" stroke="black" points="2871.27,-182.5 2881.27,-179 2871.27,-175.5 2871.27,-182.5"/>
</g>
<!-- 1990981657056&#45;&gt;1990981650432 -->
<g id="edge61" class="edge">
<title>1990981657056&#45;&gt;1990981650432</title>
<path fill="none" stroke="black" d="M2835.72,-107C2848.1,-107 2863.37,-107 2878.21,-107"/>
<polygon fill="black" stroke="black" points="2877.9,-110.5 2887.9,-107 2877.9,-103.5 2877.9,-110.5"/>
</g>
<!-- 1990981653264&#45;&gt;1990978092880 -->
<g id="edge69" class="edge">
<title>1990981653264&#45;&gt;1990978092880</title>
<path fill="none" stroke="black" d="M3078.51,-374.43C3092.42,-357.36 3112.31,-332.95 3127.54,-314.26"/>
<polygon fill="black" stroke="black" points="3130.25,-316.47 3133.86,-306.51 3124.83,-312.05 3130.25,-316.47"/>
</g>
<!-- 1990981657920&#45;&gt;1990978092880 -->
<g id="edge72" class="edge">
<title>1990981657920&#45;&gt;1990978092880</title>
<path fill="none" stroke="black" d="M3078.51,-199.57C3092.42,-216.64 3112.31,-241.05 3127.54,-259.74"/>
<polygon fill="black" stroke="black" points="3124.83,-261.95 3133.86,-267.49 3130.25,-257.53 3124.83,-261.95"/>
</g>
<!-- 1990981650240&#45;&gt;1990978092880 -->
<g id="edge71" class="edge">
<title>1990981650240&#45;&gt;1990978092880</title>
<path fill="none" stroke="black" d="M3086.26,-312.97C3094.51,-309.6 3103.89,-305.76 3112.87,-302.09"/>
<polygon fill="black" stroke="black" points="3114.19,-305.33 3122.12,-298.3 3111.54,-298.85 3114.19,-305.33"/>
</g>
<!-- 1990981656912&#45;&gt;1990978092880 -->
<g id="edge73" class="edge">
<title>1990981656912&#45;&gt;1990978092880</title>
<path fill="none" stroke="black" d="M3086.26,-261.03C3094.51,-264.4 3103.89,-268.24 3112.87,-271.91"/>
<polygon fill="black" stroke="black" points="3111.54,-275.15 3122.12,-275.7 3114.19,-268.67 3111.54,-275.15"/>
</g>
<!-- 1990981656000&#45;&gt;1990978092880 -->
<g id="edge70" class="edge">
<title>1990981656000&#45;&gt;1990978092880</title>
<path fill="none" stroke="black" d="M3078.22,-128.19C3081.57,-132.94 3084.93,-138.04 3087.75,-143 3109.42,-181.21 3128.41,-228.47 3139.48,-258.19"/>
<polygon fill="black" stroke="black" points="3136.08,-259.06 3142.81,-267.24 3142.65,-256.65 3136.08,-259.06"/>
</g>
</g>
</svg>
