<?xml version="1.0" encoding="UTF-8" standalone="no"?>
<!DOCTYPE svg PUBLIC "-//W3C//DTD SVG 1.1//EN"
 "http://www.w3.org/Graphics/SVG/1.1/DTD/svg11.dtd">
<!-- Generated by graphviz version 11.0.0 (20240428.1522)
 -->
<!-- Title: imdf_net_1754052692.2629552 Pages: 1 -->
<svg width="3157pt" height="70pt"
 viewBox="0.00 0.00 3157.00 70.00" xmlns="http://www.w3.org/2000/svg" xmlns:xlink="http://www.w3.org/1999/xlink">
<g id="graph0" class="graph" transform="scale(1 1) rotate(0) translate(4 66)">
<title>imdf_net_1754052692.2629552</title>
<polygon fill="white" stroke="none" points="-4,4 -4,-66 3153,-66 3153,4 -4,4"/>
<!-- 1990981533040 -->
<g id="node1" class="node">
<title>1990981533040</title>
<polygon fill="white" stroke="black" points="160.75,-49 90,-49 90,-13 160.75,-13 160.75,-49"/>
<text text-anchor="middle" x="125.38" y="-25.98" font-family="Times New Roman,serif" font-size="12.00">Site Survey</text>
</g>
<!-- 1990981596992 -->
<g id="node17" class="node">
<title>1990981596992</title>
<ellipse fill="white" stroke="black" cx="223.75" cy="-31" rx="27" ry="27"/>
</g>
<!-- 1990981533040&#45;&gt;1990981596992 -->
<g id="edge2" class="edge">
<title>1990981533040&#45;&gt;1990981596992</title>
<path fill="none" stroke="black" d="M161.17,-31C168.9,-31 177.14,-31 184.98,-31"/>
<polygon fill="black" stroke="black" points="184.97,-34.5 194.97,-31 184.97,-27.5 184.97,-34.5"/>
</g>
<!-- 1990981593968 -->
<g id="node2" class="node">
<title>1990981593968</title>
<polygon fill="white" stroke="black" points="380.75,-49 286.75,-49 286.75,-13 380.75,-13 380.75,-49"/>
<text text-anchor="middle" x="333.75" y="-25.98" font-family="Times New Roman,serif" font-size="12.00">Structure Assess</text>
</g>
<!-- 1990981586000 -->
<g id="node18" class="node">
<title>1990981586000</title>
<ellipse fill="white" stroke="black" cx="443.75" cy="-31" rx="27" ry="27"/>
</g>
<!-- 1990981593968&#45;&gt;1990981586000 -->
<g id="edge4" class="edge">
<title>1990981593968&#45;&gt;1990981586000</title>
<path fill="none" stroke="black" d="M381.18,-31C389.06,-31 397.16,-31 404.78,-31"/>
<polygon fill="black" stroke="black" points="404.77,-34.5 414.77,-31 404.77,-27.5 404.77,-34.5"/>
</g>
<!-- 1990981598096 -->
<g id="node3" class="node">
<title>1990981598096</title>
<polygon fill="white" stroke="black" points="594,-49 506.75,-49 506.75,-13 594,-13 594,-49"/>
<text text-anchor="middle" x="550.38" y="-25.98" font-family="Times New Roman,serif" font-size="12.00">System Design</text>
</g>
<!-- 1990979275184 -->
<g id="node19" class="node">
<title>1990979275184</title>
<ellipse fill="white" stroke="black" cx="657" cy="-31" rx="27" ry="27"/>
</g>
<!-- 1990981598096&#45;&gt;1990979275184 -->
<g id="edge6" class="edge">
<title>1990981598096&#45;&gt;1990979275184</title>
<path fill="none" stroke="black" d="M594.23,-31C602.18,-31 610.42,-31 618.2,-31"/>
<polygon fill="black" stroke="black" points="618.04,-34.5 628.04,-31 618.04,-27.5 618.04,-34.5"/>
</g>
<!-- 1990979287952 -->
<g id="node4" class="node">
<title>1990979287952</title>
<polygon fill="white" stroke="black" points="802,-49 720,-49 720,-13 802,-13 802,-49"/>
<text text-anchor="middle" x="761" y="-25.98" font-family="Times New Roman,serif" font-size="12.00">Permit Obtain</text>
</g>
<!-- 1990971224384 -->
<g id="node20" class="node">
<title>1990971224384</title>
<ellipse fill="white" stroke="black" cx="865" cy="-31" rx="27" ry="27"/>
</g>
<!-- 1990979287952&#45;&gt;1990971224384 -->
<g id="edge8" class="edge">
<title>1990979287952&#45;&gt;1990971224384</title>
<path fill="none" stroke="black" d="M802.31,-31C810.23,-31 818.5,-31 826.32,-31"/>
<polygon fill="black" stroke="black" points="826.23,-34.5 836.23,-31 826.23,-27.5 826.23,-34.5"/>
</g>
<!-- 1990971227696 -->
<g id="node5" class="node">
<title>1990971227696</title>
<polygon fill="white" stroke="black" points="1006.25,-49 928,-49 928,-13 1006.25,-13 1006.25,-49"/>
<text text-anchor="middle" x="967.12" y="-25.98" font-family="Times New Roman,serif" font-size="12.00">Enviro Setup</text>
</g>
<!-- 1990971218384 -->
<g id="node21" class="node">
<title>1990971218384</title>
<ellipse fill="white" stroke="black" cx="1069.25" cy="-31" rx="27" ry="27"/>
</g>
<!-- 1990971227696&#45;&gt;1990971218384 -->
<g id="edge10" class="edge">
<title>1990971227696&#45;&gt;1990971218384</title>
<path fill="none" stroke="black" d="M1006.55,-31C1014.39,-31 1022.63,-31 1030.44,-31"/>
<polygon fill="black" stroke="black" points="1030.36,-34.5 1040.36,-31 1030.36,-27.5 1030.36,-34.5"/>
</g>
<!-- 1990971224864 -->
<g id="node6" class="node">
<title>1990971224864</title>
<polygon fill="white" stroke="black" points="1215.75,-49 1132.25,-49 1132.25,-13 1215.75,-13 1215.75,-49"/>
<text text-anchor="middle" x="1174" y="-25.98" font-family="Times New Roman,serif" font-size="12.00">Irrigation Plan</text>
</g>
<!-- 1990979730320 -->
<g id="node22" class="node">
<title>1990979730320</title>
<ellipse fill="white" stroke="black" cx="1278.75" cy="-31" rx="27" ry="27"/>
</g>
<!-- 1990971224864&#45;&gt;1990979730320 -->
<g id="edge12" class="edge">
<title>1990971224864&#45;&gt;1990979730320</title>
<path fill="none" stroke="black" d="M1216.2,-31C1224.06,-31 1232.25,-31 1240,-31"/>
<polygon fill="black" stroke="black" points="1239.8,-34.5 1249.8,-31 1239.8,-27.5 1239.8,-34.5"/>
</g>
<!-- 1990979723552 -->
<g id="node7" class="node">
<title>1990979723552</title>
<polygon fill="white" stroke="black" points="1421.5,-49 1341.75,-49 1341.75,-13 1421.5,-13 1421.5,-49"/>
<text text-anchor="middle" x="1381.62" y="-25.98" font-family="Times New Roman,serif" font-size="12.00">Sensor Install</text>
</g>
<!-- 1990979715872 -->
<g id="node23" class="node">
<title>1990979715872</title>
<ellipse fill="white" stroke="black" cx="1484.5" cy="-31" rx="27" ry="27"/>
</g>
<!-- 1990979723552&#45;&gt;1990979715872 -->
<g id="edge14" class="edge">
<title>1990979723552&#45;&gt;1990979715872</title>
<path fill="none" stroke="black" d="M1421.91,-31C1429.78,-31 1438.02,-31 1445.82,-31"/>
<polygon fill="black" stroke="black" points="1445.72,-34.5 1455.72,-31 1445.72,-27.5 1445.72,-34.5"/>
</g>
<!-- 1990979715824 -->
<g id="node8" class="node">
<title>1990979715824</title>
<polygon fill="white" stroke="black" points="1631.75,-49 1547.5,-49 1547.5,-13 1631.75,-13 1631.75,-49"/>
<text text-anchor="middle" x="1589.62" y="-25.98" font-family="Times New Roman,serif" font-size="12.00">AI Calibration</text>
</g>
<!-- 1990976968688 -->
<g id="node24" class="node">
<title>1990976968688</title>
<ellipse fill="white" stroke="black" cx="1694.75" cy="-31" rx="27" ry="27"/>
</g>
<!-- 1990979715824&#45;&gt;1990976968688 -->
<g id="edge16" class="edge">
<title>1990979715824&#45;&gt;1990976968688</title>
<path fill="none" stroke="black" d="M1631.98,-31C1639.94,-31 1648.24,-31 1656.08,-31"/>
<polygon fill="black" stroke="black" points="1656,-34.5 1666,-31 1656,-27.5 1656,-34.5"/>
</g>
<!-- 1990976975072 -->
<g id="node9" class="node">
<title>1990976975072</title>
<polygon fill="white" stroke="black" points="1835.25,-49 1757.75,-49 1757.75,-13 1835.25,-13 1835.25,-49"/>
<text text-anchor="middle" x="1796.5" y="-25.98" font-family="Times New Roman,serif" font-size="12.00">Nutrient Mix</text>
</g>
<!-- 1990976964752 -->
<g id="node25" class="node">
<title>1990976964752</title>
<ellipse fill="white" stroke="black" cx="1898.25" cy="-31" rx="27" ry="27"/>
</g>
<!-- 1990976975072&#45;&gt;1990976964752 -->
<g id="edge18" class="edge">
<title>1990976975072&#45;&gt;1990976964752</title>
<path fill="none" stroke="black" d="M1835.5,-31C1843.32,-31 1851.56,-31 1859.38,-31"/>
<polygon fill="black" stroke="black" points="1859.3,-34.5 1869.3,-31 1859.3,-27.5 1859.3,-34.5"/>
</g>
<!-- 1990976963216 -->
<g id="node10" class="node">
<title>1990976963216</title>
<polygon fill="white" stroke="black" points="2028.25,-49 1961.25,-49 1961.25,-13 2028.25,-13 2028.25,-49"/>
<text text-anchor="middle" x="1994.75" y="-25.98" font-family="Times New Roman,serif" font-size="12.00">Staff Train</text>
</g>
<!-- 1990976977520 -->
<g id="node26" class="node">
<title>1990976977520</title>
<ellipse fill="white" stroke="black" cx="2091.25" cy="-31" rx="27" ry="27"/>
</g>
<!-- 1990976963216&#45;&gt;1990976977520 -->
<g id="edge20" class="edge">
<title>1990976963216&#45;&gt;1990976977520</title>
<path fill="none" stroke="black" d="M2028.54,-31C2036.27,-31 2044.58,-31 2052.52,-31"/>
<polygon fill="black" stroke="black" points="2052.25,-34.5 2062.25,-31 2052.25,-27.5 2052.25,-34.5"/>
</g>
<!-- 1990976971424 -->
<g id="node11" class="node">
<title>1990976971424</title>
<polygon fill="white" stroke="black" points="2234,-49 2154.25,-49 2154.25,-13 2234,-13 2234,-49"/>
<text text-anchor="middle" x="2194.12" y="-25.98" font-family="Times New Roman,serif" font-size="12.00">Market Align</text>
</g>
<!-- 1990979580944 -->
<g id="node27" class="node">
<title>1990979580944</title>
<ellipse fill="white" stroke="black" cx="2297" cy="-31" rx="27" ry="27"/>
</g>
<!-- 1990976971424&#45;&gt;1990979580944 -->
<g id="edge22" class="edge">
<title>1990976971424&#45;&gt;1990979580944</title>
<path fill="none" stroke="black" d="M2234.41,-31C2242.28,-31 2250.52,-31 2258.32,-31"/>
<polygon fill="black" stroke="black" points="2258.22,-34.5 2268.22,-31 2258.22,-27.5 2258.22,-34.5"/>
</g>
<!-- 1990979583056 -->
<g id="node12" class="node">
<title>1990979583056</title>
<polygon fill="white" stroke="black" points="2431.5,-49 2360,-49 2360,-13 2431.5,-13 2431.5,-49"/>
<text text-anchor="middle" x="2395.75" y="-25.98" font-family="Times New Roman,serif" font-size="12.00">Crop Select</text>
</g>
<!-- 1990979577440 -->
<g id="node28" class="node">
<title>1990979577440</title>
<ellipse fill="white" stroke="black" cx="2494.5" cy="-31" rx="27" ry="27"/>
</g>
<!-- 1990979583056&#45;&gt;1990979577440 -->
<g id="edge24" class="edge">
<title>1990979583056&#45;&gt;1990979577440</title>
<path fill="none" stroke="black" d="M2431.95,-31C2439.7,-31 2447.94,-31 2455.79,-31"/>
<polygon fill="black" stroke="black" points="2455.76,-34.5 2465.76,-31 2455.76,-27.5 2455.76,-34.5"/>
</g>
<!-- 1990979578736 -->
<g id="node13" class="node">
<title>1990979578736</title>
<polygon fill="white" stroke="black" points="2634.25,-49 2557.5,-49 2557.5,-13 2634.25,-13 2634.25,-49"/>
<text text-anchor="middle" x="2595.88" y="-25.98" font-family="Times New Roman,serif" font-size="12.00">Pest Monitor</text>
</g>
<!-- 1990979573840 -->
<g id="node29" class="node">
<title>1990979573840</title>
<ellipse fill="white" stroke="black" cx="2697.25" cy="-31" rx="27" ry="27"/>
</g>
<!-- 1990979578736&#45;&gt;1990979573840 -->
<g id="edge26" class="edge">
<title>1990979578736&#45;&gt;1990979573840</title>
<path fill="none" stroke="black" d="M2634.73,-31C2642.52,-31 2650.73,-31 2658.52,-31"/>
<polygon fill="black" stroke="black" points="2658.4,-34.5 2668.4,-31 2658.4,-27.5 2658.4,-34.5"/>
</g>
<!-- 1990979725280 -->
<g id="node14" class="node">
<title>1990979725280</title>
<polygon fill="white" stroke="black" points="2845.25,-49 2760.25,-49 2760.25,-13 2845.25,-13 2845.25,-49"/>
<text text-anchor="middle" x="2802.75" y="-25.98" font-family="Times New Roman,serif" font-size="12.00">Yield Analyze</text>
</g>
<!-- 1990979718656 -->
<g id="node30" class="node">
<title>1990979718656</title>
<ellipse fill="white" stroke="black" cx="2908.25" cy="-31" rx="27" ry="27"/>
</g>
<!-- 1990979725280&#45;&gt;1990979718656 -->
<g id="edge28" class="edge">
<title>1990979725280&#45;&gt;1990979718656</title>
<path fill="none" stroke="black" d="M2845.55,-31C2853.45,-31 2861.67,-31 2869.43,-31"/>
<polygon fill="black" stroke="black" points="2869.26,-34.5 2879.26,-31 2869.26,-27.5 2869.26,-34.5"/>
</g>
<!-- 1990979726240 -->
<g id="node15" class="node">
<title>1990979726240</title>
<polygon fill="white" stroke="black" points="3051,-49 2971.25,-49 2971.25,-13 3051,-13 3051,-49"/>
<text text-anchor="middle" x="3011.12" y="-25.98" font-family="Times New Roman,serif" font-size="12.00">Launch Farm</text>
</g>
<!-- 1990982423360 -->
<g id="node31" class="node">
<title>1990982423360</title>
<ellipse fill="white" stroke="black" cx="3118" cy="-31" rx="27" ry="27"/>
<ellipse fill="none" stroke="black" cx="3118" cy="-31" rx="31" ry="31"/>
<text text-anchor="start" x="3101.5" y="-15.6" font-family="Times New Roman,serif" font-size="32.00">■</text>
</g>
<!-- 1990979726240&#45;&gt;1990982423360 -->
<g id="edge30" class="edge">
<title>1990979726240&#45;&gt;1990982423360</title>
<path fill="none" stroke="black" d="M3051.47,-31C3059.19,-31 3067.32,-31 3075.12,-31"/>
<polygon fill="black" stroke="black" points="3075.1,-34.5 3085.1,-31 3075.1,-27.5 3075.1,-34.5"/>
</g>
<!-- 1990982419088 -->
<g id="node16" class="node">
<title>1990982419088</title>
<ellipse fill="white" stroke="black" cx="27" cy="-31" rx="27" ry="27"/>
<text text-anchor="start" x="9.75" y="-13.7" font-family="Times New Roman,serif" font-size="34.00">●</text>
</g>
<!-- 1990982419088&#45;&gt;1990981533040 -->
<g id="edge1" class="edge">
<title>1990982419088&#45;&gt;1990981533040</title>
<path fill="none" stroke="black" d="M54.33,-31C61.76,-31 70.06,-31 78.28,-31"/>
<polygon fill="black" stroke="black" points="78.24,-34.5 88.24,-31 78.24,-27.5 78.24,-34.5"/>
</g>
<!-- 1990981596992&#45;&gt;1990981593968 -->
<g id="edge3" class="edge">
<title>1990981596992&#45;&gt;1990981593968</title>
<path fill="none" stroke="black" d="M251.17,-31C258.47,-31 266.69,-31 275.02,-31"/>
<polygon fill="black" stroke="black" points="274.88,-34.5 284.88,-31 274.88,-27.5 274.88,-34.5"/>
</g>
<!-- 1990981586000&#45;&gt;1990981598096 -->
<g id="edge5" class="edge">
<title>1990981586000&#45;&gt;1990981598096</title>
<path fill="none" stroke="black" d="M471.15,-31C478.48,-31 486.71,-31 495.01,-31"/>
<polygon fill="black" stroke="black" points="494.78,-34.5 504.78,-31 494.78,-27.5 494.78,-34.5"/>
</g>
<!-- 1990979275184&#45;&gt;1990979287952 -->
<g id="edge7" class="edge">
<title>1990979275184&#45;&gt;1990979287952</title>
<path fill="none" stroke="black" d="M684.27,-31C691.65,-31 699.95,-31 708.28,-31"/>
<polygon fill="black" stroke="black" points="708.05,-34.5 718.05,-31 708.05,-27.5 708.05,-34.5"/>
</g>
<!-- 1990971224384&#45;&gt;1990971227696 -->
<g id="edge9" class="edge">
<title>1990971224384&#45;&gt;1990971227696</title>
<path fill="none" stroke="black" d="M892.31,-31C899.63,-31 907.84,-31 916.05,-31"/>
<polygon fill="black" stroke="black" points="916.05,-34.5 926.05,-31 916.05,-27.5 916.05,-34.5"/>
</g>
<!-- 1990971218384&#45;&gt;1990971224864 -->
<g id="edge11" class="edge">
<title>1990971218384&#45;&gt;1990971224864</title>
<path fill="none" stroke="black" d="M1096.71,-31C1104.07,-31 1112.33,-31 1120.62,-31"/>
<polygon fill="black" stroke="black" points="1120.36,-34.5 1130.36,-31 1120.36,-27.5 1120.36,-34.5"/>
</g>
<!-- 1990979730320&#45;&gt;1990979723552 -->
<g id="edge13" class="edge">
<title>1990979730320&#45;&gt;1990979723552</title>
<path fill="none" stroke="black" d="M1305.99,-31C1313.46,-31 1321.85,-31 1330.24,-31"/>
<polygon fill="black" stroke="black" points="1330.08,-34.5 1340.08,-31 1330.08,-27.5 1330.08,-34.5"/>
</g>
<!-- 1990979715872&#45;&gt;1990979715824 -->
<g id="edge15" class="edge">
<title>1990979715872&#45;&gt;1990979715824</title>
<path fill="none" stroke="black" d="M1511.79,-31C1519.17,-31 1527.48,-31 1535.82,-31"/>
<polygon fill="black" stroke="black" points="1535.64,-34.5 1545.64,-31 1535.64,-27.5 1535.64,-34.5"/>
</g>
<!-- 1990976968688&#45;&gt;1990976975072 -->
<g id="edge17" class="edge">
<title>1990976968688&#45;&gt;1990976975072</title>
<path fill="none" stroke="black" d="M1722.22,-31C1729.52,-31 1737.68,-31 1745.83,-31"/>
<polygon fill="black" stroke="black" points="1745.75,-34.5 1755.75,-31 1745.75,-27.5 1745.75,-34.5"/>
</g>
<!-- 1990976964752&#45;&gt;1990976963216 -->
<g id="edge19" class="edge">
<title>1990976964752&#45;&gt;1990976963216</title>
<path fill="none" stroke="black" d="M1925.57,-31C1933,-31 1941.29,-31 1949.45,-31"/>
<polygon fill="black" stroke="black" points="1949.31,-34.5 1959.31,-31 1949.31,-27.5 1949.31,-34.5"/>
</g>
<!-- 1990976977520&#45;&gt;1990976971424 -->
<g id="edge21" class="edge">
<title>1990976977520&#45;&gt;1990976971424</title>
<path fill="none" stroke="black" d="M2118.49,-31C2125.96,-31 2134.35,-31 2142.74,-31"/>
<polygon fill="black" stroke="black" points="2142.58,-34.5 2152.58,-31 2142.58,-27.5 2142.58,-34.5"/>
</g>
<!-- 1990979580944&#45;&gt;1990979583056 -->
<g id="edge23" class="edge">
<title>1990979580944&#45;&gt;1990979583056</title>
<path fill="none" stroke="black" d="M2324.44,-31C2331.81,-31 2340.06,-31 2348.23,-31"/>
<polygon fill="black" stroke="black" points="2348.12,-34.5 2358.12,-31 2348.12,-27.5 2348.12,-34.5"/>
</g>
<!-- 1990979577440&#45;&gt;1990979578736 -->
<g id="edge25" class="edge">
<title>1990979577440&#45;&gt;1990979578736</title>
<path fill="none" stroke="black" d="M2521.87,-31C2529.22,-31 2537.44,-31 2545.65,-31"/>
<polygon fill="black" stroke="black" points="2545.64,-34.5 2555.64,-31 2545.64,-27.5 2545.64,-34.5"/>
</g>
<!-- 1990979573840&#45;&gt;1990979725280 -->
<g id="edge27" class="edge">
<title>1990979573840&#45;&gt;1990979725280</title>
<path fill="none" stroke="black" d="M2724.64,-31C2732.05,-31 2740.38,-31 2748.76,-31"/>
<polygon fill="black" stroke="black" points="2748.61,-34.5 2758.61,-31 2748.61,-27.5 2748.61,-34.5"/>
</g>
<!-- 1990979718656&#45;&gt;1990979726240 -->
<g id="edge29" class="edge">
<title>1990979718656&#45;&gt;1990979726240</title>
<path fill="none" stroke="black" d="M2935.49,-31C2942.96,-31 2951.35,-31 2959.74,-31"/>
<polygon fill="black" stroke="black" points="2959.58,-34.5 2969.58,-31 2959.58,-27.5 2959.58,-34.5"/>
</g>
</g>
</svg>
