<?xml version="1.0" encoding="UTF-8" standalone="no"?>
<!DOCTYPE svg PUBLIC "-//W3C//DTD SVG 1.1//EN"
 "http://www.w3.org/Graphics/SVG/1.1/DTD/svg11.dtd">
<!-- Generated by graphviz version 11.0.0 (20240428.1522)
 -->
<!-- Title: imdf_net_1754052719.0809283 Pages: 1 -->
<svg width="2487pt" height="566pt"
 viewBox="0.00 0.00 2486.75 566.00" xmlns="http://www.w3.org/2000/svg" xmlns:xlink="http://www.w3.org/1999/xlink">
<g id="graph0" class="graph" transform="scale(1 1) rotate(0) translate(4 562)">
<title>imdf_net_1754052719.0809283</title>
<polygon fill="white" stroke="none" points="-4,4 -4,-562 2482.75,-562 2482.75,4 -4,4"/>
<!-- 1990978085680 -->
<g id="node1" class="node">
<title>1990978085680</title>
<polygon fill="white" stroke="black" points="195.25,-297 90,-297 90,-261 195.25,-261 195.25,-297"/>
<text text-anchor="middle" x="142.62" y="-273.98" font-family="Times New Roman,serif" font-size="12.00">Provenance Check</text>
</g>
<!-- 1990978084048 -->
<g id="node18" class="node">
<title>1990978084048</title>
<ellipse fill="white" stroke="black" cx="258.25" cy="-279" rx="27" ry="27"/>
</g>
<!-- 1990978085680&#45;&gt;1990978084048 -->
<g id="edge2" class="edge">
<title>1990978085680&#45;&gt;1990978084048</title>
<path fill="none" stroke="black" d="M195.45,-279C203.61,-279 211.91,-279 219.67,-279"/>
<polygon fill="black" stroke="black" points="219.43,-282.5 229.43,-279 219.43,-275.5 219.43,-282.5"/>
</g>
<!-- 1990981652928 -->
<g id="node2" class="node">
<title>1990981652928</title>
<polygon fill="white" stroke="black" points="424.25,-297 321.25,-297 321.25,-261 424.25,-261 424.25,-297"/>
<text text-anchor="middle" x="372.75" y="-273.98" font-family="Times New Roman,serif" font-size="12.00">Sample Collection</text>
</g>
<!-- 1990981648752 -->
<g id="node19" class="node">
<title>1990981648752</title>
<ellipse fill="white" stroke="black" cx="487.25" cy="-315" rx="27" ry="27"/>
</g>
<!-- 1990981652928&#45;&gt;1990981648752 -->
<g id="edge5" class="edge">
<title>1990981652928&#45;&gt;1990981648752</title>
<path fill="none" stroke="black" d="M424.73,-295.31C433.45,-298.1 442.33,-300.95 450.54,-303.57"/>
<polygon fill="black" stroke="black" points="449.2,-306.82 459.79,-306.53 451.33,-300.15 449.2,-306.82"/>
</g>
<!-- 1990971343216 -->
<g id="node20" class="node">
<title>1990971343216</title>
<ellipse fill="white" stroke="black" cx="487.25" cy="-243" rx="27" ry="27"/>
</g>
<!-- 1990981652928&#45;&gt;1990971343216 -->
<g id="edge4" class="edge">
<title>1990981652928&#45;&gt;1990971343216</title>
<path fill="none" stroke="black" d="M424.73,-262.69C433.45,-259.9 442.33,-257.05 450.54,-254.43"/>
<polygon fill="black" stroke="black" points="451.33,-257.85 459.79,-251.47 449.2,-251.18 451.33,-257.85"/>
</g>
<!-- 1990971351424 -->
<g id="node3" class="node">
<title>1990971351424</title>
<polygon fill="white" stroke="black" points="645,-261 558.5,-261 558.5,-225 645,-225 645,-261"/>
<text text-anchor="middle" x="601.75" y="-237.97" font-family="Times New Roman,serif" font-size="12.00">Carbon Dating</text>
</g>
<!-- 1990978348688 -->
<g id="node23" class="node">
<title>1990978348688</title>
<ellipse fill="white" stroke="black" cx="716.25" cy="-243" rx="27" ry="27"/>
</g>
<!-- 1990971351424&#45;&gt;1990978348688 -->
<g id="edge8" class="edge">
<title>1990971351424&#45;&gt;1990978348688</title>
<path fill="none" stroke="black" d="M645.28,-243C655.95,-243 667.32,-243 677.73,-243"/>
<polygon fill="black" stroke="black" points="677.46,-246.5 687.46,-243 677.46,-239.5 677.46,-246.5"/>
</g>
<!-- 1990978351520 -->
<g id="node25" class="node">
<title>1990978351520</title>
<ellipse fill="white" stroke="black" cx="716.25" cy="-387" rx="27" ry="27"/>
</g>
<!-- 1990971351424&#45;&gt;1990978351520 -->
<g id="edge14" class="edge">
<title>1990971351424&#45;&gt;1990978351520</title>
<path fill="none" stroke="black" d="M626.37,-261.28C635.41,-268.95 645.41,-278.33 653.25,-288 673.55,-313.05 671.78,-323.89 689.25,-351 690.41,-352.8 691.62,-354.63 692.86,-356.47"/>
<polygon fill="black" stroke="black" points="689.74,-358.11 698.33,-364.32 695.49,-354.11 689.74,-358.11"/>
</g>
<!-- 1990978341056 -->
<g id="node26" class="node">
<title>1990978341056</title>
<ellipse fill="white" stroke="black" cx="716.25" cy="-27" rx="27" ry="27"/>
</g>
<!-- 1990971351424&#45;&gt;1990978341056 -->
<g id="edge11" class="edge">
<title>1990971351424&#45;&gt;1990978341056</title>
<path fill="none" stroke="black" d="M610.32,-224.57C624.23,-191.34 655.57,-119.61 689.25,-63 690.34,-61.16 691.51,-59.3 692.71,-57.44"/>
<polygon fill="black" stroke="black" points="695.36,-59.77 698.08,-49.53 689.57,-55.83 695.36,-59.77"/>
</g>
<!-- 1990978344032 -->
<g id="node28" class="node">
<title>1990978344032</title>
<ellipse fill="white" stroke="black" cx="716.25" cy="-99" rx="27" ry="27"/>
</g>
<!-- 1990971351424&#45;&gt;1990978344032 -->
<g id="edge13" class="edge">
<title>1990971351424&#45;&gt;1990978344032</title>
<path fill="none" stroke="black" d="M617,-224.76C635.88,-200.59 669.45,-157.63 692.02,-128.73"/>
<polygon fill="black" stroke="black" points="694.6,-131.11 698,-121.08 689.09,-126.8 694.6,-131.11"/>
</g>
<!-- 1990981663824 -->
<g id="node4" class="node">
<title>1990981663824</title>
<polygon fill="white" stroke="black" points="653.25,-333 550.25,-333 550.25,-297 653.25,-297 653.25,-333"/>
<text text-anchor="middle" x="601.75" y="-309.98" font-family="Times New Roman,serif" font-size="12.00">Spectroscopy Test</text>
</g>
<!-- 1990978339856 -->
<g id="node21" class="node">
<title>1990978339856</title>
<ellipse fill="white" stroke="black" cx="716.25" cy="-171" rx="27" ry="27"/>
</g>
<!-- 1990981663824&#45;&gt;1990978339856 -->
<g id="edge9" class="edge">
<title>1990981663824&#45;&gt;1990978339856</title>
<path fill="none" stroke="black" d="M626.37,-296.72C635.41,-289.05 645.41,-279.67 653.25,-270 673.55,-244.95 671.78,-234.11 689.25,-207 690.41,-205.2 691.62,-203.37 692.86,-201.53"/>
<polygon fill="black" stroke="black" points="695.49,-203.89 698.33,-193.68 689.74,-199.89 695.49,-203.89"/>
</g>
<!-- 1990978342160 -->
<g id="node22" class="node">
<title>1990978342160</title>
<ellipse fill="white" stroke="black" cx="716.25" cy="-531" rx="27" ry="27"/>
</g>
<!-- 1990981663824&#45;&gt;1990978342160 -->
<g id="edge10" class="edge">
<title>1990981663824&#45;&gt;1990978342160</title>
<path fill="none" stroke="black" d="M610.32,-333.43C624.23,-366.66 655.57,-438.39 689.25,-495 690.34,-496.84 691.51,-498.7 692.71,-500.56"/>
<polygon fill="black" stroke="black" points="689.57,-502.17 698.08,-508.47 695.36,-498.23 689.57,-502.17"/>
</g>
<!-- 1990978351568 -->
<g id="node24" class="node">
<title>1990978351568</title>
<ellipse fill="white" stroke="black" cx="716.25" cy="-315" rx="27" ry="27"/>
</g>
<!-- 1990981663824&#45;&gt;1990978351568 -->
<g id="edge15" class="edge">
<title>1990981663824&#45;&gt;1990978351568</title>
<path fill="none" stroke="black" d="M653.73,-315C661.75,-315 669.9,-315 677.54,-315"/>
<polygon fill="black" stroke="black" points="677.52,-318.5 687.52,-315 677.52,-311.5 677.52,-318.5"/>
</g>
<!-- 1990978345184 -->
<g id="node27" class="node">
<title>1990978345184</title>
<ellipse fill="white" stroke="black" cx="716.25" cy="-459" rx="27" ry="27"/>
</g>
<!-- 1990981663824&#45;&gt;1990978345184 -->
<g id="edge12" class="edge">
<title>1990981663824&#45;&gt;1990978345184</title>
<path fill="none" stroke="black" d="M617,-333.24C635.88,-357.41 669.45,-400.37 692.02,-429.27"/>
<polygon fill="black" stroke="black" points="689.09,-431.2 698,-436.92 694.6,-426.89 689.09,-431.2"/>
</g>
<!-- 1990978351616 -->
<g id="node5" class="node">
<title>1990978351616</title>
<polygon fill="white" stroke="black" points="879.25,-200 792,-200 792,-164 879.25,-164 879.25,-200"/>
<text text-anchor="middle" x="835.62" y="-176.97" font-family="Times New Roman,serif" font-size="12.00">Expert Review</text>
</g>
<!-- 1990978338944 -->
<g id="node29" class="node">
<title>1990978338944</title>
<ellipse fill="white" stroke="black" cx="1067.25" cy="-182" rx="27" ry="27"/>
</g>
<!-- 1990978351616&#45;&gt;1990978338944 -->
<g id="edge27" class="edge">
<title>1990978351616&#45;&gt;1990978338944</title>
<path fill="none" stroke="black" d="M879.55,-182C922.43,-182 987.71,-182 1028.63,-182"/>
<polygon fill="black" stroke="black" points="1028.48,-185.5 1038.48,-182 1028.48,-178.5 1028.48,-185.5"/>
</g>
<!-- 1990980361520 -->
<g id="node6" class="node">
<title>1990980361520</title>
<polygon fill="white" stroke="black" points="892,-145 779.25,-145 779.25,-109 892,-109 892,-145"/>
<text text-anchor="middle" x="835.62" y="-121.97" font-family="Times New Roman,serif" font-size="12.00">Cultural Assessment</text>
</g>
<!-- 1990978345808 -->
<g id="node32" class="node">
<title>1990978345808</title>
<ellipse fill="white" stroke="black" cx="1289.5" cy="-127" rx="27" ry="27"/>
</g>
<!-- 1990980361520&#45;&gt;1990978345808 -->
<g id="edge26" class="edge">
<title>1990980361520&#45;&gt;1990978345808</title>
<path fill="none" stroke="black" d="M892.49,-127C985.81,-127 1171.02,-127 1250.65,-127"/>
<polygon fill="black" stroke="black" points="1250.54,-130.5 1260.54,-127 1250.54,-123.5 1250.54,-130.5"/>
</g>
<!-- 1990980366416 -->
<g id="node7" class="node">
<title>1990980366416</title>
<polygon fill="white" stroke="black" points="882.25,-263 789,-263 789,-227 882.25,-227 882.25,-263"/>
<text text-anchor="middle" x="835.62" y="-239.97" font-family="Times New Roman,serif" font-size="12.00">Legal Clearance</text>
</g>
<!-- 1990978344176 -->
<g id="node33" class="node">
<title>1990978344176</title>
<ellipse fill="white" stroke="black" cx="1399.5" cy="-245" rx="27" ry="27"/>
</g>
<!-- 1990980366416&#45;&gt;1990978344176 -->
<g id="edge24" class="edge">
<title>1990980366416&#45;&gt;1990978344176</title>
<path fill="none" stroke="black" d="M882.37,-245C928.71,-245 1002.47,-245 1066.25,-245 1066.25,-245 1066.25,-245 1180.5,-245 1243.81,-245 1317.46,-245 1360.91,-245"/>
<polygon fill="black" stroke="black" points="1360.81,-248.5 1370.81,-245 1360.81,-241.5 1360.81,-248.5"/>
</g>
<!-- 1990978481776 -->
<g id="node8" class="node">
<title>1990978481776</title>
<polygon fill="white" stroke="black" points="872.88,-406 798.38,-406 798.38,-370 872.88,-370 872.88,-406"/>
<text text-anchor="middle" x="835.62" y="-382.98" font-family="Times New Roman,serif" font-size="12.00">Digital Scan</text>
</g>
<!-- 1990971222944 -->
<g id="node30" class="node">
<title>1990971222944</title>
<ellipse fill="white" stroke="black" cx="955" cy="-388" rx="27" ry="27"/>
</g>
<!-- 1990978481776&#45;&gt;1990971222944 -->
<g id="edge25" class="edge">
<title>1990978481776&#45;&gt;1990971222944</title>
<path fill="none" stroke="black" d="M873.12,-388C886.89,-388 902.58,-388 916.45,-388"/>
<polygon fill="black" stroke="black" points="916.08,-391.5 926.08,-388 916.08,-384.5 916.08,-391.5"/>
</g>
<!-- 1990979576144 -->
<g id="node31" class="node">
<title>1990979576144</title>
<ellipse fill="white" stroke="black" cx="955" cy="-316" rx="27" ry="27"/>
</g>
<!-- 1990978481776&#45;&gt;1990979576144 -->
<g id="edge28" class="edge">
<title>1990978481776&#45;&gt;1990979576144</title>
<path fill="none" stroke="black" d="M866.55,-369.65C883.47,-359.27 904.62,-346.29 921.89,-335.7"/>
<polygon fill="black" stroke="black" points="923.56,-338.78 930.26,-330.57 919.9,-332.81 923.56,-338.78"/>
</g>
<!-- 1990981838720 -->
<g id="node9" class="node">
<title>1990981838720</title>
<polygon fill="white" stroke="black" points="1110.5,-402 1024,-402 1024,-366 1110.5,-366 1110.5,-402"/>
<text text-anchor="middle" x="1067.25" y="-378.98" font-family="Times New Roman,serif" font-size="12.00">Archival Entry</text>
</g>
<!-- 1990971227984 -->
<g id="node35" class="node">
<title>1990971227984</title>
<ellipse fill="white" stroke="black" cx="1500.5" cy="-348" rx="27" ry="27"/>
</g>
<!-- 1990981838720&#45;&gt;1990971227984 -->
<g id="edge35" class="edge">
<title>1990981838720&#45;&gt;1990971227984</title>
<path fill="none" stroke="black" d="M1110.78,-380.45C1194.96,-373.42 1381.6,-357.84 1461.74,-351.15"/>
<polygon fill="black" stroke="black" points="1462.03,-354.64 1471.7,-350.32 1461.45,-347.66 1462.03,-354.64"/>
</g>
<!-- 1990979572112 -->
<g id="node10" class="node">
<title>1990979572112</title>
<polygon fill="white" stroke="black" points="1538.5,-263 1462.5,-263 1462.5,-227 1538.5,-227 1538.5,-263"/>
<text text-anchor="middle" x="1500.5" y="-239.97" font-family="Times New Roman,serif" font-size="12.00">Report Draft</text>
</g>
<!-- 1990982197248 -->
<g id="node34" class="node">
<title>1990982197248</title>
<ellipse fill="white" stroke="black" cx="1601.5" cy="-249" rx="27" ry="27"/>
</g>
<!-- 1990979572112&#45;&gt;1990982197248 -->
<g id="edge36" class="edge">
<title>1990979572112&#45;&gt;1990982197248</title>
<path fill="none" stroke="black" d="M1538.93,-246.51C1546.71,-246.83 1554.91,-247.16 1562.71,-247.47"/>
<polygon fill="black" stroke="black" points="1562.47,-250.97 1572.6,-247.87 1562.75,-243.97 1562.47,-250.97"/>
</g>
<!-- 1990979568416 -->
<g id="node11" class="node">
<title>1990979568416</title>
<polygon fill="white" stroke="black" points="1116.5,-334 1018,-334 1018,-298 1116.5,-298 1116.5,-334"/>
<text text-anchor="middle" x="1067.25" y="-310.98" font-family="Times New Roman,serif" font-size="12.00">Condition Report</text>
</g>
<!-- 1990979581808 -->
<g id="node36" class="node">
<title>1990979581808</title>
<ellipse fill="white" stroke="black" cx="1179.5" cy="-316" rx="27" ry="27"/>
</g>
<!-- 1990979568416&#45;&gt;1990979581808 -->
<g id="edge34" class="edge">
<title>1990979568416&#45;&gt;1990979581808</title>
<path fill="none" stroke="black" d="M1116.93,-316C1124.88,-316 1133.01,-316 1140.65,-316"/>
<polygon fill="black" stroke="black" points="1140.64,-319.5 1150.64,-316 1140.64,-312.5 1140.64,-319.5"/>
</g>
<!-- 1990981411728 -->
<g id="node12" class="node">
<title>1990981411728</title>
<polygon fill="white" stroke="black" points="1763.75,-269 1664.5,-269 1664.5,-233 1763.75,-233 1763.75,-269"/>
<text text-anchor="middle" x="1714.12" y="-245.97" font-family="Times New Roman,serif" font-size="12.00">Stakeholder Meet</text>
</g>
<!-- 1990981520224 -->
<g id="node37" class="node">
<title>1990981520224</title>
<ellipse fill="white" stroke="black" cx="1826.75" cy="-251" rx="27" ry="27"/>
</g>
<!-- 1990981411728&#45;&gt;1990981520224 -->
<g id="edge41" class="edge">
<title>1990981411728&#45;&gt;1990981520224</title>
<path fill="none" stroke="black" d="M1763.97,-251C1772.04,-251 1780.3,-251 1788.04,-251"/>
<polygon fill="black" stroke="black" points="1787.8,-254.5 1797.8,-251 1787.8,-247.5 1787.8,-254.5"/>
</g>
<!-- 1990978088368 -->
<g id="node13" class="node">
<title>1990978088368</title>
<polygon fill="black" stroke="black" points="2380.75,-296 2326.75,-296 2326.75,-260 2380.75,-260 2380.75,-296"/>
</g>
<!-- 1990971758768 -->
<g id="node39" class="node">
<title>1990971758768</title>
<ellipse fill="white" stroke="black" cx="2447.75" cy="-278" rx="27" ry="27"/>
<ellipse fill="none" stroke="black" cx="2447.75" cy="-278" rx="31" ry="31"/>
<text text-anchor="start" x="2431.25" y="-262.6" font-family="Times New Roman,serif" font-size="32.00">■</text>
</g>
<!-- 1990978088368&#45;&gt;1990971758768 -->
<g id="edge42" class="edge">
<title>1990978088368&#45;&gt;1990971758768</title>
<path fill="none" stroke="black" d="M2380.87,-278C2388.38,-278 2396.76,-278 2404.97,-278"/>
<polygon fill="black" stroke="black" points="2404.83,-281.5 2414.83,-278 2404.83,-274.5 2404.83,-281.5"/>
</g>
<!-- 1990979570912 -->
<g id="node14" class="node">
<title>1990979570912</title>
<polygon fill="white" stroke="black" points="1336.5,-334 1242.5,-334 1242.5,-298 1336.5,-298 1336.5,-334"/>
<text text-anchor="middle" x="1289.5" y="-310.98" font-family="Times New Roman,serif" font-size="12.00">Restoration Plan</text>
</g>
<!-- 1990978347632 -->
<g id="node38" class="node">
<title>1990978347632</title>
<ellipse fill="white" stroke="black" cx="1399.5" cy="-317" rx="27" ry="27"/>
</g>
<!-- 1990979570912&#45;&gt;1990978347632 -->
<g id="edge40" class="edge">
<title>1990979570912&#45;&gt;1990978347632</title>
<path fill="none" stroke="black" d="M1336.93,-316.43C1344.81,-316.5 1352.91,-316.58 1360.53,-316.65"/>
<polygon fill="black" stroke="black" points="1360.49,-320.15 1370.52,-316.74 1360.56,-313.15 1360.49,-320.15"/>
</g>
<!-- 1990981969456 -->
<g id="node15" class="node">
<title>1990981969456</title>
<polygon fill="white" stroke="black" points="1986.75,-269 1889.75,-269 1889.75,-233 1986.75,-233 1986.75,-269"/>
<text text-anchor="middle" x="1938.25" y="-245.97" font-family="Times New Roman,serif" font-size="12.00">Acquisition Vote</text>
</g>
<!-- 1990978346960 -->
<g id="node40" class="node">
<title>1990978346960</title>
<ellipse fill="white" stroke="black" cx="2049.75" cy="-251" rx="27" ry="27"/>
</g>
<!-- 1990981969456&#45;&gt;1990978346960 -->
<g id="edge45" class="edge">
<title>1990981969456&#45;&gt;1990978346960</title>
<path fill="none" stroke="black" d="M1986.96,-251C1995.07,-251 2003.4,-251 2011.2,-251"/>
<polygon fill="black" stroke="black" points="2011.04,-254.5 2021.04,-251 2011.04,-247.5 2011.04,-254.5"/>
</g>
<!-- 1990978344656 -->
<g id="node16" class="node">
<title>1990978344656</title>
<polygon fill="white" stroke="black" points="2200.75,-269 2112.75,-269 2112.75,-233 2200.75,-233 2200.75,-269"/>
<text text-anchor="middle" x="2156.75" y="-245.97" font-family="Times New Roman,serif" font-size="12.00">Final Approval</text>
</g>
<!-- 1990981962832 -->
<g id="node41" class="node">
<title>1990981962832</title>
<ellipse fill="white" stroke="black" cx="2263.75" cy="-251" rx="27" ry="27"/>
</g>
<!-- 1990978344656&#45;&gt;1990981962832 -->
<g id="edge47" class="edge">
<title>1990978344656&#45;&gt;1990981962832</title>
<path fill="none" stroke="black" d="M2201.06,-251C2209.02,-251 2217.26,-251 2225.03,-251"/>
<polygon fill="black" stroke="black" points="2224.85,-254.5 2234.85,-251 2224.85,-247.5 2224.85,-254.5"/>
</g>
<!-- 1990971756944 -->
<g id="node17" class="node">
<title>1990971756944</title>
<ellipse fill="white" stroke="black" cx="27" cy="-279" rx="27" ry="27"/>
<text text-anchor="start" x="9.75" y="-261.7" font-family="Times New Roman,serif" font-size="34.00">●</text>
</g>
<!-- 1990971756944&#45;&gt;1990978085680 -->
<g id="edge1" class="edge">
<title>1990971756944&#45;&gt;1990978085680</title>
<path fill="none" stroke="black" d="M54.35,-279C61.74,-279 70.1,-279 78.65,-279"/>
<polygon fill="black" stroke="black" points="78.41,-282.5 88.41,-279 78.41,-275.5 78.41,-282.5"/>
</g>
<!-- 1990978084048&#45;&gt;1990981652928 -->
<g id="edge3" class="edge">
<title>1990978084048&#45;&gt;1990981652928</title>
<path fill="none" stroke="black" d="M285.63,-279C292.86,-279 301.02,-279 309.36,-279"/>
<polygon fill="black" stroke="black" points="309.27,-282.5 319.27,-279 309.27,-275.5 309.27,-282.5"/>
</g>
<!-- 1990981648752&#45;&gt;1990981663824 -->
<g id="edge6" class="edge">
<title>1990981648752&#45;&gt;1990981663824</title>
<path fill="none" stroke="black" d="M514.63,-315C521.86,-315 530.02,-315 538.36,-315"/>
<polygon fill="black" stroke="black" points="538.27,-318.5 548.27,-315 538.27,-311.5 538.27,-318.5"/>
</g>
<!-- 1990971343216&#45;&gt;1990971351424 -->
<g id="edge7" class="edge">
<title>1990971343216&#45;&gt;1990971351424</title>
<path fill="none" stroke="black" d="M514.63,-243C524.37,-243 535.79,-243 547.08,-243"/>
<polygon fill="black" stroke="black" points="546.74,-246.5 556.74,-243 546.74,-239.5 546.74,-246.5"/>
</g>
<!-- 1990978339856&#45;&gt;1990980361520 -->
<g id="edge20" class="edge">
<title>1990978339856&#45;&gt;1990980361520</title>
<path fill="none" stroke="black" d="M741.86,-161.78C751.53,-158.15 763.1,-153.81 774.73,-149.45"/>
<polygon fill="black" stroke="black" points="775.82,-152.78 783.96,-145.99 773.37,-146.23 775.82,-152.78"/>
</g>
<!-- 1990978342160&#45;&gt;1990978481776 -->
<g id="edge17" class="edge">
<title>1990978342160&#45;&gt;1990978481776</title>
<path fill="none" stroke="black" d="M734.07,-510.51C754.68,-485.39 789.68,-442.75 812.48,-414.99"/>
<polygon fill="black" stroke="black" points="815.1,-417.31 818.74,-407.36 809.69,-412.86 815.1,-417.31"/>
</g>
<!-- 1990978348688&#45;&gt;1990980366416 -->
<g id="edge22" class="edge">
<title>1990978348688&#45;&gt;1990980366416</title>
<path fill="none" stroke="black" d="M743.59,-243.45C753.63,-243.62 765.51,-243.82 777.31,-244.02"/>
<polygon fill="black" stroke="black" points="776.97,-247.52 787.02,-244.19 777.09,-240.52 776.97,-247.52"/>
</g>
<!-- 1990978351568&#45;&gt;1990978351616 -->
<g id="edge23" class="edge">
<title>1990978351568&#45;&gt;1990978351616</title>
<path fill="none" stroke="black" d="M733.25,-293.52C736.64,-288.8 740.13,-283.77 743.25,-279 760.48,-252.66 757.48,-240.74 779.25,-218 782.97,-214.12 787.19,-210.45 791.59,-207.04"/>
<polygon fill="black" stroke="black" points="793.48,-210 799.57,-201.33 789.4,-204.31 793.48,-210"/>
</g>
<!-- 1990978351520&#45;&gt;1990978481776 -->
<g id="edge21" class="edge">
<title>1990978351520&#45;&gt;1990978481776</title>
<path fill="none" stroke="black" d="M743.59,-387.22C756.41,-387.33 772.22,-387.47 787.05,-387.59"/>
<polygon fill="black" stroke="black" points="786.59,-391.09 796.62,-387.68 786.65,-384.09 786.59,-391.09"/>
</g>
<!-- 1990978341056&#45;&gt;1990980361520 -->
<g id="edge16" class="edge">
<title>1990978341056&#45;&gt;1990980361520</title>
<path fill="none" stroke="black" d="M737.43,-44.19C755.89,-59.92 783.47,-83.42 804.54,-101.37"/>
<polygon fill="black" stroke="black" points="802.09,-103.88 811.97,-107.7 806.63,-98.55 802.09,-103.88"/>
</g>
<!-- 1990978345184&#45;&gt;1990980366416 -->
<g id="edge18" class="edge">
<title>1990978345184&#45;&gt;1990980366416</title>
<path fill="none" stroke="black" d="M733.47,-437.66C736.84,-432.92 740.27,-427.86 743.25,-423 774.42,-372.14 804.89,-309.41 821.57,-273.63"/>
<polygon fill="black" stroke="black" points="824.63,-275.35 825.66,-264.81 818.28,-272.41 824.63,-275.35"/>
</g>
<!-- 1990978344032&#45;&gt;1990978351616 -->
<g id="edge19" class="edge">
<title>1990978344032&#45;&gt;1990978351616</title>
<path fill="none" stroke="black" d="M736.01,-117.96C747.79,-129.25 763.66,-143.41 779.25,-154 781.28,-155.38 783.38,-156.73 785.53,-158.05"/>
<polygon fill="black" stroke="black" points="783.46,-160.9 793.87,-162.88 786.97,-154.84 783.46,-160.9"/>
</g>
<!-- 1990978338944&#45;&gt;1990979572112 -->
<g id="edge29" class="edge">
<title>1990978338944&#45;&gt;1990979572112</title>
<path fill="none" stroke="black" d="M1094.45,-180.61C1154.44,-178.15 1305.86,-176.04 1426.5,-209 1437.33,-211.96 1448.46,-216.54 1458.67,-221.47"/>
<polygon fill="black" stroke="black" points="1457.07,-224.58 1467.57,-225.98 1460.23,-218.33 1457.07,-224.58"/>
</g>
<!-- 1990971222944&#45;&gt;1990981838720 -->
<g id="edge31" class="edge">
<title>1990971222944&#45;&gt;1990981838720</title>
<path fill="none" stroke="black" d="M982.41,-387.04C991.48,-386.71 1002,-386.33 1012.45,-385.95"/>
<polygon fill="black" stroke="black" points="1012.32,-389.46 1022.19,-385.6 1012.07,-382.46 1012.32,-389.46"/>
</g>
<!-- 1990979576144&#45;&gt;1990979568416 -->
<g id="edge32" class="edge">
<title>1990979576144&#45;&gt;1990979568416</title>
<path fill="none" stroke="black" d="M982.41,-316C989.68,-316 997.87,-316 1006.22,-316"/>
<polygon fill="black" stroke="black" points="1006.11,-319.5 1016.11,-316 1006.11,-312.5 1006.11,-319.5"/>
</g>
<!-- 1990978345808&#45;&gt;1990979572112 -->
<g id="edge33" class="edge">
<title>1990978345808&#45;&gt;1990979572112</title>
<path fill="none" stroke="black" d="M1316.21,-132.88C1344.65,-140.13 1391.12,-154.24 1426.5,-176 1445.07,-187.43 1462.92,-204.15 1476.32,-218.28"/>
<polygon fill="black" stroke="black" points="1473.67,-220.57 1483.03,-225.55 1478.82,-215.83 1473.67,-220.57"/>
</g>
<!-- 1990978344176&#45;&gt;1990979572112 -->
<g id="edge30" class="edge">
<title>1990978344176&#45;&gt;1990979572112</title>
<path fill="none" stroke="black" d="M1426.77,-245C1434.25,-245 1442.65,-245 1451.01,-245"/>
<polygon fill="black" stroke="black" points="1450.78,-248.5 1460.78,-245 1450.78,-241.5 1450.78,-248.5"/>
</g>
<!-- 1990982197248&#45;&gt;1990981411728 -->
<g id="edge39" class="edge">
<title>1990982197248&#45;&gt;1990981411728</title>
<path fill="none" stroke="black" d="M1628.72,-249.47C1636.01,-249.61 1644.24,-249.75 1652.64,-249.91"/>
<polygon fill="black" stroke="black" points="1652.54,-253.41 1662.6,-250.09 1652.66,-246.41 1652.54,-253.41"/>
</g>
<!-- 1990971227984&#45;&gt;1990978088368 -->
<g id="edge37" class="edge">
<title>1990971227984&#45;&gt;1990978088368</title>
<path fill="none" stroke="black" d="M1526.59,-339.7C1565.89,-327.46 1644.58,-306 1713.12,-306 1713.12,-306 1713.12,-306 2157.75,-306 2213.04,-306 2276.26,-294.83 2315.35,-286.6"/>
<polygon fill="black" stroke="black" points="2315.91,-290.06 2324.95,-284.53 2314.44,-283.22 2315.91,-290.06"/>
</g>
<!-- 1990979581808&#45;&gt;1990979570912 -->
<g id="edge38" class="edge">
<title>1990979581808&#45;&gt;1990979570912</title>
<path fill="none" stroke="black" d="M1206.92,-316C1214.22,-316 1222.44,-316 1230.77,-316"/>
<polygon fill="black" stroke="black" points="1230.63,-319.5 1240.63,-316 1230.63,-312.5 1230.63,-319.5"/>
</g>
<!-- 1990981520224&#45;&gt;1990981969456 -->
<g id="edge44" class="edge">
<title>1990981520224&#45;&gt;1990981969456</title>
<path fill="none" stroke="black" d="M1853.98,-251C1861.29,-251 1869.53,-251 1877.93,-251"/>
<polygon fill="black" stroke="black" points="1877.87,-254.5 1887.87,-251 1877.87,-247.5 1877.87,-254.5"/>
</g>
<!-- 1990978347632&#45;&gt;1990979572112 -->
<g id="edge43" class="edge">
<title>1990978347632&#45;&gt;1990979572112</title>
<path fill="none" stroke="black" d="M1421.98,-301.38C1434.58,-292.22 1450.78,-280.43 1465.12,-270.01"/>
<polygon fill="black" stroke="black" points="1466.96,-273 1472.98,-264.28 1462.84,-267.34 1466.96,-273"/>
</g>
<!-- 1990978346960&#45;&gt;1990978344656 -->
<g id="edge46" class="edge">
<title>1990978346960&#45;&gt;1990978344656</title>
<path fill="none" stroke="black" d="M2077.25,-251C2084.6,-251 2092.86,-251 2101.19,-251"/>
<polygon fill="black" stroke="black" points="2101,-254.5 2111,-251 2101,-247.5 2101,-254.5"/>
</g>
<!-- 1990981962832&#45;&gt;1990978088368 -->
<g id="edge48" class="edge">
<title>1990981962832&#45;&gt;1990978088368</title>
<path fill="none" stroke="black" d="M2289.73,-258.66C2297.81,-261.14 2306.94,-263.94 2315.7,-266.63"/>
<polygon fill="black" stroke="black" points="2314.44,-269.91 2325.03,-269.5 2316.5,-263.22 2314.44,-269.91"/>
</g>
</g>
</svg>
