<?xml version="1.0" encoding="UTF-8" standalone="no"?>
<!DOCTYPE svg PUBLIC "-//W3C//DTD SVG 1.1//EN"
 "http://www.w3.org/Graphics/SVG/1.1/DTD/svg11.dtd">
<!-- Generated by graphviz version 11.0.0 (20240428.1522)
 -->
<!-- Title: imdf_net_1754052716.1793742 Pages: 1 -->
<svg width="3287pt" height="206pt"
 viewBox="0.00 0.00 3287.25 206.00" xmlns="http://www.w3.org/2000/svg" xmlns:xlink="http://www.w3.org/1999/xlink">
<g id="graph0" class="graph" transform="scale(1 1) rotate(0) translate(4 202)">
<title>imdf_net_1754052716.1793742</title>
<polygon fill="white" stroke="none" points="-4,4 -4,-202 3283.25,-202 3283.25,4 -4,4"/>
<!-- 1990981664304 -->
<g id="node1" class="node">
<title>1990981664304</title>
<polygon fill="white" stroke="black" points="180.25,-117 90,-117 90,-81 180.25,-81 180.25,-117"/>
<text text-anchor="middle" x="135.12" y="-93.97" font-family="Times New Roman,serif" font-size="12.00">Milk Collection</text>
</g>
<!-- 1990981661088 -->
<g id="node20" class="node">
<title>1990981661088</title>
<ellipse fill="white" stroke="black" cx="243.25" cy="-99" rx="27" ry="27"/>
</g>
<!-- 1990981664304&#45;&gt;1990981661088 -->
<g id="edge2" class="edge">
<title>1990981664304&#45;&gt;1990981661088</title>
<path fill="none" stroke="black" d="M180.52,-99C188.51,-99 196.78,-99 204.56,-99"/>
<polygon fill="black" stroke="black" points="204.39,-102.5 214.39,-99 204.39,-95.5 204.39,-102.5"/>
</g>
<!-- 1990981658976 -->
<g id="node2" class="node">
<title>1990981658976</title>
<polygon fill="white" stroke="black" points="382.25,-117 306.25,-117 306.25,-81 382.25,-81 382.25,-117"/>
<text text-anchor="middle" x="344.25" y="-93.97" font-family="Times New Roman,serif" font-size="12.00">Culture Prep</text>
</g>
<!-- 1990978397408 -->
<g id="node21" class="node">
<title>1990978397408</title>
<ellipse fill="white" stroke="black" cx="445.25" cy="-99" rx="27" ry="27"/>
</g>
<!-- 1990981658976&#45;&gt;1990978397408 -->
<g id="edge4" class="edge">
<title>1990981658976&#45;&gt;1990978397408</title>
<path fill="none" stroke="black" d="M382.68,-99C390.46,-99 398.66,-99 406.46,-99"/>
<polygon fill="black" stroke="black" points="406.35,-102.5 416.35,-99 406.35,-95.5 406.35,-102.5"/>
</g>
<!-- 1990978392992 -->
<g id="node3" class="node">
<title>1990978392992</title>
<polygon fill="white" stroke="black" points="600,-117 508.25,-117 508.25,-81 600,-81 600,-117"/>
<text text-anchor="middle" x="554.12" y="-93.97" font-family="Times New Roman,serif" font-size="12.00">Curd Formation</text>
</g>
<!-- 1990978402928 -->
<g id="node22" class="node">
<title>1990978402928</title>
<ellipse fill="white" stroke="black" cx="663" cy="-99" rx="27" ry="27"/>
</g>
<!-- 1990978392992&#45;&gt;1990978402928 -->
<g id="edge6" class="edge">
<title>1990978392992&#45;&gt;1990978402928</title>
<path fill="none" stroke="black" d="M600.45,-99C608.46,-99 616.72,-99 624.48,-99"/>
<polygon fill="black" stroke="black" points="624.28,-102.5 634.28,-99 624.28,-95.5 624.28,-102.5"/>
</g>
<!-- 1990977401008 -->
<g id="node4" class="node">
<title>1990977401008</title>
<polygon fill="white" stroke="black" points="823.75,-117 726,-117 726,-81 823.75,-81 823.75,-117"/>
<text text-anchor="middle" x="774.88" y="-93.97" font-family="Times New Roman,serif" font-size="12.00">Whey Separation</text>
</g>
<!-- 1990978089856 -->
<g id="node23" class="node">
<title>1990978089856</title>
<ellipse fill="white" stroke="black" cx="886.75" cy="-99" rx="27" ry="27"/>
</g>
<!-- 1990977401008&#45;&gt;1990978089856 -->
<g id="edge8" class="edge">
<title>1990977401008&#45;&gt;1990978089856</title>
<path fill="none" stroke="black" d="M824.07,-99C832.11,-99 840.35,-99 848.07,-99"/>
<polygon fill="black" stroke="black" points="847.81,-102.5 857.81,-99 847.81,-95.5 847.81,-102.5"/>
</g>
<!-- 1990978078240 -->
<g id="node5" class="node">
<title>1990978078240</title>
<polygon fill="white" stroke="black" points="1043.75,-117 949.75,-117 949.75,-81 1043.75,-81 1043.75,-117"/>
<text text-anchor="middle" x="996.75" y="-93.97" font-family="Times New Roman,serif" font-size="12.00">Molding Cheese</text>
</g>
<!-- 1990978084576 -->
<g id="node24" class="node">
<title>1990978084576</title>
<ellipse fill="white" stroke="black" cx="1106.75" cy="-99" rx="27" ry="27"/>
</g>
<!-- 1990978078240&#45;&gt;1990978084576 -->
<g id="edge10" class="edge">
<title>1990978078240&#45;&gt;1990978084576</title>
<path fill="none" stroke="black" d="M1044.18,-99C1052.06,-99 1060.16,-99 1067.78,-99"/>
<polygon fill="black" stroke="black" points="1067.77,-102.5 1077.77,-99 1067.77,-95.5 1067.77,-102.5"/>
</g>
<!-- 1990978089808 -->
<g id="node6" class="node">
<title>1990978089808</title>
<polygon fill="white" stroke="black" points="1257.75,-117 1169.75,-117 1169.75,-81 1257.75,-81 1257.75,-117"/>
<text text-anchor="middle" x="1213.75" y="-93.97" font-family="Times New Roman,serif" font-size="12.00">Salting Process</text>
</g>
<!-- 1990978085152 -->
<g id="node25" class="node">
<title>1990978085152</title>
<ellipse fill="white" stroke="black" cx="1320.75" cy="-99" rx="27" ry="27"/>
</g>
<!-- 1990978089808&#45;&gt;1990978085152 -->
<g id="edge12" class="edge">
<title>1990978089808&#45;&gt;1990978085152</title>
<path fill="none" stroke="black" d="M1258.06,-99C1266.02,-99 1274.26,-99 1282.03,-99"/>
<polygon fill="black" stroke="black" points="1281.85,-102.5 1291.85,-99 1281.85,-95.5 1281.85,-102.5"/>
</g>
<!-- 1990978082800 -->
<g id="node7" class="node">
<title>1990978082800</title>
<polygon fill="white" stroke="black" points="1459.75,-117 1383.75,-117 1383.75,-81 1459.75,-81 1459.75,-117"/>
<text text-anchor="middle" x="1421.75" y="-93.97" font-family="Times New Roman,serif" font-size="12.00">Initial Aging</text>
</g>
<!-- 1990975752096 -->
<g id="node26" class="node">
<title>1990975752096</title>
<ellipse fill="white" stroke="black" cx="1522.75" cy="-135" rx="27" ry="27"/>
</g>
<!-- 1990978082800&#45;&gt;1990975752096 -->
<g id="edge15" class="edge">
<title>1990978082800&#45;&gt;1990975752096</title>
<path fill="none" stroke="black" d="M1460.18,-112.61C1468.71,-115.71 1477.74,-119 1486.19,-122.07"/>
<polygon fill="black" stroke="black" points="1484.85,-125.31 1495.44,-125.43 1487.24,-118.73 1484.85,-125.31"/>
</g>
<!-- 1990979105856 -->
<g id="node27" class="node">
<title>1990979105856</title>
<ellipse fill="white" stroke="black" cx="1522.75" cy="-63" rx="27" ry="27"/>
</g>
<!-- 1990978082800&#45;&gt;1990979105856 -->
<g id="edge14" class="edge">
<title>1990978082800&#45;&gt;1990979105856</title>
<path fill="none" stroke="black" d="M1460.18,-85.39C1468.71,-82.29 1477.74,-79 1486.19,-75.93"/>
<polygon fill="black" stroke="black" points="1487.24,-79.27 1495.44,-72.57 1484.85,-72.69 1487.24,-79.27"/>
</g>
<!-- 1990979102592 -->
<g id="node8" class="node">
<title>1990979102592</title>
<polygon fill="white" stroke="black" points="1695.5,-81 1585.75,-81 1585.75,-45 1695.5,-45 1695.5,-81"/>
<text text-anchor="middle" x="1640.62" y="-57.98" font-family="Times New Roman,serif" font-size="12.00">Temperature Check</text>
</g>
<!-- 1990975913472 -->
<g id="node28" class="node">
<title>1990975913472</title>
<ellipse fill="white" stroke="black" cx="1758.5" cy="-63" rx="27" ry="27"/>
</g>
<!-- 1990979102592&#45;&gt;1990975913472 -->
<g id="edge19" class="edge">
<title>1990979102592&#45;&gt;1990975913472</title>
<path fill="none" stroke="black" d="M1695.83,-63C1703.87,-63 1712.01,-63 1719.62,-63"/>
<polygon fill="black" stroke="black" points="1719.54,-66.5 1729.54,-63 1719.54,-59.5 1719.54,-66.5"/>
</g>
<!-- 1990979093664 -->
<g id="node9" class="node">
<title>1990979093664</title>
<polygon fill="white" stroke="black" points="1690.62,-153 1590.62,-153 1590.62,-117 1690.62,-117 1690.62,-153"/>
<text text-anchor="middle" x="1640.62" y="-129.97" font-family="Times New Roman,serif" font-size="12.00">Humidity Control</text>
</g>
<!-- 1990975910352 -->
<g id="node29" class="node">
<title>1990975910352</title>
<ellipse fill="white" stroke="black" cx="1758.5" cy="-135" rx="27" ry="27"/>
</g>
<!-- 1990979093664&#45;&gt;1990975910352 -->
<g id="edge18" class="edge">
<title>1990979093664&#45;&gt;1990975910352</title>
<path fill="none" stroke="black" d="M1691.1,-135C1700.68,-135 1710.58,-135 1719.71,-135"/>
<polygon fill="black" stroke="black" points="1719.67,-138.5 1729.67,-135 1719.67,-131.5 1719.67,-138.5"/>
</g>
<!-- 1990980120848 -->
<g id="node10" class="node">
<title>1990980120848</title>
<polygon fill="white" stroke="black" points="1906.5,-117 1821.5,-117 1821.5,-81 1906.5,-81 1906.5,-117"/>
<text text-anchor="middle" x="1864" y="-93.97" font-family="Times New Roman,serif" font-size="12.00">Flavor Testing</text>
</g>
<!-- 1990980116192 -->
<g id="node30" class="node">
<title>1990980116192</title>
<ellipse fill="white" stroke="black" cx="1969.5" cy="-99" rx="27" ry="27"/>
</g>
<!-- 1990980120848&#45;&gt;1990980116192 -->
<g id="edge22" class="edge">
<title>1990980120848&#45;&gt;1990980116192</title>
<path fill="none" stroke="black" d="M1906.8,-99C1914.7,-99 1922.92,-99 1930.68,-99"/>
<polygon fill="black" stroke="black" points="1930.51,-102.5 1940.51,-99 1930.51,-95.5 1930.51,-102.5"/>
</g>
<!-- 1990980108896 -->
<g id="node11" class="node">
<title>1990980108896</title>
<polygon fill="white" stroke="black" points="2105.5,-117 2032.5,-117 2032.5,-81 2105.5,-81 2105.5,-117"/>
<text text-anchor="middle" x="2069" y="-93.97" font-family="Times New Roman,serif" font-size="12.00">Final Aging</text>
</g>
<!-- 1990980121808 -->
<g id="node31" class="node">
<title>1990980121808</title>
<ellipse fill="white" stroke="black" cx="2168.5" cy="-99" rx="27" ry="27"/>
</g>
<!-- 1990980108896&#45;&gt;1990980121808 -->
<g id="edge24" class="edge">
<title>1990980108896&#45;&gt;1990980121808</title>
<path fill="none" stroke="black" d="M2105.75,-99C2113.64,-99 2122.02,-99 2129.97,-99"/>
<polygon fill="black" stroke="black" points="2129.71,-102.5 2139.71,-99 2129.71,-95.5 2129.71,-102.5"/>
</g>
<!-- 1990980122672 -->
<g id="node12" class="node">
<title>1990980122672</title>
<polygon fill="white" stroke="black" points="2342.75,-117 2231.5,-117 2231.5,-81 2342.75,-81 2342.75,-117"/>
<text text-anchor="middle" x="2287.12" y="-93.97" font-family="Times New Roman,serif" font-size="12.00">Packaging Artisanal</text>
</g>
<!-- 1990980110912 -->
<g id="node32" class="node">
<title>1990980110912</title>
<ellipse fill="white" stroke="black" cx="2405.75" cy="-99" rx="27" ry="27"/>
</g>
<!-- 1990980122672&#45;&gt;1990980110912 -->
<g id="edge26" class="edge">
<title>1990980122672&#45;&gt;1990980110912</title>
<path fill="none" stroke="black" d="M2343.02,-99C2351.09,-99 2359.24,-99 2366.86,-99"/>
<polygon fill="black" stroke="black" points="2366.79,-102.5 2376.79,-99 2366.79,-95.5 2366.79,-102.5"/>
</g>
<!-- 1990980122048 -->
<g id="node13" class="node">
<title>1990980122048</title>
<polygon fill="white" stroke="black" points="2552.25,-117 2468.75,-117 2468.75,-81 2552.25,-81 2552.25,-117"/>
<text text-anchor="middle" x="2510.5" y="-93.97" font-family="Times New Roman,serif" font-size="12.00">Label Printing</text>
</g>
<!-- 1990980113552 -->
<g id="node33" class="node">
<title>1990980113552</title>
<ellipse fill="white" stroke="black" cx="2615.25" cy="-99" rx="27" ry="27"/>
</g>
<!-- 1990980122048&#45;&gt;1990980113552 -->
<g id="edge28" class="edge">
<title>1990980122048&#45;&gt;1990980113552</title>
<path fill="none" stroke="black" d="M2552.7,-99C2560.56,-99 2568.75,-99 2576.5,-99"/>
<polygon fill="black" stroke="black" points="2576.3,-102.5 2586.3,-99 2576.3,-95.5 2576.3,-102.5"/>
</g>
<!-- 1990980115328 -->
<g id="node14" class="node">
<title>1990980115328</title>
<polygon fill="white" stroke="black" points="2770,-117 2678.25,-117 2678.25,-81 2770,-81 2770,-117"/>
<text text-anchor="middle" x="2724.12" y="-93.97" font-family="Times New Roman,serif" font-size="12.00">Inventory Audit</text>
</g>
<!-- 1990980123584 -->
<g id="node34" class="node">
<title>1990980123584</title>
<ellipse fill="white" stroke="black" cx="2833" cy="-171" rx="27" ry="27"/>
</g>
<!-- 1990980115328&#45;&gt;1990980123584 -->
<g id="edge32" class="edge">
<title>1990980115328&#45;&gt;1990980123584</title>
<path fill="none" stroke="black" d="M2752.37,-117.35C2767.22,-127.36 2785.66,-139.78 2801.05,-150.15"/>
<polygon fill="black" stroke="black" points="2798.68,-152.77 2808.93,-155.46 2802.59,-146.97 2798.68,-152.77"/>
</g>
<!-- 1990979326544 -->
<g id="node35" class="node">
<title>1990979326544</title>
<ellipse fill="white" stroke="black" cx="2833" cy="-99" rx="27" ry="27"/>
</g>
<!-- 1990980115328&#45;&gt;1990979326544 -->
<g id="edge30" class="edge">
<title>1990980115328&#45;&gt;1990979326544</title>
<path fill="none" stroke="black" d="M2770.45,-99C2778.46,-99 2786.72,-99 2794.48,-99"/>
<polygon fill="black" stroke="black" points="2794.28,-102.5 2804.28,-99 2794.28,-95.5 2794.28,-102.5"/>
</g>
<!-- 1990980108656 -->
<g id="node36" class="node">
<title>1990980108656</title>
<ellipse fill="white" stroke="black" cx="2833" cy="-27" rx="27" ry="27"/>
</g>
<!-- 1990980115328&#45;&gt;1990980108656 -->
<g id="edge31" class="edge">
<title>1990980115328&#45;&gt;1990980108656</title>
<path fill="none" stroke="black" d="M2752.37,-80.65C2767.22,-70.64 2785.66,-58.22 2801.05,-47.85"/>
<polygon fill="black" stroke="black" points="2802.59,-51.03 2808.93,-42.54 2798.68,-45.23 2802.59,-51.03"/>
</g>
<!-- 1990980113408 -->
<g id="node15" class="node">
<title>1990980113408</title>
<polygon fill="white" stroke="black" points="2997.88,-189 2899.38,-189 2899.38,-153 2997.88,-153 2997.88,-189"/>
<text text-anchor="middle" x="2948.62" y="-165.97" font-family="Times New Roman,serif" font-size="12.00">Order Fulfillment</text>
</g>
<!-- 1990980109088 -->
<g id="node37" class="node">
<title>1990980109088</title>
<ellipse fill="white" stroke="black" cx="3064.25" cy="-171" rx="27" ry="27"/>
</g>
<!-- 1990980113408&#45;&gt;1990980109088 -->
<g id="edge37" class="edge">
<title>1990980113408&#45;&gt;1990980109088</title>
<path fill="none" stroke="black" d="M2998.14,-171C3007.26,-171 3016.68,-171 3025.42,-171"/>
<polygon fill="black" stroke="black" points="3025.31,-174.5 3035.31,-171 3025.31,-167.5 3025.31,-174.5"/>
</g>
<!-- 1990979328416 -->
<g id="node16" class="node">
<title>1990979328416</title>
<polygon fill="white" stroke="black" points="3001.25,-45 2896,-45 2896,-9 3001.25,-9 3001.25,-45"/>
<text text-anchor="middle" x="2948.62" y="-21.98" font-family="Times New Roman,serif" font-size="12.00">Subscription Setup</text>
</g>
<!-- 1990980110576 -->
<g id="node39" class="node">
<title>1990980110576</title>
<ellipse fill="white" stroke="black" cx="3064.25" cy="-27" rx="27" ry="27"/>
</g>
<!-- 1990979328416&#45;&gt;1990980110576 -->
<g id="edge36" class="edge">
<title>1990979328416&#45;&gt;1990980110576</title>
<path fill="none" stroke="black" d="M3001.45,-27C3009.61,-27 3017.91,-27 3025.67,-27"/>
<polygon fill="black" stroke="black" points="3025.43,-30.5 3035.43,-27 3025.43,-23.5 3025.43,-30.5"/>
</g>
<!-- 1990979337536 -->
<g id="node17" class="node">
<title>1990979337536</title>
<polygon fill="white" stroke="black" points="2996.38,-117 2900.88,-117 2900.88,-81 2996.38,-81 2996.38,-117"/>
<text text-anchor="middle" x="2948.62" y="-93.97" font-family="Times New Roman,serif" font-size="12.00">Event Marketing</text>
</g>
<!-- 1990979325152 -->
<g id="node38" class="node">
<title>1990979325152</title>
<ellipse fill="white" stroke="black" cx="3064.25" cy="-99" rx="27" ry="27"/>
</g>
<!-- 1990979337536&#45;&gt;1990979325152 -->
<g id="edge38" class="edge">
<title>1990979337536&#45;&gt;1990979325152</title>
<path fill="none" stroke="black" d="M2996.83,-99C3006.32,-99 3016.19,-99 3025.32,-99"/>
<polygon fill="black" stroke="black" points="3025.29,-102.5 3035.29,-99 3025.29,-95.5 3025.29,-102.5"/>
</g>
<!-- 1990976887200 -->
<g id="node18" class="node">
<title>1990976887200</title>
<polygon fill="black" stroke="black" points="3181.25,-117 3127.25,-117 3127.25,-81 3181.25,-81 3181.25,-117"/>
</g>
<!-- 1990971037152 -->
<g id="node40" class="node">
<title>1990971037152</title>
<ellipse fill="white" stroke="black" cx="3248.25" cy="-99" rx="27" ry="27"/>
<ellipse fill="none" stroke="black" cx="3248.25" cy="-99" rx="31" ry="31"/>
<text text-anchor="start" x="3231.75" y="-83.6" font-family="Times New Roman,serif" font-size="32.00">■</text>
</g>
<!-- 1990976887200&#45;&gt;1990971037152 -->
<g id="edge42" class="edge">
<title>1990976887200&#45;&gt;1990971037152</title>
<path fill="none" stroke="black" d="M3181.37,-99C3188.88,-99 3197.26,-99 3205.47,-99"/>
<polygon fill="black" stroke="black" points="3205.33,-102.5 3215.33,-99 3205.33,-95.5 3205.33,-102.5"/>
</g>
<!-- 1990971032736 -->
<g id="node19" class="node">
<title>1990971032736</title>
<ellipse fill="white" stroke="black" cx="27" cy="-99" rx="27" ry="27"/>
<text text-anchor="start" x="9.75" y="-81.7" font-family="Times New Roman,serif" font-size="34.00">●</text>
</g>
<!-- 1990971032736&#45;&gt;1990981664304 -->
<g id="edge1" class="edge">
<title>1990971032736&#45;&gt;1990981664304</title>
<path fill="none" stroke="black" d="M54.23,-99C61.58,-99 69.85,-99 78.22,-99"/>
<polygon fill="black" stroke="black" points="78.09,-102.5 88.09,-99 78.09,-95.5 78.09,-102.5"/>
</g>
<!-- 1990981661088&#45;&gt;1990981658976 -->
<g id="edge3" class="edge">
<title>1990981661088&#45;&gt;1990981658976</title>
<path fill="none" stroke="black" d="M270.52,-99C278,-99 286.4,-99 294.76,-99"/>
<polygon fill="black" stroke="black" points="294.53,-102.5 304.53,-99 294.53,-95.5 294.53,-102.5"/>
</g>
<!-- 1990978397408&#45;&gt;1990978392992 -->
<g id="edge5" class="edge">
<title>1990978397408&#45;&gt;1990978392992</title>
<path fill="none" stroke="black" d="M472.67,-99C479.98,-99 488.2,-99 496.53,-99"/>
<polygon fill="black" stroke="black" points="496.36,-102.5 506.36,-99 496.36,-95.5 496.36,-102.5"/>
</g>
<!-- 1990978402928&#45;&gt;1990977401008 -->
<g id="edge7" class="edge">
<title>1990978402928&#45;&gt;1990977401008</title>
<path fill="none" stroke="black" d="M690.32,-99C697.65,-99 705.93,-99 714.35,-99"/>
<polygon fill="black" stroke="black" points="714.33,-102.5 724.33,-99 714.33,-95.5 714.33,-102.5"/>
</g>
<!-- 1990978089856&#45;&gt;1990978078240 -->
<g id="edge9" class="edge">
<title>1990978089856&#45;&gt;1990978078240</title>
<path fill="none" stroke="black" d="M914.17,-99C921.47,-99 929.69,-99 938.02,-99"/>
<polygon fill="black" stroke="black" points="937.88,-102.5 947.88,-99 937.88,-95.5 937.88,-102.5"/>
</g>
<!-- 1990978084576&#45;&gt;1990978089808 -->
<g id="edge11" class="edge">
<title>1990978084576&#45;&gt;1990978089808</title>
<path fill="none" stroke="black" d="M1134.25,-99C1141.6,-99 1149.86,-99 1158.19,-99"/>
<polygon fill="black" stroke="black" points="1158,-102.5 1168,-99 1158,-95.5 1158,-102.5"/>
</g>
<!-- 1990978085152&#45;&gt;1990978082800 -->
<g id="edge13" class="edge">
<title>1990978085152&#45;&gt;1990978082800</title>
<path fill="none" stroke="black" d="M1348.02,-99C1355.5,-99 1363.9,-99 1372.26,-99"/>
<polygon fill="black" stroke="black" points="1372.03,-102.5 1382.03,-99 1372.03,-95.5 1372.03,-102.5"/>
</g>
<!-- 1990975752096&#45;&gt;1990979093664 -->
<g id="edge17" class="edge">
<title>1990975752096&#45;&gt;1990979093664</title>
<path fill="none" stroke="black" d="M1550.04,-135C1558.68,-135 1568.67,-135 1578.78,-135"/>
<polygon fill="black" stroke="black" points="1578.66,-138.5 1588.66,-135 1578.66,-131.5 1578.66,-138.5"/>
</g>
<!-- 1990979105856&#45;&gt;1990979102592 -->
<g id="edge16" class="edge">
<title>1990979105856&#45;&gt;1990979102592</title>
<path fill="none" stroke="black" d="M1550.04,-63C1557.38,-63 1565.69,-63 1574.22,-63"/>
<polygon fill="black" stroke="black" points="1573.99,-66.5 1583.99,-63 1573.99,-59.5 1573.99,-66.5"/>
</g>
<!-- 1990975913472&#45;&gt;1990980120848 -->
<g id="edge20" class="edge">
<title>1990975913472&#45;&gt;1990980120848</title>
<path fill="none" stroke="black" d="M1784.55,-71.71C1792.47,-74.47 1801.53,-77.62 1810.61,-80.78"/>
<polygon fill="black" stroke="black" points="1809.2,-83.99 1819.79,-83.97 1811.49,-77.38 1809.2,-83.99"/>
</g>
<!-- 1990975910352&#45;&gt;1990980120848 -->
<g id="edge21" class="edge">
<title>1990975910352&#45;&gt;1990980120848</title>
<path fill="none" stroke="black" d="M1784.55,-126.29C1792.47,-123.53 1801.53,-120.38 1810.61,-117.22"/>
<polygon fill="black" stroke="black" points="1811.49,-120.62 1819.79,-114.03 1809.2,-114.01 1811.49,-120.62"/>
</g>
<!-- 1990980116192&#45;&gt;1990980108896 -->
<g id="edge23" class="edge">
<title>1990980116192&#45;&gt;1990980108896</title>
<path fill="none" stroke="black" d="M1996.88,-99C2004.24,-99 2012.47,-99 2020.65,-99"/>
<polygon fill="black" stroke="black" points="2020.56,-102.5 2030.56,-99 2020.56,-95.5 2020.56,-102.5"/>
</g>
<!-- 1990980121808&#45;&gt;1990980122672 -->
<g id="edge25" class="edge">
<title>1990980121808&#45;&gt;1990980122672</title>
<path fill="none" stroke="black" d="M2195.96,-99C2203.17,-99 2211.32,-99 2219.69,-99"/>
<polygon fill="black" stroke="black" points="2219.67,-102.5 2229.67,-99 2219.67,-95.5 2219.67,-102.5"/>
</g>
<!-- 1990980110912&#45;&gt;1990980122048 -->
<g id="edge27" class="edge">
<title>1990980110912&#45;&gt;1990980122048</title>
<path fill="none" stroke="black" d="M2433.21,-99C2440.57,-99 2448.83,-99 2457.12,-99"/>
<polygon fill="black" stroke="black" points="2456.86,-102.5 2466.86,-99 2456.86,-95.5 2456.86,-102.5"/>
</g>
<!-- 1990980113552&#45;&gt;1990980115328 -->
<g id="edge29" class="edge">
<title>1990980113552&#45;&gt;1990980115328</title>
<path fill="none" stroke="black" d="M2642.67,-99C2649.98,-99 2658.2,-99 2666.53,-99"/>
<polygon fill="black" stroke="black" points="2666.36,-102.5 2676.36,-99 2666.36,-95.5 2666.36,-102.5"/>
</g>
<!-- 1990980123584&#45;&gt;1990980113408 -->
<g id="edge33" class="edge">
<title>1990980123584&#45;&gt;1990980113408</title>
<path fill="none" stroke="black" d="M2860.35,-171C2868.65,-171 2878.17,-171 2887.81,-171"/>
<polygon fill="black" stroke="black" points="2887.59,-174.5 2897.59,-171 2887.59,-167.5 2887.59,-174.5"/>
</g>
<!-- 1990979326544&#45;&gt;1990979337536 -->
<g id="edge35" class="edge">
<title>1990979326544&#45;&gt;1990979337536</title>
<path fill="none" stroke="black" d="M2860.35,-99C2869.02,-99 2879.04,-99 2889.12,-99"/>
<polygon fill="black" stroke="black" points="2888.95,-102.5 2898.95,-99 2888.95,-95.5 2888.95,-102.5"/>
</g>
<!-- 1990980108656&#45;&gt;1990979328416 -->
<g id="edge34" class="edge">
<title>1990980108656&#45;&gt;1990979328416</title>
<path fill="none" stroke="black" d="M2860.35,-27C2867.74,-27 2876.1,-27 2884.65,-27"/>
<polygon fill="black" stroke="black" points="2884.41,-30.5 2894.41,-27 2884.41,-23.5 2884.41,-30.5"/>
</g>
<!-- 1990980109088&#45;&gt;1990976887200 -->
<g id="edge40" class="edge">
<title>1990980109088&#45;&gt;1990976887200</title>
<path fill="none" stroke="black" d="M3085.66,-154.3C3096.42,-145.5 3109.86,-134.5 3121.91,-124.64"/>
<polygon fill="black" stroke="black" points="3124.09,-127.38 3129.62,-118.34 3119.66,-121.96 3124.09,-127.38"/>
</g>
<!-- 1990979325152&#45;&gt;1990976887200 -->
<g id="edge39" class="edge">
<title>1990979325152&#45;&gt;1990976887200</title>
<path fill="none" stroke="black" d="M3091.65,-99C3099.14,-99 3107.43,-99 3115.45,-99"/>
<polygon fill="black" stroke="black" points="3115.35,-102.5 3125.35,-99 3115.35,-95.5 3115.35,-102.5"/>
</g>
<!-- 1990980110576&#45;&gt;1990976887200 -->
<g id="edge41" class="edge">
<title>1990980110576&#45;&gt;1990976887200</title>
<path fill="none" stroke="black" d="M3085.66,-43.7C3096.42,-52.5 3109.86,-63.5 3121.91,-73.36"/>
<polygon fill="black" stroke="black" points="3119.66,-76.04 3129.62,-79.66 3124.09,-70.62 3119.66,-76.04"/>
</g>
</g>
</svg>
