<?xml version="1.0" encoding="UTF-8" standalone="no"?>
<!DOCTYPE svg PUBLIC "-//W3C//DTD SVG 1.1//EN"
 "http://www.w3.org/Graphics/SVG/1.1/DTD/svg11.dtd">
<!-- Generated by graphviz version 11.0.0 (20240428.1522)
 -->
<!-- Title: imdf_net_1754052753.2094846 Pages: 1 -->
<svg width="3550pt" height="153pt"
 viewBox="0.00 0.00 3550.25 153.00" xmlns="http://www.w3.org/2000/svg" xmlns:xlink="http://www.w3.org/1999/xlink">
<g id="graph0" class="graph" transform="scale(1 1) rotate(0) translate(4 149)">
<title>imdf_net_1754052753.2094846</title>
<polygon fill="white" stroke="none" points="-4,4 -4,-149 3546.25,-149 3546.25,4 -4,4"/>
<!-- 1990981963888 -->
<g id="node1" class="node">
<title>1990981963888</title>
<polygon fill="white" stroke="black" points="175.75,-81 90,-81 90,-45 175.75,-45 175.75,-81"/>
<text text-anchor="middle" x="132.88" y="-57.98" font-family="Times New Roman,serif" font-size="12.00">Seed Selection</text>
</g>
<!-- 1990981969120 -->
<g id="node20" class="node">
<title>1990981969120</title>
<ellipse fill="white" stroke="black" cx="238.75" cy="-63" rx="27" ry="27"/>
</g>
<!-- 1990981963888&#45;&gt;1990981969120 -->
<g id="edge2" class="edge">
<title>1990981963888&#45;&gt;1990981969120</title>
<path fill="none" stroke="black" d="M176.12,-63C184.03,-63 192.25,-63 200.01,-63"/>
<polygon fill="black" stroke="black" points="199.82,-66.5 209.82,-63 199.82,-59.5 199.82,-66.5"/>
</g>
<!-- 1990981970272 -->
<g id="node2" class="node">
<title>1990981970272</title>
<polygon fill="white" stroke="black" points="379.25,-81 301.75,-81 301.75,-45 379.25,-45 379.25,-81"/>
<text text-anchor="middle" x="340.5" y="-57.98" font-family="Times New Roman,serif" font-size="12.00">Nutrient Mix</text>
</g>
<!-- 1990979729648 -->
<g id="node21" class="node">
<title>1990979729648</title>
<ellipse fill="white" stroke="black" cx="442.25" cy="-63" rx="27" ry="27"/>
</g>
<!-- 1990981970272&#45;&gt;1990979729648 -->
<g id="edge4" class="edge">
<title>1990981970272&#45;&gt;1990979729648</title>
<path fill="none" stroke="black" d="M379.5,-63C387.32,-63 395.56,-63 403.38,-63"/>
<polygon fill="black" stroke="black" points="403.3,-66.5 413.3,-63 403.3,-59.5 403.3,-66.5"/>
</g>
<!-- 1990979718752 -->
<g id="node3" class="node">
<title>1990979718752</title>
<polygon fill="white" stroke="black" points="590.25,-81 505.25,-81 505.25,-45 590.25,-45 590.25,-81"/>
<text text-anchor="middle" x="547.75" y="-57.98" font-family="Times New Roman,serif" font-size="12.00">Planting Setup</text>
</g>
<!-- 1990980578496 -->
<g id="node22" class="node">
<title>1990980578496</title>
<ellipse fill="white" stroke="black" cx="653.25" cy="-99" rx="27" ry="27"/>
</g>
<!-- 1990979718752&#45;&gt;1990980578496 -->
<g id="edge7" class="edge">
<title>1990979718752&#45;&gt;1990980578496</title>
<path fill="none" stroke="black" d="M590.55,-77.54C599.21,-80.55 608.26,-83.7 616.67,-86.62"/>
<polygon fill="black" stroke="black" points="615.25,-89.84 625.85,-89.82 617.55,-83.23 615.25,-89.84"/>
</g>
<!-- 1990979480816 -->
<g id="node23" class="node">
<title>1990979480816</title>
<ellipse fill="white" stroke="black" cx="653.25" cy="-27" rx="27" ry="27"/>
</g>
<!-- 1990979718752&#45;&gt;1990979480816 -->
<g id="edge6" class="edge">
<title>1990979718752&#45;&gt;1990979480816</title>
<path fill="none" stroke="black" d="M590.55,-48.46C599.21,-45.45 608.26,-42.3 616.67,-39.38"/>
<polygon fill="black" stroke="black" points="617.55,-42.77 625.85,-36.18 615.25,-36.16 617.55,-42.77"/>
</g>
<!-- 1990979479040 -->
<g id="node4" class="node">
<title>1990979479040</title>
<polygon fill="white" stroke="black" points="817.75,-45 716.25,-45 716.25,-9 817.75,-9 817.75,-45"/>
<text text-anchor="middle" x="767" y="-21.98" font-family="Times New Roman,serif" font-size="12.00">Regulation Check</text>
</g>
<!-- 1990977974976 -->
<g id="node25" class="node">
<title>1990977974976</title>
<ellipse fill="white" stroke="black" cx="986.25" cy="-27" rx="27" ry="27"/>
</g>
<!-- 1990979479040&#45;&gt;1990977974976 -->
<g id="edge10" class="edge">
<title>1990979479040&#45;&gt;1990977974976</title>
<path fill="none" stroke="black" d="M818.11,-27C857.52,-27 911.57,-27 947.4,-27"/>
<polygon fill="black" stroke="black" points="947.3,-30.5 957.3,-27 947.3,-23.5 947.3,-30.5"/>
</g>
<!-- 1990981248368 -->
<g id="node5" class="node">
<title>1990981248368</title>
<polygon fill="white" stroke="black" points="812.88,-113 721.12,-113 721.12,-77 812.88,-77 812.88,-113"/>
<text text-anchor="middle" x="767" y="-89.97" font-family="Times New Roman,serif" font-size="12.00">Climate Control</text>
</g>
<!-- 1990981244336 -->
<g id="node24" class="node">
<title>1990981244336</title>
<ellipse fill="white" stroke="black" cx="880.75" cy="-90" rx="27" ry="27"/>
</g>
<!-- 1990981248368&#45;&gt;1990981244336 -->
<g id="edge11" class="edge">
<title>1990981248368&#45;&gt;1990981244336</title>
<path fill="none" stroke="black" d="M813.13,-92.98C822.76,-92.55 832.82,-92.1 842.13,-91.68"/>
<polygon fill="black" stroke="black" points="842.08,-95.19 851.92,-91.25 841.77,-88.2 842.08,-95.19"/>
</g>
<!-- 1990981252736 -->
<g id="node6" class="node">
<title>1990981252736</title>
<polygon fill="white" stroke="black" points="1028.75,-108 943.75,-108 943.75,-72 1028.75,-72 1028.75,-108"/>
<text text-anchor="middle" x="986.25" y="-84.97" font-family="Times New Roman,serif" font-size="12.00">Water Cycling</text>
</g>
<!-- 1990981243280 -->
<g id="node26" class="node">
<title>1990981243280</title>
<ellipse fill="white" stroke="black" cx="1091.75" cy="-86" rx="27" ry="27"/>
</g>
<!-- 1990981252736&#45;&gt;1990981243280 -->
<g id="edge14" class="edge">
<title>1990981252736&#45;&gt;1990981243280</title>
<path fill="none" stroke="black" d="M1029.05,-88.38C1036.95,-88.08 1045.17,-87.76 1052.93,-87.46"/>
<polygon fill="black" stroke="black" points="1052.9,-90.97 1062.76,-87.08 1052.63,-83.97 1052.9,-90.97"/>
</g>
<!-- 1990982240016 -->
<g id="node7" class="node">
<title>1990982240016</title>
<polygon fill="white" stroke="black" points="2131.75,-73 2034,-73 2034,-37 2131.75,-37 2131.75,-73"/>
<text text-anchor="middle" x="2082.88" y="-49.98" font-family="Times New Roman,serif" font-size="12.00">Harvest Planning</text>
</g>
<!-- 1990982252448 -->
<g id="node27" class="node">
<title>1990982252448</title>
<ellipse fill="white" stroke="black" cx="2194.75" cy="-55" rx="27" ry="27"/>
</g>
<!-- 1990982240016&#45;&gt;1990982252448 -->
<g id="edge15" class="edge">
<title>1990982240016&#45;&gt;1990982252448</title>
<path fill="none" stroke="black" d="M2132.07,-55C2140.11,-55 2148.35,-55 2156.07,-55"/>
<polygon fill="black" stroke="black" points="2155.81,-58.5 2165.81,-55 2155.81,-51.5 2155.81,-58.5"/>
</g>
<!-- 1990982244336 -->
<g id="node8" class="node">
<title>1990982244336</title>
<polygon fill="white" stroke="black" points="2337.5,-73 2257.75,-73 2257.75,-37 2337.5,-37 2337.5,-73"/>
<text text-anchor="middle" x="2297.62" y="-49.98" font-family="Times New Roman,serif" font-size="12.00">Crop Harvest</text>
</g>
<!-- 1990982248848 -->
<g id="node29" class="node">
<title>1990982248848</title>
<ellipse fill="white" stroke="black" cx="2400.5" cy="-55" rx="27" ry="27"/>
</g>
<!-- 1990982244336&#45;&gt;1990982248848 -->
<g id="edge18" class="edge">
<title>1990982244336&#45;&gt;1990982248848</title>
<path fill="none" stroke="black" d="M2337.91,-55C2345.78,-55 2354.02,-55 2361.82,-55"/>
<polygon fill="black" stroke="black" points="2361.72,-58.5 2371.72,-55 2361.72,-51.5 2361.72,-58.5"/>
</g>
<!-- 1990981248704 -->
<g id="node9" class="node">
<title>1990981248704</title>
<polygon fill="white" stroke="black" points="1263.75,-102 1154.75,-102 1154.75,-66 1263.75,-66 1263.75,-102"/>
<text text-anchor="middle" x="1209.25" y="-78.97" font-family="Times New Roman,serif" font-size="12.00">Growth Monitoring</text>
</g>
<!-- 1990981254800 -->
<g id="node28" class="node">
<title>1990981254800</title>
<ellipse fill="white" stroke="black" cx="1326.75" cy="-82" rx="27" ry="27"/>
</g>
<!-- 1990981248704&#45;&gt;1990981254800 -->
<g id="edge19" class="edge">
<title>1990981248704&#45;&gt;1990981254800</title>
<path fill="none" stroke="black" d="M1263.94,-83.07C1272.16,-82.93 1280.48,-82.78 1288.25,-82.65"/>
<polygon fill="black" stroke="black" points="1288.07,-86.15 1298.01,-82.48 1287.95,-79.15 1288.07,-86.15"/>
</g>
<!-- 1990982247648 -->
<g id="node10" class="node">
<title>1990982247648</title>
<polygon fill="white" stroke="black" points="2543.25,-73 2463.5,-73 2463.5,-37 2543.25,-37 2543.25,-73"/>
<text text-anchor="middle" x="2503.38" y="-49.98" font-family="Times New Roman,serif" font-size="12.00">Yield Sorting</text>
</g>
<!-- 1990982249952 -->
<g id="node30" class="node">
<title>1990982249952</title>
<ellipse fill="white" stroke="black" cx="2606.25" cy="-55" rx="27" ry="27"/>
</g>
<!-- 1990982247648&#45;&gt;1990982249952 -->
<g id="edge22" class="edge">
<title>1990982247648&#45;&gt;1990982249952</title>
<path fill="none" stroke="black" d="M2543.66,-55C2551.53,-55 2559.77,-55 2567.57,-55"/>
<polygon fill="black" stroke="black" points="2567.47,-58.5 2577.47,-55 2567.47,-51.5 2567.47,-58.5"/>
</g>
<!-- 1990981249520 -->
<g id="node11" class="node">
<title>1990981249520</title>
<polygon fill="white" stroke="black" points="1474,-100 1389.75,-100 1389.75,-64 1474,-64 1474,-100"/>
<text text-anchor="middle" x="1431.88" y="-76.97" font-family="Times New Roman,serif" font-size="12.00">Pest Detection</text>
</g>
<!-- 1990981246448 -->
<g id="node31" class="node">
<title>1990981246448</title>
<ellipse fill="white" stroke="black" cx="1537" cy="-82" rx="27" ry="27"/>
</g>
<!-- 1990981249520&#45;&gt;1990981246448 -->
<g id="edge23" class="edge">
<title>1990981249520&#45;&gt;1990981246448</title>
<path fill="none" stroke="black" d="M1474.23,-82C1482.19,-82 1490.49,-82 1498.33,-82"/>
<polygon fill="black" stroke="black" points="1498.25,-85.5 1508.25,-82 1498.25,-78.5 1498.25,-85.5"/>
</g>
<!-- 1990978621312 -->
<g id="node12" class="node">
<title>1990978621312</title>
<polygon fill="white" stroke="black" points="1699.25,-100 1600,-100 1600,-64 1699.25,-64 1699.25,-100"/>
<text text-anchor="middle" x="1649.62" y="-76.97" font-family="Times New Roman,serif" font-size="12.00">Light Adjustment</text>
</g>
<!-- 1990978632928 -->
<g id="node33" class="node">
<title>1990978632928</title>
<ellipse fill="white" stroke="black" cx="1762.25" cy="-82" rx="27" ry="27"/>
</g>
<!-- 1990978621312&#45;&gt;1990978632928 -->
<g id="edge27" class="edge">
<title>1990978621312&#45;&gt;1990978632928</title>
<path fill="none" stroke="black" d="M1699.47,-82C1707.54,-82 1715.8,-82 1723.54,-82"/>
<polygon fill="black" stroke="black" points="1723.3,-85.5 1733.3,-82 1723.3,-78.5 1723.3,-85.5"/>
</g>
<!-- 1990982249616 -->
<g id="node13" class="node">
<title>1990982249616</title>
<polygon fill="white" stroke="black" points="2759.5,-73 2669.25,-73 2669.25,-37 2759.5,-37 2759.5,-73"/>
<text text-anchor="middle" x="2714.38" y="-49.98" font-family="Times New Roman,serif" font-size="12.00">Packaging Prep</text>
</g>
<!-- 1990982245536 -->
<g id="node32" class="node">
<title>1990982245536</title>
<ellipse fill="white" stroke="black" cx="2822.5" cy="-55" rx="27" ry="27"/>
</g>
<!-- 1990982249616&#45;&gt;1990982245536 -->
<g id="edge26" class="edge">
<title>1990982249616&#45;&gt;1990982245536</title>
<path fill="none" stroke="black" d="M2759.77,-55C2767.76,-55 2776.03,-55 2783.81,-55"/>
<polygon fill="black" stroke="black" points="2783.64,-58.5 2793.64,-55 2783.64,-51.5 2783.64,-58.5"/>
</g>
<!-- 1990982246640 -->
<g id="node14" class="node">
<title>1990982246640</title>
<polygon fill="white" stroke="black" points="2981.75,-73 2885.5,-73 2885.5,-37 2981.75,-37 2981.75,-73"/>
<text text-anchor="middle" x="2933.62" y="-49.98" font-family="Times New Roman,serif" font-size="12.00">Distribution Plan</text>
</g>
<!-- 1990982247888 -->
<g id="node35" class="node">
<title>1990982247888</title>
<ellipse fill="white" stroke="black" cx="3044.75" cy="-55" rx="27" ry="27"/>
</g>
<!-- 1990982246640&#45;&gt;1990982247888 -->
<g id="edge31" class="edge">
<title>1990982246640&#45;&gt;1990982247888</title>
<path fill="none" stroke="black" d="M2982.17,-55C2990.09,-55 2998.2,-55 3005.84,-55"/>
<polygon fill="black" stroke="black" points="3005.83,-58.5 3015.83,-55 3005.83,-51.5 3005.83,-58.5"/>
</g>
<!-- 1990978632688 -->
<g id="node15" class="node">
<title>1990978632688</title>
<polygon fill="white" stroke="black" points="1908,-100 1825.25,-100 1825.25,-64 1908,-64 1908,-100"/>
<text text-anchor="middle" x="1866.62" y="-76.97" font-family="Times New Roman,serif" font-size="12.00">Data Analysis</text>
</g>
<!-- 1990982246064 -->
<g id="node34" class="node">
<title>1990982246064</title>
<ellipse fill="white" stroke="black" cx="1971" cy="-82" rx="27" ry="27"/>
</g>
<!-- 1990978632688&#45;&gt;1990982246064 -->
<g id="edge30" class="edge">
<title>1990978632688&#45;&gt;1990982246064</title>
<path fill="none" stroke="black" d="M1908.38,-82C1916.23,-82 1924.42,-82 1932.17,-82"/>
<polygon fill="black" stroke="black" points="1931.99,-85.5 1941.99,-82 1931.99,-78.5 1931.99,-85.5"/>
</g>
<!-- 1990979474432 -->
<g id="node16" class="node">
<title>1990979474432</title>
<polygon fill="black" stroke="black" points="2109.88,-127 2055.88,-127 2055.88,-91 2109.88,-91 2109.88,-127"/>
</g>
<!-- 1990979474432&#45;&gt;1990980578496 -->
<g id="edge35" class="edge">
<title>1990979474432&#45;&gt;1990980578496</title>
<path fill="none" stroke="black" d="M2055.39,-116.37C2015.16,-126.9 1936.08,-145 1867.62,-145 879.75,-145 879.75,-145 879.75,-145 806.37,-145 787.4,-139.98 716.25,-122 707.33,-119.75 697.91,-116.65 689.19,-113.46"/>
<polygon fill="black" stroke="black" points="690.61,-110.25 680.02,-109.96 688.11,-116.79 690.61,-110.25"/>
</g>
<!-- 1990982243280 -->
<g id="node17" class="node">
<title>1990982243280</title>
<polygon fill="white" stroke="black" points="3204,-73 3107.75,-73 3107.75,-37 3204,-37 3204,-73"/>
<text text-anchor="middle" x="3155.88" y="-49.98" font-family="Times New Roman,serif" font-size="12.00">Waste Recycling</text>
</g>
<!-- 1990982253936 -->
<g id="node36" class="node">
<title>1990982253936</title>
<ellipse fill="white" stroke="black" cx="3267" cy="-55" rx="27" ry="27"/>
</g>
<!-- 1990982243280&#45;&gt;1990982253936 -->
<g id="edge36" class="edge">
<title>1990982243280&#45;&gt;1990982253936</title>
<path fill="none" stroke="black" d="M3204.42,-55C3212.34,-55 3220.45,-55 3228.09,-55"/>
<polygon fill="black" stroke="black" points="3228.08,-58.5 3238.08,-55 3228.08,-51.5 3228.08,-58.5"/>
</g>
<!-- 1990982249856 -->
<g id="node18" class="node">
<title>1990982249856</title>
<polygon fill="white" stroke="black" points="3444.25,-73 3330,-73 3330,-37 3444.25,-37 3444.25,-73"/>
<text text-anchor="middle" x="3387.12" y="-49.98" font-family="Times New Roman,serif" font-size="12.00">System Maintenance</text>
</g>
<!-- 1990976974544 -->
<g id="node37" class="node">
<title>1990976974544</title>
<ellipse fill="white" stroke="black" cx="3511.25" cy="-55" rx="27" ry="27"/>
<ellipse fill="none" stroke="black" cx="3511.25" cy="-55" rx="31" ry="31"/>
<text text-anchor="start" x="3494.75" y="-39.6" font-family="Times New Roman,serif" font-size="32.00">■</text>
</g>
<!-- 1990982249856&#45;&gt;1990976974544 -->
<g id="edge38" class="edge">
<title>1990982249856&#45;&gt;1990976974544</title>
<path fill="none" stroke="black" d="M3444.54,-55C3452.67,-55 3460.92,-55 3468.69,-55"/>
<polygon fill="black" stroke="black" points="3468.54,-58.5 3478.54,-55 3468.54,-51.5 3468.54,-58.5"/>
</g>
<!-- 1990976970224 -->
<g id="node19" class="node">
<title>1990976970224</title>
<ellipse fill="white" stroke="black" cx="27" cy="-63" rx="27" ry="27"/>
<text text-anchor="start" x="9.75" y="-45.7" font-family="Times New Roman,serif" font-size="34.00">●</text>
</g>
<!-- 1990976970224&#45;&gt;1990981963888 -->
<g id="edge1" class="edge">
<title>1990976970224&#45;&gt;1990981963888</title>
<path fill="none" stroke="black" d="M54.48,-63C61.84,-63 70.1,-63 78.41,-63"/>
<polygon fill="black" stroke="black" points="78.19,-66.5 88.19,-63 78.19,-59.5 78.19,-66.5"/>
</g>
<!-- 1990981969120&#45;&gt;1990981970272 -->
<g id="edge3" class="edge">
<title>1990981969120&#45;&gt;1990981970272</title>
<path fill="none" stroke="black" d="M266.22,-63C273.52,-63 281.68,-63 289.83,-63"/>
<polygon fill="black" stroke="black" points="289.75,-66.5 299.75,-63 289.75,-59.5 289.75,-66.5"/>
</g>
<!-- 1990979729648&#45;&gt;1990979718752 -->
<g id="edge5" class="edge">
<title>1990979729648&#45;&gt;1990979718752</title>
<path fill="none" stroke="black" d="M469.64,-63C477.05,-63 485.38,-63 493.76,-63"/>
<polygon fill="black" stroke="black" points="493.61,-66.5 503.61,-63 493.61,-59.5 493.61,-66.5"/>
</g>
<!-- 1990980578496&#45;&gt;1990981248368 -->
<g id="edge8" class="edge">
<title>1990980578496&#45;&gt;1990981248368</title>
<path fill="none" stroke="black" d="M680.73,-98.05C689.46,-97.74 699.51,-97.38 709.6,-97.02"/>
<polygon fill="black" stroke="black" points="709.54,-100.52 719.4,-96.67 709.29,-93.53 709.54,-100.52"/>
</g>
<!-- 1990979480816&#45;&gt;1990979479040 -->
<g id="edge9" class="edge">
<title>1990979480816&#45;&gt;1990979479040</title>
<path fill="none" stroke="black" d="M680.73,-27C688.01,-27 696.22,-27 704.59,-27"/>
<polygon fill="black" stroke="black" points="704.53,-30.5 714.53,-27 704.53,-23.5 704.53,-30.5"/>
</g>
<!-- 1990981244336&#45;&gt;1990981252736 -->
<g id="edge12" class="edge">
<title>1990981244336&#45;&gt;1990981252736</title>
<path fill="none" stroke="black" d="M908.14,-90C915.55,-90 923.88,-90 932.26,-90"/>
<polygon fill="black" stroke="black" points="932.11,-93.5 942.11,-90 932.11,-86.5 932.11,-93.5"/>
</g>
<!-- 1990977974976&#45;&gt;1990982240016 -->
<g id="edge13" class="edge">
<title>1990977974976&#45;&gt;1990982240016</title>
<path fill="none" stroke="black" d="M1013.45,-27C1054.82,-27 1137.84,-27 1208.25,-27 1208.25,-27 1208.25,-27 1867.62,-27 1920.31,-27 1979.67,-35.43 2022.53,-43.04"/>
<polygon fill="black" stroke="black" points="2021.65,-46.43 2032.12,-44.78 2022.91,-39.55 2021.65,-46.43"/>
</g>
<!-- 1990981243280&#45;&gt;1990981248704 -->
<g id="edge17" class="edge">
<title>1990981243280&#45;&gt;1990981248704</title>
<path fill="none" stroke="black" d="M1118.96,-85.55C1126.27,-85.42 1134.56,-85.28 1143.06,-85.13"/>
<polygon fill="black" stroke="black" points="1142.85,-88.63 1152.79,-84.96 1142.73,-81.63 1142.85,-88.63"/>
</g>
<!-- 1990982252448&#45;&gt;1990982244336 -->
<g id="edge16" class="edge">
<title>1990982252448&#45;&gt;1990982244336</title>
<path fill="none" stroke="black" d="M2221.99,-55C2229.46,-55 2237.85,-55 2246.24,-55"/>
<polygon fill="black" stroke="black" points="2246.08,-58.5 2256.08,-55 2246.08,-51.5 2246.08,-58.5"/>
</g>
<!-- 1990981254800&#45;&gt;1990981249520 -->
<g id="edge20" class="edge">
<title>1990981254800&#45;&gt;1990981249520</title>
<path fill="none" stroke="black" d="M1354.04,-82C1361.42,-82 1369.73,-82 1378.07,-82"/>
<polygon fill="black" stroke="black" points="1377.89,-85.5 1387.89,-82 1377.89,-78.5 1377.89,-85.5"/>
</g>
<!-- 1990982248848&#45;&gt;1990982247648 -->
<g id="edge21" class="edge">
<title>1990982248848&#45;&gt;1990982247648</title>
<path fill="none" stroke="black" d="M2427.74,-55C2435.21,-55 2443.6,-55 2451.99,-55"/>
<polygon fill="black" stroke="black" points="2451.83,-58.5 2461.83,-55 2451.83,-51.5 2451.83,-58.5"/>
</g>
<!-- 1990982249952&#45;&gt;1990982249616 -->
<g id="edge24" class="edge">
<title>1990982249952&#45;&gt;1990982249616</title>
<path fill="none" stroke="black" d="M2633.48,-55C2640.83,-55 2649.1,-55 2657.47,-55"/>
<polygon fill="black" stroke="black" points="2657.34,-58.5 2667.34,-55 2657.34,-51.5 2657.34,-58.5"/>
</g>
<!-- 1990981246448&#45;&gt;1990978621312 -->
<g id="edge25" class="edge">
<title>1990981246448&#45;&gt;1990978621312</title>
<path fill="none" stroke="black" d="M1564.5,-82C1571.79,-82 1580.02,-82 1588.39,-82"/>
<polygon fill="black" stroke="black" points="1588.32,-85.5 1598.32,-82 1588.32,-78.5 1588.32,-85.5"/>
</g>
<!-- 1990982245536&#45;&gt;1990982246640 -->
<g id="edge28" class="edge">
<title>1990982245536&#45;&gt;1990982246640</title>
<path fill="none" stroke="black" d="M2849.92,-55C2857.2,-55 2865.41,-55 2873.75,-55"/>
<polygon fill="black" stroke="black" points="2873.62,-58.5 2883.62,-55 2873.62,-51.5 2873.62,-58.5"/>
</g>
<!-- 1990978632928&#45;&gt;1990978632688 -->
<g id="edge29" class="edge">
<title>1990978632928&#45;&gt;1990978632688</title>
<path fill="none" stroke="black" d="M1789.61,-82C1797.03,-82 1805.36,-82 1813.71,-82"/>
<polygon fill="black" stroke="black" points="1813.52,-85.5 1823.52,-82 1813.52,-78.5 1813.52,-85.5"/>
</g>
<!-- 1990982246064&#45;&gt;1990982240016 -->
<g id="edge32" class="edge">
<title>1990982246064&#45;&gt;1990982240016</title>
<path fill="none" stroke="black" d="M1997.76,-75.67C2005.34,-73.81 2013.97,-71.69 2022.74,-69.53"/>
<polygon fill="black" stroke="black" points="2023.51,-72.95 2032.39,-67.16 2021.84,-66.15 2023.51,-72.95"/>
</g>
<!-- 1990982246064&#45;&gt;1990979474432 -->
<g id="edge34" class="edge">
<title>1990982246064&#45;&gt;1990979474432</title>
<path fill="none" stroke="black" d="M1997.76,-88.33C2011.75,-91.77 2029.28,-96.08 2044.72,-99.87"/>
<polygon fill="black" stroke="black" points="2043.5,-103.17 2054.04,-102.16 2045.17,-96.38 2043.5,-103.17"/>
</g>
<!-- 1990982247888&#45;&gt;1990982243280 -->
<g id="edge33" class="edge">
<title>1990982247888&#45;&gt;1990982243280</title>
<path fill="none" stroke="black" d="M3072.17,-55C3079.45,-55 3087.66,-55 3096,-55"/>
<polygon fill="black" stroke="black" points="3095.87,-58.5 3105.87,-55 3095.87,-51.5 3095.87,-58.5"/>
</g>
<!-- 1990982253936&#45;&gt;1990982249856 -->
<g id="edge37" class="edge">
<title>1990982253936&#45;&gt;1990982249856</title>
<path fill="none" stroke="black" d="M3294.22,-55C3301.49,-55 3309.75,-55 3318.25,-55"/>
<polygon fill="black" stroke="black" points="3318,-58.5 3328,-55 3318,-51.5 3318,-58.5"/>
</g>
</g>
</svg>
