<?xml version="1.0" encoding="UTF-8" standalone="no"?>
<!DOCTYPE svg PUBLIC "-//W3C//DTD SVG 1.1//EN"
 "http://www.w3.org/Graphics/SVG/1.1/DTD/svg11.dtd">
<!-- Generated by graphviz version 11.0.0 (20240428.1522)
 -->
<!-- Title: imdf_net_1754052773.7596085 Pages: 1 -->
<svg width="2940pt" height="272pt"
 viewBox="0.00 0.00 2939.75 272.00" xmlns="http://www.w3.org/2000/svg" xmlns:xlink="http://www.w3.org/1999/xlink">
<g id="graph0" class="graph" transform="scale(1 1) rotate(0) translate(4 268)">
<title>imdf_net_1754052773.7596085</title>
<polygon fill="white" stroke="none" points="-4,4 -4,-268 2935.75,-268 2935.75,4 -4,4"/>
<!-- 1990976666704 -->
<g id="node1" class="node">
<title>1990976666704</title>
<polygon fill="white" stroke="black" points="169,-255 90,-255 90,-219 169,-219 169,-255"/>
<text text-anchor="middle" x="129.5" y="-231.97" font-family="Times New Roman,serif" font-size="12.00">Gather Specs</text>
</g>
<!-- 1990976652304 -->
<g id="node19" class="node">
<title>1990976652304</title>
<ellipse fill="white" stroke="black" cx="232" cy="-237" rx="27" ry="27"/>
</g>
<!-- 1990976666704&#45;&gt;1990976652304 -->
<g id="edge2" class="edge">
<title>1990976666704&#45;&gt;1990976652304</title>
<path fill="none" stroke="black" d="M169.36,-237C177.21,-237 185.45,-237 193.26,-237"/>
<polygon fill="black" stroke="black" points="193.16,-240.5 203.16,-237 193.16,-233.5 193.16,-240.5"/>
</g>
<!-- 1990976667520 -->
<g id="node2" class="node">
<title>1990976667520</title>
<polygon fill="white" stroke="black" points="377,-226 295,-226 295,-190 377,-190 377,-226"/>
<text text-anchor="middle" x="336" y="-202.97" font-family="Times New Roman,serif" font-size="12.00">Adapt Design</text>
</g>
<!-- 1990976654704 -->
<g id="node20" class="node">
<title>1990976654704</title>
<ellipse fill="white" stroke="black" cx="440" cy="-202" rx="27" ry="27"/>
</g>
<!-- 1990976667520&#45;&gt;1990976654704 -->
<g id="edge4" class="edge">
<title>1990976667520&#45;&gt;1990976654704</title>
<path fill="none" stroke="black" d="M377.31,-205.63C385.23,-205.16 393.5,-204.68 401.32,-204.22"/>
<polygon fill="black" stroke="black" points="401.46,-207.71 411.23,-203.63 401.05,-200.73 401.46,-207.71"/>
</g>
<!-- 1990976657728 -->
<g id="node3" class="node">
<title>1990976657728</title>
<polygon fill="black" stroke="black" points="557,-220 503,-220 503,-184 557,-184 557,-220"/>
</g>
<!-- 1990981075504 -->
<g id="node23" class="node">
<title>1990981075504</title>
<ellipse fill="white" stroke="black" cx="624" cy="-202" rx="27" ry="27"/>
<ellipse fill="none" stroke="black" cx="624" cy="-202" rx="31" ry="31"/>
<text text-anchor="start" x="607.5" y="-186.6" font-family="Times New Roman,serif" font-size="32.00">■</text>
</g>
<!-- 1990976657728&#45;&gt;1990981075504 -->
<g id="edge9" class="edge">
<title>1990976657728&#45;&gt;1990981075504</title>
<path fill="none" stroke="black" d="M557.12,-202C564.63,-202 573.01,-202 581.22,-202"/>
<polygon fill="black" stroke="black" points="581.08,-205.5 591.08,-202 581.08,-198.5 581.08,-205.5"/>
</g>
<!-- 1990976666608 -->
<g id="node4" class="node">
<title>1990976666608</title>
<polygon fill="black" stroke="black" points="557,-144 503,-144 503,-108 557,-108 557,-144"/>
</g>
<!-- 1990981714528 -->
<g id="node21" class="node">
<title>1990981714528</title>
<ellipse fill="white" stroke="black" cx="624" cy="-126" rx="27" ry="27"/>
</g>
<!-- 1990976666608&#45;&gt;1990981714528 -->
<g id="edge8" class="edge">
<title>1990976666608&#45;&gt;1990981714528</title>
<path fill="none" stroke="black" d="M557.12,-126C565.96,-126 576.01,-126 585.55,-126"/>
<polygon fill="black" stroke="black" points="585.3,-129.5 595.3,-126 585.3,-122.5 585.3,-129.5"/>
</g>
<!-- 1990976662384 -->
<g id="node22" class="node">
<title>1990976662384</title>
<ellipse fill="white" stroke="black" cx="624" cy="-54" rx="27" ry="27"/>
</g>
<!-- 1990976666608&#45;&gt;1990976662384 -->
<g id="edge7" class="edge">
<title>1990976666608&#45;&gt;1990976662384</title>
<path fill="none" stroke="black" d="M554.22,-107.83C566.04,-98.58 580.55,-87.22 593.19,-77.33"/>
<polygon fill="black" stroke="black" points="595.08,-80.29 600.8,-71.37 590.77,-74.78 595.08,-80.29"/>
</g>
<!-- 1990976660656 -->
<g id="node5" class="node">
<title>1990976660656</title>
<polygon fill="white" stroke="black" points="773.75,-72 698.5,-72 698.5,-36 773.75,-36 773.75,-72"/>
<text text-anchor="middle" x="736.12" y="-48.98" font-family="Times New Roman,serif" font-size="12.00">Source Parts</text>
</g>
<!-- 1990976663104 -->
<g id="node25" class="node">
<title>1990976663104</title>
<ellipse fill="white" stroke="black" cx="844.25" cy="-54" rx="27" ry="27"/>
</g>
<!-- 1990976660656&#45;&gt;1990976663104 -->
<g id="edge13" class="edge">
<title>1990976660656&#45;&gt;1990976663104</title>
<path fill="none" stroke="black" d="M774.24,-54C784.38,-54 795.38,-54 805.55,-54"/>
<polygon fill="black" stroke="black" points="805.49,-57.5 815.49,-54 805.49,-50.5 805.49,-57.5"/>
</g>
<!-- 1990980243040 -->
<g id="node6" class="node">
<title>1990980243040</title>
<polygon fill="white" stroke="black" points="781.25,-147 691,-147 691,-111 781.25,-111 781.25,-147"/>
<text text-anchor="middle" x="736.12" y="-123.97" font-family="Times New Roman,serif" font-size="12.00">Create Manuals</text>
</g>
<!-- 1990981476640 -->
<g id="node24" class="node">
<title>1990981476640</title>
<ellipse fill="white" stroke="black" cx="954.62" cy="-150" rx="27" ry="27"/>
</g>
<!-- 1990980243040&#45;&gt;1990981476640 -->
<g id="edge12" class="edge">
<title>1990980243040&#45;&gt;1990981476640</title>
<path fill="none" stroke="black" d="M781.72,-133.33C821.37,-137.17 878.7,-142.73 916.06,-146.36"/>
<polygon fill="black" stroke="black" points="915.64,-149.83 925.94,-147.31 916.32,-142.87 915.64,-149.83"/>
</g>
<!-- 1990980246784 -->
<g id="node7" class="node">
<title>1990980246784</title>
<polygon fill="white" stroke="black" points="2707.25,-172 2632,-172 2632,-136 2707.25,-136 2707.25,-172"/>
<text text-anchor="middle" x="2669.62" y="-148.97" font-family="Times New Roman,serif" font-size="12.00">Ship Drones</text>
</g>
<!-- 1990980251488 -->
<g id="node27" class="node">
<title>1990980251488</title>
<ellipse fill="white" stroke="black" cx="2770.25" cy="-194" rx="27" ry="27"/>
</g>
<!-- 1990980246784&#45;&gt;1990980251488 -->
<g id="edge16" class="edge">
<title>1990980246784&#45;&gt;1990980251488</title>
<path fill="none" stroke="black" d="M2707.63,-169.01C2716.39,-172.56 2725.71,-176.34 2734.37,-179.85"/>
<polygon fill="black" stroke="black" points="2732.92,-183.04 2743.51,-183.56 2735.55,-176.56 2732.92,-183.04"/>
</g>
<!-- 1990976652496 -->
<g id="node8" class="node">
<title>1990976652496</title>
<polygon fill="white" stroke="black" points="1002,-72 907.25,-72 907.25,-36 1002,-36 1002,-72"/>
<text text-anchor="middle" x="954.62" y="-48.98" font-family="Times New Roman,serif" font-size="12.00">Component Test</text>
</g>
<!-- 1990976653408 -->
<g id="node26" class="node">
<title>1990976653408</title>
<ellipse fill="white" stroke="black" cx="1065" cy="-54" rx="27" ry="27"/>
</g>
<!-- 1990976652496&#45;&gt;1990976653408 -->
<g id="edge17" class="edge">
<title>1990976652496&#45;&gt;1990976653408</title>
<path fill="none" stroke="black" d="M1002.21,-54C1010.29,-54 1018.6,-54 1026.4,-54"/>
<polygon fill="black" stroke="black" points="1026.23,-57.5 1036.23,-54 1026.23,-50.5 1026.23,-57.5"/>
</g>
<!-- 1990979581952 -->
<g id="node9" class="node">
<title>1990979581952</title>
<polygon fill="white" stroke="black" points="1223.5,-72 1128,-72 1128,-36 1223.5,-36 1223.5,-72"/>
<text text-anchor="middle" x="1175.75" y="-48.98" font-family="Times New Roman,serif" font-size="12.00">Assemble Frame</text>
</g>
<!-- 1990977244720 -->
<g id="node28" class="node">
<title>1990977244720</title>
<ellipse fill="white" stroke="black" cx="1286.5" cy="-54" rx="27" ry="27"/>
</g>
<!-- 1990979581952&#45;&gt;1990977244720 -->
<g id="edge21" class="edge">
<title>1990979581952&#45;&gt;1990977244720</title>
<path fill="none" stroke="black" d="M1223.82,-54C1231.82,-54 1240.04,-54 1247.77,-54"/>
<polygon fill="black" stroke="black" points="1247.5,-57.5 1257.5,-54 1247.5,-50.5 1247.5,-57.5"/>
</g>
<!-- 1990980245632 -->
<g id="node10" class="node">
<title>1990980245632</title>
<polygon fill="white" stroke="black" points="2931.75,-239 2833.25,-239 2833.25,-203 2931.75,-203 2931.75,-239"/>
<text text-anchor="middle" x="2882.5" y="-215.97" font-family="Times New Roman,serif" font-size="12.00">Collect Feedback</text>
</g>
<!-- 1990980245632&#45;&gt;1990976652304 -->
<g id="edge20" class="edge">
<title>1990980245632&#45;&gt;1990976652304</title>
<path fill="none" stroke="black" d="M2832.99,-235.55C2790.57,-246.99 2727.08,-261 2670.62,-261 439,-261 439,-261 439,-261 379.56,-261 311.11,-251.02 269.99,-243.93"/>
<polygon fill="black" stroke="black" points="270.85,-240.53 260.39,-242.24 269.63,-247.42 270.85,-240.53"/>
</g>
<!-- 1990977245200 -->
<g id="node11" class="node">
<title>1990977245200</title>
<polygon fill="white" stroke="black" points="1442.75,-72 1349.5,-72 1349.5,-36 1442.75,-36 1442.75,-72"/>
<text text-anchor="middle" x="1396.12" y="-48.98" font-family="Times New Roman,serif" font-size="12.00">Install Firmware</text>
</g>
<!-- 1990977254032 -->
<g id="node29" class="node">
<title>1990977254032</title>
<ellipse fill="white" stroke="black" cx="1505.75" cy="-54" rx="27" ry="27"/>
</g>
<!-- 1990977245200&#45;&gt;1990977254032 -->
<g id="edge23" class="edge">
<title>1990977245200&#45;&gt;1990977254032</title>
<path fill="none" stroke="black" d="M1443.08,-54C1451.12,-54 1459.41,-54 1467.19,-54"/>
<polygon fill="black" stroke="black" points="1467.01,-57.5 1477.01,-54 1467.01,-50.5 1467.01,-57.5"/>
</g>
<!-- 1990977243760 -->
<g id="node12" class="node">
<title>1990977243760</title>
<polygon fill="white" stroke="black" points="1667.25,-72 1568.75,-72 1568.75,-36 1667.25,-36 1667.25,-72"/>
<text text-anchor="middle" x="1618" y="-48.98" font-family="Times New Roman,serif" font-size="12.00">Calibrate Sensors</text>
</g>
<!-- 1990977256816 -->
<g id="node30" class="node">
<title>1990977256816</title>
<ellipse fill="white" stroke="black" cx="1730.25" cy="-54" rx="27" ry="27"/>
</g>
<!-- 1990977243760&#45;&gt;1990977256816 -->
<g id="edge25" class="edge">
<title>1990977243760&#45;&gt;1990977256816</title>
<path fill="none" stroke="black" d="M1667.68,-54C1675.63,-54 1683.76,-54 1691.4,-54"/>
<polygon fill="black" stroke="black" points="1691.39,-57.5 1701.39,-54 1691.39,-50.5 1691.39,-57.5"/>
</g>
<!-- 1990978403024 -->
<g id="node13" class="node">
<title>1990978403024</title>
<polygon fill="white" stroke="black" points="1860.25,-72 1793.25,-72 1793.25,-36 1860.25,-36 1860.25,-72"/>
<text text-anchor="middle" x="1826.75" y="-48.98" font-family="Times New Roman,serif" font-size="12.00">Stress Test</text>
</g>
<!-- 1990978543184 -->
<g id="node31" class="node">
<title>1990978543184</title>
<ellipse fill="white" stroke="black" cx="1923.25" cy="-54" rx="27" ry="27"/>
</g>
<!-- 1990978403024&#45;&gt;1990978543184 -->
<g id="edge27" class="edge">
<title>1990978403024&#45;&gt;1990978543184</title>
<path fill="none" stroke="black" d="M1860.54,-54C1868.27,-54 1876.58,-54 1884.52,-54"/>
<polygon fill="black" stroke="black" points="1884.25,-57.5 1894.25,-54 1884.25,-50.5 1884.25,-57.5"/>
</g>
<!-- 1990978544480 -->
<g id="node14" class="node">
<title>1990978544480</title>
<polygon fill="white" stroke="black" points="2074.25,-72 1986.25,-72 1986.25,-36 2074.25,-36 2074.25,-72"/>
<text text-anchor="middle" x="2030.25" y="-48.98" font-family="Times New Roman,serif" font-size="12.00">Flight Simulate</text>
</g>
<!-- 1990978544000 -->
<g id="node32" class="node">
<title>1990978544000</title>
<ellipse fill="white" stroke="black" cx="2137.25" cy="-99" rx="27" ry="27"/>
</g>
<!-- 1990978544480&#45;&gt;1990978544000 -->
<g id="edge30" class="edge">
<title>1990978544480&#45;&gt;1990978544000</title>
<path fill="none" stroke="black" d="M2074.26,-72.43C2083.34,-76.32 2092.81,-80.38 2101.54,-84.12"/>
<polygon fill="black" stroke="black" points="2100.15,-87.34 2110.72,-88.06 2102.91,-80.9 2100.15,-87.34"/>
</g>
<!-- 1990978537712 -->
<g id="node33" class="node">
<title>1990978537712</title>
<ellipse fill="white" stroke="black" cx="2137.25" cy="-27" rx="27" ry="27"/>
</g>
<!-- 1990978544480&#45;&gt;1990978537712 -->
<g id="edge29" class="edge">
<title>1990978544480&#45;&gt;1990978537712</title>
<path fill="none" stroke="black" d="M2074.56,-42.86C2082.93,-40.71 2091.63,-38.47 2099.75,-36.39"/>
<polygon fill="black" stroke="black" points="2100.49,-39.81 2109.31,-33.93 2098.75,-33.03 2100.49,-39.81"/>
</g>
<!-- 1990978548512 -->
<g id="node15" class="node">
<title>1990978548512</title>
<polygon fill="white" stroke="black" points="2294.62,-45 2201.38,-45 2201.38,-9 2294.62,-9 2294.62,-45"/>
<text text-anchor="middle" x="2248" y="-21.98" font-family="Times New Roman,serif" font-size="12.00">Validate Battery</text>
</g>
<!-- 1990980242416 -->
<g id="node35" class="node">
<title>1990980242416</title>
<ellipse fill="white" stroke="black" cx="2358.75" cy="-27" rx="27" ry="27"/>
</g>
<!-- 1990978548512&#45;&gt;1990980242416 -->
<g id="edge33" class="edge">
<title>1990978548512&#45;&gt;1990980242416</title>
<path fill="none" stroke="black" d="M2295.12,-27C2303.44,-27 2312.03,-27 2320.08,-27"/>
<polygon fill="black" stroke="black" points="2319.87,-30.5 2329.87,-27 2319.87,-23.5 2319.87,-30.5"/>
</g>
<!-- 1990978536224 -->
<g id="node16" class="node">
<title>1990978536224</title>
<polygon fill="white" stroke="black" points="2295.75,-117 2200.25,-117 2200.25,-81 2295.75,-81 2295.75,-117"/>
<text text-anchor="middle" x="2248" y="-93.97" font-family="Times New Roman,serif" font-size="12.00">Check Accuracy</text>
</g>
<!-- 1990981473424 -->
<g id="node34" class="node">
<title>1990981473424</title>
<ellipse fill="white" stroke="black" cx="2358.75" cy="-99" rx="27" ry="27"/>
</g>
<!-- 1990978536224&#45;&gt;1990981473424 -->
<g id="edge34" class="edge">
<title>1990978536224&#45;&gt;1990981473424</title>
<path fill="none" stroke="black" d="M2296.07,-99C2304.07,-99 2312.29,-99 2320.02,-99"/>
<polygon fill="black" stroke="black" points="2319.75,-102.5 2329.75,-99 2319.75,-95.5 2319.75,-102.5"/>
</g>
<!-- 1990981720336 -->
<g id="node17" class="node">
<title>1990981720336</title>
<polygon fill="white" stroke="black" points="2506,-117 2421.75,-117 2421.75,-81 2506,-81 2506,-117"/>
<text text-anchor="middle" x="2463.88" y="-93.97" font-family="Times New Roman,serif" font-size="12.00">Package Units</text>
</g>
<!-- 1990981480144 -->
<g id="node36" class="node">
<title>1990981480144</title>
<ellipse fill="white" stroke="black" cx="2569" cy="-99" rx="27" ry="27"/>
</g>
<!-- 1990981720336&#45;&gt;1990981480144 -->
<g id="edge37" class="edge">
<title>1990981720336&#45;&gt;1990981480144</title>
<path fill="none" stroke="black" d="M2506.23,-99C2514.19,-99 2522.49,-99 2530.33,-99"/>
<polygon fill="black" stroke="black" points="2530.25,-102.5 2540.25,-99 2530.25,-95.5 2530.25,-102.5"/>
</g>
<!-- 1990981079152 -->
<g id="node18" class="node">
<title>1990981079152</title>
<ellipse fill="white" stroke="black" cx="27" cy="-237" rx="27" ry="27"/>
<text text-anchor="start" x="9.75" y="-219.7" font-family="Times New Roman,serif" font-size="34.00">●</text>
</g>
<!-- 1990981079152&#45;&gt;1990976666704 -->
<g id="edge1" class="edge">
<title>1990981079152&#45;&gt;1990976666704</title>
<path fill="none" stroke="black" d="M54.41,-237C61.84,-237 70.19,-237 78.52,-237"/>
<polygon fill="black" stroke="black" points="78.28,-240.5 88.28,-237 78.28,-233.5 78.28,-240.5"/>
</g>
<!-- 1990976652304&#45;&gt;1990976667520 -->
<g id="edge3" class="edge">
<title>1990976652304&#45;&gt;1990976667520</title>
<path fill="none" stroke="black" d="M258.48,-229.76C266.19,-227.56 274.96,-225.07 283.74,-222.57"/>
<polygon fill="black" stroke="black" points="284.67,-225.95 293.33,-219.85 282.75,-219.22 284.67,-225.95"/>
</g>
<!-- 1990976654704&#45;&gt;1990976657728 -->
<g id="edge5" class="edge">
<title>1990976654704&#45;&gt;1990976657728</title>
<path fill="none" stroke="black" d="M467.4,-202C474.89,-202 483.18,-202 491.2,-202"/>
<polygon fill="black" stroke="black" points="491.1,-205.5 501.1,-202 491.1,-198.5 491.1,-205.5"/>
</g>
<!-- 1990976654704&#45;&gt;1990976666608 -->
<g id="edge6" class="edge">
<title>1990976654704&#45;&gt;1990976666608</title>
<path fill="none" stroke="black" d="M460.97,-184.75C472.34,-174.93 486.8,-162.44 499.46,-151.51"/>
<polygon fill="black" stroke="black" points="501.46,-154.41 506.74,-145.23 496.88,-149.11 501.46,-154.41"/>
</g>
<!-- 1990981714528&#45;&gt;1990980243040 -->
<g id="edge10" class="edge">
<title>1990981714528&#45;&gt;1990980243040</title>
<path fill="none" stroke="black" d="M651.38,-126.72C659.88,-126.95 669.66,-127.22 679.46,-127.48"/>
<polygon fill="black" stroke="black" points="679.29,-130.98 689.39,-127.75 679.49,-123.98 679.29,-130.98"/>
</g>
<!-- 1990976662384&#45;&gt;1990976660656 -->
<g id="edge11" class="edge">
<title>1990976662384&#45;&gt;1990976660656</title>
<path fill="none" stroke="black" d="M651.38,-54C661.99,-54 674.57,-54 686.71,-54"/>
<polygon fill="black" stroke="black" points="686.62,-57.5 696.62,-54 686.62,-50.5 686.62,-57.5"/>
</g>
<!-- 1990981476640&#45;&gt;1990980246784 -->
<g id="edge14" class="edge">
<title>1990981476640&#45;&gt;1990980246784</title>
<path fill="none" stroke="black" d="M981.93,-150.79C1023.07,-151.96 1105.12,-154 1174.75,-154 1174.75,-154 1174.75,-154 2464.88,-154 2518.11,-154 2579.17,-154 2620.46,-154"/>
<polygon fill="black" stroke="black" points="2620.3,-157.5 2630.3,-154 2620.3,-150.5 2620.3,-157.5"/>
</g>
<!-- 1990976663104&#45;&gt;1990976652496 -->
<g id="edge15" class="edge">
<title>1990976663104&#45;&gt;1990976652496</title>
<path fill="none" stroke="black" d="M871.48,-54C878.81,-54 887.07,-54 895.45,-54"/>
<polygon fill="black" stroke="black" points="895.38,-57.5 905.38,-54 895.38,-50.5 895.38,-57.5"/>
</g>
<!-- 1990976653408&#45;&gt;1990979581952 -->
<g id="edge18" class="edge">
<title>1990976653408&#45;&gt;1990979581952</title>
<path fill="none" stroke="black" d="M1092.33,-54C1099.67,-54 1107.96,-54 1116.38,-54"/>
<polygon fill="black" stroke="black" points="1116.34,-57.5 1126.34,-54 1116.34,-50.5 1116.34,-57.5"/>
</g>
<!-- 1990980251488&#45;&gt;1990980245632 -->
<g id="edge19" class="edge">
<title>1990980251488&#45;&gt;1990980245632</title>
<path fill="none" stroke="black" d="M2796.82,-200.26C2804.51,-202.14 2813.29,-204.29 2822.21,-206.48"/>
<polygon fill="black" stroke="black" points="2821.09,-209.81 2831.63,-208.79 2822.75,-203.01 2821.09,-209.81"/>
</g>
<!-- 1990977244720&#45;&gt;1990977245200 -->
<g id="edge22" class="edge">
<title>1990977244720&#45;&gt;1990977245200</title>
<path fill="none" stroke="black" d="M1313.83,-54C1321.19,-54 1329.48,-54 1337.89,-54"/>
<polygon fill="black" stroke="black" points="1337.83,-57.5 1347.83,-54 1337.83,-50.5 1337.83,-57.5"/>
</g>
<!-- 1990977254032&#45;&gt;1990977243760 -->
<g id="edge24" class="edge">
<title>1990977254032&#45;&gt;1990977243760</title>
<path fill="none" stroke="black" d="M1533.16,-54C1540.43,-54 1548.62,-54 1556.97,-54"/>
<polygon fill="black" stroke="black" points="1556.86,-57.5 1566.86,-54 1556.86,-50.5 1556.86,-57.5"/>
</g>
<!-- 1990977256816&#45;&gt;1990978403024 -->
<g id="edge26" class="edge">
<title>1990977256816&#45;&gt;1990978403024</title>
<path fill="none" stroke="black" d="M1757.57,-54C1765,-54 1773.29,-54 1781.45,-54"/>
<polygon fill="black" stroke="black" points="1781.31,-57.5 1791.31,-54 1781.31,-50.5 1781.31,-57.5"/>
</g>
<!-- 1990978543184&#45;&gt;1990978544480 -->
<g id="edge28" class="edge">
<title>1990978543184&#45;&gt;1990978544480</title>
<path fill="none" stroke="black" d="M1950.75,-54C1958.1,-54 1966.36,-54 1974.69,-54"/>
<polygon fill="black" stroke="black" points="1974.5,-57.5 1984.5,-54 1974.5,-50.5 1974.5,-57.5"/>
</g>
<!-- 1990978544000&#45;&gt;1990978536224 -->
<g id="edge31" class="edge">
<title>1990978544000&#45;&gt;1990978536224</title>
<path fill="none" stroke="black" d="M2164.58,-99C2171.92,-99 2180.21,-99 2188.63,-99"/>
<polygon fill="black" stroke="black" points="2188.59,-102.5 2198.59,-99 2188.59,-95.5 2188.59,-102.5"/>
</g>
<!-- 1990978537712&#45;&gt;1990978548512 -->
<g id="edge32" class="edge">
<title>1990978537712&#45;&gt;1990978548512</title>
<path fill="none" stroke="black" d="M2164.58,-27C2172.18,-27 2180.79,-27 2189.51,-27"/>
<polygon fill="black" stroke="black" points="2189.45,-30.5 2199.45,-27 2189.45,-23.5 2189.45,-30.5"/>
</g>
<!-- 1990981473424&#45;&gt;1990981720336 -->
<g id="edge35" class="edge">
<title>1990981473424&#45;&gt;1990981720336</title>
<path fill="none" stroke="black" d="M2386.04,-99C2393.42,-99 2401.73,-99 2410.07,-99"/>
<polygon fill="black" stroke="black" points="2409.89,-102.5 2419.89,-99 2409.89,-95.5 2409.89,-102.5"/>
</g>
<!-- 1990980242416&#45;&gt;1990981720336 -->
<g id="edge36" class="edge">
<title>1990980242416&#45;&gt;1990981720336</title>
<path fill="none" stroke="black" d="M2381.62,-42.27C2394.94,-51.57 2412.26,-63.66 2427.49,-74.3"/>
<polygon fill="black" stroke="black" points="2425.21,-76.97 2435.41,-79.83 2429.22,-71.23 2425.21,-76.97"/>
</g>
<!-- 1990981480144&#45;&gt;1990980246784 -->
<g id="edge38" class="edge">
<title>1990981480144&#45;&gt;1990980246784</title>
<path fill="none" stroke="black" d="M2593.12,-111.9C2602.8,-117.29 2614.37,-123.75 2625.52,-129.96"/>
<polygon fill="black" stroke="black" points="2623.8,-133.01 2634.24,-134.82 2627.21,-126.9 2623.8,-133.01"/>
</g>
</g>
</svg>
