<?xml version="1.0" encoding="UTF-8" standalone="no"?>
<!DOCTYPE svg PUBLIC "-//W3C//DTD SVG 1.1//EN"
 "http://www.w3.org/Graphics/SVG/1.1/DTD/svg11.dtd">
<!-- Generated by graphviz version 11.0.0 (20240428.1522)
 -->
<!-- Title: imdf_net_1754052780.1020825 Pages: 1 -->
<svg width="2331pt" height="324pt"
 viewBox="0.00 0.00 2331.00 324.00" xmlns="http://www.w3.org/2000/svg" xmlns:xlink="http://www.w3.org/1999/xlink">
<g id="graph0" class="graph" transform="scale(1 1) rotate(0) translate(4 320)">
<title>imdf_net_1754052780.1020825</title>
<polygon fill="white" stroke="none" points="-4,4 -4,-320 2327,-320 2327,4 -4,4"/>
<!-- 1990979470256 -->
<g id="node1" class="node">
<title>1990979470256</title>
<polygon fill="white" stroke="black" points="160.75,-271 90,-271 90,-235 160.75,-235 160.75,-271"/>
<text text-anchor="middle" x="125.38" y="-247.97" font-family="Times New Roman,serif" font-size="12.00">Site Survey</text>
</g>
<!-- 1990979475344 -->
<g id="node19" class="node">
<title>1990979475344</title>
<ellipse fill="white" stroke="black" cx="223.75" cy="-253" rx="27" ry="27"/>
</g>
<!-- 1990979470256&#45;&gt;1990979475344 -->
<g id="edge2" class="edge">
<title>1990979470256&#45;&gt;1990979475344</title>
<path fill="none" stroke="black" d="M161.17,-253C168.9,-253 177.14,-253 184.98,-253"/>
<polygon fill="black" stroke="black" points="184.97,-256.5 194.97,-253 184.97,-249.5 184.97,-256.5"/>
</g>
<!-- 1990979470208 -->
<g id="node2" class="node">
<title>1990979470208</title>
<polygon fill="white" stroke="black" points="382.25,-271 286.75,-271 286.75,-235 382.25,-235 382.25,-271"/>
<text text-anchor="middle" x="334.5" y="-247.97" font-family="Times New Roman,serif" font-size="12.00">Structural Check</text>
</g>
<!-- 1990979483456 -->
<g id="node20" class="node">
<title>1990979483456</title>
<ellipse fill="white" stroke="black" cx="445.25" cy="-289" rx="27" ry="27"/>
</g>
<!-- 1990979470208&#45;&gt;1990979483456 -->
<g id="edge4" class="edge">
<title>1990979470208&#45;&gt;1990979483456</title>
<path fill="none" stroke="black" d="M382.57,-268.58C391.25,-271.45 400.18,-274.41 408.47,-277.15"/>
<polygon fill="black" stroke="black" points="407.24,-280.43 417.83,-280.25 409.44,-273.79 407.24,-280.43"/>
</g>
<!-- 1990981963840 -->
<g id="node21" class="node">
<title>1990981963840</title>
<ellipse fill="white" stroke="black" cx="445.25" cy="-217" rx="27" ry="27"/>
</g>
<!-- 1990979470208&#45;&gt;1990981963840 -->
<g id="edge5" class="edge">
<title>1990979470208&#45;&gt;1990981963840</title>
<path fill="none" stroke="black" d="M382.57,-237.42C391.25,-234.55 400.18,-231.59 408.47,-228.85"/>
<polygon fill="black" stroke="black" points="409.44,-232.21 417.83,-225.75 407.24,-225.57 409.44,-232.21"/>
</g>
<!-- 1990977963648 -->
<g id="node3" class="node">
<title>1990977963648</title>
<polygon fill="white" stroke="black" points="585,-235 508.25,-235 508.25,-199 585,-199 585,-235"/>
<text text-anchor="middle" x="546.62" y="-211.97" font-family="Times New Roman,serif" font-size="12.00">Hydro Setup</text>
</g>
<!-- 1990980446992 -->
<g id="node23" class="node">
<title>1990980446992</title>
<ellipse fill="white" stroke="black" cx="648" cy="-217" rx="27" ry="27"/>
</g>
<!-- 1990977963648&#45;&gt;1990980446992 -->
<g id="edge8" class="edge">
<title>1990977963648&#45;&gt;1990980446992</title>
<path fill="none" stroke="black" d="M585.48,-217C593.27,-217 601.48,-217 609.27,-217"/>
<polygon fill="black" stroke="black" points="609.15,-220.5 619.15,-217 609.15,-213.5 609.15,-220.5"/>
</g>
<!-- 1990978086304 -->
<g id="node4" class="node">
<title>1990978086304</title>
<polygon fill="white" stroke="black" points="583.88,-307 509.38,-307 509.38,-271 583.88,-271 583.88,-307"/>
<text text-anchor="middle" x="546.62" y="-283.98" font-family="Times New Roman,serif" font-size="12.00">Env Control</text>
</g>
<!-- 1990980440704 -->
<g id="node22" class="node">
<title>1990980440704</title>
<ellipse fill="white" stroke="black" cx="648" cy="-289" rx="27" ry="27"/>
</g>
<!-- 1990978086304&#45;&gt;1990980440704 -->
<g id="edge9" class="edge">
<title>1990978086304&#45;&gt;1990980440704</title>
<path fill="none" stroke="black" d="M584.35,-289C592.44,-289 601.04,-289 609.18,-289"/>
<polygon fill="black" stroke="black" points="609.16,-292.5 619.16,-289 609.16,-285.5 609.16,-292.5"/>
</g>
<!-- 1990975876336 -->
<g id="node5" class="node">
<title>1990975876336</title>
<polygon fill="white" stroke="black" points="782.5,-271 711,-271 711,-235 782.5,-235 782.5,-271"/>
<text text-anchor="middle" x="746.75" y="-247.97" font-family="Times New Roman,serif" font-size="12.00">Crop Select</text>
</g>
<!-- 1990975872016 -->
<g id="node24" class="node">
<title>1990975872016</title>
<ellipse fill="white" stroke="black" cx="845.5" cy="-253" rx="27" ry="27"/>
</g>
<!-- 1990975876336&#45;&gt;1990975872016 -->
<g id="edge12" class="edge">
<title>1990975876336&#45;&gt;1990975872016</title>
<path fill="none" stroke="black" d="M782.95,-253C790.7,-253 798.94,-253 806.79,-253"/>
<polygon fill="black" stroke="black" points="806.76,-256.5 816.76,-253 806.76,-249.5 806.76,-256.5"/>
</g>
<!-- 1990975873456 -->
<g id="node6" class="node">
<title>1990975873456</title>
<polygon fill="white" stroke="black" points="973.25,-271 908.5,-271 908.5,-235 973.25,-235 973.25,-271"/>
<text text-anchor="middle" x="940.88" y="-247.97" font-family="Times New Roman,serif" font-size="12.00">IoT Install</text>
</g>
<!-- 1990975880944 -->
<g id="node25" class="node">
<title>1990975880944</title>
<ellipse fill="white" stroke="black" cx="1036.25" cy="-253" rx="27" ry="27"/>
</g>
<!-- 1990975873456&#45;&gt;1990975880944 -->
<g id="edge14" class="edge">
<title>1990975873456&#45;&gt;1990975880944</title>
<path fill="none" stroke="black" d="M973.75,-253C981.33,-253 989.49,-253 997.31,-253"/>
<polygon fill="black" stroke="black" points="997.28,-256.5 1007.28,-253 997.28,-249.5 997.28,-256.5"/>
</g>
<!-- 1990975871392 -->
<g id="node7" class="node">
<title>1990975871392</title>
<polygon fill="white" stroke="black" points="1193.25,-271 1099.25,-271 1099.25,-235 1193.25,-235 1193.25,-271"/>
<text text-anchor="middle" x="1146.25" y="-247.97" font-family="Times New Roman,serif" font-size="12.00">Sensor Calibrate</text>
</g>
<!-- 1990975865728 -->
<g id="node26" class="node">
<title>1990975865728</title>
<ellipse fill="white" stroke="black" cx="1256.25" cy="-253" rx="27" ry="27"/>
</g>
<!-- 1990975871392&#45;&gt;1990975865728 -->
<g id="edge16" class="edge">
<title>1990975871392&#45;&gt;1990975865728</title>
<path fill="none" stroke="black" d="M1193.68,-253C1201.56,-253 1209.66,-253 1217.28,-253"/>
<polygon fill="black" stroke="black" points="1217.27,-256.5 1227.27,-253 1217.27,-249.5 1217.27,-256.5"/>
</g>
<!-- 1990975873888 -->
<g id="node8" class="node">
<title>1990975873888</title>
<polygon fill="white" stroke="black" points="1386.25,-271 1319.25,-271 1319.25,-235 1386.25,-235 1386.25,-271"/>
<text text-anchor="middle" x="1352.75" y="-247.97" font-family="Times New Roman,serif" font-size="12.00">Staff Train</text>
</g>
<!-- 1990975872160 -->
<g id="node27" class="node">
<title>1990975872160</title>
<ellipse fill="white" stroke="black" cx="1449.25" cy="-253" rx="27" ry="27"/>
</g>
<!-- 1990975873888&#45;&gt;1990975872160 -->
<g id="edge18" class="edge">
<title>1990975873888&#45;&gt;1990975872160</title>
<path fill="none" stroke="black" d="M1386.54,-253C1394.27,-253 1402.58,-253 1410.52,-253"/>
<polygon fill="black" stroke="black" points="1410.25,-256.5 1420.25,-253 1410.25,-249.5 1410.25,-256.5"/>
</g>
<!-- 1990975865776 -->
<g id="node9" class="node">
<title>1990975865776</title>
<polygon fill="white" stroke="black" points="1598.75,-248 1512.25,-248 1512.25,-212 1598.75,-212 1598.75,-248"/>
<text text-anchor="middle" x="1555.5" y="-224.97" font-family="Times New Roman,serif" font-size="12.00">Waste Manage</text>
</g>
<!-- 1990975876624 -->
<g id="node28" class="node">
<title>1990975876624</title>
<ellipse fill="white" stroke="black" cx="1661.75" cy="-207" rx="27" ry="27"/>
</g>
<!-- 1990975865776&#45;&gt;1990975876624 -->
<g id="edge20" class="edge">
<title>1990975865776&#45;&gt;1990975876624</title>
<path fill="none" stroke="black" d="M1599.2,-220.58C1607.36,-218.78 1615.84,-216.91 1623.8,-215.15"/>
<polygon fill="black" stroke="black" points="1624.51,-218.58 1633.52,-213.01 1623,-211.74 1624.51,-218.58"/>
</g>
<!-- 1990980443200 -->
<g id="node10" class="node">
<title>1990980443200</title>
<polygon fill="white" stroke="black" points="1801.5,-117 1724.75,-117 1724.75,-81 1801.5,-81 1801.5,-117"/>
<text text-anchor="middle" x="1763.12" y="-93.97" font-family="Times New Roman,serif" font-size="12.00">Harvest Plan</text>
</g>
<!-- 1990980450784 -->
<g id="node31" class="node">
<title>1990980450784</title>
<ellipse fill="white" stroke="black" cx="1864.5" cy="-27" rx="27" ry="27"/>
</g>
<!-- 1990980443200&#45;&gt;1990980450784 -->
<g id="edge26" class="edge">
<title>1990980443200&#45;&gt;1990980450784</title>
<path fill="none" stroke="black" d="M1789.46,-80.65C1802.63,-71.1 1818.85,-59.35 1832.74,-49.29"/>
<polygon fill="black" stroke="black" points="1834.65,-52.23 1840.69,-43.53 1830.54,-46.56 1834.65,-52.23"/>
</g>
<!-- 1990980440800 -->
<g id="node32" class="node">
<title>1990980440800</title>
<ellipse fill="white" stroke="black" cx="1864.5" cy="-99" rx="27" ry="27"/>
</g>
<!-- 1990980443200&#45;&gt;1990980440800 -->
<g id="edge24" class="edge">
<title>1990980443200&#45;&gt;1990980440800</title>
<path fill="none" stroke="black" d="M1801.98,-99C1809.77,-99 1817.98,-99 1825.77,-99"/>
<polygon fill="black" stroke="black" points="1825.65,-102.5 1835.65,-99 1825.65,-95.5 1825.65,-102.5"/>
</g>
<!-- 1990975876192 -->
<g id="node11" class="node">
<title>1990975876192</title>
<polygon fill="white" stroke="black" points="1800.75,-225 1725.5,-225 1725.5,-189 1800.75,-189 1800.75,-225"/>
<text text-anchor="middle" x="1763.12" y="-201.97" font-family="Times New Roman,serif" font-size="12.00">Water Cycle</text>
</g>
<!-- 1990975870096 -->
<g id="node29" class="node">
<title>1990975870096</title>
<ellipse fill="white" stroke="black" cx="1864.5" cy="-171" rx="27" ry="27"/>
</g>
<!-- 1990975876192&#45;&gt;1990975870096 -->
<g id="edge25" class="edge">
<title>1990975876192&#45;&gt;1990975870096</title>
<path fill="none" stroke="black" d="M1801.13,-193.59C1809.9,-190.42 1819.23,-187.04 1827.93,-183.88"/>
<polygon fill="black" stroke="black" points="1828.9,-187.26 1837.11,-180.56 1826.51,-180.68 1828.9,-187.26"/>
</g>
<!-- 1990975865392 -->
<g id="node30" class="node">
<title>1990975865392</title>
<ellipse fill="white" stroke="black" cx="1864.5" cy="-243" rx="27" ry="27"/>
</g>
<!-- 1990975876192&#45;&gt;1990975865392 -->
<g id="edge23" class="edge">
<title>1990975876192&#45;&gt;1990975865392</title>
<path fill="none" stroke="black" d="M1801.13,-220.41C1809.9,-223.58 1819.23,-226.96 1827.93,-230.12"/>
<polygon fill="black" stroke="black" points="1826.51,-233.32 1837.11,-233.44 1828.9,-226.74 1826.51,-233.32"/>
</g>
<!-- 1990975877440 -->
<g id="node12" class="node">
<title>1990975877440</title>
<polygon fill="white" stroke="black" points="2011.75,-261 1934.25,-261 1934.25,-225 2011.75,-225 2011.75,-261"/>
<text text-anchor="middle" x="1973" y="-237.97" font-family="Times New Roman,serif" font-size="12.00">Nutrient Mix</text>
</g>
<!-- 1990975875808 -->
<g id="node35" class="node">
<title>1990975875808</title>
<ellipse fill="white" stroke="black" cx="2081.5" cy="-243" rx="27" ry="27"/>
</g>
<!-- 1990975877440&#45;&gt;1990975875808 -->
<g id="edge31" class="edge">
<title>1990975877440&#45;&gt;1990975875808</title>
<path fill="none" stroke="black" d="M2012.15,-243C2022.19,-243 2033.01,-243 2043.01,-243"/>
<polygon fill="black" stroke="black" points="2042.77,-246.5 2052.77,-243 2042.77,-239.5 2042.77,-246.5"/>
</g>
<!-- 1990980449104 -->
<g id="node13" class="node">
<title>1990980449104</title>
<polygon fill="white" stroke="black" points="2012.88,-117 1933.12,-117 1933.12,-81 2012.88,-81 2012.88,-117"/>
<text text-anchor="middle" x="1973" y="-93.97" font-family="Times New Roman,serif" font-size="12.00">Market Align</text>
</g>
<!-- 1990980446608 -->
<g id="node34" class="node">
<title>1990980446608</title>
<ellipse fill="white" stroke="black" cx="2081.5" cy="-99" rx="27" ry="27"/>
</g>
<!-- 1990980449104&#45;&gt;1990980446608 -->
<g id="edge34" class="edge">
<title>1990980449104&#45;&gt;1990980446608</title>
<path fill="none" stroke="black" d="M2013.35,-99C2023.04,-99 2033.39,-99 2042.99,-99"/>
<polygon fill="black" stroke="black" points="2042.72,-102.5 2052.72,-99 2042.72,-95.5 2042.72,-102.5"/>
</g>
<!-- 1990975869280 -->
<g id="node14" class="node">
<title>1990975869280</title>
<polygon fill="white" stroke="black" points="2018.5,-189 1927.5,-189 1927.5,-153 2018.5,-153 2018.5,-189"/>
<text text-anchor="middle" x="1973" y="-165.97" font-family="Times New Roman,serif" font-size="12.00">Lighting Adjust</text>
</g>
<!-- 1990980449776 -->
<g id="node36" class="node">
<title>1990980449776</title>
<ellipse fill="white" stroke="black" cx="2081.5" cy="-171" rx="27" ry="27"/>
</g>
<!-- 1990975869280&#45;&gt;1990980449776 -->
<g id="edge32" class="edge">
<title>1990975869280&#45;&gt;1990980449776</title>
<path fill="none" stroke="black" d="M2018.86,-171C2026.86,-171 2035.12,-171 2042.9,-171"/>
<polygon fill="black" stroke="black" points="2042.71,-174.5 2052.71,-171 2042.71,-167.5 2042.71,-174.5"/>
</g>
<!-- 1990980437728 -->
<g id="node15" class="node">
<title>1990980437728</title>
<polygon fill="white" stroke="black" points="2016.62,-45 1929.38,-45 1929.38,-9 2016.62,-9 2016.62,-45"/>
<text text-anchor="middle" x="1973" y="-21.98" font-family="Times New Roman,serif" font-size="12.00">Delivery Setup</text>
</g>
<!-- 1990980450688 -->
<g id="node33" class="node">
<title>1990980450688</title>
<ellipse fill="white" stroke="black" cx="2081.5" cy="-27" rx="27" ry="27"/>
</g>
<!-- 1990980437728&#45;&gt;1990980450688 -->
<g id="edge33" class="edge">
<title>1990980437728&#45;&gt;1990980450688</title>
<path fill="none" stroke="black" d="M2017.01,-27C2025.56,-27 2034.48,-27 2042.84,-27"/>
<polygon fill="black" stroke="black" points="2042.67,-30.5 2052.67,-27 2042.67,-23.5 2042.67,-30.5"/>
</g>
<!-- 1990975875376 -->
<g id="node16" class="node">
<title>1990975875376</title>
<polygon fill="white" stroke="black" points="2225,-261 2144.5,-261 2144.5,-225 2225,-225 2225,-261"/>
<text text-anchor="middle" x="2184.75" y="-237.97" font-family="Times New Roman,serif" font-size="12.00">Energy Audit</text>
</g>
<!-- 1990975875376&#45;&gt;1990975872160 -->
<g id="edge39" class="edge">
<title>1990975875376&#45;&gt;1990975872160</title>
<path fill="none" stroke="black" d="M2150.92,-261.4C2138.04,-267.89 2122.92,-274.65 2108.5,-279 2050.71,-296.45 2034.37,-298 1974,-298 1660.75,-298 1660.75,-298 1660.75,-298 1598.24,-298 1527.55,-278.79 1486.05,-265.47"/>
<polygon fill="black" stroke="black" points="1487.19,-262.16 1476.59,-262.36 1485,-268.81 1487.19,-262.16"/>
</g>
<!-- 1990978992848 -->
<g id="node17" class="node">
<title>1990978992848</title>
<polygon fill="black" stroke="black" points="2211.75,-81 2157.75,-81 2157.75,-45 2211.75,-45 2211.75,-81"/>
</g>
<!-- 1990978549760 -->
<g id="node37" class="node">
<title>1990978549760</title>
<ellipse fill="white" stroke="black" cx="2292" cy="-63" rx="27" ry="27"/>
<ellipse fill="none" stroke="black" cx="2292" cy="-63" rx="31" ry="31"/>
<text text-anchor="start" x="2275.5" y="-47.6" font-family="Times New Roman,serif" font-size="32.00">■</text>
</g>
<!-- 1990978992848&#45;&gt;1990978549760 -->
<g id="edge40" class="edge">
<title>1990978992848&#45;&gt;1990978549760</title>
<path fill="none" stroke="black" d="M2212.04,-63C2223.32,-63 2236.78,-63 2249.36,-63"/>
<polygon fill="black" stroke="black" points="2249.06,-66.5 2259.06,-63 2249.06,-59.5 2249.06,-66.5"/>
</g>
<!-- 1990980255520 -->
<g id="node18" class="node">
<title>1990980255520</title>
<ellipse fill="white" stroke="black" cx="27" cy="-253" rx="27" ry="27"/>
<text text-anchor="start" x="9.75" y="-235.7" font-family="Times New Roman,serif" font-size="34.00">●</text>
</g>
<!-- 1990980255520&#45;&gt;1990979470256 -->
<g id="edge1" class="edge">
<title>1990980255520&#45;&gt;1990979470256</title>
<path fill="none" stroke="black" d="M54.33,-253C61.76,-253 70.06,-253 78.28,-253"/>
<polygon fill="black" stroke="black" points="78.24,-256.5 88.24,-253 78.24,-249.5 78.24,-256.5"/>
</g>
<!-- 1990979475344&#45;&gt;1990979470208 -->
<g id="edge3" class="edge">
<title>1990979475344&#45;&gt;1990979470208</title>
<path fill="none" stroke="black" d="M251.08,-253C258.42,-253 266.71,-253 275.13,-253"/>
<polygon fill="black" stroke="black" points="275.09,-256.5 285.09,-253 275.09,-249.5 275.09,-256.5"/>
</g>
<!-- 1990979483456&#45;&gt;1990978086304 -->
<g id="edge6" class="edge">
<title>1990979483456&#45;&gt;1990978086304</title>
<path fill="none" stroke="black" d="M472.62,-289C480.38,-289 489.11,-289 497.77,-289"/>
<polygon fill="black" stroke="black" points="497.52,-292.5 507.52,-289 497.52,-285.5 497.52,-292.5"/>
</g>
<!-- 1990981963840&#45;&gt;1990977963648 -->
<g id="edge7" class="edge">
<title>1990981963840&#45;&gt;1990977963648</title>
<path fill="none" stroke="black" d="M472.62,-217C479.97,-217 488.19,-217 496.4,-217"/>
<polygon fill="black" stroke="black" points="496.39,-220.5 506.39,-217 496.39,-213.5 496.39,-220.5"/>
</g>
<!-- 1990980440704&#45;&gt;1990975876336 -->
<g id="edge11" class="edge">
<title>1990980440704&#45;&gt;1990975876336</title>
<path fill="none" stroke="black" d="M673.66,-279.82C681.71,-276.83 690.92,-273.4 700.01,-270.02"/>
<polygon fill="black" stroke="black" points="700.97,-273.4 709.12,-266.63 698.53,-266.84 700.97,-273.4"/>
</g>
<!-- 1990980446992&#45;&gt;1990975876336 -->
<g id="edge10" class="edge">
<title>1990980446992&#45;&gt;1990975876336</title>
<path fill="none" stroke="black" d="M673.66,-226.18C681.71,-229.17 690.92,-232.6 700.01,-235.98"/>
<polygon fill="black" stroke="black" points="698.53,-239.16 709.12,-239.37 700.97,-232.6 698.53,-239.16"/>
</g>
<!-- 1990975872016&#45;&gt;1990975873456 -->
<g id="edge13" class="edge">
<title>1990975872016&#45;&gt;1990975873456</title>
<path fill="none" stroke="black" d="M872.51,-253C879.99,-253 888.36,-253 896.59,-253"/>
<polygon fill="black" stroke="black" points="896.51,-256.5 906.51,-253 896.51,-249.5 896.51,-256.5"/>
</g>
<!-- 1990975880944&#45;&gt;1990975871392 -->
<g id="edge15" class="edge">
<title>1990975880944&#45;&gt;1990975871392</title>
<path fill="none" stroke="black" d="M1063.67,-253C1070.97,-253 1079.19,-253 1087.52,-253"/>
<polygon fill="black" stroke="black" points="1087.38,-256.5 1097.38,-253 1087.38,-249.5 1087.38,-256.5"/>
</g>
<!-- 1990975865728&#45;&gt;1990975873888 -->
<g id="edge17" class="edge">
<title>1990975865728&#45;&gt;1990975873888</title>
<path fill="none" stroke="black" d="M1283.57,-253C1291,-253 1299.29,-253 1307.45,-253"/>
<polygon fill="black" stroke="black" points="1307.31,-256.5 1317.31,-253 1307.31,-249.5 1307.31,-256.5"/>
</g>
<!-- 1990975872160&#45;&gt;1990975865776 -->
<g id="edge19" class="edge">
<title>1990975872160&#45;&gt;1990975865776</title>
<path fill="none" stroke="black" d="M1476.02,-247.31C1483.65,-245.63 1492.3,-243.72 1501.01,-241.8"/>
<polygon fill="black" stroke="black" points="1501.5,-245.28 1510.51,-239.7 1499.99,-238.44 1501.5,-245.28"/>
</g>
<!-- 1990975876624&#45;&gt;1990980443200 -->
<g id="edge21" class="edge">
<title>1990975876624&#45;&gt;1990980443200</title>
<path fill="none" stroke="black" d="M1680.75,-187.44C1696.66,-170.15 1720,-144.78 1737.62,-125.64"/>
<polygon fill="black" stroke="black" points="1740.04,-128.17 1744.23,-118.45 1734.89,-123.43 1740.04,-128.17"/>
</g>
<!-- 1990975876624&#45;&gt;1990975876192 -->
<g id="edge22" class="edge">
<title>1990975876624&#45;&gt;1990975876192</title>
<path fill="none" stroke="black" d="M1689.12,-207C1696.71,-207 1705.24,-207 1713.72,-207"/>
<polygon fill="black" stroke="black" points="1713.64,-210.5 1723.64,-207 1713.64,-203.5 1713.64,-210.5"/>
</g>
<!-- 1990975870096&#45;&gt;1990975869280 -->
<g id="edge27" class="edge">
<title>1990975870096&#45;&gt;1990975869280</title>
<path fill="none" stroke="black" d="M1891.83,-171C1899.19,-171 1907.5,-171 1915.89,-171"/>
<polygon fill="black" stroke="black" points="1915.81,-174.5 1925.81,-171 1915.81,-167.5 1915.81,-174.5"/>
</g>
<!-- 1990975865392&#45;&gt;1990975877440 -->
<g id="edge28" class="edge">
<title>1990975865392&#45;&gt;1990975877440</title>
<path fill="none" stroke="black" d="M1891.83,-243C1901.14,-243 1911.96,-243 1922.56,-243"/>
<polygon fill="black" stroke="black" points="1922.4,-246.5 1932.4,-243 1922.4,-239.5 1922.4,-246.5"/>
</g>
<!-- 1990980450784&#45;&gt;1990980437728 -->
<g id="edge30" class="edge">
<title>1990980450784&#45;&gt;1990980437728</title>
<path fill="none" stroke="black" d="M1891.83,-27C1899.71,-27 1908.66,-27 1917.65,-27"/>
<polygon fill="black" stroke="black" points="1917.47,-30.5 1927.47,-27 1917.47,-23.5 1917.47,-30.5"/>
</g>
<!-- 1990980440800&#45;&gt;1990980449104 -->
<g id="edge29" class="edge">
<title>1990980440800&#45;&gt;1990980449104</title>
<path fill="none" stroke="black" d="M1891.83,-99C1900.78,-99 1911.1,-99 1921.31,-99"/>
<polygon fill="black" stroke="black" points="1921.18,-102.5 1931.18,-99 1921.18,-95.5 1921.18,-102.5"/>
</g>
<!-- 1990980450688&#45;&gt;1990978992848 -->
<g id="edge36" class="edge">
<title>1990980450688&#45;&gt;1990978992848</title>
<path fill="none" stroke="black" d="M2107.27,-35.81C2119.16,-40.03 2133.65,-45.19 2146.81,-49.87"/>
<polygon fill="black" stroke="black" points="2145.45,-53.1 2156.04,-53.15 2147.79,-46.5 2145.45,-53.1"/>
</g>
<!-- 1990980446608&#45;&gt;1990978992848 -->
<g id="edge35" class="edge">
<title>1990980446608&#45;&gt;1990978992848</title>
<path fill="none" stroke="black" d="M2107.27,-90.19C2119.16,-85.97 2133.65,-80.81 2146.81,-76.13"/>
<polygon fill="black" stroke="black" points="2147.79,-79.5 2156.04,-72.85 2145.45,-72.9 2147.79,-79.5"/>
</g>
<!-- 1990975875808&#45;&gt;1990975875376 -->
<g id="edge37" class="edge">
<title>1990975875808&#45;&gt;1990975875376</title>
<path fill="none" stroke="black" d="M2108.84,-243C2116.25,-243 2124.57,-243 2132.9,-243"/>
<polygon fill="black" stroke="black" points="2132.67,-246.5 2142.67,-243 2132.67,-239.5 2132.67,-246.5"/>
</g>
<!-- 1990980449776&#45;&gt;1990975875376 -->
<g id="edge38" class="edge">
<title>1990980449776&#45;&gt;1990975875376</title>
<path fill="none" stroke="black" d="M2104.22,-186.45C2117.09,-195.6 2133.71,-207.41 2148.42,-217.88"/>
<polygon fill="black" stroke="black" points="2146.35,-220.7 2156.53,-223.64 2150.4,-214.99 2146.35,-220.7"/>
</g>
</g>
</svg>
