<?xml version="1.0" encoding="UTF-8" standalone="no"?>
<!DOCTYPE svg PUBLIC "-//W3C//DTD SVG 1.1//EN"
 "http://www.w3.org/Graphics/SVG/1.1/DTD/svg11.dtd">
<!-- Generated by graphviz version 11.0.0 (20240428.1522)
 -->
<!-- Title: imdf_net_1754053462.7988594 Pages: 1 -->
<svg width="3566pt" height="217pt"
 viewBox="0.00 0.00 3565.50 217.00" xmlns="http://www.w3.org/2000/svg" xmlns:xlink="http://www.w3.org/1999/xlink">
<g id="graph0" class="graph" transform="scale(1 1) rotate(0) translate(4 213)">
<title>imdf_net_1754053462.7988594</title>
<polygon fill="white" stroke="none" points="-4,4 -4,-213 3561.5,-213 3561.5,4 -4,4"/>
<!-- 2892510142560 -->
<g id="node1" class="node">
<title>2892510142560</title>
<polygon fill="black" stroke="black" points="144,-128 90,-128 90,-92 144,-92 144,-128"/>
</g>
<!-- 2892510380304 -->
<g id="node21" class="node">
<title>2892510380304</title>
<ellipse fill="white" stroke="black" cx="207" cy="-182" rx="27" ry="27"/>
</g>
<!-- 2892510142560&#45;&gt;2892510380304 -->
<g id="edge4" class="edge">
<title>2892510142560&#45;&gt;2892510380304</title>
<path fill="none" stroke="black" d="M140.21,-128.17C151.32,-137.26 164.92,-148.39 176.87,-158.16"/>
<polygon fill="black" stroke="black" points="174.48,-160.74 184.44,-164.36 178.92,-155.32 174.48,-160.74"/>
</g>
<!-- 2892510135504 -->
<g id="node22" class="node">
<title>2892510135504</title>
<ellipse fill="white" stroke="black" cx="207" cy="-110" rx="27" ry="27"/>
</g>
<!-- 2892510142560&#45;&gt;2892510135504 -->
<g id="edge2" class="edge">
<title>2892510142560&#45;&gt;2892510135504</title>
<path fill="none" stroke="black" d="M144.4,-110C151.89,-110 160.18,-110 168.2,-110"/>
<polygon fill="black" stroke="black" points="168.1,-113.5 178.1,-110 168.1,-106.5 168.1,-113.5"/>
</g>
<!-- 2892510396144 -->
<g id="node23" class="node">
<title>2892510396144</title>
<ellipse fill="white" stroke="black" cx="207" cy="-37" rx="27" ry="27"/>
</g>
<!-- 2892510142560&#45;&gt;2892510396144 -->
<g id="edge3" class="edge">
<title>2892510142560&#45;&gt;2892510396144</title>
<path fill="none" stroke="black" d="M140.21,-91.58C151.32,-82.36 164.92,-71.07 176.87,-61.17"/>
<polygon fill="black" stroke="black" points="178.98,-63.96 184.45,-54.88 174.51,-58.57 178.98,-63.96"/>
</g>
<!-- 2892510385680 -->
<g id="node2" class="node">
<title>2892510385680</title>
<polygon fill="white" stroke="black" points="379,-200 280.5,-200 280.5,-164 379,-164 379,-200"/>
<text text-anchor="middle" x="329.75" y="-176.97" font-family="Times New Roman,serif" font-size="12.00">Regulatory Audit</text>
</g>
<!-- 2892510380928 -->
<g id="node24" class="node">
<title>2892510380928</title>
<ellipse fill="white" stroke="black" cx="691.25" cy="-182" rx="27" ry="27"/>
</g>
<!-- 2892510385680&#45;&gt;2892510380928 -->
<g id="edge9" class="edge">
<title>2892510385680&#45;&gt;2892510380928</title>
<path fill="none" stroke="black" d="M379.23,-182C451.77,-182 587,-182 652.61,-182"/>
<polygon fill="black" stroke="black" points="652.51,-185.5 662.51,-182 652.51,-178.5 652.51,-185.5"/>
</g>
<!-- 2892510611984 -->
<g id="node3" class="node">
<title>2892510611984</title>
<polygon fill="white" stroke="black" points="384.62,-128 274.88,-128 274.88,-92 384.62,-92 384.62,-128"/>
<text text-anchor="middle" x="329.75" y="-104.97" font-family="Times New Roman,serif" font-size="12.00">Ingredient Sourcing</text>
</g>
<!-- 2892510673376 -->
<g id="node25" class="node">
<title>2892510673376</title>
<ellipse fill="white" stroke="black" cx="452.5" cy="-110" rx="27" ry="27"/>
</g>
<!-- 2892510611984&#45;&gt;2892510673376 -->
<g id="edge10" class="edge">
<title>2892510611984&#45;&gt;2892510673376</title>
<path fill="none" stroke="black" d="M385.12,-110C394.78,-110 404.65,-110 413.73,-110"/>
<polygon fill="black" stroke="black" points="413.6,-113.5 423.6,-110 413.6,-106.5 413.6,-113.5"/>
</g>
<!-- 2892510392592 -->
<g id="node4" class="node">
<title>2892510392592</title>
<polygon fill="white" stroke="black" points="389.5,-49 270,-49 270,-13 389.5,-13 389.5,-49"/>
<text text-anchor="middle" x="329.75" y="-25.98" font-family="Times New Roman,serif" font-size="12.00">Batch Documentation</text>
</g>
<!-- 2892510395760 -->
<g id="node26" class="node">
<title>2892510395760</title>
<ellipse fill="white" stroke="black" cx="571.88" cy="-27" rx="27" ry="27"/>
</g>
<!-- 2892510392592&#45;&gt;2892510395760 -->
<g id="edge8" class="edge">
<title>2892510392592&#45;&gt;2892510395760</title>
<path fill="none" stroke="black" d="M389.8,-30.02C434.5,-29.27 494.58,-28.27 533.02,-27.63"/>
<polygon fill="black" stroke="black" points="533,-31.13 542.94,-27.47 532.89,-24.13 533,-31.13"/>
</g>
<!-- 2892510136080 -->
<g id="node5" class="node">
<title>2892510136080</title>
<polygon fill="black" stroke="black" points="3459.5,-99 3405.5,-99 3405.5,-63 3459.5,-63 3459.5,-99"/>
</g>
<!-- 2892510142224 -->
<g id="node28" class="node">
<title>2892510142224</title>
<ellipse fill="white" stroke="black" cx="3526.5" cy="-81" rx="27" ry="27"/>
<ellipse fill="none" stroke="black" cx="3526.5" cy="-81" rx="31" ry="31"/>
<text text-anchor="start" x="3510" y="-65.6" font-family="Times New Roman,serif" font-size="32.00">■</text>
</g>
<!-- 2892510136080&#45;&gt;2892510142224 -->
<g id="edge15" class="edge">
<title>2892510136080&#45;&gt;2892510142224</title>
<path fill="none" stroke="black" d="M3459.62,-81C3467.13,-81 3475.51,-81 3483.72,-81"/>
<polygon fill="black" stroke="black" points="3483.58,-84.5 3493.58,-81 3483.58,-77.5 3483.58,-84.5"/>
</g>
<!-- 2892504999712 -->
<g id="node6" class="node">
<title>2892504999712</title>
<polygon fill="white" stroke="black" points="628.25,-128 515.5,-128 515.5,-92 628.25,-92 628.25,-128"/>
<text text-anchor="middle" x="571.88" y="-104.97" font-family="Times New Roman,serif" font-size="12.00">Botanical Extraction</text>
</g>
<!-- 2892510553072 -->
<g id="node27" class="node">
<title>2892510553072</title>
<ellipse fill="white" stroke="black" cx="691.25" cy="-110" rx="27" ry="27"/>
</g>
<!-- 2892504999712&#45;&gt;2892510553072 -->
<g id="edge14" class="edge">
<title>2892504999712&#45;&gt;2892510553072</title>
<path fill="none" stroke="black" d="M628.47,-110C636.56,-110 644.72,-110 652.35,-110"/>
<polygon fill="black" stroke="black" points="652.29,-113.5 662.29,-110 652.29,-106.5 652.29,-113.5"/>
</g>
<!-- 2892510553696 -->
<g id="node7" class="node">
<title>2892510553696</title>
<polygon fill="white" stroke="black" points="843.75,-128 754.25,-128 754.25,-92 843.75,-92 843.75,-128"/>
<text text-anchor="middle" x="799" y="-104.97" font-family="Times New Roman,serif" font-size="12.00">Initial Blending</text>
</g>
<!-- 2892510550672 -->
<g id="node29" class="node">
<title>2892510550672</title>
<ellipse fill="white" stroke="black" cx="906.75" cy="-110" rx="27" ry="27"/>
</g>
<!-- 2892510553696&#45;&gt;2892510550672 -->
<g id="edge17" class="edge">
<title>2892510553696&#45;&gt;2892510550672</title>
<path fill="none" stroke="black" d="M844.23,-110C852.2,-110 860.44,-110 868.2,-110"/>
<polygon fill="black" stroke="black" points="867.99,-113.5 877.99,-110 867.99,-106.5 867.99,-113.5"/>
</g>
<!-- 2892510444288 -->
<g id="node8" class="node">
<title>2892510444288</title>
<polygon fill="white" stroke="black" points="1062.25,-108 969.75,-108 969.75,-72 1062.25,-72 1062.25,-108"/>
<text text-anchor="middle" x="1016" y="-84.97" font-family="Times New Roman,serif" font-size="12.00">Sensory Testing</text>
</g>
<!-- 2892510445008 -->
<g id="node30" class="node">
<title>2892510445008</title>
<ellipse fill="white" stroke="black" cx="1125.25" cy="-81" rx="27" ry="27"/>
</g>
<!-- 2892510444288&#45;&gt;2892510445008 -->
<g id="edge19" class="edge">
<title>2892510444288&#45;&gt;2892510445008</title>
<path fill="none" stroke="black" d="M1062.48,-86.18C1070.52,-85.51 1078.81,-84.81 1086.6,-84.16"/>
<polygon fill="black" stroke="black" points="1086.77,-87.66 1096.44,-83.33 1086.18,-80.68 1086.77,-87.66"/>
</g>
<!-- 2892510432576 -->
<g id="node9" class="node">
<title>2892510432576</title>
<polygon fill="white" stroke="black" points="1293.5,-99 1188.25,-99 1188.25,-63 1293.5,-63 1293.5,-99"/>
<text text-anchor="middle" x="1240.88" y="-75.97" font-family="Times New Roman,serif" font-size="12.00">Chemical Analysis</text>
</g>
<!-- 2892510547552 -->
<g id="node31" class="node">
<title>2892510547552</title>
<ellipse fill="white" stroke="black" cx="1356.5" cy="-81" rx="27" ry="27"/>
</g>
<!-- 2892510432576&#45;&gt;2892510547552 -->
<g id="edge21" class="edge">
<title>2892510432576&#45;&gt;2892510547552</title>
<path fill="none" stroke="black" d="M1293.7,-81C1301.86,-81 1310.16,-81 1317.92,-81"/>
<polygon fill="black" stroke="black" points="1317.68,-84.5 1327.68,-81 1317.68,-77.5 1317.68,-84.5"/>
</g>
<!-- 2892510430272 -->
<g id="node10" class="node">
<title>2892510430272</title>
<polygon fill="white" stroke="black" points="1517.25,-99 1428.5,-99 1428.5,-63 1517.25,-63 1517.25,-99"/>
<text text-anchor="middle" x="1472.88" y="-75.97" font-family="Times New Roman,serif" font-size="12.00">Stability Check</text>
</g>
<!-- 2892510430656 -->
<g id="node32" class="node">
<title>2892510430656</title>
<ellipse fill="white" stroke="black" cx="1589.25" cy="-81" rx="27" ry="27"/>
</g>
<!-- 2892510430272&#45;&gt;2892510430656 -->
<g id="edge25" class="edge">
<title>2892510430272&#45;&gt;2892510430656</title>
<path fill="none" stroke="black" d="M1517.44,-81C1528.36,-81 1539.98,-81 1550.58,-81"/>
<polygon fill="black" stroke="black" points="1550.51,-84.5 1560.51,-81 1550.51,-77.5 1550.51,-84.5"/>
</g>
<!-- 2892510432336 -->
<g id="node11" class="node">
<title>2892510432336</title>
<polygon fill="white" stroke="black" points="1526.25,-154 1419.5,-154 1419.5,-118 1526.25,-118 1526.25,-154"/>
<text text-anchor="middle" x="1472.88" y="-130.97" font-family="Times New Roman,serif" font-size="12.00">Recipe Refinement</text>
</g>
<!-- 2892510432336&#45;&gt;2892510550672 -->
<g id="edge24" class="edge">
<title>2892510432336&#45;&gt;2892510550672</title>
<path fill="none" stroke="black" d="M1419.37,-138.87C1372.76,-141.16 1302.81,-144 1241.88,-144 1124.25,-144 1124.25,-144 1124.25,-144 1060.3,-144 986.99,-129.34 944.18,-119.27"/>
<polygon fill="black" stroke="black" points="945.22,-115.92 934.68,-116.99 943.58,-122.73 945.22,-115.92"/>
</g>
<!-- 2892510430080 -->
<g id="node12" class="node">
<title>2892510430080</title>
<polygon fill="white" stroke="black" points="1744.75,-99 1652.25,-99 1652.25,-63 1744.75,-63 1744.75,-99"/>
<text text-anchor="middle" x="1698.5" y="-75.97" font-family="Times New Roman,serif" font-size="12.00">Client Sampling</text>
</g>
<!-- 2892510429456 -->
<g id="node33" class="node">
<title>2892510429456</title>
<ellipse fill="white" stroke="black" cx="1807.75" cy="-81" rx="27" ry="27"/>
</g>
<!-- 2892510430080&#45;&gt;2892510429456 -->
<g id="edge27" class="edge">
<title>2892510430080&#45;&gt;2892510429456</title>
<path fill="none" stroke="black" d="M1744.98,-81C1753.02,-81 1761.31,-81 1769.1,-81"/>
<polygon fill="black" stroke="black" points="1768.94,-84.5 1778.94,-81 1768.94,-77.5 1768.94,-84.5"/>
</g>
<!-- 2892510434784 -->
<g id="node13" class="node">
<title>2892510434784</title>
<polygon fill="white" stroke="black" points="1972.25,-99 1870.75,-99 1870.75,-63 1972.25,-63 1972.25,-99"/>
<text text-anchor="middle" x="1921.5" y="-75.97" font-family="Times New Roman,serif" font-size="12.00">Feedback Review</text>
</g>
<!-- 2892510437280 -->
<g id="node34" class="node">
<title>2892510437280</title>
<ellipse fill="white" stroke="black" cx="2035.25" cy="-81" rx="27" ry="27"/>
</g>
<!-- 2892510434784&#45;&gt;2892510437280 -->
<g id="edge29" class="edge">
<title>2892510434784&#45;&gt;2892510437280</title>
<path fill="none" stroke="black" d="M1972.49,-81C1980.6,-81 1988.87,-81 1996.61,-81"/>
<polygon fill="black" stroke="black" points="1996.36,-84.5 2006.36,-81 1996.36,-77.5 1996.36,-84.5"/>
</g>
<!-- 2892510439968 -->
<g id="node14" class="node">
<title>2892510439968</title>
<polygon fill="white" stroke="black" points="2196,-99 2098.25,-99 2098.25,-63 2196,-63 2196,-99"/>
<text text-anchor="middle" x="2147.12" y="-75.97" font-family="Times New Roman,serif" font-size="12.00">Final Adjustment</text>
</g>
<!-- 2892510441360 -->
<g id="node35" class="node">
<title>2892510441360</title>
<ellipse fill="white" stroke="black" cx="2259" cy="-81" rx="27" ry="27"/>
</g>
<!-- 2892510439968&#45;&gt;2892510441360 -->
<g id="edge31" class="edge">
<title>2892510439968&#45;&gt;2892510441360</title>
<path fill="none" stroke="black" d="M2196.32,-81C2204.36,-81 2212.6,-81 2220.32,-81"/>
<polygon fill="black" stroke="black" points="2220.06,-84.5 2230.06,-81 2220.06,-77.5 2220.06,-84.5"/>
</g>
<!-- 2892510441456 -->
<g id="node15" class="node">
<title>2892510441456</title>
<polygon fill="white" stroke="black" points="2427.25,-99 2322,-99 2322,-63 2427.25,-63 2427.25,-99"/>
<text text-anchor="middle" x="2374.62" y="-75.97" font-family="Times New Roman,serif" font-size="12.00">Custom Packaging</text>
</g>
<!-- 2892510441120 -->
<g id="node36" class="node">
<title>2892510441120</title>
<ellipse fill="white" stroke="black" cx="2490.25" cy="-81" rx="27" ry="27"/>
</g>
<!-- 2892510441456&#45;&gt;2892510441120 -->
<g id="edge33" class="edge">
<title>2892510441456&#45;&gt;2892510441120</title>
<path fill="none" stroke="black" d="M2427.45,-81C2435.61,-81 2443.91,-81 2451.67,-81"/>
<polygon fill="black" stroke="black" points="2451.43,-84.5 2461.43,-81 2451.43,-77.5 2451.43,-84.5"/>
</g>
<!-- 2892510434016 -->
<g id="node16" class="node">
<title>2892510434016</title>
<polygon fill="white" stroke="black" points="2633,-99 2553.25,-99 2553.25,-63 2633,-63 2633,-99"/>
<text text-anchor="middle" x="2593.12" y="-75.97" font-family="Times New Roman,serif" font-size="12.00">Label Design</text>
</g>
<!-- 2892510440784 -->
<g id="node37" class="node">
<title>2892510440784</title>
<ellipse fill="white" stroke="black" cx="2696" cy="-81" rx="27" ry="27"/>
</g>
<!-- 2892510434016&#45;&gt;2892510440784 -->
<g id="edge35" class="edge">
<title>2892510434016&#45;&gt;2892510440784</title>
<path fill="none" stroke="black" d="M2633.41,-81C2641.28,-81 2649.52,-81 2657.32,-81"/>
<polygon fill="black" stroke="black" points="2657.22,-84.5 2667.22,-81 2657.22,-77.5 2657.22,-84.5"/>
</g>
<!-- 2892510439440 -->
<g id="node17" class="node">
<title>2892510439440</title>
<polygon fill="white" stroke="black" points="2846.25,-99 2759,-99 2759,-63 2846.25,-63 2846.25,-99"/>
<text text-anchor="middle" x="2802.62" y="-75.97" font-family="Times New Roman,serif" font-size="12.00">Hand Labeling</text>
</g>
<!-- 2892510389040 -->
<g id="node38" class="node">
<title>2892510389040</title>
<ellipse fill="white" stroke="black" cx="2909.25" cy="-81" rx="27" ry="27"/>
</g>
<!-- 2892510439440&#45;&gt;2892510389040 -->
<g id="edge37" class="edge">
<title>2892510439440&#45;&gt;2892510389040</title>
<path fill="none" stroke="black" d="M2846.48,-81C2854.43,-81 2862.67,-81 2870.45,-81"/>
<polygon fill="black" stroke="black" points="2870.29,-84.5 2880.29,-81 2870.29,-77.5 2870.29,-84.5"/>
</g>
<!-- 2892510389280 -->
<g id="node18" class="node">
<title>2892510389280</title>
<polygon fill="white" stroke="black" points="3064.75,-99 2972.25,-99 2972.25,-63 3064.75,-63 3064.75,-99"/>
<text text-anchor="middle" x="3018.5" y="-75.97" font-family="Times New Roman,serif" font-size="12.00">Limited Release</text>
</g>
<!-- 2892510385872 -->
<g id="node39" class="node">
<title>2892510385872</title>
<ellipse fill="white" stroke="black" cx="3127.75" cy="-81" rx="27" ry="27"/>
</g>
<!-- 2892510389280&#45;&gt;2892510385872 -->
<g id="edge39" class="edge">
<title>2892510389280&#45;&gt;2892510385872</title>
<path fill="none" stroke="black" d="M3064.98,-81C3073.02,-81 3081.31,-81 3089.1,-81"/>
<polygon fill="black" stroke="black" points="3088.94,-84.5 3098.94,-81 3088.94,-77.5 3088.94,-84.5"/>
</g>
<!-- 2892510382992 -->
<g id="node19" class="node">
<title>2892510382992</title>
<polygon fill="white" stroke="black" points="3279.5,-99 3190.75,-99 3190.75,-63 3279.5,-63 3279.5,-99"/>
<text text-anchor="middle" x="3235.12" y="-75.97" font-family="Times New Roman,serif" font-size="12.00">Market Launch</text>
</g>
<!-- 2892510389760 -->
<g id="node40" class="node">
<title>2892510389760</title>
<ellipse fill="white" stroke="black" cx="3342.5" cy="-81" rx="27" ry="27"/>
</g>
<!-- 2892510382992&#45;&gt;2892510389760 -->
<g id="edge41" class="edge">
<title>2892510382992&#45;&gt;2892510389760</title>
<path fill="none" stroke="black" d="M3279.9,-81C3287.86,-81 3296.1,-81 3303.86,-81"/>
<polygon fill="black" stroke="black" points="3303.67,-84.5 3313.67,-81 3303.67,-77.5 3303.67,-84.5"/>
</g>
<!-- 2892510142272 -->
<g id="node20" class="node">
<title>2892510142272</title>
<ellipse fill="white" stroke="black" cx="27" cy="-110" rx="27" ry="27"/>
<text text-anchor="start" x="9.75" y="-92.7" font-family="Times New Roman,serif" font-size="34.00">●</text>
</g>
<!-- 2892510142272&#45;&gt;2892510142560 -->
<g id="edge1" class="edge">
<title>2892510142272&#45;&gt;2892510142560</title>
<path fill="none" stroke="black" d="M54.4,-110C61.89,-110 70.18,-110 78.2,-110"/>
<polygon fill="black" stroke="black" points="78.1,-113.5 88.1,-110 78.1,-106.5 78.1,-113.5"/>
</g>
<!-- 2892510380304&#45;&gt;2892510385680 -->
<g id="edge5" class="edge">
<title>2892510380304&#45;&gt;2892510385680</title>
<path fill="none" stroke="black" d="M234.5,-182C244.81,-182 257.07,-182 269.28,-182"/>
<polygon fill="black" stroke="black" points="268.91,-185.5 278.91,-182 268.91,-178.5 268.91,-185.5"/>
</g>
<!-- 2892510135504&#45;&gt;2892510611984 -->
<g id="edge6" class="edge">
<title>2892510135504&#45;&gt;2892510611984</title>
<path fill="none" stroke="black" d="M234.5,-110C243.07,-110 253,-110 263.12,-110"/>
<polygon fill="black" stroke="black" points="263.06,-113.5 273.05,-110 263.05,-106.5 263.06,-113.5"/>
</g>
<!-- 2892510396144&#45;&gt;2892510392592 -->
<g id="edge7" class="edge">
<title>2892510396144&#45;&gt;2892510392592</title>
<path fill="none" stroke="black" d="M234.2,-35.7C241.53,-35.33 249.86,-34.92 258.47,-34.49"/>
<polygon fill="black" stroke="black" points="258.56,-37.99 268.38,-34 258.22,-31 258.56,-37.99"/>
</g>
<!-- 2892510380928&#45;&gt;2892510136080 -->
<g id="edge12" class="edge">
<title>2892510380928&#45;&gt;2892510136080</title>
<path fill="none" stroke="black" d="M718.54,-182C758.84,-182 838.29,-182 905.75,-182 905.75,-182 905.75,-182 3236.12,-182 3301.77,-182 3367.37,-136.44 3403.37,-106.52"/>
<polygon fill="black" stroke="black" points="3405.37,-109.42 3410.71,-100.27 3400.83,-104.09 3405.37,-109.42"/>
</g>
<!-- 2892510673376&#45;&gt;2892504999712 -->
<g id="edge11" class="edge">
<title>2892510673376&#45;&gt;2892504999712</title>
<path fill="none" stroke="black" d="M479.84,-110C487.17,-110 495.48,-110 504.03,-110"/>
<polygon fill="black" stroke="black" points="503.82,-113.5 513.82,-110 503.82,-106.5 503.82,-113.5"/>
</g>
<!-- 2892510395760&#45;&gt;2892510136080 -->
<g id="edge13" class="edge">
<title>2892510395760&#45;&gt;2892510136080</title>
<path fill="none" stroke="black" d="M599.22,-26.81C641.25,-26.52 726.08,-26 798,-26 798,-26 798,-26 3236.12,-26 3296,-26 3312.93,-25.38 3369.5,-45 3378.28,-48.04 3387.21,-52.37 3395.46,-56.98"/>
<polygon fill="black" stroke="black" points="3393.42,-59.85 3403.82,-61.9 3396.98,-53.81 3393.42,-59.85"/>
</g>
<!-- 2892510553072&#45;&gt;2892510553696 -->
<g id="edge16" class="edge">
<title>2892510553072&#45;&gt;2892510553696</title>
<path fill="none" stroke="black" d="M718.66,-110C725.98,-110 734.21,-110 742.53,-110"/>
<polygon fill="black" stroke="black" points="742.33,-113.5 752.33,-110 742.33,-106.5 742.33,-113.5"/>
</g>
<!-- 2892510550672&#45;&gt;2892510444288 -->
<g id="edge18" class="edge">
<title>2892510550672&#45;&gt;2892510444288</title>
<path fill="none" stroke="black" d="M933.71,-105.16C941.21,-103.76 949.71,-102.18 958.31,-100.57"/>
<polygon fill="black" stroke="black" points="958.92,-104.02 968.11,-98.74 957.64,-97.14 958.92,-104.02"/>
</g>
<!-- 2892510445008&#45;&gt;2892510432576 -->
<g id="edge20" class="edge">
<title>2892510445008&#45;&gt;2892510432576</title>
<path fill="none" stroke="black" d="M1152.6,-81C1159.99,-81 1168.35,-81 1176.9,-81"/>
<polygon fill="black" stroke="black" points="1176.66,-84.5 1186.66,-81 1176.66,-77.5 1176.66,-84.5"/>
</g>
<!-- 2892510547552&#45;&gt;2892510430272 -->
<g id="edge23" class="edge">
<title>2892510547552&#45;&gt;2892510430272</title>
<path fill="none" stroke="black" d="M1383.74,-81C1393.63,-81 1405.29,-81 1416.84,-81"/>
<polygon fill="black" stroke="black" points="1416.76,-84.5 1426.76,-81 1416.76,-77.5 1416.76,-84.5"/>
</g>
<!-- 2892510547552&#45;&gt;2892510432336 -->
<g id="edge22" class="edge">
<title>2892510547552&#45;&gt;2892510432336</title>
<path fill="none" stroke="black" d="M1381.2,-92.4C1393.53,-98.33 1409.08,-105.8 1423.79,-112.88"/>
<polygon fill="black" stroke="black" points="1421.91,-115.86 1432.44,-117.03 1424.94,-109.55 1421.91,-115.86"/>
</g>
<!-- 2892510430656&#45;&gt;2892510430080 -->
<g id="edge26" class="edge">
<title>2892510430656&#45;&gt;2892510430080</title>
<path fill="none" stroke="black" d="M1616.49,-81C1623.82,-81 1632.09,-81 1640.47,-81"/>
<polygon fill="black" stroke="black" points="1640.37,-84.5 1650.37,-81 1640.37,-77.5 1640.37,-84.5"/>
</g>
<!-- 2892510429456&#45;&gt;2892510434784 -->
<g id="edge28" class="edge">
<title>2892510429456&#45;&gt;2892510434784</title>
<path fill="none" stroke="black" d="M1835.23,-81C1842.51,-81 1850.72,-81 1859.09,-81"/>
<polygon fill="black" stroke="black" points="1859.03,-84.5 1869.03,-81 1859.03,-77.5 1859.03,-84.5"/>
</g>
<!-- 2892510437280&#45;&gt;2892510439968 -->
<g id="edge30" class="edge">
<title>2892510437280&#45;&gt;2892510439968</title>
<path fill="none" stroke="black" d="M2062.57,-81C2069.9,-81 2078.18,-81 2086.6,-81"/>
<polygon fill="black" stroke="black" points="2086.58,-84.5 2096.58,-81 2086.58,-77.5 2086.58,-84.5"/>
</g>
<!-- 2892510441360&#45;&gt;2892510441456 -->
<g id="edge32" class="edge">
<title>2892510441360&#45;&gt;2892510441456</title>
<path fill="none" stroke="black" d="M2286.35,-81C2293.74,-81 2302.1,-81 2310.65,-81"/>
<polygon fill="black" stroke="black" points="2310.41,-84.5 2320.41,-81 2310.41,-77.5 2310.41,-84.5"/>
</g>
<!-- 2892510441120&#45;&gt;2892510434016 -->
<g id="edge34" class="edge">
<title>2892510441120&#45;&gt;2892510434016</title>
<path fill="none" stroke="black" d="M2517.49,-81C2524.96,-81 2533.35,-81 2541.74,-81"/>
<polygon fill="black" stroke="black" points="2541.58,-84.5 2551.58,-81 2541.58,-77.5 2541.58,-84.5"/>
</g>
<!-- 2892510440784&#45;&gt;2892510439440 -->
<g id="edge36" class="edge">
<title>2892510440784&#45;&gt;2892510439440</title>
<path fill="none" stroke="black" d="M2723.4,-81C2730.73,-81 2738.96,-81 2747.26,-81"/>
<polygon fill="black" stroke="black" points="2747.03,-84.5 2757.03,-81 2747.03,-77.5 2747.03,-84.5"/>
</g>
<!-- 2892510389040&#45;&gt;2892510389280 -->
<g id="edge38" class="edge">
<title>2892510389040&#45;&gt;2892510389280</title>
<path fill="none" stroke="black" d="M2936.49,-81C2943.82,-81 2952.09,-81 2960.47,-81"/>
<polygon fill="black" stroke="black" points="2960.37,-84.5 2970.37,-81 2960.37,-77.5 2960.37,-84.5"/>
</g>
<!-- 2892510385872&#45;&gt;2892510382992 -->
<g id="edge40" class="edge">
<title>2892510385872&#45;&gt;2892510382992</title>
<path fill="none" stroke="black" d="M3155.07,-81C3162.44,-81 3170.75,-81 3179.13,-81"/>
<polygon fill="black" stroke="black" points="3179.02,-84.5 3189.02,-81 3179.02,-77.5 3179.02,-84.5"/>
</g>
<!-- 2892510389760&#45;&gt;2892510136080 -->
<g id="edge42" class="edge">
<title>2892510389760&#45;&gt;2892510136080</title>
<path fill="none" stroke="black" d="M3369.9,-81C3377.39,-81 3385.68,-81 3393.7,-81"/>
<polygon fill="black" stroke="black" points="3393.6,-84.5 3403.6,-81 3393.6,-77.5 3393.6,-84.5"/>
</g>
</g>
</svg>
