<?xml version="1.0" encoding="UTF-8" standalone="no"?>
<!DOCTYPE svg PUBLIC "-//W3C//DTD SVG 1.1//EN"
 "http://www.w3.org/Graphics/SVG/1.1/DTD/svg11.dtd">
<!-- Generated by graphviz version 11.0.0 (20240428.1522)
 -->
<!-- Title: imdf_net_1754052820.1571379 Pages: 1 -->
<svg width="3407pt" height="143pt"
 viewBox="0.00 0.00 3406.75 143.00" xmlns="http://www.w3.org/2000/svg" xmlns:xlink="http://www.w3.org/1999/xlink">
<g id="graph0" class="graph" transform="scale(1 1) rotate(0) translate(4 139)">
<title>imdf_net_1754052820.1571379</title>
<polygon fill="white" stroke="none" points="-4,4 -4,-139 3402.75,-139 3402.75,4 -4,4"/>
<!-- 1990977368816 -->
<g id="node1" class="node">
<title>1990977368816</title>
<polygon fill="white" stroke="black" points="160.75,-109 90,-109 90,-73 160.75,-73 160.75,-109"/>
<text text-anchor="middle" x="125.38" y="-85.97" font-family="Times New Roman,serif" font-size="12.00">Site Survey</text>
</g>
<!-- 1990977367904 -->
<g id="node20" class="node">
<title>1990977367904</title>
<ellipse fill="white" stroke="black" cx="223.75" cy="-91" rx="27" ry="27"/>
</g>
<!-- 1990977368816&#45;&gt;1990977367904 -->
<g id="edge2" class="edge">
<title>1990977368816&#45;&gt;1990977367904</title>
<path fill="none" stroke="black" d="M161.17,-91C168.9,-91 177.14,-91 184.98,-91"/>
<polygon fill="black" stroke="black" points="184.97,-94.5 194.97,-91 184.97,-87.5 184.97,-94.5"/>
</g>
<!-- 1990977363920 -->
<g id="node2" class="node">
<title>1990977363920</title>
<polygon fill="white" stroke="black" points="363.5,-109 286.75,-109 286.75,-73 363.5,-73 363.5,-109"/>
<text text-anchor="middle" x="325.12" y="-85.97" font-family="Times New Roman,serif" font-size="12.00">Climate Plan</text>
</g>
<!-- 1990977363872 -->
<g id="node21" class="node">
<title>1990977363872</title>
<ellipse fill="white" stroke="black" cx="426.5" cy="-91" rx="27" ry="27"/>
</g>
<!-- 1990977363920&#45;&gt;1990977363872 -->
<g id="edge4" class="edge">
<title>1990977363920&#45;&gt;1990977363872</title>
<path fill="none" stroke="black" d="M363.98,-91C371.77,-91 379.98,-91 387.77,-91"/>
<polygon fill="black" stroke="black" points="387.65,-94.5 397.65,-91 387.65,-87.5 387.65,-94.5"/>
</g>
<!-- 1990977360656 -->
<g id="node3" class="node">
<title>1990977360656</title>
<polygon fill="white" stroke="black" points="576.75,-109 489.5,-109 489.5,-73 576.75,-73 576.75,-109"/>
<text text-anchor="middle" x="533.12" y="-85.97" font-family="Times New Roman,serif" font-size="12.00">System Design</text>
</g>
<!-- 1990977362384 -->
<g id="node22" class="node">
<title>1990977362384</title>
<ellipse fill="white" stroke="black" cx="639.75" cy="-91" rx="27" ry="27"/>
</g>
<!-- 1990977360656&#45;&gt;1990977362384 -->
<g id="edge6" class="edge">
<title>1990977360656&#45;&gt;1990977362384</title>
<path fill="none" stroke="black" d="M576.98,-91C584.93,-91 593.17,-91 600.95,-91"/>
<polygon fill="black" stroke="black" points="600.79,-94.5 610.79,-91 600.79,-87.5 600.79,-94.5"/>
</g>
<!-- 1990977356000 -->
<g id="node4" class="node">
<title>1990977356000</title>
<polygon fill="white" stroke="black" points="761.5,-109 702.75,-109 702.75,-73 761.5,-73 761.5,-109"/>
<text text-anchor="middle" x="732.12" y="-85.97" font-family="Times New Roman,serif" font-size="12.00">AI Setup</text>
</g>
<!-- 1990980947888 -->
<g id="node23" class="node">
<title>1990980947888</title>
<ellipse fill="white" stroke="black" cx="824.5" cy="-91" rx="27" ry="27"/>
</g>
<!-- 1990977356000&#45;&gt;1990980947888 -->
<g id="edge8" class="edge">
<title>1990977356000&#45;&gt;1990980947888</title>
<path fill="none" stroke="black" d="M761.72,-91C769.36,-91 777.74,-91 785.8,-91"/>
<polygon fill="black" stroke="black" points="785.72,-94.5 795.72,-91 785.72,-87.5 785.72,-94.5"/>
</g>
<!-- 1990980955904 -->
<g id="node5" class="node">
<title>1990980955904</title>
<polygon fill="white" stroke="black" points="972.5,-109 887.5,-109 887.5,-73 972.5,-73 972.5,-109"/>
<text text-anchor="middle" x="930" y="-85.97" font-family="Times New Roman,serif" font-size="12.00">Seed Sourcing</text>
</g>
<!-- 1990980954368 -->
<g id="node24" class="node">
<title>1990980954368</title>
<ellipse fill="white" stroke="black" cx="1035.5" cy="-91" rx="27" ry="27"/>
</g>
<!-- 1990980955904&#45;&gt;1990980954368 -->
<g id="edge10" class="edge">
<title>1990980955904&#45;&gt;1990980954368</title>
<path fill="none" stroke="black" d="M972.8,-91C980.7,-91 988.92,-91 996.68,-91"/>
<polygon fill="black" stroke="black" points="996.51,-94.5 1006.51,-91 996.51,-87.5 996.51,-94.5"/>
</g>
<!-- 1990979658928 -->
<g id="node6" class="node">
<title>1990979658928</title>
<polygon fill="white" stroke="black" points="1176,-109 1098.5,-109 1098.5,-73 1176,-73 1176,-109"/>
<text text-anchor="middle" x="1137.25" y="-85.97" font-family="Times New Roman,serif" font-size="12.00">Nutrient Mix</text>
</g>
<!-- 1990979657584 -->
<g id="node25" class="node">
<title>1990979657584</title>
<ellipse fill="white" stroke="black" cx="1239" cy="-91" rx="27" ry="27"/>
</g>
<!-- 1990979658928&#45;&gt;1990979657584 -->
<g id="edge12" class="edge">
<title>1990979658928&#45;&gt;1990979657584</title>
<path fill="none" stroke="black" d="M1176.25,-91C1184.07,-91 1192.31,-91 1200.13,-91"/>
<polygon fill="black" stroke="black" points="1200.05,-94.5 1210.05,-91 1200.05,-87.5 1200.05,-94.5"/>
</g>
<!-- 1990979652448 -->
<g id="node7" class="node">
<title>1990979652448</title>
<polygon fill="white" stroke="black" points="1380.25,-109 1302,-109 1302,-73 1380.25,-73 1380.25,-109"/>
<text text-anchor="middle" x="1341.12" y="-85.97" font-family="Times New Roman,serif" font-size="12.00">Install Hydro</text>
</g>
<!-- 1990979663872 -->
<g id="node26" class="node">
<title>1990979663872</title>
<ellipse fill="white" stroke="black" cx="1443.25" cy="-91" rx="27" ry="27"/>
</g>
<!-- 1990979652448&#45;&gt;1990979663872 -->
<g id="edge14" class="edge">
<title>1990979652448&#45;&gt;1990979663872</title>
<path fill="none" stroke="black" d="M1380.55,-91C1388.39,-91 1396.63,-91 1404.44,-91"/>
<polygon fill="black" stroke="black" points="1404.36,-94.5 1414.36,-91 1404.36,-87.5 1404.36,-94.5"/>
</g>
<!-- 1990978751232 -->
<g id="node8" class="node">
<title>1990978751232</title>
<polygon fill="white" stroke="black" points="1586.75,-109 1506.25,-109 1506.25,-73 1586.75,-73 1586.75,-109"/>
<text text-anchor="middle" x="1546.5" y="-85.97" font-family="Times New Roman,serif" font-size="12.00">Energy Audit</text>
</g>
<!-- 1990978750656 -->
<g id="node27" class="node">
<title>1990978750656</title>
<ellipse fill="white" stroke="black" cx="1649.75" cy="-91" rx="27" ry="27"/>
</g>
<!-- 1990978751232&#45;&gt;1990978750656 -->
<g id="edge16" class="edge">
<title>1990978751232&#45;&gt;1990978750656</title>
<path fill="none" stroke="black" d="M1587.23,-91C1595.1,-91 1603.34,-91 1611.14,-91"/>
<polygon fill="black" stroke="black" points="1611.02,-94.5 1621.02,-91 1611.02,-87.5 1611.02,-94.5"/>
</g>
<!-- 1990978753968 -->
<g id="node9" class="node">
<title>1990978753968</title>
<polygon fill="white" stroke="black" points="1794.75,-109 1712.75,-109 1712.75,-73 1794.75,-73 1794.75,-109"/>
<text text-anchor="middle" x="1753.75" y="-85.97" font-family="Times New Roman,serif" font-size="12.00">Staff Training</text>
</g>
<!-- 1990980640576 -->
<g id="node28" class="node">
<title>1990980640576</title>
<ellipse fill="white" stroke="black" cx="1857.75" cy="-91" rx="27" ry="27"/>
</g>
<!-- 1990978753968&#45;&gt;1990980640576 -->
<g id="edge18" class="edge">
<title>1990978753968&#45;&gt;1990980640576</title>
<path fill="none" stroke="black" d="M1795.06,-91C1802.98,-91 1811.25,-91 1819.07,-91"/>
<polygon fill="black" stroke="black" points="1818.98,-94.5 1828.98,-91 1818.98,-87.5 1818.98,-94.5"/>
</g>
<!-- 1990980648160 -->
<g id="node10" class="node">
<title>1990980648160</title>
<polygon fill="white" stroke="black" points="1999,-86 1920.75,-86 1920.75,-50 1999,-50 1999,-86"/>
<text text-anchor="middle" x="1959.88" y="-62.98" font-family="Times New Roman,serif" font-size="12.00">Trial Growth</text>
</g>
<!-- 1990980640624 -->
<g id="node29" class="node">
<title>1990980640624</title>
<ellipse fill="white" stroke="black" cx="2062" cy="-63" rx="27" ry="27"/>
</g>
<!-- 1990980648160&#45;&gt;1990980640624 -->
<g id="edge20" class="edge">
<title>1990980648160&#45;&gt;1990980640624</title>
<path fill="none" stroke="black" d="M1999.3,-66.08C2007.14,-65.69 2015.38,-65.28 2023.19,-64.89"/>
<polygon fill="black" stroke="black" points="2023.3,-68.39 2033.11,-64.39 2022.95,-61.4 2023.3,-68.39"/>
</g>
<!-- 1990980633472 -->
<g id="node11" class="node">
<title>1990980633472</title>
<polygon fill="white" stroke="black" points="2210.75,-81 2125,-81 2125,-45 2210.75,-45 2210.75,-81"/>
<text text-anchor="middle" x="2167.88" y="-57.98" font-family="Times New Roman,serif" font-size="12.00">Yield Measure</text>
</g>
<!-- 1990980640960 -->
<g id="node30" class="node">
<title>1990980640960</title>
<ellipse fill="white" stroke="black" cx="2273.75" cy="-63" rx="27" ry="27"/>
</g>
<!-- 1990980633472&#45;&gt;1990980640960 -->
<g id="edge22" class="edge">
<title>1990980633472&#45;&gt;1990980640960</title>
<path fill="none" stroke="black" d="M2211.12,-63C2219.03,-63 2227.25,-63 2235.01,-63"/>
<polygon fill="black" stroke="black" points="2234.82,-66.5 2244.82,-63 2234.82,-59.5 2234.82,-66.5"/>
</g>
<!-- 1990976839392 -->
<g id="node12" class="node">
<title>1990976839392</title>
<polygon fill="white" stroke="black" points="2460.75,-81 2336.75,-81 2336.75,-45 2460.75,-45 2460.75,-81"/>
<text text-anchor="middle" x="2398.75" y="-57.98" font-family="Times New Roman,serif" font-size="12.00">Optimize Environment</text>
</g>
<!-- 1990980643888 -->
<g id="node31" class="node">
<title>1990980643888</title>
<ellipse fill="white" stroke="black" cx="2523.75" cy="-63" rx="27" ry="27"/>
</g>
<!-- 1990976839392&#45;&gt;1990980643888 -->
<g id="edge24" class="edge">
<title>1990976839392&#45;&gt;1990980643888</title>
<path fill="none" stroke="black" d="M2461.25,-63C2469.37,-63 2477.49,-63 2485.04,-63"/>
<polygon fill="black" stroke="black" points="2484.85,-66.5 2494.85,-63 2484.85,-59.5 2484.85,-66.5"/>
</g>
<!-- 1990976836512 -->
<g id="node13" class="node">
<title>1990976836512</title>
<polygon fill="black" stroke="black" points="2667.12,-135 2613.12,-135 2613.12,-99 2667.12,-99 2667.12,-135"/>
</g>
<!-- 1990976836512&#45;&gt;1990980640576 -->
<g id="edge27" class="edge">
<title>1990976836512&#45;&gt;1990980640576</title>
<path fill="none" stroke="black" d="M2612.91,-117.18C2568.88,-117.47 2477.26,-118 2399.75,-118 2061,-118 2061,-118 2061,-118 2002.8,-118 1936.01,-106.88 1895.62,-98.91"/>
<polygon fill="black" stroke="black" points="1896.44,-95.51 1885.95,-96.96 1895.06,-102.37 1896.44,-95.51"/>
</g>
<!-- 1990976834640 -->
<g id="node14" class="node">
<title>1990976834640</title>
<polygon fill="white" stroke="black" points="2693.5,-81 2586.75,-81 2586.75,-45 2693.5,-45 2693.5,-81"/>
<text text-anchor="middle" x="2640.12" y="-57.98" font-family="Times New Roman,serif" font-size="12.00">Compliance Check</text>
</g>
<!-- 1990976833488 -->
<g id="node32" class="node">
<title>1990976833488</title>
<ellipse fill="white" stroke="black" cx="2756.5" cy="-63" rx="27" ry="27"/>
</g>
<!-- 1990976834640&#45;&gt;1990976833488 -->
<g id="edge28" class="edge">
<title>1990976834640&#45;&gt;1990976833488</title>
<path fill="none" stroke="black" d="M2693.96,-63C2701.95,-63 2710.05,-63 2717.64,-63"/>
<polygon fill="black" stroke="black" points="2717.54,-66.5 2727.54,-63 2717.54,-59.5 2717.54,-66.5"/>
</g>
<!-- 1990976846976 -->
<g id="node15" class="node">
<title>1990976846976</title>
<polygon fill="white" stroke="black" points="2895.5,-81 2819.5,-81 2819.5,-45 2895.5,-45 2895.5,-81"/>
<text text-anchor="middle" x="2857.5" y="-57.98" font-family="Times New Roman,serif" font-size="12.00">Waste Cycle</text>
</g>
<!-- 1990976837520 -->
<g id="node33" class="node">
<title>1990976837520</title>
<ellipse fill="white" stroke="black" cx="2958.5" cy="-99" rx="27" ry="27"/>
</g>
<!-- 1990976846976&#45;&gt;1990976837520 -->
<g id="edge31" class="edge">
<title>1990976846976&#45;&gt;1990976837520</title>
<path fill="none" stroke="black" d="M2895.93,-76.61C2904.46,-79.71 2913.49,-83 2921.94,-86.07"/>
<polygon fill="black" stroke="black" points="2920.6,-89.31 2931.19,-89.43 2922.99,-82.73 2920.6,-89.31"/>
</g>
<!-- 1990982516912 -->
<g id="node34" class="node">
<title>1990982516912</title>
<ellipse fill="white" stroke="black" cx="2958.5" cy="-27" rx="27" ry="27"/>
</g>
<!-- 1990976846976&#45;&gt;1990982516912 -->
<g id="edge30" class="edge">
<title>1990976846976&#45;&gt;1990982516912</title>
<path fill="none" stroke="black" d="M2895.93,-49.39C2904.46,-46.29 2913.49,-43 2921.94,-39.93"/>
<polygon fill="black" stroke="black" points="2922.99,-43.27 2931.19,-36.57 2920.6,-36.69 2922.99,-43.27"/>
</g>
<!-- 1990976837376 -->
<g id="node16" class="node">
<title>1990976837376</title>
<polygon fill="white" stroke="black" points="3120.75,-117 3021.5,-117 3021.5,-81 3120.75,-81 3120.75,-117"/>
<text text-anchor="middle" x="3071.12" y="-93.97" font-family="Times New Roman,serif" font-size="12.00">Community Meet</text>
</g>
<!-- 1990976839344 -->
<g id="node35" class="node">
<title>1990976839344</title>
<ellipse fill="white" stroke="black" cx="3183.75" cy="-99" rx="27" ry="27"/>
</g>
<!-- 1990976837376&#45;&gt;1990976839344 -->
<g id="edge34" class="edge">
<title>1990976837376&#45;&gt;1990976839344</title>
<path fill="none" stroke="black" d="M3120.97,-99C3129.04,-99 3137.3,-99 3145.04,-99"/>
<polygon fill="black" stroke="black" points="3144.8,-102.5 3154.8,-99 3144.8,-95.5 3144.8,-102.5"/>
</g>
<!-- 1990982524304 -->
<g id="node17" class="node">
<title>1990982524304</title>
<polygon fill="white" stroke="black" points="3111.38,-45 3030.88,-45 3030.88,-9 3111.38,-9 3111.38,-45"/>
<text text-anchor="middle" x="3071.12" y="-21.98" font-family="Times New Roman,serif" font-size="12.00">Market Study</text>
</g>
<!-- 1990982523488 -->
<g id="node36" class="node">
<title>1990982523488</title>
<ellipse fill="white" stroke="black" cx="3183.75" cy="-27" rx="27" ry="27"/>
</g>
<!-- 1990982524304&#45;&gt;1990982523488 -->
<g id="edge35" class="edge">
<title>1990982524304&#45;&gt;1990982523488</title>
<path fill="none" stroke="black" d="M3111.75,-27C3122.68,-27 3134.5,-27 3145.3,-27"/>
<polygon fill="black" stroke="black" points="3145.01,-30.5 3155.01,-27 3145.01,-23.5 3145.01,-30.5"/>
</g>
<!-- 1990980182352 -->
<g id="node18" class="node">
<title>1990980182352</title>
<polygon fill="black" stroke="black" points="3300.75,-81 3246.75,-81 3246.75,-45 3300.75,-45 3300.75,-81"/>
</g>
<!-- 1990980183600 -->
<g id="node37" class="node">
<title>1990980183600</title>
<ellipse fill="white" stroke="black" cx="3367.75" cy="-63" rx="27" ry="27"/>
<ellipse fill="none" stroke="black" cx="3367.75" cy="-63" rx="31" ry="31"/>
<text text-anchor="start" x="3351.25" y="-47.6" font-family="Times New Roman,serif" font-size="32.00">■</text>
</g>
<!-- 1990980182352&#45;&gt;1990980183600 -->
<g id="edge38" class="edge">
<title>1990980182352&#45;&gt;1990980183600</title>
<path fill="none" stroke="black" d="M3300.87,-63C3308.38,-63 3316.76,-63 3324.97,-63"/>
<polygon fill="black" stroke="black" points="3324.83,-66.5 3334.83,-63 3324.83,-59.5 3324.83,-66.5"/>
</g>
<!-- 1990980183648 -->
<g id="node19" class="node">
<title>1990980183648</title>
<ellipse fill="white" stroke="black" cx="27" cy="-91" rx="27" ry="27"/>
<text text-anchor="start" x="9.75" y="-73.7" font-family="Times New Roman,serif" font-size="34.00">●</text>
</g>
<!-- 1990980183648&#45;&gt;1990977368816 -->
<g id="edge1" class="edge">
<title>1990980183648&#45;&gt;1990977368816</title>
<path fill="none" stroke="black" d="M54.33,-91C61.76,-91 70.06,-91 78.28,-91"/>
<polygon fill="black" stroke="black" points="78.24,-94.5 88.24,-91 78.24,-87.5 78.24,-94.5"/>
</g>
<!-- 1990977367904&#45;&gt;1990977363920 -->
<g id="edge3" class="edge">
<title>1990977367904&#45;&gt;1990977363920</title>
<path fill="none" stroke="black" d="M251.12,-91C258.47,-91 266.69,-91 274.9,-91"/>
<polygon fill="black" stroke="black" points="274.89,-94.5 284.89,-91 274.89,-87.5 274.89,-94.5"/>
</g>
<!-- 1990977363872&#45;&gt;1990977360656 -->
<g id="edge5" class="edge">
<title>1990977363872&#45;&gt;1990977360656</title>
<path fill="none" stroke="black" d="M453.9,-91C461.23,-91 469.46,-91 477.76,-91"/>
<polygon fill="black" stroke="black" points="477.53,-94.5 487.53,-91 477.53,-87.5 477.53,-94.5"/>
</g>
<!-- 1990977362384&#45;&gt;1990977356000 -->
<g id="edge7" class="edge">
<title>1990977362384&#45;&gt;1990977356000</title>
<path fill="none" stroke="black" d="M666.89,-91C674.47,-91 682.93,-91 691.16,-91"/>
<polygon fill="black" stroke="black" points="691,-94.5 701,-91 691,-87.5 691,-94.5"/>
</g>
<!-- 1990980947888&#45;&gt;1990980955904 -->
<g id="edge9" class="edge">
<title>1990980947888&#45;&gt;1990980955904</title>
<path fill="none" stroke="black" d="M851.89,-91C859.3,-91 867.63,-91 876.01,-91"/>
<polygon fill="black" stroke="black" points="875.86,-94.5 885.86,-91 875.86,-87.5 875.86,-94.5"/>
</g>
<!-- 1990980954368&#45;&gt;1990979658928 -->
<g id="edge11" class="edge">
<title>1990980954368&#45;&gt;1990979658928</title>
<path fill="none" stroke="black" d="M1062.97,-91C1070.27,-91 1078.43,-91 1086.58,-91"/>
<polygon fill="black" stroke="black" points="1086.5,-94.5 1096.5,-91 1086.5,-87.5 1086.5,-94.5"/>
</g>
<!-- 1990979657584&#45;&gt;1990979652448 -->
<g id="edge13" class="edge">
<title>1990979657584&#45;&gt;1990979652448</title>
<path fill="none" stroke="black" d="M1266.31,-91C1273.63,-91 1281.84,-91 1290.05,-91"/>
<polygon fill="black" stroke="black" points="1290.05,-94.5 1300.05,-91 1290.05,-87.5 1290.05,-94.5"/>
</g>
<!-- 1990979663872&#45;&gt;1990978751232 -->
<g id="edge15" class="edge">
<title>1990979663872&#45;&gt;1990978751232</title>
<path fill="none" stroke="black" d="M1470.59,-91C1478,-91 1486.32,-91 1494.65,-91"/>
<polygon fill="black" stroke="black" points="1494.42,-94.5 1504.42,-91 1494.42,-87.5 1494.42,-94.5"/>
</g>
<!-- 1990978750656&#45;&gt;1990978753968 -->
<g id="edge17" class="edge">
<title>1990978750656&#45;&gt;1990978753968</title>
<path fill="none" stroke="black" d="M1677.02,-91C1684.4,-91 1692.7,-91 1701.03,-91"/>
<polygon fill="black" stroke="black" points="1700.8,-94.5 1710.8,-91 1700.8,-87.5 1700.8,-94.5"/>
</g>
<!-- 1990980640576&#45;&gt;1990980648160 -->
<g id="edge19" class="edge">
<title>1990980640576&#45;&gt;1990980648160</title>
<path fill="none" stroke="black" d="M1884.53,-85.08C1892.11,-83.34 1900.66,-81.37 1909.2,-79.41"/>
<polygon fill="black" stroke="black" points="1909.89,-82.84 1918.85,-77.19 1908.32,-76.02 1909.89,-82.84"/>
</g>
<!-- 1990980640624&#45;&gt;1990980633472 -->
<g id="edge21" class="edge">
<title>1990980640624&#45;&gt;1990980633472</title>
<path fill="none" stroke="black" d="M2089.48,-63C2096.84,-63 2105.1,-63 2113.41,-63"/>
<polygon fill="black" stroke="black" points="2113.19,-66.5 2123.19,-63 2113.19,-59.5 2113.19,-66.5"/>
</g>
<!-- 1990980640960&#45;&gt;1990976839392 -->
<g id="edge23" class="edge">
<title>1990980640960&#45;&gt;1990976839392</title>
<path fill="none" stroke="black" d="M2301.14,-63C2308.35,-63 2316.54,-63 2325.02,-63"/>
<polygon fill="black" stroke="black" points="2324.76,-66.5 2334.76,-63 2324.76,-59.5 2324.76,-66.5"/>
</g>
<!-- 1990980643888&#45;&gt;1990976836512 -->
<g id="edge25" class="edge">
<title>1990980643888&#45;&gt;1990976836512</title>
<path fill="none" stroke="black" d="M2548.73,-74.32C2564.39,-81.71 2585.13,-91.51 2602.8,-99.85"/>
<polygon fill="black" stroke="black" points="2600.88,-102.81 2611.42,-103.92 2603.87,-96.48 2600.88,-102.81"/>
</g>
<!-- 1990980643888&#45;&gt;1990976834640 -->
<g id="edge26" class="edge">
<title>1990980643888&#45;&gt;1990976834640</title>
<path fill="none" stroke="black" d="M2550.99,-63C2558.33,-63 2566.64,-63 2575.15,-63"/>
<polygon fill="black" stroke="black" points="2574.88,-66.5 2584.88,-63 2574.88,-59.5 2574.88,-66.5"/>
</g>
<!-- 1990976833488&#45;&gt;1990976846976 -->
<g id="edge29" class="edge">
<title>1990976833488&#45;&gt;1990976846976</title>
<path fill="none" stroke="black" d="M2783.77,-63C2791.25,-63 2799.65,-63 2808.01,-63"/>
<polygon fill="black" stroke="black" points="2807.78,-66.5 2817.78,-63 2807.78,-59.5 2807.78,-66.5"/>
</g>
<!-- 1990976837520&#45;&gt;1990976837376 -->
<g id="edge32" class="edge">
<title>1990976837520&#45;&gt;1990976837376</title>
<path fill="none" stroke="black" d="M2986,-99C2993.29,-99 3001.52,-99 3009.89,-99"/>
<polygon fill="black" stroke="black" points="3009.82,-102.5 3019.82,-99 3009.82,-95.5 3009.82,-102.5"/>
</g>
<!-- 1990982516912&#45;&gt;1990982524304 -->
<g id="edge33" class="edge">
<title>1990982516912&#45;&gt;1990982524304</title>
<path fill="none" stroke="black" d="M2986,-27C2995.97,-27 3007.67,-27 3019.13,-27"/>
<polygon fill="black" stroke="black" points="3018.92,-30.5 3028.92,-27 3018.92,-23.5 3018.92,-30.5"/>
</g>
<!-- 1990976839344&#45;&gt;1990980182352 -->
<g id="edge36" class="edge">
<title>1990976839344&#45;&gt;1990980182352</title>
<path fill="none" stroke="black" d="M3209.26,-88.97C3217.51,-85.6 3226.89,-81.76 3235.87,-78.09"/>
<polygon fill="black" stroke="black" points="3237.19,-81.33 3245.12,-74.3 3234.54,-74.85 3237.19,-81.33"/>
</g>
<!-- 1990982523488&#45;&gt;1990980182352 -->
<g id="edge37" class="edge">
<title>1990982523488&#45;&gt;1990980182352</title>
<path fill="none" stroke="black" d="M3209.26,-37.03C3217.51,-40.4 3226.89,-44.24 3235.87,-47.91"/>
<polygon fill="black" stroke="black" points="3234.54,-51.15 3245.12,-51.7 3237.19,-44.67 3234.54,-51.15"/>
</g>
</g>
</svg>
