<?xml version="1.0" encoding="UTF-8" standalone="no"?>
<!DOCTYPE svg PUBLIC "-//W3C//DTD SVG 1.1//EN"
 "http://www.w3.org/Graphics/SVG/1.1/DTD/svg11.dtd">
<!-- Generated by graphviz version 11.0.0 (20240428.1522)
 -->
<!-- Title: imdf_net_1754052824.9500024 Pages: 1 -->
<svg width="3224pt" height="179pt"
 viewBox="0.00 0.00 3223.50 179.00" xmlns="http://www.w3.org/2000/svg" xmlns:xlink="http://www.w3.org/1999/xlink">
<g id="graph0" class="graph" transform="scale(1 1) rotate(0) translate(4 175)">
<title>imdf_net_1754052824.9500024</title>
<polygon fill="white" stroke="none" points="-4,4 -4,-175 3219.5,-175 3219.5,4 -4,4"/>
<!-- 1990976045184 -->
<g id="node1" class="node">
<title>1990976045184</title>
<polygon fill="white" stroke="black" points="161.5,-148 90,-148 90,-112 161.5,-112 161.5,-148"/>
<text text-anchor="middle" x="125.75" y="-124.97" font-family="Times New Roman,serif" font-size="12.00">Client Brief</text>
</g>
<!-- 1990978391648 -->
<g id="node19" class="node">
<title>1990978391648</title>
<ellipse fill="white" stroke="black" cx="224.5" cy="-130" rx="27" ry="27"/>
</g>
<!-- 1990976045184&#45;&gt;1990978391648 -->
<g id="edge2" class="edge">
<title>1990976045184&#45;&gt;1990978391648</title>
<path fill="none" stroke="black" d="M161.95,-130C169.7,-130 177.94,-130 185.79,-130"/>
<polygon fill="black" stroke="black" points="185.76,-133.5 195.76,-130 185.76,-126.5 185.76,-133.5"/>
</g>
<!-- 1990977928608 -->
<g id="node2" class="node">
<title>1990977928608</title>
<polygon fill="white" stroke="black" points="371,-121 287.5,-121 287.5,-85 371,-85 371,-121"/>
<text text-anchor="middle" x="329.25" y="-97.97" font-family="Times New Roman,serif" font-size="12.00">Spec Analysis</text>
</g>
<!-- 1990978389392 -->
<g id="node20" class="node">
<title>1990978389392</title>
<ellipse fill="white" stroke="black" cx="434" cy="-99" rx="27" ry="27"/>
</g>
<!-- 1990977928608&#45;&gt;1990978389392 -->
<g id="edge4" class="edge">
<title>1990977928608&#45;&gt;1990978389392</title>
<path fill="none" stroke="black" d="M371.45,-101.4C379.31,-101.09 387.5,-100.77 395.25,-100.47"/>
<polygon fill="black" stroke="black" points="395.19,-103.97 405.05,-100.09 394.92,-96.98 395.19,-103.97"/>
</g>
<!-- 1990978389248 -->
<g id="node3" class="node">
<title>1990978389248</title>
<polygon fill="white" stroke="black" points="597.75,-117 497,-117 497,-81 597.75,-81 597.75,-117"/>
<text text-anchor="middle" x="547.38" y="-93.97" font-family="Times New Roman,serif" font-size="12.00">Material Sourcing</text>
</g>
<!-- 1990978402064 -->
<g id="node21" class="node">
<title>1990978402064</title>
<ellipse fill="white" stroke="black" cx="660.75" cy="-99" rx="27" ry="27"/>
</g>
<!-- 1990978389248&#45;&gt;1990978402064 -->
<g id="edge6" class="edge">
<title>1990978389248&#45;&gt;1990978402064</title>
<path fill="none" stroke="black" d="M598.2,-99C606.18,-99 614.33,-99 621.97,-99"/>
<polygon fill="black" stroke="black" points="621.95,-102.5 631.95,-99 621.95,-95.5 621.95,-102.5"/>
</g>
<!-- 1990978393568 -->
<g id="node4" class="node">
<title>1990978393568</title>
<polygon fill="white" stroke="black" points="833.5,-117 723.75,-117 723.75,-81 833.5,-81 833.5,-117"/>
<text text-anchor="middle" x="778.62" y="-93.97" font-family="Times New Roman,serif" font-size="12.00">Component Vetting</text>
</g>
<!-- 1990978397024 -->
<g id="node22" class="node">
<title>1990978397024</title>
<ellipse fill="white" stroke="black" cx="896.5" cy="-99" rx="27" ry="27"/>
</g>
<!-- 1990978393568&#45;&gt;1990978397024 -->
<g id="edge8" class="edge">
<title>1990978393568&#45;&gt;1990978397024</title>
<path fill="none" stroke="black" d="M833.83,-99C841.87,-99 850.01,-99 857.62,-99"/>
<polygon fill="black" stroke="black" points="857.54,-102.5 867.54,-99 857.54,-95.5 857.54,-102.5"/>
</g>
<!-- 1990980996224 -->
<g id="node5" class="node">
<title>1990980996224</title>
<polygon fill="white" stroke="black" points="1055.75,-117 959.5,-117 959.5,-81 1055.75,-81 1055.75,-117"/>
<text text-anchor="middle" x="1007.62" y="-93.97" font-family="Times New Roman,serif" font-size="12.00">Frame Assembly</text>
</g>
<!-- 1990971922512 -->
<g id="node23" class="node">
<title>1990971922512</title>
<ellipse fill="white" stroke="black" cx="1118.75" cy="-99" rx="27" ry="27"/>
</g>
<!-- 1990980996224&#45;&gt;1990971922512 -->
<g id="edge11" class="edge">
<title>1990980996224&#45;&gt;1990971922512</title>
<path fill="none" stroke="black" d="M1056.17,-99C1064.09,-99 1072.2,-99 1079.84,-99"/>
<polygon fill="black" stroke="black" points="1079.83,-102.5 1089.83,-99 1079.83,-95.5 1079.83,-102.5"/>
</g>
<!-- 1990980995168 -->
<g id="node24" class="node">
<title>1990980995168</title>
<ellipse fill="white" stroke="black" cx="1118.75" cy="-27" rx="27" ry="27"/>
</g>
<!-- 1990980996224&#45;&gt;1990980995168 -->
<g id="edge10" class="edge">
<title>1990980996224&#45;&gt;1990980995168</title>
<path fill="none" stroke="black" d="M1036.44,-80.65C1051.71,-70.57 1070.7,-58.05 1086.48,-47.63"/>
<polygon fill="black" stroke="black" points="1088.15,-50.73 1094.57,-42.3 1084.29,-44.88 1088.15,-50.73"/>
</g>
<!-- 1990971930624 -->
<g id="node6" class="node">
<title>1990971930624</title>
<polygon fill="white" stroke="black" points="1270.12,-45 1190.38,-45 1190.38,-9 1270.12,-9 1270.12,-45"/>
<text text-anchor="middle" x="1230.25" y="-21.98" font-family="Times New Roman,serif" font-size="12.00">Sensor Install</text>
</g>
<!-- 1990978548992 -->
<g id="node25" class="node">
<title>1990978548992</title>
<ellipse fill="white" stroke="black" cx="1341.75" cy="-27" rx="27" ry="27"/>
</g>
<!-- 1990971930624&#45;&gt;1990978548992 -->
<g id="edge14" class="edge">
<title>1990971930624&#45;&gt;1990978548992</title>
<path fill="none" stroke="black" d="M1270.47,-27C1281.08,-27 1292.54,-27 1303.07,-27"/>
<polygon fill="black" stroke="black" points="1302.95,-30.5 1312.95,-27 1302.95,-23.5 1302.95,-30.5"/>
</g>
<!-- 1990971928896 -->
<g id="node7" class="node">
<title>1990971928896</title>
<polygon fill="white" stroke="black" points="1278.75,-117 1181.75,-117 1181.75,-81 1278.75,-81 1278.75,-117"/>
<text text-anchor="middle" x="1230.25" y="-93.97" font-family="Times New Roman,serif" font-size="12.00">Propulsion Setup</text>
</g>
<!-- 1990978536176 -->
<g id="node26" class="node">
<title>1990978536176</title>
<ellipse fill="white" stroke="black" cx="1341.75" cy="-99" rx="27" ry="27"/>
</g>
<!-- 1990971928896&#45;&gt;1990978536176 -->
<g id="edge15" class="edge">
<title>1990971928896&#45;&gt;1990978536176</title>
<path fill="none" stroke="black" d="M1278.96,-99C1287.07,-99 1295.4,-99 1303.2,-99"/>
<polygon fill="black" stroke="black" points="1303.04,-102.5 1313.04,-99 1303.04,-95.5 1303.04,-102.5"/>
</g>
<!-- 1990971921696 -->
<g id="node8" class="node">
<title>1990971921696</title>
<polygon fill="white" stroke="black" points="1473.25,-117 1404.75,-117 1404.75,-81 1473.25,-81 1473.25,-117"/>
<text text-anchor="middle" x="1439" y="-93.97" font-family="Times New Roman,serif" font-size="12.00">Calibration</text>
</g>
<!-- 1990971919776 -->
<g id="node27" class="node">
<title>1990971919776</title>
<ellipse fill="white" stroke="black" cx="1536.25" cy="-99" rx="27" ry="27"/>
</g>
<!-- 1990971921696&#45;&gt;1990971919776 -->
<g id="edge18" class="edge">
<title>1990971921696&#45;&gt;1990971919776</title>
<path fill="none" stroke="black" d="M1473.58,-99C1481.35,-99 1489.68,-99 1497.61,-99"/>
<polygon fill="black" stroke="black" points="1497.33,-102.5 1507.33,-99 1497.33,-95.5 1497.33,-102.5"/>
</g>
<!-- 1990971927216 -->
<g id="node9" class="node">
<title>1990971927216</title>
<polygon fill="white" stroke="black" points="1685.75,-117 1599.25,-117 1599.25,-81 1685.75,-81 1685.75,-117"/>
<text text-anchor="middle" x="1642.5" y="-93.97" font-family="Times New Roman,serif" font-size="12.00">Software Load</text>
</g>
<!-- 1990971918144 -->
<g id="node28" class="node">
<title>1990971918144</title>
<ellipse fill="white" stroke="black" cx="1748.75" cy="-99" rx="27" ry="27"/>
</g>
<!-- 1990971927216&#45;&gt;1990971918144 -->
<g id="edge20" class="edge">
<title>1990971927216&#45;&gt;1990971918144</title>
<path fill="none" stroke="black" d="M1686.2,-99C1694.12,-99 1702.34,-99 1710.09,-99"/>
<polygon fill="black" stroke="black" points="1709.89,-102.5 1719.89,-99 1709.89,-95.5 1709.89,-102.5"/>
</g>
<!-- 1990971925632 -->
<g id="node10" class="node">
<title>1990971925632</title>
<polygon fill="white" stroke="black" points="1878.75,-117 1811.75,-117 1811.75,-81 1878.75,-81 1878.75,-117"/>
<text text-anchor="middle" x="1845.25" y="-93.97" font-family="Times New Roman,serif" font-size="12.00">Flight Test</text>
</g>
<!-- 1990971918864 -->
<g id="node29" class="node">
<title>1990971918864</title>
<ellipse fill="white" stroke="black" cx="1941.75" cy="-99" rx="27" ry="27"/>
</g>
<!-- 1990971925632&#45;&gt;1990971918864 -->
<g id="edge22" class="edge">
<title>1990971925632&#45;&gt;1990971918864</title>
<path fill="none" stroke="black" d="M1879.04,-99C1886.77,-99 1895.08,-99 1903.02,-99"/>
<polygon fill="black" stroke="black" points="1902.75,-102.5 1912.75,-99 1902.75,-95.5 1902.75,-102.5"/>
</g>
<!-- 1990971926832 -->
<g id="node11" class="node">
<title>1990971926832</title>
<polygon fill="white" stroke="black" points="2077,-117 2004.75,-117 2004.75,-81 2077,-81 2077,-117"/>
<text text-anchor="middle" x="2040.88" y="-93.97" font-family="Times New Roman,serif" font-size="12.00">AI Training</text>
</g>
<!-- 1990971929664 -->
<g id="node30" class="node">
<title>1990971929664</title>
<ellipse fill="white" stroke="black" cx="2140" cy="-99" rx="27" ry="27"/>
</g>
<!-- 1990971926832&#45;&gt;1990971929664 -->
<g id="edge24" class="edge">
<title>1990971926832&#45;&gt;1990971929664</title>
<path fill="none" stroke="black" d="M2077.49,-99C2085.18,-99 2093.34,-99 2101.12,-99"/>
<polygon fill="black" stroke="black" points="2101,-102.5 2111,-99 2101,-95.5 2101,-102.5"/>
</g>
<!-- 1990971922704 -->
<g id="node12" class="node">
<title>1990971922704</title>
<polygon fill="white" stroke="black" points="2276.75,-117 2203,-117 2203,-81 2276.75,-81 2276.75,-117"/>
<text text-anchor="middle" x="2239.88" y="-93.97" font-family="Times New Roman,serif" font-size="12.00">QA Review</text>
</g>
<!-- 1990971918480 -->
<g id="node31" class="node">
<title>1990971918480</title>
<ellipse fill="white" stroke="black" cx="2339.75" cy="-99" rx="27" ry="27"/>
</g>
<!-- 1990971922704&#45;&gt;1990971918480 -->
<g id="edge26" class="edge">
<title>1990971922704&#45;&gt;1990971918480</title>
<path fill="none" stroke="black" d="M2277.04,-99C2284.94,-99 2293.33,-99 2301.28,-99"/>
<polygon fill="black" stroke="black" points="2301,-102.5 2311,-99 2301,-95.5 2301,-102.5"/>
</g>
<!-- 1990971929088 -->
<g id="node13" class="node">
<title>1990971929088</title>
<polygon fill="white" stroke="black" points="2482.5,-117 2402.75,-117 2402.75,-81 2482.5,-81 2482.5,-117"/>
<text text-anchor="middle" x="2442.62" y="-93.97" font-family="Times New Roman,serif" font-size="12.00">Mission Pack</text>
</g>
<!-- 1990971923376 -->
<g id="node32" class="node">
<title>1990971923376</title>
<ellipse fill="white" stroke="black" cx="2545.5" cy="-99" rx="27" ry="27"/>
</g>
<!-- 1990971929088&#45;&gt;1990971923376 -->
<g id="edge28" class="edge">
<title>1990971929088&#45;&gt;1990971923376</title>
<path fill="none" stroke="black" d="M2482.91,-99C2490.78,-99 2499.02,-99 2506.82,-99"/>
<polygon fill="black" stroke="black" points="2506.72,-102.5 2516.72,-99 2506.72,-95.5 2506.72,-102.5"/>
</g>
<!-- 1990971929232 -->
<g id="node14" class="node">
<title>1990971929232</title>
<polygon fill="white" stroke="black" points="2696.5,-117 2608.5,-117 2608.5,-81 2696.5,-81 2696.5,-117"/>
<text text-anchor="middle" x="2652.5" y="-93.97" font-family="Times New Roman,serif" font-size="12.00">Client Training</text>
</g>
<!-- 1990971916656 -->
<g id="node33" class="node">
<title>1990971916656</title>
<ellipse fill="white" stroke="black" cx="2759.5" cy="-99" rx="27" ry="27"/>
</g>
<!-- 1990971929232&#45;&gt;1990971916656 -->
<g id="edge30" class="edge">
<title>1990971929232&#45;&gt;1990971916656</title>
<path fill="none" stroke="black" d="M2696.81,-99C2704.77,-99 2713.01,-99 2720.78,-99"/>
<polygon fill="black" stroke="black" points="2720.6,-102.5 2730.6,-99 2720.6,-95.5 2720.6,-102.5"/>
</g>
<!-- 1990971931728 -->
<g id="node15" class="node">
<title>1990971931728</title>
<polygon fill="white" stroke="black" points="2937.5,-117 2822.5,-117 2822.5,-81 2937.5,-81 2937.5,-117"/>
<text text-anchor="middle" x="2880" y="-93.97" font-family="Times New Roman,serif" font-size="12.00">Deployment Support</text>
</g>
<!-- 1990978393040 -->
<g id="node34" class="node">
<title>1990978393040</title>
<ellipse fill="white" stroke="black" cx="3000.5" cy="-99" rx="27" ry="27"/>
</g>
<!-- 1990971931728&#45;&gt;1990978393040 -->
<g id="edge32" class="edge">
<title>1990971931728&#45;&gt;1990978393040</title>
<path fill="none" stroke="black" d="M2937.82,-99C2945.93,-99 2954.1,-99 2961.72,-99"/>
<polygon fill="black" stroke="black" points="2961.64,-102.5 2971.64,-99 2961.64,-95.5 2961.64,-102.5"/>
</g>
<!-- 1990978551248 -->
<g id="node16" class="node">
<title>1990978551248</title>
<polygon fill="black" stroke="black" points="3117.5,-171 3063.5,-171 3063.5,-135 3117.5,-135 3117.5,-171"/>
</g>
<!-- 1990978551248&#45;&gt;1990978391648 -->
<g id="edge35" class="edge">
<title>1990978551248&#45;&gt;1990978391648</title>
<path fill="none" stroke="black" d="M3063.17,-153.21C3023.62,-153.5 2946.52,-154 2881,-154 433,-154 433,-154 433,-154 372.96,-154 303.8,-143.96 262.42,-136.87"/>
<polygon fill="black" stroke="black" points="263.21,-133.46 252.76,-135.18 262,-140.35 263.21,-133.46"/>
</g>
<!-- 1990978546688 -->
<g id="node17" class="node">
<title>1990978546688</title>
<polygon fill="black" stroke="black" points="3117.5,-117 3063.5,-117 3063.5,-81 3117.5,-81 3117.5,-117"/>
</g>
<!-- 1990976047152 -->
<g id="node35" class="node">
<title>1990976047152</title>
<ellipse fill="white" stroke="black" cx="3184.5" cy="-99" rx="27" ry="27"/>
<ellipse fill="none" stroke="black" cx="3184.5" cy="-99" rx="31" ry="31"/>
<text text-anchor="start" x="3168" y="-83.6" font-family="Times New Roman,serif" font-size="32.00">■</text>
</g>
<!-- 1990978546688&#45;&gt;1990976047152 -->
<g id="edge36" class="edge">
<title>1990978546688&#45;&gt;1990976047152</title>
<path fill="none" stroke="black" d="M3117.62,-99C3125.13,-99 3133.51,-99 3141.72,-99"/>
<polygon fill="black" stroke="black" points="3141.58,-102.5 3151.58,-99 3141.58,-95.5 3141.58,-102.5"/>
</g>
<!-- 1990976054352 -->
<g id="node18" class="node">
<title>1990976054352</title>
<ellipse fill="white" stroke="black" cx="27" cy="-130" rx="27" ry="27"/>
<text text-anchor="start" x="9.75" y="-112.7" font-family="Times New Roman,serif" font-size="34.00">●</text>
</g>
<!-- 1990976054352&#45;&gt;1990976045184 -->
<g id="edge1" class="edge">
<title>1990976054352&#45;&gt;1990976045184</title>
<path fill="none" stroke="black" d="M54.44,-130C61.81,-130 70.06,-130 78.23,-130"/>
<polygon fill="black" stroke="black" points="78.12,-133.5 88.12,-130 78.12,-126.5 78.12,-133.5"/>
</g>
<!-- 1990978391648&#45;&gt;1990977928608 -->
<g id="edge3" class="edge">
<title>1990978391648&#45;&gt;1990977928608</title>
<path fill="none" stroke="black" d="M250.9,-123.33C258.59,-121.31 267.33,-119.01 276.1,-116.7"/>
<polygon fill="black" stroke="black" points="276.91,-120.11 285.69,-114.18 275.13,-113.34 276.91,-120.11"/>
</g>
<!-- 1990978389392&#45;&gt;1990978389248 -->
<g id="edge5" class="edge">
<title>1990978389392&#45;&gt;1990978389248</title>
<path fill="none" stroke="black" d="M461.39,-99C468.65,-99 476.83,-99 485.17,-99"/>
<polygon fill="black" stroke="black" points="485.07,-102.5 495.07,-99 485.07,-95.5 485.07,-102.5"/>
</g>
<!-- 1990978402064&#45;&gt;1990978393568 -->
<g id="edge7" class="edge">
<title>1990978402064&#45;&gt;1990978393568</title>
<path fill="none" stroke="black" d="M688.04,-99C695.38,-99 703.69,-99 712.22,-99"/>
<polygon fill="black" stroke="black" points="711.99,-102.5 721.99,-99 711.99,-95.5 711.99,-102.5"/>
</g>
<!-- 1990978397024&#45;&gt;1990980996224 -->
<g id="edge9" class="edge">
<title>1990978397024&#45;&gt;1990980996224</title>
<path fill="none" stroke="black" d="M923.92,-99C931.2,-99 939.41,-99 947.75,-99"/>
<polygon fill="black" stroke="black" points="947.62,-102.5 957.62,-99 947.62,-95.5 947.62,-102.5"/>
</g>
<!-- 1990971922512&#45;&gt;1990971928896 -->
<g id="edge12" class="edge">
<title>1990971922512&#45;&gt;1990971928896</title>
<path fill="none" stroke="black" d="M1145.98,-99C1153.29,-99 1161.53,-99 1169.93,-99"/>
<polygon fill="black" stroke="black" points="1169.87,-102.5 1179.87,-99 1169.87,-95.5 1169.87,-102.5"/>
</g>
<!-- 1990980995168&#45;&gt;1990971930624 -->
<g id="edge13" class="edge">
<title>1990980995168&#45;&gt;1990971930624</title>
<path fill="none" stroke="black" d="M1145.98,-27C1155.85,-27 1167.43,-27 1178.77,-27"/>
<polygon fill="black" stroke="black" points="1178.45,-30.5 1188.45,-27 1178.45,-23.5 1178.45,-30.5"/>
</g>
<!-- 1990978548992&#45;&gt;1990971921696 -->
<g id="edge17" class="edge">
<title>1990978548992&#45;&gt;1990971921696</title>
<path fill="none" stroke="black" d="M1363.89,-42.98C1375.82,-52 1391.01,-63.48 1404.53,-73.7"/>
<polygon fill="black" stroke="black" points="1402.26,-76.37 1412.35,-79.61 1406.48,-70.79 1402.26,-76.37"/>
</g>
<!-- 1990978536176&#45;&gt;1990971921696 -->
<g id="edge16" class="edge">
<title>1990978536176&#45;&gt;1990971921696</title>
<path fill="none" stroke="black" d="M1369.03,-99C1376.44,-99 1384.72,-99 1392.9,-99"/>
<polygon fill="black" stroke="black" points="1392.78,-102.5 1402.78,-99 1392.78,-95.5 1392.78,-102.5"/>
</g>
<!-- 1990971919776&#45;&gt;1990971927216 -->
<g id="edge19" class="edge">
<title>1990971919776&#45;&gt;1990971927216</title>
<path fill="none" stroke="black" d="M1563.56,-99C1570.94,-99 1579.24,-99 1587.61,-99"/>
<polygon fill="black" stroke="black" points="1587.46,-102.5 1597.46,-99 1587.46,-95.5 1587.46,-102.5"/>
</g>
<!-- 1990971918144&#45;&gt;1990971925632 -->
<g id="edge21" class="edge">
<title>1990971918144&#45;&gt;1990971925632</title>
<path fill="none" stroke="black" d="M1776.07,-99C1783.5,-99 1791.79,-99 1799.95,-99"/>
<polygon fill="black" stroke="black" points="1799.81,-102.5 1809.81,-99 1799.81,-95.5 1799.81,-102.5"/>
</g>
<!-- 1990971918864&#45;&gt;1990971926832 -->
<g id="edge23" class="edge">
<title>1990971918864&#45;&gt;1990971926832</title>
<path fill="none" stroke="black" d="M1969.03,-99C1976.44,-99 1984.73,-99 1992.96,-99"/>
<polygon fill="black" stroke="black" points="1992.94,-102.5 2002.94,-99 1992.94,-95.5 1992.94,-102.5"/>
</g>
<!-- 1990971929664&#45;&gt;1990971922704 -->
<g id="edge25" class="edge">
<title>1990971929664&#45;&gt;1990971922704</title>
<path fill="none" stroke="black" d="M2167.49,-99C2174.87,-99 2183.13,-99 2191.34,-99"/>
<polygon fill="black" stroke="black" points="2191.3,-102.5 2201.3,-99 2191.3,-95.5 2191.3,-102.5"/>
</g>
<!-- 1990971918480&#45;&gt;1990971929088 -->
<g id="edge27" class="edge">
<title>1990971918480&#45;&gt;1990971929088</title>
<path fill="none" stroke="black" d="M2366.99,-99C2374.46,-99 2382.85,-99 2391.24,-99"/>
<polygon fill="black" stroke="black" points="2391.08,-102.5 2401.08,-99 2391.08,-95.5 2391.08,-102.5"/>
</g>
<!-- 1990971923376&#45;&gt;1990971929232 -->
<g id="edge29" class="edge">
<title>1990971923376&#45;&gt;1990971929232</title>
<path fill="none" stroke="black" d="M2573,-99C2580.35,-99 2588.61,-99 2596.94,-99"/>
<polygon fill="black" stroke="black" points="2596.75,-102.5 2606.75,-99 2596.75,-95.5 2596.75,-102.5"/>
</g>
<!-- 1990971916656&#45;&gt;1990971931728 -->
<g id="edge31" class="edge">
<title>1990971916656&#45;&gt;1990971931728</title>
<path fill="none" stroke="black" d="M2786.8,-99C2794.1,-99 2802.38,-99 2810.91,-99"/>
<polygon fill="black" stroke="black" points="2810.69,-102.5 2820.69,-99 2810.69,-95.5 2810.69,-102.5"/>
</g>
<!-- 1990978393040&#45;&gt;1990978551248 -->
<g id="edge34" class="edge">
<title>1990978393040&#45;&gt;1990978551248</title>
<path fill="none" stroke="black" d="M3024.16,-112.91C3033.1,-118.39 3043.59,-124.83 3053.51,-130.92"/>
<polygon fill="black" stroke="black" points="3051.53,-133.8 3061.88,-136.05 3055.19,-127.84 3051.53,-133.8"/>
</g>
<!-- 1990978393040&#45;&gt;1990978546688 -->
<g id="edge33" class="edge">
<title>1990978393040&#45;&gt;1990978546688</title>
<path fill="none" stroke="black" d="M3027.9,-99C3035.39,-99 3043.68,-99 3051.7,-99"/>
<polygon fill="black" stroke="black" points="3051.6,-102.5 3061.6,-99 3051.6,-95.5 3051.6,-102.5"/>
</g>
</g>
</svg>
