<?xml version="1.0" encoding="UTF-8" standalone="no"?>
<!DOCTYPE svg PUBLIC "-//W3C//DTD SVG 1.1//EN"
 "http://www.w3.org/Graphics/SVG/1.1/DTD/svg11.dtd">
<!-- Generated by graphviz version 11.0.0 (20240428.1522)
 -->
<!-- Title: imdf_net_1754052828.2980323 Pages: 1 -->
<svg width="2440pt" height="422pt"
 viewBox="0.00 0.00 2440.25 422.00" xmlns="http://www.w3.org/2000/svg" xmlns:xlink="http://www.w3.org/1999/xlink">
<g id="graph0" class="graph" transform="scale(1 1) rotate(0) translate(4 418)">
<title>imdf_net_1754052828.2980323</title>
<polygon fill="white" stroke="none" points="-4,4 -4,-418 2436.25,-418 2436.25,4 -4,4"/>
<!-- 1990979862304 -->
<g id="node1" class="node">
<title>1990979862304</title>
<polygon fill="black" stroke="black" points="144,-189 90,-189 90,-153 144,-153 144,-189"/>
</g>
<!-- 1990977359744 -->
<g id="node18" class="node">
<title>1990977359744</title>
<ellipse fill="white" stroke="black" cx="207" cy="-135" rx="27" ry="27"/>
</g>
<!-- 1990979862304&#45;&gt;1990977359744 -->
<g id="edge3" class="edge">
<title>1990979862304&#45;&gt;1990977359744</title>
<path fill="none" stroke="black" d="M144.4,-160.2C152.75,-156.78 162.12,-152.95 170.97,-149.33"/>
<polygon fill="black" stroke="black" points="172.09,-152.65 180.02,-145.63 169.44,-146.17 172.09,-152.65"/>
</g>
<!-- 1990978755072 -->
<g id="node19" class="node">
<title>1990978755072</title>
<ellipse fill="white" stroke="black" cx="207" cy="-207" rx="27" ry="27"/>
</g>
<!-- 1990979862304&#45;&gt;1990978755072 -->
<g id="edge2" class="edge">
<title>1990979862304&#45;&gt;1990978755072</title>
<path fill="none" stroke="black" d="M144.4,-181.8C152.75,-185.22 162.12,-189.05 170.97,-192.67"/>
<polygon fill="black" stroke="black" points="169.44,-195.83 180.02,-196.37 172.09,-189.35 169.44,-195.83"/>
</g>
<!-- 1990978760976 -->
<g id="node2" class="node">
<title>1990978760976</title>
<polygon fill="white" stroke="black" points="370.75,-225 270,-225 270,-189 370.75,-189 370.75,-225"/>
<text text-anchor="middle" x="320.38" y="-201.97" font-family="Times New Roman,serif" font-size="12.00">Document Gather</text>
</g>
<!-- 1990981727920 -->
<g id="node21" class="node">
<title>1990981727920</title>
<ellipse fill="white" stroke="black" cx="433.75" cy="-207" rx="27" ry="27"/>
</g>
<!-- 1990978760976&#45;&gt;1990981727920 -->
<g id="edge9" class="edge">
<title>1990978760976&#45;&gt;1990981727920</title>
<path fill="none" stroke="black" d="M371.2,-207C379.18,-207 387.33,-207 394.97,-207"/>
<polygon fill="black" stroke="black" points="394.95,-210.5 404.95,-207 394.95,-203.5 394.95,-210.5"/>
</g>
<!-- 1990981718992 -->
<g id="node22" class="node">
<title>1990981718992</title>
<ellipse fill="white" stroke="black" cx="433.75" cy="-279" rx="27" ry="27"/>
</g>
<!-- 1990978760976&#45;&gt;1990981718992 -->
<g id="edge6" class="edge">
<title>1990978760976&#45;&gt;1990981718992</title>
<path fill="none" stroke="black" d="M349.77,-225.35C365.35,-235.43 384.73,-247.95 400.83,-258.37"/>
<polygon fill="black" stroke="black" points="398.81,-261.23 409.11,-263.71 402.61,-255.35 398.81,-261.23"/>
</g>
<!-- 1990978751712 -->
<g id="node3" class="node">
<title>1990978751712</title>
<polygon fill="white" stroke="black" points="362.12,-153 278.62,-153 278.62,-117 362.12,-117 362.12,-153"/>
<text text-anchor="middle" x="320.38" y="-129.97" font-family="Times New Roman,serif" font-size="12.00">Visual Inspect</text>
</g>
<!-- 1990981715872 -->
<g id="node20" class="node">
<title>1990981715872</title>
<ellipse fill="white" stroke="black" cx="433.75" cy="-63" rx="27" ry="27"/>
</g>
<!-- 1990978751712&#45;&gt;1990981715872 -->
<g id="edge7" class="edge">
<title>1990978751712&#45;&gt;1990981715872</title>
<path fill="none" stroke="black" d="M349.77,-116.65C365.35,-106.57 384.73,-94.05 400.83,-83.63"/>
<polygon fill="black" stroke="black" points="402.61,-86.65 409.11,-78.29 398.81,-80.77 402.61,-86.65"/>
</g>
<!-- 1990981719136 -->
<g id="node23" class="node">
<title>1990981719136</title>
<ellipse fill="white" stroke="black" cx="433.75" cy="-135" rx="27" ry="27"/>
</g>
<!-- 1990978751712&#45;&gt;1990981719136 -->
<g id="edge8" class="edge">
<title>1990978751712&#45;&gt;1990981719136</title>
<path fill="none" stroke="black" d="M362.53,-135C373.16,-135 384.54,-135 394.98,-135"/>
<polygon fill="black" stroke="black" points="394.77,-138.5 404.77,-135 394.77,-131.5 394.77,-138.5"/>
</g>
<!-- 1990976050896 -->
<g id="node4" class="node">
<title>1990976050896</title>
<polygon fill="white" stroke="black" points="584.75,-279 506.5,-279 506.5,-243 584.75,-243 584.75,-279"/>
<text text-anchor="middle" x="545.62" y="-255.97" font-family="Times New Roman,serif" font-size="12.00">Material Test</text>
</g>
<!-- 1990981727008 -->
<g id="node24" class="node">
<title>1990981727008</title>
<ellipse fill="white" stroke="black" cx="657.5" cy="-243" rx="27" ry="27"/>
</g>
<!-- 1990976050896&#45;&gt;1990981727008 -->
<g id="edge15" class="edge">
<title>1990976050896&#45;&gt;1990981727008</title>
<path fill="none" stroke="black" d="M585.05,-254.7C596.17,-252.88 608.28,-250.9 619.32,-249.09"/>
<polygon fill="black" stroke="black" points="619.55,-252.6 628.85,-247.53 618.42,-245.69 619.55,-252.6"/>
</g>
<!-- 1990981715056 -->
<g id="node26" class="node">
<title>1990981715056</title>
<ellipse fill="white" stroke="black" cx="657.5" cy="-315" rx="27" ry="27"/>
</g>
<!-- 1990976050896&#45;&gt;1990981715056 -->
<g id="edge16" class="edge">
<title>1990976050896&#45;&gt;1990981715056</title>
<path fill="none" stroke="black" d="M584.13,-279.43C596.63,-285.58 610.48,-292.38 622.68,-298.38"/>
<polygon fill="black" stroke="black" points="621.03,-301.47 631.55,-302.74 624.12,-295.19 621.03,-301.47"/>
</g>
<!-- 1990979168752 -->
<g id="node5" class="node">
<title>1990979168752</title>
<polygon fill="white" stroke="black" points="594.5,-153 496.75,-153 496.75,-117 594.5,-117 594.5,-153"/>
<text text-anchor="middle" x="545.62" y="-129.97" font-family="Times New Roman,serif" font-size="12.00">Pigment Analyze</text>
</g>
<!-- 1990981718224 -->
<g id="node25" class="node">
<title>1990981718224</title>
<ellipse fill="white" stroke="black" cx="657.5" cy="-171" rx="27" ry="27"/>
</g>
<!-- 1990979168752&#45;&gt;1990981718224 -->
<g id="edge17" class="edge">
<title>1990979168752&#45;&gt;1990981718224</title>
<path fill="none" stroke="black" d="M594.82,-150.79C603.46,-153.62 612.33,-156.53 620.55,-159.22"/>
<polygon fill="black" stroke="black" points="619.25,-162.48 629.84,-162.26 621.42,-155.82 619.25,-162.48"/>
</g>
<!-- 1990981725424 -->
<g id="node27" class="node">
<title>1990981725424</title>
<ellipse fill="white" stroke="black" cx="657.5" cy="-99" rx="27" ry="27"/>
</g>
<!-- 1990979168752&#45;&gt;1990981725424 -->
<g id="edge14" class="edge">
<title>1990979168752&#45;&gt;1990981725424</title>
<path fill="none" stroke="black" d="M594.82,-119.21C603.46,-116.38 612.33,-113.47 620.55,-110.78"/>
<polygon fill="black" stroke="black" points="621.42,-114.18 629.84,-107.74 619.25,-107.52 621.42,-114.18"/>
</g>
<!-- 1990979161600 -->
<g id="node6" class="node">
<title>1990979161600</title>
<polygon fill="white" stroke="black" points="814.5,-333 728,-333 728,-297 814.5,-297 814.5,-333"/>
<text text-anchor="middle" x="771.25" y="-309.98" font-family="Times New Roman,serif" font-size="12.00">Style Compare</text>
</g>
<!-- 1990981715632 -->
<g id="node29" class="node">
<title>1990981715632</title>
<ellipse fill="white" stroke="black" cx="885" cy="-315" rx="27" ry="27"/>
</g>
<!-- 1990979161600&#45;&gt;1990981715632 -->
<g id="edge24" class="edge">
<title>1990979161600&#45;&gt;1990981715632</title>
<path fill="none" stroke="black" d="M814.82,-315C825.19,-315 836.21,-315 846.34,-315"/>
<polygon fill="black" stroke="black" points="846.21,-318.5 856.21,-315 846.21,-311.5 846.21,-318.5"/>
</g>
<!-- 1990981726192 -->
<g id="node32" class="node">
<title>1990981726192</title>
<ellipse fill="white" stroke="black" cx="885" cy="-387" rx="27" ry="27"/>
</g>
<!-- 1990979161600&#45;&gt;1990981726192 -->
<g id="edge27" class="edge">
<title>1990979161600&#45;&gt;1990981726192</title>
<path fill="none" stroke="black" d="M800.74,-333.35C816.48,-343.5 836.08,-356.13 852.31,-366.58"/>
<polygon fill="black" stroke="black" points="850.34,-369.47 860.64,-371.95 854.13,-363.59 850.34,-369.47"/>
</g>
<!-- 1990981716640 -->
<g id="node33" class="node">
<title>1990981716640</title>
<ellipse fill="white" stroke="black" cx="885" cy="-171" rx="27" ry="27"/>
</g>
<!-- 1990979161600&#45;&gt;1990981716640 -->
<g id="edge26" class="edge">
<title>1990979161600&#45;&gt;1990981716640</title>
<path fill="none" stroke="black" d="M786.4,-296.76C805.16,-272.59 838.5,-229.63 860.93,-200.73"/>
<polygon fill="black" stroke="black" points="863.5,-203.13 866.87,-193.08 857.97,-198.83 863.5,-203.13"/>
</g>
<!-- 1990979166832 -->
<g id="node7" class="node">
<title>1990979166832</title>
<polygon fill="white" stroke="black" points="822,-117 720.5,-117 720.5,-81 822,-81 822,-117"/>
<text text-anchor="middle" x="771.25" y="-93.97" font-family="Times New Roman,serif" font-size="12.00">Provenance Trace</text>
</g>
<!-- 1990981714336 -->
<g id="node28" class="node">
<title>1990981714336</title>
<ellipse fill="white" stroke="black" cx="885" cy="-99" rx="27" ry="27"/>
</g>
<!-- 1990979166832&#45;&gt;1990981714336 -->
<g id="edge23" class="edge">
<title>1990979166832&#45;&gt;1990981714336</title>
<path fill="none" stroke="black" d="M822.24,-99C830.35,-99 838.62,-99 846.36,-99"/>
<polygon fill="black" stroke="black" points="846.11,-102.5 856.11,-99 846.11,-95.5 846.11,-102.5"/>
</g>
<!-- 1990981730224 -->
<g id="node30" class="node">
<title>1990981730224</title>
<ellipse fill="white" stroke="black" cx="885" cy="-243" rx="27" ry="27"/>
</g>
<!-- 1990979166832&#45;&gt;1990981730224 -->
<g id="edge25" class="edge">
<title>1990979166832&#45;&gt;1990981730224</title>
<path fill="none" stroke="black" d="M786.4,-117.24C805.16,-141.41 838.5,-184.37 860.93,-213.27"/>
<polygon fill="black" stroke="black" points="857.97,-215.17 866.87,-220.92 863.5,-210.87 857.97,-215.17"/>
</g>
<!-- 1990979541216 -->
<g id="node31" class="node">
<title>1990979541216</title>
<ellipse fill="white" stroke="black" cx="885" cy="-27" rx="27" ry="27"/>
</g>
<!-- 1990979166832&#45;&gt;1990979541216 -->
<g id="edge22" class="edge">
<title>1990979166832&#45;&gt;1990979541216</title>
<path fill="none" stroke="black" d="M800.74,-80.65C816.48,-70.5 836.08,-57.87 852.31,-47.42"/>
<polygon fill="black" stroke="black" points="854.13,-50.41 860.64,-42.05 850.34,-44.53 854.13,-50.41"/>
</g>
<!-- 1990971047808 -->
<g id="node8" class="node">
<title>1990971047808</title>
<polygon fill="white" stroke="black" points="1032.25,-225 952.5,-225 952.5,-189 1032.25,-189 1032.25,-225"/>
<text text-anchor="middle" x="992.38" y="-201.97" font-family="Times New Roman,serif" font-size="12.00">Infrared Scan</text>
</g>
<!-- 1990979547840 -->
<g id="node34" class="node">
<title>1990979547840</title>
<ellipse fill="white" stroke="black" cx="1099.75" cy="-207" rx="27" ry="27"/>
</g>
<!-- 1990971047808&#45;&gt;1990979547840 -->
<g id="edge34" class="edge">
<title>1990971047808&#45;&gt;1990979547840</title>
<path fill="none" stroke="black" d="M1032.61,-207C1041.91,-207 1051.81,-207 1061.04,-207"/>
<polygon fill="black" stroke="black" points="1060.76,-210.5 1070.76,-207 1060.76,-203.5 1060.76,-210.5"/>
</g>
<!-- 1990971033216 -->
<g id="node9" class="node">
<title>1990971033216</title>
<polygon fill="white" stroke="black" points="1036,-153 948.75,-153 948.75,-117 1036,-117 1036,-153"/>
<text text-anchor="middle" x="992.38" y="-129.97" font-family="Times New Roman,serif" font-size="12.00">Expert Consult</text>
</g>
<!-- 1990979541792 -->
<g id="node36" class="node">
<title>1990979541792</title>
<ellipse fill="white" stroke="black" cx="1099.75" cy="-135" rx="27" ry="27"/>
</g>
<!-- 1990971033216&#45;&gt;1990979541792 -->
<g id="edge35" class="edge">
<title>1990971033216&#45;&gt;1990979541792</title>
<path fill="none" stroke="black" d="M1036.24,-135C1044.43,-135 1052.95,-135 1060.97,-135"/>
<polygon fill="black" stroke="black" points="1060.75,-138.5 1070.75,-135 1060.75,-131.5 1060.75,-138.5"/>
</g>
<!-- 1990971044880 -->
<g id="node10" class="node">
<title>1990971044880</title>
<polygon fill="white" stroke="black" points="1036.75,-297 948,-297 948,-261 1036.75,-261 1036.75,-297"/>
<text text-anchor="middle" x="992.38" y="-273.98" font-family="Times New Roman,serif" font-size="12.00">Xray Fluoresce</text>
</g>
<!-- 1990979542464 -->
<g id="node35" class="node">
<title>1990979542464</title>
<ellipse fill="white" stroke="black" cx="1099.75" cy="-279" rx="27" ry="27"/>
</g>
<!-- 1990971044880&#45;&gt;1990979542464 -->
<g id="edge36" class="edge">
<title>1990971044880&#45;&gt;1990979542464</title>
<path fill="none" stroke="black" d="M1037.15,-279C1045.11,-279 1053.35,-279 1061.11,-279"/>
<polygon fill="black" stroke="black" points="1060.92,-282.5 1070.92,-279 1060.92,-275.5 1060.92,-282.5"/>
</g>
<!-- 1990971040752 -->
<g id="node11" class="node">
<title>1990971040752</title>
<polygon fill="white" stroke="black" points="1259,-225 1162.75,-225 1162.75,-189 1259,-189 1259,-225"/>
<text text-anchor="middle" x="1210.88" y="-201.97" font-family="Times New Roman,serif" font-size="12.00">Data Crosscheck</text>
</g>
<!-- 1990971040368 -->
<g id="node37" class="node">
<title>1990971040368</title>
<ellipse fill="white" stroke="black" cx="1322" cy="-207" rx="27" ry="27"/>
</g>
<!-- 1990971040752&#45;&gt;1990971040368 -->
<g id="edge40" class="edge">
<title>1990971040752&#45;&gt;1990971040368</title>
<path fill="none" stroke="black" d="M1259.42,-207C1267.34,-207 1275.45,-207 1283.09,-207"/>
<polygon fill="black" stroke="black" points="1283.08,-210.5 1293.08,-207 1283.08,-203.5 1283.08,-210.5"/>
</g>
<!-- 1990971036432 -->
<g id="node12" class="node">
<title>1990971036432</title>
<polygon fill="white" stroke="black" points="1472.25,-225 1385,-225 1385,-189 1472.25,-189 1472.25,-225"/>
<text text-anchor="middle" x="1428.62" y="-201.97" font-family="Times New Roman,serif" font-size="12.00">Forgery Detect</text>
</g>
<!-- 1990971032688 -->
<g id="node38" class="node">
<title>1990971032688</title>
<ellipse fill="white" stroke="black" cx="1535.25" cy="-207" rx="27" ry="27"/>
</g>
<!-- 1990971036432&#45;&gt;1990971032688 -->
<g id="edge42" class="edge">
<title>1990971036432&#45;&gt;1990971032688</title>
<path fill="none" stroke="black" d="M1472.48,-207C1480.43,-207 1488.67,-207 1496.45,-207"/>
<polygon fill="black" stroke="black" points="1496.29,-210.5 1506.29,-207 1496.29,-203.5 1496.29,-210.5"/>
</g>
<!-- 1990971035136 -->
<g id="node13" class="node">
<title>1990971035136</title>
<polygon fill="white" stroke="black" points="1674.25,-225 1598.25,-225 1598.25,-189 1674.25,-189 1674.25,-225"/>
<text text-anchor="middle" x="1636.25" y="-201.97" font-family="Times New Roman,serif" font-size="12.00">Report Draft</text>
</g>
<!-- 1990971039984 -->
<g id="node39" class="node">
<title>1990971039984</title>
<ellipse fill="white" stroke="black" cx="1737.25" cy="-207" rx="27" ry="27"/>
</g>
<!-- 1990971035136&#45;&gt;1990971039984 -->
<g id="edge44" class="edge">
<title>1990971035136&#45;&gt;1990971039984</title>
<path fill="none" stroke="black" d="M1674.68,-207C1682.46,-207 1690.66,-207 1698.46,-207"/>
<polygon fill="black" stroke="black" points="1698.35,-210.5 1708.35,-207 1698.35,-203.5 1698.35,-210.5"/>
</g>
<!-- 1990971046080 -->
<g id="node14" class="node">
<title>1990971046080</title>
<polygon fill="white" stroke="black" points="1912.25,-225 1800.25,-225 1800.25,-189 1912.25,-189 1912.25,-225"/>
<text text-anchor="middle" x="1856.25" y="-201.97" font-family="Times New Roman,serif" font-size="12.00">Stakeholder Review</text>
</g>
<!-- 1990971044496 -->
<g id="node40" class="node">
<title>1990971044496</title>
<ellipse fill="white" stroke="black" cx="1975.25" cy="-207" rx="27" ry="27"/>
</g>
<!-- 1990971046080&#45;&gt;1990971044496 -->
<g id="edge46" class="edge">
<title>1990971046080&#45;&gt;1990971044496</title>
<path fill="none" stroke="black" d="M1912.67,-207C1920.73,-207 1928.87,-207 1936.47,-207"/>
<polygon fill="black" stroke="black" points="1936.38,-210.5 1946.38,-207 1936.38,-203.5 1936.38,-210.5"/>
</g>
<!-- 1990971045840 -->
<g id="node15" class="node">
<title>1990971045840</title>
<polygon fill="white" stroke="black" points="2126.25,-225 2038.25,-225 2038.25,-189 2126.25,-189 2126.25,-225"/>
<text text-anchor="middle" x="2082.25" y="-201.97" font-family="Times New Roman,serif" font-size="12.00">Final Approval</text>
</g>
<!-- 1992862876736 -->
<g id="node41" class="node">
<title>1992862876736</title>
<ellipse fill="white" stroke="black" cx="2189.25" cy="-207" rx="27" ry="27"/>
</g>
<!-- 1990971045840&#45;&gt;1992862876736 -->
<g id="edge48" class="edge">
<title>1990971045840&#45;&gt;1992862876736</title>
<path fill="none" stroke="black" d="M2126.56,-207C2134.52,-207 2142.76,-207 2150.53,-207"/>
<polygon fill="black" stroke="black" points="2150.35,-210.5 2160.35,-207 2150.35,-203.5 2150.35,-210.5"/>
</g>
<!-- 1990981725952 -->
<g id="node16" class="node">
<title>1990981725952</title>
<polygon fill="white" stroke="black" points="2334.25,-225 2252.25,-225 2252.25,-189 2334.25,-189 2334.25,-225"/>
<text text-anchor="middle" x="2293.25" y="-201.97" font-family="Times New Roman,serif" font-size="12.00">Archive Store</text>
</g>
<!-- 1990979860240 -->
<g id="node42" class="node">
<title>1990979860240</title>
<ellipse fill="white" stroke="black" cx="2401.25" cy="-207" rx="27" ry="27"/>
<ellipse fill="none" stroke="black" cx="2401.25" cy="-207" rx="31" ry="31"/>
<text text-anchor="start" x="2384.75" y="-191.6" font-family="Times New Roman,serif" font-size="32.00">■</text>
</g>
<!-- 1990981725952&#45;&gt;1990979860240 -->
<g id="edge50" class="edge">
<title>1990981725952&#45;&gt;1990979860240</title>
<path fill="none" stroke="black" d="M2334.63,-207C2342.4,-207 2350.55,-207 2358.37,-207"/>
<polygon fill="black" stroke="black" points="2358.37,-210.5 2368.37,-207 2358.37,-203.5 2358.37,-210.5"/>
</g>
<!-- 1990979847184 -->
<g id="node17" class="node">
<title>1990979847184</title>
<ellipse fill="white" stroke="black" cx="27" cy="-171" rx="27" ry="27"/>
<text text-anchor="start" x="9.75" y="-153.7" font-family="Times New Roman,serif" font-size="34.00">●</text>
</g>
<!-- 1990979847184&#45;&gt;1990979862304 -->
<g id="edge1" class="edge">
<title>1990979847184&#45;&gt;1990979862304</title>
<path fill="none" stroke="black" d="M54.4,-171C61.89,-171 70.18,-171 78.2,-171"/>
<polygon fill="black" stroke="black" points="78.1,-174.5 88.1,-171 78.1,-167.5 78.1,-174.5"/>
</g>
<!-- 1990977359744&#45;&gt;1990978751712 -->
<g id="edge5" class="edge">
<title>1990977359744&#45;&gt;1990978751712</title>
<path fill="none" stroke="black" d="M234.39,-135C244.24,-135 255.78,-135 267.14,-135"/>
<polygon fill="black" stroke="black" points="266.85,-138.5 276.85,-135 266.85,-131.5 266.85,-138.5"/>
</g>
<!-- 1990978755072&#45;&gt;1990978760976 -->
<g id="edge4" class="edge">
<title>1990978755072&#45;&gt;1990978760976</title>
<path fill="none" stroke="black" d="M234.39,-207C241.65,-207 249.83,-207 258.17,-207"/>
<polygon fill="black" stroke="black" points="258.07,-210.5 268.07,-207 258.07,-203.5 258.07,-210.5"/>
</g>
<!-- 1990981715872&#45;&gt;1990979168752 -->
<g id="edge12" class="edge">
<title>1990981715872&#45;&gt;1990979168752</title>
<path fill="none" stroke="black" d="M456.98,-77.57C471.35,-86.98 490.4,-99.47 507.07,-110.39"/>
<polygon fill="black" stroke="black" points="505.01,-113.22 515.29,-115.78 508.84,-107.37 505.01,-113.22"/>
</g>
<!-- 1990981727920&#45;&gt;1990979168752 -->
<g id="edge10" class="edge">
<title>1990981727920&#45;&gt;1990979168752</title>
<path fill="none" stroke="black" d="M456.98,-192.43C471.35,-183.02 490.4,-170.53 507.07,-159.61"/>
<polygon fill="black" stroke="black" points="508.84,-162.63 515.29,-154.22 505.01,-156.78 508.84,-162.63"/>
</g>
<!-- 1990981718992&#45;&gt;1990976050896 -->
<g id="edge11" class="edge">
<title>1990981718992&#45;&gt;1990976050896</title>
<path fill="none" stroke="black" d="M460.79,-274.73C471.08,-273.05 483.26,-271.05 495.11,-269.11"/>
<polygon fill="black" stroke="black" points="495.49,-272.6 504.79,-267.53 494.36,-265.69 495.49,-272.6"/>
</g>
<!-- 1990981719136&#45;&gt;1990976050896 -->
<g id="edge13" class="edge">
<title>1990981719136&#45;&gt;1990976050896</title>
<path fill="none" stroke="black" d="M452.16,-154.97C470.83,-176.38 500.58,-210.5 521.28,-234.23"/>
<polygon fill="black" stroke="black" points="518.52,-236.39 527.73,-241.62 523.79,-231.79 518.52,-236.39"/>
</g>
<!-- 1990981727008&#45;&gt;1990979166832 -->
<g id="edge20" class="edge">
<title>1990981727008&#45;&gt;1990979166832</title>
<path fill="none" stroke="black" d="M674.75,-222.06C694.44,-196.69 727.65,-153.9 749.26,-126.05"/>
<polygon fill="black" stroke="black" points="751.81,-128.47 755.18,-118.42 746.28,-124.18 751.81,-128.47"/>
</g>
<!-- 1990981718224&#45;&gt;1990979161600 -->
<g id="edge18" class="edge">
<title>1990981718224&#45;&gt;1990979161600</title>
<path fill="none" stroke="black" d="M674.75,-191.94C694.44,-217.31 727.65,-260.1 749.26,-287.95"/>
<polygon fill="black" stroke="black" points="746.28,-289.82 755.18,-295.58 751.81,-285.53 746.28,-289.82"/>
</g>
<!-- 1990981715056&#45;&gt;1990979161600 -->
<g id="edge19" class="edge">
<title>1990981715056&#45;&gt;1990979161600</title>
<path fill="none" stroke="black" d="M684.98,-315C694.47,-315 705.53,-315 716.49,-315"/>
<polygon fill="black" stroke="black" points="716.28,-318.5 726.28,-315 716.28,-311.5 716.28,-318.5"/>
</g>
<!-- 1990981725424&#45;&gt;1990979166832 -->
<g id="edge21" class="edge">
<title>1990981725424&#45;&gt;1990979166832</title>
<path fill="none" stroke="black" d="M684.98,-99C692.26,-99 700.47,-99 708.84,-99"/>
<polygon fill="black" stroke="black" points="708.78,-102.5 718.78,-99 708.78,-95.5 708.78,-102.5"/>
</g>
<!-- 1990981714336&#45;&gt;1990971047808 -->
<g id="edge32" class="edge">
<title>1990981714336&#45;&gt;1990971047808</title>
<path fill="none" stroke="black" d="M904.6,-118.06C921.58,-135.47 946.85,-161.36 965.74,-180.73"/>
<polygon fill="black" stroke="black" points="963.12,-183.05 972.61,-187.77 968.13,-178.16 963.12,-183.05"/>
</g>
<!-- 1990981715632&#45;&gt;1990971047808 -->
<g id="edge30" class="edge">
<title>1990981715632&#45;&gt;1990971047808</title>
<path fill="none" stroke="black" d="M904.6,-295.94C921.58,-278.53 946.85,-252.64 965.74,-233.27"/>
<polygon fill="black" stroke="black" points="968.13,-235.84 972.61,-226.23 963.12,-230.95 968.13,-235.84"/>
</g>
<!-- 1990981730224&#45;&gt;1990971044880 -->
<g id="edge33" class="edge">
<title>1990981730224&#45;&gt;1990971044880</title>
<path fill="none" stroke="black" d="M910.97,-251.53C918.85,-254.22 927.87,-257.31 936.97,-260.41"/>
<polygon fill="black" stroke="black" points="935.59,-263.64 946.18,-263.56 937.85,-257.02 935.59,-263.64"/>
</g>
<!-- 1990979541216&#45;&gt;1990971033216 -->
<g id="edge31" class="edge">
<title>1990979541216&#45;&gt;1990971033216</title>
<path fill="none" stroke="black" d="M904.6,-46.06C921.58,-63.47 946.85,-89.36 965.74,-108.73"/>
<polygon fill="black" stroke="black" points="963.12,-111.05 972.61,-115.77 968.13,-106.16 963.12,-111.05"/>
</g>
<!-- 1990981726192&#45;&gt;1990971044880 -->
<g id="edge29" class="edge">
<title>1990981726192&#45;&gt;1990971044880</title>
<path fill="none" stroke="black" d="M904.6,-367.94C921.58,-350.53 946.85,-324.64 965.74,-305.27"/>
<polygon fill="black" stroke="black" points="968.13,-307.84 972.61,-298.23 963.12,-302.95 968.13,-307.84"/>
</g>
<!-- 1990981716640&#45;&gt;1990971033216 -->
<g id="edge28" class="edge">
<title>1990981716640&#45;&gt;1990971033216</title>
<path fill="none" stroke="black" d="M910.97,-162.47C919.02,-159.72 928.28,-156.56 937.58,-153.38"/>
<polygon fill="black" stroke="black" points="938.68,-156.7 947.02,-150.15 936.42,-150.08 938.68,-156.7"/>
</g>
<!-- 1990979547840&#45;&gt;1990971040752 -->
<g id="edge39" class="edge">
<title>1990979547840&#45;&gt;1990971040752</title>
<path fill="none" stroke="black" d="M1127.17,-207C1134.45,-207 1142.66,-207 1151,-207"/>
<polygon fill="black" stroke="black" points="1150.87,-210.5 1160.87,-207 1150.87,-203.5 1150.87,-210.5"/>
</g>
<!-- 1990979542464&#45;&gt;1990971040752 -->
<g id="edge37" class="edge">
<title>1990979542464&#45;&gt;1990971040752</title>
<path fill="none" stroke="black" d="M1122.83,-264.43C1137.1,-255.02 1156.02,-242.53 1172.58,-231.61"/>
<polygon fill="black" stroke="black" points="1174.32,-234.66 1180.74,-226.23 1170.46,-228.81 1174.32,-234.66"/>
</g>
<!-- 1990979541792&#45;&gt;1990971040752 -->
<g id="edge38" class="edge">
<title>1990979541792&#45;&gt;1990971040752</title>
<path fill="none" stroke="black" d="M1122.83,-149.57C1137.1,-158.98 1156.02,-171.47 1172.58,-182.39"/>
<polygon fill="black" stroke="black" points="1170.46,-185.19 1180.74,-187.77 1174.32,-179.34 1170.46,-185.19"/>
</g>
<!-- 1990971040368&#45;&gt;1990971036432 -->
<g id="edge41" class="edge">
<title>1990971040368&#45;&gt;1990971036432</title>
<path fill="none" stroke="black" d="M1349.4,-207C1356.73,-207 1364.96,-207 1373.26,-207"/>
<polygon fill="black" stroke="black" points="1373.03,-210.5 1383.03,-207 1373.03,-203.5 1373.03,-210.5"/>
</g>
<!-- 1990971032688&#45;&gt;1990971035136 -->
<g id="edge43" class="edge">
<title>1990971032688&#45;&gt;1990971035136</title>
<path fill="none" stroke="black" d="M1562.52,-207C1570,-207 1578.4,-207 1586.76,-207"/>
<polygon fill="black" stroke="black" points="1586.53,-210.5 1596.53,-207 1586.53,-203.5 1586.53,-210.5"/>
</g>
<!-- 1990971039984&#45;&gt;1990971046080 -->
<g id="edge45" class="edge">
<title>1990971039984&#45;&gt;1990971046080</title>
<path fill="none" stroke="black" d="M1764.51,-207C1771.82,-207 1780.1,-207 1788.62,-207"/>
<polygon fill="black" stroke="black" points="1788.38,-210.5 1798.38,-207 1788.38,-203.5 1788.38,-210.5"/>
</g>
<!-- 1990971044496&#45;&gt;1990971045840 -->
<g id="edge47" class="edge">
<title>1990971044496&#45;&gt;1990971045840</title>
<path fill="none" stroke="black" d="M2002.75,-207C2010.1,-207 2018.36,-207 2026.69,-207"/>
<polygon fill="black" stroke="black" points="2026.5,-210.5 2036.5,-207 2026.5,-203.5 2026.5,-210.5"/>
</g>
<!-- 1992862876736&#45;&gt;1990981725952 -->
<g id="edge49" class="edge">
<title>1992862876736&#45;&gt;1990981725952</title>
<path fill="none" stroke="black" d="M2216.52,-207C2223.9,-207 2232.2,-207 2240.53,-207"/>
<polygon fill="black" stroke="black" points="2240.3,-210.5 2250.3,-207 2240.3,-203.5 2240.3,-210.5"/>
</g>
</g>
</svg>
