<?xml version="1.0" encoding="UTF-8" standalone="no"?>
<!DOCTYPE svg PUBLIC "-//W3C//DTD SVG 1.1//EN"
 "http://www.w3.org/Graphics/SVG/1.1/DTD/svg11.dtd">
<!-- Generated by graphviz version 11.0.0 (20240428.1522)
 -->
<!-- Title: imdf_net_1754052834.2483377 Pages: 1 -->
<svg width="4052pt" height="173pt"
 viewBox="0.00 0.00 4051.75 173.00" xmlns="http://www.w3.org/2000/svg" xmlns:xlink="http://www.w3.org/1999/xlink">
<g id="graph0" class="graph" transform="scale(1 1) rotate(0) translate(4 169)">
<title>imdf_net_1754052834.2483377</title>
<polygon fill="white" stroke="none" points="-4,4 -4,-169 4047.75,-169 4047.75,4 -4,4"/>
<!-- 1990979168320 -->
<g id="node1" class="node">
<title>1990979168320</title>
<polygon fill="black" stroke="black" points="144,-156 90,-156 90,-120 144,-120 144,-156"/>
</g>
<!-- 1990979167888 -->
<g id="node22" class="node">
<title>1990979167888</title>
<ellipse fill="white" stroke="black" cx="207" cy="-138" rx="27" ry="27"/>
</g>
<!-- 1990979168320&#45;&gt;1990979167888 -->
<g id="edge2" class="edge">
<title>1990979168320&#45;&gt;1990979167888</title>
<path fill="none" stroke="black" d="M144.4,-138C151.89,-138 160.18,-138 168.2,-138"/>
<polygon fill="black" stroke="black" points="168.1,-141.5 178.1,-138 168.1,-134.5 168.1,-141.5"/>
</g>
<!-- 1990979163472 -->
<g id="node2" class="node">
<title>1990979163472</title>
<polygon fill="white" stroke="black" points="354.25,-129 270,-129 270,-93 354.25,-93 354.25,-129"/>
<text text-anchor="middle" x="312.12" y="-105.97" font-family="Times New Roman,serif" font-size="12.00">Milk Sourcing</text>
</g>
<!-- 1990979162608 -->
<g id="node23" class="node">
<title>1990979162608</title>
<ellipse fill="white" stroke="black" cx="417.25" cy="-107" rx="27" ry="27"/>
</g>
<!-- 1990979163472&#45;&gt;1990979162608 -->
<g id="edge4" class="edge">
<title>1990979163472&#45;&gt;1990979162608</title>
<path fill="none" stroke="black" d="M354.48,-109.4C362.44,-109.09 370.74,-108.77 378.58,-108.46"/>
<polygon fill="black" stroke="black" points="378.65,-111.96 388.5,-108.08 378.38,-104.97 378.65,-111.96"/>
</g>
<!-- 1990979159152 -->
<g id="node3" class="node">
<title>1990979159152</title>
<polygon fill="white" stroke="black" points="551,-125 480.25,-125 480.25,-89 551,-89 551,-125"/>
<text text-anchor="middle" x="515.62" y="-101.97" font-family="Times New Roman,serif" font-size="12.00">Farm Audit</text>
</g>
<!-- 1990977091872 -->
<g id="node24" class="node">
<title>1990977091872</title>
<ellipse fill="white" stroke="black" cx="614" cy="-107" rx="27" ry="27"/>
</g>
<!-- 1990979159152&#45;&gt;1990977091872 -->
<g id="edge6" class="edge">
<title>1990979159152&#45;&gt;1990977091872</title>
<path fill="none" stroke="black" d="M551.42,-107C559.15,-107 567.39,-107 575.23,-107"/>
<polygon fill="black" stroke="black" points="575.22,-110.5 585.22,-107 575.22,-103.5 575.22,-110.5"/>
</g>
<!-- 1990977090816 -->
<g id="node4" class="node">
<title>1990977090816</title>
<polygon fill="white" stroke="black" points="753.75,-125 677,-125 677,-89 753.75,-89 753.75,-125"/>
<text text-anchor="middle" x="715.38" y="-101.97" font-family="Times New Roman,serif" font-size="12.00">Milk Testing</text>
</g>
<!-- 1990977080400 -->
<g id="node25" class="node">
<title>1990977080400</title>
<ellipse fill="white" stroke="black" cx="816.75" cy="-107" rx="27" ry="27"/>
</g>
<!-- 1990977090816&#45;&gt;1990977080400 -->
<g id="edge8" class="edge">
<title>1990977090816&#45;&gt;1990977080400</title>
<path fill="none" stroke="black" d="M754.23,-107C762.02,-107 770.23,-107 778.02,-107"/>
<polygon fill="black" stroke="black" points="777.9,-110.5 787.9,-107 777.9,-103.5 777.9,-110.5"/>
</g>
<!-- 1990977080976 -->
<g id="node5" class="node">
<title>1990977080976</title>
<polygon fill="white" stroke="black" points="967,-125 879.75,-125 879.75,-89 967,-89 967,-125"/>
<text text-anchor="middle" x="923.38" y="-101.97" font-family="Times New Roman,serif" font-size="12.00">Batch Forming</text>
</g>
<!-- 1990977081984 -->
<g id="node26" class="node">
<title>1990977081984</title>
<ellipse fill="white" stroke="black" cx="1030" cy="-107" rx="27" ry="27"/>
</g>
<!-- 1990977080976&#45;&gt;1990977081984 -->
<g id="edge10" class="edge">
<title>1990977080976&#45;&gt;1990977081984</title>
<path fill="none" stroke="black" d="M967.23,-107C975.18,-107 983.42,-107 991.2,-107"/>
<polygon fill="black" stroke="black" points="991.04,-110.5 1001.04,-107 991.04,-103.5 991.04,-110.5"/>
</g>
<!-- 1990977084864 -->
<g id="node6" class="node">
<title>1990977084864</title>
<polygon fill="white" stroke="black" points="1171.25,-125 1093,-125 1093,-89 1171.25,-89 1171.25,-125"/>
<text text-anchor="middle" x="1132.12" y="-101.97" font-family="Times New Roman,serif" font-size="12.00">Curd Cutting</text>
</g>
<!-- 1990977086064 -->
<g id="node27" class="node">
<title>1990977086064</title>
<ellipse fill="white" stroke="black" cx="1234.25" cy="-107" rx="27" ry="27"/>
</g>
<!-- 1990977084864&#45;&gt;1990977086064 -->
<g id="edge12" class="edge">
<title>1990977084864&#45;&gt;1990977086064</title>
<path fill="none" stroke="black" d="M1171.55,-107C1179.39,-107 1187.63,-107 1195.44,-107"/>
<polygon fill="black" stroke="black" points="1195.36,-110.5 1205.36,-107 1195.36,-103.5 1195.36,-110.5"/>
</g>
<!-- 1990977082560 -->
<g id="node7" class="node">
<title>1990977082560</title>
<polygon fill="white" stroke="black" points="1391.25,-123 1297.25,-123 1297.25,-87 1391.25,-87 1391.25,-123"/>
<text text-anchor="middle" x="1344.25" y="-99.97" font-family="Times New Roman,serif" font-size="12.00">Molding Cheese</text>
</g>
<!-- 1990977080688 -->
<g id="node28" class="node">
<title>1990977080688</title>
<ellipse fill="white" stroke="black" cx="1454.25" cy="-104" rx="27" ry="27"/>
</g>
<!-- 1990977082560&#45;&gt;1990977080688 -->
<g id="edge14" class="edge">
<title>1990977082560&#45;&gt;1990977080688</title>
<path fill="none" stroke="black" d="M1391.68,-104.57C1399.56,-104.5 1407.66,-104.42 1415.28,-104.35"/>
<polygon fill="black" stroke="black" points="1415.31,-107.85 1425.27,-104.26 1415.24,-100.85 1415.31,-107.85"/>
</g>
<!-- 1990977078048 -->
<g id="node8" class="node">
<title>1990977078048</title>
<polygon fill="white" stroke="black" points="1605.25,-121 1517.25,-121 1517.25,-85 1605.25,-85 1605.25,-121"/>
<text text-anchor="middle" x="1561.25" y="-97.97" font-family="Times New Roman,serif" font-size="12.00">Salting Process</text>
</g>
<!-- 1990977078528 -->
<g id="node29" class="node">
<title>1990977078528</title>
<ellipse fill="white" stroke="black" cx="1668.25" cy="-103" rx="27" ry="27"/>
</g>
<!-- 1990977078048&#45;&gt;1990977078528 -->
<g id="edge16" class="edge">
<title>1990977078048&#45;&gt;1990977078528</title>
<path fill="none" stroke="black" d="M1605.56,-103C1613.52,-103 1621.76,-103 1629.53,-103"/>
<polygon fill="black" stroke="black" points="1629.35,-106.5 1639.35,-103 1629.35,-99.5 1629.35,-106.5"/>
</g>
<!-- 1990977086160 -->
<g id="node9" class="node">
<title>1990977086160</title>
<polygon fill="white" stroke="black" points="1816.25,-121 1731.25,-121 1731.25,-85 1816.25,-85 1816.25,-121"/>
<text text-anchor="middle" x="1773.75" y="-97.97" font-family="Times New Roman,serif" font-size="12.00">Aging Control</text>
</g>
<!-- 1990977093408 -->
<g id="node30" class="node">
<title>1990977093408</title>
<ellipse fill="white" stroke="black" cx="1879.25" cy="-103" rx="27" ry="27"/>
</g>
<!-- 1990977086160&#45;&gt;1990977093408 -->
<g id="edge18" class="edge">
<title>1990977086160&#45;&gt;1990977093408</title>
<path fill="none" stroke="black" d="M1816.55,-103C1824.45,-103 1832.67,-103 1840.43,-103"/>
<polygon fill="black" stroke="black" points="1840.26,-106.5 1850.26,-103 1840.26,-99.5 1840.26,-106.5"/>
</g>
<!-- 1990977090672 -->
<g id="node10" class="node">
<title>1990977090672</title>
<polygon fill="white" stroke="black" points="2027.25,-121 1942.25,-121 1942.25,-85 2027.25,-85 2027.25,-121"/>
<text text-anchor="middle" x="1984.75" y="-97.97" font-family="Times New Roman,serif" font-size="12.00">Quality Check</text>
</g>
<!-- 1990977077376 -->
<g id="node31" class="node">
<title>1990977077376</title>
<ellipse fill="white" stroke="black" cx="2090.25" cy="-103" rx="27" ry="27"/>
</g>
<!-- 1990977090672&#45;&gt;1990977077376 -->
<g id="edge20" class="edge">
<title>1990977090672&#45;&gt;1990977077376</title>
<path fill="none" stroke="black" d="M2027.55,-103C2035.45,-103 2043.67,-103 2051.43,-103"/>
<polygon fill="black" stroke="black" points="2051.26,-106.5 2061.26,-103 2051.26,-99.5 2051.26,-106.5"/>
</g>
<!-- 1990976306784 -->
<g id="node11" class="node">
<title>1990976306784</title>
<polygon fill="white" stroke="black" points="2255.5,-121 2153.25,-121 2153.25,-85 2255.5,-85 2255.5,-121"/>
<text text-anchor="middle" x="2204.38" y="-97.97" font-family="Times New Roman,serif" font-size="12.00">Packaging Design</text>
</g>
<!-- 1990971035904 -->
<g id="node32" class="node">
<title>1990971035904</title>
<ellipse fill="white" stroke="black" cx="2318.5" cy="-103" rx="27" ry="27"/>
</g>
<!-- 1990976306784&#45;&gt;1990971035904 -->
<g id="edge22" class="edge">
<title>1990976306784&#45;&gt;1990971035904</title>
<path fill="none" stroke="black" d="M2255.86,-103C2263.97,-103 2272.23,-103 2279.96,-103"/>
<polygon fill="black" stroke="black" points="2279.69,-106.5 2289.69,-103 2279.69,-99.5 2279.69,-106.5"/>
</g>
<!-- 1990971046992 -->
<g id="node12" class="node">
<title>1990971046992</title>
<polygon fill="white" stroke="black" points="2465,-121 2381.5,-121 2381.5,-85 2465,-85 2465,-121"/>
<text text-anchor="middle" x="2423.25" y="-97.97" font-family="Times New Roman,serif" font-size="12.00">Label Printing</text>
</g>
<!-- 1990971036672 -->
<g id="node33" class="node">
<title>1990971036672</title>
<ellipse fill="white" stroke="black" cx="2528" cy="-103" rx="27" ry="27"/>
</g>
<!-- 1990971046992&#45;&gt;1990971036672 -->
<g id="edge24" class="edge">
<title>1990971046992&#45;&gt;1990971036672</title>
<path fill="none" stroke="black" d="M2465.45,-103C2473.31,-103 2481.5,-103 2489.25,-103"/>
<polygon fill="black" stroke="black" points="2489.05,-106.5 2499.05,-103 2489.05,-99.5 2489.05,-106.5"/>
</g>
<!-- 1990971039360 -->
<g id="node13" class="node">
<title>1990971039360</title>
<polygon fill="white" stroke="black" points="2690.25,-121 2591,-121 2591,-85 2690.25,-85 2690.25,-121"/>
<text text-anchor="middle" x="2640.62" y="-97.97" font-family="Times New Roman,serif" font-size="12.00">Inventory Update</text>
</g>
<!-- 1990971032400 -->
<g id="node34" class="node">
<title>1990971032400</title>
<ellipse fill="white" stroke="black" cx="2753.25" cy="-103" rx="27" ry="27"/>
</g>
<!-- 1990971039360&#45;&gt;1990971032400 -->
<g id="edge26" class="edge">
<title>1990971039360&#45;&gt;1990971032400</title>
<path fill="none" stroke="black" d="M2690.47,-103C2698.54,-103 2706.8,-103 2714.54,-103"/>
<polygon fill="black" stroke="black" points="2714.3,-106.5 2724.3,-103 2714.3,-99.5 2714.3,-106.5"/>
</g>
<!-- 1990971036384 -->
<g id="node14" class="node">
<title>1990971036384</title>
<polygon fill="white" stroke="black" points="2911,-121 2816.25,-121 2816.25,-85 2911,-85 2911,-121"/>
<text text-anchor="middle" x="2863.62" y="-97.97" font-family="Times New Roman,serif" font-size="12.00">Order Receiving</text>
</g>
<!-- 1990971041328 -->
<g id="node35" class="node">
<title>1990971041328</title>
<ellipse fill="white" stroke="black" cx="2974" cy="-103" rx="27" ry="27"/>
</g>
<!-- 1990971036384&#45;&gt;1990971041328 -->
<g id="edge28" class="edge">
<title>1990971036384&#45;&gt;1990971041328</title>
<path fill="none" stroke="black" d="M2911.21,-103C2919.29,-103 2927.6,-103 2935.4,-103"/>
<polygon fill="black" stroke="black" points="2935.23,-106.5 2945.23,-103 2935.23,-99.5 2935.23,-106.5"/>
</g>
<!-- 1990971035520 -->
<g id="node15" class="node">
<title>1990971035520</title>
<polygon fill="white" stroke="black" points="3146,-121 3037,-121 3037,-85 3146,-85 3146,-121"/>
<text text-anchor="middle" x="3091.5" y="-97.97" font-family="Times New Roman,serif" font-size="12.00">Retail Coordination</text>
</g>
<!-- 1990971037152 -->
<g id="node36" class="node">
<title>1990971037152</title>
<ellipse fill="white" stroke="black" cx="3209" cy="-103" rx="27" ry="27"/>
</g>
<!-- 1990971035520&#45;&gt;1990971037152 -->
<g id="edge30" class="edge">
<title>1990971035520&#45;&gt;1990971037152</title>
<path fill="none" stroke="black" d="M3146.19,-103C3154.41,-103 3162.73,-103 3170.5,-103"/>
<polygon fill="black" stroke="black" points="3170.26,-106.5 3180.26,-103 3170.26,-99.5 3170.26,-106.5"/>
</g>
<!-- 1990971040224 -->
<g id="node16" class="node">
<title>1990971040224</title>
<polygon fill="white" stroke="black" points="3355.5,-121 3272,-121 3272,-85 3355.5,-85 3355.5,-121"/>
<text text-anchor="middle" x="3313.75" y="-97.97" font-family="Times New Roman,serif" font-size="12.00">Shipping Prep</text>
</g>
<!-- 1990979166736 -->
<g id="node37" class="node">
<title>1990979166736</title>
<ellipse fill="white" stroke="black" cx="3418.5" cy="-103" rx="27" ry="27"/>
</g>
<!-- 1990971040224&#45;&gt;1990979166736 -->
<g id="edge32" class="edge">
<title>1990971040224&#45;&gt;1990979166736</title>
<path fill="none" stroke="black" d="M3355.95,-103C3363.81,-103 3372,-103 3379.75,-103"/>
<polygon fill="black" stroke="black" points="3379.55,-106.5 3389.55,-103 3379.55,-99.5 3379.55,-106.5"/>
</g>
<!-- 1990979851072 -->
<g id="node17" class="node">
<title>1990979851072</title>
<polygon fill="black" stroke="black" points="3563.75,-121 3509.75,-121 3509.75,-85 3563.75,-85 3563.75,-121"/>
</g>
<!-- 1990979161264 -->
<g id="node39" class="node">
<title>1990979161264</title>
<ellipse fill="white" stroke="black" cx="3659" cy="-103" rx="27" ry="27"/>
<ellipse fill="none" stroke="black" cx="3659" cy="-103" rx="31" ry="31"/>
<text text-anchor="start" x="3642.5" y="-87.6" font-family="Times New Roman,serif" font-size="32.00">■</text>
</g>
<!-- 1990979851072&#45;&gt;1990979161264 -->
<g id="edge36" class="edge">
<title>1990979851072&#45;&gt;1990979161264</title>
<path fill="none" stroke="black" d="M3564.14,-103C3579.57,-103 3599.37,-103 3616.81,-103"/>
<polygon fill="black" stroke="black" points="3616.35,-106.5 3626.35,-103 3616.35,-99.5 3616.35,-106.5"/>
</g>
<!-- 1990978538864 -->
<g id="node18" class="node">
<title>1990978538864</title>
<polygon fill="white" stroke="black" points="3592,-56 3481.5,-56 3481.5,-20 3592,-20 3592,-56"/>
<text text-anchor="middle" x="3536.75" y="-32.98" font-family="Times New Roman,serif" font-size="12.00">Customer Feedback</text>
</g>
<!-- 1990978538528 -->
<g id="node38" class="node">
<title>1990978538528</title>
<ellipse fill="white" stroke="black" cx="3659" cy="-27" rx="27" ry="27"/>
</g>
<!-- 1990978538864&#45;&gt;1990978538528 -->
<g id="edge35" class="edge">
<title>1990978538864&#45;&gt;1990978538528</title>
<path fill="none" stroke="black" d="M3592.25,-33.01C3601.84,-32.14 3611.62,-31.24 3620.61,-30.42"/>
<polygon fill="black" stroke="black" points="3620.74,-33.92 3630.38,-29.53 3620.1,-26.95 3620.74,-33.92"/>
</g>
<!-- 1990978537856 -->
<g id="node19" class="node">
<title>1990978537856</title>
<polygon fill="white" stroke="black" points="3825.25,-85 3726,-85 3726,-49 3825.25,-49 3825.25,-85"/>
<text text-anchor="middle" x="3775.62" y="-61.98" font-family="Times New Roman,serif" font-size="12.00">Demand Forecast</text>
</g>
<!-- 1990978546880 -->
<g id="node40" class="node">
<title>1990978546880</title>
<ellipse fill="white" stroke="black" cx="3888.25" cy="-87" rx="27" ry="27"/>
</g>
<!-- 1990978537856&#45;&gt;1990978546880 -->
<g id="edge38" class="edge">
<title>1990978537856&#45;&gt;1990978546880</title>
<path fill="none" stroke="black" d="M3825.47,-75.83C3833.79,-77.34 3842.31,-78.88 3850.26,-80.31"/>
<polygon fill="black" stroke="black" points="3849.46,-83.72 3859.92,-82.06 3850.71,-76.84 3849.46,-83.72"/>
</g>
<!-- 1990978542944 -->
<g id="node20" class="node">
<title>1990978542944</title>
<polygon fill="white" stroke="black" points="4043.75,-142 3951.25,-142 3951.25,-106 4043.75,-106 4043.75,-142"/>
<text text-anchor="middle" x="3997.5" y="-118.97" font-family="Times New Roman,serif" font-size="12.00">Limited Release</text>
</g>
<!-- 1990978542944&#45;&gt;1990979167888 -->
<g id="edge40" class="edge">
<title>1990978542944&#45;&gt;1990979167888</title>
<path fill="none" stroke="black" d="M3950.99,-136.55C3906.8,-147.62 3837.64,-162 3776.62,-162 416.25,-162 416.25,-162 416.25,-162 356,-162 286.59,-151.96 245.06,-144.87"/>
<polygon fill="black" stroke="black" points="245.81,-141.45 235.35,-143.18 244.6,-148.34 245.81,-141.45"/>
</g>
<!-- 1990979172160 -->
<g id="node21" class="node">
<title>1990979172160</title>
<ellipse fill="white" stroke="black" cx="27" cy="-138" rx="27" ry="27"/>
<text text-anchor="start" x="9.75" y="-120.7" font-family="Times New Roman,serif" font-size="34.00">●</text>
</g>
<!-- 1990979172160&#45;&gt;1990979168320 -->
<g id="edge1" class="edge">
<title>1990979172160&#45;&gt;1990979168320</title>
<path fill="none" stroke="black" d="M54.4,-138C61.89,-138 70.18,-138 78.2,-138"/>
<polygon fill="black" stroke="black" points="78.1,-141.5 88.1,-138 78.1,-134.5 78.1,-141.5"/>
</g>
<!-- 1990979167888&#45;&gt;1990979163472 -->
<g id="edge3" class="edge">
<title>1990979167888&#45;&gt;1990979163472</title>
<path fill="none" stroke="black" d="M233.49,-131.33C241.21,-129.31 249.98,-127.01 258.79,-124.7"/>
<polygon fill="black" stroke="black" points="259.62,-128.1 268.41,-122.18 257.85,-121.33 259.62,-128.1"/>
</g>
<!-- 1990979162608&#45;&gt;1990979159152 -->
<g id="edge5" class="edge">
<title>1990979162608&#45;&gt;1990979159152</title>
<path fill="none" stroke="black" d="M444.58,-107C452.01,-107 460.31,-107 468.53,-107"/>
<polygon fill="black" stroke="black" points="468.49,-110.5 478.49,-107 468.49,-103.5 468.49,-110.5"/>
</g>
<!-- 1990977091872&#45;&gt;1990977090816 -->
<g id="edge7" class="edge">
<title>1990977091872&#45;&gt;1990977090816</title>
<path fill="none" stroke="black" d="M641.37,-107C648.72,-107 656.94,-107 665.15,-107"/>
<polygon fill="black" stroke="black" points="665.14,-110.5 675.14,-107 665.14,-103.5 665.14,-110.5"/>
</g>
<!-- 1990977080400&#45;&gt;1990977080976 -->
<g id="edge9" class="edge">
<title>1990977080400&#45;&gt;1990977080976</title>
<path fill="none" stroke="black" d="M844.15,-107C851.48,-107 859.71,-107 868.01,-107"/>
<polygon fill="black" stroke="black" points="867.78,-110.5 877.78,-107 867.78,-103.5 867.78,-110.5"/>
</g>
<!-- 1990977081984&#45;&gt;1990977084864 -->
<g id="edge11" class="edge">
<title>1990977081984&#45;&gt;1990977084864</title>
<path fill="none" stroke="black" d="M1057.31,-107C1064.63,-107 1072.84,-107 1081.05,-107"/>
<polygon fill="black" stroke="black" points="1081.05,-110.5 1091.05,-107 1081.05,-103.5 1081.05,-110.5"/>
</g>
<!-- 1990977086064&#45;&gt;1990977082560 -->
<g id="edge13" class="edge">
<title>1990977086064&#45;&gt;1990977082560</title>
<path fill="none" stroke="black" d="M1261.67,-106.51C1268.97,-106.38 1277.19,-106.22 1285.52,-106.07"/>
<polygon fill="black" stroke="black" points="1285.44,-109.57 1295.38,-105.89 1285.31,-102.57 1285.44,-109.57"/>
</g>
<!-- 1990977080688&#45;&gt;1990977078048 -->
<g id="edge15" class="edge">
<title>1990977080688&#45;&gt;1990977078048</title>
<path fill="none" stroke="black" d="M1481.75,-103.75C1489.1,-103.68 1497.36,-103.6 1505.69,-103.52"/>
<polygon fill="black" stroke="black" points="1505.53,-107.02 1515.5,-103.43 1505.47,-100.02 1505.53,-107.02"/>
</g>
<!-- 1990977078528&#45;&gt;1990977086160 -->
<g id="edge17" class="edge">
<title>1990977078528&#45;&gt;1990977086160</title>
<path fill="none" stroke="black" d="M1695.64,-103C1703.05,-103 1711.38,-103 1719.76,-103"/>
<polygon fill="black" stroke="black" points="1719.61,-106.5 1729.61,-103 1719.61,-99.5 1719.61,-106.5"/>
</g>
<!-- 1990977093408&#45;&gt;1990977090672 -->
<g id="edge19" class="edge">
<title>1990977093408&#45;&gt;1990977090672</title>
<path fill="none" stroke="black" d="M1906.64,-103C1914.05,-103 1922.38,-103 1930.76,-103"/>
<polygon fill="black" stroke="black" points="1930.61,-106.5 1940.61,-103 1930.61,-99.5 1930.61,-106.5"/>
</g>
<!-- 1990977077376&#45;&gt;1990976306784 -->
<g id="edge21" class="edge">
<title>1990977077376&#45;&gt;1990976306784</title>
<path fill="none" stroke="black" d="M2117.54,-103C2124.92,-103 2133.27,-103 2141.79,-103"/>
<polygon fill="black" stroke="black" points="2141.52,-106.5 2151.52,-103 2141.52,-99.5 2141.52,-106.5"/>
</g>
<!-- 1990971035904&#45;&gt;1990971046992 -->
<g id="edge23" class="edge">
<title>1990971035904&#45;&gt;1990971046992</title>
<path fill="none" stroke="black" d="M2345.96,-103C2353.32,-103 2361.58,-103 2369.87,-103"/>
<polygon fill="black" stroke="black" points="2369.61,-106.5 2379.61,-103 2369.61,-99.5 2369.61,-106.5"/>
</g>
<!-- 1990971036672&#45;&gt;1990971039360 -->
<g id="edge25" class="edge">
<title>1990971036672&#45;&gt;1990971039360</title>
<path fill="none" stroke="black" d="M2555.5,-103C2562.79,-103 2571.02,-103 2579.39,-103"/>
<polygon fill="black" stroke="black" points="2579.32,-106.5 2589.32,-103 2579.32,-99.5 2579.32,-106.5"/>
</g>
<!-- 1990971032400&#45;&gt;1990971036384 -->
<g id="edge27" class="edge">
<title>1990971032400&#45;&gt;1990971036384</title>
<path fill="none" stroke="black" d="M2780.48,-103C2787.81,-103 2796.07,-103 2804.45,-103"/>
<polygon fill="black" stroke="black" points="2804.38,-106.5 2814.38,-103 2804.38,-99.5 2804.38,-106.5"/>
</g>
<!-- 1990971041328&#45;&gt;1990971035520 -->
<g id="edge29" class="edge">
<title>1990971041328&#45;&gt;1990971035520</title>
<path fill="none" stroke="black" d="M3001.5,-103C3008.73,-103 3016.9,-103 3025.29,-103"/>
<polygon fill="black" stroke="black" points="3025.27,-106.5 3035.27,-103 3025.27,-99.5 3025.27,-106.5"/>
</g>
<!-- 1990971037152&#45;&gt;1990971040224 -->
<g id="edge31" class="edge">
<title>1990971037152&#45;&gt;1990971040224</title>
<path fill="none" stroke="black" d="M3236.46,-103C3243.82,-103 3252.08,-103 3260.37,-103"/>
<polygon fill="black" stroke="black" points="3260.11,-106.5 3270.11,-103 3260.11,-99.5 3260.11,-106.5"/>
</g>
<!-- 1990979166736&#45;&gt;1990979851072 -->
<g id="edge33" class="edge">
<title>1990979166736&#45;&gt;1990979851072</title>
<path fill="none" stroke="black" d="M3445.88,-103C3461.34,-103 3481.12,-103 3498.18,-103"/>
<polygon fill="black" stroke="black" points="3497.96,-106.5 3507.96,-103 3497.96,-99.5 3497.96,-106.5"/>
</g>
<!-- 1990979166736&#45;&gt;1990978538864 -->
<g id="edge34" class="edge">
<title>1990979166736&#45;&gt;1990978538864</title>
<path fill="none" stroke="black" d="M3442.47,-90.16C3456.85,-82.12 3475.83,-71.5 3492.91,-61.95"/>
<polygon fill="black" stroke="black" points="3494.36,-65.15 3501.38,-57.22 3490.95,-59.04 3494.36,-65.15"/>
</g>
<!-- 1990978538528&#45;&gt;1990978537856 -->
<g id="edge37" class="edge">
<title>1990978538528&#45;&gt;1990978537856</title>
<path fill="none" stroke="black" d="M3684.87,-35.68C3693.86,-38.82 3704.43,-42.51 3715.11,-46.23"/>
<polygon fill="black" stroke="black" points="3713.74,-49.46 3724.34,-49.45 3716.05,-42.85 3713.74,-49.46"/>
</g>
<!-- 1990978546880&#45;&gt;1990978542944 -->
<g id="edge39" class="edge">
<title>1990978546880&#45;&gt;1990978542944</title>
<path fill="none" stroke="black" d="M3914.12,-95.58C3922.04,-98.31 3931.15,-101.45 3940.35,-104.63"/>
<polygon fill="black" stroke="black" points="3939.11,-107.9 3949.7,-107.86 3941.39,-101.29 3939.11,-107.9"/>
</g>
</g>
</svg>
