<?xml version="1.0" encoding="UTF-8" standalone="no"?>
<!DOCTYPE svg PUBLIC "-//W3C//DTD SVG 1.1//EN"
 "http://www.w3.org/Graphics/SVG/1.1/DTD/svg11.dtd">
<!-- Generated by graphviz version 11.0.0 (20240428.1522)
 -->
<!-- Title: imdf_net_1754052852.454038 Pages: 1 -->
<svg width="2852pt" height="388pt"
 viewBox="0.00 0.00 2852.25 388.00" xmlns="http://www.w3.org/2000/svg" xmlns:xlink="http://www.w3.org/1999/xlink">
<g id="graph0" class="graph" transform="scale(1 1) rotate(0) translate(4 384)">
<title>imdf_net_1754052852.454038</title>
<polygon fill="white" stroke="none" points="-4,4 -4,-384 2848.25,-384 2848.25,4 -4,4"/>
<!-- 1990980799280 -->
<g id="node1" class="node">
<title>1990980799280</title>
<polygon fill="black" stroke="black" points="144,-299 90,-299 90,-263 144,-263 144,-299"/>
</g>
<!-- 1990981727872 -->
<g id="node21" class="node">
<title>1990981727872</title>
<ellipse fill="white" stroke="black" cx="207" cy="-208" rx="27" ry="27"/>
</g>
<!-- 1990980799280&#45;&gt;1990981727872 -->
<g id="edge3" class="edge">
<title>1990980799280&#45;&gt;1990981727872</title>
<path fill="none" stroke="black" d="M140.21,-262.58C151.32,-253.36 164.92,-242.07 176.87,-232.17"/>
<polygon fill="black" stroke="black" points="178.98,-234.96 184.45,-225.88 174.51,-229.57 178.98,-234.96"/>
</g>
<!-- 1990975750368 -->
<g id="node22" class="node">
<title>1990975750368</title>
<ellipse fill="white" stroke="black" cx="207" cy="-353" rx="27" ry="27"/>
</g>
<!-- 1990980799280&#45;&gt;1990975750368 -->
<g id="edge4" class="edge">
<title>1990980799280&#45;&gt;1990975750368</title>
<path fill="none" stroke="black" d="M140.21,-299.17C151.32,-308.26 164.92,-319.39 176.87,-329.16"/>
<polygon fill="black" stroke="black" points="174.48,-331.74 184.44,-335.36 178.92,-326.32 174.48,-331.74"/>
</g>
<!-- 1990975754736 -->
<g id="node23" class="node">
<title>1990975754736</title>
<ellipse fill="white" stroke="black" cx="207" cy="-281" rx="27" ry="27"/>
</g>
<!-- 1990980799280&#45;&gt;1990975754736 -->
<g id="edge2" class="edge">
<title>1990980799280&#45;&gt;1990975754736</title>
<path fill="none" stroke="black" d="M144.4,-281C151.89,-281 160.18,-281 168.2,-281"/>
<polygon fill="black" stroke="black" points="168.1,-284.5 178.1,-281 168.1,-277.5 168.1,-284.5"/>
</g>
<!-- 1990981724416 -->
<g id="node2" class="node">
<title>1990981724416</title>
<polygon fill="white" stroke="black" points="356.5,-207 272.25,-207 272.25,-171 356.5,-171 356.5,-207"/>
<text text-anchor="middle" x="314.38" y="-183.97" font-family="Times New Roman,serif" font-size="12.00">Artifact Intake</text>
</g>
<!-- 1990981723312 -->
<g id="node25" class="node">
<title>1990981723312</title>
<ellipse fill="white" stroke="black" cx="421.75" cy="-180" rx="27" ry="27"/>
</g>
<!-- 1990981724416&#45;&gt;1990981723312 -->
<g id="edge9" class="edge">
<title>1990981724416&#45;&gt;1990981723312</title>
<path fill="none" stroke="black" d="M356.72,-185.47C365.44,-184.72 374.6,-183.94 383.17,-183.21"/>
<polygon fill="black" stroke="black" points="383.23,-186.72 392.9,-182.38 382.63,-179.74 383.23,-186.72"/>
</g>
<!-- 1990975759776 -->
<g id="node3" class="node">
<title>1990975759776</title>
<polygon fill="white" stroke="black" points="353.5,-302 275.25,-302 275.25,-266 353.5,-266 353.5,-302"/>
<text text-anchor="middle" x="314.38" y="-278.98" font-family="Times New Roman,serif" font-size="12.00">Data Backup</text>
</g>
<!-- 1990975752768 -->
<g id="node26" class="node">
<title>1990975752768</title>
<ellipse fill="white" stroke="black" cx="537.38" cy="-296" rx="27" ry="27"/>
</g>
<!-- 1990975759776&#45;&gt;1990975752768 -->
<g id="edge10" class="edge">
<title>1990975759776&#45;&gt;1990975752768</title>
<path fill="none" stroke="black" d="M353.87,-286.09C394.53,-288.3 458.22,-291.76 498.6,-293.95"/>
<polygon fill="black" stroke="black" points="498.4,-297.44 508.58,-294.49 498.78,-290.45 498.4,-297.44"/>
</g>
<!-- 1990975751232 -->
<g id="node4" class="node">
<title>1990975751232</title>
<polygon fill="white" stroke="black" points="358.75,-371 270,-371 270,-335 358.75,-335 358.75,-371"/>
<text text-anchor="middle" x="314.38" y="-347.98" font-family="Times New Roman,serif" font-size="12.00">Documentation</text>
</g>
<!-- 1990975750416 -->
<g id="node24" class="node">
<title>1990975750416</title>
<ellipse fill="white" stroke="black" cx="1428.62" cy="-353" rx="27" ry="27"/>
</g>
<!-- 1990975751232&#45;&gt;1990975750416 -->
<g id="edge8" class="edge">
<title>1990975751232&#45;&gt;1990975750416</title>
<path fill="none" stroke="black" d="M358.98,-353C403.56,-353 474.79,-353 536.38,-353 536.38,-353 536.38,-353 1207.38,-353 1271.47,-353 1346.06,-353 1389.92,-353"/>
<polygon fill="black" stroke="black" points="1389.67,-356.5 1399.67,-353 1389.67,-349.5 1389.67,-356.5"/>
</g>
<!-- 1990981720432 -->
<g id="node5" class="node">
<title>1990981720432</title>
<polygon fill="black" stroke="black" points="2746.25,-288 2692.25,-288 2692.25,-252 2746.25,-252 2746.25,-288"/>
</g>
<!-- 1990980180384 -->
<g id="node29" class="node">
<title>1990980180384</title>
<ellipse fill="white" stroke="black" cx="2813.25" cy="-270" rx="27" ry="27"/>
<ellipse fill="none" stroke="black" cx="2813.25" cy="-270" rx="31" ry="31"/>
<text text-anchor="start" x="2796.75" y="-254.6" font-family="Times New Roman,serif" font-size="32.00">■</text>
</g>
<!-- 1990981720432&#45;&gt;1990980180384 -->
<g id="edge16" class="edge">
<title>1990981720432&#45;&gt;1990980180384</title>
<path fill="none" stroke="black" d="M2746.37,-270C2753.88,-270 2762.26,-270 2770.47,-270"/>
<polygon fill="black" stroke="black" points="2770.33,-273.5 2780.33,-270 2770.33,-266.5 2770.33,-273.5"/>
</g>
<!-- 1990981717360 -->
<g id="node6" class="node">
<title>1990981717360</title>
<polygon fill="white" stroke="black" points="590,-193 484.75,-193 484.75,-157 590,-157 590,-193"/>
<text text-anchor="middle" x="537.38" y="-169.97" font-family="Times New Roman,serif" font-size="12.00">Provenance Check</text>
</g>
<!-- 1990979545296 -->
<g id="node27" class="node">
<title>1990979545296</title>
<ellipse fill="white" stroke="black" cx="653" cy="-101" rx="27" ry="27"/>
</g>
<!-- 1990981717360&#45;&gt;1990979545296 -->
<g id="edge14" class="edge">
<title>1990981717360&#45;&gt;1990979545296</title>
<path fill="none" stroke="black" d="M566.75,-156.52C583.02,-145.92 603.47,-132.6 620.27,-121.67"/>
<polygon fill="black" stroke="black" points="621.94,-124.76 628.41,-116.37 618.12,-118.89 621.94,-124.76"/>
</g>
<!-- 1990981721968 -->
<g id="node28" class="node">
<title>1990981721968</title>
<ellipse fill="white" stroke="black" cx="653" cy="-175" rx="27" ry="27"/>
</g>
<!-- 1990981717360&#45;&gt;1990981721968 -->
<g id="edge15" class="edge">
<title>1990981717360&#45;&gt;1990981721968</title>
<path fill="none" stroke="black" d="M590.2,-175C598.36,-175 606.66,-175 614.42,-175"/>
<polygon fill="black" stroke="black" points="614.18,-178.5 624.18,-175 614.18,-171.5 614.18,-178.5"/>
</g>
<!-- 1990979550240 -->
<g id="node7" class="node">
<title>1990979550240</title>
<polygon fill="white" stroke="black" points="811.5,-117 716,-117 716,-81 811.5,-81 811.5,-117"/>
<text text-anchor="middle" x="763.75" y="-93.97" font-family="Times New Roman,serif" font-size="12.00">Expert Interview</text>
</g>
<!-- 1990976233184 -->
<g id="node32" class="node">
<title>1990976233184</title>
<ellipse fill="white" stroke="black" cx="874.5" cy="-99" rx="27" ry="27"/>
</g>
<!-- 1990979550240&#45;&gt;1990976233184 -->
<g id="edge22" class="edge">
<title>1990979550240&#45;&gt;1990976233184</title>
<path fill="none" stroke="black" d="M811.82,-99C819.82,-99 828.04,-99 835.77,-99"/>
<polygon fill="black" stroke="black" points="835.5,-102.5 845.5,-99 835.5,-95.5 835.5,-102.5"/>
</g>
<!-- 1990976229104 -->
<g id="node33" class="node">
<title>1990976229104</title>
<ellipse fill="white" stroke="black" cx="874.5" cy="-27" rx="27" ry="27"/>
</g>
<!-- 1990979550240&#45;&gt;1990976229104 -->
<g id="edge20" class="edge">
<title>1990979550240&#45;&gt;1990976229104</title>
<path fill="none" stroke="black" d="M792.47,-80.65C807.59,-70.64 826.35,-58.22 842.01,-47.85"/>
<polygon fill="black" stroke="black" points="843.64,-50.97 850.04,-42.53 839.77,-45.13 843.64,-50.97"/>
</g>
<!-- 1990979166448 -->
<g id="node8" class="node">
<title>1990979166448</title>
<polygon fill="white" stroke="black" points="808.5,-193 719,-193 719,-157 808.5,-157 808.5,-193"/>
<text text-anchor="middle" x="763.75" y="-169.97" font-family="Times New Roman,serif" font-size="12.00">Archive Search</text>
</g>
<!-- 1990976226896 -->
<g id="node30" class="node">
<title>1990976226896</title>
<ellipse fill="white" stroke="black" cx="874.5" cy="-171" rx="27" ry="27"/>
</g>
<!-- 1990979166448&#45;&gt;1990976226896 -->
<g id="edge21" class="edge">
<title>1990979166448&#45;&gt;1990976226896</title>
<path fill="none" stroke="black" d="M808.98,-173.37C817.88,-173.05 827.15,-172.7 835.79,-172.39"/>
<polygon fill="black" stroke="black" points="835.73,-175.89 845.59,-172.03 835.47,-168.9 835.73,-175.89"/>
</g>
<!-- 1990976234960 -->
<g id="node31" class="node">
<title>1990976234960</title>
<ellipse fill="white" stroke="black" cx="874.5" cy="-243" rx="27" ry="27"/>
</g>
<!-- 1990979166448&#45;&gt;1990976234960 -->
<g id="edge19" class="edge">
<title>1990979166448&#45;&gt;1990976234960</title>
<path fill="none" stroke="black" d="M794.18,-193.4C808.83,-202.57 826.57,-213.66 841.56,-223.03"/>
<polygon fill="black" stroke="black" points="839.33,-225.76 849.67,-228.1 843.04,-219.83 839.33,-225.76"/>
</g>
<!-- 1990975763088 -->
<g id="node9" class="node">
<title>1990975763088</title>
<polygon fill="white" stroke="black" points="1030.75,-225 937.5,-225 937.5,-189 1030.75,-189 1030.75,-225"/>
<text text-anchor="middle" x="984.12" y="-201.97" font-family="Times New Roman,serif" font-size="12.00">Stylistic Review</text>
</g>
<!-- 1990975764096 -->
<g id="node34" class="node">
<title>1990975764096</title>
<ellipse fill="white" stroke="black" cx="1093.75" cy="-207" rx="27" ry="27"/>
</g>
<!-- 1990975763088&#45;&gt;1990975764096 -->
<g id="edge27" class="edge">
<title>1990975763088&#45;&gt;1990975764096</title>
<path fill="none" stroke="black" d="M1031.08,-207C1039.12,-207 1047.41,-207 1055.19,-207"/>
<polygon fill="black" stroke="black" points="1055.01,-210.5 1065.01,-207 1055.01,-203.5 1055.01,-210.5"/>
</g>
<!-- 1990975760880 -->
<g id="node10" class="node">
<title>1990975760880</title>
<polygon fill="white" stroke="black" points="1024.75,-153 943.5,-153 943.5,-117 1024.75,-117 1024.75,-153"/>
<text text-anchor="middle" x="984.12" y="-129.97" font-family="Times New Roman,serif" font-size="12.00">Material Scan</text>
</g>
<!-- 1990975750752 -->
<g id="node35" class="node">
<title>1990975750752</title>
<ellipse fill="white" stroke="black" cx="1093.75" cy="-135" rx="27" ry="27"/>
</g>
<!-- 1990975760880&#45;&gt;1990975750752 -->
<g id="edge28" class="edge">
<title>1990975760880&#45;&gt;1990975750752</title>
<path fill="none" stroke="black" d="M1025.2,-135C1034.97,-135 1045.39,-135 1055.05,-135"/>
<polygon fill="black" stroke="black" points="1054.84,-138.5 1064.84,-135 1054.84,-131.5 1054.84,-138.5"/>
</g>
<!-- 1990975757808 -->
<g id="node11" class="node">
<title>1990975757808</title>
<polygon fill="white" stroke="black" points="1246.62,-153 1166.12,-153 1166.12,-117 1246.62,-117 1246.62,-153"/>
<text text-anchor="middle" x="1206.38" y="-129.97" font-family="Times New Roman,serif" font-size="12.00">Age Analysis</text>
</g>
<!-- 1990976233328 -->
<g id="node37" class="node">
<title>1990976233328</title>
<ellipse fill="white" stroke="black" cx="1319" cy="-135" rx="27" ry="27"/>
</g>
<!-- 1990975757808&#45;&gt;1990976233328 -->
<g id="edge32" class="edge">
<title>1990975757808&#45;&gt;1990976233328</title>
<path fill="none" stroke="black" d="M1247,-135C1257.93,-135 1269.75,-135 1280.55,-135"/>
<polygon fill="black" stroke="black" points="1280.26,-138.5 1290.26,-135 1280.26,-131.5 1280.26,-138.5"/>
</g>
<!-- 1990975760112 -->
<g id="node12" class="node">
<title>1990975760112</title>
<polygon fill="white" stroke="black" points="1256,-225 1156.75,-225 1156.75,-189 1256,-189 1256,-225"/>
<text text-anchor="middle" x="1206.38" y="-201.97" font-family="Times New Roman,serif" font-size="12.00">Context Mapping</text>
</g>
<!-- 1990976229920 -->
<g id="node36" class="node">
<title>1990976229920</title>
<ellipse fill="white" stroke="black" cx="1319" cy="-207" rx="27" ry="27"/>
</g>
<!-- 1990975760112&#45;&gt;1990976229920 -->
<g id="edge31" class="edge">
<title>1990975760112&#45;&gt;1990976229920</title>
<path fill="none" stroke="black" d="M1256.22,-207C1264.29,-207 1272.55,-207 1280.29,-207"/>
<polygon fill="black" stroke="black" points="1280.05,-210.5 1290.05,-207 1280.05,-203.5 1280.05,-210.5"/>
</g>
<!-- 1990982118976 -->
<g id="node13" class="node">
<title>1990982118976</title>
<polygon fill="white" stroke="black" points="1475.25,-207 1382,-207 1382,-171 1475.25,-171 1475.25,-207"/>
<text text-anchor="middle" x="1428.62" y="-183.97" font-family="Times New Roman,serif" font-size="12.00">Legal Clearance</text>
</g>
<!-- 1990982121664 -->
<g id="node38" class="node">
<title>1990982121664</title>
<ellipse fill="white" stroke="black" cx="1538.25" cy="-189" rx="27" ry="27"/>
</g>
<!-- 1990982118976&#45;&gt;1990982121664 -->
<g id="edge35" class="edge">
<title>1990982118976&#45;&gt;1990982121664</title>
<path fill="none" stroke="black" d="M1475.58,-189C1483.62,-189 1491.91,-189 1499.69,-189"/>
<polygon fill="black" stroke="black" points="1499.51,-192.5 1509.51,-189 1499.51,-185.5 1499.51,-192.5"/>
</g>
<!-- 1990976653840 -->
<g id="node14" class="node">
<title>1990976653840</title>
<polygon fill="white" stroke="black" points="1701.25,-207 1601.25,-207 1601.25,-171 1701.25,-171 1701.25,-207"/>
<text text-anchor="middle" x="1651.25" y="-183.97" font-family="Times New Roman,serif" font-size="12.00">Data Compilation</text>
</g>
<!-- 1990976655088 -->
<g id="node39" class="node">
<title>1990976655088</title>
<ellipse fill="white" stroke="black" cx="1764.25" cy="-189" rx="27" ry="27"/>
</g>
<!-- 1990976653840&#45;&gt;1990976655088 -->
<g id="edge37" class="edge">
<title>1990976653840&#45;&gt;1990976655088</title>
<path fill="none" stroke="black" d="M1701.58,-189C1709.66,-189 1717.91,-189 1725.64,-189"/>
<polygon fill="black" stroke="black" points="1725.37,-192.5 1735.37,-189 1725.37,-185.5 1725.37,-192.5"/>
</g>
<!-- 1990981715440 -->
<g id="node15" class="node">
<title>1990981715440</title>
<polygon fill="white" stroke="black" points="1918.25,-207 1827.25,-207 1827.25,-171 1918.25,-171 1918.25,-207"/>
<text text-anchor="middle" x="1872.75" y="-183.97" font-family="Times New Roman,serif" font-size="12.00">Report Drafting</text>
</g>
<!-- 1990980026592 -->
<g id="node40" class="node">
<title>1990980026592</title>
<ellipse fill="white" stroke="black" cx="1981.25" cy="-189" rx="27" ry="27"/>
</g>
<!-- 1990981715440&#45;&gt;1990980026592 -->
<g id="edge39" class="edge">
<title>1990981715440&#45;&gt;1990980026592</title>
<path fill="none" stroke="black" d="M1918.61,-189C1926.61,-189 1934.87,-189 1942.65,-189"/>
<polygon fill="black" stroke="black" points="1942.46,-192.5 1952.46,-189 1942.46,-185.5 1942.46,-192.5"/>
</g>
<!-- 1990980031728 -->
<g id="node16" class="node">
<title>1990980031728</title>
<polygon fill="white" stroke="black" points="2121,-207 2044.25,-207 2044.25,-171 2121,-171 2121,-207"/>
<text text-anchor="middle" x="2082.62" y="-183.97" font-family="Times New Roman,serif" font-size="12.00">Peer Review</text>
</g>
<!-- 1990975899888 -->
<g id="node41" class="node">
<title>1990975899888</title>
<ellipse fill="white" stroke="black" cx="2184" cy="-189" rx="27" ry="27"/>
</g>
<!-- 1990980031728&#45;&gt;1990975899888 -->
<g id="edge41" class="edge">
<title>1990980031728&#45;&gt;1990975899888</title>
<path fill="none" stroke="black" d="M2121.48,-189C2129.27,-189 2137.48,-189 2145.27,-189"/>
<polygon fill="black" stroke="black" points="2145.15,-192.5 2155.15,-189 2145.15,-185.5 2145.15,-192.5"/>
</g>
<!-- 1990975909728 -->
<g id="node17" class="node">
<title>1990975909728</title>
<polygon fill="white" stroke="black" points="2345.5,-207 2247,-207 2247,-171 2345.5,-171 2345.5,-207"/>
<text text-anchor="middle" x="2296.25" y="-183.97" font-family="Times New Roman,serif" font-size="12.00">Final Assessment</text>
</g>
<!-- 1990975898304 -->
<g id="node42" class="node">
<title>1990975898304</title>
<ellipse fill="white" stroke="black" cx="2408.5" cy="-171" rx="27" ry="27"/>
</g>
<!-- 1990975909728&#45;&gt;1990975898304 -->
<g id="edge43" class="edge">
<title>1990975909728&#45;&gt;1990975898304</title>
<path fill="none" stroke="black" d="M2345.93,-181.05C2354.05,-179.73 2362.36,-178.37 2370.14,-177.1"/>
<polygon fill="black" stroke="black" points="2370.65,-180.56 2379.96,-175.5 2369.52,-173.65 2370.65,-180.56"/>
</g>
<!-- 1990975913568 -->
<g id="node43" class="node">
<title>1990975913568</title>
<ellipse fill="white" stroke="black" cx="2408.5" cy="-243" rx="27" ry="27"/>
</g>
<!-- 1990975909728&#45;&gt;1990975913568 -->
<g id="edge44" class="edge">
<title>1990975909728&#45;&gt;1990975913568</title>
<path fill="none" stroke="black" d="M2334.88,-207.43C2347.43,-213.58 2361.32,-220.38 2373.57,-226.38"/>
<polygon fill="black" stroke="black" points="2371.95,-229.49 2382.47,-230.74 2375.03,-223.2 2371.95,-229.49"/>
</g>
<!-- 1990975903680 -->
<g id="node18" class="node">
<title>1990975903680</title>
<polygon fill="white" stroke="black" points="2566.25,-189 2471.5,-189 2471.5,-153 2566.25,-153 2566.25,-189"/>
<text text-anchor="middle" x="2518.88" y="-165.97" font-family="Times New Roman,serif" font-size="12.00">Acquisition Plan</text>
</g>
<!-- 1990975897968 -->
<g id="node45" class="node">
<title>1990975897968</title>
<ellipse fill="white" stroke="black" cx="2629.25" cy="-171" rx="27" ry="27"/>
</g>
<!-- 1990975903680&#45;&gt;1990975897968 -->
<g id="edge47" class="edge">
<title>1990975903680&#45;&gt;1990975897968</title>
<path fill="none" stroke="black" d="M2566.46,-171C2574.54,-171 2582.85,-171 2590.65,-171"/>
<polygon fill="black" stroke="black" points="2590.48,-174.5 2600.48,-171 2590.48,-167.5 2590.48,-174.5"/>
</g>
<!-- 1990975897872 -->
<g id="node19" class="node">
<title>1990975897872</title>
<polygon fill="white" stroke="black" points="2566.25,-261 2471.5,-261 2471.5,-225 2566.25,-225 2566.25,-261"/>
<text text-anchor="middle" x="2518.88" y="-237.97" font-family="Times New Roman,serif" font-size="12.00">Restoration Prep</text>
</g>
<!-- 1990975906992 -->
<g id="node44" class="node">
<title>1990975906992</title>
<ellipse fill="white" stroke="black" cx="2629.25" cy="-243" rx="27" ry="27"/>
</g>
<!-- 1990975897872&#45;&gt;1990975906992 -->
<g id="edge48" class="edge">
<title>1990975897872&#45;&gt;1990975906992</title>
<path fill="none" stroke="black" d="M2566.46,-243C2574.54,-243 2582.85,-243 2590.65,-243"/>
<polygon fill="black" stroke="black" points="2590.48,-246.5 2600.48,-243 2590.48,-239.5 2590.48,-246.5"/>
</g>
<!-- 1990980189456 -->
<g id="node20" class="node">
<title>1990980189456</title>
<ellipse fill="white" stroke="black" cx="27" cy="-281" rx="27" ry="27"/>
<text text-anchor="start" x="9.75" y="-263.7" font-family="Times New Roman,serif" font-size="34.00">●</text>
</g>
<!-- 1990980189456&#45;&gt;1990980799280 -->
<g id="edge1" class="edge">
<title>1990980189456&#45;&gt;1990980799280</title>
<path fill="none" stroke="black" d="M54.4,-281C61.89,-281 70.18,-281 78.2,-281"/>
<polygon fill="black" stroke="black" points="78.1,-284.5 88.1,-281 78.1,-277.5 78.1,-284.5"/>
</g>
<!-- 1990981727872&#45;&gt;1990981724416 -->
<g id="edge7" class="edge">
<title>1990981727872&#45;&gt;1990981724416</title>
<path fill="none" stroke="black" d="M234.05,-203.3C242.19,-201.83 251.49,-200.16 260.79,-198.48"/>
<polygon fill="black" stroke="black" points="261.33,-201.94 270.56,-196.72 260.09,-195.05 261.33,-201.94"/>
</g>
<!-- 1990975750368&#45;&gt;1990975751232 -->
<g id="edge5" class="edge">
<title>1990975750368&#45;&gt;1990975751232</title>
<path fill="none" stroke="black" d="M234.32,-353C241.69,-353 250,-353 258.38,-353"/>
<polygon fill="black" stroke="black" points="258.27,-356.5 268.27,-353 258.27,-349.5 258.27,-356.5"/>
</g>
<!-- 1990975754736&#45;&gt;1990975759776 -->
<g id="edge6" class="edge">
<title>1990975754736&#45;&gt;1990975759776</title>
<path fill="none" stroke="black" d="M234.32,-281.75C243.27,-282 253.58,-282.3 263.74,-282.59"/>
<polygon fill="black" stroke="black" points="263.46,-286.08 273.55,-282.87 263.66,-279.08 263.46,-286.08"/>
</g>
<!-- 1990975750416&#45;&gt;1990981720432 -->
<g id="edge12" class="edge">
<title>1990975750416&#45;&gt;1990981720432</title>
<path fill="none" stroke="black" d="M1455.77,-352.02C1497.07,-350.57 1579.95,-348 1650.25,-348 1650.25,-348 1650.25,-348 2519.88,-348 2582.56,-348 2599.18,-337.95 2656.25,-312 2666.44,-307.37 2676.79,-301.1 2686.04,-294.82"/>
<polygon fill="black" stroke="black" points="2687.83,-297.84 2693.98,-289.22 2683.79,-292.12 2687.83,-297.84"/>
</g>
<!-- 1990981723312&#45;&gt;1990981717360 -->
<g id="edge11" class="edge">
<title>1990981723312&#45;&gt;1990981717360</title>
<path fill="none" stroke="black" d="M449.1,-178.84C456.49,-178.52 464.85,-178.15 473.4,-177.77"/>
<polygon fill="black" stroke="black" points="473.33,-181.28 483.16,-177.34 473.02,-174.28 473.33,-181.28"/>
</g>
<!-- 1990975752768&#45;&gt;1990981720432 -->
<g id="edge13" class="edge">
<title>1990975752768&#45;&gt;1990981720432</title>
<path fill="none" stroke="black" d="M564.63,-296.39C606.52,-296.97 691.07,-298 762.75,-298 762.75,-298 762.75,-298 2519.88,-298 2576.26,-298 2640.78,-286.77 2680.53,-278.54"/>
<polygon fill="black" stroke="black" points="2681.25,-281.96 2690.31,-276.46 2679.8,-275.11 2681.25,-281.96"/>
</g>
<!-- 1990979545296&#45;&gt;1990979550240 -->
<g id="edge18" class="edge">
<title>1990979545296&#45;&gt;1990979550240</title>
<path fill="none" stroke="black" d="M680.33,-100.52C687.67,-100.38 695.96,-100.23 704.38,-100.07"/>
<polygon fill="black" stroke="black" points="704.41,-103.57 714.34,-99.89 704.28,-96.57 704.41,-103.57"/>
</g>
<!-- 1990981721968&#45;&gt;1990979166448 -->
<g id="edge17" class="edge">
<title>1990981721968&#45;&gt;1990979166448</title>
<path fill="none" stroke="black" d="M680.33,-175C688.55,-175 697.95,-175 707.39,-175"/>
<polygon fill="black" stroke="black" points="707.34,-178.5 717.34,-175 707.34,-171.5 707.34,-178.5"/>
</g>
<!-- 1990976226896&#45;&gt;1990975760880 -->
<g id="edge26" class="edge">
<title>1990976226896&#45;&gt;1990975760880</title>
<path fill="none" stroke="black" d="M900.46,-162.65C909.96,-159.47 921.17,-155.72 932.21,-152.03"/>
<polygon fill="black" stroke="black" points="933.32,-155.35 941.69,-148.86 931.1,-148.71 933.32,-155.35"/>
</g>
<!-- 1990976234960&#45;&gt;1990975763088 -->
<g id="edge24" class="edge">
<title>1990976234960&#45;&gt;1990975763088</title>
<path fill="none" stroke="black" d="M900.46,-234.65C908.32,-232.02 917.34,-229.01 926.47,-225.95"/>
<polygon fill="black" stroke="black" points="927.36,-229.34 935.73,-222.85 925.14,-222.7 927.36,-229.34"/>
</g>
<!-- 1990976233184&#45;&gt;1990975763088 -->
<g id="edge23" class="edge">
<title>1990976233184&#45;&gt;1990975763088</title>
<path fill="none" stroke="black" d="M894.15,-118.1C906.42,-130.62 922.86,-147.34 937.5,-162 943.55,-168.06 950.09,-174.55 956.28,-180.65"/>
<polygon fill="black" stroke="black" points="953.76,-183.08 963.34,-187.61 958.67,-178.1 953.76,-183.08"/>
</g>
<!-- 1990976229104&#45;&gt;1990975760880 -->
<g id="edge25" class="edge">
<title>1990976229104&#45;&gt;1990975760880</title>
<path fill="none" stroke="black" d="M894.25,-45.81C911.56,-63.18 937.45,-89.16 956.83,-108.61"/>
<polygon fill="black" stroke="black" points="954.35,-111.08 963.88,-115.69 959.3,-106.14 954.35,-111.08"/>
</g>
<!-- 1990975764096&#45;&gt;1990975760112 -->
<g id="edge29" class="edge">
<title>1990975764096&#45;&gt;1990975760112</title>
<path fill="none" stroke="black" d="M1121.25,-207C1128.54,-207 1136.77,-207 1145.14,-207"/>
<polygon fill="black" stroke="black" points="1145.07,-210.5 1155.07,-207 1145.07,-203.5 1145.07,-210.5"/>
</g>
<!-- 1990975750752&#45;&gt;1990975757808 -->
<g id="edge30" class="edge">
<title>1990975750752&#45;&gt;1990975757808</title>
<path fill="none" stroke="black" d="M1121.25,-135C1131.22,-135 1142.92,-135 1154.38,-135"/>
<polygon fill="black" stroke="black" points="1154.17,-138.5 1164.17,-135 1154.17,-131.5 1154.17,-138.5"/>
</g>
<!-- 1990976229920&#45;&gt;1990982118976 -->
<g id="edge33" class="edge">
<title>1990976229920&#45;&gt;1990982118976</title>
<path fill="none" stroke="black" d="M1346.05,-202.64C1353.49,-201.4 1361.91,-199.99 1370.44,-198.56"/>
<polygon fill="black" stroke="black" points="1370.86,-202.04 1380.15,-196.94 1369.71,-195.14 1370.86,-202.04"/>
</g>
<!-- 1990976233328&#45;&gt;1990982118976 -->
<g id="edge34" class="edge">
<title>1990976233328&#45;&gt;1990982118976</title>
<path fill="none" stroke="black" d="M1343.62,-146.85C1354.56,-152.34 1367.95,-159.06 1380.81,-165.51"/>
<polygon fill="black" stroke="black" points="1379.08,-168.56 1389.59,-169.92 1382.22,-162.3 1379.08,-168.56"/>
</g>
<!-- 1990982121664&#45;&gt;1990976653840 -->
<g id="edge36" class="edge">
<title>1990982121664&#45;&gt;1990976653840</title>
<path fill="none" stroke="black" d="M1565.56,-189C1572.87,-189 1581.13,-189 1589.56,-189"/>
<polygon fill="black" stroke="black" points="1589.56,-192.5 1599.56,-189 1589.56,-185.5 1589.56,-192.5"/>
</g>
<!-- 1990976655088&#45;&gt;1990981715440 -->
<g id="edge38" class="edge">
<title>1990976655088&#45;&gt;1990981715440</title>
<path fill="none" stroke="black" d="M1791.58,-189C1798.94,-189 1807.25,-189 1815.64,-189"/>
<polygon fill="black" stroke="black" points="1815.56,-192.5 1825.56,-189 1815.56,-185.5 1815.56,-192.5"/>
</g>
<!-- 1990980026592&#45;&gt;1990980031728 -->
<g id="edge40" class="edge">
<title>1990980026592&#45;&gt;1990980031728</title>
<path fill="none" stroke="black" d="M2008.62,-189C2015.97,-189 2024.19,-189 2032.4,-189"/>
<polygon fill="black" stroke="black" points="2032.39,-192.5 2042.39,-189 2032.39,-185.5 2032.39,-192.5"/>
</g>
<!-- 1990975899888&#45;&gt;1990975909728 -->
<g id="edge42" class="edge">
<title>1990975899888&#45;&gt;1990975909728</title>
<path fill="none" stroke="black" d="M2211.41,-189C2218.68,-189 2226.87,-189 2235.22,-189"/>
<polygon fill="black" stroke="black" points="2235.11,-192.5 2245.11,-189 2235.11,-185.5 2235.11,-192.5"/>
</g>
<!-- 1990975898304&#45;&gt;1990975903680 -->
<g id="edge45" class="edge">
<title>1990975898304&#45;&gt;1990975903680</title>
<path fill="none" stroke="black" d="M2435.73,-171C2443.06,-171 2451.32,-171 2459.7,-171"/>
<polygon fill="black" stroke="black" points="2459.63,-174.5 2469.63,-171 2459.63,-167.5 2459.63,-174.5"/>
</g>
<!-- 1990975913568&#45;&gt;1990975897872 -->
<g id="edge46" class="edge">
<title>1990975913568&#45;&gt;1990975897872</title>
<path fill="none" stroke="black" d="M2435.73,-243C2443.06,-243 2451.32,-243 2459.7,-243"/>
<polygon fill="black" stroke="black" points="2459.63,-246.5 2469.63,-243 2459.63,-239.5 2459.63,-246.5"/>
</g>
<!-- 1990975906992&#45;&gt;1990981720432 -->
<g id="edge49" class="edge">
<title>1990975906992&#45;&gt;1990981720432</title>
<path fill="none" stroke="black" d="M2655.23,-250.66C2663.31,-253.14 2672.44,-255.94 2681.2,-258.63"/>
<polygon fill="black" stroke="black" points="2679.94,-261.91 2690.53,-261.5 2682,-255.22 2679.94,-261.91"/>
</g>
<!-- 1990975897968&#45;&gt;1990981720432 -->
<g id="edge50" class="edge">
<title>1990975897968&#45;&gt;1990981720432</title>
<path fill="none" stroke="black" d="M2648.06,-191.03C2661.49,-206.14 2680.03,-227.01 2694.69,-243.5"/>
<polygon fill="black" stroke="black" points="2691.69,-245.39 2700.95,-250.53 2696.92,-240.73 2691.69,-245.39"/>
</g>
</g>
</svg>
