<?xml version="1.0" encoding="UTF-8" standalone="no"?>
<!DOCTYPE svg PUBLIC "-//W3C//DTD SVG 1.1//EN"
 "http://www.w3.org/Graphics/SVG/1.1/DTD/svg11.dtd">
<!-- Generated by graphviz version 11.0.0 (20240428.1522)
 -->
<!-- Title: imdf_net_1754052858.971036 Pages: 1 -->
<svg width="3831pt" height="150pt"
 viewBox="0.00 0.00 3830.75 150.00" xmlns="http://www.w3.org/2000/svg" xmlns:xlink="http://www.w3.org/1999/xlink">
<g id="graph0" class="graph" transform="scale(1 1) rotate(0) translate(4 146)">
<title>imdf_net_1754052858.971036</title>
<polygon fill="white" stroke="none" points="-4,4 -4,-146 3826.75,-146 3826.75,4 -4,4"/>
<!-- 1990980954080 -->
<g id="node1" class="node">
<title>1990980954080</title>
<polygon fill="black" stroke="black" points="144,-133 90,-133 90,-97 144,-97 144,-133"/>
</g>
<!-- 1990981717072 -->
<g id="node23" class="node">
<title>1990981717072</title>
<ellipse fill="white" stroke="black" cx="207" cy="-115" rx="27" ry="27"/>
</g>
<!-- 1990980954080&#45;&gt;1990981717072 -->
<g id="edge2" class="edge">
<title>1990980954080&#45;&gt;1990981717072</title>
<path fill="none" stroke="black" d="M144.4,-115C151.89,-115 160.18,-115 168.2,-115"/>
<polygon fill="black" stroke="black" points="168.1,-118.5 178.1,-115 168.1,-111.5 168.1,-118.5"/>
</g>
<!-- 1990981716256 -->
<g id="node2" class="node">
<title>1990981716256</title>
<polygon fill="white" stroke="black" points="357.25,-102 270,-102 270,-66 357.25,-66 357.25,-102"/>
<text text-anchor="middle" x="313.62" y="-78.97" font-family="Times New Roman,serif" font-size="12.00">Farm Selection</text>
</g>
<!-- 1990981724224 -->
<g id="node24" class="node">
<title>1990981724224</title>
<ellipse fill="white" stroke="black" cx="420.25" cy="-76" rx="27" ry="27"/>
</g>
<!-- 1990981716256&#45;&gt;1990981724224 -->
<g id="edge4" class="edge">
<title>1990981716256&#45;&gt;1990981724224</title>
<path fill="none" stroke="black" d="M357.48,-80.72C365.5,-80.11 373.83,-79.47 381.67,-78.87"/>
<polygon fill="black" stroke="black" points="381.89,-82.37 391.6,-78.11 381.36,-75.39 381.89,-82.37"/>
</g>
<!-- 1990981722112 -->
<g id="node3" class="node">
<title>1990981722112</title>
<polygon fill="white" stroke="black" points="567.5,-90 483.25,-90 483.25,-54 567.5,-54 567.5,-90"/>
<text text-anchor="middle" x="525.38" y="-66.97" font-family="Times New Roman,serif" font-size="12.00">Milk Sourcing</text>
</g>
<!-- 1990976305296 -->
<g id="node25" class="node">
<title>1990976305296</title>
<ellipse fill="white" stroke="black" cx="630.5" cy="-70" rx="27" ry="27"/>
</g>
<!-- 1990981722112&#45;&gt;1990976305296 -->
<g id="edge6" class="edge">
<title>1990981722112&#45;&gt;1990976305296</title>
<path fill="none" stroke="black" d="M567.73,-71.2C575.69,-71.04 583.99,-70.88 591.83,-70.73"/>
<polygon fill="black" stroke="black" points="591.82,-74.23 601.75,-70.54 591.69,-67.23 591.82,-74.23"/>
</g>
<!-- 1990976292288 -->
<g id="node4" class="node">
<title>1990976292288</title>
<polygon fill="white" stroke="black" points="783,-87 693.5,-87 693.5,-51 783,-51 783,-87"/>
<text text-anchor="middle" x="738.25" y="-63.98" font-family="Times New Roman,serif" font-size="12.00">Quality Testing</text>
</g>
<!-- 1990971917376 -->
<g id="node26" class="node">
<title>1990971917376</title>
<ellipse fill="white" stroke="black" cx="846" cy="-69" rx="27" ry="27"/>
</g>
<!-- 1990976292288&#45;&gt;1990971917376 -->
<g id="edge8" class="edge">
<title>1990976292288&#45;&gt;1990971917376</title>
<path fill="none" stroke="black" d="M783.48,-69C791.45,-69 799.69,-69 807.45,-69"/>
<polygon fill="black" stroke="black" points="807.24,-72.5 817.24,-69 807.24,-65.5 807.24,-72.5"/>
</g>
<!-- 1990971926736 -->
<g id="node5" class="node">
<title>1990971926736</title>
<polygon fill="white" stroke="black" points="998.5,-87 909,-87 909,-51 998.5,-51 998.5,-87"/>
<text text-anchor="middle" x="953.75" y="-63.98" font-family="Times New Roman,serif" font-size="12.00">Milk Pasteurize</text>
</g>
<!-- 1990971922752 -->
<g id="node27" class="node">
<title>1990971922752</title>
<ellipse fill="white" stroke="black" cx="1061.5" cy="-69" rx="27" ry="27"/>
</g>
<!-- 1990971926736&#45;&gt;1990971922752 -->
<g id="edge10" class="edge">
<title>1990971926736&#45;&gt;1990971922752</title>
<path fill="none" stroke="black" d="M998.98,-69C1006.95,-69 1015.19,-69 1022.95,-69"/>
<polygon fill="black" stroke="black" points="1022.74,-72.5 1032.74,-69 1022.74,-65.5 1022.74,-72.5"/>
</g>
<!-- 1990971927504 -->
<g id="node6" class="node">
<title>1990971927504</title>
<polygon fill="white" stroke="black" points="1209.5,-87 1124.5,-87 1124.5,-51 1209.5,-51 1209.5,-87"/>
<text text-anchor="middle" x="1167" y="-63.98" font-family="Times New Roman,serif" font-size="12.00">Starter Culture</text>
</g>
<!-- 1990971932208 -->
<g id="node28" class="node">
<title>1990971932208</title>
<ellipse fill="white" stroke="black" cx="1272.5" cy="-69" rx="27" ry="27"/>
</g>
<!-- 1990971927504&#45;&gt;1990971932208 -->
<g id="edge12" class="edge">
<title>1990971927504&#45;&gt;1990971932208</title>
<path fill="none" stroke="black" d="M1209.8,-69C1217.7,-69 1225.92,-69 1233.68,-69"/>
<polygon fill="black" stroke="black" points="1233.51,-72.5 1243.51,-69 1233.51,-65.5 1233.51,-72.5"/>
</g>
<!-- 1990979853616 -->
<g id="node7" class="node">
<title>1990979853616</title>
<polygon fill="white" stroke="black" points="1409.25,-87 1335.5,-87 1335.5,-51 1409.25,-51 1409.25,-87"/>
<text text-anchor="middle" x="1372.38" y="-63.98" font-family="Times New Roman,serif" font-size="12.00">Coagulation</text>
</g>
<!-- 1990979854000 -->
<g id="node29" class="node">
<title>1990979854000</title>
<ellipse fill="white" stroke="black" cx="1472.25" cy="-69" rx="27" ry="27"/>
</g>
<!-- 1990979853616&#45;&gt;1990979854000 -->
<g id="edge14" class="edge">
<title>1990979853616&#45;&gt;1990979854000</title>
<path fill="none" stroke="black" d="M1409.54,-69C1417.44,-69 1425.83,-69 1433.78,-69"/>
<polygon fill="black" stroke="black" points="1433.5,-72.5 1443.5,-69 1433.5,-65.5 1433.5,-72.5"/>
</g>
<!-- 1990979848768 -->
<g id="node8" class="node">
<title>1990979848768</title>
<polygon fill="white" stroke="black" points="1613.5,-87 1535.25,-87 1535.25,-51 1613.5,-51 1613.5,-87"/>
<text text-anchor="middle" x="1574.38" y="-63.98" font-family="Times New Roman,serif" font-size="12.00">Curd Cutting</text>
</g>
<!-- 1990979847088 -->
<g id="node30" class="node">
<title>1990979847088</title>
<ellipse fill="white" stroke="black" cx="1676.5" cy="-69" rx="27" ry="27"/>
</g>
<!-- 1990979848768&#45;&gt;1990979847088 -->
<g id="edge16" class="edge">
<title>1990979848768&#45;&gt;1990979847088</title>
<path fill="none" stroke="black" d="M1613.8,-69C1621.64,-69 1629.88,-69 1637.69,-69"/>
<polygon fill="black" stroke="black" points="1637.61,-72.5 1647.61,-69 1637.61,-65.5 1637.61,-72.5"/>
</g>
<!-- 1990978190848 -->
<g id="node9" class="node">
<title>1990978190848</title>
<polygon fill="white" stroke="black" points="1829,-87 1739.5,-87 1739.5,-51 1829,-51 1829,-87"/>
<text text-anchor="middle" x="1784.25" y="-63.98" font-family="Times New Roman,serif" font-size="12.00">Whey Draining</text>
</g>
<!-- 1990979538144 -->
<g id="node31" class="node">
<title>1990979538144</title>
<ellipse fill="white" stroke="black" cx="1892" cy="-69" rx="27" ry="27"/>
</g>
<!-- 1990978190848&#45;&gt;1990979538144 -->
<g id="edge18" class="edge">
<title>1990978190848&#45;&gt;1990979538144</title>
<path fill="none" stroke="black" d="M1829.48,-69C1837.45,-69 1845.69,-69 1853.45,-69"/>
<polygon fill="black" stroke="black" points="1853.24,-72.5 1863.24,-69 1853.24,-65.5 1853.24,-72.5"/>
</g>
<!-- 1990979546544 -->
<g id="node10" class="node">
<title>1990979546544</title>
<polygon fill="white" stroke="black" points="2043,-87 1955,-87 1955,-51 2043,-51 2043,-87"/>
<text text-anchor="middle" x="1999" y="-63.98" font-family="Times New Roman,serif" font-size="12.00">Mold Inoculate</text>
</g>
<!-- 1990979540112 -->
<g id="node32" class="node">
<title>1990979540112</title>
<ellipse fill="white" stroke="black" cx="2106" cy="-69" rx="27" ry="27"/>
</g>
<!-- 1990979546544&#45;&gt;1990979540112 -->
<g id="edge20" class="edge">
<title>1990979546544&#45;&gt;1990979540112</title>
<path fill="none" stroke="black" d="M2043.31,-69C2051.27,-69 2059.51,-69 2067.28,-69"/>
<polygon fill="black" stroke="black" points="2067.1,-72.5 2077.1,-69 2067.1,-65.5 2067.1,-72.5"/>
</g>
<!-- 1990979549712 -->
<g id="node11" class="node">
<title>1990979549712</title>
<polygon fill="white" stroke="black" points="2254,-87 2169,-87 2169,-51 2254,-51 2254,-87"/>
<text text-anchor="middle" x="2211.5" y="-63.98" font-family="Times New Roman,serif" font-size="12.00">Aging Control</text>
</g>
<!-- 1990980573120 -->
<g id="node33" class="node">
<title>1990980573120</title>
<ellipse fill="white" stroke="black" cx="2317" cy="-69" rx="27" ry="27"/>
</g>
<!-- 1990979549712&#45;&gt;1990980573120 -->
<g id="edge22" class="edge">
<title>1990979549712&#45;&gt;1990980573120</title>
<path fill="none" stroke="black" d="M2254.3,-69C2262.2,-69 2270.42,-69 2278.18,-69"/>
<polygon fill="black" stroke="black" points="2278.01,-72.5 2288.01,-69 2278.01,-65.5 2278.01,-72.5"/>
</g>
<!-- 1990980569520 -->
<g id="node12" class="node">
<title>1990980569520</title>
<polygon fill="white" stroke="black" points="2482.25,-54 2380,-54 2380,-18 2482.25,-18 2482.25,-54"/>
<text text-anchor="middle" x="2431.12" y="-30.98" font-family="Times New Roman,serif" font-size="12.00">Packaging Design</text>
</g>
<!-- 1990977081456 -->
<g id="node34" class="node">
<title>1990977081456</title>
<ellipse fill="white" stroke="black" cx="2545.25" cy="-27" rx="27" ry="27"/>
</g>
<!-- 1990980569520&#45;&gt;1990977081456 -->
<g id="edge24" class="edge">
<title>1990980569520&#45;&gt;1990977081456</title>
<path fill="none" stroke="black" d="M2482.61,-31.95C2490.72,-31.3 2498.98,-30.63 2506.71,-30.01"/>
<polygon fill="black" stroke="black" points="2506.76,-33.52 2516.45,-29.23 2506.2,-26.54 2506.76,-33.52"/>
</g>
<!-- 1990977082416 -->
<g id="node13" class="node">
<title>1990977082416</title>
<polygon fill="white" stroke="black" points="2699.25,-45 2608.25,-45 2608.25,-9 2699.25,-9 2699.25,-45"/>
<text text-anchor="middle" x="2653.75" y="-21.98" font-family="Times New Roman,serif" font-size="12.00">Label Approval</text>
</g>
<!-- 1990980580608 -->
<g id="node35" class="node">
<title>1990980580608</title>
<ellipse fill="white" stroke="black" cx="2762.25" cy="-31" rx="27" ry="27"/>
</g>
<!-- 1990977082416&#45;&gt;1990980580608 -->
<g id="edge26" class="edge">
<title>1990977082416&#45;&gt;1990980580608</title>
<path fill="none" stroke="black" d="M2699.61,-28.68C2707.61,-28.99 2715.87,-29.3 2723.65,-29.59"/>
<polygon fill="black" stroke="black" points="2723.34,-33.08 2733.46,-29.96 2723.6,-26.08 2723.34,-33.08"/>
</g>
<!-- 1990977078672 -->
<g id="node14" class="node">
<title>1990977078672</title>
<polygon fill="black" stroke="black" points="2894.75,-49 2840.75,-49 2840.75,-13 2894.75,-13 2894.75,-49"/>
</g>
<!-- 1990977080928 -->
<g id="node36" class="node">
<title>1990977080928</title>
<ellipse fill="white" stroke="black" cx="2973.25" cy="-31" rx="27" ry="27"/>
</g>
<!-- 1990977078672&#45;&gt;1990977080928 -->
<g id="edge30" class="edge">
<title>1990977078672&#45;&gt;1990977080928</title>
<path fill="none" stroke="black" d="M2895.14,-31C2907.06,-31 2921.37,-31 2934.4,-31"/>
<polygon fill="black" stroke="black" points="2934.4,-34.5 2944.4,-31 2934.4,-27.5 2934.4,-34.5"/>
</g>
<!-- 1990977086832 -->
<g id="node15" class="node">
<title>1990977086832</title>
<polygon fill="white" stroke="black" points="2910.25,-104 2825.25,-104 2825.25,-68 2910.25,-68 2910.25,-104"/>
<text text-anchor="middle" x="2867.75" y="-80.97" font-family="Times New Roman,serif" font-size="12.00">Flavor Tasting</text>
</g>
<!-- 1990977086832&#45;&gt;1990980573120 -->
<g id="edge29" class="edge">
<title>1990977086832&#45;&gt;1990980573120</title>
<path fill="none" stroke="black" d="M2824.92,-87.25C2782.16,-88.43 2713.83,-90 2654.75,-90 2544.25,-90 2544.25,-90 2544.25,-90 2477.44,-90 2400,-80.81 2355.24,-74.59"/>
<polygon fill="black" stroke="black" points="2355.95,-71.15 2345.55,-73.21 2354.96,-78.08 2355.95,-71.15"/>
</g>
<!-- 1990977079152 -->
<g id="node16" class="node">
<title>1990977079152</title>
<polygon fill="white" stroke="black" points="3111.5,-49 3036.25,-49 3036.25,-13 3111.5,-13 3111.5,-49"/>
<text text-anchor="middle" x="3073.88" y="-25.98" font-family="Times New Roman,serif" font-size="12.00">Order Fulfill</text>
</g>
<!-- 1990976048928 -->
<g id="node37" class="node">
<title>1990976048928</title>
<ellipse fill="white" stroke="black" cx="3174.5" cy="-31" rx="27" ry="27"/>
</g>
<!-- 1990977079152&#45;&gt;1990976048928 -->
<g id="edge32" class="edge">
<title>1990977079152&#45;&gt;1990976048928</title>
<path fill="none" stroke="black" d="M3111.88,-31C3119.65,-31 3127.85,-31 3135.65,-31"/>
<polygon fill="black" stroke="black" points="3135.55,-34.5 3145.55,-31 3135.55,-27.5 3135.55,-34.5"/>
</g>
<!-- 1990976046432 -->
<g id="node17" class="node">
<title>1990976046432</title>
<polygon fill="white" stroke="black" points="3327,-50 3237.5,-50 3237.5,-14 3327,-14 3327,-50"/>
<text text-anchor="middle" x="3282.25" y="-26.98" font-family="Times New Roman,serif" font-size="12.00">Retail Shipping</text>
</g>
<!-- 1990977085152 -->
<g id="node38" class="node">
<title>1990977085152</title>
<ellipse fill="white" stroke="black" cx="3390" cy="-32" rx="27" ry="27"/>
</g>
<!-- 1990976046432&#45;&gt;1990977085152 -->
<g id="edge34" class="edge">
<title>1990976046432&#45;&gt;1990977085152</title>
<path fill="none" stroke="black" d="M3327.48,-32C3335.45,-32 3343.69,-32 3351.45,-32"/>
<polygon fill="black" stroke="black" points="3351.24,-35.5 3361.24,-32 3351.24,-28.5 3351.24,-35.5"/>
</g>
<!-- 1990976049888 -->
<g id="node18" class="node">
<title>1990976049888</title>
<polygon fill="white" stroke="black" points="3544.75,-104 3453,-104 3453,-68 3544.75,-68 3544.75,-104"/>
<text text-anchor="middle" x="3498.88" y="-80.97" font-family="Times New Roman,serif" font-size="12.00">Inventory Audit</text>
</g>
<!-- 1990976049888&#45;&gt;1990977080928 -->
<g id="edge37" class="edge">
<title>1990976049888&#45;&gt;1990977080928</title>
<path fill="none" stroke="black" d="M3452.67,-88.66C3409.25,-90.99 3341.79,-94 3283.25,-94 3173.5,-94 3173.5,-94 3173.5,-94 3112.81,-94 3046.36,-67.1 3007.59,-48.46"/>
<polygon fill="black" stroke="black" points="3009.29,-45.39 2998.78,-44.12 3006.2,-51.67 3009.29,-45.39"/>
</g>
<!-- 1990976045808 -->
<g id="node19" class="node">
<title>1990976045808</title>
<polygon fill="black" stroke="black" points="3525.88,-50 3471.88,-50 3471.88,-14 3525.88,-14 3525.88,-50"/>
</g>
<!-- 1990981728400 -->
<g id="node39" class="node">
<title>1990981728400</title>
<ellipse fill="white" stroke="black" cx="3607.75" cy="-55" rx="27" ry="27"/>
</g>
<!-- 1990976045808&#45;&gt;1990981728400 -->
<g id="edge38" class="edge">
<title>1990976045808&#45;&gt;1990981728400</title>
<path fill="none" stroke="black" d="M3526.29,-37.69C3539.46,-40.52 3555.6,-43.99 3569.96,-47.08"/>
<polygon fill="black" stroke="black" points="3569.01,-50.46 3579.52,-49.14 3570.48,-43.62 3569.01,-50.46"/>
</g>
<!-- 1990981082608 -->
<g id="node20" class="node">
<title>1990981082608</title>
<polygon fill="black" stroke="black" points="3724.75,-73 3670.75,-73 3670.75,-37 3724.75,-37 3724.75,-73"/>
</g>
<!-- 1990980637216 -->
<g id="node40" class="node">
<title>1990980637216</title>
<ellipse fill="white" stroke="black" cx="3791.75" cy="-55" rx="27" ry="27"/>
<ellipse fill="none" stroke="black" cx="3791.75" cy="-55" rx="31" ry="31"/>
<text text-anchor="start" x="3775.25" y="-39.6" font-family="Times New Roman,serif" font-size="32.00">■</text>
</g>
<!-- 1990981082608&#45;&gt;1990980637216 -->
<g id="edge42" class="edge">
<title>1990981082608&#45;&gt;1990980637216</title>
<path fill="none" stroke="black" d="M3724.87,-55C3732.38,-55 3740.76,-55 3748.97,-55"/>
<polygon fill="black" stroke="black" points="3748.83,-58.5 3758.83,-55 3748.83,-51.5 3748.83,-58.5"/>
</g>
<!-- 1990981480624 -->
<g id="node21" class="node">
<title>1990981480624</title>
<polygon fill="black" stroke="black" points="3724.75,-127 3670.75,-127 3670.75,-91 3724.75,-91 3724.75,-127"/>
</g>
<!-- 1990981480624&#45;&gt;1990981717072 -->
<g id="edge41" class="edge">
<title>1990981480624&#45;&gt;1990981717072</title>
<path fill="none" stroke="black" d="M3670.43,-114.05C3632.78,-120.82 3561.3,-132 3499.88,-132 419.25,-132 419.25,-132 419.25,-132 358.17,-132 287.48,-124.85 245.32,-119.83"/>
<polygon fill="black" stroke="black" points="245.82,-116.36 235.47,-118.62 244.97,-123.31 245.82,-116.36"/>
</g>
<!-- 1990980647056 -->
<g id="node22" class="node">
<title>1990980647056</title>
<ellipse fill="white" stroke="black" cx="27" cy="-115" rx="27" ry="27"/>
<text text-anchor="start" x="9.75" y="-97.7" font-family="Times New Roman,serif" font-size="34.00">●</text>
</g>
<!-- 1990980647056&#45;&gt;1990980954080 -->
<g id="edge1" class="edge">
<title>1990980647056&#45;&gt;1990980954080</title>
<path fill="none" stroke="black" d="M54.4,-115C61.89,-115 70.18,-115 78.2,-115"/>
<polygon fill="black" stroke="black" points="78.1,-118.5 88.1,-115 78.1,-111.5 78.1,-118.5"/>
</g>
<!-- 1990981717072&#45;&gt;1990981716256 -->
<g id="edge3" class="edge">
<title>1990981717072&#45;&gt;1990981716256</title>
<path fill="none" stroke="black" d="M233.33,-107.5C241.07,-105.2 249.89,-102.59 258.77,-99.96"/>
<polygon fill="black" stroke="black" points="259.53,-103.38 268.12,-97.19 257.54,-96.67 259.53,-103.38"/>
</g>
<!-- 1990981724224&#45;&gt;1990981722112 -->
<g id="edge5" class="edge">
<title>1990981724224&#45;&gt;1990981722112</title>
<path fill="none" stroke="black" d="M447.54,-74.98C454.92,-74.69 463.23,-74.37 471.57,-74.05"/>
<polygon fill="black" stroke="black" points="471.53,-77.55 481.39,-73.67 471.26,-70.56 471.53,-77.55"/>
</g>
<!-- 1990976305296&#45;&gt;1990976292288 -->
<g id="edge7" class="edge">
<title>1990976305296&#45;&gt;1990976292288</title>
<path fill="none" stroke="black" d="M657.91,-69.75C665.23,-69.68 673.46,-69.6 681.78,-69.52"/>
<polygon fill="black" stroke="black" points="681.61,-73.03 691.58,-69.43 681.54,-66.03 681.61,-73.03"/>
</g>
<!-- 1990971917376&#45;&gt;1990971926736 -->
<g id="edge9" class="edge">
<title>1990971917376&#45;&gt;1990971926736</title>
<path fill="none" stroke="black" d="M873.41,-69C880.73,-69 888.96,-69 897.28,-69"/>
<polygon fill="black" stroke="black" points="897.08,-72.5 907.08,-69 897.08,-65.5 897.08,-72.5"/>
</g>
<!-- 1990971922752&#45;&gt;1990971927504 -->
<g id="edge11" class="edge">
<title>1990971922752&#45;&gt;1990971927504</title>
<path fill="none" stroke="black" d="M1088.89,-69C1096.3,-69 1104.63,-69 1113.01,-69"/>
<polygon fill="black" stroke="black" points="1112.86,-72.5 1122.86,-69 1112.86,-65.5 1112.86,-72.5"/>
</g>
<!-- 1990971932208&#45;&gt;1990979853616 -->
<g id="edge13" class="edge">
<title>1990971932208&#45;&gt;1990979853616</title>
<path fill="none" stroke="black" d="M1299.99,-69C1307.37,-69 1315.63,-69 1323.84,-69"/>
<polygon fill="black" stroke="black" points="1323.8,-72.5 1333.8,-69 1323.8,-65.5 1323.8,-72.5"/>
</g>
<!-- 1990979854000&#45;&gt;1990979848768 -->
<g id="edge15" class="edge">
<title>1990979854000&#45;&gt;1990979848768</title>
<path fill="none" stroke="black" d="M1499.56,-69C1506.88,-69 1515.09,-69 1523.3,-69"/>
<polygon fill="black" stroke="black" points="1523.3,-72.5 1533.3,-69 1523.3,-65.5 1523.3,-72.5"/>
</g>
<!-- 1990979847088&#45;&gt;1990978190848 -->
<g id="edge17" class="edge">
<title>1990979847088&#45;&gt;1990978190848</title>
<path fill="none" stroke="black" d="M1703.91,-69C1711.23,-69 1719.46,-69 1727.78,-69"/>
<polygon fill="black" stroke="black" points="1727.58,-72.5 1737.58,-69 1727.58,-65.5 1727.58,-72.5"/>
</g>
<!-- 1990979538144&#45;&gt;1990979546544 -->
<g id="edge19" class="edge">
<title>1990979538144&#45;&gt;1990979546544</title>
<path fill="none" stroke="black" d="M1919.5,-69C1926.85,-69 1935.11,-69 1943.44,-69"/>
<polygon fill="black" stroke="black" points="1943.25,-72.5 1953.25,-69 1943.25,-65.5 1943.25,-72.5"/>
</g>
<!-- 1990979540112&#45;&gt;1990979549712 -->
<g id="edge21" class="edge">
<title>1990979540112&#45;&gt;1990979549712</title>
<path fill="none" stroke="black" d="M2133.39,-69C2140.8,-69 2149.13,-69 2157.51,-69"/>
<polygon fill="black" stroke="black" points="2157.36,-72.5 2167.36,-69 2157.36,-65.5 2157.36,-72.5"/>
</g>
<!-- 1990980573120&#45;&gt;1990980569520 -->
<g id="edge23" class="edge">
<title>1990980573120&#45;&gt;1990980569520</title>
<path fill="none" stroke="black" d="M2343.44,-61.51C2351.07,-59.27 2359.78,-56.7 2368.68,-54.08"/>
<polygon fill="black" stroke="black" points="2369.51,-57.49 2378.11,-51.31 2367.53,-50.77 2369.51,-57.49"/>
</g>
<!-- 1990977081456&#45;&gt;1990977082416 -->
<g id="edge25" class="edge">
<title>1990977081456&#45;&gt;1990977082416</title>
<path fill="none" stroke="black" d="M2572.58,-27C2579.94,-27 2588.25,-27 2596.64,-27"/>
<polygon fill="black" stroke="black" points="2596.56,-30.5 2606.56,-27 2596.56,-23.5 2596.56,-30.5"/>
</g>
<!-- 1990980580608&#45;&gt;1990977078672 -->
<g id="edge27" class="edge">
<title>1990980580608&#45;&gt;1990977078672</title>
<path fill="none" stroke="black" d="M2789.64,-31C2801.56,-31 2815.87,-31 2828.9,-31"/>
<polygon fill="black" stroke="black" points="2828.9,-34.5 2838.9,-31 2828.9,-27.5 2828.9,-34.5"/>
</g>
<!-- 1990980580608&#45;&gt;1990977086832 -->
<g id="edge28" class="edge">
<title>1990980580608&#45;&gt;1990977086832</title>
<path fill="none" stroke="black" d="M2786.74,-43.48C2797.17,-49.03 2809.82,-55.75 2821.95,-62.2"/>
<polygon fill="black" stroke="black" points="2820.15,-65.2 2830.63,-66.8 2823.44,-59.02 2820.15,-65.2"/>
</g>
<!-- 1990977080928&#45;&gt;1990977079152 -->
<g id="edge31" class="edge">
<title>1990977080928&#45;&gt;1990977079152</title>
<path fill="none" stroke="black" d="M3000.68,-31C3008.05,-31 3016.29,-31 3024.5,-31"/>
<polygon fill="black" stroke="black" points="3024.48,-34.5 3034.48,-31 3024.48,-27.5 3024.48,-34.5"/>
</g>
<!-- 1990976048928&#45;&gt;1990976046432 -->
<g id="edge33" class="edge">
<title>1990976048928&#45;&gt;1990976046432</title>
<path fill="none" stroke="black" d="M3201.91,-31.25C3209.23,-31.32 3217.46,-31.4 3225.78,-31.48"/>
<polygon fill="black" stroke="black" points="3225.54,-34.97 3235.58,-31.57 3225.61,-27.97 3225.54,-34.97"/>
</g>
<!-- 1990977085152&#45;&gt;1990976049888 -->
<g id="edge36" class="edge">
<title>1990977085152&#45;&gt;1990976049888</title>
<path fill="none" stroke="black" d="M3414.72,-43.98C3425.59,-49.48 3438.86,-56.18 3451.59,-62.61"/>
<polygon fill="black" stroke="black" points="3449.76,-65.61 3460.27,-67 3452.92,-59.36 3449.76,-65.61"/>
</g>
<!-- 1990977085152&#45;&gt;1990976045808 -->
<g id="edge35" class="edge">
<title>1990977085152&#45;&gt;1990976045808</title>
<path fill="none" stroke="black" d="M3417.42,-32C3430.26,-32 3445.94,-32 3460.03,-32"/>
<polygon fill="black" stroke="black" points="3459.88,-35.5 3469.88,-32 3459.88,-28.5 3459.88,-35.5"/>
</g>
<!-- 1990981728400&#45;&gt;1990981082608 -->
<g id="edge39" class="edge">
<title>1990981728400&#45;&gt;1990981082608</title>
<path fill="none" stroke="black" d="M3635.15,-55C3642.64,-55 3650.93,-55 3658.95,-55"/>
<polygon fill="black" stroke="black" points="3658.85,-58.5 3668.85,-55 3658.85,-51.5 3658.85,-58.5"/>
</g>
<!-- 1990981728400&#45;&gt;1990981480624 -->
<g id="edge40" class="edge">
<title>1990981728400&#45;&gt;1990981480624</title>
<path fill="none" stroke="black" d="M3631.41,-68.91C3640.35,-74.39 3650.84,-80.83 3660.76,-86.92"/>
<polygon fill="black" stroke="black" points="3658.78,-89.8 3669.13,-92.05 3662.44,-83.84 3658.78,-89.8"/>
</g>
</g>
</svg>
