<?xml version="1.0" encoding="UTF-8" standalone="no"?>
<!DOCTYPE svg PUBLIC "-//W3C//DTD SVG 1.1//EN"
 "http://www.w3.org/Graphics/SVG/1.1/DTD/svg11.dtd">
<!-- Generated by graphviz version 11.0.0 (20240428.1522)
 -->
<!-- Title: imdf_net_1754052869.1827402 Pages: 1 -->
<svg width="2968pt" height="278pt"
 viewBox="0.00 0.00 2967.50 278.00" xmlns="http://www.w3.org/2000/svg" xmlns:xlink="http://www.w3.org/1999/xlink">
<g id="graph0" class="graph" transform="scale(1 1) rotate(0) translate(4 274)">
<title>imdf_net_1754052869.1827402</title>
<polygon fill="white" stroke="none" points="-4,4 -4,-274 2963.5,-274 2963.5,4 -4,4"/>
<!-- 1990976666656 -->
<g id="node1" class="node">
<title>1990976666656</title>
<polygon fill="white" stroke="black" points="175,-153 90,-153 90,-117 175,-117 175,-153"/>
<text text-anchor="middle" x="132.5" y="-129.97" font-family="Times New Roman,serif" font-size="12.00">Milk Selection</text>
</g>
<!-- 1990976654128 -->
<g id="node17" class="node">
<title>1990976654128</title>
<ellipse fill="white" stroke="black" cx="238" cy="-135" rx="27" ry="27"/>
</g>
<!-- 1990976666656&#45;&gt;1990976654128 -->
<g id="edge2" class="edge">
<title>1990976666656&#45;&gt;1990976654128</title>
<path fill="none" stroke="black" d="M175.3,-135C183.2,-135 191.42,-135 199.18,-135"/>
<polygon fill="black" stroke="black" points="199.01,-138.5 209.01,-135 199.01,-131.5 199.01,-138.5"/>
</g>
<!-- 1990976656384 -->
<g id="node2" class="node">
<title>1990976656384</title>
<polygon fill="white" stroke="black" points="390.5,-153 301,-153 301,-117 390.5,-117 390.5,-153"/>
<text text-anchor="middle" x="345.75" y="-129.97" font-family="Times New Roman,serif" font-size="12.00">Quality Testing</text>
</g>
<!-- 1990977850064 -->
<g id="node18" class="node">
<title>1990977850064</title>
<ellipse fill="white" stroke="black" cx="453.5" cy="-135" rx="27" ry="27"/>
</g>
<!-- 1990976656384&#45;&gt;1990977850064 -->
<g id="edge4" class="edge">
<title>1990976656384&#45;&gt;1990977850064</title>
<path fill="none" stroke="black" d="M390.98,-135C398.95,-135 407.19,-135 414.95,-135"/>
<polygon fill="black" stroke="black" points="414.74,-138.5 424.74,-135 414.74,-131.5 414.74,-138.5"/>
</g>
<!-- 1990977862448 -->
<g id="node3" class="node">
<title>1990977862448</title>
<polygon fill="white" stroke="black" points="606,-153 516.5,-153 516.5,-117 606,-117 606,-153"/>
<text text-anchor="middle" x="561.25" y="-129.97" font-family="Times New Roman,serif" font-size="12.00">Milk Pasteurize</text>
</g>
<!-- 1990977850112 -->
<g id="node19" class="node">
<title>1990977850112</title>
<ellipse fill="white" stroke="black" cx="669" cy="-135" rx="27" ry="27"/>
</g>
<!-- 1990977862448&#45;&gt;1990977850112 -->
<g id="edge6" class="edge">
<title>1990977862448&#45;&gt;1990977850112</title>
<path fill="none" stroke="black" d="M606.48,-135C614.45,-135 622.69,-135 630.45,-135"/>
<polygon fill="black" stroke="black" points="630.24,-138.5 640.24,-135 630.24,-131.5 630.24,-138.5"/>
</g>
<!-- 1990980239680 -->
<g id="node4" class="node">
<title>1990980239680</title>
<polygon fill="white" stroke="black" points="824.5,-153 732,-153 732,-117 824.5,-117 824.5,-153"/>
<text text-anchor="middle" x="778.25" y="-129.97" font-family="Times New Roman,serif" font-size="12.00">Cheese Crafting</text>
</g>
<!-- 1990980244096 -->
<g id="node20" class="node">
<title>1990980244096</title>
<ellipse fill="white" stroke="black" cx="887.5" cy="-135" rx="27" ry="27"/>
</g>
<!-- 1990980239680&#45;&gt;1990980244096 -->
<g id="edge8" class="edge">
<title>1990980239680&#45;&gt;1990980244096</title>
<path fill="none" stroke="black" d="M824.73,-135C832.77,-135 841.06,-135 848.85,-135"/>
<polygon fill="black" stroke="black" points="848.69,-138.5 858.69,-135 848.69,-131.5 848.69,-138.5"/>
</g>
<!-- 1990980255568 -->
<g id="node5" class="node">
<title>1990980255568</title>
<polygon fill="white" stroke="black" points="1049.75,-153 950.5,-153 950.5,-117 1049.75,-117 1049.75,-153"/>
<text text-anchor="middle" x="1000.12" y="-129.97" font-family="Times New Roman,serif" font-size="12.00">Controlled Aging</text>
</g>
<!-- 1990980254416 -->
<g id="node21" class="node">
<title>1990980254416</title>
<ellipse fill="white" stroke="black" cx="1112.75" cy="-135" rx="27" ry="27"/>
</g>
<!-- 1990980255568&#45;&gt;1990980254416 -->
<g id="edge10" class="edge">
<title>1990980255568&#45;&gt;1990980254416</title>
<path fill="none" stroke="black" d="M1049.97,-135C1058.04,-135 1066.3,-135 1074.04,-135"/>
<polygon fill="black" stroke="black" points="1073.8,-138.5 1083.8,-135 1073.8,-131.5 1073.8,-138.5"/>
</g>
<!-- 1990977403696 -->
<g id="node6" class="node">
<title>1990977403696</title>
<polygon fill="white" stroke="black" points="1269.75,-153 1175.75,-153 1175.75,-117 1269.75,-117 1269.75,-153"/>
<text text-anchor="middle" x="1222.75" y="-129.97" font-family="Times New Roman,serif" font-size="12.00">Sensory Review</text>
</g>
<!-- 1990982532752 -->
<g id="node22" class="node">
<title>1990982532752</title>
<ellipse fill="white" stroke="black" cx="1332.75" cy="-99" rx="27" ry="27"/>
</g>
<!-- 1990977403696&#45;&gt;1990982532752 -->
<g id="edge13" class="edge">
<title>1990977403696&#45;&gt;1990982532752</title>
<path fill="none" stroke="black" d="M1270.18,-119.52C1278.83,-116.64 1287.74,-113.67 1296,-110.92"/>
<polygon fill="black" stroke="black" points="1296.97,-114.28 1305.35,-107.8 1294.76,-107.64 1296.97,-114.28"/>
</g>
<!-- 1990977404896 -->
<g id="node23" class="node">
<title>1990977404896</title>
<ellipse fill="white" stroke="black" cx="1332.75" cy="-171" rx="27" ry="27"/>
</g>
<!-- 1990977403696&#45;&gt;1990977404896 -->
<g id="edge12" class="edge">
<title>1990977403696&#45;&gt;1990977404896</title>
<path fill="none" stroke="black" d="M1270.18,-150.48C1278.83,-153.36 1287.74,-156.33 1296,-159.08"/>
<polygon fill="black" stroke="black" points="1294.76,-162.36 1305.35,-162.2 1296.97,-155.72 1294.76,-162.36"/>
</g>
<!-- 1990982524688 -->
<g id="node7" class="node">
<title>1990982524688</title>
<polygon fill="white" stroke="black" points="1501,-189 1395.75,-189 1395.75,-153 1501,-153 1501,-189"/>
<text text-anchor="middle" x="1448.38" y="-165.97" font-family="Times New Roman,serif" font-size="12.00">Custom Packaging</text>
</g>
<!-- 1990979794944 -->
<g id="node24" class="node">
<title>1990979794944</title>
<ellipse fill="white" stroke="black" cx="1564" cy="-171" rx="27" ry="27"/>
</g>
<!-- 1990982524688&#45;&gt;1990979794944 -->
<g id="edge17" class="edge">
<title>1990982524688&#45;&gt;1990979794944</title>
<path fill="none" stroke="black" d="M1501.2,-171C1509.36,-171 1517.66,-171 1525.42,-171"/>
<polygon fill="black" stroke="black" points="1525.18,-174.5 1535.18,-171 1525.18,-167.5 1525.18,-174.5"/>
</g>
<!-- 1990979787168 -->
<g id="node25" class="node">
<title>1990979787168</title>
<ellipse fill="white" stroke="black" cx="1564" cy="-243" rx="27" ry="27"/>
</g>
<!-- 1990982524688&#45;&gt;1990979787168 -->
<g id="edge19" class="edge">
<title>1990982524688&#45;&gt;1990979787168</title>
<path fill="none" stroke="black" d="M1478.34,-189.35C1494.5,-199.59 1514.65,-212.36 1531.24,-222.88"/>
<polygon fill="black" stroke="black" points="1528.94,-225.56 1539.26,-227.96 1532.69,-219.65 1528.94,-225.56"/>
</g>
<!-- 1990971213728 -->
<g id="node8" class="node">
<title>1990971213728</title>
<polygon fill="white" stroke="black" points="1490.12,-117 1406.62,-117 1406.62,-81 1490.12,-81 1490.12,-117"/>
<text text-anchor="middle" x="1448.38" y="-93.97" font-family="Times New Roman,serif" font-size="12.00">Label Printing</text>
</g>
<!-- 1990979792688 -->
<g id="node26" class="node">
<title>1990979792688</title>
<ellipse fill="white" stroke="black" cx="1564" cy="-27" rx="27" ry="27"/>
</g>
<!-- 1990971213728&#45;&gt;1990979792688 -->
<g id="edge16" class="edge">
<title>1990971213728&#45;&gt;1990979792688</title>
<path fill="none" stroke="black" d="M1478.34,-80.65C1494.5,-70.41 1514.65,-57.64 1531.24,-47.12"/>
<polygon fill="black" stroke="black" points="1532.69,-50.35 1539.26,-42.04 1528.94,-44.44 1532.69,-50.35"/>
</g>
<!-- 1990979781552 -->
<g id="node27" class="node">
<title>1990979781552</title>
<ellipse fill="white" stroke="black" cx="1564" cy="-99" rx="27" ry="27"/>
</g>
<!-- 1990971213728&#45;&gt;1990979781552 -->
<g id="edge18" class="edge">
<title>1990971213728&#45;&gt;1990979781552</title>
<path fill="none" stroke="black" d="M1490.4,-99C1501.81,-99 1514.16,-99 1525.37,-99"/>
<polygon fill="black" stroke="black" points="1525.04,-102.5 1535.04,-99 1525.04,-95.5 1525.04,-102.5"/>
</g>
<!-- 1990971221360 -->
<g id="node9" class="node">
<title>1990971221360</title>
<polygon fill="white" stroke="black" points="1732.62,-117 1634.88,-117 1634.88,-81 1732.62,-81 1732.62,-117"/>
<text text-anchor="middle" x="1683.75" y="-93.97" font-family="Times New Roman,serif" font-size="12.00">Export Licensing</text>
</g>
<!-- 1990979787744 -->
<g id="node29" class="node">
<title>1990979787744</title>
<ellipse fill="white" stroke="black" cx="1803.5" cy="-99" rx="27" ry="27"/>
</g>
<!-- 1990971221360&#45;&gt;1990979787744 -->
<g id="edge24" class="edge">
<title>1990971221360&#45;&gt;1990979787744</title>
<path fill="none" stroke="black" d="M1732.98,-99C1743.57,-99 1754.64,-99 1764.75,-99"/>
<polygon fill="black" stroke="black" points="1764.57,-102.5 1774.57,-99 1764.57,-95.5 1764.57,-102.5"/>
</g>
<!-- 1990971215600 -->
<g id="node10" class="node">
<title>1990971215600</title>
<polygon fill="white" stroke="black" points="1740.5,-189 1627,-189 1627,-153 1740.5,-153 1740.5,-189"/>
<text text-anchor="middle" x="1683.75" y="-165.97" font-family="Times New Roman,serif" font-size="12.00">Documentation Prep</text>
</g>
<!-- 1990979788224 -->
<g id="node28" class="node">
<title>1990979788224</title>
<ellipse fill="white" stroke="black" cx="1803.5" cy="-171" rx="27" ry="27"/>
</g>
<!-- 1990971215600&#45;&gt;1990979788224 -->
<g id="edge25" class="edge">
<title>1990971215600&#45;&gt;1990979788224</title>
<path fill="none" stroke="black" d="M1740.87,-171C1748.95,-171 1757.11,-171 1764.72,-171"/>
<polygon fill="black" stroke="black" points="1764.63,-174.5 1774.63,-171 1764.63,-167.5 1764.63,-174.5"/>
</g>
<!-- 1990971227600 -->
<g id="node11" class="node">
<title>1990971227600</title>
<polygon fill="white" stroke="black" points="1974,-153 1866.5,-153 1866.5,-117 1974,-117 1974,-153"/>
<text text-anchor="middle" x="1920.25" y="-129.97" font-family="Times New Roman,serif" font-size="12.00">Customs Clearance</text>
</g>
<!-- 1990971226496 -->
<g id="node30" class="node">
<title>1990971226496</title>
<ellipse fill="white" stroke="black" cx="2037" cy="-135" rx="27" ry="27"/>
</g>
<!-- 1990971227600&#45;&gt;1990971226496 -->
<g id="edge28" class="edge">
<title>1990971227600&#45;&gt;1990971226496</title>
<path fill="none" stroke="black" d="M1974.26,-135C1982.45,-135 1990.76,-135 1998.51,-135"/>
<polygon fill="black" stroke="black" points="1998.26,-138.5 2008.26,-135 1998.26,-131.5 1998.26,-138.5"/>
</g>
<!-- 1990971214640 -->
<g id="node12" class="node">
<title>1990971214640</title>
<polygon fill="white" stroke="black" points="2185,-153 2100,-153 2100,-117 2185,-117 2185,-153"/>
<text text-anchor="middle" x="2142.5" y="-129.97" font-family="Times New Roman,serif" font-size="12.00">Cold Shipping</text>
</g>
<!-- 1990971226880 -->
<g id="node31" class="node">
<title>1990971226880</title>
<ellipse fill="white" stroke="black" cx="2248" cy="-135" rx="27" ry="27"/>
</g>
<!-- 1990971214640&#45;&gt;1990971226880 -->
<g id="edge30" class="edge">
<title>1990971214640&#45;&gt;1990971226880</title>
<path fill="none" stroke="black" d="M2185.3,-135C2193.2,-135 2201.42,-135 2209.18,-135"/>
<polygon fill="black" stroke="black" points="2209.01,-138.5 2219.01,-135 2209.01,-131.5 2209.01,-138.5"/>
</g>
<!-- 1990971226400 -->
<g id="node13" class="node">
<title>1990971226400</title>
<polygon fill="white" stroke="black" points="2414,-153 2311,-153 2311,-117 2414,-117 2414,-153"/>
<text text-anchor="middle" x="2362.5" y="-129.97" font-family="Times New Roman,serif" font-size="12.00">Delivery Tracking</text>
</g>
<!-- 1990971223472 -->
<g id="node32" class="node">
<title>1990971223472</title>
<ellipse fill="white" stroke="black" cx="2477" cy="-135" rx="27" ry="27"/>
</g>
<!-- 1990971226400&#45;&gt;1990971223472 -->
<g id="edge32" class="edge">
<title>1990971226400&#45;&gt;1990971223472</title>
<path fill="none" stroke="black" d="M2414.48,-135C2422.5,-135 2430.65,-135 2438.29,-135"/>
<polygon fill="black" stroke="black" points="2438.27,-138.5 2448.27,-135 2438.27,-131.5 2438.27,-138.5"/>
</g>
<!-- 1990971218048 -->
<g id="node14" class="node">
<title>1990971218048</title>
<polygon fill="white" stroke="black" points="2641.5,-153 2540,-153 2540,-117 2641.5,-117 2641.5,-153"/>
<text text-anchor="middle" x="2590.75" y="-129.97" font-family="Times New Roman,serif" font-size="12.00">Feedback Review</text>
</g>
<!-- 1990971212864 -->
<g id="node33" class="node">
<title>1990971212864</title>
<ellipse fill="white" stroke="black" cx="2704.5" cy="-135" rx="27" ry="27"/>
</g>
<!-- 1990971218048&#45;&gt;1990971212864 -->
<g id="edge34" class="edge">
<title>1990971218048&#45;&gt;1990971212864</title>
<path fill="none" stroke="black" d="M2641.74,-135C2649.85,-135 2658.12,-135 2665.86,-135"/>
<polygon fill="black" stroke="black" points="2665.61,-138.5 2675.61,-135 2665.61,-131.5 2665.61,-138.5"/>
</g>
<!-- 1990979786544 -->
<g id="node15" class="node">
<title>1990979786544</title>
<polygon fill="white" stroke="black" points="2861.5,-153 2767.5,-153 2767.5,-117 2861.5,-117 2861.5,-153"/>
<text text-anchor="middle" x="2814.5" y="-129.97" font-family="Times New Roman,serif" font-size="12.00">Market Analysis</text>
</g>
<!-- 1990978394576 -->
<g id="node34" class="node">
<title>1990978394576</title>
<ellipse fill="white" stroke="black" cx="2928.5" cy="-135" rx="27" ry="27"/>
<ellipse fill="none" stroke="black" cx="2928.5" cy="-135" rx="31" ry="31"/>
<text text-anchor="start" x="2912" y="-119.6" font-family="Times New Roman,serif" font-size="32.00">■</text>
</g>
<!-- 1990979786544&#45;&gt;1990978394576 -->
<g id="edge36" class="edge">
<title>1990979786544&#45;&gt;1990978394576</title>
<path fill="none" stroke="black" d="M2861.7,-135C2869.62,-135 2877.82,-135 2885.62,-135"/>
<polygon fill="black" stroke="black" points="2885.56,-138.5 2895.56,-135 2885.56,-131.5 2885.56,-138.5"/>
</g>
<!-- 1990978402400 -->
<g id="node16" class="node">
<title>1990978402400</title>
<ellipse fill="white" stroke="black" cx="27" cy="-135" rx="27" ry="27"/>
<text text-anchor="start" x="9.75" y="-117.7" font-family="Times New Roman,serif" font-size="34.00">●</text>
</g>
<!-- 1990978402400&#45;&gt;1990976666656 -->
<g id="edge1" class="edge">
<title>1990978402400&#45;&gt;1990976666656</title>
<path fill="none" stroke="black" d="M54.39,-135C61.8,-135 70.13,-135 78.51,-135"/>
<polygon fill="black" stroke="black" points="78.36,-138.5 88.36,-135 78.36,-131.5 78.36,-138.5"/>
</g>
<!-- 1990976654128&#45;&gt;1990976656384 -->
<g id="edge3" class="edge">
<title>1990976654128&#45;&gt;1990976656384</title>
<path fill="none" stroke="black" d="M265.41,-135C272.73,-135 280.96,-135 289.28,-135"/>
<polygon fill="black" stroke="black" points="289.08,-138.5 299.08,-135 289.08,-131.5 289.08,-138.5"/>
</g>
<!-- 1990977850064&#45;&gt;1990977862448 -->
<g id="edge5" class="edge">
<title>1990977850064&#45;&gt;1990977862448</title>
<path fill="none" stroke="black" d="M480.91,-135C488.23,-135 496.46,-135 504.78,-135"/>
<polygon fill="black" stroke="black" points="504.58,-138.5 514.58,-135 504.58,-131.5 504.58,-138.5"/>
</g>
<!-- 1990977850112&#45;&gt;1990980239680 -->
<g id="edge7" class="edge">
<title>1990977850112&#45;&gt;1990980239680</title>
<path fill="none" stroke="black" d="M696.24,-135C703.57,-135 711.84,-135 720.22,-135"/>
<polygon fill="black" stroke="black" points="720.12,-138.5 730.12,-135 720.12,-131.5 720.12,-138.5"/>
</g>
<!-- 1990980244096&#45;&gt;1990980255568 -->
<g id="edge9" class="edge">
<title>1990980244096&#45;&gt;1990980255568</title>
<path fill="none" stroke="black" d="M915,-135C922.29,-135 930.52,-135 938.89,-135"/>
<polygon fill="black" stroke="black" points="938.82,-138.5 948.82,-135 938.82,-131.5 938.82,-138.5"/>
</g>
<!-- 1990980254416&#45;&gt;1990977403696 -->
<g id="edge11" class="edge">
<title>1990980254416&#45;&gt;1990977403696</title>
<path fill="none" stroke="black" d="M1140.17,-135C1147.47,-135 1155.69,-135 1164.02,-135"/>
<polygon fill="black" stroke="black" points="1163.88,-138.5 1173.88,-135 1163.88,-131.5 1163.88,-138.5"/>
</g>
<!-- 1990982532752&#45;&gt;1990971213728 -->
<g id="edge14" class="edge">
<title>1990982532752&#45;&gt;1990971213728</title>
<path fill="none" stroke="black" d="M1360.1,-99C1370.54,-99 1382.92,-99 1395.02,-99"/>
<polygon fill="black" stroke="black" points="1394.96,-102.5 1404.96,-99 1394.96,-95.5 1394.96,-102.5"/>
</g>
<!-- 1990977404896&#45;&gt;1990982524688 -->
<g id="edge15" class="edge">
<title>1990977404896&#45;&gt;1990982524688</title>
<path fill="none" stroke="black" d="M1360.1,-171C1367.49,-171 1375.85,-171 1384.4,-171"/>
<polygon fill="black" stroke="black" points="1384.16,-174.5 1394.16,-171 1384.16,-167.5 1384.16,-174.5"/>
</g>
<!-- 1990979794944&#45;&gt;1990971221360 -->
<g id="edge23" class="edge">
<title>1990979794944&#45;&gt;1990971221360</title>
<path fill="none" stroke="black" d="M1587.7,-157.12C1603.34,-147.56 1624.53,-134.6 1642.94,-123.35"/>
<polygon fill="black" stroke="black" points="1644.54,-126.46 1651.25,-118.26 1640.89,-120.49 1644.54,-126.46"/>
</g>
<!-- 1990979787168&#45;&gt;1990971215600 -->
<g id="edge20" class="edge">
<title>1990979787168&#45;&gt;1990971215600</title>
<path fill="none" stroke="black" d="M1587.7,-229.12C1603.34,-219.56 1624.53,-206.6 1642.94,-195.35"/>
<polygon fill="black" stroke="black" points="1644.54,-198.46 1651.25,-190.26 1640.89,-192.49 1644.54,-198.46"/>
</g>
<!-- 1990979792688&#45;&gt;1990971221360 -->
<g id="edge22" class="edge">
<title>1990979792688&#45;&gt;1990971221360</title>
<path fill="none" stroke="black" d="M1587.7,-40.88C1603.34,-50.44 1624.53,-63.4 1642.94,-74.65"/>
<polygon fill="black" stroke="black" points="1640.89,-77.51 1651.25,-79.74 1644.54,-71.54 1640.89,-77.51"/>
</g>
<!-- 1990979781552&#45;&gt;1990971215600 -->
<g id="edge21" class="edge">
<title>1990979781552&#45;&gt;1990971215600</title>
<path fill="none" stroke="black" d="M1587.7,-112.88C1603.34,-122.44 1624.53,-135.4 1642.94,-146.65"/>
<polygon fill="black" stroke="black" points="1640.89,-149.51 1651.25,-151.74 1644.54,-143.54 1640.89,-149.51"/>
</g>
<!-- 1990979788224&#45;&gt;1990971227600 -->
<g id="edge27" class="edge">
<title>1990979788224&#45;&gt;1990971227600</title>
<path fill="none" stroke="black" d="M1829.68,-163.1C1837.46,-160.66 1846.4,-157.85 1855.56,-154.98"/>
<polygon fill="black" stroke="black" points="1856.42,-158.38 1864.92,-152.05 1854.33,-151.7 1856.42,-158.38"/>
</g>
<!-- 1990979787744&#45;&gt;1990971227600 -->
<g id="edge26" class="edge">
<title>1990979787744&#45;&gt;1990971227600</title>
<path fill="none" stroke="black" d="M1829.68,-106.9C1837.46,-109.34 1846.4,-112.15 1855.56,-115.02"/>
<polygon fill="black" stroke="black" points="1854.33,-118.3 1864.92,-117.95 1856.42,-111.62 1854.33,-118.3"/>
</g>
<!-- 1990971226496&#45;&gt;1990971214640 -->
<g id="edge29" class="edge">
<title>1990971226496&#45;&gt;1990971214640</title>
<path fill="none" stroke="black" d="M2064.39,-135C2071.8,-135 2080.13,-135 2088.51,-135"/>
<polygon fill="black" stroke="black" points="2088.36,-138.5 2098.36,-135 2088.36,-131.5 2088.36,-138.5"/>
</g>
<!-- 1990971226880&#45;&gt;1990971226400 -->
<g id="edge31" class="edge">
<title>1990971226880&#45;&gt;1990971226400</title>
<path fill="none" stroke="black" d="M2275.38,-135C2282.61,-135 2290.77,-135 2299.11,-135"/>
<polygon fill="black" stroke="black" points="2299.02,-138.5 2309.02,-135 2299.02,-131.5 2299.02,-138.5"/>
</g>
<!-- 1990971223472&#45;&gt;1990971218048 -->
<g id="edge33" class="edge">
<title>1990971223472&#45;&gt;1990971218048</title>
<path fill="none" stroke="black" d="M2504.48,-135C2511.76,-135 2519.97,-135 2528.34,-135"/>
<polygon fill="black" stroke="black" points="2528.28,-138.5 2538.28,-135 2528.28,-131.5 2528.28,-138.5"/>
</g>
<!-- 1990971212864&#45;&gt;1990979786544 -->
<g id="edge35" class="edge">
<title>1990971212864&#45;&gt;1990979786544</title>
<path fill="none" stroke="black" d="M2731.92,-135C2739.22,-135 2747.44,-135 2755.77,-135"/>
<polygon fill="black" stroke="black" points="2755.63,-138.5 2765.63,-135 2755.63,-131.5 2755.63,-138.5"/>
</g>
</g>
</svg>
