<?xml version="1.0" encoding="UTF-8" standalone="no"?>
<!DOCTYPE svg PUBLIC "-//W3C//DTD SVG 1.1//EN"
 "http://www.w3.org/Graphics/SVG/1.1/DTD/svg11.dtd">
<!-- Generated by graphviz version 11.0.0 (20240428.1522)
 -->
<!-- Title: imdf_net_1754052868.3424282 Pages: 1 -->
<svg width="2090pt" height="420pt"
 viewBox="0.00 0.00 2089.50 420.00" xmlns="http://www.w3.org/2000/svg" xmlns:xlink="http://www.w3.org/1999/xlink">
<g id="graph0" class="graph" transform="scale(1 1) rotate(0) translate(4 416)">
<title>imdf_net_1754052868.3424282</title>
<polygon fill="white" stroke="none" points="-4,4 -4,-416 2085.5,-416 2085.5,4 -4,4"/>
<!-- 1990980944144 -->
<g id="node1" class="node">
<title>1990980944144</title>
<polygon fill="black" stroke="black" points="144,-199 90,-199 90,-163 144,-163 144,-199"/>
</g>
<!-- 1990982521520 -->
<g id="node19" class="node">
<title>1990982521520</title>
<ellipse fill="white" stroke="black" cx="207" cy="-217" rx="27" ry="27"/>
</g>
<!-- 1990980944144&#45;&gt;1990982521520 -->
<g id="edge3" class="edge">
<title>1990980944144&#45;&gt;1990982521520</title>
<path fill="none" stroke="black" d="M144.4,-191.8C152.75,-195.22 162.12,-199.05 170.97,-202.67"/>
<polygon fill="black" stroke="black" points="169.44,-205.83 180.02,-206.37 172.09,-199.35 169.44,-205.83"/>
</g>
<!-- 1990982426816 -->
<g id="node20" class="node">
<title>1990982426816</title>
<ellipse fill="white" stroke="black" cx="207" cy="-145" rx="27" ry="27"/>
</g>
<!-- 1990980944144&#45;&gt;1990982426816 -->
<g id="edge2" class="edge">
<title>1990980944144&#45;&gt;1990982426816</title>
<path fill="none" stroke="black" d="M144.4,-170.2C152.75,-166.78 162.12,-162.95 170.97,-159.33"/>
<polygon fill="black" stroke="black" points="172.09,-162.65 180.02,-155.63 169.44,-156.17 172.09,-162.65"/>
</g>
<!-- 1990982521664 -->
<g id="node2" class="node">
<title>1990982521664</title>
<polygon fill="white" stroke="black" points="347.12,-235 276.38,-235 276.38,-199 347.12,-199 347.12,-235"/>
<text text-anchor="middle" x="311.75" y="-211.97" font-family="Times New Roman,serif" font-size="12.00">Site Survey</text>
</g>
<!-- 1990980242176 -->
<g id="node21" class="node">
<title>1990980242176</title>
<ellipse fill="white" stroke="black" cx="416.5" cy="-217" rx="27" ry="27"/>
</g>
<!-- 1990982521664&#45;&gt;1990980242176 -->
<g id="edge9" class="edge">
<title>1990982521664&#45;&gt;1990980242176</title>
<path fill="none" stroke="black" d="M347.54,-217C357.33,-217 368.02,-217 377.97,-217"/>
<polygon fill="black" stroke="black" points="377.68,-220.5 387.68,-217 377.68,-213.5 377.68,-220.5"/>
</g>
<!-- 1990978180816 -->
<g id="node23" class="node">
<title>1990978180816</title>
<ellipse fill="white" stroke="black" cx="416.5" cy="-314" rx="27" ry="27"/>
</g>
<!-- 1990982521664&#45;&gt;1990978180816 -->
<g id="edge8" class="edge">
<title>1990982521664&#45;&gt;1990978180816</title>
<path fill="none" stroke="black" d="M332.08,-235.24C347.86,-250.15 370.37,-271.4 388.03,-288.07"/>
<polygon fill="black" stroke="black" points="385.49,-290.48 395.16,-294.8 390.29,-285.39 385.49,-290.48"/>
</g>
<!-- 1990982431808 -->
<g id="node3" class="node">
<title>1990982431808</title>
<polygon fill="white" stroke="black" points="353.5,-163 270,-163 270,-127 353.5,-127 353.5,-163"/>
<text text-anchor="middle" x="311.75" y="-139.97" font-family="Times New Roman,serif" font-size="12.00">Climate Study</text>
</g>
<!-- 1990978185904 -->
<g id="node22" class="node">
<title>1990978185904</title>
<ellipse fill="white" stroke="black" cx="416.5" cy="-31" rx="27" ry="27"/>
</g>
<!-- 1990982431808&#45;&gt;1990978185904 -->
<g id="edge7" class="edge">
<title>1990982431808&#45;&gt;1990978185904</title>
<path fill="none" stroke="black" d="M329.26,-126.68C345.64,-108.51 370.97,-80.4 389.95,-59.35"/>
<polygon fill="black" stroke="black" points="392.54,-61.7 396.64,-51.93 387.34,-57.01 392.54,-61.7"/>
</g>
<!-- 1990980252496 -->
<g id="node24" class="node">
<title>1990980252496</title>
<ellipse fill="white" stroke="black" cx="416.5" cy="-145" rx="27" ry="27"/>
</g>
<!-- 1990982431808&#45;&gt;1990980252496 -->
<g id="edge6" class="edge">
<title>1990982431808&#45;&gt;1990980252496</title>
<path fill="none" stroke="black" d="M353.95,-145C361.81,-145 370,-145 377.75,-145"/>
<polygon fill="black" stroke="black" points="377.55,-148.5 387.55,-145 377.55,-141.5 377.55,-148.5"/>
</g>
<!-- 1990978176160 -->
<g id="node4" class="node">
<title>1990978176160</title>
<polygon fill="white" stroke="black" points="566.75,-199 479.5,-199 479.5,-163 566.75,-163 566.75,-199"/>
<text text-anchor="middle" x="523.12" y="-175.97" font-family="Times New Roman,serif" font-size="12.00">System Design</text>
</g>
<!-- 1990981085584 -->
<g id="node26" class="node">
<title>1990981085584</title>
<ellipse fill="white" stroke="black" cx="629.75" cy="-181" rx="27" ry="27"/>
</g>
<!-- 1990978176160&#45;&gt;1990981085584 -->
<g id="edge15" class="edge">
<title>1990978176160&#45;&gt;1990981085584</title>
<path fill="none" stroke="black" d="M566.98,-181C574.93,-181 583.17,-181 590.95,-181"/>
<polygon fill="black" stroke="black" points="590.79,-184.5 600.79,-181 590.79,-177.5 590.79,-184.5"/>
</g>
<!-- 1990980239632 -->
<g id="node27" class="node">
<title>1990980239632</title>
<ellipse fill="white" stroke="black" cx="629.75" cy="-108" rx="27" ry="27"/>
</g>
<!-- 1990978176160&#45;&gt;1990980239632 -->
<g id="edge18" class="edge">
<title>1990978176160&#45;&gt;1990980239632</title>
<path fill="none" stroke="black" d="M550.53,-162.58C564.83,-152.6 582.59,-140.21 597.57,-129.76"/>
<polygon fill="black" stroke="black" points="599.5,-132.67 605.7,-124.08 595.5,-126.93 599.5,-132.67"/>
</g>
<!-- 1990981086928 -->
<g id="node29" class="node">
<title>1990981086928</title>
<ellipse fill="white" stroke="black" cx="629.75" cy="-254" rx="27" ry="27"/>
</g>
<!-- 1990978176160&#45;&gt;1990981086928 -->
<g id="edge17" class="edge">
<title>1990978176160&#45;&gt;1990981086928</title>
<path fill="none" stroke="black" d="M550.53,-199.42C564.83,-209.4 582.59,-221.79 597.57,-232.24"/>
<polygon fill="black" stroke="black" points="595.5,-235.07 605.7,-237.92 599.5,-229.33 595.5,-235.07"/>
</g>
<!-- 1990978185376 -->
<g id="node5" class="node">
<title>1990978185376</title>
<polygon fill="white" stroke="black" points="563.38,-383 482.88,-383 482.88,-347 563.38,-347 563.38,-383"/>
<text text-anchor="middle" x="523.12" y="-359.98" font-family="Times New Roman,serif" font-size="12.00">Energy Audit</text>
</g>
<!-- 1990978182208 -->
<g id="node28" class="node">
<title>1990978182208</title>
<ellipse fill="white" stroke="black" cx="1143" cy="-385" rx="27" ry="27"/>
</g>
<!-- 1990978185376&#45;&gt;1990978182208 -->
<g id="edge16" class="edge">
<title>1990978185376&#45;&gt;1990978182208</title>
<path fill="none" stroke="black" d="M563.58,-372.94C605.04,-380.59 672.27,-391 730.88,-391 730.88,-391 730.88,-391 936.75,-391 995.32,-391 1063.24,-388.53 1104.39,-386.76"/>
<polygon fill="black" stroke="black" points="1104.41,-390.26 1114.25,-386.32 1104.11,-383.27 1104.41,-390.26"/>
</g>
<!-- 1990978182592 -->
<g id="node6" class="node">
<title>1990978182592</title>
<polygon fill="white" stroke="black" points="566,-49 480.25,-49 480.25,-13 566,-13 566,-49"/>
<text text-anchor="middle" x="523.12" y="-25.98" font-family="Times New Roman,serif" font-size="12.00">Seed Selection</text>
</g>
<!-- 1990980240640 -->
<g id="node25" class="node">
<title>1990980240640</title>
<ellipse fill="white" stroke="black" cx="629.75" cy="-31" rx="27" ry="27"/>
</g>
<!-- 1990978182592&#45;&gt;1990980240640 -->
<g id="edge14" class="edge">
<title>1990978182592&#45;&gt;1990980240640</title>
<path fill="none" stroke="black" d="M566.38,-31C574.53,-31 583.03,-31 591.02,-31"/>
<polygon fill="black" stroke="black" points="590.78,-34.5 600.78,-31 590.78,-27.5 590.78,-34.5"/>
</g>
<!-- 1990980245152 -->
<g id="node7" class="node">
<title>1990980245152</title>
<polygon fill="white" stroke="black" points="769.12,-110 694.62,-110 694.62,-74 769.12,-74 769.12,-110"/>
<text text-anchor="middle" x="731.88" y="-86.97" font-family="Times New Roman,serif" font-size="12.00">Pest Control</text>
</g>
<!-- 1990971220688 -->
<g id="node33" class="node">
<title>1990971220688</title>
<ellipse fill="white" stroke="black" cx="935.75" cy="-67" rx="27" ry="27"/>
</g>
<!-- 1990980245152&#45;&gt;1990971220688 -->
<g id="edge26" class="edge">
<title>1990980245152&#45;&gt;1990971220688</title>
<path fill="none" stroke="black" d="M769.29,-83.71C781.25,-81.24 794.65,-78.73 807,-77 837.24,-72.77 871.78,-70.2 897.31,-68.73"/>
<polygon fill="black" stroke="black" points="897.41,-72.23 907.2,-68.19 897.03,-65.24 897.41,-72.23"/>
</g>
<!-- 1990980250432 -->
<g id="node8" class="node">
<title>1990980250432</title>
<polygon fill="white" stroke="black" points="771,-199 692.75,-199 692.75,-163 771,-163 771,-199"/>
<text text-anchor="middle" x="731.88" y="-175.97" font-family="Times New Roman,serif" font-size="12.00">Sensor Setup</text>
</g>
<!-- 1990971222224 -->
<g id="node32" class="node">
<title>1990971222224</title>
<ellipse fill="white" stroke="black" cx="834" cy="-184" rx="27" ry="27"/>
</g>
<!-- 1990980250432&#45;&gt;1990971222224 -->
<g id="edge27" class="edge">
<title>1990980250432&#45;&gt;1990971222224</title>
<path fill="none" stroke="black" d="M771.3,-182.15C779.14,-182.39 787.38,-182.63 795.19,-182.87"/>
<polygon fill="black" stroke="black" points="795.01,-186.36 805.11,-183.16 795.22,-179.37 795.01,-186.36"/>
</g>
<!-- 1990971225200 -->
<g id="node35" class="node">
<title>1990971225200</title>
<ellipse fill="white" stroke="black" cx="834" cy="-112" rx="27" ry="27"/>
</g>
<!-- 1990980250432&#45;&gt;1990971225200 -->
<g id="edge24" class="edge">
<title>1990980250432&#45;&gt;1990971225200</title>
<path fill="none" stroke="black" d="M759.71,-162.51C772.66,-153.58 788.29,-142.81 801.78,-133.51"/>
<polygon fill="black" stroke="black" points="803.66,-136.47 809.91,-127.91 799.69,-130.7 803.66,-136.47"/>
</g>
<!-- 1990980254656 -->
<g id="node9" class="node">
<title>1990980254656</title>
<polygon fill="white" stroke="black" points="763.88,-40 699.88,-40 699.88,-4 763.88,-4 763.88,-40"/>
<text text-anchor="middle" x="731.88" y="-16.98" font-family="Times New Roman,serif" font-size="12.00">Crop Plan</text>
</g>
<!-- 1990971212960 -->
<g id="node31" class="node">
<title>1990971212960</title>
<ellipse fill="white" stroke="black" cx="1248.5" cy="-27" rx="27" ry="27"/>
</g>
<!-- 1990980254656&#45;&gt;1990971212960 -->
<g id="edge28" class="edge">
<title>1990980254656&#45;&gt;1990971212960</title>
<path fill="none" stroke="black" d="M764.35,-21.75C804.06,-21.45 874.47,-21 934.75,-21 934.75,-21 934.75,-21 1038.5,-21 1098.43,-21 1167.98,-23.5 1209.82,-25.27"/>
<polygon fill="black" stroke="black" points="1209.46,-28.75 1219.6,-25.69 1209.76,-21.76 1209.46,-28.75"/>
</g>
<!-- 1990981077472 -->
<g id="node10" class="node">
<title>1990981077472</title>
<polygon fill="white" stroke="black" points="766.12,-274 697.62,-274 697.62,-238 766.12,-238 766.12,-274"/>
<text text-anchor="middle" x="731.88" y="-250.97" font-family="Times New Roman,serif" font-size="12.00">Unit Install</text>
</g>
<!-- 1990971222560 -->
<g id="node30" class="node">
<title>1990971222560</title>
<ellipse fill="white" stroke="black" cx="834" cy="-328" rx="27" ry="27"/>
</g>
<!-- 1990981077472&#45;&gt;1990971222560 -->
<g id="edge25" class="edge">
<title>1990981077472&#45;&gt;1990971222560</title>
<path fill="none" stroke="black" d="M758.4,-274.35C771.77,-283.97 788.24,-295.81 802.3,-305.92"/>
<polygon fill="black" stroke="black" points="800.19,-308.72 810.36,-311.72 804.28,-303.04 800.19,-308.72"/>
</g>
<!-- 1990971214304 -->
<g id="node34" class="node">
<title>1990971214304</title>
<ellipse fill="white" stroke="black" cx="834" cy="-256" rx="27" ry="27"/>
</g>
<!-- 1990981077472&#45;&gt;1990971214304 -->
<g id="edge29" class="edge">
<title>1990981077472&#45;&gt;1990971214304</title>
<path fill="none" stroke="black" d="M766.49,-256C775.68,-256 785.7,-256 795.11,-256"/>
<polygon fill="black" stroke="black" points="795.08,-259.5 805.08,-256 795.08,-252.5 795.08,-259.5"/>
</g>
<!-- 1990980583152 -->
<g id="node11" class="node">
<title>1990980583152</title>
<polygon fill="black" stroke="black" points="1983.5,-368 1929.5,-368 1929.5,-332 1983.5,-332 1983.5,-368"/>
</g>
<!-- 1990980947552 -->
<g id="node36" class="node">
<title>1990980947552</title>
<ellipse fill="white" stroke="black" cx="2050.5" cy="-350" rx="27" ry="27"/>
<ellipse fill="none" stroke="black" cx="2050.5" cy="-350" rx="31" ry="31"/>
<text text-anchor="start" x="2034" y="-334.6" font-family="Times New Roman,serif" font-size="32.00">■</text>
</g>
<!-- 1990980583152&#45;&gt;1990980947552 -->
<g id="edge30" class="edge">
<title>1990980583152&#45;&gt;1990980947552</title>
<path fill="none" stroke="black" d="M1983.62,-350C1991.13,-350 1999.51,-350 2007.72,-350"/>
<polygon fill="black" stroke="black" points="2007.58,-353.5 2017.58,-350 2007.58,-346.5 2007.58,-353.5"/>
</g>
<!-- 1990980251392 -->
<g id="node12" class="node">
<title>1990980251392</title>
<polygon fill="white" stroke="black" points="974.5,-148 897,-148 897,-112 974.5,-112 974.5,-148"/>
<text text-anchor="middle" x="935.75" y="-124.97" font-family="Times New Roman,serif" font-size="12.00">Nutrient Mix</text>
</g>
<!-- 1990971217088 -->
<g id="node40" class="node">
<title>1990971217088</title>
<ellipse fill="white" stroke="black" cx="1037.5" cy="-126" rx="27" ry="27"/>
</g>
<!-- 1990980251392&#45;&gt;1990971217088 -->
<g id="edge40" class="edge">
<title>1990980251392&#45;&gt;1990971217088</title>
<path fill="none" stroke="black" d="M974.75,-128.48C982.57,-128.16 990.81,-127.83 998.63,-127.52"/>
<polygon fill="black" stroke="black" points="998.7,-131.02 1008.55,-127.12 998.42,-124.02 998.7,-131.02"/>
</g>
<!-- 1990980242272 -->
<g id="node13" class="node">
<title>1990980242272</title>
<polygon fill="white" stroke="black" points="1396.5,-135 1311.5,-135 1311.5,-99 1396.5,-99 1396.5,-135"/>
<text text-anchor="middle" x="1354" y="-111.97" font-family="Times New Roman,serif" font-size="12.00">Yield Forecast</text>
</g>
<!-- 1990980242848 -->
<g id="node37" class="node">
<title>1990980242848</title>
<ellipse fill="white" stroke="black" cx="1459.5" cy="-139" rx="27" ry="27"/>
</g>
<!-- 1990980242272&#45;&gt;1990980242848 -->
<g id="edge38" class="edge">
<title>1990980242272&#45;&gt;1990980242848</title>
<path fill="none" stroke="black" d="M1396.8,-125.88C1404.94,-127.62 1413.42,-129.42 1421.4,-131.11"/>
<polygon fill="black" stroke="black" points="1420.64,-134.53 1431.15,-133.19 1422.09,-127.68 1420.64,-134.53"/>
</g>
<!-- 1990980243808 -->
<g id="node14" class="node">
<title>1990980243808</title>
<polygon fill="white" stroke="black" points="969.25,-337 902.25,-337 902.25,-301 969.25,-301 969.25,-337"/>
<text text-anchor="middle" x="935.75" y="-313.98" font-family="Times New Roman,serif" font-size="12.00">Staff Train</text>
</g>
<!-- 1990971227936 -->
<g id="node38" class="node">
<title>1990971227936</title>
<ellipse fill="white" stroke="black" cx="1354" cy="-319" rx="27" ry="27"/>
</g>
<!-- 1990980243808&#45;&gt;1990971227936 -->
<g id="edge39" class="edge">
<title>1990980243808&#45;&gt;1990971227936</title>
<path fill="none" stroke="black" d="M969.41,-319C1045.51,-319 1234.26,-319 1315.18,-319"/>
<polygon fill="black" stroke="black" points="1315.02,-322.5 1325.02,-319 1315.02,-315.5 1315.02,-322.5"/>
</g>
<!-- 1990980249712 -->
<g id="node15" class="node">
<title>1990980249712</title>
<polygon fill="white" stroke="black" points="1185.5,-135 1100.5,-135 1100.5,-99 1185.5,-99 1185.5,-135"/>
<text text-anchor="middle" x="1143" y="-111.97" font-family="Times New Roman,serif" font-size="12.00">Quality Check</text>
</g>
<!-- 1990971227312 -->
<g id="node39" class="node">
<title>1990971227312</title>
<ellipse fill="white" stroke="black" cx="1248.5" cy="-117" rx="27" ry="27"/>
</g>
<!-- 1990980249712&#45;&gt;1990971227312 -->
<g id="edge37" class="edge">
<title>1990980249712&#45;&gt;1990971227312</title>
<path fill="none" stroke="black" d="M1185.8,-117C1193.7,-117 1201.92,-117 1209.68,-117"/>
<polygon fill="black" stroke="black" points="1209.51,-120.5 1219.51,-117 1209.51,-113.5 1209.51,-120.5"/>
</g>
<!-- 1990980247504 -->
<g id="node16" class="node">
<title>1990980247504</title>
<polygon fill="white" stroke="black" points="1599.25,-228 1522.5,-228 1522.5,-192 1599.25,-192 1599.25,-228"/>
<text text-anchor="middle" x="1560.88" y="-204.97" font-family="Times New Roman,serif" font-size="12.00">Supply Sync</text>
</g>
<!-- 1990971212528 -->
<g id="node42" class="node">
<title>1990971212528</title>
<ellipse fill="white" stroke="black" cx="1662.25" cy="-246" rx="27" ry="27"/>
</g>
<!-- 1990980247504&#45;&gt;1990971212528 -->
<g id="edge45" class="edge">
<title>1990980247504&#45;&gt;1990971212528</title>
<path fill="none" stroke="black" d="M1599.73,-223.71C1608.27,-226.81 1617.31,-230.08 1625.75,-233.14"/>
<polygon fill="black" stroke="black" points="1624.4,-236.37 1634.99,-236.49 1626.78,-229.79 1624.4,-236.37"/>
</g>
<!-- 1990980241888 -->
<g id="node17" class="node">
<title>1990980241888</title>
<polygon fill="white" stroke="black" points="1803.5,-337 1725.25,-337 1725.25,-301 1803.5,-301 1803.5,-337"/>
<text text-anchor="middle" x="1764.38" y="-313.98" font-family="Times New Roman,serif" font-size="12.00">Data Review</text>
</g>
<!-- 1990980249568 -->
<g id="node41" class="node">
<title>1990980249568</title>
<ellipse fill="white" stroke="black" cx="1866.5" cy="-323" rx="27" ry="27"/>
</g>
<!-- 1990980241888&#45;&gt;1990980249568 -->
<g id="edge46" class="edge">
<title>1990980241888&#45;&gt;1990980249568</title>
<path fill="none" stroke="black" d="M1803.8,-320.54C1811.64,-320.85 1819.88,-321.18 1827.69,-321.49"/>
<polygon fill="black" stroke="black" points="1827.48,-324.98 1837.61,-321.89 1827.76,-317.99 1827.48,-324.98"/>
</g>
<!-- 1990980956096 -->
<g id="node18" class="node">
<title>1990980956096</title>
<ellipse fill="white" stroke="black" cx="27" cy="-181" rx="27" ry="27"/>
<text text-anchor="start" x="9.75" y="-163.7" font-family="Times New Roman,serif" font-size="34.00">●</text>
</g>
<!-- 1990980956096&#45;&gt;1990980944144 -->
<g id="edge1" class="edge">
<title>1990980956096&#45;&gt;1990980944144</title>
<path fill="none" stroke="black" d="M54.4,-181C61.89,-181 70.18,-181 78.2,-181"/>
<polygon fill="black" stroke="black" points="78.1,-184.5 88.1,-181 78.1,-177.5 78.1,-184.5"/>
</g>
<!-- 1990982521520&#45;&gt;1990982521664 -->
<g id="edge4" class="edge">
<title>1990982521520&#45;&gt;1990982521664</title>
<path fill="none" stroke="black" d="M234.46,-217C243.71,-217 254.37,-217 264.74,-217"/>
<polygon fill="black" stroke="black" points="264.72,-220.5 274.72,-217 264.72,-213.5 264.72,-220.5"/>
</g>
<!-- 1990982426816&#45;&gt;1990982431808 -->
<g id="edge5" class="edge">
<title>1990982426816&#45;&gt;1990982431808</title>
<path fill="none" stroke="black" d="M234.46,-145C241.82,-145 250.08,-145 258.37,-145"/>
<polygon fill="black" stroke="black" points="258.11,-148.5 268.11,-145 258.11,-141.5 258.11,-148.5"/>
</g>
<!-- 1990980242176&#45;&gt;1990978176160 -->
<g id="edge10" class="edge">
<title>1990980242176&#45;&gt;1990978176160</title>
<path fill="none" stroke="black" d="M442.56,-208.38C450.47,-205.66 459.53,-202.54 468.64,-199.4"/>
<polygon fill="black" stroke="black" points="469.54,-202.8 477.85,-196.23 467.26,-196.18 469.54,-202.8"/>
</g>
<!-- 1990978185904&#45;&gt;1990978182592 -->
<g id="edge13" class="edge">
<title>1990978185904&#45;&gt;1990978182592</title>
<path fill="none" stroke="black" d="M443.9,-31C451.48,-31 460.02,-31 468.61,-31"/>
<polygon fill="black" stroke="black" points="468.34,-34.5 478.34,-31 468.34,-27.5 468.34,-34.5"/>
</g>
<!-- 1990978180816&#45;&gt;1990978185376 -->
<g id="edge11" class="edge">
<title>1990978180816&#45;&gt;1990978185376</title>
<path fill="none" stroke="black" d="M441.24,-325.57C451.13,-330.39 462.98,-336.17 474.52,-341.79"/>
<polygon fill="black" stroke="black" points="472.64,-344.77 483.16,-346.01 475.71,-338.48 472.64,-344.77"/>
</g>
<!-- 1990980252496&#45;&gt;1990978176160 -->
<g id="edge12" class="edge">
<title>1990980252496&#45;&gt;1990978176160</title>
<path fill="none" stroke="black" d="M442.56,-153.62C450.47,-156.34 459.53,-159.46 468.64,-162.6"/>
<polygon fill="black" stroke="black" points="467.26,-165.82 477.85,-165.77 469.54,-159.2 467.26,-165.82"/>
</g>
<!-- 1990980240640&#45;&gt;1990980254656 -->
<g id="edge21" class="edge">
<title>1990980240640&#45;&gt;1990980254656</title>
<path fill="none" stroke="black" d="M657.06,-28.64C666.59,-27.78 677.61,-26.79 688.19,-25.84"/>
<polygon fill="black" stroke="black" points="688.25,-29.35 697.89,-24.96 687.62,-22.37 688.25,-29.35"/>
</g>
<!-- 1990981085584&#45;&gt;1990980250432 -->
<g id="edge22" class="edge">
<title>1990981085584&#45;&gt;1990980250432</title>
<path fill="none" stroke="black" d="M657.06,-181C664.38,-181 672.59,-181 680.8,-181"/>
<polygon fill="black" stroke="black" points="680.8,-184.5 690.8,-181 680.8,-177.5 680.8,-184.5"/>
</g>
<!-- 1990980239632&#45;&gt;1990980245152 -->
<g id="edge19" class="edge">
<title>1990980239632&#45;&gt;1990980245152</title>
<path fill="none" stroke="black" d="M656.8,-103.84C664.86,-102.55 674.02,-101.09 683.08,-99.64"/>
<polygon fill="black" stroke="black" points="683.59,-103.1 692.91,-98.07 682.49,-96.19 683.59,-103.1"/>
</g>
<!-- 1990978182208&#45;&gt;1990980583152 -->
<g id="edge23" class="edge">
<title>1990978182208&#45;&gt;1990980583152</title>
<path fill="none" stroke="black" d="M1170.39,-383.96C1210.03,-382.5 1287.31,-380 1353,-380 1353,-380 1353,-380 1765.38,-380 1818.98,-380 1880.05,-368.22 1918.19,-359.43"/>
<polygon fill="black" stroke="black" points="1918.86,-362.86 1927.78,-357.16 1917.25,-356.05 1918.86,-362.86"/>
</g>
<!-- 1990981086928&#45;&gt;1990981077472 -->
<g id="edge20" class="edge">
<title>1990981086928&#45;&gt;1990981077472</title>
<path fill="none" stroke="black" d="M657.06,-254.53C665.89,-254.7 676,-254.9 685.85,-255.1"/>
<polygon fill="black" stroke="black" points="685.61,-258.6 695.68,-255.3 685.75,-251.6 685.61,-258.6"/>
</g>
<!-- 1990971222560&#45;&gt;1990980243808 -->
<g id="edge34" class="edge">
<title>1990971222560&#45;&gt;1990980243808</title>
<path fill="none" stroke="black" d="M861.21,-325.64C870.27,-324.82 880.68,-323.88 890.77,-322.97"/>
<polygon fill="black" stroke="black" points="890.78,-326.48 900.43,-322.1 890.15,-319.51 890.78,-326.48"/>
</g>
<!-- 1990971212960&#45;&gt;1990980242272 -->
<g id="edge33" class="edge">
<title>1990971212960&#45;&gt;1990980242272</title>
<path fill="none" stroke="black" d="M1269.46,-44.35C1284.76,-57.66 1306.13,-76.24 1323.42,-91.28"/>
<polygon fill="black" stroke="black" points="1321.05,-93.86 1330.9,-97.78 1325.65,-88.58 1321.05,-93.86"/>
</g>
<!-- 1990971222224&#45;&gt;1990980243808 -->
<g id="edge36" class="edge">
<title>1990971222224&#45;&gt;1990980243808</title>
<path fill="none" stroke="black" d="M850.81,-205.39C868.05,-228.73 895.7,-266.15 914.52,-291.62"/>
<polygon fill="black" stroke="black" points="911.6,-293.56 920.36,-299.52 917.23,-289.4 911.6,-293.56"/>
</g>
<!-- 1990971220688&#45;&gt;1990980249712 -->
<g id="edge31" class="edge">
<title>1990971220688&#45;&gt;1990980249712</title>
<path fill="none" stroke="black" d="M962.95,-70.49C988.96,-74.23 1029.84,-80.9 1064.5,-90 1072.64,-92.14 1081.16,-94.73 1089.44,-97.45"/>
<polygon fill="black" stroke="black" points="1088.11,-100.69 1098.7,-100.58 1090.35,-94.06 1088.11,-100.69"/>
</g>
<!-- 1990971214304&#45;&gt;1990980251392 -->
<g id="edge32" class="edge">
<title>1990971214304&#45;&gt;1990980251392</title>
<path fill="none" stroke="black" d="M851.47,-235.19C868.37,-213.84 894.75,-180.53 913.28,-157.12"/>
<polygon fill="black" stroke="black" points="915.8,-159.58 919.26,-149.56 910.31,-155.23 915.8,-159.58"/>
</g>
<!-- 1990971225200&#45;&gt;1990980251392 -->
<g id="edge35" class="edge">
<title>1990971225200&#45;&gt;1990980251392</title>
<path fill="none" stroke="black" d="M860.95,-116.68C868.49,-118.04 877,-119.58 885.48,-121.11"/>
<polygon fill="black" stroke="black" points="884.58,-124.5 895.04,-122.83 885.82,-117.61 884.58,-124.5"/>
</g>
<!-- 1990980242848&#45;&gt;1990980247504 -->
<g id="edge44" class="edge">
<title>1990980242848&#45;&gt;1990980247504</title>
<path fill="none" stroke="black" d="M1482.06,-154.41C1494.61,-163.37 1510.73,-174.89 1525.04,-185.11"/>
<polygon fill="black" stroke="black" points="1522.72,-187.76 1532.89,-190.72 1526.79,-182.06 1522.72,-187.76"/>
</g>
<!-- 1990971227936&#45;&gt;1990980241888 -->
<g id="edge43" class="edge">
<title>1990971227936&#45;&gt;1990980241888</title>
<path fill="none" stroke="black" d="M1381.48,-319C1448.56,-319 1626.06,-319 1713.4,-319"/>
<polygon fill="black" stroke="black" points="1713.34,-322.5 1723.34,-319 1713.34,-315.5 1713.34,-322.5"/>
</g>
<!-- 1990971227312&#45;&gt;1990980242272 -->
<g id="edge42" class="edge">
<title>1990971227312&#45;&gt;1990980242272</title>
<path fill="none" stroke="black" d="M1275.89,-117C1283.3,-117 1291.63,-117 1300.01,-117"/>
<polygon fill="black" stroke="black" points="1299.86,-120.5 1309.86,-117 1299.86,-113.5 1299.86,-120.5"/>
</g>
<!-- 1990971217088&#45;&gt;1990980249712 -->
<g id="edge41" class="edge">
<title>1990971217088&#45;&gt;1990980249712</title>
<path fill="none" stroke="black" d="M1064.89,-123.71C1072.3,-123.06 1080.63,-122.34 1089.01,-121.61"/>
<polygon fill="black" stroke="black" points="1089.21,-125.1 1098.87,-120.75 1088.6,-118.13 1089.21,-125.1"/>
</g>
<!-- 1990980249568&#45;&gt;1990980583152 -->
<g id="edge47" class="edge">
<title>1990980249568&#45;&gt;1990980583152</title>
<path fill="none" stroke="black" d="M1892.48,-330.66C1900.56,-333.14 1909.69,-335.94 1918.45,-338.63"/>
<polygon fill="black" stroke="black" points="1917.19,-341.91 1927.78,-341.5 1919.25,-335.22 1917.19,-341.91"/>
</g>
<!-- 1990971212528&#45;&gt;1990980241888 -->
<g id="edge48" class="edge">
<title>1990971212528&#45;&gt;1990980241888</title>
<path fill="none" stroke="black" d="M1684.48,-261.48C1697.51,-270.98 1714.48,-283.35 1729.35,-294.19"/>
<polygon fill="black" stroke="black" points="1726.91,-296.75 1737.06,-299.81 1731.04,-291.09 1726.91,-296.75"/>
</g>
</g>
</svg>
