<?xml version="1.0" encoding="UTF-8" standalone="no"?>
<!DOCTYPE svg PUBLIC "-//W3C//DTD SVG 1.1//EN"
 "http://www.w3.org/Graphics/SVG/1.1/DTD/svg11.dtd">
<!-- Generated by graphviz version 11.0.0 (20240428.1522)
 -->
<!-- Title: imdf_net_1754052877.1172068 Pages: 1 -->
<svg width="3206pt" height="113pt"
 viewBox="0.00 0.00 3205.75 113.00" xmlns="http://www.w3.org/2000/svg" xmlns:xlink="http://www.w3.org/1999/xlink">
<g id="graph0" class="graph" transform="scale(1 1) rotate(0) translate(4 109)">
<title>imdf_net_1754052877.1172068</title>
<polygon fill="white" stroke="none" points="-4,4 -4,-109 3201.75,-109 3201.75,4 -4,4"/>
<!-- 1990978715472 -->
<g id="node1" class="node">
<title>1990978715472</title>
<polygon fill="white" stroke="black" points="160.75,-77 90,-77 90,-41 160.75,-41 160.75,-77"/>
<text text-anchor="middle" x="125.38" y="-53.98" font-family="Times New Roman,serif" font-size="12.00">Site Survey</text>
</g>
<!-- 1990978710720 -->
<g id="node18" class="node">
<title>1990978710720</title>
<ellipse fill="white" stroke="black" cx="223.75" cy="-59" rx="27" ry="27"/>
</g>
<!-- 1990978715472&#45;&gt;1990978710720 -->
<g id="edge2" class="edge">
<title>1990978715472&#45;&gt;1990978710720</title>
<path fill="none" stroke="black" d="M161.17,-59C168.9,-59 177.14,-59 184.98,-59"/>
<polygon fill="black" stroke="black" points="184.97,-62.5 194.97,-59 184.97,-55.5 184.97,-62.5"/>
</g>
<!-- 1990979107056 -->
<g id="node2" class="node">
<title>1990979107056</title>
<polygon fill="white" stroke="black" points="373.25,-77 286.75,-77 286.75,-41 373.25,-41 373.25,-77"/>
<text text-anchor="middle" x="330" y="-53.98" font-family="Times New Roman,serif" font-size="12.00">Design Layout</text>
</g>
<!-- 1990979108688 -->
<g id="node19" class="node">
<title>1990979108688</title>
<ellipse fill="white" stroke="black" cx="436.25" cy="-59" rx="27" ry="27"/>
</g>
<!-- 1990979107056&#45;&gt;1990979108688 -->
<g id="edge4" class="edge">
<title>1990979107056&#45;&gt;1990979108688</title>
<path fill="none" stroke="black" d="M373.7,-59C381.62,-59 389.84,-59 397.59,-59"/>
<polygon fill="black" stroke="black" points="397.39,-62.5 407.39,-59 397.39,-55.5 397.39,-62.5"/>
</g>
<!-- 1990979095488 -->
<g id="node3" class="node">
<title>1990979095488</title>
<polygon fill="white" stroke="black" points="585.75,-77 499.25,-77 499.25,-41 585.75,-41 585.75,-77"/>
<text text-anchor="middle" x="542.5" y="-53.98" font-family="Times New Roman,serif" font-size="12.00">Sensor Deploy</text>
</g>
<!-- 1990976842128 -->
<g id="node20" class="node">
<title>1990976842128</title>
<ellipse fill="white" stroke="black" cx="648.75" cy="-59" rx="27" ry="27"/>
</g>
<!-- 1990979095488&#45;&gt;1990976842128 -->
<g id="edge6" class="edge">
<title>1990979095488&#45;&gt;1990976842128</title>
<path fill="none" stroke="black" d="M586.2,-59C594.12,-59 602.34,-59 610.09,-59"/>
<polygon fill="black" stroke="black" points="609.89,-62.5 619.89,-59 609.89,-55.5 609.89,-62.5"/>
</g>
<!-- 1990980945296 -->
<g id="node4" class="node">
<title>1990980945296</title>
<polygon fill="white" stroke="black" points="783.25,-77 711.75,-77 711.75,-41 783.25,-41 783.25,-77"/>
<text text-anchor="middle" x="747.5" y="-53.98" font-family="Times New Roman,serif" font-size="12.00">Crop Select</text>
</g>
<!-- 1990979280272 -->
<g id="node21" class="node">
<title>1990979280272</title>
<ellipse fill="white" stroke="black" cx="846.25" cy="-59" rx="27" ry="27"/>
</g>
<!-- 1990980945296&#45;&gt;1990979280272 -->
<g id="edge8" class="edge">
<title>1990980945296&#45;&gt;1990979280272</title>
<path fill="none" stroke="black" d="M783.7,-59C791.45,-59 799.69,-59 807.54,-59"/>
<polygon fill="black" stroke="black" points="807.51,-62.5 817.51,-59 807.51,-55.5 807.51,-62.5"/>
</g>
<!-- 1990979288480 -->
<g id="node5" class="node">
<title>1990979288480</title>
<polygon fill="white" stroke="black" points="991.25,-77 909.25,-77 909.25,-41 991.25,-41 991.25,-77"/>
<text text-anchor="middle" x="950.25" y="-53.98" font-family="Times New Roman,serif" font-size="12.00">System Install</text>
</g>
<!-- 1990979273216 -->
<g id="node22" class="node">
<title>1990979273216</title>
<ellipse fill="white" stroke="black" cx="1054.25" cy="-59" rx="27" ry="27"/>
</g>
<!-- 1990979288480&#45;&gt;1990979273216 -->
<g id="edge10" class="edge">
<title>1990979288480&#45;&gt;1990979273216</title>
<path fill="none" stroke="black" d="M991.56,-59C999.48,-59 1007.75,-59 1015.57,-59"/>
<polygon fill="black" stroke="black" points="1015.48,-62.5 1025.48,-59 1015.48,-55.5 1015.48,-62.5"/>
</g>
<!-- 1990979275184 -->
<g id="node6" class="node">
<title>1990979275184</title>
<polygon fill="white" stroke="black" points="1197.75,-77 1117.25,-77 1117.25,-41 1197.75,-41 1197.75,-77"/>
<text text-anchor="middle" x="1157.5" y="-53.98" font-family="Times New Roman,serif" font-size="12.00">Energy Setup</text>
</g>
<!-- 1990979285552 -->
<g id="node23" class="node">
<title>1990979285552</title>
<ellipse fill="white" stroke="black" cx="1260.75" cy="-59" rx="27" ry="27"/>
</g>
<!-- 1990979275184&#45;&gt;1990979285552 -->
<g id="edge12" class="edge">
<title>1990979275184&#45;&gt;1990979285552</title>
<path fill="none" stroke="black" d="M1198.23,-59C1206.1,-59 1214.34,-59 1222.14,-59"/>
<polygon fill="black" stroke="black" points="1222.02,-62.5 1232.02,-59 1222.02,-55.5 1222.02,-62.5"/>
</g>
<!-- 1990979285744 -->
<g id="node7" class="node">
<title>1990979285744</title>
<polygon fill="white" stroke="black" points="1399,-77 1323.75,-77 1323.75,-41 1399,-41 1399,-77"/>
<text text-anchor="middle" x="1361.38" y="-53.98" font-family="Times New Roman,serif" font-size="12.00">Water Cycle</text>
</g>
<!-- 1990979280608 -->
<g id="node24" class="node">
<title>1990979280608</title>
<ellipse fill="white" stroke="black" cx="1462" cy="-59" rx="27" ry="27"/>
</g>
<!-- 1990979285744&#45;&gt;1990979280608 -->
<g id="edge14" class="edge">
<title>1990979285744&#45;&gt;1990979280608</title>
<path fill="none" stroke="black" d="M1399.38,-59C1407.15,-59 1415.35,-59 1423.15,-59"/>
<polygon fill="black" stroke="black" points="1423.05,-62.5 1433.05,-59 1423.05,-55.5 1423.05,-62.5"/>
</g>
<!-- 1990979284688 -->
<g id="node8" class="node">
<title>1990979284688</title>
<polygon fill="white" stroke="black" points="1599.5,-77 1525,-77 1525,-41 1599.5,-41 1599.5,-77"/>
<text text-anchor="middle" x="1562.25" y="-53.98" font-family="Times New Roman,serif" font-size="12.00">Pest Control</text>
</g>
<!-- 1990979283296 -->
<g id="node25" class="node">
<title>1990979283296</title>
<ellipse fill="white" stroke="black" cx="1662.5" cy="-59" rx="27" ry="27"/>
</g>
<!-- 1990979284688&#45;&gt;1990979283296 -->
<g id="edge16" class="edge">
<title>1990979284688&#45;&gt;1990979283296</title>
<path fill="none" stroke="black" d="M1599.83,-59C1607.59,-59 1615.79,-59 1623.59,-59"/>
<polygon fill="black" stroke="black" points="1623.5,-62.5 1633.5,-59 1623.5,-55.5 1623.5,-62.5"/>
</g>
<!-- 1990979285600 -->
<g id="node9" class="node">
<title>1990979285600</title>
<polygon fill="white" stroke="black" points="1827.75,-77 1725.5,-77 1725.5,-41 1827.75,-41 1827.75,-77"/>
<text text-anchor="middle" x="1776.62" y="-53.98" font-family="Times New Roman,serif" font-size="12.00">Regulatory Check</text>
</g>
<!-- 1990979273360 -->
<g id="node26" class="node">
<title>1990979273360</title>
<ellipse fill="white" stroke="black" cx="1890.75" cy="-59" rx="27" ry="27"/>
</g>
<!-- 1990979285600&#45;&gt;1990979273360 -->
<g id="edge18" class="edge">
<title>1990979285600&#45;&gt;1990979273360</title>
<path fill="none" stroke="black" d="M1828.11,-59C1836.22,-59 1844.48,-59 1852.21,-59"/>
<polygon fill="black" stroke="black" points="1851.94,-62.5 1861.94,-59 1851.94,-55.5 1851.94,-62.5"/>
</g>
<!-- 1990979282624 -->
<g id="node10" class="node">
<title>1990979282624</title>
<polygon fill="white" stroke="black" points="2035.75,-77 1953.75,-77 1953.75,-41 2035.75,-41 2035.75,-77"/>
<text text-anchor="middle" x="1994.75" y="-53.98" font-family="Times New Roman,serif" font-size="12.00">Staff Training</text>
</g>
<!-- 1990979272784 -->
<g id="node27" class="node">
<title>1990979272784</title>
<ellipse fill="white" stroke="black" cx="2098.75" cy="-59" rx="27" ry="27"/>
</g>
<!-- 1990979282624&#45;&gt;1990979272784 -->
<g id="edge20" class="edge">
<title>1990979282624&#45;&gt;1990979272784</title>
<path fill="none" stroke="black" d="M2036.06,-59C2043.98,-59 2052.25,-59 2060.07,-59"/>
<polygon fill="black" stroke="black" points="2059.98,-62.5 2069.98,-59 2059.98,-55.5 2059.98,-62.5"/>
</g>
<!-- 1990979281952 -->
<g id="node11" class="node">
<title>1990979281952</title>
<polygon fill="white" stroke="black" points="2251.25,-77 2161.75,-77 2161.75,-41 2251.25,-41 2251.25,-77"/>
<text text-anchor="middle" x="2206.5" y="-53.98" font-family="Times New Roman,serif" font-size="12.00">Data Configure</text>
</g>
<!-- 1990979278016 -->
<g id="node28" class="node">
<title>1990979278016</title>
<ellipse fill="white" stroke="black" cx="2314.25" cy="-59" rx="27" ry="27"/>
</g>
<!-- 1990979281952&#45;&gt;1990979278016 -->
<g id="edge22" class="edge">
<title>1990979281952&#45;&gt;1990979278016</title>
<path fill="none" stroke="black" d="M2251.73,-59C2259.7,-59 2267.94,-59 2275.7,-59"/>
<polygon fill="black" stroke="black" points="2275.49,-62.5 2285.49,-59 2275.49,-55.5 2275.49,-62.5"/>
</g>
<!-- 1990979275952 -->
<g id="node12" class="node">
<title>1990979275952</title>
<polygon fill="white" stroke="black" points="2451,-77 2377.25,-77 2377.25,-41 2451,-41 2451,-77"/>
<text text-anchor="middle" x="2414.12" y="-53.98" font-family="Times New Roman,serif" font-size="12.00">Supply Plan</text>
</g>
<!-- 1990981522096 -->
<g id="node29" class="node">
<title>1990981522096</title>
<ellipse fill="white" stroke="black" cx="2514" cy="-59" rx="27" ry="27"/>
</g>
<!-- 1990979275952&#45;&gt;1990981522096 -->
<g id="edge24" class="edge">
<title>1990979275952&#45;&gt;1990981522096</title>
<path fill="none" stroke="black" d="M2451.29,-59C2459.19,-59 2467.58,-59 2475.53,-59"/>
<polygon fill="black" stroke="black" points="2475.25,-62.5 2485.25,-59 2475.25,-55.5 2475.25,-62.5"/>
</g>
<!-- 1990980111872 -->
<g id="node13" class="node">
<title>1990980111872</title>
<polygon fill="white" stroke="black" points="2676.25,-54 2577,-54 2577,-18 2676.25,-18 2676.25,-54"/>
<text text-anchor="middle" x="2626.62" y="-30.98" font-family="Times New Roman,serif" font-size="12.00">Harvest Schedule</text>
</g>
<!-- 1990980116720 -->
<g id="node30" class="node">
<title>1990980116720</title>
<ellipse fill="white" stroke="black" cx="2739.25" cy="-27" rx="27" ry="27"/>
</g>
<!-- 1990980111872&#45;&gt;1990980116720 -->
<g id="edge26" class="edge">
<title>1990980111872&#45;&gt;1990980116720</title>
<path fill="none" stroke="black" d="M2676.47,-32.03C2684.62,-31.36 2692.96,-30.68 2700.76,-30.05"/>
<polygon fill="black" stroke="black" points="2700.92,-33.55 2710.6,-29.25 2700.35,-26.57 2700.92,-33.55"/>
</g>
<!-- 1990980112256 -->
<g id="node14" class="node">
<title>1990980112256</title>
<polygon fill="white" stroke="black" points="2883.5,-47 2802.25,-47 2802.25,-11 2883.5,-11 2883.5,-47"/>
<text text-anchor="middle" x="2842.88" y="-23.98" font-family="Times New Roman,serif" font-size="12.00">Quality Audit</text>
</g>
<!-- 1990978050896 -->
<g id="node31" class="node">
<title>1990978050896</title>
<ellipse fill="white" stroke="black" cx="2946.5" cy="-33" rx="27" ry="27"/>
</g>
<!-- 1990980112256&#45;&gt;1990978050896 -->
<g id="edge28" class="edge">
<title>1990980112256&#45;&gt;1990978050896</title>
<path fill="none" stroke="black" d="M2883.75,-30.57C2891.65,-30.88 2899.92,-31.21 2907.75,-31.51"/>
<polygon fill="black" stroke="black" points="2907.55,-35.01 2917.68,-31.9 2907.82,-28.01 2907.55,-35.01"/>
</g>
<!-- 1990979288000 -->
<g id="node15" class="node">
<title>1990979288000</title>
<polygon fill="white" stroke="black" points="3099.75,-105 3009.5,-105 3009.5,-69 3099.75,-69 3099.75,-105"/>
<text text-anchor="middle" x="3054.62" y="-81.97" font-family="Times New Roman,serif" font-size="12.00">Feedback Loop</text>
</g>
<!-- 1990979288000&#45;&gt;1990981522096 -->
<g id="edge31" class="edge">
<title>1990979288000&#45;&gt;1990981522096</title>
<path fill="none" stroke="black" d="M3009.03,-88.01C2966.57,-88.88 2900.87,-90 2843.88,-90 2738.25,-90 2738.25,-90 2738.25,-90 2671.98,-90 2595.68,-76.43 2551.63,-67.25"/>
<polygon fill="black" stroke="black" points="2552.61,-63.88 2542.1,-65.22 2551.15,-70.73 2552.61,-63.88"/>
</g>
<!-- 1990979287376 -->
<g id="node16" class="node">
<title>1990979287376</title>
<polygon fill="white" stroke="black" points="3099,-51 3010.25,-51 3010.25,-15 3099,-15 3099,-51"/>
<text text-anchor="middle" x="3054.62" y="-27.98" font-family="Times New Roman,serif" font-size="12.00">Market Launch</text>
</g>
<!-- 1990982189136 -->
<g id="node32" class="node">
<title>1990982189136</title>
<ellipse fill="white" stroke="black" cx="3166.75" cy="-33" rx="27" ry="27"/>
<ellipse fill="none" stroke="black" cx="3166.75" cy="-33" rx="31" ry="31"/>
<text text-anchor="start" x="3150.25" y="-17.6" font-family="Times New Roman,serif" font-size="32.00">■</text>
</g>
<!-- 1990979287376&#45;&gt;1990982189136 -->
<g id="edge32" class="edge">
<title>1990979287376&#45;&gt;1990982189136</title>
<path fill="none" stroke="black" d="M3099.47,-33C3107.53,-33 3115.92,-33 3123.92,-33"/>
<polygon fill="black" stroke="black" points="3123.76,-36.5 3133.76,-33 3123.76,-29.5 3123.76,-36.5"/>
</g>
<!-- 1990982194656 -->
<g id="node17" class="node">
<title>1990982194656</title>
<ellipse fill="white" stroke="black" cx="27" cy="-59" rx="27" ry="27"/>
<text text-anchor="start" x="9.75" y="-41.7" font-family="Times New Roman,serif" font-size="34.00">●</text>
</g>
<!-- 1990982194656&#45;&gt;1990978715472 -->
<g id="edge1" class="edge">
<title>1990982194656&#45;&gt;1990978715472</title>
<path fill="none" stroke="black" d="M54.33,-59C61.76,-59 70.06,-59 78.28,-59"/>
<polygon fill="black" stroke="black" points="78.24,-62.5 88.24,-59 78.24,-55.5 78.24,-62.5"/>
</g>
<!-- 1990978710720&#45;&gt;1990979107056 -->
<g id="edge3" class="edge">
<title>1990978710720&#45;&gt;1990979107056</title>
<path fill="none" stroke="black" d="M251.06,-59C258.44,-59 266.74,-59 275.11,-59"/>
<polygon fill="black" stroke="black" points="274.96,-62.5 284.96,-59 274.96,-55.5 274.96,-62.5"/>
</g>
<!-- 1990979108688&#45;&gt;1990979095488 -->
<g id="edge5" class="edge">
<title>1990979108688&#45;&gt;1990979095488</title>
<path fill="none" stroke="black" d="M463.56,-59C470.94,-59 479.24,-59 487.61,-59"/>
<polygon fill="black" stroke="black" points="487.46,-62.5 497.46,-59 487.46,-55.5 487.46,-62.5"/>
</g>
<!-- 1990976842128&#45;&gt;1990980945296 -->
<g id="edge7" class="edge">
<title>1990976842128&#45;&gt;1990980945296</title>
<path fill="none" stroke="black" d="M676.19,-59C683.56,-59 691.81,-59 699.98,-59"/>
<polygon fill="black" stroke="black" points="699.87,-62.5 709.87,-59 699.87,-55.5 699.87,-62.5"/>
</g>
<!-- 1990979280272&#45;&gt;1990979288480 -->
<g id="edge9" class="edge">
<title>1990979280272&#45;&gt;1990979288480</title>
<path fill="none" stroke="black" d="M873.52,-59C880.9,-59 889.2,-59 897.53,-59"/>
<polygon fill="black" stroke="black" points="897.3,-62.5 907.3,-59 897.3,-55.5 897.3,-62.5"/>
</g>
<!-- 1990979273216&#45;&gt;1990979275184 -->
<g id="edge11" class="edge">
<title>1990979273216&#45;&gt;1990979275184</title>
<path fill="none" stroke="black" d="M1081.59,-59C1089,-59 1097.32,-59 1105.65,-59"/>
<polygon fill="black" stroke="black" points="1105.42,-62.5 1115.42,-59 1105.42,-55.5 1105.42,-62.5"/>
</g>
<!-- 1990979285552&#45;&gt;1990979285744 -->
<g id="edge13" class="edge">
<title>1990979285552&#45;&gt;1990979285744</title>
<path fill="none" stroke="black" d="M1288.18,-59C1295.55,-59 1303.79,-59 1312,-59"/>
<polygon fill="black" stroke="black" points="1311.98,-62.5 1321.98,-59 1311.98,-55.5 1311.98,-62.5"/>
</g>
<!-- 1990979280608&#45;&gt;1990979284688 -->
<g id="edge15" class="edge">
<title>1990979280608&#45;&gt;1990979284688</title>
<path fill="none" stroke="black" d="M1489.33,-59C1496.67,-59 1504.88,-59 1513.06,-59"/>
<polygon fill="black" stroke="black" points="1512.99,-62.5 1522.99,-59 1512.99,-55.5 1512.99,-62.5"/>
</g>
<!-- 1990979283296&#45;&gt;1990979285600 -->
<g id="edge17" class="edge">
<title>1990979283296&#45;&gt;1990979285600</title>
<path fill="none" stroke="black" d="M1689.79,-59C1697.17,-59 1705.52,-59 1714.04,-59"/>
<polygon fill="black" stroke="black" points="1713.77,-62.5 1723.77,-59 1713.77,-55.5 1713.77,-62.5"/>
</g>
<!-- 1990979273360&#45;&gt;1990979282624 -->
<g id="edge19" class="edge">
<title>1990979273360&#45;&gt;1990979282624</title>
<path fill="none" stroke="black" d="M1918.02,-59C1925.4,-59 1933.7,-59 1942.03,-59"/>
<polygon fill="black" stroke="black" points="1941.8,-62.5 1951.8,-59 1941.8,-55.5 1941.8,-62.5"/>
</g>
<!-- 1990979272784&#45;&gt;1990979281952 -->
<g id="edge21" class="edge">
<title>1990979272784&#45;&gt;1990979281952</title>
<path fill="none" stroke="black" d="M2126.16,-59C2133.48,-59 2141.71,-59 2150.03,-59"/>
<polygon fill="black" stroke="black" points="2149.83,-62.5 2159.83,-59 2149.83,-55.5 2149.83,-62.5"/>
</g>
<!-- 1990979278016&#45;&gt;1990979275952 -->
<g id="edge23" class="edge">
<title>1990979278016&#45;&gt;1990979275952</title>
<path fill="none" stroke="black" d="M2341.74,-59C2349.12,-59 2357.38,-59 2365.59,-59"/>
<polygon fill="black" stroke="black" points="2365.55,-62.5 2375.55,-59 2365.55,-55.5 2365.55,-62.5"/>
</g>
<!-- 1990981522096&#45;&gt;1990980111872 -->
<g id="edge25" class="edge">
<title>1990981522096&#45;&gt;1990980111872</title>
<path fill="none" stroke="black" d="M2540.94,-53.61C2548.48,-52.04 2557.05,-50.26 2565.77,-48.44"/>
<polygon fill="black" stroke="black" points="2566.28,-51.91 2575.35,-46.45 2564.85,-45.06 2566.28,-51.91"/>
</g>
<!-- 1990980116720&#45;&gt;1990980112256 -->
<g id="edge27" class="edge">
<title>1990980116720&#45;&gt;1990980112256</title>
<path fill="none" stroke="black" d="M2766.69,-27.52C2773.96,-27.66 2782.11,-27.82 2790.28,-27.98"/>
<polygon fill="black" stroke="black" points="2790.19,-31.48 2800.26,-28.18 2790.33,-24.48 2790.19,-31.48"/>
</g>
<!-- 1990978050896&#45;&gt;1990979288000 -->
<g id="edge29" class="edge">
<title>1990978050896&#45;&gt;1990979288000</title>
<path fill="none" stroke="black" d="M2971.05,-44.98C2981.85,-50.48 2995.03,-57.18 3007.66,-63.61"/>
<polygon fill="black" stroke="black" points="3005.77,-66.58 3016.27,-67.99 3008.95,-60.34 3005.77,-66.58"/>
</g>
<!-- 1990978050896&#45;&gt;1990979287376 -->
<g id="edge30" class="edge">
<title>1990978050896&#45;&gt;1990979287376</title>
<path fill="none" stroke="black" d="M2973.73,-33C2981.33,-33 2989.92,-33 2998.59,-33"/>
<polygon fill="black" stroke="black" points="2998.42,-36.5 3008.42,-33 2998.42,-29.5 2998.42,-36.5"/>
</g>
</g>
</svg>
