<?xml version="1.0" encoding="UTF-8" standalone="no"?>
<!DOCTYPE svg PUBLIC "-//W3C//DTD SVG 1.1//EN"
 "http://www.w3.org/Graphics/SVG/1.1/DTD/svg11.dtd">
<!-- Generated by graphviz version 11.0.0 (20240428.1522)
 -->
<!-- Title: imdf_net_1754052875.1568763 Pages: 1 -->
<svg width="3310pt" height="176pt"
 viewBox="0.00 0.00 3310.00 176.00" xmlns="http://www.w3.org/2000/svg" xmlns:xlink="http://www.w3.org/1999/xlink">
<g id="graph0" class="graph" transform="scale(1 1) rotate(0) translate(4 172)">
<title>imdf_net_1754052875.1568763</title>
<polygon fill="white" stroke="none" points="-4,4 -4,-172 3306,-172 3306,4 -4,4"/>
<!-- 1990971919536 -->
<g id="node1" class="node">
<title>1990971919536</title>
<polygon fill="black" stroke="black" points="144,-159 90,-159 90,-123 144,-123 144,-159"/>
</g>
<!-- 1990978748496 -->
<g id="node20" class="node">
<title>1990978748496</title>
<ellipse fill="white" stroke="black" cx="207" cy="-141" rx="27" ry="27"/>
</g>
<!-- 1990971919536&#45;&gt;1990978748496 -->
<g id="edge2" class="edge">
<title>1990971919536&#45;&gt;1990978748496</title>
<path fill="none" stroke="black" d="M144.4,-141C151.89,-141 160.18,-141 168.2,-141"/>
<polygon fill="black" stroke="black" points="168.1,-144.5 178.1,-141 168.1,-137.5 168.1,-144.5"/>
</g>
<!-- 1990978186912 -->
<g id="node2" class="node">
<title>1990978186912</title>
<polygon fill="white" stroke="black" points="345.25,-130 270,-130 270,-94 345.25,-94 345.25,-130"/>
<text text-anchor="middle" x="307.62" y="-106.97" font-family="Times New Roman,serif" font-size="12.00">User Signup</text>
</g>
<!-- 1990978190656 -->
<g id="node21" class="node">
<title>1990978190656</title>
<ellipse fill="white" stroke="black" cx="408.25" cy="-106" rx="27" ry="27"/>
</g>
<!-- 1990978186912&#45;&gt;1990978190656 -->
<g id="edge4" class="edge">
<title>1990978186912&#45;&gt;1990978190656</title>
<path fill="none" stroke="black" d="M345.63,-109.75C353.4,-109.28 361.6,-108.78 369.4,-108.3"/>
<polygon fill="black" stroke="black" points="369.53,-111.8 379.3,-107.7 369.11,-104.81 369.53,-111.8"/>
</g>
<!-- 1990971042576 -->
<g id="node3" class="node">
<title>1990971042576</title>
<polygon fill="white" stroke="black" points="555.5,-122 471.25,-122 471.25,-86 555.5,-86 555.5,-122"/>
<text text-anchor="middle" x="513.38" y="-98.97" font-family="Times New Roman,serif" font-size="12.00">Preference Set</text>
</g>
<!-- 1990979535120 -->
<g id="node22" class="node">
<title>1990979535120</title>
<ellipse fill="white" stroke="black" cx="618.5" cy="-103" rx="27" ry="27"/>
</g>
<!-- 1990971042576&#45;&gt;1990979535120 -->
<g id="edge6" class="edge">
<title>1990971042576&#45;&gt;1990979535120</title>
<path fill="none" stroke="black" d="M555.73,-103.6C563.69,-103.52 571.99,-103.44 579.83,-103.37"/>
<polygon fill="black" stroke="black" points="579.79,-106.87 589.75,-103.27 579.72,-99.87 579.79,-106.87"/>
</g>
<!-- 1990971032448 -->
<g id="node4" class="node">
<title>1990971032448</title>
<polygon fill="black" stroke="black" points="750.62,-121 696.62,-121 696.62,-85 750.62,-85 750.62,-121"/>
</g>
<!-- 1990971930960 -->
<g id="node24" class="node">
<title>1990971930960</title>
<ellipse fill="white" stroke="black" cx="832.75" cy="-103" rx="27" ry="27"/>
<ellipse fill="none" stroke="black" cx="832.75" cy="-103" rx="31" ry="31"/>
<text text-anchor="start" x="816.25" y="-87.6" font-family="Times New Roman,serif" font-size="32.00">■</text>
</g>
<!-- 1990971032448&#45;&gt;1990971930960 -->
<g id="edge10" class="edge">
<title>1990971032448&#45;&gt;1990971930960</title>
<path fill="none" stroke="black" d="M751.11,-103C762.89,-103 777.06,-103 790.2,-103"/>
<polygon fill="black" stroke="black" points="789.89,-106.5 799.89,-103 789.89,-99.5 789.89,-106.5"/>
</g>
<!-- 1990982044992 -->
<g id="node5" class="node">
<title>1990982044992</title>
<polygon fill="white" stroke="black" points="765.75,-56 681.5,-56 681.5,-20 765.75,-20 765.75,-56"/>
<text text-anchor="middle" x="723.62" y="-32.98" font-family="Times New Roman,serif" font-size="12.00">Preference Set</text>
</g>
<!-- 1990982049312 -->
<g id="node23" class="node">
<title>1990982049312</title>
<ellipse fill="white" stroke="black" cx="832.75" cy="-27" rx="27" ry="27"/>
</g>
<!-- 1990982044992&#45;&gt;1990982049312 -->
<g id="edge9" class="edge">
<title>1990982044992&#45;&gt;1990982049312</title>
<path fill="none" stroke="black" d="M766.04,-33.75C775.4,-32.79 785.28,-31.77 794.45,-30.83"/>
<polygon fill="black" stroke="black" points="794.51,-34.34 804.1,-29.84 793.79,-27.38 794.51,-34.34"/>
</g>
<!-- 1990982049936 -->
<g id="node6" class="node">
<title>1990982049936</title>
<polygon fill="white" stroke="black" points="971.25,-62 899.75,-62 899.75,-26 971.25,-26 971.25,-62"/>
<text text-anchor="middle" x="935.5" y="-38.98" font-family="Times New Roman,serif" font-size="12.00">Meal Select</text>
</g>
<!-- 1990982049792 -->
<g id="node25" class="node">
<title>1990982049792</title>
<ellipse fill="white" stroke="black" cx="1034.25" cy="-52" rx="27" ry="27"/>
</g>
<!-- 1990982049936&#45;&gt;1990982049792 -->
<g id="edge12" class="edge">
<title>1990982049936&#45;&gt;1990982049792</title>
<path fill="none" stroke="black" d="M971.7,-46.91C979.54,-47.56 987.88,-48.25 995.81,-48.9"/>
<polygon fill="black" stroke="black" points="995.26,-52.37 1005.52,-49.71 995.84,-45.39 995.26,-52.37"/>
</g>
<!-- 1990982047536 -->
<g id="node7" class="node">
<title>1990982047536</title>
<polygon fill="white" stroke="black" points="1201,-74 1097.25,-74 1097.25,-38 1201,-38 1201,-74"/>
<text text-anchor="middle" x="1149.12" y="-50.98" font-family="Times New Roman,serif" font-size="12.00">Schedule Delivery</text>
</g>
<!-- 1990982042880 -->
<g id="node26" class="node">
<title>1990982042880</title>
<ellipse fill="white" stroke="black" cx="1264" cy="-58" rx="27" ry="27"/>
</g>
<!-- 1990982047536&#45;&gt;1990982042880 -->
<g id="edge14" class="edge">
<title>1990982047536&#45;&gt;1990982042880</title>
<path fill="none" stroke="black" d="M1201.28,-56.91C1209.41,-57.05 1217.69,-57.2 1225.44,-57.33"/>
<polygon fill="black" stroke="black" points="1225.12,-60.83 1235.18,-57.51 1225.25,-53.83 1225.12,-60.83"/>
</g>
<!-- 1990982055984 -->
<g id="node8" class="node">
<title>1990982055984</title>
<polygon fill="white" stroke="black" points="1415.75,-77 1327,-77 1327,-41 1415.75,-41 1415.75,-77"/>
<text text-anchor="middle" x="1371.38" y="-53.98" font-family="Times New Roman,serif" font-size="12.00">Supplier Match</text>
</g>
<!-- 1990982046432 -->
<g id="node27" class="node">
<title>1990982046432</title>
<ellipse fill="white" stroke="black" cx="1478.75" cy="-60" rx="27" ry="27"/>
</g>
<!-- 1990982055984&#45;&gt;1990982046432 -->
<g id="edge16" class="edge">
<title>1990982055984&#45;&gt;1990982046432</title>
<path fill="none" stroke="black" d="M1416.15,-59.42C1424.11,-59.49 1432.35,-59.57 1440.11,-59.64"/>
<polygon fill="black" stroke="black" points="1439.89,-63.14 1449.92,-59.74 1439.95,-56.14 1439.89,-63.14"/>
</g>
<!-- 1990981529632 -->
<g id="node9" class="node">
<title>1990981529632</title>
<polygon fill="white" stroke="black" points="1637.25,-78 1541.75,-78 1541.75,-42 1637.25,-42 1637.25,-78"/>
<text text-anchor="middle" x="1589.5" y="-54.98" font-family="Times New Roman,serif" font-size="12.00">Inventory Check</text>
</g>
<!-- 1990982045760 -->
<g id="node28" class="node">
<title>1990982045760</title>
<ellipse fill="white" stroke="black" cx="1700.25" cy="-60" rx="27" ry="27"/>
</g>
<!-- 1990981529632&#45;&gt;1990982045760 -->
<g id="edge18" class="edge">
<title>1990981529632&#45;&gt;1990982045760</title>
<path fill="none" stroke="black" d="M1637.57,-60C1645.57,-60 1653.79,-60 1661.52,-60"/>
<polygon fill="black" stroke="black" points="1661.25,-63.5 1671.25,-60 1661.25,-56.5 1661.25,-63.5"/>
</g>
<!-- 1990981523008 -->
<g id="node10" class="node">
<title>1990981523008</title>
<polygon fill="white" stroke="black" points="1858,-133 1763.25,-133 1763.25,-97 1858,-97 1858,-133"/>
<text text-anchor="middle" x="1810.62" y="-109.97" font-family="Times New Roman,serif" font-size="12.00">Ingredient Order</text>
</g>
<!-- 1990981523008&#45;&gt;1990982046432 -->
<g id="edge21" class="edge">
<title>1990981523008&#45;&gt;1990982046432</title>
<path fill="none" stroke="black" d="M1762.87,-114.42C1708.8,-112.77 1617.49,-106.94 1541.75,-87 1532.39,-84.53 1522.62,-80.86 1513.69,-77"/>
<polygon fill="black" stroke="black" points="1515.21,-73.85 1504.66,-72.91 1512.32,-80.23 1515.21,-73.85"/>
</g>
<!-- 1990981518160 -->
<g id="node11" class="node">
<title>1990981518160</title>
<polygon fill="white" stroke="black" points="1854.62,-78 1766.62,-78 1766.62,-42 1854.62,-42 1854.62,-78"/>
<text text-anchor="middle" x="1810.62" y="-54.98" font-family="Times New Roman,serif" font-size="12.00">Quality Inspect</text>
</g>
<!-- 1990981521520 -->
<g id="node29" class="node">
<title>1990981521520</title>
<ellipse fill="white" stroke="black" cx="1921" cy="-83" rx="27" ry="27"/>
</g>
<!-- 1990981518160&#45;&gt;1990981521520 -->
<g id="edge22" class="edge">
<title>1990981518160&#45;&gt;1990981521520</title>
<path fill="none" stroke="black" d="M1855.08,-69.22C1864.44,-71.21 1874.24,-73.29 1883.31,-75.21"/>
<polygon fill="black" stroke="black" points="1882.33,-78.58 1892.84,-77.24 1883.78,-71.74 1882.33,-78.58"/>
</g>
<!-- 1990981532320 -->
<g id="node12" class="node">
<title>1990981532320</title>
<polygon fill="white" stroke="black" points="2050.25,-113 1984,-113 1984,-77 2050.25,-77 2050.25,-113"/>
<text text-anchor="middle" x="2017.12" y="-89.97" font-family="Times New Roman,serif" font-size="12.00">Meal Pack</text>
</g>
<!-- 1990981529776 -->
<g id="node30" class="node">
<title>1990981529776</title>
<ellipse fill="white" stroke="black" cx="2113.25" cy="-101" rx="27" ry="27"/>
</g>
<!-- 1990981532320&#45;&gt;1990981529776 -->
<g id="edge24" class="edge">
<title>1990981532320&#45;&gt;1990981529776</title>
<path fill="none" stroke="black" d="M2050.52,-97.06C2058.31,-97.56 2066.69,-98.1 2074.69,-98.61"/>
<polygon fill="black" stroke="black" points="2074.32,-102.09 2084.52,-99.23 2074.76,-95.1 2074.32,-102.09"/>
</g>
<!-- 1990981526032 -->
<g id="node13" class="node">
<title>1990981526032</title>
<polygon fill="white" stroke="black" points="2244.75,-122 2176.25,-122 2176.25,-86 2244.75,-86 2244.75,-122"/>
<text text-anchor="middle" x="2210.5" y="-98.97" font-family="Times New Roman,serif" font-size="12.00">Route Plan</text>
</g>
<!-- 1990981528912 -->
<g id="node31" class="node">
<title>1990981528912</title>
<ellipse fill="white" stroke="black" cx="2307.75" cy="-105" rx="27" ry="27"/>
</g>
<!-- 1990981526032&#45;&gt;1990981528912 -->
<g id="edge26" class="edge">
<title>1990981526032&#45;&gt;1990981528912</title>
<path fill="none" stroke="black" d="M2245.08,-104.35C2252.85,-104.43 2261.18,-104.52 2269.11,-104.6"/>
<polygon fill="black" stroke="black" points="2268.8,-108.1 2278.83,-104.71 2268.87,-101.1 2268.8,-108.1"/>
</g>
<!-- 1990981520176 -->
<g id="node14" class="node">
<title>1990981520176</title>
<polygon fill="white" stroke="black" points="2446.75,-124 2370.75,-124 2370.75,-88 2446.75,-88 2446.75,-124"/>
<text text-anchor="middle" x="2408.75" y="-100.97" font-family="Times New Roman,serif" font-size="12.00">Dispatch Kit</text>
</g>
<!-- 1990981524400 -->
<g id="node32" class="node">
<title>1990981524400</title>
<ellipse fill="white" stroke="black" cx="2509.75" cy="-106" rx="27" ry="27"/>
</g>
<!-- 1990981520176&#45;&gt;1990981524400 -->
<g id="edge28" class="edge">
<title>1990981520176&#45;&gt;1990981524400</title>
<path fill="none" stroke="black" d="M2447.18,-106C2454.96,-106 2463.16,-106 2470.96,-106"/>
<polygon fill="black" stroke="black" points="2470.85,-109.5 2480.85,-106 2470.85,-102.5 2470.85,-109.5"/>
</g>
<!-- 1990981519504 -->
<g id="node15" class="node">
<title>1990981519504</title>
<polygon fill="white" stroke="black" points="2660.75,-124 2572.75,-124 2572.75,-88 2660.75,-88 2660.75,-124"/>
<text text-anchor="middle" x="2616.75" y="-100.97" font-family="Times New Roman,serif" font-size="12.00">Delivery Track</text>
</g>
<!-- 1990981525216 -->
<g id="node33" class="node">
<title>1990981525216</title>
<ellipse fill="white" stroke="black" cx="2723.75" cy="-107" rx="27" ry="27"/>
</g>
<!-- 1990981519504&#45;&gt;1990981525216 -->
<g id="edge30" class="edge">
<title>1990981519504&#45;&gt;1990981525216</title>
<path fill="none" stroke="black" d="M2661.06,-106.41C2669.02,-106.49 2677.26,-106.57 2685.03,-106.64"/>
<polygon fill="black" stroke="black" points="2684.82,-110.14 2694.85,-106.73 2684.89,-103.14 2684.82,-110.14"/>
</g>
<!-- 1990981531168 -->
<g id="node16" class="node">
<title>1990981531168</title>
<polygon fill="white" stroke="black" points="2885.25,-125 2786.75,-125 2786.75,-89 2885.25,-89 2885.25,-125"/>
<text text-anchor="middle" x="2836" y="-101.97" font-family="Times New Roman,serif" font-size="12.00">Feedback Collect</text>
</g>
<!-- 1990981521904 -->
<g id="node34" class="node">
<title>1990981521904</title>
<ellipse fill="white" stroke="black" cx="2948.25" cy="-107" rx="27" ry="27"/>
</g>
<!-- 1990981531168&#45;&gt;1990981521904 -->
<g id="edge32" class="edge">
<title>1990981531168&#45;&gt;1990981521904</title>
<path fill="none" stroke="black" d="M2885.68,-107C2893.63,-107 2901.76,-107 2909.4,-107"/>
<polygon fill="black" stroke="black" points="2909.39,-110.5 2919.39,-107 2909.39,-103.5 2909.39,-110.5"/>
</g>
<!-- 1990981527328 -->
<g id="node17" class="node">
<title>1990981527328</title>
<polygon fill="white" stroke="black" points="3092.5,-125 3011.25,-125 3011.25,-89 3092.5,-89 3092.5,-125"/>
<text text-anchor="middle" x="3051.88" y="-101.97" font-family="Times New Roman,serif" font-size="12.00">Data Analyze</text>
</g>
<!-- 1990981522432 -->
<g id="node35" class="node">
<title>1990981522432</title>
<ellipse fill="white" stroke="black" cx="3155.5" cy="-107" rx="27" ry="27"/>
</g>
<!-- 1990981527328&#45;&gt;1990981522432 -->
<g id="edge34" class="edge">
<title>1990981527328&#45;&gt;1990981522432</title>
<path fill="none" stroke="black" d="M3092.75,-107C3100.65,-107 3108.92,-107 3116.75,-107"/>
<polygon fill="black" stroke="black" points="3116.67,-110.5 3126.67,-107 3116.67,-103.5 3116.67,-110.5"/>
</g>
<!-- 1990981530448 -->
<g id="node18" class="node">
<title>1990981530448</title>
<polygon fill="white" stroke="black" points="3302,-152 3218.5,-152 3218.5,-116 3302,-116 3302,-152"/>
<text text-anchor="middle" x="3260.25" y="-128.97" font-family="Times New Roman,serif" font-size="12.00">Plan Optimize</text>
</g>
<!-- 1990981530448&#45;&gt;1990978748496 -->
<g id="edge36" class="edge">
<title>1990981530448&#45;&gt;1990978748496</title>
<path fill="none" stroke="black" d="M3218.36,-142.86C3176.88,-151.06 3110.73,-162 3052.88,-162 407.25,-162 407.25,-162 407.25,-162 350.54,-162 285.26,-153.48 245.32,-147.3"/>
<polygon fill="black" stroke="black" points="245.94,-143.85 235.51,-145.74 244.84,-150.77 245.94,-143.85"/>
</g>
<!-- 1990971926880 -->
<g id="node19" class="node">
<title>1990971926880</title>
<ellipse fill="white" stroke="black" cx="27" cy="-141" rx="27" ry="27"/>
<text text-anchor="start" x="9.75" y="-123.7" font-family="Times New Roman,serif" font-size="34.00">●</text>
</g>
<!-- 1990971926880&#45;&gt;1990971919536 -->
<g id="edge1" class="edge">
<title>1990971926880&#45;&gt;1990971919536</title>
<path fill="none" stroke="black" d="M54.4,-141C61.89,-141 70.18,-141 78.2,-141"/>
<polygon fill="black" stroke="black" points="78.1,-144.5 88.1,-141 78.1,-137.5 78.1,-144.5"/>
</g>
<!-- 1990978748496&#45;&gt;1990978186912 -->
<g id="edge3" class="edge">
<title>1990978748496&#45;&gt;1990978186912</title>
<path fill="none" stroke="black" d="M233.4,-133.53C241.18,-131.24 250.02,-128.64 258.79,-126.07"/>
<polygon fill="black" stroke="black" points="259.73,-129.44 268.33,-123.26 257.75,-122.72 259.73,-129.44"/>
</g>
<!-- 1990978190656&#45;&gt;1990971042576 -->
<g id="edge5" class="edge">
<title>1990978190656&#45;&gt;1990971042576</title>
<path fill="none" stroke="black" d="M435.54,-105.49C442.92,-105.35 451.23,-105.19 459.57,-105.02"/>
<polygon fill="black" stroke="black" points="459.46,-108.53 469.39,-104.83 459.32,-101.53 459.46,-108.53"/>
</g>
<!-- 1990979535120&#45;&gt;1990971032448 -->
<g id="edge8" class="edge">
<title>1990979535120&#45;&gt;1990971032448</title>
<path fill="none" stroke="black" d="M645.79,-103C657.67,-103 671.93,-103 684.91,-103"/>
<polygon fill="black" stroke="black" points="684.87,-106.5 694.87,-103 684.87,-99.5 684.87,-106.5"/>
</g>
<!-- 1990979535120&#45;&gt;1990982044992 -->
<g id="edge7" class="edge">
<title>1990979535120&#45;&gt;1990982044992</title>
<path fill="none" stroke="black" d="M641.88,-88.9C654.2,-81.13 669.84,-71.27 684.06,-62.31"/>
<polygon fill="black" stroke="black" points="685.75,-65.38 692.34,-57.09 682.02,-59.46 685.75,-65.38"/>
</g>
<!-- 1990982049312&#45;&gt;1990982049936 -->
<g id="edge11" class="edge">
<title>1990982049312&#45;&gt;1990982049936</title>
<path fill="none" stroke="black" d="M859.7,-31.38C868.41,-32.85 878.42,-34.54 888.21,-36.19"/>
<polygon fill="black" stroke="black" points="887.59,-39.63 898.04,-37.85 888.76,-32.73 887.59,-39.63"/>
</g>
<!-- 1990982049792&#45;&gt;1990982047536 -->
<g id="edge13" class="edge">
<title>1990982049792&#45;&gt;1990982047536</title>
<path fill="none" stroke="black" d="M1061.71,-52.94C1068.97,-53.2 1077.16,-53.49 1085.53,-53.78"/>
<polygon fill="black" stroke="black" points="1085.36,-57.28 1095.48,-54.13 1085.61,-50.28 1085.36,-57.28"/>
</g>
<!-- 1990982042880&#45;&gt;1990982055984 -->
<g id="edge15" class="edge">
<title>1990982042880&#45;&gt;1990982055984</title>
<path fill="none" stroke="black" d="M1291.32,-58.25C1298.69,-58.32 1307,-58.4 1315.38,-58.48"/>
<polygon fill="black" stroke="black" points="1315.24,-61.98 1325.27,-58.57 1315.3,-54.98 1315.24,-61.98"/>
</g>
<!-- 1990982046432&#45;&gt;1990981529632 -->
<g id="edge17" class="edge">
<title>1990982046432&#45;&gt;1990981529632</title>
<path fill="none" stroke="black" d="M1506.08,-60C1513.42,-60 1521.71,-60 1530.13,-60"/>
<polygon fill="black" stroke="black" points="1530.09,-63.5 1540.09,-60 1530.09,-56.5 1530.09,-63.5"/>
</g>
<!-- 1990982045760&#45;&gt;1990981523008 -->
<g id="edge20" class="edge">
<title>1990982045760&#45;&gt;1990981523008</title>
<path fill="none" stroke="black" d="M1724.77,-71.93C1736.08,-77.67 1750.05,-84.76 1763.36,-91.52"/>
<polygon fill="black" stroke="black" points="1761.51,-94.51 1772.01,-95.91 1764.68,-88.27 1761.51,-94.51"/>
</g>
<!-- 1990982045760&#45;&gt;1990981518160 -->
<g id="edge19" class="edge">
<title>1990982045760&#45;&gt;1990981518160</title>
<path fill="none" stroke="black" d="M1727.48,-60C1735.86,-60 1745.46,-60 1755.08,-60"/>
<polygon fill="black" stroke="black" points="1754.79,-63.5 1764.79,-60 1754.79,-56.5 1754.79,-63.5"/>
</g>
<!-- 1990981521520&#45;&gt;1990981532320 -->
<g id="edge23" class="edge">
<title>1990981521520&#45;&gt;1990981532320</title>
<path fill="none" stroke="black" d="M1948.22,-86.34C1955.77,-87.31 1964.23,-88.38 1972.53,-89.44"/>
<polygon fill="black" stroke="black" points="1971.81,-92.88 1982.17,-90.67 1972.69,-85.93 1971.81,-92.88"/>
</g>
<!-- 1990981529776&#45;&gt;1990981526032 -->
<g id="edge25" class="edge">
<title>1990981529776&#45;&gt;1990981526032</title>
<path fill="none" stroke="black" d="M2140.53,-101.83C2147.94,-102.06 2156.22,-102.32 2164.4,-102.58"/>
<polygon fill="black" stroke="black" points="2164.18,-106.07 2174.29,-102.89 2164.4,-99.08 2164.18,-106.07"/>
</g>
<!-- 1990981528912&#45;&gt;1990981520176 -->
<g id="edge27" class="edge">
<title>1990981528912&#45;&gt;1990981520176</title>
<path fill="none" stroke="black" d="M2335.02,-105.27C2342.5,-105.34 2350.9,-105.43 2359.26,-105.51"/>
<polygon fill="black" stroke="black" points="2359,-109.01 2369.03,-105.61 2359.07,-102.01 2359,-109.01"/>
</g>
<!-- 1990981524400&#45;&gt;1990981519504 -->
<g id="edge29" class="edge">
<title>1990981524400&#45;&gt;1990981519504</title>
<path fill="none" stroke="black" d="M2537.25,-106C2544.6,-106 2552.86,-106 2561.19,-106"/>
<polygon fill="black" stroke="black" points="2561,-109.5 2571,-106 2561,-102.5 2561,-109.5"/>
</g>
<!-- 1990981525216&#45;&gt;1990981531168 -->
<g id="edge31" class="edge">
<title>1990981525216&#45;&gt;1990981531168</title>
<path fill="none" stroke="black" d="M2751.16,-107C2758.43,-107 2766.62,-107 2774.97,-107"/>
<polygon fill="black" stroke="black" points="2774.86,-110.5 2784.86,-107 2774.86,-103.5 2774.86,-110.5"/>
</g>
<!-- 1990981521904&#45;&gt;1990981527328 -->
<g id="edge33" class="edge">
<title>1990981521904&#45;&gt;1990981527328</title>
<path fill="none" stroke="black" d="M2975.69,-107C2982.96,-107 2991.11,-107 2999.28,-107"/>
<polygon fill="black" stroke="black" points="2999.26,-110.5 3009.26,-107 2999.26,-103.5 2999.26,-110.5"/>
</g>
<!-- 1990981522432&#45;&gt;1990981530448 -->
<g id="edge35" class="edge">
<title>1990981522432&#45;&gt;1990981530448</title>
<path fill="none" stroke="black" d="M3181.9,-113.67C3189.59,-115.69 3198.33,-117.99 3207.1,-120.3"/>
<polygon fill="black" stroke="black" points="3206.13,-123.66 3216.69,-122.82 3207.91,-116.89 3206.13,-123.66"/>
</g>
</g>
</svg>
