<?xml version="1.0" encoding="UTF-8" standalone="no"?>
<!DOCTYPE svg PUBLIC "-//W3C//DTD SVG 1.1//EN"
 "http://www.w3.org/Graphics/SVG/1.1/DTD/svg11.dtd">
<!-- Generated by graphviz version 11.0.0 (20240428.1522)
 -->
<!-- Title: imdf_net_1754052874.6142066 Pages: 1 -->
<svg width="3073pt" height="134pt"
 viewBox="0.00 0.00 3072.75 134.00" xmlns="http://www.w3.org/2000/svg" xmlns:xlink="http://www.w3.org/1999/xlink">
<g id="graph0" class="graph" transform="scale(1 1) rotate(0) translate(4 130)">
<title>imdf_net_1754052874.6142066</title>
<polygon fill="white" stroke="none" points="-4,4 -4,-130 3068.75,-130 3068.75,4 -4,4"/>
<!-- 1990980174144 -->
<g id="node1" class="node">
<title>1990980174144</title>
<polygon fill="white" stroke="black" points="159.25,-81 90,-81 90,-45 159.25,-45 159.25,-81"/>
<text text-anchor="middle" x="124.62" y="-57.98" font-family="Times New Roman,serif" font-size="12.00">Site Assess</text>
</g>
<!-- 1990980177168 -->
<g id="node18" class="node">
<title>1990980177168</title>
<ellipse fill="white" stroke="black" cx="222.25" cy="-63" rx="27" ry="27"/>
</g>
<!-- 1990980174144&#45;&gt;1990980177168 -->
<g id="edge2" class="edge">
<title>1990980174144&#45;&gt;1990980177168</title>
<path fill="none" stroke="black" d="M159.61,-63C167.31,-63 175.53,-63 183.38,-63"/>
<polygon fill="black" stroke="black" points="183.38,-66.5 193.38,-63 183.38,-59.5 183.38,-66.5"/>
</g>
<!-- 1990980187440 -->
<g id="node2" class="node">
<title>1990980187440</title>
<polygon fill="white" stroke="black" points="359,-81 285.25,-81 285.25,-45 359,-45 359,-81"/>
<text text-anchor="middle" x="322.12" y="-57.98" font-family="Times New Roman,serif" font-size="12.00">Plan Layout</text>
</g>
<!-- 1990980579312 -->
<g id="node19" class="node">
<title>1990980579312</title>
<ellipse fill="white" stroke="black" cx="422" cy="-63" rx="27" ry="27"/>
</g>
<!-- 1990980187440&#45;&gt;1990980579312 -->
<g id="edge4" class="edge">
<title>1990980187440&#45;&gt;1990980579312</title>
<path fill="none" stroke="black" d="M359.29,-63C367.19,-63 375.58,-63 383.53,-63"/>
<polygon fill="black" stroke="black" points="383.25,-66.5 393.25,-63 383.25,-59.5 383.25,-66.5"/>
</g>
<!-- 1990980576480 -->
<g id="node3" class="node">
<title>1990980576480</title>
<polygon fill="white" stroke="black" points="561.75,-81 485,-81 485,-45 561.75,-45 561.75,-81"/>
<text text-anchor="middle" x="523.38" y="-57.98" font-family="Times New Roman,serif" font-size="12.00">Install Racks</text>
</g>
<!-- 1990980574464 -->
<g id="node20" class="node">
<title>1990980574464</title>
<ellipse fill="white" stroke="black" cx="624.75" cy="-63" rx="27" ry="27"/>
</g>
<!-- 1990980576480&#45;&gt;1990980574464 -->
<g id="edge6" class="edge">
<title>1990980576480&#45;&gt;1990980574464</title>
<path fill="none" stroke="black" d="M562.23,-63C570.02,-63 578.23,-63 586.02,-63"/>
<polygon fill="black" stroke="black" points="585.9,-66.5 595.9,-63 585.9,-59.5 585.9,-66.5"/>
</g>
<!-- 1990980580512 -->
<g id="node4" class="node">
<title>1990980580512</title>
<polygon fill="white" stroke="black" points="769.75,-81 687.75,-81 687.75,-45 769.75,-45 769.75,-81"/>
<text text-anchor="middle" x="728.75" y="-57.98" font-family="Times New Roman,serif" font-size="12.00">Mix Nutrients</text>
</g>
<!-- 1990980581712 -->
<g id="node21" class="node">
<title>1990980581712</title>
<ellipse fill="white" stroke="black" cx="832.75" cy="-63" rx="27" ry="27"/>
</g>
<!-- 1990980580512&#45;&gt;1990980581712 -->
<g id="edge8" class="edge">
<title>1990980580512&#45;&gt;1990980581712</title>
<path fill="none" stroke="black" d="M770.06,-63C777.98,-63 786.25,-63 794.07,-63"/>
<polygon fill="black" stroke="black" points="793.98,-66.5 803.98,-63 793.98,-59.5 793.98,-66.5"/>
</g>
<!-- 1990980576912 -->
<g id="node5" class="node">
<title>1990980576912</title>
<polygon fill="white" stroke="black" points="994.25,-81 895.75,-81 895.75,-45 994.25,-45 994.25,-81"/>
<text text-anchor="middle" x="945" y="-57.98" font-family="Times New Roman,serif" font-size="12.00">Calibrate Sensors</text>
</g>
<!-- 1990979541408 -->
<g id="node22" class="node">
<title>1990979541408</title>
<ellipse fill="white" stroke="black" cx="1057.25" cy="-99" rx="27" ry="27"/>
</g>
<!-- 1990980576912&#45;&gt;1990979541408 -->
<g id="edge10" class="edge">
<title>1990980576912&#45;&gt;1990979541408</title>
<path fill="none" stroke="black" d="M994.68,-78.89C1003.32,-81.72 1012.18,-84.61 1020.39,-87.29"/>
<polygon fill="black" stroke="black" points="1019.07,-90.54 1029.66,-90.32 1021.24,-83.89 1019.07,-90.54"/>
</g>
<!-- 1990980572640 -->
<g id="node23" class="node">
<title>1990980572640</title>
<ellipse fill="white" stroke="black" cx="1057.25" cy="-27" rx="27" ry="27"/>
</g>
<!-- 1990980576912&#45;&gt;1990980572640 -->
<g id="edge11" class="edge">
<title>1990980576912&#45;&gt;1990980572640</title>
<path fill="none" stroke="black" d="M994.68,-47.11C1003.32,-44.28 1012.18,-41.39 1020.39,-38.71"/>
<polygon fill="black" stroke="black" points="1021.24,-42.11 1029.66,-35.68 1019.07,-35.46 1021.24,-42.11"/>
</g>
<!-- 1990980575424 -->
<g id="node6" class="node">
<title>1990980575424</title>
<polygon fill="white" stroke="black" points="1215.38,-45 1128.88,-45 1128.88,-9 1215.38,-9 1215.38,-45"/>
<text text-anchor="middle" x="1172.12" y="-21.98" font-family="Times New Roman,serif" font-size="12.00">Setup Lighting</text>
</g>
<!-- 1990971919872 -->
<g id="node24" class="node">
<title>1990971919872</title>
<ellipse fill="white" stroke="black" cx="1287" cy="-27" rx="27" ry="27"/>
</g>
<!-- 1990980575424&#45;&gt;1990971919872 -->
<g id="edge14" class="edge">
<title>1990980575424&#45;&gt;1990971919872</title>
<path fill="none" stroke="black" d="M1215.8,-27C1226.5,-27 1237.91,-27 1248.35,-27"/>
<polygon fill="black" stroke="black" points="1248.12,-30.5 1258.12,-27 1248.12,-23.5 1248.12,-30.5"/>
</g>
<!-- 1990979535168 -->
<g id="node7" class="node">
<title>1990979535168</title>
<polygon fill="white" stroke="black" points="1224,-117 1120.25,-117 1120.25,-81 1224,-81 1224,-117"/>
<text text-anchor="middle" x="1172.12" y="-93.97" font-family="Times New Roman,serif" font-size="12.00">Configure Climate</text>
</g>
<!-- 1990971930576 -->
<g id="node25" class="node">
<title>1990971930576</title>
<ellipse fill="white" stroke="black" cx="1287" cy="-99" rx="27" ry="27"/>
</g>
<!-- 1990979535168&#45;&gt;1990971930576 -->
<g id="edge15" class="edge">
<title>1990979535168&#45;&gt;1990971930576</title>
<path fill="none" stroke="black" d="M1224.28,-99C1232.41,-99 1240.69,-99 1248.44,-99"/>
<polygon fill="black" stroke="black" points="1248.18,-102.5 1258.18,-99 1248.18,-95.5 1248.18,-102.5"/>
</g>
<!-- 1990978182784 -->
<g id="node8" class="node">
<title>1990978182784</title>
<polygon fill="white" stroke="black" points="1425.25,-81 1350,-81 1350,-45 1425.25,-45 1425.25,-81"/>
<text text-anchor="middle" x="1387.62" y="-57.98" font-family="Times New Roman,serif" font-size="12.00">Select Seeds</text>
</g>
<!-- 1990978190752 -->
<g id="node26" class="node">
<title>1990978190752</title>
<ellipse fill="white" stroke="black" cx="1488.25" cy="-63" rx="27" ry="27"/>
</g>
<!-- 1990978182784&#45;&gt;1990978190752 -->
<g id="edge18" class="edge">
<title>1990978182784&#45;&gt;1990978190752</title>
<path fill="none" stroke="black" d="M1425.63,-63C1433.4,-63 1441.6,-63 1449.4,-63"/>
<polygon fill="black" stroke="black" points="1449.3,-66.5 1459.3,-63 1449.3,-59.5 1449.3,-66.5"/>
</g>
<!-- 1990978178032 -->
<g id="node9" class="node">
<title>1990978178032</title>
<polygon fill="white" stroke="black" points="1658,-81 1551.25,-81 1551.25,-45 1658,-45 1658,-81"/>
<text text-anchor="middle" x="1604.62" y="-57.98" font-family="Times New Roman,serif" font-size="12.00">Monitor Germinate</text>
</g>
<!-- 1990981482688 -->
<g id="node27" class="node">
<title>1990981482688</title>
<ellipse fill="white" stroke="black" cx="1721" cy="-63" rx="27" ry="27"/>
</g>
<!-- 1990978178032&#45;&gt;1990981482688 -->
<g id="edge20" class="edge">
<title>1990978178032&#45;&gt;1990981482688</title>
<path fill="none" stroke="black" d="M1658.46,-63C1666.45,-63 1674.55,-63 1682.14,-63"/>
<polygon fill="black" stroke="black" points="1682.04,-66.5 1692.04,-63 1682.04,-59.5 1682.04,-66.5"/>
</g>
<!-- 1990981471840 -->
<g id="node10" class="node">
<title>1990981471840</title>
<polygon fill="white" stroke="black" points="1865.25,-81 1784,-81 1784,-45 1865.25,-45 1865.25,-81"/>
<text text-anchor="middle" x="1824.62" y="-57.98" font-family="Times New Roman,serif" font-size="12.00">Analyze Data</text>
</g>
<!-- 1990981474864 -->
<g id="node28" class="node">
<title>1990981474864</title>
<ellipse fill="white" stroke="black" cx="1928.25" cy="-99" rx="27" ry="27"/>
</g>
<!-- 1990981471840&#45;&gt;1990981474864 -->
<g id="edge23" class="edge">
<title>1990981471840&#45;&gt;1990981474864</title>
<path fill="none" stroke="black" d="M1865.5,-77.12C1874.16,-80.19 1883.26,-83.42 1891.74,-86.42"/>
<polygon fill="black" stroke="black" points="1890.42,-89.67 1901.01,-89.71 1892.75,-83.07 1890.42,-89.67"/>
</g>
<!-- 1990981481968 -->
<g id="node29" class="node">
<title>1990981481968</title>
<ellipse fill="white" stroke="black" cx="1928.25" cy="-27" rx="27" ry="27"/>
</g>
<!-- 1990981471840&#45;&gt;1990981481968 -->
<g id="edge22" class="edge">
<title>1990981471840&#45;&gt;1990981481968</title>
<path fill="none" stroke="black" d="M1865.5,-48.88C1874.16,-45.81 1883.26,-42.58 1891.74,-39.58"/>
<polygon fill="black" stroke="black" points="1892.75,-42.93 1901.01,-36.29 1890.42,-36.33 1892.75,-42.93"/>
</g>
<!-- 1990981479472 -->
<g id="node11" class="node">
<title>1990981479472</title>
<polygon fill="white" stroke="black" points="2098.75,-45 1991.25,-45 1991.25,-9 2098.75,-9 2098.75,-45"/>
<text text-anchor="middle" x="2045" y="-21.98" font-family="Times New Roman,serif" font-size="12.00">Apply Bio&#45;controls</text>
</g>
<!-- 1990976305584 -->
<g id="node30" class="node">
<title>1990976305584</title>
<ellipse fill="white" stroke="black" cx="2161.75" cy="-27" rx="27" ry="27"/>
</g>
<!-- 1990981479472&#45;&gt;1990976305584 -->
<g id="edge27" class="edge">
<title>1990981479472&#45;&gt;1990976305584</title>
<path fill="none" stroke="black" d="M2099.01,-27C2107.2,-27 2115.51,-27 2123.26,-27"/>
<polygon fill="black" stroke="black" points="2123.01,-30.5 2133.01,-27 2123.01,-23.5 2123.01,-30.5"/>
</g>
<!-- 1990981468720 -->
<g id="node12" class="node">
<title>1990981468720</title>
<polygon fill="white" stroke="black" points="2095,-117 1995,-117 1995,-81 2095,-81 2095,-117"/>
<text text-anchor="middle" x="2045" y="-93.97" font-family="Times New Roman,serif" font-size="12.00">Maintain Systems</text>
</g>
<!-- 1990976297952 -->
<g id="node31" class="node">
<title>1990976297952</title>
<ellipse fill="white" stroke="black" cx="2161.75" cy="-99" rx="27" ry="27"/>
</g>
<!-- 1990981468720&#45;&gt;1990976297952 -->
<g id="edge26" class="edge">
<title>1990981468720&#45;&gt;1990976297952</title>
<path fill="none" stroke="black" d="M2095.33,-99C2104.71,-99 2114.38,-99 2123.31,-99"/>
<polygon fill="black" stroke="black" points="2123.03,-102.5 2133.03,-99 2123.03,-95.5 2123.03,-102.5"/>
</g>
<!-- 1990979856160 -->
<g id="node13" class="node">
<title>1990979856160</title>
<polygon fill="white" stroke="black" points="2309,-81 2224.75,-81 2224.75,-45 2309,-45 2309,-81"/>
<text text-anchor="middle" x="2266.88" y="-57.98" font-family="Times New Roman,serif" font-size="12.00">Harvest Crops</text>
</g>
<!-- 1990979854864 -->
<g id="node32" class="node">
<title>1990979854864</title>
<ellipse fill="white" stroke="black" cx="2372" cy="-63" rx="27" ry="27"/>
</g>
<!-- 1990979856160&#45;&gt;1990979854864 -->
<g id="edge30" class="edge">
<title>1990979856160&#45;&gt;1990979854864</title>
<path fill="none" stroke="black" d="M2309.23,-63C2317.19,-63 2325.49,-63 2333.33,-63"/>
<polygon fill="black" stroke="black" points="2333.25,-66.5 2343.25,-63 2333.25,-59.5 2333.25,-66.5"/>
</g>
<!-- 1990980894640 -->
<g id="node14" class="node">
<title>1990980894640</title>
<polygon fill="white" stroke="black" points="2520,-81 2435,-81 2435,-45 2520,-45 2520,-81"/>
<text text-anchor="middle" x="2477.5" y="-57.98" font-family="Times New Roman,serif" font-size="12.00">Quality Check</text>
</g>
<!-- 1990980886912 -->
<g id="node33" class="node">
<title>1990980886912</title>
<ellipse fill="white" stroke="black" cx="2583" cy="-63" rx="27" ry="27"/>
</g>
<!-- 1990980894640&#45;&gt;1990980886912 -->
<g id="edge32" class="edge">
<title>1990980894640&#45;&gt;1990980886912</title>
<path fill="none" stroke="black" d="M2520.3,-63C2528.2,-63 2536.42,-63 2544.18,-63"/>
<polygon fill="black" stroke="black" points="2544.01,-66.5 2554.01,-63 2544.01,-59.5 2544.01,-66.5"/>
</g>
<!-- 1990980887824 -->
<g id="node15" class="node">
<title>1990980887824</title>
<polygon fill="white" stroke="black" points="2743.75,-81 2646,-81 2646,-45 2743.75,-45 2743.75,-81"/>
<text text-anchor="middle" x="2694.88" y="-57.98" font-family="Times New Roman,serif" font-size="12.00">Package Produce</text>
</g>
<!-- 1990971919104 -->
<g id="node34" class="node">
<title>1990971919104</title>
<ellipse fill="white" stroke="black" cx="2806.75" cy="-63" rx="27" ry="27"/>
</g>
<!-- 1990980887824&#45;&gt;1990971919104 -->
<g id="edge34" class="edge">
<title>1990980887824&#45;&gt;1990971919104</title>
<path fill="none" stroke="black" d="M2744.07,-63C2752.11,-63 2760.35,-63 2768.07,-63"/>
<polygon fill="black" stroke="black" points="2767.81,-66.5 2777.81,-63 2767.81,-59.5 2767.81,-66.5"/>
</g>
<!-- 1990971927744 -->
<g id="node16" class="node">
<title>1990971927744</title>
<polygon fill="white" stroke="black" points="2966.75,-81 2869.75,-81 2869.75,-45 2966.75,-45 2966.75,-81"/>
<text text-anchor="middle" x="2918.25" y="-57.98" font-family="Times New Roman,serif" font-size="12.00">Distribute Goods</text>
</g>
<!-- 1990982531648 -->
<g id="node35" class="node">
<title>1990982531648</title>
<ellipse fill="white" stroke="black" cx="3033.75" cy="-63" rx="27" ry="27"/>
<ellipse fill="none" stroke="black" cx="3033.75" cy="-63" rx="31" ry="31"/>
<text text-anchor="start" x="3017.25" y="-47.6" font-family="Times New Roman,serif" font-size="32.00">■</text>
</g>
<!-- 1990971927744&#45;&gt;1990982531648 -->
<g id="edge36" class="edge">
<title>1990971927744&#45;&gt;1990982531648</title>
<path fill="none" stroke="black" d="M2967.06,-63C2975.02,-63 2983.23,-63 2991.03,-63"/>
<polygon fill="black" stroke="black" points="2990.95,-66.5 3000.95,-63 2990.95,-59.5 2990.95,-66.5"/>
</g>
<!-- 1990982530832 -->
<g id="node17" class="node">
<title>1990982530832</title>
<ellipse fill="white" stroke="black" cx="27" cy="-63" rx="27" ry="27"/>
<text text-anchor="start" x="9.75" y="-45.7" font-family="Times New Roman,serif" font-size="34.00">●</text>
</g>
<!-- 1990982530832&#45;&gt;1990980174144 -->
<g id="edge1" class="edge">
<title>1990982530832&#45;&gt;1990980174144</title>
<path fill="none" stroke="black" d="M54.38,-63C61.82,-63 70.14,-63 78.35,-63"/>
<polygon fill="black" stroke="black" points="78.28,-66.5 88.28,-63 78.28,-59.5 78.28,-66.5"/>
</g>
<!-- 1990980177168&#45;&gt;1990980187440 -->
<g id="edge3" class="edge">
<title>1990980177168&#45;&gt;1990980187440</title>
<path fill="none" stroke="black" d="M249.74,-63C257.12,-63 265.38,-63 273.59,-63"/>
<polygon fill="black" stroke="black" points="273.55,-66.5 283.55,-63 273.55,-59.5 273.55,-66.5"/>
</g>
<!-- 1990980579312&#45;&gt;1990980576480 -->
<g id="edge5" class="edge">
<title>1990980579312&#45;&gt;1990980576480</title>
<path fill="none" stroke="black" d="M449.37,-63C456.72,-63 464.94,-63 473.15,-63"/>
<polygon fill="black" stroke="black" points="473.14,-66.5 483.14,-63 473.14,-59.5 473.14,-66.5"/>
</g>
<!-- 1990980574464&#45;&gt;1990980580512 -->
<g id="edge7" class="edge">
<title>1990980574464&#45;&gt;1990980580512</title>
<path fill="none" stroke="black" d="M652.02,-63C659.4,-63 667.7,-63 676.03,-63"/>
<polygon fill="black" stroke="black" points="675.8,-66.5 685.8,-63 675.8,-59.5 675.8,-66.5"/>
</g>
<!-- 1990980581712&#45;&gt;1990980576912 -->
<g id="edge9" class="edge">
<title>1990980581712&#45;&gt;1990980576912</title>
<path fill="none" stroke="black" d="M860.16,-63C867.43,-63 875.62,-63 883.97,-63"/>
<polygon fill="black" stroke="black" points="883.86,-66.5 893.86,-63 883.86,-59.5 883.86,-66.5"/>
</g>
<!-- 1990979541408&#45;&gt;1990979535168 -->
<g id="edge13" class="edge">
<title>1990979541408&#45;&gt;1990979535168</title>
<path fill="none" stroke="black" d="M1084.71,-99C1091.97,-99 1100.16,-99 1108.53,-99"/>
<polygon fill="black" stroke="black" points="1108.48,-102.5 1118.48,-99 1108.48,-95.5 1108.48,-102.5"/>
</g>
<!-- 1990980572640&#45;&gt;1990980575424 -->
<g id="edge12" class="edge">
<title>1990980572640&#45;&gt;1990980575424</title>
<path fill="none" stroke="black" d="M1084.71,-27C1094.49,-27 1105.95,-27 1117.28,-27"/>
<polygon fill="black" stroke="black" points="1116.97,-30.5 1126.97,-27 1116.97,-23.5 1116.97,-30.5"/>
</g>
<!-- 1990971919872&#45;&gt;1990978182784 -->
<g id="edge16" class="edge">
<title>1990971919872&#45;&gt;1990978182784</title>
<path fill="none" stroke="black" d="M1312.89,-36.08C1320.93,-39.02 1330.12,-42.38 1339.23,-45.7"/>
<polygon fill="black" stroke="black" points="1337.8,-48.9 1348.39,-49.04 1340.2,-42.33 1337.8,-48.9"/>
</g>
<!-- 1990971930576&#45;&gt;1990978182784 -->
<g id="edge17" class="edge">
<title>1990971930576&#45;&gt;1990978182784</title>
<path fill="none" stroke="black" d="M1312.89,-89.92C1320.93,-86.98 1330.12,-83.62 1339.23,-80.3"/>
<polygon fill="black" stroke="black" points="1340.2,-83.67 1348.39,-76.96 1337.8,-77.1 1340.2,-83.67"/>
</g>
<!-- 1990978190752&#45;&gt;1990978178032 -->
<g id="edge19" class="edge">
<title>1990978190752&#45;&gt;1990978178032</title>
<path fill="none" stroke="black" d="M1515.49,-63C1522.83,-63 1531.14,-63 1539.65,-63"/>
<polygon fill="black" stroke="black" points="1539.38,-66.5 1549.38,-63 1539.38,-59.5 1539.38,-66.5"/>
</g>
<!-- 1990981482688&#45;&gt;1990981471840 -->
<g id="edge21" class="edge">
<title>1990981482688&#45;&gt;1990981471840</title>
<path fill="none" stroke="black" d="M1748.44,-63C1755.71,-63 1763.86,-63 1772.03,-63"/>
<polygon fill="black" stroke="black" points="1772.01,-66.5 1782.01,-63 1772.01,-59.5 1772.01,-66.5"/>
</g>
<!-- 1990981474864&#45;&gt;1990981468720 -->
<g id="edge25" class="edge">
<title>1990981474864&#45;&gt;1990981468720</title>
<path fill="none" stroke="black" d="M1955.58,-99C1963.95,-99 1973.58,-99 1983.34,-99"/>
<polygon fill="black" stroke="black" points="1983.27,-102.5 1993.27,-99 1983.27,-95.5 1983.27,-102.5"/>
</g>
<!-- 1990981481968&#45;&gt;1990981479472 -->
<g id="edge24" class="edge">
<title>1990981481968&#45;&gt;1990981479472</title>
<path fill="none" stroke="black" d="M1955.58,-27C1962.94,-27 1971.27,-27 1979.82,-27"/>
<polygon fill="black" stroke="black" points="1979.58,-30.5 1989.58,-27 1979.58,-23.5 1979.58,-30.5"/>
</g>
<!-- 1990976305584&#45;&gt;1990979856160 -->
<g id="edge28" class="edge">
<title>1990976305584&#45;&gt;1990979856160</title>
<path fill="none" stroke="black" d="M2187.71,-35.71C2195.68,-38.5 2204.82,-41.69 2213.97,-44.88"/>
<polygon fill="black" stroke="black" points="2212.63,-48.12 2223.22,-48.11 2214.93,-41.51 2212.63,-48.12"/>
</g>
<!-- 1990976297952&#45;&gt;1990979856160 -->
<g id="edge29" class="edge">
<title>1990976297952&#45;&gt;1990979856160</title>
<path fill="none" stroke="black" d="M2187.71,-90.29C2195.68,-87.5 2204.82,-84.31 2213.97,-81.12"/>
<polygon fill="black" stroke="black" points="2214.93,-84.49 2223.22,-77.89 2212.63,-77.88 2214.93,-84.49"/>
</g>
<!-- 1990979854864&#45;&gt;1990980894640 -->
<g id="edge31" class="edge">
<title>1990979854864&#45;&gt;1990980894640</title>
<path fill="none" stroke="black" d="M2399.39,-63C2406.8,-63 2415.13,-63 2423.51,-63"/>
<polygon fill="black" stroke="black" points="2423.36,-66.5 2433.36,-63 2423.36,-59.5 2423.36,-66.5"/>
</g>
<!-- 1990980886912&#45;&gt;1990980887824 -->
<g id="edge33" class="edge">
<title>1990980886912&#45;&gt;1990980887824</title>
<path fill="none" stroke="black" d="M2610.32,-63C2617.65,-63 2625.93,-63 2634.35,-63"/>
<polygon fill="black" stroke="black" points="2634.33,-66.5 2644.33,-63 2634.33,-59.5 2634.33,-66.5"/>
</g>
<!-- 1990971919104&#45;&gt;1990971927744 -->
<g id="edge35" class="edge">
<title>1990971919104&#45;&gt;1990971927744</title>
<path fill="none" stroke="black" d="M2833.98,-63C2841.29,-63 2849.53,-63 2857.93,-63"/>
<polygon fill="black" stroke="black" points="2857.87,-66.5 2867.87,-63 2857.87,-59.5 2857.87,-66.5"/>
</g>
</g>
</svg>
