<?xml version="1.0" encoding="UTF-8" standalone="no"?>
<!DOCTYPE svg PUBLIC "-//W3C//DTD SVG 1.1//EN"
 "http://www.w3.org/Graphics/SVG/1.1/DTD/svg11.dtd">
<!-- Generated by graphviz version 11.0.0 (20240428.1522)
 -->
<!-- Title: imdf_net_1754052876.6562338 Pages: 1 -->
<svg width="3166pt" height="162pt"
 viewBox="0.00 0.00 3166.25 162.00" xmlns="http://www.w3.org/2000/svg" xmlns:xlink="http://www.w3.org/1999/xlink">
<g id="graph0" class="graph" transform="scale(1 1) rotate(0) translate(4 158)">
<title>imdf_net_1754052876.6562338</title>
<polygon fill="white" stroke="none" points="-4,4 -4,-158 3162.25,-158 3162.25,4 -4,4"/>
<!-- 1990975912320 -->
<g id="node1" class="node">
<title>1990975912320</title>
<polygon fill="white" stroke="black" points="160.75,-109 90,-109 90,-73 160.75,-73 160.75,-109"/>
<text text-anchor="middle" x="125.38" y="-85.97" font-family="Times New Roman,serif" font-size="12.00">Site Survey</text>
</g>
<!-- 1990975901520 -->
<g id="node20" class="node">
<title>1990975901520</title>
<ellipse fill="white" stroke="black" cx="223.75" cy="-91" rx="27" ry="27"/>
</g>
<!-- 1990975912320&#45;&gt;1990975901520 -->
<g id="edge2" class="edge">
<title>1990975912320&#45;&gt;1990975901520</title>
<path fill="none" stroke="black" d="M161.17,-91C168.9,-91 177.14,-91 184.98,-91"/>
<polygon fill="black" stroke="black" points="184.97,-94.5 194.97,-91 184.97,-87.5 184.97,-94.5"/>
</g>
<!-- 1990975902192 -->
<g id="node2" class="node">
<title>1990975902192</title>
<polygon fill="white" stroke="black" points="366.5,-109 286.75,-109 286.75,-73 366.5,-73 366.5,-109"/>
<text text-anchor="middle" x="326.62" y="-85.97" font-family="Times New Roman,serif" font-size="12.00">Env Analysis</text>
</g>
<!-- 1990975911744 -->
<g id="node21" class="node">
<title>1990975911744</title>
<ellipse fill="white" stroke="black" cx="429.5" cy="-91" rx="27" ry="27"/>
</g>
<!-- 1990975902192&#45;&gt;1990975911744 -->
<g id="edge4" class="edge">
<title>1990975902192&#45;&gt;1990975911744</title>
<path fill="none" stroke="black" d="M366.91,-91C374.78,-91 383.02,-91 390.82,-91"/>
<polygon fill="black" stroke="black" points="390.72,-94.5 400.72,-91 390.72,-87.5 390.72,-94.5"/>
</g>
<!-- 1990978751040 -->
<g id="node3" class="node">
<title>1990978751040</title>
<polygon fill="white" stroke="black" points="578.25,-109 492.5,-109 492.5,-73 578.25,-73 578.25,-109"/>
<text text-anchor="middle" x="535.38" y="-85.97" font-family="Times New Roman,serif" font-size="12.00">Modular Build</text>
</g>
<!-- 1990975761552 -->
<g id="node22" class="node">
<title>1990975761552</title>
<ellipse fill="white" stroke="black" cx="641.25" cy="-91" rx="27" ry="27"/>
</g>
<!-- 1990978751040&#45;&gt;1990975761552 -->
<g id="edge6" class="edge">
<title>1990978751040&#45;&gt;1990975761552</title>
<path fill="none" stroke="black" d="M578.62,-91C586.53,-91 594.75,-91 602.51,-91"/>
<polygon fill="black" stroke="black" points="602.32,-94.5 612.32,-91 602.32,-87.5 602.32,-94.5"/>
</g>
<!-- 1990975752144 -->
<g id="node4" class="node">
<title>1990975752144</title>
<polygon fill="white" stroke="black" points="807.25,-109 704.25,-109 704.25,-73 807.25,-73 807.25,-109"/>
<text text-anchor="middle" x="755.75" y="-85.97" font-family="Times New Roman,serif" font-size="12.00">Hydroponic Setup</text>
</g>
<!-- 1990975986368 -->
<g id="node23" class="node">
<title>1990975986368</title>
<ellipse fill="white" stroke="black" cx="870.25" cy="-91" rx="27" ry="27"/>
</g>
<!-- 1990975752144&#45;&gt;1990975986368 -->
<g id="edge8" class="edge">
<title>1990975752144&#45;&gt;1990975986368</title>
<path fill="none" stroke="black" d="M807.73,-91C815.75,-91 823.9,-91 831.54,-91"/>
<polygon fill="black" stroke="black" points="831.52,-94.5 841.52,-91 831.52,-87.5 831.52,-94.5"/>
</g>
<!-- 1990975992656 -->
<g id="node5" class="node">
<title>1990975992656</title>
<polygon fill="white" stroke="black" points="1004,-109 933.25,-109 933.25,-73 1004,-73 1004,-109"/>
<text text-anchor="middle" x="968.62" y="-85.97" font-family="Times New Roman,serif" font-size="12.00">Seed Select</text>
</g>
<!-- 1990975995344 -->
<g id="node24" class="node">
<title>1990975995344</title>
<ellipse fill="white" stroke="black" cx="1067" cy="-91" rx="27" ry="27"/>
</g>
<!-- 1990975992656&#45;&gt;1990975995344 -->
<g id="edge10" class="edge">
<title>1990975992656&#45;&gt;1990975995344</title>
<path fill="none" stroke="black" d="M1004.42,-91C1012.15,-91 1020.39,-91 1028.23,-91"/>
<polygon fill="black" stroke="black" points="1028.22,-94.5 1038.22,-91 1028.22,-87.5 1028.22,-94.5"/>
</g>
<!-- 1990975993568 -->
<g id="node6" class="node">
<title>1990975993568</title>
<polygon fill="white" stroke="black" points="1209.75,-109 1130,-109 1130,-73 1209.75,-73 1209.75,-109"/>
<text text-anchor="middle" x="1169.88" y="-85.97" font-family="Times New Roman,serif" font-size="12.00">Nutrient Prep</text>
</g>
<!-- 1990975995296 -->
<g id="node25" class="node">
<title>1990975995296</title>
<ellipse fill="white" stroke="black" cx="1272.75" cy="-91" rx="27" ry="27"/>
</g>
<!-- 1990975993568&#45;&gt;1990975995296 -->
<g id="edge12" class="edge">
<title>1990975993568&#45;&gt;1990975995296</title>
<path fill="none" stroke="black" d="M1210.16,-91C1218.03,-91 1226.27,-91 1234.07,-91"/>
<polygon fill="black" stroke="black" points="1233.97,-94.5 1243.97,-91 1233.97,-87.5 1233.97,-94.5"/>
</g>
<!-- 1990975993952 -->
<g id="node7" class="node">
<title>1990975993952</title>
<polygon fill="white" stroke="black" points="1434.25,-109 1335.75,-109 1335.75,-73 1434.25,-73 1434.25,-109"/>
<text text-anchor="middle" x="1385" y="-85.97" font-family="Times New Roman,serif" font-size="12.00">Climate Calibrate</text>
</g>
<!-- 1990975990400 -->
<g id="node26" class="node">
<title>1990975990400</title>
<ellipse fill="white" stroke="black" cx="1497.25" cy="-127" rx="27" ry="27"/>
</g>
<!-- 1990975993952&#45;&gt;1990975990400 -->
<g id="edge14" class="edge">
<title>1990975993952&#45;&gt;1990975990400</title>
<path fill="none" stroke="black" d="M1434.68,-106.89C1443.32,-109.72 1452.18,-112.61 1460.39,-115.29"/>
<polygon fill="black" stroke="black" points="1459.07,-118.54 1469.66,-118.32 1461.24,-111.89 1459.07,-118.54"/>
</g>
<!-- 1990975987040 -->
<g id="node27" class="node">
<title>1990975987040</title>
<ellipse fill="white" stroke="black" cx="1497.25" cy="-55" rx="27" ry="27"/>
</g>
<!-- 1990975993952&#45;&gt;1990975987040 -->
<g id="edge15" class="edge">
<title>1990975993952&#45;&gt;1990975987040</title>
<path fill="none" stroke="black" d="M1434.68,-75.11C1443.32,-72.28 1452.18,-69.39 1460.39,-66.71"/>
<polygon fill="black" stroke="black" points="1461.24,-70.11 1469.66,-63.68 1459.07,-63.46 1461.24,-70.11"/>
</g>
<!-- 1990980122288 -->
<g id="node8" class="node">
<title>1990980122288</title>
<polygon fill="white" stroke="black" points="1643,-145 1560.25,-145 1560.25,-109 1643,-109 1643,-145"/>
<text text-anchor="middle" x="1601.62" y="-121.97" font-family="Times New Roman,serif" font-size="12.00">AI Integration</text>
</g>
<!-- 1990980110672 -->
<g id="node28" class="node">
<title>1990980110672</title>
<ellipse fill="white" stroke="black" cx="1706" cy="-127" rx="27" ry="27"/>
</g>
<!-- 1990980122288&#45;&gt;1990980110672 -->
<g id="edge18" class="edge">
<title>1990980122288&#45;&gt;1990980110672</title>
<path fill="none" stroke="black" d="M1643.38,-127C1651.23,-127 1659.42,-127 1667.17,-127"/>
<polygon fill="black" stroke="black" points="1666.99,-130.5 1676.99,-127 1666.99,-123.5 1666.99,-130.5"/>
</g>
<!-- 1990975992272 -->
<g id="node9" class="node">
<title>1990975992272</title>
<polygon fill="white" stroke="black" points="1641.5,-73 1561.75,-73 1561.75,-37 1641.5,-37 1641.5,-73"/>
<text text-anchor="middle" x="1601.62" y="-49.98" font-family="Times New Roman,serif" font-size="12.00">Sensor Install</text>
</g>
<!-- 1990980112496 -->
<g id="node29" class="node">
<title>1990980112496</title>
<ellipse fill="white" stroke="black" cx="1706" cy="-55" rx="27" ry="27"/>
</g>
<!-- 1990975992272&#45;&gt;1990980112496 -->
<g id="edge19" class="edge">
<title>1990975992272&#45;&gt;1990980112496</title>
<path fill="none" stroke="black" d="M1641.91,-55C1650.27,-55 1659.07,-55 1667.36,-55"/>
<polygon fill="black" stroke="black" points="1667.13,-58.5 1677.13,-55 1667.13,-51.5 1667.13,-58.5"/>
</g>
<!-- 1990980115376 -->
<g id="node10" class="node">
<title>1990980115376</title>
<polygon fill="black" stroke="black" points="1823,-109 1769,-109 1769,-73 1823,-73 1823,-109"/>
</g>
<!-- 1990980118016 -->
<g id="node30" class="node">
<title>1990980118016</title>
<ellipse fill="white" stroke="black" cx="1886" cy="-91" rx="27" ry="27"/>
</g>
<!-- 1990980115376&#45;&gt;1990980118016 -->
<g id="edge22" class="edge">
<title>1990980115376&#45;&gt;1990980118016</title>
<path fill="none" stroke="black" d="M1823.4,-91C1830.89,-91 1839.18,-91 1847.2,-91"/>
<polygon fill="black" stroke="black" points="1847.1,-94.5 1857.1,-91 1847.1,-87.5 1847.1,-94.5"/>
</g>
<!-- 1990980111392 -->
<g id="node11" class="node">
<title>1990980111392</title>
<polygon fill="white" stroke="black" points="2030.25,-82 1949,-82 1949,-46 2030.25,-46 2030.25,-82"/>
<text text-anchor="middle" x="1989.62" y="-58.98" font-family="Times New Roman,serif" font-size="12.00">Crop Monitor</text>
</g>
<!-- 1990980115904 -->
<g id="node31" class="node">
<title>1990980115904</title>
<ellipse fill="white" stroke="black" cx="2093.25" cy="-63" rx="27" ry="27"/>
</g>
<!-- 1990980111392&#45;&gt;1990980115904 -->
<g id="edge24" class="edge">
<title>1990980111392&#45;&gt;1990980115904</title>
<path fill="none" stroke="black" d="M2030.5,-63.61C2038.4,-63.53 2046.67,-63.45 2054.5,-63.37"/>
<polygon fill="black" stroke="black" points="2054.46,-66.87 2064.42,-63.27 2054.39,-59.87 2054.46,-66.87"/>
</g>
<!-- 1990981530496 -->
<g id="node12" class="node">
<title>1990981530496</title>
<polygon fill="white" stroke="black" points="2237.5,-81 2162.25,-81 2162.25,-45 2237.5,-45 2237.5,-81"/>
<text text-anchor="middle" x="2199.88" y="-57.98" font-family="Times New Roman,serif" font-size="12.00">Harvest Sort</text>
</g>
<!-- 1990981526320 -->
<g id="node32" class="node">
<title>1990981526320</title>
<ellipse fill="white" stroke="black" cx="2306.5" cy="-63" rx="27" ry="27"/>
</g>
<!-- 1990981530496&#45;&gt;1990981526320 -->
<g id="edge28" class="edge">
<title>1990981530496&#45;&gt;1990981526320</title>
<path fill="none" stroke="black" d="M2237.76,-63C2247.47,-63 2257.95,-63 2267.7,-63"/>
<polygon fill="black" stroke="black" points="2267.61,-66.5 2277.61,-63 2267.61,-59.5 2267.61,-66.5"/>
</g>
<!-- 1990980119216 -->
<g id="node13" class="node">
<title>1990980119216</title>
<polygon fill="white" stroke="black" points="2243.5,-135 2156.25,-135 2156.25,-99 2243.5,-99 2243.5,-135"/>
<text text-anchor="middle" x="2199.88" y="-111.97" font-family="Times New Roman,serif" font-size="12.00">Growth Adjust</text>
</g>
<!-- 1990980119216&#45;&gt;1990980118016 -->
<g id="edge27" class="edge">
<title>1990980119216&#45;&gt;1990980118016</title>
<path fill="none" stroke="black" d="M2155.84,-113.41C2094.46,-108.3 1982.77,-98.98 1924.56,-94.13"/>
<polygon fill="black" stroke="black" points="1925.09,-90.66 1914.83,-93.32 1924.5,-97.64 1925.09,-90.66"/>
</g>
<!-- 1990981525168 -->
<g id="node14" class="node">
<title>1990981525168</title>
<polygon fill="white" stroke="black" points="2435,-81 2369.5,-81 2369.5,-45 2435,-45 2435,-81"/>
<text text-anchor="middle" x="2402.25" y="-57.98" font-family="Times New Roman,serif" font-size="12.00">Packaging</text>
</g>
<!-- 1990975985648 -->
<g id="node33" class="node">
<title>1990975985648</title>
<ellipse fill="white" stroke="black" cx="2498" cy="-63" rx="27" ry="27"/>
</g>
<!-- 1990981525168&#45;&gt;1990975985648 -->
<g id="edge30" class="edge">
<title>1990981525168&#45;&gt;1990975985648</title>
<path fill="none" stroke="black" d="M2435.25,-63C2443.02,-63 2451.4,-63 2459.4,-63"/>
<polygon fill="black" stroke="black" points="2459.23,-66.5 2469.23,-63 2459.23,-59.5 2459.23,-66.5"/>
</g>
<!-- 1990975983632 -->
<g id="node15" class="node">
<title>1990975983632</title>
<polygon fill="white" stroke="black" points="2657.25,-81 2561,-81 2561,-45 2657.25,-45 2657.25,-81"/>
<text text-anchor="middle" x="2609.12" y="-57.98" font-family="Times New Roman,serif" font-size="12.00">Distribution Plan</text>
</g>
<!-- 1990980123200 -->
<g id="node34" class="node">
<title>1990980123200</title>
<ellipse fill="white" stroke="black" cx="2720.25" cy="-99" rx="27" ry="27"/>
</g>
<!-- 1990975983632&#45;&gt;1990980123200 -->
<g id="edge32" class="edge">
<title>1990975983632&#45;&gt;1990980123200</title>
<path fill="none" stroke="black" d="M2657.67,-78.69C2666.28,-81.53 2675.12,-84.44 2683.33,-87.15"/>
<polygon fill="black" stroke="black" points="2682.01,-90.4 2692.6,-90.21 2684.2,-83.75 2682.01,-90.4"/>
</g>
<!-- 1990980121424 -->
<g id="node35" class="node">
<title>1990980121424</title>
<ellipse fill="white" stroke="black" cx="2720.25" cy="-27" rx="27" ry="27"/>
</g>
<!-- 1990975983632&#45;&gt;1990980121424 -->
<g id="edge33" class="edge">
<title>1990975983632&#45;&gt;1990980121424</title>
<path fill="none" stroke="black" d="M2657.67,-47.31C2666.28,-44.47 2675.12,-41.56 2683.33,-38.85"/>
<polygon fill="black" stroke="black" points="2684.2,-42.25 2692.6,-35.79 2682.01,-35.6 2684.2,-42.25"/>
</g>
<!-- 1990980116816 -->
<g id="node16" class="node">
<title>1990980116816</title>
<polygon fill="white" stroke="black" points="2872,-117 2791.5,-117 2791.5,-81 2872,-81 2872,-117"/>
<text text-anchor="middle" x="2831.75" y="-93.97" font-family="Times New Roman,serif" font-size="12.00">Sustain Audit</text>
</g>
<!-- 1990980111536 -->
<g id="node37" class="node">
<title>1990980111536</title>
<ellipse fill="white" stroke="black" cx="2943.25" cy="-99" rx="27" ry="27"/>
</g>
<!-- 1990980116816&#45;&gt;1990980111536 -->
<g id="edge36" class="edge">
<title>1990980116816&#45;&gt;1990980111536</title>
<path fill="none" stroke="black" d="M2872.28,-99C2882.79,-99 2894.1,-99 2904.51,-99"/>
<polygon fill="black" stroke="black" points="2904.26,-102.5 2914.26,-99 2904.26,-95.5 2904.26,-102.5"/>
</g>
<!-- 1990980120944 -->
<g id="node17" class="node">
<title>1990980120944</title>
<polygon fill="white" stroke="black" points="2880.25,-45 2783.25,-45 2783.25,-9 2880.25,-9 2880.25,-45"/>
<text text-anchor="middle" x="2831.75" y="-21.98" font-family="Times New Roman,serif" font-size="12.00">Energy Optimize</text>
</g>
<!-- 1990980110864 -->
<g id="node36" class="node">
<title>1990980110864</title>
<ellipse fill="white" stroke="black" cx="2943.25" cy="-27" rx="27" ry="27"/>
</g>
<!-- 1990980120944&#45;&gt;1990980110864 -->
<g id="edge37" class="edge">
<title>1990980120944&#45;&gt;1990980110864</title>
<path fill="none" stroke="black" d="M2880.46,-27C2888.57,-27 2896.9,-27 2904.7,-27"/>
<polygon fill="black" stroke="black" points="2904.54,-30.5 2914.54,-27 2904.54,-23.5 2904.54,-30.5"/>
</g>
<!-- 1990977863360 -->
<g id="node18" class="node">
<title>1990977863360</title>
<polygon fill="black" stroke="black" points="3060.25,-81 3006.25,-81 3006.25,-45 3060.25,-45 3060.25,-81"/>
</g>
<!-- 1990980635920 -->
<g id="node38" class="node">
<title>1990980635920</title>
<ellipse fill="white" stroke="black" cx="3127.25" cy="-63" rx="27" ry="27"/>
<ellipse fill="none" stroke="black" cx="3127.25" cy="-63" rx="31" ry="31"/>
<text text-anchor="start" x="3110.75" y="-47.6" font-family="Times New Roman,serif" font-size="32.00">■</text>
</g>
<!-- 1990977863360&#45;&gt;1990980635920 -->
<g id="edge40" class="edge">
<title>1990977863360&#45;&gt;1990980635920</title>
<path fill="none" stroke="black" d="M3060.37,-63C3067.88,-63 3076.26,-63 3084.47,-63"/>
<polygon fill="black" stroke="black" points="3084.33,-66.5 3094.33,-63 3084.33,-59.5 3084.33,-66.5"/>
</g>
<!-- 1990980646000 -->
<g id="node19" class="node">
<title>1990980646000</title>
<ellipse fill="white" stroke="black" cx="27" cy="-91" rx="27" ry="27"/>
<text text-anchor="start" x="9.75" y="-73.7" font-family="Times New Roman,serif" font-size="34.00">●</text>
</g>
<!-- 1990980646000&#45;&gt;1990975912320 -->
<g id="edge1" class="edge">
<title>1990980646000&#45;&gt;1990975912320</title>
<path fill="none" stroke="black" d="M54.33,-91C61.76,-91 70.06,-91 78.28,-91"/>
<polygon fill="black" stroke="black" points="78.24,-94.5 88.24,-91 78.24,-87.5 78.24,-94.5"/>
</g>
<!-- 1990975901520&#45;&gt;1990975902192 -->
<g id="edge3" class="edge">
<title>1990975901520&#45;&gt;1990975902192</title>
<path fill="none" stroke="black" d="M250.99,-91C258.46,-91 266.85,-91 275.24,-91"/>
<polygon fill="black" stroke="black" points="275.08,-94.5 285.08,-91 275.08,-87.5 275.08,-94.5"/>
</g>
<!-- 1990975911744&#45;&gt;1990978751040 -->
<g id="edge5" class="edge">
<title>1990975911744&#45;&gt;1990978751040</title>
<path fill="none" stroke="black" d="M456.98,-91C464.34,-91 472.6,-91 480.91,-91"/>
<polygon fill="black" stroke="black" points="480.69,-94.5 490.69,-91 480.69,-87.5 480.69,-94.5"/>
</g>
<!-- 1990975761552&#45;&gt;1990975752144 -->
<g id="edge7" class="edge">
<title>1990975761552&#45;&gt;1990975752144</title>
<path fill="none" stroke="black" d="M668.63,-91C675.86,-91 684.02,-91 692.36,-91"/>
<polygon fill="black" stroke="black" points="692.27,-94.5 702.27,-91 692.27,-87.5 692.27,-94.5"/>
</g>
<!-- 1990975986368&#45;&gt;1990975992656 -->
<g id="edge9" class="edge">
<title>1990975986368&#45;&gt;1990975992656</title>
<path fill="none" stroke="black" d="M897.58,-91C905.01,-91 913.31,-91 921.53,-91"/>
<polygon fill="black" stroke="black" points="921.49,-94.5 931.49,-91 921.49,-87.5 921.49,-94.5"/>
</g>
<!-- 1990975995344&#45;&gt;1990975993568 -->
<g id="edge11" class="edge">
<title>1990975995344&#45;&gt;1990975993568</title>
<path fill="none" stroke="black" d="M1094.24,-91C1101.71,-91 1110.1,-91 1118.49,-91"/>
<polygon fill="black" stroke="black" points="1118.33,-94.5 1128.33,-91 1118.33,-87.5 1118.33,-94.5"/>
</g>
<!-- 1990975995296&#45;&gt;1990975993952 -->
<g id="edge13" class="edge">
<title>1990975995296&#45;&gt;1990975993952</title>
<path fill="none" stroke="black" d="M1300.16,-91C1307.43,-91 1315.62,-91 1323.97,-91"/>
<polygon fill="black" stroke="black" points="1323.86,-94.5 1333.86,-91 1323.86,-87.5 1323.86,-94.5"/>
</g>
<!-- 1990975990400&#45;&gt;1990980122288 -->
<g id="edge17" class="edge">
<title>1990975990400&#45;&gt;1990980122288</title>
<path fill="none" stroke="black" d="M1524.61,-127C1532.03,-127 1540.36,-127 1548.71,-127"/>
<polygon fill="black" stroke="black" points="1548.52,-130.5 1558.52,-127 1548.52,-123.5 1548.52,-130.5"/>
</g>
<!-- 1990975987040&#45;&gt;1990975992272 -->
<g id="edge16" class="edge">
<title>1990975987040&#45;&gt;1990975992272</title>
<path fill="none" stroke="black" d="M1524.61,-55C1532.44,-55 1541.29,-55 1550.11,-55"/>
<polygon fill="black" stroke="black" points="1550.09,-58.5 1560.09,-55 1550.09,-51.5 1550.09,-58.5"/>
</g>
<!-- 1990980110672&#45;&gt;1990980115376 -->
<g id="edge20" class="edge">
<title>1990980110672&#45;&gt;1990980115376</title>
<path fill="none" stroke="black" d="M1731.51,-116.97C1739.76,-113.6 1749.14,-109.76 1758.12,-106.09"/>
<polygon fill="black" stroke="black" points="1759.44,-109.33 1767.37,-102.3 1756.79,-102.85 1759.44,-109.33"/>
</g>
<!-- 1990980112496&#45;&gt;1990980115376 -->
<g id="edge21" class="edge">
<title>1990980112496&#45;&gt;1990980115376</title>
<path fill="none" stroke="black" d="M1731.51,-65.03C1739.76,-68.4 1749.14,-72.24 1758.12,-75.91"/>
<polygon fill="black" stroke="black" points="1756.79,-79.15 1767.37,-79.7 1759.44,-72.67 1756.79,-79.15"/>
</g>
<!-- 1990980118016&#45;&gt;1990980111392 -->
<g id="edge23" class="edge">
<title>1990980118016&#45;&gt;1990980111392</title>
<path fill="none" stroke="black" d="M1912.38,-84.26C1920.07,-82.21 1928.81,-79.89 1937.55,-77.57"/>
<polygon fill="black" stroke="black" points="1938.33,-80.98 1947.09,-75.03 1936.53,-74.22 1938.33,-80.98"/>
</g>
<!-- 1990980115904&#45;&gt;1990981530496 -->
<g id="edge25" class="edge">
<title>1990980115904&#45;&gt;1990981530496</title>
<path fill="none" stroke="black" d="M2120.65,-63C2129.71,-63 2140.16,-63 2150.41,-63"/>
<polygon fill="black" stroke="black" points="2150.3,-66.5 2160.3,-63 2150.3,-59.5 2150.3,-66.5"/>
</g>
<!-- 1990980115904&#45;&gt;1990980119216 -->
<g id="edge26" class="edge">
<title>1990980115904&#45;&gt;1990980119216</title>
<path fill="none" stroke="black" d="M2117.73,-75.12C2128.18,-80.51 2140.86,-87.06 2153.06,-93.35"/>
<polygon fill="black" stroke="black" points="2151.3,-96.39 2161.79,-97.86 2154.51,-90.17 2151.3,-96.39"/>
</g>
<!-- 1990981526320&#45;&gt;1990981525168 -->
<g id="edge29" class="edge">
<title>1990981526320&#45;&gt;1990981525168</title>
<path fill="none" stroke="black" d="M2333.61,-63C2341.13,-63 2349.53,-63 2357.79,-63"/>
<polygon fill="black" stroke="black" points="2357.76,-66.5 2367.76,-63 2357.76,-59.5 2357.76,-66.5"/>
</g>
<!-- 1990975985648&#45;&gt;1990975983632 -->
<g id="edge31" class="edge">
<title>1990975985648&#45;&gt;1990975983632</title>
<path fill="none" stroke="black" d="M2525.42,-63C2532.7,-63 2540.91,-63 2549.25,-63"/>
<polygon fill="black" stroke="black" points="2549.12,-66.5 2559.12,-63 2549.12,-59.5 2549.12,-66.5"/>
</g>
<!-- 1990980123200&#45;&gt;1990980116816 -->
<g id="edge34" class="edge">
<title>1990980123200&#45;&gt;1990980116816</title>
<path fill="none" stroke="black" d="M2747.48,-99C2757.15,-99 2768.47,-99 2779.6,-99"/>
<polygon fill="black" stroke="black" points="2779.52,-102.5 2789.52,-99 2779.52,-95.5 2779.52,-102.5"/>
</g>
<!-- 1990980121424&#45;&gt;1990980120944 -->
<g id="edge35" class="edge">
<title>1990980121424&#45;&gt;1990980120944</title>
<path fill="none" stroke="black" d="M2747.48,-27C2754.79,-27 2763.03,-27 2771.43,-27"/>
<polygon fill="black" stroke="black" points="2771.37,-30.5 2781.37,-27 2771.37,-23.5 2771.37,-30.5"/>
</g>
<!-- 1990980110864&#45;&gt;1990977863360 -->
<g id="edge39" class="edge">
<title>1990980110864&#45;&gt;1990977863360</title>
<path fill="none" stroke="black" d="M2968.76,-37.03C2977.01,-40.4 2986.39,-44.24 2995.37,-47.91"/>
<polygon fill="black" stroke="black" points="2994.04,-51.15 3004.62,-51.7 2996.69,-44.67 2994.04,-51.15"/>
</g>
<!-- 1990980111536&#45;&gt;1990977863360 -->
<g id="edge38" class="edge">
<title>1990980111536&#45;&gt;1990977863360</title>
<path fill="none" stroke="black" d="M2968.76,-88.97C2977.01,-85.6 2986.39,-81.76 2995.37,-78.09"/>
<polygon fill="black" stroke="black" points="2996.69,-81.33 3004.62,-74.3 2994.04,-74.85 2996.69,-81.33"/>
</g>
</g>
</svg>
