<?xml version="1.0" encoding="UTF-8" standalone="no"?>
<!DOCTYPE svg PUBLIC "-//W3C//DTD SVG 1.1//EN"
 "http://www.w3.org/Graphics/SVG/1.1/DTD/svg11.dtd">
<!-- Generated by graphviz version 11.0.0 (20240428.1522)
 -->
<!-- Title: imdf_net_1754052904.177706 Pages: 1 -->
<svg width="2922pt" height="422pt"
 viewBox="0.00 0.00 2921.50 422.00" xmlns="http://www.w3.org/2000/svg" xmlns:xlink="http://www.w3.org/1999/xlink">
<g id="graph0" class="graph" transform="scale(1 1) rotate(0) translate(4 418)">
<title>imdf_net_1754052904.177706</title>
<polygon fill="white" stroke="none" points="-4,4 -4,-418 2917.5,-418 2917.5,4 -4,4"/>
<!-- 1990971629472 -->
<g id="node1" class="node">
<title>1990971629472</title>
<polygon fill="white" stroke="black" points="195.25,-261 90,-261 90,-225 195.25,-225 195.25,-261"/>
<text text-anchor="middle" x="142.62" y="-237.97" font-family="Times New Roman,serif" font-size="12.00">Provenance Check</text>
</g>
<!-- 1990981839536 -->
<g id="node23" class="node">
<title>1990981839536</title>
<ellipse fill="white" stroke="black" cx="258.25" cy="-207" rx="27" ry="27"/>
</g>
<!-- 1990971629472&#45;&gt;1990981839536 -->
<g id="edge2" class="edge">
<title>1990971629472&#45;&gt;1990981839536</title>
<path fill="none" stroke="black" d="M195.45,-226.58C204.22,-223.8 213.15,-220.97 221.4,-218.36"/>
<polygon fill="black" stroke="black" points="222.22,-221.77 230.7,-215.41 220.11,-215.1 222.22,-221.77"/>
</g>
<!-- 1990979784816 -->
<g id="node24" class="node">
<title>1990979784816</title>
<ellipse fill="white" stroke="black" cx="258.25" cy="-288" rx="27" ry="27"/>
</g>
<!-- 1990971629472&#45;&gt;1990979784816 -->
<g id="edge3" class="edge">
<title>1990971629472&#45;&gt;1990979784816</title>
<path fill="none" stroke="black" d="M190.17,-261.43C200.88,-265.68 212.1,-270.12 222.22,-274.13"/>
<polygon fill="black" stroke="black" points="220.72,-277.3 231.3,-277.72 223.29,-270.79 220.72,-277.3"/>
</g>
<!-- 1990971213104 -->
<g id="node2" class="node">
<title>1990971213104</title>
<polygon fill="white" stroke="black" points="424.25,-324 321.25,-324 321.25,-288 424.25,-288 424.25,-324"/>
<text text-anchor="middle" x="372.75" y="-300.98" font-family="Times New Roman,serif" font-size="12.00">Spectroscopy Test</text>
</g>
<!-- 1990971922128 -->
<g id="node27" class="node">
<title>1990971922128</title>
<ellipse fill="white" stroke="black" cx="487.25" cy="-171" rx="27" ry="27"/>
</g>
<!-- 1990971213104&#45;&gt;1990971922128 -->
<g id="edge10" class="edge">
<title>1990971213104&#45;&gt;1990971922128</title>
<path fill="none" stroke="black" d="M389.16,-287.51C407.89,-265.03 439.74,-226.82 461.82,-200.31"/>
<polygon fill="black" stroke="black" points="464.51,-202.55 468.22,-192.63 459.13,-198.07 464.51,-202.55"/>
</g>
<!-- 1990971925728 -->
<g id="node29" class="node">
<title>1990971925728</title>
<ellipse fill="white" stroke="black" cx="487.25" cy="-387" rx="27" ry="27"/>
</g>
<!-- 1990971213104&#45;&gt;1990971925728 -->
<g id="edge7" class="edge">
<title>1990971213104&#45;&gt;1990971925728</title>
<path fill="none" stroke="black" d="M399.28,-324.38C415.91,-336.35 437.7,-352.05 455.31,-364.73"/>
<polygon fill="black" stroke="black" points="453.22,-367.53 463.38,-370.53 457.31,-361.85 453.22,-367.53"/>
</g>
<!-- 1990971918576 -->
<g id="node30" class="node">
<title>1990971918576</title>
<ellipse fill="white" stroke="black" cx="487.25" cy="-315" rx="27" ry="27"/>
</g>
<!-- 1990971213104&#45;&gt;1990971918576 -->
<g id="edge6" class="edge">
<title>1990971213104&#45;&gt;1990971918576</title>
<path fill="none" stroke="black" d="M424.73,-310.08C432.84,-310.73 441.1,-311.39 448.82,-312.01"/>
<polygon fill="black" stroke="black" points="448.28,-315.47 458.52,-312.78 448.84,-308.5 448.28,-315.47"/>
</g>
<!-- 1990981829696 -->
<g id="node3" class="node">
<title>1990981829696</title>
<polygon fill="white" stroke="black" points="416,-153 329.5,-153 329.5,-117 416,-117 416,-153"/>
<text text-anchor="middle" x="372.75" y="-129.97" font-family="Times New Roman,serif" font-size="12.00">Carbon Dating</text>
</g>
<!-- 1990976841360 -->
<g id="node25" class="node">
<title>1990976841360</title>
<ellipse fill="white" stroke="black" cx="487.25" cy="-27" rx="27" ry="27"/>
</g>
<!-- 1990981829696&#45;&gt;1990976841360 -->
<g id="edge9" class="edge">
<title>1990981829696&#45;&gt;1990976841360</title>
<path fill="none" stroke="black" d="M392.83,-116.68C410.94,-99.3 438.33,-73 458.78,-53.37"/>
<polygon fill="black" stroke="black" points="461.19,-55.91 465.98,-46.46 456.34,-50.86 461.19,-55.91"/>
</g>
<!-- 1990976839968 -->
<g id="node26" class="node">
<title>1990976839968</title>
<ellipse fill="white" stroke="black" cx="487.25" cy="-99" rx="27" ry="27"/>
</g>
<!-- 1990981829696&#45;&gt;1990976839968 -->
<g id="edge11" class="edge">
<title>1990981829696&#45;&gt;1990976839968</title>
<path fill="none" stroke="black" d="M416.28,-121.39C427.55,-117.78 439.6,-113.93 450.47,-110.45"/>
<polygon fill="black" stroke="black" points="451.39,-113.83 459.85,-107.45 449.25,-107.16 451.39,-113.83"/>
</g>
<!-- 1990971924816 -->
<g id="node28" class="node">
<title>1990971924816</title>
<ellipse fill="white" stroke="black" cx="487.25" cy="-243" rx="27" ry="27"/>
</g>
<!-- 1990981829696&#45;&gt;1990971924816 -->
<g id="edge8" class="edge">
<title>1990981829696&#45;&gt;1990971924816</title>
<path fill="none" stroke="black" d="M392.83,-153.32C410.94,-170.7 438.33,-197 458.78,-216.63"/>
<polygon fill="black" stroke="black" points="456.34,-219.14 465.98,-223.54 461.19,-214.09 456.34,-219.14"/>
</g>
<!-- 1990977852464 -->
<g id="node4" class="node">
<title>1990977852464</title>
<polygon fill="white" stroke="black" points="652.5,-229 550.25,-229 550.25,-193 652.5,-193 652.5,-229"/>
<text text-anchor="middle" x="601.38" y="-205.97" font-family="Times New Roman,serif" font-size="12.00">Appraiser Review</text>
</g>
<!-- 1990979547264 -->
<g id="node31" class="node">
<title>1990979547264</title>
<ellipse fill="white" stroke="black" cx="937.75" cy="-211" rx="27" ry="27"/>
</g>
<!-- 1990977852464&#45;&gt;1990979547264 -->
<g id="edge20" class="edge">
<title>1990977852464&#45;&gt;1990979547264</title>
<path fill="none" stroke="black" d="M652.8,-211C720.36,-211 838.73,-211 899.07,-211"/>
<polygon fill="black" stroke="black" points="898.82,-214.5 908.82,-211 898.82,-207.5 898.82,-214.5"/>
</g>
<!-- 1990977851456 -->
<g id="node5" class="node">
<title>1990977851456</title>
<polygon fill="white" stroke="black" points="643.5,-292 559.25,-292 559.25,-256 643.5,-256 643.5,-292"/>
<text text-anchor="middle" x="601.38" y="-268.98" font-family="Times New Roman,serif" font-size="12.00">Style Analysis</text>
</g>
<!-- 1990980569232 -->
<g id="node32" class="node">
<title>1990980569232</title>
<ellipse fill="white" stroke="black" cx="826.62" cy="-274" rx="27" ry="27"/>
</g>
<!-- 1990977851456&#45;&gt;1990980569232 -->
<g id="edge19" class="edge">
<title>1990977851456&#45;&gt;1990980569232</title>
<path fill="none" stroke="black" d="M643.84,-274C685.19,-274 748.12,-274 788.04,-274"/>
<polygon fill="black" stroke="black" points="787.88,-277.5 797.88,-274 787.88,-270.5 787.88,-277.5"/>
</g>
<!-- 1990977859040 -->
<g id="node6" class="node">
<title>1990977859040</title>
<polygon fill="white" stroke="black" points="647.62,-157 555.12,-157 555.12,-121 647.62,-121 647.62,-157"/>
<text text-anchor="middle" x="601.38" y="-133.97" font-family="Times New Roman,serif" font-size="12.00">Image Scanning</text>
</g>
<!-- 1990977861872 -->
<g id="node33" class="node">
<title>1990977861872</title>
<ellipse fill="white" stroke="black" cx="715.5" cy="-139" rx="27" ry="27"/>
</g>
<!-- 1990977859040&#45;&gt;1990977861872 -->
<g id="edge18" class="edge">
<title>1990977859040&#45;&gt;1990977861872</title>
<path fill="none" stroke="black" d="M647.98,-139C657.61,-139 667.68,-139 676.97,-139"/>
<polygon fill="black" stroke="black" points="676.73,-142.5 686.73,-139 676.73,-135.5 676.73,-142.5"/>
</g>
<!-- 1990977860864 -->
<g id="node7" class="node">
<title>1990977860864</title>
<polygon fill="white" stroke="black" points="874.75,-157 778.5,-157 778.5,-121 874.75,-121 874.75,-157"/>
<text text-anchor="middle" x="826.62" y="-133.97" font-family="Times New Roman,serif" font-size="12.00">Restoration Scan</text>
</g>
<!-- 1990971041280 -->
<g id="node35" class="node">
<title>1990971041280</title>
<ellipse fill="white" stroke="black" cx="937.75" cy="-139" rx="27" ry="27"/>
</g>
<!-- 1990977860864&#45;&gt;1990971041280 -->
<g id="edge25" class="edge">
<title>1990977860864&#45;&gt;1990971041280</title>
<path fill="none" stroke="black" d="M875.17,-139C883.09,-139 891.2,-139 898.84,-139"/>
<polygon fill="black" stroke="black" points="898.83,-142.5 908.83,-139 898.83,-135.5 898.83,-142.5"/>
</g>
<!-- 1990977849296 -->
<g id="node8" class="node">
<title>1990977849296</title>
<polygon fill="black" stroke="black" points="1054.75,-229 1000.75,-229 1000.75,-193 1054.75,-193 1054.75,-229"/>
</g>
<!-- 1990977856256 -->
<g id="node34" class="node">
<title>1990977856256</title>
<ellipse fill="white" stroke="black" cx="1117.75" cy="-211" rx="27" ry="27"/>
</g>
<!-- 1990977849296&#45;&gt;1990977856256 -->
<g id="edge24" class="edge">
<title>1990977849296&#45;&gt;1990977856256</title>
<path fill="none" stroke="black" d="M1055.15,-211C1062.64,-211 1070.93,-211 1078.95,-211"/>
<polygon fill="black" stroke="black" points="1078.85,-214.5 1088.85,-211 1078.85,-207.5 1078.85,-214.5"/>
</g>
<!-- 1990982528672 -->
<g id="node9" class="node">
<title>1990982528672</title>
<polygon fill="white" stroke="black" points="1273.25,-202 1180.75,-202 1180.75,-166 1273.25,-166 1273.25,-202"/>
<text text-anchor="middle" x="1227" y="-178.97" font-family="Times New Roman,serif" font-size="12.00">Database Match</text>
</g>
<!-- 1990982522144 -->
<g id="node37" class="node">
<title>1990982522144</title>
<ellipse fill="white" stroke="black" cx="1336.25" cy="-175" rx="27" ry="27"/>
</g>
<!-- 1990982528672&#45;&gt;1990982522144 -->
<g id="edge29" class="edge">
<title>1990982528672&#45;&gt;1990982522144</title>
<path fill="none" stroke="black" d="M1273.48,-180.18C1281.52,-179.51 1289.81,-178.81 1297.6,-178.16"/>
<polygon fill="black" stroke="black" points="1297.77,-181.66 1307.44,-177.33 1297.18,-174.68 1297.77,-181.66"/>
</g>
<!-- 1990979575616 -->
<g id="node10" class="node">
<title>1990979575616</title>
<polygon fill="white" stroke="black" points="1270.62,-260 1183.38,-260 1183.38,-224 1270.62,-224 1270.62,-260"/>
<text text-anchor="middle" x="1227" y="-236.97" font-family="Times New Roman,serif" font-size="12.00">Forgery Detect</text>
</g>
<!-- 1990977371792 -->
<g id="node36" class="node">
<title>1990977371792</title>
<ellipse fill="white" stroke="black" cx="1336.25" cy="-247" rx="27" ry="27"/>
</g>
<!-- 1990979575616&#45;&gt;1990977371792 -->
<g id="edge30" class="edge">
<title>1990979575616&#45;&gt;1990977371792</title>
<path fill="none" stroke="black" d="M1271,-244C1279.82,-244.42 1289.03,-244.85 1297.64,-245.25"/>
<polygon fill="black" stroke="black" points="1297.24,-248.73 1307.39,-245.7 1297.57,-241.74 1297.24,-248.73"/>
</g>
<!-- 1990982524928 -->
<g id="node11" class="node">
<title>1990982524928</title>
<polygon fill="white" stroke="black" points="1503.75,-193 1404.5,-193 1404.5,-157 1503.75,-157 1503.75,-193"/>
<text text-anchor="middle" x="1454.12" y="-169.97" font-family="Times New Roman,serif" font-size="12.00">Blockchain Entry</text>
</g>
<!-- 1990982532128 -->
<g id="node38" class="node">
<title>1990982532128</title>
<ellipse fill="white" stroke="black" cx="1572" cy="-175" rx="27" ry="27"/>
</g>
<!-- 1990982524928&#45;&gt;1990982532128 -->
<g id="edge33" class="edge">
<title>1990982524928&#45;&gt;1990982532128</title>
<path fill="none" stroke="black" d="M1503.93,-175C1513.76,-175 1523.95,-175 1533.33,-175"/>
<polygon fill="black" stroke="black" points="1533.17,-178.5 1543.17,-175 1533.17,-171.5 1533.17,-178.5"/>
</g>
<!-- 1990977371696 -->
<g id="node12" class="node">
<title>1990977371696</title>
<polygon fill="white" stroke="black" points="1509,-265 1399.25,-265 1399.25,-229 1509,-229 1509,-265"/>
<text text-anchor="middle" x="1454.12" y="-241.97" font-family="Times New Roman,serif" font-size="12.00">Report Compilation</text>
</g>
<!-- 1990977362912 -->
<g id="node39" class="node">
<title>1990977362912</title>
<ellipse fill="white" stroke="black" cx="1572" cy="-247" rx="27" ry="27"/>
</g>
<!-- 1990977371696&#45;&gt;1990977362912 -->
<g id="edge34" class="edge">
<title>1990977371696&#45;&gt;1990977362912</title>
<path fill="none" stroke="black" d="M1509.33,-247C1517.37,-247 1525.51,-247 1533.12,-247"/>
<polygon fill="black" stroke="black" points="1533.04,-250.5 1543.04,-247 1533.04,-243.5 1533.04,-250.5"/>
</g>
<!-- 1990977365888 -->
<g id="node13" class="node">
<title>1990977365888</title>
<polygon fill="white" stroke="black" points="1724.12,-265 1637.62,-265 1637.62,-229 1724.12,-229 1724.12,-265"/>
<text text-anchor="middle" x="1680.88" y="-241.97" font-family="Times New Roman,serif" font-size="12.00">Client Briefing</text>
</g>
<!-- 1990981002800 -->
<g id="node40" class="node">
<title>1990981002800</title>
<ellipse fill="white" stroke="black" cx="1789.75" cy="-247" rx="27" ry="27"/>
</g>
<!-- 1990977365888&#45;&gt;1990981002800 -->
<g id="edge37" class="edge">
<title>1990977365888&#45;&gt;1990981002800</title>
<path fill="none" stroke="black" d="M1724.42,-247C1733.23,-247 1742.44,-247 1751.06,-247"/>
<polygon fill="black" stroke="black" points="1750.83,-250.5 1760.83,-247 1750.83,-243.5 1750.83,-250.5"/>
</g>
<!-- 1990982526656 -->
<g id="node14" class="node">
<title>1990982526656</title>
<polygon fill="white" stroke="black" points="1726.75,-193 1635,-193 1635,-157 1726.75,-157 1726.75,-193"/>
<text text-anchor="middle" x="1680.88" y="-169.97" font-family="Times New Roman,serif" font-size="12.00">Certificate Issue</text>
</g>
<!-- 1990980177648 -->
<g id="node41" class="node">
<title>1990980177648</title>
<ellipse fill="white" stroke="black" cx="1789.75" cy="-175" rx="27" ry="27"/>
</g>
<!-- 1990982526656&#45;&gt;1990980177648 -->
<g id="edge38" class="edge">
<title>1990982526656&#45;&gt;1990980177648</title>
<path fill="none" stroke="black" d="M1727.2,-175C1735.21,-175 1743.47,-175 1751.23,-175"/>
<polygon fill="black" stroke="black" points="1751.03,-178.5 1761.03,-175 1751.03,-171.5 1751.03,-178.5"/>
</g>
<!-- 1990980997904 -->
<g id="node15" class="node">
<title>1990980997904</title>
<polygon fill="white" stroke="black" points="1951.62,-265 1863.62,-265 1863.62,-229 1951.62,-229 1951.62,-265"/>
<text text-anchor="middle" x="1907.62" y="-241.97" font-family="Times New Roman,serif" font-size="12.00">Final Approval</text>
</g>
<!-- 1990980993248 -->
<g id="node43" class="node">
<title>1990980993248</title>
<ellipse fill="white" stroke="black" cx="2025.5" cy="-247" rx="27" ry="27"/>
</g>
<!-- 1990980997904&#45;&gt;1990980993248 -->
<g id="edge41" class="edge">
<title>1990980997904&#45;&gt;1990980993248</title>
<path fill="none" stroke="black" d="M1952.1,-247C1963.52,-247 1975.73,-247 1986.81,-247"/>
<polygon fill="black" stroke="black" points="1986.79,-250.5 1996.79,-247 1986.79,-243.5 1986.79,-250.5"/>
</g>
<!-- 1990980190176 -->
<g id="node16" class="node">
<title>1990980190176</title>
<polygon fill="white" stroke="black" points="1962.5,-193 1852.75,-193 1852.75,-157 1962.5,-157 1962.5,-193"/>
<text text-anchor="middle" x="1907.62" y="-169.97" font-family="Times New Roman,serif" font-size="12.00">Report Compilation</text>
</g>
<!-- 1990980189264 -->
<g id="node42" class="node">
<title>1990980189264</title>
<ellipse fill="white" stroke="black" cx="2025.5" cy="-175" rx="27" ry="27"/>
</g>
<!-- 1990980190176&#45;&gt;1990980189264 -->
<g id="edge42" class="edge">
<title>1990980190176&#45;&gt;1990980189264</title>
<path fill="none" stroke="black" d="M1962.83,-175C1970.87,-175 1979.01,-175 1986.62,-175"/>
<polygon fill="black" stroke="black" points="1986.54,-178.5 1996.54,-175 1986.54,-171.5 1986.54,-178.5"/>
</g>
<!-- 1990981008656 -->
<g id="node17" class="node">
<title>1990981008656</title>
<polygon fill="white" stroke="black" points="2298.25,-263 2211,-263 2211,-227 2298.25,-227 2298.25,-263"/>
<text text-anchor="middle" x="2254.62" y="-239.97" font-family="Times New Roman,serif" font-size="12.00">Secure Storage</text>
</g>
<!-- 1990980799664 -->
<g id="node44" class="node">
<title>1990980799664</title>
<ellipse fill="white" stroke="black" cx="2698.5" cy="-213" rx="27" ry="27"/>
</g>
<!-- 1990981008656&#45;&gt;1990980799664 -->
<g id="edge46" class="edge">
<title>1990981008656&#45;&gt;1990980799664</title>
<path fill="none" stroke="black" d="M2298.4,-241.9C2384.6,-235.66 2577.94,-221.66 2659.77,-215.73"/>
<polygon fill="black" stroke="black" points="2660.01,-219.22 2669.73,-215.01 2659.5,-212.24 2660.01,-219.22"/>
</g>
<!-- 1990980184512 -->
<g id="node18" class="node">
<title>1990980184512</title>
<polygon fill="white" stroke="black" points="2175,-197 2088.5,-197 2088.5,-161 2175,-161 2175,-197"/>
<text text-anchor="middle" x="2131.75" y="-173.97" font-family="Times New Roman,serif" font-size="12.00">Client Briefing</text>
</g>
<!-- 1990980178032 -->
<g id="node45" class="node">
<title>1990980178032</title>
<ellipse fill="white" stroke="black" cx="2254.62" cy="-181" rx="27" ry="27"/>
</g>
<!-- 1990980184512&#45;&gt;1990980178032 -->
<g id="edge45" class="edge">
<title>1990980184512&#45;&gt;1990980178032</title>
<path fill="none" stroke="black" d="M2175.37,-179.71C2188.58,-179.92 2203.05,-180.16 2215.91,-180.38"/>
<polygon fill="black" stroke="black" points="2215.62,-183.87 2225.68,-180.54 2215.73,-176.87 2215.62,-183.87"/>
</g>
<!-- 1990977855392 -->
<g id="node19" class="node">
<title>1990977855392</title>
<polygon fill="black" stroke="black" points="2815.5,-231 2761.5,-231 2761.5,-195 2815.5,-195 2815.5,-231"/>
</g>
<!-- 1990978711776 -->
<g id="node47" class="node">
<title>1990978711776</title>
<ellipse fill="white" stroke="black" cx="2882.5" cy="-213" rx="27" ry="27"/>
<ellipse fill="none" stroke="black" cx="2882.5" cy="-213" rx="31" ry="31"/>
<text text-anchor="start" x="2866" y="-197.6" font-family="Times New Roman,serif" font-size="32.00">■</text>
</g>
<!-- 1990977855392&#45;&gt;1990978711776 -->
<g id="edge50" class="edge">
<title>1990977855392&#45;&gt;1990978711776</title>
<path fill="none" stroke="black" d="M2815.62,-213C2823.13,-213 2831.51,-213 2839.72,-213"/>
<polygon fill="black" stroke="black" points="2839.58,-216.5 2849.58,-213 2839.58,-209.5 2839.58,-216.5"/>
</g>
<!-- 1990980175536 -->
<g id="node20" class="node">
<title>1990980175536</title>
<polygon fill="white" stroke="black" points="2422.25,-199 2334.25,-199 2334.25,-163 2422.25,-163 2422.25,-199"/>
<text text-anchor="middle" x="2378.25" y="-175.97" font-family="Times New Roman,serif" font-size="12.00">Final Approval</text>
</g>
<!-- 1990976058480 -->
<g id="node46" class="node">
<title>1990976058480</title>
<ellipse fill="white" stroke="black" cx="2485.25" cy="-181" rx="27" ry="27"/>
</g>
<!-- 1990980175536&#45;&gt;1990976058480 -->
<g id="edge49" class="edge">
<title>1990980175536&#45;&gt;1990976058480</title>
<path fill="none" stroke="black" d="M2422.56,-181C2430.52,-181 2438.76,-181 2446.53,-181"/>
<polygon fill="black" stroke="black" points="2446.35,-184.5 2456.35,-181 2446.35,-177.5 2446.35,-184.5"/>
</g>
<!-- 1990976058672 -->
<g id="node21" class="node">
<title>1990976058672</title>
<polygon fill="white" stroke="black" points="2635.5,-208 2548.25,-208 2548.25,-172 2635.5,-172 2635.5,-208"/>
<text text-anchor="middle" x="2591.88" y="-184.97" font-family="Times New Roman,serif" font-size="12.00">Secure Storage</text>
</g>
<!-- 1990976058672&#45;&gt;1990980799664 -->
<g id="edge52" class="edge">
<title>1990976058672&#45;&gt;1990980799664</title>
<path fill="none" stroke="black" d="M2635.73,-199.42C2643.92,-201.22 2652.43,-203.09 2660.42,-204.85"/>
<polygon fill="black" stroke="black" points="2659.66,-208.27 2670.18,-206.99 2661.17,-201.43 2659.66,-208.27"/>
</g>
<!-- 1990978714704 -->
<g id="node22" class="node">
<title>1990978714704</title>
<ellipse fill="white" stroke="black" cx="27" cy="-243" rx="27" ry="27"/>
<text text-anchor="start" x="9.75" y="-225.7" font-family="Times New Roman,serif" font-size="34.00">●</text>
</g>
<!-- 1990978714704&#45;&gt;1990971629472 -->
<g id="edge1" class="edge">
<title>1990978714704&#45;&gt;1990971629472</title>
<path fill="none" stroke="black" d="M54.35,-243C61.74,-243 70.1,-243 78.65,-243"/>
<polygon fill="black" stroke="black" points="78.41,-246.5 88.41,-243 78.41,-239.5 78.41,-246.5"/>
</g>
<!-- 1990981839536&#45;&gt;1990981829696 -->
<g id="edge5" class="edge">
<title>1990981839536&#45;&gt;1990981829696</title>
<path fill="none" stroke="black" d="M281.48,-192.78C296.39,-183.23 316.41,-170.42 333.81,-159.28"/>
<polygon fill="black" stroke="black" points="335.35,-162.45 341.88,-154.12 331.57,-156.56 335.35,-162.45"/>
</g>
<!-- 1990979784816&#45;&gt;1990971213104 -->
<g id="edge4" class="edge">
<title>1990979784816&#45;&gt;1990971213104</title>
<path fill="none" stroke="black" d="M285.34,-292.17C292.74,-293.36 301.14,-294.7 309.71,-296.07"/>
<polygon fill="black" stroke="black" points="309.09,-299.52 319.52,-297.64 310.2,-292.61 309.09,-299.52"/>
</g>
<!-- 1990976841360&#45;&gt;1990977859040 -->
<g id="edge17" class="edge">
<title>1990976841360&#45;&gt;1990977859040</title>
<path fill="none" stroke="black" d="M507.02,-45.75C525.32,-64.03 553.32,-92 573.89,-112.54"/>
<polygon fill="black" stroke="black" points="571.3,-114.9 580.85,-119.5 576.25,-109.95 571.3,-114.9"/>
</g>
<!-- 1990976839968&#45;&gt;1990977852464 -->
<g id="edge12" class="edge">
<title>1990976839968&#45;&gt;1990977852464</title>
<path fill="none" stroke="black" d="M505.96,-119.1C518.11,-132.65 534.78,-150.76 550.25,-166 556.69,-172.35 563.82,-178.97 570.63,-185.11"/>
<polygon fill="black" stroke="black" points="568.08,-187.54 577.87,-191.59 572.75,-182.31 568.08,-187.54"/>
</g>
<!-- 1990971922128&#45;&gt;1990977859040 -->
<g id="edge15" class="edge">
<title>1990971922128&#45;&gt;1990977859040</title>
<path fill="none" stroke="black" d="M513.69,-163.74C522.71,-161.17 533.25,-158.16 543.81,-155.14"/>
<polygon fill="black" stroke="black" points="544.65,-158.54 553.31,-152.43 542.73,-151.81 544.65,-158.54"/>
</g>
<!-- 1990971924816&#45;&gt;1990977851456 -->
<g id="edge13" class="edge">
<title>1990971924816&#45;&gt;1990977851456</title>
<path fill="none" stroke="black" d="M513.69,-250.03C523.88,-252.85 536.02,-256.21 547.94,-259.5"/>
<polygon fill="black" stroke="black" points="546.73,-262.8 557.3,-262.09 548.6,-256.05 546.73,-262.8"/>
</g>
<!-- 1990971925728&#45;&gt;1990977851456 -->
<g id="edge16" class="edge">
<title>1990971925728&#45;&gt;1990977851456</title>
<path fill="none" stroke="black" d="M507.02,-368.09C525.43,-349.53 553.66,-321.08 574.26,-300.32"/>
<polygon fill="black" stroke="black" points="576.66,-302.86 581.22,-293.3 571.7,-297.93 576.66,-302.86"/>
</g>
<!-- 1990971918576&#45;&gt;1990977852464 -->
<g id="edge14" class="edge">
<title>1990971918576&#45;&gt;1990977852464</title>
<path fill="none" stroke="black" d="M505.13,-294.32C517.05,-280.27 533.78,-261.66 550.25,-247 554.34,-243.36 558.79,-239.74 563.29,-236.28"/>
<polygon fill="black" stroke="black" points="565.36,-239.11 571.31,-230.34 561.19,-233.48 565.36,-239.11"/>
</g>
<!-- 1990979547264&#45;&gt;1990977849296 -->
<g id="edge23" class="edge">
<title>1990979547264&#45;&gt;1990977849296</title>
<path fill="none" stroke="black" d="M965.15,-211C972.64,-211 980.93,-211 988.95,-211"/>
<polygon fill="black" stroke="black" points="988.85,-214.5 998.85,-211 988.85,-207.5 988.85,-214.5"/>
</g>
<!-- 1990980569232&#45;&gt;1990977849296 -->
<g id="edge22" class="edge">
<title>1990980569232&#45;&gt;1990977849296</title>
<path fill="none" stroke="black" d="M853.86,-271.45C881.99,-268.12 927.63,-260.98 964.75,-247 973.53,-243.69 982.51,-239.21 990.82,-234.54"/>
<polygon fill="black" stroke="black" points="992.41,-237.66 999.25,-229.57 988.86,-231.63 992.41,-237.66"/>
</g>
<!-- 1990977861872&#45;&gt;1990977860864 -->
<g id="edge21" class="edge">
<title>1990977861872&#45;&gt;1990977860864</title>
<path fill="none" stroke="black" d="M742.92,-139C750.2,-139 758.41,-139 766.75,-139"/>
<polygon fill="black" stroke="black" points="766.62,-142.5 776.62,-139 766.62,-135.5 766.62,-142.5"/>
</g>
<!-- 1990977856256&#45;&gt;1990982528672 -->
<g id="edge28" class="edge">
<title>1990977856256&#45;&gt;1990982528672</title>
<path fill="none" stroke="black" d="M1144.44,-204.53C1152.02,-202.62 1160.64,-200.46 1169.36,-198.26"/>
<polygon fill="black" stroke="black" points="1170.08,-201.69 1178.93,-195.85 1168.37,-194.9 1170.08,-201.69"/>
</g>
<!-- 1990977856256&#45;&gt;1990979575616 -->
<g id="edge27" class="edge">
<title>1990977856256&#45;&gt;1990979575616</title>
<path fill="none" stroke="black" d="M1144.17,-218.35C1152.63,-220.79 1162.4,-223.62 1172.18,-226.44"/>
<polygon fill="black" stroke="black" points="1171.12,-229.78 1181.7,-229.2 1173.07,-223.06 1171.12,-229.78"/>
</g>
<!-- 1990971041280&#45;&gt;1990977849296 -->
<g id="edge26" class="edge">
<title>1990971041280&#45;&gt;1990977849296</title>
<path fill="none" stroke="black" d="M959.16,-155.7C969.92,-164.5 983.36,-175.5 995.41,-185.36"/>
<polygon fill="black" stroke="black" points="993.16,-188.04 1003.12,-191.66 997.59,-182.62 993.16,-188.04"/>
</g>
<!-- 1990977371792&#45;&gt;1990977371696 -->
<g id="edge31" class="edge">
<title>1990977371792&#45;&gt;1990977371696</title>
<path fill="none" stroke="black" d="M1363.54,-247C1370.88,-247 1379.19,-247 1387.72,-247"/>
<polygon fill="black" stroke="black" points="1387.49,-250.5 1397.49,-247 1387.49,-243.5 1387.49,-250.5"/>
</g>
<!-- 1990982522144&#45;&gt;1990982524928 -->
<g id="edge32" class="edge">
<title>1990982522144&#45;&gt;1990982524928</title>
<path fill="none" stroke="black" d="M1363.54,-175C1372.37,-175 1382.61,-175 1392.95,-175"/>
<polygon fill="black" stroke="black" points="1392.62,-178.5 1402.62,-175 1392.62,-171.5 1392.62,-178.5"/>
</g>
<!-- 1990982532128&#45;&gt;1990982526656 -->
<g id="edge35" class="edge">
<title>1990982532128&#45;&gt;1990982526656</title>
<path fill="none" stroke="black" d="M1599.42,-175C1606.73,-175 1614.95,-175 1623.28,-175"/>
<polygon fill="black" stroke="black" points="1623.11,-178.5 1633.11,-175 1623.11,-171.5 1623.11,-178.5"/>
</g>
<!-- 1990977362912&#45;&gt;1990977365888 -->
<g id="edge36" class="edge">
<title>1990977362912&#45;&gt;1990977365888</title>
<path fill="none" stroke="black" d="M1599.42,-247C1607.42,-247 1616.51,-247 1625.63,-247"/>
<polygon fill="black" stroke="black" points="1625.61,-250.5 1635.61,-247 1625.61,-243.5 1625.61,-250.5"/>
</g>
<!-- 1990981002800&#45;&gt;1990980997904 -->
<g id="edge39" class="edge">
<title>1990981002800&#45;&gt;1990980997904</title>
<path fill="none" stroke="black" d="M1817.04,-247C1827.37,-247 1839.62,-247 1851.7,-247"/>
<polygon fill="black" stroke="black" points="1851.65,-250.5 1861.65,-247 1851.65,-243.5 1851.65,-250.5"/>
</g>
<!-- 1990980177648&#45;&gt;1990980190176 -->
<g id="edge40" class="edge">
<title>1990980177648&#45;&gt;1990980190176</title>
<path fill="none" stroke="black" d="M1817.04,-175C1824.38,-175 1832.69,-175 1841.22,-175"/>
<polygon fill="black" stroke="black" points="1840.99,-178.5 1850.99,-175 1840.99,-171.5 1840.99,-178.5"/>
</g>
<!-- 1990980189264&#45;&gt;1990980184512 -->
<g id="edge43" class="edge">
<title>1990980189264&#45;&gt;1990980184512</title>
<path fill="none" stroke="black" d="M2052.81,-176.01C2060.19,-176.29 2068.49,-176.61 2076.86,-176.93"/>
<polygon fill="black" stroke="black" points="2076.59,-180.42 2086.71,-177.31 2076.85,-173.43 2076.59,-180.42"/>
</g>
<!-- 1990980993248&#45;&gt;1990981008656 -->
<g id="edge44" class="edge">
<title>1990980993248&#45;&gt;1990981008656</title>
<path fill="none" stroke="black" d="M2053,-246.77C2088.71,-246.45 2153.11,-245.89 2199.33,-245.48"/>
<polygon fill="black" stroke="black" points="2199.17,-248.98 2209.14,-245.39 2199.11,-241.98 2199.17,-248.98"/>
</g>
<!-- 1990980799664&#45;&gt;1990977855392 -->
<g id="edge48" class="edge">
<title>1990980799664&#45;&gt;1990977855392</title>
<path fill="none" stroke="black" d="M2725.9,-213C2733.39,-213 2741.68,-213 2749.7,-213"/>
<polygon fill="black" stroke="black" points="2749.6,-216.5 2759.6,-213 2749.6,-209.5 2749.6,-216.5"/>
</g>
<!-- 1990980178032&#45;&gt;1990980175536 -->
<g id="edge47" class="edge">
<title>1990980178032&#45;&gt;1990980175536</title>
<path fill="none" stroke="black" d="M2282.02,-181C2294.03,-181 2308.73,-181 2322.94,-181"/>
<polygon fill="black" stroke="black" points="2322.66,-184.5 2332.66,-181 2322.66,-177.5 2322.66,-184.5"/>
</g>
<!-- 1990976058480&#45;&gt;1990976058672 -->
<g id="edge51" class="edge">
<title>1990976058480&#45;&gt;1990976058672</title>
<path fill="none" stroke="black" d="M2512.65,-183.27C2519.98,-183.9 2528.21,-184.61 2536.51,-185.32"/>
<polygon fill="black" stroke="black" points="2536.02,-188.79 2546.28,-186.16 2536.62,-181.82 2536.02,-188.79"/>
</g>
</g>
</svg>
