<?xml version="1.0" encoding="UTF-8" standalone="no"?>
<!DOCTYPE svg PUBLIC "-//W3C//DTD SVG 1.1//EN"
 "http://www.w3.org/Graphics/SVG/1.1/DTD/svg11.dtd">
<!-- Generated by graphviz version 11.0.0 (20240428.1522)
 -->
<!-- Title: imdf_net_1754053470.221387 Pages: 1 -->
<svg width="3493pt" height="139pt"
 viewBox="0.00 0.00 3492.50 139.00" xmlns="http://www.w3.org/2000/svg" xmlns:xlink="http://www.w3.org/1999/xlink">
<g id="graph0" class="graph" transform="scale(1 1) rotate(0) translate(4 135)">
<title>imdf_net_1754053470.221387</title>
<polygon fill="white" stroke="none" points="-4,4 -4,-135 3488.5,-135 3488.5,4 -4,4"/>
<!-- 2892504819152 -->
<g id="node1" class="node">
<title>2892504819152</title>
<polygon fill="white" stroke="black" points="190.75,-103 90,-103 90,-67 190.75,-67 190.75,-103"/>
<text text-anchor="middle" x="140.38" y="-79.97" font-family="Times New Roman,serif" font-size="12.00">Concept Approve</text>
</g>
<!-- 2892504818624 -->
<g id="node20" class="node">
<title>2892504818624</title>
<ellipse fill="white" stroke="black" cx="253.75" cy="-85" rx="27" ry="27"/>
</g>
<!-- 2892504819152&#45;&gt;2892504818624 -->
<g id="edge2" class="edge">
<title>2892504819152&#45;&gt;2892504818624</title>
<path fill="none" stroke="black" d="M191.2,-85C199.18,-85 207.33,-85 214.97,-85"/>
<polygon fill="black" stroke="black" points="214.95,-88.5 224.95,-85 214.95,-81.5 214.95,-88.5"/>
</g>
<!-- 2892504816848 -->
<g id="node2" class="node">
<title>2892504816848</title>
<polygon fill="white" stroke="black" points="397.25,-103 316.75,-103 316.75,-67 397.25,-67 397.25,-103"/>
<text text-anchor="middle" x="357" y="-79.97" font-family="Times New Roman,serif" font-size="12.00">Budget Align</text>
</g>
<!-- 2892504812336 -->
<g id="node21" class="node">
<title>2892504812336</title>
<ellipse fill="white" stroke="black" cx="460.25" cy="-85" rx="27" ry="27"/>
</g>
<!-- 2892504816848&#45;&gt;2892504812336 -->
<g id="edge4" class="edge">
<title>2892504816848&#45;&gt;2892504812336</title>
<path fill="none" stroke="black" d="M397.73,-85C405.6,-85 413.84,-85 421.64,-85"/>
<polygon fill="black" stroke="black" points="421.52,-88.5 431.52,-85 421.52,-81.5 421.52,-88.5"/>
</g>
<!-- 2892504819488 -->
<g id="node3" class="node">
<title>2892504819488</title>
<polygon fill="white" stroke="black" points="612.75,-80 523.25,-80 523.25,-44 612.75,-44 612.75,-80"/>
<text text-anchor="middle" x="568" y="-56.98" font-family="Times New Roman,serif" font-size="12.00">Design Review</text>
</g>
<!-- 2892504813488 -->
<g id="node22" class="node">
<title>2892504813488</title>
<ellipse fill="white" stroke="black" cx="675.75" cy="-53" rx="27" ry="27"/>
</g>
<!-- 2892504819488&#45;&gt;2892504813488 -->
<g id="edge6" class="edge">
<title>2892504819488&#45;&gt;2892504813488</title>
<path fill="none" stroke="black" d="M613.23,-58.24C621.2,-57.56 629.44,-56.86 637.2,-56.2"/>
<polygon fill="black" stroke="black" points="637.32,-59.7 646.99,-55.36 636.73,-52.72 637.32,-59.7"/>
</g>
<!-- 2892504817232 -->
<g id="node4" class="node">
<title>2892504817232</title>
<polygon fill="white" stroke="black" points="841.75,-73 738.75,-73 738.75,-37 841.75,-37 841.75,-73"/>
<text text-anchor="middle" x="790.25" y="-49.98" font-family="Times New Roman,serif" font-size="12.00">Structure Simulate</text>
</g>
<!-- 2892504818480 -->
<g id="node23" class="node">
<title>2892504818480</title>
<ellipse fill="white" stroke="black" cx="904.75" cy="-59" rx="27" ry="27"/>
</g>
<!-- 2892504817232&#45;&gt;2892504818480 -->
<g id="edge8" class="edge">
<title>2892504817232&#45;&gt;2892504818480</title>
<path fill="none" stroke="black" d="M842.23,-56.81C850.25,-57.1 858.4,-57.39 866.04,-57.66"/>
<polygon fill="black" stroke="black" points="865.9,-61.16 876.02,-58.01 866.15,-54.16 865.9,-61.16"/>
</g>
<!-- 2892508346944 -->
<g id="node5" class="node">
<title>2892508346944</title>
<polygon fill="white" stroke="black" points="1067,-131 967.75,-131 967.75,-95 1067,-95 1067,-131"/>
<text text-anchor="middle" x="1017.38" y="-107.97" font-family="Times New Roman,serif" font-size="12.00">Stakeholder Meet</text>
</g>
<!-- 2892508346944&#45;&gt;2892504812336 -->
<g id="edge11" class="edge">
<title>2892508346944&#45;&gt;2892504812336</title>
<path fill="none" stroke="black" d="M967.63,-114.02C922.04,-114.89 852.03,-116 791.25,-116 674.75,-116 674.75,-116 674.75,-116 612.27,-116 540.56,-102.84 498.18,-93.67"/>
<polygon fill="black" stroke="black" points="499.04,-90.27 488.52,-91.53 497.52,-97.1 499.04,-90.27"/>
</g>
<!-- 2892508334560 -->
<g id="node6" class="node">
<title>2892508334560</title>
<polygon fill="white" stroke="black" points="1064.75,-77 970,-77 970,-41 1064.75,-41 1064.75,-77"/>
<text text-anchor="middle" x="1017.38" y="-53.98" font-family="Times New Roman,serif" font-size="12.00">Material Procure</text>
</g>
<!-- 2892508347232 -->
<g id="node24" class="node">
<title>2892508347232</title>
<ellipse fill="white" stroke="black" cx="1130" cy="-59" rx="27" ry="27"/>
</g>
<!-- 2892508334560&#45;&gt;2892508347232 -->
<g id="edge12" class="edge">
<title>2892508334560&#45;&gt;2892508347232</title>
<path fill="none" stroke="black" d="M1064.97,-59C1073.72,-59 1082.77,-59 1091.21,-59"/>
<polygon fill="black" stroke="black" points="1091.13,-62.5 1101.13,-59 1091.13,-55.5 1091.13,-62.5"/>
</g>
<!-- 2892508346848 -->
<g id="node7" class="node">
<title>2892508346848</title>
<polygon fill="white" stroke="black" points="1276.5,-77 1193,-77 1193,-41 1276.5,-41 1276.5,-77"/>
<text text-anchor="middle" x="1234.75" y="-53.98" font-family="Times New Roman,serif" font-size="12.00">Vendor Select</text>
</g>
<!-- 2892508156448 -->
<g id="node25" class="node">
<title>2892508156448</title>
<ellipse fill="white" stroke="black" cx="1339.5" cy="-59" rx="27" ry="27"/>
</g>
<!-- 2892508346848&#45;&gt;2892508156448 -->
<g id="edge14" class="edge">
<title>2892508346848&#45;&gt;2892508156448</title>
<path fill="none" stroke="black" d="M1276.95,-59C1284.81,-59 1293,-59 1300.75,-59"/>
<polygon fill="black" stroke="black" points="1300.55,-62.5 1310.55,-59 1300.55,-55.5 1300.55,-62.5"/>
</g>
<!-- 2892508171344 -->
<g id="node8" class="node">
<title>2892508171344</title>
<polygon fill="white" stroke="black" points="1482.25,-77 1402.5,-77 1402.5,-41 1482.25,-41 1482.25,-77"/>
<text text-anchor="middle" x="1442.38" y="-53.98" font-family="Times New Roman,serif" font-size="12.00">Permit Apply</text>
</g>
<!-- 2892508172928 -->
<g id="node26" class="node">
<title>2892508172928</title>
<ellipse fill="white" stroke="black" cx="1545.25" cy="-59" rx="27" ry="27"/>
</g>
<!-- 2892508171344&#45;&gt;2892508172928 -->
<g id="edge16" class="edge">
<title>2892508171344&#45;&gt;2892508172928</title>
<path fill="none" stroke="black" d="M1482.66,-59C1490.53,-59 1498.77,-59 1506.57,-59"/>
<polygon fill="black" stroke="black" points="1506.47,-62.5 1516.47,-59 1506.47,-55.5 1506.47,-62.5"/>
</g>
<!-- 2892508172736 -->
<g id="node9" class="node">
<title>2892508172736</title>
<polygon fill="white" stroke="black" points="1688,-77 1608.25,-77 1608.25,-41 1688,-41 1688,-77"/>
<text text-anchor="middle" x="1648.12" y="-53.98" font-family="Times New Roman,serif" font-size="12.00">Safety Check</text>
</g>
<!-- 2892508172112 -->
<g id="node27" class="node">
<title>2892508172112</title>
<ellipse fill="white" stroke="black" cx="1751" cy="-59" rx="27" ry="27"/>
</g>
<!-- 2892508172736&#45;&gt;2892508172112 -->
<g id="edge18" class="edge">
<title>2892508172736&#45;&gt;2892508172112</title>
<path fill="none" stroke="black" d="M1688.41,-59C1696.28,-59 1704.52,-59 1712.32,-59"/>
<polygon fill="black" stroke="black" points="1712.22,-62.5 1722.22,-59 1712.22,-55.5 1712.22,-62.5"/>
</g>
<!-- 2892508170912 -->
<g id="node10" class="node">
<title>2892508170912</title>
<polygon fill="white" stroke="black" points="1896.75,-77 1814,-77 1814,-41 1896.75,-41 1896.75,-77"/>
<text text-anchor="middle" x="1855.38" y="-53.98" font-family="Times New Roman,serif" font-size="12.00">Logistics Plan</text>
</g>
<!-- 2892504645808 -->
<g id="node28" class="node">
<title>2892504645808</title>
<ellipse fill="white" stroke="black" cx="1959.75" cy="-59" rx="27" ry="27"/>
</g>
<!-- 2892508170912&#45;&gt;2892504645808 -->
<g id="edge20" class="edge">
<title>2892508170912&#45;&gt;2892504645808</title>
<path fill="none" stroke="black" d="M1897.13,-59C1904.98,-59 1913.17,-59 1920.92,-59"/>
<polygon fill="black" stroke="black" points="1920.74,-62.5 1930.74,-59 1920.74,-55.5 1920.74,-62.5"/>
</g>
<!-- 2892504645952 -->
<g id="node11" class="node">
<title>2892504645952</title>
<polygon fill="white" stroke="black" points="2081.5,-77 2022.75,-77 2022.75,-41 2081.5,-41 2081.5,-77"/>
<text text-anchor="middle" x="2052.12" y="-53.98" font-family="Times New Roman,serif" font-size="12.00">Site Prep</text>
</g>
<!-- 2892504649936 -->
<g id="node29" class="node">
<title>2892504649936</title>
<ellipse fill="white" stroke="black" cx="2144.5" cy="-59" rx="27" ry="27"/>
</g>
<!-- 2892504645952&#45;&gt;2892504649936 -->
<g id="edge22" class="edge">
<title>2892504645952&#45;&gt;2892504649936</title>
<path fill="none" stroke="black" d="M2081.72,-59C2089.36,-59 2097.74,-59 2105.8,-59"/>
<polygon fill="black" stroke="black" points="2105.72,-62.5 2115.72,-59 2105.72,-55.5 2105.72,-62.5"/>
</g>
<!-- 2892504652048 -->
<g id="node12" class="node">
<title>2892504652048</title>
<polygon fill="white" stroke="black" points="2304.5,-50 2207.5,-50 2207.5,-14 2304.5,-14 2304.5,-50"/>
<text text-anchor="middle" x="2256" y="-26.98" font-family="Times New Roman,serif" font-size="12.00">Weather Monitor</text>
</g>
<!-- 2892504652864 -->
<g id="node30" class="node">
<title>2892504652864</title>
<ellipse fill="white" stroke="black" cx="2367.5" cy="-31" rx="27" ry="27"/>
</g>
<!-- 2892504652048&#45;&gt;2892504652864 -->
<g id="edge24" class="edge">
<title>2892504652048&#45;&gt;2892504652864</title>
<path fill="none" stroke="black" d="M2304.71,-31.56C2312.82,-31.49 2321.15,-31.41 2328.95,-31.34"/>
<polygon fill="black" stroke="black" points="2328.82,-34.84 2338.79,-31.25 2328.76,-27.84 2328.82,-34.84"/>
</g>
<!-- 2892504649840 -->
<g id="node13" class="node">
<title>2892504649840</title>
<polygon fill="white" stroke="black" points="2516.25,-49 2430.5,-49 2430.5,-13 2516.25,-13 2516.25,-49"/>
<text text-anchor="middle" x="2473.38" y="-25.98" font-family="Times New Roman,serif" font-size="12.00">Fabricate Parts</text>
</g>
<!-- 2892504651328 -->
<g id="node31" class="node">
<title>2892504651328</title>
<ellipse fill="white" stroke="black" cx="2579.25" cy="-31" rx="27" ry="27"/>
</g>
<!-- 2892504649840&#45;&gt;2892504651328 -->
<g id="edge28" class="edge">
<title>2892504649840&#45;&gt;2892504651328</title>
<path fill="none" stroke="black" d="M2516.62,-31C2524.53,-31 2532.75,-31 2540.51,-31"/>
<polygon fill="black" stroke="black" points="2540.32,-34.5 2550.32,-31 2540.32,-27.5 2540.32,-34.5"/>
</g>
<!-- 2892504653248 -->
<g id="node14" class="node">
<title>2892504653248</title>
<polygon fill="black" stroke="black" points="2500.38,-103 2446.38,-103 2446.38,-67 2500.38,-67 2500.38,-103"/>
</g>
<!-- 2892504653248&#45;&gt;2892504649936 -->
<g id="edge27" class="edge">
<title>2892504653248&#45;&gt;2892504649936</title>
<path fill="none" stroke="black" d="M2446.05,-82.91C2388.2,-78.3 2249.81,-67.3 2182.94,-61.98"/>
<polygon fill="black" stroke="black" points="2183.45,-58.51 2173.21,-61.2 2182.9,-65.49 2183.45,-58.51"/>
</g>
<!-- 2892504659536 -->
<g id="node15" class="node">
<title>2892504659536</title>
<polygon fill="white" stroke="black" points="2738.5,-49 2642.25,-49 2642.25,-13 2738.5,-13 2738.5,-49"/>
<text text-anchor="middle" x="2690.38" y="-25.98" font-family="Times New Roman,serif" font-size="12.00">Assemble Onsite</text>
</g>
<!-- 2892507852448 -->
<g id="node32" class="node">
<title>2892507852448</title>
<ellipse fill="white" stroke="black" cx="2801.5" cy="-31" rx="27" ry="27"/>
</g>
<!-- 2892504659536&#45;&gt;2892507852448 -->
<g id="edge30" class="edge">
<title>2892504659536&#45;&gt;2892507852448</title>
<path fill="none" stroke="black" d="M2738.92,-31C2746.84,-31 2754.95,-31 2762.59,-31"/>
<polygon fill="black" stroke="black" points="2762.58,-34.5 2772.58,-31 2762.58,-27.5 2762.58,-34.5"/>
</g>
<!-- 2892507851008 -->
<g id="node16" class="node">
<title>2892507851008</title>
<polygon fill="white" stroke="black" points="2952.5,-49 2864.5,-49 2864.5,-13 2952.5,-13 2952.5,-49"/>
<text text-anchor="middle" x="2908.5" y="-25.98" font-family="Times New Roman,serif" font-size="12.00">Quality Inspect</text>
</g>
<!-- 2892507854128 -->
<g id="node33" class="node">
<title>2892507854128</title>
<ellipse fill="white" stroke="black" cx="3015.5" cy="-31" rx="27" ry="27"/>
</g>
<!-- 2892507851008&#45;&gt;2892507854128 -->
<g id="edge32" class="edge">
<title>2892507851008&#45;&gt;2892507854128</title>
<path fill="none" stroke="black" d="M2952.81,-31C2960.77,-31 2969.01,-31 2976.78,-31"/>
<polygon fill="black" stroke="black" points="2976.6,-34.5 2986.6,-31 2976.6,-27.5 2976.6,-34.5"/>
</g>
<!-- 2892507847600 -->
<g id="node17" class="node">
<title>2892507847600</title>
<polygon fill="white" stroke="black" points="3179.25,-49 3078.5,-49 3078.5,-13 3179.25,-13 3179.25,-49"/>
<text text-anchor="middle" x="3128.88" y="-25.98" font-family="Times New Roman,serif" font-size="12.00">Maintenance Plan</text>
</g>
<!-- 2892507846208 -->
<g id="node34" class="node">
<title>2892507846208</title>
<ellipse fill="white" stroke="black" cx="3242.25" cy="-31" rx="27" ry="27"/>
</g>
<!-- 2892507847600&#45;&gt;2892507846208 -->
<g id="edge34" class="edge">
<title>2892507847600&#45;&gt;2892507846208</title>
<path fill="none" stroke="black" d="M3179.7,-31C3187.68,-31 3195.83,-31 3203.47,-31"/>
<polygon fill="black" stroke="black" points="3203.45,-34.5 3213.45,-31 3203.45,-27.5 3203.45,-34.5"/>
</g>
<!-- 2892507845920 -->
<g id="node18" class="node">
<title>2892507845920</title>
<polygon fill="white" stroke="black" points="3386.5,-49 3305.25,-49 3305.25,-13 3386.5,-13 3386.5,-49"/>
<text text-anchor="middle" x="3345.88" y="-25.98" font-family="Times New Roman,serif" font-size="12.00">Public Unveil</text>
</g>
<!-- 2892508007360 -->
<g id="node35" class="node">
<title>2892508007360</title>
<ellipse fill="white" stroke="black" cx="3453.5" cy="-31" rx="27" ry="27"/>
<ellipse fill="none" stroke="black" cx="3453.5" cy="-31" rx="31" ry="31"/>
<text text-anchor="start" x="3437" y="-15.6" font-family="Times New Roman,serif" font-size="32.00">■</text>
</g>
<!-- 2892507845920&#45;&gt;2892508007360 -->
<g id="edge36" class="edge">
<title>2892507845920&#45;&gt;2892508007360</title>
<path fill="none" stroke="black" d="M3386.81,-31C3394.66,-31 3402.91,-31 3410.82,-31"/>
<polygon fill="black" stroke="black" points="3410.55,-34.5 3420.55,-31 3410.55,-27.5 3410.55,-34.5"/>
</g>
<!-- 2892508007984 -->
<g id="node19" class="node">
<title>2892508007984</title>
<ellipse fill="white" stroke="black" cx="27" cy="-85" rx="27" ry="27"/>
<text text-anchor="start" x="9.75" y="-67.7" font-family="Times New Roman,serif" font-size="34.00">●</text>
</g>
<!-- 2892508007984&#45;&gt;2892504819152 -->
<g id="edge1" class="edge">
<title>2892508007984&#45;&gt;2892504819152</title>
<path fill="none" stroke="black" d="M54.39,-85C61.65,-85 69.83,-85 78.17,-85"/>
<polygon fill="black" stroke="black" points="78.07,-88.5 88.07,-85 78.07,-81.5 78.07,-88.5"/>
</g>
<!-- 2892504818624&#45;&gt;2892504816848 -->
<g id="edge3" class="edge">
<title>2892504818624&#45;&gt;2892504816848</title>
<path fill="none" stroke="black" d="M281.09,-85C288.5,-85 296.82,-85 305.15,-85"/>
<polygon fill="black" stroke="black" points="304.92,-88.5 314.92,-85 304.92,-81.5 304.92,-88.5"/>
</g>
<!-- 2892504812336&#45;&gt;2892504819488 -->
<g id="edge5" class="edge">
<title>2892504812336&#45;&gt;2892504819488</title>
<path fill="none" stroke="black" d="M487.12,-79.37C494.6,-77.75 503.07,-75.9 511.63,-74.04"/>
<polygon fill="black" stroke="black" points="512.34,-77.47 521.37,-71.92 510.86,-70.63 512.34,-77.47"/>
</g>
<!-- 2892504813488&#45;&gt;2892504817232 -->
<g id="edge7" class="edge">
<title>2892504813488&#45;&gt;2892504817232</title>
<path fill="none" stroke="black" d="M703.13,-53.47C710.36,-53.6 718.52,-53.74 726.86,-53.89"/>
<polygon fill="black" stroke="black" points="726.71,-57.39 736.77,-54.07 726.84,-50.39 726.71,-57.39"/>
</g>
<!-- 2892504818480&#45;&gt;2892508346944 -->
<g id="edge9" class="edge">
<title>2892504818480&#45;&gt;2892508346944</title>
<path fill="none" stroke="black" d="M929.48,-70.58C940.92,-76.17 955.06,-83.07 968.59,-89.67"/>
<polygon fill="black" stroke="black" points="966.88,-92.73 977.4,-93.97 969.95,-86.44 966.88,-92.73"/>
</g>
<!-- 2892504818480&#45;&gt;2892508334560 -->
<g id="edge10" class="edge">
<title>2892504818480&#45;&gt;2892508334560</title>
<path fill="none" stroke="black" d="M932.25,-59C940.16,-59 949.16,-59 958.26,-59"/>
<polygon fill="black" stroke="black" points="958.26,-62.5 968.26,-59 958.26,-55.5 958.26,-62.5"/>
</g>
<!-- 2892508347232&#45;&gt;2892508346848 -->
<g id="edge13" class="edge">
<title>2892508347232&#45;&gt;2892508346848</title>
<path fill="none" stroke="black" d="M1157.46,-59C1164.82,-59 1173.08,-59 1181.37,-59"/>
<polygon fill="black" stroke="black" points="1181.11,-62.5 1191.11,-59 1181.11,-55.5 1181.11,-62.5"/>
</g>
<!-- 2892508156448&#45;&gt;2892508171344 -->
<g id="edge15" class="edge">
<title>2892508156448&#45;&gt;2892508171344</title>
<path fill="none" stroke="black" d="M1366.74,-59C1374.21,-59 1382.6,-59 1390.99,-59"/>
<polygon fill="black" stroke="black" points="1390.83,-62.5 1400.83,-59 1390.83,-55.5 1390.83,-62.5"/>
</g>
<!-- 2892508172928&#45;&gt;2892508172736 -->
<g id="edge17" class="edge">
<title>2892508172928&#45;&gt;2892508172736</title>
<path fill="none" stroke="black" d="M1572.49,-59C1579.96,-59 1588.35,-59 1596.74,-59"/>
<polygon fill="black" stroke="black" points="1596.58,-62.5 1606.58,-59 1596.58,-55.5 1596.58,-62.5"/>
</g>
<!-- 2892508172112&#45;&gt;2892508170912 -->
<g id="edge19" class="edge">
<title>2892508172112&#45;&gt;2892508170912</title>
<path fill="none" stroke="black" d="M1778.36,-59C1785.78,-59 1794.11,-59 1802.46,-59"/>
<polygon fill="black" stroke="black" points="1802.27,-62.5 1812.27,-59 1802.27,-55.5 1802.27,-62.5"/>
</g>
<!-- 2892504645808&#45;&gt;2892504645952 -->
<g id="edge21" class="edge">
<title>2892504645808&#45;&gt;2892504645952</title>
<path fill="none" stroke="black" d="M1986.89,-59C1994.47,-59 2002.93,-59 2011.16,-59"/>
<polygon fill="black" stroke="black" points="2011,-62.5 2021,-59 2011,-55.5 2011,-62.5"/>
</g>
<!-- 2892504649936&#45;&gt;2892504652048 -->
<g id="edge23" class="edge">
<title>2892504649936&#45;&gt;2892504652048</title>
<path fill="none" stroke="black" d="M2171.17,-52.67C2178.73,-50.81 2187.33,-48.69 2196.07,-46.53"/>
<polygon fill="black" stroke="black" points="2196.8,-49.95 2205.68,-44.16 2195.13,-43.16 2196.8,-49.95"/>
</g>
<!-- 2892504652864&#45;&gt;2892504649840 -->
<g id="edge26" class="edge">
<title>2892504652864&#45;&gt;2892504649840</title>
<path fill="none" stroke="black" d="M2394.98,-31C2402.34,-31 2410.6,-31 2418.91,-31"/>
<polygon fill="black" stroke="black" points="2418.69,-34.5 2428.69,-31 2418.69,-27.5 2418.69,-34.5"/>
</g>
<!-- 2892504652864&#45;&gt;2892504653248 -->
<g id="edge25" class="edge">
<title>2892504652864&#45;&gt;2892504653248</title>
<path fill="none" stroke="black" d="M2392.07,-43.25C2404.98,-49.96 2421.26,-58.43 2435.78,-65.98"/>
<polygon fill="black" stroke="black" points="2434.14,-69.07 2444.63,-70.58 2437.37,-62.86 2434.14,-69.07"/>
</g>
<!-- 2892504651328&#45;&gt;2892504659536 -->
<g id="edge29" class="edge">
<title>2892504651328&#45;&gt;2892504659536</title>
<path fill="none" stroke="black" d="M2606.67,-31C2613.95,-31 2622.16,-31 2630.5,-31"/>
<polygon fill="black" stroke="black" points="2630.37,-34.5 2640.37,-31 2630.37,-27.5 2630.37,-34.5"/>
</g>
<!-- 2892507852448&#45;&gt;2892507851008 -->
<g id="edge31" class="edge">
<title>2892507852448&#45;&gt;2892507851008</title>
<path fill="none" stroke="black" d="M2829,-31C2836.35,-31 2844.61,-31 2852.94,-31"/>
<polygon fill="black" stroke="black" points="2852.75,-34.5 2862.75,-31 2852.75,-27.5 2852.75,-34.5"/>
</g>
<!-- 2892507854128&#45;&gt;2892507847600 -->
<g id="edge33" class="edge">
<title>2892507854128&#45;&gt;2892507847600</title>
<path fill="none" stroke="black" d="M3042.89,-31C3050.15,-31 3058.33,-31 3066.67,-31"/>
<polygon fill="black" stroke="black" points="3066.57,-34.5 3076.57,-31 3066.57,-27.5 3066.57,-34.5"/>
</g>
<!-- 2892507846208&#45;&gt;2892507845920 -->
<g id="edge35" class="edge">
<title>2892507846208&#45;&gt;2892507845920</title>
<path fill="none" stroke="black" d="M3269.69,-31C3276.96,-31 3285.11,-31 3293.28,-31"/>
<polygon fill="black" stroke="black" points="3293.26,-34.5 3303.26,-31 3293.26,-27.5 3293.26,-34.5"/>
</g>
</g>
</svg>
