<?xml version="1.0" encoding="UTF-8" standalone="no"?>
<!DOCTYPE svg PUBLIC "-//W3C//DTD SVG 1.1//EN"
 "http://www.w3.org/Graphics/SVG/1.1/DTD/svg11.dtd">
<!-- Generated by graphviz version 11.0.0 (20240428.1522)
 -->
<!-- Title: imdf_net_1754052930.8623424 Pages: 1 -->
<svg width="2987pt" height="202pt"
 viewBox="0.00 0.00 2986.50 202.00" xmlns="http://www.w3.org/2000/svg" xmlns:xlink="http://www.w3.org/1999/xlink">
<g id="graph0" class="graph" transform="scale(1 1) rotate(0) translate(4 198)">
<title>imdf_net_1754052930.8623424</title>
<polygon fill="white" stroke="none" points="-4,4 -4,-198 2982.5,-198 2982.5,4 -4,4"/>
<!-- 1990978391168 -->
<g id="node1" class="node">
<title>1990978391168</title>
<polygon fill="white" stroke="black" points="160.75,-149 90,-149 90,-113 160.75,-113 160.75,-149"/>
<text text-anchor="middle" x="125.38" y="-125.97" font-family="Times New Roman,serif" font-size="12.00">Site Survey</text>
</g>
<!-- 1990978400912 -->
<g id="node19" class="node">
<title>1990978400912</title>
<ellipse fill="white" stroke="black" cx="223.75" cy="-131" rx="27" ry="27"/>
</g>
<!-- 1990978391168&#45;&gt;1990978400912 -->
<g id="edge2" class="edge">
<title>1990978391168&#45;&gt;1990978400912</title>
<path fill="none" stroke="black" d="M161.17,-131C168.9,-131 177.14,-131 184.98,-131"/>
<polygon fill="black" stroke="black" points="184.97,-134.5 194.97,-131 184.97,-127.5 184.97,-134.5"/>
</g>
<!-- 1990978710528 -->
<g id="node2" class="node">
<title>1990978710528</title>
<polygon fill="white" stroke="black" points="362.75,-149 286.75,-149 286.75,-113 362.75,-113 362.75,-149"/>
<text text-anchor="middle" x="324.75" y="-125.97" font-family="Times New Roman,serif" font-size="12.00">Fleet Design</text>
</g>
<!-- 1990975912464 -->
<g id="node20" class="node">
<title>1990975912464</title>
<ellipse fill="white" stroke="black" cx="425.75" cy="-167" rx="27" ry="27"/>
</g>
<!-- 1990978710528&#45;&gt;1990975912464 -->
<g id="edge5" class="edge">
<title>1990978710528&#45;&gt;1990975912464</title>
<path fill="none" stroke="black" d="M363.18,-144.61C371.71,-147.71 380.74,-151 389.19,-154.07"/>
<polygon fill="black" stroke="black" points="387.85,-157.31 398.44,-157.43 390.24,-150.73 387.85,-157.31"/>
</g>
<!-- 1990975755216 -->
<g id="node21" class="node">
<title>1990975755216</title>
<ellipse fill="white" stroke="black" cx="425.75" cy="-95" rx="27" ry="27"/>
</g>
<!-- 1990978710528&#45;&gt;1990975755216 -->
<g id="edge4" class="edge">
<title>1990978710528&#45;&gt;1990975755216</title>
<path fill="none" stroke="black" d="M363.18,-117.39C371.71,-114.29 380.74,-111 389.19,-107.93"/>
<polygon fill="black" stroke="black" points="390.24,-111.27 398.44,-104.57 387.85,-104.69 390.24,-111.27"/>
</g>
<!-- 1990982050128 -->
<g id="node3" class="node">
<title>1990982050128</title>
<polygon fill="white" stroke="black" points="596.25,-113 488.75,-113 488.75,-77 596.25,-77 596.25,-113"/>
<text text-anchor="middle" x="542.5" y="-89.97" font-family="Times New Roman,serif" font-size="12.00">Regulation Review</text>
</g>
<!-- 1990981348880 -->
<g id="node22" class="node">
<title>1990981348880</title>
<ellipse fill="white" stroke="black" cx="659.25" cy="-95" rx="27" ry="27"/>
</g>
<!-- 1990982050128&#45;&gt;1990981348880 -->
<g id="edge9" class="edge">
<title>1990982050128&#45;&gt;1990981348880</title>
<path fill="none" stroke="black" d="M596.51,-95C604.7,-95 613.01,-95 620.76,-95"/>
<polygon fill="black" stroke="black" points="620.51,-98.5 630.51,-95 620.51,-91.5 620.51,-98.5"/>
</g>
<!-- 1990975912176 -->
<g id="node4" class="node">
<title>1990975912176</title>
<polygon fill="white" stroke="black" points="586.5,-185 498.5,-185 498.5,-149 586.5,-149 586.5,-185"/>
<text text-anchor="middle" x="542.5" y="-161.97" font-family="Times New Roman,serif" font-size="12.00">Permit Request</text>
</g>
<!-- 1990981351088 -->
<g id="node23" class="node">
<title>1990981351088</title>
<ellipse fill="white" stroke="black" cx="659.25" cy="-167" rx="27" ry="27"/>
</g>
<!-- 1990975912176&#45;&gt;1990981351088 -->
<g id="edge8" class="edge">
<title>1990975912176&#45;&gt;1990981351088</title>
<path fill="none" stroke="black" d="M586.88,-167C597.97,-167 609.81,-167 620.59,-167"/>
<polygon fill="black" stroke="black" points="620.27,-170.5 630.27,-167 620.27,-163.5 620.27,-170.5"/>
</g>
<!-- 1990982054640 -->
<g id="node5" class="node">
<title>1990982054640</title>
<polygon fill="white" stroke="black" points="821.5,-149 722.25,-149 722.25,-113 821.5,-113 821.5,-149"/>
<text text-anchor="middle" x="771.88" y="-125.97" font-family="Times New Roman,serif" font-size="12.00">Stakeholder Meet</text>
</g>
<!-- 1990982046144 -->
<g id="node24" class="node">
<title>1990982046144</title>
<ellipse fill="white" stroke="black" cx="884.5" cy="-131" rx="27" ry="27"/>
</g>
<!-- 1990982054640&#45;&gt;1990982046144 -->
<g id="edge12" class="edge">
<title>1990982054640&#45;&gt;1990982046144</title>
<path fill="none" stroke="black" d="M821.72,-131C829.79,-131 838.05,-131 845.79,-131"/>
<polygon fill="black" stroke="black" points="845.55,-134.5 855.55,-131 845.55,-127.5 845.55,-134.5"/>
</g>
<!-- 1990981519696 -->
<g id="node6" class="node">
<title>1990981519696</title>
<polygon fill="white" stroke="black" points="1037.75,-149 947.5,-149 947.5,-113 1037.75,-113 1037.75,-149"/>
<text text-anchor="middle" x="992.62" y="-125.97" font-family="Times New Roman,serif" font-size="12.00">Route Mapping</text>
</g>
<!-- 1990981524736 -->
<g id="node25" class="node">
<title>1990981524736</title>
<ellipse fill="white" stroke="black" cx="1100.75" cy="-131" rx="27" ry="27"/>
</g>
<!-- 1990981519696&#45;&gt;1990981524736 -->
<g id="edge14" class="edge">
<title>1990981519696&#45;&gt;1990981524736</title>
<path fill="none" stroke="black" d="M1038.02,-131C1046.01,-131 1054.28,-131 1062.06,-131"/>
<polygon fill="black" stroke="black" points="1061.89,-134.5 1071.89,-131 1061.89,-127.5 1061.89,-134.5"/>
</g>
<!-- 1990981531744 -->
<g id="node7" class="node">
<title>1990981531744</title>
<polygon fill="white" stroke="black" points="1239,-149 1163.75,-149 1163.75,-113 1239,-113 1239,-149"/>
<text text-anchor="middle" x="1201.38" y="-125.97" font-family="Times New Roman,serif" font-size="12.00">Traffic Sync</text>
</g>
<!-- 1990981517584 -->
<g id="node26" class="node">
<title>1990981517584</title>
<ellipse fill="white" stroke="black" cx="1302" cy="-167" rx="27" ry="27"/>
</g>
<!-- 1990981531744&#45;&gt;1990981517584 -->
<g id="edge16" class="edge">
<title>1990981531744&#45;&gt;1990981517584</title>
<path fill="none" stroke="black" d="M1239.38,-144.51C1247.89,-147.61 1256.93,-150.91 1265.38,-154"/>
<polygon fill="black" stroke="black" points="1264.05,-157.24 1274.64,-157.38 1266.45,-150.66 1264.05,-157.24"/>
</g>
<!-- 1990981527904 -->
<g id="node27" class="node">
<title>1990981527904</title>
<ellipse fill="white" stroke="black" cx="1302" cy="-95" rx="27" ry="27"/>
</g>
<!-- 1990981531744&#45;&gt;1990981527904 -->
<g id="edge17" class="edge">
<title>1990981531744&#45;&gt;1990981527904</title>
<path fill="none" stroke="black" d="M1239.38,-117.49C1247.89,-114.39 1256.93,-111.09 1265.38,-108"/>
<polygon fill="black" stroke="black" points="1266.45,-111.34 1274.64,-104.62 1264.05,-104.76 1266.45,-111.34"/>
</g>
<!-- 1990981527952 -->
<g id="node8" class="node">
<title>1990981527952</title>
<polygon fill="white" stroke="black" points="1461.25,-185 1365,-185 1365,-149 1461.25,-149 1461.25,-185"/>
<text text-anchor="middle" x="1413.12" y="-161.97" font-family="Times New Roman,serif" font-size="12.00">Drone Assembly</text>
</g>
<!-- 1990982430656 -->
<g id="node28" class="node">
<title>1990982430656</title>
<ellipse fill="white" stroke="black" cx="1524.25" cy="-167" rx="27" ry="27"/>
</g>
<!-- 1990981527952&#45;&gt;1990982430656 -->
<g id="edge20" class="edge">
<title>1990981527952&#45;&gt;1990982430656</title>
<path fill="none" stroke="black" d="M1461.67,-167C1469.59,-167 1477.7,-167 1485.34,-167"/>
<polygon fill="black" stroke="black" points="1485.33,-170.5 1495.33,-167 1485.33,-163.5 1485.33,-170.5"/>
</g>
<!-- 1990975990688 -->
<g id="node9" class="node">
<title>1990975990688</title>
<polygon fill="white" stroke="black" points="1457.5,-113 1368.75,-113 1368.75,-77 1457.5,-77 1457.5,-113"/>
<text text-anchor="middle" x="1413.12" y="-89.97" font-family="Times New Roman,serif" font-size="12.00">Software Setup</text>
</g>
<!-- 1990982428736 -->
<g id="node29" class="node">
<title>1990982428736</title>
<ellipse fill="white" stroke="black" cx="1524.25" cy="-95" rx="27" ry="27"/>
</g>
<!-- 1990975990688&#45;&gt;1990982428736 -->
<g id="edge21" class="edge">
<title>1990975990688&#45;&gt;1990982428736</title>
<path fill="none" stroke="black" d="M1457.88,-95C1467.03,-95 1476.61,-95 1485.52,-95"/>
<polygon fill="black" stroke="black" points="1485.25,-98.5 1495.25,-95 1485.25,-91.5 1485.25,-98.5"/>
</g>
<!-- 1990975980752 -->
<g id="node10" class="node">
<title>1990975980752</title>
<polygon fill="white" stroke="black" points="1654.25,-149 1587.25,-149 1587.25,-113 1654.25,-113 1654.25,-149"/>
<text text-anchor="middle" x="1620.75" y="-125.97" font-family="Times New Roman,serif" font-size="12.00">Test Flight</text>
</g>
<!-- 1990980030720 -->
<g id="node30" class="node">
<title>1990980030720</title>
<ellipse fill="white" stroke="black" cx="1717.25" cy="-131" rx="27" ry="27"/>
</g>
<!-- 1990975980752&#45;&gt;1990980030720 -->
<g id="edge24" class="edge">
<title>1990975980752&#45;&gt;1990980030720</title>
<path fill="none" stroke="black" d="M1654.54,-131C1662.27,-131 1670.58,-131 1678.52,-131"/>
<polygon fill="black" stroke="black" points="1678.25,-134.5 1688.25,-131 1678.25,-127.5 1678.25,-134.5"/>
</g>
<!-- 1990980034368 -->
<g id="node11" class="node">
<title>1990980034368</title>
<polygon fill="white" stroke="black" points="1872.75,-149 1780.25,-149 1780.25,-113 1872.75,-113 1872.75,-149"/>
<text text-anchor="middle" x="1826.5" y="-125.97" font-family="Times New Roman,serif" font-size="12.00">Data Integration</text>
</g>
<!-- 1992843257008 -->
<g id="node31" class="node">
<title>1992843257008</title>
<ellipse fill="white" stroke="black" cx="1935.75" cy="-131" rx="27" ry="27"/>
</g>
<!-- 1990980034368&#45;&gt;1992843257008 -->
<g id="edge26" class="edge">
<title>1990980034368&#45;&gt;1992843257008</title>
<path fill="none" stroke="black" d="M1872.98,-131C1881.02,-131 1889.31,-131 1897.1,-131"/>
<polygon fill="black" stroke="black" points="1896.94,-134.5 1906.94,-131 1896.94,-127.5 1896.94,-134.5"/>
</g>
<!-- 1990980947744 -->
<g id="node12" class="node">
<title>1990980947744</title>
<polygon fill="white" stroke="black" points="2092.75,-149 1998.75,-149 1998.75,-113 2092.75,-113 2092.75,-149"/>
<text text-anchor="middle" x="2045.75" y="-125.97" font-family="Times New Roman,serif" font-size="12.00">Emergency Plan</text>
</g>
<!-- 1990981241504 -->
<g id="node32" class="node">
<title>1990981241504</title>
<ellipse fill="white" stroke="black" cx="2155.75" cy="-131" rx="27" ry="27"/>
</g>
<!-- 1990980947744&#45;&gt;1990981241504 -->
<g id="edge28" class="edge">
<title>1990980947744&#45;&gt;1990981241504</title>
<path fill="none" stroke="black" d="M2093.18,-131C2101.06,-131 2109.16,-131 2116.78,-131"/>
<polygon fill="black" stroke="black" points="2116.77,-134.5 2126.77,-131 2116.77,-127.5 2116.77,-134.5"/>
</g>
<!-- 1990981251920 -->
<g id="node13" class="node">
<title>1990981251920</title>
<polygon fill="white" stroke="black" points="2295.5,-149 2218.75,-149 2218.75,-113 2295.5,-113 2295.5,-149"/>
<text text-anchor="middle" x="2257.12" y="-125.97" font-family="Times New Roman,serif" font-size="12.00">Launch Prep</text>
</g>
<!-- 1990977212048 -->
<g id="node33" class="node">
<title>1990977212048</title>
<ellipse fill="white" stroke="black" cx="2358.5" cy="-131" rx="27" ry="27"/>
</g>
<!-- 1990981251920&#45;&gt;1990977212048 -->
<g id="edge30" class="edge">
<title>1990981251920&#45;&gt;1990977212048</title>
<path fill="none" stroke="black" d="M2295.98,-131C2303.77,-131 2311.98,-131 2319.77,-131"/>
<polygon fill="black" stroke="black" points="2319.65,-134.5 2329.65,-131 2319.65,-127.5 2319.65,-134.5"/>
</g>
<!-- 1990977729504 -->
<g id="node14" class="node">
<title>1990977729504</title>
<polygon fill="white" stroke="black" points="2524.5,-126 2421.5,-126 2421.5,-90 2524.5,-90 2524.5,-126"/>
<text text-anchor="middle" x="2473" y="-102.97" font-family="Times New Roman,serif" font-size="12.00">Compliance Audit</text>
</g>
<!-- 1990977726912 -->
<g id="node34" class="node">
<title>1990977726912</title>
<ellipse fill="white" stroke="black" cx="2587.5" cy="-99" rx="27" ry="27"/>
</g>
<!-- 1990977729504&#45;&gt;1990977726912 -->
<g id="edge32" class="edge">
<title>1990977729504&#45;&gt;1990977726912</title>
<path fill="none" stroke="black" d="M2524.98,-103.92C2533.09,-103.27 2541.35,-102.61 2549.07,-101.99"/>
<polygon fill="black" stroke="black" points="2549.09,-105.5 2558.77,-101.22 2548.53,-98.53 2549.09,-105.5"/>
</g>
<!-- 1990978479232 -->
<g id="node15" class="node">
<title>1990978479232</title>
<polygon fill="white" stroke="black" points="2754.25,-121 2650.5,-121 2650.5,-85 2754.25,-85 2754.25,-121"/>
<text text-anchor="middle" x="2702.38" y="-97.97" font-family="Times New Roman,serif" font-size="12.00">Performance Tune</text>
</g>
<!-- 1990978475440 -->
<g id="node35" class="node">
<title>1990978475440</title>
<ellipse fill="white" stroke="black" cx="2821.25" cy="-107" rx="27" ry="27"/>
</g>
<!-- 1990978479232&#45;&gt;1990978475440 -->
<g id="edge35" class="edge">
<title>1990978479232&#45;&gt;1990978475440</title>
<path fill="none" stroke="black" d="M2754.64,-104.75C2764.11,-105.08 2773.83,-105.41 2782.79,-105.72"/>
<polygon fill="black" stroke="black" points="2782.43,-109.21 2792.54,-106.05 2782.66,-102.21 2782.43,-109.21"/>
</g>
<!-- 1990981344608 -->
<g id="node16" class="node">
<title>1990981344608</title>
<polygon fill="white" stroke="black" points="2744.12,-58 2660.62,-58 2660.62,-22 2744.12,-22 2744.12,-58"/>
<text text-anchor="middle" x="2702.38" y="-34.98" font-family="Times New Roman,serif" font-size="12.00">Scale Strategy</text>
</g>
<!-- 1990979665648 -->
<g id="node36" class="node">
<title>1990979665648</title>
<ellipse fill="white" stroke="black" cx="2821.25" cy="-31" rx="27" ry="27"/>
<ellipse fill="none" stroke="black" cx="2821.25" cy="-31" rx="31" ry="31"/>
<text text-anchor="start" x="2804.75" y="-15.6" font-family="Times New Roman,serif" font-size="32.00">■</text>
</g>
<!-- 1990981344608&#45;&gt;1990979665648 -->
<g id="edge36" class="edge">
<title>1990981344608&#45;&gt;1990979665648</title>
<path fill="none" stroke="black" d="M2744.58,-36.83C2755.7,-35.97 2767.74,-35.04 2778.87,-34.19"/>
<polygon fill="black" stroke="black" points="2778.85,-37.7 2788.55,-33.44 2778.32,-30.72 2778.85,-37.7"/>
</g>
<!-- 1990980028464 -->
<g id="node17" class="node">
<title>1990980028464</title>
<polygon fill="white" stroke="black" points="2978.5,-152 2888.25,-152 2888.25,-116 2978.5,-116 2978.5,-152"/>
<text text-anchor="middle" x="2933.38" y="-128.97" font-family="Times New Roman,serif" font-size="12.00">Feedback Loop</text>
</g>
<!-- 1990980028464&#45;&gt;1990977212048 -->
<g id="edge38" class="edge">
<title>1990980028464&#45;&gt;1990977212048</title>
<path fill="none" stroke="black" d="M2887.81,-142.71C2841.81,-150.93 2767.86,-162 2703.38,-162 2586.5,-162 2586.5,-162 2586.5,-162 2518.95,-162 2441.13,-148.36 2396.39,-139.17"/>
<polygon fill="black" stroke="black" points="2397.2,-135.77 2386.7,-137.14 2395.77,-142.62 2397.2,-135.77"/>
</g>
<!-- 1990979653216 -->
<g id="node18" class="node">
<title>1990979653216</title>
<ellipse fill="white" stroke="black" cx="27" cy="-131" rx="27" ry="27"/>
<text text-anchor="start" x="9.75" y="-113.7" font-family="Times New Roman,serif" font-size="34.00">●</text>
</g>
<!-- 1990979653216&#45;&gt;1990978391168 -->
<g id="edge1" class="edge">
<title>1990979653216&#45;&gt;1990978391168</title>
<path fill="none" stroke="black" d="M54.33,-131C61.76,-131 70.06,-131 78.28,-131"/>
<polygon fill="black" stroke="black" points="78.24,-134.5 88.24,-131 78.24,-127.5 78.24,-134.5"/>
</g>
<!-- 1990978400912&#45;&gt;1990978710528 -->
<g id="edge3" class="edge">
<title>1990978400912&#45;&gt;1990978710528</title>
<path fill="none" stroke="black" d="M251.02,-131C258.5,-131 266.9,-131 275.26,-131"/>
<polygon fill="black" stroke="black" points="275.03,-134.5 285.03,-131 275.03,-127.5 275.03,-134.5"/>
</g>
<!-- 1990975912464&#45;&gt;1990975912176 -->
<g id="edge6" class="edge">
<title>1990975912464&#45;&gt;1990975912176</title>
<path fill="none" stroke="black" d="M453.08,-167C463.2,-167 475.18,-167 486.99,-167"/>
<polygon fill="black" stroke="black" points="486.69,-170.5 496.69,-167 486.69,-163.5 486.69,-170.5"/>
</g>
<!-- 1990975755216&#45;&gt;1990982050128 -->
<g id="edge7" class="edge">
<title>1990975755216&#45;&gt;1990982050128</title>
<path fill="none" stroke="black" d="M453.08,-95C460.44,-95 468.77,-95 477.32,-95"/>
<polygon fill="black" stroke="black" points="477.08,-98.5 487.08,-95 477.08,-91.5 477.08,-98.5"/>
</g>
<!-- 1990981348880&#45;&gt;1990982054640 -->
<g id="edge10" class="edge">
<title>1990981348880&#45;&gt;1990982054640</title>
<path fill="none" stroke="black" d="M685.35,-103.17C693.14,-105.7 702.08,-108.61 711.19,-111.58"/>
<polygon fill="black" stroke="black" points="709.85,-114.82 720.44,-114.59 712.02,-108.17 709.85,-114.82"/>
</g>
<!-- 1990981351088&#45;&gt;1990982054640 -->
<g id="edge11" class="edge">
<title>1990981351088&#45;&gt;1990982054640</title>
<path fill="none" stroke="black" d="M685.35,-158.83C693.14,-156.3 702.08,-153.39 711.19,-150.42"/>
<polygon fill="black" stroke="black" points="712.02,-153.83 720.44,-147.41 709.85,-147.18 712.02,-153.83"/>
</g>
<!-- 1990982046144&#45;&gt;1990981519696 -->
<g id="edge13" class="edge">
<title>1990982046144&#45;&gt;1990981519696</title>
<path fill="none" stroke="black" d="M911.73,-131C919.08,-131 927.35,-131 935.72,-131"/>
<polygon fill="black" stroke="black" points="935.59,-134.5 945.59,-131 935.59,-127.5 935.59,-134.5"/>
</g>
<!-- 1990981524736&#45;&gt;1990981531744 -->
<g id="edge15" class="edge">
<title>1990981524736&#45;&gt;1990981531744</title>
<path fill="none" stroke="black" d="M1128.18,-131C1135.55,-131 1143.79,-131 1152,-131"/>
<polygon fill="black" stroke="black" points="1151.98,-134.5 1161.98,-131 1151.98,-127.5 1151.98,-134.5"/>
</g>
<!-- 1990981517584&#45;&gt;1990981527952 -->
<g id="edge19" class="edge">
<title>1990981517584&#45;&gt;1990981527952</title>
<path fill="none" stroke="black" d="M1329.42,-167C1336.7,-167 1344.91,-167 1353.25,-167"/>
<polygon fill="black" stroke="black" points="1353.12,-170.5 1363.12,-167 1353.12,-163.5 1353.12,-170.5"/>
</g>
<!-- 1990981527904&#45;&gt;1990975990688 -->
<g id="edge18" class="edge">
<title>1990981527904&#45;&gt;1990975990688</title>
<path fill="none" stroke="black" d="M1329.42,-95C1337.85,-95 1347.52,-95 1357.2,-95"/>
<polygon fill="black" stroke="black" points="1356.99,-98.5 1366.99,-95 1356.99,-91.5 1356.99,-98.5"/>
</g>
<!-- 1990982430656&#45;&gt;1990975980752 -->
<g id="edge22" class="edge">
<title>1990982430656&#45;&gt;1990975980752</title>
<path fill="none" stroke="black" d="M1549.59,-157.73C1557.76,-154.61 1567.15,-151.04 1576.33,-147.54"/>
<polygon fill="black" stroke="black" points="1577.43,-150.87 1585.53,-144.04 1574.94,-144.32 1577.43,-150.87"/>
</g>
<!-- 1990982428736&#45;&gt;1990975980752 -->
<g id="edge23" class="edge">
<title>1990982428736&#45;&gt;1990975980752</title>
<path fill="none" stroke="black" d="M1549.59,-104.27C1557.76,-107.39 1567.15,-110.96 1576.33,-114.46"/>
<polygon fill="black" stroke="black" points="1574.94,-117.68 1585.53,-117.96 1577.43,-111.13 1574.94,-117.68"/>
</g>
<!-- 1990980030720&#45;&gt;1990980034368 -->
<g id="edge25" class="edge">
<title>1990980030720&#45;&gt;1990980034368</title>
<path fill="none" stroke="black" d="M1744.49,-131C1751.82,-131 1760.09,-131 1768.47,-131"/>
<polygon fill="black" stroke="black" points="1768.37,-134.5 1778.37,-131 1768.37,-127.5 1768.37,-134.5"/>
</g>
<!-- 1992843257008&#45;&gt;1990980947744 -->
<g id="edge27" class="edge">
<title>1992843257008&#45;&gt;1990980947744</title>
<path fill="none" stroke="black" d="M1963.17,-131C1970.47,-131 1978.69,-131 1987.02,-131"/>
<polygon fill="black" stroke="black" points="1986.88,-134.5 1996.88,-131 1986.88,-127.5 1986.88,-134.5"/>
</g>
<!-- 1990981241504&#45;&gt;1990981251920 -->
<g id="edge29" class="edge">
<title>1990981241504&#45;&gt;1990981251920</title>
<path fill="none" stroke="black" d="M2183.12,-131C2190.47,-131 2198.69,-131 2206.9,-131"/>
<polygon fill="black" stroke="black" points="2206.89,-134.5 2216.89,-131 2206.89,-127.5 2206.89,-134.5"/>
</g>
<!-- 1990977212048&#45;&gt;1990977729504 -->
<g id="edge31" class="edge">
<title>1990977212048&#45;&gt;1990977729504</title>
<path fill="none" stroke="black" d="M2385.31,-125.72C2392.79,-124.19 2401.3,-122.45 2409.99,-120.68"/>
<polygon fill="black" stroke="black" points="2410.46,-124.15 2419.56,-118.72 2409.06,-117.3 2410.46,-124.15"/>
</g>
<!-- 1990977726912&#45;&gt;1990978479232 -->
<g id="edge34" class="edge">
<title>1990977726912&#45;&gt;1990978479232</title>
<path fill="none" stroke="black" d="M2614.96,-99.94C2622.22,-100.2 2630.41,-100.49 2638.78,-100.78"/>
<polygon fill="black" stroke="black" points="2638.61,-104.28 2648.73,-101.13 2638.86,-97.28 2638.61,-104.28"/>
</g>
<!-- 1990977726912&#45;&gt;1990981344608 -->
<g id="edge33" class="edge">
<title>1990977726912&#45;&gt;1990981344608</title>
<path fill="none" stroke="black" d="M2611.89,-86.78C2624.71,-80.07 2641.04,-71.54 2656.23,-63.6"/>
<polygon fill="black" stroke="black" points="2657.42,-66.93 2664.66,-59.19 2654.18,-60.72 2657.42,-66.93"/>
</g>
<!-- 1990978475440&#45;&gt;1990980028464 -->
<g id="edge37" class="edge">
<title>1990978475440&#45;&gt;1990980028464</title>
<path fill="none" stroke="black" d="M2847.79,-113.26C2856.56,-115.41 2866.76,-117.91 2876.96,-120.41"/>
<polygon fill="black" stroke="black" points="2875.96,-123.77 2886.51,-122.75 2877.63,-116.97 2875.96,-123.77"/>
</g>
</g>
</svg>
