<?xml version="1.0" encoding="UTF-8" standalone="no"?>
<!DOCTYPE svg PUBLIC "-//W3C//DTD SVG 1.1//EN"
 "http://www.w3.org/Graphics/SVG/1.1/DTD/svg11.dtd">
<!-- Generated by graphviz version 11.0.0 (20240428.1522)
 -->
<!-- Title: imdf_net_1754052929.9528954 Pages: 1 -->
<svg width="3279pt" height="158pt"
 viewBox="0.00 0.00 3279.00 158.00" xmlns="http://www.w3.org/2000/svg" xmlns:xlink="http://www.w3.org/1999/xlink">
<g id="graph0" class="graph" transform="scale(1 1) rotate(0) translate(4 154)">
<title>imdf_net_1754052929.9528954</title>
<polygon fill="white" stroke="none" points="-4,4 -4,-154 3275,-154 3275,4 -4,4"/>
<!-- 1990977916320 -->
<g id="node1" class="node">
<title>1990977916320</title>
<polygon fill="white" stroke="black" points="192.25,-105 90,-105 90,-69 192.25,-69 192.25,-105"/>
<text text-anchor="middle" x="141.12" y="-81.97" font-family="Times New Roman,serif" font-size="12.00">Regulatory Check</text>
</g>
<!-- 1990976051328 -->
<g id="node21" class="node">
<title>1990976051328</title>
<ellipse fill="white" stroke="black" cx="255.25" cy="-87" rx="27" ry="27"/>
</g>
<!-- 1990977916320&#45;&gt;1990976051328 -->
<g id="edge2" class="edge">
<title>1990977916320&#45;&gt;1990976051328</title>
<path fill="none" stroke="black" d="M192.61,-87C200.72,-87 208.98,-87 216.71,-87"/>
<polygon fill="black" stroke="black" points="216.44,-90.5 226.44,-87 216.44,-83.5 216.44,-90.5"/>
</g>
<!-- 1990981482448 -->
<g id="node2" class="node">
<title>1990981482448</title>
<polygon fill="white" stroke="black" points="392,-105 318.25,-105 318.25,-69 392,-69 392,-105"/>
<text text-anchor="middle" x="355.12" y="-81.97" font-family="Times New Roman,serif" font-size="12.00">Path Design</text>
</g>
<!-- 1990979573264 -->
<g id="node22" class="node">
<title>1990979573264</title>
<ellipse fill="white" stroke="black" cx="455" cy="-123" rx="27" ry="27"/>
</g>
<!-- 1990981482448&#45;&gt;1990979573264 -->
<g id="edge5" class="edge">
<title>1990981482448&#45;&gt;1990979573264</title>
<path fill="none" stroke="black" d="M392.29,-100.3C400.85,-103.45 409.97,-106.8 418.49,-109.94"/>
<polygon fill="black" stroke="black" points="417.25,-113.21 427.85,-113.38 419.67,-106.64 417.25,-113.21"/>
</g>
<!-- 1990979568320 -->
<g id="node23" class="node">
<title>1990979568320</title>
<ellipse fill="white" stroke="black" cx="455" cy="-51" rx="27" ry="27"/>
</g>
<!-- 1990981482448&#45;&gt;1990979568320 -->
<g id="edge4" class="edge">
<title>1990981482448&#45;&gt;1990979568320</title>
<path fill="none" stroke="black" d="M392.29,-73.7C400.85,-70.55 409.97,-67.2 418.49,-64.06"/>
<polygon fill="black" stroke="black" points="419.67,-67.36 427.85,-60.62 417.25,-60.79 419.67,-67.36"/>
</g>
<!-- 1990980799568 -->
<g id="node3" class="node">
<title>1990980799568</title>
<polygon fill="white" stroke="black" points="598.5,-141 520.25,-141 520.25,-105 598.5,-105 598.5,-141"/>
<text text-anchor="middle" x="559.38" y="-117.97" font-family="Times New Roman,serif" font-size="12.00">Traffic Align</text>
</g>
<!-- 1990979581616 -->
<g id="node25" class="node">
<title>1990979581616</title>
<ellipse fill="white" stroke="black" cx="663.75" cy="-123" rx="27" ry="27"/>
</g>
<!-- 1990980799568&#45;&gt;1990979581616 -->
<g id="edge9" class="edge">
<title>1990980799568&#45;&gt;1990979581616</title>
<path fill="none" stroke="black" d="M598.79,-123C607.45,-123 616.63,-123 625.25,-123"/>
<polygon fill="black" stroke="black" points="625.04,-126.5 635.04,-123 625.04,-119.5 625.04,-126.5"/>
</g>
<!-- 1990979576288 -->
<g id="node4" class="node">
<title>1990979576288</title>
<polygon fill="white" stroke="black" points="600.75,-69 518,-69 518,-33 600.75,-33 600.75,-69"/>
<text text-anchor="middle" x="559.38" y="-45.98" font-family="Times New Roman,serif" font-size="12.00">Weather Sync</text>
</g>
<!-- 1990979576240 -->
<g id="node24" class="node">
<title>1990979576240</title>
<ellipse fill="white" stroke="black" cx="663.75" cy="-51" rx="27" ry="27"/>
</g>
<!-- 1990979576288&#45;&gt;1990979576240 -->
<g id="edge8" class="edge">
<title>1990979576288&#45;&gt;1990979576240</title>
<path fill="none" stroke="black" d="M601.13,-51C608.98,-51 617.17,-51 624.92,-51"/>
<polygon fill="black" stroke="black" points="624.74,-54.5 634.74,-51 624.74,-47.5 624.74,-54.5"/>
</g>
<!-- 1992862834640 -->
<g id="node5" class="node">
<title>1992862834640</title>
<polygon fill="white" stroke="black" points="817.75,-105 726.75,-105 726.75,-69 817.75,-69 817.75,-105"/>
<text text-anchor="middle" x="772.25" y="-81.97" font-family="Times New Roman,serif" font-size="12.00">Package Secure</text>
</g>
<!-- 1990981088416 -->
<g id="node26" class="node">
<title>1990981088416</title>
<ellipse fill="white" stroke="black" cx="880.75" cy="-87" rx="27" ry="27"/>
</g>
<!-- 1992862834640&#45;&gt;1990981088416 -->
<g id="edge12" class="edge">
<title>1992862834640&#45;&gt;1990981088416</title>
<path fill="none" stroke="black" d="M818.11,-87C826.11,-87 834.37,-87 842.15,-87"/>
<polygon fill="black" stroke="black" points="841.96,-90.5 851.96,-87 841.96,-83.5 841.96,-90.5"/>
</g>
<!-- 1990976663008 -->
<g id="node6" class="node">
<title>1990976663008</title>
<polygon fill="white" stroke="black" points="1032.5,-105 943.75,-105 943.75,-69 1032.5,-69 1032.5,-105"/>
<text text-anchor="middle" x="988.12" y="-81.97" font-family="Times New Roman,serif" font-size="12.00">Customer Alert</text>
</g>
<!-- 1990976652256 -->
<g id="node27" class="node">
<title>1990976652256</title>
<ellipse fill="white" stroke="black" cx="1095.5" cy="-87" rx="27" ry="27"/>
</g>
<!-- 1990976663008&#45;&gt;1990976652256 -->
<g id="edge14" class="edge">
<title>1990976663008&#45;&gt;1990976652256</title>
<path fill="none" stroke="black" d="M1032.9,-87C1040.86,-87 1049.1,-87 1056.86,-87"/>
<polygon fill="black" stroke="black" points="1056.67,-90.5 1066.67,-87 1056.67,-83.5 1056.67,-90.5"/>
</g>
<!-- 1990976654656 -->
<g id="node7" class="node">
<title>1990976654656</title>
<polygon fill="white" stroke="black" points="1254,-105 1158.5,-105 1158.5,-69 1254,-69 1254,-105"/>
<text text-anchor="middle" x="1206.25" y="-81.97" font-family="Times New Roman,serif" font-size="12.00">Drone Assemble</text>
</g>
<!-- 1990976667136 -->
<g id="node28" class="node">
<title>1990976667136</title>
<ellipse fill="white" stroke="black" cx="1317" cy="-87" rx="27" ry="27"/>
</g>
<!-- 1990976654656&#45;&gt;1990976667136 -->
<g id="edge16" class="edge">
<title>1990976654656&#45;&gt;1990976667136</title>
<path fill="none" stroke="black" d="M1254.32,-87C1262.32,-87 1270.54,-87 1278.27,-87"/>
<polygon fill="black" stroke="black" points="1278,-90.5 1288,-87 1278,-83.5 1278,-90.5"/>
</g>
<!-- 1990976666416 -->
<g id="node8" class="node">
<title>1990976666416</title>
<polygon fill="white" stroke="black" points="1447,-105 1380,-105 1380,-69 1447,-69 1447,-105"/>
<text text-anchor="middle" x="1413.5" y="-81.97" font-family="Times New Roman,serif" font-size="12.00">Flight Test</text>
</g>
<!-- 1990981240256 -->
<g id="node29" class="node">
<title>1990981240256</title>
<ellipse fill="white" stroke="black" cx="1510" cy="-87" rx="27" ry="27"/>
</g>
<!-- 1990976666416&#45;&gt;1990981240256 -->
<g id="edge18" class="edge">
<title>1990976666416&#45;&gt;1990981240256</title>
<path fill="none" stroke="black" d="M1447.29,-87C1455.02,-87 1463.33,-87 1471.27,-87"/>
<polygon fill="black" stroke="black" points="1471,-90.5 1481,-87 1471,-83.5 1471,-90.5"/>
</g>
<!-- 1990981243616 -->
<g id="node9" class="node">
<title>1990981243616</title>
<polygon fill="white" stroke="black" points="1652.75,-78 1573,-78 1573,-42 1652.75,-42 1652.75,-78"/>
<text text-anchor="middle" x="1612.88" y="-54.98" font-family="Times New Roman,serif" font-size="12.00">Data Monitor</text>
</g>
<!-- 1990981244096 -->
<g id="node30" class="node">
<title>1990981244096</title>
<ellipse fill="white" stroke="black" cx="1715.75" cy="-59" rx="27" ry="27"/>
</g>
<!-- 1990981243616&#45;&gt;1990981244096 -->
<g id="edge20" class="edge">
<title>1990981243616&#45;&gt;1990981244096</title>
<path fill="none" stroke="black" d="M1653.16,-59.61C1661.03,-59.53 1669.27,-59.45 1677.07,-59.37"/>
<polygon fill="black" stroke="black" points="1677,-62.87 1686.97,-59.28 1676.93,-55.87 1677,-62.87"/>
</g>
<!-- 1990981239296 -->
<g id="node10" class="node">
<title>1990981239296</title>
<polygon fill="black" stroke="black" points="1846.75,-77 1792.75,-77 1792.75,-41 1846.75,-41 1846.75,-77"/>
</g>
<!-- 1990981254560 -->
<g id="node31" class="node">
<title>1990981254560</title>
<ellipse fill="white" stroke="black" cx="1923.75" cy="-59" rx="27" ry="27"/>
</g>
<!-- 1990981239296&#45;&gt;1990981254560 -->
<g id="edge24" class="edge">
<title>1990981239296&#45;&gt;1990981254560</title>
<path fill="none" stroke="black" d="M1847.02,-59C1858.68,-59 1872.61,-59 1885.33,-59"/>
<polygon fill="black" stroke="black" points="1885.06,-62.5 1895.06,-59 1885.06,-55.5 1885.06,-62.5"/>
</g>
<!-- 1990981250192 -->
<g id="node11" class="node">
<title>1990981250192</title>
<polygon fill="white" stroke="black" points="1860.75,-131 1778.75,-131 1778.75,-95 1860.75,-95 1860.75,-131"/>
<text text-anchor="middle" x="1819.75" y="-107.97" font-family="Times New Roman,serif" font-size="12.00">Route Update</text>
</g>
<!-- 1990981250192&#45;&gt;1990981240256 -->
<g id="edge23" class="edge">
<title>1990981250192&#45;&gt;1990981240256</title>
<path fill="none" stroke="black" d="M1778.47,-109.6C1718.55,-104.53 1606.74,-95.09 1548.48,-90.17"/>
<polygon fill="black" stroke="black" points="1549.01,-86.7 1538.75,-89.34 1548.42,-93.67 1549.01,-86.7"/>
</g>
<!-- 1990977857072 -->
<g id="node12" class="node">
<title>1990977857072</title>
<polygon fill="white" stroke="black" points="2080.75,-104 1986.75,-104 1986.75,-68 2080.75,-68 2080.75,-104"/>
<text text-anchor="middle" x="2033.75" y="-80.97" font-family="Times New Roman,serif" font-size="12.00">Emergency Plan</text>
</g>
<!-- 1990980571632 -->
<g id="node32" class="node">
<title>1990980571632</title>
<ellipse fill="white" stroke="black" cx="2143.75" cy="-59" rx="27" ry="27"/>
</g>
<!-- 1990977857072&#45;&gt;1990980571632 -->
<g id="edge28" class="edge">
<title>1990977857072&#45;&gt;1990980571632</title>
<path fill="none" stroke="black" d="M2081.18,-74.39C2089.57,-72.29 2098.21,-70.13 2106.27,-68.12"/>
<polygon fill="black" stroke="black" points="2106.87,-71.58 2115.72,-65.76 2105.17,-64.79 2106.87,-71.58"/>
</g>
<!-- 1990980569808 -->
<g id="node13" class="node">
<title>1990980569808</title>
<polygon fill="white" stroke="black" points="2071.75,-50 1995.75,-50 1995.75,-14 2071.75,-14 2071.75,-50"/>
<text text-anchor="middle" x="2033.75" y="-26.98" font-family="Times New Roman,serif" font-size="12.00">Safety Audit</text>
</g>
<!-- 1990980569808&#45;&gt;1990980571632 -->
<g id="edge27" class="edge">
<title>1990980569808&#45;&gt;1990980571632</title>
<path fill="none" stroke="black" d="M2072.22,-41.37C2083.25,-44.13 2095.3,-47.14 2106.27,-49.88"/>
<polygon fill="black" stroke="black" points="2105.21,-53.22 2115.76,-52.25 2106.91,-46.43 2105.21,-53.22"/>
</g>
<!-- 1990981254656 -->
<g id="node14" class="node">
<title>1990981254656</title>
<polygon fill="black" stroke="black" points="2260.75,-77 2206.75,-77 2206.75,-41 2260.75,-41 2260.75,-77"/>
</g>
<!-- 1990977219200 -->
<g id="node33" class="node">
<title>1990977219200</title>
<ellipse fill="white" stroke="black" cx="2323.75" cy="-59" rx="27" ry="27"/>
</g>
<!-- 1990981254656&#45;&gt;1990977219200 -->
<g id="edge30" class="edge">
<title>1990981254656&#45;&gt;1990977219200</title>
<path fill="none" stroke="black" d="M2261.15,-59C2268.64,-59 2276.93,-59 2284.95,-59"/>
<polygon fill="black" stroke="black" points="2284.85,-62.5 2294.85,-59 2284.85,-55.5 2284.85,-62.5"/>
</g>
<!-- 1990977214304 -->
<g id="node15" class="node">
<title>1990977214304</title>
<polygon fill="white" stroke="black" points="2487.5,-50 2386.75,-50 2386.75,-14 2487.5,-14 2487.5,-50"/>
<text text-anchor="middle" x="2437.12" y="-26.98" font-family="Times New Roman,serif" font-size="12.00">Maintenance Plan</text>
</g>
<!-- 1990977210128 -->
<g id="node34" class="node">
<title>1990977210128</title>
<ellipse fill="white" stroke="black" cx="2550.5" cy="-31" rx="27" ry="27"/>
</g>
<!-- 1990977214304&#45;&gt;1990977210128 -->
<g id="edge32" class="edge">
<title>1990977214304&#45;&gt;1990977210128</title>
<path fill="none" stroke="black" d="M2487.95,-31.55C2495.93,-31.48 2504.08,-31.41 2511.72,-31.34"/>
<polygon fill="black" stroke="black" points="2511.73,-34.84 2521.7,-31.25 2511.67,-27.84 2511.73,-34.84"/>
</g>
<!-- 1990977721872 -->
<g id="node16" class="node">
<title>1990977721872</title>
<polygon fill="white" stroke="black" points="2712,-103 2630.75,-103 2630.75,-67 2712,-67 2712,-103"/>
<text text-anchor="middle" x="2671.38" y="-79.97" font-family="Times New Roman,serif" font-size="12.00">Battery Cycle</text>
</g>
<!-- 1990977721872&#45;&gt;1990977219200 -->
<g id="edge35" class="edge">
<title>1990977721872&#45;&gt;1990977219200</title>
<path fill="none" stroke="black" d="M2630.42,-81.99C2563.15,-76.93 2428.17,-66.78 2362.45,-61.84"/>
<polygon fill="black" stroke="black" points="2362.76,-58.35 2352.52,-61.09 2362.23,-65.33 2362.76,-58.35"/>
</g>
<!-- 1990978707408 -->
<g id="node17" class="node">
<title>1990978707408</title>
<polygon fill="white" stroke="black" points="2729.25,-49 2613.5,-49 2613.5,-13 2729.25,-13 2729.25,-49"/>
<text text-anchor="middle" x="2671.38" y="-25.98" font-family="Times New Roman,serif" font-size="12.00">Performance Review</text>
</g>
<!-- 1990981245056 -->
<g id="node35" class="node">
<title>1990981245056</title>
<ellipse fill="white" stroke="black" cx="2792.25" cy="-31" rx="27" ry="27"/>
</g>
<!-- 1990978707408&#45;&gt;1990981245056 -->
<g id="edge36" class="edge">
<title>1990978707408&#45;&gt;1990981245056</title>
<path fill="none" stroke="black" d="M2729.72,-31C2737.83,-31 2745.98,-31 2753.59,-31"/>
<polygon fill="black" stroke="black" points="2753.48,-34.5 2763.48,-31 2753.48,-27.5 2753.48,-34.5"/>
</g>
<!-- 1990981253552 -->
<g id="node18" class="node">
<title>1990981253552</title>
<polygon fill="white" stroke="black" points="2934.25,-49 2855.25,-49 2855.25,-13 2934.25,-13 2934.25,-49"/>
<text text-anchor="middle" x="2894.75" y="-25.98" font-family="Times New Roman,serif" font-size="12.00">Impact Study</text>
</g>
<!-- 1990981729840 -->
<g id="node36" class="node">
<title>1990981729840</title>
<ellipse fill="white" stroke="black" cx="2997.25" cy="-31" rx="27" ry="27"/>
</g>
<!-- 1990981253552&#45;&gt;1990981729840 -->
<g id="edge38" class="edge">
<title>1990981253552&#45;&gt;1990981729840</title>
<path fill="none" stroke="black" d="M2934.61,-31C2942.46,-31 2950.7,-31 2958.51,-31"/>
<polygon fill="black" stroke="black" points="2958.41,-34.5 2968.41,-31 2958.41,-27.5 2958.41,-34.5"/>
</g>
<!-- 1990981717408 -->
<g id="node19" class="node">
<title>1990981717408</title>
<polygon fill="white" stroke="black" points="3173,-49 3060.25,-49 3060.25,-13 3173,-13 3173,-49"/>
<text text-anchor="middle" x="3116.62" y="-25.98" font-family="Times New Roman,serif" font-size="12.00">Compliance Review</text>
</g>
<!-- 1990976226368 -->
<g id="node37" class="node">
<title>1990976226368</title>
<ellipse fill="white" stroke="black" cx="3240" cy="-31" rx="27" ry="27"/>
<ellipse fill="none" stroke="black" cx="3240" cy="-31" rx="31" ry="31"/>
<text text-anchor="start" x="3223.5" y="-15.6" font-family="Times New Roman,serif" font-size="32.00">■</text>
</g>
<!-- 1990981717408&#45;&gt;1990976226368 -->
<g id="edge40" class="edge">
<title>1990981717408&#45;&gt;1990976226368</title>
<path fill="none" stroke="black" d="M3173.34,-31C3181.45,-31 3189.68,-31 3197.45,-31"/>
<polygon fill="black" stroke="black" points="3197.28,-34.5 3207.28,-31 3197.28,-27.5 3197.28,-34.5"/>
</g>
<!-- 1990979161984 -->
<g id="node20" class="node">
<title>1990979161984</title>
<ellipse fill="white" stroke="black" cx="27" cy="-87" rx="27" ry="27"/>
<text text-anchor="start" x="9.75" y="-69.7" font-family="Times New Roman,serif" font-size="34.00">●</text>
</g>
<!-- 1990979161984&#45;&gt;1990977916320 -->
<g id="edge1" class="edge">
<title>1990979161984&#45;&gt;1990977916320</title>
<path fill="none" stroke="black" d="M54.29,-87C61.67,-87 70.02,-87 78.54,-87"/>
<polygon fill="black" stroke="black" points="78.27,-90.5 88.27,-87 78.27,-83.5 78.27,-90.5"/>
</g>
<!-- 1990976051328&#45;&gt;1990981482448 -->
<g id="edge3" class="edge">
<title>1990976051328&#45;&gt;1990981482448</title>
<path fill="none" stroke="black" d="M282.74,-87C290.12,-87 298.38,-87 306.59,-87"/>
<polygon fill="black" stroke="black" points="306.55,-90.5 316.55,-87 306.55,-83.5 306.55,-90.5"/>
</g>
<!-- 1990979573264&#45;&gt;1990980799568 -->
<g id="edge7" class="edge">
<title>1990979573264&#45;&gt;1990980799568</title>
<path fill="none" stroke="black" d="M482.36,-123C490.45,-123 499.62,-123 508.72,-123"/>
<polygon fill="black" stroke="black" points="508.62,-126.5 518.62,-123 508.62,-119.5 508.62,-126.5"/>
</g>
<!-- 1990979568320&#45;&gt;1990979576288 -->
<g id="edge6" class="edge">
<title>1990979568320&#45;&gt;1990979576288</title>
<path fill="none" stroke="black" d="M482.36,-51C489.78,-51 498.11,-51 506.46,-51"/>
<polygon fill="black" stroke="black" points="506.27,-54.5 516.27,-51 506.27,-47.5 506.27,-54.5"/>
</g>
<!-- 1990979576240&#45;&gt;1992862834640 -->
<g id="edge11" class="edge">
<title>1990979576240&#45;&gt;1992862834640</title>
<path fill="none" stroke="black" d="M689.72,-59.44C697.59,-62.1 706.61,-65.15 715.73,-68.23"/>
<polygon fill="black" stroke="black" points="714.37,-71.47 724.97,-71.36 716.62,-64.84 714.37,-71.47"/>
</g>
<!-- 1990979581616&#45;&gt;1992862834640 -->
<g id="edge10" class="edge">
<title>1990979581616&#45;&gt;1992862834640</title>
<path fill="none" stroke="black" d="M689.72,-114.56C697.59,-111.9 706.61,-108.85 715.73,-105.77"/>
<polygon fill="black" stroke="black" points="716.62,-109.16 724.97,-102.64 714.37,-102.53 716.62,-109.16"/>
</g>
<!-- 1990981088416&#45;&gt;1990976663008 -->
<g id="edge13" class="edge">
<title>1990981088416&#45;&gt;1990976663008</title>
<path fill="none" stroke="black" d="M908.07,-87C915.44,-87 923.75,-87 932.13,-87"/>
<polygon fill="black" stroke="black" points="932.02,-90.5 942.02,-87 932.02,-83.5 932.02,-90.5"/>
</g>
<!-- 1990976652256&#45;&gt;1990976654656 -->
<g id="edge15" class="edge">
<title>1990976652256&#45;&gt;1990976654656</title>
<path fill="none" stroke="black" d="M1122.83,-87C1130.17,-87 1138.46,-87 1146.88,-87"/>
<polygon fill="black" stroke="black" points="1146.84,-90.5 1156.84,-87 1146.84,-83.5 1146.84,-90.5"/>
</g>
<!-- 1990976667136&#45;&gt;1990976666416 -->
<g id="edge17" class="edge">
<title>1990976667136&#45;&gt;1990976666416</title>
<path fill="none" stroke="black" d="M1344.32,-87C1351.75,-87 1360.04,-87 1368.2,-87"/>
<polygon fill="black" stroke="black" points="1368.06,-90.5 1378.06,-87 1368.06,-83.5 1368.06,-90.5"/>
</g>
<!-- 1990981240256&#45;&gt;1990981243616 -->
<g id="edge19" class="edge">
<title>1990981240256&#45;&gt;1990981243616</title>
<path fill="none" stroke="black" d="M1536.46,-80.19C1544.17,-78.12 1552.93,-75.78 1561.68,-73.44"/>
<polygon fill="black" stroke="black" points="1562.46,-76.85 1571.21,-70.88 1560.65,-70.09 1562.46,-76.85"/>
</g>
<!-- 1990981244096&#45;&gt;1990981239296 -->
<g id="edge22" class="edge">
<title>1990981244096&#45;&gt;1990981239296</title>
<path fill="none" stroke="black" d="M1743.02,-59C1754.68,-59 1768.61,-59 1781.33,-59"/>
<polygon fill="black" stroke="black" points="1781.06,-62.5 1791.06,-59 1781.06,-55.5 1781.06,-62.5"/>
</g>
<!-- 1990981244096&#45;&gt;1990981250192 -->
<g id="edge21" class="edge">
<title>1990981244096&#45;&gt;1990981250192</title>
<path fill="none" stroke="black" d="M1740.15,-71.39C1750.16,-76.69 1762.2,-83.06 1773.81,-89.21"/>
<polygon fill="black" stroke="black" points="1772.03,-92.23 1782.5,-93.81 1775.3,-86.04 1772.03,-92.23"/>
</g>
<!-- 1990981254560&#45;&gt;1990977857072 -->
<g id="edge25" class="edge">
<title>1990981254560&#45;&gt;1990977857072</title>
<path fill="none" stroke="black" d="M1950.34,-65.4C1957.98,-67.31 1966.67,-69.48 1975.47,-71.68"/>
<polygon fill="black" stroke="black" points="1974.6,-75.07 1985.15,-74.1 1976.3,-68.28 1974.6,-75.07"/>
</g>
<!-- 1990981254560&#45;&gt;1990980569808 -->
<g id="edge26" class="edge">
<title>1990981254560&#45;&gt;1990980569808</title>
<path fill="none" stroke="black" d="M1950.34,-52.6C1960.55,-50.05 1972.66,-47.02 1984.4,-44.09"/>
<polygon fill="black" stroke="black" points="1985.16,-47.51 1994.01,-41.68 1983.46,-40.71 1985.16,-47.51"/>
</g>
<!-- 1990980571632&#45;&gt;1990981254656 -->
<g id="edge29" class="edge">
<title>1990980571632&#45;&gt;1990981254656</title>
<path fill="none" stroke="black" d="M2171.15,-59C2178.64,-59 2186.93,-59 2194.95,-59"/>
<polygon fill="black" stroke="black" points="2194.85,-62.5 2204.85,-59 2194.85,-55.5 2194.85,-62.5"/>
</g>
<!-- 1990977219200&#45;&gt;1990977214304 -->
<g id="edge31" class="edge">
<title>1990977219200&#45;&gt;1990977214304</title>
<path fill="none" stroke="black" d="M2350.3,-52.81C2357.97,-50.95 2366.73,-48.82 2375.66,-46.66"/>
<polygon fill="black" stroke="black" points="2376.21,-50.13 2385.1,-44.37 2374.56,-43.32 2376.21,-50.13"/>
</g>
<!-- 1990977210128&#45;&gt;1990977721872 -->
<g id="edge34" class="edge">
<title>1990977210128&#45;&gt;1990977721872</title>
<path fill="none" stroke="black" d="M2575.56,-41.93C2588.34,-47.74 2604.57,-55.11 2619.97,-62.1"/>
<polygon fill="black" stroke="black" points="2618.51,-65.28 2629.06,-66.23 2621.4,-58.91 2618.51,-65.28"/>
</g>
<!-- 1990977210128&#45;&gt;1990978707408 -->
<g id="edge33" class="edge">
<title>1990977210128&#45;&gt;1990978707408</title>
<path fill="none" stroke="black" d="M2577.88,-31C2585.21,-31 2593.51,-31 2602.07,-31"/>
<polygon fill="black" stroke="black" points="2601.89,-34.5 2611.89,-31 2601.89,-27.5 2601.89,-34.5"/>
</g>
<!-- 1990981245056&#45;&gt;1990981253552 -->
<g id="edge37" class="edge">
<title>1990981245056&#45;&gt;1990981253552</title>
<path fill="none" stroke="black" d="M2819.66,-31C2827.09,-31 2835.44,-31 2843.77,-31"/>
<polygon fill="black" stroke="black" points="2843.53,-34.5 2853.53,-31 2843.53,-27.5 2843.53,-34.5"/>
</g>
<!-- 1990981729840&#45;&gt;1990981717408 -->
<g id="edge39" class="edge">
<title>1990981729840&#45;&gt;1990981717408</title>
<path fill="none" stroke="black" d="M3024.59,-31C3031.92,-31 3040.23,-31 3048.78,-31"/>
<polygon fill="black" stroke="black" points="3048.57,-34.5 3058.57,-31 3048.57,-27.5 3048.57,-34.5"/>
</g>
</g>
</svg>
