<?xml version="1.0" encoding="UTF-8" standalone="no"?>
<!DOCTYPE svg PUBLIC "-//W3C//DTD SVG 1.1//EN"
 "http://www.w3.org/Graphics/SVG/1.1/DTD/svg11.dtd">
<!-- Generated by graphviz version 11.0.0 (20240428.1522)
 -->
<!-- Title: imdf_net_1754052953.6676986 Pages: 1 -->
<svg width="2835pt" height="134pt"
 viewBox="0.00 0.00 2835.25 134.00" xmlns="http://www.w3.org/2000/svg" xmlns:xlink="http://www.w3.org/1999/xlink">
<g id="graph0" class="graph" transform="scale(1 1) rotate(0) translate(4 130)">
<title>imdf_net_1754052953.6676986</title>
<polygon fill="white" stroke="none" points="-4,4 -4,-130 2831.25,-130 2831.25,4 -4,4"/>
<!-- 1990979917232 -->
<g id="node1" class="node">
<title>1990979917232</title>
<polygon fill="black" stroke="black" points="144,-81 90,-81 90,-45 144,-45 144,-81"/>
</g>
<!-- 1990977088272 -->
<g id="node18" class="node">
<title>1990977088272</title>
<ellipse fill="white" stroke="black" cx="207" cy="-99" rx="27" ry="27"/>
</g>
<!-- 1990979917232&#45;&gt;1990977088272 -->
<g id="edge3" class="edge">
<title>1990979917232&#45;&gt;1990977088272</title>
<path fill="none" stroke="black" d="M144.4,-73.8C152.75,-77.22 162.12,-81.05 170.97,-84.67"/>
<polygon fill="black" stroke="black" points="169.44,-87.83 180.02,-88.37 172.09,-81.35 169.44,-87.83"/>
</g>
<!-- 1990981337504 -->
<g id="node19" class="node">
<title>1990981337504</title>
<ellipse fill="white" stroke="black" cx="207" cy="-27" rx="27" ry="27"/>
</g>
<!-- 1990979917232&#45;&gt;1990981337504 -->
<g id="edge2" class="edge">
<title>1990979917232&#45;&gt;1990981337504</title>
<path fill="none" stroke="black" d="M144.4,-52.2C152.75,-48.78 162.12,-44.95 170.97,-41.33"/>
<polygon fill="black" stroke="black" points="172.09,-44.65 180.02,-37.63 169.44,-38.17 172.09,-44.65"/>
</g>
<!-- 1990977078240 -->
<g id="node2" class="node">
<title>1990977078240</title>
<polygon fill="white" stroke="black" points="356.5,-117 270,-117 270,-81 356.5,-81 356.5,-117"/>
<text text-anchor="middle" x="313.25" y="-93.97" font-family="Times New Roman,serif" font-size="12.00">Audit Artifacts</text>
</g>
<!-- 1990977562208 -->
<g id="node21" class="node">
<title>1990977562208</title>
<ellipse fill="white" stroke="black" cx="419.5" cy="-99" rx="27" ry="27"/>
</g>
<!-- 1990977078240&#45;&gt;1990977562208 -->
<g id="edge6" class="edge">
<title>1990977078240&#45;&gt;1990977562208</title>
<path fill="none" stroke="black" d="M356.95,-99C364.87,-99 373.09,-99 380.84,-99"/>
<polygon fill="black" stroke="black" points="380.64,-102.5 390.64,-99 380.64,-95.5 380.64,-102.5"/>
</g>
<!-- 1990981722976 -->
<g id="node3" class="node">
<title>1990981722976</title>
<polygon fill="white" stroke="black" points="356.5,-45 270,-45 270,-9 356.5,-9 356.5,-45"/>
<text text-anchor="middle" x="313.25" y="-21.98" font-family="Times New Roman,serif" font-size="12.00">Interview Staff</text>
</g>
<!-- 1990977558464 -->
<g id="node20" class="node">
<title>1990977558464</title>
<ellipse fill="white" stroke="black" cx="419.5" cy="-27" rx="27" ry="27"/>
</g>
<!-- 1990981722976&#45;&gt;1990977558464 -->
<g id="edge7" class="edge">
<title>1990981722976&#45;&gt;1990977558464</title>
<path fill="none" stroke="black" d="M356.95,-27C364.87,-27 373.09,-27 380.84,-27"/>
<polygon fill="black" stroke="black" points="380.64,-30.5 390.64,-27 380.64,-23.5 380.64,-30.5"/>
</g>
<!-- 1990981973152 -->
<g id="node4" class="node">
<title>1990981973152</title>
<polygon fill="white" stroke="black" points="560,-81 482.5,-81 482.5,-45 560,-45 560,-81"/>
<text text-anchor="middle" x="521.25" y="-57.98" font-family="Times New Roman,serif" font-size="12.00">Assess Risks</text>
</g>
<!-- 1990979284880 -->
<g id="node22" class="node">
<title>1990979284880</title>
<ellipse fill="white" stroke="black" cx="623" cy="-63" rx="27" ry="27"/>
</g>
<!-- 1990981973152&#45;&gt;1990979284880 -->
<g id="edge10" class="edge">
<title>1990981973152&#45;&gt;1990979284880</title>
<path fill="none" stroke="black" d="M560.25,-63C568.07,-63 576.31,-63 584.13,-63"/>
<polygon fill="black" stroke="black" points="584.05,-66.5 594.05,-63 584.05,-59.5 584.05,-66.5"/>
</g>
<!-- 1990976886672 -->
<g id="node5" class="node">
<title>1990976886672</title>
<polygon fill="white" stroke="black" points="768.75,-81 686,-81 686,-45 768.75,-45 768.75,-81"/>
<text text-anchor="middle" x="727.38" y="-57.98" font-family="Times New Roman,serif" font-size="12.00">Plan Retrieval</text>
</g>
<!-- 1990976888448 -->
<g id="node23" class="node">
<title>1990976888448</title>
<ellipse fill="white" stroke="black" cx="831.75" cy="-99" rx="27" ry="27"/>
</g>
<!-- 1990976886672&#45;&gt;1990976888448 -->
<g id="edge13" class="edge">
<title>1990976886672&#45;&gt;1990976888448</title>
<path fill="none" stroke="black" d="M769.13,-77.33C777.74,-80.36 786.76,-83.53 795.15,-86.48"/>
<polygon fill="black" stroke="black" points="793.73,-89.69 804.32,-89.71 796.05,-83.09 793.73,-89.69"/>
</g>
<!-- 1990979102448 -->
<g id="node24" class="node">
<title>1990979102448</title>
<ellipse fill="white" stroke="black" cx="831.75" cy="-27" rx="27" ry="27"/>
</g>
<!-- 1990976886672&#45;&gt;1990979102448 -->
<g id="edge12" class="edge">
<title>1990976886672&#45;&gt;1990979102448</title>
<path fill="none" stroke="black" d="M769.13,-48.67C777.74,-45.64 786.76,-42.47 795.15,-39.52"/>
<polygon fill="black" stroke="black" points="796.05,-42.91 804.32,-36.29 793.73,-36.31 796.05,-42.91"/>
</g>
<!-- 1990979106624 -->
<g id="node6" class="node">
<title>1990979106624</title>
<polygon fill="white" stroke="black" points="980.5,-117 897.75,-117 897.75,-81 980.5,-81 980.5,-117"/>
<text text-anchor="middle" x="939.12" y="-93.97" font-family="Times New Roman,serif" font-size="12.00">Legal Review</text>
</g>
<!-- 1990977555872 -->
<g id="node25" class="node">
<title>1990977555872</title>
<ellipse fill="white" stroke="black" cx="1046.5" cy="-99" rx="27" ry="27"/>
</g>
<!-- 1990979106624&#45;&gt;1990977555872 -->
<g id="edge17" class="edge">
<title>1990979106624&#45;&gt;1990977555872</title>
<path fill="none" stroke="black" d="M980.87,-99C989.71,-99 999.02,-99 1007.74,-99"/>
<polygon fill="black" stroke="black" points="1007.64,-102.5 1017.64,-99 1007.64,-95.5 1007.64,-102.5"/>
</g>
<!-- 1990979097312 -->
<g id="node7" class="node">
<title>1990979097312</title>
<polygon fill="white" stroke="black" points="983.5,-45 894.75,-45 894.75,-9 983.5,-9 983.5,-45"/>
<text text-anchor="middle" x="939.12" y="-21.98" font-family="Times New Roman,serif" font-size="12.00">Security Check</text>
</g>
<!-- 1990977559904 -->
<g id="node26" class="node">
<title>1990977559904</title>
<ellipse fill="white" stroke="black" cx="1046.5" cy="-27" rx="27" ry="27"/>
</g>
<!-- 1990979097312&#45;&gt;1990977559904 -->
<g id="edge16" class="edge">
<title>1990979097312&#45;&gt;1990977559904</title>
<path fill="none" stroke="black" d="M983.9,-27C991.86,-27 1000.1,-27 1007.86,-27"/>
<polygon fill="black" stroke="black" points="1007.67,-30.5 1017.67,-27 1007.67,-23.5 1007.67,-30.5"/>
</g>
<!-- 1990979106288 -->
<g id="node8" class="node">
<title>1990979106288</title>
<polygon fill="white" stroke="black" points="1212.5,-81 1109.5,-81 1109.5,-45 1212.5,-45 1212.5,-81"/>
<text text-anchor="middle" x="1161" y="-57.98" font-family="Times New Roman,serif" font-size="12.00">Execute Recovery</text>
</g>
<!-- 1990979107200 -->
<g id="node27" class="node">
<title>1990979107200</title>
<ellipse fill="white" stroke="black" cx="1275.5" cy="-63" rx="27" ry="27"/>
</g>
<!-- 1990979106288&#45;&gt;1990979107200 -->
<g id="edge20" class="edge">
<title>1990979106288&#45;&gt;1990979107200</title>
<path fill="none" stroke="black" d="M1212.98,-63C1221,-63 1229.15,-63 1236.79,-63"/>
<polygon fill="black" stroke="black" points="1236.77,-66.5 1246.77,-63 1236.77,-59.5 1236.77,-66.5"/>
</g>
<!-- 1990978401248 -->
<g id="node9" class="node">
<title>1990978401248</title>
<polygon fill="white" stroke="black" points="1422.75,-81 1338.5,-81 1338.5,-45 1422.75,-45 1422.75,-81"/>
<text text-anchor="middle" x="1380.62" y="-57.98" font-family="Times New Roman,serif" font-size="12.00">Validate Items</text>
</g>
<!-- 1990978397792 -->
<g id="node28" class="node">
<title>1990978397792</title>
<ellipse fill="white" stroke="black" cx="1485.75" cy="-63" rx="27" ry="27"/>
</g>
<!-- 1990978401248&#45;&gt;1990978397792 -->
<g id="edge22" class="edge">
<title>1990978401248&#45;&gt;1990978397792</title>
<path fill="none" stroke="black" d="M1422.98,-63C1430.94,-63 1439.24,-63 1447.08,-63"/>
<polygon fill="black" stroke="black" points="1447,-66.5 1457,-63 1447,-59.5 1447,-66.5"/>
</g>
<!-- 1990978845296 -->
<g id="node10" class="node">
<title>1990978845296</title>
<polygon fill="white" stroke="black" points="1645.75,-81 1548.75,-81 1548.75,-45 1645.75,-45 1645.75,-81"/>
<text text-anchor="middle" x="1597.25" y="-57.98" font-family="Times New Roman,serif" font-size="12.00">Restore Function</text>
</g>
<!-- 1990978832096 -->
<g id="node29" class="node">
<title>1990978832096</title>
<ellipse fill="white" stroke="black" cx="1708.75" cy="-63" rx="27" ry="27"/>
</g>
<!-- 1990978845296&#45;&gt;1990978832096 -->
<g id="edge24" class="edge">
<title>1990978845296&#45;&gt;1990978832096</title>
<path fill="none" stroke="black" d="M1645.96,-63C1654.07,-63 1662.4,-63 1670.2,-63"/>
<polygon fill="black" stroke="black" points="1670.04,-66.5 1680.04,-63 1670.04,-59.5 1670.04,-66.5"/>
</g>
<!-- 1990978840016 -->
<g id="node11" class="node">
<title>1990978840016</title>
<polygon fill="white" stroke="black" points="1868,-108 1771.75,-108 1771.75,-72 1868,-72 1868,-108"/>
<text text-anchor="middle" x="1819.88" y="-84.97" font-family="Times New Roman,serif" font-size="12.00">Archive Records</text>
</g>
<!-- 1990978839824 -->
<g id="node30" class="node">
<title>1990978839824</title>
<ellipse fill="white" stroke="black" cx="1931" cy="-63" rx="27" ry="27"/>
</g>
<!-- 1990978840016&#45;&gt;1990978839824 -->
<g id="edge27" class="edge">
<title>1990978840016&#45;&gt;1990978839824</title>
<path fill="none" stroke="black" d="M1868.42,-78.24C1876.85,-76.15 1885.51,-74.01 1893.58,-72.01"/>
<polygon fill="black" stroke="black" points="1894.16,-75.47 1903.02,-69.67 1892.48,-68.68 1894.16,-75.47"/>
</g>
<!-- 1990978835168 -->
<g id="node12" class="node">
<title>1990978835168</title>
<polygon fill="white" stroke="black" points="1866.12,-54 1773.62,-54 1773.62,-18 1866.12,-18 1866.12,-54"/>
<text text-anchor="middle" x="1819.88" y="-30.98" font-family="Times New Roman,serif" font-size="12.00">Update Systems</text>
</g>
<!-- 1990978835168&#45;&gt;1990978839824 -->
<g id="edge28" class="edge">
<title>1990978835168&#45;&gt;1990978839824</title>
<path fill="none" stroke="black" d="M1866.52,-47.29C1875.54,-49.52 1884.89,-51.84 1893.55,-53.98"/>
<polygon fill="black" stroke="black" points="1892.44,-57.31 1902.98,-56.32 1894.12,-50.52 1892.44,-57.31"/>
</g>
<!-- 1990977568352 -->
<g id="node13" class="node">
<title>1990977568352</title>
<polygon fill="white" stroke="black" points="2065.5,-81 1994,-81 1994,-45 2065.5,-45 2065.5,-81"/>
<text text-anchor="middle" x="2029.75" y="-57.98" font-family="Times New Roman,serif" font-size="12.00">Train Users</text>
</g>
<!-- 1990977565184 -->
<g id="node31" class="node">
<title>1990977565184</title>
<ellipse fill="white" stroke="black" cx="2128.5" cy="-63" rx="27" ry="27"/>
</g>
<!-- 1990977568352&#45;&gt;1990977565184 -->
<g id="edge30" class="edge">
<title>1990977568352&#45;&gt;1990977565184</title>
<path fill="none" stroke="black" d="M2065.95,-63C2073.7,-63 2081.94,-63 2089.79,-63"/>
<polygon fill="black" stroke="black" points="2089.76,-66.5 2099.76,-63 2089.76,-59.5 2089.76,-66.5"/>
</g>
<!-- 1990977560384 -->
<g id="node14" class="node">
<title>1990977560384</title>
<polygon fill="white" stroke="black" points="2301.25,-81 2191.5,-81 2191.5,-45 2301.25,-45 2301.25,-81"/>
<text text-anchor="middle" x="2246.38" y="-57.98" font-family="Times New Roman,serif" font-size="12.00">Document Findings</text>
</g>
<!-- 1990977557264 -->
<g id="node32" class="node">
<title>1990977557264</title>
<ellipse fill="white" stroke="black" cx="2364.25" cy="-63" rx="27" ry="27"/>
</g>
<!-- 1990977560384&#45;&gt;1990977557264 -->
<g id="edge32" class="edge">
<title>1990977560384&#45;&gt;1990977557264</title>
<path fill="none" stroke="black" d="M2301.58,-63C2309.62,-63 2317.76,-63 2325.37,-63"/>
<polygon fill="black" stroke="black" points="2325.29,-66.5 2335.29,-63 2325.29,-59.5 2325.29,-66.5"/>
</g>
<!-- 1990977564560 -->
<g id="node15" class="node">
<title>1990977564560</title>
<polygon fill="white" stroke="black" points="2521.25,-81 2427.25,-81 2427.25,-45 2521.25,-45 2521.25,-81"/>
<text text-anchor="middle" x="2474.25" y="-57.98" font-family="Times New Roman,serif" font-size="12.00">Review Lessons</text>
</g>
<!-- 1990977556544 -->
<g id="node33" class="node">
<title>1990977556544</title>
<ellipse fill="white" stroke="black" cx="2584.25" cy="-63" rx="27" ry="27"/>
</g>
<!-- 1990977564560&#45;&gt;1990977556544 -->
<g id="edge34" class="edge">
<title>1990977564560&#45;&gt;1990977556544</title>
<path fill="none" stroke="black" d="M2521.68,-63C2529.56,-63 2537.66,-63 2545.28,-63"/>
<polygon fill="black" stroke="black" points="2545.27,-66.5 2555.27,-63 2545.27,-59.5 2545.27,-66.5"/>
</g>
<!-- 1990977558992 -->
<g id="node16" class="node">
<title>1990977558992</title>
<polygon fill="white" stroke="black" points="2729.25,-81 2647.25,-81 2647.25,-45 2729.25,-45 2729.25,-81"/>
<text text-anchor="middle" x="2688.25" y="-57.98" font-family="Times New Roman,serif" font-size="12.00">Close Process</text>
</g>
<!-- 1990979927072 -->
<g id="node34" class="node">
<title>1990979927072</title>
<ellipse fill="white" stroke="black" cx="2796.25" cy="-63" rx="27" ry="27"/>
<ellipse fill="none" stroke="black" cx="2796.25" cy="-63" rx="31" ry="31"/>
<text text-anchor="start" x="2779.75" y="-47.6" font-family="Times New Roman,serif" font-size="32.00">■</text>
</g>
<!-- 1990977558992&#45;&gt;1990979927072 -->
<g id="edge36" class="edge">
<title>1990977558992&#45;&gt;1990979927072</title>
<path fill="none" stroke="black" d="M2729.63,-63C2737.4,-63 2745.55,-63 2753.37,-63"/>
<polygon fill="black" stroke="black" points="2753.37,-66.5 2763.37,-63 2753.37,-59.5 2753.37,-66.5"/>
</g>
<!-- 1990979927456 -->
<g id="node17" class="node">
<title>1990979927456</title>
<ellipse fill="white" stroke="black" cx="27" cy="-63" rx="27" ry="27"/>
<text text-anchor="start" x="9.75" y="-45.7" font-family="Times New Roman,serif" font-size="34.00">●</text>
</g>
<!-- 1990979927456&#45;&gt;1990979917232 -->
<g id="edge1" class="edge">
<title>1990979927456&#45;&gt;1990979917232</title>
<path fill="none" stroke="black" d="M54.4,-63C61.89,-63 70.18,-63 78.2,-63"/>
<polygon fill="black" stroke="black" points="78.1,-66.5 88.1,-63 78.1,-59.5 78.1,-66.5"/>
</g>
<!-- 1990977088272&#45;&gt;1990977078240 -->
<g id="edge5" class="edge">
<title>1990977088272&#45;&gt;1990977078240</title>
<path fill="none" stroke="black" d="M234.31,-99C241.69,-99 249.99,-99 258.36,-99"/>
<polygon fill="black" stroke="black" points="258.21,-102.5 268.21,-99 258.21,-95.5 258.21,-102.5"/>
</g>
<!-- 1990981337504&#45;&gt;1990981722976 -->
<g id="edge4" class="edge">
<title>1990981337504&#45;&gt;1990981722976</title>
<path fill="none" stroke="black" d="M234.31,-27C241.69,-27 249.99,-27 258.36,-27"/>
<polygon fill="black" stroke="black" points="258.21,-30.5 268.21,-27 258.21,-23.5 258.21,-30.5"/>
</g>
<!-- 1990977558464&#45;&gt;1990981973152 -->
<g id="edge9" class="edge">
<title>1990977558464&#45;&gt;1990981973152</title>
<path fill="none" stroke="black" d="M445.41,-35.99C453.38,-38.87 462.48,-42.15 471.54,-45.42"/>
<polygon fill="black" stroke="black" points="470.06,-48.61 480.65,-48.71 472.43,-42.02 470.06,-48.61"/>
</g>
<!-- 1990977562208&#45;&gt;1990981973152 -->
<g id="edge8" class="edge">
<title>1990977562208&#45;&gt;1990981973152</title>
<path fill="none" stroke="black" d="M445.41,-90.01C453.38,-87.13 462.48,-83.85 471.54,-80.58"/>
<polygon fill="black" stroke="black" points="472.43,-83.98 480.65,-77.29 470.06,-77.39 472.43,-83.98"/>
</g>
<!-- 1990979284880&#45;&gt;1990976886672 -->
<g id="edge11" class="edge">
<title>1990979284880&#45;&gt;1990976886672</title>
<path fill="none" stroke="black" d="M650.36,-63C657.78,-63 666.11,-63 674.46,-63"/>
<polygon fill="black" stroke="black" points="674.27,-66.5 684.27,-63 674.27,-59.5 674.27,-66.5"/>
</g>
<!-- 1990976888448&#45;&gt;1990979106624 -->
<g id="edge14" class="edge">
<title>1990976888448&#45;&gt;1990979106624</title>
<path fill="none" stroke="black" d="M859.07,-99C867.3,-99 876.7,-99 886.06,-99"/>
<polygon fill="black" stroke="black" points="885.88,-102.5 895.88,-99 885.88,-95.5 885.88,-102.5"/>
</g>
<!-- 1990979102448&#45;&gt;1990979097312 -->
<g id="edge15" class="edge">
<title>1990979102448&#45;&gt;1990979097312</title>
<path fill="none" stroke="black" d="M859.07,-27C866.44,-27 874.75,-27 883.13,-27"/>
<polygon fill="black" stroke="black" points="883.02,-30.5 893.02,-27 883.02,-23.5 883.02,-30.5"/>
</g>
<!-- 1990977555872&#45;&gt;1990979106288 -->
<g id="edge18" class="edge">
<title>1990977555872&#45;&gt;1990979106288</title>
<path fill="none" stroke="black" d="M1072.75,-90.92C1080.39,-88.47 1089.15,-85.67 1098.1,-82.81"/>
<polygon fill="black" stroke="black" points="1099.15,-86.15 1107.61,-79.77 1097.02,-79.48 1099.15,-86.15"/>
</g>
<!-- 1990977559904&#45;&gt;1990979106288 -->
<g id="edge19" class="edge">
<title>1990977559904&#45;&gt;1990979106288</title>
<path fill="none" stroke="black" d="M1072.75,-35.08C1080.39,-37.53 1089.15,-40.33 1098.1,-43.19"/>
<polygon fill="black" stroke="black" points="1097.02,-46.52 1107.61,-46.23 1099.15,-39.85 1097.02,-46.52"/>
</g>
<!-- 1990979107200&#45;&gt;1990978401248 -->
<g id="edge21" class="edge">
<title>1990979107200&#45;&gt;1990978401248</title>
<path fill="none" stroke="black" d="M1302.79,-63C1310.17,-63 1318.48,-63 1326.82,-63"/>
<polygon fill="black" stroke="black" points="1326.64,-66.5 1336.64,-63 1326.64,-59.5 1326.64,-66.5"/>
</g>
<!-- 1990978397792&#45;&gt;1990978845296 -->
<g id="edge23" class="edge">
<title>1990978397792&#45;&gt;1990978845296</title>
<path fill="none" stroke="black" d="M1512.98,-63C1520.29,-63 1528.53,-63 1536.93,-63"/>
<polygon fill="black" stroke="black" points="1536.87,-66.5 1546.87,-63 1536.87,-59.5 1536.87,-66.5"/>
</g>
<!-- 1990978832096&#45;&gt;1990978840016 -->
<g id="edge25" class="edge">
<title>1990978832096&#45;&gt;1990978840016</title>
<path fill="none" stroke="black" d="M1735.33,-69.33C1742.95,-71.22 1751.63,-73.36 1760.45,-75.54"/>
<polygon fill="black" stroke="black" points="1759.6,-78.94 1770.15,-77.94 1761.28,-72.14 1759.6,-78.94"/>
</g>
<!-- 1990978832096&#45;&gt;1990978835168 -->
<g id="edge26" class="edge">
<title>1990978832096&#45;&gt;1990978835168</title>
<path fill="none" stroke="black" d="M1735.33,-56.67C1743.49,-54.65 1752.85,-52.34 1762.3,-50"/>
<polygon fill="black" stroke="black" points="1763.02,-53.43 1771.89,-47.63 1761.34,-46.63 1763.02,-53.43"/>
</g>
<!-- 1990978839824&#45;&gt;1990977568352 -->
<g id="edge29" class="edge">
<title>1990978839824&#45;&gt;1990977568352</title>
<path fill="none" stroke="black" d="M1958.44,-63C1965.81,-63 1974.06,-63 1982.23,-63"/>
<polygon fill="black" stroke="black" points="1982.12,-66.5 1992.12,-63 1982.12,-59.5 1982.12,-66.5"/>
</g>
<!-- 1990977565184&#45;&gt;1990977560384 -->
<g id="edge31" class="edge">
<title>1990977565184&#45;&gt;1990977560384</title>
<path fill="none" stroke="black" d="M2155.79,-63C2163.13,-63 2171.44,-63 2179.97,-63"/>
<polygon fill="black" stroke="black" points="2179.74,-66.5 2189.74,-63 2179.74,-59.5 2179.74,-66.5"/>
</g>
<!-- 1990977557264&#45;&gt;1990977564560 -->
<g id="edge33" class="edge">
<title>1990977557264&#45;&gt;1990977564560</title>
<path fill="none" stroke="black" d="M2391.67,-63C2398.97,-63 2407.19,-63 2415.52,-63"/>
<polygon fill="black" stroke="black" points="2415.38,-66.5 2425.38,-63 2415.38,-59.5 2415.38,-66.5"/>
</g>
<!-- 1990977556544&#45;&gt;1990977558992 -->
<g id="edge35" class="edge">
<title>1990977556544&#45;&gt;1990977558992</title>
<path fill="none" stroke="black" d="M2611.52,-63C2618.9,-63 2627.2,-63 2635.53,-63"/>
<polygon fill="black" stroke="black" points="2635.3,-66.5 2645.3,-63 2635.3,-59.5 2635.3,-66.5"/>
</g>
</g>
</svg>
